0
SECTION
2
HEADER
9
$INSUNITS
70
4
9
$ACADVER
1
AC1014
9
$HANDSEED
5
FFFF
0
ENDSEC
0
SECTION
2
TABLES
0
TABLE
2
VPORT
5
8
100
AcDbSymbolTable
0
ENDTAB
0
TABLE
2
LTYPE
5
5
100
AcDbSymbolTable
0
LTYPE
5
14
100
AcDbSymbolTableRecord
100
AcDbLinetypeTableRecord
2
BYBLOCK
70
0
0
LTYPE
5
15
100
AcDbSymbolTableRecord
100
AcDbLinetypeTableRecord
2
BYLAYER
70
0
0
ENDTAB
0
TABLE
2
LAYER
5
2
100
AcDbSymbolTable
70
2
0
LAYER
5
50
100
AcDbSymbolTableRecord
100
AcDbLayerTableRecord
2
0
70
0
6
CONTINUOUS
0
ENDTAB
0
TABLE
2
STYLE
5
3
100
AcDbSymbolTable
70
1
0
STYLE
5
11
100
AcDbSymbolTableRecord
100
AcDbTextStyleTableRecord
2
STANDARD
70
0
0
ENDTAB
0
TABLE
2
VIEW
5
6
100
AcDbSymbolTable
70
0
0
ENDTAB
0
TABLE
2
UCS
5
7
100
AcDbSymbolTable
70
0
0
ENDTAB
0
TABLE
2
APPID
5
9
100
AcDbSymbolTable
70
2
0
APPID
5
12
100
AcDbSymbolTableRecord
100
AcDbRegAppTableRecord
2
ACAD
70
0
0
ENDTAB
0
TABLE
2
DIMSTYLE
5
A
100
AcDbSymbolTable
70
1
0
ENDTAB
0
TABLE
2
BLOCK_RECORD
5
1
100
AcDbSymbolTable
70
1
0
BLOCK_RECORD
5
1F
100
AcDbSymbolTableRecord
100
AcDbBlockTableRecord
2
*MODEL_SPACE
0
BLOCK_RECORD
5
1B
100
AcDbSymbolTableRecord
100
AcDbBlockTableRecord
2
*PAPER_SPACE
0
ENDTAB
0
ENDSEC
0
SECTION
2
BLOCKS
0
BLOCK
5
20
100
AcDbEntity
100
AcDbBlockBegin
2
*MODEL_SPACE
0
ENDBLK
5
21
100
AcDbEntity
100
AcDbBlockEnd
0
BLOCK
5
1C
100
AcDbEntity
100
AcDbBlockBegin
2
*PAPER_SPACE
0
ENDBLK
5
1D
100
AcDbEntity
100
AcDbBlockEnd
0
ENDSEC
0
SECTION
2
ENTITIES
0
LWPOLYLINE
5
100
100
AcDbEntity
8
0
100
AcDbPolyline
90
4
70
1
43
0.0
10
-8.5000001639127749
20
37.500000409781933
10
8.5000001639127767
20
37.500000335276127
42
-0.99999999999999989
10
8.5000001639127749
20
32.500000335276127
10
-8.5000001639127767
20
32.500000409781933
42
-0.99999999999999989
0
CIRCLE
5
101
100
AcDbEntity
8
0
100
AcDbCircle
10
30.052038200428296
20
30.052038200428285
30
0
40
1.6000000000000014
210
0
220
-0
230
1
0
CIRCLE
5
102
100
AcDbEntity
8
0
100
AcDbCircle
10
-30.052038200428292
20
-30.052038200428292
30
0
40
1.6000000000000014
210
0
220
-0
230
1
0
CIRCLE
5
103
100
AcDbEntity
8
0
100
AcDbCircle
10
30.052038200428306
20
-30.052038200428292
30
0
40
1.6000000000000014
210
0
220
-0
230
1
0
CIRCLE
5
104
100
AcDbEntity
8
0
100
AcDbCircle
10
-30.052038200428282
20
30.052038200428299
30
0
40
1.6000000000000014
210
0
220
-0
230
1
0
CIRCLE
5
105
100
AcDbEntity
8
0
100
AcDbCircle
10
0
20
0
30
0
40
51.000000000000007
210
-0
220
0
230
1
0
CIRCLE
5
106
100
AcDbEntity
8
0
100
AcDbCircle
10
0
20
0
30
0
40
51.000000000000007
210
0
220
0
230
1
0
CIRCLE
5
107
100
AcDbEntity
8
0
100
AcDbCircle
10
-30.052038200428306
20
30.052038200428292
30
0
40
1.6000000000000001
210
0
220
0
230
1
0
CIRCLE
5
108
100
AcDbEntity
8
0
100
AcDbCircle
10
-30.052038200428292
20
-30.052038200428328
30
0
40
1.6000000000000001
210
0
220
0
230
1
0
CIRCLE
5
109
100
AcDbEntity
8
0
100
AcDbCircle
10
30.052038200428303
20
-30.052038200428296
30
0
40
1.6000000000000001
210
0
220
0
230
1
0
CIRCLE
5
110
100
AcDbEntity
8
0
100
AcDbCircle
10
30.052038200428299
20
30.052038200428299
30
0
40
1.6000000000000001
210
0
220
0
230
1
0
LWPOLYLINE
5
111
100
AcDbEntity
8
0
100
AcDbPolyline
90
32
70
1
43
0.0
10
32.173358543987945
20
27.930717856868657
10
33.070876075427584
20
28.8282353883083
42
-0.44454949317143672
10
35.295111346544019
20
28.714197098910134
42
-0.35539522899782944
10
35.295111346544019
20
-28.714197098910148
42
-0.44454949317143366
10
33.070876075427591
20
-28.828235388308315
10
32.173358543987938
20
-27.930717856868664
42
0.99999999999999989
10
27.930717856868647
20
-32.173358543987945
10
28.82823538830829
20
-33.070876075427599
42
-0.444549493171435
10
28.71419709891012
20
-35.295111346544047
42
-0.10501137268697897
10
11.892045454545443
20
-43.918438666544432
42
-0.49396473490919501
10
10.000000000000002
20
-42.470578051163834
10
10
20
-42
42
0.41421356237309093
10
8.5
20
-40.5
10
-8.5000000000000018
20
-40.5
42
0.41421356237309243
10
-10
20
-42.000000000000014
10
-9.9999999999999982
20
-42.470578051163841
42
-0.49396473490920861
10
-11.89204545454545
20
-43.918438666544432
42
-0.10501137268697908
10
-28.714197098910141
20
-35.295111346544019
42
-0.44454949317143422
10
-28.828235388308308
20
-33.070876075427584
10
-27.930717856868661
20
-32.173358543987938
42
0.99999999999999989
10
-32.173358543987945
20
-27.930717856868654
10
-33.070876075427591
20
-28.8282353883083
42
-0.44454949317143533
10
-35.295111346544033
20
-28.71419709891012
42
-0.3553952289978291
10
-35.295111346544033
20
28.714197098910127
42
-0.44454949317143228
10
-33.070876075427606
20
28.8282353883083
10
-32.173358543987959
20
27.930717856868654
42
0.99999999999999989
10
-27.930717856868668
20
32.173358543987945
10
-28.828235388308304
20
33.070876075427584
42
-0.44454949317143422
10
-28.714197098910148
20
35.295111346544026
42
-0.35539522899782938
10
28.714197098910134
20
35.295111346544019
42
-0.44454949317143677
10
28.8282353883083
20
33.070876075427584
10
27.930717856868657
20
32.173358543987945
42
0.99999999999999989
0
ENDSEC
0
SECTION
2
OBJECTS
0
DICTIONARY
5
C
100
AcDbDictionary
3
ACAD_GROUP
350
D
3
ACAD_MLINESTYLE
350
17
0
DICTIONARY
5
D
100
AcDbDictionary
0
DICTIONARY
5
1A
330
C
100
AcDbDictionary
0
DICTIONARY
5
17
100
AcDbDictionary
0
ENDSEC
0
EOF
