0
SECTION
2
HEADER
9
$INSUNITS
70
4
9
$ACADVER
1
AC1014
9
$HANDSEED
5
FFFF
0
ENDSEC
0
SECTION
2
TABLES
0
TABLE
2
VPORT
5
8
100
AcDbSymbolTable
0
ENDTAB
0
TABLE
2
LTYPE
5
5
100
AcDbSymbolTable
0
LTYPE
5
14
100
AcDbSymbolTableRecord
100
AcDbLinetypeTableRecord
2
BYBLOCK
70
0
0
LTYPE
5
15
100
AcDbSymbolTableRecord
100
AcDbLinetypeTableRecord
2
BYLAYER
70
0
0
ENDTAB
0
TABLE
2
LAYER
5
2
100
AcDbSymbolTable
70
2
0
LAYER
5
50
100
AcDbSymbolTableRecord
100
AcDbLayerTableRecord
2
0
70
0
6
CONTINUOUS
0
ENDTAB
0
TABLE
2
STYLE
5
3
100
AcDbSymbolTable
70
1
0
STYLE
5
11
100
AcDbSymbolTableRecord
100
AcDbTextStyleTableRecord
2
STANDARD
70
0
0
ENDTAB
0
TABLE
2
VIEW
5
6
100
AcDbSymbolTable
70
0
0
ENDTAB
0
TABLE
2
UCS
5
7
100
AcDbSymbolTable
70
0
0
ENDTAB
0
TABLE
2
APPID
5
9
100
AcDbSymbolTable
70
2
0
APPID
5
12
100
AcDbSymbolTableRecord
100
AcDbRegAppTableRecord
2
ACAD
70
0
0
ENDTAB
0
TABLE
2
DIMSTYLE
5
A
100
AcDbSymbolTable
70
1
0
ENDTAB
0
TABLE
2
BLOCK_RECORD
5
1
100
AcDbSymbolTable
70
1
0
BLOCK_RECORD
5
1F
100
AcDbSymbolTableRecord
100
AcDbBlockTableRecord
2
*MODEL_SPACE
0
BLOCK_RECORD
5
1B
100
AcDbSymbolTableRecord
100
AcDbBlockTableRecord
2
*PAPER_SPACE
0
ENDTAB
0
ENDSEC
0
SECTION
2
BLOCKS
0
BLOCK
5
20
100
AcDbEntity
100
AcDbBlockBegin
2
*MODEL_SPACE
0
ENDBLK
5
21
100
AcDbEntity
100
AcDbBlockEnd
0
BLOCK
5
1C
100
AcDbEntity
100
AcDbBlockBegin
2
*PAPER_SPACE
0
ENDBLK
5
1D
100
AcDbEntity
100
AcDbBlockEnd
0
ENDSEC
0
SECTION
2
ENTITIES
0
CIRCLE
5
100
100
AcDbEntity
8
0
100
AcDbCircle
10
5.0800000000000001
20
-46.000000000000007
30
0
40
0.99999999999999978
210
0
220
-0
230
1
0
CIRCLE
5
101
100
AcDbEntity
8
0
100
AcDbCircle
10
-5.0800000000000001
20
-46.000000000000007
30
0
40
1.0000000000000009
210
0
220
-0
230
1
0
CIRCLE
5
102
100
AcDbEntity
8
0
100
AcDbCircle
10
2.54
20
-46.000000000000007
30
0
40
1
210
0
220
-0
230
1
0
CIRCLE
5
103
100
AcDbEntity
8
0
100
AcDbCircle
10
-2.54
20
-46.000000000000007
30
0
40
0.99999999999999978
210
0
220
-0
230
1
0
CIRCLE
5
104
100
AcDbEntity
8
0
100
AcDbCircle
10
-2.7755575615629998e-17
20
-46.000000000000007
30
0
40
0.99999999999999978
210
0
220
-0
230
1
0
LWPOLYLINE
5
105
100
AcDbEntity
8
0
100
AcDbPolyline
90
4
70
1
43
0.0
10
-2.54
20
-48.450000737607475
42
0.99999999999999989
10
-2.54
20
-50.550000737607483
10
2.54
20
-50.550000737607483
42
0.99999999999999989
10
2.54
20
-48.450000737607475
0
LWPOLYLINE
5
106
100
AcDbEntity
8
0
100
AcDbPolyline
90
4
70
1
43
0.0
10
-48.450000737607482
20
2.5400000000000107
42
0.99999999999999989
10
-50.55000073760749
20
2.5400000000000138
10
-50.55000073760749
20
-2.5399999999999894
42
0.99999999999999989
10
-48.450000737607482
20
-2.5399999999999907
0
LWPOLYLINE
5
107
100
AcDbEntity
8
0
100
AcDbPolyline
90
4
70
1
43
0.0
10
48.450000737607482
20
-2.5399999999999916
42
0.99999999999999989
10
50.55000073760749
20
-2.5399999999999885
10
50.55000073760749
20
2.5400000000000116
42
0.99999999999999989
10
48.450000737607482
20
2.5400000000000107
0
CIRCLE
5
108
100
AcDbEntity
8
0
100
AcDbCircle
10
46.000000737607493
20
-5.0799999999999912
30
0
40
0.89999999999999858
210
0
220
-0
230
1
0
CIRCLE
5
109
100
AcDbEntity
8
0
100
AcDbCircle
10
46.000000737607493
20
1.0214051990333201e-14
30
0
40
0.89999999999999869
210
0
220
-0
230
1
0
CIRCLE
5
110
100
AcDbEntity
8
0
100
AcDbCircle
10
46.000000737607493
20
2.5400000000000107
30
0
40
0.89999999999999858
210
0
220
-0
230
1
0
CIRCLE
5
111
100
AcDbEntity
8
0
100
AcDbCircle
10
46.000000737607493
20
5.0800000000000107
30
0
40
0.89999999999999858
210
0
220
-0
230
1
0
CIRCLE
5
112
100
AcDbEntity
8
0
100
AcDbCircle
10
46.000000737607493
20
-2.5399999999999907
30
0
40
0.89999999999999858
210
0
220
-0
230
1
0
CIRCLE
5
113
100
AcDbEntity
8
0
100
AcDbCircle
10
-46.000000737607493
20
-5.0799999999999912
30
0
40
0.89999999999999858
210
0
220
-0
230
1
0
CIRCLE
5
114
100
AcDbEntity
8
0
100
AcDbCircle
10
-46.000000737607493
20
1.0214051990333201e-14
30
0
40
0.89999999999999869
210
0
220
-0
230
1
0
CIRCLE
5
115
100
AcDbEntity
8
0
100
AcDbCircle
10
-46.000000737607493
20
2.5400000000000107
30
0
40
0.89999999999999858
210
0
220
-0
230
1
0
CIRCLE
5
116
100
AcDbEntity
8
0
100
AcDbCircle
10
-46.000000737607493
20
5.0800000000000107
30
0
40
0.89999999999999858
210
0
220
-0
230
1
0
CIRCLE
5
117
100
AcDbEntity
8
0
100
AcDbCircle
10
-46.000000737607493
20
-2.5399999999999907
30
0
40
0.89999999999999858
210
0
220
-0
230
1
0
LWPOLYLINE
5
118
100
AcDbEntity
8
0
100
AcDbPolyline
90
24
70
1
43
0.0
10
48.32922182052566
20
6.5800000000000161
10
46.000000737607493
20
6.5800000000000143
42
0.41421356237309503
10
44.500000737607486
20
5.0800000000000107
10
44.500000737607493
20
-5.0799999999999912
42
0.41421356237309503
10
46.000000737607493
20
-6.5799999999999876
10
48.32922182052566
20
-6.5799999999999814
42
-0.46360821926490575
10
49.808687769428239
20
-8.3273469345631934
42
-0.32018616343274819
10
8.3273469345632183
20
-49.808687769428232
42
-0.4636082192649042
10
6.5800000000000081
20
-48.32922182052566
10
6.5800000000000054
20
-46.000000737607479
42
0.41421356237309503
10
5.0800000000000001
20
-44.500000737607479
10
-5.0800000000000001
20
-44.500000737607486
42
0.41421356237309503
10
-6.5799999999999965
20
-46.000000737607479
10
-6.5799999999999903
20
-48.32922182052566
42
-0.46360821926490575
10
-8.3273469345632094
20
-49.808687769428246
42
-0.32018616343274819
10
-49.808687769428232
20
-8.3273469345632058
42
-0.46360821926490414
10
-48.32922182052566
20
-6.5799999999999947
10
-46.000000737607493
20
-6.5799999999999947
42
0.41421356237309503
10
-44.500000737607486
20
-5.0799999999999912
10
-44.500000737607493
20
5.0800000000000107
42
0.41421356237309503
10
-46.000000737607493
20
6.5800000000000081
10
-48.32922182052566
20
6.5800000000000107
42
-0.46360821926490553
10
-49.808687769428232
20
8.3273469345632201
42
-0.84669273149947755
10
49.808687769428218
20
8.3273469345632147
42
-0.46360821926490375
0
CIRCLE
5
119
100
AcDbEntity
8
0
100
AcDbCircle
10
0
20
0
30
0
40
56.000000834465027
210
0
220
-0
230
1
0
ENDSEC
0
SECTION
2
OBJECTS
0
DICTIONARY
5
C
100
AcDbDictionary
3
ACAD_GROUP
350
D
3
ACAD_MLINESTYLE
350
17
0
DICTIONARY
5
D
100
AcDbDictionary
0
DICTIONARY
5
1A
330
C
100
AcDbDictionary
0
DICTIONARY
5
17
100
AcDbDictionary
0
ENDSEC
0
EOF
