%TF.GenerationSoftware,KiCad,Pcbnew,7.0.6*%
%TF.CreationDate,2023-11-19T20:23:39+09:00*%
%TF.ProjectId,PowerSupply_20230505,506f7765-7253-4757-9070-6c795f323032,rev?*%
%TF.SameCoordinates,Original*%
%TF.FileFunction,Legend,Top*%
%TF.FilePolarity,Positive*%
%FSLAX46Y46*%
G04 Gerber Fmt 4.6, Leading zero omitted, Abs format (unit mm)*
G04 Created by KiCad (PCBNEW 7.0.6) date 2023-11-19 20:23:39*
%MOMM*%
%LPD*%
G01*
G04 APERTURE LIST*
G04 Aperture macros list*
%AMRoundRect*
0 Rectangle with rounded corners*
0 $1 Rounding radius*
0 $2 $3 $4 $5 $6 $7 $8 $9 X,Y pos of 4 corners*
0 Add a 4 corners polygon primitive as box body*
4,1,4,$2,$3,$4,$5,$6,$7,$8,$9,$2,$3,0*
0 Add four circle primitives for the rounded corners*
1,1,$1+$1,$2,$3*
1,1,$1+$1,$4,$5*
1,1,$1+$1,$6,$7*
1,1,$1+$1,$8,$9*
0 Add four rect primitives between the rounded corners*
20,1,$1+$1,$2,$3,$4,$5,0*
20,1,$1+$1,$4,$5,$6,$7,0*
20,1,$1+$1,$6,$7,$8,$9,0*
20,1,$1+$1,$8,$9,$2,$3,0*%
%AMHorizOval*
0 Thick line with rounded ends*
0 $1 width*
0 $2 $3 position (X,Y) of the first rounded end (center of the circle)*
0 $4 $5 position (X,Y) of the second rounded end (center of the circle)*
0 Add line between two ends*
20,1,$1,$2,$3,$4,$5,0*
0 Add two circle primitives to create the rounded ends*
1,1,$1,$2,$3*
1,1,$1,$4,$5*%
%AMFreePoly0*
4,1,9,3.862500,-0.866500,0.737500,-0.866500,0.737500,-0.450000,-0.737500,-0.450000,-0.737500,0.450000,0.737500,0.450000,0.737500,0.866500,3.862500,0.866500,3.862500,-0.866500,3.862500,-0.866500,$1*%
G04 Aperture macros list end*
%ADD10C,0.000000*%
%ADD11C,0.775000*%
%ADD12C,0.150000*%
%ADD13C,0.120000*%
%ADD14C,1.325000*%
%ADD15R,0.900000X1.300000*%
%ADD16FreePoly0,90.000000*%
%ADD17RoundRect,0.250001X1.099999X1.099999X-1.099999X1.099999X-1.099999X-1.099999X1.099999X-1.099999X0*%
%ADD18C,2.700000*%
%ADD19C,2.300000*%
%ADD20C,1.500000*%
%ADD21C,3.200000*%
%ADD22RoundRect,0.250001X-1.099999X1.099999X-1.099999X-1.099999X1.099999X-1.099999X1.099999X1.099999X0*%
%ADD23C,1.600000*%
%ADD24O,1.600000X1.600000*%
%ADD25RoundRect,0.381000X-0.381000X0.762000X-0.381000X-0.762000X0.381000X-0.762000X0.381000X0.762000X0*%
%ADD26RoundRect,0.381000X0.762000X0.381000X-0.762000X0.381000X-0.762000X-0.381000X0.762000X-0.381000X0*%
%ADD27C,2.600000*%
%ADD28RoundRect,0.250000X0.250000X-0.500000X0.250000X0.500000X-0.250000X0.500000X-0.250000X-0.500000X0*%
%ADD29RoundRect,0.250000X0.106066X-0.954594X0.954594X-0.106066X-0.106066X0.954594X-0.954594X0.106066X0*%
%ADD30HorizOval,1.700000X-0.106066X0.106066X0.106066X-0.106066X0*%
%ADD31RoundRect,0.250001X-1.099999X-1.099999X1.099999X-1.099999X1.099999X1.099999X-1.099999X1.099999X0*%
%ADD32R,1.600000X1.600000*%
G04 APERTURE END LIST*
D10*
G36*
X67992512Y-128237680D02*
G01*
X60901680Y-128237681D01*
X60901680Y-127232264D01*
X64076680Y-127232264D01*
X64658763Y-127232264D01*
X64658763Y-125344904D01*
X64076681Y-125344903D01*
X65082096Y-125344903D01*
X65082096Y-127232265D01*
X65646541Y-127232264D01*
X65650069Y-126727791D01*
X65655360Y-126225083D01*
X65999319Y-126727791D01*
X66343278Y-127232265D01*
X66898901Y-127232265D01*
X66898901Y-125344903D01*
X66352097Y-125344903D01*
X66350333Y-125595375D01*
X66348375Y-125713390D01*
X66345261Y-125847612D01*
X66341155Y-125981832D01*
X66336221Y-126099847D01*
X66325638Y-126352083D01*
X65983443Y-125849375D01*
X65639486Y-125344903D01*
X65082096Y-125344903D01*
X64076681Y-125344903D01*
X64076680Y-127232264D01*
X60901680Y-127232264D01*
X60901680Y-125357250D01*
X61818902Y-125357250D01*
X61846464Y-125436184D01*
X61921649Y-125639473D01*
X62169917Y-126297403D01*
X62519167Y-127223444D01*
X63162986Y-127223444D01*
X63510472Y-126288583D01*
X63857957Y-125353722D01*
X63568680Y-125348430D01*
X63509931Y-125347931D01*
X63454882Y-125347741D01*
X63404752Y-125347841D01*
X63360761Y-125348210D01*
X63324129Y-125348827D01*
X63296077Y-125349671D01*
X63277820Y-125350721D01*
X63272749Y-125351318D01*
X63270583Y-125351958D01*
X63264444Y-125366949D01*
X63250574Y-125407383D01*
X63203114Y-125553262D01*
X63053624Y-126025764D01*
X62847250Y-126692514D01*
X62789042Y-126509069D01*
X62704595Y-126235446D01*
X62579138Y-125838793D01*
X62425680Y-125353722D01*
X62122292Y-125348430D01*
X62061144Y-125348014D01*
X62004193Y-125348072D01*
X61952659Y-125348585D01*
X61907758Y-125349533D01*
X61870714Y-125350895D01*
X61842743Y-125352647D01*
X61832540Y-125353666D01*
X61825066Y-125354774D01*
X61820469Y-125355969D01*
X61819296Y-125356599D01*
X61818902Y-125357250D01*
X60901680Y-125357250D01*
X60901681Y-125344903D01*
X60901680Y-124480597D01*
X67992512Y-124480597D01*
X67992512Y-128237680D01*
G37*
G36*
X99662748Y-95070684D02*
G01*
X99689021Y-95071473D01*
X99715382Y-95073009D01*
X99741495Y-95075269D01*
X99767024Y-95078228D01*
X99791633Y-95081865D01*
X99814986Y-95086156D01*
X99836748Y-95091076D01*
X99856582Y-95096604D01*
X99874153Y-95102716D01*
X99889125Y-95109389D01*
X99901573Y-95116319D01*
X99913445Y-95123857D01*
X99924736Y-95131973D01*
X99935437Y-95140633D01*
X99945543Y-95149806D01*
X99955047Y-95159460D01*
X99963942Y-95169563D01*
X99972221Y-95180083D01*
X99979877Y-95190988D01*
X99986903Y-95202245D01*
X99993293Y-95213824D01*
X99999041Y-95225692D01*
X100004138Y-95237817D01*
X100008579Y-95250168D01*
X100012356Y-95262711D01*
X100015463Y-95275415D01*
X100017894Y-95288249D01*
X100019640Y-95301180D01*
X100020696Y-95314176D01*
X100021055Y-95327206D01*
X100020709Y-95340236D01*
X100019653Y-95353236D01*
X100017879Y-95366174D01*
X100015381Y-95379016D01*
X100012151Y-95391732D01*
X100008183Y-95404290D01*
X100003471Y-95416657D01*
X99998007Y-95428801D01*
X99991785Y-95440691D01*
X99984797Y-95452295D01*
X99977038Y-95463580D01*
X99968500Y-95474514D01*
X99955792Y-95488493D01*
X99942737Y-95501345D01*
X99929239Y-95513101D01*
X99915197Y-95523793D01*
X99900515Y-95533451D01*
X99885094Y-95542107D01*
X99868836Y-95549791D01*
X99851642Y-95556535D01*
X99833415Y-95562369D01*
X99814056Y-95567325D01*
X99793467Y-95571433D01*
X99771551Y-95574725D01*
X99748208Y-95577231D01*
X99723340Y-95578983D01*
X99696850Y-95580012D01*
X99668639Y-95580347D01*
X99638483Y-95579770D01*
X99609545Y-95578043D01*
X99581842Y-95575173D01*
X99568459Y-95573313D01*
X99555392Y-95571170D01*
X99542642Y-95568745D01*
X99530213Y-95566040D01*
X99518106Y-95563055D01*
X99506323Y-95559791D01*
X99494867Y-95556249D01*
X99483741Y-95552431D01*
X99472946Y-95548337D01*
X99462484Y-95543967D01*
X99452359Y-95539324D01*
X99442571Y-95534409D01*
X99433124Y-95529221D01*
X99424020Y-95523762D01*
X99415260Y-95518033D01*
X99406848Y-95512035D01*
X99398785Y-95505769D01*
X99391074Y-95499236D01*
X99383717Y-95492437D01*
X99376716Y-95485373D01*
X99370074Y-95478044D01*
X99363793Y-95470453D01*
X99357874Y-95462599D01*
X99352321Y-95454483D01*
X99347135Y-95446108D01*
X99342319Y-95437473D01*
X99337725Y-95428503D01*
X99333532Y-95419460D01*
X99329739Y-95410354D01*
X99326344Y-95401192D01*
X99323346Y-95391986D01*
X99320743Y-95382743D01*
X99318533Y-95373475D01*
X99316715Y-95364189D01*
X99315287Y-95354895D01*
X99314248Y-95345603D01*
X99313596Y-95336322D01*
X99313329Y-95327061D01*
X99313445Y-95317830D01*
X99313944Y-95308638D01*
X99314823Y-95299494D01*
X99316081Y-95290408D01*
X99317717Y-95281390D01*
X99319728Y-95272448D01*
X99322113Y-95263592D01*
X99324870Y-95254831D01*
X99327998Y-95246175D01*
X99331495Y-95237633D01*
X99335360Y-95229214D01*
X99339591Y-95220928D01*
X99344186Y-95212784D01*
X99349144Y-95204791D01*
X99354462Y-95196960D01*
X99360141Y-95189298D01*
X99366177Y-95181817D01*
X99372569Y-95174524D01*
X99379317Y-95167429D01*
X99386417Y-95160542D01*
X99393330Y-95154865D01*
X99400796Y-95149105D01*
X99408749Y-95143303D01*
X99417119Y-95137502D01*
X99425841Y-95131741D01*
X99434848Y-95126064D01*
X99444071Y-95120510D01*
X99453444Y-95115122D01*
X99462900Y-95109941D01*
X99472372Y-95105007D01*
X99481791Y-95100363D01*
X99491092Y-95096050D01*
X99500207Y-95092109D01*
X99509069Y-95088581D01*
X99517610Y-95085508D01*
X99525764Y-95082931D01*
X99544456Y-95078752D01*
X99565251Y-95075459D01*
X99587814Y-95073029D01*
X99611808Y-95071438D01*
X99636898Y-95070664D01*
X99662748Y-95070684D01*
G37*
G36*
X101356680Y-99088723D02*
G01*
X98463903Y-99088723D01*
X97599597Y-99088723D01*
X97599597Y-97854001D01*
X98463903Y-97854001D01*
X100351264Y-97854001D01*
X100351264Y-97271917D01*
X99710221Y-97271917D01*
X99645708Y-97271917D01*
X99645708Y-97042612D01*
X99645137Y-96978736D01*
X99643369Y-96919225D01*
X99640325Y-96863812D01*
X99635924Y-96812231D01*
X99630087Y-96764216D01*
X99622733Y-96719499D01*
X99613782Y-96677817D01*
X99603154Y-96638901D01*
X99597187Y-96620398D01*
X99590770Y-96602487D01*
X99583893Y-96585135D01*
X99576548Y-96568308D01*
X99568723Y-96551973D01*
X99560409Y-96536098D01*
X99551595Y-96520648D01*
X99542273Y-96505590D01*
X99532431Y-96490892D01*
X99522059Y-96476519D01*
X99511148Y-96462439D01*
X99499688Y-96448619D01*
X99475079Y-96421622D01*
X99448153Y-96395264D01*
X99428967Y-96378643D01*
X99409096Y-96363166D01*
X99388517Y-96348821D01*
X99367207Y-96335595D01*
X99345142Y-96323475D01*
X99322300Y-96312448D01*
X99298657Y-96302500D01*
X99274189Y-96293620D01*
X99248874Y-96285794D01*
X99222688Y-96279010D01*
X99195609Y-96273253D01*
X99167612Y-96268512D01*
X99138674Y-96264774D01*
X99108773Y-96262025D01*
X99077885Y-96260253D01*
X99045986Y-96259445D01*
X99019171Y-96259791D01*
X98992968Y-96260829D01*
X98967378Y-96262560D01*
X98942402Y-96264981D01*
X98918043Y-96268094D01*
X98894301Y-96271898D01*
X98871179Y-96276392D01*
X98848678Y-96281576D01*
X98826800Y-96287450D01*
X98805546Y-96294014D01*
X98784918Y-96301267D01*
X98764918Y-96309209D01*
X98745546Y-96317840D01*
X98726806Y-96327159D01*
X98708698Y-96337165D01*
X98691224Y-96347860D01*
X98674385Y-96359241D01*
X98658184Y-96371310D01*
X98642622Y-96384065D01*
X98627700Y-96397507D01*
X98613420Y-96411635D01*
X98599784Y-96426448D01*
X98586793Y-96441947D01*
X98574449Y-96458130D01*
X98562753Y-96474999D01*
X98551708Y-96492552D01*
X98541315Y-96510788D01*
X98531575Y-96529709D01*
X98522490Y-96549313D01*
X98514061Y-96569600D01*
X98506291Y-96590570D01*
X98499180Y-96612223D01*
X98488549Y-96651169D01*
X98480274Y-96691294D01*
X98474066Y-96738571D01*
X98469635Y-96798974D01*
X98466693Y-96878477D01*
X98464950Y-96983053D01*
X98463903Y-97291320D01*
X98463903Y-97854001D01*
X97599597Y-97854001D01*
X97599597Y-95348479D01*
X98951794Y-95348479D01*
X98951833Y-95371847D01*
X98952500Y-95393375D01*
X98957559Y-95449694D01*
X98965440Y-95504184D01*
X98970428Y-95530726D01*
X98976111Y-95556792D01*
X98982483Y-95582375D01*
X98989542Y-95607468D01*
X98997282Y-95632064D01*
X99005701Y-95656159D01*
X99014794Y-95679744D01*
X99024558Y-95702814D01*
X99034988Y-95725362D01*
X99046081Y-95747382D01*
X99057833Y-95768866D01*
X99070240Y-95789810D01*
X99083297Y-95810205D01*
X99097003Y-95830047D01*
X99111351Y-95849327D01*
X99126339Y-95868041D01*
X99141963Y-95886181D01*
X99158219Y-95903741D01*
X99175102Y-95920714D01*
X99192609Y-95937094D01*
X99210737Y-95952875D01*
X99229480Y-95968050D01*
X99248836Y-95982613D01*
X99268801Y-95996557D01*
X99289370Y-96009875D01*
X99310540Y-96022562D01*
X99332307Y-96034611D01*
X99354667Y-96046014D01*
X99386399Y-96061466D01*
X99401117Y-96067963D01*
X99415383Y-96073713D01*
X99429431Y-96078771D01*
X99443498Y-96083190D01*
X99457818Y-96087026D01*
X99472627Y-96090332D01*
X99488158Y-96093163D01*
X99504649Y-96095572D01*
X99522333Y-96097615D01*
X99541446Y-96099345D01*
X99584899Y-96102083D01*
X99636889Y-96104223D01*
X99687859Y-96105680D01*
X99710221Y-96105979D01*
X99730788Y-96105959D01*
X99749774Y-96105599D01*
X99767392Y-96104874D01*
X99783859Y-96103762D01*
X99799387Y-96102238D01*
X99814192Y-96100281D01*
X99828488Y-96097867D01*
X99842489Y-96094971D01*
X99856410Y-96091572D01*
X99870466Y-96087646D01*
X99884870Y-96083170D01*
X99899838Y-96078120D01*
X99915583Y-96072473D01*
X99969006Y-96049854D01*
X100019432Y-96023732D01*
X100066799Y-95994198D01*
X100111044Y-95961348D01*
X100152106Y-95925272D01*
X100189923Y-95886065D01*
X100224432Y-95843820D01*
X100255573Y-95798629D01*
X100283282Y-95750585D01*
X100307497Y-95699782D01*
X100328157Y-95646313D01*
X100345200Y-95590270D01*
X100358564Y-95531746D01*
X100368186Y-95470835D01*
X100374005Y-95407630D01*
X100375958Y-95342223D01*
X100374878Y-95291651D01*
X100372282Y-95243080D01*
X100368141Y-95196441D01*
X100362426Y-95151668D01*
X100355109Y-95108693D01*
X100346161Y-95067449D01*
X100335555Y-95027869D01*
X100323262Y-94989886D01*
X100309253Y-94953432D01*
X100293500Y-94918441D01*
X100275974Y-94884846D01*
X100256647Y-94852578D01*
X100235492Y-94821571D01*
X100212478Y-94791758D01*
X100187578Y-94763072D01*
X100160764Y-94735445D01*
X100130380Y-94707960D01*
X100098194Y-94682418D01*
X100064343Y-94658860D01*
X100028968Y-94637329D01*
X99992208Y-94617864D01*
X99954203Y-94600507D01*
X99915091Y-94585301D01*
X99875014Y-94572285D01*
X99834109Y-94561502D01*
X99792517Y-94552993D01*
X99750378Y-94546798D01*
X99707830Y-94542961D01*
X99665014Y-94541521D01*
X99622068Y-94542520D01*
X99579133Y-94545999D01*
X99536347Y-94552000D01*
X99487633Y-94561897D01*
X99440739Y-94574366D01*
X99395705Y-94589378D01*
X99352572Y-94606902D01*
X99311382Y-94626905D01*
X99272177Y-94649359D01*
X99234998Y-94674231D01*
X99199885Y-94701490D01*
X99166881Y-94731106D01*
X99136027Y-94763047D01*
X99107364Y-94797283D01*
X99080933Y-94833782D01*
X99056776Y-94872513D01*
X99034934Y-94913446D01*
X99015449Y-94956549D01*
X98998361Y-95001792D01*
X98995140Y-95012008D01*
X98993137Y-95018360D01*
X98988071Y-95037428D01*
X98978545Y-95081829D01*
X98970053Y-95132513D01*
X98962863Y-95187001D01*
X98957244Y-95242811D01*
X98953464Y-95297464D01*
X98951794Y-95348479D01*
X97599597Y-95348479D01*
X97599597Y-93008598D01*
X98973666Y-93008598D01*
X98978958Y-93244959D01*
X98984250Y-93481320D01*
X99398764Y-93618903D01*
X99481346Y-93646829D01*
X99557376Y-93673308D01*
X99625261Y-93697720D01*
X99683411Y-93719445D01*
X99730234Y-93737862D01*
X99748900Y-93745637D01*
X99764137Y-93752353D01*
X99775746Y-93757931D01*
X99783529Y-93762295D01*
X99785924Y-93763998D01*
X99787287Y-93765367D01*
X99787593Y-93766395D01*
X99786819Y-93767070D01*
X99745781Y-93778976D01*
X99652984Y-93804112D01*
X99522153Y-93838508D01*
X99367014Y-93878195D01*
X98975431Y-93978737D01*
X98975431Y-94234501D01*
X98975494Y-94269597D01*
X98975689Y-94301542D01*
X98976024Y-94330448D01*
X98976505Y-94356429D01*
X98977142Y-94379599D01*
X98977942Y-94400072D01*
X98978912Y-94417961D01*
X98980061Y-94433379D01*
X98981395Y-94446441D01*
X98982135Y-94452124D01*
X98982924Y-94457260D01*
X98983763Y-94461865D01*
X98984653Y-94465951D01*
X98985596Y-94469533D01*
X98986593Y-94472626D01*
X98987643Y-94475243D01*
X98988749Y-94477399D01*
X98989911Y-94479108D01*
X98991130Y-94480384D01*
X98992407Y-94481242D01*
X98993743Y-94481695D01*
X98995140Y-94481758D01*
X98996597Y-94481445D01*
X99684514Y-94227445D01*
X100351264Y-93982264D01*
X100351264Y-93506015D01*
X99940278Y-93371959D01*
X99531055Y-93239667D01*
X99940278Y-93102084D01*
X100351264Y-92964501D01*
X100351264Y-92495306D01*
X100301875Y-92475904D01*
X100035087Y-92375913D01*
X99669252Y-92241658D01*
X99594996Y-92214407D01*
X99180703Y-92064146D01*
X98991305Y-91997889D01*
X98990334Y-91998192D01*
X98989403Y-91999094D01*
X98987664Y-92002647D01*
X98986085Y-92008459D01*
X98984663Y-92016438D01*
X98982283Y-92038538D01*
X98980502Y-92068224D01*
X98979299Y-92104774D01*
X98978655Y-92147462D01*
X98978548Y-92195566D01*
X98978958Y-92248362D01*
X98984250Y-92497070D01*
X99381125Y-92599376D01*
X99669521Y-92673018D01*
X99804458Y-92706973D01*
X99805217Y-92707493D01*
X99804864Y-92708386D01*
X99800923Y-92711252D01*
X99780811Y-92721029D01*
X99745733Y-92735684D01*
X99697302Y-92754598D01*
X99566829Y-92802719D01*
X99402292Y-92860431D01*
X98973666Y-93008598D01*
X97599597Y-93008598D01*
X97599597Y-91164269D01*
X98950281Y-91164269D01*
X98950903Y-91191014D01*
X98952610Y-91219105D01*
X98955351Y-91248260D01*
X98959073Y-91278198D01*
X98963726Y-91308638D01*
X98969257Y-91339297D01*
X98975615Y-91369894D01*
X98982748Y-91400148D01*
X98990604Y-91429776D01*
X98999133Y-91458498D01*
X99008281Y-91486030D01*
X99017998Y-91512093D01*
X99028232Y-91536404D01*
X99038930Y-91558681D01*
X99049938Y-91580004D01*
X99061175Y-91600360D01*
X99072707Y-91619817D01*
X99084599Y-91638442D01*
X99096913Y-91656302D01*
X99109717Y-91673465D01*
X99123073Y-91689997D01*
X99137047Y-91705966D01*
X99151703Y-91721439D01*
X99167105Y-91736483D01*
X99183319Y-91751165D01*
X99200409Y-91765552D01*
X99218439Y-91779713D01*
X99237475Y-91793713D01*
X99257580Y-91807620D01*
X99278819Y-91821501D01*
X99303046Y-91836307D01*
X99328063Y-91849970D01*
X99353815Y-91862494D01*
X99380243Y-91873883D01*
X99434903Y-91893275D01*
X99491588Y-91908179D01*
X99549845Y-91918629D01*
X99609218Y-91924657D01*
X99669252Y-91926298D01*
X99729493Y-91923586D01*
X99789486Y-91916553D01*
X99848776Y-91905234D01*
X99906908Y-91889661D01*
X99963429Y-91869870D01*
X100017882Y-91845892D01*
X100069813Y-91817763D01*
X100094691Y-91802151D01*
X100118768Y-91785514D01*
X100141987Y-91767856D01*
X100164291Y-91749181D01*
X100191938Y-91723686D01*
X100217373Y-91697353D01*
X100240659Y-91670008D01*
X100261856Y-91641474D01*
X100281028Y-91611576D01*
X100298237Y-91580137D01*
X100313543Y-91546984D01*
X100327010Y-91511938D01*
X100338699Y-91474826D01*
X100348673Y-91435471D01*
X100356993Y-91393698D01*
X100363721Y-91349330D01*
X100368920Y-91302193D01*
X100372651Y-91252110D01*
X100374976Y-91198905D01*
X100375958Y-91142404D01*
X100375719Y-91085997D01*
X100374291Y-91033039D01*
X100371602Y-90983301D01*
X100367580Y-90936552D01*
X100362152Y-90892563D01*
X100355246Y-90851104D01*
X100351264Y-90832660D01*
X100346790Y-90811944D01*
X100336712Y-90774853D01*
X100324938Y-90739603D01*
X100311397Y-90705962D01*
X100296016Y-90673701D01*
X100278724Y-90642589D01*
X100259447Y-90612398D01*
X100238113Y-90582896D01*
X100214650Y-90553855D01*
X100188986Y-90525043D01*
X100173611Y-90508834D01*
X100156933Y-90492273D01*
X100139470Y-90475837D01*
X100121738Y-90460000D01*
X100104254Y-90445237D01*
X100095766Y-90438408D01*
X100087535Y-90432025D01*
X100079623Y-90426149D01*
X100072097Y-90420839D01*
X100065020Y-90416154D01*
X100058458Y-90412154D01*
X99998486Y-90376876D01*
X99991430Y-90415682D01*
X99989136Y-90427905D01*
X99986304Y-90447983D01*
X99979524Y-90507404D01*
X99972083Y-90585346D01*
X99964972Y-90673209D01*
X99961894Y-90709409D01*
X99959284Y-90741470D01*
X99957155Y-90769676D01*
X99955519Y-90794311D01*
X99954890Y-90805378D01*
X99954389Y-90815660D01*
X99954018Y-90825190D01*
X99953779Y-90834006D01*
X99953672Y-90842142D01*
X99953701Y-90849633D01*
X99953866Y-90856517D01*
X99954168Y-90862827D01*
X99954610Y-90868600D01*
X99955193Y-90873872D01*
X99955919Y-90878676D01*
X99956790Y-90883050D01*
X99957806Y-90887029D01*
X99958970Y-90890648D01*
X99960283Y-90893942D01*
X99961747Y-90896948D01*
X99963364Y-90899700D01*
X99965134Y-90902235D01*
X99967060Y-90904588D01*
X99969144Y-90906794D01*
X99971386Y-90908889D01*
X99973789Y-90910908D01*
X99976354Y-90912888D01*
X99979083Y-90914863D01*
X99987651Y-90921909D01*
X99996116Y-90930389D01*
X100004415Y-90940167D01*
X100012487Y-90951105D01*
X100020269Y-90963066D01*
X100027700Y-90975913D01*
X100034718Y-90989509D01*
X100041260Y-91003718D01*
X100047265Y-91018402D01*
X100052670Y-91033425D01*
X100057414Y-91048649D01*
X100061435Y-91063938D01*
X100064670Y-91079155D01*
X100067057Y-91094162D01*
X100068535Y-91108823D01*
X100069041Y-91123001D01*
X100068805Y-91135464D01*
X100068097Y-91147715D01*
X100066924Y-91159748D01*
X100065290Y-91171556D01*
X100063200Y-91183134D01*
X100060658Y-91194477D01*
X100057671Y-91205578D01*
X100054241Y-91216432D01*
X100050375Y-91227032D01*
X100046078Y-91237374D01*
X100041353Y-91247450D01*
X100036206Y-91257256D01*
X100030642Y-91266786D01*
X100024666Y-91276033D01*
X100018281Y-91284992D01*
X100011495Y-91293657D01*
X100004310Y-91302023D01*
X99996732Y-91310083D01*
X99988766Y-91317831D01*
X99980416Y-91325263D01*
X99971688Y-91332371D01*
X99962587Y-91339151D01*
X99953116Y-91345596D01*
X99943282Y-91351700D01*
X99933088Y-91357459D01*
X99922540Y-91362865D01*
X99911643Y-91367913D01*
X99900401Y-91372598D01*
X99888819Y-91376914D01*
X99876902Y-91380854D01*
X99864655Y-91384412D01*
X99852083Y-91387584D01*
X99804458Y-91398168D01*
X99804458Y-90339835D01*
X99710972Y-90339835D01*
X99686260Y-90340323D01*
X99660536Y-90341757D01*
X99633984Y-90344091D01*
X99606792Y-90347276D01*
X99579145Y-90351268D01*
X99551230Y-90356020D01*
X99523232Y-90361485D01*
X99495337Y-90367616D01*
X99467731Y-90374367D01*
X99440601Y-90381692D01*
X99414132Y-90389545D01*
X99388511Y-90397877D01*
X99363924Y-90406644D01*
X99340555Y-90415799D01*
X99318593Y-90425294D01*
X99298222Y-90435084D01*
X99264461Y-90453604D01*
X99232025Y-90474679D01*
X99200999Y-90498177D01*
X99171470Y-90523968D01*
X99143522Y-90551918D01*
X99117241Y-90581897D01*
X99092711Y-90613772D01*
X99070019Y-90647412D01*
X99049249Y-90682685D01*
X99030486Y-90719460D01*
X99013817Y-90757603D01*
X98999326Y-90796984D01*
X98987098Y-90837472D01*
X98977218Y-90878933D01*
X98969773Y-90921236D01*
X98964847Y-90964251D01*
X98960933Y-91009037D01*
X98957351Y-91052666D01*
X98952500Y-91115945D01*
X98950796Y-91139152D01*
X98950281Y-91164269D01*
X97599597Y-91164269D01*
X97599597Y-89289701D01*
X98953904Y-89289701D01*
X98954536Y-89306885D01*
X98955824Y-89323036D01*
X98957792Y-89337946D01*
X98961063Y-89353538D01*
X98964947Y-89368593D01*
X98969477Y-89383152D01*
X98974686Y-89397257D01*
X98980609Y-89410947D01*
X98987278Y-89424266D01*
X98994728Y-89437254D01*
X99002991Y-89449953D01*
X99012102Y-89462403D01*
X99022094Y-89474647D01*
X99033001Y-89486726D01*
X99044856Y-89498680D01*
X99057693Y-89510552D01*
X99071545Y-89522382D01*
X99086446Y-89534213D01*
X99102430Y-89546085D01*
X99174750Y-89599002D01*
X98975431Y-89599002D01*
X98975431Y-90092891D01*
X100351264Y-90092891D01*
X100351264Y-89567252D01*
X99975555Y-89558432D01*
X99903660Y-89556722D01*
X99839105Y-89554839D01*
X99781377Y-89552692D01*
X99729961Y-89550192D01*
X99684344Y-89547247D01*
X99644010Y-89543766D01*
X99608446Y-89539661D01*
X99592291Y-89537346D01*
X99577137Y-89534840D01*
X99562918Y-89532133D01*
X99549570Y-89529213D01*
X99537028Y-89526069D01*
X99525230Y-89522689D01*
X99514109Y-89519063D01*
X99503603Y-89515178D01*
X99493646Y-89511025D01*
X99484174Y-89506590D01*
X99475124Y-89501864D01*
X99466431Y-89496834D01*
X99458030Y-89491490D01*
X99449858Y-89485820D01*
X99441850Y-89479812D01*
X99433941Y-89473456D01*
X99418166Y-89459654D01*
X99410285Y-89452222D01*
X99403156Y-89445092D01*
X99396745Y-89438194D01*
X99391019Y-89431459D01*
X99385944Y-89424818D01*
X99381486Y-89418199D01*
X99377613Y-89411534D01*
X99374290Y-89404753D01*
X99371483Y-89397786D01*
X99369160Y-89390563D01*
X99367286Y-89383014D01*
X99365829Y-89375070D01*
X99364753Y-89366661D01*
X99364027Y-89357717D01*
X99363616Y-89348169D01*
X99363486Y-89337946D01*
X99363567Y-89330224D01*
X99363806Y-89322309D01*
X99364726Y-89306113D01*
X99366183Y-89289794D01*
X99368116Y-89273784D01*
X99370462Y-89258519D01*
X99373160Y-89244432D01*
X99374621Y-89237966D01*
X99376147Y-89231957D01*
X99377729Y-89226460D01*
X99379361Y-89221529D01*
X99382362Y-89214018D01*
X99384601Y-89207249D01*
X99385853Y-89201054D01*
X99385893Y-89195264D01*
X99385388Y-89192469D01*
X99384496Y-89189712D01*
X99383189Y-89186972D01*
X99381438Y-89184229D01*
X99376494Y-89178649D01*
X99369439Y-89172802D01*
X99360048Y-89166521D01*
X99348097Y-89159638D01*
X99333360Y-89151985D01*
X99315613Y-89143395D01*
X99270189Y-89122727D01*
X99210028Y-89096293D01*
X99172542Y-89080229D01*
X99137350Y-89065343D01*
X99105259Y-89051986D01*
X99077074Y-89040511D01*
X99053603Y-89031267D01*
X99035651Y-89024608D01*
X99028996Y-89022357D01*
X99024023Y-89020884D01*
X99020834Y-89020232D01*
X99019939Y-89020228D01*
X99019528Y-89020446D01*
X99010488Y-89036100D01*
X99006832Y-89042650D01*
X99002908Y-89049963D01*
X98998860Y-89057897D01*
X98994833Y-89066307D01*
X98989049Y-89078117D01*
X98983619Y-89091580D01*
X98978567Y-89106490D01*
X98973915Y-89122641D01*
X98969686Y-89139825D01*
X98965905Y-89157836D01*
X98962594Y-89176467D01*
X98959776Y-89195512D01*
X98957475Y-89214763D01*
X98955714Y-89234014D01*
X98954517Y-89253059D01*
X98953905Y-89271690D01*
X98953904Y-89289701D01*
X97599597Y-89289701D01*
X97599597Y-88046779D01*
X101356680Y-88046779D01*
X101356680Y-99088723D01*
G37*
G36*
X69732846Y-112900286D02*
G01*
X69732716Y-112910591D01*
X69732336Y-112921337D01*
X69730883Y-112943811D01*
X69728604Y-112967011D01*
X69725614Y-112990245D01*
X69722028Y-113012817D01*
X69717963Y-113034034D01*
X69713534Y-113053199D01*
X69711219Y-113061796D01*
X69708857Y-113069620D01*
X69699339Y-113095725D01*
X69688145Y-113119577D01*
X69675119Y-113141237D01*
X69660107Y-113160769D01*
X69642954Y-113178234D01*
X69623504Y-113193693D01*
X69601602Y-113207210D01*
X69577094Y-113218845D01*
X69549825Y-113228661D01*
X69519638Y-113236721D01*
X69486380Y-113243085D01*
X69449896Y-113247817D01*
X69410030Y-113250978D01*
X69366627Y-113252629D01*
X69319532Y-113252834D01*
X69268590Y-113251654D01*
X69215979Y-113249956D01*
X69193547Y-113248975D01*
X69173406Y-113247861D01*
X69155341Y-113246582D01*
X69139135Y-113245105D01*
X69124569Y-113243396D01*
X69111428Y-113241423D01*
X69099494Y-113239152D01*
X69088549Y-113236550D01*
X69078379Y-113233584D01*
X69068764Y-113230222D01*
X69059488Y-113226430D01*
X69050334Y-113222174D01*
X69041085Y-113217423D01*
X69031524Y-113212142D01*
X69016253Y-113203098D01*
X69002163Y-113193362D01*
X68989210Y-113182842D01*
X68977350Y-113171441D01*
X68966540Y-113159064D01*
X68956737Y-113145616D01*
X68947898Y-113131003D01*
X68939978Y-113115128D01*
X68932934Y-113097898D01*
X68926724Y-113079217D01*
X68921303Y-113058989D01*
X68916628Y-113037120D01*
X68912656Y-113013515D01*
X68909344Y-112988079D01*
X68906647Y-112960716D01*
X68904523Y-112931331D01*
X68896057Y-112802920D01*
X69732846Y-112802920D01*
X69732846Y-112900286D01*
G37*
G36*
X75487597Y-125195347D02*
G01*
X73243931Y-125195348D01*
X73243931Y-123904181D01*
X73804847Y-123904181D01*
X73804847Y-124232265D01*
X74926680Y-124232264D01*
X74926681Y-123904181D01*
X73804847Y-123904181D01*
X73243931Y-123904181D01*
X73243931Y-122941098D01*
X75487597Y-122941098D01*
X75487597Y-125195347D01*
G37*
G36*
X85529561Y-80322794D02*
G01*
X85568114Y-80323369D01*
X85603094Y-80324310D01*
X85633641Y-80325597D01*
X85658898Y-80327215D01*
X85669273Y-80328143D01*
X85678004Y-80329146D01*
X85684981Y-80330226D01*
X85690098Y-80331376D01*
X85691924Y-80331978D01*
X85693247Y-80332598D01*
X85694049Y-80333233D01*
X85694319Y-80333887D01*
X85694080Y-80340882D01*
X85693370Y-80348092D01*
X85692209Y-80355490D01*
X85690616Y-80363052D01*
X85688609Y-80370753D01*
X85686208Y-80378567D01*
X85683431Y-80386469D01*
X85680297Y-80394433D01*
X85673030Y-80410448D01*
X85664554Y-80426409D01*
X85655020Y-80442114D01*
X85644578Y-80457360D01*
X85633375Y-80471944D01*
X85621559Y-80485664D01*
X85609281Y-80498318D01*
X85596688Y-80509702D01*
X85590320Y-80514856D01*
X85583931Y-80519616D01*
X85577536Y-80523956D01*
X85571155Y-80527855D01*
X85564810Y-80531283D01*
X85558514Y-80534216D01*
X85552288Y-80536630D01*
X85546153Y-80538499D01*
X85536980Y-80540586D01*
X85527013Y-80542098D01*
X85516379Y-80543056D01*
X85505208Y-80543482D01*
X85493635Y-80543393D01*
X85481785Y-80542815D01*
X85469790Y-80541763D01*
X85457782Y-80540261D01*
X85445889Y-80538330D01*
X85434243Y-80535991D01*
X85422971Y-80533261D01*
X85412208Y-80530164D01*
X85402080Y-80526720D01*
X85392720Y-80522949D01*
X85384257Y-80518872D01*
X85376819Y-80514509D01*
X85368271Y-80508476D01*
X85360096Y-80502022D01*
X85352301Y-80495159D01*
X85344893Y-80487897D01*
X85337884Y-80480247D01*
X85331279Y-80472217D01*
X85325087Y-80463820D01*
X85319317Y-80455067D01*
X85313978Y-80445965D01*
X85309076Y-80436527D01*
X85304620Y-80426761D01*
X85300620Y-80416680D01*
X85297082Y-80406293D01*
X85294016Y-80395610D01*
X85291430Y-80384641D01*
X85289330Y-80373399D01*
X85280865Y-80322598D01*
X85488297Y-80322598D01*
X85529561Y-80322794D01*
G37*
G36*
X71950347Y-125246097D02*
G01*
X69706680Y-125246096D01*
X69706680Y-124272430D01*
X70309929Y-124272430D01*
X70669763Y-124272430D01*
X70669763Y-124632264D01*
X70976680Y-124632264D01*
X70976680Y-124272430D01*
X71336513Y-124272430D01*
X71336513Y-123965514D01*
X70976679Y-123965514D01*
X70976679Y-123605680D01*
X70669764Y-123605680D01*
X70669764Y-123965514D01*
X70309930Y-123965514D01*
X70309929Y-124272430D01*
X69706680Y-124272430D01*
X69706680Y-122991847D01*
X71950346Y-122991847D01*
X71950347Y-125246097D01*
G37*
G36*
X69609600Y-103255888D02*
G01*
X69609470Y-103266193D01*
X69609090Y-103276939D01*
X69607637Y-103299413D01*
X69605358Y-103322613D01*
X69602368Y-103345847D01*
X69598782Y-103368419D01*
X69594717Y-103389636D01*
X69590288Y-103408801D01*
X69587973Y-103417398D01*
X69585611Y-103425222D01*
X69576093Y-103451327D01*
X69564899Y-103475179D01*
X69551873Y-103496839D01*
X69536861Y-103516371D01*
X69519708Y-103533836D01*
X69500258Y-103549295D01*
X69478356Y-103562812D01*
X69453848Y-103574447D01*
X69426579Y-103584263D01*
X69396392Y-103592323D01*
X69363134Y-103598687D01*
X69326650Y-103603419D01*
X69286784Y-103606580D01*
X69243381Y-103608231D01*
X69196286Y-103608436D01*
X69145344Y-103607256D01*
X69092733Y-103605558D01*
X69070301Y-103604577D01*
X69050160Y-103603463D01*
X69032095Y-103602184D01*
X69015889Y-103600707D01*
X69001323Y-103598998D01*
X68988182Y-103597025D01*
X68976248Y-103594754D01*
X68965303Y-103592152D01*
X68955133Y-103589186D01*
X68945518Y-103585824D01*
X68936242Y-103582032D01*
X68927088Y-103577776D01*
X68917839Y-103573025D01*
X68908278Y-103567744D01*
X68893007Y-103558700D01*
X68878917Y-103548964D01*
X68865964Y-103538444D01*
X68854104Y-103527043D01*
X68843294Y-103514666D01*
X68833491Y-103501218D01*
X68824652Y-103486605D01*
X68816732Y-103470730D01*
X68809688Y-103453500D01*
X68803478Y-103434819D01*
X68798057Y-103414591D01*
X68793382Y-103392722D01*
X68789410Y-103369117D01*
X68786098Y-103343681D01*
X68783401Y-103316318D01*
X68781277Y-103286933D01*
X68772811Y-103158522D01*
X69609600Y-103158522D01*
X69609600Y-103255888D01*
G37*
D11*
X99014180Y-106682264D02*
G75*
G03*
X99014180Y-106682264I-387500J0D01*
G01*
D10*
G36*
X99084989Y-96832006D02*
G01*
X99108087Y-96835220D01*
X99118972Y-96837648D01*
X99129418Y-96840630D01*
X99139429Y-96844173D01*
X99149008Y-96848281D01*
X99158158Y-96852960D01*
X99166882Y-96858215D01*
X99175184Y-96864052D01*
X99183066Y-96870477D01*
X99190533Y-96877495D01*
X99197587Y-96885112D01*
X99204231Y-96893332D01*
X99210469Y-96902162D01*
X99216303Y-96911607D01*
X99221738Y-96921672D01*
X99226777Y-96932363D01*
X99231422Y-96943686D01*
X99239544Y-96968247D01*
X99246132Y-96995400D01*
X99251211Y-97025188D01*
X99254807Y-97057656D01*
X99256946Y-97092848D01*
X99257653Y-97130806D01*
X99257653Y-97271917D01*
X98851958Y-97271917D01*
X98851958Y-97120223D01*
X98852571Y-97080930D01*
X98854463Y-97044995D01*
X98855913Y-97028253D01*
X98857714Y-97012307D01*
X98859874Y-96997144D01*
X98862404Y-96982749D01*
X98865314Y-96969110D01*
X98868613Y-96956210D01*
X98872313Y-96944037D01*
X98876422Y-96932575D01*
X98880951Y-96921811D01*
X98885910Y-96911731D01*
X98891309Y-96902319D01*
X98897158Y-96893563D01*
X98903467Y-96885447D01*
X98910245Y-96877958D01*
X98917504Y-96871082D01*
X98925253Y-96864803D01*
X98933501Y-96859109D01*
X98942260Y-96853984D01*
X98951538Y-96849415D01*
X98961347Y-96845387D01*
X98971695Y-96841886D01*
X98982594Y-96838898D01*
X98994053Y-96836409D01*
X99006081Y-96834404D01*
X99018690Y-96832869D01*
X99031889Y-96831791D01*
X99045688Y-96831154D01*
X99060097Y-96830945D01*
X99084989Y-96832006D01*
G37*
G36*
X99507900Y-90886760D02*
G01*
X99513878Y-90887353D01*
X99519060Y-90888768D01*
X99523504Y-90891353D01*
X99527265Y-90895457D01*
X99530401Y-90901430D01*
X99532968Y-90909619D01*
X99535024Y-90920374D01*
X99536625Y-90934044D01*
X99537828Y-90950977D01*
X99539269Y-90996029D01*
X99539799Y-91058319D01*
X99539875Y-91140640D01*
X99539875Y-91394639D01*
X99481666Y-91382293D01*
X99462333Y-91377135D01*
X99443416Y-91370965D01*
X99424999Y-91363844D01*
X99407170Y-91355834D01*
X99390012Y-91346997D01*
X99373611Y-91337396D01*
X99358053Y-91327091D01*
X99343422Y-91316146D01*
X99329804Y-91304622D01*
X99317284Y-91292582D01*
X99311462Y-91286387D01*
X99305947Y-91280086D01*
X99300749Y-91273688D01*
X99295879Y-91267198D01*
X99291348Y-91260626D01*
X99287165Y-91253980D01*
X99283343Y-91247266D01*
X99279891Y-91240492D01*
X99276820Y-91233667D01*
X99274140Y-91226798D01*
X99271863Y-91219893D01*
X99270000Y-91212959D01*
X99267410Y-91201096D01*
X99265261Y-91189324D01*
X99263550Y-91177652D01*
X99262272Y-91166089D01*
X99261425Y-91154643D01*
X99261004Y-91143324D01*
X99261007Y-91132140D01*
X99261428Y-91121099D01*
X99262266Y-91110211D01*
X99263517Y-91099484D01*
X99265176Y-91088927D01*
X99267240Y-91078549D01*
X99269707Y-91068358D01*
X99272571Y-91058363D01*
X99275830Y-91048572D01*
X99279481Y-91038996D01*
X99283519Y-91029641D01*
X99287941Y-91020517D01*
X99292743Y-91011633D01*
X99297922Y-91002998D01*
X99303475Y-90994619D01*
X99309397Y-90986507D01*
X99315686Y-90978668D01*
X99322338Y-90971113D01*
X99329348Y-90963850D01*
X99336715Y-90956888D01*
X99344433Y-90950235D01*
X99352500Y-90943901D01*
X99360911Y-90937893D01*
X99369664Y-90932220D01*
X99378755Y-90926892D01*
X99388180Y-90921917D01*
X99395901Y-90918324D01*
X99403811Y-90914831D01*
X99411849Y-90911457D01*
X99419958Y-90908220D01*
X99428077Y-90905138D01*
X99436146Y-90902229D01*
X99444108Y-90899511D01*
X99451901Y-90897002D01*
X99459467Y-90894721D01*
X99466746Y-90892686D01*
X99473679Y-90890914D01*
X99480206Y-90889423D01*
X99486268Y-90888233D01*
X99491805Y-90887360D01*
X99496759Y-90886823D01*
X99501069Y-90886640D01*
X99507900Y-90886760D01*
G37*
G36*
X68438377Y-100011744D02*
G01*
X70639711Y-100011744D01*
X70639711Y-104696633D01*
X67634044Y-104696633D01*
X67634044Y-103065389D01*
X68438377Y-103065389D01*
X68439243Y-103214583D01*
X68440405Y-103279872D01*
X68442126Y-103339519D01*
X68444458Y-103393949D01*
X68447456Y-103443586D01*
X68451173Y-103488852D01*
X68455664Y-103530173D01*
X68460981Y-103567972D01*
X68467178Y-103602672D01*
X68474310Y-103634697D01*
X68482431Y-103664471D01*
X68491592Y-103692418D01*
X68501850Y-103718962D01*
X68513257Y-103744526D01*
X68525866Y-103769533D01*
X68540848Y-103795185D01*
X68557677Y-103820228D01*
X68576251Y-103844586D01*
X68596466Y-103868179D01*
X68618219Y-103890928D01*
X68641407Y-103912755D01*
X68665925Y-103933582D01*
X68691672Y-103953330D01*
X68718543Y-103971921D01*
X68746435Y-103989275D01*
X68775245Y-104005315D01*
X68804869Y-104019961D01*
X68835205Y-104033136D01*
X68866148Y-104044760D01*
X68897596Y-104054756D01*
X68929444Y-104063044D01*
X68946601Y-104066142D01*
X68969859Y-104069042D01*
X68998178Y-104071676D01*
X69030515Y-104073980D01*
X69065829Y-104075888D01*
X69103077Y-104077332D01*
X69141218Y-104078247D01*
X69179211Y-104078566D01*
X69231927Y-104078210D01*
X69281718Y-104076577D01*
X69328768Y-104073612D01*
X69373261Y-104069262D01*
X69415381Y-104063474D01*
X69455312Y-104056193D01*
X69493238Y-104047366D01*
X69529343Y-104036939D01*
X69563811Y-104024858D01*
X69596825Y-104011070D01*
X69628571Y-103995521D01*
X69659231Y-103978157D01*
X69688990Y-103958925D01*
X69718032Y-103937770D01*
X69746540Y-103914639D01*
X69774699Y-103889478D01*
X69789450Y-103874710D01*
X69803542Y-103859508D01*
X69816976Y-103843868D01*
X69829755Y-103827786D01*
X69841881Y-103811257D01*
X69853355Y-103794277D01*
X69864181Y-103776843D01*
X69874359Y-103758950D01*
X69883893Y-103740594D01*
X69892784Y-103721770D01*
X69901034Y-103702476D01*
X69908645Y-103682706D01*
X69915620Y-103662456D01*
X69921960Y-103641723D01*
X69927667Y-103620502D01*
X69932744Y-103598789D01*
X69936247Y-103575087D01*
X69939337Y-103538552D01*
X69941996Y-103490243D01*
X69944209Y-103431219D01*
X69947230Y-103285257D01*
X69948266Y-103109133D01*
X69948266Y-102692855D01*
X68438377Y-102692855D01*
X68438377Y-103065389D01*
X67634044Y-103065389D01*
X67634044Y-101359355D01*
X68436966Y-101359355D01*
X68441200Y-101534333D01*
X68445433Y-101709311D01*
X68875822Y-101820789D01*
X69217487Y-101908630D01*
X69433211Y-101964722D01*
X69560211Y-101998589D01*
X69000000Y-102000000D01*
X68438377Y-102001411D01*
X68438377Y-102382411D01*
X69948266Y-102382411D01*
X69948266Y-101767167D01*
X69510822Y-101655689D01*
X69423151Y-101633287D01*
X69341268Y-101611944D01*
X69266992Y-101592189D01*
X69202141Y-101574550D01*
X69148536Y-101559557D01*
X69107994Y-101547739D01*
X69082335Y-101539625D01*
X69075655Y-101537122D01*
X69073377Y-101535744D01*
X69075623Y-101534133D01*
X69082213Y-101531456D01*
X69107553Y-101523133D01*
X69200730Y-101496233D01*
X69338887Y-101458751D01*
X69508000Y-101414389D01*
X69941211Y-101301500D01*
X69945444Y-100988233D01*
X69948266Y-100674967D01*
X68438377Y-100674967D01*
X68438377Y-101070078D01*
X68985889Y-101071489D01*
X69343914Y-101071930D01*
X69395438Y-101073260D01*
X69431430Y-101075755D01*
X69451721Y-101079756D01*
X69455926Y-101082426D01*
X69456141Y-101085600D01*
X69452347Y-101089319D01*
X69444521Y-101093627D01*
X69416691Y-101104176D01*
X69372481Y-101117586D01*
X69311723Y-101134195D01*
X68899811Y-101239411D01*
X68436966Y-101359355D01*
X67634044Y-101359355D01*
X67634044Y-100011744D01*
X68438377Y-100011744D01*
G37*
G36*
X72009205Y-87163343D02*
G01*
X72498131Y-87652268D01*
X68047915Y-92102484D01*
X66133123Y-90187693D01*
X66849549Y-90187693D01*
X67460207Y-90786377D01*
X67549011Y-90815314D01*
X67561263Y-90819044D01*
X67572986Y-90822376D01*
X67584236Y-90825311D01*
X67595066Y-90827849D01*
X67605535Y-90829988D01*
X67615697Y-90831731D01*
X67625607Y-90833075D01*
X67635322Y-90834022D01*
X67644896Y-90834572D01*
X67654386Y-90834724D01*
X67663846Y-90834478D01*
X67673332Y-90833836D01*
X67682900Y-90832795D01*
X67692606Y-90831356D01*
X67702505Y-90829520D01*
X67712652Y-90827287D01*
X67728936Y-90822881D01*
X67745217Y-90817532D01*
X67761469Y-90811251D01*
X67777665Y-90804057D01*
X67793780Y-90795962D01*
X67809787Y-90786981D01*
X67825658Y-90777130D01*
X67841369Y-90766421D01*
X67856893Y-90754871D01*
X67872204Y-90742494D01*
X67887275Y-90729303D01*
X67902079Y-90715315D01*
X67916591Y-90700544D01*
X67930785Y-90685002D01*
X67944635Y-90668708D01*
X67958112Y-90651673D01*
X67969555Y-90636593D01*
X67979966Y-90621954D01*
X67989390Y-90607636D01*
X67997868Y-90593520D01*
X68005447Y-90579486D01*
X68012169Y-90565414D01*
X68018078Y-90551184D01*
X68023219Y-90536676D01*
X68027635Y-90521771D01*
X68031369Y-90506348D01*
X68034466Y-90490288D01*
X68036970Y-90473471D01*
X68038924Y-90455777D01*
X68040373Y-90437086D01*
X68041359Y-90417280D01*
X68041928Y-90396235D01*
X68043923Y-90302441D01*
X68167651Y-90426169D01*
X68447037Y-90146784D01*
X68347256Y-90047003D01*
X68726422Y-90047003D01*
X68925984Y-90246564D01*
X69225326Y-89947222D01*
X69025765Y-89747661D01*
X68726422Y-90047003D01*
X68347256Y-90047003D01*
X67668748Y-89368495D01*
X67369406Y-89667836D01*
X67593912Y-89892343D01*
X67638373Y-89937008D01*
X67677987Y-89977310D01*
X67712987Y-90013587D01*
X67743600Y-90046177D01*
X67757333Y-90061193D01*
X67770056Y-90075415D01*
X67781796Y-90088884D01*
X67792583Y-90101643D01*
X67802447Y-90113732D01*
X67811414Y-90125194D01*
X67819514Y-90136073D01*
X67826776Y-90146410D01*
X67833228Y-90156245D01*
X67838899Y-90165625D01*
X67843817Y-90174588D01*
X67848012Y-90183178D01*
X67851512Y-90191437D01*
X67854346Y-90199407D01*
X67856542Y-90207131D01*
X67858129Y-90214650D01*
X67859136Y-90222007D01*
X67859591Y-90229244D01*
X67859523Y-90236402D01*
X67858962Y-90243526D01*
X67857934Y-90250656D01*
X67856469Y-90257834D01*
X67854597Y-90265105D01*
X67852344Y-90272507D01*
X67848997Y-90281864D01*
X67844979Y-90291188D01*
X67840339Y-90300425D01*
X67835133Y-90309519D01*
X67829412Y-90318414D01*
X67823229Y-90327055D01*
X67816637Y-90335386D01*
X67809688Y-90343352D01*
X67802435Y-90350896D01*
X67794932Y-90357964D01*
X67787229Y-90364500D01*
X67779380Y-90370448D01*
X67771437Y-90375753D01*
X67763454Y-90380359D01*
X67755482Y-90384212D01*
X67747575Y-90387254D01*
X67735166Y-90390414D01*
X67723138Y-90392230D01*
X67711125Y-90392435D01*
X67698761Y-90390762D01*
X67685677Y-90386944D01*
X67671505Y-90380712D01*
X67655883Y-90371800D01*
X67638440Y-90359940D01*
X67618810Y-90344863D01*
X67596627Y-90326305D01*
X67543134Y-90277668D01*
X67475024Y-90211888D01*
X67389363Y-90126827D01*
X67149889Y-89887353D01*
X66849549Y-90187693D01*
X66133123Y-90187693D01*
X65922587Y-89977157D01*
X66720833Y-89178911D01*
X67858331Y-89178911D01*
X68636620Y-89957201D01*
X68935962Y-89657858D01*
X68157673Y-88879569D01*
X67858331Y-89178911D01*
X66720833Y-89178911D01*
X67168848Y-88730896D01*
X68306346Y-88730896D01*
X68357234Y-88745864D01*
X68373441Y-88751832D01*
X68392033Y-88761985D01*
X68415115Y-88778171D01*
X68444792Y-88802240D01*
X68483169Y-88836037D01*
X68532349Y-88881409D01*
X68671543Y-89014273D01*
X68935962Y-89268714D01*
X69025765Y-89298648D01*
X69046934Y-89305125D01*
X69067805Y-89310329D01*
X69088407Y-89314254D01*
X69108770Y-89316889D01*
X69128922Y-89318226D01*
X69148892Y-89318257D01*
X69168711Y-89316973D01*
X69188407Y-89314363D01*
X69208010Y-89310422D01*
X69227548Y-89305138D01*
X69247051Y-89298504D01*
X69266548Y-89290510D01*
X69286069Y-89281148D01*
X69305641Y-89270410D01*
X69325297Y-89258285D01*
X69345062Y-89244767D01*
X69360017Y-89233803D01*
X69385386Y-89215204D01*
X69426680Y-89182264D01*
X69468418Y-89146493D01*
X69510075Y-89108442D01*
X69551123Y-89068659D01*
X69591037Y-89027697D01*
X69629291Y-88986103D01*
X69665358Y-88944427D01*
X69688441Y-88915942D01*
X69709425Y-88887736D01*
X69728316Y-88859803D01*
X69736979Y-88845939D01*
X69745120Y-88832143D01*
X69752741Y-88818414D01*
X69759843Y-88804752D01*
X69766426Y-88791155D01*
X69772490Y-88777626D01*
X69778037Y-88764162D01*
X69783068Y-88750763D01*
X69787582Y-88737430D01*
X69791581Y-88724161D01*
X69795065Y-88710957D01*
X69798036Y-88697816D01*
X69800494Y-88684740D01*
X69802440Y-88671726D01*
X69803874Y-88658775D01*
X69804797Y-88645887D01*
X69805210Y-88633061D01*
X69805114Y-88620296D01*
X69804509Y-88607593D01*
X69803396Y-88594951D01*
X69801776Y-88582369D01*
X69799649Y-88569849D01*
X69797017Y-88557387D01*
X69793879Y-88544985D01*
X69790238Y-88532643D01*
X69786093Y-88520360D01*
X69771200Y-88480120D01*
X69764717Y-88464374D01*
X69758435Y-88451574D01*
X69755266Y-88446285D01*
X69752025Y-88441743D01*
X69748668Y-88437949D01*
X69745156Y-88434906D01*
X69741445Y-88432618D01*
X69737498Y-88431087D01*
X69733269Y-88430315D01*
X69728719Y-88430307D01*
X69723807Y-88431065D01*
X69718491Y-88432591D01*
X69712730Y-88434889D01*
X69706483Y-88437963D01*
X69692364Y-88446444D01*
X69675805Y-88458059D01*
X69656473Y-88472831D01*
X69634041Y-88490784D01*
X69578549Y-88536324D01*
X69525410Y-88580281D01*
X69504127Y-88598136D01*
X69486081Y-88613701D01*
X69478204Y-88620732D01*
X69471058Y-88627319D01*
X69464612Y-88633505D01*
X69458842Y-88639334D01*
X69453720Y-88644847D01*
X69449219Y-88650089D01*
X69445313Y-88655101D01*
X69441974Y-88659928D01*
X69439177Y-88664610D01*
X69436894Y-88669193D01*
X69435096Y-88673718D01*
X69433760Y-88678229D01*
X69432857Y-88682769D01*
X69432360Y-88687379D01*
X69432244Y-88692105D01*
X69432480Y-88696986D01*
X69433042Y-88702070D01*
X69433903Y-88707395D01*
X69435036Y-88713007D01*
X69436415Y-88718948D01*
X69439801Y-88731989D01*
X69443846Y-88746861D01*
X69444356Y-88749570D01*
X69444584Y-88752633D01*
X69444231Y-88759736D01*
X69442868Y-88768000D01*
X69440571Y-88777264D01*
X69437422Y-88787355D01*
X69433497Y-88798112D01*
X69428877Y-88809365D01*
X69423640Y-88820949D01*
X69417865Y-88832696D01*
X69411631Y-88844440D01*
X69405017Y-88856015D01*
X69398103Y-88867253D01*
X69390966Y-88877989D01*
X69383685Y-88888054D01*
X69376341Y-88897285D01*
X69369010Y-88905512D01*
X69363687Y-88910725D01*
X69358381Y-88915697D01*
X69353092Y-88920430D01*
X69347822Y-88924923D01*
X69342569Y-88929177D01*
X69337334Y-88933190D01*
X69332115Y-88936964D01*
X69326915Y-88940498D01*
X69321732Y-88943793D01*
X69316566Y-88946848D01*
X69311419Y-88949663D01*
X69306288Y-88952238D01*
X69301176Y-88954574D01*
X69296080Y-88956670D01*
X69291003Y-88958526D01*
X69285943Y-88960143D01*
X69280900Y-88961519D01*
X69275875Y-88962657D01*
X69270867Y-88963554D01*
X69265877Y-88964212D01*
X69260905Y-88964630D01*
X69255950Y-88964808D01*
X69251012Y-88964747D01*
X69246093Y-88964446D01*
X69241191Y-88963905D01*
X69236306Y-88963124D01*
X69231439Y-88962104D01*
X69226589Y-88960845D01*
X69221756Y-88959344D01*
X69216942Y-88957605D01*
X69212145Y-88955626D01*
X69207365Y-88953407D01*
X69202750Y-88950920D01*
X69198272Y-88948336D01*
X69193952Y-88945677D01*
X69189810Y-88942961D01*
X69185868Y-88940211D01*
X69182144Y-88937446D01*
X69178660Y-88934687D01*
X69175436Y-88931954D01*
X69172492Y-88929268D01*
X69169850Y-88926650D01*
X69167530Y-88924119D01*
X69165551Y-88921696D01*
X69163935Y-88919401D01*
X69162702Y-88917257D01*
X69162235Y-88916246D01*
X69161872Y-88915281D01*
X69161615Y-88914363D01*
X69161466Y-88913495D01*
X69162562Y-88907257D01*
X69165087Y-88899046D01*
X69174344Y-88876857D01*
X69189073Y-88847230D01*
X69209112Y-88810471D01*
X69234295Y-88766884D01*
X69264459Y-88716771D01*
X69299440Y-88660438D01*
X69339076Y-88598189D01*
X69373624Y-88543221D01*
X69403957Y-88492589D01*
X69430115Y-88445949D01*
X69452140Y-88402962D01*
X69461615Y-88382729D01*
X69470072Y-88363282D01*
X69477516Y-88344577D01*
X69483952Y-88326571D01*
X69489386Y-88309220D01*
X69493822Y-88292484D01*
X69497266Y-88276319D01*
X69499723Y-88260680D01*
X69501197Y-88245528D01*
X69501694Y-88230818D01*
X69501219Y-88216507D01*
X69499777Y-88202554D01*
X69497373Y-88188915D01*
X69494014Y-88175547D01*
X69489702Y-88162409D01*
X69484444Y-88149457D01*
X69478244Y-88136647D01*
X69471108Y-88123938D01*
X69463042Y-88111286D01*
X69454050Y-88098650D01*
X69444137Y-88085986D01*
X69433307Y-88073252D01*
X69421567Y-88060403D01*
X69408923Y-88047399D01*
X69394767Y-88033652D01*
X69381040Y-88021197D01*
X69367632Y-88009989D01*
X69354433Y-87999988D01*
X69341332Y-87991150D01*
X69334786Y-87987153D01*
X69328223Y-87983432D01*
X69321630Y-87979982D01*
X69314993Y-87976794D01*
X69308299Y-87973866D01*
X69301534Y-87971192D01*
X69294684Y-87968766D01*
X69287735Y-87966583D01*
X69280674Y-87964639D01*
X69273488Y-87962927D01*
X69266162Y-87961442D01*
X69258682Y-87960179D01*
X69243209Y-87958299D01*
X69226957Y-87957242D01*
X69209819Y-87956967D01*
X69191684Y-87957433D01*
X69172443Y-87958594D01*
X69154661Y-87960518D01*
X69137200Y-87963314D01*
X69120008Y-87967017D01*
X69103033Y-87971660D01*
X69086221Y-87977272D01*
X69069521Y-87983886D01*
X69052878Y-87991536D01*
X69036241Y-88000253D01*
X69019559Y-88010068D01*
X69002776Y-88021016D01*
X68985842Y-88033126D01*
X68968703Y-88046433D01*
X68951306Y-88060966D01*
X68933601Y-88076760D01*
X68915532Y-88093846D01*
X68897048Y-88112256D01*
X68879017Y-88130825D01*
X68861971Y-88149485D01*
X68845909Y-88168237D01*
X68830834Y-88187076D01*
X68816747Y-88206004D01*
X68803650Y-88225018D01*
X68791543Y-88244118D01*
X68780429Y-88263300D01*
X68770309Y-88282563D01*
X68761185Y-88301908D01*
X68753056Y-88321332D01*
X68745927Y-88340832D01*
X68739797Y-88360409D01*
X68734668Y-88380060D01*
X68730542Y-88399785D01*
X68727421Y-88419581D01*
X68725274Y-88435791D01*
X68723298Y-88450055D01*
X68721455Y-88462462D01*
X68719704Y-88473104D01*
X68718850Y-88477790D01*
X68718004Y-88482067D01*
X68717162Y-88485947D01*
X68716318Y-88489441D01*
X68715468Y-88492560D01*
X68714606Y-88495316D01*
X68713728Y-88497719D01*
X68712828Y-88499780D01*
X68711902Y-88501510D01*
X68710944Y-88502922D01*
X68709950Y-88504026D01*
X68709440Y-88504466D01*
X68708916Y-88504833D01*
X68708383Y-88505129D01*
X68707836Y-88505354D01*
X68707277Y-88505510D01*
X68706704Y-88505601D01*
X68706118Y-88505624D01*
X68705517Y-88505583D01*
X68704268Y-88505315D01*
X68702954Y-88504804D01*
X68701569Y-88504064D01*
X68700109Y-88503104D01*
X68698568Y-88501937D01*
X68696942Y-88500573D01*
X68695224Y-88499024D01*
X68691500Y-88495414D01*
X68689611Y-88493686D01*
X68687331Y-88491877D01*
X68684692Y-88490001D01*
X68681724Y-88488071D01*
X68678458Y-88486100D01*
X68674925Y-88484101D01*
X68667178Y-88480073D01*
X68658730Y-88476092D01*
X68649826Y-88472262D01*
X68640711Y-88468690D01*
X68631631Y-88465480D01*
X68585732Y-88451511D01*
X68306346Y-88730896D01*
X67168848Y-88730896D01*
X68217542Y-87682202D01*
X69355040Y-87682202D01*
X69564580Y-87891742D01*
X70422693Y-88749855D01*
X70642211Y-88526346D01*
X70859733Y-88302838D01*
X70627244Y-87910700D01*
X70581033Y-87832064D01*
X70538751Y-87758877D01*
X70501239Y-87692753D01*
X70469340Y-87635305D01*
X70443896Y-87588148D01*
X70425749Y-87552893D01*
X70419675Y-87540233D01*
X70415740Y-87531155D01*
X70414051Y-87525860D01*
X70414080Y-87524694D01*
X70414711Y-87524549D01*
X70426462Y-87530235D01*
X70452409Y-87544411D01*
X70540435Y-87594396D01*
X70815829Y-87754045D01*
X71194995Y-87977553D01*
X71630038Y-87542509D01*
X70562386Y-86474857D01*
X70292978Y-86744264D01*
X70689108Y-87142390D01*
X71085237Y-87538519D01*
X70588329Y-87247159D01*
X70091421Y-86955800D01*
X69964701Y-87076534D01*
X69838977Y-87198266D01*
X70128341Y-87691182D01*
X70418702Y-88185097D01*
X70027562Y-87793957D01*
X69634426Y-87402816D01*
X69355040Y-87682202D01*
X68217542Y-87682202D01*
X70372803Y-85526940D01*
X72009205Y-87163343D01*
G37*
G36*
X69064742Y-88331592D02*
G01*
X69072430Y-88332544D01*
X69080090Y-88334079D01*
X69087711Y-88336201D01*
X69095281Y-88338922D01*
X69102787Y-88342245D01*
X69110219Y-88346179D01*
X69117564Y-88350732D01*
X69128528Y-88359008D01*
X69137839Y-88367832D01*
X69145477Y-88377327D01*
X69148664Y-88382366D01*
X69151426Y-88387620D01*
X69153762Y-88393105D01*
X69155668Y-88398837D01*
X69157142Y-88404831D01*
X69158185Y-88411103D01*
X69158791Y-88417670D01*
X69158960Y-88424545D01*
X69157975Y-88439288D01*
X69155211Y-88455456D01*
X69150655Y-88473178D01*
X69144284Y-88492577D01*
X69136085Y-88513781D01*
X69126038Y-88536912D01*
X69114126Y-88562099D01*
X69100331Y-88589468D01*
X69084636Y-88619142D01*
X69055921Y-88672626D01*
X69044079Y-88693869D01*
X69033591Y-88711564D01*
X69028779Y-88719108D01*
X69024214Y-88725797D01*
X69019866Y-88731643D01*
X69015705Y-88736657D01*
X69011700Y-88740850D01*
X69007821Y-88744231D01*
X69004038Y-88746813D01*
X69000321Y-88748607D01*
X68996638Y-88749624D01*
X68992960Y-88749873D01*
X68989257Y-88749367D01*
X68985498Y-88748116D01*
X68981653Y-88746132D01*
X68977690Y-88743425D01*
X68973582Y-88740005D01*
X68969295Y-88735886D01*
X68964802Y-88731075D01*
X68960070Y-88725587D01*
X68949772Y-88712616D01*
X68924987Y-88679010D01*
X68916824Y-88667363D01*
X68909548Y-88655614D01*
X68903154Y-88643751D01*
X68897641Y-88631771D01*
X68893003Y-88619661D01*
X68889241Y-88607414D01*
X68886350Y-88595021D01*
X68884326Y-88582473D01*
X68883168Y-88569762D01*
X68882872Y-88556877D01*
X68883436Y-88543812D01*
X68884855Y-88530556D01*
X68887129Y-88517101D01*
X68890254Y-88503439D01*
X68894227Y-88489562D01*
X68899044Y-88475458D01*
X68903488Y-88464243D01*
X68908206Y-88453427D01*
X68913188Y-88443016D01*
X68918419Y-88433021D01*
X68923888Y-88423445D01*
X68929584Y-88414298D01*
X68935494Y-88405586D01*
X68941606Y-88397317D01*
X68947908Y-88389500D01*
X68954388Y-88382139D01*
X68961034Y-88375242D01*
X68967834Y-88368817D01*
X68974775Y-88362873D01*
X68981846Y-88357415D01*
X68989035Y-88352451D01*
X68996329Y-88347988D01*
X69003718Y-88344035D01*
X69011187Y-88340596D01*
X69018726Y-88337682D01*
X69026323Y-88335298D01*
X69033964Y-88333451D01*
X69041639Y-88332150D01*
X69049335Y-88331402D01*
X69057040Y-88331213D01*
X69064742Y-88331592D01*
G37*
G36*
X91931430Y-79673486D02*
G01*
X91931430Y-81874820D01*
X83295431Y-81874820D01*
X83295431Y-80728093D01*
X83793350Y-80728093D01*
X83793492Y-80729096D01*
X83793790Y-80730129D01*
X83794849Y-80732271D01*
X83796507Y-80734511D01*
X83798744Y-80736832D01*
X83801539Y-80739224D01*
X83804873Y-80741673D01*
X83808722Y-80744168D01*
X83813067Y-80746696D01*
X83817888Y-80749244D01*
X83823164Y-80751802D01*
X83828874Y-80754355D01*
X83834999Y-80756891D01*
X83841514Y-80759398D01*
X83848402Y-80761864D01*
X83855641Y-80764276D01*
X83887278Y-80773664D01*
X83917168Y-80781171D01*
X83931493Y-80784210D01*
X83945422Y-80786767D01*
X83958969Y-80788841D01*
X83972147Y-80790425D01*
X83984969Y-80791519D01*
X83997450Y-80792116D01*
X84009601Y-80792214D01*
X84021436Y-80791809D01*
X84032971Y-80790898D01*
X84044218Y-80789477D01*
X84055189Y-80787542D01*
X84065898Y-80785090D01*
X84076359Y-80782117D01*
X84086586Y-80778620D01*
X84096592Y-80774593D01*
X84106391Y-80770036D01*
X84115993Y-80764943D01*
X84125416Y-80759312D01*
X84134672Y-80753137D01*
X84143773Y-80746416D01*
X84152734Y-80739146D01*
X84161569Y-80731322D01*
X84170289Y-80722942D01*
X84178908Y-80714000D01*
X84187440Y-80704493D01*
X84195901Y-80694419D01*
X84204300Y-80683774D01*
X84212653Y-80672554D01*
X84254987Y-80614697D01*
X84254987Y-80774154D01*
X84650097Y-80774153D01*
X84650097Y-80110932D01*
X84844831Y-80110932D01*
X84854709Y-80228053D01*
X84860112Y-80278846D01*
X84863686Y-80303434D01*
X84867835Y-80327474D01*
X84872561Y-80350962D01*
X84877855Y-80373890D01*
X84883715Y-80396254D01*
X84890141Y-80418047D01*
X84897126Y-80439263D01*
X84904667Y-80459897D01*
X84912762Y-80479942D01*
X84921409Y-80499393D01*
X84930601Y-80518243D01*
X84940336Y-80536486D01*
X84950611Y-80554118D01*
X84961424Y-80571130D01*
X84972769Y-80587519D01*
X84984644Y-80603277D01*
X84997047Y-80618400D01*
X85009973Y-80632880D01*
X85023417Y-80646713D01*
X85037378Y-80659891D01*
X85051853Y-80672408D01*
X85066838Y-80684262D01*
X85082330Y-80695443D01*
X85098324Y-80705946D01*
X85114818Y-80715765D01*
X85131807Y-80724894D01*
X85149291Y-80733329D01*
X85167263Y-80741061D01*
X85185722Y-80748087D01*
X85204665Y-80754399D01*
X85220206Y-80758609D01*
X85238045Y-80762749D01*
X85279364Y-80770670D01*
X85326108Y-80777864D01*
X85375761Y-80784032D01*
X85425812Y-80788877D01*
X85473746Y-80792102D01*
X85517048Y-80793408D01*
X85536179Y-80793249D01*
X85553208Y-80792498D01*
X85584323Y-80789747D01*
X85614690Y-80785999D01*
X85644297Y-80781265D01*
X85673129Y-80775560D01*
X85701174Y-80768892D01*
X85728420Y-80761275D01*
X85754853Y-80752722D01*
X85780463Y-80743242D01*
X85805235Y-80732848D01*
X85829159Y-80721554D01*
X85852219Y-80709369D01*
X85874404Y-80696306D01*
X85895701Y-80682377D01*
X85916098Y-80667594D01*
X85935583Y-80651967D01*
X85954140Y-80635512D01*
X85971759Y-80618238D01*
X85988428Y-80600157D01*
X86004133Y-80581281D01*
X86018862Y-80561622D01*
X86032601Y-80541192D01*
X86045337Y-80520003D01*
X86057061Y-80498067D01*
X86067757Y-80475394D01*
X86077414Y-80452000D01*
X86086017Y-80427894D01*
X86093555Y-80403086D01*
X86100016Y-80377593D01*
X86105387Y-80351423D01*
X86109655Y-80324588D01*
X86112808Y-80297103D01*
X86114830Y-80268976D01*
X86116182Y-80229791D01*
X86115988Y-80192096D01*
X86114223Y-80155827D01*
X86110863Y-80120920D01*
X86105880Y-80087311D01*
X86099253Y-80054937D01*
X86090956Y-80023732D01*
X86080965Y-79993633D01*
X86069252Y-79964575D01*
X86055795Y-79936497D01*
X86040569Y-79909331D01*
X86023549Y-79883015D01*
X86004711Y-79857485D01*
X85984027Y-79832676D01*
X85961476Y-79808523D01*
X85937030Y-79784965D01*
X85916596Y-79766965D01*
X85895918Y-79750502D01*
X85874823Y-79735529D01*
X85853136Y-79721995D01*
X85830679Y-79709847D01*
X85807278Y-79699041D01*
X85782756Y-79689524D01*
X85782057Y-79689300D01*
X86135618Y-79689300D01*
X86135635Y-79690538D01*
X86135997Y-79691832D01*
X86199851Y-79802956D01*
X86342019Y-80047432D01*
X86449915Y-80229791D01*
X86542397Y-80386099D01*
X86340609Y-80580832D01*
X86138819Y-80774154D01*
X86662341Y-80774154D01*
X86817563Y-80596354D01*
X86971375Y-80417143D01*
X86975608Y-80800965D01*
X86978430Y-81183376D01*
X89052763Y-81183376D01*
X89476098Y-81183375D01*
X89476098Y-80901153D01*
X89052763Y-80901154D01*
X89052763Y-81183376D01*
X86978430Y-81183376D01*
X87415875Y-81183375D01*
X87415875Y-80038690D01*
X87574047Y-80038690D01*
X87574417Y-80042661D01*
X87575331Y-80046021D01*
X87576882Y-80048153D01*
X87579936Y-80050318D01*
X87584474Y-80052510D01*
X87590479Y-80054729D01*
X87606808Y-80059241D01*
X87628777Y-80063836D01*
X87656235Y-80068497D01*
X87689036Y-80073207D01*
X87727027Y-80077950D01*
X87770064Y-80082710D01*
X87801724Y-80085684D01*
X87829669Y-80088248D01*
X87854154Y-80090393D01*
X87875435Y-80092102D01*
X87884952Y-80092790D01*
X87893762Y-80093365D01*
X87901899Y-80093825D01*
X87909391Y-80094168D01*
X87916274Y-80094395D01*
X87922578Y-80094501D01*
X87928336Y-80094487D01*
X87933576Y-80094351D01*
X87938333Y-80094091D01*
X87942639Y-80093704D01*
X87946524Y-80093191D01*
X87950022Y-80092549D01*
X87951635Y-80092179D01*
X87953163Y-80091775D01*
X87954609Y-80091341D01*
X87955978Y-80090872D01*
X87957274Y-80090370D01*
X87958501Y-80089834D01*
X87959663Y-80089265D01*
X87960763Y-80088663D01*
X87961806Y-80088026D01*
X87962794Y-80087354D01*
X87963734Y-80086648D01*
X87964629Y-80085907D01*
X87965481Y-80085132D01*
X87966297Y-80084320D01*
X87967832Y-80082594D01*
X87969264Y-80080723D01*
X87970625Y-80078710D01*
X87971948Y-80076549D01*
X87973265Y-80074243D01*
X87974845Y-80071356D01*
X87976919Y-80068014D01*
X87979447Y-80064258D01*
X87982392Y-80060132D01*
X87989387Y-80050927D01*
X87997605Y-80040729D01*
X88006750Y-80029870D01*
X88016524Y-80018680D01*
X88026628Y-80007490D01*
X88036765Y-79996632D01*
X88050188Y-79983583D01*
X88063991Y-79971957D01*
X88078154Y-79961747D01*
X88092657Y-79952954D01*
X88107483Y-79945574D01*
X88122612Y-79939606D01*
X88138029Y-79935048D01*
X88153710Y-79931897D01*
X88169639Y-79930152D01*
X88185799Y-79929811D01*
X88202168Y-79930871D01*
X88218731Y-79933330D01*
X88235467Y-79937186D01*
X88252358Y-79942439D01*
X88269386Y-79949085D01*
X88286530Y-79957120D01*
X88303273Y-79966346D01*
X88318605Y-79976091D01*
X88332574Y-79986443D01*
X88345223Y-79997492D01*
X88356600Y-80009326D01*
X88366748Y-80022035D01*
X88375716Y-80035706D01*
X88383545Y-80050430D01*
X88390283Y-80066295D01*
X88395975Y-80083390D01*
X88400667Y-80101804D01*
X88404402Y-80121625D01*
X88407229Y-80142942D01*
X88409192Y-80165847D01*
X88410337Y-80190424D01*
X88410708Y-80216764D01*
X88410012Y-80241571D01*
X88408448Y-80265203D01*
X88406007Y-80287673D01*
X88404457Y-80298476D01*
X88402683Y-80308995D01*
X88400686Y-80319230D01*
X88398465Y-80329184D01*
X88396017Y-80338858D01*
X88393345Y-80348254D01*
X88390445Y-80357376D01*
X88387316Y-80366222D01*
X88383957Y-80374796D01*
X88380369Y-80383100D01*
X88376550Y-80391135D01*
X88372496Y-80398902D01*
X88368210Y-80406405D01*
X88363690Y-80413646D01*
X88358933Y-80420624D01*
X88353940Y-80427342D01*
X88348710Y-80433803D01*
X88343240Y-80440007D01*
X88337530Y-80445958D01*
X88331581Y-80451656D01*
X88325389Y-80457103D01*
X88318953Y-80462301D01*
X88312275Y-80467253D01*
X88305350Y-80471959D01*
X88298180Y-80476422D01*
X88290765Y-80480642D01*
X88281403Y-80485295D01*
X88271859Y-80489462D01*
X88262149Y-80493154D01*
X88252297Y-80496372D01*
X88242325Y-80499121D01*
X88232252Y-80501408D01*
X88222102Y-80503235D01*
X88211896Y-80504610D01*
X88201654Y-80505536D01*
X88191399Y-80506018D01*
X88181151Y-80506061D01*
X88170933Y-80505671D01*
X88160765Y-80504852D01*
X88150668Y-80503608D01*
X88140666Y-80501945D01*
X88130780Y-80499869D01*
X88121029Y-80497383D01*
X88111436Y-80494493D01*
X88102021Y-80491203D01*
X88092809Y-80487518D01*
X88083818Y-80483445D01*
X88075070Y-80478986D01*
X88066590Y-80474149D01*
X88058393Y-80468935D01*
X88050507Y-80463352D01*
X88042949Y-80457403D01*
X88035742Y-80451095D01*
X88028907Y-80444431D01*
X88022466Y-80437417D01*
X88016439Y-80430057D01*
X88010851Y-80422357D01*
X88005719Y-80414321D01*
X88000912Y-80406078D01*
X87996489Y-80398782D01*
X87992378Y-80392386D01*
X87988499Y-80386848D01*
X87986624Y-80384385D01*
X87984778Y-80382118D01*
X87982953Y-80380045D01*
X87981138Y-80378156D01*
X87979324Y-80376445D01*
X87977501Y-80374911D01*
X87975662Y-80373543D01*
X87973793Y-80372340D01*
X87971888Y-80371293D01*
X87969935Y-80370398D01*
X87967928Y-80369648D01*
X87965853Y-80369038D01*
X87963704Y-80368563D01*
X87961468Y-80368216D01*
X87959139Y-80367993D01*
X87956706Y-80367886D01*
X87954158Y-80367892D01*
X87951488Y-80368003D01*
X87945740Y-80368520D01*
X87939383Y-80369393D01*
X87932342Y-80370576D01*
X87905972Y-80374699D01*
X87866372Y-80380278D01*
X87768652Y-80393154D01*
X87704792Y-80401012D01*
X87679329Y-80404294D01*
X87657815Y-80407331D01*
X87648454Y-80408800D01*
X87639981Y-80410261D01*
X87632359Y-80411728D01*
X87625555Y-80413221D01*
X87619535Y-80414756D01*
X87614267Y-80416351D01*
X87609715Y-80418023D01*
X87605845Y-80419789D01*
X87602625Y-80421667D01*
X87600022Y-80423672D01*
X87598938Y-80424730D01*
X87597997Y-80425825D01*
X87597194Y-80426962D01*
X87596521Y-80428143D01*
X87595978Y-80429367D01*
X87595560Y-80430640D01*
X87595078Y-80433334D01*
X87595041Y-80436245D01*
X87595417Y-80439390D01*
X87596171Y-80442784D01*
X87597269Y-80446445D01*
X87598678Y-80450391D01*
X87600363Y-80454639D01*
X87609198Y-80474999D01*
X87621295Y-80501796D01*
X87634799Y-80527652D01*
X87649663Y-80552523D01*
X87665840Y-80576356D01*
X87683283Y-80599106D01*
X87701943Y-80620726D01*
X87721772Y-80641168D01*
X87742724Y-80660383D01*
X87764751Y-80678325D01*
X87787805Y-80694947D01*
X87811839Y-80710200D01*
X87836806Y-80724038D01*
X87862656Y-80736411D01*
X87889344Y-80747274D01*
X87916822Y-80756578D01*
X87945043Y-80764276D01*
X87981429Y-80772548D01*
X88018976Y-80779382D01*
X88057425Y-80784799D01*
X88096516Y-80788816D01*
X88135986Y-80791453D01*
X88175577Y-80792727D01*
X88215026Y-80792658D01*
X88254076Y-80791263D01*
X88292462Y-80788563D01*
X88329928Y-80784575D01*
X88366211Y-80779317D01*
X88401051Y-80772809D01*
X88434188Y-80765068D01*
X88465361Y-80756115D01*
X88494310Y-80745967D01*
X88520774Y-80734643D01*
X88563621Y-80712400D01*
X88603266Y-80688002D01*
X88639717Y-80661440D01*
X88672976Y-80632712D01*
X88703054Y-80601809D01*
X88729953Y-80568724D01*
X88753681Y-80533453D01*
X88774245Y-80495989D01*
X88791651Y-80456324D01*
X88805905Y-80414456D01*
X88817013Y-80370374D01*
X88824979Y-80324076D01*
X88829814Y-80275553D01*
X88831520Y-80224799D01*
X89052763Y-80224799D01*
X89052763Y-80774153D01*
X89476098Y-80774154D01*
X89476098Y-79684777D01*
X89621442Y-79684777D01*
X90084286Y-80438310D01*
X90195765Y-80618932D01*
X90043662Y-80774154D01*
X89920598Y-80899743D01*
X89813904Y-81009037D01*
X89767180Y-81057376D01*
X89726394Y-81099944D01*
X89692684Y-81135567D01*
X89667192Y-81163069D01*
X89651062Y-81181279D01*
X89649385Y-81183376D01*
X89646862Y-81186532D01*
X89645431Y-81189021D01*
X89648360Y-81190493D01*
X89656886Y-81191735D01*
X89689176Y-81193540D01*
X89803828Y-81194489D01*
X89964518Y-81191997D01*
X90146375Y-81186198D01*
X90273375Y-81181964D01*
X90506209Y-80908209D01*
X90553274Y-80853096D01*
X90597511Y-80801737D01*
X90637946Y-80755239D01*
X90673601Y-80714710D01*
X90703503Y-80681261D01*
X90726673Y-80655996D01*
X90742136Y-80640024D01*
X90746674Y-80635870D01*
X90748091Y-80634811D01*
X90748919Y-80634454D01*
X90750209Y-80635637D01*
X90751430Y-80639619D01*
X90753660Y-80655400D01*
X90755591Y-80680640D01*
X90757210Y-80714181D01*
X90759436Y-80801538D01*
X90760208Y-80908209D01*
X90760208Y-81183376D01*
X91225875Y-81183376D01*
X91225874Y-79673487D01*
X90760208Y-79673486D01*
X90760208Y-80041787D01*
X90637441Y-80168787D01*
X90516086Y-80295786D01*
X90355220Y-79983932D01*
X90194353Y-79673487D01*
X89905074Y-79673486D01*
X89846991Y-79673682D01*
X89793090Y-79674259D01*
X89744515Y-79675199D01*
X89702405Y-79676486D01*
X89667901Y-79678104D01*
X89642145Y-79680036D01*
X89632905Y-79681115D01*
X89626279Y-79682265D01*
X89622411Y-79683487D01*
X89621554Y-79684123D01*
X89621442Y-79684777D01*
X89476098Y-79684777D01*
X89476098Y-79673487D01*
X89052763Y-79673486D01*
X89052763Y-80224799D01*
X88831520Y-80224799D01*
X88830105Y-80171809D01*
X88825575Y-80116576D01*
X88822906Y-80094584D01*
X88819636Y-80073526D01*
X88815724Y-80053312D01*
X88811134Y-80033849D01*
X88805822Y-80015049D01*
X88799753Y-79996818D01*
X88792887Y-79979069D01*
X88785182Y-79961707D01*
X88776602Y-79944643D01*
X88767105Y-79927785D01*
X88756653Y-79911043D01*
X88745207Y-79894326D01*
X88732729Y-79877543D01*
X88719177Y-79860603D01*
X88704513Y-79843415D01*
X88688698Y-79825888D01*
X88670774Y-79807707D01*
X88652397Y-79790713D01*
X88633479Y-79774870D01*
X88613931Y-79760139D01*
X88593662Y-79746480D01*
X88572586Y-79733861D01*
X88550614Y-79722242D01*
X88527655Y-79711587D01*
X88503621Y-79701858D01*
X88478423Y-79693017D01*
X88451971Y-79685028D01*
X88424180Y-79677853D01*
X88394957Y-79671456D01*
X88364215Y-79665797D01*
X88331867Y-79660843D01*
X88297819Y-79656554D01*
X88250253Y-79652157D01*
X88204367Y-79649554D01*
X88160117Y-79648753D01*
X88117462Y-79649763D01*
X88076361Y-79652592D01*
X88036775Y-79657249D01*
X87998659Y-79663741D01*
X87961975Y-79672076D01*
X87926680Y-79682264D01*
X87892731Y-79694311D01*
X87860090Y-79708229D01*
X87828714Y-79724023D01*
X87798560Y-79741702D01*
X87769589Y-79761274D01*
X87741760Y-79782747D01*
X87715030Y-79806131D01*
X87701928Y-79819166D01*
X87688655Y-79833744D01*
X87675373Y-79849593D01*
X87662246Y-79866435D01*
X87649433Y-79883996D01*
X87637095Y-79902002D01*
X87625393Y-79920177D01*
X87614488Y-79938247D01*
X87604544Y-79955937D01*
X87595721Y-79972971D01*
X87588178Y-79989075D01*
X87582077Y-80003974D01*
X87577581Y-80017393D01*
X87574851Y-80029057D01*
X87574199Y-80034145D01*
X87574047Y-80038690D01*
X87415875Y-80038690D01*
X87415875Y-79673487D01*
X86978430Y-79673486D01*
X86978431Y-79966999D01*
X86905053Y-80031910D01*
X86889961Y-80044827D01*
X86875596Y-80056934D01*
X86862289Y-80067950D01*
X86850373Y-80077594D01*
X86840175Y-80085583D01*
X86835824Y-80088871D01*
X86832027Y-80091639D01*
X86828827Y-80093854D01*
X86826263Y-80095479D01*
X86824376Y-80096479D01*
X86823700Y-80096735D01*
X86823208Y-80096821D01*
X86821862Y-80095715D01*
X86819449Y-80092472D01*
X86811654Y-80080020D01*
X86785814Y-80034379D01*
X86749389Y-79967043D01*
X86706087Y-79885153D01*
X86596020Y-79673486D01*
X86361774Y-79673487D01*
X86329412Y-79673538D01*
X86299983Y-79673696D01*
X86273383Y-79673971D01*
X86249504Y-79674369D01*
X86228237Y-79674899D01*
X86209474Y-79675571D01*
X86193110Y-79676391D01*
X86179037Y-79677368D01*
X86167144Y-79678510D01*
X86161984Y-79679145D01*
X86157330Y-79679826D01*
X86153166Y-79680552D01*
X86149482Y-79681324D01*
X86146261Y-79682144D01*
X86143493Y-79683012D01*
X86141163Y-79683930D01*
X86139259Y-79684898D01*
X86137765Y-79685919D01*
X86136670Y-79686991D01*
X86135958Y-79688119D01*
X86135618Y-79689300D01*
X85782057Y-79689300D01*
X85756937Y-79681249D01*
X85729647Y-79674162D01*
X85700710Y-79668218D01*
X85669950Y-79663364D01*
X85637191Y-79659552D01*
X85602258Y-79656732D01*
X85564975Y-79654856D01*
X85525165Y-79653871D01*
X85482653Y-79653731D01*
X85446613Y-79654097D01*
X85412018Y-79655195D01*
X85378823Y-79657033D01*
X85346988Y-79659619D01*
X85316467Y-79662956D01*
X85287216Y-79667052D01*
X85259195Y-79671912D01*
X85251690Y-79673487D01*
X85232357Y-79677544D01*
X85206660Y-79683952D01*
X85182061Y-79691146D01*
X85158517Y-79699128D01*
X85135982Y-79707905D01*
X85114417Y-79717485D01*
X85093774Y-79727872D01*
X85074011Y-79739076D01*
X85055086Y-79751099D01*
X85043961Y-79759519D01*
X85031428Y-79770248D01*
X85017806Y-79782911D01*
X85003405Y-79797135D01*
X84988541Y-79812552D01*
X84973529Y-79828786D01*
X84958682Y-79845468D01*
X84944315Y-79862223D01*
X84930740Y-79878681D01*
X84918275Y-79894470D01*
X84907232Y-79909215D01*
X84897925Y-79922549D01*
X84890668Y-79934095D01*
X84885776Y-79943484D01*
X84884315Y-79947253D01*
X84883563Y-79950341D01*
X84883558Y-79952706D01*
X84884341Y-79954299D01*
X84886159Y-79955172D01*
X84889955Y-79956198D01*
X84903061Y-79958642D01*
X84922814Y-79961517D01*
X84948372Y-79964706D01*
X85013525Y-79971563D01*
X85091776Y-79978288D01*
X85292154Y-79995221D01*
X85327431Y-79962765D01*
X85337299Y-79954146D01*
X85346839Y-79946261D01*
X85356124Y-79939088D01*
X85365223Y-79932603D01*
X85374204Y-79926778D01*
X85383141Y-79921588D01*
X85392104Y-79917013D01*
X85401161Y-79913024D01*
X85410383Y-79909596D01*
X85419842Y-79906707D01*
X85429605Y-79904329D01*
X85439747Y-79902440D01*
X85450334Y-79901014D01*
X85461437Y-79900026D01*
X85473127Y-79899451D01*
X85485475Y-79899265D01*
X85493099Y-79899389D01*
X85500619Y-79899759D01*
X85508036Y-79900373D01*
X85515346Y-79901230D01*
X85522545Y-79902327D01*
X85529633Y-79903665D01*
X85536608Y-79905239D01*
X85543464Y-79907047D01*
X85550200Y-79909091D01*
X85556813Y-79911366D01*
X85563302Y-79913870D01*
X85569663Y-79916604D01*
X85575894Y-79919562D01*
X85581991Y-79922747D01*
X85587954Y-79926153D01*
X85593779Y-79929781D01*
X85599463Y-79933627D01*
X85605003Y-79937691D01*
X85610397Y-79941970D01*
X85615645Y-79946462D01*
X85620741Y-79951168D01*
X85625683Y-79956082D01*
X85630470Y-79961205D01*
X85635097Y-79966536D01*
X85639564Y-79972070D01*
X85643867Y-79977807D01*
X85648002Y-79983744D01*
X85651969Y-79989882D01*
X85655766Y-79996217D01*
X85659386Y-80002746D01*
X85662831Y-80009471D01*
X85666098Y-80016387D01*
X85671766Y-80028635D01*
X85677055Y-80040817D01*
X85681848Y-80052602D01*
X85686030Y-80063659D01*
X85689483Y-80073659D01*
X85690900Y-80078158D01*
X85692093Y-80082269D01*
X85693045Y-80085950D01*
X85693744Y-80089158D01*
X85694174Y-80091855D01*
X85694320Y-80093999D01*
X85693177Y-80096281D01*
X85689612Y-80098373D01*
X85674387Y-80102002D01*
X85646993Y-80104937D01*
X85605773Y-80107228D01*
X85549075Y-80108923D01*
X85475245Y-80110072D01*
X85269576Y-80110932D01*
X84844831Y-80110932D01*
X84650097Y-80110932D01*
X84650097Y-79673486D01*
X84229587Y-79673486D01*
X84223943Y-79981110D01*
X84222787Y-80040690D01*
X84221388Y-80094279D01*
X84219659Y-80142272D01*
X84217525Y-80185059D01*
X84214903Y-80223035D01*
X84213385Y-80240339D01*
X84211714Y-80256591D01*
X84209879Y-80271833D01*
X84207873Y-80286120D01*
X84205686Y-80299497D01*
X84203304Y-80312014D01*
X84200720Y-80323723D01*
X84197924Y-80334669D01*
X84194906Y-80344904D01*
X84191655Y-80354474D01*
X84188159Y-80363432D01*
X84184413Y-80371826D01*
X84180402Y-80379702D01*
X84176118Y-80387113D01*
X84171551Y-80394106D01*
X84166692Y-80400730D01*
X84161529Y-80407035D01*
X84156052Y-80413069D01*
X84150251Y-80418882D01*
X84144118Y-80424524D01*
X84137640Y-80430043D01*
X84130809Y-80435487D01*
X84123184Y-80441010D01*
X84114663Y-80445936D01*
X84105341Y-80450262D01*
X84095311Y-80453986D01*
X84084669Y-80457107D01*
X84073509Y-80459622D01*
X84061929Y-80461529D01*
X84050022Y-80462828D01*
X84037885Y-80463514D01*
X84025610Y-80463586D01*
X84013294Y-80463042D01*
X84001031Y-80461880D01*
X83988917Y-80460097D01*
X83977048Y-80457693D01*
X83965517Y-80454665D01*
X83954420Y-80451010D01*
X83948646Y-80448869D01*
X83943413Y-80447314D01*
X83938600Y-80446498D01*
X83934091Y-80446578D01*
X83931912Y-80447002D01*
X83929763Y-80447708D01*
X83927631Y-80448714D01*
X83925497Y-80450042D01*
X83921173Y-80453736D01*
X83916673Y-80458947D01*
X83911874Y-80465826D01*
X83906657Y-80474532D01*
X83900903Y-80485217D01*
X83894491Y-80498039D01*
X83879217Y-80530707D01*
X83859875Y-80573776D01*
X83816131Y-80674847D01*
X83801138Y-80709309D01*
X83793553Y-80726175D01*
X83793370Y-80727119D01*
X83793350Y-80728093D01*
X83295431Y-80728093D01*
X83295431Y-78869154D01*
X91931430Y-78869154D01*
X91931430Y-79673486D01*
G37*
G36*
X68561623Y-109656142D02*
G01*
X70762957Y-109656142D01*
X70762957Y-114341031D01*
X67757290Y-114341031D01*
X67757290Y-112709787D01*
X68561623Y-112709787D01*
X68562489Y-112858981D01*
X68563651Y-112924270D01*
X68565372Y-112983917D01*
X68567704Y-113038347D01*
X68570702Y-113087984D01*
X68574419Y-113133250D01*
X68578910Y-113174571D01*
X68584227Y-113212370D01*
X68590424Y-113247070D01*
X68597556Y-113279095D01*
X68605677Y-113308869D01*
X68614838Y-113336816D01*
X68625096Y-113363360D01*
X68636503Y-113388924D01*
X68649112Y-113413931D01*
X68664094Y-113439583D01*
X68680923Y-113464626D01*
X68699497Y-113488984D01*
X68719712Y-113512577D01*
X68741465Y-113535326D01*
X68764653Y-113557153D01*
X68789171Y-113577980D01*
X68814918Y-113597728D01*
X68841789Y-113616319D01*
X68869681Y-113633673D01*
X68898491Y-113649713D01*
X68928115Y-113664359D01*
X68958451Y-113677534D01*
X68989394Y-113689158D01*
X69020842Y-113699154D01*
X69052690Y-113707442D01*
X69069847Y-113710540D01*
X69093105Y-113713440D01*
X69121424Y-113716074D01*
X69153761Y-113718378D01*
X69189075Y-113720286D01*
X69226323Y-113721730D01*
X69264464Y-113722645D01*
X69302457Y-113722964D01*
X69355173Y-113722608D01*
X69404964Y-113720975D01*
X69452014Y-113718010D01*
X69496507Y-113713660D01*
X69538627Y-113707872D01*
X69578558Y-113700591D01*
X69616484Y-113691764D01*
X69652589Y-113681337D01*
X69687057Y-113669256D01*
X69720071Y-113655468D01*
X69751817Y-113639919D01*
X69782477Y-113622555D01*
X69812236Y-113603323D01*
X69841278Y-113582168D01*
X69869786Y-113559037D01*
X69897945Y-113533876D01*
X69912696Y-113519108D01*
X69926788Y-113503906D01*
X69940222Y-113488266D01*
X69953001Y-113472184D01*
X69965127Y-113455655D01*
X69976601Y-113438675D01*
X69987427Y-113421241D01*
X69997605Y-113403348D01*
X70007139Y-113384992D01*
X70016030Y-113366168D01*
X70024280Y-113346874D01*
X70031891Y-113327104D01*
X70038866Y-113306854D01*
X70045206Y-113286121D01*
X70050913Y-113264900D01*
X70055990Y-113243187D01*
X70059493Y-113219485D01*
X70062583Y-113182950D01*
X70065242Y-113134641D01*
X70067455Y-113075617D01*
X70070476Y-112929655D01*
X70071512Y-112753531D01*
X70071512Y-112337253D01*
X68561623Y-112337253D01*
X68561623Y-112709787D01*
X67757290Y-112709787D01*
X67757290Y-111003753D01*
X68560212Y-111003753D01*
X68564446Y-111178731D01*
X68568679Y-111353709D01*
X68999068Y-111465187D01*
X69340733Y-111553028D01*
X69556457Y-111609120D01*
X69683457Y-111642987D01*
X69123246Y-111644398D01*
X68561623Y-111645809D01*
X68561623Y-112026809D01*
X70071512Y-112026809D01*
X70071512Y-111411565D01*
X69634068Y-111300087D01*
X69546397Y-111277685D01*
X69464514Y-111256342D01*
X69390238Y-111236587D01*
X69325387Y-111218948D01*
X69271782Y-111203955D01*
X69231240Y-111192137D01*
X69205581Y-111184023D01*
X69198901Y-111181520D01*
X69196623Y-111180142D01*
X69198869Y-111178531D01*
X69205459Y-111175854D01*
X69230799Y-111167531D01*
X69323976Y-111140631D01*
X69462133Y-111103149D01*
X69631246Y-111058787D01*
X70064457Y-110945898D01*
X70068690Y-110632631D01*
X70071512Y-110319365D01*
X68561623Y-110319365D01*
X68561623Y-110714476D01*
X69109135Y-110715887D01*
X69467160Y-110716328D01*
X69518684Y-110717658D01*
X69554676Y-110720153D01*
X69574967Y-110724154D01*
X69579172Y-110726824D01*
X69579387Y-110729998D01*
X69575593Y-110733717D01*
X69567767Y-110738025D01*
X69539937Y-110748574D01*
X69495727Y-110761984D01*
X69434969Y-110778593D01*
X69023057Y-110883809D01*
X68560212Y-111003753D01*
X67757290Y-111003753D01*
X67757290Y-109656142D01*
X68561623Y-109656142D01*
G37*
D12*
G36*
X73371580Y-114411192D02*
G01*
X73327616Y-114675707D01*
X73311582Y-114671348D01*
X73296025Y-114666514D01*
X73280945Y-114661205D01*
X73266342Y-114655420D01*
X73252216Y-114649160D01*
X73238567Y-114642425D01*
X73225395Y-114635216D01*
X73212700Y-114627530D01*
X73200482Y-114619370D01*
X73188741Y-114610735D01*
X73177478Y-114601625D01*
X73166691Y-114592039D01*
X73156381Y-114581978D01*
X73146548Y-114571442D01*
X73137193Y-114560431D01*
X73128314Y-114548945D01*
X73119915Y-114536917D01*
X73112057Y-114524281D01*
X73104741Y-114511035D01*
X73097967Y-114497181D01*
X73091735Y-114482718D01*
X73086045Y-114467647D01*
X73080897Y-114451967D01*
X73076290Y-114435678D01*
X73072226Y-114418780D01*
X73068704Y-114401274D01*
X73065723Y-114383159D01*
X73063285Y-114364435D01*
X73061388Y-114345103D01*
X73060643Y-114335208D01*
X73060033Y-114325162D01*
X73059559Y-114314963D01*
X73059220Y-114304612D01*
X73059017Y-114294109D01*
X73058949Y-114283453D01*
X73059019Y-114271226D01*
X73059228Y-114259212D01*
X73059576Y-114247412D01*
X73060064Y-114235826D01*
X73060690Y-114224453D01*
X73061457Y-114213295D01*
X73062362Y-114202349D01*
X73063407Y-114191618D01*
X73064591Y-114181100D01*
X73065914Y-114170796D01*
X73067377Y-114160706D01*
X73068978Y-114150830D01*
X73070720Y-114141167D01*
X73074620Y-114122482D01*
X73079077Y-114104652D01*
X73084092Y-114087677D01*
X73089664Y-114071557D01*
X73095793Y-114056292D01*
X73102479Y-114041882D01*
X73109722Y-114028326D01*
X73117523Y-114015626D01*
X73125880Y-114003780D01*
X73130268Y-113998178D01*
X73139297Y-113987530D01*
X73148613Y-113977570D01*
X73158218Y-113968296D01*
X73168111Y-113959709D01*
X73178291Y-113951810D01*
X73188761Y-113944597D01*
X73199518Y-113938071D01*
X73210563Y-113932232D01*
X73221896Y-113927080D01*
X73233518Y-113922615D01*
X73245428Y-113918837D01*
X73257626Y-113915746D01*
X73270112Y-113913342D01*
X73282886Y-113911624D01*
X73295948Y-113910594D01*
X73309298Y-113910250D01*
X73321010Y-113910566D01*
X73332517Y-113911513D01*
X73343817Y-113913090D01*
X73354911Y-113915299D01*
X73365798Y-113918139D01*
X73376480Y-113921610D01*
X73386956Y-113925713D01*
X73397226Y-113930446D01*
X73407289Y-113935811D01*
X73417147Y-113941806D01*
X73423604Y-113946154D01*
X73433109Y-113953160D01*
X73442391Y-113960806D01*
X73451450Y-113969091D01*
X73460286Y-113978016D01*
X73468898Y-113987581D01*
X73477288Y-113997786D01*
X73485454Y-114008630D01*
X73493396Y-114020114D01*
X73501116Y-114032237D01*
X73506138Y-114040675D01*
X73511061Y-114049397D01*
X73513485Y-114053865D01*
X73516274Y-114043163D01*
X73519144Y-114032945D01*
X73522095Y-114023213D01*
X73526158Y-114010991D01*
X73530365Y-113999632D01*
X73534718Y-113989135D01*
X73539215Y-113979501D01*
X73543858Y-113970729D01*
X73547435Y-113964716D01*
X73553471Y-113955524D01*
X73559854Y-113946722D01*
X73566585Y-113938310D01*
X73573664Y-113930290D01*
X73581091Y-113922660D01*
X73588866Y-113915420D01*
X73596988Y-113908572D01*
X73605458Y-113902114D01*
X73614276Y-113896047D01*
X73623441Y-113890370D01*
X73629745Y-113886803D01*
X73639444Y-113881827D01*
X73649491Y-113877340D01*
X73659886Y-113873343D01*
X73670629Y-113869836D01*
X73681719Y-113866818D01*
X73693157Y-113864289D01*
X73704943Y-113862249D01*
X73717077Y-113860700D01*
X73729558Y-113859639D01*
X73742387Y-113859068D01*
X73751133Y-113858959D01*
X73762188Y-113859140D01*
X73773188Y-113859681D01*
X73784132Y-113860582D01*
X73795021Y-113861844D01*
X73805854Y-113863467D01*
X73816633Y-113865451D01*
X73827355Y-113867795D01*
X73838023Y-113870500D01*
X73848635Y-113873565D01*
X73859192Y-113876991D01*
X73869693Y-113880778D01*
X73880140Y-113884925D01*
X73890530Y-113889433D01*
X73900866Y-113894302D01*
X73911146Y-113899531D01*
X73921371Y-113905121D01*
X73931391Y-113911019D01*
X73941120Y-113917234D01*
X73950557Y-113923766D01*
X73959702Y-113930614D01*
X73968554Y-113937779D01*
X73977115Y-113945261D01*
X73985384Y-113953060D01*
X73993361Y-113961175D01*
X74001046Y-113969607D01*
X74008440Y-113978356D01*
X74015541Y-113987422D01*
X74022350Y-113996804D01*
X74028867Y-114006503D01*
X74035093Y-114016519D01*
X74041026Y-114026851D01*
X74046667Y-114037501D01*
X74051991Y-114048521D01*
X74056971Y-114059967D01*
X74061608Y-114071839D01*
X74065901Y-114084136D01*
X74069851Y-114096859D01*
X74073458Y-114110007D01*
X74076721Y-114123580D01*
X74079640Y-114137579D01*
X74082216Y-114152004D01*
X74084449Y-114166854D01*
X74086338Y-114182130D01*
X74087883Y-114197831D01*
X74089085Y-114213958D01*
X74089944Y-114230510D01*
X74090459Y-114247488D01*
X74090631Y-114264891D01*
X74090506Y-114281823D01*
X74090131Y-114298303D01*
X74089506Y-114314330D01*
X74088631Y-114329905D01*
X74087506Y-114345028D01*
X74086132Y-114359699D01*
X74084507Y-114373918D01*
X74082632Y-114387684D01*
X74080507Y-114400998D01*
X74078133Y-114413860D01*
X74075508Y-114426270D01*
X74072633Y-114438227D01*
X74069509Y-114449732D01*
X74066134Y-114460785D01*
X74062510Y-114471386D01*
X74058635Y-114481534D01*
X74054490Y-114491347D01*
X74050113Y-114500940D01*
X74045506Y-114510314D01*
X74040668Y-114519468D01*
X74035599Y-114528403D01*
X74030299Y-114537119D01*
X74024768Y-114545615D01*
X74019007Y-114553891D01*
X74013014Y-114561948D01*
X74006791Y-114569786D01*
X74000337Y-114577404D01*
X73993651Y-114584803D01*
X73986735Y-114591983D01*
X73979588Y-114598943D01*
X73972210Y-114605683D01*
X73964602Y-114612204D01*
X73956724Y-114618493D01*
X73948600Y-114624596D01*
X73940230Y-114630514D01*
X73931614Y-114636247D01*
X73922751Y-114641795D01*
X73913643Y-114647158D01*
X73904288Y-114652335D01*
X73894687Y-114657328D01*
X73884840Y-114662136D01*
X73874747Y-114666758D01*
X73864408Y-114671196D01*
X73853822Y-114675448D01*
X73842991Y-114679515D01*
X73831913Y-114683397D01*
X73820589Y-114687094D01*
X73809019Y-114690606D01*
X73778000Y-114411192D01*
X73790855Y-114407963D01*
X73802950Y-114404412D01*
X73814285Y-114400538D01*
X73824860Y-114396343D01*
X73834676Y-114391826D01*
X73843731Y-114386987D01*
X73852027Y-114381825D01*
X73861905Y-114374443D01*
X73870433Y-114366488D01*
X73875942Y-114360146D01*
X73882296Y-114351124D01*
X73887803Y-114341522D01*
X73892462Y-114331340D01*
X73896275Y-114320578D01*
X73899240Y-114309236D01*
X73901358Y-114297314D01*
X73902629Y-114284812D01*
X73903053Y-114271730D01*
X73902711Y-114261362D01*
X73901687Y-114251325D01*
X73899981Y-114241618D01*
X73896643Y-114229191D01*
X73892092Y-114217351D01*
X73886328Y-114206098D01*
X73879350Y-114195434D01*
X73871158Y-114185357D01*
X73864218Y-114178185D01*
X73856665Y-114171463D01*
X73848662Y-114165402D01*
X73840207Y-114160002D01*
X73831302Y-114155264D01*
X73821946Y-114151187D01*
X73812140Y-114147771D01*
X73801882Y-114145016D01*
X73791174Y-114142922D01*
X73780015Y-114141490D01*
X73768405Y-114140718D01*
X73760415Y-114140571D01*
X73748268Y-114140889D01*
X73736650Y-114141842D01*
X73725559Y-114143431D01*
X73714997Y-114145655D01*
X73704963Y-114148514D01*
X73695457Y-114152009D01*
X73686479Y-114156139D01*
X73675329Y-114162634D01*
X73665119Y-114170259D01*
X73658077Y-114176719D01*
X73649548Y-114186100D01*
X73642155Y-114196289D01*
X73635900Y-114207288D01*
X73630783Y-114219095D01*
X73627691Y-114228482D01*
X73625239Y-114238324D01*
X73623426Y-114248621D01*
X73622253Y-114259373D01*
X73621720Y-114270580D01*
X73621685Y-114274416D01*
X73622066Y-114285323D01*
X73623211Y-114297433D01*
X73624677Y-114307989D01*
X73626631Y-114319316D01*
X73629073Y-114331414D01*
X73631226Y-114340993D01*
X73633653Y-114351006D01*
X73636355Y-114361452D01*
X73637316Y-114365030D01*
X73431175Y-114350620D01*
X73432317Y-114340865D01*
X73433279Y-114330946D01*
X73433966Y-114320394D01*
X73434106Y-114314228D01*
X73433842Y-114304085D01*
X73433050Y-114294264D01*
X73431172Y-114281670D01*
X73428356Y-114269649D01*
X73424601Y-114258200D01*
X73419907Y-114247324D01*
X73414274Y-114237020D01*
X73407702Y-114227288D01*
X73404064Y-114222637D01*
X73396382Y-114213993D01*
X73388357Y-114206502D01*
X73379987Y-114200163D01*
X73371275Y-114194976D01*
X73362219Y-114190943D01*
X73352819Y-114188061D01*
X73343076Y-114186332D01*
X73332990Y-114185756D01*
X73321089Y-114186430D01*
X73309963Y-114188451D01*
X73299613Y-114191821D01*
X73290037Y-114196537D01*
X73281237Y-114202602D01*
X73273212Y-114210014D01*
X73270219Y-114213356D01*
X73263394Y-114222411D01*
X73257726Y-114232480D01*
X73253214Y-114243563D01*
X73250438Y-114253159D01*
X73248402Y-114263404D01*
X73247106Y-114274297D01*
X73246551Y-114285840D01*
X73246528Y-114288827D01*
X73246963Y-114300932D01*
X73248268Y-114312457D01*
X73250443Y-114323402D01*
X73253489Y-114333767D01*
X73257404Y-114343552D01*
X73262190Y-114352757D01*
X73267846Y-114361382D01*
X73274371Y-114369427D01*
X73281928Y-114376811D01*
X73290797Y-114383578D01*
X73300979Y-114389726D01*
X73312473Y-114395256D01*
X73321956Y-114398997D01*
X73332177Y-114402391D01*
X73343136Y-114405437D01*
X73354834Y-114408136D01*
X73367271Y-114410486D01*
X73371580Y-114411192D01*
G37*
G36*
X73793632Y-113721939D02*
G01*
X73793632Y-113423230D01*
X74075000Y-113423230D01*
X74075000Y-113721939D01*
X73793632Y-113721939D01*
G37*
G36*
X73371580Y-113012169D02*
G01*
X73327616Y-113276684D01*
X73311582Y-113272325D01*
X73296025Y-113267491D01*
X73280945Y-113262181D01*
X73266342Y-113256397D01*
X73252216Y-113250137D01*
X73238567Y-113243402D01*
X73225395Y-113236193D01*
X73212700Y-113228507D01*
X73200482Y-113220347D01*
X73188741Y-113211712D01*
X73177478Y-113202601D01*
X73166691Y-113193016D01*
X73156381Y-113182955D01*
X73146548Y-113172419D01*
X73137193Y-113161408D01*
X73128314Y-113149922D01*
X73119915Y-113137894D01*
X73112057Y-113125258D01*
X73104741Y-113112012D01*
X73097967Y-113098158D01*
X73091735Y-113083695D01*
X73086045Y-113068624D01*
X73080897Y-113052944D01*
X73076290Y-113036655D01*
X73072226Y-113019757D01*
X73068704Y-113002251D01*
X73065723Y-112984136D01*
X73063285Y-112965412D01*
X73061388Y-112946080D01*
X73060643Y-112936185D01*
X73060033Y-112926139D01*
X73059559Y-112915940D01*
X73059220Y-112905589D01*
X73059017Y-112895086D01*
X73058949Y-112884430D01*
X73059019Y-112872203D01*
X73059228Y-112860189D01*
X73059576Y-112848389D01*
X73060064Y-112836803D01*
X73060690Y-112825430D01*
X73061457Y-112814272D01*
X73062362Y-112803326D01*
X73063407Y-112792595D01*
X73064591Y-112782077D01*
X73065914Y-112771773D01*
X73067377Y-112761683D01*
X73068978Y-112751806D01*
X73070720Y-112742144D01*
X73074620Y-112723459D01*
X73079077Y-112705629D01*
X73084092Y-112688654D01*
X73089664Y-112672534D01*
X73095793Y-112657269D01*
X73102479Y-112642859D01*
X73109722Y-112629303D01*
X73117523Y-112616603D01*
X73125880Y-112604757D01*
X73130268Y-112599155D01*
X73139297Y-112588507D01*
X73148613Y-112578547D01*
X73158218Y-112569273D01*
X73168111Y-112560686D01*
X73178291Y-112552787D01*
X73188761Y-112545574D01*
X73199518Y-112539048D01*
X73210563Y-112533209D01*
X73221896Y-112528057D01*
X73233518Y-112523592D01*
X73245428Y-112519814D01*
X73257626Y-112516723D01*
X73270112Y-112514318D01*
X73282886Y-112512601D01*
X73295948Y-112511571D01*
X73309298Y-112511227D01*
X73321010Y-112511543D01*
X73332517Y-112512490D01*
X73343817Y-112514067D01*
X73354911Y-112516276D01*
X73365798Y-112519116D01*
X73376480Y-112522587D01*
X73386956Y-112526690D01*
X73397226Y-112531423D01*
X73407289Y-112536788D01*
X73417147Y-112542783D01*
X73423604Y-112547131D01*
X73433109Y-112554137D01*
X73442391Y-112561783D01*
X73451450Y-112570068D01*
X73460286Y-112578993D01*
X73468898Y-112588558D01*
X73477288Y-112598763D01*
X73485454Y-112609607D01*
X73493396Y-112621091D01*
X73501116Y-112633214D01*
X73506138Y-112641652D01*
X73511061Y-112650374D01*
X73513485Y-112654842D01*
X73516274Y-112644140D01*
X73519144Y-112633922D01*
X73522095Y-112624190D01*
X73526158Y-112611968D01*
X73530365Y-112600609D01*
X73534718Y-112590112D01*
X73539215Y-112580478D01*
X73543858Y-112571706D01*
X73547435Y-112565693D01*
X73553471Y-112556501D01*
X73559854Y-112547699D01*
X73566585Y-112539287D01*
X73573664Y-112531267D01*
X73581091Y-112523637D01*
X73588866Y-112516397D01*
X73596988Y-112509549D01*
X73605458Y-112503091D01*
X73614276Y-112497024D01*
X73623441Y-112491347D01*
X73629745Y-112487780D01*
X73639444Y-112482804D01*
X73649491Y-112478317D01*
X73659886Y-112474320D01*
X73670629Y-112470813D01*
X73681719Y-112467795D01*
X73693157Y-112465266D01*
X73704943Y-112463226D01*
X73717077Y-112461677D01*
X73729558Y-112460616D01*
X73742387Y-112460045D01*
X73751133Y-112459936D01*
X73762188Y-112460117D01*
X73773188Y-112460658D01*
X73784132Y-112461559D01*
X73795021Y-112462821D01*
X73805854Y-112464444D01*
X73816633Y-112466428D01*
X73827355Y-112468772D01*
X73838023Y-112471477D01*
X73848635Y-112474542D01*
X73859192Y-112477968D01*
X73869693Y-112481755D01*
X73880140Y-112485902D01*
X73890530Y-112490410D01*
X73900866Y-112495279D01*
X73911146Y-112500508D01*
X73921371Y-112506098D01*
X73931391Y-112511996D01*
X73941120Y-112518211D01*
X73950557Y-112524743D01*
X73959702Y-112531591D01*
X73968554Y-112538756D01*
X73977115Y-112546238D01*
X73985384Y-112554037D01*
X73993361Y-112562152D01*
X74001046Y-112570584D01*
X74008440Y-112579333D01*
X74015541Y-112588398D01*
X74022350Y-112597781D01*
X74028867Y-112607480D01*
X74035093Y-112617496D01*
X74041026Y-112627828D01*
X74046667Y-112638478D01*
X74051991Y-112649498D01*
X74056971Y-112660944D01*
X74061608Y-112672816D01*
X74065901Y-112685113D01*
X74069851Y-112697835D01*
X74073458Y-112710984D01*
X74076721Y-112724557D01*
X74079640Y-112738556D01*
X74082216Y-112752981D01*
X74084449Y-112767831D01*
X74086338Y-112783107D01*
X74087883Y-112798808D01*
X74089085Y-112814935D01*
X74089944Y-112831487D01*
X74090459Y-112848465D01*
X74090631Y-112865868D01*
X74090506Y-112882800D01*
X74090131Y-112899280D01*
X74089506Y-112915307D01*
X74088631Y-112930882D01*
X74087506Y-112946005D01*
X74086132Y-112960676D01*
X74084507Y-112974895D01*
X74082632Y-112988661D01*
X74080507Y-113001975D01*
X74078133Y-113014837D01*
X74075508Y-113027247D01*
X74072633Y-113039204D01*
X74069509Y-113050709D01*
X74066134Y-113061762D01*
X74062510Y-113072363D01*
X74058635Y-113082511D01*
X74054490Y-113092324D01*
X74050113Y-113101917D01*
X74045506Y-113111291D01*
X74040668Y-113120445D01*
X74035599Y-113129380D01*
X74030299Y-113138096D01*
X74024768Y-113146592D01*
X74019007Y-113154868D01*
X74013014Y-113162925D01*
X74006791Y-113170763D01*
X74000337Y-113178381D01*
X73993651Y-113185780D01*
X73986735Y-113192960D01*
X73979588Y-113199920D01*
X73972210Y-113206660D01*
X73964602Y-113213181D01*
X73956724Y-113219470D01*
X73948600Y-113225573D01*
X73940230Y-113231491D01*
X73931614Y-113237224D01*
X73922751Y-113242772D01*
X73913643Y-113248135D01*
X73904288Y-113253312D01*
X73894687Y-113258305D01*
X73884840Y-113263113D01*
X73874747Y-113267735D01*
X73864408Y-113272173D01*
X73853822Y-113276425D01*
X73842991Y-113280492D01*
X73831913Y-113284374D01*
X73820589Y-113288071D01*
X73809019Y-113291583D01*
X73778000Y-113012169D01*
X73790855Y-113008940D01*
X73802950Y-113005389D01*
X73814285Y-113001515D01*
X73824860Y-112997320D01*
X73834676Y-112992803D01*
X73843731Y-112987964D01*
X73852027Y-112982802D01*
X73861905Y-112975420D01*
X73870433Y-112967465D01*
X73875942Y-112961123D01*
X73882296Y-112952101D01*
X73887803Y-112942499D01*
X73892462Y-112932317D01*
X73896275Y-112921555D01*
X73899240Y-112910213D01*
X73901358Y-112898291D01*
X73902629Y-112885789D01*
X73903053Y-112872707D01*
X73902711Y-112862339D01*
X73901687Y-112852302D01*
X73899981Y-112842595D01*
X73896643Y-112830168D01*
X73892092Y-112818328D01*
X73886328Y-112807075D01*
X73879350Y-112796411D01*
X73871158Y-112786334D01*
X73864218Y-112779162D01*
X73856665Y-112772440D01*
X73848662Y-112766379D01*
X73840207Y-112760979D01*
X73831302Y-112756241D01*
X73821946Y-112752164D01*
X73812140Y-112748748D01*
X73801882Y-112745993D01*
X73791174Y-112743899D01*
X73780015Y-112742467D01*
X73768405Y-112741695D01*
X73760415Y-112741548D01*
X73748268Y-112741866D01*
X73736650Y-112742819D01*
X73725559Y-112744408D01*
X73714997Y-112746632D01*
X73704963Y-112749491D01*
X73695457Y-112752986D01*
X73686479Y-112757116D01*
X73675329Y-112763611D01*
X73665119Y-112771236D01*
X73658077Y-112777696D01*
X73649548Y-112787077D01*
X73642155Y-112797266D01*
X73635900Y-112808265D01*
X73630783Y-112820072D01*
X73627691Y-112829459D01*
X73625239Y-112839301D01*
X73623426Y-112849598D01*
X73622253Y-112860350D01*
X73621720Y-112871557D01*
X73621685Y-112875393D01*
X73622066Y-112886300D01*
X73623211Y-112898410D01*
X73624677Y-112908966D01*
X73626631Y-112920293D01*
X73629073Y-112932391D01*
X73631226Y-112941970D01*
X73633653Y-112951983D01*
X73636355Y-112962429D01*
X73637316Y-112966007D01*
X73431175Y-112951597D01*
X73432317Y-112941841D01*
X73433279Y-112931923D01*
X73433966Y-112921371D01*
X73434106Y-112915205D01*
X73433842Y-112905062D01*
X73433050Y-112895241D01*
X73431172Y-112882647D01*
X73428356Y-112870626D01*
X73424601Y-112859177D01*
X73419907Y-112848301D01*
X73414274Y-112837997D01*
X73407702Y-112828265D01*
X73404064Y-112823614D01*
X73396382Y-112814970D01*
X73388357Y-112807479D01*
X73379987Y-112801140D01*
X73371275Y-112795953D01*
X73362219Y-112791920D01*
X73352819Y-112789038D01*
X73343076Y-112787309D01*
X73332990Y-112786733D01*
X73321089Y-112787407D01*
X73309963Y-112789428D01*
X73299613Y-112792798D01*
X73290037Y-112797514D01*
X73281237Y-112803579D01*
X73273212Y-112810991D01*
X73270219Y-112814333D01*
X73263394Y-112823388D01*
X73257726Y-112833457D01*
X73253214Y-112844540D01*
X73250438Y-112854136D01*
X73248402Y-112864381D01*
X73247106Y-112875274D01*
X73246551Y-112886817D01*
X73246528Y-112889804D01*
X73246963Y-112901909D01*
X73248268Y-112913434D01*
X73250443Y-112924379D01*
X73253489Y-112934744D01*
X73257404Y-112944529D01*
X73262190Y-112953734D01*
X73267846Y-112962359D01*
X73274371Y-112970404D01*
X73281928Y-112977788D01*
X73290797Y-112984555D01*
X73300979Y-112990703D01*
X73312473Y-112996233D01*
X73321956Y-112999974D01*
X73332177Y-113003368D01*
X73343136Y-113006414D01*
X73354834Y-113009113D01*
X73367271Y-113011463D01*
X73371580Y-113012169D01*
G37*
G36*
X73074581Y-112404737D02*
G01*
X73074581Y-112079162D01*
X73794609Y-111852504D01*
X73074581Y-111629266D01*
X73074581Y-111313216D01*
X74075000Y-111686908D01*
X74075000Y-112024207D01*
X73074581Y-112404737D01*
G37*
G36*
X102649949Y-124268075D02*
G01*
X103666000Y-124268075D01*
X103666000Y-124551152D01*
X103000682Y-124551152D01*
X103007258Y-124559714D01*
X103013676Y-124568242D01*
X103019936Y-124576735D01*
X103026037Y-124585194D01*
X103031980Y-124593618D01*
X103037765Y-124602008D01*
X103043391Y-124610364D01*
X103048859Y-124618685D01*
X103054168Y-124626972D01*
X103061835Y-124639339D01*
X103069146Y-124651628D01*
X103076101Y-124663839D01*
X103082699Y-124675974D01*
X103086900Y-124684020D01*
X103093058Y-124696350D01*
X103099170Y-124709251D01*
X103103218Y-124718169D01*
X103107245Y-124727340D01*
X103111251Y-124736765D01*
X103115237Y-124746444D01*
X103119201Y-124756377D01*
X103123144Y-124766564D01*
X103127066Y-124777004D01*
X103130967Y-124787699D01*
X103134848Y-124798647D01*
X103138707Y-124809848D01*
X103142545Y-124821304D01*
X103146362Y-124833013D01*
X103150159Y-124844976D01*
X102915685Y-124844976D01*
X102909966Y-124827366D01*
X102904103Y-124810256D01*
X102898097Y-124793645D01*
X102891948Y-124777535D01*
X102885656Y-124761924D01*
X102879221Y-124746814D01*
X102872642Y-124732203D01*
X102865921Y-124718092D01*
X102859056Y-124704481D01*
X102852049Y-124691371D01*
X102844898Y-124678760D01*
X102837604Y-124666649D01*
X102830167Y-124655037D01*
X102822587Y-124643926D01*
X102814864Y-124633315D01*
X102806997Y-124623204D01*
X102798914Y-124613476D01*
X102790599Y-124604016D01*
X102782053Y-124594822D01*
X102773277Y-124585896D01*
X102764269Y-124577237D01*
X102755031Y-124568845D01*
X102745562Y-124560720D01*
X102735862Y-124552862D01*
X102725931Y-124545271D01*
X102715769Y-124537948D01*
X102705376Y-124530892D01*
X102694753Y-124524102D01*
X102683898Y-124517580D01*
X102672813Y-124511325D01*
X102661496Y-124505338D01*
X102649949Y-124499617D01*
X102649949Y-124268075D01*
G37*
G36*
X103175051Y-123146114D02*
G01*
X103191600Y-123146386D01*
X103207864Y-123146839D01*
X103223844Y-123147473D01*
X103239539Y-123148289D01*
X103254950Y-123149286D01*
X103270077Y-123150464D01*
X103284920Y-123151824D01*
X103299478Y-123153365D01*
X103313752Y-123155087D01*
X103327741Y-123156990D01*
X103341447Y-123159075D01*
X103354868Y-123161341D01*
X103368004Y-123163788D01*
X103380856Y-123166416D01*
X103393424Y-123169226D01*
X103405708Y-123172217D01*
X103417708Y-123175390D01*
X103429423Y-123178743D01*
X103440853Y-123182278D01*
X103452000Y-123185994D01*
X103462862Y-123189891D01*
X103473440Y-123193970D01*
X103483733Y-123198230D01*
X103493742Y-123202671D01*
X103503467Y-123207294D01*
X103512908Y-123212097D01*
X103522064Y-123217083D01*
X103530936Y-123222249D01*
X103539524Y-123227596D01*
X103547827Y-123233125D01*
X103555846Y-123238835D01*
X103571078Y-123250960D01*
X103585327Y-123264130D01*
X103598593Y-123278345D01*
X103604858Y-123285845D01*
X103610877Y-123293607D01*
X103616650Y-123301630D01*
X103622178Y-123309914D01*
X103627460Y-123318460D01*
X103632496Y-123327267D01*
X103637287Y-123336335D01*
X103641832Y-123345665D01*
X103646131Y-123355256D01*
X103650185Y-123365109D01*
X103653993Y-123375223D01*
X103657555Y-123385599D01*
X103660872Y-123396236D01*
X103663943Y-123407134D01*
X103666768Y-123418294D01*
X103669347Y-123429715D01*
X103671681Y-123441398D01*
X103673769Y-123453342D01*
X103675612Y-123465547D01*
X103677209Y-123478014D01*
X103678560Y-123490742D01*
X103679666Y-123503732D01*
X103680526Y-123516983D01*
X103681140Y-123530496D01*
X103681508Y-123544270D01*
X103681631Y-123558305D01*
X103681475Y-123573991D01*
X103681005Y-123589297D01*
X103680223Y-123604224D01*
X103679128Y-123618770D01*
X103677719Y-123632937D01*
X103675998Y-123646725D01*
X103673964Y-123660132D01*
X103671617Y-123673160D01*
X103668957Y-123685808D01*
X103665984Y-123698077D01*
X103662698Y-123709966D01*
X103659100Y-123721475D01*
X103655188Y-123732604D01*
X103650963Y-123743353D01*
X103646426Y-123753723D01*
X103641575Y-123763713D01*
X103636393Y-123773403D01*
X103630920Y-123782871D01*
X103625158Y-123792118D01*
X103619105Y-123801143D01*
X103612762Y-123809948D01*
X103606129Y-123818531D01*
X103599207Y-123826892D01*
X103591994Y-123835032D01*
X103584491Y-123842951D01*
X103576698Y-123850648D01*
X103568615Y-123858125D01*
X103560242Y-123865379D01*
X103551579Y-123872413D01*
X103542626Y-123879225D01*
X103533383Y-123885816D01*
X103523850Y-123892185D01*
X103513146Y-123898867D01*
X103501734Y-123905265D01*
X103489613Y-123911380D01*
X103476784Y-123917212D01*
X103463246Y-123922761D01*
X103453828Y-123926302D01*
X103444094Y-123929718D01*
X103434046Y-123933007D01*
X103423683Y-123936171D01*
X103413005Y-123939209D01*
X103402012Y-123942121D01*
X103390704Y-123944907D01*
X103379082Y-123947567D01*
X103373152Y-123948849D01*
X103361106Y-123951304D01*
X103348904Y-123953601D01*
X103336545Y-123955739D01*
X103324029Y-123957718D01*
X103311357Y-123959540D01*
X103298529Y-123961203D01*
X103285544Y-123962707D01*
X103272402Y-123964053D01*
X103259104Y-123965241D01*
X103245650Y-123966271D01*
X103232039Y-123967142D01*
X103218272Y-123967855D01*
X103204348Y-123968409D01*
X103190268Y-123968805D01*
X103176031Y-123969042D01*
X103161638Y-123969122D01*
X103144036Y-123969021D01*
X103126768Y-123968718D01*
X103109833Y-123968213D01*
X103093231Y-123967507D01*
X103076963Y-123966599D01*
X103061028Y-123965489D01*
X103045427Y-123964178D01*
X103030159Y-123962664D01*
X103015225Y-123960949D01*
X103000624Y-123959032D01*
X102986356Y-123956913D01*
X102972422Y-123954593D01*
X102958822Y-123952071D01*
X102945555Y-123949346D01*
X102932621Y-123946421D01*
X102920021Y-123943293D01*
X102907754Y-123939963D01*
X102895821Y-123936432D01*
X102884221Y-123932699D01*
X102872954Y-123928764D01*
X102862021Y-123924628D01*
X102851422Y-123920289D01*
X102841156Y-123915749D01*
X102831223Y-123911007D01*
X102821624Y-123906063D01*
X102812358Y-123900918D01*
X102803426Y-123895570D01*
X102794827Y-123890021D01*
X102786562Y-123884270D01*
X102778630Y-123878318D01*
X102771031Y-123872163D01*
X102763766Y-123865807D01*
X102749984Y-123852440D01*
X102737091Y-123838230D01*
X102725086Y-123823177D01*
X102713971Y-123807280D01*
X102708747Y-123799015D01*
X102703746Y-123790540D01*
X102698966Y-123781854D01*
X102694409Y-123772956D01*
X102690074Y-123763848D01*
X102685962Y-123754529D01*
X102682071Y-123745000D01*
X102678404Y-123735259D01*
X102674958Y-123725308D01*
X102671735Y-123715145D01*
X102668734Y-123704772D01*
X102665955Y-123694188D01*
X102663398Y-123683393D01*
X102661064Y-123672387D01*
X102658952Y-123661171D01*
X102657063Y-123649743D01*
X102655396Y-123638105D01*
X102653951Y-123626256D01*
X102652728Y-123614196D01*
X102651728Y-123601925D01*
X102650950Y-123589444D01*
X102650394Y-123576751D01*
X102650060Y-123563848D01*
X102650030Y-123560259D01*
X102837528Y-123560259D01*
X102838140Y-123572928D01*
X102839975Y-123584923D01*
X102843034Y-123596244D01*
X102847317Y-123606890D01*
X102852823Y-123616863D01*
X102859553Y-123626162D01*
X102867506Y-123634786D01*
X102876683Y-123642737D01*
X102887084Y-123650013D01*
X102898708Y-123656616D01*
X102907137Y-123660643D01*
X102916301Y-123664369D01*
X102926390Y-123667856D01*
X102937405Y-123671101D01*
X102949345Y-123674107D01*
X102962211Y-123676872D01*
X102976002Y-123679396D01*
X102990719Y-123681680D01*
X103006361Y-123683724D01*
X103022928Y-123685527D01*
X103040421Y-123687090D01*
X103058839Y-123688412D01*
X103078183Y-123689494D01*
X103088202Y-123689945D01*
X103098453Y-123690335D01*
X103108934Y-123690666D01*
X103119647Y-123690937D01*
X103130592Y-123691147D01*
X103141768Y-123691297D01*
X103153175Y-123691387D01*
X103164813Y-123691417D01*
X103176572Y-123691384D01*
X103188095Y-123691285D01*
X103199384Y-123691119D01*
X103210437Y-123690887D01*
X103221255Y-123690589D01*
X103231838Y-123690224D01*
X103242185Y-123689793D01*
X103252298Y-123689296D01*
X103262175Y-123688732D01*
X103281224Y-123687406D01*
X103299333Y-123685814D01*
X103316500Y-123683958D01*
X103332727Y-123681836D01*
X103348013Y-123679449D01*
X103362359Y-123676796D01*
X103375763Y-123673879D01*
X103388227Y-123670696D01*
X103399751Y-123667248D01*
X103410333Y-123663535D01*
X103419975Y-123659556D01*
X103424443Y-123657468D01*
X103436883Y-123650832D01*
X103448100Y-123643655D01*
X103458092Y-123635937D01*
X103466861Y-123627678D01*
X103474407Y-123618878D01*
X103480729Y-123609537D01*
X103485827Y-123599655D01*
X103489702Y-123589232D01*
X103492353Y-123578269D01*
X103493781Y-123566764D01*
X103494053Y-123558794D01*
X103493591Y-123548345D01*
X103492205Y-123538247D01*
X103489897Y-123528500D01*
X103486664Y-123519104D01*
X103482508Y-123510059D01*
X103477429Y-123501366D01*
X103471426Y-123493024D01*
X103464499Y-123485032D01*
X103456577Y-123477476D01*
X103447585Y-123470439D01*
X103437526Y-123463920D01*
X103426397Y-123457921D01*
X103417350Y-123453762D01*
X103407701Y-123449896D01*
X103397452Y-123446321D01*
X103386601Y-123443038D01*
X103375149Y-123440047D01*
X103371198Y-123439115D01*
X103358617Y-123436452D01*
X103344777Y-123434051D01*
X103334852Y-123432596D01*
X103324368Y-123431258D01*
X103313324Y-123430036D01*
X103301722Y-123428930D01*
X103289560Y-123427940D01*
X103276840Y-123427067D01*
X103263560Y-123426311D01*
X103249721Y-123425671D01*
X103235323Y-123425147D01*
X103220366Y-123424740D01*
X103204850Y-123424449D01*
X103188775Y-123424274D01*
X103172140Y-123424216D01*
X103159887Y-123424249D01*
X103147888Y-123424348D01*
X103136142Y-123424514D01*
X103124650Y-123424746D01*
X103113412Y-123425045D01*
X103102428Y-123425409D01*
X103091698Y-123425840D01*
X103081221Y-123426338D01*
X103070998Y-123426901D01*
X103061029Y-123427531D01*
X103041852Y-123428990D01*
X103023690Y-123430714D01*
X103006544Y-123432703D01*
X102990412Y-123434958D01*
X102975296Y-123437477D01*
X102961195Y-123440262D01*
X102948109Y-123443312D01*
X102936038Y-123446628D01*
X102924982Y-123450209D01*
X102914941Y-123454054D01*
X102905916Y-123458165D01*
X102893694Y-123464832D01*
X102882675Y-123472099D01*
X102872857Y-123479967D01*
X102864242Y-123488436D01*
X102856829Y-123497507D01*
X102850618Y-123507178D01*
X102845609Y-123517451D01*
X102841802Y-123528324D01*
X102839197Y-123539799D01*
X102837795Y-123551875D01*
X102837528Y-123560259D01*
X102650030Y-123560259D01*
X102649949Y-123550734D01*
X102650047Y-123538175D01*
X102650339Y-123525901D01*
X102650825Y-123513911D01*
X102651506Y-123502206D01*
X102652382Y-123490784D01*
X102653453Y-123479647D01*
X102654718Y-123468795D01*
X102656177Y-123458227D01*
X102657832Y-123447943D01*
X102659681Y-123437943D01*
X102661724Y-123428228D01*
X102665155Y-123414188D01*
X102669023Y-123400787D01*
X102673329Y-123388027D01*
X102674862Y-123383916D01*
X102679620Y-123371857D01*
X102684645Y-123360228D01*
X102689936Y-123349028D01*
X102695493Y-123338258D01*
X102701316Y-123327916D01*
X102707405Y-123318004D01*
X102713761Y-123308522D01*
X102720383Y-123299469D01*
X102727271Y-123290845D01*
X102734425Y-123282650D01*
X102739342Y-123277426D01*
X102746843Y-123269841D01*
X102754417Y-123262565D01*
X102762065Y-123255598D01*
X102769785Y-123248941D01*
X102777578Y-123242593D01*
X102785444Y-123236553D01*
X102793383Y-123230823D01*
X102804082Y-123223664D01*
X102814911Y-123217054D01*
X102823117Y-123212457D01*
X102834334Y-123206622D01*
X102846000Y-123201085D01*
X102855045Y-123197127D01*
X102864344Y-123193337D01*
X102873896Y-123189714D01*
X102883701Y-123186258D01*
X102893760Y-123182970D01*
X102904072Y-123179850D01*
X102914637Y-123176897D01*
X102925455Y-123174111D01*
X102939445Y-123170710D01*
X102953509Y-123167528D01*
X102967647Y-123164566D01*
X102981860Y-123161823D01*
X102996147Y-123159299D01*
X103010509Y-123156995D01*
X103024945Y-123154910D01*
X103039456Y-123153045D01*
X103054040Y-123151399D01*
X103068700Y-123149973D01*
X103083434Y-123148766D01*
X103098242Y-123147779D01*
X103113124Y-123147011D01*
X103128081Y-123146462D01*
X103143113Y-123146133D01*
X103158219Y-123146023D01*
X103175051Y-123146114D01*
G37*
G36*
X102665581Y-122989219D02*
G01*
X102665581Y-122678054D01*
X103043669Y-122678054D01*
X102665581Y-122351745D01*
X102665581Y-121938242D01*
X103042936Y-122305095D01*
X103666000Y-121921878D01*
X103666000Y-122305095D01*
X103254450Y-122517342D01*
X103421757Y-122678054D01*
X103666000Y-122678054D01*
X103666000Y-122989219D01*
X102665581Y-122989219D01*
G37*
G36*
X99406580Y-124630775D02*
G01*
X99362616Y-124895290D01*
X99346582Y-124890931D01*
X99331025Y-124886097D01*
X99315945Y-124880788D01*
X99301342Y-124875003D01*
X99287216Y-124868743D01*
X99273567Y-124862008D01*
X99260395Y-124854799D01*
X99247700Y-124847113D01*
X99235482Y-124838953D01*
X99223741Y-124830318D01*
X99212478Y-124821208D01*
X99201691Y-124811622D01*
X99191381Y-124801561D01*
X99181548Y-124791025D01*
X99172193Y-124780014D01*
X99163314Y-124768528D01*
X99154915Y-124756500D01*
X99147057Y-124743864D01*
X99139741Y-124730618D01*
X99132967Y-124716764D01*
X99126735Y-124702301D01*
X99121045Y-124687230D01*
X99115897Y-124671550D01*
X99111290Y-124655261D01*
X99107226Y-124638363D01*
X99103704Y-124620857D01*
X99100723Y-124602742D01*
X99098285Y-124584018D01*
X99096388Y-124564686D01*
X99095643Y-124554791D01*
X99095033Y-124544745D01*
X99094559Y-124534546D01*
X99094220Y-124524195D01*
X99094017Y-124513692D01*
X99093949Y-124503036D01*
X99094019Y-124490809D01*
X99094228Y-124478795D01*
X99094576Y-124466995D01*
X99095064Y-124455409D01*
X99095690Y-124444036D01*
X99096457Y-124432878D01*
X99097362Y-124421932D01*
X99098407Y-124411201D01*
X99099591Y-124400683D01*
X99100914Y-124390379D01*
X99102377Y-124380289D01*
X99103978Y-124370413D01*
X99105720Y-124360750D01*
X99109620Y-124342065D01*
X99114077Y-124324235D01*
X99119092Y-124307260D01*
X99124664Y-124291140D01*
X99130793Y-124275875D01*
X99137479Y-124261465D01*
X99144722Y-124247909D01*
X99152523Y-124235209D01*
X99160880Y-124223363D01*
X99165268Y-124217761D01*
X99174297Y-124207113D01*
X99183613Y-124197153D01*
X99193218Y-124187879D01*
X99203111Y-124179292D01*
X99213291Y-124171393D01*
X99223761Y-124164180D01*
X99234518Y-124157654D01*
X99245563Y-124151815D01*
X99256896Y-124146663D01*
X99268518Y-124142198D01*
X99280428Y-124138420D01*
X99292626Y-124135329D01*
X99305112Y-124132925D01*
X99317886Y-124131207D01*
X99330948Y-124130177D01*
X99344298Y-124129833D01*
X99356010Y-124130149D01*
X99367517Y-124131096D01*
X99378817Y-124132673D01*
X99389911Y-124134882D01*
X99400798Y-124137722D01*
X99411480Y-124141193D01*
X99421956Y-124145296D01*
X99432226Y-124150029D01*
X99442289Y-124155394D01*
X99452147Y-124161389D01*
X99458604Y-124165737D01*
X99468109Y-124172743D01*
X99477391Y-124180389D01*
X99486450Y-124188674D01*
X99495286Y-124197599D01*
X99503898Y-124207164D01*
X99512288Y-124217369D01*
X99520454Y-124228213D01*
X99528396Y-124239697D01*
X99536116Y-124251820D01*
X99541138Y-124260258D01*
X99546061Y-124268980D01*
X99548485Y-124273448D01*
X99551274Y-124262746D01*
X99554144Y-124252528D01*
X99557095Y-124242796D01*
X99561158Y-124230574D01*
X99565365Y-124219215D01*
X99569718Y-124208718D01*
X99574215Y-124199084D01*
X99578858Y-124190312D01*
X99582435Y-124184299D01*
X99588471Y-124175107D01*
X99594854Y-124166305D01*
X99601585Y-124157893D01*
X99608664Y-124149873D01*
X99616091Y-124142243D01*
X99623866Y-124135003D01*
X99631988Y-124128155D01*
X99640458Y-124121697D01*
X99649276Y-124115630D01*
X99658441Y-124109953D01*
X99664745Y-124106386D01*
X99674444Y-124101410D01*
X99684491Y-124096923D01*
X99694886Y-124092926D01*
X99705629Y-124089419D01*
X99716719Y-124086401D01*
X99728157Y-124083872D01*
X99739943Y-124081832D01*
X99752077Y-124080283D01*
X99764558Y-124079222D01*
X99777387Y-124078651D01*
X99786133Y-124078542D01*
X99797188Y-124078723D01*
X99808188Y-124079264D01*
X99819132Y-124080165D01*
X99830021Y-124081427D01*
X99840854Y-124083050D01*
X99851633Y-124085034D01*
X99862355Y-124087378D01*
X99873023Y-124090083D01*
X99883635Y-124093148D01*
X99894192Y-124096574D01*
X99904693Y-124100361D01*
X99915140Y-124104508D01*
X99925530Y-124109016D01*
X99935866Y-124113885D01*
X99946146Y-124119114D01*
X99956371Y-124124704D01*
X99966391Y-124130602D01*
X99976120Y-124136817D01*
X99985557Y-124143349D01*
X99994702Y-124150197D01*
X100003554Y-124157362D01*
X100012115Y-124164844D01*
X100020384Y-124172643D01*
X100028361Y-124180758D01*
X100036046Y-124189190D01*
X100043440Y-124197939D01*
X100050541Y-124207005D01*
X100057350Y-124216387D01*
X100063867Y-124226086D01*
X100070093Y-124236102D01*
X100076026Y-124246434D01*
X100081667Y-124257084D01*
X100086991Y-124268104D01*
X100091971Y-124279550D01*
X100096608Y-124291422D01*
X100100901Y-124303719D01*
X100104851Y-124316442D01*
X100108458Y-124329590D01*
X100111721Y-124343163D01*
X100114640Y-124357162D01*
X100117216Y-124371587D01*
X100119449Y-124386437D01*
X100121338Y-124401713D01*
X100122883Y-124417414D01*
X100124085Y-124433541D01*
X100124944Y-124450093D01*
X100125459Y-124467071D01*
X100125631Y-124484474D01*
X100125506Y-124501406D01*
X100125131Y-124517886D01*
X100124506Y-124533913D01*
X100123631Y-124549488D01*
X100122506Y-124564611D01*
X100121132Y-124579282D01*
X100119507Y-124593501D01*
X100117632Y-124607267D01*
X100115507Y-124620581D01*
X100113133Y-124633443D01*
X100110508Y-124645853D01*
X100107633Y-124657810D01*
X100104509Y-124669315D01*
X100101134Y-124680368D01*
X100097510Y-124690969D01*
X100093635Y-124701117D01*
X100089490Y-124710930D01*
X100085113Y-124720523D01*
X100080506Y-124729897D01*
X100075668Y-124739051D01*
X100070599Y-124747986D01*
X100065299Y-124756702D01*
X100059768Y-124765198D01*
X100054007Y-124773474D01*
X100048014Y-124781531D01*
X100041791Y-124789369D01*
X100035337Y-124796987D01*
X100028651Y-124804386D01*
X100021735Y-124811566D01*
X100014588Y-124818526D01*
X100007210Y-124825266D01*
X99999602Y-124831787D01*
X99991724Y-124838076D01*
X99983600Y-124844179D01*
X99975230Y-124850097D01*
X99966614Y-124855830D01*
X99957751Y-124861378D01*
X99948643Y-124866741D01*
X99939288Y-124871918D01*
X99929687Y-124876911D01*
X99919840Y-124881719D01*
X99909747Y-124886341D01*
X99899408Y-124890779D01*
X99888822Y-124895031D01*
X99877991Y-124899098D01*
X99866913Y-124902980D01*
X99855589Y-124906677D01*
X99844019Y-124910189D01*
X99813000Y-124630775D01*
X99825855Y-124627546D01*
X99837950Y-124623995D01*
X99849285Y-124620121D01*
X99859860Y-124615926D01*
X99869676Y-124611409D01*
X99878731Y-124606570D01*
X99887027Y-124601408D01*
X99896905Y-124594026D01*
X99905433Y-124586071D01*
X99910942Y-124579729D01*
X99917296Y-124570707D01*
X99922803Y-124561105D01*
X99927462Y-124550923D01*
X99931275Y-124540161D01*
X99934240Y-124528819D01*
X99936358Y-124516897D01*
X99937629Y-124504395D01*
X99938053Y-124491313D01*
X99937711Y-124480945D01*
X99936687Y-124470908D01*
X99934981Y-124461201D01*
X99931643Y-124448774D01*
X99927092Y-124436934D01*
X99921328Y-124425681D01*
X99914350Y-124415017D01*
X99906158Y-124404940D01*
X99899218Y-124397768D01*
X99891665Y-124391046D01*
X99883662Y-124384985D01*
X99875207Y-124379585D01*
X99866302Y-124374847D01*
X99856946Y-124370770D01*
X99847140Y-124367354D01*
X99836882Y-124364599D01*
X99826174Y-124362505D01*
X99815015Y-124361073D01*
X99803405Y-124360301D01*
X99795415Y-124360154D01*
X99783268Y-124360472D01*
X99771650Y-124361425D01*
X99760559Y-124363014D01*
X99749997Y-124365238D01*
X99739963Y-124368097D01*
X99730457Y-124371592D01*
X99721479Y-124375722D01*
X99710329Y-124382217D01*
X99700119Y-124389842D01*
X99693077Y-124396302D01*
X99684548Y-124405683D01*
X99677155Y-124415872D01*
X99670900Y-124426871D01*
X99665783Y-124438678D01*
X99662691Y-124448065D01*
X99660239Y-124457907D01*
X99658426Y-124468204D01*
X99657253Y-124478956D01*
X99656720Y-124490163D01*
X99656685Y-124493999D01*
X99657066Y-124504906D01*
X99658211Y-124517016D01*
X99659677Y-124527572D01*
X99661631Y-124538899D01*
X99664073Y-124550997D01*
X99666226Y-124560576D01*
X99668653Y-124570589D01*
X99671355Y-124581035D01*
X99672316Y-124584613D01*
X99466175Y-124570203D01*
X99467317Y-124560448D01*
X99468279Y-124550529D01*
X99468966Y-124539977D01*
X99469106Y-124533811D01*
X99468842Y-124523668D01*
X99468050Y-124513847D01*
X99466172Y-124501253D01*
X99463356Y-124489232D01*
X99459601Y-124477783D01*
X99454907Y-124466907D01*
X99449274Y-124456603D01*
X99442702Y-124446871D01*
X99439064Y-124442220D01*
X99431382Y-124433576D01*
X99423357Y-124426085D01*
X99414987Y-124419746D01*
X99406275Y-124414559D01*
X99397219Y-124410526D01*
X99387819Y-124407644D01*
X99378076Y-124405915D01*
X99367990Y-124405339D01*
X99356089Y-124406013D01*
X99344963Y-124408034D01*
X99334613Y-124411404D01*
X99325037Y-124416120D01*
X99316237Y-124422185D01*
X99308212Y-124429597D01*
X99305219Y-124432939D01*
X99298394Y-124441994D01*
X99292726Y-124452063D01*
X99288214Y-124463146D01*
X99285438Y-124472742D01*
X99283402Y-124482987D01*
X99282106Y-124493880D01*
X99281551Y-124505423D01*
X99281528Y-124508410D01*
X99281963Y-124520515D01*
X99283268Y-124532040D01*
X99285443Y-124542985D01*
X99288489Y-124553350D01*
X99292404Y-124563135D01*
X99297190Y-124572340D01*
X99302846Y-124580965D01*
X99309371Y-124589010D01*
X99316928Y-124596394D01*
X99325797Y-124603161D01*
X99335979Y-124609309D01*
X99347473Y-124614839D01*
X99356956Y-124618580D01*
X99367177Y-124621974D01*
X99378136Y-124625020D01*
X99389834Y-124627719D01*
X99402271Y-124630069D01*
X99406580Y-124630775D01*
G37*
G36*
X99619051Y-123146114D02*
G01*
X99635600Y-123146386D01*
X99651864Y-123146839D01*
X99667844Y-123147473D01*
X99683539Y-123148289D01*
X99698950Y-123149286D01*
X99714077Y-123150464D01*
X99728920Y-123151824D01*
X99743478Y-123153365D01*
X99757752Y-123155087D01*
X99771741Y-123156990D01*
X99785447Y-123159075D01*
X99798868Y-123161341D01*
X99812004Y-123163788D01*
X99824856Y-123166416D01*
X99837424Y-123169226D01*
X99849708Y-123172217D01*
X99861708Y-123175390D01*
X99873423Y-123178743D01*
X99884853Y-123182278D01*
X99896000Y-123185994D01*
X99906862Y-123189891D01*
X99917440Y-123193970D01*
X99927733Y-123198230D01*
X99937742Y-123202671D01*
X99947467Y-123207294D01*
X99956908Y-123212097D01*
X99966064Y-123217083D01*
X99974936Y-123222249D01*
X99983524Y-123227596D01*
X99991827Y-123233125D01*
X99999846Y-123238835D01*
X100015078Y-123250960D01*
X100029327Y-123264130D01*
X100042593Y-123278345D01*
X100048858Y-123285845D01*
X100054877Y-123293607D01*
X100060650Y-123301630D01*
X100066178Y-123309914D01*
X100071460Y-123318460D01*
X100076496Y-123327267D01*
X100081287Y-123336335D01*
X100085832Y-123345665D01*
X100090131Y-123355256D01*
X100094185Y-123365109D01*
X100097993Y-123375223D01*
X100101555Y-123385599D01*
X100104872Y-123396236D01*
X100107943Y-123407134D01*
X100110768Y-123418294D01*
X100113347Y-123429715D01*
X100115681Y-123441398D01*
X100117769Y-123453342D01*
X100119612Y-123465547D01*
X100121209Y-123478014D01*
X100122560Y-123490742D01*
X100123666Y-123503732D01*
X100124526Y-123516983D01*
X100125140Y-123530496D01*
X100125508Y-123544270D01*
X100125631Y-123558305D01*
X100125475Y-123573991D01*
X100125005Y-123589297D01*
X100124223Y-123604224D01*
X100123128Y-123618770D01*
X100121719Y-123632937D01*
X100119998Y-123646725D01*
X100117964Y-123660132D01*
X100115617Y-123673160D01*
X100112957Y-123685808D01*
X100109984Y-123698077D01*
X100106698Y-123709966D01*
X100103100Y-123721475D01*
X100099188Y-123732604D01*
X100094963Y-123743353D01*
X100090426Y-123753723D01*
X100085575Y-123763713D01*
X100080393Y-123773403D01*
X100074920Y-123782871D01*
X100069158Y-123792118D01*
X100063105Y-123801143D01*
X100056762Y-123809948D01*
X100050129Y-123818531D01*
X100043207Y-123826892D01*
X100035994Y-123835032D01*
X100028491Y-123842951D01*
X100020698Y-123850648D01*
X100012615Y-123858125D01*
X100004242Y-123865379D01*
X99995579Y-123872413D01*
X99986626Y-123879225D01*
X99977383Y-123885816D01*
X99967850Y-123892185D01*
X99957146Y-123898867D01*
X99945734Y-123905265D01*
X99933613Y-123911380D01*
X99920784Y-123917212D01*
X99907246Y-123922761D01*
X99897828Y-123926302D01*
X99888094Y-123929718D01*
X99878046Y-123933007D01*
X99867683Y-123936171D01*
X99857005Y-123939209D01*
X99846012Y-123942121D01*
X99834704Y-123944907D01*
X99823082Y-123947567D01*
X99817152Y-123948849D01*
X99805106Y-123951304D01*
X99792904Y-123953601D01*
X99780545Y-123955739D01*
X99768029Y-123957718D01*
X99755357Y-123959540D01*
X99742529Y-123961203D01*
X99729544Y-123962707D01*
X99716402Y-123964053D01*
X99703104Y-123965241D01*
X99689650Y-123966271D01*
X99676039Y-123967142D01*
X99662272Y-123967855D01*
X99648348Y-123968409D01*
X99634268Y-123968805D01*
X99620031Y-123969042D01*
X99605638Y-123969122D01*
X99588036Y-123969021D01*
X99570768Y-123968718D01*
X99553833Y-123968213D01*
X99537231Y-123967507D01*
X99520963Y-123966599D01*
X99505028Y-123965489D01*
X99489427Y-123964178D01*
X99474159Y-123962664D01*
X99459225Y-123960949D01*
X99444624Y-123959032D01*
X99430356Y-123956913D01*
X99416422Y-123954593D01*
X99402822Y-123952071D01*
X99389555Y-123949346D01*
X99376621Y-123946421D01*
X99364021Y-123943293D01*
X99351754Y-123939963D01*
X99339821Y-123936432D01*
X99328221Y-123932699D01*
X99316954Y-123928764D01*
X99306021Y-123924628D01*
X99295422Y-123920289D01*
X99285156Y-123915749D01*
X99275223Y-123911007D01*
X99265624Y-123906063D01*
X99256358Y-123900918D01*
X99247426Y-123895570D01*
X99238827Y-123890021D01*
X99230562Y-123884270D01*
X99222630Y-123878318D01*
X99215031Y-123872163D01*
X99207766Y-123865807D01*
X99193984Y-123852440D01*
X99181091Y-123838230D01*
X99169086Y-123823177D01*
X99157971Y-123807280D01*
X99152747Y-123799015D01*
X99147746Y-123790540D01*
X99142966Y-123781854D01*
X99138409Y-123772956D01*
X99134074Y-123763848D01*
X99129962Y-123754529D01*
X99126071Y-123745000D01*
X99122404Y-123735259D01*
X99118958Y-123725308D01*
X99115735Y-123715145D01*
X99112734Y-123704772D01*
X99109955Y-123694188D01*
X99107398Y-123683393D01*
X99105064Y-123672387D01*
X99102952Y-123661171D01*
X99101063Y-123649743D01*
X99099396Y-123638105D01*
X99097951Y-123626256D01*
X99096728Y-123614196D01*
X99095728Y-123601925D01*
X99094950Y-123589444D01*
X99094394Y-123576751D01*
X99094060Y-123563848D01*
X99094030Y-123560259D01*
X99281528Y-123560259D01*
X99282140Y-123572928D01*
X99283975Y-123584923D01*
X99287034Y-123596244D01*
X99291317Y-123606890D01*
X99296823Y-123616863D01*
X99303553Y-123626162D01*
X99311506Y-123634786D01*
X99320683Y-123642737D01*
X99331084Y-123650013D01*
X99342708Y-123656616D01*
X99351137Y-123660643D01*
X99360301Y-123664369D01*
X99370390Y-123667856D01*
X99381405Y-123671101D01*
X99393345Y-123674107D01*
X99406211Y-123676872D01*
X99420002Y-123679396D01*
X99434719Y-123681680D01*
X99450361Y-123683724D01*
X99466928Y-123685527D01*
X99484421Y-123687090D01*
X99502839Y-123688412D01*
X99522183Y-123689494D01*
X99532202Y-123689945D01*
X99542453Y-123690335D01*
X99552934Y-123690666D01*
X99563647Y-123690937D01*
X99574592Y-123691147D01*
X99585768Y-123691297D01*
X99597175Y-123691387D01*
X99608813Y-123691417D01*
X99620572Y-123691384D01*
X99632095Y-123691285D01*
X99643384Y-123691119D01*
X99654437Y-123690887D01*
X99665255Y-123690589D01*
X99675838Y-123690224D01*
X99686185Y-123689793D01*
X99696298Y-123689296D01*
X99706175Y-123688732D01*
X99725224Y-123687406D01*
X99743333Y-123685814D01*
X99760500Y-123683958D01*
X99776727Y-123681836D01*
X99792013Y-123679449D01*
X99806359Y-123676796D01*
X99819763Y-123673879D01*
X99832227Y-123670696D01*
X99843751Y-123667248D01*
X99854333Y-123663535D01*
X99863975Y-123659556D01*
X99868443Y-123657468D01*
X99880883Y-123650832D01*
X99892100Y-123643655D01*
X99902092Y-123635937D01*
X99910861Y-123627678D01*
X99918407Y-123618878D01*
X99924729Y-123609537D01*
X99929827Y-123599655D01*
X99933702Y-123589232D01*
X99936353Y-123578269D01*
X99937781Y-123566764D01*
X99938053Y-123558794D01*
X99937591Y-123548345D01*
X99936205Y-123538247D01*
X99933897Y-123528500D01*
X99930664Y-123519104D01*
X99926508Y-123510059D01*
X99921429Y-123501366D01*
X99915426Y-123493024D01*
X99908499Y-123485032D01*
X99900577Y-123477476D01*
X99891585Y-123470439D01*
X99881526Y-123463920D01*
X99870397Y-123457921D01*
X99861350Y-123453762D01*
X99851701Y-123449896D01*
X99841452Y-123446321D01*
X99830601Y-123443038D01*
X99819149Y-123440047D01*
X99815198Y-123439115D01*
X99802617Y-123436452D01*
X99788777Y-123434051D01*
X99778852Y-123432596D01*
X99768368Y-123431258D01*
X99757324Y-123430036D01*
X99745722Y-123428930D01*
X99733560Y-123427940D01*
X99720840Y-123427067D01*
X99707560Y-123426311D01*
X99693721Y-123425671D01*
X99679323Y-123425147D01*
X99664366Y-123424740D01*
X99648850Y-123424449D01*
X99632775Y-123424274D01*
X99616140Y-123424216D01*
X99603887Y-123424249D01*
X99591888Y-123424348D01*
X99580142Y-123424514D01*
X99568650Y-123424746D01*
X99557412Y-123425045D01*
X99546428Y-123425409D01*
X99535698Y-123425840D01*
X99525221Y-123426338D01*
X99514998Y-123426901D01*
X99505029Y-123427531D01*
X99485852Y-123428990D01*
X99467690Y-123430714D01*
X99450544Y-123432703D01*
X99434412Y-123434958D01*
X99419296Y-123437477D01*
X99405195Y-123440262D01*
X99392109Y-123443312D01*
X99380038Y-123446628D01*
X99368982Y-123450209D01*
X99358941Y-123454054D01*
X99349916Y-123458165D01*
X99337694Y-123464832D01*
X99326675Y-123472099D01*
X99316857Y-123479967D01*
X99308242Y-123488436D01*
X99300829Y-123497507D01*
X99294618Y-123507178D01*
X99289609Y-123517451D01*
X99285802Y-123528324D01*
X99283197Y-123539799D01*
X99281795Y-123551875D01*
X99281528Y-123560259D01*
X99094030Y-123560259D01*
X99093949Y-123550734D01*
X99094047Y-123538175D01*
X99094339Y-123525901D01*
X99094825Y-123513911D01*
X99095506Y-123502206D01*
X99096382Y-123490784D01*
X99097453Y-123479647D01*
X99098718Y-123468795D01*
X99100177Y-123458227D01*
X99101832Y-123447943D01*
X99103681Y-123437943D01*
X99105724Y-123428228D01*
X99109155Y-123414188D01*
X99113023Y-123400787D01*
X99117329Y-123388027D01*
X99118862Y-123383916D01*
X99123620Y-123371857D01*
X99128645Y-123360228D01*
X99133936Y-123349028D01*
X99139493Y-123338258D01*
X99145316Y-123327916D01*
X99151405Y-123318004D01*
X99157761Y-123308522D01*
X99164383Y-123299469D01*
X99171271Y-123290845D01*
X99178425Y-123282650D01*
X99183342Y-123277426D01*
X99190843Y-123269841D01*
X99198417Y-123262565D01*
X99206065Y-123255598D01*
X99213785Y-123248941D01*
X99221578Y-123242593D01*
X99229444Y-123236553D01*
X99237383Y-123230823D01*
X99248082Y-123223664D01*
X99258911Y-123217054D01*
X99267117Y-123212457D01*
X99278334Y-123206622D01*
X99290000Y-123201085D01*
X99299045Y-123197127D01*
X99308344Y-123193337D01*
X99317896Y-123189714D01*
X99327701Y-123186258D01*
X99337760Y-123182970D01*
X99348072Y-123179850D01*
X99358637Y-123176897D01*
X99369455Y-123174111D01*
X99383445Y-123170710D01*
X99397509Y-123167528D01*
X99411647Y-123164566D01*
X99425860Y-123161823D01*
X99440147Y-123159299D01*
X99454509Y-123156995D01*
X99468945Y-123154910D01*
X99483456Y-123153045D01*
X99498040Y-123151399D01*
X99512700Y-123149973D01*
X99527434Y-123148766D01*
X99542242Y-123147779D01*
X99557124Y-123147011D01*
X99572081Y-123146462D01*
X99587113Y-123146133D01*
X99602219Y-123146023D01*
X99619051Y-123146114D01*
G37*
G36*
X99109581Y-122989219D02*
G01*
X99109581Y-122678054D01*
X99487669Y-122678054D01*
X99109581Y-122351745D01*
X99109581Y-121938242D01*
X99486936Y-122305095D01*
X100110000Y-121921878D01*
X100110000Y-122305095D01*
X99698450Y-122517342D01*
X99865757Y-122678054D01*
X100110000Y-122678054D01*
X100110000Y-122989219D01*
X99109581Y-122989219D01*
G37*
G36*
X77024581Y-109349022D02*
G01*
X77024581Y-109058373D01*
X77588293Y-108679064D01*
X77024581Y-108679064D01*
X77024581Y-108385973D01*
X78025000Y-108385973D01*
X78025000Y-108679064D01*
X77464218Y-109056419D01*
X78025000Y-109056419D01*
X78025000Y-109349022D01*
X77024581Y-109349022D01*
G37*
G36*
X77743632Y-107660083D02*
G01*
X77774895Y-107394102D01*
X77784947Y-107396961D01*
X77794831Y-107400040D01*
X77804547Y-107403342D01*
X77814096Y-107406864D01*
X77823476Y-107410608D01*
X77832689Y-107414573D01*
X77841733Y-107418759D01*
X77850610Y-107423167D01*
X77859319Y-107427796D01*
X77867860Y-107432647D01*
X77876233Y-107437719D01*
X77888477Y-107445742D01*
X77900344Y-107454262D01*
X77911833Y-107463281D01*
X77915579Y-107466398D01*
X77926475Y-107476031D01*
X77936908Y-107486153D01*
X77946877Y-107496765D01*
X77956383Y-107507866D01*
X77962462Y-107515539D01*
X77968335Y-107523429D01*
X77974002Y-107531537D01*
X77979463Y-107539862D01*
X77984719Y-107548405D01*
X77989767Y-107557165D01*
X77994610Y-107566143D01*
X77999247Y-107575338D01*
X78003678Y-107584751D01*
X78007903Y-107594381D01*
X78011866Y-107604286D01*
X78015573Y-107614520D01*
X78019025Y-107625085D01*
X78022221Y-107635979D01*
X78025162Y-107647204D01*
X78027846Y-107658759D01*
X78030276Y-107670643D01*
X78032449Y-107682858D01*
X78034367Y-107695404D01*
X78036029Y-107708279D01*
X78037435Y-107721484D01*
X78038586Y-107735020D01*
X78039480Y-107748885D01*
X78040120Y-107763081D01*
X78040503Y-107777607D01*
X78040631Y-107792462D01*
X78040546Y-107806843D01*
X78040291Y-107820921D01*
X78039867Y-107834694D01*
X78039272Y-107848165D01*
X78038508Y-107861332D01*
X78037574Y-107874196D01*
X78036470Y-107886756D01*
X78035197Y-107899013D01*
X78033753Y-107910967D01*
X78032140Y-107922617D01*
X78030357Y-107933964D01*
X78028404Y-107945007D01*
X78026281Y-107955747D01*
X78023988Y-107966184D01*
X78021526Y-107976317D01*
X78018893Y-107986147D01*
X78016071Y-107995711D01*
X78013039Y-108005106D01*
X78009797Y-108014334D01*
X78004541Y-108027861D01*
X77998812Y-108041010D01*
X77992611Y-108053781D01*
X77985938Y-108066175D01*
X77978792Y-108078190D01*
X77971174Y-108089828D01*
X77963084Y-108101088D01*
X77954522Y-108111970D01*
X77948551Y-108119015D01*
X77939290Y-108129202D01*
X77929732Y-108138973D01*
X77919878Y-108148328D01*
X77909728Y-108157266D01*
X77899282Y-108165787D01*
X77888539Y-108173892D01*
X77877500Y-108181581D01*
X77866165Y-108188853D01*
X77854534Y-108195709D01*
X77842606Y-108202148D01*
X77834490Y-108206210D01*
X77821841Y-108211840D01*
X77808441Y-108216917D01*
X77799090Y-108219994D01*
X77789405Y-108222825D01*
X77779387Y-108225410D01*
X77769034Y-108227748D01*
X77758347Y-108229840D01*
X77747327Y-108231686D01*
X77735972Y-108233286D01*
X77724284Y-108234640D01*
X77712262Y-108235748D01*
X77699906Y-108236609D01*
X77687215Y-108237225D01*
X77674191Y-108237594D01*
X77660833Y-108237717D01*
X77646846Y-108237566D01*
X77633154Y-108237114D01*
X77619758Y-108236360D01*
X77606657Y-108235305D01*
X77593853Y-108233949D01*
X77581344Y-108232290D01*
X77569131Y-108230331D01*
X77557213Y-108228070D01*
X77545592Y-108225507D01*
X77534266Y-108222643D01*
X77523236Y-108219477D01*
X77512502Y-108216010D01*
X77502063Y-108212241D01*
X77491920Y-108208171D01*
X77482073Y-108203800D01*
X77472522Y-108199127D01*
X77462273Y-108193680D01*
X77452226Y-108187872D01*
X77442381Y-108181704D01*
X77432737Y-108175176D01*
X77423296Y-108168286D01*
X77414056Y-108161036D01*
X77405017Y-108153426D01*
X77396181Y-108145454D01*
X77387546Y-108137122D01*
X77379114Y-108128430D01*
X77373604Y-108122434D01*
X77365602Y-108113252D01*
X77357990Y-108104022D01*
X77350770Y-108094745D01*
X77343940Y-108085420D01*
X77337500Y-108076049D01*
X77331452Y-108066630D01*
X77325794Y-108057164D01*
X77320527Y-108047650D01*
X77315650Y-108038090D01*
X77311164Y-108028482D01*
X77308391Y-108022051D01*
X77304309Y-108011644D01*
X77300491Y-108000878D01*
X77296936Y-107989753D01*
X77293645Y-107978270D01*
X77290617Y-107966428D01*
X77287852Y-107954228D01*
X77285350Y-107941668D01*
X77283112Y-107928750D01*
X77281137Y-107915473D01*
X77279425Y-107901837D01*
X77277977Y-107887843D01*
X77276792Y-107873490D01*
X77275870Y-107858778D01*
X77275212Y-107843708D01*
X77274817Y-107828278D01*
X77274685Y-107812490D01*
X77274748Y-107801414D01*
X77274934Y-107790504D01*
X77275246Y-107779759D01*
X77275682Y-107769179D01*
X77276242Y-107758765D01*
X77276927Y-107748517D01*
X77277736Y-107738434D01*
X77278670Y-107728517D01*
X77279728Y-107718765D01*
X77282218Y-107699758D01*
X77285206Y-107681413D01*
X77288692Y-107663730D01*
X77292677Y-107646709D01*
X77297159Y-107630351D01*
X77302139Y-107614654D01*
X77307617Y-107599620D01*
X77313594Y-107585248D01*
X77320068Y-107571538D01*
X77327041Y-107558490D01*
X77334511Y-107546104D01*
X77338433Y-107540160D01*
X77346631Y-107528654D01*
X77355289Y-107517586D01*
X77364408Y-107506955D01*
X77373985Y-107496761D01*
X77384023Y-107487003D01*
X77394521Y-107477683D01*
X77405478Y-107468800D01*
X77416896Y-107460353D01*
X77428773Y-107452344D01*
X77441110Y-107444771D01*
X77453907Y-107437636D01*
X77467164Y-107430937D01*
X77480881Y-107424676D01*
X77495057Y-107418851D01*
X77509694Y-107413463D01*
X77524790Y-107408513D01*
X77556053Y-107671562D01*
X77544753Y-107674993D01*
X77534178Y-107679057D01*
X77524328Y-107683755D01*
X77515204Y-107689087D01*
X77506804Y-107695051D01*
X77499129Y-107701650D01*
X77492180Y-107708882D01*
X77485956Y-107716747D01*
X77480403Y-107725219D01*
X77475590Y-107734394D01*
X77471518Y-107744270D01*
X77468187Y-107754849D01*
X77465596Y-107766130D01*
X77463745Y-107778113D01*
X77462634Y-107790799D01*
X77462287Y-107800773D01*
X77462264Y-107804186D01*
X77462710Y-107816960D01*
X77464050Y-107829271D01*
X77466283Y-107841117D01*
X77469408Y-107852500D01*
X77473427Y-107863420D01*
X77478338Y-107873875D01*
X77484143Y-107883867D01*
X77490840Y-107893396D01*
X77498431Y-107902460D01*
X77506915Y-107911061D01*
X77513066Y-107916538D01*
X77523006Y-107924220D01*
X77533863Y-107931147D01*
X77545640Y-107937318D01*
X77558335Y-107942733D01*
X77571950Y-107947393D01*
X77581536Y-107950079D01*
X77591531Y-107952430D01*
X77601934Y-107954445D01*
X77612746Y-107956124D01*
X77623966Y-107957468D01*
X77635594Y-107958475D01*
X77647630Y-107959147D01*
X77660075Y-107959483D01*
X77666451Y-107959525D01*
X77677728Y-107959359D01*
X77688662Y-107958860D01*
X77699252Y-107958030D01*
X77709499Y-107956868D01*
X77719402Y-107955374D01*
X77733613Y-107952511D01*
X77747051Y-107948900D01*
X77759716Y-107944542D01*
X77771609Y-107939437D01*
X77782729Y-107933586D01*
X77793076Y-107926987D01*
X77802650Y-107919641D01*
X77805669Y-107917026D01*
X77814137Y-107908808D01*
X77821772Y-107900182D01*
X77828574Y-107891148D01*
X77834544Y-107881706D01*
X77839680Y-107871857D01*
X77843983Y-107861599D01*
X77847454Y-107850934D01*
X77850091Y-107839861D01*
X77851896Y-107828380D01*
X77852867Y-107816491D01*
X77853053Y-107808338D01*
X77852816Y-107798189D01*
X77852108Y-107788348D01*
X77850429Y-107775709D01*
X77847910Y-107763619D01*
X77844552Y-107752078D01*
X77840354Y-107741087D01*
X77835316Y-107730646D01*
X77829439Y-107720754D01*
X77826186Y-107716014D01*
X77819019Y-107706966D01*
X77810951Y-107698505D01*
X77801983Y-107690632D01*
X77792114Y-107683347D01*
X77781344Y-107676649D01*
X77772676Y-107672012D01*
X77763501Y-107667705D01*
X77753820Y-107663729D01*
X77743632Y-107660083D01*
G37*
G36*
X77024581Y-107294451D02*
G01*
X77024581Y-107014793D01*
X77386793Y-107014793D01*
X77379386Y-107007682D01*
X77372249Y-107000577D01*
X77365381Y-106993478D01*
X77355583Y-106982840D01*
X77346390Y-106972215D01*
X77337802Y-106961602D01*
X77329820Y-106951003D01*
X77322444Y-106940416D01*
X77315672Y-106929842D01*
X77309507Y-106919282D01*
X77303946Y-106908734D01*
X77300575Y-106901709D01*
X77295948Y-106890950D01*
X77291777Y-106879830D01*
X77288060Y-106868350D01*
X77284799Y-106856509D01*
X77281992Y-106844307D01*
X77279641Y-106831745D01*
X77277745Y-106818822D01*
X77276304Y-106805538D01*
X77275318Y-106791894D01*
X77274787Y-106777889D01*
X77274685Y-106768352D01*
X77274958Y-106754284D01*
X77275777Y-106740596D01*
X77277141Y-106727288D01*
X77279051Y-106714359D01*
X77281507Y-106701810D01*
X77284509Y-106689641D01*
X77288056Y-106677852D01*
X77292149Y-106666442D01*
X77296788Y-106655412D01*
X77301972Y-106644761D01*
X77307702Y-106634491D01*
X77313978Y-106624600D01*
X77320800Y-106615089D01*
X77328167Y-106605957D01*
X77336080Y-106597206D01*
X77344539Y-106588834D01*
X77353533Y-106580878D01*
X77363113Y-106573435D01*
X77373278Y-106566505D01*
X77384030Y-106560089D01*
X77395367Y-106554186D01*
X77407290Y-106548797D01*
X77419799Y-106543921D01*
X77432894Y-106539558D01*
X77446574Y-106535708D01*
X77460841Y-106532372D01*
X77475693Y-106529548D01*
X77491130Y-106527239D01*
X77507154Y-106525442D01*
X77523764Y-106524159D01*
X77540959Y-106523389D01*
X77558740Y-106523132D01*
X78025000Y-106523132D01*
X78025000Y-106804012D01*
X77620289Y-106804012D01*
X77607642Y-106804235D01*
X77595711Y-106804905D01*
X77584498Y-106806021D01*
X77574001Y-106807584D01*
X77564222Y-106809593D01*
X77552298Y-106812967D01*
X77541648Y-106817134D01*
X77532274Y-106822095D01*
X77524174Y-106827850D01*
X77522348Y-106829413D01*
X77514045Y-106837852D01*
X77507149Y-106847292D01*
X77501661Y-106857735D01*
X77497580Y-106869179D01*
X77495328Y-106879055D01*
X77493977Y-106889573D01*
X77493527Y-106900732D01*
X77494134Y-106913135D01*
X77495954Y-106924942D01*
X77498988Y-106936155D01*
X77503236Y-106946772D01*
X77508697Y-106956793D01*
X77515372Y-106966219D01*
X77523260Y-106975050D01*
X77532362Y-106983286D01*
X77543032Y-106990670D01*
X77552297Y-106995563D01*
X77562644Y-106999901D01*
X77574073Y-107003686D01*
X77586584Y-107006916D01*
X77600176Y-107009593D01*
X77609839Y-107011070D01*
X77619983Y-107012301D01*
X77630607Y-107013286D01*
X77641713Y-107014024D01*
X77653299Y-107014516D01*
X77665366Y-107014762D01*
X77671580Y-107014793D01*
X78025000Y-107014793D01*
X78025000Y-107294451D01*
X77024581Y-107294451D01*
G37*
X73763390Y-120348332D02*
X74144342Y-120348332D01*
X74191961Y-120300713D02*
X74334819Y-120110237D01*
X73715771Y-120300713D02*
X73572914Y-120110237D01*
X73668152Y-120300713D02*
X74239580Y-120300713D01*
X74239580Y-120253094D02*
X73668152Y-120253094D01*
X73620533Y-120205475D02*
X74287200Y-120205475D01*
X74287200Y-120157856D02*
X73620533Y-120157856D01*
X73572914Y-120110237D02*
X74334819Y-120110237D01*
X74334819Y-120062618D02*
X73572914Y-120062618D01*
X73572914Y-120014999D02*
X74334819Y-120014999D01*
X74334819Y-119967380D02*
X73572914Y-119967380D01*
X74334819Y-119919761D02*
X74191961Y-119729285D01*
X73572914Y-119919761D02*
X74334819Y-119919761D01*
X73572914Y-119919761D02*
X73715771Y-119729285D01*
X74287200Y-119872142D02*
X73620533Y-119872142D01*
X73620533Y-119824523D02*
X74287200Y-119824523D01*
X74239580Y-119776904D02*
X73668152Y-119776904D01*
X73668152Y-119729285D02*
X74239580Y-119729285D01*
X74144342Y-119681666D02*
X73763390Y-119681666D01*
X73572914Y-120110237D02*
X73572914Y-119919761D01*
X73572914Y-119919761D02*
X73668152Y-119729285D01*
X73668152Y-119729285D02*
X73858628Y-119634047D01*
X73858628Y-119634047D02*
X74049104Y-119634047D01*
X74049104Y-119634047D02*
X74239580Y-119729285D01*
X74239580Y-119729285D02*
X74334819Y-119919761D01*
X74334819Y-119919761D02*
X74334819Y-120110237D01*
X74334819Y-120110237D02*
X74239580Y-120300713D01*
X74239580Y-120300713D02*
X74049104Y-120395951D01*
X74049104Y-120395951D02*
X73858628Y-120395951D01*
X73858628Y-120395951D02*
X73668152Y-120300713D01*
X73668152Y-120300713D02*
X73572914Y-120110237D01*
G36*
X82428220Y-108420525D02*
G01*
X82446284Y-108421602D01*
X82463833Y-108423395D01*
X82480867Y-108425906D01*
X82497386Y-108429135D01*
X82513390Y-108433081D01*
X82528878Y-108437745D01*
X82543852Y-108443126D01*
X82558310Y-108449224D01*
X82572252Y-108456040D01*
X82585680Y-108463573D01*
X82598592Y-108471824D01*
X82610990Y-108480792D01*
X82622872Y-108490478D01*
X82634239Y-108500881D01*
X82645090Y-108512002D01*
X82655353Y-108523829D01*
X82664954Y-108536411D01*
X82673893Y-108549749D01*
X82682169Y-108563843D01*
X82689784Y-108578692D01*
X82696736Y-108594297D01*
X82703026Y-108610657D01*
X82708654Y-108627773D01*
X82713620Y-108645645D01*
X82717924Y-108664272D01*
X82719828Y-108673869D01*
X82721566Y-108683655D01*
X82723138Y-108693630D01*
X82724545Y-108703794D01*
X82725787Y-108714146D01*
X82726863Y-108724688D01*
X82727773Y-108735418D01*
X82728518Y-108746338D01*
X82729098Y-108757446D01*
X82729511Y-108768743D01*
X82729760Y-108780229D01*
X82729842Y-108791904D01*
X82729842Y-108962142D01*
X83105000Y-108962142D01*
X83105000Y-109274772D01*
X82104581Y-109274772D01*
X82104581Y-108962142D01*
X82307791Y-108962142D01*
X82526632Y-108962142D01*
X82526632Y-108885938D01*
X82526514Y-108874882D01*
X82526159Y-108864246D01*
X82525568Y-108854030D01*
X82524740Y-108844233D01*
X82523054Y-108830326D01*
X82520835Y-108817363D01*
X82518085Y-108805344D01*
X82514802Y-108794270D01*
X82510987Y-108784141D01*
X82506639Y-108774956D01*
X82500014Y-108764179D01*
X82496346Y-108759420D01*
X82488447Y-108750891D01*
X82480013Y-108743498D01*
X82471044Y-108737244D01*
X82461542Y-108732126D01*
X82451505Y-108728146D01*
X82440934Y-108725302D01*
X82429828Y-108723597D01*
X82418189Y-108723028D01*
X82406869Y-108723524D01*
X82395993Y-108725012D01*
X82385559Y-108727493D01*
X82375568Y-108730966D01*
X82366020Y-108735431D01*
X82356914Y-108740888D01*
X82348251Y-108747338D01*
X82340031Y-108754779D01*
X82332475Y-108763526D01*
X82325926Y-108774014D01*
X82321675Y-108783021D01*
X82317992Y-108793007D01*
X82314875Y-108803972D01*
X82312325Y-108815916D01*
X82310341Y-108828839D01*
X82308924Y-108842741D01*
X82308295Y-108852553D01*
X82307917Y-108862800D01*
X82307791Y-108873481D01*
X82307791Y-108962142D01*
X82104581Y-108962142D01*
X82104581Y-108757466D01*
X82104658Y-108746986D01*
X82104891Y-108736671D01*
X82105278Y-108726523D01*
X82105821Y-108716540D01*
X82106519Y-108706724D01*
X82108379Y-108687589D01*
X82110860Y-108669118D01*
X82113961Y-108651311D01*
X82117681Y-108634168D01*
X82122022Y-108617690D01*
X82126984Y-108601875D01*
X82132565Y-108586724D01*
X82138766Y-108572238D01*
X82145588Y-108558415D01*
X82153030Y-108545256D01*
X82161092Y-108532762D01*
X82169774Y-108520931D01*
X82179076Y-108509765D01*
X82183960Y-108504431D01*
X82194144Y-108494227D01*
X82204850Y-108484681D01*
X82216080Y-108475794D01*
X82227832Y-108467565D01*
X82240107Y-108459995D01*
X82252905Y-108453082D01*
X82266226Y-108446828D01*
X82280069Y-108441233D01*
X82294436Y-108436295D01*
X82309325Y-108432016D01*
X82324737Y-108428396D01*
X82340672Y-108425433D01*
X82357130Y-108423129D01*
X82374110Y-108421483D01*
X82391614Y-108420496D01*
X82409640Y-108420167D01*
X82428220Y-108420525D01*
G37*
G36*
X82823632Y-107737752D02*
G01*
X82854895Y-107471772D01*
X82864947Y-107474630D01*
X82874831Y-107477710D01*
X82884547Y-107481011D01*
X82894096Y-107484533D01*
X82903476Y-107488277D01*
X82912689Y-107492242D01*
X82921733Y-107496429D01*
X82930610Y-107500837D01*
X82939319Y-107505466D01*
X82947860Y-107510316D01*
X82956233Y-107515388D01*
X82968477Y-107523411D01*
X82980344Y-107531932D01*
X82991833Y-107540951D01*
X82995579Y-107544068D01*
X83006475Y-107553700D01*
X83016908Y-107563823D01*
X83026877Y-107574434D01*
X83036383Y-107585536D01*
X83042462Y-107593208D01*
X83048335Y-107601098D01*
X83054002Y-107609206D01*
X83059463Y-107617531D01*
X83064719Y-107626074D01*
X83069767Y-107634834D01*
X83074610Y-107643812D01*
X83079247Y-107653008D01*
X83083678Y-107662420D01*
X83087903Y-107672051D01*
X83091866Y-107681955D01*
X83095573Y-107692189D01*
X83099025Y-107702754D01*
X83102221Y-107713649D01*
X83105162Y-107724873D01*
X83107846Y-107736428D01*
X83110276Y-107748313D01*
X83112449Y-107760528D01*
X83114367Y-107773073D01*
X83116029Y-107785948D01*
X83117435Y-107799154D01*
X83118586Y-107812689D01*
X83119480Y-107826555D01*
X83120120Y-107840750D01*
X83120503Y-107855276D01*
X83120631Y-107870132D01*
X83120546Y-107884513D01*
X83120291Y-107898590D01*
X83119867Y-107912364D01*
X83119272Y-107925834D01*
X83118508Y-107939002D01*
X83117574Y-107951865D01*
X83116470Y-107964426D01*
X83115197Y-107976683D01*
X83113753Y-107988636D01*
X83112140Y-108000287D01*
X83110357Y-108011633D01*
X83108404Y-108022677D01*
X83106281Y-108033417D01*
X83103988Y-108043853D01*
X83101526Y-108053987D01*
X83098893Y-108063816D01*
X83096071Y-108073380D01*
X83093039Y-108082776D01*
X83089797Y-108092004D01*
X83084541Y-108105530D01*
X83078812Y-108118679D01*
X83072611Y-108131451D01*
X83065938Y-108143844D01*
X83058792Y-108155860D01*
X83051174Y-108167498D01*
X83043084Y-108178758D01*
X83034522Y-108189640D01*
X83028551Y-108196685D01*
X83019290Y-108206872D01*
X83009732Y-108216643D01*
X82999878Y-108225997D01*
X82989728Y-108234935D01*
X82979282Y-108243457D01*
X82968539Y-108251562D01*
X82957500Y-108259251D01*
X82946165Y-108266523D01*
X82934534Y-108273378D01*
X82922606Y-108279818D01*
X82914490Y-108283879D01*
X82901841Y-108289510D01*
X82888441Y-108294587D01*
X82879090Y-108297664D01*
X82869405Y-108300494D01*
X82859387Y-108303079D01*
X82849034Y-108305417D01*
X82838347Y-108307510D01*
X82827327Y-108309356D01*
X82815972Y-108310956D01*
X82804284Y-108312310D01*
X82792262Y-108313417D01*
X82779906Y-108314279D01*
X82767215Y-108314894D01*
X82754191Y-108315263D01*
X82740833Y-108315387D01*
X82726846Y-108315236D01*
X82713154Y-108314784D01*
X82699758Y-108314030D01*
X82686657Y-108312975D01*
X82673853Y-108311618D01*
X82661344Y-108309960D01*
X82649131Y-108308000D01*
X82637213Y-108305739D01*
X82625592Y-108303176D01*
X82614266Y-108300312D01*
X82603236Y-108297147D01*
X82592502Y-108293679D01*
X82582063Y-108289911D01*
X82571920Y-108285841D01*
X82562073Y-108281469D01*
X82552522Y-108276796D01*
X82542273Y-108271349D01*
X82532226Y-108265542D01*
X82522381Y-108259374D01*
X82512737Y-108252845D01*
X82503296Y-108245956D01*
X82494056Y-108238706D01*
X82485017Y-108231095D01*
X82476181Y-108223124D01*
X82467546Y-108214792D01*
X82459114Y-108206099D01*
X82453604Y-108200104D01*
X82445602Y-108190921D01*
X82437990Y-108181691D01*
X82430770Y-108172414D01*
X82423940Y-108163090D01*
X82417500Y-108153718D01*
X82411452Y-108144299D01*
X82405794Y-108134833D01*
X82400527Y-108125320D01*
X82395650Y-108115759D01*
X82391164Y-108106152D01*
X82388391Y-108099720D01*
X82384309Y-108089313D01*
X82380491Y-108078547D01*
X82376936Y-108067423D01*
X82373645Y-108055940D01*
X82370617Y-108044098D01*
X82367852Y-108031897D01*
X82365350Y-108019338D01*
X82363112Y-108006419D01*
X82361137Y-107993142D01*
X82359425Y-107979507D01*
X82357977Y-107965513D01*
X82356792Y-107951159D01*
X82355870Y-107936448D01*
X82355212Y-107921377D01*
X82354817Y-107905948D01*
X82354685Y-107890160D01*
X82354748Y-107879084D01*
X82354934Y-107868173D01*
X82355246Y-107857428D01*
X82355682Y-107846849D01*
X82356242Y-107836435D01*
X82356927Y-107826186D01*
X82357736Y-107816103D01*
X82358670Y-107806186D01*
X82359728Y-107796434D01*
X82362218Y-107777427D01*
X82365206Y-107759082D01*
X82368692Y-107741399D01*
X82372677Y-107724379D01*
X82377159Y-107708020D01*
X82382139Y-107692324D01*
X82387617Y-107677289D01*
X82393594Y-107662917D01*
X82400068Y-107649207D01*
X82407041Y-107636159D01*
X82414511Y-107623774D01*
X82418433Y-107617829D01*
X82426631Y-107606324D01*
X82435289Y-107595256D01*
X82444408Y-107584624D01*
X82453985Y-107574430D01*
X82464023Y-107564673D01*
X82474521Y-107555352D01*
X82485478Y-107546469D01*
X82496896Y-107538023D01*
X82508773Y-107530013D01*
X82521110Y-107522441D01*
X82533907Y-107515305D01*
X82547164Y-107508607D01*
X82560881Y-107502345D01*
X82575057Y-107496520D01*
X82589694Y-107491133D01*
X82604790Y-107486182D01*
X82636053Y-107749232D01*
X82624753Y-107752663D01*
X82614178Y-107756727D01*
X82604328Y-107761425D01*
X82595204Y-107766756D01*
X82586804Y-107772721D01*
X82579129Y-107779319D01*
X82572180Y-107786551D01*
X82565956Y-107794417D01*
X82560403Y-107802889D01*
X82555590Y-107812063D01*
X82551518Y-107821940D01*
X82548187Y-107832518D01*
X82545596Y-107843799D01*
X82543745Y-107855783D01*
X82542634Y-107868468D01*
X82542287Y-107878443D01*
X82542264Y-107881856D01*
X82542710Y-107894630D01*
X82544050Y-107906940D01*
X82546283Y-107918787D01*
X82549408Y-107930170D01*
X82553427Y-107941089D01*
X82558338Y-107951545D01*
X82564143Y-107961537D01*
X82570840Y-107971065D01*
X82578431Y-107980130D01*
X82586915Y-107988731D01*
X82593066Y-107994207D01*
X82603006Y-108001889D01*
X82613863Y-108008816D01*
X82625640Y-108014987D01*
X82638335Y-108020402D01*
X82651950Y-108025062D01*
X82661536Y-108027749D01*
X82671531Y-108030099D01*
X82681934Y-108032114D01*
X82692746Y-108033794D01*
X82703966Y-108035137D01*
X82715594Y-108036144D01*
X82727630Y-108036816D01*
X82740075Y-108037152D01*
X82746451Y-108037194D01*
X82757728Y-108037028D01*
X82768662Y-108036530D01*
X82779252Y-108035700D01*
X82789499Y-108034538D01*
X82799402Y-108033044D01*
X82813613Y-108030180D01*
X82827051Y-108026569D01*
X82839716Y-108022212D01*
X82851609Y-108017107D01*
X82862729Y-108011255D01*
X82873076Y-108004656D01*
X82882650Y-107997310D01*
X82885669Y-107994696D01*
X82894137Y-107986478D01*
X82901772Y-107977852D01*
X82908574Y-107968818D01*
X82914544Y-107959376D01*
X82919680Y-107949526D01*
X82923983Y-107939269D01*
X82927454Y-107928603D01*
X82930091Y-107917530D01*
X82931896Y-107906049D01*
X82932867Y-107894160D01*
X82933053Y-107886008D01*
X82932816Y-107875858D01*
X82932108Y-107866018D01*
X82930429Y-107853378D01*
X82927910Y-107841288D01*
X82924552Y-107829748D01*
X82920354Y-107818757D01*
X82915316Y-107808316D01*
X82909439Y-107798424D01*
X82906186Y-107793684D01*
X82899019Y-107784635D01*
X82890951Y-107776175D01*
X82881983Y-107768302D01*
X82872114Y-107761016D01*
X82861344Y-107754319D01*
X82852676Y-107749681D01*
X82843501Y-107745374D01*
X82833820Y-107741398D01*
X82823632Y-107737752D01*
G37*
G36*
X82104581Y-107372121D02*
G01*
X82104581Y-107092463D01*
X82466793Y-107092463D01*
X82459386Y-107085352D01*
X82452249Y-107078247D01*
X82445381Y-107071148D01*
X82435583Y-107060510D01*
X82426390Y-107049884D01*
X82417802Y-107039272D01*
X82409820Y-107028672D01*
X82402444Y-107018086D01*
X82395672Y-107007512D01*
X82389507Y-106996951D01*
X82383946Y-106986403D01*
X82380575Y-106979378D01*
X82375948Y-106968619D01*
X82371777Y-106957499D01*
X82368060Y-106946019D01*
X82364799Y-106934178D01*
X82361992Y-106921976D01*
X82359641Y-106909414D01*
X82357745Y-106896491D01*
X82356304Y-106883208D01*
X82355318Y-106869563D01*
X82354787Y-106855559D01*
X82354685Y-106846022D01*
X82354958Y-106831954D01*
X82355777Y-106818266D01*
X82357141Y-106804957D01*
X82359051Y-106792029D01*
X82361507Y-106779480D01*
X82364509Y-106767311D01*
X82368056Y-106755521D01*
X82372149Y-106744111D01*
X82376788Y-106733081D01*
X82381972Y-106722431D01*
X82387702Y-106712160D01*
X82393978Y-106702269D01*
X82400800Y-106692758D01*
X82408167Y-106683627D01*
X82416080Y-106674875D01*
X82424539Y-106666503D01*
X82433533Y-106658547D01*
X82443113Y-106651104D01*
X82453278Y-106644175D01*
X82464030Y-106637759D01*
X82475367Y-106631856D01*
X82487290Y-106626466D01*
X82499799Y-106621590D01*
X82512894Y-106617227D01*
X82526574Y-106613377D01*
X82540841Y-106610041D01*
X82555693Y-106607218D01*
X82571130Y-106604908D01*
X82587154Y-106603112D01*
X82603764Y-106601828D01*
X82620959Y-106601058D01*
X82638740Y-106600802D01*
X83105000Y-106600802D01*
X83105000Y-106881681D01*
X82700289Y-106881681D01*
X82687642Y-106881904D01*
X82675711Y-106882574D01*
X82664498Y-106883690D01*
X82654001Y-106885253D01*
X82644222Y-106887262D01*
X82632298Y-106890636D01*
X82621648Y-106894803D01*
X82612274Y-106899765D01*
X82604174Y-106905520D01*
X82602348Y-106907082D01*
X82594045Y-106915521D01*
X82587149Y-106924962D01*
X82581661Y-106935404D01*
X82577580Y-106946848D01*
X82575328Y-106956725D01*
X82573977Y-106967242D01*
X82573527Y-106978401D01*
X82574134Y-106990804D01*
X82575954Y-107002612D01*
X82578988Y-107013824D01*
X82583236Y-107024441D01*
X82588697Y-107034463D01*
X82595372Y-107043889D01*
X82603260Y-107052720D01*
X82612362Y-107060955D01*
X82623032Y-107068340D01*
X82632297Y-107073232D01*
X82642644Y-107077571D01*
X82654073Y-107081355D01*
X82666584Y-107084586D01*
X82680176Y-107087263D01*
X82689839Y-107088740D01*
X82699983Y-107089970D01*
X82710607Y-107090955D01*
X82721713Y-107091693D01*
X82733299Y-107092186D01*
X82745366Y-107092432D01*
X82751580Y-107092463D01*
X83105000Y-107092463D01*
X83105000Y-107372121D01*
X82104581Y-107372121D01*
G37*
D13*
%TO.C,3.3V*%
X71530000Y-110450000D02*
X71530000Y-109310000D01*
X71300000Y-109310000D02*
X71530000Y-109310000D01*
X71300000Y-109310000D02*
X71300000Y-106590000D01*
X76020000Y-109310000D02*
X75790000Y-109310000D01*
X71300000Y-106590000D02*
X72610000Y-106590000D01*
X74710000Y-106590000D02*
X76020000Y-106590000D01*
X76020000Y-106590000D02*
X76020000Y-109310000D01*
%TO.C,J5*%
X83044180Y-84032264D02*
X82444180Y-83732264D01*
X83044180Y-83432264D02*
X83044180Y-84032264D01*
X82444180Y-83732264D02*
X83044180Y-83432264D01*
X82244180Y-85842264D02*
X81044180Y-85842264D01*
X82244180Y-78822264D02*
X82244180Y-85842264D01*
X81044180Y-87542264D02*
X75364180Y-87542264D01*
X81044180Y-85842264D02*
X81044180Y-87542264D01*
X75364180Y-87542264D02*
X75364180Y-85842264D01*
X75364180Y-85842264D02*
X74164180Y-85842264D01*
X74164180Y-85842264D02*
X74164180Y-78822264D01*
X74164180Y-78822264D02*
X82244180Y-78822264D01*
%TO.C,MES1*%
X109676680Y-134732264D02*
X109676680Y-131232264D01*
X113676680Y-134732264D02*
X109676680Y-134732264D01*
X106176680Y-131232264D02*
X106176680Y-108232264D01*
X109676680Y-131232264D02*
X106176680Y-131232264D01*
X113676680Y-131232264D02*
X113676680Y-134732264D01*
X117176680Y-131232264D02*
X113676680Y-131232264D01*
X106176680Y-108232264D02*
X109676680Y-108232264D01*
X109676680Y-108232264D02*
X109676680Y-104732264D01*
X113676680Y-108232264D02*
X117176680Y-108232264D01*
X117176680Y-108232264D02*
X117176680Y-131232264D01*
X109676680Y-104732264D02*
X113676680Y-104732264D01*
X113676680Y-104732264D02*
X113676680Y-108232264D01*
%TO.C,J2*%
X62850000Y-107382500D02*
X62550000Y-107982500D01*
X62250000Y-107382500D02*
X62850000Y-107382500D01*
X62550000Y-107982500D02*
X62250000Y-107382500D01*
X64660000Y-108182500D02*
X64660000Y-109382500D01*
X57640000Y-108182500D02*
X64660000Y-108182500D01*
X66360000Y-109382500D02*
X66360000Y-115062500D01*
X64660000Y-109382500D02*
X66360000Y-109382500D01*
X66360000Y-115062500D02*
X64660000Y-115062500D01*
X64660000Y-115062500D02*
X64660000Y-116262500D01*
X64660000Y-116262500D02*
X57640000Y-116262500D01*
X57640000Y-116262500D02*
X57640000Y-108182500D01*
%TO.C,10K*%
X104621000Y-120174000D02*
X104621000Y-126714000D01*
X104291000Y-120174000D02*
X104621000Y-120174000D01*
X102211000Y-120174000D02*
X101881000Y-120174000D01*
X101881000Y-120174000D02*
X101881000Y-126714000D01*
X104621000Y-126714000D02*
X104291000Y-126714000D01*
X101881000Y-126714000D02*
X102211000Y-126714000D01*
%TO.C,BZ1*%
X91726680Y-128232264D02*
G75*
G03*
X91726680Y-128232264I-6300000J0D01*
G01*
%TO.C,U1*%
X84590000Y-103282264D02*
X86110000Y-103282264D01*
X78287924Y-101339723D02*
X81732076Y-101339723D01*
X78287924Y-101339723D02*
X75852541Y-98904340D01*
X84167459Y-98904340D02*
X81732076Y-101339723D01*
X84167459Y-98904340D02*
X84167459Y-95460188D01*
X75852541Y-95460188D02*
X75852541Y-98904340D01*
X75852541Y-95460188D02*
X78287924Y-93024805D01*
X81732076Y-93024805D02*
X84167459Y-95460188D01*
X81732076Y-93024805D02*
X78287924Y-93024805D01*
X73910000Y-103282264D02*
X86110000Y-103282264D01*
X86110000Y-103282264D02*
X86110000Y-91082264D01*
X86110000Y-91082264D02*
X73910000Y-91082264D01*
X73910000Y-91082264D02*
X73910000Y-103282264D01*
X83010000Y-97182264D02*
G75*
G03*
X83010000Y-97182264I-3000000J0D01*
G01*
%TO.C,SW1*%
X101426680Y-104382264D02*
X102426680Y-104382264D01*
X102426680Y-104382264D02*
X102426680Y-83982264D01*
X102426680Y-83982264D02*
X101426680Y-83982264D01*
X101426680Y-83982264D02*
X101426680Y-104382264D01*
G36*
X101426680Y-104382264D02*
G01*
X102426680Y-104382264D01*
X102426680Y-83982264D01*
X101426680Y-83982264D01*
X101426680Y-104382264D01*
G37*
X102426680Y-104382264D02*
X116426680Y-104382264D01*
X116426680Y-104382264D02*
X116426680Y-103382264D01*
X116426680Y-103382264D02*
X102426680Y-103382264D01*
X102426680Y-103382264D02*
X102426680Y-104382264D01*
G36*
X102426680Y-104382264D02*
G01*
X116426680Y-104382264D01*
X116426680Y-103382264D01*
X102426680Y-103382264D01*
X102426680Y-104382264D01*
G37*
X115426680Y-103382264D02*
X116426680Y-103382264D01*
X116426680Y-103382264D02*
X116426680Y-82982264D01*
X116426680Y-82982264D02*
X115426680Y-82982264D01*
X115426680Y-82982264D02*
X115426680Y-103382264D01*
G36*
X115426680Y-103382264D02*
G01*
X116426680Y-103382264D01*
X116426680Y-82982264D01*
X115426680Y-82982264D01*
X115426680Y-103382264D01*
G37*
X101426680Y-83982264D02*
X115426680Y-83982264D01*
X115426680Y-83982264D02*
X115426680Y-82982264D01*
X115426680Y-82982264D02*
X101426680Y-82982264D01*
X101426680Y-82982264D02*
X101426680Y-83982264D01*
G36*
X101426680Y-83982264D02*
G01*
X115426680Y-83982264D01*
X115426680Y-82982264D01*
X101426680Y-82982264D01*
X101426680Y-83982264D01*
G37*
%TO.C,J4*%
X62850000Y-97382500D02*
X62550000Y-97982500D01*
X62250000Y-97382500D02*
X62850000Y-97382500D01*
X62550000Y-97982500D02*
X62250000Y-97382500D01*
X64660000Y-98182500D02*
X64660000Y-99382500D01*
X57640000Y-98182500D02*
X64660000Y-98182500D01*
X66360000Y-99382500D02*
X66360000Y-105062500D01*
X64660000Y-99382500D02*
X66360000Y-99382500D01*
X66360000Y-105062500D02*
X64660000Y-105062500D01*
X64660000Y-105062500D02*
X64660000Y-106262500D01*
X64660000Y-106262500D02*
X57640000Y-106262500D01*
X57640000Y-106262500D02*
X57640000Y-98182500D01*
%TO.C,F1*%
X88726680Y-120632264D02*
X95126680Y-120632264D01*
X95126680Y-120632264D02*
X95126680Y-113632264D01*
X95126680Y-113632264D02*
X88726680Y-113632264D01*
X88726680Y-113632264D02*
X88726680Y-120632264D01*
X88726680Y-96632264D02*
X95126680Y-96632264D01*
X95126680Y-96632264D02*
X95126680Y-89632264D01*
X95126680Y-89632264D02*
X88726680Y-89632264D01*
X88726680Y-89632264D02*
X88726680Y-96632264D01*
%TO.C,30K*%
X98325000Y-126714000D02*
X98325000Y-120174000D01*
X98655000Y-126714000D02*
X98325000Y-126714000D01*
X100735000Y-126714000D02*
X101065000Y-126714000D01*
X101065000Y-126714000D02*
X101065000Y-120174000D01*
X98325000Y-120174000D02*
X98655000Y-120174000D01*
X101065000Y-120174000D02*
X100735000Y-120174000D01*
%TO.C,Nch*%
X78450000Y-107950000D02*
X78450000Y-109625000D01*
X78450000Y-107950000D02*
X78450000Y-107300000D01*
X81570000Y-107950000D02*
X81570000Y-108600000D01*
X81570000Y-107950000D02*
X81570000Y-107300000D01*
%TO.C,SW2*%
X100050000Y-104900000D02*
X103950000Y-104900000D01*
X103950000Y-104900000D02*
X103950000Y-113700000D01*
X103950000Y-113700000D02*
X100050000Y-113700000D01*
X100050000Y-113700000D02*
X100050000Y-104900000D01*
%TO.C,J3*%
X59922788Y-86276790D02*
X60806672Y-87160673D01*
X60332910Y-86276790D02*
X64554337Y-90498217D01*
X64554337Y-90498217D02*
X69942491Y-85110063D01*
X60347052Y-86276790D02*
X60877382Y-86807120D01*
X60877382Y-86807120D02*
X62150174Y-85534328D01*
X61938042Y-87867780D02*
X62468372Y-87337450D01*
X62468372Y-87337450D02*
X64554337Y-89423415D01*
X64554337Y-89423415D02*
X66711013Y-87266739D01*
X60806672Y-85392906D02*
X59922788Y-86276790D01*
X61619844Y-85003997D02*
X60347052Y-86276790D01*
X62150174Y-85534328D02*
X61619844Y-85003997D01*
X62680504Y-83943337D02*
X63210835Y-84473667D01*
X63210835Y-84473667D02*
X63917941Y-83766561D01*
X63387611Y-83236231D02*
X62680504Y-83943337D01*
X63917941Y-83766561D02*
X63387611Y-83236231D01*
X64448271Y-82175570D02*
X64978602Y-82705900D01*
X64978602Y-82705900D02*
X66251394Y-81433108D01*
X66781724Y-83024098D02*
X68867689Y-85110063D01*
X68867689Y-85110063D02*
X66711013Y-87266739D01*
X65721064Y-80902778D02*
X64448271Y-82175570D01*
X66251394Y-81433108D02*
X65721064Y-80902778D01*
X67312054Y-82493768D02*
X66781724Y-83024098D01*
X65721064Y-80888636D02*
X60332910Y-86276790D01*
X69942491Y-85110063D02*
X65721064Y-80888636D01*
%TO.C,J1*%
X67806680Y-129382264D02*
X68406680Y-129682264D01*
X67806680Y-129982264D02*
X67806680Y-129382264D01*
X68406680Y-129682264D02*
X67806680Y-129982264D01*
X68606680Y-127572264D02*
X69806680Y-127572264D01*
X68606680Y-134592264D02*
X68606680Y-127572264D01*
X69806680Y-125872264D02*
X75486680Y-125872264D01*
X69806680Y-127572264D02*
X69806680Y-125872264D01*
X75486680Y-125872264D02*
X75486680Y-127572264D01*
X75486680Y-127572264D02*
X76686680Y-127572264D01*
X76686680Y-127572264D02*
X76686680Y-134592264D01*
X76686680Y-134592264D02*
X68606680Y-134592264D01*
%TO.C,\u25CF*%
X74880000Y-118845000D02*
X85160000Y-118845000D01*
X85160000Y-118845000D02*
X85160000Y-113545000D01*
X74880000Y-117195000D02*
X74880000Y-118845000D01*
X74880000Y-113545000D02*
X74880000Y-115195000D01*
X85160000Y-113545000D02*
X74880000Y-113545000D01*
X74880000Y-117195000D02*
G75*
G03*
X74880000Y-115195000I0J1000000D01*
G01*
%TO.C,Pch*%
X83530000Y-107950000D02*
X83530000Y-109625000D01*
X83530000Y-107950000D02*
X83530000Y-107300000D01*
X86650000Y-107950000D02*
X86650000Y-108600000D01*
X86650000Y-107950000D02*
X86650000Y-107300000D01*
%TD*%
%LPC*%
D14*
X94162500Y-85000000D02*
G75*
G03*
X94162500Y-85000000I-662500J0D01*
G01*
D15*
%TO.C,3.3V*%
X72160000Y-109900000D03*
D16*
X73660000Y-109812500D03*
D15*
X75160000Y-109900000D03*
%TD*%
D17*
%TO.C,J5*%
X80184180Y-83732264D03*
D18*
X76224180Y-83732264D03*
%TD*%
D19*
%TO.C,MES1*%
X111676680Y-132732264D03*
X111676680Y-106732264D03*
D20*
X115926680Y-109732264D03*
X115926680Y-111482264D03*
%TD*%
D21*
%TO.C,REF\u002A\u002A*%
X59426680Y-92182264D03*
%TD*%
D22*
%TO.C,J2*%
X62550000Y-110242500D03*
D18*
X62550000Y-114202500D03*
%TD*%
D23*
%TO.C,10K*%
X103251000Y-119634000D03*
D24*
X103251000Y-127254000D03*
%TD*%
D20*
%TO.C,BZ1*%
X82926680Y-128232264D03*
X87926680Y-128232264D03*
%TD*%
D25*
%TO.C,U1*%
X80010000Y-103282264D03*
X75430000Y-103282264D03*
D26*
X73910000Y-99472264D03*
X73910000Y-97182264D03*
X73910000Y-94892264D03*
D25*
X75430000Y-91082264D03*
X80010000Y-91082264D03*
X84590000Y-91082264D03*
D26*
X86110000Y-97182264D03*
%TD*%
D22*
%TO.C,J4*%
X62550000Y-100242500D03*
D18*
X62550000Y-104202500D03*
%TD*%
D21*
%TO.C,REF\u002A\u002A*%
X100000000Y-133464528D03*
%TD*%
D27*
%TO.C,F1*%
X90426680Y-120382264D03*
X93426680Y-113882264D03*
X90426680Y-96382264D03*
X93426680Y-89882264D03*
%TD*%
D23*
%TO.C,30K*%
X99695000Y-127254000D03*
D24*
X99695000Y-119634000D03*
%TD*%
D28*
%TO.C,Nch*%
X79060000Y-108887500D03*
X80010000Y-107012500D03*
X80960000Y-108887500D03*
%TD*%
D21*
%TO.C,REF\u002A\u002A*%
X100000000Y-80000000D03*
%TD*%
D20*
%TO.C,SW2*%
X102000000Y-111800000D03*
X102000000Y-109300000D03*
X102000000Y-106800000D03*
%TD*%
D29*
%TO.C,J3*%
X63882586Y-86206079D03*
D30*
X65650353Y-84438312D03*
%TD*%
D31*
%TO.C,J1*%
X70666680Y-129682264D03*
D18*
X74626680Y-129682264D03*
%TD*%
D21*
%TO.C,REF\u002A\u002A*%
X59426680Y-121282264D03*
%TD*%
D32*
%TO.C,\u25CF*%
X76210000Y-120005000D03*
D24*
X78750000Y-120005000D03*
X81290000Y-120005000D03*
X83830000Y-120005000D03*
X83830000Y-112385000D03*
X81290000Y-112385000D03*
X78750000Y-112385000D03*
X76210000Y-112385000D03*
%TD*%
D28*
%TO.C,Pch*%
X85090000Y-107012500D03*
X84140000Y-108887500D03*
X86040000Y-108887500D03*
%TD*%
%LPD*%
M02*
