%TF.GenerationSoftware,KiCad,Pcbnew,7.0.6*%
%TF.CreationDate,2023-11-19T20:23:39+09:00*%
%TF.ProjectId,PowerSupply_20230505,506f7765-7253-4757-9070-6c795f323032,rev?*%
%TF.SameCoordinates,Original*%
%TF.FileFunction,Copper,L1,Top*%
%TF.FilePolarity,Positive*%
%FSLAX46Y46*%
G04 Gerber Fmt 4.6, Leading zero omitted, Abs format (unit mm)*
G04 Created by KiCad (PCBNEW 7.0.6) date 2023-11-19 20:23:39*
%MOMM*%
%LPD*%
G01*
G04 APERTURE LIST*
G04 Aperture macros list*
%AMRoundRect*
0 Rectangle with rounded corners*
0 $1 Rounding radius*
0 $2 $3 $4 $5 $6 $7 $8 $9 X,Y pos of 4 corners*
0 Add a 4 corners polygon primitive as box body*
4,1,4,$2,$3,$4,$5,$6,$7,$8,$9,$2,$3,0*
0 Add four circle primitives for the rounded corners*
1,1,$1+$1,$2,$3*
1,1,$1+$1,$4,$5*
1,1,$1+$1,$6,$7*
1,1,$1+$1,$8,$9*
0 Add four rect primitives between the rounded corners*
20,1,$1+$1,$2,$3,$4,$5,0*
20,1,$1+$1,$4,$5,$6,$7,0*
20,1,$1+$1,$6,$7,$8,$9,0*
20,1,$1+$1,$8,$9,$2,$3,0*%
%AMHorizOval*
0 Thick line with rounded ends*
0 $1 width*
0 $2 $3 position (X,Y) of the first rounded end (center of the circle)*
0 $4 $5 position (X,Y) of the second rounded end (center of the circle)*
0 Add line between two ends*
20,1,$1,$2,$3,$4,$5,0*
0 Add two circle primitives to create the rounded ends*
1,1,$1,$2,$3*
1,1,$1,$4,$5*%
%AMFreePoly0*
4,1,9,3.862500,-0.866500,0.737500,-0.866500,0.737500,-0.450000,-0.737500,-0.450000,-0.737500,0.450000,0.737500,0.450000,0.737500,0.866500,3.862500,0.866500,3.862500,-0.866500,3.862500,-0.866500,$1*%
G04 Aperture macros list end*
%TA.AperFunction,SMDPad,CuDef*%
%ADD10R,0.900000X1.300000*%
%TD*%
%TA.AperFunction,SMDPad,CuDef*%
%ADD11FreePoly0,90.000000*%
%TD*%
%TA.AperFunction,ComponentPad*%
%ADD12RoundRect,0.250001X1.099999X1.099999X-1.099999X1.099999X-1.099999X-1.099999X1.099999X-1.099999X0*%
%TD*%
%TA.AperFunction,ComponentPad*%
%ADD13C,2.700000*%
%TD*%
%TA.AperFunction,ComponentPad*%
%ADD14C,1.500000*%
%TD*%
%TA.AperFunction,ComponentPad*%
%ADD15RoundRect,0.250001X-1.099999X1.099999X-1.099999X-1.099999X1.099999X-1.099999X1.099999X1.099999X0*%
%TD*%
%TA.AperFunction,ComponentPad*%
%ADD16C,1.600000*%
%TD*%
%TA.AperFunction,ComponentPad*%
%ADD17O,1.600000X1.600000*%
%TD*%
%TA.AperFunction,SMDPad,CuDef*%
%ADD18RoundRect,0.381000X-0.381000X0.762000X-0.381000X-0.762000X0.381000X-0.762000X0.381000X0.762000X0*%
%TD*%
%TA.AperFunction,SMDPad,CuDef*%
%ADD19RoundRect,0.381000X0.762000X0.381000X-0.762000X0.381000X-0.762000X-0.381000X0.762000X-0.381000X0*%
%TD*%
%TA.AperFunction,ComponentPad*%
%ADD20C,2.600000*%
%TD*%
%TA.AperFunction,SMDPad,CuDef*%
%ADD21RoundRect,0.250000X0.250000X-0.500000X0.250000X0.500000X-0.250000X0.500000X-0.250000X-0.500000X0*%
%TD*%
%TA.AperFunction,ComponentPad*%
%ADD22RoundRect,0.250000X0.106066X-0.954594X0.954594X-0.106066X-0.106066X0.954594X-0.954594X0.106066X0*%
%TD*%
%TA.AperFunction,ComponentPad*%
%ADD23HorizOval,1.700000X-0.106066X0.106066X0.106066X-0.106066X0*%
%TD*%
%TA.AperFunction,ComponentPad*%
%ADD24RoundRect,0.250001X-1.099999X-1.099999X1.099999X-1.099999X1.099999X1.099999X-1.099999X1.099999X0*%
%TD*%
%TA.AperFunction,ComponentPad*%
%ADD25R,1.600000X1.600000*%
%TD*%
%TA.AperFunction,ViaPad*%
%ADD26C,0.800000*%
%TD*%
%TA.AperFunction,ViaPad*%
%ADD27C,2.500000*%
%TD*%
%TA.AperFunction,Conductor*%
%ADD28C,1.500000*%
%TD*%
%TA.AperFunction,Conductor*%
%ADD29C,1.000000*%
%TD*%
%TA.AperFunction,Conductor*%
%ADD30C,0.250000*%
%TD*%
%TA.AperFunction,Conductor*%
%ADD31C,0.500000*%
%TD*%
G04 APERTURE END LIST*
D10*
%TO.P,3.3V,1,Vout*%
%TO.N,Net-(U2-Vout)*%
X72160000Y-109900000D03*
D11*
%TO.P,3.3V,2,GND*%
%TO.N,GND*%
X73660000Y-109812500D03*
D10*
%TO.P,3.3V,3,Vin*%
%TO.N,+5V*%
X75160000Y-109900000D03*
%TD*%
D12*
%TO.P,J5,1,Pin_1*%
%TO.N,Vin*%
X80184180Y-83732264D03*
D13*
%TO.P,J5,2,Pin_2*%
%TO.N,GND*%
X76224180Y-83732264D03*
%TD*%
D14*
%TO.P,MES1,1,-*%
%TO.N,GND*%
X115926680Y-109732264D03*
%TO.P,MES1,2,+*%
%TO.N,Vin*%
X115926680Y-111482264D03*
%TD*%
D15*
%TO.P,J2,1,Pin_1*%
%TO.N,Vin*%
X62550000Y-110242500D03*
D13*
%TO.P,J2,2,Pin_2*%
%TO.N,GND*%
X62550000Y-114202500D03*
%TD*%
D16*
%TO.P,10K,1*%
%TO.N,Net-(U3-GP2)*%
X103251000Y-119634000D03*
D17*
%TO.P,10K,2*%
%TO.N,GND*%
X103251000Y-127254000D03*
%TD*%
D14*
%TO.P,BZ1,1,-*%
%TO.N,Net-(BZ1--)*%
X82926680Y-128232264D03*
%TO.P,BZ1,2,+*%
%TO.N,GND*%
X87926680Y-128232264D03*
%TD*%
D18*
%TO.P,U1,1,ON/OFF*%
%TO.N,Net-(SW2A-A)*%
X80010000Y-103282264D03*
%TO.P,U1,2,Vin*%
%TO.N,V_raw2*%
X75430000Y-103282264D03*
D19*
X73910000Y-99472264D03*
%TO.P,U1,3,GND*%
%TO.N,GND*%
X73910000Y-97182264D03*
X73910000Y-94892264D03*
D18*
%TO.P,U1,4,Vout*%
%TO.N,+5V*%
X75430000Y-91082264D03*
%TO.P,U1,5,Sense*%
X80010000Y-91082264D03*
%TO.P,U1,6,Trim*%
%TO.N,Net-(U1-Trim)*%
X84590000Y-91082264D03*
D19*
%TO.P,U1,7,GND*%
%TO.N,GND*%
X86110000Y-97182264D03*
%TD*%
D15*
%TO.P,J4,1,Pin_1*%
%TO.N,Vin*%
X62550000Y-100242500D03*
D13*
%TO.P,J4,2,Pin_2*%
%TO.N,GND*%
X62550000Y-104202500D03*
%TD*%
D20*
%TO.P,F1,1*%
%TO.N,V_raw*%
X90426680Y-120382264D03*
X93426680Y-113882264D03*
%TO.P,F1,2*%
%TO.N,Net-(SW1A-A)*%
X90426680Y-96382264D03*
X93426680Y-89882264D03*
%TD*%
D16*
%TO.P,30K,1*%
%TO.N,V_raw2*%
X99695000Y-127254000D03*
D17*
%TO.P,30K,2*%
%TO.N,Net-(U3-GP2)*%
X99695000Y-119634000D03*
%TD*%
D21*
%TO.P,Nch,1,G*%
%TO.N,Net-(Q2-G)*%
X79060000Y-108887500D03*
%TO.P,Nch,2,D*%
%TO.N,Net-(Q1-G)*%
X80010000Y-107012500D03*
%TO.P,Nch,3,S*%
%TO.N,GND*%
X80960000Y-108887500D03*
%TD*%
D14*
%TO.P,SW2,1,A*%
%TO.N,Net-(SW2A-A)*%
X102000000Y-111800000D03*
%TO.P,SW2,2,B*%
%TO.N,GND*%
X102000000Y-109300000D03*
%TO.P,SW2,3,C*%
X102000000Y-106800000D03*
%TD*%
D22*
%TO.P,J3,1,Pin_1*%
%TO.N,+5V*%
X63882586Y-86206079D03*
D23*
%TO.P,J3,2,Pin_2*%
%TO.N,GND*%
X65650353Y-84438312D03*
%TD*%
D24*
%TO.P,J1,1,Pin_1*%
%TO.N,V_raw*%
X70666680Y-129682264D03*
D13*
%TO.P,J1,2,Pin_2*%
%TO.N,GND*%
X74626680Y-129682264D03*
%TD*%
D25*
%TO.P,\u25CF,1,VDD*%
%TO.N,Net-(U2-Vout)*%
X76210000Y-120005000D03*
D17*
%TO.P,\u25CF,2,GP5*%
%TO.N,unconnected-(U3-GP5-Pad2)*%
X78750000Y-120005000D03*
%TO.P,\u25CF,3,GP4*%
%TO.N,unconnected-(U3-GP4-Pad3)*%
X81290000Y-120005000D03*
%TO.P,\u25CF,4,GP3*%
%TO.N,unconnected-(U3-GP3-Pad4)*%
X83830000Y-120005000D03*
%TO.P,\u25CF,5,GP2*%
%TO.N,Net-(U3-GP2)*%
X83830000Y-112385000D03*
%TO.P,\u25CF,6,GP1*%
%TO.N,V_control*%
X81290000Y-112385000D03*
%TO.P,\u25CF,7,GP0*%
%TO.N,Net-(U3-GP0)*%
X78750000Y-112385000D03*
%TO.P,\u25CF,8,VSS*%
%TO.N,GND*%
X76210000Y-112385000D03*
%TD*%
D21*
%TO.P,Pch,1,D*%
%TO.N,Vin*%
X85090000Y-107012500D03*
%TO.P,Pch,2,G*%
%TO.N,Net-(Q1-G)*%
X84140000Y-108887500D03*
%TO.P,Pch,3,S*%
%TO.N,V_raw2*%
X86040000Y-108887500D03*
%TD*%
D26*
%TO.N,GND*%
X77500000Y-110500000D03*
X82500000Y-110500000D03*
X82500000Y-118500000D03*
X85000000Y-100000000D03*
%TO.N,+5V*%
X73660000Y-111760000D03*
D27*
%TO.N,V_raw2*%
X93500000Y-85000000D03*
D26*
X88176680Y-115885376D03*
%TO.N,Net-(SW2A-A)*%
X80010000Y-101346000D03*
%TO.N,Net-(Q1-G)*%
X85090000Y-110490000D03*
%TO.N,Net-(U1-Trim)*%
X84590000Y-93472000D03*
%TO.N,Net-(Q2-G)*%
X80010000Y-110490000D03*
%TD*%
D28*
%TO.N,Vin*%
X101295836Y-113500000D02*
X113908944Y-113500000D01*
X94808336Y-107012500D02*
X101295836Y-113500000D01*
X113908944Y-113500000D02*
X115926680Y-111482264D01*
X85090000Y-107012500D02*
X94808336Y-107012500D01*
%TO.N,GND*%
X77500000Y-109240000D02*
X77500000Y-110500000D01*
X70770000Y-108300000D02*
X73560000Y-108300000D01*
X73660000Y-108400000D02*
X73760000Y-108300000D01*
X82500000Y-118500000D02*
X82745000Y-118255000D01*
X86110000Y-98890000D02*
X85000000Y-100000000D01*
X86110000Y-97182264D02*
X73910000Y-97182264D01*
X76560000Y-108300000D02*
X77500000Y-109240000D01*
X73660000Y-109812500D02*
X73660000Y-108400000D01*
X64867500Y-114202500D02*
X70770000Y-108300000D01*
X82745000Y-118255000D02*
X84554874Y-118255000D01*
X84554874Y-118255000D02*
X87926680Y-121626806D01*
X87926680Y-121626806D02*
X87926680Y-128232264D01*
X73760000Y-108300000D02*
X76560000Y-108300000D01*
D29*
X80960000Y-108887500D02*
X80960000Y-108960000D01*
D28*
X62550000Y-114202500D02*
X64867500Y-114202500D01*
X73560000Y-108300000D02*
X73660000Y-108400000D01*
X73746680Y-97182264D02*
X73746680Y-94892264D01*
X86110000Y-97182264D02*
X86110000Y-98890000D01*
D29*
X80960000Y-108960000D02*
X82500000Y-110500000D01*
D28*
%TO.N,+5V*%
X68758771Y-91082264D02*
X63882586Y-86206079D01*
D29*
X75160000Y-109900000D02*
X75160000Y-110900000D01*
D28*
X75430000Y-91082264D02*
X80010000Y-91082264D01*
D29*
X75160000Y-110900000D02*
X74300000Y-111760000D01*
D28*
X75430000Y-91082264D02*
X74295000Y-91082264D01*
X74295000Y-91082264D02*
X68758771Y-91082264D01*
D29*
X74300000Y-111760000D02*
X73660000Y-111760000D01*
D28*
%TO.N,V_raw2*%
X86040000Y-108887500D02*
X88176680Y-111024180D01*
X88176680Y-111024180D02*
X88176680Y-115885376D01*
D30*
%TO.N,Net-(SW2A-A)*%
X93482264Y-103282264D02*
X80010000Y-103282264D01*
X80010000Y-101346000D02*
X80010000Y-103282264D01*
X102000000Y-111800000D02*
X93482264Y-103282264D01*
%TO.N,Net-(Q1-G)*%
X84140000Y-109540000D02*
X85090000Y-110490000D01*
X84140000Y-108887500D02*
X84140000Y-109540000D01*
X80010000Y-107012500D02*
X82265000Y-107012500D01*
X82265000Y-107012500D02*
X84140000Y-108887500D01*
%TO.N,Net-(U1-Trim)*%
X84590000Y-91082264D02*
X84590000Y-93472000D01*
D31*
%TO.N,Net-(U2-Vout)*%
X72160000Y-115955000D02*
X76210000Y-120005000D01*
X72160000Y-109900000D02*
X72160000Y-115955000D01*
D30*
%TO.N,Net-(U3-GP2)*%
X103251000Y-119634000D02*
X99695000Y-119634000D01*
%TO.N,Net-(Q2-G)*%
X79060000Y-109540000D02*
X80010000Y-110490000D01*
X79060000Y-108887500D02*
X79060000Y-109540000D01*
%TD*%
%TA.AperFunction,Conductor*%
%TO.N,V_raw*%
G36*
X94306039Y-108282685D02*
G01*
X94326681Y-108299319D01*
X96682058Y-110654696D01*
X96715543Y-110716019D01*
X96710559Y-110785711D01*
X96688089Y-110823580D01*
X96594435Y-110931660D01*
X96594430Y-110931668D01*
X96534664Y-111062534D01*
X96514978Y-111129575D01*
X96514976Y-111129580D01*
X96494500Y-111272001D01*
X96494500Y-134945570D01*
X96474815Y-135012609D01*
X96422011Y-135058364D01*
X96370500Y-135069570D01*
X67879626Y-135069570D01*
X67874761Y-135069379D01*
X67862149Y-135068386D01*
X67851813Y-135067572D01*
X67787091Y-135061204D01*
X67706884Y-135053310D01*
X67698471Y-135051893D01*
X67637864Y-135037341D01*
X67634340Y-135036384D01*
X67532576Y-135005512D01*
X67526844Y-135003461D01*
X67464909Y-134977805D01*
X67459405Y-134975202D01*
X67428668Y-134958772D01*
X67365603Y-134925061D01*
X67362463Y-134923261D01*
X67309285Y-134890672D01*
X67302340Y-134885729D01*
X67190450Y-134793897D01*
X67175189Y-134780862D01*
X67172098Y-134778222D01*
X67168545Y-134774937D01*
X63225857Y-130832249D01*
X68816680Y-130832249D01*
X68827173Y-130934953D01*
X68827174Y-130934960D01*
X68882321Y-131101382D01*
X68882323Y-131101387D01*
X68974364Y-131250608D01*
X69098335Y-131374579D01*
X69247556Y-131466620D01*
X69247561Y-131466622D01*
X69413983Y-131521769D01*
X69413990Y-131521770D01*
X69516694Y-131532263D01*
X69516707Y-131532264D01*
X70416680Y-131532264D01*
X70416680Y-130497583D01*
X70574237Y-130532264D01*
X70712764Y-130532264D01*
X70850482Y-130517286D01*
X70916680Y-130494981D01*
X70916680Y-131532264D01*
X71816653Y-131532264D01*
X71816665Y-131532263D01*
X71919369Y-131521770D01*
X71919376Y-131521769D01*
X72085798Y-131466622D01*
X72085803Y-131466620D01*
X72235024Y-131374579D01*
X72358995Y-131250608D01*
X72451036Y-131101387D01*
X72451038Y-131101382D01*
X72506185Y-130934960D01*
X72506186Y-130934953D01*
X72516679Y-130832249D01*
X72516680Y-130832236D01*
X72516680Y-129932264D01*
X71482056Y-129932264D01*
X71490527Y-129911004D01*
X71520438Y-129728553D01*
X71517928Y-129682265D01*
X72771453Y-129682265D01*
X72790337Y-129946291D01*
X72790338Y-129946298D01*
X72846601Y-130204937D01*
X72939106Y-130452954D01*
X72939108Y-130452958D01*
X73065960Y-130685269D01*
X73065965Y-130685277D01*
X73224586Y-130897171D01*
X73224602Y-130897189D01*
X73411754Y-131084341D01*
X73411772Y-131084357D01*
X73623666Y-131242978D01*
X73623674Y-131242983D01*
X73855985Y-131369835D01*
X73855989Y-131369837D01*
X73855991Y-131369838D01*
X74104002Y-131462341D01*
X74104005Y-131462341D01*
X74104006Y-131462342D01*
X74299231Y-131504810D01*
X74362654Y-131518607D01*
X74606340Y-131536036D01*
X74626679Y-131537491D01*
X74626680Y-131537491D01*
X74626681Y-131537491D01*
X74645564Y-131536140D01*
X74890706Y-131518607D01*
X75149358Y-131462341D01*
X75397369Y-131369838D01*
X75629691Y-131242980D01*
X75841595Y-131084351D01*
X76028767Y-130897179D01*
X76187396Y-130685275D01*
X76314254Y-130452953D01*
X76406757Y-130204942D01*
X76463023Y-129946290D01*
X76481907Y-129682264D01*
X76463023Y-129418238D01*
X76406757Y-129159586D01*
X76314254Y-128911575D01*
X76294956Y-128876234D01*
X76187399Y-128679258D01*
X76187394Y-128679250D01*
X76028773Y-128467356D01*
X76028757Y-128467338D01*
X75841605Y-128280186D01*
X75841587Y-128280170D01*
X75777594Y-128232266D01*
X81671403Y-128232266D01*
X81676316Y-128288419D01*
X81686217Y-128401599D01*
X81690473Y-128450239D01*
X81690473Y-128450243D01*
X81747102Y-128661586D01*
X81747104Y-128661590D01*
X81747105Y-128661594D01*
X81755340Y-128679253D01*
X81839577Y-128859902D01*
X81851006Y-128876224D01*
X81965082Y-129039141D01*
X82119803Y-129193862D01*
X82299041Y-129319366D01*
X82497350Y-129411839D01*
X82497356Y-129411840D01*
X82497357Y-129411841D01*
X82517055Y-129417119D01*
X82708703Y-129468471D01*
X82891606Y-129484472D01*
X82926678Y-129487541D01*
X82926680Y-129487541D01*
X82926682Y-129487541D01*
X82954934Y-129485069D01*
X83144657Y-129468471D01*
X83356010Y-129411839D01*
X83554319Y-129319366D01*
X83733557Y-129193862D01*
X83888278Y-129039141D01*
X84013782Y-128859903D01*
X84106255Y-128661594D01*
X84162887Y-128450241D01*
X84181957Y-128232264D01*
X84162887Y-128014287D01*
X84106255Y-127802934D01*
X84013782Y-127604626D01*
X84013780Y-127604623D01*
X84013779Y-127604621D01*
X83888279Y-127425388D01*
X83855465Y-127392574D01*
X83733557Y-127270666D01*
X83554319Y-127145162D01*
X83554320Y-127145162D01*
X83554318Y-127145161D01*
X83455164Y-127098925D01*
X83356010Y-127052689D01*
X83356006Y-127052688D01*
X83356002Y-127052686D01*
X83144657Y-126996057D01*
X82926682Y-126976987D01*
X82926678Y-126976987D01*
X82781361Y-126989700D01*
X82708703Y-126996057D01*
X82708700Y-126996057D01*
X82497357Y-127052686D01*
X82497348Y-127052690D01*
X82299041Y-127145162D01*
X82299037Y-127145164D01*
X82119801Y-127270666D01*
X81965082Y-127425385D01*
X81839580Y-127604621D01*
X81839578Y-127604625D01*
X81747106Y-127802932D01*
X81747102Y-127802941D01*
X81690473Y-128014284D01*
X81690473Y-128014288D01*
X81671403Y-128232261D01*
X81671403Y-128232266D01*
X75777594Y-128232266D01*
X75629693Y-128121549D01*
X75629685Y-128121544D01*
X75397374Y-127994692D01*
X75397370Y-127994690D01*
X75149353Y-127902185D01*
X74890714Y-127845922D01*
X74890707Y-127845921D01*
X74626681Y-127827037D01*
X74626679Y-127827037D01*
X74362652Y-127845921D01*
X74362645Y-127845922D01*
X74104006Y-127902185D01*
X73855989Y-127994690D01*
X73855985Y-127994692D01*
X73623674Y-128121544D01*
X73623666Y-128121549D01*
X73411772Y-128280170D01*
X73411754Y-128280186D01*
X73224602Y-128467338D01*
X73224586Y-128467356D01*
X73065965Y-128679250D01*
X73065960Y-128679258D01*
X72939108Y-128911569D01*
X72939106Y-128911573D01*
X72846601Y-129159590D01*
X72790338Y-129418229D01*
X72790337Y-129418236D01*
X72771453Y-129682262D01*
X72771453Y-129682265D01*
X71517928Y-129682265D01*
X71510429Y-129543938D01*
X71479422Y-129432264D01*
X72516680Y-129432264D01*
X72516680Y-128532291D01*
X72516679Y-128532278D01*
X72506186Y-128429574D01*
X72506185Y-128429567D01*
X72451038Y-128263145D01*
X72451036Y-128263140D01*
X72358995Y-128113919D01*
X72235024Y-127989948D01*
X72085803Y-127897907D01*
X72085798Y-127897905D01*
X71919376Y-127842758D01*
X71919369Y-127842757D01*
X71816665Y-127832264D01*
X70916680Y-127832264D01*
X70916680Y-128866944D01*
X70759123Y-128832264D01*
X70620596Y-128832264D01*
X70482878Y-128847242D01*
X70416680Y-128869546D01*
X70416680Y-127832264D01*
X69516694Y-127832264D01*
X69413990Y-127842757D01*
X69413983Y-127842758D01*
X69247561Y-127897905D01*
X69247556Y-127897907D01*
X69098335Y-127989948D01*
X68974364Y-128113919D01*
X68882323Y-128263140D01*
X68882321Y-128263145D01*
X68827174Y-128429567D01*
X68827173Y-128429574D01*
X68816680Y-128532278D01*
X68816680Y-129432264D01*
X69851304Y-129432264D01*
X69842833Y-129453524D01*
X69812922Y-129635975D01*
X69822931Y-129820590D01*
X69853938Y-129932264D01*
X68816680Y-129932264D01*
X68816680Y-130832249D01*
X63225857Y-130832249D01*
X57757928Y-125364319D01*
X57754631Y-125360751D01*
X57739790Y-125343371D01*
X57647190Y-125230501D01*
X57642253Y-125223562D01*
X57610085Y-125171065D01*
X57608270Y-125167897D01*
X57603773Y-125159485D01*
X57557701Y-125073285D01*
X57555121Y-125067827D01*
X57529719Y-125006504D01*
X57527669Y-125000775D01*
X57517719Y-124967981D01*
X57496523Y-124898121D01*
X57495575Y-124894626D01*
X57481198Y-124834761D01*
X57479786Y-124826381D01*
X57465398Y-124680487D01*
X57464188Y-124665144D01*
X57463662Y-124658456D01*
X57463470Y-124653585D01*
X57463470Y-124201381D01*
X57469305Y-124181507D01*
X57463753Y-124123527D01*
X57463470Y-124117613D01*
X57463470Y-124103189D01*
X57463441Y-124102908D01*
X57463467Y-124038885D01*
X57455837Y-123989246D01*
X57458226Y-123971394D01*
X57448640Y-123938798D01*
X57446841Y-123930727D01*
X57442984Y-123905636D01*
X57442552Y-123902169D01*
X57439500Y-123870300D01*
X57425694Y-123841557D01*
X57416308Y-123811754D01*
X57415906Y-123791155D01*
X57405208Y-123770443D01*
X57397106Y-123750783D01*
X57394286Y-123741828D01*
X57390132Y-123733395D01*
X57382407Y-123713586D01*
X57378261Y-123699488D01*
X57361889Y-123676057D01*
X57348087Y-123648037D01*
X57344116Y-123625194D01*
X57318358Y-123592513D01*
X57316252Y-123589678D01*
X57301754Y-123568946D01*
X57297478Y-123561867D01*
X57285399Y-123538482D01*
X57267826Y-123520431D01*
X57239046Y-123479276D01*
X57238418Y-123478511D01*
X57187395Y-123425275D01*
X57185075Y-123422716D01*
X57178263Y-123414765D01*
X57136178Y-123361369D01*
X57125071Y-123352676D01*
X57108963Y-123333874D01*
X57084486Y-123305059D01*
X56963665Y-123162824D01*
X56959734Y-123157672D01*
X56922017Y-123102471D01*
X56871129Y-123027991D01*
X56786222Y-122900306D01*
X56767345Y-122871917D01*
X56764289Y-122866804D01*
X56686699Y-122721483D01*
X56605155Y-122560737D01*
X56602909Y-122555783D01*
X56540360Y-122399831D01*
X56479137Y-122233192D01*
X56477646Y-122228573D01*
X56431949Y-122065018D01*
X56422936Y-122027332D01*
X56390954Y-121893592D01*
X56390083Y-121889276D01*
X56378815Y-121820966D01*
X56362506Y-121722089D01*
X56362114Y-121719322D01*
X56341688Y-121546083D01*
X56341357Y-121542249D01*
X56332109Y-121372690D01*
X56332018Y-121369365D01*
X56332018Y-121350027D01*
X57572467Y-121350027D01*
X57602093Y-121619277D01*
X57602095Y-121619288D01*
X57669338Y-121876496D01*
X57670608Y-121881352D01*
X57776550Y-122130654D01*
X57848678Y-122248839D01*
X57917659Y-122361869D01*
X57917666Y-122361879D01*
X58090933Y-122570083D01*
X58090939Y-122570088D01*
X58195920Y-122664151D01*
X58292678Y-122750846D01*
X58518590Y-122900308D01*
X58763856Y-123015284D01*
X58763863Y-123015286D01*
X58763865Y-123015287D01*
X59023237Y-123093321D01*
X59023244Y-123093322D01*
X59023249Y-123093324D01*
X59291241Y-123132764D01*
X59291246Y-123132764D01*
X59494316Y-123132764D01*
X59545813Y-123128994D01*
X59696836Y-123117941D01*
X59809438Y-123092857D01*
X59961226Y-123059046D01*
X59961228Y-123059045D01*
X59961233Y-123059044D01*
X60214238Y-122962278D01*
X60450457Y-122829705D01*
X60664857Y-122664152D01*
X60852866Y-122469145D01*
X61010479Y-122248843D01*
X61104990Y-122065018D01*
X61134329Y-122007954D01*
X61134331Y-122007948D01*
X61134336Y-122007939D01*
X61221798Y-121751569D01*
X61270999Y-121485197D01*
X61280892Y-121214499D01*
X61251266Y-120945246D01*
X61182752Y-120683176D01*
X61076810Y-120433874D01*
X60935698Y-120202654D01*
X60889360Y-120146973D01*
X60762426Y-119994444D01*
X60762420Y-119994439D01*
X60560682Y-119813682D01*
X60334772Y-119664221D01*
X60304730Y-119650138D01*
X60089504Y-119549244D01*
X60089499Y-119549242D01*
X60089494Y-119549240D01*
X59830122Y-119471206D01*
X59830108Y-119471203D01*
X59714471Y-119454185D01*
X59562119Y-119431764D01*
X59359049Y-119431764D01*
X59359044Y-119431764D01*
X59156524Y-119446587D01*
X59156511Y-119446589D01*
X58892133Y-119505481D01*
X58892126Y-119505484D01*
X58639119Y-119602251D01*
X58402906Y-119734821D01*
X58402904Y-119734822D01*
X58402903Y-119734823D01*
X58354010Y-119772577D01*
X58188502Y-119900376D01*
X58000502Y-120095373D01*
X58000496Y-120095380D01*
X57842882Y-120315683D01*
X57842879Y-120315688D01*
X57719030Y-120556573D01*
X57719023Y-120556591D01*
X57631564Y-120812949D01*
X57631561Y-120812963D01*
X57607147Y-120945143D01*
X57593611Y-121018427D01*
X57582361Y-121079332D01*
X57582360Y-121079339D01*
X57572467Y-121350027D01*
X56332018Y-121350027D01*
X56332018Y-121195184D01*
X56332110Y-121191817D01*
X56332447Y-121185636D01*
X56341358Y-121022259D01*
X56341689Y-121018427D01*
X56362113Y-120845204D01*
X56362501Y-120842460D01*
X56390081Y-120675252D01*
X56390955Y-120670924D01*
X56405486Y-120610159D01*
X56431938Y-120499538D01*
X56477642Y-120335958D01*
X56479151Y-120331289D01*
X56526411Y-120202658D01*
X56540347Y-120164721D01*
X56602915Y-120008719D01*
X56605137Y-120003816D01*
X56686675Y-119843080D01*
X56764296Y-119697701D01*
X56767330Y-119692624D01*
X56850077Y-119568185D01*
X56871157Y-119536487D01*
X56932579Y-119446589D01*
X56959725Y-119406858D01*
X56963641Y-119401725D01*
X57109580Y-119229924D01*
X57123839Y-119213279D01*
X57132753Y-119207478D01*
X57178306Y-119149702D01*
X57184529Y-119142439D01*
X57186760Y-119139973D01*
X57239078Y-119085274D01*
X57267851Y-119044126D01*
X57281910Y-119032873D01*
X57297498Y-119002692D01*
X57301776Y-118995610D01*
X57316250Y-118974911D01*
X57318369Y-118972060D01*
X57338219Y-118946883D01*
X57348125Y-118916487D01*
X57361914Y-118888491D01*
X57375851Y-118873326D01*
X57382428Y-118850965D01*
X57390147Y-118831170D01*
X57394313Y-118822714D01*
X57397142Y-118813730D01*
X57405242Y-118794076D01*
X57411988Y-118781014D01*
X57416338Y-118752777D01*
X57425719Y-118722990D01*
X57438629Y-118703737D01*
X57442588Y-118662337D01*
X57443020Y-118658860D01*
X57446875Y-118633781D01*
X57448674Y-118625712D01*
X57456100Y-118600461D01*
X57455869Y-118575278D01*
X57463499Y-118525645D01*
X57463470Y-118448669D01*
X57463470Y-118446901D01*
X57463750Y-118440995D01*
X57468535Y-118390949D01*
X57463470Y-118361661D01*
X57463469Y-113129499D01*
X57483155Y-113062461D01*
X57535959Y-113016706D01*
X57587470Y-113005500D01*
X60886864Y-113005500D01*
X60953903Y-113025185D01*
X60999658Y-113077989D01*
X61009602Y-113147147D01*
X60991178Y-113196542D01*
X60989281Y-113199493D01*
X60862428Y-113431805D01*
X60862426Y-113431809D01*
X60769921Y-113679826D01*
X60713658Y-113938465D01*
X60713657Y-113938472D01*
X60694773Y-114202498D01*
X60694773Y-114202501D01*
X60713657Y-114466527D01*
X60713658Y-114466534D01*
X60769921Y-114725173D01*
X60862426Y-114973190D01*
X60862428Y-114973194D01*
X60989280Y-115205505D01*
X60989285Y-115205513D01*
X61147906Y-115417407D01*
X61147922Y-115417425D01*
X61335074Y-115604577D01*
X61335092Y-115604593D01*
X61546986Y-115763214D01*
X61546994Y-115763219D01*
X61779305Y-115890071D01*
X61779309Y-115890073D01*
X61779311Y-115890074D01*
X62027322Y-115982577D01*
X62027325Y-115982577D01*
X62027326Y-115982578D01*
X62097876Y-115997925D01*
X62285974Y-116038843D01*
X62529660Y-116056272D01*
X62549999Y-116057727D01*
X62550000Y-116057727D01*
X62550001Y-116057727D01*
X62568884Y-116056376D01*
X62814026Y-116038843D01*
X63072678Y-115982577D01*
X63320689Y-115890074D01*
X63553011Y-115763216D01*
X63764915Y-115604587D01*
X63880184Y-115489317D01*
X63941505Y-115455834D01*
X63967864Y-115453000D01*
X64793793Y-115453000D01*
X64800731Y-115453389D01*
X64839327Y-115457738D01*
X64839329Y-115457737D01*
X64839330Y-115457738D01*
X64857086Y-115456540D01*
X64907532Y-115453139D01*
X64911688Y-115453000D01*
X64923647Y-115453000D01*
X64923655Y-115453000D01*
X64965623Y-115449222D01*
X65063912Y-115442596D01*
X65068146Y-115441528D01*
X65087341Y-115438267D01*
X65091688Y-115437877D01*
X65186665Y-115411664D01*
X65282183Y-115387596D01*
X65286155Y-115385791D01*
X65304462Y-115379154D01*
X65308670Y-115377993D01*
X65397435Y-115335246D01*
X65487126Y-115294507D01*
X65490720Y-115292016D01*
X65507535Y-115282224D01*
X65511473Y-115280329D01*
X65591176Y-115222421D01*
X65672154Y-115166320D01*
X65675243Y-115163230D01*
X65690045Y-115150588D01*
X65693578Y-115148022D01*
X65761653Y-115076820D01*
X68020533Y-112817939D01*
X68081854Y-112784456D01*
X68151546Y-112789440D01*
X68189415Y-112811910D01*
X68297496Y-112905564D01*
X68297497Y-112905565D01*
X68297500Y-112905567D01*
X68297502Y-112905568D01*
X68297504Y-112905569D01*
X68382729Y-112944491D01*
X68428377Y-112965338D01*
X68466278Y-112976467D01*
X68495411Y-112985022D01*
X68495416Y-112985023D01*
X68495420Y-112985024D01*
X68637836Y-113005500D01*
X68637839Y-113005500D01*
X71285500Y-113005500D01*
X71352539Y-113025185D01*
X71398294Y-113077989D01*
X71409500Y-113129500D01*
X71409500Y-115891294D01*
X71408191Y-115909263D01*
X71404710Y-115933025D01*
X71409264Y-115985064D01*
X71409500Y-115990470D01*
X71409500Y-115998709D01*
X71413306Y-116031274D01*
X71420000Y-116107791D01*
X71421461Y-116114867D01*
X71421403Y-116114878D01*
X71423034Y-116122237D01*
X71423092Y-116122224D01*
X71424757Y-116129250D01*
X71451025Y-116201424D01*
X71475185Y-116274331D01*
X71478236Y-116280874D01*
X71478182Y-116280898D01*
X71481470Y-116287688D01*
X71481521Y-116287663D01*
X71484761Y-116294113D01*
X71484762Y-116294114D01*
X71484763Y-116294117D01*
X71506085Y-116326536D01*
X71526965Y-116358283D01*
X71567287Y-116423655D01*
X71571766Y-116429319D01*
X71571719Y-116429356D01*
X71576482Y-116435202D01*
X71576528Y-116435164D01*
X71581173Y-116440700D01*
X71637017Y-116493385D01*
X74873181Y-119729549D01*
X74906666Y-119790872D01*
X74909500Y-119817230D01*
X74909500Y-120852870D01*
X74909501Y-120852876D01*
X74915908Y-120912483D01*
X74966202Y-121047328D01*
X74966206Y-121047335D01*
X75052452Y-121162544D01*
X75052455Y-121162547D01*
X75167664Y-121248793D01*
X75167671Y-121248797D01*
X75302517Y-121299091D01*
X75302516Y-121299091D01*
X75309444Y-121299835D01*
X75362127Y-121305500D01*
X77057872Y-121305499D01*
X77117483Y-121299091D01*
X77252331Y-121248796D01*
X77367546Y-121162546D01*
X77453796Y-121047331D01*
X77504091Y-120912483D01*
X77507862Y-120877401D01*
X77534599Y-120812855D01*
X77591990Y-120773006D01*
X77661816Y-120770511D01*
X77721905Y-120806163D01*
X77732726Y-120819536D01*
X77749956Y-120844143D01*
X77910858Y-121005045D01*
X77910861Y-121005047D01*
X78097266Y-121135568D01*
X78303504Y-121231739D01*
X78523308Y-121290635D01*
X78685230Y-121304801D01*
X78749998Y-121310468D01*
X78750000Y-121310468D01*
X78750002Y-121310468D01*
X78806807Y-121305498D01*
X78976692Y-121290635D01*
X79196496Y-121231739D01*
X79402734Y-121135568D01*
X79589139Y-121005047D01*
X79750047Y-120844139D01*
X79880568Y-120657734D01*
X79907618Y-120599724D01*
X79953790Y-120547285D01*
X80020983Y-120528133D01*
X80087865Y-120548348D01*
X80132381Y-120599724D01*
X80145136Y-120627076D01*
X80159429Y-120657728D01*
X80159432Y-120657734D01*
X80289954Y-120844141D01*
X80450858Y-121005045D01*
X80450861Y-121005047D01*
X80637266Y-121135568D01*
X80843504Y-121231739D01*
X81063308Y-121290635D01*
X81225230Y-121304801D01*
X81289998Y-121310468D01*
X81290000Y-121310468D01*
X81290002Y-121310468D01*
X81346807Y-121305498D01*
X81516692Y-121290635D01*
X81736496Y-121231739D01*
X81942734Y-121135568D01*
X82129139Y-121005047D01*
X82290047Y-120844139D01*
X82420568Y-120657734D01*
X82447618Y-120599724D01*
X82493790Y-120547285D01*
X82560983Y-120528133D01*
X82627865Y-120548348D01*
X82672381Y-120599724D01*
X82685136Y-120627076D01*
X82699429Y-120657728D01*
X82699432Y-120657734D01*
X82829954Y-120844141D01*
X82990858Y-121005045D01*
X82990861Y-121005047D01*
X83177266Y-121135568D01*
X83383504Y-121231739D01*
X83603308Y-121290635D01*
X83765230Y-121304801D01*
X83829998Y-121310468D01*
X83830000Y-121310468D01*
X83830002Y-121310468D01*
X83886807Y-121305498D01*
X84056692Y-121290635D01*
X84276496Y-121231739D01*
X84482734Y-121135568D01*
X84669139Y-121005047D01*
X84830047Y-120844139D01*
X84960568Y-120657734D01*
X84960572Y-120657725D01*
X84963276Y-120653043D01*
X84965564Y-120654364D01*
X85004197Y-120610159D01*
X85071319Y-120590758D01*
X85138275Y-120610726D01*
X85158476Y-120627076D01*
X86639861Y-122108460D01*
X86673346Y-122169783D01*
X86676180Y-122196141D01*
X86676180Y-128174954D01*
X86675944Y-128180360D01*
X86671403Y-128232262D01*
X86671403Y-128232267D01*
X86676035Y-128285213D01*
X86676179Y-128288405D01*
X86681041Y-128342437D01*
X86690474Y-128450255D01*
X86690569Y-128450794D01*
X86691260Y-128455987D01*
X86691300Y-128456440D01*
X86691303Y-128456456D01*
X86719953Y-128560260D01*
X86719953Y-128560261D01*
X86747105Y-128661594D01*
X86747106Y-128661596D01*
X86749625Y-128668516D01*
X86751129Y-128673226D01*
X86751186Y-128673435D01*
X86796590Y-128767718D01*
X86839577Y-128859902D01*
X86842283Y-128864588D01*
X86842158Y-128864660D01*
X86848443Y-128875392D01*
X86848844Y-128876224D01*
X86848847Y-128876230D01*
X86848851Y-128876237D01*
X86902183Y-128949641D01*
X86908561Y-128958420D01*
X86965078Y-129039137D01*
X86965081Y-129039140D01*
X86965082Y-129039141D01*
X86965949Y-129040008D01*
X86978592Y-129054811D01*
X86981153Y-129058336D01*
X86981157Y-129058340D01*
X86981158Y-129058342D01*
X87052336Y-129126395D01*
X87119803Y-129193862D01*
X87123641Y-129196549D01*
X87138209Y-129208498D01*
X87143853Y-129213895D01*
X87223438Y-129266428D01*
X87299036Y-129319363D01*
X87299038Y-129319363D01*
X87299041Y-129319366D01*
X87306414Y-129322804D01*
X87322308Y-129331691D01*
X87331712Y-129337899D01*
X87416533Y-129374153D01*
X87497350Y-129411839D01*
X87508534Y-129414835D01*
X87525164Y-129420584D01*
X87538692Y-129426367D01*
X87625587Y-129446200D01*
X87708703Y-129468471D01*
X87727914Y-129470151D01*
X87736298Y-129471469D01*
X87758143Y-129476455D01*
X87844077Y-129480314D01*
X87926680Y-129487541D01*
X87949150Y-129485574D01*
X87957340Y-129485401D01*
X87983010Y-129486554D01*
X88063744Y-129475617D01*
X88066606Y-129475298D01*
X88144657Y-129468471D01*
X88169629Y-129461778D01*
X88177345Y-129460228D01*
X88206067Y-129456339D01*
X88263324Y-129437733D01*
X88280412Y-129432182D01*
X88283496Y-129431267D01*
X88356010Y-129411839D01*
X88382423Y-129399521D01*
X88389443Y-129396755D01*
X88420144Y-129386781D01*
X88486120Y-129351276D01*
X88489255Y-129349704D01*
X88554319Y-129319366D01*
X88580890Y-129300759D01*
X88587041Y-129296969D01*
X88618361Y-129280116D01*
X88674363Y-129235454D01*
X88677434Y-129233158D01*
X88733557Y-129193862D01*
X88758816Y-129168601D01*
X88763986Y-129163981D01*
X88794346Y-129139772D01*
X88839312Y-129088303D01*
X88842142Y-129085275D01*
X88888278Y-129039141D01*
X88910645Y-129007194D01*
X88914730Y-129001979D01*
X88942445Y-128970260D01*
X88975815Y-128914407D01*
X88978242Y-128910656D01*
X89010451Y-128864660D01*
X89013778Y-128859909D01*
X89013778Y-128859907D01*
X89013782Y-128859903D01*
X89031653Y-128821577D01*
X89034601Y-128816014D01*
X89057895Y-128777028D01*
X89079610Y-128719164D01*
X89081451Y-128714782D01*
X89106255Y-128661594D01*
X89118045Y-128617589D01*
X89119885Y-128611854D01*
X89136986Y-128566290D01*
X89136987Y-128566288D01*
X89147435Y-128508711D01*
X89148548Y-128503752D01*
X89158303Y-128467349D01*
X89162887Y-128450241D01*
X89167144Y-128401570D01*
X89167897Y-128395959D01*
X89174819Y-128357820D01*
X89177180Y-128344814D01*
X89177180Y-128289572D01*
X89177416Y-128284166D01*
X89181957Y-128232264D01*
X89181957Y-128232262D01*
X89177416Y-128180360D01*
X89177180Y-128174954D01*
X89177180Y-121943535D01*
X89196865Y-121876496D01*
X89249669Y-121830741D01*
X89318827Y-121820797D01*
X89371032Y-121841081D01*
X89524163Y-121945484D01*
X89524165Y-121945485D01*
X89767219Y-122062533D01*
X89767217Y-122062533D01*
X90025017Y-122142054D01*
X90025023Y-122142056D01*
X90291781Y-122182263D01*
X90291790Y-122182264D01*
X90561570Y-122182264D01*
X90561578Y-122182263D01*
X90828336Y-122142056D01*
X90828342Y-122142054D01*
X91086141Y-122062533D01*
X91329201Y-121945482D01*
X91511830Y-121820966D01*
X90861381Y-121170518D01*
X90958600Y-121114390D01*
X91099194Y-120987798D01*
X91210396Y-120834743D01*
X91217270Y-120819302D01*
X91864383Y-121466415D01*
X91864384Y-121466414D01*
X91918073Y-121399092D01*
X91918080Y-121399081D01*
X92052970Y-121165445D01*
X92151531Y-120914316D01*
X92151537Y-120914297D01*
X92211566Y-120651292D01*
X92211566Y-120651290D01*
X92231727Y-120382268D01*
X92231727Y-120382259D01*
X92211566Y-120113237D01*
X92211566Y-120113235D01*
X92151537Y-119850230D01*
X92151531Y-119850211D01*
X92052970Y-119599082D01*
X92052971Y-119599082D01*
X91918077Y-119365441D01*
X91864384Y-119298111D01*
X91217270Y-119945225D01*
X91210396Y-119929786D01*
X91099194Y-119776730D01*
X90958600Y-119650138D01*
X90861381Y-119594009D01*
X91511830Y-118943560D01*
X91329197Y-118819043D01*
X91329196Y-118819042D01*
X91086140Y-118701994D01*
X91086142Y-118701994D01*
X90828342Y-118622473D01*
X90828336Y-118622471D01*
X90561578Y-118582264D01*
X90291781Y-118582264D01*
X90025023Y-118622471D01*
X90025017Y-118622473D01*
X89767218Y-118701994D01*
X89524165Y-118819042D01*
X89524156Y-118819047D01*
X89341528Y-118943560D01*
X89991978Y-119594009D01*
X89894760Y-119650138D01*
X89754166Y-119776730D01*
X89642964Y-119929785D01*
X89636089Y-119945226D01*
X88988975Y-119298112D01*
X88935280Y-119365444D01*
X88800389Y-119599082D01*
X88701828Y-119850211D01*
X88701822Y-119850230D01*
X88641793Y-120113235D01*
X88641793Y-120113236D01*
X88629909Y-120271813D01*
X88605270Y-120337194D01*
X88549194Y-120378875D01*
X88479486Y-120383622D01*
X88418575Y-120350227D01*
X85491230Y-117422882D01*
X85486593Y-117417693D01*
X85462381Y-117387332D01*
X85410905Y-117342359D01*
X85407871Y-117339523D01*
X85399403Y-117331055D01*
X85367055Y-117304049D01*
X85292870Y-117239235D01*
X85289115Y-117236991D01*
X85273247Y-117225732D01*
X85269893Y-117222932D01*
X85269892Y-117222931D01*
X85269887Y-117222927D01*
X85189254Y-117177176D01*
X85184214Y-117174316D01*
X85099638Y-117123785D01*
X85099635Y-117123783D01*
X85095543Y-117122248D01*
X85077918Y-117114002D01*
X85074119Y-117111846D01*
X84981127Y-117079307D01*
X84888903Y-117044694D01*
X84888893Y-117044691D01*
X84884597Y-117043912D01*
X84865792Y-117038949D01*
X84861658Y-117037502D01*
X84861653Y-117037501D01*
X84764346Y-117022089D01*
X84667424Y-117004500D01*
X84667421Y-117004500D01*
X84663046Y-117004500D01*
X84643643Y-117002972D01*
X84639334Y-117002289D01*
X84540852Y-117004500D01*
X82818697Y-117004500D01*
X82811758Y-117004110D01*
X82784907Y-117001085D01*
X82773174Y-116999763D01*
X82773168Y-116999762D01*
X82727704Y-117002828D01*
X82704976Y-117004360D01*
X82700823Y-117004500D01*
X82688840Y-117004500D01*
X82646857Y-117008278D01*
X82548589Y-117014903D01*
X82544348Y-117015972D01*
X82525175Y-117019230D01*
X82520812Y-117019622D01*
X82520806Y-117019624D01*
X82425844Y-117045832D01*
X82330315Y-117069903D01*
X82330312Y-117069904D01*
X82326319Y-117071718D01*
X82308059Y-117078338D01*
X82303850Y-117079500D01*
X82303835Y-117079505D01*
X82303830Y-117079507D01*
X82303825Y-117079509D01*
X82303826Y-117079509D01*
X82215070Y-117122250D01*
X82125375Y-117162991D01*
X82121775Y-117165486D01*
X82104971Y-117175271D01*
X82101034Y-117177167D01*
X82101019Y-117177176D01*
X82058957Y-117207735D01*
X82021335Y-117235070D01*
X81993281Y-117254505D01*
X81940346Y-117291178D01*
X81937237Y-117294287D01*
X81922466Y-117306902D01*
X81918928Y-117309472D01*
X81918922Y-117309478D01*
X81850863Y-117380662D01*
X81576059Y-117655466D01*
X81467932Y-117784980D01*
X81467928Y-117784986D01*
X81356847Y-117980754D01*
X81282502Y-118193213D01*
X81282501Y-118193216D01*
X81247289Y-118415536D01*
X81251127Y-118586523D01*
X81232951Y-118653987D01*
X81181187Y-118700915D01*
X81137966Y-118712833D01*
X81063312Y-118719364D01*
X81063302Y-118719366D01*
X80843511Y-118778258D01*
X80843502Y-118778261D01*
X80637267Y-118874431D01*
X80637265Y-118874432D01*
X80450858Y-119004954D01*
X80289954Y-119165858D01*
X80159432Y-119352265D01*
X80159431Y-119352267D01*
X80155329Y-119361064D01*
X80133971Y-119406868D01*
X80132382Y-119410275D01*
X80086209Y-119462714D01*
X80019016Y-119481866D01*
X79952135Y-119461650D01*
X79907618Y-119410275D01*
X79880568Y-119352266D01*
X79750047Y-119165861D01*
X79750045Y-119165858D01*
X79589141Y-119004954D01*
X79402734Y-118874432D01*
X79402732Y-118874431D01*
X79196497Y-118778261D01*
X79196488Y-118778258D01*
X78976697Y-118719366D01*
X78976693Y-118719365D01*
X78976692Y-118719365D01*
X78976691Y-118719364D01*
X78976686Y-118719364D01*
X78750002Y-118699532D01*
X78749998Y-118699532D01*
X78523313Y-118719364D01*
X78523302Y-118719366D01*
X78303511Y-118778258D01*
X78303502Y-118778261D01*
X78097267Y-118874431D01*
X78097265Y-118874432D01*
X77910858Y-119004954D01*
X77749954Y-119165858D01*
X77732725Y-119190464D01*
X77678147Y-119234088D01*
X77608648Y-119241280D01*
X77546294Y-119209757D01*
X77510882Y-119149526D01*
X77507861Y-119132591D01*
X77506617Y-119121021D01*
X77504091Y-119097517D01*
X77499525Y-119085276D01*
X77453797Y-118962671D01*
X77453793Y-118962664D01*
X77367547Y-118847455D01*
X77367544Y-118847452D01*
X77252335Y-118761206D01*
X77252328Y-118761202D01*
X77117482Y-118710908D01*
X77117483Y-118710908D01*
X77057883Y-118704501D01*
X77057881Y-118704500D01*
X77057873Y-118704500D01*
X77057865Y-118704500D01*
X76022229Y-118704500D01*
X75955190Y-118684815D01*
X75934548Y-118668181D01*
X72946819Y-115680451D01*
X72913334Y-115619128D01*
X72910500Y-115592770D01*
X72910500Y-112694705D01*
X72930185Y-112627666D01*
X72982989Y-112581911D01*
X73052147Y-112571967D01*
X73105335Y-112592929D01*
X73132293Y-112611692D01*
X73171949Y-112639294D01*
X73171950Y-112639294D01*
X73171951Y-112639295D01*
X73358942Y-112719540D01*
X73558259Y-112760500D01*
X74287284Y-112760500D01*
X74376358Y-112762757D01*
X74376358Y-112762756D01*
X74376363Y-112762757D01*
X74436753Y-112751932D01*
X74441412Y-112751280D01*
X74483607Y-112746988D01*
X74502438Y-112745074D01*
X74535227Y-112734786D01*
X74542840Y-112732918D01*
X74576653Y-112726858D01*
X74633621Y-112704101D01*
X74638053Y-112702524D01*
X74640345Y-112701805D01*
X74696588Y-112684159D01*
X74726627Y-112667484D01*
X74733708Y-112664122D01*
X74765617Y-112651377D01*
X74766045Y-112651094D01*
X74766315Y-112651012D01*
X74771189Y-112648466D01*
X74771663Y-112649373D01*
X74832847Y-112630633D01*
X74900110Y-112649537D01*
X74946477Y-112701805D01*
X74954064Y-112722532D01*
X74983258Y-112831488D01*
X74983261Y-112831497D01*
X75079431Y-113037732D01*
X75079432Y-113037734D01*
X75209954Y-113224141D01*
X75370858Y-113385045D01*
X75370861Y-113385047D01*
X75557266Y-113515568D01*
X75763504Y-113611739D01*
X75763509Y-113611740D01*
X75763511Y-113611741D01*
X75816415Y-113625916D01*
X75983308Y-113670635D01*
X76145230Y-113684801D01*
X76209998Y-113690468D01*
X76210000Y-113690468D01*
X76210002Y-113690468D01*
X76266672Y-113685509D01*
X76436692Y-113670635D01*
X76656496Y-113611739D01*
X76862734Y-113515568D01*
X77049139Y-113385047D01*
X77210047Y-113224139D01*
X77340568Y-113037734D01*
X77367618Y-112979724D01*
X77413790Y-112927285D01*
X77480983Y-112908133D01*
X77547865Y-112928348D01*
X77592381Y-112979724D01*
X77604401Y-113005500D01*
X77619429Y-113037728D01*
X77619432Y-113037734D01*
X77749954Y-113224141D01*
X77910858Y-113385045D01*
X77910861Y-113385047D01*
X78097266Y-113515568D01*
X78303504Y-113611739D01*
X78303509Y-113611740D01*
X78303511Y-113611741D01*
X78356415Y-113625916D01*
X78523308Y-113670635D01*
X78685230Y-113684801D01*
X78749998Y-113690468D01*
X78750000Y-113690468D01*
X78750002Y-113690468D01*
X78806672Y-113685509D01*
X78976692Y-113670635D01*
X79196496Y-113611739D01*
X79402734Y-113515568D01*
X79589139Y-113385047D01*
X79750047Y-113224139D01*
X79880568Y-113037734D01*
X79907618Y-112979724D01*
X79953790Y-112927285D01*
X80020983Y-112908133D01*
X80087865Y-112928348D01*
X80132381Y-112979724D01*
X80144401Y-113005500D01*
X80159429Y-113037728D01*
X80159432Y-113037734D01*
X80289954Y-113224141D01*
X80450858Y-113385045D01*
X80450861Y-113385047D01*
X80637266Y-113515568D01*
X80843504Y-113611739D01*
X80843509Y-113611740D01*
X80843511Y-113611741D01*
X80896415Y-113625916D01*
X81063308Y-113670635D01*
X81225230Y-113684801D01*
X81289998Y-113690468D01*
X81290000Y-113690468D01*
X81290002Y-113690468D01*
X81346673Y-113685509D01*
X81516692Y-113670635D01*
X81736496Y-113611739D01*
X81942734Y-113515568D01*
X82129139Y-113385047D01*
X82290047Y-113224139D01*
X82420568Y-113037734D01*
X82447618Y-112979724D01*
X82493790Y-112927285D01*
X82560983Y-112908133D01*
X82627865Y-112928348D01*
X82672381Y-112979724D01*
X82684401Y-113005500D01*
X82699429Y-113037728D01*
X82699432Y-113037734D01*
X82829954Y-113224141D01*
X82990858Y-113385045D01*
X82990861Y-113385047D01*
X83177266Y-113515568D01*
X83383504Y-113611739D01*
X83383509Y-113611740D01*
X83383511Y-113611741D01*
X83436415Y-113625916D01*
X83603308Y-113670635D01*
X83765230Y-113684801D01*
X83829998Y-113690468D01*
X83830000Y-113690468D01*
X83830002Y-113690468D01*
X83886673Y-113685509D01*
X84056692Y-113670635D01*
X84276496Y-113611739D01*
X84482734Y-113515568D01*
X84669139Y-113385047D01*
X84830047Y-113224139D01*
X84960568Y-113037734D01*
X84960568Y-113037732D01*
X84963673Y-113033299D01*
X84964612Y-113033956D01*
X85011029Y-112989693D01*
X85079636Y-112976467D01*
X85102792Y-112980929D01*
X85116729Y-112985022D01*
X85116734Y-112985023D01*
X85116738Y-112985024D01*
X85259154Y-113005500D01*
X85259157Y-113005500D01*
X86802180Y-113005500D01*
X86869219Y-113025185D01*
X86914974Y-113077989D01*
X86926180Y-113129500D01*
X86926180Y-115941527D01*
X86941302Y-116109562D01*
X86941303Y-116109568D01*
X87001183Y-116326536D01*
X87001188Y-116326549D01*
X87098847Y-116529342D01*
X87098851Y-116529350D01*
X87231153Y-116711448D01*
X87231154Y-116711450D01*
X87393856Y-116867009D01*
X87581713Y-116991012D01*
X87788684Y-117079476D01*
X87788687Y-117079477D01*
X87788692Y-117079479D01*
X88008143Y-117129567D01*
X88233010Y-117139666D01*
X88456067Y-117109451D01*
X88670144Y-117039893D01*
X88868361Y-116933228D01*
X89044346Y-116792884D01*
X89192445Y-116623372D01*
X89307895Y-116430140D01*
X89386987Y-116219400D01*
X89407240Y-116107797D01*
X89427180Y-115997925D01*
X89427180Y-113882268D01*
X91621633Y-113882268D01*
X91641793Y-114151290D01*
X91641793Y-114151292D01*
X91701822Y-114414297D01*
X91701828Y-114414316D01*
X91800389Y-114665445D01*
X91800388Y-114665445D01*
X91935282Y-114899086D01*
X91988974Y-114966415D01*
X92636089Y-114319300D01*
X92642964Y-114334742D01*
X92754166Y-114487798D01*
X92894760Y-114614390D01*
X92991977Y-114670518D01*
X92341528Y-115320966D01*
X92524163Y-115445484D01*
X92524165Y-115445485D01*
X92767219Y-115562533D01*
X92767217Y-115562533D01*
X93025017Y-115642054D01*
X93025023Y-115642056D01*
X93291781Y-115682263D01*
X93291790Y-115682264D01*
X93561570Y-115682264D01*
X93561578Y-115682263D01*
X93828336Y-115642056D01*
X93828342Y-115642054D01*
X94086141Y-115562533D01*
X94329201Y-115445482D01*
X94511830Y-115320966D01*
X93861381Y-114670518D01*
X93958600Y-114614390D01*
X94099194Y-114487798D01*
X94210396Y-114334743D01*
X94217270Y-114319302D01*
X94864383Y-114966415D01*
X94864384Y-114966414D01*
X94918073Y-114899092D01*
X94918080Y-114899081D01*
X95052970Y-114665445D01*
X95151531Y-114414316D01*
X95151537Y-114414297D01*
X95211566Y-114151292D01*
X95211566Y-114151290D01*
X95231727Y-113882268D01*
X95231727Y-113882259D01*
X95211566Y-113613237D01*
X95211566Y-113613235D01*
X95151537Y-113350230D01*
X95151531Y-113350211D01*
X95052970Y-113099082D01*
X95052971Y-113099082D01*
X94918077Y-112865441D01*
X94864384Y-112798111D01*
X94217270Y-113445225D01*
X94210396Y-113429786D01*
X94099194Y-113276730D01*
X93958600Y-113150138D01*
X93861381Y-113094009D01*
X94511830Y-112443560D01*
X94329197Y-112319043D01*
X94329196Y-112319042D01*
X94086140Y-112201994D01*
X94086142Y-112201994D01*
X93828342Y-112122473D01*
X93828336Y-112122471D01*
X93561578Y-112082264D01*
X93291781Y-112082264D01*
X93025023Y-112122471D01*
X93025017Y-112122473D01*
X92767218Y-112201994D01*
X92524165Y-112319042D01*
X92524156Y-112319047D01*
X92341528Y-112443560D01*
X92991978Y-113094009D01*
X92894760Y-113150138D01*
X92754166Y-113276730D01*
X92642964Y-113429785D01*
X92636089Y-113445226D01*
X91988975Y-112798112D01*
X91935280Y-112865444D01*
X91800389Y-113099082D01*
X91701828Y-113350211D01*
X91701822Y-113350230D01*
X91641793Y-113613235D01*
X91641793Y-113613237D01*
X91621633Y-113882259D01*
X91621633Y-113882268D01*
X89427180Y-113882268D01*
X89427180Y-111097886D01*
X89427569Y-111090947D01*
X89431918Y-111052353D01*
X89427319Y-110984147D01*
X89427180Y-110979992D01*
X89427180Y-110968029D01*
X89427180Y-110968025D01*
X89423402Y-110926056D01*
X89416776Y-110827768D01*
X89415707Y-110823528D01*
X89412448Y-110804349D01*
X89412057Y-110799992D01*
X89385844Y-110705014D01*
X89361776Y-110609497D01*
X89359969Y-110605519D01*
X89353333Y-110587214D01*
X89352172Y-110583008D01*
X89309426Y-110494244D01*
X89268691Y-110404562D01*
X89268689Y-110404558D01*
X89268687Y-110404554D01*
X89268684Y-110404549D01*
X89266015Y-110399847D01*
X89250045Y-110331827D01*
X89273385Y-110265971D01*
X89292652Y-110244932D01*
X89311347Y-110228734D01*
X89405567Y-110120000D01*
X89465338Y-109989123D01*
X89485023Y-109922084D01*
X89485024Y-109922080D01*
X89505500Y-109779664D01*
X89505500Y-108387000D01*
X89525185Y-108319961D01*
X89577989Y-108274206D01*
X89629500Y-108263000D01*
X94239000Y-108263000D01*
X94306039Y-108282685D01*
G37*
%TD.AperFunction*%
%TD*%
%TA.AperFunction,Conductor*%
%TO.N,Net-(SW1A-A)*%
G36*
X94943039Y-87019685D02*
G01*
X94988794Y-87072489D01*
X95000000Y-87124000D01*
X95000000Y-88674568D01*
X94980315Y-88741607D01*
X94927511Y-88787362D01*
X94869049Y-88798373D01*
X94864384Y-88798111D01*
X94217270Y-89445225D01*
X94210396Y-89429786D01*
X94099194Y-89276730D01*
X93958600Y-89150138D01*
X93861381Y-89094009D01*
X94511830Y-88443560D01*
X94329197Y-88319043D01*
X94329196Y-88319042D01*
X94086140Y-88201994D01*
X94086142Y-88201994D01*
X93828342Y-88122473D01*
X93828336Y-88122471D01*
X93561578Y-88082264D01*
X93291781Y-88082264D01*
X93025023Y-88122471D01*
X93025017Y-88122473D01*
X92767218Y-88201994D01*
X92524165Y-88319042D01*
X92524156Y-88319047D01*
X92341528Y-88443560D01*
X92991978Y-89094009D01*
X92894760Y-89150138D01*
X92754166Y-89276730D01*
X92642964Y-89429785D01*
X92636089Y-89445225D01*
X91988975Y-88798112D01*
X91935280Y-88865444D01*
X91800389Y-89099082D01*
X91701828Y-89350211D01*
X91701822Y-89350230D01*
X91641793Y-89613235D01*
X91641793Y-89613237D01*
X91621633Y-89882259D01*
X91621633Y-89882268D01*
X91641793Y-90151290D01*
X91641793Y-90151292D01*
X91701822Y-90414297D01*
X91701828Y-90414316D01*
X91800389Y-90665445D01*
X91800388Y-90665445D01*
X91935282Y-90899086D01*
X91988974Y-90966415D01*
X91988975Y-90966415D01*
X92636089Y-90319301D01*
X92642964Y-90334742D01*
X92754166Y-90487798D01*
X92894760Y-90614390D01*
X92991977Y-90670518D01*
X92341528Y-91320966D01*
X92524163Y-91445484D01*
X92524165Y-91445485D01*
X92767219Y-91562533D01*
X92767217Y-91562533D01*
X93025017Y-91642054D01*
X93025023Y-91642056D01*
X93291781Y-91682263D01*
X93291790Y-91682264D01*
X93561570Y-91682264D01*
X93561578Y-91682263D01*
X93828336Y-91642056D01*
X93828342Y-91642054D01*
X94086141Y-91562533D01*
X94329201Y-91445482D01*
X94511830Y-91320966D01*
X93861381Y-90670518D01*
X93958600Y-90614390D01*
X94099194Y-90487798D01*
X94210396Y-90334743D01*
X94217270Y-90319302D01*
X94864382Y-90966414D01*
X94869047Y-90966153D01*
X94937085Y-90982048D01*
X94985729Y-91032203D01*
X95000000Y-91089958D01*
X95000000Y-99876000D01*
X94980315Y-99943039D01*
X94927511Y-99988794D01*
X94876000Y-100000000D01*
X89124000Y-100000000D01*
X89056961Y-99980315D01*
X89011206Y-99927511D01*
X89000000Y-99876000D01*
X89000000Y-97545818D01*
X89000000Y-97480981D01*
X89025534Y-97429967D01*
X89028610Y-97426780D01*
X89636088Y-96819300D01*
X89642964Y-96834742D01*
X89754166Y-96987798D01*
X89894760Y-97114390D01*
X89991977Y-97170518D01*
X89341528Y-97820966D01*
X89524163Y-97945484D01*
X89524165Y-97945485D01*
X89767219Y-98062533D01*
X89767217Y-98062533D01*
X90025017Y-98142054D01*
X90025023Y-98142056D01*
X90291781Y-98182263D01*
X90291790Y-98182264D01*
X90561570Y-98182264D01*
X90561578Y-98182263D01*
X90828336Y-98142056D01*
X90828342Y-98142054D01*
X91086141Y-98062533D01*
X91329201Y-97945482D01*
X91511830Y-97820966D01*
X90861381Y-97170518D01*
X90958600Y-97114390D01*
X91099194Y-96987798D01*
X91210396Y-96834743D01*
X91217270Y-96819302D01*
X91864383Y-97466415D01*
X91864384Y-97466414D01*
X91918073Y-97399092D01*
X91918080Y-97399081D01*
X92052970Y-97165445D01*
X92151531Y-96914316D01*
X92151537Y-96914297D01*
X92211566Y-96651292D01*
X92211566Y-96651290D01*
X92231727Y-96382268D01*
X92231727Y-96382259D01*
X92211566Y-96113237D01*
X92211566Y-96113235D01*
X92151537Y-95850230D01*
X92151531Y-95850211D01*
X92052970Y-95599082D01*
X92052971Y-95599082D01*
X91918077Y-95365441D01*
X91864384Y-95298111D01*
X91217270Y-95945225D01*
X91210396Y-95929786D01*
X91099194Y-95776730D01*
X90958600Y-95650138D01*
X90861381Y-95594009D01*
X91511830Y-94943560D01*
X91329197Y-94819043D01*
X91329196Y-94819042D01*
X91086140Y-94701994D01*
X91086142Y-94701994D01*
X90828342Y-94622473D01*
X90828336Y-94622471D01*
X90561578Y-94582264D01*
X90291781Y-94582264D01*
X90025023Y-94622471D01*
X90025017Y-94622473D01*
X89767218Y-94701994D01*
X89524165Y-94819042D01*
X89524156Y-94819047D01*
X89341528Y-94943560D01*
X89991978Y-95594009D01*
X89894760Y-95650138D01*
X89754166Y-95776730D01*
X89642964Y-95929785D01*
X89636089Y-95945226D01*
X89028610Y-95337747D01*
X88999999Y-95285351D01*
X89000000Y-87123999D01*
X89019685Y-87056961D01*
X89072489Y-87011206D01*
X89124000Y-87000000D01*
X94876000Y-87000000D01*
X94943039Y-87019685D01*
G37*
%TD.AperFunction*%
%TD*%
%TA.AperFunction,Conductor*%
%TO.N,V_raw2*%
G36*
X100086373Y-76904768D02*
G01*
X100107671Y-76905943D01*
X100245062Y-76913525D01*
X100247990Y-76913759D01*
X100406197Y-76930237D01*
X100413046Y-76930951D01*
X100416832Y-76931464D01*
X100500677Y-76945459D01*
X100574883Y-76957846D01*
X100738456Y-76992294D01*
X100742509Y-76993292D01*
X100896663Y-77036898D01*
X101055500Y-77088013D01*
X101059800Y-77089576D01*
X101179882Y-77138367D01*
X101208199Y-77149873D01*
X101229078Y-77159075D01*
X101360530Y-77217011D01*
X101365025Y-77219213D01*
X101505966Y-77295516D01*
X101650091Y-77377828D01*
X101650093Y-77377829D01*
X101654672Y-77380716D01*
X101724797Y-77429360D01*
X101786753Y-77472339D01*
X101839653Y-77510319D01*
X101920910Y-77568660D01*
X101925452Y-77572256D01*
X102012561Y-77648155D01*
X102047647Y-77678727D01*
X102169822Y-77787289D01*
X102174269Y-77791659D01*
X102289092Y-77916459D01*
X102328650Y-77959735D01*
X102335265Y-77973259D01*
X102386079Y-78022717D01*
X102388592Y-78025311D01*
X102390354Y-78027238D01*
X102392078Y-78029125D01*
X102394159Y-78031523D01*
X102436118Y-78082455D01*
X102436238Y-78082548D01*
X102449424Y-78098539D01*
X102506463Y-78147143D01*
X102516092Y-78161857D01*
X102535370Y-78173712D01*
X102550829Y-78184948D01*
X102584117Y-78213314D01*
X102679088Y-78268868D01*
X102692209Y-78282786D01*
X102706382Y-78287654D01*
X102728715Y-78297898D01*
X102736864Y-78302665D01*
X102745703Y-78305920D01*
X102745722Y-78305927D01*
X102767823Y-78316661D01*
X102773638Y-78320237D01*
X102799671Y-78325794D01*
X102902923Y-78363819D01*
X102945978Y-78371494D01*
X102964484Y-78376291D01*
X102978667Y-78381161D01*
X103003372Y-78381725D01*
X103077138Y-78394876D01*
X103140913Y-78394934D01*
X103141030Y-78394958D01*
X103165520Y-78394958D01*
X103165619Y-78394958D01*
X103166119Y-78394958D01*
X103166710Y-78394958D01*
X103173537Y-78395335D01*
X103221143Y-78400605D01*
X103255142Y-78394958D01*
X114574458Y-78394958D01*
X114580171Y-78395222D01*
X114588938Y-78396032D01*
X114609438Y-78397928D01*
X114763565Y-78414585D01*
X114784103Y-78418581D01*
X114793002Y-78421107D01*
X114848078Y-78436745D01*
X114850740Y-78437569D01*
X114935234Y-78465828D01*
X114961094Y-78474478D01*
X114969016Y-78477751D01*
X115040076Y-78513053D01*
X115044216Y-78515313D01*
X115138194Y-78571381D01*
X115143699Y-78575081D01*
X115200835Y-78618112D01*
X115208426Y-78623829D01*
X115213531Y-78628122D01*
X115293337Y-78702931D01*
X115296685Y-78706320D01*
X115328027Y-78740584D01*
X115350229Y-78764857D01*
X115355553Y-78771552D01*
X115421501Y-78867423D01*
X115423049Y-78869788D01*
X115458155Y-78926228D01*
X115467669Y-78944870D01*
X115526457Y-79088954D01*
X115536776Y-79115404D01*
X115538770Y-79121397D01*
X115926199Y-80520586D01*
X116054979Y-80986292D01*
X116344186Y-82114999D01*
X116541563Y-82888639D01*
X116794592Y-83961858D01*
X116990692Y-84800078D01*
X117217364Y-85851974D01*
X117402223Y-86719994D01*
X117605727Y-87761580D01*
X117775979Y-88647563D01*
X117817460Y-88884027D01*
X117957761Y-89683829D01*
X118111823Y-90582067D01*
X118272638Y-91615610D01*
X118409617Y-92522677D01*
X118549878Y-93554834D01*
X118669274Y-94468830D01*
X118789209Y-95500182D01*
X118890669Y-96419569D01*
X118990459Y-97450728D01*
X119073731Y-98374210D01*
X119153479Y-99405452D01*
X119218388Y-100331949D01*
X119278160Y-101363414D01*
X119324594Y-102292073D01*
X119364425Y-103323716D01*
X119392313Y-104253790D01*
X119412224Y-105285579D01*
X119421525Y-106216361D01*
X119421525Y-107248166D01*
X119412224Y-108178948D01*
X119392313Y-109210737D01*
X119364425Y-110140811D01*
X119324594Y-111172454D01*
X119278160Y-112101113D01*
X119218388Y-113132578D01*
X119153479Y-114059075D01*
X119073731Y-115090317D01*
X118990459Y-116013799D01*
X118890669Y-117044958D01*
X118789209Y-117964345D01*
X118669274Y-118995697D01*
X118549878Y-119909693D01*
X118409617Y-120941850D01*
X118272638Y-121848917D01*
X118111823Y-122882460D01*
X117957761Y-123780698D01*
X117775980Y-124816959D01*
X117605727Y-125702947D01*
X117402223Y-126744533D01*
X117217364Y-127612553D01*
X116990692Y-128664449D01*
X116794592Y-129502669D01*
X116541563Y-130575888D01*
X116344186Y-131349528D01*
X116054979Y-132478235D01*
X115926199Y-132943941D01*
X115538798Y-134343029D01*
X115536807Y-134349017D01*
X115526255Y-134376072D01*
X115467662Y-134519692D01*
X115458148Y-134538334D01*
X115423142Y-134594625D01*
X115421576Y-134597019D01*
X115355551Y-134693017D01*
X115350211Y-134699733D01*
X115296764Y-134758173D01*
X115293415Y-134761563D01*
X115213508Y-134836472D01*
X115208402Y-134840767D01*
X115143780Y-134889438D01*
X115138241Y-134893160D01*
X115044187Y-134949275D01*
X115040002Y-134951558D01*
X114969074Y-134986793D01*
X114961144Y-134990070D01*
X114850638Y-135027025D01*
X114847905Y-135027869D01*
X114784161Y-135045965D01*
X114763606Y-135049962D01*
X114608456Y-135066709D01*
X114580345Y-135069307D01*
X114574637Y-135069570D01*
X103254075Y-135069570D01*
X103231074Y-135062816D01*
X103173530Y-135069193D01*
X103166696Y-135069570D01*
X103153826Y-135069570D01*
X103153444Y-135069607D01*
X103077140Y-135069677D01*
X103003361Y-135082828D01*
X102985881Y-135080911D01*
X102964475Y-135088262D01*
X102945967Y-135093059D01*
X102902938Y-135100729D01*
X102902927Y-135100732D01*
X102799674Y-135138754D01*
X102780587Y-135140038D01*
X102767821Y-135147889D01*
X102745726Y-135158619D01*
X102736874Y-135161878D01*
X102736860Y-135161885D01*
X102728719Y-135166647D01*
X102706395Y-135176885D01*
X102699934Y-135179103D01*
X102679097Y-135195672D01*
X102584121Y-135251225D01*
X102584118Y-135251227D01*
X102550840Y-135279582D01*
X102535374Y-135290823D01*
X102522599Y-135298678D01*
X102506465Y-135317391D01*
X102449433Y-135365985D01*
X102449427Y-135365991D01*
X102423013Y-135398019D01*
X102394125Y-135433046D01*
X102392069Y-135435414D01*
X102388611Y-135439197D01*
X102386092Y-135441797D01*
X102339434Y-135487204D01*
X102328655Y-135504786D01*
X102289092Y-135548068D01*
X102174269Y-135672867D01*
X102169823Y-135677237D01*
X102047647Y-135785800D01*
X101925467Y-135892259D01*
X101920894Y-135895879D01*
X101786753Y-135992188D01*
X101654686Y-136083801D01*
X101650093Y-136086697D01*
X101505990Y-136168997D01*
X101365038Y-136245306D01*
X101360523Y-136247518D01*
X101208199Y-136314654D01*
X101059830Y-136374939D01*
X101055483Y-136376519D01*
X100896671Y-136427627D01*
X100742548Y-136471224D01*
X100738448Y-136472234D01*
X100574881Y-136506681D01*
X100416831Y-136533062D01*
X100413046Y-136533575D01*
X100248024Y-136550763D01*
X100245018Y-136551002D01*
X100086372Y-136559760D01*
X100082955Y-136559854D01*
X99917045Y-136559854D01*
X99913628Y-136559760D01*
X99754980Y-136551002D01*
X99751974Y-136550763D01*
X99586952Y-136533575D01*
X99583167Y-136533062D01*
X99425118Y-136506681D01*
X99261550Y-136472234D01*
X99257450Y-136471224D01*
X99103329Y-136427627D01*
X98944515Y-136376519D01*
X98940168Y-136374939D01*
X98791800Y-136314654D01*
X98639475Y-136247518D01*
X98634960Y-136245306D01*
X98494009Y-136168997D01*
X98349905Y-136086697D01*
X98345312Y-136083801D01*
X98213246Y-135992188D01*
X98130220Y-135932579D01*
X98079094Y-135895871D01*
X98074554Y-135892277D01*
X97981342Y-135811060D01*
X97952352Y-135785800D01*
X97830176Y-135677237D01*
X97825729Y-135672867D01*
X97710907Y-135548068D01*
X97672084Y-135505596D01*
X97665392Y-135491916D01*
X97613920Y-135441811D01*
X97611395Y-135439203D01*
X97608254Y-135435766D01*
X97606194Y-135433394D01*
X97550592Y-135365975D01*
X97550586Y-135365969D01*
X97493555Y-135317376D01*
X97483924Y-135302661D01*
X97464643Y-135290805D01*
X97449179Y-135279566D01*
X97415918Y-135251226D01*
X97415892Y-135251204D01*
X97320915Y-135195651D01*
X97307792Y-135181731D01*
X97293617Y-135176864D01*
X97271284Y-135166621D01*
X97263142Y-135161858D01*
X97263135Y-135161855D01*
X97254277Y-135158593D01*
X97232182Y-135147863D01*
X97226367Y-135144287D01*
X97200330Y-135138728D01*
X97097085Y-135100709D01*
X97097082Y-135100708D01*
X97097079Y-135100707D01*
X97097074Y-135100706D01*
X97091793Y-135099275D01*
X97092468Y-135096781D01*
X97039626Y-135070419D01*
X97003893Y-135010378D01*
X97000000Y-134979551D01*
X97000000Y-133532291D01*
X98145787Y-133532291D01*
X98175413Y-133801541D01*
X98175415Y-133801552D01*
X98230709Y-134013053D01*
X98243928Y-134063616D01*
X98349870Y-134312918D01*
X98421998Y-134431103D01*
X98490979Y-134544133D01*
X98490986Y-134544143D01*
X98664253Y-134752347D01*
X98664259Y-134752352D01*
X98728296Y-134809729D01*
X98865998Y-134933110D01*
X99091910Y-135082572D01*
X99337176Y-135197548D01*
X99337183Y-135197550D01*
X99337185Y-135197551D01*
X99596557Y-135275585D01*
X99596564Y-135275586D01*
X99596569Y-135275588D01*
X99864561Y-135315028D01*
X99864566Y-135315028D01*
X100067636Y-135315028D01*
X100119133Y-135311258D01*
X100270156Y-135300205D01*
X100382758Y-135275121D01*
X100534546Y-135241310D01*
X100534548Y-135241309D01*
X100534553Y-135241308D01*
X100787558Y-135144542D01*
X101023777Y-135011969D01*
X101238177Y-134846416D01*
X101426186Y-134651409D01*
X101583799Y-134431107D01*
X101657787Y-134287197D01*
X101707649Y-134190218D01*
X101707651Y-134190212D01*
X101707656Y-134190203D01*
X101795118Y-133933833D01*
X101844319Y-133667461D01*
X101854212Y-133396763D01*
X101824586Y-133127510D01*
X101756072Y-132865440D01*
X101674128Y-132672610D01*
X110272382Y-132672610D01*
X110282499Y-132910792D01*
X110282499Y-132910796D01*
X110332725Y-133143844D01*
X110421615Y-133365052D01*
X110421616Y-133365054D01*
X110546611Y-133568059D01*
X110704116Y-133747019D01*
X110889600Y-133896787D01*
X111097726Y-134013054D01*
X111240830Y-134063616D01*
X111322509Y-134092475D01*
X111557470Y-134132763D01*
X111557478Y-134132763D01*
X111557480Y-134132764D01*
X111557481Y-134132764D01*
X111736182Y-134132764D01*
X111914216Y-134117611D01*
X111914219Y-134117610D01*
X111914221Y-134117610D01*
X112144929Y-134057539D01*
X112277653Y-133997543D01*
X112362160Y-133959344D01*
X112362161Y-133959342D01*
X112362166Y-133959341D01*
X112559683Y-133825843D01*
X112731798Y-133660885D01*
X112873559Y-133469211D01*
X112980887Y-133256338D01*
X113050696Y-133028387D01*
X113080978Y-132791918D01*
X113070860Y-132553732D01*
X113058838Y-132497952D01*
X113020634Y-132320683D01*
X112931744Y-132099474D01*
X112806749Y-131896469D01*
X112649244Y-131717509D01*
X112463760Y-131567741D01*
X112349810Y-131504084D01*
X112255635Y-131451474D01*
X112030850Y-131372052D01*
X111795889Y-131331764D01*
X111795880Y-131331764D01*
X111617183Y-131331764D01*
X111617178Y-131331764D01*
X111439143Y-131346916D01*
X111208431Y-131406988D01*
X110991199Y-131505183D01*
X110991191Y-131505188D01*
X110793686Y-131638677D01*
X110793677Y-131638685D01*
X110621561Y-131803643D01*
X110479803Y-131995314D01*
X110479800Y-131995318D01*
X110372476Y-132208184D01*
X110372473Y-132208190D01*
X110302663Y-132436142D01*
X110272382Y-132672610D01*
X101674128Y-132672610D01*
X101650130Y-132616138D01*
X101509018Y-132384918D01*
X101507845Y-132383509D01*
X101335746Y-132176708D01*
X101335740Y-132176703D01*
X101134002Y-131995946D01*
X100908092Y-131846485D01*
X100908090Y-131846484D01*
X100662824Y-131731508D01*
X100662819Y-131731506D01*
X100662814Y-131731504D01*
X100403442Y-131653470D01*
X100403428Y-131653467D01*
X100287791Y-131636449D01*
X100135439Y-131614028D01*
X99932369Y-131614028D01*
X99932364Y-131614028D01*
X99729844Y-131628851D01*
X99729831Y-131628853D01*
X99465453Y-131687745D01*
X99465446Y-131687748D01*
X99212439Y-131784515D01*
X98976226Y-131917085D01*
X98761822Y-132082640D01*
X98573822Y-132277637D01*
X98573816Y-132277644D01*
X98416202Y-132497947D01*
X98416199Y-132497952D01*
X98292350Y-132738837D01*
X98292343Y-132738855D01*
X98204884Y-132995213D01*
X98204881Y-132995227D01*
X98155681Y-133261596D01*
X98155680Y-133261603D01*
X98145787Y-133532291D01*
X97000000Y-133532291D01*
X97000000Y-127254002D01*
X98390034Y-127254002D01*
X98409858Y-127480599D01*
X98409860Y-127480610D01*
X98468730Y-127700317D01*
X98468734Y-127700326D01*
X98564865Y-127906481D01*
X98564866Y-127906483D01*
X98615973Y-127979471D01*
X98615973Y-127979472D01*
X99297045Y-127298399D01*
X99309835Y-127379148D01*
X99367359Y-127492045D01*
X99456955Y-127581641D01*
X99569852Y-127639165D01*
X99650599Y-127651953D01*
X98969526Y-128333025D01*
X98969526Y-128333026D01*
X99042512Y-128384131D01*
X99042516Y-128384133D01*
X99248673Y-128480265D01*
X99248682Y-128480269D01*
X99468389Y-128539139D01*
X99468400Y-128539141D01*
X99694998Y-128558966D01*
X99695002Y-128558966D01*
X99921599Y-128539141D01*
X99921610Y-128539139D01*
X100141317Y-128480269D01*
X100141331Y-128480264D01*
X100347478Y-128384136D01*
X100420472Y-128333025D01*
X99739401Y-127651953D01*
X99820148Y-127639165D01*
X99933045Y-127581641D01*
X100022641Y-127492045D01*
X100080165Y-127379148D01*
X100092953Y-127298400D01*
X100774025Y-127979472D01*
X100825136Y-127906478D01*
X100921264Y-127700331D01*
X100921269Y-127700317D01*
X100980139Y-127480610D01*
X100980141Y-127480599D01*
X100999966Y-127254002D01*
X100999966Y-127254001D01*
X101945532Y-127254001D01*
X101965364Y-127480686D01*
X101965366Y-127480697D01*
X102024258Y-127700488D01*
X102024261Y-127700497D01*
X102120431Y-127906732D01*
X102120432Y-127906734D01*
X102250954Y-128093141D01*
X102411858Y-128254045D01*
X102411861Y-128254047D01*
X102598266Y-128384568D01*
X102804504Y-128480739D01*
X103024308Y-128539635D01*
X103186230Y-128553801D01*
X103250998Y-128559468D01*
X103251000Y-128559468D01*
X103251002Y-128559468D01*
X103307672Y-128554509D01*
X103477692Y-128539635D01*
X103697496Y-128480739D01*
X103903734Y-128384568D01*
X104090139Y-128254047D01*
X104251047Y-128093139D01*
X104381568Y-127906734D01*
X104477739Y-127700496D01*
X104536635Y-127480692D01*
X104556468Y-127254000D01*
X104536635Y-127027308D01*
X104477739Y-126807504D01*
X104381568Y-126601266D01*
X104251047Y-126414861D01*
X104251045Y-126414858D01*
X104090141Y-126253954D01*
X103903734Y-126123432D01*
X103903732Y-126123431D01*
X103697497Y-126027261D01*
X103697488Y-126027258D01*
X103477697Y-125968366D01*
X103477693Y-125968365D01*
X103477692Y-125968365D01*
X103477691Y-125968364D01*
X103477686Y-125968364D01*
X103251002Y-125948532D01*
X103250998Y-125948532D01*
X103024313Y-125968364D01*
X103024302Y-125968366D01*
X102804511Y-126027258D01*
X102804502Y-126027261D01*
X102598267Y-126123431D01*
X102598265Y-126123432D01*
X102411858Y-126253954D01*
X102250954Y-126414858D01*
X102120432Y-126601265D01*
X102120431Y-126601267D01*
X102024261Y-126807502D01*
X102024258Y-126807511D01*
X101965366Y-127027302D01*
X101965364Y-127027313D01*
X101945532Y-127253998D01*
X101945532Y-127254001D01*
X100999966Y-127254001D01*
X100999966Y-127253997D01*
X100980141Y-127027400D01*
X100980139Y-127027389D01*
X100921269Y-126807682D01*
X100921265Y-126807673D01*
X100825133Y-126601516D01*
X100825131Y-126601512D01*
X100774026Y-126528526D01*
X100774025Y-126528526D01*
X100092953Y-127209598D01*
X100080165Y-127128852D01*
X100022641Y-127015955D01*
X99933045Y-126926359D01*
X99820148Y-126868835D01*
X99739400Y-126856046D01*
X100420472Y-126174974D01*
X100420471Y-126174973D01*
X100347483Y-126123866D01*
X100347481Y-126123865D01*
X100141326Y-126027734D01*
X100141317Y-126027730D01*
X99921610Y-125968860D01*
X99921599Y-125968858D01*
X99695002Y-125949034D01*
X99694998Y-125949034D01*
X99468400Y-125968858D01*
X99468389Y-125968860D01*
X99248682Y-126027730D01*
X99248673Y-126027734D01*
X99042513Y-126123868D01*
X98969527Y-126174972D01*
X98969526Y-126174973D01*
X99650600Y-126856046D01*
X99569852Y-126868835D01*
X99456955Y-126926359D01*
X99367359Y-127015955D01*
X99309835Y-127128852D01*
X99297046Y-127209598D01*
X98615973Y-126528526D01*
X98564868Y-126601513D01*
X98468734Y-126807673D01*
X98468730Y-126807682D01*
X98409860Y-127027389D01*
X98409858Y-127027400D01*
X98390034Y-127253997D01*
X98390034Y-127254002D01*
X97000000Y-127254002D01*
X97000000Y-119634001D01*
X98389532Y-119634001D01*
X98409364Y-119860686D01*
X98409366Y-119860697D01*
X98468258Y-120080488D01*
X98468261Y-120080497D01*
X98564431Y-120286732D01*
X98564432Y-120286734D01*
X98694954Y-120473141D01*
X98855858Y-120634045D01*
X98855861Y-120634047D01*
X99042266Y-120764568D01*
X99248504Y-120860739D01*
X99468308Y-120919635D01*
X99630230Y-120933801D01*
X99694998Y-120939468D01*
X99695000Y-120939468D01*
X99695002Y-120939468D01*
X99751672Y-120934509D01*
X99921692Y-120919635D01*
X100141496Y-120860739D01*
X100347734Y-120764568D01*
X100534139Y-120634047D01*
X100695047Y-120473139D01*
X100807612Y-120312377D01*
X100862189Y-120268752D01*
X100909188Y-120259500D01*
X102036812Y-120259500D01*
X102103851Y-120279185D01*
X102138387Y-120312377D01*
X102250954Y-120473141D01*
X102411858Y-120634045D01*
X102411861Y-120634047D01*
X102598266Y-120764568D01*
X102804504Y-120860739D01*
X103024308Y-120919635D01*
X103186230Y-120933801D01*
X103250998Y-120939468D01*
X103251000Y-120939468D01*
X103251002Y-120939468D01*
X103307673Y-120934509D01*
X103477692Y-120919635D01*
X103697496Y-120860739D01*
X103903734Y-120764568D01*
X104090139Y-120634047D01*
X104251047Y-120473139D01*
X104381568Y-120286734D01*
X104477739Y-120080496D01*
X104536635Y-119860692D01*
X104556468Y-119634000D01*
X104536635Y-119407308D01*
X104477739Y-119187504D01*
X104381568Y-118981266D01*
X104251047Y-118794861D01*
X104251045Y-118794858D01*
X104090141Y-118633954D01*
X103903734Y-118503432D01*
X103903732Y-118503431D01*
X103697497Y-118407261D01*
X103697488Y-118407258D01*
X103477697Y-118348366D01*
X103477693Y-118348365D01*
X103477692Y-118348365D01*
X103477691Y-118348364D01*
X103477686Y-118348364D01*
X103251002Y-118328532D01*
X103250998Y-118328532D01*
X103024313Y-118348364D01*
X103024302Y-118348366D01*
X102804511Y-118407258D01*
X102804502Y-118407261D01*
X102598267Y-118503431D01*
X102598265Y-118503432D01*
X102411858Y-118633954D01*
X102250954Y-118794858D01*
X102138387Y-118955623D01*
X102083811Y-118999248D01*
X102036812Y-119008500D01*
X100909188Y-119008500D01*
X100842149Y-118988815D01*
X100807613Y-118955623D01*
X100695045Y-118794858D01*
X100534141Y-118633954D01*
X100347734Y-118503432D01*
X100347732Y-118503431D01*
X100141497Y-118407261D01*
X100141488Y-118407258D01*
X99921697Y-118348366D01*
X99921693Y-118348365D01*
X99921692Y-118348365D01*
X99921691Y-118348364D01*
X99921686Y-118348364D01*
X99695002Y-118328532D01*
X99694998Y-118328532D01*
X99468313Y-118348364D01*
X99468302Y-118348366D01*
X99248511Y-118407258D01*
X99248502Y-118407261D01*
X99042267Y-118503431D01*
X99042265Y-118503432D01*
X98855858Y-118633954D01*
X98694954Y-118794858D01*
X98564432Y-118981265D01*
X98564431Y-118981267D01*
X98468261Y-119187502D01*
X98468258Y-119187511D01*
X98409366Y-119407302D01*
X98409364Y-119407313D01*
X98389532Y-119633998D01*
X98389532Y-119634001D01*
X97000000Y-119634001D01*
X97000000Y-111272000D01*
X97019685Y-111204961D01*
X97072489Y-111159206D01*
X97141647Y-111149262D01*
X97205203Y-111178287D01*
X97211681Y-111184319D01*
X100359478Y-114332116D01*
X100364115Y-114337304D01*
X100388328Y-114367666D01*
X100439803Y-114412639D01*
X100442836Y-114415474D01*
X100451306Y-114423944D01*
X100474051Y-114442933D01*
X100483650Y-114450947D01*
X100557840Y-114515765D01*
X100561586Y-114518003D01*
X100577460Y-114529265D01*
X100580817Y-114532068D01*
X100666495Y-114580683D01*
X100751072Y-114631215D01*
X100755163Y-114632750D01*
X100772791Y-114640996D01*
X100776591Y-114643153D01*
X100869008Y-114675491D01*
X100869582Y-114675692D01*
X100958766Y-114709164D01*
X100961812Y-114710307D01*
X100964401Y-114710776D01*
X100966110Y-114711087D01*
X100984925Y-114716053D01*
X100989053Y-114717498D01*
X101086363Y-114732910D01*
X101183286Y-114750500D01*
X101183289Y-114750500D01*
X101187664Y-114750500D01*
X101207067Y-114752028D01*
X101208774Y-114752297D01*
X101211376Y-114752710D01*
X101309838Y-114750500D01*
X113835237Y-114750500D01*
X113842175Y-114750889D01*
X113880771Y-114755238D01*
X113880773Y-114755237D01*
X113880774Y-114755238D01*
X113898530Y-114754040D01*
X113948976Y-114750639D01*
X113953132Y-114750500D01*
X113965091Y-114750500D01*
X113965099Y-114750500D01*
X114007067Y-114746722D01*
X114105356Y-114740096D01*
X114109590Y-114739028D01*
X114128785Y-114735767D01*
X114133132Y-114735377D01*
X114228109Y-114709164D01*
X114323627Y-114685096D01*
X114327599Y-114683291D01*
X114345906Y-114676654D01*
X114350114Y-114675493D01*
X114438879Y-114632746D01*
X114528570Y-114592007D01*
X114532164Y-114589516D01*
X114548979Y-114579724D01*
X114552917Y-114577829D01*
X114632620Y-114519921D01*
X114713598Y-114463820D01*
X114716687Y-114460730D01*
X114731489Y-114448088D01*
X114735022Y-114445522D01*
X114803097Y-114374320D01*
X116733553Y-112443864D01*
X116733557Y-112443862D01*
X116888278Y-112289141D01*
X116919109Y-112245108D01*
X116922301Y-112240938D01*
X116958749Y-112197282D01*
X116983580Y-112153520D01*
X116986713Y-112148560D01*
X117013782Y-112109903D01*
X117037888Y-112058206D01*
X117040143Y-112053834D01*
X117069834Y-112001509D01*
X117085368Y-111957115D01*
X117087693Y-111951399D01*
X117106255Y-111911594D01*
X117121868Y-111853321D01*
X117123223Y-111848929D01*
X117144178Y-111789046D01*
X117151024Y-111745816D01*
X117152369Y-111739488D01*
X117162887Y-111700241D01*
X117168429Y-111636878D01*
X117168951Y-111632631D01*
X117179391Y-111566723D01*
X117178482Y-111526246D01*
X117178701Y-111519476D01*
X117181957Y-111482264D01*
X117176128Y-111415651D01*
X117175910Y-111411687D01*
X117174340Y-111341686D01*
X117166875Y-111305234D01*
X117165856Y-111298233D01*
X117162887Y-111264287D01*
X117144733Y-111196535D01*
X117143880Y-111192924D01*
X117129189Y-111121174D01*
X117129188Y-111121168D01*
X117126891Y-111115443D01*
X117116566Y-111089700D01*
X117114219Y-111082658D01*
X117106256Y-111052937D01*
X117106255Y-111052935D01*
X117099867Y-111039237D01*
X117075228Y-110986397D01*
X117073882Y-110983290D01*
X117060629Y-110950250D01*
X117045388Y-110912254D01*
X117029090Y-110886316D01*
X117025399Y-110879539D01*
X117013782Y-110854626D01*
X116987376Y-110816915D01*
X116969802Y-110791816D01*
X116968093Y-110789240D01*
X116950363Y-110761024D01*
X116925630Y-110721661D01*
X116907189Y-110701485D01*
X116902161Y-110695213D01*
X116890380Y-110678389D01*
X116868051Y-110612183D01*
X116885060Y-110544416D01*
X116890367Y-110536156D01*
X117013782Y-110359903D01*
X117106255Y-110161594D01*
X117162887Y-109950241D01*
X117179708Y-109757974D01*
X117181957Y-109732266D01*
X117181957Y-109732261D01*
X117172666Y-109626070D01*
X117162887Y-109514287D01*
X117106255Y-109302934D01*
X117013782Y-109104626D01*
X117013780Y-109104623D01*
X117013779Y-109104621D01*
X116888279Y-108925388D01*
X116833559Y-108870668D01*
X116733557Y-108770666D01*
X116554319Y-108645162D01*
X116554320Y-108645162D01*
X116554318Y-108645161D01*
X116413264Y-108579387D01*
X116356010Y-108552689D01*
X116356006Y-108552688D01*
X116356002Y-108552686D01*
X116144657Y-108496057D01*
X115926682Y-108476987D01*
X115926678Y-108476987D01*
X115781362Y-108489700D01*
X115708703Y-108496057D01*
X115708700Y-108496057D01*
X115497357Y-108552686D01*
X115497348Y-108552690D01*
X115299041Y-108645162D01*
X115299037Y-108645164D01*
X115119801Y-108770666D01*
X114965082Y-108925385D01*
X114839580Y-109104621D01*
X114839578Y-109104625D01*
X114747106Y-109302932D01*
X114747102Y-109302941D01*
X114690473Y-109514284D01*
X114690473Y-109514287D01*
X114687305Y-109550500D01*
X114671403Y-109732261D01*
X114671403Y-109732266D01*
X114690473Y-109950239D01*
X114690473Y-109950243D01*
X114747102Y-110161586D01*
X114747104Y-110161590D01*
X114747105Y-110161594D01*
X114839578Y-110359903D01*
X114961513Y-110534044D01*
X114983841Y-110600249D01*
X114966831Y-110668016D01*
X114947620Y-110692848D01*
X113427289Y-112213181D01*
X113365966Y-112246666D01*
X113339608Y-112249500D01*
X103335771Y-112249500D01*
X103268732Y-112229815D01*
X103222977Y-112177011D01*
X103213033Y-112107853D01*
X103215996Y-112093407D01*
X103236206Y-112017979D01*
X103236207Y-112017977D01*
X103255277Y-111800000D01*
X103236207Y-111582023D01*
X103190558Y-111411658D01*
X103179577Y-111370677D01*
X103179576Y-111370676D01*
X103179575Y-111370670D01*
X103087102Y-111172362D01*
X103087100Y-111172359D01*
X103087099Y-111172357D01*
X102961599Y-110993124D01*
X102906519Y-110938044D01*
X102806877Y-110838402D01*
X102627639Y-110712898D01*
X102589713Y-110695213D01*
X102519307Y-110662382D01*
X102466867Y-110616210D01*
X102447715Y-110549016D01*
X102467931Y-110482135D01*
X102519307Y-110437618D01*
X102549289Y-110423637D01*
X102627639Y-110387102D01*
X102806877Y-110261598D01*
X102961598Y-110106877D01*
X103087102Y-109927639D01*
X103179575Y-109729330D01*
X103236207Y-109517977D01*
X103255020Y-109302934D01*
X103255277Y-109300002D01*
X103255277Y-109299997D01*
X103251569Y-109257618D01*
X103236207Y-109082023D01*
X103179575Y-108870670D01*
X103087102Y-108672362D01*
X103087100Y-108672359D01*
X103087099Y-108672357D01*
X102961599Y-108493124D01*
X102945462Y-108476987D01*
X102806877Y-108338402D01*
X102627639Y-108212898D01*
X102519306Y-108162381D01*
X102466867Y-108116210D01*
X102447715Y-108049016D01*
X102467931Y-107982135D01*
X102519307Y-107937618D01*
X102627639Y-107887102D01*
X102806877Y-107761598D01*
X102961598Y-107606877D01*
X103087102Y-107427639D01*
X103179575Y-107229330D01*
X103236207Y-107017977D01*
X103255277Y-106800000D01*
X103244132Y-106672610D01*
X110272382Y-106672610D01*
X110282499Y-106910792D01*
X110282499Y-106910796D01*
X110332725Y-107143844D01*
X110417366Y-107354478D01*
X110421616Y-107365054D01*
X110546611Y-107568059D01*
X110704116Y-107747019D01*
X110889600Y-107896787D01*
X111097726Y-108013054D01*
X111223631Y-108057539D01*
X111322509Y-108092475D01*
X111557470Y-108132763D01*
X111557478Y-108132763D01*
X111557480Y-108132764D01*
X111557481Y-108132764D01*
X111736182Y-108132764D01*
X111914216Y-108117611D01*
X111914219Y-108117610D01*
X111914221Y-108117610D01*
X112144929Y-108057539D01*
X112308079Y-107983790D01*
X112362160Y-107959344D01*
X112362161Y-107959342D01*
X112362166Y-107959341D01*
X112559683Y-107825843D01*
X112731798Y-107660885D01*
X112873559Y-107469211D01*
X112980887Y-107256338D01*
X113050696Y-107028387D01*
X113080978Y-106791918D01*
X113070860Y-106553732D01*
X113068413Y-106542380D01*
X113020634Y-106320683D01*
X112931744Y-106099474D01*
X112806749Y-105896469D01*
X112649244Y-105717509D01*
X112463760Y-105567741D01*
X112349810Y-105504084D01*
X112255635Y-105451474D01*
X112030850Y-105372052D01*
X111795889Y-105331764D01*
X111795880Y-105331764D01*
X111617183Y-105331764D01*
X111617178Y-105331764D01*
X111439143Y-105346916D01*
X111208431Y-105406988D01*
X110991199Y-105505183D01*
X110991191Y-105505188D01*
X110793686Y-105638677D01*
X110793677Y-105638685D01*
X110621561Y-105803643D01*
X110479803Y-105995314D01*
X110479800Y-105995318D01*
X110372476Y-106208184D01*
X110372473Y-106208190D01*
X110302663Y-106436142D01*
X110272382Y-106672610D01*
X103244132Y-106672610D01*
X103236207Y-106582023D01*
X103179575Y-106370670D01*
X103087102Y-106172362D01*
X103087100Y-106172359D01*
X103087099Y-106172357D01*
X102961599Y-105993124D01*
X102888263Y-105919788D01*
X102806877Y-105838402D01*
X102666269Y-105739947D01*
X102627638Y-105712897D01*
X102528484Y-105666661D01*
X102429330Y-105620425D01*
X102429326Y-105620424D01*
X102429322Y-105620422D01*
X102217977Y-105563793D01*
X102000002Y-105544723D01*
X101999998Y-105544723D01*
X101854682Y-105557436D01*
X101782023Y-105563793D01*
X101782020Y-105563793D01*
X101570677Y-105620422D01*
X101570668Y-105620426D01*
X101372361Y-105712898D01*
X101372357Y-105712900D01*
X101193121Y-105838402D01*
X101038402Y-105993121D01*
X100912900Y-106172357D01*
X100912898Y-106172361D01*
X100820426Y-106370668D01*
X100820422Y-106370677D01*
X100763793Y-106582020D01*
X100763793Y-106582024D01*
X100744723Y-106799997D01*
X100744723Y-106800002D01*
X100763793Y-107017975D01*
X100763793Y-107017979D01*
X100820422Y-107229322D01*
X100820424Y-107229326D01*
X100820425Y-107229330D01*
X100842648Y-107276987D01*
X100912897Y-107427638D01*
X100912898Y-107427639D01*
X101038402Y-107606877D01*
X101193123Y-107761598D01*
X101372360Y-107887102D01*
X101372361Y-107887102D01*
X101480693Y-107937618D01*
X101533132Y-107983790D01*
X101552284Y-108050984D01*
X101532068Y-108117865D01*
X101480693Y-108162382D01*
X101372362Y-108212898D01*
X101372357Y-108212900D01*
X101193121Y-108338402D01*
X101038402Y-108493121D01*
X100912900Y-108672357D01*
X100912898Y-108672361D01*
X100820426Y-108870668D01*
X100820422Y-108870677D01*
X100763793Y-109082020D01*
X100763793Y-109082024D01*
X100744723Y-109299997D01*
X100744723Y-109300003D01*
X100749558Y-109355272D01*
X100735791Y-109423771D01*
X100687175Y-109473954D01*
X100619147Y-109489887D01*
X100553303Y-109466511D01*
X100538349Y-109453759D01*
X97314265Y-106229675D01*
X94442744Y-103358153D01*
X102426096Y-103358153D01*
X102426139Y-103382265D01*
X102426180Y-103382363D01*
X102426296Y-103382646D01*
X102426298Y-103382648D01*
X102426488Y-103382726D01*
X102426680Y-103382805D01*
X102426682Y-103382803D01*
X102451296Y-103382788D01*
X102451296Y-103382792D01*
X102451440Y-103382764D01*
X115401920Y-103382764D01*
X115402063Y-103382792D01*
X115402064Y-103382788D01*
X115426677Y-103382803D01*
X115426680Y-103382805D01*
X115427063Y-103382647D01*
X115427180Y-103382363D01*
X115427221Y-103382264D01*
X115427220Y-103382261D01*
X115427263Y-103358153D01*
X115427180Y-103357731D01*
X115427180Y-84007023D01*
X115427208Y-84006880D01*
X115427204Y-84006880D01*
X115427219Y-83982266D01*
X115427221Y-83982264D01*
X115427142Y-83982072D01*
X115427064Y-83981882D01*
X115427062Y-83981880D01*
X115426779Y-83981764D01*
X115426680Y-83981723D01*
X115402126Y-83981723D01*
X115401920Y-83981764D01*
X102451440Y-83981764D01*
X102451234Y-83981723D01*
X102426680Y-83981723D01*
X102426581Y-83981764D01*
X102426297Y-83981880D01*
X102426295Y-83981882D01*
X102426139Y-83982263D01*
X102426156Y-84006880D01*
X102426151Y-84006880D01*
X102426180Y-84007023D01*
X102426180Y-103357731D01*
X102426096Y-103358153D01*
X94442744Y-103358153D01*
X93983067Y-102898476D01*
X93973244Y-102886214D01*
X93973023Y-102886398D01*
X93968050Y-102880387D01*
X93961309Y-102874057D01*
X93917628Y-102833037D01*
X93907183Y-102822592D01*
X93896739Y-102812147D01*
X93891250Y-102807889D01*
X93886825Y-102804111D01*
X93852846Y-102772202D01*
X93852844Y-102772200D01*
X93852841Y-102772199D01*
X93835293Y-102762552D01*
X93819027Y-102751868D01*
X93803197Y-102739589D01*
X93760432Y-102721082D01*
X93755186Y-102718512D01*
X93714357Y-102696067D01*
X93714356Y-102696066D01*
X93694957Y-102691086D01*
X93676545Y-102684782D01*
X93658162Y-102676826D01*
X93658156Y-102676824D01*
X93612138Y-102669536D01*
X93606416Y-102668351D01*
X93561285Y-102656764D01*
X93561283Y-102656764D01*
X93541248Y-102656764D01*
X93521850Y-102655237D01*
X93514426Y-102654061D01*
X93502069Y-102652104D01*
X93502068Y-102652104D01*
X93455680Y-102656489D01*
X93449842Y-102656764D01*
X81396499Y-102656764D01*
X81329460Y-102637079D01*
X81283705Y-102584275D01*
X81272499Y-102532764D01*
X81272499Y-102443607D01*
X81269581Y-102400562D01*
X81269581Y-102400561D01*
X81242601Y-102292073D01*
X81223307Y-102214489D01*
X81220695Y-102209223D01*
X81138118Y-102042720D01*
X81138116Y-102042717D01*
X81017990Y-101893274D01*
X81017989Y-101893273D01*
X80895191Y-101794565D01*
X80855272Y-101737222D01*
X80852692Y-101667400D01*
X80854947Y-101659600D01*
X80854947Y-101659599D01*
X80895674Y-101534256D01*
X80915460Y-101346000D01*
X80895674Y-101157744D01*
X80837179Y-100977716D01*
X80742533Y-100813784D01*
X80615871Y-100673112D01*
X80615870Y-100673111D01*
X80462734Y-100561851D01*
X80462729Y-100561848D01*
X80289807Y-100484857D01*
X80289802Y-100484855D01*
X80144001Y-100453865D01*
X80104646Y-100445500D01*
X79915354Y-100445500D01*
X79882897Y-100452398D01*
X79730197Y-100484855D01*
X79730192Y-100484857D01*
X79557270Y-100561848D01*
X79557265Y-100561851D01*
X79404129Y-100673111D01*
X79277466Y-100813785D01*
X79182821Y-100977715D01*
X79182818Y-100977722D01*
X79124327Y-101157740D01*
X79124326Y-101157744D01*
X79104540Y-101346000D01*
X79124326Y-101534256D01*
X79124327Y-101534259D01*
X79165052Y-101659599D01*
X79167047Y-101729440D01*
X79130966Y-101789273D01*
X79124809Y-101794563D01*
X79002011Y-101893272D01*
X79002009Y-101893274D01*
X78881883Y-102042717D01*
X78881881Y-102042720D01*
X78796694Y-102214485D01*
X78750419Y-102400555D01*
X78747500Y-102443606D01*
X78747501Y-104120920D01*
X78747501Y-104120921D01*
X78750418Y-104163965D01*
X78750418Y-104163966D01*
X78795707Y-104346074D01*
X78792783Y-104415882D01*
X78752583Y-104473029D01*
X78687868Y-104499369D01*
X78675372Y-104500000D01*
X76764112Y-104500000D01*
X76697073Y-104480315D01*
X76651318Y-104427511D01*
X76641374Y-104358353D01*
X76643777Y-104346074D01*
X76689081Y-104163903D01*
X76692000Y-104120872D01*
X76691999Y-102443658D01*
X76689082Y-102400629D01*
X76684322Y-102381492D01*
X75517680Y-103548135D01*
X75456357Y-103581620D01*
X75386665Y-103576636D01*
X75342318Y-103548135D01*
X74175676Y-102381493D01*
X74170918Y-102400626D01*
X74168000Y-102443656D01*
X74168001Y-104120870D01*
X74170917Y-104163897D01*
X74170917Y-104163898D01*
X74216223Y-104346074D01*
X74213299Y-104415882D01*
X74173099Y-104473029D01*
X74108384Y-104499369D01*
X74095888Y-104500000D01*
X72624000Y-104500000D01*
X72556961Y-104480315D01*
X72511206Y-104427511D01*
X72500000Y-104376000D01*
X72500000Y-101908845D01*
X74410133Y-101908845D01*
X75430000Y-102928711D01*
X75430001Y-102928711D01*
X76449865Y-101908844D01*
X76437632Y-101893627D01*
X76288275Y-101773571D01*
X76116602Y-101688429D01*
X75930638Y-101642182D01*
X75930641Y-101642182D01*
X75887608Y-101639264D01*
X74972394Y-101639265D01*
X74929366Y-101642181D01*
X74929365Y-101642181D01*
X74743397Y-101688429D01*
X74571724Y-101773571D01*
X74422369Y-101893626D01*
X74422363Y-101893632D01*
X74410133Y-101908845D01*
X72500000Y-101908845D01*
X72500000Y-100774264D01*
X72500000Y-100726587D01*
X73009228Y-100726587D01*
X73028360Y-100731345D01*
X73071392Y-100734264D01*
X74748606Y-100734263D01*
X74791627Y-100731346D01*
X74791637Y-100731345D01*
X74810769Y-100726586D01*
X73910000Y-99825817D01*
X73009228Y-100726586D01*
X73009228Y-100726587D01*
X72500000Y-100726587D01*
X72500000Y-100528710D01*
X72517432Y-100511278D01*
X72517441Y-100511268D01*
X73822318Y-99206391D01*
X73883641Y-99172906D01*
X73953333Y-99177890D01*
X73997680Y-99206391D01*
X75283417Y-100492128D01*
X75298635Y-100479895D01*
X75418692Y-100330539D01*
X75503834Y-100158866D01*
X75550081Y-99972904D01*
X75553000Y-99929872D01*
X75552999Y-99014658D01*
X75550082Y-98971630D01*
X75550082Y-98971629D01*
X75503834Y-98785661D01*
X75417636Y-98611859D01*
X75405484Y-98543054D01*
X75432460Y-98478602D01*
X75490000Y-98438966D01*
X75528724Y-98432764D01*
X84499400Y-98432764D01*
X84566439Y-98452449D01*
X84612194Y-98505253D01*
X84622138Y-98574411D01*
X84593113Y-98637967D01*
X84587081Y-98644445D01*
X84076059Y-99155466D01*
X83967932Y-99284980D01*
X83967928Y-99284986D01*
X83856847Y-99480754D01*
X83782502Y-99693213D01*
X83782501Y-99693216D01*
X83747289Y-99915536D01*
X83752340Y-100140578D01*
X83797490Y-100361088D01*
X83797494Y-100361101D01*
X83881292Y-100570008D01*
X84001051Y-100760604D01*
X84049660Y-100813784D01*
X84152914Y-100926748D01*
X84332005Y-101063108D01*
X84532565Y-101165299D01*
X84748149Y-101230036D01*
X84971827Y-101255238D01*
X84971829Y-101255237D01*
X84971831Y-101255238D01*
X85071642Y-101248508D01*
X85196412Y-101240096D01*
X85414683Y-101185096D01*
X85619626Y-101092007D01*
X85804654Y-100963820D01*
X86942127Y-99826345D01*
X86947287Y-99821733D01*
X86977666Y-99797508D01*
X87022645Y-99746023D01*
X87025462Y-99743010D01*
X87033945Y-99734529D01*
X87060950Y-99702181D01*
X87125765Y-99627996D01*
X87128006Y-99624243D01*
X87139274Y-99608364D01*
X87142068Y-99605019D01*
X87190683Y-99519340D01*
X87241215Y-99434764D01*
X87242747Y-99430679D01*
X87251003Y-99413033D01*
X87253153Y-99409245D01*
X87285692Y-99316253D01*
X87320307Y-99224024D01*
X87321085Y-99219737D01*
X87326056Y-99200902D01*
X87327498Y-99196783D01*
X87342910Y-99099472D01*
X87360500Y-99002547D01*
X87360500Y-98998168D01*
X87362027Y-98978770D01*
X87362710Y-98974460D01*
X87360500Y-98875997D01*
X87360500Y-98360993D01*
X87380185Y-98293955D01*
X87406807Y-98264352D01*
X87498990Y-98190254D01*
X87619116Y-98040811D01*
X87704307Y-97869039D01*
X87750581Y-97682968D01*
X87753500Y-97639921D01*
X87753499Y-96724608D01*
X87750581Y-96681560D01*
X87704307Y-96495489D01*
X87648150Y-96382259D01*
X87619118Y-96323720D01*
X87619116Y-96323717D01*
X87498990Y-96174274D01*
X87498989Y-96174273D01*
X87349546Y-96054147D01*
X87349543Y-96054145D01*
X87177778Y-95968958D01*
X87177776Y-95968957D01*
X87177775Y-95968957D01*
X87139939Y-95959547D01*
X86991708Y-95922683D01*
X86948658Y-95919764D01*
X86948657Y-95919764D01*
X85271344Y-95919765D01*
X85271343Y-95919765D01*
X85228298Y-95922682D01*
X85228297Y-95922682D01*
X85206518Y-95928099D01*
X85176592Y-95931764D01*
X75529283Y-95931764D01*
X75462244Y-95912079D01*
X75416489Y-95859275D01*
X75406545Y-95790117D01*
X75418195Y-95752670D01*
X75504305Y-95579043D01*
X75504307Y-95579039D01*
X75550581Y-95392968D01*
X75553500Y-95349921D01*
X75553499Y-94434608D01*
X75550581Y-94391560D01*
X75504307Y-94205489D01*
X75474252Y-94144888D01*
X75419118Y-94033720D01*
X75419116Y-94033717D01*
X75298990Y-93884274D01*
X75298989Y-93884273D01*
X75149546Y-93764147D01*
X75149543Y-93764145D01*
X74977778Y-93678958D01*
X74977776Y-93678957D01*
X74977775Y-93678957D01*
X74939939Y-93669547D01*
X74791708Y-93632683D01*
X74748658Y-93629764D01*
X74748657Y-93629764D01*
X73071344Y-93629765D01*
X73071343Y-93629765D01*
X73028298Y-93632682D01*
X73028297Y-93632682D01*
X72842221Y-93678958D01*
X72842220Y-93678958D01*
X72679094Y-93759861D01*
X72610289Y-93772013D01*
X72545837Y-93745036D01*
X72506202Y-93687497D01*
X72500000Y-93648773D01*
X72500000Y-92456764D01*
X72519685Y-92389725D01*
X72572489Y-92343970D01*
X72624000Y-92332764D01*
X74182453Y-92332764D01*
X74251268Y-92332764D01*
X74318307Y-92352449D01*
X74347914Y-92379075D01*
X74422010Y-92471254D01*
X74485983Y-92522677D01*
X74571453Y-92591380D01*
X74571456Y-92591382D01*
X74729016Y-92669524D01*
X74743225Y-92676571D01*
X74893013Y-92713822D01*
X74929291Y-92722844D01*
X74929292Y-92722844D01*
X74929296Y-92722845D01*
X74968336Y-92725492D01*
X74972342Y-92725764D01*
X74972342Y-92725763D01*
X74972343Y-92725764D01*
X75887656Y-92725763D01*
X75887657Y-92725763D01*
X75898417Y-92725033D01*
X75930704Y-92722845D01*
X76116775Y-92676571D01*
X76288547Y-92591380D01*
X76437990Y-92471254D01*
X76512085Y-92379075D01*
X76569429Y-92339158D01*
X76608732Y-92332764D01*
X78831268Y-92332764D01*
X78898307Y-92352449D01*
X78927914Y-92379075D01*
X79002010Y-92471254D01*
X79065983Y-92522677D01*
X79151453Y-92591380D01*
X79151456Y-92591382D01*
X79309016Y-92669524D01*
X79323225Y-92676571D01*
X79473013Y-92713822D01*
X79509291Y-92722844D01*
X79509292Y-92722844D01*
X79509296Y-92722845D01*
X79548336Y-92725492D01*
X79552342Y-92725764D01*
X79552342Y-92725763D01*
X79552343Y-92725764D01*
X80467656Y-92725763D01*
X80467657Y-92725763D01*
X80478417Y-92725033D01*
X80510704Y-92722845D01*
X80696775Y-92676571D01*
X80868547Y-92591380D01*
X81017990Y-92471254D01*
X81138116Y-92321811D01*
X81223307Y-92150039D01*
X81269581Y-91963968D01*
X81272500Y-91920921D01*
X81272499Y-90243608D01*
X81269581Y-90200560D01*
X81269580Y-90200555D01*
X81269580Y-90200553D01*
X81257984Y-90153927D01*
X81260906Y-90084119D01*
X81301107Y-90026972D01*
X81365821Y-90000631D01*
X81378318Y-90000000D01*
X83221681Y-90000000D01*
X83288720Y-90019685D01*
X83334475Y-90072489D01*
X83344419Y-90141647D01*
X83342016Y-90153926D01*
X83330419Y-90200555D01*
X83327500Y-90243606D01*
X83327501Y-91920920D01*
X83327501Y-91920921D01*
X83330418Y-91963965D01*
X83330418Y-91963966D01*
X83376694Y-92150042D01*
X83461881Y-92321807D01*
X83461883Y-92321810D01*
X83570363Y-92456764D01*
X83582010Y-92471254D01*
X83731453Y-92591380D01*
X83889024Y-92669528D01*
X83940333Y-92716945D01*
X83957863Y-92784580D01*
X83936043Y-92850956D01*
X83926076Y-92863585D01*
X83857466Y-92939784D01*
X83762821Y-93103715D01*
X83762818Y-93103722D01*
X83710021Y-93266217D01*
X83704326Y-93283744D01*
X83684540Y-93472000D01*
X83704326Y-93660256D01*
X83704327Y-93660259D01*
X83762818Y-93840277D01*
X83762821Y-93840284D01*
X83857467Y-94004216D01*
X83884033Y-94033720D01*
X83984129Y-94144888D01*
X84137265Y-94256148D01*
X84137270Y-94256151D01*
X84310192Y-94333142D01*
X84310197Y-94333144D01*
X84495354Y-94372500D01*
X84495355Y-94372500D01*
X84684644Y-94372500D01*
X84684646Y-94372500D01*
X84869803Y-94333144D01*
X85042730Y-94256151D01*
X85195871Y-94144888D01*
X85322533Y-94004216D01*
X85417179Y-93840284D01*
X85475674Y-93660256D01*
X85495460Y-93472000D01*
X85475674Y-93283744D01*
X85417179Y-93103716D01*
X85322533Y-92939784D01*
X85253922Y-92863584D01*
X85223693Y-92800594D01*
X85232318Y-92731258D01*
X85277060Y-92677593D01*
X85290956Y-92669537D01*
X85448547Y-92591380D01*
X85597990Y-92471254D01*
X85718116Y-92321811D01*
X85803307Y-92150039D01*
X85849581Y-91963968D01*
X85852500Y-91920921D01*
X85852499Y-90243608D01*
X85849581Y-90200560D01*
X85849580Y-90200555D01*
X85849580Y-90200553D01*
X85837984Y-90153927D01*
X85840906Y-90084119D01*
X85881107Y-90026972D01*
X85945821Y-90000631D01*
X85958318Y-90000000D01*
X88370500Y-90000000D01*
X88437539Y-90019685D01*
X88483294Y-90072489D01*
X88494500Y-90123999D01*
X88494500Y-91159860D01*
X88494499Y-95104667D01*
X88494499Y-95285351D01*
X88506052Y-95392807D01*
X88556334Y-95527615D01*
X88584944Y-95580009D01*
X88671166Y-95695187D01*
X88671177Y-95695199D01*
X88679084Y-95703106D01*
X88712569Y-95764429D01*
X88707585Y-95834121D01*
X88706833Y-95836085D01*
X88701346Y-95850066D01*
X88641296Y-96113162D01*
X88621131Y-96382259D01*
X88621131Y-96382268D01*
X88641296Y-96651365D01*
X88701344Y-96914452D01*
X88701345Y-96914458D01*
X88706832Y-96928437D01*
X88712999Y-96998034D01*
X88680561Y-97059917D01*
X88679092Y-97061412D01*
X88668001Y-97072504D01*
X88661812Y-97078917D01*
X88655552Y-97085520D01*
X88573497Y-97203708D01*
X88547964Y-97254721D01*
X88514976Y-97338563D01*
X88514976Y-97338565D01*
X88494500Y-97480981D01*
X88494500Y-97659860D01*
X88494500Y-99876000D01*
X88494501Y-99876009D01*
X88506052Y-99983450D01*
X88506054Y-99983462D01*
X88517260Y-100034972D01*
X88551383Y-100137497D01*
X88551386Y-100137503D01*
X88629171Y-100258537D01*
X88629179Y-100258548D01*
X88674923Y-100311340D01*
X88674926Y-100311343D01*
X88674930Y-100311347D01*
X88783664Y-100405567D01*
X88783667Y-100405568D01*
X88783668Y-100405569D01*
X88877925Y-100448616D01*
X88914541Y-100465338D01*
X88959357Y-100478497D01*
X88981575Y-100485022D01*
X88981580Y-100485023D01*
X88981584Y-100485024D01*
X89124000Y-100505500D01*
X89124003Y-100505500D01*
X94875990Y-100505500D01*
X94876000Y-100505500D01*
X94983456Y-100493947D01*
X95034967Y-100482741D01*
X95069197Y-100471347D01*
X95137497Y-100448616D01*
X95137501Y-100448613D01*
X95137504Y-100448613D01*
X95258543Y-100370825D01*
X95311347Y-100325070D01*
X95405567Y-100216336D01*
X95465338Y-100085459D01*
X95485023Y-100018420D01*
X95485024Y-100018416D01*
X95505500Y-99876000D01*
X95505500Y-91089958D01*
X95490741Y-90968698D01*
X95476470Y-90910943D01*
X95433048Y-90796755D01*
X95417303Y-90775038D01*
X95348603Y-90680276D01*
X95348598Y-90680271D01*
X95348596Y-90680268D01*
X95299952Y-90630113D01*
X95194774Y-90548839D01*
X95153763Y-90492272D01*
X95149845Y-90422512D01*
X95151958Y-90414705D01*
X95166663Y-90350274D01*
X95212063Y-90151367D01*
X95223406Y-90000000D01*
X95232229Y-89882268D01*
X95232229Y-89882259D01*
X95212063Y-89613162D01*
X95152015Y-89350072D01*
X95150881Y-89346397D01*
X95149923Y-89276534D01*
X95186889Y-89217244D01*
X95202320Y-89205525D01*
X95258543Y-89169393D01*
X95311347Y-89123638D01*
X95405567Y-89014904D01*
X95465338Y-88884027D01*
X95485023Y-88816988D01*
X95485024Y-88816984D01*
X95505500Y-88674568D01*
X95505500Y-87124000D01*
X95493947Y-87016544D01*
X95482741Y-86965033D01*
X95465935Y-86914539D01*
X95448616Y-86862502D01*
X95448613Y-86862496D01*
X95370828Y-86741462D01*
X95370825Y-86741457D01*
X95370820Y-86741451D01*
X95325076Y-86688659D01*
X95325072Y-86688656D01*
X95325070Y-86688653D01*
X95216336Y-86594433D01*
X95216333Y-86594431D01*
X95216331Y-86594430D01*
X95085465Y-86534664D01*
X95085460Y-86534662D01*
X95085459Y-86534662D01*
X95062858Y-86528025D01*
X95018425Y-86514978D01*
X95018419Y-86514976D01*
X94932966Y-86502690D01*
X94876000Y-86494500D01*
X89124000Y-86494500D01*
X89056961Y-86474815D01*
X89011206Y-86422011D01*
X89000000Y-86370500D01*
X89000000Y-80067763D01*
X98145787Y-80067763D01*
X98175413Y-80337013D01*
X98175415Y-80337024D01*
X98243926Y-80599082D01*
X98243928Y-80599088D01*
X98349870Y-80848390D01*
X98434031Y-80986292D01*
X98490979Y-81079605D01*
X98490986Y-81079615D01*
X98664253Y-81287819D01*
X98664259Y-81287824D01*
X98865998Y-81468582D01*
X99091910Y-81618044D01*
X99337176Y-81733020D01*
X99337183Y-81733022D01*
X99337185Y-81733023D01*
X99596557Y-81811057D01*
X99596564Y-81811058D01*
X99596569Y-81811060D01*
X99864561Y-81850500D01*
X99864566Y-81850500D01*
X100067636Y-81850500D01*
X100119133Y-81846730D01*
X100270156Y-81835677D01*
X100382758Y-81810593D01*
X100534546Y-81776782D01*
X100534548Y-81776781D01*
X100534553Y-81776780D01*
X100787558Y-81680014D01*
X101023777Y-81547441D01*
X101238177Y-81381888D01*
X101426186Y-81186881D01*
X101583799Y-80966579D01*
X101657787Y-80822669D01*
X101707649Y-80725690D01*
X101707651Y-80725684D01*
X101707656Y-80725675D01*
X101795118Y-80469305D01*
X101844319Y-80202933D01*
X101854212Y-79932235D01*
X101824586Y-79662982D01*
X101756072Y-79400912D01*
X101650130Y-79151610D01*
X101509018Y-78920390D01*
X101507845Y-78918981D01*
X101335746Y-78712180D01*
X101335740Y-78712175D01*
X101134002Y-78531418D01*
X100908092Y-78381957D01*
X100869396Y-78363817D01*
X100662824Y-78266980D01*
X100662819Y-78266978D01*
X100662814Y-78266976D01*
X100403442Y-78188942D01*
X100403428Y-78188939D01*
X100287791Y-78171921D01*
X100135439Y-78149500D01*
X99932369Y-78149500D01*
X99932364Y-78149500D01*
X99729844Y-78164323D01*
X99729831Y-78164325D01*
X99465453Y-78223217D01*
X99465446Y-78223220D01*
X99212439Y-78319987D01*
X98976226Y-78452557D01*
X98976224Y-78452558D01*
X98976223Y-78452559D01*
X98913893Y-78500688D01*
X98761822Y-78618112D01*
X98573822Y-78813109D01*
X98573816Y-78813116D01*
X98416202Y-79033419D01*
X98416199Y-79033424D01*
X98292350Y-79274309D01*
X98292343Y-79274327D01*
X98204884Y-79530685D01*
X98204881Y-79530699D01*
X98155681Y-79797068D01*
X98155680Y-79797075D01*
X98145787Y-80067763D01*
X89000000Y-80067763D01*
X89000000Y-78518958D01*
X89019685Y-78451919D01*
X89072489Y-78406164D01*
X89124000Y-78394958D01*
X96744861Y-78394958D01*
X96768132Y-78401791D01*
X96826456Y-78395335D01*
X96833283Y-78394958D01*
X96885346Y-78394958D01*
X96885770Y-78394909D01*
X96922862Y-78394876D01*
X96996638Y-78381724D01*
X97014115Y-78383639D01*
X97035514Y-78376291D01*
X97054018Y-78371494D01*
X97097077Y-78363819D01*
X97200333Y-78325792D01*
X97219419Y-78324507D01*
X97232181Y-78316659D01*
X97254283Y-78305925D01*
X97263136Y-78302665D01*
X97271283Y-78297898D01*
X97293620Y-78287653D01*
X97300073Y-78285436D01*
X97320902Y-78268874D01*
X97415883Y-78213314D01*
X97449172Y-78184947D01*
X97464637Y-78173706D01*
X97477401Y-78165856D01*
X97493532Y-78147147D01*
X97550576Y-78098539D01*
X97571643Y-78072989D01*
X97571723Y-78072935D01*
X97605851Y-78031509D01*
X97607921Y-78029125D01*
X97611438Y-78025278D01*
X97613941Y-78022696D01*
X97660574Y-77977307D01*
X97671347Y-77959737D01*
X97711051Y-77916302D01*
X97825747Y-77791641D01*
X97830160Y-77787303D01*
X97952377Y-77678705D01*
X98074567Y-77572239D01*
X98079054Y-77568685D01*
X98213246Y-77472339D01*
X98217151Y-77469629D01*
X98345347Y-77380702D01*
X98349865Y-77377852D01*
X98494027Y-77295520D01*
X98634993Y-77219203D01*
X98639449Y-77217020D01*
X98791803Y-77149871D01*
X98940216Y-77089569D01*
X98944490Y-77088016D01*
X99103350Y-77036893D01*
X99257510Y-76993286D01*
X99261529Y-76992297D01*
X99425139Y-76957842D01*
X99550260Y-76936956D01*
X99583166Y-76931464D01*
X99586946Y-76930951D01*
X99752016Y-76913758D01*
X99754931Y-76913526D01*
X99893973Y-76905852D01*
X99913627Y-76904768D01*
X99917044Y-76904674D01*
X100082956Y-76904674D01*
X100086373Y-76904768D01*
G37*
%TD.AperFunction*%
%TD*%
%TA.AperFunction,Conductor*%
%TO.N,Vin*%
G36*
X88437539Y-78414643D02*
G01*
X88483294Y-78467447D01*
X88494500Y-78518958D01*
X88494500Y-80049254D01*
X88494500Y-84487264D01*
X88494500Y-86370500D01*
X88494501Y-86370509D01*
X88506052Y-86477950D01*
X88506054Y-86477962D01*
X88517260Y-86529472D01*
X88551383Y-86631997D01*
X88551386Y-86632003D01*
X88580433Y-86677200D01*
X88600118Y-86744240D01*
X88588912Y-86795752D01*
X88534662Y-86914539D01*
X88534661Y-86914542D01*
X88522949Y-86954429D01*
X88514978Y-86981577D01*
X88514976Y-86981583D01*
X88514975Y-86981585D01*
X88514974Y-86981589D01*
X88494500Y-87123998D01*
X88494500Y-89370500D01*
X88474815Y-89437539D01*
X88422011Y-89483294D01*
X88370500Y-89494500D01*
X85951942Y-89494500D01*
X85939194Y-89494822D01*
X85929762Y-89495298D01*
X85920329Y-89495774D01*
X85894879Y-89497704D01*
X85894874Y-89497704D01*
X85789430Y-89523929D01*
X85755246Y-89532431D01*
X85755243Y-89532431D01*
X85755232Y-89532435D01*
X85690539Y-89558768D01*
X85690532Y-89558771D01*
X85613856Y-89603630D01*
X85546051Y-89620492D01*
X85479894Y-89598020D01*
X85473554Y-89593249D01*
X85448545Y-89573146D01*
X85448543Y-89573145D01*
X85276778Y-89487958D01*
X85276776Y-89487957D01*
X85276775Y-89487957D01*
X85225792Y-89475278D01*
X85090708Y-89441683D01*
X85047658Y-89438764D01*
X85047657Y-89438764D01*
X84132344Y-89438765D01*
X84132343Y-89438765D01*
X84089298Y-89441682D01*
X84089297Y-89441682D01*
X83903221Y-89487958D01*
X83731456Y-89573145D01*
X83731448Y-89573150D01*
X83711059Y-89589540D01*
X83646475Y-89616198D01*
X83577731Y-89603707D01*
X83566327Y-89597203D01*
X83562015Y-89594431D01*
X83431146Y-89534664D01*
X83431141Y-89534662D01*
X83431140Y-89534662D01*
X83400660Y-89525712D01*
X83364106Y-89514978D01*
X83364100Y-89514976D01*
X83278647Y-89502690D01*
X83221681Y-89494500D01*
X81371942Y-89494500D01*
X81359194Y-89494822D01*
X81349762Y-89495298D01*
X81340329Y-89495774D01*
X81314879Y-89497704D01*
X81314874Y-89497704D01*
X81209430Y-89523929D01*
X81175246Y-89532431D01*
X81175243Y-89532431D01*
X81175232Y-89532435D01*
X81110539Y-89558768D01*
X81110532Y-89558771D01*
X81033856Y-89603630D01*
X80966051Y-89620492D01*
X80899894Y-89598020D01*
X80893554Y-89593249D01*
X80868545Y-89573146D01*
X80868543Y-89573145D01*
X80696778Y-89487958D01*
X80696776Y-89487957D01*
X80696775Y-89487957D01*
X80645792Y-89475278D01*
X80510708Y-89441683D01*
X80467658Y-89438764D01*
X80467657Y-89438764D01*
X79552344Y-89438765D01*
X79552343Y-89438765D01*
X79509298Y-89441682D01*
X79509297Y-89441682D01*
X79323221Y-89487958D01*
X79151456Y-89573145D01*
X79151453Y-89573147D01*
X79029589Y-89671105D01*
X79002010Y-89693274D01*
X78937662Y-89773326D01*
X78927915Y-89785452D01*
X78870571Y-89825370D01*
X78831268Y-89831764D01*
X76608732Y-89831764D01*
X76541693Y-89812079D01*
X76512085Y-89785452D01*
X76502338Y-89773326D01*
X76437990Y-89693274D01*
X76293120Y-89576824D01*
X76288546Y-89573147D01*
X76288543Y-89573145D01*
X76116778Y-89487958D01*
X76116776Y-89487957D01*
X76116775Y-89487957D01*
X76065792Y-89475278D01*
X75930708Y-89441683D01*
X75887658Y-89438764D01*
X75887657Y-89438764D01*
X74972344Y-89438765D01*
X74972343Y-89438765D01*
X74929298Y-89441682D01*
X74929297Y-89441682D01*
X74743221Y-89487958D01*
X74571456Y-89573145D01*
X74571453Y-89573147D01*
X74449589Y-89671105D01*
X74422010Y-89693274D01*
X74357662Y-89773326D01*
X74347915Y-89785452D01*
X74290571Y-89825370D01*
X74251268Y-89831764D01*
X69328107Y-89831764D01*
X69261068Y-89812079D01*
X69240426Y-89795445D01*
X65587160Y-86142179D01*
X65554184Y-86083096D01*
X65547220Y-86053712D01*
X65547218Y-86053709D01*
X65545741Y-86047474D01*
X65549435Y-85977702D01*
X65590264Y-85921003D01*
X65655265Y-85895379D01*
X65666399Y-85894878D01*
X65874570Y-85894878D01*
X65874572Y-85894878D01*
X66107289Y-85853844D01*
X66329345Y-85773023D01*
X66533993Y-85654869D01*
X66715015Y-85502974D01*
X66866910Y-85321952D01*
X66985064Y-85117304D01*
X67065885Y-84895249D01*
X67106919Y-84662531D01*
X67106919Y-84426225D01*
X67065885Y-84193507D01*
X66985064Y-83971452D01*
X66926831Y-83870590D01*
X66866911Y-83766806D01*
X66866908Y-83766802D01*
X66837928Y-83732265D01*
X74368953Y-83732265D01*
X74387837Y-83996291D01*
X74387838Y-83996298D01*
X74444101Y-84254937D01*
X74536606Y-84502954D01*
X74536608Y-84502958D01*
X74663460Y-84735269D01*
X74663465Y-84735277D01*
X74822086Y-84947171D01*
X74822102Y-84947189D01*
X75009254Y-85134341D01*
X75009272Y-85134357D01*
X75221166Y-85292978D01*
X75221174Y-85292983D01*
X75453485Y-85419835D01*
X75453489Y-85419837D01*
X75453491Y-85419838D01*
X75701502Y-85512341D01*
X75701505Y-85512341D01*
X75701506Y-85512342D01*
X75896732Y-85554810D01*
X75960154Y-85568607D01*
X76203840Y-85586036D01*
X76224179Y-85587491D01*
X76224180Y-85587491D01*
X76224181Y-85587491D01*
X76243064Y-85586140D01*
X76488206Y-85568607D01*
X76746858Y-85512341D01*
X76994869Y-85419838D01*
X77227191Y-85292980D01*
X77439095Y-85134351D01*
X77626267Y-84947179D01*
X77674873Y-84882249D01*
X78334180Y-84882249D01*
X78344673Y-84984953D01*
X78344674Y-84984960D01*
X78399821Y-85151382D01*
X78399823Y-85151387D01*
X78491864Y-85300608D01*
X78615835Y-85424579D01*
X78765056Y-85516620D01*
X78765061Y-85516622D01*
X78931483Y-85571769D01*
X78931490Y-85571770D01*
X79034194Y-85582263D01*
X79034207Y-85582264D01*
X79934180Y-85582264D01*
X79934180Y-84547583D01*
X80091737Y-84582264D01*
X80230264Y-84582264D01*
X80367982Y-84567286D01*
X80434180Y-84544981D01*
X80434180Y-85582264D01*
X81334153Y-85582264D01*
X81334165Y-85582263D01*
X81436869Y-85571770D01*
X81436876Y-85571769D01*
X81603298Y-85516622D01*
X81603303Y-85516620D01*
X81752524Y-85424579D01*
X81876495Y-85300608D01*
X81968536Y-85151387D01*
X81968538Y-85151382D01*
X82023685Y-84984960D01*
X82023686Y-84984953D01*
X82034179Y-84882249D01*
X82034180Y-84882236D01*
X82034180Y-83982264D01*
X80999556Y-83982264D01*
X81008027Y-83961004D01*
X81037938Y-83778553D01*
X81027929Y-83593938D01*
X80996922Y-83482264D01*
X82034180Y-83482264D01*
X82034180Y-82582291D01*
X82034179Y-82582278D01*
X82023686Y-82479574D01*
X82023685Y-82479567D01*
X81968538Y-82313145D01*
X81968536Y-82313140D01*
X81876495Y-82163919D01*
X81752524Y-82039948D01*
X81603303Y-81947907D01*
X81603298Y-81947905D01*
X81436876Y-81892758D01*
X81436869Y-81892757D01*
X81334165Y-81882264D01*
X80434180Y-81882264D01*
X80434180Y-82916944D01*
X80276623Y-82882264D01*
X80138096Y-82882264D01*
X80000378Y-82897242D01*
X79934180Y-82919546D01*
X79934180Y-81882264D01*
X79034194Y-81882264D01*
X78931490Y-81892757D01*
X78931483Y-81892758D01*
X78765061Y-81947905D01*
X78765056Y-81947907D01*
X78615835Y-82039948D01*
X78491864Y-82163919D01*
X78399823Y-82313140D01*
X78399821Y-82313145D01*
X78344674Y-82479567D01*
X78344673Y-82479574D01*
X78334180Y-82582278D01*
X78334180Y-83482264D01*
X79368804Y-83482264D01*
X79360333Y-83503524D01*
X79330422Y-83685975D01*
X79340431Y-83870590D01*
X79371438Y-83982264D01*
X78334180Y-83982264D01*
X78334180Y-84882249D01*
X77674873Y-84882249D01*
X77784896Y-84735275D01*
X77911754Y-84502953D01*
X78004257Y-84254942D01*
X78060523Y-83996290D01*
X78079407Y-83732264D01*
X78060523Y-83468238D01*
X78006905Y-83221757D01*
X78004258Y-83209590D01*
X77967683Y-83111529D01*
X77911754Y-82961575D01*
X77890149Y-82922009D01*
X77784899Y-82729258D01*
X77784894Y-82729250D01*
X77626273Y-82517356D01*
X77626257Y-82517338D01*
X77439105Y-82330186D01*
X77439087Y-82330170D01*
X77227193Y-82171549D01*
X77227185Y-82171544D01*
X76994874Y-82044692D01*
X76994870Y-82044690D01*
X76746853Y-81952185D01*
X76488214Y-81895922D01*
X76488207Y-81895921D01*
X76224181Y-81877037D01*
X76224179Y-81877037D01*
X75960152Y-81895921D01*
X75960145Y-81895922D01*
X75701506Y-81952185D01*
X75453489Y-82044690D01*
X75453485Y-82044692D01*
X75221174Y-82171544D01*
X75221166Y-82171549D01*
X75009272Y-82330170D01*
X75009254Y-82330186D01*
X74822102Y-82517338D01*
X74822086Y-82517356D01*
X74663465Y-82729250D01*
X74663460Y-82729258D01*
X74536608Y-82961569D01*
X74536606Y-82961573D01*
X74444101Y-83209590D01*
X74387838Y-83468229D01*
X74387837Y-83468236D01*
X74368953Y-83732262D01*
X74368953Y-83732265D01*
X66837928Y-83732265D01*
X66753061Y-83631125D01*
X66625460Y-83503524D01*
X66457539Y-83335603D01*
X66457534Y-83335599D01*
X66457535Y-83335599D01*
X66321864Y-83221757D01*
X66321857Y-83221752D01*
X66117217Y-83103603D01*
X66117214Y-83103602D01*
X66117213Y-83103601D01*
X66089174Y-83093395D01*
X65895157Y-83022779D01*
X65662442Y-82981746D01*
X65662440Y-82981746D01*
X65426134Y-82981746D01*
X65426131Y-82981746D01*
X65193415Y-83022780D01*
X64971366Y-83103599D01*
X64971356Y-83103603D01*
X64766714Y-83221754D01*
X64766711Y-83221756D01*
X64585690Y-83373649D01*
X64433797Y-83554670D01*
X64433795Y-83554673D01*
X64315644Y-83759315D01*
X64315641Y-83759322D01*
X64234820Y-83981375D01*
X64193787Y-84214090D01*
X64193787Y-84422265D01*
X64174102Y-84489304D01*
X64121298Y-84535059D01*
X64052140Y-84545003D01*
X64041190Y-84542922D01*
X63864248Y-84500985D01*
X63864243Y-84500984D01*
X63864241Y-84500984D01*
X63688799Y-84500984D01*
X63688797Y-84500984D01*
X63688791Y-84500985D01*
X63518089Y-84541443D01*
X63361302Y-84620184D01*
X63281208Y-84685431D01*
X63281190Y-84685447D01*
X62361955Y-85604683D01*
X62361936Y-85604704D01*
X62296695Y-85684790D01*
X62296691Y-85684796D01*
X62217950Y-85841582D01*
X62177492Y-86012284D01*
X62177490Y-86012295D01*
X62177490Y-86187730D01*
X62177492Y-86187741D01*
X62217951Y-86358445D01*
X62217951Y-86358446D01*
X62296687Y-86515222D01*
X62296690Y-86515227D01*
X62361947Y-86595335D01*
X63493330Y-87726717D01*
X63545182Y-87768957D01*
X63573435Y-87791973D01*
X63573443Y-87791978D01*
X63730215Y-87870712D01*
X63730218Y-87870712D01*
X63730219Y-87870713D01*
X63759601Y-87877676D01*
X63818686Y-87910653D01*
X67822413Y-91914380D01*
X67827049Y-91919567D01*
X67851263Y-91949930D01*
X67902738Y-91994903D01*
X67905771Y-91997738D01*
X67914242Y-92006209D01*
X67914246Y-92006213D01*
X67914250Y-92006216D01*
X67946588Y-92033213D01*
X68020772Y-92098027D01*
X68024521Y-92100267D01*
X68040395Y-92111529D01*
X68043752Y-92114332D01*
X68043754Y-92114333D01*
X68043754Y-92114334D01*
X68129422Y-92162943D01*
X68213999Y-92213475D01*
X68214001Y-92213475D01*
X68214007Y-92213479D01*
X68218098Y-92215014D01*
X68235726Y-92223260D01*
X68239526Y-92225417D01*
X68332511Y-92257954D01*
X68424747Y-92292571D01*
X68424751Y-92292571D01*
X68424752Y-92292572D01*
X68429035Y-92293349D01*
X68447857Y-92298316D01*
X68451989Y-92299762D01*
X68549294Y-92315173D01*
X68581604Y-92321036D01*
X68646222Y-92332764D01*
X68646224Y-92332764D01*
X68650599Y-92332764D01*
X68670002Y-92334292D01*
X68671709Y-92334561D01*
X68674311Y-92334974D01*
X68772793Y-92332764D01*
X71870500Y-92332764D01*
X71937539Y-92352449D01*
X71983294Y-92405253D01*
X71994500Y-92456764D01*
X71994500Y-93648779D01*
X72000861Y-93728716D01*
X72001020Y-93729706D01*
X72007063Y-93767439D01*
X72012263Y-93788854D01*
X72025981Y-93845353D01*
X72089909Y-93974256D01*
X72103042Y-93993321D01*
X72129544Y-94031794D01*
X72129546Y-94031796D01*
X72129549Y-94031801D01*
X72227194Y-94137460D01*
X72227196Y-94137462D01*
X72240117Y-94145193D01*
X72287537Y-94196505D01*
X72299688Y-94265310D01*
X72296783Y-94281525D01*
X72269419Y-94391555D01*
X72266500Y-94434606D01*
X72266501Y-95349920D01*
X72266501Y-95349921D01*
X72269418Y-95392965D01*
X72269418Y-95392966D01*
X72315694Y-95579042D01*
X72400880Y-95750806D01*
X72400883Y-95750810D01*
X72400884Y-95750811D01*
X72468828Y-95835337D01*
X72495486Y-95899918D01*
X72496180Y-95913022D01*
X72496180Y-96161504D01*
X72476495Y-96228543D01*
X72468828Y-96239191D01*
X72400880Y-96323722D01*
X72315694Y-96495485D01*
X72269419Y-96681555D01*
X72266500Y-96724606D01*
X72266501Y-97639920D01*
X72266501Y-97639921D01*
X72269418Y-97682965D01*
X72269418Y-97682966D01*
X72315694Y-97869042D01*
X72400881Y-98040807D01*
X72400883Y-98040810D01*
X72400884Y-98040811D01*
X72521010Y-98190254D01*
X72571224Y-98230617D01*
X72611142Y-98287961D01*
X72613722Y-98357783D01*
X72578143Y-98417915D01*
X72571228Y-98423907D01*
X72528638Y-98458143D01*
X72521008Y-98464276D01*
X72400883Y-98613717D01*
X72400881Y-98613720D01*
X72315694Y-98785485D01*
X72269419Y-98971555D01*
X72266500Y-99014606D01*
X72266501Y-99929920D01*
X72266501Y-99929921D01*
X72269788Y-99978417D01*
X72268531Y-99978502D01*
X72260281Y-100041680D01*
X72234512Y-100079312D01*
X72142557Y-100171267D01*
X72074744Y-100255418D01*
X72014976Y-100386290D01*
X72014975Y-100386295D01*
X71999706Y-100492500D01*
X71994500Y-100528710D01*
X71994500Y-102144764D01*
X71994500Y-104376000D01*
X71994501Y-104376009D01*
X72006052Y-104483450D01*
X72006054Y-104483462D01*
X72017260Y-104534972D01*
X72051383Y-104637497D01*
X72051386Y-104637503D01*
X72129171Y-104758537D01*
X72129179Y-104758548D01*
X72174923Y-104811340D01*
X72174926Y-104811343D01*
X72174930Y-104811347D01*
X72283664Y-104905567D01*
X72283667Y-104905568D01*
X72283668Y-104905569D01*
X72378536Y-104948895D01*
X72414541Y-104965338D01*
X72459357Y-104978497D01*
X72481575Y-104985022D01*
X72481580Y-104985023D01*
X72481584Y-104985024D01*
X72624000Y-105005500D01*
X72624003Y-105005500D01*
X74102264Y-105005500D01*
X74115013Y-105005178D01*
X74133877Y-105004226D01*
X74159323Y-105002296D01*
X74298950Y-104967573D01*
X74344840Y-104948895D01*
X74363673Y-104941230D01*
X74363675Y-104941229D01*
X74487863Y-104868572D01*
X74501051Y-104854579D01*
X74561354Y-104819296D01*
X74631163Y-104822216D01*
X74646377Y-104828539D01*
X74743225Y-104876571D01*
X74859816Y-104905566D01*
X74929291Y-104922844D01*
X74929292Y-104922844D01*
X74929296Y-104922845D01*
X74968336Y-104925492D01*
X74972342Y-104925764D01*
X74972342Y-104925763D01*
X74972343Y-104925764D01*
X75887656Y-104925763D01*
X75887657Y-104925763D01*
X75898417Y-104925033D01*
X75930704Y-104922845D01*
X76116775Y-104876571D01*
X76216813Y-104826956D01*
X76285616Y-104814805D01*
X76350068Y-104841781D01*
X76353087Y-104844314D01*
X76423776Y-104905567D01*
X76423779Y-104905568D01*
X76423780Y-104905569D01*
X76518648Y-104948895D01*
X76554653Y-104965338D01*
X76599469Y-104978497D01*
X76621687Y-104985022D01*
X76621692Y-104985023D01*
X76621696Y-104985024D01*
X76764112Y-105005500D01*
X76764115Y-105005500D01*
X78681748Y-105005500D01*
X78694497Y-105005178D01*
X78713361Y-105004226D01*
X78738807Y-105002296D01*
X78878434Y-104967573D01*
X78924324Y-104948895D01*
X78943157Y-104941230D01*
X78943159Y-104941229D01*
X79067347Y-104868572D01*
X79080701Y-104854403D01*
X79141003Y-104819121D01*
X79210811Y-104822041D01*
X79226020Y-104828362D01*
X79323225Y-104876571D01*
X79439816Y-104905566D01*
X79509291Y-104922844D01*
X79509292Y-104922844D01*
X79509296Y-104922845D01*
X79548336Y-104925492D01*
X79552342Y-104925764D01*
X79552342Y-104925763D01*
X79552343Y-104925764D01*
X80467656Y-104925763D01*
X80467657Y-104925763D01*
X80478417Y-104925033D01*
X80510704Y-104922845D01*
X80696775Y-104876571D01*
X80797142Y-104826793D01*
X80865943Y-104814642D01*
X80930396Y-104841618D01*
X80933412Y-104844148D01*
X81004292Y-104905567D01*
X81004295Y-104905568D01*
X81004296Y-104905569D01*
X81099164Y-104948895D01*
X81135169Y-104965338D01*
X81179985Y-104978497D01*
X81202203Y-104985022D01*
X81202208Y-104985023D01*
X81202212Y-104985024D01*
X81344628Y-105005500D01*
X81344631Y-105005500D01*
X88876000Y-105005500D01*
X88943039Y-105025185D01*
X88988794Y-105077989D01*
X89000000Y-105129500D01*
X89000000Y-109779664D01*
X88980315Y-109846703D01*
X88927511Y-109892458D01*
X88858353Y-109902402D01*
X88794797Y-109873377D01*
X88788319Y-109867345D01*
X86962003Y-108041029D01*
X86944148Y-108018449D01*
X86882712Y-107918844D01*
X86758656Y-107794788D01*
X86609334Y-107702686D01*
X86442797Y-107647501D01*
X86442795Y-107647500D01*
X86340016Y-107637000D01*
X86340009Y-107637000D01*
X86214000Y-107637000D01*
X86146961Y-107617315D01*
X86101206Y-107564511D01*
X86090000Y-107513000D01*
X86090000Y-107262500D01*
X84090001Y-107262500D01*
X84090001Y-107513000D01*
X84070316Y-107580039D01*
X84017512Y-107625794D01*
X83966002Y-107637000D01*
X83840000Y-107637000D01*
X83839970Y-107637002D01*
X83838788Y-107637123D01*
X83838533Y-107637075D01*
X83836838Y-107637162D01*
X83836817Y-107636756D01*
X83770098Y-107624337D01*
X83738534Y-107601443D01*
X82899591Y-106762500D01*
X84090000Y-106762500D01*
X84840000Y-106762500D01*
X84840000Y-105762500D01*
X85340000Y-105762500D01*
X85340000Y-106762500D01*
X86089999Y-106762500D01*
X86089999Y-106462528D01*
X86089998Y-106462513D01*
X86079505Y-106359802D01*
X86024358Y-106193380D01*
X86024356Y-106193375D01*
X85932315Y-106044154D01*
X85808345Y-105920184D01*
X85659124Y-105828143D01*
X85659119Y-105828141D01*
X85492697Y-105772994D01*
X85492690Y-105772993D01*
X85389986Y-105762500D01*
X85340000Y-105762500D01*
X84840000Y-105762500D01*
X84839999Y-105762499D01*
X84790029Y-105762500D01*
X84790011Y-105762501D01*
X84687302Y-105772994D01*
X84520880Y-105828141D01*
X84520875Y-105828143D01*
X84371654Y-105920184D01*
X84247684Y-106044154D01*
X84155643Y-106193375D01*
X84155641Y-106193380D01*
X84100494Y-106359802D01*
X84100493Y-106359809D01*
X84090000Y-106462513D01*
X84090000Y-106762500D01*
X82899591Y-106762500D01*
X82765803Y-106628712D01*
X82755980Y-106616450D01*
X82755759Y-106616634D01*
X82750786Y-106610623D01*
X82700364Y-106563273D01*
X82689919Y-106552828D01*
X82679475Y-106542383D01*
X82673986Y-106538125D01*
X82669561Y-106534347D01*
X82635582Y-106502438D01*
X82635580Y-106502436D01*
X82635577Y-106502435D01*
X82618029Y-106492788D01*
X82601763Y-106482104D01*
X82585933Y-106469825D01*
X82543168Y-106451318D01*
X82537922Y-106448748D01*
X82497093Y-106426303D01*
X82497092Y-106426302D01*
X82477693Y-106421322D01*
X82459281Y-106415018D01*
X82440898Y-106407062D01*
X82440892Y-106407060D01*
X82394874Y-106399772D01*
X82389152Y-106398587D01*
X82344021Y-106387000D01*
X82344019Y-106387000D01*
X82323984Y-106387000D01*
X82304586Y-106385473D01*
X82297162Y-106384297D01*
X82284805Y-106382340D01*
X82284804Y-106382340D01*
X82238416Y-106386725D01*
X82232578Y-106387000D01*
X81098585Y-106387000D01*
X81031546Y-106367315D01*
X80985791Y-106314511D01*
X80980879Y-106302004D01*
X80967395Y-106261312D01*
X80944814Y-106193166D01*
X80852712Y-106043844D01*
X80728656Y-105919788D01*
X80579334Y-105827686D01*
X80412797Y-105772501D01*
X80412795Y-105772500D01*
X80310010Y-105762000D01*
X79709998Y-105762000D01*
X79709980Y-105762001D01*
X79607203Y-105772500D01*
X79607200Y-105772501D01*
X79440668Y-105827685D01*
X79440663Y-105827687D01*
X79291342Y-105919789D01*
X79167289Y-106043842D01*
X79075187Y-106193163D01*
X79075185Y-106193168D01*
X79068337Y-106213835D01*
X79020001Y-106359703D01*
X79020001Y-106359704D01*
X79020000Y-106359704D01*
X79009500Y-106462483D01*
X79009500Y-107513000D01*
X78989815Y-107580039D01*
X78937011Y-107625794D01*
X78885501Y-107637000D01*
X78759999Y-107637000D01*
X78759980Y-107637001D01*
X78657203Y-107647500D01*
X78657200Y-107647501D01*
X78490668Y-107702685D01*
X78490663Y-107702687D01*
X78341342Y-107794789D01*
X78217288Y-107918843D01*
X78217285Y-107918847D01*
X78196623Y-107952346D01*
X78144675Y-107999071D01*
X78075713Y-108010292D01*
X78011631Y-107982449D01*
X78003404Y-107974930D01*
X77496356Y-107467882D01*
X77491719Y-107462693D01*
X77467507Y-107432332D01*
X77416031Y-107387359D01*
X77412997Y-107384523D01*
X77404529Y-107376055D01*
X77400728Y-107372882D01*
X77372181Y-107349049D01*
X77298002Y-107284240D01*
X77297997Y-107284236D01*
X77297996Y-107284235D01*
X77294241Y-107281991D01*
X77278373Y-107270732D01*
X77275019Y-107267932D01*
X77275018Y-107267931D01*
X77275013Y-107267927D01*
X77194380Y-107222176D01*
X77189340Y-107219316D01*
X77133540Y-107185977D01*
X77104761Y-107168783D01*
X77100669Y-107167248D01*
X77083044Y-107159002D01*
X77079245Y-107156846D01*
X76986253Y-107124307D01*
X76894029Y-107089694D01*
X76894019Y-107089691D01*
X76889723Y-107088912D01*
X76870918Y-107083949D01*
X76866784Y-107082502D01*
X76866779Y-107082501D01*
X76769472Y-107067089D01*
X76672550Y-107049500D01*
X76672547Y-107049500D01*
X76668172Y-107049500D01*
X76648769Y-107047972D01*
X76644460Y-107047289D01*
X76545978Y-107049500D01*
X75156147Y-107049500D01*
X75089108Y-107029815D01*
X75043353Y-106977011D01*
X75032147Y-106925500D01*
X75032147Y-105950000D01*
X75027000Y-105878039D01*
X75026999Y-105878034D01*
X74986454Y-105739949D01*
X74945760Y-105676628D01*
X74908643Y-105618872D01*
X74799873Y-105524623D01*
X74799871Y-105524622D01*
X74668956Y-105464834D01*
X74562292Y-105449499D01*
X74526500Y-105444353D01*
X72793500Y-105444353D01*
X72721539Y-105449499D01*
X72721534Y-105449500D01*
X72583449Y-105490045D01*
X72462373Y-105567856D01*
X72368123Y-105676626D01*
X72368122Y-105676628D01*
X72308334Y-105807543D01*
X72287853Y-105950000D01*
X72287853Y-106925500D01*
X72268168Y-106992539D01*
X72215364Y-107038294D01*
X72163853Y-107049500D01*
X70843707Y-107049500D01*
X70836768Y-107049110D01*
X70813477Y-107046486D01*
X70798176Y-107044762D01*
X70798169Y-107044761D01*
X70752687Y-107047828D01*
X70729962Y-107049360D01*
X70725809Y-107049500D01*
X70713838Y-107049500D01*
X70671900Y-107053274D01*
X70573588Y-107059902D01*
X70573581Y-107059903D01*
X70569327Y-107060975D01*
X70550174Y-107064230D01*
X70545811Y-107064623D01*
X70545802Y-107064624D01*
X70450852Y-107090830D01*
X70355319Y-107114902D01*
X70351322Y-107116718D01*
X70333059Y-107123339D01*
X70328838Y-107124504D01*
X70328830Y-107124507D01*
X70240055Y-107167258D01*
X70150376Y-107207991D01*
X70146772Y-107210488D01*
X70129980Y-107220267D01*
X70126029Y-107222170D01*
X70126018Y-107222176D01*
X70046314Y-107280085D01*
X69965347Y-107336178D01*
X69962239Y-107339286D01*
X69947465Y-107351903D01*
X69943928Y-107354473D01*
X69943921Y-107354478D01*
X69875846Y-107425679D01*
X64837844Y-112463681D01*
X64776521Y-112497166D01*
X64750163Y-112500000D01*
X63303043Y-112500000D01*
X63259710Y-112492182D01*
X63072673Y-112422421D01*
X62814034Y-112366158D01*
X62814027Y-112366157D01*
X62550001Y-112347273D01*
X62549999Y-112347273D01*
X62285972Y-112366157D01*
X62285965Y-112366158D01*
X62027326Y-112422421D01*
X61840290Y-112492182D01*
X61796957Y-112500000D01*
X57587470Y-112500000D01*
X57520431Y-112480315D01*
X57474676Y-112427511D01*
X57463470Y-112376000D01*
X57463470Y-111392485D01*
X60700000Y-111392485D01*
X60710493Y-111495189D01*
X60710494Y-111495196D01*
X60765641Y-111661618D01*
X60765643Y-111661623D01*
X60857684Y-111810844D01*
X60981655Y-111934815D01*
X61130876Y-112026856D01*
X61130881Y-112026858D01*
X61297303Y-112082005D01*
X61297310Y-112082006D01*
X61400014Y-112092499D01*
X61400027Y-112092500D01*
X62300000Y-112092500D01*
X62300000Y-111057819D01*
X62457557Y-111092500D01*
X62596084Y-111092500D01*
X62733802Y-111077522D01*
X62800000Y-111055217D01*
X62800000Y-112092500D01*
X63699973Y-112092500D01*
X63699985Y-112092499D01*
X63802689Y-112082006D01*
X63802696Y-112082005D01*
X63969118Y-112026858D01*
X63969123Y-112026856D01*
X64118344Y-111934815D01*
X64242315Y-111810844D01*
X64334356Y-111661623D01*
X64334358Y-111661618D01*
X64389505Y-111495196D01*
X64389506Y-111495189D01*
X64399999Y-111392485D01*
X64400000Y-111392472D01*
X64400000Y-110492500D01*
X63365376Y-110492500D01*
X63373847Y-110471240D01*
X63403758Y-110288789D01*
X63393749Y-110104174D01*
X63362742Y-109992500D01*
X64400000Y-109992500D01*
X64400000Y-109092527D01*
X64399999Y-109092514D01*
X64389506Y-108989810D01*
X64389505Y-108989803D01*
X64334358Y-108823381D01*
X64334356Y-108823376D01*
X64242315Y-108674155D01*
X64118344Y-108550184D01*
X63969123Y-108458143D01*
X63969118Y-108458141D01*
X63802696Y-108402994D01*
X63802689Y-108402993D01*
X63699985Y-108392500D01*
X62800000Y-108392500D01*
X62800000Y-109427180D01*
X62642443Y-109392500D01*
X62503916Y-109392500D01*
X62366198Y-109407478D01*
X62300000Y-109429782D01*
X62300000Y-108392500D01*
X61400014Y-108392500D01*
X61297310Y-108402993D01*
X61297303Y-108402994D01*
X61130881Y-108458141D01*
X61130876Y-108458143D01*
X60981655Y-108550184D01*
X60857684Y-108674155D01*
X60765643Y-108823376D01*
X60765641Y-108823381D01*
X60710494Y-108989803D01*
X60710493Y-108989810D01*
X60700000Y-109092514D01*
X60700000Y-109992500D01*
X61734624Y-109992500D01*
X61726153Y-110013760D01*
X61696242Y-110196211D01*
X61706251Y-110380826D01*
X61737258Y-110492500D01*
X60700000Y-110492500D01*
X60700000Y-111392485D01*
X57463470Y-111392485D01*
X57463470Y-104202501D01*
X60694773Y-104202501D01*
X60713657Y-104466527D01*
X60713658Y-104466534D01*
X60769921Y-104725173D01*
X60862426Y-104973190D01*
X60862428Y-104973194D01*
X60989280Y-105205505D01*
X60989285Y-105205513D01*
X61147906Y-105417407D01*
X61147922Y-105417425D01*
X61335074Y-105604577D01*
X61335092Y-105604593D01*
X61546986Y-105763214D01*
X61546994Y-105763219D01*
X61779305Y-105890071D01*
X61779309Y-105890073D01*
X61779311Y-105890074D01*
X62027322Y-105982577D01*
X62027325Y-105982577D01*
X62027326Y-105982578D01*
X62052550Y-105988065D01*
X62285974Y-106038843D01*
X62529660Y-106056272D01*
X62549999Y-106057727D01*
X62550000Y-106057727D01*
X62550001Y-106057727D01*
X62568885Y-106056376D01*
X62814026Y-106038843D01*
X63072678Y-105982577D01*
X63320689Y-105890074D01*
X63553011Y-105763216D01*
X63764915Y-105604587D01*
X63952087Y-105417415D01*
X64110716Y-105205511D01*
X64237574Y-104973189D01*
X64330077Y-104725178D01*
X64386343Y-104466526D01*
X64405227Y-104202500D01*
X64386343Y-103938474D01*
X64330077Y-103679822D01*
X64237574Y-103431811D01*
X64110716Y-103199489D01*
X64110714Y-103199486D01*
X63952093Y-102987592D01*
X63952077Y-102987574D01*
X63764925Y-102800422D01*
X63764907Y-102800406D01*
X63553013Y-102641785D01*
X63553005Y-102641780D01*
X63320694Y-102514928D01*
X63320690Y-102514926D01*
X63072673Y-102422421D01*
X62814034Y-102366158D01*
X62814027Y-102366157D01*
X62550001Y-102347273D01*
X62549999Y-102347273D01*
X62285972Y-102366157D01*
X62285965Y-102366158D01*
X62027326Y-102422421D01*
X61779309Y-102514926D01*
X61779305Y-102514928D01*
X61546994Y-102641780D01*
X61546986Y-102641785D01*
X61335092Y-102800406D01*
X61335074Y-102800422D01*
X61147922Y-102987574D01*
X61147906Y-102987592D01*
X60989285Y-103199486D01*
X60989280Y-103199494D01*
X60862428Y-103431805D01*
X60862426Y-103431809D01*
X60769921Y-103679826D01*
X60713658Y-103938465D01*
X60713657Y-103938472D01*
X60694773Y-104202498D01*
X60694773Y-104202501D01*
X57463470Y-104202501D01*
X57463470Y-101392485D01*
X60700000Y-101392485D01*
X60710493Y-101495189D01*
X60710494Y-101495196D01*
X60765641Y-101661618D01*
X60765643Y-101661623D01*
X60857684Y-101810844D01*
X60981655Y-101934815D01*
X61130876Y-102026856D01*
X61130881Y-102026858D01*
X61297303Y-102082005D01*
X61297310Y-102082006D01*
X61400014Y-102092499D01*
X61400027Y-102092500D01*
X62300000Y-102092500D01*
X62300000Y-101057819D01*
X62457557Y-101092500D01*
X62596084Y-101092500D01*
X62733802Y-101077522D01*
X62800000Y-101055217D01*
X62800000Y-102092500D01*
X63699973Y-102092500D01*
X63699985Y-102092499D01*
X63802689Y-102082006D01*
X63802696Y-102082005D01*
X63969118Y-102026858D01*
X63969123Y-102026856D01*
X64118344Y-101934815D01*
X64242315Y-101810844D01*
X64334356Y-101661623D01*
X64334358Y-101661618D01*
X64389505Y-101495196D01*
X64389506Y-101495189D01*
X64399999Y-101392485D01*
X64400000Y-101392472D01*
X64400000Y-100492500D01*
X63365376Y-100492500D01*
X63373847Y-100471240D01*
X63403758Y-100288789D01*
X63393749Y-100104174D01*
X63362742Y-99992500D01*
X64400000Y-99992500D01*
X64400000Y-99092527D01*
X64399999Y-99092514D01*
X64389506Y-98989810D01*
X64389505Y-98989803D01*
X64334358Y-98823381D01*
X64334356Y-98823376D01*
X64242315Y-98674155D01*
X64118344Y-98550184D01*
X63969123Y-98458143D01*
X63969118Y-98458141D01*
X63802696Y-98402994D01*
X63802689Y-98402993D01*
X63699985Y-98392500D01*
X62800000Y-98392500D01*
X62800000Y-99427180D01*
X62642443Y-99392500D01*
X62503916Y-99392500D01*
X62366198Y-99407478D01*
X62300000Y-99429782D01*
X62300000Y-98392500D01*
X61400014Y-98392500D01*
X61297310Y-98402993D01*
X61297303Y-98402994D01*
X61130881Y-98458141D01*
X61130876Y-98458143D01*
X60981655Y-98550184D01*
X60857684Y-98674155D01*
X60765643Y-98823376D01*
X60765641Y-98823381D01*
X60710494Y-98989803D01*
X60710493Y-98989810D01*
X60700000Y-99092514D01*
X60700000Y-99992500D01*
X61734624Y-99992500D01*
X61726153Y-100013760D01*
X61696242Y-100196211D01*
X61706251Y-100380826D01*
X61737258Y-100492500D01*
X60700000Y-100492500D01*
X60700000Y-101392485D01*
X57463470Y-101392485D01*
X57463470Y-95101381D01*
X57469305Y-95081507D01*
X57463753Y-95023527D01*
X57463470Y-95017613D01*
X57463470Y-95003189D01*
X57463441Y-95002908D01*
X57463467Y-94938885D01*
X57455837Y-94889246D01*
X57458226Y-94871394D01*
X57448640Y-94838798D01*
X57446841Y-94830727D01*
X57442984Y-94805636D01*
X57442552Y-94802169D01*
X57439500Y-94770300D01*
X57425694Y-94741557D01*
X57416308Y-94711754D01*
X57415906Y-94691155D01*
X57405208Y-94670443D01*
X57397106Y-94650783D01*
X57394286Y-94641828D01*
X57390132Y-94633395D01*
X57382407Y-94613586D01*
X57378261Y-94599488D01*
X57361889Y-94576057D01*
X57348087Y-94548037D01*
X57344116Y-94525194D01*
X57318358Y-94492513D01*
X57316252Y-94489678D01*
X57301754Y-94468946D01*
X57297478Y-94461867D01*
X57285399Y-94438482D01*
X57267826Y-94420431D01*
X57239046Y-94379276D01*
X57238418Y-94378511D01*
X57187395Y-94325275D01*
X57185075Y-94322716D01*
X57178263Y-94314765D01*
X57136178Y-94261369D01*
X57125071Y-94252676D01*
X57108963Y-94233874D01*
X57027064Y-94137460D01*
X56963665Y-94062824D01*
X56959734Y-94057672D01*
X56922017Y-94002471D01*
X56871129Y-93927991D01*
X56786222Y-93800306D01*
X56767345Y-93771917D01*
X56764289Y-93766804D01*
X56686699Y-93621483D01*
X56605155Y-93460737D01*
X56602909Y-93455783D01*
X56540360Y-93299831D01*
X56479137Y-93133192D01*
X56477646Y-93128573D01*
X56431949Y-92965018D01*
X56422936Y-92927332D01*
X56390954Y-92793592D01*
X56390083Y-92789276D01*
X56367370Y-92651578D01*
X56362506Y-92622089D01*
X56362114Y-92619322D01*
X56341688Y-92446083D01*
X56341357Y-92442249D01*
X56332109Y-92272690D01*
X56332018Y-92269365D01*
X56332018Y-92250027D01*
X57572467Y-92250027D01*
X57602093Y-92519277D01*
X57602095Y-92519288D01*
X57670606Y-92781346D01*
X57670608Y-92781352D01*
X57776550Y-93030654D01*
X57848678Y-93148839D01*
X57917659Y-93261869D01*
X57917666Y-93261879D01*
X58090933Y-93470083D01*
X58090939Y-93470088D01*
X58195920Y-93564151D01*
X58292678Y-93650846D01*
X58518590Y-93800308D01*
X58763856Y-93915284D01*
X58763863Y-93915286D01*
X58763865Y-93915287D01*
X59023237Y-93993321D01*
X59023244Y-93993322D01*
X59023249Y-93993324D01*
X59291241Y-94032764D01*
X59291246Y-94032764D01*
X59494316Y-94032764D01*
X59545813Y-94028994D01*
X59696836Y-94017941D01*
X59809438Y-93992857D01*
X59961226Y-93959046D01*
X59961228Y-93959045D01*
X59961233Y-93959044D01*
X60214238Y-93862278D01*
X60450457Y-93729705D01*
X60664857Y-93564152D01*
X60852866Y-93369145D01*
X61010479Y-93148843D01*
X61104990Y-92965018D01*
X61134329Y-92907954D01*
X61134331Y-92907948D01*
X61134336Y-92907939D01*
X61221798Y-92651569D01*
X61270999Y-92385197D01*
X61280892Y-92114499D01*
X61251266Y-91845246D01*
X61182752Y-91583176D01*
X61076810Y-91333874D01*
X60935698Y-91102654D01*
X60904099Y-91064684D01*
X60762426Y-90894444D01*
X60762420Y-90894439D01*
X60560682Y-90713682D01*
X60334772Y-90564221D01*
X60334770Y-90564220D01*
X60089504Y-90449244D01*
X60089499Y-90449242D01*
X60089494Y-90449240D01*
X59830122Y-90371206D01*
X59830108Y-90371203D01*
X59714471Y-90354185D01*
X59562119Y-90331764D01*
X59359049Y-90331764D01*
X59359044Y-90331764D01*
X59156524Y-90346587D01*
X59156511Y-90346589D01*
X58892133Y-90405481D01*
X58892126Y-90405484D01*
X58639119Y-90502251D01*
X58402906Y-90634821D01*
X58188502Y-90800376D01*
X58000502Y-90995373D01*
X58000496Y-90995380D01*
X57842882Y-91215683D01*
X57842879Y-91215688D01*
X57719030Y-91456573D01*
X57719023Y-91456591D01*
X57631564Y-91712949D01*
X57631562Y-91712959D01*
X57593611Y-91918427D01*
X57582361Y-91979332D01*
X57582360Y-91979339D01*
X57572467Y-92250027D01*
X56332018Y-92250027D01*
X56332018Y-92095184D01*
X56332110Y-92091817D01*
X56341358Y-91922259D01*
X56341689Y-91918427D01*
X56362113Y-91745204D01*
X56362501Y-91742460D01*
X56390081Y-91575252D01*
X56390955Y-91570924D01*
X56431945Y-91399516D01*
X56477642Y-91235958D01*
X56479151Y-91231289D01*
X56526411Y-91102658D01*
X56540347Y-91064721D01*
X56602915Y-90908719D01*
X56605137Y-90903816D01*
X56686675Y-90743080D01*
X56764296Y-90597701D01*
X56767330Y-90592624D01*
X56850077Y-90468185D01*
X56871157Y-90436487D01*
X56932579Y-90346589D01*
X56959725Y-90306858D01*
X56963641Y-90301725D01*
X57109580Y-90129924D01*
X57123839Y-90113279D01*
X57132753Y-90107478D01*
X57178306Y-90049702D01*
X57184529Y-90042439D01*
X57186760Y-90039973D01*
X57239078Y-89985274D01*
X57267851Y-89944126D01*
X57281910Y-89932873D01*
X57297498Y-89902692D01*
X57301776Y-89895610D01*
X57316250Y-89874911D01*
X57318369Y-89872060D01*
X57338219Y-89846883D01*
X57348125Y-89816487D01*
X57350296Y-89812079D01*
X57361914Y-89788491D01*
X57375851Y-89773326D01*
X57382428Y-89750965D01*
X57390147Y-89731170D01*
X57394313Y-89722714D01*
X57397142Y-89713730D01*
X57405242Y-89694076D01*
X57411988Y-89681014D01*
X57416338Y-89652777D01*
X57425719Y-89622990D01*
X57438629Y-89603737D01*
X57442588Y-89562337D01*
X57443020Y-89558860D01*
X57446875Y-89533781D01*
X57448674Y-89525712D01*
X57456100Y-89500461D01*
X57455869Y-89475278D01*
X57463499Y-89425645D01*
X57463470Y-89348669D01*
X57463470Y-89346901D01*
X57463750Y-89340995D01*
X57468535Y-89290945D01*
X57463470Y-89261656D01*
X57463470Y-88811113D01*
X57463661Y-88806247D01*
X57465464Y-88783344D01*
X57466669Y-88771100D01*
X57479746Y-88638289D01*
X57481155Y-88629924D01*
X57495676Y-88569445D01*
X57496603Y-88566033D01*
X57527565Y-88463969D01*
X57529606Y-88458263D01*
X57555208Y-88396456D01*
X57557783Y-88391012D01*
X57608081Y-88296914D01*
X57609837Y-88293849D01*
X57642338Y-88240813D01*
X57647256Y-88233902D01*
X57739394Y-88121631D01*
X57754744Y-88103658D01*
X57758012Y-88100123D01*
X67168721Y-78689414D01*
X67172263Y-78686141D01*
X67189771Y-78671188D01*
X67302458Y-78578710D01*
X67309366Y-78573794D01*
X67362223Y-78541403D01*
X67365316Y-78539631D01*
X67459583Y-78489244D01*
X67465057Y-78486655D01*
X67526693Y-78461125D01*
X67532380Y-78459090D01*
X67634676Y-78428059D01*
X67638134Y-78427120D01*
X67698378Y-78412656D01*
X67706758Y-78411245D01*
X67851806Y-78396957D01*
X67874788Y-78395148D01*
X67879643Y-78394958D01*
X88370500Y-78394958D01*
X88437539Y-78414643D01*
G37*
%TD.AperFunction*%
%TD*%
M02*
