0
SECTION
2
HEADER
9
$INSUNITS
70
4
9
$ACADVER
1
AC1014
9
$HANDSEED
5
FFFF
0
ENDSEC
0
SECTION
2
TABLES
0
TABLE
2
VPORT
5
8
100
AcDbSymbolTable
0
ENDTAB
0
TABLE
2
LTYPE
5
5
100
AcDbSymbolTable
0
LTYPE
5
14
100
AcDbSymbolTableRecord
100
AcDbLinetypeTableRecord
2
BYBLOCK
70
0
0
LTYPE
5
15
100
AcDbSymbolTableRecord
100
AcDbLinetypeTableRecord
2
BYLAYER
70
0
0
ENDTAB
0
TABLE
2
LAYER
5
2
100
AcDbSymbolTable
70
2
0
LAYER
5
50
100
AcDbSymbolTableRecord
100
AcDbLayerTableRecord
2
0
70
0
6
CONTINUOUS
0
ENDTAB
0
TABLE
2
STYLE
5
3
100
AcDbSymbolTable
70
1
0
STYLE
5
11
100
AcDbSymbolTableRecord
100
AcDbTextStyleTableRecord
2
STANDARD
70
0
0
ENDTAB
0
TABLE
2
VIEW
5
6
100
AcDbSymbolTable
70
0
0
ENDTAB
0
TABLE
2
UCS
5
7
100
AcDbSymbolTable
70
0
0
ENDTAB
0
TABLE
2
APPID
5
9
100
AcDbSymbolTable
70
2
0
APPID
5
12
100
AcDbSymbolTableRecord
100
AcDbRegAppTableRecord
2
ACAD
70
0
0
ENDTAB
0
TABLE
2
DIMSTYLE
5
A
100
AcDbSymbolTable
70
1
0
ENDTAB
0
TABLE
2
BLOCK_RECORD
5
1
100
AcDbSymbolTable
70
1
0
BLOCK_RECORD
5
1F
100
AcDbSymbolTableRecord
100
AcDbBlockTableRecord
2
*MODEL_SPACE
0
BLOCK_RECORD
5
1B
100
AcDbSymbolTableRecord
100
AcDbBlockTableRecord
2
*PAPER_SPACE
0
ENDTAB
0
ENDSEC
0
SECTION
2
BLOCKS
0
BLOCK
5
20
100
AcDbEntity
100
AcDbBlockBegin
2
*MODEL_SPACE
0
ENDBLK
5
21
100
AcDbEntity
100
AcDbBlockEnd
0
BLOCK
5
1C
100
AcDbEntity
100
AcDbBlockBegin
2
*PAPER_SPACE
0
ENDBLK
5
1D
100
AcDbEntity
100
AcDbBlockEnd
0
ENDSEC
0
SECTION
2
ENTITIES
0
LWPOLYLINE
5
100
100
AcDbEntity
8
0
100
AcDbPolyline
90
42
70
1
43
0.0
10
87.219550579449688
20
6.9999997642238352
42
0.047554380207338896
10
84.326220325738944
20
23.352485211962648
10
81.060780322216232
20
22.30515451757686
42
-1.0002041441362199
10
78.924286177960767
20
28.971142121069104
10
82.190153478548368
20
30.01713962343284
42
-0.99999999999999989
10
91.583313876096781
20
33.447669866110878
42
-0.17689382093244152
10
91.583313876096781
20
-33.447669866110949
42
-0.99999999999999989
10
82.190153478548424
20
-30.0171396234329
10
78.924286177960511
20
-28.971142121069036
42
-1.0002041441363561
10
81.060780322217397
20
-22.30515451757725
10
84.326220325738944
20
-23.352485211962669
42
0.047554382687504497
10
87.219550648332941
20
-6.9999989008029031
10
70.151609148975425
20
-6.9999990599443604
42
-0.35708906834227294
10
6.9986809798770819
20
-70.151696678872028
10
6.9983025849857334
20
-87.18656404549435
42
0.047529233840443753
10
23.341913775538199
20
-84.293252833965781
10
22.305154517576842
20
-81.060780322216232
42
-1.0002041441362199
10
28.971142121069086
20
-78.924286177960781
10
30.006485165079248
20
-82.156904777402517
42
-0.99999953019979382
10
33.437157871132371
20
-91.550013143851245
42
-0.17676581984988674
10
-33.412676803386567
20
-91.482876026540907
42
-0.99999944921122519
10
-29.982012193273583
20
-82.089764703188791
10
-28.968594301236127
20
-78.925219027641063
42
-1.0002041443584477
10
-22.302538830098179
20
-81.061501409269852
10
-23.324450034941215
20
-84.248023465937507
42
0.047512290608986596
10
-6.9963326872064213
20
-87.194541782463489
10
-6.9971486538319976
20
-70.151847277316818
42
-0.35709526672347458
10
-70.151586568676507
20
-6.9999986034773745
10
-87.219550690914105
20
-6.9999983670594261
42
0.04755438422070029
10
-84.326220325738944
20
-23.352485211962637
10
-81.060780322216232
20
-22.305154517576852
42
-1.0002041441362199
10
-78.924286177960767
20
-28.971142121069096
10
-82.190153478548368
20
-30.017139623432843
42
-0.99999999999999989
10
-91.583313876096781
20
-33.447669866110886
42
-0.17689382093244152
10
-91.583313876096781
20
33.447669866110942
42
-0.99999999999999989
10
-82.190153478548424
20
30.01713962343289
10
-78.924286177960511
20
28.971142121069047
42
-1.0002041441363561
10
-81.060780322217397
20
22.305154517577257
10
-84.326220325738944
20
23.352485211962673
42
0.047554378910650716
10
-87.219550543439766
20
7.0000002156067511
10
-70.151626303605696
20
7.000000184390335
42
-0.90518220376604985
10
70.151616567589244
20
6.999999798359803
0
CIRCLE
5
101
100
AcDbEntity
8
0
100
AcDbCircle
10
-79.991852908384615
20
25.637930265202161
30
0
40
1.6000000000000003
210
0
220
0
230
1
0
CIRCLE
5
102
100
AcDbEntity
8
0
100
AcDbCircle
10
79.991852908384615
20
25.637930265202137
30
0
40
1.6000000000000014
210
0
220
0
230
1
0
CIRCLE
5
103
100
AcDbEntity
8
0
100
AcDbCircle
10
79.991852908384615
20
-25.637930265202154
30
0
40
1.5999999999999961
210
0
220
0
230
1
0
CIRCLE
5
104
100
AcDbEntity
8
0
100
AcDbCircle
10
25.637930265202119
20
-79.991852908384629
30
0
40
1.5999999999999925
210
0
220
0
230
1
0
CIRCLE
5
105
100
AcDbEntity
8
0
100
AcDbCircle
10
-25.637930265202172
20
-79.991852908384601
30
0
40
1.6000000000000014
210
0
220
0
230
1
0
CIRCLE
5
106
100
AcDbEntity
8
0
100
AcDbCircle
10
-79.991852908384615
20
-25.637930265202126
30
0
40
1.5999999999999979
210
0
220
0
230
1
0
LWPOLYLINE
5
107
100
AcDbEntity
8
0
100
AcDbPolyline
90
10
70
1
43
0.0
10
-48.57417889252001
20
22.173839201127755
42
0.99999999999999989
10
-45.572302719912152
20
27.826160798872237
10
-48.318366361719086
20
29.284560302908709
42
-0.56325248029604613
10
48.318366361719086
20
29.284560302908709
10
45.572302719912152
20
27.826160798872237
42
0.99999999999999989
10
48.57417889252001
20
22.173839201127752
10
51.320242534326972
20
23.632238705164209
42
-0.20991900532367
10
52.124946043137584
20
-21.800000000000011
10
-52.12494604313757
20
-21.800000000000026
42
-0.20991900532367
10
-51.320242534326972
20
23.632238705164191
0
CIRCLE
5
108
100
AcDbEntity
8
0
100
AcDbCircle
10
-47.073240806216077
20
25.000000000000004
30
0
40
1.5999999999999981
210
0
220
0
230
1
0
CIRCLE
5
109
100
AcDbEntity
8
0
100
AcDbCircle
10
-47.073240806216077
20
-24.999999999999996
30
0
40
1.5999999999999981
210
0
220
0
230
1
0
CIRCLE
5
110
100
AcDbEntity
8
0
100
AcDbCircle
10
47.073240806216077
20
24.999999999999996
30
0
40
1.5999999999999981
210
0
220
0
230
1
0
CIRCLE
5
111
100
AcDbEntity
8
0
100
AcDbCircle
10
47.073240806216077
20
-25.000000000000004
30
0
40
1.5999999999999981
210
0
220
0
230
1
0
ENDSEC
0
SECTION
2
OBJECTS
0
DICTIONARY
5
C
100
AcDbDictionary
3
ACAD_GROUP
350
D
3
ACAD_MLINESTYLE
350
17
0
DICTIONARY
5
D
100
AcDbDictionary
0
DICTIONARY
5
1A
330
C
100
AcDbDictionary
0
DICTIONARY
5
17
100
AcDbDictionary
0
ENDSEC
0
EOF
