0
SECTION
2
HEADER
9
$INSUNITS
70
4
9
$ACADVER
1
AC1014
9
$HANDSEED
5
FFFF
0
ENDSEC
0
SECTION
2
TABLES
0
TABLE
2
VPORT
5
8
100
AcDbSymbolTable
0
ENDTAB
0
TABLE
2
LTYPE
5
5
100
AcDbSymbolTable
0
LTYPE
5
14
100
AcDbSymbolTableRecord
100
AcDbLinetypeTableRecord
2
BYBLOCK
70
0
0
LTYPE
5
15
100
AcDbSymbolTableRecord
100
AcDbLinetypeTableRecord
2
BYLAYER
70
0
0
ENDTAB
0
TABLE
2
LAYER
5
2
100
AcDbSymbolTable
70
2
0
LAYER
5
50
100
AcDbSymbolTableRecord
100
AcDbLayerTableRecord
2
0
70
0
6
CONTINUOUS
0
ENDTAB
0
TABLE
2
STYLE
5
3
100
AcDbSymbolTable
70
1
0
STYLE
5
11
100
AcDbSymbolTableRecord
100
AcDbTextStyleTableRecord
2
STANDARD
70
0
0
ENDTAB
0
TABLE
2
VIEW
5
6
100
AcDbSymbolTable
70
0
0
ENDTAB
0
TABLE
2
UCS
5
7
100
AcDbSymbolTable
70
0
0
ENDTAB
0
TABLE
2
APPID
5
9
100
AcDbSymbolTable
70
2
0
APPID
5
12
100
AcDbSymbolTableRecord
100
AcDbRegAppTableRecord
2
ACAD
70
0
0
ENDTAB
0
TABLE
2
DIMSTYLE
5
A
100
AcDbSymbolTable
70
1
0
ENDTAB
0
TABLE
2
BLOCK_RECORD
5
1
100
AcDbSymbolTable
70
1
0
BLOCK_RECORD
5
1F
100
AcDbSymbolTableRecord
100
AcDbBlockTableRecord
2
*MODEL_SPACE
0
BLOCK_RECORD
5
1B
100
AcDbSymbolTableRecord
100
AcDbBlockTableRecord
2
*PAPER_SPACE
0
ENDTAB
0
ENDSEC
0
SECTION
2
BLOCKS
0
BLOCK
5
20
100
AcDbEntity
100
AcDbBlockBegin
2
*MODEL_SPACE
0
ENDBLK
5
21
100
AcDbEntity
100
AcDbBlockEnd
0
BLOCK
5
1C
100
AcDbEntity
100
AcDbBlockBegin
2
*PAPER_SPACE
0
ENDBLK
5
1D
100
AcDbEntity
100
AcDbBlockEnd
0
ENDSEC
0
SECTION
2
ENTITIES
0
LWPOLYLINE
5
100
100
AcDbEntity
8
0
100
AcDbPolyline
90
66
70
1
43
0.0
10
87.071566400566297
20
8.6482555774036651
42
0.038267614315108008
10
84.736488578600955
20
21.816908657024463
42
0.43141554175320057
10
82.825751311323259
20
22.871236971885644
10
81.060780322216232
20
22.30515451757686
42
-1.0002041441362199
10
78.924286177960767
20
28.971142121069104
10
80.882663822322641
20
29.598374625071617
42
0.35643730522102757
10
81.916273328281846
20
31.189704165617936
42
-0.8860343004637532
10
91.583313876096781
20
33.447669866110878
42
-0.17689382093244152
10
91.583313876096767
20
-33.447669866110935
42
-0.88603430046375298
10
81.916273328281903
20
-31.189704165618004
42
0.35643730522103578
10
80.882663822322712
20
-29.598374625071674
10
78.924286177960511
20
-28.971142121069036
42
-1.0002041441363561
10
81.060780322217397
20
-22.30515451757725
10
82.825751311396644
20
-22.871236971909198
42
0.43141554175990748
10
84.736488578682824
20
-21.816908657015112
42
0.038267616805740527
10
87.071566486389443
20
-8.6482547111160848
42
0.44351603297982689
10
85.578911046913589
20
-6.999998916100231
10
71.496489993985037
20
-6.9999990474047644
42
0.37996452283802723
10
70.006979655952151
20
-8.3229145725667451
42
-0.34648257414029265
10
8.3215957309081894
20
-70.007093388946743
42
0.37996375980575675
10
6.998651106168543
20
-71.496573880857866
10
6.9983390345277279
20
-85.545651000358589
42
0.44356616691866979
10
8.6468118094001785
20
-87.038318178127099
42
0.038241888045062622
10
21.80641846931476
20
-84.703568842092864
42
0.43140309955395484
10
22.860684606167247
20
-82.792846592209656
10
22.305154517576842
20
-81.060780322216232
42
-1.0002041441362199
10
28.971142121069086
20
-78.924286177960781
10
29.587716143016245
20
-80.849395602794885
42
0.35644089519732036
10
31.179063084938914
20
-81.883005493658331
42
-0.8860323186545791
10
33.437157871132371
20
-91.550013143851245
42
-0.17676581984988674
10
-33.412676803655835
20
-91.48287602644254
42
-0.88602895240988444
10
-31.154627059118766
20
-81.815862519057859
42
0.35644846294873778
10
-29.563276433409385
20
-80.782201013533253
10
-28.968594301236127
20
-78.925219027641063
42
-1.0002041443584477
10
-22.302538830098179
20
-81.061501409269852
10
-22.844878216229212
20
-82.752623307058997
42
0.43040153976795659
10
-21.795458202964188
20
-84.662040429666746
42
0.038223921043068418
10
-8.6499871118631155
20
-87.040185609833443
42
0.4445972388711778
10
-6.9964115201714705
20
-85.547996325544617
10
-6.9970842643289277
20
-71.496719230581917
42
0.37996265986344802
10
-8.3200613891449713
20
-70.007273372900372
42
-0.34648874795165835
10
-70.006957351054083
20
-8.3229144498685912
42
0.37996458681992162
10
-71.496467722700487
20
-6.9999985848486705
10
-85.578911092001675
20
-6.9999983897848441
42
0.44351603249132165
10
-87.071566539182157
20
-8.6482541756053521
42
0.038267618345276595
10
-84.736488578448132
20
-21.816908656922141
42
0.43141554176324193
10
-82.825751311157745
20
-22.871236971832548
10
-81.060780322216232
20
-22.305154517576852
42
-1.0002041441362199
10
-78.924286177960767
20
-28.971142121069096
10
-80.882663822322655
20
-29.598374625071621
42
0.35643730522104378
10
-81.916273328281846
20
-31.18970416561794
42
-0.88603430046375342
10
-91.583313876096781
20
-33.447669866110886
42
-0.17689382093244152
10
-91.583313876096781
20
33.447669866110928
42
-0.8860343004637532
10
-81.916273328281889
20
31.189704165617993
42
0.35643730522103995
10
-80.882663822322712
20
29.598374625071671
10
-78.924286177960511
20
28.971142121069047
42
-1.0002041441363561
10
-81.060780322217397
20
22.305154517577257
10
-82.825751311430551
20
22.871236971920084
42
0.43141554175317476
10
-84.736488578708219
20
21.816908657059027
42
0.038267613012990226
10
-87.071566355699247
20
8.6482560302678664
42
0.4435160341820864
10
-85.578910935202103
20
7.0000002126061229
10
-71.496508193227669
20
7.0000001868502837
42
0.37996474165201605
10
-70.006997705000515
20
8.3229168346286304
42
-0.88815531298076555
10
70.006987976001781
20
8.3229164515980116
42
0.37996474212188802
10
71.496498459454386
20
6.9999997956700311
10
85.578910973554642
20
6.9999997675051242
42
0.4435160337716284
0
CIRCLE
5
101
100
AcDbEntity
8
0
100
AcDbCircle
10
-79.991852908384615
20
25.637930265202161
30
0
40
1.6000000000000003
210
0
220
0
230
1
0
CIRCLE
5
102
100
AcDbEntity
8
0
100
AcDbCircle
10
79.991852908384615
20
25.637930265202137
30
0
40
1.6000000000000014
210
0
220
0
230
1
0
CIRCLE
5
103
100
AcDbEntity
8
0
100
AcDbCircle
10
79.991852908384615
20
-25.637930265202154
30
0
40
1.5999999999999961
210
0
220
0
230
1
0
CIRCLE
5
104
100
AcDbEntity
8
0
100
AcDbCircle
10
25.637930265202119
20
-79.991852908384629
30
0
40
1.5999999999999925
210
0
220
0
230
1
0
CIRCLE
5
105
100
AcDbEntity
8
0
100
AcDbCircle
10
-25.637930265202172
20
-79.991852908384601
30
0
40
1.6000000000000014
210
0
220
0
230
1
0
CIRCLE
5
106
100
AcDbEntity
8
0
100
AcDbCircle
10
-79.991852908384615
20
-25.637930265202126
30
0
40
1.5999999999999979
210
0
220
0
230
1
0
LWPOLYLINE
5
107
100
AcDbEntity
8
0
100
AcDbPolyline
90
16
70
1
43
0.0
10
-48.57417889252001
20
22.173839201127755
42
0.99999999999999989
10
-45.572302719912152
20
27.826160798872237
10
-46.89601802116244
20
28.529169174001762
42
-0.43950108404667987
10
-47.452247473931337
20
30.668130195249645
42
-0.54437610819048265
10
47.452247473931315
20
30.668130195249653
42
-0.43950108404667748
10
46.896018021162448
20
28.529169174001751
10
45.572302719912152
20
27.826160798872237
42
0.99999999999999989
10
48.57417889252001
20
22.173839201127752
10
49.897894193770313
20
22.876847576257244
42
-0.43950108404667276
10
51.981498710499579
20
22.139868830016422
42
-0.19768613963607184
10
52.51072129016346
20
-20.85363636363639
42
-0.3073557066330509
10
51.116631344406926
20
-21.800000000000011
10
-51.116631344406905
20
-21.800000000000026
42
-0.30735570663305906
10
-52.510721290163467
20
-20.853636363636351
42
-0.19768613963607151
10
-51.981498710499601
20
22.139868830016386
42
-0.43950108404667571
10
-49.89789419377032
20
22.876847576257248
0
CIRCLE
5
108
100
AcDbEntity
8
0
100
AcDbCircle
10
-47.073240806216077
20
25.000000000000004
30
0
40
1.5999999999999981
210
0
220
0
230
1
0
CIRCLE
5
109
100
AcDbEntity
8
0
100
AcDbCircle
10
-47.073240806216077
20
-24.999999999999996
30
0
40
1.5999999999999981
210
0
220
0
230
1
0
CIRCLE
5
110
100
AcDbEntity
8
0
100
AcDbCircle
10
47.073240806216077
20
24.999999999999996
30
0
40
1.5999999999999981
210
0
220
0
230
1
0
CIRCLE
5
111
100
AcDbEntity
8
0
100
AcDbCircle
10
47.073240806216077
20
-25.000000000000004
30
0
40
1.5999999999999981
210
0
220
0
230
1
0
ENDSEC
0
SECTION
2
OBJECTS
0
DICTIONARY
5
C
100
AcDbDictionary
3
ACAD_GROUP
350
D
3
ACAD_MLINESTYLE
350
17
0
DICTIONARY
5
D
100
AcDbDictionary
0
DICTIONARY
5
1A
330
C
100
AcDbDictionary
0
DICTIONARY
5
17
100
AcDbDictionary
0
ENDSEC
0
EOF
