0
SECTION
2
HEADER
9
$INSUNITS
70
4
9
$ACADVER
1
AC1014
9
$HANDSEED
5
FFFF
0
ENDSEC
0
SECTION
2
TABLES
0
TABLE
2
VPORT
5
8
100
AcDbSymbolTable
0
ENDTAB
0
TABLE
2
LTYPE
5
5
100
AcDbSymbolTable
0
LTYPE
5
14
100
AcDbSymbolTableRecord
100
AcDbLinetypeTableRecord
2
BYBLOCK
70
0
0
LTYPE
5
15
100
AcDbSymbolTableRecord
100
AcDbLinetypeTableRecord
2
BYLAYER
70
0
0
ENDTAB
0
TABLE
2
LAYER
5
2
100
AcDbSymbolTable
70
2
0
LAYER
5
50
100
AcDbSymbolTableRecord
100
AcDbLayerTableRecord
2
0
70
0
6
CONTINUOUS
0
ENDTAB
0
TABLE
2
STYLE
5
3
100
AcDbSymbolTable
70
1
0
STYLE
5
11
100
AcDbSymbolTableRecord
100
AcDbTextStyleTableRecord
2
STANDARD
70
0
0
ENDTAB
0
TABLE
2
VIEW
5
6
100
AcDbSymbolTable
70
0
0
ENDTAB
0
TABLE
2
UCS
5
7
100
AcDbSymbolTable
70
0
0
ENDTAB
0
TABLE
2
APPID
5
9
100
AcDbSymbolTable
70
2
0
APPID
5
12
100
AcDbSymbolTableRecord
100
AcDbRegAppTableRecord
2
ACAD
70
0
0
ENDTAB
0
TABLE
2
DIMSTYLE
5
A
100
AcDbSymbolTable
70
1
0
ENDTAB
0
TABLE
2
BLOCK_RECORD
5
1
100
AcDbSymbolTable
70
1
0
BLOCK_RECORD
5
1F
100
AcDbSymbolTableRecord
100
AcDbBlockTableRecord
2
*MODEL_SPACE
0
BLOCK_RECORD
5
1B
100
AcDbSymbolTableRecord
100
AcDbBlockTableRecord
2
*PAPER_SPACE
0
ENDTAB
0
ENDSEC
0
SECTION
2
BLOCKS
0
BLOCK
5
20
100
AcDbEntity
100
AcDbBlockBegin
2
*MODEL_SPACE
0
ENDBLK
5
21
100
AcDbEntity
100
AcDbBlockEnd
0
BLOCK
5
1C
100
AcDbEntity
100
AcDbBlockBegin
2
*PAPER_SPACE
0
ENDBLK
5
1D
100
AcDbEntity
100
AcDbBlockEnd
0
ENDSEC
0
SECTION
2
ENTITIES
0
LWPOLYLINE
5
100
100
AcDbEntity
8
0
100
AcDbPolyline
90
66
70
1
43
0.0
10
87.071566400566297
20
8.6482555774036651
42
0.038267614315108008
10
84.736488578600955
20
21.816908657024463
42
0.43141554175320057
10
82.825751311323259
20
22.871236971885644
10
81.060780322216232
20
22.30515451757686
42
-1.0002041441362199
10
78.924286177960767
20
28.971142121069104
10
80.882663822322641
20
29.598374625071617
42
0.35643730522102757
10
81.916273328281846
20
31.189704165617936
42
-0.8860343004637532
10
91.583313876096781
20
33.447669866110878
42
-0.17689382093244152
10
91.583313876096767
20
-33.447669866110935
42
-0.88603430046375298
10
81.916273328281903
20
-31.189704165618004
42
0.35643730522103578
10
80.882663822322712
20
-29.598374625071674
10
78.924286177960511
20
-28.971142121069036
42
-1.0002041441363561
10
81.060780322217397
20
-22.30515451757725
10
82.825751311396644
20
-22.871236971909198
42
0.43141554175990748
10
84.736488578682824
20
-21.816908657015112
42
0.038267616805740527
10
87.071566486389443
20
-8.6482547111160848
42
0.44351603297982689
10
85.578911046913589
20
-6.999998916100231
10
71.496489993985037
20
-6.9999990474047644
42
0.37996452283802723
10
70.006979655952193
20
-8.3229145725667522
42
-0.34647729681926159
10
8.3229151374784891
20
-70.006936541252983
42
0.37996471889049616
10
6.9999985848489752
20
-71.496446994647414
10
6.9999983897848654
20
-85.57891109200169
42
0.44351603249132165
10
8.6482541756053735
20
-87.071566539182172
42
0.038267618345276595
10
21.816908656922163
20
-84.736488578448146
42
0.43141554176324193
10
22.871236971832573
20
-82.825751311157759
10
22.305154517576874
20
-81.060780322216246
42
-1.0002041441362199
10
28.971142121069118
20
-78.924286177960781
10
29.598374625071649
20
-80.882663822322684
42
0.35643730522104378
10
31.189704165617968
20
-81.916273328281875
42
-0.88603430046375342
10
33.447669866110914
20
-91.583313876096796
42
-0.17689382093244152
10
-33.447669866110921
20
-91.583313876096796
42
-0.8860343004637532
10
-31.189704165617982
20
-81.916273328281903
42
0.35643730522103995
10
-29.598374625071656
20
-80.882663822322741
10
-28.971142121069033
20
-78.924286177960539
42
-1.0002041441363561
10
-22.305154517577247
20
-81.060780322217425
10
-22.871236971920069
20
-82.825751311430565
42
0.43141554175317476
10
-21.81690865705901
20
-84.736488578708247
42
0.038267613012990226
10
-8.6482560302678486
20
-87.071566355699275
42
0.4435160341820864
10
-7.0000002126061052
20
-85.578910935202117
10
-7.0000001868501531
20
-71.496444444456671
42
0.37996468985372744
10
-8.322916564946949
20
-70.006933988291181
42
-0.3464773278985907
10
-70.006957351054083
20
-8.3229144498685912
42
0.37996458681992162
10
-71.496467722700487
20
-6.9999985848486705
10
-85.578911092001675
20
-6.9999983897848441
42
0.44351603249132165
10
-87.071566539182157
20
-8.6482541756053521
42
0.038267618345276595
10
-84.736488578448132
20
-21.816908656922141
42
0.43141554176324193
10
-82.825751311157745
20
-22.871236971832548
10
-81.060780322216232
20
-22.305154517576852
42
-1.0002041441362199
10
-78.924286177960767
20
-28.971142121069096
10
-80.882663822322655
20
-29.598374625071621
42
0.35643730522104378
10
-81.916273328281846
20
-31.18970416561794
42
-0.88603430046375342
10
-91.583313876096781
20
-33.447669866110886
42
-0.17689382093244152
10
-91.583313876096781
20
33.447669866110928
42
-0.8860343004637532
10
-81.916273328281889
20
31.189704165617993
42
0.35643730522103995
10
-80.882663822322712
20
29.598374625071671
10
-78.924286177960511
20
28.971142121069047
42
-1.0002041441363561
10
-81.060780322217397
20
22.305154517577257
10
-82.825751311430551
20
22.871236971920084
42
0.43141554175317476
10
-84.736488578708219
20
21.816908657059027
42
0.038267613012990226
10
-87.071566355699247
20
8.6482560302678664
42
0.4435160341820864
10
-85.578910935202103
20
7.0000002126061229
10
-71.496508193227669
20
7.0000001868502837
42
0.37996474165201605
10
-70.006997705000515
20
8.3229168346286304
42
-0.88815531298076555
10
70.006987976001781
20
8.3229164515980116
42
0.37996474212188802
10
71.496498459454386
20
6.9999997956700311
10
85.578910973554642
20
6.9999997675051242
42
0.4435160337716284
0
CIRCLE
5
101
100
AcDbEntity
8
0
100
AcDbCircle
10
-79.991852908384615
20
25.637930265202161
30
0
40
1.6000000000000003
210
0
220
0
230
1
0
CIRCLE
5
102
100
AcDbEntity
8
0
100
AcDbCircle
10
79.991852908384615
20
25.637930265202137
30
0
40
1.6000000000000014
210
0
220
0
230
1
0
CIRCLE
5
103
100
AcDbEntity
8
0
100
AcDbCircle
10
79.991852908384615
20
-25.637930265202154
30
0
40
1.5999999999999961
210
0
220
0
230
1
0
CIRCLE
5
104
100
AcDbEntity
8
0
100
AcDbCircle
10
-79.991852908384615
20
-25.637930265202126
30
0
40
1.5999999999999979
210
0
220
0
230
1
0
LWPOLYLINE
5
105
100
AcDbEntity
8
0
100
AcDbPolyline
90
24
70
1
43
0.0
10
-48.57417889252001
20
22.173839201127755
42
0.99999999999999989
10
-45.572302719912152
20
27.826160798872237
10
-45.566254320713952
20
27.822948570919266
42
-0.44021865251930087
10
-46.120522011247544
20
29.964936999934281
42
-0.54281829234197176
10
46.120522011247544
20
29.964936999934288
42
-0.44021865251929976
10
45.566254320713952
20
27.822948570919262
10
45.572302719912152
20
27.826160798872237
42
0.99999999999999989
10
48.57417889252001
20
22.173839201127752
10
48.568130493321782
20
22.170626973174762
42
-0.4402186525193057
10
50.653144620004142
20
21.430327578106308
42
-0.063804345495353951
10
54.419870401568737
20
7.9672897196261703
42
-0.45746191715351819
10
52.935692117889587
20
6.25
10
46.153250128554468
20
6.2500000000000009
42
0.41421356237309115
10
44.653250128554461
20
4.75
10
44.653250128554461
20
-4.7499999999999947
42
0.41421356237309176
10
46.153250128554468
20
-6.2499999999999991
10
52.935692117889602
20
-6.2499999999999929
42
-0.45746191715351697
10
54.419870401568758
20
-7.9672897196261472
42
-0.061030319234479033
10
50.886915879268308
20
-20.869158878504695
42
-0.30430489421892259
10
49.4990909007428
20
-21.800000000000011
10
-49.4990909007428
20
-21.800000000000018
42
-0.30430489421892487
10
-50.886915879268315
20
-20.869158878504695
42
-0.1999612851453143
10
-50.653144620004156
20
21.430327578106315
42
-0.44021865251930392
10
-48.56813049332181
20
22.170626973174777
0
CIRCLE
5
106
100
AcDbEntity
8
0
100
AcDbCircle
10
-47.073240806216077
20
25.000000000000004
30
0
40
1.5999999999999981
210
0
220
0
230
1
0
CIRCLE
5
107
100
AcDbEntity
8
0
100
AcDbCircle
10
-47.073240806216077
20
-24.999999999999996
30
0
40
1.5999999999999981
210
0
220
0
230
1
0
CIRCLE
5
108
100
AcDbEntity
8
0
100
AcDbCircle
10
47.073240806216077
20
24.999999999999996
30
0
40
1.5999999999999981
210
0
220
0
230
1
0
CIRCLE
5
109
100
AcDbEntity
8
0
100
AcDbCircle
10
47.073240806216077
20
-25.000000000000004
30
0
40
1.5999999999999981
210
0
220
0
230
1
0
CIRCLE
5
110
100
AcDbEntity
8
0
100
AcDbCircle
10
25.637930265202151
20
-79.991852908384629
30
0
40
1.5999999999999981
210
0
220
0
230
1
0
CIRCLE
5
111
100
AcDbEntity
8
0
100
AcDbCircle
10
-25.637930265202151
20
-79.991852908384644
30
0
40
1.6000000000000005
210
0
220
0
230
1
0
ENDSEC
0
SECTION
2
OBJECTS
0
DICTIONARY
5
C
100
AcDbDictionary
3
ACAD_GROUP
350
D
3
ACAD_MLINESTYLE
350
17
0
DICTIONARY
5
D
100
AcDbDictionary
0
DICTIONARY
5
1A
330
C
100
AcDbDictionary
0
DICTIONARY
5
17
100
AcDbDictionary
0
ENDSEC
0
EOF
