0
SECTION
2
HEADER
9
$INSUNITS
70
4
9
$ACADVER
1
AC1014
9
$HANDSEED
5
FFFF
0
ENDSEC
0
SECTION
2
TABLES
0
TABLE
2
VPORT
5
8
100
AcDbSymbolTable
0
ENDTAB
0
TABLE
2
LTYPE
5
5
100
AcDbSymbolTable
0
LTYPE
5
14
100
AcDbSymbolTableRecord
100
AcDbLinetypeTableRecord
2
BYBLOCK
70
0
0
LTYPE
5
15
100
AcDbSymbolTableRecord
100
AcDbLinetypeTableRecord
2
BYLAYER
70
0
0
ENDTAB
0
TABLE
2
LAYER
5
2
100
AcDbSymbolTable
70
2
0
LAYER
5
50
100
AcDbSymbolTableRecord
100
AcDbLayerTableRecord
2
0
70
0
6
CONTINUOUS
0
ENDTAB
0
TABLE
2
STYLE
5
3
100
AcDbSymbolTable
70
1
0
STYLE
5
11
100
AcDbSymbolTableRecord
100
AcDbTextStyleTableRecord
2
STANDARD
70
0
0
ENDTAB
0
TABLE
2
VIEW
5
6
100
AcDbSymbolTable
70
0
0
ENDTAB
0
TABLE
2
UCS
5
7
100
AcDbSymbolTable
70
0
0
ENDTAB
0
TABLE
2
APPID
5
9
100
AcDbSymbolTable
70
2
0
APPID
5
12
100
AcDbSymbolTableRecord
100
AcDbRegAppTableRecord
2
ACAD
70
0
0
ENDTAB
0
TABLE
2
DIMSTYLE
5
A
100
AcDbSymbolTable
70
1
0
ENDTAB
0
TABLE
2
BLOCK_RECORD
5
1
100
AcDbSymbolTable
70
1
0
BLOCK_RECORD
5
1F
100
AcDbSymbolTableRecord
100
AcDbBlockTableRecord
2
*MODEL_SPACE
0
BLOCK_RECORD
5
1B
100
AcDbSymbolTableRecord
100
AcDbBlockTableRecord
2
*PAPER_SPACE
0
ENDTAB
0
ENDSEC
0
SECTION
2
BLOCKS
0
BLOCK
5
20
100
AcDbEntity
100
AcDbBlockBegin
2
*MODEL_SPACE
0
ENDBLK
5
21
100
AcDbEntity
100
AcDbBlockEnd
0
BLOCK
5
1C
100
AcDbEntity
100
AcDbBlockBegin
2
*PAPER_SPACE
0
ENDBLK
5
1D
100
AcDbEntity
100
AcDbBlockEnd
0
ENDSEC
0
SECTION
2
ENTITIES
0
LWPOLYLINE
5
100
100
AcDbEntity
8
0
100
AcDbPolyline
90
66
70
1
43
0.0
10
87.071566400566297
20
8.6482555774036651
42
0.038267614315108008
10
84.736488578600955
20
21.816908657024463
42
0.43141554175320057
10
82.825751311323259
20
22.871236971885644
10
81.060780322216232
20
22.30515451757686
42
-1.0002041441362199
10
78.924286177960767
20
28.971142121069104
10
80.882663822322641
20
29.598374625071617
42
0.35643730522102757
10
81.916273328281846
20
31.189704165617936
42
-0.8860343004637532
10
91.583313876096781
20
33.447669866110878
42
-0.17689382093244152
10
91.583313876096767
20
-33.447669866110935
42
-0.88603430046375298
10
81.916273328281903
20
-31.189704165618004
42
0.35643730522103739
10
80.882663822326592
20
-29.598374625059556
10
78.924286177964902
20
-28.97114212105739
42
-1.0002041441366281
10
81.060780318439754
20
-22.305154529355498
10
82.825751307532315
20
-22.871236983957644
42
0.4314155431249499
10
84.736488710863469
20
-21.816908691047352
42
0.038267616825998801
10
87.07156662740303
20
-8.6482547251220527
42
0.44351623821488778
10
85.578911046913575
20
-6.9999969302984599
10
71.496489993985023
20
-6.9999972759678899
42
0.37996469235142732
10
70.006964072550971
20
-8.3229127198918711
42
-0.34647725344548058
10
8.3229159861169322
20
-70.006943679446124
42
0.37996464411654129
10
6.9999993637124893
20
-71.496446994647414
10
6.9999992327675002
20
-85.578911092001704
42
0.44351594536782168
10
8.6482541696364272
20
-87.071566479086172
42
0.038267618336641322
10
21.816908642414148
20
-84.736488522099279
42
0.43141554084854311
10
22.871236963546295
20
-82.825751313815431
10
22.305154509478172
20
-81.060780324814658
42
-1.0002041441362199
10
28.971142121069118
20
-78.924286177960781
10
29.598374625071649
20
-80.882663822322684
42
0.35643730522104378
10
31.189704165617968
20
-81.916273328281875
42
-0.88603430046375342
10
33.447669866110914
20
-91.583313876096796
42
-0.17689382093244152
10
-33.447669866110921
20
-91.583313876096796
42
-0.8860343004637532
10
-31.189704165617982
20
-81.916273328281903
42
0.35643730522103995
10
-29.598374625071656
20
-80.882663822322741
10
-28.971142121069033
20
-78.924286177960539
42
-1.0002041441363561
10
-22.305154517577247
20
-81.060780322217425
10
-22.871236971920069
20
-82.825751311430565
42
0.43141554175317476
10
-21.81690865705901
20
-84.736488578708247
42
0.038267613012990226
10
-8.6482560302678486
20
-87.071566355699275
42
0.4435160341820864
10
-7.0000002126061052
20
-85.578910935202117
10
-7.0000001868501531
20
-71.496444444456671
42
0.37996468985372744
10
-8.322916564946949
20
-70.006933988291181
42
-0.3464773278985907
10
-70.006957351054083
20
-8.3229144498685912
42
0.37996458681992162
10
-71.496467722700487
20
-6.9999985848486705
10
-85.578911092001675
20
-6.9999983897848441
42
0.44351603249132165
10
-87.071566539182157
20
-8.6482541756053521
42
0.038267618345276595
10
-84.736488578448132
20
-21.816908656922141
42
0.43141554176324193
10
-82.825751311157745
20
-22.871236971832548
10
-81.060780322216232
20
-22.305154517576852
42
-1.0002041441362199
10
-78.924286177960767
20
-28.971142121069096
10
-80.882663822322655
20
-29.598374625071621
42
0.35643730522104378
10
-81.916273328281846
20
-31.18970416561794
42
-0.88603430046375342
10
-91.583313876096781
20
-33.447669866110886
42
-0.17689382093244152
10
-91.583313876096781
20
33.447669866110928
42
-0.8860343004637532
10
-81.916273328281889
20
31.189704165617993
42
0.35643730522103995
10
-80.882663822322712
20
29.598374625071671
10
-78.924286177960511
20
28.971142121069047
42
-1.0002041441363561
10
-81.060780322217397
20
22.305154517577257
10
-82.825751311430551
20
22.871236971920084
42
0.43141554175317476
10
-84.736488578708219
20
21.816908657059027
42
0.038267613012990226
10
-87.071566355699247
20
8.6482560302678664
42
0.4435160341820864
10
-85.578910935202103
20
7.0000002126061229
10
-71.496508193227669
20
7.0000001868502837
42
0.37996474165201605
10
-70.006997705000515
20
8.3229168346286304
42
-0.88815531298076555
10
70.006987976001781
20
8.3229164515980116
42
0.37996474212188802
10
71.496498459454386
20
6.9999997956700311
10
85.578910973554642
20
6.9999997675051242
42
0.4435160337716284
0
CIRCLE
5
101
100
AcDbEntity
8
0
100
AcDbCircle
10
-79.991852908384615
20
25.637930265202161
30
0
40
1.6000000000000003
210
0
220
0
230
1
0
CIRCLE
5
102
100
AcDbEntity
8
0
100
AcDbCircle
10
79.991852908384615
20
25.637930265202137
30
0
40
1.6000000000000014
210
0
220
0
230
1
0
CIRCLE
5
103
100
AcDbEntity
8
0
100
AcDbCircle
10
79.991852908384615
20
-25.637930265202154
30
0
40
1.5999999999999961
210
0
220
0
230
1
0
CIRCLE
5
104
100
AcDbEntity
8
0
100
AcDbCircle
10
-79.991852908384615
20
-25.637930265202126
30
0
40
1.5999999999999979
210
0
220
0
230
1
0
LWPOLYLINE
5
105
100
AcDbEntity
8
0
100
AcDbPolyline
90
52
70
1
43
0.0
10
-48.574178890213574
20
22.173839205470607
42
0.99999999999999989
10
-45.57230271845566
20
27.826160801614698
10
-45.56625437637328
20
27.8229486039953
42
-0.4402186522310842
10
-46.120522067721481
20
29.964937031789042
42
-0.10073628853915229
10
-30.738421125897865
20
45.60865570812048
42
-0.45035380650522266
10
-28.563590766493281
20
45.045769036260111
10
-26.587064480140953
20
41.166617816153192
42
0.41421356133755072
10
-24.569568946657444
20
40.511093784203148
10
-18.33252315145819
20
43.689027346511082
42
0.41421356345943788
10
-17.676999117308611
20
45.706522887359391
10
-19.653524780863783
20
49.585672883494816
42
-0.45035387121069048
10
-18.830576164686978
20
51.676004205035269
42
-0.25881834231558037
10
33.877672287055582
20
43.327858554888678
42
-0.45035410034882689
10
34.014395945492389
20
41.08552951937245
10
30.935860749746201
20
38.00699430186404
42
0.41421356133755
10
30.935860753493991
20
35.885673962054426
10
35.885608321691407
20
30.93592639384655
42
0.4142135634594391
10
38.006928669185051
20
30.935926397778314
10
41.085471875968551
20
34.014469627392018
42
-0.45035357736716336
10
43.327799305574651
20
33.877748040337146
42
-0.021861455521442689
10
46.120522046181442
20
29.964937018302539
42
-0.44021865214324246
10
45.566254354596779
20
27.822948590877953
10
45.572302719098623
20
27.826160800404057
42
0.99999999999999989
10
48.57417889252001
20
22.173839201127752
10
48.568130493321782
20
22.170626973174762
42
-0.4402186525193057
10
50.653144620004142
20
21.430327578106308
42
-0.063804345495353951
10
54.419870401568737
20
7.9672897196261703
42
-0.45746191715351819
10
52.935692117889587
20
6.25
10
46.153250128554468
20
6.2500000000000009
42
0.41421356237309115
10
44.653250128554461
20
4.75
10
44.653250128554461
20
-4.7499999999999947
42
0.41421356237309176
10
46.153250128554468
20
-6.2499999999999991
10
52.935692117889602
20
-6.2499999999999929
42
-0.45746191715351697
10
54.419870401568772
20
-7.9672897196261445
42
-0.051062035513987664
10
51.676011029499413
20
-18.830557189819302
42
-0.45035397933158539
10
49.585679529264013
20
-19.65350632787737
10
45.706441679636654
20
-17.676935936121055
42
0.41421356133755033
10
43.688946148469412
20
-18.332459975199825
10
42.339454862754749
20
-20.980985749624171
42
-0.28202916829959701
10
41.002945076485524
20
-21.80000000001343
10
-49.4990909007428
20
-21.800000000773828
42
-0.30430489427509544
10
-50.886915881243439
20
-20.869158879314725
42
-0.027585843425206348
10
-52.875118916310377
20
-15.140072677274762
42
-0.45035350356306814
10
-51.667721922178998
20
-13.245629092417328
10
-47.367606474639587
20
-12.56455769834783
42
0.41421356133755194
10
-46.120725666543464
20
-10.84837349072572
10
-47.215766943918126
20
-3.9345549670224833
42
0.41421356345944066
10
-48.931951157864873
20
-2.6876741545586369
10
-53.23205231339162
20
-3.3687432857601984
42
-0.45035417415297169
10
-54.965770483369454
20
-1.9401232293177029
42
-0.109313686932001
10
-50.65314467087245
20
21.43032759962766
42
-0.44021865311127145
10
-48.568130491015665
20
22.170626977517092
0
CIRCLE
5
106
100
AcDbEntity
8
0
100
AcDbCircle
10
-47.073240806216077
20
25.000000000000004
30
0
40
1.5999999999999981
210
0
220
0
230
1
0
CIRCLE
5
107
100
AcDbEntity
8
0
100
AcDbCircle
10
-47.073240806216077
20
-24.999999999999996
30
0
40
1.5999999999999981
210
0
220
0
230
1
0
CIRCLE
5
108
100
AcDbEntity
8
0
100
AcDbCircle
10
47.073240806216077
20
24.999999999999996
30
0
40
1.5999999999999981
210
0
220
0
230
1
0
CIRCLE
5
109
100
AcDbEntity
8
0
100
AcDbCircle
10
25.637930265202151
20
-79.991852908384629
30
0
40
1.5999999999999981
210
0
220
0
230
1
0
CIRCLE
5
110
100
AcDbEntity
8
0
100
AcDbCircle
10
-25.637930265202151
20
-79.991852908384644
30
0
40
1.6000000000000005
210
0
220
0
230
1
0
ENDSEC
0
SECTION
2
OBJECTS
0
DICTIONARY
5
C
100
AcDbDictionary
3
ACAD_GROUP
350
D
3
ACAD_MLINESTYLE
350
17
0
DICTIONARY
5
D
100
AcDbDictionary
0
DICTIONARY
5
1A
330
C
100
AcDbDictionary
0
DICTIONARY
5
17
100
AcDbDictionary
0
ENDSEC
0
EOF
