0
SECTION
2
HEADER
9
$INSUNITS
70
4
9
$ACADVER
1
AC1014
9
$HANDSEED
5
FFFF
0
ENDSEC
0
SECTION
2
TABLES
0
TABLE
2
VPORT
5
8
100
AcDbSymbolTable
0
ENDTAB
0
TABLE
2
LTYPE
5
5
100
AcDbSymbolTable
0
LTYPE
5
14
100
AcDbSymbolTableRecord
100
AcDbLinetypeTableRecord
2
BYBLOCK
70
0
0
LTYPE
5
15
100
AcDbSymbolTableRecord
100
AcDbLinetypeTableRecord
2
BYLAYER
70
0
0
ENDTAB
0
TABLE
2
LAYER
5
2
100
AcDbSymbolTable
70
2
0
LAYER
5
50
100
AcDbSymbolTableRecord
100
AcDbLayerTableRecord
2
0
70
0
6
CONTINUOUS
0
ENDTAB
0
TABLE
2
STYLE
5
3
100
AcDbSymbolTable
70
1
0
STYLE
5
11
100
AcDbSymbolTableRecord
100
AcDbTextStyleTableRecord
2
STANDARD
70
0
0
ENDTAB
0
TABLE
2
VIEW
5
6
100
AcDbSymbolTable
70
0
0
ENDTAB
0
TABLE
2
UCS
5
7
100
AcDbSymbolTable
70
0
0
ENDTAB
0
TABLE
2
APPID
5
9
100
AcDbSymbolTable
70
2
0
APPID
5
12
100
AcDbSymbolTableRecord
100
AcDbRegAppTableRecord
2
ACAD
70
0
0
ENDTAB
0
TABLE
2
DIMSTYLE
5
A
100
AcDbSymbolTable
70
1
0
ENDTAB
0
TABLE
2
BLOCK_RECORD
5
1
100
AcDbSymbolTable
70
1
0
BLOCK_RECORD
5
1F
100
AcDbSymbolTableRecord
100
AcDbBlockTableRecord
2
*MODEL_SPACE
0
BLOCK_RECORD
5
1B
100
AcDbSymbolTableRecord
100
AcDbBlockTableRecord
2
*PAPER_SPACE
0
ENDTAB
0
ENDSEC
0
SECTION
2
BLOCKS
0
BLOCK
5
20
100
AcDbEntity
100
AcDbBlockBegin
2
*MODEL_SPACE
0
ENDBLK
5
21
100
AcDbEntity
100
AcDbBlockEnd
0
BLOCK
5
1C
100
AcDbEntity
100
AcDbBlockBegin
2
*PAPER_SPACE
0
ENDBLK
5
1D
100
AcDbEntity
100
AcDbBlockEnd
0
ENDSEC
0
SECTION
2
ENTITIES
0
LWPOLYLINE
5
100
100
AcDbEntity
8
0
100
AcDbPolyline
90
78
70
1
43
0.0
10
87.071566400566297
20
8.6482555774036651
42
0.038267614315108008
10
84.736488578600955
20
21.816908657024463
42
0.43141554175320057
10
82.825751311323259
20
22.871236971885644
10
81.060780322216232
20
22.30515451757686
42
-1.0002041441362199
10
78.924286177960767
20
28.971142121069104
10
80.882663822322641
20
29.598374625071617
42
0.35643730522102757
10
81.916273328281846
20
31.189704165617936
42
-0.8860343004637532
10
91.583313876096781
20
33.447669866110878
42
-0.17689382093244152
10
91.583313876096767
20
-33.447669866110935
42
-0.88603430046375298
10
81.916273328281903
20
-31.189704165618004
42
0.35643730522103739
10
80.882663822326592
20
-29.598374625059556
10
78.924286177964902
20
-28.97114212105739
42
-1.0002041441366281
10
81.060780318439754
20
-22.305154529355498
10
82.825751307532315
20
-22.871236983957644
42
0.4314155431249499
10
84.736488710863469
20
-21.816908691047352
42
0.038267616825998801
10
87.07156662740303
20
-8.6482547251220527
42
0.44351623821488778
10
85.578911046913575
20
-6.9999969302984599
10
71.496489993985023
20
-6.9999972759678899
42
0.37996469235142732
10
70.006964072550971
20
-8.3229127198918711
42
-0.34647725344548058
10
8.3229159861169322
20
-70.006943679446124
42
0.37996464411654129
10
6.9999993637124893
20
-71.496446994647414
10
6.9999992327675002
20
-85.578911092001704
42
0.44351594536782168
10
8.6482541696364272
20
-87.071566479086172
42
0.038267618336641322
10
21.816908642414148
20
-84.736488522099279
42
0.43141554084854311
10
22.871236963546295
20
-82.825751313815431
10
22.305154509478172
20
-81.060780324814658
42
-1.0002041441362199
10
28.971142121069118
20
-78.924286177960781
10
29.598374625071649
20
-80.882663822322684
42
0.35643730522104378
10
31.189704165617968
20
-81.916273328281875
42
-0.88603430046375342
10
33.447669866110914
20
-91.583313876096796
42
-0.17689382093244152
10
-33.447669866110921
20
-91.583313876096796
42
-0.8860343004637532
10
-31.189704165617982
20
-81.916273328281903
42
0.35643730522103995
10
-29.598374625071656
20
-80.882663822322741
10
-28.971142121069033
20
-78.924286177960539
42
-1.0002041441363561
10
-22.305154517577247
20
-81.060780322217425
10
-22.871236971920069
20
-82.825751311430565
42
0.43141554175317476
10
-21.81690865705901
20
-84.736488578708247
42
0.038267613012990226
10
-8.6482560302678486
20
-87.071566355699275
42
0.4435160341820864
10
-7.0000002126061052
20
-85.578910935202117
10
-7.0000001868501531
20
-71.496444444456671
42
0.37996468985372744
10
-8.322916564946949
20
-70.006933988291181
42
-0.3464773278985907
10
-70.006957351054083
20
-8.3229144498685912
42
0.37996458681992162
10
-71.496467722700487
20
-6.9999985848486705
10
-85.578911092001675
20
-6.9999983897848441
42
0.44351603249132165
10
-87.071566539182157
20
-8.6482541756053521
42
0.038267618345276595
10
-84.736488578448132
20
-21.816908656922141
42
0.43141554176324193
10
-82.825751311157745
20
-22.871236971832548
10
-81.060780322216232
20
-22.305154517576852
42
-1.0002041441362199
10
-78.924286177960767
20
-28.971142121069096
10
-80.882663822322655
20
-29.598374625071621
42
0.35643730522104378
10
-81.916273328281846
20
-31.18970416561794
42
-0.88603430046375342
10
-91.583313876096781
20
-33.447669866110886
42
-0.17689382093244152
10
-91.583313876096781
20
33.447669866110928
42
-0.8860343004637532
10
-81.916273328281889
20
31.189704165617993
42
0.35643730522103995
10
-80.882663822322712
20
29.598374625071671
10
-78.924286177960511
20
28.971142121069047
42
-1.0002041441363561
10
-81.060780322217397
20
22.305154517577257
10
-82.825751311430551
20
22.871236971920084
42
0.43141554175317476
10
-84.736488578708219
20
21.816908657059027
42
0.038267613012990226
10
-87.071566355699247
20
8.6482560302678664
42
0.4435160341820864
10
-85.578910935202103
20
7.0000002126061229
10
-71.496508193227669
20
7.0000001868502837
42
0.37996474165201605
10
-70.006997705000529
20
8.3229168346286659
42
-0.35177199419646021
10
-6.9999981156705724
20
70.151621462469166
10
-6.9999982060305754
20
72.262520150230287
42
-0.17445641582726665
10
-32.099604622741523
20
86.333112340311885
42
-0.23925385700351134
10
-33.196288993312081
20
90.72423318544341
42
-0.79899937421747813
10
-28.310247770299451
20
94.609004081779091
42
-0.21679744656104583
10
-24.544887160997032
20
92.884924614271966
42
0.45642841621819541
10
24.544887160996964
20
92.884924614272023
42
-0.21679744656104583
10
28.310247770299377
20
94.609004081779275
42
-0.79899937421747813
10
33.196288993312102
20
90.724233185443353
42
-0.23925385700351134
10
32.099604622741467
20
86.333112340311956
42
-0.1744564158272669
10
6.9999982060305452
20
72.262520150230273
10
6.9999981156705191
20
70.151620487128426
42
-0.35177195658951027
10
70.006987976001781
20
8.3229164515980116
42
0.37996474212188802
10
71.496498459454386
20
6.9999997956700311
10
85.578910973554642
20
6.9999997675051242
42
0.4435160337716284
0
CIRCLE
5
101
100
AcDbEntity
8
0
100
AcDbCircle
10
-79.991852908384615
20
25.637930265202161
30
0
40
1.6000000000000003
210
0
220
0
230
1
0
CIRCLE
5
102
100
AcDbEntity
8
0
100
AcDbCircle
10
79.991852908384615
20
25.637930265202137
30
0
40
1.6000000000000014
210
0
220
0
230
1
0
CIRCLE
5
103
100
AcDbEntity
8
0
100
AcDbCircle
10
79.991852908384615
20
-25.637930265202154
30
0
40
1.5999999999999961
210
0
220
0
230
1
0
CIRCLE
5
104
100
AcDbEntity
8
0
100
AcDbCircle
10
-79.991852908384615
20
-25.637930265202126
30
0
40
1.5999999999999979
210
0
220
0
230
1
0
LWPOLYLINE
5
105
100
AcDbEntity
8
0
100
AcDbPolyline
90
47
70
1
43
0.0
10
-48.574178890213574
20
22.173839205470607
42
0.99999999999999989
10
-45.57230271845566
20
27.826160801614698
10
-45.56625437637328
20
27.8229486039953
42
-0.4402186522310842
10
-46.120522067721481
20
29.964937031789045
42
-0.066828585926724374
10
-36.583795296554463
20
41.068551594427674
42
-0.26652144395976052
10
-35.12252993646166
20
41.375084964745966
10
-26.332114170696759
20
38.518905761542555
42
0.19891236692022612
10
-23.661587947180223
20
38.729080735825463
10
-17.424542151980976
20
41.907014298133383
42
0.1989123678616275
10
-15.684811092028447
20
43.943977658651605
10
-12.828632905711226
20
52.734390294762569
42
-0.26652149010898779
10
-11.721731722381573
20
53.736403068970418
42
-0.18809672204494529
10
27.753432710352651
20
47.484176102083715
42
-0.26652181813887399
10
28.496520908945421
20
46.189153122354547
10
28.496520925274929
20
36.946334127649585
42
0.19891236692022554
10
29.521647191119399
20
34.471460399682826
10
34.471394759316816
20
29.521712831474947
42
0.19891236758637376
10
36.946268496252529
20
28.49658656562525
10
42.818403312181474
20
28.496586565625265
42
-0.5494044762001441
10
44.176330171598998
20
26.359378087595928
42
0.72062969989980319
10
48.57417889252001
20
22.173839201127752
10
48.568130493321782
20
22.170626973174762
42
-0.4402186525193057
10
50.653144620004142
20
21.430327578106308
42
-0.063804345495353951
10
54.419870401568737
20
7.9672897196261703
42
-0.45746191715351819
10
52.935692117889587
20
6.25
10
46.153250128554468
20
6.2500000000000009
42
0.41421356237309115
10
44.653250128554461
20
4.75
10
44.653250128554461
20
-4.7499999999999947
42
0.41421356237309176
10
46.153250128554468
20
-6.2499999999999991
10
52.935692117889602
20
-6.2499999999999929
42
-0.45746191715351697
10
54.419870401568758
20
-7.967289719626196
42
-0.017350874711077012
10
53.736424598740705
20
-11.721632622798548
42
-0.26652198286674045
10
52.734411240130584
20
-12.828536506709668
10
43.943896448558021
20
-15.684747919688341
42
0.19891236692022507
10
41.906933100093639
20
-17.424478975718849
10
40.094802387475205
20
-20.980985749643025
42
-0.28202916829959807
10
38.758292601205937
20
-21.800000000032291
10
-48.118442453797698
20
-21.800000000762225
42
-0.61280078753527578
10
-49.331967946930405
20
-19.418322124467487
10
-44.770698693489507
20
-13.140273566305559
42
0.19891236692022535
10
-44.145348985352854
20
-10.535504560647349
10
-45.240390262727516
20
-3.6216860369441073
42
0.19891236786162825
10
-46.640051077035565
20
-1.3376471804559451
10
-54.117643680464894
20
4.095141831858605
42
-0.26652186182763155
10
-54.728562975532853
20
5.4575084630319441
42
-0.07535519847258329
10
-50.65314467087245
20
21.43032759962766
42
-0.44021865311127145
10
-48.568130491015665
20
22.170626977517092
0
CIRCLE
5
106
100
AcDbEntity
8
0
100
AcDbCircle
10
-47.073240806216077
20
25.000000000000004
30
0
40
1.5999999999999981
210
0
220
0
230
1
0
CIRCLE
5
107
100
AcDbEntity
8
0
100
AcDbCircle
10
-47.073240806216077
20
-24.999999999999996
30
0
40
1.5999999999999981
210
0
220
0
230
1
0
CIRCLE
5
108
100
AcDbEntity
8
0
100
AcDbCircle
10
25.637930265202151
20
-79.991852908384629
30
0
40
1.5999999999999981
210
0
220
0
230
1
0
CIRCLE
5
109
100
AcDbEntity
8
0
100
AcDbCircle
10
-25.637930265202151
20
-79.991852908384644
30
0
40
1.6000000000000005
210
0
220
0
230
1
0
CIRCLE
5
110
100
AcDbEntity
8
0
100
AcDbCircle
10
47.073240805810386
20
25.000000000763904
30
0
40
1.6000000000000003
210
0
220
0
230
1
0
CIRCLE
5
111
100
AcDbEntity
8
0
100
AcDbCircle
10
-30.313739515625148
20
92.113804525348669
30
0
40
1.6000000000000898
210
0
220
-0
230
1
0
CIRCLE
5
112
100
AcDbEntity
8
0
100
AcDbCircle
10
30.313739515625148
20
92.113804525348669
30
0
40
1.6000000000000898
210
0
220
-0
230
1
0
ENDSEC
0
SECTION
2
OBJECTS
0
DICTIONARY
5
C
100
AcDbDictionary
3
ACAD_GROUP
350
D
3
ACAD_MLINESTYLE
350
17
0
DICTIONARY
5
D
100
AcDbDictionary
0
DICTIONARY
5
1A
330
C
100
AcDbDictionary
0
DICTIONARY
5
17
100
AcDbDictionary
0
ENDSEC
0
EOF
