0
SECTION
2
HEADER
9
$INSUNITS
70
4
9
$ACADVER
1
AC1014
9
$HANDSEED
5
FFFF
0
ENDSEC
0
SECTION
2
TABLES
0
TABLE
2
VPORT
5
8
100
AcDbSymbolTable
0
ENDTAB
0
TABLE
2
LTYPE
5
5
100
AcDbSymbolTable
0
LTYPE
5
14
100
AcDbSymbolTableRecord
100
AcDbLinetypeTableRecord
2
BYBLOCK
70
0
0
LTYPE
5
15
100
AcDbSymbolTableRecord
100
AcDbLinetypeTableRecord
2
BYLAYER
70
0
0
ENDTAB
0
TABLE
2
LAYER
5
2
100
AcDbSymbolTable
70
2
0
LAYER
5
50
100
AcDbSymbolTableRecord
100
AcDbLayerTableRecord
2
0
70
0
6
CONTINUOUS
0
ENDTAB
0
TABLE
2
STYLE
5
3
100
AcDbSymbolTable
70
1
0
STYLE
5
11
100
AcDbSymbolTableRecord
100
AcDbTextStyleTableRecord
2
STANDARD
70
0
0
ENDTAB
0
TABLE
2
VIEW
5
6
100
AcDbSymbolTable
70
0
0
ENDTAB
0
TABLE
2
UCS
5
7
100
AcDbSymbolTable
70
0
0
ENDTAB
0
TABLE
2
APPID
5
9
100
AcDbSymbolTable
70
2
0
APPID
5
12
100
AcDbSymbolTableRecord
100
AcDbRegAppTableRecord
2
ACAD
70
0
0
ENDTAB
0
TABLE
2
DIMSTYLE
5
A
100
AcDbSymbolTable
70
1
0
ENDTAB
0
TABLE
2
BLOCK_RECORD
5
1
100
AcDbSymbolTable
70
1
0
BLOCK_RECORD
5
1F
100
AcDbSymbolTableRecord
100
AcDbBlockTableRecord
2
*MODEL_SPACE
0
BLOCK_RECORD
5
1B
100
AcDbSymbolTableRecord
100
AcDbBlockTableRecord
2
*PAPER_SPACE
0
ENDTAB
0
ENDSEC
0
SECTION
2
BLOCKS
0
BLOCK
5
20
100
AcDbEntity
100
AcDbBlockBegin
2
*MODEL_SPACE
0
ENDBLK
5
21
100
AcDbEntity
100
AcDbBlockEnd
0
BLOCK
5
1C
100
AcDbEntity
100
AcDbBlockBegin
2
*PAPER_SPACE
0
ENDBLK
5
1D
100
AcDbEntity
100
AcDbBlockEnd
0
ENDSEC
0
SECTION
2
ENTITIES
0
LWPOLYLINE
5
100
100
AcDbEntity
8
0
100
AcDbPolyline
90
82
70
1
43
0.0
10
87.071566400566297
20
8.6482555774036651
42
0.038267614315108008
10
84.736488578600955
20
21.816908657024463
42
0.43141554175320057
10
82.825751311323259
20
22.871236971885644
10
81.060780322216232
20
22.30515451757686
42
-1.0002041441362199
10
78.924286177960767
20
28.971142121069104
10
80.882663822322641
20
29.598374625071617
42
0.35643730522102757
10
81.916273328281846
20
31.189704165617936
42
-0.8860343004637532
10
91.583313876096781
20
33.447669866110878
42
-0.17689382093244152
10
91.583313876096767
20
-33.447669866110935
42
-0.88603430046375298
10
81.916273328281903
20
-31.189704165618004
42
0.35643730522103739
10
80.882663822326592
20
-29.598374625059556
10
78.924286177964902
20
-28.97114212105739
42
-1.0002041441366281
10
81.060780318439754
20
-22.305154529355498
10
82.825751307532315
20
-22.871236983957644
42
0.4314155431249499
10
84.736488710863469
20
-21.816908691047352
42
0.038267616825998801
10
87.07156662740303
20
-8.6482547251220527
42
0.44351623821488778
10
85.578911046913575
20
-6.9999969302984599
10
71.496489993985023
20
-6.9999972759678899
42
0.37996469235142732
10
70.006964072550971
20
-8.3229127198918711
42
-0.34647725344548058
10
8.3229159861169322
20
-70.006943679446124
42
0.37996464411654129
10
6.9999993637124893
20
-71.496446994647414
10
6.9999992327675002
20
-85.578911092001704
42
0.44351594536782168
10
8.6482541696364272
20
-87.071566479086172
42
0.038267618336641322
10
21.816908642414148
20
-84.736488522099279
42
0.43141554084854311
10
22.871236963546295
20
-82.825751313815431
10
22.305154509478172
20
-81.060780324814658
42
-1.0002041441362199
10
28.971142121069118
20
-78.924286177960781
10
29.598374625071649
20
-80.882663822322684
42
0.35643730522104378
10
31.189704165617968
20
-81.916273328281875
42
-0.88603430046375342
10
33.447669866110914
20
-91.583313876096796
42
-0.17689382093244152
10
-33.447669866110921
20
-91.583313876096796
42
-0.8860343004637532
10
-31.189704165617982
20
-81.916273328281903
42
0.35643730522103995
10
-29.598374625071656
20
-80.882663822322741
10
-28.971142121069033
20
-78.924286177960539
42
-1.0002041441363561
10
-22.305154517577247
20
-81.060780322217425
10
-22.871236971920069
20
-82.825751311430565
42
0.43141554175317476
10
-21.81690865705901
20
-84.736488578708247
42
0.038267613012990226
10
-8.6482560302678486
20
-87.071566355699275
42
0.4435160341820864
10
-7.0000002126061052
20
-85.578910935202117
10
-7.0000001868501531
20
-71.496444444456671
42
0.37996468985372744
10
-8.322916564946949
20
-70.006933988291181
42
-0.29943333446207965
10
-67.581966586039584
20
-20.07291576905709
42
0.33196634867719998
10
-69.019881415693604
20
-19.000000002740627
10
-83.520955453304069
20
-19.000000002740627
42
0.48660141495767667
10
-84.977716304251288
20
-20.857558142275504
42
0.002826348129706239
10
-84.736488578448132
20
-21.816908656922141
42
0.43141554176324193
10
-82.825751311157745
20
-22.871236971832548
10
-81.060780322216232
20
-22.305154517576852
42
-1.0002041441362199
10
-78.924286177960767
20
-28.971142121069096
10
-80.882663822322655
20
-29.598374625071621
42
0.35643730522104378
10
-81.916273328281846
20
-31.18970416561794
42
-0.88603430046375342
10
-91.583313876096781
20
-33.447669866110886
42
-0.17689382093244152
10
-91.583313876096781
20
33.447669866110928
42
-0.8860343004637532
10
-81.916273328281889
20
31.189704165617993
42
0.35643730522103995
10
-80.882663822322712
20
29.598374625071671
10
-78.924286177960511
20
28.971142121069047
42
-1.0002041441363561
10
-81.060780322217397
20
22.305154517577257
10
-82.825751311430551
20
22.871236971920084
42
0.43141554175317476
10
-84.736488578708219
20
21.816908657059027
42
0.0028263481463939102
10
-84.977716305936625
20
20.857558136746455
42
0.48660141494754017
10
-83.520955454977724
20
18.999999997259373
10
-69.019929333769355
20
18.999999997259366
42
0.33196651958188994
10
-67.582014241133862
20
20.072916648987544
42
-0.29404191718214312
10
-9.7088182076978686
20
69.828281114357679
42
0.83211810259368213
10
-9.5772832812800566
20
72.77538744678435
42
-0.15856332823339395
10
-32.099604622741523
20
86.333112340311885
42
-0.2189357251166088
10
-33.267794037966446
20
90.344921687391789
42
0.12143416163324369
10
-33.335165194719927
20
91.059770908377175
42
-0.70992957397188894
10
-28.605852184114312
20
94.819931067634542
42
0.12143416163321914
10
-27.924579819253346
20
94.593179559629704
42
-0.19666744448928264
10
-24.544887160997032
20
92.884924614271966
42
0.45642841621819541
10
24.544887160996961
20
92.884924614272023
42
-0.19666744448928136
10
27.924579819253314
20
94.593179559629789
42
0.12143416163342895
10
28.605852184114244
20
94.819931067634613
42
-0.70992957397191914
10
33.335165194719934
20
91.059770908376905
42
0.12143416163341889
10
33.267794037966404
20
90.344921687391547
42
-0.21893572511659626
10
32.099604622741467
20
86.333112340311942
42
-0.15856335017472167
10
9.5772797372491461
20
72.77538662684637
42
0.83211810259368202
10
9.7088144113569026
20
69.828280283158676
42
-0.34093680788216119
10
70.006987976001781
20
8.3229164515980116
42
0.37996474212188802
10
71.496498459454386
20
6.9999997956700311
10
85.578910973554642
20
6.9999997675051242
42
0.4435160337716284
0
CIRCLE
5
101
100
AcDbEntity
8
0
100
AcDbCircle
10
-79.991852908384615
20
25.637930265202161
30
0
40
1.6000000000000003
210
0
220
0
230
1
0
CIRCLE
5
102
100
AcDbEntity
8
0
100
AcDbCircle
10
79.991852908384615
20
25.637930265202137
30
0
40
1.6000000000000014
210
0
220
0
230
1
0
CIRCLE
5
103
100
AcDbEntity
8
0
100
AcDbCircle
10
79.991852908384615
20
-25.637930265202154
30
0
40
1.5999999999999961
210
0
220
0
230
1
0
CIRCLE
5
104
100
AcDbEntity
8
0
100
AcDbCircle
10
-79.991852908384615
20
-25.637930265202126
30
0
40
1.5999999999999979
210
0
220
0
230
1
0
CIRCLE
5
105
100
AcDbEntity
8
0
100
AcDbCircle
10
-47.073240806216077
20
25.000000000000004
30
0
40
1.5999999999999981
210
0
220
0
230
1
0
CIRCLE
5
106
100
AcDbEntity
8
0
100
AcDbCircle
10
-47.073240806216077
20
-24.999999999999996
30
0
40
1.5999999999999981
210
0
220
0
230
1
0
CIRCLE
5
107
100
AcDbEntity
8
0
100
AcDbCircle
10
25.637930265202151
20
-79.991852908384629
30
0
40
1.5999999999999981
210
0
220
0
230
1
0
CIRCLE
5
108
100
AcDbEntity
8
0
100
AcDbCircle
10
-25.637930265202151
20
-79.991852908384644
30
0
40
1.6000000000000005
210
0
220
0
230
1
0
CIRCLE
5
109
100
AcDbEntity
8
0
100
AcDbCircle
10
47.073240805810386
20
25.000000000763904
30
0
40
1.6000000000000003
210
0
220
0
230
1
0
CIRCLE
5
110
100
AcDbEntity
8
0
100
AcDbCircle
10
-30.313739515625148
20
92.113804525348669
30
0
40
1.6000000000000898
210
0
220
-0
230
1
0
CIRCLE
5
111
100
AcDbEntity
8
0
100
AcDbCircle
10
30.313739515625148
20
92.113804525348669
30
0
40
1.6000000000000898
210
0
220
-0
230
1
0
CIRCLE
5
112
100
AcDbEntity
8
0
100
AcDbCircle
10
47.073240805810386
20
-25.000000000763904
30
0
40
1.6000000000000003
210
0
220
0
230
1
0
LWPOLYLINE
5
113
100
AcDbEntity
8
0
100
AcDbPolyline
90
32
70
1
43
0.0
10
44.81283380479254
20
-22.734926008291247
42
0.47110703929529574
10
45.27654839949939
20
-27.647998564132266
42
-0.40846340978834755
10
45.691924744242947
20
-29.70686811440142
42
-0.047178957312258948
10
39.313047051276222
20
-37.745653147669088
42
-0.42252863553164977
10
37.161958520603939
20
-37.758956897424561
10
29.60460632197578
20
-30.080196311951426
42
0.38008249515154308
10
22.977364693848155
20
-29.635983034781756
42
-0.3422510560073706
10
-22.977369454276861
20
-29.635986732528956
42
0.38008244910695443
10
-29.604610446495563
20
-30.080200502731383
10
-37.161958520603939
20
-37.758956897424547
42
-0.42252863553164649
10
-39.313047051276293
20
-37.745653147669039
42
-0.040718680326054135
10
-44.910637833469906
20
-30.875307437998131
42
-0.28515012056144856
10
-44.9845334174153
20
-29.294786687215719
42
0.2600533525325226
10
-44.984533417415292
20
29.294786687215755
42
-0.28515012056145206
10
-44.910637833469906
20
30.87530743799811
42
-0.040718680326054357
10
-39.313047051276264
20
37.745653147669053
42
-0.42252863553164971
10
-37.161958520603953
20
37.758956897424554
10
-29.604610446495563
20
30.080200502731383
42
0.38008244910695443
10
-22.977369454276861
20
29.635986732528949
42
-0.3422510560073706
10
22.977364693848152
20
29.635983034781756
42
0.38008249515154308
10
29.60460632197578
20
30.080196311951426
10
37.161958520603939
20
37.758956897424561
42
-0.42252863553164649
10
39.313047051276243
20
37.745653147669088
42
-0.047178957312258837
10
45.691924744242939
20
29.70686811440142
42
-0.40846340978835061
10
45.276548399499376
20
27.647998564132269
42
0.47110703929529468
10
44.812833804792533
20
22.734926008291243
42
-0.49485145783417295
10
44.497474411501578
20
20.370806707830909
10
38.623409131190144
20
17.014210055463369
42
0.3800824951515433
10
35.858009503216067
20
10.975151464608345
42
-0.14961077267654405
10
35.858010232874193
20
-10.97515168793664
42
0.3800824951515433
10
38.623409131190144
20
-17.014210055463369
10
44.497474411501585
20
-20.370806707830912
42
-0.49485145783417295
0
ENDSEC
0
SECTION
2
OBJECTS
0
DICTIONARY
5
C
100
AcDbDictionary
3
ACAD_GROUP
350
D
3
ACAD_MLINESTYLE
350
17
0
DICTIONARY
5
D
100
AcDbDictionary
0
DICTIONARY
5
1A
330
C
100
AcDbDictionary
0
DICTIONARY
5
17
100
AcDbDictionary
0
ENDSEC
0
EOF
