0
SECTION
2
HEADER
9
$INSUNITS
70
4
9
$ACADVER
1
AC1014
9
$HANDSEED
5
FFFF
0
ENDSEC
0
SECTION
2
TABLES
0
TABLE
2
VPORT
5
8
100
AcDbSymbolTable
0
ENDTAB
0
TABLE
2
LTYPE
5
5
100
AcDbSymbolTable
0
LTYPE
5
14
100
AcDbSymbolTableRecord
100
AcDbLinetypeTableRecord
2
BYBLOCK
70
0
0
LTYPE
5
15
100
AcDbSymbolTableRecord
100
AcDbLinetypeTableRecord
2
BYLAYER
70
0
0
ENDTAB
0
TABLE
2
LAYER
5
2
100
AcDbSymbolTable
70
2
0
LAYER
5
50
100
AcDbSymbolTableRecord
100
AcDbLayerTableRecord
2
0
70
0
6
CONTINUOUS
0
ENDTAB
0
TABLE
2
STYLE
5
3
100
AcDbSymbolTable
70
1
0
STYLE
5
11
100
AcDbSymbolTableRecord
100
AcDbTextStyleTableRecord
2
STANDARD
70
0
0
ENDTAB
0
TABLE
2
VIEW
5
6
100
AcDbSymbolTable
70
0
0
ENDTAB
0
TABLE
2
UCS
5
7
100
AcDbSymbolTable
70
0
0
ENDTAB
0
TABLE
2
APPID
5
9
100
AcDbSymbolTable
70
2
0
APPID
5
12
100
AcDbSymbolTableRecord
100
AcDbRegAppTableRecord
2
ACAD
70
0
0
ENDTAB
0
TABLE
2
DIMSTYLE
5
A
100
AcDbSymbolTable
70
1
0
ENDTAB
0
TABLE
2
BLOCK_RECORD
5
1
100
AcDbSymbolTable
70
1
0
BLOCK_RECORD
5
1F
100
AcDbSymbolTableRecord
100
AcDbBlockTableRecord
2
*MODEL_SPACE
0
BLOCK_RECORD
5
1B
100
AcDbSymbolTableRecord
100
AcDbBlockTableRecord
2
*PAPER_SPACE
0
ENDTAB
0
ENDSEC
0
SECTION
2
BLOCKS
0
BLOCK
5
20
100
AcDbEntity
100
AcDbBlockBegin
2
*MODEL_SPACE
0
ENDBLK
5
21
100
AcDbEntity
100
AcDbBlockEnd
0
BLOCK
5
1C
100
AcDbEntity
100
AcDbBlockBegin
2
*PAPER_SPACE
0
ENDBLK
5
1D
100
AcDbEntity
100
AcDbBlockEnd
0
ENDSEC
0
SECTION
2
ENTITIES
0
LWPOLYLINE
5
100
100
AcDbEntity
8
0
100
AcDbPolyline
90
82
70
1
43
0.0
10
33.335165194719934
20
91.059770908376905
42
0.70992957397191914
10
28.605852184114241
20
94.819931067634627
42
-0.12143416163342892
10
27.924579819253314
20
94.593179559629789
42
0.19666744448928139
10
24.544887160997003
20
92.884924614271981
42
-0.45642841621819541
10
-24.544887160997028
20
92.884924614271966
42
0.19666744448928258
10
-27.924579819253346
20
94.593179559629704
42
-0.12143416163321914
10
-28.605852184114312
20
94.819931067634542
42
0.70992957397188894
10
-33.335165194719913
20
91.059770908377175
42
-0.12143416163324371
10
-33.267794037966446
20
90.344921687391789
42
0.2189357251166088
10
-32.09960462274146
20
86.333112340311942
42
0.15856332823339397
10
-9.5772832812800672
20
72.77538744678435
42
-0.83211810259368213
10
-9.7088182076978686
20
69.828281114357694
42
0.29404191718214312
10
-67.582014241133862
20
20.072916648987555
42
-0.33196651958188994
10
-69.019929333769355
20
18.999999997259366
10
-83.520955454977724
20
18.99999999725938
42
-0.48660141494754017
10
-84.977716305936184
20
20.857558136748253
42
-0.0028263481463939514
10
-84.736488578708219
20
21.816908657059027
42
-0.43141554175317476
10
-82.825751311430551
20
22.871236971920084
10
-81.060780322217397
20
22.305154517577257
42
1.0002041441363561
10
-78.924286177960781
20
28.971142121069132
10
-80.882663822322712
20
29.598374625071685
42
-0.35643730522103995
10
-81.916273328281889
20
31.189704165617993
42
0.8860343004637532
10
-91.583313876096767
20
33.447669866110921
42
0.17689382093244152
10
-91.583313876096767
20
-33.447669866110878
42
0.88603430046375342
10
-81.916273328281846
20
-31.189704165617943
42
-0.35643730522104378
10
-80.882663822322655
20
-29.598374625071621
10
-78.924286177960767
20
-28.971142121069096
42
1.0002041441362199
10
-81.060780322217397
20
-22.305154517577222
10
-82.825751311157745
20
-22.871236971832541
42
-0.43141554176324193
10
-84.736488578448132
20
-21.816908656922188
42
-0.0028263481297062781
10
-84.977716304251288
20
-20.857558142275504
42
-0.48660141495767667
10
-83.520955453304069
20
-19.000000002740627
10
-69.019881415693604
20
-19.000000002740624
42
-0.33196634867719998
10
-67.581966586039584
20
-20.07291576905709
42
0.29943333446207965
10
-8.3229165649469579
20
-70.006933988291181
42
-0.37996468985372744
10
-7.0000001868501531
20
-71.496444444456671
10
-7.0000002126061194
20
-85.578910935202117
42
-0.4435160341820864
10
-8.6482560302679161
20
-87.071566355699289
42
-0.038267613012990205
10
-21.816908657059013
20
-84.736488578708247
42
-0.43141554175317476
10
-22.871236971920069
20
-82.825751311430565
10
-22.305154517577247
20
-81.060780322217425
42
1.0002041441363561
10
-28.971142121069118
20
-78.924286177960809
10
-29.598374625071674
20
-80.882663822322741
42
-0.35643730522104022
10
-31.189704165617982
20
-81.916273328281903
42
0.88603430046375353
10
-33.447669866110921
20
-91.583313876096796
42
0.17689382093244163
10
33.447669866110907
20
-91.583313876096781
42
0.88603430046375276
10
31.189704165617972
20
-81.916273328281889
42
-0.356437305221044
10
29.598374625071642
20
-80.882663822322684
10
28.971142121069118
20
-78.924286177960781
42
1.0002041441362199
10
22.30515450947307
20
-81.06078032481669
10
22.871236963546274
20
-82.825751313815431
42
-0.43141554084854311
10
21.816908642414035
20
-84.736488522099322
42
-0.038267618336641336
10
8.6482541696364272
20
-87.071566479086187
42
-0.44351594536782168
10
6.9999992327675002
20
-85.578911092001704
10
6.999999363712492
20
-71.496446994647414
42
-0.37996464411654129
10
8.322915986116934
20
-70.006943679446138
42
0.34647725344548058
10
70.006964072550971
20
-8.3229127198918746
42
-0.37996469235142732
10
71.496489993985023
20
-6.9999972759678899
10
85.578911046913575
20
-6.9999969302984546
42
-0.44351623821488778
10
87.071566627403044
20
-8.6482547251220332
42
-0.038267616825998774
10
84.736488710863469
20
-21.816908691047352
42
-0.4314155431249499
10
82.825751307532315
20
-22.871236983957644
10
81.060780318439754
20
-22.305154529355498
42
1.0002041441366281
10
78.924286177964575
20
-28.971142121057277
10
80.882663822322712
20
-29.598374625071667
42
-0.35643730522103739
10
81.916273328281903
20
-31.189704165618004
42
0.88603430046375298
10
91.583313876096767
20
-33.447669866110935
42
0.17689382093244152
10
91.583313876096767
20
33.447669866110864
42
0.8860343004637532
10
81.916273328281846
20
31.18970416561794
42
-0.35643730522102757
10
80.882663822322641
20
29.598374625071617
10
78.924286177960767
20
28.971142121069104
42
1.0002041441362199
10
81.060780322217397
20
22.305154517577233
10
82.825751311323259
20
22.871236971885637
42
-0.43141554175320057
10
84.736488578600927
20
21.816908657024584
42
-0.038267614315107966
10
87.071566400566297
20
8.6482555774036651
42
-0.4435160337716284
10
85.578910973554642
20
6.9999997675051242
10
71.496498459454386
20
6.9999997956700257
42
-0.37996474212188802
10
70.006987976001781
20
8.3229164515980116
42
0.34093680788216119
10
9.7088144113569061
20
69.828280283158676
42
-0.83211810259368202
10
9.5772797372491478
20
72.77538662684637
42
0.1585633501747217
10
32.09960462274146
20
86.333112340311942
42
0.21893572511659629
10
33.267794037966404
20
90.344921687391547
42
-0.12143416163341889
0
CIRCLE
5
101
100
AcDbEntity
8
0
100
AcDbCircle
10
-79.991852908384615
20
25.637930265202161
30
0
40
1.6000000000000003
210
0
220
0
230
1
0
CIRCLE
5
102
100
AcDbEntity
8
0
100
AcDbCircle
10
79.991852908384615
20
25.637930265202137
30
0
40
1.6000000000000014
210
0
220
0
230
1
0
CIRCLE
5
103
100
AcDbEntity
8
0
100
AcDbCircle
10
79.991852908384615
20
-25.637930265202154
30
0
40
1.5999999999999961
210
0
220
0
230
1
0
CIRCLE
5
104
100
AcDbEntity
8
0
100
AcDbCircle
10
-79.991852908384615
20
-25.637930265202126
30
0
40
1.5999999999999979
210
0
220
0
230
1
0
CIRCLE
5
105
100
AcDbEntity
8
0
100
AcDbCircle
10
47.073240805810386
20
25.000000000763904
30
0
40
1.6000000000000003
210
0
220
0
230
1
0
CIRCLE
5
106
100
AcDbEntity
8
0
100
AcDbCircle
10
-47.073240806216077
20
25.000000000000004
30
0
40
1.5999999999999981
210
0
220
0
230
1
0
CIRCLE
5
107
100
AcDbEntity
8
0
100
AcDbCircle
10
-25.637930265202151
20
-79.991852908384644
30
0
40
1.6000000000000005
210
0
220
0
230
1
0
CIRCLE
5
108
100
AcDbEntity
8
0
100
AcDbCircle
10
25.637930265202151
20
-79.991852908384629
30
0
40
1.5999999999999981
210
0
220
0
230
1
0
LWPOLYLINE
5
109
100
AcDbEntity
8
0
100
AcDbPolyline
90
46
70
1
43
0.0
10
-44.910637833469877
20
30.87530743799816
42
0.28515012056145206
10
-44.984533417415307
20
29.294786687215773
42
-0.26005335253252265
10
-44.9845334174153
20
-29.294786687215716
42
0.28515012056144851
10
-44.910637833469906
20
-30.875307437998131
42
0.10041640979475069
10
-29.327158033166192
20
-45.936562798033719
42
0.42252861155980842
10
-27.233341513925147
20
-45.443317550393694
10
-24.281370532537096
20
-40.517467572043756
42
-0.38365211504112029
10
-17.888068965399281
20
-38.552134934891086
42
0.044359481565710235
10
-10.807217118405543
20
-41.102969535307501
42
0.43775800479364663
10
-8.9493271156234613
20
-39.916981722308037
10
-8.3299814874977347
20
-36.462428405119894
42
-0.38913344483844337
10
-2.953991351527991
20
-32.365475494691765
42
0.045540281653321239
10
2.9539927862670563
20
-32.365475363743343
42
-0.3891333375547662
10
8.3299827750003157
20
-36.462426201609034
10
8.9493302528407064
20
-39.916981542188481
42
0.43775790329820641
10
10.807220255970709
20
-41.10296871034673
42
0.044359462444590964
10
17.888068965399274
20
-38.552134934891072
42
-0.38365211504112029
10
24.281370532537096
20
-40.517467572043756
10
27.233341513925147
20
-45.443317550393694
42
0.42252861155980415
10
29.327158033166171
20
-45.936562798033727
42
0.1069335366483436
10
45.691924744242939
20
-29.706868114401423
42
0.40846340978834755
10
45.276548399499376
20
-27.647998564132269
42
-0.15676488591415841
10
44.070157897928681
20
-26.105211765207066
10
40.491039407483157
20
-16.380026145799018
42
-0.16811864406972907
10
40.427213667294623
20
-13.110697735014243
42
0.15809885748259414
10
40.427213667294602
20
13.110697735014242
42
-0.16811864406972918
10
40.491039407483157
20
16.380026145799022
10
44.070157897928681
20
26.105211765207073
42
-0.15676488591415783
10
45.276548399499376
20
27.647998564132269
42
0.40846340978834733
10
45.691924744242925
20
29.706868114401427
42
0.10693353664834351
10
29.327158033166167
20
45.936562798033734
42
0.42252861155981131
10
27.233341513925158
20
45.443317550393715
10
24.281370532537096
20
40.517467572043756
42
-0.38365211504112029
10
17.888068965399281
20
38.552134934891086
42
0.044359462444590964
10
10.807220255970709
20
41.10296871034673
42
0.43775790329820641
10
8.9493302528407064
20
39.916981542188481
10
8.3299827750003139
20
36.462426201609034
42
-0.3891333375547662
10
2.9539927862670572
20
32.36547536374335
42
0.045540281653321239
10
-2.9539913515279896
20
32.365475494691765
42
-0.38913344483844337
10
-8.3299814874977329
20
36.462428405119894
10
-8.9493271156234613
20
39.916981722308037
42
0.43775800479364663
10
-10.807217118405546
20
41.102969535307508
42
0.044359481565710235
10
-17.888068965399274
20
38.552134934891072
42
-0.38365211504112029
10
-24.281370532537096
20
40.517467572043756
10
-27.233341513925147
20
45.443317550393694
42
0.42252861155980415
10
-29.327158033166171
20
45.936562798033727
42
0.10041640979475056
0
CIRCLE
5
110
100
AcDbEntity
8
0
100
AcDbCircle
10
30.313739515625148
20
92.113804525348669
30
0
40
1.6000000000000898
210
0
220
-0
230
1
0
CIRCLE
5
111
100
AcDbEntity
8
0
100
AcDbCircle
10
-30.313739515625148
20
92.113804525348669
30
0
40
1.6000000000000898
210
0
220
-0
230
1
0
CIRCLE
5
112
100
AcDbEntity
8
0
100
AcDbCircle
10
-47.073240806216077
20
-24.999999999999996
30
0
40
1.5999999999999981
210
0
220
0
230
1
0
CIRCLE
5
113
100
AcDbEntity
8
0
100
AcDbCircle
10
47.073240805810386
20
-25.000000000763904
30
0
40
1.6000000000000003
210
0
220
0
230
1
0
ENDSEC
0
SECTION
2
OBJECTS
0
DICTIONARY
5
C
100
AcDbDictionary
3
ACAD_GROUP
350
D
3
ACAD_MLINESTYLE
350
17
0
DICTIONARY
5
D
100
AcDbDictionary
0
DICTIONARY
5
1A
330
C
100
AcDbDictionary
0
DICTIONARY
5
17
100
AcDbDictionary
0
ENDSEC
0
EOF
