<?xml version="1.0" standalone="no"?>
 <!DOCTYPE svg PUBLIC "-//W3C//DTD SVG 1.1//EN" 
 "http://www.w3.org/Graphics/SVG/1.1/DTD/svg11.dtd"> 
<svg
  xmlns:svg="http://www.w3.org/2000/svg"
  xmlns="http://www.w3.org/2000/svg"
  xmlns:xlink="http://www.w3.org/1999/xlink"
  version="1.1"
  width="69.9770mm" height="37.3380mm" viewBox="0.0000 0.0000 69.9770 37.3380">
<title>SVG Image created as UI-20240325-brd.svg date 2024/05/21 18:04:30 </title>
  <desc>Image generated by PCBNEW </desc>
<g style="fill:#000000; fill-opacity:1.0000;stroke:#000000; stroke-opacity:1.0000;
stroke-linecap:round; stroke-linejoin:round;"
 transform="translate(0 0) scale(1 1)">
</g>
<g style="fill:none; 
stroke:#000000; stroke-width:2.0000; stroke-opacity:1; 
stroke-linecap:round; stroke-linejoin:round;">
<path d="M57.2500 17.1982
L57.2500 16.4982
" />
<path d="M50.7500 17.1982
L50.7500 16.4982
" />
<path d="M57.2500 29.1982
L57.2500 28.4982
" />
<path d="M50.7500 29.1982
L50.7500 28.4982
" />
<path d="M57.2500 23.1982
L57.2500 22.4982
" />
<path d="M50.7500 23.1982
L50.7500 22.4982
" />
<path style="fill:#000000; fill-opacity:1.0000; stroke:none;fill-rule:evenodd;"
d="M 30.2900,8.7482
30.2900,6.9482
32.0900,6.9482
32.0900,8.7482
Z" /> 
</g>
<g style="fill:#000000; fill-opacity:1.0000; stroke:none;">
<circle cx="33.7300" cy="7.8482" r="0.9000" /> 
</g>
<g style="fill:#000000; fill-opacity:1.0000; stroke:none;">
<circle cx="36.2700" cy="7.8482" r="0.9000" /> 
</g>
<g style="fill:#000000; fill-opacity:1.0000; stroke:none;">
<circle cx="38.8100" cy="7.8482" r="0.9000" /> 
</g>
<g style="fill:none; 
stroke:#000000; stroke-width:2.0000; stroke-opacity:1; 
stroke-linecap:round; stroke-linejoin:round;">
<path d="M12.7500 28.4982
L12.7500 29.1982
" />
<path d="M19.2500 28.4982
L19.2500 29.1982
" />
<path d="M12.7500 16.4982
L12.7500 17.1982
" />
<path d="M19.2500 16.4982
L19.2500 17.1982
" />
<path style="fill:#000000; fill-opacity:1.0000; stroke:none;fill-rule:evenodd;"
d="M 52.7750,23.5732
52.7902,23.4967
52.8336,23.4318
52.8985,23.3885
52.9750,23.3732
53.3750,23.3732
53.4515,23.3885
53.5164,23.4318
53.5598,23.4967
53.5750,23.5732
53.5750,24.1232
53.5598,24.1998
53.5164,24.2647
53.4515,24.3080
53.3750,24.3232
52.9750,24.3232
52.8985,24.3080
52.8336,24.2647
52.7902,24.1998
52.7750,24.1232
Z" /> 
<path style="fill:#000000; fill-opacity:1.0000; stroke:none;fill-rule:evenodd;"
d="M 54.4250,23.5732
54.4402,23.4967
54.4836,23.4318
54.5485,23.3885
54.6250,23.3732
55.0250,23.3732
55.1015,23.3885
55.1664,23.4318
55.2098,23.4967
55.2250,23.5732
55.2250,24.1232
55.2098,24.1998
55.1664,24.2647
55.1015,24.3080
55.0250,24.3232
54.6250,24.3232
54.5485,24.3080
54.4836,24.2647
54.4402,24.1998
54.4250,24.1232
Z" /> 
<path style="fill:#000000; fill-opacity:1.0000; stroke:none;fill-rule:evenodd;"
d="M 17.2250,18.1232
17.2098,18.1998
17.1664,18.2647
17.1015,18.3080
17.0250,18.3232
16.6250,18.3232
16.5485,18.3080
16.4836,18.2647
16.4402,18.1998
16.4250,18.1232
16.4250,17.5732
16.4402,17.4967
16.4836,17.4318
16.5485,17.3885
16.6250,17.3732
17.0250,17.3732
17.1015,17.3885
17.1664,17.4318
17.2098,17.4967
17.2250,17.5732
Z" /> 
<path style="fill:#000000; fill-opacity:1.0000; stroke:none;fill-rule:evenodd;"
d="M 15.5750,18.1232
15.5598,18.1998
15.5164,18.2647
15.4515,18.3080
15.3750,18.3232
14.9750,18.3232
14.8985,18.3080
14.8336,18.2647
14.7902,18.1998
14.7750,18.1232
14.7750,17.5732
14.7902,17.4967
14.8336,17.4318
14.8985,17.3885
14.9750,17.3732
15.3750,17.3732
15.4515,17.3885
15.5164,17.4318
15.5598,17.4967
15.5750,17.5732
Z" /> 
<path style="fill:#000000; fill-opacity:1.0000; stroke:none;fill-rule:evenodd;"
d="M 17.2250,28.1232
17.2098,28.1998
17.1664,28.2647
17.1015,28.3080
17.0250,28.3232
16.6250,28.3232
16.5485,28.3080
16.4836,28.2647
16.4402,28.1998
16.4250,28.1232
16.4250,27.5732
16.4402,27.4967
16.4836,27.4318
16.5485,27.3885
16.6250,27.3732
17.0250,27.3732
17.1015,27.3885
17.1664,27.4318
17.2098,27.4967
17.2250,27.5732
Z" /> 
<path style="fill:#000000; fill-opacity:1.0000; stroke:none;fill-rule:evenodd;"
d="M 15.5750,28.1232
15.5598,28.1998
15.5164,28.2647
15.4515,28.3080
15.3750,28.3232
14.9750,28.3232
14.8985,28.3080
14.8336,28.2647
14.7902,28.1998
14.7750,28.1232
14.7750,27.5732
14.7902,27.4967
14.8336,27.4318
14.8985,27.3885
14.9750,27.3732
15.3750,27.3732
15.4515,27.3885
15.5164,27.4318
15.5598,27.4967
15.5750,27.5732
Z" /> 
<path style="fill:#000000; fill-opacity:1.0000; stroke:none;fill-rule:evenodd;"
d="M 52.7750,21.5732
52.7902,21.4967
52.8336,21.4318
52.8985,21.3885
52.9750,21.3732
53.3750,21.3732
53.4515,21.3885
53.5164,21.4318
53.5598,21.4967
53.5750,21.5732
53.5750,22.1232
53.5598,22.1998
53.5164,22.2647
53.4515,22.3080
53.3750,22.3232
52.9750,22.3232
52.8985,22.3080
52.8336,22.2647
52.7902,22.1998
52.7750,22.1232
Z" /> 
<path style="fill:#000000; fill-opacity:1.0000; stroke:none;fill-rule:evenodd;"
d="M 54.4250,21.5732
54.4402,21.4967
54.4836,21.4318
54.5485,21.3885
54.6250,21.3732
55.0250,21.3732
55.1015,21.3885
55.1664,21.4318
55.2098,21.4967
55.2250,21.5732
55.2250,22.1232
55.2098,22.1998
55.1664,22.2647
55.1015,22.3080
55.0250,22.3232
54.6250,22.3232
54.5485,22.3080
54.4836,22.2647
54.4402,22.1998
54.4250,22.1232
Z" /> 
<path style="fill:#000000; fill-opacity:1.0000; stroke:none;fill-rule:evenodd;"
d="M 52.7750,17.5732
52.7902,17.4967
52.8336,17.4318
52.8985,17.3885
52.9750,17.3732
53.3750,17.3732
53.4515,17.3885
53.5164,17.4318
53.5598,17.4967
53.5750,17.5732
53.5750,18.1232
53.5598,18.1998
53.5164,18.2647
53.4515,18.3080
53.3750,18.3232
52.9750,18.3232
52.8985,18.3080
52.8336,18.2647
52.7902,18.1998
52.7750,18.1232
Z" /> 
<path style="fill:#000000; fill-opacity:1.0000; stroke:none;fill-rule:evenodd;"
d="M 54.4250,17.5732
54.4402,17.4967
54.4836,17.4318
54.5485,17.3885
54.6250,17.3732
55.0250,17.3732
55.1015,17.3885
55.1664,17.4318
55.2098,17.4967
55.2250,17.5732
55.2250,18.1232
55.2098,18.1998
55.1664,18.2647
55.1015,18.3080
55.0250,18.3232
54.6250,18.3232
54.5485,18.3080
54.4836,18.2647
54.4402,18.1998
54.4250,18.1232
Z" /> 
<path style="fill:#000000; fill-opacity:1.0000; stroke:none;fill-rule:evenodd;"
d="M 52.7750,29.5732
52.7902,29.4967
52.8336,29.4318
52.8985,29.3885
52.9750,29.3732
53.3750,29.3732
53.4515,29.3885
53.5164,29.4318
53.5598,29.4967
53.5750,29.5732
53.5750,30.1232
53.5598,30.1998
53.5164,30.2647
53.4515,30.3080
53.3750,30.3232
52.9750,30.3232
52.8985,30.3080
52.8336,30.2647
52.7902,30.1998
52.7750,30.1232
Z" /> 
<path style="fill:#000000; fill-opacity:1.0000; stroke:none;fill-rule:evenodd;"
d="M 54.4250,29.5732
54.4402,29.4967
54.4836,29.4318
54.5485,29.3885
54.6250,29.3732
55.0250,29.3732
55.1015,29.3885
55.1664,29.4318
55.2098,29.4967
55.2250,29.5732
55.2250,30.1232
55.2098,30.1998
55.1664,30.2647
55.1015,30.3080
55.0250,30.3232
54.6250,30.3232
54.5485,30.3080
54.4836,30.2647
54.4402,30.1998
54.4250,30.1232
Z" /> 
<path style="fill:#000000; fill-opacity:1.0000; stroke:none;fill-rule:evenodd;"
d="M 17.2250,16.1232
17.2098,16.1998
17.1664,16.2647
17.1015,16.3080
17.0250,16.3232
16.6250,16.3232
16.5485,16.3080
16.4836,16.2647
16.4402,16.1998
16.4250,16.1232
16.4250,15.5732
16.4402,15.4967
16.4836,15.4318
16.5485,15.3885
16.6250,15.3732
17.0250,15.3732
17.1015,15.3885
17.1664,15.4318
17.2098,15.4967
17.2250,15.5732
Z" /> 
<path style="fill:#000000; fill-opacity:1.0000; stroke:none;fill-rule:evenodd;"
d="M 15.5750,16.1232
15.5598,16.1998
15.5164,16.2647
15.4515,16.3080
15.3750,16.3232
14.9750,16.3232
14.8985,16.3080
14.8336,16.2647
14.7902,16.1998
14.7750,16.1232
14.7750,15.5732
14.7902,15.4967
14.8336,15.4318
14.8985,15.3885
14.9750,15.3732
15.3750,15.3732
15.4515,15.3885
15.5164,15.4318
15.5598,15.4967
15.5750,15.5732
Z" /> 
<path style="fill:#000000; fill-opacity:1.0000; stroke:none;fill-rule:evenodd;"
d="M 52.7750,27.5732
52.7902,27.4967
52.8336,27.4318
52.8985,27.3885
52.9750,27.3732
53.3750,27.3732
53.4515,27.3885
53.5164,27.4318
53.5598,27.4967
53.5750,27.5732
53.5750,28.1232
53.5598,28.1998
53.5164,28.2647
53.4515,28.3080
53.3750,28.3232
52.9750,28.3232
52.8985,28.3080
52.8336,28.2647
52.7902,28.1998
52.7750,28.1232
Z" /> 
<path style="fill:#000000; fill-opacity:1.0000; stroke:none;fill-rule:evenodd;"
d="M 54.4250,27.5732
54.4402,27.4967
54.4836,27.4318
54.5485,27.3885
54.6250,27.3732
55.0250,27.3732
55.1015,27.3885
55.1664,27.4318
55.2098,27.4967
55.2250,27.5732
55.2250,28.1232
55.2098,28.1998
55.1664,28.2647
55.1015,28.3080
55.0250,28.3232
54.6250,28.3232
54.5485,28.3080
54.4836,28.2647
54.4402,28.1998
54.4250,28.1232
Z" /> 
<path style="fill:#000000; fill-opacity:1.0000; stroke:none;fill-rule:evenodd;"
d="M 52.7750,15.5732
52.7902,15.4967
52.8336,15.4318
52.8985,15.3885
52.9750,15.3732
53.3750,15.3732
53.4515,15.3885
53.5164,15.4318
53.5598,15.4967
53.5750,15.5732
53.5750,16.1232
53.5598,16.1998
53.5164,16.2647
53.4515,16.3080
53.3750,16.3232
52.9750,16.3232
52.8985,16.3080
52.8336,16.2647
52.7902,16.1998
52.7750,16.1232
Z" /> 
<path style="fill:#000000; fill-opacity:1.0000; stroke:none;fill-rule:evenodd;"
d="M 54.4250,15.5732
54.4402,15.4967
54.4836,15.4318
54.5485,15.3885
54.6250,15.3732
55.0250,15.3732
55.1015,15.3885
55.1664,15.4318
55.2098,15.4967
55.2250,15.5732
55.2250,16.1232
55.2098,16.1998
55.1664,16.2647
55.1015,16.3080
55.0250,16.3232
54.6250,16.3232
54.5485,16.3080
54.4836,16.2647
54.4402,16.1998
54.4250,16.1232
Z" /> 
<path style="fill:#000000; fill-opacity:1.0000; stroke:none;fill-rule:evenodd;"
d="M 17.2250,30.1232
17.2098,30.1998
17.1664,30.2647
17.1015,30.3080
17.0250,30.3232
16.6250,30.3232
16.5485,30.3080
16.4836,30.2647
16.4402,30.1998
16.4250,30.1232
16.4250,29.5732
16.4402,29.4967
16.4836,29.4318
16.5485,29.3885
16.6250,29.3732
17.0250,29.3732
17.1015,29.3885
17.1664,29.4318
17.2098,29.4967
17.2250,29.5732
Z" /> 
<path style="fill:#000000; fill-opacity:1.0000; stroke:none;fill-rule:evenodd;"
d="M 15.5750,30.1232
15.5598,30.1998
15.5164,30.2647
15.4515,30.3080
15.3750,30.3232
14.9750,30.3232
14.8985,30.3080
14.8336,30.2647
14.7902,30.1998
14.7750,30.1232
14.7750,29.5732
14.7902,29.4967
14.8336,29.4318
14.8985,29.3885
14.9750,29.3732
15.3750,29.3732
15.4515,29.3885
15.5164,29.4318
15.5598,29.4967
15.5750,29.5732
Z" /> 
<path style="fill:#000000; fill-opacity:1.0000; stroke:none;fill-rule:evenodd;"
d="M 47.1000,14.0482
47.0810,14.1439
47.0268,14.2250
46.9457,14.2792
46.8500,14.2982
45.6500,14.2982
45.5543,14.2792
45.4732,14.2250
45.4190,14.1439
45.4000,14.0482
45.4000,12.5983
45.4190,12.5026
45.4732,12.4215
45.5543,12.3673
45.6500,12.3483
46.8500,12.3483
46.9457,12.3673
47.0268,12.4215
47.0810,12.5026
47.1000,12.5983
Z" /> 
</g>
<g style="fill:none; 
stroke:#000000; stroke-width:1.7000; stroke-opacity:1; 
stroke-linecap:round; stroke-linejoin:round;">
<path d="M43.7500 13.4482
L43.7500 13.1982
" />
<path d="M41.2500 13.4482
L41.2500 13.1982
" />
<path d="M38.7500 13.4482
L38.7500 13.1982
" />
<path d="M36.2500 13.4482
L36.2500 13.1982
" />
<path d="M33.7500 13.4482
L33.7500 13.1982
" />
<path d="M31.2500 13.4482
L31.2500 13.1982
" />
<path d="M28.7500 13.4482
L28.7500 13.1982
" />
<path d="M26.2500 13.4482
L26.2500 13.1982
" />
<path d="M23.7500 13.4482
L23.7500 13.1982
" />
</g>
<g style="fill:#000000; fill-opacity:1.0000; stroke:none;">
<circle cx="37.5000" cy="24.8483" r="0.7500" /> 
</g>
<g style="fill:#000000; fill-opacity:1.0000; stroke:none;">
<circle cx="32.5000" cy="24.8483" r="0.7500" /> 
</g>
<g style="fill:none; 
stroke:#000000; stroke-width:0.5000; stroke-opacity:1; 
stroke-linecap:round; stroke-linejoin:round;">
<path d="M35.2750 24.8483
L37.5000 24.8483
" />
<path d="M23.7500 13.3232
L35.2750 24.8483
" />
<path d="M52.3750 15.0482
L37.9750 15.0482
" />
<path d="M37.9750 15.0482
L36.2500 13.3232
" />
<path d="M53.1750 15.8483
L52.3750 15.0482
" />
<path d="M22.4500 22.2233
L22.4500 12.6598
" />
<path d="M23.2115 11.8982
L37.3250 11.8982
" />
<path d="M37.3250 11.8982
L38.7500 13.3232
" />
<path d="M16.8250 27.8483
L22.4500 22.2233
" />
<path d="M22.4500 12.6598
L23.2115 11.8982
" />
<path d="M16.8250 15.8483
L21.4750 11.1982
" />
<path d="M39.1250 11.1982
L41.2500 13.3232
" />
<path d="M21.4750 11.1982
L39.1250 11.1982
" />
<path d="M53.1750 27.8483
L41.7750 16.4482
" />
<path d="M41.7750 16.4482
L34.3750 16.4482
" />
<path d="M34.3750 16.4482
L31.2500 13.3232
" />
</g>
<g style="fill:none; 
stroke:#000000; stroke-width:1.5000; stroke-opacity:1; 
stroke-linecap:round; stroke-linejoin:round;">
<path d="M46.2500 13.1527
L46.2500 13.3232
" />
<path d="M33.7300 7.8482
L33.7300 7.9245
" />
<path d="M42.9456 9.8483
L46.2500 13.1527
" />
<path d="M35.6537 9.8483
L42.9456 9.8483
" />
<path d="M33.7300 7.9245
L35.6537 9.8483
" />
</g>
<g style="fill:none; 
stroke:#000000; stroke-width:0.5000; stroke-opacity:1; 
stroke-linecap:round; stroke-linejoin:round;">
<path d="M33.7500 13.3232
L36.1750 15.7482
" />
<path d="M36.1750 15.7482
L47.0750 15.7482
" />
<path d="M47.0750 15.7482
L53.1750 21.8483
" />
<path d="M15.1750 17.8483
L13.7500 17.8483
" />
<path d="M13.7500 17.8483
L12.7500 16.8483
" />
<path d="M13.7500 15.8483
L12.7500 16.8483
" />
<path d="M15.1750 15.8483
L13.7500 15.8483
" />
<path d="M13.7500 29.8483
L12.7500 28.8483
" />
<path d="M15.1750 27.8483
L13.7500 27.8483
" />
<path d="M15.1750 29.8483
L13.7500 29.8483
" />
<path d="M13.7500 27.8483
L12.7500 28.8483
" />
<path d="M54.8250 15.8483
L56.2500 15.8483
" />
<path d="M56.2500 15.8483
L57.2500 16.8483
" />
<path d="M54.8250 17.8483
L56.2500 17.8483
" />
<path d="M56.2500 17.8483
L57.2500 16.8483
" />
<path d="M56.2500 23.8483
L57.2500 22.8483
" />
<path d="M54.8250 23.8483
L56.2500 23.8483
" />
<path d="M54.8250 21.8483
L56.2500 21.8483
" />
<path d="M56.2500 21.8483
L57.2500 22.8483
" />
<path d="M56.2500 29.8483
L57.2500 28.8483
" />
<path d="M54.8250 27.8483
L56.2500 27.8483
" />
<path d="M54.8250 29.8483
L56.2500 29.8483
" />
<path d="M56.2500 27.8483
L57.2500 28.8483
" />
<path style="fill:#000000; fill-opacity:1.0000; stroke:none;fill-rule:evenodd;"
d="M 42.4433,11.1184
42.4639,11.1351
44.8632,13.5343
44.8967,13.5956
44.8995,13.6220
44.8995,14.0983
44.8995,14.0983
44.9059,14.1611
44.8932,14.2298
44.8453,14.2807
44.7826,14.2977
42.5352,14.2977
42.4682,14.2781
42.4224,14.2253
42.4125,14.1561
42.4247,14.1175
42.4345,14.0983
42.5016,13.9667
42.5672,13.7645
42.6005,13.5545
42.6005,13.0920
42.5672,12.8820
42.5016,12.6798
42.4051,12.4904
42.4050,12.4904
42.4050,12.4904
42.2801,12.3185
42.1298,12.1681
41.9578,12.0432
41.7684,11.9467
41.7684,11.9467
41.7684,11.9467
41.5662,11.8810
41.5662,11.8810
41.5662,11.8810
41.4050,11.8555
41.3563,11.8477
41.1437,11.8477
40.9404,11.8800
40.8711,11.8710
40.8333,11.8452
40.2985,11.3104
40.2651,11.2491
40.2700,11.1794
40.3119,11.1235
40.3774,11.0991
40.3862,11.0987
42.3762,11.0987
Z" /> 
<path style="fill:#000000; fill-opacity:1.0000; stroke:none;fill-rule:evenodd;"
d="M 64.5609,4.1083
64.5649,4.1083
64.7335,4.1107
64.7456,4.1115
65.0714,4.1482
65.0895,4.1502
65.1032,4.1525
65.2050,4.1758
65.4398,4.2293
65.4531,4.2332
65.7790,4.3472
65.7918,4.3525
66.1028,4.5023
66.1150,4.5090
66.4073,4.6927
66.4186,4.7007
66.6885,4.9160
66.6989,4.9252
66.9430,5.1693
66.9523,5.1797
67.1675,5.4496
67.1756,5.4609
67.3592,5.7532
67.3659,5.7654
67.5157,6.0764
67.5210,6.0893
67.6351,6.4151
67.6389,6.4285
67.7157,6.7650
67.7180,6.7787
67.7567,7.1218
67.7575,7.1356
67.7575,7.4809
67.7567,7.4947
67.7180,7.8378
67.7157,7.8515
67.6389,8.1880
67.6351,8.2014
67.5210,8.5272
67.5157,8.5401
67.3659,8.8511
67.3592,8.8633
67.1756,9.1556
67.1675,9.1669
66.9523,9.4368
66.9430,9.4472
66.6989,9.6913
66.6885,9.7005
66.4186,9.9158
66.4073,9.9238
66.1150,10.1075
66.1028,10.1142
65.7918,10.2640
65.7790,10.2693
65.4531,10.3833
65.4398,10.3872
65.1032,10.4640
65.0895,10.4663
64.7456,10.5050
64.7335,10.5058
64.5609,10.5082
64.5591,10.5083
63.8600,10.5083
63.6963,10.5108
63.6963,10.5108
63.6963,10.5108
63.3717,10.5535
63.3717,10.5535
63.1413,10.6153
63.0555,10.6383
63.0555,10.6383
63.0555,10.6383
63.0555,10.6383
62.7531,10.7636
62.7530,10.7636
62.4695,10.9272
62.2098,11.1265
62.2098,11.1266
61.9783,11.3580
61.7790,11.6178
61.7790,11.6178
61.6153,11.9013
61.6153,11.9013
61.4900,12.2037
61.4900,12.2038
61.4132,12.4904
61.4053,12.5200
61.4053,12.5200
61.3626,12.8446
61.3626,12.8446
61.3600,13.0083
61.3600,29.2516
61.3600,29.2536
61.3575,29.4096
61.3565,29.4239
61.3155,29.7342
61.3123,29.7502
61.2313,30.0515
61.2261,30.0669
61.1064,30.3550
61.0992,30.3696
61.0343,30.4816
60.9427,30.6396
60.9337,30.6531
60.7433,30.9003
60.7325,30.9125
60.5114,31.1326
60.4991,31.1433
60.2511,31.3326
60.2376,31.3416
59.9669,31.4968
59.9523,31.5040
59.6627,31.6228
59.6491,31.6274
59.4991,31.6695
59.4969,31.6701
58.5403,31.9200
58.5381,31.9205
56.6143,32.3860
56.6118,32.3866
54.6789,32.8122
54.6764,32.8128
52.7351,33.1984
52.7326,33.1989
50.7838,33.5444
50.7813,33.5448
48.8257,33.8500
48.8231,33.8504
46.8618,34.1152
46.8592,34.1155
44.8927,34.3397
44.8902,34.3400
42.9195,34.5236
42.9170,34.5238
40.9429,34.6667
40.9404,34.6668
38.9638,34.7689
38.9612,34.7690
36.9829,34.8303
36.9803,34.8304
35.0013,34.8508
34.9987,34.8508
33.0196,34.8304
33.0171,34.8303
31.0388,34.7690
31.0362,34.7689
29.0596,34.6668
29.0571,34.6667
27.0830,34.5238
27.0805,34.5236
25.1098,34.3400
25.1073,34.3397
23.1408,34.1155
23.1382,34.1152
21.1769,33.8504
21.1743,33.8500
19.2187,33.5448
19.2162,33.5444
17.2674,33.1989
17.2649,33.1984
15.3236,32.8128
15.3211,32.8122
13.3882,32.3866
13.3857,32.3860
11.4619,31.9205
11.4597,31.9200
10.5031,31.6701
10.5009,31.6695
10.3509,31.6274
10.3373,31.6227
10.0477,31.5039
10.0331,31.4968
9.7625,31.3416
9.7489,31.3326
9.5009,31.1433
9.4886,31.1326
9.2675,30.9124
9.2567,30.9002
9.1929,30.8173
9.0663,30.6530
9.0573,30.6395
8.9008,30.3695
8.8936,30.3550
8.7739,30.0668
8.7687,30.0514
8.7507,29.9847
8.6877,29.7501
8.6845,29.7341
8.6435,29.4238
8.6425,29.4095
8.6410,29.3163
11.2495,29.3163
11.2864,29.5496
11.3594,29.7742
11.4667,29.9847
11.6055,30.1758
11.7725,30.3428
11.9636,30.4816
12.0616,30.5315
12.1740,30.5888
12.1740,30.5888
12.1740,30.5888
12.2944,30.6279
12.3986,30.6618
12.6319,30.6987
12.6319,30.6987
12.8681,30.6987
13.1014,30.6618
13.3260,30.5888
13.3875,30.5575
13.4562,30.5446
13.4912,30.5534
13.5311,30.5699
13.6472,30.5930
13.6665,30.5968
13.6761,30.5987
13.6761,30.5987
13.6761,30.5987
13.8239,30.5987
14.4085,30.5987
14.4755,30.6184
14.4962,30.6351
14.5398,30.6787
14.5398,30.6787
14.5398,30.6787
14.5398,30.6787
14.6854,30.7667
14.8478,30.8173
14.9184,30.8237
14.9184,30.8237
15.4316,30.8237
15.4316,30.8237
15.5022,30.8173
15.6646,30.7667
15.8102,30.6787
15.9305,30.5584
16.0185,30.4129
16.0691,30.2504
16.0755,30.1799
16.0755,29.5166
16.0691,29.4461
16.0185,29.2836
15.9305,29.1381
15.9305,29.1381
15.9305,29.1381
15.8102,29.0178
15.8102,29.0178
15.7053,28.9544
15.6581,28.9028
15.6463,28.8340
15.6735,28.7697
15.7053,28.7421
15.8102,28.6787
15.8538,28.6351
15.9123,28.5766
15.9736,28.5431
16.0433,28.5481
16.0877,28.5766
16.1898,28.6787
16.1898,28.6787
16.1898,28.6787
16.3354,28.7667
16.4978,28.8173
16.5684,28.8238
16.5684,28.8238
17.0816,28.8238
17.0816,28.8238
17.1522,28.8173
17.3146,28.7667
17.4602,28.6787
17.4832,28.6557
17.5378,28.6011
17.5991,28.5676
17.6688,28.5726
17.7248,28.6145
17.7492,28.6799
17.7495,28.6888
17.7495,29.3163
17.7864,29.5496
17.8594,29.7742
17.9667,29.9847
18.1055,30.1758
18.2725,30.3428
18.4636,30.4816
18.5616,30.5315
18.6740,30.5888
18.6740,30.5888
18.6740,30.5888
18.7944,30.6279
18.8986,30.6618
19.1319,30.6987
19.1319,30.6987
19.3681,30.6987
19.6014,30.6618
19.6284,30.6530
19.8260,30.5888
20.0364,30.4816
20.2275,30.3428
20.3945,30.1758
20.5333,29.9847
20.6406,29.7742
20.7136,29.5496
20.7188,29.5166
20.7505,29.3163
20.7505,28.3802
20.7136,28.1469
20.6406,27.9223
20.5333,27.7118
20.3945,27.5207
20.2275,27.3537
20.0364,27.2149
19.8260,27.1077
19.6014,27.0347
19.3681,26.9977
19.3681,26.9977
19.1319,26.9977
19.0395,27.0124
18.9702,27.0034
18.9167,26.9584
18.8961,26.8917
18.9148,26.8244
18.9324,26.8022
23.0330,22.7017
23.1151,22.5787
23.1717,22.4422
23.2005,22.2972
23.2005,22.1493
23.2005,14.8604
23.2202,14.7933
23.2730,14.7476
23.3421,14.7376
23.3628,14.7424
23.4338,14.7655
23.6437,14.7988
23.6437,14.7988
23.8563,14.7988
23.8563,14.7988
24.0596,14.7665
24.1289,14.7755
24.1667,14.8013
34.7966,25.4312
34.7966,25.4312
34.9195,25.5133
34.9195,25.5133
35.0561,25.5699
35.0561,25.5699
35.0561,25.5699
35.0561,25.5699
35.2011,25.5987
35.2011,25.5987
35.3489,25.5987
36.4344,25.5987
36.5014,25.6184
36.5359,25.6516
36.5384,25.6551
36.6931,25.8098
36.8724,25.9354
37.0707,26.0278
37.2820,26.0845
37.4649,26.1005
37.5000,26.1035
37.5000,26.1035
37.5000,26.1035
37.5283,26.1011
37.7180,26.0845
37.9293,26.0278
38.1276,25.9354
38.3069,25.8098
38.4616,25.6551
38.5871,25.4759
38.6796,25.2776
38.7362,25.0662
38.7553,24.8483
38.7526,24.8173
38.7472,24.7562
38.7362,24.6303
38.6796,24.4189
38.5871,24.2206
38.5871,24.2206
38.5871,24.2206
38.4616,24.0414
38.4049,23.9847
38.3069,23.8867
38.1276,23.7611
38.1276,23.7611
38.1276,23.7611
38.0285,23.7149
37.9293,23.6687
37.9293,23.6687
37.9293,23.6687
37.7180,23.6120
37.5000,23.5930
37.5000,23.5930
37.3547,23.6057
37.2820,23.6120
37.2820,23.6120
37.0707,23.6687
37.0707,23.6687
36.8724,23.7611
36.8724,23.7612
36.6931,23.8867
36.5384,24.0414
36.5360,24.0449
36.4814,24.0885
36.4344,24.0977
35.6372,24.0977
35.5702,24.0781
35.5495,24.0614
26.4684,14.9803
26.4350,14.9190
26.4399,14.8493
26.4818,14.7934
26.5367,14.7702
26.5662,14.7655
26.5662,14.7655
26.5662,14.7655
26.7684,14.6998
26.9578,14.6033
26.9798,14.5873
27.1298,14.4784
27.1298,14.4784
27.1298,14.4784
27.2801,14.3280
27.3997,14.1635
27.4550,14.1208
27.5246,14.1148
27.5864,14.1474
27.6003,14.1634
27.6836,14.2781
27.7199,14.3280
27.8702,14.4784
28.0422,14.6033
28.0422,14.6033
28.0422,14.6033
28.2316,14.6998
28.4338,14.7655
28.6437,14.7988
28.6437,14.7988
28.8563,14.7988
28.8563,14.7988
29.0662,14.7655
29.2684,14.6998
29.4578,14.6033
29.4798,14.5873
29.6298,14.4784
29.6298,14.4784
29.6298,14.4784
29.7801,14.3280
29.8997,14.1635
29.9550,14.1208
30.0246,14.1148
30.0864,14.1474
30.1003,14.1634
30.1836,14.2781
30.2199,14.3280
30.3702,14.4784
30.5422,14.6033
30.5422,14.6033
30.5422,14.6033
30.7316,14.6998
30.9338,14.7655
31.1437,14.7988
31.1437,14.7988
31.3563,14.7988
31.3563,14.7988
31.5596,14.7665
31.6289,14.7755
31.6667,14.8013
33.8966,17.0312
33.8966,17.0312
34.0195,17.1133
34.0195,17.1133
34.1561,17.1699
34.1561,17.1699
34.1561,17.1699
34.1561,17.1699
34.3011,17.1988
34.3011,17.1988
34.4489,17.1988
41.4128,17.1988
41.4798,17.2184
41.5005,17.2351
46.4147,22.1493
51.0676,26.8022
51.1011,26.8636
51.0961,26.9333
51.0542,26.9892
50.9888,27.0136
50.9605,27.0124
50.8681,26.9977
50.8681,26.9977
50.6319,26.9977
50.6319,26.9977
50.3986,27.0347
50.1740,27.1077
49.9636,27.2149
49.8545,27.2941
49.7725,27.3537
49.7725,27.3537
49.7725,27.3537
49.6055,27.5207
49.6055,27.5207
49.6055,27.5207
49.5459,27.6028
49.4667,27.7118
49.3594,27.9223
49.2864,28.1469
49.2495,28.3802
49.2495,29.3163
49.2864,29.5496
49.3594,29.7742
49.4667,29.9847
49.6055,30.1758
49.7725,30.3428
49.9636,30.4816
50.0616,30.5315
50.1740,30.5888
50.1740,30.5888
50.1740,30.5888
50.2944,30.6279
50.3986,30.6618
50.6319,30.6987
50.6319,30.6987
50.8681,30.6987
51.1014,30.6618
51.1284,30.6530
51.3260,30.5888
51.5364,30.4816
51.7275,30.3428
51.8945,30.1758
52.0333,29.9847
52.1406,29.7742
52.2136,29.5496
52.2188,29.5166
52.2505,29.3163
52.2505,28.6888
52.2702,28.6217
52.3230,28.5760
52.3921,28.5660
52.4557,28.5951
52.4622,28.6011
52.5398,28.6787
52.5398,28.6787
52.5398,28.6787
52.6854,28.7667
52.8478,28.8173
52.9184,28.8238
52.9184,28.8238
53.4316,28.8238
53.4316,28.8238
53.5022,28.8173
53.6646,28.7667
53.8102,28.6787
53.8538,28.6351
53.9123,28.5766
53.9736,28.5431
54.0433,28.5481
54.0877,28.5766
54.1898,28.6787
54.1898,28.6787
54.1898,28.6787
54.2386,28.7082
54.2947,28.7421
54.3419,28.7937
54.3537,28.8625
54.3265,28.9268
54.2947,28.9544
54.1898,29.0178
54.1898,29.0178
54.0695,29.1381
53.9815,29.2836
53.9309,29.4461
53.9245,29.5166
53.9245,30.1799
53.9309,30.2504
53.9309,30.2504
53.9309,30.2504
53.9815,30.4129
54.0620,30.5459
54.0695,30.5584
54.1898,30.6787
54.1898,30.6787
54.1898,30.6787
54.3354,30.7667
54.4978,30.8173
54.5684,30.8237
54.5684,30.8237
55.0816,30.8237
55.0816,30.8237
55.1522,30.8173
55.3146,30.7667
55.4602,30.6787
55.5038,30.6351
55.5652,30.6016
55.5915,30.5987
56.3239,30.5987
56.4215,30.5793
56.4689,30.5699
56.5088,30.5534
56.5782,30.5459
56.6125,30.5575
56.6740,30.5888
56.6740,30.5888
56.6740,30.5888
56.7944,30.6279
56.8986,30.6618
57.1319,30.6987
57.1319,30.6987
57.3681,30.6987
57.6014,30.6618
57.6284,30.6530
57.8260,30.5888
58.0364,30.4816
58.2275,30.3428
58.3945,30.1758
58.5333,29.9847
58.6406,29.7742
58.7136,29.5496
58.7188,29.5166
58.7505,29.3163
58.7505,28.3802
58.7136,28.1469
58.6406,27.9223
58.5333,27.7118
58.3945,27.5207
58.2275,27.3537
58.0364,27.2149
57.8260,27.1077
57.6014,27.0347
57.3681,26.9977
57.3681,26.9977
57.1319,26.9977
57.1319,26.9977
56.8986,27.0347
56.8986,27.0347
56.6740,27.1077
56.6125,27.1390
56.5438,27.1519
56.5088,27.1431
56.4689,27.1266
56.4689,27.1266
56.3239,27.0977
56.3239,27.0977
55.5915,27.0977
55.5245,27.0781
55.5038,27.0614
55.4602,27.0178
55.4602,27.0178
55.4513,27.0124
55.3146,26.9298
55.1522,26.8792
55.1522,26.8792
55.1522,26.8792
55.1028,26.8747
55.0816,26.8727
54.5684,26.8727
54.5491,26.8745
54.4978,26.8792
54.3354,26.9298
54.1898,27.0178
54.1898,27.0178
54.0877,27.1199
54.0264,27.1534
53.9567,27.1484
53.9123,27.1199
53.8102,27.0178
53.8013,27.0124
53.6646,26.9298
53.5022,26.8792
53.5022,26.8792
53.5022,26.8792
53.4528,26.8747
53.4316,26.8727
53.4316,26.8727
53.3122,26.8727
53.2452,26.8531
53.2245,26.8364
51.2056,24.8175
51.1721,24.7562
51.1771,24.6865
51.2190,24.6306
51.2550,24.6119
51.3260,24.5888
51.5364,24.4816
51.7275,24.3428
51.8945,24.1758
52.0333,23.9847
52.1406,23.7742
52.2136,23.5496
52.2188,23.5166
52.2505,23.3163
52.2505,22.6888
52.2702,22.6217
52.3230,22.5760
52.3921,22.5660
52.4557,22.5951
52.4622,22.6011
52.5398,22.6787
52.5398,22.6787
52.5398,22.6787
52.6854,22.7667
52.8478,22.8173
52.9184,22.8238
52.9184,22.8238
53.4316,22.8238
53.4316,22.8238
53.5022,22.8173
53.6646,22.7667
53.8102,22.6787
53.8598,22.6291
53.9123,22.5766
53.9736,22.5431
54.0433,22.5481
54.0877,22.5766
54.1898,22.6787
54.1898,22.6787
54.1898,22.6787
54.2278,22.7017
54.2947,22.7421
54.3419,22.7937
54.3537,22.8625
54.3265,22.9268
54.2947,22.9544
54.1898,23.0178
54.1898,23.0178
54.0695,23.1381
53.9815,23.2836
53.9309,23.4461
53.9245,23.5166
53.9245,24.1799
53.9309,24.2504
53.9309,24.2504
53.9309,24.2504
53.9815,24.4129
54.0620,24.5459
54.0695,24.5584
54.1898,24.6787
54.1898,24.6787
54.1898,24.6787
54.3354,24.7667
54.4978,24.8173
54.5684,24.8238
54.5684,24.8238
55.0816,24.8238
55.0816,24.8238
55.1522,24.8173
55.3146,24.7667
55.4602,24.6787
55.5038,24.6351
55.5652,24.6016
55.5915,24.5987
56.3239,24.5987
56.4215,24.5793
56.4689,24.5699
56.5088,24.5534
56.5782,24.5459
56.6125,24.5575
56.6740,24.5888
56.6740,24.5888
56.6740,24.5888
56.7944,24.6279
56.8986,24.6618
57.1319,24.6988
57.1319,24.6988
57.3681,24.6988
57.6014,24.6618
57.6836,24.6351
57.8260,24.5888
58.0364,24.4816
58.2275,24.3428
58.3945,24.1758
58.5333,23.9847
58.6406,23.7742
58.7136,23.5496
58.7188,23.5166
58.7505,23.3163
58.7505,22.3802
58.7136,22.1469
58.6406,21.9223
58.5333,21.7118
58.3945,21.5207
58.2275,21.3537
58.0364,21.2149
57.8260,21.1077
57.6014,21.0347
57.3681,20.9977
57.3681,20.9977
57.1319,20.9977
57.1319,20.9977
56.8986,21.0347
56.8986,21.0347
56.6740,21.1077
56.6125,21.1390
56.5438,21.1519
56.5088,21.1431
56.4689,21.1266
56.4689,21.1266
56.3239,21.0977
56.3239,21.0977
55.5915,21.0977
55.5245,21.0781
55.5038,21.0614
55.4602,21.0178
55.4602,21.0178
55.4129,20.9892
55.3146,20.9298
55.1522,20.8792
55.1522,20.8792
55.1522,20.8792
55.1028,20.8747
55.0816,20.8727
54.5684,20.8727
54.5491,20.8745
54.4978,20.8792
54.3354,20.9298
54.1898,21.0178
54.1898,21.0178
54.0877,21.1199
54.0264,21.1534
53.9567,21.1484
53.9123,21.1199
53.8102,21.0178
53.7629,20.9892
53.6646,20.9298
53.5022,20.8792
53.5022,20.8792
53.5022,20.8792
53.4528,20.8747
53.4316,20.8727
53.4316,20.8727
53.3122,20.8727
53.2452,20.8531
53.2245,20.8364
51.2056,18.8175
51.1721,18.7562
51.1771,18.6865
51.2190,18.6306
51.2550,18.6119
51.3260,18.5888
51.5364,18.4816
51.7275,18.3428
51.8945,18.1758
52.0333,17.9847
52.1406,17.7742
52.2136,17.5496
52.2188,17.5166
52.2505,17.3163
52.2505,16.6888
52.2702,16.6217
52.3230,16.5760
52.3921,16.5660
52.4557,16.5951
52.4622,16.6011
52.5398,16.6787
52.5398,16.6787
52.5398,16.6787
52.6854,16.7667
52.8478,16.8173
52.9184,16.8238
52.9184,16.8238
53.4316,16.8238
53.4316,16.8238
53.5022,16.8173
53.6646,16.7667
53.8102,16.6787
53.8598,16.6291
53.9123,16.5766
53.9736,16.5431
54.0433,16.5481
54.0877,16.5766
54.1898,16.6787
54.1898,16.6787
54.1898,16.6787
54.2386,16.7082
54.2947,16.7421
54.3419,16.7937
54.3537,16.8625
54.3265,16.9268
54.2947,16.9544
54.1898,17.0178
54.1898,17.0178
54.0695,17.1381
53.9815,17.2836
53.9309,17.4461
53.9245,17.5166
53.9245,18.1799
53.9309,18.2504
53.9309,18.2504
53.9309,18.2504
53.9815,18.4129
54.0620,18.5459
54.0695,18.5584
54.1898,18.6787
54.1898,18.6787
54.1898,18.6787
54.3354,18.7667
54.4978,18.8173
54.5684,18.8238
54.5684,18.8238
55.0816,18.8238
55.0816,18.8238
55.1522,18.8173
55.3146,18.7667
55.4602,18.6787
55.5038,18.6351
55.5652,18.6016
55.5915,18.5987
56.3239,18.5987
56.4215,18.5793
56.4689,18.5699
56.5088,18.5534
56.5782,18.5459
56.6125,18.5575
56.6740,18.5888
56.6740,18.5888
56.6740,18.5888
56.7944,18.6279
56.8986,18.6618
57.1319,18.6988
57.1319,18.6988
57.3681,18.6988
57.6014,18.6618
57.6836,18.6351
57.8260,18.5888
58.0364,18.4816
58.2275,18.3428
58.3945,18.1758
58.5333,17.9847
58.6406,17.7742
58.7136,17.5496
58.7188,17.5166
58.7505,17.3163
58.7505,16.3802
58.7136,16.1469
58.6493,15.9491
58.6406,15.9223
58.6406,15.9223
58.6406,15.9223
58.5778,15.7991
58.5333,15.7118
58.3945,15.5207
58.2275,15.3537
58.0364,15.2149
57.8260,15.1077
57.6014,15.0347
57.3681,14.9977
57.3681,14.9977
57.1319,14.9977
57.1319,14.9977
56.8986,15.0347
56.8986,15.0347
56.6740,15.1077
56.6125,15.1390
56.5438,15.1519
56.5088,15.1431
56.4689,15.1266
56.4689,15.1266
56.3239,15.0977
56.3239,15.0977
55.5915,15.0977
55.5245,15.0781
55.5038,15.0614
55.4602,15.0178
55.4602,15.0178
55.4513,15.0124
55.3146,14.9298
55.1522,14.8792
55.1522,14.8792
55.1522,14.8792
55.1028,14.8747
55.0816,14.8727
54.5684,14.8727
54.5491,14.8745
54.4978,14.8792
54.3354,14.9298
54.1898,15.0178
54.1898,15.0178
54.0877,15.1199
54.0264,15.1534
53.9567,15.1484
53.9123,15.1199
53.8102,15.0178
53.8013,15.0124
53.6646,14.9298
53.5022,14.8792
53.5022,14.8792
53.5022,14.8792
53.4528,14.8747
53.4316,14.8727
53.4316,14.8727
53.3122,14.8727
53.2452,14.8531
53.2245,14.8364
52.8534,14.4653
52.8534,14.4653
52.7449,14.3928
52.7305,14.3832
52.7305,14.3832
52.5939,14.3266
52.5939,14.3266
52.4489,14.2977
52.4489,14.2977
47.7174,14.2977
47.6504,14.2781
47.6046,14.2253
47.5941,14.1611
47.6005,14.0983
47.6005,12.5482
47.5981,12.5251
47.5900,12.4455
47.5900,12.4454
47.5885,12.4409
47.5348,12.2789
47.4427,12.1296
47.3187,12.0055
47.1693,11.9134
47.0028,11.8583
47.0028,11.8582
46.9000,11.8477
46.9000,11.8477
46.7649,11.8477
46.6979,11.8281
46.6772,11.8114
43.7602,8.8944
43.7602,8.8944
43.6010,8.7787
43.4256,8.6894
43.2384,8.6285
43.0440,8.5977
43.0440,8.5977
40.2003,8.5977
40.1333,8.5781
40.0876,8.5253
40.0776,8.4561
40.0868,8.4239
40.1392,8.3045
40.1687,8.1880
40.1961,8.0796
40.2107,7.9044
40.2153,7.8483
40.2153,7.8482
40.1961,7.6170
40.1961,7.6169
40.1487,7.4295
62.7095,7.4295
62.7412,7.6700
62.8040,7.9044
62.8765,8.0796
62.8968,8.1285
63.0181,8.3385
63.0181,8.3385
63.0181,8.3385
63.1657,8.5310
63.1657,8.5310
63.3373,8.7025
63.3373,8.7025
63.5297,8.8502
63.7398,8.9715
63.9639,9.0643
64.1982,9.1271
64.3786,9.1508
64.4387,9.1588
64.4387,9.1588
64.6813,9.1588
64.7294,9.1524
64.9218,9.1271
65.1561,9.0643
65.3802,8.9715
65.5903,8.8502
65.7827,8.7025
65.9543,8.5310
66.1019,8.3385
66.2232,8.1285
66.3161,7.9044
66.3788,7.6700
66.4105,7.4295
66.4105,7.1870
66.3788,6.9465
66.3161,6.7122
66.2232,6.4880
66.1019,6.2780
65.9543,6.0855
65.9543,6.0855
65.7827,5.9140
65.7827,5.9140
65.5903,5.7663
65.5903,5.7663
65.5903,5.7663
65.3802,5.6450
65.3802,5.6450
65.1561,5.5522
64.9218,5.4894
64.6813,5.4578
64.6813,5.4578
64.4387,5.4578
64.4387,5.4578
64.1982,5.4894
63.9639,5.5522
63.7398,5.6450
63.7398,5.6450
63.5297,5.7663
63.3373,5.9140
63.3373,5.9140
63.1657,6.0855
63.1657,6.0855
63.0181,6.2780
62.8968,6.4880
62.8968,6.4880
62.8040,6.7121
62.7412,6.9465
62.7095,7.1870
62.7095,7.4295
40.1487,7.4295
40.1392,7.3919
40.0459,7.1794
39.9190,6.9851
39.9190,6.9851
39.9190,6.9851
39.7618,6.8143
39.7618,6.8143
39.7618,6.8143
39.5786,6.6718
39.5786,6.6718
39.3745,6.5613
39.3745,6.5613
39.1550,6.4860
38.9833,6.4573
38.9260,6.4478
38.6940,6.4478
38.6482,6.4554
38.4650,6.4860
38.2455,6.5613
38.2455,6.5613
38.0414,6.6718
38.0414,6.6718
37.8582,6.8143
37.8582,6.8143
37.7010,6.9851
37.6438,7.0727
37.5907,7.1180
37.5214,7.1274
37.4581,7.0979
37.4362,7.0727
37.3790,6.9851
37.3790,6.9851
37.3790,6.9851
37.2218,6.8143
37.2218,6.8143
37.2218,6.8143
37.0386,6.6718
37.0386,6.6718
36.8345,6.5613
36.8345,6.5613
36.6150,6.4860
36.4433,6.4573
36.3860,6.4478
36.1540,6.4478
36.1082,6.4554
35.9250,6.4860
35.7055,6.5613
35.7055,6.5613
35.5014,6.6718
35.5014,6.6718
35.3182,6.8143
35.3182,6.8143
35.1610,6.9851
35.1038,7.0727
35.0507,7.1180
34.9814,7.1274
34.9181,7.0979
34.8962,7.0727
34.8390,6.9851
34.8390,6.9851
34.8390,6.9851
34.6818,6.8143
34.6818,6.8143
34.6818,6.8143
34.4986,6.6718
34.4986,6.6718
34.2945,6.5613
34.2945,6.5613
34.0750,6.4860
33.9033,6.4573
33.8460,6.4478
33.6140,6.4478
33.5682,6.4554
33.3850,6.4860
33.1655,6.5613
33.1655,6.5613
32.9614,6.6718
32.9614,6.6718
32.7782,6.8143
32.7782,6.8143
32.6210,6.9851
32.4941,7.1794
32.4008,7.3919
32.3439,7.6169
32.3439,7.6170
32.3247,7.8482
32.3247,7.8483
32.3439,8.0795
32.3439,8.0796
32.4008,8.3045
32.4941,8.5171
32.6210,8.7114
32.6210,8.7114
32.6210,8.7114
32.7782,8.8822
32.7782,8.8822
32.7782,8.8822
32.9614,9.0247
32.9614,9.0247
32.9614,9.0247
33.0345,9.0643
33.1641,9.1345
33.1928,9.1558
34.2730,10.2361
34.3065,10.2974
34.3015,10.3671
34.2597,10.4230
34.1942,10.4474
34.1854,10.4477
21.4011,10.4477
21.2561,10.4766
21.2561,10.4766
21.1195,10.5332
21.1195,10.5332
21.0703,10.5661
20.9966,10.6153
20.9966,10.6153
16.7755,14.8364
16.7141,14.8699
16.6878,14.8727
16.5684,14.8727
16.5491,14.8745
16.4978,14.8792
16.3354,14.9298
16.1898,15.0178
16.1898,15.0178
16.0877,15.1199
16.0264,15.1534
15.9567,15.1484
15.9123,15.1199
15.8102,15.0178
15.8013,15.0124
15.6646,14.9298
15.5022,14.8792
15.5022,14.8792
15.5022,14.8792
15.4528,14.8747
15.4316,14.8727
14.9184,14.8727
14.8991,14.8745
14.8478,14.8792
14.6854,14.9298
14.5398,15.0178
14.5398,15.0178
14.4962,15.0614
14.4348,15.0949
14.4085,15.0977
13.6761,15.0977
13.6472,15.1035
13.6472,15.1035
13.5311,15.1266
13.5311,15.1266
13.5311,15.1266
13.5311,15.1266
13.4912,15.1431
13.4218,15.1506
13.3875,15.1390
13.3260,15.1077
13.3260,15.1077
13.3260,15.1077
13.2335,15.0776
13.1014,15.0347
12.8681,14.9977
12.8681,14.9977
12.6319,14.9977
12.6319,14.9977
12.3986,15.0347
12.1740,15.1077
11.9636,15.2149
11.8545,15.2941
11.7725,15.3537
11.7725,15.3537
11.7725,15.3537
11.6055,15.5207
11.6055,15.5207
11.6055,15.5207
11.5861,15.5474
11.4667,15.7118
11.3594,15.9223
11.2864,16.1469
11.2495,16.3802
11.2495,17.3163
11.2864,17.5496
11.3594,17.7742
11.4667,17.9847
11.6055,18.1758
11.7725,18.3428
11.9636,18.4816
12.0616,18.5315
12.1740,18.5888
12.1740,18.5888
12.1740,18.5888
12.2944,18.6279
12.3986,18.6618
12.6319,18.6988
12.6319,18.6988
12.8681,18.6988
13.1014,18.6618
13.3260,18.5888
13.3875,18.5575
13.4562,18.5446
13.4912,18.5534
13.5311,18.5699
13.6472,18.5930
13.6665,18.5968
13.6761,18.5987
13.6761,18.5987
13.6761,18.5987
13.8239,18.5987
14.4085,18.5987
14.4755,18.6184
14.4962,18.6351
14.5398,18.6787
14.5398,18.6787
14.5398,18.6787
14.5398,18.6787
14.6854,18.7667
14.8478,18.8173
14.9184,18.8238
14.9184,18.8238
15.4316,18.8238
15.4316,18.8238
15.5022,18.8173
15.6646,18.7667
15.8102,18.6787
15.9305,18.5584
16.0185,18.4129
16.0691,18.2504
16.0755,18.1799
16.0755,17.5166
16.0691,17.4461
16.0185,17.2836
15.9305,17.1381
15.9305,17.1381
15.9305,17.1381
15.8102,17.0178
15.8102,17.0178
15.7053,16.9544
15.6581,16.9028
15.6463,16.8340
15.6735,16.7697
15.7053,16.7421
15.8102,16.6787
15.8598,16.6291
15.9123,16.5766
15.9736,16.5431
16.0433,16.5481
16.0877,16.5766
16.1898,16.6787
16.1898,16.6787
16.1898,16.6787
16.3354,16.7667
16.4978,16.8173
16.5684,16.8238
16.5684,16.8238
17.0816,16.8238
17.0816,16.8238
17.1522,16.8173
17.3146,16.7667
17.4602,16.6787
17.4898,16.6491
17.5378,16.6011
17.5991,16.5676
17.6688,16.5726
17.7248,16.6145
17.7492,16.6799
17.7495,16.6888
17.7495,17.3163
17.7864,17.5496
17.8594,17.7742
17.9667,17.9847
18.1055,18.1758
18.2725,18.3428
18.4636,18.4816
18.5616,18.5315
18.6740,18.5888
18.6740,18.5888
18.6740,18.5888
18.7944,18.6279
18.8986,18.6618
19.1319,18.6988
19.1319,18.6988
19.3681,18.6988
19.6014,18.6618
19.6836,18.6351
19.8260,18.5888
20.0364,18.4816
20.2275,18.3428
20.3945,18.1758
20.5333,17.9847
20.6406,17.7742
20.7136,17.5496
20.7188,17.5166
20.7505,17.3163
20.7505,16.3802
20.7136,16.1469
20.6493,15.9491
20.6406,15.9223
20.6406,15.9223
20.6406,15.9223
20.5778,15.7991
20.5333,15.7118
20.3945,15.5207
20.2275,15.3537
20.0364,15.2149
19.8260,15.1077
19.6014,15.0347
19.3681,14.9977
19.3681,14.9977
19.1319,14.9977
19.0395,15.0124
18.9702,15.0034
18.9167,14.9584
18.8961,14.8917
18.9148,14.8244
18.9324,14.8022
21.6087,12.1259
21.6700,12.0925
21.7397,12.0974
21.7956,12.1393
21.8200,12.2048
21.8052,12.2731
21.7995,12.2825
21.7849,12.3043
21.7849,12.3043
21.7283,12.4409
21.7283,12.4409
21.6995,12.5859
21.6995,21.8610
21.6798,21.9281
21.6632,21.9487
16.7755,26.8364
16.7141,26.8699
16.6878,26.8727
16.5684,26.8727
16.5491,26.8745
16.4978,26.8792
16.3354,26.9298
16.1898,27.0178
16.1898,27.0178
16.0877,27.1199
16.0264,27.1534
15.9567,27.1484
15.9123,27.1199
15.8102,27.0178
15.8013,27.0124
15.6646,26.9298
15.5022,26.8792
15.5022,26.8792
15.5022,26.8792
15.4528,26.8747
15.4316,26.8727
14.9184,26.8727
14.8991,26.8745
14.8478,26.8792
14.6854,26.9298
14.5398,27.0178
14.5398,27.0178
14.4962,27.0614
14.4348,27.0949
14.4085,27.0977
13.6761,27.0977
13.6472,27.1035
13.6472,27.1035
13.5311,27.1266
13.5311,27.1266
13.5311,27.1266
13.5311,27.1266
13.4912,27.1431
13.4218,27.1506
13.3875,27.1390
13.3260,27.1077
13.3260,27.1077
13.3260,27.1077
13.2335,27.0776
13.1014,27.0347
12.8681,26.9977
12.8681,26.9977
12.6319,26.9977
12.6319,26.9977
12.3986,27.0347
12.1740,27.1077
11.9636,27.2149
11.8545,27.2941
11.7725,27.3537
11.7725,27.3537
11.7725,27.3537
11.6055,27.5207
11.6055,27.5207
11.6055,27.5207
11.5459,27.6028
11.4667,27.7118
11.3594,27.9223
11.2864,28.1469
11.2495,28.3802
11.2495,29.3163
8.6410,29.3163
8.6400,29.2534
8.6400,29.2517
8.6400,13.0142
8.6378,12.8502
8.5957,12.5251
8.5115,12.2082
8.3865,11.9051
8.2231,11.6209
8.2231,11.6208
8.0238,11.3605
8.0238,11.3605
7.7923,11.1283
7.7923,11.1283
7.7923,11.1283
7.7922,11.1283
7.5323,10.9285
7.2485,10.7643
7.2485,10.7643
7.2485,10.7643
7.2485,10.7643
6.9457,10.6387
6.9457,10.6387
6.9457,10.6387
6.7635,10.5898
6.6290,10.5537
6.6290,10.5537
6.6290,10.5537
6.5262,10.5401
6.3039,10.5108
6.3039,10.5108
6.1741,10.5088
6.1400,10.5083
6.1400,10.5083
5.4409,10.5083
5.4391,10.5082
5.2665,10.5058
5.2544,10.5051
4.9105,10.4663
4.8968,10.4640
4.5602,10.3872
4.5469,10.3833
4.2210,10.2693
4.2082,10.2640
3.8972,10.1142
3.8850,10.1075
3.5927,9.9238
3.5813,9.9158
3.3114,9.7005
3.3011,9.6913
3.0570,9.4472
3.0477,9.4368
2.8325,9.1669
2.8244,9.1556
2.8244,9.1556
2.6408,8.8633
2.6341,8.8511
2.6336,8.8502
2.4843,8.5401
2.4790,8.5273
2.3649,8.2014
2.3611,8.1880
2.2843,7.8515
2.2819,7.8378
2.2433,7.4947
2.2425,7.4809
2.2425,7.4295
3.5895,7.4295
3.6212,7.6700
3.6839,7.9044
3.7565,8.0796
3.7768,8.1285
3.8981,8.3385
3.8981,8.3385
3.8981,8.3385
4.0457,8.5310
4.0457,8.5310
4.2172,8.7025
4.2173,8.7025
4.4097,8.8502
4.6198,8.9715
4.8439,9.0643
5.0782,9.1271
5.2586,9.1508
5.3187,9.1588
5.3187,9.1588
5.5613,9.1588
5.6094,9.1524
5.8018,9.1271
6.0361,9.0643
6.2602,8.9715
6.4703,8.8502
6.6627,8.7025
6.8343,8.5310
6.9819,8.3385
7.1032,8.1285
7.1960,7.9044
7.2588,7.6700
7.2905,7.4295
7.2905,7.1870
7.2588,6.9465
7.1960,6.7122
7.1032,6.4880
6.9819,6.2780
6.8343,6.0855
6.8343,6.0855
6.6627,5.9140
6.6627,5.9140
6.4703,5.7663
6.4703,5.7663
6.4703,5.7663
6.2602,5.6450
6.2602,5.6450
6.0361,5.5522
5.8018,5.4894
5.5613,5.4578
5.5613,5.4578
5.3187,5.4578
5.3187,5.4578
5.0782,5.4894
4.8439,5.5522
4.6198,5.6450
4.6198,5.6450
4.4097,5.7663
4.2173,5.9140
4.2172,5.9140
4.0457,6.0855
4.0457,6.0855
3.8981,6.2780
3.7768,6.4880
3.7768,6.4880
3.6839,6.7121
3.6212,6.9465
3.5895,7.1870
3.5895,7.4295
2.2425,7.4295
2.2425,7.1356
2.2433,7.1218
2.2819,6.7787
2.2843,6.7650
2.3308,6.5613
2.3611,6.4285
2.3649,6.4151
2.4790,6.0892
2.4843,6.0764
2.6341,5.7654
2.6408,5.7532
2.8244,5.4609
2.8325,5.4496
3.0477,5.1797
3.0570,5.1693
3.3011,4.9252
3.3114,4.9160
3.5814,4.7007
3.5927,4.6927
3.8850,4.5090
3.8971,4.5023
4.2082,4.3525
4.2210,4.3472
4.5469,4.2332
4.5602,4.2293
4.8968,4.1525
4.9105,4.1502
5.2544,4.1114
5.2665,4.1107
5.4359,4.1083
5.4391,4.1083
5.4409,4.1083
64.5591,4.1083
Z" /> 
</g>
<g style="fill:none; 
stroke:#FFFFFF; stroke-width:1.3000; stroke-opacity:1; 
stroke-linecap:round; stroke-linejoin:round;">
<path d="M57.2500 17.1982
L57.2500 16.4982
" />
<path d="M50.7500 17.1982
L50.7500 16.4982
" />
<path d="M57.2500 29.1982
L57.2500 28.4982
" />
<path d="M50.7500 29.1982
L50.7500 28.4982
" />
</g>
<g style="fill:#FFFFFF; fill-opacity:1.0000; stroke:none;">
<circle cx="64.5600" cy="7.3083" r="1.6000" /> 
</g>
<g style="fill:none; 
stroke:#FFFFFF; stroke-width:1.3000; stroke-opacity:1; 
stroke-linecap:round; stroke-linejoin:round;">
<path d="M57.2500 23.1982
L57.2500 22.4982
" />
<path d="M50.7500 23.1982
L50.7500 22.4982
" />
</g>
<g style="fill:#FFFFFF; fill-opacity:1.0000; stroke:none;">
<circle cx="31.1900" cy="7.8482" r="0.5500" /> 
</g>
<g style="fill:#FFFFFF; fill-opacity:1.0000; stroke:none;">
<circle cx="33.7300" cy="7.8482" r="0.5500" /> 
</g>
<g style="fill:#FFFFFF; fill-opacity:1.0000; stroke:none;">
<circle cx="36.2700" cy="7.8482" r="0.5500" /> 
</g>
<g style="fill:#FFFFFF; fill-opacity:1.0000; stroke:none;">
<circle cx="38.8100" cy="7.8482" r="0.5500" /> 
</g>
<g style="fill:#FFFFFF; fill-opacity:1.0000; stroke:none;">
<circle cx="5.4400" cy="7.3083" r="1.6000" /> 
</g>
<g style="fill:none; 
stroke:#FFFFFF; stroke-width:1.3000; stroke-opacity:1; 
stroke-linecap:round; stroke-linejoin:round;">
<path d="M12.7500 28.4982
L12.7500 29.1982
" />
<path d="M19.2500 28.4982
L19.2500 29.1982
" />
<path d="M12.7500 16.4982
L12.7500 17.1982
" />
<path d="M19.2500 16.4982
L19.2500 17.1982
" />
</g>
<g style="fill:#FFFFFF; fill-opacity:1.0000; stroke:none;">
<circle cx="46.2500" cy="13.3232" r="0.4750" /> 
</g>
<g style="fill:#FFFFFF; fill-opacity:1.0000; stroke:none;">
<circle cx="43.7500" cy="13.3232" r="0.4750" /> 
</g>
<g style="fill:#FFFFFF; fill-opacity:1.0000; stroke:none;">
<circle cx="41.2500" cy="13.3232" r="0.4750" /> 
</g>
<g style="fill:#FFFFFF; fill-opacity:1.0000; stroke:none;">
<circle cx="38.7500" cy="13.3232" r="0.4750" /> 
</g>
<g style="fill:#FFFFFF; fill-opacity:1.0000; stroke:none;">
<circle cx="36.2500" cy="13.3232" r="0.4750" /> 
</g>
<g style="fill:#FFFFFF; fill-opacity:1.0000; stroke:none;">
<circle cx="33.7500" cy="13.3232" r="0.4750" /> 
</g>
<g style="fill:#FFFFFF; fill-opacity:1.0000; stroke:none;">
<circle cx="31.2500" cy="13.3232" r="0.4750" /> 
</g>
<g style="fill:#FFFFFF; fill-opacity:1.0000; stroke:none;">
<circle cx="28.7500" cy="13.3232" r="0.4750" /> 
</g>
<g style="fill:#FFFFFF; fill-opacity:1.0000; stroke:none;">
<circle cx="26.2500" cy="13.3232" r="0.4750" /> 
</g>
<g style="fill:#FFFFFF; fill-opacity:1.0000; stroke:none;">
<circle cx="23.7500" cy="13.3232" r="0.4750" /> 
</g>
<g style="fill:#FFFFFF; fill-opacity:1.0000; stroke:none;">
<circle cx="37.5000" cy="24.8483" r="0.3500" /> 
</g>
<g style="fill:#FFFFFF; fill-opacity:1.0000; stroke:none;">
<circle cx="32.5000" cy="24.8483" r="0.3500" /> 
</g>
<g style="fill:none; 
stroke:#000000; stroke-width:2.0000; stroke-opacity:1; 
stroke-linecap:round; stroke-linejoin:round;">
<path d="M57.2500 17.1982
L57.2500 16.4982
" />
<path d="M50.7500 17.1982
L50.7500 16.4982
" />
<path d="M57.2500 29.1982
L57.2500 28.4982
" />
<path d="M50.7500 29.1982
L50.7500 28.4982
" />
<path d="M57.2500 23.1982
L57.2500 22.4982
" />
<path d="M50.7500 23.1982
L50.7500 22.4982
" />
<path style="fill:#000000; fill-opacity:1.0000; stroke:none;fill-rule:evenodd;"
d="M 30.2900,8.7482
30.2900,6.9482
32.0900,6.9482
32.0900,8.7482
Z" /> 
</g>
<g style="fill:#000000; fill-opacity:1.0000; stroke:none;">
<circle cx="33.7300" cy="7.8482" r="0.9000" /> 
</g>
<g style="fill:#000000; fill-opacity:1.0000; stroke:none;">
<circle cx="36.2700" cy="7.8482" r="0.9000" /> 
</g>
<g style="fill:#000000; fill-opacity:1.0000; stroke:none;">
<circle cx="38.8100" cy="7.8482" r="0.9000" /> 
</g>
<g style="fill:none; 
stroke:#000000; stroke-width:2.0000; stroke-opacity:1; 
stroke-linecap:round; stroke-linejoin:round;">
<path d="M12.7500 28.4982
L12.7500 29.1982
" />
<path d="M19.2500 28.4982
L19.2500 29.1982
" />
<path d="M12.7500 16.4982
L12.7500 17.1982
" />
<path d="M19.2500 16.4982
L19.2500 17.1982
" />
<path style="fill:#000000; fill-opacity:1.0000; stroke:none;fill-rule:evenodd;"
d="M 47.1000,14.0482
47.0810,14.1439
47.0268,14.2250
46.9457,14.2792
46.8500,14.2982
45.6500,14.2982
45.5543,14.2792
45.4732,14.2250
45.4190,14.1439
45.4000,14.0482
45.4000,12.5983
45.4190,12.5026
45.4732,12.4215
45.5543,12.3673
45.6500,12.3483
46.8500,12.3483
46.9457,12.3673
47.0268,12.4215
47.0810,12.5026
47.1000,12.5983
Z" /> 
</g>
<g style="fill:none; 
stroke:#000000; stroke-width:1.7000; stroke-opacity:1; 
stroke-linecap:round; stroke-linejoin:round;">
<path d="M43.7500 13.4482
L43.7500 13.1982
" />
<path d="M41.2500 13.4482
L41.2500 13.1982
" />
<path d="M38.7500 13.4482
L38.7500 13.1982
" />
<path d="M36.2500 13.4482
L36.2500 13.1982
" />
<path d="M33.7500 13.4482
L33.7500 13.1982
" />
<path d="M31.2500 13.4482
L31.2500 13.1982
" />
<path d="M28.7500 13.4482
L28.7500 13.1982
" />
<path d="M26.2500 13.4482
L26.2500 13.1982
" />
<path d="M23.7500 13.4482
L23.7500 13.1982
" />
</g>
<g style="fill:#000000; fill-opacity:1.0000; stroke:none;">
<circle cx="37.5000" cy="24.8483" r="0.7500" /> 
</g>
<g style="fill:#000000; fill-opacity:1.0000; stroke:none;">
<circle cx="32.5000" cy="24.8483" r="0.7500" /> 
</g>
<g style="fill:none; 
stroke:#000000; stroke-width:1.5000; stroke-opacity:1; 
stroke-linecap:round; stroke-linejoin:round;">
<path d="M50.7500 22.8483
L50.7500 28.8483
" />
<path d="M19.2500 16.8483
L19.2500 28.8483
" />
<path d="M49.7750 16.8483
L46.2500 13.3232
" />
<path d="M19.2500 28.8483
L50.7500 28.8483
" />
<path d="M50.7500 16.8483
L49.7750 16.8483
" />
<path d="M50.7500 16.8483
L50.7500 22.8483
" />
</g>
<g style="fill:none; 
stroke:#000000; stroke-width:0.5000; stroke-opacity:1; 
stroke-linecap:round; stroke-linejoin:round;">
<path d="M30.1750 11.8982
L34.7600 11.8982
" />
<path d="M34.7600 11.8982
L38.8100 7.8482
" />
<path d="M28.7500 13.3232
L30.1750 11.8982
" />
<path d="M26.2500 13.3232
L28.3750 11.1982
" />
<path d="M28.3750 11.1982
L32.9200 11.1982
" />
<path d="M32.9200 11.1982
L36.2700 7.8482
" />
<path style="fill:#000000; fill-opacity:1.0000; stroke:none;fill-rule:evenodd;"
d="M 64.5609,4.1083
64.5649,4.1083
64.7335,4.1107
64.7456,4.1115
65.0714,4.1482
65.0895,4.1502
65.1032,4.1525
65.2050,4.1758
65.4398,4.2293
65.4531,4.2332
65.7790,4.3472
65.7918,4.3525
66.1028,4.5023
66.1150,4.5090
66.4073,4.6927
66.4186,4.7007
66.6885,4.9160
66.6989,4.9252
66.9430,5.1693
66.9523,5.1797
67.1675,5.4496
67.1756,5.4609
67.3592,5.7532
67.3659,5.7654
67.5157,6.0764
67.5210,6.0893
67.6351,6.4151
67.6389,6.4285
67.7157,6.7650
67.7180,6.7787
67.7567,7.1218
67.7575,7.1356
67.7575,7.4809
67.7567,7.4947
67.7180,7.8378
67.7157,7.8515
67.6389,8.1880
67.6351,8.2014
67.5210,8.5272
67.5157,8.5401
67.3659,8.8511
67.3592,8.8633
67.1756,9.1556
67.1675,9.1669
66.9523,9.4368
66.9430,9.4472
66.6989,9.6913
66.6885,9.7005
66.4186,9.9158
66.4073,9.9238
66.1150,10.1075
66.1028,10.1142
65.7918,10.2640
65.7790,10.2693
65.4531,10.3833
65.4398,10.3872
65.1032,10.4640
65.0895,10.4663
64.7456,10.5050
64.7335,10.5058
64.5609,10.5082
64.5591,10.5083
63.8600,10.5083
63.6963,10.5108
63.6963,10.5108
63.6963,10.5108
63.3717,10.5535
63.3717,10.5535
63.1413,10.6153
63.0555,10.6383
63.0555,10.6383
63.0555,10.6383
63.0555,10.6383
62.7531,10.7636
62.7530,10.7636
62.4695,10.9272
62.2098,11.1265
62.2098,11.1266
61.9783,11.3580
61.7790,11.6178
61.7790,11.6178
61.6153,11.9013
61.6153,11.9013
61.4900,12.2037
61.4900,12.2038
61.4132,12.4904
61.4053,12.5200
61.4053,12.5200
61.3626,12.8446
61.3626,12.8446
61.3600,13.0083
61.3600,29.2516
61.3600,29.2536
61.3575,29.4096
61.3565,29.4239
61.3155,29.7342
61.3123,29.7502
61.2313,30.0515
61.2261,30.0669
61.1064,30.3550
61.0992,30.3696
61.0343,30.4816
60.9427,30.6396
60.9337,30.6531
60.7433,30.9003
60.7325,30.9125
60.5114,31.1326
60.4991,31.1433
60.2511,31.3326
60.2376,31.3416
59.9669,31.4968
59.9523,31.5040
59.6627,31.6228
59.6491,31.6274
59.4991,31.6695
59.4969,31.6701
58.5403,31.9200
58.5381,31.9205
56.6143,32.3860
56.6118,32.3866
54.6789,32.8122
54.6764,32.8128
52.7351,33.1984
52.7326,33.1989
50.7838,33.5444
50.7813,33.5448
48.8257,33.8500
48.8231,33.8504
46.8618,34.1152
46.8592,34.1155
44.8927,34.3397
44.8902,34.3400
42.9195,34.5236
42.9170,34.5238
40.9429,34.6667
40.9404,34.6668
38.9638,34.7689
38.9612,34.7690
36.9829,34.8303
36.9803,34.8304
35.0013,34.8508
34.9987,34.8508
33.0196,34.8304
33.0171,34.8303
31.0388,34.7690
31.0362,34.7689
29.0596,34.6668
29.0571,34.6667
27.0830,34.5238
27.0805,34.5236
25.1098,34.3400
25.1073,34.3397
23.1408,34.1155
23.1382,34.1152
21.1769,33.8504
21.1743,33.8500
19.2187,33.5448
19.2162,33.5444
17.2674,33.1989
17.2649,33.1984
15.3236,32.8128
15.3211,32.8122
13.3882,32.3866
13.3857,32.3860
11.4619,31.9205
11.4597,31.9200
10.5031,31.6701
10.5009,31.6695
10.3509,31.6274
10.3373,31.6227
10.0477,31.5039
10.0331,31.4968
9.7625,31.3416
9.7489,31.3326
9.5009,31.1433
9.4886,31.1326
9.2675,30.9124
9.2567,30.9002
9.0663,30.6530
9.0573,30.6395
8.9008,30.3695
8.8936,30.3550
8.7739,30.0668
8.7687,30.0514
8.7507,29.9847
8.6877,29.7501
8.6845,29.7341
8.6435,29.4238
8.6425,29.4095
8.6410,29.3163
11.2495,29.3163
11.2864,29.5496
11.3594,29.7742
11.4667,29.9847
11.6055,30.1758
11.7725,30.3428
11.9636,30.4816
12.0630,30.5323
12.1740,30.5888
12.1740,30.5888
12.1740,30.5888
12.2944,30.6279
12.3986,30.6618
12.6319,30.6987
12.6319,30.6987
12.8681,30.6987
13.1014,30.6618
13.1281,30.6531
13.3260,30.5888
13.5364,30.4816
13.7275,30.3428
13.8945,30.1758
14.0333,29.9847
14.1406,29.7742
14.2136,29.5496
14.2335,29.4239
14.2505,29.3163
17.7495,29.3163
17.7864,29.5496
17.8594,29.7742
17.9667,29.9847
18.1055,30.1758
18.2725,30.3428
18.4636,30.4816
18.5630,30.5323
18.6740,30.5888
18.6740,30.5888
18.6740,30.5888
18.7944,30.6279
18.8986,30.6618
19.1319,30.6987
19.1319,30.6987
19.3681,30.6987
19.6014,30.6618
19.6281,30.6531
19.8260,30.5888
20.0364,30.4816
20.2275,30.3428
20.3945,30.1758
20.4133,30.1499
20.4687,30.1072
20.5136,30.0987
49.4864,30.0987
49.5534,30.1184
49.5867,30.1499
49.6055,30.1758
49.7725,30.3428
49.9636,30.4816
50.0630,30.5323
50.1740,30.5888
50.1740,30.5888
50.1740,30.5888
50.2944,30.6279
50.3986,30.6618
50.6319,30.6987
50.6319,30.6987
50.8681,30.6987
51.1014,30.6618
51.1281,30.6531
51.3260,30.5888
51.5364,30.4816
51.7275,30.3428
51.8945,30.1758
52.0333,29.9847
52.1406,29.7742
52.2136,29.5496
52.2335,29.4239
52.2505,29.3163
55.7495,29.3163
55.7864,29.5496
55.8594,29.7742
55.9667,29.9847
56.1055,30.1758
56.2725,30.3428
56.4636,30.4816
56.5630,30.5323
56.6740,30.5888
56.6740,30.5888
56.6740,30.5888
56.7944,30.6279
56.8986,30.6618
57.1319,30.6987
57.1319,30.6987
57.3681,30.6987
57.6014,30.6618
57.6281,30.6531
57.8260,30.5888
58.0364,30.4816
58.2275,30.3428
58.3945,30.1758
58.5333,29.9847
58.6406,29.7742
58.7136,29.5496
58.7335,29.4239
58.7505,29.3163
58.7505,28.3802
58.7136,28.1469
58.6406,27.9223
58.5840,27.8112
58.5333,27.7118
58.3945,27.5207
58.2275,27.3537
58.0364,27.2149
57.8260,27.1077
57.6014,27.0347
57.3681,26.9977
57.3681,26.9977
57.1319,26.9977
57.1319,26.9977
56.8986,27.0347
56.6740,27.1077
56.4636,27.2149
56.3545,27.2941
56.2725,27.3537
56.2725,27.3537
56.2725,27.3537
56.1055,27.5207
56.1055,27.5207
56.1055,27.5207
56.0495,27.5977
55.9667,27.7118
55.8594,27.9223
55.7864,28.1469
55.7495,28.3802
55.7495,29.3163
52.2505,29.3163
52.2505,28.3802
52.2136,28.1469
52.1406,27.9223
52.0850,27.8132
52.0333,27.7118
52.0333,27.7118
52.0242,27.6992
52.0007,27.6334
52.0005,27.6263
52.0005,24.0702
52.0202,24.0031
52.0242,23.9973
52.0333,23.9847
52.1406,23.7742
52.2136,23.5496
52.2505,23.3163
55.7495,23.3163
55.7864,23.5496
55.8594,23.7742
55.9167,23.8867
55.9667,23.9847
56.1055,24.1758
56.2725,24.3428
56.4636,24.4816
56.5630,24.5323
56.6740,24.5888
56.6740,24.5888
56.6740,24.5888
56.7944,24.6279
56.8986,24.6618
57.1319,24.6988
57.1319,24.6988
57.3681,24.6988
57.6014,24.6618
57.8260,24.5888
58.0364,24.4816
58.2275,24.3428
58.3945,24.1758
58.5333,23.9847
58.6406,23.7742
58.7136,23.5496
58.7505,23.3163
58.7505,22.3802
58.7136,22.1469
58.6406,21.9223
58.5840,21.8112
58.5333,21.7118
58.3945,21.5207
58.2275,21.3537
58.0364,21.2149
57.8260,21.1077
57.6014,21.0347
57.3681,20.9977
57.3681,20.9977
57.1319,20.9977
57.1319,20.9977
56.8986,21.0347
56.6740,21.1077
56.4636,21.2149
56.3545,21.2941
56.2725,21.3537
56.2725,21.3537
56.2725,21.3537
56.1055,21.5207
56.1055,21.5207
56.1055,21.5207
56.0459,21.6028
55.9667,21.7118
55.8594,21.9223
55.7864,22.1469
55.7495,22.3802
55.7495,23.3163
52.2505,23.3163
52.2505,22.3802
52.2136,22.1469
52.1406,21.9223
52.0850,21.8132
52.0333,21.7118
52.0333,21.7118
52.0242,21.6992
52.0007,21.6334
52.0005,21.6263
52.0005,18.0702
52.0202,18.0031
52.0242,17.9973
52.0333,17.9847
52.1406,17.7742
52.2136,17.5496
52.2505,17.3163
55.7495,17.3163
55.7864,17.5496
55.8594,17.7742
55.9326,17.9178
55.9667,17.9847
56.1055,18.1758
56.2725,18.3428
56.4636,18.4816
56.5630,18.5323
56.6740,18.5888
56.6740,18.5888
56.6740,18.5888
56.7944,18.6279
56.8986,18.6618
57.1319,18.6988
57.1319,18.6988
57.3681,18.6988
57.6014,18.6618
57.8260,18.5888
58.0364,18.4816
58.2275,18.3428
58.3945,18.1758
58.5333,17.9847
58.6406,17.7742
58.7136,17.5496
58.7505,17.3163
58.7505,16.3802
58.7136,16.1469
58.6406,15.9223
58.5333,15.7118
58.3945,15.5207
58.2275,15.3537
58.0364,15.2149
57.9916,15.1920
57.8260,15.1077
57.6014,15.0347
57.3681,14.9977
57.3681,14.9977
57.1319,14.9977
57.1319,14.9977
56.8986,15.0347
56.6740,15.1077
56.4636,15.2149
56.3545,15.2941
56.2725,15.3537
56.2725,15.3537
56.2725,15.3537
56.1055,15.5207
56.1055,15.5207
56.1055,15.5207
56.0459,15.6028
55.9667,15.7118
55.8594,15.9223
55.7864,16.1469
55.7495,16.3802
55.7495,17.3163
52.2505,17.3163
52.2505,16.3802
52.2136,16.1469
52.1406,15.9223
52.0333,15.7118
51.8945,15.5207
51.7275,15.3537
51.5364,15.2149
51.4916,15.1920
51.3260,15.1077
51.1014,15.0347
50.8681,14.9977
50.8681,14.9977
50.6319,14.9977
50.6319,14.9977
50.3986,15.0347
50.2236,15.0916
50.1740,15.1077
50.1740,15.1077
50.1740,15.1077
50.0084,15.1920
49.9398,15.2049
49.8750,15.1787
49.8645,15.1692
47.6368,12.9416
47.6033,12.8803
47.6005,12.8539
47.6005,12.5482
47.6005,12.5482
47.5900,12.4455
47.5900,12.4454
47.5348,12.2789
47.4427,12.1296
47.3187,12.0055
47.1693,11.9134
47.0028,11.8583
47.0028,11.8582
46.9000,11.8477
45.6000,11.8477
45.6000,11.8478
45.4972,11.8582
45.4972,11.8583
45.3307,11.9134
45.3307,11.9134
45.1813,12.0055
45.0573,12.1296
44.9652,12.2789
44.9652,12.2789
44.9100,12.4455
44.9100,12.4455
44.9100,12.4455
44.8995,12.5482
44.8995,14.0983
44.8995,14.0983
44.9100,14.2010
44.9100,14.2010
44.9521,14.3280
44.9652,14.3676
45.0573,14.5169
45.1813,14.6410
45.3307,14.7331
45.4972,14.7882
45.6000,14.7988
45.9057,14.7987
45.9727,14.8184
45.9933,14.8351
48.9604,17.8021
49.1196,17.9178
49.2950,18.0071
49.4138,18.0457
49.4715,18.0852
49.4987,18.1495
49.4995,18.1637
49.4995,21.6263
49.4798,21.6934
49.4758,21.6992
49.4667,21.7118
49.4667,21.7118
49.3594,21.9223
49.2864,22.1469
49.2495,22.3802
49.2495,23.3163
49.2864,23.5496
49.3594,23.7742
49.4667,23.9847
49.4758,23.9973
49.4993,24.0631
49.4995,24.0702
49.4995,27.4737
49.4798,27.5408
49.4270,27.5865
49.3755,27.5977
20.6245,27.5977
20.5575,27.5781
20.5117,27.5253
20.5005,27.4737
20.5005,24.8483
36.2447,24.8483
36.2638,25.0662
36.2638,25.0662
36.3204,25.2776
36.3204,25.2776
36.3204,25.2776
36.3667,25.3767
36.4129,25.4759
36.4129,25.4759
36.5384,25.6551
36.6931,25.8098
36.8724,25.9354
37.0707,26.0278
37.2820,26.0845
37.4649,26.1005
37.5000,26.1035
37.5000,26.1035
37.5000,26.1035
37.5283,26.1011
37.7180,26.0845
37.9293,26.0278
38.1276,25.9354
38.3069,25.8098
38.4616,25.6551
38.5871,25.4759
38.6796,25.2776
38.7362,25.0662
38.7553,24.8483
38.7362,24.6303
38.6796,24.4189
38.5871,24.2206
38.5871,24.2206
38.5871,24.2206
38.4616,24.0414
38.4049,23.9847
38.3069,23.8867
38.1276,23.7611
38.1276,23.7611
38.1276,23.7611
38.0285,23.7149
37.9293,23.6687
37.9293,23.6687
37.9293,23.6687
37.7180,23.6120
37.5000,23.5930
37.5000,23.5930
37.3547,23.6057
37.2820,23.6120
37.2820,23.6120
37.0707,23.6687
37.0707,23.6687
36.8724,23.7611
36.8724,23.7612
36.6931,23.8867
36.5384,24.0414
36.4129,24.2206
36.4129,24.2206
36.3204,24.4189
36.3204,24.4189
36.2638,24.6303
36.2638,24.6303
36.2447,24.8482
36.2447,24.8483
20.5005,24.8483
20.5005,18.0702
20.5202,18.0031
20.5242,17.9973
20.5333,17.9847
20.6406,17.7742
20.7136,17.5496
20.7505,17.3163
20.7505,16.3802
20.7136,16.1469
20.6406,15.9223
20.5333,15.7118
20.3945,15.5207
20.2275,15.3537
20.0364,15.2149
19.9916,15.1920
19.8260,15.1077
19.6014,15.0347
19.3681,14.9977
19.3681,14.9977
19.1319,14.9977
19.1319,14.9977
18.8986,15.0347
18.6740,15.1077
18.4636,15.2149
18.3545,15.2941
18.2725,15.3537
18.2725,15.3537
18.2725,15.3537
18.1055,15.5207
18.1055,15.5207
18.1055,15.5207
18.0459,15.6028
17.9667,15.7118
17.8594,15.9223
17.7864,16.1469
17.7495,16.3802
17.7495,17.3163
17.7864,17.5496
17.8594,17.7742
17.9667,17.9847
17.9758,17.9973
17.9993,18.0631
17.9995,18.0702
17.9995,27.6263
17.9798,27.6934
17.9758,27.6992
17.9667,27.7118
17.9667,27.7118
17.8594,27.9223
17.7864,28.1469
17.7495,28.3802
17.7495,29.3163
14.2505,29.3163
14.2505,28.3802
14.2136,28.1469
14.1406,27.9223
14.0840,27.8112
14.0333,27.7118
13.8945,27.5207
13.7275,27.3537
13.5364,27.2149
13.3260,27.1077
13.1014,27.0347
12.8681,26.9977
12.8681,26.9977
12.6319,26.9977
12.6319,26.9977
12.3986,27.0347
12.1740,27.1077
11.9636,27.2149
11.8545,27.2941
11.7725,27.3537
11.7725,27.3537
11.7725,27.3537
11.6055,27.5207
11.6055,27.5207
11.6055,27.5207
11.5495,27.5977
11.4667,27.7118
11.3594,27.9223
11.2864,28.1469
11.2495,28.3802
11.2495,29.3163
8.6410,29.3163
8.6400,29.2534
8.6400,29.2517
8.6400,17.3163
11.2495,17.3163
11.2864,17.5496
11.3594,17.7742
11.4326,17.9178
11.4667,17.9847
11.6055,18.1758
11.7725,18.3428
11.9636,18.4816
12.0630,18.5323
12.1740,18.5888
12.1740,18.5888
12.1740,18.5888
12.2944,18.6279
12.3986,18.6618
12.6319,18.6988
12.6319,18.6988
12.8681,18.6988
13.1014,18.6618
13.3260,18.5888
13.5364,18.4816
13.7275,18.3428
13.8945,18.1758
14.0333,17.9847
14.1406,17.7742
14.2136,17.5496
14.2505,17.3163
14.2505,16.3802
14.2136,16.1469
14.1406,15.9223
14.0333,15.7118
13.8945,15.5207
13.7275,15.3537
13.5364,15.2149
13.4916,15.1920
13.3260,15.1077
13.1014,15.0347
12.8681,14.9977
12.8681,14.9977
12.6319,14.9977
12.6319,14.9977
12.3986,15.0347
12.1740,15.1077
11.9636,15.2149
11.8545,15.2941
11.7725,15.3537
11.7725,15.3537
11.7725,15.3537
11.6055,15.5207
11.6055,15.5207
11.6055,15.5207
11.5459,15.6028
11.4667,15.7118
11.3594,15.9223
11.2864,16.1469
11.2495,16.3802
11.2495,17.3163
8.6400,17.3163
8.6400,13.5545
22.3995,13.5545
22.4328,13.7645
22.4984,13.9667
22.5950,14.1561
22.7199,14.3280
22.8702,14.4784
23.0422,14.6033
23.0422,14.6033
23.0422,14.6033
23.2316,14.6998
23.4338,14.7655
23.6437,14.7988
23.6437,14.7988
23.8563,14.7988
23.8563,14.7988
24.0662,14.7655
24.2684,14.6998
24.4578,14.6033
24.4798,14.5873
24.6298,14.4784
24.6298,14.4784
24.6298,14.4784
24.7801,14.3280
24.8997,14.1635
24.9550,14.1208
25.0246,14.1148
25.0864,14.1474
25.1003,14.1634
25.2199,14.3280
25.2199,14.3280
25.3702,14.4784
25.5422,14.6033
25.5422,14.6033
25.5422,14.6033
25.7316,14.6998
25.9338,14.7655
26.1437,14.7988
26.1437,14.7988
26.3563,14.7988
26.3563,14.7988
26.5662,14.7655
26.7684,14.6998
26.9578,14.6033
26.9798,14.5873
27.1298,14.4784
27.1298,14.4784
27.1298,14.4784
27.2801,14.3280
27.3997,14.1635
27.4550,14.1208
27.5246,14.1148
27.5864,14.1474
27.6003,14.1634
27.7199,14.3280
27.7199,14.3280
27.8702,14.4784
28.0422,14.6033
28.0422,14.6033
28.0422,14.6033
28.2316,14.6998
28.4338,14.7655
28.6437,14.7988
28.6437,14.7988
28.8563,14.7988
28.8563,14.7988
29.0662,14.7655
29.2684,14.6998
29.4578,14.6033
29.4798,14.5873
29.6298,14.4784
29.6298,14.4784
29.6298,14.4784
29.7801,14.3280
29.8997,14.1635
29.9550,14.1208
30.0246,14.1148
30.0864,14.1474
30.1003,14.1634
30.2199,14.3280
30.2199,14.3280
30.3702,14.4784
30.5422,14.6033
30.5422,14.6033
30.5422,14.6033
30.7316,14.6998
30.9338,14.7655
31.1437,14.7988
31.1437,14.7988
31.3563,14.7988
31.3563,14.7988
31.5662,14.7655
31.7684,14.6998
31.9578,14.6033
31.9798,14.5873
32.1298,14.4784
32.1298,14.4784
32.1298,14.4784
32.2801,14.3280
32.3997,14.1635
32.4550,14.1208
32.5246,14.1148
32.5864,14.1474
32.6003,14.1634
32.7199,14.3280
32.7199,14.3280
32.8702,14.4784
33.0422,14.6033
33.0422,14.6033
33.0422,14.6033
33.2316,14.6998
33.4338,14.7655
33.6437,14.7988
33.6437,14.7988
33.8563,14.7988
33.8563,14.7988
34.0662,14.7655
34.2684,14.6998
34.4578,14.6033
34.4798,14.5873
34.6298,14.4784
34.6298,14.4784
34.6298,14.4784
34.7801,14.3280
34.8997,14.1635
34.9550,14.1208
35.0246,14.1148
35.0864,14.1474
35.1003,14.1634
35.2199,14.3280
35.2199,14.3280
35.3702,14.4784
35.5422,14.6033
35.5422,14.6033
35.5422,14.6033
35.7316,14.6998
35.9338,14.7655
36.1437,14.7988
36.1437,14.7988
36.3563,14.7988
36.3563,14.7988
36.5662,14.7655
36.7684,14.6998
36.9578,14.6033
36.9798,14.5873
37.1298,14.4784
37.1298,14.4784
37.1298,14.4784
37.2801,14.3280
37.3997,14.1635
37.4550,14.1208
37.5246,14.1148
37.5864,14.1474
37.6003,14.1634
37.7199,14.3280
37.7199,14.3280
37.8702,14.4784
38.0422,14.6033
38.0422,14.6033
38.0422,14.6033
38.2316,14.6998
38.4338,14.7655
38.6437,14.7988
38.6437,14.7988
38.8563,14.7988
38.8563,14.7988
39.0662,14.7655
39.2684,14.6998
39.4578,14.6033
39.4798,14.5873
39.6298,14.4784
39.6298,14.4784
39.6298,14.4784
39.7801,14.3280
39.8997,14.1635
39.9550,14.1208
40.0246,14.1148
40.0864,14.1474
40.1003,14.1634
40.2199,14.3280
40.2199,14.3280
40.3702,14.4784
40.5422,14.6033
40.5422,14.6033
40.5422,14.6033
40.7316,14.6998
40.9338,14.7655
41.1437,14.7988
41.1437,14.7988
41.3563,14.7988
41.3563,14.7988
41.5662,14.7655
41.7684,14.6998
41.9578,14.6033
41.9798,14.5873
42.1298,14.4784
42.1298,14.4784
42.1298,14.4784
42.2801,14.3280
42.2801,14.3280
42.2801,14.3280
42.4050,14.1561
42.4050,14.1561
42.4051,14.1561
42.5016,13.9667
42.5672,13.7645
42.6005,13.5545
42.6005,13.0920
42.5672,12.8820
42.5016,12.6798
42.4051,12.4904
42.4050,12.4904
42.4050,12.4904
42.2801,12.3185
42.1298,12.1681
41.9578,12.0432
41.7684,11.9467
41.7684,11.9467
41.7684,11.9467
41.5662,11.8810
41.5662,11.8810
41.5662,11.8810
41.4050,11.8555
41.3563,11.8477
41.1437,11.8477
41.0950,11.8555
40.9338,11.8810
40.7316,11.9467
40.5422,12.0432
40.3702,12.1681
40.2199,12.3185
40.2199,12.3185
40.1003,12.4830
40.0450,12.5257
39.9754,12.5317
39.9136,12.4991
39.8997,12.4830
39.7801,12.3185
39.7801,12.3185
39.6298,12.1681
39.4578,12.0432
39.2684,11.9467
39.2684,11.9467
39.2684,11.9467
39.0662,11.8810
39.0662,11.8810
39.0662,11.8810
38.9050,11.8555
38.8563,11.8477
38.6437,11.8477
38.5950,11.8555
38.4338,11.8810
38.2316,11.9467
38.0422,12.0432
37.8702,12.1681
37.7199,12.3185
37.7199,12.3185
37.6003,12.4830
37.5450,12.5257
37.4754,12.5317
37.4136,12.4991
37.3997,12.4830
37.2801,12.3185
37.2801,12.3185
37.1298,12.1681
36.9578,12.0432
36.7684,11.9467
36.7684,11.9467
36.7684,11.9467
36.5662,11.8810
36.5662,11.8810
36.5662,11.8810
36.4050,11.8555
36.3563,11.8477
36.1712,11.8477
36.1042,11.8281
36.0584,11.7753
36.0485,11.7061
36.0775,11.6425
36.0835,11.6361
37.2556,10.4640
38.4576,9.2620
38.5190,9.2285
38.5657,9.2274
38.6940,9.2487
38.6940,9.2487
38.9260,9.2487
38.9260,9.2487
39.1550,9.2105
39.3745,9.1352
39.5786,9.0247
39.7618,8.8822
39.9190,8.7114
40.0459,8.5171
40.1392,8.3045
40.1961,8.0796
40.2107,7.9044
40.2153,7.8483
40.2153,7.8482
40.1961,7.6170
40.1961,7.6169
40.1487,7.4295
62.7095,7.4295
62.7412,7.6700
62.8040,7.9044
62.8765,8.0796
62.8968,8.1285
63.0181,8.3385
63.0181,8.3385
63.0181,8.3385
63.1657,8.5310
63.1657,8.5310
63.3373,8.7025
63.3373,8.7025
63.5297,8.8502
63.7398,8.9715
63.9639,9.0643
64.1982,9.1271
64.3786,9.1508
64.4387,9.1588
64.4387,9.1588
64.6813,9.1588
64.7294,9.1524
64.9218,9.1271
65.1561,9.0643
65.3802,8.9715
65.5903,8.8502
65.7827,8.7025
65.9543,8.5310
66.1019,8.3385
66.2232,8.1285
66.3161,7.9044
66.3788,7.6700
66.4105,7.4295
66.4105,7.1870
66.3788,6.9465
66.3161,6.7122
66.2232,6.4880
66.1019,6.2780
65.9543,6.0855
65.9543,6.0855
65.7827,5.9140
65.7827,5.9140
65.5903,5.7663
65.5903,5.7663
65.5903,5.7663
65.3802,5.6450
65.3802,5.6450
65.1561,5.5522
64.9218,5.4894
64.6813,5.4578
64.6813,5.4578
64.4387,5.4578
64.4387,5.4578
64.1982,5.4894
63.9639,5.5522
63.7398,5.6450
63.7398,5.6450
63.5297,5.7663
63.3373,5.9140
63.3373,5.9140
63.1657,6.0855
63.1657,6.0855
63.0181,6.2780
62.8968,6.4880
62.8968,6.4880
62.8040,6.7121
62.7412,6.9465
62.7095,7.1870
62.7095,7.4295
40.1487,7.4295
40.1392,7.3919
40.0459,7.1794
39.9190,6.9851
39.9190,6.9851
39.9190,6.9851
39.7618,6.8143
39.7618,6.8143
39.7618,6.8143
39.5786,6.6718
39.5786,6.6718
39.3745,6.5613
39.3745,6.5613
39.1550,6.4860
38.9833,6.4573
38.9260,6.4478
38.6940,6.4478
38.6482,6.4554
38.4650,6.4860
38.2455,6.5613
38.2455,6.5613
38.0414,6.6718
38.0414,6.6718
37.8582,6.8143
37.8582,6.8143
37.7010,6.9851
37.6438,7.0727
37.5907,7.1180
37.5214,7.1274
37.4581,7.0979
37.4362,7.0727
37.3790,6.9851
37.3790,6.9851
37.3790,6.9851
37.2218,6.8143
37.2218,6.8143
37.2218,6.8143
37.0386,6.6718
37.0386,6.6718
36.8345,6.5613
36.8345,6.5613
36.6150,6.4860
36.4433,6.4573
36.3860,6.4478
36.1540,6.4478
36.1082,6.4554
35.9250,6.4860
35.7055,6.5613
35.7055,6.5613
35.5014,6.6718
35.5014,6.6718
35.3182,6.8143
35.3182,6.8143
35.1610,6.9851
35.1038,7.0727
35.0507,7.1180
34.9814,7.1274
34.9181,7.0979
34.8962,7.0727
34.8390,6.9851
34.8390,6.9851
34.8390,6.9851
34.6818,6.8143
34.6818,6.8143
34.6818,6.8143
34.4986,6.6718
34.4986,6.6718
34.2945,6.5613
34.2945,6.5613
34.0750,6.4860
33.9033,6.4573
33.8460,6.4478
33.6140,6.4478
33.5682,6.4554
33.3850,6.4860
33.1655,6.5613
33.1655,6.5613
32.9614,6.6718
32.9614,6.6718
32.7782,6.8143
32.7782,6.8143
32.6210,6.9851
32.4941,7.1794
32.4008,7.3919
32.3439,7.6169
32.3439,7.6170
32.3247,7.8482
32.3247,7.8483
32.3439,8.0795
32.3439,8.0796
32.4008,8.3045
32.4941,8.5171
32.6210,8.7114
32.6210,8.7114
32.6210,8.7114
32.7782,8.8822
32.7782,8.8822
32.7782,8.8822
32.9614,9.0247
32.9614,9.0247
32.9614,9.0247
33.1655,9.1352
33.3850,9.2105
33.5428,9.2369
33.6056,9.2673
33.6421,9.3269
33.6405,9.3968
33.6100,9.4469
32.6455,10.4114
32.5841,10.4449
32.5578,10.4477
28.3011,10.4477
28.1561,10.4766
28.1561,10.4766
28.0195,10.5332
28.0195,10.5332
27.9703,10.5661
27.8966,10.6153
27.8966,10.6153
26.6667,11.8452
26.6054,11.8786
26.5596,11.8800
26.4020,11.8550
26.3563,11.8477
26.1437,11.8477
26.0950,11.8555
25.9338,11.8810
25.7316,11.9467
25.5422,12.0432
25.3702,12.1681
25.2199,12.3185
25.2199,12.3185
25.1003,12.4830
25.0450,12.5257
24.9754,12.5317
24.9136,12.4991
24.8997,12.4830
24.7801,12.3185
24.7801,12.3185
24.6298,12.1681
24.4578,12.0432
24.2684,11.9467
24.2684,11.9467
24.2684,11.9467
24.0662,11.8810
24.0662,11.8810
24.0662,11.8810
23.9050,11.8555
23.8563,11.8477
23.6437,11.8477
23.5950,11.8555
23.4338,11.8810
23.2316,11.9467
23.0422,12.0432
22.8702,12.1681
22.7199,12.3185
22.5950,12.4904
22.4984,12.6798
22.4328,12.8820
22.3995,13.0920
22.3995,13.5545
8.6400,13.5545
8.6400,13.0142
8.6378,12.8502
8.5957,12.5251
8.5115,12.2082
8.3865,11.9051
8.2355,11.6425
8.2231,11.6208
8.0238,11.3605
8.0238,11.3605
7.7923,11.1283
7.7923,11.1283
7.7923,11.1283
7.7922,11.1283
7.5323,10.9285
7.2485,10.7643
7.2485,10.7643
7.2485,10.7643
7.2485,10.7643
6.9457,10.6387
6.9457,10.6387
6.9457,10.6387
6.7635,10.5898
6.6290,10.5537
6.6290,10.5537
6.6290,10.5537
6.5262,10.5401
6.3039,10.5108
6.3039,10.5108
6.1741,10.5088
6.1400,10.5083
6.1400,10.5083
5.4409,10.5083
5.4391,10.5082
5.2665,10.5058
5.2544,10.5051
4.9105,10.4663
4.8968,10.4640
4.5602,10.3872
4.5469,10.3833
4.2210,10.2693
4.2082,10.2640
3.8972,10.1142
3.8850,10.1075
3.5927,9.9238
3.5813,9.9158
3.3114,9.7005
3.3011,9.6913
3.0570,9.4472
3.0477,9.4368
2.9126,9.2673
2.8325,9.1669
2.8244,9.1556
2.8244,9.1556
2.6408,8.8633
2.6341,8.8511
2.6336,8.8502
2.4843,8.5401
2.4790,8.5273
2.3649,8.2014
2.3611,8.1880
2.2843,7.8515
2.2819,7.8378
2.2433,7.4947
2.2425,7.4809
2.2425,7.4295
3.5895,7.4295
3.6212,7.6700
3.6839,7.9044
3.7565,8.0796
3.7768,8.1285
3.8981,8.3385
3.8981,8.3385
3.8981,8.3385
4.0457,8.5310
4.0457,8.5310
4.2172,8.7025
4.2173,8.7025
4.4097,8.8502
4.6198,8.9715
4.8439,9.0643
5.0782,9.1271
5.2586,9.1508
5.3187,9.1588
5.3187,9.1588
5.5613,9.1588
5.6094,9.1524
5.8018,9.1271
6.0361,9.0643
6.2602,8.9715
6.4703,8.8502
6.6627,8.7025
6.8343,8.5310
6.9819,8.3385
7.1032,8.1285
7.1960,7.9044
7.2588,7.6700
7.2905,7.4295
7.2905,7.1870
7.2588,6.9465
7.1960,6.7122
7.1032,6.4880
6.9819,6.2780
6.8343,6.0855
6.8343,6.0855
6.6627,5.9140
6.6627,5.9140
6.4703,5.7663
6.4703,5.7663
6.4703,5.7663
6.2602,5.6450
6.2602,5.6450
6.0361,5.5522
5.8018,5.4894
5.5613,5.4578
5.5613,5.4578
5.3187,5.4578
5.3187,5.4578
5.0782,5.4894
4.8439,5.5522
4.6198,5.6450
4.6198,5.6450
4.4097,5.7663
4.2173,5.9140
4.2172,5.9140
4.0457,6.0855
4.0457,6.0855
3.8981,6.2780
3.7768,6.4880
3.7768,6.4880
3.6839,6.7121
3.6212,6.9465
3.5895,7.1870
3.5895,7.4295
2.2425,7.4295
2.2425,7.1356
2.2433,7.1218
2.2819,6.7787
2.2843,6.7650
2.3308,6.5613
2.3611,6.4285
2.3649,6.4151
2.4790,6.0892
2.4843,6.0764
2.6341,5.7654
2.6408,5.7532
2.8244,5.4609
2.8325,5.4496
3.0477,5.1797
3.0570,5.1693
3.3011,4.9252
3.3114,4.9160
3.5814,4.7007
3.5927,4.6927
3.8850,4.5090
3.8971,4.5023
4.2082,4.3525
4.2210,4.3472
4.5469,4.2332
4.5602,4.2293
4.8968,4.1525
4.9105,4.1502
5.2544,4.1114
5.2665,4.1107
5.4359,4.1083
5.4391,4.1083
5.4409,4.1083
64.5591,4.1083
Z" /> 
</g>
<g style="fill:none; 
stroke:#FFFFFF; stroke-width:1.3000; stroke-opacity:1; 
stroke-linecap:round; stroke-linejoin:round;">
<path d="M57.2500 17.1982
L57.2500 16.4982
" />
<path d="M50.7500 17.1982
L50.7500 16.4982
" />
<path d="M57.2500 29.1982
L57.2500 28.4982
" />
<path d="M50.7500 29.1982
L50.7500 28.4982
" />
</g>
<g style="fill:#FFFFFF; fill-opacity:1.0000; stroke:none;">
<circle cx="64.5600" cy="7.3083" r="1.6000" /> 
</g>
<g style="fill:none; 
stroke:#FFFFFF; stroke-width:1.3000; stroke-opacity:1; 
stroke-linecap:round; stroke-linejoin:round;">
<path d="M57.2500 23.1982
L57.2500 22.4982
" />
<path d="M50.7500 23.1982
L50.7500 22.4982
" />
</g>
<g style="fill:#FFFFFF; fill-opacity:1.0000; stroke:none;">
<circle cx="31.1900" cy="7.8482" r="0.5500" /> 
</g>
<g style="fill:#FFFFFF; fill-opacity:1.0000; stroke:none;">
<circle cx="33.7300" cy="7.8482" r="0.5500" /> 
</g>
<g style="fill:#FFFFFF; fill-opacity:1.0000; stroke:none;">
<circle cx="36.2700" cy="7.8482" r="0.5500" /> 
</g>
<g style="fill:#FFFFFF; fill-opacity:1.0000; stroke:none;">
<circle cx="38.8100" cy="7.8482" r="0.5500" /> 
</g>
<g style="fill:#FFFFFF; fill-opacity:1.0000; stroke:none;">
<circle cx="5.4400" cy="7.3083" r="1.6000" /> 
</g>
<g style="fill:none; 
stroke:#FFFFFF; stroke-width:1.3000; stroke-opacity:1; 
stroke-linecap:round; stroke-linejoin:round;">
<path d="M12.7500 28.4982
L12.7500 29.1982
" />
<path d="M19.2500 28.4982
L19.2500 29.1982
" />
<path d="M12.7500 16.4982
L12.7500 17.1982
" />
<path d="M19.2500 16.4982
L19.2500 17.1982
" />
</g>
<g style="fill:#FFFFFF; fill-opacity:1.0000; stroke:none;">
<circle cx="46.2500" cy="13.3232" r="0.4750" /> 
</g>
<g style="fill:#FFFFFF; fill-opacity:1.0000; stroke:none;">
<circle cx="43.7500" cy="13.3232" r="0.4750" /> 
</g>
<g style="fill:#FFFFFF; fill-opacity:1.0000; stroke:none;">
<circle cx="41.2500" cy="13.3232" r="0.4750" /> 
</g>
<g style="fill:#FFFFFF; fill-opacity:1.0000; stroke:none;">
<circle cx="38.7500" cy="13.3232" r="0.4750" /> 
</g>
<g style="fill:#FFFFFF; fill-opacity:1.0000; stroke:none;">
<circle cx="36.2500" cy="13.3232" r="0.4750" /> 
</g>
<g style="fill:#FFFFFF; fill-opacity:1.0000; stroke:none;">
<circle cx="33.7500" cy="13.3232" r="0.4750" /> 
</g>
<g style="fill:#FFFFFF; fill-opacity:1.0000; stroke:none;">
<circle cx="31.2500" cy="13.3232" r="0.4750" /> 
</g>
<g style="fill:#FFFFFF; fill-opacity:1.0000; stroke:none;">
<circle cx="28.7500" cy="13.3232" r="0.4750" /> 
</g>
<g style="fill:#FFFFFF; fill-opacity:1.0000; stroke:none;">
<circle cx="26.2500" cy="13.3232" r="0.4750" /> 
</g>
<g style="fill:#FFFFFF; fill-opacity:1.0000; stroke:none;">
<circle cx="23.7500" cy="13.3232" r="0.4750" /> 
</g>
<g style="fill:#FFFFFF; fill-opacity:1.0000; stroke:none;">
<circle cx="37.5000" cy="24.8483" r="0.3500" /> 
</g>
<g style="fill:#FFFFFF; fill-opacity:1.0000; stroke:none;">
<circle cx="32.5000" cy="24.8483" r="0.3500" /> 
</g>
<g style="fill:none; 
stroke:#000000; stroke-width:0.2000; stroke-opacity:1; 
stroke-linecap:round; stroke-linejoin:round;">
<path d="M59.4980 31.6699 A2.5000 2.5000 0.0 0 0 61.3600 29.2527" />
<path d="M61.3600 29.2527
L61.3600 13.0083
" />
<path d="M5.4400 10.5083
L6.1400 10.5083
" />
<path d="M64.5600 10.5082 A3.2000 3.2000 0.0 0 0 64.5600 4.1083" />
<path d="M8.6400 13.0142
L8.6400 29.2526
" />
<path d="M8.6400 13.0142 A2.5000 2.5000 0.0 0 0 6.1400 10.5083" />
<path d="M8.6400 4.1083
L5.4400 4.1083
" />
<path d="M8.6400 29.2526 A2.5000 2.5000 0.0 0 0 10.5020 31.6698" />
<path d="M63.8600 10.5083
L64.5600 10.5083
" />
<path d="M10.5020 31.6698 A96.0000 96.0000 0.0 0 0 59.4980 31.6698" />
<path d="M63.8600 10.5083 A2.5000 2.5000 0.0 0 0 61.3600 13.0083" />
<path d="M5.4400 4.1082 A3.2000 3.2000 0.0 0 0 5.4400 10.5083" />
<path d="M64.5600 4.1083
L8.6400 4.1083
" />
</g> 
</svg>
