0
SECTION
2
HEADER
9
$INSUNITS
70
4
9
$ACADVER
1
AC1014
9
$HANDSEED
5
FFFF
0
ENDSEC
0
SECTION
2
TABLES
0
TABLE
2
VPORT
5
8
100
AcDbSymbolTable
0
ENDTAB
0
TABLE
2
LTYPE
5
5
100
AcDbSymbolTable
0
LTYPE
5
14
100
AcDbSymbolTableRecord
100
AcDbLinetypeTableRecord
2
BYBLOCK
70
0
0
LTYPE
5
15
100
AcDbSymbolTableRecord
100
AcDbLinetypeTableRecord
2
BYLAYER
70
0
0
LTYPE
5
16
100
AcDbSymbolTableRecord
100
AcDbLinetypeTableRecord
2
DASHED
70
0
3
Dashed __ __ __ __ __ __ __ __ __ __ __ __ __ _
72
65
73
2
40
0.75
49
0.5
74
0
49
-0.25
74
0
0
ENDTAB
0
TABLE
2
LAYER
5
2
100
AcDbSymbolTable
70
3
0
LAYER
5
50
100
AcDbSymbolTableRecord
100
AcDbLayerTableRecord
2
1
70
0
62
7
6
DASHED
0
LAYER
5
51
100
AcDbSymbolTableRecord
100
AcDbLayerTableRecord
2
0
70
0
62
7
6
CONTINUOUS
0
ENDTAB
0
TABLE
2
STYLE
5
3
100
AcDbSymbolTable
70
1
0
STYLE
5
11
100
AcDbSymbolTableRecord
100
AcDbTextStyleTableRecord
2
STANDARD
70
0
0
ENDTAB
0
TABLE
2
VIEW
5
6
100
AcDbSymbolTable
70
0
0
ENDTAB
0
TABLE
2
UCS
5
7
100
AcDbSymbolTable
70
0
0
ENDTAB
0
TABLE
2
APPID
5
9
100
AcDbSymbolTable
70
2
0
APPID
5
12
100
AcDbSymbolTableRecord
100
AcDbRegAppTableRecord
2
ACAD
70
0
0
ENDTAB
0
TABLE
2
DIMSTYLE
5
A
100
AcDbSymbolTable
70
1
0
ENDTAB
0
TABLE
2
BLOCK_RECORD
5
1
100
AcDbSymbolTable
70
1
0
BLOCK_RECORD
5
1F
100
AcDbSymbolTableRecord
100
AcDbBlockTableRecord
2
*MODEL_SPACE
0
BLOCK_RECORD
5
1B
100
AcDbSymbolTableRecord
100
AcDbBlockTableRecord
2
*PAPER_SPACE
0
ENDTAB
0
ENDSEC
0
SECTION
2
BLOCKS
0
BLOCK
5
20
100
AcDbEntity
100
AcDbBlockBegin
2
*MODEL_SPACE
0
ENDBLK
5
21
100
AcDbEntity
100
AcDbBlockEnd
0
BLOCK
5
1C
100
AcDbEntity
100
AcDbBlockBegin
2
*PAPER_SPACE
0
ENDBLK
5
1D
100
AcDbEntity
100
AcDbBlockEnd
0
ENDSEC
0
SECTION
2
ENTITIES
0
CIRCLE
5
100
100
AcDbEntity
8
0
100
AcDbCircle
10
-3.154670399930755
20
-4.5053362435894542
30
0
40
1.5000000000000009
210
0
220
-0
230
1
0
LWPOLYLINE
5
101
100
AcDbEntity
8
0
100
AcDbPolyline
90
14
70
1
43
0.0
10
4.7448247833455017
20
11.134929045728214
10
2.8275195982614223
20
8.3967334673340623
42
-0.16227766016837919
10
2.0655551922587785
20
7.8315695583792824
42
0.11226004606873652
10
0.73433314871526134
20
7.0335703289499572
42
-0.30335565818809135
10
-3.0956701730448453
20
6.35823740712061
42
0.11226004606873613
10
-4.6195415148134122
20
6.6528066402771335
42
-0.1622776601683768
10
-5.5288512855788223
20
6.9232798197063783
10
-8.2670468639729897
20
8.8405850047904693
42
-0.51317434481183988
10
-8.2954840544488455
20
11.277630612402723
42
-0.034404705501502243
10
-6.6706020400484256
20
12.308658592662315
42
-0.36406074669125654
10
-4.7809546408790151
20
11.922352120409432
42
0.59568339940687132
10
0.41494321534461864
20
12.838529101466927
42
-0.36406074669125321
10
2.0585063372238359
20
13.84783591710373
42
-0.03440470550150191
10
3.9380283133848035
20
13.434728911682496
42
-0.51317434481183988
0
LWPOLYLINE
5
102
100
AcDbEntity
8
0
100
AcDbPolyline
90
14
70
1
43
0.0
10
6.6706020400484203
20
-12.308658592662319
42
0.034404705501500051
10
8.2954840544488224
20
-11.277630612402739
42
0.51317434481184265
10
8.2670468639729826
20
-8.8405850047904639
10
5.5288512855788241
20
-6.9232798197063783
42
0.16227766016837708
10
4.6195415148134149
20
-6.6528066402771362
42
-0.11226004606873662
10
3.0956701730448404
20
-6.3582374071206083
42
0.3033556581880904
10
-0.73433314871525823
20
-7.0335703289499616
42
-0.1122600460687365
10
-2.0655551922587816
20
-7.8315695583792788
42
0.16227766016837894
10
-2.8275195982614227
20
-8.396733467334057
10
-4.7448247833455088
20
-11.134929045728214
42
0.51317434481183954
10
-3.9380283133848124
20
-13.434728911682489
42
0.034404705501501272
10
-2.0585063372238372
20
-13.847835917103691
42
0.3640607466912536
10
-0.41494321534462864
20
-12.838529101466927
42
-0.59568339940687143
10
4.7809546408790098
20
-11.922352120409428
42
0.36406074669125538
0
CIRCLE
5
103
100
AcDbEntity
8
0
100
AcDbCircle
10
13.787308820991715
20
2.431074536500657
30
0
40
1.4999999999999991
210
0
220
-0
230
1
0
CIRCLE
5
104
100
AcDbEntity
8
0
100
AcDbCircle
10
3.1546703999307537
20
4.5053362435894568
30
0
40
1.5000000000000009
210
0
220
-0
230
1
0
CIRCLE
5
105
100
AcDbEntity
8
0
100
AcDbCircle
10
-4.5053362435894542
20
3.1546703999307546
30
0
40
1.5000000000000009
210
0
220
-0
230
1
0
LWPOLYLINE
5
106
100
AcDbEntity
8
0
100
AcDbPolyline
90
14
70
1
43
0.0
10
-11.277630612402735
20
-8.2954840544488224
42
0.51317434481184265
10
-8.8405850047904657
20
-8.2670468639729844
10
-6.9232798197063783
20
-5.5288512855788223
42
0.16227766016837927
10
-6.6528066402771362
20
-4.6195415148134122
42
-0.1122600460687365
10
-6.3582374071206083
20
-3.0956701730448408
42
0.30335565818809035
10
-7.0335703289499616
20
0.73433314871525734
42
-0.1122600460687365
10
-7.8315695583792788
20
2.0655551922587807
42
0.16227766016838091
10
-8.3967334673340588
20
2.8275195982614232
10
-11.134929045728214
20
4.7448247833455088
42
0.51317434481184332
10
-13.434728911682489
20
3.938028313384808
42
0.034404705501501674
10
-13.847835917103691
20
2.0585063372238572
42
0.36406074669125765
10
-12.838529101466921
20
0.4149432153446253
42
-0.59568339940687076
10
-11.922352120409428
20
-4.7809546408790098
42
0.36406074669125565
10
-12.308658592662312
20
-6.6706020400484221
42
0.034404705501501272
0
CIRCLE
5
107
100
AcDbEntity
8
0
100
AcDbCircle
10
-2.4310745365006605
20
13.787308820991719
30
0
40
1.4999999999999987
210
0
220
-0
230
1
0
CIRCLE
5
108
100
AcDbEntity
8
0
100
AcDbCircle
10
2.4310745365006534
20
-13.787308820991717
30
0
40
1.4999999999999987
210
0
220
-0
230
1
0
LWPOLYLINE
5
109
100
AcDbEntity
8
0
100
AcDbPolyline
90
14
70
1
43
0.0
10
11.134929045728219
20
-4.7448247833455097
10
8.396733467334057
20
-2.8275195982614223
42
-0.1622776601683785
10
7.8315695583792788
20
-2.0655551922587816
42
0.11226004606873652
10
7.0335703289499563
20
-0.73433314871526489
42
-0.30335565818809124
10
6.3582374071206083
20
3.0956701730448435
42
0.11226004606873652
10
6.6528066402771362
20
4.6195415148134158
42
-0.16227766016838294
10
6.9232798197063792
20
5.528851285578825
10
8.8405850047904657
20
8.2670468639729897
42
-0.51317434481184609
10
11.277630612402778
20
8.295484054448842
42
-0.034404705501500682
10
12.308658592662312
20
6.6706020400484265
42
-0.36406074669125454
10
11.922352120409428
20
4.7809546408790098
42
0.59568339940687198
10
12.838529101466932
20
-0.41494321534462641
42
-0.36406074669124705
10
13.84783591710373
20
-2.058506337223835
42
-0.034404705501500904
10
13.434728911682495
20
-3.9380283133848133
42
-0.51317434481184021
0
CIRCLE
5
110
100
AcDbEntity
8
0
100
AcDbCircle
10
4.5053362435894551
20
-3.1546703999307542
30
0
40
1.5000000000000013
210
0
220
-0
230
1
0
CIRCLE
5
111
100
AcDbEntity
8
0
100
AcDbCircle
10
-1.9539925233402755e-13
20
2.8643754035329039e-13
30
0
40
1.5000000000000002
210
0
220
-0
230
1
0
CIRCLE
5
112
100
AcDbEntity
8
0
100
AcDbCircle
10
-13.787308820991717
20
-2.4310745365006547
30
0
40
1.4999999999999991
210
0
220
-0
230
1
0
LWPOLYLINE
5
113
100
AcDbEntity
8
0
100
AcDbPolyline
90
80
70
1
43
0.0
10
-26.761655010083846
20
-6.3295988120301905
10
-18.765362046951555
20
-3.7314457314599014
10
-17.37478557226429
20
-8.0112000547880911
10
-25.371078535396592
20
-10.609353135358361
42
0.037602652868821362
10
-23.495892783690294
20
-14.289612391430724
10
-16.693839710782068
20
-9.3476315562133561
10
-14.04880607546594
20
-12.988208030900621
10
-20.850859148374159
20
-17.930188866117994
42
0.03760265286882155
10
-17.930188866117994
20
-20.850859148374159
10
-12.988208030900626
20
-14.048806075465938
10
-9.3476315562133614
20
-16.693839710782065
10
-14.289612391430737
20
-23.495892783690291
42
0.037602652868821737
10
-10.60935313535837
20
-25.371078535396592
10
-8.0112000547881017
20
-17.374785572264287
10
-3.7314457314599103
20
-18.765362046951552
10
-6.329598812030186
20
-26.76165501008385
42
0.037602652868821182
10
-2.2500000000000031
20
-27.407799984675897
10
-2.2500000000000009
20
-19.000000000000004
10
2.2500000000000009
20
-19.000000000000004
10
2.2500000000000013
20
-27.407799984675894
42
0.037602652868821362
10
6.3295988120302056
20
-26.761655010083846
10
3.7314457314599059
20
-18.765362046951552
10
8.0112000547880982
20
-17.374785572264287
10
10.609353135358376
20
-25.371078535396592
42
0.037602652868821182
10
14.28961239143074
20
-23.495892783690291
10
9.3476315562133561
20
-16.693839710782068
10
12.988208030900621
20
-14.04880607546594
10
17.930188866117994
20
-20.850859148374159
42
0.037602652868820995
10
20.850859148374141
20
-17.930188866118009
10
14.048806075465938
20
-12.988208030900623
10
16.693839710782065
20
-9.3476315562133596
10
23.495892783690287
20
-14.28961239143073
42
0.037602652868821362
10
25.371078535396592
20
-10.609353135358369
10
17.374785572264294
20
-8.0112000547880982
10
18.765362046951552
20
-3.7314457314599059
10
26.76165501008385
20
-6.3295988120301825
42
0.037602652868821182
10
27.407799984675897
20
-2.2499999999999987
10
19.000000000000007
20
-2.2499999999999964
10
19.000000000000007
20
2.2500000000000053
10
27.407799984675904
20
2.2500000000000058
42
0.037602652868821362
10
26.761655010083857
20
6.3295988120301905
10
18.765362046951552
20
3.7314457314599059
10
17.374785572264294
20
8.0112000547880982
10
25.371078535396595
20
10.60935313535837
42
0.037602652868821182
10
23.495892783690291
20
14.289612391430735
10
16.693839710782065
20
9.3476315562133561
10
14.048806075465944
20
12.988208030900621
10
20.850859148374159
20
17.930188866117994
42
0.037602652868821737
10
17.930188866117994
20
20.850859148374159
10
12.988208030900621
20
14.048806075465938
10
9.3476315562133614
20
16.693839710782061
10
14.28961239143073
20
23.49589278369028
42
0.03760265286882155
10
10.60935313535837
20
25.371078535396588
10
8.0112000547880982
20
17.374785572264287
10
3.7314457314599103
20
18.765362046951559
10
6.3295988120301816
20
26.76165501008385
42
0.037602652868822292
10
2.2500000000000009
20
27.407799984675897
10
2.2500000000000009
20
19.000000000000004
10
-2.2499999999999987
20
19.000000000000004
10
-2.2499999999999969
20
27.407799984675894
42
0.037602652868822292
10
-6.3295988120301789
20
26.76165501008385
10
-3.7314457314599059
20
18.765362046951559
10
-8.0112000547880946
20
17.374785572264287
10
-10.609353135358369
20
25.371078535396592
42
0.037602652868821917
10
-14.28961239143073
20
23.495892783690302
10
-9.3476315562133561
20
16.693839710782072
10
-12.988208030900621
20
14.048806075465947
10
-17.930188866117994
20
20.85085914837417
42
0.037602652868821917
10
-20.850859148374141
20
17.930188866118012
10
-14.048806075465933
20
12.988208030900626
10
-16.693839710782065
20
9.3476315562133649
10
-23.49589278369028
20
14.289612391430735
42
0.037602652868822292
10
-25.371078535396595
20
10.609353135358353
10
-17.374785572264287
20
8.0112000547880982
10
-18.765362046951552
20
3.7314457314599059
10
-26.761655010083842
20
6.3295988120301816
42
0.037602652868821737
10
-27.407799984675883
20
2.25
10
-19.000000000000004
20
2.2500000000000053
10
-19.000000000000004
20
-2.2499999999999964
10
-27.407799984675894
20
-2.2499999999999947
42
0.037602652868821917
0
ENDSEC
0
SECTION
2
OBJECTS
0
DICTIONARY
5
C
100
AcDbDictionary
3
ACAD_GROUP
350
D
3
ACAD_MLINESTYLE
350
17
0
DICTIONARY
5
D
100
AcDbDictionary
0
DICTIONARY
5
1A
330
C
100
AcDbDictionary
0
DICTIONARY
5
17
100
AcDbDictionary
0
ENDSEC
0
EOF
