0
SECTION
2
HEADER
9
$INSUNITS
70
4
9
$ACADVER
1
AC1014
9
$HANDSEED
5
FFFF
0
ENDSEC
0
SECTION
2
TABLES
0
TABLE
2
VPORT
5
8
100
AcDbSymbolTable
0
ENDTAB
0
TABLE
2
LTYPE
5
5
100
AcDbSymbolTable
0
LTYPE
5
14
100
AcDbSymbolTableRecord
100
AcDbLinetypeTableRecord
2
BYBLOCK
70
0
0
LTYPE
5
15
100
AcDbSymbolTableRecord
100
AcDbLinetypeTableRecord
2
BYLAYER
70
0
0
LTYPE
5
16
100
AcDbSymbolTableRecord
100
AcDbLinetypeTableRecord
2
DASHED
70
0
3
Dashed __ __ __ __ __ __ __ __ __ __ __ __ __ _
72
65
73
2
40
0.75
49
0.5
74
0
49
-0.25
74
0
0
ENDTAB
0
TABLE
2
LAYER
5
2
100
AcDbSymbolTable
70
3
0
LAYER
5
50
100
AcDbSymbolTableRecord
100
AcDbLayerTableRecord
2
1
70
0
62
7
6
DASHED
0
LAYER
5
51
100
AcDbSymbolTableRecord
100
AcDbLayerTableRecord
2
0
70
0
62
7
6
CONTINUOUS
0
ENDTAB
0
TABLE
2
STYLE
5
3
100
AcDbSymbolTable
70
1
0
STYLE
5
11
100
AcDbSymbolTableRecord
100
AcDbTextStyleTableRecord
2
STANDARD
70
0
0
ENDTAB
0
TABLE
2
VIEW
5
6
100
AcDbSymbolTable
70
0
0
ENDTAB
0
TABLE
2
UCS
5
7
100
AcDbSymbolTable
70
0
0
ENDTAB
0
TABLE
2
APPID
5
9
100
AcDbSymbolTable
70
2
0
APPID
5
12
100
AcDbSymbolTableRecord
100
AcDbRegAppTableRecord
2
ACAD
70
0
0
ENDTAB
0
TABLE
2
DIMSTYLE
5
A
100
AcDbSymbolTable
70
1
0
ENDTAB
0
TABLE
2
BLOCK_RECORD
5
1
100
AcDbSymbolTable
70
1
0
BLOCK_RECORD
5
1F
100
AcDbSymbolTableRecord
100
AcDbBlockTableRecord
2
*MODEL_SPACE
0
BLOCK_RECORD
5
1B
100
AcDbSymbolTableRecord
100
AcDbBlockTableRecord
2
*PAPER_SPACE
0
ENDTAB
0
ENDSEC
0
SECTION
2
BLOCKS
0
BLOCK
5
20
100
AcDbEntity
100
AcDbBlockBegin
2
*MODEL_SPACE
0
ENDBLK
5
21
100
AcDbEntity
100
AcDbBlockEnd
0
BLOCK
5
1C
100
AcDbEntity
100
AcDbBlockBegin
2
*PAPER_SPACE
0
ENDBLK
5
1D
100
AcDbEntity
100
AcDbBlockEnd
0
ENDSEC
0
SECTION
2
ENTITIES
0
CIRCLE
5
100
100
AcDbEntity
8
0
100
AcDbCircle
10
14.000000283122064
20
2.1964339399405421e-15
30
0
40
1.4999999999999989
210
-1.6036588260553169e-50
220
-6.8091906188322246e-35
230
1
0
CIRCLE
5
101
100
AcDbEntity
8
0
100
AcDbCircle
10
-1.4181642827440061e-18
20
-2.297511348198151e-17
30
0
40
1.5000000000000004
210
-1.7022976547080559e-35
220
-1.7022976547080561e-35
230
1
0
LWPOLYLINE
5
102
100
AcDbEntity
8
0
100
AcDbPolyline
90
14
70
1
43
0.0
10
6.6063003705643961
20
10.141834276497139
10
4.2426406871192972
20
7.7781745930520385
42
-0.16227766016837872
10
3.3941125496954356
20
7.3539105243401082
42
0.11226004606873659
10
1.9445436482630085
20
6.7991989782317201
42
-0.30335565818809052
10
-1.9445436482630052
20
6.7991989782317219
42
0.11226004606873613
10
-3.3941125496954294
20
7.3539105243401028
42
-0.16227766016837886
10
-4.242640687119291
20
7.7781745930520332
10
-6.6063003705644032
20
10.141834276497148
42
-0.51317434481184143
10
-6.2111170075658286
20
12.546793751622145
42
-0.034404705501501015
10
-4.4318844721585284
20
13.280000299429899
42
-0.36406074669125438
10
-2.6380264779247895
20
12.571428863217642
42
0.59568339940687143
10
2.6380264779247806
20
12.571428863217641
42
-0.36406074669125443
10
4.4318844721585196
20
13.280000299429895
42
-0.034404705501501244
10
6.2111170075658331
20
12.54679375162214
42
-0.51317434481184032
0
LWPOLYLINE
5
103
100
AcDbEntity
8
0
100
AcDbPolyline
90
14
70
1
43
0.0
10
10.141834276497143
20
-6.606300370564405
10
7.7781745930520341
20
-4.2426406871192972
42
-0.16227766016837758
10
7.3539105243401046
20
-3.3941125496954387
42
0.11226004606873659
10
6.7991989782317219
20
-1.9445436482630094
42
-0.30335565818809052
10
6.7991989782317219
20
1.9445436482630007
42
0.11226004606873664
10
7.3539105243401037
20
3.394112549695433
42
-0.16227766016838044
10
7.7781745930520332
20
4.2426406871192954
10
10.141834276497143
20
6.6063003705644041
42
-0.51317434481184276
10
12.546793751622136
20
6.2111170075658411
42
-0.034404705501501466
10
13.280000299429897
20
4.431884472158516
42
-0.36406074669125255
10
12.571428863217635
20
2.6380264779247864
42
0.59568339940687176
10
12.571428863217641
20
-2.6380264779247864
42
-0.36406074669124999
10
13.280000299429894
20
-4.43188447215854
42
-0.034404705501501015
10
12.546793751622136
20
-6.2111170075658411
42
-0.51317434481184088
0
CIRCLE
5
104
100
AcDbEntity
8
0
100
AcDbCircle
10
-3.8890872965260117
20
3.8890872965260126
30
0
40
1.5000000000000009
210
-1.0691058840368783e-50
220
-6.8091906188322246e-35
230
1
0
CIRCLE
5
105
100
AcDbEntity
8
0
100
AcDbCircle
10
-4.7205031114173151e-15
20
14.00000028312207
30
0
40
1.4999999999999989
210
3.4045953094161118e-35
220
3.4045953094161128e-35
230
1
0
CIRCLE
5
106
100
AcDbEntity
8
0
100
AcDbCircle
10
-14.000000283122066
20
2.5354364684651833e-16
30
0
40
1.4999999999999989
210
-1.6036588260553169e-50
220
-6.8091906188322246e-35
230
1
0
CIRCLE
5
107
100
AcDbEntity
8
0
100
AcDbCircle
10
3.8890872965260121
20
-3.8890872965260121
30
0
40
1.5000000000000009
210
-1.0691058840368783e-50
220
-6.8091906188322246e-35
230
1
0
LWPOLYLINE
5
108
100
AcDbEntity
8
0
100
AcDbPolyline
90
14
70
1
43
0.0
10
-10.141834276497139
20
6.6063003705644032
10
-7.778174593052035
20
4.242640687119299
42
-0.16227766016838238
10
-7.3539105243401064
20
3.3941125496954374
42
0.11226004606873646
10
-6.7991989782317201
20
1.9445436482630096
42
-0.30335565818809068
10
-6.7991989782317255
20
-1.9445436482630016
42
0.1122600460687362
10
-7.3539105243401011
20
-3.3941125496954272
42
-0.16227766016838088
10
-7.7781745930520323
20
-4.242640687119291
10
-10.141834276497139
20
-6.6063003705643997
42
-0.51317434481184154
10
-12.546793751622145
20
-6.2111170075658269
42
-0.034404705501501015
10
-13.280000299429895
20
-4.4318844721585258
42
-0.36406074669125554
10
-12.571428863217637
20
-2.6380264779247868
42
0.59568339940687109
10
-12.571428863217635
20
2.6380264779247864
42
-0.3640607466912536
10
-13.280000299429899
20
4.4318844721585027
42
-0.034404705501501688
10
-12.546793751622134
20
6.2111170075658393
42
-0.51317434481184265
0
LWPOLYLINE
5
109
100
AcDbEntity
8
0
100
AcDbPolyline
90
14
70
1
43
0.0
10
-6.6063003705644032
20
-10.141834276497139
10
-4.2426406871192981
20
-7.778174593052035
42
-0.16227766016837816
10
-3.3941125496954379
20
-7.3539105243401037
42
0.11226004606873632
10
-1.9445436482630118
20
-6.7991989782317219
42
-0.30335565818809063
10
1.9445436482629996
20
-6.7991989782317219
42
0.11226004606873673
10
3.394112549695433
20
-7.3539105243401011
42
-0.16227766016837861
10
4.2426406871192945
20
-7.7781745930520305
10
6.6063003705644014
20
-10.141834276497137
42
-0.51317434481184354
10
6.211117007565826
20
-12.546793751622143
42
-0.034404705501501015
10
4.4318844721585249
20
-13.280000299429897
42
-0.36406074669125521
10
2.6380264779247842
20
-12.571428863217637
42
0.59568339940687076
10
-2.6380264779247882
20
-12.571428863217633
42
-0.36406074669125349
10
-4.4318844721585382
20
-13.280000299429881
42
-0.034404705501501015
10
-6.2111170075658411
20
-12.546793751622133
42
-0.51317434481183954
0
CIRCLE
5
110
100
AcDbEntity
8
0
100
AcDbCircle
10
-3.889087296526013
20
-3.8890872965260108
30
0
40
1.5000000000000009
210
-1.0691058840368783e-50
220
-6.8091906188322246e-35
230
1
0
CIRCLE
5
111
100
AcDbEntity
8
0
100
AcDbCircle
10
3.8890872965260117
20
3.8890872965260135
30
0
40
1.5000000000000009
210
-1.0691058840368783e-50
220
-6.8091906188322246e-35
230
1
0
CIRCLE
5
112
100
AcDbEntity
8
0
100
AcDbCircle
10
-1.3898340375418461e-15
20
-14.000000283122066
30
0
40
1.4999999999999989
210
-1.6036588260553169e-50
220
-6.8091906188322246e-35
230
1
0
LWPOLYLINE
5
113
100
AcDbEntity
8
0
100
AcDbPolyline
90
72
70
1
43
0.0
10
-24.985362075093324
20
11.488328075768383
10
-17.084614472449509
20
8.6126911199560023
10
-18.623705117415021
20
4.3840743264194124
10
-26.524452720058829
20
7.2597112822318168
42
0.046344728839001807
10
-27.407799984675894
20
2.2500000000000075
10
-19.000000000000004
20
2.2500000000000071
10
-19.000000000000007
20
-2.2499999999999942
10
-27.407799984675894
20
-2.2499999999999911
42
0.046344728839001655
10
-26.524452720058825
20
-7.2597112822318
10
-18.623705117415021
20
-4.384074326419416
10
-17.084614472449505
20
-8.6126911199560041
10
-24.98536207509332
20
-11.488328075768408
42
0.046344728839001495
10
-22.441864998172122
20
-15.893794241898867
10
-16.001116541055303
20
-10.489364587026543
10
-13.10857229746588
20
-13.936564581061948
10
-19.549320754582677
20
-19.340994235934286
42
0.046344728839001495
10
-15.652457150852976
20
-22.610851048572055
10
-11.448557158515001
20
-15.32948267190433
10
-7.5514428414850254
20
-17.579482671904334
10
-11.755342833822978
20
-24.860851048572062
42
0.046344728839002258
10
-6.9751319654761357
20
-26.600705518166112
10
-5.5151328199491463
20
-18.320638907481364
10
-1.0834979313942079
20
-19.102055706982554
10
-2.5434970769212208
20
-27.382122317667292
42
0.046344728839001807
10
2.5434970769212151
20
-27.382122317667292
10
1.0834979313942079
20
-19.102055706982554
10
5.5151328199491445
20
-18.320638907481367
10
6.9751319654761605
20
-26.600705518166116
42
0.046344728839001807
10
11.755342833822954
20
-24.860851048572083
10
7.5514428414850148
20
-17.579482671904341
10
11.448557158514996
20
-15.329482671904341
10
15.652457150852943
20
-22.610851048572087
42
0.046344728839002106
10
19.549320754582666
20
-19.340994235934296
10
13.108572297465869
20
-13.936564581061951
10
16.001116541055293
20
-10.48936458702655
10
22.4418649981721
20
-15.893794241898892
42
0.046344728839001495
10
24.985362075093306
20
-11.488328075768436
10
17.084614472449498
20
-8.6126911199560041
10
18.623705117415021
20
-4.3840743264194169
10
26.524452720058814
20
-7.2597112822318195
42
0.046344728839001807
10
27.40779998467589
20
-2.2500000000000115
10
19.000000000000007
20
-2.2500000000000009
10
19.000000000000007
20
2.2500000000000013
10
27.407799984675897
20
2.2500000000000022
42
0.046344728839001807
10
26.524452720058839
20
7.2597112822318106
10
18.623705117415021
20
4.384074326419408
10
17.084614472449505
20
8.6126911199559952
10
24.98536207509332
20
11.488328075768399
42
0.04634472883900196
10
22.441864998172086
20
15.893794241898895
10
16.001116541055303
20
10.489364587026541
10
13.108572297465875
20
13.936564581061946
10
19.549320754582673
20
19.340994235934275
42
0.046344728839001655
10
15.652457150852946
20
22.610851048572059
10
11.448557158514991
20
15.32948267190433
10
7.5514428414850165
20
17.57948267190433
10
11.755342833822962
20
24.860851048572069
42
0.04634472883900196
10
6.9751319654761463
20
26.600705518166112
10
5.5151328199491463
20
18.320638907481364
10
1.0834979313942124
20
19.102055706982551
10
2.5434970769212253
20
27.382122317667292
42
0.046344728839001807
10
-2.5434970769212129
20
27.382122317667292
10
-1.0834979313942095
20
19.102055706982544
10
-5.5151328199491463
20
18.320638907481356
10
-6.9751319654761623
20
26.600705518166112
42
0.046344728839002106
10
-11.755342833822979
20
24.860851048572066
10
-7.5514428414850157
20
17.579482671904337
10
-11.448557158514991
20
15.329482671904335
10
-15.652457150852941
20
22.61085104857208
42
0.046344728839001655
10
-19.549320754582666
20
19.340994235934296
10
-13.108572297465866
20
13.936564581061951
10
-16.001116541055293
20
10.489364587026554
10
-22.44186499817209
20
15.893794241898892
42
0.046344728839002106
0
ENDSEC
0
SECTION
2
OBJECTS
0
DICTIONARY
5
C
100
AcDbDictionary
3
ACAD_GROUP
350
D
3
ACAD_MLINESTYLE
350
17
0
DICTIONARY
5
D
100
AcDbDictionary
0
DICTIONARY
5
1A
330
C
100
AcDbDictionary
0
DICTIONARY
5
17
100
AcDbDictionary
0
ENDSEC
0
EOF
