0
SECTION
2
HEADER
9
$INSUNITS
70
4
9
$ACADVER
1
AC1014
9
$HANDSEED
5
FFFF
0
ENDSEC
0
SECTION
2
TABLES
0
TABLE
2
VPORT
5
8
100
AcDbSymbolTable
0
ENDTAB
0
TABLE
2
LTYPE
5
5
100
AcDbSymbolTable
0
LTYPE
5
14
100
AcDbSymbolTableRecord
100
AcDbLinetypeTableRecord
2
BYBLOCK
70
0
0
LTYPE
5
15
100
AcDbSymbolTableRecord
100
AcDbLinetypeTableRecord
2
BYLAYER
70
0
0
LTYPE
5
16
100
AcDbSymbolTableRecord
100
AcDbLinetypeTableRecord
2
DASHED
70
0
3
Dashed __ __ __ __ __ __ __ __ __ __ __ __ __ _
72
65
73
2
40
0.75
49
0.5
74
0
49
-0.25
74
0
0
ENDTAB
0
TABLE
2
LAYER
5
2
100
AcDbSymbolTable
70
3
0
LAYER
5
50
100
AcDbSymbolTableRecord
100
AcDbLayerTableRecord
2
1
70
0
62
7
6
DASHED
0
LAYER
5
51
100
AcDbSymbolTableRecord
100
AcDbLayerTableRecord
2
0
70
0
62
7
6
CONTINUOUS
0
ENDTAB
0
TABLE
2
STYLE
5
3
100
AcDbSymbolTable
70
1
0
STYLE
5
11
100
AcDbSymbolTableRecord
100
AcDbTextStyleTableRecord
2
STANDARD
70
0
0
ENDTAB
0
TABLE
2
VIEW
5
6
100
AcDbSymbolTable
70
0
0
ENDTAB
0
TABLE
2
UCS
5
7
100
AcDbSymbolTable
70
0
0
ENDTAB
0
TABLE
2
APPID
5
9
100
AcDbSymbolTable
70
2
0
APPID
5
12
100
AcDbSymbolTableRecord
100
AcDbRegAppTableRecord
2
ACAD
70
0
0
ENDTAB
0
TABLE
2
DIMSTYLE
5
A
100
AcDbSymbolTable
70
1
0
ENDTAB
0
TABLE
2
BLOCK_RECORD
5
1
100
AcDbSymbolTable
70
1
0
BLOCK_RECORD
5
1F
100
AcDbSymbolTableRecord
100
AcDbBlockTableRecord
2
*MODEL_SPACE
0
BLOCK_RECORD
5
1B
100
AcDbSymbolTableRecord
100
AcDbBlockTableRecord
2
*PAPER_SPACE
0
ENDTAB
0
ENDSEC
0
SECTION
2
BLOCKS
0
BLOCK
5
20
100
AcDbEntity
100
AcDbBlockBegin
2
*MODEL_SPACE
0
ENDBLK
5
21
100
AcDbEntity
100
AcDbBlockEnd
0
BLOCK
5
1C
100
AcDbEntity
100
AcDbBlockBegin
2
*PAPER_SPACE
0
ENDBLK
5
1D
100
AcDbEntity
100
AcDbBlockEnd
0
ENDSEC
0
SECTION
2
ENTITIES
0
CIRCLE
5
100
100
AcDbEntity
8
0
100
AcDbCircle
10
9.8994950841256362
20
9.8994950841256326
30
0
40
1.4999999999999958
210
0
220
-0
230
1
0
CIRCLE
5
101
100
AcDbEntity
8
0
100
AcDbCircle
10
9.8994950841256379
20
-9.8994950841256362
30
0
40
1.5000000000000013
210
0
220
-0
230
1
0
LWPOLYLINE
5
102
100
AcDbEntity
8
0
100
AcDbPolyline
90
14
70
1
43
0.0
10
-4.4800000000000066
20
13.263845596206247
42
0.02428762937541672
10
-5.7451946305369717
20
12.766860955506999
42
0.37998073732760312
10
-6.560595169323312
20
10.94913662242956
42
-0.60623537916551218
10
-10.94913662242956
20
6.56059516932332
42
0.37998073732760013
10
-12.766860955506996
20
5.7451946305369859
42
0.024287629375417865
10
-13.263845596206254
20
4.4800000000000049
42
0.51317434722805277
10
-11.84271928232701
20
2.5000000000000022
10
-9.3499999999999979
20
2.5000000000000027
42
0.16227766016838135
10
-8.4500000000000011
20
2.8000000000000016
42
-0.24826066002403019
10
-5.2163038161211741
20
3.3113038161211668
42
0.62365350642598383
10
-3.3113038161211641
20
5.2163038161211706
42
-0.24826066002403041
10
-2.7999999999999989
20
8.4500000000000028
42
0.16227766016838016
10
-2.4999999999999991
20
9.3500000000000032
10
-2.4999999999999987
20
11.842719282327014
42
0.51317434722805744
0
LWPOLYLINE
5
103
100
AcDbEntity
8
0
100
AcDbPolyline
90
14
70
1
43
0.0
10
-13.263845596206259
20
-4.4800000000000022
42
0.024287629375419294
10
-12.766860955507005
20
-5.7451946305369805
42
0.3799807373276014
10
-10.949136622429563
20
-6.5605951693233173
42
-0.60623537916551262
10
-6.56059516932332
20
-10.949136622429563
42
0.37998073732759891
10
-5.7451946305369894
20
-12.766860955506996
42
0.024287629375421012
10
-4.4800000000000049
20
-13.263845596206252
42
0.51317434722805533
10
-2.4999999999999996
20
-11.84271928232701
10
-2.5
20
-9.3500000000000032
42
0.16227766016838036
10
-2.8000000000000016
20
-8.4500000000000011
42
-0.24826066002403008
10
-3.3113038161211659
20
-5.2163038161211741
42
0.62365350642598438
10
-5.2163038161211741
20
-3.3113038161211632
42
-0.24826066002403008
10
-8.4499999999999993
20
-2.799999999999998
42
0.16227766016838072
10
-9.3500000000000032
20
-2.4999999999999973
10
-11.842719282327012
20
-2.4999999999999969
42
0.51317434722805411
0
LWPOLYLINE
5
104
100
AcDbEntity
8
0
100
AcDbPolyline
90
80
70
1
43
0.0
10
-26.761655010083846
20
-6.3295988120301905
10
-18.765362046951555
20
-3.7314457314599014
10
-17.37478557226429
20
-8.0112000547880911
10
-25.371078535396592
20
-10.609353135358361
42
0.03760265286882155
10
-23.495892783690294
20
-14.289612391430724
10
-16.693839710782068
20
-9.3476315562133561
10
-14.04880607546594
20
-12.988208030900621
10
-20.850859148374148
20
-17.930188866117991
42
0.037602652868822105
10
-17.930188866117994
20
-20.850859148374159
10
-12.988208030900626
20
-14.048806075465938
10
-9.3476315562133614
20
-16.693839710782065
10
-14.28961239143073
20
-23.49589278369028
42
0.037602652868822847
10
-10.60935313535837
20
-25.371078535396592
10
-8.0112000547881017
20
-17.374785572264287
10
-3.7314457314599103
20
-18.765362046951552
10
-6.329598812030186
20
-26.76165501008385
42
0.037602652868822847
10
-2.2500000000000031
20
-27.407799984675897
10
-2.2500000000000009
20
-19.000000000000004
10
2.2500000000000009
20
-19.000000000000004
10
2.2500000000000013
20
-27.407799984675904
42
0.037602652868823215
10
6.3295988120302056
20
-26.761655010083846
10
3.7314457314599059
20
-18.765362046951552
10
8.0112000547880982
20
-17.374785572264287
10
10.609353135358376
20
-25.371078535396585
42
0.037602652868823035
10
14.28961239143074
20
-23.495892783690291
10
9.3476315562133561
20
-16.693839710782068
10
12.988208030900621
20
-14.04880607546594
10
17.930188866117987
20
-20.850859148374148
42
0.037602652868822847
10
20.850859148374141
20
-17.930188866118009
10
14.048806075465938
20
-12.988208030900623
10
16.693839710782065
20
-9.3476315562133596
10
23.495892783690291
20
-14.289612391430728
42
0.037602652868822847
10
25.371078535396592
20
-10.609353135358369
10
17.374785572264294
20
-8.0112000547880982
10
18.765362046951552
20
-3.7314457314599059
10
26.76165501008385
20
-6.3295988120301807
42
0.03760265286882248
10
27.407799984675897
20
-2.2499999999999987
10
19.000000000000007
20
-2.2499999999999964
10
19.000000000000007
20
2.2500000000000053
10
27.407799984675904
20
2.2500000000000053
42
0.037602652868821917
10
26.761655010083857
20
6.3295988120301905
10
18.765362046951552
20
3.7314457314599059
10
17.374785572264294
20
8.0112000547880982
10
25.371078535396599
20
10.60935313535837
42
0.03760265286882155
10
23.495892783690291
20
14.289612391430735
10
16.693839710782065
20
9.3476315562133561
10
14.048806075465944
20
12.988208030900621
10
20.850859148374159
20
17.930188866117994
42
0.037602652868820995
10
17.930188866117994
20
20.850859148374159
10
12.988208030900621
20
14.048806075465938
10
9.3476315562133614
20
16.693839710782061
10
14.28961239143073
20
23.49589278369028
42
0.03760265286882062
10
10.60935313535837
20
25.371078535396588
10
8.0112000547880982
20
17.374785572264287
10
3.7314457314599103
20
18.765362046951559
10
6.3295988120301825
20
26.76165501008385
42
0.037602652868820252
10
2.2500000000000009
20
27.407799984675897
10
2.2500000000000009
20
19.000000000000004
10
-2.2499999999999987
20
19.000000000000004
10
-2.2499999999999964
20
27.407799984675894
42
0.037602652868820252
10
-6.3295988120301789
20
26.76165501008385
10
-3.7314457314599059
20
18.765362046951559
10
-8.0112000547880946
20
17.374785572264287
10
-10.60935313535837
20
25.371078535396592
42
0.037602652868819884
10
-14.28961239143073
20
23.495892783690302
10
-9.3476315562133561
20
16.693839710782072
10
-12.988208030900621
20
14.048806075465947
10
-17.930188866117994
20
20.85085914837417
42
0.037602652868820065
10
-20.850859148374141
20
17.930188866118012
10
-14.048806075465933
20
12.988208030900626
10
-16.693839710782065
20
9.3476315562133649
10
-23.49589278369028
20
14.289612391430735
42
0.037602652868820807
10
-25.371078535396595
20
10.609353135358353
10
-17.374785572264287
20
8.0112000547880982
10
-18.765362046951552
20
3.7314457314599059
10
-26.76165501008385
20
6.3295988120301825
42
0.037602652868820807
10
-27.407799984675883
20
2.25
10
-19.000000000000004
20
2.2500000000000053
10
-19.000000000000004
20
-2.2499999999999964
10
-27.407799984675904
20
-2.2499999999999947
42
0.037602652868821182
0
CIRCLE
5
105
100
AcDbEntity
8
0
100
AcDbCircle
10
6.3500000000000014
20
1.4099832412739487e-15
30
0
40
1.5000000000000002
210
0
220
-0
230
1
0
CIRCLE
5
106
100
AcDbEntity
8
0
100
AcDbCircle
10
7.7765071745856931e-16
20
6.3499999999999996
30
0
40
1.5000000000000002
210
0
220
-0
230
1
0
CIRCLE
5
107
100
AcDbEntity
8
0
100
AcDbCircle
10
0
20
-6.3499999999999996
30
0
40
1.5000000000000002
210
0
220
-0
230
1
0
LWPOLYLINE
5
108
100
AcDbEntity
8
0
100
AcDbPolyline
90
14
70
1
43
0.0
10
6.56059516932332
20
10.94913662242956
42
0.37998073732759913
10
5.7451946305369974
20
12.766860955507006
42
0.02428762937541815
10
4.4800000000000022
20
13.263845596206254
42
0.51317434722805344
10
2.5000000000000022
20
11.842719282327014
10
2.5000000000000009
20
9.3499999999999979
42
0.16227766016838049
10
2.800000000000002
20
8.4499999999999993
42
-0.24826066002402983
10
3.3113038161211659
20
5.2163038161211759
42
0.62365350642598438
10
5.2163038161211723
20
3.3113038161211694
42
-0.24826066002403019
10
8.4500000000000028
20
2.8000000000000034
42
0.16227766016838235
10
9.3500000000000032
20
2.5000000000000027
10
11.842719282327014
20
2.5000000000000036
42
0.51317434722805533
10
13.263845596206259
20
4.480000000000012
42
0.024287629375419294
10
12.766860955507003
20
5.7451946305369948
42
0.37998073732759891
10
10.949136622429563
20
6.5605951693233155
42
-0.6062353791655124
0
CIRCLE
5
109
100
AcDbEntity
8
0
100
AcDbCircle
10
4.1522341120980855e-13
20
-1.0857981180834031e-12
30
0
40
2
210
0
220
-0
230
1
0
CIRCLE
5
110
100
AcDbEntity
8
0
100
AcDbCircle
10
-6.3499999999999996
20
1.4099832412739487e-15
30
0
40
1.5000000000000002
210
0
220
-0
230
1
0
LWPOLYLINE
5
111
100
AcDbEntity
8
0
100
AcDbPolyline
90
14
70
1
43
0.0
10
10.949136622429565
20
-6.5605951693233191
42
0.37998073732759924
10
12.766860955507012
20
-5.7451946305369939
42
0.024287629375420727
10
13.263845596206254
20
-4.4800000000000066
42
0.5131743472280561
10
11.842719282327018
20
-2.4999999999999982
10
9.3500000000000192
20
-2.4999999999999991
42
0.1622776601683813
10
8.4500000000000135
20
-2.8000000000000029
42
-0.24826066002403055
10
5.2163038161211723
20
-3.311303816121173
42
0.62365350642598505
10
3.3113038161211659
20
-5.216303816121175
42
-0.24826066002403041
10
2.799999999999998
20
-8.4500000000000046
42
0.16227766016837986
10
2.4999999999999996
20
-9.3500000000000032
10
2.5000000000000004
20
-11.842719282327018
42
0.51317434722805555
10
4.4800000000000013
20
-13.263845596206259
42
0.024287629375421869
10
5.7451946305369974
20
-12.766860955506999
42
0.37998073732759879
10
6.56059516932332
20
-10.94913662242956
42
-0.60623537916551218
0
CIRCLE
5
112
100
AcDbEntity
8
0
100
AcDbCircle
10
-9.8994950841256362
20
-9.8994950841256344
30
0
40
1.4999999999999969
210
0
220
-0
230
1
0
CIRCLE
5
113
100
AcDbEntity
8
0
100
AcDbCircle
10
-9.8994950841256326
20
9.8994950841256379
30
0
40
1.5000000000000013
210
0
220
-0
230
1
0
ENDSEC
0
SECTION
2
OBJECTS
0
DICTIONARY
5
C
100
AcDbDictionary
3
ACAD_GROUP
350
D
3
ACAD_MLINESTYLE
350
17
0
DICTIONARY
5
D
100
AcDbDictionary
0
DICTIONARY
5
1A
330
C
100
AcDbDictionary
0
DICTIONARY
5
17
100
AcDbDictionary
0
ENDSEC
0
EOF
