0
SECTION
2
HEADER
9
$INSUNITS
70
4
9
$ACADVER
1
AC1014
9
$HANDSEED
5
FFFF
0
ENDSEC
0
SECTION
2
TABLES
0
TABLE
2
VPORT
5
8
100
AcDbSymbolTable
0
ENDTAB
0
TABLE
2
LTYPE
5
5
100
AcDbSymbolTable
0
LTYPE
5
14
100
AcDbSymbolTableRecord
100
AcDbLinetypeTableRecord
2
BYBLOCK
70
0
0
LTYPE
5
15
100
AcDbSymbolTableRecord
100
AcDbLinetypeTableRecord
2
BYLAYER
70
0
0
LTYPE
5
16
100
AcDbSymbolTableRecord
100
AcDbLinetypeTableRecord
2
DASHED
70
0
3
Dashed __ __ __ __ __ __ __ __ __ __ __ __ __ _
72
65
73
2
40
0.75
49
0.5
74
0
49
-0.25
74
0
0
ENDTAB
0
TABLE
2
LAYER
5
2
100
AcDbSymbolTable
70
3
0
LAYER
5
50
100
AcDbSymbolTableRecord
100
AcDbLayerTableRecord
2
1
70
0
62
7
6
DASHED
0
LAYER
5
51
100
AcDbSymbolTableRecord
100
AcDbLayerTableRecord
2
0
70
0
62
7
6
CONTINUOUS
0
ENDTAB
0
TABLE
2
STYLE
5
3
100
AcDbSymbolTable
70
1
0
STYLE
5
11
100
AcDbSymbolTableRecord
100
AcDbTextStyleTableRecord
2
STANDARD
70
0
0
ENDTAB
0
TABLE
2
VIEW
5
6
100
AcDbSymbolTable
70
0
0
ENDTAB
0
TABLE
2
UCS
5
7
100
AcDbSymbolTable
70
0
0
ENDTAB
0
TABLE
2
APPID
5
9
100
AcDbSymbolTable
70
2
0
APPID
5
12
100
AcDbSymbolTableRecord
100
AcDbRegAppTableRecord
2
ACAD
70
0
0
ENDTAB
0
TABLE
2
DIMSTYLE
5
A
100
AcDbSymbolTable
70
1
0
ENDTAB
0
TABLE
2
BLOCK_RECORD
5
1
100
AcDbSymbolTable
70
1
0
BLOCK_RECORD
5
1F
100
AcDbSymbolTableRecord
100
AcDbBlockTableRecord
2
*MODEL_SPACE
0
BLOCK_RECORD
5
1B
100
AcDbSymbolTableRecord
100
AcDbBlockTableRecord
2
*PAPER_SPACE
0
ENDTAB
0
ENDSEC
0
SECTION
2
BLOCKS
0
BLOCK
5
20
100
AcDbEntity
100
AcDbBlockBegin
2
*MODEL_SPACE
0
ENDBLK
5
21
100
AcDbEntity
100
AcDbBlockEnd
0
BLOCK
5
1C
100
AcDbEntity
100
AcDbBlockBegin
2
*PAPER_SPACE
0
ENDBLK
5
1D
100
AcDbEntity
100
AcDbBlockEnd
0
ENDSEC
0
SECTION
2
ENTITIES
0
CIRCLE
5
100
100
AcDbEntity
8
0
100
AcDbCircle
10
1.7145055443544177e-15
20
14.000000208616257
30
0
40
1.5000000000000009
210
0
220
-0
230
1
0
CIRCLE
5
101
100
AcDbEntity
8
0
100
AcDbCircle
10
-14.000000208616257
20
3.1086245152725526e-15
30
0
40
1.5000000000000013
210
0
220
-0
230
1
0
CIRCLE
5
102
100
AcDbEntity
8
0
100
AcDbCircle
10
14.000000208616258
20
3.1086245152725526e-15
30
0
40
1.5000000000000013
210
0
220
-0
230
1
0
CIRCLE
5
103
100
AcDbEntity
8
0
100
AcDbCircle
10
0
20
-14.000000208616257
30
0
40
1.5000000000000009
210
0
220
-0
230
1
0
CIRCLE
5
104
100
AcDbEntity
8
0
100
AcDbCircle
10
-6.3499999999999996
20
1.4099832412739487e-15
30
0
40
1.5000000000000002
210
0
220
-0
230
1
0
CIRCLE
5
105
100
AcDbEntity
8
0
100
AcDbCircle
10
0
20
0
30
0
40
2
210
0
220
-0
230
1
0
LWPOLYLINE
5
106
100
AcDbEntity
8
0
100
AcDbPolyline
90
14
70
1
43
0.0
10
11.000000208616271
20
2.5000000000000036
10
9.3500000000000032
20
2.5000000000000027
42
-0.16227766016838238
10
8.4500000000000028
20
2.8000000000000047
42
0.24826066002403019
10
5.2163038161211741
20
3.3113038161211721
42
-0.62365350642598438
10
3.3113038161211659
20
5.2163038161211759
42
0.24826066002402983
10
2.8000000000000029
20
8.4499999999999993
42
-0.16227766016838044
10
2.5000000000000009
20
9.3499999999999979
10
2.5000000000000027
20
11.000000208616269
42
-0.1622776601683785
10
2.7999999999999998
20
11.900000208616266
42
0.040694501240282323
10
3.1031674210096916
20
12.381250086706137
42
-0.37998073732759891
10
4.9650678736155154
20
13.090000038594013
42
-0.21463834104742011
10
13.09000003859402
20
4.9650678736155305
42
-0.37998073732760007
10
12.381250086706142
20
3.1031674210096942
42
0.040694501240282149
10
11.90000020861627
20
2.8000000000000025
42
-0.16227766016837908
0
CIRCLE
5
107
100
AcDbEntity
8
0
100
AcDbCircle
10
0
20
-6.3499999999999996
30
0
40
1.5000000000000002
210
0
220
-0
230
1
0
LWPOLYLINE
5
108
100
AcDbEntity
8
0
100
AcDbPolyline
90
14
70
1
43
0.0
10
-11.000000208616267
20
-2.4999999999999978
10
-9.3500000000000032
20
-2.4999999999999964
42
-0.16227766016838066
10
-8.4499999999999993
20
-2.7999999999999985
42
0.24826066002403011
10
-5.2163038161211741
20
-3.3113038161211668
42
-0.62365350642598438
10
-3.3113038161211668
20
-5.2163038161211741
42
0.24826066002403011
10
-2.8000000000000016
20
-8.4500000000000011
42
-0.16227766016838033
10
-2.5
20
-9.3500000000000032
10
-2.5000000000000009
20
-11.000000208616269
42
-0.1622776601683785
10
-2.799999999999998
20
-11.900000208616266
42
0.040694501240282323
10
-3.1031674210096902
20
-12.381250086706137
42
-0.37998073732759891
10
-4.9650678736155092
20
-13.090000038594013
42
-0.21463834104742047
10
-13.090000038594024
20
-4.9650678736155172
42
-0.37998073732759879
10
-12.381250086706139
20
-3.1031674210096885
42
0.040694501240283176
10
-11.900000208616264
20
-2.7999999999999954
42
-0.1622776601683785
0
CIRCLE
5
109
100
AcDbEntity
8
0
100
AcDbCircle
10
7.7765071745856931e-16
20
6.3499999999999996
30
0
40
1.5000000000000002
210
0
220
-0
230
1
0
LWPOLYLINE
5
110
100
AcDbEntity
8
0
100
AcDbPolyline
90
14
70
1
43
0.0
10
2.5
20
-11.000000208616269
10
2.5
20
-9.3500000000000032
42
-0.16227766016837986
10
2.7999999999999985
20
-8.4500000000000046
42
0.24826066002403036
10
3.3113038161211774
20
-5.2163038161211714
42
-0.62365350642598505
10
5.2163038161211723
20
-3.311303816121173
42
0.24826066002403052
10
8.4500000000000117
20
-2.8000000000000043
42
-0.16227766016838135
10
9.3500000000000192
20
-2.4999999999999991
10
11.000000208616274
20
-2.4999999999999991
42
-0.1622776601683785
10
11.90000020861627
20
-2.7999999999999958
42
0.040694501240282496
10
12.381250086706137
20
-3.1031674210096885
42
-0.37998073732759913
10
13.090000038594013
20
-4.9650678736155047
42
-0.21463834104742047
10
4.9650678736155216
20
-13.09000003859402
42
-0.37998073732759913
10
3.1031674210096911
20
-12.381250086706139
42
0.040694501240282496
10
2.7999999999999963
20
-11.900000208616266
42
-0.16227766016837827
0
CIRCLE
5
111
100
AcDbEntity
8
0
100
AcDbCircle
10
6.3500000000000014
20
1.4099832412739487e-15
30
0
40
1.5000000000000002
210
0
220
-0
230
1
0
LWPOLYLINE
5
112
100
AcDbEntity
8
0
100
AcDbPolyline
90
14
70
1
43
0.0
10
-2.4999999999999991
20
11.000000208616271
10
-2.4999999999999991
20
9.3500000000000032
42
-0.16227766016838022
10
-2.7999999999999989
20
8.4500000000000028
42
0.24826066002403036
10
-3.3113038161211672
20
5.2163038161211714
42
-0.62365350642598383
10
-5.2163038161211741
20
3.3113038161211672
42
0.24826066002403019
10
-8.4500000000000011
20
2.8000000000000029
42
-0.16227766016838135
10
-9.3499999999999979
20
2.5000000000000027
10
-11.000000208616264
20
2.5000000000000022
42
-0.16227766016837908
10
-11.900000208616264
20
2.800000000000002
42
0.040694501240282496
10
-12.381250086706135
20
3.1031674210096916
42
-0.37998073732759929
10
-13.090000038594006
20
4.9650678736155109
42
-0.21463834104742024
10
-4.965067873615526
20
13.090000038594019
42
-0.3799807373276004
10
-3.1031674210096893
20
12.381250086706139
42
0.040694501240282149
10
-2.7999999999999972
20
11.900000208616268
42
-0.16227766016837861
0
LWPOLYLINE
5
113
100
AcDbEntity
8
0
100
AcDbPolyline
90
80
70
1
43
0.0
10
-26.761655010083846
20
-6.3295988120301905
10
-18.765362046951555
20
-3.7314457314599014
10
-17.37478557226429
20
-8.0112000547880911
10
-25.371078535396592
20
-10.609353135358361
42
0.037602652868821737
10
-23.495892783690294
20
-14.289612391430724
10
-16.693839710782068
20
-9.3476315562133561
10
-14.04880607546594
20
-12.988208030900621
10
-20.850859148374155
20
-17.930188866117991
42
0.037602652868821737
10
-17.930188866117994
20
-20.850859148374159
10
-12.988208030900626
20
-14.048806075465938
10
-9.3476315562133614
20
-16.693839710782065
10
-14.289612391430733
20
-23.495892783690287
42
0.03760265286882155
10
-10.60935313535837
20
-25.371078535396592
10
-8.0112000547881017
20
-17.374785572264287
10
-3.7314457314599103
20
-18.765362046951552
10
-6.329598812030186
20
-26.76165501008385
42
0.03760265286882155
10
-2.2500000000000031
20
-27.407799984675897
10
-2.2500000000000009
20
-19.000000000000004
10
2.2500000000000009
20
-19.000000000000004
10
2.2500000000000013
20
-27.407799984675894
42
0.037602652868821917
10
6.3295988120302056
20
-26.761655010083846
10
3.7314457314599059
20
-18.765362046951552
10
8.0112000547880982
20
-17.374785572264287
10
10.609353135358376
20
-25.371078535396588
42
0.037602652868821362
10
14.28961239143074
20
-23.495892783690291
10
9.3476315562133561
20
-16.693839710782068
10
12.988208030900621
20
-14.04880607546594
10
17.930188866117991
20
-20.850859148374155
42
0.037602652868821362
10
20.850859148374141
20
-17.930188866118009
10
14.048806075465938
20
-12.988208030900623
10
16.693839710782065
20
-9.3476315562133596
10
23.495892783690291
20
-14.28961239143073
42
0.037602652868821737
10
25.371078535396592
20
-10.609353135358369
10
17.374785572264294
20
-8.0112000547880982
10
18.765362046951552
20
-3.7314457314599059
10
26.761655010083846
20
-6.3295988120301816
42
0.037602652868821737
10
27.407799984675897
20
-2.2499999999999987
10
19.000000000000007
20
-2.2499999999999964
10
19.000000000000007
20
2.2500000000000053
10
27.407799984675897
20
2.2500000000000053
42
0.03760265286882155
10
26.761655010083857
20
6.3295988120301905
10
18.765362046951552
20
3.7314457314599059
10
17.374785572264294
20
8.0112000547880982
10
25.371078535396595
20
10.60935313535837
42
0.03760265286882155
10
23.495892783690291
20
14.289612391430735
10
16.693839710782065
20
9.3476315562133561
10
14.048806075465944
20
12.988208030900621
10
20.850859148374155
20
17.930188866117991
42
0.037602652868821737
10
17.930188866117994
20
20.850859148374159
10
12.988208030900621
20
14.048806075465938
10
9.3476315562133614
20
16.693839710782061
10
14.28961239143073
20
23.49589278369028
42
0.037602652868821737
10
10.60935313535837
20
25.371078535396588
10
8.0112000547880982
20
17.374785572264287
10
3.7314457314599103
20
18.765362046951559
10
6.3295988120301816
20
26.76165501008385
42
0.037602652868821737
10
2.2500000000000009
20
27.407799984675897
10
2.2500000000000009
20
19.000000000000004
10
-2.2499999999999987
20
19.000000000000004
10
-2.2499999999999964
20
27.407799984675894
42
0.037602652868821737
10
-6.3295988120301789
20
26.76165501008385
10
-3.7314457314599059
20
18.765362046951559
10
-8.0112000547880946
20
17.374785572264287
10
-10.609353135358369
20
25.371078535396595
42
0.03760265286882155
10
-14.28961239143073
20
23.495892783690302
10
-9.3476315562133561
20
16.693839710782072
10
-12.988208030900621
20
14.048806075465947
10
-17.930188866117994
20
20.850859148374159
42
0.03760265286882155
10
-20.850859148374141
20
17.930188866118012
10
-14.048806075465933
20
12.988208030900626
10
-16.693839710782065
20
9.3476315562133649
10
-23.49589278369028
20
14.289612391430737
42
0.037602652868821917
10
-25.371078535396595
20
10.609353135358353
10
-17.374785572264287
20
8.0112000547880982
10
-18.765362046951552
20
3.7314457314599059
10
-26.761655010083842
20
6.3295988120301816
42
0.037602652868821917
10
-27.407799984675883
20
2.25
10
-19.000000000000004
20
2.2500000000000053
10
-19.000000000000004
20
-2.2499999999999964
10
-27.407799984675894
20
-2.2499999999999942
42
0.037602652868821917
0
ENDSEC
0
SECTION
2
OBJECTS
0
DICTIONARY
5
C
100
AcDbDictionary
3
ACAD_GROUP
350
D
3
ACAD_MLINESTYLE
350
17
0
DICTIONARY
5
D
100
AcDbDictionary
0
DICTIONARY
5
1A
330
C
100
AcDbDictionary
0
DICTIONARY
5
17
100
AcDbDictionary
0
ENDSEC
0
EOF
