%TF.GenerationSoftware,KiCad,Pcbnew,7.0.6*%
%TF.CreationDate,2024-02-11T22:16:59+09:00*%
%TF.ProjectId,MotorDriver_Right_DRV8874_20240206,4d6f746f-7244-4726-9976-65725f526967,rev?*%
%TF.SameCoordinates,Original*%
%TF.FileFunction,Soldermask,Top*%
%TF.FilePolarity,Negative*%
%FSLAX46Y46*%
G04 Gerber Fmt 4.6, Leading zero omitted, Abs format (unit mm)*
G04 Created by KiCad (PCBNEW 7.0.6) date 2024-02-11 22:16:59*
%MOMM*%
%LPD*%
G01*
G04 APERTURE LIST*
G04 Aperture macros list*
%AMRoundRect*
0 Rectangle with rounded corners*
0 $1 Rounding radius*
0 $2 $3 $4 $5 $6 $7 $8 $9 X,Y pos of 4 corners*
0 Add a 4 corners polygon primitive as box body*
4,1,4,$2,$3,$4,$5,$6,$7,$8,$9,$2,$3,0*
0 Add four circle primitives for the rounded corners*
1,1,$1+$1,$2,$3*
1,1,$1+$1,$4,$5*
1,1,$1+$1,$6,$7*
1,1,$1+$1,$8,$9*
0 Add four rect primitives between the rounded corners*
20,1,$1+$1,$2,$3,$4,$5,0*
20,1,$1+$1,$4,$5,$6,$7,0*
20,1,$1+$1,$6,$7,$8,$9,0*
20,1,$1+$1,$8,$9,$2,$3,0*%
G04 Aperture macros list end*
%ADD10O,1.700000X1.950000*%
%ADD11RoundRect,0.250000X0.600000X0.725000X-0.600000X0.725000X-0.600000X-0.725000X0.600000X-0.725000X0*%
%ADD12RoundRect,0.225000X0.250000X-0.225000X0.250000X0.225000X-0.250000X0.225000X-0.250000X-0.225000X0*%
%ADD13RoundRect,0.200000X0.275000X-0.200000X0.275000X0.200000X-0.275000X0.200000X-0.275000X-0.200000X0*%
%ADD14C,2.700000*%
%ADD15RoundRect,0.250001X-1.099999X1.099999X-1.099999X-1.099999X1.099999X-1.099999X1.099999X1.099999X0*%
%ADD16RoundRect,0.200000X0.200000X0.275000X-0.200000X0.275000X-0.200000X-0.275000X0.200000X-0.275000X0*%
%ADD17RoundRect,0.250000X-0.600000X-0.725000X0.600000X-0.725000X0.600000X0.725000X-0.600000X0.725000X0*%
%ADD18RoundRect,0.200000X-0.200000X-0.275000X0.200000X-0.275000X0.200000X0.275000X-0.200000X0.275000X0*%
%ADD19RoundRect,0.225000X0.225000X0.250000X-0.225000X0.250000X-0.225000X-0.250000X0.225000X-0.250000X0*%
%ADD20C,3.200000*%
%ADD21R,2.460000X2.310000*%
%ADD22RoundRect,0.100000X-0.687500X-0.100000X0.687500X-0.100000X0.687500X0.100000X-0.687500X0.100000X0*%
%ADD23RoundRect,0.250001X-1.099999X-1.099999X1.099999X-1.099999X1.099999X1.099999X-1.099999X1.099999X0*%
%ADD24RoundRect,0.250000X0.850000X0.350000X-0.850000X0.350000X-0.850000X-0.350000X0.850000X-0.350000X0*%
%ADD25RoundRect,0.249997X2.950003X2.650003X-2.950003X2.650003X-2.950003X-2.650003X2.950003X-2.650003X0*%
G04 APERTURE END LIST*
D10*
%TO.C,J4*%
X95734915Y-97162133D03*
X98234915Y-97162133D03*
X100734915Y-97162133D03*
D11*
X103234915Y-97162133D03*
%TD*%
D12*
%TO.C,C8*%
X108712500Y-62007500D03*
X108712500Y-63557500D03*
%TD*%
D13*
%TO.C,R7*%
X108000000Y-94062500D03*
X108000000Y-95712500D03*
%TD*%
D12*
%TO.C,C1*%
X104462500Y-73787500D03*
X104462500Y-75337500D03*
%TD*%
%TO.C,C3*%
X108442500Y-73787500D03*
X108442500Y-75337500D03*
%TD*%
D14*
%TO.C,M4*%
X111684915Y-44617133D03*
D15*
X111684915Y-40657133D03*
%TD*%
D16*
%TO.C,R9*%
X93500000Y-71487500D03*
X95150000Y-71487500D03*
%TD*%
%TO.C,R2*%
X93500000Y-82487500D03*
X95150000Y-82487500D03*
%TD*%
D10*
%TO.C,J5*%
X103234915Y-52112133D03*
X100734915Y-52112133D03*
X98234915Y-52112133D03*
D17*
X95734915Y-52112133D03*
%TD*%
D18*
%TO.C,R5*%
X95150000Y-75487500D03*
X93500000Y-75487500D03*
%TD*%
D12*
%TO.C,C5*%
X110462500Y-73787500D03*
X110462500Y-75337500D03*
%TD*%
D18*
%TO.C,R1*%
X95150000Y-86487500D03*
X93500000Y-86487500D03*
%TD*%
D19*
%TO.C,C4*%
X102187500Y-81437867D03*
X103737500Y-81437867D03*
%TD*%
D16*
%TO.C,R4*%
X93500000Y-88487500D03*
X95150000Y-88487500D03*
%TD*%
D13*
%TO.C,R8*%
X108000000Y-97737500D03*
X108000000Y-99387500D03*
%TD*%
D16*
%TO.C,R10*%
X93500000Y-73487500D03*
X95150000Y-73487500D03*
%TD*%
%TO.C,R11*%
X93500000Y-77487500D03*
X95150000Y-77487500D03*
%TD*%
D12*
%TO.C,C6*%
X108825000Y-82712500D03*
X108825000Y-84262500D03*
%TD*%
D20*
%TO.C,REF\u002A\u002A*%
X114466810Y-63962500D03*
%TD*%
D21*
%TO.C,U1*%
X102962500Y-85362500D03*
D22*
X100100000Y-83087500D03*
X100100000Y-83737500D03*
X100100000Y-84387500D03*
X100100000Y-85037500D03*
X100100000Y-85687500D03*
X100100000Y-86337500D03*
X100100000Y-86987500D03*
X100100000Y-87637500D03*
X105825000Y-87637500D03*
X105825000Y-86987500D03*
X105825000Y-86337500D03*
X105825000Y-85687500D03*
X105825000Y-85037500D03*
X105825000Y-84387500D03*
X105825000Y-83737500D03*
X105825000Y-83087500D03*
%TD*%
D14*
%TO.C,M3*%
X111684915Y-108467867D03*
D15*
X111684915Y-104507867D03*
%TD*%
D19*
%TO.C,C7*%
X102187500Y-59987500D03*
X103737500Y-59987500D03*
%TD*%
D22*
%TO.C,U2*%
X105825000Y-61507500D03*
X105825000Y-62157500D03*
X105825000Y-62807500D03*
X105825000Y-63457500D03*
X105825000Y-64107500D03*
X105825000Y-64757500D03*
X105825000Y-65407500D03*
X105825000Y-66057500D03*
X100100000Y-66057500D03*
X100100000Y-65407500D03*
X100100000Y-64757500D03*
X100100000Y-64107500D03*
X100100000Y-63457500D03*
X100100000Y-62807500D03*
X100100000Y-62157500D03*
X100100000Y-61507500D03*
D21*
X102962500Y-63782500D03*
%TD*%
D13*
%TO.C,R6*%
X107500000Y-53387500D03*
X107500000Y-51737500D03*
%TD*%
D16*
%TO.C,R3*%
X93500000Y-84487500D03*
X95150000Y-84487500D03*
%TD*%
D20*
%TO.C,REF\u002A\u002A*%
X114466810Y-85162500D03*
%TD*%
D14*
%TO.C,VIN*%
X123464915Y-97137133D03*
D23*
X119504915Y-97137133D03*
%TD*%
D24*
%TO.C,D1*%
X122262500Y-72282500D03*
D25*
X115962500Y-74562500D03*
D24*
X122262500Y-76842500D03*
%TD*%
D12*
%TO.C,C2*%
X106462500Y-73787500D03*
X106462500Y-75337500D03*
%TD*%
M02*
