M48
; DRILL file {KiCad 7.0.6} date Sun Feb 11 22:16:59 2024
; FORMAT={-:-/ absolute / inch / decimal}
; #@! TF.CreationDate,2024-02-11T22:16:59+09:00
; #@! TF.GenerationSoftware,Kicad,Pcbnew,7.0.6
; #@! TF.FileFunction,Plated,1,2,PTH
FMAT,2
INCH
; #@! TA.AperFunction,Plated,PTH,ViaDrill
T1C0.0157
; #@! TA.AperFunction,Plated,PTH,ComponentDrill
T2C0.0374
; #@! TA.AperFunction,Plated,PTH,ComponentDrill
T3C0.0669
%
G90
G05
T1
X3.6811Y-2.7584
X3.6811Y-3.1718
X3.6811Y-3.5458
X3.8317Y-2.8145
X3.8317Y-2.8932
X3.8317Y-2.9719
X3.8317Y-3.0507
X3.8317Y-3.1885
X3.8317Y-3.2475
X3.8448Y-3.1127
X3.8506Y-2.5377
X3.8509Y-2.5778
X3.8513Y-2.459
X3.8514Y-2.4196
X3.8514Y-2.6176
X3.8514Y-2.4983
X3.9911Y-2.8568
X4.0354Y-3.7426
X4.0876Y-2.6538
X4.0876Y-2.6932
X4.0876Y-2.7326
X4.0876Y-2.7719
X4.0876Y-3.5034
X4.0876Y-3.5428
X4.0876Y-3.5822
X4.127Y-2.6538
X4.127Y-2.6932
X4.127Y-2.7326
X4.127Y-2.7719
X4.127Y-3.5034
X4.127Y-3.5428
X4.127Y-3.5822
X4.1663Y-2.6538
X4.1663Y-2.6932
X4.1663Y-2.7326
X4.1663Y-2.7719
X4.1663Y-3.5034
X4.1663Y-3.5428
X4.1663Y-3.5822
X4.2057Y-2.6538
X4.2057Y-2.6932
X4.2057Y-2.7326
X4.2057Y-2.7719
X4.2057Y-3.5034
X4.2057Y-3.5428
X4.2057Y-3.5822
X4.2323Y-1.971
X4.2451Y-2.6538
X4.2451Y-2.6932
X4.2451Y-2.7326
X4.2451Y-2.7719
X4.2451Y-3.5034
X4.2451Y-3.5428
X4.2451Y-3.5822
X4.2844Y-2.6538
X4.2844Y-2.6932
X4.2844Y-2.7326
X4.2844Y-2.7719
X4.2844Y-3.5034
X4.2844Y-3.5428
X4.2844Y-3.5822
X4.3238Y-2.6538
X4.3238Y-2.6932
X4.3238Y-2.7326
X4.3238Y-2.7719
X4.3238Y-3.5034
X4.3238Y-3.5428
X4.3238Y-3.5822
X4.3307Y-3.6836
X4.3307Y-3.8214
X4.3632Y-2.6538
X4.3632Y-2.6932
X4.3632Y-2.7326
X4.3632Y-2.7719
X4.3632Y-3.5034
X4.3632Y-3.5428
X4.3632Y-3.5822
X4.4291Y-2.1063
X4.4291Y-3.9173
X4.7835Y-2.1063
T2
X3.7691Y-2.0517
X3.7691Y-3.8253
X3.8675Y-2.0517
X3.8675Y-3.8253
X3.9659Y-2.0517
X3.9659Y-3.8253
X4.0644Y-2.0517
X4.0644Y-3.8253
T3
X4.397Y-1.6007
X4.397Y-1.7566
X4.397Y-4.1145
X4.397Y-4.2704
X4.7049Y-3.8243
X4.8608Y-3.8243
T0
M30
