%TF.GenerationSoftware,KiCad,Pcbnew,7.0.6*%
%TF.CreationDate,2023-12-18T00:28:03+09:00*%
%TF.ProjectId,Controller_20220713_TOINIOT2,436f6e74-726f-46c6-9c65-725f32303232,rev?*%
%TF.SameCoordinates,Original*%
%TF.FileFunction,Soldermask,Bot*%
%TF.FilePolarity,Negative*%
%FSLAX46Y46*%
G04 Gerber Fmt 4.6, Leading zero omitted, Abs format (unit mm)*
G04 Created by KiCad (PCBNEW 7.0.6) date 2023-12-18 00:28:03*
%MOMM*%
%LPD*%
G01*
G04 APERTURE LIST*
G04 Aperture macros list*
%AMRoundRect*
0 Rectangle with rounded corners*
0 $1 Rounding radius*
0 $2 $3 $4 $5 $6 $7 $8 $9 X,Y pos of 4 corners*
0 Add a 4 corners polygon primitive as box body*
4,1,4,$2,$3,$4,$5,$6,$7,$8,$9,$2,$3,0*
0 Add four circle primitives for the rounded corners*
1,1,$1+$1,$2,$3*
1,1,$1+$1,$4,$5*
1,1,$1+$1,$6,$7*
1,1,$1+$1,$8,$9*
0 Add four rect primitives between the rounded corners*
20,1,$1+$1,$2,$3,$4,$5,0*
20,1,$1+$1,$4,$5,$6,$7,0*
20,1,$1+$1,$6,$7,$8,$9,0*
20,1,$1+$1,$8,$9,$2,$3,0*%
G04 Aperture macros list end*
%ADD10C,3.200000*%
%ADD11RoundRect,0.250000X-0.725000X0.600000X-0.725000X-0.600000X0.725000X-0.600000X0.725000X0.600000X0*%
%ADD12O,1.950000X1.700000*%
%ADD13RoundRect,0.250000X-0.600000X-0.725000X0.600000X-0.725000X0.600000X0.725000X-0.600000X0.725000X0*%
%ADD14O,1.700000X1.950000*%
%ADD15RoundRect,0.250000X0.600000X0.725000X-0.600000X0.725000X-0.600000X-0.725000X0.600000X-0.725000X0*%
%ADD16O,1.512000X2.300000*%
%ADD17R,1.600000X1.600000*%
%ADD18C,1.600000*%
%ADD19RoundRect,0.250000X0.725000X-0.600000X0.725000X0.600000X-0.725000X0.600000X-0.725000X-0.600000X0*%
%ADD20O,1.600000X1.600000*%
%ADD21C,1.524000*%
%ADD22RoundRect,0.250000X0.750000X-0.600000X0.750000X0.600000X-0.750000X0.600000X-0.750000X-0.600000X0*%
%ADD23O,2.000000X1.700000*%
%ADD24R,1.000000X1.500000*%
G04 APERTURE END LIST*
D10*
%TO.C,REF\u002A\u002A*%
X85000000Y-20000000D03*
%TD*%
%TO.C,REF\u002A\u002A*%
X50000000Y-20000000D03*
%TD*%
D11*
%TO.C,CN1*%
X27500000Y-26500000D03*
D12*
X27500000Y-29000000D03*
X27500000Y-31500000D03*
%TD*%
D13*
%TO.C,I2C1*%
X42750000Y-81975000D03*
D14*
X45250000Y-81975000D03*
X47750000Y-81975000D03*
X50250000Y-81975000D03*
%TD*%
D11*
%TO.C,CN2*%
X27500000Y-37500000D03*
D12*
X27500000Y-40000000D03*
X27500000Y-42500000D03*
%TD*%
D15*
%TO.C,I2C3*%
X67250000Y-43025000D03*
D14*
X64750000Y-43025000D03*
X62250000Y-43025000D03*
X59750000Y-43025000D03*
%TD*%
D10*
%TO.C,REF\u002A\u002A*%
X90000000Y-65000000D03*
%TD*%
%TO.C,REF\u002A\u002A*%
X20000000Y-35000000D03*
%TD*%
%TO.C,REF\u002A\u002A*%
X60000000Y-20000000D03*
%TD*%
%TO.C,REF\u002A\u002A*%
X70000000Y-105000000D03*
%TD*%
D11*
%TO.C,CN17*%
X60725000Y-82500000D03*
D12*
X60725000Y-85000000D03*
X60725000Y-87500000D03*
%TD*%
D16*
%TO.C,RESET2*%
X78750000Y-28500000D03*
X85250000Y-28500000D03*
%TD*%
D10*
%TO.C,REF\u002A\u002A*%
X25000000Y-20000000D03*
%TD*%
%TO.C,REF\u002A\u002A*%
X40000000Y-105000000D03*
%TD*%
%TO.C,REF\u002A\u002A*%
X40000000Y-20000000D03*
%TD*%
%TO.C,REF\u002A\u002A*%
X70000000Y-20000000D03*
%TD*%
D16*
%TO.C,RESET*%
X31250000Y-96500000D03*
X24750000Y-96500000D03*
%TD*%
D10*
%TO.C,REF\u002A\u002A*%
X20000000Y-40000000D03*
%TD*%
D17*
%TO.C,C1*%
X74500000Y-37817621D03*
D18*
X74500000Y-40317621D03*
%TD*%
D10*
%TO.C,REF\u002A\u002A*%
X60000000Y-105000000D03*
%TD*%
%TO.C,REF\u002A\u002A*%
X35000000Y-105000000D03*
%TD*%
%TO.C,REF\u002A\u002A*%
X20000000Y-80000000D03*
%TD*%
%TO.C,REF\u002A\u002A*%
X45000000Y-105000000D03*
%TD*%
%TO.C,REF\u002A\u002A*%
X20000000Y-50000000D03*
%TD*%
%TO.C,REF\u002A\u002A*%
X90000000Y-25000000D03*
%TD*%
D19*
%TO.C,CN11*%
X82500000Y-98500000D03*
D12*
X82500000Y-96000000D03*
X82500000Y-93500000D03*
%TD*%
D10*
%TO.C,REF\u002A\u002A*%
X30000000Y-20000000D03*
%TD*%
%TO.C,REF\u002A\u002A*%
X90000000Y-80000000D03*
%TD*%
%TO.C,REF\u002A\u002A*%
X55000000Y-105000000D03*
%TD*%
%TO.C,REF\u002A\u002A*%
X20000000Y-75000000D03*
%TD*%
%TO.C,REF\u002A\u002A*%
X90000000Y-95000000D03*
%TD*%
%TO.C,REF\u002A\u002A*%
X90000000Y-30000000D03*
%TD*%
%TO.C,REF\u002A\u002A*%
X90000000Y-105000000D03*
%TD*%
%TO.C,REF\u002A\u002A*%
X90000000Y-60000000D03*
%TD*%
%TO.C,REF\u002A\u002A*%
X75000000Y-20000000D03*
%TD*%
%TO.C,REF\u002A\u002A*%
X90000000Y-85000000D03*
%TD*%
%TO.C,REF\u002A\u002A*%
X90000000Y-75000000D03*
%TD*%
%TO.C,REF\u002A\u002A*%
X20000000Y-100000000D03*
%TD*%
%TO.C,REF\u002A\u002A*%
X75000000Y-105000000D03*
%TD*%
%TO.C,REF\u002A\u002A*%
X90000000Y-55000000D03*
%TD*%
%TO.C,REF\u002A\u002A*%
X65000000Y-20000000D03*
%TD*%
%TO.C,REF\u002A\u002A*%
X25000000Y-105000000D03*
%TD*%
%TO.C,REF\u002A\u002A*%
X20000000Y-60000000D03*
%TD*%
D17*
%TO.C,U1*%
X37000000Y-25100000D03*
D20*
X37000000Y-27640000D03*
X37000000Y-30180000D03*
X37000000Y-32720000D03*
X37000000Y-35260000D03*
X37000000Y-37800000D03*
X37000000Y-40340000D03*
X37000000Y-42880000D03*
X37000000Y-45420000D03*
X37000000Y-47960000D03*
X37000000Y-50500000D03*
X37000000Y-53040000D03*
X37000000Y-55580000D03*
X37000000Y-58120000D03*
X44620000Y-58120000D03*
X44620000Y-55580000D03*
X44620000Y-53040000D03*
X44620000Y-50500000D03*
X44620000Y-47960000D03*
X44620000Y-45420000D03*
X44620000Y-42880000D03*
X44620000Y-40340000D03*
X44620000Y-37800000D03*
X44620000Y-35260000D03*
X44620000Y-32720000D03*
X44620000Y-30180000D03*
X44620000Y-27640000D03*
X44620000Y-25100000D03*
%TD*%
D10*
%TO.C,REF\u002A\u002A*%
X20000000Y-70000000D03*
%TD*%
%TO.C,REF\u002A\u002A*%
X20000000Y-65000000D03*
%TD*%
%TO.C,REF\u002A\u002A*%
X20000000Y-95000000D03*
%TD*%
%TO.C,REF\u002A\u002A*%
X20000000Y-20000000D03*
%TD*%
D19*
%TO.C,CN15*%
X82500000Y-54500000D03*
D12*
X82500000Y-52000000D03*
X82500000Y-49500000D03*
%TD*%
D19*
%TO.C,CN7*%
X49275000Y-42500000D03*
D12*
X49275000Y-40000000D03*
X49275000Y-37500000D03*
%TD*%
D10*
%TO.C,REF\u002A\u002A*%
X35000000Y-20000000D03*
%TD*%
D16*
%TO.C,START*%
X31250000Y-89500000D03*
X24750000Y-89500000D03*
%TD*%
D10*
%TO.C,REF\u002A\u002A*%
X55000000Y-20000000D03*
%TD*%
D17*
%TO.C,U2*%
X73000000Y-99925000D03*
D20*
X73000000Y-97385000D03*
X73000000Y-94845000D03*
X73000000Y-92305000D03*
X73000000Y-89765000D03*
X73000000Y-87225000D03*
X73000000Y-84685000D03*
X73000000Y-82145000D03*
X73000000Y-79605000D03*
X73000000Y-77065000D03*
X73000000Y-74525000D03*
X73000000Y-71985000D03*
X73000000Y-69445000D03*
X73000000Y-66905000D03*
X65380000Y-66905000D03*
X65380000Y-69445000D03*
X65380000Y-71985000D03*
X65380000Y-74525000D03*
X65380000Y-77065000D03*
X65380000Y-79605000D03*
X65380000Y-82145000D03*
X65380000Y-84685000D03*
X65380000Y-87225000D03*
X65380000Y-89765000D03*
X65380000Y-92305000D03*
X65380000Y-94845000D03*
X65380000Y-97385000D03*
X65380000Y-99925000D03*
%TD*%
D10*
%TO.C,REF\u002A\u002A*%
X20000000Y-105000000D03*
%TD*%
D11*
%TO.C,CN4*%
X27500000Y-59500000D03*
D12*
X27500000Y-62000000D03*
X27500000Y-64500000D03*
%TD*%
D13*
%TO.C,SER1*%
X40250000Y-96330000D03*
D14*
X42750000Y-96330000D03*
X45250000Y-96330000D03*
X47750000Y-96330000D03*
X50250000Y-96330000D03*
%TD*%
D10*
%TO.C,REF\u002A\u002A*%
X90000000Y-35000000D03*
%TD*%
%TO.C,REF\u002A\u002A*%
X90000000Y-100000000D03*
%TD*%
D11*
%TO.C,CN5*%
X27500000Y-70500000D03*
D12*
X27500000Y-73000000D03*
X27500000Y-75500000D03*
%TD*%
D21*
%TO.C,SW5*%
X35000000Y-86000000D03*
X35000000Y-88500000D03*
X35000000Y-91000000D03*
%TD*%
D13*
%TO.C,I2C2*%
X42750000Y-89000000D03*
D14*
X45250000Y-89000000D03*
X47750000Y-89000000D03*
X50250000Y-89000000D03*
%TD*%
D10*
%TO.C,REF\u002A\u002A*%
X20000000Y-85000000D03*
%TD*%
D15*
%TO.C,I2C4*%
X67250000Y-36000000D03*
D14*
X64750000Y-36000000D03*
X62250000Y-36000000D03*
X59750000Y-36000000D03*
%TD*%
D19*
%TO.C,CN6*%
X49275000Y-31500000D03*
D12*
X49275000Y-29000000D03*
X49275000Y-26500000D03*
%TD*%
D19*
%TO.C,CN13*%
X82500000Y-76500000D03*
D12*
X82500000Y-74000000D03*
X82500000Y-71500000D03*
%TD*%
D10*
%TO.C,REF\u002A\u002A*%
X85000000Y-105000000D03*
%TD*%
%TO.C,REF\u002A\u002A*%
X90000000Y-90000000D03*
%TD*%
%TO.C,REF\u002A\u002A*%
X90000000Y-70000000D03*
%TD*%
D11*
%TO.C,CN20*%
X60725000Y-49500000D03*
D12*
X60725000Y-52000000D03*
X60725000Y-54500000D03*
%TD*%
D10*
%TO.C,REF\u002A\u002A*%
X90000000Y-50000000D03*
%TD*%
D19*
%TO.C,CN14*%
X82500000Y-65500000D03*
D12*
X82500000Y-63000000D03*
X82500000Y-60500000D03*
%TD*%
D10*
%TO.C,REF\u002A\u002A*%
X20000000Y-90000000D03*
%TD*%
%TO.C,REF\u002A\u002A*%
X20000000Y-30000000D03*
%TD*%
%TO.C,REF\u002A\u002A*%
X45000000Y-20000000D03*
%TD*%
D16*
%TO.C,BTN-CN10*%
X24750000Y-82500000D03*
X31250000Y-82500000D03*
%TD*%
%TO.C,START2*%
X78750000Y-35500000D03*
X85250000Y-35500000D03*
%TD*%
D10*
%TO.C,REF\u002A\u002A*%
X20000000Y-25000000D03*
%TD*%
%TO.C,REF\u002A\u002A*%
X30000000Y-105000000D03*
%TD*%
%TO.C,REF\u002A\u002A*%
X90000000Y-40000000D03*
%TD*%
%TO.C,REF\u002A\u002A*%
X80000000Y-20000000D03*
%TD*%
%TO.C,REF\u002A\u002A*%
X65000000Y-105000000D03*
%TD*%
D22*
%TO.C,J1*%
X82475000Y-43250000D03*
D23*
X82475000Y-40750000D03*
%TD*%
D10*
%TO.C,REF\u002A\u002A*%
X20000000Y-45000000D03*
%TD*%
%TO.C,REF\u002A\u002A*%
X90000000Y-20000000D03*
%TD*%
%TO.C,REF\u002A\u002A*%
X20000000Y-55000000D03*
%TD*%
D19*
%TO.C,CN9*%
X49275000Y-64500000D03*
D12*
X49275000Y-62000000D03*
X49275000Y-59500000D03*
%TD*%
D15*
%TO.C,SER2*%
X69750000Y-28670000D03*
D14*
X67250000Y-28670000D03*
X64750000Y-28670000D03*
X62250000Y-28670000D03*
X59750000Y-28670000D03*
%TD*%
D11*
%TO.C,CN18*%
X60725000Y-71500000D03*
D12*
X60725000Y-74000000D03*
X60725000Y-76500000D03*
%TD*%
D19*
%TO.C,CN12*%
X82500000Y-87500000D03*
D12*
X82500000Y-85000000D03*
X82500000Y-82500000D03*
%TD*%
D10*
%TO.C,REF\u002A\u002A*%
X50000000Y-105000000D03*
%TD*%
D11*
%TO.C,CN19*%
X60725000Y-60500000D03*
D12*
X60725000Y-63000000D03*
X60725000Y-65500000D03*
%TD*%
D10*
%TO.C,REF\u002A\u002A*%
X90000000Y-45000000D03*
%TD*%
D11*
%TO.C,CN3*%
X27500000Y-48500000D03*
D12*
X27500000Y-51000000D03*
X27500000Y-53500000D03*
%TD*%
D10*
%TO.C,REF\u002A\u002A*%
X80000000Y-105000000D03*
%TD*%
D19*
%TO.C,CN8*%
X49275000Y-53500000D03*
D12*
X49275000Y-51000000D03*
X49275000Y-48500000D03*
%TD*%
D11*
%TO.C,CN16*%
X60725000Y-93500000D03*
D12*
X60725000Y-96000000D03*
X60725000Y-98500000D03*
%TD*%
D19*
%TO.C,CN10*%
X49275000Y-75500000D03*
D12*
X49275000Y-73000000D03*
X49275000Y-70500000D03*
%TD*%
D24*
%TO.C,JP2*%
X44900000Y-72500000D03*
X43600000Y-72500000D03*
%TD*%
%TO.C,JP1*%
X43600000Y-75500000D03*
X44900000Y-75500000D03*
%TD*%
M02*
