%TF.GenerationSoftware,KiCad,Pcbnew,7.0.6*%
%TF.CreationDate,2023-12-18T00:28:03+09:00*%
%TF.ProjectId,Controller_20220713_TOINIOT2,436f6e74-726f-46c6-9c65-725f32303232,rev?*%
%TF.SameCoordinates,Original*%
%TF.FileFunction,Other,Comment*%
%FSLAX46Y46*%
G04 Gerber Fmt 4.6, Leading zero omitted, Abs format (unit mm)*
G04 Created by KiCad (PCBNEW 7.0.6) date 2023-12-18 00:28:03*
%MOMM*%
%LPD*%
G01*
G04 APERTURE LIST*
%ADD10C,0.150000*%
G04 APERTURE END LIST*
D10*
%TO.C,REF\u002A\u002A*%
X88200000Y-20000000D02*
G75*
G03*
X88200000Y-20000000I-3200000J0D01*
G01*
X53200000Y-20000000D02*
G75*
G03*
X53200000Y-20000000I-3200000J0D01*
G01*
X93200000Y-65000000D02*
G75*
G03*
X93200000Y-65000000I-3200000J0D01*
G01*
X23200000Y-35000000D02*
G75*
G03*
X23200000Y-35000000I-3200000J0D01*
G01*
X63200000Y-20000000D02*
G75*
G03*
X63200000Y-20000000I-3200000J0D01*
G01*
X73200000Y-105000000D02*
G75*
G03*
X73200000Y-105000000I-3200000J0D01*
G01*
X28200000Y-20000000D02*
G75*
G03*
X28200000Y-20000000I-3200000J0D01*
G01*
X43200000Y-105000000D02*
G75*
G03*
X43200000Y-105000000I-3200000J0D01*
G01*
X43200000Y-20000000D02*
G75*
G03*
X43200000Y-20000000I-3200000J0D01*
G01*
X73200000Y-20000000D02*
G75*
G03*
X73200000Y-20000000I-3200000J0D01*
G01*
X23200000Y-40000000D02*
G75*
G03*
X23200000Y-40000000I-3200000J0D01*
G01*
X63200000Y-105000000D02*
G75*
G03*
X63200000Y-105000000I-3200000J0D01*
G01*
X38200000Y-105000000D02*
G75*
G03*
X38200000Y-105000000I-3200000J0D01*
G01*
X23200000Y-80000000D02*
G75*
G03*
X23200000Y-80000000I-3200000J0D01*
G01*
X48200000Y-105000000D02*
G75*
G03*
X48200000Y-105000000I-3200000J0D01*
G01*
X23200000Y-50000000D02*
G75*
G03*
X23200000Y-50000000I-3200000J0D01*
G01*
X93200000Y-25000000D02*
G75*
G03*
X93200000Y-25000000I-3200000J0D01*
G01*
X33200000Y-20000000D02*
G75*
G03*
X33200000Y-20000000I-3200000J0D01*
G01*
X93200000Y-80000000D02*
G75*
G03*
X93200000Y-80000000I-3200000J0D01*
G01*
X58200000Y-105000000D02*
G75*
G03*
X58200000Y-105000000I-3200000J0D01*
G01*
X23200000Y-75000000D02*
G75*
G03*
X23200000Y-75000000I-3200000J0D01*
G01*
X93200000Y-95000000D02*
G75*
G03*
X93200000Y-95000000I-3200000J0D01*
G01*
X93200000Y-30000000D02*
G75*
G03*
X93200000Y-30000000I-3200000J0D01*
G01*
X93200000Y-105000000D02*
G75*
G03*
X93200000Y-105000000I-3200000J0D01*
G01*
X93200000Y-60000000D02*
G75*
G03*
X93200000Y-60000000I-3200000J0D01*
G01*
X78200000Y-20000000D02*
G75*
G03*
X78200000Y-20000000I-3200000J0D01*
G01*
X93200000Y-85000000D02*
G75*
G03*
X93200000Y-85000000I-3200000J0D01*
G01*
X93200000Y-75000000D02*
G75*
G03*
X93200000Y-75000000I-3200000J0D01*
G01*
X23200000Y-100000000D02*
G75*
G03*
X23200000Y-100000000I-3200000J0D01*
G01*
X78200000Y-105000000D02*
G75*
G03*
X78200000Y-105000000I-3200000J0D01*
G01*
X93200000Y-55000000D02*
G75*
G03*
X93200000Y-55000000I-3200000J0D01*
G01*
X68200000Y-20000000D02*
G75*
G03*
X68200000Y-20000000I-3200000J0D01*
G01*
X28200000Y-105000000D02*
G75*
G03*
X28200000Y-105000000I-3200000J0D01*
G01*
X23200000Y-60000000D02*
G75*
G03*
X23200000Y-60000000I-3200000J0D01*
G01*
X23200000Y-70000000D02*
G75*
G03*
X23200000Y-70000000I-3200000J0D01*
G01*
X23200000Y-65000000D02*
G75*
G03*
X23200000Y-65000000I-3200000J0D01*
G01*
X23200000Y-95000000D02*
G75*
G03*
X23200000Y-95000000I-3200000J0D01*
G01*
X23200000Y-20000000D02*
G75*
G03*
X23200000Y-20000000I-3200000J0D01*
G01*
X38200000Y-20000000D02*
G75*
G03*
X38200000Y-20000000I-3200000J0D01*
G01*
X58200000Y-20000000D02*
G75*
G03*
X58200000Y-20000000I-3200000J0D01*
G01*
X23200000Y-105000000D02*
G75*
G03*
X23200000Y-105000000I-3200000J0D01*
G01*
X93200000Y-35000000D02*
G75*
G03*
X93200000Y-35000000I-3200000J0D01*
G01*
X93200000Y-100000000D02*
G75*
G03*
X93200000Y-100000000I-3200000J0D01*
G01*
X23200000Y-85000000D02*
G75*
G03*
X23200000Y-85000000I-3200000J0D01*
G01*
X88200000Y-105000000D02*
G75*
G03*
X88200000Y-105000000I-3200000J0D01*
G01*
X93200000Y-90000000D02*
G75*
G03*
X93200000Y-90000000I-3200000J0D01*
G01*
X93200000Y-70000000D02*
G75*
G03*
X93200000Y-70000000I-3200000J0D01*
G01*
X93200000Y-50000000D02*
G75*
G03*
X93200000Y-50000000I-3200000J0D01*
G01*
X23200000Y-90000000D02*
G75*
G03*
X23200000Y-90000000I-3200000J0D01*
G01*
X23200000Y-30000000D02*
G75*
G03*
X23200000Y-30000000I-3200000J0D01*
G01*
X48200000Y-20000000D02*
G75*
G03*
X48200000Y-20000000I-3200000J0D01*
G01*
X23200000Y-25000000D02*
G75*
G03*
X23200000Y-25000000I-3200000J0D01*
G01*
X33200000Y-105000000D02*
G75*
G03*
X33200000Y-105000000I-3200000J0D01*
G01*
X93200000Y-40000000D02*
G75*
G03*
X93200000Y-40000000I-3200000J0D01*
G01*
X83200000Y-20000000D02*
G75*
G03*
X83200000Y-20000000I-3200000J0D01*
G01*
X68200000Y-105000000D02*
G75*
G03*
X68200000Y-105000000I-3200000J0D01*
G01*
X23200000Y-45000000D02*
G75*
G03*
X23200000Y-45000000I-3200000J0D01*
G01*
X93200000Y-20000000D02*
G75*
G03*
X93200000Y-20000000I-3200000J0D01*
G01*
X23200000Y-55000000D02*
G75*
G03*
X23200000Y-55000000I-3200000J0D01*
G01*
X53200000Y-105000000D02*
G75*
G03*
X53200000Y-105000000I-3200000J0D01*
G01*
X93200000Y-45000000D02*
G75*
G03*
X93200000Y-45000000I-3200000J0D01*
G01*
X83200000Y-105000000D02*
G75*
G03*
X83200000Y-105000000I-3200000J0D01*
G01*
%TD*%
M02*
