<?xml version="1.0" standalone="no"?>
<!DOCTYPE svg PUBLIC "-//W3C//DTD SVG 20010904//EN"
 "http://www.w3.org/TR/2001/REC-SVG-20010904/DTD/svg10.dtd">
<svg version="1.0" xmlns="http://www.w3.org/2000/svg"
 width="1920.000000pt" height="1080.000000pt" viewBox="0 0 1920.000000 1080.000000"
 preserveAspectRatio="xMidYMid meet">

<g transform="translate(0.000000,1080.000000) scale(0.100000,-0.100000)"
fill="#000000" stroke="none">
<path d="M17697 6400 c-56 -14 -90 -35 -124 -74 -56 -63 -64 -125 -29 -211 24
-56 39 -33 21 30 -19 62 -6 109 35 130 103 53 270 -56 270 -177 0 -72 -55
-123 -172 -158 -37 -12 -80 -32 -96 -45 -40 -34 -71 -103 -79 -175 -5 -52 -4
-60 11 -60 9 0 16 8 16 20 0 29 26 76 45 84 36 13 65 4 129 -40 104 -70 173
-88 255 -64 76 21 132 115 117 195 -9 46 -60 105 -76 89 -8 -8 -9 -14 -1 -18
6 -4 11 -20 11 -36 0 -49 -33 -48 -133 3 l-87 45 33 13 c61 24 137 79 166 120
74 101 37 239 -82 304 -54 30 -163 42 -230 25z"/>
<path d="M4539 6050 c-185 -18 -302 -95 -357 -235 -43 -110 -65 -389 -43 -562
30 -241 106 -350 285 -405 95 -30 328 -32 421 -4 164 49 238 128 282 303 26
100 26 490 0 583 -58 214 -162 298 -399 320 -51 5 -97 9 -103 8 -5 0 -44 -4
-86 -8z m302 -50 c159 -38 241 -158 270 -393 14 -113 6 -335 -16 -437 -49
-234 -187 -320 -493 -308 -307 12 -408 121 -432 461 -9 127 1 323 21 404 42
167 122 246 283 280 71 14 296 10 367 -7z"/>
<path d="M4541 5838 c-50 -17 -94 -67 -115 -129 -14 -42 -20 -95 -23 -234 -9
-337 38 -432 219 -443 77 -5 153 16 187 52 50 53 64 117 68 316 7 274 -22 381
-114 426 -45 22 -171 29 -222 12z m205 -47 c31 -14 47 -30 62 -62 56 -116 55
-465 -1 -579 -31 -64 -73 -85 -164 -84 -138 2 -183 51 -204 224 -14 116 -6
314 17 390 28 95 76 129 184 129 42 1 79 -6 106 -18z"/>
<path d="M13969 6050 c-174 -17 -287 -86 -343 -210 -88 -196 -85 -636 7 -819
71 -142 236 -209 482 -197 277 13 404 113 449 351 23 124 29 269 17 395 -28
294 -107 414 -307 463 -75 19 -207 26 -305 17z m272 -44 c169 -36 247 -119
292 -310 19 -82 15 -455 -6 -539 -36 -145 -105 -227 -225 -269 -59 -20 -86
-23 -227 -23 -141 0 -168 3 -227 23 -180 62 -237 180 -245 507 -13 476 97 622
467 624 58 0 135 -6 171 -13z"/>
<path d="M13965 5832 c-55 -26 -91 -71 -112 -140 -15 -46 -18 -94 -18 -252 0
-158 3 -206 18 -252 32 -106 101 -157 212 -158 86 0 134 16 175 59 44 46 57
89 71 231 12 115 1 305 -21 381 -15 52 -50 100 -89 123 -50 29 -182 34 -236 8z
m232 -50 c63 -44 88 -171 80 -397 -8 -227 -37 -291 -140 -315 -53 -12 -150 0
-186 22 -67 41 -102 236 -82 458 20 217 59 264 217 257 63 -3 87 -8 111 -25z"/>
<path d="M1760 5910 l0 -120 170 0 170 0 0 -475 0 -475 150 0 150 0 0 475 0
475 170 0 170 0 0 120 0 120 -490 0 -490 0 0 -120z m948 3 l3 -83 -173 -2
-173 -3 -3 -472 -2 -473 -110 0 -110 0 0 475 0 475 -175 0 -175 0 0 78 c0 43
3 82 7 85 3 4 209 6 457 5 l451 -3 3 -82z"/>
<path d="M6620 5435 l0 -595 145 0 145 0 0 595 0 595 -145 0 -145 0 0 -595z
m258 3 l2 -558 -110 0 -110 0 0 560 0 561 108 -3 107 -3 3 -557z"/>
<path d="M11800 5435 l0 -595 145 0 145 0 0 595 0 595 -145 0 -145 0 0 -595z
m250 5 l0 -560 -110 0 -110 0 0 553 c0 305 3 557 7 560 3 4 53 7 110 7 l103 0
0 -560z"/>
<path d="M15970 5910 l0 -120 170 0 170 0 2 -472 3 -473 148 -3 147 -3 0 476
0 475 170 0 170 0 0 120 0 120 -490 0 -490 0 0 -120z m948 3 l3 -83 -173 -2
-173 -3 -3 -472 -2 -473 -110 0 -110 0 0 475 0 475 -175 0 -175 0 1 78 c1 42
3 80 6 85 2 4 208 6 456 5 l452 -3 3 -82z"/>
<path d="M8430 5994 c69 -19 131 -55 192 -112 54 -50 96 -127 263 -487 196
-421 209 -439 333 -498 l67 -32 535 -2 c483 -3 530 -1 483 12 -120 33 -201 86
-261 169 -20 29 -116 220 -212 425 -196 420 -213 447 -328 503 l-67 33 -530 2
c-485 2 -525 1 -475 -13z"/>
<path d="M10010 6004 c0 -7 323 -701 351 -754 18 -35 18 -30 19 363 l0 397
-185 0 c-102 0 -185 -3 -185 -6z"/>
<path d="M8330 5262 l0 -402 185 0 c102 0 185 4 185 9 0 9 -358 782 -366 790
-2 2 -4 -176 -4 -397z"/>
<path d="M3028 4138 c-3 -30 -6 -33 -41 -36 -49 -4 -72 -37 -63 -88 10 -50 40
-44 44 9 l3 38 72 -3 c58 -2 72 -6 75 -20 7 -35 -31 -90 -84 -124 -37 -23 -51
-39 -48 -49 9 -22 27 -18 80 18 72 48 121 150 91 191 -7 10 -28 21 -47 25 -29
6 -36 12 -40 36 -8 44 -38 46 -42 3z"/>
<path d="M14600 4162 c0 -14 39 -46 47 -38 4 4 2 15 -3 24 -12 19 -44 29 -44
14z"/>
<path d="M16800 4142 c0 -31 -14 -42 -56 -42 -34 0 -55 -37 -47 -83 4 -27 10
-37 24 -37 15 0 19 8 19 40 l0 40 75 0 75 0 0 -27 c0 -41 -35 -91 -85 -121
-25 -15 -45 -35 -45 -44 0 -24 17 -22 64 5 52 29 92 82 107 139 12 42 11 49
-6 68 -11 12 -31 20 -51 20 -30 0 -33 3 -36 32 -4 45 -38 53 -38 10z"/>
<path d="M4228 4129 c-13 -17 -57 -58 -98 -92 -41 -33 -75 -65 -75 -71 0 -23
34 -15 79 19 25 19 48 35 51 35 3 0 5 -36 5 -80 0 -73 2 -80 20 -80 19 0 20 7
20 102 0 93 2 104 26 135 24 32 27 63 5 63 -6 0 -21 -14 -33 -31z"/>
<path d="M7648 4106 c-26 -29 -70 -68 -97 -87 -49 -33 -67 -69 -35 -69 9 0 38
16 65 36 l49 36 0 -81 c0 -74 2 -81 20 -81 19 0 20 7 20 101 0 94 2 103 25
131 25 30 30 59 10 64 -5 2 -31 -21 -57 -50z"/>
<path d="M1854 4137 c-2 -7 -3 -71 -2 -142 3 -114 5 -130 21 -133 15 -3 17 6
17 72 0 45 4 76 10 76 6 0 28 -12 50 -26 38 -25 70 -27 70 -4 0 14 -89 70
-112 70 -15 0 -18 8 -18 50 0 38 -4 50 -15 50 -9 0 -18 -6 -21 -13z"/>
<path d="M8798 4118 l-3 -33 -78 -3 c-68 -2 -78 -5 -75 -20 2 -13 17 -18 66
-22 l63 -5 -33 -31 c-18 -17 -50 -43 -70 -59 -41 -29 -50 -55 -19 -55 20 0 57
25 113 78 l37 35 6 -26 c10 -39 2 -61 -25 -67 -16 -4 -25 -13 -25 -25 0 -17 6
-20 35 -17 50 4 62 25 58 104 l-4 67 36 3 c23 2 36 9 38 20 2 13 -5 17 -35 20
-35 3 -38 6 -41 36 -2 23 -8 32 -22 32 -14 0 -20 -9 -22 -32z"/>
<path d="M11040 4005 c0 -134 1 -146 18 -143 14 3 18 16 20 76 2 39 6 72 10
72 4 0 24 -12 45 -26 37 -24 67 -26 67 -4 0 14 -80 70 -101 70 -14 0 -19 10
-21 47 -2 36 -7 49 -20 51 -17 3 -18 -9 -18 -143z"/>
<path d="M6340 4120 c0 -18 8 -20 118 -22 96 -2 117 -6 117 -18 0 -10 -12 -16
-37 -18 -22 -2 -38 1 -38 7 0 6 -9 11 -20 11 -17 0 -20 -7 -20 -45 0 -49 -25
-108 -58 -138 -21 -19 -20 -47 2 -47 23 0 69 59 87 112 17 51 19 53 60 59 27
4 49 14 61 28 23 30 23 46 -2 71 -18 18 -33 20 -145 20 -118 0 -125 -1 -125
-20z"/>
<path d="M14427 4133 c-15 -14 -5 -32 27 -52 68 -42 94 -11 29 34 -40 27 -46
29 -56 18z"/>
<path d="M14572 4124 c4 -20 34 -41 44 -31 8 8 -24 47 -38 47 -5 0 -8 -7 -6
-16z"/>
<path d="M12285 4101 c-21 -41 -123 -149 -157 -167 -28 -15 -37 -37 -18 -49
16 -10 71 29 132 92 60 64 92 117 84 139 -9 22 -24 16 -41 -15z"/>
<path d="M5217 4113 c-15 -14 -5 -32 34 -57 38 -26 69 -29 69 -7 0 9 -78 71
-90 71 -4 0 -10 -3 -13 -7z"/>
<path d="M13275 4080 c-14 -23 11 -30 100 -30 70 0 94 3 98 14 3 8 3 17 0 20
-11 10 -191 7 -198 -4z"/>
<path d="M5410 4029 c-25 -22 -78 -56 -117 -76 -69 -34 -89 -56 -60 -66 28 -9
184 79 231 131 17 20 17 53 -1 52 -4 -1 -28 -19 -53 -41z"/>
<path d="M14578 4019 c-26 -27 -75 -63 -112 -81 -63 -31 -79 -49 -55 -63 33
-21 249 135 249 179 0 29 -34 15 -82 -35z"/>
<path d="M9896 4052 c-8 -13 23 -72 39 -72 18 0 19 7 4 49 -10 29 -32 41 -43
23z"/>
<path d="M9995 4048 c-2 -7 -9 -30 -15 -50 -11 -35 -46 -74 -99 -108 -20 -13
-21 -17 -9 -28 25 -20 101 38 132 100 30 59 34 98 11 98 -9 0 -17 -6 -20 -12z"/>
<path d="M14382 4044 c2 -9 20 -26 40 -38 31 -17 39 -19 50 -8 11 11 8 18 -17
38 -35 28 -78 33 -73 8z"/>
<path d="M15582 4033 c3 -15 17 -19 72 -23 99 -7 100 -28 2 -32 -42 -2 -76 -7
-76 -13 0 -6 33 -11 75 -13 55 -2 75 -6 75 -16 0 -20 -23 -26 -96 -26 -50 0
-64 -3 -64 -15 0 -12 16 -15 84 -15 100 0 111 8 111 87 0 72 -15 83 -113 83
-65 0 -73 -2 -70 -17z"/>
<path d="M9830 4030 c0 -18 30 -70 40 -70 18 0 20 20 5 50 -15 29 -45 42 -45
20z"/>
<path d="M13230 3940 c0 -20 5 -20 142 -18 127 3 143 5 146 21 3 16 -9 17
-142 17 -140 0 -146 -1 -146 -20z"/>
</g>
</svg>
