<?xml version="1.0" standalone="no"?>
<!DOCTYPE svg PUBLIC "-//W3C//DTD SVG 20010904//EN"
 "http://www.w3.org/TR/2001/REC-SVG-20010904/DTD/svg10.dtd">
<svg version="1.0" xmlns="http://www.w3.org/2000/svg"
 width="648.000000pt" height="496.000000pt" viewBox="0 0 648.000000 496.000000"
 preserveAspectRatio="xMidYMid meet">

<g transform="translate(0.000000,496.000000) scale(0.100000,-0.100000)"
fill="#000000" stroke="none">
<path d="M290 2685 l0 -1995 2950 0 2950 0 0 1995 0 1995 -2950 0 -2950 0 0
-1995z m2551 1491 c138 -30 237 -107 302 -237 20 -40 33 -76 29 -80 -4 -3 -65
-18 -137 -34 -71 -15 -135 -30 -141 -32 -6 -2 -14 7 -18 21 -9 36 -64 96 -103
112 -47 20 -127 17 -172 -6 -85 -43 -121 -125 -121 -276 0 -225 56 -309 205
-309 48 0 81 6 103 18 38 21 89 95 98 144 3 18 9 35 13 37 4 3 70 -14 147 -38
162 -49 157 -40 93 -172 -83 -176 -252 -257 -494 -240 -164 12 -256 47 -344
135 -106 105 -152 233 -153 421 0 309 135 485 417 544 47 9 215 5 276 -8z
m2355 -6 c95 -24 168 -70 223 -140 46 -59 96 -159 84 -170 -4 -4 -70 -21 -146
-37 l-138 -30 -15 36 c-33 78 -96 115 -190 109 -126 -8 -190 -89 -201 -254 -7
-108 10 -221 41 -266 80 -119 263 -115 333 7 13 22 28 57 34 78 6 23 15 37 22
34 7 -2 72 -22 145 -43 l132 -39 -6 -30 c-12 -58 -62 -154 -104 -199 -97 -106
-194 -141 -385 -140 -138 0 -205 13 -295 59 -104 53 -207 198 -235 332 -31
144 -13 341 41 451 34 69 120 161 183 195 121 67 323 86 477 47z m-3512 -16
c75 -19 130 -50 184 -104 97 -98 135 -214 135 -425 1 -195 -28 -286 -125 -391
-102 -111 -202 -134 -585 -134 l-273 0 0 535 0 535 301 0 c241 0 313 -3 363
-16z m2331 1 c214 -56 325 -237 325 -528 0 -190 -42 -308 -141 -402 -112 -107
-191 -124 -576 -125 l-273 0 0 535 0 535 303 0 c240 0 315 -3 362 -15z m-2154
-1793 c77 -27 128 -61 177 -118 46 -51 109 -170 98 -182 -4 -4 -69 -21 -144
-38 l-137 -31 -22 43 c-35 67 -83 97 -159 102 -164 11 -249 -120 -230 -355 12
-139 42 -197 121 -234 114 -53 241 9 281 136 10 31 23 54 28 52 6 -2 71 -22
144 -43 l133 -39 -5 -30 c-3 -16 -22 -62 -41 -102 -96 -195 -309 -278 -589
-228 -252 45 -405 249 -406 543 0 102 23 219 58 292 37 76 136 174 209 206 95
43 165 54 303 50 92 -3 140 -9 181 -24z m1038 -298 c155 -58 251 -201 251
-373 0 -155 -78 -289 -209 -356 -106 -54 -292 -66 -411 -25 -179 61 -278 211
-268 403 11 210 156 356 373 376 90 8 206 -3 264 -25z m1090 2 c40 -21 86 -76
107 -126 16 -40 19 -81 22 -342 l4 -298 -151 0 -151 0 0 228 c0 125 -5 243
-10 263 -14 51 -50 73 -109 66 -93 -10 -111 -67 -111 -357 l0 -200 -150 0
-150 0 0 390 0 390 140 0 140 0 0 -61 0 -62 44 41 c59 54 119 84 186 91 64 7
151 -4 189 -23z m563 -233 l75 -248 61 190 c33 105 68 216 78 248 l18 57 148
0 c81 0 148 -3 148 -7 0 -5 -73 -180 -162 -391 l-162 -383 -134 3 -134 3 -154
370 c-85 204 -157 378 -160 388 -5 16 6 17 149 17 l154 0 75 -247z m798 -383
l0 -150 -160 0 -160 0 0 150 0 150 160 0 160 0 0 -150z"/>
<path d="M1352 3639 l3 -294 93 2 c113 2 156 21 190 80 30 54 43 168 32 274
-10 97 -14 112 -47 157 -37 49 -76 64 -181 70 l-92 5 2 -294z"/>
<path d="M3690 3635 l0 -298 88 6 c188 12 227 62 227 287 0 136 -10 181 -52
231 -39 46 -78 61 -175 67 l-88 5 0 -298z"/>
<path d="M2643 1874 c-52 -26 -76 -75 -81 -164 -5 -87 7 -135 45 -180 68 -82
202 -44 233 66 18 65 9 183 -19 227 -38 61 -113 83 -178 51z"/>
</g>
</svg>
