<?xml version="1.0" standalone="no"?>
<!DOCTYPE svg PUBLIC "-//W3C//DTD SVG 20010904//EN"
 "http://www.w3.org/TR/2001/REC-SVG-20010904/DTD/svg10.dtd">
<svg version="1.0" xmlns="http://www.w3.org/2000/svg"
 width="780.000000pt" height="316.000000pt" viewBox="0 0 780.000000 316.000000"
 preserveAspectRatio="xMidYMid meet">

<g transform="translate(0.000000,316.000000) scale(0.100000,-0.100000)"
fill="#000000" stroke="none">
<path d="M840 1795 l0 -1065 3060 0 3060 0 0 1065 0 1065 -3060 0 -3060 0 0
-1065z m1620 579 c0 -4 -88 -96 -195 -205 l-195 -199 79 -128 c129 -210 323
-526 328 -534 2 -5 -88 -8 -201 -8 l-205 0 -114 220 -114 221 -86 -90 -87 -90
0 -131 0 -130 -165 0 -165 0 0 535 0 535 165 0 165 0 0 -195 c0 -107 3 -195 8
-194 4 0 81 87 172 194 l165 194 90 3 c174 7 355 8 355 2z m420 -104 l0 -100
-150 0 -150 0 0 100 0 100 150 0 150 0 0 -100z m1472 -171 l3 -272 109 127
110 126 185 0 186 0 -143 -137 -143 -138 142 -240 c77 -132 143 -246 146 -252
4 -10 -32 -13 -160 -13 l-166 0 -78 150 c-43 82 -80 150 -83 150 -3 0 -29 -21
-58 -46 l-52 -46 0 -104 0 -104 -155 0 -155 0 0 535 0 535 155 0 155 0 2 -271z
m-687 -26 c108 -26 195 -102 238 -205 19 -44 25 -41 -113 -58 -47 -6 -99 -13
-116 -16 -28 -5 -33 -2 -52 31 -37 62 -132 84 -202 47 -57 -31 -84 -91 -85
-187 0 -103 22 -150 88 -184 65 -33 127 -24 177 28 19 20 40 45 45 55 10 18
17 18 144 6 86 -9 135 -18 138 -26 9 -23 -50 -124 -99 -170 -99 -92 -230 -126
-413 -106 -132 15 -210 49 -277 120 -62 67 -88 121 -97 206 -23 213 48 358
216 438 95 45 273 55 408 21z m1942 -7 c145 -45 232 -177 248 -373 l7 -83
-301 0 c-234 0 -301 -3 -301 -12 0 -7 9 -32 20 -55 24 -53 70 -83 128 -83 48
0 74 11 112 45 l25 23 142 -12 c78 -6 144 -14 147 -17 9 -9 -82 -117 -121
-144 -70 -47 -164 -69 -303 -69 -166 -1 -245 22 -322 93 -96 88 -134 192 -126
343 11 215 160 354 398 371 60 4 193 -11 247 -27z m956 7 c28 -9 46 -20 44
-27 -3 -6 -24 -55 -47 -108 -41 -92 -44 -96 -67 -87 -41 15 -98 11 -125 -11
-53 -41 -62 -85 -66 -322 l-4 -218 -149 0 -149 0 0 390 0 390 140 0 140 0 0
-57 0 -56 30 41 c63 87 130 104 253 65z m-3683 -383 l0 -390 -150 0 -150 0 0
390 0 390 150 0 150 0 0 -390z"/>
<path d="M5365 1913 c-46 -12 -105 -93 -105 -145 0 -5 66 -8 146 -8 l147 0 -6
36 c-7 43 -29 78 -62 100 -26 17 -87 26 -120 17z"/>
</g>
</svg>
