<?xml version="1.0" standalone="no"?>
<!DOCTYPE svg PUBLIC "-//W3C//DTD SVG 20010904//EN"
 "http://www.w3.org/TR/2001/REC-SVG-20010904/DTD/svg10.dtd">
<svg version="1.0" xmlns="http://www.w3.org/2000/svg"
 width="572.000000pt" height="316.000000pt" viewBox="0 0 572.000000 316.000000"
 preserveAspectRatio="xMidYMid meet">

<g transform="translate(0.000000,316.000000) scale(0.100000,-0.100000)"
fill="#000000" stroke="none">
<path d="M630 1795 l0 -1065 2230 0 2230 0 0 1065 0 1065 -2230 0 -2230 0 0
-1065z m894 273 c44 -167 82 -309 86 -316 3 -7 43 128 87 300 l80 313 221 3
222 2 0 -535 0 -535 -140 0 -140 0 -1 393 0 392 -102 -393 -102 -392 -124 2
-124 3 -103 395 -103 395 0 -397 -1 -398 -135 0 -135 0 0 535 0 535 218 0 218
0 78 -302z m2196 202 l0 -100 -150 0 -150 0 0 100 0 100 150 0 150 0 0 -100z
m-712 -192 c91 -15 149 -57 187 -133 l30 -60 5 -260 c4 -224 8 -265 23 -292
l18 -33 -140 0 -140 0 -16 30 c-8 16 -15 36 -15 45 0 21 -4 20 -56 -20 -60
-46 -140 -69 -239 -69 -101 -1 -163 17 -215 61 -57 49 -74 86 -74 163 0 140
60 186 311 241 143 31 232 56 247 69 4 5 3 24 -3 43 -13 38 -48 57 -105 57
-40 -1 -107 -25 -117 -42 -31 -54 -25 -52 -173 -38 -154 15 -151 12 -112 96
42 89 132 140 273 152 102 9 221 6 311 -10z m1611 -25 c34 -21 53 -44 76 -88
l30 -59 3 -303 3 -303 -150 0 -151 0 0 240 c0 255 -5 286 -49 310 -28 14 -77
12 -110 -5 -53 -27 -61 -69 -61 -320 l0 -225 -150 0 -150 0 0 390 0 390 140 0
140 0 0 -62 0 -62 48 46 c59 57 97 77 170 86 82 11 157 -2 211 -35z m-899
-363 l0 -390 -150 0 -150 0 0 390 0 390 150 0 150 0 0 -390z"/>
<path d="M2825 1634 c-127 -38 -161 -65 -151 -118 13 -65 88 -85 172 -47 52
24 81 61 89 115 14 89 15 88 -110 50z"/>
</g>
</svg>
