0
SECTION
2
HEADER
9
$INSUNITS
70
4
9
$ACADVER
1
AC1014
9
$HANDSEED
5
FFFF
0
ENDSEC
0
SECTION
2
TABLES
0
TABLE
2
VPORT
5
8
100
AcDbSymbolTable
0
ENDTAB
0
TABLE
2
LTYPE
5
5
100
AcDbSymbolTable
0
LTYPE
5
14
100
AcDbSymbolTableRecord
100
AcDbLinetypeTableRecord
2
BYBLOCK
70
0
0
LTYPE
5
15
100
AcDbSymbolTableRecord
100
AcDbLinetypeTableRecord
2
BYLAYER
70
0
0
ENDTAB
0
TABLE
2
LAYER
5
2
100
AcDbSymbolTable
70
2
0
LAYER
5
50
100
AcDbSymbolTableRecord
100
AcDbLayerTableRecord
2
0
70
0
6
CONTINUOUS
0
ENDTAB
0
TABLE
2
STYLE
5
3
100
AcDbSymbolTable
70
1
0
STYLE
5
11
100
AcDbSymbolTableRecord
100
AcDbTextStyleTableRecord
2
STANDARD
70
0
0
ENDTAB
0
TABLE
2
VIEW
5
6
100
AcDbSymbolTable
70
0
0
ENDTAB
0
TABLE
2
UCS
5
7
100
AcDbSymbolTable
70
0
0
ENDTAB
0
TABLE
2
APPID
5
9
100
AcDbSymbolTable
70
2
0
APPID
5
12
100
AcDbSymbolTableRecord
100
AcDbRegAppTableRecord
2
ACAD
70
0
0
ENDTAB
0
TABLE
2
DIMSTYLE
5
A
100
AcDbSymbolTable
70
1
0
ENDTAB
0
TABLE
2
BLOCK_RECORD
5
1
100
AcDbSymbolTable
70
1
0
BLOCK_RECORD
5
1F
100
AcDbSymbolTableRecord
100
AcDbBlockTableRecord
2
*MODEL_SPACE
0
BLOCK_RECORD
5
1B
100
AcDbSymbolTableRecord
100
AcDbBlockTableRecord
2
*PAPER_SPACE
0
ENDTAB
0
ENDSEC
0
SECTION
2
BLOCKS
0
BLOCK
5
20
100
AcDbEntity
100
AcDbBlockBegin
2
*MODEL_SPACE
0
ENDBLK
5
21
100
AcDbEntity
100
AcDbBlockEnd
0
BLOCK
5
1C
100
AcDbEntity
100
AcDbBlockBegin
2
*PAPER_SPACE
0
ENDBLK
5
1D
100
AcDbEntity
100
AcDbBlockEnd
0
ENDSEC
0
SECTION
2
ENTITIES
0
LWPOLYLINE
5
100
100
AcDbEntity
8
0
100
AcDbPolyline
90
28
70
1
43
0.0
10
78.17980316105492
20
-28.702307326207087
42
0.22418191989364905
10
77.407700903373581
20
-28.337805637521445
10
48.450504009729102
20
-28.337805637521502
42
-0.19891236737965476
10
47.74339722854257
20
-28.044912418708062
10
38.329183664233362
20
-18.630698854399121
42
-0.19891236733134723
10
38.036290445419908
20
-17.923592073398474
10
38.036290445319423
20
-17.383094716814277
42
0.19306391642314458
10
37.759146434265901
20
-16.692096005536698
42
-0.40107746422852569
10
37.759146433469425
20
-12.40790399529623
42
0.19306391642314091
10
38.036290444266015
20
-11.716905283915601
10
38.036290439909436
20
11.716905288844849
42
0.19306391592795716
10
37.75914643017542
20
12.407903998742091
42
-0.40107746312015236
10
37.759146429378944
20
16.692096000424439
42
0.19306391592796901
10
38.036290438856028
20
17.383094710424729
10
38.03629043875555
20
17.923592066361497
42
-0.19891236742797661
10
38.329183657569004
20
18.630698847733957
10
47.743397218005995
20
28.044912408170877
42
-0.19891236737965556
10
48.450503999192534
20
28.337805626984327
10
77.407700894700767
20
28.337805626984355
42
0.22418192076761648
10
78.179803154497407
20
28.702307318240017
42
-0.47208991636893471
10
82.966837165236626
20
28.702307318240017
42
0.2241819207676258
10
83.73893942503328
20
28.337805626984363
10
95.150640478670539
20
28.337805626984377
42
-0.33445011347618742
10
96.111758059263195
20
27.61394507776199
42
-0.14080718747600202
10
96.11175805620519
20
-27.613945088405465
42
-0.33445011344543291
10
95.150640475643158
20
-28.337805637521395
10
83.738939416360466
20
-28.337805637521431
42
0.22418191989366426
10
82.966837158679141
20
-28.70230732620707
42
-0.47208991433371289
0
LINE
5
101
100
AcDbEntity
8
0
100
AcDbLine
10
78.973320159867029
20
26.732262561132572
30
0
11
82.173320159867004
21
26.732262561132572
31
0
0
LINE
5
102
100
AcDbEntity
8
0
100
AcDbLine
10
80.573320159867023
20
25.132262561132581
30
0
11
80.573320159867023
21
28.332262561132566
31
0
0
LINE
5
103
100
AcDbEntity
8
0
100
AcDbLine
10
80.573320159867038
20
-28.332262561132566
30
0
11
80.573320159867009
21
-25.132262561132581
31
0
0
LINE
5
104
100
AcDbEntity
8
0
100
AcDbLine
10
78.973320159867029
20
-26.732262561132572
30
0
11
82.173320159867004
21
-26.732262561132572
31
0
0
LINE
5
105
100
AcDbEntity
8
0
100
AcDbLine
10
41.59999999999998
20
14.549999999999862
30
0
11
38.399999999999984
21
14.54999999999986
31
0
0
LINE
5
106
100
AcDbEntity
8
0
100
AcDbLine
10
39.999999999999986
20
12.949999999999861
30
0
11
39.999999999999986
21
16.149999999999864
31
0
0
LINE
5
107
100
AcDbEntity
8
0
100
AcDbLine
10
41.59999999999998
20
-14.549999999999862
30
0
11
38.399999999999984
21
-14.549999999999862
31
0
0
LINE
5
108
100
AcDbEntity
8
0
100
AcDbLine
10
39.999999999999986
20
-16.149999999999864
30
0
11
39.999999999999986
21
-12.949999710544944
31
0
0
ENDSEC
0
SECTION
2
OBJECTS
0
DICTIONARY
5
C
100
AcDbDictionary
3
ACAD_GROUP
350
D
3
ACAD_MLINESTYLE
350
17
0
DICTIONARY
5
D
100
AcDbDictionary
0
DICTIONARY
5
1A
330
C
100
AcDbDictionary
0
DICTIONARY
5
17
100
AcDbDictionary
0
ENDSEC
0
EOF
