<?xml version="1.0" standalone="no"?>
<!DOCTYPE svg PUBLIC "-//W3C//DTD SVG 20010904//EN"
 "http://www.w3.org/TR/2001/REC-SVG-20010904/DTD/svg10.dtd">
<svg version="1.0" xmlns="http://www.w3.org/2000/svg"
 width="690.000000pt" height="316.000000pt" viewBox="0 0 690.000000 316.000000"
 preserveAspectRatio="xMidYMid meet">

<g transform="translate(0.000000,316.000000) scale(0.100000,-0.100000)"
fill="#000000" stroke="none">
<path d="M320 1795 l0 -1065 3130 0 3130 0 0 1065 0 1065 -3130 0 -3130 0 0
-1065z m1404 555 c133 -41 200 -146 200 -310 -1 -98 -25 -171 -77 -228 -79
-85 -167 -112 -367 -112 l-130 0 0 -200 0 -200 -165 0 -165 0 0 535 0 535 319
0 c292 0 324 -2 385 -20z m913 -283 c140 -48 229 -155 255 -305 22 -129 -18
-265 -104 -354 -82 -84 -188 -121 -344 -122 -201 0 -351 95 -414 261 -18 49
-21 74 -18 158 3 86 7 109 33 160 67 137 197 217 370 228 62 3 176 -10 222
-26z m2289 19 c131 -11 248 -85 300 -189 30 -59 54 -161 54 -234 l0 -53 -300
0 -300 0 6 -27 c18 -77 74 -123 150 -123 42 0 99 25 118 51 12 17 21 18 137 8
68 -5 134 -12 146 -15 l22 -4 -20 -34 c-11 -19 -40 -52 -64 -74 -87 -81 -174
-107 -350 -106 -176 1 -268 33 -344 120 -116 132 -134 358 -41 502 42 66 83
103 149 136 64 33 184 56 251 49 14 -1 53 -4 86 -7z m1076 -17 c13 -6 24 -13
26 -14 2 -1 -18 -50 -43 -108 -45 -103 -47 -106 -71 -96 -14 5 -43 9 -66 9
-32 0 -46 -6 -69 -31 -44 -48 -51 -87 -56 -316 l-5 -213 -149 0 -149 0 0 390
0 390 140 0 140 0 0 -57 0 -56 30 41 c36 50 70 73 118 82 43 7 121 -3 154 -21z
m-2728 -211 c31 -123 60 -230 63 -238 3 -8 41 91 84 220 l78 235 134 3 134 3
84 -243 c46 -134 85 -236 87 -228 2 8 29 116 61 240 l58 225 141 3 c83 1 142
-1 142 -7 0 -8 -237 -657 -271 -743 l-11 -28 -133 0 -133 0 -78 233 -78 232
-75 -232 -76 -233 -135 0 -135 0 -139 378 c-77 207 -141 383 -144 390 -3 9 29
12 140 12 l145 0 57 -222z"/>
<path d="M1350 2035 l0 -115 80 0 c119 0 170 34 170 112 0 89 -40 118 -164
118 l-86 0 0 -115z"/>
<path d="M2390 1872 c-53 -28 -81 -92 -81 -185 0 -88 16 -132 60 -170 65 -54
167 -32 207 45 21 41 29 153 15 206 -7 24 -27 59 -44 79 -41 44 -103 54 -157
25z"/>
<path d="M4785 1913 c-42 -10 -82 -61 -96 -120 l-7 -33 144 0 c141 0 144 0
144 22 0 12 -9 41 -20 64 -29 58 -93 84 -165 67z"/>
</g>
</svg>
