%TF.GenerationSoftware,KiCad,Pcbnew,8.0.1*%
%TF.CreationDate,2024-08-22T21:09:10+09:00*%
%TF.ProjectId,Line-20240325,4c696e65-2d32-4303-9234-303332352e6b,rev?*%
%TF.SameCoordinates,Original*%
%TF.FileFunction,Profile,NP*%
%FSLAX46Y46*%
G04 Gerber Fmt 4.6, Leading zero omitted, Abs format (unit mm)*
G04 Created by KiCad (PCBNEW 8.0.1) date 2024-08-22 21:09:10*
%MOMM*%
%LPD*%
G01*
G04 APERTURE LIST*
%TA.AperFunction,Profile*%
%ADD10C,0.200000*%
%TD*%
G04 APERTURE END LIST*
D10*
X-91584165Y33447548D02*
G75*
G02*
X-81917127Y31189582I4696579J-1715265D01*
G01*
X-78925136Y28971018D02*
G75*
G02*
X-81061630Y22305032I-1067569J-3333210D01*
G01*
X-48119295Y-21800121D02*
G75*
G02*
X-49332822Y-19418443I3J1500002D01*
G01*
X46152447Y-6250123D02*
G75*
G02*
X44652328Y-4762148I153J1500323D01*
G01*
X81915418Y31189581D02*
G75*
G02*
X91582456Y33447546I4970462J542689D01*
G01*
X-8649108Y-87071688D02*
G75*
G02*
X-21817762Y-84736612I8648329J87072058D01*
G01*
X31188852Y-81916395D02*
G75*
G02*
X29599700Y-80889555I-162652J1491395D01*
G01*
X52727729Y-12830553D02*
X43943044Y-15684870D01*
X81915418Y31189581D02*
G75*
G02*
X80888592Y29600385I-1491418J-162681D01*
G01*
X-29599228Y-80882788D02*
X-28971994Y-78924407D01*
X-7000854Y-85579032D02*
X-7000852Y-71496566D01*
X-81061630Y-22305277D02*
G75*
G02*
X-78925138Y-28971264I1068925J-3332776D01*
G01*
X48572857Y22173469D02*
G75*
G02*
X44175467Y26359262I-1500457J2826431D01*
G01*
X71495647Y6999878D02*
G75*
G02*
X70006181Y8322800I153J1500122D01*
G01*
X91582461Y-33447792D02*
G75*
G02*
X81915425Y-31189826I-4696581J1715252D01*
G01*
X-85579764Y6999878D02*
X-71497361Y6999878D01*
X22870403Y-82825935D02*
X22304302Y-81060899D01*
X31188852Y-81916395D02*
G75*
G02*
X33446817Y-91583434I542678J-4970465D01*
G01*
X78923430Y28971019D02*
X80888581Y29600420D01*
X46152447Y-6250123D02*
X52934848Y-6250122D01*
X91582461Y33447548D02*
G75*
G02*
X91582461Y-33447792I-91583366J-33447670D01*
G01*
X41906128Y-17424510D02*
G75*
G02*
X43943029Y-15684825I3118672J-1589190D01*
G01*
X-29599228Y-80882788D02*
G75*
G02*
X-31190557Y-81916395I-1428526J457542D01*
G01*
X-44146200Y-10535631D02*
G75*
G02*
X-44771549Y-13140394I-3456906J-547517D01*
G01*
X81059925Y22305034D02*
G75*
G02*
X78923435Y28971002I-1068925J3332766D01*
G01*
X40093951Y-20981104D02*
G75*
G02*
X38757441Y-21800110I-1336451J680904D01*
G01*
X-46640905Y-1337768D02*
X-54118500Y4095021D01*
X-22306007Y-81060899D02*
X-22872090Y-82825878D01*
X-71497323Y-7000121D02*
X-85579763Y-7000120D01*
X82824959Y22871135D02*
X81059925Y22305033D01*
X85578048Y-7000121D02*
G75*
G02*
X87070711Y-8648378I252J-1499779D01*
G01*
X82824959Y22871134D02*
G75*
G02*
X84735598Y21816777I458141J-1428134D01*
G01*
X27752581Y47484053D02*
G75*
G02*
X28495661Y46189031I-756981J-1295053D01*
G01*
X29520803Y34471332D02*
G75*
G02*
X28495694Y36946212I2474197J2474568D01*
G01*
X-7000854Y-85579032D02*
G75*
G02*
X-8649108Y-87071688I-1499995J-6D01*
G01*
X-49332821Y-19418444D02*
X-44771549Y-13140394D01*
X36945447Y28496465D02*
X42817546Y28496465D01*
X-80883517Y29598254D02*
G75*
G02*
X-81917125Y31189582I457528J1428518D01*
G01*
X38757441Y-21800122D02*
X-48119295Y-21800121D01*
X-36584647Y41068430D02*
G75*
G02*
X-35123386Y41374962I997736J-1120046D01*
G01*
X-81917126Y-31189826D02*
G75*
G02*
X-80883519Y-29598499I1491142J162806D01*
G01*
X-84737343Y21816787D02*
G75*
G02*
X-82826606Y22871115I1452622J-373998D01*
G01*
X71495647Y6999878D02*
X85583244Y6999878D01*
X-12829487Y52734266D02*
G75*
G02*
X-11722583Y53736280I1426580J-463519D01*
G01*
X-35123386Y41374962D02*
X-26332968Y38518784D01*
X78923430Y-28971263D02*
G75*
G02*
X81059924Y-22305278I1067560J3333213D01*
G01*
X80881781Y-29598487D02*
X78923430Y-28971263D01*
X-44146200Y-10535631D02*
X-45241243Y-3621810D01*
X-78925138Y-28971264D02*
X-80883519Y-29598499D01*
X-82826603Y-22871359D02*
X-81061630Y-22305277D01*
X54419017Y7967168D02*
G75*
G02*
X52934839Y6249880I-1484317J-217168D01*
G01*
X70006113Y-8323035D02*
G75*
G02*
X71487339Y-7000159I1489387J-176965D01*
G01*
X6999146Y-71496572D02*
G75*
G02*
X8322064Y-70007063I1499894J92D01*
G01*
X29520802Y34471331D02*
X34476707Y29515427D01*
X-87072418Y-8648377D02*
G75*
G02*
X-85579764Y-7000122I1492652J148258D01*
G01*
X-11722583Y53736279D02*
G75*
G02*
X27752580Y47484053I11721731J-53736409D01*
G01*
X41906128Y-17424510D02*
X40093951Y-20981104D01*
X-81061630Y22305032D02*
X-82826606Y22871115D01*
X-81917127Y-31189826D02*
G75*
G02*
X-91584168Y-33447793I-4970460J-542703D01*
G01*
X84735635Y21816787D02*
G75*
G02*
X87070713Y8648134I-84737000J-21817001D01*
G01*
X44652397Y4749878D02*
G75*
G02*
X46152396Y6249903I1500003J22D01*
G01*
X52934848Y-6250122D02*
G75*
G02*
X54400361Y-8070036I52J-1499978D01*
G01*
X-54729416Y5457386D02*
G75*
G02*
X-50653996Y21430206I54728526J-5457503D01*
G01*
X85578048Y-7000121D02*
X71487339Y-7000120D01*
X-23662443Y38728958D02*
G75*
G02*
X-26332968Y38518785I-1588963J3118517D01*
G01*
X87070712Y-8648378D02*
G75*
G02*
X84735634Y-21817032I-87071729J8648284D01*
G01*
X-80883517Y29598254D02*
X-78925136Y28971019D01*
X-15685663Y43943856D02*
X-12829487Y52734266D01*
X-87072418Y8648134D02*
G75*
G02*
X-84737343Y21816787I87071907J-8648298D01*
G01*
X28970288Y-78924405D02*
X29599690Y-80889558D01*
X6999146Y-71496572D02*
X6999147Y-85583920D01*
X54400338Y-8070031D02*
X53735571Y-11721762D01*
X36945447Y28496465D02*
G75*
G02*
X34476708Y29515428I53J3500235D01*
G01*
X48572857Y22173468D02*
X48567388Y22170565D01*
X-45567014Y27822778D02*
G75*
G02*
X-46121376Y29964815I703473J1324813D01*
G01*
X-21817762Y-84736611D02*
G75*
G02*
X-22872090Y-82825878I374048J1452648D01*
G01*
X-28971993Y-78924407D02*
G75*
G02*
X-22306007Y-81060899I3333209J-1067571D01*
G01*
X-84737342Y-21817032D02*
G75*
G02*
X-87072423Y-8648377I84737642J21817132D01*
G01*
X87070712Y8648134D02*
G75*
G02*
X85583244Y6999866I-1492812J-148134D01*
G01*
X8647402Y-87071690D02*
G75*
G02*
X6999146Y-85583920I-148232J1492690D01*
G01*
X80881781Y-29598487D02*
G75*
G02*
X81915410Y-31189825I-457181J-1428313D01*
G01*
X-91584168Y-33447793D02*
G75*
G02*
X-91584165Y33447548I91583262J33447666D01*
G01*
X70006113Y-8323035D02*
G75*
G02*
X8322065Y-70007068I-70006993J8322962D01*
G01*
X33446818Y-91583436D02*
G75*
G02*
X-33448524Y-91583436I-33447671J91583322D01*
G01*
X44652397Y4749878D02*
X44652397Y-4762147D01*
X-8323771Y-70007056D02*
G75*
G02*
X-70007809Y-8323036I8322926J70006967D01*
G01*
X81059925Y-22305276D02*
X82828849Y-22872627D01*
X-45573302Y27826117D02*
X-45567014Y27822778D01*
X52934839Y6249878D02*
X46152396Y6249878D01*
X-50653996Y21430206D02*
G75*
G02*
X-48569136Y22170584I1381449J-584469D01*
G01*
X21816056Y-84736611D02*
G75*
G02*
X8647402Y-87071689I-21816997J84736982D01*
G01*
X84735634Y-21817032D02*
G75*
G02*
X82828857Y-22872601I-1452734J374232D01*
G01*
X-48569136Y22170584D02*
X-48574833Y22173611D01*
X-70007852Y8322795D02*
G75*
G02*
X70006134Y8322794I70006993J-8322918D01*
G01*
X-82826602Y-22871357D02*
G75*
G02*
X-84737343Y-21817032I-458117J1428330D01*
G01*
X48567388Y22170564D02*
G75*
G02*
X50652294Y21430207I703512J-1324664D01*
G01*
X-15685664Y43943856D02*
G75*
G02*
X-17425396Y41906891I-3328714J1081573D01*
G01*
X22870402Y-82825935D02*
G75*
G02*
X21816056Y-84736613I-1428202J-458135D01*
G01*
X-8323771Y-70007057D02*
G75*
G02*
X-7000853Y-71496566I-177123J-1489547D01*
G01*
X42817546Y28496465D02*
G75*
G02*
X44175473Y26359259I54J-1499965D01*
G01*
X28495668Y46189031D02*
X28495668Y36946212D01*
X-45573302Y27826117D02*
G75*
G02*
X-48574833Y22173612I-1500789J-2826240D01*
G01*
X-54118500Y4095022D02*
G75*
G02*
X-54729416Y5457386I881681J1213523D01*
G01*
X-23662443Y38728957D02*
X-17425396Y41906891D01*
X50652291Y21430206D02*
G75*
G02*
X54419017Y7967168I-50652780J-21430227D01*
G01*
X-46640905Y-1337768D02*
G75*
G02*
X-45241244Y-3621810I-2057253J-2831563D01*
G01*
X53735571Y-11721762D02*
G75*
G02*
X52727730Y-12830555I-1465971J320062D01*
G01*
X-71497323Y-7000121D02*
G75*
G02*
X-70007809Y-8323036I0J-1500004D01*
G01*
X-70007852Y8322795D02*
G75*
G02*
X-71497361Y6999878I-1489507J177079D01*
G01*
X-85579764Y6999878D02*
G75*
G02*
X-87072417Y8648134I1J1499999D01*
G01*
X-46121376Y29964815D02*
G75*
G02*
X-36584647Y41068430I46120617J-29965024D01*
G01*
X22304303Y-81060899D02*
G75*
G02*
X28970288Y-78924405I3332777J1068919D01*
G01*
X-33448524Y-91583435D02*
G75*
G02*
X-31190557Y-81916396I1715237J4696586D01*
G01*
M02*
