<?xml version="1.0" standalone="no"?>
<!DOCTYPE svg PUBLIC "-//W3C//DTD SVG 20010904//EN"
 "http://www.w3.org/TR/2001/REC-SVG-20010904/DTD/svg10.dtd">
<svg version="1.0" xmlns="http://www.w3.org/2000/svg"
 width="1920.000000pt" height="1080.000000pt" viewBox="0 0 1920.000000 1080.000000"
 preserveAspectRatio="xMidYMid meet">

<g transform="translate(0.000000,1080.000000) scale(0.100000,-0.100000)"
fill="#000000" stroke="none">
<path d="M315 10750 c308 -52 487 -91 670 -144 711 -205 1397 -632 1918 -1194
206 -222 320 -375 463 -623 83 -145 333 -635 484 -949 369 -771 733 -1545
1573 -3345 1108 -2377 1293 -2754 1483 -3040 259 -388 706 -782 1179 -1038
301 -163 669 -298 949 -347 325 -57 697 -61 5701 -65 l4430 -4 -280 48 c-322
56 -459 86 -672 147 -469 134 -945 377 -1365 696 -315 239 -639 567 -839 847
-237 332 -550 970 -1931 3931 -1408 3018 -1592 3398 -1780 3678 -183 272 -487
574 -813 807 -438 313 -1014 549 -1450 594 -369 39 -1831 50 -6410 50 l-3590
-1 280 -48z"/>
<path d="M15690 10795 c0 -2 80 -176 179 -387 98 -211 365 -783 594 -1273 228
-489 757 -1623 1175 -2520 418 -896 853 -1830 967 -2075 421 -903 567 -1214
580 -1239 12 -22 14 506 15 3737 l0 3762 -1755 0 c-965 0 -1755 -2 -1755 -5z"/>
<path d="M0 3768 l0 -3768 1759 0 1759 0 -118 253 c-65 138 -352 754 -638
1367 -286 613 -831 1783 -1212 2600 -1360 2917 -1532 3285 -1541 3300 -5 9 -9
-1589 -9 -3752z"/>
</g>
</svg>
