<?xml version="1.0" standalone="no"?>
<!DOCTYPE svg PUBLIC "-//W3C//DTD SVG 20010904//EN"
 "http://www.w3.org/TR/2001/REC-SVG-20010904/DTD/svg10.dtd">
<svg version="1.0" xmlns="http://www.w3.org/2000/svg"
 width="1098.000000pt" height="316.000000pt" viewBox="0 0 1098.000000 316.000000"
 preserveAspectRatio="xMidYMid meet">

<g transform="translate(0.000000,316.000000) scale(0.100000,-0.100000)"
fill="#000000" stroke="none">
<path d="M350 1795 l0 -1065 5140 0 5140 0 0 1065 0 1065 -5140 0 -5140 0 0
-1065z m4815 569 c129 -45 199 -126 229 -266 l6 -26 -118 -6 c-64 -4 -136 -9
-159 -12 -35 -4 -43 -2 -43 11 0 9 -9 33 -20 54 -23 46 -70 71 -135 71 -72 0
-114 -30 -115 -82 0 -41 39 -64 162 -93 225 -52 319 -94 387 -171 68 -78 89
-190 56 -302 -19 -64 -82 -144 -143 -183 -136 -86 -386 -102 -582 -37 -108 35
-191 139 -221 276 -7 28 -10 54 -8 56 2 3 75 8 162 12 l157 7 0 -24 c0 -35 41
-100 77 -125 70 -47 180 -39 227 17 46 55 26 123 -46 157 -24 11 -97 34 -163
51 -146 38 -229 76 -289 131 -147 136 -94 383 100 467 79 34 145 43 289 39
100 -3 154 -9 190 -22z m-3815 -394 l0 -400 260 0 260 0 0 -135 0 -135 -425 0
-425 0 0 535 0 535 165 0 165 0 0 -400z m960 300 l0 -100 -150 0 -150 0 0 100
0 100 150 0 150 0 0 -100z m879 -205 c51 -26 91 -77 111 -143 18 -57 20 -94
20 -343 l0 -279 -150 0 -150 0 0 235 c0 250 -6 292 -48 314 -29 16 -78 14
-113 -5 -55 -28 -62 -63 -67 -316 l-4 -228 -144 0 -144 0 0 390 0 390 140 0
140 0 0 -60 0 -60 40 40 c51 51 112 82 180 89 64 7 150 -3 189 -24z m866 14
c191 -36 305 -192 305 -416 l0 -53 -295 0 -295 0 0 -23 c0 -12 8 -38 18 -56
44 -82 169 -95 242 -26 25 23 26 24 145 14 165 -14 168 -14 154 -41 -20 -38
-92 -109 -136 -135 -131 -76 -392 -82 -532 -11 -153 78 -232 271 -187 461 55
232 281 344 581 286z m2138 -14 c73 -23 145 -80 185 -145 43 -72 52 -107 59
-217 l6 -93 -298 0 -297 0 6 -32 c14 -71 72 -118 144 -118 48 0 74 11 112 46
l25 23 137 -12 c75 -7 140 -16 144 -19 10 -11 -65 -104 -110 -136 -60 -42
-115 -60 -219 -73 -118 -15 -255 0 -330 34 -57 26 -126 92 -161 153 -49 87
-64 219 -36 332 26 110 126 217 240 258 95 34 284 33 393 -1z m1092 -9 c24
-14 52 -38 62 -54 47 -68 48 -73 51 -394 l3 -308 -150 0 -150 0 -3 256 -3 256
-28 24 c-60 51 -154 17 -177 -64 -5 -20 -10 -135 -10 -254 l0 -218 -150 0
-150 0 0 390 0 390 140 0 140 0 0 -62 0 -62 48 46 c59 57 97 77 170 86 79 10
154 -1 207 -32z m786 29 c106 -10 186 -59 232 -144 l28 -50 -23 -5 c-34 -7
-259 -28 -262 -24 -1 2 -9 15 -18 29 -19 30 -89 52 -137 43 -62 -13 -82 -77
-31 -101 14 -6 76 -19 139 -28 204 -30 287 -69 331 -156 26 -50 26 -140 1
-194 -56 -121 -223 -186 -441 -171 -157 11 -229 36 -293 103 -33 33 -76 117
-66 127 2 3 69 10 148 17 125 11 145 11 149 -2 3 -8 20 -29 38 -46 29 -30 38
-33 91 -33 70 0 123 27 123 62 0 48 -21 59 -165 87 -186 37 -241 57 -288 104
-85 85 -88 215 -8 295 51 51 127 82 223 91 81 8 111 8 229 -4z m1042 -25 c79
-30 158 -104 199 -187 27 -56 33 -79 36 -157 6 -146 -35 -251 -131 -331 -157
-131 -441 -134 -613 -7 -93 69 -151 206 -141 337 8 108 40 179 111 251 80 80
169 118 296 127 66 4 187 -12 243 -33z m970 9 c32 -14 32 -13 -24 -138 -24
-52 -44 -85 -51 -82 -7 2 -32 6 -56 9 -116 13 -152 -78 -152 -385 l0 -173
-150 0 -150 0 0 390 0 390 140 0 140 0 0 -62 0 -62 29 46 c35 54 68 79 119 88
43 7 115 -3 155 -21z m-7773 -379 l0 -390 -150 0 -150 0 0 390 0 390 150 0
150 0 0 -390z"/>
<path d="M3850 1902 c-42 -21 -80 -75 -80 -113 l0 -29 144 0 144 0 -7 33 c-25
108 -111 155 -201 109z"/>
<path d="M5950 1912 c-43 -21 -70 -47 -84 -83 -29 -71 -33 -69 130 -69 l146 0
-7 33 c-11 48 -32 85 -60 103 -28 18 -102 28 -125 16z"/>
<path d="M8855 1879 c-72 -42 -101 -112 -93 -223 6 -73 26 -116 68 -146 41
-29 111 -30 147 -3 56 41 68 68 71 163 6 140 -34 207 -131 217 -23 2 -51 -2
-62 -8z"/>
</g>
</svg>
