0
SECTION
2
HEADER
9
$INSUNITS
70
4
9
$ACADVER
1
AC1014
9
$HANDSEED
5
FFFF
0
ENDSEC
0
SECTION
2
TABLES
0
TABLE
2
VPORT
5
8
100
AcDbSymbolTable
0
ENDTAB
0
TABLE
2
LTYPE
5
5
100
AcDbSymbolTable
0
LTYPE
5
14
100
AcDbSymbolTableRecord
100
AcDbLinetypeTableRecord
2
BYBLOCK
70
0
0
LTYPE
5
15
100
AcDbSymbolTableRecord
100
AcDbLinetypeTableRecord
2
BYLAYER
70
0
0
ENDTAB
0
TABLE
2
LAYER
5
2
100
AcDbSymbolTable
70
2
0
LAYER
5
50
100
AcDbSymbolTableRecord
100
AcDbLayerTableRecord
2
0
70
0
6
CONTINUOUS
0
ENDTAB
0
TABLE
2
STYLE
5
3
100
AcDbSymbolTable
70
1
0
STYLE
5
11
100
AcDbSymbolTableRecord
100
AcDbTextStyleTableRecord
2
STANDARD
70
0
0
ENDTAB
0
TABLE
2
VIEW
5
6
100
AcDbSymbolTable
70
0
0
ENDTAB
0
TABLE
2
UCS
5
7
100
AcDbSymbolTable
70
0
0
ENDTAB
0
TABLE
2
APPID
5
9
100
AcDbSymbolTable
70
2
0
APPID
5
12
100
AcDbSymbolTableRecord
100
AcDbRegAppTableRecord
2
ACAD
70
0
0
ENDTAB
0
TABLE
2
DIMSTYLE
5
A
100
AcDbSymbolTable
70
1
0
ENDTAB
0
TABLE
2
BLOCK_RECORD
5
1
100
AcDbSymbolTable
70
1
0
BLOCK_RECORD
5
1F
100
AcDbSymbolTableRecord
100
AcDbBlockTableRecord
2
*MODEL_SPACE
0
BLOCK_RECORD
5
1B
100
AcDbSymbolTableRecord
100
AcDbBlockTableRecord
2
*PAPER_SPACE
0
ENDTAB
0
ENDSEC
0
SECTION
2
BLOCKS
0
BLOCK
5
20
100
AcDbEntity
100
AcDbBlockBegin
2
*MODEL_SPACE
0
ENDBLK
5
21
100
AcDbEntity
100
AcDbBlockEnd
0
BLOCK
5
1C
100
AcDbEntity
100
AcDbBlockBegin
2
*PAPER_SPACE
0
ENDBLK
5
1D
100
AcDbEntity
100
AcDbBlockEnd
0
ENDSEC
0
SECTION
2
ENTITIES
0
LWPOLYLINE
5
100
100
AcDbEntity
8
0
100
AcDbPolyline
90
49
70
1
43
0.0
10
-101.00000150501727
20
-7.0000001043081408
10
-101.00000150501729
20
6.999999895691861
10
-82.136604968048829
20
7.0000001043081408
10
-82.136604968048843
20
10.600000000000005
42
-0.99999999999999989
10
-75.936604968048826
20
10.600000000000005
10
-75.936604968048826
20
7.000000104308139
10
-21.38340486241194
20
6.9999997492983752
42
-0.238914256012945
10
-6.9999998064092797
20
21.383404843716306
10
-7.0000001043081284
20
51.423953836938182
10
-10.60000000000009
20
51.423953836938182
42
-0.99999999999999989
10
-10.60000000000009
20
57.623953836938199
10
-7.0000001043081284
20
57.623953836938199
10
-7.0000000000001004
20
65.000000968575463
10
6.9999999999999005
20
65.000000968575492
10
7.0000001043081284
20
57.623953836938199
10
10.60000000000009
20
57.623953836938199
42
-0.99999999999999989
10
10.60000000000009
20
51.423953836938182
10
7.0000001043081284
20
51.423953836938182
10
6.9999998064089137
20
21.383404843716431
42
-0.23891425162551166
10
21.383404746197215
20
7.0000001043078699
10
75.936604968048826
20
7.000000104308139
10
75.93660496804884
20
10.600000000000005
42
-0.99999999999999989
10
82.136604968048829
20
10.600000000000005
10
82.136604968048829
20
7.0000001043081408
10
101.00000150501727
20
7.0000001043081284
10
101.00000150501729
20
-6.9999998956918734
10
82.136604968048829
20
-7.0000001043081381
10
82.136604968048843
20
-10.600000000000001
42
-0.99999999999999989
10
75.936604968048826
20
-10.600000000000001
10
75.936604968048826
20
-7.0000001043081372
10
68.724879797404853
20
-7.0000001043081284
10
21.383404862411943
20
-6.9999997492983823
42
-0.23891425233132071
10
7.0000001043078663
20
-21.383404746197215
10
7.0000001043081141
20
-68.724879797404867
10
10.599999999999872
20
-68.724879797404867
42
-0.99999999999999989
10
10.599999999999872
20
-74.924879797404856
10
7.0000001043081124
20
-74.924879797404856
10
7.000000104308107
20
-101.00000150501728
10
-6.9999998956918965
20
-101.00000150501731
10
-7.0000001043081461
20
-74.924879797404856
10
-10.599999999999902
20
-74.924879797404856
42
-0.99999999999999989
10
-10.599999999999902
20
-68.724879797404867
10
-7.0000001043081452
20
-68.724879797404867
10
-6.9999997492983859
20
-21.38340486241194
42
-0.2389142523313206
10
-21.383404746197215
20
-7.0000001043078726
10
-75.936604968048826
20
-7.0000001043081372
10
-75.93660496804884
20
-10.600000000000001
42
-0.99999999999999989
10
-82.136604968048829
20
-10.600000000000001
10
-82.136604968048829
20
-7.0000001043081381
0
LINE
5
101
100
AcDbEntity
8
0
100
AcDbLine
10
-12.200000000000093
20
54.52395383693819
30
0
11
-9.0000001341104507
21
54.52395383693819
31
0
0
LINE
5
102
100
AcDbEntity
8
0
100
AcDbLine
10
-10.60000000000009
20
52.923953836938189
30
0
11
-10.60000000000009
21
56.123953836938192
31
0
0
LINE
5
103
100
AcDbEntity
8
0
100
AcDbLine
10
10.59999999999992
20
52.923720076294586
30
0
11
10.59999999999992
21
56.123720076294589
31
0
0
LINE
5
104
100
AcDbEntity
8
0
100
AcDbLine
10
8.9999999999999165
20
54.52372007629458
30
0
11
12.199999865889559
21
54.52372007629458
31
0
0
LINE
5
105
100
AcDbEntity
8
0
100
AcDbLine
10
-10.599999999999667
20
-70.224879797404824
30
0
11
-10.599999999999667
21
-73.424879797404827
31
0
0
LINE
5
106
100
AcDbEntity
8
0
100
AcDbLine
10
-12.199999999999669
20
-71.824879797404861
30
0
11
-8.999999999999666
21
-71.824879797404861
31
0
0
LINE
5
107
100
AcDbEntity
8
0
100
AcDbLine
10
10.600000000000108
20
-70.224879797404824
30
0
11
10.600000000000108
21
-73.424879797404827
31
0
0
LINE
5
108
100
AcDbEntity
8
0
100
AcDbLine
10
9.0000000000001066
20
-71.824879797404861
30
0
11
12.200000000000109
21
-71.824879797404861
31
0
0
CIRCLE
5
109
100
AcDbEntity
8
0
100
AcDbCircle
10
-10.60000000000009
20
54.52395383693819
30
0
40
1.5999998658896386
210
0
220
0
230
1
0
CIRCLE
5
110
100
AcDbEntity
8
0
100
AcDbCircle
10
10.60000000000009
20
54.52395383693819
30
0
40
1.5999998829657334
210
0
220
0
230
1
0
CIRCLE
5
111
100
AcDbEntity
8
0
100
AcDbCircle
10
10.599999999999872
20
-71.824879797404861
30
0
40
1.6000000000002368
210
0
220
0
230
1
0
CIRCLE
5
112
100
AcDbEntity
8
0
100
AcDbCircle
10
-10.599999999999902
20
-71.824879797404861
30
0
40
1.6000000000002368
210
0
220
0
230
1
0
CIRCLE
5
113
100
AcDbEntity
8
0
100
AcDbCircle
10
10.600000000000001
20
-71.824879800000019
30
0
40
1.600000000000001
210
0
220
0
230
1
0
CIRCLE
5
114
100
AcDbEntity
8
0
100
AcDbCircle
10
-79.036604968048835
20
10.600000000000001
30
0
40
1.6000000000000014
210
0
220
0
230
1
0
CIRCLE
5
115
100
AcDbEntity
8
0
100
AcDbCircle
10
-10.600000000000001
20
54.523720080000004
30
0
40
1.6000000000000032
210
0
220
0
230
1
0
CIRCLE
5
116
100
AcDbEntity
8
0
100
AcDbCircle
10
10.600000000000001
20
54.523720080000004
30
0
40
1.6000000000000032
210
0
220
0
230
1
0
CIRCLE
5
117
100
AcDbEntity
8
0
100
AcDbCircle
10
-79.036604968048835
20
-10.600000000000001
30
0
40
1.6000000000000014
210
0
220
0
230
1
0
CIRCLE
5
118
100
AcDbEntity
8
0
100
AcDbCircle
10
-10.600000000000001
20
-71.824879800000019
30
0
40
1.600000000000001
210
0
220
0
230
1
0
LINE
5
119
100
AcDbEntity
8
0
100
AcDbLine
10
-80.636604968048829
20
-10.600000000000001
30
0
11
-77.436604968048826
21
-10.600000000000001
31
0
0
LINE
5
120
100
AcDbEntity
8
0
100
AcDbLine
10
-79.036604968048835
20
-12.200000000000003
30
0
11
-79.036604968048835
21
-9.0000001341104507
31
0
0
CIRCLE
5
121
100
AcDbEntity
8
0
100
AcDbCircle
10
-79.036604968048835
20
10.600000000000005
30
0
40
1.6000000000000014
210
0
220
0
230
1
0
LINE
5
122
100
AcDbEntity
8
0
100
AcDbLine
10
-80.636604968048829
20
10.600000000000005
30
0
11
-77.436604968048826
21
10.600000000000005
31
0
0
LINE
5
123
100
AcDbEntity
8
0
100
AcDbLine
10
-79.036604968048835
20
12.200000000000006
30
0
11
-79.036604968048835
21
9.0000001341104525
31
0
0
CIRCLE
5
124
100
AcDbEntity
8
0
100
AcDbCircle
10
79.036604968048835
20
-10.600000000000001
30
0
40
1.6000000000000014
210
0
220
0
230
1
0
LINE
5
125
100
AcDbEntity
8
0
100
AcDbLine
10
80.636604968048829
20
-10.600000000000001
30
0
11
77.436604968048826
21
-10.600000000000001
31
0
0
LINE
5
126
100
AcDbEntity
8
0
100
AcDbLine
10
79.036604968048835
20
-12.200000000000003
30
0
11
79.036604968048835
21
-9.0000001341104507
31
0
0
CIRCLE
5
127
100
AcDbEntity
8
0
100
AcDbCircle
10
79.036604968048835
20
10.600000000000005
30
0
40
1.6000000000000014
210
0
220
0
230
1
0
LINE
5
128
100
AcDbEntity
8
0
100
AcDbLine
10
80.636604968048829
20
10.600000000000005
30
0
11
77.436604968048826
21
10.600000000000005
31
0
0
LINE
5
129
100
AcDbEntity
8
0
100
AcDbLine
10
79.036604968048835
20
12.200000000000006
30
0
11
79.036604968048835
21
9.0000001341104525
31
0
0
ENDSEC
0
SECTION
2
OBJECTS
0
DICTIONARY
5
C
100
AcDbDictionary
3
ACAD_GROUP
350
D
3
ACAD_MLINESTYLE
350
17
0
DICTIONARY
5
D
100
AcDbDictionary
0
DICTIONARY
5
1A
330
C
100
AcDbDictionary
0
DICTIONARY
5
17
100
AcDbDictionary
0
ENDSEC
0
EOF
