0
SECTION
2
HEADER
9
$INSUNITS
70
4
9
$ACADVER
1
AC1014
9
$HANDSEED
5
FFFF
0
ENDSEC
0
SECTION
2
TABLES
0
TABLE
2
VPORT
5
8
100
AcDbSymbolTable
0
ENDTAB
0
TABLE
2
LTYPE
5
5
100
AcDbSymbolTable
0
LTYPE
5
14
100
AcDbSymbolTableRecord
100
AcDbLinetypeTableRecord
2
BYBLOCK
70
0
0
LTYPE
5
15
100
AcDbSymbolTableRecord
100
AcDbLinetypeTableRecord
2
BYLAYER
70
0
0
LTYPE
5
16
100
AcDbSymbolTableRecord
100
AcDbLinetypeTableRecord
2
DASHED
70
0
3
Dashed __ __ __ __ __ __ __ __ __ __ __ __ __ _
72
65
73
2
40
0.75
49
0.5
74
0
49
-0.25
74
0
0
ENDTAB
0
TABLE
2
LAYER
5
2
100
AcDbSymbolTable
70
3
0
LAYER
5
50
100
AcDbSymbolTableRecord
100
AcDbLayerTableRecord
2
1
70
0
62
7
6
DASHED
0
LAYER
5
51
100
AcDbSymbolTableRecord
100
AcDbLayerTableRecord
2
0
70
0
62
7
6
CONTINUOUS
0
ENDTAB
0
TABLE
2
STYLE
5
3
100
AcDbSymbolTable
70
1
0
STYLE
5
11
100
AcDbSymbolTableRecord
100
AcDbTextStyleTableRecord
2
STANDARD
70
0
0
ENDTAB
0
TABLE
2
VIEW
5
6
100
AcDbSymbolTable
70
0
0
ENDTAB
0
TABLE
2
UCS
5
7
100
AcDbSymbolTable
70
0
0
ENDTAB
0
TABLE
2
APPID
5
9
100
AcDbSymbolTable
70
2
0
APPID
5
12
100
AcDbSymbolTableRecord
100
AcDbRegAppTableRecord
2
ACAD
70
0
0
ENDTAB
0
TABLE
2
DIMSTYLE
5
A
100
AcDbSymbolTable
70
1
0
ENDTAB
0
TABLE
2
BLOCK_RECORD
5
1
100
AcDbSymbolTable
70
1
0
BLOCK_RECORD
5
1F
100
AcDbSymbolTableRecord
100
AcDbBlockTableRecord
2
*MODEL_SPACE
0
BLOCK_RECORD
5
1B
100
AcDbSymbolTableRecord
100
AcDbBlockTableRecord
2
*PAPER_SPACE
0
ENDTAB
0
ENDSEC
0
SECTION
2
BLOCKS
0
BLOCK
5
20
100
AcDbEntity
100
AcDbBlockBegin
2
*MODEL_SPACE
0
ENDBLK
5
21
100
AcDbEntity
100
AcDbBlockEnd
0
BLOCK
5
1C
100
AcDbEntity
100
AcDbBlockBegin
2
*PAPER_SPACE
0
ENDBLK
5
1D
100
AcDbEntity
100
AcDbBlockEnd
0
ENDSEC
0
SECTION
2
ENTITIES
0
LWPOLYLINE
5
100
100
AcDbEntity
8
0
100
AcDbPolyline
90
52
70
1
43
0.0
10
46.311807730033991
20
-32.364586584359678
42
0.44130051360092831
10
45.339143128935653
20
-28.040214670997049
42
-0.97029241899538765
10
48.620952689350133
20
-21.860798202295712
42
0.44130051360092842
10
52.748360793116611
20
-20.245010092340635
42
0.050972001502267203
10
55.75333304748861
20
-9.1550998954242111
42
0.46272771075278796
10
53.286371735680007
20
-6.250006979697468
10
50.986582643227791
20
-6.2500066784609327
42
-0.41421356237309337
10
48.486582970688858
20
-3.7500063509999029
10
48.486583953072007
20
3.7499936490000407
42
-0.41421356237309437
10
50.986584280533037
20
6.2499933215389731
10
53.286373372986617
20
6.2499930203024325
42
0.46272771075265001
10
55.753335445838502
20
9.1550852897608124
42
0.050972001502273538
10
52.748366096676591
20
20.244996273887239
42
0.44130058304391778
10
48.620957790612998
20
21.860785156665074
42
-0.97029264385590897
10
45.339149820801751
20
28.040202525466906
42
0.44130058304391367
10
46.311816153215013
20
32.364574531256977
42
0.017426319666479943
10
43.945446470732648
20
35.511233919569641
42
0.4455381053152066
10
40.233190735875787
20
35.707707336272939
10
39.951533137051939
20
35.426049737449098
42
-0.53839954924243227
10
34.717802558312229
20
36.499999999984389
10
33.000000447034836
20
36.499999999984389
42
0.41421356237309503
10
30.000000447034836
20
33.499999999984389
10
30.000000447034836
20
24.499999999984389
42
-0.41421356237309548
10
27.000000447034832
20
21.499999999984389
10
-12.00000022351742
20
21.499999999984389
42
-0.41421356237309531
10
-15.000000223517418
20
24.499999999984389
10
-15.000000223517427
20
33.499999999984354
42
0.41421356237309548
10
-18.000000223517425
20
36.499999999984347
10
-34.717802558310005
20
36.499999999984347
42
-0.53839954924287026
10
-39.951533137051321
20
35.426049737445013
10
-40.233190735876022
20
35.707707336269713
42
0.44553810531511884
10
-43.945446470712007
20
35.511233919550463
42
0.017426254581930478
10
-46.311807730043412
20
32.364586584333814
42
0.44130051360092731
10
-45.339143128945111
20
28.040214670971185
42
-0.97029241899538599
10
-48.620952689359591
20
21.860798202269848
42
0.44130051360092765
10
-52.748360793126068
20
20.245010092314772
42
0.18531179731534059
10
-52.748360793126061
20
-20.245010092340614
42
0.44130051359852557
10
-48.620952689359598
20
-21.86079820226983
42
-0.97029241899538599
10
-45.339143128945089
20
-28.040214670971185
42
0.44130051360092715
10
-46.311807730055612
20
-32.364586584342319
42
0.017426254581912937
10
-43.945446470727916
20
-35.511233919556702
42
0.44553810531520638
10
-40.233190735871062
20
-35.70770733626
10
-39.951533137047221
20
-35.426049737436159
42
-0.99999999999999989
10
-35.426049737436159
20
-39.951533137047221
10
-35.707707336260867
20
-40.233190735871922
42
0.44553810531513882
10
-35.51123391956245
20
-43.945446470733948
42
0.35353751879549139
10
35.511233919565541
20
-43.945446470723809
42
0.4455381053152066
10
35.70770733626884
20
-40.233190735866948
10
35.426049737444998
20
-39.951533137043107
42
-0.99999999999999989
10
39.95153313705606
20
-35.426049737432052
10
40.233190735880761
20
-35.70770733625676
42
0.44553810531513199
10
43.945446470727219
20
-35.511233919545838
42
0.01742625458175626
0
CIRCLE
5
101
100
AcDbEntity
8
0
100
AcDbCircle
10
30.718201660837579
20
-92.662308213387092
30
0
40
1.6000000000000014
210
0
220
-0
230
1
0
CIRCLE
5
102
100
AcDbEntity
8
0
100
AcDbCircle
10
-87.391413733090033
20
31.807873329272756
30
0
40
1.6000000000000014
210
0
220
-0
230
1
0
CIRCLE
5
103
100
AcDbEntity
8
0
100
AcDbCircle
10
47.073240806211352
20
-25.000000000012932
30
0
40
1.6000000000000014
210
0
220
-0
230
1
0
CIRCLE
5
104
100
AcDbEntity
8
0
100
AcDbCircle
10
31.807873329276887
20
87.391413733081222
30
0
40
1.599999999999997
210
0
220
-0
230
1
0
CIRCLE
5
105
100
AcDbEntity
8
0
100
AcDbCircle
10
47.07324599999999
20
24.999987000000004
30
0
40
1.6000000000000014
210
0
220
-0
230
1
0
CIRCLE
5
106
100
AcDbEntity
8
0
100
AcDbCircle
10
-47.073240806220809
20
24.999999999987072
30
0
40
1.6000000000000014
210
0
220
-0
230
1
0
CIRCLE
5
107
100
AcDbEntity
8
0
100
AcDbCircle
10
-30.718201660841942
20
-92.662308213390673
30
0
40
1.6000000000000014
210
0
220
-0
230
1
0
CIRCLE
5
108
100
AcDbEntity
8
0
100
AcDbCircle
10
87.391413733085301
20
31.807873329285677
30
0
40
1.6000000000000014
210
0
220
-0
230
1
0
CIRCLE
5
109
100
AcDbEntity
8
0
100
AcDbCircle
10
87.391413733085301
20
-31.807873329285677
30
0
40
1.6000000000000014
210
0
220
-0
230
1
0
CIRCLE
5
110
100
AcDbEntity
8
0
100
AcDbCircle
10
-31.807873329294488
20
87.391413733081222
30
0
40
1.599999999999997
210
0
220
-0
230
1
0
CIRCLE
5
111
100
AcDbEntity
8
0
100
AcDbCircle
10
-87.391413733090033
20
-31.807873329298602
30
0
40
1.6000000000000014
210
0
220
-0
230
1
0
LWPOLYLINE
5
112
100
AcDbEntity
8
0
100
AcDbPolyline
90
76
70
1
43
0.0
10
72.915619040093148
20
-6.2500000000003064
10
84.49519217091364
20
-6.2500000000003029
42
-0.44652331086834268
10
87.47737542400057
20
-9.5764705882352459
42
-0.051809624223251229
10
83.640236281081997
20
-27.355271426987251
42
0.1836375204800948
10
83.740680217634988
20
-29.484665175019074
42
-0.14718215382462996
10
83.944365356773417
20
-31.201360764412769
42
0.84733739457007873
10
90.45625646199538
20
-33.49806238588031
42
-0.14486704323012761
10
91.667800530805067
20
-32.30171331067357
42
0.19282783314999213
10
93.102410331938842
20
-30.593155940218718
42
0.16008775549764559
10
93.102410331938827
20
30.593155940244596
42
0.19282783314998919
10
91.667800530805081
20
32.301713310699476
42
-0.14486704323013508
10
90.45625646199538
20
33.498062385906209
42
0.84733739456416557
10
83.944365356773417
20
31.201360764438668
42
-0.1471821538246168
10
83.740680217635003
20
29.484665175044977
42
0.18363752048008702
10
83.640236281078359
20
27.355271427012092
42
-0.051809624223322803
10
87.477375424010148
20
9.576470588234784
42
-0.44652331086829805
10
84.495192170918955
20
6.2499999999996927
10
72.915619040093262
20
6.2499999999996927
42
-0.37771960464296628
10
69.93947132417108
20
8.8724489795915584
42
0.3420853849015455
10
8.8724489795921411
20
69.939471324170995
42
-0.37771960464296223
10
6.2500000000003304
20
72.915619040093176
10
6.2500000000003446
20
84.495192170913953
42
-0.44652331086831881
10
9.576470588235658
20
87.477375424005714
42
-0.051809624223265252
10
27.355271426994694
20
83.640236281081599
42
0.18363752048008883
10
29.484665175027935
20
83.74068021763911
42
-0.14718215382462937
10
31.201360764421633
20
83.944365356777539
42
0.84733739456670865
10
33.49806238588917
20
90.456256461999502
42
-0.14486704323013294
10
32.30171331068243
20
91.667800530809188
42
0.19282783314999377
10
30.593155940227575
20
93.102410331942949
42
0.16008775549762538
10
-30.593155940235764
20
93.102410331942963
42
0.1928278331499878
10
-32.301713310690623
20
91.667800530809203
42
-0.14486704323013508
10
-33.498062385897356
20
90.456256461999502
42
0.84733739456885937
10
-31.201360764429818
20
83.944365356777539
42
-0.14718215382462904
10
-29.48466517503612
20
83.74068021763911
42
0.18363752048008539
10
-27.355271427005043
20
83.640236281088079
42
-0.051809624223292862
10
-9.5764705882350256
20
87.47737542401326
42
-0.44652331086832869
10
-6.2499999999996634
20
84.495192170922095
10
-6.2499999999996634
20
72.915619040093233
42
-0.37771960464296883
10
-8.872448979591514
20
69.939471324171066
42
0.34208538490157803
10
-69.939471324170981
20
8.8724489795921375
42
-0.37771960464296483
10
-72.915619040093148
20
6.2500000000003144
10
-84.495192170914152
20
6.2500000000003197
42
-0.44652331086830344
10
-87.477375424009551
20
9.5764705882358676
42
-0.051809624223294083
10
-83.640236281080846
20
27.355271427001497
42
0.18363752048008353
10
-83.740680217630256
20
29.484665175032013
42
-0.14718215382462996
10
-83.944365356768685
20
31.201360764425708
42
0.8473373945634125
10
-90.456256461990634
20
33.498062385893249
42
-0.14486704323013916
10
-91.667800530800335
20
32.301713310686509
42
0.19282783314998805
10
-93.102410331934081
20
30.593155940231668
42
0.16008775549766874
10
-93.102410331934095
20
-30.593155940231654
42
0.19282783314998925
10
-91.667800530800321
20
-32.301713310686544
42
-0.14486704323013383
10
-90.456256461990648
20
-33.498062385893263
42
0.8473373945693099
10
-83.944365356768685
20
-31.201360764425729
42
-0.1471821538246168
10
-83.740680217630285
20
-29.484665175032035
42
0.18363752048008702
10
-83.640236281080504
20
-27.355271427001348
42
-0.051809624223297088
10
-87.477375424003938
20
-9.5764705882352921
42
-0.4465233108683494
10
-84.495192170912816
20
-6.2499999999996803
10
-72.915619040093247
20
-6.2499999999996803
42
-0.37771960464296661
10
-69.939471324171066
20
-8.8724489795915638
42
0.3152286112593819
10
-15.600888357335108
20
-68.752180201517731
42
-0.74178925751661173
10
-15.192354455997382
20
-74.479582013071351
42
0.13031882373540563
10
-32.861990256076957
20
-87.220736340255598
42
0.19909370610719268
10
-33.527569097202644
20
-89.420274112787368
42
-0.14332045420902439
10
-33.838379602794141
20
-91.076593986120827
42
0.84683267679854546
10
-28.282690759999213
20
-95.175928441634028
42
-0.14909324814608943
10
-26.725128013272684
20
-94.377651082405976
42
0.17622039875208095
10
-24.951894260775184
20
-93.347088505514719
42
-0.46792695604385198
10
24.951894260775298
20
-93.347088505514648
42
0.1762203987525531
10
26.725128013278066
20
-94.37765108240697
42
-0.14909324814627159
10
28.282690760007377
20
-95.175928441633403
42
0.8468326767960761
10
33.838379602801474
20
-91.076593986121452
42
-0.14332045420916364
10
33.527569097212357
20
-89.420274112785904
42
0.19909370610767857
10
32.861990256087303
20
-87.220736340248521
42
0.13031882373522352
10
15.192354456031314
20
-74.479582013070967
42
-0.74178925751614022
10
15.600888357369726
20
-68.75218020151847
42
0.31522861125921758
10
69.939471324170995
20
-8.8724489795921002
42
-0.3777196046429605
0
CIRCLE
5
113
100
AcDbEntity
8
0
100
AcDbCircle
10
-37.68879143724169
20
-37.68879143724169
30
0
40
1.599999999999997
210
0
220
-0
230
1
0
CIRCLE
5
114
100
AcDbEntity
8
0
100
AcDbCircle
10
37.688791437246408
20
37.688791437254629
30
0
40
1.6000000000000014
210
0
220
-0
230
1
0
CIRCLE
5
115
100
AcDbEntity
8
0
100
AcDbCircle
10
-47.073240806220802
20
-24.999999999987065
30
0
40
1.6000000000000014
210
0
220
-0
230
1
0
CIRCLE
5
116
100
AcDbEntity
8
0
100
AcDbCircle
10
37.688791437250529
20
-37.688791437237576
30
0
40
1.599999999999997
210
0
220
-0
230
1
0
CIRCLE
5
117
100
AcDbEntity
8
0
100
AcDbCircle
10
-37.688791437245797
20
37.688791437250543
30
0
40
1.599999999999997
210
0
220
-0
230
1
0
ENDSEC
0
SECTION
2
OBJECTS
0
DICTIONARY
5
C
100
AcDbDictionary
3
ACAD_GROUP
350
D
3
ACAD_MLINESTYLE
350
17
0
DICTIONARY
5
D
100
AcDbDictionary
0
DICTIONARY
5
1A
330
C
100
AcDbDictionary
0
DICTIONARY
5
17
100
AcDbDictionary
0
ENDSEC
0
EOF
