0
SECTION
2
HEADER
9
$INSUNITS
70
4
9
$ACADVER
1
AC1014
9
$HANDSEED
5
FFFF
0
ENDSEC
0
SECTION
2
TABLES
0
TABLE
2
VPORT
5
8
100
AcDbSymbolTable
0
ENDTAB
0
TABLE
2
LTYPE
5
5
100
AcDbSymbolTable
0
LTYPE
5
14
100
AcDbSymbolTableRecord
100
AcDbLinetypeTableRecord
2
BYBLOCK
70
0
0
LTYPE
5
15
100
AcDbSymbolTableRecord
100
AcDbLinetypeTableRecord
2
BYLAYER
70
0
0
LTYPE
5
16
100
AcDbSymbolTableRecord
100
AcDbLinetypeTableRecord
2
DASHED
70
0
3
Dashed __ __ __ __ __ __ __ __ __ __ __ __ __ _
72
65
73
2
40
0.75
49
0.5
74
0
49
-0.25
74
0
0
ENDTAB
0
TABLE
2
LAYER
5
2
100
AcDbSymbolTable
70
3
0
LAYER
5
50
100
AcDbSymbolTableRecord
100
AcDbLayerTableRecord
2
1
70
0
62
7
6
DASHED
0
LAYER
5
51
100
AcDbSymbolTableRecord
100
AcDbLayerTableRecord
2
0
70
0
62
7
6
CONTINUOUS
0
ENDTAB
0
TABLE
2
STYLE
5
3
100
AcDbSymbolTable
70
1
0
STYLE
5
11
100
AcDbSymbolTableRecord
100
AcDbTextStyleTableRecord
2
STANDARD
70
0
0
ENDTAB
0
TABLE
2
VIEW
5
6
100
AcDbSymbolTable
70
0
0
ENDTAB
0
TABLE
2
UCS
5
7
100
AcDbSymbolTable
70
0
0
ENDTAB
0
TABLE
2
APPID
5
9
100
AcDbSymbolTable
70
2
0
APPID
5
12
100
AcDbSymbolTableRecord
100
AcDbRegAppTableRecord
2
ACAD
70
0
0
ENDTAB
0
TABLE
2
DIMSTYLE
5
A
100
AcDbSymbolTable
70
1
0
ENDTAB
0
TABLE
2
BLOCK_RECORD
5
1
100
AcDbSymbolTable
70
1
0
BLOCK_RECORD
5
1F
100
AcDbSymbolTableRecord
100
AcDbBlockTableRecord
2
*MODEL_SPACE
0
BLOCK_RECORD
5
1B
100
AcDbSymbolTableRecord
100
AcDbBlockTableRecord
2
*PAPER_SPACE
0
ENDTAB
0
ENDSEC
0
SECTION
2
BLOCKS
0
BLOCK
5
20
100
AcDbEntity
100
AcDbBlockBegin
2
*MODEL_SPACE
0
ENDBLK
5
21
100
AcDbEntity
100
AcDbBlockEnd
0
BLOCK
5
1C
100
AcDbEntity
100
AcDbBlockBegin
2
*PAPER_SPACE
0
ENDBLK
5
1D
100
AcDbEntity
100
AcDbBlockEnd
0
ENDSEC
0
SECTION
2
ENTITIES
0
CIRCLE
5
100
100
AcDbEntity
8
0
100
AcDbCircle
10
81.769999999999996
20
-11.429999999999998
30
0
40
1.6000000000000014
210
0
220
-0
230
1
0
CIRCLE
5
101
100
AcDbEntity
8
0
100
AcDbCircle
10
43.670000000000009
20
-3.7100000000000022
30
0
40
1.6000000000000014
210
0
220
-0
230
1
0
CIRCLE
5
102
100
AcDbEntity
8
0
100
AcDbCircle
10
-87.391413733085301
20
31.807873329285677
30
0
40
1.6000000000000014
210
0
220
-0
230
1
0
CIRCLE
5
103
100
AcDbEntity
8
0
100
AcDbCircle
10
-31.807873329276887
20
87.391413733081222
30
0
40
1.599999999999997
210
0
220
-0
230
1
0
CIRCLE
5
104
100
AcDbEntity
8
0
100
AcDbCircle
10
-87.391413733085301
20
-31.807873329285677
30
0
40
1.6000000000000014
210
0
220
-0
230
1
0
CIRCLE
5
105
100
AcDbEntity
8
0
100
AcDbCircle
10
87.391413733090033
20
31.807873329272756
30
0
40
1.6000000000000014
210
0
220
-0
230
1
0
CIRCLE
5
106
100
AcDbEntity
8
0
100
AcDbCircle
10
-47.073245999999997
20
24.999987000000004
30
0
40
1.6000000000000014
210
0
220
-0
230
1
0
CIRCLE
5
107
100
AcDbEntity
8
0
100
AcDbCircle
10
-37.688791437250529
20
-37.688791437237576
30
0
40
1.599999999999997
210
0
220
-0
230
1
0
LINE
5
108
100
AcDbEntity
8
0
100
AcDbLine
10
40.233190735871069
20
-35.70770733626
30
0
11
39.951533137047228
21
-35.426049737436159
31
0
0
ARC
5
109
100
AcDbEntity
8
0
100
AcDbCircle
10
37.68879143724169
20
-37.68879143724169
30
0
40
3.2000000000121349
210
0
220
-0
230
1
100
AcDbArc
50
44.999999999999908
51
225
0
LINE
5
110
100
AcDbEntity
8
0
100
AcDbLine
10
35.426049737436159
20
-39.951533137047221
30
0
11
35.707707336260874
21
-40.233190735871922
31
0
0
ARC
5
111
100
AcDbEntity
8
0
100
AcDbCircle
10
33.939940383294484
20
-42.000957688838298
30
0
40
2.5000000000000138
210
0
220
0
230
1
100
AcDbArc
50
-51.059175427136687
51
44.999999999999773
0
ARC
5
112
100
AcDbEntity
8
0
100
AcDbCircle
10
4.7206683007061656e-12
20
-1.2914114222439821e-11
30
0
40
56.499999999997826
210
0
220
0
230
1
100
AcDbArc
50
321.05917542714974
51
325.98360074934078
0
ARC
5
113
100
AcDbEntity
8
0
100
AcDbCircle
10
-33.939940383302478
20
-42.000957688833324
30
0
40
2.5000000000000009
210
0
220
0
230
1
100
AcDbArc
50
134.9999999999998
51
231.05917542714965
0
LINE
5
114
100
AcDbEntity
8
0
100
AcDbLine
10
-35.70770733626884
20
-40.233190735866948
30
0
11
-35.426049737444998
21
-39.951533137043107
31
0
0
ARC
5
115
100
AcDbEntity
8
0
100
AcDbCircle
10
-37.688791437250529
20
-37.688791437237576
30
0
40
3.2000000000121287
210
-0
220
0
230
1
100
AcDbArc
50
-45
51
135.00000000000011
0
LINE
5
116
100
AcDbEntity
8
0
100
AcDbLine
10
-39.95153313705606
20
-35.426049737432052
30
0
11
-40.233190735880761
21
-35.707707336256753
31
0
0
ARC
5
117
100
AcDbEntity
8
0
100
AcDbCircle
10
-42.000957688847137
20
-33.939940383290384
30
0
40
2.5000000000000062
210
0
220
0
230
1
100
AcDbArc
50
218.94082457286433
51
315.00000000000011
0
ARC
5
118
100
AcDbEntity
8
0
100
AcDbCircle
10
4.7206683007061656e-12
20
-1.2914114222439821e-11
30
0
40
56.499999999997812
210
0
220
0
230
1
100
AcDbArc
50
214.94742541004945
51
218.94082457283608
0
ARC
5
119
100
AcDbEntity
8
0
100
AcDbCircle
10
-43.852773691270784
20
-30.646112960411998
30
0
40
2.9999999999999938
210
0
220
0
230
1
100
AcDbArc
50
119.69985559763134
51
214.94742541005033
0
ARC
5
120
100
AcDbEntity
8
0
100
AcDbCircle
10
-47.073240806211352
20
-25.000000000012935
30
0
40
3.4999999999999969
210
-0
220
0
230
1
100
AcDbArc
50
-60.300144402368439
51
116.24455114333293
0
ARC
5
121
100
AcDbEntity
8
0
100
AcDbCircle
10
-49.947562874897656
20
-19.17005380425239
30
0
40
3.0000000000000004
210
0
220
0
230
1
100
AcDbArc
50
200.99698133091519
51
296.24455114333284
0
ARC
5
122
100
AcDbEntity
8
0
100
AcDbCircle
10
4.7206683007061656e-12
20
-1.2914114222439821e-11
30
0
40
56.499999999997783
210
0
220
0
230
1
100
AcDbArc
50
159.00303367879368
51
200.99698133091519
0
ARC
5
123
100
AcDbEntity
8
0
100
AcDbCircle
10
-49.947567896852696
20
19.170040719520834
30
0
40
2.9999999999999893
210
0
220
-0
230
1
100
AcDbArc
50
63.755450545420246
51
159.0030336787942
0
ARC
5
124
100
AcDbEntity
8
0
100
AcDbCircle
10
-47.073245999999997
20
24.999987000000004
30
0
40
3.4999999999999969
210
0
220
0
230
1
100
AcDbArc
50
-116.24454945457968
51
60.300172635079477
0
ARC
5
125
100
AcDbEntity
8
0
100
AcDbCircle
10
-43.852781667203246
20
30.646101547295682
30
0
40
2.9999999999999987
210
0
220
0
230
1
100
AcDbArc
50
145.05258950170631
51
240.30017263507989
0
ARC
5
126
100
AcDbEntity
8
0
100
AcDbCircle
10
4.7206683007061656e-12
20
-1.2914114222439821e-11
30
0
40
56.500000000033225
210
0
220
0
230
1
100
AcDbArc
50
141.05917542712822
51
145.05258950170648
0
ARC
5
127
100
AcDbEntity
8
0
100
AcDbCircle
10
-42.000957688842163
20
33.939940383306563
30
0
40
2.5000000000000071
210
0
220
-0
230
1
100
AcDbArc
50
45
51
141.0591754271494
0
LINE
5
128
100
AcDbEntity
8
0
100
AcDbLine
10
-40.233190735875787
20
35.707707336272939
30
0
11
-39.951533137051939
21
35.426049737449098
31
0
0
ARC
5
129
100
AcDbEntity
8
0
100
AcDbCircle
10
-37.688791437246408
20
37.688791437254629
30
0
40
3.2000000000121256
210
0
220
0
230
1
100
AcDbArc
50
225
51
333.98563400041974
0
ARC
5
130
100
AcDbEntity
8
0
100
AcDbCircle
10
37.688791437245797
20
37.688791437250536
30
0
40
3.2000000000121265
210
0
220
0
230
1
100
AcDbArc
50
206.01436599957398
51
315
0
LINE
5
131
100
AcDbEntity
8
0
100
AcDbLine
10
39.951533137051321
20
35.426049737445013
30
0
11
40.233190735876022
21
35.707707336269713
31
0
0
ARC
5
132
100
AcDbEntity
8
0
100
AcDbCircle
10
42.000957688842398
20
33.939940383303352
30
0
40
2.500000000000004
210
0
220
-0
230
1
100
AcDbArc
50
38.940824572866774
51
135.00000000000026
0
ARC
5
133
100
AcDbEntity
8
0
100
AcDbCircle
10
4.7206683007061656e-12
20
-1.2914114222439821e-11
30
0
40
56.49999999999779
210
0
220
-0
230
1
100
AcDbArc
50
34.016399250682241
51
38.940824572875812
0
ARC
5
134
100
AcDbEntity
8
0
100
AcDbCircle
10
42.000957688837431
20
-33.939940383293631
30
0
40
2.5000000000000009
210
0
220
0
230
1
100
AcDbArc
50
225.00000000000011
51
321.05917542715008
0
CIRCLE
5
135
100
AcDbEntity
8
0
100
AcDbCircle
10
37.688791437245797
20
37.688791437250536
30
0
40
1.599999999999997
210
0
220
-0
230
1
0
CIRCLE
5
136
100
AcDbEntity
8
0
100
AcDbCircle
10
-47.073240806211352
20
-25.000000000012935
30
0
40
1.6000000000000014
210
0
220
-0
230
1
0
CIRCLE
5
137
100
AcDbEntity
8
0
100
AcDbCircle
10
79.991852909383212
20
-25.637930262467954
30
0
40
1.6000000000000014
210
0
220
-0
230
1
0
CIRCLE
5
138
100
AcDbEntity
8
0
100
AcDbCircle
10
47.073240806220802
20
24.999999999987072
30
0
40
1.6000000000000014
210
0
220
-0
230
1
0
CIRCLE
5
139
100
AcDbEntity
8
0
100
AcDbCircle
10
-79.991852909383212
20
25.637930262467954
30
0
40
1.6000000000000014
210
0
220
-0
230
1
0
CIRCLE
5
140
100
AcDbEntity
8
0
100
AcDbCircle
10
31.807873329294488
20
87.391413733081222
30
0
40
1.599999999999997
210
0
220
-0
230
1
0
CIRCLE
5
141
100
AcDbEntity
8
0
100
AcDbCircle
10
-37.688791437246408
20
37.688791437254629
30
0
40
1.6000000000000014
210
0
220
-0
230
1
0
CIRCLE
5
142
100
AcDbEntity
8
0
100
AcDbCircle
10
79.991852909383212
20
25.637930262467954
30
0
40
1.6000000000000014
210
0
220
-0
230
1
0
CIRCLE
5
143
100
AcDbEntity
8
0
100
AcDbCircle
10
-79.991852909383212
20
-25.637930262467954
30
0
40
1.6000000000000014
210
0
220
-0
230
1
0
CIRCLE
5
144
100
AcDbEntity
8
0
100
AcDbCircle
10
-25.63793026246794
20
79.99185290938324
30
0
40
1.6000000000000103
210
0
220
-0
230
1
0
CIRCLE
5
145
100
AcDbEntity
8
0
100
AcDbCircle
10
47.073240806220802
20
-24.999999999987072
30
0
40
1.6000000000000014
210
0
220
-0
230
1
0
CIRCLE
5
146
100
AcDbEntity
8
0
100
AcDbCircle
10
25.637930262467975
20
79.991852909383226
30
0
40
1.5999999999999925
210
0
220
-0
230
1
0
CIRCLE
5
147
100
AcDbEntity
8
0
100
AcDbCircle
10
30.313749290158896
20
-92.113804525342204
30
0
40
1.6000000000000902
210
0
220
-0
230
1
0
CIRCLE
5
148
100
AcDbEntity
8
0
100
AcDbCircle
10
-30.313749290158896
20
-92.113804525342204
30
0
40
1.6000000000000902
210
0
220
-0
230
1
0
CIRCLE
5
149
100
AcDbEntity
8
0
100
AcDbCircle
10
37.68879143724169
20
-37.68879143724169
30
0
40
1.599999999999997
210
0
220
-0
230
1
0
CIRCLE
5
150
100
AcDbEntity
8
0
100
AcDbCircle
10
87.391413733090033
20
-31.807873329298602
30
0
40
1.6000000000000014
210
0
220
-0
230
1
0
ARC
5
151
100
AcDbEntity
8
0
100
AcDbCircle
10
-25.63793026246794
20
79.99185290938324
30
0
40
3.5
210
0
220
0
230
1
100
AcDbArc
50
-162.22899364219509
51
17.771006357804648
0
LINE
5
152
100
AcDbEntity
8
0
100
AcDbLine
10
-22.30493639124817
20
81.060100003650973
30
0
11
-22.534184106141151
21
81.775366380530926
31
0
0
ARC
5
153
100
AcDbEntity
8
0
100
AcDbCircle
10
-19.677332216524192
20
82.691006747046146
30
0
40
3.0000000000000249
210
0
220
0
230
1
100
AcDbArc
50
103.38528285512707
51
197.77100635780494
0
ARC
5
154
100
AcDbEntity
8
0
100
AcDbCircle
10
4.7206683007061656e-12
20
-1.2914114222439821e-11
30
0
40
88.000000000011539
210
0
220
0
230
1
100
AcDbArc
50
96.247501645774548
51
103.38528285512344
0
ARC
5
155
100
AcDbEntity
8
0
100
AcDbCircle
10
-9.2500000000003393
20
84.495192170913981
30
0
40
3.0000000000000036
210
0
220
0
230
1
100
AcDbArc
50
0
51
96.247501645772232
0
LINE
5
156
100
AcDbEntity
8
0
100
AcDbLine
10
-6.2500000000003357
20
84.495192170913953
30
0
11
-6.2500000000003375
21
72.915619040093176
31
0
0
ARC
5
157
100
AcDbEntity
8
0
100
AcDbCircle
10
-9.2500000000003428
20
72.915619040093176
30
0
40
3.0000000000000124
210
0
220
0
230
1
100
AcDbArc
50
-82.770135508611034
51
0
0
ARC
5
158
100
AcDbEntity
8
0
100
AcDbCircle
10
4.7206683007061656e-12
20
-1.2914114222439821e-11
30
0
40
70.500000000013429
210
0
220
0
230
1
100
AcDbArc
50
97.22986449139114
51
172.77013550860198
0
ARC
5
159
100
AcDbEntity
8
0
100
AcDbCircle
10
-72.915619040093262
20
9.2499999999997016
30
0
40
3.0000000000000093
210
0
220
0
230
1
100
AcDbArc
50
270
51
352.77013550861216
0
LINE
5
160
100
AcDbEntity
8
0
100
AcDbLine
10
-72.915619040093262
20
6.2499999999996927
30
0
11
-84.495192170918955
21
6.249999999999698
31
0
0
ARC
5
161
100
AcDbEntity
8
0
100
AcDbCircle
10
-84.495192170918955
20
9.2499999999997211
30
0
40
3.0000000000000271
210
0
220
0
230
1
100
AcDbArc
50
173.75249835423307
51
270
0
ARC
5
162
100
AcDbEntity
8
0
100
AcDbCircle
10
4.7206683007061656e-12
20
-1.2914114222439821e-11
30
0
40
88.000000000004604
210
0
220
0
230
1
100
AcDbArc
50
166.61471714487018
51
173.75249835422056
0
ARC
5
163
100
AcDbEntity
8
0
100
AcDbCircle
10
-82.691006747046117
20
19.677332216524199
30
0
40
3.0000000000000213
210
0
220
-0
230
1
100
AcDbArc
50
72.228993642195334
51
166.61471714487314
0
LINE
5
164
100
AcDbEntity
8
0
100
AcDbLine
10
-81.775366380530912
20
22.534184106141165
30
0
11
-81.060100003650959
21
22.304936391248191
31
0
0
ARC
5
165
100
AcDbEntity
8
0
100
AcDbCircle
10
-79.991852909383212
20
25.637930262467954
30
0
40
3.5
210
0
220
0
230
1
100
AcDbArc
50
-107.77100635780489
51
72.228993642195078
0
LINE
5
166
100
AcDbEntity
8
0
100
AcDbLine
10
-78.923605815115465
20
28.970924133687717
30
0
11
-81.879426067954967
21
29.918284530458557
31
0
0
ARC
5
167
100
AcDbEntity
8
0
100
AcDbCircle
10
-80.963785701439761
20
32.775136420075533
30
0
40
3.0000000000000293
210
0
220
0
230
1
100
AcDbArc
50
188.55795360239813
51
252.22899364219541
0
ARC
5
168
100
AcDbEntity
8
0
100
AcDbCircle
10
-87.391413733085301
20
31.807873329285677
30
0
40
3.4999999999999671
210
0
220
-0
230
1
100
AcDbArc
50
8.5579536023975216
51
151.12429235265313
0
ARC
5
169
100
AcDbEntity
8
0
100
AcDbCircle
10
-93.083264515342435
20
34.946795862998137
30
0
40
2.999999999999531
210
0
220
0
230
1
100
AcDbArc
50
298.15258797798862
51
331.12429235280251
0
ARC
5
170
100
AcDbEntity
8
0
100
AcDbCircle
10
-90.252336546267315
20
29.656630758400549
30
0
40
2.9999999999999538
210
0
220
0
230
1
100
AcDbArc
50
118.15258797799254
51
161.80964126209921
0
ARC
5
171
100
AcDbEntity
8
0
100
AcDbCircle
10
4.7206683007061656e-12
20
-1.2914114222439821e-11
30
0
40
98.000000000012733
210
0
220
0
230
1
100
AcDbArc
50
161.80964126209057
51
198.19035873788067
0
ARC
5
172
100
AcDbEntity
8
0
100
AcDbCircle
10
-90.252336546267315
20
-29.65663075837465
30
0
40
3.0000000000040465
210
0
220
0
230
1
100
AcDbArc
50
198.19035873790111
51
241.84741202200732
0
ARC
5
173
100
AcDbEntity
8
0
100
AcDbCircle
10
-93.083264515342435
20
-34.946795862972202
30
0
40
2.9999999999995151
210
0
220
-0
230
1
100
AcDbArc
50
28.875707647196862
51
61.847412022011234
0
ARC
5
174
100
AcDbEntity
8
0
100
AcDbCircle
10
-87.391413733085301
20
-31.807873329285677
30
0
40
3.4999999999978799
210
0
220
0
230
1
100
AcDbArc
50
208.87570764697563
51
351.44204639760261
0
ARC
5
175
100
AcDbEntity
8
0
100
AcDbCircle
10
-80.963785701439775
20
-32.775136420075498
30
0
40
2.9999999999999902
210
0
220
0
230
1
100
AcDbArc
50
107.77100635780459
51
171.44204639760241
0
LINE
5
176
100
AcDbEntity
8
0
100
AcDbLine
10
-81.879426067954967
20
-29.918284530458564
30
0
11
-78.923605815115465
21
-28.970924133687717
31
0
0
ARC
5
177
100
AcDbEntity
8
0
100
AcDbCircle
10
-79.991852909383212
20
-25.637930262467954
30
0
40
3.5
210
-0
220
0
230
1
100
AcDbArc
50
-72.228993642195107
51
107.77100635780492
0
LINE
5
178
100
AcDbEntity
8
0
100
AcDbLine
10
-81.060100003650959
20
-22.304936391248191
30
0
11
-81.775366380530912
21
-22.534184106141161
31
0
0
ARC
5
179
100
AcDbEntity
8
0
100
AcDbCircle
10
-82.691006747046117
20
-19.677332216524199
30
0
40
3.0000000000000258
210
0
220
0
230
1
100
AcDbArc
50
193.38528285512706
51
287.77100635780465
0
ARC
5
180
100
AcDbEntity
8
0
100
AcDbCircle
10
4.7206683007061656e-12
20
-1.2914114222439821e-11
30
0
40
88.000000000001165
210
0
220
0
230
1
100
AcDbArc
50
186.2475016457638
51
193.38528285511353
0
ARC
5
181
100
AcDbEntity
8
0
100
AcDbCircle
10
-84.49519217091364
20
-9.2500000000003109
30
0
40
3.000000000000008
210
0
220
-0
230
1
100
AcDbArc
50
90
51
186.24750164577611
0
LINE
5
182
100
AcDbEntity
8
0
100
AcDbLine
10
-84.49519217091364
20
-6.2500000000003029
30
0
11
-72.915619040093148
21
-6.2500000000003064
31
0
0
ARC
5
183
100
AcDbEntity
8
0
100
AcDbCircle
10
-72.915619040093162
20
-9.2500000000003109
30
0
40
3.0000000000000138
210
0
220
-0
230
1
100
AcDbArc
50
7.2298644913891161
51
89.99999999999973
0
ARC
5
184
100
AcDbEntity
8
0
100
AcDbCircle
10
4.7206683007061656e-12
20
-1.2914114222439821e-11
30
0
40
70.499999999986571
210
0
220
0
230
1
100
AcDbArc
50
277.93895289151442
51
344.36527290644102
0
ARC
5
185
100
AcDbEntity
8
0
100
AcDbCircle
10
9.541074867674932e-15
20
-114.17142457654197
30
0
40
42.500000000000028
210
0
220
-0
230
1
100
AcDbArc
50
40.397059624869975
51
76.937656115962824
0
ARC
5
186
100
AcDbEntity
8
0
100
AcDbCircle
10
-30.082076918082809
20
-88.57223223977968
30
0
40
3.0000000000000364
210
0
220
0
230
1
100
AcDbArc
50
139.60294037513032
51
184.8270378814137
0
ARC
5
187
100
AcDbEntity
8
0
100
AcDbCircle
10
-36.060796482390323
20
-89.077120713967417
30
0
40
3.0000000000000693
210
0
220
0
230
1
100
AcDbArc
50
-27.851537079567294
51
4.8270378814131787
0
ARC
5
188
100
AcDbEntity
8
0
100
AcDbCircle
10
-30.313749290158896
20
-92.113804525342204
30
0
40
3.4999999999999982
210
0
220
0
230
1
100
AcDbArc
50
152.14846292043219
51
313.17252296026527
0
ARC
5
189
100
AcDbEntity
8
0
100
AcDbCircle
10
-25.866465933263431
20
-96.854233909214514
30
0
40
2.9999999999999494
210
0
220
0
230
1
100
AcDbArc
50
99.311468721606275
51
133.17252296026632
0
ARC
5
190
100
AcDbEntity
8
0
100
AcDbCircle
10
-26.837274055861819
20
-90.933293815859628
30
0
40
3.0000000000000782
210
-0
220
0
230
1
100
AcDbArc
50
279.31146872160656
51
319.11103452299858
0
ARC
5
191
100
AcDbEntity
8
0
100
AcDbCircle
10
9.541074867674932e-15
20
-114.17142457654197
30
0
40
32.499999999999993
210
0
220
-0
230
1
100
AcDbArc
50
40.888965477000184
51
139.11103452299986
0
ARC
5
192
100
AcDbEntity
8
0
100
AcDbCircle
10
26.837274055861819
20
-90.933293815859628
30
0
40
3.0000000000000622
210
0
220
0
230
1
100
AcDbArc
50
220.88896547700134
51
260.68853127839327
0
ARC
5
193
100
AcDbEntity
8
0
100
AcDbCircle
10
25.866465933263392
20
-96.854233909214642
30
0
40
3.0000000000000568
210
0
220
-0
230
1
100
AcDbArc
50
46.827477039735051
51
80.688531278393583
0
ARC
5
194
100
AcDbEntity
8
0
100
AcDbCircle
10
30.313749290158896
20
-92.113804525342204
30
0
40
3.5000000000000204
210
0
220
0
230
1
100
AcDbArc
50
-133.1725229602655
51
27.851537079567876
0
ARC
5
195
100
AcDbEntity
8
0
100
AcDbCircle
10
36.060796482390195
20
-89.077120713967446
30
0
40
2.9999999999999361
210
0
220
0
230
1
100
AcDbArc
50
175.17296211858636
51
207.85153707956792
0
ARC
5
196
100
AcDbEntity
8
0
100
AcDbCircle
10
30.082076918082809
20
-88.57223223977968
30
0
40
3.0000000000000271
210
-0
220
0
230
1
100
AcDbArc
50
-4.8270378814140082
51
40.397059624869478
0
LINE
5
197
100
AcDbEntity
8
0
100
AcDbLine
10
67.891457489910977
20
-18.999999997252889
30
0
11
74.605252554295376
21
-18.999999997252893
31
0
0
ARC
5
198
100
AcDbEntity
8
0
100
AcDbCircle
10
74.605252554295376
20
-21.999999997252896
30
0
40
3.0000000000000031
210
-0
220
0
230
1
100
AcDbArc
50
-34.033779687814722
51
90
0
ARC
5
199
100
AcDbEntity
8
0
100
AcDbCircle
10
79.991852909383212
20
-25.637930262467954
30
0
40
3.5000000000000036
210
0
220
0
230
1
100
AcDbArc
50
145.96622031218556
51
252.22899364219512
0
LINE
5
200
100
AcDbEntity
8
0
100
AcDbLine
10
78.923605815115465
20
-28.970924133687724
30
0
11
81.879426067954952
21
-29.918284530458557
31
0
0
ARC
5
201
100
AcDbEntity
8
0
100
AcDbCircle
10
80.963785701439761
20
-32.775136420075533
30
0
40
3.0000000000000293
210
0
220
-0
230
1
100
AcDbArc
50
8.5579536023981184
51
72.228993642195661
0
ARC
5
202
100
AcDbEntity
8
0
100
AcDbCircle
10
87.391413733090033
20
-31.807873329298602
30
0
40
3.5000000000027165
210
0
220
0
230
1
100
AcDbArc
50
188.55795360217678
51
331.12429235294923
0
ARC
5
203
100
AcDbEntity
8
0
100
AcDbCircle
10
93.083264515337589
20
-34.946795862985056
30
0
40
2.9999999999993587
210
0
220
0
230
1
100
AcDbArc
50
118.15258797798785
51
151.12429235280365
0
ARC
5
204
100
AcDbEntity
8
0
100
AcDbCircle
10
90.252336546262597
20
-29.656630758387607
30
0
40
2.9999999999999458
210
-0
220
0
230
1
100
AcDbArc
50
298.15258797799237
51
341.80964126209943
0
ARC
5
205
100
AcDbEntity
8
0
100
AcDbCircle
10
4.7206683007061656e-12
20
-1.2914114222439821e-11
30
0
40
97.999999999987153
210
-0
220
0
230
1
100
AcDbArc
50
-18.190358737890445
51
18.190358737904795
0
ARC
5
206
100
AcDbEntity
8
0
100
AcDbCircle
10
90.252336546262597
20
29.656630758387589
30
0
40
3.0000000000040465
210
0
220
-0
230
1
100
AcDbArc
50
18.190358737901271
51
61.847412022007852
0
ARC
5
207
100
AcDbEntity
8
0
100
AcDbCircle
10
93.083264515337603
20
34.946795862985056
30
0
40
2.9999999999993787
210
0
220
0
230
1
100
AcDbArc
50
208.87570764719635
51
241.84741202201187
0
ARC
5
208
100
AcDbEntity
8
0
100
AcDbCircle
10
87.391413733090033
20
31.807873329272756
30
0
40
3.5000000000020948
210
0
220
-0
230
1
100
AcDbArc
50
28.875707647421173
51
171.44204639740488
0
ARC
5
209
100
AcDbEntity
8
0
100
AcDbCircle
10
80.963785701439775
20
32.775136420075526
30
0
40
3.0000000000000115
210
0
220
0
230
1
100
AcDbArc
50
287.77100635780442
51
351.44204639760193
0
LINE
5
210
100
AcDbEntity
8
0
100
AcDbLine
10
81.879426067954967
20
29.918284530458564
30
0
11
78.923605815115465
21
28.970924133687717
31
0
0
ARC
5
211
100
AcDbEntity
8
0
100
AcDbCircle
10
79.991852909383212
20
25.637930262467954
30
0
40
3.5
210
0
220
0
230
1
100
AcDbArc
50
107.77100635780492
51
214.03377962937438
0
ARC
5
212
100
AcDbEntity
8
0
100
AcDbCircle
10
74.605252550584794
20
22.000000002747086
30
0
40
2.9999999999999916
210
0
220
0
230
1
100
AcDbArc
50
-90
51
34.0337796293745
0
LINE
5
213
100
AcDbEntity
8
0
100
AcDbLine
10
74.605252550584794
20
19.000000002747093
30
0
11
67.891457488373405
21
19.00000000274709
31
0
0
ARC
5
214
100
AcDbEntity
8
0
100
AcDbCircle
10
4.7206683007061656e-12
20
-1.2914114222439821e-11
30
0
40
70.499999999998948
210
0
220
-0
230
1
100
AcDbArc
50
15.63472709821596
51
82.770135508616974
0
ARC
5
215
100
AcDbEntity
8
0
100
AcDbCircle
10
9.2499999999996589
20
72.915619040093219
30
0
40
2.9999999999999893
210
0
220
0
230
1
100
AcDbArc
50
180
51
262.77013550861255
0
LINE
5
216
100
AcDbEntity
8
0
100
AcDbLine
10
6.2499999999996696
20
72.915619040093219
30
0
11
6.2499999999996625
21
84.495192170922095
31
0
0
ARC
5
217
100
AcDbEntity
8
0
100
AcDbCircle
10
9.2499999999996767
20
84.49519217092211
30
0
40
3.0000000000000093
210
0
220
-0
230
1
100
AcDbArc
50
83.752498354226816
51
180
0
ARC
5
218
100
AcDbEntity
8
0
100
AcDbCircle
10
4.7206683007061656e-12
20
-1.2914114222439821e-11
30
0
40
88.000000000008484
210
0
220
-0
230
1
100
AcDbArc
50
76.614717144882547
51
83.752498354232557
0
ARC
5
219
100
AcDbEntity
8
0
100
AcDbCircle
10
19.677332216524228
20
82.691006747046146
30
0
40
3.0000000000000169
210
0
220
0
230
1
100
AcDbArc
50
-17.771006357804943
51
76.614717144873396
0
LINE
5
220
100
AcDbEntity
8
0
100
AcDbLine
10
22.534184106141186
20
81.775366380530926
30
0
11
22.304936391248216
21
81.060100003650973
31
0
0
ARC
5
221
100
AcDbEntity
8
0
100
AcDbCircle
10
25.637930262467975
20
79.991852909383226
30
0
40
3.4999999999999982
210
0
220
0
230
1
100
AcDbArc
50
162.22899364219506
51
342.22899364219512
0
LINE
5
222
100
AcDbEntity
8
0
100
AcDbLine
10
28.970924133687745
20
78.923605815115479
30
0
11
29.918284530458585
21
81.879426067954995
31
0
0
ARC
5
223
100
AcDbEntity
8
0
100
AcDbCircle
10
32.775136420075505
20
80.963785701439832
30
0
40
2.9999999999999676
210
0
220
0
230
1
100
AcDbArc
50
98.557953602397248
51
162.22899364219589
0
ARC
5
224
100
AcDbEntity
8
0
100
AcDbCircle
10
31.807873329294488
20
87.391413733081222
30
0
40
3.499999999994603
210
-0
220
0
230
1
100
AcDbArc
50
-81.442046397734643
51
61.124292352971068
0
ARC
5
225
100
AcDbEntity
8
0
100
AcDbCircle
10
34.946795862989156
20
93.083264515346428
30
0
40
2.9999999999993627
210
0
220
0
230
1
100
AcDbArc
50
208.15258797798754
51
241.12429235280354
0
ARC
5
226
100
AcDbEntity
8
0
100
AcDbCircle
10
29.656630758391692
20
90.252336546271437
30
0
40
2.9999999999999498
210
0
220
-0
230
1
100
AcDbArc
50
28.152587977992553
51
71.80964126209912
0
ARC
5
227
100
AcDbEntity
8
0
100
AcDbCircle
10
4.7206683007061656e-12
20
-1.2914114222439821e-11
30
0
40
98.000000000016158
210
0
220
-0
230
1
100
AcDbArc
50
71.809641262107533
51
108.19035873789312
0
ARC
5
228
100
AcDbEntity
8
0
100
AcDbCircle
10
-29.656630758383514
20
90.252336546271437
30
0
40
3.0000000000040528
210
0
220
0
230
1
100
AcDbArc
50
108.19035873789927
51
151.84741202200729
0
ARC
5
229
100
AcDbEntity
8
0
100
AcDbCircle
10
-34.946795862980991
20
93.083264515346471
30
0
40
2.9999999999994009
210
0
220
0
230
1
100
AcDbArc
50
298.87570764719646
51
331.84741202201201
0
ARC
5
230
100
AcDbEntity
8
0
100
AcDbCircle
10
-31.807873329276887
20
87.391413733081222
30
0
40
3.5000000000135927
210
0
220
0
230
1
100
AcDbArc
50
118.87570764716382
51
261.44204639745033
0
ARC
5
231
100
AcDbEntity
8
0
100
AcDbCircle
10
-32.775136420075512
20
80.963785701439761
30
0
40
3.0000000000000226
210
0
220
-0
230
1
100
AcDbArc
50
17.771006357805213
51
81.442046397602169
0
LINE
5
232
100
AcDbEntity
8
0
100
AcDbLine
10
-29.918284530458553
20
81.879426067954995
30
0
11
-28.970924133687706
21
78.923605815115494
31
0
0
ARC
5
233
100
AcDbEntity
8
0
100
AcDbCircle
10
-32.566292047286773
20
35.188791437254345
30
0
40
2.5
210
0
220
-0
230
1
100
AcDbArc
50
89.999999999996902
51
153.98563400041971
0
LINE
5
234
100
AcDbEntity
8
0
100
AcDbLine
10
-32.566292047286638
20
37.688791437254345
30
0
11
32.566292047286026
21
37.688791437250813
31
0
0
ARC
5
235
100
AcDbEntity
8
0
100
AcDbCircle
10
32.566292047285884
20
35.188791437250813
30
0
40
2.5
210
0
220
-0
230
1
100
AcDbArc
50
26.014365999573968
51
89.999999999996746
0
LINE
5
236
100
AcDbEntity
8
0
100
AcDbLine
10
39.999999999997641
20
18.34154481464504
30
0
11
39.999999999997641
21
10.500000000017916
31
0
0
ARC
5
237
100
AcDbEntity
8
0
100
AcDbCircle
10
37.499999999997655
20
10.500000000017909
30
0
40
2.4999999999999871
210
0
220
0
230
1
100
AcDbArc
50
-67.380135051907956
51
0
0
LINE
5
238
100
AcDbEntity
8
0
100
AcDbLine
10
38.46153846153819
20
8.1923076923264802
30
0
11
37.538461538459472
21
7.8076923077093729
31
0
0
ARC
5
239
100
AcDbEntity
8
0
100
AcDbCircle
10
38.499999999999993
20
5.5000000000179305
30
0
40
2.4999999999999925
210
0
220
0
230
1
100
AcDbArc
50
112.61986494809162
51
180
0
LINE
5
240
100
AcDbEntity
8
0
100
AcDbLine
10
36.000000000000007
20
5.5000000000179199
30
0
11
36.000000000000007
21
-5.5000000000059757
31
0
0
ARC
5
241
100
AcDbEntity
8
0
100
AcDbCircle
10
38.499999999999993
20
-5.5000000000059837
30
0
40
2.4999999999999867
210
0
220
0
230
1
100
AcDbArc
50
180
51
247.38013505190781
0
LINE
5
242
100
AcDbEntity
8
0
100
AcDbLine
10
37.538461538459451
20
-7.8076923076974101
30
0
11
38.461538461538105
21
-8.1923076923144968
31
0
0
ARC
5
243
100
AcDbEntity
8
0
100
AcDbCircle
10
37.499999999997641
20
-10.500000000005967
30
0
40
2.4999999999999956
210
0
220
0
230
1
100
AcDbArc
50
0
51
67.380135051909832
0
LINE
5
244
100
AcDbEntity
8
0
100
AcDbLine
10
39.999999999997641
20
-10.500000000005972
30
0
11
39.999999999997641
21
-18.341544814633089
31
0
0
ARC
5
245
100
AcDbEntity
8
0
100
AcDbCircle
10
42.49999999999774
20
-18.341544814633064
30
0
40
2.5000000000001066
210
0
220
0
230
1
100
AcDbArc
50
180
51
209.51114961516006
0
LINE
5
246
100
AcDbEntity
8
0
100
AcDbLine
10
40.324350362322903
20
-19.573027114175328
30
0
11
44.28840926999716
21
-26.576297343401151
31
0
0
ARC
5
247
100
AcDbEntity
8
0
100
AcDbCircle
10
47.073240806220802
20
-24.999999999987072
30
0
40
3.2000000000000011
210
0
220
0
230
1
100
AcDbArc
50
209.51114961516112
51
246.04996995210755
0
ARC
5
248
100
AcDbEntity
8
0
100
AcDbCircle
10
44.75938423818139
20
-30.209229096748032
30
0
40
2.4999999999999951
210
-0
220
0
230
1
100
AcDbArc
50
-34.016399250659568
51
66.049969952107446
0
ARC
5
249
100
AcDbEntity
8
0
100
AcDbCircle
10
44.759384238169375
20
30.20922909674022
30
0
40
2.5000000000000542
210
0
220
0
230
1
100
AcDbArc
50
-66.049969951965224
51
34.016399250682248
0
ARC
5
250
100
AcDbEntity
8
0
100
AcDbCircle
10
47.073240806220802
20
24.999999999987072
30
0
40
3.1999999999976962
210
0
220
0
230
1
100
AcDbArc
50
113.95003004803469
51
150.4888503847969
0
LINE
5
251
100
AcDbEntity
8
0
100
AcDbLine
10
44.288409270000329
20
26.576297343402054
30
0
11
40.32435036232382
21
19.573027114188871
31
0
0
ARC
5
252
100
AcDbEntity
8
0
100
AcDbCircle
10
42.49999999999752
20
18.341544814645069
30
0
40
2.4999999999998805
210
0
220
0
230
1
100
AcDbArc
50
150.48885038479642
51
180
0
ARC
5
253
100
AcDbEntity
8
0
100
AcDbCircle
10
4.7206683007061656e-12
20
-1.2914114222439821e-11
30
0
40
56.500000000004896
210
0
220
0
230
1
100
AcDbArc
50
231.05917542712106
51
308.9408245728626
0
ARC
5
254
100
AcDbEntity
8
0
100
AcDbCircle
10
9.9444901126547798
20
-71.309937010204351
30
0
40
1.4999999999999922
210
0
220
0
230
1
100
AcDbArc
50
97.938952891517317
51
256.93765611596342
0
ARC
5
255
100
AcDbEntity
8
0
100
AcDbCircle
10
4.7206683007061656e-12
20
-1.2914114222439821e-11
30
0
40
70.50000000000307
210
0
220
0
230
1
100
AcDbArc
50
187.2298644913777
51
262.06104710847796
0
ARC
5
256
100
AcDbEntity
8
0
100
AcDbCircle
10
-9.9444901126548011
20
-71.309937010204351
30
0
40
1.4999999999999944
210
-0
220
0
230
1
100
AcDbArc
50
-76.93765611596271
51
82.061047108483152
0
ARC
5
257
100
AcDbEntity
8
0
100
AcDbCircle
10
9.541074867674932e-15
20
-114.17142457654197
30
0
40
42.500000000000043
210
0
220
0
230
1
100
AcDbArc
50
103.0623438840372
51
139.60294037513003
0
ENDSEC
0
SECTION
2
OBJECTS
0
DICTIONARY
5
C
100
AcDbDictionary
3
ACAD_GROUP
350
D
3
ACAD_MLINESTYLE
350
17
0
DICTIONARY
5
D
100
AcDbDictionary
0
DICTIONARY
5
1A
330
C
100
AcDbDictionary
0
DICTIONARY
5
17
100
AcDbDictionary
0
ENDSEC
0
EOF
