0
SECTION
2
HEADER
9
$INSUNITS
70
4
9
$ACADVER
1
AC1014
9
$HANDSEED
5
FFFF
0
ENDSEC
0
SECTION
2
TABLES
0
TABLE
2
VPORT
5
8
100
AcDbSymbolTable
0
ENDTAB
0
TABLE
2
LTYPE
5
5
100
AcDbSymbolTable
0
LTYPE
5
14
100
AcDbSymbolTableRecord
100
AcDbLinetypeTableRecord
2
BYBLOCK
70
0
0
LTYPE
5
15
100
AcDbSymbolTableRecord
100
AcDbLinetypeTableRecord
2
BYLAYER
70
0
0
LTYPE
5
16
100
AcDbSymbolTableRecord
100
AcDbLinetypeTableRecord
2
DASHED
70
0
3
Dashed __ __ __ __ __ __ __ __ __ __ __ __ __ _
72
65
73
2
40
0.75
49
0.5
74
0
49
-0.25
74
0
0
ENDTAB
0
TABLE
2
LAYER
5
2
100
AcDbSymbolTable
70
3
0
LAYER
5
50
100
AcDbSymbolTableRecord
100
AcDbLayerTableRecord
2
1
70
0
62
7
6
DASHED
0
LAYER
5
51
100
AcDbSymbolTableRecord
100
AcDbLayerTableRecord
2
0
70
0
62
7
6
CONTINUOUS
0
ENDTAB
0
TABLE
2
STYLE
5
3
100
AcDbSymbolTable
70
1
0
STYLE
5
11
100
AcDbSymbolTableRecord
100
AcDbTextStyleTableRecord
2
STANDARD
70
0
0
ENDTAB
0
TABLE
2
VIEW
5
6
100
AcDbSymbolTable
70
0
0
ENDTAB
0
TABLE
2
UCS
5
7
100
AcDbSymbolTable
70
0
0
ENDTAB
0
TABLE
2
APPID
5
9
100
AcDbSymbolTable
70
2
0
APPID
5
12
100
AcDbSymbolTableRecord
100
AcDbRegAppTableRecord
2
ACAD
70
0
0
ENDTAB
0
TABLE
2
DIMSTYLE
5
A
100
AcDbSymbolTable
70
1
0
ENDTAB
0
TABLE
2
BLOCK_RECORD
5
1
100
AcDbSymbolTable
70
1
0
BLOCK_RECORD
5
1F
100
AcDbSymbolTableRecord
100
AcDbBlockTableRecord
2
*MODEL_SPACE
0
BLOCK_RECORD
5
1B
100
AcDbSymbolTableRecord
100
AcDbBlockTableRecord
2
*PAPER_SPACE
0
ENDTAB
0
ENDSEC
0
SECTION
2
BLOCKS
0
BLOCK
5
20
100
AcDbEntity
100
AcDbBlockBegin
2
*MODEL_SPACE
0
ENDBLK
5
21
100
AcDbEntity
100
AcDbBlockEnd
0
BLOCK
5
1C
100
AcDbEntity
100
AcDbBlockBegin
2
*PAPER_SPACE
0
ENDBLK
5
1D
100
AcDbEntity
100
AcDbBlockEnd
0
ENDSEC
0
SECTION
2
ENTITIES
0
CIRCLE
5
100
100
AcDbEntity
8
0
100
AcDbCircle
10
81.769999999999996
20
-11.429999999999998
30
0
40
1.6000000000000014
210
0
220
-0
230
1
0
CIRCLE
5
101
100
AcDbEntity
8
0
100
AcDbCircle
10
43.670000000000009
20
-3.7100000000000022
30
0
40
1.6000000000000014
210
0
220
-0
230
1
0
CIRCLE
5
102
100
AcDbEntity
8
0
100
AcDbCircle
10
-87.391413733085301
20
31.807873329285677
30
0
40
1.6000000000000014
210
0
220
-0
230
1
0
CIRCLE
5
103
100
AcDbEntity
8
0
100
AcDbCircle
10
-31.807873329276887
20
87.391413733081222
30
0
40
1.599999999999997
210
0
220
-0
230
1
0
CIRCLE
5
104
100
AcDbEntity
8
0
100
AcDbCircle
10
-87.391413733085301
20
-31.807873329285677
30
0
40
1.6000000000000014
210
0
220
-0
230
1
0
CIRCLE
5
105
100
AcDbEntity
8
0
100
AcDbCircle
10
87.391413733090033
20
31.807873329272756
30
0
40
1.6000000000000014
210
0
220
-0
230
1
0
CIRCLE
5
106
100
AcDbEntity
8
0
100
AcDbCircle
10
-47.073245999999997
20
24.999987000000004
30
0
40
1.6000000000000014
210
0
220
-0
230
1
0
CIRCLE
5
107
100
AcDbEntity
8
0
100
AcDbCircle
10
-37.688791437250529
20
-37.688791437237576
30
0
40
1.599999999999997
210
0
220
-0
230
1
0
LINE
5
108
100
AcDbEntity
8
0
100
AcDbLine
10
40.233190735871069
20
-35.70770733626
30
0
11
39.951533137047228
21
-35.426049737436159
31
0
0
ARC
5
109
100
AcDbEntity
8
0
100
AcDbCircle
10
37.68879143724169
20
-37.68879143724169
30
0
40
3.2000000000121349
210
0
220
-0
230
1
100
AcDbArc
50
44.999999999999908
51
225
0
LINE
5
110
100
AcDbEntity
8
0
100
AcDbLine
10
35.426049737436159
20
-39.951533137047221
30
0
11
35.707707336260874
21
-40.233190735871922
31
0
0
ARC
5
111
100
AcDbEntity
8
0
100
AcDbCircle
10
33.939940383294484
20
-42.000957688838298
30
0
40
2.5000000000000138
210
0
220
0
230
1
100
AcDbArc
50
-51.059175427136687
51
44.999999999999773
0
ARC
5
112
100
AcDbEntity
8
0
100
AcDbCircle
10
4.7206683007061656e-12
20
-1.2914114222439821e-11
30
0
40
56.499999999997826
210
0
220
0
230
1
100
AcDbArc
50
321.05917542714974
51
325.98360074934078
0
ARC
5
113
100
AcDbEntity
8
0
100
AcDbCircle
10
-33.939940383302478
20
-42.000957688833324
30
0
40
2.5000000000000009
210
0
220
0
230
1
100
AcDbArc
50
134.9999999999998
51
231.05917542714965
0
LINE
5
114
100
AcDbEntity
8
0
100
AcDbLine
10
-35.70770733626884
20
-40.233190735866948
30
0
11
-35.426049737444998
21
-39.951533137043107
31
0
0
ARC
5
115
100
AcDbEntity
8
0
100
AcDbCircle
10
-37.688791437250529
20
-37.688791437237576
30
0
40
3.2000000000121287
210
-0
220
0
230
1
100
AcDbArc
50
-45
51
135.00000000000011
0
LINE
5
116
100
AcDbEntity
8
0
100
AcDbLine
10
-39.95153313705606
20
-35.426049737432052
30
0
11
-40.233190735880761
21
-35.707707336256753
31
0
0
ARC
5
117
100
AcDbEntity
8
0
100
AcDbCircle
10
-42.000957688847137
20
-33.939940383290384
30
0
40
2.5000000000000062
210
0
220
0
230
1
100
AcDbArc
50
218.94082457286433
51
315.00000000000011
0
ARC
5
118
100
AcDbEntity
8
0
100
AcDbCircle
10
4.7206683007061656e-12
20
-1.2914114222439821e-11
30
0
40
56.499999999997812
210
0
220
0
230
1
100
AcDbArc
50
214.94742541004945
51
218.94082457283608
0
ARC
5
119
100
AcDbEntity
8
0
100
AcDbCircle
10
-43.852773691270784
20
-30.646112960411998
30
0
40
2.9999999999999938
210
0
220
0
230
1
100
AcDbArc
50
119.69985559763134
51
214.94742541005033
0
ARC
5
120
100
AcDbEntity
8
0
100
AcDbCircle
10
-47.073240806211352
20
-25.000000000012935
30
0
40
3.4999999999999969
210
-0
220
0
230
1
100
AcDbArc
50
-60.300144402368439
51
116.24455114333293
0
ARC
5
121
100
AcDbEntity
8
0
100
AcDbCircle
10
-49.947562874897656
20
-19.17005380425239
30
0
40
3.0000000000000004
210
0
220
0
230
1
100
AcDbArc
50
200.99698133091519
51
296.24455114333284
0
ARC
5
122
100
AcDbEntity
8
0
100
AcDbCircle
10
4.7206683007061656e-12
20
-1.2914114222439821e-11
30
0
40
56.499999999997783
210
0
220
0
230
1
100
AcDbArc
50
159.00303367879368
51
200.99698133091519
0
ARC
5
123
100
AcDbEntity
8
0
100
AcDbCircle
10
-49.947567896852696
20
19.170040719520834
30
0
40
2.9999999999999893
210
0
220
-0
230
1
100
AcDbArc
50
63.755450545420246
51
159.0030336787942
0
ARC
5
124
100
AcDbEntity
8
0
100
AcDbCircle
10
-47.073245999999997
20
24.999987000000004
30
0
40
3.4999999999999969
210
0
220
0
230
1
100
AcDbArc
50
-116.24454945457968
51
60.300172635079477
0
ARC
5
125
100
AcDbEntity
8
0
100
AcDbCircle
10
-43.852781667203246
20
30.646101547295682
30
0
40
2.9999999999999987
210
0
220
0
230
1
100
AcDbArc
50
145.05258950170631
51
240.30017263507989
0
ARC
5
126
100
AcDbEntity
8
0
100
AcDbCircle
10
4.7206683007061656e-12
20
-1.2914114222439821e-11
30
0
40
56.500000000033225
210
0
220
0
230
1
100
AcDbArc
50
141.05917542712822
51
145.05258950170648
0
ARC
5
127
100
AcDbEntity
8
0
100
AcDbCircle
10
-42.000957688842163
20
33.939940383306563
30
0
40
2.5000000000000071
210
0
220
-0
230
1
100
AcDbArc
50
45
51
141.0591754271494
0
LINE
5
128
100
AcDbEntity
8
0
100
AcDbLine
10
-40.233190735875787
20
35.707707336272939
30
0
11
-39.951533137051939
21
35.426049737449098
31
0
0
ARC
5
129
100
AcDbEntity
8
0
100
AcDbCircle
10
-37.688791437246408
20
37.688791437254629
30
0
40
3.2000000000121256
210
0
220
0
230
1
100
AcDbArc
50
225
51
333.98563400041974
0
ARC
5
130
100
AcDbEntity
8
0
100
AcDbCircle
10
37.688791437245797
20
37.688791437250536
30
0
40
3.2000000000121265
210
0
220
0
230
1
100
AcDbArc
50
206.01436599957398
51
315
0
LINE
5
131
100
AcDbEntity
8
0
100
AcDbLine
10
39.951533137051321
20
35.426049737445013
30
0
11
40.233190735876022
21
35.707707336269713
31
0
0
ARC
5
132
100
AcDbEntity
8
0
100
AcDbCircle
10
42.000957688842398
20
33.939940383303352
30
0
40
2.500000000000004
210
0
220
-0
230
1
100
AcDbArc
50
38.940824572866774
51
135.00000000000026
0
ARC
5
133
100
AcDbEntity
8
0
100
AcDbCircle
10
4.7206683007061656e-12
20
-1.2914114222439821e-11
30
0
40
56.49999999999779
210
0
220
-0
230
1
100
AcDbArc
50
34.016399250682241
51
38.940824572875812
0
ARC
5
134
100
AcDbEntity
8
0
100
AcDbCircle
10
42.000957688837431
20
-33.939940383293631
30
0
40
2.5000000000000009
210
0
220
0
230
1
100
AcDbArc
50
225.00000000000011
51
321.05917542715008
0
CIRCLE
5
135
100
AcDbEntity
8
0
100
AcDbCircle
10
37.688791437245797
20
37.688791437250536
30
0
40
1.599999999999997
210
0
220
-0
230
1
0
CIRCLE
5
136
100
AcDbEntity
8
0
100
AcDbCircle
10
-47.073240806211352
20
-25.000000000012935
30
0
40
1.6000000000000014
210
0
220
-0
230
1
0
CIRCLE
5
137
100
AcDbEntity
8
0
100
AcDbCircle
10
79.991852909383212
20
-25.637930262467954
30
0
40
1.6000000000000014
210
0
220
-0
230
1
0
CIRCLE
5
138
100
AcDbEntity
8
0
100
AcDbCircle
10
47.073240806220802
20
24.999999999987072
30
0
40
1.6000000000000014
210
0
220
-0
230
1
0
CIRCLE
5
139
100
AcDbEntity
8
0
100
AcDbCircle
10
-79.991852909383212
20
25.637930262467954
30
0
40
1.6000000000000014
210
0
220
-0
230
1
0
CIRCLE
5
140
100
AcDbEntity
8
0
100
AcDbCircle
10
31.807873329294488
20
87.391413733081222
30
0
40
1.599999999999997
210
0
220
-0
230
1
0
CIRCLE
5
141
100
AcDbEntity
8
0
100
AcDbCircle
10
-37.688791437246408
20
37.688791437254629
30
0
40
1.6000000000000014
210
0
220
-0
230
1
0
CIRCLE
5
142
100
AcDbEntity
8
0
100
AcDbCircle
10
79.991852909383212
20
25.637930262467954
30
0
40
1.6000000000000014
210
0
220
-0
230
1
0
CIRCLE
5
143
100
AcDbEntity
8
0
100
AcDbCircle
10
-79.991852909383212
20
-25.637930262467954
30
0
40
1.6000000000000014
210
0
220
-0
230
1
0
CIRCLE
5
144
100
AcDbEntity
8
0
100
AcDbCircle
10
-25.63793026246794
20
79.99185290938324
30
0
40
1.6000000000000103
210
0
220
-0
230
1
0
CIRCLE
5
145
100
AcDbEntity
8
0
100
AcDbCircle
10
47.073240806220802
20
-24.999999999987072
30
0
40
1.6000000000000014
210
0
220
-0
230
1
0
CIRCLE
5
146
100
AcDbEntity
8
0
100
AcDbCircle
10
25.637930262467975
20
79.991852909383226
30
0
40
1.5999999999999925
210
0
220
-0
230
1
0
CIRCLE
5
147
100
AcDbEntity
8
0
100
AcDbCircle
10
30.313749290158896
20
-92.113804525342204
30
0
40
1.6000000000000902
210
0
220
-0
230
1
0
CIRCLE
5
148
100
AcDbEntity
8
0
100
AcDbCircle
10
-30.313749290158896
20
-92.113804525342204
30
0
40
1.6000000000000902
210
0
220
-0
230
1
0
CIRCLE
5
149
100
AcDbEntity
8
0
100
AcDbCircle
10
37.68879143724169
20
-37.68879143724169
30
0
40
1.599999999999997
210
0
220
-0
230
1
0
CIRCLE
5
150
100
AcDbEntity
8
0
100
AcDbCircle
10
87.391413733090033
20
-31.807873329298602
30
0
40
1.6000000000000014
210
0
220
-0
230
1
0
LWPOLYLINE
5
151
100
AcDbEntity
8
0
100
AcDbPolyline
90
86
70
1
43
0.0
10
-28.970924133687706
20
78.923605815115494
42
0.99999999999999989
10
-22.30493639124817
20
81.060100003650973
10
-22.534184106141161
20
81.775366380530926
42
-0.43681507659111868
10
-20.37182629475506
20
85.609512867530981
42
-0.031154519549650424
10
-9.5764705882356438
20
87.477375424005132
42
-0.44652331086832436
10
-6.2500000000003357
20
84.495192170913953
10
-6.2500000000003286
20
72.915619040093176
42
-0.37771960464296289
10
-8.8724489795921464
20
69.939471324170995
42
0.3420853849015455
10
-69.939471324171066
20
8.8724489795915655
42
-0.37771960464296944
10
-72.915619040093262
20
6.2499999999996927
10
-84.495192170918955
20
6.2499999999996945
42
-0.44652331086829505
10
-87.477375424005643
20
9.5764705882342032
42
-0.031154519549656649
10
-85.609512867530171
20
20.371826294754733
42
-0.4368150765911194
10
-81.775366380530912
20
22.534184106141165
10
-81.060100003650959
20
22.304936391248191
42
0.99999999999999989
10
-78.923605815115465
20
28.970924133687717
10
-81.879426067954967
20
29.918284530458557
42
-0.28519264579957082
10
-83.930383254506964
20
32.328707301249423
42
0.71702805107719025
10
-90.45625646199538
20
33.498062385906202
42
-0.14486704323012534
10
-91.667800530805067
20
32.301713310699483
42
0.1928278331499913
10
-93.102410331938771
20
30.5931559402446
42
0.16008775549764559
10
-93.102410331942664
20
-30.593155940219997
42
0.19282783314998847
10
-91.667800530805081
20
-32.301713310673563
42
-0.14486704323012817
10
-90.45625646199538
20
-33.49806238588031
42
0.71702805107964251
10
-83.930383254506964
20
-32.328707301249423
42
-0.28519264579957398
10
-81.879426067954967
20
-29.918284530458564
10
-78.923605815115465
20
-28.970924133687717
42
0.99999999999999989
10
-81.060100003650959
20
-22.304936391248191
10
-81.775366380530912
20
-22.534184106141169
42
-0.43681507659111829
10
-85.609512867532629
20
-20.371826294755454
42
-0.031154519549653759
10
-87.477375424004777
20
-9.5764705882358232
42
-0.44652331086834329
10
-84.49519217091364
20
-6.2500000000003029
10
-72.915619040093148
20
-6.2500000000002975
42
-0.37771960464296156
10
-69.939471324170981
20
-8.8724489795921109
42
0.31522861125921747
10
-15.600888357366962
20
-68.752180201506292
42
-0.74178925751613867
10
-15.192354456026846
20
-74.479582013082634
42
0.12570089283278066
10
-32.366791620722012
20
-86.62798978382304
42
0.19992906343289768
10
-33.071436700236546
20
-88.824676476873563
42
-0.14356142401403232
10
-33.408313162898857
20
-90.478667088448091
42
0.84674272424062869
10
-27.919058251830563
20
-94.666343424350416
42
-0.14883125087332064
10
-26.351869994562605
20
-93.893763862537142
42
0.17542536924198959
10
-24.569335403253767
20
-92.897079513945542
42
-0.45689697149549008
10
24.569335403253767
20
-92.897079513945542
42
0.17542536924198968
10
26.351869994562591
20
-93.893763862537156
42
-0.14883125087331442
10
27.919058251830549
20
-94.666343424350416
42
0.84674272424063046
10
33.408313162898857
20
-90.478667088448091
42
-0.1435614240140364
10
33.071436700236546
20
-88.824676476873577
42
0.19992906343289638
10
32.366791620722054
20
-86.627989783823054
42
0.12570089283296945
10
15.192354455997389
20
-74.479582013071365
42
-0.74178925751661373
10
15.600888357335126
20
-68.752180201517746
42
0.27535438992609529
10
67.891457489910977
20
-18.999999997252889
10
74.605252554295376
20
-18.999999997252893
42
-0.60106124182612986
10
77.091375795105137
20
-23.679044735044464
42
0.50001400973659116
10
78.923605815115465
20
-28.970924133687724
10
81.879426067954952
20
-29.91828453045855
42
-0.28519264579957226
10
83.930383254506964
20
-32.328707301249423
42
0.71702805108060452
10
90.456256461990648
20
-33.498062385893263
42
-0.1448670432301343
10
91.667800530800335
20
-32.30171331068653
42
0.19282783314999197
10
93.102410331934067
20
-30.593155940231647
42
0.16008775549766877
10
93.102410331937932
20
30.59315594023294
42
0.19282783314999008
10
91.667800530800321
20
32.301713310686523
42
-0.14486704323013316
10
90.456256461990648
20
33.498062385893249
42
0.71702805107539325
10
83.930383254506964
20
32.328707301249423
42
-0.28519264579957265
10
81.879426067954967
20
29.918284530458564
10
78.923605815115465
20
28.970924133687717
42
0.5000140094178458
10
77.091375793107133
20
23.679044738002872
42
-0.60106124147901596
10
74.605252550584794
20
19.000000002747093
10
67.891457488373405
20
19.00000000274709
42
0.30161030215311713
10
8.8724489795915495
20
69.939471324171052
42
-0.37771960464297089
10
6.2499999999996696
20
72.915619040093219
10
6.2499999999996669
20
84.495192170922095
42
-0.44652331086832936
10
9.5764705882339491
20
87.477375424003284
42
-0.031154519549654869
10
20.371826294754744
20
85.609512867530185
42
-0.43681507659112084
10
22.534184106141186
20
81.775366380530926
10
22.304936391248216
20
81.060100003650973
42
0.99999999999999989
10
28.970924133687745
20
78.923605815115479
10
29.918284530458582
20
81.879426067954995
42
-0.28519264579957826
10
32.328707301249452
20
83.930383254506978
42
0.71702805108016365
10
33.498062385897356
20
90.456256461999487
42
-0.14486704323013508
10
32.301713310690623
20
91.667800530809188
42
0.19282783314999113
10
30.593155940235754
20
93.102410331942906
42
0.16008775549762536
10
-30.593155940228772
20
93.102410331946828
42
0.1928278331499966
10
-32.30171331068243
20
91.667800530809203
42
-0.14486704323013383
10
-33.49806238588917
20
90.456256461999502
42
0.71702805107739331
10
-32.328707301249416
20
83.930383254506964
42
-0.28519264579957021
10
-29.918284530458553
20
81.879426067954995
0
ARC
5
152
100
AcDbEntity
8
0
100
AcDbCircle
10
-32.566292047286773
20
35.188791437254345
30
0
40
2.5
210
0
220
-0
230
1
100
AcDbArc
50
89.999999999996902
51
153.98563400041971
0
LINE
5
153
100
AcDbEntity
8
0
100
AcDbLine
10
-32.566292047286638
20
37.688791437254345
30
0
11
32.566292047286026
21
37.688791437250813
31
0
0
ARC
5
154
100
AcDbEntity
8
0
100
AcDbCircle
10
32.566292047285884
20
35.188791437250813
30
0
40
2.5
210
0
220
-0
230
1
100
AcDbArc
50
26.014365999573968
51
89.999999999996746
0
LINE
5
155
100
AcDbEntity
8
0
100
AcDbLine
10
39.999999999997641
20
18.34154481464504
30
0
11
39.999999999997641
21
10.500000000017916
31
0
0
ARC
5
156
100
AcDbEntity
8
0
100
AcDbCircle
10
37.499999999997655
20
10.500000000017909
30
0
40
2.4999999999999871
210
0
220
0
230
1
100
AcDbArc
50
-67.380135051907956
51
0
0
LINE
5
157
100
AcDbEntity
8
0
100
AcDbLine
10
38.46153846153819
20
8.1923076923264802
30
0
11
37.538461538459472
21
7.8076923077093729
31
0
0
ARC
5
158
100
AcDbEntity
8
0
100
AcDbCircle
10
38.499999999999993
20
5.5000000000179305
30
0
40
2.4999999999999925
210
0
220
0
230
1
100
AcDbArc
50
112.61986494809162
51
180
0
LINE
5
159
100
AcDbEntity
8
0
100
AcDbLine
10
36.000000000000007
20
5.5000000000179199
30
0
11
36.000000000000007
21
-5.5000000000059757
31
0
0
ARC
5
160
100
AcDbEntity
8
0
100
AcDbCircle
10
38.499999999999993
20
-5.5000000000059837
30
0
40
2.4999999999999867
210
0
220
0
230
1
100
AcDbArc
50
180
51
247.38013505190781
0
LINE
5
161
100
AcDbEntity
8
0
100
AcDbLine
10
37.538461538459451
20
-7.8076923076974101
30
0
11
38.461538461538105
21
-8.1923076923144968
31
0
0
ARC
5
162
100
AcDbEntity
8
0
100
AcDbCircle
10
37.499999999997641
20
-10.500000000005967
30
0
40
2.4999999999999956
210
0
220
0
230
1
100
AcDbArc
50
0
51
67.380135051909832
0
LINE
5
163
100
AcDbEntity
8
0
100
AcDbLine
10
39.999999999997641
20
-10.500000000005972
30
0
11
39.999999999997641
21
-18.341544814633089
31
0
0
ARC
5
164
100
AcDbEntity
8
0
100
AcDbCircle
10
42.49999999999774
20
-18.341544814633064
30
0
40
2.5000000000001066
210
0
220
0
230
1
100
AcDbArc
50
180
51
209.51114961516006
0
LINE
5
165
100
AcDbEntity
8
0
100
AcDbLine
10
40.324350362322903
20
-19.573027114175328
30
0
11
44.28840926999716
21
-26.576297343401151
31
0
0
ARC
5
166
100
AcDbEntity
8
0
100
AcDbCircle
10
47.073240806220802
20
-24.999999999987072
30
0
40
3.2000000000000011
210
0
220
0
230
1
100
AcDbArc
50
209.51114961516112
51
246.04996995210755
0
ARC
5
167
100
AcDbEntity
8
0
100
AcDbCircle
10
44.75938423818139
20
-30.209229096748032
30
0
40
2.4999999999999951
210
-0
220
0
230
1
100
AcDbArc
50
-34.016399250659568
51
66.049969952107446
0
ARC
5
168
100
AcDbEntity
8
0
100
AcDbCircle
10
4.7206683007061656e-12
20
-1.2914114222439821e-11
30
0
40
56.500000000004896
210
0
220
0
230
1
100
AcDbArc
50
231.05917542712106
51
308.9408245728626
0
ARC
5
169
100
AcDbEntity
8
0
100
AcDbCircle
10
44.759384238169375
20
30.20922909674022
30
0
40
2.5000000000000542
210
0
220
0
230
1
100
AcDbArc
50
-66.049969951965224
51
34.016399250682248
0
ARC
5
170
100
AcDbEntity
8
0
100
AcDbCircle
10
47.073240806220802
20
24.999999999987072
30
0
40
3.1999999999976962
210
0
220
0
230
1
100
AcDbArc
50
113.95003004803469
51
150.4888503847969
0
LINE
5
171
100
AcDbEntity
8
0
100
AcDbLine
10
44.288409270000329
20
26.576297343402054
30
0
11
40.32435036232382
21
19.573027114188871
31
0
0
ARC
5
172
100
AcDbEntity
8
0
100
AcDbCircle
10
42.49999999999752
20
18.341544814645069
30
0
40
2.4999999999998805
210
0
220
0
230
1
100
AcDbArc
50
150.48885038479642
51
180
0
ENDSEC
0
SECTION
2
OBJECTS
0
DICTIONARY
5
C
100
AcDbDictionary
3
ACAD_GROUP
350
D
3
ACAD_MLINESTYLE
350
17
0
DICTIONARY
5
D
100
AcDbDictionary
0
DICTIONARY
5
1A
330
C
100
AcDbDictionary
0
DICTIONARY
5
17
100
AcDbDictionary
0
ENDSEC
0
EOF
