0
SECTION
2
HEADER
9
$INSUNITS
70
4
9
$ACADVER
1
AC1014
9
$HANDSEED
5
FFFF
0
ENDSEC
0
SECTION
2
TABLES
0
TABLE
2
VPORT
5
8
100
AcDbSymbolTable
0
ENDTAB
0
TABLE
2
LTYPE
5
5
100
AcDbSymbolTable
0
LTYPE
5
14
100
AcDbSymbolTableRecord
100
AcDbLinetypeTableRecord
2
BYBLOCK
70
0
0
LTYPE
5
15
100
AcDbSymbolTableRecord
100
AcDbLinetypeTableRecord
2
BYLAYER
70
0
0
LTYPE
5
16
100
AcDbSymbolTableRecord
100
AcDbLinetypeTableRecord
2
DASHED
70
0
3
Dashed __ __ __ __ __ __ __ __ __ __ __ __ __ _
72
65
73
2
40
0.75
49
0.5
74
0
49
-0.25
74
0
0
ENDTAB
0
TABLE
2
LAYER
5
2
100
AcDbSymbolTable
70
3
0
LAYER
5
50
100
AcDbSymbolTableRecord
100
AcDbLayerTableRecord
2
1
70
0
62
7
6
DASHED
0
LAYER
5
51
100
AcDbSymbolTableRecord
100
AcDbLayerTableRecord
2
0
70
0
62
7
6
CONTINUOUS
0
ENDTAB
0
TABLE
2
STYLE
5
3
100
AcDbSymbolTable
70
1
0
STYLE
5
11
100
AcDbSymbolTableRecord
100
AcDbTextStyleTableRecord
2
STANDARD
70
0
0
ENDTAB
0
TABLE
2
VIEW
5
6
100
AcDbSymbolTable
70
0
0
ENDTAB
0
TABLE
2
UCS
5
7
100
AcDbSymbolTable
70
0
0
ENDTAB
0
TABLE
2
APPID
5
9
100
AcDbSymbolTable
70
2
0
APPID
5
12
100
AcDbSymbolTableRecord
100
AcDbRegAppTableRecord
2
ACAD
70
0
0
ENDTAB
0
TABLE
2
DIMSTYLE
5
A
100
AcDbSymbolTable
70
1
0
ENDTAB
0
TABLE
2
BLOCK_RECORD
5
1
100
AcDbSymbolTable
70
1
0
BLOCK_RECORD
5
1F
100
AcDbSymbolTableRecord
100
AcDbBlockTableRecord
2
*MODEL_SPACE
0
BLOCK_RECORD
5
1B
100
AcDbSymbolTableRecord
100
AcDbBlockTableRecord
2
*PAPER_SPACE
0
ENDTAB
0
ENDSEC
0
SECTION
2
BLOCKS
0
BLOCK
5
20
100
AcDbEntity
100
AcDbBlockBegin
2
*MODEL_SPACE
0
ENDBLK
5
21
100
AcDbEntity
100
AcDbBlockEnd
0
BLOCK
5
1C
100
AcDbEntity
100
AcDbBlockBegin
2
*PAPER_SPACE
0
ENDBLK
5
1D
100
AcDbEntity
100
AcDbBlockEnd
0
ENDSEC
0
SECTION
2
ENTITIES
0
CIRCLE
5
100
100
AcDbEntity
8
0
100
AcDbCircle
10
81.769999999999996
20
-11.429999999999998
30
0
40
1.6000000000000014
210
0
220
-0
230
1
0
CIRCLE
5
101
100
AcDbEntity
8
0
100
AcDbCircle
10
43.670000000000009
20
-3.7100000000000022
30
0
40
1.6000000000000014
210
0
220
-0
230
1
0
CIRCLE
5
102
100
AcDbEntity
8
0
100
AcDbCircle
10
-87.391413733085301
20
31.807873329285677
30
0
40
1.6000000000000014
210
0
220
-0
230
1
0
CIRCLE
5
103
100
AcDbEntity
8
0
100
AcDbCircle
10
-47.073245999999997
20
24.999987000000004
30
0
40
1.6000000000000014
210
0
220
-0
230
1
0
CIRCLE
5
104
100
AcDbEntity
8
0
100
AcDbCircle
10
-37.688791437246408
20
37.688791437254629
30
0
40
1.6000000000000014
210
0
220
-0
230
1
0
CIRCLE
5
105
100
AcDbEntity
8
0
100
AcDbCircle
10
47.073240806220802
20
24.999999999987072
30
0
40
1.6000000000000014
210
0
220
-0
230
1
0
CIRCLE
5
106
100
AcDbEntity
8
0
100
AcDbCircle
10
37.688791437245797
20
37.688791437250536
30
0
40
1.599999999999997
210
0
220
-0
230
1
0
CIRCLE
5
107
100
AcDbEntity
8
0
100
AcDbCircle
10
30.313749290158896
20
-92.113804525342204
30
0
40
1.6000000000000902
210
0
220
-0
230
1
0
CIRCLE
5
108
100
AcDbEntity
8
0
100
AcDbCircle
10
-47.073240806211352
20
-25.000000000012935
30
0
40
1.6000000000000014
210
0
220
-0
230
1
0
CIRCLE
5
109
100
AcDbEntity
8
0
100
AcDbCircle
10
37.68879143724169
20
-37.68879143724169
30
0
40
1.599999999999997
210
0
220
-0
230
1
0
CIRCLE
5
110
100
AcDbEntity
8
0
100
AcDbCircle
10
-30.313749290158896
20
-92.113804525342204
30
0
40
1.6000000000000902
210
0
220
-0
230
1
0
CIRCLE
5
111
100
AcDbEntity
8
0
100
AcDbCircle
10
-37.688791437250529
20
-37.688791437237576
30
0
40
1.599999999999997
210
0
220
-0
230
1
0
CIRCLE
5
112
100
AcDbEntity
8
0
100
AcDbCircle
10
79.991852909383212
20
25.637930262467954
30
0
40
1.6000000000000014
210
0
220
-0
230
1
0
CIRCLE
5
113
100
AcDbEntity
8
0
100
AcDbCircle
10
-87.391413733085301
20
-31.807873329285677
30
0
40
1.6000000000000014
210
0
220
-0
230
1
0
CIRCLE
5
114
100
AcDbEntity
8
0
100
AcDbCircle
10
47.073240806220802
20
-24.999999999987072
30
0
40
1.6000000000000014
210
0
220
-0
230
1
0
LWPOLYLINE
5
115
100
AcDbEntity
8
0
100
AcDbPolyline
90
58
70
1
43
0.0
10
39.999999999997641
20
18.34154481464504
10
39.999999999997648
20
10.500000000017916
42
-0.30277563773174959
10
38.46153846153819
20
8.1923076923264802
10
37.538461538459472
20
7.8076923077093685
42
0.30277563773175153
10
36.000000000000007
20
5.5000000000179199
10
36.000000000000014
20
-5.5000000000059757
42
0.30277563773174898
10
37.538461538459451
20
-7.8076923076974101
10
38.461538461538112
20
-8.1923076923145004
42
-0.30277563773175736
10
39.999999999997641
20
-10.500000000005972
10
39.999999999997641
20
-18.341544814633089
42
0.12948312112443242
10
40.324350362322903
20
-19.573027114175328
10
44.288409269997153
20
-26.576297343401151
42
0.16079536726424967
10
45.774233610128491
20
-27.924479492905508
42
-0.46666026538792488
10
46.831577952911879
20
-31.60780451789325
42
-0.021490166241892237
10
43.945446470727916
20
-35.511233919556709
42
-0.44553810531520377
10
40.233190735871062
20
-35.70770733626
10
39.951533137047228
20
-35.426049737436159
42
0.99999999999999989
10
35.426049737436159
20
-39.951533137047221
10
35.707707336260867
20
-40.233190735871922
42
-0.44553810531513666
10
35.511233919560851
20
-43.945446470731952
42
-0.35353751879548179
10
-35.51123391956552
20
-43.945446470723809
42
-0.44553810531520854
10
-35.70770733626884
20
-40.233190735866948
10
-35.426049737444998
20
-39.951533137043107
42
0.99999999999999989
10
-39.95153313705606
20
-35.426049737432052
10
-40.233190735880761
20
-35.70770733625676
42
-0.44553810531513249
10
-43.945446470727148
20
-35.51123391954566
42
-0.017426254581756215
10
-46.311807730033969
20
-32.364586584359714
42
-0.4413005136009337
10
-45.339143128935653
20
-28.040214670997045
42
0.97029241899538599
10
-48.620952689350133
20
-21.860798202295719
42
-0.44130051360092698
10
-52.748360793115587
20
-20.245010092340237
42
-0.18531172957410558
10
-52.748366096676591
20
20.244996273887228
42
-0.44130058304391906
10
-48.620957790612991
20
21.86078515666506
42
0.97029264385590352
10
-45.339149820801737
20
28.040202525466903
42
-0.44130058304391678
10
-46.311816153244024
20
32.364574531277349
42
-0.01742631966648071
10
-43.945446470732641
20
35.511233919569641
42
-0.44553810531520471
10
-40.233190735875787
20
35.707707336272939
10
-39.951533137051939
20
35.426049737449098
42
0.99999999999999989
10
-35.426049737440884
20
39.951533137060153
10
-35.707707336265585
20
40.233190735884847
42
-0.44553810531513693
10
-35.51123391955646
20
43.945446470733607
42
-0.14727856479383794
10
-5.3445945945928681
20
56.246647087812292
42
-0.44224136541377884
10
-4.2499999999982636
20
55.251131210152131
10
-4.2499999999982627
20
46.000000670552254
42
0.41421356237309731
10
-3.2499999999982587
20
45.000000670552254
10
3.2500000000017417
20
45.000000670552254
42
0.41421356237309664
10
4.2500000000017435
20
46.000000670552254
10
4.2500000000017435
20
55.2511312101527
42
-0.44224136541374698
10
5.3445945945963746
20
56.246647087814267
42
-0.14727856479383455
10
35.511233919560794
20
43.945446470736769
42
-0.44553810531520582
10
35.707707336264114
20
40.233190735879909
10
35.426049737440266
20
39.951533137056067
42
0.99999999999999989
10
39.951533137051321
20
35.426049737445013
10
40.233190735876022
20
35.707707336269713
42
-0.44553810531513854
10
43.945446470712255
20
35.511233919550527
42
-0.021490166241903901
10
46.831577952899352
20
31.607804517886279
42
-0.46666026538729144
10
45.774233610122181
20
27.924479492900169
42
0.16079536726342419
10
44.288409270000329
20
26.576297343402054
10
40.32435036232382
20
19.573027114188871
42
0.1294831211246312
0
CIRCLE
5
116
100
AcDbEntity
8
0
100
AcDbCircle
10
-79.991852909383212
20
-25.637930262467954
30
0
40
1.6000000000000014
210
0
220
-0
230
1
0
CIRCLE
5
117
100
AcDbEntity
8
0
100
AcDbCircle
10
-79.991852909383212
20
25.637930262467954
30
0
40
1.6000000000000014
210
0
220
-0
230
1
0
CIRCLE
5
118
100
AcDbEntity
8
0
100
AcDbCircle
10
-31.807873329276887
20
87.391413733081222
30
0
40
1.599999999999997
210
0
220
-0
230
1
0
CIRCLE
5
119
100
AcDbEntity
8
0
100
AcDbCircle
10
79.991852909383212
20
-25.637930262467954
30
0
40
1.6000000000000014
210
0
220
-0
230
1
0
CIRCLE
5
120
100
AcDbEntity
8
0
100
AcDbCircle
10
25.637930262467975
20
79.991852909383226
30
0
40
1.5999999999999925
210
0
220
-0
230
1
0
CIRCLE
5
121
100
AcDbEntity
8
0
100
AcDbCircle
10
87.391413733090033
20
-31.807873329298602
30
0
40
1.6000000000000014
210
0
220
-0
230
1
0
CIRCLE
5
122
100
AcDbEntity
8
0
100
AcDbCircle
10
87.391413733090033
20
31.807873329272756
30
0
40
1.6000000000000014
210
0
220
-0
230
1
0
CIRCLE
5
123
100
AcDbEntity
8
0
100
AcDbCircle
10
-25.63793026246794
20
79.99185290938324
30
0
40
1.6000000000000103
210
0
220
-0
230
1
0
CIRCLE
5
124
100
AcDbEntity
8
0
100
AcDbCircle
10
31.807873329294488
20
87.391413733081222
30
0
40
1.599999999999997
210
0
220
-0
230
1
0
LWPOLYLINE
5
125
100
AcDbEntity
8
0
100
AcDbPolyline
90
94
70
1
43
0.0
10
22.304936391248216
20
81.060100003650973
42
0.99999999999999989
10
28.970924133687745
20
78.923605815115479
10
29.918284530458582
20
81.879426067954995
42
-0.28519264579957826
10
32.328707301249452
20
83.930383254506978
42
0.71702805108016365
10
33.498062385897356
20
90.456256461999487
42
-0.14486704323013508
10
32.301713310690623
20
91.667800530809188
42
0.19282783314999113
10
30.593155940235746
20
93.102410331942892
42
0.16008775549762774
10
-30.593155940228772
20
93.102410331946828
42
0.1928278331499966
10
-32.30171331068243
20
91.667800530809203
42
-0.14486704323013383
10
-33.49806238588917
20
90.456256461999502
42
0.71702805107739331
10
-32.328707301249416
20
83.930383254506964
42
-0.28519264579957021
10
-29.918284530458553
20
81.879426067954995
10
-28.97092413368771
20
78.923605815115494
42
0.99999999999999989
10
-22.30493639124817
20
81.060100003650973
10
-23.185032436646832
20
83.806051517246402
42
-0.42945248440909506
10
-22.488297306469079
20
85.078061121863243
42
-0.043774241812600707
10
-7.3333333333336217
20
87.693912116074998
42
-0.43886622996569924
10
-6.250000000000334
20
86.697390387483239
10
-6.2500000000003331
20
71.131480372617006
42
-0.38476686822167494
10
-7.148601398601703
20
70.136634493279715
42
0.35589014538243846
10
-70.136634493279786
20
7.148601398601123
42
-0.38476686822169331
10
-71.131480372617077
20
6.2499999999996936
10
-86.697390387481263
20
6.2499999999997033
42
-0.43886622996568481
10
-87.693912116075978
20
7.333333333333119
42
-0.043774241812576567
10
-85.078061121865076
20
22.488297306458907
42
-0.42945248440809963
10
-83.806051517251205
20
23.185032436637787
10
-81.060100003650959
20
22.304936391248191
42
0.99999999999999989
10
-78.923605815115465
20
28.970924133687717
10
-81.879426067954967
20
29.918284530458557
42
-0.28519264579957082
10
-83.930383254506964
20
32.328707301249423
42
0.71702805107719025
10
-90.45625646199538
20
33.498062385906202
42
-0.14486704323012534
10
-91.667800530805067
20
32.301713310699483
42
0.1928278331499913
10
-93.102410331938785
20
30.593155940244607
42
0.16008775549764895
10
-93.102410331942664
20
-30.593155940219997
42
0.19282783314998847
10
-91.667800530805081
20
-32.301713310673563
42
-0.14486704323012817
10
-90.45625646199538
20
-33.49806238588031
42
0.71702805107964251
10
-83.930383254506964
20
-32.328707301249423
42
-0.28519264579957398
10
-81.879426067954967
20
-29.918284530458564
10
-78.923605815115465
20
-28.970924133687717
42
0.99999999999999989
10
-81.060100003650959
20
-22.304936391248191
10
-83.806051517250864
20
-23.18503243663767
42
-0.42945248440802275
10
-85.078061121867847
20
-22.488297306459863
42
-0.043774241812577011
10
-87.69391211607487
20
-7.3333333333337656
42
-0.43886622996575619
10
-86.697390387483111
20
-6.2500000000003029
10
-71.131480372616977
20
-6.2500000000003064
42
-0.38476686822168316
10
-70.136634493279672
20
-7.1486013986017021
42
0.34550590297838907
10
-9.7373132353078482
20
-69.824313322491747
42
-0.83168164880375051
10
-9.6054734042688423
20
-72.771124086329479
42
0.16080331758434541
10
-32.366791620722054
20
-86.62798978382304
42
0.19992906343289546
10
-33.071436700236546
20
-88.824676476873563
42
-0.14356142401403232
10
-33.408313162898857
20
-90.478667088448091
42
0.84674272424062869
10
-27.919058251830563
20
-94.666343424350416
42
-0.14883125087332064
10
-26.351869994562605
20
-93.893763862537142
42
0.17542536924198959
10
-24.569335403253763
20
-92.897079513945556
42
-0.45689697149549008
10
24.569335403253767
20
-92.897079513945542
42
0.17542536924198968
10
26.351869994562591
20
-93.893763862537156
42
-0.14883125087331442
10
27.919058251830549
20
-94.666343424350416
42
0.84674272424063046
10
33.408313162898857
20
-90.478667088448091
42
-0.1435614240140364
10
33.071436700236546
20
-88.824676476873577
42
0.19992906343289663
10
32.36679162072204
20
-86.627989783823054
42
0.16080331758434535
10
9.6054734042688406
20
-72.771124086329493
42
-0.83168164880374795
10
9.7373132353077985
20
-69.824313322491761
42
0.29534769475433886
10
67.685748631900026
20
-19.720279717571032
42
-0.33341426945289282
10
68.645830172778048
20
-18.9999999972529
10
84.669947443643565
20
-18.999999997252864
42
-0.48390509130523202
10
85.643165230351826
20
-20.229885054692133
42
-0.0066140382911123582
10
85.078061121862049
20
-22.48829730646932
42
-0.42945248440907952
10
83.80605151724474
20
-23.185032436646789
10
81.060100003651527
20
-22.304936391248368
42
1.0000000074505806
10
78.923605815114911
20
-28.970924133687546
10
81.879426067954952
20
-29.91828453045855
42
-0.28519264579957226
10
83.930383254506964
20
-32.328707301249423
42
0.71702805108060452
10
90.456256461990648
20
-33.498062385893263
42
-0.1448670432301343
10
91.667800530800335
20
-32.30171331068653
42
0.19282783314999197
10
93.102410331934067
20
-30.59315594023165
42
0.16008775549766538
10
93.102410331937932
20
30.59315594023294
42
0.19282783314999008
10
91.667800530800321
20
32.301713310686523
42
-0.14486704323013316
10
90.456256461990648
20
33.498062385893249
42
0.71702805107539325
10
83.930383254506964
20
32.328707301249423
42
-0.28519264579957265
10
81.879426067954967
20
29.918284530458564
10
78.923605815115465
20
28.970924133687717
42
0.99999999999999989
10
81.060100003650959
20
22.304936391248191
10
83.80605151724474
20
23.185032436646786
42
-0.42945248440907474
10
85.078061121861936
20
22.488297306469129
42
-0.0066140382911102488
10
85.643165230352139
20
20.229885054692652
42
-0.48390509130524584
10
84.669947443643579
20
18.999999997252875
10
68.64583017092184
20
19.000000002500062
42
-0.33341426934069279
10
67.685748630392666
20
19.72027972274482
42
0.30542905121982172
10
7.1486013986011461
20
70.136634493279772
42
-0.38476686822171235
10
6.2499999999996696
20
71.131480372617062
10
6.2499999999996705
20
86.697390387482699
42
-0.43886622996571117
10
7.3333333333327726
20
87.693912116073108
42
-0.043774241812603268
10
22.488297306468876
20
85.078061121862277
42
-0.42945248440906603
10
23.185032436646434
20
83.806051517245081
0
ENDSEC
0
SECTION
2
OBJECTS
0
DICTIONARY
5
C
100
AcDbDictionary
3
ACAD_GROUP
350
D
3
ACAD_MLINESTYLE
350
17
0
DICTIONARY
5
D
100
AcDbDictionary
0
DICTIONARY
5
1A
330
C
100
AcDbDictionary
0
DICTIONARY
5
17
100
AcDbDictionary
0
ENDSEC
0
EOF
