%TF.GenerationSoftware,KiCad,Pcbnew,8.0.3*%
%TF.CreationDate,2024-11-15T18:21:39+09:00*%
%TF.ProjectId,FPC-MD-Main-002-20241115,4650432d-4d44-42d4-9d61-696e2d303032,rev?*%
%TF.SameCoordinates,Original*%
%TF.FileFunction,Legend,Bot*%
%TF.FilePolarity,Positive*%
%FSLAX46Y46*%
G04 Gerber Fmt 4.6, Leading zero omitted, Abs format (unit mm)*
G04 Created by KiCad (PCBNEW 8.0.3) date 2024-11-15 18:21:39*
%MOMM*%
%LPD*%
G01*
G04 APERTURE LIST*
G04 Aperture macros list*
%AMRoundRect*
0 Rectangle with rounded corners*
0 $1 Rounding radius*
0 $2 $3 $4 $5 $6 $7 $8 $9 X,Y pos of 4 corners*
0 Add a 4 corners polygon primitive as box body*
4,1,4,$2,$3,$4,$5,$6,$7,$8,$9,$2,$3,0*
0 Add four circle primitives for the rounded corners*
1,1,$1+$1,$2,$3*
1,1,$1+$1,$4,$5*
1,1,$1+$1,$6,$7*
1,1,$1+$1,$8,$9*
0 Add four rect primitives between the rounded corners*
20,1,$1+$1,$2,$3,$4,$5,0*
20,1,$1+$1,$4,$5,$6,$7,0*
20,1,$1+$1,$6,$7,$8,$9,0*
20,1,$1+$1,$8,$9,$2,$3,0*%
G04 Aperture macros list end*
%ADD10C,0.000000*%
%ADD11RoundRect,0.000000X-2.000000X0.350000X-2.000000X-0.350000X2.000000X-0.350000X2.000000X0.350000X0*%
%ADD12RoundRect,0.000000X2.000000X-0.350000X2.000000X0.350000X-2.000000X0.350000X-2.000000X-0.350000X0*%
G04 APERTURE END LIST*
D10*
G36*
X51309257Y-626111D02*
G01*
X51353021Y-677470D01*
X51400144Y-726228D01*
X51450579Y-772366D01*
X51504277Y-815862D01*
X51561192Y-856695D01*
X51621275Y-894845D01*
X51684480Y-930292D01*
X51750758Y-963014D01*
X51820063Y-992991D01*
X51892346Y-1020203D01*
X51967561Y-1044628D01*
X52045659Y-1066246D01*
X52126593Y-1085036D01*
X52210315Y-1100978D01*
X52296778Y-1114050D01*
X52385935Y-1124234D01*
X52474569Y-1130657D01*
X52560480Y-1132493D01*
X52643559Y-1129787D01*
X52723698Y-1122580D01*
X52800785Y-1110916D01*
X52874711Y-1094840D01*
X52945368Y-1074394D01*
X53012645Y-1049621D01*
X53076432Y-1020565D01*
X53136621Y-987270D01*
X53193102Y-949779D01*
X53245765Y-908135D01*
X53294500Y-862382D01*
X53339198Y-812563D01*
X53379750Y-758721D01*
X53416046Y-700900D01*
X53430022Y-676682D01*
X53435608Y-667510D01*
X53440277Y-660353D01*
X53444046Y-655254D01*
X53445597Y-653491D01*
X53446928Y-652258D01*
X53448041Y-651562D01*
X53448937Y-651407D01*
X53449620Y-651800D01*
X53450089Y-652746D01*
X53450348Y-654250D01*
X53450397Y-656317D01*
X53450240Y-658953D01*
X53449877Y-662163D01*
X53448542Y-670329D01*
X53446407Y-680858D01*
X53443487Y-693793D01*
X53439795Y-709177D01*
X53430157Y-747467D01*
X53421752Y-777688D01*
X53412410Y-807233D01*
X53402127Y-836107D01*
X53390902Y-864311D01*
X53378732Y-891848D01*
X53365612Y-918721D01*
X53351542Y-944934D01*
X53336517Y-970488D01*
X53320535Y-995388D01*
X53303593Y-1019634D01*
X53285688Y-1043232D01*
X53266818Y-1066182D01*
X53246980Y-1088489D01*
X53226170Y-1110154D01*
X53204386Y-1131182D01*
X53181625Y-1151574D01*
X53157885Y-1171333D01*
X53133161Y-1190463D01*
X53107453Y-1208966D01*
X53080756Y-1226845D01*
X53024385Y-1260742D01*
X52964027Y-1292178D01*
X52899660Y-1321174D01*
X52831259Y-1347754D01*
X52758803Y-1371940D01*
X52682268Y-1393756D01*
X52646569Y-1402190D01*
X52607479Y-1409501D01*
X52565413Y-1415692D01*
X52520784Y-1420765D01*
X52474005Y-1424722D01*
X52425490Y-1427565D01*
X52375652Y-1429295D01*
X52324904Y-1429915D01*
X52273661Y-1429428D01*
X52222334Y-1427835D01*
X52171338Y-1425137D01*
X52121087Y-1421339D01*
X52071993Y-1416440D01*
X52024470Y-1410444D01*
X51978931Y-1403352D01*
X51935790Y-1395167D01*
X51840404Y-1373328D01*
X51747437Y-1348584D01*
X51656964Y-1320970D01*
X51569056Y-1290524D01*
X51483785Y-1257284D01*
X51401225Y-1221286D01*
X51321446Y-1182568D01*
X51244522Y-1141167D01*
X51170525Y-1097120D01*
X51099528Y-1050464D01*
X51031602Y-1001237D01*
X50966820Y-949476D01*
X50905254Y-895218D01*
X50846978Y-838500D01*
X50792062Y-779359D01*
X50740579Y-717833D01*
X50723651Y-695903D01*
X50707021Y-673891D01*
X50691119Y-652374D01*
X50676374Y-631932D01*
X50663216Y-613144D01*
X50652076Y-596588D01*
X50643384Y-582844D01*
X50637568Y-572489D01*
X50614990Y-531567D01*
X51233057Y-531567D01*
X51309257Y-626111D01*
G37*
G36*
X52525635Y-245111D02*
G01*
X52526058Y-254950D01*
X52526244Y-263894D01*
X52526153Y-272040D01*
X52525745Y-279485D01*
X52524982Y-286327D01*
X52523824Y-292662D01*
X52522232Y-298588D01*
X52521261Y-301428D01*
X52520167Y-304201D01*
X52518944Y-306922D01*
X52517589Y-309600D01*
X52514459Y-314881D01*
X52510738Y-320142D01*
X52506386Y-325478D01*
X52501365Y-330989D01*
X52495635Y-336770D01*
X52489156Y-342919D01*
X52481890Y-349533D01*
X52471765Y-358033D01*
X52466642Y-361912D01*
X52461473Y-365543D01*
X52456255Y-368928D01*
X52450984Y-372065D01*
X52445654Y-374956D01*
X52440263Y-377601D01*
X52434805Y-380000D01*
X52429277Y-382153D01*
X52423675Y-384061D01*
X52417994Y-385723D01*
X52412230Y-387141D01*
X52406379Y-388314D01*
X52400438Y-389242D01*
X52394402Y-389926D01*
X52388266Y-390367D01*
X52382027Y-390563D01*
X52375680Y-390517D01*
X52369222Y-390227D01*
X52362648Y-389694D01*
X52355954Y-388919D01*
X52342190Y-386641D01*
X52327897Y-383396D01*
X52313042Y-379186D01*
X52297592Y-374013D01*
X52281513Y-367878D01*
X52263132Y-360530D01*
X52255496Y-357689D01*
X52248770Y-355398D01*
X52242864Y-353653D01*
X52237683Y-352449D01*
X52233134Y-351783D01*
X52231068Y-351650D01*
X52229125Y-351650D01*
X52227294Y-351782D01*
X52225563Y-352046D01*
X52223920Y-352442D01*
X52222353Y-352968D01*
X52220852Y-353624D01*
X52219405Y-354410D01*
X52217999Y-355325D01*
X52216624Y-356369D01*
X52213917Y-358840D01*
X52211191Y-361820D01*
X52208354Y-365304D01*
X52205313Y-369289D01*
X52203856Y-371220D01*
X52202391Y-373045D01*
X52200910Y-374765D01*
X52199404Y-376383D01*
X52197864Y-377900D01*
X52196284Y-379316D01*
X52194654Y-380635D01*
X52192965Y-381857D01*
X52191211Y-382984D01*
X52189383Y-384017D01*
X52187471Y-384958D01*
X52185469Y-385809D01*
X52183367Y-386571D01*
X52181158Y-387246D01*
X52178834Y-387834D01*
X52176385Y-388339D01*
X52173804Y-388761D01*
X52171082Y-389102D01*
X52168212Y-389363D01*
X52165184Y-389546D01*
X52161991Y-389653D01*
X52158625Y-389685D01*
X52155076Y-389643D01*
X52151338Y-389530D01*
X52143257Y-389093D01*
X52134316Y-388389D01*
X52124449Y-387427D01*
X52113590Y-386222D01*
X52095845Y-383749D01*
X52078341Y-380572D01*
X52061094Y-376707D01*
X52044121Y-372172D01*
X52027439Y-366981D01*
X52011066Y-361151D01*
X51995019Y-354698D01*
X51979314Y-347637D01*
X51949001Y-331759D01*
X51920263Y-313644D01*
X51893236Y-293420D01*
X51868057Y-271217D01*
X51844863Y-247161D01*
X51834052Y-234479D01*
X51823789Y-221381D01*
X51814090Y-207885D01*
X51804973Y-194006D01*
X51796453Y-179760D01*
X51788550Y-165163D01*
X51781279Y-150231D01*
X51774657Y-134980D01*
X51768702Y-119427D01*
X51763431Y-103587D01*
X51758860Y-87476D01*
X51755008Y-71110D01*
X51751890Y-54505D01*
X51749524Y-37678D01*
X51748369Y-25811D01*
X51747809Y-14029D01*
X51747836Y-2345D01*
X51748441Y9231D01*
X51749615Y20686D01*
X51751350Y32011D01*
X51753638Y43193D01*
X51756469Y54221D01*
X51759836Y65083D01*
X51763730Y75769D01*
X51768142Y86267D01*
X51773063Y96565D01*
X51778486Y106652D01*
X51784402Y116518D01*
X51790802Y126149D01*
X51797678Y135536D01*
X51805021Y144666D01*
X51812822Y153529D01*
X51821074Y162113D01*
X51829767Y170406D01*
X51838893Y178397D01*
X51848444Y186076D01*
X51858411Y193429D01*
X51868785Y200447D01*
X51879558Y207118D01*
X51890721Y213430D01*
X51902267Y219372D01*
X51914186Y224932D01*
X51926469Y230100D01*
X51939109Y234864D01*
X51952097Y239212D01*
X51965424Y243133D01*
X51982035Y247270D01*
X52000481Y250693D01*
X52020515Y253418D01*
X52041888Y255458D01*
X52064353Y256829D01*
X52087661Y257545D01*
X52111565Y257619D01*
X52135815Y257068D01*
X52160165Y255905D01*
X52184366Y254144D01*
X52208171Y251800D01*
X52231330Y248888D01*
X52253596Y245422D01*
X52274722Y241416D01*
X52294458Y236886D01*
X52312557Y231844D01*
X52353707Y217221D01*
X52392982Y200384D01*
X52430327Y181401D01*
X52465685Y160341D01*
X52499000Y137271D01*
X52530218Y112261D01*
X52559282Y85378D01*
X52586136Y56690D01*
X52610725Y26266D01*
X52632992Y-5826D01*
X52652883Y-39518D01*
X52670340Y-74742D01*
X52685309Y-111429D01*
X52697733Y-149511D01*
X52707556Y-188921D01*
X52714724Y-229589D01*
X52716160Y-242386D01*
X52717032Y-255106D01*
X52717348Y-267736D01*
X52717116Y-280265D01*
X52716342Y-292681D01*
X52715034Y-304973D01*
X52713198Y-317130D01*
X52710843Y-329138D01*
X52707975Y-340988D01*
X52704602Y-352667D01*
X52700731Y-364163D01*
X52696368Y-375465D01*
X52686200Y-397441D01*
X52674154Y-418501D01*
X52660290Y-438553D01*
X52644664Y-457503D01*
X52627335Y-475258D01*
X52608361Y-491725D01*
X52587800Y-506811D01*
X52565708Y-520424D01*
X52542145Y-532470D01*
X52529830Y-537876D01*
X52517168Y-542856D01*
X52475006Y-556907D01*
X52430829Y-567886D01*
X52385068Y-575864D01*
X52338156Y-580912D01*
X52290524Y-583098D01*
X52242605Y-582494D01*
X52194831Y-579169D01*
X52147633Y-573195D01*
X52101445Y-564640D01*
X52056697Y-553577D01*
X52013821Y-540074D01*
X51973251Y-524203D01*
X51935417Y-506032D01*
X51900752Y-485634D01*
X51869688Y-463078D01*
X51855642Y-451012D01*
X51842657Y-438434D01*
X51796090Y-390456D01*
X51832779Y-390456D01*
X51836854Y-390700D01*
X51841629Y-391418D01*
X51847045Y-392586D01*
X51853042Y-394182D01*
X51859560Y-396183D01*
X51866538Y-398567D01*
X51873918Y-401310D01*
X51881639Y-404390D01*
X51889641Y-407785D01*
X51897864Y-411471D01*
X51906248Y-415425D01*
X51914734Y-419626D01*
X51923261Y-424050D01*
X51931769Y-428674D01*
X51940199Y-433476D01*
X51948490Y-438434D01*
X51972386Y-451842D01*
X51997438Y-464015D01*
X52023549Y-474940D01*
X52050620Y-484603D01*
X52078550Y-492993D01*
X52107240Y-500098D01*
X52136593Y-505904D01*
X52166507Y-510400D01*
X52196885Y-513573D01*
X52227626Y-515411D01*
X52258632Y-515901D01*
X52289803Y-515030D01*
X52321040Y-512788D01*
X52352245Y-509160D01*
X52383317Y-504135D01*
X52414157Y-497700D01*
X52440349Y-490773D01*
X52464941Y-482702D01*
X52487920Y-473497D01*
X52509275Y-463172D01*
X52519339Y-457593D01*
X52528992Y-451739D01*
X52538234Y-445611D01*
X52547061Y-439211D01*
X52555472Y-432539D01*
X52563467Y-425599D01*
X52571043Y-418391D01*
X52578199Y-410917D01*
X52584933Y-403178D01*
X52591244Y-395176D01*
X52597130Y-386913D01*
X52602590Y-378390D01*
X52607622Y-369608D01*
X52612225Y-360569D01*
X52616396Y-351276D01*
X52620135Y-341728D01*
X52623440Y-331929D01*
X52626310Y-321878D01*
X52628742Y-311579D01*
X52630735Y-301032D01*
X52632288Y-290239D01*
X52633400Y-279202D01*
X52634067Y-267922D01*
X52634290Y-256400D01*
X52633223Y-225935D01*
X52630049Y-195970D01*
X52624812Y-166576D01*
X52617556Y-137823D01*
X52608323Y-109780D01*
X52597158Y-82519D01*
X52584103Y-56110D01*
X52569203Y-30622D01*
X52552500Y-6127D01*
X52534038Y17306D01*
X52513861Y39606D01*
X52492011Y60703D01*
X52468532Y80527D01*
X52443468Y99007D01*
X52416862Y116073D01*
X52388757Y131655D01*
X52373073Y139653D01*
X52358663Y146751D01*
X52345284Y153009D01*
X52332687Y158489D01*
X52320629Y163249D01*
X52308861Y167349D01*
X52297139Y170851D01*
X52285217Y173812D01*
X52272848Y176295D01*
X52259787Y178357D01*
X52245787Y180060D01*
X52230602Y181463D01*
X52213988Y182627D01*
X52195697Y183610D01*
X52153102Y185278D01*
X52111782Y186501D01*
X52077872Y186865D01*
X52063240Y186663D01*
X52049914Y186171D01*
X52037713Y185364D01*
X52026454Y184219D01*
X52015956Y182710D01*
X52006037Y180813D01*
X51996515Y178502D01*
X51987208Y175753D01*
X51977934Y172540D01*
X51968511Y168840D01*
X51948490Y159878D01*
X51941817Y156262D01*
X51935057Y152321D01*
X51928256Y148089D01*
X51921459Y143606D01*
X51914711Y138907D01*
X51908059Y134031D01*
X51901547Y129014D01*
X51895221Y123894D01*
X51889127Y118708D01*
X51883309Y113493D01*
X51877814Y108286D01*
X51872687Y103125D01*
X51867974Y98046D01*
X51863719Y93087D01*
X51859969Y88285D01*
X51856768Y83678D01*
X51850813Y73005D01*
X51845638Y61914D01*
X51841231Y50441D01*
X51837578Y38621D01*
X51834666Y26492D01*
X51832481Y14088D01*
X51831012Y1447D01*
X51830244Y-11396D01*
X51830164Y-24404D01*
X51830759Y-37541D01*
X51832017Y-50772D01*
X51833923Y-64059D01*
X51836465Y-77367D01*
X51839629Y-90659D01*
X51847772Y-117053D01*
X51858247Y-142950D01*
X51870948Y-168062D01*
X51885770Y-192099D01*
X51893943Y-203624D01*
X51902607Y-214772D01*
X51911749Y-225507D01*
X51921354Y-235792D01*
X51931411Y-245591D01*
X51941906Y-254868D01*
X51952826Y-263587D01*
X51964157Y-271711D01*
X51975887Y-279206D01*
X51988002Y-286033D01*
X51996521Y-290267D01*
X52005089Y-293971D01*
X52013625Y-297146D01*
X52022045Y-299792D01*
X52030266Y-301908D01*
X52038206Y-303496D01*
X52045783Y-304554D01*
X52052913Y-305083D01*
X52059513Y-305083D01*
X52065502Y-304554D01*
X52070797Y-303496D01*
X52073158Y-302768D01*
X52075314Y-301908D01*
X52077255Y-300916D01*
X52078971Y-299792D01*
X52080452Y-298535D01*
X52081686Y-297146D01*
X52082664Y-295625D01*
X52083376Y-293971D01*
X52083810Y-292185D01*
X52083957Y-290267D01*
X52083566Y-287802D01*
X52082419Y-283644D01*
X52078004Y-270621D01*
X52071009Y-251943D01*
X52061732Y-228354D01*
X52050471Y-200598D01*
X52037523Y-169418D01*
X52023186Y-135560D01*
X52007757Y-99767D01*
X51997117Y-75778D01*
X52126290Y-75778D01*
X52126621Y-85790D01*
X52127595Y-95960D01*
X52129188Y-106259D01*
X52131373Y-116653D01*
X52134124Y-127113D01*
X52137415Y-137607D01*
X52145517Y-158570D01*
X52155470Y-179294D01*
X52167069Y-199528D01*
X52180107Y-219023D01*
X52194377Y-237527D01*
X52209671Y-254790D01*
X52225785Y-270564D01*
X52242510Y-284597D01*
X52259640Y-296639D01*
X52268293Y-301835D01*
X52276969Y-306441D01*
X52285643Y-310423D01*
X52294290Y-313751D01*
X52302882Y-316395D01*
X52311395Y-318321D01*
X52319803Y-319500D01*
X52328079Y-319900D01*
X52338749Y-319647D01*
X52348551Y-318867D01*
X52353135Y-318269D01*
X52357510Y-317528D01*
X52361681Y-316640D01*
X52365650Y-315601D01*
X52369421Y-314406D01*
X52372996Y-313053D01*
X52376380Y-311537D01*
X52379574Y-309854D01*
X52382582Y-308001D01*
X52385407Y-305973D01*
X52388052Y-303767D01*
X52390521Y-301379D01*
X52392816Y-298805D01*
X52394940Y-296041D01*
X52396897Y-293083D01*
X52398690Y-289928D01*
X52400321Y-286571D01*
X52401795Y-283008D01*
X52403113Y-279237D01*
X52404279Y-275252D01*
X52405297Y-271050D01*
X52406169Y-266627D01*
X52406898Y-261979D01*
X52407487Y-257103D01*
X52408260Y-246649D01*
X52408513Y-235233D01*
X52407908Y-220352D01*
X52406386Y-205631D01*
X52403989Y-191104D01*
X52400760Y-176807D01*
X52396740Y-162776D01*
X52391971Y-149046D01*
X52386496Y-135653D01*
X52380357Y-122631D01*
X52373595Y-110017D01*
X52366253Y-97845D01*
X52358374Y-86151D01*
X52349998Y-74970D01*
X52341169Y-64339D01*
X52331929Y-54291D01*
X52322318Y-44863D01*
X52312381Y-36090D01*
X52302158Y-28008D01*
X52291692Y-20651D01*
X52281025Y-14056D01*
X52270199Y-8257D01*
X52259256Y-3290D01*
X52248239Y810D01*
X52237189Y4006D01*
X52226149Y6265D01*
X52215160Y7550D01*
X52204265Y7826D01*
X52193506Y7058D01*
X52182925Y5209D01*
X52172564Y2246D01*
X52162466Y-1868D01*
X52152671Y-7168D01*
X52143224Y-13689D01*
X52142430Y-14412D01*
X52141638Y-15254D01*
X52140849Y-16213D01*
X52140065Y-17283D01*
X52138517Y-19741D01*
X52137006Y-22597D01*
X52135545Y-25816D01*
X52134145Y-29366D01*
X52132820Y-33213D01*
X52131582Y-37325D01*
X52130443Y-41669D01*
X52129416Y-46211D01*
X52128513Y-50918D01*
X52127746Y-55758D01*
X52127128Y-60697D01*
X52126671Y-65702D01*
X52126388Y-70740D01*
X52126290Y-75778D01*
X51997117Y-75778D01*
X51930146Y75211D01*
X51979535Y75211D01*
X51984855Y75081D01*
X51990212Y74698D01*
X51995577Y74076D01*
X52000922Y73227D01*
X52006217Y72162D01*
X52011434Y70895D01*
X52016543Y69438D01*
X52021515Y67803D01*
X52026323Y66002D01*
X52030936Y64049D01*
X52035325Y61955D01*
X52039463Y59733D01*
X52043319Y57395D01*
X52046866Y54954D01*
X52050073Y52422D01*
X52052913Y49811D01*
X52057407Y45346D01*
X52061421Y41477D01*
X52065033Y38202D01*
X52066714Y36789D01*
X52068325Y35524D01*
X52069876Y34407D01*
X52071377Y33440D01*
X52072838Y32621D01*
X52074269Y31952D01*
X52075681Y31431D01*
X52077084Y31059D01*
X52078487Y30835D01*
X52079900Y30761D01*
X52081334Y30835D01*
X52082799Y31059D01*
X52084305Y31431D01*
X52085861Y31952D01*
X52087479Y32621D01*
X52089168Y33440D01*
X52090938Y34407D01*
X52092799Y35524D01*
X52094761Y36789D01*
X52096834Y38202D01*
X52101356Y41477D01*
X52106444Y45346D01*
X52112179Y49811D01*
X52115812Y52422D01*
X52119814Y54954D01*
X52124154Y57395D01*
X52128804Y59733D01*
X52133735Y61955D01*
X52138919Y64049D01*
X52144325Y66002D01*
X52149926Y67803D01*
X52155693Y69438D01*
X52161596Y70895D01*
X52167606Y72162D01*
X52173695Y73227D01*
X52179833Y74076D01*
X52185993Y74698D01*
X52192143Y75081D01*
X52198257Y75211D01*
X52212961Y74745D01*
X52227684Y73365D01*
X52242395Y71103D01*
X52257063Y67987D01*
X52271658Y64048D01*
X52286149Y59314D01*
X52300505Y53816D01*
X52314696Y47584D01*
X52328690Y40647D01*
X52342457Y33034D01*
X52355966Y24777D01*
X52369186Y15903D01*
X52382087Y6443D01*
X52394638Y-3572D01*
X52406808Y-14115D01*
X52418567Y-25154D01*
X52429883Y-36661D01*
X52440726Y-48605D01*
X52451065Y-60956D01*
X52460870Y-73686D01*
X52470109Y-86764D01*
X52478752Y-100161D01*
X52486769Y-113846D01*
X52494127Y-127791D01*
X52500798Y-141965D01*
X52506749Y-156338D01*
X52511951Y-170882D01*
X52516372Y-185566D01*
X52519981Y-200361D01*
X52522749Y-215236D01*
X52524644Y-230163D01*
X52524980Y-235233D01*
X52525635Y-245111D01*
G37*
G36*
X51468046Y372049D02*
G01*
X51482160Y370867D01*
X51495303Y369009D01*
X51507107Y366465D01*
X51512391Y364932D01*
X51517203Y363224D01*
X51521496Y361339D01*
X51525224Y359276D01*
X51528341Y357034D01*
X51530802Y354611D01*
X51541239Y318305D01*
X51560854Y232704D01*
X51614586Y-22685D01*
X51665937Y-284159D01*
X51682576Y-377367D01*
X51688846Y-424322D01*
X51688753Y-426125D01*
X51688631Y-426990D01*
X51688453Y-427831D01*
X51688215Y-428649D01*
X51687911Y-429444D01*
X51687539Y-430215D01*
X51687093Y-430964D01*
X51686570Y-431691D01*
X51685965Y-432396D01*
X51685274Y-433080D01*
X51684493Y-433742D01*
X51683617Y-434383D01*
X51682642Y-435004D01*
X51681564Y-435604D01*
X51680379Y-436184D01*
X51679083Y-436745D01*
X51677670Y-437287D01*
X51674480Y-438313D01*
X51670775Y-439266D01*
X51666522Y-440148D01*
X51661685Y-440962D01*
X51656232Y-441710D01*
X51650127Y-442395D01*
X51643338Y-443020D01*
X51635829Y-443586D01*
X51627566Y-444098D01*
X51618516Y-444557D01*
X51608644Y-444965D01*
X51597917Y-445326D01*
X51586299Y-445643D01*
X51560258Y-446150D01*
X51530249Y-446509D01*
X51495998Y-446740D01*
X51457232Y-446864D01*
X51413679Y-446900D01*
X51313094Y-447041D01*
X51239231Y-446437D01*
X51210997Y-445376D01*
X51187857Y-443552D01*
X51169282Y-440772D01*
X51154740Y-436846D01*
X51148818Y-434392D01*
X51143705Y-431580D01*
X51139337Y-428385D01*
X51135646Y-424783D01*
X51132568Y-420749D01*
X51130035Y-416261D01*
X51126342Y-405824D01*
X51124038Y-393278D01*
X51122594Y-378431D01*
X51120168Y-341067D01*
X51117346Y-298733D01*
X51289501Y-294500D01*
X51333017Y-293301D01*
X51369604Y-291788D01*
X51399609Y-289911D01*
X51423381Y-287621D01*
X51441265Y-284868D01*
X51448108Y-283302D01*
X51453609Y-281602D01*
X51457813Y-279761D01*
X51460761Y-277773D01*
X51462499Y-275633D01*
X51463068Y-273333D01*
X51461856Y-263817D01*
X51458394Y-243502D01*
X51445782Y-175438D01*
X51405213Y35700D01*
X51382988Y150926D01*
X51366054Y248425D01*
X51360068Y287302D01*
X51356000Y317878D01*
X51354049Y338863D01*
X51353929Y345355D01*
X51354413Y348967D01*
X51355848Y351542D01*
X51358006Y353975D01*
X51360841Y356266D01*
X51364307Y358412D01*
X51368358Y360412D01*
X51372948Y362265D01*
X51383561Y365525D01*
X51395778Y368182D01*
X51409231Y370224D01*
X51423552Y371643D01*
X51438374Y372426D01*
X51453327Y372565D01*
X51468046Y372049D01*
G37*
G36*
X52828852Y370509D02*
G01*
X52842785Y369786D01*
X52855829Y368675D01*
X52867631Y367179D01*
X52877837Y365303D01*
X52886094Y363050D01*
X52889381Y361784D01*
X52892048Y360426D01*
X52894051Y358975D01*
X52895346Y357433D01*
X52896383Y354859D01*
X52897884Y349868D01*
X52902159Y333158D01*
X52907922Y308345D01*
X52914925Y276471D01*
X52922921Y238577D01*
X52931660Y195707D01*
X52940896Y148900D01*
X52950379Y99200D01*
X52970336Y-2144D01*
X52987267Y-83429D01*
X53001849Y-147086D01*
X53014761Y-195546D01*
X53020803Y-214837D01*
X53026681Y-231240D01*
X53032481Y-245059D01*
X53038287Y-256599D01*
X53044184Y-266162D01*
X53050257Y-274053D01*
X53056590Y-280575D01*
X53063268Y-286033D01*
X53067839Y-288960D01*
X53072549Y-291657D01*
X53077388Y-294122D01*
X53082346Y-296358D01*
X53087414Y-298364D01*
X53092581Y-300141D01*
X53103176Y-303011D01*
X53114052Y-304971D01*
X53125131Y-306026D01*
X53136334Y-306180D01*
X53147582Y-305436D01*
X53158797Y-303800D01*
X53169901Y-301275D01*
X53180814Y-297865D01*
X53191459Y-293574D01*
X53201756Y-288407D01*
X53206750Y-285496D01*
X53211628Y-282368D01*
X53216379Y-279022D01*
X53220995Y-275460D01*
X53225465Y-271682D01*
X53229779Y-267689D01*
X53269290Y-229589D01*
X53328557Y-263456D01*
X53357427Y-279044D01*
X53369017Y-285631D01*
X53378806Y-291590D01*
X53386867Y-297052D01*
X53390272Y-299639D01*
X53393273Y-302151D01*
X53395877Y-304605D01*
X53398095Y-307018D01*
X53399935Y-309406D01*
X53401406Y-311786D01*
X53402517Y-314174D01*
X53403278Y-316587D01*
X53403697Y-319042D01*
X53403784Y-321554D01*
X53403547Y-324140D01*
X53402996Y-326818D01*
X53402140Y-329603D01*
X53400987Y-332512D01*
X53397828Y-338768D01*
X53393592Y-345719D01*
X53388352Y-353497D01*
X53382179Y-362233D01*
X53373839Y-373036D01*
X53364722Y-383215D01*
X53354867Y-392771D01*
X53344316Y-401700D01*
X53333110Y-410001D01*
X53321290Y-417672D01*
X53308896Y-424710D01*
X53295969Y-431113D01*
X53282551Y-436880D01*
X53268681Y-442008D01*
X53254400Y-446495D01*
X53239751Y-450340D01*
X53224772Y-453539D01*
X53209506Y-456092D01*
X53193993Y-457995D01*
X53178274Y-459247D01*
X53162389Y-459846D01*
X53146380Y-459790D01*
X53130287Y-459077D01*
X53114151Y-457704D01*
X53098013Y-455670D01*
X53081914Y-452972D01*
X53065894Y-449608D01*
X53049995Y-445577D01*
X53034257Y-440876D01*
X53018721Y-435504D01*
X53003428Y-429457D01*
X52988419Y-422735D01*
X52973734Y-415334D01*
X52959414Y-407254D01*
X52945501Y-398491D01*
X52932035Y-389045D01*
X52925141Y-383784D01*
X52918475Y-378300D01*
X52912023Y-372557D01*
X52905772Y-366522D01*
X52899711Y-360160D01*
X52893826Y-353437D01*
X52888105Y-346320D01*
X52882536Y-338774D01*
X52877104Y-330764D01*
X52871799Y-322258D01*
X52866607Y-313220D01*
X52861515Y-303617D01*
X52856511Y-293415D01*
X52851583Y-282579D01*
X52846716Y-271075D01*
X52841900Y-258870D01*
X52832367Y-232217D01*
X52822880Y-202348D01*
X52813341Y-168990D01*
X52803646Y-131870D01*
X52793695Y-90714D01*
X52783386Y-45252D01*
X52772618Y4792D01*
X52761290Y59689D01*
X52733289Y202872D01*
X52724232Y253810D01*
X52718252Y292875D01*
X52715181Y321488D01*
X52714686Y332321D01*
X52714856Y341073D01*
X52715671Y347924D01*
X52717111Y353051D01*
X52719153Y356632D01*
X52721779Y358844D01*
X52724484Y360378D01*
X52727806Y361805D01*
X52736125Y364340D01*
X52746382Y366453D01*
X52758226Y368149D01*
X52771301Y369431D01*
X52785255Y370304D01*
X52799733Y370772D01*
X52814383Y370839D01*
X52828852Y370509D01*
G37*
G36*
X50516516Y383349D02*
G01*
X50533364Y382590D01*
X50549506Y381444D01*
X50564705Y379910D01*
X50578726Y377985D01*
X50591333Y375668D01*
X50602290Y372956D01*
X50631243Y362770D01*
X50659812Y350805D01*
X50687882Y337165D01*
X50715334Y321957D01*
X50742049Y305285D01*
X50767911Y287255D01*
X50792802Y267973D01*
X50816603Y247543D01*
X50839197Y226071D01*
X50860466Y203663D01*
X50880292Y180425D01*
X50898558Y156460D01*
X50915145Y131876D01*
X50929935Y106776D01*
X50942812Y81268D01*
X50953657Y55455D01*
X50960171Y36169D01*
X50965952Y15997D01*
X50970992Y-4891D01*
X50975287Y-26323D01*
X50978829Y-48127D01*
X50981612Y-70131D01*
X50983630Y-92164D01*
X50984878Y-114054D01*
X50985348Y-135631D01*
X50985035Y-156721D01*
X50983932Y-177154D01*
X50982034Y-196759D01*
X50979333Y-215362D01*
X50975824Y-232794D01*
X50971501Y-248883D01*
X50966357Y-263456D01*
X50960489Y-276357D01*
X50954011Y-288863D01*
X50946937Y-300965D01*
X50939287Y-312657D01*
X50931076Y-323932D01*
X50922323Y-334782D01*
X50913043Y-345199D01*
X50903254Y-355178D01*
X50892973Y-364710D01*
X50882217Y-373788D01*
X50871004Y-382406D01*
X50859350Y-390555D01*
X50847272Y-398229D01*
X50834787Y-405420D01*
X50821912Y-412121D01*
X50808665Y-418325D01*
X50795063Y-424025D01*
X50781122Y-429213D01*
X50766859Y-433882D01*
X50752293Y-438026D01*
X50737438Y-441635D01*
X50722314Y-444705D01*
X50706936Y-447227D01*
X50691323Y-449193D01*
X50675490Y-450598D01*
X50659455Y-451432D01*
X50643235Y-451691D01*
X50626847Y-451365D01*
X50610308Y-450448D01*
X50593636Y-448933D01*
X50576846Y-446812D01*
X50559957Y-444078D01*
X50545407Y-441200D01*
X50529941Y-437394D01*
X50513768Y-432758D01*
X50497096Y-427387D01*
X50480136Y-421380D01*
X50463095Y-414833D01*
X50446182Y-407844D01*
X50429606Y-400510D01*
X50413575Y-392928D01*
X50398299Y-385194D01*
X50383987Y-377407D01*
X50370846Y-369664D01*
X50359086Y-362061D01*
X50348916Y-354696D01*
X50340544Y-347665D01*
X50334179Y-341067D01*
X50333435Y-340104D01*
X50332791Y-339066D01*
X50332247Y-337955D01*
X50331804Y-336770D01*
X50331462Y-335512D01*
X50331221Y-334180D01*
X50331083Y-332776D01*
X50331048Y-331299D01*
X50331117Y-329750D01*
X50331289Y-328129D01*
X50331565Y-326436D01*
X50331947Y-324671D01*
X50332434Y-322835D01*
X50333027Y-320928D01*
X50333726Y-318950D01*
X50334532Y-316901D01*
X50335446Y-314783D01*
X50336468Y-312594D01*
X50337598Y-310336D01*
X50338837Y-308008D01*
X50341645Y-303144D01*
X50344895Y-298006D01*
X50348591Y-292595D01*
X50352739Y-286913D01*
X50357341Y-280962D01*
X50362401Y-274744D01*
X50404735Y-223945D01*
X50465413Y-256400D01*
X50480557Y-264318D01*
X50495550Y-271409D01*
X50510374Y-277679D01*
X50525010Y-283137D01*
X50539439Y-287789D01*
X50553643Y-291644D01*
X50567603Y-294709D01*
X50581300Y-296992D01*
X50594716Y-298499D01*
X50607833Y-299238D01*
X50620631Y-299217D01*
X50633092Y-298444D01*
X50645198Y-296926D01*
X50656930Y-294669D01*
X50668268Y-291683D01*
X50679196Y-287974D01*
X50689694Y-283549D01*
X50699743Y-278417D01*
X50709324Y-272585D01*
X50718420Y-266060D01*
X50727012Y-258850D01*
X50735081Y-250962D01*
X50742608Y-242404D01*
X50749575Y-233183D01*
X50755963Y-223307D01*
X50761754Y-212783D01*
X50766929Y-201619D01*
X50771469Y-189822D01*
X50775356Y-177399D01*
X50778572Y-164359D01*
X50781097Y-150709D01*
X50782913Y-136456D01*
X50784330Y-110468D01*
X50783863Y-84457D01*
X50781582Y-58566D01*
X50777555Y-32937D01*
X50771849Y-7714D01*
X50764532Y16961D01*
X50755674Y40946D01*
X50745342Y64099D01*
X50733604Y86275D01*
X50720529Y107333D01*
X50706184Y127130D01*
X50690639Y145524D01*
X50673961Y162372D01*
X50656218Y177530D01*
X50637480Y190858D01*
X50617812Y202211D01*
X50603416Y208908D01*
X50588364Y214713D01*
X50572795Y219624D01*
X50556848Y223642D01*
X50540661Y226768D01*
X50524373Y229000D01*
X50508122Y230340D01*
X50492047Y230786D01*
X50476286Y230340D01*
X50460978Y229000D01*
X50446261Y226768D01*
X50432273Y223642D01*
X50419154Y219624D01*
X50407042Y214713D01*
X50396074Y208908D01*
X50391063Y205671D01*
X50386390Y202211D01*
X50378946Y196542D01*
X50371552Y191253D01*
X50364389Y186460D01*
X50357639Y182279D01*
X50354476Y180454D01*
X50351485Y178826D01*
X50348688Y177408D01*
X50346108Y176216D01*
X50343767Y175263D01*
X50341690Y174565D01*
X50339897Y174135D01*
X50338413Y173989D01*
X50337686Y174059D01*
X50336831Y174266D01*
X50335852Y174607D01*
X50334753Y175080D01*
X50332212Y176407D01*
X50329240Y178222D01*
X50325873Y180500D01*
X50322141Y183216D01*
X50318078Y186346D01*
X50313718Y189864D01*
X50309093Y193746D01*
X50304237Y197967D01*
X50299183Y202502D01*
X50293963Y207326D01*
X50288610Y212415D01*
X50283159Y217744D01*
X50277641Y223288D01*
X50272090Y229022D01*
X50218468Y284056D01*
X50266446Y317922D01*
X50271399Y321656D01*
X50276701Y325432D01*
X50282305Y329230D01*
X50288164Y333025D01*
X50300453Y340519D01*
X50313189Y347732D01*
X50325991Y354481D01*
X50338479Y360586D01*
X50350272Y365864D01*
X50355789Y368136D01*
X50360990Y370133D01*
X50371948Y373126D01*
X50384555Y375753D01*
X50398576Y378012D01*
X50413775Y379901D01*
X50429916Y381418D01*
X50446765Y382560D01*
X50464085Y383327D01*
X50481640Y383715D01*
X50499196Y383723D01*
X50516516Y383349D01*
G37*
G36*
X43634400Y-255342D02*
G01*
X43720754Y-636150D01*
X43738756Y-715540D01*
X43771645Y-869407D01*
X43782390Y-932322D01*
X43781494Y-934125D01*
X43780360Y-935831D01*
X43778942Y-937444D01*
X43777192Y-938964D01*
X43775065Y-940396D01*
X43772512Y-941742D01*
X43769487Y-943004D01*
X43765942Y-944184D01*
X43761831Y-945287D01*
X43757107Y-946313D01*
X43751722Y-947266D01*
X43745630Y-948148D01*
X43738783Y-948962D01*
X43731135Y-949710D01*
X43722638Y-950395D01*
X43713246Y-951020D01*
X43702911Y-951586D01*
X43691587Y-952098D01*
X43665781Y-952965D01*
X43635452Y-953643D01*
X43600225Y-954151D01*
X43559722Y-954509D01*
X43513568Y-954740D01*
X43402801Y-954900D01*
X43260723Y-954211D01*
X43144855Y-951769D01*
X43050848Y-947012D01*
X43010683Y-943590D01*
X42974353Y-939378D01*
X42941313Y-934306D01*
X42911021Y-928304D01*
X42882932Y-921301D01*
X42856503Y-913228D01*
X42831190Y-904014D01*
X42806450Y-893588D01*
X42756513Y-868822D01*
X42741507Y-860572D01*
X42726918Y-851963D01*
X42712750Y-843004D01*
X42699007Y-833699D01*
X42685693Y-824055D01*
X42672812Y-814078D01*
X42660368Y-803775D01*
X42648364Y-793151D01*
X42636805Y-782214D01*
X42625694Y-770968D01*
X42615035Y-759420D01*
X42604832Y-747577D01*
X42595089Y-735444D01*
X42585810Y-723029D01*
X42576998Y-710336D01*
X42568658Y-697372D01*
X42560794Y-684144D01*
X42553409Y-670658D01*
X42546507Y-656919D01*
X42540092Y-642934D01*
X42534168Y-628710D01*
X42528738Y-614252D01*
X42523808Y-599566D01*
X42519380Y-584660D01*
X42515458Y-569538D01*
X42512047Y-554208D01*
X42509150Y-538675D01*
X42506771Y-522946D01*
X42504914Y-507026D01*
X42504259Y-499111D01*
X42883512Y-499111D01*
X42883777Y-509662D01*
X42884575Y-519883D01*
X42885907Y-529778D01*
X42887779Y-539347D01*
X42890191Y-548593D01*
X42893149Y-557517D01*
X42896654Y-566121D01*
X42900710Y-574407D01*
X42905320Y-582377D01*
X42910487Y-590032D01*
X42916215Y-597375D01*
X42922505Y-604407D01*
X42929362Y-611130D01*
X42936789Y-617546D01*
X42944788Y-623656D01*
X42953362Y-629463D01*
X42962516Y-634967D01*
X42972251Y-640172D01*
X42982571Y-645079D01*
X42993480Y-649689D01*
X43004979Y-654005D01*
X43017073Y-658028D01*
X43029764Y-661760D01*
X43043056Y-665203D01*
X43056951Y-668359D01*
X43071453Y-671229D01*
X43086565Y-673816D01*
X43102289Y-676120D01*
X43118630Y-678145D01*
X43135590Y-679891D01*
X43171378Y-682556D01*
X43205948Y-684264D01*
X43234945Y-685113D01*
X43259014Y-685036D01*
X43269402Y-684630D01*
X43278800Y-683967D01*
X43287288Y-683039D01*
X43294948Y-681839D01*
X43301859Y-680358D01*
X43308102Y-678587D01*
X43313759Y-676518D01*
X43318909Y-674144D01*
X43323633Y-671455D01*
X43328012Y-668444D01*
X43332724Y-664670D01*
X43334841Y-662888D01*
X43336799Y-661138D01*
X43338595Y-659394D01*
X43340229Y-657627D01*
X43341699Y-655809D01*
X43343005Y-653914D01*
X43344146Y-651914D01*
X43345121Y-649781D01*
X43345545Y-648655D01*
X43345928Y-647487D01*
X43346566Y-645004D01*
X43347035Y-642306D01*
X43347334Y-639363D01*
X43347461Y-636150D01*
X43347415Y-632638D01*
X43347196Y-628799D01*
X43346802Y-624605D01*
X43346232Y-620030D01*
X43345486Y-615046D01*
X43344562Y-609624D01*
X43343459Y-603737D01*
X43342176Y-597358D01*
X43340712Y-590459D01*
X43337238Y-574989D01*
X43333028Y-557107D01*
X43328074Y-536592D01*
X43322368Y-513222D01*
X43315792Y-485799D01*
X43308918Y-459997D01*
X43301978Y-436377D01*
X43295204Y-415503D01*
X43288826Y-397936D01*
X43283077Y-384238D01*
X43280511Y-379016D01*
X43278188Y-374972D01*
X43276139Y-372177D01*
X43274391Y-370700D01*
X43267657Y-368964D01*
X43257297Y-367459D01*
X43227603Y-365144D01*
X43189112Y-363755D01*
X43145626Y-363292D01*
X43100950Y-363755D01*
X43058887Y-365144D01*
X43023240Y-367459D01*
X43009011Y-368964D01*
X42997813Y-370700D01*
X42991401Y-372130D01*
X42985135Y-373770D01*
X42979016Y-375616D01*
X42973049Y-377665D01*
X42967239Y-379910D01*
X42961589Y-382349D01*
X42956102Y-384976D01*
X42950783Y-387788D01*
X42945636Y-390779D01*
X42940664Y-393946D01*
X42935871Y-397284D01*
X42931262Y-400788D01*
X42926839Y-404455D01*
X42922608Y-408280D01*
X42918571Y-412258D01*
X42914733Y-416385D01*
X42911098Y-420657D01*
X42907669Y-425069D01*
X42904451Y-429617D01*
X42901446Y-434297D01*
X42898660Y-439103D01*
X42896096Y-444033D01*
X42893757Y-449081D01*
X42891648Y-454242D01*
X42889773Y-459514D01*
X42888135Y-464890D01*
X42886739Y-470367D01*
X42885588Y-475941D01*
X42884685Y-481606D01*
X42884036Y-487360D01*
X42883644Y-493196D01*
X42883512Y-499111D01*
X42504259Y-499111D01*
X42503582Y-490923D01*
X42502781Y-474642D01*
X42502513Y-458189D01*
X42502694Y-429945D01*
X42503052Y-418154D01*
X42503703Y-407654D01*
X42504735Y-398244D01*
X42506233Y-389728D01*
X42507185Y-385743D01*
X42508286Y-381906D01*
X42509547Y-378194D01*
X42510979Y-374581D01*
X42512593Y-371042D01*
X42514400Y-367553D01*
X42516411Y-364088D01*
X42518636Y-360624D01*
X42523772Y-353596D01*
X42529897Y-346270D01*
X42537096Y-338448D01*
X42545458Y-329932D01*
X42566012Y-310022D01*
X42572653Y-303760D01*
X42579316Y-297692D01*
X42585959Y-291847D01*
X42592537Y-286254D01*
X42605328Y-275941D01*
X42611454Y-271278D01*
X42617342Y-266983D01*
X42622949Y-263086D01*
X42628231Y-259614D01*
X42633146Y-256596D01*
X42637649Y-254063D01*
X42641697Y-252042D01*
X42645247Y-250563D01*
X42648256Y-249654D01*
X42650679Y-249345D01*
X42654214Y-249283D01*
X42657413Y-249100D01*
X42660277Y-248799D01*
X42662809Y-248383D01*
X42665011Y-247853D01*
X42666886Y-247214D01*
X42668436Y-246468D01*
X42669663Y-245618D01*
X42670570Y-244667D01*
X42670904Y-244154D01*
X42671159Y-243617D01*
X42671335Y-243056D01*
X42671432Y-242472D01*
X42671391Y-241233D01*
X42671040Y-239905D01*
X42670380Y-238490D01*
X42669413Y-236991D01*
X42668142Y-235410D01*
X42666569Y-233750D01*
X42664697Y-232015D01*
X42662528Y-230207D01*
X42660064Y-228329D01*
X42657307Y-226384D01*
X42654261Y-224375D01*
X42650926Y-222304D01*
X42647306Y-220174D01*
X42643403Y-217989D01*
X42639219Y-215750D01*
X42634756Y-213462D01*
X42630017Y-211126D01*
X42619720Y-206324D01*
X42608346Y-201367D01*
X42595892Y-196001D01*
X42583675Y-189973D01*
X42571707Y-183308D01*
X42560002Y-176030D01*
X42548572Y-168164D01*
X42537432Y-159735D01*
X42526595Y-150767D01*
X42516072Y-141284D01*
X42505879Y-131312D01*
X42496027Y-120874D01*
X42486530Y-109995D01*
X42477402Y-98700D01*
X42468655Y-87013D01*
X42460302Y-74960D01*
X42452357Y-62563D01*
X42444834Y-49849D01*
X42437744Y-36841D01*
X42431101Y-23564D01*
X42424919Y-10042D01*
X42419210Y3699D01*
X42413989Y17636D01*
X42409267Y31743D01*
X42405058Y45997D01*
X42403014Y53978D01*
X42785041Y53978D01*
X42785640Y44529D01*
X42786883Y35019D01*
X42788759Y25481D01*
X42791261Y15944D01*
X42794379Y6441D01*
X42798103Y-2998D01*
X42802426Y-12342D01*
X42807337Y-21560D01*
X42812828Y-30621D01*
X42818890Y-39494D01*
X42825514Y-48148D01*
X42832690Y-56551D01*
X42840410Y-64674D01*
X42848665Y-72484D01*
X42857445Y-79952D01*
X42866742Y-87045D01*
X42876546Y-93733D01*
X42886848Y-99984D01*
X42897640Y-105769D01*
X42908913Y-111056D01*
X42923902Y-116969D01*
X42941583Y-122513D01*
X42961505Y-127647D01*
X42983216Y-132333D01*
X43006267Y-136530D01*
X43030207Y-140201D01*
X43054586Y-143306D01*
X43078951Y-145804D01*
X43102854Y-147658D01*
X43125843Y-148828D01*
X43147468Y-149274D01*
X43167278Y-148957D01*
X43184822Y-147839D01*
X43199651Y-145879D01*
X43211313Y-143038D01*
X43215815Y-141275D01*
X43219357Y-139278D01*
X43220754Y-138288D01*
X43222034Y-137162D01*
X43223197Y-135887D01*
X43224241Y-134452D01*
X43225164Y-132844D01*
X43225967Y-131052D01*
X43226648Y-129063D01*
X43227206Y-126865D01*
X43227640Y-124445D01*
X43227949Y-121792D01*
X43228132Y-118894D01*
X43228187Y-115738D01*
X43228115Y-112313D01*
X43227913Y-108605D01*
X43227581Y-104604D01*
X43227118Y-100296D01*
X43226522Y-95670D01*
X43225793Y-90713D01*
X43223932Y-79760D01*
X43221524Y-67340D01*
X43218563Y-53354D01*
X43215039Y-37707D01*
X43210945Y-20301D01*
X43206272Y-1038D01*
X43201012Y20178D01*
X43185623Y77813D01*
X43172085Y126717D01*
X43161722Y161862D01*
X43158145Y172704D01*
X43155857Y178222D01*
X43155284Y178871D01*
X43154364Y179495D01*
X43153107Y180094D01*
X43151522Y180667D01*
X43147402Y181735D01*
X43142077Y182698D01*
X43135619Y183553D01*
X43128100Y184299D01*
X43119594Y184934D01*
X43110172Y185454D01*
X43099907Y185859D01*
X43088870Y186146D01*
X43064774Y186358D01*
X43038462Y186074D01*
X43010513Y185278D01*
X42971327Y183996D01*
X42938855Y182169D01*
X42924836Y181004D01*
X42912137Y179647D01*
X42900637Y178079D01*
X42890215Y176282D01*
X42880753Y174236D01*
X42872130Y171924D01*
X42864226Y169327D01*
X42856922Y166426D01*
X42850097Y163203D01*
X42843632Y159638D01*
X42837407Y155714D01*
X42831302Y151411D01*
X42823478Y145099D01*
X42816407Y138355D01*
X42810078Y131211D01*
X42804482Y123696D01*
X42799611Y115842D01*
X42795456Y107680D01*
X42792006Y99242D01*
X42789255Y90557D01*
X42787191Y81657D01*
X42785807Y72573D01*
X42785093Y63337D01*
X42785041Y53978D01*
X42403014Y53978D01*
X42401376Y60372D01*
X42398233Y74845D01*
X42395643Y89390D01*
X42393619Y103983D01*
X42392174Y118600D01*
X42391321Y133216D01*
X42391073Y147806D01*
X42391444Y162346D01*
X42392447Y176811D01*
X42394015Y189963D01*
X42396082Y202701D01*
X42398657Y215032D01*
X42401751Y226963D01*
X42405374Y238503D01*
X42409537Y249659D01*
X42414249Y260438D01*
X42419522Y270848D01*
X42425365Y280897D01*
X42431789Y290591D01*
X42438804Y299938D01*
X42446421Y308946D01*
X42454650Y317622D01*
X42463500Y325974D01*
X42472984Y334009D01*
X42483110Y341735D01*
X42493889Y349159D01*
X42505332Y356288D01*
X42517449Y363131D01*
X42530250Y369695D01*
X42543745Y375987D01*
X42557945Y382014D01*
X42572861Y387785D01*
X42588502Y393306D01*
X42604879Y398586D01*
X42622002Y403631D01*
X42658528Y413048D01*
X42698164Y421618D01*
X42740990Y429400D01*
X42798953Y434557D01*
X42893016Y438374D01*
X43009799Y440835D01*
X43135925Y441924D01*
X43258017Y441623D01*
X43362695Y439917D01*
X43436583Y436789D01*
X43457799Y434686D01*
X43466302Y432222D01*
X43485845Y364676D01*
X43525017Y207503D01*
X43601408Y-115738D01*
X43634400Y-255342D01*
G37*
G36*
X46386067Y-254813D02*
G01*
X46490423Y-715342D01*
X46523311Y-869349D01*
X46534057Y-932322D01*
X46533331Y-934001D01*
X46532465Y-935599D01*
X46531444Y-937118D01*
X46530253Y-938559D01*
X46528876Y-939925D01*
X46527297Y-941218D01*
X46525502Y-942439D01*
X46523473Y-943589D01*
X46521197Y-944672D01*
X46518657Y-945688D01*
X46515838Y-946639D01*
X46512725Y-947528D01*
X46509301Y-948355D01*
X46505552Y-949124D01*
X46501462Y-949835D01*
X46497015Y-950490D01*
X46492196Y-951092D01*
X46486990Y-951642D01*
X46481380Y-952142D01*
X46475352Y-952593D01*
X46461978Y-953358D01*
X46446744Y-953952D01*
X46429526Y-954389D01*
X46410199Y-954682D01*
X46388639Y-954848D01*
X46364723Y-954900D01*
X46325140Y-954633D01*
X46290949Y-953820D01*
X46261982Y-952445D01*
X46238076Y-950490D01*
X46219065Y-947941D01*
X46211343Y-946438D01*
X46204783Y-944780D01*
X46199364Y-942965D01*
X46195065Y-940990D01*
X46191866Y-938855D01*
X46189746Y-936556D01*
X46187949Y-933961D01*
X46185752Y-929428D01*
X46183188Y-923068D01*
X46180287Y-914992D01*
X46173598Y-894140D01*
X46165933Y-867764D01*
X46157541Y-836758D01*
X46148669Y-802015D01*
X46139566Y-764428D01*
X46130479Y-724889D01*
X46083913Y-531567D01*
X45892002Y-531567D01*
X45837160Y-530998D01*
X45785256Y-529265D01*
X45736151Y-526330D01*
X45689705Y-522152D01*
X45645782Y-516693D01*
X45604242Y-509912D01*
X45564947Y-501772D01*
X45527758Y-492232D01*
X45492537Y-481254D01*
X45459146Y-468797D01*
X45427445Y-454823D01*
X45397297Y-439293D01*
X45368562Y-422167D01*
X45341103Y-403407D01*
X45314781Y-382971D01*
X45289457Y-360822D01*
X45269877Y-341365D01*
X45250886Y-319658D01*
X45232577Y-295933D01*
X45215043Y-270423D01*
X45198377Y-243358D01*
X45182673Y-214971D01*
X45168023Y-185492D01*
X45154520Y-155153D01*
X45142257Y-124186D01*
X45131327Y-92821D01*
X45121824Y-61292D01*
X45113840Y-29829D01*
X45109963Y-10867D01*
X45494068Y-10867D01*
X45494157Y-21035D01*
X45494446Y-30432D01*
X45494971Y-39147D01*
X45495766Y-47269D01*
X45496867Y-54886D01*
X45498310Y-62088D01*
X45500129Y-68964D01*
X45502359Y-75601D01*
X45505035Y-82090D01*
X45508193Y-88519D01*
X45511868Y-94977D01*
X45516095Y-101553D01*
X45520909Y-108335D01*
X45526345Y-115413D01*
X45532438Y-122875D01*
X45539224Y-130811D01*
X45551061Y-143688D01*
X45562876Y-155373D01*
X45568832Y-160790D01*
X45574850Y-165935D01*
X45580950Y-170814D01*
X45587157Y-175438D01*
X45593492Y-179813D01*
X45599978Y-183948D01*
X45606636Y-187852D01*
X45613489Y-191533D01*
X45620559Y-194999D01*
X45627868Y-198258D01*
X45635439Y-201319D01*
X45643293Y-204189D01*
X45651453Y-206878D01*
X45659942Y-209392D01*
X45668781Y-211742D01*
X45677992Y-213934D01*
X45697621Y-217881D01*
X45719008Y-221299D01*
X45742329Y-224253D01*
X45767763Y-226811D01*
X45795487Y-229038D01*
X45825679Y-231000D01*
X45889849Y-234528D01*
X45915674Y-235564D01*
X45937664Y-235939D01*
X45956074Y-235520D01*
X45971159Y-234175D01*
X45977533Y-233114D01*
X45983171Y-231772D01*
X45988105Y-230132D01*
X45992367Y-228178D01*
X45995987Y-225893D01*
X45998999Y-223261D01*
X46001433Y-220265D01*
X46003322Y-216889D01*
X46004697Y-213116D01*
X46005591Y-208929D01*
X46006034Y-204313D01*
X46006059Y-199250D01*
X46004981Y-187719D01*
X46002611Y-174203D01*
X45995013Y-140689D01*
X45974904Y-50554D01*
X45963262Y1988D01*
X45952679Y51222D01*
X45928690Y159878D01*
X45791812Y159878D01*
X45763433Y159561D01*
X45734905Y158665D01*
X45707005Y157273D01*
X45680511Y155468D01*
X45656200Y153332D01*
X45634848Y150948D01*
X45617234Y148399D01*
X45604135Y145767D01*
X45597363Y143695D01*
X45590806Y141450D01*
X45584465Y139029D01*
X45578338Y136432D01*
X45572426Y133658D01*
X45566729Y130707D01*
X45561247Y127578D01*
X45555980Y124269D01*
X45550929Y120781D01*
X45546092Y117112D01*
X45541470Y113262D01*
X45537063Y109229D01*
X45532871Y105014D01*
X45528894Y100615D01*
X45525132Y96031D01*
X45521585Y91262D01*
X45518253Y86308D01*
X45515136Y81166D01*
X45512233Y75837D01*
X45509546Y70319D01*
X45507074Y64612D01*
X45504817Y58716D01*
X45502775Y52628D01*
X45500947Y46349D01*
X45499335Y39878D01*
X45497938Y33214D01*
X45496755Y26356D01*
X45495788Y19304D01*
X45495036Y12056D01*
X45494498Y4612D01*
X45494176Y-3028D01*
X45494068Y-10867D01*
X45109963Y-10867D01*
X45107468Y1337D01*
X45102802Y31974D01*
X45099934Y61850D01*
X45098957Y90733D01*
X45099444Y104058D01*
X45100867Y118021D01*
X45103171Y132501D01*
X45106299Y147376D01*
X45110197Y162524D01*
X45114807Y177822D01*
X45120075Y193150D01*
X45125945Y208385D01*
X45132360Y223404D01*
X45139265Y238087D01*
X45146604Y252311D01*
X45154321Y265954D01*
X45162361Y278894D01*
X45170667Y291009D01*
X45179184Y302178D01*
X45187857Y312278D01*
X45196970Y321514D01*
X45207315Y330675D01*
X45218801Y339715D01*
X45231337Y348592D01*
X45244832Y357262D01*
X45259195Y365682D01*
X45274336Y373809D01*
X45290162Y381599D01*
X45306585Y389008D01*
X45323511Y395994D01*
X45340851Y402512D01*
X45358513Y408520D01*
X45376407Y413974D01*
X45394441Y418830D01*
X45412525Y423046D01*
X45430568Y426578D01*
X45490736Y432319D01*
X45591501Y436786D01*
X45718029Y439898D01*
X45855489Y441571D01*
X45989045Y441722D01*
X46103866Y440270D01*
X46185118Y437131D01*
X46208520Y434903D01*
X46217968Y432222D01*
X46237511Y365081D01*
X46276683Y208098D01*
X46372937Y-199250D01*
X46386067Y-254813D01*
G37*
G36*
X48662531Y443051D02*
G01*
X48690804Y441750D01*
X48716605Y439785D01*
X48739065Y437150D01*
X48757317Y433840D01*
X48770493Y429847D01*
X48774905Y427593D01*
X48777723Y425167D01*
X48779667Y421722D01*
X48782293Y415206D01*
X48789409Y393637D01*
X48798708Y361815D01*
X48809826Y321097D01*
X48822400Y272838D01*
X48836064Y218395D01*
X48850457Y159122D01*
X48865213Y96378D01*
X49023257Y-565433D01*
X49055624Y-703392D01*
X49081113Y-819257D01*
X49090450Y-865143D01*
X49097076Y-900991D01*
X49100659Y-925297D01*
X49101206Y-932651D01*
X49100868Y-936556D01*
X49099951Y-937974D01*
X49098490Y-939319D01*
X49096439Y-940592D01*
X49093749Y-941795D01*
X49090375Y-942928D01*
X49086268Y-943994D01*
X49081381Y-944993D01*
X49075667Y-945926D01*
X49061568Y-947602D01*
X49043594Y-949032D01*
X49021366Y-950227D01*
X48994506Y-951196D01*
X48962635Y-951950D01*
X48925375Y-952500D01*
X48882348Y-952855D01*
X48833176Y-953026D01*
X48714882Y-952858D01*
X48567468Y-952078D01*
X48041124Y-947845D01*
X48008668Y-815200D01*
X48000593Y-780931D01*
X47994336Y-751921D01*
X47989866Y-727739D01*
X47988290Y-717324D01*
X47987149Y-707956D01*
X47986437Y-699579D01*
X47986151Y-692141D01*
X47986287Y-685588D01*
X47986840Y-679866D01*
X47987807Y-674921D01*
X47989183Y-670699D01*
X47990964Y-667147D01*
X47993146Y-664211D01*
X47994518Y-662789D01*
X47996267Y-661431D01*
X47998413Y-660135D01*
X48000979Y-658900D01*
X48003985Y-657724D01*
X48007452Y-656605D01*
X48011402Y-655542D01*
X48015856Y-654532D01*
X48026360Y-652665D01*
X48039134Y-650990D01*
X48054347Y-649493D01*
X48072168Y-648160D01*
X48092768Y-646975D01*
X48116315Y-645925D01*
X48142979Y-644994D01*
X48172930Y-644169D01*
X48243370Y-642777D01*
X48328990Y-641633D01*
X48647902Y-637400D01*
X48652135Y-600711D01*
X48652045Y-594538D01*
X48650759Y-583607D01*
X48644837Y-548544D01*
X48634846Y-497673D01*
X48621267Y-433142D01*
X48604579Y-357102D01*
X48585261Y-271702D01*
X48540657Y-81422D01*
X48497332Y106807D01*
X48462870Y264476D01*
X48440843Y374785D01*
X48435609Y406930D01*
X48434824Y420933D01*
X48436616Y423505D01*
X48440070Y425926D01*
X48445076Y428198D01*
X48451525Y430318D01*
X48468322Y434101D01*
X48489592Y437271D01*
X48514467Y439821D01*
X48542079Y441744D01*
X48571559Y443035D01*
X48602040Y443687D01*
X48632653Y443695D01*
X48662531Y443051D01*
G37*
G36*
X49329697Y442571D02*
G01*
X49402868Y440446D01*
X49432547Y438562D01*
X49455964Y436106D01*
X49471878Y433058D01*
X49476633Y431306D01*
X49479046Y429400D01*
X49482563Y422311D01*
X49486680Y410987D01*
X49496200Y378137D01*
X49506579Y335861D01*
X49516793Y289171D01*
X49525817Y243075D01*
X49532624Y202586D01*
X49534877Y186009D01*
X49536190Y172713D01*
X49536438Y163323D01*
X49536121Y160289D01*
X49535490Y158467D01*
X49535049Y157665D01*
X49534519Y156848D01*
X49533905Y156017D01*
X49533208Y155173D01*
X49531584Y153453D01*
X49529670Y151698D01*
X49527491Y149918D01*
X49525072Y148123D01*
X49522439Y146324D01*
X49519615Y144532D01*
X49516626Y142756D01*
X49513497Y141007D01*
X49510252Y139295D01*
X49506915Y137631D01*
X49503513Y136024D01*
X49500069Y134486D01*
X49496609Y133026D01*
X49493157Y131655D01*
X49489472Y129988D01*
X49485837Y128172D01*
X49482268Y126223D01*
X49478781Y124159D01*
X49475394Y121995D01*
X49472123Y119749D01*
X49468983Y117437D01*
X49465993Y115075D01*
X49463168Y112680D01*
X49460525Y110268D01*
X49458080Y107857D01*
X49455851Y105462D01*
X49453852Y103100D01*
X49452102Y100787D01*
X49450617Y98541D01*
X49449413Y96378D01*
X49448255Y84374D01*
X49449873Y63451D01*
X49453967Y34809D01*
X49460238Y-350D01*
X49478112Y-85416D01*
X49501095Y-182140D01*
X49526789Y-280915D01*
X49552798Y-372133D01*
X49576724Y-446186D01*
X49587156Y-473774D01*
X49596168Y-493467D01*
X49601375Y-502798D01*
X49606684Y-511747D01*
X49612107Y-520319D01*
X49617654Y-528519D01*
X49623339Y-536353D01*
X49629171Y-543826D01*
X49635162Y-550946D01*
X49641324Y-557716D01*
X49647667Y-564144D01*
X49654204Y-570234D01*
X49660946Y-575992D01*
X49667903Y-581424D01*
X49675088Y-586536D01*
X49682512Y-591333D01*
X49690186Y-595821D01*
X49698121Y-600006D01*
X49706329Y-603893D01*
X49714822Y-607488D01*
X49723609Y-610796D01*
X49732704Y-613825D01*
X49742118Y-616578D01*
X49751860Y-619062D01*
X49761944Y-621282D01*
X49772381Y-623245D01*
X49783181Y-624955D01*
X49794356Y-626419D01*
X49817878Y-628630D01*
X49843037Y-629924D01*
X49869924Y-630345D01*
X49893086Y-630028D01*
X49917637Y-629132D01*
X49942849Y-627740D01*
X49967996Y-625935D01*
X49992349Y-623799D01*
X50015180Y-621415D01*
X50035762Y-618866D01*
X50053368Y-616233D01*
X50072994Y-612593D01*
X50081704Y-611214D01*
X50089726Y-610126D01*
X50097095Y-609328D01*
X50103846Y-608817D01*
X50110013Y-608591D01*
X50115633Y-608649D01*
X50120741Y-608987D01*
X50125371Y-609605D01*
X50129558Y-610500D01*
X50133338Y-611669D01*
X50136747Y-613112D01*
X50139818Y-614825D01*
X50142587Y-616807D01*
X50145090Y-619056D01*
X50147816Y-622373D01*
X50150688Y-626976D01*
X50156795Y-639685D01*
X50163263Y-656483D01*
X50169939Y-676669D01*
X50176673Y-699542D01*
X50183314Y-724401D01*
X50195714Y-777276D01*
X50205931Y-829689D01*
X50209843Y-853969D01*
X50212758Y-876032D01*
X50214523Y-895176D01*
X50214987Y-910701D01*
X50214001Y-921905D01*
X50212916Y-925669D01*
X50211413Y-928089D01*
X50210443Y-928903D01*
X50209127Y-929757D01*
X50205498Y-931575D01*
X50200604Y-933531D01*
X50194523Y-935608D01*
X50187335Y-937792D01*
X50179117Y-940070D01*
X50159907Y-944846D01*
X50137522Y-949821D01*
X50112591Y-954878D01*
X50085741Y-959902D01*
X50057601Y-964778D01*
X50002505Y-971674D01*
X49948882Y-975962D01*
X49896752Y-977645D01*
X49846133Y-976728D01*
X49797044Y-973215D01*
X49749502Y-967110D01*
X49703528Y-958416D01*
X49659139Y-947139D01*
X49616354Y-933282D01*
X49575192Y-916850D01*
X49535671Y-897846D01*
X49497809Y-876275D01*
X49461626Y-852141D01*
X49427141Y-825447D01*
X49394371Y-796199D01*
X49363335Y-764400D01*
X49346398Y-745120D01*
X49330435Y-725184D01*
X49315328Y-704301D01*
X49300959Y-682181D01*
X49287210Y-658531D01*
X49273964Y-633059D01*
X49261101Y-605475D01*
X49248506Y-575488D01*
X49236059Y-542804D01*
X49223643Y-507134D01*
X49211140Y-468186D01*
X49198433Y-425667D01*
X49185404Y-379288D01*
X49171934Y-328755D01*
X49157906Y-273779D01*
X49143202Y-214067D01*
X49068104Y98538D01*
X49025021Y289700D01*
X49013583Y348917D01*
X49007867Y388786D01*
X49007112Y412979D01*
X49008357Y420344D01*
X49010557Y425167D01*
X49013355Y426977D01*
X49018469Y428702D01*
X49035028Y431889D01*
X49058991Y434707D01*
X49089116Y437139D01*
X49162883Y440769D01*
X49246389Y442629D01*
X49329697Y442571D01*
G37*
G36*
X44296264Y453262D02*
G01*
X44330372Y451059D01*
X44363085Y448141D01*
X44393954Y444512D01*
X44422531Y440176D01*
X44448366Y435137D01*
X44471013Y429400D01*
X44509234Y417403D01*
X44546595Y403675D01*
X44583031Y388268D01*
X44618474Y371236D01*
X44652858Y352633D01*
X44686119Y332513D01*
X44718188Y310929D01*
X44749001Y287936D01*
X44778491Y263587D01*
X44806592Y237935D01*
X44833238Y211035D01*
X44858362Y182941D01*
X44881899Y153705D01*
X44903782Y123382D01*
X44923946Y92025D01*
X44942323Y59689D01*
X44954841Y34185D01*
X44967916Y2701D01*
X44981347Y-33896D01*
X44994931Y-74742D01*
X45021748Y-165711D01*
X45046746Y-263279D01*
X45068304Y-360516D01*
X45084802Y-450494D01*
X45090647Y-490595D01*
X45094619Y-526283D01*
X45096516Y-556692D01*
X45096135Y-580956D01*
X45093299Y-606663D01*
X45089043Y-631653D01*
X45083391Y-655909D01*
X45076371Y-679416D01*
X45068009Y-702160D01*
X45058330Y-724125D01*
X45047360Y-745296D01*
X45035127Y-765657D01*
X45021655Y-785193D01*
X45006971Y-803889D01*
X44991101Y-821731D01*
X44974071Y-838701D01*
X44955908Y-854786D01*
X44936636Y-869970D01*
X44916283Y-884238D01*
X44894875Y-897574D01*
X44872437Y-909963D01*
X44848996Y-921391D01*
X44824578Y-931841D01*
X44799209Y-941299D01*
X44772915Y-949749D01*
X44745721Y-957176D01*
X44717655Y-963565D01*
X44688742Y-968901D01*
X44659009Y-973168D01*
X44628481Y-976351D01*
X44597185Y-978435D01*
X44565146Y-979404D01*
X44532391Y-979244D01*
X44498946Y-977939D01*
X44464837Y-975474D01*
X44430090Y-971833D01*
X44402524Y-967694D01*
X44373337Y-962794D01*
X44343423Y-957298D01*
X44313674Y-951372D01*
X44284983Y-945182D01*
X44258244Y-938893D01*
X44234348Y-932670D01*
X44214190Y-926678D01*
X44183498Y-915217D01*
X44153400Y-902061D01*
X44123991Y-887300D01*
X44095370Y-871027D01*
X44067634Y-853332D01*
X44040880Y-834305D01*
X44015204Y-814038D01*
X43990705Y-792622D01*
X43967479Y-770148D01*
X43945624Y-746706D01*
X43925236Y-722388D01*
X43906413Y-697284D01*
X43889252Y-671486D01*
X43873850Y-645084D01*
X43860304Y-618170D01*
X43848712Y-590833D01*
X43841307Y-570587D01*
X43838403Y-562190D01*
X43836034Y-554806D01*
X43834203Y-548331D01*
X43832912Y-542663D01*
X43832162Y-537697D01*
X43831956Y-533331D01*
X43832057Y-531340D01*
X43832295Y-529460D01*
X43832670Y-527679D01*
X43833182Y-525983D01*
X43833832Y-524359D01*
X43834619Y-522795D01*
X43835544Y-521277D01*
X43836608Y-519793D01*
X43839151Y-516873D01*
X43842250Y-513933D01*
X43845906Y-510869D01*
X43850124Y-507578D01*
X43853978Y-505279D01*
X43858670Y-503143D01*
X43864210Y-501169D01*
X43870607Y-499354D01*
X43877872Y-497696D01*
X43886016Y-496193D01*
X43895049Y-494842D01*
X43904981Y-493643D01*
X43915822Y-492593D01*
X43927583Y-491689D01*
X43940274Y-490930D01*
X43953906Y-490314D01*
X43968489Y-489838D01*
X43984033Y-489501D01*
X44018045Y-489234D01*
X44157746Y-489234D01*
X44229712Y-565433D01*
X44240445Y-576556D01*
X44250488Y-586683D01*
X44259943Y-595875D01*
X44268915Y-604195D01*
X44277506Y-611705D01*
X44285821Y-618466D01*
X44293961Y-624541D01*
X44302032Y-629992D01*
X44310135Y-634880D01*
X44318375Y-639269D01*
X44326855Y-643219D01*
X44335678Y-646793D01*
X44344947Y-650053D01*
X44354767Y-653060D01*
X44365239Y-655877D01*
X44376468Y-658567D01*
X44396378Y-662603D01*
X44416357Y-665724D01*
X44436306Y-667940D01*
X44456130Y-669260D01*
X44475730Y-669696D01*
X44495010Y-669258D01*
X44513872Y-667955D01*
X44532219Y-665799D01*
X44549955Y-662799D01*
X44566982Y-658966D01*
X44583202Y-654311D01*
X44598520Y-648843D01*
X44612836Y-642574D01*
X44626056Y-635512D01*
X44638080Y-627669D01*
X44648813Y-619056D01*
X44655870Y-612470D01*
X44662489Y-605665D01*
X44668671Y-598618D01*
X44674416Y-591307D01*
X44679726Y-583712D01*
X44684600Y-575809D01*
X44689038Y-567577D01*
X44693042Y-558995D01*
X44696612Y-550041D01*
X44699748Y-540694D01*
X44702452Y-530930D01*
X44704722Y-520730D01*
X44706561Y-510071D01*
X44707968Y-498931D01*
X44708944Y-487289D01*
X44709490Y-475122D01*
X44709606Y-462410D01*
X44709293Y-449131D01*
X44708550Y-435263D01*
X44707379Y-420784D01*
X44705780Y-405672D01*
X44703754Y-389906D01*
X44698422Y-356324D01*
X44691386Y-319866D01*
X44682651Y-280356D01*
X44672222Y-237622D01*
X44660101Y-191489D01*
X44648230Y-151736D01*
X44634847Y-114504D01*
X44619964Y-79797D01*
X44603591Y-47622D01*
X44585737Y-17985D01*
X44576259Y-4121D01*
X44566414Y9107D01*
X44556205Y21696D01*
X44545632Y33648D01*
X44534696Y44960D01*
X44523400Y55632D01*
X44511744Y65663D01*
X44499730Y75053D01*
X44487358Y83800D01*
X44474631Y91905D01*
X44461550Y99365D01*
X44448115Y106181D01*
X44434328Y112351D01*
X44420190Y117875D01*
X44405704Y122752D01*
X44390869Y126981D01*
X44375687Y130562D01*
X44360160Y133494D01*
X44344289Y135775D01*
X44328075Y137406D01*
X44311520Y138385D01*
X44294624Y138711D01*
X44274323Y138127D01*
X44255187Y136884D01*
X44237154Y134950D01*
X44220165Y132295D01*
X44204160Y128887D01*
X44189080Y124696D01*
X44174863Y119691D01*
X44161450Y113840D01*
X44148781Y107113D01*
X44136797Y99478D01*
X44125437Y90905D01*
X44114641Y81363D01*
X44104349Y70820D01*
X44094502Y59245D01*
X44085040Y46608D01*
X44075902Y32878D01*
X44040623Y-23567D01*
X43881169Y-23567D01*
X43843666Y-23302D01*
X43810547Y-22508D01*
X43781826Y-21186D01*
X43757520Y-19333D01*
X43737646Y-16952D01*
X43729376Y-15563D01*
X43722220Y-14042D01*
X43716180Y-12388D01*
X43711259Y-10602D01*
X43707458Y-8684D01*
X43704779Y-6633D01*
X43703862Y-5605D01*
X43702961Y-4376D01*
X43702079Y-2952D01*
X43701216Y-1339D01*
X43699549Y2430D01*
X43697966Y6882D01*
X43696475Y11972D01*
X43695081Y17650D01*
X43693790Y23870D01*
X43692608Y30585D01*
X43691543Y37745D01*
X43690599Y45305D01*
X43689784Y53216D01*
X43689103Y61431D01*
X43688562Y69902D01*
X43688168Y78582D01*
X43687927Y87423D01*
X43687846Y96378D01*
X43688971Y128706D01*
X43690377Y144313D01*
X43692346Y159547D01*
X43694879Y174409D01*
X43697975Y188899D01*
X43701635Y203017D01*
X43705860Y216763D01*
X43710648Y230137D01*
X43716001Y243139D01*
X43721919Y255768D01*
X43728401Y268026D01*
X43735450Y279912D01*
X43743063Y291425D01*
X43751243Y302567D01*
X43759989Y313336D01*
X43769301Y323733D01*
X43779180Y333759D01*
X43789626Y343412D01*
X43800638Y352693D01*
X43812219Y361602D01*
X43824366Y370139D01*
X43837082Y378304D01*
X43850366Y386096D01*
X43864219Y393517D01*
X43878640Y400566D01*
X43909189Y413547D01*
X43942016Y425040D01*
X43977124Y435044D01*
X44000514Y440221D01*
X44026995Y444641D01*
X44056117Y448309D01*
X44087433Y451228D01*
X44120493Y453403D01*
X44154849Y454839D01*
X44225656Y455506D01*
X44296264Y453262D01*
G37*
G36*
X47073620Y450691D02*
G01*
X47108732Y449332D01*
X47140273Y447246D01*
X47168175Y444415D01*
X47192373Y440824D01*
X47212801Y436456D01*
X47250191Y425866D01*
X47287620Y412723D01*
X47324897Y397187D01*
X47361828Y379416D01*
X47398221Y359570D01*
X47433885Y337807D01*
X47468628Y314288D01*
X47502255Y289171D01*
X47534577Y262615D01*
X47565400Y234780D01*
X47594532Y205824D01*
X47621781Y175907D01*
X47646955Y145188D01*
X47669861Y113826D01*
X47690307Y81981D01*
X47708101Y49811D01*
X47718323Y27577D01*
X47729282Y0D01*
X47752662Y-68215D01*
X47776736Y-148899D01*
X47800000Y-236115D01*
X47820949Y-323927D01*
X47838078Y-406397D01*
X47849882Y-477589D01*
X47853317Y-507101D01*
X47854857Y-531567D01*
X47855239Y-551259D01*
X47854805Y-570637D01*
X47853564Y-589684D01*
X47851528Y-608384D01*
X47848706Y-626720D01*
X47845109Y-644676D01*
X47840747Y-662235D01*
X47835631Y-679381D01*
X47829770Y-696096D01*
X47823176Y-712365D01*
X47815858Y-728171D01*
X47807827Y-743498D01*
X47799094Y-758328D01*
X47789667Y-772646D01*
X47779559Y-786435D01*
X47768779Y-799678D01*
X47748339Y-822587D01*
X47727162Y-843717D01*
X47705143Y-863107D01*
X47693783Y-872161D01*
X47682172Y-880795D01*
X47670297Y-889013D01*
X47658143Y-896821D01*
X47645699Y-904223D01*
X47632949Y-911225D01*
X47619881Y-917830D01*
X47606481Y-924045D01*
X47592736Y-929873D01*
X47578632Y-935321D01*
X47549295Y-945092D01*
X47518362Y-953398D01*
X47485726Y-960277D01*
X47451280Y-965770D01*
X47414914Y-969915D01*
X47376524Y-972751D01*
X47336000Y-974318D01*
X47293235Y-974656D01*
X47247428Y-973493D01*
X47203602Y-971040D01*
X47161652Y-967264D01*
X47121476Y-962132D01*
X47082971Y-955611D01*
X47046031Y-947668D01*
X47010556Y-938270D01*
X46976440Y-927383D01*
X46943582Y-914976D01*
X46911877Y-901013D01*
X46881221Y-885463D01*
X46851513Y-868293D01*
X46822648Y-849469D01*
X46794523Y-828958D01*
X46767034Y-806728D01*
X46740079Y-782745D01*
X46726354Y-768933D01*
X46712766Y-754073D01*
X46699418Y-738341D01*
X46686413Y-721912D01*
X46673854Y-704963D01*
X46661845Y-687668D01*
X46650489Y-670204D01*
X46639890Y-652746D01*
X46630151Y-635470D01*
X46621375Y-618551D01*
X46613666Y-602166D01*
X46607126Y-586490D01*
X46601860Y-571698D01*
X46597970Y-557967D01*
X46595561Y-545472D01*
X46594735Y-534389D01*
X46594813Y-530783D01*
X46595059Y-527371D01*
X46595494Y-524146D01*
X46596138Y-521105D01*
X46597010Y-518241D01*
X46598130Y-515550D01*
X46599518Y-513026D01*
X46601195Y-510665D01*
X46603180Y-508460D01*
X46605492Y-506408D01*
X46608152Y-504502D01*
X46611180Y-502738D01*
X46614596Y-501111D01*
X46618419Y-499614D01*
X46622669Y-498244D01*
X46627367Y-496995D01*
X46632531Y-495861D01*
X46638183Y-494838D01*
X46644342Y-493920D01*
X46651028Y-493103D01*
X46658260Y-492381D01*
X46666059Y-491748D01*
X46674444Y-491201D01*
X46683436Y-490733D01*
X46693055Y-490339D01*
X46703319Y-490015D01*
X46725866Y-489553D01*
X46751237Y-489307D01*
X46779591Y-489234D01*
X46826251Y-489322D01*
X46861832Y-489939D01*
X46876139Y-490612D01*
X46888483Y-491615D01*
X46899132Y-493015D01*
X46908354Y-494878D01*
X46916419Y-497270D01*
X46923595Y-500258D01*
X46930152Y-503907D01*
X46936356Y-508283D01*
X46942478Y-513454D01*
X46948786Y-519484D01*
X46963035Y-534389D01*
X46971276Y-543812D01*
X46978954Y-552888D01*
X46985905Y-561401D01*
X46991963Y-569138D01*
X46996962Y-575882D01*
X47000738Y-581419D01*
X47002115Y-583667D01*
X47003125Y-585534D01*
X47003746Y-586990D01*
X47003957Y-588011D01*
X47004035Y-588577D01*
X47004266Y-589215D01*
X47004647Y-589923D01*
X47005173Y-590698D01*
X47005840Y-591539D01*
X47006645Y-592442D01*
X47008654Y-594427D01*
X47011166Y-596636D01*
X47014152Y-599049D01*
X47017580Y-601649D01*
X47021420Y-604415D01*
X47025639Y-607331D01*
X47030209Y-610377D01*
X47035096Y-613534D01*
X47040271Y-616785D01*
X47045702Y-620109D01*
X47051359Y-623490D01*
X47057209Y-626908D01*
X47063224Y-630345D01*
X47072302Y-635376D01*
X47081086Y-639905D01*
X47089675Y-643959D01*
X47098171Y-647564D01*
X47106675Y-650748D01*
X47115289Y-653537D01*
X47124113Y-655958D01*
X47133250Y-658038D01*
X47142800Y-659803D01*
X47152865Y-661281D01*
X47163546Y-662499D01*
X47174944Y-663484D01*
X47187161Y-664261D01*
X47200297Y-664859D01*
X47229735Y-665622D01*
X47250907Y-665309D01*
X47271038Y-664358D01*
X47290137Y-662750D01*
X47308211Y-660469D01*
X47325271Y-657494D01*
X47341325Y-653809D01*
X47356381Y-649396D01*
X47370449Y-644235D01*
X47383537Y-638310D01*
X47395654Y-631602D01*
X47406809Y-624093D01*
X47417010Y-615765D01*
X47426267Y-606600D01*
X47434588Y-596579D01*
X47441982Y-585685D01*
X47448457Y-573900D01*
X47454023Y-561205D01*
X47458688Y-547583D01*
X47462462Y-533015D01*
X47465352Y-517483D01*
X47467368Y-500970D01*
X47468518Y-483456D01*
X47468811Y-464924D01*
X47468257Y-445357D01*
X47466863Y-424735D01*
X47464639Y-403041D01*
X47461593Y-380256D01*
X47457734Y-356363D01*
X47447613Y-305179D01*
X47434346Y-249345D01*
X47418554Y-187529D01*
X47405374Y-138991D01*
X47399423Y-118891D01*
X47393716Y-101137D01*
X47388116Y-85404D01*
X47382488Y-71368D01*
X47376694Y-58705D01*
X47370598Y-47090D01*
X47364064Y-36198D01*
X47356955Y-25705D01*
X47349136Y-15287D01*
X47340469Y-4619D01*
X47320046Y18767D01*
X47305083Y34516D01*
X47290297Y48981D01*
X47275602Y62203D01*
X47260911Y74219D01*
X47246138Y85069D01*
X47231195Y94793D01*
X47215996Y103429D01*
X47200454Y111018D01*
X47184482Y117598D01*
X47167993Y123208D01*
X47150901Y127888D01*
X47133118Y131678D01*
X47114558Y134615D01*
X47095134Y136740D01*
X47074759Y138093D01*
X47053346Y138711D01*
X47032272Y138361D01*
X47012418Y137300D01*
X46993747Y135511D01*
X46976220Y132978D01*
X46959801Y129685D01*
X46944453Y125614D01*
X46930139Y120750D01*
X46916821Y115075D01*
X46904462Y108573D01*
X46893025Y101228D01*
X46882473Y93024D01*
X46872768Y83942D01*
X46863873Y73968D01*
X46855752Y63084D01*
X46848366Y51275D01*
X46841679Y38522D01*
X46839467Y34013D01*
X46837079Y29504D01*
X46834539Y25028D01*
X46831868Y20619D01*
X46829089Y16308D01*
X46826226Y12130D01*
X46823301Y8117D01*
X46820336Y4303D01*
X46817355Y720D01*
X46814380Y-2599D01*
X46811434Y-5619D01*
X46808540Y-8309D01*
X46805720Y-10635D01*
X46802998Y-12565D01*
X46800395Y-14064D01*
X46797935Y-15100D01*
X46795072Y-15893D01*
X46790775Y-16679D01*
X46778223Y-18209D01*
X46760976Y-19639D01*
X46739726Y-20921D01*
X46715170Y-22004D01*
X46688000Y-22839D01*
X46658913Y-23377D01*
X46628601Y-23567D01*
X46581737Y-23440D01*
X46545787Y-22817D01*
X46531346Y-22206D01*
X46518965Y-21334D01*
X46508419Y-20157D01*
X46499485Y-18628D01*
X46491940Y-16702D01*
X46485561Y-14334D01*
X46480125Y-11478D01*
X46475408Y-8089D01*
X46471187Y-4121D01*
X46467239Y472D01*
X46459268Y11711D01*
X46454929Y19038D01*
X46451167Y26970D01*
X46447969Y35467D01*
X46445325Y44489D01*
X46443224Y53995D01*
X46441654Y63947D01*
X46440604Y74302D01*
X46440064Y85023D01*
X46440466Y107397D01*
X46442773Y130749D01*
X46446894Y154758D01*
X46452742Y179104D01*
X46460226Y203467D01*
X46469259Y227526D01*
X46479751Y250960D01*
X46491613Y273450D01*
X46504757Y294675D01*
X46519094Y314314D01*
X46526682Y323440D01*
X46534535Y332048D01*
X46542641Y340100D01*
X46550990Y347555D01*
X46567334Y360526D01*
X46584176Y372470D01*
X46601651Y383423D01*
X46619892Y393417D01*
X46639035Y402484D01*
X46659213Y410659D01*
X46680561Y417973D01*
X46703214Y424461D01*
X46727305Y430155D01*
X46752969Y435089D01*
X46780341Y439294D01*
X46809554Y442806D01*
X46840744Y445655D01*
X46874044Y447877D01*
X46909589Y449503D01*
X46947513Y450567D01*
X46992944Y451291D01*
X47035001Y451338D01*
X47073620Y450691D01*
G37*
G36*
X51692616Y947763D02*
G01*
X51757525Y945001D01*
X51785159Y942870D01*
X51808790Y940222D01*
X51850071Y933304D01*
X51899322Y923509D01*
X51954195Y911399D01*
X52012343Y897536D01*
X52071417Y882482D01*
X52129069Y866800D01*
X52182950Y851052D01*
X52230713Y835800D01*
X52284486Y817163D01*
X52343668Y795186D01*
X52404271Y771556D01*
X52462311Y747958D01*
X52513803Y726081D01*
X52554761Y707609D01*
X52581200Y694231D01*
X52587730Y689979D01*
X52589104Y688555D01*
X52589135Y687633D01*
X52588698Y687418D01*
X52587923Y687299D01*
X52585392Y687344D01*
X52581613Y687748D01*
X52576655Y688493D01*
X52563487Y690932D01*
X52546449Y694512D01*
X52526103Y699085D01*
X52503013Y704500D01*
X52477740Y710611D01*
X52450846Y717267D01*
X52371646Y736316D01*
X52294885Y752715D01*
X52220522Y766460D01*
X52148515Y777547D01*
X52078824Y785972D01*
X52011406Y791730D01*
X51946221Y794818D01*
X51883227Y795230D01*
X51822382Y792964D01*
X51763646Y788015D01*
X51706977Y780379D01*
X51652333Y770051D01*
X51599675Y757028D01*
X51548959Y741305D01*
X51500144Y722879D01*
X51453190Y701744D01*
X51438773Y694639D01*
X51425095Y687567D01*
X51412070Y680462D01*
X51399612Y673258D01*
X51387634Y665888D01*
X51376048Y658287D01*
X51364768Y650388D01*
X51353707Y642125D01*
X51342778Y633432D01*
X51331895Y624243D01*
X51320971Y614492D01*
X51309918Y604113D01*
X51298651Y593039D01*
X51287082Y581205D01*
X51275124Y568543D01*
X51262690Y554989D01*
X51173790Y456211D01*
X50866168Y456211D01*
X50747481Y457203D01*
X50650092Y459915D01*
X50612568Y461792D01*
X50584188Y463950D01*
X50566227Y466340D01*
X50561551Y467606D01*
X50559957Y468911D01*
X50560080Y469700D01*
X50560445Y470737D01*
X50561875Y473530D01*
X50564199Y477233D01*
X50567365Y481787D01*
X50571326Y487136D01*
X50576030Y493220D01*
X50587474Y507364D01*
X50601298Y523757D01*
X50617107Y541936D01*
X50634503Y561438D01*
X50653090Y581800D01*
X50683940Y613727D01*
X50716133Y644404D01*
X50749624Y673804D01*
X50784368Y701899D01*
X50820319Y728663D01*
X50857431Y754068D01*
X50895660Y778089D01*
X50934960Y800699D01*
X50975285Y821869D01*
X51016589Y841574D01*
X51058828Y859786D01*
X51101956Y876480D01*
X51145927Y891627D01*
X51190696Y905201D01*
X51236218Y917175D01*
X51282446Y927522D01*
X51303844Y931324D01*
X51329545Y934782D01*
X51391476Y940619D01*
X51463495Y944935D01*
X51540856Y947631D01*
X51618811Y948606D01*
X51692616Y947763D01*
G37*
D11*
%TO.C,J2*%
X96000000Y7000000D03*
X96000000Y6000000D03*
X96000000Y5000000D03*
X96000000Y4000000D03*
X96000000Y3000000D03*
X96000000Y2000000D03*
X96000000Y1000000D03*
X96000000Y0D03*
X96000000Y-1000000D03*
X96000000Y-2000000D03*
X96000000Y-3000000D03*
X96000000Y-4000000D03*
X96000000Y-5000000D03*
X96000000Y-6000000D03*
X96000000Y-7000000D03*
%TD*%
D12*
%TO.C,J1*%
X0Y-7000000D03*
X0Y-6000000D03*
X0Y-5000000D03*
X0Y-4000000D03*
X0Y-3000000D03*
X0Y-2000000D03*
X0Y-1000000D03*
X0Y0D03*
X0Y1000000D03*
X0Y2000000D03*
X0Y3000000D03*
X0Y4000000D03*
X0Y5000000D03*
X0Y6000000D03*
X0Y7000000D03*
%TD*%
%LPC*%
%TO.C,J2*%
X96000000Y7000000D03*
X96000000Y6000000D03*
X96000000Y5000000D03*
X96000000Y4000000D03*
X96000000Y3000000D03*
X96000000Y2000000D03*
X96000000Y1000000D03*
X96000000Y0D03*
X96000000Y-1000000D03*
X96000000Y-2000000D03*
X96000000Y-3000000D03*
X96000000Y-4000000D03*
X96000000Y-5000000D03*
X96000000Y-6000000D03*
X96000000Y-7000000D03*
%TD*%
D11*
%TO.C,J1*%
X0Y-7000000D03*
X0Y-6000000D03*
X0Y-5000000D03*
X0Y-4000000D03*
X0Y-3000000D03*
X0Y-2000000D03*
X0Y-1000000D03*
X0Y0D03*
X0Y1000000D03*
X0Y2000000D03*
X0Y3000000D03*
X0Y4000000D03*
X0Y5000000D03*
X0Y6000000D03*
X0Y7000000D03*
%TD*%
%LPD*%
M02*
