M48
; DRILL file {KiCad 7.0.6} date Mon Dec 18 00:12:50 2023
; FORMAT={-:-/ absolute / inch / decimal}
; #@! TF.CreationDate,2023-12-18T00:12:50+09:00
; #@! TF.GenerationSoftware,Kicad,Pcbnew,7.0.6
; #@! TF.FileFunction,Plated,1,2,PTH
FMAT,2
INCH
; #@! TA.AperFunction,Plated,PTH,ViaDrill
T1C0.0157
; #@! TA.AperFunction,Plated,PTH,ComponentDrill
T2C0.0315
; #@! TA.AperFunction,Plated,PTH,ComponentDrill
T3C0.0354
; #@! TA.AperFunction,Plated,PTH,ComponentDrill
T4C0.0374
; #@! TA.AperFunction,Plated,PTH,ComponentDrill
T5C0.0394
%
G90
G05
T1
X4.6063Y-5.9055
X4.6457Y-5.9055
X4.685Y-5.9055
X4.7244Y-5.9055
X4.7638Y-5.9055
X4.8031Y-5.9055
X4.8425Y-5.9055
X4.8819Y-5.9055
X4.9213Y-5.9055
X5.7874Y-5.6693
X5.7874Y-5.7185
X5.7874Y-5.7677
X5.7874Y-5.8169
X5.8071Y-3.7008
X5.8071Y-4.1339
X5.8071Y-4.5669
X5.8071Y-5.0
X5.8071Y-7.3622
X5.8071Y-7.7953
X5.8071Y-8.2283
X5.8071Y-8.6614
X5.8071Y-9.0945
X5.8071Y-9.5276
X5.8661Y-7.1891
X6.3091Y-6.2106
X7.4788Y-5.6643
T2
X2.0276Y-5.7275
X2.0276Y-5.8275
X2.4606Y-5.7275
X2.4606Y-5.8275
X2.8937Y-5.7275
X2.8937Y-5.8275
X3.3268Y-5.7275
X3.3268Y-5.8275
X3.7598Y-5.7275
X3.7598Y-5.8275
X4.1929Y-5.7275
X4.1929Y-5.8275
X5.7571Y-7.5885
X5.7571Y-8.0216
X5.7571Y-8.4546
X5.7571Y-8.8877
X5.7571Y-9.3208
X5.7571Y-9.7538
X5.8571Y-7.5885
X5.8571Y-8.0216
X5.8571Y-8.4546
X5.8571Y-8.8877
X5.8571Y-9.3208
X5.8571Y-9.7538
X5.9539Y-3.4153
X5.9539Y-3.8483
X5.9539Y-4.2814
X5.9539Y-4.7145
X6.0539Y-3.4153
X6.0539Y-3.8483
X6.0539Y-4.2814
X6.0539Y-4.7145
X7.6181Y-5.9243
X7.6181Y-6.0243
X8.0512Y-5.9243
X8.0512Y-6.0243
X8.4843Y-5.9243
X8.4843Y-6.0243
X8.9173Y-5.9243
X8.9173Y-6.0243
X9.3504Y-5.9243
X9.3504Y-6.0243
X9.7835Y-5.9243
X9.7835Y-6.0243
T3
X2.0276Y-5.9245
X2.0276Y-6.0245
X2.4606Y-5.9245
X2.4606Y-6.0245
X2.8937Y-5.9245
X2.8937Y-6.0245
X3.3268Y-5.9245
X3.3268Y-6.0245
X3.7598Y-5.9245
X3.7598Y-6.0245
X4.1929Y-5.9245
X4.1929Y-6.0245
X5.7569Y-3.4153
X5.7569Y-3.8483
X5.7569Y-4.2814
X5.7569Y-4.7145
X5.8569Y-3.4153
X5.8569Y-3.8483
X5.8569Y-4.2814
X5.8569Y-4.7145
X5.9541Y-7.5885
X5.9541Y-8.0216
X5.9541Y-8.4546
X5.9541Y-8.8877
X5.9541Y-9.3208
X5.9541Y-9.7538
X6.0541Y-7.5885
X6.0541Y-8.0216
X6.0541Y-8.4546
X6.0541Y-8.8877
X6.0541Y-9.3208
X6.0541Y-9.7538
X7.6181Y-5.7273
X7.6181Y-5.8273
X8.0512Y-5.7273
X8.0512Y-5.8273
X8.4843Y-5.7273
X8.4843Y-5.8273
X8.9173Y-5.7273
X8.9173Y-5.8273
X9.3504Y-5.7273
X9.3504Y-5.8273
X9.7835Y-5.7273
X9.7835Y-5.8273
T4
X5.8071Y-5.2853
X5.9055Y-5.2853
X6.0039Y-5.2853
T5
X5.3055Y-5.8956
X5.3055Y-5.9956
X5.4055Y-5.8956
X5.4055Y-5.9956
X5.5055Y-5.8956
X5.5055Y-5.9956
X5.6055Y-5.8956
X5.6055Y-5.9956
X5.7055Y-5.8956
X5.7055Y-5.9956
X5.8055Y-5.8956
X5.8055Y-5.9956
X5.9055Y-5.8956
X5.9055Y-5.9956
X6.0055Y-5.8956
X6.0055Y-5.9956
X6.1055Y-5.8956
X6.1055Y-5.9956
X6.2055Y-5.8956
X6.2055Y-5.9956
X6.3055Y-5.8956
X6.3055Y-5.9956
X6.4055Y-5.8956
X6.4055Y-5.9956
X6.5055Y-5.8956
X6.5055Y-5.9956
T0
M30
