%TF.GenerationSoftware,KiCad,Pcbnew,8.0.1*%
%TF.CreationDate,2025-01-30T23:09:45+09:00*%
%TF.ProjectId,Line-003-20241222,4c696e65-2d30-4303-932d-323032343132,rev?*%
%TF.SameCoordinates,Original*%
%TF.FileFunction,Paste,Top*%
%TF.FilePolarity,Positive*%
%FSLAX46Y46*%
G04 Gerber Fmt 4.6, Leading zero omitted, Abs format (unit mm)*
G04 Created by KiCad (PCBNEW 8.0.1) date 2025-01-30 23:09:45*
%MOMM*%
%LPD*%
G01*
G04 APERTURE LIST*
%ADD10C,1.800000*%
%ADD11O,1.800000X1.800000*%
%ADD12R,1.800000X1.800000*%
G04 APERTURE END LIST*
D10*
%TO.C,U62*%
X-85777521Y-15240879D03*
X-85777521Y-17780879D03*
D11*
X-88317521Y-15240879D03*
X-88317521Y-17780879D03*
D10*
X-42597521Y-879D03*
X-80697521Y17779121D03*
X-80697521Y15239121D03*
X-78157521Y17779121D03*
X-78157521Y15239121D03*
X-75617521Y17779121D03*
X-75617521Y15239121D03*
X-73077521Y17779121D03*
X-73077521Y15239121D03*
X-70537521Y17779121D03*
X-70537521Y15239121D03*
X-67997521Y17779121D03*
X-67997521Y15239121D03*
X-65457521Y17779121D03*
X-65457521Y15239121D03*
X-62917521Y17779121D03*
X-62917521Y15239121D03*
X-83237521Y-15240879D03*
X-78157521Y-15240879D03*
X-78157521Y-17780879D03*
X-75617521Y-15240879D03*
X-75617521Y-17780879D03*
X-73077521Y-15240879D03*
X-73077521Y-17780879D03*
X-70537521Y-15240879D03*
X-70537521Y-17780879D03*
X-67997521Y-15240879D03*
X-67997521Y-17780879D03*
X-65457521Y-15240879D03*
X-65457521Y-17780879D03*
X-62917521Y-15240879D03*
X-62917521Y-17780879D03*
X-60377521Y-15240879D03*
X-60377521Y-17780879D03*
X-57837521Y-15240879D03*
X-57837521Y-17780879D03*
X-55297521Y-15240879D03*
X-55297521Y-17780879D03*
X-52757521Y-15240879D03*
X-52757521Y-17780879D03*
X-50217521Y-15240879D03*
X-50217521Y-17780879D03*
X-47677521Y-15240879D03*
X-47677521Y-17780879D03*
X-45137521Y-15240879D03*
X-45137521Y-17780879D03*
X-42597521Y-15240879D03*
X-42597521Y-17780879D03*
X-60377521Y17779121D03*
X-60377521Y15239121D03*
X-57837521Y17779121D03*
X-57837521Y15239121D03*
X-55297521Y17779121D03*
X-55297521Y15239121D03*
X-52757521Y17779121D03*
X-52757521Y15239121D03*
X-50217521Y17779121D03*
X-50217521Y15239121D03*
X-47677521Y17779121D03*
X-47677521Y15239121D03*
X-45137521Y17779121D03*
X-45137521Y15239121D03*
X-42597521Y17779121D03*
X-42597521Y15239121D03*
X-42597521Y12699121D03*
X-45137521Y12699121D03*
X-42597521Y10159121D03*
X-45137521Y10159121D03*
X-42597521Y7619121D03*
X-45137521Y7619121D03*
D12*
X-90857521Y-15240879D03*
X-90857521Y-17780879D03*
X-42597521Y-5080879D03*
D10*
X-45137521Y-879D03*
X-42597521Y-2540879D03*
X-45137521Y-5080879D03*
X-83237521Y-17780879D03*
X-80697521Y-15240879D03*
X-45137521Y-2540879D03*
X-80697521Y-17780879D03*
X-93397521Y-15240879D03*
X-93397521Y-17780879D03*
%TD*%
M02*
