%TF.GenerationSoftware,KiCad,Pcbnew,8.0.1*%
%TF.CreationDate,2024-12-28T13:05:20+09:00*%
%TF.ProjectId,Line-003-20241222,4c696e65-2d30-4303-932d-323032343132,rev?*%
%TF.SameCoordinates,Original*%
%TF.FileFunction,Soldermask,Bot*%
%TF.FilePolarity,Negative*%
%FSLAX46Y46*%
G04 Gerber Fmt 4.6, Leading zero omitted, Abs format (unit mm)*
G04 Created by KiCad (PCBNEW 8.0.1) date 2024-12-28 13:05:20*
%MOMM*%
%LPD*%
G01*
G04 APERTURE LIST*
G04 Aperture macros list*
%AMRoundRect*
0 Rectangle with rounded corners*
0 $1 Rounding radius*
0 $2 $3 $4 $5 $6 $7 $8 $9 X,Y pos of 4 corners*
0 Add a 4 corners polygon primitive as box body*
4,1,4,$2,$3,$4,$5,$6,$7,$8,$9,$2,$3,0*
0 Add four circle primitives for the rounded corners*
1,1,$1+$1,$2,$3*
1,1,$1+$1,$4,$5*
1,1,$1+$1,$6,$7*
1,1,$1+$1,$8,$9*
0 Add four rect primitives between the rounded corners*
20,1,$1+$1,$2,$3,$4,$5,0*
20,1,$1+$1,$4,$5,$6,$7,0*
20,1,$1+$1,$6,$7,$8,$9,0*
20,1,$1+$1,$8,$9,$2,$3,0*%
%AMRotRect*
0 Rectangle, with rotation*
0 The origin of the aperture is its center*
0 $1 length*
0 $2 width*
0 $3 Rotation angle, in degrees counterclockwise*
0 Add horizontal line*
21,1,$1,$2,0,0,$3*%
G04 Aperture macros list end*
%ADD10R,2.000000X2.000000*%
%ADD11C,2.000000*%
%ADD12C,3.200000*%
%ADD13RoundRect,0.250000X0.600000X0.750000X-0.600000X0.750000X-0.600000X-0.750000X0.600000X-0.750000X0*%
%ADD14O,1.700000X2.000000*%
%ADD15RotRect,1.300000X1.300000X165.000000*%
%ADD16C,1.300000*%
%ADD17RotRect,1.300000X1.300000X247.500000*%
%ADD18RoundRect,0.200000X0.275000X-0.200000X0.275000X0.200000X-0.275000X0.200000X-0.275000X-0.200000X0*%
%ADD19RoundRect,0.200000X-0.135734X0.311771X-0.338425X-0.033072X0.135734X-0.311771X0.338425X0.033072X0*%
%ADD20RotRect,1.300000X1.300000X195.000000*%
%ADD21R,1.300000X1.300000*%
%ADD22RotRect,1.400000X1.400000X353.076000*%
%ADD23C,1.400000*%
%ADD24R,1.000000X1.500000*%
%ADD25RoundRect,0.200000X-0.200000X-0.275000X0.200000X-0.275000X0.200000X0.275000X-0.200000X0.275000X0*%
%ADD26RotRect,1.400000X1.400000X89.998000*%
%ADD27R,1.400000X1.400000*%
%ADD28RoundRect,0.200000X0.179464X0.288821X-0.219477X0.259721X-0.179464X-0.288821X0.219477X-0.259721X0*%
%ADD29RoundRect,0.200000X0.308345X-0.143347X0.231377X0.249178X-0.308345X0.143347X-0.231377X-0.249178X0*%
%ADD30RotRect,1.300000X1.300000X187.500000*%
%ADD31RoundRect,0.250000X0.475000X-0.250000X0.475000X0.250000X-0.475000X0.250000X-0.475000X-0.250000X0*%
%ADD32RoundRect,0.150000X-0.688161X-0.067521X0.651990X-0.230290X0.688161X0.067521X-0.651990X0.230290X0*%
%ADD33RoundRect,0.225000X-0.325925X0.083054X-0.116808X-0.315406X0.325925X-0.083054X0.116808X0.315406X0*%
%ADD34RoundRect,0.200000X-0.206410X0.270222X-0.320672X-0.113111X0.206410X-0.270222X0.320672X0.113111X0*%
%ADD35RoundRect,0.225000X-0.327190X-0.077922X0.043146X-0.333562X0.327190X0.077922X-0.043146X0.333562X0*%
%ADD36RotRect,1.400000X1.400000X75.000000*%
%ADD37RotRect,1.300000X1.300000X225.000000*%
%ADD38RoundRect,0.200000X-0.333690X0.065391X-0.165022X-0.297309X0.333690X-0.065391X0.165022X0.297309X0*%
%ADD39RoundRect,0.200000X-0.209476X-0.267853X0.190281X-0.281812X0.209476X0.267853X-0.190281X0.281812X0*%
%ADD40RoundRect,0.200000X0.172722X0.292903X-0.225437X0.254565X-0.172722X-0.292903X0.225437X-0.254565X0*%
%ADD41RoundRect,0.200000X0.231351X-0.249202X0.308360X0.143315X-0.231351X0.249202X-0.308360X-0.143315X0*%
%ADD42RoundRect,0.200000X-0.179474X-0.288815X0.219467X-0.259729X0.179474X0.288815X-0.219467X0.259729X0*%
%ADD43RoundRect,0.150000X0.577947X0.379608X-0.684327X-0.099103X-0.577947X-0.379608X0.684327X0.099103X0*%
%ADD44RotRect,1.400000X1.400000X145.382000*%
%ADD45RoundRect,0.200000X-0.338422X0.033095X-0.135756X-0.311762X0.338422X-0.033095X0.135756X0.311762X0*%
%ADD46RotRect,1.400000X1.400000X67.500000*%
%ADD47RoundRect,0.200000X0.165002X-0.297320X0.333695X0.065368X-0.165002X0.297320X-0.333695X-0.065368X0*%
%ADD48RotRect,1.300000X1.300000X311.538000*%
%ADD49RoundRect,0.200000X0.339642X0.016377X0.089066X0.328165X-0.339642X-0.016377X-0.089066X-0.328165X0*%
%ADD50RoundRect,0.150000X-0.150000X0.675000X-0.150000X-0.675000X0.150000X-0.675000X0.150000X0.675000X0*%
%ADD51RotRect,1.400000X1.400000X76.152000*%
%ADD52RoundRect,0.200000X0.267853X-0.209476X0.281812X0.190281X-0.267853X0.209476X-0.281812X-0.190281X0*%
%ADD53RoundRect,0.200000X0.024699X0.339139X-0.315030X0.127989X-0.024699X-0.339139X0.315030X-0.127989X0*%
%ADD54RoundRect,0.218750X0.218750X0.256250X-0.218750X0.256250X-0.218750X-0.256250X0.218750X-0.256250X0*%
%ADD55RoundRect,0.150000X0.335337X0.604710X-0.559888X-0.405771X-0.335337X-0.604710X0.559888X0.405771X0*%
%ADD56RoundRect,0.200000X-0.256736X-0.222962X0.133012X-0.312942X0.256736X0.222962X-0.133012X0.312942X0*%
%ADD57RoundRect,0.225000X-0.250000X0.225000X-0.250000X-0.225000X0.250000X-0.225000X0.250000X0.225000X0*%
%ADD58RotRect,1.400000X1.400000X352.500000*%
%ADD59RotRect,1.300000X1.300000X345.000000*%
%ADD60RotRect,1.300000X1.300000X325.384000*%
%ADD61RoundRect,0.225000X-0.225000X-0.250000X0.225000X-0.250000X0.225000X0.250000X-0.225000X0.250000X0*%
%ADD62RotRect,1.400000X1.400000X186.920000*%
%ADD63RoundRect,0.150000X0.015907X0.691283X-0.307188X-0.619484X-0.015907X-0.691283X0.307188X0.619484X0*%
%ADD64RoundRect,0.200000X0.079222X-0.330679X0.339001X-0.026517X-0.079222X0.330679X-0.339001X0.026517X0*%
%ADD65RotRect,1.400000X1.400000X62.306000*%
%ADD66RotRect,1.300000X1.300000X315.000000*%
%ADD67RotRect,1.400000X1.400000X195.000000*%
%ADD68RoundRect,0.200000X0.199737X-0.275191X0.323344X0.105232X-0.199737X0.275191X-0.323344X-0.105232X0*%
%ADD69RotRect,1.400000X1.400000X112.500000*%
%ADD70RotRect,1.400000X1.400000X135.000000*%
%ADD71RotRect,1.400000X1.400000X165.000000*%
%ADD72RoundRect,0.225000X0.299040X0.153948X-0.121707X0.313548X-0.299040X-0.153948X0.121707X-0.313548X0*%
%ADD73RoundRect,0.150000X0.307145X-0.619505X-0.015859X0.691284X-0.307145X0.619505X0.015859X-0.691284X0*%
%ADD74RoundRect,0.200000X0.325857X0.097171X0.007956X0.339944X-0.325857X-0.097171X-0.007956X-0.339944X0*%
%ADD75RoundRect,0.200000X0.133012X0.312942X-0.256736X0.222962X-0.133012X-0.312942X0.256736X-0.222962X0*%
%ADD76RoundRect,0.150000X-0.180901X-0.667383X0.446531X0.527953X0.180901X0.667383X-0.446531X-0.527953X0*%
%ADD77RotRect,1.400000X1.400000X159.228000*%
%ADD78RotRect,1.400000X1.400000X105.000000*%
%ADD79RotRect,1.400000X1.400000X228.458000*%
%ADD80RoundRect,0.200000X-0.336511X-0.048843X-0.057214X-0.335189X0.336511X0.048843X0.057214X0.335189X0*%
%ADD81RotRect,1.300000X1.300000X15.000000*%
%ADD82RotRect,1.300000X1.300000X20.768000*%
%ADD83RoundRect,0.200000X-0.172722X-0.292903X0.225437X-0.254565X0.172722X0.292903X-0.225437X0.254565X0*%
%ADD84RotRect,1.300000X1.300000X214.612000*%
%ADD85RotRect,1.300000X1.300000X283.846000*%
%ADD86RotRect,1.400000X1.400000X117.690000*%
%ADD87RoundRect,0.200000X-0.007932X0.339944X-0.325850X0.097194X0.007932X-0.339944X0.325850X-0.097194X0*%
%ADD88RoundRect,0.200000X-0.089043X0.328171X-0.339641X0.016401X0.089043X-0.328171X0.339641X-0.016401X0*%
%ADD89RoundRect,0.150000X-0.675000X-0.150000X0.675000X-0.150000X0.675000X0.150000X-0.675000X0.150000X0*%
%ADD90RoundRect,0.200000X-0.256522X0.223207X-0.291385X-0.175271X0.256522X-0.223207X0.291385X0.175271X0*%
%ADD91RoundRect,0.218750X-0.256250X0.218750X-0.256250X-0.218750X0.256250X-0.218750X0.256250X0.218750X0*%
%ADD92RoundRect,0.200000X-0.073663X-0.331962X0.293116X-0.172360X0.073663X0.331962X-0.293116X0.172360X0*%
%ADD93RotRect,1.300000X1.300000X48.460000*%
%ADD94RoundRect,0.200000X0.222962X-0.256736X0.312942X0.133012X-0.222962X0.256736X-0.312942X-0.133012X0*%
%ADD95RoundRect,0.200000X0.339001X0.026517X0.079222X0.330679X-0.339001X-0.026517X-0.079222X-0.330679X0*%
%ADD96RotRect,1.400000X1.400000X173.074000*%
%ADD97RotRect,1.400000X1.400000X256.150000*%
%ADD98RotRect,1.400000X1.400000X187.500000*%
%ADD99RotRect,1.400000X1.400000X20.768000*%
%ADD100RoundRect,0.150000X-0.470325X-0.506872X0.640735X0.259969X0.470325X0.506872X-0.640735X-0.259969X0*%
%ADD101RoundRect,0.200000X0.179474X0.288815X-0.219467X0.259729X-0.179474X-0.288815X0.219467X-0.259729X0*%
%ADD102RoundRect,0.150000X0.559888X-0.405771X-0.335337X0.604710X-0.559888X0.405771X0.335337X-0.604710X0*%
%ADD103RotRect,1.300000X1.300000X62.306000*%
%ADD104RoundRect,0.200000X-0.225437X-0.254565X0.172722X-0.292903X0.225437X0.254565X-0.172722X0.292903X0*%
%ADD105RotRect,1.300000X1.300000X82.500000*%
%ADD106RotRect,1.400000X1.400000X6.922000*%
%ADD107RoundRect,0.200000X0.254565X-0.225437X0.292903X0.172722X-0.254565X0.225437X-0.292903X-0.172722X0*%
%ADD108RotRect,1.300000X1.300000X297.692000*%
%ADD109RoundRect,0.200000X0.308350X-0.143337X0.231368X0.249186X-0.308350X0.143337X-0.231368X-0.249186X0*%
%ADD110RoundRect,0.200000X0.007932X-0.339944X0.325850X-0.097194X-0.007932X0.339944X-0.325850X0.097194X0*%
%ADD111RotRect,1.300000X1.300000X97.500000*%
%ADD112RotRect,1.400000X1.400000X45.000000*%
%ADD113RoundRect,0.200000X0.265088X-0.212964X0.284279X0.186576X-0.265088X0.212964X-0.284279X-0.186576X0*%
%ADD114RoundRect,0.200000X0.219486X0.259713X-0.179453X0.288828X-0.219486X-0.259713X0.179453X-0.288828X0*%
%ADD115RoundRect,0.200000X-0.057191X0.335193X-0.336507X0.048867X0.057191X-0.335193X0.336507X-0.048867X0*%
%ADD116RotRect,1.300000X1.300000X117.690000*%
%ADD117RoundRect,0.200000X0.089043X-0.328171X0.339641X-0.016401X-0.089043X0.328171X-0.339641X0.016401X0*%
%ADD118RotRect,1.300000X1.300000X34.614000*%
%ADD119RoundRect,0.200000X-0.133012X-0.312942X0.256736X-0.222962X0.133012X0.312942X-0.256736X0.222962X0*%
%ADD120RotRect,1.400000X1.400000X200.766000*%
%ADD121RotRect,1.400000X1.400000X131.536000*%
%ADD122RoundRect,0.200000X-0.231351X0.249202X-0.308360X-0.143315X0.231351X-0.249202X0.308360X0.143315X0*%
%ADD123RotRect,1.300000X1.300000X75.000000*%
%ADD124RoundRect,0.200000X0.200000X0.275000X-0.200000X0.275000X-0.200000X-0.275000X0.200000X-0.275000X0*%
%ADD125RoundRect,0.200000X0.187814X0.283462X-0.211805X0.266014X-0.187814X-0.283462X0.211805X-0.266014X0*%
%ADD126RotRect,1.400000X1.400000X339.230000*%
%ADD127RoundRect,0.200000X0.105130X0.323377X-0.275254X0.199651X-0.105130X-0.323377X0.275254X-0.199651X0*%
%ADD128RoundRect,0.200000X0.333690X-0.065391X0.165022X0.297309X-0.333690X0.065391X-0.165022X-0.297309X0*%
%ADD129RotRect,1.300000X1.300000X186.920000*%
%ADD130RotRect,1.400000X1.400000X7.500000*%
%ADD131RotRect,1.300000X1.300000X352.500000*%
%ADD132RoundRect,0.200000X-0.179464X-0.288821X0.219477X-0.259721X0.179464X0.288821X-0.219477X0.259721X0*%
%ADD133RoundRect,0.200000X0.256736X0.222962X-0.133012X0.312942X-0.256736X-0.222962X0.133012X-0.312942X0*%
%ADD134RoundRect,0.200000X-0.219495X-0.259706X0.179443X-0.288834X0.219495X0.259706X-0.179443X0.288834X0*%
%ADD135RoundRect,0.200000X0.283462X-0.187814X0.266014X0.211805X-0.283462X0.187814X-0.266014X-0.211805X0*%
%ADD136RoundRect,0.150000X-0.640716X0.260014X0.470290X-0.506905X0.640716X-0.260014X-0.470290X0.506905X0*%
%ADD137RoundRect,0.200000X-0.265088X0.212964X-0.284279X-0.186576X0.265088X-0.212964X0.284279X0.186576X0*%
%ADD138RoundRect,0.225000X0.193226X0.275298X-0.253493X0.221057X-0.193226X-0.275298X0.253493X-0.221057X0*%
%ADD139RoundRect,0.200000X0.219495X0.259706X-0.179443X0.288834X-0.219495X-0.259706X0.179443X-0.288834X0*%
%ADD140RoundRect,0.200000X-0.105130X-0.323377X0.275254X-0.199651X0.105130X0.323377X-0.275254X0.199651X0*%
%ADD141RoundRect,0.200000X-0.024699X-0.339139X0.315030X-0.127989X0.024699X0.339139X-0.315030X0.127989X0*%
%ADD142RotRect,1.300000X1.300000X89.998000*%
%ADD143RoundRect,0.225000X-0.043169X-0.333559X0.327184X-0.077945X0.043169X0.333559X-0.327184X0.077945X0*%
%ADD144RotRect,1.400000X1.400000X48.460000*%
%ADD145RoundRect,0.200000X0.225437X0.254565X-0.172722X0.292903X-0.225437X-0.254565X0.172722X-0.292903X0*%
%ADD146RotRect,1.300000X1.300000X242.304000*%
%ADD147RotRect,1.400000X1.400000X345.000000*%
%ADD148RotRect,1.400000X1.400000X214.612000*%
%ADD149RotRect,1.300000X1.300000X228.458000*%
%ADD150RotRect,1.300000X1.300000X103.844000*%
%ADD151RotRect,1.300000X1.300000X105.000000*%
%ADD152RotRect,1.300000X1.300000X200.766000*%
%ADD153RoundRect,0.200000X0.312942X-0.133012X0.222962X0.256736X-0.312942X0.133012X-0.222962X-0.256736X0*%
%ADD154RoundRect,0.200000X0.292903X-0.172722X0.254565X0.225437X-0.292903X0.172722X-0.254565X-0.225437X0*%
%ADD155RotRect,1.300000X1.300000X159.228000*%
%ADD156RoundRect,0.200000X-0.325857X-0.097171X-0.007956X-0.339944X0.325857X0.097171X0.007956X0.339944X0*%
%ADD157RoundRect,0.200000X0.293128X0.172339X-0.073640X0.331967X-0.293128X-0.172339X0.073640X-0.331967X0*%
%ADD158RoundRect,0.200000X0.206410X-0.270222X0.320672X0.113111X-0.206410X0.270222X-0.320672X-0.113111X0*%
%ADD159RoundRect,0.150000X0.651998X0.230268X-0.688159X0.067545X-0.651998X-0.230268X0.688159X-0.067545X0*%
%ADD160RoundRect,0.200000X0.338422X-0.033095X0.135756X0.311762X-0.338422X0.033095X-0.135756X-0.311762X0*%
%ADD161RoundRect,0.200000X-0.339642X-0.016377X-0.089066X-0.328165X0.339642X0.016377X0.089066X0.328165X0*%
%ADD162RotRect,1.400000X1.400000X283.846000*%
%ADD163RoundRect,0.225000X0.250000X-0.225000X0.250000X0.225000X-0.250000X0.225000X-0.250000X-0.225000X0*%
%ADD164RotRect,1.400000X1.400000X34.614000*%
%ADD165RotRect,1.300000X1.300000X172.500000*%
%ADD166RoundRect,0.225000X0.116786X-0.315414X0.325931X0.083031X-0.116786X0.315414X-0.325931X-0.083031X0*%
%ADD167RoundRect,0.225000X-0.037922X0.334196X-0.336330X-0.002631X0.037922X-0.334196X0.336330X0.002631X0*%
%ADD168RotRect,1.300000X1.300000X173.074000*%
%ADD169RotRect,1.300000X1.300000X145.382000*%
%ADD170RotRect,1.400000X1.400000X97.500000*%
%ADD171RotRect,1.400000X1.400000X311.538000*%
%ADD172RoundRect,0.225000X0.296573X-0.158649X0.188905X0.278280X-0.296573X0.158649X-0.188905X-0.278280X0*%
%ADD173RotRect,1.300000X1.300000X131.536000*%
%ADD174RoundRect,0.200000X-0.284272X0.186586X-0.265095X-0.212954X0.284272X-0.186586X0.265095X0.212954X0*%
%ADD175RotRect,1.300000X1.300000X353.076000*%
%ADD176RotRect,1.300000X1.300000X7.500000*%
%ADD177RotRect,1.300000X1.300000X339.230000*%
%ADD178RotRect,1.400000X1.400000X15.000000*%
%ADD179RotRect,1.400000X1.400000X297.692000*%
%ADD180RoundRect,0.200000X-0.308345X0.143347X-0.231377X-0.249178X0.308345X-0.143347X0.231377X0.249178X0*%
%ADD181RoundRect,0.200000X-0.315039X-0.127967X0.024675X-0.339140X0.315039X0.127967X-0.024675X0.339140X0*%
%ADD182RoundRect,0.200000X0.336511X0.048843X0.057214X0.335189X-0.336511X-0.048843X-0.057214X-0.335189X0*%
%ADD183RotRect,1.300000X1.300000X292.500000*%
%ADD184RoundRect,0.225000X0.121729X0.313540X-0.299029X0.153969X-0.121729X-0.313540X0.299029X-0.153969X0*%
%ADD185RoundRect,0.350000X0.350000X-0.350000X0.350000X0.350000X-0.350000X0.350000X-0.350000X-0.350000X0*%
%ADD186RoundRect,0.200000X0.275268X0.199631X-0.105107X0.323384X-0.275268X-0.199631X0.105107X-0.323384X0*%
%ADD187RoundRect,0.225000X-0.253501X-0.221048X0.193216X-0.275304X0.253501X0.221048X-0.193216X0.275304X0*%
%ADD188RoundRect,0.200000X0.073663X0.331962X-0.293116X0.172360X-0.073663X-0.331962X0.293116X-0.172360X0*%
%ADD189RotRect,1.400000X1.400000X172.500000*%
%ADD190RoundRect,0.200000X-0.219486X-0.259713X0.179453X-0.288828X0.219486X0.259713X-0.179453X0.288828X0*%
%ADD191RoundRect,0.200000X-0.308350X0.143337X-0.231368X-0.249186X0.308350X-0.143337X0.231368X0.249186X0*%
%ADD192RoundRect,0.225000X0.336330X-0.002655X0.037945X0.334193X-0.336330X0.002655X-0.037945X-0.334193X0*%
%ADD193RotRect,1.300000X1.300000X256.150000*%
%ADD194RotRect,1.300000X1.300000X76.152000*%
%ADD195RotRect,1.400000X1.400000X82.500000*%
%ADD196RoundRect,0.150000X0.684327X-0.099103X-0.577947X0.379608X-0.684327X0.099103X0.577947X-0.379608X0*%
%ADD197RoundRect,0.200000X0.135734X-0.311771X0.338425X0.033072X-0.135734X0.311771X-0.338425X-0.033072X0*%
%ADD198RoundRect,0.200000X0.323344X-0.105232X0.199737X0.275191X-0.323344X0.105232X-0.199737X-0.275191X0*%
%ADD199RoundRect,0.200000X0.209476X0.267853X-0.190281X0.281812X-0.209476X-0.267853X0.190281X-0.281812X0*%
%ADD200RoundRect,0.150000X-0.446494X0.527985X0.180855X-0.667395X0.446494X-0.527985X-0.180855X0.667395X0*%
%ADD201RoundRect,0.200000X-0.293128X-0.172339X0.073640X-0.331967X0.293128X0.172339X-0.073640X0.331967X0*%
%ADD202RoundRect,0.200000X0.057191X-0.335193X0.336507X-0.048867X-0.057191X0.335193X-0.336507X0.048867X0*%
%ADD203RoundRect,0.200000X-0.275268X-0.199631X0.105107X-0.323384X0.275268X0.199631X-0.105107X0.323384X0*%
%ADD204RoundRect,0.225000X-0.188885X0.278294X-0.296584X-0.158629X0.188885X-0.278294X0.296584X0.158629X0*%
%ADD205RotRect,1.400000X1.400000X103.844000*%
%ADD206RoundRect,0.200000X0.284272X-0.186586X0.265095X0.212954X-0.284272X0.186586X-0.265095X-0.212954X0*%
%ADD207RotRect,1.300000X1.300000X6.922000*%
%ADD208RotRect,1.400000X1.400000X325.384000*%
%ADD209RotRect,1.400000X1.400000X242.304000*%
%ADD210RoundRect,0.200000X0.289844X-0.177807X0.258460X0.220960X-0.289844X0.177807X-0.258460X-0.220960X0*%
%ADD211RoundRect,0.200000X-0.187814X-0.283462X0.211805X-0.266014X0.187814X0.283462X-0.211805X0.266014X0*%
%ADD212RoundRect,0.200000X0.315039X0.127967X-0.024675X0.339140X-0.315039X-0.127967X0.024675X-0.339140X0*%
%ADD213RoundRect,0.150000X0.150000X-0.675000X0.150000X0.675000X-0.150000X0.675000X-0.150000X-0.675000X0*%
%ADD214RoundRect,0.200000X-0.165002X0.297320X-0.333695X-0.065368X0.165002X-0.297320X0.333695X0.065368X0*%
G04 APERTURE END LIST*
D10*
%TO.C,C20*%
X-11967677Y-50400000D03*
D11*
X-6967677Y-50400000D03*
%TD*%
D12*
%TO.C,REF\u002A\u002A*%
X-47070669Y24999019D03*
%TD*%
%TO.C,REF\u002A\u002A*%
X79994425Y25636949D03*
%TD*%
%TO.C,REF\u002A\u002A*%
X47075818Y-25000968D03*
%TD*%
%TO.C,REF\u002A\u002A*%
X87393986Y-31808854D03*
%TD*%
%TO.C,REF\u002A\u002A*%
X87393986Y31806892D03*
%TD*%
%TO.C,REF\u002A\u002A*%
X-47070669Y-25000981D03*
%TD*%
%TO.C,REF\u002A\u002A*%
X-79989281Y-25638911D03*
%TD*%
%TO.C,REF\u002A\u002A*%
X-87388842Y31806892D03*
%TD*%
%TO.C,REF\u002A\u002A*%
X25640502Y-79992834D03*
%TD*%
%TO.C,REF\u002A\u002A*%
X31810445Y-87392395D03*
%TD*%
D13*
%TO.C,J1*%
X1250000Y-55500000D03*
D14*
X-1250000Y-55500000D03*
%TD*%
D12*
%TO.C,REF\u002A\u002A*%
X30316322Y92112824D03*
%TD*%
%TO.C,REF\u002A\u002A*%
X79994425Y-25638911D03*
%TD*%
%TO.C,REF\u002A\u002A*%
X-87388828Y-31808881D03*
%TD*%
D11*
%TO.C,J2*%
X-37997528Y5999123D03*
X-37997528Y1999123D03*
X-37997528Y-2000877D03*
X-37997528Y-6000877D03*
%TD*%
D12*
%TO.C,REF\u002A\u002A*%
X-37686219Y-37689772D03*
%TD*%
%TO.C,REF\u002A\u002A*%
X-79989281Y25636949D03*
%TD*%
%TO.C,REF\u002A\u002A*%
X-25635358Y-79992831D03*
%TD*%
%TO.C,REF\u002A\u002A*%
X-30311177Y92112824D03*
%TD*%
%TO.C,REF\u002A\u002A*%
X37691364Y37687811D03*
%TD*%
%TO.C,REF\u002A\u002A*%
X-31805301Y-87392395D03*
%TD*%
%TO.C,REF\u002A\u002A*%
X-81767428Y11429019D03*
%TD*%
%TO.C,REF\u002A\u002A*%
X37691363Y-37689772D03*
%TD*%
%TO.C,REF\u002A\u002A*%
X-37686220Y37687811D03*
%TD*%
%TO.C,REF\u002A\u002A*%
X47075813Y24999019D03*
%TD*%
D15*
%TO.C,U42*%
X91021644Y-24389396D03*
D16*
X93475096Y-25046796D03*
%TD*%
D17*
%TO.C,U30*%
X-13877473Y80661453D03*
D16*
X-12905457Y83008107D03*
%TD*%
D18*
%TO.C,R81*%
X-78158064Y-12751479D03*
X-78158064Y-11101479D03*
%TD*%
D19*
%TO.C,R55*%
X32850971Y55885216D03*
X32014873Y54462740D03*
%TD*%
D20*
%TO.C,U46*%
X91021644Y24387642D03*
D16*
X93475096Y25045042D03*
%TD*%
D21*
%TO.C,U34*%
X-94228664Y-876D03*
D16*
X-96768664Y-876D03*
%TD*%
D22*
%TO.C,D7*%
X-63798795Y7747041D03*
D23*
X-61277319Y7440837D03*
%TD*%
D24*
%TO.C,JP8*%
X-43347528Y-4500881D03*
X-44647528Y-4500881D03*
%TD*%
D25*
%TO.C,R88*%
X-825000Y-52300006D03*
X825000Y-52300006D03*
%TD*%
D26*
%TO.C,D14*%
X236Y-64270878D03*
D23*
X324Y-61730878D03*
%TD*%
D27*
%TO.C,D39*%
X2454Y-91770877D03*
D23*
X2454Y-89230877D03*
%TD*%
D28*
%TO.C,R8*%
X-65997192Y-4815162D03*
X-67642820Y-4935200D03*
%TD*%
D29*
%TO.C,R45*%
X12476029Y-63614480D03*
X12158537Y-61995314D03*
%TD*%
D30*
%TO.C,U45*%
X93426303Y12298607D03*
D16*
X95944573Y12630143D03*
%TD*%
D27*
%TO.C,D44*%
X91772454Y-877D03*
D23*
X89232454Y-877D03*
%TD*%
D31*
%TO.C,C22*%
X-80408064Y-9626479D03*
X-80408064Y-7726479D03*
%TD*%
D32*
%TO.C,U54*%
X-10730392Y-66597651D03*
X-10577268Y-65336916D03*
X-10424144Y-64076181D03*
X-10271020Y-62815446D03*
X-5059320Y-63448439D03*
X-5212444Y-64709174D03*
X-5365568Y-65969909D03*
X-5518692Y-67230644D03*
%TD*%
D33*
%TO.C,C5*%
X-61454864Y-31379146D03*
X-60734574Y-32751620D03*
%TD*%
D34*
%TO.C,R13*%
X-18900760Y-63418534D03*
X-19372090Y-64999782D03*
%TD*%
D35*
%TO.C,C6*%
X-39833390Y-56345393D03*
X-38557790Y-57225929D03*
%TD*%
D36*
%TO.C,D37*%
X-23749370Y-88643890D03*
D23*
X-23091970Y-86190438D03*
%TD*%
D37*
%TO.C,U31*%
X-25644309Y88523801D03*
D16*
X-23848257Y90319853D03*
%TD*%
D38*
%TO.C,R16*%
X27906396Y-60005048D03*
X28602150Y-61501186D03*
%TD*%
D39*
%TO.C,R64*%
X-91266912Y3186327D03*
X-89617918Y3128743D03*
%TD*%
D40*
%TO.C,R75*%
X90907013Y8752244D03*
X89264609Y8594098D03*
%TD*%
D41*
%TO.C,R26*%
X12742594Y64936165D03*
X13060256Y66555297D03*
%TD*%
D42*
%TO.C,R21*%
X66002268Y4811103D03*
X67647900Y4931085D03*
%TD*%
D27*
%TO.C,D34*%
X-91768664Y-876D03*
D23*
X-89228664Y-876D03*
%TD*%
D43*
%TO.C,U48*%
X-21444988Y63954815D03*
X-20994644Y62767342D03*
X-20544301Y61579870D03*
X-20093957Y60392397D03*
X-25002800Y58530741D03*
X-25453144Y59718214D03*
X-25903487Y60905686D03*
X-26353831Y62093159D03*
%TD*%
D44*
%TO.C,D18*%
X52893985Y-36512814D03*
D23*
X50803671Y-35069834D03*
%TD*%
D45*
%TO.C,R33*%
X-32842160Y55887510D03*
X-32006164Y54464974D03*
%TD*%
D46*
%TO.C,D30*%
X-15790891Y76042055D03*
D23*
X-14818875Y78388709D03*
%TD*%
D47*
%TO.C,R42*%
X-27336338Y-58779027D03*
X-26640480Y-57282939D03*
%TD*%
D48*
%TO.C,U4*%
X-44247293Y49947600D03*
D16*
X-45931609Y51848830D03*
%TD*%
D49*
%TO.C,R4*%
X-41452251Y51580496D03*
X-42485877Y52866620D03*
%TD*%
D50*
%TO.C,U51*%
X-80607918Y2624121D03*
X-79337918Y2624121D03*
X-78067918Y2624121D03*
X-76797918Y2624121D03*
X-76797918Y-2625879D03*
X-78067918Y-2625879D03*
X-79337918Y-2625879D03*
X-80607918Y-2625879D03*
%TD*%
D51*
%TO.C,D13*%
X-15380349Y-62402813D03*
D23*
X-14772407Y-59936641D03*
%TD*%
D52*
%TO.C,R69*%
X-3184740Y-91270236D03*
X-3127156Y-89621242D03*
%TD*%
D53*
%TO.C,R53*%
X55059750Y34218630D03*
X53658368Y33347636D03*
%TD*%
D54*
%TO.C,D48*%
X787500Y-50300006D03*
X-787500Y-50300006D03*
%TD*%
D55*
%TO.C,U49*%
X-48709753Y46662202D03*
X-47759152Y45820028D03*
X-46808551Y44977853D03*
X-45857950Y44135678D03*
X-49339381Y40206030D03*
X-50289982Y41048204D03*
X-51240583Y41890379D03*
X-52191184Y42732554D03*
%TD*%
D56*
%TO.C,R62*%
X-88981892Y20542785D03*
X-87374182Y20171615D03*
%TD*%
D57*
%TO.C,C4*%
X-82165251Y785999D03*
X-82165251Y-764001D03*
%TD*%
D24*
%TO.C,JP9*%
X-46847528Y999119D03*
X-48147528Y999119D03*
%TD*%
D58*
%TO.C,D33*%
X-90982441Y11977512D03*
D23*
X-88464171Y11645976D03*
%TD*%
D59*
%TO.C,U32*%
X-91016736Y24387642D03*
D16*
X-93470188Y25045042D03*
%TD*%
D60*
%TO.C,U5*%
X-54914826Y37906671D03*
D16*
X-57005190Y39349577D03*
%TD*%
D61*
%TO.C,C19*%
X-86598064Y-15051479D03*
X-85048064Y-15051479D03*
%TD*%
D62*
%TO.C,D21*%
X63804293Y7742587D03*
D23*
X61282797Y7436559D03*
%TD*%
D63*
%TO.C,U50*%
X-64815375Y18679873D03*
X-63582285Y18375924D03*
X-62349192Y18071974D03*
X-61116100Y17768025D03*
X-62372583Y12670599D03*
X-63605673Y12974548D03*
X-64838766Y13278498D03*
X-66071858Y13582447D03*
%TD*%
D64*
%TO.C,R61*%
X-26511281Y83126982D03*
X-25439691Y84381652D03*
%TD*%
D65*
%TO.C,D12*%
X-29866960Y-56908255D03*
D23*
X-28686496Y-54659231D03*
%TD*%
D66*
%TO.C,U27*%
X25649217Y88523801D03*
D16*
X23853165Y90319853D03*
%TD*%
D67*
%TO.C,D46*%
X88645467Y23750947D03*
D23*
X86192015Y23093547D03*
%TD*%
D68*
%TO.C,R60*%
X-12613183Y75343674D03*
X-12103305Y76912918D03*
%TD*%
D69*
%TO.C,D28*%
X15795800Y76042055D03*
D23*
X14823784Y78388709D03*
%TD*%
D31*
%TO.C,C21*%
X-78158064Y-9626479D03*
X-78158064Y-7726479D03*
%TD*%
D70*
%TO.C,D27*%
X29184751Y84988267D03*
D23*
X27388699Y86784319D03*
%TD*%
D61*
%TO.C,C14*%
X-772530Y-82201479D03*
X777470Y-82201479D03*
%TD*%
D71*
%TO.C,D42*%
X88645467Y-23752701D03*
D23*
X86192015Y-23095301D03*
%TD*%
D72*
%TO.C,C12*%
X25199080Y64238766D03*
X23749840Y64788498D03*
%TD*%
D73*
%TO.C,U59*%
X66077764Y13577834D03*
X64844651Y13273971D03*
X63611538Y12970108D03*
X62378425Y12666245D03*
X61122298Y17763758D03*
X62355411Y18067621D03*
X63588524Y18371484D03*
X64821637Y18675347D03*
%TD*%
D74*
%TO.C,R48*%
X51522363Y-39345248D03*
X50211019Y-38343810D03*
%TD*%
D75*
%TO.C,R76*%
X88986803Y20542786D03*
X87379093Y20171616D03*
%TD*%
D76*
%TO.C,U57*%
X58465163Y-33652614D03*
X57340661Y-33062362D03*
X56216160Y-32472111D03*
X55091658Y-31881860D03*
X57531673Y-27233330D03*
X58656175Y-27823582D03*
X59780676Y-28413833D03*
X60905178Y-29004084D03*
%TD*%
D77*
%TO.C,D19*%
X60094871Y-22794239D03*
D23*
X57719973Y-21893427D03*
%TD*%
D78*
%TO.C,D41*%
X23754278Y-88643890D03*
D23*
X23096878Y-86190438D03*
%TD*%
D79*
%TO.C,D24*%
X42624342Y48103275D03*
D23*
X40939894Y46202161D03*
%TD*%
D80*
%TO.C,R17*%
X46208511Y-47373135D03*
X47360607Y-48554309D03*
%TD*%
D81*
%TO.C,U36*%
X-91016737Y-24389396D03*
D16*
X-93470189Y-25046796D03*
%TD*%
D82*
%TO.C,U9*%
X-62391663Y-23662322D03*
D16*
X-64766623Y-24562968D03*
%TD*%
D83*
%TO.C,R65*%
X-90902103Y-8753982D03*
X-89259699Y-8595836D03*
%TD*%
D84*
%TO.C,U23*%
X54922431Y37902837D03*
D16*
X57012895Y39345597D03*
%TD*%
D85*
%TO.C,U2*%
X-15966880Y64790111D03*
D16*
X-16574736Y67256305D03*
%TD*%
D86*
%TO.C,D16*%
X29867945Y-56910340D03*
D23*
X28687639Y-54661234D03*
%TD*%
D87*
%TO.C,R10*%
X-52593176Y-40160934D03*
X-53904590Y-41162280D03*
%TD*%
D88*
%TO.C,R54*%
X40614991Y50525377D03*
X39581275Y49239325D03*
%TD*%
D89*
%TO.C,U55*%
X-2622530Y-80611290D03*
X-2622530Y-79341290D03*
X-2622530Y-78071290D03*
X-2622530Y-76801290D03*
X2627470Y-76801290D03*
X2627470Y-78071290D03*
X2627470Y-79341290D03*
X2627470Y-80611290D03*
%TD*%
D90*
%TO.C,R27*%
X-3195100Y77635000D03*
X-3338900Y75991278D03*
%TD*%
D91*
%TO.C,D47*%
X-51400000Y787500D03*
X-51400000Y-787500D03*
%TD*%
D92*
%TO.C,R22*%
X60681532Y26403288D03*
X62194498Y27061646D03*
%TD*%
D21*
%TO.C,U1*%
X2479Y66729121D03*
D16*
X2479Y69269121D03*
%TD*%
D93*
%TO.C,U11*%
X-44249037Y-49947813D03*
D16*
X-45933419Y-51848985D03*
%TD*%
D61*
%TO.C,C17*%
X-86598064Y-16551479D03*
X-85048064Y-16551479D03*
%TD*%
D94*
%TO.C,R67*%
X-20541200Y-88985217D03*
X-20170030Y-87377507D03*
%TD*%
D95*
%TO.C,R57*%
X26516156Y83126985D03*
X25444566Y84381655D03*
%TD*%
D96*
%TO.C,D20*%
X63803482Y-7751026D03*
D23*
X61282018Y-7444734D03*
%TD*%
D97*
%TO.C,D26*%
X15387485Y62400519D03*
D23*
X14779457Y59934367D03*
%TD*%
D98*
%TO.C,D45*%
X90987348Y11977512D03*
D23*
X88469078Y11645976D03*
%TD*%
D99*
%TO.C,D9*%
X-60091504Y-22790044D03*
D23*
X-57716544Y-21889398D03*
%TD*%
D100*
%TO.C,U56*%
X36130179Y-56966780D03*
X35408781Y-55921561D03*
X34687382Y-54876341D03*
X33965983Y-53831122D03*
X38286773Y-50848962D03*
X39008171Y-51894181D03*
X39729570Y-52939401D03*
X40450969Y-53984620D03*
%TD*%
D101*
%TO.C,R51*%
X64655842Y4712937D03*
X63010210Y4592955D03*
%TD*%
D102*
%TO.C,U60*%
X52196142Y42732554D03*
X51245541Y41890379D03*
X50294940Y41048204D03*
X49344339Y40206030D03*
X45862908Y44135678D03*
X46813509Y44977853D03*
X47764110Y45820028D03*
X48714711Y46662202D03*
%TD*%
D103*
%TO.C,U12*%
X-31010243Y-59086443D03*
D16*
X-32190707Y-61335467D03*
%TD*%
D104*
%TO.C,R63*%
X-90902103Y8752242D03*
X-89259699Y8594096D03*
%TD*%
D105*
%TO.C,U38*%
X-12297029Y-93424726D03*
D16*
X-12628565Y-95942996D03*
%TD*%
D106*
%TO.C,D8*%
X-63799065Y-7746572D03*
D23*
X-61277579Y-7440456D03*
%TD*%
D107*
%TO.C,R68*%
X-8750658Y-90905429D03*
X-8592512Y-89263025D03*
%TD*%
D108*
%TO.C,U3*%
X-31008181Y59085768D03*
D16*
X-32188565Y61334832D03*
%TD*%
D109*
%TO.C,R2*%
X-12733153Y64937053D03*
X-13050701Y66556209D03*
%TD*%
D110*
%TO.C,R40*%
X-51520202Y-39341650D03*
X-50208788Y-38340304D03*
%TD*%
D111*
%TO.C,U40*%
X12301938Y-93424726D03*
D16*
X12633474Y-95942996D03*
%TD*%
D112*
%TO.C,D31*%
X-29179843Y84988267D03*
D23*
X-27383791Y86784319D03*
%TD*%
D113*
%TO.C,R1*%
X3177407Y66097915D03*
X3256571Y67746015D03*
%TD*%
D114*
%TO.C,R7*%
X-65997023Y4815712D03*
X-67642647Y4935808D03*
%TD*%
D115*
%TO.C,R11*%
X-46206910Y-47369909D03*
X-47359090Y-48551003D03*
%TD*%
D116*
%TO.C,U16*%
X31011076Y-59088608D03*
D16*
X32191382Y-61337714D03*
%TD*%
D117*
%TO.C,R24*%
X41460760Y51577602D03*
X42494476Y52863654D03*
%TD*%
D118*
%TO.C,U10*%
X-54916150Y-37906512D03*
D16*
X-57006564Y-39349346D03*
%TD*%
D119*
%TO.C,R66*%
X-88981891Y-20544524D03*
X-87374181Y-20173354D03*
%TD*%
D120*
%TO.C,D22*%
X60097257Y22786188D03*
D23*
X57722265Y21885626D03*
%TD*%
D121*
%TO.C,D17*%
X42619305Y-48109495D03*
D23*
X40935055Y-46208205D03*
%TD*%
D122*
%TO.C,R56*%
X12482690Y63611419D03*
X12165028Y61992287D03*
%TD*%
D123*
%TO.C,U37*%
X-24386065Y-91020067D03*
D16*
X-25043465Y-93473519D03*
%TD*%
D124*
%TO.C,R87*%
X-43172528Y-7000881D03*
X-44822528Y-7000881D03*
%TD*%
D125*
%TO.C,R30*%
X93737036Y4091610D03*
X92088606Y4019638D03*
%TD*%
D126*
%TO.C,D6*%
X-60090709Y22790383D03*
D23*
X-57715779Y21889655D03*
%TD*%
D127*
%TO.C,R9*%
X-62927283Y-20469846D03*
X-64496365Y-20980218D03*
%TD*%
D128*
%TO.C,R46*%
X27337143Y-58780936D03*
X26641389Y-57284798D03*
%TD*%
D129*
%TO.C,U21*%
X66246374Y8038976D03*
D16*
X68767870Y8345004D03*
%TD*%
D130*
%TO.C,D35*%
X-90982441Y-11979265D03*
D23*
X-88464171Y-11647729D03*
%TD*%
D131*
%TO.C,U33*%
X-93421396Y12298607D03*
D16*
X-95939666Y12630143D03*
%TD*%
D132*
%TO.C,R38*%
X-64650769Y-4716947D03*
X-63005141Y-4596909D03*
%TD*%
D133*
%TO.C,R72*%
X88986801Y-20544527D03*
X87379091Y-20173357D03*
%TD*%
D27*
%TO.C,D29*%
X2455Y72900564D03*
D23*
X2455Y75440564D03*
%TD*%
D134*
%TO.C,R20*%
X66001763Y-4819768D03*
X67647383Y-4939922D03*
%TD*%
D124*
%TO.C,R78*%
X-43173664Y-11500979D03*
X-44823664Y-11500979D03*
%TD*%
D135*
%TO.C,R29*%
X4093925Y-93736679D03*
X4021953Y-92088249D03*
%TD*%
D136*
%TO.C,U53*%
X-40449780Y-53981796D03*
X-39728308Y-52936627D03*
X-39006837Y-51891458D03*
X-38285365Y-50846288D03*
X-33964784Y-53828750D03*
X-34686256Y-54873919D03*
X-35407727Y-55919088D03*
X-36129199Y-56964258D03*
%TD*%
D137*
%TO.C,R31*%
X3112636Y64749470D03*
X3033472Y63101370D03*
%TD*%
D138*
%TO.C,C1*%
X-7545110Y68589459D03*
X-9083810Y68402629D03*
%TD*%
D139*
%TO.C,R50*%
X64655348Y-4721461D03*
X63009728Y-4601307D03*
%TD*%
D61*
%TO.C,C16*%
X-86598064Y-18051479D03*
X-85048064Y-18051479D03*
%TD*%
D140*
%TO.C,R39*%
X-61643488Y-20052271D03*
X-60074406Y-19541899D03*
%TD*%
D141*
%TO.C,R23*%
X56206335Y34931261D03*
X57607717Y35802255D03*
%TD*%
D142*
%TO.C,U14*%
X150Y-66730878D03*
D16*
X62Y-69270878D03*
%TD*%
D143*
%TO.C,C8*%
X38558752Y-57228621D03*
X39834414Y-56348173D03*
%TD*%
D144*
%TO.C,D11*%
X-42617705Y-48106520D03*
D23*
X-40933323Y-46205348D03*
%TD*%
D145*
%TO.C,R73*%
X90907013Y-8753984D03*
X89264609Y-8595838D03*
%TD*%
D146*
%TO.C,U25*%
X31017263Y59083603D03*
D16*
X32197805Y61332585D03*
%TD*%
D147*
%TO.C,D32*%
X-88640559Y23750947D03*
D23*
X-86187107Y23093547D03*
%TD*%
D21*
%TO.C,U29*%
X2455Y77900564D03*
D16*
X2455Y80440564D03*
%TD*%
D148*
%TO.C,D23*%
X52897808Y36505517D03*
D23*
X50807344Y35062757D03*
%TD*%
D149*
%TO.C,U24*%
X44255739Y49944509D03*
D16*
X45940187Y51845623D03*
%TD*%
D150*
%TO.C,U15*%
X15969577Y-64792425D03*
D16*
X16577347Y-67258643D03*
%TD*%
D151*
%TO.C,U41*%
X24390973Y-91020067D03*
D16*
X25048373Y-93473519D03*
%TD*%
D152*
%TO.C,U22*%
X62397447Y23658387D03*
D16*
X64772439Y24558949D03*
%TD*%
D153*
%TO.C,R71*%
X20546111Y-88985216D03*
X20174941Y-87377506D03*
%TD*%
D154*
%TO.C,R70*%
X8755570Y-90905427D03*
X8597424Y-89263023D03*
%TD*%
D155*
%TO.C,U19*%
X62394968Y-23666678D03*
D16*
X64769866Y-24567490D03*
%TD*%
D156*
%TO.C,R18*%
X52595281Y-40164605D03*
X53906625Y-41166043D03*
%TD*%
D157*
%TO.C,R6*%
X-60674781Y26407524D03*
X-62187701Y27065988D03*
%TD*%
D158*
%TO.C,R43*%
X-18515125Y-62124783D03*
X-18043795Y-60543535D03*
%TD*%
D159*
%TO.C,U47*%
X-5516345Y67229079D03*
X-5363265Y65968340D03*
X-5210185Y64707598D03*
X-5057105Y63446858D03*
X-10268827Y62814047D03*
X-10421907Y64074786D03*
X-10574987Y65335528D03*
X-10728067Y66596268D03*
%TD*%
D160*
%TO.C,R3*%
X-33526161Y57051401D03*
X-34362157Y58473937D03*
%TD*%
D161*
%TO.C,R34*%
X-40606556Y50528212D03*
X-39572930Y49242088D03*
%TD*%
D162*
%TO.C,D2*%
X-15378171Y62401592D03*
D23*
X-14770315Y59935398D03*
%TD*%
D124*
%TO.C,R77*%
X-43173664Y-9490979D03*
X-44823664Y-9490979D03*
%TD*%
D163*
%TO.C,C15*%
X82201936Y-775879D03*
X82201936Y774121D03*
%TD*%
D164*
%TO.C,D10*%
X-52891576Y-36509122D03*
D23*
X-50801162Y-35066288D03*
%TD*%
D165*
%TO.C,U43*%
X93426303Y-12300360D03*
D16*
X95944573Y-12631896D03*
%TD*%
D166*
%TO.C,C9*%
X60737245Y-32755860D03*
X61457631Y-31383438D03*
%TD*%
D167*
%TO.C,C3*%
X-51130407Y46335161D03*
X-52158259Y45174979D03*
%TD*%
D168*
%TO.C,U20*%
X66245532Y-8047671D03*
D16*
X68766996Y-8353963D03*
%TD*%
D27*
%TO.C,D1*%
X2479Y64269121D03*
D23*
X2479Y61729121D03*
%TD*%
D169*
%TO.C,U18*%
X54918461Y-37910346D03*
D16*
X57008775Y-39353326D03*
%TD*%
D170*
%TO.C,D40*%
X11980843Y-90985771D03*
D23*
X11649307Y-88467501D03*
%TD*%
D171*
%TO.C,D4*%
X-42616026Y48106249D03*
D23*
X-40931710Y46205019D03*
%TD*%
D172*
%TO.C,C10*%
X67183801Y15755724D03*
X66812945Y17260704D03*
%TD*%
D173*
%TO.C,U17*%
X44250508Y-49950902D03*
D16*
X45934758Y-51852192D03*
%TD*%
D21*
%TO.C,U39*%
X2454Y-94230877D03*
D16*
X2454Y-96770877D03*
%TD*%
D174*
%TO.C,R14*%
X3175100Y-66099779D03*
X3254206Y-67747881D03*
%TD*%
D175*
%TO.C,U7*%
X-66240854Y8043600D03*
D16*
X-68762330Y8349804D03*
%TD*%
D176*
%TO.C,U35*%
X-93421396Y-12300359D03*
D16*
X-95939666Y-12631895D03*
%TD*%
D177*
%TO.C,U6*%
X-62390836Y23662742D03*
D16*
X-64765766Y24563470D03*
%TD*%
D178*
%TO.C,D36*%
X-88640560Y-23752700D03*
D23*
X-86187108Y-23095300D03*
%TD*%
D179*
%TO.C,D3*%
X-29864973Y56907539D03*
D23*
X-28684589Y54658475D03*
%TD*%
D180*
%TO.C,R15*%
X12735795Y-64939252D03*
X13053287Y-66558418D03*
%TD*%
D181*
%TO.C,R35*%
X-55052454Y34222473D03*
X-53651134Y33351381D03*
%TD*%
D182*
%TO.C,R47*%
X45265887Y-46406719D03*
X44113791Y-45225545D03*
%TD*%
D183*
%TO.C,U28*%
X13882382Y80661453D03*
D16*
X12910366Y83008107D03*
%TD*%
D124*
%TO.C,R86*%
X-43172528Y999119D03*
X-44822528Y999119D03*
%TD*%
D61*
%TO.C,C18*%
X-83575000Y-16551479D03*
X-82025000Y-16551479D03*
%TD*%
D184*
%TO.C,C2*%
X-23740359Y64790156D03*
X-25189637Y64240524D03*
%TD*%
D185*
%TO.C,SW1*%
X-84450000Y-12800000D03*
X-84450000Y-6400000D03*
%TD*%
D186*
%TO.C,R49*%
X61646996Y-20056574D03*
X60077948Y-19546094D03*
%TD*%
D187*
%TO.C,C7*%
X-9086197Y-68404070D03*
X-7547505Y-68590954D03*
%TD*%
D188*
%TO.C,R52*%
X59443653Y25864631D03*
X57930687Y25206273D03*
%TD*%
D18*
%TO.C,R79*%
X-53850000Y-826479D03*
X-53850000Y823521D03*
%TD*%
D189*
%TO.C,D43*%
X90987348Y-11979265D03*
D23*
X88469078Y-11647729D03*
%TD*%
D190*
%TO.C,R37*%
X-64650604Y4717451D03*
X-63004980Y4597355D03*
%TD*%
D191*
%TO.C,R32*%
X-12473341Y63612291D03*
X-12155793Y61993135D03*
%TD*%
D192*
%TO.C,C11*%
X52166370Y45171337D03*
X51138600Y46331591D03*
%TD*%
D24*
%TO.C,JP7*%
X-43347528Y-1500881D03*
X-44647528Y-1500881D03*
%TD*%
D193*
%TO.C,U26*%
X15976362Y64788996D03*
D16*
X16584390Y67255148D03*
%TD*%
D194*
%TO.C,U13*%
X-15969142Y-64791312D03*
D16*
X-16577084Y-67257484D03*
%TD*%
D195*
%TO.C,D38*%
X-11975934Y-90985771D03*
D23*
X-11644398Y-88467501D03*
%TD*%
D196*
%TO.C,U61*%
X26358789Y62093159D03*
X25908445Y60905686D03*
X25458102Y59718214D03*
X25007758Y58530741D03*
X20098915Y60392397D03*
X20549259Y61579870D03*
X20999602Y62767342D03*
X21449946Y63954815D03*
%TD*%
D197*
%TO.C,R25*%
X33535051Y57049062D03*
X34371149Y58471538D03*
%TD*%
D198*
%TO.C,R58*%
X12618058Y75343677D03*
X12108180Y76912921D03*
%TD*%
D199*
%TO.C,R74*%
X91271822Y-3188066D03*
X89622828Y-3130482D03*
%TD*%
D200*
%TO.C,U52*%
X-60902244Y-28999832D03*
X-59777702Y-28409659D03*
X-58653159Y-27819487D03*
X-57528616Y-27229314D03*
X-55088926Y-31878014D03*
X-56213468Y-32468187D03*
X-57338011Y-33058359D03*
X-58462554Y-33648532D03*
%TD*%
D201*
%TO.C,R36*%
X-59436938Y25868781D03*
X-57924018Y25210317D03*
%TD*%
D202*
%TO.C,R41*%
X-45264219Y-46403559D03*
X-44112039Y-45222465D03*
%TD*%
D203*
%TO.C,R19*%
X62930761Y-20474241D03*
X64499809Y-20984721D03*
%TD*%
D204*
%TO.C,C13*%
X-66806782Y17265368D03*
X-67177744Y15760414D03*
%TD*%
D24*
%TO.C,JP10*%
X-46847528Y-7000881D03*
X-48147528Y-7000881D03*
%TD*%
D205*
%TO.C,D15*%
X15380951Y-62403889D03*
D23*
X14773181Y-59937671D03*
%TD*%
D206*
%TO.C,R44*%
X3110376Y-64751331D03*
X3031270Y-63103229D03*
%TD*%
D207*
%TO.C,U8*%
X-66241135Y-8043046D03*
D16*
X-68762621Y-8349162D03*
%TD*%
D208*
%TO.C,D5*%
X-52890302Y36509209D03*
D23*
X-50799938Y35066303D03*
%TD*%
D209*
%TO.C,D25*%
X29873904Y56905454D03*
D23*
X28693362Y54656472D03*
%TD*%
D210*
%TO.C,R59*%
X3205529Y73471406D03*
X3076071Y75116320D03*
%TD*%
D211*
%TO.C,R28*%
X-93734364Y-4093568D03*
X-92085934Y-4021596D03*
%TD*%
D212*
%TO.C,R5*%
X-56198989Y34935185D03*
X-57600309Y35806277D03*
%TD*%
D213*
%TO.C,U58*%
X80612876Y-2625879D03*
X79342876Y-2625879D03*
X78072876Y-2625879D03*
X76802876Y-2625879D03*
X76802876Y2624121D03*
X78072876Y2624121D03*
X79342876Y2624121D03*
X80612876Y2624121D03*
%TD*%
D214*
%TO.C,R12*%
X-27905677Y-60003101D03*
X-28601535Y-61499189D03*
%TD*%
D18*
%TO.C,R84*%
X-80408064Y-12751479D03*
X-80408064Y-11101479D03*
%TD*%
D21*
%TO.C,U44*%
X94232454Y-877D03*
D16*
X96772454Y-877D03*
%TD*%
M02*
