%TF.GenerationSoftware,KiCad,Pcbnew,7.0.6*%
%TF.CreationDate,2024-02-11T15:29:09+09:00*%
%TF.ProjectId,PowerSupply_20240202,506f7765-7253-4757-9070-6c795f323032,rev?*%
%TF.SameCoordinates,Original*%
%TF.FileFunction,Legend,Bot*%
%TF.FilePolarity,Positive*%
%FSLAX46Y46*%
G04 Gerber Fmt 4.6, Leading zero omitted, Abs format (unit mm)*
G04 Created by KiCad (PCBNEW 7.0.6) date 2024-02-11 15:29:09*
%MOMM*%
%LPD*%
G01*
G04 APERTURE LIST*
G04 Aperture macros list*
%AMRoundRect*
0 Rectangle with rounded corners*
0 $1 Rounding radius*
0 $2 $3 $4 $5 $6 $7 $8 $9 X,Y pos of 4 corners*
0 Add a 4 corners polygon primitive as box body*
4,1,4,$2,$3,$4,$5,$6,$7,$8,$9,$2,$3,0*
0 Add four circle primitives for the rounded corners*
1,1,$1+$1,$2,$3*
1,1,$1+$1,$4,$5*
1,1,$1+$1,$6,$7*
1,1,$1+$1,$8,$9*
0 Add four rect primitives between the rounded corners*
20,1,$1+$1,$2,$3,$4,$5,0*
20,1,$1+$1,$4,$5,$6,$7,0*
20,1,$1+$1,$6,$7,$8,$9,0*
20,1,$1+$1,$8,$9,$2,$3,0*%
G04 Aperture macros list end*
%ADD10C,0.000000*%
%ADD11C,0.150000*%
%ADD12C,0.120000*%
%ADD13C,1.675000*%
%ADD14C,1.600000*%
%ADD15O,1.600000X1.600000*%
%ADD16RoundRect,0.250001X-1.099999X-1.099999X1.099999X-1.099999X1.099999X1.099999X-1.099999X1.099999X0*%
%ADD17C,2.700000*%
%ADD18C,3.200000*%
%ADD19RoundRect,0.250001X1.099999X1.099999X-1.099999X1.099999X-1.099999X-1.099999X1.099999X-1.099999X0*%
%ADD20C,1.500000*%
%ADD21RoundRect,0.250000X0.600000X0.750000X-0.600000X0.750000X-0.600000X-0.750000X0.600000X-0.750000X0*%
%ADD22O,1.700000X2.000000*%
%ADD23R,2.000000X2.000000*%
%ADD24C,2.000000*%
%ADD25C,2.600000*%
%ADD26C,2.300000*%
%ADD27RoundRect,0.225000X-0.250000X0.225000X-0.250000X-0.225000X0.250000X-0.225000X0.250000X0.225000X0*%
G04 APERTURE END LIST*
D10*
G36*
X184321505Y-100432973D02*
G01*
X184283758Y-100523637D01*
X184205794Y-100709550D01*
X184099256Y-100962845D01*
X184116894Y-100993184D01*
X184119269Y-100997038D01*
X184121637Y-101000667D01*
X184124010Y-101004076D01*
X184126397Y-101007273D01*
X184128809Y-101010263D01*
X184131256Y-101013052D01*
X184133749Y-101015648D01*
X184136297Y-101018055D01*
X184138912Y-101020280D01*
X184141603Y-101022329D01*
X184144380Y-101024209D01*
X184147255Y-101025926D01*
X184150238Y-101027486D01*
X184153338Y-101028894D01*
X184156566Y-101030158D01*
X184159933Y-101031284D01*
X184165366Y-101032748D01*
X184171780Y-101033968D01*
X184179031Y-101034949D01*
X184186976Y-101035694D01*
X184195470Y-101036207D01*
X184204371Y-101036493D01*
X184213534Y-101036555D01*
X184222816Y-101036399D01*
X184232073Y-101036028D01*
X184241162Y-101035445D01*
X184249938Y-101034657D01*
X184258259Y-101033665D01*
X184265980Y-101032475D01*
X184272959Y-101031091D01*
X184279050Y-101029516D01*
X184284111Y-101027756D01*
X184285998Y-101027047D01*
X184286870Y-101026760D01*
X184287695Y-101026519D01*
X184288476Y-101026326D01*
X184289213Y-101026184D01*
X184289907Y-101026094D01*
X184290560Y-101026058D01*
X184291173Y-101026078D01*
X184291746Y-101026156D01*
X184292281Y-101026293D01*
X184292780Y-101026491D01*
X184293243Y-101026752D01*
X184293671Y-101027078D01*
X184294067Y-101027471D01*
X184294429Y-101027932D01*
X184294761Y-101028464D01*
X184295064Y-101029068D01*
X184295337Y-101029745D01*
X184295583Y-101030498D01*
X184295802Y-101031329D01*
X184295997Y-101032239D01*
X184296167Y-101033230D01*
X184296315Y-101034304D01*
X184296440Y-101035463D01*
X184296546Y-101036709D01*
X184296699Y-101039467D01*
X184296784Y-101042592D01*
X184296811Y-101046101D01*
X184296084Y-101059943D01*
X184294573Y-101077597D01*
X184292482Y-101097384D01*
X184290020Y-101117626D01*
X184287392Y-101136644D01*
X184284805Y-101152761D01*
X184282467Y-101164296D01*
X184281455Y-101167822D01*
X184280583Y-101169573D01*
X184279436Y-101170360D01*
X184277608Y-101171133D01*
X184272057Y-101172628D01*
X184264235Y-101174042D01*
X184254445Y-101175360D01*
X184230168Y-101177647D01*
X184201649Y-101179362D01*
X184171312Y-101180383D01*
X184141578Y-101180586D01*
X184127694Y-101180341D01*
X184114870Y-101179846D01*
X184103408Y-101179084D01*
X184093611Y-101178039D01*
X184078627Y-101175991D01*
X184064592Y-101173523D01*
X184051446Y-101170599D01*
X184039129Y-101167180D01*
X184027581Y-101163228D01*
X184016741Y-101158704D01*
X184006551Y-101153570D01*
X183996950Y-101147789D01*
X183987878Y-101141321D01*
X183979275Y-101134128D01*
X183971082Y-101126173D01*
X183963238Y-101117417D01*
X183955683Y-101107821D01*
X183948358Y-101097348D01*
X183941202Y-101085960D01*
X183934156Y-101073617D01*
X183889254Y-100961092D01*
X183803540Y-100737508D01*
X183720339Y-100516702D01*
X183682978Y-100412512D01*
X183683113Y-100412383D01*
X183683515Y-100412263D01*
X183685090Y-100412047D01*
X183691147Y-100411707D01*
X183700725Y-100411482D01*
X183713405Y-100411365D01*
X183746378Y-100411420D01*
X183786694Y-100411806D01*
X183890411Y-100413923D01*
X183939800Y-100584667D01*
X183959599Y-100651188D01*
X183976489Y-100706199D01*
X183988615Y-100744012D01*
X183992314Y-100754692D01*
X183994128Y-100758939D01*
X183994359Y-100759025D01*
X183994654Y-100758888D01*
X183995013Y-100758534D01*
X183995431Y-100757968D01*
X183996444Y-100756219D01*
X183997678Y-100753681D01*
X183999118Y-100750395D01*
X184000751Y-100746401D01*
X184004535Y-100736450D01*
X184008914Y-100724151D01*
X184013773Y-100709826D01*
X184018996Y-100693798D01*
X184024467Y-100676389D01*
X184079500Y-100500000D01*
X184107722Y-100410395D01*
X184331383Y-100410395D01*
X184321505Y-100432973D01*
G37*
G36*
X187782255Y-100563500D02*
G01*
X187782861Y-100625237D01*
X187784460Y-100679564D01*
X187785528Y-100702131D01*
X187786720Y-100720663D01*
X187787994Y-100734432D01*
X187789310Y-100742712D01*
X187791608Y-100750044D01*
X187794260Y-100756956D01*
X187797260Y-100763441D01*
X187798888Y-100766520D01*
X187800599Y-100769490D01*
X187802393Y-100772349D01*
X187804269Y-100775096D01*
X187806225Y-100777732D01*
X187808261Y-100780253D01*
X187810376Y-100782661D01*
X187812567Y-100784954D01*
X187814836Y-100787130D01*
X187817180Y-100789190D01*
X187819598Y-100791132D01*
X187822090Y-100792955D01*
X187824654Y-100794659D01*
X187827289Y-100796242D01*
X187829995Y-100797703D01*
X187832770Y-100799042D01*
X187835613Y-100800258D01*
X187838523Y-100801350D01*
X187841499Y-100802317D01*
X187844541Y-100803157D01*
X187847646Y-100803871D01*
X187850815Y-100804457D01*
X187854046Y-100804915D01*
X187857337Y-100805243D01*
X187860689Y-100805440D01*
X187864099Y-100805506D01*
X187876667Y-100805374D01*
X187882373Y-100805154D01*
X187887712Y-100804783D01*
X187892694Y-100804222D01*
X187897333Y-100803436D01*
X187901640Y-100802388D01*
X187905628Y-100801041D01*
X187909309Y-100799358D01*
X187912695Y-100797302D01*
X187915799Y-100794837D01*
X187918632Y-100791926D01*
X187921208Y-100788531D01*
X187923538Y-100784616D01*
X187925635Y-100780144D01*
X187927511Y-100775079D01*
X187929178Y-100769383D01*
X187930649Y-100763020D01*
X187931935Y-100755953D01*
X187933049Y-100748145D01*
X187934004Y-100739560D01*
X187934811Y-100730159D01*
X187935484Y-100719908D01*
X187936033Y-100708768D01*
X187936812Y-100683676D01*
X187937247Y-100654590D01*
X187937436Y-100621215D01*
X187937477Y-100583256D01*
X187937477Y-100410395D01*
X188149144Y-100410395D01*
X188149144Y-100613595D01*
X188148879Y-100690791D01*
X188147821Y-100751608D01*
X188145572Y-100798650D01*
X188143877Y-100817820D01*
X188141735Y-100834522D01*
X188139098Y-100849083D01*
X188135915Y-100861828D01*
X188132136Y-100873082D01*
X188127712Y-100883172D01*
X188122594Y-100892423D01*
X188116732Y-100901160D01*
X188110076Y-100909709D01*
X188102577Y-100918395D01*
X188096224Y-100925035D01*
X188089592Y-100931201D01*
X188082664Y-100936898D01*
X188075424Y-100942130D01*
X188067858Y-100946904D01*
X188059950Y-100951224D01*
X188051685Y-100955095D01*
X188043046Y-100958523D01*
X188034018Y-100961513D01*
X188024587Y-100964070D01*
X188014736Y-100966199D01*
X188004450Y-100967905D01*
X187993713Y-100969194D01*
X187982510Y-100970070D01*
X187970826Y-100970539D01*
X187958644Y-100970606D01*
X187946591Y-100970389D01*
X187935012Y-100969727D01*
X187923869Y-100968606D01*
X187913124Y-100967012D01*
X187902739Y-100964930D01*
X187892676Y-100962346D01*
X187882895Y-100959245D01*
X187873360Y-100955613D01*
X187864031Y-100951435D01*
X187854871Y-100946697D01*
X187845841Y-100941384D01*
X187836902Y-100935483D01*
X187828018Y-100928977D01*
X187819149Y-100921854D01*
X187810258Y-100914098D01*
X187801305Y-100905695D01*
X187768144Y-100873239D01*
X187768144Y-100960728D01*
X187570588Y-100960728D01*
X187570588Y-100410395D01*
X187782255Y-100410395D01*
X187782255Y-100563500D01*
G37*
G36*
X186760014Y-100636998D02*
G01*
X186762992Y-100662014D01*
X186764043Y-100687269D01*
X186763153Y-100712567D01*
X186760305Y-100737710D01*
X186755484Y-100762500D01*
X186752329Y-100774702D01*
X186748675Y-100786741D01*
X186744519Y-100798593D01*
X186739861Y-100810234D01*
X186734698Y-100821639D01*
X186729028Y-100832783D01*
X186722850Y-100843641D01*
X186716160Y-100854189D01*
X186706955Y-100867325D01*
X186697553Y-100879504D01*
X186687888Y-100890761D01*
X186682936Y-100896054D01*
X186677895Y-100901131D01*
X186672756Y-100905994D01*
X186667510Y-100910649D01*
X186662149Y-100915100D01*
X186656666Y-100919351D01*
X186651053Y-100923407D01*
X186645300Y-100927272D01*
X186639401Y-100930950D01*
X186633346Y-100934446D01*
X186627128Y-100937765D01*
X186620738Y-100940910D01*
X186614169Y-100943886D01*
X186607413Y-100946697D01*
X186600460Y-100949348D01*
X186593303Y-100951844D01*
X186578346Y-100956385D01*
X186562474Y-100960355D01*
X186545624Y-100963790D01*
X186527730Y-100966725D01*
X186508727Y-100969195D01*
X186487473Y-100971182D01*
X186466355Y-100972388D01*
X186445444Y-100972827D01*
X186424810Y-100972513D01*
X186404523Y-100971459D01*
X186384654Y-100969679D01*
X186365273Y-100967185D01*
X186346449Y-100963991D01*
X186328255Y-100960112D01*
X186310758Y-100955559D01*
X186294031Y-100950347D01*
X186278143Y-100944489D01*
X186263164Y-100937999D01*
X186249165Y-100930890D01*
X186236217Y-100923174D01*
X186224388Y-100914867D01*
X186217641Y-100909364D01*
X186210696Y-100903254D01*
X186203652Y-100896659D01*
X186196607Y-100889699D01*
X186189662Y-100882494D01*
X186182915Y-100875167D01*
X186176466Y-100867838D01*
X186170413Y-100860628D01*
X186164857Y-100853657D01*
X186159896Y-100847047D01*
X186155630Y-100840919D01*
X186152157Y-100835393D01*
X186149577Y-100830591D01*
X186147990Y-100826633D01*
X186147599Y-100825008D01*
X186147494Y-100823640D01*
X186147686Y-100822544D01*
X186148188Y-100821734D01*
X186148578Y-100821459D01*
X186149213Y-100821165D01*
X186151194Y-100820521D01*
X186154078Y-100819811D01*
X186157813Y-100819044D01*
X186167623Y-100817368D01*
X186180203Y-100815560D01*
X186195131Y-100813686D01*
X186211986Y-100811812D01*
X186230346Y-100810004D01*
X186249789Y-100808328D01*
X186345744Y-100799862D01*
X186369028Y-100819617D01*
X186374337Y-100824054D01*
X186379804Y-100828105D01*
X186385413Y-100831774D01*
X186391148Y-100835064D01*
X186396992Y-100837978D01*
X186402929Y-100840520D01*
X186408944Y-100842692D01*
X186415021Y-100844499D01*
X186421143Y-100845943D01*
X186427294Y-100847027D01*
X186433459Y-100847755D01*
X186439621Y-100848130D01*
X186445765Y-100848155D01*
X186451874Y-100847834D01*
X186457933Y-100847169D01*
X186463924Y-100846164D01*
X186469834Y-100844822D01*
X186475644Y-100843146D01*
X186481340Y-100841140D01*
X186486905Y-100838806D01*
X186492323Y-100836149D01*
X186497578Y-100833171D01*
X186502655Y-100829875D01*
X186507537Y-100826265D01*
X186512207Y-100822344D01*
X186516652Y-100818115D01*
X186520853Y-100813581D01*
X186524795Y-100808746D01*
X186528462Y-100803613D01*
X186531839Y-100798184D01*
X186534908Y-100792464D01*
X186537655Y-100786456D01*
X186544443Y-100770974D01*
X186545686Y-100767764D01*
X186546662Y-100764800D01*
X186547329Y-100762071D01*
X186547643Y-100759568D01*
X186547655Y-100758398D01*
X186547563Y-100757280D01*
X186547361Y-100756215D01*
X186547045Y-100755200D01*
X186546608Y-100754233D01*
X186546047Y-100753315D01*
X186545354Y-100752444D01*
X186544526Y-100751618D01*
X186543556Y-100750836D01*
X186542440Y-100750098D01*
X186541172Y-100749401D01*
X186539746Y-100748745D01*
X186536401Y-100747550D01*
X186532363Y-100746504D01*
X186527590Y-100745596D01*
X186522037Y-100744817D01*
X186515664Y-100744157D01*
X186508427Y-100743606D01*
X186500283Y-100743155D01*
X186491191Y-100742794D01*
X186481106Y-100742514D01*
X186469988Y-100742304D01*
X186444477Y-100742057D01*
X186414318Y-100741977D01*
X186338688Y-100742006D01*
X186129139Y-100742006D01*
X186133371Y-100676389D01*
X186136234Y-100645705D01*
X186137763Y-100636173D01*
X186342922Y-100636173D01*
X186549649Y-100636173D01*
X186545416Y-100611478D01*
X186544147Y-100605382D01*
X186542469Y-100599287D01*
X186540404Y-100593227D01*
X186537975Y-100587236D01*
X186535202Y-100581348D01*
X186532108Y-100575598D01*
X186528715Y-100570020D01*
X186525043Y-100564647D01*
X186521115Y-100559514D01*
X186516953Y-100554655D01*
X186512577Y-100550104D01*
X186508011Y-100545895D01*
X186503275Y-100542062D01*
X186498391Y-100538639D01*
X186493381Y-100535661D01*
X186488266Y-100533162D01*
X186482994Y-100530978D01*
X186477276Y-100529183D01*
X186471180Y-100527771D01*
X186464773Y-100526734D01*
X186458122Y-100526066D01*
X186451295Y-100525757D01*
X186444357Y-100525803D01*
X186437378Y-100526194D01*
X186430423Y-100526925D01*
X186423560Y-100527987D01*
X186416857Y-100529374D01*
X186410379Y-100531078D01*
X186404195Y-100533092D01*
X186398372Y-100535409D01*
X186392977Y-100538022D01*
X186388077Y-100540923D01*
X186386434Y-100542024D01*
X186384812Y-100543212D01*
X186383210Y-100544486D01*
X186381631Y-100545845D01*
X186380073Y-100547289D01*
X186378537Y-100548817D01*
X186375531Y-100552123D01*
X186372617Y-100555761D01*
X186369796Y-100559725D01*
X186367070Y-100564011D01*
X186364441Y-100568616D01*
X186361911Y-100573535D01*
X186359483Y-100578764D01*
X186357158Y-100584299D01*
X186354938Y-100590135D01*
X186352826Y-100596270D01*
X186350823Y-100602697D01*
X186348932Y-100609415D01*
X186347155Y-100616417D01*
X186342922Y-100636173D01*
X186137763Y-100636173D01*
X186140858Y-100616882D01*
X186143834Y-100603166D01*
X186147254Y-100589912D01*
X186151120Y-100577121D01*
X186155431Y-100564790D01*
X186160190Y-100552920D01*
X186165398Y-100541508D01*
X186171056Y-100530554D01*
X186177164Y-100520058D01*
X186183725Y-100510018D01*
X186190739Y-100500433D01*
X186198208Y-100491303D01*
X186206132Y-100482626D01*
X186214513Y-100474402D01*
X186223352Y-100466630D01*
X186232650Y-100459309D01*
X186242409Y-100452438D01*
X186252629Y-100446015D01*
X186263312Y-100440041D01*
X186274458Y-100434514D01*
X186286069Y-100429434D01*
X186298147Y-100424799D01*
X186310692Y-100420608D01*
X186323705Y-100416862D01*
X186337188Y-100413558D01*
X186351141Y-100410695D01*
X186365567Y-100408274D01*
X186395838Y-100404750D01*
X186407753Y-100403760D01*
X186419981Y-100402909D01*
X186443992Y-100401664D01*
X186455080Y-100401285D01*
X186465093Y-100401079D01*
X186473684Y-100401056D01*
X186480505Y-100401223D01*
X186496446Y-100402545D01*
X186511988Y-100404396D01*
X186527129Y-100406774D01*
X186541866Y-100409678D01*
X186556199Y-100413107D01*
X186570125Y-100417061D01*
X186583641Y-100421537D01*
X186596745Y-100426535D01*
X186609437Y-100432053D01*
X186621713Y-100438092D01*
X186633571Y-100444650D01*
X186645010Y-100451725D01*
X186656027Y-100459317D01*
X186666620Y-100467425D01*
X186676788Y-100476048D01*
X186686527Y-100485184D01*
X186694768Y-100493874D01*
X186702557Y-100502994D01*
X186709891Y-100512519D01*
X186716768Y-100522425D01*
X186723187Y-100532688D01*
X186729146Y-100543281D01*
X186734643Y-100554181D01*
X186739675Y-100565364D01*
X186744242Y-100576803D01*
X186748340Y-100588476D01*
X186755125Y-100612419D01*
X186759849Y-100636173D01*
X186760014Y-100636998D01*
G37*
G36*
X187159449Y-100401770D02*
G01*
X187183970Y-100402815D01*
X187209344Y-100404750D01*
X187228632Y-100406918D01*
X187247564Y-100410221D01*
X187266080Y-100414620D01*
X187284122Y-100420074D01*
X187301630Y-100426546D01*
X187318546Y-100433995D01*
X187334811Y-100442383D01*
X187350367Y-100451670D01*
X187365153Y-100461817D01*
X187379111Y-100472784D01*
X187392183Y-100484533D01*
X187404309Y-100497024D01*
X187415430Y-100510218D01*
X187425488Y-100524075D01*
X187434423Y-100538556D01*
X187442177Y-100553623D01*
X187448610Y-100568712D01*
X187454152Y-100584773D01*
X187458806Y-100601655D01*
X187462572Y-100619206D01*
X187465454Y-100637274D01*
X187467453Y-100655706D01*
X187468572Y-100674352D01*
X187468812Y-100693058D01*
X187468176Y-100711674D01*
X187466665Y-100730046D01*
X187464282Y-100748024D01*
X187461029Y-100765455D01*
X187456907Y-100782187D01*
X187451920Y-100798069D01*
X187446068Y-100812948D01*
X187439355Y-100826673D01*
X187434910Y-100834555D01*
X187430305Y-100842195D01*
X187425535Y-100849595D01*
X187420598Y-100856758D01*
X187415490Y-100863685D01*
X187410208Y-100870379D01*
X187404747Y-100876841D01*
X187399105Y-100883073D01*
X187393278Y-100889078D01*
X187387262Y-100894858D01*
X187381055Y-100900415D01*
X187374652Y-100905750D01*
X187368050Y-100910866D01*
X187361245Y-100915766D01*
X187354235Y-100920450D01*
X187347015Y-100924921D01*
X187339582Y-100929182D01*
X187331933Y-100933234D01*
X187324064Y-100937079D01*
X187315972Y-100940719D01*
X187307653Y-100944157D01*
X187299103Y-100947394D01*
X187290320Y-100950433D01*
X187281299Y-100953276D01*
X187262532Y-100958380D01*
X187242774Y-100962724D01*
X187221996Y-100966323D01*
X187200172Y-100969195D01*
X187169036Y-100971833D01*
X187139136Y-100972873D01*
X187110484Y-100972319D01*
X187083094Y-100970176D01*
X187056976Y-100966450D01*
X187032145Y-100961146D01*
X187008611Y-100954268D01*
X186986388Y-100945823D01*
X186965488Y-100935816D01*
X186945924Y-100924250D01*
X186927707Y-100911132D01*
X186910850Y-100896468D01*
X186895365Y-100880261D01*
X186881266Y-100862517D01*
X186868564Y-100843241D01*
X186857272Y-100822439D01*
X186852954Y-100813514D01*
X186849059Y-100804878D01*
X186845675Y-100796754D01*
X186842896Y-100789366D01*
X186840811Y-100782938D01*
X186840057Y-100780153D01*
X186839512Y-100777692D01*
X186839185Y-100775582D01*
X186839088Y-100773851D01*
X186839234Y-100772528D01*
X186839401Y-100772027D01*
X186839633Y-100771639D01*
X186839952Y-100771298D01*
X186840509Y-100770938D01*
X186842312Y-100770162D01*
X186844991Y-100769320D01*
X186848496Y-100768420D01*
X186852779Y-100767471D01*
X186857790Y-100766480D01*
X186869795Y-100764407D01*
X186884116Y-100762269D01*
X186900355Y-100760130D01*
X186918115Y-100758057D01*
X186937000Y-100756117D01*
X186966570Y-100753347D01*
X186989277Y-100751421D01*
X187006130Y-100750387D01*
X187012677Y-100750221D01*
X187018138Y-100750296D01*
X187022641Y-100750620D01*
X187026310Y-100751198D01*
X187029273Y-100752036D01*
X187031654Y-100753141D01*
X187033581Y-100754518D01*
X187035179Y-100756175D01*
X187036575Y-100758117D01*
X187037894Y-100760350D01*
X187038684Y-100761794D01*
X187039721Y-100763465D01*
X187040985Y-100765342D01*
X187042458Y-100767406D01*
X187045955Y-100772009D01*
X187050065Y-100777107D01*
X187054637Y-100782537D01*
X187059524Y-100788132D01*
X187064575Y-100793727D01*
X187069644Y-100799156D01*
X187074309Y-100803741D01*
X187079165Y-100807973D01*
X187084199Y-100811852D01*
X187089394Y-100815382D01*
X187094736Y-100818565D01*
X187100209Y-100821401D01*
X187105800Y-100823894D01*
X187111492Y-100826044D01*
X187117271Y-100827855D01*
X187123122Y-100829327D01*
X187129030Y-100830464D01*
X187134979Y-100831266D01*
X187140956Y-100831736D01*
X187146944Y-100831875D01*
X187152929Y-100831686D01*
X187158897Y-100831171D01*
X187164831Y-100830331D01*
X187170717Y-100829168D01*
X187176540Y-100827685D01*
X187182285Y-100825883D01*
X187187937Y-100823764D01*
X187193480Y-100821331D01*
X187198901Y-100818584D01*
X187204184Y-100815527D01*
X187209314Y-100812161D01*
X187214277Y-100808487D01*
X187219056Y-100804509D01*
X187223637Y-100800227D01*
X187228005Y-100795644D01*
X187232146Y-100790761D01*
X187236043Y-100785581D01*
X187239683Y-100780106D01*
X187242198Y-100775845D01*
X187244462Y-100771745D01*
X187246485Y-100767739D01*
X187248282Y-100763757D01*
X187249863Y-100759729D01*
X187251242Y-100755587D01*
X187252430Y-100751260D01*
X187253441Y-100746680D01*
X187254286Y-100741778D01*
X187254979Y-100736484D01*
X187255531Y-100730729D01*
X187255955Y-100724444D01*
X187256263Y-100717560D01*
X187256467Y-100710007D01*
X187256581Y-100701715D01*
X187256616Y-100692617D01*
X187256234Y-100675102D01*
X187255079Y-100658792D01*
X187253142Y-100643668D01*
X187250409Y-100629712D01*
X187246871Y-100616906D01*
X187244795Y-100610928D01*
X187242514Y-100605230D01*
X187240026Y-100599811D01*
X187237329Y-100594667D01*
X187234423Y-100589796D01*
X187231304Y-100585196D01*
X187227973Y-100580865D01*
X187224427Y-100576801D01*
X187220666Y-100573001D01*
X187216687Y-100569462D01*
X187212490Y-100566183D01*
X187208073Y-100563160D01*
X187203434Y-100560393D01*
X187198573Y-100557878D01*
X187193487Y-100555613D01*
X187188176Y-100553596D01*
X187182637Y-100551825D01*
X187176870Y-100550296D01*
X187164645Y-100547959D01*
X187151488Y-100546567D01*
X187143132Y-100546144D01*
X187135008Y-100546194D01*
X187127135Y-100546708D01*
X187119529Y-100547681D01*
X187112208Y-100549104D01*
X187105190Y-100550970D01*
X187098493Y-100553273D01*
X187092133Y-100556004D01*
X187086129Y-100559157D01*
X187080499Y-100562725D01*
X187075258Y-100566699D01*
X187070426Y-100571074D01*
X187066020Y-100575842D01*
X187062058Y-100580995D01*
X187058556Y-100586526D01*
X187055533Y-100592428D01*
X187053866Y-100595937D01*
X187052287Y-100599065D01*
X187050769Y-100601829D01*
X187049282Y-100604246D01*
X187048542Y-100605330D01*
X187047799Y-100606333D01*
X187047051Y-100607257D01*
X187046293Y-100608105D01*
X187045522Y-100608878D01*
X187044735Y-100609579D01*
X187043928Y-100610210D01*
X187043097Y-100610773D01*
X187042240Y-100611269D01*
X187041352Y-100611702D01*
X187040431Y-100612072D01*
X187039472Y-100612382D01*
X187038472Y-100612635D01*
X187037428Y-100612831D01*
X187036336Y-100612974D01*
X187035193Y-100613066D01*
X187033995Y-100613107D01*
X187032739Y-100613102D01*
X187030038Y-100612956D01*
X187027062Y-100612644D01*
X187023783Y-100612184D01*
X187009616Y-100610012D01*
X186987182Y-100606980D01*
X186959588Y-100603552D01*
X186929944Y-100600189D01*
X186913964Y-100598042D01*
X186899473Y-100595846D01*
X186886635Y-100593616D01*
X186875616Y-100591370D01*
X186866581Y-100589124D01*
X186862860Y-100588006D01*
X186859697Y-100586894D01*
X186857112Y-100585791D01*
X186855127Y-100584697D01*
X186853762Y-100583617D01*
X186853038Y-100582550D01*
X186852687Y-100581158D01*
X186852556Y-100579502D01*
X186852636Y-100577598D01*
X186852920Y-100575460D01*
X186854064Y-100570540D01*
X186855926Y-100564856D01*
X186858442Y-100558524D01*
X186861546Y-100551656D01*
X186865175Y-100544369D01*
X186869266Y-100536778D01*
X186873753Y-100528996D01*
X186878573Y-100521138D01*
X186883662Y-100513320D01*
X186888955Y-100505656D01*
X186894389Y-100498261D01*
X186899900Y-100491249D01*
X186905423Y-100484735D01*
X186910894Y-100478834D01*
X186916574Y-100473185D01*
X186922501Y-100467747D01*
X186935091Y-100457506D01*
X186948654Y-100448115D01*
X186963182Y-100439576D01*
X186978665Y-100431894D01*
X186995093Y-100425070D01*
X187012458Y-100419108D01*
X187030750Y-100414011D01*
X187049960Y-100409782D01*
X187070078Y-100406425D01*
X187091095Y-100403942D01*
X187113002Y-100402336D01*
X187135790Y-100401611D01*
X187159449Y-100401770D01*
G37*
G36*
X189586142Y-100701909D02*
G01*
X189585334Y-100714714D01*
X189583964Y-100727371D01*
X189582039Y-100739867D01*
X189579568Y-100752188D01*
X189576560Y-100764318D01*
X189573025Y-100776245D01*
X189568969Y-100787953D01*
X189564404Y-100799428D01*
X189559336Y-100810657D01*
X189553776Y-100821625D01*
X189547731Y-100832317D01*
X189541211Y-100842720D01*
X189534224Y-100852820D01*
X189526780Y-100862602D01*
X189518886Y-100872051D01*
X189510552Y-100881155D01*
X189501787Y-100889898D01*
X189492598Y-100898267D01*
X189482996Y-100906246D01*
X189472989Y-100913823D01*
X189462586Y-100920982D01*
X189451794Y-100927710D01*
X189440624Y-100933991D01*
X189429084Y-100939814D01*
X189417183Y-100945162D01*
X189404930Y-100950021D01*
X189392332Y-100954378D01*
X189373598Y-100959665D01*
X189354013Y-100963894D01*
X189333736Y-100967083D01*
X189312924Y-100969250D01*
X189291737Y-100970413D01*
X189270331Y-100970588D01*
X189248865Y-100969794D01*
X189227497Y-100968048D01*
X189206386Y-100965368D01*
X189185689Y-100961771D01*
X189165564Y-100957275D01*
X189146171Y-100951898D01*
X189127666Y-100945656D01*
X189110208Y-100938568D01*
X189093955Y-100930651D01*
X189079066Y-100921923D01*
X189066497Y-100913071D01*
X189054590Y-100903477D01*
X189043352Y-100893186D01*
X189032786Y-100882241D01*
X189022898Y-100870686D01*
X189013693Y-100858565D01*
X189005177Y-100845923D01*
X188997354Y-100832802D01*
X188990229Y-100819248D01*
X188983809Y-100805303D01*
X188978098Y-100791012D01*
X188973100Y-100776418D01*
X188968822Y-100761567D01*
X188965269Y-100746501D01*
X188962445Y-100731264D01*
X188960356Y-100715900D01*
X188959007Y-100700454D01*
X188958537Y-100688384D01*
X189170082Y-100688384D01*
X189170489Y-100704182D01*
X189171218Y-100717929D01*
X189171722Y-100724137D01*
X189172327Y-100729956D01*
X189173043Y-100735429D01*
X189173875Y-100740595D01*
X189174831Y-100745497D01*
X189175919Y-100750175D01*
X189177144Y-100754672D01*
X189178516Y-100759028D01*
X189180041Y-100763284D01*
X189181726Y-100767483D01*
X189183578Y-100771666D01*
X189185605Y-100775873D01*
X189189221Y-100782341D01*
X189193174Y-100788383D01*
X189197442Y-100794001D01*
X189202003Y-100799193D01*
X189206836Y-100803962D01*
X189211916Y-100808306D01*
X189217223Y-100812228D01*
X189222735Y-100815726D01*
X189228428Y-100818801D01*
X189234281Y-100821454D01*
X189240271Y-100823685D01*
X189246376Y-100825494D01*
X189252575Y-100826883D01*
X189258844Y-100827850D01*
X189265162Y-100828398D01*
X189271506Y-100828525D01*
X189277855Y-100828232D01*
X189284185Y-100827521D01*
X189290475Y-100826390D01*
X189296702Y-100824841D01*
X189302845Y-100822874D01*
X189308881Y-100820490D01*
X189314787Y-100817688D01*
X189320542Y-100814469D01*
X189326124Y-100810833D01*
X189331509Y-100806782D01*
X189336677Y-100802315D01*
X189341604Y-100797432D01*
X189346269Y-100792135D01*
X189350649Y-100786422D01*
X189354722Y-100780296D01*
X189358466Y-100773756D01*
X189362063Y-100765909D01*
X189365181Y-100757017D01*
X189367822Y-100747226D01*
X189369986Y-100736681D01*
X189371675Y-100725529D01*
X189372890Y-100713915D01*
X189373631Y-100701984D01*
X189373900Y-100689883D01*
X189373697Y-100677757D01*
X189373025Y-100665752D01*
X189371883Y-100654014D01*
X189370273Y-100642688D01*
X189368196Y-100631920D01*
X189365652Y-100621856D01*
X189362644Y-100612642D01*
X189359172Y-100604423D01*
X189356428Y-100599239D01*
X189353495Y-100594273D01*
X189350381Y-100589527D01*
X189347096Y-100585005D01*
X189343648Y-100580708D01*
X189340046Y-100576640D01*
X189336299Y-100572803D01*
X189332415Y-100569200D01*
X189328405Y-100565834D01*
X189324277Y-100562707D01*
X189320039Y-100559822D01*
X189315701Y-100557182D01*
X189311272Y-100554790D01*
X189306760Y-100552648D01*
X189302174Y-100550758D01*
X189297524Y-100549125D01*
X189292817Y-100547750D01*
X189288064Y-100546636D01*
X189283273Y-100545785D01*
X189278453Y-100545202D01*
X189273613Y-100544887D01*
X189268761Y-100544844D01*
X189263907Y-100545077D01*
X189259060Y-100545586D01*
X189254228Y-100546376D01*
X189249421Y-100547448D01*
X189244647Y-100548806D01*
X189239915Y-100550452D01*
X189235234Y-100552389D01*
X189230613Y-100554620D01*
X189226062Y-100557147D01*
X189221588Y-100559973D01*
X189218150Y-100562446D01*
X189214847Y-100564973D01*
X189211677Y-100567558D01*
X189208639Y-100570207D01*
X189205730Y-100572924D01*
X189202949Y-100575713D01*
X189200294Y-100578578D01*
X189197765Y-100581525D01*
X189195358Y-100584558D01*
X189193072Y-100587681D01*
X189190906Y-100590898D01*
X189188858Y-100594216D01*
X189186927Y-100597637D01*
X189185109Y-100601166D01*
X189183405Y-100604808D01*
X189181812Y-100608568D01*
X189180329Y-100612450D01*
X189178953Y-100616458D01*
X189177684Y-100620597D01*
X189176519Y-100624871D01*
X189175457Y-100629286D01*
X189174497Y-100633845D01*
X189173635Y-100638554D01*
X189172872Y-100643416D01*
X189171631Y-100653619D01*
X189170762Y-100664490D01*
X189170250Y-100676066D01*
X189170082Y-100688384D01*
X188958537Y-100688384D01*
X188958404Y-100684970D01*
X188958550Y-100669490D01*
X188959452Y-100654060D01*
X188961115Y-100638722D01*
X188963544Y-100623522D01*
X188966743Y-100608502D01*
X188970719Y-100593707D01*
X188975476Y-100579181D01*
X188981020Y-100564967D01*
X188987355Y-100551110D01*
X188994487Y-100537654D01*
X189002422Y-100524642D01*
X189011163Y-100512118D01*
X189020717Y-100500127D01*
X189031088Y-100488712D01*
X189042920Y-100477420D01*
X189055631Y-100466837D01*
X189069173Y-100456977D01*
X189083498Y-100447856D01*
X189098559Y-100439486D01*
X189114308Y-100431884D01*
X189130698Y-100425063D01*
X189147681Y-100419038D01*
X189165210Y-100413823D01*
X189183237Y-100409433D01*
X189201715Y-100405882D01*
X189220596Y-100403185D01*
X189239832Y-100401356D01*
X189259377Y-100400410D01*
X189279182Y-100400360D01*
X189299199Y-100401223D01*
X189327096Y-100404109D01*
X189353866Y-100408772D01*
X189379458Y-100415166D01*
X189403820Y-100423249D01*
X189426900Y-100432978D01*
X189448648Y-100444308D01*
X189469010Y-100457198D01*
X189478655Y-100464213D01*
X189487935Y-100471602D01*
X189496843Y-100479359D01*
X189505373Y-100487478D01*
X189513517Y-100495954D01*
X189521270Y-100504782D01*
X189528625Y-100513957D01*
X189535576Y-100523472D01*
X189542116Y-100533322D01*
X189548238Y-100543502D01*
X189553937Y-100554007D01*
X189559206Y-100564831D01*
X189564038Y-100575969D01*
X189568427Y-100587415D01*
X189572366Y-100599164D01*
X189575849Y-100611210D01*
X189578870Y-100623548D01*
X189581421Y-100636173D01*
X189583562Y-100649501D01*
X189585096Y-100662753D01*
X189586031Y-100675914D01*
X189586377Y-100688971D01*
X189586360Y-100689883D01*
X189586142Y-100701909D01*
G37*
G36*
X189736692Y-100402315D02*
G01*
X189741017Y-100402754D01*
X189745110Y-100403339D01*
X189751712Y-100404665D01*
X189758036Y-100406268D01*
X189764105Y-100408162D01*
X189769937Y-100410362D01*
X189775555Y-100412880D01*
X189780978Y-100415729D01*
X189786228Y-100418924D01*
X189791324Y-100422478D01*
X189796289Y-100426403D01*
X189801141Y-100430714D01*
X189805903Y-100435424D01*
X189810595Y-100440546D01*
X189815237Y-100446095D01*
X189819850Y-100452082D01*
X189824454Y-100458522D01*
X189829071Y-100465428D01*
X189849533Y-100497884D01*
X189849533Y-100410395D01*
X190047088Y-100410395D01*
X190047088Y-100960728D01*
X189835422Y-100960728D01*
X189835422Y-100842195D01*
X189835037Y-100798961D01*
X189833833Y-100759918D01*
X189831733Y-100724921D01*
X189828664Y-100693830D01*
X189824548Y-100666500D01*
X189819311Y-100642790D01*
X189812877Y-100622557D01*
X189809188Y-100613699D01*
X189805171Y-100605657D01*
X189800817Y-100598414D01*
X189796117Y-100591950D01*
X189791061Y-100586248D01*
X189785640Y-100581291D01*
X189779844Y-100577060D01*
X189773664Y-100573538D01*
X189767091Y-100570708D01*
X189760114Y-100568550D01*
X189752726Y-100567047D01*
X189744915Y-100566182D01*
X189736673Y-100565936D01*
X189727991Y-100566292D01*
X189709266Y-100568739D01*
X189688666Y-100573378D01*
X189688048Y-100573500D01*
X189687384Y-100573470D01*
X189686676Y-100573289D01*
X189685923Y-100572958D01*
X189685126Y-100572477D01*
X189684285Y-100571848D01*
X189683399Y-100571071D01*
X189682470Y-100570148D01*
X189681498Y-100569079D01*
X189680482Y-100567865D01*
X189679423Y-100566507D01*
X189678322Y-100565007D01*
X189675993Y-100561580D01*
X189673496Y-100557591D01*
X189670834Y-100553049D01*
X189668009Y-100547960D01*
X189665022Y-100542332D01*
X189661877Y-100536171D01*
X189658574Y-100529485D01*
X189655116Y-100522282D01*
X189651505Y-100514568D01*
X189647744Y-100506350D01*
X189635749Y-100478988D01*
X189625871Y-100455727D01*
X189619169Y-100439080D01*
X189617339Y-100434023D01*
X189616699Y-100431562D01*
X189616947Y-100430033D01*
X189617676Y-100428493D01*
X189618862Y-100426947D01*
X189620481Y-100425400D01*
X189622508Y-100423858D01*
X189624922Y-100422327D01*
X189627697Y-100420810D01*
X189630810Y-100419314D01*
X189637955Y-100416404D01*
X189646167Y-100413640D01*
X189655255Y-100411064D01*
X189665030Y-100408719D01*
X189675300Y-100406647D01*
X189685877Y-100404890D01*
X189696569Y-100403490D01*
X189707187Y-100402491D01*
X189717540Y-100401933D01*
X189727438Y-100401861D01*
X189736692Y-100402315D01*
G37*
G36*
X184974144Y-100960728D02*
G01*
X184776589Y-100960728D01*
X184776589Y-100885234D01*
X184746955Y-100913456D01*
X184738796Y-100920958D01*
X184730694Y-100927863D01*
X184722610Y-100934188D01*
X184714500Y-100939947D01*
X184706324Y-100945157D01*
X184698040Y-100949832D01*
X184689608Y-100953988D01*
X184680986Y-100957641D01*
X184672132Y-100960807D01*
X184663005Y-100963499D01*
X184653564Y-100965736D01*
X184643768Y-100967530D01*
X184633574Y-100968899D01*
X184622943Y-100969858D01*
X184611831Y-100970422D01*
X184600199Y-100970606D01*
X184585201Y-100970424D01*
X184578464Y-100970178D01*
X184572154Y-100969812D01*
X184566207Y-100969314D01*
X184560562Y-100968671D01*
X184555156Y-100967871D01*
X184549929Y-100966902D01*
X184544817Y-100965751D01*
X184539759Y-100964405D01*
X184534693Y-100962852D01*
X184529556Y-100961081D01*
X184524287Y-100959078D01*
X184518824Y-100956831D01*
X184507066Y-100951556D01*
X184497943Y-100946830D01*
X184489097Y-100941656D01*
X184480533Y-100936043D01*
X184472256Y-100930001D01*
X184464269Y-100923540D01*
X184456578Y-100916671D01*
X184449187Y-100909404D01*
X184442100Y-100901748D01*
X184435322Y-100893714D01*
X184428858Y-100885312D01*
X184422712Y-100876552D01*
X184416889Y-100867443D01*
X184411392Y-100857997D01*
X184406228Y-100848223D01*
X184401399Y-100838131D01*
X184396911Y-100827731D01*
X184392769Y-100817034D01*
X184388976Y-100806049D01*
X184385537Y-100794786D01*
X184382457Y-100783256D01*
X184379740Y-100771469D01*
X184377392Y-100759434D01*
X184375415Y-100747163D01*
X184373815Y-100734664D01*
X184372597Y-100721948D01*
X184371765Y-100709025D01*
X184371323Y-100695905D01*
X184371276Y-100682599D01*
X184371475Y-100674990D01*
X184580466Y-100674990D01*
X184580532Y-100684995D01*
X184580995Y-100695341D01*
X184581855Y-100706023D01*
X184583651Y-100720049D01*
X184585877Y-100733035D01*
X184588547Y-100745000D01*
X184591677Y-100755963D01*
X184595283Y-100765941D01*
X184599379Y-100774955D01*
X184601617Y-100779105D01*
X184603982Y-100783022D01*
X184606478Y-100786706D01*
X184609107Y-100790160D01*
X184611870Y-100793387D01*
X184614769Y-100796389D01*
X184617807Y-100799169D01*
X184620985Y-100801727D01*
X184624304Y-100804068D01*
X184627768Y-100806193D01*
X184631378Y-100808105D01*
X184635136Y-100809806D01*
X184639043Y-100811297D01*
X184643103Y-100812583D01*
X184647316Y-100813664D01*
X184651685Y-100814543D01*
X184660897Y-100815706D01*
X184670755Y-100816089D01*
X184675838Y-100816046D01*
X184680528Y-100815906D01*
X184684863Y-100815657D01*
X184688879Y-100815285D01*
X184692614Y-100814776D01*
X184696106Y-100814117D01*
X184699390Y-100813296D01*
X184702505Y-100812297D01*
X184705488Y-100811108D01*
X184708375Y-100809716D01*
X184711205Y-100808107D01*
X184714014Y-100806267D01*
X184716840Y-100804183D01*
X184719719Y-100801842D01*
X184722690Y-100799230D01*
X184725788Y-100796334D01*
X184728839Y-100793229D01*
X184731772Y-100789874D01*
X184734585Y-100786282D01*
X184737277Y-100782461D01*
X184742288Y-100774182D01*
X184746790Y-100765124D01*
X184750766Y-100755376D01*
X184754202Y-100745025D01*
X184757082Y-100734160D01*
X184759390Y-100722868D01*
X184761112Y-100711237D01*
X184762231Y-100699354D01*
X184762731Y-100687309D01*
X184762598Y-100675188D01*
X184761817Y-100663079D01*
X184760370Y-100651071D01*
X184758244Y-100639250D01*
X184755422Y-100627706D01*
X184753595Y-100621859D01*
X184751434Y-100616230D01*
X184748956Y-100610823D01*
X184746178Y-100605645D01*
X184743116Y-100600702D01*
X184739789Y-100596001D01*
X184736212Y-100591547D01*
X184732403Y-100587346D01*
X184728379Y-100583405D01*
X184724158Y-100579729D01*
X184719755Y-100576324D01*
X184715189Y-100573198D01*
X184710475Y-100570355D01*
X184705633Y-100567802D01*
X184700677Y-100565544D01*
X184695626Y-100563589D01*
X184690496Y-100561941D01*
X184685305Y-100560608D01*
X184680070Y-100559595D01*
X184674807Y-100558908D01*
X184669533Y-100558553D01*
X184664267Y-100558536D01*
X184659024Y-100558864D01*
X184653822Y-100559543D01*
X184648678Y-100560578D01*
X184643609Y-100561976D01*
X184638631Y-100563742D01*
X184633763Y-100565883D01*
X184629021Y-100568405D01*
X184624422Y-100571314D01*
X184619983Y-100574616D01*
X184615722Y-100578317D01*
X184613126Y-100580816D01*
X184610629Y-100583418D01*
X184608231Y-100586122D01*
X184605932Y-100588927D01*
X184601633Y-100594839D01*
X184597730Y-100601149D01*
X184594225Y-100607851D01*
X184591116Y-100614941D01*
X184588404Y-100622414D01*
X184586089Y-100630264D01*
X184584170Y-100638486D01*
X184582649Y-100647074D01*
X184581524Y-100656025D01*
X184580797Y-100665332D01*
X184580466Y-100674990D01*
X184371475Y-100674990D01*
X184371628Y-100669116D01*
X184372384Y-100655466D01*
X184373549Y-100641659D01*
X184375127Y-100627706D01*
X184377731Y-100609534D01*
X184381042Y-100592062D01*
X184385056Y-100575297D01*
X184389768Y-100559245D01*
X184395174Y-100543913D01*
X184401272Y-100529306D01*
X184408055Y-100515431D01*
X184415521Y-100502294D01*
X184423664Y-100489901D01*
X184432481Y-100478258D01*
X184441969Y-100467372D01*
X184452121Y-100457248D01*
X184462935Y-100447894D01*
X184474407Y-100439315D01*
X184486532Y-100431517D01*
X184499305Y-100424506D01*
X184504687Y-100421750D01*
X184509782Y-100419292D01*
X184514686Y-100417114D01*
X184519491Y-100415202D01*
X184524292Y-100413537D01*
X184529182Y-100412104D01*
X184534257Y-100410886D01*
X184539610Y-100409866D01*
X184545335Y-100409028D01*
X184551526Y-100408355D01*
X184558277Y-100407832D01*
X184565682Y-100407440D01*
X184573836Y-100407165D01*
X184582832Y-100406988D01*
X184603727Y-100406867D01*
X184623832Y-100407013D01*
X184640604Y-100407507D01*
X184647919Y-100407909D01*
X184654614Y-100408430D01*
X184660762Y-100409079D01*
X184666434Y-100409866D01*
X184671700Y-100410802D01*
X184676633Y-100411897D01*
X184681303Y-100413162D01*
X184685782Y-100414606D01*
X184690140Y-100416241D01*
X184694451Y-100418076D01*
X184698784Y-100420122D01*
X184703211Y-100422389D01*
X184709072Y-100425710D01*
X184714907Y-100429247D01*
X184720562Y-100432882D01*
X184725877Y-100436500D01*
X184730696Y-100439987D01*
X184734861Y-100443225D01*
X184738217Y-100446100D01*
X184739541Y-100447365D01*
X184740605Y-100448495D01*
X184741671Y-100449668D01*
X184742748Y-100450803D01*
X184743831Y-100451895D01*
X184744915Y-100452938D01*
X184745996Y-100453927D01*
X184747067Y-100454857D01*
X184748123Y-100455724D01*
X184749160Y-100456521D01*
X184750172Y-100457243D01*
X184751154Y-100457886D01*
X184752101Y-100458445D01*
X184753007Y-100458913D01*
X184753868Y-100459286D01*
X184754679Y-100459559D01*
X184755433Y-100459727D01*
X184755788Y-100459770D01*
X184756127Y-100459784D01*
X184756456Y-100459618D01*
X184756780Y-100459125D01*
X184757413Y-100457192D01*
X184758023Y-100454049D01*
X184758608Y-100449763D01*
X184759163Y-100444397D01*
X184759687Y-100438018D01*
X184760625Y-100422478D01*
X184761398Y-100403663D01*
X184761981Y-100382096D01*
X184762349Y-100358295D01*
X184762477Y-100332784D01*
X184762477Y-100205784D01*
X184974144Y-100205784D01*
X184974144Y-100687309D01*
X184974144Y-100960728D01*
G37*
G36*
X186057599Y-100712981D02*
G01*
X186054658Y-100741113D01*
X186049816Y-100768282D01*
X186043138Y-100794351D01*
X186034690Y-100819181D01*
X186024540Y-100842636D01*
X186012752Y-100864578D01*
X185999393Y-100884869D01*
X185984530Y-100903372D01*
X185968228Y-100919949D01*
X185959558Y-100927473D01*
X185950553Y-100934464D01*
X185941221Y-100940905D01*
X185931572Y-100946778D01*
X185921612Y-100952067D01*
X185911351Y-100956755D01*
X185900796Y-100960824D01*
X185889955Y-100964256D01*
X185875426Y-100967918D01*
X185861198Y-100970698D01*
X185847260Y-100972592D01*
X185833599Y-100973594D01*
X185820202Y-100973698D01*
X185807058Y-100972901D01*
X185794153Y-100971195D01*
X185781476Y-100968578D01*
X185769014Y-100965042D01*
X185756754Y-100960584D01*
X185744684Y-100955197D01*
X185732793Y-100948877D01*
X185721066Y-100941619D01*
X185709493Y-100933417D01*
X185698060Y-100924266D01*
X185686755Y-100914162D01*
X185651477Y-100881000D01*
X185651477Y-100960728D01*
X185453922Y-100960728D01*
X185453922Y-100687728D01*
X185667249Y-100687728D01*
X185667540Y-100697134D01*
X185668146Y-100706552D01*
X185669058Y-100715887D01*
X185670267Y-100725045D01*
X185671763Y-100733930D01*
X185673537Y-100742447D01*
X185675580Y-100750501D01*
X185677882Y-100757997D01*
X185680434Y-100764839D01*
X185683227Y-100770934D01*
X185685786Y-100775518D01*
X185688561Y-100779877D01*
X185691540Y-100784008D01*
X185694710Y-100787910D01*
X185698061Y-100791579D01*
X185701581Y-100795014D01*
X185705258Y-100798213D01*
X185709079Y-100801173D01*
X185713034Y-100803893D01*
X185717111Y-100806369D01*
X185721297Y-100808600D01*
X185725581Y-100810584D01*
X185729952Y-100812318D01*
X185734397Y-100813801D01*
X185738905Y-100815029D01*
X185743464Y-100816001D01*
X185748062Y-100816715D01*
X185752688Y-100817168D01*
X185757330Y-100817359D01*
X185761975Y-100817284D01*
X185766613Y-100816942D01*
X185771231Y-100816331D01*
X185775818Y-100815449D01*
X185780362Y-100814292D01*
X185784852Y-100812860D01*
X185789274Y-100811150D01*
X185793619Y-100809159D01*
X185797873Y-100806885D01*
X185802026Y-100804327D01*
X185806065Y-100801482D01*
X185809979Y-100798348D01*
X185813755Y-100794923D01*
X185818051Y-100790403D01*
X185822073Y-100785460D01*
X185825821Y-100780122D01*
X185829295Y-100774416D01*
X185832495Y-100768371D01*
X185835421Y-100762015D01*
X185838071Y-100755374D01*
X185840445Y-100748477D01*
X185844366Y-100734026D01*
X185847180Y-100718884D01*
X185848883Y-100703272D01*
X185849474Y-100687414D01*
X185848948Y-100671530D01*
X185847303Y-100655844D01*
X185844536Y-100640578D01*
X185840643Y-100625953D01*
X185838274Y-100618951D01*
X185835622Y-100612193D01*
X185832687Y-100605706D01*
X185829469Y-100599518D01*
X185825967Y-100593658D01*
X185822181Y-100588152D01*
X185818111Y-100583030D01*
X185813755Y-100578317D01*
X185810781Y-100575421D01*
X185807922Y-100572809D01*
X185805143Y-100570468D01*
X185802411Y-100568384D01*
X185799691Y-100566544D01*
X185798325Y-100565712D01*
X185796950Y-100564935D01*
X185795560Y-100564213D01*
X185794153Y-100563543D01*
X185792722Y-100562924D01*
X185791265Y-100562354D01*
X185789777Y-100561832D01*
X185788254Y-100561355D01*
X185785085Y-100560534D01*
X185781723Y-100559875D01*
X185778135Y-100559366D01*
X185774287Y-100558994D01*
X185770144Y-100558745D01*
X185765673Y-100558605D01*
X185760838Y-100558562D01*
X185755771Y-100558606D01*
X185751121Y-100558752D01*
X185746842Y-100559017D01*
X185742891Y-100559422D01*
X185739221Y-100559983D01*
X185735786Y-100560720D01*
X185732541Y-100561651D01*
X185729441Y-100562795D01*
X185726441Y-100564171D01*
X185723494Y-100565796D01*
X185720555Y-100567691D01*
X185717579Y-100569873D01*
X185714520Y-100572360D01*
X185711334Y-100575173D01*
X185707973Y-100578328D01*
X185704394Y-100581845D01*
X185701882Y-100584471D01*
X185699383Y-100587306D01*
X185696909Y-100590330D01*
X185694472Y-100593520D01*
X185692085Y-100596854D01*
X185689759Y-100600312D01*
X185687508Y-100603871D01*
X185685344Y-100607510D01*
X185683279Y-100611206D01*
X185681326Y-100614939D01*
X185679496Y-100618686D01*
X185677803Y-100622425D01*
X185676259Y-100626136D01*
X185674876Y-100629797D01*
X185673667Y-100633384D01*
X185672644Y-100636878D01*
X185670848Y-100644213D01*
X185669423Y-100652130D01*
X185668361Y-100660536D01*
X185667650Y-100669334D01*
X185667283Y-100678430D01*
X185667249Y-100687728D01*
X185453922Y-100687728D01*
X185453922Y-100205784D01*
X185665588Y-100205784D01*
X185665588Y-100332784D01*
X185665952Y-100382096D01*
X185666911Y-100422478D01*
X185667552Y-100438018D01*
X185668267Y-100449763D01*
X185669032Y-100457192D01*
X185669425Y-100459125D01*
X185669822Y-100459784D01*
X185670051Y-100459759D01*
X185670340Y-100459686D01*
X185671092Y-100459401D01*
X185672063Y-100458937D01*
X185673239Y-100458307D01*
X185674605Y-100457519D01*
X185676147Y-100456584D01*
X185679699Y-100454316D01*
X185683781Y-100451585D01*
X185688276Y-100448473D01*
X185693069Y-100445064D01*
X185698044Y-100441439D01*
X185704547Y-100436601D01*
X185711112Y-100432133D01*
X185717765Y-100428028D01*
X185724535Y-100424275D01*
X185731450Y-100420864D01*
X185738538Y-100417788D01*
X185745826Y-100415036D01*
X185753342Y-100412600D01*
X185761115Y-100410469D01*
X185769171Y-100408635D01*
X185777540Y-100407089D01*
X185786249Y-100405820D01*
X185795326Y-100404820D01*
X185804799Y-100404079D01*
X185814696Y-100403589D01*
X185825044Y-100403339D01*
X185836956Y-100403515D01*
X185848373Y-100404052D01*
X185859329Y-100404963D01*
X185869858Y-100406261D01*
X185879994Y-100407960D01*
X185889772Y-100410074D01*
X185899225Y-100412615D01*
X185908388Y-100415598D01*
X185917294Y-100419036D01*
X185925978Y-100422942D01*
X185934474Y-100427329D01*
X185942817Y-100432212D01*
X185951039Y-100437603D01*
X185959175Y-100443516D01*
X185967260Y-100449964D01*
X185975327Y-100456962D01*
X185983307Y-100464514D01*
X185990848Y-100472365D01*
X185997957Y-100480535D01*
X186004641Y-100489042D01*
X186010907Y-100497905D01*
X186016763Y-100507142D01*
X186022216Y-100516771D01*
X186027274Y-100526812D01*
X186031942Y-100537282D01*
X186036230Y-100548202D01*
X186040143Y-100559588D01*
X186043689Y-100571460D01*
X186046875Y-100583837D01*
X186049709Y-100596736D01*
X186052198Y-100610177D01*
X186054349Y-100624178D01*
X186057510Y-100654376D01*
X186058572Y-100684022D01*
X186058458Y-100687414D01*
X186057599Y-100712981D01*
G37*
G36*
X188879821Y-100712981D02*
G01*
X188876880Y-100741113D01*
X188872038Y-100768282D01*
X188865360Y-100794351D01*
X188856912Y-100819181D01*
X188846762Y-100842636D01*
X188834974Y-100864578D01*
X188821615Y-100884869D01*
X188806752Y-100903372D01*
X188790449Y-100919949D01*
X188781780Y-100927473D01*
X188772775Y-100934464D01*
X188763443Y-100940905D01*
X188753794Y-100946778D01*
X188743834Y-100952067D01*
X188733572Y-100956755D01*
X188723017Y-100960824D01*
X188712177Y-100964256D01*
X188697648Y-100967918D01*
X188683420Y-100970698D01*
X188669482Y-100972592D01*
X188655821Y-100973594D01*
X188642424Y-100973698D01*
X188629280Y-100972901D01*
X188616375Y-100971195D01*
X188603698Y-100968578D01*
X188591236Y-100965042D01*
X188578976Y-100960584D01*
X188566906Y-100955197D01*
X188555015Y-100948877D01*
X188543288Y-100941619D01*
X188531715Y-100933417D01*
X188520282Y-100924266D01*
X188508977Y-100914162D01*
X188473699Y-100881000D01*
X188473699Y-100960728D01*
X188276144Y-100960728D01*
X188276144Y-100687728D01*
X188489471Y-100687728D01*
X188489762Y-100697134D01*
X188490368Y-100706552D01*
X188491280Y-100715887D01*
X188492489Y-100725045D01*
X188493985Y-100733930D01*
X188495759Y-100742447D01*
X188497802Y-100750501D01*
X188500104Y-100757997D01*
X188502656Y-100764839D01*
X188505449Y-100770934D01*
X188508008Y-100775518D01*
X188510783Y-100779877D01*
X188513762Y-100784008D01*
X188516932Y-100787910D01*
X188520283Y-100791579D01*
X188523803Y-100795014D01*
X188527480Y-100798213D01*
X188531301Y-100801173D01*
X188535256Y-100803893D01*
X188539333Y-100806369D01*
X188543519Y-100808600D01*
X188547803Y-100810584D01*
X188552174Y-100812318D01*
X188556619Y-100813801D01*
X188561127Y-100815029D01*
X188565686Y-100816001D01*
X188570284Y-100816715D01*
X188574910Y-100817168D01*
X188579552Y-100817359D01*
X188584197Y-100817284D01*
X188588835Y-100816942D01*
X188593453Y-100816331D01*
X188598040Y-100815449D01*
X188602584Y-100814292D01*
X188607074Y-100812860D01*
X188611496Y-100811150D01*
X188615841Y-100809159D01*
X188620095Y-100806885D01*
X188624248Y-100804327D01*
X188628287Y-100801482D01*
X188632200Y-100798348D01*
X188635977Y-100794923D01*
X188640272Y-100790403D01*
X188644294Y-100785460D01*
X188648043Y-100780122D01*
X188651517Y-100774416D01*
X188654717Y-100768371D01*
X188657642Y-100762015D01*
X188660292Y-100755374D01*
X188662667Y-100748477D01*
X188666588Y-100734026D01*
X188669401Y-100718884D01*
X188671105Y-100703272D01*
X188671696Y-100687414D01*
X188671170Y-100671530D01*
X188669525Y-100655844D01*
X188666758Y-100640578D01*
X188662865Y-100625953D01*
X188660496Y-100618951D01*
X188657844Y-100612193D01*
X188654909Y-100605706D01*
X188651691Y-100599518D01*
X188648189Y-100593658D01*
X188644403Y-100588152D01*
X188640332Y-100583030D01*
X188635977Y-100578317D01*
X188633003Y-100575421D01*
X188630144Y-100572809D01*
X188627365Y-100570468D01*
X188624633Y-100568384D01*
X188621913Y-100566544D01*
X188620547Y-100565712D01*
X188619172Y-100564935D01*
X188617782Y-100564213D01*
X188616375Y-100563543D01*
X188614944Y-100562924D01*
X188613487Y-100562354D01*
X188611999Y-100561832D01*
X188610476Y-100561355D01*
X188607307Y-100560534D01*
X188603945Y-100559875D01*
X188600357Y-100559366D01*
X188596509Y-100558994D01*
X188592366Y-100558745D01*
X188587895Y-100558605D01*
X188583060Y-100558562D01*
X188577993Y-100558606D01*
X188573343Y-100558752D01*
X188569064Y-100559017D01*
X188565113Y-100559422D01*
X188561443Y-100559983D01*
X188558008Y-100560720D01*
X188554763Y-100561651D01*
X188551663Y-100562795D01*
X188548663Y-100564171D01*
X188545716Y-100565796D01*
X188542777Y-100567691D01*
X188539801Y-100569873D01*
X188536743Y-100572360D01*
X188533556Y-100575173D01*
X188530195Y-100578328D01*
X188526616Y-100581845D01*
X188524105Y-100584471D01*
X188521605Y-100587306D01*
X188519131Y-100590330D01*
X188516694Y-100593520D01*
X188514307Y-100596854D01*
X188511981Y-100600312D01*
X188509730Y-100603871D01*
X188507566Y-100607510D01*
X188505501Y-100611206D01*
X188503548Y-100614939D01*
X188501718Y-100618686D01*
X188500025Y-100622425D01*
X188498481Y-100626136D01*
X188497098Y-100629797D01*
X188495889Y-100633384D01*
X188494866Y-100636878D01*
X188493070Y-100644213D01*
X188491646Y-100652130D01*
X188490583Y-100660536D01*
X188489872Y-100669334D01*
X188489505Y-100678430D01*
X188489471Y-100687728D01*
X188276144Y-100687728D01*
X188276144Y-100205784D01*
X188487810Y-100205784D01*
X188487810Y-100332784D01*
X188488174Y-100382096D01*
X188489133Y-100422478D01*
X188489774Y-100438018D01*
X188490489Y-100449763D01*
X188491254Y-100457192D01*
X188491647Y-100459125D01*
X188492044Y-100459784D01*
X188492273Y-100459759D01*
X188492562Y-100459686D01*
X188493314Y-100459401D01*
X188494285Y-100458937D01*
X188495461Y-100458307D01*
X188496827Y-100457519D01*
X188498369Y-100456584D01*
X188501921Y-100454316D01*
X188506003Y-100451585D01*
X188510498Y-100448473D01*
X188515291Y-100445064D01*
X188520266Y-100441439D01*
X188526769Y-100436601D01*
X188533334Y-100432133D01*
X188539987Y-100428028D01*
X188546757Y-100424275D01*
X188553672Y-100420864D01*
X188560760Y-100417788D01*
X188568048Y-100415036D01*
X188575564Y-100412600D01*
X188583337Y-100410469D01*
X188591394Y-100408635D01*
X188599763Y-100407089D01*
X188608472Y-100405820D01*
X188617548Y-100404820D01*
X188627021Y-100404079D01*
X188636918Y-100403589D01*
X188647266Y-100403339D01*
X188659178Y-100403515D01*
X188670595Y-100404052D01*
X188681551Y-100404963D01*
X188692080Y-100406261D01*
X188702216Y-100407960D01*
X188711994Y-100410074D01*
X188721447Y-100412615D01*
X188730610Y-100415598D01*
X188739516Y-100419036D01*
X188748200Y-100422942D01*
X188756696Y-100427329D01*
X188765039Y-100432212D01*
X188773261Y-100437603D01*
X188781397Y-100443516D01*
X188789482Y-100449964D01*
X188797549Y-100456962D01*
X188805529Y-100464514D01*
X188813070Y-100472365D01*
X188820179Y-100480535D01*
X188826863Y-100489042D01*
X188833129Y-100497905D01*
X188838986Y-100507142D01*
X188844439Y-100516771D01*
X188849496Y-100526812D01*
X188854164Y-100537282D01*
X188858452Y-100548202D01*
X188862365Y-100559588D01*
X188865911Y-100571460D01*
X188869098Y-100583837D01*
X188871932Y-100596736D01*
X188874421Y-100610177D01*
X188876571Y-100624178D01*
X188879733Y-100654376D01*
X188880794Y-100684022D01*
X188880680Y-100687414D01*
X188879821Y-100712981D01*
G37*
G36*
X190802033Y-100960728D02*
G01*
X190562144Y-100960728D01*
X190562144Y-100678506D01*
X190469716Y-100678506D01*
X190439500Y-100678079D01*
X190411243Y-100676775D01*
X190384872Y-100674562D01*
X190360311Y-100671406D01*
X190337486Y-100667275D01*
X190316324Y-100662135D01*
X190296749Y-100655953D01*
X190278687Y-100648696D01*
X190262064Y-100640332D01*
X190246805Y-100630826D01*
X190232835Y-100620146D01*
X190220082Y-100608259D01*
X190208469Y-100595132D01*
X190197923Y-100580732D01*
X190188369Y-100565025D01*
X190179733Y-100547978D01*
X190177225Y-100542439D01*
X190174984Y-100537137D01*
X190172995Y-100531978D01*
X190171244Y-100526867D01*
X190169716Y-100521710D01*
X190168397Y-100516414D01*
X190167272Y-100510885D01*
X190166327Y-100505028D01*
X190165547Y-100498749D01*
X190164919Y-100491954D01*
X190164426Y-100484550D01*
X190164056Y-100476442D01*
X190163793Y-100467536D01*
X190163623Y-100457737D01*
X190163534Y-100440660D01*
X190386958Y-100440660D01*
X190387093Y-100445475D01*
X190387486Y-100450268D01*
X190388136Y-100455021D01*
X190389040Y-100459721D01*
X190390196Y-100464352D01*
X190391602Y-100468899D01*
X190393255Y-100473346D01*
X190395154Y-100477679D01*
X190397297Y-100481882D01*
X190399680Y-100485939D01*
X190402302Y-100489836D01*
X190405161Y-100493557D01*
X190408255Y-100497088D01*
X190411580Y-100500412D01*
X190415136Y-100503514D01*
X190418920Y-100506381D01*
X190422929Y-100508995D01*
X190427162Y-100511342D01*
X190431616Y-100513406D01*
X190434480Y-100514447D01*
X190437758Y-100515451D01*
X190441418Y-100516414D01*
X190445429Y-100517331D01*
X190449759Y-100518198D01*
X190454374Y-100519012D01*
X190464336Y-100520462D01*
X190475059Y-100521647D01*
X190486285Y-100522534D01*
X190497760Y-100523091D01*
X190509227Y-100523284D01*
X190562144Y-100523284D01*
X190562144Y-100359595D01*
X190495116Y-100362417D01*
X190474721Y-100363210D01*
X190458559Y-100364126D01*
X190451839Y-100364690D01*
X190445903Y-100365357D01*
X190440663Y-100366149D01*
X190436026Y-100367091D01*
X190431901Y-100368208D01*
X190428198Y-100369521D01*
X190424826Y-100371056D01*
X190421694Y-100372835D01*
X190418711Y-100374883D01*
X190415785Y-100377224D01*
X190412826Y-100379881D01*
X190409744Y-100382878D01*
X190406316Y-100386609D01*
X190403176Y-100390514D01*
X190400320Y-100394579D01*
X190397748Y-100398789D01*
X190395456Y-100403128D01*
X190393442Y-100407581D01*
X190391705Y-100412132D01*
X190390242Y-100416767D01*
X190389050Y-100421470D01*
X190388128Y-100426226D01*
X190387474Y-100431020D01*
X190387085Y-100435836D01*
X190386958Y-100440660D01*
X190163534Y-100440660D01*
X190163505Y-100435089D01*
X190163650Y-100413230D01*
X190164133Y-100394884D01*
X190165030Y-100379465D01*
X190165657Y-100372670D01*
X190166415Y-100366386D01*
X190167314Y-100360540D01*
X190168362Y-100355060D01*
X190169570Y-100349871D01*
X190170946Y-100344900D01*
X190172500Y-100340073D01*
X190174241Y-100335318D01*
X190178321Y-100325728D01*
X190182199Y-100317891D01*
X190186420Y-100310257D01*
X190190983Y-100302832D01*
X190195883Y-100295621D01*
X190201119Y-100288629D01*
X190206686Y-100281861D01*
X190212581Y-100275323D01*
X190218803Y-100269019D01*
X190225347Y-100262955D01*
X190232210Y-100257136D01*
X190239389Y-100251568D01*
X190246882Y-100246254D01*
X190254684Y-100241201D01*
X190262794Y-100236414D01*
X190271207Y-100231897D01*
X190279922Y-100227656D01*
X190318727Y-100209312D01*
X190560027Y-100207195D01*
X190802033Y-100205078D01*
X190802033Y-100359595D01*
X190802033Y-100960728D01*
G37*
G36*
X191378958Y-103066946D02*
G01*
X191422722Y-103118305D01*
X191469845Y-103167063D01*
X191520280Y-103213201D01*
X191573978Y-103256697D01*
X191630893Y-103297530D01*
X191690976Y-103335680D01*
X191754181Y-103371127D01*
X191820459Y-103403849D01*
X191889764Y-103433826D01*
X191962047Y-103461038D01*
X192037262Y-103485463D01*
X192115360Y-103507081D01*
X192196293Y-103525871D01*
X192280016Y-103541813D01*
X192366479Y-103554886D01*
X192455636Y-103565069D01*
X192544270Y-103571492D01*
X192630181Y-103573329D01*
X192713260Y-103570622D01*
X192793398Y-103563415D01*
X192870486Y-103551752D01*
X192944412Y-103535675D01*
X193015069Y-103515229D01*
X193082346Y-103490456D01*
X193146133Y-103461401D01*
X193206322Y-103428105D01*
X193262803Y-103390614D01*
X193315465Y-103348970D01*
X193364201Y-103303217D01*
X193408899Y-103253398D01*
X193449451Y-103199556D01*
X193485747Y-103141735D01*
X193499723Y-103117517D01*
X193505309Y-103108345D01*
X193509978Y-103101188D01*
X193513747Y-103096089D01*
X193515298Y-103094326D01*
X193516629Y-103093093D01*
X193517742Y-103092397D01*
X193518638Y-103092243D01*
X193519320Y-103092635D01*
X193519790Y-103093581D01*
X193520049Y-103095085D01*
X193520098Y-103097152D01*
X193519941Y-103099788D01*
X193519578Y-103102999D01*
X193518243Y-103111164D01*
X193516108Y-103121693D01*
X193513187Y-103134628D01*
X193509496Y-103150012D01*
X193499858Y-103188302D01*
X193491453Y-103218523D01*
X193482111Y-103248068D01*
X193471828Y-103276942D01*
X193460603Y-103305146D01*
X193448432Y-103332683D01*
X193435313Y-103359557D01*
X193421242Y-103385769D01*
X193406218Y-103411324D01*
X193390236Y-103436223D01*
X193373294Y-103460470D01*
X193355389Y-103484067D01*
X193336519Y-103507017D01*
X193316681Y-103529324D01*
X193295871Y-103550989D01*
X193274087Y-103572017D01*
X193251326Y-103592409D01*
X193227585Y-103612168D01*
X193202862Y-103631298D01*
X193177153Y-103649801D01*
X193150456Y-103667680D01*
X193094086Y-103701577D01*
X193033728Y-103733013D01*
X192969361Y-103762009D01*
X192900960Y-103788589D01*
X192828504Y-103812775D01*
X192751969Y-103834591D01*
X192716270Y-103843025D01*
X192677180Y-103850336D01*
X192635114Y-103856527D01*
X192590485Y-103861600D01*
X192543706Y-103865557D01*
X192495191Y-103868400D01*
X192445353Y-103870130D01*
X192394605Y-103870751D01*
X192343361Y-103870263D01*
X192292035Y-103868670D01*
X192241039Y-103865973D01*
X192190788Y-103862174D01*
X192141694Y-103857275D01*
X192094171Y-103851279D01*
X192048632Y-103844187D01*
X192005491Y-103836002D01*
X191910105Y-103814163D01*
X191817138Y-103789419D01*
X191726665Y-103761805D01*
X191638757Y-103731359D01*
X191553486Y-103698119D01*
X191470925Y-103662121D01*
X191391147Y-103623403D01*
X191314223Y-103582002D01*
X191240226Y-103537955D01*
X191169229Y-103491299D01*
X191101303Y-103442072D01*
X191036521Y-103390311D01*
X190974955Y-103336053D01*
X190916678Y-103279335D01*
X190861763Y-103220194D01*
X190810280Y-103158668D01*
X190793352Y-103136738D01*
X190776722Y-103114726D01*
X190760820Y-103093209D01*
X190746075Y-103072767D01*
X190732917Y-103053979D01*
X190721777Y-103037423D01*
X190713085Y-103023679D01*
X190707269Y-103013324D01*
X190684691Y-102972402D01*
X191302758Y-102972402D01*
X191378958Y-103066946D01*
G37*
G36*
X192595336Y-102685946D02*
G01*
X192595759Y-102695785D01*
X192595945Y-102704729D01*
X192595854Y-102712875D01*
X192595446Y-102720320D01*
X192594683Y-102727162D01*
X192593525Y-102733497D01*
X192591933Y-102739423D01*
X192590962Y-102742263D01*
X192589868Y-102745037D01*
X192588645Y-102747757D01*
X192587290Y-102750435D01*
X192584160Y-102755716D01*
X192580439Y-102760977D01*
X192576087Y-102766313D01*
X192571066Y-102771824D01*
X192565336Y-102777605D01*
X192558857Y-102783754D01*
X192551591Y-102790368D01*
X192541466Y-102798869D01*
X192536343Y-102802747D01*
X192531174Y-102806379D01*
X192525956Y-102809763D01*
X192520685Y-102812900D01*
X192515355Y-102815792D01*
X192509964Y-102818436D01*
X192504506Y-102820835D01*
X192498978Y-102822988D01*
X192493375Y-102824896D01*
X192487694Y-102826559D01*
X192481931Y-102827976D01*
X192476080Y-102829149D01*
X192470139Y-102830077D01*
X192464102Y-102830762D01*
X192457967Y-102831202D01*
X192451728Y-102831399D01*
X192445381Y-102831352D01*
X192438923Y-102831062D01*
X192432349Y-102830529D01*
X192425655Y-102829754D01*
X192411891Y-102827476D01*
X192397598Y-102824231D01*
X192382743Y-102820021D01*
X192367293Y-102814848D01*
X192351214Y-102808713D01*
X192332833Y-102801365D01*
X192325197Y-102798524D01*
X192318471Y-102796233D01*
X192312565Y-102794488D01*
X192307384Y-102793284D01*
X192302835Y-102792618D01*
X192300769Y-102792485D01*
X192298826Y-102792485D01*
X192296995Y-102792617D01*
X192295263Y-102792881D01*
X192293621Y-102793277D01*
X192292054Y-102793803D01*
X192290553Y-102794459D01*
X192289106Y-102795245D01*
X192287700Y-102796160D01*
X192286324Y-102797204D01*
X192283618Y-102799675D01*
X192280892Y-102802655D01*
X192278055Y-102806140D01*
X192275014Y-102810124D01*
X192273557Y-102812055D01*
X192272092Y-102813880D01*
X192270611Y-102815601D01*
X192269105Y-102817218D01*
X192267565Y-102818735D01*
X192265985Y-102820151D01*
X192264354Y-102821470D01*
X192262666Y-102822692D01*
X192260912Y-102823819D01*
X192259083Y-102824852D01*
X192257172Y-102825793D01*
X192255170Y-102826644D01*
X192253068Y-102827406D01*
X192250859Y-102828081D01*
X192248535Y-102828669D01*
X192246086Y-102829174D01*
X192243505Y-102829596D01*
X192240783Y-102829937D01*
X192237913Y-102830198D01*
X192234885Y-102830381D01*
X192231692Y-102830488D01*
X192228326Y-102830520D01*
X192224777Y-102830478D01*
X192221039Y-102830365D01*
X192212958Y-102829929D01*
X192204017Y-102829224D01*
X192194150Y-102828263D01*
X192183291Y-102827057D01*
X192165546Y-102824584D01*
X192148042Y-102821407D01*
X192130794Y-102817542D01*
X192113822Y-102813007D01*
X192097140Y-102807816D01*
X192080767Y-102801986D01*
X192064720Y-102795533D01*
X192049015Y-102788472D01*
X192018702Y-102772594D01*
X191989964Y-102754479D01*
X191962937Y-102734255D01*
X191937758Y-102712052D01*
X191914563Y-102687996D01*
X191903753Y-102675314D01*
X191893490Y-102662216D01*
X191883791Y-102648720D01*
X191874673Y-102634841D01*
X191866154Y-102620595D01*
X191858251Y-102605998D01*
X191850980Y-102591066D01*
X191844358Y-102575816D01*
X191838403Y-102560262D01*
X191833132Y-102544422D01*
X191828561Y-102528311D01*
X191824709Y-102511945D01*
X191821591Y-102495340D01*
X191819225Y-102478513D01*
X191818070Y-102466646D01*
X191817510Y-102454864D01*
X191817537Y-102443180D01*
X191818142Y-102431605D01*
X191819316Y-102420149D01*
X191821051Y-102408824D01*
X191823338Y-102397642D01*
X191826170Y-102386614D01*
X191829537Y-102375752D01*
X191833431Y-102365066D01*
X191837843Y-102354568D01*
X191842764Y-102344270D01*
X191848187Y-102334183D01*
X191854103Y-102324317D01*
X191860503Y-102314686D01*
X191867379Y-102305299D01*
X191874722Y-102296169D01*
X191882523Y-102287306D01*
X191890775Y-102278722D01*
X191899468Y-102270429D01*
X191908594Y-102262438D01*
X191918145Y-102254760D01*
X191928111Y-102247406D01*
X191938486Y-102240388D01*
X191949259Y-102233717D01*
X191960422Y-102227405D01*
X191971968Y-102221464D01*
X191983886Y-102215903D01*
X191996170Y-102210735D01*
X192008810Y-102205971D01*
X192021798Y-102201623D01*
X192035125Y-102197702D01*
X192051736Y-102193565D01*
X192070182Y-102190142D01*
X192090216Y-102187417D01*
X192111589Y-102185377D01*
X192134054Y-102184006D01*
X192157362Y-102183290D01*
X192181266Y-102183216D01*
X192205516Y-102183767D01*
X192229866Y-102184931D01*
X192254067Y-102186691D01*
X192277872Y-102189035D01*
X192301031Y-102191947D01*
X192323297Y-102195413D01*
X192344423Y-102199419D01*
X192364159Y-102203950D01*
X192382258Y-102208991D01*
X192423408Y-102223614D01*
X192462683Y-102240451D01*
X192500028Y-102259434D01*
X192535386Y-102280494D01*
X192568701Y-102303564D01*
X192599919Y-102328574D01*
X192628983Y-102355457D01*
X192655837Y-102384145D01*
X192680426Y-102414569D01*
X192702693Y-102446661D01*
X192722584Y-102480353D01*
X192740041Y-102515577D01*
X192755009Y-102552264D01*
X192767434Y-102590346D01*
X192777257Y-102629756D01*
X192784425Y-102670424D01*
X192785860Y-102683221D01*
X192786733Y-102695941D01*
X192787049Y-102708571D01*
X192786817Y-102721100D01*
X192786043Y-102733516D01*
X192784735Y-102745809D01*
X192782899Y-102757965D01*
X192780544Y-102769973D01*
X192777676Y-102781823D01*
X192774303Y-102793502D01*
X192770432Y-102804998D01*
X192766069Y-102816300D01*
X192755901Y-102838276D01*
X192743855Y-102859337D01*
X192729991Y-102879388D01*
X192714365Y-102898338D01*
X192697036Y-102916093D01*
X192678062Y-102932560D01*
X192657500Y-102947646D01*
X192635409Y-102961259D01*
X192611846Y-102973305D01*
X192599531Y-102978711D01*
X192586869Y-102983691D01*
X192544707Y-102997742D01*
X192500530Y-103008721D01*
X192454769Y-103016700D01*
X192407856Y-103021747D01*
X192360225Y-103023933D01*
X192312306Y-103023329D01*
X192264532Y-103020004D01*
X192217334Y-103014030D01*
X192171146Y-103005475D01*
X192126398Y-102994412D01*
X192083522Y-102980909D01*
X192042952Y-102965038D01*
X192005118Y-102946868D01*
X191970453Y-102926469D01*
X191939389Y-102903913D01*
X191925343Y-102891847D01*
X191912358Y-102879269D01*
X191865791Y-102831291D01*
X191902480Y-102831291D01*
X191906555Y-102831535D01*
X191911330Y-102832253D01*
X191916746Y-102833421D01*
X191922743Y-102835017D01*
X191929261Y-102837018D01*
X191936239Y-102839402D01*
X191943619Y-102842145D01*
X191951340Y-102845225D01*
X191959342Y-102848620D01*
X191967565Y-102852306D01*
X191975949Y-102856260D01*
X191984435Y-102860461D01*
X191992962Y-102864885D01*
X192001470Y-102869509D01*
X192009900Y-102874311D01*
X192018191Y-102879269D01*
X192042087Y-102892678D01*
X192067139Y-102904850D01*
X192093250Y-102915775D01*
X192120320Y-102925438D01*
X192148251Y-102933829D01*
X192176941Y-102940933D01*
X192206294Y-102946739D01*
X192236208Y-102951235D01*
X192266585Y-102954408D01*
X192297327Y-102956246D01*
X192328333Y-102956736D01*
X192359504Y-102955865D01*
X192390741Y-102953623D01*
X192421945Y-102949995D01*
X192453018Y-102944970D01*
X192483858Y-102938535D01*
X192510050Y-102931609D01*
X192534641Y-102923537D01*
X192557621Y-102914332D01*
X192578976Y-102904007D01*
X192589040Y-102898428D01*
X192598693Y-102892574D01*
X192607934Y-102886446D01*
X192616762Y-102880046D01*
X192625173Y-102873375D01*
X192633168Y-102866434D01*
X192640744Y-102859226D01*
X192647900Y-102851752D01*
X192654634Y-102844013D01*
X192660945Y-102836011D01*
X192666831Y-102827748D01*
X192672291Y-102819225D01*
X192677323Y-102810443D01*
X192681926Y-102801405D01*
X192686097Y-102792111D01*
X192689836Y-102782563D01*
X192693141Y-102772764D01*
X192696010Y-102762713D01*
X192698443Y-102752414D01*
X192700436Y-102741867D01*
X192701989Y-102731074D01*
X192703100Y-102720037D01*
X192703768Y-102708757D01*
X192703991Y-102697235D01*
X192702924Y-102666770D01*
X192699750Y-102636805D01*
X192694513Y-102607411D01*
X192687256Y-102578658D01*
X192678024Y-102550615D01*
X192666859Y-102523354D01*
X192653804Y-102496945D01*
X192638904Y-102471457D01*
X192622201Y-102446962D01*
X192603739Y-102423529D01*
X192583561Y-102401229D01*
X192561712Y-102380132D01*
X192538233Y-102360308D01*
X192513169Y-102341828D01*
X192486563Y-102324762D01*
X192458458Y-102309180D01*
X192442774Y-102301183D01*
X192428364Y-102294085D01*
X192414985Y-102287826D01*
X192402388Y-102282346D01*
X192390330Y-102277586D01*
X192378562Y-102273486D01*
X192366840Y-102269984D01*
X192354918Y-102267023D01*
X192342549Y-102264540D01*
X192329487Y-102262478D01*
X192315488Y-102260775D01*
X192300303Y-102259372D01*
X192283689Y-102258208D01*
X192265398Y-102257225D01*
X192222803Y-102255557D01*
X192181483Y-102254334D01*
X192147573Y-102253970D01*
X192132941Y-102254172D01*
X192119615Y-102254664D01*
X192107414Y-102255471D01*
X192096155Y-102256616D01*
X192085657Y-102258125D01*
X192075738Y-102260022D01*
X192066216Y-102262333D01*
X192056909Y-102265082D01*
X192047634Y-102268295D01*
X192038211Y-102271995D01*
X192018191Y-102280957D01*
X192011518Y-102284573D01*
X192004758Y-102288515D01*
X191997957Y-102292746D01*
X191991160Y-102297229D01*
X191984412Y-102301928D01*
X191977760Y-102306804D01*
X191971248Y-102311821D01*
X191964922Y-102316941D01*
X191958828Y-102322127D01*
X191953010Y-102327342D01*
X191947515Y-102332549D01*
X191942388Y-102337711D01*
X191937675Y-102342789D01*
X191933420Y-102347748D01*
X191929670Y-102352550D01*
X191926469Y-102357157D01*
X191920514Y-102367830D01*
X191915339Y-102378921D01*
X191910932Y-102390394D01*
X191907279Y-102402214D01*
X191904366Y-102414343D01*
X191902182Y-102426747D01*
X191900713Y-102439388D01*
X191899945Y-102452231D01*
X191899865Y-102465239D01*
X191900460Y-102478377D01*
X191901718Y-102491607D01*
X191903624Y-102504894D01*
X191906166Y-102518202D01*
X191909330Y-102531494D01*
X191917473Y-102557888D01*
X191927948Y-102583785D01*
X191940649Y-102608897D01*
X191955471Y-102632935D01*
X191963644Y-102644460D01*
X191972308Y-102655607D01*
X191981450Y-102666342D01*
X191991055Y-102676627D01*
X192001112Y-102686426D01*
X192011607Y-102695703D01*
X192022527Y-102704422D01*
X192033858Y-102712547D01*
X192045588Y-102720041D01*
X192057702Y-102726869D01*
X192066222Y-102731102D01*
X192074790Y-102734806D01*
X192083326Y-102737981D01*
X192091746Y-102740627D01*
X192099967Y-102742743D01*
X192107907Y-102744331D01*
X192115484Y-102745389D01*
X192122614Y-102745918D01*
X192129214Y-102745918D01*
X192135203Y-102745389D01*
X192140498Y-102744331D01*
X192142859Y-102743603D01*
X192145015Y-102742744D01*
X192146956Y-102741751D01*
X192148672Y-102740627D01*
X192150153Y-102739370D01*
X192151387Y-102737981D01*
X192152365Y-102736460D01*
X192153076Y-102734806D01*
X192153511Y-102733020D01*
X192153658Y-102731102D01*
X192153267Y-102728637D01*
X192152120Y-102724479D01*
X192147705Y-102711457D01*
X192140710Y-102692779D01*
X192131433Y-102669189D01*
X192120172Y-102641433D01*
X192107224Y-102610253D01*
X192092887Y-102576395D01*
X192077458Y-102540602D01*
X192066818Y-102516613D01*
X192195991Y-102516613D01*
X192196322Y-102526625D01*
X192197296Y-102536795D01*
X192198889Y-102547094D01*
X192201074Y-102557488D01*
X192203825Y-102567948D01*
X192207116Y-102578442D01*
X192215218Y-102599406D01*
X192225171Y-102620129D01*
X192236770Y-102640364D01*
X192249808Y-102659858D01*
X192264077Y-102678362D01*
X192279372Y-102695625D01*
X192295486Y-102711399D01*
X192312211Y-102725432D01*
X192329341Y-102737474D01*
X192337994Y-102742671D01*
X192346670Y-102747276D01*
X192355344Y-102751258D01*
X192363991Y-102754586D01*
X192372583Y-102757230D01*
X192381096Y-102759156D01*
X192389504Y-102760335D01*
X192397780Y-102760735D01*
X192408450Y-102760482D01*
X192418252Y-102759702D01*
X192422836Y-102759104D01*
X192427211Y-102758363D01*
X192431382Y-102757475D01*
X192435351Y-102756436D01*
X192439122Y-102755241D01*
X192442697Y-102753888D01*
X192446081Y-102752372D01*
X192449275Y-102750689D01*
X192452283Y-102748836D01*
X192455108Y-102746808D01*
X192457753Y-102744602D01*
X192460222Y-102742214D01*
X192462517Y-102739640D01*
X192464641Y-102736876D01*
X192466598Y-102733918D01*
X192468391Y-102730763D01*
X192470022Y-102727406D01*
X192471496Y-102723843D01*
X192472814Y-102720072D01*
X192473980Y-102716087D01*
X192474998Y-102711885D01*
X192475870Y-102707462D01*
X192476599Y-102702814D01*
X192477188Y-102697938D01*
X192477961Y-102687484D01*
X192478214Y-102676069D01*
X192477609Y-102661187D01*
X192476087Y-102646466D01*
X192473690Y-102631939D01*
X192470461Y-102617642D01*
X192466441Y-102603611D01*
X192461672Y-102589882D01*
X192456197Y-102576488D01*
X192450058Y-102563466D01*
X192443296Y-102550852D01*
X192435954Y-102538680D01*
X192428075Y-102526986D01*
X192419699Y-102515805D01*
X192410870Y-102505174D01*
X192401629Y-102495126D01*
X192392019Y-102485698D01*
X192382082Y-102476925D01*
X192371859Y-102468843D01*
X192361393Y-102461486D01*
X192350726Y-102454891D01*
X192339900Y-102449092D01*
X192328957Y-102444125D01*
X192317940Y-102440025D01*
X192306890Y-102436829D01*
X192295849Y-102434570D01*
X192284861Y-102433285D01*
X192273966Y-102433009D01*
X192263207Y-102433777D01*
X192252626Y-102435626D01*
X192242265Y-102438589D01*
X192232167Y-102442703D01*
X192222372Y-102448003D01*
X192212925Y-102454524D01*
X192212131Y-102455247D01*
X192211339Y-102456089D01*
X192210550Y-102457048D01*
X192209766Y-102458118D01*
X192208218Y-102460576D01*
X192206707Y-102463432D01*
X192205246Y-102466651D01*
X192203846Y-102470201D01*
X192202521Y-102474048D01*
X192201283Y-102478160D01*
X192200144Y-102482504D01*
X192199117Y-102487046D01*
X192198213Y-102491753D01*
X192197447Y-102496593D01*
X192196829Y-102501532D01*
X192196372Y-102506537D01*
X192196088Y-102511575D01*
X192195991Y-102516613D01*
X192066818Y-102516613D01*
X191999847Y-102365624D01*
X192049236Y-102365624D01*
X192054556Y-102365754D01*
X192059913Y-102366137D01*
X192065278Y-102366759D01*
X192070623Y-102367608D01*
X192075918Y-102368673D01*
X192081135Y-102369940D01*
X192086244Y-102371397D01*
X192091216Y-102373032D01*
X192096024Y-102374833D01*
X192100637Y-102376786D01*
X192105026Y-102378880D01*
X192109164Y-102381102D01*
X192113020Y-102383440D01*
X192116567Y-102385881D01*
X192119774Y-102388413D01*
X192122614Y-102391024D01*
X192127108Y-102395489D01*
X192131122Y-102399358D01*
X192134734Y-102402633D01*
X192136415Y-102404046D01*
X192138026Y-102405312D01*
X192139576Y-102406428D01*
X192141078Y-102407395D01*
X192142539Y-102408214D01*
X192143970Y-102408883D01*
X192145382Y-102409404D01*
X192146785Y-102409776D01*
X192148188Y-102410000D01*
X192149601Y-102410074D01*
X192151035Y-102410000D01*
X192152500Y-102409776D01*
X192154006Y-102409404D01*
X192155562Y-102408883D01*
X192157180Y-102408214D01*
X192158869Y-102407395D01*
X192160638Y-102406428D01*
X192162499Y-102405312D01*
X192164462Y-102404046D01*
X192166535Y-102402633D01*
X192171057Y-102399358D01*
X192176145Y-102395489D01*
X192181880Y-102391024D01*
X192185513Y-102388413D01*
X192189514Y-102385881D01*
X192193855Y-102383440D01*
X192198505Y-102381102D01*
X192203436Y-102378880D01*
X192208620Y-102376786D01*
X192214026Y-102374833D01*
X192219627Y-102373032D01*
X192225394Y-102371397D01*
X192231297Y-102369940D01*
X192237307Y-102368673D01*
X192243396Y-102367608D01*
X192249534Y-102366759D01*
X192255693Y-102366137D01*
X192261844Y-102365754D01*
X192267958Y-102365624D01*
X192282662Y-102366090D01*
X192297385Y-102367470D01*
X192312096Y-102369732D01*
X192326764Y-102372848D01*
X192341359Y-102376787D01*
X192355850Y-102381521D01*
X192370206Y-102387019D01*
X192384397Y-102393251D01*
X192398391Y-102400188D01*
X192412158Y-102407801D01*
X192425667Y-102416059D01*
X192438887Y-102424932D01*
X192451788Y-102434392D01*
X192464339Y-102444408D01*
X192476509Y-102454950D01*
X192488268Y-102465989D01*
X192499584Y-102477496D01*
X192510427Y-102489440D01*
X192520766Y-102501791D01*
X192530571Y-102514521D01*
X192539810Y-102527599D01*
X192548453Y-102540996D01*
X192556470Y-102554681D01*
X192563828Y-102568626D01*
X192570499Y-102582800D01*
X192576450Y-102597173D01*
X192581652Y-102611717D01*
X192586073Y-102626401D01*
X192589682Y-102641196D01*
X192592450Y-102656071D01*
X192594345Y-102670998D01*
X192594681Y-102676069D01*
X192595336Y-102685946D01*
G37*
G36*
X191537747Y-102068786D02*
G01*
X191551861Y-102069968D01*
X191565004Y-102071826D01*
X191576808Y-102074371D01*
X191582092Y-102075903D01*
X191586904Y-102077611D01*
X191591197Y-102079496D01*
X191594925Y-102081559D01*
X191598042Y-102083801D01*
X191600502Y-102086224D01*
X191610940Y-102122530D01*
X191630555Y-102208131D01*
X191684287Y-102463520D01*
X191735638Y-102724994D01*
X191752277Y-102818202D01*
X191758547Y-102865157D01*
X191758454Y-102866960D01*
X191758332Y-102867825D01*
X191758154Y-102868667D01*
X191757915Y-102869484D01*
X191757612Y-102870279D01*
X191757240Y-102871050D01*
X191756794Y-102871800D01*
X191756271Y-102872526D01*
X191755666Y-102873231D01*
X191754975Y-102873915D01*
X191754194Y-102874577D01*
X191753318Y-102875218D01*
X191752343Y-102875839D01*
X191751265Y-102876439D01*
X191750080Y-102877020D01*
X191748783Y-102877580D01*
X191747371Y-102878122D01*
X191744181Y-102879148D01*
X191740476Y-102880101D01*
X191736223Y-102880983D01*
X191731386Y-102881797D01*
X191725933Y-102882545D01*
X191719828Y-102883230D01*
X191713039Y-102883855D01*
X191705529Y-102884421D01*
X191697267Y-102884933D01*
X191688217Y-102885392D01*
X191678345Y-102885800D01*
X191667618Y-102886162D01*
X191656000Y-102886478D01*
X191629959Y-102886986D01*
X191599950Y-102887345D01*
X191565699Y-102887575D01*
X191526933Y-102887699D01*
X191483380Y-102887735D01*
X191382795Y-102887876D01*
X191308932Y-102887272D01*
X191280698Y-102886211D01*
X191257558Y-102884387D01*
X191238982Y-102881607D01*
X191224441Y-102877681D01*
X191218519Y-102875228D01*
X191213406Y-102872415D01*
X191209038Y-102869220D01*
X191205347Y-102865618D01*
X191202269Y-102861584D01*
X191199736Y-102857096D01*
X191196043Y-102846659D01*
X191193739Y-102834113D01*
X191192294Y-102819266D01*
X191189869Y-102781902D01*
X191187047Y-102739568D01*
X191359202Y-102735335D01*
X191402718Y-102734136D01*
X191439305Y-102732623D01*
X191469310Y-102730746D01*
X191493082Y-102728456D01*
X191510966Y-102725703D01*
X191517809Y-102724137D01*
X191523310Y-102722437D01*
X191527514Y-102720596D01*
X191530462Y-102718609D01*
X191532200Y-102716468D01*
X191532769Y-102714168D01*
X191531556Y-102704652D01*
X191528095Y-102684337D01*
X191515483Y-102616273D01*
X191474913Y-102405135D01*
X191452688Y-102289909D01*
X191435755Y-102192410D01*
X191429769Y-102153533D01*
X191425701Y-102122957D01*
X191423750Y-102101972D01*
X191423630Y-102095480D01*
X191424114Y-102091868D01*
X191425549Y-102089293D01*
X191427707Y-102086860D01*
X191430542Y-102084569D01*
X191434008Y-102082423D01*
X191438059Y-102080423D01*
X191442649Y-102078570D01*
X191453262Y-102075310D01*
X191465479Y-102072653D01*
X191478932Y-102070611D01*
X191493253Y-102069193D01*
X191508075Y-102068409D01*
X191523028Y-102068270D01*
X191537747Y-102068786D01*
G37*
G36*
X192898553Y-102070326D02*
G01*
X192912486Y-102071049D01*
X192925530Y-102072161D01*
X192937332Y-102073656D01*
X192947538Y-102075533D01*
X192955795Y-102077785D01*
X192959082Y-102079051D01*
X192961749Y-102080409D01*
X192963752Y-102081860D01*
X192965047Y-102083402D01*
X192966084Y-102085976D01*
X192967585Y-102090967D01*
X192971860Y-102107677D01*
X192977623Y-102132490D01*
X192984626Y-102164364D01*
X192992621Y-102202258D01*
X193001361Y-102245128D01*
X193010597Y-102291935D01*
X193020080Y-102341635D01*
X193040037Y-102442979D01*
X193056968Y-102524264D01*
X193071550Y-102587921D01*
X193084462Y-102636381D01*
X193090504Y-102655672D01*
X193096382Y-102672075D01*
X193102182Y-102685894D01*
X193107988Y-102697434D01*
X193113885Y-102706997D01*
X193119958Y-102714888D01*
X193126291Y-102721410D01*
X193132969Y-102726869D01*
X193137540Y-102729796D01*
X193142250Y-102732492D01*
X193147088Y-102734957D01*
X193152047Y-102737193D01*
X193157115Y-102739199D01*
X193162282Y-102740976D01*
X193172877Y-102743846D01*
X193183753Y-102745806D01*
X193194832Y-102746861D01*
X193206035Y-102747015D01*
X193217283Y-102746271D01*
X193228498Y-102744635D01*
X193239602Y-102742110D01*
X193250515Y-102738700D01*
X193261160Y-102734409D01*
X193271457Y-102729242D01*
X193276451Y-102726331D01*
X193281329Y-102723203D01*
X193286080Y-102719857D01*
X193290696Y-102716295D01*
X193295166Y-102712518D01*
X193299480Y-102708524D01*
X193338991Y-102670424D01*
X193398258Y-102704291D01*
X193427128Y-102719879D01*
X193438718Y-102726466D01*
X193448507Y-102732425D01*
X193456568Y-102737887D01*
X193459973Y-102740474D01*
X193462973Y-102742986D01*
X193465578Y-102745440D01*
X193467796Y-102747853D01*
X193469635Y-102750241D01*
X193471107Y-102752621D01*
X193472218Y-102755009D01*
X193472979Y-102757422D01*
X193473398Y-102759877D01*
X193473485Y-102762389D01*
X193473248Y-102764975D01*
X193472697Y-102767653D01*
X193471841Y-102770438D01*
X193470688Y-102773347D01*
X193467529Y-102779603D01*
X193463293Y-102786554D01*
X193458053Y-102794332D01*
X193451880Y-102803068D01*
X193443540Y-102813871D01*
X193434423Y-102824051D01*
X193424568Y-102833606D01*
X193414017Y-102842536D01*
X193402811Y-102850836D01*
X193390991Y-102858507D01*
X193378597Y-102865545D01*
X193365670Y-102871948D01*
X193352251Y-102877715D01*
X193338382Y-102882843D01*
X193324101Y-102887330D01*
X193309452Y-102891175D01*
X193294473Y-102894374D01*
X193279207Y-102896927D01*
X193263694Y-102898830D01*
X193247975Y-102900082D01*
X193232090Y-102900682D01*
X193216081Y-102900625D01*
X193199988Y-102899912D01*
X193183852Y-102898539D01*
X193167714Y-102896505D01*
X193151615Y-102893807D01*
X193135595Y-102890443D01*
X193119696Y-102886412D01*
X193103958Y-102881711D01*
X193088422Y-102876339D01*
X193073129Y-102870292D01*
X193058120Y-102863570D01*
X193043435Y-102856170D01*
X193029115Y-102848089D01*
X193015202Y-102839326D01*
X193001736Y-102829880D01*
X192994842Y-102824620D01*
X192988176Y-102819135D01*
X192981723Y-102813392D01*
X192975473Y-102807357D01*
X192969412Y-102800995D01*
X192963527Y-102794273D01*
X192957806Y-102787155D01*
X192952237Y-102779609D01*
X192946805Y-102771599D01*
X192941500Y-102763093D01*
X192936308Y-102754055D01*
X192931216Y-102744452D01*
X192926212Y-102734250D01*
X192921283Y-102723414D01*
X192916417Y-102711910D01*
X192911601Y-102699705D01*
X192902067Y-102673052D01*
X192892581Y-102643183D01*
X192883042Y-102609825D01*
X192873347Y-102572705D01*
X192863396Y-102531549D01*
X192853087Y-102486087D01*
X192842319Y-102436043D01*
X192830991Y-102381146D01*
X192802990Y-102237963D01*
X192793933Y-102187025D01*
X192787952Y-102147960D01*
X192784882Y-102119347D01*
X192784387Y-102108515D01*
X192784557Y-102099762D01*
X192785372Y-102092911D01*
X192786811Y-102087784D01*
X192788854Y-102084203D01*
X192791480Y-102081991D01*
X192794185Y-102080457D01*
X192797507Y-102079030D01*
X192805826Y-102076495D01*
X192816083Y-102074382D01*
X192827927Y-102072686D01*
X192841002Y-102071404D01*
X192854955Y-102070531D01*
X192869434Y-102070063D01*
X192884084Y-102069996D01*
X192898553Y-102070326D01*
G37*
G36*
X190586217Y-102057486D02*
G01*
X190603065Y-102058245D01*
X190619207Y-102059391D01*
X190634406Y-102060925D01*
X190648427Y-102062850D01*
X190661034Y-102065167D01*
X190671991Y-102067880D01*
X190700943Y-102078065D01*
X190729513Y-102090030D01*
X190757583Y-102103670D01*
X190785034Y-102118878D01*
X190811750Y-102135550D01*
X190837612Y-102153580D01*
X190862503Y-102172862D01*
X190886304Y-102193292D01*
X190908898Y-102214764D01*
X190930167Y-102237172D01*
X190949993Y-102260410D01*
X190968258Y-102284375D01*
X190984846Y-102308959D01*
X190999636Y-102334059D01*
X191012513Y-102359567D01*
X191023358Y-102385380D01*
X191029872Y-102404666D01*
X191035653Y-102424838D01*
X191040693Y-102445726D01*
X191044988Y-102467158D01*
X191048530Y-102488962D01*
X191051313Y-102510966D01*
X191053331Y-102532999D01*
X191054579Y-102554889D01*
X191055049Y-102576466D01*
X191054736Y-102597556D01*
X191053633Y-102617989D01*
X191051735Y-102637594D01*
X191049034Y-102656198D01*
X191045525Y-102673629D01*
X191041202Y-102689718D01*
X191036058Y-102704291D01*
X191030190Y-102717192D01*
X191023711Y-102729698D01*
X191016638Y-102741800D01*
X191008988Y-102753492D01*
X191000777Y-102764767D01*
X190992023Y-102775617D01*
X190982744Y-102786034D01*
X190972955Y-102796013D01*
X190962674Y-102805545D01*
X190951918Y-102814623D01*
X190940705Y-102823241D01*
X190929051Y-102831390D01*
X190916972Y-102839064D01*
X190904488Y-102846255D01*
X190891613Y-102852956D01*
X190878366Y-102859160D01*
X190864764Y-102864860D01*
X190850823Y-102870048D01*
X190836560Y-102874717D01*
X190821993Y-102878861D01*
X190807139Y-102882471D01*
X190792015Y-102885540D01*
X190776637Y-102888062D01*
X190761024Y-102890028D01*
X190745191Y-102891433D01*
X190729156Y-102892268D01*
X190712936Y-102892526D01*
X190696548Y-102892200D01*
X190680009Y-102891283D01*
X190663336Y-102889768D01*
X190646547Y-102887647D01*
X190629658Y-102884913D01*
X190615108Y-102882035D01*
X190599641Y-102878230D01*
X190583468Y-102873593D01*
X190566797Y-102868222D01*
X190549837Y-102862215D01*
X190532796Y-102855668D01*
X190515883Y-102848679D01*
X190499307Y-102841345D01*
X190483276Y-102833763D01*
X190468000Y-102826029D01*
X190453688Y-102818242D01*
X190440547Y-102810499D01*
X190428787Y-102802896D01*
X190418617Y-102795531D01*
X190410245Y-102788500D01*
X190403880Y-102781902D01*
X190403136Y-102780939D01*
X190402492Y-102779901D01*
X190401948Y-102778790D01*
X190401505Y-102777605D01*
X190401162Y-102776347D01*
X190400922Y-102775015D01*
X190400784Y-102773611D01*
X190400749Y-102772134D01*
X190400818Y-102770585D01*
X190400990Y-102768964D01*
X190401266Y-102767271D01*
X190401648Y-102765506D01*
X190402135Y-102763670D01*
X190402727Y-102761763D01*
X190403427Y-102759785D01*
X190404233Y-102757737D01*
X190405147Y-102755618D01*
X190406168Y-102753429D01*
X190407299Y-102751171D01*
X190408538Y-102748843D01*
X190411346Y-102743979D01*
X190414596Y-102738841D01*
X190418292Y-102733430D01*
X190422440Y-102727748D01*
X190427042Y-102721797D01*
X190432102Y-102715580D01*
X190474436Y-102664780D01*
X190535114Y-102697235D01*
X190550258Y-102705153D01*
X190565251Y-102712244D01*
X190580075Y-102718514D01*
X190594711Y-102723972D01*
X190609140Y-102728625D01*
X190623344Y-102732480D01*
X190637304Y-102735544D01*
X190651001Y-102737827D01*
X190664417Y-102739334D01*
X190677534Y-102740073D01*
X190690332Y-102740053D01*
X190702793Y-102739279D01*
X190714899Y-102737761D01*
X190726631Y-102735504D01*
X190737969Y-102732518D01*
X190748897Y-102728809D01*
X190759394Y-102724384D01*
X190769443Y-102719252D01*
X190779025Y-102713420D01*
X190788121Y-102706895D01*
X190796713Y-102699685D01*
X190804782Y-102691797D01*
X190812309Y-102683239D01*
X190819276Y-102674018D01*
X190825664Y-102664142D01*
X190831455Y-102653618D01*
X190836630Y-102642454D01*
X190841170Y-102630657D01*
X190845057Y-102618234D01*
X190848273Y-102605194D01*
X190850798Y-102591544D01*
X190852614Y-102577291D01*
X190854030Y-102551303D01*
X190853564Y-102525292D01*
X190851283Y-102499401D01*
X190847256Y-102473772D01*
X190841550Y-102448549D01*
X190834233Y-102423874D01*
X190825375Y-102399889D01*
X190815043Y-102376737D01*
X190803305Y-102354560D01*
X190790230Y-102333502D01*
X190775885Y-102313705D01*
X190760340Y-102295311D01*
X190743662Y-102278464D01*
X190725919Y-102263305D01*
X190707180Y-102249977D01*
X190687513Y-102238624D01*
X190673117Y-102231927D01*
X190658065Y-102226122D01*
X190642496Y-102221211D01*
X190626549Y-102217193D01*
X190610362Y-102214067D01*
X190594074Y-102211835D01*
X190577823Y-102210495D01*
X190561748Y-102210049D01*
X190545987Y-102210495D01*
X190530679Y-102211835D01*
X190515962Y-102214067D01*
X190501974Y-102217193D01*
X190488855Y-102221211D01*
X190476743Y-102226122D01*
X190465775Y-102231927D01*
X190460764Y-102235164D01*
X190456091Y-102238624D01*
X190448647Y-102244293D01*
X190441253Y-102249582D01*
X190434090Y-102254375D01*
X190427340Y-102258556D01*
X190424177Y-102260381D01*
X190421186Y-102262009D01*
X190418389Y-102263427D01*
X190415809Y-102264619D01*
X190413468Y-102265572D01*
X190411391Y-102266270D01*
X190409598Y-102266700D01*
X190408114Y-102266846D01*
X190407387Y-102266777D01*
X190406532Y-102266569D01*
X190405553Y-102266228D01*
X190404454Y-102265755D01*
X190401912Y-102264428D01*
X190398941Y-102262613D01*
X190395573Y-102260335D01*
X190391842Y-102257619D01*
X190387779Y-102254489D01*
X190383419Y-102250971D01*
X190378794Y-102247089D01*
X190373938Y-102242868D01*
X190368884Y-102238333D01*
X190363664Y-102233509D01*
X190358311Y-102228420D01*
X190352860Y-102223091D01*
X190347342Y-102217547D01*
X190341791Y-102211813D01*
X190288169Y-102156780D01*
X190336147Y-102122913D01*
X190341100Y-102119179D01*
X190346402Y-102115403D01*
X190352006Y-102111605D01*
X190357865Y-102107810D01*
X190370154Y-102100316D01*
X190382890Y-102093103D01*
X190395692Y-102086354D01*
X190408180Y-102080249D01*
X190419973Y-102074971D01*
X190425490Y-102072699D01*
X190430691Y-102070702D01*
X190441649Y-102067709D01*
X190454256Y-102065082D01*
X190468277Y-102062823D01*
X190483476Y-102060934D01*
X190499617Y-102059417D01*
X190516466Y-102058275D01*
X190533786Y-102057508D01*
X190551341Y-102057120D01*
X190568897Y-102057112D01*
X190586217Y-102057486D01*
G37*
G36*
X183704101Y-102696177D02*
G01*
X183790454Y-103076985D01*
X183808457Y-103156375D01*
X183841345Y-103310242D01*
X183852091Y-103373157D01*
X183851195Y-103374960D01*
X183850061Y-103376666D01*
X183848643Y-103378279D01*
X183846893Y-103379799D01*
X183844766Y-103381231D01*
X183842213Y-103382577D01*
X183839188Y-103383839D01*
X183835643Y-103385020D01*
X183831532Y-103386122D01*
X183826808Y-103387148D01*
X183821423Y-103388101D01*
X183815331Y-103388983D01*
X183808484Y-103389797D01*
X183800836Y-103390545D01*
X183792339Y-103391230D01*
X183782947Y-103391855D01*
X183772612Y-103392421D01*
X183761287Y-103392933D01*
X183735482Y-103393800D01*
X183705153Y-103394478D01*
X183669926Y-103394986D01*
X183629423Y-103395345D01*
X183583269Y-103395575D01*
X183472502Y-103395735D01*
X183330424Y-103395046D01*
X183214556Y-103392604D01*
X183120549Y-103387847D01*
X183080384Y-103384425D01*
X183044054Y-103380213D01*
X183011014Y-103375141D01*
X182980722Y-103369139D01*
X182952633Y-103362137D01*
X182926204Y-103354063D01*
X182900891Y-103344849D01*
X182876151Y-103334423D01*
X182826214Y-103309657D01*
X182811207Y-103301407D01*
X182796619Y-103292798D01*
X182782451Y-103283839D01*
X182768708Y-103274534D01*
X182755394Y-103264890D01*
X182742513Y-103254913D01*
X182730069Y-103244610D01*
X182718065Y-103233987D01*
X182706506Y-103223049D01*
X182695395Y-103211803D01*
X182684736Y-103200255D01*
X182674533Y-103188412D01*
X182664790Y-103176280D01*
X182655511Y-103163864D01*
X182646699Y-103151171D01*
X182638359Y-103138207D01*
X182630495Y-103124979D01*
X182623110Y-103111493D01*
X182616208Y-103097754D01*
X182609793Y-103083769D01*
X182603869Y-103069545D01*
X182598439Y-103055087D01*
X182593509Y-103040401D01*
X182589081Y-103025495D01*
X182585159Y-103010373D01*
X182581748Y-102995043D01*
X182578851Y-102979510D01*
X182576472Y-102963781D01*
X182574614Y-102947861D01*
X182573960Y-102939946D01*
X182953213Y-102939946D01*
X182953478Y-102950497D01*
X182954276Y-102960718D01*
X182955608Y-102970613D01*
X182957480Y-102980182D01*
X182959892Y-102989428D01*
X182962850Y-102998352D01*
X182966355Y-103006956D01*
X182970411Y-103015242D01*
X182975021Y-103023212D01*
X182980188Y-103030868D01*
X182985916Y-103038210D01*
X182992206Y-103045242D01*
X182999063Y-103051965D01*
X183006490Y-103058381D01*
X183014489Y-103064491D01*
X183023063Y-103070298D01*
X183032217Y-103075803D01*
X183041952Y-103081007D01*
X183052272Y-103085914D01*
X183063181Y-103090525D01*
X183074680Y-103094840D01*
X183086774Y-103098863D01*
X183099465Y-103102595D01*
X183112757Y-103106038D01*
X183126652Y-103109194D01*
X183141154Y-103112064D01*
X183156266Y-103114651D01*
X183171990Y-103116955D01*
X183188331Y-103118980D01*
X183205290Y-103120726D01*
X183241079Y-103123391D01*
X183275649Y-103125099D01*
X183304646Y-103125948D01*
X183328715Y-103125871D01*
X183339103Y-103125465D01*
X183348501Y-103124802D01*
X183356989Y-103123874D01*
X183364649Y-103122674D01*
X183371560Y-103121193D01*
X183377803Y-103119422D01*
X183383460Y-103117353D01*
X183388610Y-103114979D01*
X183393334Y-103112291D01*
X183397713Y-103109280D01*
X183402425Y-103105505D01*
X183404542Y-103103723D01*
X183406500Y-103101973D01*
X183408296Y-103100229D01*
X183409930Y-103098462D01*
X183411400Y-103096644D01*
X183412706Y-103094750D01*
X183413847Y-103092749D01*
X183414822Y-103090616D01*
X183415246Y-103089491D01*
X183415629Y-103088322D01*
X183416267Y-103085839D01*
X183416736Y-103083141D01*
X183417035Y-103080199D01*
X183417162Y-103076985D01*
X183417116Y-103073473D01*
X183416897Y-103069634D01*
X183416503Y-103065440D01*
X183415933Y-103060865D01*
X183415187Y-103055881D01*
X183414263Y-103050459D01*
X183413160Y-103044572D01*
X183411877Y-103038193D01*
X183410413Y-103031294D01*
X183406939Y-103015824D01*
X183402729Y-102997942D01*
X183397775Y-102977427D01*
X183392069Y-102954057D01*
X183385493Y-102926634D01*
X183378619Y-102900832D01*
X183371679Y-102877213D01*
X183364905Y-102856338D01*
X183358527Y-102838771D01*
X183352778Y-102825073D01*
X183350212Y-102819851D01*
X183347889Y-102815807D01*
X183345839Y-102813012D01*
X183344091Y-102811535D01*
X183337358Y-102809799D01*
X183326998Y-102808294D01*
X183297304Y-102805979D01*
X183258813Y-102804590D01*
X183215327Y-102804127D01*
X183170651Y-102804590D01*
X183128588Y-102805979D01*
X183092941Y-102808294D01*
X183078712Y-102809799D01*
X183067514Y-102811535D01*
X183061102Y-102812965D01*
X183054835Y-102814605D01*
X183048717Y-102816452D01*
X183042750Y-102818500D01*
X183036940Y-102820745D01*
X183031290Y-102823184D01*
X183025803Y-102825811D01*
X183020484Y-102828623D01*
X183015337Y-102831614D01*
X183010365Y-102834781D01*
X183005572Y-102838119D01*
X183000963Y-102841623D01*
X182996540Y-102845290D01*
X182992309Y-102849115D01*
X182988272Y-102853093D01*
X182984434Y-102857220D01*
X182980799Y-102861492D01*
X182977370Y-102865904D01*
X182974152Y-102870452D01*
X182971147Y-102875132D01*
X182968361Y-102879938D01*
X182965797Y-102884868D01*
X182963458Y-102889916D01*
X182961349Y-102895077D01*
X182959474Y-102900349D01*
X182957836Y-102905725D01*
X182956440Y-102911202D01*
X182955289Y-102916776D01*
X182954386Y-102922442D01*
X182953737Y-102928195D01*
X182953345Y-102934031D01*
X182953213Y-102939946D01*
X182573960Y-102939946D01*
X182573283Y-102931758D01*
X182572481Y-102915477D01*
X182572213Y-102899024D01*
X182572395Y-102870780D01*
X182572753Y-102858989D01*
X182573404Y-102848489D01*
X182574436Y-102839079D01*
X182575934Y-102830563D01*
X182576886Y-102826578D01*
X182577987Y-102822741D01*
X182579248Y-102819029D01*
X182580680Y-102815416D01*
X182582294Y-102811877D01*
X182584101Y-102808388D01*
X182586112Y-102804923D01*
X182588336Y-102801459D01*
X182593473Y-102794431D01*
X182599598Y-102787105D01*
X182606797Y-102779284D01*
X182615158Y-102770767D01*
X182635713Y-102750857D01*
X182642354Y-102744595D01*
X182649017Y-102738527D01*
X182655660Y-102732682D01*
X182662238Y-102727089D01*
X182675029Y-102716776D01*
X182681155Y-102712113D01*
X182687043Y-102707819D01*
X182692650Y-102703921D01*
X182697932Y-102700449D01*
X182702847Y-102697432D01*
X182707350Y-102694898D01*
X182711398Y-102692877D01*
X182714948Y-102691398D01*
X182717956Y-102690489D01*
X182720380Y-102690180D01*
X182723915Y-102690118D01*
X182727113Y-102689935D01*
X182729978Y-102689634D01*
X182732510Y-102689218D01*
X182734712Y-102688689D01*
X182736587Y-102688050D01*
X182738137Y-102687304D01*
X182739364Y-102686453D01*
X182740271Y-102685502D01*
X182740605Y-102684989D01*
X182740860Y-102684452D01*
X182741035Y-102683891D01*
X182741133Y-102683307D01*
X182741092Y-102682068D01*
X182740741Y-102680740D01*
X182740080Y-102679325D01*
X182739114Y-102677826D01*
X182737843Y-102676245D01*
X182736270Y-102674586D01*
X182734398Y-102672850D01*
X182732229Y-102671043D01*
X182729765Y-102669165D01*
X182727008Y-102667219D01*
X182723962Y-102665210D01*
X182720627Y-102663139D01*
X182717007Y-102661009D01*
X182713104Y-102658824D01*
X182708920Y-102656585D01*
X182704457Y-102654297D01*
X182699718Y-102651961D01*
X182689421Y-102647159D01*
X182678047Y-102642202D01*
X182665593Y-102636836D01*
X182653376Y-102630808D01*
X182641408Y-102624143D01*
X182629703Y-102616865D01*
X182618273Y-102609000D01*
X182607133Y-102600570D01*
X182596296Y-102591602D01*
X182585773Y-102582119D01*
X182575580Y-102572147D01*
X182565728Y-102561709D01*
X182556231Y-102550830D01*
X182547103Y-102539535D01*
X182538356Y-102527849D01*
X182530003Y-102515795D01*
X182522058Y-102503398D01*
X182514534Y-102490684D01*
X182507445Y-102477676D01*
X182500802Y-102464399D01*
X182494620Y-102450877D01*
X182488911Y-102437136D01*
X182483690Y-102423199D01*
X182478968Y-102409092D01*
X182474759Y-102394838D01*
X182472715Y-102386857D01*
X182854742Y-102386857D01*
X182855341Y-102396306D01*
X182856584Y-102405816D01*
X182858460Y-102415354D01*
X182860962Y-102424891D01*
X182864080Y-102434394D01*
X182867804Y-102443833D01*
X182872127Y-102453177D01*
X182877038Y-102462395D01*
X182882529Y-102471456D01*
X182888591Y-102480329D01*
X182895215Y-102488983D01*
X182902391Y-102497387D01*
X182910111Y-102505509D01*
X182918366Y-102513319D01*
X182927146Y-102520787D01*
X182936443Y-102527880D01*
X182946247Y-102534568D01*
X182956549Y-102540820D01*
X182967341Y-102546604D01*
X182978614Y-102551891D01*
X182993603Y-102557804D01*
X183011284Y-102563348D01*
X183031206Y-102568482D01*
X183052917Y-102573168D01*
X183075968Y-102577365D01*
X183099908Y-102581036D01*
X183124286Y-102584141D01*
X183148652Y-102586639D01*
X183172555Y-102588493D01*
X183195544Y-102589663D01*
X183217169Y-102590109D01*
X183236979Y-102589792D01*
X183254523Y-102588674D01*
X183269352Y-102586714D01*
X183281014Y-102583873D01*
X183285516Y-102582111D01*
X183289058Y-102580113D01*
X183290455Y-102579123D01*
X183291735Y-102577997D01*
X183292898Y-102576722D01*
X183293942Y-102575287D01*
X183294865Y-102573679D01*
X183295668Y-102571887D01*
X183296349Y-102569898D01*
X183296907Y-102567700D01*
X183297341Y-102565280D01*
X183297650Y-102562627D01*
X183297832Y-102559729D01*
X183297888Y-102556573D01*
X183297816Y-102553148D01*
X183297614Y-102549440D01*
X183297282Y-102545439D01*
X183296819Y-102541131D01*
X183296223Y-102536505D01*
X183295494Y-102531548D01*
X183293633Y-102520595D01*
X183291225Y-102508175D01*
X183288264Y-102494190D01*
X183284740Y-102478542D01*
X183280646Y-102461136D01*
X183275973Y-102441873D01*
X183270713Y-102420657D01*
X183255324Y-102363022D01*
X183241786Y-102314118D01*
X183231423Y-102278973D01*
X183227846Y-102268131D01*
X183225558Y-102262613D01*
X183224985Y-102261964D01*
X183224065Y-102261340D01*
X183222808Y-102260741D01*
X183221223Y-102260168D01*
X183217103Y-102259100D01*
X183211778Y-102258137D01*
X183205320Y-102257282D01*
X183197801Y-102256536D01*
X183189295Y-102255902D01*
X183179873Y-102255381D01*
X183169608Y-102254976D01*
X183158571Y-102254689D01*
X183134475Y-102254477D01*
X183108163Y-102254761D01*
X183080214Y-102255557D01*
X183041028Y-102256839D01*
X183008556Y-102258666D01*
X182994537Y-102259831D01*
X182981838Y-102261188D01*
X182970338Y-102262756D01*
X182959916Y-102264553D01*
X182950454Y-102266599D01*
X182941831Y-102268911D01*
X182933927Y-102271508D01*
X182926623Y-102274409D01*
X182919798Y-102277633D01*
X182913333Y-102281197D01*
X182907108Y-102285121D01*
X182901002Y-102289424D01*
X182893179Y-102295736D01*
X182886108Y-102302480D01*
X182879779Y-102309624D01*
X182874183Y-102317139D01*
X182869312Y-102324993D01*
X182865157Y-102333155D01*
X182861707Y-102341593D01*
X182858956Y-102350278D01*
X182856892Y-102359178D01*
X182855508Y-102368262D01*
X182854794Y-102377498D01*
X182854742Y-102386857D01*
X182472715Y-102386857D01*
X182471077Y-102380463D01*
X182467934Y-102365990D01*
X182465344Y-102351445D01*
X182463320Y-102336852D01*
X182461875Y-102322235D01*
X182461022Y-102307619D01*
X182460774Y-102293029D01*
X182461145Y-102278489D01*
X182462148Y-102264024D01*
X182463716Y-102250872D01*
X182465783Y-102238134D01*
X182468358Y-102225803D01*
X182471452Y-102213872D01*
X182475075Y-102202332D01*
X182479237Y-102191176D01*
X182483950Y-102180397D01*
X182489223Y-102169987D01*
X182495066Y-102159938D01*
X182501490Y-102150245D01*
X182508505Y-102140897D01*
X182516122Y-102131889D01*
X182524350Y-102123213D01*
X182533201Y-102114861D01*
X182542684Y-102106826D01*
X182552811Y-102099100D01*
X182563590Y-102091676D01*
X182575033Y-102084547D01*
X182587150Y-102077704D01*
X182599951Y-102071140D01*
X182613446Y-102064848D01*
X182627646Y-102058821D01*
X182642562Y-102053050D01*
X182658203Y-102047529D01*
X182674580Y-102042249D01*
X182691703Y-102037204D01*
X182728229Y-102027787D01*
X182767865Y-102019217D01*
X182810691Y-102011435D01*
X182868654Y-102006279D01*
X182962716Y-102002461D01*
X183079500Y-102000000D01*
X183205626Y-101998912D01*
X183327717Y-101999212D01*
X183432396Y-102000918D01*
X183506284Y-102004046D01*
X183527500Y-102006149D01*
X183536002Y-102008613D01*
X183555546Y-102076159D01*
X183594718Y-102233332D01*
X183671109Y-102556573D01*
X183704101Y-102696177D01*
G37*
G36*
X186455768Y-102695648D02*
G01*
X186560124Y-103156177D01*
X186593012Y-103310184D01*
X186603758Y-103373157D01*
X186603032Y-103374836D01*
X186602166Y-103376434D01*
X186601145Y-103377953D01*
X186599954Y-103379394D01*
X186598577Y-103380760D01*
X186596998Y-103382053D01*
X186595203Y-103383274D01*
X186593174Y-103384424D01*
X186590898Y-103385507D01*
X186588358Y-103386523D01*
X186585539Y-103387474D01*
X186582426Y-103388363D01*
X186579002Y-103389190D01*
X186575253Y-103389959D01*
X186571163Y-103390670D01*
X186566716Y-103391325D01*
X186561897Y-103391927D01*
X186556691Y-103392477D01*
X186551081Y-103392977D01*
X186545053Y-103393428D01*
X186531679Y-103394194D01*
X186516445Y-103394787D01*
X186499226Y-103395224D01*
X186479899Y-103395518D01*
X186458340Y-103395683D01*
X186434424Y-103395735D01*
X186394841Y-103395468D01*
X186360649Y-103394655D01*
X186331683Y-103393280D01*
X186307777Y-103391326D01*
X186288766Y-103388776D01*
X186281044Y-103387273D01*
X186274484Y-103385615D01*
X186269065Y-103383800D01*
X186264766Y-103381825D01*
X186261567Y-103379690D01*
X186259447Y-103377391D01*
X186257649Y-103374797D01*
X186255453Y-103370264D01*
X186252889Y-103363903D01*
X186249988Y-103355827D01*
X186243299Y-103334975D01*
X186235634Y-103308599D01*
X186227242Y-103277593D01*
X186218370Y-103242850D01*
X186209267Y-103205263D01*
X186200180Y-103165724D01*
X186153614Y-102972402D01*
X185961703Y-102972402D01*
X185906861Y-102971833D01*
X185854957Y-102970100D01*
X185805851Y-102967165D01*
X185759406Y-102962987D01*
X185715483Y-102957528D01*
X185673943Y-102950747D01*
X185634648Y-102942607D01*
X185597459Y-102933067D01*
X185562238Y-102922089D01*
X185528847Y-102909632D01*
X185497146Y-102895659D01*
X185466998Y-102880128D01*
X185438263Y-102863003D01*
X185410804Y-102844242D01*
X185384482Y-102823806D01*
X185359158Y-102801657D01*
X185339578Y-102782200D01*
X185320587Y-102760493D01*
X185302278Y-102736768D01*
X185284744Y-102711258D01*
X185268078Y-102684193D01*
X185252374Y-102655806D01*
X185237724Y-102626327D01*
X185224221Y-102595988D01*
X185211958Y-102565021D01*
X185201028Y-102533657D01*
X185191525Y-102502127D01*
X185183541Y-102470664D01*
X185179664Y-102451702D01*
X185563769Y-102451702D01*
X185563858Y-102461870D01*
X185564147Y-102471267D01*
X185564671Y-102479982D01*
X185565467Y-102488104D01*
X185566568Y-102495722D01*
X185568011Y-102502924D01*
X185569830Y-102509799D01*
X185572060Y-102516437D01*
X185574736Y-102522925D01*
X185577894Y-102529354D01*
X185581569Y-102535812D01*
X185585796Y-102542388D01*
X185590610Y-102549170D01*
X185596046Y-102556248D01*
X185602139Y-102563711D01*
X185608925Y-102571646D01*
X185620761Y-102584523D01*
X185632577Y-102596208D01*
X185638533Y-102601625D01*
X185644550Y-102606770D01*
X185650651Y-102611649D01*
X185656858Y-102616273D01*
X185663193Y-102620648D01*
X185669679Y-102624783D01*
X185676337Y-102628687D01*
X185683190Y-102632368D01*
X185690260Y-102635834D01*
X185697569Y-102639093D01*
X185705140Y-102642154D01*
X185712994Y-102645024D01*
X185721154Y-102647713D01*
X185729643Y-102650228D01*
X185738481Y-102652577D01*
X185747693Y-102654770D01*
X185767322Y-102658716D01*
X185788709Y-102662134D01*
X185812030Y-102665088D01*
X185837464Y-102667646D01*
X185865188Y-102669873D01*
X185895380Y-102671835D01*
X185959550Y-102675363D01*
X185985374Y-102676399D01*
X186007365Y-102676774D01*
X186025775Y-102676355D01*
X186040860Y-102675010D01*
X186047234Y-102673949D01*
X186052872Y-102672607D01*
X186057806Y-102670967D01*
X186062068Y-102669013D01*
X186065688Y-102666728D01*
X186068700Y-102664096D01*
X186071134Y-102661100D01*
X186073023Y-102657724D01*
X186074398Y-102653951D01*
X186075292Y-102649765D01*
X186075735Y-102645148D01*
X186075760Y-102640085D01*
X186074682Y-102628554D01*
X186072312Y-102615038D01*
X186064713Y-102581524D01*
X186044605Y-102491389D01*
X186032963Y-102438847D01*
X186022380Y-102389613D01*
X185998391Y-102280957D01*
X185861513Y-102280957D01*
X185833134Y-102281274D01*
X185804606Y-102282170D01*
X185776706Y-102283562D01*
X185750212Y-102285367D01*
X185725901Y-102287503D01*
X185704549Y-102289887D01*
X185686935Y-102292436D01*
X185673836Y-102295069D01*
X185667064Y-102297140D01*
X185660507Y-102299386D01*
X185654166Y-102301806D01*
X185648039Y-102304403D01*
X185642127Y-102307177D01*
X185636430Y-102310128D01*
X185630948Y-102313257D01*
X185625681Y-102316566D01*
X185620629Y-102320054D01*
X185615793Y-102323723D01*
X185611171Y-102327573D01*
X185606764Y-102331606D01*
X185602572Y-102335821D01*
X185598595Y-102340220D01*
X185594833Y-102344804D01*
X185591286Y-102349573D01*
X185587954Y-102354528D01*
X185584836Y-102359669D01*
X185581934Y-102364998D01*
X185579247Y-102370516D01*
X185576775Y-102376223D01*
X185574518Y-102382120D01*
X185572476Y-102388207D01*
X185570648Y-102394486D01*
X185569036Y-102400957D01*
X185567639Y-102407621D01*
X185566456Y-102414479D01*
X185565489Y-102421531D01*
X185564737Y-102428779D01*
X185564199Y-102436223D01*
X185563877Y-102443863D01*
X185563769Y-102451702D01*
X185179664Y-102451702D01*
X185177169Y-102439498D01*
X185172503Y-102408861D01*
X185169635Y-102378986D01*
X185168658Y-102350102D01*
X185169145Y-102336777D01*
X185170568Y-102322814D01*
X185172872Y-102308334D01*
X185176000Y-102293459D01*
X185179898Y-102278311D01*
X185184508Y-102263013D01*
X185189776Y-102247685D01*
X185195646Y-102232450D01*
X185202061Y-102217431D01*
X185208966Y-102202748D01*
X185216305Y-102188524D01*
X185224022Y-102174882D01*
X185232062Y-102161941D01*
X185240368Y-102149826D01*
X185248885Y-102138657D01*
X185257558Y-102128557D01*
X185266671Y-102119321D01*
X185277016Y-102110161D01*
X185288502Y-102101120D01*
X185301038Y-102092243D01*
X185314533Y-102083573D01*
X185328896Y-102075153D01*
X185344037Y-102067026D01*
X185359863Y-102059237D01*
X185376286Y-102051827D01*
X185393212Y-102044842D01*
X185410552Y-102038323D01*
X185428214Y-102032315D01*
X185446108Y-102026861D01*
X185464142Y-102022005D01*
X185482226Y-102017789D01*
X185500269Y-102014257D01*
X185560437Y-102008516D01*
X185661202Y-102004049D01*
X185787730Y-102000937D01*
X185925190Y-101999264D01*
X186058746Y-101999113D01*
X186173567Y-102000565D01*
X186254819Y-102003704D01*
X186278221Y-102005932D01*
X186287669Y-102008613D01*
X186307212Y-102075754D01*
X186346384Y-102232737D01*
X186442638Y-102640085D01*
X186455768Y-102695648D01*
G37*
G36*
X188732231Y-101997784D02*
G01*
X188760505Y-101999086D01*
X188786306Y-102001050D01*
X188808766Y-102003685D01*
X188827018Y-102006995D01*
X188840194Y-102010988D01*
X188844606Y-102013242D01*
X188847424Y-102015668D01*
X188849368Y-102019113D01*
X188851994Y-102025629D01*
X188859110Y-102047198D01*
X188868409Y-102079020D01*
X188879527Y-102119738D01*
X188892101Y-102167997D01*
X188905765Y-102222440D01*
X188920158Y-102281713D01*
X188934914Y-102344457D01*
X189092958Y-103006268D01*
X189125325Y-103144227D01*
X189150813Y-103260092D01*
X189160151Y-103305978D01*
X189166777Y-103341826D01*
X189170360Y-103366132D01*
X189170907Y-103373486D01*
X189170569Y-103377391D01*
X189169652Y-103378809D01*
X189168191Y-103380154D01*
X189166140Y-103381427D01*
X189163450Y-103382630D01*
X189160076Y-103383763D01*
X189155969Y-103384829D01*
X189151082Y-103385828D01*
X189145368Y-103386761D01*
X189131269Y-103388437D01*
X189113295Y-103389868D01*
X189091067Y-103391062D01*
X189064207Y-103392031D01*
X189032336Y-103392785D01*
X188995076Y-103393335D01*
X188952049Y-103393690D01*
X188902877Y-103393861D01*
X188784583Y-103393693D01*
X188637169Y-103392913D01*
X188110825Y-103388680D01*
X188078369Y-103256035D01*
X188070294Y-103221766D01*
X188064037Y-103192756D01*
X188059567Y-103168574D01*
X188057991Y-103158159D01*
X188056850Y-103148791D01*
X188056138Y-103140414D01*
X188055852Y-103132976D01*
X188055988Y-103126423D01*
X188056541Y-103120701D01*
X188057508Y-103115756D01*
X188058884Y-103111534D01*
X188060665Y-103107982D01*
X188062847Y-103105046D01*
X188064219Y-103103624D01*
X188065968Y-103102266D01*
X188068114Y-103100970D01*
X188070680Y-103099735D01*
X188073686Y-103098559D01*
X188077153Y-103097441D01*
X188081103Y-103096377D01*
X188085557Y-103095367D01*
X188096061Y-103093500D01*
X188108835Y-103091825D01*
X188124048Y-103090329D01*
X188141869Y-103088995D01*
X188162469Y-103087810D01*
X188186016Y-103086760D01*
X188212680Y-103085829D01*
X188242631Y-103085004D01*
X188313071Y-103083612D01*
X188398691Y-103082469D01*
X188717603Y-103078235D01*
X188721836Y-103041546D01*
X188721746Y-103035373D01*
X188720460Y-103024442D01*
X188714538Y-102989379D01*
X188704547Y-102938508D01*
X188690968Y-102873977D01*
X188674280Y-102797937D01*
X188654962Y-102712537D01*
X188610358Y-102522257D01*
X188567032Y-102334028D01*
X188532570Y-102176359D01*
X188510544Y-102066050D01*
X188505310Y-102033906D01*
X188504525Y-102019902D01*
X188506317Y-102017331D01*
X188509771Y-102014909D01*
X188514777Y-102012638D01*
X188521226Y-102010517D01*
X188538023Y-102006734D01*
X188559293Y-102003564D01*
X188584168Y-102001014D01*
X188611780Y-101999091D01*
X188641260Y-101997800D01*
X188671741Y-101997148D01*
X188702354Y-101997140D01*
X188732231Y-101997784D01*
G37*
G36*
X189399398Y-101998264D02*
G01*
X189472569Y-102000389D01*
X189502247Y-102002273D01*
X189525665Y-102004730D01*
X189541579Y-102007777D01*
X189546334Y-102009529D01*
X189548747Y-102011435D01*
X189552264Y-102018524D01*
X189556381Y-102029848D01*
X189565901Y-102062698D01*
X189576280Y-102104974D01*
X189586494Y-102151664D01*
X189595518Y-102197760D01*
X189602325Y-102238249D01*
X189604577Y-102254826D01*
X189605891Y-102268122D01*
X189606139Y-102277512D01*
X189605822Y-102280546D01*
X189605191Y-102282368D01*
X189604750Y-102283170D01*
X189604220Y-102283987D01*
X189603605Y-102284818D01*
X189602909Y-102285662D01*
X189601285Y-102287382D01*
X189599371Y-102289137D01*
X189597192Y-102290917D01*
X189594773Y-102292712D01*
X189592140Y-102294511D01*
X189589316Y-102296303D01*
X189586327Y-102298079D01*
X189583198Y-102299828D01*
X189579952Y-102301540D01*
X189576616Y-102303204D01*
X189573214Y-102304811D01*
X189569770Y-102306349D01*
X189566310Y-102307809D01*
X189562858Y-102309180D01*
X189559173Y-102310847D01*
X189555538Y-102312663D01*
X189551969Y-102314612D01*
X189548482Y-102316676D01*
X189545095Y-102318840D01*
X189541824Y-102321086D01*
X189538684Y-102323398D01*
X189535694Y-102325760D01*
X189532869Y-102328155D01*
X189530226Y-102330567D01*
X189527781Y-102332978D01*
X189525552Y-102335373D01*
X189523553Y-102337735D01*
X189521803Y-102340048D01*
X189520318Y-102342294D01*
X189519113Y-102344457D01*
X189517956Y-102356461D01*
X189519574Y-102377384D01*
X189523668Y-102406026D01*
X189529939Y-102441185D01*
X189547813Y-102526251D01*
X189570795Y-102622975D01*
X189596490Y-102721750D01*
X189622499Y-102812968D01*
X189646425Y-102887021D01*
X189656857Y-102914609D01*
X189665869Y-102934302D01*
X189671076Y-102943633D01*
X189676385Y-102952582D01*
X189681808Y-102961154D01*
X189687355Y-102969354D01*
X189693040Y-102977188D01*
X189698872Y-102984662D01*
X189704863Y-102991781D01*
X189711025Y-102998552D01*
X189717368Y-103004979D01*
X189723905Y-103011069D01*
X189730647Y-103016827D01*
X189737604Y-103022259D01*
X189744789Y-103027371D01*
X189752213Y-103032168D01*
X189759887Y-103036656D01*
X189767822Y-103040841D01*
X189776030Y-103044728D01*
X189784522Y-103048323D01*
X189793310Y-103051632D01*
X189802405Y-103054660D01*
X189811818Y-103057413D01*
X189821561Y-103059897D01*
X189831645Y-103062117D01*
X189842082Y-103064080D01*
X189852882Y-103065790D01*
X189864057Y-103067254D01*
X189887579Y-103069465D01*
X189912738Y-103070759D01*
X189939625Y-103071180D01*
X189962787Y-103070863D01*
X189987338Y-103069967D01*
X190012550Y-103068575D01*
X190037697Y-103066770D01*
X190062050Y-103064634D01*
X190084881Y-103062250D01*
X190105463Y-103059701D01*
X190123069Y-103057069D01*
X190142695Y-103053428D01*
X190151405Y-103052049D01*
X190159427Y-103050961D01*
X190166796Y-103050163D01*
X190173547Y-103049652D01*
X190179714Y-103049426D01*
X190185334Y-103049484D01*
X190190442Y-103049822D01*
X190195072Y-103050440D01*
X190199259Y-103051335D01*
X190203039Y-103052504D01*
X190206448Y-103053947D01*
X190209519Y-103055660D01*
X190212288Y-103057642D01*
X190214791Y-103059891D01*
X190217517Y-103063208D01*
X190220389Y-103067811D01*
X190226496Y-103080520D01*
X190232964Y-103097318D01*
X190239640Y-103117504D01*
X190246374Y-103140377D01*
X190253015Y-103165236D01*
X190265415Y-103218112D01*
X190275632Y-103270524D01*
X190279544Y-103294805D01*
X190282459Y-103316867D01*
X190284223Y-103336011D01*
X190284688Y-103351536D01*
X190283702Y-103362741D01*
X190282617Y-103366504D01*
X190281114Y-103368924D01*
X190280144Y-103369738D01*
X190278828Y-103370592D01*
X190275199Y-103372411D01*
X190270305Y-103374366D01*
X190264224Y-103376443D01*
X190257036Y-103378627D01*
X190248818Y-103380905D01*
X190229608Y-103385681D01*
X190207223Y-103390656D01*
X190182292Y-103395713D01*
X190155442Y-103400737D01*
X190127302Y-103405613D01*
X190072206Y-103412509D01*
X190018583Y-103416797D01*
X189966453Y-103418480D01*
X189915834Y-103417563D01*
X189866745Y-103414050D01*
X189819203Y-103407945D01*
X189773229Y-103399251D01*
X189728840Y-103387974D01*
X189686055Y-103374117D01*
X189644893Y-103357685D01*
X189605371Y-103338681D01*
X189567510Y-103317110D01*
X189531327Y-103292976D01*
X189496842Y-103266282D01*
X189464071Y-103237034D01*
X189433036Y-103205235D01*
X189416099Y-103185955D01*
X189400136Y-103166019D01*
X189385029Y-103145137D01*
X189370660Y-103123016D01*
X189356911Y-103099366D01*
X189343664Y-103073894D01*
X189330802Y-103046311D01*
X189318207Y-103016323D01*
X189305760Y-102983639D01*
X189293344Y-102947969D01*
X189280841Y-102909021D01*
X189268134Y-102866502D01*
X189255104Y-102820123D01*
X189241635Y-102769590D01*
X189227606Y-102714614D01*
X189212903Y-102654902D01*
X189137805Y-102342297D01*
X189094722Y-102151135D01*
X189083284Y-102091918D01*
X189077568Y-102052049D01*
X189076813Y-102027856D01*
X189078058Y-102020491D01*
X189080258Y-102015668D01*
X189083056Y-102013858D01*
X189088170Y-102012133D01*
X189104729Y-102008946D01*
X189128692Y-102006128D01*
X189158817Y-102003696D01*
X189232584Y-102000066D01*
X189316090Y-101998206D01*
X189399398Y-101998264D01*
G37*
G36*
X184365964Y-101987573D02*
G01*
X184400073Y-101989776D01*
X184432786Y-101992694D01*
X184463655Y-101996323D01*
X184492231Y-102000659D01*
X184518067Y-102005698D01*
X184540714Y-102011435D01*
X184578935Y-102023432D01*
X184616296Y-102037160D01*
X184652732Y-102052568D01*
X184688175Y-102069599D01*
X184722559Y-102088202D01*
X184755820Y-102108322D01*
X184787889Y-102129906D01*
X184818702Y-102152899D01*
X184848192Y-102177248D01*
X184876293Y-102202900D01*
X184902939Y-102229800D01*
X184928063Y-102257895D01*
X184951600Y-102287130D01*
X184973483Y-102317453D01*
X184993647Y-102348810D01*
X185012024Y-102381146D01*
X185024542Y-102406650D01*
X185037617Y-102438134D01*
X185051048Y-102474731D01*
X185064632Y-102515577D01*
X185091449Y-102606546D01*
X185116447Y-102704114D01*
X185138005Y-102801351D01*
X185154503Y-102891329D01*
X185160348Y-102931430D01*
X185164320Y-102967118D01*
X185166217Y-102997527D01*
X185165836Y-103021791D01*
X185163000Y-103047498D01*
X185158743Y-103072488D01*
X185153092Y-103096744D01*
X185146072Y-103120252D01*
X185137710Y-103142995D01*
X185128030Y-103164960D01*
X185117061Y-103186131D01*
X185104827Y-103206492D01*
X185091356Y-103226028D01*
X185076672Y-103244725D01*
X185060802Y-103262566D01*
X185043772Y-103279536D01*
X185025608Y-103295621D01*
X185006337Y-103310805D01*
X184985984Y-103325073D01*
X184964576Y-103338409D01*
X184942138Y-103350798D01*
X184918697Y-103362226D01*
X184894279Y-103372676D01*
X184868910Y-103382134D01*
X184842615Y-103390584D01*
X184815422Y-103398011D01*
X184787356Y-103404400D01*
X184758443Y-103409736D01*
X184728710Y-103414003D01*
X184698182Y-103417186D01*
X184666886Y-103419270D01*
X184634847Y-103420239D01*
X184602092Y-103420079D01*
X184568647Y-103418774D01*
X184534538Y-103416309D01*
X184499791Y-103412669D01*
X184472225Y-103408529D01*
X184443038Y-103403629D01*
X184413124Y-103398133D01*
X184383375Y-103392207D01*
X184354684Y-103386017D01*
X184327944Y-103379728D01*
X184304049Y-103373505D01*
X184283891Y-103367513D01*
X184253199Y-103356052D01*
X184223100Y-103342896D01*
X184193692Y-103328135D01*
X184165071Y-103311862D01*
X184137335Y-103294167D01*
X184110581Y-103275140D01*
X184084905Y-103254873D01*
X184060406Y-103233457D01*
X184037180Y-103210983D01*
X184015325Y-103187541D01*
X183994937Y-103163223D01*
X183976114Y-103138119D01*
X183958953Y-103112321D01*
X183943551Y-103085919D01*
X183930005Y-103059005D01*
X183918413Y-103031668D01*
X183911007Y-103011422D01*
X183908104Y-103003025D01*
X183905735Y-102995641D01*
X183903904Y-102989166D01*
X183902613Y-102983498D01*
X183901863Y-102978532D01*
X183901657Y-102974166D01*
X183901758Y-102972175D01*
X183901996Y-102970296D01*
X183902371Y-102968514D01*
X183902883Y-102966818D01*
X183903533Y-102965194D01*
X183904320Y-102963630D01*
X183905245Y-102962112D01*
X183906309Y-102960628D01*
X183908852Y-102957708D01*
X183911950Y-102954768D01*
X183915607Y-102951704D01*
X183919825Y-102948413D01*
X183923679Y-102946114D01*
X183928371Y-102943978D01*
X183933911Y-102942004D01*
X183940308Y-102940189D01*
X183947573Y-102938531D01*
X183955717Y-102937028D01*
X183964750Y-102935678D01*
X183974681Y-102934478D01*
X183985523Y-102933428D01*
X183997284Y-102932524D01*
X184009975Y-102931765D01*
X184023607Y-102931149D01*
X184038190Y-102930673D01*
X184053734Y-102930336D01*
X184087746Y-102930069D01*
X184227447Y-102930069D01*
X184299413Y-103006268D01*
X184310146Y-103017391D01*
X184320189Y-103027518D01*
X184329644Y-103036710D01*
X184338616Y-103045030D01*
X184347207Y-103052540D01*
X184355522Y-103059301D01*
X184363662Y-103065376D01*
X184371733Y-103070827D01*
X184379836Y-103075715D01*
X184388076Y-103080104D01*
X184396556Y-103084054D01*
X184405379Y-103087628D01*
X184414648Y-103090888D01*
X184424468Y-103093895D01*
X184434940Y-103096713D01*
X184446169Y-103099402D01*
X184466079Y-103103438D01*
X184486058Y-103106559D01*
X184506007Y-103108775D01*
X184525831Y-103110095D01*
X184545431Y-103110531D01*
X184564711Y-103110093D01*
X184583573Y-103108790D01*
X184601920Y-103106634D01*
X184619656Y-103103634D01*
X184636683Y-103099801D01*
X184652903Y-103095146D01*
X184668220Y-103089678D01*
X184682537Y-103083409D01*
X184695756Y-103076347D01*
X184707781Y-103068504D01*
X184718513Y-103059891D01*
X184725570Y-103053306D01*
X184732190Y-103046500D01*
X184738372Y-103039453D01*
X184744117Y-103032143D01*
X184749427Y-103024547D01*
X184754300Y-103016644D01*
X184758739Y-103008412D01*
X184762743Y-102999830D01*
X184766313Y-102990876D01*
X184769449Y-102981529D01*
X184772152Y-102971765D01*
X184774423Y-102961565D01*
X184776262Y-102950906D01*
X184777669Y-102939766D01*
X184778645Y-102928124D01*
X184779191Y-102915957D01*
X184779307Y-102903246D01*
X184778993Y-102889966D01*
X184778251Y-102876098D01*
X184777080Y-102861619D01*
X184775481Y-102846507D01*
X184773455Y-102830741D01*
X184768123Y-102797160D01*
X184761087Y-102760701D01*
X184752352Y-102721191D01*
X184741923Y-102678457D01*
X184729802Y-102632324D01*
X184717931Y-102592571D01*
X184704548Y-102555339D01*
X184689665Y-102520632D01*
X184673292Y-102488457D01*
X184655438Y-102458820D01*
X184645960Y-102444956D01*
X184636115Y-102431729D01*
X184625906Y-102419139D01*
X184615333Y-102407187D01*
X184604397Y-102395875D01*
X184593101Y-102385203D01*
X184581445Y-102375172D01*
X184569431Y-102365782D01*
X184557059Y-102357035D01*
X184544332Y-102348931D01*
X184531251Y-102341470D01*
X184517816Y-102334654D01*
X184504029Y-102328484D01*
X184489891Y-102322960D01*
X184475405Y-102318083D01*
X184460570Y-102313854D01*
X184445388Y-102310273D01*
X184429861Y-102307341D01*
X184413990Y-102305060D01*
X184397776Y-102303429D01*
X184381221Y-102302451D01*
X184364325Y-102302124D01*
X184344024Y-102302708D01*
X184324888Y-102303951D01*
X184306855Y-102305885D01*
X184289866Y-102308540D01*
X184273861Y-102311948D01*
X184258780Y-102316139D01*
X184244564Y-102321144D01*
X184231151Y-102326995D01*
X184218482Y-102333722D01*
X184206498Y-102341357D01*
X184195138Y-102349930D01*
X184184342Y-102359472D01*
X184174050Y-102370016D01*
X184164203Y-102381590D01*
X184154741Y-102394227D01*
X184145603Y-102407957D01*
X184110324Y-102464402D01*
X183950869Y-102464402D01*
X183913367Y-102464137D01*
X183880248Y-102463344D01*
X183851526Y-102462021D01*
X183827221Y-102460169D01*
X183807347Y-102457787D01*
X183799077Y-102456398D01*
X183791921Y-102454877D01*
X183785881Y-102453223D01*
X183780960Y-102451437D01*
X183777159Y-102449519D01*
X183774480Y-102447469D01*
X183773563Y-102446440D01*
X183772662Y-102445211D01*
X183771780Y-102443787D01*
X183770917Y-102442174D01*
X183769250Y-102438405D01*
X183767667Y-102433953D01*
X183766176Y-102428863D01*
X183764781Y-102423185D01*
X183763491Y-102416965D01*
X183762309Y-102410250D01*
X183761244Y-102403090D01*
X183760300Y-102395530D01*
X183759485Y-102387619D01*
X183758803Y-102379404D01*
X183758263Y-102370933D01*
X183757869Y-102362253D01*
X183757628Y-102353412D01*
X183757547Y-102344457D01*
X183758672Y-102312129D01*
X183760078Y-102296522D01*
X183762047Y-102281288D01*
X183764580Y-102266426D01*
X183767676Y-102251936D01*
X183771336Y-102237818D01*
X183775560Y-102224072D01*
X183780349Y-102210698D01*
X183785702Y-102197696D01*
X183791620Y-102185067D01*
X183798102Y-102172809D01*
X183805151Y-102160923D01*
X183812764Y-102149410D01*
X183820944Y-102138268D01*
X183829690Y-102127499D01*
X183839002Y-102117102D01*
X183848881Y-102107077D01*
X183859326Y-102097423D01*
X183870339Y-102088142D01*
X183881919Y-102079233D01*
X183894067Y-102070696D01*
X183906783Y-102062531D01*
X183920067Y-102054739D01*
X183933920Y-102047318D01*
X183948341Y-102040269D01*
X183978890Y-102027288D01*
X184011717Y-102015795D01*
X184046825Y-102005791D01*
X184070215Y-102000614D01*
X184096696Y-101996194D01*
X184125818Y-101992526D01*
X184157134Y-101989607D01*
X184190194Y-101987432D01*
X184224550Y-101985997D01*
X184295357Y-101985330D01*
X184365964Y-101987573D01*
G37*
G36*
X187143321Y-101990144D02*
G01*
X187178433Y-101991503D01*
X187209974Y-101993590D01*
X187237876Y-101996420D01*
X187262074Y-102000011D01*
X187282502Y-102004380D01*
X187319892Y-102014969D01*
X187357321Y-102028112D01*
X187394598Y-102043648D01*
X187431529Y-102061419D01*
X187467922Y-102081265D01*
X187503586Y-102103028D01*
X187538328Y-102126547D01*
X187571956Y-102151664D01*
X187604278Y-102178220D01*
X187635101Y-102206055D01*
X187664233Y-102235011D01*
X187691482Y-102264928D01*
X187716656Y-102295647D01*
X187739562Y-102327009D01*
X187760008Y-102358854D01*
X187777802Y-102391024D01*
X187788024Y-102413258D01*
X187798983Y-102440835D01*
X187822363Y-102509050D01*
X187846437Y-102589734D01*
X187869701Y-102676950D01*
X187890650Y-102764762D01*
X187907779Y-102847232D01*
X187919583Y-102918424D01*
X187923018Y-102947936D01*
X187924558Y-102972402D01*
X187924940Y-102992094D01*
X187924505Y-103011472D01*
X187923265Y-103030519D01*
X187921228Y-103049219D01*
X187918407Y-103067555D01*
X187914810Y-103085511D01*
X187910448Y-103103070D01*
X187905331Y-103120216D01*
X187899471Y-103136931D01*
X187892877Y-103153200D01*
X187885559Y-103169007D01*
X187877528Y-103184333D01*
X187868794Y-103199164D01*
X187859368Y-103213481D01*
X187849260Y-103227270D01*
X187838480Y-103240513D01*
X187818039Y-103263422D01*
X187796863Y-103284552D01*
X187774844Y-103303942D01*
X187763484Y-103312996D01*
X187751873Y-103321630D01*
X187739998Y-103329848D01*
X187727844Y-103337656D01*
X187715399Y-103345058D01*
X187702650Y-103352060D01*
X187689582Y-103358665D01*
X187676182Y-103364880D01*
X187662437Y-103370708D01*
X187648333Y-103376156D01*
X187618996Y-103385927D01*
X187588063Y-103394233D01*
X187555427Y-103401113D01*
X187520980Y-103406605D01*
X187484615Y-103410750D01*
X187446225Y-103413586D01*
X187405701Y-103415153D01*
X187362936Y-103415491D01*
X187317129Y-103414328D01*
X187273303Y-103411875D01*
X187231353Y-103408099D01*
X187191177Y-103402967D01*
X187152671Y-103396446D01*
X187115732Y-103388503D01*
X187080257Y-103379105D01*
X187046141Y-103368218D01*
X187013283Y-103355811D01*
X186981578Y-103341848D01*
X186950922Y-103326299D01*
X186921214Y-103309128D01*
X186892349Y-103290304D01*
X186864224Y-103269794D01*
X186836735Y-103247563D01*
X186809780Y-103223580D01*
X186796055Y-103209768D01*
X186782467Y-103194908D01*
X186769119Y-103179176D01*
X186756114Y-103162748D01*
X186743555Y-103145798D01*
X186731546Y-103128503D01*
X186720190Y-103111039D01*
X186709591Y-103093581D01*
X186699852Y-103076305D01*
X186691076Y-103059386D01*
X186683366Y-103043001D01*
X186676827Y-103027325D01*
X186671561Y-103012533D01*
X186667671Y-102998802D01*
X186665262Y-102986307D01*
X186664436Y-102975224D01*
X186664513Y-102971618D01*
X186664760Y-102968206D01*
X186665195Y-102964981D01*
X186665839Y-102961940D01*
X186666711Y-102959076D01*
X186667831Y-102956385D01*
X186669219Y-102953861D01*
X186670896Y-102951500D01*
X186672881Y-102949295D01*
X186675193Y-102947243D01*
X186677853Y-102945337D01*
X186680881Y-102943573D01*
X186684297Y-102941946D01*
X186688120Y-102940449D01*
X186692370Y-102939079D01*
X186697068Y-102937830D01*
X186702232Y-102936696D01*
X186707884Y-102935673D01*
X186714043Y-102934755D01*
X186720729Y-102933938D01*
X186727961Y-102933216D01*
X186735760Y-102932584D01*
X186744145Y-102932036D01*
X186753137Y-102931568D01*
X186762756Y-102931174D01*
X186773020Y-102930850D01*
X186795567Y-102930388D01*
X186820938Y-102930142D01*
X186849292Y-102930069D01*
X186895952Y-102930157D01*
X186931533Y-102930774D01*
X186945840Y-102931447D01*
X186958184Y-102932450D01*
X186968833Y-102933850D01*
X186978055Y-102935713D01*
X186986120Y-102938105D01*
X186993296Y-102941093D01*
X186999852Y-102944742D01*
X187006057Y-102949119D01*
X187012179Y-102954289D01*
X187018487Y-102960319D01*
X187032736Y-102975224D01*
X187040976Y-102984647D01*
X187048655Y-102993723D01*
X187055606Y-103002236D01*
X187061664Y-103009973D01*
X187066663Y-103016717D01*
X187070439Y-103022254D01*
X187071816Y-103024502D01*
X187072826Y-103026369D01*
X187073447Y-103027826D01*
X187073658Y-103028846D01*
X187073736Y-103029412D01*
X187073967Y-103030050D01*
X187074348Y-103030758D01*
X187074874Y-103031533D01*
X187075541Y-103032374D01*
X187076346Y-103033277D01*
X187078354Y-103035262D01*
X187080867Y-103037471D01*
X187083853Y-103039884D01*
X187087281Y-103042484D01*
X187091121Y-103045250D01*
X187095340Y-103048166D01*
X187099910Y-103051212D01*
X187104797Y-103054369D01*
X187109972Y-103057620D01*
X187115403Y-103060945D01*
X187121060Y-103064325D01*
X187126910Y-103067743D01*
X187132924Y-103071180D01*
X187142003Y-103076211D01*
X187150787Y-103080740D01*
X187159376Y-103084794D01*
X187167872Y-103088400D01*
X187176376Y-103091583D01*
X187184990Y-103094372D01*
X187193814Y-103096793D01*
X187202951Y-103098873D01*
X187212501Y-103100638D01*
X187222566Y-103102117D01*
X187233247Y-103103334D01*
X187244645Y-103104319D01*
X187256862Y-103105096D01*
X187269998Y-103105694D01*
X187299436Y-103106457D01*
X187320608Y-103106144D01*
X187340739Y-103105193D01*
X187359837Y-103103586D01*
X187377912Y-103101304D01*
X187394972Y-103098329D01*
X187411026Y-103094644D01*
X187426082Y-103090231D01*
X187440150Y-103085070D01*
X187453238Y-103079145D01*
X187465355Y-103072437D01*
X187476510Y-103064928D01*
X187486711Y-103056600D01*
X187495968Y-103047435D01*
X187504289Y-103037414D01*
X187511682Y-103026520D01*
X187518158Y-103014735D01*
X187523724Y-103002040D01*
X187528389Y-102988418D01*
X187532163Y-102973850D01*
X187535053Y-102958318D01*
X187537069Y-102941805D01*
X187538219Y-102924291D01*
X187538512Y-102905759D01*
X187537958Y-102886192D01*
X187536564Y-102865570D01*
X187534340Y-102843876D01*
X187531294Y-102821091D01*
X187527435Y-102797198D01*
X187517314Y-102746014D01*
X187504047Y-102690180D01*
X187488255Y-102628364D01*
X187475075Y-102579826D01*
X187469124Y-102559726D01*
X187463417Y-102541972D01*
X187457817Y-102526239D01*
X187452188Y-102512203D01*
X187446395Y-102499540D01*
X187440299Y-102487925D01*
X187433765Y-102477033D01*
X187426656Y-102466541D01*
X187418837Y-102456122D01*
X187410169Y-102445454D01*
X187389747Y-102422068D01*
X187374783Y-102406319D01*
X187359998Y-102391854D01*
X187345303Y-102378632D01*
X187330612Y-102366616D01*
X187315839Y-102355766D01*
X187300896Y-102346042D01*
X187285697Y-102337406D01*
X187270155Y-102329817D01*
X187254183Y-102323237D01*
X187237694Y-102317627D01*
X187220601Y-102312947D01*
X187202819Y-102309158D01*
X187184259Y-102306220D01*
X187164835Y-102304095D01*
X187144460Y-102302742D01*
X187123047Y-102302124D01*
X187101973Y-102302474D01*
X187082119Y-102303535D01*
X187063447Y-102305324D01*
X187045921Y-102307857D01*
X187029502Y-102311150D01*
X187014154Y-102315221D01*
X186999840Y-102320085D01*
X186986522Y-102325760D01*
X186974163Y-102332262D01*
X186962726Y-102339607D01*
X186952174Y-102347812D01*
X186942469Y-102356893D01*
X186933574Y-102366867D01*
X186925453Y-102377751D01*
X186918067Y-102389561D01*
X186911380Y-102402313D01*
X186909168Y-102406822D01*
X186906780Y-102411331D01*
X186904240Y-102415807D01*
X186901569Y-102420216D01*
X186898790Y-102424527D01*
X186895927Y-102428705D01*
X186893002Y-102432718D01*
X186890037Y-102436532D01*
X186887056Y-102440115D01*
X186884081Y-102443434D01*
X186881135Y-102446454D01*
X186878241Y-102449144D01*
X186875421Y-102451470D01*
X186872699Y-102453400D01*
X186870096Y-102454899D01*
X186867636Y-102455935D01*
X186864773Y-102456728D01*
X186860475Y-102457514D01*
X186847924Y-102459044D01*
X186830677Y-102460474D01*
X186809427Y-102461756D01*
X186784871Y-102462839D01*
X186757701Y-102463674D01*
X186728614Y-102464212D01*
X186698302Y-102464402D01*
X186651438Y-102464275D01*
X186615488Y-102463652D01*
X186601047Y-102463041D01*
X186588666Y-102462169D01*
X186578120Y-102460992D01*
X186569186Y-102459463D01*
X186561641Y-102457537D01*
X186555262Y-102455169D01*
X186549826Y-102452313D01*
X186545109Y-102448924D01*
X186540888Y-102444956D01*
X186536939Y-102440363D01*
X186528969Y-102429124D01*
X186524630Y-102421797D01*
X186520868Y-102413865D01*
X186517670Y-102405368D01*
X186515026Y-102396346D01*
X186512924Y-102386840D01*
X186511355Y-102376889D01*
X186510305Y-102366533D01*
X186509765Y-102355812D01*
X186510167Y-102333438D01*
X186512474Y-102310086D01*
X186516595Y-102286077D01*
X186522443Y-102261731D01*
X186529927Y-102237368D01*
X186538960Y-102213309D01*
X186549452Y-102189875D01*
X186561314Y-102167385D01*
X186574458Y-102146160D01*
X186588795Y-102126521D01*
X186596383Y-102117396D01*
X186604236Y-102108787D01*
X186612342Y-102100735D01*
X186620691Y-102093280D01*
X186637035Y-102080309D01*
X186653877Y-102068365D01*
X186671352Y-102057412D01*
X186689593Y-102047418D01*
X186708736Y-102038351D01*
X186728914Y-102030176D01*
X186750262Y-102022862D01*
X186772915Y-102016374D01*
X186797006Y-102010680D01*
X186822670Y-102005747D01*
X186850042Y-102001541D01*
X186879255Y-101998030D01*
X186910445Y-101995180D01*
X186943745Y-101992958D01*
X186979289Y-101991332D01*
X187017213Y-101990268D01*
X187062645Y-101989544D01*
X187104702Y-101989497D01*
X187143321Y-101990144D01*
G37*
G36*
X191762317Y-101493072D02*
G01*
X191827226Y-101495834D01*
X191854860Y-101497965D01*
X191878491Y-101500613D01*
X191919772Y-101507531D01*
X191969023Y-101517326D01*
X192023896Y-101529436D01*
X192082044Y-101543299D01*
X192141118Y-101558353D01*
X192198769Y-101574035D01*
X192252651Y-101589783D01*
X192300414Y-101605035D01*
X192354187Y-101623672D01*
X192413369Y-101645649D01*
X192473972Y-101669279D01*
X192532012Y-101692877D01*
X192583504Y-101714754D01*
X192624462Y-101733226D01*
X192650901Y-101746604D01*
X192657431Y-101750856D01*
X192658805Y-101752280D01*
X192658836Y-101753202D01*
X192658399Y-101753417D01*
X192657624Y-101753536D01*
X192655093Y-101753491D01*
X192651314Y-101753087D01*
X192646356Y-101752342D01*
X192633188Y-101749903D01*
X192616150Y-101746323D01*
X192595804Y-101741750D01*
X192572714Y-101736335D01*
X192547441Y-101730224D01*
X192520547Y-101723569D01*
X192441347Y-101704519D01*
X192364586Y-101688120D01*
X192290223Y-101674375D01*
X192218216Y-101663288D01*
X192148525Y-101654863D01*
X192081107Y-101649105D01*
X192015922Y-101646017D01*
X191952927Y-101645605D01*
X191892083Y-101647871D01*
X191833347Y-101652820D01*
X191776678Y-101660456D01*
X191722034Y-101670784D01*
X191669375Y-101683807D01*
X191618659Y-101699530D01*
X191569845Y-101717956D01*
X191522891Y-101739091D01*
X191508474Y-101746196D01*
X191494796Y-101753268D01*
X191481771Y-101760373D01*
X191469313Y-101767578D01*
X191457335Y-101774947D01*
X191445749Y-101782549D01*
X191434469Y-101790447D01*
X191423408Y-101798710D01*
X191412479Y-101807403D01*
X191401596Y-101816592D01*
X191390672Y-101826343D01*
X191379619Y-101836722D01*
X191368352Y-101847796D01*
X191356783Y-101859630D01*
X191344825Y-101872292D01*
X191332391Y-101885846D01*
X191243491Y-101984624D01*
X190935869Y-101984624D01*
X190817181Y-101983632D01*
X190719793Y-101980920D01*
X190682269Y-101979043D01*
X190653889Y-101976885D01*
X190635928Y-101974495D01*
X190631252Y-101973229D01*
X190629658Y-101971924D01*
X190629781Y-101971136D01*
X190630146Y-101970098D01*
X190631576Y-101967305D01*
X190633899Y-101963602D01*
X190637066Y-101959048D01*
X190641027Y-101953699D01*
X190645731Y-101947615D01*
X190657175Y-101933471D01*
X190670999Y-101917078D01*
X190686808Y-101898899D01*
X190704204Y-101879397D01*
X190722791Y-101859035D01*
X190753641Y-101827108D01*
X190785834Y-101796431D01*
X190819325Y-101767031D01*
X190854069Y-101738936D01*
X190890020Y-101712172D01*
X190927132Y-101686767D01*
X190965361Y-101662746D01*
X191004661Y-101640137D01*
X191044986Y-101618966D01*
X191086290Y-101599261D01*
X191128529Y-101581049D01*
X191171657Y-101564355D01*
X191215628Y-101549208D01*
X191260397Y-101535634D01*
X191305919Y-101523660D01*
X191352147Y-101513313D01*
X191373545Y-101509512D01*
X191399245Y-101506053D01*
X191461177Y-101500216D01*
X191533196Y-101495900D01*
X191610557Y-101493205D01*
X191688512Y-101492229D01*
X191762317Y-101493072D01*
G37*
G36*
X182480338Y-62509154D02*
G01*
X182482356Y-63061758D01*
X182484208Y-64960055D01*
X182484208Y-67618589D01*
X180002063Y-67618589D01*
X180085319Y-67440083D01*
X180535463Y-66475589D01*
X181390597Y-64641145D01*
X182477858Y-62312811D01*
X182480338Y-62509154D01*
G37*
G36*
X171050239Y-59999559D02*
G01*
X171414041Y-60002117D01*
X171404130Y-60024441D01*
X171377087Y-60083344D01*
X171336948Y-60169895D01*
X171287747Y-60275166D01*
X170868646Y-61173339D01*
X170039618Y-62951339D01*
X169357346Y-64415367D01*
X168948124Y-65289550D01*
X168947351Y-65289822D01*
X168946618Y-65287542D01*
X168945267Y-65274214D01*
X168942998Y-65204696D01*
X168941241Y-65063195D01*
X168939922Y-64831909D01*
X168938302Y-64028778D01*
X168937542Y-62652889D01*
X168937542Y-59998589D01*
X170175791Y-59998589D01*
X171050239Y-59999559D01*
G37*
G36*
X182459514Y-60000000D02*
G01*
X182261958Y-60033867D01*
X182114574Y-60059961D01*
X182050932Y-60072277D01*
X181992524Y-60084402D01*
X181938250Y-60096561D01*
X181887010Y-60108975D01*
X181837705Y-60121870D01*
X181789236Y-60135467D01*
X181695407Y-60164407D01*
X181602137Y-60196929D01*
X181509569Y-60232942D01*
X181417849Y-60272356D01*
X181327121Y-60315081D01*
X181237530Y-60361028D01*
X181149220Y-60410107D01*
X181062337Y-60462227D01*
X180977025Y-60517299D01*
X180893428Y-60575233D01*
X180811692Y-60635939D01*
X180731961Y-60699327D01*
X180654379Y-60765307D01*
X180579092Y-60833789D01*
X180506244Y-60904683D01*
X180435980Y-60977900D01*
X180384352Y-61034582D01*
X180337809Y-61088055D01*
X180295350Y-61139676D01*
X180275340Y-61165216D01*
X180255975Y-61190801D01*
X180237132Y-61216602D01*
X180218684Y-61242787D01*
X180182476Y-61296988D01*
X180146351Y-61354760D01*
X180109308Y-61417461D01*
X180082191Y-61466518D01*
X180046227Y-61534087D01*
X179956555Y-61707533D01*
X179857888Y-61903335D01*
X179767819Y-62087034D01*
X179337518Y-62994819D01*
X178657980Y-64447117D01*
X178183538Y-65461408D01*
X177891923Y-66072805D01*
X177795493Y-66266878D01*
X177721752Y-66407580D01*
X177663025Y-66510695D01*
X177611641Y-66592006D01*
X177575851Y-66643360D01*
X177537120Y-66694664D01*
X177495614Y-66745770D01*
X177451502Y-66796529D01*
X177404951Y-66846791D01*
X177356128Y-66896409D01*
X177305201Y-66945233D01*
X177252337Y-66993114D01*
X177197704Y-67039904D01*
X177141468Y-67085454D01*
X177083799Y-67129614D01*
X177024862Y-67172237D01*
X176964825Y-67213173D01*
X176903856Y-67252274D01*
X176842122Y-67289390D01*
X176779791Y-67324373D01*
X176698149Y-67366494D01*
X176613357Y-67406283D01*
X176526697Y-67443261D01*
X176439449Y-67476949D01*
X176352895Y-67506866D01*
X176268318Y-67532533D01*
X176227171Y-67543623D01*
X176186999Y-67553471D01*
X176147961Y-67562017D01*
X176110219Y-67569200D01*
X176066046Y-67576312D01*
X176016356Y-67582601D01*
X175956413Y-67588124D01*
X175881475Y-67592935D01*
X175786806Y-67597089D01*
X175667666Y-67600640D01*
X175519316Y-67603643D01*
X175337018Y-67606154D01*
X174851622Y-67609914D01*
X174173568Y-67612360D01*
X172087847Y-67615061D01*
X168962235Y-67617883D01*
X169159791Y-67584017D01*
X169308586Y-67557195D01*
X169370024Y-67545185D01*
X169425698Y-67533481D01*
X169477767Y-67521612D01*
X169528389Y-67509107D01*
X169579722Y-67495493D01*
X169633925Y-67480300D01*
X169696017Y-67461678D01*
X169758159Y-67441287D01*
X169820287Y-67419161D01*
X169882335Y-67395336D01*
X169944239Y-67369844D01*
X170005933Y-67342721D01*
X170067352Y-67314000D01*
X170128431Y-67283715D01*
X170189104Y-67251900D01*
X170249308Y-67218590D01*
X170308976Y-67183819D01*
X170368044Y-67147620D01*
X170426446Y-67110028D01*
X170484117Y-67071077D01*
X170540992Y-67030801D01*
X170597007Y-66989234D01*
X170638731Y-66956904D01*
X170680465Y-66923243D01*
X170722074Y-66888395D01*
X170763419Y-66852499D01*
X170804364Y-66815698D01*
X170844769Y-66778133D01*
X170884499Y-66739946D01*
X170923415Y-66701279D01*
X170961381Y-66662272D01*
X170998258Y-66623068D01*
X171033909Y-66583808D01*
X171068198Y-66544634D01*
X171100985Y-66505688D01*
X171132134Y-66467110D01*
X171161508Y-66429043D01*
X171188969Y-66391628D01*
X171221121Y-66344830D01*
X171255556Y-66290887D01*
X171293297Y-66227714D01*
X171335372Y-66153227D01*
X171382804Y-66065342D01*
X171436619Y-65961974D01*
X171567499Y-65700448D01*
X171736215Y-65351974D01*
X171950969Y-64899874D01*
X172219962Y-64327471D01*
X172551397Y-63618089D01*
X173148076Y-62342070D01*
X173502133Y-61596143D01*
X173694794Y-61212431D01*
X173755984Y-61103944D01*
X173807285Y-61023056D01*
X173832478Y-60986841D01*
X173859570Y-60950233D01*
X173888457Y-60913334D01*
X173919039Y-60876245D01*
X173951212Y-60839070D01*
X173984875Y-60801910D01*
X174019924Y-60764867D01*
X174056259Y-60728045D01*
X174093775Y-60691546D01*
X174132372Y-60655471D01*
X174171946Y-60619923D01*
X174212396Y-60585005D01*
X174253619Y-60550818D01*
X174295512Y-60517466D01*
X174337974Y-60485050D01*
X174380902Y-60453672D01*
X174439939Y-60412921D01*
X174500971Y-60373561D01*
X174563709Y-60335710D01*
X174627868Y-60299486D01*
X174693160Y-60265007D01*
X174759297Y-60232390D01*
X174825993Y-60201753D01*
X174892959Y-60173214D01*
X174959909Y-60146891D01*
X175026554Y-60122902D01*
X175092609Y-60101364D01*
X175157785Y-60082396D01*
X175221795Y-60066114D01*
X175284352Y-60052638D01*
X175345169Y-60042085D01*
X175403958Y-60034572D01*
X175540527Y-60025156D01*
X175766128Y-60017451D01*
X176097497Y-60011318D01*
X176551367Y-60006614D01*
X177893555Y-60000937D01*
X179926569Y-59999294D01*
X182459514Y-60000000D01*
G37*
D11*
G36*
X172758579Y-75463139D02*
G01*
X172837470Y-75735714D01*
X172851520Y-75732170D01*
X172865279Y-75728379D01*
X172878746Y-75724339D01*
X172891921Y-75720052D01*
X172904804Y-75715516D01*
X172917394Y-75710732D01*
X172929693Y-75705700D01*
X172941700Y-75700421D01*
X172953416Y-75694893D01*
X172964839Y-75689117D01*
X172975970Y-75683093D01*
X172986809Y-75676821D01*
X172997356Y-75670300D01*
X173007612Y-75663532D01*
X173017575Y-75656516D01*
X173027247Y-75649252D01*
X173036596Y-75641752D01*
X173045656Y-75634028D01*
X173054426Y-75626082D01*
X173062906Y-75617912D01*
X173071096Y-75609519D01*
X173078995Y-75600903D01*
X173086605Y-75592064D01*
X173093925Y-75583001D01*
X173100954Y-75573715D01*
X173107694Y-75564206D01*
X173114144Y-75554473D01*
X173120303Y-75544517D01*
X173126173Y-75534338D01*
X173131752Y-75523936D01*
X173137041Y-75513310D01*
X173142041Y-75502462D01*
X173146714Y-75491345D01*
X173151085Y-75479854D01*
X173155155Y-75467989D01*
X173158924Y-75455750D01*
X173162391Y-75443137D01*
X173165557Y-75430151D01*
X173168421Y-75416790D01*
X173170983Y-75403055D01*
X173173245Y-75388946D01*
X173175204Y-75374463D01*
X173176862Y-75359606D01*
X173178219Y-75344376D01*
X173179274Y-75328771D01*
X173180028Y-75312792D01*
X173180480Y-75296439D01*
X173180631Y-75279712D01*
X173180585Y-75269513D01*
X173180447Y-75259431D01*
X173180217Y-75249466D01*
X173179894Y-75239618D01*
X173178974Y-75220275D01*
X173177685Y-75201402D01*
X173176028Y-75182998D01*
X173174002Y-75165063D01*
X173171608Y-75147598D01*
X173168846Y-75130602D01*
X173165716Y-75114075D01*
X173162217Y-75098018D01*
X173158351Y-75082431D01*
X173154115Y-75067313D01*
X173149512Y-75052664D01*
X173144540Y-75038484D01*
X173139200Y-75024774D01*
X173133492Y-75011534D01*
X173127290Y-74998638D01*
X173120528Y-74985964D01*
X173113208Y-74973512D01*
X173105328Y-74961281D01*
X173096889Y-74949271D01*
X173087891Y-74937482D01*
X173078334Y-74925915D01*
X173068218Y-74914569D01*
X173057543Y-74903445D01*
X173046309Y-74892542D01*
X173034516Y-74881860D01*
X173022163Y-74871399D01*
X173009252Y-74861160D01*
X172995781Y-74851142D01*
X172981752Y-74841346D01*
X172967163Y-74831771D01*
X172952004Y-74822632D01*
X172936327Y-74814082D01*
X172920131Y-74806122D01*
X172903415Y-74798752D01*
X172886181Y-74791972D01*
X172868428Y-74785781D01*
X172850155Y-74780179D01*
X172831364Y-74775168D01*
X172821773Y-74772883D01*
X172812053Y-74770745D01*
X172802203Y-74768755D01*
X172792224Y-74766913D01*
X172782114Y-74765218D01*
X172771875Y-74763670D01*
X172761507Y-74762270D01*
X172751008Y-74761017D01*
X172740379Y-74759911D01*
X172729621Y-74758953D01*
X172718733Y-74758142D01*
X172707716Y-74757479D01*
X172696568Y-74756963D01*
X172685291Y-74756595D01*
X172673884Y-74756373D01*
X172662348Y-74756300D01*
X172646996Y-74756430D01*
X172631868Y-74756819D01*
X172616964Y-74757468D01*
X172602283Y-74758376D01*
X172587826Y-74759544D01*
X172573593Y-74760971D01*
X172559584Y-74762658D01*
X172545798Y-74764604D01*
X172532236Y-74766810D01*
X172518898Y-74769275D01*
X172505784Y-74772000D01*
X172492893Y-74774984D01*
X172480226Y-74778228D01*
X172467783Y-74781732D01*
X172455563Y-74785494D01*
X172443567Y-74789517D01*
X172431795Y-74793799D01*
X172420247Y-74798340D01*
X172408922Y-74803141D01*
X172397821Y-74808201D01*
X172386944Y-74813521D01*
X172376291Y-74819101D01*
X172365861Y-74824940D01*
X172355655Y-74831038D01*
X172345673Y-74837396D01*
X172335914Y-74844014D01*
X172326380Y-74850890D01*
X172317068Y-74858027D01*
X172307981Y-74865423D01*
X172299118Y-74873078D01*
X172290478Y-74880993D01*
X172282062Y-74889168D01*
X172273872Y-74897580D01*
X172265943Y-74906208D01*
X172258273Y-74915051D01*
X172250863Y-74924110D01*
X172243714Y-74933384D01*
X172236824Y-74942875D01*
X172230195Y-74952580D01*
X172223825Y-74962502D01*
X172217715Y-74972639D01*
X172211866Y-74982992D01*
X172206276Y-74993560D01*
X172200946Y-75004344D01*
X172195877Y-75015343D01*
X172191067Y-75026558D01*
X172186517Y-75037989D01*
X172182227Y-75049635D01*
X172178198Y-75061497D01*
X172174428Y-75073575D01*
X172170918Y-75085868D01*
X172167668Y-75098377D01*
X172164678Y-75111102D01*
X172161949Y-75124042D01*
X172159479Y-75137197D01*
X172157269Y-75150569D01*
X172155319Y-75164156D01*
X172153629Y-75177958D01*
X172152199Y-75191977D01*
X172151029Y-75206210D01*
X172150119Y-75220660D01*
X172149469Y-75235325D01*
X172149079Y-75250206D01*
X172148949Y-75265302D01*
X172149025Y-75277114D01*
X172149251Y-75288766D01*
X172149628Y-75300260D01*
X172150155Y-75311594D01*
X172150834Y-75322768D01*
X172151663Y-75333783D01*
X172152642Y-75344639D01*
X172153773Y-75355336D01*
X172155054Y-75365873D01*
X172156486Y-75376251D01*
X172158069Y-75386470D01*
X172159803Y-75396529D01*
X172161687Y-75406429D01*
X172163722Y-75416170D01*
X172165908Y-75425751D01*
X172170732Y-75444435D01*
X172176158Y-75462483D01*
X172182188Y-75479893D01*
X172188821Y-75496665D01*
X172196057Y-75512801D01*
X172203895Y-75528298D01*
X172212337Y-75543159D01*
X172221382Y-75557382D01*
X172226130Y-75564255D01*
X172236101Y-75577653D01*
X172246719Y-75590614D01*
X172257984Y-75603138D01*
X172269895Y-75615226D01*
X172282454Y-75626876D01*
X172295659Y-75638089D01*
X172309511Y-75648865D01*
X172324010Y-75659205D01*
X172339156Y-75669107D01*
X172354949Y-75678572D01*
X172371389Y-75687601D01*
X172388475Y-75696192D01*
X172406209Y-75704347D01*
X172415318Y-75708260D01*
X172424589Y-75712064D01*
X172434021Y-75715759D01*
X172443616Y-75719345D01*
X172453372Y-75722821D01*
X172463290Y-75726188D01*
X172524106Y-75451415D01*
X172513070Y-75447789D01*
X172502796Y-75444118D01*
X172493286Y-75440401D01*
X172482471Y-75435690D01*
X172472850Y-75430908D01*
X172462878Y-75425075D01*
X172457184Y-75421129D01*
X172448586Y-75414412D01*
X172440499Y-75407329D01*
X172432924Y-75399880D01*
X172425860Y-75392064D01*
X172419307Y-75383882D01*
X172413266Y-75375333D01*
X172407736Y-75366418D01*
X172402718Y-75357137D01*
X172398195Y-75347593D01*
X172394276Y-75337766D01*
X172390960Y-75327656D01*
X172388246Y-75317265D01*
X172386136Y-75306590D01*
X172384628Y-75295634D01*
X172383724Y-75284395D01*
X172383422Y-75272873D01*
X172383748Y-75259846D01*
X172384724Y-75247205D01*
X172386350Y-75234949D01*
X172388628Y-75223078D01*
X172391556Y-75211593D01*
X172395135Y-75200494D01*
X172399364Y-75189779D01*
X172404244Y-75179451D01*
X172409775Y-75169507D01*
X172415956Y-75159949D01*
X172422788Y-75150777D01*
X172430271Y-75141990D01*
X172438405Y-75133588D01*
X172447189Y-75125572D01*
X172456624Y-75117941D01*
X172466709Y-75110696D01*
X172478916Y-75103101D01*
X172487743Y-75098453D01*
X172497121Y-75094137D01*
X172507051Y-75090153D01*
X172517533Y-75086500D01*
X172528566Y-75083180D01*
X172540150Y-75080192D01*
X172552286Y-75077536D01*
X172564973Y-75075212D01*
X172578212Y-75073220D01*
X172592002Y-75071560D01*
X172606344Y-75070232D01*
X172621237Y-75069235D01*
X172636681Y-75068571D01*
X172652677Y-75068239D01*
X172660882Y-75068198D01*
X172671010Y-75068248D01*
X172680936Y-75068396D01*
X172700186Y-75068992D01*
X172718633Y-75069984D01*
X172736277Y-75071373D01*
X172753117Y-75073159D01*
X172769154Y-75075342D01*
X172784388Y-75077922D01*
X172798818Y-75080899D01*
X172812445Y-75084272D01*
X172825269Y-75088043D01*
X172837290Y-75092210D01*
X172848507Y-75096774D01*
X172858920Y-75101736D01*
X172868531Y-75107094D01*
X172877338Y-75112849D01*
X172885341Y-75119000D01*
X172892706Y-75125512D01*
X172902862Y-75135884D01*
X172911949Y-75146981D01*
X172919966Y-75158805D01*
X172926915Y-75171353D01*
X172932795Y-75184628D01*
X172936121Y-75193880D01*
X172938972Y-75203455D01*
X172941347Y-75213353D01*
X172943248Y-75223573D01*
X172944673Y-75234115D01*
X172945623Y-75244980D01*
X172946099Y-75256168D01*
X172946158Y-75261882D01*
X172945971Y-75272886D01*
X172945410Y-75283548D01*
X172944475Y-75293868D01*
X172943166Y-75303846D01*
X172941483Y-75313484D01*
X172938257Y-75327299D01*
X172934190Y-75340346D01*
X172929281Y-75352624D01*
X172923531Y-75364133D01*
X172916939Y-75374875D01*
X172909506Y-75384847D01*
X172901232Y-75394052D01*
X172898286Y-75396949D01*
X172888882Y-75405291D01*
X172878714Y-75413192D01*
X172867782Y-75420650D01*
X172856086Y-75427666D01*
X172843625Y-75434240D01*
X172830400Y-75440372D01*
X172821159Y-75444214D01*
X172811578Y-75447859D01*
X172801658Y-75451308D01*
X172791398Y-75454561D01*
X172780798Y-75457616D01*
X172769858Y-75460476D01*
X172758579Y-75463139D01*
G37*
G36*
X173165000Y-76654555D02*
G01*
X173165000Y-75815093D01*
X173149335Y-75817123D01*
X173133786Y-75819611D01*
X173118354Y-75822557D01*
X173103038Y-75825961D01*
X173087839Y-75829823D01*
X173072756Y-75834143D01*
X173057789Y-75838921D01*
X173042939Y-75844157D01*
X173028205Y-75849851D01*
X173013588Y-75856003D01*
X172999087Y-75862613D01*
X172984702Y-75869681D01*
X172970434Y-75877207D01*
X172956283Y-75885190D01*
X172942247Y-75893632D01*
X172928328Y-75902531D01*
X172914299Y-75912191D01*
X172899992Y-75922849D01*
X172885409Y-75934508D01*
X172870549Y-75947167D01*
X172863016Y-75953871D01*
X172855413Y-75960825D01*
X172847741Y-75968030D01*
X172840000Y-75975484D01*
X172832190Y-75983188D01*
X172824310Y-75991142D01*
X172816362Y-75999346D01*
X172808344Y-76007800D01*
X172800257Y-76016504D01*
X172792101Y-76025458D01*
X172783875Y-76034662D01*
X172775581Y-76044116D01*
X172767217Y-76053820D01*
X172758785Y-76063774D01*
X172750283Y-76073978D01*
X172741711Y-76084431D01*
X172733071Y-76095135D01*
X172724362Y-76106089D01*
X172715583Y-76117292D01*
X172706735Y-76128746D01*
X172697818Y-76140450D01*
X172688832Y-76152403D01*
X172679776Y-76164607D01*
X172670652Y-76177060D01*
X172659587Y-76192100D01*
X172648861Y-76206446D01*
X172638475Y-76220097D01*
X172628428Y-76233053D01*
X172618722Y-76245315D01*
X172609355Y-76256882D01*
X172600327Y-76267755D01*
X172591639Y-76277933D01*
X172583291Y-76287416D01*
X172575283Y-76296205D01*
X172567614Y-76304300D01*
X172560285Y-76311699D01*
X172549928Y-76321497D01*
X172540335Y-76329731D01*
X172534364Y-76334353D01*
X172525660Y-76340507D01*
X172517042Y-76346056D01*
X172508510Y-76351000D01*
X172497267Y-76356650D01*
X172486177Y-76361224D01*
X172475240Y-76364722D01*
X172464455Y-76367143D01*
X172453823Y-76368488D01*
X172445949Y-76368791D01*
X172434801Y-76368261D01*
X172424074Y-76366669D01*
X172413766Y-76364017D01*
X172403878Y-76360304D01*
X172394410Y-76355529D01*
X172385361Y-76349694D01*
X172376732Y-76342798D01*
X172368524Y-76334841D01*
X172361025Y-76326079D01*
X172354525Y-76316767D01*
X172349026Y-76306906D01*
X172344527Y-76296495D01*
X172341027Y-76285535D01*
X172338528Y-76274025D01*
X172337028Y-76261965D01*
X172336528Y-76249356D01*
X172336833Y-76239455D01*
X172338187Y-76226795D01*
X172340626Y-76214752D01*
X172344148Y-76203328D01*
X172348755Y-76192522D01*
X172354445Y-76182335D01*
X172361219Y-76172765D01*
X172369076Y-76163814D01*
X172371210Y-76161673D01*
X172380644Y-76153533D01*
X172388801Y-76147884D01*
X172397886Y-76142625D01*
X172407898Y-76137757D01*
X172418838Y-76133280D01*
X172430704Y-76129193D01*
X172443498Y-76125498D01*
X172457220Y-76122192D01*
X172466883Y-76120206D01*
X172476958Y-76118393D01*
X172487445Y-76116754D01*
X172492843Y-76116000D01*
X172469640Y-75835609D01*
X172455097Y-75837792D01*
X172440961Y-75840188D01*
X172427231Y-75842799D01*
X172413907Y-75845623D01*
X172400990Y-75848661D01*
X172388479Y-75851912D01*
X172376375Y-75855377D01*
X172364677Y-75859056D01*
X172353385Y-75862949D01*
X172342500Y-75867055D01*
X172332022Y-75871375D01*
X172321950Y-75875909D01*
X172312284Y-75880656D01*
X172303025Y-75885618D01*
X172294172Y-75890793D01*
X172285725Y-75896181D01*
X172277573Y-75901817D01*
X172269662Y-75907733D01*
X172261995Y-75913930D01*
X172254569Y-75920407D01*
X172247386Y-75927165D01*
X172240445Y-75934203D01*
X172233746Y-75941522D01*
X172227290Y-75949121D01*
X172221076Y-75957000D01*
X172215105Y-75965161D01*
X172209376Y-75973601D01*
X172203889Y-75982323D01*
X172198644Y-75991324D01*
X172193642Y-76000606D01*
X172188882Y-76010169D01*
X172184364Y-76020012D01*
X172180076Y-76030267D01*
X172176064Y-76041002D01*
X172172329Y-76052218D01*
X172168870Y-76063915D01*
X172165688Y-76076093D01*
X172162783Y-76088751D01*
X172160155Y-76101891D01*
X172157803Y-76115511D01*
X172155728Y-76129612D01*
X172153930Y-76144195D01*
X172152408Y-76159257D01*
X172151163Y-76174801D01*
X172150194Y-76190826D01*
X172149503Y-76207331D01*
X172149088Y-76224318D01*
X172148949Y-76241785D01*
X172149079Y-76259969D01*
X172149468Y-76277643D01*
X172150117Y-76294805D01*
X172151025Y-76311455D01*
X172152193Y-76327594D01*
X172153620Y-76343222D01*
X172155307Y-76358338D01*
X172157254Y-76372943D01*
X172159459Y-76387037D01*
X172161925Y-76400619D01*
X172164649Y-76413690D01*
X172167634Y-76426249D01*
X172170878Y-76438297D01*
X172174381Y-76449834D01*
X172178144Y-76460859D01*
X172182166Y-76471373D01*
X172186426Y-76481523D01*
X172190963Y-76491397D01*
X172195776Y-76500994D01*
X172200866Y-76510315D01*
X172206233Y-76519358D01*
X172211876Y-76528125D01*
X172217796Y-76536615D01*
X172223993Y-76544829D01*
X172230466Y-76552766D01*
X172237216Y-76560426D01*
X172244243Y-76567810D01*
X172251547Y-76574917D01*
X172259127Y-76581747D01*
X172266983Y-76588301D01*
X172275117Y-76594577D01*
X172283527Y-76600578D01*
X172292140Y-76606286D01*
X172300884Y-76611626D01*
X172309756Y-76616597D01*
X172318759Y-76621201D01*
X172327891Y-76625436D01*
X172337154Y-76629303D01*
X172346546Y-76632801D01*
X172356067Y-76635932D01*
X172365719Y-76638694D01*
X172375500Y-76641088D01*
X172385411Y-76643113D01*
X172395451Y-76644770D01*
X172405622Y-76646059D01*
X172415922Y-76646980D01*
X172426352Y-76647532D01*
X172436912Y-76647716D01*
X172448147Y-76647506D01*
X172459321Y-76646873D01*
X172470434Y-76645819D01*
X172481486Y-76644343D01*
X172492477Y-76642445D01*
X172503407Y-76640126D01*
X172514275Y-76637385D01*
X172525083Y-76634222D01*
X172535830Y-76630638D01*
X172546516Y-76626631D01*
X172557140Y-76622204D01*
X172567704Y-76617354D01*
X172578206Y-76612083D01*
X172588647Y-76606390D01*
X172599028Y-76600275D01*
X172609347Y-76593739D01*
X172619699Y-76586647D01*
X172630176Y-76578867D01*
X172640780Y-76570397D01*
X172651509Y-76561239D01*
X172662365Y-76551392D01*
X172673346Y-76540856D01*
X172684454Y-76529632D01*
X172695687Y-76517718D01*
X172707046Y-76505116D01*
X172718531Y-76491825D01*
X172730142Y-76477845D01*
X172741879Y-76463176D01*
X172753742Y-76447818D01*
X172759721Y-76439881D01*
X172765731Y-76431771D01*
X172771773Y-76423490D01*
X172777846Y-76415036D01*
X172783951Y-76406410D01*
X172790087Y-76397612D01*
X172797127Y-76387267D01*
X172803898Y-76377359D01*
X172810400Y-76367888D01*
X172816633Y-76358853D01*
X172822597Y-76350256D01*
X172828292Y-76342096D01*
X172836329Y-76330675D01*
X172843762Y-76320237D01*
X172850589Y-76310783D01*
X172856811Y-76302311D01*
X172864165Y-76292545D01*
X172870443Y-76284527D01*
X172877963Y-76275423D01*
X172884478Y-76267779D01*
X172891435Y-76259814D01*
X172898834Y-76251529D01*
X172906677Y-76242923D01*
X172914962Y-76233997D01*
X172923690Y-76224750D01*
X172930526Y-76217605D01*
X172930526Y-76654555D01*
X173165000Y-76654555D01*
G37*
G36*
X172758579Y-85463139D02*
G01*
X172837470Y-85735714D01*
X172851520Y-85732170D01*
X172865279Y-85728379D01*
X172878746Y-85724339D01*
X172891921Y-85720052D01*
X172904804Y-85715516D01*
X172917394Y-85710732D01*
X172929693Y-85705700D01*
X172941700Y-85700421D01*
X172953416Y-85694893D01*
X172964839Y-85689117D01*
X172975970Y-85683093D01*
X172986809Y-85676821D01*
X172997356Y-85670300D01*
X173007612Y-85663532D01*
X173017575Y-85656516D01*
X173027247Y-85649252D01*
X173036596Y-85641752D01*
X173045656Y-85634028D01*
X173054426Y-85626082D01*
X173062906Y-85617912D01*
X173071096Y-85609519D01*
X173078995Y-85600903D01*
X173086605Y-85592064D01*
X173093925Y-85583001D01*
X173100954Y-85573715D01*
X173107694Y-85564206D01*
X173114144Y-85554473D01*
X173120303Y-85544517D01*
X173126173Y-85534338D01*
X173131752Y-85523936D01*
X173137041Y-85513310D01*
X173142041Y-85502462D01*
X173146714Y-85491345D01*
X173151085Y-85479854D01*
X173155155Y-85467989D01*
X173158924Y-85455750D01*
X173162391Y-85443137D01*
X173165557Y-85430151D01*
X173168421Y-85416790D01*
X173170983Y-85403055D01*
X173173245Y-85388946D01*
X173175204Y-85374463D01*
X173176862Y-85359606D01*
X173178219Y-85344376D01*
X173179274Y-85328771D01*
X173180028Y-85312792D01*
X173180480Y-85296439D01*
X173180631Y-85279712D01*
X173180585Y-85269513D01*
X173180447Y-85259431D01*
X173180217Y-85249466D01*
X173179894Y-85239618D01*
X173178974Y-85220275D01*
X173177685Y-85201402D01*
X173176028Y-85182998D01*
X173174002Y-85165063D01*
X173171608Y-85147598D01*
X173168846Y-85130602D01*
X173165716Y-85114075D01*
X173162217Y-85098018D01*
X173158351Y-85082431D01*
X173154115Y-85067313D01*
X173149512Y-85052664D01*
X173144540Y-85038484D01*
X173139200Y-85024774D01*
X173133492Y-85011534D01*
X173127290Y-84998638D01*
X173120528Y-84985964D01*
X173113208Y-84973512D01*
X173105328Y-84961281D01*
X173096889Y-84949271D01*
X173087891Y-84937482D01*
X173078334Y-84925915D01*
X173068218Y-84914569D01*
X173057543Y-84903445D01*
X173046309Y-84892542D01*
X173034516Y-84881860D01*
X173022163Y-84871399D01*
X173009252Y-84861160D01*
X172995781Y-84851142D01*
X172981752Y-84841346D01*
X172967163Y-84831771D01*
X172952004Y-84822632D01*
X172936327Y-84814082D01*
X172920131Y-84806122D01*
X172903415Y-84798752D01*
X172886181Y-84791972D01*
X172868428Y-84785781D01*
X172850155Y-84780179D01*
X172831364Y-84775168D01*
X172821773Y-84772883D01*
X172812053Y-84770745D01*
X172802203Y-84768755D01*
X172792224Y-84766913D01*
X172782114Y-84765218D01*
X172771875Y-84763670D01*
X172761507Y-84762270D01*
X172751008Y-84761017D01*
X172740379Y-84759911D01*
X172729621Y-84758953D01*
X172718733Y-84758142D01*
X172707716Y-84757479D01*
X172696568Y-84756963D01*
X172685291Y-84756595D01*
X172673884Y-84756373D01*
X172662348Y-84756300D01*
X172646996Y-84756430D01*
X172631868Y-84756819D01*
X172616964Y-84757468D01*
X172602283Y-84758376D01*
X172587826Y-84759544D01*
X172573593Y-84760971D01*
X172559584Y-84762658D01*
X172545798Y-84764604D01*
X172532236Y-84766810D01*
X172518898Y-84769275D01*
X172505784Y-84772000D01*
X172492893Y-84774984D01*
X172480226Y-84778228D01*
X172467783Y-84781732D01*
X172455563Y-84785494D01*
X172443567Y-84789517D01*
X172431795Y-84793799D01*
X172420247Y-84798340D01*
X172408922Y-84803141D01*
X172397821Y-84808201D01*
X172386944Y-84813521D01*
X172376291Y-84819101D01*
X172365861Y-84824940D01*
X172355655Y-84831038D01*
X172345673Y-84837396D01*
X172335914Y-84844014D01*
X172326380Y-84850890D01*
X172317068Y-84858027D01*
X172307981Y-84865423D01*
X172299118Y-84873078D01*
X172290478Y-84880993D01*
X172282062Y-84889168D01*
X172273872Y-84897580D01*
X172265943Y-84906208D01*
X172258273Y-84915051D01*
X172250863Y-84924110D01*
X172243714Y-84933384D01*
X172236824Y-84942875D01*
X172230195Y-84952580D01*
X172223825Y-84962502D01*
X172217715Y-84972639D01*
X172211866Y-84982992D01*
X172206276Y-84993560D01*
X172200946Y-85004344D01*
X172195877Y-85015343D01*
X172191067Y-85026558D01*
X172186517Y-85037989D01*
X172182227Y-85049635D01*
X172178198Y-85061497D01*
X172174428Y-85073575D01*
X172170918Y-85085868D01*
X172167668Y-85098377D01*
X172164678Y-85111102D01*
X172161949Y-85124042D01*
X172159479Y-85137197D01*
X172157269Y-85150569D01*
X172155319Y-85164156D01*
X172153629Y-85177958D01*
X172152199Y-85191977D01*
X172151029Y-85206210D01*
X172150119Y-85220660D01*
X172149469Y-85235325D01*
X172149079Y-85250206D01*
X172148949Y-85265302D01*
X172149025Y-85277114D01*
X172149251Y-85288766D01*
X172149628Y-85300260D01*
X172150155Y-85311594D01*
X172150834Y-85322768D01*
X172151663Y-85333783D01*
X172152642Y-85344639D01*
X172153773Y-85355336D01*
X172155054Y-85365873D01*
X172156486Y-85376251D01*
X172158069Y-85386470D01*
X172159803Y-85396529D01*
X172161687Y-85406429D01*
X172163722Y-85416170D01*
X172165908Y-85425751D01*
X172170732Y-85444435D01*
X172176158Y-85462483D01*
X172182188Y-85479893D01*
X172188821Y-85496665D01*
X172196057Y-85512801D01*
X172203895Y-85528298D01*
X172212337Y-85543159D01*
X172221382Y-85557382D01*
X172226130Y-85564255D01*
X172236101Y-85577653D01*
X172246719Y-85590614D01*
X172257984Y-85603138D01*
X172269895Y-85615226D01*
X172282454Y-85626876D01*
X172295659Y-85638089D01*
X172309511Y-85648865D01*
X172324010Y-85659205D01*
X172339156Y-85669107D01*
X172354949Y-85678572D01*
X172371389Y-85687601D01*
X172388475Y-85696192D01*
X172406209Y-85704347D01*
X172415318Y-85708260D01*
X172424589Y-85712064D01*
X172434021Y-85715759D01*
X172443616Y-85719345D01*
X172453372Y-85722821D01*
X172463290Y-85726188D01*
X172524106Y-85451415D01*
X172513070Y-85447789D01*
X172502796Y-85444118D01*
X172493286Y-85440401D01*
X172482471Y-85435690D01*
X172472850Y-85430908D01*
X172462878Y-85425075D01*
X172457184Y-85421129D01*
X172448586Y-85414412D01*
X172440499Y-85407329D01*
X172432924Y-85399880D01*
X172425860Y-85392064D01*
X172419307Y-85383882D01*
X172413266Y-85375333D01*
X172407736Y-85366418D01*
X172402718Y-85357137D01*
X172398195Y-85347593D01*
X172394276Y-85337766D01*
X172390960Y-85327656D01*
X172388246Y-85317265D01*
X172386136Y-85306590D01*
X172384628Y-85295634D01*
X172383724Y-85284395D01*
X172383422Y-85272873D01*
X172383748Y-85259846D01*
X172384724Y-85247205D01*
X172386350Y-85234949D01*
X172388628Y-85223078D01*
X172391556Y-85211593D01*
X172395135Y-85200494D01*
X172399364Y-85189779D01*
X172404244Y-85179451D01*
X172409775Y-85169507D01*
X172415956Y-85159949D01*
X172422788Y-85150777D01*
X172430271Y-85141990D01*
X172438405Y-85133588D01*
X172447189Y-85125572D01*
X172456624Y-85117941D01*
X172466709Y-85110696D01*
X172478916Y-85103101D01*
X172487743Y-85098453D01*
X172497121Y-85094137D01*
X172507051Y-85090153D01*
X172517533Y-85086500D01*
X172528566Y-85083180D01*
X172540150Y-85080192D01*
X172552286Y-85077536D01*
X172564973Y-85075212D01*
X172578212Y-85073220D01*
X172592002Y-85071560D01*
X172606344Y-85070232D01*
X172621237Y-85069235D01*
X172636681Y-85068571D01*
X172652677Y-85068239D01*
X172660882Y-85068198D01*
X172671010Y-85068248D01*
X172680936Y-85068396D01*
X172700186Y-85068992D01*
X172718633Y-85069984D01*
X172736277Y-85071373D01*
X172753117Y-85073159D01*
X172769154Y-85075342D01*
X172784388Y-85077922D01*
X172798818Y-85080899D01*
X172812445Y-85084272D01*
X172825269Y-85088043D01*
X172837290Y-85092210D01*
X172848507Y-85096774D01*
X172858920Y-85101736D01*
X172868531Y-85107094D01*
X172877338Y-85112849D01*
X172885341Y-85119000D01*
X172892706Y-85125512D01*
X172902862Y-85135884D01*
X172911949Y-85146981D01*
X172919966Y-85158805D01*
X172926915Y-85171353D01*
X172932795Y-85184628D01*
X172936121Y-85193880D01*
X172938972Y-85203455D01*
X172941347Y-85213353D01*
X172943248Y-85223573D01*
X172944673Y-85234115D01*
X172945623Y-85244980D01*
X172946099Y-85256168D01*
X172946158Y-85261882D01*
X172945971Y-85272886D01*
X172945410Y-85283548D01*
X172944475Y-85293868D01*
X172943166Y-85303846D01*
X172941483Y-85313484D01*
X172938257Y-85327299D01*
X172934190Y-85340346D01*
X172929281Y-85352624D01*
X172923531Y-85364133D01*
X172916939Y-85374875D01*
X172909506Y-85384847D01*
X172901232Y-85394052D01*
X172898286Y-85396949D01*
X172888882Y-85405291D01*
X172878714Y-85413192D01*
X172867782Y-85420650D01*
X172856086Y-85427666D01*
X172843625Y-85434240D01*
X172830400Y-85440372D01*
X172821159Y-85444214D01*
X172811578Y-85447859D01*
X172801658Y-85451308D01*
X172791398Y-85454561D01*
X172780798Y-85457616D01*
X172769858Y-85460476D01*
X172758579Y-85463139D01*
G37*
G36*
X172148949Y-86469663D02*
G01*
X173165000Y-86469663D01*
X173165000Y-86186586D01*
X172499682Y-86186586D01*
X172506258Y-86178024D01*
X172512676Y-86169497D01*
X172518936Y-86161003D01*
X172525037Y-86152545D01*
X172530980Y-86144120D01*
X172536765Y-86135730D01*
X172542391Y-86127374D01*
X172547859Y-86119053D01*
X172553168Y-86110766D01*
X172560835Y-86098399D01*
X172568146Y-86086111D01*
X172575101Y-86073899D01*
X172581699Y-86061764D01*
X172585900Y-86053718D01*
X172592058Y-86041388D01*
X172598170Y-86028487D01*
X172602218Y-86019570D01*
X172606245Y-86010398D01*
X172610251Y-86000973D01*
X172614237Y-85991294D01*
X172618201Y-85981361D01*
X172622144Y-85971174D01*
X172626066Y-85960734D01*
X172629967Y-85950040D01*
X172633848Y-85939092D01*
X172637707Y-85927890D01*
X172641545Y-85916434D01*
X172645362Y-85904725D01*
X172649159Y-85892762D01*
X172414685Y-85892762D01*
X172408966Y-85910372D01*
X172403103Y-85927482D01*
X172397097Y-85944093D01*
X172390948Y-85960203D01*
X172384656Y-85975814D01*
X172378221Y-85990924D01*
X172371642Y-86005535D01*
X172364921Y-86019646D01*
X172358056Y-86033257D01*
X172351049Y-86046368D01*
X172343898Y-86058979D01*
X172336604Y-86071090D01*
X172329167Y-86082701D01*
X172321587Y-86093812D01*
X172313864Y-86104423D01*
X172305997Y-86114534D01*
X172297914Y-86124262D01*
X172289599Y-86133723D01*
X172281053Y-86142916D01*
X172272277Y-86151842D01*
X172263269Y-86160502D01*
X172254031Y-86168894D01*
X172244562Y-86177018D01*
X172234862Y-86184876D01*
X172224931Y-86192467D01*
X172214769Y-86199790D01*
X172204376Y-86206847D01*
X172193753Y-86213636D01*
X172182898Y-86220158D01*
X172171813Y-86226413D01*
X172160496Y-86232401D01*
X172148949Y-86238121D01*
X172148949Y-86469663D01*
G37*
D12*
%TO.C,C2*%
X173260000Y-78309718D02*
X173260000Y-78590878D01*
X172240000Y-78309718D02*
X172240000Y-78590878D01*
%TO.C,C1*%
X173260000Y-82809718D02*
X173260000Y-83090878D01*
X172240000Y-82809718D02*
X172240000Y-83090878D01*
%TD*%
%LPC*%
D13*
X148587500Y-87724598D02*
G75*
G03*
X148587500Y-87724598I-837500J0D01*
G01*
D14*
%TO.C,R1*%
X176560000Y-90950298D03*
D15*
X168940000Y-90950298D03*
%TD*%
D14*
%TO.C,R3*%
X152940000Y-84000298D03*
D15*
X160560000Y-84000298D03*
%TD*%
D16*
%TO.C,VIN*%
X198022500Y-92674598D03*
D17*
X201982500Y-92674598D03*
%TD*%
D18*
%TO.C,REF\u002A\u002A*%
X159079500Y-111000000D03*
%TD*%
%TO.C,REF\u002A\u002A*%
X191479500Y-111000000D03*
%TD*%
D19*
%TO.C,MD*%
X205537500Y-80724598D03*
D17*
X201577500Y-80724598D03*
%TD*%
D18*
%TO.C,REF\u002A\u002A*%
X191479500Y-61000000D03*
%TD*%
D14*
%TO.C,R2*%
X176560000Y-94200298D03*
D15*
X168940000Y-94200298D03*
%TD*%
D14*
%TO.C,R5*%
X188000000Y-74390298D03*
D15*
X188000000Y-82010298D03*
%TD*%
D20*
%TO.C,SW2*%
X184250000Y-83724598D03*
X184250000Y-81224598D03*
X184250000Y-78724598D03*
%TD*%
D18*
%TO.C,REF\u002A\u002A*%
X159079500Y-61000000D03*
%TD*%
D21*
%TO.C,Voltage*%
X158030000Y-79249598D03*
D22*
X155530000Y-79249598D03*
%TD*%
D14*
%TO.C,R4*%
X152940000Y-87250298D03*
D15*
X160560000Y-87250298D03*
%TD*%
D23*
%TO.C,C-Vin*%
X189368606Y-92974598D03*
D24*
X184368606Y-92974598D03*
%TD*%
D19*
%TO.C,MD*%
X149037500Y-80774598D03*
D17*
X145077500Y-80774598D03*
%TD*%
D25*
%TO.C,F1*%
X203030000Y-104224598D03*
X196530000Y-101224598D03*
X179030000Y-104224598D03*
X172530000Y-101224598D03*
%TD*%
D21*
%TO.C,MAIN*%
X195500000Y-79249598D03*
D22*
X193000000Y-79249598D03*
%TD*%
D26*
%TO.C,MES1*%
X162279500Y-66533813D03*
X188279500Y-66533813D03*
D20*
X185279500Y-70783813D03*
X183529500Y-70783813D03*
%TD*%
D27*
%TO.C,C2*%
X172750000Y-77675298D03*
X172750000Y-79225298D03*
%TD*%
%TO.C,C1*%
X172750000Y-82175298D03*
X172750000Y-83725298D03*
%TD*%
%LPD*%
M02*
