%TF.GenerationSoftware,KiCad,Pcbnew,7.0.6*%
%TF.CreationDate,2024-02-11T15:29:09+09:00*%
%TF.ProjectId,PowerSupply_20240202,506f7765-7253-4757-9070-6c795f323032,rev?*%
%TF.SameCoordinates,Original*%
%TF.FileFunction,Copper,L2,Bot*%
%TF.FilePolarity,Positive*%
%FSLAX46Y46*%
G04 Gerber Fmt 4.6, Leading zero omitted, Abs format (unit mm)*
G04 Created by KiCad (PCBNEW 7.0.6) date 2024-02-11 15:29:09*
%MOMM*%
%LPD*%
G01*
G04 APERTURE LIST*
G04 Aperture macros list*
%AMRoundRect*
0 Rectangle with rounded corners*
0 $1 Rounding radius*
0 $2 $3 $4 $5 $6 $7 $8 $9 X,Y pos of 4 corners*
0 Add a 4 corners polygon primitive as box body*
4,1,4,$2,$3,$4,$5,$6,$7,$8,$9,$2,$3,0*
0 Add four circle primitives for the rounded corners*
1,1,$1+$1,$2,$3*
1,1,$1+$1,$4,$5*
1,1,$1+$1,$6,$7*
1,1,$1+$1,$8,$9*
0 Add four rect primitives between the rounded corners*
20,1,$1+$1,$2,$3,$4,$5,0*
20,1,$1+$1,$4,$5,$6,$7,0*
20,1,$1+$1,$6,$7,$8,$9,0*
20,1,$1+$1,$8,$9,$2,$3,0*%
G04 Aperture macros list end*
%TA.AperFunction,ComponentPad*%
%ADD10C,1.600000*%
%TD*%
%TA.AperFunction,ComponentPad*%
%ADD11O,1.600000X1.600000*%
%TD*%
%TA.AperFunction,ComponentPad*%
%ADD12RoundRect,0.250001X-1.099999X-1.099999X1.099999X-1.099999X1.099999X1.099999X-1.099999X1.099999X0*%
%TD*%
%TA.AperFunction,ComponentPad*%
%ADD13C,2.700000*%
%TD*%
%TA.AperFunction,ComponentPad*%
%ADD14RoundRect,0.250001X1.099999X1.099999X-1.099999X1.099999X-1.099999X-1.099999X1.099999X-1.099999X0*%
%TD*%
%TA.AperFunction,ComponentPad*%
%ADD15C,1.500000*%
%TD*%
%TA.AperFunction,ComponentPad*%
%ADD16RoundRect,0.250000X0.600000X0.750000X-0.600000X0.750000X-0.600000X-0.750000X0.600000X-0.750000X0*%
%TD*%
%TA.AperFunction,ComponentPad*%
%ADD17O,1.700000X2.000000*%
%TD*%
%TA.AperFunction,ComponentPad*%
%ADD18R,2.000000X2.000000*%
%TD*%
%TA.AperFunction,ComponentPad*%
%ADD19C,2.000000*%
%TD*%
%TA.AperFunction,ComponentPad*%
%ADD20C,2.600000*%
%TD*%
%TA.AperFunction,SMDPad,CuDef*%
%ADD21RoundRect,0.225000X-0.250000X0.225000X-0.250000X-0.225000X0.250000X-0.225000X0.250000X0.225000X0*%
%TD*%
%TA.AperFunction,ViaPad*%
%ADD22C,3.200000*%
%TD*%
%TA.AperFunction,ViaPad*%
%ADD23C,0.800000*%
%TD*%
%TA.AperFunction,Conductor*%
%ADD24C,1.500000*%
%TD*%
%TA.AperFunction,Conductor*%
%ADD25C,1.000000*%
%TD*%
%TA.AperFunction,Conductor*%
%ADD26C,0.500000*%
%TD*%
G04 APERTURE END LIST*
D10*
%TO.P,R1,1*%
%TO.N,Net-(SW2-A)*%
X176560000Y-90950298D03*
D11*
%TO.P,R1,2*%
%TO.N,VIN*%
X168940000Y-90950298D03*
%TD*%
D10*
%TO.P,R3,1*%
%TO.N,Net-(R3-Pad1)*%
X152940000Y-84000298D03*
D11*
%TO.P,R3,2*%
%TO.N,Net-(R2-Pad2)*%
X160560000Y-84000298D03*
%TD*%
D12*
%TO.P,VIN,1,Pin_1*%
%TO.N,Net-(J1-Pin_1)*%
X198022500Y-92674598D03*
D13*
%TO.P,VIN,2,Pin_2*%
%TO.N,GND*%
X201982500Y-92674598D03*
%TD*%
D14*
%TO.P,MD,1,Pin_1*%
%TO.N,VIN*%
X205537500Y-80724598D03*
D13*
%TO.P,MD,2,Pin_2*%
%TO.N,GND*%
X201577500Y-80724598D03*
%TD*%
D10*
%TO.P,R2,1*%
%TO.N,Net-(U1-Trim)*%
X176560000Y-94200298D03*
D11*
%TO.P,R2,2*%
%TO.N,Net-(R2-Pad2)*%
X168940000Y-94200298D03*
%TD*%
D10*
%TO.P,R5,1*%
%TO.N,+5V*%
X188000000Y-74390298D03*
D11*
%TO.P,R5,2*%
%TO.N,GND*%
X188000000Y-82010298D03*
%TD*%
D15*
%TO.P,SW2,1,A*%
%TO.N,Net-(SW2-A)*%
X184250000Y-83724598D03*
%TO.P,SW2,2,B*%
%TO.N,GND*%
X184250000Y-81224598D03*
%TO.P,SW2,3,C*%
X184250000Y-78724598D03*
%TD*%
D16*
%TO.P,Voltage,1,Pin_1*%
%TO.N,VIN*%
X158030000Y-79249598D03*
D17*
%TO.P,Voltage,2,Pin_2*%
%TO.N,GND*%
X155530000Y-79249598D03*
%TD*%
D10*
%TO.P,R4,1*%
%TO.N,Net-(R3-Pad1)*%
X152940000Y-87250298D03*
D11*
%TO.P,R4,2*%
%TO.N,GND*%
X160560000Y-87250298D03*
%TD*%
D18*
%TO.P,C-Vin,1*%
%TO.N,+5V*%
X189368606Y-92974598D03*
D19*
%TO.P,C-Vin,2*%
%TO.N,GND*%
X184368606Y-92974598D03*
%TD*%
D14*
%TO.P,MD,1,Pin_1*%
%TO.N,VIN*%
X149037500Y-80774598D03*
D13*
%TO.P,MD,2,Pin_2*%
%TO.N,GND*%
X145077500Y-80774598D03*
%TD*%
D20*
%TO.P,F1,1*%
%TO.N,Net-(J1-Pin_1)*%
X203030000Y-104224598D03*
X196530000Y-101224598D03*
%TO.P,F1,2*%
%TO.N,Net-(SW1-A)*%
X179030000Y-104224598D03*
X172530000Y-101224598D03*
%TD*%
D16*
%TO.P,MAIN,1,Pin_1*%
%TO.N,+5V*%
X195500000Y-79249598D03*
D17*
%TO.P,MAIN,2,Pin_2*%
%TO.N,GND*%
X193000000Y-79249598D03*
%TD*%
D15*
%TO.P,MES1,1,-*%
%TO.N,GND*%
X185279500Y-70783813D03*
%TO.P,MES1,2,+*%
%TO.N,VIN*%
X183529500Y-70783813D03*
%TD*%
D21*
%TO.P,C2,1*%
%TO.N,+5V*%
X172750000Y-77675298D03*
%TO.P,C2,2*%
%TO.N,GND*%
X172750000Y-79225298D03*
%TD*%
%TO.P,C1,1*%
%TO.N,VIN*%
X172750000Y-82175298D03*
%TO.P,C1,2*%
%TO.N,GND*%
X172750000Y-83725298D03*
%TD*%
D22*
%TO.N,VIN*%
X147750000Y-87724598D03*
D23*
X169650000Y-82790298D03*
%TO.N,GND*%
X176560000Y-78210298D03*
%TO.N,+5V*%
X170750000Y-74400298D03*
X181750000Y-74400298D03*
%TO.N,Net-(SW2-A)*%
X176560000Y-86600298D03*
%TO.N,Net-(U1-Trim)*%
X174750000Y-74400298D03*
%TD*%
D24*
%TO.N,VIN*%
X170265000Y-82175298D02*
X172750000Y-82175298D01*
X169650000Y-82790298D02*
X170265000Y-82175298D01*
%TO.N,+5V*%
X181750000Y-74400298D02*
X192938142Y-74400298D01*
X192938142Y-74400298D02*
X195500000Y-76962156D01*
X195500000Y-76962156D02*
X195500000Y-79249598D01*
D25*
X170750000Y-74400298D02*
X172750000Y-76400298D01*
X172750000Y-76400298D02*
X172750000Y-77675298D01*
D26*
%TO.N,Net-(SW2-A)*%
X176560000Y-86600298D02*
X176560000Y-90950298D01*
X176560000Y-86600298D02*
X181374300Y-86600298D01*
X181374300Y-86600298D02*
X184250000Y-83724598D01*
%TO.N,Net-(U1-Trim)*%
X174750000Y-74400298D02*
X175950000Y-75600298D01*
X185450000Y-85310298D02*
X176560000Y-94200298D01*
X183100000Y-75600298D02*
X185450000Y-77950298D01*
X185450000Y-77950298D02*
X185450000Y-85310298D01*
X175950000Y-75600298D02*
X183100000Y-75600298D01*
%TO.N,Net-(R2-Pad2)*%
X170190000Y-92950298D02*
X168940000Y-94200298D01*
X160560000Y-84000298D02*
X163757767Y-84000298D01*
X163757767Y-84000298D02*
X170190000Y-90432531D01*
X170190000Y-90432531D02*
X170190000Y-92950298D01*
%TO.N,Net-(R3-Pad1)*%
X152940000Y-84000298D02*
X152940000Y-87250298D01*
%TD*%
%TA.AperFunction,Conductor*%
%TO.N,GND*%
G36*
X191481017Y-57500574D02*
G01*
X191631800Y-57507987D01*
X191826364Y-57518191D01*
X191832207Y-57518777D01*
X192001452Y-57543901D01*
X192177599Y-57571820D01*
X192182957Y-57572915D01*
X192352296Y-57615364D01*
X192481845Y-57650103D01*
X192521554Y-57660752D01*
X192526380Y-57662259D01*
X192640885Y-57703262D01*
X192692180Y-57721630D01*
X192854708Y-57784067D01*
X192858988Y-57785900D01*
X193018982Y-57861633D01*
X193173635Y-57940499D01*
X193177331Y-57942547D01*
X193329632Y-58033914D01*
X193475041Y-58128429D01*
X193478169Y-58130603D01*
X193552711Y-58185940D01*
X193621123Y-58236727D01*
X193755834Y-58345923D01*
X193758446Y-58348163D01*
X193889413Y-58466992D01*
X193891586Y-58469064D01*
X194010821Y-58588434D01*
X194013161Y-58590776D01*
X194015240Y-58592962D01*
X194133923Y-58724067D01*
X194136128Y-58726643D01*
X194202964Y-58809286D01*
X194245190Y-58861500D01*
X194351128Y-59004540D01*
X194353327Y-59007710D01*
X194447669Y-59153212D01*
X194538871Y-59305630D01*
X194540933Y-59309363D01*
X194619602Y-59464063D01*
X194635262Y-59497242D01*
X194691717Y-59616857D01*
X194695155Y-59624140D01*
X194696988Y-59628437D01*
X194759233Y-59791010D01*
X194818418Y-59956885D01*
X194819927Y-59961732D01*
X194865120Y-60131034D01*
X194900865Y-60274309D01*
X194904828Y-60290198D01*
X194907376Y-60300409D01*
X194908467Y-60305783D01*
X194936183Y-60481936D01*
X194951418Y-60585374D01*
X194960275Y-60645508D01*
X194961119Y-60651234D01*
X194961699Y-60657095D01*
X194971670Y-60851409D01*
X194978923Y-61002425D01*
X194978995Y-61005469D01*
X194968892Y-69945622D01*
X194968845Y-69945778D01*
X194968820Y-69968725D01*
X194967743Y-69972374D01*
X194968667Y-69986673D01*
X194968796Y-69990735D01*
X194968626Y-70148350D01*
X194991044Y-70334595D01*
X194991360Y-70338009D01*
X194996192Y-70412834D01*
X195002715Y-70431550D01*
X195004803Y-70448901D01*
X195004804Y-70448908D01*
X195058205Y-70666455D01*
X195058814Y-70669201D01*
X195070356Y-70727538D01*
X195076007Y-70738977D01*
X195076376Y-70740478D01*
X195076971Y-70742902D01*
X195162220Y-70968271D01*
X195174254Y-71000084D01*
X195181979Y-71022911D01*
X195182335Y-71022725D01*
X195184074Y-71026045D01*
X195184075Y-71026047D01*
X195282086Y-71213144D01*
X195324553Y-71294209D01*
X195326490Y-71297419D01*
X195326438Y-71297449D01*
X195327338Y-71298984D01*
X195329119Y-71300834D01*
X195496347Y-71543462D01*
X195509757Y-71558617D01*
X195510414Y-71559470D01*
X195510759Y-71559749D01*
X195624992Y-71688847D01*
X195672702Y-71742766D01*
X195696947Y-71770167D01*
X195696951Y-71770170D01*
X195696955Y-71770175D01*
X195907402Y-71956808D01*
X195907542Y-71957031D01*
X195908402Y-71957695D01*
X195914292Y-71962918D01*
X195923445Y-71971035D01*
X196166271Y-72138798D01*
X196167317Y-72140090D01*
X196169261Y-72141233D01*
X196169302Y-72141167D01*
X196172504Y-72143104D01*
X196172509Y-72143108D01*
X196304837Y-72212616D01*
X196443832Y-72285626D01*
X196443621Y-72286025D01*
X196467813Y-72294243D01*
X196723538Y-72391300D01*
X196728119Y-72392430D01*
X196737060Y-72397637D01*
X196798741Y-72409914D01*
X196801442Y-72410515D01*
X197017454Y-72463795D01*
X197029897Y-72465306D01*
X197035527Y-72465991D01*
X197050247Y-72472327D01*
X197129863Y-72477548D01*
X197133276Y-72477867D01*
X197317969Y-72500307D01*
X197444568Y-72500310D01*
X197444575Y-72500312D01*
X197469233Y-72500312D01*
X197469332Y-72500312D01*
X197469832Y-72500312D01*
X197474938Y-72500312D01*
X197478996Y-72500445D01*
X197483995Y-72500772D01*
X197486490Y-72500312D01*
X204242227Y-72500312D01*
X204245704Y-72500410D01*
X204272303Y-72501903D01*
X204297411Y-72503312D01*
X204540962Y-72519267D01*
X204547257Y-72520006D01*
X204664387Y-72539905D01*
X204841813Y-72575197D01*
X204846815Y-72576413D01*
X204970723Y-72612109D01*
X204973372Y-72612940D01*
X205134578Y-72667662D01*
X205138346Y-72669080D01*
X205259591Y-72719300D01*
X205263271Y-72720969D01*
X205416078Y-72796326D01*
X205418622Y-72797655D01*
X205531152Y-72859847D01*
X205535603Y-72862558D01*
X205686589Y-72963445D01*
X205782835Y-73031735D01*
X205787830Y-73035680D01*
X205973160Y-73198216D01*
X206009808Y-73230966D01*
X206012336Y-73233356D01*
X209545700Y-76766720D01*
X209548073Y-76769231D01*
X209582420Y-76807667D01*
X209651571Y-76886524D01*
X209743581Y-76991449D01*
X209747526Y-76996444D01*
X209815878Y-77092778D01*
X209916695Y-77243662D01*
X209916741Y-77243730D01*
X209919455Y-77248187D01*
X209981589Y-77360611D01*
X209982931Y-77363179D01*
X210058366Y-77516145D01*
X210060040Y-77519841D01*
X210110156Y-77640829D01*
X210111586Y-77644627D01*
X210166409Y-77806126D01*
X210167276Y-77808892D01*
X210202838Y-77932324D01*
X210204070Y-77937394D01*
X210211009Y-77972275D01*
X210235862Y-78097212D01*
X210239487Y-78115434D01*
X210239556Y-78115838D01*
X210259276Y-78231900D01*
X210260020Y-78238234D01*
X210276061Y-78482905D01*
X210278902Y-78533472D01*
X210279000Y-78536951D01*
X210279000Y-101462531D01*
X210278902Y-101466011D01*
X210275953Y-101518499D01*
X210260100Y-101760853D01*
X210259356Y-101767197D01*
X210239102Y-101886381D01*
X210204273Y-102061473D01*
X210203041Y-102066544D01*
X210166875Y-102192069D01*
X210166008Y-102194835D01*
X210111958Y-102354050D01*
X210110529Y-102357847D01*
X210059645Y-102480690D01*
X210057970Y-102484387D01*
X209983549Y-102635287D01*
X209982207Y-102637855D01*
X209919107Y-102752023D01*
X209916392Y-102756481D01*
X209816964Y-102905276D01*
X209816924Y-102905335D01*
X209747247Y-103003532D01*
X209743292Y-103008539D01*
X209584503Y-103189587D01*
X209547746Y-103230719D01*
X209545356Y-103233247D01*
X206012602Y-106766000D01*
X206010074Y-106768391D01*
X205971708Y-106802675D01*
X205787830Y-106963913D01*
X205782828Y-106967864D01*
X205686628Y-107036121D01*
X205535548Y-107137067D01*
X205531092Y-107139781D01*
X205418705Y-107201894D01*
X205416137Y-107203236D01*
X205263214Y-107278650D01*
X205259516Y-107280325D01*
X205138385Y-107330497D01*
X205134589Y-107331926D01*
X204973398Y-107386645D01*
X204970630Y-107387513D01*
X204846819Y-107423180D01*
X204841750Y-107424412D01*
X204664583Y-107459656D01*
X204547177Y-107479602D01*
X204540845Y-107480346D01*
X204300003Y-107496137D01*
X204245203Y-107499214D01*
X204241726Y-107499312D01*
X197530874Y-107499312D01*
X197530833Y-107499300D01*
X197498372Y-107499300D01*
X197496354Y-107498707D01*
X197489340Y-107499167D01*
X197485286Y-107499300D01*
X197328244Y-107499300D01*
X197143616Y-107521718D01*
X197140196Y-107522037D01*
X197064833Y-107526974D01*
X197045937Y-107533579D01*
X197032909Y-107535161D01*
X197027946Y-107535764D01*
X196812046Y-107588978D01*
X196809305Y-107589588D01*
X196750317Y-107601321D01*
X196738769Y-107607039D01*
X196734234Y-107608157D01*
X196734227Y-107608159D01*
X196531979Y-107684862D01*
X196478730Y-107705057D01*
X196454491Y-107713284D01*
X196454702Y-107713686D01*
X196183526Y-107856010D01*
X196180324Y-107857947D01*
X196180282Y-107857878D01*
X196179136Y-107858551D01*
X196177345Y-107860278D01*
X196057859Y-107942754D01*
X195934572Y-108027853D01*
X195934569Y-108027855D01*
X195934564Y-108027859D01*
X195919602Y-108041114D01*
X195918893Y-108041660D01*
X195918659Y-108041950D01*
X195734433Y-108205162D01*
X195734430Y-108205162D01*
X195708144Y-108228452D01*
X195684854Y-108254739D01*
X195684854Y-108254741D01*
X195521636Y-108438977D01*
X195521424Y-108439109D01*
X195520797Y-108439923D01*
X195507546Y-108454881D01*
X195507543Y-108454885D01*
X195339967Y-108697661D01*
X195338684Y-108698699D01*
X195337579Y-108700581D01*
X195337648Y-108700623D01*
X195335710Y-108703828D01*
X195335707Y-108703834D01*
X195335704Y-108703839D01*
X195265170Y-108838232D01*
X195193382Y-108975013D01*
X195192980Y-108974802D01*
X195184760Y-108999018D01*
X195087858Y-109254531D01*
X195087853Y-109254549D01*
X195086738Y-109259073D01*
X195081543Y-109267993D01*
X195069290Y-109329596D01*
X195068680Y-109332338D01*
X195015462Y-109548249D01*
X195013276Y-109566257D01*
X195006949Y-109580954D01*
X195001735Y-109660513D01*
X195001416Y-109663932D01*
X194979000Y-109848556D01*
X194979000Y-110005384D01*
X194978867Y-110009440D01*
X194978543Y-110014384D01*
X194979000Y-110016853D01*
X194979000Y-110998376D01*
X194978915Y-111001622D01*
X194964515Y-111276379D01*
X194959755Y-111364161D01*
X194959083Y-111370507D01*
X194924992Y-111585750D01*
X194900996Y-111732118D01*
X194899700Y-111738138D01*
X194846373Y-111937157D01*
X194803461Y-112091709D01*
X194801602Y-112097343D01*
X194729548Y-112285053D01*
X194668266Y-112438858D01*
X194665911Y-112444060D01*
X194575857Y-112620803D01*
X194496942Y-112769650D01*
X194494161Y-112774378D01*
X194387026Y-112939352D01*
X194291456Y-113080306D01*
X194288321Y-113084532D01*
X194165210Y-113236563D01*
X194054117Y-113367350D01*
X194050702Y-113371054D01*
X193912918Y-113508839D01*
X193787649Y-113627499D01*
X193784029Y-113630671D01*
X193632979Y-113752990D01*
X193495060Y-113857832D01*
X193491307Y-113860472D01*
X193328596Y-113966140D01*
X193179669Y-114055745D01*
X193175851Y-114057863D01*
X193003186Y-114145840D01*
X192845078Y-114218988D01*
X192841264Y-114220601D01*
X192660460Y-114290006D01*
X192495046Y-114345739D01*
X192491296Y-114346872D01*
X192305660Y-114396614D01*
X192302941Y-114397277D01*
X192133549Y-114434562D01*
X192129919Y-114435248D01*
X191940230Y-114465293D01*
X191937234Y-114465693D01*
X191764733Y-114484453D01*
X191761274Y-114484731D01*
X191569523Y-114494782D01*
X191566278Y-114494867D01*
X191392723Y-114494867D01*
X191389477Y-114494782D01*
X191197724Y-114484731D01*
X191194265Y-114484453D01*
X191021764Y-114465693D01*
X191018768Y-114465293D01*
X190829079Y-114435248D01*
X190825449Y-114434562D01*
X190656057Y-114397277D01*
X190653338Y-114396614D01*
X190467702Y-114346872D01*
X190463951Y-114345739D01*
X190298539Y-114290006D01*
X190117735Y-114220601D01*
X190113919Y-114218988D01*
X189955813Y-114145840D01*
X189783147Y-114057863D01*
X189779329Y-114055745D01*
X189739612Y-114031848D01*
X189630387Y-113966129D01*
X189467692Y-113860472D01*
X189463937Y-113857831D01*
X189326020Y-113752990D01*
X189174970Y-113630671D01*
X189171349Y-113627499D01*
X189046081Y-113508839D01*
X188908296Y-113371054D01*
X188904881Y-113367350D01*
X188793789Y-113236563D01*
X188769006Y-113205959D01*
X188670674Y-113084529D01*
X188667542Y-113080306D01*
X188571973Y-112939352D01*
X188464830Y-112774367D01*
X188462056Y-112769650D01*
X188383142Y-112620803D01*
X188293082Y-112444050D01*
X188290743Y-112438885D01*
X188229447Y-112285042D01*
X188157396Y-112097344D01*
X188155546Y-112091738D01*
X188112639Y-111937203D01*
X188059292Y-111738111D01*
X188058011Y-111732165D01*
X188034027Y-111585874D01*
X187999911Y-111370469D01*
X187999245Y-111364179D01*
X187994485Y-111276379D01*
X187983551Y-111067763D01*
X189625287Y-111067763D01*
X189654913Y-111337013D01*
X189654915Y-111337024D01*
X189710163Y-111548350D01*
X189723428Y-111599088D01*
X189829370Y-111848390D01*
X189883509Y-111937099D01*
X189970479Y-112079605D01*
X189970486Y-112079615D01*
X190143753Y-112287819D01*
X190143759Y-112287824D01*
X190345498Y-112468582D01*
X190571410Y-112618044D01*
X190816676Y-112733020D01*
X190816683Y-112733022D01*
X190816685Y-112733023D01*
X191076057Y-112811057D01*
X191076064Y-112811058D01*
X191076069Y-112811060D01*
X191344061Y-112850500D01*
X191344066Y-112850500D01*
X191547136Y-112850500D01*
X191598633Y-112846730D01*
X191749656Y-112835677D01*
X191862258Y-112810593D01*
X192014046Y-112776782D01*
X192014048Y-112776781D01*
X192014053Y-112776780D01*
X192267058Y-112680014D01*
X192503277Y-112547441D01*
X192717677Y-112381888D01*
X192905686Y-112186881D01*
X193063299Y-111966579D01*
X193180748Y-111738139D01*
X193187149Y-111725690D01*
X193187151Y-111725684D01*
X193187156Y-111725675D01*
X193274618Y-111469305D01*
X193323819Y-111202933D01*
X193333712Y-110932235D01*
X193304086Y-110662982D01*
X193235572Y-110400912D01*
X193129630Y-110151610D01*
X192988518Y-109920390D01*
X192928740Y-109848559D01*
X192815246Y-109712180D01*
X192815240Y-109712175D01*
X192613502Y-109531418D01*
X192387592Y-109381957D01*
X192281745Y-109332338D01*
X192142324Y-109266980D01*
X192142319Y-109266978D01*
X192142314Y-109266976D01*
X191882942Y-109188942D01*
X191882928Y-109188939D01*
X191767291Y-109171921D01*
X191614939Y-109149500D01*
X191411869Y-109149500D01*
X191411864Y-109149500D01*
X191209344Y-109164323D01*
X191209331Y-109164325D01*
X190944953Y-109223217D01*
X190944946Y-109223220D01*
X190691939Y-109319987D01*
X190455726Y-109452557D01*
X190241322Y-109618112D01*
X190053322Y-109813109D01*
X190053316Y-109813116D01*
X189895702Y-110033419D01*
X189895699Y-110033424D01*
X189771850Y-110274309D01*
X189771843Y-110274327D01*
X189684384Y-110530685D01*
X189684381Y-110530699D01*
X189635181Y-110797068D01*
X189635180Y-110797075D01*
X189625287Y-111067763D01*
X187983551Y-111067763D01*
X187980084Y-111001621D01*
X187980000Y-110998377D01*
X187980000Y-110015197D01*
X187980416Y-110013780D01*
X187980133Y-110009464D01*
X187980000Y-110005406D01*
X187980000Y-109987946D01*
X187979988Y-109987819D01*
X187979988Y-109848558D01*
X187963429Y-109712180D01*
X187957562Y-109663860D01*
X187957247Y-109660480D01*
X187952305Y-109585120D01*
X187945711Y-109566253D01*
X187943527Y-109548261D01*
X187890297Y-109332299D01*
X187889693Y-109329579D01*
X187877965Y-109270620D01*
X187872247Y-109259063D01*
X187871134Y-109254547D01*
X187871132Y-109254542D01*
X187871130Y-109254535D01*
X187774220Y-108999000D01*
X187766008Y-108974807D01*
X187765607Y-108975018D01*
X187763863Y-108971695D01*
X187623286Y-108703845D01*
X187623280Y-108703837D01*
X187623279Y-108703834D01*
X187621342Y-108700629D01*
X187621409Y-108700588D01*
X187620740Y-108699447D01*
X187619014Y-108697655D01*
X187451448Y-108454894D01*
X187451445Y-108454889D01*
X187438173Y-108439908D01*
X187437636Y-108439212D01*
X187437353Y-108438983D01*
X187250848Y-108228461D01*
X187040328Y-108041956D01*
X187040198Y-108041747D01*
X187039389Y-108041123D01*
X187024421Y-108027863D01*
X186781650Y-107860289D01*
X186780608Y-107859004D01*
X186778710Y-107857889D01*
X186778670Y-107857957D01*
X186775467Y-107856020D01*
X186504293Y-107713697D01*
X186504503Y-107713296D01*
X186480278Y-107705072D01*
X186224770Y-107608171D01*
X186224758Y-107608167D01*
X186220233Y-107607052D01*
X186211316Y-107601859D01*
X186149716Y-107589606D01*
X186146974Y-107588996D01*
X186146901Y-107588978D01*
X185931051Y-107535775D01*
X185913059Y-107533590D01*
X185898362Y-107527264D01*
X185818817Y-107522051D01*
X185815399Y-107521732D01*
X185630755Y-107499312D01*
X185630752Y-107499312D01*
X185479599Y-107499312D01*
X185473906Y-107499312D01*
X185469850Y-107499179D01*
X185464888Y-107498854D01*
X185462407Y-107499312D01*
X165130874Y-107499312D01*
X165130833Y-107499300D01*
X165098372Y-107499300D01*
X165096354Y-107498707D01*
X165089340Y-107499167D01*
X165085286Y-107499300D01*
X164928244Y-107499300D01*
X164743616Y-107521718D01*
X164740196Y-107522037D01*
X164664833Y-107526974D01*
X164645937Y-107533579D01*
X164632909Y-107535161D01*
X164627946Y-107535764D01*
X164412046Y-107588978D01*
X164409305Y-107589588D01*
X164350317Y-107601321D01*
X164338769Y-107607039D01*
X164334234Y-107608157D01*
X164334227Y-107608159D01*
X164131979Y-107684862D01*
X164078730Y-107705057D01*
X164054491Y-107713284D01*
X164054702Y-107713686D01*
X163783526Y-107856010D01*
X163780324Y-107857947D01*
X163780282Y-107857878D01*
X163779136Y-107858551D01*
X163777345Y-107860278D01*
X163657859Y-107942754D01*
X163534572Y-108027853D01*
X163534569Y-108027855D01*
X163534564Y-108027859D01*
X163519602Y-108041114D01*
X163518893Y-108041660D01*
X163518659Y-108041950D01*
X163334433Y-108205162D01*
X163334430Y-108205162D01*
X163308144Y-108228452D01*
X163284854Y-108254739D01*
X163284854Y-108254741D01*
X163121636Y-108438977D01*
X163121424Y-108439109D01*
X163120797Y-108439923D01*
X163107546Y-108454881D01*
X163107543Y-108454885D01*
X162939967Y-108697661D01*
X162938684Y-108698699D01*
X162937579Y-108700581D01*
X162937648Y-108700623D01*
X162935710Y-108703828D01*
X162935707Y-108703834D01*
X162935704Y-108703839D01*
X162865170Y-108838232D01*
X162793382Y-108975013D01*
X162792980Y-108974802D01*
X162784760Y-108999018D01*
X162687858Y-109254531D01*
X162687853Y-109254549D01*
X162686738Y-109259073D01*
X162681543Y-109267993D01*
X162669290Y-109329596D01*
X162668680Y-109332338D01*
X162615462Y-109548249D01*
X162613276Y-109566257D01*
X162606949Y-109580954D01*
X162601735Y-109660513D01*
X162601416Y-109663932D01*
X162579000Y-109848556D01*
X162579000Y-110005384D01*
X162578867Y-110009440D01*
X162578543Y-110014384D01*
X162579000Y-110016853D01*
X162579000Y-110998376D01*
X162578915Y-111001622D01*
X162564515Y-111276379D01*
X162559755Y-111364161D01*
X162559083Y-111370507D01*
X162524992Y-111585750D01*
X162500996Y-111732118D01*
X162499700Y-111738138D01*
X162446373Y-111937157D01*
X162403461Y-112091709D01*
X162401602Y-112097343D01*
X162329548Y-112285053D01*
X162268266Y-112438858D01*
X162265911Y-112444060D01*
X162175857Y-112620803D01*
X162096942Y-112769650D01*
X162094161Y-112774378D01*
X161987026Y-112939352D01*
X161891456Y-113080306D01*
X161888321Y-113084532D01*
X161765210Y-113236563D01*
X161654117Y-113367350D01*
X161650702Y-113371054D01*
X161512918Y-113508839D01*
X161387649Y-113627499D01*
X161384029Y-113630671D01*
X161232979Y-113752990D01*
X161095060Y-113857832D01*
X161091307Y-113860472D01*
X160928596Y-113966140D01*
X160779669Y-114055745D01*
X160775851Y-114057863D01*
X160603186Y-114145840D01*
X160445078Y-114218988D01*
X160441264Y-114220601D01*
X160260460Y-114290006D01*
X160095046Y-114345739D01*
X160091296Y-114346872D01*
X159905660Y-114396614D01*
X159902941Y-114397277D01*
X159733549Y-114434562D01*
X159729919Y-114435248D01*
X159540230Y-114465293D01*
X159537234Y-114465693D01*
X159364733Y-114484453D01*
X159361274Y-114484731D01*
X159169523Y-114494782D01*
X159166278Y-114494867D01*
X158992723Y-114494867D01*
X158989477Y-114494782D01*
X158797724Y-114484731D01*
X158794265Y-114484453D01*
X158621764Y-114465693D01*
X158618768Y-114465293D01*
X158429079Y-114435248D01*
X158425449Y-114434562D01*
X158256057Y-114397277D01*
X158253338Y-114396614D01*
X158067702Y-114346872D01*
X158063951Y-114345739D01*
X157898539Y-114290006D01*
X157717735Y-114220601D01*
X157713919Y-114218988D01*
X157555813Y-114145840D01*
X157383147Y-114057863D01*
X157379329Y-114055745D01*
X157339612Y-114031848D01*
X157230387Y-113966129D01*
X157067692Y-113860472D01*
X157063937Y-113857831D01*
X156926020Y-113752990D01*
X156774970Y-113630671D01*
X156771349Y-113627499D01*
X156646081Y-113508839D01*
X156508296Y-113371054D01*
X156504881Y-113367350D01*
X156393789Y-113236563D01*
X156369006Y-113205959D01*
X156270674Y-113084529D01*
X156267542Y-113080306D01*
X156171973Y-112939352D01*
X156064830Y-112774367D01*
X156062056Y-112769650D01*
X155983142Y-112620803D01*
X155893082Y-112444050D01*
X155890743Y-112438885D01*
X155829447Y-112285042D01*
X155757396Y-112097344D01*
X155755546Y-112091738D01*
X155712639Y-111937203D01*
X155659292Y-111738111D01*
X155658011Y-111732165D01*
X155634027Y-111585874D01*
X155599911Y-111370469D01*
X155599245Y-111364179D01*
X155594485Y-111276379D01*
X155583551Y-111067763D01*
X157225287Y-111067763D01*
X157254913Y-111337013D01*
X157254915Y-111337024D01*
X157310163Y-111548350D01*
X157323428Y-111599088D01*
X157429370Y-111848390D01*
X157483509Y-111937099D01*
X157570479Y-112079605D01*
X157570486Y-112079615D01*
X157743753Y-112287819D01*
X157743759Y-112287824D01*
X157945498Y-112468582D01*
X158171410Y-112618044D01*
X158416676Y-112733020D01*
X158416683Y-112733022D01*
X158416685Y-112733023D01*
X158676057Y-112811057D01*
X158676064Y-112811058D01*
X158676069Y-112811060D01*
X158944061Y-112850500D01*
X158944066Y-112850500D01*
X159147136Y-112850500D01*
X159198633Y-112846730D01*
X159349656Y-112835677D01*
X159462258Y-112810593D01*
X159614046Y-112776782D01*
X159614048Y-112776781D01*
X159614053Y-112776780D01*
X159867058Y-112680014D01*
X160103277Y-112547441D01*
X160317677Y-112381888D01*
X160505686Y-112186881D01*
X160663299Y-111966579D01*
X160780748Y-111738139D01*
X160787149Y-111725690D01*
X160787151Y-111725684D01*
X160787156Y-111725675D01*
X160874618Y-111469305D01*
X160923819Y-111202933D01*
X160933712Y-110932235D01*
X160904086Y-110662982D01*
X160835572Y-110400912D01*
X160729630Y-110151610D01*
X160588518Y-109920390D01*
X160528740Y-109848559D01*
X160415246Y-109712180D01*
X160415240Y-109712175D01*
X160213502Y-109531418D01*
X159987592Y-109381957D01*
X159881745Y-109332338D01*
X159742324Y-109266980D01*
X159742319Y-109266978D01*
X159742314Y-109266976D01*
X159482942Y-109188942D01*
X159482928Y-109188939D01*
X159367291Y-109171921D01*
X159214939Y-109149500D01*
X159011869Y-109149500D01*
X159011864Y-109149500D01*
X158809344Y-109164323D01*
X158809331Y-109164325D01*
X158544953Y-109223217D01*
X158544946Y-109223220D01*
X158291939Y-109319987D01*
X158055726Y-109452557D01*
X157841322Y-109618112D01*
X157653322Y-109813109D01*
X157653316Y-109813116D01*
X157495702Y-110033419D01*
X157495699Y-110033424D01*
X157371850Y-110274309D01*
X157371843Y-110274327D01*
X157284384Y-110530685D01*
X157284381Y-110530699D01*
X157235181Y-110797068D01*
X157235180Y-110797075D01*
X157225287Y-111067763D01*
X155583551Y-111067763D01*
X155580084Y-111001621D01*
X155580000Y-110998377D01*
X155580000Y-110015197D01*
X155580416Y-110013780D01*
X155580133Y-110009464D01*
X155580000Y-110005406D01*
X155580000Y-109987946D01*
X155579988Y-109987819D01*
X155579988Y-109848558D01*
X155563429Y-109712180D01*
X155557562Y-109663860D01*
X155557247Y-109660480D01*
X155552305Y-109585120D01*
X155545711Y-109566253D01*
X155543527Y-109548261D01*
X155490297Y-109332299D01*
X155489693Y-109329579D01*
X155477965Y-109270620D01*
X155472247Y-109259063D01*
X155471134Y-109254547D01*
X155471132Y-109254542D01*
X155471130Y-109254535D01*
X155374220Y-108999000D01*
X155366008Y-108974807D01*
X155365607Y-108975018D01*
X155363863Y-108971695D01*
X155223286Y-108703845D01*
X155223280Y-108703837D01*
X155223279Y-108703834D01*
X155221342Y-108700629D01*
X155221409Y-108700588D01*
X155220740Y-108699447D01*
X155219014Y-108697655D01*
X155051448Y-108454894D01*
X155051445Y-108454889D01*
X155038173Y-108439908D01*
X155037636Y-108439212D01*
X155037353Y-108438983D01*
X154850848Y-108228461D01*
X154640328Y-108041956D01*
X154640198Y-108041747D01*
X154639389Y-108041123D01*
X154624421Y-108027863D01*
X154381650Y-107860289D01*
X154380608Y-107859004D01*
X154378710Y-107857889D01*
X154378670Y-107857957D01*
X154375467Y-107856020D01*
X154104293Y-107713697D01*
X154104503Y-107713296D01*
X154080278Y-107705072D01*
X153824770Y-107608171D01*
X153824758Y-107608167D01*
X153820233Y-107607052D01*
X153811316Y-107601859D01*
X153749716Y-107589606D01*
X153746974Y-107588996D01*
X153746901Y-107588978D01*
X153531051Y-107535775D01*
X153513059Y-107533590D01*
X153498362Y-107527264D01*
X153418817Y-107522051D01*
X153415399Y-107521732D01*
X153230755Y-107499312D01*
X153230752Y-107499312D01*
X153079599Y-107499312D01*
X153073906Y-107499312D01*
X153069850Y-107499179D01*
X153064888Y-107498854D01*
X153062407Y-107499312D01*
X146316776Y-107499312D01*
X146313298Y-107499214D01*
X146261227Y-107496290D01*
X146018256Y-107480391D01*
X146011915Y-107479647D01*
X145893868Y-107459591D01*
X145717445Y-107424497D01*
X145712376Y-107423265D01*
X145587985Y-107387431D01*
X145585218Y-107386563D01*
X145455841Y-107342646D01*
X145424655Y-107332059D01*
X145420868Y-107330634D01*
X145420537Y-107330497D01*
X145372823Y-107310733D01*
X145299222Y-107280248D01*
X145295523Y-107278572D01*
X145143146Y-107203424D01*
X145140579Y-107202082D01*
X145027762Y-107139733D01*
X145023302Y-107137017D01*
X144872506Y-107036251D01*
X144776165Y-106967896D01*
X144771157Y-106963941D01*
X144585373Y-106800999D01*
X144549259Y-106768727D01*
X144546731Y-106766336D01*
X142788389Y-105007994D01*
X142004998Y-104224602D01*
X177224451Y-104224602D01*
X177244616Y-104493699D01*
X177304664Y-104756786D01*
X177304666Y-104756793D01*
X177403257Y-105007996D01*
X177538185Y-105241700D01*
X177674080Y-105412107D01*
X177706442Y-105452687D01*
X177893183Y-105625956D01*
X177904259Y-105636233D01*
X178127226Y-105788249D01*
X178370359Y-105905336D01*
X178628228Y-105984878D01*
X178628229Y-105984878D01*
X178628232Y-105984879D01*
X178895063Y-106025097D01*
X178895068Y-106025097D01*
X178895071Y-106025098D01*
X178895072Y-106025098D01*
X179164928Y-106025098D01*
X179164929Y-106025098D01*
X179164936Y-106025097D01*
X179431767Y-105984879D01*
X179431768Y-105984878D01*
X179431772Y-105984878D01*
X179689641Y-105905336D01*
X179932775Y-105788249D01*
X180155741Y-105636233D01*
X180353561Y-105452683D01*
X180521815Y-105241700D01*
X180656743Y-105007996D01*
X180755334Y-104756793D01*
X180815383Y-104493701D01*
X180835549Y-104224602D01*
X201224451Y-104224602D01*
X201244616Y-104493699D01*
X201304664Y-104756786D01*
X201304666Y-104756793D01*
X201403257Y-105007996D01*
X201538185Y-105241700D01*
X201674080Y-105412107D01*
X201706442Y-105452687D01*
X201893183Y-105625956D01*
X201904259Y-105636233D01*
X202127226Y-105788249D01*
X202370359Y-105905336D01*
X202628228Y-105984878D01*
X202628229Y-105984878D01*
X202628232Y-105984879D01*
X202895063Y-106025097D01*
X202895068Y-106025097D01*
X202895071Y-106025098D01*
X202895072Y-106025098D01*
X203164928Y-106025098D01*
X203164929Y-106025098D01*
X203164936Y-106025097D01*
X203431767Y-105984879D01*
X203431768Y-105984878D01*
X203431772Y-105984878D01*
X203689641Y-105905336D01*
X203932775Y-105788249D01*
X204155741Y-105636233D01*
X204353561Y-105452683D01*
X204521815Y-105241700D01*
X204656743Y-105007996D01*
X204755334Y-104756793D01*
X204815383Y-104493701D01*
X204835549Y-104224598D01*
X204815383Y-103955495D01*
X204755334Y-103692403D01*
X204656743Y-103441200D01*
X204521815Y-103207496D01*
X204353561Y-102996513D01*
X204353560Y-102996512D01*
X204353557Y-102996508D01*
X204155741Y-102812963D01*
X204072897Y-102756481D01*
X203932775Y-102660947D01*
X203932769Y-102660944D01*
X203932768Y-102660943D01*
X203932767Y-102660942D01*
X203689643Y-102543861D01*
X203689645Y-102543861D01*
X203431773Y-102464318D01*
X203431767Y-102464316D01*
X203164936Y-102424098D01*
X203164929Y-102424098D01*
X202895071Y-102424098D01*
X202895063Y-102424098D01*
X202628232Y-102464316D01*
X202628226Y-102464318D01*
X202370358Y-102543860D01*
X202127230Y-102660944D01*
X201904258Y-102812963D01*
X201706442Y-102996508D01*
X201538185Y-103207496D01*
X201403258Y-103441197D01*
X201403256Y-103441201D01*
X201304666Y-103692402D01*
X201304664Y-103692409D01*
X201244616Y-103955496D01*
X201224451Y-104224593D01*
X201224451Y-104224602D01*
X180835549Y-104224602D01*
X180835549Y-104224598D01*
X180815383Y-103955495D01*
X180755334Y-103692403D01*
X180656743Y-103441200D01*
X180521815Y-103207496D01*
X180353561Y-102996513D01*
X180353560Y-102996512D01*
X180353557Y-102996508D01*
X180155741Y-102812963D01*
X180072897Y-102756481D01*
X179932775Y-102660947D01*
X179932769Y-102660944D01*
X179932768Y-102660943D01*
X179932767Y-102660942D01*
X179689643Y-102543861D01*
X179689645Y-102543861D01*
X179431773Y-102464318D01*
X179431767Y-102464316D01*
X179164936Y-102424098D01*
X179164929Y-102424098D01*
X178895071Y-102424098D01*
X178895063Y-102424098D01*
X178628232Y-102464316D01*
X178628226Y-102464318D01*
X178370358Y-102543860D01*
X178127230Y-102660944D01*
X177904258Y-102812963D01*
X177706442Y-102996508D01*
X177538185Y-103207496D01*
X177403258Y-103441197D01*
X177403256Y-103441201D01*
X177304666Y-103692402D01*
X177304664Y-103692409D01*
X177244616Y-103955496D01*
X177224451Y-104224593D01*
X177224451Y-104224602D01*
X142004998Y-104224602D01*
X141656583Y-103876187D01*
X145579416Y-103876187D01*
X145579459Y-103900299D01*
X145579500Y-103900397D01*
X145579616Y-103900680D01*
X145579618Y-103900682D01*
X145579808Y-103900760D01*
X145580000Y-103900839D01*
X145580002Y-103900837D01*
X145604616Y-103900822D01*
X145604616Y-103900826D01*
X145604760Y-103900798D01*
X164955240Y-103900798D01*
X164955383Y-103900826D01*
X164955384Y-103900822D01*
X164979997Y-103900837D01*
X164980000Y-103900839D01*
X164980383Y-103900681D01*
X164980500Y-103900397D01*
X164980541Y-103900298D01*
X164980540Y-103900295D01*
X164980583Y-103876187D01*
X164980500Y-103875765D01*
X164980500Y-101224602D01*
X170724451Y-101224602D01*
X170744616Y-101493699D01*
X170750395Y-101519018D01*
X170804666Y-101756793D01*
X170903257Y-102007996D01*
X171038185Y-102241700D01*
X171128638Y-102355124D01*
X171206442Y-102452687D01*
X171309983Y-102548758D01*
X171404259Y-102636233D01*
X171627226Y-102788249D01*
X171870359Y-102905336D01*
X172128228Y-102984878D01*
X172128229Y-102984878D01*
X172128232Y-102984879D01*
X172395063Y-103025097D01*
X172395068Y-103025097D01*
X172395071Y-103025098D01*
X172395072Y-103025098D01*
X172664928Y-103025098D01*
X172664929Y-103025098D01*
X172664936Y-103025097D01*
X172931767Y-102984879D01*
X172931768Y-102984878D01*
X172931772Y-102984878D01*
X173189641Y-102905336D01*
X173432775Y-102788249D01*
X173655741Y-102636233D01*
X173824496Y-102479651D01*
X173853557Y-102452687D01*
X173853557Y-102452685D01*
X173853561Y-102452683D01*
X174021815Y-102241700D01*
X174156743Y-102007996D01*
X174255334Y-101756793D01*
X174315383Y-101493701D01*
X174335549Y-101224602D01*
X194724451Y-101224602D01*
X194744616Y-101493699D01*
X194750395Y-101519018D01*
X194804666Y-101756793D01*
X194903257Y-102007996D01*
X195038185Y-102241700D01*
X195128638Y-102355124D01*
X195206442Y-102452687D01*
X195309983Y-102548758D01*
X195404259Y-102636233D01*
X195627226Y-102788249D01*
X195870359Y-102905336D01*
X196128228Y-102984878D01*
X196128229Y-102984878D01*
X196128232Y-102984879D01*
X196395063Y-103025097D01*
X196395068Y-103025097D01*
X196395071Y-103025098D01*
X196395072Y-103025098D01*
X196664928Y-103025098D01*
X196664929Y-103025098D01*
X196664936Y-103025097D01*
X196931767Y-102984879D01*
X196931768Y-102984878D01*
X196931772Y-102984878D01*
X197189641Y-102905336D01*
X197432775Y-102788249D01*
X197655741Y-102636233D01*
X197824496Y-102479651D01*
X197853557Y-102452687D01*
X197853557Y-102452685D01*
X197853561Y-102452683D01*
X198021815Y-102241700D01*
X198156743Y-102007996D01*
X198255334Y-101756793D01*
X198315383Y-101493701D01*
X198335549Y-101224598D01*
X198315383Y-100955495D01*
X198255334Y-100692403D01*
X198156743Y-100441200D01*
X198021815Y-100207496D01*
X197853561Y-99996513D01*
X197853560Y-99996512D01*
X197853557Y-99996508D01*
X197655741Y-99812963D01*
X197655741Y-99812962D01*
X197432775Y-99660947D01*
X197432769Y-99660944D01*
X197432768Y-99660943D01*
X197432767Y-99660942D01*
X197189643Y-99543861D01*
X197189645Y-99543861D01*
X196931773Y-99464318D01*
X196931767Y-99464316D01*
X196664936Y-99424098D01*
X196664929Y-99424098D01*
X196395071Y-99424098D01*
X196395063Y-99424098D01*
X196128232Y-99464316D01*
X196128226Y-99464318D01*
X195870358Y-99543860D01*
X195627230Y-99660944D01*
X195404258Y-99812963D01*
X195206442Y-99996508D01*
X195038185Y-100207496D01*
X194903258Y-100441197D01*
X194903256Y-100441201D01*
X194804666Y-100692402D01*
X194804664Y-100692409D01*
X194744616Y-100955496D01*
X194724451Y-101224593D01*
X194724451Y-101224602D01*
X174335549Y-101224602D01*
X174335549Y-101224598D01*
X174315383Y-100955495D01*
X174255334Y-100692403D01*
X174156743Y-100441200D01*
X174021815Y-100207496D01*
X173853561Y-99996513D01*
X173853560Y-99996512D01*
X173853557Y-99996508D01*
X173655741Y-99812963D01*
X173655741Y-99812962D01*
X173432775Y-99660947D01*
X173432769Y-99660944D01*
X173432768Y-99660943D01*
X173432767Y-99660942D01*
X173189643Y-99543861D01*
X173189645Y-99543861D01*
X172931773Y-99464318D01*
X172931767Y-99464316D01*
X172664936Y-99424098D01*
X172664929Y-99424098D01*
X172395071Y-99424098D01*
X172395063Y-99424098D01*
X172128232Y-99464316D01*
X172128226Y-99464318D01*
X171870358Y-99543860D01*
X171627230Y-99660944D01*
X171404258Y-99812963D01*
X171206442Y-99996508D01*
X171038185Y-100207496D01*
X170903258Y-100441197D01*
X170903256Y-100441201D01*
X170804666Y-100692402D01*
X170804664Y-100692409D01*
X170744616Y-100955496D01*
X170724451Y-101224593D01*
X170724451Y-101224602D01*
X164980500Y-101224602D01*
X164980500Y-90925057D01*
X164980528Y-90924914D01*
X164980524Y-90924914D01*
X164980539Y-90900300D01*
X164980541Y-90900298D01*
X164980462Y-90900106D01*
X164980384Y-90899916D01*
X164980382Y-90899914D01*
X164980099Y-90899798D01*
X164980000Y-90899757D01*
X164955446Y-90899757D01*
X164955240Y-90899798D01*
X145604760Y-90899798D01*
X145604554Y-90899757D01*
X145580000Y-90899757D01*
X145579901Y-90899798D01*
X145579617Y-90899914D01*
X145579615Y-90899916D01*
X145579459Y-90900297D01*
X145579476Y-90924914D01*
X145579471Y-90924914D01*
X145579500Y-90925057D01*
X145579500Y-103875765D01*
X145579416Y-103876187D01*
X141656583Y-103876187D01*
X141013306Y-103232910D01*
X141010935Y-103230401D01*
X140976778Y-103192180D01*
X140815324Y-103008046D01*
X140811377Y-103003048D01*
X140806740Y-102996513D01*
X140743428Y-102907281D01*
X140742127Y-102905334D01*
X140642174Y-102755743D01*
X140639460Y-102751286D01*
X140577535Y-102639239D01*
X140576193Y-102636672D01*
X140565507Y-102615003D01*
X140500577Y-102483343D01*
X140498914Y-102479673D01*
X140448870Y-102358851D01*
X140447466Y-102355124D01*
X140392578Y-102193438D01*
X140391731Y-102190737D01*
X140356159Y-102067260D01*
X140354929Y-102062199D01*
X140319575Y-101884478D01*
X140313393Y-101848097D01*
X140299714Y-101767585D01*
X140298976Y-101761301D01*
X140283093Y-101519091D01*
X140280098Y-101465735D01*
X140280000Y-101462259D01*
X140280000Y-90029247D01*
X140280000Y-87724598D01*
X145644592Y-87724598D01*
X145664201Y-88011278D01*
X145722666Y-88292632D01*
X145722667Y-88292635D01*
X145818894Y-88563391D01*
X145818893Y-88563391D01*
X145951098Y-88818533D01*
X146116812Y-89053298D01*
X146201923Y-89144428D01*
X146312947Y-89263306D01*
X146535852Y-89444653D01*
X146535853Y-89444653D01*
X146781382Y-89593963D01*
X146968237Y-89675124D01*
X147044942Y-89708442D01*
X147321642Y-89785969D01*
X147567253Y-89819728D01*
X147606321Y-89825098D01*
X147606322Y-89825098D01*
X147893679Y-89825098D01*
X147932747Y-89819728D01*
X148178358Y-89785969D01*
X148455058Y-89708442D01*
X148568015Y-89659377D01*
X148718617Y-89593963D01*
X148718620Y-89593961D01*
X148718625Y-89593959D01*
X148964147Y-89444653D01*
X149187053Y-89263306D01*
X149383189Y-89053296D01*
X149548901Y-88818534D01*
X149681104Y-88563395D01*
X149777334Y-88292630D01*
X149835798Y-88011284D01*
X149855408Y-87724598D01*
X149835798Y-87437912D01*
X149796812Y-87250299D01*
X151634532Y-87250299D01*
X151654364Y-87476984D01*
X151654366Y-87476995D01*
X151713258Y-87696786D01*
X151713261Y-87696795D01*
X151809431Y-87903030D01*
X151809432Y-87903032D01*
X151939954Y-88089439D01*
X152100858Y-88250343D01*
X152100861Y-88250345D01*
X152287266Y-88380866D01*
X152493504Y-88477037D01*
X152713308Y-88535933D01*
X152875230Y-88550099D01*
X152939998Y-88555766D01*
X152940000Y-88555766D01*
X152940002Y-88555766D01*
X152996673Y-88550807D01*
X153166692Y-88535933D01*
X153386496Y-88477037D01*
X153592734Y-88380866D01*
X153779139Y-88250345D01*
X153940047Y-88089437D01*
X154070568Y-87903032D01*
X154166739Y-87696794D01*
X154225635Y-87476990D01*
X154242972Y-87278830D01*
X154245468Y-87250299D01*
X154245468Y-87250296D01*
X154239241Y-87179128D01*
X154225635Y-87023606D01*
X154219389Y-87000297D01*
X159281127Y-87000297D01*
X159281128Y-87000298D01*
X160244314Y-87000298D01*
X160232359Y-87012253D01*
X160174835Y-87125150D01*
X160155014Y-87250298D01*
X160174835Y-87375446D01*
X160232359Y-87488343D01*
X160244314Y-87500298D01*
X159281128Y-87500298D01*
X159333730Y-87696615D01*
X159333734Y-87696624D01*
X159429865Y-87902780D01*
X159560342Y-88089118D01*
X159721179Y-88249955D01*
X159907517Y-88380432D01*
X160113673Y-88476563D01*
X160113682Y-88476567D01*
X160309999Y-88529170D01*
X160310000Y-88529169D01*
X160310000Y-87565984D01*
X160321955Y-87577939D01*
X160434852Y-87635463D01*
X160528519Y-87650298D01*
X160591481Y-87650298D01*
X160685148Y-87635463D01*
X160798045Y-87577939D01*
X160810000Y-87565984D01*
X160810000Y-88529170D01*
X161006317Y-88476567D01*
X161006326Y-88476563D01*
X161212482Y-88380432D01*
X161398820Y-88249955D01*
X161559657Y-88089118D01*
X161690134Y-87902780D01*
X161786265Y-87696624D01*
X161786269Y-87696615D01*
X161838872Y-87500298D01*
X160875686Y-87500298D01*
X160887641Y-87488343D01*
X160945165Y-87375446D01*
X160964986Y-87250298D01*
X160945165Y-87125150D01*
X160887641Y-87012253D01*
X160875686Y-87000298D01*
X161838872Y-87000298D01*
X161838872Y-87000297D01*
X161786269Y-86803980D01*
X161786265Y-86803971D01*
X161690134Y-86597815D01*
X161559657Y-86411477D01*
X161398820Y-86250640D01*
X161212482Y-86120163D01*
X161006328Y-86024032D01*
X160810000Y-85971425D01*
X160810000Y-86934612D01*
X160798045Y-86922657D01*
X160685148Y-86865133D01*
X160591481Y-86850298D01*
X160528519Y-86850298D01*
X160434852Y-86865133D01*
X160321955Y-86922657D01*
X160310000Y-86934611D01*
X160310000Y-85971425D01*
X160113671Y-86024032D01*
X159907517Y-86120163D01*
X159721179Y-86250640D01*
X159560342Y-86411477D01*
X159429865Y-86597815D01*
X159333734Y-86803971D01*
X159333730Y-86803980D01*
X159281127Y-87000297D01*
X154219389Y-87000297D01*
X154166739Y-86803802D01*
X154070568Y-86597564D01*
X154005307Y-86504361D01*
X153940048Y-86411160D01*
X153924785Y-86395897D01*
X153779139Y-86250251D01*
X153753103Y-86232020D01*
X153743375Y-86225208D01*
X153699751Y-86170630D01*
X153690500Y-86123634D01*
X153690500Y-85126960D01*
X153710185Y-85059921D01*
X153743379Y-85025384D01*
X153779140Y-85000344D01*
X153940045Y-84839439D01*
X153940047Y-84839437D01*
X154070568Y-84653032D01*
X154166739Y-84446794D01*
X154225635Y-84226990D01*
X154245468Y-84000299D01*
X159254532Y-84000299D01*
X159274364Y-84226984D01*
X159274366Y-84226995D01*
X159333258Y-84446786D01*
X159333261Y-84446795D01*
X159429431Y-84653030D01*
X159429432Y-84653032D01*
X159559954Y-84839439D01*
X159720858Y-85000343D01*
X159720861Y-85000345D01*
X159907266Y-85130866D01*
X160113504Y-85227037D01*
X160333308Y-85285933D01*
X160487008Y-85299380D01*
X160559998Y-85305766D01*
X160560000Y-85305766D01*
X160560002Y-85305766D01*
X160632992Y-85299380D01*
X160786692Y-85285933D01*
X161006496Y-85227037D01*
X161212734Y-85130866D01*
X161399139Y-85000345D01*
X161560047Y-84839437D01*
X161585086Y-84803675D01*
X161639665Y-84760050D01*
X161686663Y-84750798D01*
X163395537Y-84750798D01*
X163462576Y-84770483D01*
X163483218Y-84787117D01*
X165929433Y-87233332D01*
X168317922Y-89621820D01*
X168351407Y-89683143D01*
X168346423Y-89752835D01*
X168304551Y-89808768D01*
X168291667Y-89816510D01*
X168291961Y-89817019D01*
X168287268Y-89819728D01*
X168100858Y-89950252D01*
X167939954Y-90111156D01*
X167809432Y-90297563D01*
X167809431Y-90297565D01*
X167713261Y-90503800D01*
X167713258Y-90503809D01*
X167654366Y-90723600D01*
X167654364Y-90723611D01*
X167634532Y-90950296D01*
X167634532Y-90950299D01*
X167654364Y-91176984D01*
X167654366Y-91176995D01*
X167713258Y-91396786D01*
X167713261Y-91396795D01*
X167809431Y-91603030D01*
X167809432Y-91603032D01*
X167939954Y-91789439D01*
X168100858Y-91950343D01*
X168100861Y-91950345D01*
X168287266Y-92080866D01*
X168493504Y-92177037D01*
X168713308Y-92235933D01*
X168875230Y-92250099D01*
X168939998Y-92255766D01*
X168940000Y-92255766D01*
X168940002Y-92255766D01*
X168996672Y-92250807D01*
X169166692Y-92235933D01*
X169283408Y-92204659D01*
X169353256Y-92206322D01*
X169411119Y-92245484D01*
X169438623Y-92309713D01*
X169439500Y-92324434D01*
X169439500Y-92588067D01*
X169419815Y-92655106D01*
X169403181Y-92675748D01*
X169205348Y-92873580D01*
X169144025Y-92907065D01*
X169106861Y-92909427D01*
X168940003Y-92894830D01*
X168939998Y-92894830D01*
X168713313Y-92914662D01*
X168713302Y-92914664D01*
X168493511Y-92973556D01*
X168493502Y-92973559D01*
X168287267Y-93069729D01*
X168287265Y-93069730D01*
X168100858Y-93200252D01*
X167939954Y-93361156D01*
X167809432Y-93547563D01*
X167809431Y-93547565D01*
X167713261Y-93753800D01*
X167713258Y-93753809D01*
X167654366Y-93973600D01*
X167654364Y-93973611D01*
X167634532Y-94200296D01*
X167634532Y-94200299D01*
X167654364Y-94426984D01*
X167654366Y-94426995D01*
X167713258Y-94646786D01*
X167713261Y-94646795D01*
X167809431Y-94853030D01*
X167809432Y-94853032D01*
X167939954Y-95039439D01*
X168100858Y-95200343D01*
X168100861Y-95200345D01*
X168287266Y-95330866D01*
X168493504Y-95427037D01*
X168713308Y-95485933D01*
X168875230Y-95500099D01*
X168939998Y-95505766D01*
X168940000Y-95505766D01*
X168940002Y-95505766D01*
X168996672Y-95500807D01*
X169166692Y-95485933D01*
X169386496Y-95427037D01*
X169592734Y-95330866D01*
X169779139Y-95200345D01*
X169940047Y-95039437D01*
X170070568Y-94853032D01*
X170166739Y-94646794D01*
X170225635Y-94426990D01*
X170245468Y-94200298D01*
X170230869Y-94033435D01*
X170244635Y-93964937D01*
X170266713Y-93934951D01*
X170675642Y-93526022D01*
X170689271Y-93514245D01*
X170708530Y-93499908D01*
X170729767Y-93474598D01*
X170742101Y-93459899D01*
X170745761Y-93455904D01*
X170751590Y-93450076D01*
X170771941Y-93424337D01*
X170792740Y-93399550D01*
X170821302Y-93365512D01*
X170821306Y-93365503D01*
X170825274Y-93359473D01*
X170825325Y-93359506D01*
X170829372Y-93353154D01*
X170829320Y-93353122D01*
X170833112Y-93346973D01*
X170865575Y-93277356D01*
X170893207Y-93222336D01*
X170900040Y-93208731D01*
X170900042Y-93208719D01*
X170902509Y-93201944D01*
X170902567Y-93201965D01*
X170905043Y-93194844D01*
X170904986Y-93194826D01*
X170907257Y-93187971D01*
X170922792Y-93112732D01*
X170940498Y-93038026D01*
X170940500Y-93038019D01*
X170940500Y-93038008D01*
X170941338Y-93030846D01*
X170941398Y-93030853D01*
X170942164Y-93023353D01*
X170942105Y-93023348D01*
X170942734Y-93016158D01*
X170941494Y-92973559D01*
X170940500Y-92939381D01*
X170940500Y-90496236D01*
X170941809Y-90478266D01*
X170945289Y-90454505D01*
X170940736Y-90402470D01*
X170940500Y-90397063D01*
X170940500Y-90388827D01*
X170940500Y-90388822D01*
X170936691Y-90356236D01*
X170929998Y-90279734D01*
X170929995Y-90279725D01*
X170928538Y-90272666D01*
X170928598Y-90272653D01*
X170926966Y-90265295D01*
X170926908Y-90265309D01*
X170925241Y-90258278D01*
X170925241Y-90258276D01*
X170898969Y-90186094D01*
X170874814Y-90113197D01*
X170871762Y-90106652D01*
X170871815Y-90106626D01*
X170868531Y-90099842D01*
X170868479Y-90099869D01*
X170865236Y-90093413D01*
X170823034Y-90029247D01*
X170782714Y-89963878D01*
X170778234Y-89958212D01*
X170778280Y-89958174D01*
X170773519Y-89952330D01*
X170773474Y-89952369D01*
X170768834Y-89946839D01*
X170712982Y-89894144D01*
X164333496Y-83514659D01*
X164321716Y-83501028D01*
X164307377Y-83481768D01*
X164299666Y-83475298D01*
X164267357Y-83448187D01*
X164263365Y-83444528D01*
X164257548Y-83438711D01*
X164257544Y-83438707D01*
X164231807Y-83418357D01*
X164172981Y-83368996D01*
X164172980Y-83368995D01*
X164172976Y-83368992D01*
X164166947Y-83365027D01*
X164166979Y-83364978D01*
X164160620Y-83360926D01*
X164160589Y-83360977D01*
X164154447Y-83357189D01*
X164154445Y-83357188D01*
X164154444Y-83357187D01*
X164115241Y-83338906D01*
X164084825Y-83324722D01*
X164050661Y-83307565D01*
X164016200Y-83290258D01*
X164016198Y-83290257D01*
X164016197Y-83290257D01*
X164009412Y-83287787D01*
X164009432Y-83287731D01*
X164002316Y-83285257D01*
X164002298Y-83285313D01*
X163995438Y-83283040D01*
X163967608Y-83277294D01*
X163920201Y-83267505D01*
X163871239Y-83255901D01*
X163845486Y-83249797D01*
X163838314Y-83248959D01*
X163838320Y-83248899D01*
X163830822Y-83248133D01*
X163830817Y-83248193D01*
X163823627Y-83247563D01*
X163746850Y-83249798D01*
X161686663Y-83249798D01*
X161619624Y-83230113D01*
X161585088Y-83196921D01*
X161560045Y-83161156D01*
X161399141Y-83000252D01*
X161212734Y-82869730D01*
X161212732Y-82869729D01*
X161006497Y-82773559D01*
X161006488Y-82773556D01*
X160786697Y-82714664D01*
X160786693Y-82714663D01*
X160786692Y-82714663D01*
X160786691Y-82714662D01*
X160786686Y-82714662D01*
X160685780Y-82705834D01*
X168397289Y-82705834D01*
X168402340Y-82930876D01*
X168447490Y-83151386D01*
X168447494Y-83151399D01*
X168531292Y-83360306D01*
X168651051Y-83550902D01*
X168802911Y-83717043D01*
X168802914Y-83717046D01*
X168982005Y-83853406D01*
X169182565Y-83955597D01*
X169398149Y-84020334D01*
X169621827Y-84045536D01*
X169621829Y-84045535D01*
X169621831Y-84045536D01*
X169721642Y-84038806D01*
X169846412Y-84030394D01*
X170064683Y-83975394D01*
X170064894Y-83975298D01*
X171775001Y-83975298D01*
X171775001Y-83998620D01*
X171785144Y-84097905D01*
X171838452Y-84258779D01*
X171838457Y-84258790D01*
X171927424Y-84403026D01*
X171927427Y-84403030D01*
X172047267Y-84522870D01*
X172047271Y-84522873D01*
X172191507Y-84611840D01*
X172191518Y-84611845D01*
X172352393Y-84665153D01*
X172451683Y-84675297D01*
X172499999Y-84675296D01*
X172500000Y-84675296D01*
X172500000Y-83975298D01*
X173000000Y-83975298D01*
X173000000Y-84675297D01*
X173048308Y-84675297D01*
X173048322Y-84675296D01*
X173147607Y-84665153D01*
X173308481Y-84611845D01*
X173308492Y-84611840D01*
X173452728Y-84522873D01*
X173452732Y-84522870D01*
X173572572Y-84403030D01*
X173572575Y-84403026D01*
X173661542Y-84258790D01*
X173661547Y-84258779D01*
X173714855Y-84097904D01*
X173724999Y-83998620D01*
X173725000Y-83998607D01*
X173725000Y-83975298D01*
X173000000Y-83975298D01*
X172500000Y-83975298D01*
X171775001Y-83975298D01*
X170064894Y-83975298D01*
X170269626Y-83882305D01*
X170454654Y-83754118D01*
X170746655Y-83462116D01*
X170807978Y-83428632D01*
X170834336Y-83425798D01*
X171674138Y-83425798D01*
X171741177Y-83445483D01*
X171761819Y-83462117D01*
X171775000Y-83475298D01*
X173724999Y-83475298D01*
X173724999Y-83451990D01*
X173724998Y-83451975D01*
X173714855Y-83352690D01*
X173661547Y-83191816D01*
X173661544Y-83191809D01*
X173651708Y-83175863D01*
X173633267Y-83108470D01*
X173654189Y-83041807D01*
X173667614Y-83025080D01*
X173731632Y-82958123D01*
X173855635Y-82770266D01*
X173879402Y-82714662D01*
X173944100Y-82563293D01*
X173944099Y-82563293D01*
X173944103Y-82563286D01*
X173994191Y-82343835D01*
X174004290Y-82118968D01*
X173974075Y-81895911D01*
X173904517Y-81681834D01*
X173797852Y-81483617D01*
X173657508Y-81307632D01*
X173487996Y-81159533D01*
X173294764Y-81044083D01*
X173151196Y-80990201D01*
X173084023Y-80964990D01*
X172862550Y-80924798D01*
X172862547Y-80924798D01*
X170338697Y-80924798D01*
X170331758Y-80924408D01*
X170304907Y-80921383D01*
X170293174Y-80920061D01*
X170293168Y-80920060D01*
X170247704Y-80923126D01*
X170224976Y-80924658D01*
X170220823Y-80924798D01*
X170208840Y-80924798D01*
X170166857Y-80928576D01*
X170068589Y-80935201D01*
X170064348Y-80936270D01*
X170045175Y-80939528D01*
X170040812Y-80939920D01*
X170040806Y-80939922D01*
X169945844Y-80966130D01*
X169850315Y-80990201D01*
X169850312Y-80990202D01*
X169846319Y-80992016D01*
X169828059Y-80998636D01*
X169823850Y-80999798D01*
X169823835Y-80999803D01*
X169823830Y-80999805D01*
X169812038Y-81005483D01*
X169735070Y-81042548D01*
X169645375Y-81083289D01*
X169641775Y-81085784D01*
X169624971Y-81095569D01*
X169621034Y-81097465D01*
X169621019Y-81097474D01*
X169583005Y-81125093D01*
X169541335Y-81155368D01*
X169518083Y-81171477D01*
X169460346Y-81211476D01*
X169457237Y-81214585D01*
X169442466Y-81227200D01*
X169438928Y-81229770D01*
X169438921Y-81229776D01*
X169370865Y-81300957D01*
X168726059Y-81945764D01*
X168617932Y-82075278D01*
X168617928Y-82075284D01*
X168506847Y-82271052D01*
X168432502Y-82483511D01*
X168432501Y-82483514D01*
X168397289Y-82705834D01*
X160685780Y-82705834D01*
X160560002Y-82694830D01*
X160559998Y-82694830D01*
X160333313Y-82714662D01*
X160333302Y-82714664D01*
X160113511Y-82773556D01*
X160113502Y-82773559D01*
X159907267Y-82869729D01*
X159907265Y-82869730D01*
X159720858Y-83000252D01*
X159559954Y-83161156D01*
X159429432Y-83347563D01*
X159429431Y-83347565D01*
X159333261Y-83553800D01*
X159333258Y-83553809D01*
X159274366Y-83773600D01*
X159274364Y-83773611D01*
X159254532Y-84000296D01*
X159254532Y-84000299D01*
X154245468Y-84000299D01*
X154245468Y-84000298D01*
X154225635Y-83773606D01*
X154166739Y-83553802D01*
X154070568Y-83347564D01*
X153940047Y-83161159D01*
X153940045Y-83161156D01*
X153779141Y-83000252D01*
X153592734Y-82869730D01*
X153592732Y-82869729D01*
X153386497Y-82773559D01*
X153386488Y-82773556D01*
X153166697Y-82714664D01*
X153166693Y-82714663D01*
X153166692Y-82714663D01*
X153166691Y-82714662D01*
X153166686Y-82714662D01*
X152940002Y-82694830D01*
X152939998Y-82694830D01*
X152713313Y-82714662D01*
X152713302Y-82714664D01*
X152493511Y-82773556D01*
X152493502Y-82773559D01*
X152287267Y-82869729D01*
X152287265Y-82869730D01*
X152100858Y-83000252D01*
X151939954Y-83161156D01*
X151809432Y-83347563D01*
X151809431Y-83347565D01*
X151713261Y-83553800D01*
X151713258Y-83553809D01*
X151654366Y-83773600D01*
X151654364Y-83773611D01*
X151634532Y-84000296D01*
X151634532Y-84000299D01*
X151654364Y-84226984D01*
X151654366Y-84226995D01*
X151713258Y-84446786D01*
X151713261Y-84446795D01*
X151809431Y-84653030D01*
X151809432Y-84653032D01*
X151939954Y-84839439D01*
X152100859Y-85000344D01*
X152136621Y-85025384D01*
X152180247Y-85079960D01*
X152189500Y-85126960D01*
X152189500Y-86123634D01*
X152169815Y-86190673D01*
X152136625Y-86225208D01*
X152100863Y-86250249D01*
X151939951Y-86411160D01*
X151809432Y-86597563D01*
X151809431Y-86597565D01*
X151713261Y-86803800D01*
X151713258Y-86803809D01*
X151654366Y-87023600D01*
X151654364Y-87023611D01*
X151634532Y-87250296D01*
X151634532Y-87250299D01*
X149796812Y-87250299D01*
X149777334Y-87156566D01*
X149765504Y-87123281D01*
X149681105Y-86885804D01*
X149681106Y-86885804D01*
X149548901Y-86630662D01*
X149383187Y-86395897D01*
X149230135Y-86232020D01*
X149187053Y-86185890D01*
X148964147Y-86004543D01*
X148964146Y-86004542D01*
X148718617Y-85855232D01*
X148455063Y-85740756D01*
X148455061Y-85740755D01*
X148455058Y-85740754D01*
X148308883Y-85699798D01*
X148178364Y-85663228D01*
X148178359Y-85663227D01*
X148178358Y-85663227D01*
X147990165Y-85637360D01*
X147893679Y-85624098D01*
X147893678Y-85624098D01*
X147606322Y-85624098D01*
X147606321Y-85624098D01*
X147321642Y-85663227D01*
X147321635Y-85663228D01*
X147120778Y-85719506D01*
X147044942Y-85740754D01*
X147044939Y-85740754D01*
X147044936Y-85740756D01*
X147044935Y-85740756D01*
X146781382Y-85855232D01*
X146535853Y-86004542D01*
X146312950Y-86185887D01*
X146116812Y-86395897D01*
X145951098Y-86630662D01*
X145818894Y-86885804D01*
X145722667Y-87156560D01*
X145722666Y-87156563D01*
X145664201Y-87437917D01*
X145644592Y-87724598D01*
X140280000Y-87724598D01*
X140280000Y-80774599D01*
X143222774Y-80774599D01*
X143241652Y-81038558D01*
X143297900Y-81297126D01*
X143390384Y-81545085D01*
X143517201Y-81777333D01*
X143517206Y-81777341D01*
X143604538Y-81894004D01*
X143604539Y-81894004D01*
X144326266Y-81172277D01*
X144369816Y-81254420D01*
X144489509Y-81395333D01*
X144636695Y-81507221D01*
X144678902Y-81526748D01*
X143958092Y-82247557D01*
X143958093Y-82247558D01*
X144074756Y-82334891D01*
X144074764Y-82334896D01*
X144307013Y-82461713D01*
X144307012Y-82461713D01*
X144554971Y-82554197D01*
X144813539Y-82610445D01*
X145077499Y-82629324D01*
X145077501Y-82629324D01*
X145341460Y-82610445D01*
X145600028Y-82554197D01*
X145847987Y-82461713D01*
X146080235Y-82334896D01*
X146080236Y-82334895D01*
X146196906Y-82247557D01*
X145873962Y-81924613D01*
X147187000Y-81924613D01*
X147197500Y-82027393D01*
X147197501Y-82027394D01*
X147252686Y-82193933D01*
X147252687Y-82193935D01*
X147344786Y-82343249D01*
X147344789Y-82343253D01*
X147468844Y-82467308D01*
X147468848Y-82467311D01*
X147618162Y-82559410D01*
X147618164Y-82559411D01*
X147618166Y-82559412D01*
X147784703Y-82614597D01*
X147887492Y-82625098D01*
X147887497Y-82625098D01*
X150187503Y-82625098D01*
X150187508Y-82625098D01*
X150290297Y-82614597D01*
X150456834Y-82559412D01*
X150606155Y-82467309D01*
X150730211Y-82343253D01*
X150822314Y-82193932D01*
X150877499Y-82027395D01*
X150888000Y-81924606D01*
X150888000Y-79624590D01*
X150877499Y-79521801D01*
X150870142Y-79499598D01*
X154183592Y-79499598D01*
X154195430Y-79634913D01*
X154195432Y-79634924D01*
X154256566Y-79863081D01*
X154256570Y-79863090D01*
X154356399Y-80077175D01*
X154356400Y-80077177D01*
X154491886Y-80270671D01*
X154491891Y-80270677D01*
X154658917Y-80437703D01*
X154852421Y-80573198D01*
X155066507Y-80673027D01*
X155066516Y-80673031D01*
X155280000Y-80730232D01*
X155280000Y-79685099D01*
X155387685Y-79734278D01*
X155494237Y-79749598D01*
X155565763Y-79749598D01*
X155672315Y-79734278D01*
X155780000Y-79685099D01*
X155780000Y-80730231D01*
X155993483Y-80673031D01*
X155993492Y-80673027D01*
X156207577Y-80573198D01*
X156207579Y-80573197D01*
X156401073Y-80437711D01*
X156401079Y-80437706D01*
X156548331Y-80290455D01*
X156609654Y-80256970D01*
X156679346Y-80261954D01*
X156735279Y-80303826D01*
X156741551Y-80313039D01*
X156745186Y-80318932D01*
X156837288Y-80468254D01*
X156961344Y-80592310D01*
X157110666Y-80684412D01*
X157277203Y-80739597D01*
X157379991Y-80750098D01*
X158680008Y-80750097D01*
X158782797Y-80739597D01*
X158949334Y-80684412D01*
X159098656Y-80592310D01*
X159222712Y-80468254D01*
X159314814Y-80318932D01*
X159369999Y-80152395D01*
X159380500Y-80049607D01*
X159380500Y-79475298D01*
X171775001Y-79475298D01*
X171775001Y-79498620D01*
X171785144Y-79597905D01*
X171838452Y-79758779D01*
X171838457Y-79758790D01*
X171927424Y-79903026D01*
X171927427Y-79903030D01*
X172047267Y-80022870D01*
X172047271Y-80022873D01*
X172191507Y-80111840D01*
X172191518Y-80111845D01*
X172352393Y-80165153D01*
X172451683Y-80175297D01*
X172499999Y-80175296D01*
X172500000Y-80175296D01*
X172500000Y-79475298D01*
X173000000Y-79475298D01*
X173000000Y-80175297D01*
X173048308Y-80175297D01*
X173048322Y-80175296D01*
X173147607Y-80165153D01*
X173308481Y-80111845D01*
X173308492Y-80111840D01*
X173452728Y-80022873D01*
X173452732Y-80022870D01*
X173572572Y-79903030D01*
X173572575Y-79903026D01*
X173661542Y-79758790D01*
X173661547Y-79758779D01*
X173714855Y-79597904D01*
X173724999Y-79498620D01*
X173725000Y-79498607D01*
X173725000Y-79475298D01*
X173000000Y-79475298D01*
X172500000Y-79475298D01*
X171775001Y-79475298D01*
X159380500Y-79475298D01*
X159380499Y-78449590D01*
X159377682Y-78422018D01*
X159369999Y-78346801D01*
X159369998Y-78346798D01*
X159341622Y-78261166D01*
X159314814Y-78180264D01*
X159222712Y-78030942D01*
X159098656Y-77906886D01*
X158949334Y-77814784D01*
X158782797Y-77759599D01*
X158782795Y-77759598D01*
X158680010Y-77749098D01*
X157379998Y-77749098D01*
X157379981Y-77749099D01*
X157277203Y-77759598D01*
X157277200Y-77759599D01*
X157110668Y-77814783D01*
X157110663Y-77814785D01*
X156961342Y-77906887D01*
X156837288Y-78030941D01*
X156837285Y-78030945D01*
X156741550Y-78186156D01*
X156689602Y-78232881D01*
X156620640Y-78244102D01*
X156556558Y-78216259D01*
X156548331Y-78208741D01*
X156401078Y-78061489D01*
X156207578Y-77925997D01*
X155993492Y-77826168D01*
X155993486Y-77826165D01*
X155780000Y-77768962D01*
X155780000Y-78814096D01*
X155672315Y-78764918D01*
X155565763Y-78749598D01*
X155494237Y-78749598D01*
X155387685Y-78764918D01*
X155280000Y-78814096D01*
X155280000Y-77768962D01*
X155279999Y-77768962D01*
X155066513Y-77826165D01*
X155066507Y-77826168D01*
X154852422Y-77925997D01*
X154852420Y-77925998D01*
X154658926Y-78061484D01*
X154658920Y-78061489D01*
X154491891Y-78228518D01*
X154491886Y-78228524D01*
X154356400Y-78422018D01*
X154356399Y-78422020D01*
X154256570Y-78636105D01*
X154256566Y-78636114D01*
X154195432Y-78864271D01*
X154195430Y-78864282D01*
X154183592Y-78999597D01*
X154183593Y-78999598D01*
X155096314Y-78999598D01*
X155070507Y-79039754D01*
X155030000Y-79177709D01*
X155030000Y-79321487D01*
X155070507Y-79459442D01*
X155096314Y-79499598D01*
X154183592Y-79499598D01*
X150870142Y-79499598D01*
X150822314Y-79355264D01*
X150791473Y-79305264D01*
X150730213Y-79205946D01*
X150730210Y-79205942D01*
X150606155Y-79081887D01*
X150606151Y-79081884D01*
X150456837Y-78989785D01*
X150456835Y-78989784D01*
X150342734Y-78951975D01*
X150290297Y-78934599D01*
X150290295Y-78934598D01*
X150187515Y-78924098D01*
X150187508Y-78924098D01*
X147887492Y-78924098D01*
X147887484Y-78924098D01*
X147784704Y-78934598D01*
X147784703Y-78934599D01*
X147618164Y-78989784D01*
X147618162Y-78989785D01*
X147468848Y-79081884D01*
X147468844Y-79081887D01*
X147344789Y-79205942D01*
X147344786Y-79205946D01*
X147252687Y-79355260D01*
X147252686Y-79355262D01*
X147197501Y-79521801D01*
X147197500Y-79521802D01*
X147187000Y-79624582D01*
X147187000Y-81924613D01*
X145873962Y-81924613D01*
X145476109Y-81526759D01*
X145594931Y-81455267D01*
X145729158Y-81328121D01*
X145832361Y-81175906D01*
X146550459Y-81894004D01*
X146637797Y-81777334D01*
X146637798Y-81777333D01*
X146764615Y-81545085D01*
X146857099Y-81297126D01*
X146913347Y-81038558D01*
X146932226Y-80774599D01*
X146932226Y-80774596D01*
X146913347Y-80510637D01*
X146857099Y-80252069D01*
X146764615Y-80004110D01*
X146637798Y-79771862D01*
X146637793Y-79771854D01*
X146550460Y-79655191D01*
X146550459Y-79655190D01*
X145828732Y-80376917D01*
X145785184Y-80294776D01*
X145665491Y-80153863D01*
X145518305Y-80041975D01*
X145476096Y-80022447D01*
X146196906Y-79301637D01*
X146196906Y-79301636D01*
X146080243Y-79214304D01*
X146080235Y-79214299D01*
X145847986Y-79087482D01*
X145847987Y-79087482D01*
X145600028Y-78994998D01*
X145341460Y-78938750D01*
X145077501Y-78919872D01*
X145077499Y-78919872D01*
X144813539Y-78938750D01*
X144554971Y-78994998D01*
X144307012Y-79087482D01*
X144074764Y-79214299D01*
X143958093Y-79301637D01*
X144678891Y-80022435D01*
X144560069Y-80093929D01*
X144425842Y-80221075D01*
X144322638Y-80373290D01*
X143604539Y-79655191D01*
X143517201Y-79771862D01*
X143390384Y-80004110D01*
X143297900Y-80252069D01*
X143241652Y-80510637D01*
X143222774Y-80774596D01*
X143222774Y-80774599D01*
X140280000Y-80774599D01*
X140280000Y-78537046D01*
X140280096Y-78533631D01*
X140283017Y-78481600D01*
X140285112Y-78449596D01*
X140298931Y-78238467D01*
X140299664Y-78232218D01*
X140319686Y-78114361D01*
X140354837Y-77937648D01*
X140356050Y-77932659D01*
X140391860Y-77808355D01*
X140392705Y-77805660D01*
X140447291Y-77644859D01*
X140448692Y-77641135D01*
X140499051Y-77519555D01*
X140500683Y-77515954D01*
X140575973Y-77363287D01*
X140577255Y-77360835D01*
X140639561Y-77248096D01*
X140642253Y-77243678D01*
X140743117Y-77092730D01*
X140811395Y-76996498D01*
X140815335Y-76991509D01*
X140978599Y-76805356D01*
X141010524Y-76769631D01*
X141012893Y-76767127D01*
X141597795Y-76182225D01*
X143303363Y-74476656D01*
X169747242Y-74476656D01*
X169783140Y-74676946D01*
X169783142Y-74676951D01*
X169851459Y-74847981D01*
X169858623Y-74865914D01*
X169858629Y-74865926D01*
X169970596Y-75035815D01*
X169970599Y-75035819D01*
X171713181Y-76778399D01*
X171746666Y-76839722D01*
X171749500Y-76866080D01*
X171749500Y-77726041D01*
X171764925Y-77877734D01*
X171768815Y-77890132D01*
X171774500Y-77927243D01*
X171774500Y-77948633D01*
X171774501Y-77948654D01*
X171784650Y-78048005D01*
X171784651Y-78048008D01*
X171837996Y-78208992D01*
X171838001Y-78209003D01*
X171927029Y-78353338D01*
X171927032Y-78353342D01*
X171936660Y-78362970D01*
X171970145Y-78424293D01*
X171965161Y-78493985D01*
X171936663Y-78538329D01*
X171927428Y-78547563D01*
X171927424Y-78547569D01*
X171838457Y-78691805D01*
X171838452Y-78691816D01*
X171785144Y-78852691D01*
X171775000Y-78951975D01*
X171775000Y-78975298D01*
X173724999Y-78975298D01*
X173724999Y-78951990D01*
X173724998Y-78951975D01*
X173714855Y-78852690D01*
X173661547Y-78691816D01*
X173661542Y-78691805D01*
X173572575Y-78547569D01*
X173572572Y-78547565D01*
X173563339Y-78538332D01*
X173529854Y-78477009D01*
X173534838Y-78407317D01*
X173563343Y-78362966D01*
X173572968Y-78353342D01*
X173662003Y-78208995D01*
X173715349Y-78048006D01*
X173725500Y-77948643D01*
X173725499Y-77911303D01*
X173728037Y-77886341D01*
X173729806Y-77877736D01*
X173750500Y-77777039D01*
X173750500Y-76412996D01*
X173752757Y-76323935D01*
X173741933Y-76263547D01*
X173741280Y-76258885D01*
X173735074Y-76197861D01*
X173730168Y-76182225D01*
X173724784Y-76165066D01*
X173722917Y-76157453D01*
X173716858Y-76123645D01*
X173716857Y-76123643D01*
X173704345Y-76092321D01*
X173694100Y-76066672D01*
X173692521Y-76062236D01*
X173674157Y-76003705D01*
X173657488Y-75973676D01*
X173654117Y-75966576D01*
X173641378Y-75934684D01*
X173641377Y-75934681D01*
X173607620Y-75883461D01*
X173605180Y-75879432D01*
X173594379Y-75859973D01*
X173575409Y-75825796D01*
X173575407Y-75825793D01*
X173553033Y-75799732D01*
X173548302Y-75793457D01*
X173529402Y-75764779D01*
X173486012Y-75721389D01*
X173482822Y-75717946D01*
X173442867Y-75671404D01*
X173442863Y-75671400D01*
X173415698Y-75650372D01*
X173409811Y-75645188D01*
X172164920Y-74400298D01*
X173844540Y-74400298D01*
X173864326Y-74588554D01*
X173864327Y-74588557D01*
X173922818Y-74768575D01*
X173922821Y-74768582D01*
X174017467Y-74932514D01*
X174110480Y-75035815D01*
X174144129Y-75073186D01*
X174297265Y-75184446D01*
X174297270Y-75184449D01*
X174470191Y-75261440D01*
X174470194Y-75261440D01*
X174470197Y-75261442D01*
X174504221Y-75268673D01*
X174535329Y-75275286D01*
X174596811Y-75308478D01*
X174597230Y-75308895D01*
X175374267Y-76085932D01*
X175386048Y-76099564D01*
X175400390Y-76118828D01*
X175440420Y-76152417D01*
X175444392Y-76156057D01*
X175450223Y-76161888D01*
X175450222Y-76161888D01*
X175475944Y-76182224D01*
X175475944Y-76182225D01*
X175534786Y-76231600D01*
X175534794Y-76231604D01*
X175540824Y-76235571D01*
X175540790Y-76235621D01*
X175547137Y-76239664D01*
X175547169Y-76239614D01*
X175553318Y-76243406D01*
X175553320Y-76243407D01*
X175553323Y-76243409D01*
X175622930Y-76275867D01*
X175691567Y-76310338D01*
X175691576Y-76310340D01*
X175698355Y-76312808D01*
X175698334Y-76312865D01*
X175705451Y-76315338D01*
X175705470Y-76315282D01*
X175712330Y-76317555D01*
X175777037Y-76330915D01*
X175787532Y-76333082D01*
X175862279Y-76350798D01*
X175862288Y-76350798D01*
X175869452Y-76351636D01*
X175869445Y-76351695D01*
X175876946Y-76352461D01*
X175876952Y-76352402D01*
X175884140Y-76353031D01*
X175884143Y-76353030D01*
X175884144Y-76353031D01*
X175960898Y-76350798D01*
X182737770Y-76350798D01*
X182804809Y-76370483D01*
X182825451Y-76387117D01*
X183806775Y-77368441D01*
X183840260Y-77429764D01*
X183835276Y-77499456D01*
X183793404Y-77555389D01*
X183771499Y-77568504D01*
X183622614Y-77637930D01*
X183622612Y-77637931D01*
X183560428Y-77681473D01*
X183560427Y-77681473D01*
X184205599Y-78326644D01*
X184124852Y-78339433D01*
X184011955Y-78396957D01*
X183922359Y-78486553D01*
X183864835Y-78599450D01*
X183852046Y-78680196D01*
X183206875Y-78035025D01*
X183206875Y-78035026D01*
X183163333Y-78097210D01*
X183163332Y-78097212D01*
X183070898Y-78295438D01*
X183070894Y-78295447D01*
X183014289Y-78506703D01*
X183014287Y-78506713D01*
X182995224Y-78724597D01*
X182995224Y-78724598D01*
X183014287Y-78942482D01*
X183014289Y-78942492D01*
X183070894Y-79153748D01*
X183070898Y-79153757D01*
X183163335Y-79351989D01*
X183206873Y-79414169D01*
X183206875Y-79414170D01*
X183852046Y-78768998D01*
X183864835Y-78849746D01*
X183922359Y-78962643D01*
X184011955Y-79052239D01*
X184124852Y-79109763D01*
X184205597Y-79122551D01*
X183560426Y-79767722D01*
X183622611Y-79811264D01*
X183622613Y-79811265D01*
X183731877Y-79862216D01*
X183784316Y-79908388D01*
X183803468Y-79975582D01*
X183783252Y-80042463D01*
X183731877Y-80086980D01*
X183622614Y-80137930D01*
X183622612Y-80137931D01*
X183560428Y-80181473D01*
X183560427Y-80181473D01*
X184205599Y-80826644D01*
X184124852Y-80839433D01*
X184011955Y-80896957D01*
X183922359Y-80986553D01*
X183864835Y-81099450D01*
X183852046Y-81180195D01*
X183206876Y-80535025D01*
X183206875Y-80535026D01*
X183163333Y-80597210D01*
X183163332Y-80597212D01*
X183070898Y-80795438D01*
X183070894Y-80795447D01*
X183014289Y-81006703D01*
X183014287Y-81006713D01*
X182995224Y-81224597D01*
X182995224Y-81224598D01*
X183014287Y-81442482D01*
X183014289Y-81442492D01*
X183070894Y-81653748D01*
X183070898Y-81653757D01*
X183163335Y-81851989D01*
X183206873Y-81914169D01*
X183206874Y-81914170D01*
X183852046Y-81268997D01*
X183864835Y-81349746D01*
X183922359Y-81462643D01*
X184011955Y-81552239D01*
X184124852Y-81609763D01*
X184205597Y-81622551D01*
X183560426Y-82267722D01*
X183622611Y-82311264D01*
X183622613Y-82311265D01*
X183731285Y-82361940D01*
X183783724Y-82408112D01*
X183802876Y-82475306D01*
X183782660Y-82542187D01*
X183731285Y-82586704D01*
X183622362Y-82637496D01*
X183622357Y-82637498D01*
X183443121Y-82763000D01*
X183288402Y-82917719D01*
X183162900Y-83096955D01*
X183162898Y-83096959D01*
X183092047Y-83248899D01*
X183073914Y-83287787D01*
X183070426Y-83295266D01*
X183070422Y-83295275D01*
X183013793Y-83506618D01*
X183013793Y-83506622D01*
X182994723Y-83724595D01*
X182994723Y-83724600D01*
X183005282Y-83845307D01*
X182991515Y-83913807D01*
X182969435Y-83943794D01*
X181099751Y-85813479D01*
X181038428Y-85846964D01*
X181012070Y-85849798D01*
X177099337Y-85849798D01*
X177032298Y-85830113D01*
X177026452Y-85826116D01*
X177012734Y-85816149D01*
X177012729Y-85816146D01*
X176839807Y-85739155D01*
X176839802Y-85739153D01*
X176688411Y-85706975D01*
X176654646Y-85699798D01*
X176465354Y-85699798D01*
X176432897Y-85706696D01*
X176280197Y-85739153D01*
X176280192Y-85739155D01*
X176107270Y-85816146D01*
X176107265Y-85816149D01*
X175954129Y-85927409D01*
X175827466Y-86068083D01*
X175732821Y-86232013D01*
X175732818Y-86232020D01*
X175674327Y-86412038D01*
X175674326Y-86412042D01*
X175654540Y-86600298D01*
X175674326Y-86788554D01*
X175674327Y-86788557D01*
X175732818Y-86968575D01*
X175732821Y-86968582D01*
X175758034Y-87012253D01*
X175792887Y-87072619D01*
X175809500Y-87134619D01*
X175809500Y-89823634D01*
X175789815Y-89890673D01*
X175756625Y-89925208D01*
X175720863Y-89950249D01*
X175559951Y-90111160D01*
X175429432Y-90297563D01*
X175429431Y-90297565D01*
X175333261Y-90503800D01*
X175333258Y-90503809D01*
X175274366Y-90723600D01*
X175274364Y-90723611D01*
X175254532Y-90950296D01*
X175254532Y-90950299D01*
X175274364Y-91176984D01*
X175274366Y-91176995D01*
X175333258Y-91396786D01*
X175333261Y-91396795D01*
X175429431Y-91603030D01*
X175429432Y-91603032D01*
X175559954Y-91789439D01*
X175720858Y-91950343D01*
X175720861Y-91950345D01*
X175907266Y-92080866D01*
X176113504Y-92177037D01*
X176333308Y-92235933D01*
X176495230Y-92250099D01*
X176559998Y-92255766D01*
X176560000Y-92255766D01*
X176560002Y-92255766D01*
X176616673Y-92250807D01*
X176786692Y-92235933D01*
X177006496Y-92177037D01*
X177212734Y-92080866D01*
X177395322Y-91953018D01*
X177403574Y-91947240D01*
X177405041Y-91949335D01*
X177459125Y-91925552D01*
X177528136Y-91936470D01*
X177580290Y-91982966D01*
X177599027Y-92050276D01*
X177578398Y-92117031D01*
X177562720Y-92136208D01*
X176825348Y-92873580D01*
X176764025Y-92907065D01*
X176726861Y-92909427D01*
X176560003Y-92894830D01*
X176559998Y-92894830D01*
X176333313Y-92914662D01*
X176333302Y-92914664D01*
X176113511Y-92973556D01*
X176113502Y-92973559D01*
X175907267Y-93069729D01*
X175907265Y-93069730D01*
X175720858Y-93200252D01*
X175559954Y-93361156D01*
X175429432Y-93547563D01*
X175429431Y-93547565D01*
X175333261Y-93753800D01*
X175333258Y-93753809D01*
X175274366Y-93973600D01*
X175274364Y-93973611D01*
X175254532Y-94200296D01*
X175254532Y-94200299D01*
X175274364Y-94426984D01*
X175274366Y-94426995D01*
X175333258Y-94646786D01*
X175333261Y-94646795D01*
X175429431Y-94853030D01*
X175429432Y-94853032D01*
X175559954Y-95039439D01*
X175720858Y-95200343D01*
X175720861Y-95200345D01*
X175907266Y-95330866D01*
X176113504Y-95427037D01*
X176333308Y-95485933D01*
X176495230Y-95500099D01*
X176559998Y-95505766D01*
X176560000Y-95505766D01*
X176560002Y-95505766D01*
X176616673Y-95500807D01*
X176786692Y-95485933D01*
X177006496Y-95427037D01*
X177212734Y-95330866D01*
X177399139Y-95200345D01*
X177560047Y-95039437D01*
X177690568Y-94853032D01*
X177786739Y-94646794D01*
X177845635Y-94426990D01*
X177865468Y-94200298D01*
X177850869Y-94033435D01*
X177864635Y-93964937D01*
X177886713Y-93934951D01*
X178847061Y-92974603D01*
X182863465Y-92974603D01*
X182883991Y-93222327D01*
X182883993Y-93222336D01*
X182945018Y-93463315D01*
X183044872Y-93690962D01*
X183145170Y-93844480D01*
X183885529Y-93104121D01*
X183909113Y-93184442D01*
X183986845Y-93305396D01*
X184095506Y-93399550D01*
X184226291Y-93459278D01*
X184236072Y-93460684D01*
X183498548Y-94198207D01*
X183545374Y-94234653D01*
X183545376Y-94234654D01*
X183763991Y-94352962D01*
X183764002Y-94352967D01*
X183999112Y-94433681D01*
X184244313Y-94474598D01*
X184492899Y-94474598D01*
X184738099Y-94433681D01*
X184973209Y-94352967D01*
X184973220Y-94352962D01*
X185191834Y-94234655D01*
X185191837Y-94234653D01*
X185238662Y-94198207D01*
X185062923Y-94022468D01*
X187868106Y-94022468D01*
X187868107Y-94022474D01*
X187874514Y-94082081D01*
X187924808Y-94216926D01*
X187924812Y-94216933D01*
X188011058Y-94332142D01*
X188011061Y-94332145D01*
X188126270Y-94418391D01*
X188126277Y-94418395D01*
X188261123Y-94468689D01*
X188261122Y-94468689D01*
X188268050Y-94469433D01*
X188320733Y-94475098D01*
X190416478Y-94475097D01*
X190476089Y-94468689D01*
X190610937Y-94418394D01*
X190726152Y-94332144D01*
X190812402Y-94216929D01*
X190862697Y-94082081D01*
X190869106Y-94022471D01*
X190869106Y-93824613D01*
X196172000Y-93824613D01*
X196182500Y-93927393D01*
X196182501Y-93927395D01*
X196210093Y-94010663D01*
X196237686Y-94093933D01*
X196237687Y-94093935D01*
X196329786Y-94243249D01*
X196329789Y-94243253D01*
X196453844Y-94367308D01*
X196453848Y-94367311D01*
X196603162Y-94459410D01*
X196603164Y-94459411D01*
X196603166Y-94459412D01*
X196769703Y-94514597D01*
X196872492Y-94525098D01*
X196872497Y-94525098D01*
X199172503Y-94525098D01*
X199172508Y-94525098D01*
X199275297Y-94514597D01*
X199441834Y-94459412D01*
X199591155Y-94367309D01*
X199715211Y-94243253D01*
X199807314Y-94093932D01*
X199862499Y-93927395D01*
X199873000Y-93824606D01*
X199873000Y-92674599D01*
X200127774Y-92674599D01*
X200146652Y-92938558D01*
X200202900Y-93197126D01*
X200295384Y-93445085D01*
X200422201Y-93677333D01*
X200422206Y-93677341D01*
X200509538Y-93794004D01*
X201231266Y-93072275D01*
X201274816Y-93154420D01*
X201394509Y-93295333D01*
X201541695Y-93407221D01*
X201583902Y-93426748D01*
X200863092Y-94147557D01*
X200863093Y-94147558D01*
X200979756Y-94234891D01*
X200979764Y-94234896D01*
X201212013Y-94361713D01*
X201212012Y-94361713D01*
X201459971Y-94454197D01*
X201718539Y-94510445D01*
X201982499Y-94529324D01*
X201982501Y-94529324D01*
X202246460Y-94510445D01*
X202505028Y-94454197D01*
X202752987Y-94361713D01*
X202985235Y-94234896D01*
X202985236Y-94234895D01*
X203101906Y-94147557D01*
X202381109Y-93426759D01*
X202499931Y-93355267D01*
X202634158Y-93228121D01*
X202737361Y-93075906D01*
X203455459Y-93794004D01*
X203542797Y-93677334D01*
X203542798Y-93677333D01*
X203669615Y-93445085D01*
X203762099Y-93197126D01*
X203818347Y-92938558D01*
X203837226Y-92674599D01*
X203837226Y-92674596D01*
X203818347Y-92410637D01*
X203762099Y-92152069D01*
X203669615Y-91904110D01*
X203542798Y-91671862D01*
X203542793Y-91671854D01*
X203455460Y-91555191D01*
X203455459Y-91555190D01*
X202733732Y-92276917D01*
X202690184Y-92194776D01*
X202570491Y-92053863D01*
X202423305Y-91941975D01*
X202381096Y-91922447D01*
X203101906Y-91201637D01*
X203101906Y-91201636D01*
X202985243Y-91114304D01*
X202985235Y-91114299D01*
X202752986Y-90987482D01*
X202752987Y-90987482D01*
X202505028Y-90894998D01*
X202246460Y-90838750D01*
X201982501Y-90819872D01*
X201982499Y-90819872D01*
X201718539Y-90838750D01*
X201459971Y-90894998D01*
X201212012Y-90987482D01*
X200979764Y-91114299D01*
X200863093Y-91201637D01*
X201583891Y-91922435D01*
X201465069Y-91993929D01*
X201330842Y-92121075D01*
X201227638Y-92273290D01*
X200509539Y-91555191D01*
X200422201Y-91671862D01*
X200295384Y-91904110D01*
X200202900Y-92152069D01*
X200146652Y-92410637D01*
X200127774Y-92674596D01*
X200127774Y-92674599D01*
X199873000Y-92674599D01*
X199873000Y-91524590D01*
X199862499Y-91421801D01*
X199807314Y-91255264D01*
X199774236Y-91201637D01*
X199715213Y-91105946D01*
X199715210Y-91105942D01*
X199591155Y-90981887D01*
X199591151Y-90981884D01*
X199441837Y-90889785D01*
X199441835Y-90889784D01*
X199358565Y-90862191D01*
X199275297Y-90834599D01*
X199275295Y-90834598D01*
X199172515Y-90824098D01*
X199172508Y-90824098D01*
X196872492Y-90824098D01*
X196872484Y-90824098D01*
X196769704Y-90834598D01*
X196769703Y-90834599D01*
X196603164Y-90889784D01*
X196603162Y-90889785D01*
X196453848Y-90981884D01*
X196453844Y-90981887D01*
X196329789Y-91105942D01*
X196329786Y-91105946D01*
X196237687Y-91255260D01*
X196237686Y-91255262D01*
X196182501Y-91421801D01*
X196182500Y-91421802D01*
X196172000Y-91524582D01*
X196172000Y-93824613D01*
X190869106Y-93824613D01*
X190869105Y-91926726D01*
X190862697Y-91867115D01*
X190846839Y-91824598D01*
X190812403Y-91732269D01*
X190812399Y-91732262D01*
X190726153Y-91617053D01*
X190726150Y-91617050D01*
X190610941Y-91530804D01*
X190610934Y-91530800D01*
X190476088Y-91480506D01*
X190476089Y-91480506D01*
X190416489Y-91474099D01*
X190416487Y-91474098D01*
X190416479Y-91474098D01*
X190416470Y-91474098D01*
X188320735Y-91474098D01*
X188320729Y-91474099D01*
X188261122Y-91480506D01*
X188126277Y-91530800D01*
X188126270Y-91530804D01*
X188011061Y-91617050D01*
X188011058Y-91617053D01*
X187924812Y-91732262D01*
X187924808Y-91732269D01*
X187874514Y-91867115D01*
X187870537Y-91904110D01*
X187868107Y-91926721D01*
X187868106Y-91926733D01*
X187868106Y-94022468D01*
X185062923Y-94022468D01*
X184501139Y-93460684D01*
X184510921Y-93459278D01*
X184641706Y-93399550D01*
X184750367Y-93305396D01*
X184828099Y-93184442D01*
X184851682Y-93104122D01*
X185592040Y-93844480D01*
X185692337Y-93690967D01*
X185792193Y-93463315D01*
X185853218Y-93222336D01*
X185853220Y-93222327D01*
X185873747Y-92974603D01*
X185873747Y-92974592D01*
X185853220Y-92726868D01*
X185853218Y-92726859D01*
X185792193Y-92485880D01*
X185692337Y-92258228D01*
X185592040Y-92104714D01*
X184851682Y-92845073D01*
X184828099Y-92764754D01*
X184750367Y-92643800D01*
X184641706Y-92549646D01*
X184510921Y-92489918D01*
X184501140Y-92488511D01*
X185238663Y-91750988D01*
X185238662Y-91750987D01*
X185191835Y-91714541D01*
X184973220Y-91596233D01*
X184973209Y-91596228D01*
X184738099Y-91515514D01*
X184492899Y-91474598D01*
X184244313Y-91474598D01*
X183999112Y-91515514D01*
X183764002Y-91596228D01*
X183763996Y-91596230D01*
X183545367Y-91714547D01*
X183498548Y-91750986D01*
X183498548Y-91750988D01*
X184236072Y-92488511D01*
X184226291Y-92489918D01*
X184095506Y-92549646D01*
X183986845Y-92643800D01*
X183909113Y-92764754D01*
X183885529Y-92845073D01*
X183145170Y-92104714D01*
X183044873Y-92258230D01*
X182945018Y-92485880D01*
X182883993Y-92726859D01*
X182883991Y-92726868D01*
X182863465Y-92974592D01*
X182863465Y-92974603D01*
X178847061Y-92974603D01*
X185935638Y-85886025D01*
X185949267Y-85874248D01*
X185968530Y-85859908D01*
X185968532Y-85859904D01*
X185968534Y-85859904D01*
X185996884Y-85826116D01*
X186002113Y-85819883D01*
X186005767Y-85815897D01*
X186011591Y-85810074D01*
X186031930Y-85784350D01*
X186081302Y-85725512D01*
X186081306Y-85725503D01*
X186085274Y-85719473D01*
X186085325Y-85719506D01*
X186089369Y-85713158D01*
X186089317Y-85713126D01*
X186093104Y-85706983D01*
X186093111Y-85706975D01*
X186125572Y-85637361D01*
X186160040Y-85568731D01*
X186160041Y-85568725D01*
X186162508Y-85561948D01*
X186162566Y-85561969D01*
X186165043Y-85554842D01*
X186164986Y-85554824D01*
X186167255Y-85547977D01*
X186167256Y-85547972D01*
X186167257Y-85547970D01*
X186182790Y-85472739D01*
X186200500Y-85398019D01*
X186200500Y-85398016D01*
X186201339Y-85390846D01*
X186201398Y-85390852D01*
X186202164Y-85383352D01*
X186202105Y-85383347D01*
X186202734Y-85376157D01*
X186200500Y-85299380D01*
X186200500Y-81760297D01*
X186721127Y-81760297D01*
X186721128Y-81760298D01*
X187684314Y-81760298D01*
X187672359Y-81772253D01*
X187614835Y-81885150D01*
X187595014Y-82010298D01*
X187614835Y-82135446D01*
X187672359Y-82248343D01*
X187684314Y-82260298D01*
X186721128Y-82260298D01*
X186773730Y-82456615D01*
X186773734Y-82456624D01*
X186869865Y-82662780D01*
X187000342Y-82849118D01*
X187161179Y-83009955D01*
X187347517Y-83140432D01*
X187553673Y-83236563D01*
X187553682Y-83236567D01*
X187749999Y-83289170D01*
X187750000Y-83289169D01*
X187750000Y-82325983D01*
X187761955Y-82337939D01*
X187874852Y-82395463D01*
X187968519Y-82410298D01*
X188031481Y-82410298D01*
X188125148Y-82395463D01*
X188238045Y-82337939D01*
X188250000Y-82325983D01*
X188250000Y-83289170D01*
X188446317Y-83236567D01*
X188446326Y-83236563D01*
X188652482Y-83140432D01*
X188838820Y-83009955D01*
X188999657Y-82849118D01*
X189130134Y-82662780D01*
X189226265Y-82456624D01*
X189226269Y-82456615D01*
X189278872Y-82260298D01*
X188315686Y-82260298D01*
X188327641Y-82248343D01*
X188385165Y-82135446D01*
X188404986Y-82010298D01*
X188385165Y-81885150D01*
X188327641Y-81772253D01*
X188315686Y-81760298D01*
X189278872Y-81760298D01*
X189278872Y-81760297D01*
X189226269Y-81563980D01*
X189226265Y-81563971D01*
X189130134Y-81357815D01*
X188999657Y-81171477D01*
X188838820Y-81010640D01*
X188652482Y-80880163D01*
X188446328Y-80784032D01*
X188250000Y-80731425D01*
X188250000Y-81694612D01*
X188238045Y-81682657D01*
X188125148Y-81625133D01*
X188031481Y-81610298D01*
X187968519Y-81610298D01*
X187874852Y-81625133D01*
X187761955Y-81682657D01*
X187749999Y-81694612D01*
X187749999Y-80731425D01*
X187553671Y-80784032D01*
X187347517Y-80880163D01*
X187161179Y-81010640D01*
X187000342Y-81171477D01*
X186869865Y-81357815D01*
X186773734Y-81563971D01*
X186773730Y-81563980D01*
X186721127Y-81760297D01*
X186200500Y-81760297D01*
X186200500Y-78014004D01*
X186201809Y-77996032D01*
X186205289Y-77972275D01*
X186205289Y-77972273D01*
X186201793Y-77932324D01*
X186200734Y-77920227D01*
X186200499Y-77914818D01*
X186200500Y-77906589D01*
X186196693Y-77874022D01*
X186191511Y-77814783D01*
X186189999Y-77797499D01*
X186188539Y-77790427D01*
X186188597Y-77790414D01*
X186186965Y-77783055D01*
X186186906Y-77783070D01*
X186185242Y-77776051D01*
X186185241Y-77776043D01*
X186158974Y-77703874D01*
X186134814Y-77630964D01*
X186134809Y-77630957D01*
X186131760Y-77624416D01*
X186131815Y-77624389D01*
X186128533Y-77617611D01*
X186128480Y-77617638D01*
X186125235Y-77611178D01*
X186083028Y-77547006D01*
X186042710Y-77481640D01*
X186038234Y-77475980D01*
X186038281Y-77475942D01*
X186033519Y-77470097D01*
X186033474Y-77470136D01*
X186028834Y-77464606D01*
X185972964Y-77411894D01*
X184423549Y-75862479D01*
X184390064Y-75801156D01*
X184395048Y-75731464D01*
X184436920Y-75675531D01*
X184502384Y-75651114D01*
X184511230Y-75650798D01*
X187663177Y-75650798D01*
X187695270Y-75655023D01*
X187773308Y-75675933D01*
X187935230Y-75690099D01*
X187999998Y-75695766D01*
X188000000Y-75695766D01*
X188000002Y-75695766D01*
X188056672Y-75690807D01*
X188226692Y-75675933D01*
X188304729Y-75655023D01*
X188336823Y-75650798D01*
X192368806Y-75650798D01*
X192435845Y-75670483D01*
X192456487Y-75687117D01*
X194213180Y-77443810D01*
X194246665Y-77505133D01*
X194249499Y-77531491D01*
X194249499Y-78089466D01*
X194231039Y-78154560D01*
X194215186Y-78180264D01*
X194215185Y-78180266D01*
X194211554Y-78186154D01*
X194159607Y-78232880D01*
X194090645Y-78244104D01*
X194026562Y-78216263D01*
X194018332Y-78208742D01*
X193871078Y-78061489D01*
X193677578Y-77925997D01*
X193463492Y-77826168D01*
X193463486Y-77826165D01*
X193250000Y-77768962D01*
X193250000Y-78814096D01*
X193142315Y-78764918D01*
X193035763Y-78749598D01*
X192964237Y-78749598D01*
X192857685Y-78764918D01*
X192750000Y-78814096D01*
X192750000Y-77768962D01*
X192749999Y-77768962D01*
X192536513Y-77826165D01*
X192536507Y-77826168D01*
X192322422Y-77925997D01*
X192322420Y-77925998D01*
X192128926Y-78061484D01*
X192128920Y-78061489D01*
X191961891Y-78228518D01*
X191961886Y-78228524D01*
X191826400Y-78422018D01*
X191826399Y-78422020D01*
X191726570Y-78636105D01*
X191726566Y-78636114D01*
X191665432Y-78864271D01*
X191665430Y-78864282D01*
X191653592Y-78999597D01*
X191653593Y-78999598D01*
X192566314Y-78999598D01*
X192540507Y-79039754D01*
X192500000Y-79177709D01*
X192500000Y-79321487D01*
X192540507Y-79459442D01*
X192566314Y-79499598D01*
X191653592Y-79499598D01*
X191665430Y-79634913D01*
X191665432Y-79634924D01*
X191726566Y-79863081D01*
X191726570Y-79863090D01*
X191826399Y-80077175D01*
X191826400Y-80077177D01*
X191961886Y-80270671D01*
X191961891Y-80270677D01*
X192128917Y-80437703D01*
X192322421Y-80573198D01*
X192536507Y-80673027D01*
X192536516Y-80673031D01*
X192750000Y-80730232D01*
X192750000Y-79685099D01*
X192857685Y-79734278D01*
X192964237Y-79749598D01*
X193035763Y-79749598D01*
X193142315Y-79734278D01*
X193250000Y-79685099D01*
X193250000Y-80730231D01*
X193463483Y-80673031D01*
X193463492Y-80673027D01*
X193677577Y-80573198D01*
X193677579Y-80573197D01*
X193871073Y-80437711D01*
X193871079Y-80437706D01*
X194018331Y-80290455D01*
X194079654Y-80256970D01*
X194149346Y-80261954D01*
X194205279Y-80303826D01*
X194211551Y-80313039D01*
X194215186Y-80318932D01*
X194307288Y-80468254D01*
X194431344Y-80592310D01*
X194580666Y-80684412D01*
X194747203Y-80739597D01*
X194849991Y-80750098D01*
X196150008Y-80750097D01*
X196252797Y-80739597D01*
X196298058Y-80724599D01*
X199722774Y-80724599D01*
X199741652Y-80988558D01*
X199797900Y-81247126D01*
X199890384Y-81495085D01*
X200017201Y-81727333D01*
X200017206Y-81727341D01*
X200104538Y-81844004D01*
X200826266Y-81122275D01*
X200869816Y-81204420D01*
X200989509Y-81345333D01*
X201136695Y-81457221D01*
X201178902Y-81476748D01*
X200458092Y-82197557D01*
X200458093Y-82197558D01*
X200574756Y-82284891D01*
X200574764Y-82284896D01*
X200807013Y-82411713D01*
X200807012Y-82411713D01*
X201054971Y-82504197D01*
X201313539Y-82560445D01*
X201577499Y-82579324D01*
X201577501Y-82579324D01*
X201841460Y-82560445D01*
X202100028Y-82504197D01*
X202347987Y-82411713D01*
X202580235Y-82284896D01*
X202580236Y-82284895D01*
X202696906Y-82197557D01*
X202373962Y-81874613D01*
X203687000Y-81874613D01*
X203697500Y-81977393D01*
X203697501Y-81977395D01*
X203725093Y-82060663D01*
X203752686Y-82143933D01*
X203752687Y-82143935D01*
X203844786Y-82293249D01*
X203844789Y-82293253D01*
X203968844Y-82417308D01*
X203968848Y-82417311D01*
X204118162Y-82509410D01*
X204118164Y-82509411D01*
X204118166Y-82509412D01*
X204284703Y-82564597D01*
X204387492Y-82575098D01*
X204387497Y-82575098D01*
X206687503Y-82575098D01*
X206687508Y-82575098D01*
X206790297Y-82564597D01*
X206956834Y-82509412D01*
X207106155Y-82417309D01*
X207230211Y-82293253D01*
X207322314Y-82143932D01*
X207377499Y-81977395D01*
X207388000Y-81874606D01*
X207388000Y-79574590D01*
X207377499Y-79471801D01*
X207322314Y-79305264D01*
X207320076Y-79301636D01*
X207230213Y-79155946D01*
X207230210Y-79155942D01*
X207106155Y-79031887D01*
X207106151Y-79031884D01*
X206956837Y-78939785D01*
X206956835Y-78939784D01*
X206873565Y-78912191D01*
X206790297Y-78884599D01*
X206790295Y-78884598D01*
X206687515Y-78874098D01*
X206687508Y-78874098D01*
X204387492Y-78874098D01*
X204387484Y-78874098D01*
X204284704Y-78884598D01*
X204284703Y-78884599D01*
X204118164Y-78939784D01*
X204118162Y-78939785D01*
X203968848Y-79031884D01*
X203968844Y-79031887D01*
X203844789Y-79155942D01*
X203844786Y-79155946D01*
X203752687Y-79305260D01*
X203752686Y-79305262D01*
X203697501Y-79471801D01*
X203697500Y-79471802D01*
X203687000Y-79574582D01*
X203687000Y-81874613D01*
X202373962Y-81874613D01*
X201976109Y-81476759D01*
X202094931Y-81405267D01*
X202229158Y-81278121D01*
X202332361Y-81125906D01*
X203050459Y-81844004D01*
X203137797Y-81727334D01*
X203137798Y-81727333D01*
X203264615Y-81495085D01*
X203357099Y-81247126D01*
X203413347Y-80988558D01*
X203432226Y-80724599D01*
X203432226Y-80724596D01*
X203413347Y-80460637D01*
X203357099Y-80202069D01*
X203264615Y-79954110D01*
X203137798Y-79721862D01*
X203137793Y-79721854D01*
X203050460Y-79605191D01*
X203050459Y-79605190D01*
X202328732Y-80326917D01*
X202285184Y-80244776D01*
X202165491Y-80103863D01*
X202018305Y-79991975D01*
X201976096Y-79972447D01*
X202696906Y-79251637D01*
X202696906Y-79251636D01*
X202580243Y-79164304D01*
X202580235Y-79164299D01*
X202347986Y-79037482D01*
X202347987Y-79037482D01*
X202100028Y-78944998D01*
X201841460Y-78888750D01*
X201577501Y-78869872D01*
X201577499Y-78869872D01*
X201313539Y-78888750D01*
X201054971Y-78944998D01*
X200807012Y-79037482D01*
X200574764Y-79164299D01*
X200458093Y-79251637D01*
X201178891Y-79972435D01*
X201060069Y-80043929D01*
X200925842Y-80171075D01*
X200822638Y-80323290D01*
X200104539Y-79605191D01*
X200017201Y-79721862D01*
X199890384Y-79954110D01*
X199797900Y-80202069D01*
X199741652Y-80460637D01*
X199722774Y-80724596D01*
X199722774Y-80724599D01*
X196298058Y-80724599D01*
X196419334Y-80684412D01*
X196568656Y-80592310D01*
X196692712Y-80468254D01*
X196784814Y-80318932D01*
X196839999Y-80152395D01*
X196850500Y-80049607D01*
X196850499Y-78449590D01*
X196847682Y-78422018D01*
X196839999Y-78346801D01*
X196839998Y-78346798D01*
X196811622Y-78261166D01*
X196784814Y-78180264D01*
X196781820Y-78175410D01*
X196768960Y-78154559D01*
X196750500Y-78089465D01*
X196750500Y-77035852D01*
X196750889Y-77028914D01*
X196755237Y-76990328D01*
X196750639Y-76922132D01*
X196750500Y-76917977D01*
X196750500Y-76906006D01*
X196750500Y-76906001D01*
X196746721Y-76864015D01*
X196746721Y-76864014D01*
X196740097Y-76765748D01*
X196739028Y-76761506D01*
X196735768Y-76742314D01*
X196735726Y-76741855D01*
X196735377Y-76737968D01*
X196709167Y-76643000D01*
X196685096Y-76547472D01*
X196683290Y-76543496D01*
X196676654Y-76525195D01*
X196675493Y-76520986D01*
X196632749Y-76432227D01*
X196592007Y-76342530D01*
X196589517Y-76338936D01*
X196579725Y-76322120D01*
X196577829Y-76318183D01*
X196577825Y-76318176D01*
X196523502Y-76243409D01*
X196519929Y-76238491D01*
X196463820Y-76157501D01*
X196460725Y-76154406D01*
X196448087Y-76139609D01*
X196445521Y-76136077D01*
X196445519Y-76136075D01*
X196374342Y-76068023D01*
X195136432Y-74830113D01*
X193874497Y-73568179D01*
X193869861Y-73562991D01*
X193845649Y-73532630D01*
X193794173Y-73487657D01*
X193791139Y-73484821D01*
X193782671Y-73476353D01*
X193750323Y-73449347D01*
X193705758Y-73410411D01*
X193676144Y-73384538D01*
X193676139Y-73384534D01*
X193676138Y-73384533D01*
X193672383Y-73382289D01*
X193656515Y-73371030D01*
X193653161Y-73368230D01*
X193653160Y-73368229D01*
X193653155Y-73368225D01*
X193585756Y-73329983D01*
X193567482Y-73319614D01*
X193482906Y-73269083D01*
X193482903Y-73269081D01*
X193478811Y-73267546D01*
X193461186Y-73259300D01*
X193457387Y-73257144D01*
X193364395Y-73224605D01*
X193272171Y-73189992D01*
X193272161Y-73189989D01*
X193267865Y-73189210D01*
X193249060Y-73184247D01*
X193244926Y-73182800D01*
X193244921Y-73182799D01*
X193147614Y-73167387D01*
X193050692Y-73149798D01*
X193050689Y-73149798D01*
X193046314Y-73149798D01*
X193026911Y-73148270D01*
X193022602Y-73147587D01*
X192924120Y-73149798D01*
X188411464Y-73149798D01*
X188379371Y-73145573D01*
X188226697Y-73104664D01*
X188226693Y-73104663D01*
X188226692Y-73104663D01*
X188226691Y-73104662D01*
X188226686Y-73104662D01*
X188000002Y-73084830D01*
X187999998Y-73084830D01*
X187773313Y-73104662D01*
X187773302Y-73104664D01*
X187620629Y-73145573D01*
X187588536Y-73149798D01*
X181693845Y-73149798D01*
X181655399Y-73153258D01*
X181525813Y-73164920D01*
X181525807Y-73164921D01*
X181308839Y-73224801D01*
X181308826Y-73224806D01*
X181106033Y-73322465D01*
X181106025Y-73322469D01*
X180923927Y-73454771D01*
X180923925Y-73454772D01*
X180768366Y-73617474D01*
X180644363Y-73805331D01*
X180555899Y-74012302D01*
X180555895Y-74012315D01*
X180505810Y-74231755D01*
X180505808Y-74231766D01*
X180495710Y-74456623D01*
X180495710Y-74456628D01*
X180525925Y-74679685D01*
X180528457Y-74687477D01*
X180530454Y-74757317D01*
X180494376Y-74817151D01*
X180431676Y-74847981D01*
X180410527Y-74849798D01*
X176312230Y-74849798D01*
X176245191Y-74830113D01*
X176224549Y-74813479D01*
X175662770Y-74251700D01*
X175632521Y-74202339D01*
X175597738Y-74095290D01*
X175577181Y-74032019D01*
X175577178Y-74032013D01*
X175482533Y-73868082D01*
X175355871Y-73727410D01*
X175258905Y-73656960D01*
X175202734Y-73616149D01*
X175202729Y-73616146D01*
X175029807Y-73539155D01*
X175029802Y-73539153D01*
X174884001Y-73508163D01*
X174844646Y-73499798D01*
X174655354Y-73499798D01*
X174622897Y-73506696D01*
X174470197Y-73539153D01*
X174470192Y-73539155D01*
X174297270Y-73616146D01*
X174297265Y-73616149D01*
X174144129Y-73727409D01*
X174017466Y-73868083D01*
X173922821Y-74032013D01*
X173922818Y-74032020D01*
X173867479Y-74202337D01*
X173864326Y-74212042D01*
X173844540Y-74400298D01*
X172164920Y-74400298D01*
X171421580Y-73656958D01*
X171303407Y-73560600D01*
X171123049Y-73466389D01*
X170927418Y-73410411D01*
X170927417Y-73410410D01*
X170927416Y-73410410D01*
X170724525Y-73394960D01*
X170724522Y-73394960D01*
X170522678Y-73420666D01*
X170522670Y-73420668D01*
X170330129Y-73486481D01*
X170330117Y-73486487D01*
X170154778Y-73589704D01*
X170154771Y-73589709D01*
X170003787Y-73726118D01*
X170003787Y-73726119D01*
X169883353Y-73890126D01*
X169883349Y-73890133D01*
X169798397Y-74075023D01*
X169798393Y-74075035D01*
X169752396Y-74273243D01*
X169747242Y-74476656D01*
X143303363Y-74476656D01*
X144546410Y-73233608D01*
X144548877Y-73231275D01*
X144587253Y-73196981D01*
X144771229Y-73035662D01*
X144776198Y-73031736D01*
X144872211Y-72963613D01*
X145023537Y-72862501D01*
X145027938Y-72859821D01*
X145140202Y-72797776D01*
X145142721Y-72796460D01*
X145295917Y-72720910D01*
X145299536Y-72719270D01*
X145420576Y-72669135D01*
X145424240Y-72667756D01*
X145585817Y-72612906D01*
X145588430Y-72612086D01*
X145712121Y-72576453D01*
X145717148Y-72575231D01*
X145894642Y-72539921D01*
X146011780Y-72520021D01*
X146018065Y-72519283D01*
X146259653Y-72503442D01*
X146313576Y-72500414D01*
X146317198Y-72500319D01*
X153030688Y-72524957D01*
X153032026Y-72525356D01*
X153036015Y-72525109D01*
X153040056Y-72524992D01*
X153043820Y-72525006D01*
X153045140Y-72525011D01*
X153045140Y-72525012D01*
X153045640Y-72525014D01*
X153045640Y-72525013D01*
X153045735Y-72525013D01*
X153045739Y-72525014D01*
X153045739Y-72525013D01*
X153045744Y-72525014D01*
X153057561Y-72525132D01*
X153058267Y-72525064D01*
X153096857Y-72525218D01*
X153097135Y-72525187D01*
X153193384Y-72525540D01*
X153196888Y-72525553D01*
X153196888Y-72525552D01*
X153196891Y-72525553D01*
X153381634Y-72503807D01*
X153385050Y-72503501D01*
X153460440Y-72498833D01*
X153479323Y-72492309D01*
X153497320Y-72490191D01*
X153713472Y-72437754D01*
X153716165Y-72437165D01*
X153775188Y-72425650D01*
X153786760Y-72419975D01*
X153791296Y-72418875D01*
X154047172Y-72322905D01*
X154071418Y-72314774D01*
X154071209Y-72314373D01*
X154125706Y-72286025D01*
X154342900Y-72173047D01*
X154342907Y-72173042D01*
X154346115Y-72171120D01*
X154346156Y-72171189D01*
X154347290Y-72170528D01*
X154349090Y-72168807D01*
X154592484Y-72002121D01*
X154607515Y-71988902D01*
X154608204Y-71988374D01*
X154608430Y-71988097D01*
X154819646Y-71802357D01*
X155006930Y-71592514D01*
X155007136Y-71592385D01*
X155007755Y-71591590D01*
X155021069Y-71576672D01*
X155021073Y-71576668D01*
X155189545Y-71334501D01*
X155190833Y-71333465D01*
X155191942Y-71331593D01*
X155191874Y-71331552D01*
X155193823Y-71328354D01*
X155193824Y-71328350D01*
X155193828Y-71328346D01*
X155335392Y-71061012D01*
X155335392Y-71061009D01*
X155337145Y-71057701D01*
X155337545Y-71057913D01*
X155345852Y-71033732D01*
X155441686Y-70783815D01*
X182274223Y-70783815D01*
X182293293Y-71001788D01*
X182293293Y-71001792D01*
X182349922Y-71213135D01*
X182349924Y-71213139D01*
X182349925Y-71213143D01*
X182387725Y-71294206D01*
X182442397Y-71411451D01*
X182442398Y-71411452D01*
X182567902Y-71590690D01*
X182722623Y-71745411D01*
X182901861Y-71870915D01*
X183100170Y-71963388D01*
X183311523Y-72020020D01*
X183494426Y-72036021D01*
X183529498Y-72039090D01*
X183529500Y-72039090D01*
X183529502Y-72039090D01*
X183557754Y-72036618D01*
X183747477Y-72020020D01*
X183958830Y-71963388D01*
X184157139Y-71870915D01*
X184333814Y-71747205D01*
X184400018Y-71724879D01*
X184467786Y-71741889D01*
X184476060Y-71747206D01*
X184652112Y-71870479D01*
X184850340Y-71962914D01*
X184850349Y-71962918D01*
X185061605Y-72019523D01*
X185061615Y-72019525D01*
X185279499Y-72038588D01*
X185279501Y-72038588D01*
X185497384Y-72019525D01*
X185497394Y-72019523D01*
X185708650Y-71962918D01*
X185708659Y-71962914D01*
X185906887Y-71870479D01*
X185969072Y-71826937D01*
X185275948Y-71133813D01*
X185308505Y-71133813D01*
X185394716Y-71119427D01*
X185497447Y-71063832D01*
X185576560Y-70977892D01*
X185623482Y-70870921D01*
X185630700Y-70783813D01*
X185633053Y-70783813D01*
X186322624Y-71473385D01*
X186366166Y-71411200D01*
X186458601Y-71212972D01*
X186458605Y-71212963D01*
X186515210Y-71001707D01*
X186515212Y-71001697D01*
X186534275Y-70783813D01*
X186534275Y-70783812D01*
X186515212Y-70565928D01*
X186515210Y-70565918D01*
X186458605Y-70354662D01*
X186458601Y-70354653D01*
X186366168Y-70156428D01*
X186322623Y-70094241D01*
X185633053Y-70783812D01*
X185633053Y-70783813D01*
X185630700Y-70783813D01*
X185633128Y-70754511D01*
X185604453Y-70641275D01*
X185540564Y-70543486D01*
X185448385Y-70471741D01*
X185337905Y-70433813D01*
X185275947Y-70433813D01*
X185279500Y-70430260D01*
X185969072Y-69740687D01*
X185969071Y-69740686D01*
X185906891Y-69697148D01*
X185708659Y-69604711D01*
X185708650Y-69604707D01*
X185497394Y-69548102D01*
X185497384Y-69548100D01*
X185279501Y-69529038D01*
X185279499Y-69529038D01*
X185061615Y-69548100D01*
X185061605Y-69548102D01*
X184850349Y-69604707D01*
X184850340Y-69604711D01*
X184652112Y-69697146D01*
X184652108Y-69697148D01*
X184476058Y-69820420D01*
X184409852Y-69842747D01*
X184342085Y-69825737D01*
X184333813Y-69820420D01*
X184157763Y-69697148D01*
X184157145Y-69696715D01*
X184157139Y-69696711D01*
X184157138Y-69696711D01*
X183958830Y-69604238D01*
X183958826Y-69604237D01*
X183958822Y-69604235D01*
X183747477Y-69547606D01*
X183529502Y-69528536D01*
X183529498Y-69528536D01*
X183384181Y-69541249D01*
X183311523Y-69547606D01*
X183311520Y-69547606D01*
X183100177Y-69604235D01*
X183100168Y-69604239D01*
X182901861Y-69696711D01*
X182901857Y-69696713D01*
X182722621Y-69822215D01*
X182567902Y-69976934D01*
X182442400Y-70156170D01*
X182442398Y-70156174D01*
X182349926Y-70354481D01*
X182349922Y-70354490D01*
X182293293Y-70565833D01*
X182293293Y-70565837D01*
X182274223Y-70783810D01*
X182274223Y-70783815D01*
X155441686Y-70783815D01*
X155443700Y-70778563D01*
X155444832Y-70774040D01*
X155450060Y-70765134D01*
X155462541Y-70703574D01*
X155463162Y-70700834D01*
X155464340Y-70696131D01*
X155517174Y-70485119D01*
X155519423Y-70467143D01*
X155525802Y-70452470D01*
X155531310Y-70372941D01*
X155531642Y-70369523D01*
X155535586Y-70338009D01*
X155554742Y-70184957D01*
X155555230Y-70052051D01*
X155555233Y-70052041D01*
X155555299Y-70033807D01*
X155555300Y-70033806D01*
X155555321Y-70028075D01*
X155555468Y-70024044D01*
X155555800Y-70019245D01*
X155555362Y-70016824D01*
X155555434Y-69997167D01*
X155568363Y-66474159D01*
X160875202Y-66474159D01*
X160885319Y-66712341D01*
X160885319Y-66712345D01*
X160935545Y-66945393D01*
X161024435Y-67166601D01*
X161024436Y-67166603D01*
X161149431Y-67369608D01*
X161306936Y-67548568D01*
X161492420Y-67698336D01*
X161700546Y-67814603D01*
X161826451Y-67859088D01*
X161925329Y-67894024D01*
X162160290Y-67934312D01*
X162160298Y-67934312D01*
X162160300Y-67934313D01*
X162160301Y-67934313D01*
X162339002Y-67934313D01*
X162517036Y-67919160D01*
X162517039Y-67919159D01*
X162517041Y-67919159D01*
X162747749Y-67859088D01*
X162880473Y-67799092D01*
X162964980Y-67760893D01*
X162964981Y-67760891D01*
X162964986Y-67760890D01*
X163162503Y-67627392D01*
X163334618Y-67462434D01*
X163476379Y-67270760D01*
X163583707Y-67057887D01*
X163653516Y-66829936D01*
X163683798Y-66593467D01*
X163678730Y-66474159D01*
X186875202Y-66474159D01*
X186885319Y-66712341D01*
X186885319Y-66712345D01*
X186935545Y-66945393D01*
X187024435Y-67166601D01*
X187024436Y-67166603D01*
X187149431Y-67369608D01*
X187306936Y-67548568D01*
X187492420Y-67698336D01*
X187700546Y-67814603D01*
X187826451Y-67859088D01*
X187925329Y-67894024D01*
X188160290Y-67934312D01*
X188160298Y-67934312D01*
X188160300Y-67934313D01*
X188160301Y-67934313D01*
X188339002Y-67934313D01*
X188517036Y-67919160D01*
X188517039Y-67919159D01*
X188517041Y-67919159D01*
X188747749Y-67859088D01*
X188880473Y-67799092D01*
X188964980Y-67760893D01*
X188964981Y-67760891D01*
X188964986Y-67760890D01*
X189162503Y-67627392D01*
X189334618Y-67462434D01*
X189476379Y-67270760D01*
X189583707Y-67057887D01*
X189653516Y-66829936D01*
X189683798Y-66593467D01*
X189673680Y-66355281D01*
X189623454Y-66122232D01*
X189534564Y-65901023D01*
X189409569Y-65698018D01*
X189252064Y-65519058D01*
X189066580Y-65369290D01*
X188952630Y-65305633D01*
X188858455Y-65253023D01*
X188633670Y-65173601D01*
X188398709Y-65133313D01*
X188398700Y-65133313D01*
X188220003Y-65133313D01*
X188219998Y-65133313D01*
X188041963Y-65148465D01*
X187811251Y-65208537D01*
X187594019Y-65306732D01*
X187594011Y-65306737D01*
X187396506Y-65440226D01*
X187396497Y-65440234D01*
X187224381Y-65605192D01*
X187082623Y-65796863D01*
X187082620Y-65796867D01*
X186975296Y-66009733D01*
X186975293Y-66009739D01*
X186905483Y-66237691D01*
X186875202Y-66474159D01*
X163678730Y-66474159D01*
X163673680Y-66355281D01*
X163623454Y-66122232D01*
X163534564Y-65901023D01*
X163409569Y-65698018D01*
X163252064Y-65519058D01*
X163066580Y-65369290D01*
X162952630Y-65305633D01*
X162858455Y-65253023D01*
X162633670Y-65173601D01*
X162398709Y-65133313D01*
X162398700Y-65133313D01*
X162220003Y-65133313D01*
X162219998Y-65133313D01*
X162041963Y-65148465D01*
X161811251Y-65208537D01*
X161594019Y-65306732D01*
X161594011Y-65306737D01*
X161396506Y-65440226D01*
X161396497Y-65440234D01*
X161224381Y-65605192D01*
X161082623Y-65796863D01*
X161082620Y-65796867D01*
X160975296Y-66009733D01*
X160975293Y-66009739D01*
X160905483Y-66237691D01*
X160875202Y-66474159D01*
X155568363Y-66474159D01*
X155588204Y-61067763D01*
X157225287Y-61067763D01*
X157254913Y-61337013D01*
X157254915Y-61337024D01*
X157323426Y-61599082D01*
X157323428Y-61599088D01*
X157429370Y-61848390D01*
X157501498Y-61966575D01*
X157570479Y-62079605D01*
X157570486Y-62079615D01*
X157743753Y-62287819D01*
X157743759Y-62287824D01*
X157945498Y-62468582D01*
X158171410Y-62618044D01*
X158416676Y-62733020D01*
X158416683Y-62733022D01*
X158416685Y-62733023D01*
X158676057Y-62811057D01*
X158676064Y-62811058D01*
X158676069Y-62811060D01*
X158944061Y-62850500D01*
X158944066Y-62850500D01*
X159147136Y-62850500D01*
X159198633Y-62846730D01*
X159349656Y-62835677D01*
X159462258Y-62810593D01*
X159614046Y-62776782D01*
X159614048Y-62776781D01*
X159614053Y-62776780D01*
X159867058Y-62680014D01*
X160103277Y-62547441D01*
X160317677Y-62381888D01*
X160505686Y-62186881D01*
X160663299Y-61966579D01*
X160737287Y-61822669D01*
X160787149Y-61725690D01*
X160787151Y-61725684D01*
X160787156Y-61725675D01*
X160874618Y-61469305D01*
X160923819Y-61202933D01*
X160928759Y-61067763D01*
X189625287Y-61067763D01*
X189654913Y-61337013D01*
X189654915Y-61337024D01*
X189723426Y-61599082D01*
X189723428Y-61599088D01*
X189829370Y-61848390D01*
X189901498Y-61966575D01*
X189970479Y-62079605D01*
X189970486Y-62079615D01*
X190143753Y-62287819D01*
X190143759Y-62287824D01*
X190345498Y-62468582D01*
X190571410Y-62618044D01*
X190816676Y-62733020D01*
X190816683Y-62733022D01*
X190816685Y-62733023D01*
X191076057Y-62811057D01*
X191076064Y-62811058D01*
X191076069Y-62811060D01*
X191344061Y-62850500D01*
X191344066Y-62850500D01*
X191547136Y-62850500D01*
X191598633Y-62846730D01*
X191749656Y-62835677D01*
X191862258Y-62810593D01*
X192014046Y-62776782D01*
X192014048Y-62776781D01*
X192014053Y-62776780D01*
X192267058Y-62680014D01*
X192503277Y-62547441D01*
X192717677Y-62381888D01*
X192905686Y-62186881D01*
X193063299Y-61966579D01*
X193137287Y-61822669D01*
X193187149Y-61725690D01*
X193187151Y-61725684D01*
X193187156Y-61725675D01*
X193274618Y-61469305D01*
X193323819Y-61202933D01*
X193333712Y-60932235D01*
X193304086Y-60662982D01*
X193235572Y-60400912D01*
X193129630Y-60151610D01*
X192988518Y-59920390D01*
X192987345Y-59918981D01*
X192815246Y-59712180D01*
X192815240Y-59712175D01*
X192613502Y-59531418D01*
X192387592Y-59381957D01*
X192325279Y-59352746D01*
X192142324Y-59266980D01*
X192142319Y-59266978D01*
X192142314Y-59266976D01*
X191882942Y-59188942D01*
X191882928Y-59188939D01*
X191767291Y-59171921D01*
X191614939Y-59149500D01*
X191411869Y-59149500D01*
X191411864Y-59149500D01*
X191209344Y-59164323D01*
X191209331Y-59164325D01*
X190944953Y-59223217D01*
X190944946Y-59223220D01*
X190691939Y-59319987D01*
X190455726Y-59452557D01*
X190241322Y-59618112D01*
X190053322Y-59813109D01*
X190053316Y-59813116D01*
X189895702Y-60033419D01*
X189895699Y-60033424D01*
X189771850Y-60274309D01*
X189771843Y-60274327D01*
X189684384Y-60530685D01*
X189684381Y-60530699D01*
X189635181Y-60797068D01*
X189635180Y-60797075D01*
X189625287Y-61067763D01*
X160928759Y-61067763D01*
X160933712Y-60932235D01*
X160904086Y-60662982D01*
X160835572Y-60400912D01*
X160729630Y-60151610D01*
X160588518Y-59920390D01*
X160587345Y-59918981D01*
X160415246Y-59712180D01*
X160415240Y-59712175D01*
X160213502Y-59531418D01*
X159987592Y-59381957D01*
X159925279Y-59352746D01*
X159742324Y-59266980D01*
X159742319Y-59266978D01*
X159742314Y-59266976D01*
X159482942Y-59188942D01*
X159482928Y-59188939D01*
X159367291Y-59171921D01*
X159214939Y-59149500D01*
X159011869Y-59149500D01*
X159011864Y-59149500D01*
X158809344Y-59164323D01*
X158809331Y-59164325D01*
X158544953Y-59223217D01*
X158544946Y-59223220D01*
X158291939Y-59319987D01*
X158055726Y-59452557D01*
X157841322Y-59618112D01*
X157653322Y-59813109D01*
X157653316Y-59813116D01*
X157495702Y-60033419D01*
X157495699Y-60033424D01*
X157371850Y-60274309D01*
X157371843Y-60274327D01*
X157284384Y-60530685D01*
X157284381Y-60530699D01*
X157235181Y-60797068D01*
X157235180Y-60797075D01*
X157225287Y-61067763D01*
X155588204Y-61067763D01*
X155588480Y-60992576D01*
X155588563Y-60989636D01*
X155596585Y-60837344D01*
X155606338Y-60662975D01*
X155607314Y-60645508D01*
X155607916Y-60639699D01*
X155633676Y-60469904D01*
X155661884Y-60295507D01*
X155662978Y-60290235D01*
X155705964Y-60120829D01*
X155751506Y-59952901D01*
X155753016Y-59948116D01*
X155812826Y-59782440D01*
X155875275Y-59621096D01*
X155877083Y-59616899D01*
X155953173Y-59457095D01*
X156031907Y-59303534D01*
X156033947Y-59299871D01*
X156125566Y-59147831D01*
X156219802Y-59003442D01*
X156221966Y-59000341D01*
X156328253Y-58857664D01*
X156437063Y-58723850D01*
X156439250Y-58721309D01*
X156558194Y-58590573D01*
X156560196Y-58588478D01*
X156681458Y-58467646D01*
X156683598Y-58465616D01*
X156814716Y-58347172D01*
X156817290Y-58344975D01*
X156951481Y-58236647D01*
X157094561Y-58130847D01*
X157097594Y-58128746D01*
X157242361Y-58034994D01*
X157394717Y-57943921D01*
X157398416Y-57941879D01*
X157552237Y-57863700D01*
X157712279Y-57788192D01*
X157716516Y-57786384D01*
X157878067Y-57724512D01*
X158043974Y-57665284D01*
X158048742Y-57663799D01*
X158216853Y-57618847D01*
X158386397Y-57576466D01*
X158391667Y-57575392D01*
X158547574Y-57550742D01*
X158566247Y-57547791D01*
X158594269Y-57543641D01*
X158736053Y-57522645D01*
X158741841Y-57522066D01*
X158932449Y-57512079D01*
X159066450Y-57505498D01*
X159086154Y-57504531D01*
X159089196Y-57504456D01*
X159139332Y-57504456D01*
X159139383Y-57504448D01*
X191477988Y-57500500D01*
X191481017Y-57500574D01*
G37*
%TD.AperFunction*%
%TD*%
M02*
