%TF.GenerationSoftware,KiCad,Pcbnew,8.0.1*%
%TF.CreationDate,2024-08-08T22:34:15+09:00*%
%TF.ProjectId,NeoPixel-20240808,4e656f50-6978-4656-9c2d-323032343038,rev?*%
%TF.SameCoordinates,Original*%
%TF.FileFunction,Soldermask,Top*%
%TF.FilePolarity,Negative*%
%FSLAX46Y46*%
G04 Gerber Fmt 4.6, Leading zero omitted, Abs format (unit mm)*
G04 Created by KiCad (PCBNEW 8.0.1) date 2024-08-08 22:34:15*
%MOMM*%
%LPD*%
G01*
G04 APERTURE LIST*
G04 Aperture macros list*
%AMRoundRect*
0 Rectangle with rounded corners*
0 $1 Rounding radius*
0 $2 $3 $4 $5 $6 $7 $8 $9 X,Y pos of 4 corners*
0 Add a 4 corners polygon primitive as box body*
4,1,4,$2,$3,$4,$5,$6,$7,$8,$9,$2,$3,0*
0 Add four circle primitives for the rounded corners*
1,1,$1+$1,$2,$3*
1,1,$1+$1,$4,$5*
1,1,$1+$1,$6,$7*
1,1,$1+$1,$8,$9*
0 Add four rect primitives between the rounded corners*
20,1,$1+$1,$2,$3,$4,$5,0*
20,1,$1+$1,$4,$5,$6,$7,0*
20,1,$1+$1,$6,$7,$8,$9,0*
20,1,$1+$1,$8,$9,$2,$3,0*%
%AMRotRect*
0 Rectangle, with rotation*
0 The origin of the aperture is its center*
0 $1 length*
0 $2 width*
0 $3 Rotation angle, in degrees counterclockwise*
0 Add horizontal line*
21,1,$1,$2,0,0,$3*%
G04 Aperture macros list end*
%ADD10RoundRect,0.225000X-0.078444X-0.327065X0.317024X-0.112344X0.078444X0.327065X-0.317024X0.112344X0*%
%ADD11RoundRect,0.225000X-0.197635X-0.272149X0.249900X-0.225112X0.197635X0.272149X-0.249900X0.225112X0*%
%ADD12RoundRect,0.225000X-0.327065X0.078444X-0.112344X-0.317024X0.327065X-0.078444X0.112344X0.317024X0*%
%ADD13RoundRect,0.225000X0.078444X0.327065X-0.317024X0.112344X-0.078444X-0.327065X0.317024X-0.112344X0*%
%ADD14RotRect,1.500000X0.900000X315.000000*%
%ADD15C,1.300000*%
%ADD16RotRect,1.500000X0.900000X135.000000*%
%ADD17RoundRect,0.225000X-0.272149X0.197635X-0.225112X-0.249900X0.272149X-0.197635X0.225112X0.249900X0*%
%ADD18RoundRect,0.225000X0.332188X0.052689X-0.017528X0.335884X-0.332188X-0.052689X0.017528X-0.335884X0*%
%ADD19C,3.200000*%
%ADD20RoundRect,0.225000X0.175801X-0.286738X0.303608X0.144731X-0.175801X0.286738X-0.303608X-0.144731X0*%
%ADD21RotRect,1.500000X0.900000X22.500000*%
%ADD22RoundRect,0.225000X-0.286738X-0.175801X0.144731X-0.303608X0.286738X0.175801X-0.144731X0.303608X0*%
%ADD23RotRect,1.500000X0.900000X292.500000*%
%ADD24R,1.500000X0.900000*%
%ADD25O,2.400000X1.600000*%
%ADD26R,2.400000X1.600000*%
%ADD27RotRect,1.500000X0.900000X225.000000*%
%ADD28RotRect,1.500000X0.900000X45.000000*%
%ADD29RotRect,1.500000X0.900000X157.500000*%
%ADD30RotRect,1.500000X0.900000X337.500000*%
%ADD31RoundRect,0.225000X-0.052689X0.332188X-0.335884X-0.017528X0.052689X-0.332188X0.335884X0.017528X0*%
%ADD32RoundRect,0.225000X-0.332188X-0.052689X0.017528X-0.335884X0.332188X0.052689X-0.017528X0.335884X0*%
%ADD33RotRect,1.500000X0.900000X247.500000*%
%ADD34RoundRect,0.225000X-0.175801X0.286738X-0.303608X-0.144731X0.175801X-0.286738X0.303608X0.144731X0*%
%ADD35RotRect,1.500000X0.900000X202.500000*%
%ADD36R,0.900000X1.500000*%
%ADD37RoundRect,0.225000X0.327065X-0.078444X0.112344X0.317024X-0.327065X0.078444X-0.112344X-0.317024X0*%
%ADD38RotRect,1.500000X0.900000X112.500000*%
%ADD39RotRect,1.500000X0.900000X67.500000*%
%ADD40RoundRect,0.225000X0.272149X-0.197635X0.225112X0.249900X-0.272149X0.197635X-0.225112X-0.249900X0*%
%ADD41RoundRect,0.225000X0.197635X0.272149X-0.249900X0.225112X-0.197635X-0.272149X0.249900X-0.225112X0*%
%ADD42RoundRect,0.225000X0.286738X0.175801X-0.144731X0.303608X-0.286738X-0.175801X0.144731X-0.303608X0*%
%ADD43RoundRect,0.225000X0.052689X-0.332188X0.335884X0.017528X-0.052689X0.332188X-0.335884X-0.017528X0*%
G04 APERTURE END LIST*
D10*
%TO.C,C14*%
X42490807Y23070627D03*
X43852973Y23810223D03*
%TD*%
D11*
%TO.C,C13*%
X48085135Y5053950D03*
X49626643Y5215970D03*
%TD*%
D12*
%TO.C,C10*%
X23070627Y-42490807D03*
X23810223Y-43852973D03*
%TD*%
D13*
%TO.C,C6*%
X-42490807Y-23070627D03*
X-43852973Y-23810223D03*
%TD*%
D14*
%TO.C,D15*%
X33552217Y37017040D03*
D15*
X35107851Y35107851D03*
D14*
X31218764Y34683587D03*
D15*
X33127953Y33127953D03*
D14*
X34683587Y31218764D03*
X37017040Y33552217D03*
%TD*%
D16*
%TO.C,D7*%
X-33552217Y-37017040D03*
D15*
X-35107851Y-35107851D03*
D16*
X-31218764Y-34683587D03*
D15*
X-33127953Y-33127953D03*
D16*
X-34683587Y-31218764D03*
X-37017040Y-33552217D03*
%TD*%
D17*
%TO.C,C9*%
X5053950Y-48085135D03*
X5215970Y-49626643D03*
%TD*%
D18*
%TO.C,C3*%
X-37575006Y30427642D03*
X-38779582Y31403088D03*
%TD*%
D19*
%TO.C,REF\u002A\u002A*%
X-30052038Y30052038D03*
%TD*%
D20*
%TO.C,C16*%
X13732143Y46358935D03*
X14172367Y47845105D03*
%TD*%
D21*
%TO.C,D2*%
X-21359408Y45164014D03*
D15*
X-19000232Y45870618D03*
D21*
X-20096552Y42115211D03*
D15*
X-17928718Y43283756D03*
D21*
X-15569542Y43990360D03*
X-16832398Y47039163D03*
%TD*%
D22*
%TO.C,C12*%
X46358935Y-13732143D03*
X47845105Y-14172367D03*
%TD*%
D23*
%TO.C,D14*%
X45164014Y21359408D03*
D15*
X45870618Y19000232D03*
D23*
X42115211Y20096552D03*
D15*
X43283756Y17928718D03*
D23*
X43990360Y15569542D03*
X47039163Y16832398D03*
%TD*%
D24*
%TO.C,D9*%
X2450000Y-49900000D03*
D15*
X0Y-49650000D03*
D24*
X2450000Y-46600000D03*
D15*
X0Y-46850000D03*
D24*
X-2450000Y-46600000D03*
X-2450000Y-49900000D03*
%TD*%
D19*
%TO.C,REF\u002A\u002A*%
X-30052039Y-30052038D03*
%TD*%
D25*
%TO.C,J1*%
X-6000000Y42250000D03*
X-3000000Y42250000D03*
X0Y42250000D03*
D26*
X3000000Y42250000D03*
X6000000Y42250000D03*
%TD*%
D27*
%TO.C,D11*%
X37017040Y-33552217D03*
D15*
X35107851Y-35107851D03*
D27*
X34683587Y-31218764D03*
D15*
X33127953Y-33127953D03*
D27*
X31218764Y-34683587D03*
X33552217Y-37017040D03*
%TD*%
D28*
%TO.C,D3*%
X-37017040Y33552217D03*
D15*
X-35107851Y35107851D03*
D28*
X-34683587Y31218764D03*
D15*
X-33127953Y33127953D03*
D28*
X-31218764Y34683587D03*
X-33552217Y37017040D03*
%TD*%
D29*
%TO.C,D8*%
X-16832398Y-47039163D03*
D15*
X-19000232Y-45870618D03*
D29*
X-15569542Y-43990360D03*
D15*
X-17928718Y-43283756D03*
D29*
X-20096552Y-42115211D03*
X-21359408Y-45164014D03*
%TD*%
D30*
%TO.C,D16*%
X16832398Y47039163D03*
D15*
X19000232Y45870618D03*
D30*
X15569542Y43990360D03*
D15*
X17928718Y43283756D03*
D30*
X20096552Y42115211D03*
X21359408Y45164014D03*
%TD*%
D31*
%TO.C,C7*%
X-30427642Y-37575006D03*
X-31403088Y-38779582D03*
%TD*%
D32*
%TO.C,C11*%
X37575006Y-30427642D03*
X38779582Y-31403088D03*
%TD*%
D33*
%TO.C,D12*%
X47039163Y-16832398D03*
D15*
X45870618Y-19000232D03*
D33*
X43990360Y-15569542D03*
D15*
X43283756Y-17928718D03*
D33*
X42115211Y-20096552D03*
X45164014Y-21359408D03*
%TD*%
D34*
%TO.C,C8*%
X-13732143Y-46358935D03*
X-14172367Y-47845105D03*
%TD*%
D24*
%TO.C,D1*%
X-2450000Y49900000D03*
D15*
X0Y49650000D03*
D24*
X-2450000Y46600000D03*
D15*
X0Y46850000D03*
D24*
X2450000Y46600000D03*
X2450000Y49900000D03*
%TD*%
D35*
%TO.C,D10*%
X21359408Y-45164014D03*
D15*
X19000232Y-45870618D03*
D35*
X20096552Y-42115211D03*
D15*
X17928718Y-43283756D03*
D35*
X15569542Y-43990360D03*
X16832398Y-47039163D03*
%TD*%
D36*
%TO.C,D5*%
X-49900000Y-2450000D03*
D15*
X-49650000Y0D03*
D36*
X-46600000Y-2450000D03*
D15*
X-46850000Y0D03*
D36*
X-46600000Y2450000D03*
X-49900000Y2450000D03*
%TD*%
D19*
%TO.C,REF\u002A\u002A*%
X30052038Y30052038D03*
%TD*%
D37*
%TO.C,C2*%
X-23070627Y42490807D03*
X-23810223Y43852973D03*
%TD*%
D38*
%TO.C,D6*%
X-45164014Y-21359408D03*
D15*
X-45870618Y-19000232D03*
D38*
X-42115211Y-20096552D03*
D15*
X-43283756Y-17928718D03*
D38*
X-43990360Y-15569542D03*
X-47039163Y-16832398D03*
%TD*%
D39*
%TO.C,D4*%
X-47039163Y16832398D03*
D15*
X-45870618Y19000232D03*
D39*
X-43990360Y15569542D03*
D15*
X-43283756Y17928718D03*
D39*
X-42115211Y20096552D03*
X-45164014Y21359408D03*
%TD*%
D36*
%TO.C,D13*%
X49900000Y2450000D03*
D15*
X49650000Y0D03*
D36*
X46600000Y2450000D03*
D15*
X46850000Y0D03*
D36*
X46600000Y-2450000D03*
X49900000Y-2450000D03*
%TD*%
D40*
%TO.C,C1*%
X-5053950Y48085135D03*
X-5215970Y49626643D03*
%TD*%
D41*
%TO.C,C5*%
X-48085135Y-5053950D03*
X-49626643Y-5215970D03*
%TD*%
D19*
%TO.C,REF\u002A\u002A*%
X30052038Y-30052038D03*
%TD*%
D42*
%TO.C,C4*%
X-46358935Y13732143D03*
X-47845105Y14172367D03*
%TD*%
D43*
%TO.C,C15*%
X30427642Y37575006D03*
X31403088Y38779582D03*
%TD*%
M02*
