%TF.GenerationSoftware,KiCad,Pcbnew,8.0.1*%
%TF.CreationDate,2024-11-13T22:52:29+09:00*%
%TF.ProjectId,NeoPixel-20240808,4e656f50-6978-4656-9c2d-323032343038,rev?*%
%TF.SameCoordinates,Original*%
%TF.FileFunction,Profile,NP*%
%FSLAX46Y46*%
G04 Gerber Fmt 4.6, Leading zero omitted, Abs format (unit mm)*
G04 Created by KiCad (PCBNEW 8.0.1) date 2024-11-13 22:52:29*
%MOMM*%
%LPD*%
G01*
G04 APERTURE LIST*
%TA.AperFunction,Profile*%
%ADD10C,0.200000*%
%TD*%
G04 APERTURE END LIST*
D10*
X56000001Y0D02*
G75*
G02*
X-56000001Y0I-56000001J0D01*
G01*
X-56000001Y0D02*
G75*
G02*
X56000001Y0I56000001J0D01*
G01*
X-49808687Y-8327347D02*
G75*
G02*
X-48329222Y-6579979I1479487J247347D01*
G01*
X49808688Y-8327347D02*
G75*
G02*
X-49808688Y-8327347I-49808688J8327347D01*
G01*
X48329222Y-6580000D02*
G75*
G02*
X49808688Y-8327347I0J-1500000D01*
G01*
X46000001Y-6580000D02*
X48329222Y-6580000D01*
X46000001Y-6580000D02*
G75*
G02*
X44500001Y-5080000I1J1500001D01*
G01*
X44500001Y5080000D02*
X44500001Y-5080000D01*
X44500001Y5080000D02*
G75*
G02*
X46000001Y6580000I1500001J-1D01*
G01*
X48329222Y6580000D02*
X46000001Y6580000D01*
X49808688Y8327347D02*
G75*
G02*
X48329222Y6580000I-1479466J-247347D01*
G01*
X8327347Y49808688D02*
G75*
G02*
X49808688Y8327347I-8327347J-49808688D01*
G01*
X6580000Y48329222D02*
G75*
G02*
X8327347Y49808688I1500000J0D01*
G01*
X6580000Y46000001D02*
X6580000Y48329222D01*
X6580000Y46000001D02*
G75*
G02*
X5080000Y44500001I-1500001J1D01*
G01*
X-5080000Y44500001D02*
X5080000Y44500001D01*
X-5080000Y44500001D02*
G75*
G02*
X-6579999Y46000001I0J1499999D01*
G01*
X-6580000Y48329222D02*
X-6580000Y46000001D01*
X-8327347Y49808688D02*
G75*
G02*
X-6579998Y48329222I247347J-1479468D01*
G01*
X-49808688Y8327347D02*
G75*
G02*
X-8327347Y49808688I49808689J-8327348D01*
G01*
X-48329222Y6580000D02*
G75*
G02*
X-49808667Y8327343I22J1500000D01*
G01*
X-46000001Y6580000D02*
X-48329222Y6580000D01*
X-46000001Y6580000D02*
G75*
G02*
X-44500000Y5080000I1J-1500000D01*
G01*
X-44500001Y-5080000D02*
X-44500001Y5080000D01*
X-44500001Y-5080000D02*
G75*
G02*
X-46000001Y-6579999I-1499999J0D01*
G01*
X-48329222Y-6580000D02*
X-46000001Y-6580000D01*
X-48450001Y-2540000D02*
X-48450001Y2540000D01*
X-48450001Y-2540000D02*
G75*
G02*
X-50550001Y-2540000I-1050000J0D01*
G01*
X-50550001Y2540000D02*
X-50550001Y-2540000D01*
X-50550001Y2540000D02*
G75*
G02*
X-48450001Y2540000I1050000J0D01*
G01*
X48450001Y2540000D02*
X48450001Y-2540000D01*
X48450001Y2540000D02*
G75*
G02*
X50550001Y2540000I1050000J0D01*
G01*
X50550001Y-2540000D02*
X50550001Y2540000D01*
X50550001Y-2540000D02*
G75*
G02*
X48450001Y-2540000I-1050000J0D01*
G01*
X-2540000Y48450001D02*
X2540000Y48450001D01*
X-2540000Y48450001D02*
G75*
G02*
X-2540000Y50549999I0J1049999D01*
G01*
X2540000Y50550001D02*
X-2540000Y50550001D01*
X2540000Y50550001D02*
G75*
G02*
X2540000Y48450001I0J-1050000D01*
G01*
M02*
