<?xml version="1.0" standalone="no"?>
<!DOCTYPE svg PUBLIC "-//W3C//DTD SVG 20010904//EN"
 "http://www.w3.org/TR/2001/REC-SVG-20010904/DTD/svg10.dtd">
<svg version="1.0" xmlns="http://www.w3.org/2000/svg"
 width="530.000000pt" height="316.000000pt" viewBox="0 0 530.000000 316.000000"
 preserveAspectRatio="xMidYMid meet">

<g transform="translate(0.000000,316.000000) scale(0.100000,-0.100000)"
fill="#000000" stroke="none">
<path d="M300 1795 l0 -1065 2350 0 2350 0 0 1065 0 1065 -2350 0 -2350 0 0
-1065z m1040 175 l0 -400 260 0 260 0 0 -135 0 -135 -425 0 -425 0 0 535 0
535 165 0 165 0 0 -400z m960 300 l0 -100 -150 0 -150 0 0 100 0 100 150 0
150 0 0 -100z m895 -214 c24 -14 52 -38 62 -54 47 -68 48 -73 51 -394 l3 -308
-150 0 -150 0 -3 256 -3 256 -28 24 c-60 51 -154 17 -177 -64 -5 -20 -10 -135
-10 -254 l0 -218 -150 0 -150 0 0 390 0 390 140 0 140 0 0 -62 0 -62 48 46
c59 57 97 77 170 86 79 10 154 -1 207 -32z m908 9 c73 -23 145 -80 185 -145
43 -72 52 -107 59 -217 l6 -93 -298 0 -297 0 6 -32 c14 -71 72 -118 144 -118
48 0 74 11 112 46 l25 23 137 -12 c75 -7 140 -16 144 -19 10 -11 -65 -104
-110 -136 -60 -42 -115 -60 -219 -73 -118 -15 -255 0 -330 34 -57 26 -126 92
-161 153 -49 87 -64 219 -36 332 26 110 126 217 240 258 95 34 284 33 393 -1z
m-1803 -375 l0 -390 -150 0 -150 0 0 390 0 390 150 0 150 0 0 -390z"/>
<path d="M3860 1912 c-43 -21 -70 -47 -84 -83 -29 -71 -33 -69 130 -69 l146 0
-7 33 c-11 48 -32 85 -60 103 -28 18 -102 28 -125 16z"/>
</g>
</svg>
