<?xml version="1.0" standalone="no"?>
<!DOCTYPE svg PUBLIC "-//W3C//DTD SVG 20010904//EN"
 "http://www.w3.org/TR/2001/REC-SVG-20010904/DTD/svg10.dtd">
<svg version="1.0" xmlns="http://www.w3.org/2000/svg"
 width="480.000000pt" height="316.000000pt" viewBox="0 0 480.000000 316.000000"
 preserveAspectRatio="xMidYMid meet">

<g transform="translate(0.000000,316.000000) scale(0.100000,-0.100000)"
fill="#000000" stroke="none">
<path d="M390 1795 l0 -1065 2010 0 2010 0 0 1065 0 1065 -2010 0 -2010 0 0
-1065z m951 295 c48 -151 102 -322 119 -380 l33 -104 117 378 c65 207 120 380
123 382 2 2 78 3 169 2 l164 -3 -197 -530 -197 -530 -183 0 -182 0 -198 525
c-110 289 -199 528 -199 533 0 4 77 6 172 5 l172 -3 87 -275z m1179 -255 l0
-535 -165 0 -165 0 0 535 0 535 165 0 165 0 0 -535z m751 249 l194 -285 6 143
c4 79 7 207 8 286 l1 142 155 0 155 0 0 -535 0 -535 -158 0 -157 0 -195 286
-195 285 -3 -285 -2 -286 -160 0 -160 0 0 535 0 535 158 0 158 0 195 -286z"/>
</g>
</svg>
