0
SECTION
2
HEADER
9
$INSUNITS
70
4
9
$ACADVER
1
AC1014
9
$HANDSEED
5
FFFF
0
ENDSEC
0
SECTION
2
TABLES
0
TABLE
2
VPORT
5
8
100
AcDbSymbolTable
0
ENDTAB
0
TABLE
2
LTYPE
5
5
100
AcDbSymbolTable
0
LTYPE
5
14
100
AcDbSymbolTableRecord
100
AcDbLinetypeTableRecord
2
BYBLOCK
70
0
0
LTYPE
5
15
100
AcDbSymbolTableRecord
100
AcDbLinetypeTableRecord
2
BYLAYER
70
0
0
ENDTAB
0
TABLE
2
LAYER
5
2
100
AcDbSymbolTable
70
2
0
LAYER
5
50
100
AcDbSymbolTableRecord
100
AcDbLayerTableRecord
2
0
70
0
6
CONTINUOUS
0
ENDTAB
0
TABLE
2
STYLE
5
3
100
AcDbSymbolTable
70
1
0
STYLE
5
11
100
AcDbSymbolTableRecord
100
AcDbTextStyleTableRecord
2
STANDARD
70
0
0
ENDTAB
0
TABLE
2
VIEW
5
6
100
AcDbSymbolTable
70
0
0
ENDTAB
0
TABLE
2
UCS
5
7
100
AcDbSymbolTable
70
0
0
ENDTAB
0
TABLE
2
APPID
5
9
100
AcDbSymbolTable
70
2
0
APPID
5
12
100
AcDbSymbolTableRecord
100
AcDbRegAppTableRecord
2
ACAD
70
0
0
ENDTAB
0
TABLE
2
DIMSTYLE
5
A
100
AcDbSymbolTable
70
1
0
ENDTAB
0
TABLE
2
BLOCK_RECORD
5
1
100
AcDbSymbolTable
70
1
0
BLOCK_RECORD
5
1F
100
AcDbSymbolTableRecord
100
AcDbBlockTableRecord
2
*MODEL_SPACE
0
BLOCK_RECORD
5
1B
100
AcDbSymbolTableRecord
100
AcDbBlockTableRecord
2
*PAPER_SPACE
0
ENDTAB
0
ENDSEC
0
SECTION
2
BLOCKS
0
BLOCK
5
20
100
AcDbEntity
100
AcDbBlockBegin
2
*MODEL_SPACE
0
ENDBLK
5
21
100
AcDbEntity
100
AcDbBlockEnd
0
BLOCK
5
1C
100
AcDbEntity
100
AcDbBlockBegin
2
*PAPER_SPACE
0
ENDBLK
5
1D
100
AcDbEntity
100
AcDbBlockEnd
0
ENDSEC
0
SECTION
2
ENTITIES
0
LWPOLYLINE
5
100
100
AcDbEntity
8
0
100
AcDbPolyline
90
8
70
1
43
0.0
10
8.3273469345632183
20
-49.808687769428232
42
12.045695873142433
10
-8.3273469345631881
20
-49.808687769428232
42
0.4636082192648982
10
-6.5800000000000036
20
-48.32922182052566
10
-6.5800000000000036
20
-46.000000737607479
42
-0.41421356237309503
10
-5.0800000000000001
20
-44.500000737607479
10
5.0800000000000001
20
-44.500000737607486
42
-0.41421356237309503
10
6.5799999999999965
20
-46.000000737607479
10
6.5799999999999939
20
-48.32922182052566
42
0.46360821926490686
0
CIRCLE
5
101
100
AcDbEntity
8
0
100
AcDbCircle
10
-1.6653345369377348e-15
20
-1.0408340855860843e-15
30
0
40
56.000000834465027
210
0
220
-0
230
1
0
LWPOLYLINE
5
102
100
AcDbEntity
8
0
100
AcDbPolyline
90
8
70
1
43
0.0
10
5.0800000000000001
20
-44.500001000000118
10
-5.0800000000000001
20
-44.500000999999997
42
0.41421333333343874
10
-6.5799999999998864
20
-46.000000999999997
10
-6.5800000000000045
20
-48.329222000000001
42
-0.46360818909728091
10
-8.3273469999999499
20
-49.808687999999563
42
-12.045695834780338
10
8.3273469999999286
20
-49.808687999999549
42
-0.46360818909728091
10
6.5800000000000018
20
-48.329222000000001
10
6.5800000000000001
20
-46.000000999999997
42
0.41421333333343874
0
LWPOLYLINE
5
103
100
AcDbEntity
8
0
100
AcDbPolyline
90
4
70
1
43
0.0
10
2.54
20
-50.550000999999526
42
0.99999904757842406
10
2.54
20
-48.450001000000491
10
-2.54
20
-48.450001
42
0.99999999999999989
10
-2.54
20
-50.550001000000009
0
CIRCLE
5
104
100
AcDbEntity
8
0
100
AcDbCircle
10
0
20
0
30
0
40
56.000000999999997
210
0
220
0
230
1
0
LWPOLYLINE
5
105
100
AcDbEntity
8
0
100
AcDbPolyline
90
4
70
1
43
0.0
10
-1.7000000000000002
20
-54.450000000000003
10
-3.2000000000000006
20
-54.450000000000003
10
-3.2000000000000006
20
-55.350000000000001
10
-1.7000000000000002
20
-55.350000000000001
0
LWPOLYLINE
5
106
100
AcDbEntity
8
0
100
AcDbPolyline
90
4
70
1
43
0.0
10
-1.7000000000000002
20
-51.150000000000006
10
-3.2000000000000006
20
-51.150000000000006
10
-3.2000000000000006
20
-52.049999999999997
10
-1.7000000000000002
20
-52.049999999999997
0
LWPOLYLINE
5
107
100
AcDbEntity
8
0
100
AcDbPolyline
90
4
70
1
43
0.0
10
-2.54
20
-48.450001
10
2.5400000000862617
20
-48.450001000000483
42
-0.99999904757842406
10
2.54
20
-50.550000999999526
10
-2.54
20
-50.550001000000009
42
-0.99999999999999989
0
CIRCLE
5
108
100
AcDbEntity
8
0
100
AcDbCircle
10
-5.0800000000000001
20
-46.000000000000007
30
0
40
1
210
-0
220
0
230
1
0
LWPOLYLINE
5
109
100
AcDbEntity
8
0
100
AcDbPolyline
90
4
70
1
43
0.0
10
1.7000000000000002
20
-55.350000000000001
10
3.2000000000000006
20
-55.350000000000001
10
3.2000000000000006
20
-54.450000000000003
10
1.7000000000000002
20
-54.450000000000003
0
LWPOLYLINE
5
110
100
AcDbEntity
8
0
100
AcDbPolyline
90
4
70
1
43
0.0
10
3.2000000000000006
20
-52.049999999999997
10
3.2000000000000006
20
-51.150000000000006
10
1.7000000000000002
20
-51.150000000000006
10
1.7000000000000002
20
-52.049999999999997
0
CIRCLE
5
111
100
AcDbEntity
8
0
100
AcDbCircle
10
5.0800000000000001
20
-46.000000000000007
30
0
40
0.57499999999999996
210
-0
220
0
230
1
0
ARC
5
112
100
AcDbEntity
8
0
100
AcDbCircle
10
-8.0800001174219993
20
-48.329221923353998
30
0
40
1.5000001174219966
210
0
220
0
230
1
100
AcDbArc
50
260.5086961629541
51
359.99999704244129
0
ARC
5
113
100
AcDbEntity
8
0
100
AcDbCircle
10
5.0799994135070001
20
-46.000001586493006
30
0
40
1.5000005864931145
210
0
220
-0
230
1
100
AcDbArc
50
2.2394272795856104e-05
51
89.999977597626355
0
ARC
5
114
100
AcDbEntity
8
0
100
AcDbCircle
10
-5.0799994135070001
20
-46.000001586493006
30
0
40
1.5000005864931234
210
0
220
0
230
1
100
AcDbArc
50
90.000022402373645
51
179.99997760572722
0
ARC
5
115
100
AcDbEntity
8
0
100
AcDbCircle
10
8.0800001174219993
20
-48.329221923353998
30
0
40
1.5000001174219999
210
0
220
0
230
1
100
AcDbArc
50
180.00000295755868
51
279.49130383704596
0
CIRCLE
5
116
100
AcDbEntity
8
0
100
AcDbCircle
10
2.54
20
-46.000000000000007
30
0
40
0.57499999999999996
210
-0
220
0
230
1
0
LWPOLYLINE
5
117
100
AcDbEntity
8
0
100
AcDbPolyline
90
20
70
1
43
0.0
10
5
20
-52.525000000000006
10
4.5
20
-52.525000000000006
10
4.4138960000000003
20
-52.542127000000001
10
4.3409009999999997
20
-52.590901000000009
10
4.2921269999999998
20
-52.663896000000001
10
4.2750000000000004
20
-52.75
10
4.2750000000000004
20
-53.200000000000003
10
4.2921269999999998
20
-53.286104000000009
10
4.3409009999999997
20
-53.359099000000008
10
4.4138960000000003
20
-53.407873000000009
10
4.5
20
-53.425000000000004
10
5
20
-53.425000000000004
10
5.0861040000000006
20
-53.407873000000009
10
5.1590990000000003
20
-53.359099000000008
10
5.2078730000000011
20
-53.286104000000009
10
5.2249999999999996
20
-53.200000000000003
10
5.2249999999999996
20
-52.75
10
5.2078730000000011
20
-52.663896000000001
10
5.1590990000000003
20
-52.590901000000009
10
5.0861040000000006
20
-52.542127000000001
0
LWPOLYLINE
5
118
100
AcDbEntity
8
0
100
AcDbPolyline
90
20
70
1
43
0.0
10
5
20
-54.975000000000009
10
5.0861040000000006
20
-54.957872999999999
10
5.1590990000000003
20
-54.909098999999998
10
5.2078730000000011
20
-54.836103999999999
10
5.2249999999999996
20
-54.750000000000007
10
5.2249999999999996
20
-54.299999999999997
10
5.2078730000000011
20
-54.213896000000005
10
5.1590990000000003
20
-54.140900999999999
10
5.0861040000000006
20
-54.092127000000005
10
5
20
-54.075000000000003
10
4.5
20
-54.075000000000003
10
4.4138960000000003
20
-54.092127000000005
10
4.3409009999999997
20
-54.140900999999999
10
4.2921269999999998
20
-54.213896000000005
10
4.2750000000000004
20
-54.299999999999997
10
4.2750000000000004
20
-54.750000000000007
10
4.2921269999999998
20
-54.836103999999999
10
4.3409009999999997
20
-54.909098999999998
10
4.4138960000000003
20
-54.957872999999999
10
4.5
20
-54.975000000000009
0
CIRCLE
5
119
100
AcDbEntity
8
0
100
AcDbCircle
10
-2.54
20
-46.000000000000007
30
0
40
0.57499999999999996
210
-0
220
0
230
1
0
LINE
5
120
100
AcDbEntity
8
0
100
AcDbLine
10
-6.5799999999998864
20
-46.000000999999997
30
0
11
-6.5800000000000001
21
-48.329222000000001
31
0
0
CIRCLE
5
121
100
AcDbEntity
8
0
100
AcDbCircle
10
2.7755575615629998e-17
20
-46.000000000000007
30
0
40
0.57499999999999996
210
0
220
-0
230
1
0
LINE
5
122
100
AcDbEntity
8
0
100
AcDbLine
10
6.5800000000000018
20
-48.329222000000001
30
0
11
6.5800000000000001
21
-46.000000999999997
31
0
0
CIRCLE
5
123
100
AcDbEntity
8
0
100
AcDbCircle
10
-2.54
20
-46.000000000000007
30
0
40
1
210
-0
220
0
230
1
0
LINE
5
124
100
AcDbEntity
8
0
100
AcDbLine
10
5.0800000000000001
20
-44.500001000000118
30
0
11
-5.0800000000000001
21
-44.500000999999997
31
0
0
CIRCLE
5
125
100
AcDbEntity
8
0
100
AcDbCircle
10
-5.0800000000000001
20
-46.000000000000007
30
0
40
0.57499999999999996
210
-0
220
0
230
1
0
CIRCLE
5
126
100
AcDbEntity
8
0
100
AcDbCircle
10
5.0800000000000001
20
-46.000000000000007
30
0
40
1.0000000000000004
210
0
220
0
230
1
0
CIRCLE
5
127
100
AcDbEntity
8
0
100
AcDbCircle
10
2.54
20
-46.000000000000007
30
0
40
1
210
0
220
0
230
1
0
CIRCLE
5
128
100
AcDbEntity
8
0
100
AcDbCircle
10
2.7755575615629998e-17
20
-46.000000000000007
30
0
40
0.99999999999999989
210
0
220
0
230
1
0
LWPOLYLINE
5
129
100
AcDbEntity
8
0
100
AcDbPolyline
90
4
70
1
43
0.0
10
18.003662360205151
20
-47.906999922972972
10
16.617843061438222
20
-48.481025071520598
10
16.962258150566804
20
-49.312516650780758
10
18.348077449333733
20
-48.738491502233131
0
LWPOLYLINE
5
130
100
AcDbEntity
8
0
100
AcDbPolyline
90
4
70
1
43
0.0
10
18.225113477371597
20
-52.36131910806801
10
19.610932776138526
20
-51.787293959520383
10
19.266517687009951
20
-50.955802380260224
10
17.880698388243019
20
-51.52982752880785
0
LWPOLYLINE
5
131
100
AcDbEntity
8
0
100
AcDbPolyline
90
4
70
1
43
0.0
10
22.752123186676904
20
-50.486170289479077
10
24.137942485443837
20
-49.912145140931443
10
23.793527396315255
20
-49.080653561671284
10
22.407708097548323
20
-49.654678710218917
0
LWPOLYLINE
5
132
100
AcDbEntity
8
0
100
AcDbPolyline
90
4
70
1
43
0.0
10
22.530672069510459
20
-46.031851104384032
10
21.14485277074353
20
-46.605876252931665
10
21.489267859872108
20
-47.437367832191825
10
22.87508715863904
20
-46.863342683644191
0
LWPOLYLINE
5
133
100
AcDbEntity
8
0
100
AcDbPolyline
90
20
70
1
43
0.0
10
24.357117462322208
20
-47.587414960360938
10
24.430112739786409
20
-47.636188545106428
10
24.516216327992243
20
-47.653315868279634
10
24.602320270405706
20
-47.63618857877259
10
25.064260036661352
20
-47.444846862590055
10
25.13725554078259
20
-47.396073003576369
10
25.18602912552808
20
-47.323077726112174
10
25.203156448701289
20
-47.23697413790633
10
25.186029159194248
20
-47.150870195492864
10
25.013821614629958
20
-46.735124405862784
10
24.965047755616272
20
-46.662128901741546
10
24.892052478152074
20
-46.613355316996063
10
24.80594888994624
20
-46.596227993822836
10
24.719844947532774
20
-46.613355283329895
10
24.257905181277128
20
-46.80469699951243
10
24.184909677155897
20
-46.853470858526116
10
24.13613609241041
20
-46.926466135990317
10
24.11900876923719
20
-47.012569724196148
10
24.136136058744235
20
-47.098673666609621
10
24.308343603308522
20
-47.5144194562397
0
LWPOLYLINE
5
134
100
AcDbEntity
8
0
100
AcDbPolyline
90
20
70
1
43
0.0
10
24.9502767824881
20
-49.019428235753423
10
25.023272059952294
20
-49.068201820498913
10
25.109375648158128
20
-49.085329143672134
10
25.195479590571598
20
-49.068201854165082
10
25.657419356827241
20
-48.876860137982547
10
25.730414860948475
20
-48.828086278968854
10
25.779188445693961
20
-48.75509100150466
10
25.796315768867181
20
-48.668987413298822
10
25.779188479360137
20
-48.582883470885356
10
25.606980934795843
20
-48.167137681255269
10
25.558207075782164
20
-48.094142177134039
10
25.485211798317966
20
-48.045368592388549
10
25.399108210112132
20
-48.028241269215343
10
25.313004267698666
20
-48.045368558722387
10
24.85106450144302
20
-48.236710274904922
10
24.778068997321789
20
-48.285484133918615
10
24.729295412576299
20
-48.358479411382802
10
24.712168089403082
20
-48.444582999588647
10
24.729295378910123
20
-48.530686942002106
10
24.901502923474411
20
-48.946432731632193
0
LWPOLYLINE
5
135
100
AcDbEntity
8
0
100
AcDbPolyline
90
4
70
1
43
0.0
10
34.966430329674779
20
-37.370593385709029
10
33.905770157894956
20
-38.431253557488859
10
34.542166260962844
20
-39.067649660556746
10
35.602826432742674
20
-38.006989488776924
0
LWPOLYLINE
5
136
100
AcDbEntity
8
0
100
AcDbPolyline
90
4
70
1
43
0.0
10
36.875618638878457
20
-41.401102038472352
10
37.93627881065828
20
-40.34044186669253
10
37.299882707590385
20
-39.704045763624642
10
36.239222535810562
20
-40.764705935404464
0
LWPOLYLINE
5
137
100
AcDbEntity
8
0
100
AcDbPolyline
90
4
70
1
43
0.0
10
40.340441866692544
20
-37.936278810658273
10
41.401102038472359
20
-36.87561863887845
10
40.764705935404464
20
-36.239222535810562
10
39.704045763624649
20
-37.299882707590385
0
LWPOLYLINE
5
138
100
AcDbEntity
8
0
100
AcDbPolyline
90
4
70
1
43
0.0
10
38.431253557488866
20
-33.905770157894949
10
37.370593385709043
20
-34.966430329674772
10
38.006989488776931
20
-35.602826432742667
10
39.067649660556754
20
-34.542166260962844
0
LWPOLYLINE
5
139
100
AcDbEntity
8
0
100
AcDbPolyline
90
20
70
1
43
0.0
10
40.713957588825494
20
-34.643973373997746
10
40.8000612744638
20
-34.661100207344859
10
40.886164960102107
20
-34.643973373997738
10
40.959160300230771
20
-34.595199269551841
10
41.312713690824047
20
-34.241645878958565
10
41.361487795269952
20
-34.168650538829894
10
41.378614628617072
20
-34.082546853191587
10
41.361487795269952
20
-33.996443167553288
10
41.312713690824047
20
-33.923447827424617
10
40.994515639290093
20
-33.60524977589067
10
40.921520299161429
20
-33.556475671444765
10
40.83541661352313
20
-33.539348838097652
10
40.749312927884816
20
-33.556475671444758
10
40.676317587756152
20
-33.60524977589067
10
40.322764197162883
20
-33.958803166483946
10
40.273990092716971
20
-34.03179850661261
10
40.256863259369851
20
-34.117902192250924
10
40.273990092716971
20
-34.204005877889216
10
40.322764197162883
20
-34.277001218017887
10
40.64096224869683
20
-34.595199269551834
0
LWPOLYLINE
5
140
100
AcDbEntity
8
0
100
AcDbPolyline
90
20
70
1
43
0.0
10
41.809973099664639
20
-35.739988884836883
10
41.896076785302938
20
-35.757115718184011
10
41.982180470941245
20
-35.73998888483689
10
42.055175811069923
20
-35.691214780390993
10
42.408729201663192
20
-35.337661389797709
10
42.457503306109096
20
-35.264666049669039
10
42.47463013945621
20
-35.178562364030739
10
42.457503306109096
20
-35.092458678392433
10
42.408729201663192
20
-35.019463338263762
10
42.090531150129237
20
-34.701265286729814
10
42.017535810000581
20
-34.652491182283917
10
41.931432124362274
20
-34.63536434893679
10
41.845328438723968
20
-34.65249118228391
10
41.772333098595304
20
-34.701265286729821
10
41.418779708002027
20
-35.054818677323098
10
41.370005603556123
20
-35.127814017451762
10
41.352878770209003
20
-35.213917703090061
10
41.370005603556123
20
-35.300021388728368
10
41.41877970800202
20
-35.373016728857031
10
41.736977759535975
20
-35.691214780390986
0
LWPOLYLINE
5
141
100
AcDbEntity
8
0
100
AcDbPolyline
90
4
70
1
43
0.0
10
46.605876252931665
20
-21.144852770743533
10
46.031851104384032
20
-22.530672069510462
10
46.863342683644177
20
-22.875087158639044
10
47.437367832191811
20
-21.489267859872115
0
LWPOLYLINE
5
142
100
AcDbEntity
8
0
100
AcDbPolyline
90
4
70
1
43
0.0
10
49.912145140931429
20
-24.137942485443844
10
50.486170289479062
20
-22.752123186676911
10
49.654678710218903
20
-22.40770809754833
10
49.080653561671269
20
-23.793527396315255
0
LWPOLYLINE
5
143
100
AcDbEntity
8
0
100
AcDbPolyline
90
4
70
1
43
0.0
10
51.787293959520369
20
-19.610932776138537
10
52.36131910806801
20
-18.225113477371607
10
51.52982752880785
20
-17.880698388243022
10
50.955802380260209
20
-19.266517687009955
0
LWPOLYLINE
5
144
100
AcDbEntity
8
0
100
AcDbPolyline
90
4
70
1
43
0.0
10
48.481025071520598
20
-16.617843061438229
10
47.906999922972972
20
-18.003662360205158
10
48.738491502233117
20
-18.34807744933374
10
49.312516650780758
20
-16.962258150566811
0
LWPOLYLINE
5
145
100
AcDbEntity
8
0
100
AcDbPolyline
90
20
70
1
43
0.0
10
50.87246674537468
20
-16.426300889844075
10
50.958570333580518
20
-16.409173566670859
10
51.031565611044712
20
-16.360399981925372
10
51.080339470058398
20
-16.287404477804138
10
51.27168118624094
20
-15.825464711548493
10
51.288808475747992
20
-15.739360769135025
10
51.271681152574772
20
-15.653257180929188
10
51.222907567829282
20
-15.580261903464994
10
51.149912063708044
20
-15.53148804445131
10
50.734166274077964
20
-15.359280499887015
10
50.648062331664498
20
-15.342153210379973
10
50.561958743458668
20
-15.359280533553193
10
50.488963465994473
20
-15.408054118298677
10
50.44018960698078
20
-15.481049622419912
10
50.248847890798238
20
-15.942989388675555
10
50.231720601291194
20
-16.029093331089022
10
50.248847924464414
20
-16.115196919294863
10
50.29762150920989
20
-16.188192196759054
10
50.370617013331128
20
-16.236966055772736
10
50.786362802961207
20
-16.409173600337031
0
LWPOLYLINE
5
146
100
AcDbEntity
8
0
100
AcDbPolyline
90
20
70
1
43
0.0
10
52.304480020767166
20
-17.01946021000996
10
52.390583608973003
20
-17.002332886836744
10
52.463578886437205
20
-16.953559302091261
10
52.51235274545089
20
-16.880563797970026
10
52.703694461633432
20
-16.418624031714383
10
52.720821751140477
20
-16.332520089300914
10
52.703694427967264
20
-16.246416501095073
10
52.654920843221767
20
-16.173421223630879
10
52.581925339100543
20
-16.1246473646172
10
52.166179549470463
20
-15.952439820052906
10
52.08007560705699
20
-15.935312530545861
10
51.99397201885116
20
-15.952439853719078
10
51.920976741386966
20
-16.001213438464568
10
51.87220288237328
20
-16.074208942585802
10
51.680861166190738
20
-16.536148708841445
10
51.663733876683686
20
-16.622252651254914
10
51.680861199856906
20
-16.708356239460748
10
51.729634784602389
20
-16.781351516924943
10
51.80263028872362
20
-16.830125375938628
10
52.2183760783537
20
-17.002332920502919
0
LWPOLYLINE
5
147
100
AcDbEntity
8
0
100
AcDbPolyline
90
4
70
1
43
0.0
10
51.150000000000013
20
-1.6999999999999891
10
51.150000000000013
20
-3.19999999999999
10
52.050000000000011
20
-3.1999999999999895
10
52.050000000000011
20
-1.6999999999999886
0
LWPOLYLINE
5
148
100
AcDbEntity
8
0
100
AcDbPolyline
90
4
70
1
43
0.0
10
55.350000000000009
20
-3.1999999999999891
10
55.350000000000009
20
-1.6999999999999882
10
54.45000000000001
20
-1.6999999999999882
10
54.45000000000001
20
-3.1999999999999891
0
LWPOLYLINE
5
149
100
AcDbEntity
8
0
100
AcDbPolyline
90
4
70
1
43
0.0
10
55.350000000000009
20
1.7000000000000126
10
55.350000000000009
20
3.2000000000000135
10
54.45000000000001
20
3.2000000000000135
10
54.45000000000001
20
1.7000000000000126
0
LWPOLYLINE
5
150
100
AcDbEntity
8
0
100
AcDbPolyline
90
4
70
1
43
0.0
10
51.150000000000013
20
3.2000000000000122
10
51.150000000000013
20
1.7000000000000117
10
52.050000000000011
20
1.7000000000000122
10
52.050000000000011
20
3.2000000000000126
0
LWPOLYLINE
5
151
100
AcDbEntity
8
0
100
AcDbPolyline
90
20
70
1
43
0.0
10
53.286104000000016
20
4.2921270000000131
10
53.359099000000015
20
4.340901000000013
10
53.407873000000016
20
4.4138960000000136
10
53.425000000000011
20
4.5000000000000124
10
53.425000000000011
20
5.0000000000000133
10
53.407873000000016
20
5.0861040000000131
10
53.359099000000015
20
5.1590990000000136
10
53.286104000000016
20
5.2078730000000135
10
53.20000000000001
20
5.225000000000013
10
52.750000000000014
20
5.225000000000013
10
52.663896000000008
20
5.2078730000000135
10
52.590901000000017
20
5.1590990000000136
10
52.542127000000008
20
5.0861040000000131
10
52.525000000000013
20
5.0000000000000133
10
52.525000000000013
20
4.5000000000000124
10
52.542127000000008
20
4.4138960000000136
10
52.590901000000017
20
4.340901000000013
10
52.663896000000008
20
4.2921270000000131
10
52.750000000000014
20
4.2750000000000128
10
53.20000000000001
20
4.2750000000000128
0
LWPOLYLINE
5
152
100
AcDbEntity
8
0
100
AcDbPolyline
90
20
70
1
43
0.0
10
54.836104000000006
20
4.2921270000000131
10
54.909099000000012
20
4.340901000000013
10
54.957873000000006
20
4.4138960000000136
10
54.975000000000016
20
4.5000000000000133
10
54.975000000000016
20
5.0000000000000133
10
54.957873000000006
20
5.0861040000000131
10
54.909099000000012
20
5.1590990000000136
10
54.836104000000006
20
5.2078730000000135
10
54.750000000000014
20
5.225000000000013
10
54.300000000000004
20
5.225000000000013
10
54.213896000000013
20
5.2078730000000135
10
54.140901000000014
20
5.1590990000000136
10
54.092127000000012
20
5.0861040000000131
10
54.075000000000017
20
5.0000000000000133
10
54.075000000000017
20
4.5000000000000133
10
54.092127000000012
20
4.4138960000000136
10
54.140901000000014
20
4.340901000000013
10
54.213896000000013
20
4.2921270000000131
10
54.300000000000004
20
4.2750000000000137
10
54.750000000000014
20
4.2750000000000137
0
LWPOLYLINE
5
153
100
AcDbEntity
8
0
100
AcDbPolyline
90
4
70
1
43
0.0
10
47.906999922972979
20
18.003662360205158
10
48.481025071520619
20
16.617843061438229
10
49.312516650780779
20
16.962258150566811
10
48.738491502233138
20
18.34807744933374
0
LWPOLYLINE
5
154
100
AcDbEntity
8
0
100
AcDbPolyline
90
4
70
1
43
0.0
10
52.36131910806801
20
18.225113477371607
10
51.787293959520383
20
19.610932776138537
10
50.955802380260231
20
19.266517687009955
10
51.529827528807871
20
17.880698388243022
0
LWPOLYLINE
5
155
100
AcDbEntity
8
0
100
AcDbPolyline
90
4
70
1
43
0.0
10
50.486170289479077
20
22.752123186676911
10
49.912145140931443
20
24.137942485443844
10
49.080653561671284
20
23.793527396315262
10
49.654678710218924
20
22.40770809754833
0
LWPOLYLINE
5
156
100
AcDbEntity
8
0
100
AcDbPolyline
90
4
70
1
43
0.0
10
46.031851104384032
20
22.530672069510466
10
46.605876252931672
20
21.144852770743533
10
47.437367832191832
20
21.489267859872115
10
46.863342683644191
20
22.875087158639044
0
LWPOLYLINE
5
157
100
AcDbEntity
8
0
100
AcDbPolyline
90
20
70
1
43
0.0
10
47.587414960360938
20
24.357117462322218
10
47.636188545106428
20
24.430112739786413
10
47.653315868279648
20
24.516216327992247
10
47.63618857877259
20
24.602320270405716
10
47.444846862590055
20
25.064260036661359
10
47.396073003576369
20
25.137255540782597
10
47.323077726112174
20
25.186029125528083
10
47.23697413790633
20
25.2031564487013
10
47.150870195492864
20
25.186029159194256
10
46.735124405862791
20
25.013821614629961
10
46.662128901741553
20
24.965047755616276
10
46.613355316996071
20
24.892052478152088
10
46.596227993822843
20
24.805948889946244
10
46.613355283329902
20
24.719844947532778
10
46.804696999512444
20
24.257905181277131
10
46.853470858526123
20
24.1849096771559
10
46.926466135990324
20
24.136136092410418
10
47.012569724196155
20
24.119008769237197
10
47.098673666609628
20
24.136136058744242
10
47.5144194562397
20
24.308343603308536
0
LWPOLYLINE
5
158
100
AcDbEntity
8
0
100
AcDbPolyline
90
20
70
1
43
0.0
10
49.019428235753431
20
24.950276782488103
10
49.068201820498921
20
25.023272059952298
10
49.085329143672134
20
25.109375648158139
10
49.068201854165096
20
25.195479590571605
10
48.876860137982554
20
25.657419356827251
10
48.828086278968854
20
25.730414860948486
10
48.755091001504667
20
25.779188445693968
10
48.668987413298829
20
25.796315768867185
10
48.582883470885363
20
25.779188479360148
10
48.167137681255277
20
25.606980934795853
10
48.094142177134046
20
25.558207075782168
10
48.045368592388556
20
25.485211798317977
10
48.028241269215343
20
25.399108210112136
10
48.045368558722394
20
25.31300426769867
10
48.236710274904937
20
24.851064501443023
10
48.285484133918615
20
24.778068997321792
10
48.358479411382817
20
24.729295412576306
10
48.444582999588654
20
24.712168089403086
10
48.530686942002113
20
24.72929537891013
10
48.9464327316322
20
24.901502923474425
0
LWPOLYLINE
5
159
100
AcDbEntity
8
0
100
AcDbPolyline
90
4
70
1
43
0.0
10
37.370593385709043
20
34.966430329674772
10
38.431253557488873
20
33.905770157894949
10
39.067649660556761
20
34.542166260962844
10
38.006989488776938
20
35.602826432742667
0
LWPOLYLINE
5
160
100
AcDbEntity
8
0
100
AcDbPolyline
90
4
70
1
43
0.0
10
41.401102038472366
20
36.87561863887845
10
40.340441866692551
20
37.936278810658273
10
39.704045763624649
20
37.299882707590385
10
40.764705935404479
20
36.239222535810562
0
LWPOLYLINE
5
161
100
AcDbEntity
8
0
100
AcDbPolyline
90
4
70
1
43
0.0
10
37.936278810658287
20
40.34044186669253
10
36.875618638878464
20
41.401102038472359
10
36.239222535810569
20
40.764705935404464
10
37.299882707590392
20
39.704045763624642
0
LWPOLYLINE
5
162
100
AcDbEntity
8
0
100
AcDbPolyline
90
4
70
1
43
0.0
10
33.905770157894963
20
38.431253557488859
10
34.966430329674786
20
37.370593385709029
10
35.602826432742681
20
38.006989488776924
10
34.542166260962858
20
39.067649660556746
0
LWPOLYLINE
5
163
100
AcDbEntity
8
0
100
AcDbPolyline
90
20
70
1
43
0.0
10
34.643973373997753
20
40.713957588825487
10
34.661100207344873
20
40.8000612744638
10
34.643973373997753
20
40.8861649601021
10
34.595199269551848
20
40.959160300230764
10
34.241645878958579
20
41.31271369082404
10
34.168650538829908
20
41.361487795269944
10
34.082546853191602
20
41.378614628617065
10
33.996443167553295
20
41.361487795269944
10
33.923447827424631
20
41.31271369082404
10
33.605249775890684
20
40.994515639290093
10
33.55647567144478
20
40.921520299161422
10
33.539348838097659
20
40.83541661352313
10
33.556475671444773
20
40.749312927884809
10
33.605249775890684
20
40.676317587756145
10
33.95880316648396
20
40.322764197162869
10
34.031798506612617
20
40.273990092716964
10
34.117902192250931
20
40.256863259369851
10
34.20400587788923
20
40.273990092716964
10
34.277001218017901
20
40.322764197162869
10
34.595199269551848
20
40.640962248696823
0
LWPOLYLINE
5
164
100
AcDbEntity
8
0
100
AcDbPolyline
90
20
70
1
43
0.0
10
35.739988884836897
20
41.809973099664631
10
35.757115718184018
20
41.896076785302938
10
35.739988884836897
20
41.982180470941238
10
35.691214780391
20
42.055175811069915
10
35.337661389797724
20
42.408729201663185
10
35.264666049669053
20
42.457503306109089
10
35.178562364030753
20
42.47463013945621
10
35.092458678392447
20
42.457503306109089
10
35.019463338263776
20
42.408729201663185
10
34.701265286729829
20
42.090531150129237
10
34.652491182283931
20
42.017535810000567
10
34.635364348936804
20
41.931432124362267
10
34.652491182283924
20
41.845328438723961
10
34.701265286729836
20
41.772333098595297
10
35.054818677323112
20
41.41877970800202
10
35.127814017451769
20
41.370005603556109
10
35.213917703090075
20
41.352878770208996
10
35.300021388728382
20
41.370005603556109
10
35.373016728857046
20
41.41877970800202
10
35.691214780391
20
41.736977759535975
0
LWPOLYLINE
5
165
100
AcDbEntity
8
0
100
AcDbPolyline
90
4
70
1
43
0.0
10
21.14485277074354
20
46.605876252931665
10
22.530672069510466
20
46.031851104384025
10
22.875087158639047
20
46.863342683644184
10
21.489267859872115
20
47.437367832191825
0
LWPOLYLINE
5
166
100
AcDbEntity
8
0
100
AcDbPolyline
90
4
70
1
43
0.0
10
24.137942485443844
20
49.912145140931436
10
22.752123186676911
20
50.486170289479077
10
22.407708097548333
20
49.654678710218917
10
23.793527396315266
20
49.080653561671276
0
LWPOLYLINE
5
167
100
AcDbEntity
8
0
100
AcDbPolyline
90
4
70
1
43
0.0
10
19.610932776138537
20
51.787293959520383
10
18.225113477371607
20
52.361319108068017
10
17.880698388243029
20
51.529827528807857
10
19.266517687009959
20
50.955802380260224
0
LWPOLYLINE
5
168
100
AcDbEntity
8
0
100
AcDbPolyline
90
4
70
1
43
0.0
10
16.617843061438229
20
48.481025071520605
10
18.003662360205162
20
47.906999922972972
10
18.348077449333744
20
48.738491502233131
10
16.962258150566811
20
49.312516650780765
0
LWPOLYLINE
5
169
100
AcDbEntity
8
0
100
AcDbPolyline
90
20
70
1
43
0.0
10
16.426300889844075
20
50.872466745374687
10
16.409173566670862
20
50.958570333580525
10
16.360399981925372
20
51.031565611044712
10
16.287404477804142
20
51.080339470058405
10
15.825464711548495
20
51.271681186240947
10
15.739360769135027
20
51.288808475747992
10
15.653257180929192
20
51.271681152574786
10
15.580261903464994
20
51.222907567829296
10
15.53148804445131
20
51.149912063708058
10
15.359280499887021
20
50.734166274077978
10
15.342153210379976
20
50.648062331664505
10
15.359280533553193
20
50.561958743458675
10
15.408054118298679
20
50.488963465994473
10
15.481049622419913
20
50.440189606980788
10
15.94298938867556
20
50.248847890798245
10
16.029093331089026
20
50.231720601291194
10
16.115196919294863
20
50.248847924464421
10
16.188192196759058
20
50.297621509209904
10
16.23696605577274
20
50.370617013331142
10
16.409173600337031
20
50.786362802961222
0
LWPOLYLINE
5
170
100
AcDbEntity
8
0
100
AcDbPolyline
90
20
70
1
43
0.0
10
17.019460210009964
20
52.304480020767173
10
17.002332886836747
20
52.390583608973017
10
16.953559302091257
20
52.463578886437212
10
16.880563797970034
20
52.512352745450897
10
16.418624031714387
20
52.70369446163344
10
16.332520089300914
20
52.720821751140491
10
16.246416501095077
20
52.703694427967271
10
16.173421223630882
20
52.654920843221774
10
16.1246473646172
20
52.58192533910055
10
15.952439820052906
20
52.166179549470463
10
15.935312530545866
20
52.080075607056997
10
15.952439853719083
20
51.99397201885116
10
16.001213438464571
20
51.920976741386973
10
16.074208942585805
20
51.87220288237328
10
16.536148708841448
20
51.680861166190738
10
16.622252651254918
20
51.663733876683693
10
16.708356239460752
20
51.680861199856906
10
16.781351516924946
20
51.729634784602396
10
16.830125375938628
20
51.80263028872362
10
17.002332920502919
20
52.218376078353714
0
LWPOLYLINE
5
171
100
AcDbEntity
8
0
100
AcDbPolyline
90
4
70
1
43
0.0
10
1.7000000000000064
20
51.150000000000006
10
3.2000000000000068
20
51.150000000000006
10
3.2000000000000068
20
52.049999999999997
10
1.7000000000000064
20
52.049999999999997
0
LWPOLYLINE
5
172
100
AcDbEntity
8
0
100
AcDbPolyline
90
4
70
1
43
0.0
10
3.2000000000000073
20
55.350000000000001
10
1.7000000000000068
20
55.350000000000001
10
1.7000000000000068
20
54.450000000000003
10
3.2000000000000073
20
54.450000000000003
0
LWPOLYLINE
5
173
100
AcDbEntity
8
0
100
AcDbPolyline
90
4
70
1
43
0.0
10
-1.6999999999999935
20
55.350000000000001
10
-3.199999999999994
20
55.350000000000001
10
-3.199999999999994
20
54.450000000000003
10
-1.6999999999999935
20
54.450000000000003
0
LWPOLYLINE
5
174
100
AcDbEntity
8
0
100
AcDbPolyline
90
4
70
1
43
0.0
10
-3.1999999999999944
20
51.150000000000006
10
-1.6999999999999937
20
51.150000000000006
10
-1.6999999999999937
20
52.049999999999997
10
-3.1999999999999944
20
52.049999999999997
0
LWPOLYLINE
5
175
100
AcDbEntity
8
0
100
AcDbPolyline
90
20
70
1
43
0.0
10
-4.2921269999999936
20
53.286104000000009
10
-4.3409009999999935
20
53.359099000000008
10
-4.413895999999994
20
53.407873000000009
10
-4.4999999999999938
20
53.425000000000004
10
-4.9999999999999929
20
53.425000000000004
10
-5.0861039999999935
20
53.407873000000009
10
-5.1590989999999941
20
53.359099000000008
10
-5.207872999999994
20
53.286104000000009
10
-5.2249999999999925
20
53.200000000000003
10
-5.2249999999999925
20
52.75
10
-5.207872999999994
20
52.663896000000001
10
-5.1590989999999941
20
52.590901000000009
10
-5.0861039999999935
20
52.542127000000001
10
-4.9999999999999929
20
52.525000000000006
10
-4.4999999999999938
20
52.525000000000006
10
-4.413895999999994
20
52.542127000000001
10
-4.3409009999999935
20
52.590901000000009
10
-4.2921269999999936
20
52.663896000000001
10
-4.2749999999999941
20
52.75
10
-4.2749999999999941
20
53.200000000000003
0
LWPOLYLINE
5
176
100
AcDbEntity
8
0
100
AcDbPolyline
90
20
70
1
43
0.0
10
-4.2921269999999936
20
54.836103999999999
10
-4.3409009999999935
20
54.909098999999998
10
-4.413895999999994
20
54.957872999999999
10
-4.4999999999999938
20
54.975000000000009
10
-4.9999999999999929
20
54.975000000000009
10
-5.0861039999999935
20
54.957872999999999
10
-5.1590989999999941
20
54.909098999999998
10
-5.207872999999994
20
54.836103999999999
10
-5.2249999999999925
20
54.750000000000007
10
-5.2249999999999925
20
54.299999999999997
10
-5.207872999999994
20
54.213896000000005
10
-5.1590989999999941
20
54.140900999999999
10
-5.0861039999999935
20
54.092127000000005
10
-4.9999999999999929
20
54.075000000000003
10
-4.4999999999999938
20
54.075000000000003
10
-4.413895999999994
20
54.092127000000005
10
-4.3409009999999935
20
54.140900999999999
10
-4.2921269999999936
20
54.213896000000005
10
-4.2749999999999941
20
54.299999999999997
10
-4.2749999999999941
20
54.750000000000007
0
LWPOLYLINE
5
177
100
AcDbEntity
8
0
100
AcDbPolyline
90
4
70
1
43
0.0
10
-18.003662360205148
20
47.906999922972972
10
-16.617843061438219
20
48.481025071520598
10
-16.962258150566797
20
49.312516650780758
10
-18.348077449333729
20
48.738491502233131
0
LWPOLYLINE
5
178
100
AcDbEntity
8
0
100
AcDbPolyline
90
4
70
1
43
0.0
10
-18.225113477371593
20
52.36131910806801
10
-19.610932776138522
20
51.787293959520383
10
-19.266517687009944
20
50.955802380260224
10
-17.880698388243015
20
51.52982752880785
0
LWPOLYLINE
5
179
100
AcDbEntity
8
0
100
AcDbPolyline
90
4
70
1
43
0.0
10
-22.752123186676897
20
50.486170289479077
10
-24.13794248544383
20
49.912145140931443
10
-23.793527396315252
20
49.080653561671284
10
-22.407708097548319
20
49.654678710218917
0
LWPOLYLINE
5
180
100
AcDbEntity
8
0
100
AcDbPolyline
90
4
70
1
43
0.0
10
-22.530672069510452
20
46.031851104384032
10
-21.144852770743526
20
46.605876252931665
10
-21.489267859872104
20
47.437367832191825
10
-22.875087158639037
20
46.863342683644191
0
LWPOLYLINE
5
181
100
AcDbEntity
8
0
100
AcDbPolyline
90
20
70
1
43
0.0
10
-24.357117462322204
20
47.587414960360938
10
-24.430112739786406
20
47.636188545106428
10
-24.51621632799224
20
47.653315868279634
10
-24.602320270405702
20
47.636188578772604
10
-25.064260036661349
20
47.444846862590055
10
-25.137255540782583
20
47.396073003576369
10
-25.186029125528073
20
47.323077726112174
10
-25.203156448701286
20
47.23697413790633
10
-25.186029159194241
20
47.150870195492864
10
-25.013821614629954
20
46.735124405862784
10
-24.965047755616268
20
46.662128901741546
10
-24.892052478152074
20
46.613355316996063
10
-24.805948889946233
20
46.596227993822843
10
-24.719844947532771
20
46.613355283329895
10
-24.257905181277124
20
46.804696999512444
10
-24.184909677155886
20
46.853470858526116
10
-24.136136092410403
20
46.926466135990317
10
-24.119008769237187
20
47.012569724196148
10
-24.136136058744235
20
47.098673666609621
10
-24.308343603308522
20
47.5144194562397
0
LWPOLYLINE
5
182
100
AcDbEntity
8
0
100
AcDbPolyline
90
20
70
1
43
0.0
10
-24.950276782488089
20
49.019428235753423
10
-25.023272059952291
20
49.068201820498913
10
-25.109375648158125
20
49.085329143672134
10
-25.195479590571594
20
49.068201854165082
10
-25.657419356827237
20
48.876860137982547
10
-25.730414860948471
20
48.828086278968861
10
-25.779188445693961
20
48.75509100150466
10
-25.796315768867171
20
48.668987413298822
10
-25.779188479360133
20
48.582883470885356
10
-25.606980934795839
20
48.167137681255269
10
-25.558207075782157
20
48.094142177134039
10
-25.485211798317955
20
48.045368592388549
10
-25.399108210112121
20
48.02824126921535
10
-25.313004267698659
20
48.045368558722387
10
-24.851064501443012
20
48.236710274904922
10
-24.778068997321778
20
48.285484133918615
10
-24.729295412576292
20
48.358479411382802
10
-24.712168089403079
20
48.444582999588647
10
-24.729295378910116
20
48.530686942002106
10
-24.901502923474411
20
48.946432731632193
0
LWPOLYLINE
5
183
100
AcDbEntity
8
0
100
AcDbPolyline
90
4
70
1
43
0.0
10
-34.966430329674772
20
37.370593385709029
10
-33.905770157894949
20
38.431253557488859
10
-34.542166260962844
20
39.067649660556746
10
-35.602826432742667
20
38.006989488776924
0
LWPOLYLINE
5
184
100
AcDbEntity
8
0
100
AcDbPolyline
90
4
70
1
43
0.0
10
-36.87561863887845
20
41.401102038472352
10
-37.936278810658273
20
40.34044186669253
10
-37.299882707590385
20
39.704045763624642
10
-36.239222535810562
20
40.764705935404464
0
LWPOLYLINE
5
185
100
AcDbEntity
8
0
100
AcDbPolyline
90
4
70
1
43
0.0
10
-40.34044186669253
20
37.936278810658273
10
-41.401102038472352
20
36.87561863887845
10
-40.764705935404464
20
36.239222535810562
10
-39.704045763624642
20
37.299882707590385
0
LWPOLYLINE
5
186
100
AcDbEntity
8
0
100
AcDbPolyline
90
4
70
1
43
0.0
10
-38.431253557488859
20
33.905770157894949
10
-37.370593385709029
20
34.966430329674772
10
-38.006989488776924
20
35.602826432742667
10
-39.067649660556746
20
34.542166260962844
0
LWPOLYLINE
5
187
100
AcDbEntity
8
0
100
AcDbPolyline
90
20
70
1
43
0.0
10
-40.713957588825487
20
34.643973373997746
10
-40.800061274463786
20
34.661100207344859
10
-40.8861649601021
20
34.643973373997738
10
-40.959160300230764
20
34.595199269551841
10
-41.31271369082404
20
34.241645878958565
10
-41.361487795269944
20
34.168650538829894
10
-41.378614628617065
20
34.082546853191587
10
-41.361487795269944
20
33.996443167553288
10
-41.31271369082404
20
33.923447827424617
10
-40.994515639290086
20
33.60524977589067
10
-40.921520299161422
20
33.556475671444765
10
-40.835416613523122
20
33.539348838097652
10
-40.749312927884809
20
33.556475671444765
10
-40.676317587756145
20
33.60524977589067
10
-40.322764197162869
20
33.958803166483946
10
-40.273990092716964
20
34.03179850661261
10
-40.256863259369851
20
34.117902192250924
10
-40.273990092716964
20
34.204005877889216
10
-40.322764197162869
20
34.277001218017887
10
-40.640962248696809
20
34.595199269551834
0
LWPOLYLINE
5
188
100
AcDbEntity
8
0
100
AcDbPolyline
90
20
70
1
43
0.0
10
-41.809973099664631
20
35.739988884836883
10
-41.896076785302938
20
35.757115718184011
10
-41.982180470941238
20
35.73998888483689
10
-42.055175811069915
20
35.691214780390993
10
-42.408729201663185
20
35.337661389797717
10
-42.457503306109089
20
35.264666049669046
10
-42.47463013945621
20
35.178562364030739
10
-42.457503306109089
20
35.092458678392433
10
-42.408729201663185
20
35.019463338263762
10
-42.090531150129237
20
34.701265286729814
10
-42.017535810000567
20
34.652491182283917
10
-41.93143212436226
20
34.63536434893679
10
-41.845328438723961
20
34.652491182283917
10
-41.772333098595297
20
34.701265286729821
10
-41.41877970800202
20
35.054818677323098
10
-41.370005603556109
20
35.127814017451762
10
-41.352878770208996
20
35.213917703090061
10
-41.370005603556109
20
35.300021388728368
10
-41.41877970800202
20
35.373016728857031
10
-41.736977759535975
20
35.691214780390986
0
LWPOLYLINE
5
189
100
AcDbEntity
8
0
100
AcDbPolyline
90
4
70
1
43
0.0
10
-46.605876252931644
20
21.144852770743544
10
-46.031851104384003
20
22.530672069510477
10
-46.863342683644163
20
22.875087158639055
10
-47.437367832191804
20
21.489267859872125
0
LWPOLYLINE
5
190
100
AcDbEntity
8
0
100
AcDbPolyline
90
4
70
1
43
0.0
10
-49.912145140931408
20
24.137942485443851
10
-50.486170289479048
20
22.752123186676926
10
-49.654678710218896
20
22.407708097548344
10
-49.080653561671255
20
23.79352739631527
0
LWPOLYLINE
5
191
100
AcDbEntity
8
0
100
AcDbPolyline
90
4
70
1
43
0.0
10
-51.787293959520355
20
19.610932776138551
10
-52.361319108067988
20
18.225113477371618
10
-51.529827528807843
20
17.880698388243037
10
-50.955802380260202
20
19.266517687009966
0
LWPOLYLINE
5
192
100
AcDbEntity
8
0
100
AcDbPolyline
90
4
70
1
43
0.0
10
-48.481025071520591
20
16.61784306143824
10
-47.90699992297295
20
18.003662360205169
10
-48.73849150223311
20
18.348077449333751
10
-49.312516650780751
20
16.962258150566822
0
LWPOLYLINE
5
193
100
AcDbEntity
8
0
100
AcDbPolyline
90
20
70
1
43
0.0
10
-50.872466745374673
20
16.426300889844086
10
-50.958570333580511
20
16.409173566670873
10
-51.031565611044698
20
16.360399981925383
10
-51.080339470058391
20
16.287404477804152
10
-51.271681186240926
20
15.825464711548507
10
-51.288808475747977
20
15.739360769135038
10
-51.271681152574764
20
15.653257180929202
10
-51.222907567829274
20
15.580261903465003
10
-51.149912063708037
20
15.53148804445132
10
-50.734166274077957
20
15.359280499887031
10
-50.648062331664491
20
15.342153210379985
10
-50.561958743458661
20
15.359280533553203
10
-50.488963465994459
20
15.408054118298686
10
-50.440189606980766
20
15.481049622419924
10
-50.248847890798231
20
15.942989388675567
10
-50.231720601291187
20
16.029093331089033
10
-50.2488479244644
20
16.115196919294874
10
-50.297621509209883
20
16.188192196759069
10
-50.37061701333112
20
16.236966055772754
10
-50.7863628029612
20
16.409173600337041
0
LWPOLYLINE
5
194
100
AcDbEntity
8
0
100
AcDbPolyline
90
20
70
1
43
0.0
10
-52.304480020767159
20
17.019460210009974
10
-52.390583608972996
20
17.002332886836761
10
-52.46357888643719
20
16.953559302091271
10
-52.512352745450883
20
16.880563797970041
10
-52.703694461633425
20
16.418624031714398
10
-52.72082175114047
20
16.332520089300925
10
-52.70369442796725
20
16.246416501095091
10
-52.65492084322176
20
16.173421223630893
10
-52.581925339100536
20
16.124647364617211
10
-52.166179549470442
20
15.952439820052916
10
-52.080075607056983
20
15.935312530545875
10
-51.993972018851139
20
15.952439853719094
10
-51.920976741386951
20
16.001213438464582
10
-51.872202882373266
20
16.074208942585816
10
-51.680861166190724
20
16.536148708841459
10
-51.663733876683679
20
16.622252651254929
10
-51.680861199856885
20
16.708356239460763
10
-51.729634784602382
20
16.781351516924957
10
-51.802630288723606
20
16.830125375938639
10
-52.218376078353693
20
17.00233292050293
0
LWPOLYLINE
5
195
100
AcDbEntity
8
0
100
AcDbPolyline
90
4
70
1
43
0.0
10
-51.150000000000006
20
1.7000000000000115
10
-51.150000000000006
20
3.2000000000000117
10
-52.049999999999997
20
3.2000000000000122
10
-52.049999999999997
20
1.7000000000000117
0
LWPOLYLINE
5
196
100
AcDbEntity
8
0
100
AcDbPolyline
90
4
70
1
43
0.0
10
-55.350000000000001
20
3.2000000000000126
10
-55.350000000000001
20
1.7000000000000124
10
-54.450000000000003
20
1.7000000000000124
10
-54.450000000000003
20
3.2000000000000126
0
LWPOLYLINE
5
197
100
AcDbEntity
8
0
100
AcDbPolyline
90
4
70
1
43
0.0
10
-55.350000000000001
20
-1.699999999999988
10
-55.350000000000001
20
-3.1999999999999886
10
-54.450000000000003
20
-3.1999999999999886
10
-54.450000000000003
20
-1.699999999999988
0
LWPOLYLINE
5
198
100
AcDbEntity
8
0
100
AcDbPolyline
90
4
70
1
43
0.0
10
-51.150000000000006
20
-3.1999999999999895
10
-51.150000000000006
20
-1.6999999999999886
10
-52.049999999999997
20
-1.6999999999999884
10
-52.049999999999997
20
-3.1999999999999891
0
LWPOLYLINE
5
199
100
AcDbEntity
8
0
100
AcDbPolyline
90
20
70
1
43
0.0
10
-53.286104000000009
20
-4.2921269999999883
10
-53.359099000000008
20
-4.3409009999999881
10
-53.407873000000009
20
-4.4138959999999887
10
-53.425000000000004
20
-4.4999999999999885
10
-53.425000000000004
20
-4.9999999999999885
10
-53.407873000000009
20
-5.0861039999999882
10
-53.359099000000008
20
-5.1590989999999879
10
-53.286104000000009
20
-5.2078729999999887
10
-53.200000000000003
20
-5.2249999999999872
10
-52.75
20
-5.2249999999999872
10
-52.663896000000001
20
-5.2078729999999887
10
-52.590901000000009
20
-5.1590989999999879
10
-52.542127000000001
20
-5.0861039999999882
10
-52.525000000000006
20
-4.9999999999999885
10
-52.525000000000006
20
-4.4999999999999885
10
-52.542127000000001
20
-4.4138959999999887
10
-52.590901000000009
20
-4.3409009999999881
10
-52.663896000000001
20
-4.2921269999999883
10
-52.75
20
-4.2749999999999888
10
-53.200000000000003
20
-4.2749999999999888
0
LWPOLYLINE
5
200
100
AcDbEntity
8
0
100
AcDbPolyline
90
20
70
1
43
0.0
10
-54.836103999999999
20
-4.2921269999999883
10
-54.909098999999998
20
-4.3409009999999872
10
-54.957872999999999
20
-4.4138959999999887
10
-54.975000000000009
20
-4.4999999999999876
10
-54.975000000000009
20
-4.9999999999999876
10
-54.957872999999999
20
-5.0861039999999882
10
-54.909098999999998
20
-5.1590989999999879
10
-54.836103999999999
20
-5.2078729999999887
10
-54.750000000000007
20
-5.2249999999999872
10
-54.299999999999997
20
-5.2249999999999872
10
-54.213896000000005
20
-5.2078729999999887
10
-54.140900999999999
20
-5.1590989999999879
10
-54.092127000000005
20
-5.0861039999999882
10
-54.075000000000003
20
-4.9999999999999876
10
-54.075000000000003
20
-4.4999999999999876
10
-54.092127000000005
20
-4.4138959999999887
10
-54.140900999999999
20
-4.3409009999999872
10
-54.213896000000005
20
-4.2921269999999883
10
-54.299999999999997
20
-4.2749999999999879
10
-54.750000000000007
20
-4.2749999999999879
0
LWPOLYLINE
5
201
100
AcDbEntity
8
0
100
AcDbPolyline
90
4
70
1
43
0.0
10
-47.906999922972979
20
-18.003662360205158
10
-48.481025071520619
20
-16.617843061438229
10
-49.312516650780779
20
-16.962258150566811
10
-48.738491502233138
20
-18.34807744933374
0
LWPOLYLINE
5
202
100
AcDbEntity
8
0
100
AcDbPolyline
90
4
70
1
43
0.0
10
-52.36131910806801
20
-18.225113477371607
10
-51.787293959520383
20
-19.610932776138537
10
-50.955802380260231
20
-19.266517687009955
10
-51.529827528807871
20
-17.880698388243022
0
LWPOLYLINE
5
203
100
AcDbEntity
8
0
100
AcDbPolyline
90
4
70
1
43
0.0
10
-50.486170289479077
20
-22.752123186676911
10
-49.912145140931443
20
-24.137942485443844
10
-49.080653561671284
20
-23.793527396315262
10
-49.654678710218924
20
-22.40770809754833
0
LWPOLYLINE
5
204
100
AcDbEntity
8
0
100
AcDbPolyline
90
4
70
1
43
0.0
10
-46.031851104384032
20
-22.530672069510466
10
-46.605876252931672
20
-21.144852770743533
10
-47.437367832191832
20
-21.489267859872115
10
-46.863342683644191
20
-22.875087158639044
0
LWPOLYLINE
5
205
100
AcDbEntity
8
0
100
AcDbPolyline
90
20
70
1
43
0.0
10
-47.587414960360938
20
-24.357117462322218
10
-47.636188545106428
20
-24.430112739786413
10
-47.653315868279648
20
-24.516216327992247
10
-47.63618857877259
20
-24.602320270405716
10
-47.444846862590055
20
-25.064260036661359
10
-47.396073003576369
20
-25.137255540782597
10
-47.323077726112174
20
-25.186029125528083
10
-47.23697413790633
20
-25.2031564487013
10
-47.150870195492864
20
-25.186029159194256
10
-46.735124405862791
20
-25.013821614629961
10
-46.662128901741553
20
-24.965047755616276
10
-46.613355316996071
20
-24.892052478152088
10
-46.596227993822843
20
-24.805948889946244
10
-46.613355283329902
20
-24.719844947532778
10
-46.804696999512444
20
-24.257905181277131
10
-46.853470858526123
20
-24.1849096771559
10
-46.926466135990324
20
-24.136136092410418
10
-47.012569724196155
20
-24.119008769237197
10
-47.098673666609628
20
-24.136136058744242
10
-47.5144194562397
20
-24.308343603308536
0
LWPOLYLINE
5
206
100
AcDbEntity
8
0
100
AcDbPolyline
90
20
70
1
43
0.0
10
-49.019428235753431
20
-24.950276782488103
10
-49.068201820498921
20
-25.023272059952298
10
-49.085329143672134
20
-25.109375648158139
10
-49.068201854165096
20
-25.195479590571605
10
-48.876860137982554
20
-25.657419356827251
10
-48.828086278968854
20
-25.730414860948486
10
-48.755091001504667
20
-25.779188445693968
10
-48.668987413298829
20
-25.796315768867185
10
-48.582883470885363
20
-25.779188479360148
10
-48.167137681255277
20
-25.606980934795853
10
-48.094142177134046
20
-25.558207075782168
10
-48.045368592388556
20
-25.485211798317977
10
-48.028241269215343
20
-25.399108210112136
10
-48.045368558722394
20
-25.31300426769867
10
-48.236710274904937
20
-24.851064501443023
10
-48.285484133918615
20
-24.778068997321792
10
-48.358479411382817
20
-24.729295412576306
10
-48.444582999588654
20
-24.712168089403086
10
-48.530686942002113
20
-24.72929537891013
10
-48.9464327316322
20
-24.901502923474425
0
LWPOLYLINE
5
207
100
AcDbEntity
8
0
100
AcDbPolyline
90
4
70
1
43
0.0
10
-37.370593385709043
20
-34.966430329674772
10
-38.431253557488873
20
-33.905770157894949
10
-39.067649660556761
20
-34.542166260962837
10
-38.006989488776938
20
-35.60282643274266
0
LWPOLYLINE
5
208
100
AcDbEntity
8
0
100
AcDbPolyline
90
4
70
1
43
0.0
10
-41.401102038472366
20
-36.875618638878443
10
-40.340441866692551
20
-37.936278810658266
10
-39.704045763624649
20
-37.299882707590378
10
-40.764705935404479
20
-36.239222535810555
0
LWPOLYLINE
5
209
100
AcDbEntity
8
0
100
AcDbPolyline
90
4
70
1
43
0.0
10
-37.936278810658287
20
-40.34044186669253
10
-36.875618638878464
20
-41.401102038472352
10
-36.239222535810569
20
-40.764705935404457
10
-37.299882707590392
20
-39.704045763624634
0
LWPOLYLINE
5
210
100
AcDbEntity
8
0
100
AcDbPolyline
90
4
70
1
43
0.0
10
-33.905770157894963
20
-38.431253557488851
10
-34.966430329674786
20
-37.370593385709029
10
-35.602826432742681
20
-38.006989488776924
10
-34.542166260962858
20
-39.067649660556746
0
LWPOLYLINE
5
211
100
AcDbEntity
8
0
100
AcDbPolyline
90
20
70
1
43
0.0
10
-34.643973373997753
20
-40.71395758882548
10
-34.661100207344873
20
-40.800061274463786
10
-34.643973373997753
20
-40.886164960102093
10
-34.595199269551848
20
-40.959160300230756
10
-34.241645878958579
20
-41.312713690824026
10
-34.168650538829908
20
-41.361487795269937
10
-34.082546853191602
20
-41.378614628617065
10
-33.996443167553295
20
-41.361487795269937
10
-33.923447827424631
20
-41.31271369082404
10
-33.605249775890684
20
-40.994515639290086
10
-33.55647567144478
20
-40.921520299161422
10
-33.539348838097659
20
-40.835416613523122
10
-33.55647567144478
20
-40.749312927884809
10
-33.605249775890684
20
-40.676317587756145
10
-33.95880316648396
20
-40.322764197162869
10
-34.031798506612624
20
-40.273990092716964
10
-34.117902192250931
20
-40.256863259369844
10
-34.20400587788923
20
-40.273990092716964
10
-34.277001218017901
20
-40.322764197162869
10
-34.595199269551848
20
-40.640962248696809
0
LWPOLYLINE
5
212
100
AcDbEntity
8
0
100
AcDbPolyline
90
20
70
1
43
0.0
10
-35.739988884836897
20
-41.809973099664631
10
-35.757115718184018
20
-41.896076785302938
10
-35.739988884836905
20
-41.982180470941238
10
-35.691214780391
20
-42.055175811069901
10
-35.337661389797724
20
-42.408729201663178
10
-35.264666049669053
20
-42.457503306109089
10
-35.178562364030753
20
-42.474630139456202
10
-35.092458678392447
20
-42.457503306109089
10
-35.019463338263776
20
-42.408729201663185
10
-34.701265286729829
20
-42.090531150129237
10
-34.652491182283931
20
-42.017535810000567
10
-34.635364348936804
20
-41.93143212436226
10
-34.652491182283931
20
-41.845328438723961
10
-34.701265286729836
20
-41.772333098595297
10
-35.054818677323112
20
-41.41877970800202
10
-35.127814017451776
20
-41.370005603556109
10
-35.213917703090075
20
-41.352878770208996
10
-35.300021388728382
20
-41.370005603556109
10
-35.373016728857046
20
-41.418779708002013
10
-35.691214780391
20
-41.736977759535961
0
LWPOLYLINE
5
213
100
AcDbEntity
8
0
100
AcDbPolyline
90
4
70
1
43
0.0
10
-21.144852770743565
20
-46.605876252931651
10
-22.530672069510494
20
-46.031851104384018
10
-22.875087158639076
20
-46.863342683644177
10
-21.489267859872143
20
-47.437367832191811
0
LWPOLYLINE
5
214
100
AcDbEntity
8
0
100
AcDbPolyline
90
4
70
1
43
0.0
10
-24.137942485443872
20
-49.912145140931415
10
-22.752123186676943
20
-50.486170289479055
10
-22.407708097548365
20
-49.654678710218896
10
-23.793527396315291
20
-49.080653561671255
0
LWPOLYLINE
5
215
100
AcDbEntity
8
0
100
AcDbPolyline
90
4
70
1
43
0.0
10
-19.610932776138569
20
-51.787293959520362
10
-18.225113477371636
20
-52.361319108068002
10
-17.880698388243058
20
-51.529827528807843
10
-19.266517687009991
20
-50.955802380260202
0
LWPOLYLINE
5
216
100
AcDbEntity
8
0
100
AcDbPolyline
90
4
70
1
43
0.0
10
-16.617843061438261
20
-48.481025071520598
10
-18.00366236020519
20
-47.906999922972958
10
-18.348077449333772
20
-48.738491502233117
10
-16.962258150566839
20
-49.312516650780758
0
LWPOLYLINE
5
217
100
AcDbEntity
8
0
100
AcDbPolyline
90
20
70
1
43
0.0
10
-16.426300889844107
20
-50.872466745374673
10
-16.409173566670894
20
-50.958570333580511
10
-16.360399981925408
20
-51.031565611044712
10
-16.287404477804166
20
-51.080339470058391
10
-15.825464711548525
20
-51.271681186240926
10
-15.739360769135061
20
-51.288808475747985
10
-15.653257180929225
20
-51.271681152574764
10
-15.580261903465026
20
-51.222907567829274
10
-15.53148804445134
20
-51.149912063708037
10
-15.359280499887051
20
-50.734166274077964
10
-15.342153210380008
20
-50.648062331664498
10
-15.359280533553225
20
-50.561958743458668
10
-15.408054118298708
20
-50.488963465994459
10
-15.481049622419947
20
-50.44018960698078
10
-15.94298938867559
20
-50.248847890798238
10
-16.029093331089054
20
-50.231720601291187
10
-16.115196919294895
20
-50.248847924464414
10
-16.18819219675909
20
-50.29762150920989
10
-16.236966055772776
20
-50.370617013331128
10
-16.409173600337063
20
-50.7863628029612
0
LWPOLYLINE
5
218
100
AcDbEntity
8
0
100
AcDbPolyline
90
20
70
1
43
0.0
10
-17.019460210009996
20
-52.304480020767166
10
-17.002332886836779
20
-52.390583608973003
10
-16.953559302091293
20
-52.463578886437205
10
-16.880563797970058
20
-52.51235274545089
10
-16.418624031714415
20
-52.703694461633432
10
-16.332520089300946
20
-52.72082175114047
10
-16.246416501095112
20
-52.703694427967264
10
-16.173421223630914
20
-52.654920843221767
10
-16.124647364617232
20
-52.581925339100543
10
-15.952439820052938
20
-52.166179549470456
10
-15.935312530545897
20
-52.08007560705699
10
-15.952439853719111
20
-51.993972018851153
10
-16.0012134384646
20
-51.920976741386951
10
-16.074208942585837
20
-51.872202882373273
10
-16.53614870884148
20
-51.680861166190731
10
-16.622252651254946
20
-51.663733876683686
10
-16.70835623946078
20
-51.680861199856892
10
-16.781351516924978
20
-51.729634784602389
10
-16.83012537593866
20
-51.802630288723613
10
-17.002332920502955
20
-52.2183760783537
0
ENDSEC
0
SECTION
2
OBJECTS
0
DICTIONARY
5
C
100
AcDbDictionary
3
ACAD_GROUP
350
D
3
ACAD_MLINESTYLE
350
17
0
DICTIONARY
5
D
100
AcDbDictionary
0
DICTIONARY
5
1A
330
C
100
AcDbDictionary
0
DICTIONARY
5
17
100
AcDbDictionary
0
ENDSEC
0
EOF
