0
SECTION
2
HEADER
9
$INSUNITS
70
4
9
$ACADVER
1
AC1014
9
$HANDSEED
5
FFFF
0
ENDSEC
0
SECTION
2
TABLES
0
TABLE
2
VPORT
5
8
100
AcDbSymbolTable
0
ENDTAB
0
TABLE
2
LTYPE
5
5
100
AcDbSymbolTable
0
LTYPE
5
14
100
AcDbSymbolTableRecord
100
AcDbLinetypeTableRecord
2
BYBLOCK
70
0
0
LTYPE
5
15
100
AcDbSymbolTableRecord
100
AcDbLinetypeTableRecord
2
BYLAYER
70
0
0
ENDTAB
0
TABLE
2
LAYER
5
2
100
AcDbSymbolTable
70
2
0
LAYER
5
50
100
AcDbSymbolTableRecord
100
AcDbLayerTableRecord
2
0
70
0
6
CONTINUOUS
0
ENDTAB
0
TABLE
2
STYLE
5
3
100
AcDbSymbolTable
70
1
0
STYLE
5
11
100
AcDbSymbolTableRecord
100
AcDbTextStyleTableRecord
2
STANDARD
70
0
0
ENDTAB
0
TABLE
2
VIEW
5
6
100
AcDbSymbolTable
70
0
0
ENDTAB
0
TABLE
2
UCS
5
7
100
AcDbSymbolTable
70
0
0
ENDTAB
0
TABLE
2
APPID
5
9
100
AcDbSymbolTable
70
2
0
APPID
5
12
100
AcDbSymbolTableRecord
100
AcDbRegAppTableRecord
2
ACAD
70
0
0
ENDTAB
0
TABLE
2
DIMSTYLE
5
A
100
AcDbSymbolTable
70
1
0
ENDTAB
0
TABLE
2
BLOCK_RECORD
5
1
100
AcDbSymbolTable
70
1
0
BLOCK_RECORD
5
1F
100
AcDbSymbolTableRecord
100
AcDbBlockTableRecord
2
*MODEL_SPACE
0
BLOCK_RECORD
5
1B
100
AcDbSymbolTableRecord
100
AcDbBlockTableRecord
2
*PAPER_SPACE
0
ENDTAB
0
ENDSEC
0
SECTION
2
BLOCKS
0
BLOCK
5
20
100
AcDbEntity
100
AcDbBlockBegin
2
*MODEL_SPACE
0
ENDBLK
5
21
100
AcDbEntity
100
AcDbBlockEnd
0
BLOCK
5
1C
100
AcDbEntity
100
AcDbBlockBegin
2
*PAPER_SPACE
0
ENDBLK
5
1D
100
AcDbEntity
100
AcDbBlockEnd
0
ENDSEC
0
SECTION
2
ENTITIES
0
CIRCLE
5
100
100
AcDbEntity
8
0
100
AcDbCircle
10
0
20
-49.500000737607479
30
0
40
0.50000183284282684
210
0
220
0
230
1
0
LWPOLYLINE
5
101
100
AcDbEntity
8
0
100
AcDbPolyline
90
4
70
1
43
0.0
10
-3.0000000447034836
20
-47.950000737607475
10
3.0000000000000004
20
-47.950000737607475
10
3.0000000000000004
20
-52.050000737607476
10
-3.0000000447034836
20
-52.050000737607476
0
ARC
5
102
100
AcDbEntity
8
0
100
AcDbCircle
10
-2.2351741568726879e-08
20
-51.050000737607476
30
0
40
2.4999999999999982
210
0
220
0
230
1
100
AcDbArc
50
203.57817847820186
51
336.42182152179817
0
ARC
5
103
100
AcDbEntity
8
0
100
AcDbCircle
10
19.535989483857673
20
-47.164050824715275
30
0
40
2.5000000000000004
210
0
220
0
230
1
100
AcDbArc
50
226.07817847820206
51
358.92182152179799
0
LWPOLYLINE
5
104
100
AcDbEntity
8
0
100
AcDbPolyline
90
4
70
1
43
0.0
10
15.578032225341719
20
-45.448074579579199
10
21.121309461710073
20
-43.151973968281382
10
22.690311534406938
20
-46.93988005157766
10
17.147034298038587
20
-49.235980662875477
0
CIRCLE
5
105
100
AcDbEntity
8
0
100
AcDbCircle
10
18.942830184342103
20
-45.732037540769149
30
0
40
0.50000183284282684
210
0
220
0
230
1
0
ARC
5
106
100
AcDbEntity
8
0
100
AcDbCircle
10
36.097801685335426
20
-36.097801716945561
30
0
40
2.4999999999999964
210
0
220
0
230
1
100
AcDbArc
50
-111.42182152179787
51
21.421821521797987
0
LWPOLYLINE
5
107
100
AcDbEntity
8
0
100
AcDbPolyline
90
4
70
1
43
0.0
10
31.784450304292427
20
-36.027091054631974
10
36.027091023021846
20
-31.784450335902555
10
38.926228825886696
20
-34.683588138767398
10
34.68358810715727
20
-38.926228857496824
0
CIRCLE
5
108
100
AcDbEntity
8
0
100
AcDbCircle
10
35.00178619030136
20
-35.001786190301353
30
0
40
0.50000183284282684
210
0
220
0
230
1
0
ARC
5
109
100
AcDbEntity
8
0
100
AcDbCircle
10
47.164050807607993
20
-19.535989525158314
30
0
40
2.499999999999996
210
0
220
0
230
1
100
AcDbArc
50
-88.92182152179825
51
43.921821521798165
0
LWPOLYLINE
5
110
100
AcDbEntity
8
0
100
AcDbPolyline
90
4
70
1
43
0.0
10
43.151973951174092
20
-21.121309503010714
10
45.448074562471916
20
-15.578032266642358
10
49.235980645768187
20
-17.147034339339228
10
46.939880034470363
20
-22.690311575707582
0
CIRCLE
5
111
100
AcDbEntity
8
0
100
AcDbCircle
10
45.732037540769142
20
-18.94283018434211
30
0
40
0.50000183284282684
210
0
220
0
230
1
0
ARC
5
112
100
AcDbEntity
8
0
100
AcDbCircle
10
51.050000737607483
20
-2.235173023334964e-08
30
0
40
2.4999999999999987
210
0
220
0
230
1
100
AcDbArc
50
-66.421821521797966
51
66.421821521797995
0
LWPOLYLINE
5
113
100
AcDbEntity
8
0
100
AcDbPolyline
90
4
70
1
43
0.0
10
47.950000737607482
20
-3.0000000447034738
10
47.950000737607482
20
3.0000000000000115
10
52.05000073760749
20
3.0000000000000124
10
52.05000073760749
20
-3.0000000447034725
0
CIRCLE
5
114
100
AcDbEntity
8
0
100
AcDbCircle
10
49.500000737607486
20
1.0991208107570811e-14
30
0
40
0.50000183284282684
210
0
220
0
230
1
0
ARC
5
115
100
AcDbEntity
8
0
100
AcDbCircle
10
47.164050824715282
20
19.53598948385768
30
0
40
2.5000000000000004
210
0
220
0
230
1
100
AcDbArc
50
-43.921821521797945
51
88.921821521797909
0
LWPOLYLINE
5
116
100
AcDbEntity
8
0
100
AcDbPolyline
90
4
70
1
43
0.0
10
45.448074579579213
20
15.578032225341726
10
43.151973968281389
20
21.121309461710077
10
46.939880051577667
20
22.690311534406948
10
49.235980662875491
20
17.147034298038591
0
CIRCLE
5
117
100
AcDbEntity
8
0
100
AcDbCircle
10
45.732037540769149
20
18.94283018434211
30
0
40
0.50000183284282684
210
0
220
0
230
1
0
ARC
5
118
100
AcDbEntity
8
0
100
AcDbCircle
10
36.097801716945575
20
36.097801685335426
30
0
40
2.4999999999999982
210
0
220
0
230
1
100
AcDbArc
50
-21.421821521798023
51
111.42182152179805
0
LWPOLYLINE
5
119
100
AcDbEntity
8
0
100
AcDbPolyline
90
4
70
1
43
0.0
10
36.027091054631988
20
31.784450304292417
10
31.784450335902569
20
36.027091023021839
10
34.683588138767412
20
38.926228825886689
10
38.926228857496838
20
34.683588107157263
0
CIRCLE
5
120
100
AcDbEntity
8
0
100
AcDbCircle
10
35.00178619030136
20
35.001786190301353
30
0
40
0.50000183284282684
210
0
220
0
230
1
0
ARC
5
121
100
AcDbEntity
8
0
100
AcDbCircle
10
19.535989525158314
20
47.164050807608
30
0
40
2.4999999999999982
210
0
220
-0
230
1
100
AcDbArc
50
1.0781784782016559
51
133.92182152179817
0
LWPOLYLINE
5
122
100
AcDbEntity
8
0
100
AcDbPolyline
90
4
70
1
43
0.0
10
21.121309503010718
20
43.151973951174092
10
15.57803226664236
20
45.448074562471916
10
17.147034339339228
20
49.235980645768194
10
22.690311575707582
20
46.939880034470377
0
CIRCLE
5
123
100
AcDbEntity
8
0
100
AcDbCircle
10
18.942830184342114
20
45.732037540769149
30
0
40
0.50000183284282684
210
0
220
0
230
1
0
ARC
5
124
100
AcDbEntity
8
0
100
AcDbCircle
10
2.235174782054888e-08
20
51.050000737607476
30
0
40
2.4999999999999982
210
0
220
-0
230
1
100
AcDbArc
50
23.578178478201867
51
156.42182152179817
0
LWPOLYLINE
5
125
100
AcDbEntity
8
0
100
AcDbPolyline
90
4
70
1
43
0.0
10
3.0000000447034898
20
47.950000737607475
10
-2.9999999999999942
20
47.950000737607475
10
-2.9999999999999942
20
52.050000737607476
10
3.0000000447034898
20
52.050000737607476
0
CIRCLE
5
126
100
AcDbEntity
8
0
100
AcDbCircle
10
6.0620017461102625e-15
20
49.500000737607479
30
0
40
0.50000183284282684
210
0
220
0
230
1
0
ARC
5
127
100
AcDbEntity
8
0
100
AcDbCircle
10
-19.535989483857669
20
47.164050824715275
30
0
40
2.5000000000000004
210
0
220
-0
230
1
100
AcDbArc
50
46.078178478202055
51
178.92182152179802
0
LWPOLYLINE
5
128
100
AcDbEntity
8
0
100
AcDbPolyline
90
4
70
1
43
0.0
10
-15.578032225341714
20
45.448074579579199
10
-21.121309461710069
20
43.151973968281382
10
-22.690311534406938
20
46.93988005157766
10
-17.147034298038584
20
49.235980662875477
0
CIRCLE
5
129
100
AcDbEntity
8
0
100
AcDbCircle
10
-18.9428301843421
20
45.732037540769149
30
0
40
0.50000183284282684
210
0
220
0
230
1
0
ARC
5
130
100
AcDbEntity
8
0
100
AcDbCircle
10
-36.097801685335426
20
36.097801716945561
30
0
40
2.4999999999999982
210
0
220
-0
230
1
100
AcDbArc
50
68.578178478201949
51
201.42182152179805
0
LWPOLYLINE
5
131
100
AcDbEntity
8
0
100
AcDbPolyline
90
4
70
1
43
0.0
10
-31.784450304292417
20
36.027091054631974
10
-36.027091023021839
20
31.784450335902555
10
-38.926228825886689
20
34.683588138767398
10
-34.683588107157263
20
38.926228857496824
0
CIRCLE
5
132
100
AcDbEntity
8
0
100
AcDbCircle
10
-35.001786190301353
20
35.001786190301353
30
0
40
0.50000183284282684
210
0
220
0
230
1
0
ARC
5
133
100
AcDbEntity
8
0
100
AcDbCircle
10
-47.164050807607978
20
19.535989525158325
30
0
40
2.4999999999999982
210
0
220
0
230
1
100
AcDbArc
50
91.078178478201934
51
223.92182152179805
0
LWPOLYLINE
5
134
100
AcDbEntity
8
0
100
AcDbPolyline
90
4
70
1
43
0.0
10
-43.151973951174078
20
21.121309503010721
10
-45.448074562471902
20
15.578032266642371
10
-49.23598064576818
20
17.147034339339239
10
-46.939880034470356
20
22.690311575707589
0
CIRCLE
5
135
100
AcDbEntity
8
0
100
AcDbCircle
10
-45.732037540769134
20
18.942830184342117
30
0
40
0.50000183284282684
210
0
220
0
230
1
0
ARC
5
136
100
AcDbEntity
8
0
100
AcDbCircle
10
-51.050000737607476
20
2.2351752904104122e-08
30
0
40
2.4999999999999987
210
0
220
0
230
1
100
AcDbArc
50
113.57817847820186
51
246.42182152179814
0
LWPOLYLINE
5
137
100
AcDbEntity
8
0
100
AcDbPolyline
90
4
70
1
43
0.0
10
-47.950000737607475
20
3.0000000447034942
10
-47.950000737607475
20
-2.9999999999999898
10
-52.050000737607476
20
-2.9999999999999889
10
-52.050000737607476
20
3.0000000447034951
0
CIRCLE
5
138
100
AcDbEntity
8
0
100
AcDbCircle
10
-49.500000737607479
20
1.0991208107570811e-14
30
0
40
0.50000183284282684
210
0
220
0
230
1
0
ARC
5
139
100
AcDbEntity
8
0
100
AcDbCircle
10
-47.164050824715282
20
-19.53598948385768
30
0
40
2.5000000000000004
210
0
220
0
230
1
100
AcDbArc
50
136.07817847820209
51
268.92182152179788
0
LWPOLYLINE
5
140
100
AcDbEntity
8
0
100
AcDbPolyline
90
4
70
1
43
0.0
10
-45.448074579579213
20
-15.578032225341726
10
-43.151973968281389
20
-21.121309461710077
10
-46.939880051577667
20
-22.690311534406948
10
-49.235980662875491
20
-17.147034298038591
0
CIRCLE
5
141
100
AcDbEntity
8
0
100
AcDbCircle
10
-45.732037540769149
20
-18.94283018434211
30
0
40
0.50000183284282684
210
0
220
0
230
1
0
ARC
5
142
100
AcDbEntity
8
0
100
AcDbCircle
10
-36.097801716945575
20
-36.097801685335419
30
0
40
2.4999999999999982
210
0
220
0
230
1
100
AcDbArc
50
158.57817847820198
51
291.42182152179799
0
LWPOLYLINE
5
143
100
AcDbEntity
8
0
100
AcDbPolyline
90
4
70
1
43
0.0
10
-36.027091054631988
20
-31.784450304292413
10
-31.784450335902569
20
-36.027091023021839
10
-34.683588138767412
20
-38.926228825886682
10
-38.926228857496838
20
-34.683588107157263
0
CIRCLE
5
144
100
AcDbEntity
8
0
100
AcDbCircle
10
-35.00178619030136
20
-35.001786190301345
30
0
40
0.50000183284282684
210
0
220
0
230
1
0
ARC
5
145
100
AcDbEntity
8
0
100
AcDbCircle
10
-19.535989525158342
20
-47.164050807607993
30
0
40
2.499999999999996
210
0
220
0
230
1
100
AcDbArc
50
181.07817847820166
51
313.92182152179817
0
LWPOLYLINE
5
146
100
AcDbEntity
8
0
100
AcDbPolyline
90
4
70
1
43
0.0
10
-21.121309503010743
20
-43.151973951174085
10
-15.578032266642388
20
-45.448074562471909
10
-17.147034339339257
20
-49.235980645768187
10
-22.690311575707614
20
-46.939880034470363
0
CIRCLE
5
147
100
AcDbEntity
8
0
100
AcDbCircle
10
-18.942830184342139
20
-45.732037540769134
30
0
40
0.50000183284282684
210
0
220
0
230
1
0
CIRCLE
5
148
100
AcDbEntity
8
0
100
AcDbCircle
10
0
20
0
30
0
40
49.500000737607479
210
0
220
0
230
1
0
ENDSEC
0
SECTION
2
OBJECTS
0
DICTIONARY
5
C
100
AcDbDictionary
3
ACAD_GROUP
350
D
3
ACAD_MLINESTYLE
350
17
0
DICTIONARY
5
D
100
AcDbDictionary
0
DICTIONARY
5
1A
330
C
100
AcDbDictionary
0
DICTIONARY
5
17
100
AcDbDictionary
0
ENDSEC
0
EOF
