0
SECTION
2
HEADER
9
$INSUNITS
70
4
9
$ACADVER
1
AC1014
9
$HANDSEED
5
FFFF
0
ENDSEC
0
SECTION
2
TABLES
0
TABLE
2
VPORT
5
8
100
AcDbSymbolTable
0
ENDTAB
0
TABLE
2
LTYPE
5
5
100
AcDbSymbolTable
0
LTYPE
5
14
100
AcDbSymbolTableRecord
100
AcDbLinetypeTableRecord
2
BYBLOCK
70
0
0
LTYPE
5
15
100
AcDbSymbolTableRecord
100
AcDbLinetypeTableRecord
2
BYLAYER
70
0
0
ENDTAB
0
TABLE
2
LAYER
5
2
100
AcDbSymbolTable
70
2
0
LAYER
5
50
100
AcDbSymbolTableRecord
100
AcDbLayerTableRecord
2
0
70
0
6
CONTINUOUS
0
ENDTAB
0
TABLE
2
STYLE
5
3
100
AcDbSymbolTable
70
1
0
STYLE
5
11
100
AcDbSymbolTableRecord
100
AcDbTextStyleTableRecord
2
STANDARD
70
0
0
ENDTAB
0
TABLE
2
VIEW
5
6
100
AcDbSymbolTable
70
0
0
ENDTAB
0
TABLE
2
UCS
5
7
100
AcDbSymbolTable
70
0
0
ENDTAB
0
TABLE
2
APPID
5
9
100
AcDbSymbolTable
70
2
0
APPID
5
12
100
AcDbSymbolTableRecord
100
AcDbRegAppTableRecord
2
ACAD
70
0
0
ENDTAB
0
TABLE
2
DIMSTYLE
5
A
100
AcDbSymbolTable
70
1
0
ENDTAB
0
TABLE
2
BLOCK_RECORD
5
1
100
AcDbSymbolTable
70
1
0
BLOCK_RECORD
5
1F
100
AcDbSymbolTableRecord
100
AcDbBlockTableRecord
2
*MODEL_SPACE
0
BLOCK_RECORD
5
1B
100
AcDbSymbolTableRecord
100
AcDbBlockTableRecord
2
*PAPER_SPACE
0
ENDTAB
0
ENDSEC
0
SECTION
2
BLOCKS
0
BLOCK
5
20
100
AcDbEntity
100
AcDbBlockBegin
2
*MODEL_SPACE
0
ENDBLK
5
21
100
AcDbEntity
100
AcDbBlockEnd
0
BLOCK
5
1C
100
AcDbEntity
100
AcDbBlockBegin
2
*PAPER_SPACE
0
ENDBLK
5
1D
100
AcDbEntity
100
AcDbBlockEnd
0
ENDSEC
0
SECTION
2
ENTITIES
0
LWPOLYLINE
5
100
100
AcDbEntity
8
0
100
AcDbPolyline
90
12
70
1
43
0.0
10
-47.500000685453415
20
-4
10
-54.353013632702016
20
-3.9999999999999334
42
-0.011484038745013461
10
-54.479354721670809
20
-1.5000000223517429
10
-55.979907943770606
20
-1.500000022351742
42
0.017897898700108585
10
-55.729257068976651
20
-5.5
10
-46.000000685453415
20
-5.5
10
-46.000000685453415
20
5.5
10
-55.729257068976665
20
5.5000000000000089
42
0.017897898700109362
10
-55.979907943770598
20
1.5000000223517407
10
-54.479354721670802
20
1.5000000223519407
42
-0.011484038745012906
10
-54.353013632701995
20
4.000000000000008
10
-47.500000685453415
20
4.0000000000000018
0
CIRCLE
5
101
100
AcDbEntity
8
0
100
AcDbCircle
10
-49.550000685453419
20
0
30
0
40
0.49999999999999739
210
0
220
0
230
1
0
CIRCLE
5
102
100
AcDbEntity
8
0
100
AcDbCircle
10
-49.550000685453419
20
2.54
30
0
40
0.49999999999999739
210
0
220
0
230
1
0
CIRCLE
5
103
100
AcDbEntity
8
0
100
AcDbCircle
10
-49.550000685453419
20
-2.54
30
0
40
0.49999999999999739
210
0
220
0
230
1
0
LWPOLYLINE
5
104
100
AcDbEntity
8
0
100
AcDbPolyline
90
6
70
1
43
0.0
10
-48.250000685453429
20
-3.0000000447034889
10
-48.250000685453422
20
2.9999999999999991
10
-52.150000685453421
20
2.9999999999999991
10
-52.150000685453421
20
2.3685438341136584
42
0.71774056256527186
10
-52.150000685453428
20
-2.3685438788171425
10
-52.150000685453428
20
-3.0000000447034836
0
LWPOLYLINE
5
105
100
AcDbEntity
8
0
100
AcDbPolyline
90
6
70
1
43
0.0
10
-49.08672073788577
20
-17.768692089957678
42
0.7177405625652713
10
-47.273915752486928
20
-22.145190471645151
10
-47.032267939537448
20
-22.728579898985593
10
-43.42913776274343
20
-21.236114512761752
10
-45.72523837404124
20
-15.692837276393385
10
-49.328368550835258
20
-17.185302662617236
0
CIRCLE
5
106
100
AcDbEntity
8
0
100
AcDbCircle
10
-46.750247387417971
20
-16.615310323423195
30
0
40
0.49999999999999739
210
0
220
0
230
1
0
CIRCLE
5
107
100
AcDbEntity
8
0
100
AcDbCircle
10
-45.778231469210638
20
-18.961964336001863
30
0
40
0.49999999999999739
210
0
220
0
230
1
0
CIRCLE
5
108
100
AcDbEntity
8
0
100
AcDbCircle
10
-44.806215551003312
20
-21.308618348580531
30
0
40
0.49999999999999739
210
0
220
0
230
1
0
LWPOLYLINE
5
109
100
AcDbEntity
8
0
100
AcDbPolyline
90
12
70
1
43
0.0
10
-49.758335614672511
20
-22.234165777341492
42
0.011484038745013511
10
-48.684903096099958
20
-24.495515946394061
10
-42.353544698102148
20
-21.872981429698577
10
-45.415012157022865
20
-14.481945169608281
10
-51.746370555020668
20
-17.104479686303758
42
0.011484038745012908
10
-50.906385928875075
20
-19.462527138506999
10
-52.292716338216948
20
-20.036763995986561
42
-0.017897898700109011
10
-53.591878846095469
20
-16.245325949500341
10
-44.603218006803573
20
-12.522100722293716
10
-40.393700250787575
20
-22.684775579917869
10
-49.382361090079456
20
-26.408000807124601
42
-0.017897898700109792
10
-51.14466602401437
20
-22.808402634821128
0
LWPOLYLINE
5
110
100
AcDbEntity
8
0
100
AcDbPolyline
90
6
70
1
43
0.0
10
-38.550432530206564
20
-35.20080571692786
42
0.71774056256527208
10
-35.200805685317725
20
-38.550432561816713
10
-34.754298748397431
20
-38.996939498736999
10
-31.996582301769898
20
-36.239223052109473
10
-36.239223020499324
20
-31.99658233338004
10
-38.99693946712685
20
-34.754298780007574
0
CIRCLE
5
111
100
AcDbEntity
8
0
100
AcDbCircle
10
-36.833192716696018
20
-33.241090268268358
30
0
40
0.49999999999999739
210
0
220
0
230
1
0
CIRCLE
5
112
100
AcDbEntity
8
0
100
AcDbCircle
10
-35.037141492482185
20
-35.037141492482192
30
0
40
0.49999999999999739
210
0
220
0
230
1
0
CIRCLE
5
113
100
AcDbEntity
8
0
100
AcDbCircle
10
-33.241090268268351
20
-36.833192716696026
30
0
40
0.49999999999999739
210
0
220
0
230
1
0
LWPOLYLINE
5
114
100
AcDbEntity
8
0
100
AcDbPolyline
90
12
70
1
43
0.0
10
-37.462060970775887
20
-39.583381345945675
42
0.011484038745013511
10
-35.604957392862254
20
-41.261811642354644
10
-30.759145466303575
20
-36.415999715795955
10
-36.415999715795955
20
-30.759145466303579
10
-41.261811642354644
20
-35.604957392862261
42
0.011484038745012908
10
-39.583381345945675
20
-37.462060970775909
10
-40.644432704823679
20
-38.523112329654047
42
-0.017897898700109792
10
-43.295622880487755
20
-35.51744828743572
10
-36.415999715795955
20
-28.637825122743934
10
-28.637825122743926
20
-36.415999715795955
10
-35.517448287435862
20
-43.295622880487663
42
-0.017897898700108567
10
-38.523112329653983
20
-40.644432704823771
0
LWPOLYLINE
5
115
100
AcDbEntity
8
0
100
AcDbPolyline
90
6
70
1
43
0.0
10
-22.145190430344517
20
-47.273915769594197
42
0.71774056256527086
10
-17.768692048657051
20
-49.086720754993053
10
-17.185302621316612
20
-49.32836856794254
10
-15.692837235092757
20
-45.725238391148523
10
-21.236114471461111
20
-43.429137779850691
10
-22.728579857684963
20
-47.032267956644709
0
CIRCLE
5
116
100
AcDbEntity
8
0
100
AcDbCircle
10
-21.308618348580538
20
-44.806215551003305
30
0
40
0.49999999999999739
210
0
220
0
230
1
0
CIRCLE
5
117
100
AcDbEntity
8
0
100
AcDbCircle
10
-18.96196433600187
20
-45.778231469210631
30
0
40
0.49999999999999739
210
0
220
0
230
1
0
CIRCLE
5
118
100
AcDbEntity
8
0
100
AcDbCircle
10
-16.615310323423202
20
-46.750247387417964
30
0
40
0.49999999999999739
210
0
220
0
230
1
0
LWPOLYLINE
5
119
100
AcDbEntity
8
0
100
AcDbPolyline
90
12
70
1
43
0.0
10
-19.462527138507003
20
-50.906385928875068
42
0.011484038745014117
10
-17.104479686303772
20
-51.746370555020668
10
-14.481945169608288
20
-45.415012157022858
10
-21.872981429698584
20
-42.353544698102141
10
-24.495515946394072
20
-48.684903096099951
42
0.011484038745013511
10
-22.234165777341495
20
-49.758335614672511
10
-22.808402634821142
20
-51.144666024014349
42
-0.017897898700109348
10
-26.40800080712452
20
-49.382361090079463
10
-22.684775579917876
20
-40.393700250787568
10
-12.522100722293722
20
-44.603218006803559
10
-16.245325949500263
20
-53.591878846095526
42
-0.017897898700109792
10
-20.036763995986647
20
-52.292716338216927
0
LWPOLYLINE
5
120
100
AcDbEntity
8
0
100
AcDbPolyline
90
6
70
1
43
0.0
10
-2.3685438341136473
20
-52.150000685453428
42
0.71774056256527186
10
2.3685438788171549
20
-52.150000685453435
10
3.000000044703496
20
-52.150000685453435
10
3.0000000447035005
20
-48.250000685453436
10
-2.9999999999999893
20
-48.250000685453429
10
-2.9999999999999885
20
-52.150000685453428
0
CIRCLE
5
121
100
AcDbEntity
8
0
100
AcDbCircle
10
-2.5399999999999894
20
-49.550000685453426
30
0
40
0.49999999999999739
210
0
220
0
230
1
0
CIRCLE
5
122
100
AcDbEntity
8
0
100
AcDbCircle
10
1.1002310326236535e-14
20
-49.550000685453426
30
0
40
0.49999999999999739
210
0
220
0
230
1
0
CIRCLE
5
123
100
AcDbEntity
8
0
100
AcDbCircle
10
2.5400000000000116
20
-49.550000685453426
30
0
40
0.49999999999999739
210
0
220
0
230
1
0
LWPOLYLINE
5
124
100
AcDbEntity
8
0
100
AcDbPolyline
90
12
70
1
43
0.0
10
1.500000022351756
20
-54.479354721670823
42
0.011484038745014117
10
4.0000000000000133
20
-54.353013632702002
10
4.0000000000000115
20
-47.500000685453429
10
-3.999999999999992
20
-47.500000685453429
10
-3.9999999999999973
20
-54.353013632702016
42
0.011484038745014117
10
-1.5000000223517298
20
-54.479354721670823
10
-1.5000000223519088
20
-55.979907943770584
42
-0.017897898700108567
10
-5.4999999999999982
20
-55.729257068976665
10
-5.4999999999999911
20
-46.000000685453422
10
5.5000000000000115
20
-46.000000685453422
10
5.500000000000119
20
-55.729257068976693
42
-0.017897898700109792
10
1.5000000223517547
20
-55.979907943770613
0
LWPOLYLINE
5
125
100
AcDbEntity
8
0
100
AcDbPolyline
90
6
70
1
43
0.0
10
17.768692089957685
20
-49.08672073788577
42
0.71774056256527352
10
22.145190471645154
20
-47.273915752486928
10
22.728579898985597
20
-47.032267939537448
10
21.236114512761755
20
-43.42913776274343
10
15.692837276393394
20
-45.72523837404124
10
17.185302662617239
20
-49.328368550835258
0
CIRCLE
5
126
100
AcDbEntity
8
0
100
AcDbCircle
10
16.615310323423202
20
-46.750247387417978
30
0
40
0.49999999999999739
210
0
220
0
230
1
0
CIRCLE
5
127
100
AcDbEntity
8
0
100
AcDbCircle
10
18.96196433600187
20
-45.778231469210652
30
0
40
0.49999999999999739
210
0
220
0
230
1
0
CIRCLE
5
128
100
AcDbEntity
8
0
100
AcDbCircle
10
21.308618348580538
20
-44.806215551003319
30
0
40
0.49999999999999739
210
0
220
0
230
1
0
LWPOLYLINE
5
129
100
AcDbEntity
8
0
100
AcDbPolyline
90
12
70
1
43
0.0
10
22.234165777341495
20
-49.758335614672518
42
0.011484038745013511
10
24.495515946394065
20
-48.684903096099966
10
21.872981429698584
20
-42.353544698102148
10
14.481945169608286
20
-45.415012157022865
10
17.104479686303765
20
-51.74637055502069
42
0.011484038745013511
10
19.462527138507003
20
-50.906385928875082
10
20.036763995986739
20
-52.292716338216891
42
-0.017897898700109792
10
16.245325949500348
20
-53.591878846095476
10
12.522100722293722
20
-44.603218006803573
10
22.684775579917876
20
-40.393700250787575
10
26.408000807124612
20
-49.382361090079463
42
-0.017897898700109792
10
22.808402634821139
20
-51.144666024014384
0
LWPOLYLINE
5
130
100
AcDbEntity
8
0
100
AcDbPolyline
90
6
70
1
43
0.0
10
35.20080571692786
20
-38.550432530206578
42
0.7177405625652713
10
38.550432561816706
20
-35.200805685317739
10
38.996939498736992
20
-34.754298748397446
10
36.239223052109466
20
-31.996582301769912
10
31.996582333380033
20
-36.239223020499331
10
34.754298780007566
20
-38.996939467126865
0
CIRCLE
5
131
100
AcDbEntity
8
0
100
AcDbCircle
10
33.241090268268351
20
-36.833192716696033
30
0
40
0.49999999999999739
210
0
220
0
230
1
0
CIRCLE
5
132
100
AcDbEntity
8
0
100
AcDbCircle
10
35.037141492482185
20
-35.037141492482199
30
0
40
0.49999999999999739
210
0
220
0
230
1
0
CIRCLE
5
133
100
AcDbEntity
8
0
100
AcDbCircle
10
36.833192716696018
20
-33.241090268268366
30
0
40
0.49999999999999739
210
0
220
0
230
1
0
LWPOLYLINE
5
134
100
AcDbEntity
8
0
100
AcDbPolyline
90
12
70
1
43
0.0
10
39.583381345945682
20
-37.462060970775902
42
0.011484038745014117
10
41.26181164235463
20
-35.604957392862261
10
36.415999715795955
20
-30.759145466303586
10
30.759145466303572
20
-36.415999715795962
10
35.604957392862239
20
-41.261811642354658
42
0.011484038745012908
10
37.462060970775894
20
-39.583381345945689
10
38.523112329654047
20
-40.644432704823707
42
-0.017897898700109792
10
35.517448287435712
20
-43.295622880487763
10
28.637825122743926
20
-36.415999715795962
10
36.415999715795955
20
-28.637825122743941
10
43.295622880487763
20
-35.517448287435748
42
-0.017897898700109348
10
40.644432704823757
20
-38.523112329653998
0
LWPOLYLINE
5
135
100
AcDbEntity
8
0
100
AcDbPolyline
90
6
70
1
43
0.0
10
47.273915769594204
20
-22.14519043034452
42
0.7177405625652683
10
49.086720754993067
20
-17.768692048657059
10
49.328368567942547
20
-17.185302621316616
10
45.725238391148537
20
-15.692837235092759
10
43.429137779850706
20
-21.236114471461114
10
47.032267956644716
20
-22.728579857684963
0
CIRCLE
5
136
100
AcDbEntity
8
0
100
AcDbCircle
10
44.806215551003312
20
-21.308618348580541
30
0
40
0.49999999999999739
210
0
220
0
230
1
0
CIRCLE
5
137
100
AcDbEntity
8
0
100
AcDbCircle
10
45.778231469210638
20
-18.96196433600187
30
0
40
0.49999999999999739
210
0
220
0
230
1
0
CIRCLE
5
138
100
AcDbEntity
8
0
100
AcDbCircle
10
46.750247387417971
20
-16.615310323423202
30
0
40
0.49999999999999739
210
0
220
0
230
1
0
LWPOLYLINE
5
139
100
AcDbEntity
8
0
100
AcDbPolyline
90
12
70
1
43
0.0
10
50.906385928875075
20
-19.462527138507006
42
0.011484038745014117
10
51.746370555020675
20
-17.104479686303776
10
45.415012157022865
20
-14.481945169608288
10
42.353544698102148
20
-21.872981429698584
10
48.684903096099966
20
-24.495515946394079
42
0.011484038745014117
10
49.758335614672518
20
-22.234165777341502
10
51.144666024014363
20
-22.808402634821149
42
-0.017897898700109348
10
49.382361090079471
20
-26.40800080712452
10
40.393700250787575
20
-22.684775579917876
10
44.603218006803573
20
-12.522100722293725
10
53.59187884609554
20
-16.245325949500199
42
-0.017897898700110125
10
52.292716338216927
20
-20.036763995986654
0
LWPOLYLINE
5
140
100
AcDbEntity
8
0
100
AcDbPolyline
90
6
70
1
43
0.0
10
52.150000685453421
20
-2.3685438341136651
42
0.71774056256527186
10
52.150000685453428
20
2.3685438788171362
10
52.150000685453428
20
3.0000000447034769
10
48.250000685453429
20
3.0000000447034831
10
48.250000685453422
20
-3.0000000000000053
10
52.150000685453421
20
-3.0000000000000062
0
CIRCLE
5
141
100
AcDbEntity
8
0
100
AcDbCircle
10
49.550000685453419
20
-2.5400000000000063
30
0
40
0.49999999999999739
210
0
220
0
230
1
0
CIRCLE
5
142
100
AcDbEntity
8
0
100
AcDbCircle
10
49.550000685453419
20
-6.0681249737189691e-15
30
0
40
0.49999999999999739
210
0
220
0
230
1
0
CIRCLE
5
143
100
AcDbEntity
8
0
100
AcDbCircle
10
49.550000685453419
20
2.5399999999999938
30
0
40
0.49999999999999739
210
0
220
0
230
1
0
LWPOLYLINE
5
144
100
AcDbEntity
8
0
100
AcDbPolyline
90
12
70
1
43
0.0
10
54.479354721670809
20
1.5000000223517362
42
0.011484038745013511
10
54.353013632701995
20
3.9999999999999929
10
47.500000685453415
20
3.9999999999999947
10
47.500000685453415
20
-4.0000000000000071
10
54.353013632702002
20
-4.0000000000000151
42
0.011484038745012908
10
54.479354721670816
20
-1.5000000223517485
10
55.979907943770598
20
-1.5000000223517529
42
-0.017897898700109348
10
55.729257068976651
20
-5.500000000000016
10
46.000000685453415
20
-5.5000000000000062
10
46.000000685453415
20
5.4999999999999947
10
55.729257068976693
20
5.499999999999825
42
-0.017897898700108567
10
55.979907943770606
20
1.5000000223517349
0
LWPOLYLINE
5
145
100
AcDbEntity
8
0
100
AcDbPolyline
90
6
70
1
43
0.0
10
49.08672073788577
20
17.768692089957671
42
0.71774056256527152
10
47.273915752486928
20
22.145190471645147
10
47.032267939537448
20
22.728579898985586
10
43.42913776274343
20
21.236114512761741
10
45.72523837404124
20
15.69283727639338
10
49.328368550835258
20
17.185302662617229
0
CIRCLE
5
146
100
AcDbEntity
8
0
100
AcDbCircle
10
46.750247387417971
20
16.615310323423188
30
0
40
0.49999999999999739
210
0
220
0
230
1
0
CIRCLE
5
147
100
AcDbEntity
8
0
100
AcDbCircle
10
45.778231469210638
20
18.961964336001856
30
0
40
0.49999999999999739
210
0
220
0
230
1
0
CIRCLE
5
148
100
AcDbEntity
8
0
100
AcDbCircle
10
44.806215551003312
20
21.308618348580524
30
0
40
0.49999999999999739
210
0
220
0
230
1
0
LWPOLYLINE
5
149
100
AcDbEntity
8
0
100
AcDbPolyline
90
12
70
1
43
0.0
10
49.758335614672518
20
22.234165777341488
42
0.011484038745013511
10
48.684903096099958
20
24.495515946394057
10
42.353544698102148
20
21.872981429698569
10
45.415012157022865
20
14.481945169608277
10
51.746370555020668
20
17.104479686303755
42
0.011484038745013511
10
50.906385928875075
20
19.462527138506992
10
52.292716338216906
20
20.036763995986622
42
-0.017897898700109348
10
53.591878846095469
20
16.245325949500334
10
44.603218006803573
20
12.522100722293711
10
40.393700250787575
20
22.684775579917865
10
49.382361090079414
20
26.408000807124665
42
-0.017897898700110125
10
51.14466602401437
20
22.808402634821125
0
LWPOLYLINE
5
150
100
AcDbEntity
8
0
100
AcDbPolyline
90
6
70
1
43
0.0
10
38.550432530206564
20
35.20080571692786
42
0.7177405625652713
10
35.200805685317725
20
38.550432561816706
10
34.754298748397431
20
38.996939498736992
10
31.996582301769898
20
36.239223052109466
10
36.239223020499324
20
31.996582333380033
10
38.99693946712685
20
34.754298780007566
0
CIRCLE
5
151
100
AcDbEntity
8
0
100
AcDbCircle
10
36.833192716696018
20
33.241090268268358
30
0
40
0.49999999999999739
210
0
220
0
230
1
0
CIRCLE
5
152
100
AcDbEntity
8
0
100
AcDbCircle
10
35.037141492482185
20
35.037141492482185
30
0
40
0.49999999999999739
210
0
220
0
230
1
0
CIRCLE
5
153
100
AcDbEntity
8
0
100
AcDbCircle
10
33.241090268268358
20
36.833192716696018
30
0
40
0.49999999999999739
210
0
220
0
230
1
0
LWPOLYLINE
5
154
100
AcDbEntity
8
0
100
AcDbPolyline
90
12
70
1
43
0.0
10
37.462060970775894
20
39.583381345945675
42
0.011484038745013511
10
35.604957392862254
20
41.26181164235463
10
30.759145466303575
20
36.415999715795955
10
36.415999715795955
20
30.759145466303575
10
41.261811642354644
20
35.604957392862254
42
0.011484038745013511
10
39.583381345945675
20
37.462060970775902
10
40.6444327048237
20
38.523112329654047
42
-0.017897898700109792
10
43.295622880487755
20
35.517448287435712
10
36.415999715795955
20
28.637825122743926
10
28.637825122743926
20
36.415999715795955
10
35.517448287435727
20
43.295622880487763
42
-0.017897898700109348
10
38.523112329653983
20
40.644432704823757
0
LWPOLYLINE
5
155
100
AcDbEntity
8
0
100
AcDbPolyline
90
6
70
1
43
0.0
10
22.145190430344531
20
47.27391576959419
42
0.71774056256526853
10
17.768692048657066
20
49.086720754993046
10
17.185302621316623
20
49.328368567942533
10
15.692837235092769
20
45.725238391148515
10
21.236114471461121
20
43.429137779850684
10
22.72857985768497
20
47.032267956644702
0
CIRCLE
5
156
100
AcDbEntity
8
0
100
AcDbCircle
10
21.308618348580545
20
44.806215551003291
30
0
40
0.49999999999999739
210
0
220
0
230
1
0
CIRCLE
5
157
100
AcDbEntity
8
0
100
AcDbCircle
10
18.961964336001881
20
45.778231469210624
30
0
40
0.49999999999999739
210
0
220
0
230
1
0
CIRCLE
5
158
100
AcDbEntity
8
0
100
AcDbCircle
10
16.615310323423213
20
46.750247387417957
30
0
40
0.49999999999999739
210
0
220
0
230
1
0
LWPOLYLINE
5
159
100
AcDbEntity
8
0
100
AcDbPolyline
90
12
70
1
43
0.0
10
19.462527138507014
20
50.906385928875046
42
0.011484038745014117
10
17.104479686303787
20
51.746370555020661
10
14.481945169608299
20
45.415012157022844
10
21.872981429698591
20
42.353544698102127
10
24.495515946394086
20
48.68490309609993
42
0.011484038745013511
10
22.234165777341509
20
49.758335614672504
10
22.808402634821153
20
51.144666024014342
42
-0.017897898700109348
10
26.408000807124527
20
49.382361090079456
10
22.684775579917886
20
40.39370025078756
10
12.522100722293732
20
44.603218006803552
10
16.245325949500373
20
53.591878846095469
42
-0.017897898700109348
10
20.036763995986661
20
52.292716338216906
0
LWPOLYLINE
5
160
100
AcDbEntity
8
0
100
AcDbPolyline
90
6
70
1
43
0.0
10
2.3685438341136704
20
52.150000685453421
42
0.71774056256527186
10
-2.3685438788171309
20
52.150000685453428
10
-3.000000044703472
20
52.150000685453428
10
-3.0000000447034787
20
48.250000685453429
10
3.0000000000000098
20
48.250000685453422
10
3.0000000000000111
20
52.150000685453421
0
CIRCLE
5
161
100
AcDbEntity
8
0
100
AcDbCircle
10
2.5400000000000111
20
49.550000685453419
30
0
40
0.49999999999999739
210
0
220
0
230
1
0
CIRCLE
5
162
100
AcDbEntity
8
0
100
AcDbCircle
10
1.1002310326236535e-14
20
49.550000685453419
30
0
40
0.49999999999999739
210
0
220
0
230
1
0
CIRCLE
5
163
100
AcDbEntity
8
0
100
AcDbCircle
10
-2.5399999999999889
20
49.550000685453419
30
0
40
0.49999999999999739
210
0
220
0
230
1
0
LWPOLYLINE
5
164
100
AcDbEntity
8
0
100
AcDbPolyline
90
12
70
1
43
0.0
10
-1.5000000223517307
20
54.479354721670809
42
0.011484038745014117
10
-3.9999999999999876
20
54.353013632701995
10
-3.9999999999999898
20
47.500000685453415
10
4.0000000000000115
20
47.500000685453415
10
4.0000000000000204
20
54.353013632702002
42
0.011484038745014117
10
1.500000022351754
20
54.479354721670816
10
1.5000000223516592
20
55.979907943770606
42
-0.017897898700109792
10
5.5000000000000213
20
55.729257068976651
10
5.5000000000000107
20
46.000000685453415
10
-5.4999999999999902
20
46.000000685453415
10
-5.4999999999998197
20
55.7292570689767
42
-0.017897898700108567
10
-1.5000000223517294
20
55.979907943770606
0
LWPOLYLINE
5
165
100
AcDbEntity
8
0
100
AcDbPolyline
90
6
70
1
43
0.0
10
-17.768692089957685
20
49.08672073788577
42
0.71774056256527352
10
-22.145190471645154
20
47.273915752486928
10
-22.728579898985597
20
47.032267939537448
10
-21.236114512761755
20
43.42913776274343
10
-15.692837276393394
20
45.72523837404124
10
-17.185302662617239
20
49.328368550835258
0
CIRCLE
5
166
100
AcDbEntity
8
0
100
AcDbCircle
10
-16.615310323423202
20
46.750247387417978
30
0
40
0.49999999999999739
210
0
220
0
230
1
0
CIRCLE
5
167
100
AcDbEntity
8
0
100
AcDbCircle
10
-18.96196433600187
20
45.778231469210652
30
0
40
0.49999999999999739
210
0
220
0
230
1
0
CIRCLE
5
168
100
AcDbEntity
8
0
100
AcDbCircle
10
-21.308618348580538
20
44.806215551003319
30
0
40
0.49999999999999739
210
0
220
0
230
1
0
LWPOLYLINE
5
169
100
AcDbEntity
8
0
100
AcDbPolyline
90
12
70
1
43
0.0
10
-22.234165777341495
20
49.758335614672518
42
0.011484038745013511
10
-24.495515946394065
20
48.684903096099966
10
-21.872981429698584
20
42.353544698102148
10
-14.481945169608286
20
45.415012157022865
10
-17.104479686303765
20
51.74637055502069
42
0.011484038745013511
10
-19.462527138507003
20
50.906385928875082
10
-20.036763995986739
20
52.292716338216891
42
-0.017897898700109792
10
-16.245325949500348
20
53.591878846095476
10
-12.522100722293722
20
44.603218006803573
10
-22.684775579917876
20
40.393700250787575
10
-26.408000807124612
20
49.382361090079463
42
-0.017897898700109792
10
-22.808402634821139
20
51.144666024014384
0
LWPOLYLINE
5
170
100
AcDbEntity
8
0
100
AcDbPolyline
90
6
70
1
43
0.0
10
-35.200805716927853
20
38.550432530206578
42
0.7177405625652713
10
-38.550432561816699
20
35.200805685317739
10
-38.996939498736992
20
34.754298748397446
10
-36.239223052109459
20
31.996582301769912
10
-31.996582333380029
20
36.239223020499331
10
-34.754298780007559
20
38.996939467126865
0
CIRCLE
5
171
100
AcDbEntity
8
0
100
AcDbCircle
10
-33.241090268268351
20
36.833192716696026
30
0
40
0.49999999999999739
210
0
220
0
230
1
0
CIRCLE
5
172
100
AcDbEntity
8
0
100
AcDbCircle
10
-35.037141492482185
20
35.037141492482199
30
0
40
0.49999999999999739
210
0
220
0
230
1
0
CIRCLE
5
173
100
AcDbEntity
8
0
100
AcDbCircle
10
-36.833192716696018
20
33.241090268268373
30
0
40
0.49999999999999739
210
0
220
0
230
1
0
LWPOLYLINE
5
174
100
AcDbEntity
8
0
100
AcDbPolyline
90
12
70
1
43
0.0
10
-39.583381345945668
20
37.462060970775902
42
0.011484038745013511
10
-41.261811642354623
20
35.604957392862261
10
-36.415999715795948
20
30.759145466303586
10
-30.759145466303565
20
36.415999715795962
10
-35.604957392862239
20
41.261811642354658
42
0.011484038745012908
10
-37.462060970775894
20
39.583381345945689
10
-38.523112329653955
20
40.64443270482375
42
-0.017897898700109348
10
-35.517448287435705
20
43.295622880487755
10
-28.637825122743923
20
36.415999715795962
10
-36.415999715795948
20
28.637825122743941
10
-43.295622880487642
20
35.517448287435876
42
-0.017897898700108567
10
-40.64443270482375
20
38.523112329653998
0
LWPOLYLINE
5
175
100
AcDbEntity
8
0
100
AcDbPolyline
90
6
70
1
43
0.0
10
-47.27391576959419
20
22.145190430344549
42
0.71774056256527063
10
-49.086720754993046
20
17.768692048657087
10
-49.328368567942533
20
17.185302621316644
10
-45.725238391148515
20
15.692837235092787
10
-43.429137779850691
20
21.236114471461143
10
-47.032267956644702
20
22.728579857684991
0
CIRCLE
5
176
100
AcDbEntity
8
0
100
AcDbCircle
10
-44.806215551003305
20
21.308618348580566
30
0
40
0.49999999999999739
210
0
220
0
230
1
0
CIRCLE
5
177
100
AcDbEntity
8
0
100
AcDbCircle
10
-45.778231469210631
20
18.961964336001898
30
0
40
0.49999999999999739
210
0
220
0
230
1
0
CIRCLE
5
178
100
AcDbEntity
8
0
100
AcDbCircle
10
-46.750247387417964
20
16.61531032342323
30
0
40
0.49999999999999739
210
0
220
0
230
1
0
LWPOLYLINE
5
179
100
AcDbEntity
8
0
100
AcDbPolyline
90
12
70
1
43
0.0
10
-50.906385928875068
20
19.462527138507038
42
0.011484038745013511
10
-51.746370555020661
20
17.104479686303808
10
-45.415012157022858
20
14.481945169608316
10
-42.353544698102141
20
21.872981429698612
10
-48.684903096099923
20
24.495515946394107
42
0.011484038745013511
10
-49.758335614672511
20
22.234165777341527
10
-51.144666024014427
20
22.808402634821014
42
-0.017897898700110125
10
-49.382361090079463
20
26.408000807124552
10
-40.39370025078756
20
22.684775579917904
10
-44.603218006803552
20
12.52210072229375
10
-53.591878846095469
20
16.245325949500394
42
-0.017897898700109348
10
-52.29271633821692
20
20.036763995986682
0
CIRCLE
5
180
100
AcDbEntity
8
0
100
AcDbCircle
10
5.1463771507819382e-15
20
42.250000000000007
30
0
40
0.57500000000000107
210
0
220
0
230
1
0
CIRCLE
5
181
100
AcDbEntity
8
0
100
AcDbCircle
10
3.0000000000000053
20
42.250000000000007
30
0
40
0.57500000000000107
210
0
220
0
230
1
0
CIRCLE
5
182
100
AcDbEntity
8
0
100
AcDbCircle
10
6.0000000000000062
20
42.250000000000007
30
0
40
0.57500000000000107
210
0
220
0
230
1
0
CIRCLE
5
183
100
AcDbEntity
8
0
100
AcDbCircle
10
-2.9999999999999956
20
42.250000000000007
30
0
40
0.57500000000000107
210
0
220
0
230
1
0
CIRCLE
5
184
100
AcDbEntity
8
0
100
AcDbCircle
10
-5.9999999999999956
20
42.250000000000007
30
0
40
0.57500000000000107
210
0
220
0
230
1
0
ENDSEC
0
SECTION
2
OBJECTS
0
DICTIONARY
5
C
100
AcDbDictionary
3
ACAD_GROUP
350
D
3
ACAD_MLINESTYLE
350
17
0
DICTIONARY
5
D
100
AcDbDictionary
0
DICTIONARY
5
1A
330
C
100
AcDbDictionary
0
DICTIONARY
5
17
100
AcDbDictionary
0
ENDSEC
0
EOF
