0
SECTION
2
HEADER
9
$INSUNITS
70
4
9
$ACADVER
1
AC1014
9
$HANDSEED
5
FFFF
0
ENDSEC
0
SECTION
2
TABLES
0
TABLE
2
VPORT
5
8
100
AcDbSymbolTable
0
ENDTAB
0
TABLE
2
LTYPE
5
5
100
AcDbSymbolTable
0
LTYPE
5
14
100
AcDbSymbolTableRecord
100
AcDbLinetypeTableRecord
2
BYBLOCK
70
0
0
LTYPE
5
15
100
AcDbSymbolTableRecord
100
AcDbLinetypeTableRecord
2
BYLAYER
70
0
0
ENDTAB
0
TABLE
2
LAYER
5
2
100
AcDbSymbolTable
70
2
0
LAYER
5
50
100
AcDbSymbolTableRecord
100
AcDbLayerTableRecord
2
0
70
0
6
CONTINUOUS
0
ENDTAB
0
TABLE
2
STYLE
5
3
100
AcDbSymbolTable
70
1
0
STYLE
5
11
100
AcDbSymbolTableRecord
100
AcDbTextStyleTableRecord
2
STANDARD
70
0
0
ENDTAB
0
TABLE
2
VIEW
5
6
100
AcDbSymbolTable
70
0
0
ENDTAB
0
TABLE
2
UCS
5
7
100
AcDbSymbolTable
70
0
0
ENDTAB
0
TABLE
2
APPID
5
9
100
AcDbSymbolTable
70
2
0
APPID
5
12
100
AcDbSymbolTableRecord
100
AcDbRegAppTableRecord
2
ACAD
70
0
0
ENDTAB
0
TABLE
2
DIMSTYLE
5
A
100
AcDbSymbolTable
70
1
0
ENDTAB
0
TABLE
2
BLOCK_RECORD
5
1
100
AcDbSymbolTable
70
1
0
BLOCK_RECORD
5
1F
100
AcDbSymbolTableRecord
100
AcDbBlockTableRecord
2
*MODEL_SPACE
0
BLOCK_RECORD
5
1B
100
AcDbSymbolTableRecord
100
AcDbBlockTableRecord
2
*PAPER_SPACE
0
ENDTAB
0
ENDSEC
0
SECTION
2
BLOCKS
0
BLOCK
5
20
100
AcDbEntity
100
AcDbBlockBegin
2
*MODEL_SPACE
0
ENDBLK
5
21
100
AcDbEntity
100
AcDbBlockEnd
0
BLOCK
5
1C
100
AcDbEntity
100
AcDbBlockBegin
2
*PAPER_SPACE
0
ENDBLK
5
1D
100
AcDbEntity
100
AcDbBlockEnd
0
ENDSEC
0
SECTION
2
ENTITIES
0
LWPOLYLINE
5
100
100
AcDbEntity
8
0
100
AcDbPolyline
90
4
70
1
43
0.0
10
2.5
20
46.200000000000003
10
-2.5
20
46.200000000000003
10
-2.5
20
51
10
2.5
20
51
0
LWPOLYLINE
5
101
100
AcDbEntity
8
0
100
AcDbPolyline
90
4
70
1
43
0.0
10
-15.370275743988932
20
43.639942982934166
10
-19.989673406545364
20
41.726525821108716
10
-21.826553881897791
20
46.1611475771629
10
-17.207156219341361
20
48.074564738988329
0
LWPOLYLINE
5
102
100
AcDbEntity
8
0
100
AcDbPolyline
90
4
70
1
43
0.0
10
-30.900566337852133
20
34.436100243784871
10
-34.436100243784871
20
30.900566337852133
10
-37.830212793480285
20
34.294678887547548
10
-34.294678887547548
20
37.830212793480285
0
LWPOLYLINE
5
103
100
AcDbEntity
8
0
100
AcDbPolyline
90
4
70
1
43
0.0
10
-41.726525821108716
20
19.989673406545364
10
-43.639942982934166
20
15.370275743988932
10
-48.074564738988329
20
17.207156219341364
10
-46.1611475771629
20
21.826553881897794
0
LWPOLYLINE
5
104
100
AcDbEntity
8
0
100
AcDbPolyline
90
4
70
1
43
0.0
10
-46.200000000000003
20
2.5000000000000027
10
-46.200000000000003
20
-2.4999999999999973
10
-50.999999999999986
20
-2.4999999999999964
10
-51
20
2.5000000000000036
0
LWPOLYLINE
5
105
100
AcDbEntity
8
0
100
AcDbPolyline
90
4
70
1
43
0.0
10
-43.639942982934166
20
-15.370275743988929
10
-41.726525821108716
20
-19.989673406545357
10
-46.1611475771629
20
-21.826553881897791
10
-48.074564738988329
20
-17.207156219341357
0
LWPOLYLINE
5
106
100
AcDbEntity
8
0
100
AcDbPolyline
90
4
70
1
43
0.0
10
-34.436100243784871
20
-30.90056633785213
10
-30.900566337852133
20
-34.436100243784857
10
-34.294678887547548
20
-37.830212793480285
10
-37.830212793480285
20
-34.294678887547548
0
LWPOLYLINE
5
107
100
AcDbEntity
8
0
100
AcDbPolyline
90
4
70
1
43
0.0
10
-19.989673406545368
20
-41.726525821108716
10
-15.370275743988934
20
-43.639942982934166
10
-17.207156219341368
20
-48.074564738988329
10
-21.826553881897798
20
-46.1611475771629
0
LWPOLYLINE
5
108
100
AcDbEntity
8
0
100
AcDbPolyline
90
4
70
1
43
0.0
10
-2.5000000000000053
20
-46.200000000000003
10
2.4999999999999947
20
-46.200000000000003
10
2.4999999999999938
20
-50.999999999999986
10
-2.5000000000000067
20
-51
0
LWPOLYLINE
5
109
100
AcDbEntity
8
0
100
AcDbPolyline
90
4
70
1
43
0.0
10
15.370275743988923
20
-43.639942982934173
10
19.989673406545354
20
-41.726525821108723
10
21.826553881897787
20
-46.1611475771629
10
17.207156219341353
20
-48.074564738988343
0
LWPOLYLINE
5
110
100
AcDbEntity
8
0
100
AcDbPolyline
90
4
70
1
43
0.0
10
30.90056633785213
20
-34.436100243784871
10
34.436100243784857
20
-30.900566337852137
10
37.830212793480285
20
-34.294678887547555
10
34.294678887547548
20
-37.830212793480293
0
LWPOLYLINE
5
111
100
AcDbEntity
8
0
100
AcDbPolyline
90
4
70
1
43
0.0
10
41.726525821108709
20
-19.989673406545389
10
43.639942982934159
20
-15.370275743988957
10
48.074564738988329
20
-17.207156219341389
10
46.161147577162886
20
-21.826553881897823
0
LWPOLYLINE
5
112
100
AcDbEntity
8
0
100
AcDbPolyline
90
4
70
1
43
0.0
10
46.200000000000003
20
-2.5000000000000084
10
46.200000000000003
20
2.4999999999999916
10
50.999999999999986
20
2.4999999999999911
10
51
20
-2.5000000000000093
0
LWPOLYLINE
5
113
100
AcDbEntity
8
0
100
AcDbPolyline
90
4
70
1
43
0.0
10
43.639942982934166
20
15.370275743988941
10
41.726525821108716
20
19.989673406545371
10
46.161147577162893
20
21.826553881897802
10
48.074564738988329
20
17.207156219341371
0
LWPOLYLINE
5
114
100
AcDbEntity
8
0
100
AcDbPolyline
90
4
70
1
43
0.0
10
34.436100243784871
20
30.900566337852119
10
30.900566337852137
20
34.43610024378485
10
34.294678887547555
20
37.830212793480278
10
37.830212793480293
20
34.294678887547541
0
LWPOLYLINE
5
115
100
AcDbEntity
8
0
100
AcDbPolyline
90
4
70
1
43
0.0
10
19.989673406545389
20
41.726525821108709
10
15.370275743988959
20
43.639942982934159
10
17.207156219341389
20
48.074564738988329
10
21.826553881897823
20
46.161147577162886
0
LWPOLYLINE
5
116
100
AcDbEntity
8
0
100
AcDbPolyline
90
4
70
1
43
0.0
10
8.8900000000000006
20
37.980000000000004
10
-8.8900000000000006
20
37.980000000000004
10
-8.8900000000000006
20
-22.98
10
8.8900000000000006
20
-22.98
0
LWPOLYLINE
5
117
100
AcDbEntity
8
0
100
AcDbPolyline
90
4
70
1
43
0.0
10
36.499999999999993
20
-9
10
15.499999999999998
20
-8.9999999999999982
10
15.499999999999998
20
9
10
36.499999999999993
20
9
0
LWPOLYLINE
5
118
100
AcDbEntity
8
0
100
AcDbPolyline
90
4
70
1
43
0.0
10
-35.500000000000014
20
-13.999999999999995
10
-35.500000000000007
20
14.000000000000012
10
-29.500000000000007
20
14.000000000000012
10
-29.500000000000011
20
-13.999999999999995
0
LWPOLYLINE
5
119
100
AcDbEntity
8
0
100
AcDbPolyline
90
4
70
1
43
0.0
10
-15.5
20
-10.5
10
-24.5
20
-10.5
10
-24.5
20
10.5
10
-15.5
20
10.5
0
LWPOLYLINE
5
120
100
AcDbEntity
8
0
100
AcDbPolyline
90
4
70
1
43
0.0
10
11.500000000000002
20
-30.5
10
-11.500000000000002
20
-30.5
10
-11.500000000000002
20
-24.5
10
11.500000000000002
20
-24.5
0
LINE
5
121
100
AcDbEntity
8
0
100
AcDbLine
10
8.5000001639127749
20
-37.500000409781933
30
0
11
-8.5000001639127731
21
-37.500000409781933
31
0
0
LINE
5
122
100
AcDbEntity
8
0
100
AcDbLine
10
-8.5000001639127749
20
-32.500000335276127
30
0
11
8.5000001639127714
21
-32.500000335276127
31
0
0
ARC
5
123
100
AcDbEntity
8
0
100
AcDbCircle
10
-8.5000001639127749
20
-35.000000335276127
30
0
40
2.5
210
0
220
-0
230
1
100
AcDbArc
50
90
51
180
0
ARC
5
124
100
AcDbEntity
8
0
100
AcDbCircle
10
-8.5000001639127749
20
-35.000000409781926
30
0
40
2.5000000000000044
210
0
220
0
230
1
100
AcDbArc
50
180
51
270.00000000000006
0
ARC
5
125
100
AcDbEntity
8
0
100
AcDbCircle
10
8.5000001639127749
20
-35.000000409781933
30
0
40
2.5
210
0
220
0
230
1
100
AcDbArc
50
-90
51
0
0
ARC
5
126
100
AcDbEntity
8
0
100
AcDbCircle
10
8.5000001639127749
20
-35.000000335276134
30
0
40
2.5000000000000044
210
0
220
-0
230
1
100
AcDbArc
50
0
51
90.000000000000099
0
LINE
5
127
100
AcDbEntity
8
0
100
AcDbLine
10
-8.8900000000000006
20
37.980000000000004
30
0
11
8.8900000000000006
21
-22.98
31
0
0
LINE
5
128
100
AcDbEntity
8
0
100
AcDbLine
10
-8.8900000000000006
20
-22.98
30
0
11
8.8900000000000006
21
37.980000000000004
31
0
0
LINE
5
129
100
AcDbEntity
8
0
100
AcDbLine
10
15.499999999999998
20
9
30
0
11
36.499999999999993
21
-9
31
0
0
LINE
5
130
100
AcDbEntity
8
0
100
AcDbLine
10
36.499999999999993
20
9
30
0
11
15.499999999999998
21
-8.9999999999999982
31
0
0
LINE
5
131
100
AcDbEntity
8
0
100
AcDbLine
10
-15.5
20
-10.5
30
0
11
-24.5
21
10.5
31
0
0
LINE
5
132
100
AcDbEntity
8
0
100
AcDbLine
10
-24.5
20
-10.5
30
0
11
-15.5
21
10.5
31
0
0
LINE
5
133
100
AcDbEntity
8
0
100
AcDbLine
10
-35.500000000000007
20
14.000000000000012
30
0
11
-29.500000000000011
21
-13.999999999999995
31
0
0
LINE
5
134
100
AcDbEntity
8
0
100
AcDbLine
10
-35.500000000000014
20
-13.999999999999995
30
0
11
-29.500000000000007
21
14.000000000000012
31
0
0
LINE
5
135
100
AcDbEntity
8
0
100
AcDbLine
10
-11.500000000000002
20
-24.5
30
0
11
11.500000000000002
21
-30.5
31
0
0
LINE
5
136
100
AcDbEntity
8
0
100
AcDbLine
10
11.500000000000002
20
-24.5
30
0
11
-11.500000000000002
21
-30.5
31
0
0
CIRCLE
5
137
100
AcDbEntity
8
0
100
AcDbCircle
10
1.0320509877179505e-14
20
42.250000000000007
30
0
40
0.57499999999999996
210
0
220
0
230
1
0
ENDSEC
0
SECTION
2
OBJECTS
0
DICTIONARY
5
C
100
AcDbDictionary
3
ACAD_GROUP
350
D
3
ACAD_MLINESTYLE
350
17
0
DICTIONARY
5
D
100
AcDbDictionary
0
DICTIONARY
5
1A
330
C
100
AcDbDictionary
0
DICTIONARY
5
17
100
AcDbDictionary
0
ENDSEC
0
EOF
