0
SECTION
2
HEADER
9
$INSUNITS
70
4
9
$ACADVER
1
AC1014
9
$HANDSEED
5
FFFF
0
ENDSEC
0
SECTION
2
TABLES
0
TABLE
2
VPORT
5
8
100
AcDbSymbolTable
0
ENDTAB
0
TABLE
2
LTYPE
5
5
100
AcDbSymbolTable
0
LTYPE
5
14
100
AcDbSymbolTableRecord
100
AcDbLinetypeTableRecord
2
BYBLOCK
70
0
0
LTYPE
5
15
100
AcDbSymbolTableRecord
100
AcDbLinetypeTableRecord
2
BYLAYER
70
0
0
ENDTAB
0
TABLE
2
LAYER
5
2
100
AcDbSymbolTable
70
2
0
LAYER
5
50
100
AcDbSymbolTableRecord
100
AcDbLayerTableRecord
2
0
70
0
6
CONTINUOUS
0
ENDTAB
0
TABLE
2
STYLE
5
3
100
AcDbSymbolTable
70
1
0
STYLE
5
11
100
AcDbSymbolTableRecord
100
AcDbTextStyleTableRecord
2
STANDARD
70
0
0
ENDTAB
0
TABLE
2
VIEW
5
6
100
AcDbSymbolTable
70
0
0
ENDTAB
0
TABLE
2
UCS
5
7
100
AcDbSymbolTable
70
0
0
ENDTAB
0
TABLE
2
APPID
5
9
100
AcDbSymbolTable
70
2
0
APPID
5
12
100
AcDbSymbolTableRecord
100
AcDbRegAppTableRecord
2
ACAD
70
0
0
ENDTAB
0
TABLE
2
DIMSTYLE
5
A
100
AcDbSymbolTable
70
1
0
ENDTAB
0
TABLE
2
BLOCK_RECORD
5
1
100
AcDbSymbolTable
70
1
0
BLOCK_RECORD
5
1F
100
AcDbSymbolTableRecord
100
AcDbBlockTableRecord
2
*MODEL_SPACE
0
BLOCK_RECORD
5
1B
100
AcDbSymbolTableRecord
100
AcDbBlockTableRecord
2
*PAPER_SPACE
0
ENDTAB
0
ENDSEC
0
SECTION
2
BLOCKS
0
BLOCK
5
20
100
AcDbEntity
100
AcDbBlockBegin
2
*MODEL_SPACE
0
ENDBLK
5
21
100
AcDbEntity
100
AcDbBlockEnd
0
BLOCK
5
1C
100
AcDbEntity
100
AcDbBlockBegin
2
*PAPER_SPACE
0
ENDBLK
5
1D
100
AcDbEntity
100
AcDbBlockEnd
0
ENDSEC
0
SECTION
2
ENTITIES
0
LWPOLYLINE
5
100
100
AcDbEntity
8
0
100
AcDbPolyline
90
7
70
1
43
0.0
10
26.796489597871144
20
-80.536604968048806
10
38.47517932572935
20
-92.215294695907005
42
-0.53812638066850593
10
37.97294481296376
20
-94.668133298547858
42
-0.051061520944926608
10
18.000000000000004
20
-100.39920318408916
10
18.000000000000004
20
-99.015381653747724
42
0.25819888974714122
10
18.000000000000004
20
-95.916994976782007
10
18.000000000000004
20
-80.536604968048806
0
LWPOLYLINE
5
101
100
AcDbEntity
8
0
100
AcDbPolyline
90
8
70
1
43
0.0
10
-26.796489597871144
20
-80.536604968048806
10
-38.475179325729322
20
-92.215294695906991
42
0.53812638066849694
10
-37.972944812963746
20
-94.668133298547843
42
0.051061520944926504
10
-18.000000000000004
20
-100.39920318408915
10
-18.000000000000004
20
-99.015381653747795
42
-0.23438401155036503
10
-18.127659574468073
20
-96.17436424983444
42
0.10426336716375627
10
-18.000000000000004
20
-95.568821719163921
10
-18
20
-80.536604968048806
0
LWPOLYLINE
5
102
100
AcDbEntity
8
0
100
AcDbPolyline
90
18
70
1
43
0.0
10
-80.536604968048778
20
-26.796489597871165
10
-92.215294695906991
20
-38.475179325729421
42
-0.53812638066853091
10
-94.668133298547858
20
-37.972944812963846
42
-0.046148514538348583
10
-100.02702852793371
20
-19.964808135115103
42
-0.50750885231797871
10
-98.390264778253979
20
-18.180396946710495
42
1.304267680534037
10
-99.325050078893469
20
-12.070851796794713
42
-0.50750885231796727
10
-101.42048646676015
20
-10.857482435893623
42
-0.053374577086501174
10
-101.42048646676011
20
10.857482435893708
42
-0.50750885231798015
10
-99.325050078893469
20
12.070851796794793
42
1.3042676805340225
10
-98.390264778253908
20
18.180396946710566
42
-0.50750885231797171
10
-100.02702852793364
20
19.964808135115135
42
-0.046150753571909217
10
-94.667793926757952
20
37.973790870031642
42
-0.53813962066175636
10
-92.214907278437508
20
38.475959901688228
10
-80.536604968048835
20
26.796489597871215
10
-80.536604968048806
20
17.8266588050205
42
1.6627404735414999
10
-80.536604968048792
20
12.173341194979512
10
-80.536604968048678
20
-12.17334141849696
42
1.6627404735415561
10
-80.536604968048664
20
-17.826659028537875
0
LWPOLYLINE
5
103
100
AcDbEntity
8
0
100
AcDbPolyline
90
74
70
1
43
0.0
10
-77.975944796268948
20
-30.599790456770283
10
-30.599790456770258
20
-77.975944796268976
42
-0.41421356237309875
10
-30.599790456770243
20
-80.097265139828622
10
-41.176517570433298
20
-90.673992253491718
42
-0.22322865602130301
10
-42.376645641425966
20
-91.106834242771328
42
1.330837232966779
10
-41.222441124313313
20
-97.144719454869474
42
-0.21874274679628308
10
-39.97092662027147
20
-97.094412944910914
42
0.057669623277797941
10
-16.739130434782648
20
-103.65713440129116
42
0.46192323536005786
10
-15
20
-102.17631819555845
10
-14.999999999999998
20
-101.84796877530621
42
-0.30952891963312645
10
-14.042553191489354
20
-100.44952820295259
42
0.68465319688146298
10
-14.042553191489361
20
-94.482848427577167
42
-0.30952891963313217
10
-15
20
-93.084407855223532
10
-15
20
-52.05993219979915
42
0.93933643662772726
10
-15
20
-45.672444430730614
10
-15
20
-36.216570792939542
42
0.19889528047069849
10
15.000000000000004
20
-36.216570792939542
10
15.000000000000004
20
-45.672444430730607
42
0.93933643662773181
10
15.000000000000004
20
-52.059932199799135
10
15.000000000000011
20
-93.084407855223532
42
-0.30952891963312862
10
14.042553191489358
20
-94.482848427577181
42
0.68465319688146364
10
14.042553191489354
20
-100.44952820295258
42
-0.30952891963312862
10
15.000000000000004
20
-101.84796877530623
10
15.000000000000004
20
-102.17631819555847
42
0.46192323536005164
10
16.739130434782616
20
-103.65713440129119
42
0.057669623277797941
10
39.970926620271484
20
-97.094412944910886
42
-0.21874274679625716
10
41.222441124313335
20
-97.144719454869488
42
1.3308372329667679
10
42.376645641425966
20
-91.106834242771299
42
-0.22322865602132527
10
41.176517570433305
20
-90.673992253491718
10
30.599790456770251
20
-80.097265139828636
42
-0.4142135623730932
10
30.599790456770247
20
-77.975944796268976
10
77.975944796268948
20
-30.599790456770286
42
-0.41421356237309442
10
80.097265139828608
20
-30.59979045677029
10
90.673992253491662
20
-41.176517570433404
42
-0.22322865602130162
10
91.106834242771271
20
-42.376645641426059
42
1.3308372329667764
10
97.14471945486946
20
-41.222441124313406
42
-0.21874274679627145
10
97.094412944910886
20
-39.970926620271563
42
0.19778343219793629
10
97.094412944910928
20
39.970926620271484
42
-0.21874274679627517
10
97.144719454869488
20
41.222441124313328
42
1.3308372329667659
10
91.106834242771299
20
42.376645641425966
42
-0.2232286560213044
10
90.673992253491704
20
41.176517570433305
10
80.097265139828664
20
30.599790456770283
42
-0.41421356237309076
10
77.975944796269005
20
30.599790456770279
10
38.467745201964981
20
70.107990051074296
42
0.60141676702564029
10
34.470245983703684
20
74.105489269335678
10
30.33996707799006
20
78.235768175049387
42
-0.41430416098128092
10
30.340295204797449
20
80.357416543938172
10
40.773648311808131
20
90.78431730119506
42
-0.242207739697548
10
42.081005246548358
20
91.202848858545366
42
2.7627243357839912
10
39.408411337159414
20
94.307334486302508
42
-0.20320536398710334
10
38.968940097337985
20
93.222054172745445
10
16.171799179770471
20
70.439011802891045
42
-0.19883198076341654
10
15.111467134798033
20
70.000000000000028
10
-15.111467134797994
20
69.999999999999972
42
-0.19883198076340536
10
-16.171799179770442
20
70.439011802891002
10
-38.968940097337978
20
93.22205417274543
42
-0.20320536398710334
10
-39.4084113371594
20
94.307334486302494
42
2.7627243357839855
10
-42.081005246548386
20
91.202848858545323
42
-0.24220773969754777
10
-40.773648311808152
20
90.784317301195046
10
-30.354701936925437
20
80.371814366440134
42
-0.41422115031823181
10
-30.354073254950595
20
78.250466637910094
10
-34.490552466884274
20
74.111642152771566
42
0.59710342780539416
10
-38.473377382052981
20
70.126559082279329
10
-77.976546183471328
20
30.600993039499109
42
-0.41429657259070513
10
-80.09816708219843
20
30.600692399140321
10
-90.67399225349169
20
41.176517570433347
42
-0.22322865602130301
10
-91.106834242771285
20
42.376645641426016
42
1.3308372329667537
10
-97.144719454869488
20
41.222441124313391
42
-0.21874274679624645
10
-97.094412944910943
20
39.970926620271584
42
0.1977834321979392
10
-97.094412944910502
20
-39.970926620272607
42
-0.21874274679695155
10
-97.144719454869687
20
-41.222441124313875
42
1.3308372329666578
10
-91.106834242771271
20
-42.376645641426059
42
-0.22322865602130162
10
-90.673992253491662
20
-41.176517570433404
10
-80.097265139828608
20
-30.599790456770286
42
-0.41421356237309442
0
CIRCLE
5
104
100
AcDbEntity
8
0
100
AcDbCircle
10
-94.292972186364722
20
42.674177159746705
30
0
40
1.6000000000000045
210
0
220
0
230
1
0
CIRCLE
5
105
100
AcDbEntity
8
0
100
AcDbCircle
10
-94.292972186364707
20
-42.674177159746769
30
0
40
1.6000000000000014
210
0
220
0
230
1
0
CIRCLE
5
106
100
AcDbEntity
8
0
100
AcDbCircle
10
-42.674177159746691
20
-94.29297218636475
30
0
40
1.6000000000000014
210
0
220
0
230
1
0
CIRCLE
5
107
100
AcDbEntity
8
0
100
AcDbCircle
10
42.674177159746677
20
-94.29297218636475
30
0
40
1.6000000000000003
210
0
220
0
230
1
0
CIRCLE
5
108
100
AcDbEntity
8
0
100
AcDbCircle
10
94.292972186364707
20
-42.67417715974679
30
0
40
1.5999999999999948
210
0
220
0
230
1
0
CIRCLE
5
109
100
AcDbEntity
8
0
100
AcDbCircle
10
94.29297218636475
20
42.674177159746669
30
0
40
1.5999999999999965
210
0
220
0
230
1
0
CIRCLE
5
110
100
AcDbEntity
8
0
100
AcDbCircle
10
15.19999999999996
20
-97.466188315264887
30
0
40
1.6000000000000014
210
0
220
0
230
1
0
CIRCLE
5
111
100
AcDbEntity
8
0
100
AcDbCircle
10
-15.199999999999969
20
-97.466188315264887
30
0
40
1.6000000000000014
210
0
220
0
230
1
0
CIRCLE
5
112
100
AcDbEntity
8
0
100
AcDbCircle
10
-15.199999999999989
20
-48.866188315264878
30
0
40
1.6000000000000001
210
0
220
0
230
1
0
CIRCLE
5
113
100
AcDbEntity
8
0
100
AcDbCircle
10
15.19999999999998
20
-48.866188315264871
30
0
40
1.6000000000000019
210
0
220
0
230
1
0
CIRCLE
5
114
100
AcDbEntity
8
0
100
AcDbCircle
10
-42.607991678052983
20
94.359157668058458
30
0
40
1.6000000000000025
210
0
220
0
230
1
0
CIRCLE
5
115
100
AcDbEntity
8
0
100
AcDbCircle
10
42.607991678052983
20
94.359157668058458
30
0
40
1.6000000000000025
210
0
220
0
230
1
0
CIRCLE
5
116
100
AcDbEntity
8
0
100
AcDbCircle
10
-35.408335421054495
20
71.046079488425164
30
0
40
1.6000000000000001
210
0
220
0
230
1
0
CIRCLE
5
117
100
AcDbEntity
8
0
100
AcDbCircle
10
35.408335421054495
20
71.046079488425164
30
0
40
1.6000000000000001
210
0
220
0
230
1
0
CIRCLE
5
118
100
AcDbEntity
8
0
100
AcDbCircle
10
16.500000000000007
20
28.578838324886476
30
0
40
1.600000000000001
210
0
220
0
230
1
0
CIRCLE
5
119
100
AcDbEntity
8
0
100
AcDbCircle
10
-16.500000000000085
20
28.578838324886537
30
0
40
1.600000000000001
210
0
220
0
230
1
0
CIRCLE
5
120
100
AcDbEntity
8
0
100
AcDbCircle
10
16.500000000000007
20
-28.578838324886476
30
0
40
1.600000000000001
210
0
220
0
230
1
0
CIRCLE
5
121
100
AcDbEntity
8
0
100
AcDbCircle
10
-16.500000000000085
20
-28.578838324886537
30
0
40
1.6000000000000019
210
0
220
-0
230
1
0
CIRCLE
5
122
100
AcDbEntity
8
0
100
AcDbCircle
10
80.573320159867023
20
26.732262561132572
30
0
40
1.5999999999999923
210
0
220
0
230
1
0
LWPOLYLINE
5
123
100
AcDbEntity
8
0
100
AcDbPolyline
90
8
70
1
43
0.0
10
82.785027788885429
20
29.044912418707611
10
92.215294695906934
20
38.475179325729286
42
-0.5381263806685207
10
94.668133298547787
20
37.972944812963682
42
-0.19308133034099501
10
94.66813329854773
20
-37.972944812963796
42
-0.5381263806685006
10
92.215294695906934
20
-38.475179325729435
10
82.785027788885088
20
-29.044912418707966
42
0.68046395471080923
10
80.536604968048778
20
-23.532473193894482
10
80.53660496804882
20
23.532473193894518
42
0.68046395471074739
0
CIRCLE
5
124
100
AcDbEntity
8
0
100
AcDbCircle
10
80.573320159867023
20
-26.732262561132572
30
0
40
1.5999999999999923
210
0
220
0
230
1
0
CIRCLE
5
125
100
AcDbEntity
8
0
100
AcDbCircle
10
39.999999999999986
20
14.549999999999862
30
0
40
1.6000000000000012
210
0
220
0
230
1
0
CIRCLE
5
126
100
AcDbEntity
8
0
100
AcDbCircle
10
39.999999999999986
20
-14.549999999999862
30
0
40
1.6000000000000012
210
0
220
0
230
1
0
LWPOLYLINE
5
127
100
AcDbEntity
8
0
100
AcDbPolyline
90
11
70
1
43
0.0
10
26.796489597871144
20
-77.536604968048806
10
77.380887774437966
20
-26.9522067914817
42
-0.097713820981657831
10
77.536604968048778
20
-25.723123896834913
10
77.536604968048792
20
-16.049999999999844
10
42.826658805020521
20
-16.049999999999834
42
-0.60141676702564895
10
37.17334119497945
20
-16.04999999999983
10
35.763633763922911
20
-16.04999999999982
42
-0.16956810484359458
10
18.000000000000007
20
-34.822980917779006
10
18.000000000000004
20
-47.316994976781956
42
-0.25819888974715227
10
18.000000000000007
20
-50.415381653747787
10
18.000000000000004
20
-77.536604968048806
0
LWPOLYLINE
5
128
100
AcDbEntity
8
0
100
AcDbPolyline
90
12
70
1
43
0.0
10
-36.364894327708008
20
67.992394000674039
42
0.6057320401840034
10
-32.355192613440082
20
72.0043691086926
10
-27.171709857725919
20
77.190790760649691
10
-19.238054343510861
20
69.262041695941207
42
0.77971897569208137
10
-16.04999999999999
20
63.936490400556664
10
-16.04999999999999
20
58.151658805020475
42
0.6014167670256414
10
-16.04999999999999
20
52.498341194979446
10
-16.04999999999999
20
40.401658805020475
42
0.49506423271599764
10
-16.87861807259139
20
35.380110965902752
42
0.17779506507477907
10
-35.763633763922904
20
16.049999999999823
10
-77.53660496804882
20
16.049999999999763
10
-77.536604968048849
20
26.797340100324696
0
LWPOLYLINE
5
129
100
AcDbEntity
8
0
100
AcDbPolyline
90
15
70
1
43
0.0
10
27.157002283659605
20
77.176092282260555
10
19.238054343510864
20
69.262041695941207
42
-0.77971897569208104
10
16.04999999999999
20
63.93649040055665
10
16.04999999999999
20
58.151658805020503
42
-0.60141676702564528
10
16.04999999999999
20
52.49834119497946
10
16.04999999999999
20
40.401658805020503
42
-0.49506423271599981
10
16.878618072591472
20
35.380110965902738
42
-0.17779506507477849
10
35.763633763922918
20
16.04999999999983
10
37.173341194979457
20
16.049999999999827
42
-0.60141676702564895
10
42.826658805020514
20
16.049999999999834
10
77.53660496804882
20
16.049999999999855
10
77.536604968048835
20
25.723123896834849
42
-0.097713820981688085
10
77.380887774438008
20
26.952206791481998
10
36.346424858405442
20
67.986669707514707
42
-0.60141676702566405
10
32.348925640144031
20
71.984168925776132
0
LWPOLYLINE
5
130
100
AcDbEntity
8
0
100
AcDbPolyline
90
8
70
1
43
0.0
10
-77.536604968048763
20
-26.796489597871144
10
-26.796489597871151
20
-77.536604968048806
10
-18
20
-77.536604968048806
10
-17.999999999999993
20
-50.415381653747843
42
-0.25819888974715999
10
-17.999999999999993
20
-47.31699497678192
10
-17.999999999999975
20
-34.82298091777902
42
-0.16956810484359469
10
-35.763633763922897
20
-16.049999999999827
10
-77.536604968048735
20
-16.049999999999841
0
LWPOLYLINE
5
131
100
AcDbEntity
8
0
100
AcDbPolyline
90
8
70
1
43
0.0
10
36.964002759441591
20
13.049999999999834
10
37.173341194979479
20
13.049999999999837
42
0.60141676702563596
10
42.8266588050205
20
13.049999999999839
10
77.53660496804882
20
13.049999999999851
10
77.536604968048806
20
-13.049999999999841
10
42.8266588050205
20
-13.049999999999839
42
0.60141676702563596
10
37.173341194979479
20
-13.049999999999837
10
36.964002759441598
20
-13.049999999999836
42
0.17134078471712286
0
CIRCLE
5
132
100
AcDbEntity
8
0
100
AcDbCircle
10
-14.549999999999992
20
55.32499999999996
30
0
40
1.6000000000000014
210
0
220
0
230
1
0
CIRCLE
5
133
100
AcDbEntity
8
0
100
AcDbCircle
10
14.550000000000008
20
55.324999999999982
30
0
40
1.5999999999999992
210
0
220
0
230
1
0
CIRCLE
5
134
100
AcDbEntity
8
0
100
AcDbCircle
10
-14.549999999999992
20
37.57499999999996
30
0
40
1.6000000000000014
210
0
220
0
230
1
0
CIRCLE
5
135
100
AcDbEntity
8
0
100
AcDbCircle
10
14.550000000000008
20
37.574999999999974
30
0
40
1.5999999999999992
210
0
220
0
230
1
0
LWPOLYLINE
5
136
100
AcDbEntity
8
0
100
AcDbPolyline
90
10
70
1
43
0.0
10
13.049999999999995
20
40.401658805020482
42
0.28211448025910785
10
11.350459800307764
20
37.520755087305979
42
0.14794510021950713
10
-11.350459800307727
20
37.520755087305993
42
0.28211448025910618
10
-13.049999999999994
20
40.401658805020475
10
-13.049999999999995
20
52.498341194979446
42
0.60141676702564228
10
-13.049999999999995
20
58.151658805020489
10
-13.049999999999997
20
66.999999999999986
10
13.049999999999997
20
67.000000000000014
10
13.049999999999997
20
58.151658805020489
42
0.60141676702563829
10
13.049999999999995
20
52.498341194979474
0
CIRCLE
5
137
100
AcDbEntity
8
0
100
AcDbCircle
10
17.012866910722384
20
66.907606129404073
30
0
40
1.5999999999999988
210
0
220
0
230
1
0
CIRCLE
5
138
100
AcDbEntity
8
0
100
AcDbCircle
10
-17.012866910722384
20
66.907606129404073
30
0
40
1.5999999999999988
210
0
220
0
230
1
0
LWPOLYLINE
5
139
100
AcDbEntity
8
0
100
AcDbPolyline
90
4
70
1
43
0.0
10
-36.96400275944157
20
13.049999999999864
10
-77.53660496804882
20
13.049999999999848
10
-77.536604968048778
20
-13.049999999999839
10
-36.964002759441577
20
-13.049999999999836
42
-0.17134078471712311
0
LWPOLYLINE
5
140
100
AcDbEntity
8
0
100
AcDbPolyline
90
16
70
1
43
0.0
10
-13.728718707889932
20
30.178838324886506
10
-15.257861782367954
20
32.827391821924508
42
-0.22104068225161799
10
15.25786178236795
20
32.827391821924508
10
13.728718707889932
20
30.178838324886506
42
1.0000000074505806
10
19.271281292110242
20
26.978838324886574
10
20.800424366588235
20
29.627391821924558
42
-0.51977493415454556
10
20.800424366588238
20
-29.627391821924558
10
19.271281292110238
20
-26.978838324886574
42
0.99999999999999989
10
13.728718707889932
20
-30.178838324886506
10
15.257861782367963
20
-32.827391821924515
42
-0.22104068225161799
10
-15.25786178236795
20
-32.827391821924515
10
-13.728718707889932
20
-30.178838324886506
42
1.0000000074505806
10
-19.271281292110238
20
-26.978838324886574
10
-20.800424366588235
20
-29.627391821924558
42
-0.51977493415454556
10
-20.800424366588238
20
29.627391821924558
10
-19.271281292110242
20
26.978838324886574
42
1.0000000074505806
0
CIRCLE
5
141
100
AcDbEntity
8
0
100
AcDbCircle
10
-82.036604968048835
20
15
30
0
40
1.6000000000000014
210
0
220
0
230
1
0
CIRCLE
5
142
100
AcDbEntity
8
0
100
AcDbCircle
10
-82.036604968048792
20
-15.000000223517421
30
0
40
1.5999999999999961
210
0
220
0
230
1
0
CIRCLE
5
143
100
AcDbEntity
8
0
100
AcDbCircle
10
-98.03660496804882
20
15.000000000000036
30
0
40
1.5999999999999961
210
0
220
0
230
1
0
CIRCLE
5
144
100
AcDbEntity
8
0
100
AcDbCircle
10
-98.03660496804882
20
-14.999999999999964
30
0
40
1.5999999999999961
210
0
220
0
230
1
0
ENDSEC
0
SECTION
2
OBJECTS
0
DICTIONARY
5
C
100
AcDbDictionary
3
ACAD_GROUP
350
D
3
ACAD_MLINESTYLE
350
17
0
DICTIONARY
5
D
100
AcDbDictionary
0
DICTIONARY
5
1A
330
C
100
AcDbDictionary
0
DICTIONARY
5
17
100
AcDbDictionary
0
ENDSEC
0
EOF
