%TF.GenerationSoftware,KiCad,Pcbnew,8.0.1*%
%TF.CreationDate,2024-05-19T11:46:57+09:00*%
%TF.ProjectId,Power-20240325,506f7765-722d-4323-9032-34303332352e,rev?*%
%TF.SameCoordinates,Original*%
%TF.FileFunction,Profile,NP*%
%FSLAX46Y46*%
G04 Gerber Fmt 4.6, Leading zero omitted, Abs format (unit mm)*
G04 Created by KiCad (PCBNEW 8.0.1) date 2024-05-19 11:46:57*
%MOMM*%
%LPD*%
G01*
G04 APERTURE LIST*
%TA.AperFunction,Profile*%
%ADD10C,0.200000*%
%TD*%
%TA.AperFunction,Profile*%
%ADD11C,0.120000*%
%TD*%
G04 APERTURE END LIST*
D10*
X80175306Y-95149824D02*
X80175306Y-88136846D01*
X78675164Y-86649824D02*
X54844022Y-86649824D01*
X51830888Y-96649824D02*
X37965341Y-96649824D01*
X97962612Y-121562873D02*
G75*
G02*
X98566089Y-121194934I1060580J-1060652D01*
G01*
X36580345Y-124707821D02*
X34105213Y-127182952D01*
X53344022Y-88149824D02*
X53344021Y-95149824D01*
X99414099Y-127182936D02*
X96938974Y-124707814D01*
X107262734Y-107737253D02*
X96610268Y-97084787D01*
X78675164Y-86649824D02*
G75*
G02*
X80175235Y-88136847I-72J-1500201D01*
G01*
X26256616Y-112262771D02*
G75*
G02*
X26256590Y-107737264I2262786J2262766D01*
G01*
X95553963Y-96649824D02*
G75*
G02*
X96610272Y-97084783I129J-1499801D01*
G01*
X100638570Y-119122436D02*
G75*
G02*
X98566082Y-121194910I-3047678J975211D01*
G01*
X101006562Y-118518922D02*
X107271833Y-112253651D01*
X36904692Y-97089153D02*
X26256586Y-107737260D01*
X100638571Y-119122436D02*
G75*
G02*
X101006567Y-118518927I1428821J-457289D01*
G01*
X97487351Y-135452591D02*
G75*
G02*
X36031975Y-135452591I-30727688J90421568D01*
G01*
X53344021Y-95149824D02*
G75*
G02*
X51830888Y-96649798I-1500129J99D01*
G01*
X34953242Y-121194921D02*
G75*
G02*
X32880781Y-119122428I975350J3047796D01*
G01*
X36580344Y-122586502D02*
G75*
G02*
X36580348Y-124707824I-1060782J-1060663D01*
G01*
X81675264Y-96649824D02*
G75*
G02*
X80175293Y-95149824I128J1500099D01*
G01*
X53344022Y-88149824D02*
G75*
G02*
X54844022Y-86649855I1499970J-1D01*
G01*
X32512765Y-118518922D02*
G75*
G02*
X32880737Y-119122442I-1060773J-1060703D01*
G01*
X26256615Y-112262772D02*
X32512765Y-118518922D01*
X107262734Y-107737253D02*
G75*
G02*
X107271838Y-112253656I-2262742J-2262772D01*
G01*
X35561865Y-121568022D02*
X36580345Y-122586501D01*
X36904692Y-97089153D02*
G75*
G02*
X37965341Y-96649789I1060700J-1060672D01*
G01*
X96938975Y-124707813D02*
G75*
G02*
X96948012Y-122577474I1060817J1060688D01*
G01*
X36031975Y-135452592D02*
G75*
G02*
X34105217Y-127182956I1608767J4734107D01*
G01*
X96948011Y-122577473D02*
X97962611Y-121562872D01*
X99414098Y-127182937D02*
G75*
G02*
X97487349Y-135452587I-3535526J-3535538D01*
G01*
X34953242Y-121194921D02*
G75*
G02*
X35561863Y-121568024I-457350J-1429004D01*
G01*
X95553963Y-96649824D02*
X81675264Y-96649824D01*
D11*
%TO.C,SW1*%
X76459592Y-138649824D02*
X57059592Y-138649824D01*
X57059592Y-125649824D01*
X76459592Y-125649824D01*
X76459592Y-138649824D01*
%TD*%
M02*
