%TF.GenerationSoftware,KiCad,Pcbnew,8.0.1*%
%TF.CreationDate,2024-04-24T01:19:34+09:00*%
%TF.ProjectId,Power-20240325,506f7765-722d-4323-9032-34303332352e,rev?*%
%TF.SameCoordinates,Original*%
%TF.FileFunction,Legend,Top*%
%TF.FilePolarity,Positive*%
%FSLAX46Y46*%
G04 Gerber Fmt 4.6, Leading zero omitted, Abs format (unit mm)*
G04 Created by KiCad (PCBNEW 8.0.1) date 2024-04-24 01:19:34*
%MOMM*%
%LPD*%
G01*
G04 APERTURE LIST*
G04 Aperture macros list*
%AMRoundRect*
0 Rectangle with rounded corners*
0 $1 Rounding radius*
0 $2 $3 $4 $5 $6 $7 $8 $9 X,Y pos of 4 corners*
0 Add a 4 corners polygon primitive as box body*
4,1,4,$2,$3,$4,$5,$6,$7,$8,$9,$2,$3,0*
0 Add four circle primitives for the rounded corners*
1,1,$1+$1,$2,$3*
1,1,$1+$1,$4,$5*
1,1,$1+$1,$6,$7*
1,1,$1+$1,$8,$9*
0 Add four rect primitives between the rounded corners*
20,1,$1+$1,$2,$3,$4,$5,0*
20,1,$1+$1,$4,$5,$6,$7,0*
20,1,$1+$1,$6,$7,$8,$9,0*
20,1,$1+$1,$8,$9,$2,$3,0*%
%AMHorizOval*
0 Thick line with rounded ends*
0 $1 width*
0 $2 $3 position (X,Y) of the first rounded end (center of the circle)*
0 $4 $5 position (X,Y) of the second rounded end (center of the circle)*
0 Add line between two ends*
20,1,$1,$2,$3,$4,$5,0*
0 Add two circle primitives to create the rounded ends*
1,1,$1,$2,$3*
1,1,$1,$4,$5*%
%AMRotRect*
0 Rectangle, with rotation*
0 The origin of the aperture is its center*
0 $1 length*
0 $2 width*
0 $3 Rotation angle, in degrees counterclockwise*
0 Add horizontal line*
21,1,$1,$2,0,0,$3*%
%AMFreePoly0*
4,1,9,3.862500,-0.866500,0.737500,-0.866500,0.737500,-0.450000,-0.737500,-0.450000,-0.737500,0.450000,0.737500,0.450000,0.737500,0.866500,3.862500,0.866500,3.862500,-0.866500,3.862500,-0.866500,$1*%
G04 Aperture macros list end*
%ADD10C,0.150000*%
%ADD11C,0.120000*%
%ADD12C,1.600000*%
%ADD13C,2.600000*%
%ADD14C,1.600000*%
%ADD15HorizOval,1.600000X0.000000X0.000000X0.000000X0.000000X0*%
%ADD16RoundRect,0.162500X0.825000X0.162500X-0.825000X0.162500X-0.825000X-0.162500X0.825000X-0.162500X0*%
%ADD17RoundRect,0.381000X0.762000X0.381000X-0.762000X0.381000X-0.762000X-0.381000X0.762000X-0.381000X0*%
%ADD18RoundRect,0.381000X0.381000X-0.762000X0.381000X0.762000X-0.381000X0.762000X-0.381000X-0.762000X0*%
%ADD19RoundRect,0.381000X-0.762000X-0.381000X0.762000X-0.381000X0.762000X0.381000X-0.762000X0.381000X0*%
%ADD20RoundRect,0.250001X0.000000X-1.555634X1.555634X0.000000X0.000000X1.555634X-1.555634X0.000000X0*%
%ADD21C,2.700000*%
%ADD22RoundRect,0.250000X0.954594X0.106066X0.106066X0.954594X-0.954594X-0.106066X-0.106066X-0.954594X0*%
%ADD23HorizOval,1.700000X0.106066X0.106066X-0.106066X-0.106066X0*%
%ADD24RoundRect,0.150000X0.150000X-0.587500X0.150000X0.587500X-0.150000X0.587500X-0.150000X-0.587500X0*%
%ADD25C,2.300000*%
%ADD26C,1.500000*%
%ADD27RoundRect,0.250000X0.750000X-0.600000X0.750000X0.600000X-0.750000X0.600000X-0.750000X-0.600000X0*%
%ADD28O,2.000000X1.700000*%
%ADD29R,1.800000X1.800000*%
%ADD30C,1.800000*%
%ADD31RoundRect,0.225000X-0.459619X0.141421X0.141421X-0.459619X0.459619X-0.141421X-0.141421X0.459619X0*%
%ADD32FreePoly0,315.000000*%
%ADD33R,2.000000X2.000000*%
%ADD34C,2.000000*%
%ADD35RotRect,1.700000X1.700000X225.000000*%
%ADD36HorizOval,1.700000X0.000000X0.000000X0.000000X0.000000X0*%
%ADD37RoundRect,0.250001X-1.099999X1.099999X-1.099999X-1.099999X1.099999X-1.099999X1.099999X1.099999X0*%
%ADD38C,3.400000*%
G04 APERTURE END LIST*
D10*
G36*
X92043330Y-149925778D02*
G01*
X92079299Y-149962973D01*
X92115430Y-150003636D01*
X92149032Y-150046505D01*
X92177029Y-150090139D01*
X92181840Y-150099175D01*
X92201012Y-150149155D01*
X92208185Y-150201258D01*
X92204292Y-150250465D01*
X92190412Y-150299319D01*
X92166041Y-150345710D01*
X92135137Y-150385356D01*
X92122948Y-150398129D01*
X92085246Y-150430872D01*
X92041709Y-150457500D01*
X91996009Y-150474292D01*
X91944691Y-150482444D01*
X91892547Y-150480736D01*
X91857326Y-150474119D01*
X91808494Y-150456201D01*
X91763285Y-150431787D01*
X91752148Y-150424898D01*
X91772916Y-150472176D01*
X91783063Y-150508660D01*
X91782577Y-150557655D01*
X91780127Y-150581715D01*
X91773005Y-150631181D01*
X91766483Y-150657187D01*
X91669595Y-150966849D01*
X91420899Y-150718152D01*
X91519859Y-150384312D01*
X91532274Y-150334524D01*
X91534539Y-150289842D01*
X91516419Y-150243522D01*
X91497062Y-150219551D01*
X91477546Y-150200035D01*
X91190164Y-150487417D01*
X90969273Y-150266527D01*
X91168403Y-150067397D01*
X91610184Y-150067397D01*
X91702927Y-150160140D01*
X91744225Y-150191445D01*
X91770973Y-150208843D01*
X91819084Y-150223201D01*
X91828830Y-150222487D01*
X91874768Y-150203210D01*
X91883750Y-150195199D01*
X91911024Y-150152461D01*
X91914319Y-150120763D01*
X91894613Y-150072488D01*
X91861393Y-150031545D01*
X91850591Y-150020421D01*
X91753875Y-149923706D01*
X91610184Y-150067397D01*
X91168403Y-150067397D01*
X91676676Y-149559124D01*
X92043330Y-149925778D01*
G37*
G36*
X92870591Y-150730933D02*
G01*
X92152135Y-151449389D01*
X91951969Y-151249223D01*
X92422420Y-150778772D01*
X92370260Y-150770876D01*
X92321508Y-150760786D01*
X92271816Y-150747156D01*
X92267502Y-150745785D01*
X92217756Y-150727649D01*
X92168211Y-150706060D01*
X92120102Y-150682478D01*
X92108959Y-150676703D01*
X92274756Y-150510905D01*
X92323489Y-150534765D01*
X92369952Y-150554533D01*
X92421288Y-150572422D01*
X92469534Y-150584742D01*
X92508427Y-150590868D01*
X92558652Y-150593405D01*
X92608467Y-150590307D01*
X92657871Y-150581575D01*
X92706866Y-150567208D01*
X92870591Y-150730933D01*
G37*
G36*
X98305369Y-124260100D02*
G01*
X98305369Y-123997050D01*
X98039633Y-123997050D01*
X98039633Y-123775034D01*
X98305369Y-123775034D01*
X98305369Y-123510519D01*
X98524211Y-123510519D01*
X98524211Y-123775034D01*
X98789947Y-123775034D01*
X98789947Y-123997050D01*
X98524211Y-123997050D01*
X98524211Y-124260100D01*
X98305369Y-124260100D01*
G37*
G36*
X98211580Y-123094084D02*
G01*
X98167616Y-123358599D01*
X98120945Y-123344097D01*
X98071921Y-123321772D01*
X98028741Y-123293627D01*
X97991405Y-123259662D01*
X97968314Y-123231837D01*
X97941286Y-123187076D01*
X97920897Y-123134859D01*
X97908704Y-123084166D01*
X97901388Y-123027995D01*
X97899017Y-122977001D01*
X97898949Y-122966345D01*
X97900690Y-122907346D01*
X97905914Y-122853688D01*
X97914620Y-122805374D01*
X97929664Y-122754450D01*
X97953553Y-122704761D01*
X97970268Y-122681070D01*
X98008111Y-122642602D01*
X98050563Y-122615124D01*
X98097626Y-122598638D01*
X98149298Y-122593142D01*
X98198563Y-122599068D01*
X98247289Y-122618703D01*
X98263604Y-122629046D01*
X98303182Y-122664026D01*
X98333396Y-122703006D01*
X98353485Y-122736757D01*
X98368244Y-122688096D01*
X98387435Y-122647609D01*
X98418577Y-122608052D01*
X98457292Y-122577003D01*
X98469745Y-122569695D01*
X98517984Y-122550661D01*
X98569558Y-122542531D01*
X98591133Y-122541851D01*
X98640445Y-122545503D01*
X98688635Y-122556457D01*
X98735705Y-122574715D01*
X98761371Y-122588013D01*
X98804165Y-122617049D01*
X98841046Y-122652499D01*
X98872016Y-122694363D01*
X98886667Y-122720393D01*
X98905901Y-122767028D01*
X98919640Y-122820471D01*
X98927153Y-122872819D01*
X98930245Y-122921838D01*
X98930631Y-122947783D01*
X98929506Y-122997222D01*
X98925350Y-123049757D01*
X98916852Y-123103013D01*
X98902510Y-123154278D01*
X98898635Y-123164426D01*
X98875599Y-123211295D01*
X98846791Y-123252678D01*
X98812210Y-123288575D01*
X98804602Y-123295096D01*
X98762751Y-123324687D01*
X98714747Y-123349650D01*
X98666282Y-123368161D01*
X98649019Y-123373498D01*
X98618000Y-123094084D01*
X98664860Y-123079235D01*
X98706338Y-123053429D01*
X98715942Y-123043038D01*
X98737863Y-122997872D01*
X98743053Y-122954622D01*
X98734520Y-122906089D01*
X98706607Y-122863431D01*
X98704218Y-122861077D01*
X98661946Y-122834079D01*
X98612325Y-122823794D01*
X98600415Y-122823463D01*
X98551594Y-122829429D01*
X98507583Y-122851139D01*
X98498077Y-122859611D01*
X98470783Y-122901987D01*
X98461720Y-122953472D01*
X98461685Y-122957308D01*
X98467791Y-123008161D01*
X98477316Y-123047923D01*
X98271175Y-123033512D01*
X98274106Y-122997120D01*
X98266596Y-122946745D01*
X98244064Y-122905529D01*
X98204515Y-122874735D01*
X98172990Y-122868648D01*
X98124664Y-122882906D01*
X98110219Y-122896248D01*
X98089327Y-122941092D01*
X98086528Y-122971719D01*
X98095338Y-123021624D01*
X98114371Y-123052319D01*
X98155552Y-123079433D01*
X98203043Y-123092633D01*
X98211580Y-123094084D01*
G37*
G36*
X98633632Y-122404831D02*
G01*
X98633632Y-122106122D01*
X98915000Y-122106122D01*
X98915000Y-122404831D01*
X98633632Y-122404831D01*
G37*
G36*
X98211580Y-121695061D02*
G01*
X98167616Y-121959576D01*
X98120945Y-121945074D01*
X98071921Y-121922749D01*
X98028741Y-121894604D01*
X97991405Y-121860639D01*
X97968314Y-121832814D01*
X97941286Y-121788053D01*
X97920897Y-121735836D01*
X97908704Y-121685143D01*
X97901388Y-121628972D01*
X97899017Y-121577978D01*
X97898949Y-121567322D01*
X97900690Y-121508323D01*
X97905914Y-121454665D01*
X97914620Y-121406351D01*
X97929664Y-121355426D01*
X97953553Y-121305738D01*
X97970268Y-121282047D01*
X98008111Y-121243579D01*
X98050563Y-121216101D01*
X98097626Y-121199615D01*
X98149298Y-121194119D01*
X98198563Y-121200045D01*
X98247289Y-121219680D01*
X98263604Y-121230023D01*
X98303182Y-121265002D01*
X98333396Y-121303983D01*
X98353485Y-121337734D01*
X98368244Y-121289073D01*
X98387435Y-121248585D01*
X98418577Y-121209029D01*
X98457292Y-121177980D01*
X98469745Y-121170672D01*
X98517984Y-121151638D01*
X98569558Y-121143508D01*
X98591133Y-121142828D01*
X98640445Y-121146480D01*
X98688635Y-121157434D01*
X98735705Y-121175692D01*
X98761371Y-121188990D01*
X98804165Y-121218026D01*
X98841046Y-121253476D01*
X98872016Y-121295340D01*
X98886667Y-121321370D01*
X98905901Y-121368005D01*
X98919640Y-121421448D01*
X98927153Y-121473796D01*
X98930245Y-121522815D01*
X98930631Y-121548760D01*
X98929506Y-121598199D01*
X98925350Y-121650734D01*
X98916852Y-121703990D01*
X98902510Y-121755255D01*
X98898635Y-121765403D01*
X98875599Y-121812272D01*
X98846791Y-121853655D01*
X98812210Y-121889552D01*
X98804602Y-121896073D01*
X98762751Y-121925664D01*
X98714747Y-121950627D01*
X98666282Y-121969138D01*
X98649019Y-121974475D01*
X98618000Y-121695061D01*
X98664860Y-121680212D01*
X98706338Y-121654406D01*
X98715942Y-121644015D01*
X98737863Y-121598849D01*
X98743053Y-121555599D01*
X98734520Y-121507066D01*
X98706607Y-121464408D01*
X98704218Y-121462054D01*
X98661946Y-121435056D01*
X98612325Y-121424771D01*
X98600415Y-121424440D01*
X98551594Y-121430406D01*
X98507583Y-121452116D01*
X98498077Y-121460588D01*
X98470783Y-121502964D01*
X98461720Y-121554449D01*
X98461685Y-121558285D01*
X98467791Y-121609138D01*
X98477316Y-121648900D01*
X98271175Y-121634489D01*
X98274106Y-121598097D01*
X98266596Y-121547722D01*
X98244064Y-121506506D01*
X98204515Y-121475712D01*
X98172990Y-121469625D01*
X98124664Y-121483883D01*
X98110219Y-121497225D01*
X98089327Y-121542069D01*
X98086528Y-121572696D01*
X98095338Y-121622601D01*
X98114371Y-121653296D01*
X98155552Y-121680410D01*
X98203043Y-121693610D01*
X98211580Y-121695061D01*
G37*
G36*
X97914581Y-121087629D02*
G01*
X97914581Y-120762054D01*
X98634609Y-120535396D01*
X97914581Y-120312158D01*
X97914581Y-119996108D01*
X98915000Y-120369800D01*
X98915000Y-120707099D01*
X97914581Y-121087629D01*
G37*
G36*
X95805369Y-143560589D02*
G01*
X95805369Y-143297539D01*
X95539633Y-143297539D01*
X95539633Y-143075523D01*
X95805369Y-143075523D01*
X95805369Y-142811008D01*
X96024211Y-142811008D01*
X96024211Y-143075523D01*
X96289947Y-143075523D01*
X96289947Y-143297539D01*
X96024211Y-143297539D01*
X96024211Y-143560589D01*
X95805369Y-143560589D01*
G37*
G36*
X95414581Y-142552599D02*
G01*
X95414581Y-141888258D01*
X95649054Y-141888258D01*
X95649054Y-142338153D01*
X95790471Y-142362333D01*
X95769588Y-142315927D01*
X95754811Y-142270010D01*
X95745473Y-142221757D01*
X95742843Y-142179640D01*
X95746029Y-142124954D01*
X95755586Y-142074287D01*
X95771514Y-142027639D01*
X95798150Y-141978294D01*
X95833457Y-141934420D01*
X95875345Y-141897685D01*
X95921721Y-141869972D01*
X95972584Y-141851282D01*
X96027936Y-141841615D01*
X96061580Y-141840142D01*
X96115386Y-141843987D01*
X96167995Y-141855521D01*
X96219405Y-141874744D01*
X96247449Y-141888747D01*
X96289398Y-141915461D01*
X96330313Y-141951572D01*
X96364582Y-141994097D01*
X96383736Y-142026011D01*
X96404253Y-142073577D01*
X96418907Y-142127372D01*
X96426922Y-142179551D01*
X96430448Y-142236499D01*
X96430631Y-142253645D01*
X96429105Y-142307458D01*
X96424526Y-142356788D01*
X96415858Y-142406343D01*
X96411336Y-142424615D01*
X96395819Y-142470968D01*
X96373757Y-142515808D01*
X96353695Y-142545516D01*
X96320886Y-142582737D01*
X96281856Y-142615969D01*
X96266988Y-142626116D01*
X96223547Y-142649585D01*
X96176435Y-142668172D01*
X96145844Y-142677651D01*
X96118000Y-142394573D01*
X96166032Y-142380315D01*
X96207187Y-142351082D01*
X96211301Y-142346458D01*
X96236076Y-142302167D01*
X96243053Y-142256332D01*
X96234359Y-142206061D01*
X96208277Y-142164698D01*
X96203485Y-142159856D01*
X96161431Y-142133810D01*
X96113551Y-142123094D01*
X96085516Y-142121754D01*
X96035351Y-142126314D01*
X95989162Y-142143461D01*
X95967791Y-142160345D01*
X95940968Y-142201929D01*
X95930750Y-142250909D01*
X95930422Y-142262682D01*
X95937386Y-142312313D01*
X95948251Y-142341084D01*
X95975863Y-142382360D01*
X95994902Y-142402878D01*
X95964127Y-142641014D01*
X95414581Y-142552599D01*
G37*
G36*
X95414581Y-141787141D02*
G01*
X95414581Y-141461566D01*
X96134609Y-141234908D01*
X95414581Y-141011670D01*
X95414581Y-140695620D01*
X96415000Y-141069312D01*
X96415000Y-141406611D01*
X95414581Y-141787141D01*
G37*
G36*
X98776827Y-172034542D02*
G01*
X99007044Y-171804325D01*
X99676452Y-172153191D01*
X99325168Y-171486201D01*
X99548649Y-171262720D01*
X99991812Y-172234362D01*
X99753306Y-172472869D01*
X98776827Y-172034542D01*
G37*
G36*
X99625676Y-171185693D02*
G01*
X99846049Y-170965320D01*
X100553451Y-171672723D01*
X100333079Y-171893096D01*
X99625676Y-171185693D01*
G37*
G36*
X100003038Y-170808331D02*
G01*
X100208558Y-170602811D01*
X100875375Y-170733204D01*
X100476770Y-170334599D01*
X100684017Y-170127352D01*
X101391420Y-170834755D01*
X101184173Y-171042002D01*
X100520810Y-170912300D01*
X100917343Y-171308832D01*
X100710441Y-171515734D01*
X100003038Y-170808331D01*
G37*
G36*
X96240177Y-109025129D02*
G01*
X95950722Y-108735674D01*
X96267637Y-108195277D01*
X95727759Y-108512711D01*
X95439167Y-108224119D01*
X96146570Y-107516716D01*
X96326357Y-107696503D01*
X95783370Y-108239490D01*
X96465730Y-107835877D01*
X96628419Y-107998566D01*
X96224460Y-108680581D01*
X96767447Y-108137594D01*
X96947579Y-108317726D01*
X96240177Y-109025129D01*
G37*
G36*
X95538128Y-106908274D02*
G01*
X95451429Y-107064745D01*
X95702025Y-107315342D01*
X95858151Y-107228298D01*
X96083014Y-107453161D01*
X95108090Y-107893042D01*
X94868029Y-107652981D01*
X94894290Y-107594779D01*
X95171128Y-107594779D01*
X95499787Y-107422592D01*
X95342797Y-107265602D01*
X95171128Y-107594779D01*
X94894290Y-107594779D01*
X95307911Y-106678057D01*
X95538128Y-106908274D01*
G37*
G36*
X94525381Y-107310333D02*
G01*
X94305008Y-107089960D01*
X95012411Y-106382558D01*
X95232784Y-106602930D01*
X94525381Y-107310333D01*
G37*
G36*
X94148019Y-106932971D02*
G01*
X93942499Y-106727451D01*
X94072892Y-106060634D01*
X93674287Y-106459239D01*
X93467040Y-106251992D01*
X94174443Y-105544589D01*
X94381690Y-105751836D01*
X94251988Y-106415199D01*
X94648520Y-106018667D01*
X94855422Y-106225568D01*
X94148019Y-106932971D01*
G37*
G36*
X64469581Y-151002738D02*
G01*
X64469581Y-150712089D01*
X65033293Y-150332780D01*
X64469581Y-150332780D01*
X64469581Y-150039689D01*
X65470000Y-150039689D01*
X65470000Y-150332780D01*
X64909218Y-150710135D01*
X65470000Y-150710135D01*
X65470000Y-151002738D01*
X64469581Y-151002738D01*
G37*
G36*
X98489381Y-116270441D02*
G01*
X98489381Y-115959275D01*
X98867469Y-115959275D01*
X98489381Y-115632967D01*
X98489381Y-115219464D01*
X98866736Y-115586316D01*
X99489800Y-115203099D01*
X99489800Y-115586316D01*
X99078250Y-115798563D01*
X99245557Y-115959275D01*
X99489800Y-115959275D01*
X99489800Y-116270441D01*
X98489381Y-116270441D01*
G37*
G36*
X98489381Y-115093923D02*
G01*
X98489381Y-114782269D01*
X99489800Y-114782269D01*
X99489800Y-115093923D01*
X98489381Y-115093923D01*
G37*
G36*
X99083379Y-113891759D02*
G01*
X99162270Y-113619184D01*
X99210170Y-113632672D01*
X99260533Y-113651807D01*
X99306226Y-113674910D01*
X99347247Y-113701983D01*
X99352047Y-113705646D01*
X99391837Y-113741154D01*
X99425754Y-113781183D01*
X99453798Y-113825733D01*
X99466841Y-113852436D01*
X99483724Y-113899148D01*
X99495783Y-113951843D01*
X99502378Y-114002860D01*
X99505280Y-114058459D01*
X99505431Y-114075186D01*
X99504280Y-114125010D01*
X99499861Y-114180926D01*
X99492127Y-114232618D01*
X99478915Y-114287586D01*
X99461192Y-114336803D01*
X99458292Y-114343364D01*
X99434138Y-114387530D01*
X99403134Y-114428983D01*
X99365282Y-114467725D01*
X99327386Y-114498775D01*
X99291963Y-114523127D01*
X99244931Y-114548776D01*
X99193228Y-114569117D01*
X99136853Y-114584153D01*
X99086307Y-114592628D01*
X99032516Y-114597419D01*
X98987148Y-114598598D01*
X98927083Y-114596522D01*
X98870598Y-114590294D01*
X98817693Y-114579914D01*
X98768367Y-114565381D01*
X98722621Y-114546697D01*
X98670473Y-114517502D01*
X98623918Y-114481820D01*
X98606862Y-114465730D01*
X98568514Y-114421514D01*
X98536666Y-114371907D01*
X98511317Y-114316909D01*
X98495718Y-114269030D01*
X98484279Y-114217701D01*
X98476999Y-114162922D01*
X98473879Y-114104692D01*
X98473749Y-114089596D01*
X98475634Y-114032130D01*
X98481286Y-113978647D01*
X98490708Y-113929147D01*
X98506988Y-113875005D01*
X98528695Y-113826600D01*
X98550930Y-113790643D01*
X98582784Y-113751760D01*
X98620459Y-113716809D01*
X98663956Y-113685791D01*
X98713275Y-113658706D01*
X98758821Y-113639139D01*
X98788090Y-113628710D01*
X98848906Y-113903483D01*
X98803280Y-113921112D01*
X98781984Y-113933769D01*
X98745697Y-113968936D01*
X98727518Y-113997761D01*
X98711407Y-114045613D01*
X98708222Y-114082025D01*
X98713428Y-114131820D01*
X98731728Y-114180467D01*
X98763205Y-114221310D01*
X98791509Y-114244202D01*
X98837023Y-114266613D01*
X98889773Y-114279686D01*
X98938521Y-114285206D01*
X98985682Y-114286700D01*
X99043433Y-114284914D01*
X99093954Y-114279556D01*
X99143758Y-114268790D01*
X99193331Y-114247804D01*
X99210141Y-114235898D01*
X99244766Y-114196093D01*
X99265019Y-114146534D01*
X99270958Y-114093016D01*
X99266283Y-114041415D01*
X99250341Y-113994516D01*
X99223086Y-113957949D01*
X99180886Y-113927232D01*
X99136378Y-113907039D01*
X99089061Y-113893066D01*
X99083379Y-113891759D01*
G37*
G36*
X98489381Y-113472395D02*
G01*
X98489381Y-113161229D01*
X98867469Y-113161229D01*
X98489381Y-112834921D01*
X98489381Y-112421418D01*
X98866736Y-112788270D01*
X99489800Y-112405053D01*
X99489800Y-112788270D01*
X99078250Y-113000517D01*
X99245557Y-113161229D01*
X99489800Y-113161229D01*
X99489800Y-113472395D01*
X98489381Y-113472395D01*
G37*
G36*
X98489381Y-112309066D02*
G01*
X98489381Y-111475221D01*
X98723854Y-111475221D01*
X98723854Y-111997168D01*
X98864538Y-111997168D01*
X98864538Y-111512834D01*
X99067748Y-111512834D01*
X99067748Y-111997168D01*
X99255326Y-111997168D01*
X99255326Y-111460078D01*
X99489800Y-111460078D01*
X99489800Y-112309066D01*
X98489381Y-112309066D01*
G37*
G36*
X99489800Y-110655298D02*
G01*
X99183763Y-110821383D01*
X99139779Y-110847810D01*
X99106582Y-110877803D01*
X99086642Y-110923369D01*
X99083379Y-110954007D01*
X99083379Y-110981606D01*
X99489800Y-110981606D01*
X99489800Y-111293993D01*
X98489381Y-111293993D01*
X98489381Y-110981606D01*
X98692591Y-110981606D01*
X98895801Y-110981606D01*
X98895801Y-110850448D01*
X98888735Y-110799110D01*
X98882123Y-110767893D01*
X98858257Y-110723722D01*
X98850860Y-110717335D01*
X98804746Y-110698483D01*
X98792730Y-110697796D01*
X98743224Y-110708731D01*
X98718481Y-110728815D01*
X98698280Y-110776884D01*
X98692818Y-110829326D01*
X98692591Y-110844830D01*
X98692591Y-110981606D01*
X98489381Y-110981606D01*
X98489381Y-110775465D01*
X98490248Y-110723730D01*
X98493452Y-110669429D01*
X98500005Y-110615356D01*
X98511062Y-110564705D01*
X98514049Y-110554914D01*
X98535834Y-110506016D01*
X98567604Y-110464102D01*
X98605152Y-110432060D01*
X98649512Y-110407330D01*
X98699548Y-110391759D01*
X98749434Y-110385577D01*
X98767085Y-110385165D01*
X98816897Y-110388671D01*
X98866511Y-110400627D01*
X98910700Y-110421069D01*
X98952751Y-110451591D01*
X98988415Y-110489670D01*
X99008641Y-110519254D01*
X99030501Y-110566454D01*
X99045205Y-110615685D01*
X99048208Y-110628431D01*
X99066954Y-110580315D01*
X99085578Y-110547342D01*
X99120565Y-110513041D01*
X99139311Y-110497761D01*
X99179325Y-110467819D01*
X99202326Y-110454041D01*
X99489800Y-110303588D01*
X99489800Y-110655298D01*
G37*
G36*
X98931484Y-156813932D02*
G01*
X98967453Y-156851127D01*
X99003584Y-156891790D01*
X99037186Y-156934659D01*
X99065183Y-156978293D01*
X99069994Y-156987329D01*
X99089166Y-157037309D01*
X99096339Y-157089412D01*
X99092446Y-157138619D01*
X99078566Y-157187473D01*
X99054195Y-157233864D01*
X99023291Y-157273510D01*
X99011102Y-157286283D01*
X98973400Y-157319026D01*
X98929863Y-157345654D01*
X98884163Y-157362446D01*
X98832845Y-157370598D01*
X98780701Y-157368890D01*
X98745480Y-157362273D01*
X98696648Y-157344355D01*
X98651439Y-157319941D01*
X98640302Y-157313052D01*
X98661070Y-157360330D01*
X98671217Y-157396814D01*
X98670731Y-157445809D01*
X98668281Y-157469869D01*
X98661159Y-157519335D01*
X98654637Y-157545341D01*
X98557749Y-157855003D01*
X98309053Y-157606306D01*
X98408013Y-157272466D01*
X98420428Y-157222678D01*
X98422693Y-157177996D01*
X98404573Y-157131676D01*
X98385216Y-157107705D01*
X98365700Y-157088189D01*
X98078318Y-157375571D01*
X97857427Y-157154681D01*
X98056557Y-156955551D01*
X98498338Y-156955551D01*
X98591081Y-157048294D01*
X98632379Y-157079599D01*
X98659127Y-157096997D01*
X98707238Y-157111355D01*
X98716984Y-157110641D01*
X98762922Y-157091364D01*
X98771904Y-157083353D01*
X98799178Y-157040615D01*
X98802473Y-157008917D01*
X98782767Y-156960642D01*
X98749547Y-156919699D01*
X98738745Y-156908575D01*
X98642029Y-156811860D01*
X98498338Y-156955551D01*
X98056557Y-156955551D01*
X98564830Y-156447278D01*
X98931484Y-156813932D01*
G37*
G36*
X99171027Y-158468281D02*
G01*
X98577438Y-157874691D01*
X98622288Y-157842724D01*
X98670096Y-157815732D01*
X98720863Y-157793715D01*
X98774589Y-157776673D01*
X98806618Y-157769168D01*
X98859577Y-157761431D01*
X98909916Y-157758498D01*
X98965896Y-157758762D01*
X99014742Y-157761275D01*
X99067199Y-157765833D01*
X99123266Y-157772436D01*
X99182944Y-157781085D01*
X99236128Y-157788763D01*
X99289857Y-157794867D01*
X99340293Y-157798078D01*
X99390536Y-157795937D01*
X99438181Y-157783250D01*
X99477407Y-157757769D01*
X99503742Y-157714509D01*
X99508149Y-157679016D01*
X99495502Y-157629780D01*
X99470326Y-157595944D01*
X99429697Y-157567577D01*
X99383801Y-157558467D01*
X99333722Y-157570441D01*
X99286828Y-157596796D01*
X99265497Y-157612178D01*
X99083638Y-157397505D01*
X99124436Y-157368834D01*
X99169019Y-157342645D01*
X99216568Y-157321569D01*
X99256517Y-157310289D01*
X99305535Y-157305087D01*
X99355229Y-157309128D01*
X99405597Y-157322412D01*
X99415751Y-157326178D01*
X99463164Y-157349379D01*
X99507762Y-157379109D01*
X99548681Y-157412153D01*
X99585162Y-157445699D01*
X99597611Y-157457952D01*
X99634275Y-157496269D01*
X99670851Y-157538945D01*
X99700748Y-157579440D01*
X99726740Y-157623048D01*
X99736466Y-157643784D01*
X99753379Y-157694732D01*
X99760510Y-157745680D01*
X99757859Y-157796628D01*
X99756154Y-157806818D01*
X99742362Y-157855766D01*
X99719765Y-157900497D01*
X99688364Y-157941012D01*
X99681027Y-157948609D01*
X99642598Y-157981000D01*
X99599005Y-158006478D01*
X99550248Y-158025044D01*
X99520929Y-158032372D01*
X99468135Y-158039204D01*
X99414379Y-158039959D01*
X99362684Y-158036724D01*
X99305805Y-158029908D01*
X99254444Y-158021491D01*
X99203056Y-158011910D01*
X99153978Y-158003465D01*
X99117661Y-157998348D01*
X99068504Y-157994811D01*
X99027854Y-157993513D01*
X99336825Y-158302483D01*
X99171027Y-158468281D01*
G37*
G36*
X114414581Y-147196537D02*
G01*
X114414581Y-146885372D01*
X115164895Y-146885372D01*
X115164895Y-146399817D01*
X115415000Y-146399817D01*
X115415000Y-147196537D01*
X114414581Y-147196537D01*
G37*
G36*
X114414581Y-146251073D02*
G01*
X114414581Y-145939419D01*
X115415000Y-145939419D01*
X115415000Y-146251073D01*
X114414581Y-146251073D01*
G37*
G36*
X114414581Y-145717402D02*
G01*
X114414581Y-145426753D01*
X114978293Y-145047444D01*
X114414581Y-145047444D01*
X114414581Y-144754353D01*
X115415000Y-144754353D01*
X115415000Y-145047444D01*
X114854218Y-145424799D01*
X115415000Y-145424799D01*
X115415000Y-145717402D01*
X114414581Y-145717402D01*
G37*
G36*
X114414581Y-144554562D02*
G01*
X114414581Y-143720717D01*
X114649054Y-143720717D01*
X114649054Y-144242664D01*
X114789738Y-144242664D01*
X114789738Y-143758330D01*
X114992948Y-143758330D01*
X114992948Y-144242664D01*
X115180526Y-144242664D01*
X115180526Y-143705574D01*
X115415000Y-143705574D01*
X115415000Y-144554562D01*
X114414581Y-144554562D01*
G37*
G36*
X114414581Y-133779953D02*
G01*
X114414581Y-133370602D01*
X115020792Y-133212577D01*
X114414581Y-133055285D01*
X114414581Y-132647155D01*
X115415000Y-132647155D01*
X115415000Y-132901412D01*
X114647100Y-132901412D01*
X115415000Y-133098516D01*
X115415000Y-133328593D01*
X114647100Y-133525208D01*
X115415000Y-133525208D01*
X115415000Y-133779953D01*
X114414581Y-133779953D01*
G37*
G36*
X114969013Y-131526156D02*
G01*
X115021589Y-131530046D01*
X115076525Y-131537861D01*
X115124565Y-131549206D01*
X115160254Y-131561740D01*
X115207610Y-131584608D01*
X115250483Y-131611998D01*
X115288874Y-131643908D01*
X115308265Y-131663589D01*
X115341625Y-131705301D01*
X115367208Y-131748921D01*
X115385016Y-131794450D01*
X115387644Y-131803785D01*
X115399612Y-131853747D01*
X115408989Y-131907073D01*
X115414038Y-131957346D01*
X115415000Y-131989165D01*
X115415000Y-132451517D01*
X114414581Y-132451517D01*
X114414581Y-132140351D01*
X114649054Y-132140351D01*
X115180526Y-132140351D01*
X115180526Y-132064147D01*
X115178884Y-132013774D01*
X115172417Y-131964275D01*
X115159766Y-131925417D01*
X115128694Y-131886662D01*
X115086737Y-131860937D01*
X115038469Y-131846649D01*
X114984392Y-131839780D01*
X114932063Y-131837582D01*
X114917721Y-131837490D01*
X114863179Y-131839328D01*
X114808228Y-131846116D01*
X114756876Y-131860000D01*
X114713702Y-131883429D01*
X114706207Y-131889758D01*
X114676068Y-131928999D01*
X114658486Y-131975818D01*
X114650449Y-132026582D01*
X114649054Y-132062682D01*
X114649054Y-132140351D01*
X114414581Y-132140351D01*
X114414581Y-131989165D01*
X114415877Y-131939803D01*
X114420668Y-131886859D01*
X114430464Y-131832477D01*
X114444870Y-131784628D01*
X114451461Y-131768369D01*
X114474738Y-131723289D01*
X114503076Y-131682846D01*
X114536476Y-131647040D01*
X114557219Y-131629151D01*
X114597758Y-131600635D01*
X114641892Y-131576910D01*
X114689619Y-131557976D01*
X114717686Y-131549528D01*
X114769938Y-131537603D01*
X114823929Y-131529581D01*
X114873380Y-131525726D01*
X114911371Y-131524859D01*
X114969013Y-131526156D01*
G37*
D11*
%TO.C,F1*%
X84387869Y-151502384D02*
X79862385Y-156027867D01*
X74912637Y-151078120D01*
X79438120Y-146552637D01*
X84387869Y-151502384D01*
X94287363Y-161401880D02*
X89761880Y-165927363D01*
X84812131Y-160977616D01*
X89337615Y-156452133D01*
X94287363Y-161401880D01*
%TO.C,R1*%
X88620585Y-149268413D02*
X93245064Y-153892891D01*
X88853931Y-149035068D02*
X88620585Y-149268413D01*
X90324713Y-147564286D02*
X90558058Y-147330940D01*
X90558058Y-147330940D02*
X95182536Y-151955419D01*
X93245064Y-153892891D02*
X93478409Y-153659546D01*
X95182536Y-151955419D02*
X94949191Y-152188764D01*
%TO.C,U1*%
X69995000Y-154920000D02*
X68115000Y-154920000D01*
X69995000Y-154920000D02*
X71875000Y-154920000D01*
X69995000Y-160100000D02*
X68115000Y-160100000D01*
X69995000Y-160100000D02*
X71875000Y-160100000D01*
X72937500Y-160330000D02*
X72457500Y-160330000D01*
X72697500Y-160000000D01*
X72937500Y-160330000D01*
G36*
X72937500Y-160330000D02*
G01*
X72457500Y-160330000D01*
X72697500Y-160000000D01*
X72937500Y-160330000D01*
G37*
%TO.C,+3.3V*%
X83400000Y-122255000D02*
X83400000Y-123775000D01*
X85342541Y-115952924D02*
X85342541Y-119397076D01*
X85342541Y-115952924D02*
X87777924Y-113517541D01*
X87777924Y-121832459D02*
X85342541Y-119397076D01*
X87777924Y-121832459D02*
X91222076Y-121832459D01*
X91222076Y-113517541D02*
X87777924Y-113517541D01*
X91222076Y-113517541D02*
X93657459Y-115952924D01*
X93657459Y-119397076D02*
X91222076Y-121832459D01*
X93657459Y-119397076D02*
X93657459Y-115952924D01*
X83400000Y-111575000D02*
X95600000Y-111575000D01*
X95600000Y-123775000D01*
X83400000Y-123775000D01*
X83400000Y-111575000D01*
X92500000Y-117675000D02*
G75*
G02*
X86500000Y-117675000I-3000000J0D01*
G01*
X86500000Y-117675000D02*
G75*
G02*
X92500000Y-117675000I3000000J0D01*
G01*
%TO.C,+5V*%
X84920000Y-126575000D02*
X83400000Y-126575000D01*
X85342541Y-130952924D02*
X85342541Y-134397076D01*
X85342541Y-130952924D02*
X87777924Y-128517541D01*
X87777924Y-136832459D02*
X85342541Y-134397076D01*
X87777924Y-136832459D02*
X91222076Y-136832459D01*
X91222076Y-128517541D02*
X87777924Y-128517541D01*
X91222076Y-128517541D02*
X93657459Y-130952924D01*
X93657459Y-134397076D02*
X91222076Y-136832459D01*
X93657459Y-134397076D02*
X93657459Y-130952924D01*
X95600000Y-126575000D02*
X83400000Y-126575000D01*
X83400000Y-138775000D01*
X95600000Y-138775000D01*
X95600000Y-126575000D01*
X92500000Y-132675000D02*
G75*
G02*
X86500000Y-132675000I-3000000J0D01*
G01*
X86500000Y-132675000D02*
G75*
G02*
X92500000Y-132675000I3000000J0D01*
G01*
%TO.C,VIN*%
X91340185Y-166640585D02*
X95356552Y-162624218D01*
X91693739Y-168691195D02*
X92542267Y-167842667D01*
X92407917Y-170536743D02*
X93044313Y-170324611D01*
X92542267Y-167842667D02*
X91340185Y-166640585D01*
X92832181Y-170961007D02*
X92407917Y-170536743D01*
X93044313Y-170324611D02*
X92832181Y-170961007D01*
X95356552Y-162624218D02*
X96558633Y-163826300D01*
X96558633Y-163826300D02*
X97407162Y-162977772D01*
X96657628Y-173655084D02*
X91693739Y-168691195D01*
X97407162Y-162977772D02*
X102371051Y-167941661D01*
X102371051Y-167941661D02*
X96657628Y-173655084D01*
%TO.C,MAIN*%
X93345010Y-103760561D02*
X98733164Y-109148715D01*
X93359152Y-103760561D02*
X94631944Y-105033354D01*
X93889482Y-103230231D02*
X93359152Y-103760561D01*
X94631944Y-105033354D02*
X95162274Y-104503023D01*
X94950142Y-102169571D02*
X95480472Y-102699901D01*
X95162274Y-104503023D02*
X93889482Y-103230231D01*
X95480472Y-102699901D02*
X97566437Y-100613936D01*
X95692605Y-106094014D02*
X96399711Y-106801121D01*
X96222935Y-105563684D02*
X95692605Y-106094014D01*
X96399711Y-106801121D02*
X96930041Y-106270790D01*
X96930041Y-106270790D02*
X96222935Y-105563684D01*
X97460371Y-107861781D02*
X98733164Y-109134573D01*
X97566437Y-99539134D02*
X93345010Y-103760561D01*
X97566437Y-100613936D02*
X99723113Y-102770612D01*
X97849280Y-108674953D02*
X98733164Y-109558837D01*
X97990702Y-107331451D02*
X97460371Y-107861781D01*
X98733164Y-109134573D02*
X99263494Y-108604243D01*
X98733164Y-109148715D02*
X102954591Y-104927288D01*
X98733164Y-109558837D02*
X99617047Y-108674953D01*
X99263494Y-108604243D02*
X97990702Y-107331451D01*
X99793824Y-107013253D02*
X101879789Y-104927288D01*
X100324154Y-107543583D02*
X99793824Y-107013253D01*
X101879789Y-104927288D02*
X99723113Y-102770612D01*
X102954591Y-104927288D02*
X97566437Y-99539134D01*
%TO.C,N*%
X65895000Y-150525000D02*
X65895000Y-149875000D01*
X65895000Y-150525000D02*
X65895000Y-151175000D01*
X69015000Y-150525000D02*
X69015000Y-149875000D01*
X69015000Y-150525000D02*
X69015000Y-151175000D01*
X65945000Y-151687500D02*
X65615000Y-151927500D01*
X65615000Y-151447500D01*
X65945000Y-151687500D01*
G36*
X65945000Y-151687500D02*
G01*
X65615000Y-151927500D01*
X65615000Y-151447500D01*
X65945000Y-151687500D01*
G37*
%TO.C,MES1*%
X98000000Y-125675000D02*
X101500000Y-125675000D01*
X98000000Y-148675000D02*
X98000000Y-125675000D01*
X101500000Y-122175000D02*
X105500000Y-122175000D01*
X101500000Y-125675000D02*
X101500000Y-122175000D01*
X101500000Y-148675000D02*
X98000000Y-148675000D01*
X101500000Y-152175000D02*
X101500000Y-148675000D01*
X105500000Y-122175000D02*
X105500000Y-125675000D01*
X105500000Y-125675000D02*
X109000000Y-125675000D01*
X105500000Y-148675000D02*
X105500000Y-152175000D01*
X105500000Y-152175000D02*
X101500000Y-152175000D01*
X109000000Y-125675000D02*
X109000000Y-148675000D01*
X109000000Y-148675000D02*
X105500000Y-148675000D01*
%TO.C,KICKER*%
X99874801Y-116193924D02*
X99874801Y-117443924D01*
X99874801Y-117443924D02*
X101124801Y-117443924D01*
X100164801Y-109533924D02*
X100164801Y-117153924D01*
X100164801Y-117153924D02*
X106134801Y-117153924D01*
X100174800Y-111343924D02*
X100924801Y-111343923D01*
X100174800Y-113843924D02*
X100924801Y-113843923D01*
X100174800Y-115343924D02*
X100174801Y-117143924D01*
X100174801Y-109543924D02*
X100174800Y-111343924D01*
X100174801Y-112843925D02*
X100174800Y-113843924D01*
X100174801Y-117143924D02*
X100924801Y-117143924D01*
X100924801Y-109543924D02*
X100174801Y-109543924D01*
X100924801Y-111343923D02*
X100924801Y-109543924D01*
X100924801Y-112843925D02*
X100174801Y-112843925D01*
X100924801Y-113843923D02*
X100924801Y-112843925D01*
X100924801Y-115343925D02*
X100174800Y-115343924D01*
X100924801Y-117143924D02*
X100924801Y-115343925D01*
X102424801Y-109543924D02*
X102424801Y-110293924D01*
X102424801Y-110293924D02*
X105374801Y-110293924D01*
X102424801Y-116393924D02*
X105374801Y-116393924D01*
X102424801Y-117143924D02*
X102424801Y-116393924D01*
X105374801Y-110293924D02*
X105374801Y-113343924D01*
X105374801Y-116393924D02*
X105374801Y-113343924D01*
X106134801Y-109533924D02*
X100164801Y-109533924D01*
X106134801Y-117153924D02*
X106134801Y-109533924D01*
%TO.C,D1*%
X70820000Y-149595000D02*
X70664000Y-149595000D01*
X73136000Y-149595000D02*
X72980000Y-149595000D01*
X70820164Y-152196129D02*
G75*
G02*
X70820001Y-150114040I1079836J1041129D01*
G01*
X70821392Y-152827334D02*
G75*
G02*
X70664485Y-149595001I1078608J1672334D01*
G01*
X72979999Y-150114040D02*
G75*
G02*
X72979836Y-152196129I-1079999J-1040960D01*
G01*
X73135515Y-149595001D02*
G75*
G02*
X72978608Y-152827334I-1235515J-1559999D01*
G01*
%TO.C,U3*%
X78654165Y-162841398D02*
X76730835Y-160918068D01*
X79347130Y-162148434D02*
X78654165Y-162841398D01*
X80167374Y-157679519D02*
X81991709Y-159503854D01*
X81298745Y-160196819D02*
X81991709Y-159503854D01*
X80075450Y-157333036D02*
X79672399Y-157396676D01*
X79736039Y-156993625D01*
X80075450Y-157333036D01*
G36*
X80075450Y-157333036D02*
G01*
X79672399Y-157396676D01*
X79736039Y-156993625D01*
X80075450Y-157333036D01*
G37*
%TO.C,SW2*%
X67000000Y-115975000D02*
X66000000Y-115975000D01*
X66000000Y-136375000D01*
X67000000Y-136375000D01*
X67000000Y-115975000D01*
G36*
X67000000Y-115975000D02*
G01*
X66000000Y-115975000D01*
X66000000Y-136375000D01*
X67000000Y-136375000D01*
X67000000Y-115975000D01*
G37*
X80000000Y-114975000D02*
X66000000Y-114975000D01*
X66000000Y-115975000D01*
X80000000Y-115975000D01*
X80000000Y-114975000D01*
G36*
X80000000Y-114975000D02*
G01*
X66000000Y-114975000D01*
X66000000Y-115975000D01*
X80000000Y-115975000D01*
X80000000Y-114975000D01*
G37*
X81000000Y-114975000D02*
X80000000Y-114975000D01*
X80000000Y-135375000D01*
X81000000Y-135375000D01*
X81000000Y-114975000D01*
G36*
X81000000Y-114975000D02*
G01*
X80000000Y-114975000D01*
X80000000Y-135375000D01*
X81000000Y-135375000D01*
X81000000Y-114975000D01*
G37*
X81000000Y-135375000D02*
X67000000Y-135375000D01*
X67000000Y-136375000D01*
X81000000Y-136375000D01*
X81000000Y-135375000D01*
G36*
X81000000Y-135375000D02*
G01*
X67000000Y-135375000D01*
X67000000Y-136375000D01*
X81000000Y-136375000D01*
X81000000Y-135375000D01*
G37*
%TO.C,R2*%
X95508739Y-156156567D02*
X100133218Y-160781045D01*
X95742085Y-155923222D02*
X95508739Y-156156567D01*
X97212867Y-154452440D02*
X97446212Y-154219094D01*
X97446212Y-154219094D02*
X102070690Y-158843573D01*
X100133218Y-160781045D02*
X100366563Y-160547700D01*
X102070690Y-158843573D02*
X101837345Y-159076918D01*
%TD*%
%LPC*%
D12*
X74300000Y-138675000D02*
G75*
G02*
X72700000Y-138675000I-800000J0D01*
G01*
X72700000Y-138675000D02*
G75*
G02*
X74300000Y-138675000I800000J0D01*
G01*
X80300000Y-113175000D02*
G75*
G02*
X78700000Y-113175000I-800000J0D01*
G01*
X78700000Y-113175000D02*
G75*
G02*
X80300000Y-113175000I800000J0D01*
G01*
D13*
%TO.C,F1*%
X90787184Y-164548505D03*
X88312310Y-157830991D03*
X80887690Y-154649009D03*
X78412816Y-147931495D03*
%TD*%
D14*
%TO.C,R1*%
X89207484Y-147917839D03*
D15*
X94595638Y-153305993D03*
%TD*%
D16*
%TO.C,U1*%
X72532500Y-159415000D03*
X72532500Y-158145000D03*
X72532500Y-156875000D03*
X72532500Y-155605000D03*
X67457500Y-155605000D03*
X67457500Y-156875000D03*
X67457500Y-158145000D03*
X67457500Y-159415000D03*
%TD*%
D17*
%TO.C,+3.3V*%
X83400000Y-117675000D03*
X83400000Y-113095000D03*
D18*
X87210000Y-111575000D03*
X89500000Y-111575000D03*
X91790000Y-111575000D03*
D17*
X95600000Y-113095000D03*
X95600000Y-117675000D03*
X95600000Y-122255000D03*
D18*
X89500000Y-123775000D03*
%TD*%
%TO.C,+5V*%
X89500000Y-126575000D03*
X94080000Y-126575000D03*
D19*
X95600000Y-130385000D03*
X95600000Y-132675000D03*
X95600000Y-134965000D03*
D18*
X94080000Y-138775000D03*
X89500000Y-138775000D03*
X84920000Y-138775000D03*
D19*
X83400000Y-132675000D03*
%TD*%
D20*
%TO.C,VIN*%
X94642374Y-168726550D03*
D21*
X97442517Y-165926407D03*
%TD*%
D22*
%TO.C,MAIN*%
X98662453Y-105599039D03*
D23*
X96894686Y-103831272D03*
%TD*%
D24*
%TO.C,N*%
X66505000Y-151462500D03*
X68405000Y-151462500D03*
X67455000Y-149587500D03*
%TD*%
D25*
%TO.C,MES1*%
X103500000Y-124175000D03*
X103500000Y-150175000D03*
D26*
X99250000Y-147175000D03*
X99250000Y-145425000D03*
%TD*%
D27*
%TO.C,KICKER*%
X102624801Y-114593924D03*
D28*
X102624801Y-112093924D03*
%TD*%
D29*
%TO.C,D1*%
X71900000Y-149885000D03*
D30*
X71900000Y-152425000D03*
%TD*%
D31*
%TO.C,U3*%
X79043074Y-157771443D03*
D32*
X78044286Y-158893975D03*
D31*
X76921754Y-159892763D03*
%TD*%
D14*
%TO.C,R2*%
X96095638Y-154805993D03*
D15*
X101483792Y-160194147D03*
%TD*%
D33*
%TO.C,C6*%
X72431354Y-110333064D03*
D34*
X72431354Y-105333064D03*
%TD*%
D35*
%TO.C,J2*%
X84911433Y-148621788D03*
D36*
X86707484Y-150417839D03*
X88503535Y-152213890D03*
X90299587Y-154009942D03*
X92095638Y-155805993D03*
%TD*%
D37*
%TO.C,LINE*%
X111552677Y-143493160D03*
D21*
X111552677Y-147453160D03*
%TD*%
D34*
%TO.C,MD*%
X114850000Y-127175000D03*
X114850000Y-138175000D03*
D38*
X104850000Y-130175000D03*
X104850000Y-135175000D03*
%TD*%
D33*
%TO.C,C7*%
X72431364Y-163835530D03*
D34*
X72431364Y-168835530D03*
%TD*%
%LPD*%
M02*
