%TF.GenerationSoftware,KiCad,Pcbnew,8.0.1*%
%TF.CreationDate,2024-05-18T14:14:00+09:00*%
%TF.ProjectId,Power-20240325,506f7765-722d-4323-9032-34303332352e,rev?*%
%TF.SameCoordinates,Original*%
%TF.FileFunction,Soldermask,Bot*%
%TF.FilePolarity,Negative*%
%FSLAX46Y46*%
G04 Gerber Fmt 4.6, Leading zero omitted, Abs format (unit mm)*
G04 Created by KiCad (PCBNEW 8.0.1) date 2024-05-18 14:14:00*
%MOMM*%
%LPD*%
G01*
G04 APERTURE LIST*
G04 Aperture macros list*
%AMRoundRect*
0 Rectangle with rounded corners*
0 $1 Rounding radius*
0 $2 $3 $4 $5 $6 $7 $8 $9 X,Y pos of 4 corners*
0 Add a 4 corners polygon primitive as box body*
4,1,4,$2,$3,$4,$5,$6,$7,$8,$9,$2,$3,0*
0 Add four circle primitives for the rounded corners*
1,1,$1+$1,$2,$3*
1,1,$1+$1,$4,$5*
1,1,$1+$1,$6,$7*
1,1,$1+$1,$8,$9*
0 Add four rect primitives between the rounded corners*
20,1,$1+$1,$2,$3,$4,$5,0*
20,1,$1+$1,$4,$5,$6,$7,0*
20,1,$1+$1,$6,$7,$8,$9,0*
20,1,$1+$1,$8,$9,$2,$3,0*%
%AMHorizOval*
0 Thick line with rounded ends*
0 $1 width*
0 $2 $3 position (X,Y) of the first rounded end (center of the circle)*
0 $4 $5 position (X,Y) of the second rounded end (center of the circle)*
0 Add line between two ends*
20,1,$1,$2,$3,$4,$5,0*
0 Add two circle primitives to create the rounded ends*
1,1,$1,$2,$3*
1,1,$1,$4,$5*%
G04 Aperture macros list end*
%ADD10C,1.825000*%
%ADD11C,3.500000*%
%ADD12C,1.500000*%
%ADD13C,2.300000*%
%ADD14C,2.600000*%
%ADD15RoundRect,0.250000X-0.088388X0.936916X-0.936916X0.088388X0.088388X-0.936916X0.936916X-0.088388X0*%
%ADD16HorizOval,1.700000X-0.088388X0.088388X0.088388X-0.088388X0*%
%ADD17O,1.700000X2.000000*%
%ADD18RoundRect,0.250000X0.600000X0.750000X-0.600000X0.750000X-0.600000X-0.750000X0.600000X-0.750000X0*%
%ADD19RoundRect,0.200000X0.200000X0.275000X-0.200000X0.275000X-0.200000X-0.275000X0.200000X-0.275000X0*%
%ADD20RoundRect,0.225000X-0.225000X-0.250000X0.225000X-0.250000X0.225000X0.250000X-0.225000X0.250000X0*%
%ADD21RoundRect,0.200000X-0.200000X-0.275000X0.200000X-0.275000X0.200000X0.275000X-0.200000X0.275000X0*%
%ADD22C,2.700000*%
%ADD23RoundRect,0.250001X-1.099999X-1.099999X1.099999X-1.099999X1.099999X1.099999X-1.099999X1.099999X0*%
%ADD24C,2.000000*%
%ADD25R,2.000000X2.000000*%
%ADD26C,3.400000*%
G04 APERTURE END LIST*
D10*
X87992500Y-128599999D02*
G75*
G02*
X86167500Y-128599999I-912500J0D01*
G01*
X86167500Y-128599999D02*
G75*
G02*
X87992500Y-128599999I912500J0D01*
G01*
X58992500Y-128599998D02*
G75*
G02*
X57167500Y-128599998I-912500J0D01*
G01*
X57167500Y-128599998D02*
G75*
G02*
X58992500Y-128599998I912500J0D01*
G01*
D11*
%TO.C,VIN*%
X102494637Y-98593433D03*
X106030171Y-102128967D03*
%TD*%
D12*
%TO.C,+*%
X81330001Y-102349998D03*
X83080001Y-102349998D03*
D13*
X86080001Y-98099998D03*
X60080001Y-98099998D03*
%TD*%
D14*
%TO.C,F1*%
X91580001Y-130349998D03*
X94580001Y-123849998D03*
X91580001Y-106349998D03*
X94580001Y-99849998D03*
%TD*%
D15*
%TO.C,MAIN*%
X43218998Y-99203463D03*
D16*
X41451231Y-100971230D03*
X39683464Y-102738997D03*
%TD*%
D17*
%TO.C,KICKER*%
X51580000Y-97099999D03*
D18*
X54080000Y-97099999D03*
%TD*%
D19*
%TO.C,R4*%
X70505001Y-110349998D03*
X72155001Y-110349998D03*
%TD*%
D20*
%TO.C,C2*%
X53055001Y-112099999D03*
X51505001Y-112099999D03*
%TD*%
D21*
%TO.C,R5*%
X72155001Y-113849999D03*
X70505001Y-113849999D03*
%TD*%
%TO.C,R3*%
X53155000Y-110349998D03*
X51505000Y-110349998D03*
%TD*%
%TO.C,R7*%
X68655000Y-110349998D03*
X67005000Y-110349998D03*
%TD*%
%TO.C,R6*%
X72155001Y-112099999D03*
X70505001Y-112099999D03*
%TD*%
D19*
%TO.C,R1*%
X55005001Y-110349998D03*
X56655001Y-110349998D03*
%TD*%
D21*
%TO.C,R2*%
X56655001Y-112099999D03*
X55005001Y-112099999D03*
%TD*%
D22*
%TO.C,LINE*%
X82540000Y-90000000D03*
D23*
X78580000Y-90000000D03*
%TD*%
D20*
%TO.C,C1*%
X54855000Y-113849999D03*
X53305000Y-113849999D03*
%TD*%
%TO.C,C3*%
X68605000Y-113849999D03*
X67055000Y-113849999D03*
%TD*%
D24*
%TO.C,C5*%
X46593485Y-127168654D03*
D25*
X41593485Y-127168654D03*
%TD*%
D26*
%TO.C,MD*%
X70580001Y-94749999D03*
X65580001Y-94749999D03*
D24*
X73580001Y-84749999D03*
X62580001Y-84749999D03*
%TD*%
D20*
%TO.C,C6*%
X68555001Y-112099999D03*
X67005001Y-112099999D03*
%TD*%
D24*
%TO.C,C4*%
X99566657Y-127168654D03*
D25*
X104566657Y-127168654D03*
%TD*%
M02*
