%TF.GenerationSoftware,KiCad,Pcbnew,8.0.1*%
%TF.CreationDate,2024-04-28T23:39:04+09:00*%
%TF.ProjectId,Power-20240325,506f7765-722d-4323-9032-34303332352e,rev?*%
%TF.SameCoordinates,Original*%
%TF.FileFunction,Copper,L2,Bot*%
%TF.FilePolarity,Positive*%
%FSLAX46Y46*%
G04 Gerber Fmt 4.6, Leading zero omitted, Abs format (unit mm)*
G04 Created by KiCad (PCBNEW 8.0.1) date 2024-04-28 23:39:04*
%MOMM*%
%LPD*%
G01*
G04 APERTURE LIST*
G04 Aperture macros list*
%AMRoundRect*
0 Rectangle with rounded corners*
0 $1 Rounding radius*
0 $2 $3 $4 $5 $6 $7 $8 $9 X,Y pos of 4 corners*
0 Add a 4 corners polygon primitive as box body*
4,1,4,$2,$3,$4,$5,$6,$7,$8,$9,$2,$3,0*
0 Add four circle primitives for the rounded corners*
1,1,$1+$1,$2,$3*
1,1,$1+$1,$4,$5*
1,1,$1+$1,$6,$7*
1,1,$1+$1,$8,$9*
0 Add four rect primitives between the rounded corners*
20,1,$1+$1,$2,$3,$4,$5,0*
20,1,$1+$1,$4,$5,$6,$7,0*
20,1,$1+$1,$6,$7,$8,$9,0*
20,1,$1+$1,$8,$9,$2,$3,0*%
%AMHorizOval*
0 Thick line with rounded ends*
0 $1 width*
0 $2 $3 position (X,Y) of the first rounded end (center of the circle)*
0 $4 $5 position (X,Y) of the second rounded end (center of the circle)*
0 Add line between two ends*
20,1,$1,$2,$3,$4,$5,0*
0 Add two circle primitives to create the rounded ends*
1,1,$1,$2,$3*
1,1,$1,$4,$5*%
%AMRotRect*
0 Rectangle, with rotation*
0 The origin of the aperture is its center*
0 $1 length*
0 $2 width*
0 $3 Rotation angle, in degrees counterclockwise*
0 Add horizontal line*
21,1,$1,$2,0,0,$3*%
G04 Aperture macros list end*
%TA.AperFunction,ComponentPad*%
%ADD10RoundRect,0.250000X0.936916X0.088388X0.088388X0.936916X-0.936916X-0.088388X-0.088388X-0.936916X0*%
%TD*%
%TA.AperFunction,ComponentPad*%
%ADD11HorizOval,1.700000X0.088388X0.088388X-0.088388X-0.088388X0*%
%TD*%
%TA.AperFunction,ComponentPad*%
%ADD12C,2.600000*%
%TD*%
%TA.AperFunction,ComponentPad*%
%ADD13C,1.600000*%
%TD*%
%TA.AperFunction,ComponentPad*%
%ADD14HorizOval,1.600000X0.000000X0.000000X0.000000X0.000000X0*%
%TD*%
%TA.AperFunction,ComponentPad*%
%ADD15RoundRect,0.250001X0.000000X-1.555634X1.555634X0.000000X0.000000X1.555634X-1.555634X0.000000X0*%
%TD*%
%TA.AperFunction,ComponentPad*%
%ADD16C,2.700000*%
%TD*%
%TA.AperFunction,ComponentPad*%
%ADD17C,1.500000*%
%TD*%
%TA.AperFunction,ComponentPad*%
%ADD18RoundRect,0.250000X0.750000X-0.600000X0.750000X0.600000X-0.750000X0.600000X-0.750000X-0.600000X0*%
%TD*%
%TA.AperFunction,ComponentPad*%
%ADD19O,2.000000X1.700000*%
%TD*%
%TA.AperFunction,ComponentPad*%
%ADD20R,1.800000X1.800000*%
%TD*%
%TA.AperFunction,ComponentPad*%
%ADD21C,1.800000*%
%TD*%
%TA.AperFunction,SMDPad,CuDef*%
%ADD22RoundRect,0.225000X-0.250000X0.225000X-0.250000X-0.225000X0.250000X-0.225000X0.250000X0.225000X0*%
%TD*%
%TA.AperFunction,SMDPad,CuDef*%
%ADD23RoundRect,0.200000X-0.275000X0.200000X-0.275000X-0.200000X0.275000X-0.200000X0.275000X0.200000X0*%
%TD*%
%TA.AperFunction,SMDPad,CuDef*%
%ADD24RoundRect,0.225000X0.225000X0.250000X-0.225000X0.250000X-0.225000X-0.250000X0.225000X-0.250000X0*%
%TD*%
%TA.AperFunction,SMDPad,CuDef*%
%ADD25RoundRect,0.200000X-0.200000X-0.275000X0.200000X-0.275000X0.200000X0.275000X-0.200000X0.275000X0*%
%TD*%
%TA.AperFunction,ComponentPad*%
%ADD26R,2.000000X2.000000*%
%TD*%
%TA.AperFunction,ComponentPad*%
%ADD27C,2.000000*%
%TD*%
%TA.AperFunction,SMDPad,CuDef*%
%ADD28RoundRect,0.200000X0.275000X-0.200000X0.275000X0.200000X-0.275000X0.200000X-0.275000X-0.200000X0*%
%TD*%
%TA.AperFunction,SMDPad,CuDef*%
%ADD29RoundRect,0.200000X0.200000X0.275000X-0.200000X0.275000X-0.200000X-0.275000X0.200000X-0.275000X0*%
%TD*%
%TA.AperFunction,ComponentPad*%
%ADD30RotRect,1.700000X1.700000X225.000000*%
%TD*%
%TA.AperFunction,ComponentPad*%
%ADD31HorizOval,1.700000X0.000000X0.000000X0.000000X0.000000X0*%
%TD*%
%TA.AperFunction,SMDPad,CuDef*%
%ADD32RoundRect,0.225000X0.017678X-0.335876X0.335876X-0.017678X-0.017678X0.335876X-0.335876X0.017678X0*%
%TD*%
%TA.AperFunction,ComponentPad*%
%ADD33RoundRect,0.250001X-1.099999X1.099999X-1.099999X-1.099999X1.099999X-1.099999X1.099999X1.099999X0*%
%TD*%
%TA.AperFunction,ComponentPad*%
%ADD34C,3.400000*%
%TD*%
%TA.AperFunction,SMDPad,CuDef*%
%ADD35RoundRect,0.250000X0.350000X-0.850000X0.350000X0.850000X-0.350000X0.850000X-0.350000X-0.850000X0*%
%TD*%
%TA.AperFunction,SMDPad,CuDef*%
%ADD36RoundRect,0.250000X1.125000X-1.275000X1.125000X1.275000X-1.125000X1.275000X-1.125000X-1.275000X0*%
%TD*%
%TA.AperFunction,SMDPad,CuDef*%
%ADD37RoundRect,0.249997X2.650003X-2.950003X2.650003X2.950003X-2.650003X2.950003X-2.650003X-2.950003X0*%
%TD*%
%TA.AperFunction,SMDPad,CuDef*%
%ADD38RoundRect,0.225000X-0.225000X-0.250000X0.225000X-0.250000X0.225000X0.250000X-0.225000X0.250000X0*%
%TD*%
%TA.AperFunction,ViaPad*%
%ADD39C,0.800000*%
%TD*%
%TA.AperFunction,ViaPad*%
%ADD40C,3.000000*%
%TD*%
%TA.AperFunction,Conductor*%
%ADD41C,2.000000*%
%TD*%
%TA.AperFunction,Conductor*%
%ADD42C,0.250000*%
%TD*%
G04 APERTURE END LIST*
D10*
%TO.P,J5,1,Pin_1*%
%TO.N,+5V*%
X88767767Y-112592738D03*
D11*
%TO.P,J5,2,Pin_2*%
%TO.N,+3.3V*%
X87000000Y-110824971D03*
%TO.P,J5,3,Pin_3*%
%TO.N,GND*%
X85232233Y-109057204D03*
%TD*%
D12*
%TO.P,F1,1*%
%TO.N,Net-(J1-Pin_1)*%
X79287184Y-169873476D03*
X76812310Y-163155962D03*
%TO.P,F1,2*%
%TO.N,V_RAW*%
X69387690Y-159973980D03*
X66912816Y-153256466D03*
%TD*%
D13*
%TO.P,R1,1*%
%TO.N,V_RAW*%
X77707484Y-153242810D03*
D14*
%TO.P,R1,2*%
%TO.N,ICSPCLK*%
X83095638Y-158630964D03*
%TD*%
D15*
%TO.P,VIN,1,Pin_1*%
%TO.N,Net-(J1-Pin_1)*%
X83142374Y-174051521D03*
D16*
%TO.P,VIN,2,Pin_2*%
%TO.N,GND*%
X85942517Y-171251378D03*
%TD*%
D17*
%TO.P,MES1,1,-*%
%TO.N,GND*%
X87750000Y-152499971D03*
%TO.P,MES1,2,+*%
%TO.N,VIN*%
X87750000Y-150749971D03*
%TD*%
D18*
%TO.P,KICKER,1,Pin_1*%
%TO.N,VIN*%
X90975001Y-123324971D03*
D19*
%TO.P,KICKER,2,Pin_2*%
%TO.N,GND*%
X90975001Y-120824971D03*
%TD*%
D20*
%TO.P,D1,1,K*%
%TO.N,GND*%
X60400000Y-155209971D03*
D21*
%TO.P,D1,2,A*%
%TO.N,Net-(D1-A)*%
X60400000Y-157749971D03*
%TD*%
D13*
%TO.P,R2,1*%
%TO.N,ICSPCLK*%
X84595638Y-160130964D03*
D14*
%TO.P,R2,2*%
%TO.N,GND*%
X89983792Y-165519118D03*
%TD*%
D22*
%TO.P,C4,1*%
%TO.N,VIN*%
X77995000Y-133809971D03*
%TO.P,C4,2*%
%TO.N,GND*%
X77995000Y-135359971D03*
%TD*%
D23*
%TO.P,R13,1*%
%TO.N,GND*%
X78000000Y-137174971D03*
%TO.P,R13,2*%
%TO.N,Net-(R13-Pad2)*%
X78000000Y-138824971D03*
%TD*%
D24*
%TO.P,C2,1*%
%TO.N,+3.3V*%
X78775000Y-125824971D03*
%TO.P,C2,2*%
%TO.N,GND*%
X77225000Y-125824971D03*
%TD*%
D25*
%TO.P,R4,1*%
%TO.N,V_RAW*%
X55130000Y-155849971D03*
%TO.P,R4,2*%
%TO.N,Net-(Q1-G)*%
X56780000Y-155849971D03*
%TD*%
D26*
%TO.P,C6,1*%
%TO.N,VIN*%
X60931354Y-115658035D03*
D27*
%TO.P,C6,2*%
%TO.N,GND*%
X60931354Y-110658035D03*
%TD*%
D28*
%TO.P,R7,1*%
%TO.N,Net-(R6-Pad2)*%
X79000000Y-123824971D03*
%TO.P,R7,2*%
%TO.N,GND*%
X79000000Y-122174971D03*
%TD*%
%TO.P,R15,1*%
%TO.N,+5V*%
X79800000Y-138824971D03*
%TO.P,R15,2*%
%TO.N,GND*%
X79800000Y-137174971D03*
%TD*%
D29*
%TO.P,R5,1*%
%TO.N,Net-(U1-GP5)*%
X59320000Y-163584971D03*
%TO.P,R5,2*%
%TO.N,Net-(D1-A)*%
X57670000Y-163584971D03*
%TD*%
D30*
%TO.P,J2,1,Pin_1*%
%TO.N,MCLR{slash}VPP*%
X73411433Y-153946759D03*
D31*
%TO.P,J2,2,Pin_2*%
%TO.N,+3.3VA*%
X75207484Y-155742810D03*
%TO.P,J2,3,Pin_3*%
%TO.N,GND*%
X77003535Y-157538861D03*
%TO.P,J2,4,Pin_4*%
%TO.N,ICSPDAT*%
X78799587Y-159334913D03*
%TO.P,J2,5,Pin_5*%
%TO.N,ICSPCLK*%
X80595638Y-161130964D03*
%TD*%
D22*
%TO.P,C8,1*%
%TO.N,+5V*%
X78000000Y-140424971D03*
%TO.P,C8,2*%
%TO.N,GND*%
X78000000Y-141974971D03*
%TD*%
D28*
%TO.P,R6,1*%
%TO.N,Net-(U2-Trim)*%
X77000000Y-123824971D03*
%TO.P,R6,2*%
%TO.N,Net-(R6-Pad2)*%
X77000000Y-122174971D03*
%TD*%
D25*
%TO.P,R10,1*%
%TO.N,Net-(Q2-G)*%
X57670000Y-162084971D03*
%TO.P,R10,2*%
%TO.N,V_Control*%
X59320000Y-162084971D03*
%TD*%
D28*
%TO.P,R8,1*%
%TO.N,+3.3V*%
X81000000Y-123824971D03*
%TO.P,R8,2*%
%TO.N,GND*%
X81000000Y-122174971D03*
%TD*%
D24*
%TO.P,C5,1*%
%TO.N,+3.3VA*%
X59270000Y-165084971D03*
%TO.P,C5,2*%
%TO.N,GND*%
X57720000Y-165084971D03*
%TD*%
D28*
%TO.P,R12,1*%
%TO.N,Net-(U4-Trim)*%
X74400000Y-138824971D03*
%TO.P,R12,2*%
%TO.N,Net-(R12-Pad2)*%
X74400000Y-137174971D03*
%TD*%
D32*
%TO.P,C3,1*%
%TO.N,V_RAW*%
X66864251Y-165634927D03*
%TO.P,C3,2*%
%TO.N,GND*%
X67960267Y-164538911D03*
%TD*%
D33*
%TO.P,LINE,1,Pin_1*%
%TO.N,+5V*%
X100052677Y-148818131D03*
D16*
%TO.P,LINE,2,Pin_2*%
%TO.N,GND*%
X100052677Y-152778131D03*
%TD*%
D27*
%TO.P,MD,*%
%TO.N,*%
X103350000Y-132499971D03*
X103350000Y-143499971D03*
D34*
%TO.P,MD,1,Pin_1*%
%TO.N,VIN*%
X93350000Y-135499971D03*
%TO.P,MD,2,Pin_2*%
%TO.N,GND*%
X93350000Y-140499971D03*
%TD*%
D35*
%TO.P,P,1,G*%
%TO.N,Net-(Q1-G)*%
X58235000Y-151999971D03*
D36*
%TO.P,P,2,D*%
%TO.N,Net-(Q1-D)*%
X54430000Y-147374971D03*
X57480000Y-147374971D03*
D37*
X55955000Y-145699971D03*
D36*
X54430000Y-144024971D03*
X57480000Y-144024971D03*
D35*
%TO.P,P,3,S*%
%TO.N,V_RAW*%
X53675000Y-151999971D03*
%TD*%
D23*
%TO.P,R14,1*%
%TO.N,Net-(R12-Pad2)*%
X76200000Y-137174971D03*
%TO.P,R14,2*%
%TO.N,Net-(R13-Pad2)*%
X76200000Y-138824971D03*
%TD*%
D25*
%TO.P,R9,1*%
%TO.N,Net-(Q2-G)*%
X57670000Y-160584971D03*
%TO.P,R9,2*%
%TO.N,GND*%
X59320000Y-160584971D03*
%TD*%
D38*
%TO.P,C1,1*%
%TO.N,VIN*%
X77225000Y-120324971D03*
%TO.P,C1,2*%
%TO.N,GND*%
X78775000Y-120324971D03*
%TD*%
D26*
%TO.P,C7,1*%
%TO.N,V_RAW*%
X60931364Y-169160501D03*
D27*
%TO.P,C7,2*%
%TO.N,GND*%
X60931364Y-174160501D03*
%TD*%
D39*
%TO.N,GND*%
X70000000Y-137999971D03*
X80000000Y-130499971D03*
X86000000Y-137999971D03*
X70000000Y-122999971D03*
X55955000Y-166009971D03*
X62940000Y-159659971D03*
%TO.N,VIN*%
X78000000Y-118999971D03*
%TO.N,GND*%
X70106336Y-167780996D03*
X76000000Y-130499971D03*
X78000000Y-114499971D03*
D40*
%TO.N,VIN*%
X68000000Y-118499971D03*
D39*
X81000000Y-133824971D03*
%TO.N,+3.3V*%
X82500000Y-122999971D03*
%TO.N,V_RAW*%
X60555000Y-153159971D03*
X77355000Y-155559971D03*
X73955000Y-150759971D03*
X79955000Y-155559971D03*
X64155000Y-153159971D03*
X53555000Y-155159971D03*
X65355000Y-150759971D03*
X64155000Y-155559971D03*
X70155000Y-153159971D03*
X78755000Y-154359971D03*
X65355000Y-156759971D03*
X73955000Y-151959971D03*
X61755000Y-150759971D03*
X62955000Y-151959971D03*
X79955000Y-154359971D03*
X72755000Y-150759971D03*
X79955000Y-151959971D03*
X76355000Y-151959971D03*
X53555000Y-156359971D03*
X71355000Y-153159971D03*
X55955000Y-151959971D03*
X68955000Y-151959971D03*
X61755000Y-153159971D03*
X52355000Y-153959971D03*
X60555000Y-150759971D03*
X62955000Y-154359971D03*
X55955000Y-150759971D03*
X68955000Y-150759971D03*
X66555000Y-155559971D03*
X75155000Y-151959971D03*
X75155000Y-150759971D03*
X72755000Y-151959971D03*
X61755000Y-151959971D03*
X62955000Y-155559971D03*
X64155000Y-151959971D03*
X78755000Y-150759971D03*
X71355000Y-151959971D03*
X70155000Y-151959971D03*
X66555000Y-150759971D03*
X64155000Y-154359971D03*
X64155000Y-156759971D03*
X64155000Y-150759971D03*
X78755000Y-151959971D03*
X71355000Y-150759971D03*
X53555000Y-153959971D03*
X79955000Y-153159971D03*
X65290000Y-161780801D03*
X62955000Y-150759971D03*
X65355000Y-151959971D03*
X76355000Y-150759971D03*
X77555000Y-150759971D03*
X70155000Y-150759971D03*
X60555000Y-151959971D03*
X65355000Y-155559971D03*
X62955000Y-153159971D03*
X79955000Y-150759971D03*
X78755000Y-155559971D03*
X67755000Y-150759971D03*
%TO.N,+3.3VA*%
X62937500Y-164739971D03*
%TO.N,+5V*%
X79800000Y-140399971D03*
%TO.N,ICSPDAT*%
X62940000Y-166009971D03*
%TO.N,ICSPCLK*%
X61939997Y-166009971D03*
%TO.N,MCLR{slash}VPP*%
X62940000Y-160929971D03*
%TO.N,Net-(Q1-G)*%
X55955000Y-153309971D03*
D40*
%TO.N,Net-(Q1-D)*%
X62000000Y-143999971D03*
D39*
%TO.N,Net-(Q2-G)*%
X54685000Y-158389971D03*
%TO.N,Net-(U1-GP5)*%
X62937500Y-163469971D03*
%TO.N,Net-(U2-Trim)*%
X81000000Y-124999971D03*
%TO.N,V_Control*%
X62937500Y-162199971D03*
%TO.N,Net-(U4-Trim)*%
X74400000Y-140399971D03*
%TD*%
D41*
%TO.N,+5V*%
X88767767Y-140018958D02*
X88767767Y-112592738D01*
X97566940Y-148818131D02*
X88767767Y-140018958D01*
X100052677Y-148818131D02*
X97566940Y-148818131D01*
D42*
%TO.N,VIN*%
X78000000Y-118999971D02*
X77225000Y-119774971D01*
%TO.N,GND*%
X62015000Y-160584971D02*
X62940000Y-159659971D01*
%TO.N,VIN*%
X77225000Y-119774971D02*
X77225000Y-120324971D01*
%TO.N,GND*%
X59320000Y-160584971D02*
X62015000Y-160584971D01*
%TO.N,VIN*%
X78000000Y-133824971D02*
X78250000Y-133824971D01*
X81000000Y-133824971D02*
X78000000Y-133824971D01*
%TO.N,+3.3V*%
X81675000Y-123824971D02*
X82500000Y-122999971D01*
X81200305Y-125824971D02*
X81725000Y-125300276D01*
X81725000Y-125300276D02*
X81725000Y-124549971D01*
X81725000Y-124549971D02*
X81000000Y-123824971D01*
X81000000Y-123824971D02*
X81675000Y-123824971D01*
X78775000Y-125824971D02*
X81200305Y-125824971D01*
%TO.N,V_RAW*%
X65290000Y-161780801D02*
X65290000Y-164060676D01*
X65290000Y-164060676D02*
X66864251Y-165634927D01*
%TO.N,+3.3VA*%
X63665000Y-160841367D02*
X63665000Y-164012471D01*
X75207484Y-155742810D02*
X68763557Y-155742810D01*
X62592500Y-165084971D02*
X59270000Y-165084971D01*
X63665000Y-164012471D02*
X62937500Y-164739971D01*
X68763557Y-155742810D02*
X63665000Y-160841367D01*
X62937500Y-164739971D02*
X62592500Y-165084971D01*
%TO.N,+5V*%
X79775000Y-140424971D02*
X79800000Y-140399971D01*
X78000000Y-140424971D02*
X79775000Y-140424971D01*
X79800000Y-138824971D02*
X78200000Y-140424971D01*
X78200000Y-140424971D02*
X78000000Y-140424971D01*
%TO.N,Net-(D1-A)*%
X58495000Y-159654971D02*
X60400000Y-157749971D01*
X58495000Y-162759971D02*
X58495000Y-159654971D01*
X57670000Y-163584971D02*
X58495000Y-162759971D01*
%TO.N,ICSPDAT*%
X64115000Y-161027763D02*
X64115000Y-164834971D01*
X78799587Y-159334913D02*
X77137886Y-159334913D01*
X64115000Y-164834971D02*
X62940000Y-166009971D01*
X77137886Y-159334913D02*
X73995783Y-156192810D01*
X73995783Y-156192810D02*
X68949953Y-156192810D01*
X68949953Y-156192810D02*
X64115000Y-161027763D01*
%TO.N,ICSPCLK*%
X64565000Y-161214159D02*
X69136349Y-156642810D01*
X61939997Y-166009971D02*
X62215000Y-166284974D01*
X62215000Y-166310276D02*
X62639695Y-166734971D01*
X78297541Y-161130964D02*
X80595638Y-161130964D01*
X63240305Y-166734971D02*
X64565000Y-165410276D01*
X64565000Y-165410276D02*
X64565000Y-161214159D01*
X62639695Y-166734971D02*
X63240305Y-166734971D01*
X73809387Y-156642810D02*
X78297541Y-161130964D01*
X69136349Y-156642810D02*
X73809387Y-156642810D01*
X62215000Y-166284974D02*
X62215000Y-166310276D01*
%TO.N,MCLR{slash}VPP*%
X62940000Y-160929971D02*
X69923212Y-153946759D01*
X69923212Y-153946759D02*
X73411433Y-153946759D01*
%TO.N,Net-(Q1-G)*%
X55955000Y-153309971D02*
X56780000Y-154134971D01*
X56780000Y-154134971D02*
X56780000Y-155849971D01*
X55955000Y-153309971D02*
X57265000Y-151999971D01*
X57265000Y-151999971D02*
X58235000Y-151999971D01*
%TO.N,Net-(Q2-G)*%
X56880000Y-160584971D02*
X57670000Y-160584971D01*
X54685000Y-158389971D02*
X56880000Y-160584971D01*
X57670000Y-160584971D02*
X57670000Y-162084971D01*
%TO.N,Net-(U1-GP5)*%
X62822500Y-163584971D02*
X59320000Y-163584971D01*
X62937500Y-163469971D02*
X62822500Y-163584971D01*
%TO.N,Net-(R6-Pad2)*%
X78825000Y-123824971D02*
X77175000Y-122174971D01*
X79000000Y-123824971D02*
X78825000Y-123824971D01*
X77175000Y-122174971D02*
X77000000Y-122174971D01*
%TO.N,Net-(U2-Trim)*%
X77000000Y-123824971D02*
X78175000Y-124999971D01*
X78175000Y-124999971D02*
X81000000Y-124999971D01*
%TO.N,V_Control*%
X62937500Y-162199971D02*
X62822500Y-162084971D01*
X62822500Y-162084971D02*
X59320000Y-162084971D01*
%TO.N,Net-(U4-Trim)*%
X74400000Y-138824971D02*
X74400000Y-140399971D01*
%TO.N,Net-(R12-Pad2)*%
X76200000Y-137174971D02*
X74400000Y-137174971D01*
%TO.N,Net-(R13-Pad2)*%
X78000000Y-138824971D02*
X76200000Y-138824971D01*
%TD*%
%TA.AperFunction,Conductor*%
%TO.N,GND*%
G36*
X81836283Y-101063126D02*
G01*
X82179305Y-101101771D01*
X82193007Y-101104098D01*
X82529582Y-101180913D01*
X82542916Y-101184755D01*
X82868785Y-101298773D01*
X82881592Y-101304078D01*
X83192637Y-101453857D01*
X83204803Y-101460581D01*
X83497096Y-101644225D01*
X83508436Y-101652270D01*
X83779029Y-101868040D01*
X83788136Y-101876062D01*
X83788159Y-101876084D01*
X83911959Y-101996405D01*
X83913217Y-101997646D01*
X94559794Y-112644223D01*
X94561496Y-112645958D01*
X94633503Y-112720845D01*
X94636469Y-112723929D01*
X94647398Y-112736983D01*
X94670548Y-112768843D01*
X94775215Y-112912899D01*
X94785382Y-112929489D01*
X94883551Y-113122148D01*
X94890997Y-113140124D01*
X94957818Y-113345758D01*
X94962361Y-113364677D01*
X94996381Y-113579429D01*
X94997885Y-113596432D01*
X94999977Y-113704558D01*
X95000000Y-113706957D01*
X95000000Y-127571341D01*
X95001214Y-127689836D01*
X95001215Y-127689851D01*
X95036471Y-127924283D01*
X95108162Y-128150256D01*
X95108165Y-128150262D01*
X95134169Y-128202075D01*
X95214504Y-128362143D01*
X95352848Y-128554665D01*
X95519750Y-128723032D01*
X95711056Y-128863052D01*
X95922005Y-128971240D01*
X96147343Y-129044902D01*
X96381463Y-129082206D01*
X96423299Y-129082990D01*
X96499989Y-129084429D01*
X96500000Y-129084429D01*
X103498792Y-129084429D01*
X103501223Y-129084453D01*
X103503187Y-129084491D01*
X103609349Y-129086573D01*
X103626297Y-129088075D01*
X103841078Y-129122091D01*
X103859996Y-129126633D01*
X104065641Y-129193449D01*
X104083615Y-129200893D01*
X104276286Y-129299061D01*
X104292870Y-129309224D01*
X104467806Y-129436318D01*
X104482596Y-129448949D01*
X104635506Y-129601852D01*
X104648136Y-129616639D01*
X104775237Y-129791569D01*
X104785404Y-129808158D01*
X104883574Y-130000811D01*
X104891020Y-130018787D01*
X104957850Y-130224440D01*
X104962391Y-130243348D01*
X104996413Y-130458097D01*
X104997917Y-130475127D01*
X104999977Y-130583220D01*
X105000000Y-130585583D01*
X105000000Y-131934791D01*
X104980315Y-132001830D01*
X104927511Y-132047585D01*
X104858353Y-132057529D01*
X104794797Y-132028504D01*
X104762444Y-131984601D01*
X104674173Y-131783364D01*
X104538166Y-131575188D01*
X104516557Y-131551715D01*
X104369744Y-131392233D01*
X104173509Y-131239497D01*
X104173507Y-131239496D01*
X104173506Y-131239495D01*
X103954811Y-131121143D01*
X103954802Y-131121140D01*
X103719616Y-131040400D01*
X103474335Y-130999471D01*
X103225665Y-130999471D01*
X102980383Y-131040400D01*
X102745197Y-131121140D01*
X102745188Y-131121143D01*
X102526493Y-131239495D01*
X102330257Y-131392232D01*
X102161833Y-131575188D01*
X102025826Y-131783364D01*
X101925936Y-132011089D01*
X101864892Y-132252146D01*
X101864890Y-132252158D01*
X101844357Y-132499965D01*
X101844357Y-132499976D01*
X101864890Y-132747783D01*
X101864892Y-132747795D01*
X101925936Y-132988852D01*
X102025826Y-133216577D01*
X102161833Y-133424753D01*
X102161836Y-133424756D01*
X102330256Y-133607709D01*
X102526491Y-133760445D01*
X102745190Y-133878799D01*
X102980386Y-133959542D01*
X103225665Y-134000471D01*
X103474335Y-134000471D01*
X103719614Y-133959542D01*
X103954810Y-133878799D01*
X104173509Y-133760445D01*
X104369744Y-133607709D01*
X104538164Y-133424756D01*
X104674173Y-133216578D01*
X104762444Y-133015339D01*
X104807400Y-132961854D01*
X104874136Y-132941164D01*
X104941464Y-132959839D01*
X104988007Y-133011949D01*
X105000000Y-133065150D01*
X105000000Y-142934791D01*
X104980315Y-143001830D01*
X104927511Y-143047585D01*
X104858353Y-143057529D01*
X104794797Y-143028504D01*
X104762444Y-142984601D01*
X104674173Y-142783364D01*
X104538166Y-142575188D01*
X104516557Y-142551715D01*
X104369744Y-142392233D01*
X104173509Y-142239497D01*
X104173507Y-142239496D01*
X104173506Y-142239495D01*
X103954811Y-142121143D01*
X103954802Y-142121140D01*
X103719616Y-142040400D01*
X103474335Y-141999471D01*
X103225665Y-141999471D01*
X102980383Y-142040400D01*
X102745197Y-142121140D01*
X102745188Y-142121143D01*
X102526493Y-142239495D01*
X102330257Y-142392232D01*
X102161833Y-142575188D01*
X102025826Y-142783364D01*
X101925936Y-143011089D01*
X101864892Y-143252146D01*
X101864890Y-143252158D01*
X101844357Y-143499965D01*
X101844357Y-143499976D01*
X101864890Y-143747783D01*
X101864892Y-143747795D01*
X101925936Y-143988852D01*
X102025826Y-144216577D01*
X102161833Y-144424753D01*
X102161836Y-144424756D01*
X102330256Y-144607709D01*
X102526491Y-144760445D01*
X102745190Y-144878799D01*
X102980386Y-144959542D01*
X103225665Y-145000471D01*
X103474335Y-145000471D01*
X103719614Y-144959542D01*
X103954810Y-144878799D01*
X104173509Y-144760445D01*
X104369744Y-144607709D01*
X104538164Y-144424756D01*
X104674173Y-144216578D01*
X104762444Y-144015339D01*
X104807400Y-143961854D01*
X104874136Y-143941164D01*
X104941464Y-143959839D01*
X104988007Y-144011949D01*
X105000000Y-144065150D01*
X105000000Y-154414377D01*
X104999977Y-154416766D01*
X104997905Y-154524297D01*
X104996419Y-154541196D01*
X104962780Y-154754821D01*
X104958288Y-154773642D01*
X104892197Y-154978283D01*
X104884832Y-154996176D01*
X104787707Y-155188049D01*
X104777647Y-155204579D01*
X104651856Y-155379004D01*
X104639349Y-155393766D01*
X104487961Y-155546494D01*
X104473308Y-155559132D01*
X104299992Y-155686456D01*
X104283552Y-155696660D01*
X104092552Y-155795465D01*
X104074724Y-155802988D01*
X103870664Y-155870881D01*
X103851883Y-155875538D01*
X103638584Y-155911052D01*
X103621669Y-155912688D01*
X103517321Y-155915592D01*
X103514701Y-155915665D01*
X103511253Y-155915713D01*
X96499991Y-155915713D01*
X96382135Y-155918024D01*
X96149294Y-155954902D01*
X95925103Y-156027744D01*
X95925099Y-156027746D01*
X95715059Y-156134766D01*
X95715056Y-156134767D01*
X95715056Y-156134768D01*
X95651737Y-156180771D01*
X95524337Y-156273331D01*
X95357651Y-156440014D01*
X95357648Y-156440017D01*
X95219083Y-156630731D01*
X95112058Y-156840771D01*
X95112057Y-156840775D01*
X95039209Y-157064967D01*
X95039209Y-157064968D01*
X95002327Y-157297803D01*
X95002326Y-157297809D01*
X95000000Y-157415678D01*
X95000000Y-171293171D01*
X94999977Y-171295563D01*
X94997902Y-171403121D01*
X94996415Y-171420024D01*
X94962758Y-171633689D01*
X94958263Y-171652516D01*
X94892134Y-171857199D01*
X94884763Y-171875097D01*
X94787593Y-172066982D01*
X94777527Y-172083515D01*
X94650964Y-172258930D01*
X94640124Y-172271974D01*
X94566035Y-172349630D01*
X94563998Y-172351714D01*
X83913214Y-183002498D01*
X83911987Y-183003709D01*
X83788514Y-183123795D01*
X83779401Y-183131827D01*
X83509589Y-183347125D01*
X83498281Y-183355156D01*
X83206843Y-183538515D01*
X83194708Y-183545234D01*
X82884601Y-183694904D01*
X82871793Y-183700224D01*
X82546924Y-183814323D01*
X82533601Y-183818180D01*
X82198019Y-183895283D01*
X82184348Y-183897628D01*
X81842256Y-183936771D01*
X81828410Y-183937575D01*
X81484080Y-183938270D01*
X81470230Y-183937522D01*
X81127980Y-183899757D01*
X81114301Y-183897467D01*
X80778415Y-183821718D01*
X80765076Y-183817915D01*
X80439743Y-183705126D01*
X80426913Y-183699857D01*
X80422862Y-183697922D01*
X80375998Y-183675535D01*
X80116213Y-183551439D01*
X80104052Y-183544770D01*
X79811872Y-183362586D01*
X79800531Y-183354600D01*
X79529856Y-183140392D01*
X79520708Y-183132394D01*
X79396940Y-183012980D01*
X79395357Y-183011424D01*
X77250074Y-180866141D01*
X80052289Y-180866141D01*
X80091624Y-181114497D01*
X80169331Y-181353651D01*
X80283491Y-181577700D01*
X80431286Y-181781124D01*
X80431290Y-181781129D01*
X80609100Y-181958939D01*
X80609105Y-181958943D01*
X80786543Y-182087858D01*
X80812533Y-182106741D01*
X80955297Y-182179483D01*
X81036578Y-182220898D01*
X81036580Y-182220898D01*
X81036583Y-182220900D01*
X81164772Y-182262551D01*
X81275732Y-182298605D01*
X81524089Y-182337941D01*
X81775552Y-182337941D01*
X81775557Y-182337941D01*
X82023913Y-182298605D01*
X82263063Y-182220900D01*
X82487113Y-182106741D01*
X82690547Y-181958938D01*
X82868354Y-181781131D01*
X83016157Y-181577697D01*
X83130316Y-181353647D01*
X83208021Y-181114497D01*
X83247357Y-180866136D01*
X83249823Y-180740407D01*
X83247357Y-180614678D01*
X83208021Y-180366317D01*
X83130316Y-180127167D01*
X83130314Y-180127164D01*
X83130314Y-180127162D01*
X83088899Y-180045881D01*
X83016157Y-179903117D01*
X82997274Y-179877127D01*
X82868359Y-179699689D01*
X82868355Y-179699684D01*
X82690545Y-179521874D01*
X82690540Y-179521870D01*
X82487116Y-179374075D01*
X82487115Y-179374074D01*
X82487113Y-179374073D01*
X82417145Y-179338422D01*
X82263067Y-179259915D01*
X82023913Y-179182208D01*
X81775557Y-179142873D01*
X81775552Y-179142873D01*
X81524094Y-179142873D01*
X81524089Y-179142873D01*
X81275732Y-179182208D01*
X81036578Y-179259915D01*
X80812529Y-179374075D01*
X80609105Y-179521870D01*
X80609100Y-179521874D01*
X80431290Y-179699684D01*
X80431286Y-179699689D01*
X80283491Y-179903113D01*
X80169331Y-180127162D01*
X80091624Y-180366316D01*
X80052289Y-180614672D01*
X80052289Y-180866141D01*
X77250074Y-180866141D01*
X73130931Y-176746997D01*
X73130902Y-176746969D01*
X73045149Y-176664435D01*
X73045145Y-176664432D01*
X73045142Y-176664429D01*
X72852405Y-176524826D01*
X72852402Y-176524825D01*
X72782478Y-176489456D01*
X72640033Y-176417404D01*
X72634952Y-176415670D01*
X72527366Y-176378970D01*
X72372376Y-176327139D01*
X72361669Y-176322998D01*
X72063338Y-176191408D01*
X72051665Y-176185503D01*
X72030233Y-176173200D01*
X71860471Y-176075746D01*
X71769604Y-176023583D01*
X71758601Y-176016469D01*
X71495195Y-175825688D01*
X71485005Y-175817452D01*
X71243196Y-175599940D01*
X71233938Y-175590683D01*
X71016424Y-175348869D01*
X71008197Y-175338687D01*
X70875126Y-175154957D01*
X70817413Y-175075272D01*
X70810321Y-175064305D01*
X70648375Y-174782196D01*
X70642478Y-174770534D01*
X70510887Y-174472197D01*
X70506748Y-174461495D01*
X70454903Y-174306493D01*
X70428821Y-174230053D01*
X70416477Y-174193876D01*
X70416474Y-174193870D01*
X70416471Y-174193860D01*
X70309069Y-173981499D01*
X70169483Y-173788761D01*
X70169480Y-173788758D01*
X70169476Y-173788753D01*
X70086954Y-173703020D01*
X69840886Y-173456952D01*
X71905129Y-173456952D01*
X71944464Y-173705308D01*
X72022171Y-173944462D01*
X72041043Y-173981499D01*
X72121416Y-174139240D01*
X72136331Y-174168511D01*
X72284126Y-174371935D01*
X72284130Y-174371940D01*
X72461940Y-174549750D01*
X72461945Y-174549754D01*
X72513143Y-174586951D01*
X72665373Y-174697552D01*
X72808137Y-174770294D01*
X72889418Y-174811709D01*
X72889420Y-174811709D01*
X72889423Y-174811711D01*
X73017612Y-174853362D01*
X73128572Y-174889416D01*
X73376929Y-174928752D01*
X73628392Y-174928752D01*
X73628397Y-174928752D01*
X73876753Y-174889416D01*
X74115903Y-174811711D01*
X74339953Y-174697552D01*
X74543387Y-174549749D01*
X74721194Y-174371942D01*
X74868997Y-174168508D01*
X74883909Y-174139242D01*
X80836240Y-174139242D01*
X80855551Y-174220721D01*
X80876699Y-174309955D01*
X80907827Y-174371935D01*
X80955437Y-174466736D01*
X81020694Y-174546844D01*
X82647051Y-176173201D01*
X82727159Y-176238458D01*
X82883941Y-176317196D01*
X83054653Y-176357655D01*
X83054655Y-176357655D01*
X83230093Y-176357655D01*
X83230095Y-176357655D01*
X83400807Y-176317196D01*
X83557589Y-176238458D01*
X83637697Y-176173201D01*
X85264054Y-174546844D01*
X85329311Y-174466736D01*
X85408049Y-174309954D01*
X85448508Y-174139242D01*
X85448508Y-173963800D01*
X85408049Y-173793088D01*
X85329311Y-173636306D01*
X85264054Y-173556198D01*
X83637697Y-171929841D01*
X83557589Y-171864584D01*
X83479198Y-171825215D01*
X83400808Y-171785846D01*
X83343903Y-171772359D01*
X83230095Y-171745387D01*
X83054653Y-171745387D01*
X82969297Y-171765616D01*
X82883939Y-171785846D01*
X82727159Y-171864584D01*
X82647050Y-171929841D01*
X81020694Y-173556197D01*
X80955437Y-173636306D01*
X80876699Y-173793086D01*
X80876699Y-173793088D01*
X80836240Y-173963800D01*
X80836240Y-174139242D01*
X74883909Y-174139242D01*
X74983156Y-173944458D01*
X75060861Y-173705308D01*
X75100197Y-173456947D01*
X75102663Y-173331218D01*
X75100197Y-173205489D01*
X75060861Y-172957128D01*
X74983156Y-172717978D01*
X74983154Y-172717975D01*
X74983154Y-172717973D01*
X74921599Y-172597166D01*
X74868997Y-172493928D01*
X74768552Y-172355677D01*
X74721199Y-172290500D01*
X74721195Y-172290495D01*
X74543385Y-172112685D01*
X74543380Y-172112681D01*
X74339956Y-171964886D01*
X74339955Y-171964885D01*
X74339953Y-171964884D01*
X74269985Y-171929233D01*
X74115907Y-171850726D01*
X73876753Y-171773019D01*
X73628397Y-171733684D01*
X73628392Y-171733684D01*
X73376934Y-171733684D01*
X73376929Y-171733684D01*
X73128572Y-171773019D01*
X72889418Y-171850726D01*
X72665369Y-171964886D01*
X72461945Y-172112681D01*
X72461940Y-172112685D01*
X72284130Y-172290495D01*
X72284126Y-172290500D01*
X72136331Y-172493924D01*
X72022171Y-172717973D01*
X71944464Y-172957127D01*
X71905129Y-173205483D01*
X71905129Y-173456952D01*
X69840886Y-173456952D01*
X69072381Y-172688448D01*
X69072351Y-172688418D01*
X68987658Y-172605483D01*
X68987654Y-172605480D01*
X68987653Y-172605478D01*
X68796964Y-172464712D01*
X68796958Y-172464708D01*
X68796956Y-172464707D01*
X68586489Y-172355673D01*
X68586485Y-172355671D01*
X68586479Y-172355669D01*
X68361496Y-172281094D01*
X68361479Y-172281089D01*
X68127572Y-172242825D01*
X67890543Y-172241818D01*
X67656295Y-172278102D01*
X67430674Y-172350771D01*
X67219293Y-172458014D01*
X67219287Y-172458018D01*
X67027404Y-172597166D01*
X66941994Y-172679396D01*
X64467390Y-175154002D01*
X64466425Y-175154957D01*
X64312662Y-175305389D01*
X64305563Y-175311817D01*
X63975287Y-175588427D01*
X63966603Y-175595071D01*
X63613794Y-175841129D01*
X63604560Y-175846982D01*
X63231446Y-176061007D01*
X63221731Y-176066023D01*
X62831239Y-176246339D01*
X62821121Y-176250481D01*
X62416238Y-176395708D01*
X62405794Y-176398942D01*
X61989697Y-176507939D01*
X61979009Y-176510240D01*
X61554937Y-176582161D01*
X61544087Y-176583512D01*
X61115335Y-176617797D01*
X61104408Y-176618188D01*
X60674281Y-176614571D01*
X60663364Y-176613997D01*
X60235245Y-176572510D01*
X60224419Y-176570977D01*
X59801606Y-176491937D01*
X59790958Y-176489456D01*
X59376749Y-176373478D01*
X59366361Y-176370068D01*
X58963992Y-176218060D01*
X58953951Y-176213752D01*
X58566507Y-176026879D01*
X58556900Y-176021711D01*
X58554558Y-176020315D01*
X58365275Y-175907467D01*
X58187443Y-175801447D01*
X58178308Y-175795440D01*
X57829690Y-175543489D01*
X57821119Y-175536700D01*
X57496049Y-175255020D01*
X57488110Y-175247503D01*
X57189117Y-174938285D01*
X57181871Y-174930098D01*
X56911278Y-174595745D01*
X56904781Y-174586951D01*
X56664686Y-174230053D01*
X56658990Y-174220721D01*
X56451276Y-173844082D01*
X56446423Y-173834285D01*
X56426322Y-173788759D01*
X56272413Y-173440174D01*
X56268886Y-173431271D01*
X56233658Y-173331218D01*
X56197458Y-173228405D01*
X56196997Y-173227066D01*
X55885373Y-172302339D01*
X55884688Y-172300244D01*
X55878615Y-172281094D01*
X55294314Y-170438710D01*
X55293578Y-170436303D01*
X55283714Y-170402836D01*
X55226395Y-170208371D01*
X59430864Y-170208371D01*
X59430865Y-170208377D01*
X59437272Y-170267984D01*
X59487566Y-170402829D01*
X59487570Y-170402836D01*
X59573816Y-170518045D01*
X59573819Y-170518048D01*
X59689028Y-170604294D01*
X59689035Y-170604298D01*
X59823881Y-170654592D01*
X59823880Y-170654592D01*
X59830808Y-170655336D01*
X59883491Y-170661001D01*
X61979236Y-170661000D01*
X62038847Y-170654592D01*
X62173695Y-170604297D01*
X62288910Y-170518047D01*
X62375160Y-170402832D01*
X62425455Y-170267984D01*
X62431864Y-170208374D01*
X62431864Y-169873480D01*
X77481635Y-169873480D01*
X77501800Y-170142577D01*
X77561848Y-170405664D01*
X77561850Y-170405671D01*
X77660440Y-170656872D01*
X77660442Y-170656876D01*
X77662823Y-170661000D01*
X77795369Y-170890578D01*
X77931264Y-171060985D01*
X77963626Y-171101565D01*
X78150367Y-171274834D01*
X78161443Y-171285111D01*
X78384410Y-171437127D01*
X78627543Y-171554214D01*
X78885412Y-171633756D01*
X78885413Y-171633756D01*
X78885416Y-171633757D01*
X79152247Y-171673975D01*
X79152252Y-171673975D01*
X79152255Y-171673976D01*
X79152256Y-171673976D01*
X79422112Y-171673976D01*
X79422113Y-171673976D01*
X79422120Y-171673975D01*
X79688951Y-171633757D01*
X79688952Y-171633756D01*
X79688956Y-171633756D01*
X79946825Y-171554214D01*
X80189959Y-171437127D01*
X80412925Y-171285111D01*
X80610745Y-171101561D01*
X80778999Y-170890578D01*
X80913927Y-170656874D01*
X81012518Y-170405671D01*
X81072567Y-170142579D01*
X81092733Y-169873476D01*
X81072567Y-169604373D01*
X81012518Y-169341281D01*
X80913927Y-169090078D01*
X80778999Y-168856374D01*
X80610745Y-168645391D01*
X80610744Y-168645390D01*
X80610741Y-168645386D01*
X80412925Y-168461841D01*
X80189959Y-168309825D01*
X80189953Y-168309822D01*
X80189952Y-168309821D01*
X80189951Y-168309820D01*
X79946827Y-168192739D01*
X79946829Y-168192739D01*
X79688957Y-168113196D01*
X79688951Y-168113194D01*
X79422120Y-168072976D01*
X79422113Y-168072976D01*
X79152255Y-168072976D01*
X79152247Y-168072976D01*
X78885416Y-168113194D01*
X78885410Y-168113196D01*
X78627542Y-168192738D01*
X78384414Y-168309822D01*
X78161442Y-168461841D01*
X77963626Y-168645386D01*
X77795369Y-168856374D01*
X77660442Y-169090075D01*
X77660440Y-169090079D01*
X77561850Y-169341280D01*
X77561848Y-169341287D01*
X77501800Y-169604374D01*
X77481635Y-169873471D01*
X77481635Y-169873480D01*
X62431864Y-169873480D01*
X62431863Y-168112629D01*
X62425455Y-168053018D01*
X62375160Y-167918170D01*
X62375159Y-167918169D01*
X62375157Y-167918165D01*
X62288911Y-167802956D01*
X62288908Y-167802953D01*
X62173699Y-167716707D01*
X62173692Y-167716703D01*
X62038846Y-167666409D01*
X62038847Y-167666409D01*
X61979247Y-167660002D01*
X61979245Y-167660001D01*
X61979237Y-167660001D01*
X61979228Y-167660001D01*
X59883493Y-167660001D01*
X59883487Y-167660002D01*
X59823880Y-167666409D01*
X59689035Y-167716703D01*
X59689028Y-167716707D01*
X59573819Y-167802953D01*
X59573816Y-167802956D01*
X59487570Y-167918165D01*
X59487566Y-167918172D01*
X59437272Y-168053018D01*
X59430865Y-168112617D01*
X59430865Y-168112624D01*
X59430864Y-168112636D01*
X59430864Y-170208371D01*
X55226395Y-170208371D01*
X54741464Y-168563158D01*
X54740814Y-168560868D01*
X54227133Y-166676697D01*
X54226529Y-166674387D01*
X53751557Y-164780205D01*
X53750995Y-164777866D01*
X53314892Y-162874319D01*
X53314351Y-162871839D01*
X53217384Y-162404865D01*
X52917326Y-160959842D01*
X52916866Y-160957504D01*
X52559037Y-159037619D01*
X52558627Y-159035281D01*
X52448612Y-158369621D01*
X52412264Y-158149690D01*
X52420753Y-158080338D01*
X52465390Y-158026586D01*
X52532001Y-158005498D01*
X52534604Y-158005471D01*
X53692418Y-158005471D01*
X53759457Y-158025156D01*
X53805212Y-158077960D01*
X53815156Y-158147118D01*
X53810349Y-158167788D01*
X53799327Y-158201710D01*
X53799326Y-158201712D01*
X53799326Y-158201715D01*
X53779540Y-158389971D01*
X53799326Y-158578227D01*
X53799327Y-158578230D01*
X53857818Y-158758248D01*
X53857821Y-158758255D01*
X53952467Y-158922187D01*
X54056403Y-159037619D01*
X54079129Y-159062859D01*
X54232265Y-159174119D01*
X54232270Y-159174122D01*
X54405192Y-159251113D01*
X54405197Y-159251115D01*
X54590354Y-159290471D01*
X54649548Y-159290471D01*
X54716587Y-159310156D01*
X54737229Y-159326790D01*
X56391016Y-160980577D01*
X56391045Y-160980608D01*
X56481263Y-161070826D01*
X56481271Y-161070832D01*
X56548697Y-161115885D01*
X56548698Y-161115885D01*
X56583715Y-161139283D01*
X56649407Y-161166493D01*
X56697548Y-161186434D01*
X56728397Y-161192570D01*
X56776153Y-161202069D01*
X56815843Y-161209964D01*
X56877754Y-161242349D01*
X56897772Y-161267439D01*
X56899821Y-161270829D01*
X56917653Y-161338385D01*
X56899817Y-161399121D01*
X56826522Y-161520364D01*
X56775913Y-161682778D01*
X56771402Y-161732427D01*
X56769500Y-161753355D01*
X56769500Y-162416587D01*
X56771423Y-162437749D01*
X56775913Y-162487163D01*
X56826522Y-162649577D01*
X56899817Y-162770821D01*
X56917653Y-162838376D01*
X56899817Y-162899121D01*
X56826522Y-163020364D01*
X56775913Y-163182778D01*
X56769500Y-163253357D01*
X56769500Y-163916584D01*
X56775913Y-163987163D01*
X56775913Y-163987165D01*
X56775914Y-163987167D01*
X56826522Y-164149577D01*
X56912370Y-164291587D01*
X56914530Y-164295159D01*
X57034811Y-164415440D01*
X57034813Y-164415441D01*
X57034815Y-164415443D01*
X57180394Y-164503449D01*
X57342804Y-164554057D01*
X57413384Y-164560471D01*
X57413387Y-164560471D01*
X57926613Y-164560471D01*
X57926616Y-164560471D01*
X57997196Y-164554057D01*
X58159606Y-164503449D01*
X58160861Y-164502690D01*
X58161904Y-164502414D01*
X58166445Y-164500371D01*
X58166784Y-164501125D01*
X58228411Y-164484847D01*
X58294887Y-164506359D01*
X58339180Y-164560394D01*
X58347228Y-164629799D01*
X58342726Y-164647803D01*
X58329651Y-164687262D01*
X58319500Y-164786618D01*
X58319500Y-165383308D01*
X58319501Y-165383326D01*
X58329650Y-165482678D01*
X58329651Y-165482681D01*
X58382996Y-165643665D01*
X58383001Y-165643676D01*
X58472029Y-165788011D01*
X58472032Y-165788015D01*
X58591955Y-165907938D01*
X58591959Y-165907941D01*
X58736294Y-165996969D01*
X58736297Y-165996970D01*
X58736303Y-165996974D01*
X58897292Y-166050320D01*
X58996655Y-166060471D01*
X59543344Y-166060470D01*
X59543352Y-166060469D01*
X59543355Y-166060469D01*
X59606790Y-166053989D01*
X59642708Y-166050320D01*
X59803697Y-165996974D01*
X59948044Y-165907939D01*
X60067968Y-165788015D01*
X60079465Y-165769374D01*
X60131412Y-165722650D01*
X60185004Y-165710471D01*
X60928300Y-165710471D01*
X60995339Y-165730156D01*
X61041094Y-165782960D01*
X61051620Y-165847429D01*
X61034537Y-166009971D01*
X61054323Y-166198227D01*
X61054324Y-166198230D01*
X61112815Y-166378248D01*
X61112818Y-166378255D01*
X61207464Y-166542187D01*
X61326498Y-166674387D01*
X61334126Y-166682859D01*
X61487262Y-166794119D01*
X61487267Y-166794122D01*
X61660189Y-166871113D01*
X61660194Y-166871115D01*
X61845351Y-166910471D01*
X61879243Y-166910471D01*
X61946282Y-166930156D01*
X61966919Y-166946785D01*
X62240961Y-167220828D01*
X62343409Y-167289282D01*
X62457243Y-167336434D01*
X62578083Y-167360470D01*
X62578087Y-167360471D01*
X62578088Y-167360471D01*
X63301912Y-167360471D01*
X63362334Y-167348452D01*
X63422757Y-167336434D01*
X63422760Y-167336432D01*
X63422763Y-167336432D01*
X63456092Y-167322625D01*
X63456091Y-167322625D01*
X63456097Y-167322623D01*
X63536591Y-167289283D01*
X63587814Y-167255055D01*
X63639038Y-167220829D01*
X63726163Y-167133704D01*
X63726163Y-167133702D01*
X63736371Y-167123495D01*
X63736372Y-167123492D01*
X65050858Y-165809009D01*
X65119312Y-165706561D01*
X65166463Y-165592727D01*
X65179828Y-165525537D01*
X65190501Y-165471884D01*
X65190501Y-165343559D01*
X65190500Y-165343533D01*
X65190500Y-165145128D01*
X65210185Y-165078089D01*
X65262989Y-165032334D01*
X65332147Y-165022390D01*
X65395703Y-165051415D01*
X65402181Y-165057447D01*
X65768201Y-165423467D01*
X65801686Y-165484790D01*
X65803682Y-165525537D01*
X65802875Y-165532444D01*
X65802875Y-165532450D01*
X65802875Y-165702048D01*
X65828226Y-165809012D01*
X65841988Y-165867077D01*
X65913752Y-166009971D01*
X65918102Y-166018632D01*
X65981184Y-166096070D01*
X66403108Y-166517992D01*
X66480546Y-166581076D01*
X66480549Y-166581077D01*
X66480551Y-166581079D01*
X66632100Y-166657189D01*
X66632104Y-166657191D01*
X66797130Y-166696303D01*
X66797132Y-166696303D01*
X66966726Y-166696303D01*
X66966728Y-166696303D01*
X67131754Y-166657191D01*
X67283311Y-166581076D01*
X67360750Y-166517994D01*
X67747316Y-166131426D01*
X67810400Y-166053987D01*
X67886515Y-165902430D01*
X67925627Y-165737404D01*
X67925627Y-165567806D01*
X67886515Y-165402780D01*
X67810400Y-165251222D01*
X67747318Y-165173784D01*
X67325394Y-164751862D01*
X67247956Y-164688778D01*
X67247953Y-164688776D01*
X67247950Y-164688774D01*
X67096401Y-164612664D01*
X67096399Y-164612663D01*
X67096398Y-164612663D01*
X66931372Y-164573551D01*
X66761774Y-164573551D01*
X66761768Y-164573551D01*
X66754861Y-164574358D01*
X66685991Y-164562586D01*
X66652791Y-164538877D01*
X65951819Y-163837905D01*
X65918334Y-163776582D01*
X65915500Y-163750224D01*
X65915500Y-162479488D01*
X65935185Y-162412449D01*
X65947350Y-162396516D01*
X65968919Y-162372561D01*
X66022533Y-162313017D01*
X66117179Y-162149085D01*
X66175674Y-161969057D01*
X66195460Y-161780801D01*
X66175674Y-161592545D01*
X66117179Y-161412517D01*
X66022533Y-161248585D01*
X65908486Y-161121924D01*
X65895872Y-161107914D01*
X65816381Y-161050160D01*
X65773716Y-160994830D01*
X65767737Y-160925216D01*
X65800343Y-160863421D01*
X65801510Y-160862237D01*
X67526629Y-159137119D01*
X67587949Y-159103636D01*
X67657641Y-159108620D01*
X67713574Y-159150492D01*
X67737991Y-159215956D01*
X67729735Y-159270104D01*
X67662357Y-159441779D01*
X67662354Y-159441791D01*
X67602306Y-159704878D01*
X67582141Y-159973975D01*
X67582141Y-159973984D01*
X67602306Y-160243081D01*
X67662354Y-160506168D01*
X67662356Y-160506175D01*
X67754799Y-160741715D01*
X67760947Y-160757378D01*
X67895875Y-160991082D01*
X67997270Y-161118227D01*
X68064132Y-161202069D01*
X68211047Y-161338385D01*
X68261949Y-161385615D01*
X68484916Y-161537631D01*
X68728049Y-161654718D01*
X68985918Y-161734260D01*
X68985919Y-161734260D01*
X68985922Y-161734261D01*
X69252753Y-161774479D01*
X69252758Y-161774479D01*
X69252761Y-161774480D01*
X69252762Y-161774480D01*
X69522618Y-161774480D01*
X69522619Y-161774480D01*
X69522626Y-161774479D01*
X69789457Y-161734261D01*
X69789458Y-161734260D01*
X69789462Y-161734260D01*
X70047331Y-161654718D01*
X70290465Y-161537631D01*
X70513431Y-161385615D01*
X70667835Y-161242349D01*
X70711247Y-161202069D01*
X70711247Y-161202067D01*
X70711251Y-161202065D01*
X70879505Y-160991082D01*
X71014433Y-160757378D01*
X71113024Y-160506175D01*
X71173073Y-160243083D01*
X71186131Y-160068828D01*
X71193239Y-159973984D01*
X71193239Y-159973975D01*
X71173073Y-159704878D01*
X71168414Y-159684466D01*
X71113024Y-159441785D01*
X71014433Y-159190582D01*
X70879505Y-158956878D01*
X70711251Y-158745895D01*
X70711250Y-158745894D01*
X70711247Y-158745890D01*
X70513431Y-158562345D01*
X70290465Y-158410329D01*
X70290461Y-158410327D01*
X70290458Y-158410325D01*
X70290457Y-158410324D01*
X70047333Y-158293243D01*
X70047335Y-158293243D01*
X69789463Y-158213700D01*
X69789457Y-158213698D01*
X69522626Y-158173480D01*
X69522619Y-158173480D01*
X69252761Y-158173480D01*
X69252753Y-158173480D01*
X68985922Y-158213698D01*
X68985916Y-158213700D01*
X68728047Y-158293242D01*
X68695911Y-158308718D01*
X68626970Y-158320068D01*
X68562836Y-158292343D01*
X68523872Y-158234347D01*
X68522449Y-158164492D01*
X68554429Y-158109319D01*
X69359120Y-157304629D01*
X69420443Y-157271144D01*
X69446801Y-157268310D01*
X73498935Y-157268310D01*
X73565974Y-157287995D01*
X73586616Y-157304629D01*
X77530903Y-161248916D01*
X77564388Y-161310239D01*
X77559404Y-161379931D01*
X77517532Y-161435864D01*
X77452068Y-161460281D01*
X77406672Y-161455088D01*
X77214083Y-161395682D01*
X77214077Y-161395680D01*
X76947246Y-161355462D01*
X76947239Y-161355462D01*
X76677381Y-161355462D01*
X76677373Y-161355462D01*
X76410542Y-161395680D01*
X76410536Y-161395682D01*
X76152668Y-161475224D01*
X75909540Y-161592308D01*
X75686568Y-161744327D01*
X75488752Y-161927872D01*
X75320495Y-162138860D01*
X75185568Y-162372561D01*
X75185566Y-162372565D01*
X75086976Y-162623766D01*
X75086974Y-162623773D01*
X75026926Y-162886860D01*
X75006761Y-163155957D01*
X75006761Y-163155966D01*
X75026926Y-163425063D01*
X75086974Y-163688150D01*
X75086976Y-163688157D01*
X75185567Y-163939360D01*
X75320495Y-164173064D01*
X75417861Y-164295156D01*
X75488752Y-164384051D01*
X75620570Y-164506359D01*
X75686569Y-164567597D01*
X75909536Y-164719613D01*
X76152669Y-164836700D01*
X76410538Y-164916242D01*
X76410539Y-164916242D01*
X76410542Y-164916243D01*
X76677373Y-164956461D01*
X76677378Y-164956461D01*
X76677381Y-164956462D01*
X76677382Y-164956462D01*
X76947238Y-164956462D01*
X76947239Y-164956462D01*
X76947246Y-164956461D01*
X77214077Y-164916243D01*
X77214078Y-164916242D01*
X77214082Y-164916242D01*
X77471951Y-164836700D01*
X77715085Y-164719613D01*
X77938051Y-164567597D01*
X78135871Y-164384047D01*
X78304125Y-164173064D01*
X78439053Y-163939360D01*
X78537644Y-163688157D01*
X78597693Y-163425065D01*
X78604415Y-163335364D01*
X78617859Y-163155966D01*
X78617859Y-163155957D01*
X78598658Y-162899736D01*
X78597693Y-162886859D01*
X78537644Y-162623767D01*
X78439053Y-162372564D01*
X78304125Y-162138860D01*
X78159714Y-161957775D01*
X78133307Y-161893090D01*
X78146062Y-161824395D01*
X78193933Y-161773501D01*
X78256662Y-161756464D01*
X79320411Y-161756464D01*
X79387450Y-161776149D01*
X79421986Y-161809341D01*
X79557138Y-162002359D01*
X79557143Y-162002365D01*
X79724237Y-162169459D01*
X79821022Y-162237229D01*
X79917803Y-162304996D01*
X79917805Y-162304997D01*
X79917808Y-162304999D01*
X80131975Y-162404867D01*
X80360230Y-162466027D01*
X80548556Y-162482503D01*
X80595637Y-162486623D01*
X80595638Y-162486623D01*
X80595639Y-162486623D01*
X80634872Y-162483190D01*
X80831046Y-162466027D01*
X81059301Y-162404867D01*
X81273468Y-162304999D01*
X81467039Y-162169459D01*
X81634133Y-162002365D01*
X81769673Y-161808794D01*
X81869541Y-161594627D01*
X81930701Y-161366372D01*
X81951297Y-161130964D01*
X81930701Y-160895556D01*
X81869541Y-160667301D01*
X81769673Y-160453135D01*
X81730897Y-160397756D01*
X81634132Y-160259561D01*
X81467040Y-160092470D01*
X81467033Y-160092465D01*
X81273472Y-159956931D01*
X81273468Y-159956929D01*
X81217134Y-159930660D01*
X81059301Y-159857061D01*
X81059297Y-159857060D01*
X81059293Y-159857058D01*
X80831051Y-159795902D01*
X80831041Y-159795900D01*
X80595639Y-159775305D01*
X80595637Y-159775305D01*
X80360234Y-159795900D01*
X80360221Y-159795903D01*
X80259537Y-159822880D01*
X80189687Y-159821217D01*
X80131825Y-159782053D01*
X80104322Y-159717825D01*
X80107670Y-159671012D01*
X80118388Y-159631011D01*
X80134650Y-159570321D01*
X80155246Y-159334913D01*
X80134650Y-159099505D01*
X80073490Y-158871250D01*
X79973622Y-158657084D01*
X79973239Y-158656536D01*
X79955334Y-158630965D01*
X81790170Y-158630965D01*
X81810002Y-158857650D01*
X81810004Y-158857661D01*
X81868896Y-159077452D01*
X81868899Y-159077461D01*
X81965069Y-159283696D01*
X81965070Y-159283698D01*
X82095592Y-159470105D01*
X82256496Y-159631009D01*
X82256499Y-159631011D01*
X82442904Y-159761532D01*
X82649142Y-159857703D01*
X82868946Y-159916599D01*
X83029664Y-159930660D01*
X83095636Y-159936432D01*
X83095637Y-159936432D01*
X83095637Y-159936431D01*
X83095638Y-159936432D01*
X83161605Y-159930660D01*
X83230105Y-159944426D01*
X83280288Y-159993041D01*
X83296222Y-160061069D01*
X83295941Y-160064995D01*
X83290170Y-160130961D01*
X83290170Y-160130965D01*
X83310002Y-160357650D01*
X83310004Y-160357661D01*
X83368896Y-160577452D01*
X83368899Y-160577461D01*
X83465069Y-160783696D01*
X83465070Y-160783698D01*
X83595592Y-160970105D01*
X83756496Y-161131009D01*
X83756499Y-161131011D01*
X83942904Y-161261532D01*
X84149142Y-161357703D01*
X84149147Y-161357704D01*
X84149149Y-161357705D01*
X84181495Y-161366372D01*
X84368946Y-161416599D01*
X84530868Y-161430765D01*
X84595636Y-161436432D01*
X84595638Y-161436432D01*
X84595640Y-161436432D01*
X84652311Y-161431473D01*
X84822330Y-161416599D01*
X85042134Y-161357703D01*
X85248372Y-161261532D01*
X85434777Y-161131011D01*
X85595685Y-160970103D01*
X85726206Y-160783698D01*
X85822377Y-160577460D01*
X85881273Y-160357656D01*
X85901106Y-160130964D01*
X85881273Y-159904272D01*
X85822377Y-159684468D01*
X85726206Y-159478230D01*
X85595685Y-159291825D01*
X85595683Y-159291822D01*
X85434779Y-159130918D01*
X85248372Y-159000396D01*
X85248370Y-159000395D01*
X85042135Y-158904225D01*
X85042126Y-158904222D01*
X84822335Y-158845330D01*
X84822331Y-158845329D01*
X84822330Y-158845329D01*
X84822329Y-158845328D01*
X84822324Y-158845328D01*
X84595640Y-158825496D01*
X84595636Y-158825496D01*
X84529669Y-158831267D01*
X84461169Y-158817500D01*
X84410986Y-158768885D01*
X84395053Y-158700856D01*
X84395334Y-158696930D01*
X84395965Y-158689728D01*
X84401106Y-158630964D01*
X84381273Y-158404272D01*
X84322377Y-158184468D01*
X84226206Y-157978230D01*
X84095685Y-157791825D01*
X84095683Y-157791822D01*
X83934779Y-157630918D01*
X83748372Y-157500396D01*
X83748370Y-157500395D01*
X83542135Y-157404225D01*
X83542126Y-157404222D01*
X83322335Y-157345330D01*
X83322331Y-157345329D01*
X83322330Y-157345329D01*
X83322329Y-157345328D01*
X83322324Y-157345328D01*
X83095640Y-157325496D01*
X83095636Y-157325496D01*
X82868951Y-157345328D01*
X82868940Y-157345330D01*
X82649149Y-157404222D01*
X82649140Y-157404225D01*
X82442905Y-157500395D01*
X82442903Y-157500396D01*
X82256496Y-157630918D01*
X82095592Y-157791822D01*
X81965070Y-157978229D01*
X81965069Y-157978231D01*
X81868899Y-158184466D01*
X81868896Y-158184475D01*
X81810004Y-158404266D01*
X81810002Y-158404277D01*
X81790170Y-158630962D01*
X81790170Y-158630965D01*
X79955334Y-158630965D01*
X79838081Y-158463510D01*
X79670989Y-158296419D01*
X79670982Y-158296414D01*
X79666453Y-158293243D01*
X79632108Y-158269194D01*
X79477421Y-158160880D01*
X79477417Y-158160878D01*
X79440669Y-158143742D01*
X79333897Y-158093953D01*
X79281459Y-158047782D01*
X79262307Y-157980588D01*
X79282523Y-157913707D01*
X79311993Y-157882305D01*
X79393753Y-157821100D01*
X79393753Y-157821099D01*
X79393761Y-157821094D01*
X81321123Y-155893732D01*
X81357288Y-155853471D01*
X81373922Y-155832829D01*
X81405567Y-155788945D01*
X81465338Y-155658068D01*
X81479396Y-155610192D01*
X90599500Y-155610192D01*
X90633985Y-155827923D01*
X90702103Y-156037574D01*
X90702104Y-156037577D01*
X90754346Y-156140105D01*
X90795510Y-156220893D01*
X90802187Y-156233996D01*
X90931752Y-156412329D01*
X90931756Y-156412334D01*
X91087636Y-156568214D01*
X91087641Y-156568218D01*
X91143186Y-156608573D01*
X91265978Y-156697786D01*
X91361327Y-156746369D01*
X91462393Y-156797866D01*
X91462396Y-156797867D01*
X91567221Y-156831926D01*
X91672049Y-156865986D01*
X91889778Y-156900471D01*
X91889779Y-156900471D01*
X92110221Y-156900471D01*
X92110222Y-156900471D01*
X92327951Y-156865986D01*
X92537606Y-156797866D01*
X92734022Y-156697786D01*
X92912365Y-156568213D01*
X93068242Y-156412336D01*
X93197815Y-156233993D01*
X93297895Y-156037577D01*
X93366015Y-155827922D01*
X93400500Y-155610193D01*
X93400500Y-155389749D01*
X93366015Y-155172020D01*
X93297895Y-154962365D01*
X93297895Y-154962364D01*
X93263237Y-154894346D01*
X93197815Y-154765949D01*
X93181260Y-154743163D01*
X93068247Y-154587612D01*
X93068243Y-154587607D01*
X92912363Y-154431727D01*
X92912358Y-154431723D01*
X92734025Y-154302158D01*
X92734024Y-154302157D01*
X92734022Y-154302156D01*
X92671096Y-154270093D01*
X92537606Y-154202075D01*
X92537603Y-154202074D01*
X92327952Y-154133956D01*
X92219086Y-154116713D01*
X92110222Y-154099471D01*
X91889778Y-154099471D01*
X91817201Y-154110966D01*
X91672047Y-154133956D01*
X91462396Y-154202074D01*
X91462393Y-154202075D01*
X91265974Y-154302158D01*
X91087641Y-154431723D01*
X91087636Y-154431727D01*
X90931756Y-154587607D01*
X90931752Y-154587612D01*
X90802187Y-154765945D01*
X90702104Y-154962364D01*
X90702103Y-154962367D01*
X90633985Y-155172018D01*
X90599500Y-155389749D01*
X90599500Y-155610192D01*
X81479396Y-155610192D01*
X81485023Y-155591029D01*
X81485024Y-155591025D01*
X81505500Y-155448609D01*
X81505500Y-150749973D01*
X86494723Y-150749973D01*
X86513793Y-150967946D01*
X86513793Y-150967950D01*
X86570422Y-151179293D01*
X86570424Y-151179297D01*
X86570425Y-151179301D01*
X86616661Y-151278455D01*
X86662897Y-151377609D01*
X86662898Y-151377610D01*
X86788402Y-151556848D01*
X86943123Y-151711569D01*
X87122361Y-151837073D01*
X87320670Y-151929546D01*
X87532023Y-151986178D01*
X87714926Y-152002179D01*
X87749998Y-152005248D01*
X87750000Y-152005248D01*
X87750002Y-152005248D01*
X87778254Y-152002776D01*
X87967977Y-151986178D01*
X88179330Y-151929546D01*
X88377639Y-151837073D01*
X88556877Y-151711569D01*
X88711598Y-151556848D01*
X88837102Y-151377610D01*
X88929575Y-151179301D01*
X88986207Y-150967948D01*
X89005277Y-150749971D01*
X88986207Y-150531994D01*
X88929575Y-150320641D01*
X88837102Y-150122333D01*
X88837100Y-150122330D01*
X88837099Y-150122328D01*
X88711599Y-149943095D01*
X88711596Y-149943092D01*
X88556877Y-149788373D01*
X88377639Y-149662869D01*
X88377640Y-149662869D01*
X88377638Y-149662868D01*
X88278484Y-149616632D01*
X88179330Y-149570396D01*
X88179326Y-149570395D01*
X88179322Y-149570393D01*
X87967977Y-149513764D01*
X87750002Y-149494694D01*
X87749998Y-149494694D01*
X87604682Y-149507407D01*
X87532023Y-149513764D01*
X87532020Y-149513764D01*
X87320677Y-149570393D01*
X87320668Y-149570397D01*
X87122361Y-149662869D01*
X87122357Y-149662871D01*
X86943121Y-149788373D01*
X86788402Y-149943092D01*
X86662900Y-150122328D01*
X86662898Y-150122332D01*
X86570426Y-150320639D01*
X86570422Y-150320648D01*
X86513793Y-150531991D01*
X86513793Y-150531995D01*
X86494723Y-150749968D01*
X86494723Y-150749973D01*
X81505500Y-150749973D01*
X81505500Y-149623971D01*
X81493947Y-149516515D01*
X81482741Y-149465004D01*
X81482217Y-149463429D01*
X81448616Y-149362473D01*
X81448613Y-149362467D01*
X81370828Y-149241433D01*
X81370825Y-149241428D01*
X81370820Y-149241422D01*
X81325076Y-149188630D01*
X81325072Y-149188627D01*
X81325070Y-149188624D01*
X81216336Y-149094404D01*
X81216333Y-149094402D01*
X81216331Y-149094401D01*
X81085465Y-149034635D01*
X81085460Y-149034633D01*
X81085459Y-149034633D01*
X81060930Y-149027430D01*
X81018418Y-149014947D01*
X80926868Y-149001784D01*
X80863313Y-148972758D01*
X80825539Y-148913980D01*
X80821308Y-148884554D01*
X80820832Y-148884589D01*
X80819865Y-148871082D01*
X80810252Y-148736661D01*
X80759970Y-148601852D01*
X80726485Y-148540529D01*
X80640261Y-148425348D01*
X80640256Y-148425343D01*
X80640251Y-148425337D01*
X72893776Y-140678863D01*
X72893761Y-140678848D01*
X72893737Y-140678826D01*
X72853519Y-140642699D01*
X72853507Y-140642689D01*
X72832856Y-140626047D01*
X72788974Y-140594404D01*
X72658100Y-140534634D01*
X72591055Y-140514947D01*
X72521522Y-140504950D01*
X72448638Y-140494471D01*
X68624000Y-140494471D01*
X68556961Y-140474786D01*
X68511206Y-140421982D01*
X68500000Y-140370471D01*
X68500000Y-139081584D01*
X73424500Y-139081584D01*
X73430913Y-139152163D01*
X73430913Y-139152165D01*
X73430914Y-139152167D01*
X73481522Y-139314577D01*
X73565386Y-139453305D01*
X73569530Y-139460159D01*
X73689810Y-139580439D01*
X73689814Y-139580442D01*
X73689815Y-139580443D01*
X73690626Y-139580933D01*
X73714482Y-139595355D01*
X73761669Y-139646883D01*
X73773507Y-139715743D01*
X73746237Y-139780071D01*
X73742481Y-139784443D01*
X73667466Y-139867756D01*
X73572821Y-140031686D01*
X73572818Y-140031693D01*
X73533850Y-140151626D01*
X73514326Y-140211715D01*
X73494540Y-140399971D01*
X73514326Y-140588227D01*
X73514327Y-140588230D01*
X73572818Y-140768248D01*
X73572821Y-140768255D01*
X73667467Y-140932187D01*
X73725346Y-140996468D01*
X73794129Y-141072859D01*
X73947265Y-141184119D01*
X73947270Y-141184122D01*
X74120192Y-141261113D01*
X74120197Y-141261115D01*
X74305354Y-141300471D01*
X74305355Y-141300471D01*
X74494644Y-141300471D01*
X74494646Y-141300471D01*
X74679803Y-141261115D01*
X74852730Y-141184122D01*
X75005871Y-141072859D01*
X75132533Y-140932187D01*
X75227179Y-140768255D01*
X75285674Y-140588227D01*
X75305460Y-140399971D01*
X75285674Y-140211715D01*
X75227179Y-140031687D01*
X75132533Y-139867755D01*
X75057517Y-139784442D01*
X75027288Y-139721452D01*
X75035913Y-139652117D01*
X75080654Y-139598451D01*
X75085494Y-139595369D01*
X75110185Y-139580443D01*
X75124341Y-139566287D01*
X75212319Y-139478310D01*
X75273642Y-139444825D01*
X75343334Y-139449809D01*
X75387681Y-139478310D01*
X75489811Y-139580440D01*
X75489813Y-139580441D01*
X75489815Y-139580443D01*
X75635394Y-139668449D01*
X75797804Y-139719057D01*
X75868384Y-139725471D01*
X75868387Y-139725471D01*
X76531613Y-139725471D01*
X76531616Y-139725471D01*
X76602196Y-139719057D01*
X76764606Y-139668449D01*
X76910185Y-139580443D01*
X76924341Y-139566287D01*
X77003839Y-139486790D01*
X77065162Y-139453305D01*
X77091520Y-139450471D01*
X77108480Y-139450471D01*
X77175519Y-139470156D01*
X77196160Y-139486788D01*
X77228984Y-139519612D01*
X77262469Y-139580933D01*
X77257485Y-139650625D01*
X77228985Y-139694973D01*
X77177032Y-139746926D01*
X77177029Y-139746930D01*
X77088001Y-139891265D01*
X77087996Y-139891276D01*
X77034651Y-140052261D01*
X77024500Y-140151618D01*
X77024500Y-140698308D01*
X77024501Y-140698326D01*
X77034650Y-140797678D01*
X77034651Y-140797681D01*
X77087996Y-140958665D01*
X77088001Y-140958676D01*
X77177029Y-141103011D01*
X77177032Y-141103015D01*
X77296955Y-141222938D01*
X77296959Y-141222941D01*
X77441294Y-141311969D01*
X77441297Y-141311970D01*
X77441303Y-141311974D01*
X77602292Y-141365320D01*
X77701655Y-141375471D01*
X78298344Y-141375470D01*
X78298352Y-141375469D01*
X78298355Y-141375469D01*
X78352760Y-141369911D01*
X78397708Y-141365320D01*
X78558697Y-141311974D01*
X78703044Y-141222939D01*
X78822968Y-141103015D01*
X78822971Y-141103009D01*
X78827276Y-141097566D01*
X78884296Y-141057186D01*
X78924547Y-141050471D01*
X79123025Y-141050471D01*
X79190064Y-141070156D01*
X79195910Y-141074153D01*
X79347265Y-141184119D01*
X79347270Y-141184122D01*
X79520192Y-141261113D01*
X79520197Y-141261115D01*
X79705354Y-141300471D01*
X79705355Y-141300471D01*
X79894644Y-141300471D01*
X79894646Y-141300471D01*
X80079803Y-141261115D01*
X80252730Y-141184122D01*
X80405871Y-141072859D01*
X80532533Y-140932187D01*
X80627179Y-140768255D01*
X80685674Y-140588227D01*
X80705460Y-140399971D01*
X80685674Y-140211715D01*
X80627179Y-140031687D01*
X80532533Y-139867755D01*
X80457517Y-139784442D01*
X80427288Y-139721452D01*
X80435913Y-139652117D01*
X80480654Y-139598451D01*
X80485493Y-139595369D01*
X80510185Y-139580443D01*
X80630472Y-139460156D01*
X80718478Y-139314577D01*
X80769086Y-139152167D01*
X80775500Y-139081587D01*
X80775500Y-138568355D01*
X80769086Y-138497775D01*
X80718478Y-138335365D01*
X80630472Y-138189786D01*
X80630470Y-138189784D01*
X80630469Y-138189782D01*
X80510188Y-138069501D01*
X80364606Y-137981493D01*
X80339318Y-137973613D01*
X80202196Y-137930885D01*
X80202194Y-137930884D01*
X80202192Y-137930884D01*
X80152778Y-137926394D01*
X80131616Y-137924471D01*
X79468384Y-137924471D01*
X79449145Y-137926219D01*
X79397807Y-137930884D01*
X79235393Y-137981493D01*
X79089811Y-138069501D01*
X79089810Y-138069502D01*
X78987681Y-138171632D01*
X78926358Y-138205117D01*
X78856666Y-138200133D01*
X78812319Y-138171632D01*
X78710188Y-138069501D01*
X78564606Y-137981493D01*
X78539318Y-137973613D01*
X78402196Y-137930885D01*
X78402194Y-137930884D01*
X78402192Y-137930884D01*
X78352778Y-137926394D01*
X78331616Y-137924471D01*
X77668384Y-137924471D01*
X77649145Y-137926219D01*
X77597807Y-137930884D01*
X77435393Y-137981493D01*
X77289811Y-138069501D01*
X77289810Y-138069502D01*
X77196161Y-138163152D01*
X77134838Y-138196637D01*
X77108480Y-138199471D01*
X77091520Y-138199471D01*
X77024481Y-138179786D01*
X77003839Y-138163152D01*
X76928339Y-138087652D01*
X76894854Y-138026329D01*
X76899838Y-137956637D01*
X76928339Y-137912290D01*
X77030468Y-137810160D01*
X77030469Y-137810159D01*
X77030472Y-137810156D01*
X77118478Y-137664577D01*
X77169086Y-137502167D01*
X77175500Y-137431587D01*
X77175500Y-136918355D01*
X77169086Y-136847775D01*
X77118478Y-136685365D01*
X77030472Y-136539786D01*
X77030470Y-136539784D01*
X77030469Y-136539782D01*
X76910188Y-136419501D01*
X76764606Y-136331493D01*
X76602196Y-136280885D01*
X76602194Y-136280884D01*
X76602192Y-136280884D01*
X76552778Y-136276394D01*
X76531616Y-136274471D01*
X75868384Y-136274471D01*
X75849145Y-136276219D01*
X75797807Y-136280884D01*
X75635393Y-136331493D01*
X75489811Y-136419501D01*
X75489810Y-136419502D01*
X75396161Y-136513152D01*
X75334838Y-136546637D01*
X75308480Y-136549471D01*
X75291520Y-136549471D01*
X75224481Y-136529786D01*
X75203839Y-136513152D01*
X75110188Y-136419501D01*
X74964606Y-136331493D01*
X74802196Y-136280885D01*
X74802194Y-136280884D01*
X74802192Y-136280884D01*
X74752778Y-136276394D01*
X74731616Y-136274471D01*
X74068384Y-136274471D01*
X74049145Y-136276219D01*
X73997807Y-136280884D01*
X73835393Y-136331493D01*
X73689811Y-136419501D01*
X73569530Y-136539782D01*
X73481522Y-136685364D01*
X73430913Y-136847778D01*
X73424500Y-136918357D01*
X73424500Y-137431584D01*
X73430913Y-137502163D01*
X73430913Y-137502165D01*
X73430914Y-137502167D01*
X73441871Y-137537330D01*
X73481522Y-137664577D01*
X73569530Y-137810159D01*
X73671661Y-137912290D01*
X73705146Y-137973613D01*
X73700162Y-138043305D01*
X73671661Y-138087652D01*
X73569531Y-138189781D01*
X73569530Y-138189782D01*
X73481522Y-138335364D01*
X73430913Y-138497778D01*
X73424500Y-138568357D01*
X73424500Y-139081584D01*
X68500000Y-139081584D01*
X68500000Y-134083308D01*
X77019500Y-134083308D01*
X77019501Y-134083326D01*
X77029650Y-134182678D01*
X77029651Y-134182681D01*
X77082996Y-134343665D01*
X77083001Y-134343676D01*
X77172029Y-134488011D01*
X77172032Y-134488015D01*
X77291955Y-134607938D01*
X77291959Y-134607941D01*
X77436294Y-134696969D01*
X77436297Y-134696970D01*
X77436303Y-134696974D01*
X77597292Y-134750320D01*
X77696655Y-134760471D01*
X78293344Y-134760470D01*
X78293352Y-134760469D01*
X78293355Y-134760469D01*
X78347760Y-134754911D01*
X78392708Y-134750320D01*
X78553697Y-134696974D01*
X78698044Y-134607939D01*
X78817968Y-134488015D01*
X78817968Y-134488014D01*
X78819194Y-134486789D01*
X78880517Y-134453305D01*
X78906875Y-134450471D01*
X80296252Y-134450471D01*
X80363291Y-134470156D01*
X80388400Y-134491497D01*
X80394126Y-134497856D01*
X80394130Y-134497860D01*
X80547265Y-134609119D01*
X80547270Y-134609122D01*
X80720192Y-134686113D01*
X80720197Y-134686115D01*
X80905354Y-134725471D01*
X80905355Y-134725471D01*
X81094644Y-134725471D01*
X81094646Y-134725471D01*
X81279803Y-134686115D01*
X81452730Y-134609122D01*
X81605871Y-134497859D01*
X81732533Y-134357187D01*
X81827179Y-134193255D01*
X81885674Y-134013227D01*
X81905460Y-133824971D01*
X81885674Y-133636715D01*
X81831112Y-133468794D01*
X81827181Y-133456693D01*
X81827180Y-133456692D01*
X81827179Y-133456687D01*
X81732533Y-133292755D01*
X81605871Y-133152083D01*
X81605870Y-133152082D01*
X81452734Y-133040822D01*
X81452729Y-133040819D01*
X81279807Y-132963828D01*
X81279802Y-132963826D01*
X81134001Y-132932836D01*
X81094646Y-132924471D01*
X80905354Y-132924471D01*
X80872897Y-132931369D01*
X80720197Y-132963826D01*
X80720192Y-132963828D01*
X80547270Y-133040819D01*
X80547265Y-133040822D01*
X80394130Y-133152081D01*
X80394126Y-133152085D01*
X80388400Y-133158445D01*
X80328913Y-133195092D01*
X80296252Y-133199471D01*
X78928836Y-133199471D01*
X78861797Y-133179786D01*
X78823297Y-133140567D01*
X78817968Y-133131927D01*
X78698044Y-133012003D01*
X78698040Y-133012000D01*
X78553705Y-132922972D01*
X78553699Y-132922969D01*
X78553697Y-132922968D01*
X78553694Y-132922967D01*
X78392709Y-132869622D01*
X78293346Y-132859471D01*
X77696662Y-132859471D01*
X77696644Y-132859472D01*
X77597292Y-132869621D01*
X77597289Y-132869622D01*
X77436305Y-132922967D01*
X77436294Y-132922972D01*
X77291959Y-133012000D01*
X77291955Y-133012003D01*
X77172032Y-133131926D01*
X77172029Y-133131930D01*
X77083001Y-133276265D01*
X77082996Y-133276276D01*
X77029651Y-133437261D01*
X77019500Y-133536618D01*
X77019500Y-134083308D01*
X68500000Y-134083308D01*
X68500000Y-124081584D01*
X76024500Y-124081584D01*
X76030913Y-124152163D01*
X76030913Y-124152165D01*
X76030914Y-124152167D01*
X76061187Y-124249317D01*
X76081522Y-124314577D01*
X76169530Y-124460159D01*
X76289811Y-124580440D01*
X76289813Y-124580441D01*
X76289815Y-124580443D01*
X76435394Y-124668449D01*
X76597804Y-124719057D01*
X76668384Y-124725471D01*
X76964548Y-124725471D01*
X77031587Y-124745156D01*
X77052229Y-124761790D01*
X77686016Y-125395577D01*
X77686045Y-125395608D01*
X77776260Y-125485823D01*
X77779158Y-125488201D01*
X77780269Y-125489832D01*
X77780574Y-125490137D01*
X77780516Y-125490194D01*
X77818497Y-125545944D01*
X77824500Y-125584060D01*
X77824500Y-126123308D01*
X77824501Y-126123326D01*
X77834650Y-126222678D01*
X77834651Y-126222681D01*
X77887996Y-126383665D01*
X77888001Y-126383676D01*
X77977029Y-126528011D01*
X77977032Y-126528015D01*
X78096955Y-126647938D01*
X78096959Y-126647941D01*
X78241294Y-126736969D01*
X78241297Y-126736970D01*
X78241303Y-126736974D01*
X78402292Y-126790320D01*
X78501655Y-126800471D01*
X79048344Y-126800470D01*
X79048352Y-126800469D01*
X79048355Y-126800469D01*
X79102760Y-126794911D01*
X79147708Y-126790320D01*
X79308697Y-126736974D01*
X79453044Y-126647939D01*
X79572968Y-126528015D01*
X79584465Y-126509374D01*
X79636412Y-126462650D01*
X79690004Y-126450471D01*
X81261912Y-126450471D01*
X81322334Y-126438452D01*
X81382757Y-126426434D01*
X81382760Y-126426432D01*
X81382763Y-126426432D01*
X81416092Y-126412625D01*
X81416091Y-126412625D01*
X81416097Y-126412623D01*
X81496591Y-126379283D01*
X81547814Y-126345055D01*
X81599038Y-126310829D01*
X81686163Y-126223704D01*
X81686164Y-126223702D01*
X81693230Y-126216636D01*
X81693233Y-126216632D01*
X82123729Y-125786136D01*
X82123733Y-125786134D01*
X82210858Y-125699009D01*
X82279311Y-125596562D01*
X82279312Y-125596561D01*
X82308280Y-125526626D01*
X82326463Y-125482728D01*
X82343176Y-125398704D01*
X82350500Y-125361883D01*
X82350500Y-125238669D01*
X82350500Y-124488365D01*
X82326463Y-124367519D01*
X82302981Y-124310828D01*
X82279312Y-124253686D01*
X82276393Y-124249317D01*
X82255515Y-124182640D01*
X82273999Y-124115260D01*
X82291805Y-124092754D01*
X82447772Y-123936787D01*
X82509095Y-123903305D01*
X82535452Y-123900471D01*
X82594644Y-123900471D01*
X82594646Y-123900471D01*
X82779803Y-123861115D01*
X82952730Y-123784122D01*
X83105871Y-123672859D01*
X83232533Y-123532187D01*
X83327179Y-123368255D01*
X83385674Y-123188227D01*
X83405460Y-122999971D01*
X83385674Y-122811715D01*
X83327179Y-122631687D01*
X83232533Y-122467755D01*
X83105871Y-122327083D01*
X83105870Y-122327082D01*
X82952734Y-122215822D01*
X82952729Y-122215819D01*
X82779807Y-122138828D01*
X82779802Y-122138826D01*
X82634001Y-122107836D01*
X82594646Y-122099471D01*
X82405354Y-122099471D01*
X82372897Y-122106369D01*
X82220197Y-122138826D01*
X82220192Y-122138828D01*
X82047270Y-122215819D01*
X82047265Y-122215822D01*
X81894129Y-122327082D01*
X81767466Y-122467756D01*
X81672821Y-122631686D01*
X81672818Y-122631693D01*
X81614327Y-122811710D01*
X81614325Y-122811720D01*
X81611279Y-122840695D01*
X81584693Y-122905308D01*
X81527394Y-122945291D01*
X81457575Y-122947949D01*
X81451097Y-122946123D01*
X81402196Y-122930885D01*
X81402194Y-122930884D01*
X81402192Y-122930884D01*
X81352778Y-122926394D01*
X81331616Y-122924471D01*
X80668384Y-122924471D01*
X80649145Y-122926219D01*
X80597807Y-122930884D01*
X80435393Y-122981493D01*
X80289811Y-123069501D01*
X80169531Y-123189781D01*
X80169528Y-123189785D01*
X80106116Y-123294681D01*
X80054588Y-123341868D01*
X79985729Y-123353706D01*
X79921400Y-123326437D01*
X79893884Y-123294681D01*
X79830471Y-123189785D01*
X79830468Y-123189781D01*
X79710188Y-123069501D01*
X79564606Y-122981493D01*
X79456957Y-122947949D01*
X79402196Y-122930885D01*
X79402194Y-122930884D01*
X79402192Y-122930884D01*
X79352778Y-122926394D01*
X79331616Y-122924471D01*
X79331613Y-122924471D01*
X78860453Y-122924471D01*
X78793414Y-122904786D01*
X78772772Y-122888152D01*
X78011819Y-122127199D01*
X77978334Y-122065876D01*
X77975500Y-122039518D01*
X77975500Y-121918357D01*
X77969086Y-121847778D01*
X77969086Y-121847775D01*
X77918478Y-121685365D01*
X77830472Y-121539786D01*
X77830470Y-121539784D01*
X77830469Y-121539782D01*
X77726355Y-121435668D01*
X77692870Y-121374345D01*
X77697854Y-121304653D01*
X77739726Y-121248720D01*
X77752675Y-121240968D01*
X77752550Y-121240766D01*
X77854859Y-121177660D01*
X77903044Y-121147939D01*
X78022968Y-121028015D01*
X78112003Y-120883668D01*
X78165349Y-120722679D01*
X78175500Y-120623316D01*
X78175499Y-120026627D01*
X78172480Y-119997077D01*
X78185249Y-119928387D01*
X78233129Y-119877502D01*
X78270057Y-119863186D01*
X78279803Y-119861115D01*
X78279805Y-119861113D01*
X78279808Y-119861113D01*
X78387025Y-119813376D01*
X78452730Y-119784122D01*
X78605871Y-119672859D01*
X78732533Y-119532187D01*
X78827179Y-119368255D01*
X78885674Y-119188227D01*
X78905460Y-118999971D01*
X78885674Y-118811715D01*
X78827179Y-118631687D01*
X78732533Y-118467755D01*
X78605871Y-118327083D01*
X78600894Y-118323467D01*
X78452734Y-118215822D01*
X78452729Y-118215819D01*
X78279807Y-118138828D01*
X78279802Y-118138826D01*
X78134001Y-118107836D01*
X78094646Y-118099471D01*
X77905354Y-118099471D01*
X77872897Y-118106369D01*
X77720197Y-118138826D01*
X77720192Y-118138828D01*
X77547270Y-118215819D01*
X77547265Y-118215822D01*
X77394129Y-118327082D01*
X77267466Y-118467756D01*
X77172821Y-118631686D01*
X77172818Y-118631693D01*
X77122875Y-118785404D01*
X77114326Y-118811715D01*
X77096679Y-118979621D01*
X77070094Y-119044235D01*
X77061039Y-119054340D01*
X76826269Y-119289111D01*
X76826267Y-119289113D01*
X76782703Y-119332676D01*
X76739140Y-119376239D01*
X76737859Y-119377801D01*
X76736608Y-119378771D01*
X76734834Y-119380546D01*
X76734610Y-119380322D01*
X76697443Y-119409167D01*
X76697449Y-119409177D01*
X76697360Y-119409231D01*
X76694417Y-119411516D01*
X76691300Y-119412969D01*
X76546959Y-119502000D01*
X76546955Y-119502003D01*
X76427032Y-119621926D01*
X76427029Y-119621930D01*
X76338001Y-119766265D01*
X76337996Y-119766276D01*
X76284651Y-119927261D01*
X76274500Y-120026618D01*
X76274500Y-120623308D01*
X76274501Y-120623326D01*
X76284650Y-120722678D01*
X76284651Y-120722681D01*
X76337996Y-120883665D01*
X76338001Y-120883676D01*
X76427029Y-121028011D01*
X76427032Y-121028015D01*
X76515354Y-121116337D01*
X76548839Y-121177660D01*
X76543855Y-121247352D01*
X76501983Y-121303285D01*
X76464564Y-121322403D01*
X76435396Y-121331492D01*
X76289811Y-121419501D01*
X76169530Y-121539782D01*
X76081522Y-121685364D01*
X76030913Y-121847778D01*
X76024500Y-121918357D01*
X76024500Y-122431584D01*
X76030913Y-122502163D01*
X76081522Y-122664577D01*
X76169530Y-122810159D01*
X76271661Y-122912290D01*
X76305146Y-122973613D01*
X76300162Y-123043305D01*
X76271661Y-123087652D01*
X76169531Y-123189781D01*
X76169530Y-123189782D01*
X76081522Y-123335364D01*
X76030913Y-123497778D01*
X76024500Y-123568357D01*
X76024500Y-124081584D01*
X68500000Y-124081584D01*
X68500000Y-121299971D01*
X55500000Y-121299971D01*
X55500000Y-140370471D01*
X55480315Y-140437510D01*
X55427511Y-140483265D01*
X55376000Y-140494471D01*
X51268896Y-140494471D01*
X51201857Y-140474786D01*
X51156102Y-140421982D01*
X51144922Y-140367935D01*
X51161286Y-139568814D01*
X51161364Y-139566287D01*
X51241303Y-137615161D01*
X51241432Y-137612646D01*
X51263766Y-137249492D01*
X51361304Y-135663493D01*
X51361473Y-135661133D01*
X51521227Y-133714793D01*
X51521443Y-133712452D01*
X51721010Y-131769791D01*
X51721292Y-131767302D01*
X51960581Y-129829197D01*
X51960901Y-129826811D01*
X52239828Y-127893938D01*
X52240201Y-127891531D01*
X52558623Y-125964883D01*
X52559041Y-125962501D01*
X52916868Y-124042619D01*
X52917322Y-124040318D01*
X53314353Y-122128290D01*
X53314892Y-122125822D01*
X53347161Y-121984971D01*
X53750999Y-120222253D01*
X53751550Y-120219959D01*
X54182842Y-118499972D01*
X65994390Y-118499972D01*
X66014804Y-118785404D01*
X66075628Y-119065008D01*
X66175635Y-119333137D01*
X66312770Y-119584280D01*
X66312775Y-119584288D01*
X66484254Y-119813358D01*
X66484270Y-119813376D01*
X66686594Y-120015700D01*
X66686612Y-120015716D01*
X66915682Y-120187195D01*
X66915690Y-120187200D01*
X67166833Y-120324335D01*
X67166832Y-120324335D01*
X67166836Y-120324336D01*
X67166839Y-120324338D01*
X67434954Y-120424340D01*
X67434960Y-120424341D01*
X67434962Y-120424342D01*
X67714566Y-120485166D01*
X67714568Y-120485166D01*
X67714572Y-120485167D01*
X67968220Y-120503308D01*
X67999999Y-120505581D01*
X68000000Y-120505581D01*
X68000001Y-120505581D01*
X68028595Y-120503535D01*
X68285428Y-120485167D01*
X68565046Y-120424340D01*
X68833161Y-120324338D01*
X69084315Y-120187197D01*
X69313395Y-120015710D01*
X69515739Y-119813366D01*
X69687226Y-119584286D01*
X69824367Y-119333132D01*
X69924369Y-119065017D01*
X69985196Y-118785399D01*
X70005610Y-118499971D01*
X69985196Y-118214543D01*
X69968725Y-118138828D01*
X69924371Y-117934933D01*
X69924370Y-117934931D01*
X69924369Y-117934925D01*
X69824367Y-117666810D01*
X69687226Y-117415656D01*
X69687224Y-117415653D01*
X69515745Y-117186583D01*
X69515729Y-117186565D01*
X69313405Y-116984241D01*
X69313387Y-116984225D01*
X69084317Y-116812746D01*
X69084309Y-116812741D01*
X68833166Y-116675606D01*
X68833167Y-116675606D01*
X68725915Y-116635603D01*
X68565046Y-116575602D01*
X68565043Y-116575601D01*
X68565037Y-116575599D01*
X68285433Y-116514775D01*
X68000001Y-116494361D01*
X67999999Y-116494361D01*
X67714566Y-116514775D01*
X67434962Y-116575599D01*
X67166833Y-116675606D01*
X66915690Y-116812741D01*
X66915682Y-116812746D01*
X66686612Y-116984225D01*
X66686594Y-116984241D01*
X66484270Y-117186565D01*
X66484254Y-117186583D01*
X66312775Y-117415653D01*
X66312770Y-117415661D01*
X66175635Y-117666804D01*
X66075628Y-117934933D01*
X66014804Y-118214537D01*
X65994390Y-118499969D01*
X65994390Y-118499972D01*
X54182842Y-118499972D01*
X54226534Y-118325730D01*
X54227126Y-118323467D01*
X54668122Y-116705905D01*
X59430854Y-116705905D01*
X59430855Y-116705911D01*
X59437262Y-116765518D01*
X59487556Y-116900363D01*
X59487560Y-116900370D01*
X59573806Y-117015579D01*
X59573809Y-117015582D01*
X59689018Y-117101828D01*
X59689025Y-117101832D01*
X59823871Y-117152126D01*
X59823870Y-117152126D01*
X59830798Y-117152870D01*
X59883481Y-117158535D01*
X61979226Y-117158534D01*
X62038837Y-117152126D01*
X62173685Y-117101831D01*
X62288900Y-117015581D01*
X62375150Y-116900366D01*
X62425445Y-116765518D01*
X62431854Y-116705908D01*
X62431853Y-114610163D01*
X62425445Y-114550552D01*
X62375150Y-114415704D01*
X62375149Y-114415703D01*
X62375147Y-114415699D01*
X62288901Y-114300490D01*
X62288898Y-114300487D01*
X62173689Y-114214241D01*
X62173682Y-114214237D01*
X62038836Y-114163943D01*
X62038837Y-114163943D01*
X61979237Y-114157536D01*
X61979235Y-114157535D01*
X61979227Y-114157535D01*
X61979218Y-114157535D01*
X59883483Y-114157535D01*
X59883477Y-114157536D01*
X59823870Y-114163943D01*
X59689025Y-114214237D01*
X59689018Y-114214241D01*
X59573809Y-114300487D01*
X59573806Y-114300490D01*
X59487560Y-114415699D01*
X59487556Y-114415706D01*
X59437262Y-114550552D01*
X59430855Y-114610151D01*
X59430855Y-114610158D01*
X59430854Y-114610170D01*
X59430854Y-116705905D01*
X54668122Y-116705905D01*
X54740821Y-116439247D01*
X54741456Y-116437009D01*
X55293592Y-114563790D01*
X55294305Y-114561458D01*
X55884703Y-112699844D01*
X55885361Y-112697834D01*
X56197024Y-111772996D01*
X56197445Y-111771775D01*
X56268892Y-111568847D01*
X56272405Y-111559979D01*
X56446424Y-111165845D01*
X56451253Y-111156093D01*
X56658996Y-110779395D01*
X56664676Y-110770091D01*
X56904784Y-110413172D01*
X56911268Y-110404396D01*
X57181867Y-110070031D01*
X57189093Y-110061867D01*
X57488113Y-109752619D01*
X57496027Y-109745126D01*
X57821107Y-109463434D01*
X57829666Y-109456654D01*
X58178308Y-109204684D01*
X58187419Y-109198693D01*
X58556899Y-108978414D01*
X58566504Y-108973248D01*
X58953943Y-108786376D01*
X58963975Y-108782072D01*
X59366372Y-108630053D01*
X59376710Y-108626660D01*
X59790971Y-108510667D01*
X59801585Y-108508194D01*
X60224415Y-108429150D01*
X60235197Y-108427622D01*
X60663349Y-108386131D01*
X60674265Y-108385557D01*
X61104414Y-108381940D01*
X61115300Y-108382330D01*
X61544091Y-108416618D01*
X61554905Y-108417964D01*
X61979007Y-108489889D01*
X61989666Y-108492183D01*
X62335316Y-108582727D01*
X62405779Y-108601185D01*
X62416223Y-108604419D01*
X62821105Y-108749646D01*
X62831223Y-108753788D01*
X63221720Y-108934107D01*
X63231430Y-108939121D01*
X63604552Y-109153151D01*
X63613787Y-109159004D01*
X63939380Y-109386083D01*
X63966579Y-109405052D01*
X63975262Y-109411695D01*
X64305546Y-109688311D01*
X64312644Y-109694738D01*
X64466410Y-109845169D01*
X64467376Y-109846125D01*
X66941997Y-112320748D01*
X67026986Y-112402449D01*
X67026999Y-112402459D01*
X67154143Y-112494816D01*
X67217719Y-112540998D01*
X67427769Y-112648007D01*
X67489394Y-112668027D01*
X67651961Y-112720843D01*
X67651966Y-112720843D01*
X67651970Y-112720845D01*
X67884805Y-112757720D01*
X67884816Y-112757720D01*
X68120542Y-112757724D01*
X68353378Y-112720858D01*
X68577582Y-112648027D01*
X68787636Y-112541026D01*
X68978368Y-112402488D01*
X69063322Y-112320751D01*
X69589416Y-111794658D01*
X71905129Y-111794658D01*
X71944464Y-112043014D01*
X72022171Y-112282168D01*
X72136331Y-112506217D01*
X72284126Y-112709641D01*
X72284130Y-112709646D01*
X72461940Y-112887456D01*
X72461945Y-112887460D01*
X72588996Y-112979767D01*
X72665373Y-113035258D01*
X72785267Y-113096347D01*
X72889418Y-113149415D01*
X72889420Y-113149415D01*
X72889423Y-113149417D01*
X73017612Y-113191068D01*
X73128572Y-113227122D01*
X73376929Y-113266458D01*
X73628392Y-113266458D01*
X73628397Y-113266458D01*
X73876753Y-113227122D01*
X73887642Y-113223584D01*
X74115903Y-113149417D01*
X74339953Y-113035258D01*
X74543387Y-112887455D01*
X74721194Y-112709648D01*
X74868997Y-112506214D01*
X74983156Y-112282164D01*
X75060861Y-112043014D01*
X75100197Y-111794653D01*
X75102663Y-111668924D01*
X75100197Y-111543195D01*
X75060861Y-111294834D01*
X74983156Y-111055684D01*
X74983154Y-111055681D01*
X74983154Y-111055679D01*
X74964794Y-111019646D01*
X85561112Y-111019646D01*
X85594366Y-111229602D01*
X85660055Y-111431771D01*
X85756561Y-111621175D01*
X85881508Y-111793150D01*
X86031821Y-111943463D01*
X86203796Y-112068410D01*
X86393200Y-112164916D01*
X86595369Y-112230605D01*
X86805325Y-112263859D01*
X86805326Y-112263859D01*
X87001632Y-112263859D01*
X87068671Y-112283544D01*
X87114426Y-112336348D01*
X87124370Y-112405506D01*
X87122289Y-112416456D01*
X87080351Y-112593398D01*
X87080350Y-112593409D01*
X87080350Y-112768843D01*
X87080351Y-112768854D01*
X87120809Y-112939557D01*
X87120811Y-112939560D01*
X87199548Y-113096341D01*
X87199553Y-113096347D01*
X87239405Y-113145268D01*
X87266485Y-113209676D01*
X87267267Y-113223584D01*
X87267267Y-140137055D01*
X87304213Y-140370326D01*
X87377200Y-140594954D01*
X87429871Y-140698326D01*
X87484424Y-140805392D01*
X87623250Y-140996468D01*
X96589430Y-149962649D01*
X96763813Y-150089345D01*
X96780507Y-150101474D01*
X96879931Y-150152133D01*
X96990943Y-150208697D01*
X96990945Y-150208697D01*
X96990948Y-150208699D01*
X97079490Y-150237468D01*
X97215571Y-150281684D01*
X97448843Y-150318631D01*
X97448848Y-150318631D01*
X98248721Y-150318631D01*
X98315760Y-150338316D01*
X98354260Y-150377535D01*
X98359965Y-150386785D01*
X98484021Y-150510841D01*
X98484025Y-150510844D01*
X98633339Y-150602943D01*
X98633341Y-150602944D01*
X98633343Y-150602945D01*
X98799880Y-150658130D01*
X98902669Y-150668631D01*
X98902674Y-150668631D01*
X101202680Y-150668631D01*
X101202685Y-150668631D01*
X101305474Y-150658130D01*
X101472011Y-150602945D01*
X101621332Y-150510842D01*
X101745388Y-150386786D01*
X101837491Y-150237465D01*
X101892676Y-150070928D01*
X101903177Y-149968139D01*
X101903177Y-147668123D01*
X101892676Y-147565334D01*
X101837491Y-147398797D01*
X101745388Y-147249476D01*
X101621332Y-147125420D01*
X101621328Y-147125417D01*
X101472014Y-147033318D01*
X101472012Y-147033317D01*
X101388742Y-147005724D01*
X101305474Y-146978132D01*
X101305472Y-146978131D01*
X101202692Y-146967631D01*
X101202685Y-146967631D01*
X98902669Y-146967631D01*
X98902661Y-146967631D01*
X98799881Y-146978131D01*
X98799880Y-146978132D01*
X98633341Y-147033317D01*
X98633339Y-147033318D01*
X98484025Y-147125417D01*
X98484021Y-147125420D01*
X98359965Y-147249476D01*
X98354260Y-147258727D01*
X98302313Y-147305452D01*
X98248721Y-147317631D01*
X98239830Y-147317631D01*
X98172791Y-147297946D01*
X98152149Y-147281312D01*
X90304586Y-139433749D01*
X90271101Y-139372426D01*
X90268267Y-139346068D01*
X90268267Y-135499971D01*
X91144778Y-135499971D01*
X91163644Y-135787808D01*
X91163646Y-135787820D01*
X91219917Y-136070716D01*
X91219921Y-136070731D01*
X91312642Y-136343876D01*
X91440219Y-136602577D01*
X91440223Y-136602584D01*
X91600478Y-136842423D01*
X91790672Y-137059298D01*
X92007546Y-137249491D01*
X92247389Y-137409749D01*
X92506098Y-137537330D01*
X92779247Y-137630052D01*
X93062161Y-137686327D01*
X93350000Y-137705193D01*
X93637839Y-137686327D01*
X93920753Y-137630052D01*
X94193902Y-137537330D01*
X94452611Y-137409749D01*
X94692454Y-137249491D01*
X94909327Y-137059298D01*
X95099520Y-136842425D01*
X95259778Y-136602582D01*
X95387359Y-136343873D01*
X95480081Y-136070724D01*
X95536356Y-135787810D01*
X95555222Y-135499971D01*
X95536356Y-135212132D01*
X95480081Y-134929218D01*
X95387359Y-134656069D01*
X95259778Y-134397360D01*
X95232934Y-134357185D01*
X95099521Y-134157518D01*
X94909327Y-133940643D01*
X94692452Y-133750449D01*
X94452613Y-133590194D01*
X94452606Y-133590190D01*
X94193905Y-133462613D01*
X93920760Y-133369892D01*
X93920754Y-133369890D01*
X93920753Y-133369890D01*
X93920751Y-133369889D01*
X93920745Y-133369888D01*
X93637849Y-133313617D01*
X93637839Y-133313615D01*
X93350000Y-133294749D01*
X93062161Y-133313615D01*
X93062155Y-133313616D01*
X93062150Y-133313617D01*
X92779254Y-133369888D01*
X92779239Y-133369892D01*
X92506094Y-133462613D01*
X92247393Y-133590190D01*
X92247386Y-133590194D01*
X92007547Y-133750449D01*
X91790672Y-133940643D01*
X91600478Y-134157518D01*
X91440223Y-134397357D01*
X91440219Y-134397364D01*
X91312642Y-134656065D01*
X91219921Y-134929210D01*
X91219917Y-134929225D01*
X91163646Y-135212121D01*
X91163644Y-135212133D01*
X91144778Y-135499971D01*
X90268267Y-135499971D01*
X90268267Y-129610192D01*
X90599500Y-129610192D01*
X90633985Y-129827923D01*
X90702103Y-130037574D01*
X90702104Y-130037577D01*
X90770122Y-130171067D01*
X90797317Y-130224440D01*
X90802187Y-130233996D01*
X90931752Y-130412329D01*
X90931756Y-130412334D01*
X91087636Y-130568214D01*
X91087641Y-130568218D01*
X91243192Y-130681231D01*
X91265978Y-130697786D01*
X91394375Y-130763208D01*
X91462393Y-130797866D01*
X91462396Y-130797867D01*
X91567221Y-130831926D01*
X91672049Y-130865986D01*
X91889778Y-130900471D01*
X91889779Y-130900471D01*
X92110221Y-130900471D01*
X92110222Y-130900471D01*
X92327951Y-130865986D01*
X92537606Y-130797866D01*
X92734022Y-130697786D01*
X92912365Y-130568213D01*
X93068242Y-130412336D01*
X93197815Y-130233993D01*
X93297895Y-130037577D01*
X93366015Y-129827922D01*
X93400500Y-129610193D01*
X93400500Y-129389749D01*
X93366015Y-129172020D01*
X93331955Y-129067192D01*
X93297896Y-128962367D01*
X93297895Y-128962364D01*
X93247292Y-128863052D01*
X93197815Y-128765949D01*
X93166634Y-128723032D01*
X93068247Y-128587612D01*
X93068243Y-128587607D01*
X92912363Y-128431727D01*
X92912358Y-128431723D01*
X92734025Y-128302158D01*
X92734024Y-128302157D01*
X92734022Y-128302156D01*
X92671096Y-128270093D01*
X92537606Y-128202075D01*
X92537603Y-128202074D01*
X92327952Y-128133956D01*
X92219086Y-128116713D01*
X92110222Y-128099471D01*
X91889778Y-128099471D01*
X91817201Y-128110966D01*
X91672047Y-128133956D01*
X91462396Y-128202074D01*
X91462393Y-128202075D01*
X91265974Y-128302158D01*
X91087641Y-128431723D01*
X91087636Y-128431727D01*
X90931756Y-128587607D01*
X90931752Y-128587612D01*
X90802187Y-128765945D01*
X90702104Y-128962364D01*
X90702103Y-128962367D01*
X90633985Y-129172018D01*
X90599500Y-129389749D01*
X90599500Y-129610192D01*
X90268267Y-129610192D01*
X90268267Y-124799470D01*
X90287952Y-124732431D01*
X90340756Y-124686676D01*
X90392267Y-124675470D01*
X91775003Y-124675470D01*
X91775009Y-124675470D01*
X91877798Y-124664970D01*
X92044335Y-124609785D01*
X92193657Y-124517683D01*
X92317713Y-124393627D01*
X92409815Y-124244305D01*
X92465000Y-124077768D01*
X92475501Y-123974980D01*
X92475500Y-122674963D01*
X92465000Y-122572174D01*
X92409815Y-122405637D01*
X92317713Y-122256315D01*
X92193657Y-122132259D01*
X92044335Y-122040157D01*
X91877798Y-121984972D01*
X91877796Y-121984971D01*
X91775017Y-121974471D01*
X91775010Y-121974471D01*
X90392267Y-121974471D01*
X90325228Y-121954786D01*
X90279473Y-121901982D01*
X90268267Y-121850471D01*
X90268267Y-113046806D01*
X90287952Y-112979767D01*
X90296124Y-112968495D01*
X90335986Y-112919564D01*
X90414723Y-112762783D01*
X90455184Y-112592070D01*
X90455184Y-112416629D01*
X90448508Y-112388461D01*
X90414724Y-112245918D01*
X90406932Y-112230403D01*
X90335986Y-112089135D01*
X90270729Y-112009028D01*
X90013119Y-111751419D01*
X90000483Y-111736624D01*
X89912286Y-111615231D01*
X89912281Y-111615225D01*
X89745279Y-111448223D01*
X89745273Y-111448218D01*
X89623876Y-111360018D01*
X89609080Y-111347381D01*
X89351485Y-111089785D01*
X89351476Y-111089777D01*
X89333249Y-111074929D01*
X89271370Y-111024519D01*
X89261665Y-111019645D01*
X89114586Y-110945780D01*
X88943883Y-110905322D01*
X88943878Y-110905321D01*
X88943876Y-110905321D01*
X88768435Y-110905321D01*
X88768433Y-110905321D01*
X88768427Y-110905322D01*
X88591485Y-110947259D01*
X88521713Y-110943566D01*
X88465014Y-110902737D01*
X88439389Y-110837736D01*
X88438888Y-110826602D01*
X88438888Y-110630296D01*
X88422678Y-110527953D01*
X88405634Y-110420340D01*
X88339945Y-110218171D01*
X88243439Y-110028767D01*
X88118492Y-109856792D01*
X87968179Y-109706479D01*
X87796204Y-109581532D01*
X87606800Y-109485026D01*
X87404631Y-109419337D01*
X87404629Y-109419336D01*
X87404628Y-109419336D01*
X87243345Y-109393791D01*
X87194675Y-109386083D01*
X86982101Y-109386083D01*
X86933430Y-109393791D01*
X86772148Y-109419336D01*
X86569973Y-109485027D01*
X86380571Y-109581532D01*
X86208594Y-109706481D01*
X85881510Y-110033565D01*
X85756561Y-110205542D01*
X85660056Y-110394944D01*
X85594365Y-110597119D01*
X85566971Y-110770078D01*
X85561112Y-110807072D01*
X85561112Y-111019646D01*
X74964794Y-111019646D01*
X74926029Y-110943566D01*
X74868997Y-110831634D01*
X74824274Y-110770078D01*
X74721199Y-110628206D01*
X74721195Y-110628201D01*
X74543385Y-110450391D01*
X74543380Y-110450387D01*
X74339956Y-110302592D01*
X74339955Y-110302591D01*
X74339953Y-110302590D01*
X74269985Y-110266939D01*
X74115907Y-110188432D01*
X73876753Y-110110725D01*
X73628397Y-110071390D01*
X73628392Y-110071390D01*
X73376934Y-110071390D01*
X73376929Y-110071390D01*
X73128572Y-110110725D01*
X72889418Y-110188432D01*
X72665369Y-110302592D01*
X72461945Y-110450387D01*
X72461940Y-110450391D01*
X72284130Y-110628201D01*
X72284126Y-110628206D01*
X72136331Y-110831630D01*
X72022171Y-111055679D01*
X71944464Y-111294833D01*
X71905129Y-111543189D01*
X71905129Y-111794658D01*
X69589416Y-111794658D01*
X70081802Y-111302273D01*
X70165527Y-111215997D01*
X70307155Y-111021749D01*
X70415996Y-110807402D01*
X70454903Y-110693649D01*
X70506748Y-110538616D01*
X70510873Y-110527953D01*
X70642475Y-110229602D01*
X70648378Y-110217934D01*
X70810306Y-109935863D01*
X70817415Y-109924871D01*
X71008203Y-109661458D01*
X71016438Y-109651268D01*
X71233950Y-109409460D01*
X71243193Y-109400217D01*
X71485016Y-109182697D01*
X71495195Y-109174472D01*
X71520881Y-109155869D01*
X71758612Y-108983689D01*
X71769608Y-108976579D01*
X72051683Y-108814653D01*
X72063345Y-108808754D01*
X72361703Y-108677154D01*
X72372366Y-108673029D01*
X72527388Y-108621164D01*
X72640029Y-108582727D01*
X72852405Y-108475314D01*
X73045158Y-108335716D01*
X73130902Y-108253173D01*
X76998605Y-104385469D01*
X80052289Y-104385469D01*
X80091624Y-104633825D01*
X80169331Y-104872979D01*
X80283491Y-105097028D01*
X80431286Y-105300452D01*
X80431290Y-105300457D01*
X80609100Y-105478267D01*
X80609105Y-105478271D01*
X80786543Y-105607186D01*
X80812533Y-105626069D01*
X80955297Y-105698811D01*
X81036578Y-105740226D01*
X81036580Y-105740226D01*
X81036583Y-105740228D01*
X81164772Y-105781879D01*
X81275732Y-105817933D01*
X81524089Y-105857269D01*
X81775552Y-105857269D01*
X81775557Y-105857269D01*
X82023913Y-105817933D01*
X82263063Y-105740228D01*
X82487113Y-105626069D01*
X82690547Y-105478266D01*
X82868354Y-105300459D01*
X83016157Y-105097025D01*
X83130316Y-104872975D01*
X83208021Y-104633825D01*
X83247357Y-104385464D01*
X83249823Y-104259735D01*
X83247357Y-104134006D01*
X83208021Y-103885645D01*
X83130316Y-103646495D01*
X83130314Y-103646492D01*
X83130314Y-103646490D01*
X83088899Y-103565209D01*
X83016157Y-103422445D01*
X82997274Y-103396455D01*
X82868359Y-103219017D01*
X82868355Y-103219012D01*
X82690545Y-103041202D01*
X82690540Y-103041198D01*
X82487116Y-102893403D01*
X82487115Y-102893402D01*
X82487113Y-102893401D01*
X82417145Y-102857750D01*
X82263067Y-102779243D01*
X82023913Y-102701536D01*
X81775557Y-102662201D01*
X81775552Y-102662201D01*
X81524094Y-102662201D01*
X81524089Y-102662201D01*
X81275732Y-102701536D01*
X81036578Y-102779243D01*
X80812529Y-102893403D01*
X80609105Y-103041198D01*
X80609100Y-103041202D01*
X80431290Y-103219012D01*
X80431286Y-103219017D01*
X80283491Y-103422441D01*
X80169331Y-103646490D01*
X80091624Y-103885644D01*
X80052289Y-104134000D01*
X80052289Y-104385469D01*
X76998605Y-104385469D01*
X79386495Y-101997579D01*
X79387594Y-101996495D01*
X79511450Y-101876076D01*
X79520561Y-101868048D01*
X79791165Y-101652268D01*
X79802482Y-101644239D01*
X80094787Y-101460586D01*
X80106954Y-101453863D01*
X80417988Y-101304086D01*
X80430823Y-101298769D01*
X80756674Y-101184758D01*
X80770008Y-101180916D01*
X81106581Y-101104101D01*
X81120268Y-101101775D01*
X81463308Y-101063125D01*
X81477191Y-101062346D01*
X81822401Y-101062346D01*
X81836283Y-101063126D01*
G37*
%TD.AperFunction*%
%TA.AperFunction,Conductor*%
G36*
X64747587Y-158025156D02*
G01*
X64793342Y-158077960D01*
X64803286Y-158147118D01*
X64774261Y-158210674D01*
X64768229Y-158217152D01*
X62992229Y-159993152D01*
X62930906Y-160026637D01*
X62904548Y-160029471D01*
X62845354Y-160029471D01*
X62812897Y-160036369D01*
X62660197Y-160068826D01*
X62660192Y-160068828D01*
X62487270Y-160145819D01*
X62487265Y-160145822D01*
X62334129Y-160257082D01*
X62207466Y-160397756D01*
X62112821Y-160561686D01*
X62112818Y-160561693D01*
X62078502Y-160667308D01*
X62054326Y-160741715D01*
X62034540Y-160929971D01*
X62054326Y-161118227D01*
X62096682Y-161248586D01*
X62112463Y-161297153D01*
X62114458Y-161366994D01*
X62078378Y-161426827D01*
X62015677Y-161457655D01*
X61994532Y-161459471D01*
X60196602Y-161459471D01*
X60129563Y-161439786D01*
X60090486Y-161399622D01*
X60075471Y-161374785D01*
X60075468Y-161374781D01*
X59955188Y-161254501D01*
X59945949Y-161248916D01*
X59809606Y-161166493D01*
X59647196Y-161115885D01*
X59647194Y-161115884D01*
X59647192Y-161115884D01*
X59597778Y-161111394D01*
X59576616Y-161109471D01*
X59576613Y-161109471D01*
X59244500Y-161109471D01*
X59177461Y-161089786D01*
X59131706Y-161036982D01*
X59120500Y-160985471D01*
X59120500Y-159965422D01*
X59140185Y-159898383D01*
X59156815Y-159877745D01*
X59901480Y-159133079D01*
X59962801Y-159099596D01*
X60029420Y-159103480D01*
X60055019Y-159112269D01*
X60283951Y-159150471D01*
X60283952Y-159150471D01*
X60516048Y-159150471D01*
X60516049Y-159150471D01*
X60744981Y-159112269D01*
X60964503Y-159036907D01*
X61168626Y-158926441D01*
X61351784Y-158783884D01*
X61508979Y-158613124D01*
X61635924Y-158418820D01*
X61729157Y-158206271D01*
X61731528Y-158196908D01*
X61756314Y-158099031D01*
X61791854Y-158038875D01*
X61854274Y-158007483D01*
X61876520Y-158005471D01*
X61877913Y-158005471D01*
X64680548Y-158005471D01*
X64747587Y-158025156D01*
G37*
%TD.AperFunction*%
%TA.AperFunction,Conductor*%
G36*
X76314306Y-156648396D02*
G01*
X76325155Y-156653042D01*
X76388905Y-156684010D01*
X76443664Y-156710611D01*
X76585552Y-156734471D01*
X76655402Y-156736134D01*
X76798262Y-156719054D01*
X76845758Y-156706327D01*
X76867036Y-156702575D01*
X76992738Y-156691577D01*
X77014339Y-156691577D01*
X77140021Y-156702573D01*
X77161293Y-156706324D01*
X77283163Y-156738977D01*
X77303472Y-156746369D01*
X77417821Y-156799691D01*
X77436527Y-156810490D01*
X77539879Y-156882858D01*
X77556431Y-156896747D01*
X77645644Y-156985958D01*
X77659539Y-157002517D01*
X77731897Y-157105856D01*
X77742704Y-157124574D01*
X77796022Y-157238914D01*
X77803415Y-157259226D01*
X77836068Y-157381092D01*
X77839821Y-157402371D01*
X77842313Y-157430844D01*
X77857098Y-157515677D01*
X77857098Y-157515680D01*
X77867828Y-157556368D01*
X77867832Y-157556383D01*
X77896802Y-157637472D01*
X77896803Y-157637476D01*
X77974587Y-157758508D01*
X77974595Y-157758519D01*
X78020339Y-157811311D01*
X78020342Y-157811314D01*
X78020346Y-157811318D01*
X78129080Y-157905538D01*
X78157609Y-157918567D01*
X78210412Y-157964321D01*
X78230097Y-158031360D01*
X78210413Y-158098400D01*
X78158503Y-158143742D01*
X78121764Y-158160874D01*
X78121756Y-158160878D01*
X77928184Y-158296418D01*
X77761092Y-158463510D01*
X77625935Y-158656536D01*
X77571358Y-158700161D01*
X77524360Y-158709413D01*
X77448339Y-158709413D01*
X77381300Y-158689728D01*
X77360658Y-158673094D01*
X76593101Y-157905537D01*
X75818960Y-157131397D01*
X75785476Y-157070075D01*
X75790460Y-157000383D01*
X75832332Y-156944450D01*
X75854225Y-156931341D01*
X75885314Y-156916845D01*
X76078885Y-156781305D01*
X76183295Y-156676894D01*
X76244614Y-156643412D01*
X76314306Y-156648396D01*
G37*
%TD.AperFunction*%
%TA.AperFunction,Conductor*%
G36*
X61238038Y-154334656D02*
G01*
X61283793Y-154387460D01*
X61294999Y-154438971D01*
X61294999Y-156025540D01*
X61275314Y-156092579D01*
X61228166Y-156135576D01*
X61202239Y-156149045D01*
X61149334Y-156180771D01*
X61149330Y-156180774D01*
X61043486Y-156278210D01*
X61043474Y-156278222D01*
X61000300Y-156331183D01*
X60999477Y-156332167D01*
X60999327Y-156332374D01*
X60979945Y-156364624D01*
X60928539Y-156411943D01*
X60859710Y-156423958D01*
X60833401Y-156418027D01*
X60744984Y-156387673D01*
X60573282Y-156359021D01*
X60516049Y-156349471D01*
X60283951Y-156349471D01*
X60251246Y-156354928D01*
X60055013Y-156387673D01*
X59967867Y-156417591D01*
X59898069Y-156420741D01*
X59837648Y-156385654D01*
X59818776Y-156359741D01*
X59798509Y-156322626D01*
X59798508Y-156322625D01*
X59798507Y-156322623D01*
X59696775Y-156220893D01*
X59696770Y-156220888D01*
X59696764Y-156220883D01*
X59696760Y-156220880D01*
X59640836Y-156179017D01*
X59640834Y-156179015D01*
X59569574Y-156140105D01*
X59520168Y-156090700D01*
X59505000Y-156031273D01*
X59505000Y-154438971D01*
X59524685Y-154371932D01*
X59577489Y-154326177D01*
X59629000Y-154314971D01*
X61170999Y-154314971D01*
X61238038Y-154334656D01*
G37*
%TD.AperFunction*%
%TD*%
%TA.AperFunction,Conductor*%
%TO.N,V_RAW*%
G36*
X80943039Y-149519656D02*
G01*
X80988794Y-149572460D01*
X81000000Y-149623971D01*
X81000000Y-155448609D01*
X80980315Y-155515648D01*
X80963681Y-155536290D01*
X79036319Y-157463652D01*
X78974996Y-157497137D01*
X78948638Y-157499971D01*
X78469416Y-157499971D01*
X78402377Y-157480286D01*
X78356622Y-157427482D01*
X78345888Y-157386778D01*
X78338598Y-157303458D01*
X78338598Y-157303453D01*
X78277438Y-157075198D01*
X78177570Y-156861032D01*
X78123533Y-156783858D01*
X78042029Y-156667458D01*
X77874937Y-156500367D01*
X77874930Y-156500362D01*
X77681369Y-156364828D01*
X77681365Y-156364826D01*
X77576784Y-156316059D01*
X77467198Y-156264958D01*
X77467194Y-156264957D01*
X77467190Y-156264955D01*
X77238948Y-156203799D01*
X77238938Y-156203797D01*
X77003536Y-156183202D01*
X77003534Y-156183202D01*
X76768131Y-156203797D01*
X76768118Y-156203800D01*
X76667434Y-156230777D01*
X76597584Y-156229114D01*
X76539722Y-156189950D01*
X76512219Y-156125722D01*
X76515567Y-156078909D01*
X76542547Y-155978218D01*
X76563143Y-155742810D01*
X76542547Y-155507402D01*
X76481387Y-155279147D01*
X76381519Y-155064981D01*
X76353868Y-155025490D01*
X76245978Y-154871407D01*
X76078886Y-154704316D01*
X76078879Y-154704311D01*
X75885318Y-154568777D01*
X75885314Y-154568775D01*
X75671147Y-154468907D01*
X75671143Y-154468906D01*
X75671139Y-154468904D01*
X75442897Y-154407748D01*
X75442887Y-154407746D01*
X75207485Y-154387151D01*
X75207482Y-154387151D01*
X75164436Y-154390917D01*
X75095936Y-154377150D01*
X75045753Y-154328535D01*
X75029820Y-154260506D01*
X75040835Y-154215877D01*
X75061278Y-154171115D01*
X75098680Y-154089216D01*
X75119161Y-153946759D01*
X75098680Y-153804302D01*
X75041112Y-153678248D01*
X75038893Y-153673388D01*
X75038892Y-153673387D01*
X75038892Y-153673386D01*
X75001273Y-153626703D01*
X75001268Y-153626698D01*
X75001264Y-153626693D01*
X73731492Y-152356924D01*
X73731486Y-152356919D01*
X73731482Y-152356915D01*
X73684806Y-152319299D01*
X73553892Y-152259512D01*
X73553888Y-152259511D01*
X73411433Y-152239031D01*
X73268977Y-152259511D01*
X73268973Y-152259512D01*
X73138062Y-152319298D01*
X73091367Y-152356927D01*
X72163358Y-153284940D01*
X72102035Y-153318425D01*
X72075677Y-153321259D01*
X69861601Y-153321259D01*
X69801183Y-153333277D01*
X69763471Y-153340778D01*
X69740762Y-153345295D01*
X69740760Y-153345296D01*
X69707419Y-153359106D01*
X69626931Y-153392443D01*
X69626917Y-153392451D01*
X69524484Y-153460897D01*
X69524476Y-153460903D01*
X69450597Y-153534783D01*
X69437354Y-153548026D01*
X69437351Y-153548029D01*
X65979204Y-157006177D01*
X65521729Y-157463652D01*
X65460406Y-157497137D01*
X65434048Y-157499971D01*
X61877913Y-157499971D01*
X61810874Y-157480286D01*
X61765119Y-157427482D01*
X61757707Y-157406411D01*
X61729157Y-157293670D01*
X61635924Y-157081122D01*
X61508983Y-156886823D01*
X61508980Y-156886820D01*
X61508979Y-156886818D01*
X61414195Y-156783855D01*
X61383275Y-156721203D01*
X61391135Y-156651777D01*
X61435283Y-156597622D01*
X61462095Y-156583693D01*
X61542326Y-156553769D01*
X61542326Y-156553768D01*
X61542331Y-156553767D01*
X61657546Y-156467517D01*
X61743796Y-156352302D01*
X61794091Y-156217454D01*
X61800500Y-156157844D01*
X61800499Y-154262099D01*
X61794091Y-154202488D01*
X61751843Y-154089216D01*
X61743797Y-154067642D01*
X61743793Y-154067635D01*
X61657547Y-153952426D01*
X61657544Y-153952423D01*
X61542335Y-153866177D01*
X61542328Y-153866173D01*
X61407482Y-153815879D01*
X61407483Y-153815879D01*
X61347883Y-153809472D01*
X61347881Y-153809471D01*
X61347873Y-153809471D01*
X61347864Y-153809471D01*
X59452129Y-153809471D01*
X59452123Y-153809472D01*
X59392516Y-153815879D01*
X59257671Y-153866173D01*
X59257664Y-153866177D01*
X59142455Y-153952423D01*
X59142452Y-153952426D01*
X59056206Y-154067635D01*
X59056202Y-154067642D01*
X59005908Y-154202488D01*
X58999671Y-154260506D01*
X58999501Y-154262094D01*
X58999500Y-154262106D01*
X58999500Y-156157841D01*
X58999501Y-156157847D01*
X59005908Y-156217454D01*
X59056202Y-156352299D01*
X59056206Y-156352306D01*
X59142452Y-156467515D01*
X59142455Y-156467518D01*
X59257664Y-156553764D01*
X59257673Y-156553769D01*
X59337904Y-156583693D01*
X59393838Y-156625564D01*
X59418256Y-156691028D01*
X59403405Y-156759301D01*
X59385802Y-156783857D01*
X59291019Y-156886820D01*
X59164075Y-157081122D01*
X59070842Y-157293670D01*
X59042293Y-157406411D01*
X59006753Y-157466567D01*
X58944333Y-157497959D01*
X58922087Y-157499971D01*
X54842076Y-157499971D01*
X54816296Y-157497261D01*
X54779646Y-157489471D01*
X54590354Y-157489471D01*
X54590353Y-157489471D01*
X54553704Y-157497261D01*
X54527924Y-157499971D01*
X52410071Y-157499971D01*
X52343032Y-157480286D01*
X52297277Y-157427482D01*
X52287731Y-157396191D01*
X52240209Y-157108655D01*
X52239820Y-157106146D01*
X52208170Y-156886820D01*
X51960903Y-155173343D01*
X51960580Y-155170931D01*
X51730816Y-153309971D01*
X55049540Y-153309971D01*
X55069326Y-153498227D01*
X55069327Y-153498230D01*
X55127818Y-153678248D01*
X55127821Y-153678255D01*
X55222467Y-153842187D01*
X55321724Y-153952423D01*
X55349129Y-153982859D01*
X55502265Y-154094119D01*
X55502270Y-154094122D01*
X55675192Y-154171113D01*
X55675197Y-154171115D01*
X55860354Y-154210471D01*
X55919548Y-154210471D01*
X55986587Y-154230156D01*
X56007229Y-154246790D01*
X56118181Y-154357742D01*
X56151666Y-154419065D01*
X56154500Y-154445423D01*
X56154500Y-154958451D01*
X56134815Y-155025490D01*
X56118181Y-155046132D01*
X56024531Y-155139781D01*
X56024530Y-155139782D01*
X55936522Y-155285364D01*
X55885913Y-155447778D01*
X55879500Y-155518357D01*
X55879500Y-156181584D01*
X55885913Y-156252163D01*
X55936522Y-156414577D01*
X56024530Y-156560159D01*
X56144811Y-156680440D01*
X56144813Y-156680441D01*
X56144815Y-156680443D01*
X56290394Y-156768449D01*
X56452804Y-156819057D01*
X56523384Y-156825471D01*
X56523387Y-156825471D01*
X57036613Y-156825471D01*
X57036616Y-156825471D01*
X57107196Y-156819057D01*
X57269606Y-156768449D01*
X57415185Y-156680443D01*
X57535472Y-156560156D01*
X57623478Y-156414577D01*
X57674086Y-156252167D01*
X57680500Y-156181587D01*
X57680500Y-155518355D01*
X57674086Y-155447775D01*
X57623478Y-155285365D01*
X57535472Y-155139786D01*
X57535470Y-155139784D01*
X57535469Y-155139782D01*
X57441819Y-155046132D01*
X57408334Y-154984809D01*
X57405500Y-154958451D01*
X57405500Y-154073364D01*
X57405499Y-154073360D01*
X57381464Y-153952526D01*
X57381463Y-153952519D01*
X57334311Y-153838685D01*
X57334310Y-153838684D01*
X57334307Y-153838678D01*
X57265858Y-153736238D01*
X57265855Y-153736234D01*
X57175637Y-153646016D01*
X57175606Y-153645987D01*
X56927270Y-153397651D01*
X56893785Y-153336328D01*
X56898769Y-153266636D01*
X56927268Y-153222291D01*
X57005393Y-153144166D01*
X57066714Y-153110683D01*
X57136406Y-153115667D01*
X57192339Y-153157539D01*
X57198611Y-153166752D01*
X57200186Y-153169305D01*
X57292288Y-153318627D01*
X57416344Y-153442683D01*
X57565666Y-153534785D01*
X57732203Y-153589970D01*
X57834991Y-153600471D01*
X58635008Y-153600470D01*
X58635016Y-153600469D01*
X58635019Y-153600469D01*
X58691302Y-153594719D01*
X58737797Y-153589970D01*
X58904334Y-153534785D01*
X59053656Y-153442683D01*
X59177712Y-153318627D01*
X59269814Y-153169305D01*
X59324999Y-153002768D01*
X59335500Y-152899980D01*
X59335499Y-151099963D01*
X59324999Y-150997174D01*
X59269814Y-150830637D01*
X59177712Y-150681315D01*
X59053656Y-150557259D01*
X58904334Y-150465157D01*
X58737797Y-150409972D01*
X58737795Y-150409971D01*
X58635010Y-150399471D01*
X57834998Y-150399471D01*
X57834980Y-150399472D01*
X57732203Y-150409971D01*
X57732200Y-150409972D01*
X57565668Y-150465156D01*
X57565663Y-150465158D01*
X57416342Y-150557260D01*
X57292289Y-150681313D01*
X57200187Y-150830634D01*
X57200186Y-150830637D01*
X57145001Y-150997174D01*
X57145001Y-150997175D01*
X57145000Y-150997175D01*
X57134500Y-151099954D01*
X57134500Y-151294134D01*
X57114815Y-151361173D01*
X57062011Y-151406928D01*
X57057955Y-151408694D01*
X57043303Y-151414762D01*
X57035397Y-151418038D01*
X57013169Y-151427245D01*
X56968713Y-151445659D01*
X56958557Y-151452446D01*
X56958449Y-151452518D01*
X56866268Y-151514111D01*
X56822705Y-151557674D01*
X56779142Y-151601238D01*
X56779139Y-151601241D01*
X56007229Y-152373152D01*
X55945906Y-152406637D01*
X55919548Y-152409471D01*
X55860354Y-152409471D01*
X55827897Y-152416369D01*
X55675197Y-152448826D01*
X55675192Y-152448828D01*
X55502270Y-152525819D01*
X55502265Y-152525822D01*
X55349129Y-152637082D01*
X55222466Y-152777756D01*
X55127821Y-152941686D01*
X55127818Y-152941693D01*
X55071291Y-153115667D01*
X55069326Y-153121715D01*
X55049540Y-153309971D01*
X51730816Y-153309971D01*
X51721290Y-153232819D01*
X51721008Y-153230317D01*
X51521444Y-151287698D01*
X51521226Y-151285339D01*
X51385695Y-149634113D01*
X51399829Y-149565690D01*
X51448713Y-149515769D01*
X51509279Y-149499971D01*
X80876000Y-149499971D01*
X80943039Y-149519656D01*
G37*
%TD.AperFunction*%
%TD*%
%TA.AperFunction,Conductor*%
%TO.N,Net-(Q1-D)*%
G36*
X72515677Y-141019656D02*
G01*
X72536319Y-141036290D01*
X80282819Y-148782790D01*
X80316304Y-148844113D01*
X80311320Y-148913805D01*
X80269448Y-148969738D01*
X80203984Y-148994155D01*
X80195138Y-148994471D01*
X51509278Y-148994471D01*
X51472990Y-148999125D01*
X51403991Y-148988128D01*
X51351891Y-148941574D01*
X51333450Y-148883746D01*
X51241431Y-147387478D01*
X51241302Y-147384959D01*
X51161364Y-145433853D01*
X51161286Y-145431316D01*
X51121308Y-143478980D01*
X51121282Y-143476441D01*
X51121282Y-141523699D01*
X51121308Y-141521160D01*
X51129493Y-141121432D01*
X51150546Y-141054810D01*
X51204275Y-141010146D01*
X51253467Y-140999971D01*
X72448638Y-140999971D01*
X72515677Y-141019656D01*
G37*
%TD.AperFunction*%
%TD*%
M02*
