%TF.GenerationSoftware,KiCad,Pcbnew,8.0.1*%
%TF.CreationDate,2024-04-28T23:39:04+09:00*%
%TF.ProjectId,Power-20240325,506f7765-722d-4323-9032-34303332352e,rev?*%
%TF.SameCoordinates,Original*%
%TF.FileFunction,Legend,Top*%
%TF.FilePolarity,Positive*%
%FSLAX46Y46*%
G04 Gerber Fmt 4.6, Leading zero omitted, Abs format (unit mm)*
G04 Created by KiCad (PCBNEW 8.0.1) date 2024-04-28 23:39:04*
%MOMM*%
%LPD*%
G01*
G04 APERTURE LIST*
G04 Aperture macros list*
%AMRoundRect*
0 Rectangle with rounded corners*
0 $1 Rounding radius*
0 $2 $3 $4 $5 $6 $7 $8 $9 X,Y pos of 4 corners*
0 Add a 4 corners polygon primitive as box body*
4,1,4,$2,$3,$4,$5,$6,$7,$8,$9,$2,$3,0*
0 Add four circle primitives for the rounded corners*
1,1,$1+$1,$2,$3*
1,1,$1+$1,$4,$5*
1,1,$1+$1,$6,$7*
1,1,$1+$1,$8,$9*
0 Add four rect primitives between the rounded corners*
20,1,$1+$1,$2,$3,$4,$5,0*
20,1,$1+$1,$4,$5,$6,$7,0*
20,1,$1+$1,$6,$7,$8,$9,0*
20,1,$1+$1,$8,$9,$2,$3,0*%
%AMHorizOval*
0 Thick line with rounded ends*
0 $1 width*
0 $2 $3 position (X,Y) of the first rounded end (center of the circle)*
0 $4 $5 position (X,Y) of the second rounded end (center of the circle)*
0 Add line between two ends*
20,1,$1,$2,$3,$4,$5,0*
0 Add two circle primitives to create the rounded ends*
1,1,$1,$2,$3*
1,1,$1,$4,$5*%
%AMRotRect*
0 Rectangle, with rotation*
0 The origin of the aperture is its center*
0 $1 length*
0 $2 width*
0 $3 Rotation angle, in degrees counterclockwise*
0 Add horizontal line*
21,1,$1,$2,0,0,$3*%
%AMFreePoly0*
4,1,9,3.862500,-0.866500,0.737500,-0.866500,0.737500,-0.450000,-0.737500,-0.450000,-0.737500,0.450000,0.737500,0.450000,0.737500,0.866500,3.862500,0.866500,3.862500,-0.866500,3.862500,-0.866500,$1*%
G04 Aperture macros list end*
%ADD10C,0.150000*%
%ADD11C,0.120000*%
%ADD12C,1.600000*%
%ADD13RoundRect,0.250000X0.936916X0.088388X0.088388X0.936916X-0.936916X-0.088388X-0.088388X-0.936916X0*%
%ADD14HorizOval,1.700000X0.088388X0.088388X-0.088388X-0.088388X0*%
%ADD15C,2.600000*%
%ADD16C,1.600000*%
%ADD17HorizOval,1.600000X0.000000X0.000000X0.000000X0.000000X0*%
%ADD18RoundRect,0.162500X0.825000X0.162500X-0.825000X0.162500X-0.825000X-0.162500X0.825000X-0.162500X0*%
%ADD19RoundRect,0.381000X0.762000X0.381000X-0.762000X0.381000X-0.762000X-0.381000X0.762000X-0.381000X0*%
%ADD20RoundRect,0.381000X0.381000X-0.762000X0.381000X0.762000X-0.381000X0.762000X-0.381000X-0.762000X0*%
%ADD21RoundRect,0.381000X-0.762000X-0.381000X0.762000X-0.381000X0.762000X0.381000X-0.762000X0.381000X0*%
%ADD22RoundRect,0.250001X0.000000X-1.555634X1.555634X0.000000X0.000000X1.555634X-1.555634X0.000000X0*%
%ADD23C,2.700000*%
%ADD24RoundRect,0.150000X0.150000X-0.587500X0.150000X0.587500X-0.150000X0.587500X-0.150000X-0.587500X0*%
%ADD25C,2.300000*%
%ADD26C,1.500000*%
%ADD27RoundRect,0.250000X0.750000X-0.600000X0.750000X0.600000X-0.750000X0.600000X-0.750000X-0.600000X0*%
%ADD28O,2.000000X1.700000*%
%ADD29R,1.800000X1.800000*%
%ADD30C,1.800000*%
%ADD31RoundRect,0.225000X-0.459619X0.141421X0.141421X-0.459619X0.459619X-0.141421X-0.141421X0.459619X0*%
%ADD32FreePoly0,315.000000*%
%ADD33R,2.000000X2.000000*%
%ADD34C,2.000000*%
%ADD35RotRect,1.700000X1.700000X225.000000*%
%ADD36HorizOval,1.700000X0.000000X0.000000X0.000000X0.000000X0*%
%ADD37RoundRect,0.250001X-1.099999X1.099999X-1.099999X-1.099999X1.099999X-1.099999X1.099999X1.099999X0*%
%ADD38C,3.400000*%
G04 APERTURE END LIST*
D10*
X84639569Y-112713996D02*
X84134493Y-113219072D01*
X84134493Y-113219072D02*
X83999806Y-113286416D01*
X83999806Y-113286416D02*
X83865119Y-113286416D01*
X83865119Y-113286416D02*
X83730432Y-113219072D01*
X83730432Y-113219072D02*
X83663088Y-113151729D01*
X85313004Y-113387431D02*
X84976287Y-113050714D01*
X84976287Y-113050714D02*
X84605898Y-113353759D01*
X84605898Y-113353759D02*
X84673241Y-113353759D01*
X84673241Y-113353759D02*
X84774256Y-113387431D01*
X84774256Y-113387431D02*
X84942615Y-113555790D01*
X84942615Y-113555790D02*
X84976287Y-113656805D01*
X84976287Y-113656805D02*
X84976287Y-113724149D01*
X84976287Y-113724149D02*
X84942615Y-113825164D01*
X84942615Y-113825164D02*
X84774256Y-113993523D01*
X84774256Y-113993523D02*
X84673241Y-114027194D01*
X84673241Y-114027194D02*
X84605898Y-114027194D01*
X84605898Y-114027194D02*
X84504882Y-113993523D01*
X84504882Y-113993523D02*
X84336524Y-113825164D01*
X84336524Y-113825164D02*
X84302852Y-113724149D01*
X84302852Y-113724149D02*
X84302852Y-113656805D01*
G36*
X80543330Y-155250749D02*
G01*
X80579299Y-155287944D01*
X80615430Y-155328607D01*
X80649032Y-155371476D01*
X80677029Y-155415110D01*
X80681840Y-155424146D01*
X80701012Y-155474126D01*
X80708185Y-155526229D01*
X80704292Y-155575436D01*
X80690412Y-155624290D01*
X80666041Y-155670681D01*
X80635137Y-155710327D01*
X80622948Y-155723100D01*
X80585246Y-155755843D01*
X80541709Y-155782471D01*
X80496009Y-155799263D01*
X80444691Y-155807415D01*
X80392547Y-155805707D01*
X80357326Y-155799090D01*
X80308494Y-155781172D01*
X80263285Y-155756758D01*
X80252148Y-155749869D01*
X80272916Y-155797147D01*
X80283063Y-155833631D01*
X80282577Y-155882626D01*
X80280127Y-155906686D01*
X80273005Y-155956152D01*
X80266483Y-155982158D01*
X80169595Y-156291820D01*
X79920899Y-156043123D01*
X80019859Y-155709283D01*
X80032274Y-155659495D01*
X80034539Y-155614813D01*
X80016419Y-155568493D01*
X79997062Y-155544522D01*
X79977546Y-155525006D01*
X79690164Y-155812388D01*
X79469273Y-155591498D01*
X79668403Y-155392368D01*
X80110184Y-155392368D01*
X80202927Y-155485111D01*
X80244225Y-155516416D01*
X80270973Y-155533814D01*
X80319084Y-155548172D01*
X80328830Y-155547458D01*
X80374768Y-155528181D01*
X80383750Y-155520170D01*
X80411024Y-155477432D01*
X80414319Y-155445734D01*
X80394613Y-155397459D01*
X80361393Y-155356516D01*
X80350591Y-155345392D01*
X80253875Y-155248677D01*
X80110184Y-155392368D01*
X79668403Y-155392368D01*
X80176676Y-154884095D01*
X80543330Y-155250749D01*
G37*
G36*
X81370591Y-156055904D02*
G01*
X80652135Y-156774360D01*
X80451969Y-156574194D01*
X80922420Y-156103743D01*
X80870260Y-156095847D01*
X80821508Y-156085757D01*
X80771816Y-156072127D01*
X80767502Y-156070756D01*
X80717756Y-156052620D01*
X80668211Y-156031031D01*
X80620102Y-156007449D01*
X80608959Y-156001674D01*
X80774756Y-155835876D01*
X80823489Y-155859736D01*
X80869952Y-155879504D01*
X80921288Y-155897393D01*
X80969534Y-155909713D01*
X81008427Y-155915839D01*
X81058652Y-155918376D01*
X81108467Y-155915278D01*
X81157871Y-155906546D01*
X81206866Y-155892179D01*
X81370591Y-156055904D01*
G37*
G36*
X86805369Y-129585071D02*
G01*
X86805369Y-129322021D01*
X86539633Y-129322021D01*
X86539633Y-129100005D01*
X86805369Y-129100005D01*
X86805369Y-128835490D01*
X87024211Y-128835490D01*
X87024211Y-129100005D01*
X87289947Y-129100005D01*
X87289947Y-129322021D01*
X87024211Y-129322021D01*
X87024211Y-129585071D01*
X86805369Y-129585071D01*
G37*
G36*
X86711580Y-128419055D02*
G01*
X86667616Y-128683570D01*
X86620945Y-128669068D01*
X86571921Y-128646743D01*
X86528741Y-128618598D01*
X86491405Y-128584633D01*
X86468314Y-128556808D01*
X86441286Y-128512047D01*
X86420897Y-128459830D01*
X86408704Y-128409137D01*
X86401388Y-128352966D01*
X86399017Y-128301972D01*
X86398949Y-128291316D01*
X86400690Y-128232317D01*
X86405914Y-128178659D01*
X86414620Y-128130345D01*
X86429664Y-128079421D01*
X86453553Y-128029732D01*
X86470268Y-128006041D01*
X86508111Y-127967573D01*
X86550563Y-127940095D01*
X86597626Y-127923609D01*
X86649298Y-127918113D01*
X86698563Y-127924039D01*
X86747289Y-127943674D01*
X86763604Y-127954017D01*
X86803182Y-127988997D01*
X86833396Y-128027977D01*
X86853485Y-128061728D01*
X86868244Y-128013067D01*
X86887435Y-127972580D01*
X86918577Y-127933023D01*
X86957292Y-127901974D01*
X86969745Y-127894666D01*
X87017984Y-127875632D01*
X87069558Y-127867502D01*
X87091133Y-127866822D01*
X87140445Y-127870474D01*
X87188635Y-127881428D01*
X87235705Y-127899686D01*
X87261371Y-127912984D01*
X87304165Y-127942020D01*
X87341046Y-127977470D01*
X87372016Y-128019334D01*
X87386667Y-128045364D01*
X87405901Y-128091999D01*
X87419640Y-128145442D01*
X87427153Y-128197790D01*
X87430245Y-128246809D01*
X87430631Y-128272754D01*
X87429506Y-128322193D01*
X87425350Y-128374728D01*
X87416852Y-128427984D01*
X87402510Y-128479249D01*
X87398635Y-128489397D01*
X87375599Y-128536266D01*
X87346791Y-128577649D01*
X87312210Y-128613546D01*
X87304602Y-128620067D01*
X87262751Y-128649658D01*
X87214747Y-128674621D01*
X87166282Y-128693132D01*
X87149019Y-128698469D01*
X87118000Y-128419055D01*
X87164860Y-128404206D01*
X87206338Y-128378400D01*
X87215942Y-128368009D01*
X87237863Y-128322843D01*
X87243053Y-128279593D01*
X87234520Y-128231060D01*
X87206607Y-128188402D01*
X87204218Y-128186048D01*
X87161946Y-128159050D01*
X87112325Y-128148765D01*
X87100415Y-128148434D01*
X87051594Y-128154400D01*
X87007583Y-128176110D01*
X86998077Y-128184582D01*
X86970783Y-128226958D01*
X86961720Y-128278443D01*
X86961685Y-128282279D01*
X86967791Y-128333132D01*
X86977316Y-128372894D01*
X86771175Y-128358483D01*
X86774106Y-128322091D01*
X86766596Y-128271716D01*
X86744064Y-128230500D01*
X86704515Y-128199706D01*
X86672990Y-128193619D01*
X86624664Y-128207877D01*
X86610219Y-128221219D01*
X86589327Y-128266063D01*
X86586528Y-128296690D01*
X86595338Y-128346595D01*
X86614371Y-128377290D01*
X86655552Y-128404404D01*
X86703043Y-128417604D01*
X86711580Y-128419055D01*
G37*
G36*
X87133632Y-127729802D02*
G01*
X87133632Y-127431093D01*
X87415000Y-127431093D01*
X87415000Y-127729802D01*
X87133632Y-127729802D01*
G37*
G36*
X86711580Y-127020032D02*
G01*
X86667616Y-127284547D01*
X86620945Y-127270045D01*
X86571921Y-127247720D01*
X86528741Y-127219575D01*
X86491405Y-127185610D01*
X86468314Y-127157785D01*
X86441286Y-127113024D01*
X86420897Y-127060807D01*
X86408704Y-127010114D01*
X86401388Y-126953943D01*
X86399017Y-126902949D01*
X86398949Y-126892293D01*
X86400690Y-126833294D01*
X86405914Y-126779636D01*
X86414620Y-126731322D01*
X86429664Y-126680397D01*
X86453553Y-126630709D01*
X86470268Y-126607018D01*
X86508111Y-126568550D01*
X86550563Y-126541072D01*
X86597626Y-126524586D01*
X86649298Y-126519090D01*
X86698563Y-126525016D01*
X86747289Y-126544651D01*
X86763604Y-126554994D01*
X86803182Y-126589973D01*
X86833396Y-126628954D01*
X86853485Y-126662705D01*
X86868244Y-126614044D01*
X86887435Y-126573556D01*
X86918577Y-126534000D01*
X86957292Y-126502951D01*
X86969745Y-126495643D01*
X87017984Y-126476609D01*
X87069558Y-126468479D01*
X87091133Y-126467799D01*
X87140445Y-126471451D01*
X87188635Y-126482405D01*
X87235705Y-126500663D01*
X87261371Y-126513961D01*
X87304165Y-126542997D01*
X87341046Y-126578447D01*
X87372016Y-126620311D01*
X87386667Y-126646341D01*
X87405901Y-126692976D01*
X87419640Y-126746419D01*
X87427153Y-126798767D01*
X87430245Y-126847786D01*
X87430631Y-126873731D01*
X87429506Y-126923170D01*
X87425350Y-126975705D01*
X87416852Y-127028961D01*
X87402510Y-127080226D01*
X87398635Y-127090374D01*
X87375599Y-127137243D01*
X87346791Y-127178626D01*
X87312210Y-127214523D01*
X87304602Y-127221044D01*
X87262751Y-127250635D01*
X87214747Y-127275598D01*
X87166282Y-127294109D01*
X87149019Y-127299446D01*
X87118000Y-127020032D01*
X87164860Y-127005183D01*
X87206338Y-126979377D01*
X87215942Y-126968986D01*
X87237863Y-126923820D01*
X87243053Y-126880570D01*
X87234520Y-126832037D01*
X87206607Y-126789379D01*
X87204218Y-126787025D01*
X87161946Y-126760027D01*
X87112325Y-126749742D01*
X87100415Y-126749411D01*
X87051594Y-126755377D01*
X87007583Y-126777087D01*
X86998077Y-126785559D01*
X86970783Y-126827935D01*
X86961720Y-126879420D01*
X86961685Y-126883256D01*
X86967791Y-126934109D01*
X86977316Y-126973871D01*
X86771175Y-126959460D01*
X86774106Y-126923068D01*
X86766596Y-126872693D01*
X86744064Y-126831477D01*
X86704515Y-126800683D01*
X86672990Y-126794596D01*
X86624664Y-126808854D01*
X86610219Y-126822196D01*
X86589327Y-126867040D01*
X86586528Y-126897667D01*
X86595338Y-126947572D01*
X86614371Y-126978267D01*
X86655552Y-127005381D01*
X86703043Y-127018581D01*
X86711580Y-127020032D01*
G37*
G36*
X86414581Y-126412600D02*
G01*
X86414581Y-126087025D01*
X87134609Y-125860367D01*
X86414581Y-125637129D01*
X86414581Y-125321079D01*
X87415000Y-125694771D01*
X87415000Y-126032070D01*
X86414581Y-126412600D01*
G37*
G36*
X84305369Y-148885560D02*
G01*
X84305369Y-148622510D01*
X84039633Y-148622510D01*
X84039633Y-148400494D01*
X84305369Y-148400494D01*
X84305369Y-148135979D01*
X84524211Y-148135979D01*
X84524211Y-148400494D01*
X84789947Y-148400494D01*
X84789947Y-148622510D01*
X84524211Y-148622510D01*
X84524211Y-148885560D01*
X84305369Y-148885560D01*
G37*
G36*
X83914581Y-147877570D02*
G01*
X83914581Y-147213229D01*
X84149054Y-147213229D01*
X84149054Y-147663124D01*
X84290471Y-147687304D01*
X84269588Y-147640898D01*
X84254811Y-147594981D01*
X84245473Y-147546728D01*
X84242843Y-147504611D01*
X84246029Y-147449925D01*
X84255586Y-147399258D01*
X84271514Y-147352610D01*
X84298150Y-147303265D01*
X84333457Y-147259391D01*
X84375345Y-147222656D01*
X84421721Y-147194943D01*
X84472584Y-147176253D01*
X84527936Y-147166586D01*
X84561580Y-147165113D01*
X84615386Y-147168958D01*
X84667995Y-147180492D01*
X84719405Y-147199715D01*
X84747449Y-147213718D01*
X84789398Y-147240432D01*
X84830313Y-147276543D01*
X84864582Y-147319068D01*
X84883736Y-147350982D01*
X84904253Y-147398548D01*
X84918907Y-147452343D01*
X84926922Y-147504522D01*
X84930448Y-147561470D01*
X84930631Y-147578616D01*
X84929105Y-147632429D01*
X84924526Y-147681759D01*
X84915858Y-147731314D01*
X84911336Y-147749586D01*
X84895819Y-147795939D01*
X84873757Y-147840779D01*
X84853695Y-147870487D01*
X84820886Y-147907708D01*
X84781856Y-147940940D01*
X84766988Y-147951087D01*
X84723547Y-147974556D01*
X84676435Y-147993143D01*
X84645844Y-148002622D01*
X84618000Y-147719544D01*
X84666032Y-147705286D01*
X84707187Y-147676053D01*
X84711301Y-147671429D01*
X84736076Y-147627138D01*
X84743053Y-147581303D01*
X84734359Y-147531032D01*
X84708277Y-147489669D01*
X84703485Y-147484827D01*
X84661431Y-147458781D01*
X84613551Y-147448065D01*
X84585516Y-147446725D01*
X84535351Y-147451285D01*
X84489162Y-147468432D01*
X84467791Y-147485316D01*
X84440968Y-147526900D01*
X84430750Y-147575880D01*
X84430422Y-147587653D01*
X84437386Y-147637284D01*
X84448251Y-147666055D01*
X84475863Y-147707331D01*
X84494902Y-147727849D01*
X84464127Y-147965985D01*
X83914581Y-147877570D01*
G37*
G36*
X83914581Y-147112112D02*
G01*
X83914581Y-146786537D01*
X84634609Y-146559879D01*
X83914581Y-146336641D01*
X83914581Y-146020591D01*
X84915000Y-146394283D01*
X84915000Y-146731582D01*
X83914581Y-147112112D01*
G37*
G36*
X87276827Y-177359513D02*
G01*
X87507044Y-177129296D01*
X88176452Y-177478162D01*
X87825168Y-176811172D01*
X88048649Y-176587691D01*
X88491812Y-177559333D01*
X88253306Y-177797840D01*
X87276827Y-177359513D01*
G37*
G36*
X88125676Y-176510664D02*
G01*
X88346049Y-176290291D01*
X89053451Y-176997694D01*
X88833079Y-177218067D01*
X88125676Y-176510664D01*
G37*
G36*
X88503038Y-176133302D02*
G01*
X88708558Y-175927782D01*
X89375375Y-176058175D01*
X88976770Y-175659570D01*
X89184017Y-175452323D01*
X89891420Y-176159726D01*
X89684173Y-176366973D01*
X89020810Y-176237271D01*
X89417343Y-176633803D01*
X89210441Y-176840705D01*
X88503038Y-176133302D01*
G37*
G36*
X52969581Y-156327709D02*
G01*
X52969581Y-156037060D01*
X53533293Y-155657751D01*
X52969581Y-155657751D01*
X52969581Y-155364660D01*
X53970000Y-155364660D01*
X53970000Y-155657751D01*
X53409218Y-156035106D01*
X53970000Y-156035106D01*
X53970000Y-156327709D01*
X52969581Y-156327709D01*
G37*
G36*
X86839581Y-125001488D02*
G01*
X86839581Y-124690322D01*
X87217669Y-124690322D01*
X86839581Y-124364014D01*
X86839581Y-123950511D01*
X87216936Y-124317363D01*
X87840000Y-123934146D01*
X87840000Y-124317363D01*
X87428450Y-124529610D01*
X87595757Y-124690322D01*
X87840000Y-124690322D01*
X87840000Y-125001488D01*
X86839581Y-125001488D01*
G37*
G36*
X86839581Y-123824970D02*
G01*
X86839581Y-123513316D01*
X87840000Y-123513316D01*
X87840000Y-123824970D01*
X86839581Y-123824970D01*
G37*
G36*
X87433579Y-122622806D02*
G01*
X87512470Y-122350231D01*
X87560370Y-122363719D01*
X87610733Y-122382854D01*
X87656426Y-122405957D01*
X87697447Y-122433030D01*
X87702247Y-122436693D01*
X87742037Y-122472201D01*
X87775954Y-122512230D01*
X87803998Y-122556780D01*
X87817041Y-122583483D01*
X87833924Y-122630195D01*
X87845983Y-122682890D01*
X87852578Y-122733907D01*
X87855480Y-122789506D01*
X87855631Y-122806233D01*
X87854480Y-122856057D01*
X87850061Y-122911973D01*
X87842327Y-122963665D01*
X87829115Y-123018633D01*
X87811392Y-123067850D01*
X87808492Y-123074411D01*
X87784338Y-123118577D01*
X87753334Y-123160030D01*
X87715482Y-123198772D01*
X87677586Y-123229822D01*
X87642163Y-123254174D01*
X87595131Y-123279823D01*
X87543428Y-123300164D01*
X87487053Y-123315200D01*
X87436507Y-123323675D01*
X87382716Y-123328466D01*
X87337348Y-123329645D01*
X87277283Y-123327569D01*
X87220798Y-123321341D01*
X87167893Y-123310961D01*
X87118567Y-123296428D01*
X87072821Y-123277744D01*
X87020673Y-123248549D01*
X86974118Y-123212867D01*
X86957062Y-123196777D01*
X86918714Y-123152561D01*
X86886866Y-123102954D01*
X86861517Y-123047956D01*
X86845918Y-123000077D01*
X86834479Y-122948748D01*
X86827199Y-122893969D01*
X86824079Y-122835739D01*
X86823949Y-122820643D01*
X86825834Y-122763177D01*
X86831486Y-122709694D01*
X86840908Y-122660194D01*
X86857188Y-122606052D01*
X86878895Y-122557647D01*
X86901130Y-122521690D01*
X86932984Y-122482807D01*
X86970659Y-122447856D01*
X87014156Y-122416838D01*
X87063475Y-122389753D01*
X87109021Y-122370186D01*
X87138290Y-122359757D01*
X87199106Y-122634530D01*
X87153480Y-122652159D01*
X87132184Y-122664816D01*
X87095897Y-122699983D01*
X87077718Y-122728808D01*
X87061607Y-122776660D01*
X87058422Y-122813072D01*
X87063628Y-122862867D01*
X87081928Y-122911514D01*
X87113405Y-122952357D01*
X87141709Y-122975249D01*
X87187223Y-122997660D01*
X87239973Y-123010733D01*
X87288721Y-123016253D01*
X87335882Y-123017747D01*
X87393633Y-123015961D01*
X87444154Y-123010603D01*
X87493958Y-122999837D01*
X87543531Y-122978851D01*
X87560341Y-122966945D01*
X87594966Y-122927140D01*
X87615219Y-122877581D01*
X87621158Y-122824063D01*
X87616483Y-122772462D01*
X87600541Y-122725563D01*
X87573286Y-122688996D01*
X87531086Y-122658279D01*
X87486578Y-122638086D01*
X87439261Y-122624113D01*
X87433579Y-122622806D01*
G37*
G36*
X86839581Y-122203442D02*
G01*
X86839581Y-121892276D01*
X87217669Y-121892276D01*
X86839581Y-121565968D01*
X86839581Y-121152465D01*
X87216936Y-121519317D01*
X87840000Y-121136100D01*
X87840000Y-121519317D01*
X87428450Y-121731564D01*
X87595757Y-121892276D01*
X87840000Y-121892276D01*
X87840000Y-122203442D01*
X86839581Y-122203442D01*
G37*
G36*
X86839581Y-121040113D02*
G01*
X86839581Y-120206268D01*
X87074054Y-120206268D01*
X87074054Y-120728215D01*
X87214738Y-120728215D01*
X87214738Y-120243881D01*
X87417948Y-120243881D01*
X87417948Y-120728215D01*
X87605526Y-120728215D01*
X87605526Y-120191125D01*
X87840000Y-120191125D01*
X87840000Y-121040113D01*
X86839581Y-121040113D01*
G37*
G36*
X87840000Y-119386345D02*
G01*
X87533963Y-119552430D01*
X87489979Y-119578857D01*
X87456782Y-119608850D01*
X87436842Y-119654416D01*
X87433579Y-119685054D01*
X87433579Y-119712653D01*
X87840000Y-119712653D01*
X87840000Y-120025040D01*
X86839581Y-120025040D01*
X86839581Y-119712653D01*
X87042791Y-119712653D01*
X87246001Y-119712653D01*
X87246001Y-119581495D01*
X87238935Y-119530157D01*
X87232323Y-119498940D01*
X87208457Y-119454769D01*
X87201060Y-119448382D01*
X87154946Y-119429530D01*
X87142930Y-119428843D01*
X87093424Y-119439778D01*
X87068681Y-119459862D01*
X87048480Y-119507931D01*
X87043018Y-119560373D01*
X87042791Y-119575877D01*
X87042791Y-119712653D01*
X86839581Y-119712653D01*
X86839581Y-119506512D01*
X86840448Y-119454777D01*
X86843652Y-119400476D01*
X86850205Y-119346403D01*
X86861262Y-119295752D01*
X86864249Y-119285961D01*
X86886034Y-119237063D01*
X86917804Y-119195149D01*
X86955352Y-119163107D01*
X86999712Y-119138377D01*
X87049748Y-119122806D01*
X87099634Y-119116624D01*
X87117285Y-119116212D01*
X87167097Y-119119718D01*
X87216711Y-119131674D01*
X87260900Y-119152116D01*
X87302951Y-119182638D01*
X87338615Y-119220717D01*
X87358841Y-119250301D01*
X87380701Y-119297501D01*
X87395405Y-119346732D01*
X87398408Y-119359478D01*
X87417154Y-119311362D01*
X87435778Y-119278389D01*
X87470765Y-119244088D01*
X87489511Y-119228808D01*
X87529525Y-119198866D01*
X87552526Y-119185088D01*
X87840000Y-119034635D01*
X87840000Y-119386345D01*
G37*
G36*
X87431484Y-162138903D02*
G01*
X87467453Y-162176098D01*
X87503584Y-162216761D01*
X87537186Y-162259630D01*
X87565183Y-162303264D01*
X87569994Y-162312300D01*
X87589166Y-162362280D01*
X87596339Y-162414383D01*
X87592446Y-162463590D01*
X87578566Y-162512444D01*
X87554195Y-162558835D01*
X87523291Y-162598481D01*
X87511102Y-162611254D01*
X87473400Y-162643997D01*
X87429863Y-162670625D01*
X87384163Y-162687417D01*
X87332845Y-162695569D01*
X87280701Y-162693861D01*
X87245480Y-162687244D01*
X87196648Y-162669326D01*
X87151439Y-162644912D01*
X87140302Y-162638023D01*
X87161070Y-162685301D01*
X87171217Y-162721785D01*
X87170731Y-162770780D01*
X87168281Y-162794840D01*
X87161159Y-162844306D01*
X87154637Y-162870312D01*
X87057749Y-163179974D01*
X86809053Y-162931277D01*
X86908013Y-162597437D01*
X86920428Y-162547649D01*
X86922693Y-162502967D01*
X86904573Y-162456647D01*
X86885216Y-162432676D01*
X86865700Y-162413160D01*
X86578318Y-162700542D01*
X86357427Y-162479652D01*
X86556557Y-162280522D01*
X86998338Y-162280522D01*
X87091081Y-162373265D01*
X87132379Y-162404570D01*
X87159127Y-162421968D01*
X87207238Y-162436326D01*
X87216984Y-162435612D01*
X87262922Y-162416335D01*
X87271904Y-162408324D01*
X87299178Y-162365586D01*
X87302473Y-162333888D01*
X87282767Y-162285613D01*
X87249547Y-162244670D01*
X87238745Y-162233546D01*
X87142029Y-162136831D01*
X86998338Y-162280522D01*
X86556557Y-162280522D01*
X87064830Y-161772249D01*
X87431484Y-162138903D01*
G37*
G36*
X87671027Y-163793252D02*
G01*
X87077438Y-163199662D01*
X87122288Y-163167695D01*
X87170096Y-163140703D01*
X87220863Y-163118686D01*
X87274589Y-163101644D01*
X87306618Y-163094139D01*
X87359577Y-163086402D01*
X87409916Y-163083469D01*
X87465896Y-163083733D01*
X87514742Y-163086246D01*
X87567199Y-163090804D01*
X87623266Y-163097407D01*
X87682944Y-163106056D01*
X87736128Y-163113734D01*
X87789857Y-163119838D01*
X87840293Y-163123049D01*
X87890536Y-163120908D01*
X87938181Y-163108221D01*
X87977407Y-163082740D01*
X88003742Y-163039480D01*
X88008149Y-163003987D01*
X87995502Y-162954751D01*
X87970326Y-162920915D01*
X87929697Y-162892548D01*
X87883801Y-162883438D01*
X87833722Y-162895412D01*
X87786828Y-162921767D01*
X87765497Y-162937149D01*
X87583638Y-162722476D01*
X87624436Y-162693805D01*
X87669019Y-162667616D01*
X87716568Y-162646540D01*
X87756517Y-162635260D01*
X87805535Y-162630058D01*
X87855229Y-162634099D01*
X87905597Y-162647383D01*
X87915751Y-162651149D01*
X87963164Y-162674350D01*
X88007762Y-162704080D01*
X88048681Y-162737124D01*
X88085162Y-162770670D01*
X88097611Y-162782923D01*
X88134275Y-162821240D01*
X88170851Y-162863916D01*
X88200748Y-162904411D01*
X88226740Y-162948019D01*
X88236466Y-162968755D01*
X88253379Y-163019703D01*
X88260510Y-163070651D01*
X88257859Y-163121599D01*
X88256154Y-163131789D01*
X88242362Y-163180737D01*
X88219765Y-163225468D01*
X88188364Y-163265983D01*
X88181027Y-163273580D01*
X88142598Y-163305971D01*
X88099005Y-163331449D01*
X88050248Y-163350015D01*
X88020929Y-163357343D01*
X87968135Y-163364175D01*
X87914379Y-163364930D01*
X87862684Y-163361695D01*
X87805805Y-163354879D01*
X87754444Y-163346462D01*
X87703056Y-163336881D01*
X87653978Y-163328436D01*
X87617661Y-163323319D01*
X87568504Y-163319782D01*
X87527854Y-163318484D01*
X87836825Y-163627454D01*
X87671027Y-163793252D01*
G37*
G36*
X102914581Y-152521508D02*
G01*
X102914581Y-152210343D01*
X103664895Y-152210343D01*
X103664895Y-151724788D01*
X103915000Y-151724788D01*
X103915000Y-152521508D01*
X102914581Y-152521508D01*
G37*
G36*
X102914581Y-151576044D02*
G01*
X102914581Y-151264390D01*
X103915000Y-151264390D01*
X103915000Y-151576044D01*
X102914581Y-151576044D01*
G37*
G36*
X102914581Y-151042373D02*
G01*
X102914581Y-150751724D01*
X103478293Y-150372415D01*
X102914581Y-150372415D01*
X102914581Y-150079324D01*
X103915000Y-150079324D01*
X103915000Y-150372415D01*
X103354218Y-150749770D01*
X103915000Y-150749770D01*
X103915000Y-151042373D01*
X102914581Y-151042373D01*
G37*
G36*
X102914581Y-149879533D02*
G01*
X102914581Y-149045688D01*
X103149054Y-149045688D01*
X103149054Y-149567635D01*
X103289738Y-149567635D01*
X103289738Y-149083301D01*
X103492948Y-149083301D01*
X103492948Y-149567635D01*
X103680526Y-149567635D01*
X103680526Y-149030545D01*
X103915000Y-149030545D01*
X103915000Y-149879533D01*
X102914581Y-149879533D01*
G37*
G36*
X102914581Y-139104924D02*
G01*
X102914581Y-138695573D01*
X103520792Y-138537548D01*
X102914581Y-138380256D01*
X102914581Y-137972126D01*
X103915000Y-137972126D01*
X103915000Y-138226383D01*
X103147100Y-138226383D01*
X103915000Y-138423487D01*
X103915000Y-138653564D01*
X103147100Y-138850179D01*
X103915000Y-138850179D01*
X103915000Y-139104924D01*
X102914581Y-139104924D01*
G37*
G36*
X103469013Y-136851127D02*
G01*
X103521589Y-136855017D01*
X103576525Y-136862832D01*
X103624565Y-136874177D01*
X103660254Y-136886711D01*
X103707610Y-136909579D01*
X103750483Y-136936969D01*
X103788874Y-136968879D01*
X103808265Y-136988560D01*
X103841625Y-137030272D01*
X103867208Y-137073892D01*
X103885016Y-137119421D01*
X103887644Y-137128756D01*
X103899612Y-137178718D01*
X103908989Y-137232044D01*
X103914038Y-137282317D01*
X103915000Y-137314136D01*
X103915000Y-137776488D01*
X102914581Y-137776488D01*
X102914581Y-137465322D01*
X103149054Y-137465322D01*
X103680526Y-137465322D01*
X103680526Y-137389118D01*
X103678884Y-137338745D01*
X103672417Y-137289246D01*
X103659766Y-137250388D01*
X103628694Y-137211633D01*
X103586737Y-137185908D01*
X103538469Y-137171620D01*
X103484392Y-137164751D01*
X103432063Y-137162553D01*
X103417721Y-137162461D01*
X103363179Y-137164299D01*
X103308228Y-137171087D01*
X103256876Y-137184971D01*
X103213702Y-137208400D01*
X103206207Y-137214729D01*
X103176068Y-137253970D01*
X103158486Y-137300789D01*
X103150449Y-137351553D01*
X103149054Y-137387653D01*
X103149054Y-137465322D01*
X102914581Y-137465322D01*
X102914581Y-137314136D01*
X102915877Y-137264774D01*
X102920668Y-137211830D01*
X102930464Y-137157448D01*
X102944870Y-137109599D01*
X102951461Y-137093340D01*
X102974738Y-137048260D01*
X103003076Y-137007817D01*
X103036476Y-136972011D01*
X103057219Y-136954122D01*
X103097758Y-136925606D01*
X103141892Y-136901881D01*
X103189619Y-136882947D01*
X103217686Y-136874499D01*
X103269938Y-136862574D01*
X103323929Y-136854552D01*
X103373380Y-136850697D01*
X103411371Y-136849830D01*
X103469013Y-136851127D01*
G37*
D11*
%TO.C,J5*%
X88838478Y-116552536D02*
X89722361Y-115668652D01*
X88838478Y-116142414D02*
X93059905Y-111920987D01*
X93059905Y-111920987D02*
X85903985Y-104765066D01*
X88838478Y-116128272D02*
X89368808Y-115597942D01*
X89368808Y-115597942D02*
X88096016Y-114325150D01*
X90429468Y-114537282D02*
X89899138Y-114006952D01*
X89899138Y-114006952D02*
X91985103Y-111920987D01*
X91985103Y-111920987D02*
X88944544Y-108880427D01*
X87954594Y-115668652D02*
X88838478Y-116552536D01*
X87565685Y-114855480D02*
X88838478Y-116128272D01*
X88096016Y-114325150D02*
X87565685Y-114855480D01*
X86505025Y-113794820D02*
X87035355Y-113264489D01*
X87035355Y-113264489D02*
X84560482Y-110789616D01*
X84030152Y-111319946D02*
X86505025Y-113794820D01*
X84560482Y-110789616D02*
X84030152Y-111319946D01*
X82969491Y-110259286D02*
X83499821Y-109728956D01*
X83499821Y-109728956D02*
X82227029Y-108456163D01*
X83818020Y-107925833D02*
X85903985Y-105839868D01*
X85903985Y-105839868D02*
X88944544Y-108880427D01*
X81696699Y-108986493D02*
X82969491Y-110259286D01*
X82227029Y-108456163D02*
X81696699Y-108986493D01*
X83287689Y-107395503D02*
X83818020Y-107925833D01*
X81682557Y-108986493D02*
X88838478Y-116142414D01*
X85903985Y-104765066D02*
X81682557Y-108986493D01*
%TO.C,F1*%
X72887869Y-156827355D02*
X68362385Y-161352838D01*
X63412637Y-156403091D01*
X67938120Y-151877608D01*
X72887869Y-156827355D01*
X82787363Y-166726851D02*
X78261880Y-171252334D01*
X73312131Y-166302587D01*
X77837615Y-161777104D01*
X82787363Y-166726851D01*
%TO.C,R1*%
X77120585Y-154593384D02*
X81745064Y-159217862D01*
X77353931Y-154360039D02*
X77120585Y-154593384D01*
X78824713Y-152889257D02*
X79058058Y-152655911D01*
X79058058Y-152655911D02*
X83682536Y-157280390D01*
X81745064Y-159217862D02*
X81978409Y-158984517D01*
X83682536Y-157280390D02*
X83449191Y-157513735D01*
%TO.C,U1*%
X58495000Y-160244971D02*
X56615000Y-160244971D01*
X58495000Y-160244971D02*
X60375000Y-160244971D01*
X58495000Y-165424971D02*
X56615000Y-165424971D01*
X58495000Y-165424971D02*
X60375000Y-165424971D01*
X61437500Y-165654971D02*
X60957500Y-165654971D01*
X61197500Y-165324971D01*
X61437500Y-165654971D01*
G36*
X61437500Y-165654971D02*
G01*
X60957500Y-165654971D01*
X61197500Y-165324971D01*
X61437500Y-165654971D01*
G37*
%TO.C,+3.3V*%
X71900000Y-127579971D02*
X71900000Y-129099971D01*
X73842541Y-121277895D02*
X73842541Y-124722047D01*
X73842541Y-121277895D02*
X76277924Y-118842512D01*
X76277924Y-127157430D02*
X73842541Y-124722047D01*
X76277924Y-127157430D02*
X79722076Y-127157430D01*
X79722076Y-118842512D02*
X76277924Y-118842512D01*
X79722076Y-118842512D02*
X82157459Y-121277895D01*
X82157459Y-124722047D02*
X79722076Y-127157430D01*
X82157459Y-124722047D02*
X82157459Y-121277895D01*
X71900000Y-116899971D02*
X84100000Y-116899971D01*
X84100000Y-129099971D01*
X71900000Y-129099971D01*
X71900000Y-116899971D01*
X81000000Y-122999971D02*
G75*
G02*
X75000000Y-122999971I-3000000J0D01*
G01*
X75000000Y-122999971D02*
G75*
G02*
X81000000Y-122999971I3000000J0D01*
G01*
%TO.C,+5V*%
X73420000Y-131899971D02*
X71900000Y-131899971D01*
X73842541Y-136277895D02*
X73842541Y-139722047D01*
X73842541Y-136277895D02*
X76277924Y-133842512D01*
X76277924Y-142157430D02*
X73842541Y-139722047D01*
X76277924Y-142157430D02*
X79722076Y-142157430D01*
X79722076Y-133842512D02*
X76277924Y-133842512D01*
X79722076Y-133842512D02*
X82157459Y-136277895D01*
X82157459Y-139722047D02*
X79722076Y-142157430D01*
X82157459Y-139722047D02*
X82157459Y-136277895D01*
X84100000Y-131899971D02*
X71900000Y-131899971D01*
X71900000Y-144099971D01*
X84100000Y-144099971D01*
X84100000Y-131899971D01*
X81000000Y-137999971D02*
G75*
G02*
X75000000Y-137999971I-3000000J0D01*
G01*
X75000000Y-137999971D02*
G75*
G02*
X81000000Y-137999971I3000000J0D01*
G01*
%TO.C,VIN*%
X79840185Y-171965556D02*
X83856552Y-167949189D01*
X80193739Y-174016166D02*
X81042267Y-173167638D01*
X80907917Y-175861714D02*
X81544313Y-175649582D01*
X81042267Y-173167638D02*
X79840185Y-171965556D01*
X81332181Y-176285978D02*
X80907917Y-175861714D01*
X81544313Y-175649582D02*
X81332181Y-176285978D01*
X83856552Y-167949189D02*
X85058633Y-169151271D01*
X85058633Y-169151271D02*
X85907162Y-168302743D01*
X85157628Y-178980055D02*
X80193739Y-174016166D01*
X85907162Y-168302743D02*
X90871051Y-173266632D01*
X90871051Y-173266632D02*
X85157628Y-178980055D01*
%TO.C,N*%
X54395000Y-155849971D02*
X54395000Y-155199971D01*
X54395000Y-155849971D02*
X54395000Y-156499971D01*
X57515000Y-155849971D02*
X57515000Y-155199971D01*
X57515000Y-155849971D02*
X57515000Y-156499971D01*
X54445000Y-157012471D02*
X54115000Y-157252471D01*
X54115000Y-156772471D01*
X54445000Y-157012471D01*
G36*
X54445000Y-157012471D02*
G01*
X54115000Y-157252471D01*
X54115000Y-156772471D01*
X54445000Y-157012471D01*
G37*
%TO.C,MES1*%
X86500000Y-130999971D02*
X90000000Y-130999971D01*
X86500000Y-153999971D02*
X86500000Y-130999971D01*
X90000000Y-127499971D02*
X94000000Y-127499971D01*
X90000000Y-130999971D02*
X90000000Y-127499971D01*
X90000000Y-153999971D02*
X86500000Y-153999971D01*
X90000000Y-157499971D02*
X90000000Y-153999971D01*
X94000000Y-127499971D02*
X94000000Y-130999971D01*
X94000000Y-130999971D02*
X97500000Y-130999971D01*
X94000000Y-153999971D02*
X94000000Y-157499971D01*
X94000000Y-157499971D02*
X90000000Y-157499971D01*
X97500000Y-130999971D02*
X97500000Y-153999971D01*
X97500000Y-153999971D02*
X94000000Y-153999971D01*
%TO.C,KICKER*%
X88225001Y-124924971D02*
X88225001Y-126174971D01*
X88225001Y-126174971D02*
X89475001Y-126174971D01*
X88515001Y-118264971D02*
X88515001Y-125884971D01*
X88515001Y-125884971D02*
X94485001Y-125884971D01*
X88525000Y-120074971D02*
X89275001Y-120074970D01*
X88525000Y-122574971D02*
X89275001Y-122574970D01*
X88525000Y-124074971D02*
X88525001Y-125874971D01*
X88525001Y-118274971D02*
X88525000Y-120074971D01*
X88525001Y-121574972D02*
X88525000Y-122574971D01*
X88525001Y-125874971D02*
X89275001Y-125874971D01*
X89275001Y-118274971D02*
X88525001Y-118274971D01*
X89275001Y-120074970D02*
X89275001Y-118274971D01*
X89275001Y-121574972D02*
X88525001Y-121574972D01*
X89275001Y-122574970D02*
X89275001Y-121574972D01*
X89275001Y-124074972D02*
X88525000Y-124074971D01*
X89275001Y-125874971D02*
X89275001Y-124074972D01*
X90775001Y-118274971D02*
X90775001Y-119024971D01*
X90775001Y-119024971D02*
X93725001Y-119024971D01*
X90775001Y-125124971D02*
X93725001Y-125124971D01*
X90775001Y-125874971D02*
X90775001Y-125124971D01*
X93725001Y-119024971D02*
X93725001Y-122074971D01*
X93725001Y-125124971D02*
X93725001Y-122074971D01*
X94485001Y-118264971D02*
X88515001Y-118264971D01*
X94485001Y-125884971D02*
X94485001Y-118264971D01*
%TO.C,D1*%
X59320000Y-154919971D02*
X59164000Y-154919971D01*
X61636000Y-154919971D02*
X61480000Y-154919971D01*
X59320164Y-157521100D02*
G75*
G02*
X59320001Y-155439011I1079836J1041129D01*
G01*
X59321392Y-158152305D02*
G75*
G02*
X59164485Y-154919972I1078608J1672334D01*
G01*
X61479999Y-155439011D02*
G75*
G02*
X61479836Y-157521100I-1079999J-1040960D01*
G01*
X61635515Y-154919972D02*
G75*
G02*
X61478608Y-158152305I-1235515J-1559999D01*
G01*
%TO.C,U3*%
X67154165Y-168166369D02*
X65230835Y-166243039D01*
X67847130Y-167473405D02*
X67154165Y-168166369D01*
X68667374Y-163004490D02*
X70491709Y-164828825D01*
X69798745Y-165521790D02*
X70491709Y-164828825D01*
X68575450Y-162658007D02*
X68172399Y-162721647D01*
X68236039Y-162318596D01*
X68575450Y-162658007D01*
G36*
X68575450Y-162658007D02*
G01*
X68172399Y-162721647D01*
X68236039Y-162318596D01*
X68575450Y-162658007D01*
G37*
%TO.C,SW2*%
X55500000Y-121299971D02*
X54500000Y-121299971D01*
X54500000Y-141699971D01*
X55500000Y-141699971D01*
X55500000Y-121299971D01*
G36*
X55500000Y-121299971D02*
G01*
X54500000Y-121299971D01*
X54500000Y-141699971D01*
X55500000Y-141699971D01*
X55500000Y-121299971D01*
G37*
X68500000Y-120299971D02*
X54500000Y-120299971D01*
X54500000Y-121299971D01*
X68500000Y-121299971D01*
X68500000Y-120299971D01*
G36*
X68500000Y-120299971D02*
G01*
X54500000Y-120299971D01*
X54500000Y-121299971D01*
X68500000Y-121299971D01*
X68500000Y-120299971D01*
G37*
X69500000Y-120299971D02*
X68500000Y-120299971D01*
X68500000Y-140699971D01*
X69500000Y-140699971D01*
X69500000Y-120299971D01*
G36*
X69500000Y-120299971D02*
G01*
X68500000Y-120299971D01*
X68500000Y-140699971D01*
X69500000Y-140699971D01*
X69500000Y-120299971D01*
G37*
X69500000Y-140699971D02*
X55500000Y-140699971D01*
X55500000Y-141699971D01*
X69500000Y-141699971D01*
X69500000Y-140699971D01*
G36*
X69500000Y-140699971D02*
G01*
X55500000Y-140699971D01*
X55500000Y-141699971D01*
X69500000Y-141699971D01*
X69500000Y-140699971D01*
G37*
%TO.C,R2*%
X84008739Y-161481538D02*
X88633218Y-166106016D01*
X84242085Y-161248193D02*
X84008739Y-161481538D01*
X85712867Y-159777411D02*
X85946212Y-159544065D01*
X85946212Y-159544065D02*
X90570690Y-164168544D01*
X88633218Y-166106016D02*
X88866563Y-165872671D01*
X90570690Y-164168544D02*
X90337345Y-164401889D01*
%TD*%
%LPC*%
D12*
X62800000Y-143999971D02*
G75*
G02*
X61200000Y-143999971I-800000J0D01*
G01*
X61200000Y-143999971D02*
G75*
G02*
X62800000Y-143999971I800000J0D01*
G01*
X68800000Y-118499971D02*
G75*
G02*
X67200000Y-118499971I-800000J0D01*
G01*
X67200000Y-118499971D02*
G75*
G02*
X68800000Y-118499971I800000J0D01*
G01*
D13*
%TO.C,J5*%
X88767767Y-112592738D03*
D14*
X87000000Y-110824971D03*
X85232233Y-109057204D03*
%TD*%
D15*
%TO.C,F1*%
X79287184Y-169873476D03*
X76812310Y-163155962D03*
X69387690Y-159973980D03*
X66912816Y-153256466D03*
%TD*%
D16*
%TO.C,R1*%
X77707484Y-153242810D03*
D17*
X83095638Y-158630964D03*
%TD*%
D18*
%TO.C,U1*%
X61032500Y-164739971D03*
X61032500Y-163469971D03*
X61032500Y-162199971D03*
X61032500Y-160929971D03*
X55957500Y-160929971D03*
X55957500Y-162199971D03*
X55957500Y-163469971D03*
X55957500Y-164739971D03*
%TD*%
D19*
%TO.C,+3.3V*%
X71900000Y-122999971D03*
X71900000Y-118419971D03*
D20*
X75710000Y-116899971D03*
X78000000Y-116899971D03*
X80290000Y-116899971D03*
D19*
X84100000Y-118419971D03*
X84100000Y-122999971D03*
X84100000Y-127579971D03*
D20*
X78000000Y-129099971D03*
%TD*%
%TO.C,+5V*%
X78000000Y-131899971D03*
X82580000Y-131899971D03*
D21*
X84100000Y-135709971D03*
X84100000Y-137999971D03*
X84100000Y-140289971D03*
D20*
X82580000Y-144099971D03*
X78000000Y-144099971D03*
X73420000Y-144099971D03*
D21*
X71900000Y-137999971D03*
%TD*%
D22*
%TO.C,VIN*%
X83142374Y-174051521D03*
D23*
X85942517Y-171251378D03*
%TD*%
D24*
%TO.C,N*%
X55005000Y-156787471D03*
X56905000Y-156787471D03*
X55955000Y-154912471D03*
%TD*%
D25*
%TO.C,MES1*%
X92000000Y-129499971D03*
X92000000Y-155499971D03*
D26*
X87750000Y-152499971D03*
X87750000Y-150749971D03*
%TD*%
D27*
%TO.C,KICKER*%
X90975001Y-123324971D03*
D28*
X90975001Y-120824971D03*
%TD*%
D29*
%TO.C,D1*%
X60400000Y-155209971D03*
D30*
X60400000Y-157749971D03*
%TD*%
D31*
%TO.C,U3*%
X67543074Y-163096414D03*
D32*
X66544286Y-164218946D03*
D31*
X65421754Y-165217734D03*
%TD*%
D16*
%TO.C,R2*%
X84595638Y-160130964D03*
D17*
X89983792Y-165519118D03*
%TD*%
D33*
%TO.C,C6*%
X60931354Y-115658035D03*
D34*
X60931354Y-110658035D03*
%TD*%
D35*
%TO.C,J2*%
X73411433Y-153946759D03*
D36*
X75207484Y-155742810D03*
X77003535Y-157538861D03*
X78799587Y-159334913D03*
X80595638Y-161130964D03*
%TD*%
D37*
%TO.C,LINE*%
X100052677Y-148818131D03*
D23*
X100052677Y-152778131D03*
%TD*%
D34*
%TO.C,MD*%
X103350000Y-132499971D03*
X103350000Y-143499971D03*
D38*
X93350000Y-135499971D03*
X93350000Y-140499971D03*
%TD*%
D33*
%TO.C,C7*%
X60931364Y-169160501D03*
D34*
X60931364Y-174160501D03*
%TD*%
%LPD*%
M02*
