%TF.GenerationSoftware,KiCad,Pcbnew,8.0.1*%
%TF.CreationDate,2024-04-24T01:19:34+09:00*%
%TF.ProjectId,Power-20240325,506f7765-722d-4323-9032-34303332352e,rev?*%
%TF.SameCoordinates,Original*%
%TF.FileFunction,Legend,Bot*%
%TF.FilePolarity,Positive*%
%FSLAX46Y46*%
G04 Gerber Fmt 4.6, Leading zero omitted, Abs format (unit mm)*
G04 Created by KiCad (PCBNEW 8.0.1) date 2024-04-24 01:19:34*
%MOMM*%
%LPD*%
G01*
G04 APERTURE LIST*
G04 Aperture macros list*
%AMRoundRect*
0 Rectangle with rounded corners*
0 $1 Rounding radius*
0 $2 $3 $4 $5 $6 $7 $8 $9 X,Y pos of 4 corners*
0 Add a 4 corners polygon primitive as box body*
4,1,4,$2,$3,$4,$5,$6,$7,$8,$9,$2,$3,0*
0 Add four circle primitives for the rounded corners*
1,1,$1+$1,$2,$3*
1,1,$1+$1,$4,$5*
1,1,$1+$1,$6,$7*
1,1,$1+$1,$8,$9*
0 Add four rect primitives between the rounded corners*
20,1,$1+$1,$2,$3,$4,$5,0*
20,1,$1+$1,$4,$5,$6,$7,0*
20,1,$1+$1,$6,$7,$8,$9,0*
20,1,$1+$1,$8,$9,$2,$3,0*%
%AMHorizOval*
0 Thick line with rounded ends*
0 $1 width*
0 $2 $3 position (X,Y) of the first rounded end (center of the circle)*
0 $4 $5 position (X,Y) of the second rounded end (center of the circle)*
0 Add line between two ends*
20,1,$1,$2,$3,$4,$5,0*
0 Add two circle primitives to create the rounded ends*
1,1,$1,$2,$3*
1,1,$1,$4,$5*%
%AMRotRect*
0 Rectangle, with rotation*
0 The origin of the aperture is its center*
0 $1 length*
0 $2 width*
0 $3 Rotation angle, in degrees counterclockwise*
0 Add horizontal line*
21,1,$1,$2,0,0,$3*%
G04 Aperture macros list end*
%ADD10C,0.200000*%
%ADD11C,0.150000*%
%ADD12C,0.120000*%
%ADD13C,1.600000*%
%ADD14RoundRect,0.200000X0.275000X-0.200000X0.275000X0.200000X-0.275000X0.200000X-0.275000X-0.200000X0*%
%ADD15RoundRect,0.200000X-0.275000X0.200000X-0.275000X-0.200000X0.275000X-0.200000X0.275000X0.200000X0*%
%ADD16RoundRect,0.200000X-0.200000X-0.275000X0.200000X-0.275000X0.200000X0.275000X-0.200000X0.275000X0*%
%ADD17RoundRect,0.200000X0.200000X0.275000X-0.200000X0.275000X-0.200000X-0.275000X0.200000X-0.275000X0*%
%ADD18RoundRect,0.225000X-0.250000X0.225000X-0.250000X-0.225000X0.250000X-0.225000X0.250000X0.225000X0*%
%ADD19RoundRect,0.225000X0.225000X0.250000X-0.225000X0.250000X-0.225000X-0.250000X0.225000X-0.250000X0*%
%ADD20RoundRect,0.225000X0.017678X-0.335876X0.335876X-0.017678X-0.017678X0.335876X-0.335876X0.017678X0*%
%ADD21C,2.600000*%
%ADD22C,1.600000*%
%ADD23HorizOval,1.600000X0.000000X0.000000X0.000000X0.000000X0*%
%ADD24RoundRect,0.250001X0.000000X-1.555634X1.555634X0.000000X0.000000X1.555634X-1.555634X0.000000X0*%
%ADD25C,2.700000*%
%ADD26RoundRect,0.250000X0.954594X0.106066X0.106066X0.954594X-0.954594X-0.106066X-0.106066X-0.954594X0*%
%ADD27HorizOval,1.700000X0.106066X0.106066X-0.106066X-0.106066X0*%
%ADD28C,2.300000*%
%ADD29C,1.500000*%
%ADD30RoundRect,0.250000X0.750000X-0.600000X0.750000X0.600000X-0.750000X0.600000X-0.750000X-0.600000X0*%
%ADD31O,2.000000X1.700000*%
%ADD32R,1.800000X1.800000*%
%ADD33C,1.800000*%
%ADD34R,2.000000X2.000000*%
%ADD35C,2.000000*%
%ADD36RotRect,1.700000X1.700000X225.000000*%
%ADD37HorizOval,1.700000X0.000000X0.000000X0.000000X0.000000X0*%
%ADD38RoundRect,0.250001X-1.099999X1.099999X-1.099999X-1.099999X1.099999X-1.099999X1.099999X1.099999X0*%
%ADD39C,3.400000*%
%ADD40RoundRect,0.250000X0.350000X-0.850000X0.350000X0.850000X-0.350000X0.850000X-0.350000X-0.850000X0*%
%ADD41RoundRect,0.249997X2.650003X-2.950003X2.650003X2.950003X-2.650003X2.950003X-2.650003X-2.950003X0*%
G04 APERTURE END LIST*
D10*
X87060660Y-147146447D02*
X86000000Y-147500000D01*
X86353553Y-146439340D01*
X87060660Y-147146447D01*
G36*
X87060660Y-147146447D02*
G01*
X86000000Y-147500000D01*
X86353553Y-146439340D01*
X87060660Y-147146447D01*
G37*
D11*
G36*
X93215000Y-131617429D02*
G01*
X92808579Y-131617429D01*
X92808579Y-131645028D01*
X92811842Y-131675665D01*
X92831782Y-131721232D01*
X92864979Y-131751225D01*
X92908963Y-131777652D01*
X93215000Y-131943737D01*
X93215000Y-132295447D01*
X92927526Y-132144993D01*
X92904525Y-132131215D01*
X92864511Y-132101274D01*
X92845765Y-132085993D01*
X92810778Y-132051692D01*
X92792154Y-132018720D01*
X92773408Y-131970604D01*
X92770405Y-131983350D01*
X92755701Y-132032580D01*
X92733841Y-132079780D01*
X92713615Y-132109364D01*
X92677951Y-132147443D01*
X92635900Y-132177966D01*
X92591711Y-132198407D01*
X92542097Y-132210364D01*
X92492285Y-132213870D01*
X92474634Y-132213458D01*
X92424748Y-132207275D01*
X92374712Y-132191705D01*
X92330352Y-132166975D01*
X92292804Y-132134933D01*
X92261034Y-132093019D01*
X92239249Y-132044121D01*
X92236262Y-132034329D01*
X92225205Y-131983679D01*
X92218652Y-131929606D01*
X92215448Y-131875304D01*
X92214581Y-131823570D01*
X92214581Y-131617429D01*
X92417791Y-131617429D01*
X92417791Y-131754205D01*
X92418018Y-131769709D01*
X92423480Y-131822150D01*
X92443681Y-131870220D01*
X92468424Y-131890304D01*
X92517930Y-131901239D01*
X92529946Y-131900552D01*
X92576060Y-131881699D01*
X92583457Y-131875313D01*
X92607323Y-131831141D01*
X92613935Y-131799924D01*
X92621001Y-131748587D01*
X92621001Y-131617429D01*
X92417791Y-131617429D01*
X92214581Y-131617429D01*
X92214581Y-131305042D01*
X93215000Y-131305042D01*
X93215000Y-131617429D01*
G37*
G36*
X92198949Y-132977861D02*
G01*
X93215000Y-132977861D01*
X93215000Y-132694784D01*
X92549682Y-132694784D01*
X92580980Y-132652318D01*
X92608319Y-132610711D01*
X92633819Y-132565935D01*
X92635900Y-132561916D01*
X92658251Y-132513915D01*
X92678019Y-132463616D01*
X92695362Y-132412923D01*
X92699159Y-132400960D01*
X92464685Y-132400960D01*
X92447097Y-132452291D01*
X92428221Y-132499122D01*
X92404570Y-132548073D01*
X92379167Y-132590899D01*
X92355997Y-132622732D01*
X92322277Y-132660040D01*
X92284862Y-132693074D01*
X92243753Y-132721834D01*
X92198949Y-132746319D01*
X92198949Y-132977861D01*
G37*
G36*
X92214581Y-133390143D02*
G01*
X92214581Y-134054484D01*
X92449054Y-134054484D01*
X92449054Y-133604589D01*
X92590471Y-133580408D01*
X92569588Y-133626815D01*
X92554811Y-133672732D01*
X92545473Y-133720985D01*
X92542843Y-133763102D01*
X92546029Y-133817788D01*
X92555586Y-133868455D01*
X92571514Y-133915103D01*
X92598150Y-133964447D01*
X92633457Y-134008322D01*
X92675345Y-134045057D01*
X92721721Y-134072770D01*
X92772584Y-134091459D01*
X92827936Y-134101127D01*
X92861580Y-134102600D01*
X92915386Y-134098755D01*
X92967995Y-134087221D01*
X93019405Y-134067998D01*
X93047449Y-134053995D01*
X93089398Y-134027281D01*
X93130313Y-133991170D01*
X93164582Y-133948645D01*
X93183736Y-133916731D01*
X93204253Y-133869165D01*
X93218907Y-133815370D01*
X93226922Y-133763191D01*
X93230448Y-133706243D01*
X93230631Y-133689097D01*
X93229105Y-133635284D01*
X93224526Y-133585954D01*
X93215858Y-133536399D01*
X93211336Y-133518127D01*
X93195819Y-133471774D01*
X93173757Y-133426934D01*
X93153695Y-133397226D01*
X93120886Y-133360005D01*
X93081856Y-133326773D01*
X93066988Y-133316626D01*
X93023547Y-133293157D01*
X92976435Y-133274569D01*
X92945844Y-133265091D01*
X92918000Y-133548168D01*
X92966032Y-133562427D01*
X93007187Y-133591660D01*
X93011301Y-133596284D01*
X93036076Y-133640575D01*
X93043053Y-133686410D01*
X93034359Y-133736681D01*
X93008277Y-133778044D01*
X93003485Y-133782886D01*
X92961431Y-133808932D01*
X92913551Y-133819648D01*
X92885516Y-133820988D01*
X92835351Y-133816428D01*
X92789162Y-133799281D01*
X92767791Y-133782397D01*
X92740968Y-133740813D01*
X92730750Y-133691833D01*
X92730422Y-133680060D01*
X92737386Y-133630429D01*
X92748251Y-133601658D01*
X92775863Y-133560382D01*
X92794902Y-133539864D01*
X92764127Y-133301727D01*
X92214581Y-133390143D01*
G37*
G36*
X86715000Y-135117429D02*
G01*
X86308579Y-135117429D01*
X86308579Y-135145028D01*
X86311842Y-135175665D01*
X86331782Y-135221232D01*
X86364979Y-135251225D01*
X86408963Y-135277652D01*
X86715000Y-135443737D01*
X86715000Y-135795447D01*
X86427526Y-135644993D01*
X86404525Y-135631215D01*
X86364511Y-135601274D01*
X86345765Y-135585993D01*
X86310778Y-135551692D01*
X86292154Y-135518720D01*
X86273408Y-135470604D01*
X86270405Y-135483350D01*
X86255701Y-135532580D01*
X86233841Y-135579780D01*
X86213615Y-135609364D01*
X86177951Y-135647443D01*
X86135900Y-135677966D01*
X86091711Y-135698407D01*
X86042097Y-135710364D01*
X85992285Y-135713870D01*
X85974634Y-135713458D01*
X85924748Y-135707275D01*
X85874712Y-135691705D01*
X85830352Y-135666975D01*
X85792804Y-135634933D01*
X85761034Y-135593019D01*
X85739249Y-135544121D01*
X85736262Y-135534329D01*
X85725205Y-135483679D01*
X85718652Y-135429606D01*
X85715448Y-135375304D01*
X85714581Y-135323570D01*
X85714581Y-135117429D01*
X85917791Y-135117429D01*
X85917791Y-135254205D01*
X85918018Y-135269709D01*
X85923480Y-135322150D01*
X85943681Y-135370220D01*
X85968424Y-135390304D01*
X86017930Y-135401239D01*
X86029946Y-135400552D01*
X86076060Y-135381699D01*
X86083457Y-135375313D01*
X86107323Y-135331141D01*
X86113935Y-135299924D01*
X86121001Y-135248587D01*
X86121001Y-135117429D01*
X85917791Y-135117429D01*
X85714581Y-135117429D01*
X85714581Y-134805042D01*
X86715000Y-134805042D01*
X86715000Y-135117429D01*
G37*
G36*
X85698949Y-136477861D02*
G01*
X86715000Y-136477861D01*
X86715000Y-136194784D01*
X86049682Y-136194784D01*
X86080980Y-136152318D01*
X86108319Y-136110711D01*
X86133819Y-136065935D01*
X86135900Y-136061916D01*
X86158251Y-136013915D01*
X86178019Y-135963616D01*
X86195362Y-135912923D01*
X86199159Y-135900960D01*
X85964685Y-135900960D01*
X85947097Y-135952291D01*
X85928221Y-135999122D01*
X85904570Y-136048073D01*
X85879167Y-136090899D01*
X85855997Y-136122732D01*
X85822277Y-136160040D01*
X85784862Y-136193074D01*
X85743753Y-136221834D01*
X85698949Y-136246319D01*
X85698949Y-136477861D01*
G37*
G36*
X86543053Y-137257729D02*
G01*
X86715000Y-137257729D01*
X86715000Y-137501483D01*
X86543053Y-137501483D01*
X86543053Y-137628001D01*
X86308579Y-137628001D01*
X86308579Y-137501483D01*
X85698949Y-137501483D01*
X85698949Y-137257729D01*
X85993262Y-137257729D01*
X86308579Y-137257729D01*
X86308579Y-136988573D01*
X85993262Y-137257729D01*
X85698949Y-137257729D01*
X86310778Y-136747994D01*
X86543053Y-136747994D01*
X86543053Y-137257729D01*
G37*
G36*
X88215000Y-135117429D02*
G01*
X87808579Y-135117429D01*
X87808579Y-135145028D01*
X87811842Y-135175665D01*
X87831782Y-135221232D01*
X87864979Y-135251225D01*
X87908963Y-135277652D01*
X88215000Y-135443737D01*
X88215000Y-135795447D01*
X87927526Y-135644993D01*
X87904525Y-135631215D01*
X87864511Y-135601274D01*
X87845765Y-135585993D01*
X87810778Y-135551692D01*
X87792154Y-135518720D01*
X87773408Y-135470604D01*
X87770405Y-135483350D01*
X87755701Y-135532580D01*
X87733841Y-135579780D01*
X87713615Y-135609364D01*
X87677951Y-135647443D01*
X87635900Y-135677966D01*
X87591711Y-135698407D01*
X87542097Y-135710364D01*
X87492285Y-135713870D01*
X87474634Y-135713458D01*
X87424748Y-135707275D01*
X87374712Y-135691705D01*
X87330352Y-135666975D01*
X87292804Y-135634933D01*
X87261034Y-135593019D01*
X87239249Y-135544121D01*
X87236262Y-135534329D01*
X87225205Y-135483679D01*
X87218652Y-135429606D01*
X87215448Y-135375304D01*
X87214581Y-135323570D01*
X87214581Y-135117429D01*
X87417791Y-135117429D01*
X87417791Y-135254205D01*
X87418018Y-135269709D01*
X87423480Y-135322150D01*
X87443681Y-135370220D01*
X87468424Y-135390304D01*
X87517930Y-135401239D01*
X87529946Y-135400552D01*
X87576060Y-135381699D01*
X87583457Y-135375313D01*
X87607323Y-135331141D01*
X87613935Y-135299924D01*
X87621001Y-135248587D01*
X87621001Y-135117429D01*
X87417791Y-135117429D01*
X87214581Y-135117429D01*
X87214581Y-134805042D01*
X88215000Y-134805042D01*
X88215000Y-135117429D01*
G37*
G36*
X87198949Y-136477861D02*
G01*
X88215000Y-136477861D01*
X88215000Y-136194784D01*
X87549682Y-136194784D01*
X87580980Y-136152318D01*
X87608319Y-136110711D01*
X87633819Y-136065935D01*
X87635900Y-136061916D01*
X87658251Y-136013915D01*
X87678019Y-135963616D01*
X87695362Y-135912923D01*
X87699159Y-135900960D01*
X87464685Y-135900960D01*
X87447097Y-135952291D01*
X87428221Y-135999122D01*
X87404570Y-136048073D01*
X87379167Y-136090899D01*
X87355997Y-136122732D01*
X87322277Y-136160040D01*
X87284862Y-136193074D01*
X87243753Y-136221834D01*
X87198949Y-136246319D01*
X87198949Y-136477861D01*
G37*
G36*
X87511580Y-137048168D02*
G01*
X87467616Y-136783653D01*
X87420945Y-136798156D01*
X87371921Y-136820481D01*
X87328741Y-136848626D01*
X87291405Y-136882591D01*
X87268314Y-136910415D01*
X87241286Y-136955177D01*
X87220897Y-137007394D01*
X87208704Y-137058087D01*
X87201388Y-137114258D01*
X87199017Y-137165252D01*
X87198949Y-137175907D01*
X87200690Y-137234907D01*
X87205914Y-137288564D01*
X87214620Y-137336879D01*
X87229664Y-137387803D01*
X87253553Y-137437492D01*
X87270268Y-137461183D01*
X87308111Y-137499651D01*
X87350563Y-137527129D01*
X87397626Y-137543615D01*
X87449298Y-137549110D01*
X87498563Y-137543185D01*
X87547289Y-137523550D01*
X87563604Y-137513207D01*
X87603182Y-137478227D01*
X87633396Y-137439247D01*
X87653485Y-137405496D01*
X87668244Y-137454157D01*
X87687435Y-137494644D01*
X87718577Y-137534201D01*
X87757292Y-137565250D01*
X87769745Y-137572558D01*
X87817984Y-137591592D01*
X87869558Y-137599722D01*
X87891133Y-137600401D01*
X87940445Y-137596750D01*
X87988635Y-137585796D01*
X88035705Y-137567538D01*
X88061371Y-137554240D01*
X88104165Y-137525204D01*
X88141046Y-137489754D01*
X88172016Y-137447889D01*
X88186667Y-137421860D01*
X88205901Y-137375225D01*
X88219640Y-137321781D01*
X88227153Y-137269434D01*
X88230245Y-137220415D01*
X88230631Y-137194470D01*
X88229506Y-137145031D01*
X88225350Y-137092496D01*
X88216852Y-137039239D01*
X88202510Y-136987975D01*
X88198635Y-136977826D01*
X88175599Y-136930958D01*
X88146791Y-136889575D01*
X88112210Y-136853678D01*
X88104602Y-136847157D01*
X88062751Y-136817566D01*
X88014747Y-136792603D01*
X87966282Y-136774092D01*
X87949019Y-136768755D01*
X87918000Y-137048168D01*
X87964860Y-137063018D01*
X88006338Y-137088824D01*
X88015942Y-137099215D01*
X88037863Y-137144381D01*
X88043053Y-137187631D01*
X88034520Y-137236164D01*
X88006607Y-137278822D01*
X88004218Y-137281176D01*
X87961946Y-137308174D01*
X87912325Y-137318459D01*
X87900415Y-137318789D01*
X87851594Y-137312824D01*
X87807583Y-137291114D01*
X87798077Y-137282642D01*
X87770783Y-137240265D01*
X87761720Y-137188781D01*
X87761685Y-137184944D01*
X87767791Y-137134092D01*
X87777316Y-137094330D01*
X87571175Y-137108741D01*
X87574106Y-137145133D01*
X87566596Y-137195508D01*
X87544064Y-137236724D01*
X87504515Y-137267518D01*
X87472990Y-137273605D01*
X87424664Y-137259347D01*
X87410219Y-137246005D01*
X87389327Y-137201161D01*
X87386528Y-137170534D01*
X87395338Y-137120628D01*
X87414371Y-137089934D01*
X87455552Y-137062819D01*
X87503043Y-137049620D01*
X87511580Y-137048168D01*
G37*
G36*
X85215000Y-135117429D02*
G01*
X84808579Y-135117429D01*
X84808579Y-135145028D01*
X84811842Y-135175665D01*
X84831782Y-135221232D01*
X84864979Y-135251225D01*
X84908963Y-135277652D01*
X85215000Y-135443737D01*
X85215000Y-135795447D01*
X84927526Y-135644993D01*
X84904525Y-135631215D01*
X84864511Y-135601274D01*
X84845765Y-135585993D01*
X84810778Y-135551692D01*
X84792154Y-135518720D01*
X84773408Y-135470604D01*
X84770405Y-135483350D01*
X84755701Y-135532580D01*
X84733841Y-135579780D01*
X84713615Y-135609364D01*
X84677951Y-135647443D01*
X84635900Y-135677966D01*
X84591711Y-135698407D01*
X84542097Y-135710364D01*
X84492285Y-135713870D01*
X84474634Y-135713458D01*
X84424748Y-135707275D01*
X84374712Y-135691705D01*
X84330352Y-135666975D01*
X84292804Y-135634933D01*
X84261034Y-135593019D01*
X84239249Y-135544121D01*
X84236262Y-135534329D01*
X84225205Y-135483679D01*
X84218652Y-135429606D01*
X84215448Y-135375304D01*
X84214581Y-135323570D01*
X84214581Y-135117429D01*
X84417791Y-135117429D01*
X84417791Y-135254205D01*
X84418018Y-135269709D01*
X84423480Y-135322150D01*
X84443681Y-135370220D01*
X84468424Y-135390304D01*
X84517930Y-135401239D01*
X84529946Y-135400552D01*
X84576060Y-135381699D01*
X84583457Y-135375313D01*
X84607323Y-135331141D01*
X84613935Y-135299924D01*
X84621001Y-135248587D01*
X84621001Y-135117429D01*
X84417791Y-135117429D01*
X84214581Y-135117429D01*
X84214581Y-134805042D01*
X85215000Y-134805042D01*
X85215000Y-135117429D01*
G37*
G36*
X84198949Y-136477861D02*
G01*
X85215000Y-136477861D01*
X85215000Y-136194784D01*
X84549682Y-136194784D01*
X84580980Y-136152318D01*
X84608319Y-136110711D01*
X84633819Y-136065935D01*
X84635900Y-136061916D01*
X84658251Y-136013915D01*
X84678019Y-135963616D01*
X84695362Y-135912923D01*
X84699159Y-135900960D01*
X84464685Y-135900960D01*
X84447097Y-135952291D01*
X84428221Y-135999122D01*
X84404570Y-136048073D01*
X84379167Y-136090899D01*
X84355997Y-136122732D01*
X84322277Y-136160040D01*
X84284862Y-136193074D01*
X84243753Y-136221834D01*
X84198949Y-136246319D01*
X84198949Y-136477861D01*
G37*
G36*
X85215000Y-137595761D02*
G01*
X85215000Y-136756298D01*
X85160681Y-136765408D01*
X85107789Y-136780127D01*
X85056323Y-136800457D01*
X85006283Y-136826396D01*
X84978328Y-136843737D01*
X84935409Y-136875714D01*
X84897741Y-136909235D01*
X84858344Y-136949006D01*
X84825581Y-136985322D01*
X84791711Y-137025637D01*
X84756735Y-137069952D01*
X84720652Y-137118266D01*
X84688475Y-137161302D01*
X84654798Y-137203611D01*
X84621406Y-137241545D01*
X84584364Y-137275559D01*
X84541703Y-137300277D01*
X84495949Y-137309997D01*
X84446737Y-137298028D01*
X84418524Y-137276047D01*
X84392652Y-137232289D01*
X84386528Y-137190562D01*
X84395198Y-137141774D01*
X84421210Y-137102879D01*
X84465088Y-137075935D01*
X84516883Y-137061412D01*
X84542843Y-137057205D01*
X84519640Y-136776815D01*
X84470518Y-136785390D01*
X84420475Y-136798396D01*
X84371950Y-136817115D01*
X84335725Y-136837387D01*
X84297386Y-136868370D01*
X84265105Y-136906366D01*
X84238882Y-136951375D01*
X84234364Y-136961218D01*
X84217245Y-137011149D01*
X84206731Y-137063707D01*
X84201163Y-137116007D01*
X84199088Y-137165523D01*
X84198949Y-137182990D01*
X84200117Y-137236010D01*
X84204431Y-137292050D01*
X84211925Y-137341825D01*
X84224381Y-137391040D01*
X84232166Y-137412579D01*
X84256233Y-137460564D01*
X84287216Y-137501632D01*
X84325117Y-137535783D01*
X84333527Y-137541783D01*
X84377891Y-137566642D01*
X84425500Y-137582293D01*
X84476352Y-137588738D01*
X84486912Y-137588922D01*
X84536989Y-137584652D01*
X84585830Y-137571843D01*
X84633434Y-137550495D01*
X84659347Y-137534944D01*
X84701509Y-137502445D01*
X84740054Y-137464967D01*
X84774321Y-137426126D01*
X84809721Y-137381086D01*
X84840087Y-137338817D01*
X84869648Y-137295706D01*
X84898381Y-137255031D01*
X84920443Y-137225733D01*
X84952700Y-137188472D01*
X84980526Y-137158810D01*
X84980526Y-137595761D01*
X85215000Y-137595761D01*
G37*
G36*
X74624957Y-157090000D02*
G01*
X74312570Y-157090000D01*
X74312570Y-156683579D01*
X74284971Y-156683579D01*
X74254334Y-156686842D01*
X74208767Y-156706782D01*
X74178774Y-156739979D01*
X74152347Y-156783963D01*
X73986262Y-157090000D01*
X73634552Y-157090000D01*
X73785006Y-156802526D01*
X73798784Y-156779525D01*
X73828725Y-156739511D01*
X73844006Y-156720765D01*
X73878307Y-156685778D01*
X73911279Y-156667154D01*
X73959395Y-156648408D01*
X73946649Y-156645405D01*
X73897419Y-156630701D01*
X73850219Y-156608841D01*
X73820635Y-156588615D01*
X73782556Y-156552951D01*
X73752033Y-156510900D01*
X73731592Y-156466711D01*
X73719635Y-156417097D01*
X73717934Y-156392930D01*
X74028760Y-156392930D01*
X74029447Y-156404946D01*
X74048300Y-156451060D01*
X74054686Y-156458457D01*
X74098858Y-156482323D01*
X74130075Y-156488935D01*
X74181412Y-156496001D01*
X74312570Y-156496001D01*
X74312570Y-156292791D01*
X74175794Y-156292791D01*
X74160290Y-156293018D01*
X74107849Y-156298480D01*
X74059779Y-156318681D01*
X74039695Y-156343424D01*
X74028760Y-156392930D01*
X73717934Y-156392930D01*
X73716129Y-156367285D01*
X73716541Y-156349634D01*
X73722724Y-156299748D01*
X73738294Y-156249712D01*
X73763024Y-156205352D01*
X73795066Y-156167804D01*
X73836980Y-156136034D01*
X73885878Y-156114249D01*
X73895670Y-156111262D01*
X73946320Y-156100205D01*
X74000393Y-156093652D01*
X74054695Y-156090448D01*
X74106429Y-156089581D01*
X74624957Y-156089581D01*
X74624957Y-157090000D01*
G37*
G36*
X72952138Y-156073949D02*
G01*
X72952138Y-157090000D01*
X73235215Y-157090000D01*
X73235215Y-156424682D01*
X73277681Y-156455980D01*
X73319288Y-156483319D01*
X73364064Y-156508819D01*
X73368083Y-156510900D01*
X73416084Y-156533251D01*
X73466383Y-156553019D01*
X73517076Y-156570362D01*
X73529039Y-156574159D01*
X73529039Y-156339685D01*
X73477708Y-156322097D01*
X73430877Y-156303221D01*
X73381926Y-156279570D01*
X73339100Y-156254167D01*
X73307267Y-156230997D01*
X73269959Y-156197277D01*
X73236925Y-156159862D01*
X73208165Y-156118753D01*
X73183680Y-156073949D01*
X72952138Y-156073949D01*
G37*
G36*
X72260814Y-156074394D02*
G01*
X72310319Y-156077951D01*
X72367456Y-156087398D01*
X72419322Y-156102404D01*
X72465916Y-156122966D01*
X72507240Y-156149086D01*
X72549870Y-156187766D01*
X72574084Y-156218827D01*
X72599812Y-156265156D01*
X72620495Y-156319821D01*
X72633409Y-156369555D01*
X72643095Y-156424624D01*
X72649552Y-156485028D01*
X72652276Y-156533833D01*
X72653184Y-156585638D01*
X72653165Y-156592854D01*
X72651917Y-156642272D01*
X72648116Y-156696402D01*
X72641781Y-156748029D01*
X72632912Y-156797152D01*
X72631629Y-156803082D01*
X72618668Y-156852904D01*
X72601275Y-156900784D01*
X72576248Y-156947850D01*
X72559909Y-156971139D01*
X72527014Y-157008491D01*
X72489636Y-157039970D01*
X72447776Y-157065575D01*
X72442829Y-157068040D01*
X72394028Y-157086698D01*
X72344195Y-157097964D01*
X72295607Y-157103714D01*
X72242368Y-157105631D01*
X72214559Y-157105140D01*
X72162077Y-157101209D01*
X72102357Y-157090768D01*
X72049172Y-157074185D01*
X72002522Y-157051460D01*
X71962408Y-157022593D01*
X71922898Y-156979846D01*
X71906312Y-156954936D01*
X71882293Y-156907733D01*
X71862806Y-156853423D01*
X71850479Y-156804856D01*
X71841053Y-156751741D01*
X71834527Y-156694077D01*
X71830902Y-156631864D01*
X71830315Y-156596140D01*
X72108279Y-156596140D01*
X72108642Y-156636678D01*
X72110374Y-156687560D01*
X72114695Y-156742916D01*
X72123177Y-156795198D01*
X72124110Y-156799149D01*
X72140565Y-156847448D01*
X72169095Y-156888499D01*
X72194122Y-156906508D01*
X72242856Y-156918053D01*
X72266046Y-156915605D01*
X72311741Y-156890861D01*
X72341531Y-156848443D01*
X72357942Y-156799763D01*
X72366993Y-156748731D01*
X72372165Y-156695817D01*
X72374651Y-156645255D01*
X72375480Y-156588813D01*
X72374729Y-156532934D01*
X72372475Y-156482839D01*
X72367787Y-156430361D01*
X72359582Y-156379662D01*
X72344706Y-156331137D01*
X72331725Y-156307481D01*
X72294352Y-156273016D01*
X72244322Y-156261528D01*
X72216145Y-156264800D01*
X72172499Y-156288242D01*
X72142228Y-156329916D01*
X72125817Y-156378525D01*
X72116766Y-156430544D01*
X72111594Y-156485029D01*
X72109107Y-156537412D01*
X72108279Y-156596140D01*
X71830315Y-156596140D01*
X71830086Y-156582219D01*
X71830525Y-156552081D01*
X71833405Y-156500057D01*
X71838973Y-156448945D01*
X71847230Y-156398744D01*
X71858174Y-156349455D01*
X71860012Y-156342215D01*
X71874966Y-156294684D01*
X71896520Y-156247117D01*
X71898018Y-156244374D01*
X71926655Y-156201578D01*
X71961489Y-156163342D01*
X71980609Y-156146649D01*
X72022320Y-156119493D01*
X72067979Y-156098862D01*
X72080526Y-156094410D01*
X72132005Y-156081832D01*
X72180522Y-156075920D01*
X72234796Y-156073949D01*
X72260814Y-156074394D01*
G37*
G36*
X74153453Y-155675000D02*
G01*
X73841066Y-155675000D01*
X73841066Y-155268579D01*
X73813467Y-155268579D01*
X73782830Y-155271842D01*
X73737263Y-155291782D01*
X73707270Y-155324979D01*
X73680843Y-155368963D01*
X73514758Y-155675000D01*
X73163048Y-155675000D01*
X73313502Y-155387526D01*
X73327280Y-155364525D01*
X73357221Y-155324511D01*
X73372502Y-155305765D01*
X73406803Y-155270778D01*
X73439775Y-155252154D01*
X73487891Y-155233408D01*
X73475145Y-155230405D01*
X73425915Y-155215701D01*
X73378715Y-155193841D01*
X73349131Y-155173615D01*
X73311052Y-155137951D01*
X73280529Y-155095900D01*
X73260088Y-155051711D01*
X73248131Y-155002097D01*
X73246430Y-154977930D01*
X73557256Y-154977930D01*
X73557943Y-154989946D01*
X73576796Y-155036060D01*
X73583182Y-155043457D01*
X73627354Y-155067323D01*
X73658571Y-155073935D01*
X73709908Y-155081001D01*
X73841066Y-155081001D01*
X73841066Y-154877791D01*
X73704290Y-154877791D01*
X73688786Y-154878018D01*
X73636345Y-154883480D01*
X73588275Y-154903681D01*
X73568191Y-154928424D01*
X73557256Y-154977930D01*
X73246430Y-154977930D01*
X73244625Y-154952285D01*
X73245037Y-154934634D01*
X73251220Y-154884748D01*
X73266790Y-154834712D01*
X73291520Y-154790352D01*
X73323562Y-154752804D01*
X73365476Y-154721034D01*
X73414374Y-154699249D01*
X73424166Y-154696262D01*
X73474816Y-154685205D01*
X73528889Y-154678652D01*
X73583191Y-154675448D01*
X73634925Y-154674581D01*
X74153453Y-154674581D01*
X74153453Y-155675000D01*
G37*
G36*
X72789747Y-154660924D02*
G01*
X72845255Y-154668019D01*
X72895481Y-154680273D01*
X72945672Y-154700226D01*
X72970752Y-154714015D01*
X73011509Y-154743703D01*
X73046624Y-154779651D01*
X73076098Y-154821859D01*
X73089748Y-154847400D01*
X73108488Y-154895537D01*
X73119733Y-154946456D01*
X73123481Y-155000157D01*
X73121209Y-155043749D01*
X73112485Y-155092865D01*
X73094037Y-155145761D01*
X73066684Y-155193911D01*
X73030424Y-155237316D01*
X73000313Y-155264336D01*
X72954690Y-155294469D01*
X72905023Y-155315627D01*
X72851313Y-155327808D01*
X72802057Y-155331106D01*
X72780786Y-155330473D01*
X72729277Y-155322914D01*
X72679936Y-155305216D01*
X72650355Y-155288158D01*
X72611635Y-155258082D01*
X72576865Y-155223150D01*
X72582484Y-155279942D01*
X72590276Y-155336259D01*
X72600813Y-155387512D01*
X72618142Y-155435153D01*
X72633295Y-155458228D01*
X72673313Y-155491846D01*
X72723167Y-155503053D01*
X72741256Y-155501740D01*
X72786914Y-155482048D01*
X72808087Y-155455472D01*
X72824039Y-155409263D01*
X73102232Y-155440038D01*
X73084739Y-155489092D01*
X73060703Y-155536825D01*
X73031645Y-155578035D01*
X73000528Y-155609958D01*
X72961065Y-155639123D01*
X72916119Y-155662055D01*
X72878261Y-155674557D01*
X72828081Y-155684352D01*
X72776728Y-155689264D01*
X72726586Y-155690631D01*
X72701502Y-155690141D01*
X72641829Y-155684624D01*
X72586498Y-155672977D01*
X72535507Y-155655200D01*
X72488858Y-155631293D01*
X72446549Y-155601257D01*
X72408582Y-155565090D01*
X72388067Y-155540280D01*
X72358360Y-155493283D01*
X72334257Y-155439225D01*
X72319011Y-155390895D01*
X72307352Y-155338047D01*
X72299281Y-155280681D01*
X72294797Y-155218796D01*
X72293788Y-155169417D01*
X72294269Y-155135566D01*
X72297207Y-155081963D01*
X72302817Y-155031877D01*
X72309046Y-154998203D01*
X72587124Y-154998203D01*
X72587738Y-155015219D01*
X72598222Y-155063513D01*
X72626447Y-155105914D01*
X72631409Y-155110468D01*
X72673551Y-155135262D01*
X72724388Y-155143527D01*
X72727941Y-155143489D01*
X72776778Y-155133818D01*
X72819643Y-155104692D01*
X72832591Y-155088910D01*
X72852387Y-155042601D01*
X72857745Y-154992341D01*
X72857172Y-154974656D01*
X72847405Y-154925088D01*
X72821108Y-154882920D01*
X72779526Y-154855626D01*
X72728540Y-154846528D01*
X72721222Y-154846685D01*
X72670840Y-154857902D01*
X72628401Y-154886828D01*
X72614373Y-154903022D01*
X72592928Y-154949224D01*
X72587124Y-154998203D01*
X72309046Y-154998203D01*
X72313075Y-154976419D01*
X72327180Y-154926027D01*
X72348498Y-154873639D01*
X72355451Y-154859892D01*
X72382053Y-154815507D01*
X72412185Y-154776919D01*
X72450943Y-154739916D01*
X72494311Y-154710484D01*
X72530670Y-154692971D01*
X72578406Y-154677117D01*
X72631870Y-154666196D01*
X72682253Y-154660761D01*
X72736844Y-154658949D01*
X72789747Y-154660924D01*
G37*
G36*
X93915000Y-120583933D02*
G01*
X93508579Y-120583933D01*
X93508579Y-120611532D01*
X93511842Y-120642169D01*
X93531782Y-120687736D01*
X93564979Y-120717729D01*
X93608963Y-120744156D01*
X93915000Y-120910241D01*
X93915000Y-121261951D01*
X93627526Y-121111497D01*
X93604525Y-121097719D01*
X93564511Y-121067778D01*
X93545765Y-121052497D01*
X93510778Y-121018196D01*
X93492154Y-120985224D01*
X93473408Y-120937108D01*
X93470405Y-120949854D01*
X93455701Y-120999084D01*
X93433841Y-121046284D01*
X93413615Y-121075868D01*
X93377951Y-121113947D01*
X93335900Y-121144470D01*
X93291711Y-121164911D01*
X93242097Y-121176868D01*
X93192285Y-121180374D01*
X93174634Y-121179962D01*
X93124748Y-121173779D01*
X93074712Y-121158209D01*
X93030352Y-121133479D01*
X92992804Y-121101437D01*
X92961034Y-121059523D01*
X92939249Y-121010625D01*
X92936262Y-121000833D01*
X92925205Y-120950183D01*
X92918652Y-120896110D01*
X92915448Y-120841808D01*
X92914581Y-120790074D01*
X92914581Y-120583933D01*
X93117791Y-120583933D01*
X93117791Y-120720709D01*
X93118018Y-120736213D01*
X93123480Y-120788654D01*
X93143681Y-120836724D01*
X93168424Y-120856808D01*
X93217930Y-120867743D01*
X93229946Y-120867056D01*
X93276060Y-120848203D01*
X93283457Y-120841817D01*
X93307323Y-120797645D01*
X93313935Y-120766428D01*
X93321001Y-120715091D01*
X93321001Y-120583933D01*
X93117791Y-120583933D01*
X92914581Y-120583933D01*
X92914581Y-120271546D01*
X93915000Y-120271546D01*
X93915000Y-120583933D01*
G37*
G36*
X93631602Y-121310697D02*
G01*
X93680835Y-121316493D01*
X93732322Y-121331091D01*
X93780422Y-121354275D01*
X93793982Y-121362874D01*
X93834626Y-121396687D01*
X93868257Y-121438418D01*
X93892529Y-121482746D01*
X93903506Y-121511004D01*
X93917199Y-121563905D01*
X93925273Y-121617958D01*
X93929292Y-121670056D01*
X93930631Y-121727478D01*
X93930615Y-121732780D01*
X93928640Y-121784758D01*
X93923373Y-121834828D01*
X93913778Y-121887701D01*
X93905398Y-121919432D01*
X93886846Y-121968336D01*
X93860778Y-122013486D01*
X93838068Y-122040669D01*
X93800395Y-122073007D01*
X93758440Y-122098727D01*
X93716093Y-122117016D01*
X93667253Y-122129311D01*
X93616046Y-122133409D01*
X93567970Y-122129474D01*
X93518283Y-122116054D01*
X93471943Y-122093109D01*
X93463892Y-122087939D01*
X93423190Y-122053671D01*
X93391448Y-122013953D01*
X93367163Y-121971232D01*
X93357111Y-121986165D01*
X93323914Y-122027582D01*
X93284609Y-122061846D01*
X93262784Y-122074961D01*
X93213436Y-122094068D01*
X93161266Y-122100437D01*
X93154236Y-122100342D01*
X93100709Y-122092805D01*
X93052005Y-122073208D01*
X93008125Y-122041552D01*
X92973688Y-122003961D01*
X92948288Y-121964073D01*
X92928144Y-121916766D01*
X92913255Y-121862040D01*
X92904861Y-121810768D01*
X92900117Y-121754344D01*
X92899270Y-121718929D01*
X93086528Y-121718929D01*
X93090922Y-121756826D01*
X93113150Y-121801483D01*
X93133190Y-121819839D01*
X93182027Y-121833723D01*
X93206041Y-121830694D01*
X93248461Y-121802705D01*
X93265992Y-121772458D01*
X93274106Y-121723814D01*
X93273591Y-121718929D01*
X93461685Y-121718929D01*
X93461723Y-121722229D01*
X93472852Y-121771589D01*
X93501252Y-121811986D01*
X93508823Y-121819188D01*
X93552600Y-121844572D01*
X93602369Y-121852286D01*
X93609918Y-121852130D01*
X93661249Y-121841050D01*
X93703241Y-121812474D01*
X93731817Y-121772897D01*
X93743053Y-121722593D01*
X93743014Y-121719338D01*
X93732023Y-121670367D01*
X93703974Y-121629781D01*
X93696405Y-121622535D01*
X93652703Y-121596997D01*
X93603101Y-121589236D01*
X93591156Y-121589578D01*
X93541655Y-121600196D01*
X93500031Y-121628071D01*
X93471271Y-121670203D01*
X93461685Y-121718929D01*
X93273591Y-121718929D01*
X93269833Y-121683306D01*
X93248217Y-121636864D01*
X93228345Y-121618369D01*
X93179829Y-121604379D01*
X93153269Y-121608131D01*
X93112662Y-121636131D01*
X93093903Y-121670259D01*
X93086528Y-121718929D01*
X92899270Y-121718929D01*
X92898949Y-121705496D01*
X92900410Y-121659259D01*
X92906020Y-121607648D01*
X92917883Y-121552773D01*
X92935472Y-121503650D01*
X92958789Y-121460276D01*
X92978966Y-121432398D01*
X93017636Y-121392556D01*
X93060584Y-121364097D01*
X93107809Y-121347022D01*
X93159312Y-121341330D01*
X93195582Y-121343910D01*
X93245866Y-121357454D01*
X93291203Y-121382607D01*
X93306674Y-121395135D01*
X93340567Y-121434184D01*
X93367163Y-121478594D01*
X93369312Y-121473265D01*
X93393822Y-121424769D01*
X93423818Y-121385003D01*
X93463150Y-121351344D01*
X93467054Y-121348819D01*
X93513525Y-121326339D01*
X93561382Y-121314318D01*
X93614581Y-121310311D01*
X93631602Y-121310697D01*
G37*
G36*
X92345000Y-120583933D02*
G01*
X91938579Y-120583933D01*
X91938579Y-120611532D01*
X91941842Y-120642169D01*
X91961782Y-120687736D01*
X91994979Y-120717729D01*
X92038963Y-120744156D01*
X92345000Y-120910241D01*
X92345000Y-121261951D01*
X92057526Y-121111497D01*
X92034525Y-121097719D01*
X91994511Y-121067778D01*
X91975765Y-121052497D01*
X91940778Y-121018196D01*
X91922154Y-120985224D01*
X91903408Y-120937108D01*
X91900405Y-120949854D01*
X91885701Y-120999084D01*
X91863841Y-121046284D01*
X91843615Y-121075868D01*
X91807951Y-121113947D01*
X91765900Y-121144470D01*
X91721711Y-121164911D01*
X91672097Y-121176868D01*
X91622285Y-121180374D01*
X91604634Y-121179962D01*
X91554748Y-121173779D01*
X91504712Y-121158209D01*
X91460352Y-121133479D01*
X91422804Y-121101437D01*
X91391034Y-121059523D01*
X91369249Y-121010625D01*
X91366262Y-121000833D01*
X91355205Y-120950183D01*
X91348652Y-120896110D01*
X91345448Y-120841808D01*
X91344581Y-120790074D01*
X91344581Y-120583933D01*
X91547791Y-120583933D01*
X91547791Y-120720709D01*
X91548018Y-120736213D01*
X91553480Y-120788654D01*
X91573681Y-120836724D01*
X91598424Y-120856808D01*
X91647930Y-120867743D01*
X91659946Y-120867056D01*
X91706060Y-120848203D01*
X91713457Y-120841817D01*
X91737323Y-120797645D01*
X91743935Y-120766428D01*
X91751001Y-120715091D01*
X91751001Y-120583933D01*
X91547791Y-120583933D01*
X91344581Y-120583933D01*
X91344581Y-120271546D01*
X92345000Y-120271546D01*
X92345000Y-120583933D01*
G37*
G36*
X91344581Y-121315196D02*
G01*
X91344581Y-122131944D01*
X91531915Y-122131944D01*
X91568285Y-122093247D01*
X91605772Y-122057022D01*
X91644375Y-122023271D01*
X91684094Y-121991993D01*
X91724929Y-121963187D01*
X91738789Y-121954135D01*
X91781754Y-121927998D01*
X91826234Y-121903626D01*
X91872229Y-121881020D01*
X91919738Y-121860178D01*
X91968762Y-121841101D01*
X92019301Y-121823790D01*
X92039940Y-121817359D01*
X92089957Y-121803349D01*
X92143289Y-121791175D01*
X92199935Y-121780840D01*
X92249673Y-121773631D01*
X92301711Y-121767698D01*
X92345000Y-121763870D01*
X92345000Y-121484945D01*
X92284992Y-121493775D01*
X92227458Y-121503782D01*
X92172396Y-121514964D01*
X92119808Y-121527321D01*
X92069692Y-121540853D01*
X92022049Y-121555561D01*
X91965974Y-121575599D01*
X91934183Y-121588504D01*
X91881721Y-121612648D01*
X91828138Y-121640811D01*
X91784464Y-121666235D01*
X91740073Y-121694231D01*
X91694964Y-121724800D01*
X91649138Y-121757940D01*
X91602595Y-121793653D01*
X91579054Y-121812474D01*
X91579054Y-121315196D01*
X91344581Y-121315196D01*
G37*
G36*
X87415000Y-120583933D02*
G01*
X87008579Y-120583933D01*
X87008579Y-120611532D01*
X87011842Y-120642169D01*
X87031782Y-120687736D01*
X87064979Y-120717729D01*
X87108963Y-120744156D01*
X87415000Y-120910241D01*
X87415000Y-121261951D01*
X87127526Y-121111497D01*
X87104525Y-121097719D01*
X87064511Y-121067778D01*
X87045765Y-121052497D01*
X87010778Y-121018196D01*
X86992154Y-120985224D01*
X86973408Y-120937108D01*
X86970405Y-120949854D01*
X86955701Y-120999084D01*
X86933841Y-121046284D01*
X86913615Y-121075868D01*
X86877951Y-121113947D01*
X86835900Y-121144470D01*
X86791711Y-121164911D01*
X86742097Y-121176868D01*
X86692285Y-121180374D01*
X86674634Y-121179962D01*
X86624748Y-121173779D01*
X86574712Y-121158209D01*
X86530352Y-121133479D01*
X86492804Y-121101437D01*
X86461034Y-121059523D01*
X86439249Y-121010625D01*
X86436262Y-121000833D01*
X86425205Y-120950183D01*
X86418652Y-120896110D01*
X86415448Y-120841808D01*
X86414581Y-120790074D01*
X86414581Y-120583933D01*
X86617791Y-120583933D01*
X86617791Y-120720709D01*
X86618018Y-120736213D01*
X86623480Y-120788654D01*
X86643681Y-120836724D01*
X86668424Y-120856808D01*
X86717930Y-120867743D01*
X86729946Y-120867056D01*
X86776060Y-120848203D01*
X86783457Y-120841817D01*
X86807323Y-120797645D01*
X86813935Y-120766428D01*
X86821001Y-120715091D01*
X86821001Y-120583933D01*
X86617791Y-120583933D01*
X86414581Y-120583933D01*
X86414581Y-120271546D01*
X87415000Y-120271546D01*
X87415000Y-120583933D01*
G37*
G36*
X86954104Y-121312255D02*
G01*
X87007847Y-121315181D01*
X87058060Y-121320765D01*
X87113655Y-121330978D01*
X87164168Y-121345020D01*
X87216674Y-121366243D01*
X87230420Y-121373224D01*
X87274787Y-121399915D01*
X87313333Y-121430112D01*
X87350260Y-121468916D01*
X87379584Y-121512300D01*
X87396932Y-121548659D01*
X87412635Y-121596395D01*
X87423453Y-121649858D01*
X87428836Y-121700242D01*
X87430631Y-121754833D01*
X87428668Y-121807747D01*
X87421615Y-121863297D01*
X87409433Y-121913596D01*
X87389598Y-121963905D01*
X87375745Y-121989114D01*
X87346001Y-122029982D01*
X87310074Y-122065054D01*
X87267965Y-122094330D01*
X87242372Y-122107911D01*
X87194261Y-122126554D01*
X87143523Y-122137741D01*
X87090157Y-122141469D01*
X87046353Y-122139197D01*
X86997031Y-122130473D01*
X86943960Y-122112026D01*
X86895704Y-122084672D01*
X86852264Y-122048413D01*
X86825245Y-122018319D01*
X86795111Y-121972781D01*
X86773954Y-121923270D01*
X86761772Y-121869785D01*
X86758475Y-121820778D01*
X86759402Y-121795259D01*
X86767774Y-121743973D01*
X86768278Y-121742621D01*
X86946053Y-121742621D01*
X86946091Y-121746159D01*
X86955762Y-121794889D01*
X86984888Y-121837875D01*
X87000687Y-121850990D01*
X87047170Y-121871039D01*
X87097728Y-121876466D01*
X87115298Y-121875886D01*
X87164600Y-121865988D01*
X87206660Y-121839341D01*
X87233954Y-121797759D01*
X87243053Y-121747261D01*
X87242895Y-121739884D01*
X87231679Y-121689111D01*
X87202752Y-121646389D01*
X87186558Y-121632361D01*
X87140356Y-121610917D01*
X87091378Y-121605112D01*
X87074361Y-121605726D01*
X87026067Y-121616210D01*
X86983667Y-121644435D01*
X86979112Y-121649455D01*
X86954318Y-121691852D01*
X86946053Y-121742621D01*
X86768278Y-121742621D01*
X86784853Y-121698169D01*
X86801970Y-121668706D01*
X86831886Y-121630083D01*
X86866430Y-121595342D01*
X86809664Y-121600712D01*
X86753442Y-121608279D01*
X86702384Y-121618644D01*
X86655160Y-121635887D01*
X86631836Y-121651139D01*
X86597855Y-121691434D01*
X86586528Y-121741644D01*
X86587856Y-121759809D01*
X86607777Y-121805147D01*
X86632000Y-121824949D01*
X86680317Y-121842028D01*
X86650031Y-122120220D01*
X86600615Y-122103090D01*
X86552703Y-122079233D01*
X86511545Y-122050123D01*
X86479646Y-122019087D01*
X86450562Y-121979547D01*
X86427770Y-121934351D01*
X86415161Y-121896387D01*
X86405282Y-121846123D01*
X86400328Y-121794729D01*
X86398949Y-121744575D01*
X86399440Y-121719489D01*
X86404957Y-121659806D01*
X86416603Y-121604452D01*
X86434380Y-121553427D01*
X86458287Y-121506731D01*
X86488324Y-121464364D01*
X86524490Y-121426326D01*
X86549300Y-121405855D01*
X86596297Y-121376211D01*
X86650355Y-121352160D01*
X86698685Y-121336946D01*
X86751533Y-121325312D01*
X86808899Y-121317258D01*
X86870784Y-121312783D01*
X86920163Y-121311776D01*
X86954104Y-121312255D01*
G37*
G36*
X74153453Y-158675000D02*
G01*
X73841066Y-158675000D01*
X73841066Y-158268579D01*
X73813467Y-158268579D01*
X73782830Y-158271842D01*
X73737263Y-158291782D01*
X73707270Y-158324979D01*
X73680843Y-158368963D01*
X73514758Y-158675000D01*
X73163048Y-158675000D01*
X73313502Y-158387526D01*
X73327280Y-158364525D01*
X73357221Y-158324511D01*
X73372502Y-158305765D01*
X73406803Y-158270778D01*
X73439775Y-158252154D01*
X73487891Y-158233408D01*
X73475145Y-158230405D01*
X73425915Y-158215701D01*
X73378715Y-158193841D01*
X73349131Y-158173615D01*
X73311052Y-158137951D01*
X73280529Y-158095900D01*
X73260088Y-158051711D01*
X73248131Y-158002097D01*
X73246430Y-157977930D01*
X73557256Y-157977930D01*
X73557943Y-157989946D01*
X73576796Y-158036060D01*
X73583182Y-158043457D01*
X73627354Y-158067323D01*
X73658571Y-158073935D01*
X73709908Y-158081001D01*
X73841066Y-158081001D01*
X73841066Y-157877791D01*
X73704290Y-157877791D01*
X73688786Y-157878018D01*
X73636345Y-157883480D01*
X73588275Y-157903681D01*
X73568191Y-157928424D01*
X73557256Y-157977930D01*
X73246430Y-157977930D01*
X73244625Y-157952285D01*
X73245037Y-157934634D01*
X73251220Y-157884748D01*
X73266790Y-157834712D01*
X73291520Y-157790352D01*
X73323562Y-157752804D01*
X73365476Y-157721034D01*
X73414374Y-157699249D01*
X73424166Y-157696262D01*
X73474816Y-157685205D01*
X73528889Y-157678652D01*
X73583191Y-157675448D01*
X73634925Y-157674581D01*
X74153453Y-157674581D01*
X74153453Y-158675000D01*
G37*
G36*
X73001359Y-157674581D02*
G01*
X72337019Y-157674581D01*
X72337019Y-157909054D01*
X72786914Y-157909054D01*
X72811094Y-158050471D01*
X72764688Y-158029588D01*
X72718770Y-158014811D01*
X72670518Y-158005473D01*
X72628401Y-158002843D01*
X72573715Y-158006029D01*
X72523048Y-158015586D01*
X72476399Y-158031514D01*
X72427055Y-158058150D01*
X72383181Y-158093457D01*
X72346446Y-158135345D01*
X72318733Y-158181721D01*
X72300043Y-158232584D01*
X72290376Y-158287936D01*
X72288903Y-158321580D01*
X72292748Y-158375386D01*
X72304282Y-158427995D01*
X72323505Y-158479405D01*
X72337507Y-158507449D01*
X72364221Y-158549398D01*
X72400333Y-158590313D01*
X72442858Y-158624582D01*
X72474772Y-158643736D01*
X72522338Y-158664253D01*
X72576133Y-158678907D01*
X72628312Y-158686922D01*
X72685260Y-158690448D01*
X72702406Y-158690631D01*
X72756219Y-158689105D01*
X72805549Y-158684526D01*
X72855104Y-158675858D01*
X72873376Y-158671336D01*
X72919729Y-158655819D01*
X72964569Y-158633757D01*
X72994276Y-158613695D01*
X73031498Y-158580886D01*
X73064730Y-158541856D01*
X73074876Y-158526988D01*
X73098346Y-158483547D01*
X73116933Y-158436435D01*
X73126412Y-158405844D01*
X72843334Y-158378000D01*
X72829076Y-158426032D01*
X72799843Y-158467187D01*
X72795218Y-158471301D01*
X72750928Y-158496076D01*
X72705093Y-158503053D01*
X72654821Y-158494359D01*
X72613459Y-158468277D01*
X72608617Y-158463485D01*
X72582571Y-158421431D01*
X72571855Y-158373551D01*
X72570515Y-158345516D01*
X72575075Y-158295351D01*
X72592222Y-158249162D01*
X72609105Y-158227791D01*
X72650690Y-158200968D01*
X72699670Y-158190750D01*
X72711443Y-158190422D01*
X72761074Y-158197386D01*
X72789845Y-158208251D01*
X72831121Y-158235863D01*
X72851639Y-158254902D01*
X73089775Y-158224127D01*
X73001359Y-157674581D01*
G37*
G36*
X68358453Y-152440000D02*
G01*
X68046066Y-152440000D01*
X68046066Y-152033579D01*
X68018467Y-152033579D01*
X67987830Y-152036842D01*
X67942263Y-152056782D01*
X67912270Y-152089979D01*
X67885843Y-152133963D01*
X67719758Y-152440000D01*
X67368048Y-152440000D01*
X67518502Y-152152526D01*
X67532280Y-152129525D01*
X67562221Y-152089511D01*
X67577502Y-152070765D01*
X67611803Y-152035778D01*
X67644775Y-152017154D01*
X67692891Y-151998408D01*
X67680145Y-151995405D01*
X67630915Y-151980701D01*
X67583715Y-151958841D01*
X67554131Y-151938615D01*
X67516052Y-151902951D01*
X67485529Y-151860900D01*
X67465088Y-151816711D01*
X67453131Y-151767097D01*
X67451430Y-151742930D01*
X67762256Y-151742930D01*
X67762943Y-151754946D01*
X67781796Y-151801060D01*
X67788182Y-151808457D01*
X67832354Y-151832323D01*
X67863571Y-151838935D01*
X67914908Y-151846001D01*
X68046066Y-151846001D01*
X68046066Y-151642791D01*
X67909290Y-151642791D01*
X67893786Y-151643018D01*
X67841345Y-151648480D01*
X67793275Y-151668681D01*
X67773191Y-151693424D01*
X67762256Y-151742930D01*
X67451430Y-151742930D01*
X67449625Y-151717285D01*
X67450037Y-151699634D01*
X67456220Y-151649748D01*
X67471790Y-151599712D01*
X67496520Y-151555352D01*
X67528562Y-151517804D01*
X67570476Y-151486034D01*
X67619374Y-151464249D01*
X67629166Y-151461262D01*
X67679816Y-151450205D01*
X67733889Y-151443652D01*
X67788191Y-151440448D01*
X67839925Y-151439581D01*
X68358453Y-151439581D01*
X68358453Y-152440000D01*
G37*
G36*
X67348509Y-152035778D02*
G01*
X67348509Y-152268053D01*
X66838774Y-152268053D01*
X66838774Y-152440000D01*
X66595020Y-152440000D01*
X66595020Y-152268053D01*
X66468502Y-152268053D01*
X66468502Y-152033579D01*
X66595020Y-152033579D01*
X66595020Y-151718262D01*
X66838774Y-151718262D01*
X66838774Y-152033579D01*
X67107930Y-152033579D01*
X66838774Y-151718262D01*
X66595020Y-151718262D01*
X66595020Y-151423949D01*
X66838774Y-151423949D01*
X67348509Y-152035778D01*
G37*
G36*
X89508579Y-138262841D02*
G01*
X89587470Y-138535416D01*
X89635370Y-138521928D01*
X89685733Y-138502793D01*
X89731426Y-138479690D01*
X89772447Y-138452617D01*
X89777247Y-138448954D01*
X89817037Y-138413446D01*
X89850954Y-138373417D01*
X89878998Y-138328867D01*
X89892041Y-138302164D01*
X89908924Y-138255452D01*
X89920983Y-138202757D01*
X89927578Y-138151740D01*
X89930480Y-138096141D01*
X89930631Y-138079414D01*
X89929480Y-138029590D01*
X89925061Y-137973674D01*
X89917327Y-137921982D01*
X89904115Y-137867015D01*
X89886392Y-137817797D01*
X89883492Y-137811236D01*
X89859338Y-137767071D01*
X89828334Y-137725617D01*
X89790482Y-137686875D01*
X89752586Y-137655826D01*
X89717163Y-137631473D01*
X89670131Y-137605824D01*
X89618428Y-137585483D01*
X89562053Y-137570447D01*
X89511507Y-137561972D01*
X89457716Y-137557181D01*
X89412348Y-137556002D01*
X89352283Y-137558078D01*
X89295798Y-137564306D01*
X89242893Y-137574686D01*
X89193567Y-137589219D01*
X89147821Y-137607903D01*
X89095673Y-137637098D01*
X89049118Y-137672780D01*
X89032062Y-137688870D01*
X88993714Y-137733086D01*
X88961866Y-137782694D01*
X88936517Y-137837691D01*
X88920918Y-137885570D01*
X88909479Y-137936899D01*
X88902199Y-137991679D01*
X88899079Y-138049908D01*
X88898949Y-138065004D01*
X88900834Y-138122470D01*
X88906486Y-138175953D01*
X88915908Y-138225453D01*
X88932188Y-138279595D01*
X88953895Y-138328000D01*
X88976130Y-138363957D01*
X89007984Y-138402840D01*
X89045659Y-138437791D01*
X89089156Y-138468809D01*
X89138475Y-138495894D01*
X89184021Y-138515461D01*
X89213290Y-138525890D01*
X89274106Y-138251117D01*
X89228480Y-138233488D01*
X89207184Y-138220831D01*
X89170897Y-138185664D01*
X89152718Y-138156839D01*
X89136607Y-138108987D01*
X89133422Y-138072575D01*
X89138628Y-138022780D01*
X89156928Y-137974133D01*
X89188405Y-137933290D01*
X89216709Y-137910398D01*
X89262223Y-137887987D01*
X89314973Y-137874914D01*
X89363721Y-137869394D01*
X89410882Y-137867900D01*
X89468633Y-137869686D01*
X89519154Y-137875044D01*
X89568958Y-137885810D01*
X89618531Y-137906796D01*
X89635341Y-137918702D01*
X89669966Y-137958507D01*
X89690219Y-138008066D01*
X89696158Y-138061584D01*
X89691483Y-138113186D01*
X89675541Y-138160084D01*
X89648286Y-138196651D01*
X89606086Y-138227368D01*
X89561578Y-138247561D01*
X89514261Y-138261534D01*
X89508579Y-138262841D01*
G37*
G36*
X89631602Y-138635697D02*
G01*
X89680835Y-138641493D01*
X89732322Y-138656091D01*
X89780422Y-138679275D01*
X89793982Y-138687874D01*
X89834626Y-138721687D01*
X89868257Y-138763418D01*
X89892529Y-138807746D01*
X89903506Y-138836004D01*
X89917199Y-138888905D01*
X89925273Y-138942958D01*
X89929292Y-138995056D01*
X89930631Y-139052478D01*
X89930615Y-139057780D01*
X89928640Y-139109758D01*
X89923373Y-139159828D01*
X89913778Y-139212701D01*
X89905398Y-139244432D01*
X89886846Y-139293336D01*
X89860778Y-139338486D01*
X89838068Y-139365669D01*
X89800395Y-139398007D01*
X89758440Y-139423727D01*
X89716093Y-139442016D01*
X89667253Y-139454311D01*
X89616046Y-139458409D01*
X89567970Y-139454474D01*
X89518283Y-139441054D01*
X89471943Y-139418109D01*
X89463892Y-139412939D01*
X89423190Y-139378671D01*
X89391448Y-139338953D01*
X89367163Y-139296232D01*
X89357111Y-139311165D01*
X89323914Y-139352582D01*
X89284609Y-139386846D01*
X89262784Y-139399961D01*
X89213436Y-139419068D01*
X89161266Y-139425437D01*
X89154236Y-139425342D01*
X89100709Y-139417805D01*
X89052005Y-139398208D01*
X89008125Y-139366552D01*
X88973688Y-139328961D01*
X88948288Y-139289073D01*
X88928144Y-139241766D01*
X88913255Y-139187040D01*
X88904861Y-139135768D01*
X88900117Y-139079344D01*
X88899270Y-139043929D01*
X89086528Y-139043929D01*
X89090922Y-139081826D01*
X89113150Y-139126483D01*
X89133190Y-139144839D01*
X89182027Y-139158723D01*
X89206041Y-139155694D01*
X89248461Y-139127705D01*
X89265992Y-139097458D01*
X89274106Y-139048814D01*
X89273591Y-139043929D01*
X89461685Y-139043929D01*
X89461723Y-139047229D01*
X89472852Y-139096589D01*
X89501252Y-139136986D01*
X89508823Y-139144188D01*
X89552600Y-139169572D01*
X89602369Y-139177286D01*
X89609918Y-139177130D01*
X89661249Y-139166050D01*
X89703241Y-139137474D01*
X89731817Y-139097897D01*
X89743053Y-139047593D01*
X89743014Y-139044338D01*
X89732023Y-138995367D01*
X89703974Y-138954781D01*
X89696405Y-138947535D01*
X89652703Y-138921997D01*
X89603101Y-138914236D01*
X89591156Y-138914578D01*
X89541655Y-138925196D01*
X89500031Y-138953071D01*
X89471271Y-138995203D01*
X89461685Y-139043929D01*
X89273591Y-139043929D01*
X89269833Y-139008306D01*
X89248217Y-138961864D01*
X89228345Y-138943369D01*
X89179829Y-138929379D01*
X89153269Y-138933131D01*
X89112662Y-138961131D01*
X89093903Y-138995259D01*
X89086528Y-139043929D01*
X88899270Y-139043929D01*
X88898949Y-139030496D01*
X88900410Y-138984259D01*
X88906020Y-138932648D01*
X88917883Y-138877773D01*
X88935472Y-138828650D01*
X88958789Y-138785276D01*
X88978966Y-138757398D01*
X89017636Y-138717556D01*
X89060584Y-138689097D01*
X89107809Y-138672022D01*
X89159312Y-138666330D01*
X89195582Y-138668910D01*
X89245866Y-138682454D01*
X89291203Y-138707607D01*
X89306674Y-138720135D01*
X89340567Y-138759184D01*
X89367163Y-138803594D01*
X89369312Y-138798265D01*
X89393822Y-138749769D01*
X89423818Y-138710003D01*
X89463150Y-138676344D01*
X89467054Y-138673819D01*
X89513525Y-138651339D01*
X89561382Y-138639318D01*
X89614581Y-138635311D01*
X89631602Y-138635697D01*
G37*
G36*
X73487158Y-159768579D02*
G01*
X73214583Y-159847470D01*
X73228071Y-159895370D01*
X73247206Y-159945733D01*
X73270309Y-159991426D01*
X73297382Y-160032447D01*
X73301045Y-160037247D01*
X73336553Y-160077037D01*
X73376582Y-160110954D01*
X73421132Y-160138998D01*
X73447835Y-160152041D01*
X73494547Y-160168924D01*
X73547242Y-160180983D01*
X73598259Y-160187578D01*
X73653858Y-160190480D01*
X73670585Y-160190631D01*
X73720409Y-160189480D01*
X73776325Y-160185061D01*
X73828017Y-160177327D01*
X73882984Y-160164115D01*
X73932202Y-160146392D01*
X73938763Y-160143492D01*
X73982928Y-160119338D01*
X74024382Y-160088334D01*
X74063124Y-160050482D01*
X74094173Y-160012586D01*
X74118526Y-159977163D01*
X74144175Y-159930131D01*
X74164516Y-159878428D01*
X74179552Y-159822053D01*
X74188027Y-159771507D01*
X74192818Y-159717716D01*
X74193997Y-159672348D01*
X74191921Y-159612283D01*
X74185693Y-159555798D01*
X74175313Y-159502893D01*
X74160780Y-159453567D01*
X74142096Y-159407821D01*
X74112901Y-159355673D01*
X74077219Y-159309118D01*
X74061129Y-159292062D01*
X74016913Y-159253714D01*
X73967305Y-159221866D01*
X73912308Y-159196517D01*
X73864429Y-159180918D01*
X73813100Y-159169479D01*
X73758320Y-159162199D01*
X73700091Y-159159079D01*
X73684995Y-159158949D01*
X73627529Y-159160834D01*
X73574046Y-159166486D01*
X73524546Y-159175908D01*
X73470404Y-159192188D01*
X73421999Y-159213895D01*
X73386042Y-159236130D01*
X73347159Y-159267984D01*
X73312208Y-159305659D01*
X73281190Y-159349156D01*
X73254105Y-159398475D01*
X73234538Y-159444021D01*
X73224109Y-159473290D01*
X73498882Y-159534106D01*
X73516511Y-159488480D01*
X73529168Y-159467184D01*
X73564335Y-159430897D01*
X73593160Y-159412718D01*
X73641012Y-159396607D01*
X73677424Y-159393422D01*
X73727219Y-159398628D01*
X73775866Y-159416928D01*
X73816709Y-159448405D01*
X73839601Y-159476709D01*
X73862012Y-159522223D01*
X73875085Y-159574973D01*
X73880605Y-159623721D01*
X73882099Y-159670882D01*
X73880313Y-159728633D01*
X73874955Y-159779154D01*
X73864189Y-159828958D01*
X73843203Y-159878531D01*
X73831297Y-159895341D01*
X73791492Y-159929966D01*
X73741933Y-159950219D01*
X73688415Y-159956158D01*
X73636813Y-159951483D01*
X73589915Y-159935541D01*
X73553348Y-159908286D01*
X73522631Y-159866086D01*
X73502438Y-159821578D01*
X73488465Y-159774261D01*
X73487158Y-159768579D01*
G37*
G36*
X73001359Y-159174581D02*
G01*
X72337019Y-159174581D01*
X72337019Y-159409054D01*
X72786914Y-159409054D01*
X72811094Y-159550471D01*
X72764688Y-159529588D01*
X72718770Y-159514811D01*
X72670518Y-159505473D01*
X72628401Y-159502843D01*
X72573715Y-159506029D01*
X72523048Y-159515586D01*
X72476399Y-159531514D01*
X72427055Y-159558150D01*
X72383181Y-159593457D01*
X72346446Y-159635345D01*
X72318733Y-159681721D01*
X72300043Y-159732584D01*
X72290376Y-159787936D01*
X72288903Y-159821580D01*
X72292748Y-159875386D01*
X72304282Y-159927995D01*
X72323505Y-159979405D01*
X72337507Y-160007449D01*
X72364221Y-160049398D01*
X72400333Y-160090313D01*
X72442858Y-160124582D01*
X72474772Y-160143736D01*
X72522338Y-160164253D01*
X72576133Y-160178907D01*
X72628312Y-160186922D01*
X72685260Y-160190448D01*
X72702406Y-160190631D01*
X72756219Y-160189105D01*
X72805549Y-160184526D01*
X72855104Y-160175858D01*
X72873376Y-160171336D01*
X72919729Y-160155819D01*
X72964569Y-160133757D01*
X72994276Y-160113695D01*
X73031498Y-160080886D01*
X73064730Y-160041856D01*
X73074876Y-160026988D01*
X73098346Y-159983547D01*
X73116933Y-159936435D01*
X73126412Y-159905844D01*
X72843334Y-159878000D01*
X72829076Y-159926032D01*
X72799843Y-159967187D01*
X72795218Y-159971301D01*
X72750928Y-159996076D01*
X72705093Y-160003053D01*
X72654821Y-159994359D01*
X72613459Y-159968277D01*
X72608617Y-159963485D01*
X72582571Y-159921431D01*
X72571855Y-159873551D01*
X72570515Y-159845516D01*
X72575075Y-159795351D01*
X72592222Y-159749162D01*
X72609105Y-159727791D01*
X72650690Y-159700968D01*
X72699670Y-159690750D01*
X72711443Y-159690422D01*
X72761074Y-159697386D01*
X72789845Y-159708251D01*
X72831121Y-159735863D01*
X72851639Y-159754902D01*
X73089775Y-159724127D01*
X73001359Y-159174581D01*
G37*
G36*
X89508579Y-126262841D02*
G01*
X89587470Y-126535416D01*
X89635370Y-126521928D01*
X89685733Y-126502793D01*
X89731426Y-126479690D01*
X89772447Y-126452617D01*
X89777247Y-126448954D01*
X89817037Y-126413446D01*
X89850954Y-126373417D01*
X89878998Y-126328867D01*
X89892041Y-126302164D01*
X89908924Y-126255452D01*
X89920983Y-126202757D01*
X89927578Y-126151740D01*
X89930480Y-126096141D01*
X89930631Y-126079414D01*
X89929480Y-126029590D01*
X89925061Y-125973674D01*
X89917327Y-125921982D01*
X89904115Y-125867015D01*
X89886392Y-125817797D01*
X89883492Y-125811236D01*
X89859338Y-125767071D01*
X89828334Y-125725617D01*
X89790482Y-125686875D01*
X89752586Y-125655826D01*
X89717163Y-125631473D01*
X89670131Y-125605824D01*
X89618428Y-125585483D01*
X89562053Y-125570447D01*
X89511507Y-125561972D01*
X89457716Y-125557181D01*
X89412348Y-125556002D01*
X89352283Y-125558078D01*
X89295798Y-125564306D01*
X89242893Y-125574686D01*
X89193567Y-125589219D01*
X89147821Y-125607903D01*
X89095673Y-125637098D01*
X89049118Y-125672780D01*
X89032062Y-125688870D01*
X88993714Y-125733086D01*
X88961866Y-125782694D01*
X88936517Y-125837691D01*
X88920918Y-125885570D01*
X88909479Y-125936899D01*
X88902199Y-125991679D01*
X88899079Y-126049908D01*
X88898949Y-126065004D01*
X88900834Y-126122470D01*
X88906486Y-126175953D01*
X88915908Y-126225453D01*
X88932188Y-126279595D01*
X88953895Y-126328000D01*
X88976130Y-126363957D01*
X89007984Y-126402840D01*
X89045659Y-126437791D01*
X89089156Y-126468809D01*
X89138475Y-126495894D01*
X89184021Y-126515461D01*
X89213290Y-126525890D01*
X89274106Y-126251117D01*
X89228480Y-126233488D01*
X89207184Y-126220831D01*
X89170897Y-126185664D01*
X89152718Y-126156839D01*
X89136607Y-126108987D01*
X89133422Y-126072575D01*
X89138628Y-126022780D01*
X89156928Y-125974133D01*
X89188405Y-125933290D01*
X89216709Y-125910398D01*
X89262223Y-125887987D01*
X89314973Y-125874914D01*
X89363721Y-125869394D01*
X89410882Y-125867900D01*
X89468633Y-125869686D01*
X89519154Y-125875044D01*
X89568958Y-125885810D01*
X89618531Y-125906796D01*
X89635341Y-125918702D01*
X89669966Y-125958507D01*
X89690219Y-126008066D01*
X89696158Y-126061584D01*
X89691483Y-126113186D01*
X89675541Y-126160084D01*
X89648286Y-126196651D01*
X89606086Y-126227368D01*
X89561578Y-126247561D01*
X89514261Y-126261534D01*
X89508579Y-126262841D01*
G37*
G36*
X89743053Y-127116225D02*
G01*
X89915000Y-127116225D01*
X89915000Y-127359979D01*
X89743053Y-127359979D01*
X89743053Y-127486497D01*
X89508579Y-127486497D01*
X89508579Y-127359979D01*
X88898949Y-127359979D01*
X88898949Y-127116225D01*
X89193262Y-127116225D01*
X89508579Y-127116225D01*
X89508579Y-126847069D01*
X89193262Y-127116225D01*
X88898949Y-127116225D01*
X89510778Y-126606490D01*
X89743053Y-126606490D01*
X89743053Y-127116225D01*
G37*
G36*
X81149417Y-160781690D02*
G01*
X80876842Y-160860581D01*
X80890330Y-160908481D01*
X80909465Y-160958844D01*
X80932568Y-161004537D01*
X80959641Y-161045558D01*
X80963304Y-161050358D01*
X80998812Y-161090148D01*
X81038841Y-161124065D01*
X81083391Y-161152109D01*
X81110094Y-161165152D01*
X81156806Y-161182035D01*
X81209501Y-161194094D01*
X81260518Y-161200689D01*
X81316117Y-161203591D01*
X81332844Y-161203742D01*
X81382668Y-161202591D01*
X81438584Y-161198172D01*
X81490276Y-161190438D01*
X81545243Y-161177226D01*
X81594461Y-161159503D01*
X81601022Y-161156603D01*
X81645187Y-161132449D01*
X81686641Y-161101445D01*
X81725383Y-161063593D01*
X81756432Y-161025697D01*
X81780785Y-160990274D01*
X81806434Y-160943242D01*
X81826775Y-160891539D01*
X81841811Y-160835164D01*
X81850286Y-160784618D01*
X81855077Y-160730827D01*
X81856256Y-160685459D01*
X81854180Y-160625394D01*
X81847952Y-160568909D01*
X81837572Y-160516004D01*
X81823039Y-160466678D01*
X81804355Y-160420932D01*
X81775160Y-160368784D01*
X81739478Y-160322229D01*
X81723388Y-160305173D01*
X81679172Y-160266825D01*
X81629564Y-160234977D01*
X81574567Y-160209628D01*
X81526688Y-160194029D01*
X81475359Y-160182590D01*
X81420579Y-160175310D01*
X81362350Y-160172190D01*
X81347254Y-160172060D01*
X81289788Y-160173945D01*
X81236305Y-160179597D01*
X81186805Y-160189019D01*
X81132663Y-160205299D01*
X81084258Y-160227006D01*
X81048301Y-160249241D01*
X81009418Y-160281095D01*
X80974467Y-160318770D01*
X80943449Y-160362267D01*
X80916364Y-160411586D01*
X80896797Y-160457132D01*
X80886368Y-160486401D01*
X81161141Y-160547217D01*
X81178770Y-160501591D01*
X81191427Y-160480295D01*
X81226594Y-160444008D01*
X81255419Y-160425829D01*
X81303271Y-160409718D01*
X81339683Y-160406533D01*
X81389478Y-160411739D01*
X81438125Y-160430039D01*
X81478968Y-160461516D01*
X81501860Y-160489820D01*
X81524271Y-160535334D01*
X81537344Y-160588084D01*
X81542864Y-160636832D01*
X81544358Y-160683993D01*
X81542572Y-160741744D01*
X81537214Y-160792265D01*
X81526448Y-160842069D01*
X81505462Y-160891642D01*
X81493556Y-160908452D01*
X81453751Y-160943077D01*
X81404192Y-160963330D01*
X81350674Y-160969269D01*
X81299072Y-160964594D01*
X81252174Y-160948652D01*
X81215607Y-160921397D01*
X81184890Y-160879197D01*
X81164697Y-160834689D01*
X81150724Y-160787372D01*
X81149417Y-160781690D01*
G37*
G36*
X80505593Y-160484691D02*
G01*
X80770108Y-160440727D01*
X80755605Y-160394056D01*
X80733281Y-160345032D01*
X80705136Y-160301852D01*
X80671171Y-160264516D01*
X80643346Y-160241425D01*
X80598585Y-160214397D01*
X80546368Y-160194008D01*
X80495675Y-160181815D01*
X80439504Y-160174499D01*
X80388510Y-160172128D01*
X80377854Y-160172060D01*
X80318854Y-160173801D01*
X80265197Y-160179025D01*
X80216883Y-160187731D01*
X80165958Y-160202775D01*
X80116270Y-160226664D01*
X80092579Y-160243379D01*
X80054110Y-160281222D01*
X80026633Y-160323674D01*
X80010147Y-160370737D01*
X80004651Y-160422409D01*
X80010577Y-160471674D01*
X80030212Y-160520400D01*
X80040555Y-160536715D01*
X80075534Y-160576293D01*
X80114515Y-160606507D01*
X80148266Y-160626596D01*
X80099605Y-160641355D01*
X80059117Y-160660546D01*
X80019560Y-160691688D01*
X79988512Y-160730403D01*
X79981204Y-160742856D01*
X79962170Y-160791095D01*
X79954040Y-160842669D01*
X79953360Y-160864244D01*
X79957012Y-160913556D01*
X79967966Y-160961746D01*
X79986223Y-161008816D01*
X79999522Y-161034482D01*
X80028558Y-161077276D01*
X80064008Y-161114157D01*
X80105872Y-161145127D01*
X80131902Y-161159778D01*
X80178537Y-161179012D01*
X80231980Y-161192751D01*
X80284328Y-161200264D01*
X80333346Y-161203356D01*
X80359292Y-161203742D01*
X80408731Y-161202617D01*
X80461266Y-161198461D01*
X80514522Y-161189963D01*
X80565787Y-161175621D01*
X80575935Y-161171746D01*
X80622804Y-161148710D01*
X80664187Y-161119902D01*
X80700084Y-161085321D01*
X80706605Y-161077713D01*
X80736196Y-161035862D01*
X80761159Y-160987858D01*
X80779670Y-160939393D01*
X80785007Y-160922130D01*
X80505593Y-160891111D01*
X80490744Y-160937971D01*
X80464938Y-160979449D01*
X80454547Y-160989053D01*
X80409381Y-161010974D01*
X80366131Y-161016164D01*
X80317598Y-161007631D01*
X80274940Y-160979718D01*
X80272586Y-160977329D01*
X80245588Y-160935057D01*
X80235303Y-160885436D01*
X80234972Y-160873526D01*
X80240938Y-160824705D01*
X80262648Y-160780694D01*
X80271120Y-160771188D01*
X80313496Y-160743894D01*
X80364980Y-160734831D01*
X80368817Y-160734796D01*
X80419669Y-160740902D01*
X80459431Y-160750427D01*
X80445021Y-160544286D01*
X80408629Y-160547217D01*
X80358254Y-160539707D01*
X80317038Y-160517175D01*
X80286244Y-160477626D01*
X80280157Y-160446101D01*
X80294415Y-160397775D01*
X80307757Y-160383330D01*
X80352601Y-160362438D01*
X80383228Y-160359639D01*
X80433133Y-160368449D01*
X80463828Y-160387482D01*
X80490942Y-160428663D01*
X80504142Y-160476154D01*
X80505593Y-160484691D01*
G37*
G36*
X89508579Y-122262841D02*
G01*
X89587470Y-122535416D01*
X89635370Y-122521928D01*
X89685733Y-122502793D01*
X89731426Y-122479690D01*
X89772447Y-122452617D01*
X89777247Y-122448954D01*
X89817037Y-122413446D01*
X89850954Y-122373417D01*
X89878998Y-122328867D01*
X89892041Y-122302164D01*
X89908924Y-122255452D01*
X89920983Y-122202757D01*
X89927578Y-122151740D01*
X89930480Y-122096141D01*
X89930631Y-122079414D01*
X89929480Y-122029590D01*
X89925061Y-121973674D01*
X89917327Y-121921982D01*
X89904115Y-121867015D01*
X89886392Y-121817797D01*
X89883492Y-121811236D01*
X89859338Y-121767071D01*
X89828334Y-121725617D01*
X89790482Y-121686875D01*
X89752586Y-121655826D01*
X89717163Y-121631473D01*
X89670131Y-121605824D01*
X89618428Y-121585483D01*
X89562053Y-121570447D01*
X89511507Y-121561972D01*
X89457716Y-121557181D01*
X89412348Y-121556002D01*
X89352283Y-121558078D01*
X89295798Y-121564306D01*
X89242893Y-121574686D01*
X89193567Y-121589219D01*
X89147821Y-121607903D01*
X89095673Y-121637098D01*
X89049118Y-121672780D01*
X89032062Y-121688870D01*
X88993714Y-121733086D01*
X88961866Y-121782694D01*
X88936517Y-121837691D01*
X88920918Y-121885570D01*
X88909479Y-121936899D01*
X88902199Y-121991679D01*
X88899079Y-122049908D01*
X88898949Y-122065004D01*
X88900834Y-122122470D01*
X88906486Y-122175953D01*
X88915908Y-122225453D01*
X88932188Y-122279595D01*
X88953895Y-122328000D01*
X88976130Y-122363957D01*
X89007984Y-122402840D01*
X89045659Y-122437791D01*
X89089156Y-122468809D01*
X89138475Y-122495894D01*
X89184021Y-122515461D01*
X89213290Y-122525890D01*
X89274106Y-122251117D01*
X89228480Y-122233488D01*
X89207184Y-122220831D01*
X89170897Y-122185664D01*
X89152718Y-122156839D01*
X89136607Y-122108987D01*
X89133422Y-122072575D01*
X89138628Y-122022780D01*
X89156928Y-121974133D01*
X89188405Y-121933290D01*
X89216709Y-121910398D01*
X89262223Y-121887987D01*
X89314973Y-121874914D01*
X89363721Y-121869394D01*
X89410882Y-121867900D01*
X89468633Y-121869686D01*
X89519154Y-121875044D01*
X89568958Y-121885810D01*
X89618531Y-121906796D01*
X89635341Y-121918702D01*
X89669966Y-121958507D01*
X89690219Y-122008066D01*
X89696158Y-122061584D01*
X89691483Y-122113186D01*
X89675541Y-122160084D01*
X89648286Y-122196651D01*
X89606086Y-122227368D01*
X89561578Y-122247561D01*
X89514261Y-122261534D01*
X89508579Y-122262841D01*
G37*
G36*
X89915000Y-123454257D02*
G01*
X89915000Y-122614795D01*
X89860681Y-122623904D01*
X89807789Y-122638623D01*
X89756323Y-122658953D01*
X89706283Y-122684892D01*
X89678328Y-122702233D01*
X89635409Y-122734210D01*
X89597741Y-122767732D01*
X89558344Y-122807502D01*
X89525581Y-122843818D01*
X89491711Y-122884133D01*
X89456735Y-122928448D01*
X89420652Y-122976762D01*
X89388475Y-123019799D01*
X89354798Y-123062107D01*
X89321406Y-123100041D01*
X89284364Y-123134055D01*
X89241703Y-123158774D01*
X89195949Y-123168493D01*
X89146737Y-123156524D01*
X89118524Y-123134543D01*
X89092652Y-123090786D01*
X89086528Y-123049058D01*
X89095198Y-123000271D01*
X89121210Y-122961375D01*
X89165088Y-122934431D01*
X89216883Y-122919908D01*
X89242843Y-122915702D01*
X89219640Y-122635311D01*
X89170518Y-122643886D01*
X89120475Y-122656892D01*
X89071950Y-122675611D01*
X89035725Y-122695883D01*
X88997386Y-122726867D01*
X88965105Y-122764863D01*
X88938882Y-122809871D01*
X88934364Y-122819714D01*
X88917245Y-122869646D01*
X88906731Y-122922204D01*
X88901163Y-122974503D01*
X88899088Y-123024020D01*
X88898949Y-123041487D01*
X88900117Y-123094507D01*
X88904431Y-123150546D01*
X88911925Y-123200321D01*
X88924381Y-123249536D01*
X88932166Y-123271075D01*
X88956233Y-123319060D01*
X88987216Y-123360128D01*
X89025117Y-123394279D01*
X89033527Y-123400280D01*
X89077891Y-123425138D01*
X89125500Y-123440790D01*
X89176352Y-123447234D01*
X89186912Y-123447418D01*
X89236989Y-123443149D01*
X89285830Y-123430340D01*
X89333434Y-123408991D01*
X89359347Y-123393441D01*
X89401509Y-123360941D01*
X89440054Y-123323463D01*
X89474321Y-123284623D01*
X89509721Y-123239583D01*
X89540087Y-123197314D01*
X89569648Y-123154202D01*
X89598381Y-123113527D01*
X89620443Y-123084229D01*
X89652700Y-123046968D01*
X89680526Y-123017307D01*
X89680526Y-123454257D01*
X89915000Y-123454257D01*
G37*
G36*
X89508579Y-112762841D02*
G01*
X89587470Y-113035416D01*
X89635370Y-113021928D01*
X89685733Y-113002793D01*
X89731426Y-112979690D01*
X89772447Y-112952617D01*
X89777247Y-112948954D01*
X89817037Y-112913446D01*
X89850954Y-112873417D01*
X89878998Y-112828867D01*
X89892041Y-112802164D01*
X89908924Y-112755452D01*
X89920983Y-112702757D01*
X89927578Y-112651740D01*
X89930480Y-112596141D01*
X89930631Y-112579414D01*
X89929480Y-112529590D01*
X89925061Y-112473674D01*
X89917327Y-112421982D01*
X89904115Y-112367015D01*
X89886392Y-112317797D01*
X89883492Y-112311236D01*
X89859338Y-112267071D01*
X89828334Y-112225617D01*
X89790482Y-112186875D01*
X89752586Y-112155826D01*
X89717163Y-112131473D01*
X89670131Y-112105824D01*
X89618428Y-112085483D01*
X89562053Y-112070447D01*
X89511507Y-112061972D01*
X89457716Y-112057181D01*
X89412348Y-112056002D01*
X89352283Y-112058078D01*
X89295798Y-112064306D01*
X89242893Y-112074686D01*
X89193567Y-112089219D01*
X89147821Y-112107903D01*
X89095673Y-112137098D01*
X89049118Y-112172780D01*
X89032062Y-112188870D01*
X88993714Y-112233086D01*
X88961866Y-112282694D01*
X88936517Y-112337691D01*
X88920918Y-112385570D01*
X88909479Y-112436899D01*
X88902199Y-112491679D01*
X88899079Y-112549908D01*
X88898949Y-112565004D01*
X88900834Y-112622470D01*
X88906486Y-112675953D01*
X88915908Y-112725453D01*
X88932188Y-112779595D01*
X88953895Y-112828000D01*
X88976130Y-112863957D01*
X89007984Y-112902840D01*
X89045659Y-112937791D01*
X89089156Y-112968809D01*
X89138475Y-112995894D01*
X89184021Y-113015461D01*
X89213290Y-113025890D01*
X89274106Y-112751117D01*
X89228480Y-112733488D01*
X89207184Y-112720831D01*
X89170897Y-112685664D01*
X89152718Y-112656839D01*
X89136607Y-112608987D01*
X89133422Y-112572575D01*
X89138628Y-112522780D01*
X89156928Y-112474133D01*
X89188405Y-112433290D01*
X89216709Y-112410398D01*
X89262223Y-112387987D01*
X89314973Y-112374914D01*
X89363721Y-112369394D01*
X89410882Y-112367900D01*
X89468633Y-112369686D01*
X89519154Y-112375044D01*
X89568958Y-112385810D01*
X89618531Y-112406796D01*
X89635341Y-112418702D01*
X89669966Y-112458507D01*
X89690219Y-112508066D01*
X89696158Y-112561584D01*
X89691483Y-112613186D01*
X89675541Y-112660084D01*
X89648286Y-112696651D01*
X89606086Y-112727368D01*
X89561578Y-112747561D01*
X89514261Y-112761534D01*
X89508579Y-112762841D01*
G37*
G36*
X88898949Y-113769365D02*
G01*
X89915000Y-113769365D01*
X89915000Y-113486288D01*
X89249682Y-113486288D01*
X89280980Y-113443822D01*
X89308319Y-113402215D01*
X89333819Y-113357439D01*
X89335900Y-113353420D01*
X89358251Y-113305419D01*
X89378019Y-113255120D01*
X89395362Y-113204427D01*
X89399159Y-113192464D01*
X89164685Y-113192464D01*
X89147097Y-113243795D01*
X89128221Y-113290626D01*
X89104570Y-113339577D01*
X89079167Y-113382403D01*
X89055997Y-113414236D01*
X89022277Y-113451544D01*
X88984862Y-113484578D01*
X88943753Y-113513338D01*
X88898949Y-113537823D01*
X88898949Y-113769365D01*
G37*
G36*
X100960739Y-129425175D02*
G01*
X100960739Y-129951274D01*
X100429267Y-129951274D01*
X100429267Y-130395307D01*
X100960739Y-130395307D01*
X100960739Y-130924337D01*
X101398422Y-130924337D01*
X101398422Y-130395307D01*
X101929895Y-130395307D01*
X101929895Y-129951274D01*
X101398422Y-129951274D01*
X101398422Y-129425175D01*
X100960739Y-129425175D01*
G37*
G36*
X72903488Y-142050000D02*
G01*
X72590858Y-142050000D01*
X72590858Y-141674842D01*
X72420620Y-141674842D01*
X72386162Y-141674098D01*
X72332510Y-141669545D01*
X72283580Y-141660855D01*
X72231098Y-141644964D01*
X72185417Y-141623114D01*
X72140718Y-141590090D01*
X72109508Y-141555990D01*
X72081258Y-141510345D01*
X72061797Y-141458390D01*
X72052111Y-141408833D01*
X72049392Y-141363189D01*
X72351744Y-141363189D01*
X72358710Y-141401590D01*
X72388136Y-141441346D01*
X72412857Y-141455987D01*
X72463573Y-141468675D01*
X72514654Y-141471632D01*
X72590858Y-141471632D01*
X72590858Y-141252791D01*
X72502197Y-141252791D01*
X72481269Y-141253295D01*
X72428925Y-141260851D01*
X72383495Y-141285031D01*
X72362938Y-141313365D01*
X72351744Y-141363189D01*
X72049392Y-141363189D01*
X72048883Y-141354640D01*
X72050940Y-141310555D01*
X72058840Y-141261966D01*
X72075544Y-141211226D01*
X72100313Y-141166890D01*
X72133147Y-141128960D01*
X72138481Y-141124076D01*
X72180469Y-141094231D01*
X72230591Y-141071984D01*
X72280027Y-141058961D01*
X72335440Y-141051519D01*
X72386182Y-141049581D01*
X72903488Y-141049581D01*
X72903488Y-142050000D01*
G37*
D12*
%TO.C,R15*%
X90777500Y-132437742D02*
X90777500Y-132912258D01*
X91822500Y-132437742D02*
X91822500Y-132912258D01*
%TO.C,R14*%
X87177500Y-132912258D02*
X87177500Y-132437742D01*
X88222500Y-132912258D02*
X88222500Y-132437742D01*
%TO.C,R13*%
X88977500Y-132912258D02*
X88977500Y-132437742D01*
X90022500Y-132912258D02*
X90022500Y-132437742D01*
%TO.C,R12*%
X86422500Y-132437742D02*
X86422500Y-132912258D01*
X85377500Y-132437742D02*
X85377500Y-132912258D01*
%TO.C,R10*%
X70232258Y-157282500D02*
X69757742Y-157282500D01*
X70232258Y-156237500D02*
X69757742Y-156237500D01*
%TO.C,R9*%
X70232258Y-155782500D02*
X69757742Y-155782500D01*
X70232258Y-154737500D02*
X69757742Y-154737500D01*
%TO.C,R8*%
X93022500Y-117437742D02*
X93022500Y-117912258D01*
X91977500Y-117437742D02*
X91977500Y-117912258D01*
%TO.C,R7*%
X91022500Y-117437742D02*
X91022500Y-117912258D01*
X89977500Y-117437742D02*
X89977500Y-117912258D01*
%TO.C,R6*%
X89022500Y-117437742D02*
X89022500Y-117912258D01*
X87977500Y-117437742D02*
X87977500Y-117912258D01*
%TO.C,R5*%
X69757742Y-157737500D02*
X70232258Y-157737500D01*
X69757742Y-158782500D02*
X70232258Y-158782500D01*
%TO.C,R4*%
X67692258Y-151047500D02*
X67217742Y-151047500D01*
X67692258Y-150002500D02*
X67217742Y-150002500D01*
%TO.C,C8*%
X88990000Y-136015580D02*
X88990000Y-135734420D01*
X90010000Y-136015580D02*
X90010000Y-135734420D01*
%TO.C,C5*%
X69854420Y-159250000D02*
X70135580Y-159250000D01*
X69854420Y-160270000D02*
X70135580Y-160270000D01*
%TO.C,C4*%
X88985000Y-129400580D02*
X88985000Y-129119420D01*
X90005000Y-129400580D02*
X90005000Y-129119420D01*
%TO.C,C3*%
X79372289Y-160023167D02*
X79173478Y-160221978D01*
X78651040Y-159301918D02*
X78452229Y-159500729D01*
%TO.C,C2*%
X89359420Y-119990000D02*
X89640580Y-119990000D01*
X89359420Y-121010000D02*
X89640580Y-121010000D01*
%TO.C,C1*%
X89359420Y-114490000D02*
X89640580Y-114490000D01*
X89359420Y-115510000D02*
X89640580Y-115510000D01*
%TO.C,C6*%
X67351354Y-107753064D02*
X77511354Y-107753064D01*
X67351354Y-107793064D02*
X77511354Y-107793064D01*
X67351354Y-107833064D02*
X77511354Y-107833064D01*
X67352354Y-107713064D02*
X77510354Y-107713064D01*
X67353354Y-107673064D02*
X77509354Y-107673064D01*
X67354354Y-107633064D02*
X77508354Y-107633064D01*
X67356354Y-107593064D02*
X77506354Y-107593064D01*
X67358354Y-107553064D02*
X77504354Y-107553064D01*
X67361354Y-107513064D02*
X77501354Y-107513064D01*
X67363354Y-107473064D02*
X77499354Y-107473064D01*
X67366354Y-107433064D02*
X77496354Y-107433064D01*
X67369354Y-107393064D02*
X77493354Y-107393064D01*
X67373354Y-107353064D02*
X77489354Y-107353064D01*
X67377354Y-107313064D02*
X77485354Y-107313064D01*
X67381354Y-107273064D02*
X77481354Y-107273064D01*
X67386354Y-107233064D02*
X77476354Y-107233064D01*
X67391354Y-107193064D02*
X77471354Y-107193064D01*
X67396354Y-107153064D02*
X77466354Y-107153064D01*
X67401354Y-107112064D02*
X77461354Y-107112064D01*
X67407354Y-107072064D02*
X77455354Y-107072064D01*
X67413354Y-107032064D02*
X77449354Y-107032064D01*
X67420354Y-106992064D02*
X77442354Y-106992064D01*
X67427354Y-106952064D02*
X77435354Y-106952064D01*
X67434354Y-106912064D02*
X77428354Y-106912064D01*
X67441354Y-106872064D02*
X77421354Y-106872064D01*
X67449354Y-106832064D02*
X77413354Y-106832064D01*
X67457354Y-106792064D02*
X77405354Y-106792064D01*
X67466354Y-106752064D02*
X77396354Y-106752064D01*
X67475354Y-106712064D02*
X77387354Y-106712064D01*
X67484354Y-106672064D02*
X77378354Y-106672064D01*
X67493354Y-106632064D02*
X77369354Y-106632064D01*
X67503354Y-106592064D02*
X77359354Y-106592064D01*
X67513354Y-106552064D02*
X71190354Y-106552064D01*
X67524354Y-106512064D02*
X71190354Y-106512064D01*
X67534354Y-106472064D02*
X71190354Y-106472064D01*
X67546354Y-106432064D02*
X71190354Y-106432064D01*
X67557354Y-106392064D02*
X71190354Y-106392064D01*
X67569354Y-106352064D02*
X71190354Y-106352064D01*
X67581354Y-106312064D02*
X71190354Y-106312064D01*
X67594354Y-106272064D02*
X71190354Y-106272064D01*
X67607354Y-106232064D02*
X71190354Y-106232064D01*
X67620354Y-106192064D02*
X71190354Y-106192064D01*
X67634354Y-106152064D02*
X71190354Y-106152064D01*
X67648354Y-106112064D02*
X71190354Y-106112064D01*
X67663354Y-106072064D02*
X71190354Y-106072064D01*
X67677354Y-106032064D02*
X71190354Y-106032064D01*
X67693354Y-105992064D02*
X71190354Y-105992064D01*
X67708354Y-105952064D02*
X71190354Y-105952064D01*
X67724354Y-105912064D02*
X71190354Y-105912064D01*
X67741354Y-105872064D02*
X71190354Y-105872064D01*
X67757354Y-105832064D02*
X71190354Y-105832064D01*
X67774354Y-105792064D02*
X71190354Y-105792064D01*
X67792354Y-105752064D02*
X71190354Y-105752064D01*
X67810354Y-105712064D02*
X71190354Y-105712064D01*
X67828354Y-105672064D02*
X71190354Y-105672064D01*
X67847354Y-105632064D02*
X71190354Y-105632064D01*
X67867354Y-105592064D02*
X71190354Y-105592064D01*
X67886354Y-105552064D02*
X71190354Y-105552064D01*
X67906354Y-105512064D02*
X71190354Y-105512064D01*
X67927354Y-105472064D02*
X71190354Y-105472064D01*
X67948354Y-105432064D02*
X71190354Y-105432064D01*
X67969354Y-105392064D02*
X71190354Y-105392064D01*
X67991354Y-105352064D02*
X71190354Y-105352064D01*
X68014354Y-105312064D02*
X71190354Y-105312064D01*
X68036354Y-105272064D02*
X71190354Y-105272064D01*
X68060354Y-105232064D02*
X71190354Y-105232064D01*
X68084354Y-105192064D02*
X71190354Y-105192064D01*
X68108354Y-105152064D02*
X71190354Y-105152064D01*
X68133354Y-105112064D02*
X71190354Y-105112064D01*
X68158354Y-105072064D02*
X71190354Y-105072064D01*
X68184354Y-105032064D02*
X71190354Y-105032064D01*
X68210354Y-104992064D02*
X71190354Y-104992064D01*
X68237354Y-104952064D02*
X71190354Y-104952064D01*
X68265354Y-104912064D02*
X71190354Y-104912064D01*
X68293354Y-104872064D02*
X71190354Y-104872064D01*
X68321354Y-104832064D02*
X71190354Y-104832064D01*
X68351354Y-104792064D02*
X71190354Y-104792064D01*
X68381354Y-104752064D02*
X71190354Y-104752064D01*
X68411354Y-104712064D02*
X71190354Y-104712064D01*
X68442354Y-104672064D02*
X71190354Y-104672064D01*
X68474354Y-104632064D02*
X71190354Y-104632064D01*
X68506354Y-104592064D02*
X71190354Y-104592064D01*
X68539354Y-104552064D02*
X71190354Y-104552064D01*
X68573354Y-104512064D02*
X71190354Y-104512064D01*
X68607354Y-104472064D02*
X71190354Y-104472064D01*
X68642354Y-104432064D02*
X71190354Y-104432064D01*
X68678354Y-104392064D02*
X71190354Y-104392064D01*
X68715354Y-104352064D02*
X71190354Y-104352064D01*
X68752354Y-104312064D02*
X71190354Y-104312064D01*
X68791354Y-104272064D02*
X71190354Y-104272064D01*
X68830354Y-104232064D02*
X71190354Y-104232064D01*
X68870354Y-104192064D02*
X71190354Y-104192064D01*
X68911354Y-104152064D02*
X71190354Y-104152064D01*
X68953354Y-104112064D02*
X71190354Y-104112064D01*
X68995354Y-104072064D02*
X75867354Y-104072064D01*
X69039354Y-104032064D02*
X75823354Y-104032064D01*
X69084354Y-103992064D02*
X75778354Y-103992064D01*
X69130354Y-103952064D02*
X75732354Y-103952064D01*
X69177354Y-103912064D02*
X75685354Y-103912064D01*
X69225354Y-103872064D02*
X75637354Y-103872064D01*
X69275354Y-103832064D02*
X75587354Y-103832064D01*
X69325354Y-103792064D02*
X75537354Y-103792064D01*
X69377354Y-103752064D02*
X75485354Y-103752064D01*
X69431354Y-103712064D02*
X75431354Y-103712064D01*
X69486354Y-103672064D02*
X75376354Y-103672064D01*
X69542354Y-103632064D02*
X75320354Y-103632064D01*
X69601354Y-103592064D02*
X75261354Y-103592064D01*
X69661354Y-103552064D02*
X75201354Y-103552064D01*
X69722354Y-103512064D02*
X75140354Y-103512064D01*
X69786354Y-103472064D02*
X75076354Y-103472064D01*
X69852354Y-103432064D02*
X75010354Y-103432064D01*
X69921354Y-103392064D02*
X74941354Y-103392064D01*
X69992354Y-103352064D02*
X74870354Y-103352064D01*
X70066354Y-103312064D02*
X74796354Y-103312064D01*
X70142354Y-103272064D02*
X74720354Y-103272064D01*
X70222354Y-103232064D02*
X74640354Y-103232064D01*
X70306354Y-103192064D02*
X74556354Y-103192064D01*
X70394354Y-103152064D02*
X74468354Y-103152064D01*
X70487354Y-103112064D02*
X74375354Y-103112064D01*
X70585354Y-103072064D02*
X74277354Y-103072064D01*
X70689354Y-103032064D02*
X74173354Y-103032064D01*
X70801354Y-102992064D02*
X74061354Y-102992064D01*
X70921354Y-102952064D02*
X73941354Y-102952064D01*
X71053354Y-102912064D02*
X73809354Y-102912064D01*
X71201354Y-102872064D02*
X73661354Y-102872064D01*
X71369354Y-102832064D02*
X73493354Y-102832064D01*
X71569354Y-102792064D02*
X73293354Y-102792064D01*
X71832354Y-102752064D02*
X73030354Y-102752064D01*
X73672354Y-104112064D02*
X75909354Y-104112064D01*
X73672354Y-104152064D02*
X75951354Y-104152064D01*
X73672354Y-104192064D02*
X75992354Y-104192064D01*
X73672354Y-104232064D02*
X76032354Y-104232064D01*
X73672354Y-104272064D02*
X76071354Y-104272064D01*
X73672354Y-104312064D02*
X76110354Y-104312064D01*
X73672354Y-104352064D02*
X76147354Y-104352064D01*
X73672354Y-104392064D02*
X76184354Y-104392064D01*
X73672354Y-104432064D02*
X76220354Y-104432064D01*
X73672354Y-104472064D02*
X76255354Y-104472064D01*
X73672354Y-104512064D02*
X76289354Y-104512064D01*
X73672354Y-104552064D02*
X76323354Y-104552064D01*
X73672354Y-104592064D02*
X76356354Y-104592064D01*
X73672354Y-104632064D02*
X76388354Y-104632064D01*
X73672354Y-104672064D02*
X76420354Y-104672064D01*
X73672354Y-104712064D02*
X76451354Y-104712064D01*
X73672354Y-104752064D02*
X76481354Y-104752064D01*
X73672354Y-104792064D02*
X76511354Y-104792064D01*
X73672354Y-104832064D02*
X76541354Y-104832064D01*
X73672354Y-104872064D02*
X76569354Y-104872064D01*
X73672354Y-104912064D02*
X76597354Y-104912064D01*
X73672354Y-104952064D02*
X76625354Y-104952064D01*
X73672354Y-104992064D02*
X76652354Y-104992064D01*
X73672354Y-105032064D02*
X76678354Y-105032064D01*
X73672354Y-105072064D02*
X76704354Y-105072064D01*
X73672354Y-105112064D02*
X76729354Y-105112064D01*
X73672354Y-105152064D02*
X76754354Y-105152064D01*
X73672354Y-105192064D02*
X76778354Y-105192064D01*
X73672354Y-105232064D02*
X76802354Y-105232064D01*
X73672354Y-105272064D02*
X76826354Y-105272064D01*
X73672354Y-105312064D02*
X76848354Y-105312064D01*
X73672354Y-105352064D02*
X76871354Y-105352064D01*
X73672354Y-105392064D02*
X76893354Y-105392064D01*
X73672354Y-105432064D02*
X76914354Y-105432064D01*
X73672354Y-105472064D02*
X76935354Y-105472064D01*
X73672354Y-105512064D02*
X76956354Y-105512064D01*
X73672354Y-105552064D02*
X76976354Y-105552064D01*
X73672354Y-105592064D02*
X76995354Y-105592064D01*
X73672354Y-105632064D02*
X77015354Y-105632064D01*
X73672354Y-105672064D02*
X77034354Y-105672064D01*
X73672354Y-105712064D02*
X77052354Y-105712064D01*
X73672354Y-105752064D02*
X77070354Y-105752064D01*
X73672354Y-105792064D02*
X77088354Y-105792064D01*
X73672354Y-105832064D02*
X77105354Y-105832064D01*
X73672354Y-105872064D02*
X77121354Y-105872064D01*
X73672354Y-105912064D02*
X77138354Y-105912064D01*
X73672354Y-105952064D02*
X77154354Y-105952064D01*
X73672354Y-105992064D02*
X77169354Y-105992064D01*
X73672354Y-106032064D02*
X77185354Y-106032064D01*
X73672354Y-106072064D02*
X77199354Y-106072064D01*
X73672354Y-106112064D02*
X77214354Y-106112064D01*
X73672354Y-106152064D02*
X77228354Y-106152064D01*
X73672354Y-106192064D02*
X77242354Y-106192064D01*
X73672354Y-106232064D02*
X77255354Y-106232064D01*
X73672354Y-106272064D02*
X77268354Y-106272064D01*
X73672354Y-106312064D02*
X77281354Y-106312064D01*
X73672354Y-106352064D02*
X77293354Y-106352064D01*
X73672354Y-106392064D02*
X77305354Y-106392064D01*
X73672354Y-106432064D02*
X77316354Y-106432064D01*
X73672354Y-106472064D02*
X77328354Y-106472064D01*
X73672354Y-106512064D02*
X77338354Y-106512064D01*
X73672354Y-106552064D02*
X77349354Y-106552064D01*
X74806354Y-112812710D02*
X75806354Y-112812710D01*
X75306354Y-112312710D02*
X75306354Y-113312710D01*
X77551354Y-107833064D02*
G75*
G02*
X67311354Y-107833064I-5120000J0D01*
G01*
X67311354Y-107833064D02*
G75*
G02*
X77551354Y-107833064I5120000J0D01*
G01*
%TO.C,J2*%
X83030529Y-148621788D02*
X83970981Y-147681336D01*
X83970981Y-149562240D02*
X83030529Y-148621788D01*
X84869007Y-150460266D02*
X86749911Y-148579362D01*
X92095638Y-157686897D02*
X84869007Y-150460266D01*
X92095638Y-157686897D02*
X93976542Y-155805993D01*
X93976542Y-155805993D02*
X86749911Y-148579362D01*
%TO.C,LINE*%
X109442677Y-141433160D02*
X117362677Y-141433160D01*
X109442677Y-142923160D02*
X109442677Y-141433160D01*
X109442677Y-148023160D02*
X109952677Y-148023160D01*
X109442677Y-149513160D02*
X109442677Y-148023160D01*
X109942677Y-141883160D02*
X109942677Y-143493160D01*
X109942677Y-142923160D02*
X109442677Y-142923160D01*
X111442677Y-145843160D02*
X111442677Y-145103160D01*
X111552677Y-141883160D02*
X109942677Y-141883160D01*
X113152677Y-148023160D02*
X113942677Y-148023160D01*
X113252677Y-144753160D02*
X113942677Y-144753160D01*
X113942677Y-142923160D02*
X113252677Y-142923160D01*
X113942677Y-144753160D02*
X113942677Y-142913160D01*
X113942677Y-146193160D02*
X112552677Y-146193160D01*
X113942677Y-148033160D02*
X113942677Y-146193160D01*
X117362677Y-141433160D02*
X117362677Y-142483160D01*
X117362677Y-148463160D02*
X117362677Y-149513160D01*
X117362677Y-148463160D02*
X123562677Y-148463160D01*
X117362677Y-149513160D02*
X109442677Y-149513160D01*
X123562677Y-142483160D02*
X117362677Y-142483160D01*
X123562677Y-142673160D02*
X123562677Y-142483160D01*
X123562677Y-144313160D02*
X125062677Y-144313160D01*
X123562677Y-146633160D02*
X123562677Y-144313160D01*
X123562677Y-148273160D02*
X125062677Y-148273160D01*
X123562677Y-148463160D02*
X123562677Y-148273160D01*
X125062677Y-142673160D02*
X123562677Y-142673160D01*
X125062677Y-144313160D02*
X125062677Y-142673160D01*
X125062677Y-146633160D02*
X123562677Y-146633160D01*
X125062677Y-148273160D02*
X125062677Y-146633160D01*
%TO.C,P*%
X64005000Y-144945000D02*
X64005000Y-138525000D01*
X64275000Y-144945000D02*
X64005000Y-144945000D01*
X70635000Y-144945000D02*
X70905000Y-144945000D01*
X70905000Y-144945000D02*
X70905000Y-138525000D01*
X70925000Y-146605000D02*
X70595000Y-146365000D01*
X70925000Y-146125000D01*
X70925000Y-146605000D01*
G36*
X70925000Y-146605000D02*
G01*
X70595000Y-146365000D01*
X70925000Y-146125000D01*
X70925000Y-146605000D01*
G37*
%TO.C,C7*%
X69556364Y-161855884D02*
X69556364Y-160855884D01*
X70056364Y-161355884D02*
X69056364Y-161355884D01*
X71190364Y-167616530D02*
X67513364Y-167616530D01*
X71190364Y-167656530D02*
X67524364Y-167656530D01*
X71190364Y-167696530D02*
X67534364Y-167696530D01*
X71190364Y-167736530D02*
X67546364Y-167736530D01*
X71190364Y-167776530D02*
X67557364Y-167776530D01*
X71190364Y-167816530D02*
X67569364Y-167816530D01*
X71190364Y-167856530D02*
X67581364Y-167856530D01*
X71190364Y-167896530D02*
X67594364Y-167896530D01*
X71190364Y-167936530D02*
X67607364Y-167936530D01*
X71190364Y-167976530D02*
X67620364Y-167976530D01*
X71190364Y-168016530D02*
X67634364Y-168016530D01*
X71190364Y-168056530D02*
X67648364Y-168056530D01*
X71190364Y-168096530D02*
X67663364Y-168096530D01*
X71190364Y-168136530D02*
X67677364Y-168136530D01*
X71190364Y-168176530D02*
X67693364Y-168176530D01*
X71190364Y-168216530D02*
X67708364Y-168216530D01*
X71190364Y-168256530D02*
X67724364Y-168256530D01*
X71190364Y-168296530D02*
X67741364Y-168296530D01*
X71190364Y-168336530D02*
X67757364Y-168336530D01*
X71190364Y-168376530D02*
X67774364Y-168376530D01*
X71190364Y-168416530D02*
X67792364Y-168416530D01*
X71190364Y-168456530D02*
X67810364Y-168456530D01*
X71190364Y-168496530D02*
X67828364Y-168496530D01*
X71190364Y-168536530D02*
X67847364Y-168536530D01*
X71190364Y-168576530D02*
X67867364Y-168576530D01*
X71190364Y-168616530D02*
X67886364Y-168616530D01*
X71190364Y-168656530D02*
X67906364Y-168656530D01*
X71190364Y-168696530D02*
X67927364Y-168696530D01*
X71190364Y-168736530D02*
X67948364Y-168736530D01*
X71190364Y-168776530D02*
X67969364Y-168776530D01*
X71190364Y-168816530D02*
X67991364Y-168816530D01*
X71190364Y-168856530D02*
X68014364Y-168856530D01*
X71190364Y-168896530D02*
X68036364Y-168896530D01*
X71190364Y-168936530D02*
X68060364Y-168936530D01*
X71190364Y-168976530D02*
X68084364Y-168976530D01*
X71190364Y-169016530D02*
X68108364Y-169016530D01*
X71190364Y-169056530D02*
X68133364Y-169056530D01*
X71190364Y-169096530D02*
X68158364Y-169096530D01*
X71190364Y-169136530D02*
X68184364Y-169136530D01*
X71190364Y-169176530D02*
X68210364Y-169176530D01*
X71190364Y-169216530D02*
X68237364Y-169216530D01*
X71190364Y-169256530D02*
X68265364Y-169256530D01*
X71190364Y-169296530D02*
X68293364Y-169296530D01*
X71190364Y-169336530D02*
X68321364Y-169336530D01*
X71190364Y-169376530D02*
X68351364Y-169376530D01*
X71190364Y-169416530D02*
X68381364Y-169416530D01*
X71190364Y-169456530D02*
X68411364Y-169456530D01*
X71190364Y-169496530D02*
X68442364Y-169496530D01*
X71190364Y-169536530D02*
X68474364Y-169536530D01*
X71190364Y-169576530D02*
X68506364Y-169576530D01*
X71190364Y-169616530D02*
X68539364Y-169616530D01*
X71190364Y-169656530D02*
X68573364Y-169656530D01*
X71190364Y-169696530D02*
X68607364Y-169696530D01*
X71190364Y-169736530D02*
X68642364Y-169736530D01*
X71190364Y-169776530D02*
X68678364Y-169776530D01*
X71190364Y-169816530D02*
X68715364Y-169816530D01*
X71190364Y-169856530D02*
X68752364Y-169856530D01*
X71190364Y-169896530D02*
X68791364Y-169896530D01*
X71190364Y-169936530D02*
X68830364Y-169936530D01*
X71190364Y-169976530D02*
X68870364Y-169976530D01*
X71190364Y-170016530D02*
X68911364Y-170016530D01*
X71190364Y-170056530D02*
X68953364Y-170056530D01*
X73030364Y-171416530D02*
X71832364Y-171416530D01*
X73293364Y-171376530D02*
X71569364Y-171376530D01*
X73493364Y-171336530D02*
X71369364Y-171336530D01*
X73661364Y-171296530D02*
X71201364Y-171296530D01*
X73809364Y-171256530D02*
X71053364Y-171256530D01*
X73941364Y-171216530D02*
X70921364Y-171216530D01*
X74061364Y-171176530D02*
X70801364Y-171176530D01*
X74173364Y-171136530D02*
X70689364Y-171136530D01*
X74277364Y-171096530D02*
X70585364Y-171096530D01*
X74375364Y-171056530D02*
X70487364Y-171056530D01*
X74468364Y-171016530D02*
X70394364Y-171016530D01*
X74556364Y-170976530D02*
X70306364Y-170976530D01*
X74640364Y-170936530D02*
X70222364Y-170936530D01*
X74720364Y-170896530D02*
X70142364Y-170896530D01*
X74796364Y-170856530D02*
X70066364Y-170856530D01*
X74870364Y-170816530D02*
X69992364Y-170816530D01*
X74941364Y-170776530D02*
X69921364Y-170776530D01*
X75010364Y-170736530D02*
X69852364Y-170736530D01*
X75076364Y-170696530D02*
X69786364Y-170696530D01*
X75140364Y-170656530D02*
X69722364Y-170656530D01*
X75201364Y-170616530D02*
X69661364Y-170616530D01*
X75261364Y-170576530D02*
X69601364Y-170576530D01*
X75320364Y-170536530D02*
X69542364Y-170536530D01*
X75376364Y-170496530D02*
X69486364Y-170496530D01*
X75431364Y-170456530D02*
X69431364Y-170456530D01*
X75485364Y-170416530D02*
X69377364Y-170416530D01*
X75537364Y-170376530D02*
X69325364Y-170376530D01*
X75587364Y-170336530D02*
X69275364Y-170336530D01*
X75637364Y-170296530D02*
X69225364Y-170296530D01*
X75685364Y-170256530D02*
X69177364Y-170256530D01*
X75732364Y-170216530D02*
X69130364Y-170216530D01*
X75778364Y-170176530D02*
X69084364Y-170176530D01*
X75823364Y-170136530D02*
X69039364Y-170136530D01*
X75867364Y-170096530D02*
X68995364Y-170096530D01*
X75909364Y-170056530D02*
X73672364Y-170056530D01*
X75951364Y-170016530D02*
X73672364Y-170016530D01*
X75992364Y-169976530D02*
X73672364Y-169976530D01*
X76032364Y-169936530D02*
X73672364Y-169936530D01*
X76071364Y-169896530D02*
X73672364Y-169896530D01*
X76110364Y-169856530D02*
X73672364Y-169856530D01*
X76147364Y-169816530D02*
X73672364Y-169816530D01*
X76184364Y-169776530D02*
X73672364Y-169776530D01*
X76220364Y-169736530D02*
X73672364Y-169736530D01*
X76255364Y-169696530D02*
X73672364Y-169696530D01*
X76289364Y-169656530D02*
X73672364Y-169656530D01*
X76323364Y-169616530D02*
X73672364Y-169616530D01*
X76356364Y-169576530D02*
X73672364Y-169576530D01*
X76388364Y-169536530D02*
X73672364Y-169536530D01*
X76420364Y-169496530D02*
X73672364Y-169496530D01*
X76451364Y-169456530D02*
X73672364Y-169456530D01*
X76481364Y-169416530D02*
X73672364Y-169416530D01*
X76511364Y-169376530D02*
X73672364Y-169376530D01*
X76541364Y-169336530D02*
X73672364Y-169336530D01*
X76569364Y-169296530D02*
X73672364Y-169296530D01*
X76597364Y-169256530D02*
X73672364Y-169256530D01*
X76625364Y-169216530D02*
X73672364Y-169216530D01*
X76652364Y-169176530D02*
X73672364Y-169176530D01*
X76678364Y-169136530D02*
X73672364Y-169136530D01*
X76704364Y-169096530D02*
X73672364Y-169096530D01*
X76729364Y-169056530D02*
X73672364Y-169056530D01*
X76754364Y-169016530D02*
X73672364Y-169016530D01*
X76778364Y-168976530D02*
X73672364Y-168976530D01*
X76802364Y-168936530D02*
X73672364Y-168936530D01*
X76826364Y-168896530D02*
X73672364Y-168896530D01*
X76848364Y-168856530D02*
X73672364Y-168856530D01*
X76871364Y-168816530D02*
X73672364Y-168816530D01*
X76893364Y-168776530D02*
X73672364Y-168776530D01*
X76914364Y-168736530D02*
X73672364Y-168736530D01*
X76935364Y-168696530D02*
X73672364Y-168696530D01*
X76956364Y-168656530D02*
X73672364Y-168656530D01*
X76976364Y-168616530D02*
X73672364Y-168616530D01*
X76995364Y-168576530D02*
X73672364Y-168576530D01*
X77015364Y-168536530D02*
X73672364Y-168536530D01*
X77034364Y-168496530D02*
X73672364Y-168496530D01*
X77052364Y-168456530D02*
X73672364Y-168456530D01*
X77070364Y-168416530D02*
X73672364Y-168416530D01*
X77088364Y-168376530D02*
X73672364Y-168376530D01*
X77105364Y-168336530D02*
X73672364Y-168336530D01*
X77121364Y-168296530D02*
X73672364Y-168296530D01*
X77138364Y-168256530D02*
X73672364Y-168256530D01*
X77154364Y-168216530D02*
X73672364Y-168216530D01*
X77169364Y-168176530D02*
X73672364Y-168176530D01*
X77185364Y-168136530D02*
X73672364Y-168136530D01*
X77199364Y-168096530D02*
X73672364Y-168096530D01*
X77214364Y-168056530D02*
X73672364Y-168056530D01*
X77228364Y-168016530D02*
X73672364Y-168016530D01*
X77242364Y-167976530D02*
X73672364Y-167976530D01*
X77255364Y-167936530D02*
X73672364Y-167936530D01*
X77268364Y-167896530D02*
X73672364Y-167896530D01*
X77281364Y-167856530D02*
X73672364Y-167856530D01*
X77293364Y-167816530D02*
X73672364Y-167816530D01*
X77305364Y-167776530D02*
X73672364Y-167776530D01*
X77316364Y-167736530D02*
X73672364Y-167736530D01*
X77328364Y-167696530D02*
X73672364Y-167696530D01*
X77338364Y-167656530D02*
X73672364Y-167656530D01*
X77349364Y-167616530D02*
X73672364Y-167616530D01*
X77359364Y-167576530D02*
X67503364Y-167576530D01*
X77369364Y-167536530D02*
X67493364Y-167536530D01*
X77378364Y-167496530D02*
X67484364Y-167496530D01*
X77387364Y-167456530D02*
X67475364Y-167456530D01*
X77396364Y-167416530D02*
X67466364Y-167416530D01*
X77405364Y-167376530D02*
X67457364Y-167376530D01*
X77413364Y-167336530D02*
X67449364Y-167336530D01*
X77421364Y-167296530D02*
X67441364Y-167296530D01*
X77428364Y-167256530D02*
X67434364Y-167256530D01*
X77435364Y-167216530D02*
X67427364Y-167216530D01*
X77442364Y-167176530D02*
X67420364Y-167176530D01*
X77449364Y-167136530D02*
X67413364Y-167136530D01*
X77455364Y-167096530D02*
X67407364Y-167096530D01*
X77461364Y-167056530D02*
X67401364Y-167056530D01*
X77466364Y-167015530D02*
X67396364Y-167015530D01*
X77471364Y-166975530D02*
X67391364Y-166975530D01*
X77476364Y-166935530D02*
X67386364Y-166935530D01*
X77481364Y-166895530D02*
X67381364Y-166895530D01*
X77485364Y-166855530D02*
X67377364Y-166855530D01*
X77489364Y-166815530D02*
X67373364Y-166815530D01*
X77493364Y-166775530D02*
X67369364Y-166775530D01*
X77496364Y-166735530D02*
X67366364Y-166735530D01*
X77499364Y-166695530D02*
X67363364Y-166695530D01*
X77501364Y-166655530D02*
X67361364Y-166655530D01*
X77504364Y-166615530D02*
X67358364Y-166615530D01*
X77506364Y-166575530D02*
X67356364Y-166575530D01*
X77508364Y-166535530D02*
X67354364Y-166535530D01*
X77509364Y-166495530D02*
X67353364Y-166495530D01*
X77510364Y-166455530D02*
X67352364Y-166455530D01*
X77511364Y-166335530D02*
X67351364Y-166335530D01*
X77511364Y-166375530D02*
X67351364Y-166375530D01*
X77511364Y-166415530D02*
X67351364Y-166415530D01*
X77551364Y-166335530D02*
G75*
G02*
X67311364Y-166335530I-5120000J0D01*
G01*
X67311364Y-166335530D02*
G75*
G02*
X77551364Y-166335530I5120000J0D01*
G01*
%TD*%
%LPC*%
D13*
X80300000Y-113175000D02*
G75*
G02*
X78700000Y-113175000I-800000J0D01*
G01*
X78700000Y-113175000D02*
G75*
G02*
X80300000Y-113175000I800000J0D01*
G01*
X74300000Y-138675000D02*
G75*
G02*
X72700000Y-138675000I-800000J0D01*
G01*
X72700000Y-138675000D02*
G75*
G02*
X74300000Y-138675000I800000J0D01*
G01*
D14*
%TO.C,R15*%
X91300000Y-131850000D03*
X91300000Y-133500000D03*
%TD*%
D15*
%TO.C,R14*%
X87700000Y-131850000D03*
X87700000Y-133500000D03*
%TD*%
%TO.C,R13*%
X89500000Y-131850000D03*
X89500000Y-133500000D03*
%TD*%
D14*
%TO.C,R12*%
X85900000Y-133500000D03*
X85900000Y-131850000D03*
%TD*%
D16*
%TO.C,R10*%
X69170000Y-156760000D03*
X70820000Y-156760000D03*
%TD*%
%TO.C,R9*%
X69170000Y-155260000D03*
X70820000Y-155260000D03*
%TD*%
D14*
%TO.C,R8*%
X92500000Y-118500000D03*
X92500000Y-116850000D03*
%TD*%
%TO.C,R7*%
X90500000Y-118500000D03*
X90500000Y-116850000D03*
%TD*%
%TO.C,R6*%
X88500000Y-118500000D03*
X88500000Y-116850000D03*
%TD*%
D17*
%TO.C,R5*%
X70820000Y-158260000D03*
X69170000Y-158260000D03*
%TD*%
D16*
%TO.C,R4*%
X66630000Y-150525000D03*
X68280000Y-150525000D03*
%TD*%
D18*
%TO.C,C8*%
X89500000Y-135100000D03*
X89500000Y-136650000D03*
%TD*%
D19*
%TO.C,C5*%
X70770000Y-159760000D03*
X69220000Y-159760000D03*
%TD*%
D18*
%TO.C,C4*%
X89495000Y-128485000D03*
X89495000Y-130035000D03*
%TD*%
D20*
%TO.C,C3*%
X78364251Y-160309956D03*
X79460267Y-159213940D03*
%TD*%
D19*
%TO.C,C2*%
X90275000Y-120500000D03*
X88725000Y-120500000D03*
%TD*%
%TO.C,C1*%
X90275000Y-115000000D03*
X88725000Y-115000000D03*
%TD*%
D21*
%TO.C,F1*%
X90787184Y-164548505D03*
X88312310Y-157830991D03*
X80887690Y-154649009D03*
X78412816Y-147931495D03*
%TD*%
D22*
%TO.C,R1*%
X89207484Y-147917839D03*
D23*
X94595638Y-153305993D03*
%TD*%
D24*
%TO.C,VIN*%
X94642374Y-168726550D03*
D25*
X97442517Y-165926407D03*
%TD*%
D26*
%TO.C,MAIN*%
X98662453Y-105599039D03*
D27*
X96894686Y-103831272D03*
%TD*%
D28*
%TO.C,MES1*%
X103500000Y-124175000D03*
X103500000Y-150175000D03*
D29*
X99250000Y-147175000D03*
X99250000Y-145425000D03*
%TD*%
D30*
%TO.C,KICKER*%
X102624801Y-114593924D03*
D31*
X102624801Y-112093924D03*
%TD*%
D32*
%TO.C,D1*%
X71900000Y-149885000D03*
D33*
X71900000Y-152425000D03*
%TD*%
D22*
%TO.C,R2*%
X96095638Y-154805993D03*
D23*
X101483792Y-160194147D03*
%TD*%
D34*
%TO.C,C6*%
X72431354Y-110333064D03*
D35*
X72431354Y-105333064D03*
%TD*%
D36*
%TO.C,J2*%
X84911433Y-148621788D03*
D37*
X86707484Y-150417839D03*
X88503535Y-152213890D03*
X90299587Y-154009942D03*
X92095638Y-155805993D03*
%TD*%
D38*
%TO.C,LINE*%
X111552677Y-143493160D03*
D25*
X111552677Y-147453160D03*
%TD*%
D35*
%TO.C,MD*%
X114850000Y-127175000D03*
X114850000Y-138175000D03*
D39*
X104850000Y-130175000D03*
X104850000Y-135175000D03*
%TD*%
D40*
%TO.C,P*%
X69735000Y-146675000D03*
D41*
X67455000Y-140375000D03*
D40*
X65175000Y-146675000D03*
%TD*%
D34*
%TO.C,C7*%
X72431364Y-163835530D03*
D35*
X72431364Y-168835530D03*
%TD*%
%LPD*%
M02*
