%TF.GenerationSoftware,KiCad,Pcbnew,8.0.1*%
%TF.CreationDate,2024-04-28T23:39:04+09:00*%
%TF.ProjectId,Power-20240325,506f7765-722d-4323-9032-34303332352e,rev?*%
%TF.SameCoordinates,Original*%
%TF.FileFunction,Paste,Bot*%
%TF.FilePolarity,Positive*%
%FSLAX46Y46*%
G04 Gerber Fmt 4.6, Leading zero omitted, Abs format (unit mm)*
G04 Created by KiCad (PCBNEW 8.0.1) date 2024-04-28 23:39:04*
%MOMM*%
%LPD*%
G01*
G04 APERTURE LIST*
G04 Aperture macros list*
%AMRoundRect*
0 Rectangle with rounded corners*
0 $1 Rounding radius*
0 $2 $3 $4 $5 $6 $7 $8 $9 X,Y pos of 4 corners*
0 Add a 4 corners polygon primitive as box body*
4,1,4,$2,$3,$4,$5,$6,$7,$8,$9,$2,$3,0*
0 Add four circle primitives for the rounded corners*
1,1,$1+$1,$2,$3*
1,1,$1+$1,$4,$5*
1,1,$1+$1,$6,$7*
1,1,$1+$1,$8,$9*
0 Add four rect primitives between the rounded corners*
20,1,$1+$1,$2,$3,$4,$5,0*
20,1,$1+$1,$4,$5,$6,$7,0*
20,1,$1+$1,$6,$7,$8,$9,0*
20,1,$1+$1,$8,$9,$2,$3,0*%
G04 Aperture macros list end*
%ADD10RoundRect,0.225000X-0.250000X0.225000X-0.250000X-0.225000X0.250000X-0.225000X0.250000X0.225000X0*%
%ADD11RoundRect,0.200000X-0.275000X0.200000X-0.275000X-0.200000X0.275000X-0.200000X0.275000X0.200000X0*%
%ADD12RoundRect,0.225000X0.225000X0.250000X-0.225000X0.250000X-0.225000X-0.250000X0.225000X-0.250000X0*%
%ADD13RoundRect,0.200000X-0.200000X-0.275000X0.200000X-0.275000X0.200000X0.275000X-0.200000X0.275000X0*%
%ADD14RoundRect,0.200000X0.275000X-0.200000X0.275000X0.200000X-0.275000X0.200000X-0.275000X-0.200000X0*%
%ADD15RoundRect,0.200000X0.200000X0.275000X-0.200000X0.275000X-0.200000X-0.275000X0.200000X-0.275000X0*%
%ADD16RoundRect,0.225000X0.017678X-0.335876X0.335876X-0.017678X-0.017678X0.335876X-0.335876X0.017678X0*%
%ADD17RoundRect,0.250000X0.350000X-0.850000X0.350000X0.850000X-0.350000X0.850000X-0.350000X-0.850000X0*%
%ADD18RoundRect,0.250000X1.125000X-1.275000X1.125000X1.275000X-1.125000X1.275000X-1.125000X-1.275000X0*%
%ADD19RoundRect,0.225000X-0.225000X-0.250000X0.225000X-0.250000X0.225000X0.250000X-0.225000X0.250000X0*%
G04 APERTURE END LIST*
D10*
%TO.C,C4*%
X77995000Y-133809971D03*
X77995000Y-135359971D03*
%TD*%
D11*
%TO.C,R13*%
X78000000Y-137174971D03*
X78000000Y-138824971D03*
%TD*%
D12*
%TO.C,C2*%
X78775000Y-125824971D03*
X77225000Y-125824971D03*
%TD*%
D13*
%TO.C,R4*%
X55130000Y-155849971D03*
X56780000Y-155849971D03*
%TD*%
D14*
%TO.C,R7*%
X79000000Y-123824971D03*
X79000000Y-122174971D03*
%TD*%
%TO.C,R15*%
X79800000Y-138824971D03*
X79800000Y-137174971D03*
%TD*%
D15*
%TO.C,R5*%
X59320000Y-163584971D03*
X57670000Y-163584971D03*
%TD*%
D10*
%TO.C,C8*%
X78000000Y-140424971D03*
X78000000Y-141974971D03*
%TD*%
D14*
%TO.C,R6*%
X77000000Y-123824971D03*
X77000000Y-122174971D03*
%TD*%
D13*
%TO.C,R10*%
X57670000Y-162084971D03*
X59320000Y-162084971D03*
%TD*%
D14*
%TO.C,R8*%
X81000000Y-123824971D03*
X81000000Y-122174971D03*
%TD*%
D12*
%TO.C,C5*%
X59270000Y-165084971D03*
X57720000Y-165084971D03*
%TD*%
D14*
%TO.C,R12*%
X74400000Y-138824971D03*
X74400000Y-137174971D03*
%TD*%
D16*
%TO.C,C3*%
X66864251Y-165634927D03*
X67960267Y-164538911D03*
%TD*%
D17*
%TO.C,P*%
X58235000Y-151999971D03*
D18*
X54430000Y-147374971D03*
X57480000Y-147374971D03*
X54430000Y-144024971D03*
X57480000Y-144024971D03*
D17*
X53675000Y-151999971D03*
%TD*%
D11*
%TO.C,R14*%
X76200000Y-137174971D03*
X76200000Y-138824971D03*
%TD*%
D13*
%TO.C,R9*%
X57670000Y-160584971D03*
X59320000Y-160584971D03*
%TD*%
D19*
%TO.C,C1*%
X77225000Y-120324971D03*
X78775000Y-120324971D03*
%TD*%
M02*
