M48
; DRILL file {KiCad 8.0.1} date 2024-05-18T14:14:00+0900
; FORMAT={-:-/ absolute / inch / decimal}
; #@! TF.CreationDate,2024-05-18T14:14:00+09:00
; #@! TF.GenerationSoftware,Kicad,Pcbnew,8.0.1
; #@! TF.FileFunction,Plated,1,2,PTH
FMAT,2
INCH
; #@! TA.AperFunction,Plated,PTH,ViaDrill
T1C0.0157
; #@! TA.AperFunction,Plated,PTH,ComponentDrill
T2C0.0276
; #@! TA.AperFunction,Plated,PTH,ComponentDrill
T3C0.0374
; #@! TA.AperFunction,Plated,PTH,ComponentDrill
T4C0.0394
; #@! TA.AperFunction,Plated,PTH,ComponentDrill
T5C0.0433
; #@! TA.AperFunction,Plated,PTH,ComponentDrill
T6C0.0669
; #@! TA.AperFunction,Plated,PTH,ComponentDrill
T7C0.0709
; #@! TA.AperFunction,Plated,PTH,ViaDrill
T8C0.0787
; #@! TA.AperFunction,Plated,PTH,ComponentDrill
T9C0.0787
%
G90
G05
T1
X1.7945Y-4.4134
X2.0278Y-4.1732
X2.0307Y-4.5035
X2.2305Y-4.1732
X2.2492Y-4.5335
X2.5591Y-4.0551
X2.638Y-4.1732
X2.6695Y-4.5413
X2.7394Y-4.0551
X2.8407Y-4.1732
X2.8594Y-4.5335
X3.074Y-4.4134
T2
X3.202Y-4.0295
X3.2709Y-4.0295
T3
X1.5623Y-4.0448
X1.6319Y-3.9752
X1.7015Y-3.9056
T4
X1.6375Y-5.0066
X1.8344Y-5.0066
X2.0307Y-3.8228
X2.1291Y-3.8228
X3.9199Y-5.0066
X4.1168Y-5.0066
T5
X2.4638Y-3.3366
X2.8969Y-3.3366
T6
X3.0937Y-3.5433
X3.2496Y-3.5433
T7
X2.5819Y-3.7303
X2.7787Y-3.7303
X3.6055Y-4.187
X3.6055Y-5.1319
X3.7236Y-3.9311
X3.7236Y-4.876
T8
X2.2866Y-5.063
X3.4283Y-5.063
T9
X4.0352Y-3.8816
X4.1744Y-4.0208
M30
