%TF.GenerationSoftware,KiCad,Pcbnew,8.0.3*%
%TF.CreationDate,2024-11-12T17:49:29+09:00*%
%TF.ProjectId,Power-20240325,506f7765-722d-4323-9032-34303332352e,rev?*%
%TF.SameCoordinates,Original*%
%TF.FileFunction,Copper,L1,Top*%
%TF.FilePolarity,Positive*%
%FSLAX46Y46*%
G04 Gerber Fmt 4.6, Leading zero omitted, Abs format (unit mm)*
G04 Created by KiCad (PCBNEW 8.0.3) date 2024-11-12 17:49:29*
%MOMM*%
%LPD*%
G01*
G04 APERTURE LIST*
G04 Aperture macros list*
%AMRoundRect*
0 Rectangle with rounded corners*
0 $1 Rounding radius*
0 $2 $3 $4 $5 $6 $7 $8 $9 X,Y pos of 4 corners*
0 Add a 4 corners polygon primitive as box body*
4,1,4,$2,$3,$4,$5,$6,$7,$8,$9,$2,$3,0*
0 Add four circle primitives for the rounded corners*
1,1,$1+$1,$2,$3*
1,1,$1+$1,$4,$5*
1,1,$1+$1,$6,$7*
1,1,$1+$1,$8,$9*
0 Add four rect primitives between the rounded corners*
20,1,$1+$1,$2,$3,$4,$5,0*
20,1,$1+$1,$4,$5,$6,$7,0*
20,1,$1+$1,$6,$7,$8,$9,0*
20,1,$1+$1,$8,$9,$2,$3,0*%
%AMHorizOval*
0 Thick line with rounded ends*
0 $1 width*
0 $2 $3 position (X,Y) of the first rounded end (center of the circle)*
0 $4 $5 position (X,Y) of the second rounded end (center of the circle)*
0 Add line between two ends*
20,1,$1,$2,$3,$4,$5,0*
0 Add two circle primitives to create the rounded ends*
1,1,$1,$2,$3*
1,1,$1,$4,$5*%
G04 Aperture macros list end*
%TA.AperFunction,ComponentPad*%
%ADD10C,4.000000*%
%TD*%
%TA.AperFunction,SMDPad,CuDef*%
%ADD11RoundRect,0.381000X-0.381000X0.762000X-0.381000X-0.762000X0.381000X-0.762000X0.381000X0.762000X0*%
%TD*%
%TA.AperFunction,SMDPad,CuDef*%
%ADD12RoundRect,0.381000X0.762000X0.381000X-0.762000X0.381000X-0.762000X-0.381000X0.762000X-0.381000X0*%
%TD*%
%TA.AperFunction,ComponentPad*%
%ADD13C,1.500000*%
%TD*%
%TA.AperFunction,ComponentPad*%
%ADD14C,2.600000*%
%TD*%
%TA.AperFunction,ComponentPad*%
%ADD15RoundRect,0.250000X-0.088388X0.936916X-0.936916X0.088388X0.088388X-0.936916X0.936916X-0.088388X0*%
%TD*%
%TA.AperFunction,ComponentPad*%
%ADD16HorizOval,1.700000X-0.088388X0.088388X0.088388X-0.088388X0*%
%TD*%
%TA.AperFunction,ComponentPad*%
%ADD17R,2.000000X2.000000*%
%TD*%
%TA.AperFunction,ComponentPad*%
%ADD18C,2.000000*%
%TD*%
%TA.AperFunction,ComponentPad*%
%ADD19C,3.400000*%
%TD*%
%TA.AperFunction,ComponentPad*%
%ADD20RoundRect,0.250000X-0.600000X-0.750000X0.600000X-0.750000X0.600000X0.750000X-0.600000X0.750000X0*%
%TD*%
%TA.AperFunction,ComponentPad*%
%ADD21O,1.700000X2.000000*%
%TD*%
%TA.AperFunction,ViaPad*%
%ADD22C,0.800000*%
%TD*%
%TA.AperFunction,ViaPad*%
%ADD23C,1.600000*%
%TD*%
%TA.AperFunction,ViaPad*%
%ADD24C,3.500000*%
%TD*%
%TA.AperFunction,Conductor*%
%ADD25C,2.500000*%
%TD*%
%TA.AperFunction,Conductor*%
%ADD26C,2.000000*%
%TD*%
%TA.AperFunction,Conductor*%
%ADD27C,0.250000*%
%TD*%
%TA.AperFunction,Conductor*%
%ADD28C,0.500000*%
%TD*%
G04 APERTURE END LIST*
D10*
%TO.P,VIN,1,Pin_1*%
%TO.N,Net-(J1-Pin_1)*%
X33303723Y-24132521D03*
%TO.P,VIN,2,Pin_2*%
%TO.N,GND*%
X29061083Y-19889881D03*
%TD*%
D11*
%TO.P,U1,1,ON/OFF*%
%TO.N,GND*%
X-19000001Y-39850000D03*
%TO.P,U1,2,Vin*%
%TO.N,VIN*%
X-23580001Y-39850000D03*
D12*
X-25100001Y-36040000D03*
%TO.P,U1,3,GND*%
%TO.N,GND*%
X-25100001Y-33750000D03*
X-25100001Y-31460000D03*
D11*
%TO.P,U1,4,Vout*%
%TO.N,+3.3V*%
X-23580001Y-27650000D03*
%TO.P,U1,5,Sense*%
X-19000001Y-27650000D03*
%TO.P,U1,6,Trim*%
%TO.N,Net-(U1-Trim)*%
X-14420001Y-27650000D03*
D12*
%TO.P,U1,7,GND*%
%TO.N,GND*%
X-12900001Y-33750000D03*
%TD*%
D11*
%TO.P,U2,1,ON/OFF*%
%TO.N,GND*%
X-3500001Y-39850000D03*
%TO.P,U2,2,Vin*%
%TO.N,VIN*%
X-8080001Y-39850000D03*
D12*
X-9600001Y-36040000D03*
%TO.P,U2,3,GND*%
%TO.N,GND*%
X-9600001Y-33750000D03*
X-9600001Y-31460000D03*
D11*
%TO.P,U2,4,Vout*%
%TO.N,+5V*%
X-8080001Y-27650000D03*
%TO.P,U2,5,Sense*%
X-3500001Y-27650000D03*
%TO.P,U2,6,Trim*%
%TO.N,Net-(U2-Trim)*%
X1079999Y-27650000D03*
D12*
%TO.P,U2,7,GND*%
%TO.N,GND*%
X2599999Y-33750000D03*
%TD*%
D13*
%TO.P,+,1,-*%
%TO.N,GND*%
X10000000Y-23999999D03*
%TO.P,+,2,+*%
%TO.N,VIN*%
X8250000Y-23999999D03*
%TD*%
D14*
%TO.P,F1,1*%
%TO.N,Net-(J1-Pin_1)*%
X21500000Y-24400000D03*
X18500000Y-30900000D03*
%TO.P,F1,2*%
%TO.N,Net-(SW1A-A)*%
X21500000Y-48400000D03*
X18500000Y-54900000D03*
%TD*%
D15*
%TO.P,MAIN,1,Pin_1*%
%TO.N,+5V*%
X-29101193Y-19703645D03*
D16*
%TO.P,MAIN,2,Pin_2*%
%TO.N,+3.3V*%
X-30868960Y-21471412D03*
%TO.P,MAIN,3,Pin_3*%
%TO.N,GND*%
X-32636727Y-23239179D03*
%TD*%
D17*
%TO.P,C5,1*%
%TO.N,VIN*%
X-31486516Y-48818655D03*
D18*
%TO.P,C5,2*%
%TO.N,GND*%
X-26486516Y-48818655D03*
%TD*%
%TO.P,J6,*%
%TO.N,*%
X-10500000Y-6400000D03*
X500000Y-6400000D03*
D19*
%TO.P,J6,1,Pin_1*%
%TO.N,VIN*%
X-7500000Y-16400000D03*
%TO.P,J6,2,Pin_2*%
%TO.N,GND*%
X-2500000Y-16400000D03*
%TD*%
D17*
%TO.P,C4,1*%
%TO.N,VIN*%
X31486656Y-48818655D03*
D18*
%TO.P,C4,2*%
%TO.N,GND*%
X26486656Y-48818655D03*
%TD*%
D20*
%TO.P,J6,1,Pin_1*%
%TO.N,VIN*%
X19000000Y-18750000D03*
D21*
%TO.P,J6,2,Pin_2*%
%TO.N,GND*%
X21500000Y-18750000D03*
%TD*%
D20*
%TO.P,J3,1,Pin_1*%
%TO.N,+5V*%
X6250000Y-10025000D03*
D21*
%TO.P,J3,2,Pin_2*%
%TO.N,GND*%
X8750000Y-10025000D03*
%TD*%
D20*
%TO.P,KICKER,1,Pin_1*%
%TO.N,VIN*%
X-21500001Y-18750000D03*
D21*
%TO.P,KICKER,2,Pin_2*%
%TO.N,GND*%
X-19000001Y-18750000D03*
%TD*%
D22*
%TO.N,GND*%
X-27500001Y-33750000D03*
D23*
X8419999Y-36150001D03*
D22*
X-15950001Y-36799999D03*
X5000000Y-33750000D03*
X-450000Y-36800000D03*
D23*
%TO.N,VIN*%
X8419999Y-28650001D03*
D24*
X-15000001Y-50249999D03*
D22*
X-5275001Y-37000000D03*
X-21500001Y-36040000D03*
%TO.N,+3.3V*%
X-21575001Y-27650000D03*
D23*
X8419999Y-33650001D03*
D24*
%TO.N,Net-(SW1A-A)*%
X13999999Y-50250000D03*
D22*
%TO.N,+5V*%
X-6075001Y-27650000D03*
D23*
X8419999Y-31150001D03*
D22*
X-8080001Y-24650001D03*
X-3500001Y-24650001D03*
%TO.N,Net-(U1-Trim)*%
X-16425000Y-27650000D03*
%TO.N,Net-(U2-Trim)*%
X-925001Y-27650000D03*
%TD*%
D25*
%TO.N,GND*%
X-12900002Y-33750000D02*
X-15950001Y-36799999D01*
X-450000Y-36800000D02*
X2599998Y-33750000D01*
X-25100000Y-33750000D02*
X-27500001Y-33750000D01*
X-12900002Y-33750000D02*
X-9600000Y-33750000D01*
X-9600001Y-31460000D02*
X-9600000Y-33750000D01*
X2599998Y-33750000D02*
X5000000Y-33750000D01*
X-25100001Y-31460000D02*
X-25100001Y-33750000D01*
X-15950001Y-36799999D02*
X-19000001Y-39849999D01*
X-3500001Y-39849999D02*
X-450000Y-36800000D01*
D26*
%TO.N,+3.3V*%
X-23580001Y-27650001D02*
X-21575001Y-27650000D01*
X-23580001Y-27650001D02*
X-24690371Y-27650001D01*
X-19000001Y-27650001D02*
X-21575001Y-27650000D01*
X-24690371Y-27650001D02*
X-30868960Y-21471412D01*
D27*
%TO.N,+5V*%
X8419999Y-31150001D02*
X-1Y-31150001D01*
D26*
X-3500001Y-27650001D02*
X-6075001Y-27650000D01*
X-8080001Y-27650001D02*
X-8080001Y-24650001D01*
X-8080001Y-27650001D02*
X-6075001Y-27650000D01*
D27*
X-1Y-31150001D02*
X-3500001Y-27650001D01*
D26*
X-3500001Y-27650001D02*
X-3500001Y-24650001D01*
D28*
%TO.N,Net-(U1-Trim)*%
X-16425000Y-27650000D02*
X-14420001Y-27650001D01*
%TO.N,Net-(U2-Trim)*%
X-925001Y-27650000D02*
X1079999Y-27650001D01*
%TD*%
%TA.AperFunction,Conductor*%
%TO.N,VIN*%
G36*
X-10990966Y-4769685D02*
G01*
X-10945211Y-4822489D01*
X-10935267Y-4891647D01*
X-10964292Y-4955203D01*
X-11017742Y-4991281D01*
X-11104802Y-5021169D01*
X-11104811Y-5021172D01*
X-11323506Y-5139524D01*
X-11323507Y-5139525D01*
X-11323509Y-5139526D01*
X-11519744Y-5292262D01*
X-11665046Y-5450102D01*
X-11688166Y-5475217D01*
X-11824173Y-5683393D01*
X-11924063Y-5911118D01*
X-11985107Y-6152175D01*
X-11985109Y-6152187D01*
X-11993112Y-6248778D01*
X-12005643Y-6400000D01*
X-11985108Y-6647821D01*
X-11924063Y-6888881D01*
X-11824173Y-7116607D01*
X-11688164Y-7324785D01*
X-11519744Y-7507738D01*
X-11323509Y-7660474D01*
X-11104810Y-7778828D01*
X-10869614Y-7859571D01*
X-10624335Y-7900500D01*
X-10375665Y-7900500D01*
X-10130386Y-7859571D01*
X-9895190Y-7778828D01*
X-9676491Y-7660474D01*
X-9480256Y-7507738D01*
X-9311836Y-7324785D01*
X-9311833Y-7324782D01*
X-9175826Y-7116606D01*
X-9075936Y-6888881D01*
X-9014892Y-6647824D01*
X-9014890Y-6647812D01*
X-8994357Y-6400005D01*
X-8994357Y-6399994D01*
X-9014890Y-6152187D01*
X-9014892Y-6152175D01*
X-9075936Y-5911118D01*
X-9175826Y-5683393D01*
X-9311833Y-5475217D01*
X-9480257Y-5292261D01*
X-9676493Y-5139524D01*
X-9895188Y-5021172D01*
X-9895197Y-5021169D01*
X-9982258Y-4991281D01*
X-10039273Y-4950896D01*
X-10065404Y-4886096D01*
X-10052353Y-4817456D01*
X-10004264Y-4766768D01*
X-9941995Y-4750000D01*
X-58005Y-4750000D01*
X9034Y-4769685D01*
X54789Y-4822489D01*
X64733Y-4891647D01*
X35708Y-4955203D01*
X-17742Y-4991281D01*
X-104802Y-5021169D01*
X-104811Y-5021172D01*
X-323506Y-5139524D01*
X-323507Y-5139525D01*
X-323509Y-5139526D01*
X-519744Y-5292262D01*
X-665046Y-5450102D01*
X-688166Y-5475217D01*
X-824173Y-5683393D01*
X-924063Y-5911118D01*
X-985107Y-6152175D01*
X-985109Y-6152187D01*
X-993112Y-6248778D01*
X-1005643Y-6400000D01*
X-985108Y-6647821D01*
X-924063Y-6888881D01*
X-824173Y-7116607D01*
X-688164Y-7324785D01*
X-519744Y-7507738D01*
X-323509Y-7660474D01*
X-104810Y-7778828D01*
X130386Y-7859571D01*
X375665Y-7900500D01*
X624335Y-7900500D01*
X869614Y-7859571D01*
X1104810Y-7778828D01*
X1323509Y-7660474D01*
X1519744Y-7507738D01*
X1688164Y-7324785D01*
X1824173Y-7116607D01*
X1924063Y-6888881D01*
X1985108Y-6647821D01*
X2005643Y-6400000D01*
X1993112Y-6248778D01*
X1985109Y-6152187D01*
X1985107Y-6152175D01*
X1924063Y-5911118D01*
X1824173Y-5683393D01*
X1688166Y-5475217D01*
X1665046Y-5450102D01*
X1519744Y-5292262D01*
X1323509Y-5139526D01*
X1323507Y-5139525D01*
X1323506Y-5139524D01*
X1104811Y-5021172D01*
X1104802Y-5021169D01*
X1017742Y-4991281D01*
X960727Y-4950896D01*
X934596Y-4886096D01*
X947647Y-4817456D01*
X995736Y-4766768D01*
X1058005Y-4750000D01*
X11914374Y-4750000D01*
X11916797Y-4750024D01*
X11920717Y-4750100D01*
X12024298Y-4752125D01*
X12041169Y-4753613D01*
X12254799Y-4787298D01*
X12273602Y-4791791D01*
X12478227Y-4857914D01*
X12496109Y-4865277D01*
X12665206Y-4950896D01*
X12687956Y-4962415D01*
X12704479Y-4972472D01*
X12878889Y-5098266D01*
X12893647Y-5110771D01*
X13046364Y-5262153D01*
X13058998Y-5276799D01*
X13186325Y-5450102D01*
X13196524Y-5466532D01*
X13295345Y-5657519D01*
X13302867Y-5675340D01*
X13370783Y-5879373D01*
X13375442Y-5898147D01*
X13410998Y-6111443D01*
X13412636Y-6128323D01*
X13415663Y-6235254D01*
X13415713Y-6238763D01*
X13415713Y-13250000D01*
X13418031Y-13367858D01*
X13418033Y-13367872D01*
X13454923Y-13600687D01*
X13454924Y-13600690D01*
X13527783Y-13824884D01*
X13527786Y-13824892D01*
X13634804Y-14034911D01*
X13634806Y-14034914D01*
X13634808Y-14034917D01*
X13764664Y-14213646D01*
X13773373Y-14225632D01*
X13773374Y-14225634D01*
X13940048Y-14392311D01*
X13940049Y-14392312D01*
X13940052Y-14392314D01*
X13940054Y-14392316D01*
X14130760Y-14530882D01*
X14340792Y-14637914D01*
X14564980Y-14710776D01*
X14797806Y-14747675D01*
X14915671Y-14750000D01*
X28793166Y-14750000D01*
X28795526Y-14750022D01*
X28903117Y-14752070D01*
X28920047Y-14753558D01*
X28950449Y-14758345D01*
X29133700Y-14787205D01*
X29152514Y-14791696D01*
X29357212Y-14857829D01*
X29375093Y-14865192D01*
X29567007Y-14962384D01*
X29583532Y-14972447D01*
X29586615Y-14974672D01*
X29758931Y-15099013D01*
X29771982Y-15109862D01*
X29849645Y-15183980D01*
X29851716Y-15186004D01*
X33512732Y-18847020D01*
X33546217Y-18908343D01*
X33541233Y-18978035D01*
X33512732Y-19022382D01*
X31595850Y-20939265D01*
X31534527Y-20972750D01*
X31464835Y-20967766D01*
X31408902Y-20925894D01*
X31384485Y-20860430D01*
X31390238Y-20813266D01*
X31390584Y-20812198D01*
X31390586Y-20812196D01*
X31487814Y-20512960D01*
X31546771Y-20203896D01*
X31554695Y-20077950D01*
X31566527Y-19889886D01*
X31566527Y-19889875D01*
X31546772Y-19575876D01*
X31546771Y-19575869D01*
X31546771Y-19575866D01*
X31487814Y-19266802D01*
X31390586Y-18967566D01*
X31371061Y-18926074D01*
X31256621Y-18682877D01*
X31256620Y-18682874D01*
X31173682Y-18552184D01*
X31088031Y-18417219D01*
X31088028Y-18417215D01*
X30887476Y-18174790D01*
X30887474Y-18174788D01*
X30860568Y-18149521D01*
X30658113Y-17959403D01*
X30658110Y-17959401D01*
X30658104Y-17959396D01*
X30403578Y-17774472D01*
X30403571Y-17774467D01*
X30403567Y-17774465D01*
X30127849Y-17622887D01*
X30127846Y-17622885D01*
X30127841Y-17622883D01*
X30127840Y-17622882D01*
X29835311Y-17507062D01*
X29835308Y-17507061D01*
X29530559Y-17428815D01*
X29530546Y-17428813D01*
X29218412Y-17389381D01*
X29218401Y-17389381D01*
X28903765Y-17389381D01*
X28903753Y-17389381D01*
X28591619Y-17428813D01*
X28591606Y-17428815D01*
X28286857Y-17507061D01*
X28286854Y-17507062D01*
X27994325Y-17622882D01*
X27994324Y-17622883D01*
X27718599Y-17774465D01*
X27718587Y-17774472D01*
X27464061Y-17959396D01*
X27464051Y-17959404D01*
X27234691Y-18174788D01*
X27234689Y-18174790D01*
X27034137Y-18417215D01*
X27034134Y-18417219D01*
X26865547Y-18682871D01*
X26865544Y-18682877D01*
X26731582Y-18967559D01*
X26731580Y-18967564D01*
X26634353Y-19266797D01*
X26575394Y-19575869D01*
X26575393Y-19575876D01*
X26555639Y-19889875D01*
X26555639Y-19889886D01*
X26575393Y-20203885D01*
X26575394Y-20203892D01*
X26584285Y-20250500D01*
X26630716Y-20493902D01*
X26634353Y-20512964D01*
X26731580Y-20812197D01*
X26731582Y-20812202D01*
X26865544Y-21096884D01*
X26865547Y-21096890D01*
X27004128Y-21315259D01*
X27023429Y-21382409D01*
X27003362Y-21449335D01*
X26950297Y-21494788D01*
X26899431Y-21505701D01*
X15540159Y-21505701D01*
X15486110Y-21508598D01*
X15486109Y-21508598D01*
X15459776Y-21511430D01*
X15459749Y-21511433D01*
X15406353Y-21520086D01*
X15406351Y-21520086D01*
X15271546Y-21570367D01*
X15210218Y-21603854D01*
X15210216Y-21603855D01*
X15095045Y-21690070D01*
X15095027Y-21690086D01*
X9239290Y-27545823D01*
X9225380Y-27560295D01*
X9218726Y-27567501D01*
X9205429Y-27582482D01*
X9205426Y-27582487D01*
X9128602Y-27704141D01*
X9105537Y-27755725D01*
X9100082Y-27767927D01*
X9060647Y-27906282D01*
X9060647Y-27906284D01*
X9061485Y-28012021D01*
X9061786Y-28050153D01*
X9061787Y-28050161D01*
X9062242Y-28053156D01*
X9062245Y-28053177D01*
X9072224Y-28118880D01*
X9072277Y-28119236D01*
X9113907Y-28256960D01*
X9113912Y-28256975D01*
X9165322Y-28367224D01*
X9172715Y-28387534D01*
X9203104Y-28500947D01*
X9206857Y-28522233D01*
X9217090Y-28639192D01*
X9217090Y-28660808D01*
X9206857Y-28777767D01*
X9203104Y-28799053D01*
X9172715Y-28912466D01*
X9165322Y-28932777D01*
X9115561Y-29039489D01*
X9105467Y-29057178D01*
X9102616Y-29061338D01*
X9099880Y-29065416D01*
X9094429Y-29073718D01*
X9034663Y-29204584D01*
X9014975Y-29271632D01*
X8994499Y-29414051D01*
X8994499Y-29795960D01*
X8974814Y-29862999D01*
X8922010Y-29908754D01*
X8852852Y-29918698D01*
X8838406Y-29915735D01*
X8646696Y-29864367D01*
X8646692Y-29864366D01*
X8646691Y-29864366D01*
X8646690Y-29864365D01*
X8646685Y-29864365D01*
X8420001Y-29844533D01*
X8419997Y-29844533D01*
X8193312Y-29864365D01*
X8193301Y-29864367D01*
X7973510Y-29923259D01*
X7973501Y-29923262D01*
X7767266Y-30019432D01*
X7767264Y-30019433D01*
X7580857Y-30149955D01*
X7419953Y-30310859D01*
X7307386Y-30471624D01*
X7252810Y-30515249D01*
X7205811Y-30524501D01*
X310452Y-30524501D01*
X243413Y-30504816D01*
X222771Y-30488182D01*
X-2038530Y-28226880D01*
X-2072015Y-28165557D01*
X-2068780Y-28100882D01*
X-2036448Y-28001373D01*
X-2025888Y-27934702D01*
X-1995958Y-27871567D01*
X-1936646Y-27834637D01*
X-1866783Y-27835635D01*
X-1808551Y-27874246D01*
X-1785485Y-27915781D01*
X-1752180Y-28018284D01*
X-1657534Y-28182216D01*
X-1530872Y-28322888D01*
X-1377731Y-28434151D01*
X-1204804Y-28511144D01*
X-1019647Y-28550500D01*
X-1019645Y-28550500D01*
X-830356Y-28550500D01*
X-830355Y-28550500D01*
X-645198Y-28511144D01*
X-645193Y-28511142D01*
X-472271Y-28434151D01*
X-472266Y-28434148D01*
X-458549Y-28424182D01*
X-392743Y-28400702D01*
X-385664Y-28400500D01*
X-304355Y-28400500D01*
X-237316Y-28420185D01*
X-191561Y-28472989D01*
X-180639Y-28516115D01*
X-179582Y-28531704D01*
X-133308Y-28717775D01*
X-48117Y-28889547D01*
X-12911Y-28933345D01*
X72008Y-29038989D01*
X72009Y-29038990D01*
X221452Y-29159116D01*
X221455Y-29159118D01*
X313144Y-29204591D01*
X393224Y-29244307D01*
X543012Y-29281558D01*
X579290Y-29290580D01*
X579291Y-29290580D01*
X579295Y-29290581D01*
X622342Y-29293500D01*
X1537655Y-29293499D01*
X1580703Y-29290581D01*
X1766774Y-29244307D01*
X1938546Y-29159116D01*
X2087989Y-29038990D01*
X2208115Y-28889547D01*
X2293306Y-28717775D01*
X2339580Y-28531704D01*
X2342499Y-28488657D01*
X2342498Y-26811344D01*
X2339580Y-26768296D01*
X2293306Y-26582225D01*
X2280965Y-26557342D01*
X2208117Y-26410456D01*
X2208115Y-26410453D01*
X2087989Y-26261010D01*
X2087988Y-26261009D01*
X1938545Y-26140883D01*
X1938542Y-26140881D01*
X1766777Y-26055694D01*
X1766775Y-26055693D01*
X1766774Y-26055693D01*
X1728938Y-26046283D01*
X1580707Y-26009419D01*
X1556104Y-26007751D01*
X1537656Y-26006500D01*
X1537653Y-26006500D01*
X622342Y-26006500D01*
X622339Y-26006501D01*
X579297Y-26009418D01*
X579296Y-26009418D01*
X393220Y-26055694D01*
X221455Y-26140881D01*
X221452Y-26140883D01*
X72009Y-26261009D01*
X72008Y-26261010D01*
X-48117Y-26410453D01*
X-48119Y-26410456D01*
X-120967Y-26557342D01*
X-133308Y-26582225D01*
X-179582Y-26768296D01*
X-180639Y-26783890D01*
X-204815Y-26849444D01*
X-260594Y-26891521D01*
X-304355Y-26899500D01*
X-385664Y-26899500D01*
X-452703Y-26879815D01*
X-458547Y-26875820D01*
X-472272Y-26865848D01*
X-645193Y-26788857D01*
X-645198Y-26788855D01*
X-797898Y-26756398D01*
X-830355Y-26749500D01*
X-1019647Y-26749500D01*
X-1059002Y-26757865D01*
X-1204803Y-26788855D01*
X-1204808Y-26788857D01*
X-1377730Y-26865848D01*
X-1377735Y-26865851D01*
X-1530871Y-26977111D01*
X-1530872Y-26977112D01*
X-1657534Y-27117784D01*
X-1752180Y-27281716D01*
X-1752180Y-27281718D01*
X-1752181Y-27281719D01*
X-1757570Y-27298304D01*
X-1797008Y-27355979D01*
X-1861367Y-27383177D01*
X-1930213Y-27371262D01*
X-1981689Y-27324017D01*
X-1999501Y-27259985D01*
X-1999501Y-24531903D01*
X-2036447Y-24298632D01*
X-2109434Y-24074004D01*
X-2147143Y-23999996D01*
X8744723Y-23999996D01*
X8744723Y-24000001D01*
X8763793Y-24217974D01*
X8763793Y-24217978D01*
X8820422Y-24429321D01*
X8820424Y-24429325D01*
X8820425Y-24429329D01*
X8845274Y-24482617D01*
X8912897Y-24627637D01*
X8912898Y-24627638D01*
X9038402Y-24806876D01*
X9193123Y-24961597D01*
X9372361Y-25087101D01*
X9570670Y-25179574D01*
X9782023Y-25236206D01*
X9964926Y-25252207D01*
X9999998Y-25255276D01*
X10000000Y-25255276D01*
X10000002Y-25255276D01*
X10028254Y-25252804D01*
X10217977Y-25236206D01*
X10429330Y-25179574D01*
X10627639Y-25087101D01*
X10806877Y-24961597D01*
X10961598Y-24806876D01*
X11087102Y-24627638D01*
X11179575Y-24429329D01*
X11236207Y-24217976D01*
X11255277Y-23999999D01*
X11236207Y-23782022D01*
X11179575Y-23570669D01*
X11087102Y-23372361D01*
X11087100Y-23372358D01*
X11087099Y-23372356D01*
X10961599Y-23193123D01*
X10917977Y-23149501D01*
X10806877Y-23038401D01*
X10627639Y-22912897D01*
X10627640Y-22912897D01*
X10627638Y-22912896D01*
X10459625Y-22834551D01*
X10429330Y-22820424D01*
X10429326Y-22820423D01*
X10429322Y-22820421D01*
X10217977Y-22763792D01*
X10000002Y-22744722D01*
X9999998Y-22744722D01*
X9854682Y-22757435D01*
X9782023Y-22763792D01*
X9782020Y-22763792D01*
X9570677Y-22820421D01*
X9570668Y-22820425D01*
X9372361Y-22912897D01*
X9372357Y-22912899D01*
X9193121Y-23038401D01*
X9038402Y-23193120D01*
X8912900Y-23372356D01*
X8912898Y-23372360D01*
X8820426Y-23570667D01*
X8820422Y-23570676D01*
X8763793Y-23782019D01*
X8763793Y-23782023D01*
X8744723Y-23999996D01*
X-2147143Y-23999996D01*
X-2216658Y-23863567D01*
X-2295863Y-23754551D01*
X-2355484Y-23672491D01*
X-2355486Y-23672489D01*
X-2355486Y-23672488D01*
X-2522488Y-23505486D01*
X-2713567Y-23366658D01*
X-2924004Y-23259434D01*
X-3148632Y-23186447D01*
X-3381904Y-23149501D01*
X-3381909Y-23149501D01*
X-3618093Y-23149501D01*
X-3618098Y-23149501D01*
X-3851369Y-23186447D01*
X-4075997Y-23259434D01*
X-4286434Y-23366658D01*
X-4477511Y-23505484D01*
X-4644518Y-23672491D01*
X-4783343Y-23863567D01*
X-4890567Y-24074004D01*
X-4963554Y-24298632D01*
X-5000501Y-24531903D01*
X-5000501Y-26025500D01*
X-5020186Y-26092539D01*
X-5072990Y-26138294D01*
X-5124501Y-26149500D01*
X-6455501Y-26149500D01*
X-6522540Y-26129815D01*
X-6568295Y-26077011D01*
X-6579501Y-26025500D01*
X-6579501Y-24531903D01*
X-6616447Y-24298632D01*
X-6689434Y-24074004D01*
X-6796658Y-23863567D01*
X-6875863Y-23754551D01*
X-6935484Y-23672491D01*
X-6935486Y-23672489D01*
X-6935486Y-23672488D01*
X-7102488Y-23505486D01*
X-7293567Y-23366658D01*
X-7504004Y-23259434D01*
X-7728632Y-23186447D01*
X-7961904Y-23149501D01*
X-7961909Y-23149501D01*
X-8198093Y-23149501D01*
X-8198098Y-23149501D01*
X-8431369Y-23186447D01*
X-8655997Y-23259434D01*
X-8866434Y-23366658D01*
X-9057511Y-23505484D01*
X-9224518Y-23672491D01*
X-9363343Y-23863567D01*
X-9470567Y-24074004D01*
X-9543554Y-24298632D01*
X-9580501Y-24531903D01*
X-9580501Y-27768099D01*
X-9554113Y-27934702D01*
X-9543554Y-28001370D01*
X-9470569Y-28225994D01*
X-9363344Y-28436435D01*
X-9363343Y-28436436D01*
X-9363339Y-28436443D01*
X-9360798Y-28440591D01*
X-9362427Y-28441589D01*
X-9341844Y-28498322D01*
X-9339582Y-28531704D01*
X-9293308Y-28717775D01*
X-9208117Y-28889547D01*
X-9087991Y-29038990D01*
X-8938548Y-29159116D01*
X-8766776Y-29244307D01*
X-8580705Y-29290581D01*
X-8537658Y-29293500D01*
X-7622345Y-29293499D01*
X-7622344Y-29293499D01*
X-7622343Y-29293498D01*
X-7579297Y-29290581D01*
X-7393226Y-29244307D01*
X-7230115Y-29163411D01*
X-7175022Y-29150500D01*
X-6061677Y-29150500D01*
X-4404981Y-29150500D01*
X-4349885Y-29163412D01*
X-4186776Y-29244307D01*
X-4000705Y-29290581D01*
X-3957658Y-29293500D01*
X-3042345Y-29293499D01*
X-3042344Y-29293499D01*
X-3042343Y-29293498D01*
X-2999297Y-29290581D01*
X-2999295Y-29290580D01*
X-2999290Y-29290580D01*
X-2913972Y-29269361D01*
X-2862886Y-29256657D01*
X-2793079Y-29259579D01*
X-2745282Y-29289308D01*
X-398735Y-31635858D01*
X-296287Y-31704312D01*
X-182453Y-31751464D01*
X-61610Y-31775500D01*
X-61609Y-31775501D01*
X-61608Y-31775501D01*
X-61607Y-31775501D01*
X2294831Y-31775501D01*
X2361870Y-31795186D01*
X2407625Y-31847990D01*
X2417569Y-31917148D01*
X2388544Y-31980704D01*
X2329766Y-32018478D01*
X2311016Y-32022440D01*
X2305176Y-32023209D01*
X2257758Y-32029452D01*
X2198369Y-32045365D01*
X2036112Y-32088841D01*
X1824121Y-32176650D01*
X1824106Y-32176657D01*
X1625387Y-32291387D01*
X1599000Y-32311634D01*
X1599001Y-32311635D01*
X1443330Y-32431085D01*
X-1606661Y-35481080D01*
X-4818915Y-38693331D01*
X-4818920Y-38693337D01*
X-4958611Y-38875386D01*
X-4958615Y-38875393D01*
X-5073341Y-39074103D01*
X-5073349Y-39074119D01*
X-5105271Y-39151186D01*
X-5161159Y-39286112D01*
X-5220549Y-39507759D01*
X-5250500Y-39735265D01*
X-5250500Y-39964732D01*
X-5220550Y-40192237D01*
X-5161159Y-40413885D01*
X-5073346Y-40625886D01*
X-4958611Y-40824611D01*
X-4818921Y-41006660D01*
X-4656663Y-41168918D01*
X-4474614Y-41308609D01*
X-4275889Y-41423343D01*
X-4275883Y-41423345D01*
X-4275880Y-41423347D01*
X-4223470Y-41445055D01*
X-4063888Y-41511157D01*
X-3842241Y-41570547D01*
X-3666391Y-41593697D01*
X-3614736Y-41600498D01*
X-3614735Y-41600498D01*
X-3385267Y-41600498D01*
X-3347350Y-41595506D01*
X-3157763Y-41570548D01*
X-2936115Y-41511157D01*
X-2936109Y-41511154D01*
X-2936107Y-41511154D01*
X-2724122Y-41423348D01*
X-2724117Y-41423345D01*
X-2724114Y-41423344D01*
X-2525389Y-41308609D01*
X-2525383Y-41308604D01*
X-2525379Y-41308602D01*
X-2343341Y-41168920D01*
X-2343334Y-41168914D01*
X868919Y-37956662D01*
X868921Y-37956660D01*
X2675581Y-36149999D01*
X3288760Y-35536818D01*
X3350083Y-35503334D01*
X3376441Y-35500500D01*
X5114727Y-35500500D01*
X5114734Y-35500500D01*
X5342238Y-35470548D01*
X5563887Y-35411158D01*
X5775888Y-35323344D01*
X5974612Y-35208611D01*
X6156661Y-35068919D01*
X6156665Y-35068914D01*
X6156670Y-35068911D01*
X6318911Y-34906670D01*
X6318914Y-34906665D01*
X6318919Y-34906661D01*
X6458611Y-34724612D01*
X6573344Y-34525888D01*
X6661158Y-34313887D01*
X6720548Y-34092238D01*
X6750500Y-33864734D01*
X6750500Y-33635266D01*
X6720548Y-33407762D01*
X6661158Y-33186113D01*
X6573344Y-32974112D01*
X6458611Y-32775388D01*
X6458608Y-32775385D01*
X6458607Y-32775382D01*
X6318918Y-32593338D01*
X6318911Y-32593330D01*
X6156670Y-32431089D01*
X6156661Y-32431081D01*
X5974617Y-32291392D01*
X5974608Y-32291387D01*
X5775888Y-32176656D01*
X5775876Y-32176650D01*
X5563887Y-32088842D01*
X5563883Y-32088841D01*
X5342238Y-32029452D01*
X5288975Y-32022439D01*
X5225080Y-31994173D01*
X5186609Y-31935849D01*
X5185778Y-31865984D01*
X5222850Y-31806761D01*
X5286056Y-31776982D01*
X5305162Y-31775501D01*
X7205811Y-31775501D01*
X7272850Y-31795186D01*
X7307386Y-31828378D01*
X7419953Y-31989142D01*
X7580857Y-32150046D01*
X7580860Y-32150048D01*
X7767265Y-32280569D01*
X7782386Y-32287620D01*
X7834824Y-32333792D01*
X7853975Y-32400986D01*
X7833759Y-32467867D01*
X7782386Y-32512381D01*
X7767265Y-32519433D01*
X7767263Y-32519434D01*
X7580857Y-32649955D01*
X7419953Y-32810859D01*
X7289431Y-32997266D01*
X7289430Y-32997268D01*
X7193260Y-33203503D01*
X7193257Y-33203512D01*
X7134365Y-33423303D01*
X7134363Y-33423314D01*
X7114531Y-33649999D01*
X7114531Y-33650002D01*
X7134363Y-33876687D01*
X7134365Y-33876698D01*
X7193257Y-34096489D01*
X7193260Y-34096498D01*
X7289430Y-34302733D01*
X7289431Y-34302735D01*
X7419953Y-34489142D01*
X7580857Y-34650046D01*
X7580860Y-34650048D01*
X7767265Y-34780569D01*
X7782386Y-34787620D01*
X7834824Y-34833792D01*
X7853975Y-34900986D01*
X7833759Y-34967867D01*
X7782386Y-35012381D01*
X7767265Y-35019433D01*
X7767263Y-35019434D01*
X7580857Y-35149955D01*
X7419953Y-35310859D01*
X7289431Y-35497266D01*
X7289430Y-35497268D01*
X7193260Y-35703503D01*
X7193257Y-35703512D01*
X7134365Y-35923303D01*
X7134363Y-35923314D01*
X7114531Y-36149999D01*
X7114531Y-36150002D01*
X7134363Y-36376687D01*
X7134365Y-36376698D01*
X7193257Y-36596489D01*
X7193260Y-36596498D01*
X7289430Y-36802733D01*
X7289431Y-36802735D01*
X7419953Y-36989142D01*
X7580857Y-37150046D01*
X7580860Y-37150048D01*
X7767265Y-37280569D01*
X7973503Y-37376740D01*
X7973508Y-37376741D01*
X7973510Y-37376742D01*
X8002266Y-37384447D01*
X8193307Y-37435636D01*
X8355229Y-37449802D01*
X8419997Y-37455469D01*
X8419999Y-37455469D01*
X8420001Y-37455469D01*
X8476672Y-37450510D01*
X8646691Y-37435636D01*
X8838407Y-37384266D01*
X8908255Y-37385929D01*
X8966118Y-37425091D01*
X8993622Y-37489320D01*
X8994499Y-37504041D01*
X8994499Y-42126000D01*
X8994500Y-42126009D01*
X9006051Y-42233450D01*
X9006053Y-42233462D01*
X9017259Y-42284972D01*
X9051382Y-42387497D01*
X9051385Y-42387503D01*
X9129170Y-42508537D01*
X9129178Y-42508548D01*
X9174922Y-42561340D01*
X9174925Y-42561343D01*
X9174929Y-42561347D01*
X9283663Y-42655567D01*
X9283666Y-42655568D01*
X9283667Y-42655569D01*
X9368222Y-42694185D01*
X9414540Y-42715338D01*
X9481579Y-42735023D01*
X9481583Y-42735024D01*
X9623999Y-42755500D01*
X9624002Y-42755500D01*
X29658305Y-42755500D01*
X29658320Y-42755500D01*
X29681028Y-42754990D01*
X29692147Y-42754490D01*
X29714763Y-42752964D01*
X29790914Y-42734926D01*
X29854756Y-42719805D01*
X29854763Y-42719802D01*
X29854770Y-42719801D01*
X29919774Y-42694185D01*
X29919775Y-42694184D01*
X29919777Y-42694182D01*
X29920416Y-42693931D01*
X29923105Y-42692285D01*
X29934151Y-42685987D01*
X30002137Y-42669884D01*
X30068039Y-42693095D01*
X30094362Y-42719333D01*
X30094406Y-42719297D01*
X30094804Y-42719773D01*
X30095942Y-42720907D01*
X30097167Y-42722596D01*
X30097170Y-42722599D01*
X30097171Y-42722601D01*
X30179395Y-42808005D01*
X32654007Y-45282613D01*
X32654959Y-45283575D01*
X32805405Y-45437342D01*
X32811814Y-45444418D01*
X33088439Y-45774713D01*
X33095078Y-45783390D01*
X33341142Y-46136208D01*
X33346994Y-46145442D01*
X33561012Y-46518539D01*
X33566029Y-46528254D01*
X33746349Y-46918755D01*
X33750491Y-46928873D01*
X33895720Y-47333756D01*
X33898954Y-47344200D01*
X34007952Y-47760298D01*
X34010253Y-47770986D01*
X34082174Y-48195059D01*
X34083525Y-48205909D01*
X34117810Y-48634662D01*
X34118201Y-48645588D01*
X34114585Y-49075715D01*
X34114011Y-49086633D01*
X34072523Y-49514755D01*
X34070990Y-49525581D01*
X33991950Y-49948394D01*
X33989469Y-49959042D01*
X33873490Y-50373251D01*
X33870080Y-50383639D01*
X33718074Y-50786004D01*
X33713763Y-50796052D01*
X33526898Y-51183478D01*
X33521719Y-51193106D01*
X33301457Y-51562559D01*
X33295450Y-51571694D01*
X33043498Y-51920313D01*
X33036709Y-51928884D01*
X32755028Y-52253952D01*
X32747511Y-52261891D01*
X32438291Y-52560885D01*
X32430103Y-52568131D01*
X32095748Y-52838724D01*
X32086955Y-52845221D01*
X31730064Y-53085310D01*
X31720732Y-53091007D01*
X31344074Y-53298729D01*
X31334277Y-53303581D01*
X30940171Y-53477589D01*
X30931266Y-53481116D01*
X30728567Y-53552482D01*
X30726986Y-53553027D01*
X29802356Y-53864619D01*
X29800243Y-53865310D01*
X27938730Y-54455677D01*
X27936302Y-54456420D01*
X26063234Y-55008512D01*
X26060792Y-55009205D01*
X24176767Y-55522846D01*
X24174311Y-55523488D01*
X22280271Y-55998425D01*
X22277802Y-55999018D01*
X20374318Y-56435106D01*
X20371838Y-56435647D01*
X19646276Y-56586310D01*
X19576634Y-56580667D01*
X19521099Y-56538268D01*
X19497303Y-56472576D01*
X19512800Y-56404446D01*
X19551212Y-56362448D01*
X19625741Y-56311635D01*
X19823561Y-56128085D01*
X19991815Y-55917102D01*
X20126743Y-55683398D01*
X20225334Y-55432195D01*
X20285383Y-55169103D01*
X20292105Y-55079402D01*
X20305549Y-54900004D01*
X20305549Y-54899995D01*
X20285383Y-54630898D01*
X20285383Y-54630897D01*
X20225334Y-54367805D01*
X20126743Y-54116602D01*
X19991815Y-53882898D01*
X19823561Y-53671915D01*
X19823560Y-53671914D01*
X19823557Y-53671910D01*
X19625741Y-53488365D01*
X19615106Y-53481114D01*
X19402775Y-53336349D01*
X19402769Y-53336346D01*
X19402768Y-53336345D01*
X19402767Y-53336344D01*
X19159643Y-53219263D01*
X19159645Y-53219263D01*
X18901773Y-53139720D01*
X18901767Y-53139718D01*
X18634936Y-53099500D01*
X18634929Y-53099500D01*
X18365071Y-53099500D01*
X18365063Y-53099500D01*
X18098232Y-53139718D01*
X18098226Y-53139720D01*
X17840358Y-53219262D01*
X17597230Y-53336346D01*
X17374258Y-53488365D01*
X17176442Y-53671910D01*
X17008185Y-53882898D01*
X16873258Y-54116599D01*
X16873256Y-54116603D01*
X16774666Y-54367804D01*
X16774664Y-54367811D01*
X16714616Y-54630898D01*
X16694451Y-54899995D01*
X16694451Y-54900004D01*
X16714616Y-55169101D01*
X16774664Y-55432188D01*
X16774666Y-55432195D01*
X16873257Y-55683398D01*
X17008185Y-55917102D01*
X17144080Y-56087509D01*
X17176442Y-56128089D01*
X17363183Y-56301358D01*
X17374259Y-56311635D01*
X17597226Y-56463651D01*
X17840359Y-56580738D01*
X17990177Y-56626950D01*
X18102269Y-56661527D01*
X18160528Y-56700098D01*
X18188686Y-56764042D01*
X18177802Y-56833059D01*
X18131333Y-56885236D01*
X18088439Y-56901919D01*
X16537697Y-57190946D01*
X16535196Y-57191385D01*
X14608661Y-57509788D01*
X14606153Y-57510177D01*
X12673394Y-57789088D01*
X12670877Y-57789425D01*
X10732838Y-58028705D01*
X10730316Y-58028990D01*
X8787780Y-58228546D01*
X8785252Y-58228779D01*
X6839094Y-58388518D01*
X6836562Y-58388700D01*
X4887494Y-58508566D01*
X4884958Y-58508696D01*
X2933853Y-58588634D01*
X2931316Y-58588712D01*
X978980Y-58628690D01*
X976441Y-58628716D01*
X-976301Y-58628716D01*
X-978840Y-58628690D01*
X-2931176Y-58588712D01*
X-2933713Y-58588634D01*
X-4884818Y-58508696D01*
X-4887354Y-58508566D01*
X-6836422Y-58388700D01*
X-6838954Y-58388518D01*
X-8785112Y-58228779D01*
X-8787640Y-58228546D01*
X-10730176Y-58028990D01*
X-10732698Y-58028705D01*
X-12670737Y-57789425D01*
X-12673254Y-57789088D01*
X-14606013Y-57510177D01*
X-14608521Y-57509788D01*
X-16535056Y-57191385D01*
X-16537557Y-57190946D01*
X-18457287Y-56833147D01*
X-18459778Y-56832656D01*
X-18857834Y-56750000D01*
X-9700001Y-56750000D01*
X9699999Y-56750000D01*
X9699999Y-50249992D01*
X11744670Y-50249992D01*
X11744670Y-50250007D01*
X11763963Y-50544363D01*
X11763964Y-50544373D01*
X11763965Y-50544380D01*
X11812026Y-50786004D01*
X11821517Y-50833716D01*
X11821520Y-50833730D01*
X11916348Y-51113080D01*
X12046824Y-51377660D01*
X12046828Y-51377667D01*
X12210724Y-51622955D01*
X12405240Y-51844758D01*
X12501178Y-51928893D01*
X12627042Y-52039273D01*
X12872334Y-52203172D01*
X13136922Y-52333652D01*
X13416277Y-52428481D01*
X13705619Y-52486034D01*
X13733887Y-52487886D01*
X13999992Y-52505329D01*
X13999999Y-52505329D01*
X14000006Y-52505329D01*
X14235674Y-52489881D01*
X14294379Y-52486034D01*
X14583721Y-52428481D01*
X14863076Y-52333652D01*
X15127664Y-52203172D01*
X15372956Y-52039273D01*
X15594757Y-51844758D01*
X15789272Y-51622957D01*
X15953171Y-51377665D01*
X16083651Y-51113077D01*
X16178480Y-50833722D01*
X16236033Y-50544380D01*
X16247250Y-50373251D01*
X16255328Y-50250007D01*
X16255328Y-50249992D01*
X16236560Y-49963654D01*
X16236033Y-49955620D01*
X16178480Y-49666278D01*
X16083651Y-49386923D01*
X15953171Y-49122336D01*
X15789272Y-48877043D01*
X15738062Y-48818649D01*
X15594757Y-48655241D01*
X15372954Y-48460725D01*
X15282065Y-48399995D01*
X19694451Y-48399995D01*
X19694451Y-48400004D01*
X19714616Y-48669101D01*
X19774664Y-48932188D01*
X19774666Y-48932195D01*
X19873257Y-49183398D01*
X20008185Y-49417102D01*
X20094714Y-49525605D01*
X20176442Y-49628089D01*
X20300759Y-49743437D01*
X20374259Y-49811635D01*
X20597226Y-49963651D01*
X20840359Y-50080738D01*
X21098228Y-50160280D01*
X21098229Y-50160280D01*
X21098232Y-50160281D01*
X21365063Y-50200499D01*
X21365068Y-50200499D01*
X21365071Y-50200500D01*
X21365072Y-50200500D01*
X21634928Y-50200500D01*
X21634929Y-50200500D01*
X21634936Y-50200499D01*
X21901767Y-50160281D01*
X21901768Y-50160280D01*
X21901772Y-50160280D01*
X22159641Y-50080738D01*
X22402775Y-49963651D01*
X22625741Y-49811635D01*
X22823561Y-49628085D01*
X22991815Y-49417102D01*
X23126743Y-49183398D01*
X23225334Y-48932195D01*
X23251250Y-48818649D01*
X24981013Y-48818649D01*
X24981013Y-48818660D01*
X25001546Y-49066467D01*
X25001548Y-49066479D01*
X25062592Y-49307536D01*
X25162482Y-49535261D01*
X25298489Y-49743437D01*
X25298492Y-49743440D01*
X25466912Y-49926393D01*
X25663147Y-50079129D01*
X25881846Y-50197483D01*
X26117042Y-50278226D01*
X26362321Y-50319155D01*
X26610991Y-50319155D01*
X26856270Y-50278226D01*
X27091466Y-50197483D01*
X27310165Y-50079129D01*
X27506400Y-49926393D01*
X27674820Y-49743440D01*
X27810829Y-49535262D01*
X27910719Y-49307536D01*
X27971764Y-49066476D01*
X27982891Y-48932195D01*
X27992299Y-48818660D01*
X27992299Y-48818649D01*
X27971765Y-48570842D01*
X27971763Y-48570830D01*
X27910719Y-48329773D01*
X27810829Y-48102048D01*
X27674822Y-47893872D01*
X27650825Y-47867804D01*
X27506400Y-47710917D01*
X27310165Y-47558181D01*
X27310163Y-47558180D01*
X27310162Y-47558179D01*
X27091467Y-47439827D01*
X27091458Y-47439824D01*
X26856272Y-47359084D01*
X26610991Y-47318155D01*
X26362321Y-47318155D01*
X26117039Y-47359084D01*
X25881853Y-47439824D01*
X25881844Y-47439827D01*
X25663149Y-47558179D01*
X25466913Y-47710916D01*
X25298489Y-47893872D01*
X25162482Y-48102048D01*
X25062592Y-48329773D01*
X25001548Y-48570830D01*
X25001546Y-48570842D01*
X24981013Y-48818649D01*
X23251250Y-48818649D01*
X23285383Y-48669103D01*
X23300998Y-48460727D01*
X23305549Y-48400004D01*
X23305549Y-48399995D01*
X23285383Y-48130898D01*
X23271830Y-48071518D01*
X23225334Y-47867805D01*
X23126743Y-47616602D01*
X22991815Y-47382898D01*
X22823561Y-47171915D01*
X22823560Y-47171914D01*
X22823557Y-47171910D01*
X22625741Y-46988365D01*
X22402775Y-46836349D01*
X22402769Y-46836346D01*
X22402768Y-46836345D01*
X22402767Y-46836344D01*
X22159643Y-46719263D01*
X22159645Y-46719263D01*
X21901773Y-46639720D01*
X21901767Y-46639718D01*
X21634936Y-46599500D01*
X21634929Y-46599500D01*
X21365071Y-46599500D01*
X21365063Y-46599500D01*
X21098232Y-46639718D01*
X21098226Y-46639720D01*
X20840358Y-46719262D01*
X20597230Y-46836346D01*
X20374258Y-46988365D01*
X20176442Y-47171910D01*
X20008185Y-47382898D01*
X19873258Y-47616599D01*
X19873256Y-47616603D01*
X19774666Y-47867804D01*
X19774664Y-47867811D01*
X19714616Y-48130898D01*
X19694451Y-48399995D01*
X15282065Y-48399995D01*
X15127666Y-48296829D01*
X15127659Y-48296825D01*
X14863079Y-48166349D01*
X14583729Y-48071521D01*
X14583723Y-48071519D01*
X14583721Y-48071519D01*
X14294379Y-48013966D01*
X14294372Y-48013965D01*
X14294362Y-48013964D01*
X14000006Y-47994671D01*
X13999992Y-47994671D01*
X13705635Y-48013964D01*
X13705623Y-48013965D01*
X13705619Y-48013966D01*
X13705611Y-48013967D01*
X13705608Y-48013968D01*
X13416282Y-48071518D01*
X13416268Y-48071521D01*
X13136918Y-48166349D01*
X12872333Y-48296828D01*
X12627040Y-48460728D01*
X12405240Y-48655241D01*
X12210727Y-48877041D01*
X12046827Y-49122334D01*
X11916348Y-49386919D01*
X11821520Y-49666269D01*
X11821517Y-49666283D01*
X11763967Y-49955609D01*
X11763963Y-49955636D01*
X11744670Y-50249992D01*
X9699999Y-50249992D01*
X9699999Y-43750000D01*
X-9700001Y-43750000D01*
X-9700001Y-56750000D01*
X-18857834Y-56750000D01*
X-20371698Y-56435647D01*
X-20374178Y-56435106D01*
X-22277662Y-55999018D01*
X-22280131Y-55998425D01*
X-24174171Y-55523488D01*
X-24176627Y-55522846D01*
X-26060652Y-55009205D01*
X-26063094Y-55008512D01*
X-27936162Y-54456420D01*
X-27938590Y-54455677D01*
X-29800103Y-53865310D01*
X-29802216Y-53864619D01*
X-30726846Y-53553027D01*
X-30728427Y-53552482D01*
X-30931130Y-53481114D01*
X-30940034Y-53477587D01*
X-31334139Y-53303580D01*
X-31343937Y-53298727D01*
X-31720580Y-53091012D01*
X-31729912Y-53085316D01*
X-32086816Y-52845218D01*
X-32095609Y-52838721D01*
X-32429952Y-52568138D01*
X-32438140Y-52560892D01*
X-32747365Y-52261895D01*
X-32754882Y-52253956D01*
X-33036556Y-51928893D01*
X-33043345Y-51920322D01*
X-33295305Y-51571693D01*
X-33301312Y-51562559D01*
X-33521570Y-51193114D01*
X-33526749Y-51183485D01*
X-33713614Y-50796061D01*
X-33717925Y-50786013D01*
X-33869932Y-50383649D01*
X-33873342Y-50373261D01*
X-33989323Y-49959042D01*
X-33991803Y-49948394D01*
X-34070841Y-49525605D01*
X-34072375Y-49514779D01*
X-34113864Y-49086648D01*
X-34114438Y-49075731D01*
X-34116600Y-48818649D01*
X-27992159Y-48818649D01*
X-27992159Y-48818660D01*
X-27982751Y-48932195D01*
X-27971624Y-49066476D01*
X-27910579Y-49307536D01*
X-27810689Y-49535262D01*
X-27674680Y-49743440D01*
X-27506260Y-49926393D01*
X-27310025Y-50079129D01*
X-27091326Y-50197483D01*
X-26856130Y-50278226D01*
X-26610851Y-50319155D01*
X-26362181Y-50319155D01*
X-26116902Y-50278226D01*
X-25881706Y-50197483D01*
X-25663007Y-50079129D01*
X-25466772Y-49926393D01*
X-25298352Y-49743440D01*
X-25298349Y-49743437D01*
X-25162342Y-49535261D01*
X-25062452Y-49307536D01*
X-25001408Y-49066479D01*
X-25001406Y-49066467D01*
X-24980873Y-48818660D01*
X-24980873Y-48818649D01*
X-25001406Y-48570842D01*
X-25001408Y-48570830D01*
X-25062452Y-48329773D01*
X-25162342Y-48102048D01*
X-25298349Y-47893872D01*
X-25466773Y-47710916D01*
X-25663009Y-47558179D01*
X-25881704Y-47439827D01*
X-25881713Y-47439824D01*
X-26116899Y-47359084D01*
X-26362181Y-47318155D01*
X-26610851Y-47318155D01*
X-26856132Y-47359084D01*
X-27091318Y-47439824D01*
X-27091327Y-47439827D01*
X-27310022Y-47558179D01*
X-27310023Y-47558180D01*
X-27310025Y-47558181D01*
X-27506260Y-47710917D01*
X-27650685Y-47867804D01*
X-27674682Y-47893872D01*
X-27810689Y-48102048D01*
X-27910579Y-48329773D01*
X-27971623Y-48570830D01*
X-27971625Y-48570842D01*
X-27992159Y-48818649D01*
X-34116600Y-48818649D01*
X-34118055Y-48645603D01*
X-34117664Y-48634676D01*
X-34083380Y-48205924D01*
X-34082029Y-48195074D01*
X-34010109Y-47771002D01*
X-34007808Y-47760315D01*
X-33898813Y-47344222D01*
X-33895579Y-47333777D01*
X-33750351Y-46928893D01*
X-33746209Y-46918775D01*
X-33565894Y-46528282D01*
X-33560878Y-46518567D01*
X-33346850Y-46145448D01*
X-33340997Y-46136214D01*
X-33094948Y-45783416D01*
X-33088304Y-45774732D01*
X-32811691Y-45444451D01*
X-32805263Y-45437352D01*
X-32654831Y-45283589D01*
X-32653876Y-45282624D01*
X-30179269Y-42808018D01*
X-30179268Y-42808017D01*
X-30179248Y-42807997D01*
X-30097539Y-42723013D01*
X-29958980Y-42532293D01*
X-29851961Y-42322246D01*
X-29851960Y-42322245D01*
X-29779116Y-42098046D01*
X-29779116Y-42098044D01*
X-29742240Y-41865212D01*
X-29742240Y-41629462D01*
X-29779116Y-41396630D01*
X-29779116Y-41396628D01*
X-29851958Y-41172434D01*
X-29958981Y-40962381D01*
X-30097537Y-40771666D01*
X-30097548Y-40771652D01*
X-30144635Y-40722678D01*
X-30146144Y-40719779D01*
X-31130659Y-39735265D01*
X-20750500Y-39735265D01*
X-20750500Y-39964733D01*
X-20720549Y-40192238D01*
X-20661159Y-40413886D01*
X-20573345Y-40625887D01*
X-20458611Y-40824611D01*
X-20318921Y-41006660D01*
X-20156662Y-41168919D01*
X-19974613Y-41308609D01*
X-19775889Y-41423343D01*
X-19775881Y-41423345D01*
X-19775880Y-41423347D01*
X-19730539Y-41442127D01*
X-19563888Y-41511157D01*
X-19342240Y-41570547D01*
X-19166390Y-41593697D01*
X-19114736Y-41600498D01*
X-19114735Y-41600498D01*
X-18885266Y-41600498D01*
X-18818436Y-41591699D01*
X-18657762Y-41570547D01*
X-18436114Y-41511157D01*
X-18338490Y-41470720D01*
X-18224121Y-41423347D01*
X-18224116Y-41423344D01*
X-18224113Y-41423343D01*
X-18025389Y-41308609D01*
X-18025383Y-41308604D01*
X-18025379Y-41308602D01*
X-17843341Y-41168920D01*
X-17843334Y-41168914D01*
X-14796466Y-38122044D01*
X-14796436Y-38122016D01*
X-12211240Y-35536819D01*
X-12149917Y-35503334D01*
X-12123559Y-35500500D01*
X-9485272Y-35500500D01*
X-9485265Y-35500500D01*
X-9257761Y-35470548D01*
X-9036112Y-35411158D01*
X-8915479Y-35361190D01*
X-8824122Y-35323349D01*
X-8824107Y-35323342D01*
X-8744621Y-35277450D01*
X-8625387Y-35208611D01*
X-8625379Y-35208605D01*
X-8625376Y-35208603D01*
X-8457067Y-35079453D01*
X-8457066Y-35079452D01*
X-8443339Y-35068919D01*
X-8281081Y-34906661D01*
X-8259177Y-34878116D01*
X-8248578Y-34864303D01*
X-8248577Y-34864302D01*
X-8248575Y-34864301D01*
X-8141388Y-34724611D01*
X-8026657Y-34525891D01*
X-8026650Y-34525876D01*
X-7938842Y-34313887D01*
X-7935853Y-34302733D01*
X-7879452Y-34092238D01*
X-7874446Y-34054215D01*
X-7849500Y-33864741D01*
X-7849500Y-31345271D01*
X-7849501Y-31345257D01*
X-7879452Y-31117769D01*
X-7879454Y-31117760D01*
X-7938842Y-30896114D01*
X-7938843Y-30896111D01*
X-8026651Y-30684122D01*
X-8026658Y-30684107D01*
X-8141386Y-30485393D01*
X-8141397Y-30485376D01*
X-8281079Y-30303342D01*
X-8281081Y-30303340D01*
X-8443343Y-30141077D01*
X-8625390Y-30001388D01*
X-8824110Y-29886657D01*
X-8824125Y-29886650D01*
X-9036114Y-29798842D01*
X-9168377Y-29763403D01*
X-9257764Y-29739452D01*
X-9268717Y-29738009D01*
X-9485260Y-29709500D01*
X-9485268Y-29709500D01*
X-9714736Y-29709500D01*
X-9714743Y-29709500D01*
X-9904217Y-29734446D01*
X-9942240Y-29739452D01*
X-10153133Y-29795960D01*
X-10163889Y-29798842D01*
X-10375878Y-29886650D01*
X-10375893Y-29886657D01*
X-10486785Y-29950681D01*
X-10574614Y-30001389D01*
X-10574618Y-30001392D01*
X-10574624Y-30001396D01*
X-10756658Y-30141078D01*
X-10756663Y-30141082D01*
X-10844745Y-30229164D01*
X-10918923Y-30303342D01*
X-11058612Y-30485389D01*
X-11173343Y-30684109D01*
X-11173350Y-30684124D01*
X-11184933Y-30712089D01*
X-11261159Y-30896114D01*
X-11320549Y-31117763D01*
X-11350500Y-31345265D01*
X-11350501Y-31345273D01*
X-11350501Y-31875500D01*
X-11370186Y-31942539D01*
X-11422990Y-31988294D01*
X-11474501Y-31999500D01*
X-13014743Y-31999500D01*
X-13121462Y-32013551D01*
X-13242235Y-32029450D01*
X-13242238Y-32029450D01*
X-13242241Y-32029451D01*
X-13463885Y-32088841D01*
X-13463889Y-32088842D01*
X-13675883Y-32176653D01*
X-13675893Y-32176657D01*
X-13855870Y-32280567D01*
X-13874614Y-32291389D01*
X-13874618Y-32291392D01*
X-13874624Y-32291396D01*
X-13943871Y-32344532D01*
X-13943872Y-32344533D01*
X-14056661Y-32431078D01*
X-14056668Y-32431084D01*
X-17272018Y-35646434D01*
X-17272046Y-35646464D01*
X-20318916Y-38693332D01*
X-20318922Y-38693339D01*
X-20458604Y-38875377D01*
X-20458606Y-38875381D01*
X-20458611Y-38875387D01*
X-20495739Y-38939695D01*
X-20573344Y-39074110D01*
X-20573349Y-39074119D01*
X-20605271Y-39151186D01*
X-20661159Y-39286112D01*
X-20720549Y-39507760D01*
X-20750500Y-39735265D01*
X-31130659Y-39735265D01*
X-31197710Y-39668214D01*
X-31283992Y-39584468D01*
X-31283997Y-39584464D01*
X-31478236Y-39442825D01*
X-31478244Y-39442820D01*
X-31692581Y-39333989D01*
X-31692597Y-39333982D01*
X-31806406Y-39295078D01*
X-31961350Y-39243262D01*
X-31972067Y-39239117D01*
X-32270380Y-39107532D01*
X-32282071Y-39101619D01*
X-32564137Y-38939695D01*
X-32575139Y-38932581D01*
X-32838542Y-38741803D01*
X-32848732Y-38733568D01*
X-33090536Y-38516062D01*
X-33099800Y-38506798D01*
X-33317307Y-38264992D01*
X-33325542Y-38254802D01*
X-33516321Y-37991400D01*
X-33523435Y-37980398D01*
X-33685359Y-37698332D01*
X-33691272Y-37686641D01*
X-33822857Y-37388328D01*
X-33827002Y-37377611D01*
X-33878836Y-37222613D01*
X-33917287Y-37109981D01*
X-33917289Y-37109976D01*
X-34024710Y-36897625D01*
X-34024718Y-36897612D01*
X-34164308Y-36704862D01*
X-34164309Y-36704861D01*
X-34246842Y-36619083D01*
X-34739876Y-36126049D01*
X-32681577Y-36126049D01*
X-32681577Y-36368625D01*
X-32649915Y-36609126D01*
X-32587131Y-36843437D01*
X-32494301Y-37067549D01*
X-32373013Y-37277626D01*
X-32225342Y-37470075D01*
X-32053815Y-37641602D01*
X-31861366Y-37789273D01*
X-31651289Y-37910561D01*
X-31427177Y-38003391D01*
X-31192866Y-38066175D01*
X-31000465Y-38091504D01*
X-30952366Y-38097837D01*
X-30952365Y-38097837D01*
X-30709788Y-38097837D01*
X-30649663Y-38089921D01*
X-30469288Y-38066175D01*
X-30234977Y-38003391D01*
X-30010865Y-37910561D01*
X-29800788Y-37789273D01*
X-29608339Y-37641602D01*
X-29608333Y-37641597D01*
X-29436816Y-37470080D01*
X-29436810Y-37470073D01*
X-29289144Y-37277630D01*
X-29289143Y-37277629D01*
X-29289141Y-37277626D01*
X-29167853Y-37067549D01*
X-29135375Y-36989140D01*
X-29075024Y-36843441D01*
X-29012238Y-36609122D01*
X-28980577Y-36368625D01*
X-28980577Y-36126048D01*
X-29012238Y-35885551D01*
X-29075024Y-35651232D01*
X-29167850Y-35427131D01*
X-29167854Y-35427122D01*
X-29289144Y-35217043D01*
X-29436810Y-35024600D01*
X-29436816Y-35024593D01*
X-29608333Y-34853076D01*
X-29608340Y-34853070D01*
X-29800783Y-34705404D01*
X-30010862Y-34584114D01*
X-30010871Y-34584110D01*
X-30234972Y-34491284D01*
X-30469291Y-34428498D01*
X-30709788Y-34396837D01*
X-30709789Y-34396837D01*
X-30952365Y-34396837D01*
X-30952366Y-34396837D01*
X-31192862Y-34428498D01*
X-31427181Y-34491284D01*
X-31651282Y-34584110D01*
X-31651289Y-34584113D01*
X-31861366Y-34705401D01*
X-31861369Y-34705403D01*
X-31861370Y-34705404D01*
X-32053813Y-34853070D01*
X-32053820Y-34853076D01*
X-32225337Y-35024593D01*
X-32225342Y-35024599D01*
X-32373013Y-35217048D01*
X-32494301Y-35427125D01*
X-32587131Y-35651237D01*
X-32649915Y-35885548D01*
X-32681577Y-36126049D01*
X-34739876Y-36126049D01*
X-37230659Y-33635266D01*
X-29250501Y-33635266D01*
X-29250501Y-33864734D01*
X-29220549Y-34092238D01*
X-29161159Y-34313887D01*
X-29073345Y-34525888D01*
X-28958612Y-34724612D01*
X-28818920Y-34906661D01*
X-28818915Y-34906665D01*
X-28818912Y-34906670D01*
X-28656671Y-35068911D01*
X-28656666Y-35068914D01*
X-28656662Y-35068919D01*
X-28474613Y-35208611D01*
X-28275889Y-35323344D01*
X-28063888Y-35411158D01*
X-27842239Y-35470548D01*
X-27614735Y-35500500D01*
X-27614728Y-35500500D01*
X-24985273Y-35500500D01*
X-24985267Y-35500500D01*
X-24985266Y-35500500D01*
X-24757762Y-35470548D01*
X-24536113Y-35411158D01*
X-24415480Y-35361190D01*
X-24324123Y-35323349D01*
X-24324117Y-35323346D01*
X-24324112Y-35323344D01*
X-24125388Y-35208611D01*
X-24125385Y-35208608D01*
X-24125382Y-35208607D01*
X-23943338Y-35068918D01*
X-23943330Y-35068911D01*
X-23781089Y-34906670D01*
X-23781081Y-34906661D01*
X-23641392Y-34724617D01*
X-23641388Y-34724611D01*
X-23526656Y-34525888D01*
X-23526650Y-34525876D01*
X-23438842Y-34313887D01*
X-23435853Y-34302733D01*
X-23379452Y-34092238D01*
X-23374446Y-34054215D01*
X-23349500Y-33864741D01*
X-23349500Y-33631427D01*
X-23349501Y-33631393D01*
X-23349501Y-31345258D01*
X-23379452Y-31117770D01*
X-23379454Y-31117761D01*
X-23404555Y-31024076D01*
X-23438843Y-30896112D01*
X-23526651Y-30684123D01*
X-23526658Y-30684109D01*
X-23641393Y-30485382D01*
X-23781082Y-30303338D01*
X-23943339Y-30141081D01*
X-24125383Y-30001392D01*
X-24324110Y-29886657D01*
X-24324124Y-29886650D01*
X-24536113Y-29798842D01*
X-24668376Y-29763403D01*
X-24757763Y-29739452D01*
X-24768716Y-29738009D01*
X-24985259Y-29709500D01*
X-24985267Y-29709500D01*
X-25214735Y-29709500D01*
X-25214742Y-29709500D01*
X-25404216Y-29734446D01*
X-25442239Y-29739452D01*
X-25653132Y-29795960D01*
X-25663888Y-29798842D01*
X-25875877Y-29886650D01*
X-25875891Y-29886657D01*
X-26074618Y-30001392D01*
X-26256662Y-30141081D01*
X-26256671Y-30141089D01*
X-26418912Y-30303330D01*
X-26418919Y-30303338D01*
X-26418920Y-30303339D01*
X-26457765Y-30353962D01*
X-26558608Y-30485382D01*
X-26558609Y-30485385D01*
X-26558612Y-30485388D01*
X-26673345Y-30684112D01*
X-26673345Y-30684113D01*
X-26673350Y-30684123D01*
X-26711191Y-30775480D01*
X-26761159Y-30896113D01*
X-26820549Y-31117762D01*
X-26849058Y-31334312D01*
X-26850500Y-31345258D01*
X-26850501Y-31345272D01*
X-26850501Y-31875500D01*
X-26870186Y-31942539D01*
X-26922990Y-31988294D01*
X-26974501Y-31999500D01*
X-27614742Y-31999500D01*
X-27788979Y-32022440D01*
X-27842239Y-32029452D01*
X-28063884Y-32088841D01*
X-28063888Y-32088842D01*
X-28275877Y-32176650D01*
X-28275889Y-32176656D01*
X-28474609Y-32291387D01*
X-28474618Y-32291392D01*
X-28656662Y-32431081D01*
X-28656671Y-32431089D01*
X-28818912Y-32593330D01*
X-28818919Y-32593338D01*
X-28958608Y-32775382D01*
X-28958609Y-32775385D01*
X-28958612Y-32775388D01*
X-29073345Y-32974112D01*
X-29161159Y-33186113D01*
X-29220549Y-33407762D01*
X-29250501Y-33635266D01*
X-37230659Y-33635266D01*
X-40502354Y-30363571D01*
X-40503575Y-30362333D01*
X-40623925Y-30238559D01*
X-40631970Y-30229428D01*
X-40847740Y-29958859D01*
X-40855787Y-29947519D01*
X-41039454Y-29655214D01*
X-41046180Y-29643043D01*
X-41195957Y-29332026D01*
X-41201278Y-29319180D01*
X-41315292Y-28993348D01*
X-41319142Y-28979986D01*
X-41395961Y-28643427D01*
X-41398290Y-28629718D01*
X-41436942Y-28286686D01*
X-41437722Y-28272803D01*
X-41437724Y-27978893D01*
X-40090691Y-27978893D01*
X-40090691Y-28221469D01*
X-40059029Y-28461970D01*
X-39996245Y-28696281D01*
X-39903415Y-28920393D01*
X-39782127Y-29130470D01*
X-39634456Y-29322919D01*
X-39462929Y-29494446D01*
X-39270480Y-29642117D01*
X-39060403Y-29763405D01*
X-38836291Y-29856235D01*
X-38601980Y-29919019D01*
X-38409579Y-29944348D01*
X-38361480Y-29950681D01*
X-38361479Y-29950681D01*
X-38118902Y-29950681D01*
X-38058777Y-29942765D01*
X-37878402Y-29919019D01*
X-37644091Y-29856235D01*
X-37419979Y-29763405D01*
X-37209902Y-29642117D01*
X-37044376Y-29515105D01*
X-37017454Y-29494447D01*
X-37017447Y-29494441D01*
X-36845930Y-29322924D01*
X-36845924Y-29322917D01*
X-36698258Y-29130474D01*
X-36698257Y-29130473D01*
X-36698255Y-29130470D01*
X-36576967Y-28920393D01*
X-36576964Y-28920386D01*
X-36484138Y-28696285D01*
X-36421352Y-28461966D01*
X-36389691Y-28221469D01*
X-36389691Y-27978892D01*
X-36421352Y-27738395D01*
X-36484138Y-27504076D01*
X-36576964Y-27279975D01*
X-36576968Y-27279966D01*
X-36694827Y-27075830D01*
X-36698255Y-27069892D01*
X-36698255Y-27069891D01*
X-36698258Y-27069887D01*
X-36845924Y-26877444D01*
X-36845930Y-26877437D01*
X-37017447Y-26705920D01*
X-37017454Y-26705914D01*
X-37209897Y-26558248D01*
X-37419976Y-26436958D01*
X-37419985Y-26436954D01*
X-37644086Y-26344128D01*
X-37878405Y-26281342D01*
X-38118902Y-26249681D01*
X-38118903Y-26249681D01*
X-38361479Y-26249681D01*
X-38361480Y-26249681D01*
X-38601976Y-26281342D01*
X-38836295Y-26344128D01*
X-38996417Y-26410453D01*
X-39060403Y-26436957D01*
X-39270480Y-26558245D01*
X-39270483Y-26558247D01*
X-39270484Y-26558248D01*
X-39462927Y-26705914D01*
X-39462934Y-26705920D01*
X-39634451Y-26877437D01*
X-39634457Y-26877444D01*
X-39651381Y-26899500D01*
X-39782127Y-27069892D01*
X-39903415Y-27279969D01*
X-39996245Y-27504081D01*
X-40059029Y-27738392D01*
X-40090691Y-27978893D01*
X-41437724Y-27978893D01*
X-41437724Y-27927591D01*
X-41436944Y-27913707D01*
X-41398296Y-27570673D01*
X-41395967Y-27556965D01*
X-41319156Y-27220415D01*
X-41315307Y-27207053D01*
X-41201295Y-26881214D01*
X-41195974Y-26868367D01*
X-41046197Y-26557342D01*
X-41039471Y-26545172D01*
X-40855813Y-26252872D01*
X-40847772Y-26241538D01*
X-40631987Y-25970943D01*
X-40623952Y-25961824D01*
X-40503604Y-25838050D01*
X-40502382Y-25836811D01*
X-37710075Y-23044504D01*
X-34075615Y-23044504D01*
X-34075615Y-23257078D01*
X-34042361Y-23467034D01*
X-33976672Y-23669203D01*
X-33880166Y-23858607D01*
X-33755219Y-24030582D01*
X-33428130Y-24357671D01*
X-33256155Y-24482618D01*
X-33066751Y-24579124D01*
X-32864582Y-24644813D01*
X-32654626Y-24678067D01*
X-32654625Y-24678067D01*
X-32442053Y-24678067D01*
X-32442052Y-24678067D01*
X-32232096Y-24644813D01*
X-32029927Y-24579124D01*
X-31840523Y-24482618D01*
X-31668548Y-24357671D01*
X-31518235Y-24207358D01*
X-31393288Y-24035383D01*
X-31296782Y-23845979D01*
X-31231093Y-23643810D01*
X-31219508Y-23570669D01*
X-31212762Y-23528073D01*
X-31182833Y-23464938D01*
X-31123521Y-23428007D01*
X-31053659Y-23429005D01*
X-31002610Y-23459788D01*
X-25667881Y-28794518D01*
X-25476805Y-28933344D01*
X-25269462Y-29038990D01*
X-25266363Y-29040569D01*
X-25041739Y-29113554D01*
X-24934935Y-29130470D01*
X-24808468Y-29150501D01*
X-24808463Y-29150501D01*
X-24484978Y-29150501D01*
X-24429884Y-29163412D01*
X-24266776Y-29244307D01*
X-24080705Y-29290581D01*
X-24037658Y-29293500D01*
X-23122345Y-29293499D01*
X-23122344Y-29293499D01*
X-23122343Y-29293498D01*
X-23079297Y-29290581D01*
X-22893226Y-29244307D01*
X-22730115Y-29163411D01*
X-22675022Y-29150500D01*
X-21561677Y-29150500D01*
X-19904981Y-29150500D01*
X-19849885Y-29163412D01*
X-19686776Y-29244307D01*
X-19500705Y-29290581D01*
X-19457658Y-29293500D01*
X-18542345Y-29293499D01*
X-18542344Y-29293499D01*
X-18542343Y-29293498D01*
X-18499297Y-29290581D01*
X-18313226Y-29244307D01*
X-18233146Y-29204591D01*
X-18141457Y-29159118D01*
X-18141454Y-29159116D01*
X-17992011Y-29038990D01*
X-17992010Y-29038989D01*
X-17871884Y-28889546D01*
X-17871882Y-28889543D01*
X-17786695Y-28717778D01*
X-17740420Y-28531708D01*
X-17739026Y-28511142D01*
X-17738155Y-28498312D01*
X-17717571Y-28441587D01*
X-17719203Y-28440587D01*
X-17716659Y-28436436D01*
X-17609434Y-28225998D01*
X-17536448Y-28001371D01*
X-17525888Y-27934700D01*
X-17495958Y-27871566D01*
X-17436646Y-27834635D01*
X-17366784Y-27835633D01*
X-17308552Y-27874243D01*
X-17285485Y-27915779D01*
X-17252179Y-28018284D01*
X-17157533Y-28182216D01*
X-17030871Y-28322888D01*
X-16877730Y-28434151D01*
X-16704803Y-28511144D01*
X-16519646Y-28550500D01*
X-16519644Y-28550500D01*
X-16330355Y-28550500D01*
X-16330354Y-28550500D01*
X-16145197Y-28511144D01*
X-16145192Y-28511142D01*
X-15972270Y-28434151D01*
X-15972265Y-28434148D01*
X-15958548Y-28424182D01*
X-15892742Y-28400702D01*
X-15885663Y-28400500D01*
X-15804355Y-28400500D01*
X-15737316Y-28420185D01*
X-15691561Y-28472989D01*
X-15680639Y-28516115D01*
X-15679582Y-28531704D01*
X-15633308Y-28717775D01*
X-15548117Y-28889547D01*
X-15427991Y-29038990D01*
X-15278548Y-29159116D01*
X-15106776Y-29244307D01*
X-14920705Y-29290581D01*
X-14877658Y-29293500D01*
X-13962345Y-29293499D01*
X-13962344Y-29293499D01*
X-13962343Y-29293498D01*
X-13919297Y-29290581D01*
X-13733226Y-29244307D01*
X-13653146Y-29204591D01*
X-13561457Y-29159118D01*
X-13561454Y-29159116D01*
X-13412011Y-29038990D01*
X-13412010Y-29038989D01*
X-13291884Y-28889546D01*
X-13291882Y-28889543D01*
X-13206695Y-28717778D01*
X-13160420Y-28531708D01*
X-13157501Y-28488654D01*
X-13157501Y-26811343D01*
X-13157502Y-26811340D01*
X-13160419Y-26768298D01*
X-13160419Y-26768297D01*
X-13206695Y-26582221D01*
X-13291882Y-26410456D01*
X-13291884Y-26410453D01*
X-13412010Y-26261010D01*
X-13412011Y-26261009D01*
X-13561454Y-26140883D01*
X-13561457Y-26140881D01*
X-13733222Y-26055694D01*
X-13919292Y-26009419D01*
X-13950044Y-26007334D01*
X-13962344Y-26006500D01*
X-13962345Y-26006500D01*
X-13962346Y-26006500D01*
X-14877657Y-26006500D01*
X-14877660Y-26006501D01*
X-14920702Y-26009418D01*
X-14920703Y-26009418D01*
X-15023387Y-26034955D01*
X-15106776Y-26055693D01*
X-15106777Y-26055693D01*
X-15106779Y-26055694D01*
X-15278544Y-26140881D01*
X-15278547Y-26140883D01*
X-15427990Y-26261009D01*
X-15427991Y-26261010D01*
X-15548117Y-26410453D01*
X-15548119Y-26410456D01*
X-15620967Y-26557342D01*
X-15633308Y-26582225D01*
X-15679582Y-26768296D01*
X-15680639Y-26783890D01*
X-15704815Y-26849444D01*
X-15760594Y-26891521D01*
X-15804355Y-26899500D01*
X-15885663Y-26899500D01*
X-15952702Y-26879815D01*
X-15958546Y-26875820D01*
X-15972271Y-26865848D01*
X-16145192Y-26788857D01*
X-16145197Y-26788855D01*
X-16297897Y-26756398D01*
X-16330354Y-26749500D01*
X-16519646Y-26749500D01*
X-16559001Y-26757865D01*
X-16704802Y-26788855D01*
X-16704807Y-26788857D01*
X-16877729Y-26865848D01*
X-16877734Y-26865851D01*
X-17030870Y-26977111D01*
X-17030871Y-26977112D01*
X-17157533Y-27117784D01*
X-17252179Y-27281716D01*
X-17285145Y-27383177D01*
X-17285484Y-27384219D01*
X-17324921Y-27441894D01*
X-17389279Y-27469093D01*
X-17458126Y-27457179D01*
X-17509602Y-27409935D01*
X-17525888Y-27365301D01*
X-17536448Y-27298631D01*
X-17609435Y-27074005D01*
X-17716656Y-26863569D01*
X-17719201Y-26859418D01*
X-17717586Y-26858428D01*
X-17738156Y-26801684D01*
X-17740419Y-26768298D01*
X-17740419Y-26768297D01*
X-17786695Y-26582221D01*
X-17871882Y-26410456D01*
X-17871884Y-26410453D01*
X-17992010Y-26261010D01*
X-17992011Y-26261009D01*
X-18141454Y-26140883D01*
X-18141457Y-26140881D01*
X-18313222Y-26055694D01*
X-18499292Y-26009419D01*
X-18530044Y-26007334D01*
X-18542344Y-26006500D01*
X-18542345Y-26006500D01*
X-18542346Y-26006500D01*
X-19457657Y-26006500D01*
X-19457660Y-26006501D01*
X-19500702Y-26009418D01*
X-19500703Y-26009418D01*
X-19686777Y-26055693D01*
X-19729760Y-26077011D01*
X-19849886Y-26136588D01*
X-19904980Y-26149500D01*
X-22675021Y-26149500D01*
X-22730116Y-26136588D01*
X-22893224Y-26055693D01*
X-23079292Y-26009419D01*
X-23110044Y-26007334D01*
X-23122344Y-26006500D01*
X-23122345Y-26006500D01*
X-23122346Y-26006500D01*
X-24037657Y-26006500D01*
X-24037660Y-26006501D01*
X-24080702Y-26009418D01*
X-24080703Y-26009418D01*
X-24102308Y-26014791D01*
X-24115355Y-26018035D01*
X-24185162Y-26015112D01*
X-24232961Y-25985382D01*
X-28708416Y-21509927D01*
X-28741901Y-21448604D01*
X-28736917Y-21378912D01*
X-28695045Y-21322979D01*
X-28676390Y-21311438D01*
X-28597590Y-21271864D01*
X-28517483Y-21206607D01*
X-27598233Y-20287355D01*
X-27532974Y-20207248D01*
X-27469493Y-20080845D01*
X-27454235Y-20050464D01*
X-27413777Y-19879761D01*
X-27413776Y-19879750D01*
X-27413776Y-19704316D01*
X-27413777Y-19704305D01*
X-27454235Y-19533602D01*
X-27532978Y-19376812D01*
X-27598221Y-19296722D01*
X-27598237Y-19296704D01*
X-28401229Y-18493713D01*
X-20350501Y-18493713D01*
X-20350501Y-19006287D01*
X-20317247Y-19216243D01*
X-20251558Y-19418412D01*
X-20155052Y-19607816D01*
X-20155049Y-19607820D01*
X-20030110Y-19779786D01*
X-20030107Y-19779788D01*
X-20030105Y-19779792D01*
X-19879793Y-19930104D01*
X-19879789Y-19930106D01*
X-19879787Y-19930109D01*
X-19811418Y-19979781D01*
X-19707817Y-20055051D01*
X-19518413Y-20151557D01*
X-19316244Y-20217246D01*
X-19106288Y-20250500D01*
X-19106287Y-20250500D01*
X-18893715Y-20250500D01*
X-18893714Y-20250500D01*
X-18683758Y-20217246D01*
X-18481589Y-20151557D01*
X-18292185Y-20055051D01*
X-18292182Y-20055049D01*
X-18292180Y-20055048D01*
X-18120214Y-19930109D01*
X-17969891Y-19779786D01*
X-17868170Y-19639777D01*
X-14400500Y-19639777D01*
X-14400500Y-19860221D01*
X-14366015Y-20077950D01*
X-14297895Y-20287605D01*
X-14197815Y-20484021D01*
X-14068242Y-20662364D01*
X-13912365Y-20818241D01*
X-13734022Y-20947814D01*
X-13537606Y-21047894D01*
X-13327951Y-21116014D01*
X-13110222Y-21150499D01*
X-13110221Y-21150499D01*
X-12889779Y-21150499D01*
X-12889778Y-21150499D01*
X-12672049Y-21116014D01*
X-12567221Y-21081954D01*
X-12462396Y-21047895D01*
X-12462393Y-21047894D01*
X-12394375Y-21013236D01*
X-12265978Y-20947814D01*
X-12243192Y-20931259D01*
X-12087641Y-20818246D01*
X-12087636Y-20818242D01*
X-11931756Y-20662362D01*
X-11931752Y-20662357D01*
X-11802187Y-20484024D01*
X-11702104Y-20287605D01*
X-11702103Y-20287602D01*
X-11633985Y-20077951D01*
X-11610568Y-19930104D01*
X-11599500Y-19860221D01*
X-11599500Y-19639777D01*
X11599500Y-19639777D01*
X11599500Y-19860221D01*
X11610568Y-19930104D01*
X11633985Y-20077951D01*
X11702103Y-20287602D01*
X11702104Y-20287605D01*
X11802187Y-20484024D01*
X11931752Y-20662357D01*
X11931756Y-20662362D01*
X12087636Y-20818242D01*
X12087641Y-20818246D01*
X12243192Y-20931259D01*
X12265978Y-20947814D01*
X12394375Y-21013236D01*
X12462393Y-21047894D01*
X12462396Y-21047895D01*
X12567221Y-21081954D01*
X12672049Y-21116014D01*
X12889778Y-21150499D01*
X12889779Y-21150499D01*
X13110221Y-21150499D01*
X13110222Y-21150499D01*
X13327951Y-21116014D01*
X13537606Y-21047894D01*
X13734022Y-20947814D01*
X13912365Y-20818241D01*
X14068242Y-20662364D01*
X14197815Y-20484021D01*
X14297895Y-20287605D01*
X14366015Y-20077950D01*
X14400500Y-19860221D01*
X14400500Y-19639777D01*
X14366015Y-19422048D01*
X14297895Y-19212393D01*
X14297895Y-19212392D01*
X14250783Y-19119931D01*
X14197815Y-19015977D01*
X14162641Y-18967564D01*
X14068247Y-18837640D01*
X14068243Y-18837635D01*
X13912363Y-18681755D01*
X13912358Y-18681751D01*
X13734025Y-18552186D01*
X13734024Y-18552185D01*
X13734022Y-18552184D01*
X13671096Y-18520121D01*
X13619268Y-18493713D01*
X20149500Y-18493713D01*
X20149500Y-19006286D01*
X20182144Y-19212395D01*
X20182754Y-19216243D01*
X20234926Y-19376812D01*
X20248444Y-19418414D01*
X20344951Y-19607820D01*
X20469890Y-19779786D01*
X20620213Y-19930109D01*
X20792179Y-20055048D01*
X20792181Y-20055049D01*
X20792184Y-20055051D01*
X20981588Y-20151557D01*
X21183757Y-20217246D01*
X21393713Y-20250500D01*
X21393714Y-20250500D01*
X21606286Y-20250500D01*
X21606287Y-20250500D01*
X21816243Y-20217246D01*
X22018412Y-20151557D01*
X22207816Y-20055051D01*
X22311417Y-19979781D01*
X22379786Y-19930109D01*
X22379788Y-19930106D01*
X22379792Y-19930104D01*
X22530104Y-19779792D01*
X22530106Y-19779788D01*
X22530109Y-19779786D01*
X22655048Y-19607820D01*
X22655047Y-19607820D01*
X22655051Y-19607816D01*
X22751557Y-19418412D01*
X22817246Y-19216243D01*
X22850500Y-19006287D01*
X22850500Y-18493713D01*
X22817246Y-18283757D01*
X22751557Y-18081588D01*
X22655051Y-17892184D01*
X22655049Y-17892181D01*
X22655048Y-17892179D01*
X22530109Y-17720213D01*
X22379786Y-17569890D01*
X22207820Y-17444951D01*
X22018414Y-17348444D01*
X22018413Y-17348443D01*
X22018412Y-17348443D01*
X21816243Y-17282754D01*
X21816241Y-17282753D01*
X21816240Y-17282753D01*
X21654957Y-17257208D01*
X21606287Y-17249500D01*
X21393713Y-17249500D01*
X21345042Y-17257208D01*
X21183760Y-17282753D01*
X20981585Y-17348444D01*
X20792179Y-17444951D01*
X20620213Y-17569890D01*
X20469890Y-17720213D01*
X20344951Y-17892179D01*
X20248444Y-18081585D01*
X20182753Y-18283760D01*
X20149500Y-18493713D01*
X13619268Y-18493713D01*
X13537606Y-18452103D01*
X13537603Y-18452102D01*
X13327952Y-18383984D01*
X13219086Y-18366741D01*
X13110222Y-18349499D01*
X12889778Y-18349499D01*
X12817201Y-18360994D01*
X12672047Y-18383984D01*
X12462396Y-18452102D01*
X12462393Y-18452103D01*
X12265974Y-18552186D01*
X12087641Y-18681751D01*
X12087636Y-18681755D01*
X11931756Y-18837635D01*
X11931752Y-18837640D01*
X11802187Y-19015973D01*
X11702104Y-19212392D01*
X11702103Y-19212395D01*
X11633985Y-19422046D01*
X11599500Y-19639777D01*
X-11599500Y-19639777D01*
X-11633985Y-19422046D01*
X-11702103Y-19212395D01*
X-11702104Y-19212392D01*
X-11802187Y-19015973D01*
X-11931752Y-18837640D01*
X-11931756Y-18837635D01*
X-12087636Y-18681755D01*
X-12087641Y-18681751D01*
X-12265974Y-18552186D01*
X-12462393Y-18452103D01*
X-12462396Y-18452102D01*
X-12672047Y-18383984D01*
X-12817201Y-18360994D01*
X-12889778Y-18349499D01*
X-13110222Y-18349499D01*
X-13219086Y-18366741D01*
X-13327952Y-18383984D01*
X-13537603Y-18452102D01*
X-13537606Y-18452103D01*
X-13671096Y-18520121D01*
X-13734022Y-18552184D01*
X-13734024Y-18552185D01*
X-13734025Y-18552186D01*
X-13912358Y-18681751D01*
X-13912363Y-18681755D01*
X-14068243Y-18837635D01*
X-14068247Y-18837640D01*
X-14162641Y-18967564D01*
X-14197815Y-19015977D01*
X-14250783Y-19119931D01*
X-14297895Y-19212392D01*
X-14297895Y-19212393D01*
X-14366015Y-19422048D01*
X-14400500Y-19639777D01*
X-17868170Y-19639777D01*
X-17844952Y-19607820D01*
X-17748445Y-19418414D01*
X-17734927Y-19376812D01*
X-17682755Y-19216243D01*
X-17682145Y-19212395D01*
X-17649501Y-19006286D01*
X-17649501Y-18493713D01*
X-17682754Y-18283760D01*
X-17748445Y-18081585D01*
X-17844952Y-17892179D01*
X-17969891Y-17720213D01*
X-18120214Y-17569890D01*
X-18292180Y-17444951D01*
X-18481586Y-17348444D01*
X-18683761Y-17282753D01*
X-18683760Y-17282753D01*
X-18854203Y-17255757D01*
X-18893714Y-17249500D01*
X-19106288Y-17249500D01*
X-19169645Y-17259534D01*
X-19316240Y-17282753D01*
X-19316242Y-17282753D01*
X-19316244Y-17282754D01*
X-19518413Y-17348443D01*
X-19518414Y-17348443D01*
X-19518415Y-17348444D01*
X-19707821Y-17444951D01*
X-19879787Y-17569890D01*
X-20030110Y-17720213D01*
X-20155049Y-17892179D01*
X-20155050Y-17892181D01*
X-20155052Y-17892184D01*
X-20251558Y-18081588D01*
X-20317247Y-18283757D01*
X-20350501Y-18493713D01*
X-28401229Y-18493713D01*
X-28694251Y-18200692D01*
X-28694263Y-18200681D01*
X-28774364Y-18135428D01*
X-28774365Y-18135427D01*
X-28931150Y-18056687D01*
X-29101853Y-18016229D01*
X-29101859Y-18016228D01*
X-29101861Y-18016228D01*
X-29277302Y-18016228D01*
X-29277304Y-18016228D01*
X-29277309Y-18016229D01*
X-29448012Y-18056687D01*
X-29497588Y-18081585D01*
X-29604796Y-18135426D01*
X-29684903Y-18200683D01*
X-30604153Y-19119935D01*
X-30669412Y-19200042D01*
X-30748149Y-19356823D01*
X-30748150Y-19356825D01*
X-30762747Y-19418414D01*
X-30788610Y-19527536D01*
X-30788610Y-19702977D01*
X-30777117Y-19751465D01*
X-30761274Y-19818315D01*
X-30764967Y-19888087D01*
X-30805795Y-19944786D01*
X-30870796Y-19970411D01*
X-30881931Y-19970912D01*
X-30987057Y-19970912D01*
X-31220328Y-20007858D01*
X-31444956Y-20080845D01*
X-31583735Y-20151557D01*
X-31655394Y-20188069D01*
X-31846470Y-20326895D01*
X-32013477Y-20493902D01*
X-32135871Y-20662362D01*
X-32152302Y-20684977D01*
X-32259526Y-20895415D01*
X-32259526Y-20895417D01*
X-32259528Y-20895420D01*
X-32273774Y-20939265D01*
X-32332513Y-21120043D01*
X-32369460Y-21353314D01*
X-32369460Y-21589508D01*
X-32355498Y-21677656D01*
X-32364452Y-21746950D01*
X-32409448Y-21800402D01*
X-32476199Y-21821042D01*
X-32497369Y-21819528D01*
X-32581175Y-21806254D01*
X-32618828Y-21800291D01*
X-32831402Y-21800291D01*
X-32894759Y-21810325D01*
X-33041354Y-21833544D01*
X-33041356Y-21833544D01*
X-33041358Y-21833545D01*
X-33243527Y-21899234D01*
X-33432931Y-21995740D01*
X-33604906Y-22120687D01*
X-33755219Y-22271000D01*
X-33880166Y-22442975D01*
X-33976672Y-22632379D01*
X-34042361Y-22834548D01*
X-34075615Y-23044504D01*
X-37710075Y-23044504D01*
X-31065572Y-16400000D01*
X-4705222Y-16400000D01*
X-4686356Y-16687839D01*
X-4630081Y-16970753D01*
X-4537359Y-17243902D01*
X-4409778Y-17502611D01*
X-4249520Y-17742454D01*
X-4059327Y-17959327D01*
X-3842454Y-18149520D01*
X-3602611Y-18309778D01*
X-3343902Y-18437359D01*
X-3070753Y-18530081D01*
X-2787839Y-18586356D01*
X-2500000Y-18605222D01*
X-2212161Y-18586356D01*
X-1929247Y-18530081D01*
X-1656098Y-18437359D01*
X-1397389Y-18309778D01*
X-1234127Y-18200690D01*
X-1157547Y-18149521D01*
X-940672Y-17959327D01*
X-750478Y-17742452D01*
X-590223Y-17502613D01*
X-590219Y-17502606D01*
X-462642Y-17243905D01*
X-369921Y-16970760D01*
X-369917Y-16970745D01*
X-313646Y-16687849D01*
X-313644Y-16687837D01*
X-294778Y-16400000D01*
X-313644Y-16112162D01*
X-313646Y-16112150D01*
X-369917Y-15829254D01*
X-369921Y-15829239D01*
X-462642Y-15556094D01*
X-590219Y-15297393D01*
X-590223Y-15297386D01*
X-750478Y-15057547D01*
X-940672Y-14840672D01*
X-1157547Y-14650478D01*
X-1397386Y-14490223D01*
X-1397393Y-14490219D01*
X-1656094Y-14362642D01*
X-1929239Y-14269921D01*
X-1929254Y-14269917D01*
X-2212150Y-14213646D01*
X-2212155Y-14213645D01*
X-2212161Y-14213644D01*
X-2500000Y-14194778D01*
X-2787839Y-14213644D01*
X-2787849Y-14213646D01*
X-3070745Y-14269917D01*
X-3070751Y-14269918D01*
X-3070753Y-14269919D01*
X-3070754Y-14269919D01*
X-3070760Y-14269921D01*
X-3343905Y-14362642D01*
X-3602606Y-14490219D01*
X-3602613Y-14490223D01*
X-3842452Y-14650478D01*
X-4059327Y-14840672D01*
X-4249521Y-15057547D01*
X-4286899Y-15113487D01*
X-4409778Y-15297389D01*
X-4537359Y-15556098D01*
X-4630081Y-15829247D01*
X-4686356Y-16112161D01*
X-4705222Y-16400000D01*
X-31065572Y-16400000D01*
X-29855742Y-15190170D01*
X-29854103Y-15188560D01*
X-29776195Y-15113487D01*
X-29763043Y-15102463D01*
X-29701227Y-15057547D01*
X-29587165Y-14974669D01*
X-29570581Y-14964506D01*
X-29377902Y-14866329D01*
X-29359943Y-14858890D01*
X-29154261Y-14792064D01*
X-29135356Y-14787527D01*
X-28920621Y-14753527D01*
X-28903545Y-14752023D01*
X-28797861Y-14750066D01*
X-28795385Y-14750021D01*
X-28793090Y-14750000D01*
X-14928663Y-14750000D01*
X-14824974Y-14748931D01*
X-14810156Y-14748779D01*
X-14810151Y-14748778D01*
X-14810147Y-14748778D01*
X-14575735Y-14713514D01*
X-14575731Y-14713512D01*
X-14575726Y-14713512D01*
X-14349760Y-14641813D01*
X-14137883Y-14535469D01*
X-13945367Y-14397124D01*
X-13945362Y-14397120D01*
X-13777007Y-14230226D01*
X-13712063Y-14141494D01*
X-13636989Y-14038922D01*
X-13528801Y-13827980D01*
X-13455136Y-13602648D01*
X-13417827Y-13368534D01*
X-13417826Y-13368530D01*
X-13415571Y-13249977D01*
X-13415571Y-9224983D01*
X4899500Y-9224983D01*
X4899500Y-10825001D01*
X4899501Y-10825018D01*
X4910000Y-10927796D01*
X4910001Y-10927799D01*
X4955894Y-11066294D01*
X4965186Y-11094334D01*
X5057288Y-11243656D01*
X5181344Y-11367712D01*
X5330666Y-11459814D01*
X5497203Y-11514999D01*
X5599991Y-11525500D01*
X6900008Y-11525499D01*
X7002797Y-11514999D01*
X7169334Y-11459814D01*
X7318656Y-11367712D01*
X7442712Y-11243656D01*
X7534814Y-11094334D01*
X7534814Y-11094331D01*
X7538178Y-11088879D01*
X7590126Y-11042154D01*
X7659088Y-11030931D01*
X7723170Y-11058774D01*
X7731398Y-11066294D01*
X7870213Y-11205109D01*
X8042179Y-11330048D01*
X8042181Y-11330049D01*
X8042184Y-11330051D01*
X8231588Y-11426557D01*
X8433757Y-11492246D01*
X8643713Y-11525500D01*
X8643714Y-11525500D01*
X8856286Y-11525500D01*
X8856287Y-11525500D01*
X9066243Y-11492246D01*
X9268412Y-11426557D01*
X9457816Y-11330051D01*
X9479789Y-11314086D01*
X9629786Y-11205109D01*
X9629788Y-11205106D01*
X9629792Y-11205104D01*
X9780104Y-11054792D01*
X9780106Y-11054788D01*
X9780109Y-11054786D01*
X9905048Y-10882820D01*
X9905047Y-10882820D01*
X9905051Y-10882816D01*
X10001557Y-10693412D01*
X10067246Y-10491243D01*
X10100500Y-10281287D01*
X10100500Y-9768713D01*
X10067246Y-9558757D01*
X10001557Y-9356588D01*
X9905051Y-9167184D01*
X9905049Y-9167181D01*
X9905048Y-9167179D01*
X9780109Y-8995213D01*
X9629786Y-8844890D01*
X9457820Y-8719951D01*
X9268414Y-8623444D01*
X9268413Y-8623443D01*
X9268412Y-8623443D01*
X9066243Y-8557754D01*
X9066241Y-8557753D01*
X9066240Y-8557753D01*
X8904957Y-8532208D01*
X8856287Y-8524500D01*
X8643713Y-8524500D01*
X8595042Y-8532208D01*
X8433760Y-8557753D01*
X8231585Y-8623444D01*
X8042179Y-8719951D01*
X7870215Y-8844889D01*
X7731398Y-8983706D01*
X7670075Y-9017190D01*
X7600383Y-9012206D01*
X7544450Y-8970334D01*
X7538178Y-8961120D01*
X7442712Y-8806344D01*
X7318657Y-8682289D01*
X7318656Y-8682288D01*
X7169334Y-8590186D01*
X7002797Y-8535001D01*
X7002795Y-8535000D01*
X6900010Y-8524500D01*
X5599998Y-8524500D01*
X5599981Y-8524501D01*
X5497203Y-8535000D01*
X5497200Y-8535001D01*
X5330668Y-8590185D01*
X5330663Y-8590187D01*
X5181342Y-8682289D01*
X5057289Y-8806342D01*
X4965187Y-8955663D01*
X4965185Y-8955668D01*
X4960325Y-8970334D01*
X4910001Y-9122203D01*
X4910001Y-9122204D01*
X4910000Y-9122204D01*
X4899500Y-9224983D01*
X-13415571Y-9224983D01*
X-13415571Y-6251217D01*
X-13415547Y-6248778D01*
X-13413420Y-6140667D01*
X-13411917Y-6123703D01*
X-13377892Y-5908933D01*
X-13373349Y-5890014D01*
X-13306526Y-5684375D01*
X-13299081Y-5666405D01*
X-13200914Y-5473752D01*
X-13190748Y-5457164D01*
X-13063655Y-5282239D01*
X-13051019Y-5267444D01*
X-12898126Y-5114551D01*
X-12883331Y-5101915D01*
X-12708406Y-4974822D01*
X-12691822Y-4964658D01*
X-12499159Y-4866486D01*
X-12481203Y-4859047D01*
X-12275553Y-4792220D01*
X-12256640Y-4787678D01*
X-12041866Y-4753652D01*
X-12024903Y-4752150D01*
X-11916791Y-4750024D01*
X-11914353Y-4750000D01*
X-11058005Y-4750000D01*
X-10990966Y-4769685D01*
G37*
%TD.AperFunction*%
%TD*%
%TA.AperFunction,Conductor*%
%TO.N,Net-(J1-Pin_1)*%
G36*
X34001190Y-19351324D02*
G01*
X34045537Y-19379825D01*
X40502493Y-25836781D01*
X40503707Y-25838011D01*
X40623792Y-25961491D01*
X40631821Y-25970601D01*
X40847114Y-26240407D01*
X40855145Y-26251715D01*
X41038514Y-26543169D01*
X41045232Y-26555304D01*
X41194896Y-26865396D01*
X41200217Y-26878204D01*
X41314316Y-27203077D01*
X41318173Y-27216400D01*
X41395276Y-27551981D01*
X41397621Y-27565652D01*
X41436764Y-27907743D01*
X41437568Y-27921589D01*
X41438263Y-28265919D01*
X41437515Y-28279769D01*
X41399750Y-28622018D01*
X41397460Y-28635697D01*
X41321711Y-28971582D01*
X41317908Y-28984920D01*
X41205120Y-29310252D01*
X41199851Y-29323083D01*
X41051434Y-29633783D01*
X41044765Y-29645944D01*
X40862580Y-29938123D01*
X40854594Y-29949464D01*
X40640387Y-30220141D01*
X40632391Y-30229286D01*
X40512978Y-30353060D01*
X40511420Y-30354646D01*
X34246990Y-36619075D01*
X34164455Y-36704868D01*
X34164454Y-36704869D01*
X34024866Y-36897613D01*
X34024862Y-36897620D01*
X33917433Y-37109978D01*
X33917431Y-37109980D01*
X33878994Y-37222562D01*
X33827089Y-37377620D01*
X33822956Y-37388300D01*
X33691372Y-37686627D01*
X33685459Y-37698318D01*
X33523541Y-37980383D01*
X33516427Y-37991385D01*
X33325654Y-38254790D01*
X33317419Y-38264980D01*
X33099924Y-38506781D01*
X33090660Y-38516046D01*
X32848855Y-38733558D01*
X32838665Y-38741793D01*
X32575267Y-38932574D01*
X32564265Y-38939688D01*
X32282212Y-39101610D01*
X32270521Y-39107523D01*
X31972207Y-39239113D01*
X31961492Y-39243258D01*
X31806551Y-39295077D01*
X31693846Y-39333512D01*
X31481498Y-39440923D01*
X31481497Y-39440923D01*
X31288769Y-39580518D01*
X31288767Y-39580519D01*
X31203014Y-39663051D01*
X30188448Y-40677617D01*
X30105479Y-40762345D01*
X30105477Y-40762346D01*
X29964711Y-40953035D01*
X29964703Y-40953049D01*
X29855676Y-41163502D01*
X29855668Y-41163520D01*
X29781096Y-41388495D01*
X29781092Y-41388512D01*
X29742824Y-41622427D01*
X29741818Y-41859456D01*
X29778101Y-42093706D01*
X29778981Y-42097418D01*
X29775279Y-42167190D01*
X29734443Y-42223884D01*
X29669439Y-42249500D01*
X29658320Y-42250000D01*
X9623999Y-42250000D01*
X9556960Y-42230315D01*
X9511205Y-42177511D01*
X9499999Y-42126000D01*
X9499999Y-36914050D01*
X9519684Y-36847011D01*
X9522412Y-36842944D01*
X9550567Y-36802735D01*
X9646738Y-36596497D01*
X9705634Y-36376693D01*
X9725467Y-36150001D01*
X9723371Y-36126049D01*
X9723371Y-36126048D01*
X28980718Y-36126048D01*
X28980718Y-36368625D01*
X29010717Y-36596498D01*
X29012380Y-36609126D01*
X29043772Y-36726281D01*
X29075165Y-36843441D01*
X29135516Y-36989140D01*
X29167994Y-37067549D01*
X29289282Y-37277626D01*
X29289284Y-37277629D01*
X29289285Y-37277630D01*
X29436951Y-37470073D01*
X29436957Y-37470080D01*
X29608474Y-37641597D01*
X29608480Y-37641602D01*
X29800929Y-37789273D01*
X30011006Y-37910561D01*
X30235118Y-38003391D01*
X30469429Y-38066175D01*
X30649804Y-38089921D01*
X30709929Y-38097837D01*
X30709930Y-38097837D01*
X30952507Y-38097837D01*
X31000606Y-38091504D01*
X31193007Y-38066175D01*
X31427318Y-38003391D01*
X31651430Y-37910561D01*
X31861507Y-37789273D01*
X32053956Y-37641602D01*
X32225483Y-37470075D01*
X32373154Y-37277626D01*
X32494442Y-37067549D01*
X32587272Y-36843437D01*
X32650056Y-36609126D01*
X32681718Y-36368625D01*
X32681718Y-36126049D01*
X32650056Y-35885548D01*
X32587272Y-35651237D01*
X32494442Y-35427125D01*
X32373154Y-35217048D01*
X32225483Y-35024599D01*
X32225478Y-35024593D01*
X32053961Y-34853076D01*
X32053954Y-34853070D01*
X31861511Y-34705404D01*
X31861510Y-34705403D01*
X31861507Y-34705401D01*
X31651430Y-34584113D01*
X31651423Y-34584110D01*
X31427322Y-34491284D01*
X31193003Y-34428498D01*
X30952507Y-34396837D01*
X30952506Y-34396837D01*
X30709930Y-34396837D01*
X30709929Y-34396837D01*
X30469432Y-34428498D01*
X30235113Y-34491284D01*
X30011012Y-34584110D01*
X30011003Y-34584114D01*
X29800924Y-34705404D01*
X29608481Y-34853070D01*
X29608474Y-34853076D01*
X29436957Y-35024593D01*
X29436951Y-35024600D01*
X29289285Y-35217043D01*
X29167995Y-35427122D01*
X29167991Y-35427131D01*
X29075165Y-35651232D01*
X29012379Y-35885551D01*
X28980718Y-36126048D01*
X9723371Y-36126048D01*
X9705634Y-35923314D01*
X9705634Y-35923309D01*
X9646738Y-35703505D01*
X9550567Y-35497267D01*
X9550565Y-35497264D01*
X9522423Y-35457071D01*
X9500096Y-35390864D01*
X9499999Y-35385949D01*
X9499999Y-34414050D01*
X9519684Y-34347011D01*
X9522412Y-34342944D01*
X9550567Y-34302735D01*
X9646738Y-34096497D01*
X9705634Y-33876693D01*
X9725467Y-33650001D01*
X9705634Y-33423309D01*
X9646738Y-33203505D01*
X9550567Y-32997267D01*
X9550565Y-32997264D01*
X9522423Y-32957071D01*
X9500096Y-32890864D01*
X9499999Y-32885949D01*
X9499999Y-31914050D01*
X9519684Y-31847011D01*
X9522412Y-31842944D01*
X9550567Y-31802735D01*
X9646738Y-31596497D01*
X9705634Y-31376693D01*
X9725467Y-31150001D01*
X9705634Y-30923309D01*
X9646738Y-30703505D01*
X9550567Y-30497267D01*
X9550565Y-30497264D01*
X9522423Y-30457071D01*
X9500096Y-30390864D01*
X9499999Y-30385949D01*
X9499999Y-29414050D01*
X9519684Y-29347011D01*
X9522412Y-29342944D01*
X9550567Y-29302735D01*
X9646738Y-29096497D01*
X9705634Y-28876693D01*
X9725467Y-28650001D01*
X9705634Y-28423309D01*
X9646738Y-28203505D01*
X9572047Y-28043331D01*
X9562259Y-27978887D01*
X36389907Y-27978887D01*
X36389907Y-28221464D01*
X36421568Y-28461961D01*
X36484354Y-28696280D01*
X36559081Y-28876687D01*
X36577183Y-28920388D01*
X36698471Y-29130465D01*
X36698473Y-29130468D01*
X36698474Y-29130469D01*
X36846140Y-29322912D01*
X36846146Y-29322919D01*
X37017663Y-29494436D01*
X37017669Y-29494441D01*
X37210118Y-29642112D01*
X37420195Y-29763400D01*
X37644307Y-29856230D01*
X37878618Y-29919014D01*
X38023768Y-29938123D01*
X38119118Y-29950676D01*
X38119119Y-29950676D01*
X38361696Y-29950676D01*
X38409795Y-29944343D01*
X38602196Y-29919014D01*
X38836507Y-29856230D01*
X39060619Y-29763400D01*
X39270696Y-29642112D01*
X39463145Y-29494441D01*
X39634672Y-29322914D01*
X39782343Y-29130465D01*
X39903631Y-28920388D01*
X39996461Y-28696276D01*
X40059245Y-28461965D01*
X40090907Y-28221464D01*
X40090907Y-27978888D01*
X40090297Y-27974258D01*
X40059245Y-27738390D01*
X40059245Y-27738387D01*
X39996461Y-27504076D01*
X39903631Y-27279964D01*
X39782343Y-27069887D01*
X39634672Y-26877438D01*
X39634667Y-26877432D01*
X39463150Y-26705915D01*
X39463143Y-26705909D01*
X39270700Y-26558243D01*
X39270699Y-26558242D01*
X39270696Y-26558240D01*
X39060619Y-26436952D01*
X39060612Y-26436949D01*
X38836511Y-26344123D01*
X38602192Y-26281337D01*
X38361696Y-26249676D01*
X38361695Y-26249676D01*
X38119119Y-26249676D01*
X38119118Y-26249676D01*
X37878621Y-26281337D01*
X37644302Y-26344123D01*
X37420201Y-26436949D01*
X37420192Y-26436953D01*
X37210113Y-26558243D01*
X37017670Y-26705909D01*
X37017663Y-26705915D01*
X36846146Y-26877432D01*
X36846140Y-26877439D01*
X36698474Y-27069882D01*
X36577184Y-27279961D01*
X36577180Y-27279970D01*
X36484354Y-27504071D01*
X36421568Y-27738390D01*
X36389907Y-27978887D01*
X9562259Y-27978887D01*
X9561556Y-27974258D01*
X9590075Y-27910474D01*
X9596724Y-27903275D01*
X15452480Y-22047520D01*
X15513803Y-22014035D01*
X15540161Y-22011201D01*
X27697500Y-22011201D01*
X27757237Y-22026538D01*
X27994317Y-22156875D01*
X27994322Y-22156877D01*
X27994324Y-22156878D01*
X27994325Y-22156879D01*
X28286854Y-22272699D01*
X28286857Y-22272700D01*
X28591606Y-22350946D01*
X28591610Y-22350947D01*
X28657093Y-22359219D01*
X28903753Y-22390380D01*
X28903762Y-22390380D01*
X28903765Y-22390381D01*
X28903767Y-22390381D01*
X29218399Y-22390381D01*
X29218401Y-22390381D01*
X29218404Y-22390380D01*
X29218412Y-22390380D01*
X29404676Y-22366849D01*
X29530556Y-22350947D01*
X29835308Y-22272700D01*
X29835311Y-22272699D01*
X30127840Y-22156879D01*
X30127841Y-22156878D01*
X30127839Y-22156878D01*
X30127849Y-22156875D01*
X30364928Y-22026538D01*
X30424666Y-22011201D01*
X31238799Y-22011201D01*
X33870175Y-19379825D01*
X33931498Y-19346340D01*
X34001190Y-19351324D01*
G37*
%TD.AperFunction*%
%TD*%
M02*
