%TF.GenerationSoftware,KiCad,Pcbnew,8.0.1*%
%TF.CreationDate,2024-05-18T14:13:59+09:00*%
%TF.ProjectId,Power-20240325,506f7765-722d-4323-9032-34303332352e,rev?*%
%TF.SameCoordinates,Original*%
%TF.FileFunction,Copper,L1,Top*%
%TF.FilePolarity,Positive*%
%FSLAX46Y46*%
G04 Gerber Fmt 4.6, Leading zero omitted, Abs format (unit mm)*
G04 Created by KiCad (PCBNEW 8.0.1) date 2024-05-18 14:13:59*
%MOMM*%
%LPD*%
G01*
G04 APERTURE LIST*
G04 Aperture macros list*
%AMRoundRect*
0 Rectangle with rounded corners*
0 $1 Rounding radius*
0 $2 $3 $4 $5 $6 $7 $8 $9 X,Y pos of 4 corners*
0 Add a 4 corners polygon primitive as box body*
4,1,4,$2,$3,$4,$5,$6,$7,$8,$9,$2,$3,0*
0 Add four circle primitives for the rounded corners*
1,1,$1+$1,$2,$3*
1,1,$1+$1,$4,$5*
1,1,$1+$1,$6,$7*
1,1,$1+$1,$8,$9*
0 Add four rect primitives between the rounded corners*
20,1,$1+$1,$2,$3,$4,$5,0*
20,1,$1+$1,$4,$5,$6,$7,0*
20,1,$1+$1,$6,$7,$8,$9,0*
20,1,$1+$1,$8,$9,$2,$3,0*%
%AMHorizOval*
0 Thick line with rounded ends*
0 $1 width*
0 $2 $3 position (X,Y) of the first rounded end (center of the circle)*
0 $4 $5 position (X,Y) of the second rounded end (center of the circle)*
0 Add line between two ends*
20,1,$1,$2,$3,$4,$5,0*
0 Add two circle primitives to create the rounded ends*
1,1,$1,$2,$3*
1,1,$1,$4,$5*%
G04 Aperture macros list end*
%TA.AperFunction,ComponentPad*%
%ADD10C,3.500000*%
%TD*%
%TA.AperFunction,SMDPad,CuDef*%
%ADD11RoundRect,0.381000X0.762000X0.381000X-0.762000X0.381000X-0.762000X-0.381000X0.762000X-0.381000X0*%
%TD*%
%TA.AperFunction,SMDPad,CuDef*%
%ADD12RoundRect,0.381000X-0.381000X0.762000X-0.381000X-0.762000X0.381000X-0.762000X0.381000X0.762000X0*%
%TD*%
%TA.AperFunction,ComponentPad*%
%ADD13C,1.500000*%
%TD*%
%TA.AperFunction,ComponentPad*%
%ADD14C,2.600000*%
%TD*%
%TA.AperFunction,ComponentPad*%
%ADD15RoundRect,0.250000X-0.088388X0.936916X-0.936916X0.088388X0.088388X-0.936916X0.936916X-0.088388X0*%
%TD*%
%TA.AperFunction,ComponentPad*%
%ADD16HorizOval,1.700000X-0.088388X0.088388X0.088388X-0.088388X0*%
%TD*%
%TA.AperFunction,ComponentPad*%
%ADD17O,1.700000X2.000000*%
%TD*%
%TA.AperFunction,ComponentPad*%
%ADD18RoundRect,0.250000X0.600000X0.750000X-0.600000X0.750000X-0.600000X-0.750000X0.600000X-0.750000X0*%
%TD*%
%TA.AperFunction,ComponentPad*%
%ADD19C,2.700000*%
%TD*%
%TA.AperFunction,ComponentPad*%
%ADD20RoundRect,0.250001X-1.099999X-1.099999X1.099999X-1.099999X1.099999X1.099999X-1.099999X1.099999X0*%
%TD*%
%TA.AperFunction,ComponentPad*%
%ADD21C,2.000000*%
%TD*%
%TA.AperFunction,ComponentPad*%
%ADD22R,2.000000X2.000000*%
%TD*%
%TA.AperFunction,ComponentPad*%
%ADD23C,3.400000*%
%TD*%
%TA.AperFunction,ViaPad*%
%ADD24C,0.800000*%
%TD*%
%TA.AperFunction,ViaPad*%
%ADD25C,3.500000*%
%TD*%
%TA.AperFunction,Conductor*%
%ADD26C,2.000000*%
%TD*%
%TA.AperFunction,Conductor*%
%ADD27C,2.500000*%
%TD*%
G04 APERTURE END LIST*
D10*
%TO.P,VIN,2,Pin_2*%
%TO.N,GND*%
X102494637Y-98593433D03*
%TO.P,VIN,1,Pin_1*%
%TO.N,Net-(J1-Pin_1)*%
X106030171Y-102128967D03*
%TD*%
D11*
%TO.P,U1,7,GND*%
%TO.N,GND*%
X60179999Y-112099999D03*
D12*
%TO.P,U1,6,Trim*%
%TO.N,Net-(U1-Trim)*%
X58660000Y-106000000D03*
%TO.P,U1,5,Sense*%
%TO.N,+3.3V*%
X54080000Y-106000000D03*
%TO.P,U1,4,Vout*%
X49500000Y-106000000D03*
D11*
%TO.P,U1,3,GND*%
%TO.N,GND*%
X47980000Y-109809999D03*
X47980001Y-112099999D03*
%TO.P,U1,2,Vin*%
%TO.N,VIN*%
X47980000Y-114389999D03*
D12*
X49500000Y-118199998D03*
%TO.P,U1,1,ON/OFF*%
%TO.N,GND*%
X54080000Y-118199998D03*
%TD*%
D11*
%TO.P,U2,7,GND*%
%TO.N,GND*%
X75679999Y-112099999D03*
D12*
%TO.P,U2,6,Trim*%
%TO.N,Net-(U2-Trim)*%
X74160000Y-106000000D03*
%TO.P,U2,5,Sense*%
%TO.N,+5V*%
X69580000Y-106000000D03*
%TO.P,U2,4,Vout*%
X65000000Y-106000000D03*
D11*
%TO.P,U2,3,GND*%
%TO.N,GND*%
X63480000Y-109809999D03*
X63480001Y-112099999D03*
%TO.P,U2,2,Vin*%
%TO.N,VIN*%
X63480000Y-114389999D03*
D12*
X65000000Y-118199998D03*
%TO.P,U2,1,ON/OFF*%
%TO.N,GND*%
X69580000Y-118199998D03*
%TD*%
D13*
%TO.P,+,2,+*%
%TO.N,VIN*%
X81330001Y-102349998D03*
%TO.P,+,1,-*%
%TO.N,GND*%
X83080001Y-102349998D03*
%TD*%
D14*
%TO.P,F1,2*%
%TO.N,Net-(SW1A-A)*%
X91580001Y-130349998D03*
X94580001Y-123849998D03*
%TO.P,F1,1*%
%TO.N,Net-(J1-Pin_1)*%
X91580001Y-106349998D03*
X94580001Y-99849998D03*
%TD*%
D15*
%TO.P,MAIN,1,Pin_1*%
%TO.N,+5V*%
X43218998Y-99203463D03*
D16*
%TO.P,MAIN,2,Pin_2*%
%TO.N,+3.3V*%
X41451231Y-100971230D03*
%TO.P,MAIN,3,Pin_3*%
%TO.N,GND*%
X39683464Y-102738997D03*
%TD*%
D17*
%TO.P,KICKER,2,Pin_2*%
%TO.N,GND*%
X51580000Y-97099999D03*
D18*
%TO.P,KICKER,1,Pin_1*%
%TO.N,VIN*%
X54080000Y-97099999D03*
%TD*%
D19*
%TO.P,LINE,2,Pin_2*%
%TO.N,GND*%
X82540000Y-90000000D03*
D20*
%TO.P,LINE,1,Pin_1*%
%TO.N,+5V*%
X78580000Y-90000000D03*
%TD*%
D21*
%TO.P,C5,2*%
%TO.N,GND*%
X46593485Y-127168654D03*
D22*
%TO.P,C5,1*%
%TO.N,VIN*%
X41593485Y-127168654D03*
%TD*%
D23*
%TO.P,MD,2,Pin_2*%
%TO.N,GND*%
X70580001Y-94749999D03*
%TO.P,MD,1,Pin_1*%
%TO.N,VIN*%
X65580001Y-94749999D03*
D21*
%TO.P,MD,*%
%TO.N,*%
X73580001Y-84749999D03*
X62580001Y-84749999D03*
%TD*%
%TO.P,C4,2*%
%TO.N,GND*%
X99566657Y-127168654D03*
D22*
%TO.P,C4,1*%
%TO.N,VIN*%
X104566657Y-127168654D03*
%TD*%
D24*
%TO.N,+5V*%
X65000000Y-103000000D03*
X69580000Y-103000000D03*
%TO.N,GND*%
X45580000Y-112099999D03*
X57130000Y-115149998D03*
X78080001Y-112099999D03*
X72630001Y-115149999D03*
D25*
%TO.N,VIN*%
X58080000Y-128599998D03*
D24*
X67805000Y-115349999D03*
X51580000Y-114389999D03*
%TO.N,+3.3V*%
X51505000Y-105999999D03*
D25*
%TO.N,Net-(SW1A-A)*%
X87080000Y-128599999D03*
D24*
%TO.N,+5V*%
X67005000Y-105999999D03*
%TO.N,Net-(U1-Trim)*%
X56655001Y-105999999D03*
%TO.N,Net-(U2-Trim)*%
X72155000Y-105999999D03*
%TD*%
D26*
%TO.N,+5V*%
X65000000Y-106000000D02*
X65000000Y-103000000D01*
X69580000Y-106000000D02*
X69580000Y-103000000D01*
X65000000Y-106000000D02*
X67005000Y-105999999D01*
X69580000Y-106000000D02*
X67005000Y-105999999D01*
%TO.N,+3.3V*%
X54080000Y-106000000D02*
X51505000Y-105999999D01*
X49500000Y-106000000D02*
X51505000Y-105999999D01*
X41451231Y-100971230D02*
X46480001Y-106000000D01*
X46480001Y-106000000D02*
X49500000Y-106000000D01*
D27*
%TO.N,GND*%
X75679999Y-112099999D02*
X78080001Y-112099999D01*
X72630001Y-115149999D02*
X75679999Y-112099999D01*
X69580000Y-118199998D02*
X72630001Y-115149999D01*
X63480001Y-112099999D02*
X75679999Y-112099999D01*
X57130000Y-115149998D02*
X54080000Y-118199998D01*
X60179999Y-112099999D02*
X57130000Y-115149998D01*
X63480000Y-109809999D02*
X63480001Y-112099999D01*
X60179999Y-112099999D02*
X63480001Y-112099999D01*
X47980001Y-112099999D02*
X60179999Y-112099999D01*
X47980001Y-112099999D02*
X45580000Y-112099999D01*
X47980000Y-109809999D02*
X47980000Y-112099999D01*
%TD*%
%TA.AperFunction,Conductor*%
%TO.N,VIN*%
G36*
X62089035Y-83119684D02*
G01*
X62134790Y-83172488D01*
X62144734Y-83241646D01*
X62115709Y-83305202D01*
X62062259Y-83341280D01*
X61975198Y-83371168D01*
X61975189Y-83371171D01*
X61756494Y-83489523D01*
X61560258Y-83642260D01*
X61391834Y-83825216D01*
X61255827Y-84033392D01*
X61155937Y-84261117D01*
X61094893Y-84502174D01*
X61094891Y-84502186D01*
X61074358Y-84749993D01*
X61074358Y-84750004D01*
X61094891Y-84997811D01*
X61094893Y-84997823D01*
X61155937Y-85238880D01*
X61255827Y-85466605D01*
X61391834Y-85674781D01*
X61391837Y-85674784D01*
X61560257Y-85857737D01*
X61756492Y-86010473D01*
X61975191Y-86128827D01*
X62210387Y-86209570D01*
X62455666Y-86250499D01*
X62704336Y-86250499D01*
X62949615Y-86209570D01*
X63184811Y-86128827D01*
X63403510Y-86010473D01*
X63599745Y-85857737D01*
X63768165Y-85674784D01*
X63904174Y-85466606D01*
X64004064Y-85238880D01*
X64065109Y-84997820D01*
X64085644Y-84749999D01*
X64072286Y-84588797D01*
X64065110Y-84502186D01*
X64065108Y-84502174D01*
X64004064Y-84261117D01*
X63904174Y-84033392D01*
X63768167Y-83825216D01*
X63744984Y-83800033D01*
X63599745Y-83642261D01*
X63403510Y-83489525D01*
X63403508Y-83489524D01*
X63403507Y-83489523D01*
X63184812Y-83371171D01*
X63184803Y-83371168D01*
X63097743Y-83341280D01*
X63040728Y-83300895D01*
X63014597Y-83236095D01*
X63027648Y-83167455D01*
X63075737Y-83116767D01*
X63138006Y-83099999D01*
X73021996Y-83099999D01*
X73089035Y-83119684D01*
X73134790Y-83172488D01*
X73144734Y-83241646D01*
X73115709Y-83305202D01*
X73062259Y-83341280D01*
X72975198Y-83371168D01*
X72975189Y-83371171D01*
X72756494Y-83489523D01*
X72560258Y-83642260D01*
X72391834Y-83825216D01*
X72255827Y-84033392D01*
X72155937Y-84261117D01*
X72094893Y-84502174D01*
X72094891Y-84502186D01*
X72074358Y-84749993D01*
X72074358Y-84750004D01*
X72094891Y-84997811D01*
X72094893Y-84997823D01*
X72155937Y-85238880D01*
X72255827Y-85466605D01*
X72391834Y-85674781D01*
X72391837Y-85674784D01*
X72560257Y-85857737D01*
X72756492Y-86010473D01*
X72975191Y-86128827D01*
X73210387Y-86209570D01*
X73455666Y-86250499D01*
X73704336Y-86250499D01*
X73949615Y-86209570D01*
X74184811Y-86128827D01*
X74403510Y-86010473D01*
X74599745Y-85857737D01*
X74768165Y-85674784D01*
X74904174Y-85466606D01*
X75004064Y-85238880D01*
X75065109Y-84997820D01*
X75085644Y-84749999D01*
X75072286Y-84588797D01*
X75065110Y-84502186D01*
X75065108Y-84502174D01*
X75004064Y-84261117D01*
X74904174Y-84033392D01*
X74768167Y-83825216D01*
X74744984Y-83800033D01*
X74599745Y-83642261D01*
X74403510Y-83489525D01*
X74403508Y-83489524D01*
X74403507Y-83489523D01*
X74184812Y-83371171D01*
X74184803Y-83371168D01*
X74097743Y-83341280D01*
X74040728Y-83300895D01*
X74014597Y-83236095D01*
X74027648Y-83167455D01*
X74075737Y-83116767D01*
X74138006Y-83099999D01*
X84994365Y-83099999D01*
X84996761Y-83100022D01*
X84999036Y-83100065D01*
X85104310Y-83102100D01*
X85121189Y-83103587D01*
X85334804Y-83137237D01*
X85353618Y-83141728D01*
X85558258Y-83207831D01*
X85576146Y-83215195D01*
X85768012Y-83312328D01*
X85784525Y-83322378D01*
X85958944Y-83448175D01*
X85973705Y-83460682D01*
X86126427Y-83612075D01*
X86139064Y-83626728D01*
X86266374Y-83800033D01*
X86276577Y-83816472D01*
X86375378Y-84007474D01*
X86382900Y-84025301D01*
X86450785Y-84229347D01*
X86455442Y-84248127D01*
X86490962Y-84461469D01*
X86492595Y-84478279D01*
X86495663Y-84585242D01*
X86495714Y-84588797D01*
X86495714Y-91599999D01*
X86498033Y-91717865D01*
X86534919Y-91950687D01*
X86607775Y-92174885D01*
X86714799Y-92384921D01*
X86714801Y-92384924D01*
X86753649Y-92438394D01*
X86777129Y-92504200D01*
X86761304Y-92572254D01*
X86747044Y-92592482D01*
X86674433Y-92676279D01*
X86674430Y-92676283D01*
X86614664Y-92807149D01*
X86594976Y-92874197D01*
X86574500Y-93016616D01*
X86574500Y-96617426D01*
X86554815Y-96684465D01*
X86502011Y-96730220D01*
X86432853Y-96740164D01*
X86412183Y-96735357D01*
X86407954Y-96733983D01*
X86407955Y-96733983D01*
X86244655Y-96708119D01*
X86190223Y-96699498D01*
X85969779Y-96699498D01*
X85897202Y-96710993D01*
X85752048Y-96733983D01*
X85542397Y-96802101D01*
X85542394Y-96802102D01*
X85345975Y-96902185D01*
X85167642Y-97031750D01*
X85167637Y-97031754D01*
X85011757Y-97187634D01*
X85011753Y-97187639D01*
X84882188Y-97365972D01*
X84782105Y-97562391D01*
X84782104Y-97562394D01*
X84713986Y-97772045D01*
X84679501Y-97989776D01*
X84679501Y-98210219D01*
X84713986Y-98427950D01*
X84782104Y-98637601D01*
X84782105Y-98637604D01*
X84882188Y-98834023D01*
X85011753Y-99012356D01*
X85011757Y-99012361D01*
X85167637Y-99168241D01*
X85167642Y-99168245D01*
X85217040Y-99204134D01*
X85345979Y-99297813D01*
X85474376Y-99363235D01*
X85542394Y-99397893D01*
X85542397Y-99397894D01*
X85647222Y-99431953D01*
X85752050Y-99466013D01*
X85969779Y-99500498D01*
X85969780Y-99500498D01*
X86190222Y-99500498D01*
X86190223Y-99500498D01*
X86407952Y-99466013D01*
X86412171Y-99464641D01*
X86482012Y-99462640D01*
X86541848Y-99498715D01*
X86572682Y-99561413D01*
X86574500Y-99582569D01*
X86574500Y-119977987D01*
X86585202Y-120081447D01*
X86585203Y-120081453D01*
X86595591Y-120131131D01*
X86627244Y-120230218D01*
X86658718Y-120280973D01*
X86703068Y-120352493D01*
X86725516Y-120379260D01*
X86747961Y-120406024D01*
X86747963Y-120406026D01*
X86747965Y-120406028D01*
X86747967Y-120406030D01*
X86855171Y-120501993D01*
X86985068Y-120563866D01*
X86985075Y-120563868D01*
X86985077Y-120563869D01*
X87008095Y-120571032D01*
X87051781Y-120584629D01*
X87193848Y-120607399D01*
X102689045Y-120857322D01*
X102695832Y-120857386D01*
X102698203Y-120857392D01*
X102699110Y-120857395D01*
X102699132Y-120857394D01*
X102699166Y-120857395D01*
X102705971Y-120857368D01*
X102848159Y-120835360D01*
X102892975Y-120821674D01*
X102962838Y-120820922D01*
X103022020Y-120858061D01*
X103034832Y-120876907D01*
X103035460Y-120876524D01*
X103038015Y-120880706D01*
X103177166Y-121072595D01*
X103259395Y-121158002D01*
X105734003Y-123632607D01*
X105734957Y-123633571D01*
X105885400Y-123787344D01*
X105891811Y-123794424D01*
X106117015Y-124063321D01*
X106168436Y-124124718D01*
X106175079Y-124133401D01*
X106421133Y-124486201D01*
X106426986Y-124495436D01*
X106641007Y-124868541D01*
X106646024Y-124878256D01*
X106826344Y-125268757D01*
X106830486Y-125278875D01*
X106975714Y-125683757D01*
X106978948Y-125694201D01*
X107087946Y-126110299D01*
X107090247Y-126120987D01*
X107162168Y-126545060D01*
X107163519Y-126555910D01*
X107197805Y-126984661D01*
X107198196Y-126995588D01*
X107194579Y-127425717D01*
X107194005Y-127436634D01*
X107152518Y-127864753D01*
X107150985Y-127875579D01*
X107071945Y-128298392D01*
X107069464Y-128309040D01*
X106953485Y-128723249D01*
X106950075Y-128733637D01*
X106798067Y-129136007D01*
X106793756Y-129146054D01*
X106606899Y-129533464D01*
X106601720Y-129543093D01*
X106381450Y-129912560D01*
X106375443Y-129921695D01*
X106123494Y-130270309D01*
X106116705Y-130278880D01*
X105835025Y-130603948D01*
X105827508Y-130611887D01*
X105518288Y-130910880D01*
X105510101Y-130918126D01*
X105175747Y-131188719D01*
X105166953Y-131195216D01*
X104810054Y-131435310D01*
X104800722Y-131441006D01*
X104424082Y-131648719D01*
X104414284Y-131653572D01*
X104020168Y-131827584D01*
X104011267Y-131831110D01*
X103808566Y-131902482D01*
X103806982Y-131903028D01*
X102882357Y-132214618D01*
X102880244Y-132215309D01*
X101018731Y-132805676D01*
X101016303Y-132806419D01*
X99143235Y-133358511D01*
X99140793Y-133359204D01*
X97256768Y-133872845D01*
X97254312Y-133873487D01*
X95360272Y-134348424D01*
X95357803Y-134349017D01*
X93454319Y-134785105D01*
X93451839Y-134785646D01*
X91539919Y-135182655D01*
X91537428Y-135183146D01*
X89617698Y-135540945D01*
X89615197Y-135541384D01*
X87688662Y-135859787D01*
X87686154Y-135860176D01*
X85753395Y-136139087D01*
X85750878Y-136139424D01*
X83812839Y-136378704D01*
X83810317Y-136378989D01*
X81867781Y-136578545D01*
X81865253Y-136578778D01*
X79919095Y-136738517D01*
X79916563Y-136738699D01*
X77967495Y-136858565D01*
X77964959Y-136858695D01*
X76013854Y-136938633D01*
X76011317Y-136938711D01*
X74058981Y-136978689D01*
X74056442Y-136978715D01*
X72103700Y-136978715D01*
X72101161Y-136978689D01*
X70148824Y-136938711D01*
X70146287Y-136938633D01*
X68195182Y-136858695D01*
X68192646Y-136858565D01*
X66243578Y-136738699D01*
X66241046Y-136738517D01*
X64294888Y-136578778D01*
X64292360Y-136578545D01*
X62349824Y-136378989D01*
X62347302Y-136378704D01*
X60409263Y-136139424D01*
X60406746Y-136139087D01*
X58473987Y-135860176D01*
X58471479Y-135859787D01*
X56544944Y-135541384D01*
X56542443Y-135540945D01*
X54622713Y-135183146D01*
X54620222Y-135182655D01*
X52708302Y-134785646D01*
X52705822Y-134785105D01*
X50802338Y-134349017D01*
X50799869Y-134348424D01*
X48905829Y-133873487D01*
X48903373Y-133872845D01*
X47019348Y-133359204D01*
X47016906Y-133358511D01*
X45143838Y-132806419D01*
X45141410Y-132805676D01*
X43279897Y-132215309D01*
X43277784Y-132214618D01*
X42353154Y-131903026D01*
X42351573Y-131902481D01*
X42148870Y-131831113D01*
X42139966Y-131827586D01*
X41745868Y-131653584D01*
X41736075Y-131648734D01*
X41359402Y-131441005D01*
X41350085Y-131435316D01*
X41161397Y-131308382D01*
X40993182Y-131195220D01*
X40984389Y-131188723D01*
X40650044Y-130918139D01*
X40641856Y-130910893D01*
X40504910Y-130778477D01*
X40332631Y-130611896D01*
X40325115Y-130603958D01*
X40325106Y-130603948D01*
X40043440Y-130278895D01*
X40036651Y-130270325D01*
X39784691Y-129921697D01*
X39778684Y-129912561D01*
X39558426Y-129543115D01*
X39553247Y-129533487D01*
X39366382Y-129146063D01*
X39362071Y-129136016D01*
X39362068Y-129136007D01*
X39210054Y-128733626D01*
X39206659Y-128723282D01*
X39090669Y-128309032D01*
X39088194Y-128298408D01*
X39009151Y-127875579D01*
X39007623Y-127864795D01*
X38966133Y-127436650D01*
X38965559Y-127425733D01*
X38965481Y-127416466D01*
X38963397Y-127168659D01*
X45087842Y-127168659D01*
X45108375Y-127416466D01*
X45108377Y-127416478D01*
X45169421Y-127657535D01*
X45269311Y-127885260D01*
X45405318Y-128093436D01*
X45405321Y-128093439D01*
X45573741Y-128276392D01*
X45769976Y-128429128D01*
X45988675Y-128547482D01*
X46223871Y-128628225D01*
X46469150Y-128669154D01*
X46717820Y-128669154D01*
X46963099Y-128628225D01*
X47198295Y-128547482D01*
X47416994Y-128429128D01*
X47613229Y-128276392D01*
X47781649Y-128093439D01*
X47917658Y-127885261D01*
X48017548Y-127657535D01*
X48078593Y-127416475D01*
X48099128Y-127168654D01*
X48085587Y-127005241D01*
X48078594Y-126920841D01*
X48078592Y-126920829D01*
X48017548Y-126679772D01*
X47917658Y-126452047D01*
X47781651Y-126243871D01*
X47668528Y-126120987D01*
X47613229Y-126060916D01*
X47416994Y-125908180D01*
X47416992Y-125908179D01*
X47416991Y-125908178D01*
X47198296Y-125789826D01*
X47198287Y-125789823D01*
X46963101Y-125709083D01*
X46717820Y-125668154D01*
X46469150Y-125668154D01*
X46223868Y-125709083D01*
X45988682Y-125789823D01*
X45988673Y-125789826D01*
X45769978Y-125908178D01*
X45573742Y-126060915D01*
X45405318Y-126243871D01*
X45269311Y-126452047D01*
X45169421Y-126679772D01*
X45108377Y-126920829D01*
X45108375Y-126920841D01*
X45087842Y-127168648D01*
X45087842Y-127168659D01*
X38963397Y-127168659D01*
X38961942Y-126995584D01*
X38962332Y-126984698D01*
X38996620Y-126555905D01*
X38997966Y-126545097D01*
X39069892Y-126120987D01*
X39072184Y-126110338D01*
X39181188Y-125694215D01*
X39184421Y-125683776D01*
X39184428Y-125683757D01*
X39329655Y-125278875D01*
X39333780Y-125268796D01*
X39514109Y-124878278D01*
X39519125Y-124868566D01*
X39519139Y-124868541D01*
X39733160Y-124495436D01*
X39739000Y-124486222D01*
X39739015Y-124486201D01*
X39985067Y-124133401D01*
X39991685Y-124124750D01*
X40268332Y-123794431D01*
X40274718Y-123787378D01*
X40425255Y-123633500D01*
X40426031Y-123632716D01*
X41958749Y-122099999D01*
X63380000Y-122099999D01*
X63380000Y-135099999D01*
X82780000Y-135099999D01*
X82780000Y-128600006D01*
X84824671Y-128600006D01*
X84843964Y-128894362D01*
X84843965Y-128894372D01*
X84843966Y-128894379D01*
X84894028Y-129146063D01*
X84901518Y-129183715D01*
X84901521Y-129183729D01*
X84996349Y-129463079D01*
X85126825Y-129727659D01*
X85126829Y-129727666D01*
X85290725Y-129972954D01*
X85485241Y-130194757D01*
X85662264Y-130350002D01*
X85707043Y-130389272D01*
X85952335Y-130553171D01*
X86216923Y-130683651D01*
X86496278Y-130778480D01*
X86785620Y-130836033D01*
X86813888Y-130837885D01*
X87079993Y-130855328D01*
X87080000Y-130855328D01*
X87080007Y-130855328D01*
X87315675Y-130839880D01*
X87374380Y-130836033D01*
X87663722Y-130778480D01*
X87943077Y-130683651D01*
X88207665Y-130553171D01*
X88452957Y-130389272D01*
X88497736Y-130350002D01*
X89774452Y-130350002D01*
X89794617Y-130619099D01*
X89848535Y-130855328D01*
X89854667Y-130882193D01*
X89953258Y-131133396D01*
X90088186Y-131367100D01*
X90224081Y-131537507D01*
X90256443Y-131578087D01*
X90443184Y-131751356D01*
X90454260Y-131761633D01*
X90677227Y-131913649D01*
X90920360Y-132030736D01*
X91178229Y-132110278D01*
X91178230Y-132110278D01*
X91178233Y-132110279D01*
X91445064Y-132150497D01*
X91445069Y-132150497D01*
X91445072Y-132150498D01*
X91445073Y-132150498D01*
X91714929Y-132150498D01*
X91714930Y-132150498D01*
X91714937Y-132150497D01*
X91981768Y-132110279D01*
X91981769Y-132110278D01*
X91981773Y-132110278D01*
X92239642Y-132030736D01*
X92482776Y-131913649D01*
X92705742Y-131761633D01*
X92903562Y-131578083D01*
X93071816Y-131367100D01*
X93206744Y-131133396D01*
X93305335Y-130882193D01*
X93365384Y-130619101D01*
X93385550Y-130349998D01*
X93379579Y-130270325D01*
X93365384Y-130080896D01*
X93365384Y-130080895D01*
X93305335Y-129817803D01*
X93206744Y-129566600D01*
X93071816Y-129332896D01*
X92903562Y-129121913D01*
X92903561Y-129121912D01*
X92903558Y-129121908D01*
X92705742Y-128938363D01*
X92641229Y-128894379D01*
X92482776Y-128786347D01*
X92482770Y-128786344D01*
X92482769Y-128786343D01*
X92482768Y-128786342D01*
X92239644Y-128669261D01*
X92239646Y-128669261D01*
X91981774Y-128589718D01*
X91981768Y-128589716D01*
X91714937Y-128549498D01*
X91714930Y-128549498D01*
X91445072Y-128549498D01*
X91445064Y-128549498D01*
X91178233Y-128589716D01*
X91178227Y-128589718D01*
X90920359Y-128669260D01*
X90677231Y-128786344D01*
X90454259Y-128938363D01*
X90256443Y-129121908D01*
X90088186Y-129332896D01*
X89953259Y-129566597D01*
X89953257Y-129566601D01*
X89854667Y-129817802D01*
X89854665Y-129817809D01*
X89794617Y-130080896D01*
X89774452Y-130349993D01*
X89774452Y-130350002D01*
X88497736Y-130350002D01*
X88674758Y-130194757D01*
X88869273Y-129972956D01*
X89033172Y-129727664D01*
X89163652Y-129463076D01*
X89258481Y-129183721D01*
X89316034Y-128894379D01*
X89326570Y-128733637D01*
X89335329Y-128600006D01*
X89335329Y-128599991D01*
X89316035Y-128305635D01*
X89316034Y-128305619D01*
X89258481Y-128016277D01*
X89163652Y-127736922D01*
X89033172Y-127472335D01*
X89009317Y-127436634D01*
X88978042Y-127389828D01*
X88869273Y-127227042D01*
X88818073Y-127168659D01*
X98061014Y-127168659D01*
X98081547Y-127416466D01*
X98081549Y-127416478D01*
X98142593Y-127657535D01*
X98242483Y-127885260D01*
X98378490Y-128093436D01*
X98378493Y-128093439D01*
X98546913Y-128276392D01*
X98743148Y-128429128D01*
X98961847Y-128547482D01*
X99197043Y-128628225D01*
X99442322Y-128669154D01*
X99690992Y-128669154D01*
X99936271Y-128628225D01*
X100171467Y-128547482D01*
X100390166Y-128429128D01*
X100586401Y-128276392D01*
X100754821Y-128093439D01*
X100890830Y-127885261D01*
X100990720Y-127657535D01*
X101051765Y-127416475D01*
X101072300Y-127168654D01*
X101058759Y-127005241D01*
X101051766Y-126920841D01*
X101051764Y-126920829D01*
X100990720Y-126679772D01*
X100890830Y-126452047D01*
X100754823Y-126243871D01*
X100641700Y-126120987D01*
X100586401Y-126060916D01*
X100390166Y-125908180D01*
X100390164Y-125908179D01*
X100390163Y-125908178D01*
X100171468Y-125789826D01*
X100171459Y-125789823D01*
X99936273Y-125709083D01*
X99690992Y-125668154D01*
X99442322Y-125668154D01*
X99197040Y-125709083D01*
X98961854Y-125789823D01*
X98961845Y-125789826D01*
X98743150Y-125908178D01*
X98546914Y-126060915D01*
X98378490Y-126243871D01*
X98242483Y-126452047D01*
X98142593Y-126679772D01*
X98081549Y-126920829D01*
X98081547Y-126920841D01*
X98061014Y-127168648D01*
X98061014Y-127168659D01*
X88818073Y-127168659D01*
X88818063Y-127168648D01*
X88674758Y-127005240D01*
X88452955Y-126810724D01*
X88207667Y-126646828D01*
X88207660Y-126646824D01*
X87943080Y-126516348D01*
X87663730Y-126421520D01*
X87663724Y-126421518D01*
X87663722Y-126421518D01*
X87374380Y-126363965D01*
X87374373Y-126363964D01*
X87374363Y-126363963D01*
X87080007Y-126344670D01*
X87079993Y-126344670D01*
X86785636Y-126363963D01*
X86785624Y-126363964D01*
X86785620Y-126363965D01*
X86785612Y-126363966D01*
X86785609Y-126363967D01*
X86496283Y-126421517D01*
X86496269Y-126421520D01*
X86216919Y-126516348D01*
X85952334Y-126646827D01*
X85707041Y-126810727D01*
X85485241Y-127005240D01*
X85290728Y-127227040D01*
X85126828Y-127472333D01*
X84996349Y-127736918D01*
X84901521Y-128016268D01*
X84901518Y-128016282D01*
X84843968Y-128305608D01*
X84843964Y-128305635D01*
X84824671Y-128599991D01*
X84824671Y-128600006D01*
X82780000Y-128600006D01*
X82780000Y-123850002D01*
X92774452Y-123850002D01*
X92794617Y-124119099D01*
X92854665Y-124382186D01*
X92854667Y-124382193D01*
X92895487Y-124486201D01*
X92953258Y-124633396D01*
X93088186Y-124867100D01*
X93224081Y-125037507D01*
X93256443Y-125078087D01*
X93443184Y-125251356D01*
X93454260Y-125261633D01*
X93677227Y-125413649D01*
X93920360Y-125530736D01*
X94178229Y-125610278D01*
X94178230Y-125610278D01*
X94178233Y-125610279D01*
X94445064Y-125650497D01*
X94445069Y-125650497D01*
X94445072Y-125650498D01*
X94445073Y-125650498D01*
X94714929Y-125650498D01*
X94714930Y-125650498D01*
X94714937Y-125650497D01*
X94981768Y-125610279D01*
X94981769Y-125610278D01*
X94981773Y-125610278D01*
X95239642Y-125530736D01*
X95482776Y-125413649D01*
X95705742Y-125261633D01*
X95903562Y-125078083D01*
X96071816Y-124867100D01*
X96206744Y-124633396D01*
X96305335Y-124382193D01*
X96365384Y-124119101D01*
X96385550Y-123849998D01*
X96381385Y-123794424D01*
X96365384Y-123580896D01*
X96305336Y-123317809D01*
X96305335Y-123317803D01*
X96206744Y-123066600D01*
X96071816Y-122832896D01*
X95903562Y-122621913D01*
X95903561Y-122621912D01*
X95903558Y-122621908D01*
X95705742Y-122438363D01*
X95482776Y-122286347D01*
X95482770Y-122286344D01*
X95482769Y-122286343D01*
X95482768Y-122286342D01*
X95239644Y-122169261D01*
X95239646Y-122169261D01*
X94981774Y-122089718D01*
X94981768Y-122089716D01*
X94714937Y-122049498D01*
X94714930Y-122049498D01*
X94445072Y-122049498D01*
X94445064Y-122049498D01*
X94178233Y-122089716D01*
X94178227Y-122089718D01*
X93920359Y-122169260D01*
X93677231Y-122286344D01*
X93454259Y-122438363D01*
X93256443Y-122621908D01*
X93088186Y-122832896D01*
X92953259Y-123066597D01*
X92953257Y-123066601D01*
X92854667Y-123317802D01*
X92854665Y-123317809D01*
X92794617Y-123580896D01*
X92774452Y-123849993D01*
X92774452Y-123850002D01*
X82780000Y-123850002D01*
X82780000Y-122099999D01*
X63380000Y-122099999D01*
X41958749Y-122099999D01*
X42900753Y-121157996D01*
X42982459Y-121073011D01*
X43121013Y-120882289D01*
X43228028Y-120672242D01*
X43300869Y-120448041D01*
X43337743Y-120215206D01*
X43337742Y-119979469D01*
X43300867Y-119746634D01*
X43228025Y-119522433D01*
X43121010Y-119312386D01*
X43020918Y-119174609D01*
X42982457Y-119121666D01*
X42982455Y-119121664D01*
X42935361Y-119072677D01*
X42933846Y-119069768D01*
X41882263Y-118018187D01*
X41796007Y-117934480D01*
X41796002Y-117934476D01*
X41601757Y-117792844D01*
X41601749Y-117792839D01*
X41387404Y-117683992D01*
X41387399Y-117683990D01*
X41273805Y-117645148D01*
X41273650Y-117645096D01*
X41118629Y-117593254D01*
X41107933Y-117589116D01*
X40809622Y-117457531D01*
X40797931Y-117451618D01*
X40515860Y-117289690D01*
X40504869Y-117282583D01*
X40241456Y-117091794D01*
X40231284Y-117083574D01*
X39989460Y-116866048D01*
X39980217Y-116856805D01*
X39762704Y-116614988D01*
X39754469Y-116604797D01*
X39563690Y-116341386D01*
X39556577Y-116330385D01*
X39411595Y-116077827D01*
X39394658Y-116048322D01*
X39388751Y-116036645D01*
X39257157Y-115738302D01*
X39253027Y-115727625D01*
X39201164Y-115572611D01*
X39162727Y-115459970D01*
X39162723Y-115459962D01*
X39162722Y-115459959D01*
X39055316Y-115247598D01*
X39055314Y-115247594D01*
X38915716Y-115054841D01*
X38833173Y-114969097D01*
X38587146Y-114723070D01*
X40651390Y-114723070D01*
X40690725Y-114971426D01*
X40768432Y-115210580D01*
X40882592Y-115434629D01*
X41030387Y-115638053D01*
X41030391Y-115638058D01*
X41208201Y-115815868D01*
X41208206Y-115815872D01*
X41385644Y-115944787D01*
X41411634Y-115963670D01*
X41554398Y-116036412D01*
X41635679Y-116077827D01*
X41635681Y-116077827D01*
X41635684Y-116077829D01*
X41763873Y-116119480D01*
X41874833Y-116155534D01*
X42123190Y-116194870D01*
X42374653Y-116194870D01*
X42374658Y-116194870D01*
X42623014Y-116155534D01*
X42862164Y-116077829D01*
X43086214Y-115963670D01*
X43289648Y-115815867D01*
X43467455Y-115638060D01*
X43615258Y-115434626D01*
X43729417Y-115210576D01*
X43807122Y-114971426D01*
X43846458Y-114723065D01*
X43848924Y-114597336D01*
X43846458Y-114471607D01*
X43807122Y-114223246D01*
X43729417Y-113984096D01*
X43729415Y-113984093D01*
X43729415Y-113984091D01*
X43661346Y-113850499D01*
X43615258Y-113760046D01*
X43596375Y-113734056D01*
X43467460Y-113556618D01*
X43467456Y-113556613D01*
X43289646Y-113378803D01*
X43289641Y-113378799D01*
X43086217Y-113231004D01*
X43086216Y-113231003D01*
X43086214Y-113231002D01*
X43016246Y-113195351D01*
X42862168Y-113116844D01*
X42623014Y-113039137D01*
X42374658Y-112999802D01*
X42374653Y-112999802D01*
X42123195Y-112999802D01*
X42123190Y-112999802D01*
X41874833Y-113039137D01*
X41635679Y-113116844D01*
X41411630Y-113231004D01*
X41208206Y-113378799D01*
X41208201Y-113378803D01*
X41030391Y-113556613D01*
X41030387Y-113556618D01*
X40882592Y-113760042D01*
X40768432Y-113984091D01*
X40690725Y-114223245D01*
X40651390Y-114471601D01*
X40651390Y-114723070D01*
X38587146Y-114723070D01*
X36078816Y-112214740D01*
X43829500Y-112214740D01*
X43854446Y-112404214D01*
X43859452Y-112442237D01*
X43859453Y-112442239D01*
X43918842Y-112663886D01*
X44006650Y-112875875D01*
X44006657Y-112875889D01*
X44121392Y-113074616D01*
X44261081Y-113256660D01*
X44261089Y-113256669D01*
X44423330Y-113418910D01*
X44423338Y-113418917D01*
X44605382Y-113558606D01*
X44605385Y-113558607D01*
X44605388Y-113558610D01*
X44804112Y-113673343D01*
X44804117Y-113673345D01*
X44804123Y-113673348D01*
X44895480Y-113711189D01*
X45016113Y-113761157D01*
X45237762Y-113820547D01*
X45465266Y-113850499D01*
X47865266Y-113850499D01*
X47865267Y-113850499D01*
X55654556Y-113850499D01*
X55721595Y-113870184D01*
X55767350Y-113922988D01*
X55777294Y-113992146D01*
X55748269Y-114055702D01*
X55742237Y-114062180D01*
X52761084Y-117043331D01*
X52761078Y-117043338D01*
X52621396Y-117225376D01*
X52621390Y-117225386D01*
X52506656Y-117424109D01*
X52506651Y-117424118D01*
X52418842Y-117636110D01*
X52397920Y-117714192D01*
X52359453Y-117857758D01*
X52359450Y-117857769D01*
X52329501Y-118085263D01*
X52329501Y-118314732D01*
X52359450Y-118542226D01*
X52359451Y-118542230D01*
X52359452Y-118542237D01*
X52359453Y-118542239D01*
X52418842Y-118763885D01*
X52506651Y-118975877D01*
X52506656Y-118975886D01*
X52621390Y-119174610D01*
X52621392Y-119174613D01*
X52621396Y-119174619D01*
X52761078Y-119356657D01*
X52761084Y-119356664D01*
X52923333Y-119518913D01*
X52923340Y-119518919D01*
X53105378Y-119658601D01*
X53105382Y-119658603D01*
X53105388Y-119658608D01*
X53304112Y-119773342D01*
X53304115Y-119773343D01*
X53304120Y-119773346D01*
X53418489Y-119820719D01*
X53516113Y-119861156D01*
X53737761Y-119920546D01*
X53898435Y-119941698D01*
X53965265Y-119950497D01*
X53965266Y-119950497D01*
X54194735Y-119950497D01*
X54246389Y-119943696D01*
X54422239Y-119920546D01*
X54643887Y-119861156D01*
X54810538Y-119792126D01*
X54855879Y-119773346D01*
X54855880Y-119773344D01*
X54855888Y-119773342D01*
X55054612Y-119658608D01*
X55236661Y-119518918D01*
X58281279Y-116474297D01*
X58281297Y-116474282D01*
X60868761Y-113886818D01*
X60930084Y-113853333D01*
X60956442Y-113850499D01*
X63365267Y-113850499D01*
X63365268Y-113850499D01*
X63594736Y-113850499D01*
X71154558Y-113850499D01*
X71221597Y-113870184D01*
X71267352Y-113922988D01*
X71277296Y-113992146D01*
X71248271Y-114055702D01*
X71242239Y-114062180D01*
X68261085Y-117043330D01*
X68261079Y-117043337D01*
X68121396Y-117225376D01*
X68121385Y-117225392D01*
X68006659Y-117424102D01*
X68006651Y-117424118D01*
X67918841Y-117636112D01*
X67859453Y-117857755D01*
X67859450Y-117857768D01*
X67829501Y-118085263D01*
X67829501Y-118314731D01*
X67859449Y-118542226D01*
X67859451Y-118542236D01*
X67859452Y-118542239D01*
X67918844Y-118763891D01*
X68006650Y-118975876D01*
X68006655Y-118975885D01*
X68121390Y-119174610D01*
X68121392Y-119174613D01*
X68121396Y-119174619D01*
X68261078Y-119356657D01*
X68261084Y-119356664D01*
X68423332Y-119518912D01*
X68423339Y-119518918D01*
X68427920Y-119522433D01*
X68605387Y-119658608D01*
X68605394Y-119658612D01*
X68804104Y-119773338D01*
X68804120Y-119773346D01*
X68936321Y-119828105D01*
X69016113Y-119861156D01*
X69237760Y-119920546D01*
X69398434Y-119941698D01*
X69465265Y-119950497D01*
X69465266Y-119950497D01*
X69694734Y-119950497D01*
X69727233Y-119946218D01*
X69922238Y-119920547D01*
X70143886Y-119861156D01*
X70201081Y-119837465D01*
X70355878Y-119773347D01*
X70355879Y-119773345D01*
X70355887Y-119773343D01*
X70554612Y-119658608D01*
X70736661Y-119518918D01*
X73948920Y-116306661D01*
X73948922Y-116306659D01*
X76368761Y-113886817D01*
X76430084Y-113853333D01*
X76456442Y-113850499D01*
X78194728Y-113850499D01*
X78194735Y-113850499D01*
X78422239Y-113820547D01*
X78643888Y-113761157D01*
X78855889Y-113673343D01*
X79054613Y-113558610D01*
X79236662Y-113418918D01*
X79236666Y-113418913D01*
X79236671Y-113418910D01*
X79398912Y-113256669D01*
X79398915Y-113256664D01*
X79398920Y-113256660D01*
X79538612Y-113074611D01*
X79653345Y-112875887D01*
X79741159Y-112663886D01*
X79800549Y-112442237D01*
X79830501Y-112214733D01*
X79830501Y-111985265D01*
X79800549Y-111757761D01*
X79741159Y-111536112D01*
X79653345Y-111324111D01*
X79538612Y-111125387D01*
X79538609Y-111125384D01*
X79538608Y-111125381D01*
X79398919Y-110943337D01*
X79398912Y-110943329D01*
X79236671Y-110781088D01*
X79236662Y-110781080D01*
X79054618Y-110641391D01*
X78855891Y-110526656D01*
X78855877Y-110526649D01*
X78643888Y-110438841D01*
X78422239Y-110379451D01*
X78384216Y-110374445D01*
X78194742Y-110349499D01*
X78194735Y-110349499D01*
X75794733Y-110349499D01*
X65354500Y-110349499D01*
X65287461Y-110329814D01*
X65241706Y-110277010D01*
X65230500Y-110225499D01*
X65230500Y-109695270D01*
X65230499Y-109695256D01*
X65229057Y-109684310D01*
X65200548Y-109467760D01*
X65141158Y-109246111D01*
X65091190Y-109125478D01*
X65053349Y-109034121D01*
X65053342Y-109034106D01*
X64977588Y-108902896D01*
X64938611Y-108835386D01*
X64798918Y-108653337D01*
X64636660Y-108491079D01*
X64636659Y-108491078D01*
X64636657Y-108491076D01*
X64454610Y-108351387D01*
X64255890Y-108236656D01*
X64255875Y-108236649D01*
X64043886Y-108148841D01*
X63822237Y-108089451D01*
X63784214Y-108084445D01*
X63594740Y-108059499D01*
X63594733Y-108059499D01*
X63365265Y-108059499D01*
X63365257Y-108059499D01*
X63148714Y-108088008D01*
X63137761Y-108089451D01*
X63044075Y-108114553D01*
X62916111Y-108148841D01*
X62704122Y-108236649D01*
X62704107Y-108236656D01*
X62505393Y-108351384D01*
X62505376Y-108351395D01*
X62323342Y-108491077D01*
X62323340Y-108491079D01*
X62161077Y-108653341D01*
X62021388Y-108835388D01*
X61906657Y-109034108D01*
X61906650Y-109034123D01*
X61818842Y-109246112D01*
X61818842Y-109246113D01*
X61759453Y-109467761D01*
X61759451Y-109467770D01*
X61729500Y-109695258D01*
X61729500Y-110225499D01*
X61709815Y-110292538D01*
X61657011Y-110338293D01*
X61605500Y-110349499D01*
X49854500Y-110349499D01*
X49787461Y-110329814D01*
X49741706Y-110277010D01*
X49730500Y-110225499D01*
X49730500Y-109695271D01*
X49730499Y-109695257D01*
X49729057Y-109684311D01*
X49700548Y-109467761D01*
X49641158Y-109246112D01*
X49564930Y-109062082D01*
X49553349Y-109034122D01*
X49553344Y-109034112D01*
X49553344Y-109034111D01*
X49438611Y-108835387D01*
X49438608Y-108835384D01*
X49438607Y-108835381D01*
X49298918Y-108653337D01*
X49298911Y-108653329D01*
X49136670Y-108491088D01*
X49136661Y-108491080D01*
X48954617Y-108351391D01*
X48755890Y-108236656D01*
X48755876Y-108236649D01*
X48543887Y-108148841D01*
X48322238Y-108089451D01*
X48284215Y-108084445D01*
X48094741Y-108059499D01*
X48094734Y-108059499D01*
X47865266Y-108059499D01*
X47865258Y-108059499D01*
X47648715Y-108088008D01*
X47637762Y-108089451D01*
X47544076Y-108114553D01*
X47416112Y-108148841D01*
X47204123Y-108236649D01*
X47204109Y-108236656D01*
X47005382Y-108351391D01*
X46823338Y-108491080D01*
X46661081Y-108653337D01*
X46521392Y-108835381D01*
X46406657Y-109034108D01*
X46406650Y-109034122D01*
X46318842Y-109246111D01*
X46284554Y-109374075D01*
X46259453Y-109467760D01*
X46259451Y-109467769D01*
X46229500Y-109695257D01*
X46229500Y-110225499D01*
X46209815Y-110292538D01*
X46157011Y-110338293D01*
X46105500Y-110349499D01*
X45465258Y-110349499D01*
X45248715Y-110378008D01*
X45237762Y-110379451D01*
X45144076Y-110404553D01*
X45016112Y-110438841D01*
X44804123Y-110526649D01*
X44804109Y-110526656D01*
X44605382Y-110641391D01*
X44423338Y-110781080D01*
X44261081Y-110943337D01*
X44121392Y-111125381D01*
X44006657Y-111324108D01*
X44006650Y-111324122D01*
X43918842Y-111536111D01*
X43859453Y-111757758D01*
X43859451Y-111757769D01*
X43829500Y-111985257D01*
X43829500Y-112214740D01*
X36078816Y-112214740D01*
X32577646Y-108713570D01*
X32576425Y-108712332D01*
X32456076Y-108588560D01*
X32448033Y-108579432D01*
X32377581Y-108491088D01*
X32232254Y-108308852D01*
X32224209Y-108297514D01*
X32185965Y-108236649D01*
X32040547Y-108005216D01*
X32033822Y-107993047D01*
X31948805Y-107816508D01*
X31884037Y-107682015D01*
X31878728Y-107669200D01*
X31764701Y-107343331D01*
X31760857Y-107329986D01*
X31750211Y-107283342D01*
X31684035Y-106993412D01*
X31681711Y-106979735D01*
X31643056Y-106636670D01*
X31642277Y-106622820D01*
X31642277Y-106575909D01*
X33242202Y-106575909D01*
X33281537Y-106824265D01*
X33359244Y-107063419D01*
X33448986Y-107239546D01*
X33473402Y-107287465D01*
X33621205Y-107490898D01*
X33799012Y-107668705D01*
X34002445Y-107816508D01*
X34108300Y-107870443D01*
X34226490Y-107930665D01*
X34226492Y-107930665D01*
X34226495Y-107930667D01*
X34354684Y-107972318D01*
X34465644Y-108008372D01*
X34714001Y-108047708D01*
X34965464Y-108047708D01*
X34965469Y-108047708D01*
X35213825Y-108008372D01*
X35260990Y-107993047D01*
X35452975Y-107930667D01*
X35677025Y-107816508D01*
X35880458Y-107668705D01*
X36058265Y-107490898D01*
X36206068Y-107287465D01*
X36320227Y-107063415D01*
X36397932Y-106824265D01*
X36437268Y-106575904D01*
X36439734Y-106450175D01*
X36437268Y-106324446D01*
X36397932Y-106076085D01*
X36320227Y-105836935D01*
X36320225Y-105836932D01*
X36320225Y-105836930D01*
X36224114Y-105648303D01*
X36206068Y-105612885D01*
X36058265Y-105409452D01*
X35880458Y-105231645D01*
X35677025Y-105083842D01*
X35452979Y-104969684D01*
X35213825Y-104891977D01*
X34965469Y-104852642D01*
X34965464Y-104852642D01*
X34714006Y-104852642D01*
X34714001Y-104852642D01*
X34465644Y-104891977D01*
X34226490Y-104969684D01*
X34002444Y-105083842D01*
X33926725Y-105138856D01*
X33799012Y-105231645D01*
X33799010Y-105231647D01*
X33799009Y-105231647D01*
X33621207Y-105409449D01*
X33621207Y-105409450D01*
X33621205Y-105409452D01*
X33578824Y-105467784D01*
X33473402Y-105612884D01*
X33359244Y-105836930D01*
X33281537Y-106076084D01*
X33242202Y-106324440D01*
X33242202Y-106575909D01*
X31642277Y-106575909D01*
X31642276Y-106277589D01*
X31643056Y-106263707D01*
X31647502Y-106224244D01*
X31681704Y-105920670D01*
X31684033Y-105906967D01*
X31704089Y-105819092D01*
X31760847Y-105570408D01*
X31764692Y-105557060D01*
X31878710Y-105231203D01*
X31884021Y-105218380D01*
X32033806Y-104907340D01*
X32040531Y-104895173D01*
X32224190Y-104602871D01*
X32232228Y-104591542D01*
X32448018Y-104320943D01*
X32456046Y-104311832D01*
X32576466Y-104187977D01*
X32577550Y-104186878D01*
X34007533Y-102756895D01*
X38244576Y-102756895D01*
X38276682Y-102959608D01*
X38277830Y-102966852D01*
X38343519Y-103169021D01*
X38440025Y-103358425D01*
X38564972Y-103530400D01*
X38892061Y-103857489D01*
X39064036Y-103982436D01*
X39253440Y-104078942D01*
X39455609Y-104144631D01*
X39665565Y-104177885D01*
X39665566Y-104177885D01*
X39878138Y-104177885D01*
X39878139Y-104177885D01*
X40088095Y-104144631D01*
X40290264Y-104078942D01*
X40479668Y-103982436D01*
X40651643Y-103857489D01*
X40801956Y-103707176D01*
X40926903Y-103535201D01*
X41023409Y-103345797D01*
X41089098Y-103143628D01*
X41107429Y-103027885D01*
X41137356Y-102964757D01*
X41196668Y-102927825D01*
X41266530Y-102928823D01*
X41317581Y-102959607D01*
X45502491Y-107144518D01*
X45693271Y-107283127D01*
X45693568Y-107283343D01*
X45811301Y-107343331D01*
X45904004Y-107390566D01*
X45904006Y-107390566D01*
X45904009Y-107390568D01*
X46024413Y-107429689D01*
X46128632Y-107463553D01*
X46361904Y-107500500D01*
X46361909Y-107500500D01*
X48595021Y-107500500D01*
X48650114Y-107513411D01*
X48813225Y-107594307D01*
X48938575Y-107625480D01*
X48999291Y-107640580D01*
X48999292Y-107640580D01*
X48999296Y-107640581D01*
X49042343Y-107643500D01*
X49957656Y-107643499D01*
X50000704Y-107640581D01*
X50186775Y-107594307D01*
X50349887Y-107513410D01*
X50404981Y-107500499D01*
X51518323Y-107500499D01*
X53175018Y-107500499D01*
X53230113Y-107513411D01*
X53393225Y-107594307D01*
X53518575Y-107625480D01*
X53579291Y-107640580D01*
X53579292Y-107640580D01*
X53579296Y-107640581D01*
X53622343Y-107643500D01*
X54537656Y-107643499D01*
X54580704Y-107640581D01*
X54766775Y-107594307D01*
X54938547Y-107509116D01*
X55087990Y-107388990D01*
X55208116Y-107239547D01*
X55293307Y-107067775D01*
X55339581Y-106881704D01*
X55341845Y-106848313D01*
X55362435Y-106791600D01*
X55360793Y-106790594D01*
X55363331Y-106786448D01*
X55363343Y-106786433D01*
X55470568Y-106575993D01*
X55543553Y-106351369D01*
X55554112Y-106284700D01*
X55584041Y-106221566D01*
X55643352Y-106184634D01*
X55713214Y-106185632D01*
X55771447Y-106224241D01*
X55794516Y-106265779D01*
X55827820Y-106368279D01*
X55827822Y-106368283D01*
X55922468Y-106532215D01*
X56016520Y-106636670D01*
X56049130Y-106672887D01*
X56202266Y-106784147D01*
X56202271Y-106784150D01*
X56375193Y-106861141D01*
X56375198Y-106861143D01*
X56560355Y-106900499D01*
X56560356Y-106900499D01*
X56749645Y-106900499D01*
X56749647Y-106900499D01*
X56934804Y-106861143D01*
X57107731Y-106784150D01*
X57200616Y-106716665D01*
X57266420Y-106693185D01*
X57334474Y-106709010D01*
X57383169Y-106759115D01*
X57397500Y-106816978D01*
X57397500Y-106838653D01*
X57397501Y-106838660D01*
X57400418Y-106881701D01*
X57400418Y-106881702D01*
X57446694Y-107067778D01*
X57531881Y-107239543D01*
X57531883Y-107239546D01*
X57652009Y-107388989D01*
X57652010Y-107388990D01*
X57801453Y-107509116D01*
X57801456Y-107509118D01*
X57967959Y-107591695D01*
X57973225Y-107594307D01*
X58123013Y-107631558D01*
X58159291Y-107640580D01*
X58159292Y-107640580D01*
X58159296Y-107640581D01*
X58202343Y-107643500D01*
X59117656Y-107643499D01*
X59160704Y-107640581D01*
X59346775Y-107594307D01*
X59518547Y-107509116D01*
X59667990Y-107388990D01*
X59788116Y-107239547D01*
X59873307Y-107067775D01*
X59919581Y-106881704D01*
X59922500Y-106838657D01*
X59922500Y-106118098D01*
X63499500Y-106118098D01*
X63536446Y-106351369D01*
X63609433Y-106575997D01*
X63681108Y-106716665D01*
X63716656Y-106786433D01*
X63716661Y-106786441D01*
X63719204Y-106790591D01*
X63717583Y-106791584D01*
X63738155Y-106848317D01*
X63740418Y-106881701D01*
X63740418Y-106881702D01*
X63786694Y-107067778D01*
X63871881Y-107239543D01*
X63871883Y-107239546D01*
X63992009Y-107388989D01*
X63992010Y-107388990D01*
X64141453Y-107509116D01*
X64141456Y-107509118D01*
X64307959Y-107591695D01*
X64313225Y-107594307D01*
X64463013Y-107631558D01*
X64499291Y-107640580D01*
X64499292Y-107640580D01*
X64499296Y-107640581D01*
X64542343Y-107643500D01*
X65457656Y-107643499D01*
X65500704Y-107640581D01*
X65686775Y-107594307D01*
X65849887Y-107513410D01*
X65904981Y-107500499D01*
X67018323Y-107500499D01*
X68675018Y-107500499D01*
X68730113Y-107513411D01*
X68893225Y-107594307D01*
X69018575Y-107625480D01*
X69079291Y-107640580D01*
X69079292Y-107640580D01*
X69079296Y-107640581D01*
X69122343Y-107643500D01*
X70037656Y-107643499D01*
X70080704Y-107640581D01*
X70266775Y-107594307D01*
X70438547Y-107509116D01*
X70587990Y-107388990D01*
X70708116Y-107239547D01*
X70793307Y-107067775D01*
X70839581Y-106881704D01*
X70841845Y-106848313D01*
X70862435Y-106791600D01*
X70860793Y-106790594D01*
X70863331Y-106786449D01*
X70863343Y-106786433D01*
X70914919Y-106685210D01*
X70939652Y-106636670D01*
X70970566Y-106575997D01*
X70970566Y-106575996D01*
X70970568Y-106575993D01*
X71043553Y-106351369D01*
X71054112Y-106284701D01*
X71084041Y-106221568D01*
X71143352Y-106184636D01*
X71213215Y-106185634D01*
X71271448Y-106224244D01*
X71294516Y-106265782D01*
X71327818Y-106368276D01*
X71327821Y-106368283D01*
X71422467Y-106532215D01*
X71516519Y-106636670D01*
X71549129Y-106672887D01*
X71702265Y-106784147D01*
X71702270Y-106784150D01*
X71875192Y-106861141D01*
X71875197Y-106861143D01*
X72060354Y-106900499D01*
X72060355Y-106900499D01*
X72249644Y-106900499D01*
X72249646Y-106900499D01*
X72434803Y-106861143D01*
X72607730Y-106784150D01*
X72700616Y-106716663D01*
X72766420Y-106693185D01*
X72834474Y-106709010D01*
X72883169Y-106759116D01*
X72897500Y-106816978D01*
X72897500Y-106838653D01*
X72897501Y-106838660D01*
X72900418Y-106881701D01*
X72900418Y-106881702D01*
X72946694Y-107067778D01*
X73031881Y-107239543D01*
X73031883Y-107239546D01*
X73152009Y-107388989D01*
X73152010Y-107388990D01*
X73301453Y-107509116D01*
X73301456Y-107509118D01*
X73467959Y-107591695D01*
X73473225Y-107594307D01*
X73623013Y-107631558D01*
X73659291Y-107640580D01*
X73659292Y-107640580D01*
X73659296Y-107640581D01*
X73702343Y-107643500D01*
X74617656Y-107643499D01*
X74660704Y-107640581D01*
X74846775Y-107594307D01*
X75018547Y-107509116D01*
X75167990Y-107388990D01*
X75288116Y-107239547D01*
X75373307Y-107067775D01*
X75419581Y-106881704D01*
X75422500Y-106838657D01*
X75422499Y-105161344D01*
X75419581Y-105118296D01*
X75373307Y-104932225D01*
X75353346Y-104891977D01*
X75288118Y-104760456D01*
X75288116Y-104760453D01*
X75167990Y-104611010D01*
X75167989Y-104611009D01*
X75018546Y-104490883D01*
X75018543Y-104490881D01*
X74846778Y-104405694D01*
X74846776Y-104405693D01*
X74846775Y-104405693D01*
X74808939Y-104396283D01*
X74660708Y-104359419D01*
X74636105Y-104357751D01*
X74617657Y-104356500D01*
X74617654Y-104356500D01*
X73702343Y-104356500D01*
X73702340Y-104356501D01*
X73659298Y-104359418D01*
X73659297Y-104359418D01*
X73473221Y-104405694D01*
X73301456Y-104490881D01*
X73301453Y-104490883D01*
X73152010Y-104611009D01*
X73152009Y-104611010D01*
X73031883Y-104760453D01*
X73031881Y-104760456D01*
X72946694Y-104932221D01*
X72900419Y-105118291D01*
X72897500Y-105161345D01*
X72897500Y-105183014D01*
X72877815Y-105250053D01*
X72825011Y-105295808D01*
X72755853Y-105305752D01*
X72700615Y-105283332D01*
X72607734Y-105215850D01*
X72607729Y-105215847D01*
X72434807Y-105138856D01*
X72434802Y-105138854D01*
X72289001Y-105107864D01*
X72249646Y-105099499D01*
X72060354Y-105099499D01*
X72027897Y-105106397D01*
X71875197Y-105138854D01*
X71875192Y-105138856D01*
X71702270Y-105215847D01*
X71702265Y-105215850D01*
X71549129Y-105327110D01*
X71422466Y-105467784D01*
X71327821Y-105631714D01*
X71327819Y-105631718D01*
X71322431Y-105648303D01*
X71282993Y-105705978D01*
X71218634Y-105733176D01*
X71149788Y-105721261D01*
X71098312Y-105674016D01*
X71080500Y-105609984D01*
X71080500Y-102881902D01*
X71043553Y-102648631D01*
X70970566Y-102424003D01*
X70932859Y-102350000D01*
X81824724Y-102350000D01*
X81843794Y-102567973D01*
X81843794Y-102567977D01*
X81900423Y-102779320D01*
X81900425Y-102779324D01*
X81900426Y-102779328D01*
X81946662Y-102878482D01*
X81992898Y-102977636D01*
X81992899Y-102977637D01*
X82118403Y-103156875D01*
X82273124Y-103311596D01*
X82452362Y-103437100D01*
X82650671Y-103529573D01*
X82650677Y-103529574D01*
X82650678Y-103529575D01*
X82671675Y-103535201D01*
X82862024Y-103586205D01*
X83044927Y-103602206D01*
X83079999Y-103605275D01*
X83080001Y-103605275D01*
X83080003Y-103605275D01*
X83108255Y-103602803D01*
X83297978Y-103586205D01*
X83509331Y-103529573D01*
X83707640Y-103437100D01*
X83886878Y-103311596D01*
X84041599Y-103156875D01*
X84167103Y-102977637D01*
X84259576Y-102779328D01*
X84316208Y-102567975D01*
X84335278Y-102349998D01*
X84333910Y-102334366D01*
X84323342Y-102213567D01*
X84316208Y-102132021D01*
X84259576Y-101920668D01*
X84167103Y-101722360D01*
X84167101Y-101722357D01*
X84167100Y-101722355D01*
X84041600Y-101543122D01*
X83994036Y-101495558D01*
X83886878Y-101388400D01*
X83707640Y-101262896D01*
X83707641Y-101262896D01*
X83707639Y-101262895D01*
X83608485Y-101216659D01*
X83509331Y-101170423D01*
X83509327Y-101170422D01*
X83509323Y-101170420D01*
X83297978Y-101113791D01*
X83080003Y-101094721D01*
X83079999Y-101094721D01*
X82934683Y-101107434D01*
X82862024Y-101113791D01*
X82862021Y-101113791D01*
X82650678Y-101170420D01*
X82650669Y-101170424D01*
X82452362Y-101262896D01*
X82452358Y-101262898D01*
X82273122Y-101388400D01*
X82118403Y-101543119D01*
X81992901Y-101722355D01*
X81992899Y-101722359D01*
X81900427Y-101920666D01*
X81900423Y-101920675D01*
X81843794Y-102132018D01*
X81843794Y-102132022D01*
X81824724Y-102349995D01*
X81824724Y-102350000D01*
X70932859Y-102350000D01*
X70863342Y-102213566D01*
X70724517Y-102022490D01*
X70557510Y-101855483D01*
X70366433Y-101716657D01*
X70155996Y-101609433D01*
X69931368Y-101536446D01*
X69698097Y-101499500D01*
X69698092Y-101499500D01*
X69461908Y-101499500D01*
X69461903Y-101499500D01*
X69228631Y-101536446D01*
X69004003Y-101609433D01*
X68793566Y-101716657D01*
X68719025Y-101770815D01*
X68602490Y-101855483D01*
X68602488Y-101855485D01*
X68602487Y-101855485D01*
X68435485Y-102022487D01*
X68435485Y-102022488D01*
X68435483Y-102022490D01*
X68375862Y-102104550D01*
X68296657Y-102213566D01*
X68189433Y-102424003D01*
X68116446Y-102648631D01*
X68079500Y-102881902D01*
X68079500Y-104375499D01*
X68059815Y-104442538D01*
X68007011Y-104488293D01*
X67955500Y-104499499D01*
X66624500Y-104499499D01*
X66557461Y-104479814D01*
X66511706Y-104427010D01*
X66500500Y-104375499D01*
X66500500Y-102881902D01*
X66463553Y-102648631D01*
X66390566Y-102424003D01*
X66283342Y-102213566D01*
X66144517Y-102022490D01*
X65977510Y-101855483D01*
X65786433Y-101716657D01*
X65575996Y-101609433D01*
X65351368Y-101536446D01*
X65118097Y-101499500D01*
X65118092Y-101499500D01*
X64881908Y-101499500D01*
X64881903Y-101499500D01*
X64648631Y-101536446D01*
X64424003Y-101609433D01*
X64213566Y-101716657D01*
X64139025Y-101770815D01*
X64022490Y-101855483D01*
X64022488Y-101855485D01*
X64022487Y-101855485D01*
X63855485Y-102022487D01*
X63855485Y-102022488D01*
X63855483Y-102022490D01*
X63795862Y-102104550D01*
X63716657Y-102213566D01*
X63609433Y-102424003D01*
X63536446Y-102648631D01*
X63499500Y-102881902D01*
X63499500Y-106118098D01*
X59922500Y-106118098D01*
X59922499Y-105161344D01*
X59919581Y-105118296D01*
X59873307Y-104932225D01*
X59853346Y-104891977D01*
X59788118Y-104760456D01*
X59788116Y-104760453D01*
X59667990Y-104611010D01*
X59667989Y-104611009D01*
X59518546Y-104490883D01*
X59518543Y-104490881D01*
X59346778Y-104405694D01*
X59346776Y-104405693D01*
X59346775Y-104405693D01*
X59308939Y-104396283D01*
X59160708Y-104359419D01*
X59136105Y-104357751D01*
X59117657Y-104356500D01*
X59117654Y-104356500D01*
X58202343Y-104356500D01*
X58202340Y-104356501D01*
X58159298Y-104359418D01*
X58159297Y-104359418D01*
X57973221Y-104405694D01*
X57801456Y-104490881D01*
X57801453Y-104490883D01*
X57652010Y-104611009D01*
X57652009Y-104611010D01*
X57531883Y-104760453D01*
X57531881Y-104760456D01*
X57446694Y-104932221D01*
X57400419Y-105118291D01*
X57397500Y-105161345D01*
X57397500Y-105183013D01*
X57377815Y-105250052D01*
X57325011Y-105295807D01*
X57255853Y-105305751D01*
X57200615Y-105283331D01*
X57107735Y-105215850D01*
X57107730Y-105215847D01*
X56934808Y-105138856D01*
X56934803Y-105138854D01*
X56789002Y-105107864D01*
X56749647Y-105099499D01*
X56560355Y-105099499D01*
X56527898Y-105106397D01*
X56375198Y-105138854D01*
X56375193Y-105138856D01*
X56202271Y-105215847D01*
X56202266Y-105215850D01*
X56049130Y-105327110D01*
X55922467Y-105467784D01*
X55827822Y-105631714D01*
X55827820Y-105631718D01*
X55794516Y-105734219D01*
X55755078Y-105791894D01*
X55690719Y-105819092D01*
X55621873Y-105807177D01*
X55570397Y-105759933D01*
X55554112Y-105715298D01*
X55543553Y-105648632D01*
X55490400Y-105485046D01*
X55470568Y-105424009D01*
X55470566Y-105424006D01*
X55470566Y-105424004D01*
X55410313Y-105305751D01*
X55363343Y-105213567D01*
X55363339Y-105213562D01*
X55363338Y-105213559D01*
X55360797Y-105209412D01*
X55362426Y-105208413D01*
X55341844Y-105151681D01*
X55340975Y-105138855D01*
X55339581Y-105118296D01*
X55293307Y-104932225D01*
X55273346Y-104891977D01*
X55208118Y-104760456D01*
X55208116Y-104760453D01*
X55087990Y-104611010D01*
X55087989Y-104611009D01*
X54938546Y-104490883D01*
X54938543Y-104490881D01*
X54766778Y-104405694D01*
X54766776Y-104405693D01*
X54766775Y-104405693D01*
X54728939Y-104396283D01*
X54580708Y-104359419D01*
X54556105Y-104357751D01*
X54537657Y-104356500D01*
X54537654Y-104356500D01*
X53622343Y-104356500D01*
X53622340Y-104356501D01*
X53579298Y-104359418D01*
X53579297Y-104359418D01*
X53393223Y-104405693D01*
X53230117Y-104486587D01*
X53175022Y-104499499D01*
X50404977Y-104499499D01*
X50349883Y-104486587D01*
X50229757Y-104427010D01*
X50186776Y-104405693D01*
X50000708Y-104359419D01*
X49976105Y-104357751D01*
X49957657Y-104356500D01*
X49957654Y-104356500D01*
X49042343Y-104356500D01*
X49042340Y-104356501D01*
X48999298Y-104359418D01*
X48999297Y-104359418D01*
X48813223Y-104405693D01*
X48700939Y-104461381D01*
X48650114Y-104486588D01*
X48595021Y-104499500D01*
X47152891Y-104499500D01*
X47085852Y-104479815D01*
X47065210Y-104463181D01*
X43611773Y-101009745D01*
X43578288Y-100948422D01*
X43583272Y-100878730D01*
X43625144Y-100822797D01*
X43643795Y-100811259D01*
X43722601Y-100771682D01*
X43802708Y-100706425D01*
X44721958Y-99787173D01*
X44787217Y-99707066D01*
X44865954Y-99550285D01*
X44906415Y-99379572D01*
X44906415Y-99204131D01*
X44897908Y-99168240D01*
X44865955Y-99033420D01*
X44855376Y-99012356D01*
X44787217Y-98876637D01*
X44787213Y-98876632D01*
X44787212Y-98876630D01*
X44721969Y-98796540D01*
X44721968Y-98796539D01*
X44721960Y-98796529D01*
X43625932Y-97700503D01*
X43545824Y-97635244D01*
X43467082Y-97595699D01*
X43389040Y-97556505D01*
X43218337Y-97516047D01*
X43218332Y-97516046D01*
X43218330Y-97516046D01*
X43042889Y-97516046D01*
X43042887Y-97516046D01*
X43042881Y-97516047D01*
X42872178Y-97556505D01*
X42767655Y-97608998D01*
X42715395Y-97635244D01*
X42715394Y-97635245D01*
X42715388Y-97635249D01*
X42635298Y-97700492D01*
X42635280Y-97700508D01*
X41716041Y-98619749D01*
X41716032Y-98619759D01*
X41650778Y-98699861D01*
X41572040Y-98856643D01*
X41531582Y-99027346D01*
X41531581Y-99027357D01*
X41531581Y-99202791D01*
X41531582Y-99202802D01*
X41558917Y-99318133D01*
X41555224Y-99387905D01*
X41514396Y-99444604D01*
X41449395Y-99470229D01*
X41438260Y-99470730D01*
X41333134Y-99470730D01*
X41099862Y-99507676D01*
X40875234Y-99580663D01*
X40664796Y-99687887D01*
X40473719Y-99826714D01*
X40306715Y-99993718D01*
X40167888Y-100184795D01*
X40060664Y-100395233D01*
X39987677Y-100619861D01*
X39950731Y-100853132D01*
X39950731Y-101089327D01*
X39964692Y-101177475D01*
X39955737Y-101246769D01*
X39910741Y-101300221D01*
X39843989Y-101320860D01*
X39822821Y-101319346D01*
X39755932Y-101308752D01*
X39701363Y-101300109D01*
X39488789Y-101300109D01*
X39440118Y-101307817D01*
X39278836Y-101333362D01*
X39076661Y-101399053D01*
X38887259Y-101495558D01*
X38715282Y-101620507D01*
X38564974Y-101770815D01*
X38440025Y-101942792D01*
X38343520Y-102132194D01*
X38277829Y-102334369D01*
X38244576Y-102544322D01*
X38244576Y-102756895D01*
X34007533Y-102756895D01*
X39408142Y-97356285D01*
X50229500Y-97356285D01*
X50262144Y-97562394D01*
X50262754Y-97566242D01*
X50306378Y-97700503D01*
X50328444Y-97768413D01*
X50424951Y-97957819D01*
X50549890Y-98129785D01*
X50700213Y-98280108D01*
X50872179Y-98405047D01*
X50872181Y-98405048D01*
X50872184Y-98405050D01*
X51061588Y-98501556D01*
X51263757Y-98567245D01*
X51473713Y-98600499D01*
X51473714Y-98600499D01*
X51686286Y-98600499D01*
X51686287Y-98600499D01*
X51896243Y-98567245D01*
X52098412Y-98501556D01*
X52287816Y-98405050D01*
X52309789Y-98389085D01*
X52459786Y-98280108D01*
X52459788Y-98280105D01*
X52459792Y-98280103D01*
X52529676Y-98210219D01*
X58679501Y-98210219D01*
X58713986Y-98427950D01*
X58782104Y-98637601D01*
X58782105Y-98637604D01*
X58882188Y-98834023D01*
X59011753Y-99012356D01*
X59011757Y-99012361D01*
X59167637Y-99168241D01*
X59167642Y-99168245D01*
X59217040Y-99204134D01*
X59345979Y-99297813D01*
X59474376Y-99363235D01*
X59542394Y-99397893D01*
X59542397Y-99397894D01*
X59647222Y-99431953D01*
X59752050Y-99466013D01*
X59969779Y-99500498D01*
X59969780Y-99500498D01*
X60190222Y-99500498D01*
X60190223Y-99500498D01*
X60407952Y-99466013D01*
X60617607Y-99397893D01*
X60814023Y-99297813D01*
X60992366Y-99168240D01*
X61148243Y-99012363D01*
X61277816Y-98834020D01*
X61377896Y-98637604D01*
X61446016Y-98427949D01*
X61480501Y-98210220D01*
X61480501Y-97989776D01*
X61446016Y-97772047D01*
X61377896Y-97562392D01*
X61377896Y-97562391D01*
X61343238Y-97494373D01*
X61277816Y-97365976D01*
X61261261Y-97343190D01*
X61148248Y-97187639D01*
X61148244Y-97187634D01*
X60992364Y-97031754D01*
X60992359Y-97031750D01*
X60814026Y-96902185D01*
X60814025Y-96902184D01*
X60814023Y-96902183D01*
X60751097Y-96870120D01*
X60617607Y-96802102D01*
X60617604Y-96802101D01*
X60407953Y-96733983D01*
X60299087Y-96716740D01*
X60190223Y-96699498D01*
X59969779Y-96699498D01*
X59897202Y-96710993D01*
X59752048Y-96733983D01*
X59542397Y-96802101D01*
X59542394Y-96802102D01*
X59345975Y-96902185D01*
X59167642Y-97031750D01*
X59167637Y-97031754D01*
X59011757Y-97187634D01*
X59011753Y-97187639D01*
X58882188Y-97365972D01*
X58782105Y-97562391D01*
X58782104Y-97562394D01*
X58713986Y-97772045D01*
X58679501Y-97989776D01*
X58679501Y-98210219D01*
X52529676Y-98210219D01*
X52610104Y-98129791D01*
X52610106Y-98129787D01*
X52610109Y-98129785D01*
X52735048Y-97957819D01*
X52735047Y-97957819D01*
X52735051Y-97957815D01*
X52831557Y-97768411D01*
X52897246Y-97566242D01*
X52930500Y-97356286D01*
X52930500Y-96843712D01*
X52897246Y-96633756D01*
X52831557Y-96431587D01*
X52735051Y-96242183D01*
X52735049Y-96242180D01*
X52735048Y-96242178D01*
X52610109Y-96070212D01*
X52459786Y-95919889D01*
X52287820Y-95794950D01*
X52098414Y-95698443D01*
X52098413Y-95698442D01*
X52098412Y-95698442D01*
X51896243Y-95632753D01*
X51896241Y-95632752D01*
X51896240Y-95632752D01*
X51734957Y-95607207D01*
X51686287Y-95599499D01*
X51473713Y-95599499D01*
X51425042Y-95607207D01*
X51263760Y-95632752D01*
X51061585Y-95698443D01*
X50872179Y-95794950D01*
X50700213Y-95919889D01*
X50549890Y-96070212D01*
X50424951Y-96242178D01*
X50328444Y-96431584D01*
X50262753Y-96633759D01*
X50229500Y-96843712D01*
X50229500Y-97356285D01*
X39408142Y-97356285D01*
X42014428Y-94749999D01*
X68374779Y-94749999D01*
X68393645Y-95037836D01*
X68393647Y-95037848D01*
X68449918Y-95320744D01*
X68449922Y-95320759D01*
X68542643Y-95593904D01*
X68670220Y-95852605D01*
X68670224Y-95852612D01*
X68830479Y-96092451D01*
X69020673Y-96309326D01*
X69237547Y-96499519D01*
X69477390Y-96659777D01*
X69736099Y-96787358D01*
X70009248Y-96880080D01*
X70292162Y-96936355D01*
X70580001Y-96955221D01*
X70867840Y-96936355D01*
X71150754Y-96880080D01*
X71423903Y-96787358D01*
X71682612Y-96659777D01*
X71922455Y-96499519D01*
X72139328Y-96309326D01*
X72329521Y-96092453D01*
X72489779Y-95852610D01*
X72617360Y-95593901D01*
X72710082Y-95320752D01*
X72766357Y-95037838D01*
X72785223Y-94749999D01*
X72766357Y-94462160D01*
X72710082Y-94179246D01*
X72617360Y-93906097D01*
X72489779Y-93647388D01*
X72366930Y-93463531D01*
X72329522Y-93407546D01*
X72139328Y-93190671D01*
X71922453Y-93000477D01*
X71682614Y-92840222D01*
X71682607Y-92840218D01*
X71423906Y-92712641D01*
X71150761Y-92619920D01*
X71150755Y-92619918D01*
X71150754Y-92619918D01*
X71150752Y-92619917D01*
X71150746Y-92619916D01*
X70867850Y-92563645D01*
X70867840Y-92563643D01*
X70580001Y-92544777D01*
X70292162Y-92563643D01*
X70292156Y-92563644D01*
X70292151Y-92563645D01*
X70009255Y-92619916D01*
X70009240Y-92619920D01*
X69736095Y-92712641D01*
X69477394Y-92840218D01*
X69477387Y-92840222D01*
X69237548Y-93000477D01*
X69020673Y-93190671D01*
X68830479Y-93407546D01*
X68670224Y-93647385D01*
X68670220Y-93647392D01*
X68542643Y-93906093D01*
X68449922Y-94179238D01*
X68449918Y-94179253D01*
X68393647Y-94462149D01*
X68393645Y-94462161D01*
X68374779Y-94749999D01*
X42014428Y-94749999D01*
X43224274Y-93540153D01*
X43225959Y-93538502D01*
X43303929Y-93463531D01*
X43316976Y-93452604D01*
X43492914Y-93324773D01*
X43509480Y-93314621D01*
X43702153Y-93216444D01*
X43720118Y-93209003D01*
X43925767Y-93142177D01*
X43944668Y-93137638D01*
X44159437Y-93103616D01*
X44176425Y-93102113D01*
X44284560Y-93100022D01*
X44286958Y-93099999D01*
X58151343Y-93099999D01*
X58250795Y-93098979D01*
X58269848Y-93098784D01*
X58504284Y-93063527D01*
X58730258Y-92991836D01*
X58942143Y-92885494D01*
X59134665Y-92747151D01*
X59303032Y-92580249D01*
X59443051Y-92388942D01*
X59445114Y-92384921D01*
X59551234Y-92178003D01*
X59551239Y-92177994D01*
X59624901Y-91952655D01*
X59662205Y-91718535D01*
X59664429Y-91599999D01*
X59664429Y-91150015D01*
X76729500Y-91150015D01*
X76740000Y-91252795D01*
X76740001Y-91252796D01*
X76795186Y-91419335D01*
X76795187Y-91419337D01*
X76887286Y-91568651D01*
X76887289Y-91568655D01*
X77011344Y-91692710D01*
X77011348Y-91692713D01*
X77160662Y-91784812D01*
X77160664Y-91784813D01*
X77160666Y-91784814D01*
X77327203Y-91839999D01*
X77429992Y-91850500D01*
X77429997Y-91850500D01*
X79730003Y-91850500D01*
X79730008Y-91850500D01*
X79832797Y-91839999D01*
X79999334Y-91784814D01*
X80148655Y-91692711D01*
X80272711Y-91568655D01*
X80364814Y-91419334D01*
X80419999Y-91252797D01*
X80430500Y-91150008D01*
X80430500Y-90000001D01*
X80684773Y-90000001D01*
X80703657Y-90264027D01*
X80703658Y-90264034D01*
X80759921Y-90522673D01*
X80852426Y-90770690D01*
X80852428Y-90770694D01*
X80979280Y-91003005D01*
X80979285Y-91003013D01*
X81137906Y-91214907D01*
X81137922Y-91214925D01*
X81325074Y-91402077D01*
X81325092Y-91402093D01*
X81536986Y-91560714D01*
X81536994Y-91560719D01*
X81769305Y-91687571D01*
X81769309Y-91687573D01*
X81769311Y-91687574D01*
X82017322Y-91780077D01*
X82017325Y-91780077D01*
X82017326Y-91780078D01*
X82212552Y-91822546D01*
X82275974Y-91836343D01*
X82519660Y-91853772D01*
X82539999Y-91855227D01*
X82540000Y-91855227D01*
X82540001Y-91855227D01*
X82558885Y-91853876D01*
X82804026Y-91836343D01*
X83062678Y-91780077D01*
X83310689Y-91687574D01*
X83543011Y-91560716D01*
X83754915Y-91402087D01*
X83942087Y-91214915D01*
X84100716Y-91003011D01*
X84227574Y-90770689D01*
X84320077Y-90522678D01*
X84376343Y-90264026D01*
X84395227Y-90000000D01*
X84376343Y-89735974D01*
X84320077Y-89477322D01*
X84227574Y-89229311D01*
X84100716Y-88996989D01*
X84100714Y-88996986D01*
X83942093Y-88785092D01*
X83942077Y-88785074D01*
X83754925Y-88597922D01*
X83754907Y-88597906D01*
X83543013Y-88439285D01*
X83543005Y-88439280D01*
X83310694Y-88312428D01*
X83310690Y-88312426D01*
X83062673Y-88219921D01*
X82804034Y-88163658D01*
X82804027Y-88163657D01*
X82540001Y-88144773D01*
X82539999Y-88144773D01*
X82275972Y-88163657D01*
X82275965Y-88163658D01*
X82017326Y-88219921D01*
X81769309Y-88312426D01*
X81769305Y-88312428D01*
X81536994Y-88439280D01*
X81536986Y-88439285D01*
X81325092Y-88597906D01*
X81325074Y-88597922D01*
X81137922Y-88785074D01*
X81137906Y-88785092D01*
X80979285Y-88996986D01*
X80979280Y-88996994D01*
X80852428Y-89229305D01*
X80852426Y-89229309D01*
X80759921Y-89477326D01*
X80703658Y-89735965D01*
X80703657Y-89735972D01*
X80684773Y-89999998D01*
X80684773Y-90000001D01*
X80430500Y-90000001D01*
X80430500Y-88849992D01*
X80419999Y-88747203D01*
X80364814Y-88580666D01*
X80277608Y-88439285D01*
X80272713Y-88431348D01*
X80272710Y-88431344D01*
X80148655Y-88307289D01*
X80148651Y-88307286D01*
X79999337Y-88215187D01*
X79999335Y-88215186D01*
X79916065Y-88187593D01*
X79832797Y-88160001D01*
X79832795Y-88160000D01*
X79730015Y-88149500D01*
X79730008Y-88149500D01*
X77429992Y-88149500D01*
X77429984Y-88149500D01*
X77327204Y-88160000D01*
X77327203Y-88160001D01*
X77160664Y-88215186D01*
X77160662Y-88215187D01*
X77011348Y-88307286D01*
X77011344Y-88307289D01*
X76887289Y-88431344D01*
X76887286Y-88431348D01*
X76795187Y-88580662D01*
X76795186Y-88580664D01*
X76740001Y-88747203D01*
X76740000Y-88747204D01*
X76729500Y-88849984D01*
X76729500Y-91150015D01*
X59664429Y-91150015D01*
X59664429Y-84601064D01*
X59664449Y-84598976D01*
X59666462Y-84490708D01*
X59667968Y-84473620D01*
X59669893Y-84461469D01*
X59701977Y-84258895D01*
X59706514Y-84239996D01*
X59773343Y-84034318D01*
X59780789Y-84016346D01*
X59878964Y-83823670D01*
X59889120Y-83807096D01*
X60016236Y-83632140D01*
X60028860Y-83617359D01*
X60181785Y-83464437D01*
X60196563Y-83451816D01*
X60371522Y-83324705D01*
X60388097Y-83314548D01*
X60580781Y-83216373D01*
X60598745Y-83208932D01*
X60804420Y-83142108D01*
X60823324Y-83137570D01*
X61038079Y-83103560D01*
X61055132Y-83102057D01*
X61155885Y-83100159D01*
X61163263Y-83100021D01*
X61165597Y-83099999D01*
X62021996Y-83099999D01*
X62089035Y-83119684D01*
G37*
%TD.AperFunction*%
%TD*%
%TA.AperFunction,Conductor*%
%TO.N,Net-(J1-Pin_1)*%
G36*
X87260294Y-92906130D02*
G01*
X87420788Y-92987914D01*
X87509104Y-93016615D01*
X87644979Y-93060772D01*
X87877798Y-93097664D01*
X87877799Y-93097664D01*
X87877806Y-93097665D01*
X87995672Y-93099999D01*
X101873184Y-93099999D01*
X101875567Y-93100022D01*
X101983131Y-93102089D01*
X102000024Y-93103575D01*
X102213698Y-93137224D01*
X102232520Y-93141717D01*
X102437205Y-93207843D01*
X102455099Y-93215211D01*
X102646997Y-93312388D01*
X102663523Y-93322449D01*
X102838935Y-93449015D01*
X102851989Y-93459867D01*
X102929646Y-93533979D01*
X102931717Y-93536003D01*
X113582498Y-104186784D01*
X113583709Y-104188011D01*
X113703795Y-104311484D01*
X113711827Y-104320597D01*
X113927125Y-104590409D01*
X113935156Y-104601717D01*
X114118520Y-104893162D01*
X114125230Y-104905281D01*
X114274902Y-105215389D01*
X114280222Y-105228197D01*
X114394323Y-105553074D01*
X114398180Y-105566397D01*
X114475284Y-105901980D01*
X114477629Y-105915651D01*
X114516772Y-106257742D01*
X114517576Y-106271588D01*
X114518271Y-106615918D01*
X114517523Y-106629768D01*
X114479758Y-106972018D01*
X114477468Y-106985697D01*
X114401719Y-107321583D01*
X114397916Y-107334922D01*
X114285127Y-107660255D01*
X114279858Y-107673085D01*
X114131441Y-107983785D01*
X114124772Y-107995946D01*
X113942590Y-108288120D01*
X113934605Y-108299461D01*
X113720390Y-108570149D01*
X113712390Y-108579298D01*
X113592981Y-108703058D01*
X113591426Y-108704640D01*
X107326973Y-114969093D01*
X107244446Y-115054843D01*
X107244440Y-115054850D01*
X107104834Y-115247600D01*
X106997418Y-115459963D01*
X106997414Y-115459971D01*
X106959000Y-115572546D01*
X106937096Y-115638053D01*
X106907141Y-115727632D01*
X106903002Y-115738332D01*
X106771425Y-116036644D01*
X106765512Y-116048336D01*
X106603589Y-116330410D01*
X106596474Y-116341413D01*
X106405703Y-116604810D01*
X106397468Y-116615001D01*
X106179959Y-116856809D01*
X106170694Y-116866074D01*
X105928883Y-117083582D01*
X105918692Y-117091817D01*
X105655291Y-117282588D01*
X105644289Y-117289702D01*
X105362221Y-117451620D01*
X105350528Y-117457534D01*
X105052206Y-117589112D01*
X105041497Y-117593254D01*
X104886475Y-117645101D01*
X104773857Y-117683528D01*
X104773851Y-117683531D01*
X104561505Y-117790925D01*
X104561500Y-117790928D01*
X104368760Y-117930515D01*
X104368759Y-117930515D01*
X104283021Y-118013044D01*
X103268449Y-119027616D01*
X103185483Y-119112340D01*
X103044706Y-119303045D01*
X102935672Y-119513510D01*
X102861094Y-119738502D01*
X102861089Y-119738519D01*
X102822825Y-119972426D01*
X102821818Y-120209461D01*
X102822184Y-120214335D01*
X102821009Y-120214423D01*
X102812539Y-120278199D01*
X102767355Y-120331492D01*
X102700531Y-120351897D01*
X102697197Y-120351888D01*
X87202000Y-120101965D01*
X87135287Y-120081202D01*
X87090390Y-120027667D01*
X87080000Y-119977981D01*
X87080000Y-114723070D01*
X102313685Y-114723070D01*
X102353020Y-114971426D01*
X102430727Y-115210580D01*
X102544887Y-115434629D01*
X102692682Y-115638053D01*
X102692686Y-115638058D01*
X102870496Y-115815868D01*
X102870501Y-115815872D01*
X103047939Y-115944787D01*
X103073929Y-115963670D01*
X103216693Y-116036412D01*
X103297974Y-116077827D01*
X103297976Y-116077827D01*
X103297979Y-116077829D01*
X103426168Y-116119480D01*
X103537128Y-116155534D01*
X103785485Y-116194870D01*
X104036948Y-116194870D01*
X104036953Y-116194870D01*
X104285309Y-116155534D01*
X104524459Y-116077829D01*
X104748509Y-115963670D01*
X104951943Y-115815867D01*
X105129750Y-115638060D01*
X105277553Y-115434626D01*
X105391712Y-115210576D01*
X105469417Y-114971426D01*
X105508753Y-114723065D01*
X105511219Y-114597336D01*
X105508753Y-114471607D01*
X105469417Y-114223246D01*
X105391712Y-113984096D01*
X105391710Y-113984093D01*
X105391710Y-113984091D01*
X105350295Y-113902810D01*
X105277553Y-113760046D01*
X105258670Y-113734056D01*
X105129755Y-113556618D01*
X105129751Y-113556613D01*
X104951941Y-113378803D01*
X104951936Y-113378799D01*
X104748512Y-113231004D01*
X104748511Y-113231003D01*
X104748509Y-113231002D01*
X104678541Y-113195351D01*
X104524463Y-113116844D01*
X104285309Y-113039137D01*
X104036953Y-112999802D01*
X104036948Y-112999802D01*
X103785490Y-112999802D01*
X103785485Y-112999802D01*
X103537128Y-113039137D01*
X103297974Y-113116844D01*
X103073925Y-113231004D01*
X102870501Y-113378799D01*
X102870496Y-113378803D01*
X102692686Y-113556613D01*
X102692682Y-113556618D01*
X102544887Y-113760042D01*
X102430727Y-113984091D01*
X102353020Y-114223245D01*
X102313685Y-114471601D01*
X102313685Y-114723070D01*
X87080000Y-114723070D01*
X87080000Y-106575909D01*
X109722875Y-106575909D01*
X109762210Y-106824265D01*
X109839917Y-107063419D01*
X109954075Y-107287465D01*
X110101878Y-107490898D01*
X110279685Y-107668705D01*
X110483118Y-107816508D01*
X110588973Y-107870443D01*
X110707163Y-107930665D01*
X110707165Y-107930665D01*
X110707168Y-107930667D01*
X110835357Y-107972318D01*
X110946317Y-108008372D01*
X111194674Y-108047708D01*
X111446137Y-108047708D01*
X111446142Y-108047708D01*
X111694498Y-108008372D01*
X111732741Y-107995946D01*
X111933648Y-107930667D01*
X112157698Y-107816508D01*
X112361131Y-107668705D01*
X112538938Y-107490898D01*
X112686741Y-107287465D01*
X112800900Y-107063415D01*
X112878605Y-106824265D01*
X112917941Y-106575904D01*
X112920407Y-106450175D01*
X112917941Y-106324446D01*
X112878605Y-106076085D01*
X112800900Y-105836935D01*
X112800898Y-105836932D01*
X112800898Y-105836930D01*
X112686740Y-105612884D01*
X112648047Y-105559628D01*
X112538938Y-105409452D01*
X112361131Y-105231645D01*
X112157698Y-105083842D01*
X111933652Y-104969684D01*
X111694498Y-104891977D01*
X111446142Y-104852642D01*
X111446137Y-104852642D01*
X111194679Y-104852642D01*
X111194674Y-104852642D01*
X110946317Y-104891977D01*
X110707163Y-104969684D01*
X110483117Y-105083842D01*
X110367051Y-105168169D01*
X110279685Y-105231645D01*
X110279683Y-105231647D01*
X110279682Y-105231647D01*
X110101880Y-105409449D01*
X110101880Y-105409450D01*
X110101878Y-105409452D01*
X110038402Y-105496818D01*
X109954075Y-105612884D01*
X109839917Y-105836930D01*
X109762210Y-106076084D01*
X109722875Y-106324440D01*
X109722875Y-106575909D01*
X87080000Y-106575909D01*
X87080000Y-99131968D01*
X87099685Y-99064929D01*
X87116319Y-99044287D01*
X87148243Y-99012363D01*
X87277816Y-98834020D01*
X87377896Y-98637604D01*
X87392246Y-98593440D01*
X100239308Y-98593440D01*
X100258601Y-98887796D01*
X100258602Y-98887806D01*
X100258603Y-98887813D01*
X100258605Y-98887823D01*
X100316155Y-99177149D01*
X100316158Y-99177163D01*
X100410986Y-99456513D01*
X100541462Y-99721093D01*
X100541466Y-99721100D01*
X100705362Y-99966388D01*
X100899878Y-100188191D01*
X101121680Y-100382706D01*
X101366972Y-100546605D01*
X101631560Y-100677085D01*
X101910915Y-100771914D01*
X102200257Y-100829467D01*
X102228525Y-100831319D01*
X102494630Y-100848762D01*
X102494637Y-100848762D01*
X102494644Y-100848762D01*
X102730312Y-100833314D01*
X102789017Y-100829467D01*
X103078359Y-100771914D01*
X103357714Y-100677085D01*
X103622302Y-100546605D01*
X103867594Y-100382706D01*
X104089395Y-100188191D01*
X104283910Y-99966390D01*
X104447809Y-99721098D01*
X104578289Y-99456510D01*
X104673118Y-99177155D01*
X104730671Y-98887813D01*
X104749966Y-98593433D01*
X104749966Y-98593425D01*
X104730672Y-98299069D01*
X104730671Y-98299053D01*
X104673118Y-98009711D01*
X104578289Y-97730356D01*
X104447809Y-97465769D01*
X104283910Y-97220476D01*
X104173332Y-97094386D01*
X104089395Y-96998674D01*
X103867592Y-96804158D01*
X103622304Y-96640262D01*
X103622297Y-96640258D01*
X103357717Y-96509782D01*
X103078367Y-96414954D01*
X103078361Y-96414952D01*
X103078359Y-96414952D01*
X102789017Y-96357399D01*
X102789010Y-96357398D01*
X102789000Y-96357397D01*
X102494644Y-96338104D01*
X102494630Y-96338104D01*
X102200273Y-96357397D01*
X102200261Y-96357398D01*
X102200257Y-96357399D01*
X102200249Y-96357400D01*
X102200246Y-96357401D01*
X101910920Y-96414951D01*
X101910906Y-96414954D01*
X101631556Y-96509782D01*
X101366971Y-96640261D01*
X101121678Y-96804161D01*
X100899878Y-96998674D01*
X100705365Y-97220474D01*
X100541465Y-97465767D01*
X100410986Y-97730352D01*
X100316158Y-98009702D01*
X100316155Y-98009716D01*
X100258605Y-98299042D01*
X100258601Y-98299069D01*
X100239308Y-98593425D01*
X100239308Y-98593440D01*
X87392246Y-98593440D01*
X87446016Y-98427949D01*
X87480501Y-98210220D01*
X87480501Y-97989776D01*
X87446016Y-97772047D01*
X87377896Y-97562392D01*
X87377896Y-97562391D01*
X87343238Y-97494373D01*
X87277816Y-97365976D01*
X87172105Y-97220476D01*
X87148248Y-97187639D01*
X87148244Y-97187634D01*
X87116319Y-97155709D01*
X87082834Y-97094386D01*
X87080000Y-97068028D01*
X87080000Y-93016615D01*
X87099685Y-92949576D01*
X87152489Y-92903821D01*
X87221647Y-92893877D01*
X87260294Y-92906130D01*
G37*
%TD.AperFunction*%
%TD*%
M02*
