M48
; DRILL file {KiCad 8.0.1} date 2024-04-24T01:19:34+0900
; FORMAT={-:-/ absolute / inch / decimal}
; #@! TF.CreationDate,2024-04-24T01:19:34+09:00
; #@! TF.GenerationSoftware,Kicad,Pcbnew,8.0.1
; #@! TF.FileFunction,Plated,1,2,PTH
FMAT,2
INCH
; #@! TA.AperFunction,Plated,PTH,ViaDrill
T1C0.0157
; #@! TA.AperFunction,Plated,PTH,ComponentDrill
T2C0.0276
; #@! TA.AperFunction,Plated,PTH,ComponentDrill
T3C0.0315
; #@! TA.AperFunction,Plated,PTH,ComponentDrill
T4C0.0354
; #@! TA.AperFunction,Plated,PTH,ComponentDrill
T5C0.0394
; #@! TA.AperFunction,Plated,PTH,ComponentDrill
T6C0.0433
; #@! TA.AperFunction,Plated,PTH,ComponentDrill
T7C0.0669
; #@! TA.AperFunction,Plated,PTH,ComponentDrill
T8C0.0709
; #@! TA.AperFunction,Plated,PTH,ViaDrill
T9C0.0787
%
G90
G05
T1
X2.514Y-5.8518
X2.5612Y-5.8518
X2.5612Y-5.899
X2.5612Y-5.9463
X2.6057Y-6.0262
X2.6557Y-5.7258
X2.6557Y-5.773
X2.6557Y-5.8262
X2.6557Y-6.3262
X2.8368Y-5.7258
X2.8368Y-5.773
X2.8368Y-5.8203
X2.8841Y-5.7258
X2.8841Y-5.773
X2.8841Y-5.8203
X2.8913Y-6.3262
X2.9306Y-6.1762
X2.9306Y-6.2262
X2.9306Y-6.2762
X2.9307Y-6.0762
X2.9307Y-6.1262
X2.9307Y-6.3262
X2.9313Y-5.7258
X2.9313Y-5.773
X2.9313Y-5.8203
X2.9313Y-5.8675
X2.9313Y-5.9148
X2.9785Y-5.7258
X2.9785Y-5.773
X2.9785Y-5.8203
X2.9785Y-5.8675
X2.9785Y-5.9148
X2.9785Y-5.962
X3.0232Y-6.1597
X3.0258Y-5.7258
X3.0258Y-5.773
X3.0258Y-5.9148
X3.0258Y-5.962
X3.073Y-5.7258
X3.073Y-5.9148
X3.1203Y-5.7258
X3.1675Y-5.7258
X3.1675Y-5.773
X3.2087Y-4.6329
X3.2087Y-5.2234
X3.2128Y-6.3959
X3.2148Y-5.7258
X3.2148Y-5.773
X3.2148Y-5.8203
X3.262Y-5.7258
X3.262Y-5.773
X3.262Y-5.8203
X3.3171Y-5.7258
X3.3171Y-5.773
X3.3644Y-5.7258
X3.3644Y-5.773
X3.3819Y-5.3179
X3.4116Y-5.7258
X3.4116Y-5.773
X3.4449Y-4.9281
X3.4589Y-5.7258
X3.4589Y-5.773
X3.4982Y-5.9148
X3.5061Y-5.7258
X3.5236Y-4.2982
X3.5236Y-4.4754
X3.5533Y-5.7258
X3.5533Y-5.773
X3.5533Y-5.8675
X3.5533Y-5.9148
X3.5945Y-5.3179
X3.6006Y-5.7258
X3.6006Y-5.773
X3.6006Y-5.8203
X3.6006Y-5.8675
X3.6006Y-5.9148
X3.6024Y-4.9281
X3.6417Y-4.7116
X3.6417Y-5.0591
X3.7008Y-4.6329
X3.8386Y-5.2234
T2
X3.9075Y-5.7254
X3.9075Y-5.7943
T3
X3.5121Y-5.8235
X3.7242Y-6.0357
X3.7833Y-6.0947
X3.9954Y-6.3069
T4
X2.8307Y-5.901
X2.8307Y-6.001
T5
X2.8516Y-4.147
X2.8516Y-4.3438
X2.8516Y-6.4502
X2.8516Y-6.6471
X3.343Y-5.8513
X3.4137Y-5.922
X3.4844Y-5.9927
X3.5551Y-6.0634
X3.6258Y-6.1341
X3.8148Y-4.0878
X3.8843Y-4.1574
X4.0403Y-4.4131
X4.0403Y-4.5116
T6
X4.5217Y-5.0069
X4.5217Y-5.44
T7
X3.7261Y-6.6428
X3.8363Y-6.5325
X4.3918Y-5.6493
X4.3918Y-5.8052
T8
X3.0871Y-5.8241
X3.1846Y-6.0885
X3.4769Y-6.2138
X3.5743Y-6.4783
X4.128Y-5.125
X4.128Y-5.3219
T9
X2.8937Y-5.4596
X3.1299Y-4.4557
M30
