%TF.GenerationSoftware,KiCad,Pcbnew,8.0.1*%
%TF.CreationDate,2024-11-16T00:44:23+09:00*%
%TF.ProjectId,FPC-MD-Main-20240719,4650432d-4d44-42d4-9d61-696e2d323032,rev?*%
%TF.SameCoordinates,Original*%
%TF.FileFunction,Copper,L1,Top*%
%TF.FilePolarity,Positive*%
%FSLAX46Y46*%
G04 Gerber Fmt 4.6, Leading zero omitted, Abs format (unit mm)*
G04 Created by KiCad (PCBNEW 8.0.1) date 2024-11-16 00:44:23*
%MOMM*%
%LPD*%
G01*
G04 APERTURE LIST*
G04 Aperture macros list*
%AMRoundRect*
0 Rectangle with rounded corners*
0 $1 Rounding radius*
0 $2 $3 $4 $5 $6 $7 $8 $9 X,Y pos of 4 corners*
0 Add a 4 corners polygon primitive as box body*
4,1,4,$2,$3,$4,$5,$6,$7,$8,$9,$2,$3,0*
0 Add four circle primitives for the rounded corners*
1,1,$1+$1,$2,$3*
1,1,$1+$1,$4,$5*
1,1,$1+$1,$6,$7*
1,1,$1+$1,$8,$9*
0 Add four rect primitives between the rounded corners*
20,1,$1+$1,$2,$3,$4,$5,0*
20,1,$1+$1,$4,$5,$6,$7,0*
20,1,$1+$1,$6,$7,$8,$9,0*
20,1,$1+$1,$8,$9,$2,$3,0*%
G04 Aperture macros list end*
%TA.AperFunction,SMDPad,CuDef*%
%ADD10RoundRect,0.000000X-2.000000X0.350000X-2.000000X-0.350000X2.000000X-0.350000X2.000000X0.350000X0*%
%TD*%
%TA.AperFunction,Conductor*%
%ADD11C,0.700000*%
%TD*%
G04 APERTURE END LIST*
D10*
%TO.P,J2,1,Pin_1*%
%TO.N,Net-(J1-Pin_1)*%
X2000000Y7000000D03*
%TO.P,J2,2,Pin_2*%
%TO.N,Net-(J1-Pin_2)*%
X2000000Y6000000D03*
%TO.P,J2,3,Pin_3*%
%TO.N,Net-(J1-Pin_3)*%
X2000000Y5000000D03*
%TO.P,J2,4,Pin_4*%
%TO.N,Net-(J1-Pin_4)*%
X2000000Y4000000D03*
%TO.P,J2,5,Pin_5*%
%TO.N,Net-(J1-Pin_5)*%
X2000000Y3000000D03*
%TO.P,J2,6,Pin_6*%
%TO.N,Net-(J1-Pin_6)*%
X2000000Y2000000D03*
%TO.P,J2,7,Pin_7*%
%TO.N,Net-(J1-Pin_7)*%
X2000000Y1000000D03*
%TO.P,J2,8,Pin_8*%
%TO.N,Net-(J1-Pin_8)*%
X2000000Y0D03*
%TO.P,J2,9,Pin_9*%
%TO.N,Net-(J1-Pin_9)*%
X2000000Y-1000000D03*
%TO.P,J2,10,Pin_10*%
%TO.N,Net-(J1-Pin_10)*%
X2000000Y-2000000D03*
%TO.P,J2,11,Pin_11*%
%TO.N,Net-(J1-Pin_11)*%
X2000000Y-3000000D03*
%TO.P,J2,12,Pin_12*%
%TO.N,Net-(J1-Pin_12)*%
X2000000Y-4000000D03*
%TO.P,J2,13,Pin_13*%
%TO.N,Net-(J1-Pin_13)*%
X2000000Y-5000000D03*
%TO.P,J2,14,Pin_14*%
%TO.N,Net-(J1-Pin_14)*%
X2000000Y-6000000D03*
%TO.P,J2,15,Pin_15*%
%TO.N,Net-(J1-Pin_15)*%
X2000000Y-7000000D03*
%TD*%
%TO.P,J1,1,Pin_1*%
%TO.N,Net-(J1-Pin_1)*%
X98000000Y7000000D03*
%TO.P,J1,2,Pin_2*%
%TO.N,Net-(J1-Pin_2)*%
X98000000Y6000000D03*
%TO.P,J1,3,Pin_3*%
%TO.N,Net-(J1-Pin_3)*%
X98000000Y5000000D03*
%TO.P,J1,4,Pin_4*%
%TO.N,Net-(J1-Pin_4)*%
X98000000Y4000000D03*
%TO.P,J1,5,Pin_5*%
%TO.N,Net-(J1-Pin_5)*%
X98000000Y3000000D03*
%TO.P,J1,6,Pin_6*%
%TO.N,Net-(J1-Pin_6)*%
X98000000Y2000000D03*
%TO.P,J1,7,Pin_7*%
%TO.N,Net-(J1-Pin_7)*%
X98000000Y1000000D03*
%TO.P,J1,8,Pin_8*%
%TO.N,Net-(J1-Pin_8)*%
X98000000Y0D03*
%TO.P,J1,9,Pin_9*%
%TO.N,Net-(J1-Pin_9)*%
X98000000Y-1000000D03*
%TO.P,J1,10,Pin_10*%
%TO.N,Net-(J1-Pin_10)*%
X98000000Y-2000000D03*
%TO.P,J1,11,Pin_11*%
%TO.N,Net-(J1-Pin_11)*%
X98000000Y-3000000D03*
%TO.P,J1,12,Pin_12*%
%TO.N,Net-(J1-Pin_12)*%
X98000000Y-4000000D03*
%TO.P,J1,13,Pin_13*%
%TO.N,Net-(J1-Pin_13)*%
X98000000Y-5000000D03*
%TO.P,J1,14,Pin_14*%
%TO.N,Net-(J1-Pin_14)*%
X98000000Y-6000000D03*
%TO.P,J1,15,Pin_15*%
%TO.N,Net-(J1-Pin_15)*%
X98000000Y-7000000D03*
%TD*%
D11*
%TO.N,Net-(J1-Pin_6)*%
X2000000Y2000000D02*
X98000000Y2000000D01*
%TO.N,Net-(J1-Pin_11)*%
X98000000Y-3000000D02*
X2000000Y-3000000D01*
%TO.N,Net-(J1-Pin_1)*%
X2000000Y7000000D02*
X98000000Y7000000D01*
%TO.N,Net-(J1-Pin_7)*%
X98000000Y1000000D02*
X2000000Y1000000D01*
%TO.N,Net-(J1-Pin_13)*%
X2000000Y-5000000D02*
X98000000Y-5000000D01*
%TO.N,Net-(J1-Pin_12)*%
X2000000Y-4000000D02*
X98000000Y-4000000D01*
%TO.N,Net-(J1-Pin_14)*%
X98000000Y-6000000D02*
X2000000Y-6000000D01*
%TO.N,Net-(J1-Pin_5)*%
X2000000Y3000000D02*
X98000000Y3000000D01*
%TO.N,Net-(J1-Pin_3)*%
X2000000Y5000000D02*
X98000000Y5000000D01*
%TO.N,Net-(J1-Pin_10)*%
X98000000Y-2000000D02*
X2000000Y-2000000D01*
%TO.N,Net-(J1-Pin_8)*%
X98000000Y0D02*
X2000000Y0D01*
%TO.N,Net-(J1-Pin_4)*%
X98000000Y4000000D02*
X2000000Y4000000D01*
%TO.N,Net-(J1-Pin_15)*%
X2000000Y-7000000D02*
X98000000Y-7000000D01*
%TO.N,Net-(J1-Pin_9)*%
X2000000Y-1000000D02*
X98000000Y-1000000D01*
%TO.N,Net-(J1-Pin_2)*%
X98000000Y6000000D02*
X2000000Y6000000D01*
%TD*%
M02*
