%TF.GenerationSoftware,KiCad,Pcbnew,8.0.1*%
%TF.CreationDate,2024-12-25T00:55:02+09:00*%
%TF.ProjectId,FPC-MD-Main-20240719,4650432d-4d44-42d4-9d61-696e2d323032,rev?*%
%TF.SameCoordinates,Original*%
%TF.FileFunction,Legend,Top*%
%TF.FilePolarity,Positive*%
%FSLAX46Y46*%
G04 Gerber Fmt 4.6, Leading zero omitted, Abs format (unit mm)*
G04 Created by KiCad (PCBNEW 8.0.1) date 2024-12-25 00:55:02*
%MOMM*%
%LPD*%
G01*
G04 APERTURE LIST*
G04 Aperture macros list*
%AMRoundRect*
0 Rectangle with rounded corners*
0 $1 Rounding radius*
0 $2 $3 $4 $5 $6 $7 $8 $9 X,Y pos of 4 corners*
0 Add a 4 corners polygon primitive as box body*
4,1,4,$2,$3,$4,$5,$6,$7,$8,$9,$2,$3,0*
0 Add four circle primitives for the rounded corners*
1,1,$1+$1,$2,$3*
1,1,$1+$1,$4,$5*
1,1,$1+$1,$6,$7*
1,1,$1+$1,$8,$9*
0 Add four rect primitives between the rounded corners*
20,1,$1+$1,$2,$3,$4,$5,0*
20,1,$1+$1,$4,$5,$6,$7,0*
20,1,$1+$1,$6,$7,$8,$9,0*
20,1,$1+$1,$8,$9,$2,$3,0*%
G04 Aperture macros list end*
%ADD10C,0.000000*%
%ADD11C,0.100000*%
%ADD12RoundRect,0.000000X2.000000X-0.350000X2.000000X0.350000X-2.000000X0.350000X-2.000000X-0.350000X0*%
%ADD13RoundRect,0.000000X-2.000000X0.350000X-2.000000X-0.350000X2.000000X-0.350000X2.000000X0.350000X0*%
G04 APERTURE END LIST*
D10*
G36*
X50812642Y-5392158D02*
G01*
X50846715Y-5392701D01*
X50875158Y-5393499D01*
X50901817Y-5394719D01*
X50926792Y-5396385D01*
X50950184Y-5398522D01*
X50972094Y-5401156D01*
X50992623Y-5404310D01*
X51011871Y-5408010D01*
X51029939Y-5412280D01*
X51046928Y-5417146D01*
X51062940Y-5422632D01*
X51078073Y-5428763D01*
X51092430Y-5435564D01*
X51106111Y-5443059D01*
X51119217Y-5451273D01*
X51131849Y-5460232D01*
X51144107Y-5469960D01*
X51150369Y-5475551D01*
X51156448Y-5481590D01*
X51162338Y-5488047D01*
X51168029Y-5494890D01*
X51178781Y-5509620D01*
X51188639Y-5525539D01*
X51197536Y-5542406D01*
X51205405Y-5559982D01*
X51212180Y-5578026D01*
X51217793Y-5596298D01*
X51222179Y-5614558D01*
X51225270Y-5632565D01*
X51227000Y-5650079D01*
X51227302Y-5666859D01*
X51226896Y-5674900D01*
X51226109Y-5682666D01*
X51224932Y-5690130D01*
X51223356Y-5697259D01*
X51221373Y-5704026D01*
X51218974Y-5710398D01*
X51216152Y-5716348D01*
X51212899Y-5721843D01*
X51206921Y-5730272D01*
X51203959Y-5733717D01*
X51200794Y-5736693D01*
X51197256Y-5739235D01*
X51193179Y-5741377D01*
X51188394Y-5743153D01*
X51182736Y-5744597D01*
X51176035Y-5745744D01*
X51168126Y-5746627D01*
X51158840Y-5747281D01*
X51148009Y-5747739D01*
X51121047Y-5748206D01*
X51085898Y-5748301D01*
X51063165Y-5748159D01*
X51041349Y-5747756D01*
X51020972Y-5747129D01*
X51002555Y-5746317D01*
X50986618Y-5745356D01*
X50973682Y-5744283D01*
X50964269Y-5743136D01*
X50961046Y-5742546D01*
X50958898Y-5741951D01*
X50957053Y-5741174D01*
X50955101Y-5740050D01*
X50953059Y-5738603D01*
X50950944Y-5736858D01*
X50948774Y-5734841D01*
X50946564Y-5732575D01*
X50944333Y-5730086D01*
X50942097Y-5727399D01*
X50939874Y-5724538D01*
X50937680Y-5721529D01*
X50935533Y-5718395D01*
X50933449Y-5715162D01*
X50931446Y-5711855D01*
X50929540Y-5708498D01*
X50927749Y-5705116D01*
X50926090Y-5701735D01*
X50921075Y-5692170D01*
X50915536Y-5683313D01*
X50909445Y-5675150D01*
X50902774Y-5667670D01*
X50895495Y-5660859D01*
X50887581Y-5654705D01*
X50879003Y-5649196D01*
X50869734Y-5644320D01*
X50859745Y-5640064D01*
X50849010Y-5636416D01*
X50837499Y-5633363D01*
X50825185Y-5630892D01*
X50812040Y-5628993D01*
X50798036Y-5627651D01*
X50783145Y-5626856D01*
X50767340Y-5626593D01*
X50751280Y-5627057D01*
X50735999Y-5628071D01*
X50721431Y-5629665D01*
X50707511Y-5631868D01*
X50694174Y-5634710D01*
X50681355Y-5638220D01*
X50668988Y-5642428D01*
X50657009Y-5647363D01*
X50645352Y-5653054D01*
X50633953Y-5659532D01*
X50622746Y-5666824D01*
X50611666Y-5674962D01*
X50600648Y-5683974D01*
X50589627Y-5693890D01*
X50578538Y-5704739D01*
X50567315Y-5716551D01*
X50551998Y-5734090D01*
X50545498Y-5742092D01*
X50539633Y-5749905D01*
X50534302Y-5757775D01*
X50529401Y-5765944D01*
X50524829Y-5774655D01*
X50520484Y-5784152D01*
X50516262Y-5794679D01*
X50512063Y-5806479D01*
X50507782Y-5819794D01*
X50503319Y-5834870D01*
X50493434Y-5871273D01*
X50481590Y-5917635D01*
X50471640Y-5959511D01*
X50464049Y-5997898D01*
X50461155Y-6015818D01*
X50458870Y-6032907D01*
X50457202Y-6049177D01*
X50456157Y-6064644D01*
X50455741Y-6079320D01*
X50455961Y-6093218D01*
X50456824Y-6106353D01*
X50458336Y-6118739D01*
X50460503Y-6130387D01*
X50463333Y-6141314D01*
X50466832Y-6151530D01*
X50471007Y-6161051D01*
X50475863Y-6169890D01*
X50481409Y-6178061D01*
X50487649Y-6185576D01*
X50494592Y-6192450D01*
X50502243Y-6198696D01*
X50510609Y-6204328D01*
X50519697Y-6209359D01*
X50529513Y-6213803D01*
X50540064Y-6217673D01*
X50551356Y-6220983D01*
X50563396Y-6223747D01*
X50576191Y-6225978D01*
X50589747Y-6227689D01*
X50604071Y-6228895D01*
X50619169Y-6229608D01*
X50635048Y-6229843D01*
X50657127Y-6229270D01*
X50666979Y-6228822D01*
X50676142Y-6228239D01*
X50684690Y-6227501D01*
X50692701Y-6226587D01*
X50700249Y-6225479D01*
X50707412Y-6224154D01*
X50714265Y-6222595D01*
X50720883Y-6220779D01*
X50727343Y-6218687D01*
X50733721Y-6216300D01*
X50740093Y-6213596D01*
X50746535Y-6210555D01*
X50753123Y-6207158D01*
X50759932Y-6203385D01*
X50764442Y-6200807D01*
X50768830Y-6198244D01*
X50773073Y-6195708D01*
X50777146Y-6193215D01*
X50781027Y-6190777D01*
X50784693Y-6188409D01*
X50788120Y-6186124D01*
X50791285Y-6183938D01*
X50794164Y-6181863D01*
X50796736Y-6179913D01*
X50798975Y-6178103D01*
X50800859Y-6176447D01*
X50802365Y-6174958D01*
X50802969Y-6174280D01*
X50803470Y-6173650D01*
X50803864Y-6173069D01*
X50804150Y-6172538D01*
X50804323Y-6172059D01*
X50804382Y-6171635D01*
X50804540Y-6170869D01*
X50805006Y-6169776D01*
X50805763Y-6168377D01*
X50806796Y-6166690D01*
X50809628Y-6162538D01*
X50813378Y-6157479D01*
X50817921Y-6151677D01*
X50823134Y-6145292D01*
X50828893Y-6138485D01*
X50835073Y-6131418D01*
X50845760Y-6120239D01*
X50850491Y-6115717D01*
X50855082Y-6111839D01*
X50859736Y-6108556D01*
X50864653Y-6105820D01*
X50870035Y-6103579D01*
X50876084Y-6101785D01*
X50883001Y-6100387D01*
X50890987Y-6099337D01*
X50900245Y-6098585D01*
X50910976Y-6098081D01*
X50937661Y-6097618D01*
X50972656Y-6097551D01*
X50993922Y-6097606D01*
X51012950Y-6097791D01*
X51029860Y-6098137D01*
X51037558Y-6098381D01*
X51044772Y-6098676D01*
X51051516Y-6099027D01*
X51057805Y-6099438D01*
X51063654Y-6099912D01*
X51069079Y-6100454D01*
X51074093Y-6101067D01*
X51078712Y-6101755D01*
X51082951Y-6102522D01*
X51086824Y-6103372D01*
X51090348Y-6104309D01*
X51093535Y-6105337D01*
X51096403Y-6106459D01*
X51098964Y-6107680D01*
X51101235Y-6109003D01*
X51103230Y-6110432D01*
X51104965Y-6111972D01*
X51106453Y-6113625D01*
X51107711Y-6115396D01*
X51108752Y-6117289D01*
X51109592Y-6119307D01*
X51110246Y-6121455D01*
X51110729Y-6123736D01*
X51111055Y-6126154D01*
X51111240Y-6128714D01*
X51111298Y-6131418D01*
X51110679Y-6139730D01*
X51108872Y-6149102D01*
X51105955Y-6159400D01*
X51102005Y-6170494D01*
X51097100Y-6182251D01*
X51091318Y-6194540D01*
X51084736Y-6207229D01*
X51077432Y-6220186D01*
X51069482Y-6233279D01*
X51060966Y-6246377D01*
X51051959Y-6259348D01*
X51042540Y-6272061D01*
X51032786Y-6284382D01*
X51022775Y-6296181D01*
X51012584Y-6307326D01*
X51002290Y-6317685D01*
X50982074Y-6335672D01*
X50961457Y-6352345D01*
X50940364Y-6367728D01*
X50918715Y-6381846D01*
X50896433Y-6394724D01*
X50873442Y-6406386D01*
X50849663Y-6416858D01*
X50825019Y-6426164D01*
X50799433Y-6434329D01*
X50772826Y-6441377D01*
X50745122Y-6447335D01*
X50716242Y-6452225D01*
X50686110Y-6456074D01*
X50654648Y-6458906D01*
X50621778Y-6460746D01*
X50587423Y-6461618D01*
X50555350Y-6461365D01*
X50524957Y-6460190D01*
X50496164Y-6458062D01*
X50468890Y-6454954D01*
X50443055Y-6450834D01*
X50418578Y-6445675D01*
X50395378Y-6439445D01*
X50373375Y-6432117D01*
X50362798Y-6428031D01*
X50352489Y-6423660D01*
X50342439Y-6418999D01*
X50332638Y-6414045D01*
X50323076Y-6408794D01*
X50313742Y-6403242D01*
X50304627Y-6397386D01*
X50295720Y-6391222D01*
X50287012Y-6384747D01*
X50278492Y-6377956D01*
X50261978Y-6363414D01*
X50246096Y-6347567D01*
X50230765Y-6330385D01*
X50222680Y-6320452D01*
X50215099Y-6310111D01*
X50208029Y-6299373D01*
X50201479Y-6288250D01*
X50195456Y-6276755D01*
X50189968Y-6264900D01*
X50185022Y-6252698D01*
X50180627Y-6240162D01*
X50176789Y-6227303D01*
X50173518Y-6214133D01*
X50170820Y-6200666D01*
X50168704Y-6186914D01*
X50167177Y-6172889D01*
X50166246Y-6158604D01*
X50165920Y-6144070D01*
X50166207Y-6129301D01*
X50167361Y-6110952D01*
X50169938Y-6088818D01*
X50178791Y-6035424D01*
X50191638Y-5973571D01*
X50207349Y-5907713D01*
X50224797Y-5842301D01*
X50242853Y-5781788D01*
X50260388Y-5730626D01*
X50268607Y-5709943D01*
X50276273Y-5693268D01*
X50289619Y-5669140D01*
X50304954Y-5645256D01*
X50322133Y-5621735D01*
X50341014Y-5598696D01*
X50361450Y-5576258D01*
X50383300Y-5554542D01*
X50406417Y-5533665D01*
X50430658Y-5513748D01*
X50455879Y-5494910D01*
X50481935Y-5477271D01*
X50508683Y-5460949D01*
X50535979Y-5446064D01*
X50563677Y-5432736D01*
X50591634Y-5421084D01*
X50619706Y-5411227D01*
X50647749Y-5403285D01*
X50663070Y-5400008D01*
X50681218Y-5397315D01*
X50702145Y-5395192D01*
X50725800Y-5393627D01*
X50752135Y-5392608D01*
X50781098Y-5392123D01*
X50812642Y-5392158D01*
G37*
G36*
X52941213Y-5389497D02*
G01*
X52966980Y-5390574D01*
X52991775Y-5392205D01*
X53015262Y-5394395D01*
X53037103Y-5397145D01*
X53056964Y-5400461D01*
X53074507Y-5404343D01*
X53100837Y-5411846D01*
X53125458Y-5420466D01*
X53148370Y-5430202D01*
X53159185Y-5435488D01*
X53169575Y-5441054D01*
X53179538Y-5446899D01*
X53189075Y-5453022D01*
X53198186Y-5459425D01*
X53206871Y-5466107D01*
X53215130Y-5473067D01*
X53222965Y-5480307D01*
X53230374Y-5487826D01*
X53237358Y-5495624D01*
X53243917Y-5503701D01*
X53250052Y-5512057D01*
X53255762Y-5520692D01*
X53261048Y-5529607D01*
X53265911Y-5538800D01*
X53270349Y-5548272D01*
X53274364Y-5558024D01*
X53277955Y-5568054D01*
X53281123Y-5578363D01*
X53283868Y-5588952D01*
X53286190Y-5599819D01*
X53288090Y-5610966D01*
X53289567Y-5622392D01*
X53290622Y-5634096D01*
X53291465Y-5658343D01*
X53291404Y-5665059D01*
X53291223Y-5671690D01*
X53290928Y-5678200D01*
X53290523Y-5684553D01*
X53290012Y-5690714D01*
X53289400Y-5696648D01*
X53288692Y-5702317D01*
X53287893Y-5707688D01*
X53287007Y-5712723D01*
X53286039Y-5717388D01*
X53284993Y-5721647D01*
X53283875Y-5725464D01*
X53282688Y-5728804D01*
X53281438Y-5731631D01*
X53280790Y-5732840D01*
X53280128Y-5733908D01*
X53279453Y-5734830D01*
X53278765Y-5735601D01*
X53276756Y-5737139D01*
X53273905Y-5738578D01*
X53270214Y-5739917D01*
X53265685Y-5741158D01*
X53260318Y-5742299D01*
X53254115Y-5743340D01*
X53239210Y-5745126D01*
X53220980Y-5746515D01*
X53199440Y-5747508D01*
X53174600Y-5748103D01*
X53146473Y-5748301D01*
X53026882Y-5748301D01*
X53000423Y-5705968D01*
X52993570Y-5695670D01*
X52986473Y-5686192D01*
X52979087Y-5677512D01*
X52971369Y-5669604D01*
X52963272Y-5662447D01*
X52954752Y-5656018D01*
X52945764Y-5650292D01*
X52936262Y-5645246D01*
X52926203Y-5640858D01*
X52915540Y-5637104D01*
X52904229Y-5633961D01*
X52892226Y-5631405D01*
X52879484Y-5629414D01*
X52865959Y-5627963D01*
X52851607Y-5627031D01*
X52836382Y-5626593D01*
X52823710Y-5626838D01*
X52811293Y-5627572D01*
X52799133Y-5628795D01*
X52787229Y-5630506D01*
X52775584Y-5632705D01*
X52764198Y-5635390D01*
X52753072Y-5638562D01*
X52742207Y-5642220D01*
X52731604Y-5646363D01*
X52721263Y-5650991D01*
X52711187Y-5656103D01*
X52701376Y-5661698D01*
X52691831Y-5667776D01*
X52682552Y-5674337D01*
X52673541Y-5681379D01*
X52664799Y-5688902D01*
X52656327Y-5696906D01*
X52648126Y-5705391D01*
X52640196Y-5714354D01*
X52632539Y-5723796D01*
X52625155Y-5733717D01*
X52618046Y-5744115D01*
X52604656Y-5766343D01*
X52592376Y-5790474D01*
X52581214Y-5816504D01*
X52571177Y-5844429D01*
X52562274Y-5874243D01*
X52553183Y-5908842D01*
X52545361Y-5940893D01*
X52538810Y-5970526D01*
X52533533Y-5997870D01*
X52529534Y-6023056D01*
X52528014Y-6034880D01*
X52526815Y-6046214D01*
X52525937Y-6057073D01*
X52525380Y-6067475D01*
X52525145Y-6077434D01*
X52525232Y-6086968D01*
X52525641Y-6096093D01*
X52526373Y-6104824D01*
X52527429Y-6113179D01*
X52528808Y-6121174D01*
X52530511Y-6128824D01*
X52532538Y-6136146D01*
X52534891Y-6143157D01*
X52537568Y-6149873D01*
X52540571Y-6156309D01*
X52543900Y-6162483D01*
X52547555Y-6168410D01*
X52551537Y-6174107D01*
X52555846Y-6179590D01*
X52560483Y-6184875D01*
X52565447Y-6189979D01*
X52570740Y-6194918D01*
X52578789Y-6201378D01*
X52587808Y-6207260D01*
X52597722Y-6212556D01*
X52608460Y-6217259D01*
X52619948Y-6221359D01*
X52632113Y-6224851D01*
X52644883Y-6227726D01*
X52658185Y-6229975D01*
X52671946Y-6231592D01*
X52686092Y-6232569D01*
X52700552Y-6232898D01*
X52715252Y-6232571D01*
X52730120Y-6231581D01*
X52745082Y-6229919D01*
X52760066Y-6227579D01*
X52774998Y-6224551D01*
X52783420Y-6222534D01*
X52791274Y-6220421D01*
X52798639Y-6218166D01*
X52805591Y-6215721D01*
X52812208Y-6213040D01*
X52818568Y-6210078D01*
X52824748Y-6206787D01*
X52830826Y-6203120D01*
X52836878Y-6199032D01*
X52842984Y-6194476D01*
X52849220Y-6189405D01*
X52855663Y-6183772D01*
X52862392Y-6177532D01*
X52869484Y-6170638D01*
X52877016Y-6163043D01*
X52885065Y-6154701D01*
X52939040Y-6097551D01*
X53043815Y-6097551D01*
X53069325Y-6097752D01*
X53080983Y-6098005D01*
X53091920Y-6098362D01*
X53102144Y-6098824D01*
X53111662Y-6099393D01*
X53120483Y-6100071D01*
X53128614Y-6100859D01*
X53136063Y-6101758D01*
X53142837Y-6102771D01*
X53148945Y-6103898D01*
X53154394Y-6105142D01*
X53159192Y-6106503D01*
X53163347Y-6107984D01*
X53166866Y-6109585D01*
X53169757Y-6111310D01*
X53172920Y-6113778D01*
X53175662Y-6116076D01*
X53177986Y-6118281D01*
X53179894Y-6120471D01*
X53180691Y-6121584D01*
X53181385Y-6122722D01*
X53181976Y-6123896D01*
X53182463Y-6125113D01*
X53182847Y-6126386D01*
X53183128Y-6127722D01*
X53183307Y-6129131D01*
X53183383Y-6130624D01*
X53183228Y-6133899D01*
X53182666Y-6137623D01*
X53181697Y-6141875D01*
X53180324Y-6146731D01*
X53178547Y-6152269D01*
X53176370Y-6158567D01*
X53170816Y-6173751D01*
X53162121Y-6194253D01*
X53151962Y-6214439D01*
X53140410Y-6234241D01*
X53127540Y-6253589D01*
X53113422Y-6272417D01*
X53098131Y-6290656D01*
X53081740Y-6308237D01*
X53064321Y-6325093D01*
X53045946Y-6341155D01*
X53026690Y-6356355D01*
X53006624Y-6370625D01*
X52985822Y-6383897D01*
X52964356Y-6396102D01*
X52942300Y-6407172D01*
X52919726Y-6417039D01*
X52896707Y-6425635D01*
X52881588Y-6430128D01*
X52863667Y-6434796D01*
X52843612Y-6439513D01*
X52822094Y-6444156D01*
X52799783Y-6448600D01*
X52777347Y-6452721D01*
X52755457Y-6456397D01*
X52734782Y-6459501D01*
X52708722Y-6462232D01*
X52683140Y-6464081D01*
X52658056Y-6465059D01*
X52633490Y-6465180D01*
X52609461Y-6464452D01*
X52585989Y-6462889D01*
X52563093Y-6460502D01*
X52540793Y-6457302D01*
X52519108Y-6453300D01*
X52498059Y-6448508D01*
X52477664Y-6442938D01*
X52457943Y-6436600D01*
X52438916Y-6429507D01*
X52420602Y-6421669D01*
X52403021Y-6413099D01*
X52386193Y-6403807D01*
X52370137Y-6393804D01*
X52354872Y-6383104D01*
X52340419Y-6371716D01*
X52326796Y-6359652D01*
X52314024Y-6346924D01*
X52302121Y-6333543D01*
X52291108Y-6319521D01*
X52281005Y-6304869D01*
X52271829Y-6289598D01*
X52263602Y-6273720D01*
X52256343Y-6257246D01*
X52250071Y-6240189D01*
X52244806Y-6222558D01*
X52240568Y-6204366D01*
X52237375Y-6185624D01*
X52235248Y-6166343D01*
X52234963Y-6148145D01*
X52236385Y-6125339D01*
X52239364Y-6098573D01*
X52243748Y-6068497D01*
X52256122Y-6001014D01*
X52272290Y-5928086D01*
X52291038Y-5854910D01*
X52311151Y-5786682D01*
X52321339Y-5756048D01*
X52331412Y-5728600D01*
X52341219Y-5704987D01*
X52350607Y-5685860D01*
X52364390Y-5661607D01*
X52379513Y-5638090D01*
X52395925Y-5615348D01*
X52413578Y-5593421D01*
X52432421Y-5572350D01*
X52452405Y-5552175D01*
X52473481Y-5532936D01*
X52495598Y-5514674D01*
X52518708Y-5497429D01*
X52542760Y-5481242D01*
X52567706Y-5466152D01*
X52593494Y-5452199D01*
X52620077Y-5439426D01*
X52647403Y-5427870D01*
X52675424Y-5417574D01*
X52704090Y-5408576D01*
X52721075Y-5404273D01*
X52740452Y-5400494D01*
X52761884Y-5397242D01*
X52785036Y-5394520D01*
X52809571Y-5392332D01*
X52835152Y-5390680D01*
X52888108Y-5388997D01*
X52941213Y-5389497D01*
G37*
G36*
X49185188Y-5400050D02*
G01*
X49240512Y-5402772D01*
X49263106Y-5404596D01*
X49281078Y-5406710D01*
X49293498Y-5409100D01*
X49297334Y-5410394D01*
X49299432Y-5411751D01*
X49301082Y-5415368D01*
X49302016Y-5420892D01*
X49301449Y-5439036D01*
X49297162Y-5468938D01*
X49288584Y-5513351D01*
X49256272Y-5656722D01*
X49199948Y-5891176D01*
X49188920Y-5935960D01*
X49178399Y-5977193D01*
X49168297Y-6015092D01*
X49158525Y-6049877D01*
X49148994Y-6081765D01*
X49139617Y-6110977D01*
X49130305Y-6137730D01*
X49120970Y-6162242D01*
X49111524Y-6184733D01*
X49101877Y-6205421D01*
X49091942Y-6224524D01*
X49081630Y-6242262D01*
X49070853Y-6258852D01*
X49059523Y-6274514D01*
X49047551Y-6289466D01*
X49034849Y-6303926D01*
X49011572Y-6327776D01*
X48986994Y-6349712D01*
X48961130Y-6369732D01*
X48933993Y-6387832D01*
X48905597Y-6404011D01*
X48875956Y-6418264D01*
X48845084Y-6430588D01*
X48812995Y-6440981D01*
X48779704Y-6449438D01*
X48745223Y-6455958D01*
X48709567Y-6460537D01*
X48672750Y-6463172D01*
X48634785Y-6463860D01*
X48595688Y-6462598D01*
X48555471Y-6459382D01*
X48514149Y-6454210D01*
X48493044Y-6450553D01*
X48472906Y-6446785D01*
X48454208Y-6442992D01*
X48437419Y-6439261D01*
X48423012Y-6435678D01*
X48416848Y-6433970D01*
X48411457Y-6432332D01*
X48406897Y-6430774D01*
X48403226Y-6429308D01*
X48400504Y-6427944D01*
X48399517Y-6427304D01*
X48398790Y-6426693D01*
X48397662Y-6424878D01*
X48396849Y-6422055D01*
X48396109Y-6413652D01*
X48396458Y-6402008D01*
X48397781Y-6387650D01*
X48399967Y-6371103D01*
X48402901Y-6352893D01*
X48410564Y-6313584D01*
X48419864Y-6273927D01*
X48424845Y-6255282D01*
X48429895Y-6238128D01*
X48434902Y-6222988D01*
X48439753Y-6210390D01*
X48444334Y-6200858D01*
X48446488Y-6197406D01*
X48448532Y-6194918D01*
X48450409Y-6193232D01*
X48452486Y-6191745D01*
X48454789Y-6190460D01*
X48457346Y-6189378D01*
X48460181Y-6188501D01*
X48463321Y-6187830D01*
X48466794Y-6187367D01*
X48470624Y-6187113D01*
X48474839Y-6187070D01*
X48479465Y-6187239D01*
X48484528Y-6187622D01*
X48490055Y-6188221D01*
X48496071Y-6189036D01*
X48502604Y-6190071D01*
X48517323Y-6192801D01*
X48530528Y-6194775D01*
X48545965Y-6196687D01*
X48563088Y-6198475D01*
X48581353Y-6200077D01*
X48600212Y-6201431D01*
X48619122Y-6202475D01*
X48637535Y-6203147D01*
X48654907Y-6203385D01*
X48675072Y-6203069D01*
X48693941Y-6202099D01*
X48711582Y-6200441D01*
X48719964Y-6199343D01*
X48728064Y-6198060D01*
X48735891Y-6196588D01*
X48743454Y-6194923D01*
X48750761Y-6193060D01*
X48757821Y-6190995D01*
X48764642Y-6188724D01*
X48771233Y-6186242D01*
X48777603Y-6183546D01*
X48783759Y-6180630D01*
X48789710Y-6177492D01*
X48795465Y-6174126D01*
X48801033Y-6170528D01*
X48806422Y-6166694D01*
X48811640Y-6162620D01*
X48816696Y-6158302D01*
X48821599Y-6153734D01*
X48826357Y-6148914D01*
X48830978Y-6143836D01*
X48835471Y-6138496D01*
X48839845Y-6132891D01*
X48844109Y-6127015D01*
X48848270Y-6120865D01*
X48852337Y-6114437D01*
X48856318Y-6107725D01*
X48860224Y-6100726D01*
X48866983Y-6085956D01*
X48874807Y-6065266D01*
X48892751Y-6009726D01*
X48912257Y-5941313D01*
X48931529Y-5867232D01*
X48948766Y-5794688D01*
X48962171Y-5730888D01*
X48966874Y-5704519D01*
X48969945Y-5683038D01*
X48971159Y-5667346D01*
X48970290Y-5658343D01*
X48969387Y-5656720D01*
X48968273Y-5655036D01*
X48966960Y-5653301D01*
X48965462Y-5651530D01*
X48963789Y-5649734D01*
X48961956Y-5647925D01*
X48959973Y-5646116D01*
X48957855Y-5644320D01*
X48955612Y-5642549D01*
X48953258Y-5640814D01*
X48950804Y-5639130D01*
X48948264Y-5637507D01*
X48945649Y-5635959D01*
X48942972Y-5634497D01*
X48940245Y-5633135D01*
X48937482Y-5631885D01*
X48934893Y-5630857D01*
X48932298Y-5629762D01*
X48929715Y-5628608D01*
X48927163Y-5627403D01*
X48924661Y-5626155D01*
X48922227Y-5624871D01*
X48919880Y-5623559D01*
X48917638Y-5622227D01*
X48915520Y-5620883D01*
X48913545Y-5619534D01*
X48911731Y-5618188D01*
X48910097Y-5616853D01*
X48908662Y-5615537D01*
X48907443Y-5614246D01*
X48906921Y-5613614D01*
X48906460Y-5612990D01*
X48906063Y-5612378D01*
X48905732Y-5611776D01*
X48905258Y-5610409D01*
X48905021Y-5608134D01*
X48905207Y-5601092D01*
X48906192Y-5591119D01*
X48907881Y-5578687D01*
X48912987Y-5548320D01*
X48919755Y-5513748D01*
X48927415Y-5478730D01*
X48935200Y-5447024D01*
X48942339Y-5422386D01*
X48945427Y-5413893D01*
X48948065Y-5408576D01*
X48949875Y-5407147D01*
X48953441Y-5405833D01*
X48965377Y-5403547D01*
X48982940Y-5401705D01*
X49005198Y-5400292D01*
X49060077Y-5398698D01*
X49122558Y-5398654D01*
X49185188Y-5400050D01*
G37*
G36*
X48196119Y-5442840D02*
G01*
X48209286Y-5443131D01*
X48222276Y-5443706D01*
X48234912Y-5444563D01*
X48247018Y-5445701D01*
X48258418Y-5447117D01*
X48268933Y-5448812D01*
X48278389Y-5450782D01*
X48286607Y-5453026D01*
X48290508Y-5454524D01*
X48294646Y-5456228D01*
X48303490Y-5460187D01*
X48312856Y-5464765D01*
X48322458Y-5469827D01*
X48332010Y-5475237D01*
X48341227Y-5480857D01*
X48345620Y-5483704D01*
X48349824Y-5486552D01*
X48353800Y-5489385D01*
X48357515Y-5492185D01*
X48393498Y-5517585D01*
X48353282Y-5558860D01*
X48349119Y-5563160D01*
X48344980Y-5567318D01*
X48340892Y-5571315D01*
X48336878Y-5575132D01*
X48332963Y-5578750D01*
X48329172Y-5582151D01*
X48325529Y-5585317D01*
X48322061Y-5588228D01*
X48318791Y-5590867D01*
X48315744Y-5593214D01*
X48312945Y-5595251D01*
X48310419Y-5596960D01*
X48308191Y-5598321D01*
X48306285Y-5599316D01*
X48305461Y-5599671D01*
X48304726Y-5599927D01*
X48304085Y-5600082D01*
X48303540Y-5600135D01*
X48302427Y-5600025D01*
X48301082Y-5599703D01*
X48299524Y-5599179D01*
X48297769Y-5598464D01*
X48295834Y-5597570D01*
X48293736Y-5596507D01*
X48291492Y-5595286D01*
X48289120Y-5593917D01*
X48284058Y-5590781D01*
X48278686Y-5587187D01*
X48273140Y-5583220D01*
X48267557Y-5578968D01*
X48264052Y-5576373D01*
X48260294Y-5573945D01*
X48252068Y-5569592D01*
X48242984Y-5565908D01*
X48233144Y-5562895D01*
X48222654Y-5560550D01*
X48211616Y-5558876D01*
X48200135Y-5557872D01*
X48188314Y-5557537D01*
X48176258Y-5557872D01*
X48164070Y-5558876D01*
X48151854Y-5560550D01*
X48139713Y-5562895D01*
X48127753Y-5565908D01*
X48116077Y-5569592D01*
X48104788Y-5573945D01*
X48093990Y-5578968D01*
X48079240Y-5587483D01*
X48065186Y-5597478D01*
X48051879Y-5608848D01*
X48039370Y-5621483D01*
X48027711Y-5635279D01*
X48016953Y-5650126D01*
X48007147Y-5665920D01*
X47998343Y-5682552D01*
X47990594Y-5699916D01*
X47983950Y-5717905D01*
X47978463Y-5736412D01*
X47974183Y-5755329D01*
X47971163Y-5774551D01*
X47969452Y-5793969D01*
X47969102Y-5813477D01*
X47970165Y-5832968D01*
X47971527Y-5843658D01*
X47973421Y-5853896D01*
X47975832Y-5863676D01*
X47978747Y-5872992D01*
X47982153Y-5881840D01*
X47986034Y-5890213D01*
X47990377Y-5898106D01*
X47995168Y-5905513D01*
X48000393Y-5912429D01*
X48006039Y-5918848D01*
X48012090Y-5924764D01*
X48018534Y-5930171D01*
X48025356Y-5935065D01*
X48032543Y-5939439D01*
X48040079Y-5943288D01*
X48047953Y-5946607D01*
X48056148Y-5949388D01*
X48064652Y-5951628D01*
X48073451Y-5953320D01*
X48082530Y-5954459D01*
X48091876Y-5955039D01*
X48101475Y-5955055D01*
X48111312Y-5954500D01*
X48121374Y-5953370D01*
X48131647Y-5951658D01*
X48142117Y-5949360D01*
X48152770Y-5946468D01*
X48163592Y-5942979D01*
X48174569Y-5938886D01*
X48185687Y-5934183D01*
X48196932Y-5928865D01*
X48208290Y-5922926D01*
X48253798Y-5898585D01*
X48285548Y-5936685D01*
X48289344Y-5941348D01*
X48292795Y-5945811D01*
X48295906Y-5950072D01*
X48298678Y-5954131D01*
X48301116Y-5957984D01*
X48303222Y-5961632D01*
X48304151Y-5963378D01*
X48304999Y-5965072D01*
X48305765Y-5966713D01*
X48306450Y-5968302D01*
X48307055Y-5969839D01*
X48307580Y-5971322D01*
X48308024Y-5972752D01*
X48308389Y-5974129D01*
X48308675Y-5975453D01*
X48308883Y-5976723D01*
X48309012Y-5977939D01*
X48309063Y-5979101D01*
X48309037Y-5980208D01*
X48308933Y-5981261D01*
X48308753Y-5982260D01*
X48308497Y-5983204D01*
X48308164Y-5984092D01*
X48307756Y-5984926D01*
X48307273Y-5985704D01*
X48306715Y-5986426D01*
X48301941Y-5991375D01*
X48295662Y-5996648D01*
X48288035Y-6002172D01*
X48279215Y-6007874D01*
X48269359Y-6013682D01*
X48258625Y-6019522D01*
X48247168Y-6025322D01*
X48235145Y-6031009D01*
X48222713Y-6036509D01*
X48210028Y-6041751D01*
X48197248Y-6046661D01*
X48184527Y-6051167D01*
X48172024Y-6055195D01*
X48159894Y-6058672D01*
X48148295Y-6061526D01*
X48137382Y-6063685D01*
X48124715Y-6065735D01*
X48112123Y-6067326D01*
X48099618Y-6068462D01*
X48087214Y-6069150D01*
X48074923Y-6069394D01*
X48062758Y-6069201D01*
X48050732Y-6068574D01*
X48038858Y-6067521D01*
X48027147Y-6066046D01*
X48015614Y-6064155D01*
X48004271Y-6061853D01*
X47993130Y-6059145D01*
X47982205Y-6056038D01*
X47971508Y-6052536D01*
X47961052Y-6048645D01*
X47950851Y-6044370D01*
X47940915Y-6039717D01*
X47931259Y-6034691D01*
X47921896Y-6029298D01*
X47912837Y-6023542D01*
X47904097Y-6017431D01*
X47895686Y-6010967D01*
X47887620Y-6004159D01*
X47879909Y-5997010D01*
X47872567Y-5989526D01*
X47865608Y-5981712D01*
X47859042Y-5973575D01*
X47852884Y-5965119D01*
X47847147Y-5956350D01*
X47841842Y-5947273D01*
X47836982Y-5937894D01*
X47832582Y-5928218D01*
X47828724Y-5917288D01*
X47825481Y-5905222D01*
X47822850Y-5892148D01*
X47820824Y-5878195D01*
X47819400Y-5863492D01*
X47818573Y-5848167D01*
X47818338Y-5832349D01*
X47818691Y-5816167D01*
X47819627Y-5799749D01*
X47821141Y-5783224D01*
X47823228Y-5766721D01*
X47825884Y-5750368D01*
X47829105Y-5734295D01*
X47832886Y-5718629D01*
X47837221Y-5703499D01*
X47842107Y-5689035D01*
X47850240Y-5669675D01*
X47859898Y-5650544D01*
X47870991Y-5631720D01*
X47883431Y-5613281D01*
X47897131Y-5595308D01*
X47912000Y-5577879D01*
X47927952Y-5561073D01*
X47944897Y-5544969D01*
X47962748Y-5529647D01*
X47981416Y-5515185D01*
X48000813Y-5501662D01*
X48020849Y-5489158D01*
X48041438Y-5477752D01*
X48062490Y-5467523D01*
X48083918Y-5458549D01*
X48105632Y-5450910D01*
X48113850Y-5448875D01*
X48123305Y-5447137D01*
X48133821Y-5445694D01*
X48145220Y-5444543D01*
X48157326Y-5443684D01*
X48169963Y-5443115D01*
X48182953Y-5442834D01*
X48196119Y-5442840D01*
G37*
G36*
X49563326Y-3895744D02*
G01*
X49563373Y-3939397D01*
X49563590Y-3977778D01*
X49564091Y-4011227D01*
X49564987Y-4040083D01*
X49565618Y-4052893D01*
X49566391Y-4064683D01*
X49567320Y-4075493D01*
X49568418Y-4085367D01*
X49569699Y-4094346D01*
X49571179Y-4102473D01*
X49572870Y-4109790D01*
X49574787Y-4116341D01*
X49576944Y-4122166D01*
X49579355Y-4127308D01*
X49582035Y-4131810D01*
X49584997Y-4135714D01*
X49588256Y-4139062D01*
X49591825Y-4141898D01*
X49595720Y-4144262D01*
X49599953Y-4146197D01*
X49604539Y-4147746D01*
X49609492Y-4148952D01*
X49614826Y-4149855D01*
X49620556Y-4150500D01*
X49626695Y-4150927D01*
X49633258Y-4151180D01*
X49647710Y-4151332D01*
X49651632Y-4151256D01*
X49655487Y-4151029D01*
X49659272Y-4150652D01*
X49662987Y-4150126D01*
X49666631Y-4149452D01*
X49670203Y-4148631D01*
X49673700Y-4147664D01*
X49677123Y-4146552D01*
X49680470Y-4145297D01*
X49683740Y-4143898D01*
X49686931Y-4142358D01*
X49690042Y-4140677D01*
X49693073Y-4138857D01*
X49696021Y-4136898D01*
X49698887Y-4134801D01*
X49701668Y-4132568D01*
X49704363Y-4130200D01*
X49706972Y-4127697D01*
X49709493Y-4125060D01*
X49711924Y-4122291D01*
X49714266Y-4119391D01*
X49716515Y-4116361D01*
X49718672Y-4113201D01*
X49720735Y-4109913D01*
X49722703Y-4106498D01*
X49724575Y-4102956D01*
X49728025Y-4095499D01*
X49731076Y-4087551D01*
X49733718Y-4079118D01*
X49735231Y-4069597D01*
X49736697Y-4053762D01*
X49738068Y-4032450D01*
X49739296Y-4006499D01*
X49741134Y-3944022D01*
X49741831Y-3873025D01*
X49741831Y-3696954D01*
X49985248Y-3696954D01*
X49985248Y-4329837D01*
X49758059Y-4329837D01*
X49758059Y-4229225D01*
X49719924Y-4266549D01*
X49709628Y-4276212D01*
X49699403Y-4285132D01*
X49689204Y-4293324D01*
X49678987Y-4300805D01*
X49668708Y-4307592D01*
X49658323Y-4313701D01*
X49647789Y-4319150D01*
X49637061Y-4323955D01*
X49626095Y-4328132D01*
X49614847Y-4331698D01*
X49603274Y-4334669D01*
X49591331Y-4337064D01*
X49578975Y-4338897D01*
X49566161Y-4340186D01*
X49552845Y-4340947D01*
X49538984Y-4341197D01*
X49524975Y-4341120D01*
X49511538Y-4340580D01*
X49498655Y-4339572D01*
X49486307Y-4338091D01*
X49474478Y-4336128D01*
X49463149Y-4333680D01*
X49452303Y-4330740D01*
X49441922Y-4327302D01*
X49431987Y-4323359D01*
X49422482Y-4318907D01*
X49413388Y-4313939D01*
X49404687Y-4308449D01*
X49396361Y-4302432D01*
X49388394Y-4295881D01*
X49380766Y-4288790D01*
X49373461Y-4281154D01*
X49364837Y-4271165D01*
X49357182Y-4261334D01*
X49350441Y-4251286D01*
X49344555Y-4240648D01*
X49339468Y-4229045D01*
X49335123Y-4216102D01*
X49331462Y-4201445D01*
X49328429Y-4184700D01*
X49325966Y-4165492D01*
X49324017Y-4143448D01*
X49321431Y-4089349D01*
X49320213Y-4019410D01*
X49319909Y-3930634D01*
X49319909Y-3696954D01*
X49563326Y-3696954D01*
X49563326Y-3895744D01*
G37*
G36*
X53408270Y273875D02*
G01*
X53407890Y-414069D01*
X53407080Y-815635D01*
X53406421Y-931278D01*
X53405542Y-1002029D01*
X53404407Y-1036787D01*
X53403732Y-1043452D01*
X53403366Y-1044592D01*
X53402979Y-1044456D01*
X53198368Y-607364D01*
X52857232Y124650D01*
X52442718Y1013650D01*
X52233168Y1462736D01*
X52208567Y1515372D01*
X52188497Y1558648D01*
X52174976Y1588099D01*
X52170021Y1599261D01*
X52351922Y1600540D01*
X52789145Y1601024D01*
X53408270Y1601024D01*
X53408270Y273875D01*
G37*
G36*
X49173859Y-4329837D02*
G01*
X48946670Y-4329837D01*
X48946670Y-4238150D01*
X48906101Y-4276286D01*
X48893100Y-4287906D01*
X48879953Y-4298429D01*
X48866643Y-4307861D01*
X48853158Y-4316208D01*
X48839482Y-4323476D01*
X48825602Y-4329671D01*
X48811504Y-4334798D01*
X48797172Y-4338864D01*
X48782593Y-4341874D01*
X48767753Y-4343835D01*
X48752637Y-4344753D01*
X48737231Y-4344632D01*
X48721520Y-4343481D01*
X48705492Y-4341303D01*
X48689130Y-4338105D01*
X48672421Y-4333894D01*
X48659955Y-4329947D01*
X48647816Y-4325268D01*
X48636016Y-4319877D01*
X48624562Y-4313795D01*
X48613465Y-4307040D01*
X48602734Y-4299633D01*
X48592378Y-4291594D01*
X48582408Y-4282942D01*
X48563660Y-4263877D01*
X48546567Y-4242599D01*
X48531205Y-4219264D01*
X48517649Y-4194031D01*
X48505975Y-4167058D01*
X48496261Y-4138503D01*
X48488581Y-4108524D01*
X48483012Y-4077280D01*
X48479631Y-4044927D01*
X48478643Y-4015525D01*
X48718974Y-4015525D01*
X48719654Y-4033763D01*
X48721613Y-4051716D01*
X48724849Y-4069130D01*
X48729358Y-4085749D01*
X48732088Y-4093680D01*
X48735136Y-4101317D01*
X48738500Y-4108627D01*
X48742180Y-4115578D01*
X48746175Y-4122139D01*
X48750486Y-4128278D01*
X48755111Y-4133963D01*
X48760051Y-4139161D01*
X48764394Y-4143100D01*
X48768895Y-4146704D01*
X48773540Y-4149976D01*
X48778315Y-4152918D01*
X48783208Y-4155532D01*
X48788204Y-4157822D01*
X48793290Y-4159789D01*
X48798453Y-4161436D01*
X48803678Y-4162766D01*
X48808953Y-4163781D01*
X48814264Y-4164483D01*
X48819598Y-4164876D01*
X48824940Y-4164962D01*
X48830278Y-4164743D01*
X48835598Y-4164222D01*
X48840886Y-4163401D01*
X48846129Y-4162283D01*
X48851313Y-4160870D01*
X48856425Y-4159166D01*
X48861451Y-4157171D01*
X48866378Y-4154890D01*
X48871192Y-4152324D01*
X48875880Y-4149476D01*
X48880428Y-4146349D01*
X48884823Y-4142945D01*
X48889051Y-4139266D01*
X48893099Y-4135316D01*
X48896952Y-4131096D01*
X48900599Y-4126609D01*
X48904024Y-4121858D01*
X48907215Y-4116846D01*
X48910158Y-4111574D01*
X48913370Y-4104565D01*
X48916305Y-4096696D01*
X48918953Y-4088076D01*
X48921302Y-4078814D01*
X48923342Y-4069019D01*
X48925062Y-4058802D01*
X48926452Y-4048270D01*
X48927501Y-4037534D01*
X48928198Y-4026703D01*
X48928533Y-4015887D01*
X48928494Y-4005194D01*
X48928072Y-3994734D01*
X48927255Y-3984616D01*
X48926032Y-3974950D01*
X48924394Y-3965844D01*
X48922329Y-3957410D01*
X48921152Y-3953392D01*
X48919761Y-3949266D01*
X48918171Y-3945056D01*
X48916395Y-3940789D01*
X48914448Y-3936488D01*
X48912345Y-3932179D01*
X48910098Y-3927887D01*
X48907724Y-3923636D01*
X48905235Y-3919451D01*
X48902646Y-3915359D01*
X48899972Y-3911382D01*
X48897226Y-3907547D01*
X48894424Y-3903879D01*
X48891578Y-3900402D01*
X48888704Y-3897141D01*
X48885816Y-3894121D01*
X48881700Y-3890077D01*
X48877835Y-3886448D01*
X48874171Y-3883214D01*
X48870653Y-3880353D01*
X48867231Y-3877844D01*
X48863852Y-3875666D01*
X48860463Y-3873796D01*
X48857012Y-3872214D01*
X48853447Y-3870898D01*
X48849716Y-3869827D01*
X48845766Y-3868980D01*
X48841545Y-3868334D01*
X48837000Y-3867870D01*
X48832081Y-3867564D01*
X48826733Y-3867397D01*
X48820905Y-3867346D01*
X48815346Y-3867396D01*
X48810203Y-3867556D01*
X48805439Y-3867843D01*
X48801013Y-3868271D01*
X48796887Y-3868856D01*
X48793022Y-3869613D01*
X48789377Y-3870558D01*
X48787625Y-3871106D01*
X48785914Y-3871707D01*
X48784239Y-3872362D01*
X48782594Y-3873074D01*
X48780975Y-3873844D01*
X48779377Y-3874675D01*
X48777795Y-3875568D01*
X48776224Y-3876526D01*
X48773097Y-3878642D01*
X48769955Y-3881038D01*
X48766759Y-3883730D01*
X48763471Y-3886734D01*
X48760051Y-3890065D01*
X48755042Y-3895484D01*
X48750361Y-3901375D01*
X48746007Y-3907706D01*
X48741980Y-3914446D01*
X48738279Y-3921561D01*
X48734904Y-3929021D01*
X48731854Y-3936793D01*
X48729129Y-3944846D01*
X48724653Y-3961664D01*
X48721470Y-3979221D01*
X48719579Y-3997259D01*
X48718974Y-4015525D01*
X48478643Y-4015525D01*
X48478512Y-4011625D01*
X48479732Y-3977532D01*
X48483367Y-3942805D01*
X48485841Y-3926703D01*
X48488703Y-3911246D01*
X48491962Y-3896412D01*
X48495627Y-3882179D01*
X48499705Y-3868526D01*
X48504205Y-3855431D01*
X48509135Y-3842874D01*
X48514504Y-3830833D01*
X48520320Y-3819286D01*
X48526591Y-3808212D01*
X48533326Y-3797590D01*
X48540532Y-3787398D01*
X48548219Y-3777615D01*
X48556394Y-3768220D01*
X48565066Y-3759190D01*
X48574243Y-3750505D01*
X48583520Y-3742459D01*
X48592818Y-3735043D01*
X48602175Y-3728243D01*
X48611630Y-3722044D01*
X48621224Y-3716429D01*
X48630994Y-3711383D01*
X48640981Y-3706891D01*
X48651223Y-3702938D01*
X48661761Y-3699508D01*
X48672632Y-3696585D01*
X48683876Y-3694154D01*
X48695533Y-3692200D01*
X48707641Y-3690707D01*
X48720241Y-3689659D01*
X48733370Y-3689042D01*
X48747069Y-3688840D01*
X48758969Y-3689127D01*
X48770350Y-3689691D01*
X48781244Y-3690543D01*
X48791682Y-3691693D01*
X48801698Y-3693151D01*
X48811322Y-3694930D01*
X48820587Y-3697039D01*
X48829526Y-3699489D01*
X48838170Y-3702291D01*
X48846551Y-3705456D01*
X48854701Y-3708994D01*
X48862654Y-3712915D01*
X48870439Y-3717232D01*
X48878091Y-3721953D01*
X48885640Y-3727091D01*
X48893119Y-3732655D01*
X48898840Y-3736823D01*
X48904351Y-3740744D01*
X48909521Y-3744322D01*
X48914215Y-3747463D01*
X48918300Y-3750071D01*
X48920073Y-3751146D01*
X48921644Y-3752052D01*
X48922996Y-3752778D01*
X48924113Y-3753311D01*
X48924978Y-3753639D01*
X48925311Y-3753723D01*
X48925574Y-3753751D01*
X48926030Y-3752993D01*
X48926482Y-3750770D01*
X48927362Y-3742227D01*
X48928184Y-3728720D01*
X48928921Y-3710849D01*
X48930024Y-3664410D01*
X48930443Y-3607701D01*
X48930443Y-3461651D01*
X49173859Y-3461651D01*
X49173859Y-4329837D01*
G37*
G36*
X51665733Y-5399448D02*
G01*
X51768827Y-5400703D01*
X51863724Y-5403037D01*
X51939298Y-5406387D01*
X51984424Y-5410693D01*
X51997956Y-5413342D01*
X52011518Y-5416503D01*
X52025044Y-5420146D01*
X52038465Y-5424236D01*
X52051711Y-5428742D01*
X52064716Y-5433631D01*
X52077411Y-5438870D01*
X52089728Y-5444427D01*
X52101598Y-5450270D01*
X52112953Y-5456365D01*
X52123726Y-5462680D01*
X52133847Y-5469182D01*
X52143249Y-5475840D01*
X52151863Y-5482620D01*
X52159622Y-5489490D01*
X52166457Y-5496418D01*
X52172961Y-5503993D01*
X52179349Y-5512369D01*
X52185579Y-5521456D01*
X52191609Y-5531161D01*
X52197397Y-5541393D01*
X52202901Y-5552061D01*
X52208080Y-5563073D01*
X52212891Y-5574338D01*
X52217293Y-5585764D01*
X52221244Y-5597259D01*
X52224702Y-5608733D01*
X52227625Y-5620094D01*
X52229971Y-5631250D01*
X52231699Y-5642110D01*
X52232767Y-5652583D01*
X52233132Y-5662576D01*
X52232399Y-5684239D01*
X52230248Y-5706646D01*
X52226748Y-5729623D01*
X52221969Y-5752998D01*
X52215981Y-5776595D01*
X52208854Y-5800242D01*
X52200657Y-5823765D01*
X52191460Y-5846991D01*
X52181332Y-5869745D01*
X52170345Y-5891854D01*
X52158566Y-5913145D01*
X52146067Y-5933444D01*
X52132917Y-5952576D01*
X52119185Y-5970369D01*
X52104942Y-5986650D01*
X52090257Y-6001243D01*
X52071264Y-6017855D01*
X52051522Y-6033181D01*
X52030928Y-6047252D01*
X52009377Y-6060096D01*
X51986766Y-6071744D01*
X51962990Y-6082224D01*
X51937947Y-6091566D01*
X51911531Y-6099800D01*
X51883639Y-6106955D01*
X51854168Y-6113060D01*
X51823013Y-6118146D01*
X51790070Y-6122240D01*
X51755237Y-6125374D01*
X51718408Y-6127575D01*
X51679479Y-6128875D01*
X51638348Y-6129301D01*
X51494415Y-6129301D01*
X51459490Y-6274293D01*
X51452675Y-6303947D01*
X51445848Y-6332138D01*
X51439194Y-6358195D01*
X51432899Y-6381449D01*
X51427151Y-6401231D01*
X51422134Y-6416870D01*
X51419958Y-6422927D01*
X51418035Y-6427698D01*
X51416388Y-6431097D01*
X51415040Y-6433043D01*
X51413450Y-6434767D01*
X51411051Y-6436369D01*
X51407827Y-6437850D01*
X51403762Y-6439211D01*
X51398842Y-6440455D01*
X51393051Y-6441582D01*
X51378792Y-6443494D01*
X51360863Y-6444960D01*
X51339138Y-6445991D01*
X51313494Y-6446601D01*
X51283807Y-6446801D01*
X51265870Y-6446762D01*
X51249701Y-6446638D01*
X51235205Y-6446418D01*
X51222291Y-6446090D01*
X51210866Y-6445645D01*
X51200835Y-6445071D01*
X51196314Y-6444733D01*
X51192107Y-6444358D01*
X51188202Y-6443945D01*
X51184588Y-6443494D01*
X51181253Y-6443002D01*
X51178186Y-6442469D01*
X51175374Y-6441893D01*
X51172806Y-6441272D01*
X51170471Y-6440605D01*
X51168357Y-6439892D01*
X51166452Y-6439130D01*
X51164745Y-6438318D01*
X51163223Y-6437455D01*
X51161876Y-6436540D01*
X51160692Y-6435570D01*
X51159660Y-6434546D01*
X51158766Y-6433465D01*
X51158001Y-6432325D01*
X51157352Y-6431127D01*
X51156807Y-6429868D01*
X51164866Y-6382638D01*
X51189533Y-6267133D01*
X51267800Y-5921736D01*
X51277646Y-5880064D01*
X51552805Y-5880064D01*
X51552824Y-5883861D01*
X51553156Y-5887323D01*
X51553826Y-5890463D01*
X51554858Y-5893293D01*
X51556275Y-5895825D01*
X51558100Y-5898072D01*
X51560359Y-5900046D01*
X51563074Y-5901760D01*
X51566271Y-5903225D01*
X51569971Y-5904455D01*
X51574200Y-5905462D01*
X51578981Y-5906258D01*
X51590294Y-5907266D01*
X51604102Y-5907581D01*
X51620594Y-5907299D01*
X51639963Y-5906522D01*
X51688090Y-5903876D01*
X51710734Y-5902405D01*
X51731527Y-5900734D01*
X51750603Y-5898816D01*
X51768094Y-5896600D01*
X51784133Y-5894037D01*
X51798856Y-5891077D01*
X51805764Y-5889433D01*
X51812393Y-5887671D01*
X51818760Y-5885784D01*
X51824880Y-5883768D01*
X51830771Y-5881615D01*
X51836449Y-5879320D01*
X51841930Y-5876875D01*
X51847233Y-5874276D01*
X51852373Y-5871515D01*
X51857366Y-5868588D01*
X51862230Y-5865486D01*
X51866981Y-5862204D01*
X51871637Y-5858737D01*
X51876212Y-5855077D01*
X51880725Y-5851219D01*
X51885192Y-5847156D01*
X51894054Y-5838392D01*
X51902932Y-5828735D01*
X51908021Y-5822783D01*
X51912591Y-5817186D01*
X51916668Y-5811878D01*
X51920278Y-5806791D01*
X51923448Y-5801859D01*
X51926205Y-5797016D01*
X51928573Y-5792194D01*
X51930581Y-5787327D01*
X51932253Y-5782349D01*
X51933617Y-5777193D01*
X51934699Y-5771791D01*
X51935525Y-5766078D01*
X51936122Y-5759987D01*
X51936515Y-5753450D01*
X51936732Y-5746402D01*
X51936798Y-5738776D01*
X51936718Y-5732898D01*
X51936476Y-5727167D01*
X51936073Y-5721584D01*
X51935508Y-5716148D01*
X51934783Y-5710859D01*
X51933896Y-5705716D01*
X51932848Y-5700717D01*
X51931639Y-5695864D01*
X51930269Y-5691155D01*
X51928737Y-5686590D01*
X51927044Y-5682167D01*
X51925190Y-5677887D01*
X51923174Y-5673749D01*
X51920998Y-5669752D01*
X51918660Y-5665896D01*
X51916161Y-5662179D01*
X51913501Y-5658603D01*
X51910679Y-5655165D01*
X51907696Y-5651866D01*
X51904552Y-5648704D01*
X51901247Y-5645680D01*
X51897781Y-5642792D01*
X51894153Y-5640041D01*
X51890364Y-5637424D01*
X51886414Y-5634943D01*
X51882303Y-5632596D01*
X51878030Y-5630383D01*
X51873596Y-5628302D01*
X51869001Y-5626355D01*
X51864245Y-5624539D01*
X51859327Y-5622855D01*
X51854248Y-5621301D01*
X51844424Y-5619327D01*
X51831213Y-5617415D01*
X51815200Y-5615627D01*
X51796966Y-5614025D01*
X51777096Y-5612671D01*
X51756171Y-5611628D01*
X51734775Y-5610956D01*
X51713490Y-5610718D01*
X51610832Y-5610718D01*
X51592840Y-5692210D01*
X51584903Y-5729136D01*
X51576172Y-5768542D01*
X51561090Y-5836143D01*
X51555391Y-5861278D01*
X51553614Y-5871415D01*
X51552805Y-5880064D01*
X51277646Y-5880064D01*
X51349837Y-5574553D01*
X51379216Y-5456815D01*
X51393874Y-5406460D01*
X51400959Y-5404449D01*
X51418511Y-5402778D01*
X51479450Y-5400424D01*
X51565565Y-5399334D01*
X51665733Y-5399448D01*
G37*
G36*
X53214576Y-3607701D02*
G01*
X53214723Y-3637039D01*
X53215146Y-3664410D01*
X53215817Y-3689212D01*
X53216706Y-3710849D01*
X53217785Y-3728720D01*
X53218387Y-3736057D01*
X53219026Y-3742227D01*
X53219698Y-3747156D01*
X53220400Y-3750770D01*
X53221128Y-3752993D01*
X53221500Y-3753560D01*
X53221878Y-3753751D01*
X53222268Y-3753735D01*
X53222676Y-3753686D01*
X53223544Y-3753493D01*
X53224476Y-3753179D01*
X53225466Y-3752750D01*
X53226509Y-3752211D01*
X53227598Y-3751569D01*
X53228727Y-3750830D01*
X53229891Y-3749998D01*
X53231083Y-3749082D01*
X53232298Y-3748086D01*
X53233529Y-3747016D01*
X53234772Y-3745878D01*
X53236019Y-3744679D01*
X53237265Y-3743423D01*
X53238503Y-3742118D01*
X53239729Y-3740769D01*
X53240952Y-3739469D01*
X53242475Y-3738015D01*
X53246334Y-3734709D01*
X53251125Y-3730985D01*
X53256667Y-3726975D01*
X53262779Y-3722814D01*
X53269281Y-3718633D01*
X53275992Y-3714567D01*
X53282732Y-3710748D01*
X53287823Y-3708140D01*
X53292806Y-3705787D01*
X53297763Y-3703677D01*
X53302776Y-3701797D01*
X53307926Y-3700136D01*
X53313297Y-3698681D01*
X53318969Y-3697422D01*
X53325026Y-3696345D01*
X53331548Y-3695440D01*
X53338618Y-3694694D01*
X53346318Y-3694095D01*
X53354730Y-3693632D01*
X53374018Y-3693065D01*
X53397138Y-3692897D01*
X53421168Y-3693036D01*
X53431513Y-3693239D01*
X53440890Y-3693556D01*
X53449406Y-3694006D01*
X53457170Y-3694608D01*
X53464289Y-3695382D01*
X53470873Y-3696345D01*
X53477029Y-3697518D01*
X53482865Y-3698919D01*
X53488489Y-3700567D01*
X53494010Y-3702482D01*
X53499536Y-3704681D01*
X53505175Y-3707185D01*
X53511035Y-3710012D01*
X53517224Y-3713182D01*
X53531913Y-3721244D01*
X53545857Y-3730211D01*
X53559049Y-3740078D01*
X53571485Y-3750835D01*
X53583161Y-3762477D01*
X53594071Y-3774996D01*
X53604211Y-3788385D01*
X53613576Y-3802637D01*
X53622161Y-3817745D01*
X53629962Y-3833702D01*
X53636974Y-3850499D01*
X53643192Y-3868132D01*
X53648611Y-3886591D01*
X53653226Y-3905871D01*
X53657034Y-3925963D01*
X53660028Y-3946862D01*
X53661843Y-3962908D01*
X53663182Y-3978785D01*
X53664052Y-3994483D01*
X53664458Y-4009988D01*
X53664403Y-4025291D01*
X53663895Y-4040379D01*
X53662938Y-4055240D01*
X53661537Y-4069863D01*
X53659697Y-4084237D01*
X53657424Y-4098349D01*
X53654723Y-4112189D01*
X53651599Y-4125744D01*
X53648057Y-4139004D01*
X53644103Y-4151956D01*
X53639741Y-4164588D01*
X53634977Y-4176890D01*
X53629816Y-4188850D01*
X53624263Y-4200456D01*
X53618323Y-4211696D01*
X53612003Y-4222560D01*
X53605306Y-4233034D01*
X53598238Y-4243109D01*
X53590804Y-4252771D01*
X53583010Y-4262010D01*
X53574860Y-4270814D01*
X53566360Y-4279172D01*
X53557515Y-4287071D01*
X53548330Y-4294501D01*
X53538811Y-4301449D01*
X53528963Y-4307904D01*
X53518790Y-4313855D01*
X53508298Y-4319289D01*
X53494777Y-4325356D01*
X53488494Y-4327939D01*
X53482435Y-4330243D01*
X53476528Y-4332280D01*
X53470702Y-4334065D01*
X53464885Y-4335613D01*
X53459007Y-4336937D01*
X53452995Y-4338052D01*
X53446779Y-4338972D01*
X53440287Y-4339711D01*
X53433448Y-4340284D01*
X53426191Y-4340705D01*
X53418444Y-4340987D01*
X53401195Y-4341197D01*
X53387818Y-4340984D01*
X53375041Y-4340336D01*
X53362814Y-4339234D01*
X53351092Y-4337659D01*
X53339826Y-4335596D01*
X53328969Y-4333024D01*
X53318473Y-4329927D01*
X53308291Y-4326287D01*
X53298375Y-4322086D01*
X53288678Y-4317307D01*
X53279152Y-4311930D01*
X53269750Y-4305939D01*
X53260424Y-4299316D01*
X53251126Y-4292043D01*
X53241809Y-4284101D01*
X53232426Y-4275474D01*
X53198348Y-4243019D01*
X53198348Y-4329837D01*
X52971159Y-4329837D01*
X52971159Y-4015405D01*
X53214284Y-4015405D01*
X53214859Y-4029257D01*
X53216146Y-4042922D01*
X53218126Y-4056298D01*
X53220780Y-4069284D01*
X53224092Y-4081779D01*
X53228043Y-4093682D01*
X53232616Y-4104892D01*
X53237793Y-4115309D01*
X53243556Y-4124830D01*
X53246651Y-4129223D01*
X53249887Y-4133355D01*
X53253260Y-4137213D01*
X53256768Y-4140784D01*
X53260331Y-4144114D01*
X53263747Y-4147118D01*
X53267059Y-4149810D01*
X53270308Y-4152206D01*
X53273539Y-4154322D01*
X53276793Y-4156173D01*
X53280114Y-4157774D01*
X53283544Y-4159141D01*
X53287126Y-4160290D01*
X53290903Y-4161235D01*
X53294918Y-4161992D01*
X53299213Y-4162577D01*
X53303832Y-4163005D01*
X53308817Y-4163292D01*
X53314211Y-4163452D01*
X53320056Y-4163502D01*
X53331393Y-4163062D01*
X53341987Y-4161724D01*
X53347011Y-4160713D01*
X53351856Y-4159470D01*
X53356525Y-4157992D01*
X53361019Y-4156276D01*
X53365340Y-4154320D01*
X53369491Y-4152122D01*
X53373475Y-4149678D01*
X53377292Y-4146986D01*
X53380947Y-4144044D01*
X53384440Y-4140847D01*
X53387774Y-4137395D01*
X53390951Y-4133684D01*
X53393974Y-4129711D01*
X53396845Y-4125475D01*
X53399566Y-4120971D01*
X53402138Y-4116198D01*
X53406849Y-4105832D01*
X53410995Y-4094357D01*
X53414595Y-4081750D01*
X53417666Y-4067990D01*
X53420225Y-4053056D01*
X53422292Y-4036926D01*
X53423280Y-4024642D01*
X53423813Y-4012744D01*
X53423889Y-4001239D01*
X53423508Y-3990131D01*
X53422672Y-3979428D01*
X53421378Y-3969135D01*
X53419629Y-3959258D01*
X53417423Y-3949803D01*
X53414760Y-3940776D01*
X53411642Y-3932182D01*
X53408066Y-3924028D01*
X53404035Y-3916321D01*
X53399547Y-3909064D01*
X53394602Y-3902265D01*
X53391959Y-3899040D01*
X53389202Y-3895930D01*
X53386330Y-3892938D01*
X53383344Y-3890065D01*
X53378444Y-3885808D01*
X53373339Y-3882011D01*
X53368050Y-3878666D01*
X53362597Y-3875765D01*
X53356999Y-3873303D01*
X53351275Y-3871272D01*
X53345445Y-3869664D01*
X53339529Y-3868474D01*
X53333547Y-3867694D01*
X53327518Y-3867316D01*
X53321461Y-3867335D01*
X53315397Y-3867743D01*
X53309344Y-3868533D01*
X53303324Y-3869699D01*
X53297354Y-3871232D01*
X53291455Y-3873127D01*
X53285646Y-3875376D01*
X53279947Y-3877971D01*
X53274378Y-3880908D01*
X53268958Y-3884177D01*
X53263706Y-3887773D01*
X53258643Y-3891688D01*
X53253788Y-3895915D01*
X53249161Y-3900448D01*
X53244781Y-3905279D01*
X53240668Y-3910401D01*
X53236841Y-3915808D01*
X53233320Y-3921492D01*
X53230125Y-3927446D01*
X53227275Y-3933664D01*
X53224790Y-3940138D01*
X53222690Y-3946862D01*
X53219444Y-3960138D01*
X53216999Y-3973731D01*
X53215335Y-3987541D01*
X53214436Y-4001466D01*
X53214284Y-4015405D01*
X52971159Y-4015405D01*
X52971159Y-3461651D01*
X53214576Y-3461651D01*
X53214576Y-3607701D01*
G37*
G36*
X48079173Y-6159993D02*
G01*
X48074812Y-6167759D01*
X48068292Y-6178067D01*
X48059937Y-6190484D01*
X48050069Y-6204575D01*
X48039010Y-6219907D01*
X48027084Y-6236044D01*
X48014611Y-6252554D01*
X48001915Y-6269001D01*
X47963303Y-6315146D01*
X47922116Y-6359501D01*
X47878409Y-6402040D01*
X47832234Y-6442733D01*
X47783648Y-6481554D01*
X47732704Y-6518474D01*
X47679455Y-6553466D01*
X47623958Y-6586501D01*
X47566265Y-6617552D01*
X47506431Y-6646591D01*
X47444511Y-6673589D01*
X47380558Y-6698519D01*
X47314626Y-6721354D01*
X47246771Y-6742064D01*
X47177047Y-6760622D01*
X47105507Y-6777001D01*
X47073151Y-6783140D01*
X47038997Y-6788459D01*
X47003355Y-6792956D01*
X46966534Y-6796630D01*
X46928846Y-6799479D01*
X46890599Y-6801502D01*
X46852104Y-6802697D01*
X46813671Y-6803063D01*
X46775611Y-6802597D01*
X46738232Y-6801300D01*
X46701846Y-6799168D01*
X46666761Y-6796200D01*
X46633290Y-6792396D01*
X46601740Y-6787752D01*
X46572423Y-6782269D01*
X46545648Y-6775943D01*
X46488247Y-6759582D01*
X46433905Y-6741442D01*
X46382605Y-6721507D01*
X46334329Y-6699760D01*
X46289061Y-6676183D01*
X46246783Y-6650760D01*
X46226760Y-6637351D01*
X46207479Y-6623474D01*
X46188936Y-6609126D01*
X46171131Y-6594307D01*
X46154060Y-6579013D01*
X46137722Y-6563242D01*
X46122115Y-6546993D01*
X46107236Y-6530263D01*
X46093083Y-6513050D01*
X46079655Y-6495352D01*
X46066948Y-6477167D01*
X46054962Y-6458493D01*
X46043693Y-6439327D01*
X46033140Y-6419667D01*
X46023301Y-6399512D01*
X46014173Y-6378859D01*
X46005754Y-6357706D01*
X45998042Y-6336051D01*
X45991036Y-6313892D01*
X45984732Y-6291226D01*
X45977503Y-6262509D01*
X45974735Y-6250971D01*
X45972544Y-6241270D01*
X45970943Y-6233373D01*
X45969942Y-6227249D01*
X45969670Y-6224841D01*
X45969551Y-6222864D01*
X45969589Y-6221313D01*
X45969783Y-6220186D01*
X45970135Y-6219477D01*
X45970646Y-6219182D01*
X45971319Y-6219298D01*
X45972154Y-6219820D01*
X45973152Y-6220744D01*
X45974315Y-6222067D01*
X45977141Y-6225891D01*
X45980644Y-6231259D01*
X45984833Y-6238138D01*
X45995315Y-6256301D01*
X46022537Y-6299667D01*
X46052951Y-6340048D01*
X46086475Y-6377413D01*
X46123026Y-6411728D01*
X46162523Y-6442961D01*
X46204884Y-6471079D01*
X46250025Y-6496050D01*
X46297866Y-6517842D01*
X46348324Y-6536421D01*
X46401316Y-6551756D01*
X46456761Y-6563814D01*
X46514576Y-6572561D01*
X46574680Y-6577966D01*
X46636990Y-6579996D01*
X46701423Y-6578619D01*
X46767898Y-6573801D01*
X46834766Y-6566164D01*
X46899613Y-6556360D01*
X46962405Y-6544403D01*
X47023106Y-6530310D01*
X47081679Y-6514097D01*
X47138090Y-6495778D01*
X47192302Y-6475370D01*
X47244281Y-6452887D01*
X47293989Y-6428345D01*
X47341393Y-6401760D01*
X47386456Y-6373147D01*
X47429142Y-6342522D01*
X47469415Y-6309901D01*
X47507241Y-6275298D01*
X47542584Y-6238729D01*
X47575407Y-6200210D01*
X47632557Y-6129301D01*
X48096107Y-6129301D01*
X48079173Y-6159993D01*
G37*
G36*
X53800000Y-5400000D02*
G01*
X53887588Y-5401846D01*
X53958134Y-5404709D01*
X54001607Y-5408576D01*
X54033727Y-5414413D01*
X54063453Y-5420840D01*
X54090848Y-5427903D01*
X54103690Y-5431687D01*
X54115973Y-5435646D01*
X54127704Y-5439787D01*
X54138890Y-5444115D01*
X54149541Y-5448636D01*
X54159662Y-5453355D01*
X54169263Y-5458278D01*
X54178351Y-5463410D01*
X54186933Y-5468757D01*
X54195017Y-5474325D01*
X54202612Y-5480120D01*
X54209724Y-5486146D01*
X54216362Y-5492410D01*
X54222534Y-5498917D01*
X54228246Y-5505673D01*
X54233508Y-5512683D01*
X54238326Y-5519954D01*
X54242708Y-5527490D01*
X54246663Y-5535297D01*
X54250197Y-5543382D01*
X54253319Y-5551749D01*
X54256036Y-5560404D01*
X54258357Y-5569353D01*
X54260288Y-5578601D01*
X54261838Y-5588154D01*
X54263015Y-5598018D01*
X54263767Y-5608867D01*
X54264045Y-5619772D01*
X54263859Y-5630714D01*
X54263219Y-5641676D01*
X54262135Y-5652639D01*
X54260617Y-5663584D01*
X54258675Y-5674493D01*
X54256317Y-5685347D01*
X54253556Y-5696129D01*
X54250399Y-5706819D01*
X54246858Y-5717399D01*
X54242942Y-5727852D01*
X54238660Y-5738158D01*
X54234024Y-5748299D01*
X54229042Y-5758257D01*
X54223724Y-5768013D01*
X54218081Y-5777549D01*
X54212123Y-5786846D01*
X54205858Y-5795886D01*
X54199298Y-5804651D01*
X54192452Y-5813123D01*
X54185329Y-5821282D01*
X54177940Y-5829110D01*
X54170295Y-5836589D01*
X54162403Y-5843701D01*
X54154275Y-5850428D01*
X54145920Y-5856750D01*
X54137348Y-5862649D01*
X54128569Y-5868107D01*
X54119593Y-5873106D01*
X54110430Y-5877627D01*
X54101090Y-5881651D01*
X54092559Y-5885369D01*
X54084837Y-5888971D01*
X54081282Y-5890723D01*
X54077935Y-5892439D01*
X54074797Y-5894118D01*
X54071870Y-5895757D01*
X54069155Y-5897354D01*
X54066654Y-5898907D01*
X54064369Y-5900414D01*
X54062302Y-5901873D01*
X54060454Y-5903282D01*
X54058827Y-5904638D01*
X54057423Y-5905939D01*
X54056243Y-5907184D01*
X54055290Y-5908369D01*
X54054565Y-5909494D01*
X54054070Y-5910555D01*
X54053806Y-5911551D01*
X54053776Y-5912480D01*
X54053849Y-5912918D01*
X54053980Y-5913339D01*
X54054172Y-5913742D01*
X54054422Y-5914126D01*
X54055102Y-5914840D01*
X54056023Y-5915478D01*
X54057185Y-5916037D01*
X54058591Y-5916516D01*
X54060243Y-5916913D01*
X54062142Y-5917226D01*
X54064290Y-5917451D01*
X54066689Y-5917588D01*
X54069340Y-5917635D01*
X54071158Y-5917867D01*
X54073414Y-5918548D01*
X54076077Y-5919658D01*
X54079113Y-5921173D01*
X54082490Y-5923074D01*
X54086176Y-5925337D01*
X54090138Y-5927940D01*
X54094343Y-5930864D01*
X54098759Y-5934085D01*
X54103353Y-5937582D01*
X54112947Y-5945317D01*
X54117881Y-5949511D01*
X54122862Y-5953895D01*
X54127860Y-5958446D01*
X54132840Y-5963143D01*
X54148256Y-5978075D01*
X54154527Y-5984463D01*
X54159927Y-5990329D01*
X54164520Y-5995823D01*
X54168373Y-6001094D01*
X54170042Y-6003692D01*
X54171549Y-6006291D01*
X54172905Y-6008908D01*
X54174115Y-6011562D01*
X54175189Y-6014272D01*
X54176135Y-6017056D01*
X54176961Y-6019933D01*
X54177675Y-6022922D01*
X54178799Y-6029309D01*
X54179572Y-6036366D01*
X54180060Y-6044242D01*
X54180329Y-6053085D01*
X54180465Y-6074268D01*
X54180264Y-6086607D01*
X54179663Y-6098818D01*
X54178664Y-6110896D01*
X54177272Y-6122836D01*
X54175487Y-6134632D01*
X54173314Y-6146282D01*
X54170756Y-6157780D01*
X54167815Y-6169121D01*
X54164494Y-6180301D01*
X54160796Y-6191315D01*
X54156724Y-6202159D01*
X54152281Y-6212827D01*
X54147470Y-6223315D01*
X54142293Y-6233620D01*
X54136754Y-6243734D01*
X54130856Y-6253655D01*
X54124601Y-6263378D01*
X54117992Y-6272898D01*
X54111033Y-6282210D01*
X54103726Y-6291309D01*
X54096073Y-6300191D01*
X54088079Y-6308852D01*
X54079746Y-6317286D01*
X54071076Y-6325490D01*
X54062073Y-6333458D01*
X54052740Y-6341185D01*
X54043079Y-6348668D01*
X54033094Y-6355900D01*
X54022787Y-6362879D01*
X54012161Y-6369599D01*
X54001220Y-6376055D01*
X53989965Y-6382243D01*
X53952512Y-6400818D01*
X53933957Y-6408637D01*
X53914972Y-6415547D01*
X53895150Y-6421602D01*
X53874084Y-6426854D01*
X53851365Y-6431356D01*
X53826585Y-6435160D01*
X53799337Y-6438319D01*
X53769214Y-6440885D01*
X53698709Y-6444453D01*
X53611807Y-6446285D01*
X53505249Y-6446801D01*
X53422174Y-6446681D01*
X53387558Y-6446508D01*
X53357181Y-6446239D01*
X53330760Y-6445858D01*
X53308014Y-6445350D01*
X53288660Y-6444700D01*
X53280166Y-6444316D01*
X53272415Y-6443891D01*
X53265371Y-6443422D01*
X53258998Y-6442909D01*
X53253262Y-6442347D01*
X53248127Y-6441737D01*
X53243558Y-6441076D01*
X53239519Y-6440361D01*
X53235976Y-6439591D01*
X53232893Y-6438765D01*
X53230234Y-6437879D01*
X53227966Y-6436933D01*
X53226051Y-6435923D01*
X53224455Y-6434850D01*
X53223143Y-6433709D01*
X53222080Y-6432500D01*
X53221229Y-6431220D01*
X53220557Y-6429868D01*
X53228616Y-6382681D01*
X53253282Y-6267281D01*
X53266784Y-6207739D01*
X53546754Y-6207739D01*
X53546849Y-6210149D01*
X53547073Y-6212355D01*
X53547425Y-6214379D01*
X53547904Y-6216241D01*
X53548191Y-6217118D01*
X53548509Y-6217962D01*
X53549240Y-6219562D01*
X53550096Y-6221062D01*
X53551075Y-6222483D01*
X53552178Y-6223846D01*
X53553403Y-6225171D01*
X53554750Y-6226480D01*
X53556218Y-6227792D01*
X53557807Y-6229129D01*
X53561340Y-6231960D01*
X53564625Y-6234218D01*
X53568168Y-6236234D01*
X53572030Y-6238015D01*
X53576273Y-6239566D01*
X53580955Y-6240894D01*
X53586139Y-6242006D01*
X53591883Y-6242906D01*
X53598250Y-6243601D01*
X53605298Y-6244098D01*
X53613089Y-6244403D01*
X53631141Y-6244461D01*
X53652888Y-6243825D01*
X53678816Y-6242543D01*
X53705657Y-6240544D01*
X53718377Y-6239235D01*
X53730632Y-6237716D01*
X53742426Y-6235988D01*
X53753760Y-6234048D01*
X53764636Y-6231896D01*
X53775058Y-6229529D01*
X53785026Y-6226947D01*
X53794545Y-6224147D01*
X53803615Y-6221130D01*
X53812240Y-6217893D01*
X53820421Y-6214436D01*
X53828161Y-6210756D01*
X53835463Y-6206852D01*
X53842328Y-6202723D01*
X53848759Y-6198368D01*
X53854758Y-6193785D01*
X53860328Y-6188974D01*
X53865471Y-6183932D01*
X53870188Y-6178658D01*
X53874484Y-6173151D01*
X53878359Y-6167409D01*
X53881817Y-6161432D01*
X53884859Y-6155217D01*
X53887488Y-6148764D01*
X53889706Y-6142071D01*
X53891515Y-6135137D01*
X53892919Y-6127960D01*
X53893918Y-6120539D01*
X53894516Y-6112873D01*
X53894715Y-6104960D01*
X53894617Y-6100523D01*
X53894322Y-6096146D01*
X53893835Y-6091831D01*
X53893159Y-6087582D01*
X53892295Y-6083402D01*
X53891248Y-6079294D01*
X53890020Y-6075261D01*
X53888613Y-6071308D01*
X53887032Y-6067437D01*
X53885278Y-6063651D01*
X53883355Y-6059954D01*
X53881265Y-6056349D01*
X53879012Y-6052839D01*
X53876598Y-6049428D01*
X53874026Y-6046119D01*
X53871299Y-6042915D01*
X53868421Y-6039819D01*
X53865394Y-6036836D01*
X53862220Y-6033967D01*
X53858903Y-6031217D01*
X53855446Y-6028589D01*
X53851852Y-6026086D01*
X53848123Y-6023711D01*
X53844262Y-6021467D01*
X53840273Y-6019358D01*
X53836158Y-6017388D01*
X53831920Y-6015559D01*
X53827562Y-6013875D01*
X53823088Y-6012339D01*
X53818499Y-6010954D01*
X53813798Y-6009724D01*
X53808990Y-6008651D01*
X53800591Y-6007349D01*
X53789919Y-6006220D01*
X53763184Y-6004484D01*
X53731637Y-6003442D01*
X53698130Y-6003095D01*
X53665516Y-6003442D01*
X53636647Y-6004484D01*
X53614377Y-6006220D01*
X53606607Y-6007349D01*
X53601557Y-6008651D01*
X53600246Y-6009759D01*
X53598708Y-6011855D01*
X53596966Y-6014888D01*
X53595041Y-6018805D01*
X53590730Y-6029078D01*
X53585947Y-6042253D01*
X53580866Y-6057909D01*
X53575661Y-6075624D01*
X53570506Y-6094976D01*
X53565574Y-6115543D01*
X53561294Y-6133070D01*
X53557578Y-6148457D01*
X53554421Y-6161868D01*
X53551815Y-6173470D01*
X53550718Y-6178645D01*
X53549756Y-6183429D01*
X53548928Y-6187844D01*
X53548235Y-6191910D01*
X53547675Y-6195649D01*
X53547248Y-6199080D01*
X53546953Y-6202225D01*
X53546788Y-6205104D01*
X53546754Y-6207739D01*
X53266784Y-6207739D01*
X53331549Y-5922133D01*
X53356293Y-5817430D01*
X53636209Y-5817430D01*
X53636251Y-5819797D01*
X53636388Y-5821970D01*
X53636620Y-5823960D01*
X53636945Y-5825775D01*
X53637363Y-5827423D01*
X53637874Y-5828915D01*
X53638476Y-5830260D01*
X53639169Y-5831465D01*
X53639952Y-5832541D01*
X53640824Y-5833497D01*
X53641784Y-5834342D01*
X53642832Y-5835085D01*
X53645488Y-5836583D01*
X53648865Y-5837905D01*
X53657611Y-5840035D01*
X53668733Y-5841505D01*
X53681891Y-5842344D01*
X53696749Y-5842582D01*
X53712967Y-5842247D01*
X53730209Y-5841370D01*
X53748136Y-5839979D01*
X53766410Y-5838105D01*
X53784694Y-5835777D01*
X53802649Y-5833024D01*
X53819937Y-5829876D01*
X53836221Y-5826361D01*
X53851162Y-5822511D01*
X53864423Y-5818353D01*
X53875665Y-5813918D01*
X53884119Y-5809953D01*
X53892213Y-5805615D01*
X53899940Y-5800926D01*
X53907293Y-5795910D01*
X53914266Y-5790590D01*
X53920851Y-5784990D01*
X53927042Y-5779132D01*
X53932832Y-5773040D01*
X53938214Y-5766737D01*
X53943182Y-5760247D01*
X53947728Y-5753592D01*
X53951847Y-5746797D01*
X53955530Y-5739883D01*
X53958772Y-5732875D01*
X53961566Y-5725795D01*
X53963904Y-5718668D01*
X53965780Y-5711516D01*
X53967188Y-5704362D01*
X53968119Y-5697230D01*
X53968569Y-5690143D01*
X53968530Y-5683124D01*
X53967994Y-5676196D01*
X53966956Y-5669383D01*
X53965408Y-5662709D01*
X53963345Y-5656195D01*
X53960758Y-5649866D01*
X53957641Y-5643745D01*
X53953988Y-5637854D01*
X53949791Y-5632218D01*
X53945044Y-5626860D01*
X53939741Y-5621802D01*
X53933873Y-5617068D01*
X53929294Y-5613841D01*
X53924625Y-5610898D01*
X53919777Y-5608224D01*
X53914658Y-5605807D01*
X53909180Y-5603631D01*
X53903252Y-5601683D01*
X53896785Y-5599949D01*
X53889688Y-5598415D01*
X53881872Y-5597067D01*
X53873247Y-5595891D01*
X53863722Y-5594873D01*
X53853209Y-5594000D01*
X53828854Y-5592629D01*
X53799465Y-5591668D01*
X53778503Y-5591071D01*
X53758769Y-5590858D01*
X53740697Y-5591017D01*
X53732419Y-5591232D01*
X53724720Y-5591536D01*
X53717654Y-5591926D01*
X53711274Y-5592402D01*
X53705635Y-5592961D01*
X53700792Y-5593603D01*
X53696798Y-5594325D01*
X53693708Y-5595126D01*
X53692519Y-5595556D01*
X53691576Y-5596005D01*
X53690886Y-5596473D01*
X53690457Y-5596960D01*
X53688741Y-5601098D01*
X53686058Y-5609230D01*
X53678286Y-5635589D01*
X53668132Y-5672267D01*
X53656590Y-5715493D01*
X53652645Y-5731405D01*
X53649141Y-5745852D01*
X53646070Y-5758907D01*
X53643427Y-5770642D01*
X53641206Y-5781131D01*
X53639401Y-5790447D01*
X53638004Y-5798661D01*
X53637458Y-5802379D01*
X53637011Y-5805848D01*
X53636664Y-5809079D01*
X53636415Y-5812080D01*
X53636264Y-5814861D01*
X53636209Y-5817430D01*
X53356293Y-5817430D01*
X53413587Y-5574999D01*
X53442966Y-5457119D01*
X53457623Y-5406460D01*
X53464000Y-5404611D01*
X53479912Y-5403035D01*
X53535328Y-5400688D01*
X53613837Y-5399409D01*
X53705406Y-5399184D01*
X53800000Y-5400000D01*
G37*
G36*
X46457550Y-5452547D02*
G01*
X46468409Y-5452898D01*
X46478874Y-5453553D01*
X46488680Y-5454515D01*
X46497563Y-5455786D01*
X46505256Y-5457371D01*
X46511495Y-5459272D01*
X46513987Y-5460343D01*
X46516015Y-5461493D01*
X46517984Y-5463152D01*
X46519517Y-5465838D01*
X46520596Y-5469683D01*
X46521207Y-5474821D01*
X46521335Y-5481386D01*
X46520964Y-5489510D01*
X46518661Y-5510970D01*
X46514175Y-5540269D01*
X46507383Y-5578472D01*
X46486382Y-5685860D01*
X46477886Y-5727032D01*
X46469810Y-5764565D01*
X46462079Y-5798662D01*
X46454615Y-5829528D01*
X46447344Y-5857369D01*
X46440189Y-5882387D01*
X46433075Y-5904789D01*
X46425924Y-5924778D01*
X46422312Y-5933932D01*
X46418663Y-5942560D01*
X46414966Y-5950687D01*
X46411213Y-5958339D01*
X46407394Y-5965541D01*
X46403500Y-5972320D01*
X46399521Y-5978700D01*
X46395448Y-5984707D01*
X46391270Y-5990366D01*
X46386980Y-5995704D01*
X46382566Y-6000746D01*
X46378020Y-6005518D01*
X46373333Y-6010044D01*
X46368494Y-6014351D01*
X46363494Y-6018465D01*
X46358323Y-6022410D01*
X46348224Y-6029495D01*
X46337789Y-6036067D01*
X46327049Y-6042127D01*
X46316035Y-6047677D01*
X46304778Y-6052719D01*
X46293309Y-6057254D01*
X46281657Y-6061284D01*
X46269853Y-6064809D01*
X46257929Y-6067832D01*
X46245914Y-6070355D01*
X46233840Y-6072378D01*
X46221736Y-6073904D01*
X46209634Y-6074934D01*
X46197565Y-6075469D01*
X46185558Y-6075511D01*
X46173644Y-6075062D01*
X46161855Y-6074123D01*
X46150220Y-6072695D01*
X46138770Y-6070781D01*
X46127536Y-6068381D01*
X46116549Y-6065498D01*
X46105839Y-6062132D01*
X46095437Y-6058286D01*
X46085373Y-6053961D01*
X46075677Y-6049159D01*
X46066382Y-6043880D01*
X46057517Y-6038127D01*
X46049112Y-6031902D01*
X46041199Y-6025205D01*
X46033808Y-6018038D01*
X46026970Y-6010403D01*
X46020715Y-6002301D01*
X46016086Y-5995749D01*
X46012155Y-5989916D01*
X46008979Y-5984702D01*
X46006609Y-5980010D01*
X46005745Y-5977828D01*
X46005102Y-5975740D01*
X46004689Y-5973731D01*
X46004511Y-5971792D01*
X46004576Y-5969907D01*
X46004891Y-5968067D01*
X46005462Y-5966257D01*
X46006295Y-5964466D01*
X46007399Y-5962681D01*
X46008779Y-5960890D01*
X46010442Y-5959080D01*
X46012395Y-5957239D01*
X46014645Y-5955355D01*
X46017199Y-5953415D01*
X46023245Y-5949319D01*
X46030587Y-5944850D01*
X46039279Y-5939909D01*
X46060932Y-5928218D01*
X46105382Y-5902818D01*
X46135015Y-5931393D01*
X46138251Y-5934388D01*
X46141603Y-5937222D01*
X46145065Y-5939893D01*
X46148629Y-5942402D01*
X46152287Y-5944748D01*
X46156032Y-5946932D01*
X46163755Y-5950807D01*
X46171739Y-5954025D01*
X46179924Y-5956582D01*
X46188252Y-5958476D01*
X46196663Y-5959703D01*
X46205099Y-5960261D01*
X46213501Y-5960146D01*
X46221810Y-5959355D01*
X46229967Y-5957884D01*
X46237914Y-5955732D01*
X46241789Y-5954399D01*
X46245590Y-5952895D01*
X46249309Y-5951218D01*
X46252938Y-5949369D01*
X46256470Y-5947347D01*
X46259898Y-5945151D01*
X46264907Y-5941058D01*
X46269657Y-5936166D01*
X46274211Y-5930248D01*
X46278634Y-5923075D01*
X46282989Y-5914421D01*
X46287339Y-5904056D01*
X46291747Y-5891754D01*
X46296279Y-5877286D01*
X46305963Y-5840941D01*
X46316900Y-5793198D01*
X46329597Y-5732234D01*
X46344565Y-5656226D01*
X46351678Y-5618951D01*
X46358604Y-5583846D01*
X46365159Y-5551693D01*
X46371156Y-5523273D01*
X46376408Y-5499368D01*
X46380730Y-5480758D01*
X46383936Y-5468225D01*
X46385063Y-5464482D01*
X46385840Y-5462551D01*
X46386811Y-5461395D01*
X46388314Y-5460307D01*
X46390314Y-5459288D01*
X46392779Y-5458339D01*
X46398972Y-5456649D01*
X46406626Y-5455242D01*
X46415478Y-5454120D01*
X46425261Y-5453287D01*
X46435711Y-5452745D01*
X46446562Y-5452497D01*
X46457550Y-5452547D01*
G37*
G36*
X48930264Y1599851D02*
G01*
X49601357Y1597012D01*
X49828293Y1594661D01*
X49993977Y1591594D01*
X50106778Y1587742D01*
X50175062Y1583033D01*
X50204457Y1579277D01*
X50234865Y1574000D01*
X50266143Y1567262D01*
X50298149Y1559122D01*
X50330737Y1549638D01*
X50363764Y1538869D01*
X50397087Y1526874D01*
X50430562Y1513713D01*
X50464045Y1499443D01*
X50497392Y1484125D01*
X50530461Y1467816D01*
X50563107Y1450576D01*
X50595186Y1432464D01*
X50626556Y1413539D01*
X50657071Y1393859D01*
X50686590Y1373483D01*
X50708054Y1357795D01*
X50729285Y1341587D01*
X50750232Y1324910D01*
X50770843Y1307817D01*
X50791068Y1290358D01*
X50810855Y1272584D01*
X50830153Y1254547D01*
X50848912Y1236297D01*
X50867079Y1217886D01*
X50884604Y1199365D01*
X50901435Y1180785D01*
X50917522Y1162197D01*
X50932812Y1143653D01*
X50947256Y1125203D01*
X50960802Y1106899D01*
X50973398Y1088792D01*
X50999049Y1048348D01*
X51029644Y994104D01*
X51125975Y802248D01*
X51303003Y429285D01*
X51601343Y-208725D01*
X51767060Y-563416D01*
X51901557Y-849618D01*
X52008933Y-1075667D01*
X52093291Y-1249905D01*
X52158732Y-1380667D01*
X52185639Y-1432352D01*
X52209355Y-1476294D01*
X52230392Y-1513537D01*
X52249263Y-1545124D01*
X52266480Y-1572095D01*
X52282557Y-1595494D01*
X52296287Y-1614202D01*
X52310974Y-1633235D01*
X52326548Y-1652524D01*
X52342942Y-1671998D01*
X52360086Y-1691585D01*
X52377912Y-1711215D01*
X52396351Y-1730817D01*
X52415333Y-1750320D01*
X52434791Y-1769654D01*
X52454656Y-1788747D01*
X52474859Y-1807529D01*
X52495331Y-1825930D01*
X52516004Y-1843878D01*
X52536808Y-1861302D01*
X52557676Y-1878132D01*
X52578537Y-1894297D01*
X52606545Y-1915081D01*
X52634983Y-1935219D01*
X52663818Y-1954694D01*
X52693019Y-1973490D01*
X52722553Y-1991590D01*
X52752387Y-2008975D01*
X52782489Y-2025631D01*
X52812826Y-2041538D01*
X52843365Y-2056680D01*
X52874075Y-2071041D01*
X52904921Y-2084603D01*
X52935873Y-2097348D01*
X52966897Y-2109261D01*
X52997961Y-2120324D01*
X53029033Y-2130519D01*
X53060079Y-2139831D01*
X53087180Y-2147427D01*
X53112846Y-2154234D01*
X53138158Y-2160487D01*
X53164192Y-2166421D01*
X53192029Y-2172273D01*
X53222748Y-2178278D01*
X53297145Y-2191689D01*
X53395923Y-2208622D01*
X51833118Y-2207211D01*
X50790257Y-2205861D01*
X50451230Y-2204638D01*
X50208532Y-2202757D01*
X50117383Y-2201502D01*
X50043208Y-2200000D01*
X49983638Y-2198225D01*
X49936303Y-2196148D01*
X49898835Y-2193743D01*
X49868863Y-2190981D01*
X49844018Y-2187836D01*
X49821932Y-2184280D01*
X49803060Y-2180689D01*
X49783542Y-2176416D01*
X49763455Y-2171492D01*
X49742882Y-2165947D01*
X49700593Y-2153113D01*
X49657317Y-2138155D01*
X49613693Y-2121311D01*
X49570362Y-2102822D01*
X49527966Y-2082927D01*
X49487145Y-2061867D01*
X49455980Y-2044375D01*
X49425113Y-2025817D01*
X49394628Y-2006267D01*
X49364610Y-1985799D01*
X49335142Y-1964488D01*
X49306307Y-1942407D01*
X49278189Y-1919632D01*
X49250872Y-1896238D01*
X49224440Y-1872297D01*
X49198977Y-1847885D01*
X49174565Y-1823076D01*
X49151290Y-1797945D01*
X49129234Y-1772565D01*
X49108481Y-1747013D01*
X49089115Y-1721360D01*
X49071220Y-1695683D01*
X49045528Y-1655028D01*
X49016165Y-1603471D01*
X48979294Y-1533120D01*
X48931079Y-1436083D01*
X48785272Y-1130385D01*
X48548051Y-623239D01*
X48208282Y102910D01*
X47993131Y556803D01*
X47948097Y648652D01*
X47898763Y746553D01*
X47853928Y833276D01*
X47835946Y867061D01*
X47822387Y891589D01*
X47803866Y922939D01*
X47785803Y951826D01*
X47767699Y978926D01*
X47758475Y992019D01*
X47749053Y1004919D01*
X47739371Y1017711D01*
X47729366Y1030481D01*
X47708137Y1056292D01*
X47684865Y1083029D01*
X47659051Y1111369D01*
X47623919Y1147978D01*
X47587495Y1183425D01*
X47549851Y1217666D01*
X47511061Y1250656D01*
X47471195Y1282350D01*
X47430327Y1312703D01*
X47388529Y1341670D01*
X47345872Y1369206D01*
X47302431Y1395266D01*
X47258276Y1419805D01*
X47213481Y1442779D01*
X47168117Y1464142D01*
X47122256Y1483849D01*
X47075973Y1501855D01*
X47029337Y1518116D01*
X46982423Y1532586D01*
X46958188Y1539385D01*
X46933536Y1545832D01*
X46907916Y1552039D01*
X46880779Y1558118D01*
X46851575Y1564181D01*
X46819754Y1570339D01*
X46746062Y1583386D01*
X46647284Y1600320D01*
X47913756Y1600672D01*
X48930264Y1599851D01*
G37*
G36*
X54000000Y-3800000D02*
G01*
X54063288Y-4002847D01*
X54069579Y-4022868D01*
X54075586Y-4041300D01*
X54081173Y-4057773D01*
X54086210Y-4071917D01*
X54090561Y-4083360D01*
X54092439Y-4087954D01*
X54094095Y-4091733D01*
X54095514Y-4094651D01*
X54096678Y-4096663D01*
X54097160Y-4097314D01*
X54097572Y-4097721D01*
X54097912Y-4097878D01*
X54098178Y-4097780D01*
X54100263Y-4092896D01*
X54104517Y-4080614D01*
X54118463Y-4037129D01*
X54137885Y-3973866D01*
X54160654Y-3897367D01*
X54217452Y-3701011D01*
X54336726Y-3698577D01*
X54383089Y-3698133D01*
X54421009Y-3698070D01*
X54435590Y-3698204D01*
X54446606Y-3698463D01*
X54453571Y-3698854D01*
X54455383Y-3699103D01*
X54455845Y-3699241D01*
X54456000Y-3699388D01*
X54413035Y-3819207D01*
X54317354Y-4073134D01*
X54218783Y-4330256D01*
X54167146Y-4459659D01*
X54159042Y-4473853D01*
X54150813Y-4486950D01*
X54142389Y-4498994D01*
X54133701Y-4510029D01*
X54124680Y-4520099D01*
X54115258Y-4529247D01*
X54105365Y-4537519D01*
X54094932Y-4544957D01*
X54083891Y-4551606D01*
X54072172Y-4557509D01*
X54059707Y-4562712D01*
X54046426Y-4567257D01*
X54032262Y-4571189D01*
X54017144Y-4574552D01*
X54001004Y-4577389D01*
X53983772Y-4579745D01*
X53972506Y-4580946D01*
X53959324Y-4581822D01*
X53944576Y-4582392D01*
X53928610Y-4582673D01*
X53894416Y-4582440D01*
X53859528Y-4581266D01*
X53826732Y-4579293D01*
X53798813Y-4576664D01*
X53787554Y-4575148D01*
X53778559Y-4573522D01*
X53772176Y-4571802D01*
X53770073Y-4570914D01*
X53768754Y-4570008D01*
X53767751Y-4567995D01*
X53766588Y-4563940D01*
X53763898Y-4550674D01*
X53760924Y-4532141D01*
X53757902Y-4510270D01*
X53755070Y-4486991D01*
X53752666Y-4464236D01*
X53750927Y-4443934D01*
X53750092Y-4428015D01*
X53750123Y-4423981D01*
X53750221Y-4420386D01*
X53750397Y-4417215D01*
X53750518Y-4415783D01*
X53750663Y-4414450D01*
X53750832Y-4413215D01*
X53751028Y-4412075D01*
X53751252Y-4411028D01*
X53751504Y-4410073D01*
X53751787Y-4409207D01*
X53752101Y-4408427D01*
X53752449Y-4407733D01*
X53752831Y-4407122D01*
X53753248Y-4406591D01*
X53753702Y-4406140D01*
X53754195Y-4405765D01*
X53754728Y-4405464D01*
X53755301Y-4405236D01*
X53755917Y-4405079D01*
X53756576Y-4404990D01*
X53757280Y-4404967D01*
X53758031Y-4405008D01*
X53758830Y-4405111D01*
X53759677Y-4405275D01*
X53760575Y-4405496D01*
X53761525Y-4405773D01*
X53762527Y-4406104D01*
X53764697Y-4406919D01*
X53770517Y-4408944D01*
X53777522Y-4410754D01*
X53785547Y-4412346D01*
X53794427Y-4413714D01*
X53803996Y-4414855D01*
X53814089Y-4415762D01*
X53824541Y-4416432D01*
X53835186Y-4416859D01*
X53845861Y-4417039D01*
X53856398Y-4416966D01*
X53866634Y-4416638D01*
X53876402Y-4416047D01*
X53885539Y-4415191D01*
X53893877Y-4414063D01*
X53901253Y-4412660D01*
X53907501Y-4410976D01*
X53911373Y-4409682D01*
X53915086Y-4408228D01*
X53918651Y-4406608D01*
X53922081Y-4404815D01*
X53925387Y-4402840D01*
X53928582Y-4400678D01*
X53931676Y-4398322D01*
X53934683Y-4395763D01*
X53937614Y-4392994D01*
X53940480Y-4390010D01*
X53943294Y-4386802D01*
X53946068Y-4383364D01*
X53948813Y-4379687D01*
X53951542Y-4375766D01*
X53954265Y-4371593D01*
X53956996Y-4367161D01*
X53977280Y-4332271D01*
X53854761Y-4040983D01*
X53765103Y-3827182D01*
X53721694Y-3722918D01*
X53710334Y-3696954D01*
X53967544Y-3696954D01*
X54000000Y-3800000D01*
G37*
G36*
X48043141Y-3685471D02*
G01*
X48065617Y-3686559D01*
X48087739Y-3688663D01*
X48109452Y-3691764D01*
X48130702Y-3695848D01*
X48151433Y-3700896D01*
X48171591Y-3706893D01*
X48191122Y-3713822D01*
X48209970Y-3721666D01*
X48228082Y-3730409D01*
X48245402Y-3740034D01*
X48261876Y-3750523D01*
X48277449Y-3761862D01*
X48292066Y-3774032D01*
X48305673Y-3787018D01*
X48317600Y-3800146D01*
X48328587Y-3813936D01*
X48338640Y-3828338D01*
X48347764Y-3843302D01*
X48355966Y-3858777D01*
X48363252Y-3874712D01*
X48369627Y-3891058D01*
X48375098Y-3907763D01*
X48379670Y-3924777D01*
X48383349Y-3942050D01*
X48386142Y-3959530D01*
X48388055Y-3977168D01*
X48389092Y-3994913D01*
X48389260Y-4012715D01*
X48388566Y-4030522D01*
X48387015Y-4048285D01*
X48384613Y-4065953D01*
X48381365Y-4083475D01*
X48377279Y-4100801D01*
X48372359Y-4117881D01*
X48366612Y-4134663D01*
X48360044Y-4151098D01*
X48352661Y-4167134D01*
X48344468Y-4182722D01*
X48335471Y-4197811D01*
X48325677Y-4212350D01*
X48315092Y-4226289D01*
X48303721Y-4239577D01*
X48291570Y-4252163D01*
X48278645Y-4263998D01*
X48264953Y-4275031D01*
X48250499Y-4285211D01*
X48233376Y-4295248D01*
X48214685Y-4304353D01*
X48194609Y-4312504D01*
X48173328Y-4319682D01*
X48151025Y-4325866D01*
X48127882Y-4331037D01*
X48104081Y-4335173D01*
X48079803Y-4338255D01*
X48055230Y-4340263D01*
X48030544Y-4341176D01*
X48005927Y-4340974D01*
X47981561Y-4339637D01*
X47957628Y-4337145D01*
X47934309Y-4333477D01*
X47911787Y-4328614D01*
X47890242Y-4322535D01*
X47875755Y-4317524D01*
X47861664Y-4311935D01*
X47847977Y-4305785D01*
X47834706Y-4299090D01*
X47821861Y-4291866D01*
X47809451Y-4284129D01*
X47797487Y-4275896D01*
X47785979Y-4267183D01*
X47774936Y-4258006D01*
X47764370Y-4248383D01*
X47754290Y-4238328D01*
X47744706Y-4227859D01*
X47735628Y-4216992D01*
X47727067Y-4205743D01*
X47719032Y-4194128D01*
X47711534Y-4182164D01*
X47704582Y-4169868D01*
X47698188Y-4157255D01*
X47692360Y-4144342D01*
X47687110Y-4131145D01*
X47682446Y-4117681D01*
X47678380Y-4103966D01*
X47674921Y-4090016D01*
X47672080Y-4075847D01*
X47669866Y-4061477D01*
X47668290Y-4046920D01*
X47667362Y-4032195D01*
X47667110Y-4018365D01*
X47911440Y-4018365D01*
X47911749Y-4032282D01*
X47912601Y-4046002D01*
X47913998Y-4059358D01*
X47915940Y-4072183D01*
X47918429Y-4084309D01*
X47921466Y-4095569D01*
X47925052Y-4105795D01*
X47929189Y-4114819D01*
X47933494Y-4122340D01*
X47938178Y-4129386D01*
X47943215Y-4135954D01*
X47948580Y-4142047D01*
X47954246Y-4147662D01*
X47960189Y-4152799D01*
X47966382Y-4157458D01*
X47972801Y-4161639D01*
X47979419Y-4165341D01*
X47986212Y-4168563D01*
X47993153Y-4171305D01*
X48000217Y-4173567D01*
X48007379Y-4175348D01*
X48014612Y-4176649D01*
X48021892Y-4177467D01*
X48029192Y-4177803D01*
X48036488Y-4177657D01*
X48043754Y-4177028D01*
X48050964Y-4175915D01*
X48058092Y-4174318D01*
X48065113Y-4172237D01*
X48072002Y-4169672D01*
X48078733Y-4166621D01*
X48085280Y-4163084D01*
X48091618Y-4159061D01*
X48097721Y-4154552D01*
X48103564Y-4149556D01*
X48109121Y-4144072D01*
X48114366Y-4138100D01*
X48119275Y-4131640D01*
X48123821Y-4124691D01*
X48127979Y-4117253D01*
X48130310Y-4112415D01*
X48132440Y-4107605D01*
X48134378Y-4102777D01*
X48136131Y-4097881D01*
X48137708Y-4092872D01*
X48139118Y-4087701D01*
X48140369Y-4082321D01*
X48141468Y-4076684D01*
X48142425Y-4070743D01*
X48143248Y-4064450D01*
X48143945Y-4057757D01*
X48144524Y-4050618D01*
X48145362Y-4034809D01*
X48145830Y-4016641D01*
X48145637Y-4002476D01*
X48145048Y-3989163D01*
X48144049Y-3976661D01*
X48142622Y-3964928D01*
X48141744Y-3959336D01*
X48140754Y-3953922D01*
X48139649Y-3948679D01*
X48138427Y-3943602D01*
X48137088Y-3938686D01*
X48135628Y-3933926D01*
X48134046Y-3929317D01*
X48132340Y-3924853D01*
X48130508Y-3920529D01*
X48128549Y-3916340D01*
X48126459Y-3912282D01*
X48124238Y-3908348D01*
X48121882Y-3904533D01*
X48119392Y-3900833D01*
X48116763Y-3897241D01*
X48113995Y-3893754D01*
X48111086Y-3890365D01*
X48108033Y-3887069D01*
X48104835Y-3883862D01*
X48101490Y-3880738D01*
X48097996Y-3877692D01*
X48094350Y-3874718D01*
X48090552Y-3871812D01*
X48086598Y-3868968D01*
X48081453Y-3865718D01*
X48076219Y-3862812D01*
X48070905Y-3860247D01*
X48065523Y-3858019D01*
X48060081Y-3856126D01*
X48054591Y-3854565D01*
X48049062Y-3853332D01*
X48043506Y-3852424D01*
X48037931Y-3851838D01*
X48032349Y-3851571D01*
X48026770Y-3851620D01*
X48021204Y-3851981D01*
X48015661Y-3852653D01*
X48010151Y-3853631D01*
X48004685Y-3854912D01*
X47999273Y-3856493D01*
X47993925Y-3858372D01*
X47988651Y-3860544D01*
X47983462Y-3863008D01*
X47978368Y-3865759D01*
X47973379Y-3868795D01*
X47968506Y-3872113D01*
X47963758Y-3875709D01*
X47959147Y-3879580D01*
X47954681Y-3883723D01*
X47950372Y-3888136D01*
X47946230Y-3892814D01*
X47942264Y-3897755D01*
X47938486Y-3902956D01*
X47934905Y-3908414D01*
X47931532Y-3914125D01*
X47928377Y-3920086D01*
X47924384Y-3929538D01*
X47920924Y-3940134D01*
X47917999Y-3951708D01*
X47915611Y-3964091D01*
X47913759Y-3977116D01*
X47912446Y-3990615D01*
X47911672Y-4004421D01*
X47911440Y-4018365D01*
X47667110Y-4018365D01*
X47667091Y-4017316D01*
X47667489Y-4002301D01*
X47668564Y-3987165D01*
X47670328Y-3971926D01*
X47672790Y-3956598D01*
X47675724Y-3942080D01*
X47679198Y-3927891D01*
X47683204Y-3914038D01*
X47687734Y-3900527D01*
X47692781Y-3887364D01*
X47698338Y-3874556D01*
X47704397Y-3862108D01*
X47710950Y-3850027D01*
X47717991Y-3838320D01*
X47725512Y-3826992D01*
X47733506Y-3816050D01*
X47741964Y-3805499D01*
X47750880Y-3795347D01*
X47760246Y-3785599D01*
X47770055Y-3776262D01*
X47780299Y-3767342D01*
X47790971Y-3758845D01*
X47802063Y-3750777D01*
X47825480Y-3735954D01*
X47850489Y-3722924D01*
X47877032Y-3711736D01*
X47905048Y-3702441D01*
X47934479Y-3695087D01*
X47965264Y-3689725D01*
X47997345Y-3686406D01*
X48020366Y-3685414D01*
X48043141Y-3685471D01*
G37*
G36*
X47401708Y-5019903D02*
G01*
X47459728Y-5021925D01*
X47513742Y-5025162D01*
X47560191Y-5029540D01*
X47579466Y-5032134D01*
X47595515Y-5034985D01*
X47630186Y-5042745D01*
X47664327Y-5051726D01*
X47697904Y-5061906D01*
X47730883Y-5073267D01*
X47763228Y-5085786D01*
X47794908Y-5099446D01*
X47825886Y-5114225D01*
X47856130Y-5130102D01*
X47885604Y-5147059D01*
X47914276Y-5165075D01*
X47942110Y-5184129D01*
X47969074Y-5204202D01*
X47995132Y-5225274D01*
X48020250Y-5247323D01*
X48044395Y-5270331D01*
X48067532Y-5294276D01*
X48081472Y-5309548D01*
X48094519Y-5324174D01*
X48106376Y-5337809D01*
X48116744Y-5350103D01*
X48125327Y-5360711D01*
X48128855Y-5365275D01*
X48131826Y-5369286D01*
X48134201Y-5372701D01*
X48135943Y-5375479D01*
X48137016Y-5377573D01*
X48137290Y-5378352D01*
X48137382Y-5378943D01*
X48136186Y-5379922D01*
X48132679Y-5380871D01*
X48119208Y-5382664D01*
X48097924Y-5384282D01*
X48069781Y-5385690D01*
X47996739Y-5387724D01*
X47907723Y-5388468D01*
X47677007Y-5388468D01*
X47610332Y-5314385D01*
X47601007Y-5304219D01*
X47592038Y-5294723D01*
X47583361Y-5285847D01*
X47574911Y-5277541D01*
X47566621Y-5269757D01*
X47558428Y-5262444D01*
X47550266Y-5255552D01*
X47542069Y-5249033D01*
X47533774Y-5242836D01*
X47525314Y-5236911D01*
X47516624Y-5231210D01*
X47507640Y-5225683D01*
X47498297Y-5220280D01*
X47488528Y-5214951D01*
X47478270Y-5209647D01*
X47467457Y-5204318D01*
X47432241Y-5188467D01*
X47395631Y-5174647D01*
X47357594Y-5162855D01*
X47318099Y-5153088D01*
X47277117Y-5145342D01*
X47234615Y-5139615D01*
X47190563Y-5135903D01*
X47144930Y-5134203D01*
X47097684Y-5134513D01*
X47048795Y-5136829D01*
X46998232Y-5141147D01*
X46945963Y-5147466D01*
X46891958Y-5155781D01*
X46836186Y-5166090D01*
X46778615Y-5178389D01*
X46719215Y-5192676D01*
X46699045Y-5197668D01*
X46680090Y-5202251D01*
X46662772Y-5206313D01*
X46647513Y-5209742D01*
X46634734Y-5212427D01*
X46624858Y-5214256D01*
X46621140Y-5214815D01*
X46618305Y-5215118D01*
X46616407Y-5215152D01*
X46615826Y-5215063D01*
X46615498Y-5214901D01*
X46615522Y-5214210D01*
X46616552Y-5213142D01*
X46621449Y-5209953D01*
X46641279Y-5199919D01*
X46671997Y-5186066D01*
X46710616Y-5169658D01*
X46754146Y-5151959D01*
X46799599Y-5134236D01*
X46843985Y-5117754D01*
X46884315Y-5103776D01*
X46920137Y-5092337D01*
X46960548Y-5080526D01*
X47003787Y-5068764D01*
X47048092Y-5057474D01*
X47091703Y-5047077D01*
X47132858Y-5037994D01*
X47169796Y-5030648D01*
X47200757Y-5025460D01*
X47218480Y-5023474D01*
X47239206Y-5021875D01*
X47287887Y-5019804D01*
X47343241Y-5019172D01*
X47401708Y-5019903D01*
G37*
G36*
X46547393Y-3463274D02*
G01*
X46824888Y-3465708D01*
X46869515Y-3486804D01*
X46879536Y-3491681D01*
X46889212Y-3496875D01*
X46898538Y-3502381D01*
X46907511Y-3508192D01*
X46916127Y-3514302D01*
X46924383Y-3520707D01*
X46932276Y-3527398D01*
X46939801Y-3534372D01*
X46946956Y-3541621D01*
X46953736Y-3549140D01*
X46960138Y-3556923D01*
X46966159Y-3564964D01*
X46971794Y-3573257D01*
X46977041Y-3581795D01*
X46981896Y-3590574D01*
X46986355Y-3599587D01*
X46991047Y-3610616D01*
X46993049Y-3616084D01*
X46994836Y-3621634D01*
X46996419Y-3627351D01*
X46997808Y-3633319D01*
X46999014Y-3639621D01*
X47000047Y-3646344D01*
X47000919Y-3653570D01*
X47001640Y-3661384D01*
X47002671Y-3679116D01*
X47003228Y-3700214D01*
X47003394Y-3725353D01*
X47003258Y-3751398D01*
X47003062Y-3762666D01*
X47002760Y-3772908D01*
X47002334Y-3782232D01*
X47001768Y-3790747D01*
X47001045Y-3798561D01*
X47000148Y-3805781D01*
X46999062Y-3812517D01*
X46997768Y-3818876D01*
X46996251Y-3824967D01*
X46994494Y-3830896D01*
X46992480Y-3836774D01*
X46990193Y-3842708D01*
X46987616Y-3848805D01*
X46984732Y-3855175D01*
X46974800Y-3874778D01*
X46963813Y-3892841D01*
X46951685Y-3909402D01*
X46938331Y-3924498D01*
X46923664Y-3938168D01*
X46907599Y-3950450D01*
X46890051Y-3961381D01*
X46870935Y-3971000D01*
X46850163Y-3979346D01*
X46827652Y-3986455D01*
X46803315Y-3992366D01*
X46777067Y-3997117D01*
X46748822Y-4000746D01*
X46718495Y-4003291D01*
X46686000Y-4004790D01*
X46651251Y-4005282D01*
X46544959Y-4005282D01*
X46544959Y-4329837D01*
X46269087Y-4329837D01*
X46269087Y-3638534D01*
X46544959Y-3638534D01*
X46544959Y-3826776D01*
X46605813Y-3826776D01*
X46619000Y-3826554D01*
X46632196Y-3825914D01*
X46645107Y-3824893D01*
X46657438Y-3823531D01*
X46668894Y-3821863D01*
X46674202Y-3820928D01*
X46679181Y-3819930D01*
X46683793Y-3818875D01*
X46688003Y-3817768D01*
X46691773Y-3816614D01*
X46695066Y-3815417D01*
X46700189Y-3813042D01*
X46705056Y-3810343D01*
X46709667Y-3807337D01*
X46714018Y-3804041D01*
X46718107Y-3800473D01*
X46721932Y-3796651D01*
X46725489Y-3792591D01*
X46728777Y-3788311D01*
X46731792Y-3783830D01*
X46734533Y-3779164D01*
X46736997Y-3774331D01*
X46739181Y-3769348D01*
X46741082Y-3764234D01*
X46742699Y-3759005D01*
X46744029Y-3753679D01*
X46745068Y-3748274D01*
X46745815Y-3742807D01*
X46746268Y-3737296D01*
X46746422Y-3731758D01*
X46746277Y-3726211D01*
X46745830Y-3720673D01*
X46745077Y-3715160D01*
X46744017Y-3709690D01*
X46742647Y-3704282D01*
X46740964Y-3698952D01*
X46738966Y-3693717D01*
X46736650Y-3688597D01*
X46734015Y-3683607D01*
X46731056Y-3678766D01*
X46727772Y-3674091D01*
X46724161Y-3669600D01*
X46720219Y-3665310D01*
X46716674Y-3661863D01*
X46713272Y-3658807D01*
X46709907Y-3656116D01*
X46706476Y-3653760D01*
X46702874Y-3651714D01*
X46698996Y-3649949D01*
X46694738Y-3648438D01*
X46689995Y-3647155D01*
X46684662Y-3646071D01*
X46678636Y-3645160D01*
X46671810Y-3644393D01*
X46664081Y-3643745D01*
X46645495Y-3642691D01*
X46622041Y-3641779D01*
X46544959Y-3638534D01*
X46269087Y-3638534D01*
X46269087Y-3460840D01*
X46547393Y-3463274D01*
G37*
G36*
X50511472Y-3687686D02*
G01*
X50536665Y-3689533D01*
X50560835Y-3692388D01*
X50583971Y-3696249D01*
X50606062Y-3701112D01*
X50627098Y-3706974D01*
X50647067Y-3713830D01*
X50665960Y-3721677D01*
X50683765Y-3730512D01*
X50700472Y-3740332D01*
X50716070Y-3751132D01*
X50730548Y-3762908D01*
X50737364Y-3769162D01*
X50743896Y-3775659D01*
X50750188Y-3782445D01*
X50756540Y-3789936D01*
X50762877Y-3797999D01*
X50769126Y-3806504D01*
X50775213Y-3815318D01*
X50781065Y-3824309D01*
X50786608Y-3833345D01*
X50791769Y-3842294D01*
X50796473Y-3851024D01*
X50800647Y-3859404D01*
X50804217Y-3867302D01*
X50807109Y-3874585D01*
X50809251Y-3881121D01*
X50810567Y-3886779D01*
X50810893Y-3889238D01*
X50810985Y-3891427D01*
X50810834Y-3893331D01*
X50810431Y-3894933D01*
X50809598Y-3896159D01*
X50808028Y-3897402D01*
X50805745Y-3898659D01*
X50802773Y-3899928D01*
X50799135Y-3901206D01*
X50794856Y-3902492D01*
X50784466Y-3905075D01*
X50771795Y-3907658D01*
X50757031Y-3910222D01*
X50740366Y-3912748D01*
X50721989Y-3915218D01*
X50687898Y-3919084D01*
X50656165Y-3923027D01*
X50630366Y-3926514D01*
X50614074Y-3929011D01*
X50610304Y-3929540D01*
X50606881Y-3929899D01*
X50603775Y-3930067D01*
X50602330Y-3930073D01*
X50600953Y-3930025D01*
X50599638Y-3929920D01*
X50598382Y-3929756D01*
X50597182Y-3929530D01*
X50596032Y-3929239D01*
X50594929Y-3928882D01*
X50593870Y-3928456D01*
X50592849Y-3927959D01*
X50591863Y-3927388D01*
X50590908Y-3926741D01*
X50589979Y-3926016D01*
X50589074Y-3925210D01*
X50588188Y-3924320D01*
X50587316Y-3923345D01*
X50586455Y-3922282D01*
X50585601Y-3921129D01*
X50584750Y-3919883D01*
X50583041Y-3917103D01*
X50581294Y-3913924D01*
X50579479Y-3910327D01*
X50577562Y-3906292D01*
X50574085Y-3899505D01*
X50570058Y-3893144D01*
X50565501Y-3887218D01*
X50560434Y-3881735D01*
X50554877Y-3876704D01*
X50548851Y-3872133D01*
X50542376Y-3868030D01*
X50535471Y-3864404D01*
X50528158Y-3861263D01*
X50520456Y-3858615D01*
X50512385Y-3856469D01*
X50503966Y-3854832D01*
X50495220Y-3853714D01*
X50486165Y-3853123D01*
X50476823Y-3853066D01*
X50467213Y-3853552D01*
X50452083Y-3855153D01*
X50438024Y-3857840D01*
X50431392Y-3859598D01*
X50425022Y-3861635D01*
X50418914Y-3863955D01*
X50413066Y-3866560D01*
X50407475Y-3869452D01*
X50402141Y-3872634D01*
X50397061Y-3876110D01*
X50392234Y-3879881D01*
X50387659Y-3883950D01*
X50383333Y-3888321D01*
X50379256Y-3892995D01*
X50375425Y-3897976D01*
X50371839Y-3903265D01*
X50368496Y-3908866D01*
X50365394Y-3914782D01*
X50362533Y-3921015D01*
X50359910Y-3927567D01*
X50357523Y-3934442D01*
X50353454Y-3949169D01*
X50350312Y-3965218D01*
X50348083Y-3982610D01*
X50346756Y-4001367D01*
X50346316Y-4021509D01*
X50346357Y-4031973D01*
X50346487Y-4041507D01*
X50346723Y-4050193D01*
X50347077Y-4058111D01*
X50347564Y-4065338D01*
X50348199Y-4071957D01*
X50348995Y-4078045D01*
X50349967Y-4083682D01*
X50351130Y-4088949D01*
X50352497Y-4093924D01*
X50354082Y-4098688D01*
X50355901Y-4103320D01*
X50357966Y-4107900D01*
X50360294Y-4112507D01*
X50362896Y-4117221D01*
X50365789Y-4122122D01*
X50369975Y-4128418D01*
X50374457Y-4134375D01*
X50379219Y-4139990D01*
X50384242Y-4145260D01*
X50389511Y-4150185D01*
X50395007Y-4154760D01*
X50400713Y-4158985D01*
X50406612Y-4162856D01*
X50412688Y-4166372D01*
X50418922Y-4169530D01*
X50425298Y-4172329D01*
X50431797Y-4174765D01*
X50438404Y-4176837D01*
X50445100Y-4178543D01*
X50451869Y-4179880D01*
X50458694Y-4180846D01*
X50465556Y-4181439D01*
X50472439Y-4181656D01*
X50479325Y-4181496D01*
X50486198Y-4180955D01*
X50493040Y-4180033D01*
X50499834Y-4178726D01*
X50506563Y-4177033D01*
X50513209Y-4174951D01*
X50519755Y-4172478D01*
X50526184Y-4169611D01*
X50532478Y-4166349D01*
X50538622Y-4162689D01*
X50544596Y-4158630D01*
X50550384Y-4154168D01*
X50555969Y-4149302D01*
X50561334Y-4144029D01*
X50567163Y-4137785D01*
X50572972Y-4131351D01*
X50578592Y-4124917D01*
X50583850Y-4118673D01*
X50588576Y-4112810D01*
X50592598Y-4107517D01*
X50594292Y-4105143D01*
X50595745Y-4102984D01*
X50596937Y-4101063D01*
X50597847Y-4099403D01*
X50599364Y-4096834D01*
X50600969Y-4094601D01*
X50602806Y-4092696D01*
X50605022Y-4091111D01*
X50607761Y-4089841D01*
X50611168Y-4088877D01*
X50615388Y-4088213D01*
X50620565Y-4087841D01*
X50626846Y-4087754D01*
X50634375Y-4087945D01*
X50653756Y-4089134D01*
X50679870Y-4091349D01*
X50713875Y-4094534D01*
X50735592Y-4096766D01*
X50756017Y-4099149D01*
X50774691Y-4101609D01*
X50791160Y-4104068D01*
X50804966Y-4106452D01*
X50810728Y-4107591D01*
X50815654Y-4108683D01*
X50819685Y-4109718D01*
X50822766Y-4110686D01*
X50824839Y-4111578D01*
X50825480Y-4111993D01*
X50825847Y-4112385D01*
X50826113Y-4112831D01*
X50826306Y-4113407D01*
X50826473Y-4114928D01*
X50826362Y-4116919D01*
X50825986Y-4119345D01*
X50825359Y-4122176D01*
X50824492Y-4125378D01*
X50822094Y-4132771D01*
X50818898Y-4141267D01*
X50815007Y-4150609D01*
X50810527Y-4160541D01*
X50805562Y-4170805D01*
X50792576Y-4194727D01*
X50777969Y-4216894D01*
X50761754Y-4237299D01*
X50743947Y-4255937D01*
X50724562Y-4272802D01*
X50703613Y-4287887D01*
X50681113Y-4301188D01*
X50657078Y-4312697D01*
X50631522Y-4322408D01*
X50604458Y-4330317D01*
X50575902Y-4336417D01*
X50545867Y-4340702D01*
X50514368Y-4343166D01*
X50481419Y-4343804D01*
X50447034Y-4342608D01*
X50411227Y-4339574D01*
X50386129Y-4336271D01*
X50362235Y-4332132D01*
X50339513Y-4327137D01*
X50317930Y-4321267D01*
X50307557Y-4317998D01*
X50297456Y-4314503D01*
X50287624Y-4310780D01*
X50278057Y-4306827D01*
X50268750Y-4302640D01*
X50259701Y-4298218D01*
X50250905Y-4293559D01*
X50242357Y-4288659D01*
X50234054Y-4283517D01*
X50225992Y-4278130D01*
X50218167Y-4272496D01*
X50210575Y-4266612D01*
X50203212Y-4260477D01*
X50196073Y-4254086D01*
X50189155Y-4247440D01*
X50182454Y-4240534D01*
X50175965Y-4233366D01*
X50169686Y-4225935D01*
X50163611Y-4218238D01*
X50157737Y-4210271D01*
X50152059Y-4202034D01*
X50146574Y-4193524D01*
X50141278Y-4184738D01*
X50136167Y-4175673D01*
X50128446Y-4159890D01*
X50121717Y-4142779D01*
X50115981Y-4124515D01*
X50111242Y-4105273D01*
X50107500Y-4085227D01*
X50104760Y-4064553D01*
X50103023Y-4043424D01*
X50102291Y-4022017D01*
X50102567Y-4000504D01*
X50103853Y-3979062D01*
X50106152Y-3957865D01*
X50109467Y-3937087D01*
X50113798Y-3916904D01*
X50119149Y-3897489D01*
X50125523Y-3879018D01*
X50132921Y-3861666D01*
X50141838Y-3844339D01*
X50152114Y-3827686D01*
X50163680Y-3811750D01*
X50176470Y-3796577D01*
X50190414Y-3782213D01*
X50205447Y-3768702D01*
X50221499Y-3756089D01*
X50238503Y-3744420D01*
X50256391Y-3733740D01*
X50275096Y-3724094D01*
X50294550Y-3715527D01*
X50314685Y-3708085D01*
X50335433Y-3701812D01*
X50356726Y-3696754D01*
X50378498Y-3692956D01*
X50400679Y-3690463D01*
X50429859Y-3688237D01*
X50458058Y-3687035D01*
X50485266Y-3686853D01*
X50511472Y-3687686D01*
G37*
G36*
X47516254Y-3687223D02*
G01*
X47528160Y-3687864D01*
X47540370Y-3689013D01*
X47552666Y-3690623D01*
X47564829Y-3692644D01*
X47576640Y-3695027D01*
X47587881Y-3697724D01*
X47598332Y-3700686D01*
X47607776Y-3703864D01*
X47615993Y-3707210D01*
X47619573Y-3708931D01*
X47622764Y-3710675D01*
X47625540Y-3712437D01*
X47627872Y-3714210D01*
X47629733Y-3715989D01*
X47631097Y-3717767D01*
X47631935Y-3719538D01*
X47632221Y-3721296D01*
X47631485Y-3724126D01*
X47629381Y-3729942D01*
X47621672Y-3749086D01*
X47610313Y-3775836D01*
X47596519Y-3807303D01*
X47592193Y-3816753D01*
X47588041Y-3825624D01*
X47584064Y-3833908D01*
X47580266Y-3841597D01*
X47576649Y-3848681D01*
X47573214Y-3855154D01*
X47569965Y-3861006D01*
X47566904Y-3866230D01*
X47564033Y-3870816D01*
X47561354Y-3874757D01*
X47560088Y-3876483D01*
X47558870Y-3878045D01*
X47557702Y-3879441D01*
X47556584Y-3880670D01*
X47555515Y-3881732D01*
X47554497Y-3882625D01*
X47553530Y-3883349D01*
X47552613Y-3883901D01*
X47551747Y-3884282D01*
X47550932Y-3884491D01*
X47550170Y-3884525D01*
X47549459Y-3884385D01*
X47525768Y-3879049D01*
X47504235Y-3876236D01*
X47494250Y-3875826D01*
X47484772Y-3876109D01*
X47475790Y-3877104D01*
X47467293Y-3878832D01*
X47459270Y-3881313D01*
X47451711Y-3884569D01*
X47444604Y-3888619D01*
X47437939Y-3893484D01*
X47431704Y-3899185D01*
X47425890Y-3905742D01*
X47420485Y-3913175D01*
X47415478Y-3921506D01*
X47410859Y-3930754D01*
X47406616Y-3940940D01*
X47399217Y-3964208D01*
X47393194Y-3991475D01*
X47388461Y-4022904D01*
X47384931Y-4058659D01*
X47382517Y-4098905D01*
X47381132Y-4143805D01*
X47380690Y-4193524D01*
X47380690Y-4329837D01*
X47137273Y-4329837D01*
X47137273Y-3696954D01*
X47364462Y-3696954D01*
X47364462Y-3797566D01*
X47387992Y-3760242D01*
X47393302Y-3752300D01*
X47398597Y-3744894D01*
X47403902Y-3738009D01*
X47409241Y-3731628D01*
X47414636Y-3725737D01*
X47420112Y-3720321D01*
X47425693Y-3715363D01*
X47431402Y-3710849D01*
X47437263Y-3706762D01*
X47443300Y-3703088D01*
X47449537Y-3699811D01*
X47455997Y-3696916D01*
X47462704Y-3694386D01*
X47469683Y-3692208D01*
X47476956Y-3690364D01*
X47484548Y-3688840D01*
X47489254Y-3688166D01*
X47494229Y-3687662D01*
X47504870Y-3687140D01*
X47516254Y-3687223D01*
G37*
G36*
X49605819Y-5397861D02*
G01*
X49628680Y-5398350D01*
X49650790Y-5399318D01*
X49671499Y-5400761D01*
X49690155Y-5402673D01*
X49706108Y-5405050D01*
X49718705Y-5407888D01*
X49723543Y-5409478D01*
X49727297Y-5411182D01*
X49729887Y-5412998D01*
X49731232Y-5414926D01*
X49730643Y-5425429D01*
X49726717Y-5449537D01*
X49710197Y-5532269D01*
X49684351Y-5650521D01*
X49651857Y-5791693D01*
X49618403Y-5934403D01*
X49603915Y-5998452D01*
X49591399Y-6055483D01*
X49581215Y-6103881D01*
X49573722Y-6142034D01*
X49569280Y-6168331D01*
X49568315Y-6176530D01*
X49568248Y-6181160D01*
X49571423Y-6208676D01*
X49810607Y-6211851D01*
X49874822Y-6212709D01*
X49927652Y-6213753D01*
X49950115Y-6214372D01*
X49970113Y-6215070D01*
X49987774Y-6215858D01*
X50003223Y-6216746D01*
X50016589Y-6217746D01*
X50027999Y-6218869D01*
X50037579Y-6220125D01*
X50045457Y-6221525D01*
X50048798Y-6222283D01*
X50051760Y-6223080D01*
X50054361Y-6223919D01*
X50056615Y-6224801D01*
X50058540Y-6225728D01*
X50060150Y-6226699D01*
X50061461Y-6227718D01*
X50062490Y-6228785D01*
X50064127Y-6230987D01*
X50065462Y-6233650D01*
X50066494Y-6236817D01*
X50067219Y-6240525D01*
X50067634Y-6244817D01*
X50067736Y-6249732D01*
X50067522Y-6255311D01*
X50066988Y-6261593D01*
X50066132Y-6268619D01*
X50064950Y-6276430D01*
X50061597Y-6294567D01*
X50056905Y-6316325D01*
X50050849Y-6342026D01*
X50026507Y-6441510D01*
X49631749Y-6444685D01*
X49521188Y-6445270D01*
X49432468Y-6445396D01*
X49395588Y-6445267D01*
X49363318Y-6445001D01*
X49335373Y-6444589D01*
X49311470Y-6444023D01*
X49291325Y-6443296D01*
X49274654Y-6442401D01*
X49261173Y-6441328D01*
X49250599Y-6440071D01*
X49246314Y-6439371D01*
X49242649Y-6438622D01*
X49239568Y-6437823D01*
X49237038Y-6436972D01*
X49235020Y-6436070D01*
X49233482Y-6435115D01*
X49232386Y-6434107D01*
X49231698Y-6433043D01*
X49231445Y-6430115D01*
X49231855Y-6424599D01*
X49234543Y-6406370D01*
X49239512Y-6379483D01*
X49246515Y-6345069D01*
X49265631Y-6258170D01*
X49289907Y-6154701D01*
X49408440Y-5658343D01*
X49419507Y-5611284D01*
X49430301Y-5566830D01*
X49440550Y-5525998D01*
X49449980Y-5489803D01*
X49458318Y-5459265D01*
X49465293Y-5435398D01*
X49470630Y-5419222D01*
X49472599Y-5414335D01*
X49474057Y-5411751D01*
X49476170Y-5409931D01*
X49479480Y-5408241D01*
X49489361Y-5405246D01*
X49503051Y-5402764D01*
X49519896Y-5400788D01*
X49539247Y-5399314D01*
X49560452Y-5398338D01*
X49582860Y-5397855D01*
X49605819Y-5397861D01*
G37*
G36*
X51256568Y-3686241D02*
G01*
X51268082Y-3686477D01*
X51280833Y-3686913D01*
X51308446Y-3688346D01*
X51322509Y-3689323D01*
X51336210Y-3690463D01*
X51371023Y-3694515D01*
X51387612Y-3697299D01*
X51403659Y-3700591D01*
X51419164Y-3704391D01*
X51434129Y-3708699D01*
X51448556Y-3713518D01*
X51462445Y-3718849D01*
X51475798Y-3724691D01*
X51488616Y-3731047D01*
X51500901Y-3737917D01*
X51512654Y-3745303D01*
X51523877Y-3753205D01*
X51534570Y-3761624D01*
X51544735Y-3770562D01*
X51554373Y-3780020D01*
X51563486Y-3789998D01*
X51572075Y-3800498D01*
X51580141Y-3811520D01*
X51587686Y-3823066D01*
X51594711Y-3835137D01*
X51601217Y-3847734D01*
X51607206Y-3860857D01*
X51612679Y-3874509D01*
X51617637Y-3888689D01*
X51622082Y-3903399D01*
X51626015Y-3918640D01*
X51629437Y-3934413D01*
X51634756Y-3967560D01*
X51638047Y-4002847D01*
X51642915Y-4078307D01*
X51401933Y-4078307D01*
X51314959Y-4078273D01*
X51280276Y-4078365D01*
X51250939Y-4078649D01*
X51238152Y-4078890D01*
X51226555Y-4079213D01*
X51216099Y-4079628D01*
X51206734Y-4080147D01*
X51198411Y-4080780D01*
X51191082Y-4081539D01*
X51184697Y-4082435D01*
X51179207Y-4083479D01*
X51174563Y-4084683D01*
X51170717Y-4086057D01*
X51169077Y-4086811D01*
X51167619Y-4087612D01*
X51166335Y-4088461D01*
X51165220Y-4089360D01*
X51164267Y-4090310D01*
X51163471Y-4091312D01*
X51162825Y-4092368D01*
X51162323Y-4093479D01*
X51161960Y-4094647D01*
X51161728Y-4095872D01*
X51161622Y-4097157D01*
X51161635Y-4098503D01*
X51161997Y-4101381D01*
X51162763Y-4104520D01*
X51163886Y-4107929D01*
X51165315Y-4111620D01*
X51173122Y-4129424D01*
X51176280Y-4136334D01*
X51179810Y-4142912D01*
X51183693Y-4149154D01*
X51187910Y-4155057D01*
X51192444Y-4160618D01*
X51197275Y-4165831D01*
X51202386Y-4170695D01*
X51207758Y-4175204D01*
X51213372Y-4179356D01*
X51219210Y-4183146D01*
X51225253Y-4186571D01*
X51231484Y-4189627D01*
X51237884Y-4192310D01*
X51244434Y-4194618D01*
X51251116Y-4196545D01*
X51257911Y-4198088D01*
X51264802Y-4199244D01*
X51271769Y-4200008D01*
X51278795Y-4200378D01*
X51285860Y-4200349D01*
X51292947Y-4199918D01*
X51300036Y-4199081D01*
X51307110Y-4197834D01*
X51314151Y-4196174D01*
X51321139Y-4194096D01*
X51328056Y-4191597D01*
X51334884Y-4188674D01*
X51341605Y-4185323D01*
X51348199Y-4181539D01*
X51354650Y-4177320D01*
X51360937Y-4172661D01*
X51367043Y-4167559D01*
X51393819Y-4144841D01*
X51504168Y-4154577D01*
X51526527Y-4156504D01*
X51547640Y-4158583D01*
X51567024Y-4160739D01*
X51584191Y-4162894D01*
X51598658Y-4164973D01*
X51609940Y-4166900D01*
X51614235Y-4167783D01*
X51617552Y-4168599D01*
X51619830Y-4169339D01*
X51620560Y-4169678D01*
X51621008Y-4169994D01*
X51621586Y-4170925D01*
X51621807Y-4172186D01*
X51621686Y-4173759D01*
X51621236Y-4175627D01*
X51619411Y-4180179D01*
X51616444Y-4185702D01*
X51612450Y-4192056D01*
X51607544Y-4199104D01*
X51601839Y-4206705D01*
X51595449Y-4214721D01*
X51588489Y-4223013D01*
X51581073Y-4231442D01*
X51573314Y-4239868D01*
X51565327Y-4248153D01*
X51557225Y-4256157D01*
X51549124Y-4263742D01*
X51541137Y-4270768D01*
X51533378Y-4277097D01*
X51519775Y-4286650D01*
X51504884Y-4295523D01*
X51488786Y-4303699D01*
X51471560Y-4311163D01*
X51453289Y-4317899D01*
X51434053Y-4323893D01*
X51413932Y-4329128D01*
X51393008Y-4333590D01*
X51371361Y-4337262D01*
X51349072Y-4340130D01*
X51326223Y-4342178D01*
X51302893Y-4343390D01*
X51279164Y-4343751D01*
X51255116Y-4343246D01*
X51230831Y-4341858D01*
X51206388Y-4339574D01*
X51184535Y-4336734D01*
X51163957Y-4333358D01*
X51144579Y-4329408D01*
X51126327Y-4324842D01*
X51109126Y-4319620D01*
X51100895Y-4316750D01*
X51092900Y-4313701D01*
X51085130Y-4310468D01*
X51077575Y-4307046D01*
X51070227Y-4303429D01*
X51063077Y-4299613D01*
X51056114Y-4295592D01*
X51049329Y-4291362D01*
X51042714Y-4286918D01*
X51036258Y-4282254D01*
X51029953Y-4277365D01*
X51023788Y-4272246D01*
X51017756Y-4266893D01*
X51011845Y-4261300D01*
X51006048Y-4255462D01*
X51000354Y-4249375D01*
X50989239Y-4236429D01*
X50978426Y-4222424D01*
X50967840Y-4207317D01*
X50960147Y-4195187D01*
X50953042Y-4182700D01*
X50946522Y-4169884D01*
X50940584Y-4156769D01*
X50935227Y-4143382D01*
X50930449Y-4129752D01*
X50926246Y-4115906D01*
X50922618Y-4101875D01*
X50917074Y-4073366D01*
X50913799Y-4044452D01*
X50912775Y-4015359D01*
X50913984Y-3986315D01*
X50917409Y-3957547D01*
X50917598Y-3956598D01*
X51159328Y-3956598D01*
X51397065Y-3956598D01*
X51392196Y-3933879D01*
X51390152Y-3925827D01*
X51387978Y-3918102D01*
X51385675Y-3910710D01*
X51383246Y-3903655D01*
X51380693Y-3896943D01*
X51378019Y-3890578D01*
X51375227Y-3884565D01*
X51372317Y-3878908D01*
X51369294Y-3873612D01*
X51366159Y-3868683D01*
X51362915Y-3864125D01*
X51359563Y-3859942D01*
X51356107Y-3856139D01*
X51354341Y-3854382D01*
X51352549Y-3852722D01*
X51350733Y-3851159D01*
X51348891Y-3849694D01*
X51347026Y-3848328D01*
X51345136Y-3847061D01*
X51339501Y-3843725D01*
X51333296Y-3840720D01*
X51326600Y-3838056D01*
X51319488Y-3835739D01*
X51312040Y-3833780D01*
X51304330Y-3832185D01*
X51296438Y-3830963D01*
X51288440Y-3830123D01*
X51280414Y-3829673D01*
X51272436Y-3829621D01*
X51264584Y-3829975D01*
X51256935Y-3830744D01*
X51249567Y-3831937D01*
X51242557Y-3833560D01*
X51235982Y-3835624D01*
X51229919Y-3838136D01*
X51224037Y-3841010D01*
X51218275Y-3844435D01*
X51212659Y-3848371D01*
X51207212Y-3852779D01*
X51201961Y-3857619D01*
X51196929Y-3862853D01*
X51192142Y-3868441D01*
X51187625Y-3874344D01*
X51183403Y-3880522D01*
X51179500Y-3886938D01*
X51175942Y-3893550D01*
X51172754Y-3900321D01*
X51169960Y-3907210D01*
X51167586Y-3914180D01*
X51165656Y-3921189D01*
X51164196Y-3928200D01*
X51159328Y-3956598D01*
X50917598Y-3956598D01*
X50923031Y-3929282D01*
X50930834Y-3901747D01*
X50935547Y-3888323D01*
X50940798Y-3875168D01*
X50946585Y-3862308D01*
X50952906Y-3849773D01*
X50959759Y-3837590D01*
X50967141Y-3825789D01*
X50975050Y-3814397D01*
X50983484Y-3803443D01*
X50992441Y-3792955D01*
X51001918Y-3782961D01*
X51013119Y-3772454D01*
X51024811Y-3762539D01*
X51036994Y-3753215D01*
X51049663Y-3744484D01*
X51062818Y-3736347D01*
X51076455Y-3728806D01*
X51090572Y-3721861D01*
X51105167Y-3715514D01*
X51120238Y-3709767D01*
X51135781Y-3704619D01*
X51151796Y-3700073D01*
X51168278Y-3696130D01*
X51185227Y-3692790D01*
X51202639Y-3690056D01*
X51220512Y-3687927D01*
X51238844Y-3686406D01*
X51246688Y-3686214D01*
X51256568Y-3686241D01*
G37*
G36*
X46991604Y-5537468D02*
G01*
X47009085Y-5538004D01*
X47025933Y-5539032D01*
X47041963Y-5540563D01*
X47056989Y-5542606D01*
X47070824Y-5545174D01*
X47083282Y-5548276D01*
X47093277Y-5551217D01*
X47103018Y-5554479D01*
X47112498Y-5558051D01*
X47121710Y-5561927D01*
X47130649Y-5566098D01*
X47139308Y-5570554D01*
X47147681Y-5575288D01*
X47155761Y-5580291D01*
X47163542Y-5585554D01*
X47171017Y-5591070D01*
X47178180Y-5596828D01*
X47185024Y-5602822D01*
X47191544Y-5609042D01*
X47197733Y-5615479D01*
X47203584Y-5622126D01*
X47209091Y-5628974D01*
X47214248Y-5636014D01*
X47219048Y-5643238D01*
X47223485Y-5650637D01*
X47227552Y-5658202D01*
X47231243Y-5665926D01*
X47234552Y-5673799D01*
X47237473Y-5681814D01*
X47239998Y-5689961D01*
X47242121Y-5698232D01*
X47243837Y-5706618D01*
X47245138Y-5715112D01*
X47246019Y-5723703D01*
X47246473Y-5732385D01*
X47246493Y-5741148D01*
X47246073Y-5749984D01*
X47245207Y-5758885D01*
X47243432Y-5771505D01*
X47241094Y-5783959D01*
X47238204Y-5796233D01*
X47234776Y-5808316D01*
X47230823Y-5820196D01*
X47226357Y-5831862D01*
X47221391Y-5843300D01*
X47215937Y-5854498D01*
X47210009Y-5865446D01*
X47203620Y-5876131D01*
X47196782Y-5886540D01*
X47189508Y-5896662D01*
X47181810Y-5906485D01*
X47173703Y-5915997D01*
X47156307Y-5934039D01*
X47137423Y-5950692D01*
X47117153Y-5965859D01*
X47095599Y-5979445D01*
X47072864Y-5991354D01*
X47061085Y-5996650D01*
X47049050Y-6001489D01*
X47036770Y-6005862D01*
X47024259Y-6009755D01*
X47011529Y-6013157D01*
X46998594Y-6016055D01*
X46985465Y-6018438D01*
X46972157Y-6020293D01*
X46964013Y-6021197D01*
X46956612Y-6021918D01*
X46949907Y-6022446D01*
X46943846Y-6022773D01*
X46941042Y-6022859D01*
X46938381Y-6022890D01*
X46935856Y-6022866D01*
X46933461Y-6022786D01*
X46931191Y-6022648D01*
X46929038Y-6022453D01*
X46926997Y-6022197D01*
X46925061Y-6021881D01*
X46923224Y-6021502D01*
X46921481Y-6021060D01*
X46919824Y-6020554D01*
X46918248Y-6019983D01*
X46916746Y-6019345D01*
X46915313Y-6018639D01*
X46913941Y-6017864D01*
X46912625Y-6017019D01*
X46911359Y-6016102D01*
X46910137Y-6015114D01*
X46908951Y-6014051D01*
X46907797Y-6012914D01*
X46906667Y-6011700D01*
X46905556Y-6010410D01*
X46904457Y-6009041D01*
X46903365Y-6007593D01*
X46901084Y-6004605D01*
X46898956Y-6001991D01*
X46896912Y-5999756D01*
X46894882Y-5997903D01*
X46893850Y-5997120D01*
X46892796Y-5996433D01*
X46891710Y-5995844D01*
X46890584Y-5995352D01*
X46889410Y-5994957D01*
X46888178Y-5994661D01*
X46886879Y-5994463D01*
X46885506Y-5994364D01*
X46884048Y-5994364D01*
X46882499Y-5994464D01*
X46879087Y-5994963D01*
X46875202Y-5995866D01*
X46870772Y-5997175D01*
X46865728Y-5998893D01*
X46860000Y-6001024D01*
X46846215Y-6006535D01*
X46834156Y-6011136D01*
X46822568Y-6015016D01*
X46811426Y-6018174D01*
X46800707Y-6020607D01*
X46790384Y-6022315D01*
X46785363Y-6022897D01*
X46780433Y-6023296D01*
X46775589Y-6023514D01*
X46770829Y-6023549D01*
X46766150Y-6023401D01*
X46761548Y-6023071D01*
X46757021Y-6022558D01*
X46752565Y-6021862D01*
X46748177Y-6020982D01*
X46743854Y-6019919D01*
X46739594Y-6018672D01*
X46735392Y-6017241D01*
X46731246Y-6015626D01*
X46727152Y-6013827D01*
X46723109Y-6011844D01*
X46719112Y-6009675D01*
X46715158Y-6007322D01*
X46711244Y-6004784D01*
X46707368Y-6002060D01*
X46703526Y-5999151D01*
X46695932Y-5992776D01*
X46690482Y-5987816D01*
X46685623Y-5983204D01*
X46681326Y-5978868D01*
X46677560Y-5974735D01*
X46674296Y-5970732D01*
X46671505Y-5966787D01*
X46669158Y-5962826D01*
X46668141Y-5960818D01*
X46667224Y-5958777D01*
X46666404Y-5956697D01*
X46665675Y-5954567D01*
X46664481Y-5950123D01*
X46663613Y-5945371D01*
X46663041Y-5940240D01*
X46662735Y-5934656D01*
X46662667Y-5928547D01*
X46662806Y-5921839D01*
X46663123Y-5914460D01*
X46663615Y-5907051D01*
X46750965Y-5907051D01*
X46751154Y-5915613D01*
X46751734Y-5923453D01*
X46752176Y-5927111D01*
X46752723Y-5930596D01*
X46753377Y-5933914D01*
X46754140Y-5937065D01*
X46755015Y-5940054D01*
X46756003Y-5942882D01*
X46757108Y-5945554D01*
X46758332Y-5948072D01*
X46759676Y-5950439D01*
X46761144Y-5952657D01*
X46762738Y-5954730D01*
X46764459Y-5956661D01*
X46766310Y-5958452D01*
X46768294Y-5960106D01*
X46770413Y-5961627D01*
X46772669Y-5963017D01*
X46775065Y-5964279D01*
X46777602Y-5965416D01*
X46780284Y-5966431D01*
X46783112Y-5967327D01*
X46786089Y-5968106D01*
X46789217Y-5968772D01*
X46792499Y-5969328D01*
X46795936Y-5969776D01*
X46803287Y-5970361D01*
X46811290Y-5970551D01*
X46817497Y-5970251D01*
X46823803Y-5969367D01*
X46830188Y-5967922D01*
X46836632Y-5965940D01*
X46843117Y-5963443D01*
X46849623Y-5960457D01*
X46856130Y-5957003D01*
X46862619Y-5953105D01*
X46875467Y-5944074D01*
X46888011Y-5933549D01*
X46900096Y-5921719D01*
X46911567Y-5908771D01*
X46922269Y-5894893D01*
X46932048Y-5880273D01*
X46940747Y-5865097D01*
X46948212Y-5849554D01*
X46954288Y-5833831D01*
X46956757Y-5825961D01*
X46958820Y-5818116D01*
X46960459Y-5810320D01*
X46961653Y-5802596D01*
X46962384Y-5794968D01*
X46962632Y-5787460D01*
X46962559Y-5783681D01*
X46962346Y-5779902D01*
X46962004Y-5776149D01*
X46961540Y-5772445D01*
X46960965Y-5768815D01*
X46960288Y-5765284D01*
X46959517Y-5761878D01*
X46958663Y-5758620D01*
X46957734Y-5755536D01*
X46956741Y-5752650D01*
X46955691Y-5749988D01*
X46954595Y-5747574D01*
X46953462Y-5745432D01*
X46952301Y-5743588D01*
X46951712Y-5742786D01*
X46951121Y-5742067D01*
X46950527Y-5741435D01*
X46949932Y-5740893D01*
X46942846Y-5736002D01*
X46935500Y-5732027D01*
X46927926Y-5728942D01*
X46920156Y-5726719D01*
X46912220Y-5725333D01*
X46904151Y-5724757D01*
X46895980Y-5724964D01*
X46887738Y-5725927D01*
X46879458Y-5727621D01*
X46871170Y-5730019D01*
X46862907Y-5733094D01*
X46854700Y-5736819D01*
X46846581Y-5741168D01*
X46838581Y-5746115D01*
X46830731Y-5751632D01*
X46823064Y-5757694D01*
X46815611Y-5764274D01*
X46808403Y-5771345D01*
X46801473Y-5778880D01*
X46794851Y-5786854D01*
X46788569Y-5795239D01*
X46782659Y-5804010D01*
X46777153Y-5813139D01*
X46772082Y-5822600D01*
X46767478Y-5832366D01*
X46763371Y-5842411D01*
X46759795Y-5852709D01*
X46756780Y-5863232D01*
X46754358Y-5873954D01*
X46752560Y-5884849D01*
X46751419Y-5895891D01*
X46750965Y-5907051D01*
X46663615Y-5907051D01*
X46663867Y-5903249D01*
X46665288Y-5892054D01*
X46667364Y-5880897D01*
X46670071Y-5869801D01*
X46673386Y-5858788D01*
X46677288Y-5847880D01*
X46681751Y-5837100D01*
X46686754Y-5826469D01*
X46692273Y-5816011D01*
X46698285Y-5805747D01*
X46704768Y-5795699D01*
X46711697Y-5785891D01*
X46719051Y-5776344D01*
X46726805Y-5767080D01*
X46734937Y-5758122D01*
X46743424Y-5749492D01*
X46752243Y-5741212D01*
X46761371Y-5733306D01*
X46770784Y-5725794D01*
X46780460Y-5718699D01*
X46790375Y-5712044D01*
X46800507Y-5705850D01*
X46810832Y-5700141D01*
X46821328Y-5694938D01*
X46831970Y-5690264D01*
X46842737Y-5686141D01*
X46853606Y-5682590D01*
X46864552Y-5679636D01*
X46875553Y-5677299D01*
X46886586Y-5675602D01*
X46897629Y-5674568D01*
X46908657Y-5674218D01*
X46913242Y-5674316D01*
X46917855Y-5674602D01*
X46922474Y-5675069D01*
X46927078Y-5675706D01*
X46931645Y-5676505D01*
X46936153Y-5677455D01*
X46940580Y-5678548D01*
X46944905Y-5679774D01*
X46949105Y-5681125D01*
X46953160Y-5682590D01*
X46957048Y-5684160D01*
X46960747Y-5685827D01*
X46964234Y-5687580D01*
X46967489Y-5689411D01*
X46970490Y-5691310D01*
X46973215Y-5693268D01*
X46977516Y-5696617D01*
X46981332Y-5699519D01*
X46984724Y-5701974D01*
X46986279Y-5703035D01*
X46987751Y-5703984D01*
X46989146Y-5704821D01*
X46990474Y-5705546D01*
X46991740Y-5706160D01*
X46992953Y-5706662D01*
X46994121Y-5707053D01*
X46995250Y-5707332D01*
X46996349Y-5707500D01*
X46997424Y-5707555D01*
X46998485Y-5707500D01*
X46999537Y-5707332D01*
X47000588Y-5707053D01*
X47001647Y-5706662D01*
X47002721Y-5706160D01*
X47003817Y-5705546D01*
X47004943Y-5704821D01*
X47006106Y-5703984D01*
X47007314Y-5703035D01*
X47008575Y-5701974D01*
X47011284Y-5699519D01*
X47014294Y-5696617D01*
X47017665Y-5693268D01*
X47019795Y-5691310D01*
X47022200Y-5689411D01*
X47024860Y-5687580D01*
X47027752Y-5685827D01*
X47030855Y-5684160D01*
X47034148Y-5682590D01*
X47037608Y-5681125D01*
X47041213Y-5679774D01*
X47044942Y-5678548D01*
X47048774Y-5677455D01*
X47052687Y-5676505D01*
X47056658Y-5675706D01*
X47060667Y-5675069D01*
X47064691Y-5674602D01*
X47068708Y-5674316D01*
X47072698Y-5674218D01*
X47109740Y-5674218D01*
X47051532Y-5805451D01*
X47039960Y-5832296D01*
X47029207Y-5857690D01*
X47019496Y-5881075D01*
X47011050Y-5901892D01*
X47004093Y-5919584D01*
X46998847Y-5933592D01*
X46995535Y-5943359D01*
X46994675Y-5946478D01*
X46994382Y-5948326D01*
X46994492Y-5949765D01*
X46994818Y-5951104D01*
X46995351Y-5952345D01*
X46996085Y-5953486D01*
X46997011Y-5954527D01*
X46998121Y-5955470D01*
X46999408Y-5956313D01*
X47000864Y-5957058D01*
X47002481Y-5957702D01*
X47004252Y-5958248D01*
X47008223Y-5959042D01*
X47012714Y-5959439D01*
X47017665Y-5959439D01*
X47023012Y-5959042D01*
X47028695Y-5958248D01*
X47034650Y-5957058D01*
X47040816Y-5955470D01*
X47047131Y-5953486D01*
X47053533Y-5951104D01*
X47059959Y-5948326D01*
X47066348Y-5945151D01*
X47075435Y-5940031D01*
X47084232Y-5934410D01*
X47092730Y-5928316D01*
X47100920Y-5921777D01*
X47108791Y-5914819D01*
X47116334Y-5907470D01*
X47123538Y-5899756D01*
X47130394Y-5891705D01*
X47136892Y-5883345D01*
X47143022Y-5874701D01*
X47154138Y-5856673D01*
X47163664Y-5837839D01*
X47171520Y-5818416D01*
X47177628Y-5798621D01*
X47180001Y-5788651D01*
X47181907Y-5778671D01*
X47183337Y-5768705D01*
X47184280Y-5758782D01*
X47184726Y-5748929D01*
X47184667Y-5739173D01*
X47184091Y-5729541D01*
X47182989Y-5720060D01*
X47181350Y-5710757D01*
X47179166Y-5701660D01*
X47176426Y-5692796D01*
X47173121Y-5684191D01*
X47169240Y-5675872D01*
X47164773Y-5667868D01*
X47162373Y-5664412D01*
X47159560Y-5660811D01*
X47156369Y-5657092D01*
X47152834Y-5653283D01*
X47148989Y-5649412D01*
X47144868Y-5645507D01*
X47140505Y-5641595D01*
X47135934Y-5637705D01*
X47131189Y-5633865D01*
X47126305Y-5630103D01*
X47121316Y-5626446D01*
X47116255Y-5622922D01*
X47111157Y-5619559D01*
X47106056Y-5616386D01*
X47100987Y-5613429D01*
X47095982Y-5610718D01*
X47080967Y-5603996D01*
X47073899Y-5601221D01*
X47066944Y-5598812D01*
X47059963Y-5596750D01*
X47052822Y-5595017D01*
X47045382Y-5593593D01*
X47037509Y-5592462D01*
X47029065Y-5591603D01*
X47019914Y-5590998D01*
X47009920Y-5590629D01*
X46998946Y-5590477D01*
X46973513Y-5590750D01*
X46942523Y-5591668D01*
X46910577Y-5592919D01*
X46896859Y-5593656D01*
X46884398Y-5594529D01*
X46873009Y-5595581D01*
X46862510Y-5596858D01*
X46852714Y-5598405D01*
X46843437Y-5600267D01*
X46834495Y-5602488D01*
X46825704Y-5605114D01*
X46816878Y-5608190D01*
X46807834Y-5611760D01*
X46798387Y-5615869D01*
X46788352Y-5620563D01*
X46777545Y-5625887D01*
X46765782Y-5631885D01*
X46744703Y-5643571D01*
X46724749Y-5656371D01*
X46705950Y-5670231D01*
X46688341Y-5685099D01*
X46671954Y-5700922D01*
X46656821Y-5717647D01*
X46642974Y-5735222D01*
X46630447Y-5753593D01*
X46619272Y-5772709D01*
X46609481Y-5792516D01*
X46601107Y-5812961D01*
X46594183Y-5833993D01*
X46588741Y-5855558D01*
X46584813Y-5877604D01*
X46582432Y-5900078D01*
X46581632Y-5922926D01*
X46581799Y-5931567D01*
X46582300Y-5940028D01*
X46583133Y-5948306D01*
X46584298Y-5956400D01*
X46585793Y-5964310D01*
X46587617Y-5972035D01*
X46589769Y-5979573D01*
X46592248Y-5986922D01*
X46595052Y-5994083D01*
X46598181Y-6001053D01*
X46601633Y-6007832D01*
X46605407Y-6014418D01*
X46609502Y-6020811D01*
X46613917Y-6027008D01*
X46618650Y-6033010D01*
X46623700Y-6038814D01*
X46629067Y-6044419D01*
X46634749Y-6049826D01*
X46640745Y-6055031D01*
X46647054Y-6060034D01*
X46653674Y-6064835D01*
X46660605Y-6069431D01*
X46667845Y-6073821D01*
X46675393Y-6078005D01*
X46691409Y-6085749D01*
X46708644Y-6092652D01*
X46727088Y-6098706D01*
X46746732Y-6103901D01*
X46769862Y-6108727D01*
X46793166Y-6112496D01*
X46816569Y-6115217D01*
X46839997Y-6116899D01*
X46863376Y-6117552D01*
X46886630Y-6117184D01*
X46909686Y-6115806D01*
X46932469Y-6113426D01*
X46954905Y-6110054D01*
X46976919Y-6105700D01*
X46998437Y-6100371D01*
X47019385Y-6094079D01*
X47039687Y-6086831D01*
X47059271Y-6078638D01*
X47078060Y-6069508D01*
X47095982Y-6059451D01*
X47102200Y-6055734D01*
X47108523Y-6052132D01*
X47114904Y-6048664D01*
X47121299Y-6045346D01*
X47127663Y-6042195D01*
X47133951Y-6039229D01*
X47140119Y-6036465D01*
X47146120Y-6033919D01*
X47151911Y-6031609D01*
X47157446Y-6029551D01*
X47162680Y-6027764D01*
X47167568Y-6026263D01*
X47172066Y-6025066D01*
X47176128Y-6024189D01*
X47179709Y-6023651D01*
X47182765Y-6023468D01*
X47210282Y-6023468D01*
X47175357Y-6059451D01*
X47165618Y-6068885D01*
X47155083Y-6077934D01*
X47131785Y-6094852D01*
X47105786Y-6110151D01*
X47077411Y-6123778D01*
X47046983Y-6135682D01*
X47014827Y-6145809D01*
X46981266Y-6154107D01*
X46946624Y-6160522D01*
X46911226Y-6165003D01*
X46875396Y-6167496D01*
X46839457Y-6167950D01*
X46803733Y-6166310D01*
X46768549Y-6162525D01*
X46734228Y-6156541D01*
X46701095Y-6148306D01*
X46669473Y-6137768D01*
X46659977Y-6134033D01*
X46650741Y-6129979D01*
X46633068Y-6120944D01*
X46616500Y-6110735D01*
X46601079Y-6099420D01*
X46586848Y-6087070D01*
X46573851Y-6073753D01*
X46562132Y-6059541D01*
X46551734Y-6044502D01*
X46542700Y-6028707D01*
X46535073Y-6012225D01*
X46531802Y-6003749D01*
X46528898Y-5995126D01*
X46526368Y-5986367D01*
X46524217Y-5977480D01*
X46522451Y-5968474D01*
X46521074Y-5959356D01*
X46520093Y-5950137D01*
X46519512Y-5940825D01*
X46519338Y-5931428D01*
X46519575Y-5921956D01*
X46520230Y-5912416D01*
X46521307Y-5902818D01*
X46526682Y-5872317D01*
X46534050Y-5842760D01*
X46543368Y-5814198D01*
X46554595Y-5786682D01*
X46567688Y-5760265D01*
X46582605Y-5734996D01*
X46599306Y-5710927D01*
X46617747Y-5688109D01*
X46637888Y-5666593D01*
X46659686Y-5646431D01*
X46683099Y-5627673D01*
X46708086Y-5610371D01*
X46734605Y-5594576D01*
X46762613Y-5580338D01*
X46792069Y-5567711D01*
X46822932Y-5556743D01*
X46836506Y-5552962D01*
X46851308Y-5549564D01*
X46867152Y-5546560D01*
X46883852Y-5543960D01*
X46901221Y-5541776D01*
X46919075Y-5540018D01*
X46937225Y-5538698D01*
X46955488Y-5537825D01*
X46973676Y-5537412D01*
X46991604Y-5537468D01*
G37*
G36*
X47181743Y-720253D02*
G01*
X47609309Y-1637475D01*
X47834381Y-2119722D01*
X47876009Y-2208975D01*
X46634938Y-2208975D01*
X46634938Y-879708D01*
X46635863Y69440D01*
X46636872Y345743D01*
X46638112Y443914D01*
X47181743Y-720253D01*
G37*
G36*
X47478569Y-5451307D02*
G01*
X47489685Y-5451894D01*
X47500426Y-5452958D01*
X47510516Y-5454490D01*
X47519679Y-5456482D01*
X47527639Y-5458927D01*
X47531081Y-5460317D01*
X47534119Y-5461817D01*
X47536719Y-5463427D01*
X47538845Y-5465145D01*
X47540464Y-5466970D01*
X47541540Y-5468901D01*
X47541903Y-5471610D01*
X47541813Y-5476479D01*
X47540349Y-5492218D01*
X47537298Y-5515150D01*
X47532809Y-5544308D01*
X47520109Y-5617432D01*
X47503440Y-5703851D01*
X47473013Y-5862204D01*
X47463554Y-5913252D01*
X47460958Y-5928489D01*
X47460048Y-5935626D01*
X47460475Y-5937351D01*
X47461778Y-5938956D01*
X47463990Y-5940447D01*
X47467142Y-5941827D01*
X47471269Y-5943103D01*
X47476401Y-5944277D01*
X47489814Y-5946342D01*
X47507642Y-5948060D01*
X47530146Y-5949467D01*
X47557587Y-5950602D01*
X47590223Y-5951501D01*
X47719340Y-5954676D01*
X47717223Y-5986426D01*
X47715404Y-6014449D01*
X47714321Y-6025584D01*
X47712593Y-6034994D01*
X47709823Y-6042822D01*
X47707924Y-6046188D01*
X47705615Y-6049213D01*
X47702847Y-6051915D01*
X47699571Y-6054311D01*
X47695736Y-6056421D01*
X47691294Y-6058261D01*
X47680388Y-6061206D01*
X47666456Y-6063290D01*
X47649101Y-6064658D01*
X47627926Y-6065454D01*
X47572529Y-6065907D01*
X47497090Y-6065801D01*
X47464425Y-6065774D01*
X47435351Y-6065681D01*
X47409663Y-6065508D01*
X47387156Y-6065239D01*
X47367625Y-6064858D01*
X47358912Y-6064621D01*
X47350866Y-6064350D01*
X47343463Y-6064044D01*
X47336675Y-6063700D01*
X47330478Y-6063316D01*
X47324846Y-6062891D01*
X47319754Y-6062422D01*
X47315176Y-6061909D01*
X47311085Y-6061347D01*
X47307458Y-6060737D01*
X47304268Y-6060076D01*
X47301490Y-6059361D01*
X47299097Y-6058591D01*
X47298038Y-6058185D01*
X47297065Y-6057765D01*
X47296176Y-6057329D01*
X47295368Y-6056879D01*
X47294637Y-6056414D01*
X47293980Y-6055933D01*
X47293394Y-6055436D01*
X47292876Y-6054924D01*
X47292422Y-6054395D01*
X47292030Y-6053850D01*
X47291695Y-6053288D01*
X47291416Y-6052709D01*
X47291189Y-6052113D01*
X47291010Y-6051500D01*
X47290876Y-6050869D01*
X47290784Y-6050220D01*
X47290715Y-6048868D01*
X47295418Y-6013652D01*
X47307896Y-5943746D01*
X47346410Y-5747640D01*
X47386709Y-5556098D01*
X47401420Y-5491897D01*
X47409248Y-5464668D01*
X47411094Y-5462851D01*
X47413432Y-5461169D01*
X47416228Y-5459622D01*
X47419447Y-5458208D01*
X47423056Y-5456927D01*
X47427019Y-5455778D01*
X47435872Y-5453870D01*
X47445729Y-5452476D01*
X47456315Y-5451590D01*
X47467354Y-5451202D01*
X47478569Y-5451307D01*
G37*
G36*
X52419414Y-4329837D02*
G01*
X52192225Y-4329837D01*
X52192225Y-4238150D01*
X52151656Y-4276286D01*
X52138656Y-4287906D01*
X52125508Y-4298429D01*
X52112198Y-4307861D01*
X52098713Y-4316208D01*
X52085038Y-4323476D01*
X52071158Y-4329671D01*
X52057059Y-4334798D01*
X52042727Y-4338864D01*
X52028148Y-4341874D01*
X52013308Y-4343835D01*
X51998192Y-4344753D01*
X51982786Y-4344632D01*
X51967075Y-4343481D01*
X51951046Y-4341303D01*
X51934685Y-4338105D01*
X51917976Y-4333894D01*
X51905510Y-4329947D01*
X51893371Y-4325268D01*
X51881571Y-4319877D01*
X51870117Y-4313795D01*
X51859020Y-4307040D01*
X51848289Y-4299633D01*
X51837933Y-4291594D01*
X51827963Y-4282942D01*
X51809215Y-4263877D01*
X51792122Y-4242599D01*
X51776760Y-4219264D01*
X51763204Y-4194031D01*
X51751531Y-4167058D01*
X51741816Y-4138503D01*
X51734137Y-4108524D01*
X51728568Y-4077280D01*
X51725186Y-4044927D01*
X51724198Y-4015525D01*
X51964530Y-4015525D01*
X51965209Y-4033763D01*
X51967168Y-4051716D01*
X51970404Y-4069130D01*
X51974913Y-4085749D01*
X51977643Y-4093680D01*
X51980691Y-4101317D01*
X51984055Y-4108627D01*
X51987735Y-4115578D01*
X51991730Y-4122139D01*
X51996041Y-4128278D01*
X52000666Y-4133963D01*
X52005606Y-4139161D01*
X52009949Y-4143100D01*
X52014450Y-4146704D01*
X52019095Y-4149976D01*
X52023870Y-4152918D01*
X52028763Y-4155532D01*
X52033759Y-4157822D01*
X52038845Y-4159789D01*
X52044008Y-4161436D01*
X52049233Y-4162766D01*
X52054509Y-4163781D01*
X52059820Y-4164483D01*
X52065153Y-4164876D01*
X52070496Y-4164962D01*
X52075833Y-4164743D01*
X52081153Y-4164222D01*
X52086441Y-4163401D01*
X52091684Y-4162283D01*
X52096868Y-4160870D01*
X52101980Y-4159166D01*
X52107006Y-4157171D01*
X52111933Y-4154890D01*
X52116747Y-4152324D01*
X52121435Y-4149476D01*
X52125983Y-4146349D01*
X52130378Y-4142945D01*
X52134606Y-4139266D01*
X52138654Y-4135316D01*
X52142508Y-4131096D01*
X52146154Y-4126609D01*
X52149579Y-4121858D01*
X52152770Y-4116846D01*
X52155713Y-4111574D01*
X52158925Y-4104565D01*
X52161860Y-4096696D01*
X52164508Y-4088076D01*
X52166857Y-4078814D01*
X52168897Y-4069019D01*
X52170618Y-4058802D01*
X52172008Y-4048270D01*
X52173057Y-4037534D01*
X52173754Y-4026703D01*
X52174088Y-4015887D01*
X52174050Y-4005194D01*
X52173627Y-3994734D01*
X52172810Y-3984616D01*
X52171588Y-3974950D01*
X52169949Y-3965844D01*
X52167884Y-3957410D01*
X52166707Y-3953392D01*
X52165317Y-3949266D01*
X52163727Y-3945056D01*
X52161951Y-3940789D01*
X52160004Y-3936488D01*
X52157900Y-3932179D01*
X52155654Y-3927887D01*
X52153279Y-3923636D01*
X52150790Y-3919451D01*
X52148201Y-3915359D01*
X52145527Y-3911382D01*
X52142782Y-3907547D01*
X52139979Y-3903879D01*
X52137134Y-3900402D01*
X52134260Y-3897141D01*
X52131372Y-3894121D01*
X52127255Y-3890077D01*
X52123391Y-3886448D01*
X52119726Y-3883214D01*
X52116209Y-3880353D01*
X52112786Y-3877844D01*
X52109407Y-3875666D01*
X52106018Y-3873796D01*
X52102567Y-3872214D01*
X52099002Y-3870898D01*
X52095271Y-3869827D01*
X52091321Y-3868980D01*
X52087100Y-3868334D01*
X52082556Y-3867870D01*
X52077636Y-3867564D01*
X52072288Y-3867397D01*
X52066460Y-3867346D01*
X52060901Y-3867396D01*
X52055759Y-3867556D01*
X52050994Y-3867843D01*
X52046569Y-3868271D01*
X52042443Y-3868856D01*
X52038577Y-3869613D01*
X52034932Y-3870558D01*
X52033180Y-3871106D01*
X52031469Y-3871707D01*
X52029794Y-3872362D01*
X52028149Y-3873074D01*
X52026530Y-3873844D01*
X52024932Y-3874675D01*
X52023350Y-3875568D01*
X52021780Y-3876526D01*
X52018652Y-3878642D01*
X52015510Y-3881038D01*
X52012314Y-3883730D01*
X52009026Y-3886734D01*
X52005606Y-3890065D01*
X52000597Y-3895484D01*
X51995916Y-3901375D01*
X51991562Y-3907706D01*
X51987535Y-3914446D01*
X51983834Y-3921561D01*
X51980459Y-3929021D01*
X51977409Y-3936793D01*
X51974685Y-3944846D01*
X51970208Y-3961664D01*
X51967026Y-3979221D01*
X51965134Y-3997259D01*
X51964530Y-4015525D01*
X51724198Y-4015525D01*
X51724067Y-4011625D01*
X51725288Y-3977532D01*
X51728923Y-3942805D01*
X51731397Y-3926703D01*
X51734259Y-3911246D01*
X51737518Y-3896412D01*
X51741182Y-3882179D01*
X51745260Y-3868526D01*
X51749761Y-3855431D01*
X51754691Y-3842874D01*
X51760060Y-3830833D01*
X51765876Y-3819286D01*
X51772147Y-3808212D01*
X51778881Y-3797590D01*
X51786088Y-3787398D01*
X51793774Y-3777615D01*
X51801950Y-3768220D01*
X51810621Y-3759190D01*
X51819799Y-3750505D01*
X51829076Y-3742459D01*
X51838373Y-3735043D01*
X51847730Y-3728243D01*
X51857185Y-3722044D01*
X51866779Y-3716429D01*
X51876549Y-3711383D01*
X51886536Y-3706891D01*
X51896779Y-3702938D01*
X51907316Y-3699508D01*
X51918187Y-3696585D01*
X51929431Y-3694154D01*
X51941088Y-3692200D01*
X51953197Y-3690707D01*
X51965796Y-3689659D01*
X51978925Y-3689042D01*
X51992624Y-3688840D01*
X52004525Y-3689127D01*
X52015906Y-3689691D01*
X52026799Y-3690543D01*
X52037238Y-3691693D01*
X52047253Y-3693151D01*
X52056877Y-3694930D01*
X52066143Y-3697039D01*
X52075081Y-3699489D01*
X52083725Y-3702291D01*
X52092106Y-3705456D01*
X52100257Y-3708994D01*
X52108209Y-3712915D01*
X52115995Y-3717232D01*
X52123646Y-3721953D01*
X52131195Y-3727091D01*
X52138674Y-3732655D01*
X52144395Y-3736823D01*
X52149907Y-3740744D01*
X52155076Y-3744322D01*
X52159770Y-3747463D01*
X52163856Y-3750071D01*
X52165629Y-3751146D01*
X52167200Y-3752052D01*
X52168552Y-3752778D01*
X52169669Y-3753311D01*
X52170533Y-3753639D01*
X52170866Y-3753723D01*
X52171130Y-3753751D01*
X52171586Y-3752993D01*
X52172038Y-3750770D01*
X52172917Y-3742227D01*
X52173740Y-3728720D01*
X52174477Y-3710849D01*
X52175580Y-3664410D01*
X52175998Y-3607701D01*
X52175998Y-3461651D01*
X52419414Y-3461651D01*
X52419414Y-4329837D01*
G37*
D11*
G36*
X37497697Y2970000D02*
G01*
X37497697Y4970837D01*
X37778088Y4970837D01*
X37778088Y2970000D01*
X37497697Y2970000D01*
G37*
G36*
X37635450Y3814103D02*
G01*
X37635450Y4079839D01*
X38603629Y4079839D01*
X38603629Y3814103D01*
X37635450Y3814103D01*
G37*
G36*
X37635450Y4705101D02*
G01*
X37635450Y4970837D01*
X38755059Y4970837D01*
X38755059Y4705101D01*
X37635450Y4705101D01*
G37*
G36*
X39234752Y3751577D02*
G01*
X39234752Y4017313D01*
X39873203Y4017313D01*
X39976098Y4032872D01*
X40066712Y4084430D01*
X40093999Y4111591D01*
X40147766Y4198262D01*
X40173068Y4295441D01*
X40177041Y4359741D01*
X40167229Y4459878D01*
X40134141Y4552396D01*
X40093999Y4610334D01*
X40017497Y4671692D01*
X39922937Y4701769D01*
X39873203Y4705101D01*
X39234752Y4705101D01*
X39234752Y4970837D01*
X39863922Y4970837D01*
X39962153Y4964809D01*
X40062598Y4943972D01*
X40153884Y4908252D01*
X40179484Y4894633D01*
X40265074Y4835306D01*
X40336465Y4761433D01*
X40389044Y4681653D01*
X40428714Y4591446D01*
X40453692Y4491793D01*
X40463610Y4394029D01*
X40464271Y4359741D01*
X40458320Y4260097D01*
X40437750Y4157992D01*
X40402488Y4064951D01*
X40389044Y4038806D01*
X40330562Y3952046D01*
X40257880Y3879831D01*
X40179484Y3826803D01*
X40081588Y3783974D01*
X39982975Y3760466D01*
X39875203Y3751650D01*
X39863922Y3751577D01*
X39234752Y3751577D01*
G37*
G36*
X39090161Y2970000D02*
G01*
X39090161Y4970837D01*
X39370551Y4970837D01*
X39370551Y2970000D01*
X39090161Y2970000D01*
G37*
G36*
X41459805Y2946552D02*
G01*
X41358749Y2952353D01*
X41252798Y2972746D01*
X41155039Y3007823D01*
X41094417Y3039364D01*
X41011779Y3097797D01*
X40940270Y3168130D01*
X40879888Y3250365D01*
X40851152Y3301193D01*
X40809356Y3400433D01*
X40783688Y3496108D01*
X40768827Y3598804D01*
X40764690Y3694424D01*
X40764690Y4244947D01*
X40770093Y4354429D01*
X40786305Y4456706D01*
X40813324Y4551777D01*
X40851152Y4639644D01*
X40905351Y4728451D01*
X40970678Y4805280D01*
X41047134Y4870131D01*
X41094417Y4900983D01*
X41186715Y4946085D01*
X41287205Y4976426D01*
X41395887Y4992006D01*
X41459805Y4994284D01*
X41565020Y4986986D01*
X41664511Y4965090D01*
X41758277Y4928596D01*
X41776343Y4919546D01*
X41861523Y4867320D01*
X41937544Y4803454D01*
X42004405Y4727949D01*
X42016678Y4711451D01*
X42071280Y4623361D01*
X42113574Y4526399D01*
X42141116Y4431546D01*
X42148081Y4398332D01*
X41860851Y4398332D01*
X41823417Y4494342D01*
X41773901Y4567836D01*
X41702958Y4635933D01*
X41630286Y4680676D01*
X41535713Y4713065D01*
X41459805Y4720732D01*
X41361934Y4710377D01*
X41266603Y4674580D01*
X41185392Y4613214D01*
X41163782Y4589818D01*
X41104792Y4500145D01*
X41070381Y4405490D01*
X41053667Y4297620D01*
X41051919Y4245436D01*
X41051919Y3693935D01*
X41058911Y3592208D01*
X41083490Y3490319D01*
X41125766Y3401722D01*
X41163782Y3350041D01*
X41240757Y3281520D01*
X41331852Y3238377D01*
X41437067Y3220612D01*
X41459805Y3220104D01*
X41563276Y3233809D01*
X41654352Y3270789D01*
X41705513Y3303147D01*
X41781625Y3375733D01*
X41832567Y3460373D01*
X41860851Y3542505D01*
X42148081Y3542505D01*
X42123824Y3445256D01*
X42085088Y3345632D01*
X42033950Y3254881D01*
X42016190Y3229385D01*
X41950693Y3151504D01*
X41876323Y3085168D01*
X41793080Y3030375D01*
X41775366Y3020802D01*
X41683260Y2981647D01*
X41585239Y2956994D01*
X41481302Y2946842D01*
X41459805Y2946552D01*
G37*
G36*
X43287230Y2719895D02*
G01*
X43287230Y5189678D01*
X43567620Y5189678D01*
X43567620Y2719895D01*
X43287230Y2719895D01*
G37*
G36*
X45656385Y3649972D02*
G01*
X46243057Y4970837D01*
X46505862Y4970837D01*
X46505862Y2970000D01*
X46232310Y2970000D01*
X46232310Y4468674D01*
X46245988Y4380258D01*
X45754082Y3247948D01*
X45559177Y3247948D01*
X45067272Y4352903D01*
X45080949Y4468674D01*
X45080949Y2970000D01*
X44807397Y2970000D01*
X44807397Y4970837D01*
X45069714Y4970837D01*
X45656385Y3649972D01*
G37*
G36*
X47177530Y2970000D02*
G01*
X47177530Y3235736D01*
X47629868Y3235736D01*
X47734251Y3242910D01*
X47836720Y3268134D01*
X47931994Y3317459D01*
X47972296Y3350530D01*
X48036438Y3431788D01*
X48076824Y3531460D01*
X48092860Y3636909D01*
X48093929Y3675373D01*
X48093929Y4265464D01*
X48086327Y4364321D01*
X48059601Y4461376D01*
X48007337Y4551631D01*
X47972296Y4589818D01*
X47886801Y4650612D01*
X47793134Y4686075D01*
X47696574Y4702286D01*
X47629868Y4705101D01*
X47177530Y4705101D01*
X47177530Y4970837D01*
X47621563Y4970837D01*
X47730824Y4966245D01*
X47832070Y4952471D01*
X47942987Y4923820D01*
X48042363Y4881946D01*
X48130199Y4826848D01*
X48182345Y4782770D01*
X48249910Y4707018D01*
X48303497Y4620448D01*
X48343104Y4523058D01*
X48368733Y4414849D01*
X48379411Y4316410D01*
X48381159Y4253740D01*
X48381159Y3687096D01*
X48375571Y3577676D01*
X48358810Y3476559D01*
X48326597Y3372729D01*
X48291766Y3299239D01*
X48235304Y3215102D01*
X48165937Y3142944D01*
X48083664Y3082765D01*
X48032380Y3054508D01*
X47930842Y3013656D01*
X47831115Y2988568D01*
X47722473Y2974043D01*
X47620098Y2970000D01*
X47177530Y2970000D01*
G37*
G36*
X46987997Y2970000D02*
G01*
X46987997Y4970837D01*
X47268388Y4970837D01*
X47268388Y2970000D01*
X46987997Y2970000D01*
G37*
G36*
X48797348Y3814103D02*
G01*
X49720586Y3814103D01*
X49720586Y3548367D01*
X48797348Y3548367D01*
X48797348Y3814103D01*
G37*
G36*
X51016050Y3649972D02*
G01*
X51602722Y4970837D01*
X51865527Y4970837D01*
X51865527Y2970000D01*
X51591975Y2970000D01*
X51591975Y4468674D01*
X51605653Y4380258D01*
X51113748Y3247948D01*
X50918842Y3247948D01*
X50426937Y4352903D01*
X50440614Y4468674D01*
X50440614Y2970000D01*
X50167062Y2970000D01*
X50167062Y4970837D01*
X50429379Y4970837D01*
X51016050Y3649972D01*
G37*
G36*
X53125332Y2970000D02*
G01*
X53125332Y3882979D01*
X53114822Y3980295D01*
X53075993Y4071256D01*
X53050593Y4102798D01*
X52966680Y4159248D01*
X52863377Y4180753D01*
X52838102Y4181444D01*
X52739426Y4172489D01*
X52672505Y4156043D01*
X52581660Y4117957D01*
X52526448Y4082770D01*
X52321773Y4222965D01*
X52396122Y4295882D01*
X52479779Y4350310D01*
X52535241Y4376350D01*
X52629993Y4407777D01*
X52731557Y4426158D01*
X52829798Y4431549D01*
X52941329Y4424840D01*
X53041266Y4404714D01*
X53141284Y4365284D01*
X53226158Y4308330D01*
X53245011Y4291353D01*
X53309338Y4214050D01*
X53355286Y4122337D01*
X53382855Y4016214D01*
X53391901Y3911535D01*
X53392045Y3895680D01*
X53392045Y2970000D01*
X53125332Y2970000D01*
G37*
G36*
X52776553Y2946552D02*
G01*
X52668054Y2951812D01*
X52559396Y2970702D01*
X52467103Y3003331D01*
X52382833Y3056461D01*
X52313539Y3136604D01*
X52273117Y3228309D01*
X52254639Y3325396D01*
X52251431Y3393517D01*
X52258941Y3494419D01*
X52285345Y3591659D01*
X52336980Y3679491D01*
X52371598Y3715429D01*
X52458696Y3771585D01*
X52557069Y3804344D01*
X52660406Y3819319D01*
X52732589Y3821919D01*
X53137544Y3821919D01*
X53157083Y3595261D01*
X52734055Y3595261D01*
X52633479Y3581061D01*
X52569923Y3544947D01*
X52521678Y3456620D01*
X52515213Y3392051D01*
X52533409Y3295087D01*
X52587997Y3226943D01*
X52679344Y3186643D01*
X52780180Y3173682D01*
X52806839Y3173210D01*
X52906912Y3177250D01*
X53007063Y3194080D01*
X53045708Y3207404D01*
X53119033Y3276493D01*
X53125332Y3314382D01*
X53154152Y3118011D01*
X53088298Y3041898D01*
X53061828Y3021779D01*
X52970695Y2976075D01*
X52936288Y2965603D01*
X52835759Y2948803D01*
X52776553Y2946552D01*
G37*
G36*
X53809212Y4689469D02*
G01*
X53809212Y4970837D01*
X54089602Y4970837D01*
X54089602Y4689469D01*
X53809212Y4689469D01*
G37*
G36*
X53809212Y2970000D02*
G01*
X53809212Y4408101D01*
X54089602Y4408101D01*
X54089602Y2970000D01*
X53809212Y2970000D01*
G37*
G36*
X54510677Y2970000D02*
G01*
X54510677Y4408101D01*
X54791068Y4408101D01*
X54791068Y2970000D01*
X54510677Y2970000D01*
G37*
G36*
X55376274Y2970000D02*
G01*
X55376274Y3845854D01*
X55365351Y3950772D01*
X55328868Y4042417D01*
X55298604Y4082281D01*
X55218208Y4139383D01*
X55121286Y4163773D01*
X55078297Y4165812D01*
X54976773Y4153478D01*
X54885475Y4108591D01*
X54865806Y4091074D01*
X54812161Y4008800D01*
X54791725Y3909156D01*
X54791068Y3884933D01*
X54762247Y4159462D01*
X54817408Y4248901D01*
X54883972Y4321578D01*
X54934683Y4360718D01*
X55024914Y4406578D01*
X55122563Y4429059D01*
X55170133Y4431549D01*
X55279584Y4421962D01*
X55375907Y4393203D01*
X55468579Y4337930D01*
X55529170Y4278164D01*
X55584949Y4193534D01*
X55624791Y4093028D01*
X55646579Y3992062D01*
X55656166Y3878942D01*
X55656664Y3844389D01*
X55656664Y2970000D01*
X55376274Y2970000D01*
G37*
G36*
X56851500Y2719895D02*
G01*
X56851500Y5189678D01*
X57131891Y5189678D01*
X57131891Y2719895D01*
X56851500Y2719895D01*
G37*
G36*
X59001866Y4988978D02*
G01*
X59107523Y4969373D01*
X59199857Y4935322D01*
X59289067Y4878719D01*
X59327146Y4843342D01*
X59389977Y4760819D01*
X59434857Y4663702D01*
X59459401Y4566753D01*
X59470200Y4458631D01*
X59470761Y4425687D01*
X59470761Y3515150D01*
X59463889Y3404360D01*
X59443272Y3304509D01*
X59402880Y3203790D01*
X59344537Y3117358D01*
X59327146Y3097983D01*
X59246637Y3031732D01*
X59148727Y2984410D01*
X59048779Y2958531D01*
X58935508Y2947144D01*
X58900698Y2946552D01*
X58798585Y2951945D01*
X58692217Y2971867D01*
X58599592Y3006468D01*
X58510566Y3063987D01*
X58472784Y3099937D01*
X58410594Y3183590D01*
X58366172Y3280676D01*
X58341879Y3376647D01*
X58331190Y3482902D01*
X58330643Y3514661D01*
X58611026Y3514661D01*
X58620574Y3417300D01*
X58655850Y3325243D01*
X58678925Y3292889D01*
X58761472Y3235036D01*
X58863573Y3213548D01*
X58900698Y3212288D01*
X59004013Y3223623D01*
X59093986Y3265497D01*
X59122470Y3292889D01*
X59171558Y3381761D01*
X59189790Y3480314D01*
X59190858Y3514661D01*
X59190858Y4426175D01*
X59181241Y4524063D01*
X59145712Y4616213D01*
X59122470Y4648436D01*
X59039924Y4705938D01*
X58937823Y4727296D01*
X58900698Y4728548D01*
X58797383Y4717282D01*
X58707410Y4675662D01*
X58678925Y4648436D01*
X58630189Y4559700D01*
X58612087Y4460743D01*
X58611026Y4426175D01*
X58611026Y3514661D01*
X58330643Y3514661D01*
X58330635Y3515150D01*
X58330635Y4425687D01*
X58337531Y4536477D01*
X58358217Y4636327D01*
X58398746Y4737047D01*
X58457288Y4823478D01*
X58474738Y4842854D01*
X58555583Y4909105D01*
X58653524Y4956427D01*
X58753248Y4982306D01*
X58866061Y4993693D01*
X58900698Y4994284D01*
X59001866Y4988978D01*
G37*
G36*
X60490770Y4988978D02*
G01*
X60596428Y4969373D01*
X60688762Y4935322D01*
X60777971Y4878719D01*
X60816050Y4843342D01*
X60878882Y4760819D01*
X60923761Y4663702D01*
X60948305Y4566753D01*
X60959104Y4458631D01*
X60959665Y4425687D01*
X60959665Y3515150D01*
X60952793Y3404360D01*
X60932176Y3304509D01*
X60891785Y3203790D01*
X60833441Y3117358D01*
X60816050Y3097983D01*
X60735542Y3031732D01*
X60637631Y2984410D01*
X60537684Y2958531D01*
X60424413Y2947144D01*
X60389602Y2946552D01*
X60287490Y2951945D01*
X60181121Y2971867D01*
X60088497Y3006468D01*
X59999470Y3063987D01*
X59961689Y3099937D01*
X59899499Y3183590D01*
X59855077Y3280676D01*
X59830784Y3376647D01*
X59820095Y3482902D01*
X59819548Y3514661D01*
X60099930Y3514661D01*
X60109479Y3417300D01*
X60144755Y3325243D01*
X60167830Y3292889D01*
X60250376Y3235036D01*
X60352477Y3213548D01*
X60389602Y3212288D01*
X60492917Y3223623D01*
X60582890Y3265497D01*
X60611375Y3292889D01*
X60660462Y3381761D01*
X60678694Y3480314D01*
X60679763Y3514661D01*
X60679763Y4426175D01*
X60670146Y4524063D01*
X60634616Y4616213D01*
X60611375Y4648436D01*
X60528828Y4705938D01*
X60426727Y4727296D01*
X60389602Y4728548D01*
X60286288Y4717282D01*
X60196315Y4675662D01*
X60167830Y4648436D01*
X60119093Y4559700D01*
X60100991Y4460743D01*
X60099930Y4426175D01*
X60099930Y3514661D01*
X59819548Y3514661D01*
X59819540Y3515150D01*
X59819540Y4425687D01*
X59826435Y4536477D01*
X59847122Y4636327D01*
X59887651Y4737047D01*
X59946193Y4823478D01*
X59963643Y4842854D01*
X60044487Y4909105D01*
X60142429Y4956427D01*
X60242152Y4982306D01*
X60354966Y4993693D01*
X60389602Y4994284D01*
X60490770Y4988978D01*
G37*
G36*
X61335799Y3274815D02*
G01*
X61335799Y3516127D01*
X62006002Y4970837D01*
X62294697Y4970837D01*
X61640614Y3532735D01*
X62620028Y3532735D01*
X62620028Y3274815D01*
X61335799Y3274815D01*
G37*
G36*
X62196999Y2970000D02*
G01*
X62196999Y4157997D01*
X62470551Y4157997D01*
X62470551Y2970000D01*
X62196999Y2970000D01*
G37*
D12*
%TO.C,J2*%
X2000000Y7000000D03*
X2000000Y6000000D03*
X2000000Y5000000D03*
X2000000Y4000000D03*
X2000000Y3000000D03*
X2000000Y2000000D03*
X2000000Y1000000D03*
X2000000Y0D03*
X2000000Y-1000000D03*
X2000000Y-2000000D03*
X2000000Y-3000000D03*
X2000000Y-4000000D03*
X2000000Y-5000000D03*
X2000000Y-6000000D03*
X2000000Y-7000000D03*
%TD*%
%TO.C,J1*%
X98000000Y7000000D03*
X98000000Y6000000D03*
X98000000Y5000000D03*
X98000000Y4000000D03*
X98000000Y3000000D03*
X98000000Y2000000D03*
X98000000Y1000000D03*
X98000000Y0D03*
X98000000Y-1000000D03*
X98000000Y-2000000D03*
X98000000Y-3000000D03*
X98000000Y-4000000D03*
X98000000Y-5000000D03*
X98000000Y-6000000D03*
X98000000Y-7000000D03*
%TD*%
%LPC*%
D13*
%TO.C,J2*%
X2000000Y7000000D03*
X2000000Y6000000D03*
X2000000Y5000000D03*
X2000000Y4000000D03*
X2000000Y3000000D03*
X2000000Y2000000D03*
X2000000Y1000000D03*
X2000000Y0D03*
X2000000Y-1000000D03*
X2000000Y-2000000D03*
X2000000Y-3000000D03*
X2000000Y-4000000D03*
X2000000Y-5000000D03*
X2000000Y-6000000D03*
X2000000Y-7000000D03*
%TD*%
%TO.C,J1*%
X98000000Y7000000D03*
X98000000Y6000000D03*
X98000000Y5000000D03*
X98000000Y4000000D03*
X98000000Y3000000D03*
X98000000Y2000000D03*
X98000000Y1000000D03*
X98000000Y0D03*
X98000000Y-1000000D03*
X98000000Y-2000000D03*
X98000000Y-3000000D03*
X98000000Y-4000000D03*
X98000000Y-5000000D03*
X98000000Y-6000000D03*
X98000000Y-7000000D03*
%TD*%
%LPD*%
M02*
