%TF.GenerationSoftware,KiCad,Pcbnew,8.0.1*%
%TF.CreationDate,2024-07-18T22:31:53+09:00*%
%TF.ProjectId,MD-20240410,4d442d32-3032-4343-9034-31302e6b6963,rev?*%
%TF.SameCoordinates,Original*%
%TF.FileFunction,Profile,NP*%
%FSLAX46Y46*%
G04 Gerber Fmt 4.6, Leading zero omitted, Abs format (unit mm)*
G04 Created by KiCad (PCBNEW 8.0.1) date 2024-07-18 22:31:53*
%MOMM*%
%LPD*%
G01*
G04 APERTURE LIST*
%TA.AperFunction,Profile*%
%ADD10C,0.120000*%
%TD*%
G04 APERTURE END LIST*
D10*
X-41898242Y-15487018D02*
X-49160983Y-22749758D01*
X-49160983Y22724758D02*
G75*
G02*
X-44635499Y27250242I2262742J2262742D01*
G01*
X-38837223Y21451965D02*
X-44635499Y27250242D01*
X35651690Y19987500D02*
X-35301691Y19987500D01*
X35651700Y-20012500D02*
G75*
G02*
X39193145Y-21482887I0J-5000000D01*
G01*
X-41898242Y15462018D02*
G75*
G02*
X-41898242Y-15487018I-15474515J-15474518D01*
G01*
X-45298241Y-25012500D02*
G75*
G02*
X-48498241Y-25012500I-1600000J0D01*
G01*
X-48498241Y-25012500D02*
G75*
G02*
X-45298241Y-25012500I1600000J0D01*
G01*
X-35301691Y-20012500D02*
X35651700Y-20012500D01*
X44985498Y27250241D02*
G75*
G02*
X49510941Y22724798I2262702J-2262741D01*
G01*
X-35301691Y19987500D02*
G75*
G02*
X-38837223Y21451965I0J4999998D01*
G01*
X-44635499Y-27275242D02*
X-38837223Y-21476965D01*
X39193145Y-21482887D02*
X44985498Y-27275241D01*
X49510962Y-22749737D02*
X42248243Y-15487019D01*
X42248243Y15462019D02*
X49510982Y22724757D01*
X-45298241Y24987500D02*
G75*
G02*
X-48498241Y24987500I-1600000J0D01*
G01*
X-48498241Y24987500D02*
G75*
G02*
X-45298241Y24987500I1600000J0D01*
G01*
X42248243Y-15487019D02*
G75*
G02*
X42248243Y15462019I15474517J15474519D01*
G01*
X48848241Y24987500D02*
G75*
G02*
X45648241Y24987500I-1600000J0D01*
G01*
X45648241Y24987500D02*
G75*
G02*
X48848241Y24987500I1600000J0D01*
G01*
X48848241Y-25012500D02*
G75*
G02*
X45648241Y-25012500I-1600000J0D01*
G01*
X45648241Y-25012500D02*
G75*
G02*
X48848241Y-25012500I1600000J0D01*
G01*
X-44635499Y-27275242D02*
G75*
G02*
X-49160983Y-22749758I-2262742J2262742D01*
G01*
X-38837223Y-21476965D02*
G75*
G02*
X-35301691Y-20012500I3535532J-3535533D01*
G01*
X44985498Y27250241D02*
X39187229Y21451971D01*
X49510962Y-22749737D02*
G75*
G02*
X44985457Y-27275282I-2262762J-2262763D01*
G01*
X39187229Y21451971D02*
G75*
G02*
X35651690Y19987507I-3535529J3535529D01*
G01*
X-49160983Y22724758D02*
X-41898242Y15462018D01*
M02*
