%TF.GenerationSoftware,KiCad,Pcbnew,8.0.1*%
%TF.CreationDate,2024-07-18T22:31:53+09:00*%
%TF.ProjectId,MD-20240410,4d442d32-3032-4343-9034-31302e6b6963,rev?*%
%TF.SameCoordinates,Original*%
%TF.FileFunction,Paste,Top*%
%TF.FilePolarity,Positive*%
%FSLAX46Y46*%
G04 Gerber Fmt 4.6, Leading zero omitted, Abs format (unit mm)*
G04 Created by KiCad (PCBNEW 8.0.1) date 2024-07-18 22:31:53*
%MOMM*%
%LPD*%
G01*
G04 APERTURE LIST*
G04 Aperture macros list*
%AMRoundRect*
0 Rectangle with rounded corners*
0 $1 Rounding radius*
0 $2 $3 $4 $5 $6 $7 $8 $9 X,Y pos of 4 corners*
0 Add a 4 corners polygon primitive as box body*
4,1,4,$2,$3,$4,$5,$6,$7,$8,$9,$2,$3,0*
0 Add four circle primitives for the rounded corners*
1,1,$1+$1,$2,$3*
1,1,$1+$1,$4,$5*
1,1,$1+$1,$6,$7*
1,1,$1+$1,$8,$9*
0 Add four rect primitives between the rounded corners*
20,1,$1+$1,$2,$3,$4,$5,0*
20,1,$1+$1,$4,$5,$6,$7,0*
20,1,$1+$1,$6,$7,$8,$9,0*
20,1,$1+$1,$8,$9,$2,$3,0*%
G04 Aperture macros list end*
%ADD10RoundRect,0.200000X-0.275000X0.200000X-0.275000X-0.200000X0.275000X-0.200000X0.275000X0.200000X0*%
%ADD11RoundRect,0.200000X-0.200000X-0.275000X0.200000X-0.275000X0.200000X0.275000X-0.200000X0.275000X0*%
%ADD12RoundRect,0.225000X0.225000X0.250000X-0.225000X0.250000X-0.225000X-0.250000X0.225000X-0.250000X0*%
%ADD13RoundRect,0.232500X-0.232500X0.757500X-0.232500X-0.757500X0.232500X-0.757500X0.232500X0.757500X0*%
%ADD14RoundRect,0.100000X-0.100000X0.687500X-0.100000X-0.687500X0.100000X-0.687500X0.100000X0.687500X0*%
%ADD15RoundRect,0.200000X0.275000X-0.200000X0.275000X0.200000X-0.275000X0.200000X-0.275000X-0.200000X0*%
%ADD16RoundRect,0.150000X-0.150000X0.587500X-0.150000X-0.587500X0.150000X-0.587500X0.150000X0.587500X0*%
%ADD17RoundRect,0.225000X-0.225000X-0.250000X0.225000X-0.250000X0.225000X0.250000X-0.225000X0.250000X0*%
%ADD18RoundRect,0.232500X0.232500X-0.757500X0.232500X0.757500X-0.232500X0.757500X-0.232500X-0.757500X0*%
%ADD19RoundRect,0.100000X0.100000X-0.687500X0.100000X0.687500X-0.100000X0.687500X-0.100000X-0.687500X0*%
%ADD20R,2.680000X3.600000*%
%ADD21R,0.610000X2.000000*%
%ADD22RoundRect,0.150000X0.150000X-0.587500X0.150000X0.587500X-0.150000X0.587500X-0.150000X-0.587500X0*%
G04 APERTURE END LIST*
D10*
%TO.C,R16*%
X24425000Y5562500D03*
X24425000Y3912500D03*
%TD*%
%TO.C,R13*%
X21425000Y-16937500D03*
X21425000Y-18587500D03*
%TD*%
D11*
%TO.C,R23*%
X31850000Y-762500D03*
X33500000Y-762500D03*
%TD*%
D12*
%TO.C,C4*%
X8450000Y-16012500D03*
X6900000Y-16012500D03*
%TD*%
D13*
%TO.C,U2*%
X-24245000Y-12012500D03*
X-25405000Y-12012500D03*
D14*
X-22550000Y-9150000D03*
X-23200000Y-9150000D03*
X-23850000Y-9150000D03*
X-24500000Y-9150000D03*
X-25150000Y-9150000D03*
X-25800000Y-9150000D03*
X-26450000Y-9150000D03*
X-27100000Y-9150000D03*
X-27100000Y-14875000D03*
X-26450000Y-14875000D03*
X-25800000Y-14875000D03*
X-25150000Y-14875000D03*
X-24500000Y-14875000D03*
X-23850000Y-14875000D03*
X-23200000Y-14875000D03*
X-22550000Y-14875000D03*
%TD*%
D13*
%TO.C,U1*%
X-24245000Y10487500D03*
X-25405000Y10487500D03*
D14*
X-22550000Y13350000D03*
X-23200000Y13350000D03*
X-23850000Y13350000D03*
X-24500000Y13350000D03*
X-25150000Y13350000D03*
X-25800000Y13350000D03*
X-26450000Y13350000D03*
X-27100000Y13350000D03*
X-27100000Y7625000D03*
X-26450000Y7625000D03*
X-25800000Y7625000D03*
X-25150000Y7625000D03*
X-24500000Y7625000D03*
X-23850000Y7625000D03*
X-23200000Y7625000D03*
X-22550000Y7625000D03*
%TD*%
D12*
%TO.C,C9*%
X-21250000Y-17662500D03*
X-22800000Y-17662500D03*
%TD*%
%TO.C,C5*%
X8450000Y-14512500D03*
X6900000Y-14512500D03*
%TD*%
%TO.C,C8*%
X8450000Y-11512500D03*
X6900000Y-11512500D03*
%TD*%
%TO.C,C10*%
X-24250000Y-17662500D03*
X-25800000Y-17662500D03*
%TD*%
D10*
%TO.C,R14*%
X22925000Y-16937500D03*
X22925000Y-18587500D03*
%TD*%
%TO.C,R17*%
X21425000Y5562500D03*
X21425000Y3912500D03*
%TD*%
D11*
%TO.C,R21*%
X31850000Y2237500D03*
X33500000Y2237500D03*
%TD*%
D15*
%TO.C,R7*%
X-25575000Y16912500D03*
X-25575000Y18562500D03*
%TD*%
D10*
%TO.C,R12*%
X24425000Y-16937500D03*
X24425000Y-18587500D03*
%TD*%
D16*
%TO.C,Q3*%
X33625000Y5925000D03*
X31725000Y5925000D03*
X32675000Y4050000D03*
%TD*%
D15*
%TO.C,R8*%
X-24075000Y-5587500D03*
X-24075000Y-3937500D03*
%TD*%
D17*
%TO.C,C12*%
X24600000Y-4862500D03*
X26150000Y-4862500D03*
%TD*%
D18*
%TO.C,U3*%
X24595000Y-10512500D03*
X25755000Y-10512500D03*
D19*
X22900000Y-13375000D03*
X23550000Y-13375000D03*
X24200000Y-13375000D03*
X24850000Y-13375000D03*
X25500000Y-13375000D03*
X26150000Y-13375000D03*
X26800000Y-13375000D03*
X27450000Y-13375000D03*
X27450000Y-7650000D03*
X26800000Y-7650000D03*
X26150000Y-7650000D03*
X25500000Y-7650000D03*
X24850000Y-7650000D03*
X24200000Y-7650000D03*
X23550000Y-7650000D03*
X22900000Y-7650000D03*
%TD*%
D17*
%TO.C,C14*%
X24600000Y17637500D03*
X26150000Y17637500D03*
%TD*%
D10*
%TO.C,R18*%
X22925000Y5562500D03*
X22925000Y3912500D03*
%TD*%
%TO.C,R15*%
X25925000Y-16937500D03*
X25925000Y-18587500D03*
%TD*%
D15*
%TO.C,R10*%
X-22575000Y-5587500D03*
X-22575000Y-3937500D03*
%TD*%
D12*
%TO.C,C3*%
X8450000Y-17482500D03*
X6900000Y-17482500D03*
%TD*%
D15*
%TO.C,R4*%
X-24075000Y16912500D03*
X-24075000Y18562500D03*
%TD*%
D18*
%TO.C,U4*%
X24595000Y11987500D03*
X25755000Y11987500D03*
D19*
X22900000Y9125000D03*
X23550000Y9125000D03*
X24200000Y9125000D03*
X24850000Y9125000D03*
X25500000Y9125000D03*
X26150000Y9125000D03*
X26800000Y9125000D03*
X27450000Y9125000D03*
X27450000Y14850000D03*
X26800000Y14850000D03*
X26150000Y14850000D03*
X25500000Y14850000D03*
X24850000Y14850000D03*
X24200000Y14850000D03*
X23550000Y14850000D03*
X22900000Y14850000D03*
%TD*%
D12*
%TO.C,C1*%
X-21250000Y4837500D03*
X-22800000Y4837500D03*
%TD*%
D17*
%TO.C,C11*%
X21600000Y-4862500D03*
X23150000Y-4862500D03*
%TD*%
D10*
%TO.C,R19*%
X25925000Y5562500D03*
X25925000Y3912500D03*
%TD*%
D15*
%TO.C,R11*%
X-25575000Y-5587500D03*
X-25575000Y-3937500D03*
%TD*%
D17*
%TO.C,C13*%
X21600000Y17637500D03*
X23150000Y17637500D03*
%TD*%
D11*
%TO.C,R1*%
X6600000Y6737500D03*
X8250000Y6737500D03*
%TD*%
D20*
%TO.C,J8*%
X10165000Y1237500D03*
X-9815000Y1237500D03*
D21*
X7175000Y4037500D03*
X6175000Y4037500D03*
X5175000Y4037500D03*
X4175000Y4037500D03*
X3175000Y4037500D03*
X2175000Y4037500D03*
X1175000Y4037500D03*
X175000Y4037500D03*
X-825000Y4037500D03*
X-1825000Y4037500D03*
X-2825000Y4037500D03*
X-3825000Y4037500D03*
X-4825000Y4037500D03*
X-5825000Y4037500D03*
X-6825000Y4037500D03*
%TD*%
D15*
%TO.C,R3*%
X-21075000Y16912500D03*
X-21075000Y18562500D03*
%TD*%
D12*
%TO.C,C2*%
X-24250000Y4837500D03*
X-25800000Y4837500D03*
%TD*%
D15*
%TO.C,R9*%
X-21075000Y-5587500D03*
X-21075000Y-3937500D03*
%TD*%
D11*
%TO.C,R22*%
X31850000Y-2262500D03*
X33500000Y-2262500D03*
%TD*%
D22*
%TO.C,Q4*%
X31725000Y-5950000D03*
X33625000Y-5950000D03*
X32675000Y-4075000D03*
%TD*%
D15*
%TO.C,R6*%
X-22575000Y16912500D03*
X-22575000Y18562500D03*
%TD*%
D12*
%TO.C,C7*%
X8450000Y-13012500D03*
X6900000Y-13012500D03*
%TD*%
D11*
%TO.C,R20*%
X31850000Y737500D03*
X33500000Y737500D03*
%TD*%
M02*
