%TF.GenerationSoftware,KiCad,Pcbnew,8.0.1*%
%TF.CreationDate,2024-07-18T22:31:53+09:00*%
%TF.ProjectId,MD-20240410,4d442d32-3032-4343-9034-31302e6b6963,rev?*%
%TF.SameCoordinates,Original*%
%TF.FileFunction,Copper,L1,Top*%
%TF.FilePolarity,Positive*%
%FSLAX46Y46*%
G04 Gerber Fmt 4.6, Leading zero omitted, Abs format (unit mm)*
G04 Created by KiCad (PCBNEW 8.0.1) date 2024-07-18 22:31:53*
%MOMM*%
%LPD*%
G01*
G04 APERTURE LIST*
G04 Aperture macros list*
%AMRoundRect*
0 Rectangle with rounded corners*
0 $1 Rounding radius*
0 $2 $3 $4 $5 $6 $7 $8 $9 X,Y pos of 4 corners*
0 Add a 4 corners polygon primitive as box body*
4,1,4,$2,$3,$4,$5,$6,$7,$8,$9,$2,$3,0*
0 Add four circle primitives for the rounded corners*
1,1,$1+$1,$2,$3*
1,1,$1+$1,$4,$5*
1,1,$1+$1,$6,$7*
1,1,$1+$1,$8,$9*
0 Add four rect primitives between the rounded corners*
20,1,$1+$1,$2,$3,$4,$5,0*
20,1,$1+$1,$4,$5,$6,$7,0*
20,1,$1+$1,$6,$7,$8,$9,0*
20,1,$1+$1,$8,$9,$2,$3,0*%
%AMHorizOval*
0 Thick line with rounded ends*
0 $1 width*
0 $2 $3 position (X,Y) of the first rounded end (center of the circle)*
0 $4 $5 position (X,Y) of the second rounded end (center of the circle)*
0 Add line between two ends*
20,1,$1,$2,$3,$4,$5,0*
0 Add two circle primitives to create the rounded ends*
1,1,$1,$2,$3*
1,1,$1,$4,$5*%
G04 Aperture macros list end*
%TA.AperFunction,NonConductor*%
%ADD10C,0.200000*%
%TD*%
%TA.AperFunction,ComponentPad*%
%ADD11RoundRect,0.250000X0.600000X0.725000X-0.600000X0.725000X-0.600000X-0.725000X0.600000X-0.725000X0*%
%TD*%
%TA.AperFunction,ComponentPad*%
%ADD12O,1.700000X1.950000*%
%TD*%
%TA.AperFunction,SMDPad,CuDef*%
%ADD13RoundRect,0.200000X-0.275000X0.200000X-0.275000X-0.200000X0.275000X-0.200000X0.275000X0.200000X0*%
%TD*%
%TA.AperFunction,ComponentPad*%
%ADD14RoundRect,0.250000X0.954594X0.106066X0.106066X0.954594X-0.954594X-0.106066X-0.106066X-0.954594X0*%
%TD*%
%TA.AperFunction,ComponentPad*%
%ADD15HorizOval,1.700000X0.106066X0.106066X-0.106066X-0.106066X0*%
%TD*%
%TA.AperFunction,SMDPad,CuDef*%
%ADD16RoundRect,0.200000X-0.200000X-0.275000X0.200000X-0.275000X0.200000X0.275000X-0.200000X0.275000X0*%
%TD*%
%TA.AperFunction,SMDPad,CuDef*%
%ADD17RoundRect,0.225000X0.225000X0.250000X-0.225000X0.250000X-0.225000X-0.250000X0.225000X-0.250000X0*%
%TD*%
%TA.AperFunction,SMDPad,CuDef*%
%ADD18RoundRect,0.100000X-0.100000X0.687500X-0.100000X-0.687500X0.100000X-0.687500X0.100000X0.687500X0*%
%TD*%
%TA.AperFunction,HeatsinkPad*%
%ADD19R,5.000000X3.400000*%
%TD*%
%TA.AperFunction,SMDPad,CuDef*%
%ADD20RoundRect,0.200000X0.275000X-0.200000X0.275000X0.200000X-0.275000X0.200000X-0.275000X-0.200000X0*%
%TD*%
%TA.AperFunction,SMDPad,CuDef*%
%ADD21RoundRect,0.150000X-0.150000X0.587500X-0.150000X-0.587500X0.150000X-0.587500X0.150000X0.587500X0*%
%TD*%
%TA.AperFunction,ComponentPad*%
%ADD22RoundRect,0.250000X-0.954594X-0.106066X-0.106066X-0.954594X0.954594X0.106066X0.106066X0.954594X0*%
%TD*%
%TA.AperFunction,ComponentPad*%
%ADD23HorizOval,1.700000X-0.106066X-0.106066X0.106066X0.106066X0*%
%TD*%
%TA.AperFunction,SMDPad,CuDef*%
%ADD24RoundRect,0.225000X-0.225000X-0.250000X0.225000X-0.250000X0.225000X0.250000X-0.225000X0.250000X0*%
%TD*%
%TA.AperFunction,SMDPad,CuDef*%
%ADD25RoundRect,0.100000X0.100000X-0.687500X0.100000X0.687500X-0.100000X0.687500X-0.100000X-0.687500X0*%
%TD*%
%TA.AperFunction,ComponentPad*%
%ADD26C,3.400000*%
%TD*%
%TA.AperFunction,SMDPad,CuDef*%
%ADD27R,2.680000X3.600000*%
%TD*%
%TA.AperFunction,SMDPad,CuDef*%
%ADD28R,0.610000X2.000000*%
%TD*%
%TA.AperFunction,ComponentPad*%
%ADD29RoundRect,0.250000X0.106066X-0.954594X0.954594X-0.106066X-0.106066X0.954594X-0.954594X0.106066X0*%
%TD*%
%TA.AperFunction,ComponentPad*%
%ADD30HorizOval,1.700000X-0.106066X0.106066X0.106066X-0.106066X0*%
%TD*%
%TA.AperFunction,ComponentPad*%
%ADD31RoundRect,0.250000X-0.106066X0.954594X-0.954594X0.106066X0.106066X-0.954594X0.954594X-0.106066X0*%
%TD*%
%TA.AperFunction,SMDPad,CuDef*%
%ADD32RoundRect,0.150000X0.150000X-0.587500X0.150000X0.587500X-0.150000X0.587500X-0.150000X-0.587500X0*%
%TD*%
%TA.AperFunction,ComponentPad*%
%ADD33RoundRect,0.250000X-0.725000X0.600000X-0.725000X-0.600000X0.725000X-0.600000X0.725000X0.600000X0*%
%TD*%
%TA.AperFunction,ComponentPad*%
%ADD34O,1.950000X1.700000*%
%TD*%
%TA.AperFunction,ViaPad*%
%ADD35C,0.800000*%
%TD*%
%TA.AperFunction,ViaPad*%
%ADD36C,0.500000*%
%TD*%
%TA.AperFunction,Conductor*%
%ADD37C,0.500000*%
%TD*%
%TA.AperFunction,Conductor*%
%ADD38C,0.450000*%
%TD*%
%TA.AperFunction,Conductor*%
%ADD39C,1.000000*%
%TD*%
G04 APERTURE END LIST*
D10*
X52248241Y-25012500D02*
G75*
G02*
X42248241Y-25012500I-5000000J0D01*
G01*
X42248241Y-25012500D02*
G75*
G02*
X52248241Y-25012500I5000000J0D01*
G01*
X-41898241Y-25012500D02*
G75*
G02*
X-51898241Y-25012500I-5000000J0D01*
G01*
X-51898241Y-25012500D02*
G75*
G02*
X-41898241Y-25012500I5000000J0D01*
G01*
X52248241Y24987500D02*
G75*
G02*
X42248241Y24987500I-5000000J0D01*
G01*
X42248241Y24987500D02*
G75*
G02*
X52248241Y24987500I5000000J0D01*
G01*
X-41898241Y24987500D02*
G75*
G02*
X-51898241Y24987500I-5000000J0D01*
G01*
X-51898241Y24987500D02*
G75*
G02*
X-41898241Y24987500I5000000J0D01*
G01*
D11*
%TO.P,J1,1,Pin_1*%
%TO.N,ball02k*%
X5175000Y12237500D03*
D12*
%TO.P,J1,2,Pin_2*%
%TO.N,KickerSignal-main*%
X2675000Y12237500D03*
%TO.P,J1,3,Pin_3*%
%TO.N,GND*%
X175000Y12237500D03*
%TO.P,J1,4,Pin_4*%
%TO.N,SLEEP-1*%
X-2325000Y12237500D03*
%TO.P,J1,5,Pin_5*%
%TO.N,ball01k*%
X-4825000Y12237500D03*
%TD*%
D13*
%TO.P,R16,1*%
%TO.N,Net-(U4-IPROPI)*%
X24425000Y5562500D03*
%TO.P,R16,2*%
%TO.N,GND*%
X24425000Y3912500D03*
%TD*%
%TO.P,R13,1*%
%TO.N,SLEEP-1*%
X21425000Y-16937500D03*
%TO.P,R13,2*%
%TO.N,VREF-3*%
X21425000Y-18587500D03*
%TD*%
D14*
%TO.P,J4,1,Pin_1*%
%TO.N,OUT2-2*%
X-36570707Y-16452732D03*
D15*
%TO.P,J4,2,Pin_2*%
%TO.N,OUT1-2*%
X-38338473Y-14684966D03*
%TD*%
D16*
%TO.P,R23,1*%
%TO.N,+5V*%
X31850000Y-762500D03*
%TO.P,R23,2*%
%TO.N,Line-MD-Main=TX_5V*%
X33500000Y-762500D03*
%TD*%
D17*
%TO.P,C4,1*%
%TO.N,VM*%
X8450000Y-16012500D03*
%TO.P,C4,2*%
%TO.N,GND*%
X6900000Y-16012500D03*
%TD*%
D18*
%TO.P,U2,1,EN*%
%TO.N,EN-2*%
X-22550000Y-9150000D03*
%TO.P,U2,2,PH*%
%TO.N,PH-2*%
X-23200000Y-9150000D03*
%TO.P,U2,3,SLEEP*%
%TO.N,SLEEP-1*%
X-23850000Y-9150000D03*
%TO.P,U2,4,FAULT*%
%TO.N,unconnected-(U2-FAULT-Pad4)*%
X-24500000Y-9150000D03*
%TO.P,U2,5,VREF*%
%TO.N,VREF-2*%
X-25150000Y-9150000D03*
%TO.P,U2,6,IPROPI*%
%TO.N,Net-(U2-IPROPI)*%
X-25800000Y-9150000D03*
%TO.P,U2,7,IMODE*%
%TO.N,IMODE-2*%
X-26450000Y-9150000D03*
%TO.P,U2,8,OUT1*%
%TO.N,OUT1-2*%
X-27100000Y-9150000D03*
%TO.P,U2,9,PGND*%
%TO.N,GND*%
X-27100000Y-14875000D03*
%TO.P,U2,10,OUT2*%
%TO.N,OUT2-2*%
X-26450000Y-14875000D03*
%TO.P,U2,11,VM*%
%TO.N,VM*%
X-25800000Y-14875000D03*
%TO.P,U2,12,VCP*%
%TO.N,Net-(U2-VCP)*%
X-25150000Y-14875000D03*
%TO.P,U2,13,CPH*%
%TO.N,Net-(U2-CPH)*%
X-24500000Y-14875000D03*
%TO.P,U2,14,CPL*%
%TO.N,Net-(U2-CPL)*%
X-23850000Y-14875000D03*
%TO.P,U2,15,GND*%
%TO.N,GND*%
X-23200000Y-14875000D03*
%TO.P,U2,16,PMODE*%
X-22550000Y-14875000D03*
D19*
%TO.P,U2,17,GND*%
X-24825000Y-12012500D03*
%TD*%
D18*
%TO.P,U1,1,EN*%
%TO.N,EN-1*%
X-22550000Y13350000D03*
%TO.P,U1,2,PH*%
%TO.N,PH-1*%
X-23200000Y13350000D03*
%TO.P,U1,3,SLEEP*%
%TO.N,SLEEP-1*%
X-23850000Y13350000D03*
%TO.P,U1,4,FAULT*%
%TO.N,unconnected-(U1-FAULT-Pad4)*%
X-24500000Y13350000D03*
%TO.P,U1,5,VREF*%
%TO.N,VREF-1*%
X-25150000Y13350000D03*
%TO.P,U1,6,IPROPI*%
%TO.N,Net-(U1-IPROPI)*%
X-25800000Y13350000D03*
%TO.P,U1,7,IMODE*%
%TO.N,IMODE-1*%
X-26450000Y13350000D03*
%TO.P,U1,8,OUT1*%
%TO.N,OUT1-1*%
X-27100000Y13350000D03*
%TO.P,U1,9,PGND*%
%TO.N,GND*%
X-27100000Y7625000D03*
%TO.P,U1,10,OUT2*%
%TO.N,OUT2-1*%
X-26450000Y7625000D03*
%TO.P,U1,11,VM*%
%TO.N,VM*%
X-25800000Y7625000D03*
%TO.P,U1,12,VCP*%
%TO.N,Net-(U1-VCP)*%
X-25150000Y7625000D03*
%TO.P,U1,13,CPH*%
%TO.N,Net-(U1-CPH)*%
X-24500000Y7625000D03*
%TO.P,U1,14,CPL*%
%TO.N,Net-(U1-CPL)*%
X-23850000Y7625000D03*
%TO.P,U1,15,GND*%
%TO.N,GND*%
X-23200000Y7625000D03*
%TO.P,U1,16,PMODE*%
X-22550000Y7625000D03*
D19*
%TO.P,U1,17,GND*%
X-24825000Y10487500D03*
%TD*%
D17*
%TO.P,C9,1*%
%TO.N,Net-(U2-CPL)*%
X-21250000Y-17662500D03*
%TO.P,C9,2*%
%TO.N,Net-(U2-CPH)*%
X-22800000Y-17662500D03*
%TD*%
%TO.P,C5,1*%
%TO.N,VM*%
X8450000Y-14512500D03*
%TO.P,C5,2*%
%TO.N,GND*%
X6900000Y-14512500D03*
%TD*%
%TO.P,C8,1*%
%TO.N,VM*%
X8450000Y-11512500D03*
%TO.P,C8,2*%
%TO.N,GND*%
X6900000Y-11512500D03*
%TD*%
%TO.P,C10,1*%
%TO.N,Net-(U2-VCP)*%
X-24250000Y-17662500D03*
%TO.P,C10,2*%
%TO.N,VM*%
X-25800000Y-17662500D03*
%TD*%
D13*
%TO.P,R14,1*%
%TO.N,VREF-3*%
X22925000Y-16937500D03*
%TO.P,R14,2*%
%TO.N,GND*%
X22925000Y-18587500D03*
%TD*%
%TO.P,R17,1*%
%TO.N,SLEEP-1*%
X21425000Y5562500D03*
%TO.P,R17,2*%
%TO.N,VREF-4*%
X21425000Y3912500D03*
%TD*%
D16*
%TO.P,R21,1*%
%TO.N,+5V*%
X31850000Y2237500D03*
%TO.P,R21,2*%
%TO.N,Line-MD-Main=RX_5V*%
X33500000Y2237500D03*
%TD*%
D20*
%TO.P,R7,1*%
%TO.N,IMODE-1*%
X-25575000Y16912500D03*
%TO.P,R7,2*%
%TO.N,GND*%
X-25575000Y18562500D03*
%TD*%
D13*
%TO.P,R12,1*%
%TO.N,Net-(U3-IPROPI)*%
X24425000Y-16937500D03*
%TO.P,R12,2*%
%TO.N,GND*%
X24425000Y-18587500D03*
%TD*%
D21*
%TO.P,Q3,1,D*%
%TO.N,Line-MD-Main=RX_5V*%
X33625000Y5925000D03*
%TO.P,Q3,2,G*%
%TO.N,SLEEP-1*%
X31725000Y5925000D03*
%TO.P,Q3,3,S*%
%TO.N,Line-MD-Main=RX_3.3V*%
X32675000Y4050000D03*
%TD*%
D22*
%TO.P,J6,1,Pin_1*%
%TO.N,OUT2-4*%
X36920707Y16427732D03*
D23*
%TO.P,J6,2,Pin_2*%
%TO.N,OUT1-4*%
X38688473Y14659966D03*
%TD*%
D20*
%TO.P,R8,1*%
%TO.N,Net-(U2-IPROPI)*%
X-24075000Y-5587500D03*
%TO.P,R8,2*%
%TO.N,GND*%
X-24075000Y-3937500D03*
%TD*%
D24*
%TO.P,C12,1*%
%TO.N,Net-(U3-VCP)*%
X24600000Y-4862500D03*
%TO.P,C12,2*%
%TO.N,VM*%
X26150000Y-4862500D03*
%TD*%
D25*
%TO.P,U3,1,EN*%
%TO.N,EN-3*%
X22900000Y-13375000D03*
%TO.P,U3,2,PH*%
%TO.N,PH-3*%
X23550000Y-13375000D03*
%TO.P,U3,3,SLEEP*%
%TO.N,SLEEP-1*%
X24200000Y-13375000D03*
%TO.P,U3,4,FAULT*%
%TO.N,unconnected-(U3-FAULT-Pad4)*%
X24850000Y-13375000D03*
%TO.P,U3,5,VREF*%
%TO.N,VREF-3*%
X25500000Y-13375000D03*
%TO.P,U3,6,IPROPI*%
%TO.N,Net-(U3-IPROPI)*%
X26150000Y-13375000D03*
%TO.P,U3,7,IMODE*%
%TO.N,IMODE-3*%
X26800000Y-13375000D03*
%TO.P,U3,8,OUT1*%
%TO.N,OUT1-3*%
X27450000Y-13375000D03*
%TO.P,U3,9,PGND*%
%TO.N,GND*%
X27450000Y-7650000D03*
%TO.P,U3,10,OUT2*%
%TO.N,OUT2-3*%
X26800000Y-7650000D03*
%TO.P,U3,11,VM*%
%TO.N,VM*%
X26150000Y-7650000D03*
%TO.P,U3,12,VCP*%
%TO.N,Net-(U3-VCP)*%
X25500000Y-7650000D03*
%TO.P,U3,13,CPH*%
%TO.N,Net-(U3-CPH)*%
X24850000Y-7650000D03*
%TO.P,U3,14,CPL*%
%TO.N,Net-(U3-CPL)*%
X24200000Y-7650000D03*
%TO.P,U3,15,GND*%
%TO.N,GND*%
X23550000Y-7650000D03*
%TO.P,U3,16,PMODE*%
X22900000Y-7650000D03*
D19*
%TO.P,U3,17,GND*%
X25175000Y-10512500D03*
%TD*%
D26*
%TO.P,J7,1,Pin_1*%
%TO.N,VM*%
X-2325000Y-16012500D03*
%TO.P,J7,2,Pin_2*%
%TO.N,GND*%
X2675000Y-16012500D03*
%TD*%
D24*
%TO.P,C14,1*%
%TO.N,Net-(U4-VCP)*%
X24600000Y17637500D03*
%TO.P,C14,2*%
%TO.N,VM*%
X26150000Y17637500D03*
%TD*%
D13*
%TO.P,R18,1*%
%TO.N,VREF-4*%
X22925000Y5562500D03*
%TO.P,R18,2*%
%TO.N,GND*%
X22925000Y3912500D03*
%TD*%
%TO.P,R15,1*%
%TO.N,IMODE-3*%
X25925000Y-16937500D03*
%TO.P,R15,2*%
%TO.N,GND*%
X25925000Y-18587500D03*
%TD*%
D20*
%TO.P,R10,1*%
%TO.N,VREF-2*%
X-22575000Y-5587500D03*
%TO.P,R10,2*%
%TO.N,GND*%
X-22575000Y-3937500D03*
%TD*%
D17*
%TO.P,C3,1*%
%TO.N,VM*%
X8450000Y-17482500D03*
%TO.P,C3,2*%
%TO.N,GND*%
X6900000Y-17482500D03*
%TD*%
D20*
%TO.P,R4,1*%
%TO.N,Net-(U1-IPROPI)*%
X-24075000Y16912500D03*
%TO.P,R4,2*%
%TO.N,GND*%
X-24075000Y18562500D03*
%TD*%
D25*
%TO.P,U4,1,EN*%
%TO.N,EN-4*%
X22900000Y9125000D03*
%TO.P,U4,2,PH*%
%TO.N,PH-4*%
X23550000Y9125000D03*
%TO.P,U4,3,SLEEP*%
%TO.N,SLEEP-1*%
X24200000Y9125000D03*
%TO.P,U4,4,FAULT*%
%TO.N,unconnected-(U4-FAULT-Pad4)*%
X24850000Y9125000D03*
%TO.P,U4,5,VREF*%
%TO.N,VREF-4*%
X25500000Y9125000D03*
%TO.P,U4,6,IPROPI*%
%TO.N,Net-(U4-IPROPI)*%
X26150000Y9125000D03*
%TO.P,U4,7,IMODE*%
%TO.N,IMODE-4*%
X26800000Y9125000D03*
%TO.P,U4,8,OUT1*%
%TO.N,OUT1-4*%
X27450000Y9125000D03*
%TO.P,U4,9,PGND*%
%TO.N,GND*%
X27450000Y14850000D03*
%TO.P,U4,10,OUT2*%
%TO.N,OUT2-4*%
X26800000Y14850000D03*
%TO.P,U4,11,VM*%
%TO.N,VM*%
X26150000Y14850000D03*
%TO.P,U4,12,VCP*%
%TO.N,Net-(U4-VCP)*%
X25500000Y14850000D03*
%TO.P,U4,13,CPH*%
%TO.N,Net-(U4-CPH)*%
X24850000Y14850000D03*
%TO.P,U4,14,CPL*%
%TO.N,Net-(U4-CPL)*%
X24200000Y14850000D03*
%TO.P,U4,15,GND*%
%TO.N,GND*%
X23550000Y14850000D03*
%TO.P,U4,16,PMODE*%
X22900000Y14850000D03*
D19*
%TO.P,U4,17,GND*%
X25175000Y11987500D03*
%TD*%
D17*
%TO.P,C1,1*%
%TO.N,Net-(U1-CPL)*%
X-21250000Y4837500D03*
%TO.P,C1,2*%
%TO.N,Net-(U1-CPH)*%
X-22800000Y4837500D03*
%TD*%
D24*
%TO.P,C11,1*%
%TO.N,Net-(U3-CPL)*%
X21600000Y-4862500D03*
%TO.P,C11,2*%
%TO.N,Net-(U3-CPH)*%
X23150000Y-4862500D03*
%TD*%
D13*
%TO.P,R19,1*%
%TO.N,IMODE-4*%
X25925000Y5562500D03*
%TO.P,R19,2*%
%TO.N,GND*%
X25925000Y3912500D03*
%TD*%
D20*
%TO.P,R11,1*%
%TO.N,IMODE-2*%
X-25575000Y-5587500D03*
%TO.P,R11,2*%
%TO.N,GND*%
X-25575000Y-3937500D03*
%TD*%
D24*
%TO.P,C13,1*%
%TO.N,Net-(U4-CPL)*%
X21600000Y17637500D03*
%TO.P,C13,2*%
%TO.N,Net-(U4-CPH)*%
X23150000Y17637500D03*
%TD*%
D16*
%TO.P,R1,1*%
%TO.N,SLEEP-1*%
X6600000Y6737500D03*
%TO.P,R1,2*%
%TO.N,Net-(D1-A)*%
X8250000Y6737500D03*
%TD*%
D27*
%TO.P,J8,MP*%
%TO.N,N/C*%
X10165000Y1237500D03*
X-9815000Y1237500D03*
D28*
%TO.P,J8,15,Pin_15*%
%TO.N,GND*%
X7175000Y4037500D03*
%TO.P,J8,14,Pin_14*%
%TO.N,SLEEP-1*%
X6175000Y4037500D03*
%TO.P,J8,13,Pin_13*%
%TO.N,Line-MD-Main=TX_3.3V*%
X5175000Y4037500D03*
%TO.P,J8,12,Pin_12*%
%TO.N,Line-MD-Main=RX_3.3V*%
X4175000Y4037500D03*
%TO.P,J8,11,Pin_11*%
%TO.N,ball02k*%
X3175000Y4037500D03*
%TO.P,J8,10,Pin_10*%
%TO.N,KickerSignal-main*%
X2175000Y4037500D03*
%TO.P,J8,9,Pin_9*%
%TO.N,ball01k*%
X1175000Y4037500D03*
%TO.P,J8,8,Pin_8*%
%TO.N,PH-4*%
X175000Y4037500D03*
%TO.P,J8,7,Pin_7*%
%TO.N,EN-4*%
X-825000Y4037500D03*
%TO.P,J8,6,Pin_6*%
%TO.N,PH-3*%
X-1825000Y4037500D03*
%TO.P,J8,5,Pin_5*%
%TO.N,EN-3*%
X-2825000Y4037500D03*
%TO.P,J8,4,Pin_4*%
%TO.N,PH-2*%
X-3825000Y4037500D03*
%TO.P,J8,3,Pin_3*%
%TO.N,EN-2*%
X-4825000Y4037500D03*
%TO.P,J8,2,Pin_2*%
%TO.N,PH-1*%
X-5825000Y4037500D03*
%TO.P,J8,1,Pin_1*%
%TO.N,EN-1*%
X-6825000Y4037500D03*
%TD*%
D20*
%TO.P,R3,1*%
%TO.N,SLEEP-1*%
X-21075000Y16912500D03*
%TO.P,R3,2*%
%TO.N,VREF-1*%
X-21075000Y18562500D03*
%TD*%
D17*
%TO.P,C2,1*%
%TO.N,Net-(U1-VCP)*%
X-24250000Y4837500D03*
%TO.P,C2,2*%
%TO.N,VM*%
X-25800000Y4837500D03*
%TD*%
D20*
%TO.P,R9,1*%
%TO.N,SLEEP-1*%
X-21075000Y-5587500D03*
%TO.P,R9,2*%
%TO.N,VREF-2*%
X-21075000Y-3937500D03*
%TD*%
D29*
%TO.P,J3,1,Pin_1*%
%TO.N,OUT2-1*%
X-38338473Y14659966D03*
D30*
%TO.P,J3,2,Pin_2*%
%TO.N,OUT1-1*%
X-36570707Y16427732D03*
%TD*%
D31*
%TO.P,J5,1,Pin_1*%
%TO.N,OUT2-3*%
X38688473Y-14684966D03*
D30*
%TO.P,J5,2,Pin_2*%
%TO.N,OUT1-3*%
X36920707Y-16452732D03*
%TD*%
D16*
%TO.P,R22,1*%
%TO.N,Line-MD-Main=TX_3.3V*%
X31850000Y-2262500D03*
%TO.P,R22,2*%
%TO.N,SLEEP-1*%
X33500000Y-2262500D03*
%TD*%
D32*
%TO.P,Q4,1,D*%
%TO.N,Line-MD-Main=TX_5V*%
X31725000Y-5950000D03*
%TO.P,Q4,2,G*%
%TO.N,SLEEP-1*%
X33625000Y-5950000D03*
%TO.P,Q4,3,S*%
%TO.N,Line-MD-Main=TX_3.3V*%
X32675000Y-4075000D03*
%TD*%
D20*
%TO.P,R6,1*%
%TO.N,VREF-1*%
X-22575000Y16912500D03*
%TO.P,R6,2*%
%TO.N,GND*%
X-22575000Y18562500D03*
%TD*%
D17*
%TO.P,C7,1*%
%TO.N,VM*%
X8450000Y-13012500D03*
%TO.P,C7,2*%
%TO.N,GND*%
X6900000Y-13012500D03*
%TD*%
D16*
%TO.P,R20,1*%
%TO.N,Line-MD-Main=RX_3.3V*%
X31850000Y737500D03*
%TO.P,R20,2*%
%TO.N,SLEEP-1*%
X33500000Y737500D03*
%TD*%
D33*
%TO.P,J2,1,Pin_1*%
%TO.N,+5V*%
X27925000Y3737500D03*
D34*
%TO.P,J2,2,Pin_2*%
%TO.N,GND*%
X27925000Y1237500D03*
%TO.P,J2,3,Pin_3*%
%TO.N,Line-MD-Main=TX_5V*%
X27925000Y-1262500D03*
%TO.P,J2,4,Pin_4*%
%TO.N,Line-MD-Main=RX_5V*%
X27925000Y-3762500D03*
%TD*%
D35*
%TO.N,SLEEP-1*%
X6600000Y10600000D03*
%TO.N,EN-2*%
X-4825000Y2237500D03*
%TO.N,GND*%
X21675000Y-10512500D03*
X-21325000Y10487500D03*
X23675000Y-18587500D03*
X21675000Y11987500D03*
X-24825000Y18562500D03*
X25175000Y-18587500D03*
X-24825000Y-3937500D03*
D36*
X-21325000Y-12012500D03*
D35*
X-23325000Y18562500D03*
X25175000Y3912500D03*
X7175000Y2237500D03*
%TO.N,Net-(D1-A)*%
X8675000Y4237500D03*
%TO.N,EN-1*%
X-21300000Y13350000D03*
X-6825000Y5987500D03*
%TO.N,PH-1*%
X-21300000Y14600000D03*
X-5825000Y5987500D03*
%TO.N,EN-2*%
X-21300000Y-9150000D03*
%TO.N,PH-2*%
X-21300000Y-7900000D03*
X-3825000Y2237500D03*
%TO.N,PH-4*%
X21650000Y7875000D03*
X175000Y5987500D03*
%TO.N,EN-4*%
X21650000Y9125000D03*
X-825000Y5987500D03*
%TO.N,EN-3*%
X21650000Y-13375000D03*
X-2824997Y2237500D03*
%TO.N,PH-3*%
X-1825000Y2237500D03*
X21650000Y-14625000D03*
%TO.N,SLEEP-1*%
X-21300000Y11850000D03*
X32675000Y-7512500D03*
X19925000Y-17762500D03*
X34925000Y-12500D03*
X30675000Y5737500D03*
X-5050000Y-14150000D03*
X21700000Y10600000D03*
X-21300000Y-10400000D03*
%TO.N,Line-MD-Main=RX_5V*%
X33675000Y3737500D03*
%TO.N,Line-MD-Main=RX_3.3V*%
X4175000Y5987500D03*
X30425000Y737500D03*
X32675000Y7487500D03*
%TO.N,Line-MD-Main=TX_3.3V*%
X5175000Y5987500D03*
X30425000Y-2262500D03*
%TD*%
D37*
%TO.N,KickerSignal-main*%
X2425000Y11987500D02*
G75*
G03*
X2175002Y11383946I603550J-603550D01*
G01*
%TO.N,ball01k*%
X397182Y7015317D02*
G75*
G02*
X1175000Y5137500I-1877824J-1877821D01*
G01*
%TO.N,ball02k*%
X4175000Y11237500D02*
G75*
G03*
X3175006Y8823286I2414200J-2414200D01*
G01*
%TO.N,Line-MD-Main=TX_5V*%
X31725000Y-5950000D02*
X31725000Y-6393750D01*
X31725000Y-5617187D02*
X31725000Y-5839062D01*
%TO.N,SLEEP-1*%
X6387500Y6525000D02*
G75*
G03*
X6175009Y6011979I513000J-513000D01*
G01*
D38*
X-323474Y13817634D02*
G75*
G03*
X-632743Y13689531I985974J-2817734D01*
G01*
X578616Y13986324D02*
G75*
G03*
X411496Y13975766I23884J-1706024D01*
G01*
X6155277Y13542777D02*
G75*
G03*
X5081620Y13987508I-1073677J-1073677D01*
G01*
X328212Y13966379D02*
G75*
G03*
X-1808Y13910311I334188J-2966379D01*
G01*
X-1264260Y13281642D02*
G75*
G03*
X-1389900Y13170938I1063888J-1334074D01*
G01*
X746263Y13987500D02*
G75*
G03*
X578616Y13986325I237J-11990700D01*
G01*
X-2762500Y12675000D02*
G75*
G03*
X-1887499Y12674999I437501J437500D01*
G01*
X-1389899Y13170937D02*
G75*
G03*
X-1509275Y13053224I8356499J-8593837D01*
G01*
X-632743Y13689531D02*
G75*
G03*
X-925725Y13527607I1295143J-2689431D01*
G01*
X6155277Y13542777D02*
G75*
G02*
X6600008Y12469120I-1073677J-1073677D01*
G01*
X-1807Y13910306D02*
G75*
G03*
X-323473Y13817633I664307J-2910406D01*
G01*
X-925725Y13527607D02*
G75*
G03*
X-1198733Y13333896I1588425J-2527907D01*
G01*
D37*
X33625000Y-5796875D02*
X33625000Y-6103125D01*
X33625000Y-5031250D02*
X33625000Y-5643750D01*
D38*
%TO.N,OUT2-2*%
X-26675000Y-17939276D02*
X-26675000Y-18012499D01*
X-26675000Y-18030805D02*
X-26675000Y-18067417D01*
X-26675000Y-17512499D02*
X-26675000Y-17728874D01*
X-26675000Y-17350218D02*
X-26675000Y-17458405D01*
D37*
%TO.N,Net-(D1-A)*%
X8462500Y6525000D02*
G75*
G02*
X8674991Y6011979I-513000J-513000D01*
G01*
%TO.N,ball02k*%
X4175000Y11237500D02*
X5175000Y12237500D01*
X3175000Y8823286D02*
X3175000Y4037500D01*
%TO.N,KickerSignal-main*%
X2175000Y11383946D02*
X2175000Y4037500D01*
X2425000Y11987500D02*
X2675000Y12237500D01*
%TO.N,ball01k*%
X1175000Y5137500D02*
X1175000Y4037500D01*
X397182Y7015317D02*
X-4825000Y12237500D01*
D38*
%TO.N,SLEEP-1*%
X5081620Y13987500D02*
X746263Y13987500D01*
X6600000Y10600000D02*
X6600000Y12469120D01*
D37*
X6600000Y10600000D02*
X6600000Y6737500D01*
D38*
X-1887499Y12674999D02*
X-1509275Y13053224D01*
X-1264260Y13281642D02*
X-1198734Y13333897D01*
X411496Y13975763D02*
X328212Y13966379D01*
D37*
X6387500Y6525000D02*
X6600000Y6737500D01*
X6175000Y6011979D02*
X6175000Y4037500D01*
%TO.N,Net-(D1-A)*%
X8462500Y6525000D02*
X8250000Y6737500D01*
X8675000Y4237500D02*
X8675000Y6011979D01*
%TO.N,Line-MD-Main=TX_5V*%
X31725000Y-5950000D02*
X31725000Y-5839062D01*
D38*
%TO.N,SLEEP-1*%
X-21224999Y16762499D02*
G75*
G02*
X-20925000Y16762500I150000J-150000D01*
G01*
X-20925000Y17062500D02*
G75*
G03*
X-20925000Y16762500I150000J-150000D01*
G01*
X-6234309Y16146809D02*
G75*
G03*
X-12005947Y18537500I-5771641J-5771644D01*
G01*
X21256250Y-16937500D02*
G75*
G03*
X21544300Y-16818151I-50J407400D01*
G01*
X-21224999Y-5737501D02*
G75*
G02*
X-20925001Y-5737501I149999J-149996D01*
G01*
D37*
X33625000Y-5796875D02*
X33625000Y-5643750D01*
D38*
X-20925000Y17062500D02*
X-21224999Y16762499D01*
%TO.N,OUT2-2*%
X-26675000Y-18012499D02*
X-26675000Y-18030805D01*
X-26675000Y-17512499D02*
X-26675000Y-17458405D01*
%TO.N,GND*%
X23550000Y-7959375D02*
G75*
G03*
X23240625Y-7650000I-309400J-25D01*
G01*
%TO.N,SLEEP-1*%
X-6234309Y16146809D02*
X-2762500Y12675000D01*
X-18300951Y18537500D02*
X-12005947Y18537500D01*
X-20262500Y17725000D02*
X-20925000Y17062500D01*
X-18300951Y18537500D02*
G75*
G03*
X-20262500Y17725000I2J-2774054D01*
G01*
%TO.N,Net-(U3-CPL)*%
X23522617Y-6437500D02*
X23637054Y-6437500D01*
X22929197Y-6191697D02*
X21600000Y-4862500D01*
X24200000Y-7000445D02*
X24200000Y-7650000D01*
X24200000Y-7000445D02*
G75*
G03*
X24035130Y-6602370I-562900J45D01*
G01*
X23522617Y-6437500D02*
G75*
G02*
X22929193Y-6191701I-17J839200D01*
G01*
X23637054Y-6437500D02*
G75*
G02*
X24035130Y-6602370I46J-562900D01*
G01*
%TO.N,Net-(U3-CPH)*%
X24112266Y-5760294D02*
X24469736Y-6117764D01*
X24850000Y-7035802D02*
X24850000Y-7650000D01*
X24002205Y-5714705D02*
X23150000Y-4862500D01*
X24850000Y-7035802D02*
G75*
G03*
X24469737Y-6117763I-1298300J2D01*
G01*
X24057236Y-5737500D02*
G75*
G02*
X24002192Y-5714718I-36J77800D01*
G01*
X24112266Y-5760294D02*
G75*
G03*
X24057236Y-5737468I-55066J-55006D01*
G01*
%TO.N,VM*%
X26150000Y14850000D02*
X26150000Y17637500D01*
X-25800000Y-17662500D02*
X-25800000Y-14875000D01*
X-25800000Y7625000D02*
X-25800000Y4837500D01*
X26150000Y-7650000D02*
X26150000Y-4862500D01*
%TO.N,Net-(U3-VCP)*%
X25500000Y-6398896D02*
X25500000Y-7650000D01*
X25050000Y-5312500D02*
X24600000Y-4862500D01*
X25050000Y-5312500D02*
G75*
G02*
X25500001Y-6398896I-1086400J-1086400D01*
G01*
D39*
%TO.N,GND*%
X-24075000Y18562500D02*
X-22575000Y18562500D01*
D38*
X27450000Y14408633D02*
X27450000Y14850000D01*
X-22875000Y-14875000D02*
X-22550000Y-14875000D01*
X23225000Y14850000D02*
X22900000Y14850000D01*
D39*
X24425000Y-18587500D02*
X25925000Y-18587500D01*
X-21325000Y-12012500D02*
X-24677383Y-12012500D01*
X6900000Y-16012500D02*
X2675000Y-16012500D01*
X6900000Y-16012500D02*
X6900000Y-17482500D01*
D38*
X25470234Y-12012500D02*
X25175000Y-12012500D01*
D39*
X6900000Y-14512500D02*
X6900000Y-16012500D01*
D38*
X-25224614Y-12116880D02*
X-26787906Y-13680172D01*
X-24972617Y-12012500D02*
X-24677383Y-12012500D01*
X25027383Y11987500D02*
X25322617Y11987500D01*
X27137906Y-8844827D02*
X25470234Y-10512500D01*
X-27100000Y8066367D02*
X-27100000Y7625000D01*
X-27100000Y-14433633D02*
X-27100000Y-14875000D01*
X23240625Y-7650000D02*
X22900000Y-7650000D01*
X-24677383Y10487500D02*
X-24972617Y10487500D01*
D39*
X-24075000Y-3937500D02*
X-22575000Y-3937500D01*
X24425000Y-18587500D02*
X22925000Y-18587500D01*
D38*
X27450000Y-8091367D02*
X27450000Y-7650000D01*
X-23200000Y-14550000D02*
X-23200000Y-14256250D01*
D39*
X6900000Y-13012500D02*
X6900000Y-14512500D01*
D38*
X27137906Y13655172D02*
X25574614Y12091880D01*
X-22875000Y7625000D02*
X-22550000Y7625000D01*
X7175000Y2237500D02*
X7175000Y4037500D01*
D39*
X24425000Y3912500D02*
X25925000Y3912500D01*
D38*
X-26787906Y8819827D02*
X-25224614Y10383118D01*
D39*
X-24075000Y-3937500D02*
X-25575000Y-3937500D01*
D38*
X23987522Y13174977D02*
X25070618Y12091880D01*
X23550000Y-8268750D02*
X23550000Y-7959375D01*
D39*
X6900000Y-13012500D02*
X6900000Y-11512500D01*
D38*
X-23637522Y9300022D02*
X-24720619Y10383119D01*
X23987522Y-9325022D02*
X24362500Y-9700000D01*
D39*
X-21325000Y10487500D02*
X-24677383Y10487500D01*
X24025951Y-10512500D02*
X21675000Y-10512500D01*
X25027383Y11987500D02*
X21675000Y11987500D01*
D38*
X-23200000Y8243750D02*
X-23200000Y7950000D01*
X23550000Y14231250D02*
X23550000Y14525000D01*
X-24720618Y-12116880D02*
X-23637522Y-13199977D01*
D39*
X-24075000Y18562500D02*
X-25575000Y18562500D01*
X24425000Y3912500D02*
X22925000Y3912500D01*
D38*
X23225000Y14850000D02*
G75*
G02*
X23550000Y14525000I0J-325000D01*
G01*
X25070618Y12091880D02*
G75*
G03*
X25322617Y11987517I251982J252020D01*
G01*
X27137906Y13655172D02*
G75*
G03*
X27449963Y14408633I-753506J753428D01*
G01*
X-24972617Y10487500D02*
G75*
G03*
X-25224614Y10383118I0J-356374D01*
G01*
X23987523Y13174978D02*
G75*
G02*
X23550037Y14231250I1056277J1056222D01*
G01*
X-23637523Y9300021D02*
G75*
G02*
X-23200001Y8243750I-1056270J-1056270D01*
G01*
X-24972617Y-12012500D02*
G75*
G03*
X-25224614Y-12116880I-3J-356372D01*
G01*
X-24972617Y10487500D02*
G75*
G02*
X-24720619Y10383119I0J-356379D01*
G01*
X27137906Y-8844827D02*
G75*
G03*
X27449962Y-8091367I-753506J753427D01*
G01*
X-27100000Y-14433633D02*
G75*
G02*
X-26787906Y-13680172I1065555J0D01*
G01*
X-27100000Y8066367D02*
G75*
G02*
X-26787906Y8819827I1065560J-3D01*
G01*
X-22875000Y7625000D02*
G75*
G02*
X-23200000Y7950000I1J325001D01*
G01*
X25574613Y12091881D02*
G75*
G02*
X25322617Y11987495I-252013J252019D01*
G01*
X-23200000Y-14550000D02*
G75*
G03*
X-22875000Y-14875000I325002J2D01*
G01*
X-23200000Y-14256250D02*
G75*
G03*
X-23637522Y-13199977I-1493793J2D01*
G01*
D39*
X-24720618Y-12116880D02*
G75*
G02*
X-24677383Y-12012500I43235J43236D01*
G01*
D38*
X24025951Y-10512500D02*
G75*
G03*
X24362583Y-9699917I49J476000D01*
G01*
D39*
X25027383Y11987500D02*
G75*
G03*
X25070573Y12091835I17J61100D01*
G01*
X-24677383Y10487500D02*
G75*
G03*
X-24720619Y10383119I1J-61145D01*
G01*
D38*
X-24972617Y-12012500D02*
G75*
G02*
X-24720618Y-12116880I3J-356377D01*
G01*
X23987522Y-9325022D02*
G75*
G02*
X23550037Y-8268750I1056278J1056222D01*
G01*
%TO.N,Net-(U2-CPL)*%
X-23850000Y-15524554D02*
X-23850000Y-14875000D01*
X-23172617Y-16087500D02*
X-23287054Y-16087500D01*
X-22579197Y-16333302D02*
X-21250000Y-17662500D01*
X-23685117Y-15922617D02*
G75*
G03*
X-23287054Y-16087500I398065J398067D01*
G01*
X-23850000Y-15524554D02*
G75*
G03*
X-23685117Y-15922617I562950J2D01*
G01*
X-23172617Y-16087500D02*
G75*
G02*
X-22579197Y-16333302I5J-839212D01*
G01*
%TO.N,Net-(U2-CPH)*%
X-24144735Y-16382235D02*
X-23812266Y-16714705D01*
X-23702205Y-16760294D02*
X-22800000Y-17662500D01*
X-24500000Y-15524552D02*
X-24500000Y-14875000D01*
X-24500000Y-15524552D02*
G75*
G03*
X-24144735Y-16382235I1212951J3D01*
G01*
X-23702205Y-16760294D02*
G75*
G03*
X-23757236Y-16737501I-55025J-55020D01*
G01*
X-23812265Y-16714704D02*
G75*
G03*
X-23757236Y-16737499I55033J55036D01*
G01*
%TO.N,Net-(U2-VCP)*%
X-25150000Y-16126103D02*
X-25150000Y-14875000D01*
X-24700000Y-17212500D02*
X-24250000Y-17662500D01*
X-25150000Y-16126103D02*
G75*
G03*
X-24700000Y-17212500I1536411J5D01*
G01*
%TO.N,Net-(U4-CPL)*%
X22929197Y16308302D02*
X21600000Y17637500D01*
X24200000Y15499554D02*
X24200000Y14850000D01*
X23522617Y16062500D02*
X23637054Y16062500D01*
X23522617Y16062500D02*
G75*
G02*
X22929193Y16308298I-17J839200D01*
G01*
X24035116Y15897616D02*
G75*
G02*
X24199951Y15499554I-398116J-398016D01*
G01*
X24035116Y15897616D02*
G75*
G03*
X23637054Y16062451I-398016J-398116D01*
G01*
%TO.N,Net-(U4-CPH)*%
X23930086Y16857413D02*
X23150000Y17637500D01*
X24442716Y16409255D02*
X24040147Y16811824D01*
X24850000Y15425986D02*
X24850000Y14850000D01*
X23985117Y16834619D02*
G75*
G02*
X24040138Y16811815I-17J-77819D01*
G01*
X23985117Y16834619D02*
G75*
G02*
X23930087Y16857414I-17J77781D01*
G01*
X24442716Y16409255D02*
G75*
G02*
X24849975Y15425986I-983316J-983255D01*
G01*
%TO.N,Net-(U4-VCP)*%
X25500000Y16101103D02*
X25500000Y14850000D01*
X25050000Y17187500D02*
X24600000Y17637500D01*
X25050000Y17187500D02*
G75*
G02*
X25500001Y16101103I-1086400J-1086400D01*
G01*
%TO.N,EN-1*%
X-21300000Y13350000D02*
X-22550000Y13350000D01*
X-6825000Y5987500D02*
X-6825000Y4037500D01*
%TO.N,PH-1*%
X-22573037Y14600000D02*
X-21300000Y14600000D01*
X-5825000Y5987500D02*
X-5825000Y4037500D01*
X-23200000Y13973037D02*
X-23200000Y13350000D01*
X-23016367Y14416367D02*
G75*
G02*
X-22573037Y14599999I443332J-443337D01*
G01*
X-23200000Y13973037D02*
G75*
G02*
X-23016367Y14416367I626970J-2D01*
G01*
%TO.N,EN-2*%
X-21300000Y-9150000D02*
X-22550000Y-9150000D01*
X-4825000Y2237500D02*
X-4825000Y4037500D01*
%TO.N,PH-2*%
X-3825000Y2237500D02*
X-3825000Y4037500D01*
X-22573037Y-7900000D02*
X-21300000Y-7900000D01*
X-23200000Y-8526962D02*
X-23200000Y-9150000D01*
X-22573037Y-7900000D02*
G75*
G03*
X-23016367Y-8083633I-2J-626959D01*
G01*
X-23200000Y-8526962D02*
G75*
G02*
X-23016367Y-8083633I626965J-1D01*
G01*
%TO.N,OUT2-1*%
X-26825000Y4947808D02*
X-26825000Y4787737D01*
X-26450000Y3987500D02*
X-26524312Y4061812D01*
X-26075000Y3082169D02*
X-26075000Y237500D01*
X-26450000Y5853139D02*
X-26450000Y7625000D01*
X-26637500Y5400474D02*
G75*
G03*
X-26450000Y5853139I-452655J452661D01*
G01*
X-26524312Y4061812D02*
G75*
G02*
X-26825000Y4787737I725932J725928D01*
G01*
X-26450000Y3987500D02*
G75*
G02*
X-26075000Y3082169I-905331J-905331D01*
G01*
X-26825000Y4947808D02*
G75*
G02*
X-26637500Y5400474I640171J-2D01*
G01*
%TO.N,OUT1-1*%
X-26787500Y16619238D02*
X-26698008Y16708729D01*
X-27100000Y15864796D02*
X-27100000Y13350000D01*
X-26475000Y17247119D02*
X-26475000Y17544822D01*
X-26500000Y17605177D02*
X-26500000Y19737500D01*
X-26475000Y17544822D02*
G75*
G03*
X-26487500Y17575000I-42672J3D01*
G01*
X-26475000Y17247119D02*
G75*
G02*
X-26698008Y16708729I-761387J-5D01*
G01*
X-27100000Y15864796D02*
G75*
G02*
X-26787500Y16619238I1066953J-4D01*
G01*
X-26500000Y17605177D02*
G75*
G03*
X-26487500Y17575000I42679J1D01*
G01*
%TO.N,OUT1-2*%
X-26075000Y-2348289D02*
X-26075000Y-762500D01*
X-27100000Y-4822858D02*
X-27100000Y-9150000D01*
X-27100000Y-4822858D02*
G75*
G02*
X-26587500Y-3585574I1749787J-1D01*
G01*
X-26587500Y-3585574D02*
G75*
G03*
X-26075000Y-2348289I-1237285J1237285D01*
G01*
%TO.N,OUT2-2*%
X-26675000Y-18067417D02*
X-26675000Y-18085723D01*
X-26450000Y-16752926D02*
X-26450000Y-14875000D01*
X-26675000Y-17939276D02*
X-26675000Y-17728874D01*
X-26675000Y-17350218D02*
X-26675000Y-17296125D01*
X-26425000Y-18689276D02*
X-26425000Y-19762500D01*
X-26562501Y-17024525D02*
G75*
G03*
X-26450001Y-16752926I-271591J271595D01*
G01*
X-26675000Y-18085723D02*
G75*
G03*
X-26550000Y-18387500I426786J4D01*
G01*
X-26425000Y-18689276D02*
G75*
G03*
X-26550000Y-18387500I-426770J2D01*
G01*
X-26562500Y-17024526D02*
G75*
G03*
X-26675000Y-17296125I271598J-271599D01*
G01*
%TO.N,OUT2-3*%
X26987500Y-5425474D02*
X27095282Y-5317691D01*
X27175000Y-5125237D02*
X27175000Y-5012500D01*
X26800000Y-5878139D02*
X26800000Y-7650000D01*
X26987500Y-5425474D02*
G75*
G03*
X26800038Y-5878139I452700J-452626D01*
G01*
X27175000Y-5125237D02*
G75*
G02*
X27095270Y-5317679I-272200J37D01*
G01*
%TO.N,OUT1-3*%
X26850000Y-17356002D02*
X26850000Y-19737500D01*
X27450000Y-15907473D02*
X27450000Y-13375000D01*
X26850000Y-17356002D02*
G75*
G02*
X27149992Y-16631730I1024300J2D01*
G01*
X27450000Y-15907473D02*
G75*
G02*
X27150020Y-16631758I-1024300J-27D01*
G01*
%TO.N,OUT1-4*%
X27187500Y5500000D02*
X26925000Y5237500D01*
X27450000Y6133731D02*
X27450000Y9125000D01*
X27450000Y6133731D02*
G75*
G02*
X27187509Y5499991I-896200J-31D01*
G01*
%TO.N,OUT2-4*%
X26800000Y18646599D02*
X26800000Y19762500D01*
X26800000Y16727926D02*
X26800000Y14850000D01*
X27025000Y17271125D02*
X27025000Y18103400D01*
X27025000Y18103400D02*
G75*
G03*
X26912500Y18375000I-384100J0D01*
G01*
X26800000Y16727926D02*
G75*
G02*
X26912513Y16999513I384100J-26D01*
G01*
X26800000Y18646599D02*
G75*
G03*
X26912500Y18375000I384100J1D01*
G01*
X27025000Y17271125D02*
G75*
G02*
X26912513Y16999513I-384100J-25D01*
G01*
%TO.N,PH-4*%
X22923037Y7875000D02*
X21650000Y7875000D01*
X23550000Y8501962D02*
X23550000Y9125000D01*
X175000Y5987500D02*
X175000Y4037500D01*
X23366367Y8058633D02*
G75*
G03*
X23550015Y8501962I-443367J443367D01*
G01*
X23366367Y8058633D02*
G75*
G02*
X22923037Y7874985I-443367J443367D01*
G01*
%TO.N,EN-4*%
X-825000Y5987500D02*
X-825000Y4037500D01*
X21650000Y9125000D02*
X22900000Y9125000D01*
%TO.N,EN-3*%
X-2825000Y2237503D02*
X-2825000Y4037500D01*
X-2825000Y2237503D02*
X-2824997Y2237500D01*
X21650000Y-13375000D02*
X22900000Y-13375000D01*
%TO.N,PH-3*%
X23550000Y-13998036D02*
X23550000Y-13375000D01*
X21650000Y-14625000D02*
X22923036Y-14625000D01*
X-1825000Y2237500D02*
X-1825000Y4037500D01*
X23366366Y-14441366D02*
G75*
G03*
X23550014Y-13998036I-443366J443366D01*
G01*
X23366366Y-14441366D02*
G75*
G02*
X22923036Y-14625014I-443366J443366D01*
G01*
%TO.N,VREF-1*%
X-21075000Y18525000D02*
X-21075000Y18562500D01*
X-22601516Y16885983D02*
X-24800866Y14686633D01*
X-21101516Y18460983D02*
X-22548483Y17014016D01*
X-25150000Y13843750D02*
X-25150000Y13350000D01*
X-24800865Y14686632D02*
G75*
G03*
X-25149999Y13843750I842881J-842882D01*
G01*
X-22548483Y17014016D02*
G75*
G03*
X-22575000Y16950000I64020J-64019D01*
G01*
X-21075000Y18525000D02*
G75*
G02*
X-21101516Y18460983I-90531J-2D01*
G01*
X-22601517Y16885984D02*
G75*
G03*
X-22575001Y16950000I-64014J64014D01*
G01*
%TO.N,SLEEP-1*%
X22846139Y6983639D02*
X21725000Y5862500D01*
X23934131Y-15009131D02*
X23873592Y-15069669D01*
X23468332Y7241360D02*
X23792716Y7565744D01*
X-21300000Y11850000D02*
X-20887500Y12262500D01*
X21087500Y-16937500D02*
X21256250Y-16937500D01*
X-20775000Y-5887500D02*
X-20925000Y-5737500D01*
D37*
X33625000Y-2475888D02*
X33625000Y-5031250D01*
X34011351Y226148D02*
X33500000Y737500D01*
D38*
X17983166Y-18900000D02*
X-2489339Y-18900000D01*
X-22393332Y-6541360D02*
X-23442716Y-7590744D01*
X-20775000Y16612500D02*
X-20925000Y16762500D01*
X20825000Y6586764D02*
X20825000Y9106281D01*
D37*
X34587500Y-12500D02*
X34925000Y-12500D01*
D38*
X21700000Y10600000D02*
X21262500Y10162500D01*
X19925000Y-17762500D02*
X20511351Y-17176148D01*
D37*
X33408448Y-6779051D02*
X32675000Y-7512500D01*
D38*
X-23475985Y14875985D02*
X-23230832Y15121139D01*
X-20475000Y13258363D02*
X-20475000Y15888235D01*
X-23850000Y-8574014D02*
X-23850000Y-9150000D01*
X-23850000Y13973036D02*
X-23850000Y13350000D01*
D37*
X30768750Y5831250D02*
X30675000Y5737500D01*
D38*
X-21300000Y-10400000D02*
X-20887500Y-9987500D01*
D37*
X30995082Y5925000D02*
X31725000Y5925000D01*
D38*
X19925000Y-17762500D02*
X19356250Y-18331250D01*
X-5050000Y-14150000D02*
X-5050000Y-16339339D01*
D37*
X33553033Y-2315533D02*
X33562500Y-2325000D01*
D38*
X-21771139Y-6283639D02*
X-21225000Y-5737500D01*
D37*
X33500000Y-2337500D02*
X33500000Y-2412500D01*
D38*
X24200000Y8549014D02*
X24200000Y9125000D01*
X-20475000Y-8991636D02*
X-20475000Y-6611764D01*
X-22608639Y15378860D02*
X-21224999Y16762499D01*
D37*
X33625000Y-6256250D02*
X33625000Y-6103125D01*
D38*
X24200000Y-14367266D02*
X24200000Y-13375000D01*
X21544324Y-16818175D02*
X22882169Y-15480330D01*
X21087500Y-16937500D02*
G75*
G03*
X20511351Y-17176148I0J-814800D01*
G01*
X23377881Y-15275000D02*
G75*
G03*
X23873593Y-15069670I19J701000D01*
G01*
D37*
X30995082Y5925000D02*
G75*
G03*
X30768755Y5831245I18J-320100D01*
G01*
D38*
X22846140Y6983638D02*
G75*
G02*
X23157236Y7112461I311060J-311138D01*
G01*
X-23850000Y-8574014D02*
G75*
G02*
X-23442716Y-7590744I1390557J-1D01*
G01*
D37*
X33562499Y-2325001D02*
G75*
G02*
X33625004Y-2475888I-150899J-150899D01*
G01*
D38*
X23934131Y-15009131D02*
G75*
G03*
X24199986Y-14367266I-641831J641831D01*
G01*
X-22919736Y15250000D02*
G75*
G03*
X-22608639Y15378860I4J439949D01*
G01*
X-20775000Y-5887500D02*
G75*
G02*
X-20475000Y-6611764I-724258J-724262D01*
G01*
X-4300000Y-18150000D02*
G75*
G02*
X-5050000Y-16339339I1810669J1810664D01*
G01*
X-4300000Y-18150000D02*
G75*
G03*
X-2489339Y-18900000I1810664J1810669D01*
G01*
X23792716Y7565744D02*
G75*
G03*
X24199976Y8549014I-983316J983256D01*
G01*
X-20475000Y15888235D02*
G75*
G03*
X-20775000Y16612500I-1024263J1D01*
G01*
D37*
X34587500Y-12500D02*
G75*
G02*
X34011351Y226148I0J814800D01*
G01*
D38*
X17983166Y-18900000D02*
G75*
G03*
X19356260Y-18331260I34J1941800D01*
G01*
X21125001Y5862501D02*
G75*
G03*
X21724999Y5862501I299999J299996D01*
G01*
D37*
X33625000Y-6256250D02*
G75*
G02*
X33408433Y-6779036I-739400J50D01*
G01*
D38*
X-21771139Y-6283639D02*
G75*
G02*
X-22082236Y-6412500I-311097J311095D01*
G01*
X-22919736Y15250000D02*
G75*
G03*
X-23230832Y15121139I1J-439956D01*
G01*
X23377881Y-15275000D02*
G75*
G03*
X22882188Y-15480349I19J-701000D01*
G01*
X-23475984Y14875984D02*
G75*
G03*
X-23849999Y13973036I902954J-902952D01*
G01*
X20825000Y6586764D02*
G75*
G03*
X21125011Y5862511I1024300J36D01*
G01*
X-20475000Y-8991636D02*
G75*
G02*
X-20887500Y-9987500I-1408365J0D01*
G01*
D37*
X33553032Y-2315534D02*
G75*
G03*
X33500059Y-2337500I-21932J-21966D01*
G01*
D38*
X20825000Y9106281D02*
G75*
G02*
X21262495Y10162505I1493700J19D01*
G01*
X-20475000Y13258363D02*
G75*
G02*
X-20887500Y12262500I-1408356J-3D01*
G01*
X23468332Y7241360D02*
G75*
G02*
X23157236Y7112458I-311132J311040D01*
G01*
X-22393332Y-6541360D02*
G75*
G02*
X-22082236Y-6412500I311093J-311089D01*
G01*
%TO.N,Net-(U3-IPROPI)*%
X26150000Y-14293750D02*
X26150000Y-13375000D01*
X25500345Y-15862154D02*
X24425000Y-16937500D01*
X26150000Y-14293750D02*
G75*
G02*
X25500346Y-15862155I-2218060J0D01*
G01*
%TO.N,IMODE-1*%
X-26012500Y16475000D02*
X-25575000Y16912500D01*
X-26450000Y15418781D02*
X-26450000Y13350000D01*
X-26450000Y15418781D02*
G75*
G02*
X-26012500Y16475000I1493728J-3D01*
G01*
%TO.N,Net-(U2-IPROPI)*%
X-25800000Y-8231250D02*
X-25800000Y-9150000D01*
X-25150345Y-6662845D02*
X-24075000Y-5587500D01*
X-25150344Y-6662846D02*
G75*
G03*
X-25799999Y-8231250I1568403J-1568404D01*
G01*
%TO.N,VREF-2*%
X-22601516Y-5614016D02*
X-24800866Y-7813366D01*
X-21075000Y-3975000D02*
X-21075000Y-3937500D01*
X-25150000Y-8656250D02*
X-25150000Y-9150000D01*
X-21101516Y-4039016D02*
X-22548483Y-5485983D01*
X-22601517Y-5614015D02*
G75*
G03*
X-22575001Y-5550000I-64014J64014D01*
G01*
X-21101517Y-4039015D02*
G75*
G03*
X-21075001Y-3975000I-64014J64014D01*
G01*
X-25150000Y-8656250D02*
G75*
G02*
X-24800866Y-7813366I1192016J1D01*
G01*
X-22548483Y-5485983D02*
G75*
G03*
X-22575000Y-5550000I64020J-64019D01*
G01*
%TO.N,IMODE-2*%
X-26450000Y-7081218D02*
X-26450000Y-9150000D01*
X-26012500Y-6025000D02*
X-25575000Y-5587500D01*
X-26012499Y-6025001D02*
G75*
G03*
X-26449999Y-7081218I1056222J-1056219D01*
G01*
%TO.N,Net-(U4-IPROPI)*%
X25500345Y6637845D02*
X24425000Y5562500D01*
X26150000Y8206250D02*
X26150000Y9125000D01*
X26150000Y8206250D02*
G75*
G02*
X25500345Y6637845I-2218060J0D01*
G01*
%TO.N,VREF-3*%
X25150865Y-14711633D02*
X22951516Y-16910983D01*
X21425000Y-18550000D02*
X21425000Y-18587500D01*
X22898483Y-17039016D02*
X21451516Y-18485983D01*
X25500000Y-13868750D02*
X25500000Y-13375000D01*
X22925000Y-16975000D02*
G75*
G02*
X22951523Y-16910990I90500J0D01*
G01*
X21451516Y-18485983D02*
G75*
G03*
X21424990Y-18550000I63984J-64017D01*
G01*
X22898482Y-17039015D02*
G75*
G03*
X22925008Y-16975000I-63982J64015D01*
G01*
X25500000Y-13868750D02*
G75*
G02*
X25150837Y-14711605I-1192000J50D01*
G01*
%TO.N,IMODE-3*%
X26800000Y-15443781D02*
X26800000Y-13375000D01*
X26362500Y-16500000D02*
X25925000Y-16937500D01*
X26362500Y-16500000D02*
G75*
G03*
X26799992Y-15443781I-1056200J1056200D01*
G01*
%TO.N,VREF-4*%
X25150866Y7788366D02*
X22951516Y5589016D01*
X25500000Y8631250D02*
X25500000Y9125000D01*
X21425000Y3950000D02*
X21425000Y3912500D01*
X21451516Y4014016D02*
X22898483Y5460983D01*
X22925000Y5525000D02*
G75*
G02*
X22898476Y5460990I-90500J0D01*
G01*
X22925000Y5525000D02*
G75*
G02*
X22951523Y5589009I90500J0D01*
G01*
X21425000Y3950000D02*
G75*
G02*
X21451523Y4014009I90500J0D01*
G01*
X25150865Y7788367D02*
G75*
G03*
X25499969Y8631250I-842865J842833D01*
G01*
%TO.N,IMODE-4*%
X26362500Y6000000D02*
X25925000Y5562500D01*
X26800000Y7056218D02*
X26800000Y9125000D01*
X26800000Y7056218D02*
G75*
G02*
X26362505Y5999995I-1493700J-18D01*
G01*
%TO.N,Net-(U1-CPL)*%
X-22579197Y6166697D02*
X-21250000Y4837500D01*
X-23850000Y6975445D02*
X-23850000Y7625000D01*
X-23287054Y6412500D02*
X-23172617Y6412500D01*
X-22579197Y6166697D02*
G75*
G03*
X-23172617Y6412499I-593423J-593427D01*
G01*
X-23685117Y6577383D02*
G75*
G03*
X-23287054Y6412500I398060J398056D01*
G01*
X-23685117Y6577383D02*
G75*
G02*
X-23850000Y6975445I398063J398063D01*
G01*
%TO.N,Net-(U1-CPH)*%
X-24132236Y6105264D02*
X-23787266Y5760294D01*
X-24500000Y6993124D02*
X-24500000Y7625000D01*
X-23677205Y5714705D02*
X-22800000Y4837500D01*
X-23732236Y5737500D02*
G75*
G02*
X-23787266Y5760294I-5J77814D01*
G01*
X-24500000Y6993124D02*
G75*
G03*
X-24132236Y6105264I1255623J0D01*
G01*
X-23732236Y5737500D02*
G75*
G02*
X-23677205Y5714705I-3J-77832D01*
G01*
%TO.N,Net-(U1-VCP)*%
X-24700000Y5287500D02*
X-24250000Y4837500D01*
X-25150000Y6373896D02*
X-25150000Y7625000D01*
X-25150000Y6373896D02*
G75*
G03*
X-24700000Y5287500I1536402J2D01*
G01*
%TO.N,Net-(U1-IPROPI)*%
X-25150345Y15837154D02*
X-24075000Y16912500D01*
X-25800000Y14268750D02*
X-25800000Y13350000D01*
X-25150344Y15837153D02*
G75*
G03*
X-25799999Y14268750I1568403J-1568404D01*
G01*
D37*
%TO.N,Line-MD-Main=TX_5V*%
X28100000Y-812500D02*
X28100000Y-787500D01*
X33937500Y-1200000D02*
X33500000Y-762500D01*
X34375000Y-6143261D02*
X34375000Y-2256218D01*
X31725000Y-5506250D02*
X31725000Y-5617187D01*
X31411221Y-4748721D02*
X27925000Y-1262500D01*
X32663908Y-8362500D02*
X32675000Y-8362500D01*
X31725000Y-7423591D02*
X31725000Y-6393750D01*
X33725000Y-7712500D02*
X33357842Y-8079657D01*
X33357842Y-8079657D02*
G75*
G02*
X32675000Y-8362495I-682842J682857D01*
G01*
X31411221Y-4748721D02*
G75*
G02*
X31725037Y-5506250I-757521J-757579D01*
G01*
X32663908Y-8362500D02*
G75*
G02*
X31999997Y-8087503I-8J938900D01*
G01*
X32000000Y-8087500D02*
G75*
G02*
X31725004Y-7423591I663900J663900D01*
G01*
X33937500Y-1200000D02*
G75*
G02*
X34374992Y-2256218I-1056200J-1056200D01*
G01*
X33724999Y-7712499D02*
G75*
G03*
X34374983Y-6143261I-1569199J1569199D01*
G01*
%TO.N,+5V*%
X28823223Y2839276D02*
X27925000Y3737500D01*
X31286459Y-762500D02*
X31850000Y-762500D01*
X30324434Y-364016D02*
X30026776Y-66358D01*
X30276041Y2237500D02*
X31850000Y2237500D01*
X30026776Y-66358D02*
G75*
G02*
X29424973Y1386459I1452824J1452858D01*
G01*
X30276041Y2237500D02*
G75*
G03*
X29425000Y1386459I-41J-851000D01*
G01*
X28823222Y2839275D02*
G75*
G02*
X29424968Y1386459I-1452822J-1452775D01*
G01*
X30324434Y-364016D02*
G75*
G03*
X31286459Y-762531I962066J962016D01*
G01*
X30276041Y2237500D02*
G75*
G02*
X28823202Y2839255I-41J2054600D01*
G01*
%TO.N,Line-MD-Main=RX_5V*%
X33675000Y3737500D02*
X33675000Y5839644D01*
X33650000Y5900000D02*
X33625000Y5925000D01*
X33675000Y3737500D02*
X33675000Y2536243D01*
X33587500Y2325000D02*
X33500000Y2237500D01*
X33587499Y2325001D02*
G75*
G03*
X33674981Y2536243I-211199J211199D01*
G01*
X33650000Y5900000D02*
G75*
G02*
X33675018Y5839644I-60400J-60400D01*
G01*
%TO.N,Line-MD-Main=RX_3.3V*%
X30425000Y737500D02*
X31850000Y737500D01*
X32675000Y7487500D02*
X32675000Y4050000D01*
X4175000Y5987500D02*
X4175000Y4037500D01*
%TO.N,Line-MD-Main=TX_3.3V*%
X31850000Y-2262500D02*
X32325866Y-2738366D01*
X31850000Y-2262500D02*
X30425000Y-2262500D01*
X5175000Y5987500D02*
X5175000Y4037500D01*
X32675000Y-3581250D02*
X32675000Y-4075000D01*
X32675000Y-3581250D02*
G75*
G03*
X32325887Y-2738345I-1192000J50D01*
G01*
%TD*%
%TA.AperFunction,Conductor*%
%TO.N,OUT1-3*%
G36*
X28299500Y-12518000D02*
G01*
X33987495Y-12518000D01*
X34054534Y-12537685D01*
X34075176Y-12554319D01*
X36957215Y-15436359D01*
X36957232Y-15436375D01*
X37017535Y-15487879D01*
X37017548Y-15487890D01*
X37048911Y-15510677D01*
X37048935Y-15510694D01*
X37116555Y-15552133D01*
X37116565Y-15552139D01*
X37116576Y-15552144D01*
X37116584Y-15552149D01*
X37248828Y-15619532D01*
X37265417Y-15629697D01*
X37357229Y-15696401D01*
X37372022Y-15709036D01*
X37664395Y-16001409D01*
X37677032Y-16016204D01*
X37743747Y-16108028D01*
X37753912Y-16124617D01*
X37821297Y-16256869D01*
X37862747Y-16324508D01*
X37862756Y-16324520D01*
X37885550Y-16355893D01*
X37885557Y-16355901D01*
X37937061Y-16416204D01*
X37937077Y-16416221D01*
X42843910Y-21323053D01*
X42843920Y-21323062D01*
X42856512Y-21333320D01*
X42896055Y-21390923D01*
X42898179Y-21460761D01*
X42877892Y-21503189D01*
X42741518Y-21687580D01*
X42603987Y-21873534D01*
X42354517Y-22278698D01*
X42354507Y-22278718D01*
X42140302Y-22703566D01*
X42140298Y-22703577D01*
X41962898Y-23145051D01*
X41962893Y-23145065D01*
X41823567Y-23600015D01*
X41823566Y-23600018D01*
X41780510Y-23799798D01*
X41747143Y-23861185D01*
X41685884Y-23894788D01*
X41616183Y-23889938D01*
X41571612Y-23861354D01*
X39193150Y-21482892D01*
X39099512Y-21390923D01*
X39037130Y-21329653D01*
X38702529Y-21048040D01*
X38344611Y-20796728D01*
X38344610Y-20796727D01*
X38212813Y-20720438D01*
X37966110Y-20577637D01*
X37966102Y-20577633D01*
X37966100Y-20577632D01*
X37569937Y-20392448D01*
X37569919Y-20392441D01*
X37159075Y-20242560D01*
X36736699Y-20129132D01*
X36306043Y-20053030D01*
X36306036Y-20053029D01*
X36306034Y-20053029D01*
X36170007Y-20041102D01*
X35870361Y-20014831D01*
X35870367Y-20014831D01*
X35660734Y-20012596D01*
X35651700Y-20012500D01*
X35651696Y-20012500D01*
X26549000Y-20012500D01*
X26481961Y-19992815D01*
X26436206Y-19940011D01*
X26425000Y-19888500D01*
X26425000Y-19539969D01*
X26444685Y-19472930D01*
X26484850Y-19433852D01*
X26489602Y-19430979D01*
X26489606Y-19430978D01*
X26635185Y-19342972D01*
X26755472Y-19222685D01*
X26843478Y-19077106D01*
X26894086Y-18914696D01*
X26900500Y-18844116D01*
X26900500Y-18823934D01*
X26902883Y-18799742D01*
X26925500Y-18686043D01*
X26925500Y-18488956D01*
X26902883Y-18375256D01*
X26900500Y-18351064D01*
X26900500Y-18330886D01*
X26894086Y-18260307D01*
X26894086Y-18260304D01*
X26843478Y-18097894D01*
X26755472Y-17952315D01*
X26755470Y-17952313D01*
X26755469Y-17952311D01*
X26653339Y-17850181D01*
X26619854Y-17788858D01*
X26624838Y-17719166D01*
X26653339Y-17674819D01*
X26755468Y-17572689D01*
X26755469Y-17572688D01*
X26755472Y-17572685D01*
X26843478Y-17427106D01*
X26894086Y-17264696D01*
X26900500Y-17194116D01*
X26900500Y-17039385D01*
X26920185Y-16972346D01*
X26936817Y-16951704D01*
X26963638Y-16924885D01*
X27119048Y-16730006D01*
X27251661Y-16518952D01*
X27359810Y-16294376D01*
X27442133Y-16059104D01*
X27497596Y-15816094D01*
X27525502Y-15568401D01*
X27525500Y-15443772D01*
X27525500Y-15406950D01*
X27525500Y-13303545D01*
X27525500Y-13303542D01*
X27502882Y-13189839D01*
X27500499Y-13165647D01*
X27500499Y-12836999D01*
X27520184Y-12769960D01*
X27572988Y-12724205D01*
X27624499Y-12712999D01*
X27722871Y-12712999D01*
X27722872Y-12712999D01*
X27782483Y-12706591D01*
X27917331Y-12656296D01*
X28032546Y-12570046D01*
X28049570Y-12547304D01*
X28105501Y-12505432D01*
X28166482Y-12498875D01*
X28299500Y-12518000D01*
G37*
%TD.AperFunction*%
%TD*%
%TA.AperFunction,Conductor*%
%TO.N,OUT1-1*%
G36*
X-41266183Y23864938D02*
G01*
X-41221612Y23836354D01*
X-38837223Y21451965D01*
X-38786439Y21402277D01*
X-38681256Y21299363D01*
X-38681244Y21299352D01*
X-38346947Y21018843D01*
X-37989484Y20768545D01*
X-37989473Y20768538D01*
X-37989467Y20768534D01*
X-37989458Y20768529D01*
X-37611538Y20550336D01*
X-37611523Y20550328D01*
X-37216027Y20365906D01*
X-37216018Y20365902D01*
X-36805935Y20216644D01*
X-36805924Y20216640D01*
X-36428948Y20115630D01*
X-36384404Y20103695D01*
X-36384398Y20103693D01*
X-36384394Y20103693D01*
X-35954636Y20027915D01*
X-35664805Y20002558D01*
X-35519892Y19989880D01*
X-35301691Y19987500D01*
X-26199000Y19987500D01*
X-26131961Y19967815D01*
X-26086206Y19915011D01*
X-26075000Y19863500D01*
X-26075000Y19514969D01*
X-26094685Y19447930D01*
X-26134850Y19408852D01*
X-26139602Y19405979D01*
X-26139606Y19405978D01*
X-26285185Y19317972D01*
X-26405472Y19197685D01*
X-26493478Y19052106D01*
X-26544086Y18889696D01*
X-26544086Y18889692D01*
X-26550500Y18819113D01*
X-26550500Y18798934D01*
X-26552883Y18774742D01*
X-26575500Y18661043D01*
X-26575500Y18463956D01*
X-26552883Y18350256D01*
X-26550500Y18326064D01*
X-26550500Y18305884D01*
X-26544086Y18235304D01*
X-26493478Y18072894D01*
X-26405472Y17927315D01*
X-26405470Y17927313D01*
X-26405469Y17927311D01*
X-26303339Y17825181D01*
X-26269854Y17763858D01*
X-26274838Y17694166D01*
X-26303339Y17649819D01*
X-26391157Y17562000D01*
X-26405472Y17547685D01*
X-26493478Y17402106D01*
X-26544086Y17239696D01*
X-26544086Y17239692D01*
X-26550500Y17169113D01*
X-26550500Y17014374D01*
X-26570185Y16947335D01*
X-26586819Y16926693D01*
X-26613633Y16899879D01*
X-26769042Y16705002D01*
X-26901654Y16493950D01*
X-26901656Y16493944D01*
X-26901657Y16493944D01*
X-26951945Y16389518D01*
X-27009802Y16269377D01*
X-27092127Y16034108D01*
X-27147592Y15791100D01*
X-27175500Y15543411D01*
X-27175500Y15418782D01*
X-27175501Y15337038D01*
X-27175500Y15337035D01*
X-27175500Y13278542D01*
X-27152882Y13164839D01*
X-27150499Y13140647D01*
X-27150499Y12811999D01*
X-27170184Y12744960D01*
X-27222988Y12699205D01*
X-27274499Y12687999D01*
X-27372872Y12687999D01*
X-27432483Y12681591D01*
X-27567331Y12631296D01*
X-27682546Y12545046D01*
X-27699570Y12522304D01*
X-27755501Y12480432D01*
X-27816482Y12473875D01*
X-27949500Y12493000D01*
X-27949503Y12493000D01*
X-33637495Y12493000D01*
X-33704534Y12512685D01*
X-33725176Y12529319D01*
X-36607213Y15411357D01*
X-36607234Y15411377D01*
X-36667536Y15462882D01*
X-36667538Y15462883D01*
X-36667541Y15462886D01*
X-36698927Y15485690D01*
X-36698935Y15485695D01*
X-36698941Y15485699D01*
X-36766553Y15527132D01*
X-36766567Y15527140D01*
X-36898831Y15594531D01*
X-36915407Y15604688D01*
X-37007230Y15671402D01*
X-37022025Y15684039D01*
X-37314401Y15976415D01*
X-37327038Y15991211D01*
X-37393741Y16083020D01*
X-37403908Y16099611D01*
X-37471291Y16231860D01*
X-37471302Y16231878D01*
X-37512742Y16299500D01*
X-37512742Y16299501D01*
X-37512747Y16299508D01*
X-37535550Y16330893D01*
X-37587063Y16391206D01*
X-37587077Y16391221D01*
X-42493910Y21298053D01*
X-42493920Y21298062D01*
X-42506512Y21308320D01*
X-42546055Y21365923D01*
X-42548179Y21435761D01*
X-42527892Y21478189D01*
X-42253988Y21848533D01*
X-42253987Y21848534D01*
X-42004517Y22253698D01*
X-42004507Y22253718D01*
X-41790302Y22678566D01*
X-41790298Y22678577D01*
X-41612898Y23120051D01*
X-41612893Y23120065D01*
X-41473567Y23575015D01*
X-41473566Y23575018D01*
X-41430510Y23774798D01*
X-41397143Y23836185D01*
X-41335884Y23869788D01*
X-41266183Y23864938D01*
G37*
%TD.AperFunction*%
%TD*%
%TA.AperFunction,Conductor*%
%TO.N,OUT1-2*%
G36*
X-35364603Y-517998D02*
G01*
X-35364591Y-518000D01*
X-35364578Y-518000D01*
X-26199000Y-518000D01*
X-26131961Y-537685D01*
X-26086206Y-590489D01*
X-26075000Y-642000D01*
X-26075000Y-2985030D01*
X-26094685Y-3052069D01*
X-26134850Y-3091147D01*
X-26139605Y-3094021D01*
X-26139606Y-3094022D01*
X-26249343Y-3160361D01*
X-26285188Y-3182030D01*
X-26405469Y-3302311D01*
X-26405470Y-3302313D01*
X-26405472Y-3302315D01*
X-26493478Y-3447894D01*
X-26544086Y-3610304D01*
X-26544086Y-3610307D01*
X-26550500Y-3680886D01*
X-26550500Y-3701064D01*
X-26552883Y-3725256D01*
X-26575500Y-3838956D01*
X-26575500Y-4036043D01*
X-26552883Y-4149742D01*
X-26550500Y-4173934D01*
X-26550500Y-4194116D01*
X-26544086Y-4264696D01*
X-26493478Y-4427106D01*
X-26405472Y-4572685D01*
X-26405469Y-4572688D01*
X-26405468Y-4572689D01*
X-26303339Y-4674819D01*
X-26269854Y-4736142D01*
X-26274838Y-4805834D01*
X-26303339Y-4850181D01*
X-26405469Y-4952311D01*
X-26405470Y-4952313D01*
X-26405472Y-4952315D01*
X-26493478Y-5097894D01*
X-26544086Y-5260304D01*
X-26544086Y-5260307D01*
X-26550500Y-5330886D01*
X-26550500Y-5485625D01*
X-26570185Y-5552664D01*
X-26586819Y-5573306D01*
X-26613633Y-5600120D01*
X-26769042Y-5794997D01*
X-26901654Y-6006049D01*
X-27009803Y-6230622D01*
X-27092127Y-6465891D01*
X-27147592Y-6708899D01*
X-27147593Y-6708911D01*
X-27175499Y-6956584D01*
X-27175500Y-6956586D01*
X-27175500Y-9221456D01*
X-27152882Y-9335158D01*
X-27150499Y-9359351D01*
X-27150499Y-9688000D01*
X-27170184Y-9755039D01*
X-27222988Y-9800794D01*
X-27274498Y-9812000D01*
X-27372869Y-9812000D01*
X-27372876Y-9812001D01*
X-27432483Y-9818408D01*
X-27567328Y-9868702D01*
X-27567335Y-9868706D01*
X-27682544Y-9954952D01*
X-27682547Y-9954955D01*
X-27768793Y-10070164D01*
X-27768795Y-10070168D01*
X-27768796Y-10070169D01*
X-27819091Y-10205017D01*
X-27825500Y-10264627D01*
X-27825499Y-11888501D01*
X-27845184Y-11955539D01*
X-27897987Y-12001294D01*
X-27949499Y-12012500D01*
X-33898241Y-12012500D01*
X-36633677Y-14747936D01*
X-36692759Y-14780912D01*
X-36723075Y-14788097D01*
X-36879850Y-14866833D01*
X-36879855Y-14866836D01*
X-36959963Y-14932093D01*
X-38091345Y-16063476D01*
X-38133585Y-16115328D01*
X-38156601Y-16143581D01*
X-38156606Y-16143589D01*
X-38235339Y-16300360D01*
X-38235339Y-16300361D01*
X-38235341Y-16300365D01*
X-38242525Y-16330677D01*
X-38275501Y-16389760D01*
X-42851356Y-20965615D01*
X-42912679Y-20999100D01*
X-42982371Y-20994116D01*
X-43024837Y-20967457D01*
X-43194793Y-20804569D01*
X-43194804Y-20804559D01*
X-43564991Y-20505654D01*
X-43564992Y-20505653D01*
X-43959199Y-20239217D01*
X-43959218Y-20239205D01*
X-44374591Y-20007163D01*
X-44374613Y-20007152D01*
X-44808168Y-19811173D01*
X-45256812Y-19652657D01*
X-45687597Y-19540489D01*
X-45747514Y-19504547D01*
X-45778487Y-19441917D01*
X-45770683Y-19372485D01*
X-45744033Y-19332809D01*
X-41898279Y-15487056D01*
X-41571479Y-15156817D01*
X-41571471Y-15156809D01*
X-40942966Y-14472538D01*
X-40942958Y-14472528D01*
X-40942952Y-14472522D01*
X-40344073Y-13762215D01*
X-39775857Y-13027101D01*
X-39239362Y-12268548D01*
X-39074110Y-12012500D01*
X-38735535Y-11487895D01*
X-38265298Y-10686569D01*
X-37829494Y-9866007D01*
X-37806749Y-9818408D01*
X-37428909Y-9027690D01*
X-37064266Y-8173134D01*
X-36736208Y-7303836D01*
X-36445359Y-6421460D01*
X-36192205Y-5527478D01*
X-35977230Y-4623592D01*
X-35800809Y-3711388D01*
X-35799263Y-3701064D01*
X-35663260Y-2792510D01*
X-35663258Y-2792497D01*
X-35564835Y-1868641D01*
X-35505706Y-941391D01*
X-35499284Y-638917D01*
X-35478181Y-572310D01*
X-35424417Y-527686D01*
X-35369020Y-518301D01*
X-35369020Y-518000D01*
X-35367238Y-518000D01*
X-35366447Y-517866D01*
X-35364603Y-517998D01*
G37*
%TD.AperFunction*%
%TD*%
%TA.AperFunction,Conductor*%
%TO.N,OUT1-4*%
G36*
X43332371Y20969116D02*
G01*
X43374837Y20942457D01*
X43544793Y20779569D01*
X43544804Y20779559D01*
X43914991Y20480654D01*
X43914992Y20480653D01*
X44309199Y20214217D01*
X44309218Y20214205D01*
X44724591Y19982163D01*
X44724613Y19982152D01*
X45158168Y19786173D01*
X45606812Y19627657D01*
X46037597Y19515489D01*
X46097514Y19479547D01*
X46128487Y19416917D01*
X46120683Y19347485D01*
X46094033Y19307809D01*
X42248280Y15462057D01*
X41961064Y15171818D01*
X41921472Y15131810D01*
X41292967Y14447538D01*
X41292963Y14447533D01*
X40694065Y13737204D01*
X40125858Y13002102D01*
X39589363Y12243549D01*
X39085533Y11462890D01*
X38615300Y10661570D01*
X38179497Y9841013D01*
X37778905Y9002682D01*
X37516619Y8388000D01*
X37414264Y8148126D01*
X37094181Y7299961D01*
X37086209Y7278837D01*
X36795360Y6396460D01*
X36542206Y5502478D01*
X36327230Y4598589D01*
X36262319Y4262955D01*
X36230263Y4200873D01*
X36169732Y4165977D01*
X36140575Y4162500D01*
X34549500Y4162500D01*
X34482461Y4182185D01*
X34436706Y4234989D01*
X34425500Y4286500D01*
X34425500Y5754313D01*
X34425543Y5755156D01*
X34425539Y5761145D01*
X34425541Y5761150D01*
X34425526Y5788630D01*
X34425540Y5788679D01*
X34425517Y5840031D01*
X34425518Y5840031D01*
X34425500Y5879478D01*
X34425500Y5913562D01*
X34425500Y6578194D01*
X34422598Y6615069D01*
X34376744Y6772898D01*
X34293081Y6914365D01*
X34176865Y7030581D01*
X34035398Y7114244D01*
X33919191Y7148005D01*
X33877573Y7160097D01*
X33877571Y7160097D01*
X33877569Y7160098D01*
X33840694Y7163000D01*
X33840686Y7163000D01*
X33684070Y7163000D01*
X33617031Y7182685D01*
X33571276Y7235489D01*
X33560749Y7299961D01*
X33580460Y7487500D01*
X33560674Y7675756D01*
X33502179Y7855784D01*
X33407533Y8019716D01*
X33280871Y8160388D01*
X33127730Y8271651D01*
X32954803Y8348644D01*
X32769646Y8388000D01*
X32580354Y8388000D01*
X32505249Y8372036D01*
X32395197Y8348644D01*
X32395192Y8348642D01*
X32222270Y8271651D01*
X32222265Y8271648D01*
X32069129Y8160388D01*
X31942467Y8019716D01*
X31942466Y8019714D01*
X31847821Y7855784D01*
X31847818Y7855777D01*
X31791292Y7681809D01*
X31789326Y7675756D01*
X31769540Y7487500D01*
X31785762Y7333151D01*
X31789251Y7299961D01*
X31776681Y7231231D01*
X31728949Y7180208D01*
X31665930Y7163000D01*
X31509306Y7163000D01*
X31472431Y7160098D01*
X31472429Y7160097D01*
X31472426Y7160097D01*
X31370799Y7130571D01*
X31314602Y7114244D01*
X31173135Y7030581D01*
X31173133Y7030579D01*
X31173129Y7030576D01*
X31056923Y6914370D01*
X31056917Y6914362D01*
X30973255Y6772897D01*
X30968561Y6756739D01*
X30930953Y6697854D01*
X30868891Y6668865D01*
X30744358Y6649136D01*
X30730745Y6644712D01*
X30728768Y6644070D01*
X30690447Y6638000D01*
X30580354Y6638000D01*
X30472462Y6615067D01*
X30395197Y6598644D01*
X30395192Y6598642D01*
X30222270Y6521651D01*
X30222265Y6521648D01*
X30111124Y6440899D01*
X30069129Y6410388D01*
X29942467Y6269716D01*
X29905463Y6205623D01*
X29847821Y6105784D01*
X29847818Y6105777D01*
X29807291Y5981046D01*
X29789326Y5925756D01*
X29769540Y5737500D01*
X29789326Y5549244D01*
X29789326Y5549241D01*
X29789327Y5549240D01*
X29847818Y5369222D01*
X29847821Y5369215D01*
X29942466Y5205285D01*
X30069129Y5064611D01*
X30222265Y4953351D01*
X30222270Y4953348D01*
X30395192Y4876357D01*
X30395197Y4876355D01*
X30547897Y4843898D01*
X30580354Y4837000D01*
X30580355Y4837000D01*
X30769645Y4837000D01*
X30769646Y4837000D01*
X30809001Y4845365D01*
X30954802Y4876355D01*
X30988622Y4891413D01*
X31057872Y4900697D01*
X31121148Y4871069D01*
X31126737Y4865816D01*
X31173134Y4819419D01*
X31173140Y4819415D01*
X31314603Y4735755D01*
X31314606Y4735754D01*
X31472426Y4689902D01*
X31472432Y4689901D01*
X31509298Y4687000D01*
X31509306Y4687000D01*
X31750500Y4687000D01*
X31817539Y4667315D01*
X31863294Y4614511D01*
X31874500Y4563000D01*
X31874500Y4286500D01*
X31854815Y4219461D01*
X31802011Y4173706D01*
X31750500Y4162500D01*
X29524499Y4162500D01*
X29457460Y4182185D01*
X29411705Y4234989D01*
X29400499Y4286500D01*
X29400499Y4387501D01*
X29400498Y4387518D01*
X29389999Y4490296D01*
X29389998Y4490299D01*
X29334814Y4656834D01*
X29242712Y4806156D01*
X29118656Y4930212D01*
X28969334Y5022314D01*
X28802797Y5077499D01*
X28700009Y5088000D01*
X27149992Y5087999D01*
X27149983Y5087998D01*
X27149981Y5087998D01*
X27047203Y5077499D01*
X27040578Y5076081D01*
X27040094Y5078341D01*
X26981042Y5076302D01*
X26920994Y5112024D01*
X26889793Y5174540D01*
X26893180Y5228794D01*
X26892806Y5228869D01*
X26893358Y5231647D01*
X26893462Y5233302D01*
X26894086Y5235304D01*
X26900500Y5305884D01*
X26900500Y5460615D01*
X26920185Y5527654D01*
X26936819Y5548296D01*
X26963637Y5575114D01*
X26963638Y5575115D01*
X27119048Y5769994D01*
X27251661Y5981048D01*
X27359809Y6205623D01*
X27442133Y6440895D01*
X27497596Y6683905D01*
X27525502Y6931597D01*
X27525500Y7056227D01*
X27525500Y7093049D01*
X27525500Y9196455D01*
X27502881Y9310160D01*
X27500499Y9334351D01*
X27500499Y9663000D01*
X27520184Y9730039D01*
X27572988Y9775794D01*
X27624498Y9787000D01*
X27722869Y9787000D01*
X27722876Y9787001D01*
X27782483Y9793408D01*
X27917328Y9843702D01*
X27917335Y9843706D01*
X28032544Y9929952D01*
X28032547Y9929955D01*
X28118793Y10045164D01*
X28118797Y10045171D01*
X28169091Y10180017D01*
X28175500Y10239627D01*
X28175499Y11863501D01*
X28195184Y11930539D01*
X28247987Y11976294D01*
X28299499Y11987500D01*
X34248241Y11987500D01*
X36983677Y14722936D01*
X37042759Y14755912D01*
X37073075Y14763097D01*
X37229850Y14841833D01*
X37229851Y14841834D01*
X37229855Y14841836D01*
X37309963Y14907093D01*
X38441345Y16038476D01*
X38506603Y16118584D01*
X38516354Y16137999D01*
X38585339Y16275360D01*
X38585339Y16275361D01*
X38585341Y16275365D01*
X38592525Y16305677D01*
X38625501Y16364760D01*
X43201356Y20940615D01*
X43262679Y20974100D01*
X43332371Y20969116D01*
G37*
%TD.AperFunction*%
%TD*%
%TA.AperFunction,Conductor*%
%TO.N,OUT2-4*%
G36*
X41702627Y23864855D02*
G01*
X41758560Y23822983D01*
X41780510Y23774798D01*
X41823566Y23575018D01*
X41823567Y23575015D01*
X41962893Y23120065D01*
X41962898Y23120051D01*
X42140298Y22678577D01*
X42140302Y22678566D01*
X42354507Y22253718D01*
X42354517Y22253698D01*
X42603991Y21848528D01*
X42878225Y21477739D01*
X42902262Y21412135D01*
X42887015Y21343949D01*
X42852838Y21304737D01*
X42843914Y21298057D01*
X42843913Y21298056D01*
X42843903Y21298047D01*
X40496223Y18950366D01*
X38268059Y16722202D01*
X38184098Y16611120D01*
X38151122Y16552037D01*
X38129677Y16496894D01*
X38127513Y16491329D01*
X38122756Y16480624D01*
X38085814Y16407064D01*
X38071133Y16384388D01*
X38069668Y16382590D01*
X38061219Y16373235D01*
X36975199Y15287214D01*
X36965826Y15278750D01*
X36964031Y15277288D01*
X36941374Y15262623D01*
X36867825Y15225685D01*
X36857115Y15220926D01*
X36796403Y15197317D01*
X36796397Y15197314D01*
X36796395Y15197313D01*
X36737313Y15164337D01*
X36737308Y15164333D01*
X36626238Y15080381D01*
X36626228Y15080372D01*
X34075176Y12529319D01*
X34013853Y12495834D01*
X33987495Y12493000D01*
X28299499Y12493000D01*
X28232460Y12512685D01*
X28186705Y12565489D01*
X28175499Y12617000D01*
X28175499Y13735370D01*
X28175499Y13735373D01*
X28169091Y13794983D01*
X28128645Y13903422D01*
X28123662Y13973111D01*
X28130266Y13994203D01*
X28135044Y14005738D01*
X28138147Y14029312D01*
X28141309Y14045211D01*
X28141938Y14047560D01*
X28144866Y14058488D01*
X28175504Y14291264D01*
X28175500Y14408655D01*
X28175500Y14921455D01*
X28152881Y15035160D01*
X28150499Y15059351D01*
X28150499Y15576863D01*
X28135046Y15694253D01*
X28135044Y15694257D01*
X28135044Y15694262D01*
X28074536Y15840341D01*
X27978282Y15965782D01*
X27852841Y16062036D01*
X27706762Y16122544D01*
X27589361Y16138000D01*
X27310640Y16137999D01*
X27310636Y16137999D01*
X27193246Y16122546D01*
X27193242Y16122544D01*
X27193238Y16122544D01*
X27047159Y16062036D01*
X27047157Y16062034D01*
X27046953Y16061950D01*
X26977484Y16054481D01*
X26915004Y16085756D01*
X26879352Y16145845D01*
X26875500Y16176511D01*
X26875500Y16810626D01*
X26895185Y16877665D01*
X26911819Y16898307D01*
X26947967Y16934455D01*
X26947970Y16934459D01*
X27036998Y17078794D01*
X27036999Y17078797D01*
X27037003Y17078803D01*
X27090349Y17239792D01*
X27100500Y17339155D01*
X27100499Y17935844D01*
X27090349Y18035208D01*
X27037003Y18196197D01*
X26947968Y18340544D01*
X26828044Y18460468D01*
X26683697Y18549503D01*
X26557234Y18591408D01*
X26516281Y18604979D01*
X26516692Y18606219D01*
X26461615Y18636053D01*
X26427924Y18697263D01*
X26425000Y18724030D01*
X26425000Y19863500D01*
X26444685Y19930539D01*
X26497489Y19976294D01*
X26549000Y19987500D01*
X35651695Y19987500D01*
X35869887Y19989810D01*
X35869891Y19989810D01*
X36304644Y20027846D01*
X36304648Y20027846D01*
X36734411Y20103625D01*
X36734415Y20103625D01*
X36734421Y20103627D01*
X36776411Y20114878D01*
X37155953Y20216574D01*
X37566045Y20365834D01*
X37961562Y20550266D01*
X37961577Y20550274D01*
X38339503Y20768470D01*
X38339512Y20768475D01*
X38696997Y21018789D01*
X38697003Y21018793D01*
X39031296Y21299299D01*
X39031320Y21299321D01*
X39187218Y21451960D01*
X41571612Y23836354D01*
X41632935Y23869839D01*
X41702627Y23864855D01*
G37*
%TD.AperFunction*%
%TD*%
%TA.AperFunction,Conductor*%
%TO.N,VM*%
G36*
X25862539Y19967815D02*
G01*
X25908294Y19915011D01*
X25919500Y19863500D01*
X25919500Y18724030D01*
X25921434Y18688510D01*
X25922489Y18669130D01*
X25925411Y18642375D01*
X25925412Y18642372D01*
X25934340Y18588155D01*
X25934340Y18588152D01*
X25985076Y18453508D01*
X26018764Y18392303D01*
X26023847Y18385538D01*
X26023975Y18385390D01*
X26105379Y18277406D01*
X26116782Y18268930D01*
X26151780Y18224082D01*
X26153583Y18225001D01*
X26155792Y18220664D01*
X26155794Y18220660D01*
X26231661Y18071762D01*
X26235088Y18065038D01*
X26275818Y18008978D01*
X26299298Y17943172D01*
X26299500Y17936093D01*
X26299500Y17438408D01*
X26279815Y17371369D01*
X26275826Y17365533D01*
X26235116Y17309508D01*
X26235115Y17309506D01*
X26235113Y17309504D01*
X26172424Y17186486D01*
X26124446Y17135693D01*
X26056624Y17118901D01*
X25990491Y17141443D01*
X25950218Y17188994D01*
X25946388Y17196947D01*
X25946387Y17196950D01*
X25811224Y17412060D01*
X25652826Y17610685D01*
X25613533Y17649978D01*
X25613532Y17649980D01*
X25586818Y17676693D01*
X25553333Y17738015D01*
X25550499Y17764375D01*
X25550499Y17935837D01*
X25550498Y17935855D01*
X25540349Y18035207D01*
X25540349Y18035208D01*
X25487003Y18196197D01*
X25397968Y18340544D01*
X25278044Y18460468D01*
X25133697Y18549503D01*
X24972708Y18602849D01*
X24873345Y18613000D01*
X24326656Y18612999D01*
X24326648Y18612998D01*
X24326644Y18612998D01*
X24227292Y18602849D01*
X24066303Y18549503D01*
X24066297Y18549499D01*
X24066294Y18549498D01*
X23940097Y18471658D01*
X23872705Y18453217D01*
X23809903Y18471658D01*
X23683705Y18549498D01*
X23683697Y18549503D01*
X23522708Y18602849D01*
X23423345Y18613000D01*
X22876656Y18612999D01*
X22876648Y18612998D01*
X22876644Y18612998D01*
X22777292Y18602849D01*
X22616303Y18549503D01*
X22616297Y18549499D01*
X22616294Y18549498D01*
X22471959Y18460470D01*
X22471955Y18460467D01*
X22462681Y18451193D01*
X22401358Y18417708D01*
X22331666Y18422692D01*
X22287319Y18451193D01*
X22285001Y18453511D01*
X22278044Y18460468D01*
X22133697Y18549503D01*
X21972708Y18602849D01*
X21873345Y18613000D01*
X21326656Y18612999D01*
X21326648Y18612998D01*
X21326644Y18612998D01*
X21227292Y18602849D01*
X21066303Y18549503D01*
X21066297Y18549499D01*
X21066294Y18549498D01*
X20921959Y18460470D01*
X20921955Y18460467D01*
X20802032Y18340544D01*
X20802029Y18340540D01*
X20713001Y18196205D01*
X20712996Y18196194D01*
X20659651Y18035209D01*
X20649500Y17935852D01*
X20649500Y17339162D01*
X20649501Y17339144D01*
X20659650Y17239792D01*
X20659651Y17239789D01*
X20712996Y17078805D01*
X20713001Y17078794D01*
X20802029Y16934459D01*
X20802032Y16934455D01*
X20921955Y16814532D01*
X20921959Y16814529D01*
X21066294Y16725501D01*
X21066305Y16725496D01*
X21227290Y16672151D01*
X21326647Y16662000D01*
X21326655Y16662000D01*
X21498125Y16662000D01*
X21565164Y16642315D01*
X21585806Y16625681D01*
X22244901Y15966584D01*
X22278386Y15905261D01*
X22273402Y15835569D01*
X22271781Y15831451D01*
X22214957Y15694265D01*
X22214955Y15694260D01*
X22199501Y15576870D01*
X22199500Y15576854D01*
X22199500Y15059349D01*
X22197117Y15035157D01*
X22174500Y14921457D01*
X22174500Y14778541D01*
X22197117Y14664839D01*
X22199500Y14640648D01*
X22199500Y14123136D01*
X22214954Y14005741D01*
X22214956Y14005735D01*
X22219733Y13994203D01*
X22227200Y13924734D01*
X22221353Y13903420D01*
X22180908Y13794982D01*
X22174501Y13735383D01*
X22174500Y13735364D01*
X22174500Y13112000D01*
X22154815Y13044961D01*
X22102011Y12999206D01*
X22050500Y12988000D01*
X21576457Y12988000D01*
X21383170Y12949552D01*
X21383165Y12949551D01*
X21383160Y12949549D01*
X21201092Y12874135D01*
X21201079Y12874128D01*
X21037218Y12764639D01*
X21037214Y12764636D01*
X20897863Y12625285D01*
X20897860Y12625281D01*
X20788371Y12461420D01*
X20788364Y12461407D01*
X20712950Y12279339D01*
X20712947Y12279329D01*
X20674500Y12086043D01*
X20674500Y11888956D01*
X20674499Y11888956D01*
X20712947Y11695670D01*
X20712950Y11695660D01*
X20788364Y11513592D01*
X20788371Y11513579D01*
X20897860Y11349718D01*
X20954816Y11292762D01*
X20988300Y11231438D01*
X20983315Y11161746D01*
X20970538Y11137946D01*
X20970716Y11137844D01*
X20872821Y10968284D01*
X20872818Y10968277D01*
X20814327Y10788260D01*
X20814325Y10788251D01*
X20813288Y10778385D01*
X20786701Y10713771D01*
X20777649Y10703670D01*
X20749489Y10675510D01*
X20749489Y10675511D01*
X20661362Y10587385D01*
X20505952Y10392506D01*
X20414364Y10246744D01*
X20373335Y10181446D01*
X20265190Y9956877D01*
X20182867Y9721604D01*
X20182865Y9721599D01*
X20127405Y9478601D01*
X20127401Y9478577D01*
X20099498Y9230908D01*
X20099498Y9230904D01*
X20099500Y9136603D01*
X20099500Y6675544D01*
X20099497Y6675491D01*
X20099498Y6638115D01*
X20099485Y6638070D01*
X20099488Y6472055D01*
X20129434Y6244647D01*
X20188804Y6023098D01*
X20188809Y6023086D01*
X20276579Y5811200D01*
X20276587Y5811183D01*
X20391261Y5612568D01*
X20391275Y5612546D01*
X20423876Y5570061D01*
X20449070Y5504892D01*
X20449500Y5494575D01*
X20449500Y5305886D01*
X20455913Y5235307D01*
X20506522Y5072893D01*
X20594530Y4927311D01*
X20594531Y4927310D01*
X20696661Y4825181D01*
X20730146Y4763858D01*
X20725162Y4694166D01*
X20696661Y4649819D01*
X20594530Y4547688D01*
X20594528Y4547685D01*
X20506522Y4402106D01*
X20457478Y4244713D01*
X20455913Y4239692D01*
X20449500Y4169113D01*
X20449500Y3655886D01*
X20455913Y3585307D01*
X20506522Y3422893D01*
X20594530Y3277311D01*
X20714811Y3157030D01*
X20860393Y3069022D01*
X21022807Y3018413D01*
X21074145Y3013748D01*
X21093384Y3012000D01*
X21093387Y3012000D01*
X21756613Y3012000D01*
X21756616Y3012000D01*
X21777778Y3013923D01*
X21827192Y3018413D01*
X21827194Y3018413D01*
X21827196Y3018414D01*
X21989606Y3069022D01*
X22110850Y3142317D01*
X22178405Y3160153D01*
X22239149Y3142317D01*
X22333351Y3085370D01*
X22360396Y3069021D01*
X22360400Y3069019D01*
X22392213Y3059106D01*
X22424207Y3043827D01*
X22451086Y3025868D01*
X22451087Y3025867D01*
X22451091Y3025865D01*
X22633160Y2950450D01*
X22633170Y2950447D01*
X22826457Y2912000D01*
X22826459Y2912000D01*
X26023543Y2912000D01*
X26216829Y2950447D01*
X26216833Y2950448D01*
X26216835Y2950449D01*
X26237617Y2959057D01*
X26253549Y2965656D01*
X26323019Y2973123D01*
X26385497Y2941848D01*
X26421149Y2881758D01*
X26425000Y2851094D01*
X26425000Y-4915625D01*
X26405315Y-4982664D01*
X26399382Y-4991103D01*
X26302173Y-5117809D01*
X26302169Y-5117814D01*
X26212671Y-5272855D01*
X26188868Y-5330331D01*
X26145029Y-5384736D01*
X26078736Y-5406805D01*
X26011036Y-5389529D01*
X25963423Y-5338394D01*
X25962654Y-5336830D01*
X25946387Y-5303050D01*
X25811224Y-5087939D01*
X25652826Y-4889315D01*
X25625365Y-4861853D01*
X25613535Y-4850022D01*
X25613532Y-4850020D01*
X25586818Y-4823306D01*
X25553333Y-4761983D01*
X25550499Y-4735625D01*
X25550499Y-4564162D01*
X25550498Y-4564144D01*
X25540349Y-4464792D01*
X25540348Y-4464789D01*
X25527861Y-4427106D01*
X25487003Y-4303803D01*
X25486999Y-4303797D01*
X25486998Y-4303794D01*
X25397970Y-4159459D01*
X25397967Y-4159455D01*
X25278044Y-4039532D01*
X25278040Y-4039529D01*
X25133705Y-3950501D01*
X25133699Y-3950498D01*
X25133697Y-3950497D01*
X25068693Y-3928957D01*
X24972709Y-3897151D01*
X24873346Y-3887000D01*
X24326662Y-3887000D01*
X24326644Y-3887001D01*
X24227292Y-3897150D01*
X24227289Y-3897151D01*
X24066305Y-3950496D01*
X24066300Y-3950498D01*
X23940097Y-4028342D01*
X23872704Y-4046782D01*
X23809903Y-4028342D01*
X23683699Y-3950498D01*
X23683694Y-3950496D01*
X23522709Y-3897151D01*
X23423346Y-3887000D01*
X22876662Y-3887000D01*
X22876644Y-3887001D01*
X22777292Y-3897150D01*
X22777289Y-3897151D01*
X22616305Y-3950496D01*
X22616294Y-3950501D01*
X22471959Y-4039529D01*
X22471955Y-4039532D01*
X22462681Y-4048807D01*
X22401358Y-4082292D01*
X22331666Y-4077308D01*
X22287319Y-4048807D01*
X22278044Y-4039532D01*
X22278040Y-4039529D01*
X22133705Y-3950501D01*
X22133699Y-3950498D01*
X22133697Y-3950497D01*
X22068693Y-3928957D01*
X21972709Y-3897151D01*
X21873346Y-3887000D01*
X21326662Y-3887000D01*
X21326644Y-3887001D01*
X21227292Y-3897150D01*
X21227289Y-3897151D01*
X21066305Y-3950496D01*
X21066294Y-3950501D01*
X20921959Y-4039529D01*
X20921955Y-4039532D01*
X20802032Y-4159455D01*
X20802029Y-4159459D01*
X20713001Y-4303794D01*
X20712996Y-4303805D01*
X20659651Y-4464790D01*
X20649500Y-4564147D01*
X20649500Y-5160837D01*
X20649501Y-5160855D01*
X20659650Y-5260207D01*
X20659651Y-5260210D01*
X20712996Y-5421194D01*
X20713001Y-5421205D01*
X20802029Y-5565540D01*
X20802032Y-5565544D01*
X20921955Y-5685467D01*
X20921959Y-5685470D01*
X21066294Y-5774498D01*
X21066297Y-5774499D01*
X21066303Y-5774503D01*
X21227292Y-5827849D01*
X21326655Y-5838000D01*
X21498124Y-5837999D01*
X21565164Y-5857683D01*
X21585806Y-5874318D01*
X22244902Y-6533414D01*
X22278387Y-6594737D01*
X22273403Y-6664429D01*
X22271782Y-6668548D01*
X22214956Y-6805737D01*
X22214955Y-6805739D01*
X22199501Y-6923129D01*
X22199500Y-6923145D01*
X22199500Y-7440649D01*
X22197117Y-7464840D01*
X22174500Y-7578541D01*
X22174500Y-7721456D01*
X22197117Y-7835158D01*
X22199500Y-7859350D01*
X22199500Y-8376863D01*
X22214954Y-8494255D01*
X22214956Y-8494263D01*
X22219734Y-8505799D01*
X22227200Y-8575268D01*
X22221353Y-8596579D01*
X22180908Y-8705017D01*
X22174501Y-8764616D01*
X22174500Y-8764635D01*
X22174500Y-9388000D01*
X22154815Y-9455039D01*
X22102011Y-9500794D01*
X22050500Y-9512000D01*
X21576457Y-9512000D01*
X21383170Y-9550447D01*
X21383160Y-9550450D01*
X21201092Y-9625864D01*
X21201079Y-9625871D01*
X21037218Y-9735360D01*
X21037214Y-9735363D01*
X20897863Y-9874714D01*
X20897860Y-9874718D01*
X20788371Y-10038579D01*
X20788364Y-10038592D01*
X20712950Y-10220660D01*
X20712947Y-10220670D01*
X20674500Y-10413956D01*
X20674500Y-10413959D01*
X20674500Y-10611041D01*
X20674500Y-10611043D01*
X20674499Y-10611043D01*
X20712947Y-10804329D01*
X20712950Y-10804339D01*
X20788364Y-10986407D01*
X20788371Y-10986420D01*
X20897860Y-11150281D01*
X20897863Y-11150285D01*
X21037214Y-11289636D01*
X21037218Y-11289639D01*
X21201079Y-11399128D01*
X21201092Y-11399135D01*
X21383160Y-11474549D01*
X21383165Y-11474551D01*
X21383169Y-11474551D01*
X21383170Y-11474552D01*
X21576456Y-11513000D01*
X21576459Y-11513000D01*
X22050501Y-11513000D01*
X22117540Y-11532685D01*
X22163295Y-11585489D01*
X22174501Y-11637000D01*
X22174501Y-12260376D01*
X22180908Y-12319983D01*
X22214397Y-12409770D01*
X22219381Y-12479462D01*
X22185896Y-12540785D01*
X22124572Y-12574269D01*
X22054881Y-12569285D01*
X22047779Y-12566383D01*
X21929803Y-12513856D01*
X21929801Y-12513855D01*
X21929800Y-12513855D01*
X21813102Y-12489050D01*
X21744646Y-12474500D01*
X21555354Y-12474500D01*
X21522897Y-12481398D01*
X21370197Y-12513855D01*
X21370192Y-12513857D01*
X21197270Y-12590848D01*
X21197265Y-12590851D01*
X21044129Y-12702111D01*
X20917466Y-12842785D01*
X20822821Y-13006715D01*
X20822818Y-13006722D01*
X20764327Y-13186740D01*
X20764326Y-13186744D01*
X20744540Y-13375000D01*
X20764326Y-13563256D01*
X20764327Y-13563259D01*
X20822818Y-13743277D01*
X20822821Y-13743284D01*
X20917467Y-13907216D01*
X20923096Y-13913467D01*
X20926304Y-13917031D01*
X20956531Y-13980023D01*
X20947904Y-14049358D01*
X20926304Y-14082969D01*
X20917466Y-14092785D01*
X20822821Y-14256715D01*
X20822818Y-14256722D01*
X20771729Y-14413959D01*
X20764326Y-14436744D01*
X20744540Y-14625000D01*
X20764326Y-14813256D01*
X20764327Y-14813259D01*
X20822818Y-14993277D01*
X20822821Y-14993284D01*
X20917467Y-15157216D01*
X21044129Y-15297888D01*
X21197265Y-15409148D01*
X21197270Y-15409151D01*
X21370192Y-15486142D01*
X21370193Y-15486142D01*
X21370197Y-15486144D01*
X21542786Y-15522828D01*
X21604267Y-15556020D01*
X21638044Y-15617183D01*
X21633392Y-15686897D01*
X21604687Y-15731799D01*
X21335804Y-16000682D01*
X21274484Y-16034166D01*
X21248125Y-16037000D01*
X21093384Y-16037000D01*
X21074145Y-16038748D01*
X21022807Y-16043413D01*
X20860393Y-16094022D01*
X20714814Y-16182028D01*
X20714812Y-16182030D01*
X20634204Y-16262637D01*
X20593977Y-16289516D01*
X20404790Y-16367879D01*
X20404780Y-16367884D01*
X20229922Y-16468838D01*
X20069737Y-16591752D01*
X20069728Y-16591760D01*
X20051315Y-16610173D01*
X20051275Y-16610210D01*
X19998348Y-16663139D01*
X19998346Y-16663141D01*
X19940541Y-16720944D01*
X19940542Y-16720945D01*
X19817126Y-16844359D01*
X19755802Y-16877843D01*
X19755227Y-16877967D01*
X19645196Y-16901356D01*
X19645192Y-16901357D01*
X19472270Y-16978348D01*
X19472265Y-16978351D01*
X19319129Y-17089611D01*
X19192466Y-17230285D01*
X19097821Y-17394215D01*
X19097818Y-17394222D01*
X19039327Y-17574239D01*
X19039325Y-17574248D01*
X19038287Y-17584125D01*
X19011700Y-17648738D01*
X19002649Y-17658838D01*
X18846705Y-17814783D01*
X18839555Y-17821392D01*
X18705532Y-17935859D01*
X18689789Y-17947297D01*
X18543692Y-18036824D01*
X18526355Y-18045657D01*
X18368057Y-18111225D01*
X18349550Y-18117238D01*
X18182944Y-18157234D01*
X18163726Y-18160278D01*
X17987842Y-18174117D01*
X17978114Y-18174499D01*
X17907928Y-18174498D01*
X17901434Y-18174498D01*
X17901433Y-18174498D01*
X17894669Y-18174498D01*
X17894633Y-18174500D01*
X7914551Y-18174500D01*
X7847512Y-18154815D01*
X7801757Y-18102011D01*
X7791813Y-18032853D01*
X7796845Y-18011496D01*
X7818118Y-17947297D01*
X7840349Y-17880208D01*
X7845755Y-17827288D01*
X7854550Y-17792442D01*
X7862051Y-17774335D01*
X7888305Y-17642351D01*
X7900500Y-17581043D01*
X7900500Y-11413956D01*
X7862052Y-11220670D01*
X7862051Y-11220667D01*
X7862051Y-11220665D01*
X7854549Y-11202555D01*
X7845754Y-11167706D01*
X7844468Y-11155118D01*
X7840349Y-11114792D01*
X7787003Y-10953803D01*
X7786999Y-10953797D01*
X7786998Y-10953794D01*
X7697970Y-10809459D01*
X7697967Y-10809455D01*
X7578044Y-10689532D01*
X7578040Y-10689529D01*
X7433705Y-10600501D01*
X7433699Y-10600498D01*
X7433697Y-10600497D01*
X7366937Y-10578375D01*
X7272709Y-10547151D01*
X7173352Y-10537000D01*
X7173345Y-10537000D01*
X7136434Y-10537000D01*
X7112243Y-10534617D01*
X7074551Y-10527119D01*
X6998543Y-10512000D01*
X6998541Y-10512000D01*
X6801459Y-10512000D01*
X6792606Y-10513761D01*
X6687745Y-10534618D01*
X6663558Y-10537000D01*
X6626663Y-10537000D01*
X6626643Y-10537001D01*
X6527292Y-10547150D01*
X6527289Y-10547151D01*
X6366305Y-10600496D01*
X6366294Y-10600501D01*
X6221959Y-10689529D01*
X6221955Y-10689532D01*
X6102032Y-10809455D01*
X6102029Y-10809459D01*
X6013001Y-10953794D01*
X6012996Y-10953805D01*
X5959651Y-11114790D01*
X5959650Y-11114796D01*
X5954243Y-11167714D01*
X5945450Y-11202551D01*
X5937950Y-11220661D01*
X5937948Y-11220667D01*
X5899500Y-11413956D01*
X5899500Y-14888000D01*
X5879815Y-14955039D01*
X5827011Y-15000794D01*
X5775500Y-15012000D01*
X4712242Y-15012000D01*
X4645203Y-14992315D01*
X4601030Y-14942843D01*
X4584783Y-14909898D01*
X4584780Y-14909892D01*
X4513721Y-14803545D01*
X4424520Y-14670046D01*
X4291422Y-14518277D01*
X4234327Y-14453172D01*
X4017452Y-14262978D01*
X3777613Y-14102723D01*
X3777606Y-14102719D01*
X3518905Y-13975142D01*
X3245760Y-13882421D01*
X3245754Y-13882419D01*
X3245753Y-13882419D01*
X3245751Y-13882418D01*
X3245745Y-13882417D01*
X2962849Y-13826146D01*
X2962839Y-13826144D01*
X2675000Y-13807278D01*
X2387161Y-13826144D01*
X2387155Y-13826145D01*
X2387150Y-13826146D01*
X2104254Y-13882417D01*
X2104239Y-13882421D01*
X1831094Y-13975142D01*
X1572393Y-14102719D01*
X1572386Y-14102723D01*
X1332547Y-14262978D01*
X1115672Y-14453172D01*
X925478Y-14670047D01*
X765223Y-14909886D01*
X765219Y-14909893D01*
X637642Y-15168594D01*
X544921Y-15441739D01*
X544917Y-15441754D01*
X489718Y-15719260D01*
X488644Y-15724661D01*
X469778Y-16012500D01*
X485842Y-16257596D01*
X488644Y-16300337D01*
X488646Y-16300349D01*
X544917Y-16583245D01*
X544921Y-16583260D01*
X637642Y-16856405D01*
X765219Y-17115106D01*
X765223Y-17115113D01*
X925478Y-17354952D01*
X1115672Y-17571827D01*
X1332547Y-17762021D01*
X1572386Y-17922276D01*
X1572393Y-17922280D01*
X1606882Y-17939288D01*
X1658301Y-17986593D01*
X1675983Y-18054188D01*
X1654313Y-18120612D01*
X1600172Y-18164777D01*
X1552038Y-18174500D01*
X-2485271Y-18174500D01*
X-2493381Y-18174235D01*
X-2720771Y-18159331D01*
X-2736853Y-18157213D01*
X-2956343Y-18113553D01*
X-2972010Y-18109355D01*
X-3183926Y-18037419D01*
X-3198911Y-18031212D01*
X-3399634Y-17932226D01*
X-3413680Y-17924116D01*
X-3599753Y-17799787D01*
X-3612622Y-17789913D01*
X-3780884Y-17642351D01*
X-3792353Y-17630882D01*
X-3939913Y-17462622D01*
X-3949787Y-17449753D01*
X-4074116Y-17263680D01*
X-4082226Y-17249634D01*
X-4181212Y-17048911D01*
X-4187419Y-17033926D01*
X-4259355Y-16822010D01*
X-4263553Y-16806343D01*
X-4307213Y-16586853D01*
X-4309331Y-16570771D01*
X-4324235Y-16343381D01*
X-4324500Y-16335271D01*
X-4324500Y-14727622D01*
X-4307887Y-14665623D01*
X-4222821Y-14518284D01*
X-4222818Y-14518277D01*
X-4164327Y-14338259D01*
X-4164326Y-14338256D01*
X-4144540Y-14150000D01*
X-4164326Y-13961744D01*
X-4168228Y-13949734D01*
X-4222818Y-13781722D01*
X-4222821Y-13781715D01*
X-4317466Y-13617785D01*
X-4444129Y-13477111D01*
X-4597265Y-13365851D01*
X-4597270Y-13365848D01*
X-4770192Y-13288857D01*
X-4770197Y-13288855D01*
X-4922897Y-13256398D01*
X-4955354Y-13249500D01*
X-5144646Y-13249500D01*
X-5184001Y-13257865D01*
X-5329802Y-13288855D01*
X-5329807Y-13288857D01*
X-5502729Y-13365848D01*
X-5502734Y-13365851D01*
X-5611081Y-13444570D01*
X-5655871Y-13477112D01*
X-5782533Y-13617784D01*
X-5877179Y-13781716D01*
X-5935674Y-13961744D01*
X-5955460Y-14150000D01*
X-5935674Y-14338256D01*
X-5877179Y-14518284D01*
X-5792112Y-14665623D01*
X-5775500Y-14727622D01*
X-5775500Y-16257594D01*
X-5775500Y-16257596D01*
X-5775500Y-16339340D01*
X-5775500Y-16500778D01*
X-5743852Y-16822101D01*
X-5700186Y-17041625D01*
X-5685569Y-17115113D01*
X-5680862Y-17138774D01*
X-5587135Y-17447748D01*
X-5463575Y-17746048D01*
X-5311372Y-18030800D01*
X-5131992Y-18299263D01*
X-5131986Y-18299269D01*
X-5131985Y-18299272D01*
X-5077600Y-18365540D01*
X-4927161Y-18548851D01*
X-4881016Y-18594994D01*
X-4881014Y-18594998D01*
X-4870808Y-18605203D01*
X-4870808Y-18605205D01*
X-4839758Y-18636254D01*
X-4813007Y-18663005D01*
X-4755205Y-18720808D01*
X-4755203Y-18720808D01*
X-4744997Y-18731015D01*
X-4744992Y-18731018D01*
X-4698851Y-18777161D01*
X-4449263Y-18981992D01*
X-4180800Y-19161372D01*
X-3896048Y-19313575D01*
X-3597748Y-19437135D01*
X-3288774Y-19530862D01*
X-3288764Y-19530863D01*
X-3288761Y-19530865D01*
X-3288755Y-19530866D01*
X-3220729Y-19544396D01*
X-2972101Y-19593852D01*
X-2650778Y-19625500D01*
X-2650775Y-19625500D01*
X18060788Y-19625500D01*
X18061055Y-19625486D01*
X18132948Y-19625488D01*
X18430655Y-19591949D01*
X18722734Y-19525287D01*
X19005513Y-19426342D01*
X19275435Y-19296357D01*
X19529105Y-19136967D01*
X19763334Y-18950176D01*
X19812883Y-18900625D01*
X19812893Y-18900617D01*
X19818725Y-18894784D01*
X19818730Y-18894782D01*
X20032873Y-18680637D01*
X20094192Y-18647155D01*
X20094335Y-18647124D01*
X20204803Y-18623644D01*
X20275065Y-18592360D01*
X20344313Y-18583075D01*
X20407590Y-18612703D01*
X20444804Y-18671837D01*
X20449500Y-18705640D01*
X20449500Y-18844113D01*
X20455913Y-18914692D01*
X20506522Y-19077106D01*
X20594530Y-19222688D01*
X20714811Y-19342969D01*
X20714813Y-19342970D01*
X20714815Y-19342972D01*
X20860394Y-19430978D01*
X21022804Y-19481586D01*
X21093384Y-19488000D01*
X21093387Y-19488000D01*
X21756613Y-19488000D01*
X21756616Y-19488000D01*
X21827196Y-19481586D01*
X21989606Y-19430978D01*
X22110853Y-19357680D01*
X22178404Y-19339846D01*
X22239145Y-19357680D01*
X22360394Y-19430978D01*
X22392211Y-19440892D01*
X22424210Y-19456174D01*
X22451086Y-19474132D01*
X22451088Y-19474132D01*
X22451092Y-19474135D01*
X22588055Y-19530866D01*
X22633165Y-19549551D01*
X22633169Y-19549551D01*
X22633170Y-19549552D01*
X22826456Y-19588000D01*
X22826459Y-19588000D01*
X24326459Y-19588000D01*
X25795500Y-19588000D01*
X25862539Y-19607685D01*
X25908294Y-19660489D01*
X25919500Y-19712000D01*
X25919500Y-19888500D01*
X25899815Y-19955539D01*
X25847011Y-20001294D01*
X25795500Y-20012500D01*
X-25445500Y-20012500D01*
X-25512539Y-19992815D01*
X-25558294Y-19940011D01*
X-25569500Y-19888500D01*
X-25569500Y-18749041D01*
X-25569500Y-18749030D01*
X-25571434Y-18713510D01*
X-25572489Y-18694130D01*
X-25575411Y-18667375D01*
X-25575412Y-18667372D01*
X-25584340Y-18613155D01*
X-25584340Y-18613152D01*
X-25635076Y-18478508D01*
X-25668764Y-18417303D01*
X-25673847Y-18410538D01*
X-25673975Y-18410390D01*
X-25760716Y-18295328D01*
X-25758544Y-18293691D01*
X-25780181Y-18258459D01*
X-25783919Y-18246955D01*
X-25866258Y-18085357D01*
X-25866266Y-18085344D01*
X-25925818Y-18003378D01*
X-25949298Y-17937572D01*
X-25949500Y-17930493D01*
X-25949500Y-17463433D01*
X-25929815Y-17396394D01*
X-25925825Y-17390558D01*
X-25905480Y-17362556D01*
X-25885083Y-17334483D01*
X-25885083Y-17334482D01*
X-25822420Y-17211501D01*
X-25774446Y-17160706D01*
X-25706625Y-17143911D01*
X-25640490Y-17166449D01*
X-25600213Y-17214002D01*
X-25596387Y-17221948D01*
X-25461224Y-17437058D01*
X-25302827Y-17635683D01*
X-25268911Y-17669598D01*
X-25268903Y-17669608D01*
X-25263533Y-17674977D01*
X-25263532Y-17674980D01*
X-25236817Y-17701694D01*
X-25203333Y-17763015D01*
X-25200499Y-17789375D01*
X-25200499Y-17960844D01*
X-25190349Y-18060208D01*
X-25137003Y-18221197D01*
X-25047968Y-18365544D01*
X-24928044Y-18485468D01*
X-24783697Y-18574503D01*
X-24622708Y-18627849D01*
X-24523345Y-18638000D01*
X-23976656Y-18637999D01*
X-23976648Y-18637998D01*
X-23976644Y-18637998D01*
X-23877292Y-18627849D01*
X-23877289Y-18627848D01*
X-23864596Y-18623642D01*
X-23716303Y-18574503D01*
X-23716297Y-18574499D01*
X-23716294Y-18574498D01*
X-23590097Y-18496658D01*
X-23522705Y-18478217D01*
X-23459903Y-18496658D01*
X-23375285Y-18548851D01*
X-23333697Y-18574503D01*
X-23172708Y-18627849D01*
X-23073345Y-18638000D01*
X-22526656Y-18637999D01*
X-22526648Y-18637998D01*
X-22526644Y-18637998D01*
X-22427292Y-18627849D01*
X-22427289Y-18627848D01*
X-22414596Y-18623642D01*
X-22266303Y-18574503D01*
X-22266297Y-18574499D01*
X-22266294Y-18574498D01*
X-22121959Y-18485470D01*
X-22121955Y-18485467D01*
X-22112681Y-18476193D01*
X-22051358Y-18442708D01*
X-21981666Y-18447692D01*
X-21937319Y-18476193D01*
X-21928044Y-18485468D01*
X-21783697Y-18574503D01*
X-21622708Y-18627849D01*
X-21523345Y-18638000D01*
X-20976656Y-18637999D01*
X-20976648Y-18637998D01*
X-20976644Y-18637998D01*
X-20877292Y-18627849D01*
X-20877289Y-18627848D01*
X-20864596Y-18623642D01*
X-20716303Y-18574503D01*
X-20716297Y-18574499D01*
X-20716294Y-18574498D01*
X-20571959Y-18485470D01*
X-20571955Y-18485467D01*
X-20452032Y-18365544D01*
X-20452029Y-18365540D01*
X-20363001Y-18221205D01*
X-20362996Y-18221194D01*
X-20309651Y-18060209D01*
X-20299500Y-17960852D01*
X-20299500Y-17364162D01*
X-20299501Y-17364144D01*
X-20309650Y-17264792D01*
X-20309651Y-17264789D01*
X-20362996Y-17103805D01*
X-20363001Y-17103794D01*
X-20452029Y-16959459D01*
X-20452032Y-16959455D01*
X-20571955Y-16839532D01*
X-20571959Y-16839529D01*
X-20716294Y-16750501D01*
X-20716305Y-16750496D01*
X-20877290Y-16697151D01*
X-20976647Y-16687000D01*
X-20976655Y-16687000D01*
X-21148125Y-16687000D01*
X-21215164Y-16667315D01*
X-21235806Y-16650681D01*
X-21894901Y-15991584D01*
X-21928386Y-15930261D01*
X-21923402Y-15860569D01*
X-21921781Y-15856451D01*
X-21864957Y-15719265D01*
X-21864955Y-15719260D01*
X-21849501Y-15601870D01*
X-21849500Y-15601854D01*
X-21849500Y-15084349D01*
X-21847117Y-15060157D01*
X-21824500Y-14946457D01*
X-21824500Y-14803541D01*
X-21847117Y-14689839D01*
X-21849500Y-14665648D01*
X-21849500Y-14148136D01*
X-21864954Y-14030741D01*
X-21864956Y-14030735D01*
X-21869733Y-14019203D01*
X-21877200Y-13949734D01*
X-21871353Y-13928420D01*
X-21830908Y-13819982D01*
X-21824501Y-13760383D01*
X-21824500Y-13760364D01*
X-21824500Y-13137000D01*
X-21804815Y-13069961D01*
X-21752011Y-13024206D01*
X-21700500Y-13013000D01*
X-21226456Y-13013000D01*
X-21033170Y-12974552D01*
X-21033169Y-12974551D01*
X-21033165Y-12974551D01*
X-21033160Y-12974549D01*
X-20851092Y-12899135D01*
X-20851079Y-12899128D01*
X-20687218Y-12789639D01*
X-20687214Y-12789636D01*
X-20547863Y-12650285D01*
X-20547860Y-12650281D01*
X-20438371Y-12486420D01*
X-20438364Y-12486407D01*
X-20362950Y-12304339D01*
X-20362947Y-12304329D01*
X-20324500Y-12111043D01*
X-20324500Y-11913956D01*
X-20324499Y-11913956D01*
X-20362947Y-11720670D01*
X-20362950Y-11720660D01*
X-20438364Y-11538592D01*
X-20438371Y-11538579D01*
X-20547860Y-11374718D01*
X-20684627Y-11237951D01*
X-20718111Y-11176628D01*
X-20713127Y-11106936D01*
X-20689095Y-11067298D01*
X-20586906Y-10953805D01*
X-20567467Y-10932216D01*
X-20472821Y-10768284D01*
X-20472818Y-10768277D01*
X-20414327Y-10588260D01*
X-20414325Y-10588250D01*
X-20413287Y-10578375D01*
X-20386701Y-10513761D01*
X-20377648Y-10503660D01*
X-20323968Y-10449980D01*
X-20289757Y-10415768D01*
X-20251807Y-10368179D01*
X-20140326Y-10228387D01*
X-20012814Y-10025452D01*
X-20012812Y-10025449D01*
X-19908828Y-9809524D01*
X-19908822Y-9809510D01*
X-19829669Y-9583307D01*
X-19829665Y-9583295D01*
X-19776335Y-9349638D01*
X-19776333Y-9349622D01*
X-19749500Y-9111475D01*
X-19749500Y-6497086D01*
X-19749501Y-6497070D01*
X-19779438Y-6269673D01*
X-19838805Y-6048113D01*
X-19926577Y-5836210D01*
X-19926585Y-5836194D01*
X-20041263Y-5637568D01*
X-20041273Y-5637553D01*
X-20073877Y-5595063D01*
X-20099070Y-5529894D01*
X-20099500Y-5519578D01*
X-20099500Y-5330886D01*
X-20099911Y-5326367D01*
X-20102030Y-5303044D01*
X-20105913Y-5260307D01*
X-20156522Y-5097893D01*
X-20244530Y-4952311D01*
X-20244531Y-4952310D01*
X-20346661Y-4850181D01*
X-20380146Y-4788858D01*
X-20375162Y-4719166D01*
X-20346661Y-4674819D01*
X-20244530Y-4572688D01*
X-20239371Y-4564155D01*
X-20156522Y-4427106D01*
X-20105914Y-4264696D01*
X-20105913Y-4264694D01*
X-20105913Y-4264692D01*
X-20099500Y-4194113D01*
X-20099500Y-3680886D01*
X-20105913Y-3610307D01*
X-20156522Y-3447893D01*
X-20244530Y-3302311D01*
X-20364811Y-3182030D01*
X-20510393Y-3094022D01*
X-20672807Y-3043413D01*
X-20724145Y-3038748D01*
X-20743384Y-3037000D01*
X-21406616Y-3037000D01*
X-21427778Y-3038923D01*
X-21477192Y-3043413D01*
X-21477194Y-3043413D01*
X-21477196Y-3043414D01*
X-21501117Y-3050868D01*
X-21639606Y-3094022D01*
X-21760850Y-3167317D01*
X-21828405Y-3185153D01*
X-21889150Y-3167317D01*
X-22010396Y-3094021D01*
X-22010400Y-3094019D01*
X-22042213Y-3084106D01*
X-22074207Y-3068827D01*
X-22101086Y-3050868D01*
X-22101087Y-3050867D01*
X-22101091Y-3050865D01*
X-22283160Y-2975450D01*
X-22283170Y-2975447D01*
X-22476457Y-2937000D01*
X-22476459Y-2937000D01*
X-23976459Y-2937000D01*
X-25264722Y-2937000D01*
X-25331761Y-2917315D01*
X-25377516Y-2864511D01*
X-25387460Y-2795353D01*
X-25385613Y-2785407D01*
X-25380628Y-2763567D01*
X-25380625Y-2763553D01*
X-25349500Y-2487304D01*
X-25349500Y-691042D01*
X-25349499Y-691042D01*
X-25377379Y-550885D01*
X-25377381Y-550879D01*
X-25432069Y-418849D01*
X-25432073Y-418842D01*
X-25490507Y-331390D01*
X-25511384Y-264713D01*
X-25492899Y-197333D01*
X-25490507Y-193610D01*
X-25432073Y-106157D01*
X-25432069Y-106150D01*
X-25377381Y25879D01*
X-25377379Y25885D01*
X-25349500Y166042D01*
X-25349500Y3085373D01*
X-11655500Y3085373D01*
X-11655499Y-610372D01*
X-11649091Y-669983D01*
X-11598796Y-804831D01*
X-11512546Y-920046D01*
X-11397331Y-1006296D01*
X-11262483Y-1056591D01*
X-11202873Y-1063000D01*
X-8427128Y-1062999D01*
X-8378757Y-1057799D01*
X-8367516Y-1056591D01*
X-8232671Y-1006297D01*
X-8232664Y-1006293D01*
X-8117455Y-920047D01*
X-8117452Y-920044D01*
X-8031206Y-804835D01*
X-8031202Y-804828D01*
X-7980908Y-669982D01*
X-7974501Y-610383D01*
X-7974500Y-610381D01*
X-7974500Y-610373D01*
X-7974500Y894937D01*
X-7974500Y3085370D01*
X-7974501Y3085376D01*
X-7980908Y3144983D01*
X-8031202Y3279828D01*
X-8031206Y3279835D01*
X-8117452Y3395044D01*
X-8117455Y3395047D01*
X-8232664Y3481293D01*
X-8232671Y3481297D01*
X-8367517Y3531591D01*
X-8367516Y3531591D01*
X-8373925Y3532279D01*
X-8427127Y3538000D01*
X-11202872Y3537999D01*
X-11262483Y3531591D01*
X-11397331Y3481296D01*
X-11512546Y3395046D01*
X-11598796Y3279831D01*
X-11649091Y3144983D01*
X-11655500Y3085373D01*
X-25349500Y3085373D01*
X-25349500Y3194820D01*
X-25374721Y3418673D01*
X-25374724Y3418687D01*
X-25382636Y3453350D01*
X-25389014Y3481297D01*
X-25424855Y3638328D01*
X-25424856Y3638330D01*
X-25499264Y3850978D01*
X-25597012Y4053953D01*
X-25647596Y4134456D01*
X-25716876Y4244715D01*
X-25821668Y4376120D01*
X-25857341Y4420853D01*
X-26005553Y4569065D01*
X-26016248Y4581260D01*
X-26049220Y4624230D01*
X-26065333Y4652089D01*
X-26065489Y4652464D01*
X-26075000Y4700091D01*
X-26075000Y4890684D01*
X-26055315Y4957723D01*
X-26049376Y4966170D01*
X-25952227Y5092777D01*
X-25952221Y5092786D01*
X-25862709Y5247823D01*
X-25862703Y5247836D01*
X-25838875Y5305360D01*
X-25795034Y5359763D01*
X-25728739Y5381827D01*
X-25661040Y5364547D01*
X-25613430Y5313409D01*
X-25612610Y5311739D01*
X-25609538Y5305360D01*
X-25596388Y5278052D01*
X-25569529Y5235307D01*
X-25461224Y5062941D01*
X-25302827Y4864316D01*
X-25302826Y4864315D01*
X-25267872Y4829361D01*
X-25267852Y4829339D01*
X-25236818Y4798305D01*
X-25203333Y4736982D01*
X-25200499Y4710624D01*
X-25200499Y4539156D01*
X-25190349Y4439792D01*
X-25137003Y4278803D01*
X-25136999Y4278797D01*
X-25136998Y4278794D01*
X-25047970Y4134459D01*
X-25047967Y4134455D01*
X-24928044Y4014532D01*
X-24928040Y4014529D01*
X-24783705Y3925501D01*
X-24783699Y3925498D01*
X-24783697Y3925497D01*
X-24783694Y3925496D01*
X-24622709Y3872151D01*
X-24523346Y3862000D01*
X-24523345Y3862000D01*
X-23976662Y3862000D01*
X-23976644Y3862001D01*
X-23877292Y3872150D01*
X-23877289Y3872151D01*
X-23716305Y3925496D01*
X-23716300Y3925498D01*
X-23590097Y4003342D01*
X-23522704Y4021782D01*
X-23459903Y4003342D01*
X-23333699Y3925498D01*
X-23333697Y3925497D01*
X-23333694Y3925496D01*
X-23172709Y3872151D01*
X-23073346Y3862000D01*
X-23073345Y3862000D01*
X-22526662Y3862000D01*
X-22526644Y3862001D01*
X-22427292Y3872150D01*
X-22427289Y3872151D01*
X-22266305Y3925496D01*
X-22266294Y3925501D01*
X-22121959Y4014529D01*
X-22121955Y4014532D01*
X-22112681Y4023807D01*
X-22051358Y4057292D01*
X-21981666Y4052308D01*
X-21937319Y4023807D01*
X-21928044Y4014532D01*
X-21928040Y4014529D01*
X-21783705Y3925501D01*
X-21783699Y3925498D01*
X-21783697Y3925497D01*
X-21783694Y3925496D01*
X-21622709Y3872151D01*
X-21523346Y3862000D01*
X-21523345Y3862000D01*
X-20976662Y3862000D01*
X-20976644Y3862001D01*
X-20877292Y3872150D01*
X-20877289Y3872151D01*
X-20716305Y3925496D01*
X-20716294Y3925501D01*
X-20571959Y4014529D01*
X-20571955Y4014532D01*
X-20452032Y4134455D01*
X-20452029Y4134459D01*
X-20363001Y4278794D01*
X-20362996Y4278805D01*
X-20309651Y4439790D01*
X-20299500Y4539147D01*
X-20299500Y5135837D01*
X-20299501Y5135855D01*
X-20309650Y5235207D01*
X-20309651Y5235210D01*
X-20362996Y5396194D01*
X-20363001Y5396205D01*
X-20452029Y5540540D01*
X-20452032Y5540544D01*
X-20571955Y5660467D01*
X-20571959Y5660470D01*
X-20716294Y5749498D01*
X-20716297Y5749499D01*
X-20716303Y5749503D01*
X-20877292Y5802849D01*
X-20976655Y5813000D01*
X-21148124Y5812999D01*
X-21215164Y5832683D01*
X-21235806Y5849318D01*
X-21894902Y6508414D01*
X-21928387Y6569737D01*
X-21923403Y6639429D01*
X-21921782Y6643548D01*
X-21864956Y6780737D01*
X-21864955Y6780739D01*
X-21849501Y6898129D01*
X-21849500Y6898145D01*
X-21849500Y7415649D01*
X-21847117Y7439840D01*
X-21824500Y7553541D01*
X-21824500Y7696456D01*
X-21847117Y7810158D01*
X-21849500Y7834350D01*
X-21849500Y8351863D01*
X-21864954Y8469255D01*
X-21864956Y8469263D01*
X-21869734Y8480799D01*
X-21877200Y8550268D01*
X-21871353Y8571579D01*
X-21830908Y8680017D01*
X-21824501Y8739616D01*
X-21824500Y8739635D01*
X-21824500Y9363000D01*
X-21804815Y9430039D01*
X-21752011Y9475794D01*
X-21700500Y9487000D01*
X-21226457Y9487000D01*
X-21033170Y9525447D01*
X-21033160Y9525450D01*
X-20851092Y9600864D01*
X-20851079Y9600871D01*
X-20687218Y9710360D01*
X-20687214Y9710363D01*
X-20547863Y9849714D01*
X-20547860Y9849718D01*
X-20438371Y10013579D01*
X-20438364Y10013592D01*
X-20362950Y10195660D01*
X-20362947Y10195670D01*
X-20324500Y10388956D01*
X-20324500Y10586043D01*
X-20324499Y10586043D01*
X-20362947Y10779329D01*
X-20362950Y10779339D01*
X-20438364Y10961407D01*
X-20438371Y10961420D01*
X-20547860Y11125281D01*
X-20547863Y11125285D01*
X-20566177Y11143599D01*
X-20599662Y11204922D01*
X-20594678Y11274614D01*
X-20570652Y11314245D01*
X-20567472Y11317776D01*
X-20567464Y11317787D01*
X-20472821Y11481715D01*
X-20472818Y11481722D01*
X-20414327Y11661739D01*
X-20414325Y11661748D01*
X-20413287Y11671624D01*
X-20386699Y11736237D01*
X-20377650Y11746336D01*
X-20323969Y11800019D01*
X-20323968Y11800019D01*
X-20289758Y11834229D01*
X-20140325Y12021612D01*
X-20012809Y12224551D01*
X-19908826Y12440475D01*
X-19908824Y12440479D01*
X-19829666Y12666702D01*
X-19829665Y12666704D01*
X-19776334Y12900365D01*
X-19776331Y12900378D01*
X-19749500Y13138522D01*
X-19749500Y16002913D01*
X-19749501Y16002929D01*
X-19779438Y16230325D01*
X-19838807Y16451892D01*
X-19926576Y16663788D01*
X-19926584Y16663804D01*
X-20014842Y16816669D01*
X-20031315Y16884569D01*
X-20008463Y16950596D01*
X-19995136Y16966350D01*
X-19751961Y17209526D01*
X-19746907Y17214305D01*
X-19583392Y17360431D01*
X-19572520Y17369101D01*
X-19396523Y17493977D01*
X-19384749Y17501375D01*
X-19195876Y17605761D01*
X-19183348Y17611794D01*
X-18983978Y17694376D01*
X-18970853Y17698969D01*
X-18763487Y17758710D01*
X-18749930Y17761804D01*
X-18537180Y17797952D01*
X-18523362Y17799509D01*
X-18304422Y17811805D01*
X-18297469Y17812000D01*
X-18219206Y17812000D01*
X-12087692Y17812000D01*
X-12007988Y17812000D01*
X-12003931Y17811934D01*
X-11523607Y17796209D01*
X-11515510Y17795678D01*
X-11039288Y17748775D01*
X-11031243Y17747716D01*
X-10559098Y17669764D01*
X-10551140Y17668181D01*
X-10085110Y17559518D01*
X-10077272Y17557418D01*
X-9619333Y17418503D01*
X-9611649Y17415894D01*
X-9163794Y17247333D01*
X-9156298Y17244228D01*
X-8720421Y17046736D01*
X-8713143Y17043147D01*
X-8291113Y16817566D01*
X-8284086Y16813509D01*
X-7877715Y16560812D01*
X-7870968Y16556304D01*
X-7481993Y16277568D01*
X-7475555Y16272628D01*
X-7105638Y15969046D01*
X-7099538Y15963696D01*
X-6748797Y15635191D01*
X-6745881Y15632369D01*
X-5012921Y13899409D01*
X-4979436Y13838086D01*
X-4984420Y13768394D01*
X-5026292Y13712461D01*
X-5081204Y13689255D01*
X-5106608Y13685231D01*
X-5141238Y13679747D01*
X-5141238Y13679746D01*
X-5141243Y13679746D01*
X-5343412Y13614057D01*
X-5532816Y13517551D01*
X-5532820Y13517548D01*
X-5704786Y13392609D01*
X-5704788Y13392606D01*
X-5704792Y13392604D01*
X-5855104Y13242292D01*
X-5855106Y13242288D01*
X-5855109Y13242286D01*
X-5930492Y13138529D01*
X-5980051Y13070316D01*
X-6076557Y12880912D01*
X-6142246Y12678743D01*
X-6175500Y12468787D01*
X-6175500Y12006213D01*
X-6142246Y11796257D01*
X-6076557Y11594088D01*
X-5980051Y11404684D01*
X-5980048Y11404679D01*
X-5855109Y11232713D01*
X-5704786Y11082390D01*
X-5532820Y10957451D01*
X-5532816Y10957449D01*
X-5343412Y10860943D01*
X-5141243Y10795254D01*
X-5141241Y10795253D01*
X-5141240Y10795253D01*
X-4979957Y10769708D01*
X-4931287Y10762000D01*
X-4931286Y10762000D01*
X-4718713Y10762000D01*
X-4515361Y10794207D01*
X-4446068Y10785252D01*
X-4408283Y10759415D01*
X-748549Y7099681D01*
X-715064Y7038358D01*
X-720048Y6968666D01*
X-761920Y6912733D01*
X-827384Y6888316D01*
X-836230Y6888000D01*
X-919646Y6888000D01*
X-1104803Y6848644D01*
X-1277730Y6771651D01*
X-1430871Y6660388D01*
X-1557533Y6519716D01*
X-1652179Y6355784D01*
X-1710674Y6175756D01*
X-1730460Y5987500D01*
X-1710674Y5799244D01*
X-1700606Y5768259D01*
X-1678531Y5700317D01*
X-1676536Y5630476D01*
X-1712617Y5570643D01*
X-1775318Y5539815D01*
X-1796462Y5537999D01*
X-2177872Y5537999D01*
X-2237483Y5531591D01*
X-2281665Y5515111D01*
X-2351356Y5510126D01*
X-2368333Y5515112D01*
X-2412508Y5531588D01*
X-2412511Y5531589D01*
X-2412517Y5531591D01*
X-2472127Y5538000D01*
X-3177872Y5537999D01*
X-3237483Y5531591D01*
X-3281665Y5515111D01*
X-3351356Y5510126D01*
X-3368333Y5515112D01*
X-3412508Y5531588D01*
X-3412511Y5531589D01*
X-3412517Y5531591D01*
X-3472127Y5538000D01*
X-4177872Y5537999D01*
X-4237483Y5531591D01*
X-4281665Y5515111D01*
X-4351356Y5510126D01*
X-4368333Y5515112D01*
X-4412508Y5531588D01*
X-4412511Y5531589D01*
X-4412517Y5531591D01*
X-4472127Y5538000D01*
X-4853539Y5537999D01*
X-4920577Y5557683D01*
X-4966332Y5610487D01*
X-4976276Y5679646D01*
X-4971469Y5700317D01*
X-4939327Y5799240D01*
X-4939326Y5799241D01*
X-4939326Y5799244D01*
X-4919540Y5987500D01*
X-4939326Y6175756D01*
X-4961711Y6244650D01*
X-4997818Y6355777D01*
X-4997821Y6355784D01*
X-5092467Y6519716D01*
X-5219129Y6660388D01*
X-5239727Y6675353D01*
X-5372265Y6771648D01*
X-5372270Y6771651D01*
X-5545192Y6848642D01*
X-5545197Y6848644D01*
X-5644461Y6869743D01*
X-5730354Y6888000D01*
X-5919646Y6888000D01*
X-6104803Y6848644D01*
X-6274566Y6773059D01*
X-6343813Y6763775D01*
X-6375430Y6773057D01*
X-6545197Y6848644D01*
X-6730354Y6888000D01*
X-6919646Y6888000D01*
X-7104803Y6848644D01*
X-7277730Y6771651D01*
X-7430871Y6660388D01*
X-7557533Y6519716D01*
X-7652179Y6355784D01*
X-7710674Y6175756D01*
X-7730460Y5987500D01*
X-7710674Y5799244D01*
X-7652179Y5619216D01*
X-7652177Y5619212D01*
X-7652176Y5619210D01*
X-7567113Y5471875D01*
X-7550500Y5409876D01*
X-7550500Y5352221D01*
X-7570185Y5285182D01*
X-7573412Y5280532D01*
X-7573797Y5279829D01*
X-7590439Y5235210D01*
X-7624091Y5144983D01*
X-7630500Y5085373D01*
X-7630499Y2989628D01*
X-7627922Y2965656D01*
X-7624091Y2930016D01*
X-7573797Y2795171D01*
X-7573793Y2795164D01*
X-7487547Y2679955D01*
X-7487544Y2679952D01*
X-7372335Y2593706D01*
X-7372328Y2593702D01*
X-7237486Y2543410D01*
X-7237483Y2543409D01*
X-7177873Y2537000D01*
X-7177863Y2537000D01*
X-6472129Y2537000D01*
X-6472123Y2537001D01*
X-6412516Y2543408D01*
X-6368332Y2559888D01*
X-6298640Y2564872D01*
X-6281668Y2559888D01*
X-6237485Y2543409D01*
X-6237483Y2543408D01*
X-6177883Y2537001D01*
X-6177881Y2537000D01*
X-6177873Y2537000D01*
X-5836697Y2537000D01*
X-5769658Y2517315D01*
X-5723903Y2464511D01*
X-5713376Y2400041D01*
X-5730460Y2237500D01*
X-5710674Y2049244D01*
X-5652179Y1869216D01*
X-5557533Y1705284D01*
X-5430871Y1564612D01*
X-5430870Y1564611D01*
X-5277734Y1453351D01*
X-5277729Y1453348D01*
X-5104807Y1376357D01*
X-5104802Y1376355D01*
X-4959001Y1345365D01*
X-4919646Y1337000D01*
X-4919645Y1337000D01*
X-4730355Y1337000D01*
X-4730354Y1337000D01*
X-4697897Y1343898D01*
X-4545197Y1376355D01*
X-4545192Y1376357D01*
X-4375436Y1451939D01*
X-4306186Y1461224D01*
X-4274564Y1451939D01*
X-4104807Y1376357D01*
X-4104802Y1376355D01*
X-3959001Y1345365D01*
X-3919646Y1337000D01*
X-3919645Y1337000D01*
X-3730355Y1337000D01*
X-3730354Y1337000D01*
X-3697897Y1343898D01*
X-3545197Y1376355D01*
X-3545192Y1376357D01*
X-3375434Y1451940D01*
X-3306184Y1461225D01*
X-3274562Y1451940D01*
X-3104803Y1376357D01*
X-3104799Y1376355D01*
X-2958998Y1345365D01*
X-2919643Y1337000D01*
X-2919642Y1337000D01*
X-2730352Y1337000D01*
X-2730351Y1337000D01*
X-2697894Y1343898D01*
X-2545194Y1376355D01*
X-2545189Y1376357D01*
X-2375434Y1451938D01*
X-2306184Y1461223D01*
X-2274562Y1451938D01*
X-2104807Y1376357D01*
X-2104802Y1376355D01*
X-1959001Y1345365D01*
X-1919646Y1337000D01*
X-1919645Y1337000D01*
X-1730355Y1337000D01*
X-1730354Y1337000D01*
X-1697897Y1343898D01*
X-1545197Y1376355D01*
X-1545192Y1376357D01*
X-1372270Y1453348D01*
X-1372265Y1453351D01*
X-1219129Y1564611D01*
X-1092466Y1705285D01*
X-997821Y1869215D01*
X-997818Y1869222D01*
X-939327Y2049240D01*
X-939326Y2049241D01*
X-939326Y2049244D01*
X-919540Y2237500D01*
X-936623Y2400039D01*
X-924053Y2468769D01*
X-876321Y2519792D01*
X-813302Y2537000D01*
X-472130Y2537000D01*
X-472123Y2537001D01*
X-412516Y2543408D01*
X-368332Y2559888D01*
X-298640Y2564872D01*
X-281668Y2559888D01*
X-237488Y2543410D01*
X-237484Y2543409D01*
X-237483Y2543409D01*
X-177873Y2537000D01*
X-177863Y2537000D01*
X527870Y2537000D01*
X527876Y2537001D01*
X587483Y2543408D01*
X631667Y2559888D01*
X701358Y2564872D01*
X718331Y2559888D01*
X762511Y2543410D01*
X762515Y2543409D01*
X762517Y2543409D01*
X822127Y2537000D01*
X822135Y2537000D01*
X822136Y2537000D01*
X1527870Y2537000D01*
X1527876Y2537001D01*
X1587483Y2543408D01*
X1631667Y2559888D01*
X1701358Y2564872D01*
X1718331Y2559888D01*
X1762511Y2543410D01*
X1762515Y2543409D01*
X1762517Y2543409D01*
X1822127Y2537000D01*
X1822135Y2537000D01*
X1822136Y2537000D01*
X2527870Y2537000D01*
X2527876Y2537001D01*
X2587483Y2543408D01*
X2631667Y2559888D01*
X2701358Y2564872D01*
X2718331Y2559888D01*
X2762511Y2543410D01*
X2762515Y2543409D01*
X2762517Y2543409D01*
X2822127Y2537000D01*
X2822135Y2537000D01*
X2822136Y2537000D01*
X3527870Y2537000D01*
X3527876Y2537001D01*
X3587483Y2543408D01*
X3631667Y2559888D01*
X3701358Y2564872D01*
X3718331Y2559888D01*
X3762511Y2543410D01*
X3762515Y2543409D01*
X3762517Y2543409D01*
X3822127Y2537000D01*
X3822135Y2537000D01*
X3822136Y2537000D01*
X4527870Y2537000D01*
X4527876Y2537001D01*
X4587483Y2543408D01*
X4631667Y2559888D01*
X4701358Y2564872D01*
X4718331Y2559888D01*
X4762511Y2543410D01*
X4762515Y2543409D01*
X4762517Y2543409D01*
X4822127Y2537000D01*
X4822135Y2537000D01*
X4822136Y2537000D01*
X5527870Y2537000D01*
X5527876Y2537001D01*
X5587483Y2543408D01*
X5631667Y2559888D01*
X5701358Y2564872D01*
X5718331Y2559888D01*
X5762514Y2543409D01*
X5762516Y2543408D01*
X5822116Y2537001D01*
X5822119Y2537000D01*
X5822127Y2537000D01*
X6163303Y2537000D01*
X6230342Y2517315D01*
X6276097Y2464511D01*
X6286623Y2400041D01*
X6269540Y2237500D01*
X6289326Y2049244D01*
X6289326Y2049241D01*
X6289327Y2049240D01*
X6347818Y1869222D01*
X6347821Y1869215D01*
X6442466Y1705285D01*
X6569129Y1564611D01*
X6722265Y1453351D01*
X6722270Y1453348D01*
X6895192Y1376357D01*
X6895197Y1376355D01*
X7047897Y1343898D01*
X7080354Y1337000D01*
X7080355Y1337000D01*
X7269645Y1337000D01*
X7269646Y1337000D01*
X7309001Y1345365D01*
X7454802Y1376355D01*
X7454807Y1376357D01*
X7627729Y1453348D01*
X7627734Y1453351D01*
X7780870Y1564611D01*
X7780871Y1564612D01*
X7907533Y1705284D01*
X8002179Y1869216D01*
X8060674Y2049244D01*
X8077179Y2206289D01*
X8089020Y2235070D01*
X8081523Y2246737D01*
X8077180Y2268703D01*
X8060674Y2425756D01*
X8002179Y2605784D01*
X7940855Y2712000D01*
X7924383Y2779897D01*
X7932059Y2817325D01*
X7974091Y2930017D01*
X7980500Y2989627D01*
X7980499Y3385642D01*
X8000183Y3452680D01*
X8052987Y3498435D01*
X8122146Y3508379D01*
X8177383Y3485960D01*
X8222266Y3453351D01*
X8222267Y3453350D01*
X8307595Y3415359D01*
X8360831Y3370108D01*
X8381152Y3303259D01*
X8373340Y3258747D01*
X8330908Y3144982D01*
X8330622Y3142317D01*
X8324501Y3085376D01*
X8324500Y3085364D01*
X8324500Y2281672D01*
X8311506Y2237420D01*
X8322477Y2215634D01*
X8324500Y2193327D01*
X8324500Y-610370D01*
X8324501Y-610376D01*
X8330908Y-669983D01*
X8381202Y-804828D01*
X8381206Y-804835D01*
X8467452Y-920044D01*
X8467455Y-920047D01*
X8582664Y-1006293D01*
X8582671Y-1006297D01*
X8717517Y-1056591D01*
X8717516Y-1056591D01*
X8724444Y-1057335D01*
X8777127Y-1063000D01*
X11552872Y-1062999D01*
X11612483Y-1056591D01*
X11747331Y-1006296D01*
X11862546Y-920046D01*
X11948796Y-804831D01*
X11999091Y-669983D01*
X12005500Y-610373D01*
X12005499Y3085372D01*
X11999091Y3144983D01*
X11948796Y3279831D01*
X11862546Y3395046D01*
X11747331Y3481296D01*
X11612483Y3531591D01*
X11552873Y3538000D01*
X9525724Y3537999D01*
X9458686Y3557684D01*
X9412931Y3610487D01*
X9402987Y3679646D01*
X9418338Y3723999D01*
X9420671Y3728040D01*
X9502179Y3869216D01*
X9560674Y4049244D01*
X9580460Y4237500D01*
X9560674Y4425756D01*
X9502179Y4605784D01*
X9442112Y4709821D01*
X9425500Y4771821D01*
X9425500Y6092324D01*
X9425493Y6092453D01*
X9425494Y6108702D01*
X9400243Y6300538D01*
X9350167Y6487436D01*
X9276124Y6666199D01*
X9179381Y6833767D01*
X9176126Y6838007D01*
X9150931Y6903173D01*
X9150500Y6913497D01*
X9150500Y7069113D01*
X9146748Y7110401D01*
X9144086Y7139696D01*
X9093478Y7302106D01*
X9005472Y7447685D01*
X8885185Y7567972D01*
X8739606Y7655978D01*
X8577196Y7706586D01*
X8506616Y7713000D01*
X7993384Y7713000D01*
X7922804Y7706586D01*
X7760394Y7655978D01*
X7614815Y7567972D01*
X7614813Y7567970D01*
X7614811Y7567969D01*
X7562181Y7515339D01*
X7500858Y7481854D01*
X7431166Y7486838D01*
X7375233Y7528710D01*
X7350816Y7594174D01*
X7350500Y7603020D01*
X7350500Y10065677D01*
X7367113Y10127677D01*
X7427178Y10231714D01*
X7427179Y10231716D01*
X7485674Y10411744D01*
X7505460Y10600000D01*
X7485674Y10788256D01*
X7427179Y10968284D01*
X7342112Y11115623D01*
X7325500Y11177622D01*
X7325500Y12387380D01*
X7325501Y12387385D01*
X7325500Y12417759D01*
X7325507Y12417784D01*
X7325507Y12469130D01*
X7325508Y12469130D01*
X7325507Y12595143D01*
X7322352Y12623139D01*
X7297287Y12845574D01*
X7297286Y12845584D01*
X7241203Y13091291D01*
X7157962Y13329173D01*
X7048611Y13556240D01*
X6914524Y13769637D01*
X6757388Y13966678D01*
X6668283Y14055783D01*
X6610481Y14113585D01*
X6610478Y14113586D01*
X6605364Y14118701D01*
X6605268Y14118785D01*
X6579173Y14144882D01*
X6382132Y14302017D01*
X6168736Y14436104D01*
X5941670Y14545454D01*
X5703788Y14628695D01*
X5703781Y14628696D01*
X5703781Y14628697D01*
X5597918Y14652860D01*
X5458082Y14684778D01*
X5403071Y14690976D01*
X5207646Y14712999D01*
X5207642Y14712999D01*
X5167517Y14712999D01*
X5167509Y14713000D01*
X5153075Y14713000D01*
X5081630Y14713000D01*
X4999885Y14713001D01*
X4999881Y14713000D01*
X834794Y14713000D01*
X834757Y14713001D01*
X827997Y14713000D01*
X827993Y14713002D01*
X746249Y14713000D01*
X671422Y14713000D01*
X666907Y14712766D01*
X658596Y14712727D01*
X653873Y14712949D01*
X650198Y14712897D01*
X650196Y14712898D01*
X579938Y14711913D01*
X579938Y14711916D01*
X579921Y14711912D01*
X568458Y14711753D01*
X486722Y14710609D01*
X486714Y14710607D01*
X479806Y14709731D01*
X479763Y14710064D01*
X467781Y14708344D01*
X449164Y14707474D01*
X417754Y14704973D01*
X407355Y14704998D01*
X407358Y14704787D01*
X401266Y14704702D01*
X365774Y14700702D01*
X330278Y14696703D01*
X249047Y14687552D01*
X249043Y14687550D01*
X240031Y14686535D01*
X240013Y14686532D01*
X175975Y14679317D01*
X175972Y14679316D01*
X174861Y14679191D01*
X170860Y14678462D01*
X40794Y14658861D01*
X-72829Y14637363D01*
X-82006Y14635980D01*
X-83545Y14635806D01*
X-83557Y14635806D01*
X-105033Y14630904D01*
X-105043Y14630904D01*
X-163252Y14617615D01*
X-163252Y14617616D01*
X-190314Y14611438D01*
X-190314Y14611439D01*
X-190319Y14611436D01*
X-242929Y14599431D01*
X-242936Y14599427D01*
X-244382Y14598922D01*
X-253246Y14596186D01*
X-364968Y14566251D01*
X-475477Y14532161D01*
X-484442Y14529761D01*
X-485922Y14529422D01*
X-485936Y14529421D01*
X-563093Y14502422D01*
X-640250Y14475424D01*
X-640259Y14475417D01*
X-641622Y14474762D01*
X-650138Y14471044D01*
X-757790Y14428796D01*
X-863770Y14382555D01*
X-872420Y14379162D01*
X-873862Y14378656D01*
X-873873Y14378654D01*
X-947522Y14343187D01*
X-947521Y14343186D01*
X-947523Y14343186D01*
X-1021172Y14307720D01*
X-1021179Y14307714D01*
X-1022484Y14306895D01*
X-1030516Y14302256D01*
X-1132754Y14248223D01*
X-1232897Y14190405D01*
X-1241106Y14186067D01*
X-1242502Y14185394D01*
X-1242506Y14185393D01*
X-1283508Y14159628D01*
X-1311712Y14141907D01*
X-1380927Y14098417D01*
X-1380929Y14098414D01*
X-1382127Y14097460D01*
X-1389601Y14091941D01*
X-1485149Y14026799D01*
X-1591060Y13948631D01*
X-1594307Y13946387D01*
X-1595207Y13945668D01*
X-1595209Y13945668D01*
X-1644153Y13906636D01*
X-1644157Y13906634D01*
X-1652690Y13899828D01*
X-1652692Y13899828D01*
X-1653217Y13899409D01*
X-1681877Y13876553D01*
X-1681881Y13876550D01*
X-1718375Y13847448D01*
X-1718423Y13847409D01*
X-1774380Y13802830D01*
X-1775485Y13801720D01*
X-1775927Y13800944D01*
X-1776895Y13800004D01*
X-1777042Y13800155D01*
X-1784298Y13792862D01*
X-1808283Y13772417D01*
X-1822096Y13759837D01*
X-1831766Y13752598D01*
X-1831559Y13752331D01*
X-1837057Y13748069D01*
X-1837068Y13748063D01*
X-1879104Y13707187D01*
X-1940886Y13674564D01*
X-2003869Y13678157D01*
X-2008757Y13679746D01*
X-2218713Y13713000D01*
X-2431287Y13713000D01*
X-2641243Y13679746D01*
X-2644437Y13678707D01*
X-2645718Y13678671D01*
X-2645978Y13678609D01*
X-2645991Y13678663D01*
X-2714277Y13676708D01*
X-2770443Y13708955D01*
X-5771829Y16710341D01*
X-5911205Y16849717D01*
X-6006854Y16934455D01*
X-6313253Y17205901D01*
X-6313254Y17205902D01*
X-6736057Y17537145D01*
X-6736063Y17537150D01*
X-7178107Y17842271D01*
X-7637767Y18120146D01*
X-8113367Y18369759D01*
X-8603170Y18590202D01*
X-8603177Y18590204D01*
X-8603180Y18590206D01*
X-8811286Y18669130D01*
X-9105389Y18780669D01*
X-9298231Y18840761D01*
X-9618176Y18940461D01*
X-9618192Y18940465D01*
X-9965019Y19025950D01*
X-10139708Y19069007D01*
X-10668034Y19165826D01*
X-11094599Y19217620D01*
X-11201240Y19230569D01*
X-11264079Y19234370D01*
X-11737385Y19263000D01*
X-11934492Y19263000D01*
X-18372406Y19263000D01*
X-18386840Y19263000D01*
X-18386848Y19262999D01*
X-18472873Y19262999D01*
X-18815061Y19229297D01*
X-19152298Y19162216D01*
X-19481335Y19062404D01*
X-19799005Y18930820D01*
X-19940850Y18855002D01*
X-20009249Y18840761D01*
X-20074493Y18865761D01*
X-20115864Y18922065D01*
X-20117675Y18927442D01*
X-20156522Y19052106D01*
X-20244528Y19197685D01*
X-20244530Y19197688D01*
X-20364811Y19317969D01*
X-20364813Y19317970D01*
X-20364815Y19317972D01*
X-20510394Y19405978D01*
X-20672804Y19456586D01*
X-20743384Y19463000D01*
X-21406616Y19463000D01*
X-21477196Y19456586D01*
X-21639606Y19405978D01*
X-21760853Y19332680D01*
X-21828404Y19314846D01*
X-21889145Y19332680D01*
X-22010394Y19405978D01*
X-22042211Y19415892D01*
X-22074210Y19431174D01*
X-22101086Y19449132D01*
X-22101088Y19449132D01*
X-22101092Y19449135D01*
X-22283160Y19524549D01*
X-22283165Y19524551D01*
X-22283170Y19524552D01*
X-22476457Y19563000D01*
X-22476459Y19563000D01*
X-23976459Y19563000D01*
X-25445500Y19563000D01*
X-25512539Y19582685D01*
X-25558294Y19635489D01*
X-25569500Y19687000D01*
X-25569500Y19863500D01*
X-25549815Y19930539D01*
X-25497011Y19976294D01*
X-25445500Y19987500D01*
X25795500Y19987500D01*
X25862539Y19967815D01*
G37*
%TD.AperFunction*%
%TD*%
%TA.AperFunction,Conductor*%
%TO.N,OUT2-2*%
G36*
X-27882460Y-12537685D02*
G01*
X-27836705Y-12590489D01*
X-27825499Y-12642000D01*
X-27825499Y-13760372D01*
X-27819091Y-13819983D01*
X-27778645Y-13928422D01*
X-27773662Y-13998111D01*
X-27780269Y-14019210D01*
X-27785044Y-14030738D01*
X-27788155Y-14054370D01*
X-27791314Y-14070251D01*
X-27794855Y-14083466D01*
X-27802097Y-14138477D01*
X-27825500Y-14316240D01*
X-27825500Y-14946456D01*
X-27802882Y-15060158D01*
X-27800499Y-15084351D01*
X-27800499Y-15601863D01*
X-27785046Y-15719253D01*
X-27785044Y-15719257D01*
X-27785044Y-15719262D01*
X-27724536Y-15865341D01*
X-27628282Y-15990782D01*
X-27502841Y-16087036D01*
X-27356762Y-16147544D01*
X-27239361Y-16163000D01*
X-26960640Y-16162999D01*
X-26960636Y-16162999D01*
X-26843246Y-16147546D01*
X-26843242Y-16147544D01*
X-26843238Y-16147544D01*
X-26697159Y-16087036D01*
X-26697157Y-16087034D01*
X-26696953Y-16086950D01*
X-26627484Y-16079481D01*
X-26565004Y-16110756D01*
X-26529352Y-16170845D01*
X-26525500Y-16201511D01*
X-26525500Y-16835626D01*
X-26545185Y-16902665D01*
X-26561819Y-16923307D01*
X-26597967Y-16959455D01*
X-26597970Y-16959459D01*
X-26686998Y-17103794D01*
X-26686999Y-17103797D01*
X-26687003Y-17103803D01*
X-26740349Y-17264792D01*
X-26750500Y-17364155D01*
X-26750499Y-17960844D01*
X-26740349Y-18060208D01*
X-26687003Y-18221197D01*
X-26597968Y-18365544D01*
X-26478044Y-18485468D01*
X-26333697Y-18574503D01*
X-26207234Y-18616408D01*
X-26166281Y-18629979D01*
X-26166692Y-18631219D01*
X-26111615Y-18661053D01*
X-26077924Y-18722263D01*
X-26075000Y-18749030D01*
X-26075000Y-19888500D01*
X-26094685Y-19955539D01*
X-26147489Y-20001294D01*
X-26199000Y-20012500D01*
X-35301691Y-20012500D01*
X-35519892Y-20014880D01*
X-35519893Y-20014880D01*
X-35954634Y-20052915D01*
X-35954638Y-20052915D01*
X-36384394Y-20128693D01*
X-36384398Y-20128693D01*
X-36384404Y-20128695D01*
X-36384411Y-20128697D01*
X-36805924Y-20241640D01*
X-36805934Y-20241643D01*
X-36805935Y-20241644D01*
X-37216018Y-20390902D01*
X-37216025Y-20390905D01*
X-37216027Y-20390906D01*
X-37611523Y-20575328D01*
X-37611538Y-20575336D01*
X-37877182Y-20728706D01*
X-37989467Y-20793534D01*
X-37989473Y-20793538D01*
X-37989484Y-20793545D01*
X-38346947Y-21043843D01*
X-38681244Y-21324352D01*
X-38681256Y-21324363D01*
X-38837242Y-21476984D01*
X-41221612Y-23861354D01*
X-41282935Y-23894839D01*
X-41352627Y-23889855D01*
X-41408560Y-23847983D01*
X-41430510Y-23799798D01*
X-41473566Y-23600018D01*
X-41473567Y-23600015D01*
X-41612893Y-23145065D01*
X-41612898Y-23145051D01*
X-41790298Y-22703577D01*
X-41790302Y-22703566D01*
X-42004507Y-22278718D01*
X-42004517Y-22278698D01*
X-42253991Y-21873528D01*
X-42528225Y-21502739D01*
X-42552262Y-21437135D01*
X-42537015Y-21368949D01*
X-42502838Y-21329737D01*
X-42493914Y-21323057D01*
X-42493913Y-21323056D01*
X-42493903Y-21323047D01*
X-37918062Y-16747205D01*
X-37918054Y-16747196D01*
X-37882001Y-16699496D01*
X-37834098Y-16636120D01*
X-37801122Y-16577037D01*
X-37777510Y-16516319D01*
X-37772757Y-16505622D01*
X-37735811Y-16432057D01*
X-37721140Y-16409396D01*
X-37719676Y-16407599D01*
X-37711222Y-16398238D01*
X-36625199Y-15312214D01*
X-36615826Y-15303750D01*
X-36614031Y-15302288D01*
X-36591374Y-15287623D01*
X-36517825Y-15250685D01*
X-36507115Y-15245926D01*
X-36446403Y-15222317D01*
X-36446397Y-15222314D01*
X-36446395Y-15222313D01*
X-36387313Y-15189337D01*
X-36361587Y-15169892D01*
X-36276238Y-15105381D01*
X-36276228Y-15105372D01*
X-33725176Y-12554319D01*
X-33663853Y-12520834D01*
X-33637495Y-12518000D01*
X-27949499Y-12518000D01*
X-27882460Y-12537685D01*
G37*
%TD.AperFunction*%
%TD*%
%TA.AperFunction,Conductor*%
%TO.N,OUT2-3*%
G36*
X29804309Y-4207185D02*
G01*
X29824951Y-4223819D01*
X30820427Y-5219295D01*
X30820475Y-5219348D01*
X30865365Y-5264234D01*
X30865380Y-5264248D01*
X30874810Y-5273678D01*
X30885498Y-5285863D01*
X30898872Y-5303291D01*
X30924069Y-5368456D01*
X30924500Y-5378782D01*
X30924500Y-6603201D01*
X30927401Y-6640067D01*
X30927402Y-6640073D01*
X30969576Y-6785233D01*
X30974500Y-6819828D01*
X30974500Y-7503226D01*
X30974503Y-7503291D01*
X30974503Y-7534314D01*
X31003407Y-7753876D01*
X31003410Y-7753889D01*
X31060724Y-7967794D01*
X31060727Y-7967804D01*
X31110794Y-8088675D01*
X31145473Y-8172398D01*
X31166453Y-8208737D01*
X31256203Y-8364191D01*
X31391019Y-8539885D01*
X31409193Y-8558059D01*
X31409220Y-8558089D01*
X31432993Y-8581861D01*
X31432996Y-8581867D01*
X31469314Y-8618185D01*
X31469314Y-8618186D01*
X31513737Y-8662609D01*
X31547614Y-8696486D01*
X31723309Y-8831301D01*
X31915096Y-8942029D01*
X31915111Y-8942036D01*
X32119687Y-9026773D01*
X32119693Y-9026774D01*
X32119703Y-9026779D01*
X32279371Y-9069561D01*
X32333613Y-9084095D01*
X32333615Y-9084095D01*
X32333618Y-9084096D01*
X32553184Y-9113001D01*
X32663914Y-9113000D01*
X32675000Y-9113000D01*
X32748918Y-9113000D01*
X32754992Y-9113000D01*
X32755092Y-9112995D01*
X32787477Y-9112995D01*
X32787484Y-9112995D01*
X33010527Y-9083631D01*
X33227829Y-9025406D01*
X33227842Y-9025400D01*
X33227844Y-9025400D01*
X33435662Y-8939320D01*
X33435660Y-8939320D01*
X33435672Y-8939316D01*
X33630501Y-8826833D01*
X33808981Y-8689883D01*
X33829178Y-8669686D01*
X33829190Y-8669675D01*
X33836255Y-8662610D01*
X33836257Y-8662609D01*
X33895528Y-8603337D01*
X33944298Y-8554570D01*
X33944298Y-8554567D01*
X33953194Y-8545673D01*
X33953202Y-8545662D01*
X34307951Y-8190917D01*
X34307952Y-8190914D01*
X34313788Y-8185079D01*
X34313801Y-8185063D01*
X34358848Y-8140018D01*
X34543960Y-7914457D01*
X34706071Y-7671838D01*
X34843620Y-7414498D01*
X34955283Y-7144914D01*
X35039983Y-6865683D01*
X35096906Y-6579495D01*
X35125502Y-6289105D01*
X35125500Y-6143208D01*
X35125500Y-4311500D01*
X35145185Y-4244461D01*
X35197989Y-4198706D01*
X35249500Y-4187500D01*
X36140575Y-4187500D01*
X36207614Y-4207185D01*
X36253369Y-4259989D01*
X36262319Y-4287955D01*
X36327230Y-4623589D01*
X36542206Y-5527478D01*
X36795360Y-6421460D01*
X37086209Y-7303837D01*
X37086214Y-7303852D01*
X37086216Y-7303856D01*
X37414264Y-8173126D01*
X37429455Y-8208727D01*
X37778905Y-9027682D01*
X38179497Y-9866013D01*
X38433565Y-10344388D01*
X38615299Y-10686569D01*
X39085536Y-11487895D01*
X39589358Y-12268542D01*
X40125858Y-13027102D01*
X40694069Y-13762209D01*
X41292967Y-14472538D01*
X41921472Y-15156810D01*
X41921480Y-15156818D01*
X42248280Y-15487057D01*
X46094033Y-19332809D01*
X46127518Y-19394132D01*
X46122534Y-19463824D01*
X46080662Y-19519757D01*
X46037597Y-19540489D01*
X45606812Y-19652657D01*
X45158168Y-19811173D01*
X44724613Y-20007152D01*
X44724591Y-20007163D01*
X44309218Y-20239205D01*
X44309199Y-20239217D01*
X43914992Y-20505653D01*
X43914991Y-20505654D01*
X43544804Y-20804559D01*
X43544793Y-20804569D01*
X43374837Y-20967457D01*
X43312816Y-20999633D01*
X43243246Y-20993169D01*
X43201356Y-20965615D01*
X38294505Y-16058764D01*
X38271702Y-16027379D01*
X38207639Y-15901647D01*
X38181825Y-15850983D01*
X38150587Y-15807988D01*
X38056877Y-15679007D01*
X37694432Y-15316562D01*
X37522457Y-15191615D01*
X37346058Y-15101735D01*
X37314673Y-15078932D01*
X34248241Y-12012500D01*
X28299500Y-12012500D01*
X28232461Y-11992815D01*
X28186706Y-11940011D01*
X28175500Y-11888500D01*
X28175499Y-8764629D01*
X28175498Y-8764623D01*
X28169091Y-8705016D01*
X28128646Y-8596578D01*
X28123662Y-8526886D01*
X28130264Y-8505799D01*
X28135044Y-8494262D01*
X28138147Y-8470682D01*
X28141312Y-8454776D01*
X28144865Y-8441514D01*
X28144866Y-8441512D01*
X28175504Y-8208736D01*
X28175500Y-8091345D01*
X28175500Y-8088675D01*
X28175500Y-7578545D01*
X28175500Y-7578542D01*
X28152882Y-7464839D01*
X28150499Y-7440647D01*
X28150499Y-6923136D01*
X28135046Y-6805746D01*
X28135044Y-6805741D01*
X28135044Y-6805738D01*
X28074536Y-6659659D01*
X27978282Y-6534218D01*
X27852841Y-6437964D01*
X27758527Y-6398898D01*
X27706762Y-6377456D01*
X27706760Y-6377455D01*
X27589361Y-6362000D01*
X27310636Y-6362000D01*
X27193246Y-6377453D01*
X27193234Y-6377457D01*
X27046952Y-6438049D01*
X26977483Y-6445518D01*
X26915004Y-6414243D01*
X26879352Y-6354154D01*
X26875500Y-6323488D01*
X26875500Y-5689374D01*
X26895185Y-5622335D01*
X26911819Y-5601693D01*
X26947968Y-5565544D01*
X27037003Y-5421197D01*
X27090349Y-5260208D01*
X27100500Y-5160845D01*
X27100499Y-5124138D01*
X27120182Y-5057101D01*
X27172985Y-5011345D01*
X27242143Y-5001400D01*
X27276974Y-5012441D01*
X27277079Y-5012190D01*
X27280008Y-5013403D01*
X27280787Y-5013650D01*
X27281580Y-5014054D01*
X27281585Y-5014055D01*
X27281588Y-5014057D01*
X27483757Y-5079746D01*
X27693713Y-5113000D01*
X27693714Y-5113000D01*
X28156286Y-5113000D01*
X28156287Y-5113000D01*
X28366243Y-5079746D01*
X28568412Y-5014057D01*
X28757816Y-4917551D01*
X28779789Y-4901586D01*
X28929786Y-4792609D01*
X28929788Y-4792606D01*
X28929792Y-4792604D01*
X29080104Y-4642292D01*
X29080106Y-4642288D01*
X29080109Y-4642286D01*
X29205048Y-4470320D01*
X29205047Y-4470320D01*
X29205051Y-4470316D01*
X29301557Y-4280912D01*
X29304068Y-4273183D01*
X29343503Y-4215508D01*
X29407861Y-4188309D01*
X29421999Y-4187500D01*
X29737270Y-4187500D01*
X29804309Y-4207185D01*
G37*
%TD.AperFunction*%
%TD*%
%TA.AperFunction,Conductor*%
%TO.N,OUT2-1*%
G36*
X-42893246Y20968169D02*
G01*
X-42851356Y20940615D01*
X-37944505Y16033764D01*
X-37921702Y16002379D01*
X-37911462Y15982281D01*
X-37837517Y15837154D01*
X-37831824Y15825982D01*
X-37706877Y15654007D01*
X-37344432Y15291562D01*
X-37297468Y15257441D01*
X-37172457Y15166615D01*
X-36996059Y15076736D01*
X-36964673Y15053932D01*
X-33898241Y11987500D01*
X-27949500Y11987500D01*
X-27882461Y11967815D01*
X-27836706Y11915011D01*
X-27825500Y11863500D01*
X-27825499Y8739629D01*
X-27825498Y8739623D01*
X-27819091Y8680016D01*
X-27778646Y8571579D01*
X-27773662Y8501888D01*
X-27780266Y8480795D01*
X-27785044Y8469262D01*
X-27785044Y8469260D01*
X-27788154Y8445637D01*
X-27791318Y8429727D01*
X-27794854Y8416535D01*
X-27825500Y8183761D01*
X-27825500Y8066369D01*
X-27825501Y7984625D01*
X-27825500Y7984621D01*
X-27825500Y7553542D01*
X-27802882Y7439839D01*
X-27800499Y7415647D01*
X-27800499Y6898136D01*
X-27785046Y6780746D01*
X-27785044Y6780741D01*
X-27785044Y6780738D01*
X-27724536Y6634659D01*
X-27628282Y6509218D01*
X-27502841Y6412964D01*
X-27502839Y6412963D01*
X-27356762Y6352456D01*
X-27356760Y6352455D01*
X-27239361Y6337000D01*
X-26960636Y6337000D01*
X-26843246Y6352453D01*
X-26843234Y6352457D01*
X-26696952Y6413049D01*
X-26627483Y6420518D01*
X-26565004Y6389243D01*
X-26529352Y6329154D01*
X-26525500Y6298488D01*
X-26525500Y5664374D01*
X-26545185Y5597335D01*
X-26561819Y5576693D01*
X-26597968Y5540544D01*
X-26687003Y5396197D01*
X-26740349Y5235208D01*
X-26750500Y5135845D01*
X-26750499Y4539156D01*
X-26740349Y4439792D01*
X-26687003Y4278803D01*
X-26686999Y4278797D01*
X-26686998Y4278794D01*
X-26597970Y4134459D01*
X-26597967Y4134455D01*
X-26478044Y4014532D01*
X-26478040Y4014529D01*
X-26333705Y3925501D01*
X-26333699Y3925498D01*
X-26333697Y3925497D01*
X-26333694Y3925496D01*
X-26166281Y3870021D01*
X-26166691Y3868783D01*
X-26111602Y3838933D01*
X-26077919Y3777718D01*
X-26075000Y3750969D01*
X-26075000Y111500D01*
X-26094685Y44461D01*
X-26147489Y-1294D01*
X-26199000Y-12500D01*
X-35364591Y-12500D01*
X-35431630Y7185D01*
X-35477385Y59989D01*
X-35488563Y108868D01*
X-35505706Y916391D01*
X-35564835Y1843641D01*
X-35663258Y2767497D01*
X-35800809Y3686388D01*
X-35977230Y4598592D01*
X-36192205Y5502478D01*
X-36445359Y6396460D01*
X-36736208Y7278836D01*
X-37064266Y8148134D01*
X-37428909Y9002690D01*
X-37829492Y9841003D01*
X-38265299Y10661570D01*
X-38735532Y11462890D01*
X-39061406Y11967815D01*
X-39239357Y12243541D01*
X-39775857Y13002101D01*
X-40344068Y13737208D01*
X-40344073Y13737215D01*
X-40942952Y14447522D01*
X-40942958Y14447528D01*
X-40942966Y14447538D01*
X-41571471Y15131809D01*
X-41611063Y15171817D01*
X-41898279Y15462056D01*
X-45744033Y19307809D01*
X-45777518Y19369132D01*
X-45772534Y19438824D01*
X-45730662Y19494757D01*
X-45687597Y19515489D01*
X-45256812Y19627657D01*
X-44808168Y19786173D01*
X-44374613Y19982152D01*
X-44374591Y19982163D01*
X-43959218Y20214205D01*
X-43959199Y20214217D01*
X-43564992Y20480653D01*
X-43564991Y20480654D01*
X-43194804Y20779559D01*
X-43194793Y20779569D01*
X-43024837Y20942457D01*
X-42962816Y20974633D01*
X-42893246Y20968169D01*
G37*
%TD.AperFunction*%
%TD*%
M02*
