%TF.GenerationSoftware,KiCad,Pcbnew,8.0.1*%
%TF.CreationDate,2024-11-17T11:13:03+09:00*%
%TF.ProjectId,MD-20240410,4d442d32-3032-4343-9034-31302e6b6963,rev?*%
%TF.SameCoordinates,Original*%
%TF.FileFunction,Soldermask,Top*%
%TF.FilePolarity,Negative*%
%FSLAX46Y46*%
G04 Gerber Fmt 4.6, Leading zero omitted, Abs format (unit mm)*
G04 Created by KiCad (PCBNEW 8.0.1) date 2024-11-17 11:13:03*
%MOMM*%
%LPD*%
G01*
G04 APERTURE LIST*
G04 Aperture macros list*
%AMRoundRect*
0 Rectangle with rounded corners*
0 $1 Rounding radius*
0 $2 $3 $4 $5 $6 $7 $8 $9 X,Y pos of 4 corners*
0 Add a 4 corners polygon primitive as box body*
4,1,4,$2,$3,$4,$5,$6,$7,$8,$9,$2,$3,0*
0 Add four circle primitives for the rounded corners*
1,1,$1+$1,$2,$3*
1,1,$1+$1,$4,$5*
1,1,$1+$1,$6,$7*
1,1,$1+$1,$8,$9*
0 Add four rect primitives between the rounded corners*
20,1,$1+$1,$2,$3,$4,$5,0*
20,1,$1+$1,$4,$5,$6,$7,0*
20,1,$1+$1,$6,$7,$8,$9,0*
20,1,$1+$1,$8,$9,$2,$3,0*%
%AMHorizOval*
0 Thick line with rounded ends*
0 $1 width*
0 $2 $3 position (X,Y) of the first rounded end (center of the circle)*
0 $4 $5 position (X,Y) of the second rounded end (center of the circle)*
0 Add line between two ends*
20,1,$1,$2,$3,$4,$5,0*
0 Add two circle primitives to create the rounded ends*
1,1,$1,$2,$3*
1,1,$1,$4,$5*%
G04 Aperture macros list end*
%ADD10RoundRect,0.200000X-0.275000X0.200000X-0.275000X-0.200000X0.275000X-0.200000X0.275000X0.200000X0*%
%ADD11RoundRect,0.250000X0.954594X0.106066X0.106066X0.954594X-0.954594X-0.106066X-0.106066X-0.954594X0*%
%ADD12HorizOval,1.700000X0.106066X0.106066X-0.106066X-0.106066X0*%
%ADD13RoundRect,0.225000X0.225000X0.250000X-0.225000X0.250000X-0.225000X-0.250000X0.225000X-0.250000X0*%
%ADD14R,0.450000X1.050000*%
%ADD15R,5.000000X3.400000*%
%ADD16RoundRect,0.200000X0.275000X-0.200000X0.275000X0.200000X-0.275000X0.200000X-0.275000X-0.200000X0*%
%ADD17RoundRect,0.250000X-0.954594X-0.106066X-0.106066X-0.954594X0.954594X0.106066X0.106066X0.954594X0*%
%ADD18HorizOval,1.700000X-0.106066X-0.106066X0.106066X0.106066X0*%
%ADD19RoundRect,0.225000X-0.225000X-0.250000X0.225000X-0.250000X0.225000X0.250000X-0.225000X0.250000X0*%
%ADD20R,0.610000X2.000000*%
%ADD21R,2.680000X3.600000*%
%ADD22C,4.000000*%
%ADD23R,1.700000X5.000000*%
%ADD24O,1.700000X5.000000*%
%ADD25RoundRect,0.250000X0.106066X-0.954594X0.954594X-0.106066X-0.106066X0.954594X-0.954594X0.106066X0*%
%ADD26HorizOval,1.700000X-0.106066X0.106066X0.106066X-0.106066X0*%
%ADD27RoundRect,0.250000X-0.106066X0.954594X-0.954594X0.106066X0.106066X-0.954594X0.954594X-0.106066X0*%
%ADD28RoundRect,0.150000X0.587500X0.150000X-0.587500X0.150000X-0.587500X-0.150000X0.587500X-0.150000X0*%
%ADD29RoundRect,0.250000X-0.725000X0.600000X-0.725000X-0.600000X0.725000X-0.600000X0.725000X0.600000X0*%
%ADD30O,1.950000X1.700000*%
G04 APERTURE END LIST*
D10*
%TO.C,R16*%
X24250001Y5575000D03*
X24250001Y3925000D03*
%TD*%
%TO.C,R13*%
X21250001Y-16925000D03*
X21250001Y-18575000D03*
%TD*%
D11*
%TO.C,J4*%
X-36745706Y-16440232D03*
D12*
X-38513472Y-14672466D03*
%TD*%
D10*
%TO.C,R23*%
X16325001Y-100000D03*
X16325001Y-1750000D03*
%TD*%
D13*
%TO.C,C4*%
X8275001Y-16000000D03*
X6725001Y-16000000D03*
%TD*%
D14*
%TO.C,U2*%
X-22724999Y-9225000D03*
X-23374999Y-9225000D03*
X-24024999Y-9225000D03*
X-24674999Y-9225000D03*
X-25324999Y-9225000D03*
X-25974999Y-9225000D03*
X-26624999Y-9225000D03*
X-27274999Y-9225000D03*
X-27274999Y-14775000D03*
X-26624999Y-14775000D03*
X-25974999Y-14775000D03*
X-25324999Y-14775000D03*
X-24674999Y-14775000D03*
X-24024999Y-14775000D03*
X-23374999Y-14775000D03*
X-22724999Y-14775000D03*
D15*
X-24999999Y-12000000D03*
%TD*%
D14*
%TO.C,U1*%
X-22724999Y13275000D03*
X-23374999Y13275000D03*
X-24024999Y13275000D03*
X-24674999Y13275000D03*
X-25324999Y13275000D03*
X-25974999Y13275000D03*
X-26624999Y13275000D03*
X-27274999Y13275000D03*
X-27274999Y7725000D03*
X-26624999Y7725000D03*
X-25974999Y7725000D03*
X-25324999Y7725000D03*
X-24674999Y7725000D03*
X-24024999Y7725000D03*
X-23374999Y7725000D03*
X-22724999Y7725000D03*
D15*
X-24999999Y10500000D03*
%TD*%
D13*
%TO.C,C9*%
X-21424999Y-17650000D03*
X-22974999Y-17650000D03*
%TD*%
%TO.C,C5*%
X8275001Y-14500000D03*
X6725001Y-14500000D03*
%TD*%
%TO.C,C8*%
X8275001Y-11500000D03*
X6725001Y-11500000D03*
%TD*%
%TO.C,C10*%
X-24424999Y-17650000D03*
X-25974999Y-17650000D03*
%TD*%
D10*
%TO.C,R14*%
X22750001Y-16925000D03*
X22750001Y-18575000D03*
%TD*%
%TO.C,R17*%
X21250001Y5575000D03*
X21250001Y3925000D03*
%TD*%
%TO.C,R21*%
X16325001Y-3100000D03*
X16325001Y-4750000D03*
%TD*%
D16*
%TO.C,R7*%
X-25749999Y16925000D03*
X-25749999Y18575000D03*
%TD*%
D10*
%TO.C,R12*%
X24250001Y-16925000D03*
X24250001Y-18575000D03*
%TD*%
D17*
%TO.C,J6*%
X36745708Y16440232D03*
D18*
X38513474Y14672466D03*
%TD*%
D16*
%TO.C,R8*%
X-24249999Y-5575000D03*
X-24249999Y-3925000D03*
%TD*%
D19*
%TO.C,C12*%
X24425001Y-4850000D03*
X25975001Y-4850000D03*
%TD*%
D20*
%TO.C,J8*%
X-7000000Y3800000D03*
X-6000000Y3800000D03*
X-5000000Y3800000D03*
X-4000000Y3800000D03*
X-3000000Y3800000D03*
X-2000000Y3800000D03*
X-1000000Y3800000D03*
X0Y3800000D03*
X1000000Y3800000D03*
X2000000Y3800000D03*
X3000000Y3800000D03*
X4000000Y3800000D03*
X5000000Y3800000D03*
X6000000Y3800000D03*
X7000000Y3800000D03*
D21*
X-9990000Y1000000D03*
X9990000Y1000000D03*
%TD*%
D14*
%TO.C,U3*%
X22725001Y-13275000D03*
X23375001Y-13275000D03*
X24025001Y-13275000D03*
X24675001Y-13275000D03*
X25325001Y-13275000D03*
X25975001Y-13275000D03*
X26625001Y-13275000D03*
X27275001Y-13275000D03*
X27275001Y-7725000D03*
X26625001Y-7725000D03*
X25975001Y-7725000D03*
X25325001Y-7725000D03*
X24675001Y-7725000D03*
X24025001Y-7725000D03*
X23375001Y-7725000D03*
X22725001Y-7725000D03*
D15*
X25000001Y-10500000D03*
%TD*%
D22*
%TO.C,J7*%
X-2499999Y-16000000D03*
X2500001Y-16000000D03*
%TD*%
D19*
%TO.C,C14*%
X24425001Y17650000D03*
X25975001Y17650000D03*
%TD*%
D10*
%TO.C,R18*%
X22750001Y5575000D03*
X22750001Y3925000D03*
%TD*%
%TO.C,R15*%
X25750001Y-16925000D03*
X25750001Y-18575000D03*
%TD*%
D16*
%TO.C,R10*%
X-22749999Y-5575000D03*
X-22749999Y-3925000D03*
%TD*%
D13*
%TO.C,C3*%
X8275001Y-17470000D03*
X6725001Y-17470000D03*
%TD*%
D16*
%TO.C,R4*%
X-24249999Y16925000D03*
X-24249999Y18575000D03*
%TD*%
D14*
%TO.C,U4*%
X22725001Y9225000D03*
X23375001Y9225000D03*
X24025001Y9225000D03*
X24675001Y9225000D03*
X25325001Y9225000D03*
X25975001Y9225000D03*
X26625001Y9225000D03*
X27275001Y9225000D03*
X27275001Y14775000D03*
X26625001Y14775000D03*
X25975001Y14775000D03*
X25325001Y14775000D03*
X24675001Y14775000D03*
X24025001Y14775000D03*
X23375001Y14775000D03*
X22725001Y14775000D03*
D15*
X25000001Y12000000D03*
%TD*%
D13*
%TO.C,C1*%
X-21424999Y4850000D03*
X-22974999Y4850000D03*
%TD*%
D19*
%TO.C,C11*%
X21425001Y-4850000D03*
X22975001Y-4850000D03*
%TD*%
D10*
%TO.C,R19*%
X25750001Y5575000D03*
X25750001Y3925000D03*
%TD*%
D16*
%TO.C,R11*%
X-25749999Y-5575000D03*
X-25749999Y-3925000D03*
%TD*%
D19*
%TO.C,C13*%
X21425001Y17650000D03*
X22975001Y17650000D03*
%TD*%
D16*
%TO.C,R1*%
X-5000000Y6675000D03*
X-5000000Y8325000D03*
%TD*%
%TO.C,R3*%
X-21249999Y16925000D03*
X-21249999Y18575000D03*
%TD*%
D13*
%TO.C,C2*%
X-24424999Y4850000D03*
X-25974999Y4850000D03*
%TD*%
D23*
%TO.C,J1*%
X5080001Y15000000D03*
D24*
X2540001Y15000000D03*
X1Y15000000D03*
X-2539999Y15000000D03*
X-5079999Y15000000D03*
%TD*%
D16*
%TO.C,R9*%
X-21249999Y-5575000D03*
X-21249999Y-3925000D03*
%TD*%
D25*
%TO.C,J3*%
X-38513472Y14672466D03*
D26*
X-36745706Y16440232D03*
%TD*%
D27*
%TO.C,J5*%
X38513474Y-14672466D03*
D26*
X36745708Y-16440232D03*
%TD*%
D10*
%TO.C,R22*%
X18075001Y-12350000D03*
X18075001Y-14000000D03*
%TD*%
D16*
%TO.C,R6*%
X-22749999Y16925000D03*
X-22749999Y18575000D03*
%TD*%
D13*
%TO.C,C7*%
X8275001Y-13000000D03*
X6725001Y-13000000D03*
%TD*%
D28*
%TO.C,Q2*%
X11937501Y-14125000D03*
X11937501Y-12225000D03*
X10062501Y-13175000D03*
%TD*%
%TO.C,Q1*%
X15937501Y-14125000D03*
X15937501Y-12225000D03*
X14062501Y-13175000D03*
%TD*%
D10*
%TO.C,R20*%
X19825001Y-12350000D03*
X19825001Y-14000000D03*
%TD*%
D29*
%TO.C,J2*%
X14075001Y3825000D03*
D30*
X14075001Y1325000D03*
X14075001Y-1175000D03*
X14075001Y-3675000D03*
%TD*%
M02*
