%TF.GenerationSoftware,KiCad,Pcbnew,8.0.1*%
%TF.CreationDate,2024-07-20T23:22:33+09:00*%
%TF.ProjectId,MD-20240410,4d442d32-3032-4343-9034-31302e6b6963,rev?*%
%TF.SameCoordinates,Original*%
%TF.FileFunction,Copper,L2,Bot*%
%TF.FilePolarity,Positive*%
%FSLAX46Y46*%
G04 Gerber Fmt 4.6, Leading zero omitted, Abs format (unit mm)*
G04 Created by KiCad (PCBNEW 8.0.1) date 2024-07-20 23:22:33*
%MOMM*%
%LPD*%
G01*
G04 APERTURE LIST*
G04 Aperture macros list*
%AMRoundRect*
0 Rectangle with rounded corners*
0 $1 Rounding radius*
0 $2 $3 $4 $5 $6 $7 $8 $9 X,Y pos of 4 corners*
0 Add a 4 corners polygon primitive as box body*
4,1,4,$2,$3,$4,$5,$6,$7,$8,$9,$2,$3,0*
0 Add four circle primitives for the rounded corners*
1,1,$1+$1,$2,$3*
1,1,$1+$1,$4,$5*
1,1,$1+$1,$6,$7*
1,1,$1+$1,$8,$9*
0 Add four rect primitives between the rounded corners*
20,1,$1+$1,$2,$3,$4,$5,0*
20,1,$1+$1,$4,$5,$6,$7,0*
20,1,$1+$1,$6,$7,$8,$9,0*
20,1,$1+$1,$8,$9,$2,$3,0*%
%AMHorizOval*
0 Thick line with rounded ends*
0 $1 width*
0 $2 $3 position (X,Y) of the first rounded end (center of the circle)*
0 $4 $5 position (X,Y) of the second rounded end (center of the circle)*
0 Add line between two ends*
20,1,$1,$2,$3,$4,$5,0*
0 Add two circle primitives to create the rounded ends*
1,1,$1,$2,$3*
1,1,$1,$4,$5*%
G04 Aperture macros list end*
%TA.AperFunction,ComponentPad*%
%ADD10RoundRect,0.250000X0.954594X0.106066X0.106066X0.954594X-0.954594X-0.106066X-0.106066X-0.954594X0*%
%TD*%
%TA.AperFunction,ComponentPad*%
%ADD11HorizOval,1.700000X0.106066X0.106066X-0.106066X-0.106066X0*%
%TD*%
%TA.AperFunction,ComponentPad*%
%ADD12RoundRect,0.250000X-0.954594X-0.106066X-0.106066X-0.954594X0.954594X0.106066X0.106066X0.954594X0*%
%TD*%
%TA.AperFunction,ComponentPad*%
%ADD13HorizOval,1.700000X-0.106066X-0.106066X0.106066X0.106066X0*%
%TD*%
%TA.AperFunction,ComponentPad*%
%ADD14C,3.400000*%
%TD*%
%TA.AperFunction,ComponentPad*%
%ADD15RoundRect,0.250000X0.600000X0.725000X-0.600000X0.725000X-0.600000X-0.725000X0.600000X-0.725000X0*%
%TD*%
%TA.AperFunction,ComponentPad*%
%ADD16O,1.700000X1.950000*%
%TD*%
%TA.AperFunction,ComponentPad*%
%ADD17RoundRect,0.250000X0.106066X-0.954594X0.954594X-0.106066X-0.106066X0.954594X-0.954594X0.106066X0*%
%TD*%
%TA.AperFunction,ComponentPad*%
%ADD18HorizOval,1.700000X-0.106066X0.106066X0.106066X-0.106066X0*%
%TD*%
%TA.AperFunction,ComponentPad*%
%ADD19RoundRect,0.250000X-0.106066X0.954594X-0.954594X0.106066X0.106066X-0.954594X0.954594X-0.106066X0*%
%TD*%
%TA.AperFunction,ComponentPad*%
%ADD20RoundRect,0.250000X-0.725000X0.600000X-0.725000X-0.600000X0.725000X-0.600000X0.725000X0.600000X0*%
%TD*%
%TA.AperFunction,ComponentPad*%
%ADD21O,1.950000X1.700000*%
%TD*%
%TA.AperFunction,SMDPad,CuDef*%
%ADD22RoundRect,0.243750X0.456250X-0.243750X0.456250X0.243750X-0.456250X0.243750X-0.456250X-0.243750X0*%
%TD*%
%TA.AperFunction,ViaPad*%
%ADD23C,0.800000*%
%TD*%
%TA.AperFunction,ViaPad*%
%ADD24C,0.500000*%
%TD*%
%TA.AperFunction,Conductor*%
%ADD25C,0.450000*%
%TD*%
%TA.AperFunction,Conductor*%
%ADD26C,0.500000*%
%TD*%
G04 APERTURE END LIST*
D10*
%TO.P,J4,1,Pin_1*%
%TO.N,OUT2-2*%
X-36570707Y-16515232D03*
D11*
%TO.P,J4,2,Pin_2*%
%TO.N,OUT1-2*%
X-38338473Y-14747466D03*
%TD*%
D12*
%TO.P,J6,1,Pin_1*%
%TO.N,OUT2-4*%
X36920707Y16365232D03*
D13*
%TO.P,J6,2,Pin_2*%
%TO.N,OUT1-4*%
X38688473Y14597466D03*
%TD*%
D14*
%TO.P,J7,1,Pin_1*%
%TO.N,VM*%
X-2325000Y-16075000D03*
%TO.P,J7,2,Pin_2*%
%TO.N,GND*%
X2675000Y-16075000D03*
%TD*%
D15*
%TO.P,J1,1,Pin_1*%
%TO.N,ball02k*%
X5175000Y12175000D03*
D16*
%TO.P,J1,2,Pin_2*%
%TO.N,KickerSignal-main*%
X2675000Y12175000D03*
%TO.P,J1,3,Pin_3*%
%TO.N,GND*%
X175000Y12175000D03*
%TO.P,J1,4,Pin_4*%
%TO.N,SLEEP-1*%
X-2325000Y12175000D03*
%TO.P,J1,5,Pin_5*%
%TO.N,ball01k*%
X-4825000Y12175000D03*
%TD*%
D17*
%TO.P,J3,1,Pin_1*%
%TO.N,OUT2-1*%
X-38338473Y14597466D03*
D18*
%TO.P,J3,2,Pin_2*%
%TO.N,OUT1-1*%
X-36570707Y16365232D03*
%TD*%
D19*
%TO.P,J5,1,Pin_1*%
%TO.N,OUT2-3*%
X38688473Y-14747466D03*
D18*
%TO.P,J5,2,Pin_2*%
%TO.N,OUT1-3*%
X36920707Y-16515232D03*
%TD*%
D20*
%TO.P,J2,1,Pin_1*%
%TO.N,+5V*%
X14250000Y3750000D03*
D21*
%TO.P,J2,2,Pin_2*%
%TO.N,GND*%
X14250000Y1250000D03*
%TO.P,J2,3,Pin_3*%
%TO.N,Line-MD-Main=TX_5V*%
X14250000Y-1250000D03*
%TO.P,J2,4,Pin_4*%
%TO.N,Line-MD-Main=RX_5V*%
X14250000Y-3750000D03*
%TD*%
D22*
%TO.P,D1,1,K*%
%TO.N,GND*%
X0Y1100000D03*
%TO.P,D1,2,A*%
%TO.N,Net-(D1-A)*%
X0Y2975000D03*
%TD*%
D23*
%TO.N,Line-MD-Main=RX_5V*%
X15250000Y-9000000D03*
%TO.N,Line-MD-Main=TX_5V*%
X8250000Y-1250000D03*
X10000000Y-10250000D03*
%TO.N,Line-MD-Main=RX_3.3V*%
X20000000Y-11250000D03*
%TO.N,Line-MD-Main=TX_3.3V*%
X18250000Y-11250000D03*
%TO.N,Line-MD-Main=RX_3.3V*%
X15250000Y-10250000D03*
%TO.N,Line-MD-Main=TX_3.3V*%
X11500000Y-10250000D03*
%TO.N,PH-1*%
X-6000000Y6000000D03*
%TO.N,EN-1*%
X-7000000Y5750000D03*
%TO.N,PH-3*%
X-2000000Y-4000000D03*
%TO.N,EN-3*%
X-3000000Y-5000000D03*
%TO.N,PH-2*%
X-4000000Y-5000000D03*
%TO.N,Line-MD-Main=TX_3.3V*%
X5000000Y5750000D03*
%TO.N,Line-MD-Main=RX_3.3V*%
X4000000Y6000000D03*
%TO.N,GND*%
X7000000Y2000000D03*
%TO.N,EN-4*%
X-1000000Y6000000D03*
%TO.N,PH-4*%
X0Y5750000D03*
%TO.N,EN-2*%
X-5000000Y-4000000D03*
%TO.N,GND*%
X21675000Y-10575000D03*
X-21325000Y10425000D03*
X23675000Y-18650000D03*
X21675000Y11925000D03*
X-24825000Y18500000D03*
X25175000Y-18650000D03*
X-24825000Y-4000000D03*
D24*
X-21325000Y-12075000D03*
D23*
X-23325000Y18500000D03*
X25175000Y3850000D03*
%TO.N,Net-(D1-A)*%
X8675000Y4175000D03*
%TO.N,EN-1*%
X-21300000Y13287500D03*
%TO.N,PH-1*%
X-21300000Y14537500D03*
%TO.N,EN-2*%
X-21300000Y-9212500D03*
%TO.N,PH-2*%
X-21300000Y-7962500D03*
%TO.N,PH-4*%
X21650000Y7812500D03*
%TO.N,EN-4*%
X21650000Y9062500D03*
%TO.N,EN-3*%
X21650000Y-13437500D03*
%TO.N,PH-3*%
X21650000Y-14687500D03*
%TO.N,SLEEP-1*%
X-21300000Y11787500D03*
X6600000Y10537500D03*
X-5050000Y-14212500D03*
X21700000Y10537500D03*
X-21300000Y-10462500D03*
%TD*%
D25*
%TO.N,Line-MD-Main=TX_3.3V*%
X12281250Y-11031250D02*
X12368750Y-11118750D01*
X12062500Y-10812500D02*
X12237500Y-10987500D01*
%TO.N,PH-3*%
X22160040Y-12780814D02*
X22168380Y-12789154D01*
X22168380Y-12789154D02*
X22176720Y-12797494D01*
X22474997Y-13534185D02*
X22474997Y-13538589D01*
X22474997Y-13542993D02*
X22474997Y-13547397D01*
X22474998Y-13470325D02*
X22474997Y-13487943D01*
X22125011Y-12745784D02*
X22126679Y-12747452D01*
X22474999Y-13456549D02*
X22474998Y-13466484D01*
X22151697Y-12772471D02*
X22153366Y-12774140D01*
X22129182Y-12749955D02*
X22135854Y-12756627D01*
X22475002Y-13387834D02*
X22475001Y-13405341D01*
X22474997Y-13487943D02*
X22474997Y-13505559D01*
X22185894Y-12806668D02*
X22212583Y-12833357D01*
X22475001Y-13405341D02*
X22475000Y-13422848D01*
X22474997Y-13505559D02*
X22474997Y-13523175D01*
X22120007Y-12740780D02*
X22121675Y-12742448D01*
X22474997Y-13529781D02*
X22474997Y-13534185D01*
X22142525Y-12763299D02*
X22149196Y-12769970D01*
X22123343Y-12744116D02*
X22125011Y-12745784D01*
X22474999Y-13446614D02*
X22474999Y-13456549D01*
X22153366Y-12774140D02*
X22155035Y-12775809D01*
X22135854Y-12756627D02*
X22142525Y-12763299D01*
X22475004Y-13366379D02*
X22475003Y-13378462D01*
%TO.N,Line-MD-Main=TX_3.3V*%
X12281250Y-11031250D02*
X12237500Y-10987500D01*
%TO.N,PH-3*%
X22151697Y-12772471D02*
X22149196Y-12769970D01*
X22121675Y-12742448D02*
X22123343Y-12744116D01*
X22475002Y-13387834D02*
X22475003Y-13378462D01*
X22160040Y-12780814D02*
X22155035Y-12775809D01*
X22126679Y-12747452D02*
X22129182Y-12749955D01*
X22474997Y-13523175D02*
X22474997Y-13529781D01*
X22475000Y-13422848D02*
X22474999Y-13446614D01*
X22474997Y-13538589D02*
X22474997Y-13542993D01*
X22176720Y-12797494D02*
X22185894Y-12806668D01*
X22474998Y-13470325D02*
X22474998Y-13466484D01*
%TO.N,Line-MD-Main=TX_3.3V*%
X12623743Y-11250000D02*
G75*
G02*
X12412487Y-11162513I-43J298700D01*
G01*
X11500000Y262763D02*
G75*
G03*
X9906205Y4110518I-5441550J-3D01*
G01*
X9136068Y4880657D02*
G75*
G03*
X7037294Y5749999I-2098768J-2098757D01*
G01*
X12368750Y-11118750D02*
X12412500Y-11162500D01*
%TO.N,Line-MD-Main=RX_3.3V*%
X6795099Y6600000D02*
G75*
G02*
X9425527Y5510448I1J-3720000D01*
G01*
X13700000Y-8700000D02*
G75*
G02*
X12149998Y-4957968I3742020J3742030D01*
G01*
X4300000Y6300000D02*
G75*
G02*
X5024264Y6600002I724270J-724270D01*
G01*
X18292893Y-10250000D02*
G75*
G02*
X19500002Y-10749998I7J-1707100D01*
G01*
X12150000Y532002D02*
G75*
G03*
X10556208Y4379759I-5441560J-2D01*
G01*
%TO.N,Line-MD-Main=RX_5V*%
X14750000Y-8500000D02*
G75*
G02*
X14250003Y-7292893I1207100J1207100D01*
G01*
%TO.N,Line-MD-Main=TX_5V*%
X9125000Y-2125000D02*
G75*
G02*
X9999998Y-4237436I-2112450J-2112440D01*
G01*
%TO.N,Line-MD-Main=RX_3.3V*%
X4000000Y6000000D02*
X4300000Y6300000D01*
X9425522Y5510443D02*
X10556207Y4379758D01*
X6795099Y6600000D02*
X5024264Y6600000D01*
X12150000Y532002D02*
X12150000Y-4957968D01*
X13700000Y-8700000D02*
X15250000Y-10250000D01*
%TO.N,Line-MD-Main=RX_5V*%
X15250000Y-9000000D02*
X14750000Y-8500000D01*
X14250000Y-7292893D02*
X14250000Y-3750000D01*
%TO.N,Line-MD-Main=TX_5V*%
X9125000Y-2125000D02*
X8250000Y-1250000D01*
X10000000Y-10250000D02*
X10000000Y-4237436D01*
%TO.N,Line-MD-Main=RX_3.3V*%
X18292893Y-10250000D02*
X15250000Y-10250000D01*
X20000000Y-11250000D02*
X19500000Y-10750000D01*
%TO.N,Line-MD-Main=TX_3.3V*%
X12623743Y-11250000D02*
X18250000Y-11250000D01*
X12062500Y-10812500D02*
X11500000Y-10250000D01*
X11500000Y-10250000D02*
X11500000Y262763D01*
X9136069Y4880658D02*
X9906206Y4110519D01*
X5000000Y5750000D02*
X7037294Y5750000D01*
%TO.N,PH-3*%
X4843707Y-10843707D02*
G75*
G03*
X8691463Y-12437504I3847763J3847757D01*
G01*
%TO.N,EN-3*%
X3843707Y-11843707D02*
G75*
G03*
X7691463Y-13437504I3847763J3847757D01*
G01*
%TO.N,EN-4*%
X4228014Y9062500D02*
G75*
G03*
X531249Y7531251I-4J-5228010D01*
G01*
%TO.N,PH-4*%
X3520907Y7812500D02*
G75*
G03*
X1031251Y6781249I3J-3520910D01*
G01*
%TO.N,PH-2*%
X-5481250Y-6481250D02*
G75*
G02*
X-9057303Y-7962500I-3576056J3576059D01*
G01*
%TO.N,EN-2*%
X-6568750Y-5568750D02*
G75*
G02*
X-10356047Y-7137500I-3787297J3787295D01*
G01*
%TO.N,PH-1*%
X-12943707Y12943707D02*
G75*
G03*
X-16791463Y14537499I-3847758J-3847761D01*
G01*
%TO.N,EN-1*%
X-16791463Y13287500D02*
G75*
G02*
X-12943707Y11693707I-2J-5441554D01*
G01*
D26*
%TO.N,Net-(D1-A)*%
X8075000Y3575000D02*
G75*
G02*
X6626471Y2974997I-1448530J1448520D01*
G01*
D25*
%TO.N,PH-3*%
X22474997Y-13547397D02*
X22474997Y-13549599D01*
X22119173Y-12739946D02*
X22120007Y-12740780D01*
X22287956Y-12908731D02*
X22212583Y-12833357D01*
X22475005Y-13360338D02*
X22475004Y-13366379D01*
X-2000000Y-4000000D02*
X4843707Y-10843707D01*
X22253722Y-14083777D02*
G75*
G03*
X22474972Y-13549599I-534222J534177D01*
G01*
X22253722Y-14083777D02*
X21650000Y-14687500D01*
X22287955Y-12908732D02*
G75*
G02*
X22475005Y-13360338I-451555J-451568D01*
G01*
X21389003Y-12437500D02*
X8691463Y-12437500D01*
X22119173Y-12739946D02*
G75*
G03*
X21389003Y-12437493I-730173J-730154D01*
G01*
%TO.N,EN-3*%
X21650000Y-13437500D02*
X7691463Y-13437500D01*
X3843707Y-11843707D02*
X-3000000Y-5000000D01*
%TO.N,EN-2*%
X-22125000Y-7830962D02*
X-22125000Y-8049868D01*
X-21875390Y-7371163D02*
X-21976372Y-7472145D01*
X-21300000Y-9212500D02*
X-21886254Y-8626245D01*
X-21311279Y-7137500D02*
X-10356047Y-7137500D01*
X-21875390Y-7371163D02*
G75*
G02*
X-21311279Y-7137501I564110J-564108D01*
G01*
X-22125000Y-7830962D02*
G75*
G02*
X-21976372Y-7472145I507453J-5D01*
G01*
X-22125000Y-8049868D02*
G75*
G03*
X-21886254Y-8626245I815126J5D01*
G01*
X-6568750Y-5568750D02*
X-5000000Y-4000000D01*
%TO.N,PH-2*%
X-21300000Y-7962500D02*
X-9057303Y-7962500D01*
X-4000000Y-5000000D02*
X-5481250Y-6481250D01*
D26*
%TO.N,Net-(D1-A)*%
X8075000Y3575000D02*
X8675000Y4175000D01*
X6626471Y2975000D02*
X0Y2975000D01*
D25*
%TO.N,PH-1*%
X-12943707Y12943707D02*
X-6000000Y6000000D01*
X-21300000Y14537500D02*
X-16791463Y14537500D01*
%TO.N,EN-1*%
X-7000000Y5750000D02*
X-12943707Y11693707D01*
X-21300000Y13287500D02*
X-16791463Y13287500D01*
%TO.N,PH-4*%
X3520907Y7812500D02*
X21650000Y7812500D01*
X1031250Y6781250D02*
X0Y5750000D01*
%TO.N,EN-4*%
X4228014Y9062500D02*
X21650000Y9062500D01*
X-1000000Y6000000D02*
X531250Y7531250D01*
%TO.N,SLEEP-1*%
X-7206207Y-12056292D02*
X-5050000Y-14212500D01*
X-22037500Y11050000D02*
X-21300000Y11787500D01*
X-22775000Y9269517D02*
X-22775000Y-8501305D01*
D26*
X21700000Y10537500D02*
X6600000Y10537500D01*
D25*
X-21300000Y-10462500D02*
X-11053963Y-10462500D01*
X-22431209Y-9331291D02*
X-21300000Y-10462500D01*
X-22431209Y-9331291D02*
G75*
G02*
X-22775000Y-8501305I829984J829985D01*
G01*
X-7206207Y-12056292D02*
G75*
G03*
X-11053963Y-10462500I-3847755J-3847755D01*
G01*
X-22037500Y11050000D02*
G75*
G03*
X-22774999Y9269517I1780497J-1780488D01*
G01*
%TD*%
%TA.AperFunction,Conductor*%
%TO.N,GND*%
G36*
X-46711751Y28121703D02*
G01*
X-46368721Y28083052D01*
X-46355013Y28080723D01*
X-46018463Y28003908D01*
X-46005101Y28000059D01*
X-45679258Y27886042D01*
X-45666410Y27880720D01*
X-45355395Y27730943D01*
X-45343225Y27724217D01*
X-45050929Y27540555D01*
X-45039588Y27532508D01*
X-44769018Y27316736D01*
X-44759887Y27308691D01*
X-44636077Y27188304D01*
X-44634874Y27187117D01*
X-38837223Y21389465D01*
X-38786439Y21339777D01*
X-38681256Y21236863D01*
X-38681244Y21236852D01*
X-38346947Y20956343D01*
X-37989484Y20706045D01*
X-37989473Y20706038D01*
X-37989467Y20706034D01*
X-37989356Y20705970D01*
X-37611538Y20487836D01*
X-37611523Y20487828D01*
X-37216027Y20303406D01*
X-37216018Y20303402D01*
X-36805935Y20154144D01*
X-36805924Y20154140D01*
X-36428948Y20053130D01*
X-36384404Y20041195D01*
X-36384398Y20041193D01*
X-36384394Y20041193D01*
X-35954636Y19965415D01*
X-35664805Y19940058D01*
X-35519892Y19927380D01*
X-35301691Y19925000D01*
X-35301657Y19925000D01*
X35651690Y19925000D01*
X35651695Y19925000D01*
X35869887Y19927310D01*
X35869891Y19927310D01*
X36304644Y19965346D01*
X36304648Y19965346D01*
X36734411Y20041125D01*
X36734415Y20041125D01*
X36734421Y20041127D01*
X36776411Y20052378D01*
X37155953Y20154074D01*
X37566045Y20303334D01*
X37961562Y20487766D01*
X37961577Y20487774D01*
X38339503Y20705970D01*
X38339512Y20705975D01*
X38339597Y20706034D01*
X38697003Y20956293D01*
X39031296Y21236799D01*
X39031320Y21236821D01*
X39187218Y21389460D01*
X42597022Y24799265D01*
X45650707Y24799265D01*
X45690042Y24550909D01*
X45767749Y24311755D01*
X45881909Y24087706D01*
X46029704Y23884282D01*
X46029708Y23884277D01*
X46207518Y23706467D01*
X46207523Y23706463D01*
X46410947Y23558668D01*
X46634996Y23444508D01*
X46874150Y23366801D01*
X47122507Y23327466D01*
X47373970Y23327466D01*
X47373975Y23327466D01*
X47622331Y23366801D01*
X47861485Y23444508D01*
X48015563Y23523015D01*
X48085531Y23558666D01*
X48085534Y23558668D01*
X48288958Y23706463D01*
X48288963Y23706467D01*
X48466773Y23884277D01*
X48466777Y23884282D01*
X48614572Y24087706D01*
X48614575Y24087710D01*
X48687317Y24230474D01*
X48728732Y24311755D01*
X48751482Y24381772D01*
X48806439Y24550910D01*
X48845775Y24799271D01*
X48848241Y24925000D01*
X48845775Y25050729D01*
X48806439Y25299090D01*
X48728734Y25538240D01*
X48614575Y25762290D01*
X48466772Y25965724D01*
X48288965Y26143531D01*
X48085531Y26291334D01*
X47861481Y26405493D01*
X47622331Y26483198D01*
X47373975Y26522534D01*
X47373970Y26522534D01*
X47122512Y26522534D01*
X47122507Y26522534D01*
X46874150Y26483198D01*
X46763190Y26447144D01*
X46635001Y26405493D01*
X46634998Y26405491D01*
X46634996Y26405491D01*
X46553715Y26364076D01*
X46410951Y26291334D01*
X46410947Y26291331D01*
X46207523Y26143536D01*
X46207518Y26143532D01*
X46029708Y25965722D01*
X46029704Y25965717D01*
X45881909Y25762293D01*
X45767749Y25538244D01*
X45690042Y25299090D01*
X45650707Y25050734D01*
X45650707Y24799265D01*
X42597022Y24799265D01*
X44984874Y27187117D01*
X44986112Y27188338D01*
X45109878Y27308680D01*
X45119009Y27316726D01*
X45389589Y27532503D01*
X45400930Y27540549D01*
X45505586Y27606307D01*
X45693220Y27724203D01*
X45705387Y27730928D01*
X46016386Y27880695D01*
X46016401Y27880702D01*
X46029245Y27886023D01*
X46029300Y27886042D01*
X46355084Y28000037D01*
X46368446Y28003886D01*
X46704991Y28080697D01*
X46718700Y28083026D01*
X47061726Y28121674D01*
X47075609Y28122454D01*
X47420816Y28122454D01*
X47434700Y28121674D01*
X47777725Y28083023D01*
X47791434Y28080694D01*
X48127986Y28003876D01*
X48141347Y28000027D01*
X48467179Y27886013D01*
X48480017Y27880695D01*
X48791035Y27730915D01*
X48803205Y27724189D01*
X49095497Y27540530D01*
X49106838Y27532483D01*
X49376729Y27317252D01*
X49387097Y27307986D01*
X49631186Y27063897D01*
X49640452Y27053529D01*
X49855683Y26783638D01*
X49863730Y26772297D01*
X50047389Y26480005D01*
X50054115Y26467835D01*
X50203895Y26156817D01*
X50209212Y26143982D01*
X50271590Y25965717D01*
X50323227Y25818148D01*
X50327076Y25804786D01*
X50403894Y25468234D01*
X50406223Y25454525D01*
X50444874Y25111500D01*
X50445654Y25097616D01*
X50445654Y24752409D01*
X50444874Y24738526D01*
X50406226Y24395500D01*
X50403897Y24381791D01*
X50327086Y24045246D01*
X50323237Y24031884D01*
X50209223Y23706045D01*
X50203902Y23693201D01*
X50084140Y23444508D01*
X50054128Y23382187D01*
X50047402Y23370017D01*
X49863749Y23077730D01*
X49855703Y23066389D01*
X49639913Y22795793D01*
X49631895Y22786691D01*
X49511600Y22662893D01*
X49510351Y22661626D01*
X42248280Y15399557D01*
X42072519Y15221946D01*
X41921472Y15069310D01*
X41292967Y14385038D01*
X40819720Y13823738D01*
X40694065Y13674704D01*
X40307157Y13174153D01*
X40125858Y12939602D01*
X39589358Y12181042D01*
X39085536Y11400395D01*
X38615299Y10599069D01*
X38582599Y10537499D01*
X38179497Y9778513D01*
X37778905Y8940182D01*
X37555884Y8417519D01*
X37414264Y8085626D01*
X37414264Y8085625D01*
X37086209Y7216337D01*
X36795360Y6333960D01*
X36542206Y5439978D01*
X36327230Y4536089D01*
X36150810Y3623893D01*
X36013259Y2704997D01*
X35914836Y1781141D01*
X35914835Y1781128D01*
X35910644Y1715404D01*
X35855707Y853891D01*
X35835986Y-75000D01*
X35855707Y-1003891D01*
X35914836Y-1931141D01*
X36013259Y-2854997D01*
X36150810Y-3773893D01*
X36327230Y-4686089D01*
X36542206Y-5589978D01*
X36795360Y-6483960D01*
X37086209Y-7366337D01*
X37086214Y-7366352D01*
X37086216Y-7366356D01*
X37414264Y-8235626D01*
X37453301Y-8327111D01*
X37778905Y-9090182D01*
X38179497Y-9928513D01*
X38360103Y-10268569D01*
X38615299Y-10749069D01*
X39085536Y-11550395D01*
X39589357Y-12331041D01*
X39589363Y-12331049D01*
X40125858Y-13089602D01*
X40480116Y-13547914D01*
X40694069Y-13824709D01*
X41292967Y-14535038D01*
X41921472Y-15219310D01*
X41921479Y-15219317D01*
X41921480Y-15219318D01*
X42248280Y-15549557D01*
X49510303Y-22811578D01*
X49511524Y-22812815D01*
X49631912Y-22936626D01*
X49639957Y-22945757D01*
X49855731Y-23216328D01*
X49863778Y-23227669D01*
X50047441Y-23519967D01*
X50054167Y-23532137D01*
X50203949Y-23843162D01*
X50209270Y-23856009D01*
X50323283Y-24181838D01*
X50327133Y-24195200D01*
X50403951Y-24531760D01*
X50406280Y-24545469D01*
X50444932Y-24888502D01*
X50445712Y-24902386D01*
X50445712Y-25247600D01*
X50444932Y-25261483D01*
X50406282Y-25604516D01*
X50403953Y-25618225D01*
X50327139Y-25954777D01*
X50323290Y-25968139D01*
X50209273Y-26293985D01*
X50203951Y-26306832D01*
X50054176Y-26617845D01*
X50047450Y-26630016D01*
X49863783Y-26922323D01*
X49855736Y-26933663D01*
X49640512Y-27203547D01*
X49631247Y-27213916D01*
X49387141Y-27458024D01*
X49376772Y-27467290D01*
X49106881Y-27682523D01*
X49095541Y-27690569D01*
X48803244Y-27874234D01*
X48791073Y-27880961D01*
X48480049Y-28030744D01*
X48467202Y-28036065D01*
X48141373Y-28150079D01*
X48128011Y-28153929D01*
X47791452Y-28230749D01*
X47777743Y-28233078D01*
X47434710Y-28271731D01*
X47420826Y-28272511D01*
X47075612Y-28272512D01*
X47061729Y-28271732D01*
X46718694Y-28233084D01*
X46704985Y-28230755D01*
X46368437Y-28153943D01*
X46355076Y-28150094D01*
X46029227Y-28036078D01*
X46016379Y-28030756D01*
X46016354Y-28030744D01*
X45705359Y-27880978D01*
X45693191Y-27874254D01*
X45693159Y-27874234D01*
X45400897Y-27690597D01*
X45389556Y-27682551D01*
X45119623Y-27467290D01*
X45118984Y-27466780D01*
X45109828Y-27458710D01*
X45109808Y-27458691D01*
X44986077Y-27338304D01*
X44984880Y-27337123D01*
X42848491Y-25200734D01*
X45650707Y-25200734D01*
X45690042Y-25449090D01*
X45767749Y-25688244D01*
X45881909Y-25912293D01*
X46029704Y-26115717D01*
X46029708Y-26115722D01*
X46207518Y-26293532D01*
X46207523Y-26293536D01*
X46225824Y-26306832D01*
X46410951Y-26441334D01*
X46553715Y-26514076D01*
X46634996Y-26555491D01*
X46634998Y-26555491D01*
X46635001Y-26555493D01*
X46763190Y-26597144D01*
X46874150Y-26633198D01*
X47122507Y-26672534D01*
X47373970Y-26672534D01*
X47373975Y-26672534D01*
X47622331Y-26633198D01*
X47632127Y-26630015D01*
X47861481Y-26555493D01*
X48085531Y-26441334D01*
X48288965Y-26293531D01*
X48466772Y-26115724D01*
X48614575Y-25912290D01*
X48728734Y-25688240D01*
X48806439Y-25449090D01*
X48845775Y-25200729D01*
X48848241Y-25075000D01*
X48845775Y-24949271D01*
X48806439Y-24700910D01*
X48728734Y-24461760D01*
X48728732Y-24461757D01*
X48728732Y-24461755D01*
X48687317Y-24380474D01*
X48614575Y-24237710D01*
X48573982Y-24181838D01*
X48466777Y-24034282D01*
X48466773Y-24034277D01*
X48288963Y-23856467D01*
X48288958Y-23856463D01*
X48085534Y-23708668D01*
X48085533Y-23708667D01*
X48085531Y-23708666D01*
X48015563Y-23673015D01*
X47861485Y-23594508D01*
X47622331Y-23516801D01*
X47373975Y-23477466D01*
X47373970Y-23477466D01*
X47122512Y-23477466D01*
X47122507Y-23477466D01*
X46874150Y-23516801D01*
X46634996Y-23594508D01*
X46410947Y-23708668D01*
X46207523Y-23856463D01*
X46207518Y-23856467D01*
X46029708Y-24034277D01*
X46029704Y-24034282D01*
X45881909Y-24237706D01*
X45767749Y-24461755D01*
X45690042Y-24700909D01*
X45650707Y-24949265D01*
X45650707Y-25200734D01*
X42848491Y-25200734D01*
X39193150Y-21545392D01*
X39187135Y-21539484D01*
X39037130Y-21392153D01*
X38702529Y-21110540D01*
X38344611Y-20859228D01*
X38344610Y-20859227D01*
X38212813Y-20782938D01*
X37966110Y-20640137D01*
X37966102Y-20640133D01*
X37966100Y-20640132D01*
X37569937Y-20454948D01*
X37569919Y-20454941D01*
X37159075Y-20305060D01*
X36736699Y-20191632D01*
X36306043Y-20115530D01*
X36306036Y-20115529D01*
X36306034Y-20115529D01*
X36170007Y-20103602D01*
X35870361Y-20077331D01*
X35870367Y-20077331D01*
X35660734Y-20075096D01*
X35651700Y-20075000D01*
X35651696Y-20075000D01*
X-35301657Y-20075000D01*
X-35301691Y-20075000D01*
X-35519892Y-20077380D01*
X-35519893Y-20077380D01*
X-35954634Y-20115415D01*
X-35954638Y-20115415D01*
X-36384394Y-20191193D01*
X-36384398Y-20191193D01*
X-36384404Y-20191195D01*
X-36428948Y-20203130D01*
X-36805924Y-20304140D01*
X-36805934Y-20304143D01*
X-36805935Y-20304144D01*
X-37216018Y-20453402D01*
X-37216025Y-20453405D01*
X-37216027Y-20453406D01*
X-37611523Y-20637828D01*
X-37611538Y-20637836D01*
X-37615523Y-20640137D01*
X-37989467Y-20856034D01*
X-37989473Y-20856038D01*
X-37989484Y-20856045D01*
X-38346947Y-21106343D01*
X-38681244Y-21386852D01*
X-38681256Y-21386863D01*
X-38837242Y-21539484D01*
X-44634840Y-27337083D01*
X-44636077Y-27338304D01*
X-44759887Y-27458691D01*
X-44769018Y-27466736D01*
X-45039588Y-27682508D01*
X-45050929Y-27690555D01*
X-45343225Y-27874217D01*
X-45355395Y-27880943D01*
X-45666410Y-28030720D01*
X-45679258Y-28036042D01*
X-46005101Y-28150059D01*
X-46018463Y-28153908D01*
X-46355013Y-28230723D01*
X-46368721Y-28233052D01*
X-46711751Y-28271703D01*
X-46725635Y-28272483D01*
X-47070847Y-28272483D01*
X-47084731Y-28271703D01*
X-47427760Y-28233052D01*
X-47441468Y-28230723D01*
X-47778018Y-28153908D01*
X-47791380Y-28150059D01*
X-48117223Y-28036042D01*
X-48130071Y-28030720D01*
X-48441086Y-27880943D01*
X-48453256Y-27874217D01*
X-48745552Y-27690555D01*
X-48756893Y-27682508D01*
X-49026788Y-27467274D01*
X-49037156Y-27458008D01*
X-49281249Y-27213915D01*
X-49290515Y-27203547D01*
X-49505749Y-26933652D01*
X-49513796Y-26922311D01*
X-49697458Y-26630015D01*
X-49704184Y-26617845D01*
X-49853961Y-26306830D01*
X-49859283Y-26293982D01*
X-49973300Y-25968139D01*
X-49977149Y-25954777D01*
X-50053964Y-25618227D01*
X-50056293Y-25604519D01*
X-50094944Y-25261489D01*
X-50095724Y-25247605D01*
X-50095724Y-25200734D01*
X-48495775Y-25200734D01*
X-48486153Y-25261483D01*
X-48456439Y-25449090D01*
X-48378734Y-25688240D01*
X-48264575Y-25912290D01*
X-48116772Y-26115724D01*
X-47938965Y-26293531D01*
X-47735531Y-26441334D01*
X-47511481Y-26555493D01*
X-47282127Y-26630015D01*
X-47272331Y-26633198D01*
X-47023975Y-26672534D01*
X-46772512Y-26672534D01*
X-46772507Y-26672534D01*
X-46524150Y-26633198D01*
X-46413190Y-26597144D01*
X-46285001Y-26555493D01*
X-46284998Y-26555491D01*
X-46284996Y-26555491D01*
X-46203715Y-26514076D01*
X-46060951Y-26441334D01*
X-45875824Y-26306832D01*
X-45857523Y-26293536D01*
X-45857518Y-26293532D01*
X-45679708Y-26115722D01*
X-45679704Y-26115717D01*
X-45531909Y-25912293D01*
X-45417749Y-25688244D01*
X-45340043Y-25449090D01*
X-45300706Y-25200725D01*
X-45298240Y-25075000D01*
X-45300706Y-24949274D01*
X-45340043Y-24700909D01*
X-45417749Y-24461755D01*
X-45531909Y-24237706D01*
X-45679704Y-24034282D01*
X-45679708Y-24034277D01*
X-45857518Y-23856467D01*
X-45857523Y-23856463D01*
X-46060947Y-23708668D01*
X-46284996Y-23594508D01*
X-46524150Y-23516801D01*
X-46772507Y-23477466D01*
X-46772512Y-23477466D01*
X-47023970Y-23477466D01*
X-47023975Y-23477466D01*
X-47272331Y-23516801D01*
X-47511485Y-23594508D01*
X-47665563Y-23673015D01*
X-47735531Y-23708666D01*
X-47735533Y-23708667D01*
X-47735534Y-23708668D01*
X-47938958Y-23856463D01*
X-47938963Y-23856467D01*
X-48116773Y-24034277D01*
X-48116777Y-24034282D01*
X-48223982Y-24181838D01*
X-48264575Y-24237710D01*
X-48337317Y-24380474D01*
X-48378732Y-24461755D01*
X-48378732Y-24461757D01*
X-48378734Y-24461760D01*
X-48401482Y-24531772D01*
X-48456439Y-24700909D01*
X-48495775Y-24949265D01*
X-48495775Y-25200734D01*
X-50095724Y-25200734D01*
X-50095724Y-24902394D01*
X-50094944Y-24888510D01*
X-50056293Y-24545480D01*
X-50053964Y-24531772D01*
X-49977149Y-24195222D01*
X-49973300Y-24181860D01*
X-49859283Y-23856017D01*
X-49853961Y-23843169D01*
X-49704184Y-23532154D01*
X-49697458Y-23519984D01*
X-49513796Y-23227688D01*
X-49505749Y-23216347D01*
X-49289977Y-22945777D01*
X-49281932Y-22936646D01*
X-49281912Y-22936626D01*
X-49161545Y-22812836D01*
X-49160324Y-22811599D01*
X-41898279Y-15549556D01*
X-41571479Y-15219317D01*
X-41571471Y-15219309D01*
X-41333129Y-14959819D01*
X-39795039Y-14959819D01*
X-39761785Y-15169775D01*
X-39696096Y-15371944D01*
X-39599590Y-15561348D01*
X-39474643Y-15733323D01*
X-39324330Y-15883636D01*
X-39152355Y-16008583D01*
X-38962951Y-16105089D01*
X-38760782Y-16170778D01*
X-38550826Y-16204032D01*
X-38550825Y-16204032D01*
X-38354521Y-16204032D01*
X-38287482Y-16223717D01*
X-38241727Y-16276521D01*
X-38231783Y-16345679D01*
X-38233864Y-16356629D01*
X-38267105Y-16496883D01*
X-38275802Y-16533577D01*
X-38275802Y-16709019D01*
X-38253902Y-16801416D01*
X-38248460Y-16824382D01*
X-38235341Y-16879731D01*
X-38156603Y-17036513D01*
X-38091346Y-17116620D01*
X-37172095Y-18035870D01*
X-37091988Y-18101128D01*
X-36935206Y-18179866D01*
X-36935204Y-18179866D01*
X-36935203Y-18179867D01*
X-36856891Y-18198427D01*
X-36764494Y-18220327D01*
X-36764491Y-18220327D01*
X-36589055Y-18220327D01*
X-36589052Y-18220327D01*
X-36418340Y-18179866D01*
X-36418339Y-18179866D01*
X-36261563Y-18101130D01*
X-36261559Y-18101128D01*
X-36181451Y-18035871D01*
X-35050069Y-16904488D01*
X-35017440Y-16864434D01*
X-34984812Y-16824382D01*
X-34984807Y-16824374D01*
X-34906072Y-16667599D01*
X-34906072Y-16667598D01*
X-34865613Y-16496894D01*
X-34865612Y-16496883D01*
X-34865612Y-16321448D01*
X-34865613Y-16321437D01*
X-34906071Y-16150735D01*
X-34984812Y-15993948D01*
X-35050059Y-15913854D01*
X-35050075Y-15913836D01*
X-35969311Y-14994601D01*
X-35969332Y-14994582D01*
X-36049418Y-14929341D01*
X-36049424Y-14929337D01*
X-36206210Y-14850596D01*
X-36376912Y-14810138D01*
X-36376918Y-14810137D01*
X-36376920Y-14810137D01*
X-36552362Y-14810137D01*
X-36552364Y-14810137D01*
X-36552369Y-14810138D01*
X-36729310Y-14852075D01*
X-36799082Y-14848382D01*
X-36855781Y-14807554D01*
X-36881406Y-14742553D01*
X-36881907Y-14731418D01*
X-36881907Y-14535113D01*
X-36915160Y-14325160D01*
X-36980851Y-14122985D01*
X-37077356Y-13933583D01*
X-37202305Y-13761606D01*
X-37352613Y-13611298D01*
X-37524590Y-13486349D01*
X-37713992Y-13389844D01*
X-37916167Y-13324153D01*
X-37916166Y-13324153D01*
X-38101661Y-13294774D01*
X-38126120Y-13290900D01*
X-38338694Y-13290900D01*
X-38363153Y-13294774D01*
X-38548646Y-13324153D01*
X-38548648Y-13324153D01*
X-38548650Y-13324154D01*
X-38750819Y-13389843D01*
X-38940223Y-13486349D01*
X-39112198Y-13611296D01*
X-39474643Y-13973741D01*
X-39599590Y-14145716D01*
X-39696096Y-14335120D01*
X-39761785Y-14537289D01*
X-39795039Y-14747245D01*
X-39795039Y-14959819D01*
X-41333129Y-14959819D01*
X-40942966Y-14535038D01*
X-40942958Y-14535028D01*
X-40942952Y-14535022D01*
X-40344073Y-13824715D01*
X-39775857Y-13089601D01*
X-39539699Y-12755696D01*
X-39239357Y-12331041D01*
X-38735535Y-11550395D01*
X-38265298Y-10749069D01*
X-37829494Y-9928507D01*
X-37807138Y-9881722D01*
X-37428909Y-9090190D01*
X-37064266Y-8235634D01*
X-36826367Y-7605243D01*
X-36736215Y-7366355D01*
X-36736213Y-7366351D01*
X-36736208Y-7366336D01*
X-36445359Y-6483960D01*
X-36192205Y-5589978D01*
X-35977230Y-4686092D01*
X-35800809Y-3773888D01*
X-35779527Y-3631721D01*
X-35663260Y-2855010D01*
X-35663258Y-2854997D01*
X-35564835Y-1931141D01*
X-35505706Y-1003891D01*
X-35485985Y-75000D01*
X-35505706Y853891D01*
X-35560643Y1715404D01*
X-35564834Y1781128D01*
X-35564835Y1781141D01*
X-35663258Y2704997D01*
X-35706999Y2997204D01*
X-35800808Y3623883D01*
X-35853796Y3897862D01*
X-35977230Y4536092D01*
X-36192205Y5439978D01*
X-36445359Y6333960D01*
X-36736208Y7216336D01*
X-36736216Y7216356D01*
X-37064263Y8085625D01*
X-37064263Y8085626D01*
X-37064266Y8085634D01*
X-37428909Y8940190D01*
X-37547216Y9187774D01*
X-23500501Y9187774D01*
X-23500500Y9187771D01*
X-23500500Y-8419560D01*
X-23500500Y-8501304D01*
X-23500500Y-8625790D01*
X-23468003Y-8872630D01*
X-23403565Y-9113117D01*
X-23308288Y-9343136D01*
X-23183802Y-9558751D01*
X-23032239Y-9756273D01*
X-23020085Y-9768426D01*
X-23012186Y-9776325D01*
X-23012182Y-9776330D01*
X-22994741Y-9793770D01*
X-22994741Y-9793771D01*
X-22222349Y-10566161D01*
X-22188866Y-10627482D01*
X-22186712Y-10640870D01*
X-22185674Y-10650756D01*
X-22127179Y-10830784D01*
X-22032533Y-10994716D01*
X-21905871Y-11135388D01*
X-21752730Y-11246651D01*
X-21579803Y-11323644D01*
X-21394646Y-11363000D01*
X-21394644Y-11363000D01*
X-21205355Y-11363000D01*
X-21205354Y-11363000D01*
X-21020197Y-11323644D01*
X-21020192Y-11323642D01*
X-20847270Y-11246651D01*
X-20847265Y-11246648D01*
X-20799138Y-11211682D01*
X-20733331Y-11188202D01*
X-20726253Y-11188000D01*
X-11135707Y-11188000D01*
X-11056388Y-11188000D01*
X-11051519Y-11188096D01*
X-10688817Y-11202346D01*
X-10679126Y-11203108D01*
X-10321023Y-11245492D01*
X-10311435Y-11247011D01*
X-9957792Y-11317356D01*
X-9948344Y-11319624D01*
X-9601306Y-11417499D01*
X-9592068Y-11420500D01*
X-9253761Y-11545308D01*
X-9244807Y-11549016D01*
X-8917325Y-11699988D01*
X-8908672Y-11704398D01*
X-8594080Y-11880579D01*
X-8585780Y-11885664D01*
X-8285974Y-12085988D01*
X-8278127Y-12091689D01*
X-7994940Y-12314937D01*
X-7987573Y-12321229D01*
X-7720971Y-12567671D01*
X-7717514Y-12570995D01*
X-5972349Y-14316161D01*
X-5938866Y-14377482D01*
X-5936712Y-14390870D01*
X-5935674Y-14400756D01*
X-5877179Y-14580784D01*
X-5782533Y-14744716D01*
X-5655871Y-14885388D01*
X-5502730Y-14996651D01*
X-5329803Y-15073644D01*
X-5144646Y-15113000D01*
X-5144644Y-15113000D01*
X-4955355Y-15113000D01*
X-4955354Y-15113000D01*
X-4770197Y-15073644D01*
X-4770192Y-15073642D01*
X-4597270Y-14996651D01*
X-4597265Y-14996648D01*
X-4457155Y-14894852D01*
X-4391349Y-14871372D01*
X-4323295Y-14887197D01*
X-4274600Y-14937303D01*
X-4260725Y-15005781D01*
X-4273057Y-15050012D01*
X-4362359Y-15231098D01*
X-4455081Y-15504247D01*
X-4511356Y-15787161D01*
X-4530222Y-16075000D01*
X-4511356Y-16362839D01*
X-4455081Y-16645753D01*
X-4362359Y-16918902D01*
X-4234778Y-17177611D01*
X-4074520Y-17417454D01*
X-3884327Y-17634327D01*
X-3667454Y-17824520D01*
X-3427611Y-17984778D01*
X-3168902Y-18112359D01*
X-2895753Y-18205081D01*
X-2612839Y-18261356D01*
X-2325000Y-18280222D01*
X-2037161Y-18261356D01*
X-1754247Y-18205081D01*
X-1481098Y-18112359D01*
X-1222389Y-17984778D01*
X-982546Y-17824520D01*
X-765672Y-17634327D01*
X-575478Y-17417452D01*
X-415223Y-17177613D01*
X-415219Y-17177606D01*
X-287642Y-16918905D01*
X-194921Y-16645760D01*
X-194917Y-16645745D01*
X-169000Y-16515452D01*
X35464141Y-16515452D01*
X35488238Y-16667598D01*
X35497395Y-16725409D01*
X35563084Y-16927578D01*
X35659590Y-17116982D01*
X35784537Y-17288957D01*
X36146982Y-17651402D01*
X36318957Y-17776349D01*
X36508361Y-17872855D01*
X36710530Y-17938544D01*
X36920486Y-17971798D01*
X36920487Y-17971798D01*
X37133059Y-17971798D01*
X37133060Y-17971798D01*
X37343016Y-17938544D01*
X37545185Y-17872855D01*
X37734589Y-17776349D01*
X37906564Y-17651402D01*
X38056877Y-17501089D01*
X38181824Y-17329114D01*
X38278330Y-17139710D01*
X38344019Y-16937541D01*
X38377273Y-16727585D01*
X38377273Y-16531279D01*
X38396958Y-16464240D01*
X38449762Y-16418485D01*
X38518920Y-16408541D01*
X38529871Y-16410622D01*
X38536105Y-16412099D01*
X38536106Y-16412100D01*
X38706818Y-16452561D01*
X38706821Y-16452561D01*
X38882257Y-16452561D01*
X38882260Y-16452561D01*
X39026033Y-16418485D01*
X39052969Y-16412101D01*
X39052970Y-16412100D01*
X39052972Y-16412100D01*
X39209754Y-16333362D01*
X39289861Y-16268105D01*
X40209111Y-15348854D01*
X40274369Y-15268747D01*
X40353107Y-15111965D01*
X40393568Y-14941253D01*
X40393568Y-14765811D01*
X40353107Y-14595099D01*
X40353107Y-14595098D01*
X40274371Y-14438322D01*
X40274369Y-14438318D01*
X40209112Y-14358210D01*
X39077729Y-13226828D01*
X39037675Y-13194199D01*
X38997623Y-13161571D01*
X38997615Y-13161566D01*
X38840839Y-13082831D01*
X38670135Y-13042372D01*
X38670130Y-13042371D01*
X38670128Y-13042371D01*
X38494686Y-13042371D01*
X38494684Y-13042371D01*
X38494678Y-13042372D01*
X38323976Y-13082830D01*
X38167189Y-13161571D01*
X38087095Y-13226818D01*
X38087077Y-13226834D01*
X37167842Y-14146070D01*
X37167823Y-14146091D01*
X37102582Y-14226177D01*
X37102578Y-14226183D01*
X37023837Y-14382969D01*
X36983379Y-14553671D01*
X36983378Y-14553682D01*
X36983378Y-14729117D01*
X36983379Y-14729128D01*
X37025316Y-14906069D01*
X37021623Y-14975841D01*
X36980795Y-15032540D01*
X36915794Y-15058165D01*
X36904659Y-15058666D01*
X36708354Y-15058666D01*
X36659683Y-15066374D01*
X36498401Y-15091919D01*
X36296226Y-15157610D01*
X36106824Y-15254115D01*
X35934847Y-15379064D01*
X35784539Y-15529372D01*
X35659590Y-15701349D01*
X35563085Y-15890751D01*
X35497394Y-16092926D01*
X35464141Y-16302879D01*
X35464141Y-16515452D01*
X-169000Y-16515452D01*
X-138646Y-16362849D01*
X-138644Y-16362837D01*
X-132986Y-16276521D01*
X-119778Y-16075000D01*
X-138644Y-15787161D01*
X-138646Y-15787150D01*
X-194917Y-15504254D01*
X-194921Y-15504239D01*
X-287642Y-15231094D01*
X-415219Y-14972393D01*
X-415223Y-14972386D01*
X-575478Y-14732547D01*
X-765672Y-14515672D01*
X-982547Y-14325478D01*
X-1222386Y-14165223D01*
X-1222393Y-14165219D01*
X-1481094Y-14037642D01*
X-1754239Y-13944921D01*
X-1754254Y-13944917D01*
X-2037150Y-13888646D01*
X-2037155Y-13888645D01*
X-2037161Y-13888644D01*
X-2325000Y-13869778D01*
X-2612839Y-13888644D01*
X-2612849Y-13888646D01*
X-2895745Y-13944917D01*
X-2895751Y-13944918D01*
X-2895753Y-13944919D01*
X-2895754Y-13944919D01*
X-2895760Y-13944921D01*
X-3168905Y-14037642D01*
X-3427606Y-14165219D01*
X-3427613Y-14165223D01*
X-3667452Y-14325478D01*
X-3884327Y-14515672D01*
X-3991019Y-14637331D01*
X-4050021Y-14674755D01*
X-4119889Y-14674339D01*
X-4178442Y-14636216D01*
X-4207088Y-14572488D01*
X-4202178Y-14517254D01*
X-4164327Y-14400759D01*
X-4164326Y-14400756D01*
X-4144540Y-14212500D01*
X-4164326Y-14024244D01*
X-4164327Y-14024240D01*
X-4222818Y-13844222D01*
X-4222821Y-13844215D01*
X-4317466Y-13680285D01*
X-4444129Y-13539611D01*
X-4597265Y-13428351D01*
X-4597270Y-13428348D01*
X-4770192Y-13351357D01*
X-4770196Y-13351356D01*
X-4880230Y-13327967D01*
X-4941711Y-13294774D01*
X-4942129Y-13294358D01*
X-6743727Y-11492760D01*
X-6818991Y-11417496D01*
X-6848938Y-11387548D01*
X-6848949Y-11387538D01*
X-7181871Y-11099058D01*
X-7534508Y-10835078D01*
X-7534513Y-10835075D01*
X-7905103Y-10596913D01*
X-8291730Y-10385798D01*
X-8291737Y-10385794D01*
X-8692417Y-10202811D01*
X-9105172Y-10048861D01*
X-9527837Y-9924755D01*
X-9527847Y-9924752D01*
X-9958279Y-9831117D01*
X-10394314Y-9768426D01*
X-10833703Y-9737000D01*
X-10833706Y-9737000D01*
X-10982508Y-9737000D01*
X-20352907Y-9737000D01*
X-20419946Y-9717315D01*
X-20465701Y-9664511D01*
X-20475645Y-9595353D01*
X-20470838Y-9574682D01*
X-20414327Y-9400759D01*
X-20414326Y-9400756D01*
X-20394540Y-9212500D01*
X-20414326Y-9024244D01*
X-20463588Y-8872632D01*
X-20470838Y-8850318D01*
X-20472833Y-8780477D01*
X-20436753Y-8720644D01*
X-20374052Y-8689816D01*
X-20352907Y-8688000D01*
X-8830104Y-8688000D01*
X-8830096Y-8688000D01*
X-8377083Y-8652347D01*
X-7928264Y-8581261D01*
X-7486405Y-8475180D01*
X-7164122Y-8370463D01*
X-7054237Y-8334760D01*
X-7035773Y-8327112D01*
X-6634408Y-8160862D01*
X-6229523Y-7954562D01*
X-6229512Y-7954555D01*
X-6229506Y-7954552D01*
X-6056064Y-7848267D01*
X-5842071Y-7717132D01*
X-5474443Y-7450034D01*
X-5128904Y-7154916D01*
X-4968244Y-6994256D01*
X-4910442Y-6936455D01*
X-4910440Y-6936452D01*
X-3892128Y-5918140D01*
X-3830805Y-5884655D01*
X-3830322Y-5884551D01*
X-3720197Y-5861144D01*
X-3550433Y-5785559D01*
X-3481187Y-5776275D01*
X-3449569Y-5785557D01*
X-3279803Y-5861144D01*
X-3169766Y-5884532D01*
X-3108289Y-5917721D01*
X1782283Y-10808295D01*
X3385784Y-12411796D01*
X3385844Y-12411850D01*
X3486434Y-12512440D01*
X3486449Y-12512455D01*
X3819366Y-12800930D01*
X4169384Y-13062950D01*
X4172019Y-13064923D01*
X4210419Y-13089601D01*
X4542598Y-13303079D01*
X4929227Y-13514195D01*
X5329932Y-13697192D01*
X5742670Y-13851136D01*
X6160224Y-13973741D01*
X6165336Y-13975242D01*
X6165346Y-13975245D01*
X6595778Y-14068880D01*
X6595785Y-14068881D01*
X7031815Y-14131573D01*
X7471205Y-14163000D01*
X7620008Y-14163000D01*
X20702907Y-14163000D01*
X20769946Y-14182685D01*
X20815701Y-14235489D01*
X20825645Y-14304647D01*
X20820838Y-14325318D01*
X20803889Y-14377482D01*
X20764326Y-14499244D01*
X20744540Y-14687500D01*
X20764326Y-14875756D01*
X20764327Y-14875759D01*
X20822818Y-15055777D01*
X20822821Y-15055784D01*
X20917467Y-15219716D01*
X21033731Y-15348840D01*
X21044129Y-15360388D01*
X21197265Y-15471648D01*
X21197270Y-15471651D01*
X21370192Y-15548642D01*
X21370197Y-15548644D01*
X21555354Y-15588000D01*
X21555355Y-15588000D01*
X21744644Y-15588000D01*
X21744646Y-15588000D01*
X21929803Y-15548644D01*
X22102730Y-15471651D01*
X22255871Y-15360388D01*
X22382533Y-15219716D01*
X22477179Y-15055784D01*
X22535674Y-14875756D01*
X22536712Y-14865880D01*
X22563294Y-14801265D01*
X22572343Y-14791166D01*
X22703086Y-14660423D01*
X22703127Y-14660388D01*
X22708946Y-14654568D01*
X22708950Y-14654566D01*
X22729678Y-14633835D01*
X22729755Y-14633793D01*
X22766767Y-14596779D01*
X22835400Y-14528141D01*
X22953573Y-14374124D01*
X23050633Y-14206000D01*
X23124919Y-14026647D01*
X23175160Y-13839131D01*
X23200498Y-13646663D01*
X23200497Y-13549598D01*
X23200497Y-13547914D01*
X23200498Y-13547893D01*
X23200498Y-13534138D01*
X23200499Y-13534117D01*
X23200499Y-13451720D01*
X23200501Y-13428348D01*
X23200506Y-13385167D01*
X23200505Y-13385164D01*
X23200506Y-13378155D01*
X23200503Y-13378104D01*
X23200505Y-13360381D01*
X23200505Y-13358277D01*
X23200506Y-13352687D01*
X23200517Y-13289003D01*
X23200515Y-13288998D01*
X23200517Y-13282385D01*
X23200508Y-13282225D01*
X23200510Y-13270965D01*
X23177176Y-13093660D01*
X23130896Y-12920919D01*
X23062464Y-12755697D01*
X22973049Y-12600822D01*
X22864182Y-12458945D01*
X22809035Y-12403799D01*
X22780449Y-12375212D01*
X22780438Y-12375200D01*
X22776115Y-12370877D01*
X22703717Y-12298479D01*
X22703700Y-12298460D01*
X22648376Y-12243137D01*
X22648375Y-12243136D01*
X22598376Y-12193129D01*
X22598373Y-12193127D01*
X22594290Y-12189043D01*
X22594200Y-12188961D01*
X22582479Y-12177240D01*
X22577196Y-12171956D01*
X22577093Y-12171863D01*
X22550699Y-12145469D01*
X22480629Y-12091701D01*
X22367859Y-12005167D01*
X22168270Y-11889932D01*
X21955347Y-11801734D01*
X21955345Y-11801733D01*
X21955344Y-11801733D01*
X21732730Y-11742083D01*
X21504233Y-11712000D01*
X21460461Y-11712000D01*
X21460458Y-11712000D01*
X21389006Y-11712000D01*
X21388994Y-11711999D01*
X21307261Y-11711999D01*
X21307260Y-11711999D01*
X21299666Y-11711999D01*
X21299650Y-11712000D01*
X20967400Y-11712000D01*
X20900361Y-11692315D01*
X20854606Y-11639511D01*
X20844662Y-11570353D01*
X20849467Y-11549687D01*
X20885674Y-11438256D01*
X20905460Y-11250000D01*
X20885674Y-11061744D01*
X20827179Y-10881716D01*
X20732533Y-10717784D01*
X20605871Y-10577112D01*
X20605870Y-10577111D01*
X20452734Y-10465851D01*
X20452729Y-10465848D01*
X20279807Y-10388857D01*
X20279803Y-10388856D01*
X20169769Y-10365467D01*
X20108288Y-10332274D01*
X20107870Y-10331858D01*
X20049327Y-10273315D01*
X20049322Y-10273306D01*
X19916407Y-10140391D01*
X19801633Y-10048862D01*
X19702792Y-9970039D01*
X19562217Y-9881710D01*
X19471440Y-9824671D01*
X19225284Y-9706130D01*
X19225280Y-9706128D01*
X18967385Y-9615888D01*
X18967379Y-9615886D01*
X18701013Y-9555090D01*
X18700995Y-9555087D01*
X18429507Y-9524499D01*
X18429503Y-9524499D01*
X18292890Y-9524500D01*
X16197093Y-9524500D01*
X16130054Y-9504815D01*
X16084299Y-9452011D01*
X16074355Y-9382853D01*
X16079162Y-9362182D01*
X16092856Y-9320034D01*
X16135674Y-9188256D01*
X16155460Y-9000000D01*
X16135674Y-8811744D01*
X16077179Y-8631716D01*
X15982533Y-8467784D01*
X15855871Y-8327112D01*
X15855062Y-8326524D01*
X15702734Y-8215851D01*
X15702729Y-8215848D01*
X15529807Y-8138857D01*
X15529803Y-8138856D01*
X15419769Y-8115467D01*
X15358288Y-8082274D01*
X15357870Y-8081858D01*
X15266454Y-7990442D01*
X15259845Y-7983293D01*
X15169309Y-7877289D01*
X15157871Y-7861546D01*
X15087588Y-7746853D01*
X15078755Y-7729517D01*
X15027279Y-7605243D01*
X15021266Y-7586737D01*
X14989864Y-7455934D01*
X14986823Y-7436732D01*
X14975881Y-7297709D01*
X14975500Y-7287983D01*
X14975501Y-7211152D01*
X14975500Y-7211146D01*
X14975500Y-5035718D01*
X14995185Y-4968679D01*
X15043207Y-4925233D01*
X15082815Y-4905052D01*
X15082815Y-4905051D01*
X15082816Y-4905051D01*
X15174193Y-4838661D01*
X15254786Y-4780109D01*
X15254788Y-4780106D01*
X15254792Y-4780104D01*
X15405104Y-4629792D01*
X15405106Y-4629788D01*
X15405109Y-4629786D01*
X15530048Y-4457820D01*
X15530047Y-4457820D01*
X15530051Y-4457816D01*
X15626557Y-4268412D01*
X15692246Y-4066243D01*
X15725500Y-3856287D01*
X15725500Y-3643713D01*
X15692246Y-3433757D01*
X15626557Y-3231588D01*
X15530051Y-3042184D01*
X15530049Y-3042181D01*
X15530048Y-3042179D01*
X15405109Y-2870213D01*
X15254792Y-2719896D01*
X15254784Y-2719890D01*
X15090204Y-2600316D01*
X15047540Y-2544989D01*
X15041561Y-2475376D01*
X15074166Y-2413580D01*
X15090199Y-2399686D01*
X15254792Y-2280104D01*
X15405104Y-2129792D01*
X15405106Y-2129788D01*
X15405109Y-2129786D01*
X15530048Y-1957820D01*
X15530047Y-1957820D01*
X15530051Y-1957816D01*
X15626557Y-1768412D01*
X15692246Y-1566243D01*
X15725500Y-1356287D01*
X15725500Y-1143713D01*
X15692246Y-933757D01*
X15626557Y-731588D01*
X15530051Y-542184D01*
X15530049Y-542181D01*
X15530048Y-542179D01*
X15405109Y-370213D01*
X15254786Y-219890D01*
X15082820Y-94951D01*
X15075738Y-91343D01*
X14893412Y1557D01*
X14691243Y67246D01*
X14481287Y100500D01*
X14018713Y100500D01*
X13808757Y67246D01*
X13606588Y1557D01*
X13518963Y-43090D01*
X13417179Y-94951D01*
X13245213Y-219890D01*
X13094892Y-370211D01*
X13093778Y-371516D01*
X13093231Y-371872D01*
X13091451Y-373653D01*
X13091076Y-373278D01*
X13035266Y-409700D01*
X12965398Y-410188D01*
X12906357Y-372826D01*
X12876888Y-309474D01*
X12875500Y-290970D01*
X12875500Y609550D01*
X12875497Y609611D01*
X12875497Y752259D01*
X12844071Y1191650D01*
X12781379Y1627679D01*
X12760281Y1724664D01*
X12687744Y2058117D01*
X12687741Y2058127D01*
X12686326Y2062946D01*
X12563635Y2480794D01*
X12409691Y2893533D01*
X12315402Y3099998D01*
X12774500Y3099998D01*
X12774501Y3099981D01*
X12785000Y2997203D01*
X12785001Y2997200D01*
X12840185Y2830668D01*
X12840187Y2830663D01*
X12932289Y2681342D01*
X13056342Y2557289D01*
X13205663Y2465187D01*
X13205668Y2465185D01*
X13289670Y2437349D01*
X13372203Y2410001D01*
X13372204Y2410000D01*
X13474989Y2399500D01*
X13474991Y2399500D01*
X15025001Y2399500D01*
X15025018Y2399501D01*
X15127796Y2410000D01*
X15127799Y2410001D01*
X15294331Y2465185D01*
X15294334Y2465186D01*
X15334863Y2490184D01*
X15350888Y2500069D01*
X15443656Y2557288D01*
X15567712Y2681344D01*
X15659814Y2830666D01*
X15714999Y2997203D01*
X15725500Y3099991D01*
X15725499Y4400008D01*
X15714999Y4502797D01*
X15659814Y4669334D01*
X15567712Y4818656D01*
X15443656Y4942712D01*
X15294334Y5034814D01*
X15127797Y5089999D01*
X15025009Y5100500D01*
X13474992Y5100499D01*
X13474983Y5100498D01*
X13474981Y5100498D01*
X13372203Y5089999D01*
X13205666Y5034814D01*
X13056344Y4942712D01*
X12932288Y4818656D01*
X12840186Y4669334D01*
X12785001Y4502797D01*
X12785001Y4502795D01*
X12785000Y4502795D01*
X12774500Y4400016D01*
X12774500Y3099998D01*
X12315402Y3099998D01*
X12226702Y3294226D01*
X12226698Y3294233D01*
X12226696Y3294238D01*
X12015581Y3680867D01*
X11777421Y4051451D01*
X11513432Y4404100D01*
X11224958Y4737018D01*
X11126804Y4835170D01*
X11126801Y4835175D01*
X11119739Y4842236D01*
X11119739Y4842238D01*
X11069214Y4892763D01*
X11011412Y4950566D01*
X11011410Y4950566D01*
X11001206Y4960771D01*
X11001201Y4960775D01*
X10006537Y5955439D01*
X10006533Y5955444D01*
X9996328Y5965648D01*
X9996328Y5965650D01*
X9974850Y5987127D01*
X9974837Y5987150D01*
X9938530Y6023455D01*
X9938531Y6023456D01*
X9801285Y6160700D01*
X9503915Y6410221D01*
X9185930Y6632876D01*
X8849749Y6826968D01*
X8849740Y6826971D01*
X8849737Y6826974D01*
X8849732Y6826976D01*
X8799033Y6850618D01*
X8746593Y6896790D01*
X8727441Y6963984D01*
X8747657Y7030865D01*
X8800822Y7076199D01*
X8851437Y7087000D01*
X21076253Y7087000D01*
X21143292Y7067315D01*
X21149138Y7063318D01*
X21197265Y7028351D01*
X21197270Y7028348D01*
X21370192Y6951357D01*
X21370197Y6951355D01*
X21522897Y6918898D01*
X21555354Y6912000D01*
X21555355Y6912000D01*
X21744645Y6912000D01*
X21744646Y6912000D01*
X21784001Y6920365D01*
X21929802Y6951355D01*
X21929807Y6951357D01*
X22102729Y7028348D01*
X22102734Y7028351D01*
X22255870Y7139611D01*
X22255871Y7139612D01*
X22382533Y7280284D01*
X22477179Y7444216D01*
X22535674Y7624244D01*
X22555460Y7812500D01*
X22535674Y8000756D01*
X22477179Y8180784D01*
X22382533Y8344716D01*
X22373698Y8354527D01*
X22343469Y8417519D01*
X22352093Y8486854D01*
X22373699Y8520473D01*
X22382533Y8530284D01*
X22477178Y8694215D01*
X22477179Y8694216D01*
X22535674Y8874244D01*
X22555460Y9062500D01*
X22535674Y9250756D01*
X22477179Y9430784D01*
X22382533Y9594716D01*
X22296970Y9689742D01*
X22266742Y9752731D01*
X22275367Y9822066D01*
X22302110Y9859251D01*
X22301522Y9859782D01*
X22387680Y9955470D01*
X22432533Y10005284D01*
X22527179Y10169216D01*
X22585674Y10349244D01*
X22605460Y10537500D01*
X22585674Y10725756D01*
X22527179Y10905784D01*
X22432533Y11069716D01*
X22305871Y11210388D01*
X22152730Y11321651D01*
X21979803Y11398644D01*
X21794646Y11438000D01*
X21605354Y11438000D01*
X21516977Y11419215D01*
X21420197Y11398644D01*
X21420192Y11398642D01*
X21247270Y11321651D01*
X21247265Y11321648D01*
X21233548Y11311682D01*
X21167742Y11288202D01*
X21160663Y11288000D01*
X7139337Y11288000D01*
X7072298Y11307685D01*
X7066452Y11311682D01*
X7052734Y11321648D01*
X7052730Y11321651D01*
X6879803Y11398644D01*
X6694646Y11438000D01*
X6694645Y11438000D01*
X6649500Y11438000D01*
X6582461Y11457685D01*
X6536706Y11510489D01*
X6525500Y11562000D01*
X6525499Y12950001D01*
X6525498Y12950018D01*
X6514999Y13052796D01*
X6514998Y13052799D01*
X6507036Y13076827D01*
X6459814Y13219334D01*
X6367712Y13368656D01*
X6243656Y13492712D01*
X6094334Y13584814D01*
X5927797Y13639999D01*
X5825009Y13650500D01*
X4524992Y13650499D01*
X4524983Y13650498D01*
X4524981Y13650498D01*
X4422203Y13639999D01*
X4255666Y13584814D01*
X4106344Y13492712D01*
X3982288Y13368656D01*
X3890186Y13219334D01*
X3886821Y13213878D01*
X3834873Y13167154D01*
X3765910Y13155931D01*
X3701828Y13183775D01*
X3693623Y13191272D01*
X3554792Y13330104D01*
X3546196Y13336349D01*
X3382820Y13455048D01*
X3382816Y13455051D01*
X3193412Y13551557D01*
X2991243Y13617246D01*
X2781287Y13650500D01*
X2568713Y13650500D01*
X2358757Y13617246D01*
X2156588Y13551557D01*
X1967184Y13455051D01*
X1967181Y13455049D01*
X1967179Y13455048D01*
X1795213Y13330109D01*
X1644890Y13179786D01*
X1519951Y13007820D01*
X1519949Y13007816D01*
X1423443Y12818412D01*
X1359128Y12620472D01*
X1357753Y12616239D01*
X1324500Y12406286D01*
X1324500Y11943713D01*
X1357753Y11733760D01*
X1357754Y11733757D01*
X1413561Y11562000D01*
X1423444Y11531585D01*
X1519951Y11342179D01*
X1644890Y11170213D01*
X1795213Y11019890D01*
X1967179Y10894951D01*
X2156585Y10798444D01*
X2358760Y10732753D01*
X2358759Y10732753D01*
X2529202Y10705757D01*
X2568713Y10699500D01*
X2568714Y10699500D01*
X2781286Y10699500D01*
X2781287Y10699500D01*
X2847587Y10710001D01*
X2991239Y10732753D01*
X2991241Y10732753D01*
X2991243Y10732754D01*
X3193412Y10798443D01*
X3382816Y10894949D01*
X3382820Y10894951D01*
X3554786Y11019890D01*
X3693601Y11158705D01*
X3754924Y11192190D01*
X3824616Y11187206D01*
X3880549Y11145334D01*
X3886821Y11136121D01*
X3982289Y10981342D01*
X4106342Y10857289D01*
X4255663Y10765187D01*
X4255668Y10765185D01*
X4339670Y10737349D01*
X4422203Y10710001D01*
X4422204Y10710000D01*
X4524983Y10699500D01*
X4524991Y10699500D01*
X5573851Y10699500D01*
X5640890Y10679815D01*
X5686645Y10627011D01*
X5697171Y10562540D01*
X5694540Y10537500D01*
X5714326Y10349244D01*
X5714326Y10349241D01*
X5714327Y10349240D01*
X5772818Y10169222D01*
X5772821Y10169215D01*
X5867466Y10005285D01*
X5876752Y9994972D01*
X5906982Y9931981D01*
X5898357Y9862645D01*
X5853615Y9808980D01*
X5786963Y9788022D01*
X5784602Y9788000D01*
X4150455Y9788000D01*
X4150415Y9787998D01*
X4015384Y9787998D01*
X3591207Y9757661D01*
X3173415Y9697591D01*
X3170268Y9697139D01*
X2754740Y9606747D01*
X2754734Y9606745D01*
X2754733Y9606745D01*
X2346698Y9486935D01*
X1948251Y9338322D01*
X1948243Y9338319D01*
X1948240Y9338317D01*
X1561431Y9161669D01*
X1561424Y9161665D01*
X1561420Y9161663D01*
X1188178Y8957857D01*
X830426Y8727944D01*
X830421Y8727941D01*
X508367Y8486854D01*
X489987Y8473095D01*
X168596Y8194608D01*
X68771Y8094783D01*
X-1107872Y6918138D01*
X-1169193Y6884655D01*
X-1169379Y6884614D01*
X-1279803Y6861144D01*
X-1452730Y6784151D01*
X-1605871Y6672888D01*
X-1732533Y6532216D01*
X-1827179Y6368284D01*
X-1885674Y6188256D01*
X-1905460Y6000000D01*
X-1885674Y5811744D01*
X-1827179Y5631716D01*
X-1732533Y5467784D01*
X-1605871Y5327112D01*
X-1605870Y5327111D01*
X-1452734Y5215851D01*
X-1452729Y5215848D01*
X-1279807Y5138857D01*
X-1279802Y5138855D01*
X-1134001Y5107865D01*
X-1094646Y5099500D01*
X-1094645Y5099500D01*
X-905352Y5099500D01*
X-740926Y5134449D01*
X-671259Y5129133D01*
X-622997Y5096133D01*
X-605871Y5077112D01*
X-605868Y5077109D01*
X-452734Y4965851D01*
X-452729Y4965848D01*
X-279807Y4888857D01*
X-279802Y4888855D01*
X-147964Y4860833D01*
X-94646Y4849500D01*
X-94645Y4849500D01*
X94645Y4849500D01*
X94646Y4849500D01*
X147964Y4860833D01*
X279802Y4888855D01*
X279807Y4888857D01*
X452729Y4965848D01*
X452734Y4965851D01*
X605870Y5077111D01*
X605871Y5077112D01*
X732533Y5217784D01*
X827179Y5381716D01*
X885674Y5561744D01*
X886711Y5571615D01*
X913290Y5636228D01*
X922351Y5646340D01*
X1482112Y6206101D01*
X1482123Y6206111D01*
X1486454Y6210442D01*
X1542091Y6266079D01*
X1546479Y6270257D01*
X1654627Y6368277D01*
X1743009Y6448382D01*
X1752413Y6456100D01*
X1962974Y6612262D01*
X1973092Y6619022D01*
X2197932Y6753786D01*
X2208664Y6759523D01*
X2445644Y6871607D01*
X2456887Y6876264D01*
X2703710Y6964578D01*
X2715354Y6968110D01*
X2969643Y7031807D01*
X2981579Y7034181D01*
X3240881Y7072644D01*
X3252990Y7073837D01*
X3517875Y7086851D01*
X3523960Y7087000D01*
X3602652Y7087000D01*
X3644104Y7087000D01*
X3711143Y7067315D01*
X3756898Y7014511D01*
X3766842Y6945353D01*
X3737817Y6881797D01*
X3694540Y6849721D01*
X3547270Y6784151D01*
X3547265Y6784148D01*
X3394129Y6672888D01*
X3267467Y6532216D01*
X3221426Y6452471D01*
X3172821Y6368284D01*
X3172818Y6368277D01*
X3139606Y6266060D01*
X3114326Y6188256D01*
X3094540Y6000000D01*
X3114326Y5811744D01*
X3114326Y5811741D01*
X3114327Y5811740D01*
X3172818Y5631722D01*
X3172821Y5631715D01*
X3267466Y5467785D01*
X3394129Y5327111D01*
X3547265Y5215851D01*
X3547270Y5215848D01*
X3720192Y5138857D01*
X3720197Y5138855D01*
X3872897Y5106398D01*
X3905354Y5099500D01*
X3905355Y5099500D01*
X4094647Y5099500D01*
X4259073Y5134449D01*
X4328740Y5129133D01*
X4377001Y5096134D01*
X4394131Y5077109D01*
X4394135Y5077106D01*
X4547265Y4965851D01*
X4547270Y4965848D01*
X4720192Y4888857D01*
X4720197Y4888855D01*
X4872897Y4856398D01*
X4905354Y4849500D01*
X4905355Y4849500D01*
X5094645Y4849500D01*
X5094646Y4849500D01*
X5147964Y4860833D01*
X5279802Y4888855D01*
X5279807Y4888857D01*
X5452729Y4965848D01*
X5452734Y4965851D01*
X5500862Y5000818D01*
X5566669Y5024298D01*
X5573747Y5024500D01*
X6947940Y5024500D01*
X6947956Y5024499D01*
X7033815Y5024499D01*
X7040767Y5024304D01*
X7281437Y5010789D01*
X7295255Y5009232D01*
X7529453Y4969441D01*
X7543011Y4966347D01*
X7771295Y4900579D01*
X7784420Y4895986D01*
X7869286Y4860833D01*
X7923689Y4816992D01*
X7945754Y4750697D01*
X7929220Y4684272D01*
X7847821Y4543284D01*
X7847819Y4543280D01*
X7792478Y4372958D01*
X7762228Y4323596D01*
X7547762Y4109130D01*
X7540613Y4102521D01*
X7396847Y3979733D01*
X7381120Y3968306D01*
X7224072Y3872066D01*
X7206756Y3863243D01*
X7036592Y3792758D01*
X7018100Y3786750D01*
X6839012Y3743755D01*
X6819803Y3740712D01*
X6631363Y3725882D01*
X6621634Y3725500D01*
X1053391Y3725500D01*
X986352Y3745185D01*
X965710Y3761819D01*
X921003Y3806526D01*
X772925Y3897862D01*
X607775Y3952587D01*
X505848Y3963000D01*
X-505848Y3963000D01*
X-607775Y3952587D01*
X-772925Y3897862D01*
X-921003Y3806526D01*
X-1044026Y3683503D01*
X-1135362Y3535425D01*
X-1190087Y3370275D01*
X-1200500Y3268348D01*
X-1200500Y2681652D01*
X-1190087Y2579725D01*
X-1135362Y2414575D01*
X-1135358Y2414569D01*
X-1135357Y2414566D01*
X-1044028Y2266500D01*
X-1044025Y2266496D01*
X-921003Y2143474D01*
X-920999Y2143471D01*
X-772933Y2052142D01*
X-772927Y2052139D01*
X-772925Y2052138D01*
X-772922Y2052137D01*
X-607776Y1997413D01*
X-505855Y1987000D01*
X-505848Y1987000D01*
X505855Y1987000D01*
X607776Y1997413D01*
X772922Y2052137D01*
X772925Y2052138D01*
X772927Y2052139D01*
X772933Y2052142D01*
X920999Y2143471D01*
X921003Y2143474D01*
X965710Y2188181D01*
X1027033Y2221666D01*
X1053391Y2224500D01*
X6547591Y2224500D01*
X6575106Y2224500D01*
X6575116Y2224497D01*
X6626471Y2224497D01*
X6763976Y2224497D01*
X6763979Y2224497D01*
X6831536Y2231150D01*
X7037669Y2251452D01*
X7307392Y2305104D01*
X7307396Y2305105D01*
X7307401Y2305106D01*
X7307405Y2305107D01*
X7307416Y2305110D01*
X7570570Y2384938D01*
X7764302Y2465185D01*
X7824655Y2490184D01*
X7824657Y2490185D01*
X7824662Y2490187D01*
X8067185Y2619819D01*
X8067192Y2619823D01*
X8067197Y2619826D01*
X8295864Y2772617D01*
X8508453Y2947085D01*
X8508457Y2947088D01*
X8549073Y2987706D01*
X8549085Y2987717D01*
X8599980Y3038612D01*
X8827770Y3266403D01*
X8889091Y3299887D01*
X8889669Y3300011D01*
X8954802Y3313855D01*
X8954807Y3313857D01*
X9127729Y3390848D01*
X9127734Y3390851D01*
X9280869Y3502110D01*
X9280872Y3502113D01*
X9288866Y3510991D01*
X9348352Y3547639D01*
X9418209Y3546308D01*
X9472071Y3512189D01*
X9641252Y3329170D01*
X9647575Y3321767D01*
X9870796Y3038612D01*
X9876519Y3030735D01*
X10076832Y2730946D01*
X10081919Y2722644D01*
X10258099Y2408053D01*
X10262520Y2399378D01*
X10413470Y2071941D01*
X10417196Y2062946D01*
X10541995Y1724664D01*
X10545003Y1715404D01*
X10642872Y1368390D01*
X10645145Y1358922D01*
X10715486Y1005292D01*
X10717009Y995676D01*
X10759389Y637618D01*
X10760153Y627911D01*
X10774404Y265206D01*
X10774500Y260338D01*
X10774500Y-3014141D01*
X10754815Y-3081180D01*
X10702011Y-3126935D01*
X10632853Y-3136879D01*
X10569297Y-3107854D01*
X10533978Y-3056552D01*
X10446135Y-2815205D01*
X10446130Y-2815196D01*
X10446129Y-2815191D01*
X10309122Y-2521378D01*
X10309110Y-2521354D01*
X10270807Y-2455011D01*
X10147004Y-2240578D01*
X10038972Y-2086291D01*
X9961039Y-1974990D01*
X9799282Y-1782216D01*
X9752636Y-1726625D01*
X9692872Y-1666861D01*
X9692863Y-1666851D01*
X9688532Y-1662520D01*
X9619665Y-1593653D01*
X9592252Y-1566239D01*
X9575888Y-1549874D01*
X9575865Y-1549853D01*
X9172351Y-1146339D01*
X9138866Y-1085016D01*
X9136712Y-1071627D01*
X9135674Y-1061744D01*
X9077179Y-881716D01*
X8982533Y-717784D01*
X8855871Y-577112D01*
X8807790Y-542179D01*
X8702734Y-465851D01*
X8702729Y-465848D01*
X8529807Y-388857D01*
X8529802Y-388855D01*
X8384001Y-357865D01*
X8344646Y-349500D01*
X8155354Y-349500D01*
X8122897Y-356398D01*
X7970197Y-388855D01*
X7970192Y-388857D01*
X7797270Y-465848D01*
X7797265Y-465851D01*
X7644129Y-577111D01*
X7517466Y-717785D01*
X7422821Y-881715D01*
X7422818Y-881722D01*
X7364327Y-1061740D01*
X7364326Y-1061744D01*
X7344540Y-1250000D01*
X7364326Y-1438256D01*
X7364327Y-1438259D01*
X7422818Y-1618277D01*
X7422821Y-1618284D01*
X7517467Y-1782216D01*
X7644129Y-1922888D01*
X7797265Y-2034148D01*
X7797270Y-2034151D01*
X7970191Y-2111142D01*
X7970194Y-2111142D01*
X7970197Y-2111144D01*
X8080227Y-2134531D01*
X8141709Y-2167723D01*
X8142128Y-2168140D01*
X8609524Y-2635536D01*
X8614303Y-2640590D01*
X8776380Y-2821956D01*
X8785040Y-2832814D01*
X8839593Y-2909700D01*
X8923768Y-3028335D01*
X8931166Y-3040109D01*
X9047127Y-3249925D01*
X9053160Y-3262453D01*
X9144898Y-3483929D01*
X9149491Y-3497054D01*
X9215858Y-3727419D01*
X9218952Y-3740976D01*
X9259108Y-3977314D01*
X9260665Y-3991132D01*
X9274305Y-4234006D01*
X9274500Y-4240959D01*
X9274500Y-9672376D01*
X9257887Y-9734375D01*
X9172823Y-9881710D01*
X9172818Y-9881722D01*
X9114327Y-10061740D01*
X9114326Y-10061744D01*
X9094540Y-10250000D01*
X9114326Y-10438256D01*
X9114327Y-10438259D01*
X9172818Y-10618277D01*
X9172821Y-10618284D01*
X9267467Y-10782216D01*
X9357063Y-10881722D01*
X9394129Y-10922888D01*
X9547265Y-11034148D01*
X9547270Y-11034151D01*
X9720192Y-11111142D01*
X9720197Y-11111144D01*
X9905354Y-11150500D01*
X9905355Y-11150500D01*
X10094644Y-11150500D01*
X10094646Y-11150500D01*
X10279803Y-11111144D01*
X10452730Y-11034151D01*
X10605871Y-10922888D01*
X10657851Y-10865158D01*
X10717336Y-10828510D01*
X10787193Y-10829840D01*
X10842148Y-10865158D01*
X10857063Y-10881722D01*
X10894129Y-10922888D01*
X11047265Y-11034148D01*
X11047270Y-11034151D01*
X11220191Y-11111142D01*
X11220194Y-11111142D01*
X11220197Y-11111144D01*
X11330227Y-11134531D01*
X11391709Y-11167723D01*
X11392128Y-11168140D01*
X11724307Y-11500319D01*
X11757792Y-11561642D01*
X11752808Y-11631334D01*
X11710936Y-11687267D01*
X11645472Y-11711684D01*
X11636626Y-11712000D01*
X8693889Y-11712000D01*
X8689021Y-11711904D01*
X8326315Y-11697653D01*
X8316608Y-11696889D01*
X7958550Y-11654509D01*
X7948934Y-11652986D01*
X7595304Y-11582644D01*
X7585836Y-11580371D01*
X7238823Y-11482503D01*
X7229563Y-11479495D01*
X6891280Y-11354695D01*
X6882285Y-11350969D01*
X6554839Y-11200014D01*
X6546164Y-11195593D01*
X6231592Y-11019424D01*
X6223290Y-11014337D01*
X5923492Y-10814018D01*
X5915615Y-10808295D01*
X5632462Y-10585074D01*
X5625059Y-10578751D01*
X5358412Y-10332265D01*
X5354927Y-10328915D01*
X5298912Y-10272899D01*
X5298909Y-10272897D01*
X5294581Y-10268568D01*
X5294576Y-10268564D01*
X-1077648Y-3896338D01*
X-1111133Y-3835015D01*
X-1113287Y-3821625D01*
X-1114325Y-3811748D01*
X-1114327Y-3811739D01*
X-1172818Y-3631722D01*
X-1172821Y-3631715D01*
X-1267466Y-3467785D01*
X-1394129Y-3327111D01*
X-1547265Y-3215851D01*
X-1547270Y-3215848D01*
X-1720192Y-3138857D01*
X-1720197Y-3138855D01*
X-1872897Y-3106398D01*
X-1905354Y-3099500D01*
X-2094646Y-3099500D01*
X-2133949Y-3107854D01*
X-2279802Y-3138855D01*
X-2279807Y-3138857D01*
X-2452729Y-3215848D01*
X-2452734Y-3215851D01*
X-2605870Y-3327111D01*
X-2605871Y-3327112D01*
X-2732533Y-3467784D01*
X-2827179Y-3631716D01*
X-2885674Y-3811744D01*
X-2903797Y-3984180D01*
X-2904247Y-3988462D01*
X-2930832Y-4053076D01*
X-2988129Y-4093061D01*
X-3027568Y-4099500D01*
X-3094646Y-4099500D01*
X-3134001Y-4107865D01*
X-3279802Y-4138855D01*
X-3279807Y-4138857D01*
X-3449564Y-4214439D01*
X-3518814Y-4223724D01*
X-3550436Y-4214439D01*
X-3720192Y-4138857D01*
X-3720197Y-4138855D01*
X-3872897Y-4106398D01*
X-3905354Y-4099500D01*
X-3972432Y-4099500D01*
X-4039471Y-4079815D01*
X-4085226Y-4027011D01*
X-4095753Y-3988462D01*
X-4096203Y-3984180D01*
X-4114326Y-3811744D01*
X-4114327Y-3811740D01*
X-4172818Y-3631722D01*
X-4172821Y-3631715D01*
X-4267466Y-3467785D01*
X-4394129Y-3327111D01*
X-4547265Y-3215851D01*
X-4547270Y-3215848D01*
X-4720192Y-3138857D01*
X-4720197Y-3138855D01*
X-4872897Y-3106398D01*
X-4905354Y-3099500D01*
X-5094646Y-3099500D01*
X-5133949Y-3107854D01*
X-5279802Y-3138855D01*
X-5279807Y-3138857D01*
X-5452729Y-3215848D01*
X-5452734Y-3215851D01*
X-5605870Y-3327111D01*
X-5605871Y-3327112D01*
X-5732533Y-3467784D01*
X-5827179Y-3631716D01*
X-5885674Y-3811744D01*
X-5886711Y-3821613D01*
X-5913290Y-3886228D01*
X-5922351Y-3896339D01*
X-7079843Y-5053831D01*
X-7083751Y-5057572D01*
X-7375594Y-5324997D01*
X-7383881Y-5331951D01*
X-7695776Y-5571276D01*
X-7704637Y-5577481D01*
X-8036213Y-5788718D01*
X-8045581Y-5794126D01*
X-8394288Y-5975652D01*
X-8404092Y-5980224D01*
X-8767302Y-6130671D01*
X-8777468Y-6134371D01*
X-9152408Y-6252589D01*
X-9162856Y-6255389D01*
X-9546681Y-6340481D01*
X-9557335Y-6342359D01*
X-9883550Y-6385305D01*
X-9947099Y-6393672D01*
X-9957872Y-6394614D01*
X-10234590Y-6406697D01*
X-10353344Y-6411882D01*
X-10358753Y-6412000D01*
X-21388848Y-6412000D01*
X-21388868Y-6412001D01*
X-21411126Y-6412001D01*
X-21576004Y-6433708D01*
X-21609092Y-6438065D01*
X-21801970Y-6489746D01*
X-21801982Y-6489751D01*
X-21878048Y-6521258D01*
X-21947517Y-6528727D01*
X-22009996Y-6497452D01*
X-22045648Y-6437362D01*
X-22049500Y-6406697D01*
X-22049500Y9265466D01*
X-22049234Y9273576D01*
X-22034696Y9495371D01*
X-22032579Y9511452D01*
X-21990008Y9725471D01*
X-21985810Y9741139D01*
X-21915665Y9947777D01*
X-21909458Y9962762D01*
X-21812948Y10158466D01*
X-21804838Y10172512D01*
X-21683603Y10353954D01*
X-21673729Y10366823D01*
X-21527173Y10533938D01*
X-21521626Y10539860D01*
X-21192128Y10869358D01*
X-21130805Y10902843D01*
X-21130229Y10902967D01*
X-21020196Y10926356D01*
X-21020192Y10926357D01*
X-20847270Y11003348D01*
X-20847265Y11003351D01*
X-20694129Y11114611D01*
X-20567466Y11255285D01*
X-20472821Y11419215D01*
X-20472818Y11419222D01*
X-20414327Y11599240D01*
X-20414326Y11599241D01*
X-20414326Y11599244D01*
X-20394540Y11787500D01*
X-20414326Y11975756D01*
X-20438456Y12050021D01*
X-20472818Y12155777D01*
X-20472821Y12155784D01*
X-20567466Y12319714D01*
X-20567467Y12319716D01*
X-20599262Y12355028D01*
X-20629492Y12418020D01*
X-20620867Y12487355D01*
X-20576125Y12541020D01*
X-20509473Y12561978D01*
X-20507112Y12562000D01*
X-16873208Y12562000D01*
X-16793888Y12562000D01*
X-16789020Y12561904D01*
X-16426314Y12547653D01*
X-16416607Y12546889D01*
X-16058549Y12504509D01*
X-16048933Y12502986D01*
X-15695302Y12432645D01*
X-15685834Y12430372D01*
X-15338817Y12332503D01*
X-15329558Y12329495D01*
X-14991283Y12204699D01*
X-14982287Y12200973D01*
X-14654847Y12050021D01*
X-14646172Y12045600D01*
X-14331580Y11869419D01*
X-14323278Y11864332D01*
X-14023483Y11664016D01*
X-14015607Y11658293D01*
X-13732464Y11435082D01*
X-13725060Y11428759D01*
X-13458498Y11182351D01*
X-13454988Y11178976D01*
X-7922351Y5646339D01*
X-7888866Y5585016D01*
X-7886712Y5571627D01*
X-7885674Y5561744D01*
X-7827179Y5381716D01*
X-7732533Y5217784D01*
X-7605871Y5077112D01*
X-7605870Y5077111D01*
X-7452734Y4965851D01*
X-7452729Y4965848D01*
X-7279807Y4888857D01*
X-7279802Y4888855D01*
X-7147964Y4860833D01*
X-7094646Y4849500D01*
X-7094645Y4849500D01*
X-6905355Y4849500D01*
X-6905354Y4849500D01*
X-6872897Y4856398D01*
X-6720197Y4888855D01*
X-6720192Y4888857D01*
X-6547270Y4965848D01*
X-6547265Y4965851D01*
X-6394135Y5077106D01*
X-6394131Y5077109D01*
X-6377001Y5096134D01*
X-6317513Y5132781D01*
X-6259073Y5134449D01*
X-6094647Y5099500D01*
X-6094646Y5099500D01*
X-5905355Y5099500D01*
X-5905354Y5099500D01*
X-5872897Y5106398D01*
X-5720197Y5138855D01*
X-5720192Y5138857D01*
X-5547270Y5215848D01*
X-5547265Y5215851D01*
X-5394129Y5327111D01*
X-5267466Y5467785D01*
X-5172821Y5631715D01*
X-5172818Y5631722D01*
X-5114327Y5811740D01*
X-5114326Y5811741D01*
X-5114326Y5811744D01*
X-5094540Y6000000D01*
X-5114326Y6188256D01*
X-5139606Y6266060D01*
X-5172818Y6368277D01*
X-5172821Y6368284D01*
X-5221426Y6452471D01*
X-5267467Y6532216D01*
X-5394129Y6672888D01*
X-5547265Y6784148D01*
X-5547270Y6784151D01*
X-5720191Y6861142D01*
X-5720194Y6861142D01*
X-5720197Y6861144D01*
X-5830227Y6884531D01*
X-5891709Y6917723D01*
X-5892128Y6918140D01*
X-10917701Y11943713D01*
X-6175500Y11943713D01*
X-6142246Y11733757D01*
X-6076557Y11531588D01*
X-5980051Y11342184D01*
X-5980048Y11342179D01*
X-5855109Y11170213D01*
X-5704786Y11019890D01*
X-5532820Y10894951D01*
X-5532816Y10894949D01*
X-5343412Y10798443D01*
X-5141243Y10732754D01*
X-5141241Y10732753D01*
X-5141240Y10732753D01*
X-4997581Y10710000D01*
X-4931287Y10699500D01*
X-4931286Y10699500D01*
X-4718714Y10699500D01*
X-4718713Y10699500D01*
X-4652419Y10710000D01*
X-4508760Y10732753D01*
X-4306585Y10798444D01*
X-4117179Y10894951D01*
X-3945213Y11019890D01*
X-3794894Y11170209D01*
X-3794890Y11170214D01*
X-3675318Y11334793D01*
X-3619989Y11377459D01*
X-3550375Y11383438D01*
X-3488580Y11350833D01*
X-3474682Y11334793D01*
X-3355109Y11170214D01*
X-3355105Y11170209D01*
X-3204786Y11019890D01*
X-3032820Y10894951D01*
X-3032816Y10894949D01*
X-2843412Y10798443D01*
X-2641243Y10732754D01*
X-2641241Y10732753D01*
X-2641240Y10732753D01*
X-2497581Y10710000D01*
X-2431287Y10699500D01*
X-2431286Y10699500D01*
X-2218714Y10699500D01*
X-2218713Y10699500D01*
X-2152419Y10710000D01*
X-2008760Y10732753D01*
X-1806585Y10798444D01*
X-1617179Y10894951D01*
X-1445213Y11019890D01*
X-1294890Y11170213D01*
X-1169951Y11342179D01*
X-1073444Y11531585D01*
X-1063561Y11562000D01*
X-1007754Y11733757D01*
X-1007753Y11733760D01*
X-974500Y11943713D01*
X-974500Y12406286D01*
X-1007753Y12616239D01*
X-1009128Y12620472D01*
X-1073443Y12818412D01*
X-1169949Y13007816D01*
X-1169951Y13007820D01*
X-1294890Y13179786D01*
X-1445213Y13330109D01*
X-1617179Y13455048D01*
X-1617181Y13455049D01*
X-1617184Y13455051D01*
X-1806588Y13551557D01*
X-2008757Y13617246D01*
X-2218713Y13650500D01*
X-2431287Y13650500D01*
X-2641243Y13617246D01*
X-2843412Y13551557D01*
X-3032816Y13455051D01*
X-3032820Y13455048D01*
X-3204786Y13330109D01*
X-3204788Y13330106D01*
X-3204792Y13330104D01*
X-3355104Y13179792D01*
X-3474683Y13015204D01*
X-3530011Y12972540D01*
X-3599624Y12966561D01*
X-3661420Y12999166D01*
X-3675313Y13015199D01*
X-3794896Y13179792D01*
X-3945208Y13330104D01*
X-3945213Y13330109D01*
X-4117179Y13455048D01*
X-4117181Y13455049D01*
X-4117184Y13455051D01*
X-4306588Y13551557D01*
X-4508757Y13617246D01*
X-4718713Y13650500D01*
X-4931287Y13650500D01*
X-5141243Y13617246D01*
X-5343412Y13551557D01*
X-5532816Y13455051D01*
X-5532820Y13455048D01*
X-5704786Y13330109D01*
X-5704788Y13330106D01*
X-5704792Y13330104D01*
X-5855104Y13179792D01*
X-5855106Y13179788D01*
X-5855109Y13179786D01*
X-5947369Y13052799D01*
X-5980051Y13007816D01*
X-6076557Y12818412D01*
X-6142246Y12616243D01*
X-6175500Y12406287D01*
X-6175500Y11943713D01*
X-10917701Y11943713D01*
X-12368569Y13394581D01*
X-12372897Y13398909D01*
X-12372899Y13398912D01*
X-12430701Y13456713D01*
X-12586446Y13612458D01*
X-12716562Y13725204D01*
X-12919371Y13900940D01*
X-13272008Y14164920D01*
X-13272013Y14164923D01*
X-13278702Y14169222D01*
X-13642597Y14403082D01*
X-14029226Y14614198D01*
X-14029230Y14614200D01*
X-14029237Y14614204D01*
X-14429920Y14797189D01*
X-14429923Y14797191D01*
X-14459600Y14808260D01*
X-14842670Y14951137D01*
X-15265339Y15075244D01*
X-15265340Y15075244D01*
X-15265346Y15075246D01*
X-15695779Y15168881D01*
X-15699042Y15169350D01*
X-16131815Y15231574D01*
X-16571206Y15263000D01*
X-20726253Y15263000D01*
X-20793292Y15282685D01*
X-20799138Y15286682D01*
X-20847265Y15321648D01*
X-20847270Y15321651D01*
X-21020192Y15398642D01*
X-21020197Y15398644D01*
X-21079965Y15411348D01*
X-21205354Y15438000D01*
X-21394646Y15438000D01*
X-21579803Y15398644D01*
X-21752730Y15321651D01*
X-21905871Y15210388D01*
X-22032533Y15069716D01*
X-22127179Y14905784D01*
X-22185674Y14725756D01*
X-22205460Y14537500D01*
X-22185674Y14349244D01*
X-22127179Y14169216D01*
X-22073466Y14076183D01*
X-22032533Y14005284D01*
X-22023699Y13995473D01*
X-21993469Y13932481D01*
X-22002093Y13863146D01*
X-22023698Y13829527D01*
X-22032533Y13819716D01*
X-22127179Y13655784D01*
X-22185674Y13475756D01*
X-22205460Y13287500D01*
X-22185674Y13099244D01*
X-22127179Y12919216D01*
X-22032533Y12755284D01*
X-21911147Y12620472D01*
X-21880917Y12557481D01*
X-21889542Y12488146D01*
X-21911146Y12454529D01*
X-22032533Y12319716D01*
X-22127179Y12155784D01*
X-22185674Y11975756D01*
X-22186711Y11965884D01*
X-22213289Y11901271D01*
X-22222341Y11891169D01*
X-22492703Y11620809D01*
X-22492706Y11620807D01*
X-22533064Y11580448D01*
X-22533067Y11580446D01*
X-22550508Y11563005D01*
X-22663179Y11450333D01*
X-22865350Y11203987D01*
X-23042400Y10939011D01*
X-23192627Y10657957D01*
X-23314582Y10363531D01*
X-23407091Y10058570D01*
X-23407092Y10058560D01*
X-23407093Y10058560D01*
X-23407096Y10058549D01*
X-23427599Y9955470D01*
X-23469263Y9746010D01*
X-23500500Y9428860D01*
X-23500500Y9269518D01*
X-23500501Y9187774D01*
X-37547216Y9187774D01*
X-37829492Y9778503D01*
X-37834536Y9788000D01*
X-38265298Y10599069D01*
X-38735535Y11400395D01*
X-39239357Y12181041D01*
X-39775857Y12939601D01*
X-39961516Y13179792D01*
X-40344073Y13674715D01*
X-40942952Y14385022D01*
X-40942962Y14385033D01*
X-40942966Y14385038D01*
X-41154932Y14615811D01*
X-40043568Y14615811D01*
X-40035416Y14581418D01*
X-40003107Y14445099D01*
X-40003107Y14445098D01*
X-39954967Y14349244D01*
X-39924369Y14288318D01*
X-39859112Y14208210D01*
X-38727729Y13076828D01*
X-38698228Y13052796D01*
X-38647623Y13011571D01*
X-38647615Y13011566D01*
X-38490839Y12932831D01*
X-38320135Y12892372D01*
X-38320130Y12892371D01*
X-38320128Y12892371D01*
X-38320125Y12892371D01*
X-38144689Y12892371D01*
X-38144686Y12892371D01*
X-38144684Y12892371D01*
X-38144678Y12892372D01*
X-37973976Y12932830D01*
X-37817189Y13011571D01*
X-37737095Y13076818D01*
X-37737077Y13076834D01*
X-36817842Y13996070D01*
X-36817820Y13996096D01*
X-36752582Y14076177D01*
X-36752578Y14076183D01*
X-36673837Y14232969D01*
X-36633379Y14403671D01*
X-36633378Y14403682D01*
X-36633378Y14579117D01*
X-36633379Y14579128D01*
X-36675316Y14756069D01*
X-36671623Y14825841D01*
X-36630795Y14882540D01*
X-36565794Y14908165D01*
X-36554659Y14908666D01*
X-36358355Y14908666D01*
X-36358354Y14908666D01*
X-36309683Y14916374D01*
X-36148401Y14941919D01*
X-35946226Y15007610D01*
X-35756824Y15104115D01*
X-35584847Y15229064D01*
X-35434539Y15379372D01*
X-35309590Y15551349D01*
X-35213085Y15740751D01*
X-35147394Y15942926D01*
X-35114141Y16152879D01*
X-35114141Y16171448D01*
X35215612Y16171448D01*
X35215613Y16171437D01*
X35256071Y16000735D01*
X35334812Y15843948D01*
X35400059Y15763854D01*
X35400075Y15763836D01*
X36319311Y14844601D01*
X36319332Y14844582D01*
X36399418Y14779341D01*
X36399424Y14779337D01*
X36556210Y14700596D01*
X36726912Y14660138D01*
X36726918Y14660137D01*
X36726920Y14660137D01*
X36726923Y14660137D01*
X36902359Y14660137D01*
X36902362Y14660137D01*
X36902364Y14660137D01*
X36902369Y14660138D01*
X37079310Y14702075D01*
X37149082Y14698382D01*
X37205781Y14657554D01*
X37231406Y14592553D01*
X37231907Y14581418D01*
X37231907Y14385113D01*
X37265160Y14175160D01*
X37330851Y13972985D01*
X37427356Y13783583D01*
X37552305Y13611606D01*
X37702613Y13461298D01*
X37874590Y13336349D01*
X38063992Y13239844D01*
X38266167Y13174153D01*
X38266166Y13174153D01*
X38436609Y13147157D01*
X38476120Y13140900D01*
X38476121Y13140900D01*
X38688693Y13140900D01*
X38688694Y13140900D01*
X38752051Y13150934D01*
X38898646Y13174153D01*
X38898648Y13174153D01*
X38898650Y13174154D01*
X39100819Y13239843D01*
X39290223Y13336349D01*
X39462198Y13461296D01*
X39824643Y13823741D01*
X39949590Y13995716D01*
X40046096Y14185120D01*
X40111785Y14387289D01*
X40145039Y14597245D01*
X40145039Y14809819D01*
X40111785Y15019775D01*
X40046096Y15221944D01*
X39949590Y15411348D01*
X39824643Y15583323D01*
X39674330Y15733636D01*
X39502355Y15858583D01*
X39312951Y15955089D01*
X39110782Y16020778D01*
X38900826Y16054032D01*
X38704521Y16054032D01*
X38637482Y16073717D01*
X38591727Y16126521D01*
X38581783Y16195679D01*
X38583864Y16206629D01*
X38625800Y16383569D01*
X38625802Y16383577D01*
X38625802Y16559019D01*
X38598460Y16674380D01*
X38585342Y16729728D01*
X38585341Y16729729D01*
X38585341Y16729731D01*
X38506603Y16886513D01*
X38441346Y16966620D01*
X37522095Y17885870D01*
X37441988Y17951128D01*
X37285206Y18029866D01*
X37285204Y18029866D01*
X37285203Y18029867D01*
X37206891Y18048427D01*
X37114494Y18070327D01*
X36939052Y18070327D01*
X36939044Y18070325D01*
X36768340Y18029866D01*
X36768339Y18029866D01*
X36614282Y17952495D01*
X36611559Y17951128D01*
X36531451Y17885871D01*
X35400069Y16754488D01*
X35379899Y16729728D01*
X35334812Y16674382D01*
X35334807Y16674374D01*
X35256072Y16517599D01*
X35256072Y16517598D01*
X35215613Y16346894D01*
X35215612Y16346883D01*
X35215612Y16171448D01*
X-35114141Y16171448D01*
X-35114141Y16365452D01*
X-35147394Y16575405D01*
X-35179553Y16674380D01*
X-35213084Y16777578D01*
X-35309590Y16966982D01*
X-35434537Y17138957D01*
X-35796982Y17501402D01*
X-35968957Y17626349D01*
X-36158361Y17722855D01*
X-36360530Y17788544D01*
X-36570486Y17821798D01*
X-36783060Y17821798D01*
X-36993016Y17788544D01*
X-37195185Y17722855D01*
X-37384589Y17626349D01*
X-37556564Y17501402D01*
X-37706877Y17351089D01*
X-37831824Y17179114D01*
X-37928330Y16989710D01*
X-37994019Y16787541D01*
X-38011942Y16674380D01*
X-38027273Y16577584D01*
X-38027273Y16381279D01*
X-38046958Y16314240D01*
X-38099762Y16268485D01*
X-38168920Y16258541D01*
X-38179871Y16260622D01*
X-38186105Y16262099D01*
X-38186106Y16262100D01*
X-38356818Y16302561D01*
X-38532260Y16302561D01*
X-38624657Y16280661D01*
X-38702969Y16262101D01*
X-38702970Y16262100D01*
X-38702972Y16262100D01*
X-38859754Y16183362D01*
X-38939861Y16118105D01*
X-39859111Y15198854D01*
X-39924369Y15118747D01*
X-40003107Y14961965D01*
X-40003107Y14961963D01*
X-40003108Y14961962D01*
X-40005675Y14951132D01*
X-40043568Y14791253D01*
X-40043568Y14615811D01*
X-41154932Y14615811D01*
X-41571471Y15069309D01*
X-41722519Y15221946D01*
X-41898279Y15399556D01*
X-49160324Y22661599D01*
X-49161545Y22662836D01*
X-49281932Y22786646D01*
X-49289977Y22795777D01*
X-49505749Y23066347D01*
X-49513796Y23077688D01*
X-49697458Y23369984D01*
X-49704184Y23382154D01*
X-49853961Y23693169D01*
X-49859283Y23706017D01*
X-49973300Y24031860D01*
X-49977149Y24045222D01*
X-50053964Y24381772D01*
X-50056293Y24395480D01*
X-50094944Y24738510D01*
X-50095724Y24752394D01*
X-50095724Y24799265D01*
X-48495775Y24799265D01*
X-48486152Y24738510D01*
X-48456439Y24550910D01*
X-48401489Y24381791D01*
X-48378732Y24311755D01*
X-48337317Y24230474D01*
X-48264575Y24087710D01*
X-48264572Y24087706D01*
X-48116777Y23884282D01*
X-48116773Y23884277D01*
X-47938963Y23706467D01*
X-47938958Y23706463D01*
X-47735534Y23558668D01*
X-47735531Y23558666D01*
X-47665563Y23523015D01*
X-47511485Y23444508D01*
X-47272331Y23366801D01*
X-47023975Y23327466D01*
X-46772512Y23327466D01*
X-46772507Y23327466D01*
X-46524150Y23366801D01*
X-46284996Y23444508D01*
X-46060947Y23558668D01*
X-45857523Y23706463D01*
X-45857518Y23706467D01*
X-45679708Y23884277D01*
X-45679704Y23884282D01*
X-45531909Y24087706D01*
X-45417749Y24311755D01*
X-45340043Y24550909D01*
X-45300706Y24799274D01*
X-45298240Y24925000D01*
X-45300706Y25050725D01*
X-45340043Y25299090D01*
X-45417749Y25538244D01*
X-45531909Y25762293D01*
X-45679704Y25965717D01*
X-45679708Y25965722D01*
X-45857518Y26143532D01*
X-45857523Y26143536D01*
X-46060947Y26291331D01*
X-46060951Y26291334D01*
X-46203715Y26364076D01*
X-46284996Y26405491D01*
X-46284998Y26405491D01*
X-46285001Y26405493D01*
X-46413190Y26447144D01*
X-46524150Y26483198D01*
X-46772507Y26522534D01*
X-46772512Y26522534D01*
X-47023970Y26522534D01*
X-47023975Y26522534D01*
X-47272331Y26483198D01*
X-47511481Y26405493D01*
X-47735531Y26291334D01*
X-47938965Y26143531D01*
X-48116772Y25965724D01*
X-48264575Y25762290D01*
X-48378734Y25538240D01*
X-48456439Y25299090D01*
X-48495775Y25050734D01*
X-48495775Y24799265D01*
X-50095724Y24799265D01*
X-50095724Y25097605D01*
X-50094944Y25111489D01*
X-50056293Y25454519D01*
X-50053964Y25468227D01*
X-49977149Y25804777D01*
X-49973300Y25818139D01*
X-49859283Y26143982D01*
X-49853961Y26156830D01*
X-49704184Y26467845D01*
X-49697458Y26480015D01*
X-49513796Y26772311D01*
X-49505749Y26783652D01*
X-49290515Y27053547D01*
X-49281249Y27063915D01*
X-49037156Y27308008D01*
X-49026788Y27317274D01*
X-48756893Y27532508D01*
X-48745552Y27540555D01*
X-48453256Y27724217D01*
X-48441086Y27730943D01*
X-48130071Y27880720D01*
X-48117223Y27886042D01*
X-47791380Y28000059D01*
X-47778018Y28003908D01*
X-47441468Y28080723D01*
X-47427760Y28083052D01*
X-47084731Y28121703D01*
X-47070847Y28122483D01*
X-46725635Y28122483D01*
X-46711751Y28121703D01*
G37*
%TD.AperFunction*%
%TD*%
M02*
