%TF.GenerationSoftware,KiCad,Pcbnew,8.0.1*%
%TF.CreationDate,2024-07-20T23:22:33+09:00*%
%TF.ProjectId,MD-20240410,4d442d32-3032-4343-9034-31302e6b6963,rev?*%
%TF.SameCoordinates,Original*%
%TF.FileFunction,Copper,L1,Top*%
%TF.FilePolarity,Positive*%
%FSLAX46Y46*%
G04 Gerber Fmt 4.6, Leading zero omitted, Abs format (unit mm)*
G04 Created by KiCad (PCBNEW 8.0.1) date 2024-07-20 23:22:33*
%MOMM*%
%LPD*%
G01*
G04 APERTURE LIST*
G04 Aperture macros list*
%AMRoundRect*
0 Rectangle with rounded corners*
0 $1 Rounding radius*
0 $2 $3 $4 $5 $6 $7 $8 $9 X,Y pos of 4 corners*
0 Add a 4 corners polygon primitive as box body*
4,1,4,$2,$3,$4,$5,$6,$7,$8,$9,$2,$3,0*
0 Add four circle primitives for the rounded corners*
1,1,$1+$1,$2,$3*
1,1,$1+$1,$4,$5*
1,1,$1+$1,$6,$7*
1,1,$1+$1,$8,$9*
0 Add four rect primitives between the rounded corners*
20,1,$1+$1,$2,$3,$4,$5,0*
20,1,$1+$1,$4,$5,$6,$7,0*
20,1,$1+$1,$6,$7,$8,$9,0*
20,1,$1+$1,$8,$9,$2,$3,0*%
%AMHorizOval*
0 Thick line with rounded ends*
0 $1 width*
0 $2 $3 position (X,Y) of the first rounded end (center of the circle)*
0 $4 $5 position (X,Y) of the second rounded end (center of the circle)*
0 Add line between two ends*
20,1,$1,$2,$3,$4,$5,0*
0 Add two circle primitives to create the rounded ends*
1,1,$1,$2,$3*
1,1,$1,$4,$5*%
G04 Aperture macros list end*
%TA.AperFunction,NonConductor*%
%ADD10C,0.200000*%
%TD*%
%TA.AperFunction,SMDPad,CuDef*%
%ADD11RoundRect,0.150000X0.150000X-0.587500X0.150000X0.587500X-0.150000X0.587500X-0.150000X-0.587500X0*%
%TD*%
%TA.AperFunction,SMDPad,CuDef*%
%ADD12RoundRect,0.200000X-0.200000X-0.275000X0.200000X-0.275000X0.200000X0.275000X-0.200000X0.275000X0*%
%TD*%
%TA.AperFunction,SMDPad,CuDef*%
%ADD13R,0.610000X2.000000*%
%TD*%
%TA.AperFunction,SMDPad,CuDef*%
%ADD14R,2.680000X3.600000*%
%TD*%
%TA.AperFunction,SMDPad,CuDef*%
%ADD15RoundRect,0.200000X-0.275000X0.200000X-0.275000X-0.200000X0.275000X-0.200000X0.275000X0.200000X0*%
%TD*%
%TA.AperFunction,ComponentPad*%
%ADD16RoundRect,0.250000X0.954594X0.106066X0.106066X0.954594X-0.954594X-0.106066X-0.106066X-0.954594X0*%
%TD*%
%TA.AperFunction,ComponentPad*%
%ADD17HorizOval,1.700000X0.106066X0.106066X-0.106066X-0.106066X0*%
%TD*%
%TA.AperFunction,SMDPad,CuDef*%
%ADD18RoundRect,0.225000X0.225000X0.250000X-0.225000X0.250000X-0.225000X-0.250000X0.225000X-0.250000X0*%
%TD*%
%TA.AperFunction,SMDPad,CuDef*%
%ADD19RoundRect,0.100000X-0.100000X0.687500X-0.100000X-0.687500X0.100000X-0.687500X0.100000X0.687500X0*%
%TD*%
%TA.AperFunction,HeatsinkPad*%
%ADD20R,5.000000X3.400000*%
%TD*%
%TA.AperFunction,SMDPad,CuDef*%
%ADD21RoundRect,0.200000X0.275000X-0.200000X0.275000X0.200000X-0.275000X0.200000X-0.275000X-0.200000X0*%
%TD*%
%TA.AperFunction,ComponentPad*%
%ADD22RoundRect,0.250000X-0.954594X-0.106066X-0.106066X-0.954594X0.954594X0.106066X0.106066X0.954594X0*%
%TD*%
%TA.AperFunction,ComponentPad*%
%ADD23HorizOval,1.700000X-0.106066X-0.106066X0.106066X0.106066X0*%
%TD*%
%TA.AperFunction,SMDPad,CuDef*%
%ADD24RoundRect,0.225000X-0.225000X-0.250000X0.225000X-0.250000X0.225000X0.250000X-0.225000X0.250000X0*%
%TD*%
%TA.AperFunction,SMDPad,CuDef*%
%ADD25RoundRect,0.100000X0.100000X-0.687500X0.100000X0.687500X-0.100000X0.687500X-0.100000X-0.687500X0*%
%TD*%
%TA.AperFunction,ComponentPad*%
%ADD26C,3.400000*%
%TD*%
%TA.AperFunction,ComponentPad*%
%ADD27RoundRect,0.250000X0.600000X0.725000X-0.600000X0.725000X-0.600000X-0.725000X0.600000X-0.725000X0*%
%TD*%
%TA.AperFunction,ComponentPad*%
%ADD28O,1.700000X1.950000*%
%TD*%
%TA.AperFunction,ComponentPad*%
%ADD29RoundRect,0.250000X0.106066X-0.954594X0.954594X-0.106066X-0.106066X0.954594X-0.954594X0.106066X0*%
%TD*%
%TA.AperFunction,ComponentPad*%
%ADD30HorizOval,1.700000X-0.106066X0.106066X0.106066X-0.106066X0*%
%TD*%
%TA.AperFunction,ComponentPad*%
%ADD31RoundRect,0.250000X-0.106066X0.954594X-0.954594X0.106066X0.106066X-0.954594X0.954594X-0.106066X0*%
%TD*%
%TA.AperFunction,ComponentPad*%
%ADD32RoundRect,0.250000X-0.725000X0.600000X-0.725000X-0.600000X0.725000X-0.600000X0.725000X0.600000X0*%
%TD*%
%TA.AperFunction,ComponentPad*%
%ADD33O,1.950000X1.700000*%
%TD*%
%TA.AperFunction,ViaPad*%
%ADD34C,0.800000*%
%TD*%
%TA.AperFunction,ViaPad*%
%ADD35C,0.500000*%
%TD*%
%TA.AperFunction,Conductor*%
%ADD36C,0.450000*%
%TD*%
%TA.AperFunction,Conductor*%
%ADD37C,0.500000*%
%TD*%
%TA.AperFunction,Conductor*%
%ADD38C,1.000000*%
%TD*%
G04 APERTURE END LIST*
D10*
X52248241Y-25075000D02*
G75*
G02*
X42248241Y-25075000I-5000000J0D01*
G01*
X42248241Y-25075000D02*
G75*
G02*
X52248241Y-25075000I5000000J0D01*
G01*
X-41898241Y-25075000D02*
G75*
G02*
X-51898241Y-25075000I-5000000J0D01*
G01*
X-51898241Y-25075000D02*
G75*
G02*
X-41898241Y-25075000I5000000J0D01*
G01*
X52248241Y24925000D02*
G75*
G02*
X42248241Y24925000I-5000000J0D01*
G01*
X42248241Y24925000D02*
G75*
G02*
X52248241Y24925000I5000000J0D01*
G01*
X-41898241Y24925000D02*
G75*
G02*
X-51898241Y24925000I-5000000J0D01*
G01*
X-51898241Y24925000D02*
G75*
G02*
X-41898241Y24925000I5000000J0D01*
G01*
D11*
%TO.P,Q3,3,S*%
%TO.N,Line-MD-Main=RX_3.3V*%
X15250000Y-11950000D03*
%TO.P,Q3,2,G*%
%TO.N,SLEEP-1*%
X16200000Y-13825000D03*
%TO.P,Q3,1,D*%
%TO.N,Line-MD-Main=RX_5V*%
X14300000Y-13825000D03*
%TD*%
D12*
%TO.P,R1,1*%
%TO.N,SLEEP-1*%
X6600000Y6675000D03*
%TO.P,R1,2*%
%TO.N,Net-(D1-A)*%
X8250000Y6675000D03*
%TD*%
D13*
%TO.P,J8,1,Pin_1*%
%TO.N,EN-1*%
X-7000000Y3837500D03*
%TO.P,J8,2,Pin_2*%
%TO.N,PH-1*%
X-6000000Y3837500D03*
%TO.P,J8,3,Pin_3*%
%TO.N,EN-2*%
X-5000000Y3837500D03*
%TO.P,J8,4,Pin_4*%
%TO.N,PH-2*%
X-4000000Y3837500D03*
%TO.P,J8,5,Pin_5*%
%TO.N,EN-3*%
X-3000000Y3837500D03*
%TO.P,J8,6,Pin_6*%
%TO.N,PH-3*%
X-2000000Y3837500D03*
%TO.P,J8,7,Pin_7*%
%TO.N,EN-4*%
X-1000000Y3837500D03*
%TO.P,J8,8,Pin_8*%
%TO.N,PH-4*%
X0Y3837500D03*
%TO.P,J8,9,Pin_9*%
%TO.N,ball01k*%
X1000000Y3837500D03*
%TO.P,J8,10,Pin_10*%
%TO.N,KickerSignal-main*%
X2000000Y3837500D03*
%TO.P,J8,11,Pin_11*%
%TO.N,ball02k*%
X3000000Y3837500D03*
%TO.P,J8,12,Pin_12*%
%TO.N,Line-MD-Main=RX_3.3V*%
X4000000Y3837500D03*
%TO.P,J8,13,Pin_13*%
%TO.N,Line-MD-Main=TX_3.3V*%
X5000000Y3837500D03*
%TO.P,J8,14,Pin_14*%
%TO.N,SLEEP-1*%
X6000000Y3837500D03*
%TO.P,J8,15,Pin_15*%
%TO.N,GND*%
X7000000Y3837500D03*
D14*
%TO.P,J8,MP*%
%TO.N,N/C*%
X-9990000Y1037500D03*
X9990000Y1037500D03*
%TD*%
D15*
%TO.P,R16,1*%
%TO.N,Net-(U4-IPROPI)*%
X24425000Y5500000D03*
%TO.P,R16,2*%
%TO.N,GND*%
X24425000Y3850000D03*
%TD*%
%TO.P,R13,1*%
%TO.N,SLEEP-1*%
X21425000Y-17000000D03*
%TO.P,R13,2*%
%TO.N,VREF-3*%
X21425000Y-18650000D03*
%TD*%
D16*
%TO.P,J4,1,Pin_1*%
%TO.N,OUT2-2*%
X-36570707Y-16515232D03*
D17*
%TO.P,J4,2,Pin_2*%
%TO.N,OUT1-2*%
X-38338473Y-14747466D03*
%TD*%
D15*
%TO.P,R23,2*%
%TO.N,Line-MD-Main=TX_5V*%
X16500000Y-1825000D03*
%TO.P,R23,1*%
%TO.N,+5V*%
X16500000Y-175000D03*
%TD*%
D18*
%TO.P,C4,1*%
%TO.N,VM*%
X8450000Y-16075000D03*
%TO.P,C4,2*%
%TO.N,GND*%
X6900000Y-16075000D03*
%TD*%
D19*
%TO.P,U2,1,EN*%
%TO.N,EN-2*%
X-22550000Y-9212500D03*
%TO.P,U2,2,PH*%
%TO.N,PH-2*%
X-23200000Y-9212500D03*
%TO.P,U2,3,SLEEP*%
%TO.N,SLEEP-1*%
X-23850000Y-9212500D03*
%TO.P,U2,4,FAULT*%
%TO.N,unconnected-(U2-FAULT-Pad4)*%
X-24500000Y-9212500D03*
%TO.P,U2,5,VREF*%
%TO.N,VREF-2*%
X-25150000Y-9212500D03*
%TO.P,U2,6,IPROPI*%
%TO.N,Net-(U2-IPROPI)*%
X-25800000Y-9212500D03*
%TO.P,U2,7,IMODE*%
%TO.N,IMODE-2*%
X-26450000Y-9212500D03*
%TO.P,U2,8,OUT1*%
%TO.N,OUT1-2*%
X-27100000Y-9212500D03*
%TO.P,U2,9,PGND*%
%TO.N,GND*%
X-27100000Y-14937500D03*
%TO.P,U2,10,OUT2*%
%TO.N,OUT2-2*%
X-26450000Y-14937500D03*
%TO.P,U2,11,VM*%
%TO.N,VM*%
X-25800000Y-14937500D03*
%TO.P,U2,12,VCP*%
%TO.N,Net-(U2-VCP)*%
X-25150000Y-14937500D03*
%TO.P,U2,13,CPH*%
%TO.N,Net-(U2-CPH)*%
X-24500000Y-14937500D03*
%TO.P,U2,14,CPL*%
%TO.N,Net-(U2-CPL)*%
X-23850000Y-14937500D03*
%TO.P,U2,15,GND*%
%TO.N,GND*%
X-23200000Y-14937500D03*
%TO.P,U2,16,PMODE*%
X-22550000Y-14937500D03*
D20*
%TO.P,U2,17,GND*%
X-24825000Y-12075000D03*
%TD*%
D19*
%TO.P,U1,1,EN*%
%TO.N,EN-1*%
X-22550000Y13287500D03*
%TO.P,U1,2,PH*%
%TO.N,PH-1*%
X-23200000Y13287500D03*
%TO.P,U1,3,SLEEP*%
%TO.N,SLEEP-1*%
X-23850000Y13287500D03*
%TO.P,U1,4,FAULT*%
%TO.N,unconnected-(U1-FAULT-Pad4)*%
X-24500000Y13287500D03*
%TO.P,U1,5,VREF*%
%TO.N,VREF-1*%
X-25150000Y13287500D03*
%TO.P,U1,6,IPROPI*%
%TO.N,Net-(U1-IPROPI)*%
X-25800000Y13287500D03*
%TO.P,U1,7,IMODE*%
%TO.N,IMODE-1*%
X-26450000Y13287500D03*
%TO.P,U1,8,OUT1*%
%TO.N,OUT1-1*%
X-27100000Y13287500D03*
%TO.P,U1,9,PGND*%
%TO.N,GND*%
X-27100000Y7562500D03*
%TO.P,U1,10,OUT2*%
%TO.N,OUT2-1*%
X-26450000Y7562500D03*
%TO.P,U1,11,VM*%
%TO.N,VM*%
X-25800000Y7562500D03*
%TO.P,U1,12,VCP*%
%TO.N,Net-(U1-VCP)*%
X-25150000Y7562500D03*
%TO.P,U1,13,CPH*%
%TO.N,Net-(U1-CPH)*%
X-24500000Y7562500D03*
%TO.P,U1,14,CPL*%
%TO.N,Net-(U1-CPL)*%
X-23850000Y7562500D03*
%TO.P,U1,15,GND*%
%TO.N,GND*%
X-23200000Y7562500D03*
%TO.P,U1,16,PMODE*%
X-22550000Y7562500D03*
D20*
%TO.P,U1,17,GND*%
X-24825000Y10425000D03*
%TD*%
D18*
%TO.P,C9,1*%
%TO.N,Net-(U2-CPL)*%
X-21250000Y-17725000D03*
%TO.P,C9,2*%
%TO.N,Net-(U2-CPH)*%
X-22800000Y-17725000D03*
%TD*%
%TO.P,C5,1*%
%TO.N,VM*%
X8450000Y-14575000D03*
%TO.P,C5,2*%
%TO.N,GND*%
X6900000Y-14575000D03*
%TD*%
%TO.P,C8,1*%
%TO.N,VM*%
X8450000Y-11575000D03*
%TO.P,C8,2*%
%TO.N,GND*%
X6900000Y-11575000D03*
%TD*%
%TO.P,C10,1*%
%TO.N,Net-(U2-VCP)*%
X-24250000Y-17725000D03*
%TO.P,C10,2*%
%TO.N,VM*%
X-25800000Y-17725000D03*
%TD*%
D15*
%TO.P,R14,1*%
%TO.N,VREF-3*%
X22925000Y-17000000D03*
%TO.P,R14,2*%
%TO.N,GND*%
X22925000Y-18650000D03*
%TD*%
%TO.P,R17,1*%
%TO.N,SLEEP-1*%
X21425000Y5500000D03*
%TO.P,R17,2*%
%TO.N,VREF-4*%
X21425000Y3850000D03*
%TD*%
%TO.P,R21,2*%
%TO.N,Line-MD-Main=RX_5V*%
X16500000Y-4825000D03*
%TO.P,R21,1*%
%TO.N,+5V*%
X16500000Y-3175000D03*
%TD*%
D21*
%TO.P,R7,1*%
%TO.N,IMODE-1*%
X-25575000Y16850000D03*
%TO.P,R7,2*%
%TO.N,GND*%
X-25575000Y18500000D03*
%TD*%
D15*
%TO.P,R12,1*%
%TO.N,Net-(U3-IPROPI)*%
X24425000Y-17000000D03*
%TO.P,R12,2*%
%TO.N,GND*%
X24425000Y-18650000D03*
%TD*%
D22*
%TO.P,J6,1,Pin_1*%
%TO.N,OUT2-4*%
X36920707Y16365232D03*
D23*
%TO.P,J6,2,Pin_2*%
%TO.N,OUT1-4*%
X38688473Y14597466D03*
%TD*%
D21*
%TO.P,R8,1*%
%TO.N,Net-(U2-IPROPI)*%
X-24075000Y-5650000D03*
%TO.P,R8,2*%
%TO.N,GND*%
X-24075000Y-4000000D03*
%TD*%
D24*
%TO.P,C12,1*%
%TO.N,Net-(U3-VCP)*%
X24600000Y-4925000D03*
%TO.P,C12,2*%
%TO.N,VM*%
X26150000Y-4925000D03*
%TD*%
D25*
%TO.P,U3,1,EN*%
%TO.N,EN-3*%
X22900000Y-13437500D03*
%TO.P,U3,2,PH*%
%TO.N,PH-3*%
X23550000Y-13437500D03*
%TO.P,U3,3,SLEEP*%
%TO.N,SLEEP-1*%
X24200000Y-13437500D03*
%TO.P,U3,4,FAULT*%
%TO.N,unconnected-(U3-FAULT-Pad4)*%
X24850000Y-13437500D03*
%TO.P,U3,5,VREF*%
%TO.N,VREF-3*%
X25500000Y-13437500D03*
%TO.P,U3,6,IPROPI*%
%TO.N,Net-(U3-IPROPI)*%
X26150000Y-13437500D03*
%TO.P,U3,7,IMODE*%
%TO.N,IMODE-3*%
X26800000Y-13437500D03*
%TO.P,U3,8,OUT1*%
%TO.N,OUT1-3*%
X27450000Y-13437500D03*
%TO.P,U3,9,PGND*%
%TO.N,GND*%
X27450000Y-7712500D03*
%TO.P,U3,10,OUT2*%
%TO.N,OUT2-3*%
X26800000Y-7712500D03*
%TO.P,U3,11,VM*%
%TO.N,VM*%
X26150000Y-7712500D03*
%TO.P,U3,12,VCP*%
%TO.N,Net-(U3-VCP)*%
X25500000Y-7712500D03*
%TO.P,U3,13,CPH*%
%TO.N,Net-(U3-CPH)*%
X24850000Y-7712500D03*
%TO.P,U3,14,CPL*%
%TO.N,Net-(U3-CPL)*%
X24200000Y-7712500D03*
%TO.P,U3,15,GND*%
%TO.N,GND*%
X23550000Y-7712500D03*
%TO.P,U3,16,PMODE*%
X22900000Y-7712500D03*
D20*
%TO.P,U3,17,GND*%
X25175000Y-10575000D03*
%TD*%
D26*
%TO.P,J7,1,Pin_1*%
%TO.N,VM*%
X-2325000Y-16075000D03*
%TO.P,J7,2,Pin_2*%
%TO.N,GND*%
X2675000Y-16075000D03*
%TD*%
D24*
%TO.P,C14,1*%
%TO.N,Net-(U4-VCP)*%
X24600000Y17575000D03*
%TO.P,C14,2*%
%TO.N,VM*%
X26150000Y17575000D03*
%TD*%
D15*
%TO.P,R18,1*%
%TO.N,VREF-4*%
X22925000Y5500000D03*
%TO.P,R18,2*%
%TO.N,GND*%
X22925000Y3850000D03*
%TD*%
%TO.P,R15,1*%
%TO.N,IMODE-3*%
X25925000Y-17000000D03*
%TO.P,R15,2*%
%TO.N,GND*%
X25925000Y-18650000D03*
%TD*%
D21*
%TO.P,R10,1*%
%TO.N,VREF-2*%
X-22575000Y-5650000D03*
%TO.P,R10,2*%
%TO.N,GND*%
X-22575000Y-4000000D03*
%TD*%
D18*
%TO.P,C3,1*%
%TO.N,VM*%
X8450000Y-17545000D03*
%TO.P,C3,2*%
%TO.N,GND*%
X6900000Y-17545000D03*
%TD*%
D21*
%TO.P,R4,1*%
%TO.N,Net-(U1-IPROPI)*%
X-24075000Y16850000D03*
%TO.P,R4,2*%
%TO.N,GND*%
X-24075000Y18500000D03*
%TD*%
D25*
%TO.P,U4,1,EN*%
%TO.N,EN-4*%
X22900000Y9062500D03*
%TO.P,U4,2,PH*%
%TO.N,PH-4*%
X23550000Y9062500D03*
%TO.P,U4,3,SLEEP*%
%TO.N,SLEEP-1*%
X24200000Y9062500D03*
%TO.P,U4,4,FAULT*%
%TO.N,unconnected-(U4-FAULT-Pad4)*%
X24850000Y9062500D03*
%TO.P,U4,5,VREF*%
%TO.N,VREF-4*%
X25500000Y9062500D03*
%TO.P,U4,6,IPROPI*%
%TO.N,Net-(U4-IPROPI)*%
X26150000Y9062500D03*
%TO.P,U4,7,IMODE*%
%TO.N,IMODE-4*%
X26800000Y9062500D03*
%TO.P,U4,8,OUT1*%
%TO.N,OUT1-4*%
X27450000Y9062500D03*
%TO.P,U4,9,PGND*%
%TO.N,GND*%
X27450000Y14787500D03*
%TO.P,U4,10,OUT2*%
%TO.N,OUT2-4*%
X26800000Y14787500D03*
%TO.P,U4,11,VM*%
%TO.N,VM*%
X26150000Y14787500D03*
%TO.P,U4,12,VCP*%
%TO.N,Net-(U4-VCP)*%
X25500000Y14787500D03*
%TO.P,U4,13,CPH*%
%TO.N,Net-(U4-CPH)*%
X24850000Y14787500D03*
%TO.P,U4,14,CPL*%
%TO.N,Net-(U4-CPL)*%
X24200000Y14787500D03*
%TO.P,U4,15,GND*%
%TO.N,GND*%
X23550000Y14787500D03*
%TO.P,U4,16,PMODE*%
X22900000Y14787500D03*
D20*
%TO.P,U4,17,GND*%
X25175000Y11925000D03*
%TD*%
D18*
%TO.P,C1,1*%
%TO.N,Net-(U1-CPL)*%
X-21250000Y4775000D03*
%TO.P,C1,2*%
%TO.N,Net-(U1-CPH)*%
X-22800000Y4775000D03*
%TD*%
D24*
%TO.P,C11,1*%
%TO.N,Net-(U3-CPL)*%
X21600000Y-4925000D03*
%TO.P,C11,2*%
%TO.N,Net-(U3-CPH)*%
X23150000Y-4925000D03*
%TD*%
D15*
%TO.P,R19,1*%
%TO.N,IMODE-4*%
X25925000Y5500000D03*
%TO.P,R19,2*%
%TO.N,GND*%
X25925000Y3850000D03*
%TD*%
D21*
%TO.P,R11,1*%
%TO.N,IMODE-2*%
X-25575000Y-5650000D03*
%TO.P,R11,2*%
%TO.N,GND*%
X-25575000Y-4000000D03*
%TD*%
D24*
%TO.P,C13,1*%
%TO.N,Net-(U4-CPL)*%
X21600000Y17575000D03*
%TO.P,C13,2*%
%TO.N,Net-(U4-CPH)*%
X23150000Y17575000D03*
%TD*%
D21*
%TO.P,R3,1*%
%TO.N,SLEEP-1*%
X-21075000Y16850000D03*
%TO.P,R3,2*%
%TO.N,VREF-1*%
X-21075000Y18500000D03*
%TD*%
D18*
%TO.P,C2,1*%
%TO.N,Net-(U1-VCP)*%
X-24250000Y4775000D03*
%TO.P,C2,2*%
%TO.N,VM*%
X-25800000Y4775000D03*
%TD*%
D27*
%TO.P,J1,1,Pin_1*%
%TO.N,ball02k*%
X5175000Y12175000D03*
D28*
%TO.P,J1,2,Pin_2*%
%TO.N,KickerSignal-main*%
X2675000Y12175000D03*
%TO.P,J1,3,Pin_3*%
%TO.N,GND*%
X175000Y12175000D03*
%TO.P,J1,4,Pin_4*%
%TO.N,SLEEP-1*%
X-2325000Y12175000D03*
%TO.P,J1,5,Pin_5*%
%TO.N,ball01k*%
X-4825000Y12175000D03*
%TD*%
D21*
%TO.P,R9,1*%
%TO.N,SLEEP-1*%
X-21075000Y-5650000D03*
%TO.P,R9,2*%
%TO.N,VREF-2*%
X-21075000Y-4000000D03*
%TD*%
D29*
%TO.P,J3,1,Pin_1*%
%TO.N,OUT2-1*%
X-38338473Y14597466D03*
D30*
%TO.P,J3,2,Pin_2*%
%TO.N,OUT1-1*%
X-36570707Y16365232D03*
%TD*%
D31*
%TO.P,J5,1,Pin_1*%
%TO.N,OUT2-3*%
X38688473Y-14747466D03*
D30*
%TO.P,J5,2,Pin_2*%
%TO.N,OUT1-3*%
X36920707Y-16515232D03*
%TD*%
D15*
%TO.P,R22,2*%
%TO.N,SLEEP-1*%
X18250000Y-14075000D03*
%TO.P,R22,1*%
%TO.N,Line-MD-Main=TX_3.3V*%
X18250000Y-12425000D03*
%TD*%
D11*
%TO.P,Q4,1,D*%
%TO.N,Line-MD-Main=TX_5V*%
X10550000Y-13825000D03*
%TO.P,Q4,2,G*%
%TO.N,SLEEP-1*%
X12450000Y-13825000D03*
%TO.P,Q4,3,S*%
%TO.N,Line-MD-Main=TX_3.3V*%
X11500000Y-11950000D03*
%TD*%
D21*
%TO.P,R6,1*%
%TO.N,VREF-1*%
X-22575000Y16850000D03*
%TO.P,R6,2*%
%TO.N,GND*%
X-22575000Y18500000D03*
%TD*%
D18*
%TO.P,C7,1*%
%TO.N,VM*%
X8450000Y-13075000D03*
%TO.P,C7,2*%
%TO.N,GND*%
X6900000Y-13075000D03*
%TD*%
D15*
%TO.P,R20,2*%
%TO.N,SLEEP-1*%
X20000000Y-14075000D03*
%TO.P,R20,1*%
%TO.N,Line-MD-Main=RX_3.3V*%
X20000000Y-12425000D03*
%TD*%
D32*
%TO.P,J2,1,Pin_1*%
%TO.N,+5V*%
X14250000Y3750000D03*
D33*
%TO.P,J2,2,Pin_2*%
%TO.N,GND*%
X14250000Y1250000D03*
%TO.P,J2,3,Pin_3*%
%TO.N,Line-MD-Main=TX_5V*%
X14250000Y-1250000D03*
%TO.P,J2,4,Pin_4*%
%TO.N,Line-MD-Main=RX_5V*%
X14250000Y-3750000D03*
%TD*%
D34*
%TO.N,Line-MD-Main=RX_5V*%
X15250000Y-9000000D03*
%TO.N,Line-MD-Main=TX_5V*%
X8250000Y-1250000D03*
X10000000Y-10250000D03*
%TO.N,Line-MD-Main=RX_3.3V*%
X20000000Y-11250000D03*
%TO.N,Line-MD-Main=TX_3.3V*%
X18250000Y-11250000D03*
%TO.N,Line-MD-Main=RX_3.3V*%
X15250000Y-10250000D03*
%TO.N,Line-MD-Main=TX_3.3V*%
X11500000Y-10250000D03*
%TO.N,PH-1*%
X-6000000Y6000000D03*
%TO.N,EN-1*%
X-7000000Y5750000D03*
%TO.N,PH-3*%
X-2000000Y-4000000D03*
%TO.N,EN-3*%
X-3000000Y-5000000D03*
%TO.N,PH-2*%
X-4000000Y-5000000D03*
%TO.N,Line-MD-Main=TX_3.3V*%
X5000000Y5750000D03*
%TO.N,Line-MD-Main=RX_3.3V*%
X4000000Y6000000D03*
%TO.N,GND*%
X7000000Y2000000D03*
%TO.N,EN-4*%
X-1000000Y6000000D03*
%TO.N,PH-4*%
X0Y5750000D03*
%TO.N,EN-2*%
X-5000000Y-4000000D03*
%TO.N,GND*%
X21675000Y-10575000D03*
X-21325000Y10425000D03*
X23675000Y-18650000D03*
X21675000Y11925000D03*
X-24825000Y18500000D03*
X25175000Y-18650000D03*
X-24825000Y-4000000D03*
D35*
X-21325000Y-12075000D03*
D34*
X-23325000Y18500000D03*
X25175000Y3850000D03*
%TO.N,Net-(D1-A)*%
X8675000Y4175000D03*
%TO.N,EN-1*%
X-21300000Y13287500D03*
%TO.N,PH-1*%
X-21300000Y14537500D03*
%TO.N,EN-2*%
X-21300000Y-9212500D03*
%TO.N,PH-2*%
X-21300000Y-7962500D03*
%TO.N,PH-4*%
X21650000Y7812500D03*
%TO.N,EN-4*%
X21650000Y9062500D03*
%TO.N,EN-3*%
X21650000Y-13437500D03*
%TO.N,PH-3*%
X21650000Y-14687500D03*
%TO.N,SLEEP-1*%
X-21300000Y11787500D03*
X6600000Y10537500D03*
X-5050000Y-14212500D03*
X21700000Y10537500D03*
X-21300000Y-10462500D03*
%TD*%
D36*
%TO.N,+5V*%
X16500000Y-6249D02*
G75*
G03*
X16668750Y-174900I168700J49D01*
G01*
%TO.N,SLEEP-1*%
X18125000Y-13950000D02*
G75*
G03*
X17823223Y-13824991I-301800J-301800D01*
G01*
X13471447Y-14846445D02*
G75*
G03*
X14325000Y-15200001I853553J853545D01*
G01*
X15178553Y-14846446D02*
G75*
G02*
X14325000Y-15200001I-853553J853546D01*
G01*
X18125000Y-13950000D02*
G75*
G03*
X18426776Y-14075009I301800J301800D01*
G01*
X19569530Y-18180468D02*
X19427343Y-18322656D01*
X19920598Y-17829399D02*
X19645024Y-18104974D01*
X20435856Y-17314142D02*
X20284867Y-17465130D01*
X20196172Y-17553825D02*
X19920598Y-17829399D01*
%TO.N,OUT2-2*%
X-26675000Y-17405954D02*
X-26675000Y-17419477D01*
X-26675000Y-18072138D02*
X-26675000Y-18077859D01*
X-26675000Y-17610684D02*
X-26675000Y-17612946D01*
X-26675000Y-17998581D02*
X-26675000Y-18000333D01*
X-26675000Y-17458358D02*
X-26675000Y-17475264D01*
X-26675000Y-17360315D02*
X-26675000Y-17363695D01*
X-26675000Y-17654240D02*
X-26675000Y-17664009D01*
X-26675000Y-18049826D02*
X-26675000Y-18054403D01*
X-26675000Y-17919144D02*
X-26675000Y-17942591D01*
X-26675000Y-17664009D02*
X-26675000Y-17673778D01*
X-26675000Y-17636601D02*
X-26675000Y-17651617D01*
X-26675000Y-17367075D02*
X-26675000Y-17370456D01*
X-26675000Y-18084152D02*
X-26675000Y-18102458D01*
X-26675000Y-18027813D02*
X-26675000Y-18034127D01*
X-26675000Y-17859553D02*
X-26675000Y-17865004D01*
X-26675000Y-18054403D02*
X-26675000Y-18058980D01*
X-26675000Y-17722452D02*
X-26675000Y-17760459D01*
X-26675000Y-17621585D02*
X-26675000Y-17636601D01*
X-26675000Y-18114471D02*
X-26675000Y-18120191D01*
X-26675000Y-17370456D02*
X-26675000Y-17373837D01*
X-26675000Y-17612946D02*
X-26675000Y-17615208D01*
X-26675000Y-17770299D02*
X-26675000Y-17827985D01*
X-26675000Y-17392431D02*
X-26675000Y-17405954D01*
X-26675000Y-18144217D02*
X-26675000Y-18145361D01*
X-26675000Y-18143073D02*
X-26675000Y-18144217D01*
X-26675000Y-18108751D02*
X-26675000Y-18114471D01*
X-26675000Y-17686171D02*
X-26675000Y-17720726D01*
X-26675000Y-17424548D02*
X-26675000Y-17427929D01*
X-26675000Y-18061841D02*
X-26675000Y-18062985D01*
X-26675000Y-18123623D02*
X-26675000Y-18124768D01*
X-26675000Y-17583637D02*
X-26675000Y-17600914D01*
X-26675000Y-17854102D02*
X-26675000Y-17859553D01*
X-26675000Y-17943467D02*
X-26675000Y-17965162D01*
X-26675000Y-17566360D02*
X-26675000Y-17583637D01*
X-26675000Y-18060697D02*
X-26675000Y-18061841D01*
X-26675000Y-18136781D02*
X-26675000Y-18141357D01*
X-26675000Y-17965162D02*
X-26675000Y-17986857D01*
X-26675000Y-17441452D02*
X-26675000Y-17458358D01*
X-26675000Y-18132205D02*
X-26675000Y-18136781D01*
X-26675000Y-17427929D02*
X-26675000Y-17431310D01*
X-26675000Y-18021499D02*
X-26675000Y-18027813D01*
X-26675000Y-18066417D02*
X-26675000Y-18072138D01*
X-26675000Y-18041542D02*
X-26675000Y-18045539D01*
X-26675000Y-18127629D02*
X-26675000Y-18132205D01*
X-26675000Y-17996829D02*
X-26675000Y-17998581D01*
X-26675000Y-18146505D02*
X-26675000Y-18147650D01*
X-26675000Y-17493858D02*
X-26675000Y-17547952D01*
X-26675000Y-18124768D02*
X-26675000Y-18125913D01*
X-26675000Y-17378908D02*
X-26675000Y-17392431D01*
X-26675000Y-18045539D02*
X-26675000Y-18049536D01*
%TO.N,SLEEP-1*%
X16200000Y-13825000D02*
X17823223Y-13825000D01*
X16200000Y-13825000D02*
X15178553Y-14846446D01*
X13471446Y-14846446D02*
X12450000Y-13825000D01*
%TO.N,+5V*%
X16503606Y-3175000D02*
G75*
G03*
X16510543Y-3173616I-6J18100D01*
G01*
X17413648Y-413648D02*
G75*
G03*
X16837500Y-175001I-576148J-576152D01*
G01*
X17616681Y-2883318D02*
G75*
G02*
X16912500Y-3174988I-704181J704218D01*
G01*
X18000000Y-2022702D02*
G75*
G02*
X17662499Y-2837499I-1152300J2D01*
G01*
X16503606Y-3175000D02*
X16503606Y-3175000D01*
X18000000Y-1583363D02*
G75*
G03*
X17587503Y-587497I-1408370J3D01*
G01*
%TO.N,SLEEP-1*%
X20284867Y-17465130D02*
X20196172Y-17553825D01*
X19569530Y-18180468D02*
X19645024Y-18104974D01*
%TO.N,OUT2-2*%
X-26675000Y-17610684D02*
X-26675000Y-17600914D01*
X-26675000Y-18000333D02*
X-26675000Y-18021499D01*
X-26675000Y-18077859D02*
X-26675000Y-18084152D01*
X-26675000Y-18049826D02*
X-26675000Y-18049536D01*
X-26675000Y-17654240D02*
X-26675000Y-17651617D01*
X-26675000Y-17566360D02*
X-26675000Y-17547952D01*
X-26675000Y-17363695D02*
X-26675000Y-17367075D01*
X-26675000Y-17441452D02*
X-26675000Y-17431310D01*
X-26675000Y-17919144D02*
X-26675000Y-17865004D01*
X-26675000Y-17760459D02*
X-26675000Y-17770299D01*
X-26675000Y-17986857D02*
X-26675000Y-17996829D01*
X-26675000Y-18102458D02*
X-26675000Y-18108751D01*
X-26675000Y-17419477D02*
X-26675000Y-17424548D01*
X-26675000Y-17621585D02*
X-26675000Y-17615208D01*
X-26675000Y-17475264D02*
X-26675000Y-17493858D01*
X-26675000Y-17673778D02*
X-26675000Y-17686171D01*
X-26675000Y-17827985D02*
X-26675000Y-17854102D01*
X-26675000Y-18143073D02*
X-26675000Y-18141357D01*
X-26675000Y-18058980D02*
X-26675000Y-18060697D01*
X-26675000Y-18120191D02*
X-26675000Y-18123623D01*
X-26675000Y-18034127D02*
X-26675000Y-18041542D01*
X-26675000Y-18062985D02*
X-26675000Y-18066417D01*
X-26675000Y-18145361D02*
X-26675000Y-18146505D01*
X-26675000Y-18127629D02*
X-26675000Y-18125913D01*
X-26675000Y-17373837D02*
X-26675000Y-17378908D01*
%TO.N,+5V*%
X18000000Y-1583363D02*
X18000000Y-2022702D01*
X17616681Y-2883318D02*
X17662500Y-2837500D01*
X16912500Y-3175000D02*
X16503606Y-3175000D01*
X17413648Y-413648D02*
X17587500Y-587500D01*
X16837500Y-174999D02*
X16668750Y-174999D01*
X16510544Y-3173619D02*
X16519526Y-3169899D01*
%TO.N,Line-MD-Main=RX_5V*%
X14775000Y-9475000D02*
G75*
G03*
X14300022Y-10621751I1146700J-1146700D01*
G01*
X15912500Y-4825000D02*
G75*
G02*
X14909564Y-4409584I0J1418400D01*
G01*
%TO.N,+5V*%
X16500000Y662500D02*
G75*
G03*
X15907798Y2092201I-2021900J0D01*
G01*
%TO.N,Line-MD-Main=TX_5V*%
X13843413Y-1250000D02*
G75*
G02*
X14537496Y-1537504I-13J-981600D01*
G01*
X10275000Y-13550000D02*
G75*
G02*
X10000004Y-12886091I663900J663900D01*
G01*
X14537500Y-1537500D02*
G75*
G03*
X15231586Y-1825005I694100J694100D01*
G01*
%TO.N,SLEEP-1*%
X20000000Y-14825000D02*
G75*
G03*
X20530322Y-16105338I1810700J0D01*
G01*
%TO.N,OUT2-2*%
X-26675000Y-17722452D02*
X-26675000Y-17720726D01*
X-26675000Y-17942591D02*
X-26675000Y-17943467D01*
%TO.N,Line-MD-Main=RX_5V*%
X14775000Y-9475000D02*
X15250000Y-9000000D01*
X14300000Y-10621751D02*
X14300000Y-13825000D01*
%TO.N,Line-MD-Main=TX_5V*%
X10275000Y-13550000D02*
X10550000Y-13825000D01*
X10000000Y-12886091D02*
X10000000Y-10250000D01*
X13843413Y-1250000D02*
X8250000Y-1250000D01*
%TO.N,SLEEP-1*%
X20000000Y-14075000D02*
X20000000Y-14825000D01*
X20530330Y-16105330D02*
X21425000Y-17000000D01*
X20000000Y-14075000D02*
X18426776Y-14075000D01*
%TO.N,Line-MD-Main=RX_3.3V*%
X20000000Y-11250000D02*
X20000000Y-12425000D01*
%TO.N,Line-MD-Main=TX_3.3V*%
X18250000Y-11250000D02*
X18250000Y-12425000D01*
X5000000Y5750000D02*
X5000000Y3837500D01*
%TO.N,Line-MD-Main=RX_3.3V*%
X4000000Y6000000D02*
X4000000Y3837500D01*
X15250000Y-10250000D02*
X15250000Y-11950000D01*
%TO.N,Line-MD-Main=TX_3.3V*%
X11500000Y-10250000D02*
X11500000Y-11950000D01*
%TO.N,Line-MD-Main=RX_5V*%
X14909574Y-4409574D02*
X14250000Y-3750000D01*
X15912500Y-4825000D02*
X16500000Y-4825000D01*
%TO.N,Line-MD-Main=TX_5V*%
X15231586Y-1825000D02*
X16500000Y-1825000D01*
%TO.N,+5V*%
X15907798Y2092201D02*
X14250000Y3750000D01*
X16500000Y662500D02*
X16500000Y-6249D01*
%TO.N,IMODE-4*%
X26362500Y5937500D02*
X25925000Y5500000D01*
%TO.N,Net-(U2-CPL)*%
X-23658943Y-16011291D02*
X-23685117Y-15985117D01*
%TO.N,SLEEP-1*%
X-9154414Y17957926D02*
G75*
G02*
X-8616273Y17735020I-2851572J-7645327D01*
G01*
X-817870Y13529422D02*
G75*
G03*
X-890121Y13487139I823670J-1490322D01*
G01*
X-42560Y13838202D02*
G75*
G03*
X-123547Y13817008I391260J-1660402D01*
G01*
X-1981861Y12536731D02*
G75*
G03*
X-1917110Y12584759I-176264J305300D01*
G01*
X39077Y13856836D02*
G75*
G03*
X-42560Y13838203I1293523J-5855636D01*
G01*
X-19775673Y18047957D02*
G75*
G03*
X-20029181Y17868083I1474918J-2347276D01*
G01*
X286640Y13898897D02*
G75*
G02*
X369818Y13908565I1408360J-11753097D01*
G01*
X-6338263Y16186424D02*
G75*
G03*
X-6552343Y16383963I-3267684J-3326514D01*
G01*
X-18917749Y18403320D02*
G75*
G02*
X-18611302Y18455387I616848J-2702687D01*
G01*
X-1858807Y12641190D02*
G75*
G02*
X-1917110Y12584759I-1754643J1754516D01*
G01*
X-441000Y13710901D02*
G75*
G02*
X-362896Y13741030I653400J-1577501D01*
G01*
X-11423838Y18451608D02*
G75*
G02*
X-10844697Y18389345I-582057J-8138597D01*
G01*
X-961018Y13442582D02*
G75*
G03*
X-1030461Y13395828I918141J-1438649D01*
G01*
X-2165548Y12454919D02*
G75*
G03*
X-2016964Y12516464I-159441J595059D01*
G01*
X-7116004Y16844869D02*
G75*
G03*
X-7594465Y17177070I-4889940J-6532204D01*
G01*
X830088Y13925000D02*
G75*
G03*
X662439Y13924411I412J-23981600D01*
G01*
X6212499Y13537499D02*
G75*
G03*
X5276992Y13924996I-935499J-935499D01*
G01*
X-10271472Y18285923D02*
G75*
G02*
X-9707085Y18141871I-1734772J-7974375D01*
G01*
X-20206692Y17716764D02*
G75*
G02*
X-20090026Y17819560I1104691J-1136130D01*
G01*
X-18917749Y18403321D02*
G75*
G03*
X-19216440Y18317269I616876J-2702622D01*
G01*
X-2324999Y12433927D02*
G75*
G02*
X-2484451Y12454920I3J616077D01*
G01*
X-594893Y13644933D02*
G75*
G02*
X-518361Y13678858I730093J-1543733D01*
G01*
X-1568547Y12931449D02*
G75*
G02*
X-1449586Y13049579I16931547J-16931649D01*
G01*
X39077Y13856835D02*
G75*
G02*
X121238Y13872878I367923J-1665835D01*
G01*
X-8095406Y17474291D02*
G75*
G03*
X-8616273Y17735019I-3910600J-7161722D01*
G01*
X-8095406Y17474292D02*
G75*
G02*
X-7594465Y17177070I-3910582J-7161691D01*
G01*
X-1231496Y13245267D02*
G75*
G03*
X-1295701Y13191437I1063999J-1334274D01*
G01*
X-11860234Y18473698D02*
G75*
G02*
X-11569174Y18462002I-41636J-4663555D01*
G01*
X-1327080Y13163790D02*
G75*
G03*
X-1449517Y13049650I1973580J-2239790D01*
G01*
X-9707085Y18141871D02*
G75*
G02*
X-9154414Y17957925I-2298802J-7829047D01*
G01*
D37*
X6600000Y6887132D02*
G75*
G02*
X6450009Y6524991I-512100J-32D01*
G01*
D36*
X-2732888Y12584760D02*
G75*
G03*
X-2668137Y12536732I241015J257272D01*
G01*
X662340Y13924410D02*
G75*
G03*
X495056Y13918539I20960J-2983210D01*
G01*
X453318Y13915904D02*
G75*
G03*
X369854Y13908570I107682J-1704104D01*
G01*
X-594893Y13644933D02*
G75*
G03*
X-670340Y13608606I2590093J-5475933D01*
G01*
X286640Y13898896D02*
G75*
G03*
X203790Y13886904I203460J-1697796D01*
G01*
X-6338263Y16186424D02*
G75*
G02*
X-6131270Y15981270I-22898260J-23310522D01*
G01*
X-18223110Y18475000D02*
G75*
G03*
X-18378783Y18473909I71J-11117078D01*
G01*
X-20206692Y17716764D02*
G75*
G03*
X-20317541Y17607458I7747447J-7967672D01*
G01*
X6212499Y13537499D02*
G75*
G02*
X6599996Y12601992I-935499J-935499D01*
G01*
X-6662462Y16479381D02*
G75*
G03*
X-7116005Y16844868I-5343963J-6167322D01*
G01*
X-18533966Y18464102D02*
G75*
G02*
X-18378783Y18473909I177418J-1574720D01*
G01*
X-10271472Y18285923D02*
G75*
G03*
X-10844697Y18389344I-1734473J-7973254D01*
G01*
X-19503619Y18198316D02*
G75*
G03*
X-19775673Y18047957I1202731J-2497478D01*
G01*
X-2324999Y12433927D02*
G75*
G03*
X-2165548Y12454919I9J616004D01*
G01*
X-11860234Y18473699D02*
G75*
G03*
X-12151665Y18475000I-291767J-32715662D01*
G01*
X-362896Y13741029D02*
G75*
G02*
X-283858Y13768685I2014396J-5630129D01*
G01*
X-2484451Y12454920D02*
G75*
G02*
X-2633036Y12516466I159434J595039D01*
G01*
X-1165817Y13297272D02*
G75*
G02*
X-1098752Y13347375I1053992J-1340877D01*
G01*
X-204008Y13793829D02*
G75*
G03*
X-283858Y13768686I472708J-1640629D01*
G01*
X-1165816Y13297271D02*
G75*
G03*
X-1231467Y13245290I7387616J-9397771D01*
G01*
X-2732887Y12584761D02*
G75*
G02*
X-2791190Y12641192I1699965J1814692D01*
G01*
X-19503619Y18198315D02*
G75*
G02*
X-19216440Y18317268I1202742J-2497553D01*
G01*
X-744582Y13569926D02*
G75*
G02*
X-670339Y13608605I823882J-1490826D01*
G01*
X-961019Y13442583D02*
G75*
G02*
X-890120Y13487137I3252619J-5097183D01*
G01*
X6600000Y12601992D02*
X6600000Y10537500D01*
X662439Y13924411D02*
X662340Y13924411D01*
X453318Y13915905D02*
X495056Y13918542D01*
X369854Y13908571D02*
X369818Y13908566D01*
X203790Y13886903D02*
X121238Y13872878D01*
X-204008Y13793829D02*
X-123547Y13817009D01*
X830088Y13925000D02*
X5276992Y13925000D01*
X-518361Y13678857D02*
X-441000Y13710901D01*
X-744582Y13569927D02*
X-817870Y13529422D01*
X-1098752Y13347375D02*
X-1030462Y13395829D01*
X-1231468Y13245291D02*
X-1231496Y13245268D01*
X-1449587Y13049580D02*
X-1449517Y13049650D01*
X-1981861Y12536731D02*
X-2016964Y12516464D01*
X-2668137Y12536732D02*
X-2633036Y12516466D01*
X-2791191Y12641191D02*
X-6131270Y15981270D01*
X-1327080Y13163790D02*
X-1295701Y13191438D01*
X-6662461Y16479382D02*
X-6552343Y16383964D01*
X-11423838Y18451608D02*
X-11569174Y18462003D01*
X-18223110Y18475000D02*
X-12151665Y18475000D01*
X-18533966Y18464102D02*
X-18611302Y18455388D01*
X-20029181Y17868083D02*
X-20090026Y17819561D01*
X-1858807Y12641190D02*
X-1568548Y12931450D01*
X-20317541Y17607458D02*
X-20925000Y17000000D01*
%TO.N,Net-(U4-CPL)*%
X24035117Y15835117D02*
X23981744Y15888476D01*
%TO.N,Net-(U1-CPL)*%
X-23685117Y6514883D02*
X-23641526Y6471292D01*
%TO.N,Net-(U3-CPL)*%
X24035117Y-6664883D02*
X23981521Y-6611287D01*
D37*
%TO.N,KickerSignal-main*%
X2000000Y11022702D02*
G75*
G02*
X2337501Y11837499I1152300J-2D01*
G01*
%TO.N,ball01k*%
X1000000Y5093749D02*
G75*
G03*
X111697Y7238301I-3032861J-3D01*
G01*
%TO.N,ball02k*%
X3000000Y8462042D02*
G75*
G02*
X4087501Y11087499I3712960J-2D01*
G01*
%TO.N,SLEEP-1*%
X6300001Y6374999D02*
G75*
G03*
X5999986Y5650735I724299J-724299D01*
G01*
D36*
%TO.N,PH-3*%
X-2000000Y-4000000D02*
X-2000000Y3837500D01*
%TO.N,EN-3*%
X-3000000Y-5000000D02*
X-3000000Y3837500D01*
%TO.N,EN-2*%
X-5000000Y-4000000D02*
X-5000000Y3837500D01*
%TO.N,PH-2*%
X-4000000Y-5000000D02*
X-4000000Y3837500D01*
%TO.N,PH-1*%
X-6000000Y6000000D02*
X-6000000Y3837500D01*
%TO.N,EN-1*%
X-7000000Y5750000D02*
X-7000000Y3837500D01*
D37*
%TO.N,SLEEP-1*%
X6000000Y5650735D02*
X6000000Y3837500D01*
X6300000Y6375000D02*
X6450000Y6525000D01*
%TO.N,ball02k*%
X4087500Y11087500D02*
X5175000Y12175000D01*
X3000000Y8462042D02*
X3000000Y3837500D01*
%TO.N,KickerSignal-main*%
X2000000Y11022702D02*
X2000000Y3837500D01*
X2337500Y11837500D02*
X2675000Y12175000D01*
%TO.N,ball01k*%
X111697Y7238301D02*
X-4825000Y12175000D01*
X1000000Y5093749D02*
X1000000Y3837500D01*
%TO.N,GND*%
X7000000Y2000000D02*
X7000000Y3837500D01*
D36*
%TO.N,EN-4*%
X-1000000Y6000000D02*
X-1000000Y3837500D01*
%TO.N,PH-4*%
X0Y5750000D02*
X0Y3837500D01*
%TO.N,Net-(U3-CPL)*%
X23712850Y-6500000D02*
X23522617Y-6500000D01*
X22929197Y-6254197D02*
X21600000Y-4925000D01*
X24200000Y-7062945D02*
X24200000Y-7712500D01*
X24035117Y-6664883D02*
G75*
G02*
X24199981Y-7062945I-398017J-398017D01*
G01*
X22929197Y-6254197D02*
G75*
G03*
X23522617Y-6499994I593403J593397D01*
G01*
X23712850Y-6500000D02*
G75*
G02*
X23981555Y-6611253I50J-380000D01*
G01*
%TO.N,Net-(U3-CPH)*%
X24112266Y-5822794D02*
X24564550Y-6275078D01*
X24850000Y-6964215D02*
X24850000Y-7712500D01*
X24002205Y-5777205D02*
X23150000Y-4925000D01*
X24850000Y-6964215D02*
G75*
G03*
X24564560Y-6275068I-974600J15D01*
G01*
X24002206Y-5777204D02*
G75*
G03*
X24057236Y-5799981I54994J55004D01*
G01*
X24112266Y-5822794D02*
G75*
G03*
X24057236Y-5799968I-55066J-55006D01*
G01*
%TO.N,VM*%
X26150000Y14787500D02*
X26150000Y17575000D01*
X-25800000Y-17725000D02*
X-25800000Y-14937500D01*
X-25800000Y7562500D02*
X-25800000Y4775000D01*
X26150000Y-7712500D02*
X26150000Y-4925000D01*
%TO.N,Net-(U3-VCP)*%
X25500000Y-6461396D02*
X25500000Y-7712500D01*
X25050000Y-5375000D02*
X24600000Y-4925000D01*
X25500000Y-6461396D02*
G75*
G03*
X25049999Y-5375001I-1536400J-4D01*
G01*
D38*
%TO.N,GND*%
X-24075000Y18500000D02*
X-22575000Y18500000D01*
D36*
X27450000Y14043598D02*
X27450000Y14787500D01*
X-22875000Y-14937500D02*
X-22550000Y-14937500D01*
X23225000Y14787500D02*
X22900000Y14787500D01*
D38*
X24425000Y-18650000D02*
X25925000Y-18650000D01*
X-21325000Y-12075000D02*
X-24677383Y-12075000D01*
X6900000Y-16075000D02*
X2675000Y-16075000D01*
X6900000Y-16075000D02*
X6900000Y-17545000D01*
D36*
X25470234Y-12075000D02*
X25175000Y-12075000D01*
D38*
X6900000Y-14575000D02*
X6900000Y-16075000D01*
D36*
X-25224614Y-12179380D02*
X-26949030Y-13903796D01*
X-24972617Y-12075000D02*
X-24677383Y-12075000D01*
X25027383Y11925000D02*
X25322617Y11925000D01*
X27278030Y-8767203D02*
X25470234Y-10575000D01*
X-27100000Y8219091D02*
X-27100000Y7562500D01*
X-27100000Y-14268270D02*
X-27100000Y-14937500D01*
X23240625Y-7712500D02*
X22900000Y-7712500D01*
X-24677383Y10425000D02*
X-24972617Y10425000D01*
D38*
X-24075000Y-4000000D02*
X-22575000Y-4000000D01*
X24425000Y-18650000D02*
X22925000Y-18650000D01*
D36*
X27450000Y-8352030D02*
X27450000Y-7712500D01*
X-23200000Y-14612500D02*
X-23200000Y-14318750D01*
D38*
X6900000Y-13075000D02*
X6900000Y-14575000D01*
D36*
X25574614Y12029380D02*
X27351831Y13806597D01*
X-22875000Y7562500D02*
X-22550000Y7562500D01*
D38*
X24425000Y3850000D02*
X25925000Y3850000D01*
D36*
X-26940093Y8605140D02*
X-25224614Y10320618D01*
D38*
X-24075000Y-4000000D02*
X-25575000Y-4000000D01*
D36*
X23987522Y13112477D02*
X25070618Y12029380D01*
X23550000Y-8331250D02*
X23550000Y-8021875D01*
D38*
X6900000Y-13075000D02*
X6900000Y-11575000D01*
D36*
X-23637522Y9237522D02*
X-24720619Y10320619D01*
X24362500Y-9762500D02*
X23987522Y-9387522D01*
D38*
X-21325000Y10425000D02*
X-24677383Y10425000D01*
X24025951Y-10575000D02*
X21675000Y-10575000D01*
X25027383Y11925000D02*
X21675000Y11925000D01*
D36*
X-23200000Y8181250D02*
X-23200000Y7887500D01*
X23550000Y14168750D02*
X23550000Y14462500D01*
X-24720618Y-12179380D02*
X-23637522Y-13262477D01*
D38*
X-24075000Y18500000D02*
X-25575000Y18500000D01*
X24425000Y3850000D02*
X22925000Y3850000D01*
D36*
X23225000Y14787500D02*
G75*
G02*
X23550000Y14462500I0J-325000D01*
G01*
X25070618Y12029380D02*
G75*
G03*
X25322617Y11925017I251982J252020D01*
G01*
X23550000Y-8021875D02*
G75*
G03*
X23240625Y-7712500I-309400J-25D01*
G01*
X27351831Y13806597D02*
G75*
G03*
X27449992Y14043598I-237031J237003D01*
G01*
X-25224614Y10320618D02*
G75*
G02*
X-24972617Y10425000I251997J-251992D01*
G01*
X23550000Y14168750D02*
G75*
G03*
X23987523Y13112478I1493790J0D01*
G01*
X-23637523Y9237521D02*
G75*
G02*
X-23200001Y8181250I-1056270J-1056270D01*
G01*
X-24972617Y-12075000D02*
G75*
G03*
X-25224614Y-12179380I-3J-356372D01*
G01*
X-24972617Y10425000D02*
G75*
G02*
X-24720619Y10320619I0J-356379D01*
G01*
X27450000Y-8352030D02*
G75*
G02*
X27278006Y-8767179I-587100J30D01*
G01*
X-27100000Y-14268270D02*
G75*
G02*
X-26949030Y-13903796I515446J-1D01*
G01*
X-26940092Y8605139D02*
G75*
G03*
X-27099999Y8219091I386043J-386046D01*
G01*
X-22875000Y7562500D02*
G75*
G02*
X-23200000Y7887500I1J325001D01*
G01*
X25574613Y12029381D02*
G75*
G02*
X25322617Y11924995I-252013J252019D01*
G01*
X-23200000Y-14612500D02*
G75*
G03*
X-22875000Y-14937500I325002J2D01*
G01*
X-23637523Y-13262478D02*
G75*
G02*
X-23200001Y-14318750I-1056270J-1056270D01*
G01*
D38*
X-24720618Y-12179380D02*
G75*
G02*
X-24677383Y-12075000I43235J43236D01*
G01*
D36*
X24362500Y-9762500D02*
G75*
G02*
X24025951Y-10575003I-336550J-336550D01*
G01*
D38*
X25027383Y11925000D02*
G75*
G03*
X25070573Y12029335I17J61100D01*
G01*
X-24677383Y10425000D02*
G75*
G03*
X-24720619Y10320619I1J-61145D01*
G01*
D36*
X-24972617Y-12075000D02*
G75*
G02*
X-24720618Y-12179380I3J-356377D01*
G01*
X23987522Y-9387522D02*
G75*
G02*
X23550037Y-8331250I1056278J1056222D01*
G01*
%TO.N,Net-(U2-CPL)*%
X-23850000Y-15587054D02*
X-23850000Y-14937500D01*
X-23324067Y-16150000D02*
X-23172617Y-16150000D01*
X-22579197Y-16395802D02*
X-21250000Y-17725000D01*
X-23658943Y-16011291D02*
G75*
G03*
X-23324067Y-16149999I334875J334879D01*
G01*
X-23685117Y-15985117D02*
G75*
G02*
X-23850000Y-15587054I398067J398065D01*
G01*
X-23172617Y-16150000D02*
G75*
G02*
X-22579197Y-16395802I5J-839212D01*
G01*
%TO.N,Net-(U2-CPH)*%
X-23812266Y-16777205D02*
X-24144735Y-16444735D01*
X-23702205Y-16822794D02*
X-22800000Y-17725000D01*
X-24500000Y-15587052D02*
X-24500000Y-14937500D01*
X-24500000Y-15587052D02*
G75*
G03*
X-24144735Y-16444735I1212951J3D01*
G01*
X-23757236Y-16800000D02*
G75*
G02*
X-23702205Y-16822794I6J-77814D01*
G01*
X-23812265Y-16777204D02*
G75*
G03*
X-23757236Y-16799999I55033J55036D01*
G01*
%TO.N,Net-(U2-VCP)*%
X-25150000Y-16188603D02*
X-25150000Y-14937500D01*
X-24700000Y-17275000D02*
X-24250000Y-17725000D01*
X-25150000Y-16188603D02*
G75*
G03*
X-24700000Y-17275000I1536411J5D01*
G01*
%TO.N,Net-(U4-CPL)*%
X22929197Y16245802D02*
X21600000Y17575000D01*
X24200000Y15437054D02*
X24200000Y14787500D01*
X23712454Y16000000D02*
X23522617Y16000000D01*
X23522617Y16000000D02*
G75*
G02*
X22929193Y16245798I-17J839200D01*
G01*
X24035116Y15835116D02*
G75*
G02*
X24199951Y15437054I-398116J-398016D01*
G01*
X23712454Y16000000D02*
G75*
G02*
X23981771Y15888503I46J-380900D01*
G01*
%TO.N,Net-(U4-CPH)*%
X23930086Y16794913D02*
X23150000Y17575000D01*
X24040147Y16749324D02*
X24553643Y16235828D01*
X24850000Y15520357D02*
X24850000Y14787500D01*
X24040146Y16749323D02*
G75*
G03*
X23985117Y16772131I-55046J-55023D01*
G01*
X23985117Y16772119D02*
G75*
G02*
X23930087Y16794914I-17J77781D01*
G01*
X24850000Y15520357D02*
G75*
G03*
X24553658Y16235843I-1011800J43D01*
G01*
%TO.N,Net-(U4-VCP)*%
X25500000Y16038603D02*
X25500000Y14787500D01*
X25050000Y17125000D02*
X24600000Y17575000D01*
X25050000Y17125000D02*
G75*
G02*
X25500001Y16038603I-1086400J-1086400D01*
G01*
D37*
%TO.N,Net-(D1-A)*%
X8675000Y5949479D02*
X8675000Y4175000D01*
X8462500Y6462500D02*
X8250000Y6675000D01*
X8675000Y5949479D02*
G75*
G03*
X8462506Y6462506I-725500J21D01*
G01*
D36*
%TO.N,EN-1*%
X-21300000Y13287500D02*
X-22550000Y13287500D01*
%TO.N,PH-1*%
X-22573037Y14537500D02*
X-21300000Y14537500D01*
X-23200000Y13910537D02*
X-23200000Y13287500D01*
X-22573037Y14537500D02*
G75*
G03*
X-23016367Y14353867I2J-626970D01*
G01*
X-23200000Y13910537D02*
G75*
G02*
X-23016367Y14353867I626970J-2D01*
G01*
%TO.N,EN-2*%
X-21300000Y-9212500D02*
X-22550000Y-9212500D01*
%TO.N,PH-2*%
X-22573037Y-7962500D02*
X-21300000Y-7962500D01*
X-23200000Y-8589462D02*
X-23200000Y-9212500D01*
X-22573037Y-7962500D02*
G75*
G03*
X-23016367Y-8146133I-2J-626959D01*
G01*
X-23016366Y-8146134D02*
G75*
G03*
X-23199999Y-8589462I443331J-443329D01*
G01*
%TO.N,OUT2-1*%
X-26825000Y4885308D02*
X-26825000Y4725237D01*
X-26450000Y3925000D02*
X-26524312Y3999312D01*
X-26075000Y3019669D02*
X-26075000Y175000D01*
X-26450000Y5790639D02*
X-26450000Y7562500D01*
X-26637500Y5337974D02*
G75*
G03*
X-26450000Y5790639I-452655J452661D01*
G01*
X-26524312Y3999312D02*
G75*
G02*
X-26825000Y4725237I725932J725928D01*
G01*
X-26450000Y3925000D02*
G75*
G02*
X-26075000Y3019669I-905331J-905331D01*
G01*
X-26825000Y4885308D02*
G75*
G02*
X-26637500Y5337974I640171J-2D01*
G01*
%TO.N,OUT1-1*%
X-26787500Y16556738D02*
X-26698008Y16646229D01*
X-27100000Y15802296D02*
X-27100000Y13287500D01*
X-26475000Y17482322D02*
X-26475000Y17184619D01*
X-26500000Y17542677D02*
X-26500000Y19675000D01*
X-26475000Y17482322D02*
G75*
G03*
X-26487500Y17512500I-42672J3D01*
G01*
X-26475000Y17184619D02*
G75*
G02*
X-26698008Y16646229I-761387J-5D01*
G01*
X-27100000Y15802296D02*
G75*
G02*
X-26787500Y16556738I1066953J-4D01*
G01*
X-26487499Y17512501D02*
G75*
G02*
X-26499999Y17542677I30178J30177D01*
G01*
%TO.N,OUT1-2*%
X-26075000Y-2410789D02*
X-26075000Y-825000D01*
X-27100000Y-4885358D02*
X-27100000Y-9212500D01*
X-27100000Y-4885358D02*
G75*
G02*
X-26587500Y-3648074I1749787J-1D01*
G01*
X-26587500Y-3648074D02*
G75*
G03*
X-26075000Y-2410789I-1237285J1237285D01*
G01*
%TO.N,OUT2-2*%
X-26675000Y-18148223D02*
X-26675000Y-18147650D01*
X-26450000Y-16815426D02*
X-26450000Y-14937500D01*
X-26675000Y-17360315D02*
X-26675000Y-17358625D01*
X-26425000Y-18751776D02*
X-26425000Y-19825000D01*
X-26450000Y-16815426D02*
G75*
G02*
X-26562500Y-17087026I-384092J-4D01*
G01*
X-26675000Y-18148223D02*
G75*
G03*
X-26550000Y-18450000I426786J4D01*
G01*
X-26425000Y-18751776D02*
G75*
G03*
X-26550000Y-18450000I-426770J2D01*
G01*
X-26562500Y-17087026D02*
G75*
G03*
X-26675000Y-17358625I271598J-271599D01*
G01*
%TO.N,OUT2-3*%
X27095282Y-5380191D02*
X26987500Y-5487974D01*
X27175000Y-5187737D02*
X27175000Y-5075000D01*
X26800000Y-5940639D02*
X26800000Y-7712500D01*
X26987500Y-5487974D02*
G75*
G03*
X26800038Y-5940639I452700J-452626D01*
G01*
X27095282Y-5380191D02*
G75*
G03*
X27175017Y-5187737I-192482J192491D01*
G01*
%TO.N,OUT1-3*%
X26850000Y-17418502D02*
X26850000Y-19800000D01*
X27450000Y-15969973D02*
X27450000Y-13437500D01*
X26850000Y-17418502D02*
G75*
G02*
X27149992Y-16694230I1024300J2D01*
G01*
X27450000Y-15969973D02*
G75*
G02*
X27150020Y-16694258I-1024300J-27D01*
G01*
%TO.N,OUT1-4*%
X27187500Y5437500D02*
X26925000Y5175000D01*
X27450000Y6071231D02*
X27450000Y9062500D01*
X27450000Y6071231D02*
G75*
G02*
X27187509Y5437491I-896200J-31D01*
G01*
%TO.N,OUT2-4*%
X26800000Y18584099D02*
X26800000Y19700000D01*
X26800000Y16665426D02*
X26800000Y14787500D01*
X27025000Y17208625D02*
X27025000Y18040900D01*
X26912500Y18312500D02*
G75*
G02*
X27025000Y18040900I-271600J-271600D01*
G01*
X26800000Y16665426D02*
G75*
G02*
X26912513Y16937013I384100J-26D01*
G01*
X26912500Y18312500D02*
G75*
G02*
X26800000Y18584099I271600J271600D01*
G01*
X27025000Y17208625D02*
G75*
G02*
X26912513Y16937013I-384100J-25D01*
G01*
%TO.N,PH-4*%
X21650000Y7812500D02*
X22923037Y7812500D01*
X23550000Y8439462D02*
X23550000Y9062500D01*
X23366367Y7996133D02*
G75*
G03*
X23550015Y8439462I-443367J443367D01*
G01*
X23366367Y7996133D02*
G75*
G02*
X22923037Y7812485I-443367J443367D01*
G01*
%TO.N,EN-4*%
X21650000Y9062500D02*
X22900000Y9062500D01*
%TO.N,EN-3*%
X21650000Y-13437500D02*
X22900000Y-13437500D01*
%TO.N,PH-3*%
X23550000Y-14060536D02*
X23550000Y-13437500D01*
X22923036Y-14687500D02*
X21650000Y-14687500D01*
X23550000Y-14060536D02*
G75*
G02*
X23366356Y-14503856I-627000J36D01*
G01*
X22923036Y-14687500D02*
G75*
G03*
X23366356Y-14503856I-36J627000D01*
G01*
%TO.N,VREF-1*%
X-21075000Y18462500D02*
X-21075000Y18500000D01*
X-22601516Y16823483D02*
X-24881022Y14543977D01*
X-22548483Y16951516D02*
X-21101516Y18398483D01*
X-25150000Y13894606D02*
X-25150000Y13287500D01*
X-25150000Y13894606D02*
G75*
G02*
X-24881022Y14543977I918349J0D01*
G01*
X-22575000Y16887500D02*
G75*
G02*
X-22548483Y16951516I90537J-3D01*
G01*
X-21075000Y18462500D02*
G75*
G02*
X-21101516Y18398483I-90531J-2D01*
G01*
X-22601517Y16823484D02*
G75*
G03*
X-22575001Y16887500I-64014J64014D01*
G01*
%TO.N,SLEEP-1*%
X21725000Y5800000D02*
X22846139Y6921139D01*
X23873592Y-15132169D02*
X23934131Y-15071631D01*
X23957254Y7667782D02*
X23468332Y7178860D01*
X-20887500Y12200000D02*
X-21300000Y11787500D01*
X21087500Y-17000000D02*
X21256250Y-17000000D01*
X-20925000Y-5800000D02*
X-20775000Y-5950000D01*
X-2489339Y-18962500D02*
X17983166Y-18962500D01*
X-22393332Y-6603860D02*
X-23606392Y-7816920D01*
X-20925000Y16700000D02*
X-20775000Y16550000D01*
X20825000Y9043781D02*
X20825000Y6524264D01*
X21262500Y10100000D02*
X21700000Y10537500D01*
X20511351Y-17238648D02*
X20435856Y-17314142D01*
X-23475985Y14813485D02*
X-23230832Y15058639D01*
X-20475000Y15825735D02*
X-20475000Y13195863D01*
X-23850000Y-8405041D02*
X-23850000Y-9212500D01*
X-23850000Y13910536D02*
X-23850000Y13287500D01*
D37*
X6600000Y10537500D02*
X6600000Y6887132D01*
D36*
X-21300000Y-10462500D02*
X-20748202Y-9910702D01*
X19427343Y-18322656D02*
X19356250Y-18393750D01*
X-5050000Y-14212500D02*
X-5050000Y-16401839D01*
X-21225000Y-5800000D02*
X-21771139Y-6346139D01*
X-21224999Y16699999D02*
X-20925000Y17000000D01*
X24200000Y8253823D02*
X24200000Y9062500D01*
X-20475000Y-6674264D02*
X-20475000Y-9251134D01*
X-21224999Y16699999D02*
X-22608639Y15316360D01*
X24200000Y-14429766D02*
X24200000Y-13437500D01*
X22882169Y-15542830D02*
X21544324Y-16880675D01*
X21087500Y-17000000D02*
G75*
G03*
X20511351Y-17238648I0J-814800D01*
G01*
X23873592Y-15132169D02*
G75*
G02*
X23377881Y-15337498I-495692J495669D01*
G01*
X-21224999Y-5800001D02*
G75*
G02*
X-20925001Y-5800001I149999J-149996D01*
G01*
X21544324Y-16880675D02*
G75*
G02*
X21256250Y-17000034I-288124J288075D01*
G01*
X23157236Y7050000D02*
G75*
G03*
X22846112Y6921166I-36J-440000D01*
G01*
X-23850000Y-8405041D02*
G75*
G02*
X-23606392Y-7816920I831731J-1D01*
G01*
X23934131Y-15071631D02*
G75*
G03*
X24199986Y-14429766I-641831J641831D01*
G01*
X-22608639Y15316360D02*
G75*
G02*
X-22919736Y15187500I-311093J311089D01*
G01*
X-20475000Y-6674264D02*
G75*
G03*
X-20775000Y-5950000I-1024258J2D01*
G01*
X-5050000Y-16401839D02*
G75*
G03*
X-4300000Y-18212500I2560669J3D01*
G01*
X-2489339Y-18962500D02*
G75*
G02*
X-4300000Y-18212500I3J2560669D01*
G01*
X23957254Y7667782D02*
G75*
G03*
X24199980Y8253823I-586054J586018D01*
G01*
X-20475000Y15825735D02*
G75*
G03*
X-20775000Y16550000I-1024263J1D01*
G01*
X19356249Y-18393749D02*
G75*
G02*
X17983166Y-18962485I-1373049J1373049D01*
G01*
X21724999Y5800001D02*
G75*
G02*
X21125001Y5800001I-299999J299996D01*
G01*
X-22082236Y-6475000D02*
G75*
G03*
X-21771139Y-6346139I0J439956D01*
G01*
X-22919736Y15187500D02*
G75*
G03*
X-23230832Y15058639I1J-439956D01*
G01*
X22882169Y-15542830D02*
G75*
G02*
X23377881Y-15337474I495731J-495670D01*
G01*
X-23475984Y14813484D02*
G75*
G03*
X-23849999Y13910536I902954J-902952D01*
G01*
X20825000Y6524264D02*
G75*
G03*
X21125011Y5800011I1024300J36D01*
G01*
X-20475000Y-9251134D02*
G75*
G02*
X-20748202Y-9910702I-932770J0D01*
G01*
X-21224999Y16699999D02*
G75*
G02*
X-20925000Y16700000I150000J-150000D01*
G01*
X20825000Y9043781D02*
G75*
G02*
X21262495Y10100005I1493700J19D01*
G01*
X-20887501Y12200001D02*
G75*
G03*
X-20475001Y13195863I-995855J995859D01*
G01*
X23157236Y7050000D02*
G75*
G03*
X23468302Y7178890I-36J439900D01*
G01*
X-20925000Y16700000D02*
G75*
G02*
X-20925000Y17000000I150000J150000D01*
G01*
X-22393332Y-6603860D02*
G75*
G02*
X-22082236Y-6475000I311093J-311089D01*
G01*
%TO.N,Net-(U3-IPROPI)*%
X26150000Y-14356250D02*
X26150000Y-13437500D01*
X25500345Y-15924654D02*
X24425000Y-17000000D01*
X25500345Y-15924654D02*
G75*
G03*
X26150022Y-14356250I-1568445J1568454D01*
G01*
%TO.N,IMODE-1*%
X-26012500Y16412500D02*
X-25575000Y16850000D01*
X-26450000Y15356281D02*
X-26450000Y13287500D01*
X-26450000Y15356281D02*
G75*
G02*
X-26012500Y16412500I1493728J-3D01*
G01*
%TO.N,Net-(U2-IPROPI)*%
X-25800000Y-8293750D02*
X-25800000Y-9212500D01*
X-25150345Y-6725345D02*
X-24075000Y-5650000D01*
X-25150344Y-6725346D02*
G75*
G03*
X-25799999Y-8293750I1568403J-1568404D01*
G01*
%TO.N,VREF-2*%
X-24965312Y-8040312D02*
X-22601516Y-5676516D01*
X-21075000Y-4037500D02*
X-21075000Y-4000000D01*
X-25150000Y-8486188D02*
X-25150000Y-9212500D01*
X-22548483Y-5548483D02*
X-21101516Y-4101516D01*
X-22575000Y-5612500D02*
G75*
G02*
X-22601516Y-5676516I-90531J-1D01*
G01*
X-21101517Y-4101515D02*
G75*
G03*
X-21075001Y-4037500I-64014J64014D01*
G01*
X-24965311Y-8040313D02*
G75*
G03*
X-25149999Y-8486188I445878J-445876D01*
G01*
X-22548483Y-5548483D02*
G75*
G03*
X-22575000Y-5612500I64020J-64019D01*
G01*
%TO.N,IMODE-2*%
X-26450000Y-7143718D02*
X-26450000Y-9212500D01*
X-26012500Y-6087500D02*
X-25575000Y-5650000D01*
X-26012499Y-6087501D02*
G75*
G03*
X-26449999Y-7143718I1056222J-1056219D01*
G01*
%TO.N,Net-(U4-IPROPI)*%
X25500345Y6575345D02*
X24425000Y5500000D01*
X26150000Y8143750D02*
X26150000Y9062500D01*
X26150000Y8143750D02*
G75*
G02*
X25500345Y6575345I-2218060J0D01*
G01*
%TO.N,VREF-3*%
X22951516Y-16973483D02*
X25207019Y-14717979D01*
X21425000Y-18612500D02*
X21425000Y-18650000D01*
X21451516Y-18548483D02*
X22898483Y-17101516D01*
X25500000Y-14010660D02*
X25500000Y-13437500D01*
X22951516Y-16973483D02*
G75*
G03*
X22924990Y-17037500I63984J-64017D01*
G01*
X21451516Y-18548483D02*
G75*
G03*
X21424990Y-18612500I63984J-64017D01*
G01*
X22925000Y-17037500D02*
G75*
G02*
X22898477Y-17101510I-90500J0D01*
G01*
X25500000Y-14010660D02*
G75*
G02*
X25207039Y-14717999I-1000300J-40D01*
G01*
%TO.N,IMODE-3*%
X26800000Y-15506281D02*
X26800000Y-13437500D01*
X26362500Y-16562500D02*
X25925000Y-17000000D01*
X26362500Y-16562500D02*
G75*
G03*
X26799992Y-15506281I-1056200J1056200D01*
G01*
%TO.N,VREF-4*%
X25210000Y7785000D02*
X22951516Y5526516D01*
X25500000Y8485122D02*
X25500000Y9062500D01*
X21425000Y3887500D02*
X21425000Y3850000D01*
X21451516Y3951516D02*
X22898483Y5398483D01*
X22925000Y5462500D02*
G75*
G02*
X22898476Y5398490I-90500J0D01*
G01*
X22925000Y5462500D02*
G75*
G02*
X22951523Y5526509I90500J0D01*
G01*
X21425000Y3887500D02*
G75*
G02*
X21451523Y3951509I90500J0D01*
G01*
X25500000Y8485122D02*
G75*
G02*
X25210006Y7784994I-990100J-22D01*
G01*
%TO.N,IMODE-4*%
X26800000Y6993718D02*
X26800000Y9062500D01*
X26362500Y5937500D02*
G75*
G03*
X26799992Y6993718I-1056200J1056200D01*
G01*
%TO.N,Net-(U1-CPL)*%
X-22579197Y6104197D02*
X-21250000Y4775000D01*
X-23850000Y6912945D02*
X-23850000Y7562500D01*
X-23172617Y6350000D02*
X-23348705Y6350000D01*
X-23172617Y6350000D02*
G75*
G02*
X-22579197Y6104197I-3J-839230D01*
G01*
X-23348705Y6350000D02*
G75*
G02*
X-23641526Y6471292I5J414121D01*
G01*
X-23850000Y6912945D02*
G75*
G03*
X-23685117Y6514883I562946J1D01*
G01*
%TO.N,Net-(U1-CPH)*%
X-23787266Y5697794D02*
X-24291557Y6202085D01*
X-24500000Y6705312D02*
X-24500000Y7562500D01*
X-23677205Y5652205D02*
X-22800000Y4775000D01*
X-23787266Y5697794D02*
G75*
G03*
X-23732236Y5675001I55025J55020D01*
G01*
X-24291556Y6202086D02*
G75*
G02*
X-24499999Y6705312I503223J503224D01*
G01*
X-23732236Y5675000D02*
G75*
G02*
X-23677205Y5652205I-3J-77832D01*
G01*
%TO.N,Net-(U1-VCP)*%
X-24700000Y5225000D02*
X-24250000Y4775000D01*
X-25150000Y6311396D02*
X-25150000Y7562500D01*
X-25150000Y6311396D02*
G75*
G03*
X-24700000Y5225000I1536402J2D01*
G01*
%TO.N,Net-(U1-IPROPI)*%
X-25150345Y15774654D02*
X-24075000Y16850000D01*
X-25800000Y14206250D02*
X-25800000Y13287500D01*
X-25150344Y15774653D02*
G75*
G03*
X-25799999Y14206250I1568403J-1568404D01*
G01*
%TD*%
%TA.AperFunction,Conductor*%
%TO.N,OUT1-3*%
G36*
X28299500Y-12580500D02*
G01*
X33987495Y-12580500D01*
X34054534Y-12600185D01*
X34075176Y-12616819D01*
X36957215Y-15498859D01*
X36957232Y-15498875D01*
X37017535Y-15550379D01*
X37017548Y-15550390D01*
X37048911Y-15573177D01*
X37048935Y-15573194D01*
X37105531Y-15607877D01*
X37116565Y-15614639D01*
X37116576Y-15614644D01*
X37116584Y-15614649D01*
X37248828Y-15682032D01*
X37265417Y-15692197D01*
X37357229Y-15758901D01*
X37372022Y-15771536D01*
X37664395Y-16063909D01*
X37677032Y-16078704D01*
X37743747Y-16170528D01*
X37753912Y-16187117D01*
X37821297Y-16319369D01*
X37862747Y-16387008D01*
X37862756Y-16387020D01*
X37885550Y-16418393D01*
X37885557Y-16418401D01*
X37937061Y-16478704D01*
X37937077Y-16478721D01*
X42843910Y-21385553D01*
X42843920Y-21385562D01*
X42856512Y-21395820D01*
X42896055Y-21453423D01*
X42898179Y-21523261D01*
X42877892Y-21565689D01*
X42741518Y-21750080D01*
X42603987Y-21936034D01*
X42354517Y-22341198D01*
X42354507Y-22341218D01*
X42140302Y-22766066D01*
X42140298Y-22766077D01*
X41962898Y-23207551D01*
X41962893Y-23207565D01*
X41823567Y-23662515D01*
X41823566Y-23662518D01*
X41780510Y-23862298D01*
X41747143Y-23923685D01*
X41685884Y-23957288D01*
X41616183Y-23952438D01*
X41571612Y-23923854D01*
X39193150Y-21545392D01*
X39099512Y-21453423D01*
X39037130Y-21392153D01*
X38702529Y-21110540D01*
X38344611Y-20859228D01*
X38344610Y-20859227D01*
X38212813Y-20782938D01*
X37966110Y-20640137D01*
X37966102Y-20640133D01*
X37966100Y-20640132D01*
X37569937Y-20454948D01*
X37569919Y-20454941D01*
X37159075Y-20305060D01*
X36736699Y-20191632D01*
X36306043Y-20115530D01*
X36306036Y-20115529D01*
X36306034Y-20115529D01*
X36170007Y-20103602D01*
X35870361Y-20077331D01*
X35870367Y-20077331D01*
X35660734Y-20075096D01*
X35651700Y-20075000D01*
X35651696Y-20075000D01*
X26549000Y-20075000D01*
X26481961Y-20055315D01*
X26436206Y-20002511D01*
X26425000Y-19951000D01*
X26425000Y-19602469D01*
X26444685Y-19535430D01*
X26484850Y-19496352D01*
X26489602Y-19493479D01*
X26489606Y-19493478D01*
X26635185Y-19405472D01*
X26755472Y-19285185D01*
X26843478Y-19139606D01*
X26894086Y-18977196D01*
X26900500Y-18906616D01*
X26900500Y-18886434D01*
X26902883Y-18862242D01*
X26925500Y-18748543D01*
X26925500Y-18551456D01*
X26902883Y-18437756D01*
X26900500Y-18413564D01*
X26900500Y-18393386D01*
X26894086Y-18322807D01*
X26894086Y-18322804D01*
X26843478Y-18160394D01*
X26755472Y-18014815D01*
X26755470Y-18014813D01*
X26755469Y-18014811D01*
X26653339Y-17912681D01*
X26619854Y-17851358D01*
X26624838Y-17781666D01*
X26653339Y-17737319D01*
X26755468Y-17635189D01*
X26755469Y-17635188D01*
X26755472Y-17635185D01*
X26843478Y-17489606D01*
X26894086Y-17327196D01*
X26900500Y-17256616D01*
X26900500Y-17101885D01*
X26920185Y-17034846D01*
X26936817Y-17014204D01*
X26963638Y-16987385D01*
X27119048Y-16792506D01*
X27251661Y-16581452D01*
X27359810Y-16356876D01*
X27442133Y-16121604D01*
X27497596Y-15878594D01*
X27525502Y-15630901D01*
X27525500Y-15506272D01*
X27525500Y-15469448D01*
X27525500Y-13366045D01*
X27525500Y-13366042D01*
X27502882Y-13252339D01*
X27500499Y-13228147D01*
X27500499Y-12899499D01*
X27520184Y-12832460D01*
X27572988Y-12786705D01*
X27624499Y-12775499D01*
X27722871Y-12775499D01*
X27722872Y-12775499D01*
X27782483Y-12769091D01*
X27917331Y-12718796D01*
X28032546Y-12632546D01*
X28049570Y-12609804D01*
X28105501Y-12567932D01*
X28166482Y-12561375D01*
X28299500Y-12580500D01*
G37*
%TD.AperFunction*%
%TD*%
%TA.AperFunction,Conductor*%
%TO.N,OUT1-1*%
G36*
X-41266183Y23802438D02*
G01*
X-41221612Y23773854D01*
X-38837223Y21389465D01*
X-38786439Y21339777D01*
X-38681256Y21236863D01*
X-38681244Y21236852D01*
X-38346947Y20956343D01*
X-37989484Y20706045D01*
X-37989473Y20706038D01*
X-37989467Y20706034D01*
X-37989458Y20706029D01*
X-37611538Y20487836D01*
X-37611523Y20487828D01*
X-37216027Y20303406D01*
X-37216018Y20303402D01*
X-36805935Y20154144D01*
X-36805924Y20154140D01*
X-36428948Y20053130D01*
X-36384404Y20041195D01*
X-36384398Y20041193D01*
X-36384394Y20041193D01*
X-35954636Y19965415D01*
X-35664805Y19940058D01*
X-35519892Y19927380D01*
X-35301691Y19925000D01*
X-26199000Y19925000D01*
X-26131961Y19905315D01*
X-26086206Y19852511D01*
X-26075000Y19801000D01*
X-26075000Y19452469D01*
X-26094685Y19385430D01*
X-26134850Y19346352D01*
X-26139602Y19343479D01*
X-26139606Y19343478D01*
X-26285185Y19255472D01*
X-26405472Y19135185D01*
X-26493478Y18989606D01*
X-26544086Y18827196D01*
X-26544086Y18827192D01*
X-26550500Y18756613D01*
X-26550500Y18736434D01*
X-26552883Y18712242D01*
X-26575500Y18598543D01*
X-26575500Y18401456D01*
X-26552883Y18287756D01*
X-26550500Y18263564D01*
X-26550500Y18243384D01*
X-26544086Y18172804D01*
X-26493478Y18010394D01*
X-26405472Y17864815D01*
X-26405470Y17864813D01*
X-26405469Y17864811D01*
X-26303339Y17762681D01*
X-26269854Y17701358D01*
X-26274838Y17631666D01*
X-26303339Y17587319D01*
X-26391157Y17499500D01*
X-26405472Y17485185D01*
X-26493478Y17339606D01*
X-26544086Y17177196D01*
X-26544086Y17177192D01*
X-26550500Y17106613D01*
X-26550500Y16951874D01*
X-26570185Y16884835D01*
X-26586819Y16864193D01*
X-26613633Y16837379D01*
X-26769042Y16642502D01*
X-26901654Y16431450D01*
X-26901656Y16431444D01*
X-26901657Y16431444D01*
X-26951945Y16327018D01*
X-27009802Y16206877D01*
X-27092127Y15971608D01*
X-27147592Y15728600D01*
X-27175500Y15480911D01*
X-27175500Y15356282D01*
X-27175501Y15274538D01*
X-27175500Y15274535D01*
X-27175500Y13216042D01*
X-27152882Y13102339D01*
X-27150499Y13078147D01*
X-27150499Y12749499D01*
X-27170184Y12682460D01*
X-27222988Y12636705D01*
X-27274499Y12625499D01*
X-27372872Y12625499D01*
X-27432483Y12619091D01*
X-27567331Y12568796D01*
X-27682546Y12482546D01*
X-27699570Y12459804D01*
X-27755501Y12417932D01*
X-27816482Y12411375D01*
X-27949500Y12430500D01*
X-27949503Y12430500D01*
X-33637495Y12430500D01*
X-33704534Y12450185D01*
X-33725176Y12466819D01*
X-36607213Y15348857D01*
X-36607234Y15348877D01*
X-36667536Y15400382D01*
X-36667538Y15400383D01*
X-36667541Y15400386D01*
X-36698927Y15423190D01*
X-36698935Y15423195D01*
X-36698941Y15423199D01*
X-36766553Y15464632D01*
X-36766567Y15464640D01*
X-36898831Y15532031D01*
X-36915407Y15542188D01*
X-37007230Y15608902D01*
X-37022025Y15621539D01*
X-37314401Y15913915D01*
X-37327038Y15928711D01*
X-37393741Y16020520D01*
X-37403908Y16037111D01*
X-37471291Y16169360D01*
X-37471302Y16169378D01*
X-37512742Y16237000D01*
X-37512742Y16237001D01*
X-37512747Y16237008D01*
X-37535550Y16268393D01*
X-37587063Y16328706D01*
X-37587077Y16328721D01*
X-42493910Y21235553D01*
X-42493920Y21235562D01*
X-42506512Y21245820D01*
X-42546055Y21303423D01*
X-42548179Y21373261D01*
X-42527892Y21415689D01*
X-42253988Y21786033D01*
X-42253987Y21786034D01*
X-42004517Y22191198D01*
X-42004507Y22191218D01*
X-41790302Y22616066D01*
X-41790298Y22616077D01*
X-41612898Y23057551D01*
X-41612893Y23057565D01*
X-41473567Y23512515D01*
X-41473566Y23512518D01*
X-41430510Y23712298D01*
X-41397143Y23773685D01*
X-41335884Y23807288D01*
X-41266183Y23802438D01*
G37*
%TD.AperFunction*%
%TD*%
%TA.AperFunction,Conductor*%
%TO.N,OUT1-2*%
G36*
X-35364603Y-580498D02*
G01*
X-35364591Y-580500D01*
X-35364578Y-580500D01*
X-26199000Y-580500D01*
X-26131961Y-600185D01*
X-26086206Y-652989D01*
X-26075000Y-704500D01*
X-26075000Y-3047530D01*
X-26094685Y-3114569D01*
X-26134850Y-3153647D01*
X-26139605Y-3156521D01*
X-26139606Y-3156522D01*
X-26249343Y-3222861D01*
X-26285188Y-3244530D01*
X-26405469Y-3364811D01*
X-26405470Y-3364813D01*
X-26405472Y-3364815D01*
X-26493478Y-3510394D01*
X-26544086Y-3672804D01*
X-26544086Y-3672807D01*
X-26550500Y-3743386D01*
X-26550500Y-3763564D01*
X-26552883Y-3787756D01*
X-26575500Y-3901456D01*
X-26575500Y-4098543D01*
X-26552883Y-4212242D01*
X-26550500Y-4236434D01*
X-26550500Y-4256616D01*
X-26544086Y-4327196D01*
X-26493478Y-4489606D01*
X-26405472Y-4635185D01*
X-26405469Y-4635188D01*
X-26405468Y-4635189D01*
X-26303339Y-4737319D01*
X-26269854Y-4798642D01*
X-26274838Y-4868334D01*
X-26303339Y-4912681D01*
X-26405469Y-5014811D01*
X-26405470Y-5014813D01*
X-26405472Y-5014815D01*
X-26493478Y-5160394D01*
X-26544086Y-5322804D01*
X-26544086Y-5322807D01*
X-26550500Y-5393386D01*
X-26550500Y-5548125D01*
X-26570185Y-5615164D01*
X-26586819Y-5635806D01*
X-26613633Y-5662620D01*
X-26769042Y-5857497D01*
X-26901654Y-6068549D01*
X-27009803Y-6293122D01*
X-27092127Y-6528391D01*
X-27147592Y-6771399D01*
X-27147593Y-6771411D01*
X-27175499Y-7019084D01*
X-27175500Y-7019086D01*
X-27175500Y-9283956D01*
X-27152882Y-9397658D01*
X-27150499Y-9421851D01*
X-27150499Y-9750500D01*
X-27170184Y-9817539D01*
X-27222988Y-9863294D01*
X-27274498Y-9874500D01*
X-27372869Y-9874500D01*
X-27372876Y-9874501D01*
X-27432483Y-9880908D01*
X-27567328Y-9931202D01*
X-27567335Y-9931206D01*
X-27682544Y-10017452D01*
X-27682547Y-10017455D01*
X-27768793Y-10132664D01*
X-27768795Y-10132668D01*
X-27768796Y-10132669D01*
X-27819091Y-10267517D01*
X-27825500Y-10327127D01*
X-27825499Y-11951001D01*
X-27845184Y-12018039D01*
X-27897987Y-12063794D01*
X-27949499Y-12075000D01*
X-33898241Y-12075000D01*
X-36633677Y-14810436D01*
X-36692759Y-14843412D01*
X-36723075Y-14850597D01*
X-36879850Y-14929333D01*
X-36879855Y-14929336D01*
X-36959963Y-14994593D01*
X-38091345Y-16125976D01*
X-38133585Y-16177828D01*
X-38156601Y-16206081D01*
X-38156606Y-16206089D01*
X-38235339Y-16362860D01*
X-38235339Y-16362861D01*
X-38235341Y-16362865D01*
X-38242525Y-16393177D01*
X-38275501Y-16452260D01*
X-42851356Y-21028115D01*
X-42912679Y-21061600D01*
X-42982371Y-21056616D01*
X-43024837Y-21029957D01*
X-43194793Y-20867069D01*
X-43194804Y-20867059D01*
X-43564991Y-20568154D01*
X-43564992Y-20568153D01*
X-43959199Y-20301717D01*
X-43959218Y-20301705D01*
X-44374591Y-20069663D01*
X-44374613Y-20069652D01*
X-44808168Y-19873673D01*
X-45256812Y-19715157D01*
X-45687597Y-19602989D01*
X-45747514Y-19567047D01*
X-45778487Y-19504417D01*
X-45770683Y-19434985D01*
X-45744033Y-19395309D01*
X-41898279Y-15549556D01*
X-41571479Y-15219317D01*
X-41571471Y-15219309D01*
X-40942966Y-14535038D01*
X-40942958Y-14535028D01*
X-40942952Y-14535022D01*
X-40344073Y-13824715D01*
X-39775857Y-13089601D01*
X-39239362Y-12331048D01*
X-39074110Y-12075000D01*
X-38735535Y-11550395D01*
X-38265298Y-10749069D01*
X-37829494Y-9928507D01*
X-37806749Y-9880908D01*
X-37428909Y-9090190D01*
X-37064266Y-8235634D01*
X-36736208Y-7366336D01*
X-36445359Y-6483960D01*
X-36192205Y-5589978D01*
X-35977230Y-4686092D01*
X-35800809Y-3773888D01*
X-35799263Y-3763564D01*
X-35663260Y-2855010D01*
X-35663258Y-2854997D01*
X-35564835Y-1931141D01*
X-35505706Y-1003891D01*
X-35499284Y-701417D01*
X-35478181Y-634810D01*
X-35424417Y-590186D01*
X-35369020Y-580801D01*
X-35369020Y-580500D01*
X-35367238Y-580500D01*
X-35366447Y-580366D01*
X-35364603Y-580498D01*
G37*
%TD.AperFunction*%
%TD*%
%TA.AperFunction,Conductor*%
%TO.N,OUT1-4*%
G36*
X43332371Y20906616D02*
G01*
X43374837Y20879957D01*
X43544793Y20717069D01*
X43544804Y20717059D01*
X43914991Y20418154D01*
X43914992Y20418153D01*
X44309199Y20151717D01*
X44309218Y20151705D01*
X44724591Y19919663D01*
X44724613Y19919652D01*
X45158168Y19723673D01*
X45606812Y19565157D01*
X46037597Y19452989D01*
X46097514Y19417047D01*
X46128487Y19354417D01*
X46120683Y19284985D01*
X46094033Y19245309D01*
X42248280Y15399557D01*
X41961064Y15109318D01*
X41921472Y15069310D01*
X41292967Y14385038D01*
X41292963Y14385033D01*
X40694065Y13674704D01*
X40125858Y12939602D01*
X39589363Y12181049D01*
X39085533Y11400390D01*
X38615300Y10599070D01*
X38179497Y9778513D01*
X37778905Y8940182D01*
X37492309Y8268529D01*
X37414264Y8085626D01*
X37086216Y7216356D01*
X37086209Y7216337D01*
X36795360Y6333960D01*
X36542206Y5439978D01*
X36327230Y4536089D01*
X36150810Y3623893D01*
X36013259Y2704997D01*
X35914836Y1781141D01*
X35855707Y853891D01*
X35850872Y626144D01*
X35829769Y559537D01*
X35776005Y514914D01*
X35717556Y507160D01*
X35717415Y505184D01*
X35713000Y505499D01*
X35712999Y505500D01*
X26549000Y505500D01*
X26481961Y525185D01*
X26436206Y577989D01*
X26425000Y629500D01*
X26425000Y2897530D01*
X26444685Y2964569D01*
X26484850Y3003647D01*
X26489606Y3006522D01*
X26635185Y3094528D01*
X26635188Y3094530D01*
X26755469Y3214811D01*
X26755470Y3214813D01*
X26755472Y3214815D01*
X26843478Y3360394D01*
X26894086Y3522804D01*
X26900500Y3593384D01*
X26900500Y3613564D01*
X26902883Y3637756D01*
X26925500Y3751456D01*
X26925500Y3948543D01*
X26902883Y4062242D01*
X26900500Y4086434D01*
X26900500Y4106613D01*
X26894086Y4177192D01*
X26894086Y4177196D01*
X26843478Y4339606D01*
X26755472Y4485185D01*
X26704568Y4536089D01*
X26653339Y4587319D01*
X26619854Y4648642D01*
X26624838Y4718334D01*
X26653339Y4762681D01*
X26755469Y4864811D01*
X26755470Y4864813D01*
X26755472Y4864815D01*
X26843478Y5010394D01*
X26894086Y5172804D01*
X26900500Y5243384D01*
X26900500Y5398115D01*
X26920185Y5465154D01*
X26936819Y5485796D01*
X26963637Y5512614D01*
X26963638Y5512615D01*
X27119048Y5707494D01*
X27251661Y5918548D01*
X27359809Y6143123D01*
X27442133Y6378395D01*
X27497596Y6621405D01*
X27525502Y6869097D01*
X27525500Y6993727D01*
X27525500Y7030549D01*
X27525500Y9133955D01*
X27502881Y9247660D01*
X27500499Y9271851D01*
X27500499Y9600500D01*
X27520184Y9667539D01*
X27572988Y9713294D01*
X27624498Y9724500D01*
X27722869Y9724500D01*
X27722876Y9724501D01*
X27782483Y9730908D01*
X27917328Y9781202D01*
X27917335Y9781206D01*
X28032544Y9867452D01*
X28032547Y9867455D01*
X28118793Y9982664D01*
X28118797Y9982671D01*
X28169091Y10117517D01*
X28175500Y10177127D01*
X28175499Y11801001D01*
X28195184Y11868039D01*
X28247987Y11913794D01*
X28299499Y11925000D01*
X34248241Y11925000D01*
X36983677Y14660436D01*
X37042759Y14693412D01*
X37073075Y14700597D01*
X37229850Y14779333D01*
X37229851Y14779334D01*
X37229855Y14779336D01*
X37309963Y14844593D01*
X38441345Y15975976D01*
X38506603Y16056084D01*
X38516354Y16075499D01*
X38585339Y16212860D01*
X38585339Y16212861D01*
X38585341Y16212865D01*
X38592525Y16243177D01*
X38625501Y16302260D01*
X43201356Y20878115D01*
X43262679Y20911600D01*
X43332371Y20906616D01*
G37*
%TD.AperFunction*%
%TD*%
%TA.AperFunction,Conductor*%
%TO.N,OUT2-4*%
G36*
X41702627Y23802355D02*
G01*
X41758560Y23760483D01*
X41780510Y23712298D01*
X41823566Y23512518D01*
X41823567Y23512515D01*
X41962893Y23057565D01*
X41962898Y23057551D01*
X42140298Y22616077D01*
X42140302Y22616066D01*
X42354507Y22191218D01*
X42354517Y22191198D01*
X42603991Y21786028D01*
X42878225Y21415239D01*
X42902262Y21349635D01*
X42887015Y21281449D01*
X42852838Y21242237D01*
X42843914Y21235557D01*
X42843913Y21235556D01*
X42843903Y21235547D01*
X40496223Y18887866D01*
X38268059Y16659702D01*
X38184098Y16548620D01*
X38151122Y16489537D01*
X38129677Y16434394D01*
X38127513Y16428829D01*
X38122756Y16418124D01*
X38085814Y16344564D01*
X38071133Y16321888D01*
X38069668Y16320090D01*
X38061219Y16310735D01*
X36975199Y15224714D01*
X36965826Y15216250D01*
X36964031Y15214788D01*
X36941374Y15200123D01*
X36867825Y15163185D01*
X36857115Y15158426D01*
X36796403Y15134817D01*
X36796397Y15134814D01*
X36796395Y15134813D01*
X36737313Y15101837D01*
X36737308Y15101833D01*
X36626238Y15017881D01*
X36626228Y15017872D01*
X34075176Y12466819D01*
X34013853Y12433334D01*
X33987495Y12430500D01*
X28299499Y12430500D01*
X28232460Y12450185D01*
X28186705Y12502989D01*
X28175499Y12554500D01*
X28175499Y13672870D01*
X28175499Y13672873D01*
X28169091Y13732483D01*
X28159673Y13757730D01*
X28153381Y13820461D01*
X28175500Y13960122D01*
X28175500Y14068796D01*
X28175501Y14125338D01*
X28175500Y14125342D01*
X28175500Y14858955D01*
X28152881Y14972660D01*
X28150499Y14996851D01*
X28150499Y15514363D01*
X28135046Y15631753D01*
X28135044Y15631757D01*
X28135044Y15631762D01*
X28074536Y15777841D01*
X27978282Y15903282D01*
X27852841Y15999536D01*
X27706762Y16060044D01*
X27589361Y16075500D01*
X27310640Y16075499D01*
X27310636Y16075499D01*
X27193246Y16060046D01*
X27193242Y16060044D01*
X27193238Y16060044D01*
X27047159Y15999536D01*
X27047157Y15999534D01*
X27046953Y15999450D01*
X26977484Y15991981D01*
X26915004Y16023256D01*
X26879352Y16083345D01*
X26875500Y16114011D01*
X26875500Y16748126D01*
X26895185Y16815165D01*
X26911819Y16835807D01*
X26947967Y16871955D01*
X26947970Y16871959D01*
X27036998Y17016294D01*
X27036999Y17016297D01*
X27037003Y17016303D01*
X27090349Y17177292D01*
X27100500Y17276655D01*
X27100499Y17873344D01*
X27090349Y17972708D01*
X27037003Y18133697D01*
X26947968Y18278044D01*
X26828044Y18397968D01*
X26683697Y18487003D01*
X26557234Y18528908D01*
X26516281Y18542479D01*
X26516692Y18543719D01*
X26461615Y18573553D01*
X26427924Y18634763D01*
X26425000Y18661530D01*
X26425000Y19801000D01*
X26444685Y19868039D01*
X26497489Y19913794D01*
X26549000Y19925000D01*
X35651695Y19925000D01*
X35869887Y19927310D01*
X35869891Y19927310D01*
X36304644Y19965346D01*
X36304648Y19965346D01*
X36734411Y20041125D01*
X36734415Y20041125D01*
X36734421Y20041127D01*
X36776411Y20052378D01*
X37155953Y20154074D01*
X37566045Y20303334D01*
X37961562Y20487766D01*
X37961577Y20487774D01*
X38339503Y20705970D01*
X38339512Y20705975D01*
X38696997Y20956289D01*
X38697003Y20956293D01*
X39031296Y21236799D01*
X39031320Y21236821D01*
X39187218Y21389460D01*
X41571612Y23773854D01*
X41632935Y23807339D01*
X41702627Y23802355D01*
G37*
%TD.AperFunction*%
%TD*%
%TA.AperFunction,Conductor*%
%TO.N,VM*%
G36*
X25862539Y19905315D02*
G01*
X25908294Y19852511D01*
X25919500Y19801000D01*
X25919500Y18661530D01*
X25920799Y18637682D01*
X25922489Y18606630D01*
X25925411Y18579875D01*
X25925412Y18579872D01*
X25934340Y18525655D01*
X25934340Y18525652D01*
X25985076Y18391008D01*
X26018764Y18329803D01*
X26023847Y18323038D01*
X26023975Y18322890D01*
X26105379Y18214906D01*
X26116782Y18206430D01*
X26151780Y18161582D01*
X26153583Y18162501D01*
X26155792Y18158164D01*
X26155794Y18158160D01*
X26231661Y18009262D01*
X26235088Y18002538D01*
X26275818Y17946478D01*
X26299298Y17880672D01*
X26299500Y17873593D01*
X26299500Y17375908D01*
X26279815Y17308869D01*
X26275826Y17303033D01*
X26235116Y17247008D01*
X26235115Y17247006D01*
X26235113Y17247004D01*
X26172424Y17123986D01*
X26124446Y17073193D01*
X26056624Y17056401D01*
X25990491Y17078943D01*
X25950218Y17126494D01*
X25949172Y17128667D01*
X25946387Y17134450D01*
X25811224Y17349560D01*
X25652826Y17548185D01*
X25613533Y17587478D01*
X25613532Y17587480D01*
X25586818Y17614193D01*
X25553333Y17675515D01*
X25550499Y17701875D01*
X25550499Y17873337D01*
X25550498Y17873355D01*
X25540349Y17972707D01*
X25540349Y17972708D01*
X25487003Y18133697D01*
X25397968Y18278044D01*
X25278044Y18397968D01*
X25133697Y18487003D01*
X24972708Y18540349D01*
X24873345Y18550500D01*
X24326656Y18550499D01*
X24326648Y18550498D01*
X24326644Y18550498D01*
X24227292Y18540349D01*
X24066303Y18487003D01*
X24066297Y18486999D01*
X24066294Y18486998D01*
X23940097Y18409158D01*
X23872705Y18390717D01*
X23809903Y18409158D01*
X23683705Y18486998D01*
X23683697Y18487003D01*
X23522708Y18540349D01*
X23423345Y18550500D01*
X22876656Y18550499D01*
X22876648Y18550498D01*
X22876644Y18550498D01*
X22777292Y18540349D01*
X22616303Y18487003D01*
X22616297Y18486999D01*
X22616294Y18486998D01*
X22471959Y18397970D01*
X22471955Y18397967D01*
X22462681Y18388693D01*
X22401358Y18355208D01*
X22331666Y18360192D01*
X22287319Y18388693D01*
X22285001Y18391011D01*
X22278044Y18397968D01*
X22133697Y18487003D01*
X21972708Y18540349D01*
X21873345Y18550500D01*
X21326656Y18550499D01*
X21326648Y18550498D01*
X21326644Y18550498D01*
X21227292Y18540349D01*
X21066303Y18487003D01*
X21066297Y18486999D01*
X21066294Y18486998D01*
X20921959Y18397970D01*
X20921955Y18397967D01*
X20802032Y18278044D01*
X20802029Y18278040D01*
X20713001Y18133705D01*
X20712996Y18133694D01*
X20659651Y17972709D01*
X20649500Y17873352D01*
X20649500Y17276662D01*
X20649501Y17276644D01*
X20659650Y17177292D01*
X20659651Y17177289D01*
X20712996Y17016305D01*
X20713001Y17016294D01*
X20802029Y16871959D01*
X20802032Y16871955D01*
X20921955Y16752032D01*
X20921959Y16752029D01*
X21066294Y16663001D01*
X21066305Y16662996D01*
X21227290Y16609651D01*
X21326647Y16599500D01*
X21326655Y16599500D01*
X21498125Y16599500D01*
X21565164Y16579815D01*
X21585806Y16563181D01*
X22244901Y15904084D01*
X22278386Y15842761D01*
X22273402Y15773069D01*
X22271781Y15768951D01*
X22214957Y15631765D01*
X22214955Y15631760D01*
X22199501Y15514370D01*
X22199500Y15514354D01*
X22199500Y14996849D01*
X22197117Y14972657D01*
X22174500Y14858957D01*
X22174500Y14716041D01*
X22197117Y14602339D01*
X22199500Y14578148D01*
X22199500Y14060636D01*
X22214954Y13943241D01*
X22214956Y13943235D01*
X22219733Y13931703D01*
X22227200Y13862234D01*
X22221353Y13840920D01*
X22180908Y13732482D01*
X22174501Y13672883D01*
X22174500Y13672864D01*
X22174500Y13049500D01*
X22154815Y12982461D01*
X22102011Y12936706D01*
X22050500Y12925500D01*
X21576457Y12925500D01*
X21383170Y12887052D01*
X21383165Y12887051D01*
X21383160Y12887049D01*
X21201092Y12811635D01*
X21201079Y12811628D01*
X21037218Y12702139D01*
X21037214Y12702136D01*
X20897863Y12562785D01*
X20897860Y12562781D01*
X20788371Y12398920D01*
X20788364Y12398907D01*
X20712950Y12216839D01*
X20712947Y12216829D01*
X20674500Y12023543D01*
X20674500Y11826456D01*
X20674499Y11826456D01*
X20712947Y11633170D01*
X20712950Y11633160D01*
X20788364Y11451092D01*
X20788371Y11451079D01*
X20897860Y11287218D01*
X20954816Y11230262D01*
X20988300Y11168938D01*
X20983315Y11099246D01*
X20970538Y11075446D01*
X20970716Y11075344D01*
X20872821Y10905784D01*
X20872818Y10905777D01*
X20814327Y10725760D01*
X20814325Y10725751D01*
X20813288Y10715885D01*
X20786701Y10651271D01*
X20777649Y10641170D01*
X20749489Y10613010D01*
X20749489Y10613011D01*
X20661362Y10524885D01*
X20505952Y10330006D01*
X20414364Y10184244D01*
X20373335Y10118946D01*
X20265190Y9894377D01*
X20182867Y9659104D01*
X20182865Y9659099D01*
X20127405Y9416101D01*
X20127401Y9416077D01*
X20099498Y9168408D01*
X20099498Y9168404D01*
X20099500Y9067620D01*
X20099500Y6613044D01*
X20099497Y6612991D01*
X20099497Y6605983D01*
X20099497Y6587128D01*
X20099498Y6575615D01*
X20099485Y6575570D01*
X20099488Y6409555D01*
X20129434Y6182147D01*
X20188804Y5960598D01*
X20188809Y5960586D01*
X20276579Y5748700D01*
X20276587Y5748683D01*
X20391261Y5550068D01*
X20391275Y5550046D01*
X20423876Y5507561D01*
X20449070Y5442392D01*
X20449500Y5432075D01*
X20449500Y5243386D01*
X20455913Y5172807D01*
X20506522Y5010393D01*
X20594530Y4864811D01*
X20594531Y4864810D01*
X20696661Y4762681D01*
X20730146Y4701358D01*
X20725162Y4631666D01*
X20696661Y4587319D01*
X20594530Y4485188D01*
X20594528Y4485185D01*
X20506522Y4339606D01*
X20457478Y4182213D01*
X20455913Y4177192D01*
X20449500Y4106613D01*
X20449500Y3593386D01*
X20455913Y3522807D01*
X20506522Y3360393D01*
X20594530Y3214811D01*
X20714811Y3094530D01*
X20860393Y3006522D01*
X21022807Y2955913D01*
X21074145Y2951248D01*
X21093384Y2949500D01*
X21093387Y2949500D01*
X21756613Y2949500D01*
X21756616Y2949500D01*
X21777778Y2951423D01*
X21827192Y2955913D01*
X21827194Y2955913D01*
X21827196Y2955914D01*
X21989606Y3006522D01*
X22110850Y3079817D01*
X22178405Y3097653D01*
X22239150Y3079817D01*
X22360396Y3006521D01*
X22360400Y3006519D01*
X22392213Y2996606D01*
X22424207Y2981327D01*
X22451086Y2963368D01*
X22451087Y2963367D01*
X22451091Y2963365D01*
X22633160Y2887950D01*
X22633170Y2887947D01*
X22826457Y2849500D01*
X22826459Y2849500D01*
X24326459Y2849500D01*
X25795500Y2849500D01*
X25862539Y2829815D01*
X25908294Y2777011D01*
X25919500Y2725500D01*
X25919500Y629500D01*
X25919500Y629491D01*
X25919501Y629490D01*
X25931052Y522049D01*
X25931054Y522037D01*
X25942260Y470527D01*
X25976385Y367999D01*
X26005434Y322797D01*
X26025117Y255757D01*
X26013911Y204247D01*
X25959664Y85465D01*
X25939976Y18417D01*
X25919500Y-124001D01*
X25919500Y-3838467D01*
X25922483Y-3893298D01*
X25922485Y-3893332D01*
X25925403Y-3920061D01*
X25925403Y-3920066D01*
X25934321Y-3974264D01*
X25985035Y-4108907D01*
X25985037Y-4108910D01*
X26017545Y-4167990D01*
X26018367Y-4169557D01*
X26018713Y-4170116D01*
X26018720Y-4170125D01*
X26018721Y-4170127D01*
X26105317Y-4285030D01*
X26220778Y-4370881D01*
X26275867Y-4400731D01*
X26275867Y-4400730D01*
X26298452Y-4412968D01*
X26303828Y-4412950D01*
X26324656Y-4421087D01*
X26356358Y-4436904D01*
X26407556Y-4484443D01*
X26425000Y-4547860D01*
X26425000Y-4978125D01*
X26405315Y-5045164D01*
X26399382Y-5053603D01*
X26302173Y-5180309D01*
X26302169Y-5180314D01*
X26212671Y-5335355D01*
X26188868Y-5392831D01*
X26145029Y-5447236D01*
X26078736Y-5469305D01*
X26011036Y-5452029D01*
X25963423Y-5400894D01*
X25962654Y-5399330D01*
X25946387Y-5365550D01*
X25811224Y-5150439D01*
X25652826Y-4951815D01*
X25647521Y-4946510D01*
X25613535Y-4912522D01*
X25613532Y-4912520D01*
X25586818Y-4885806D01*
X25553333Y-4824483D01*
X25550499Y-4798125D01*
X25550499Y-4626662D01*
X25550498Y-4626644D01*
X25540349Y-4527292D01*
X25540348Y-4527289D01*
X25487003Y-4366303D01*
X25486999Y-4366297D01*
X25486998Y-4366294D01*
X25397970Y-4221959D01*
X25397967Y-4221955D01*
X25278044Y-4102032D01*
X25278040Y-4102029D01*
X25133705Y-4013001D01*
X25133699Y-4012998D01*
X25133697Y-4012997D01*
X25133694Y-4012996D01*
X24972709Y-3959651D01*
X24873346Y-3949500D01*
X24326662Y-3949500D01*
X24326644Y-3949501D01*
X24227292Y-3959650D01*
X24227289Y-3959651D01*
X24066305Y-4012996D01*
X24066300Y-4012998D01*
X23940097Y-4090842D01*
X23872704Y-4109282D01*
X23809903Y-4090842D01*
X23683699Y-4012998D01*
X23683694Y-4012996D01*
X23522709Y-3959651D01*
X23423346Y-3949500D01*
X22876662Y-3949500D01*
X22876644Y-3949501D01*
X22777292Y-3959650D01*
X22777289Y-3959651D01*
X22616305Y-4012996D01*
X22616294Y-4013001D01*
X22471959Y-4102029D01*
X22471955Y-4102032D01*
X22462681Y-4111307D01*
X22401358Y-4144792D01*
X22331666Y-4139808D01*
X22287319Y-4111307D01*
X22278044Y-4102032D01*
X22278040Y-4102029D01*
X22133705Y-4013001D01*
X22133699Y-4012998D01*
X22133697Y-4012997D01*
X22133694Y-4012996D01*
X21972709Y-3959651D01*
X21873346Y-3949500D01*
X21326662Y-3949500D01*
X21326644Y-3949501D01*
X21227292Y-3959650D01*
X21227289Y-3959651D01*
X21066305Y-4012996D01*
X21066294Y-4013001D01*
X20921959Y-4102029D01*
X20921955Y-4102032D01*
X20802032Y-4221955D01*
X20802029Y-4221959D01*
X20713001Y-4366294D01*
X20712996Y-4366305D01*
X20659651Y-4527290D01*
X20649500Y-4626647D01*
X20649500Y-5223337D01*
X20649501Y-5223355D01*
X20659650Y-5322707D01*
X20659651Y-5322710D01*
X20712996Y-5483694D01*
X20713001Y-5483705D01*
X20802029Y-5628040D01*
X20802032Y-5628044D01*
X20921955Y-5747967D01*
X20921959Y-5747970D01*
X21066294Y-5836998D01*
X21066297Y-5836999D01*
X21066303Y-5837003D01*
X21227292Y-5890349D01*
X21326655Y-5900500D01*
X21498124Y-5900499D01*
X21565164Y-5920183D01*
X21585806Y-5936818D01*
X22244902Y-6595914D01*
X22278387Y-6657237D01*
X22273403Y-6726929D01*
X22271782Y-6731048D01*
X22214956Y-6868237D01*
X22214955Y-6868239D01*
X22199501Y-6985629D01*
X22199500Y-6985645D01*
X22199500Y-7503149D01*
X22197117Y-7527340D01*
X22174500Y-7641041D01*
X22174500Y-7783956D01*
X22197117Y-7897658D01*
X22199500Y-7921850D01*
X22199500Y-8439363D01*
X22214954Y-8556755D01*
X22214956Y-8556763D01*
X22219734Y-8568299D01*
X22227200Y-8637768D01*
X22221353Y-8659079D01*
X22180908Y-8767517D01*
X22174501Y-8827116D01*
X22174500Y-8827135D01*
X22174500Y-9450500D01*
X22154815Y-9517539D01*
X22102011Y-9563294D01*
X22050500Y-9574500D01*
X21576457Y-9574500D01*
X21383170Y-9612947D01*
X21383160Y-9612950D01*
X21201092Y-9688364D01*
X21201079Y-9688371D01*
X21037218Y-9797860D01*
X21037214Y-9797863D01*
X20897863Y-9937214D01*
X20897860Y-9937218D01*
X20788371Y-10101079D01*
X20788364Y-10101092D01*
X20712950Y-10283160D01*
X20712947Y-10283170D01*
X20686131Y-10417984D01*
X20653746Y-10479895D01*
X20593030Y-10514469D01*
X20523261Y-10510729D01*
X20491629Y-10494110D01*
X20452734Y-10465851D01*
X20452729Y-10465848D01*
X20279807Y-10388857D01*
X20279802Y-10388855D01*
X20134001Y-10357865D01*
X20094646Y-10349500D01*
X19905354Y-10349500D01*
X19872897Y-10356398D01*
X19720197Y-10388855D01*
X19720192Y-10388857D01*
X19547270Y-10465848D01*
X19547265Y-10465851D01*
X19394129Y-10577111D01*
X19267466Y-10717785D01*
X19232387Y-10778544D01*
X19181820Y-10826760D01*
X19113213Y-10839983D01*
X19048348Y-10814015D01*
X19017613Y-10778544D01*
X19002266Y-10751962D01*
X18982533Y-10717784D01*
X18855871Y-10577112D01*
X18840797Y-10566160D01*
X18702734Y-10465851D01*
X18702729Y-10465848D01*
X18529807Y-10388857D01*
X18529802Y-10388855D01*
X18384001Y-10357865D01*
X18344646Y-10349500D01*
X18155354Y-10349500D01*
X18122897Y-10356398D01*
X17970197Y-10388855D01*
X17970192Y-10388857D01*
X17797270Y-10465848D01*
X17797265Y-10465851D01*
X17644129Y-10577111D01*
X17517466Y-10717785D01*
X17422821Y-10881715D01*
X17422818Y-10881722D01*
X17379090Y-11016305D01*
X17364326Y-11061744D01*
X17344540Y-11250000D01*
X17364326Y-11438256D01*
X17364327Y-11438259D01*
X17422818Y-11618277D01*
X17422821Y-11618284D01*
X17436826Y-11642541D01*
X17453299Y-11710442D01*
X17430446Y-11776468D01*
X17424148Y-11783914D01*
X17424150Y-11783916D01*
X17419526Y-11789816D01*
X17331522Y-11935393D01*
X17280913Y-12097807D01*
X17274500Y-12168386D01*
X17274500Y-12681613D01*
X17280913Y-12752192D01*
X17280913Y-12752194D01*
X17280914Y-12752196D01*
X17331522Y-12914606D01*
X17331523Y-12914608D01*
X17331524Y-12914610D01*
X17334600Y-12921445D01*
X17332472Y-12922402D01*
X17347390Y-12978908D01*
X17325871Y-13045381D01*
X17271829Y-13089667D01*
X17223437Y-13099500D01*
X17080406Y-13099500D01*
X17013367Y-13079815D01*
X16967612Y-13027011D01*
X16961330Y-13010095D01*
X16951745Y-12977106D01*
X16951744Y-12977103D01*
X16951744Y-12977102D01*
X16868081Y-12835635D01*
X16868079Y-12835633D01*
X16868076Y-12835629D01*
X16751870Y-12719423D01*
X16751862Y-12719417D01*
X16640146Y-12653349D01*
X16610398Y-12635756D01*
X16610397Y-12635755D01*
X16610396Y-12635755D01*
X16610393Y-12635754D01*
X16452573Y-12589902D01*
X16452567Y-12589901D01*
X16415701Y-12587000D01*
X16415694Y-12587000D01*
X16174500Y-12587000D01*
X16107461Y-12567315D01*
X16061706Y-12514511D01*
X16050500Y-12463000D01*
X16050500Y-11296813D01*
X16050499Y-11296798D01*
X16049592Y-11285278D01*
X16047598Y-11259931D01*
X16044212Y-11248277D01*
X16001745Y-11102105D01*
X16001742Y-11102097D01*
X15992768Y-11086923D01*
X15975500Y-11023802D01*
X15975500Y-10827622D01*
X15992112Y-10765623D01*
X16077179Y-10618284D01*
X16135674Y-10438256D01*
X16155460Y-10250000D01*
X16135674Y-10061744D01*
X16077179Y-9881716D01*
X15982533Y-9717784D01*
X15973698Y-9707972D01*
X15943469Y-9644981D01*
X15952093Y-9575646D01*
X15973699Y-9542027D01*
X15982533Y-9532216D01*
X16077179Y-9368284D01*
X16135674Y-9188256D01*
X16155460Y-9000000D01*
X16135674Y-8811744D01*
X16077179Y-8631716D01*
X15982533Y-8467784D01*
X15855871Y-8327112D01*
X15855870Y-8327111D01*
X15702734Y-8215851D01*
X15702729Y-8215848D01*
X15529807Y-8138857D01*
X15529802Y-8138855D01*
X15384001Y-8107865D01*
X15344646Y-8099500D01*
X15155354Y-8099500D01*
X15122897Y-8106398D01*
X14970197Y-8138855D01*
X14970192Y-8138857D01*
X14797270Y-8215848D01*
X14797265Y-8215851D01*
X14644129Y-8327111D01*
X14517466Y-8467785D01*
X14422821Y-8631715D01*
X14422818Y-8631722D01*
X14364327Y-8811739D01*
X14364325Y-8811748D01*
X14363287Y-8821624D01*
X14336699Y-8886237D01*
X14327649Y-8896336D01*
X14208379Y-9015608D01*
X14208337Y-9015653D01*
X14168777Y-9055213D01*
X14004400Y-9261339D01*
X14004394Y-9261348D01*
X13864132Y-9484578D01*
X13749741Y-9722121D01*
X13749738Y-9722128D01*
X13662670Y-9970971D01*
X13662669Y-9970976D01*
X13604009Y-10228007D01*
X13604009Y-10228008D01*
X13590622Y-10346853D01*
X13575636Y-10479895D01*
X13574497Y-10490003D01*
X13574500Y-10621824D01*
X13574500Y-12898802D01*
X13557232Y-12961923D01*
X13548257Y-12977097D01*
X13548254Y-12977105D01*
X13502402Y-13134926D01*
X13502401Y-13134932D01*
X13499500Y-13171798D01*
X13499500Y-13549126D01*
X13479815Y-13616165D01*
X13427011Y-13661920D01*
X13357853Y-13671864D01*
X13294297Y-13642839D01*
X13287819Y-13636807D01*
X13286819Y-13635807D01*
X13253334Y-13574484D01*
X13250500Y-13548126D01*
X13250500Y-13171813D01*
X13250499Y-13171798D01*
X13247598Y-13134932D01*
X13247597Y-13134926D01*
X13201745Y-12977106D01*
X13201744Y-12977103D01*
X13201744Y-12977102D01*
X13118081Y-12835635D01*
X13118079Y-12835633D01*
X13118076Y-12835629D01*
X13001870Y-12719423D01*
X13001862Y-12719417D01*
X12890146Y-12653349D01*
X12860398Y-12635756D01*
X12860397Y-12635755D01*
X12860396Y-12635755D01*
X12860393Y-12635754D01*
X12702573Y-12589902D01*
X12702567Y-12589901D01*
X12665701Y-12587000D01*
X12665694Y-12587000D01*
X12424500Y-12587000D01*
X12357461Y-12567315D01*
X12311706Y-12514511D01*
X12300500Y-12463000D01*
X12300500Y-11296813D01*
X12300499Y-11296798D01*
X12299592Y-11285278D01*
X12297598Y-11259931D01*
X12294212Y-11248277D01*
X12251745Y-11102105D01*
X12251742Y-11102097D01*
X12242768Y-11086923D01*
X12225500Y-11023802D01*
X12225500Y-10827622D01*
X12242112Y-10765623D01*
X12327179Y-10618284D01*
X12385674Y-10438256D01*
X12405460Y-10250000D01*
X12385674Y-10061744D01*
X12327179Y-9881716D01*
X12232533Y-9717784D01*
X12105871Y-9577112D01*
X12105867Y-9577109D01*
X11952734Y-9465851D01*
X11952729Y-9465848D01*
X11779807Y-9388857D01*
X11779802Y-9388855D01*
X11634001Y-9357865D01*
X11594646Y-9349500D01*
X11405354Y-9349500D01*
X11372897Y-9356398D01*
X11220197Y-9388855D01*
X11220192Y-9388857D01*
X11047270Y-9465848D01*
X11047265Y-9465851D01*
X10894132Y-9577109D01*
X10894129Y-9577111D01*
X10894129Y-9577112D01*
X10842148Y-9634841D01*
X10782663Y-9671489D01*
X10712806Y-9670158D01*
X10657851Y-9634841D01*
X10605871Y-9577112D01*
X10603436Y-9575343D01*
X10452734Y-9465851D01*
X10452729Y-9465848D01*
X10279807Y-9388857D01*
X10279802Y-9388855D01*
X10134001Y-9357865D01*
X10094646Y-9349500D01*
X9905354Y-9349500D01*
X9872897Y-9356398D01*
X9720197Y-9388855D01*
X9720192Y-9388857D01*
X9547270Y-9465848D01*
X9547265Y-9465851D01*
X9394129Y-9577111D01*
X9267466Y-9717785D01*
X9172821Y-9881715D01*
X9172818Y-9881722D01*
X9138888Y-9986149D01*
X9114326Y-10061744D01*
X9094540Y-10250000D01*
X9114326Y-10438256D01*
X9114327Y-10438259D01*
X9172818Y-10618277D01*
X9172821Y-10618284D01*
X9257887Y-10765623D01*
X9274500Y-10827622D01*
X9274500Y-12963263D01*
X9274503Y-12963328D01*
X9274503Y-12995176D01*
X9302980Y-13211496D01*
X9359449Y-13422241D01*
X9359454Y-13422257D01*
X9442937Y-13623805D01*
X9442944Y-13623820D01*
X9552033Y-13812768D01*
X9579442Y-13848488D01*
X9684855Y-13985866D01*
X9711466Y-14012478D01*
X9711468Y-14012480D01*
X9713157Y-14014169D01*
X9713537Y-14014865D01*
X9722984Y-14025758D01*
X9722987Y-14025762D01*
X9720507Y-14027621D01*
X9746659Y-14075481D01*
X9749500Y-14101874D01*
X9749500Y-14478201D01*
X9752401Y-14515067D01*
X9752402Y-14515073D01*
X9798254Y-14672893D01*
X9798255Y-14672896D01*
X9881917Y-14814362D01*
X9881923Y-14814370D01*
X9998129Y-14930576D01*
X9998133Y-14930579D01*
X9998135Y-14930581D01*
X10139602Y-15014244D01*
X10173303Y-15024035D01*
X10297426Y-15060097D01*
X10297429Y-15060097D01*
X10297431Y-15060098D01*
X10334306Y-15063000D01*
X10334314Y-15063000D01*
X10765686Y-15063000D01*
X10765694Y-15063000D01*
X10802569Y-15060098D01*
X10802571Y-15060097D01*
X10802573Y-15060097D01*
X10844191Y-15048005D01*
X10960398Y-15014244D01*
X11101865Y-14930581D01*
X11218081Y-14814365D01*
X11301744Y-14672898D01*
X11347598Y-14515069D01*
X11350500Y-14478194D01*
X11350500Y-13312000D01*
X11370185Y-13244961D01*
X11422989Y-13199206D01*
X11474500Y-13188000D01*
X11525500Y-13188000D01*
X11592539Y-13207685D01*
X11638294Y-13260489D01*
X11649500Y-13312000D01*
X11649500Y-14478201D01*
X11652401Y-14515067D01*
X11652402Y-14515073D01*
X11698254Y-14672893D01*
X11698255Y-14672896D01*
X11781917Y-14814362D01*
X11781923Y-14814370D01*
X11898129Y-14930576D01*
X11898133Y-14930579D01*
X11898135Y-14930581D01*
X12039602Y-15014244D01*
X12073303Y-15024035D01*
X12197426Y-15060097D01*
X12197429Y-15060097D01*
X12197431Y-15060098D01*
X12234306Y-15063000D01*
X12610626Y-15063000D01*
X12677665Y-15082685D01*
X12698307Y-15099319D01*
X13014797Y-15415809D01*
X13014816Y-15415826D01*
X13048008Y-15449018D01*
X13248995Y-15603242D01*
X13468394Y-15729913D01*
X13702449Y-15826863D01*
X13947157Y-15892433D01*
X14135536Y-15917233D01*
X14198329Y-15925500D01*
X14198330Y-15925500D01*
X14243256Y-15925500D01*
X14273637Y-15925500D01*
X14273640Y-15925501D01*
X14325000Y-15925501D01*
X14451671Y-15925501D01*
X14532900Y-15914807D01*
X14702843Y-15892434D01*
X14947550Y-15826864D01*
X15181606Y-15729914D01*
X15401004Y-15603244D01*
X15601992Y-15449019D01*
X15691561Y-15359450D01*
X15749363Y-15301648D01*
X15749362Y-15301648D01*
X15951693Y-15099316D01*
X16013016Y-15065834D01*
X16039373Y-15063000D01*
X16415686Y-15063000D01*
X16415694Y-15063000D01*
X16452569Y-15060098D01*
X16452571Y-15060097D01*
X16452573Y-15060097D01*
X16494191Y-15048005D01*
X16610398Y-15014244D01*
X16751865Y-14930581D01*
X16868081Y-14814365D01*
X16951744Y-14672898D01*
X16955781Y-14659000D01*
X16961330Y-14639905D01*
X16998936Y-14581019D01*
X17062409Y-14551813D01*
X17080406Y-14550500D01*
X17253058Y-14550500D01*
X17320097Y-14570185D01*
X17359174Y-14610349D01*
X17419528Y-14710185D01*
X17419531Y-14710189D01*
X17539811Y-14830469D01*
X17539813Y-14830470D01*
X17539815Y-14830472D01*
X17685394Y-14918478D01*
X17847804Y-14969086D01*
X17918384Y-14975500D01*
X17918387Y-14975500D01*
X18581613Y-14975500D01*
X18581616Y-14975500D01*
X18652196Y-14969086D01*
X18814606Y-14918478D01*
X18960185Y-14830472D01*
X18960189Y-14830467D01*
X18960192Y-14830466D01*
X18964765Y-14826885D01*
X19029678Y-14801039D01*
X19041232Y-14800500D01*
X19150512Y-14800500D01*
X19217551Y-14820185D01*
X19263306Y-14872989D01*
X19274512Y-14924500D01*
X19274512Y-14967432D01*
X19306402Y-15250472D01*
X19306405Y-15250491D01*
X19369787Y-15528194D01*
X19369789Y-15528200D01*
X19463865Y-15797061D01*
X19463867Y-15797065D01*
X19463868Y-15797068D01*
X19587459Y-16053713D01*
X19739007Y-16294906D01*
X19916607Y-16517615D01*
X19916610Y-16517618D01*
X19916614Y-16517623D01*
X19963165Y-16564175D01*
X19963190Y-16564202D01*
X19973805Y-16574817D01*
X20007290Y-16636140D01*
X20002306Y-16705832D01*
X19973805Y-16750179D01*
X19714265Y-17009719D01*
X19579328Y-17144657D01*
X19458117Y-17265868D01*
X19182545Y-17541441D01*
X19107048Y-17616938D01*
X19107047Y-17616937D01*
X18846691Y-17877294D01*
X18839542Y-17883903D01*
X18705532Y-17998359D01*
X18689789Y-18009797D01*
X18543692Y-18099324D01*
X18526355Y-18108157D01*
X18368057Y-18173725D01*
X18349550Y-18179738D01*
X18182944Y-18219734D01*
X18163726Y-18222778D01*
X17987842Y-18236617D01*
X17978114Y-18236999D01*
X17907928Y-18236998D01*
X17901434Y-18236998D01*
X17901433Y-18236998D01*
X17894669Y-18236998D01*
X17894633Y-18237000D01*
X7914551Y-18237000D01*
X7847512Y-18217315D01*
X7801757Y-18164511D01*
X7791813Y-18095353D01*
X7796845Y-18073996D01*
X7819242Y-18006404D01*
X7840349Y-17942708D01*
X7845755Y-17889788D01*
X7854550Y-17854942D01*
X7862051Y-17836835D01*
X7888305Y-17704851D01*
X7900500Y-17643543D01*
X7900500Y-11476456D01*
X7862052Y-11283170D01*
X7862051Y-11283167D01*
X7862051Y-11283165D01*
X7854549Y-11265055D01*
X7845754Y-11230206D01*
X7844395Y-11216902D01*
X7840349Y-11177292D01*
X7787003Y-11016303D01*
X7786999Y-11016297D01*
X7786998Y-11016294D01*
X7697970Y-10871959D01*
X7697967Y-10871955D01*
X7578044Y-10752032D01*
X7578040Y-10752029D01*
X7433705Y-10663001D01*
X7433699Y-10662998D01*
X7433697Y-10662997D01*
X7366937Y-10640875D01*
X7272709Y-10609651D01*
X7173352Y-10599500D01*
X7173345Y-10599500D01*
X7136434Y-10599500D01*
X7112243Y-10597117D01*
X7074551Y-10589619D01*
X6998543Y-10574500D01*
X6998541Y-10574500D01*
X6801459Y-10574500D01*
X6768569Y-10581041D01*
X6687745Y-10597118D01*
X6663558Y-10599500D01*
X6626663Y-10599500D01*
X6626643Y-10599501D01*
X6527292Y-10609650D01*
X6527289Y-10609651D01*
X6366305Y-10662996D01*
X6366294Y-10663001D01*
X6221959Y-10752029D01*
X6221955Y-10752032D01*
X6102032Y-10871955D01*
X6102029Y-10871959D01*
X6013001Y-11016294D01*
X6012996Y-11016305D01*
X5959651Y-11177290D01*
X5959650Y-11177296D01*
X5954243Y-11230214D01*
X5945450Y-11265051D01*
X5937950Y-11283161D01*
X5937948Y-11283167D01*
X5899500Y-11476456D01*
X5899500Y-14950500D01*
X5879815Y-15017539D01*
X5827011Y-15063294D01*
X5775500Y-15074500D01*
X4712242Y-15074500D01*
X4645203Y-15054815D01*
X4601030Y-15005343D01*
X4584783Y-14972398D01*
X4584780Y-14972392D01*
X4556839Y-14930576D01*
X4424520Y-14732546D01*
X4317356Y-14610349D01*
X4234327Y-14515672D01*
X4017452Y-14325478D01*
X3777613Y-14165223D01*
X3777606Y-14165219D01*
X3518905Y-14037642D01*
X3245760Y-13944921D01*
X3245754Y-13944919D01*
X3245753Y-13944919D01*
X3245751Y-13944918D01*
X3245745Y-13944917D01*
X2962849Y-13888646D01*
X2962839Y-13888644D01*
X2675000Y-13869778D01*
X2387161Y-13888644D01*
X2387155Y-13888645D01*
X2387150Y-13888646D01*
X2104254Y-13944917D01*
X2104239Y-13944921D01*
X1831094Y-14037642D01*
X1572393Y-14165219D01*
X1572386Y-14165223D01*
X1332547Y-14325478D01*
X1115672Y-14515672D01*
X925478Y-14732547D01*
X765223Y-14972386D01*
X765219Y-14972393D01*
X637642Y-15231094D01*
X544921Y-15504239D01*
X544917Y-15504254D01*
X489718Y-15781760D01*
X488644Y-15787161D01*
X469778Y-16075000D01*
X485842Y-16320096D01*
X488644Y-16362837D01*
X488646Y-16362849D01*
X544917Y-16645745D01*
X544921Y-16645760D01*
X637642Y-16918905D01*
X765219Y-17177606D01*
X765223Y-17177613D01*
X925478Y-17417452D01*
X1115672Y-17634327D01*
X1332547Y-17824521D01*
X1572386Y-17984776D01*
X1572393Y-17984780D01*
X1606882Y-18001788D01*
X1658301Y-18049093D01*
X1675983Y-18116688D01*
X1654313Y-18183112D01*
X1600172Y-18227277D01*
X1552038Y-18237000D01*
X-2485271Y-18237000D01*
X-2493381Y-18236735D01*
X-2720771Y-18221831D01*
X-2736853Y-18219713D01*
X-2956343Y-18176053D01*
X-2972010Y-18171855D01*
X-3183926Y-18099919D01*
X-3198911Y-18093712D01*
X-3399634Y-17994726D01*
X-3413680Y-17986616D01*
X-3599753Y-17862287D01*
X-3612622Y-17852413D01*
X-3780884Y-17704851D01*
X-3792353Y-17693382D01*
X-3939913Y-17525122D01*
X-3949787Y-17512253D01*
X-4074116Y-17326180D01*
X-4082226Y-17312134D01*
X-4181212Y-17111411D01*
X-4187419Y-17096426D01*
X-4259355Y-16884510D01*
X-4263553Y-16868843D01*
X-4307213Y-16649353D01*
X-4309331Y-16633271D01*
X-4324235Y-16405881D01*
X-4324500Y-16397771D01*
X-4324500Y-14790122D01*
X-4307887Y-14728123D01*
X-4222821Y-14580784D01*
X-4222818Y-14580777D01*
X-4164327Y-14400759D01*
X-4164326Y-14400756D01*
X-4144540Y-14212500D01*
X-4164326Y-14024244D01*
X-4167600Y-14014167D01*
X-4222818Y-13844222D01*
X-4222821Y-13844215D01*
X-4317466Y-13680285D01*
X-4444129Y-13539611D01*
X-4597265Y-13428351D01*
X-4597270Y-13428348D01*
X-4770192Y-13351357D01*
X-4770197Y-13351355D01*
X-4922897Y-13318898D01*
X-4955354Y-13312000D01*
X-5144646Y-13312000D01*
X-5180063Y-13319528D01*
X-5329802Y-13351355D01*
X-5329807Y-13351357D01*
X-5502729Y-13428348D01*
X-5502734Y-13428351D01*
X-5611081Y-13507070D01*
X-5655871Y-13539612D01*
X-5782533Y-13680284D01*
X-5877179Y-13844216D01*
X-5935674Y-14024244D01*
X-5955460Y-14212500D01*
X-5935674Y-14400756D01*
X-5877179Y-14580784D01*
X-5792112Y-14728123D01*
X-5775500Y-14790122D01*
X-5775500Y-16320094D01*
X-5775500Y-16320096D01*
X-5775500Y-16401840D01*
X-5775500Y-16563278D01*
X-5743852Y-16884601D01*
X-5700186Y-17104125D01*
X-5685569Y-17177613D01*
X-5680862Y-17201274D01*
X-5587135Y-17510248D01*
X-5463575Y-17808548D01*
X-5311372Y-18093300D01*
X-5131992Y-18361763D01*
X-5131986Y-18361769D01*
X-5131985Y-18361772D01*
X-5077600Y-18428040D01*
X-4927161Y-18611351D01*
X-4881016Y-18657494D01*
X-4881014Y-18657498D01*
X-4870808Y-18667703D01*
X-4870808Y-18667705D01*
X-4841180Y-18697332D01*
X-4813007Y-18725505D01*
X-4755205Y-18783308D01*
X-4755203Y-18783308D01*
X-4744997Y-18793515D01*
X-4744992Y-18793518D01*
X-4698851Y-18839661D01*
X-4449263Y-19044492D01*
X-4180800Y-19223872D01*
X-3896048Y-19376075D01*
X-3597748Y-19499635D01*
X-3288774Y-19593362D01*
X-3288764Y-19593363D01*
X-3288761Y-19593365D01*
X-3288755Y-19593366D01*
X-3220729Y-19606896D01*
X-2972101Y-19656352D01*
X-2650778Y-19688000D01*
X-2650775Y-19688000D01*
X18060788Y-19688000D01*
X18061055Y-19687986D01*
X18132948Y-19687988D01*
X18430655Y-19654449D01*
X18722734Y-19587787D01*
X19005513Y-19488842D01*
X19275435Y-19358857D01*
X19529105Y-19199467D01*
X19763334Y-19012676D01*
X19813353Y-18962655D01*
X19813377Y-18962635D01*
X19818731Y-18957280D01*
X19818734Y-18957279D01*
X19869256Y-18906756D01*
X19927058Y-18848954D01*
X19927058Y-18848953D01*
X20133064Y-18642946D01*
X20208557Y-18567453D01*
X20208557Y-18567452D01*
X20237820Y-18538187D01*
X20299142Y-18504704D01*
X20368834Y-18509688D01*
X20424767Y-18551560D01*
X20449184Y-18617024D01*
X20449500Y-18625870D01*
X20449500Y-18906613D01*
X20455913Y-18977192D01*
X20455913Y-18977194D01*
X20455914Y-18977196D01*
X20474819Y-19037866D01*
X20506522Y-19139606D01*
X20594530Y-19285188D01*
X20714811Y-19405469D01*
X20714813Y-19405470D01*
X20714815Y-19405472D01*
X20860394Y-19493478D01*
X21022804Y-19544086D01*
X21093384Y-19550500D01*
X21093387Y-19550500D01*
X21756613Y-19550500D01*
X21756616Y-19550500D01*
X21827196Y-19544086D01*
X21989606Y-19493478D01*
X22110853Y-19420180D01*
X22178404Y-19402346D01*
X22239145Y-19420180D01*
X22360394Y-19493478D01*
X22392211Y-19503392D01*
X22424210Y-19518674D01*
X22451086Y-19536632D01*
X22451088Y-19536632D01*
X22451092Y-19536635D01*
X22588055Y-19593366D01*
X22633165Y-19612051D01*
X22633169Y-19612051D01*
X22633170Y-19612052D01*
X22826456Y-19650500D01*
X22826459Y-19650500D01*
X24326459Y-19650500D01*
X25795500Y-19650500D01*
X25862539Y-19670185D01*
X25908294Y-19722989D01*
X25919500Y-19774500D01*
X25919500Y-19951000D01*
X25899815Y-20018039D01*
X25847011Y-20063794D01*
X25795500Y-20075000D01*
X-25445500Y-20075000D01*
X-25512539Y-20055315D01*
X-25558294Y-20002511D01*
X-25569500Y-19951000D01*
X-25569500Y-18811541D01*
X-25569500Y-18811530D01*
X-25572489Y-18756636D01*
X-25572489Y-18756630D01*
X-25575411Y-18729875D01*
X-25575412Y-18729872D01*
X-25584340Y-18675655D01*
X-25584340Y-18675652D01*
X-25635076Y-18541008D01*
X-25668764Y-18479803D01*
X-25673847Y-18473038D01*
X-25673975Y-18472890D01*
X-25760716Y-18357828D01*
X-25758544Y-18356191D01*
X-25780181Y-18320959D01*
X-25783919Y-18309455D01*
X-25866258Y-18147857D01*
X-25866266Y-18147844D01*
X-25925818Y-18065878D01*
X-25949298Y-18000072D01*
X-25949500Y-17992993D01*
X-25949500Y-17525933D01*
X-25929815Y-17458894D01*
X-25925825Y-17453058D01*
X-25905480Y-17425056D01*
X-25885083Y-17396983D01*
X-25885083Y-17396982D01*
X-25822420Y-17274001D01*
X-25774446Y-17223206D01*
X-25706625Y-17206411D01*
X-25640490Y-17228949D01*
X-25600213Y-17276502D01*
X-25596387Y-17284448D01*
X-25461224Y-17499558D01*
X-25302827Y-17698183D01*
X-25268911Y-17732098D01*
X-25268903Y-17732108D01*
X-25263533Y-17737477D01*
X-25263532Y-17737480D01*
X-25236817Y-17764194D01*
X-25203333Y-17825515D01*
X-25200499Y-17851875D01*
X-25200499Y-18023344D01*
X-25190349Y-18122708D01*
X-25137003Y-18283697D01*
X-25047968Y-18428044D01*
X-24928044Y-18547968D01*
X-24783697Y-18637003D01*
X-24622708Y-18690349D01*
X-24523345Y-18700500D01*
X-23976656Y-18700499D01*
X-23976648Y-18700498D01*
X-23976644Y-18700498D01*
X-23877292Y-18690349D01*
X-23877289Y-18690348D01*
X-23716303Y-18637003D01*
X-23716297Y-18636999D01*
X-23716294Y-18636998D01*
X-23590097Y-18559158D01*
X-23522705Y-18540717D01*
X-23459903Y-18559158D01*
X-23375285Y-18611351D01*
X-23333697Y-18637003D01*
X-23172708Y-18690349D01*
X-23073345Y-18700500D01*
X-22526656Y-18700499D01*
X-22526648Y-18700498D01*
X-22526644Y-18700498D01*
X-22427292Y-18690349D01*
X-22427289Y-18690348D01*
X-22266303Y-18637003D01*
X-22266297Y-18636999D01*
X-22266294Y-18636998D01*
X-22121959Y-18547970D01*
X-22121955Y-18547967D01*
X-22112681Y-18538693D01*
X-22051358Y-18505208D01*
X-21981666Y-18510192D01*
X-21937319Y-18538693D01*
X-21928044Y-18547968D01*
X-21783697Y-18637003D01*
X-21622708Y-18690349D01*
X-21523345Y-18700500D01*
X-20976656Y-18700499D01*
X-20976648Y-18700498D01*
X-20976644Y-18700498D01*
X-20877292Y-18690349D01*
X-20877289Y-18690348D01*
X-20716303Y-18637003D01*
X-20716297Y-18636999D01*
X-20716294Y-18636998D01*
X-20571959Y-18547970D01*
X-20571955Y-18547967D01*
X-20452032Y-18428044D01*
X-20452029Y-18428040D01*
X-20363001Y-18283705D01*
X-20362996Y-18283694D01*
X-20309651Y-18122709D01*
X-20299500Y-18023352D01*
X-20299500Y-17426662D01*
X-20299501Y-17426644D01*
X-20309650Y-17327292D01*
X-20309651Y-17327289D01*
X-20362996Y-17166305D01*
X-20363001Y-17166294D01*
X-20452029Y-17021959D01*
X-20452032Y-17021955D01*
X-20571955Y-16902032D01*
X-20571959Y-16902029D01*
X-20716294Y-16813001D01*
X-20716305Y-16812996D01*
X-20877290Y-16759651D01*
X-20976647Y-16749500D01*
X-20976655Y-16749500D01*
X-21148125Y-16749500D01*
X-21215164Y-16729815D01*
X-21235806Y-16713181D01*
X-21894901Y-16054084D01*
X-21928386Y-15992761D01*
X-21923402Y-15923069D01*
X-21921781Y-15918951D01*
X-21864957Y-15781765D01*
X-21864955Y-15781760D01*
X-21849501Y-15664370D01*
X-21849500Y-15664354D01*
X-21849500Y-15146849D01*
X-21847117Y-15122657D01*
X-21824500Y-15008957D01*
X-21824500Y-14866041D01*
X-21847117Y-14752339D01*
X-21849500Y-14728148D01*
X-21849500Y-14210636D01*
X-21864954Y-14093241D01*
X-21864956Y-14093235D01*
X-21869733Y-14081703D01*
X-21877200Y-14012234D01*
X-21871353Y-13990920D01*
X-21830908Y-13882482D01*
X-21824501Y-13822883D01*
X-21824500Y-13822864D01*
X-21824500Y-13199500D01*
X-21804815Y-13132461D01*
X-21752011Y-13086706D01*
X-21700500Y-13075500D01*
X-21226456Y-13075500D01*
X-21033170Y-13037052D01*
X-21033169Y-13037051D01*
X-21033165Y-13037051D01*
X-21008926Y-13027011D01*
X-20851092Y-12961635D01*
X-20851079Y-12961628D01*
X-20687218Y-12852139D01*
X-20687214Y-12852136D01*
X-20547863Y-12712785D01*
X-20547860Y-12712781D01*
X-20438371Y-12548920D01*
X-20438364Y-12548907D01*
X-20362950Y-12366839D01*
X-20362947Y-12366829D01*
X-20324500Y-12173543D01*
X-20324500Y-11976456D01*
X-20324499Y-11976456D01*
X-20362947Y-11783170D01*
X-20362950Y-11783160D01*
X-20438364Y-11601092D01*
X-20438371Y-11601079D01*
X-20547860Y-11437218D01*
X-20684627Y-11300451D01*
X-20718111Y-11239128D01*
X-20713127Y-11169436D01*
X-20689095Y-11129798D01*
X-20624201Y-11057725D01*
X-20567467Y-10994716D01*
X-20472821Y-10830784D01*
X-20472818Y-10830777D01*
X-20414327Y-10650760D01*
X-20414325Y-10650750D01*
X-20413287Y-10640875D01*
X-20386701Y-10576261D01*
X-20377648Y-10566160D01*
X-20158349Y-10346861D01*
X-20158345Y-10346856D01*
X-20158342Y-10346853D01*
X-20026011Y-10174396D01*
X-20026006Y-10174388D01*
X-19917325Y-9986149D01*
X-19917320Y-9986138D01*
X-19834138Y-9785320D01*
X-19834135Y-9785310D01*
X-19824148Y-9748037D01*
X-19777874Y-9575341D01*
X-19765925Y-9484580D01*
X-19749500Y-9359830D01*
X-19749500Y-6559586D01*
X-19749501Y-6559570D01*
X-19779438Y-6332173D01*
X-19838805Y-6110613D01*
X-19926577Y-5898710D01*
X-19926585Y-5898694D01*
X-20041263Y-5700068D01*
X-20041273Y-5700053D01*
X-20073877Y-5657563D01*
X-20099070Y-5592394D01*
X-20099500Y-5582078D01*
X-20099500Y-5393386D01*
X-20105913Y-5322807D01*
X-20156522Y-5160393D01*
X-20244530Y-5014811D01*
X-20244531Y-5014810D01*
X-20346661Y-4912681D01*
X-20380146Y-4851358D01*
X-20375162Y-4781666D01*
X-20346661Y-4737319D01*
X-20244530Y-4635188D01*
X-20243654Y-4633740D01*
X-20156522Y-4489606D01*
X-20105914Y-4327196D01*
X-20105913Y-4327194D01*
X-20105913Y-4327192D01*
X-20099500Y-4256613D01*
X-20099500Y-3743386D01*
X-20105913Y-3672807D01*
X-20156522Y-3510393D01*
X-20244530Y-3364811D01*
X-20364811Y-3244530D01*
X-20510393Y-3156522D01*
X-20672807Y-3105913D01*
X-20724145Y-3101248D01*
X-20743384Y-3099500D01*
X-21406616Y-3099500D01*
X-21427778Y-3101423D01*
X-21477192Y-3105913D01*
X-21477194Y-3105913D01*
X-21477196Y-3105914D01*
X-21501117Y-3113368D01*
X-21639606Y-3156522D01*
X-21760850Y-3229817D01*
X-21828405Y-3247653D01*
X-21889150Y-3229817D01*
X-22010396Y-3156521D01*
X-22010400Y-3156519D01*
X-22042213Y-3146606D01*
X-22074207Y-3131327D01*
X-22101086Y-3113368D01*
X-22101087Y-3113367D01*
X-22101091Y-3113365D01*
X-22283160Y-3037950D01*
X-22283170Y-3037947D01*
X-22476457Y-2999500D01*
X-22476459Y-2999500D01*
X-23976459Y-2999500D01*
X-25264722Y-2999500D01*
X-25331761Y-2979815D01*
X-25377516Y-2927011D01*
X-25387460Y-2857853D01*
X-25385613Y-2847907D01*
X-25380628Y-2826067D01*
X-25380625Y-2826053D01*
X-25349500Y-2549804D01*
X-25349500Y-753542D01*
X-25349499Y-753542D01*
X-25377379Y-613385D01*
X-25377381Y-613379D01*
X-25432069Y-481349D01*
X-25432073Y-481342D01*
X-25490507Y-393890D01*
X-25511384Y-327213D01*
X-25492899Y-259833D01*
X-25490507Y-256110D01*
X-25432073Y-168657D01*
X-25432069Y-168650D01*
X-25377381Y-36620D01*
X-25377379Y-36614D01*
X-25349500Y103542D01*
X-25349500Y2885373D01*
X-11830500Y2885373D01*
X-11830499Y-810372D01*
X-11824091Y-869983D01*
X-11773796Y-1004831D01*
X-11687546Y-1120046D01*
X-11572331Y-1206296D01*
X-11437483Y-1256591D01*
X-11377873Y-1263000D01*
X-8602128Y-1262999D01*
X-8553757Y-1257799D01*
X-8542516Y-1256591D01*
X-8407671Y-1206297D01*
X-8407664Y-1206293D01*
X-8292455Y-1120047D01*
X-8292452Y-1120044D01*
X-8206206Y-1004835D01*
X-8206202Y-1004828D01*
X-8155908Y-869982D01*
X-8149501Y-810383D01*
X-8149500Y-810381D01*
X-8149500Y-810373D01*
X-8149500Y933760D01*
X-8149500Y2885370D01*
X-8149501Y2885376D01*
X-8155908Y2944983D01*
X-8206202Y3079828D01*
X-8206206Y3079835D01*
X-8292452Y3195044D01*
X-8292455Y3195047D01*
X-8407664Y3281293D01*
X-8407671Y3281297D01*
X-8542517Y3331591D01*
X-8542516Y3331591D01*
X-8548925Y3332279D01*
X-8602127Y3338000D01*
X-11377872Y3337999D01*
X-11437483Y3331591D01*
X-11572331Y3281296D01*
X-11687546Y3195046D01*
X-11773796Y3079831D01*
X-11824091Y2944983D01*
X-11830500Y2885373D01*
X-25349500Y2885373D01*
X-25349500Y3132320D01*
X-25374721Y3356173D01*
X-25374724Y3356187D01*
X-25375066Y3357684D01*
X-25401128Y3471871D01*
X-25424855Y3575828D01*
X-25424856Y3575830D01*
X-25499264Y3788478D01*
X-25597012Y3991453D01*
X-25647596Y4071956D01*
X-25716876Y4182215D01*
X-25857342Y4358354D01*
X-25936994Y4438006D01*
X-25994796Y4495808D01*
X-26005553Y4506565D01*
X-26016248Y4518760D01*
X-26049220Y4561730D01*
X-26065333Y4589589D01*
X-26065489Y4589964D01*
X-26075000Y4637591D01*
X-26075000Y4828184D01*
X-26055315Y4895223D01*
X-26049376Y4903670D01*
X-25952227Y5030277D01*
X-25952221Y5030286D01*
X-25862709Y5185323D01*
X-25862703Y5185336D01*
X-25838875Y5242860D01*
X-25795034Y5297263D01*
X-25728739Y5319327D01*
X-25661040Y5302047D01*
X-25613430Y5250909D01*
X-25612610Y5249239D01*
X-25609538Y5242860D01*
X-25596388Y5215552D01*
X-25569529Y5172807D01*
X-25461224Y5000441D01*
X-25302827Y4801816D01*
X-25302826Y4801815D01*
X-25267872Y4766861D01*
X-25267852Y4766839D01*
X-25236818Y4735805D01*
X-25203333Y4674482D01*
X-25200499Y4648124D01*
X-25200499Y4476662D01*
X-25200498Y4476644D01*
X-25192670Y4400016D01*
X-25190349Y4377292D01*
X-25137003Y4216303D01*
X-25136999Y4216297D01*
X-25136998Y4216294D01*
X-25047970Y4071959D01*
X-25047967Y4071955D01*
X-24928044Y3952032D01*
X-24928040Y3952029D01*
X-24783705Y3863001D01*
X-24783699Y3862998D01*
X-24783697Y3862997D01*
X-24783694Y3862996D01*
X-24622709Y3809651D01*
X-24523346Y3799500D01*
X-24523345Y3799500D01*
X-23976662Y3799500D01*
X-23976644Y3799501D01*
X-23877292Y3809650D01*
X-23877289Y3809651D01*
X-23716305Y3862996D01*
X-23716300Y3862998D01*
X-23590097Y3940842D01*
X-23522704Y3959282D01*
X-23459903Y3940842D01*
X-23333699Y3862998D01*
X-23333697Y3862997D01*
X-23333694Y3862996D01*
X-23172709Y3809651D01*
X-23073346Y3799500D01*
X-23073345Y3799500D01*
X-22526662Y3799500D01*
X-22526644Y3799501D01*
X-22427292Y3809650D01*
X-22427289Y3809651D01*
X-22266305Y3862996D01*
X-22266294Y3863001D01*
X-22121959Y3952029D01*
X-22121955Y3952032D01*
X-22112681Y3961307D01*
X-22051358Y3994792D01*
X-21981666Y3989808D01*
X-21937319Y3961307D01*
X-21928044Y3952032D01*
X-21928040Y3952029D01*
X-21783705Y3863001D01*
X-21783699Y3862998D01*
X-21783697Y3862997D01*
X-21783694Y3862996D01*
X-21622709Y3809651D01*
X-21523346Y3799500D01*
X-21523345Y3799500D01*
X-20976662Y3799500D01*
X-20976644Y3799501D01*
X-20877292Y3809650D01*
X-20877289Y3809651D01*
X-20716305Y3862996D01*
X-20716294Y3863001D01*
X-20571959Y3952029D01*
X-20571955Y3952032D01*
X-20452032Y4071955D01*
X-20452029Y4071959D01*
X-20363001Y4216294D01*
X-20362996Y4216305D01*
X-20309651Y4377290D01*
X-20299500Y4476647D01*
X-20299500Y5073337D01*
X-20299501Y5073355D01*
X-20309650Y5172707D01*
X-20309651Y5172710D01*
X-20362996Y5333694D01*
X-20363001Y5333705D01*
X-20452029Y5478040D01*
X-20452032Y5478044D01*
X-20571955Y5597967D01*
X-20571959Y5597970D01*
X-20716294Y5686998D01*
X-20716297Y5686999D01*
X-20716303Y5687003D01*
X-20877292Y5740349D01*
X-20976655Y5750500D01*
X-21148124Y5750499D01*
X-21215164Y5770183D01*
X-21235806Y5786818D01*
X-21894902Y6445914D01*
X-21928387Y6507237D01*
X-21923403Y6576929D01*
X-21921782Y6581048D01*
X-21864956Y6718237D01*
X-21864955Y6718239D01*
X-21849501Y6835629D01*
X-21849500Y6835645D01*
X-21849500Y7353149D01*
X-21847117Y7377340D01*
X-21824500Y7491041D01*
X-21824500Y7633956D01*
X-21847117Y7747658D01*
X-21849500Y7771850D01*
X-21849500Y8289363D01*
X-21864954Y8406755D01*
X-21864956Y8406763D01*
X-21869734Y8418299D01*
X-21877200Y8487768D01*
X-21871353Y8509079D01*
X-21830908Y8617517D01*
X-21824501Y8677116D01*
X-21824500Y8677135D01*
X-21824500Y9300500D01*
X-21804815Y9367539D01*
X-21752011Y9413294D01*
X-21700500Y9424500D01*
X-21226457Y9424500D01*
X-21033170Y9462947D01*
X-21033160Y9462950D01*
X-20851092Y9538364D01*
X-20851079Y9538371D01*
X-20687218Y9647860D01*
X-20687214Y9647863D01*
X-20547863Y9787214D01*
X-20547860Y9787218D01*
X-20438371Y9951079D01*
X-20438364Y9951092D01*
X-20362950Y10133160D01*
X-20362947Y10133170D01*
X-20324500Y10326456D01*
X-20324500Y10523543D01*
X-20324499Y10523543D01*
X-20362947Y10716829D01*
X-20362950Y10716839D01*
X-20438364Y10898907D01*
X-20438371Y10898920D01*
X-20547860Y11062781D01*
X-20547863Y11062785D01*
X-20566177Y11081099D01*
X-20599662Y11142422D01*
X-20594678Y11212114D01*
X-20570652Y11251745D01*
X-20567472Y11255276D01*
X-20567464Y11255287D01*
X-20472821Y11419215D01*
X-20472818Y11419222D01*
X-20414327Y11599239D01*
X-20414325Y11599248D01*
X-20413287Y11609124D01*
X-20386699Y11673737D01*
X-20377650Y11683836D01*
X-20323969Y11737519D01*
X-20323968Y11737519D01*
X-20289758Y11771729D01*
X-20140325Y11959112D01*
X-20012809Y12162051D01*
X-19908826Y12377975D01*
X-19908824Y12377979D01*
X-19829666Y12604202D01*
X-19829665Y12604204D01*
X-19776334Y12837865D01*
X-19776331Y12837878D01*
X-19749500Y13076022D01*
X-19749500Y15940413D01*
X-19749501Y15940429D01*
X-19779438Y16167825D01*
X-19804998Y16263215D01*
X-19838805Y16389385D01*
X-19838807Y16389392D01*
X-19926576Y16601288D01*
X-19926584Y16601304D01*
X-20014842Y16754169D01*
X-20031315Y16822069D01*
X-20008463Y16888096D01*
X-19995136Y16903850D01*
X-19804743Y17094244D01*
X-19804536Y17094451D01*
X-19770344Y17128482D01*
X-19769934Y17128888D01*
X-19735785Y17162561D01*
X-19735373Y17162965D01*
X-19701812Y17195752D01*
X-19700138Y17197358D01*
X-19681929Y17214493D01*
X-19678927Y17217227D01*
X-19660886Y17233122D01*
X-19657817Y17235738D01*
X-19638442Y17251715D01*
X-19636866Y17252993D01*
X-19587973Y17291985D01*
X-19587967Y17291990D01*
X-19577760Y17300129D01*
X-19575939Y17301554D01*
X-19517959Y17346044D01*
X-19514226Y17348798D01*
X-19455592Y17390400D01*
X-19451763Y17393011D01*
X-19391645Y17432374D01*
X-19387717Y17434842D01*
X-19326118Y17471959D01*
X-19322103Y17474277D01*
X-19259194Y17509046D01*
X-19255092Y17511214D01*
X-19190908Y17543615D01*
X-19186731Y17545627D01*
X-19121371Y17575610D01*
X-19117121Y17577464D01*
X-19050725Y17604966D01*
X-19046408Y17606660D01*
X-18978999Y17631672D01*
X-18974622Y17633204D01*
X-18906334Y17655675D01*
X-18901903Y17657042D01*
X-18832805Y17676949D01*
X-18828325Y17678149D01*
X-18758535Y17695457D01*
X-18754012Y17696489D01*
X-18683669Y17711165D01*
X-18679116Y17712027D01*
X-18608230Y17724072D01*
X-18603643Y17724763D01*
X-18531200Y17734300D01*
X-18528899Y17734581D01*
X-18472029Y17740989D01*
X-18453746Y17743049D01*
X-18451728Y17743260D01*
X-18426773Y17745659D01*
X-18422727Y17745981D01*
X-18398736Y17747497D01*
X-18394681Y17747687D01*
X-18369792Y17748443D01*
X-18367476Y17748492D01*
X-18320314Y17749043D01*
X-18319732Y17749048D01*
X-18271965Y17749382D01*
X-18271391Y17749385D01*
X-18238333Y17749463D01*
X-18223105Y17749499D01*
X-18222783Y17749500D01*
X-18141361Y17749500D01*
X-12233417Y17749500D01*
X-12151672Y17749500D01*
X-12151232Y17749499D01*
X-12056897Y17749358D01*
X-12056530Y17749357D01*
X-11961942Y17748935D01*
X-11961573Y17748933D01*
X-11933773Y17748726D01*
X-11867471Y17748233D01*
X-11866039Y17748214D01*
X-11785999Y17746665D01*
X-11783420Y17746588D01*
X-11704049Y17743399D01*
X-11701470Y17743268D01*
X-11621630Y17738393D01*
X-11620345Y17738308D01*
X-11602049Y17737000D01*
X-11602045Y17737000D01*
X-11562506Y17734172D01*
X-11562487Y17734170D01*
X-11476335Y17728009D01*
X-11474863Y17727895D01*
X-11300765Y17713359D01*
X-11297828Y17713079D01*
X-11124805Y17694478D01*
X-11121873Y17694127D01*
X-10949407Y17671421D01*
X-10946487Y17671001D01*
X-10774608Y17644197D01*
X-10771697Y17643708D01*
X-10600435Y17612809D01*
X-10597538Y17612250D01*
X-10427153Y17577303D01*
X-10424268Y17576676D01*
X-10254691Y17537667D01*
X-10251824Y17536971D01*
X-10083254Y17493946D01*
X-10080403Y17493182D01*
X-9912900Y17446156D01*
X-9910069Y17445325D01*
X-9743718Y17394323D01*
X-9740907Y17393424D01*
X-9575858Y17338490D01*
X-9573069Y17337525D01*
X-9409349Y17278670D01*
X-9406585Y17277639D01*
X-9244299Y17214901D01*
X-9241573Y17213810D01*
X-9159028Y17179618D01*
X-9080800Y17147215D01*
X-9078116Y17146065D01*
X-8918977Y17075666D01*
X-8916380Y17074480D01*
X-8758961Y17000312D01*
X-8756307Y16999023D01*
X-8600715Y16921139D01*
X-8598092Y16919787D01*
X-8444353Y16838199D01*
X-8441763Y16836784D01*
X-8290142Y16751635D01*
X-8287587Y16750160D01*
X-8137922Y16661360D01*
X-8135423Y16659837D01*
X-7987909Y16567497D01*
X-7985492Y16565943D01*
X-7840218Y16470119D01*
X-7837820Y16468497D01*
X-7694879Y16369252D01*
X-7692545Y16367591D01*
X-7551935Y16264920D01*
X-7549736Y16263274D01*
X-7411553Y16157241D01*
X-7409275Y16155450D01*
X-7273779Y16046261D01*
X-7271504Y16044382D01*
X-7138045Y15931493D01*
X-7137125Y15930706D01*
X-7088595Y15888655D01*
X-7042894Y15849054D01*
X-7027892Y15836055D01*
X-7026993Y15835268D01*
X-7023277Y15831980D01*
X-6967009Y15782188D01*
X-6965094Y15780457D01*
X-6906725Y15726598D01*
X-6904845Y15724827D01*
X-6847206Y15669375D01*
X-6846172Y15668369D01*
X-6779008Y15602196D01*
X-6711801Y15535586D01*
X-6711618Y15535253D01*
X-6711543Y15535329D01*
X-6643728Y15467716D01*
X-5012921Y13836909D01*
X-4979436Y13775586D01*
X-4984420Y13705894D01*
X-5026292Y13649961D01*
X-5081204Y13626755D01*
X-5101359Y13623563D01*
X-5141238Y13617247D01*
X-5141238Y13617246D01*
X-5141243Y13617246D01*
X-5343412Y13551557D01*
X-5532816Y13455051D01*
X-5532820Y13455048D01*
X-5704786Y13330109D01*
X-5704788Y13330106D01*
X-5704792Y13330104D01*
X-5855104Y13179792D01*
X-5855106Y13179788D01*
X-5855109Y13179786D01*
X-5862236Y13169976D01*
X-5980051Y13007816D01*
X-6076557Y12818412D01*
X-6142246Y12616243D01*
X-6175500Y12406287D01*
X-6175500Y11943713D01*
X-6142246Y11733757D01*
X-6076557Y11531588D01*
X-5980051Y11342184D01*
X-5980048Y11342179D01*
X-5855109Y11170213D01*
X-5704786Y11019890D01*
X-5532820Y10894951D01*
X-5532816Y10894949D01*
X-5343412Y10798443D01*
X-5141243Y10732754D01*
X-5141241Y10732753D01*
X-5141240Y10732753D01*
X-4979957Y10707208D01*
X-4931287Y10699500D01*
X-4931286Y10699500D01*
X-4718714Y10699500D01*
X-4718713Y10699500D01*
X-4681407Y10705408D01*
X-4515363Y10731707D01*
X-4446069Y10722752D01*
X-4408284Y10696915D01*
X-823550Y7112181D01*
X-790065Y7050858D01*
X-795049Y6981166D01*
X-836921Y6925233D01*
X-902385Y6900816D01*
X-911231Y6900500D01*
X-1094646Y6900500D01*
X-1279803Y6861144D01*
X-1452730Y6784151D01*
X-1605871Y6672888D01*
X-1732533Y6532216D01*
X-1827179Y6368284D01*
X-1885674Y6188256D01*
X-1905460Y6000000D01*
X-1885674Y5811744D01*
X-1827179Y5631716D01*
X-1827177Y5631712D01*
X-1827176Y5631710D01*
X-1764989Y5523998D01*
X-1748516Y5456098D01*
X-1771369Y5390071D01*
X-1826290Y5346881D01*
X-1872376Y5337999D01*
X-2352872Y5337999D01*
X-2412483Y5331591D01*
X-2456665Y5315111D01*
X-2526356Y5310126D01*
X-2543333Y5315112D01*
X-2587508Y5331588D01*
X-2587511Y5331589D01*
X-2587517Y5331591D01*
X-2647127Y5338000D01*
X-3352872Y5337999D01*
X-3412483Y5331591D01*
X-3456665Y5315111D01*
X-3526356Y5310126D01*
X-3543333Y5315112D01*
X-3587508Y5331588D01*
X-3587511Y5331589D01*
X-3587517Y5331591D01*
X-3647127Y5338000D01*
X-4352872Y5337999D01*
X-4412483Y5331591D01*
X-4456665Y5315111D01*
X-4526356Y5310126D01*
X-4543333Y5315112D01*
X-4587508Y5331588D01*
X-4587511Y5331589D01*
X-4587517Y5331591D01*
X-4647127Y5338000D01*
X-5127624Y5337999D01*
X-5194663Y5357683D01*
X-5240418Y5410487D01*
X-5250362Y5479646D01*
X-5235011Y5523998D01*
X-5172823Y5631710D01*
X-5172818Y5631722D01*
X-5114327Y5811740D01*
X-5114326Y5811741D01*
X-5114326Y5811744D01*
X-5094540Y6000000D01*
X-5114326Y6188256D01*
X-5130501Y6238038D01*
X-5172818Y6368277D01*
X-5172821Y6368284D01*
X-5217641Y6445914D01*
X-5267467Y6532216D01*
X-5394129Y6672888D01*
X-5394130Y6672889D01*
X-5547265Y6784148D01*
X-5547270Y6784151D01*
X-5720192Y6861142D01*
X-5720197Y6861144D01*
X-5750500Y6867585D01*
X-5905354Y6900500D01*
X-6094646Y6900500D01*
X-6279803Y6861144D01*
X-6452730Y6784151D01*
X-6605871Y6672888D01*
X-6622993Y6653870D01*
X-6682477Y6617221D01*
X-6740926Y6615550D01*
X-6905354Y6650500D01*
X-7094646Y6650500D01*
X-7279803Y6611144D01*
X-7452730Y6534151D01*
X-7605871Y6422888D01*
X-7732533Y6282216D01*
X-7827179Y6118284D01*
X-7885674Y5938256D01*
X-7905460Y5750000D01*
X-7885674Y5561744D01*
X-7827179Y5381716D01*
X-7827177Y5381712D01*
X-7827176Y5381710D01*
X-7742113Y5234375D01*
X-7725500Y5172376D01*
X-7725500Y5152221D01*
X-7745185Y5085182D01*
X-7748412Y5080532D01*
X-7748797Y5079829D01*
X-7751218Y5073337D01*
X-7799091Y4944983D01*
X-7805500Y4885373D01*
X-7805499Y2789628D01*
X-7800299Y2741257D01*
X-7799091Y2730016D01*
X-7748797Y2595171D01*
X-7748793Y2595164D01*
X-7662547Y2479955D01*
X-7662544Y2479952D01*
X-7547335Y2393706D01*
X-7547328Y2393702D01*
X-7412486Y2343410D01*
X-7412483Y2343409D01*
X-7352873Y2337000D01*
X-7352863Y2337000D01*
X-6647129Y2337000D01*
X-6647123Y2337001D01*
X-6587516Y2343408D01*
X-6543332Y2359888D01*
X-6473640Y2364872D01*
X-6456668Y2359888D01*
X-6412485Y2343409D01*
X-6412483Y2343408D01*
X-6352883Y2337001D01*
X-6352881Y2337000D01*
X-6352873Y2337000D01*
X-5849500Y2337000D01*
X-5782461Y2317315D01*
X-5736706Y2264511D01*
X-5725500Y2213000D01*
X-5725500Y-3422376D01*
X-5742113Y-3484375D01*
X-5816646Y-3613472D01*
X-5827179Y-3631716D01*
X-5885674Y-3811744D01*
X-5905460Y-4000000D01*
X-5885674Y-4188256D01*
X-5827179Y-4368284D01*
X-5732533Y-4532216D01*
X-5605871Y-4672888D01*
X-5452730Y-4784151D01*
X-5279803Y-4861144D01*
X-5094646Y-4900500D01*
X-5094644Y-4900500D01*
X-5027568Y-4900500D01*
X-4960529Y-4920185D01*
X-4914774Y-4972989D01*
X-4904247Y-5011535D01*
X-4885674Y-5188256D01*
X-4827179Y-5368284D01*
X-4732533Y-5532216D01*
X-4605871Y-5672888D01*
X-4452730Y-5784151D01*
X-4279803Y-5861144D01*
X-4094646Y-5900500D01*
X-4094644Y-5900500D01*
X-3905355Y-5900500D01*
X-3905354Y-5900500D01*
X-3720197Y-5861144D01*
X-3720196Y-5861144D01*
X-3665965Y-5836998D01*
X-3550433Y-5785559D01*
X-3481187Y-5776275D01*
X-3449569Y-5785557D01*
X-3279803Y-5861144D01*
X-3094646Y-5900500D01*
X-3094644Y-5900500D01*
X-2905355Y-5900500D01*
X-2905354Y-5900500D01*
X-2720197Y-5861144D01*
X-2720192Y-5861142D01*
X-2547270Y-5784151D01*
X-2547265Y-5784148D01*
X-2394129Y-5672888D01*
X-2321652Y-5592394D01*
X-2267467Y-5532216D01*
X-2172821Y-5368284D01*
X-2172818Y-5368277D01*
X-2114327Y-5188259D01*
X-2114326Y-5188256D01*
X-2095752Y-5011536D01*
X-2069168Y-4946924D01*
X-2011871Y-4906939D01*
X-1972432Y-4900500D01*
X-1905355Y-4900500D01*
X-1905354Y-4900500D01*
X-1720197Y-4861144D01*
X-1720192Y-4861142D01*
X-1547270Y-4784151D01*
X-1547265Y-4784148D01*
X-1394129Y-4672888D01*
X-1352507Y-4626662D01*
X-1267467Y-4532216D01*
X-1172821Y-4368284D01*
X-1172818Y-4368277D01*
X-1114327Y-4188259D01*
X-1114326Y-4188256D01*
X-1094540Y-4000000D01*
X-1114326Y-3811744D01*
X-1114327Y-3811740D01*
X-1172818Y-3631722D01*
X-1172823Y-3631710D01*
X-1257887Y-3484375D01*
X-1274500Y-3422376D01*
X-1274500Y2213000D01*
X-1254815Y2280039D01*
X-1202011Y2325794D01*
X-1150500Y2337000D01*
X-647129Y2337000D01*
X-647123Y2337001D01*
X-587516Y2343408D01*
X-543332Y2359888D01*
X-473640Y2364872D01*
X-456668Y2359888D01*
X-412488Y2343410D01*
X-412484Y2343409D01*
X-412483Y2343409D01*
X-352873Y2337000D01*
X-352863Y2337000D01*
X352870Y2337000D01*
X352876Y2337001D01*
X412483Y2343408D01*
X456667Y2359888D01*
X526358Y2364872D01*
X543331Y2359888D01*
X587511Y2343410D01*
X587515Y2343409D01*
X587517Y2343409D01*
X647127Y2337000D01*
X647135Y2337000D01*
X647136Y2337000D01*
X1352870Y2337000D01*
X1352876Y2337001D01*
X1412483Y2343408D01*
X1456667Y2359888D01*
X1526358Y2364872D01*
X1543331Y2359888D01*
X1587511Y2343410D01*
X1587515Y2343409D01*
X1587517Y2343409D01*
X1647127Y2337000D01*
X1647135Y2337000D01*
X1647136Y2337000D01*
X2352870Y2337000D01*
X2352876Y2337001D01*
X2412483Y2343408D01*
X2456667Y2359888D01*
X2526358Y2364872D01*
X2543331Y2359888D01*
X2587511Y2343410D01*
X2587515Y2343409D01*
X2587517Y2343409D01*
X2647127Y2337000D01*
X2647135Y2337000D01*
X2647136Y2337000D01*
X3352870Y2337000D01*
X3352876Y2337001D01*
X3412483Y2343408D01*
X3456667Y2359888D01*
X3526358Y2364872D01*
X3543331Y2359888D01*
X3587511Y2343410D01*
X3587515Y2343409D01*
X3587517Y2343409D01*
X3647127Y2337000D01*
X3647135Y2337000D01*
X3647136Y2337000D01*
X4352870Y2337000D01*
X4352876Y2337001D01*
X4412483Y2343408D01*
X4456667Y2359888D01*
X4526358Y2364872D01*
X4543331Y2359888D01*
X4587511Y2343410D01*
X4587515Y2343409D01*
X4587517Y2343409D01*
X4647127Y2337000D01*
X4647135Y2337000D01*
X4647136Y2337000D01*
X5352870Y2337000D01*
X5352876Y2337001D01*
X5412483Y2343408D01*
X5456667Y2359888D01*
X5526358Y2364872D01*
X5543331Y2359888D01*
X5587514Y2343409D01*
X5587516Y2343408D01*
X5647116Y2337001D01*
X5647119Y2337000D01*
X5647127Y2337000D01*
X5992816Y2337000D01*
X6059855Y2317315D01*
X6105610Y2264511D01*
X6115554Y2195353D01*
X6114379Y2188754D01*
X6114327Y2188259D01*
X6114326Y2188256D01*
X6094540Y2000000D01*
X6114326Y1811744D01*
X6114326Y1811741D01*
X6114327Y1811740D01*
X6172818Y1631722D01*
X6172821Y1631715D01*
X6267466Y1467785D01*
X6394129Y1327111D01*
X6547265Y1215851D01*
X6547270Y1215848D01*
X6720192Y1138857D01*
X6720197Y1138855D01*
X6872897Y1106398D01*
X6905354Y1099500D01*
X6905355Y1099500D01*
X7094645Y1099500D01*
X7094646Y1099500D01*
X7134001Y1107865D01*
X7279802Y1138855D01*
X7279807Y1138857D01*
X7452729Y1215848D01*
X7452734Y1215851D01*
X7605870Y1327111D01*
X7632140Y1356287D01*
X7732533Y1467784D01*
X7827179Y1631716D01*
X7885674Y1811744D01*
X7902179Y1968787D01*
X7914022Y1997570D01*
X7906523Y2009240D01*
X7902179Y2031214D01*
X7900817Y2044175D01*
X7885674Y2188256D01*
X7827179Y2368284D01*
X7767112Y2472321D01*
X7750500Y2534321D01*
X7750500Y2577365D01*
X7758318Y2620698D01*
X7799091Y2730017D01*
X7805500Y2789627D01*
X7805499Y3471872D01*
X7825183Y3538910D01*
X7877987Y3584665D01*
X7947146Y3594609D01*
X8010702Y3565584D01*
X8021648Y3554844D01*
X8069128Y3502112D01*
X8069129Y3502111D01*
X8222265Y3390851D01*
X8222272Y3390847D01*
X8242898Y3381664D01*
X8296134Y3336413D01*
X8316454Y3269563D01*
X8297407Y3202340D01*
X8291727Y3194075D01*
X8206204Y3079831D01*
X8206204Y3079830D01*
X8206202Y3079828D01*
X8155908Y2944982D01*
X8149777Y2887950D01*
X8149501Y2885376D01*
X8149500Y2885364D01*
X8149500Y2044175D01*
X8136505Y1999920D01*
X8147477Y1978131D01*
X8149500Y1955824D01*
X8149500Y-250330D01*
X8129815Y-317369D01*
X8077011Y-363124D01*
X8051282Y-371620D01*
X7970196Y-388856D01*
X7970192Y-388857D01*
X7797270Y-465848D01*
X7797265Y-465851D01*
X7644129Y-577111D01*
X7517466Y-717785D01*
X7422821Y-881715D01*
X7422818Y-881722D01*
X7364327Y-1061740D01*
X7364326Y-1061744D01*
X7344540Y-1250000D01*
X7364326Y-1438256D01*
X7364327Y-1438259D01*
X7422818Y-1618277D01*
X7422821Y-1618284D01*
X7517467Y-1782216D01*
X7644129Y-1922888D01*
X7797265Y-2034148D01*
X7797270Y-2034151D01*
X7970192Y-2111142D01*
X7970197Y-2111144D01*
X8155354Y-2150500D01*
X8155355Y-2150500D01*
X8344644Y-2150500D01*
X8344646Y-2150500D01*
X8529803Y-2111144D01*
X8702730Y-2034151D01*
X8718487Y-2022703D01*
X8750862Y-1999182D01*
X8816669Y-1975702D01*
X8823747Y-1975500D01*
X12919616Y-1975500D01*
X12986655Y-1995185D01*
X13019935Y-2026616D01*
X13094892Y-2129788D01*
X13245209Y-2280105D01*
X13245214Y-2280109D01*
X13409793Y-2399682D01*
X13452459Y-2455011D01*
X13458438Y-2524625D01*
X13425833Y-2586420D01*
X13409793Y-2600318D01*
X13245214Y-2719890D01*
X13245209Y-2719894D01*
X13094890Y-2870213D01*
X12969951Y-3042179D01*
X12873444Y-3231585D01*
X12807753Y-3433760D01*
X12779290Y-3613472D01*
X12774500Y-3643713D01*
X12774500Y-3856287D01*
X12779364Y-3886997D01*
X12806867Y-4060647D01*
X12807754Y-4066243D01*
X12869610Y-4256616D01*
X12873444Y-4268414D01*
X12969951Y-4457820D01*
X13094890Y-4629786D01*
X13245213Y-4780109D01*
X13417179Y-4905048D01*
X13417181Y-4905049D01*
X13417184Y-4905051D01*
X13606588Y-5001557D01*
X13808757Y-5067246D01*
X14018713Y-5100500D01*
X14018714Y-5100500D01*
X14481286Y-5100500D01*
X14481287Y-5100500D01*
X14524709Y-5093622D01*
X14594001Y-5102576D01*
X14621417Y-5119146D01*
X14669955Y-5157851D01*
X14669958Y-5157854D01*
X14669961Y-5157856D01*
X14669965Y-5157859D01*
X14873850Y-5285964D01*
X15090796Y-5390436D01*
X15318075Y-5469962D01*
X15552828Y-5523541D01*
X15552838Y-5523542D01*
X15552844Y-5523543D01*
X15712627Y-5541545D01*
X15777042Y-5568611D01*
X15786426Y-5577084D01*
X15789811Y-5580469D01*
X15789813Y-5580470D01*
X15789815Y-5580472D01*
X15935394Y-5668478D01*
X16097804Y-5719086D01*
X16168384Y-5725500D01*
X16168387Y-5725500D01*
X16831613Y-5725500D01*
X16831616Y-5725500D01*
X16902196Y-5719086D01*
X17064606Y-5668478D01*
X17210185Y-5580472D01*
X17330472Y-5460185D01*
X17418478Y-5314606D01*
X17469086Y-5152196D01*
X17475500Y-5081616D01*
X17475500Y-4568384D01*
X17469086Y-4497804D01*
X17418478Y-4335394D01*
X17330472Y-4189815D01*
X17330470Y-4189813D01*
X17330469Y-4189811D01*
X17228338Y-4087680D01*
X17194853Y-4026357D01*
X17199837Y-3956665D01*
X17228336Y-3912320D01*
X17253659Y-3886996D01*
X17309248Y-3854903D01*
X17466992Y-3812638D01*
X17675461Y-3726291D01*
X17768107Y-3672804D01*
X17870864Y-3613479D01*
X17870871Y-3613475D01*
X17870871Y-3613474D01*
X17870876Y-3613472D01*
X18049894Y-3476113D01*
X18072080Y-3453926D01*
X18072094Y-3453915D01*
X18079153Y-3446856D01*
X18079155Y-3446855D01*
X18110634Y-3415376D01*
X18110641Y-3415370D01*
X18117702Y-3408309D01*
X18117704Y-3408308D01*
X18163794Y-3362218D01*
X18187477Y-3338537D01*
X18187477Y-3338536D01*
X18192835Y-3333179D01*
X18192848Y-3333164D01*
X18226027Y-3299986D01*
X18226030Y-3299980D01*
X18231397Y-3294614D01*
X18231411Y-3294597D01*
X18262534Y-3263476D01*
X18412383Y-3068189D01*
X18535461Y-2855013D01*
X18629660Y-2627596D01*
X18693370Y-2389829D01*
X18725500Y-2145780D01*
X18725500Y-2022703D01*
X18725500Y-1940959D01*
X18725500Y-1686944D01*
X18725515Y-1686892D01*
X18725515Y-1463564D01*
X18725514Y-1463560D01*
X18698681Y-1225406D01*
X18698681Y-1225405D01*
X18674634Y-1120047D01*
X18645348Y-991732D01*
X18566189Y-765507D01*
X18462199Y-549566D01*
X18334685Y-346627D01*
X18334680Y-346621D01*
X18334674Y-346612D01*
X18185253Y-159242D01*
X18155372Y-129361D01*
X18155363Y-129351D01*
X18126330Y-100318D01*
X18089012Y-63000D01*
X18042707Y-16694D01*
X18042706Y-16693D01*
X18038382Y-12369D01*
X18038373Y-12362D01*
X17994664Y31346D01*
X17994658Y31355D01*
X17984455Y41558D01*
X17971542Y54470D01*
X17971540Y54475D01*
X17926653Y99360D01*
X17926654Y99361D01*
X17855266Y170748D01*
X17695078Y293664D01*
X17520217Y394620D01*
X17333674Y471888D01*
X17333670Y471889D01*
X17331017Y472988D01*
X17290789Y499866D01*
X17261816Y528840D01*
X17228333Y590163D01*
X17225500Y616519D01*
X17225500Y797467D01*
X17199042Y1066104D01*
X17199041Y1066104D01*
X17199041Y1066114D01*
X17146377Y1330870D01*
X17068017Y1589188D01*
X16964714Y1838583D01*
X16837464Y2076651D01*
X16687492Y2301100D01*
X16516242Y2509768D01*
X16471332Y2554677D01*
X16471330Y2554681D01*
X16394774Y2631237D01*
X16363002Y2663010D01*
X16363000Y2663010D01*
X16352798Y2673213D01*
X16352793Y2673217D01*
X15761818Y3264192D01*
X15728333Y3325515D01*
X15725499Y3351873D01*
X15725499Y4400001D01*
X15725498Y4400018D01*
X15721617Y4438006D01*
X15714999Y4502797D01*
X15659814Y4669334D01*
X15567712Y4818656D01*
X15443656Y4942712D01*
X15294334Y5034814D01*
X15127797Y5089999D01*
X15025009Y5100500D01*
X13474992Y5100499D01*
X13474983Y5100498D01*
X13474981Y5100498D01*
X13372203Y5089999D01*
X13205666Y5034814D01*
X13056344Y4942712D01*
X12932288Y4818656D01*
X12840186Y4669334D01*
X12785001Y4502797D01*
X12785001Y4502795D01*
X12785000Y4502795D01*
X12774500Y4400016D01*
X12774500Y3099998D01*
X12774501Y3099981D01*
X12785000Y2997203D01*
X12785001Y2997200D01*
X12840185Y2830668D01*
X12840187Y2830663D01*
X12932289Y2681342D01*
X13056342Y2557289D01*
X13211121Y2461821D01*
X13257845Y2409873D01*
X13269068Y2340910D01*
X13241224Y2276828D01*
X13233705Y2268601D01*
X13094890Y2129786D01*
X12969951Y1957820D01*
X12969949Y1957816D01*
X12873443Y1768412D01*
X12807754Y1566243D01*
X12807753Y1566239D01*
X12774500Y1356286D01*
X12774500Y1143713D01*
X12807753Y933760D01*
X12873444Y731585D01*
X12969951Y542179D01*
X13094890Y370213D01*
X13245209Y219894D01*
X13245214Y219890D01*
X13409793Y100318D01*
X13452459Y44989D01*
X13458438Y-24625D01*
X13425833Y-86420D01*
X13409793Y-100318D01*
X13245214Y-219890D01*
X13245209Y-219894D01*
X13094892Y-370211D01*
X13019935Y-473384D01*
X12964605Y-516051D01*
X12919616Y-524500D01*
X11954500Y-524500D01*
X11887461Y-504815D01*
X11841706Y-452011D01*
X11830500Y-400500D01*
X11830499Y2885370D01*
X11830499Y2885373D01*
X11824091Y2944983D01*
X11773796Y3079831D01*
X11687546Y3195046D01*
X11572331Y3281296D01*
X11437483Y3331591D01*
X11377873Y3338000D01*
X9411610Y3337999D01*
X9344572Y3357684D01*
X9298817Y3410487D01*
X9288873Y3479646D01*
X9317898Y3543202D01*
X9319388Y3544889D01*
X9407533Y3642784D01*
X9502179Y3806716D01*
X9560674Y3986744D01*
X9580460Y4175000D01*
X9560674Y4363256D01*
X9502179Y4543284D01*
X9442112Y4647321D01*
X9425500Y4709321D01*
X9425500Y6029824D01*
X9425493Y6029953D01*
X9425494Y6046202D01*
X9400243Y6238038D01*
X9350167Y6424936D01*
X9276124Y6603699D01*
X9179381Y6771267D01*
X9176126Y6775507D01*
X9150931Y6840673D01*
X9150500Y6850997D01*
X9150500Y7006613D01*
X9146748Y7047901D01*
X9144086Y7077196D01*
X9093478Y7239606D01*
X9005472Y7385185D01*
X8885185Y7505472D01*
X8739606Y7593478D01*
X8577196Y7644086D01*
X8506616Y7650500D01*
X7993384Y7650500D01*
X7922804Y7644086D01*
X7760394Y7593478D01*
X7614815Y7505472D01*
X7614813Y7505470D01*
X7614811Y7505469D01*
X7562181Y7452839D01*
X7500858Y7419354D01*
X7431166Y7424338D01*
X7375233Y7466210D01*
X7350816Y7531674D01*
X7350500Y7540520D01*
X7350500Y10003177D01*
X7367113Y10065177D01*
X7427178Y10169214D01*
X7427179Y10169216D01*
X7485674Y10349244D01*
X7505460Y10537500D01*
X7485674Y10725756D01*
X7427179Y10905784D01*
X7342112Y11053123D01*
X7325500Y11115122D01*
X7325500Y12681022D01*
X7325496Y12681085D01*
X7325497Y12717030D01*
X7299737Y12945667D01*
X7248539Y13169982D01*
X7172548Y13387155D01*
X7072719Y13594454D01*
X6950307Y13789272D01*
X6806853Y13969159D01*
X6796310Y13979700D01*
X6796308Y13979704D01*
X6761827Y14014185D01*
X6761822Y14014193D01*
X6725507Y14050507D01*
X6725508Y14050508D01*
X6644161Y14131855D01*
X6464274Y14275311D01*
X6269456Y14397723D01*
X6247029Y14408523D01*
X6152279Y14454152D01*
X6062157Y14497552D01*
X5844984Y14573543D01*
X5620668Y14624741D01*
X5620657Y14624742D01*
X5620653Y14624743D01*
X5538181Y14634034D01*
X5392030Y14650501D01*
X5276988Y14650500D01*
X918621Y14650500D01*
X918584Y14650501D01*
X911824Y14650500D01*
X911820Y14650502D01*
X830076Y14650500D01*
X753923Y14650500D01*
X751607Y14650382D01*
X746722Y14650370D01*
X744153Y14650504D01*
X738986Y14650467D01*
X738985Y14650468D01*
X660227Y14649913D01*
X659357Y14649911D01*
X590573Y14649911D01*
X579950Y14649351D01*
X575613Y14649321D01*
X575605Y14649319D01*
X572033Y14648892D01*
X560481Y14648053D01*
X553203Y14647866D01*
X534181Y14647019D01*
X524309Y14646974D01*
X520624Y14647103D01*
X520623Y14647104D01*
X520621Y14647103D01*
X520619Y14647104D01*
X512458Y14646588D01*
X505543Y14646151D01*
X505538Y14646151D01*
X489148Y14645115D01*
X489147Y14645116D01*
X415432Y14640458D01*
X386856Y14638652D01*
X376807Y14638900D01*
X376807Y14638657D01*
X369829Y14638657D01*
X369828Y14638656D01*
X369828Y14638657D01*
X360795Y14637638D01*
X346914Y14637266D01*
X346915Y14637245D01*
X340833Y14637002D01*
X340823Y14637003D01*
X291125Y14630100D01*
X288404Y14629905D01*
X288417Y14629801D01*
X281481Y14628969D01*
X281479Y14628970D01*
X255674Y14625877D01*
X255673Y14625877D01*
X244897Y14624586D01*
X244073Y14624489D01*
X207408Y14620360D01*
X207403Y14620358D01*
X203875Y14619961D01*
X198463Y14619021D01*
X165750Y14615100D01*
X158791Y14614784D01*
X158808Y14614550D01*
X152729Y14614123D01*
X152722Y14614121D01*
X152720Y14614122D01*
X144062Y14612651D01*
X138079Y14611785D01*
X119158Y14609518D01*
X119155Y14609517D01*
X112373Y14607919D01*
X112318Y14608152D01*
X102600Y14605607D01*
X100849Y14605309D01*
X99813Y14605133D01*
X99786Y14605133D01*
X80302Y14601819D01*
X80302Y14601820D01*
X73099Y14600595D01*
X73077Y14600597D01*
X73079Y14600592D01*
X69858Y14600045D01*
X56475Y14597772D01*
X56465Y14597773D01*
X36335Y14594352D01*
X36328Y14594350D01*
X1723Y14588474D01*
X1719Y14588472D01*
X-5472Y14587251D01*
X-5549Y14587233D01*
X-10661Y14586365D01*
X-20624Y14584672D01*
X-30690Y14583860D01*
X-30665Y14583621D01*
X-37586Y14582889D01*
X-37595Y14582890D01*
X-56228Y14578773D01*
X-62166Y14577614D01*
X-70724Y14576161D01*
X-70729Y14576159D01*
X-76612Y14574554D01*
X-76674Y14574783D01*
X-83319Y14572789D01*
X-105401Y14567910D01*
X-117389Y14565262D01*
X-117389Y14565263D01*
X-118499Y14565017D01*
X-128553Y14563310D01*
X-129393Y14563112D01*
X-129396Y14563112D01*
X-150573Y14558121D01*
X-151905Y14558193D01*
X-176358Y14552265D01*
X-178760Y14551708D01*
X-197210Y14547634D01*
X-197213Y14547632D01*
X-198030Y14547452D01*
X-206943Y14544850D01*
X-208314Y14544517D01*
X-208961Y14544362D01*
X-208961Y14544363D01*
X-219390Y14541905D01*
X-242913Y14536362D01*
X-249761Y14535277D01*
X-249718Y14535044D01*
X-255718Y14533936D01*
X-255726Y14533936D01*
X-264058Y14531535D01*
X-269953Y14529992D01*
X-288494Y14525625D01*
X-288496Y14525623D01*
X-295056Y14523277D01*
X-295136Y14523502D01*
X-304555Y14519868D01*
X-314270Y14517070D01*
X-317952Y14516009D01*
X-317979Y14516004D01*
X-326319Y14513601D01*
X-326323Y14513601D01*
X-402942Y14491525D01*
X-424690Y14485259D01*
X-434576Y14483330D01*
X-434525Y14483096D01*
X-441323Y14481594D01*
X-441325Y14481593D01*
X-441327Y14481593D01*
X-459301Y14475443D01*
X-465084Y14473621D01*
X-473511Y14471195D01*
X-473519Y14471190D01*
X-479177Y14468940D01*
X-479263Y14469158D01*
X-485668Y14466425D01*
X-518199Y14455297D01*
X-518652Y14455142D01*
X-518654Y14455141D01*
X-518672Y14455135D01*
X-519656Y14454798D01*
X-520338Y14454601D01*
X-521866Y14454105D01*
X-521879Y14454101D01*
X-521894Y14454152D01*
X-529558Y14451942D01*
X-530369Y14451651D01*
X-530374Y14451651D01*
X-546763Y14445785D01*
X-546789Y14445784D01*
X-562737Y14440075D01*
X-564302Y14439527D01*
X-595997Y14428687D01*
X-596000Y14428685D01*
X-596816Y14428406D01*
X-606223Y14424509D01*
X-607339Y14424109D01*
X-607339Y14424110D01*
X-617480Y14420480D01*
X-640155Y14412367D01*
X-646855Y14410516D01*
X-646787Y14410290D01*
X-652611Y14408523D01*
X-652615Y14408521D01*
X-652621Y14408520D01*
X-660679Y14405181D01*
X-666326Y14403003D01*
X-684266Y14396586D01*
X-684272Y14396581D01*
X-690524Y14393518D01*
X-690629Y14393733D01*
X-699568Y14389073D01*
X-713025Y14383499D01*
X-713077Y14383482D01*
X-720500Y14380406D01*
X-720504Y14380406D01*
X-756812Y14365363D01*
X-782259Y14354824D01*
X-782261Y14354823D01*
X-790205Y14351532D01*
X-794151Y14349898D01*
X-794151Y14349897D01*
X-805417Y14345231D01*
X-805426Y14345227D01*
X-814394Y14341512D01*
X-814400Y14341508D01*
X-815054Y14341238D01*
X-824687Y14338207D01*
X-824609Y14337979D01*
X-831200Y14335723D01*
X-831206Y14335722D01*
X-843366Y14329969D01*
X-843372Y14329968D01*
X-848435Y14327573D01*
X-853996Y14325107D01*
X-862014Y14321787D01*
X-862018Y14321784D01*
X-862021Y14321783D01*
X-867395Y14318911D01*
X-867507Y14319120D01*
X-873545Y14315695D01*
X-882100Y14311647D01*
X-905071Y14300783D01*
X-905071Y14300784D01*
X-906079Y14300306D01*
X-915419Y14296440D01*
X-916226Y14296044D01*
X-916232Y14296043D01*
X-946849Y14281036D01*
X-948196Y14280387D01*
X-978968Y14265835D01*
X-978971Y14265831D01*
X-979790Y14265445D01*
X-988654Y14260547D01*
X-989584Y14260091D01*
X-989584Y14260092D01*
X-1021042Y14244675D01*
X-1027471Y14242096D01*
X-1027378Y14241878D01*
X-1032975Y14239467D01*
X-1032982Y14239465D01*
X-1040514Y14235301D01*
X-1045924Y14232483D01*
X-1062989Y14224122D01*
X-1062994Y14224117D01*
X-1068858Y14220378D01*
X-1068985Y14220577D01*
X-1077358Y14214938D01*
X-1093361Y14206093D01*
X-1095495Y14204914D01*
X-1095497Y14204913D01*
X-1095498Y14204914D01*
X-1167044Y14165376D01*
X-1167047Y14165373D01*
X-1173540Y14161785D01*
X-1173590Y14161752D01*
X-1186951Y14154368D01*
X-1196173Y14150282D01*
X-1196072Y14150067D01*
X-1202365Y14147089D01*
X-1202367Y14147087D01*
X-1202369Y14147087D01*
X-1218516Y14137093D01*
X-1223759Y14134025D01*
X-1231348Y14129832D01*
X-1231352Y14129828D01*
X-1231353Y14129828D01*
X-1236369Y14126374D01*
X-1236503Y14126568D01*
X-1242124Y14122485D01*
X-1271841Y14104098D01*
X-1272737Y14103543D01*
X-1281650Y14098614D01*
X-1282409Y14098129D01*
X-1282413Y14098128D01*
X-1311088Y14079826D01*
X-1312318Y14079053D01*
X-1341356Y14061088D01*
X-1341359Y14061084D01*
X-1342107Y14060622D01*
X-1350363Y14054761D01*
X-1351259Y14054189D01*
X-1351289Y14054180D01*
X-1351285Y14054173D01*
X-1351287Y14054172D01*
X-1380724Y14035387D01*
X-1386833Y14032097D01*
X-1386716Y14031892D01*
X-1392003Y14028872D01*
X-1392010Y14028869D01*
X-1399095Y14023840D01*
X-1404114Y14020461D01*
X-1420197Y14010200D01*
X-1420200Y14010196D01*
X-1420201Y14010196D01*
X-1425620Y14005813D01*
X-1425771Y14006000D01*
X-1433455Y13999461D01*
X-1460257Y13980445D01*
X-1516951Y13940220D01*
X-1516951Y13940219D01*
X-1522182Y13936508D01*
X-1522218Y13936482D01*
X-1535475Y13927083D01*
X-1544115Y13922030D01*
X-1543989Y13921826D01*
X-1549912Y13918161D01*
X-1549914Y13918159D01*
X-1549919Y13918157D01*
X-1564903Y13906376D01*
X-1569769Y13902740D01*
X-1576852Y13897717D01*
X-1576857Y13897711D01*
X-1581464Y13893710D01*
X-1581618Y13893888D01*
X-1586752Y13889201D01*
X-1612053Y13869312D01*
X-1612651Y13868842D01*
X-1617079Y13865724D01*
X-1619912Y13863463D01*
X-1619914Y13863463D01*
X-1623221Y13860825D01*
X-1631998Y13855118D01*
X-1631685Y13854650D01*
X-1636746Y13851264D01*
X-1636756Y13851259D01*
X-1674289Y13820426D01*
X-1676271Y13818834D01*
X-1678431Y13817138D01*
X-1678434Y13817134D01*
X-1680925Y13815177D01*
X-1683456Y13812897D01*
X-1687316Y13809726D01*
X-1688579Y13808704D01*
X-1711169Y13790689D01*
X-1716912Y13786770D01*
X-1716773Y13786576D01*
X-1721697Y13783029D01*
X-1721710Y13783022D01*
X-1728263Y13777246D01*
X-1732891Y13773367D01*
X-1747729Y13761535D01*
X-1747736Y13761525D01*
X-1752654Y13756609D01*
X-1752826Y13756781D01*
X-1759755Y13749503D01*
X-1790781Y13722165D01*
X-1794702Y13718710D01*
X-1860316Y13660898D01*
X-1860326Y13660884D01*
X-1862885Y13658141D01*
X-1869868Y13651220D01*
X-1880366Y13641616D01*
X-1943112Y13610889D01*
X-2002389Y13615177D01*
X-2005424Y13616163D01*
X-2008757Y13617246D01*
X-2218713Y13650500D01*
X-2431287Y13650500D01*
X-2641243Y13617246D01*
X-2644437Y13616207D01*
X-2645718Y13616171D01*
X-2645978Y13616109D01*
X-2645991Y13616163D01*
X-2714277Y13614208D01*
X-2770443Y13646455D01*
X-5556133Y16432145D01*
X-5560461Y16436473D01*
X-5560463Y16436476D01*
X-5618265Y16494277D01*
X-5618267Y16494279D01*
X-5672264Y16548277D01*
X-5673504Y16549396D01*
X-5723800Y16599394D01*
X-5723907Y16599500D01*
X-5723931Y16599524D01*
X-5766182Y16641275D01*
X-5767568Y16642801D01*
X-5829853Y16703986D01*
X-5829854Y16703986D01*
X-5888169Y16761270D01*
X-5888172Y16761272D01*
X-5888327Y16761394D01*
X-5896908Y16768769D01*
X-5951568Y16820270D01*
X-6016820Y16879234D01*
X-6022921Y16885191D01*
X-6023237Y16885465D01*
X-6023239Y16885467D01*
X-6106468Y16957585D01*
X-6139020Y16985792D01*
X-6187362Y17027681D01*
X-6247574Y17079856D01*
X-6247589Y17079865D01*
X-6260899Y17091398D01*
X-6267275Y17096923D01*
X-6430348Y17231568D01*
X-6528645Y17308869D01*
X-6596574Y17362289D01*
X-6609979Y17372324D01*
X-6609995Y17372337D01*
X-6615787Y17376673D01*
X-6615789Y17376675D01*
X-6681228Y17425662D01*
X-6681229Y17425662D01*
X-6681230Y17425664D01*
X-6754645Y17480622D01*
X-6754660Y17480631D01*
X-6765872Y17489025D01*
X-6938113Y17611678D01*
X-7113281Y17730234D01*
X-7118810Y17733787D01*
X-7127864Y17739606D01*
X-7127885Y17739621D01*
X-7133459Y17743203D01*
X-7133462Y17743206D01*
X-7181450Y17774045D01*
X-7202231Y17787401D01*
X-7202230Y17787401D01*
X-7285995Y17841232D01*
X-7285994Y17841232D01*
X-7285997Y17841233D01*
X-7286001Y17841235D01*
X-7291184Y17844566D01*
X-7471761Y17954633D01*
X-7654906Y18060372D01*
X-7668176Y18067617D01*
X-7668189Y18067626D01*
X-7747711Y18111048D01*
X-7827686Y18154718D01*
X-7827701Y18154724D01*
X-7840516Y18161722D01*
X-7943684Y18214909D01*
X-8028466Y18258618D01*
X-8028475Y18258622D01*
X-8028484Y18258627D01*
X-8218706Y18351031D01*
X-8218710Y18351033D01*
X-8218731Y18351043D01*
X-8233561Y18357815D01*
X-8233585Y18357828D01*
X-8281767Y18379832D01*
X-8281768Y18379833D01*
X-8281769Y18379833D01*
X-8321483Y18397970D01*
X-8389245Y18428916D01*
X-8395762Y18431892D01*
X-8395775Y18431897D01*
X-8411071Y18438882D01*
X-8605460Y18522125D01*
X-8605476Y18522132D01*
X-8801805Y18600730D01*
X-8817639Y18606636D01*
X-8818947Y18607124D01*
X-8818963Y18607131D01*
X-8824288Y18609117D01*
X-8864495Y18624112D01*
X-8864497Y18624114D01*
X-8900877Y18637683D01*
X-8977467Y18666250D01*
X-8977469Y18666250D01*
X-8987861Y18670126D01*
X-8987874Y18670129D01*
X-8999950Y18674634D01*
X-9199797Y18743802D01*
X-9401234Y18808194D01*
X-9417288Y18812907D01*
X-9417315Y18812918D01*
X-9532575Y18846759D01*
X-9581122Y18861015D01*
X-9589612Y18863508D01*
X-9589634Y18863512D01*
X-9604146Y18867774D01*
X-9604157Y18867776D01*
X-9604164Y18867779D01*
X-9681890Y18888605D01*
X-9808416Y18922507D01*
X-10013930Y18972365D01*
X-10013942Y18972367D01*
X-10013956Y18972371D01*
X-10028108Y18975449D01*
X-10028138Y18975458D01*
X-10090387Y18988999D01*
X-10117254Y18994843D01*
X-10117255Y18994844D01*
X-10117256Y18994844D01*
X-10197127Y19012220D01*
X-10197128Y19012219D01*
X-10206369Y19014230D01*
X-10206405Y19014235D01*
X-10213842Y19015853D01*
X-10220587Y19017321D01*
X-10328694Y19038156D01*
X-10428235Y19057342D01*
X-10636785Y19092411D01*
X-10650659Y19094405D01*
X-10650669Y19094408D01*
X-10650670Y19094408D01*
X-10660534Y19095826D01*
X-10660536Y19095827D01*
X-10741448Y19107461D01*
X-10741448Y19107460D01*
X-10797497Y19115519D01*
X-10797502Y19115519D01*
X-10797503Y19115520D01*
X-10836675Y19121153D01*
X-10836688Y19121153D01*
X-10846111Y19122508D01*
X-10846123Y19122509D01*
X-10846134Y19122511D01*
X-10984080Y19139003D01*
X-11056093Y19147614D01*
X-11266614Y19167716D01*
X-11293046Y19169606D01*
X-11293059Y19169608D01*
X-11323418Y19171779D01*
X-11323420Y19171780D01*
X-11386990Y19176326D01*
X-11386989Y19176326D01*
X-11391350Y19176637D01*
X-11426299Y19179137D01*
X-11426311Y19179139D01*
X-11435881Y19179823D01*
X-11435883Y19179824D01*
X-11517419Y19185655D01*
X-11517419Y19185654D01*
X-11525614Y19186240D01*
X-11588689Y19190752D01*
X-11588693Y19190751D01*
X-11589122Y19190782D01*
X-11597615Y19190882D01*
X-11657703Y19193924D01*
X-11685464Y19195330D01*
X-11713605Y19196166D01*
X-11760519Y19197562D01*
X-11771826Y19198418D01*
X-11772015Y19198440D01*
X-11772023Y19198442D01*
X-11837375Y19199023D01*
X-11853757Y19199169D01*
X-11853757Y19199170D01*
X-11935498Y19199900D01*
X-11935499Y19199899D01*
X-11941124Y19199950D01*
X-11943186Y19199849D01*
X-12002709Y19200204D01*
X-12002743Y19200204D01*
X-12002894Y19200205D01*
X-12002893Y19200205D01*
X-12042827Y19200323D01*
X-12073627Y19200415D01*
X-12075296Y19200500D01*
X-12080210Y19200500D01*
X-12151658Y19200500D01*
X-12233402Y19200501D01*
X-12233406Y19200500D01*
X-18141366Y19200500D01*
X-18141370Y19200501D01*
X-18223115Y19200500D01*
X-18294565Y19200500D01*
X-18300684Y19200500D01*
X-18300684Y19200576D01*
X-18307222Y19200484D01*
X-18307226Y19200485D01*
X-18375834Y19199522D01*
X-18388973Y19199338D01*
X-18389810Y19199325D01*
X-18394333Y19199261D01*
X-18394385Y19199276D01*
X-18394385Y19199261D01*
X-18470683Y19198193D01*
X-18470690Y19198191D01*
X-18477591Y19197316D01*
X-18477629Y19197618D01*
X-18489930Y19195851D01*
X-18502272Y19195274D01*
X-18527318Y19193279D01*
X-18538102Y19193304D01*
X-18538100Y19193126D01*
X-18544184Y19193040D01*
X-18544194Y19193041D01*
X-18593448Y19187491D01*
X-18593452Y19187491D01*
X-18601424Y19186592D01*
X-18611304Y19185479D01*
X-18611304Y19185478D01*
X-18611306Y19185479D01*
X-18625369Y19183893D01*
X-18625374Y19183894D01*
X-18625374Y19183893D01*
X-18696422Y19175889D01*
X-18696424Y19175887D01*
X-18707270Y19174666D01*
X-18707282Y19174663D01*
X-18763541Y19168325D01*
X-18763542Y19168324D01*
X-18763565Y19168322D01*
X-18770899Y19166986D01*
X-18886883Y19149505D01*
X-18986815Y19130597D01*
X-18995966Y19129218D01*
X-18999484Y19128821D01*
X-18999498Y19128821D01*
X-19042111Y19119094D01*
X-19079182Y19110633D01*
X-19158877Y19092444D01*
X-19158888Y19092438D01*
X-19162208Y19091277D01*
X-19171057Y19088545D01*
X-19269316Y19062218D01*
X-19366523Y19032233D01*
X-19375458Y19029840D01*
X-19378891Y19029056D01*
X-19378902Y19029055D01*
X-19456059Y19002056D01*
X-19456059Y19002055D01*
X-19491638Y18989606D01*
X-19533212Y18975059D01*
X-19533219Y18975054D01*
X-19536384Y18973531D01*
X-19544894Y18969818D01*
X-19604960Y18946243D01*
X-19639568Y18932661D01*
X-19732781Y18891991D01*
X-19741411Y18888605D01*
X-19744744Y18887438D01*
X-19744755Y18887436D01*
X-19818404Y18851968D01*
X-19892047Y18816504D01*
X-19892053Y18816499D01*
X-19895019Y18814635D01*
X-19903056Y18809993D01*
X-19940697Y18790099D01*
X-20009164Y18776179D01*
X-20074290Y18801484D01*
X-20115397Y18857982D01*
X-20117010Y18862806D01*
X-20156522Y18989606D01*
X-20244528Y19135185D01*
X-20244530Y19135188D01*
X-20364811Y19255469D01*
X-20364813Y19255470D01*
X-20364815Y19255472D01*
X-20510394Y19343478D01*
X-20672804Y19394086D01*
X-20743384Y19400500D01*
X-21406616Y19400500D01*
X-21477196Y19394086D01*
X-21639606Y19343478D01*
X-21760853Y19270180D01*
X-21828404Y19252346D01*
X-21889145Y19270180D01*
X-22010394Y19343478D01*
X-22042211Y19353392D01*
X-22074210Y19368674D01*
X-22101086Y19386632D01*
X-22101088Y19386632D01*
X-22101092Y19386635D01*
X-22283160Y19462049D01*
X-22283165Y19462051D01*
X-22283170Y19462052D01*
X-22476457Y19500500D01*
X-22476459Y19500500D01*
X-23976459Y19500500D01*
X-25445500Y19500500D01*
X-25512539Y19520185D01*
X-25558294Y19572989D01*
X-25569500Y19624500D01*
X-25569500Y19801000D01*
X-25549815Y19868039D01*
X-25497011Y19913794D01*
X-25445500Y19925000D01*
X25795500Y19925000D01*
X25862539Y19905315D01*
G37*
%TD.AperFunction*%
%TD*%
%TA.AperFunction,Conductor*%
%TO.N,OUT2-2*%
G36*
X-27882460Y-12600185D02*
G01*
X-27836705Y-12652989D01*
X-27825499Y-12704500D01*
X-27825499Y-13822872D01*
X-27819091Y-13882483D01*
X-27802947Y-13925764D01*
X-27796656Y-13988495D01*
X-27825500Y-14170605D01*
X-27825500Y-15008956D01*
X-27802882Y-15122658D01*
X-27800499Y-15146851D01*
X-27800499Y-15664363D01*
X-27785046Y-15781753D01*
X-27785044Y-15781757D01*
X-27785044Y-15781762D01*
X-27724536Y-15927841D01*
X-27628282Y-16053282D01*
X-27502841Y-16149536D01*
X-27356762Y-16210044D01*
X-27239361Y-16225500D01*
X-26960640Y-16225499D01*
X-26960636Y-16225499D01*
X-26843246Y-16210046D01*
X-26843242Y-16210044D01*
X-26843238Y-16210044D01*
X-26697159Y-16149536D01*
X-26697157Y-16149534D01*
X-26696953Y-16149450D01*
X-26627484Y-16141981D01*
X-26565004Y-16173256D01*
X-26529352Y-16233345D01*
X-26525500Y-16264011D01*
X-26525500Y-16898126D01*
X-26545185Y-16965165D01*
X-26561819Y-16985807D01*
X-26597967Y-17021955D01*
X-26597970Y-17021959D01*
X-26686998Y-17166294D01*
X-26686999Y-17166297D01*
X-26687003Y-17166303D01*
X-26740349Y-17327292D01*
X-26750500Y-17426655D01*
X-26750499Y-18023344D01*
X-26740349Y-18122708D01*
X-26687003Y-18283697D01*
X-26597968Y-18428044D01*
X-26478044Y-18547968D01*
X-26333697Y-18637003D01*
X-26207234Y-18678908D01*
X-26166281Y-18692479D01*
X-26166692Y-18693719D01*
X-26111615Y-18723553D01*
X-26077924Y-18784763D01*
X-26075000Y-18811530D01*
X-26075000Y-19951000D01*
X-26094685Y-20018039D01*
X-26147489Y-20063794D01*
X-26199000Y-20075000D01*
X-35301691Y-20075000D01*
X-35519892Y-20077380D01*
X-35519893Y-20077380D01*
X-35954634Y-20115415D01*
X-35954638Y-20115415D01*
X-36384394Y-20191193D01*
X-36384398Y-20191193D01*
X-36384404Y-20191195D01*
X-36384411Y-20191197D01*
X-36805924Y-20304140D01*
X-36805934Y-20304143D01*
X-36805935Y-20304144D01*
X-37216018Y-20453402D01*
X-37216025Y-20453405D01*
X-37216027Y-20453406D01*
X-37611523Y-20637828D01*
X-37611538Y-20637836D01*
X-37877182Y-20791206D01*
X-37989467Y-20856034D01*
X-37989473Y-20856038D01*
X-37989484Y-20856045D01*
X-38346947Y-21106343D01*
X-38681244Y-21386852D01*
X-38681256Y-21386863D01*
X-38837242Y-21539484D01*
X-41221612Y-23923854D01*
X-41282935Y-23957339D01*
X-41352627Y-23952355D01*
X-41408560Y-23910483D01*
X-41430510Y-23862298D01*
X-41473566Y-23662518D01*
X-41473567Y-23662515D01*
X-41612893Y-23207565D01*
X-41612898Y-23207551D01*
X-41790298Y-22766077D01*
X-41790302Y-22766066D01*
X-42004507Y-22341218D01*
X-42004517Y-22341198D01*
X-42253991Y-21936028D01*
X-42528225Y-21565239D01*
X-42552262Y-21499635D01*
X-42537015Y-21431449D01*
X-42502838Y-21392237D01*
X-42493914Y-21385557D01*
X-42493913Y-21385556D01*
X-42493903Y-21385547D01*
X-37918062Y-16809705D01*
X-37918054Y-16809696D01*
X-37882001Y-16761996D01*
X-37834098Y-16698620D01*
X-37801122Y-16639537D01*
X-37777510Y-16578819D01*
X-37772757Y-16568122D01*
X-37735811Y-16494557D01*
X-37721140Y-16471896D01*
X-37719676Y-16470099D01*
X-37711222Y-16460738D01*
X-36625199Y-15374714D01*
X-36615826Y-15366250D01*
X-36614031Y-15364788D01*
X-36591374Y-15350123D01*
X-36517825Y-15313185D01*
X-36507115Y-15308426D01*
X-36446403Y-15284817D01*
X-36446397Y-15284814D01*
X-36446395Y-15284813D01*
X-36387313Y-15251837D01*
X-36361587Y-15232392D01*
X-36276238Y-15167881D01*
X-36276228Y-15167872D01*
X-33725176Y-12616819D01*
X-33663853Y-12583334D01*
X-33637495Y-12580500D01*
X-27949499Y-12580500D01*
X-27882460Y-12600185D01*
G37*
%TD.AperFunction*%
%TD*%
%TA.AperFunction,Conductor*%
%TO.N,OUT2-3*%
G36*
X35780038Y-19685D02*
G01*
X35825793Y-72489D01*
X35836971Y-121368D01*
X35855707Y-1003891D01*
X35914836Y-1931141D01*
X36013259Y-2854997D01*
X36150810Y-3773893D01*
X36327230Y-4686089D01*
X36542206Y-5589978D01*
X36795360Y-6483960D01*
X37086209Y-7366337D01*
X37086214Y-7366352D01*
X37086216Y-7366356D01*
X37414264Y-8235626D01*
X37426132Y-8263439D01*
X37778905Y-9090182D01*
X38179497Y-9928513D01*
X38433565Y-10406888D01*
X38615299Y-10749069D01*
X39085536Y-11550395D01*
X39589358Y-12331042D01*
X40125858Y-13089602D01*
X40694069Y-13824709D01*
X41292967Y-14535038D01*
X41921472Y-15219310D01*
X41921480Y-15219318D01*
X42248280Y-15549557D01*
X46094033Y-19395309D01*
X46127518Y-19456632D01*
X46122534Y-19526324D01*
X46080662Y-19582257D01*
X46037597Y-19602989D01*
X45606812Y-19715157D01*
X45158168Y-19873673D01*
X44724613Y-20069652D01*
X44724591Y-20069663D01*
X44309218Y-20301705D01*
X44309199Y-20301717D01*
X43914992Y-20568153D01*
X43914991Y-20568154D01*
X43544804Y-20867059D01*
X43544793Y-20867069D01*
X43374837Y-21029957D01*
X43312816Y-21062133D01*
X43243246Y-21055669D01*
X43201356Y-21028115D01*
X38294505Y-16121264D01*
X38271702Y-16089879D01*
X38207639Y-15964147D01*
X38181825Y-15913483D01*
X38150587Y-15870488D01*
X38056877Y-15741507D01*
X37694432Y-15379062D01*
X37522457Y-15254115D01*
X37346058Y-15164235D01*
X37314673Y-15141432D01*
X34248241Y-12075000D01*
X28299500Y-12075000D01*
X28232461Y-12055315D01*
X28186706Y-12002511D01*
X28175500Y-11951000D01*
X28175499Y-8827129D01*
X28175498Y-8827123D01*
X28169091Y-8767516D01*
X28150266Y-8717044D01*
X28143976Y-8654306D01*
X28175495Y-8455378D01*
X28175495Y-8455376D01*
X28175495Y-8430681D01*
X28175500Y-8430620D01*
X28175500Y-8351994D01*
X28175500Y-8351990D01*
X28175505Y-8270323D01*
X28175503Y-8270317D01*
X28175504Y-8263439D01*
X28175500Y-8263349D01*
X28175500Y-7641042D01*
X28152882Y-7527339D01*
X28150499Y-7503147D01*
X28150499Y-6985636D01*
X28135046Y-6868246D01*
X28135044Y-6868241D01*
X28135044Y-6868238D01*
X28074536Y-6722159D01*
X27978282Y-6596718D01*
X27852841Y-6500464D01*
X27758527Y-6461398D01*
X27706762Y-6439956D01*
X27706760Y-6439955D01*
X27589361Y-6424500D01*
X27310636Y-6424500D01*
X27193246Y-6439953D01*
X27193234Y-6439957D01*
X27046952Y-6500549D01*
X26977483Y-6508018D01*
X26915004Y-6476743D01*
X26879352Y-6416654D01*
X26875500Y-6385988D01*
X26875500Y-5751874D01*
X26895185Y-5684835D01*
X26911819Y-5664193D01*
X26947968Y-5628044D01*
X27037003Y-5483697D01*
X27090349Y-5322708D01*
X27100500Y-5223345D01*
X27100499Y-4626656D01*
X27090349Y-4527292D01*
X27037003Y-4366303D01*
X27036999Y-4366297D01*
X27036998Y-4366294D01*
X26947970Y-4221959D01*
X26947967Y-4221955D01*
X26828044Y-4102032D01*
X26828040Y-4102029D01*
X26683705Y-4013001D01*
X26683699Y-4012998D01*
X26683697Y-4012997D01*
X26683694Y-4012996D01*
X26516281Y-3957521D01*
X26516691Y-3956283D01*
X26461602Y-3926433D01*
X26427919Y-3865218D01*
X26425000Y-3838469D01*
X26425000Y-124000D01*
X26444685Y-56961D01*
X26497489Y-11206D01*
X26549000Y0D01*
X35712999Y0D01*
X35780038Y-19685D01*
G37*
%TD.AperFunction*%
%TD*%
%TA.AperFunction,Conductor*%
%TO.N,OUT2-1*%
G36*
X-42893246Y20905669D02*
G01*
X-42851356Y20878115D01*
X-37944505Y15971264D01*
X-37921702Y15939879D01*
X-37911462Y15919781D01*
X-37837517Y15774654D01*
X-37831824Y15763482D01*
X-37706877Y15591507D01*
X-37344432Y15229062D01*
X-37306862Y15201766D01*
X-37172457Y15104115D01*
X-36996059Y15014236D01*
X-36964673Y14991432D01*
X-33898241Y11925000D01*
X-27949500Y11925000D01*
X-27882461Y11905315D01*
X-27836706Y11852511D01*
X-27825500Y11801000D01*
X-27825499Y8677129D01*
X-27825498Y8677123D01*
X-27819091Y8617516D01*
X-27801810Y8571184D01*
X-27795519Y8508453D01*
X-27825501Y8319155D01*
X-27825500Y8281204D01*
X-27825500Y7491042D01*
X-27802882Y7377339D01*
X-27800499Y7353147D01*
X-27800499Y6835636D01*
X-27785046Y6718246D01*
X-27785044Y6718241D01*
X-27785044Y6718238D01*
X-27724536Y6572159D01*
X-27628282Y6446718D01*
X-27502841Y6350464D01*
X-27502839Y6350463D01*
X-27356762Y6289956D01*
X-27356760Y6289955D01*
X-27239361Y6274500D01*
X-26960636Y6274500D01*
X-26843246Y6289953D01*
X-26843234Y6289957D01*
X-26696952Y6350549D01*
X-26627483Y6358018D01*
X-26565004Y6326743D01*
X-26529352Y6266654D01*
X-26525500Y6235988D01*
X-26525500Y5601874D01*
X-26545185Y5534835D01*
X-26561819Y5514193D01*
X-26597968Y5478044D01*
X-26687003Y5333697D01*
X-26740349Y5172708D01*
X-26750500Y5073345D01*
X-26750499Y4476656D01*
X-26740349Y4377292D01*
X-26687003Y4216303D01*
X-26686999Y4216297D01*
X-26686998Y4216294D01*
X-26597970Y4071959D01*
X-26597967Y4071955D01*
X-26478044Y3952032D01*
X-26478040Y3952029D01*
X-26333705Y3863001D01*
X-26333699Y3862998D01*
X-26333697Y3862997D01*
X-26333694Y3862996D01*
X-26166281Y3807521D01*
X-26166691Y3806283D01*
X-26111602Y3776433D01*
X-26077919Y3715218D01*
X-26075000Y3688469D01*
X-26075000Y49000D01*
X-26094685Y-18039D01*
X-26147489Y-63794D01*
X-26199000Y-75000D01*
X-35364591Y-75000D01*
X-35431630Y-55315D01*
X-35477385Y-2511D01*
X-35488563Y46368D01*
X-35505706Y853891D01*
X-35564835Y1781141D01*
X-35663258Y2704997D01*
X-35800809Y3623888D01*
X-35977230Y4536092D01*
X-36192205Y5439978D01*
X-36445359Y6333960D01*
X-36736208Y7216336D01*
X-37064266Y8085634D01*
X-37428909Y8940190D01*
X-37829492Y9778503D01*
X-38265299Y10599070D01*
X-38735532Y11400390D01*
X-39061406Y11905315D01*
X-39239357Y12181041D01*
X-39775857Y12939601D01*
X-40344068Y13674708D01*
X-40344073Y13674715D01*
X-40942952Y14385022D01*
X-40942958Y14385028D01*
X-40942966Y14385038D01*
X-41571471Y15069309D01*
X-41611063Y15109317D01*
X-41898279Y15399556D01*
X-45744033Y19245309D01*
X-45777518Y19306632D01*
X-45772534Y19376324D01*
X-45730662Y19432257D01*
X-45687597Y19452989D01*
X-45256812Y19565157D01*
X-44808168Y19723673D01*
X-44374613Y19919652D01*
X-44374591Y19919663D01*
X-43959218Y20151705D01*
X-43959199Y20151717D01*
X-43564992Y20418153D01*
X-43564991Y20418154D01*
X-43194804Y20717059D01*
X-43194793Y20717069D01*
X-43024837Y20879957D01*
X-42962816Y20912133D01*
X-42893246Y20905669D01*
G37*
%TD.AperFunction*%
%TD*%
M02*
