%TF.GenerationSoftware,KiCad,Pcbnew,8.0.1*%
%TF.CreationDate,2024-07-17T22:58:36+09:00*%
%TF.ProjectId,MD-20240410,4d442d32-3032-4343-9034-31302e6b6963,rev?*%
%TF.SameCoordinates,Original*%
%TF.FileFunction,Soldermask,Top*%
%TF.FilePolarity,Negative*%
%FSLAX46Y46*%
G04 Gerber Fmt 4.6, Leading zero omitted, Abs format (unit mm)*
G04 Created by KiCad (PCBNEW 8.0.1) date 2024-07-17 22:58:36*
%MOMM*%
%LPD*%
G01*
G04 APERTURE LIST*
G04 Aperture macros list*
%AMRoundRect*
0 Rectangle with rounded corners*
0 $1 Rounding radius*
0 $2 $3 $4 $5 $6 $7 $8 $9 X,Y pos of 4 corners*
0 Add a 4 corners polygon primitive as box body*
4,1,4,$2,$3,$4,$5,$6,$7,$8,$9,$2,$3,0*
0 Add four circle primitives for the rounded corners*
1,1,$1+$1,$2,$3*
1,1,$1+$1,$4,$5*
1,1,$1+$1,$6,$7*
1,1,$1+$1,$8,$9*
0 Add four rect primitives between the rounded corners*
20,1,$1+$1,$2,$3,$4,$5,0*
20,1,$1+$1,$4,$5,$6,$7,0*
20,1,$1+$1,$6,$7,$8,$9,0*
20,1,$1+$1,$8,$9,$2,$3,0*%
%AMHorizOval*
0 Thick line with rounded ends*
0 $1 width*
0 $2 $3 position (X,Y) of the first rounded end (center of the circle)*
0 $4 $5 position (X,Y) of the second rounded end (center of the circle)*
0 Add line between two ends*
20,1,$1,$2,$3,$4,$5,0*
0 Add two circle primitives to create the rounded ends*
1,1,$1,$2,$3*
1,1,$1,$4,$5*%
G04 Aperture macros list end*
%ADD10RoundRect,0.200000X-0.275000X0.200000X-0.275000X-0.200000X0.275000X-0.200000X0.275000X0.200000X0*%
%ADD11HorizOval,1.700000X0.106066X0.106066X-0.106066X-0.106066X0*%
%ADD12RoundRect,0.250000X0.954594X0.106066X0.106066X0.954594X-0.954594X-0.106066X-0.106066X-0.954594X0*%
%ADD13RoundRect,0.200000X-0.200000X-0.275000X0.200000X-0.275000X0.200000X0.275000X-0.200000X0.275000X0*%
%ADD14RoundRect,0.225000X0.225000X0.250000X-0.225000X0.250000X-0.225000X-0.250000X0.225000X-0.250000X0*%
%ADD15RoundRect,0.100000X-0.100000X0.687500X-0.100000X-0.687500X0.100000X-0.687500X0.100000X0.687500X0*%
%ADD16R,2.310000X2.460000*%
%ADD17RoundRect,0.200000X0.275000X-0.200000X0.275000X0.200000X-0.275000X0.200000X-0.275000X-0.200000X0*%
%ADD18RoundRect,0.150000X-0.150000X0.587500X-0.150000X-0.587500X0.150000X-0.587500X0.150000X0.587500X0*%
%ADD19HorizOval,1.700000X-0.106066X-0.106066X0.106066X0.106066X0*%
%ADD20RoundRect,0.250000X-0.954594X-0.106066X-0.106066X-0.954594X0.954594X0.106066X0.106066X0.954594X0*%
%ADD21RoundRect,0.225000X-0.225000X-0.250000X0.225000X-0.250000X0.225000X0.250000X-0.225000X0.250000X0*%
%ADD22RoundRect,0.100000X0.100000X-0.687500X0.100000X0.687500X-0.100000X0.687500X-0.100000X-0.687500X0*%
%ADD23C,3.400000*%
%ADD24R,2.680000X3.600000*%
%ADD25R,0.610000X2.000000*%
%ADD26O,1.700000X1.950000*%
%ADD27RoundRect,0.250000X0.600000X0.725000X-0.600000X0.725000X-0.600000X-0.725000X0.600000X-0.725000X0*%
%ADD28HorizOval,1.700000X-0.106066X0.106066X0.106066X-0.106066X0*%
%ADD29RoundRect,0.250000X0.106066X-0.954594X0.954594X-0.106066X-0.106066X0.954594X-0.954594X0.106066X0*%
%ADD30RoundRect,0.250000X-0.106066X0.954594X-0.954594X0.106066X0.106066X-0.954594X0.954594X-0.106066X0*%
%ADD31RoundRect,0.150000X0.150000X-0.587500X0.150000X0.587500X-0.150000X0.587500X-0.150000X-0.587500X0*%
%ADD32O,1.950000X1.700000*%
%ADD33RoundRect,0.250000X-0.725000X0.600000X-0.725000X-0.600000X0.725000X-0.600000X0.725000X0.600000X0*%
G04 APERTURE END LIST*
D10*
%TO.C,R16*%
X24250000Y3925000D03*
X24250000Y5575000D03*
%TD*%
%TO.C,R13*%
X21250000Y-18575000D03*
X21250000Y-16925000D03*
%TD*%
D11*
%TO.C,J4*%
X-38513473Y-14672466D03*
D12*
X-36745707Y-16440232D03*
%TD*%
D13*
%TO.C,R23*%
X33325000Y-750000D03*
X31675000Y-750000D03*
%TD*%
D14*
%TO.C,C4*%
X6725000Y-16000000D03*
X8275000Y-16000000D03*
%TD*%
D15*
%TO.C,U2*%
X-22725000Y-14862500D03*
X-23375000Y-14862500D03*
X-24025000Y-14862500D03*
X-24675000Y-14862500D03*
X-25325000Y-14862500D03*
X-25975000Y-14862500D03*
X-26625000Y-14862500D03*
X-27275000Y-14862500D03*
X-27275000Y-9137500D03*
X-26625000Y-9137500D03*
X-25975000Y-9137500D03*
X-25325000Y-9137500D03*
X-24675000Y-9137500D03*
X-24025000Y-9137500D03*
X-23375000Y-9137500D03*
X-22725000Y-9137500D03*
D16*
X-25000000Y-12000000D03*
%TD*%
D15*
%TO.C,U1*%
X-22725000Y7637500D03*
X-23375000Y7637500D03*
X-24025000Y7637500D03*
X-24675000Y7637500D03*
X-25325000Y7637500D03*
X-25975000Y7637500D03*
X-26625000Y7637500D03*
X-27275000Y7637500D03*
X-27275000Y13362500D03*
X-26625000Y13362500D03*
X-25975000Y13362500D03*
X-25325000Y13362500D03*
X-24675000Y13362500D03*
X-24025000Y13362500D03*
X-23375000Y13362500D03*
X-22725000Y13362500D03*
D16*
X-25000000Y10500000D03*
%TD*%
D14*
%TO.C,C9*%
X-22975000Y-17650000D03*
X-21425000Y-17650000D03*
%TD*%
%TO.C,C5*%
X6725000Y-14500000D03*
X8275000Y-14500000D03*
%TD*%
%TO.C,C8*%
X6725000Y-11500000D03*
X8275000Y-11500000D03*
%TD*%
%TO.C,C10*%
X-25975000Y-17650000D03*
X-24425000Y-17650000D03*
%TD*%
D10*
%TO.C,R14*%
X22750000Y-18575000D03*
X22750000Y-16925000D03*
%TD*%
%TO.C,R17*%
X21250000Y3925000D03*
X21250000Y5575000D03*
%TD*%
D13*
%TO.C,R21*%
X33325000Y2250000D03*
X31675000Y2250000D03*
%TD*%
D17*
%TO.C,R7*%
X-25750000Y18575000D03*
X-25750000Y16925000D03*
%TD*%
D10*
%TO.C,R12*%
X24250000Y-18575000D03*
X24250000Y-16925000D03*
%TD*%
D18*
%TO.C,Q3*%
X32500000Y4062500D03*
X31550000Y5937500D03*
X33450000Y5937500D03*
%TD*%
D19*
%TO.C,J6*%
X38513473Y14672466D03*
D20*
X36745707Y16440232D03*
%TD*%
D17*
%TO.C,R8*%
X-24250000Y-3925000D03*
X-24250000Y-5575000D03*
%TD*%
D21*
%TO.C,C12*%
X25975000Y-4850000D03*
X24425000Y-4850000D03*
%TD*%
D22*
%TO.C,U3*%
X22725000Y-7637500D03*
X23375000Y-7637500D03*
X24025000Y-7637500D03*
X24675000Y-7637500D03*
X25325000Y-7637500D03*
X25975000Y-7637500D03*
X26625000Y-7637500D03*
X27275000Y-7637500D03*
X27275000Y-13362500D03*
X26625000Y-13362500D03*
X25975000Y-13362500D03*
X25325000Y-13362500D03*
X24675000Y-13362500D03*
X24025000Y-13362500D03*
X23375000Y-13362500D03*
X22725000Y-13362500D03*
D16*
X25000000Y-10500000D03*
%TD*%
D23*
%TO.C,J7*%
X2500000Y-16000000D03*
X-2500000Y-16000000D03*
%TD*%
D21*
%TO.C,C14*%
X25975000Y17650000D03*
X24425000Y17650000D03*
%TD*%
D10*
%TO.C,R18*%
X22750000Y3925000D03*
X22750000Y5575000D03*
%TD*%
%TO.C,R15*%
X25750000Y-18575000D03*
X25750000Y-16925000D03*
%TD*%
D17*
%TO.C,R10*%
X-22750000Y-3925000D03*
X-22750000Y-5575000D03*
%TD*%
D14*
%TO.C,C3*%
X6725000Y-17470000D03*
X8275000Y-17470000D03*
%TD*%
D17*
%TO.C,R4*%
X-24250000Y18575000D03*
X-24250000Y16925000D03*
%TD*%
D22*
%TO.C,U4*%
X22725000Y14862500D03*
X23375000Y14862500D03*
X24025000Y14862500D03*
X24675000Y14862500D03*
X25325000Y14862500D03*
X25975000Y14862500D03*
X26625000Y14862500D03*
X27275000Y14862500D03*
X27275000Y9137500D03*
X26625000Y9137500D03*
X25975000Y9137500D03*
X25325000Y9137500D03*
X24675000Y9137500D03*
X24025000Y9137500D03*
X23375000Y9137500D03*
X22725000Y9137500D03*
D16*
X25000000Y12000000D03*
%TD*%
D14*
%TO.C,C1*%
X-22975000Y4850000D03*
X-21425000Y4850000D03*
%TD*%
D21*
%TO.C,C11*%
X22975000Y-4850000D03*
X21425000Y-4850000D03*
%TD*%
D10*
%TO.C,R19*%
X25750000Y3925000D03*
X25750000Y5575000D03*
%TD*%
D17*
%TO.C,R11*%
X-25750000Y-3925000D03*
X-25750000Y-5575000D03*
%TD*%
D21*
%TO.C,C13*%
X22975000Y17650000D03*
X21425000Y17650000D03*
%TD*%
D17*
%TO.C,R1*%
X6000000Y6950000D03*
X6000000Y5300000D03*
%TD*%
D24*
%TO.C,J8*%
X9990000Y-1000000D03*
X-9990000Y-1000000D03*
D25*
X7000000Y1800000D03*
X6000000Y1800000D03*
X5000000Y1800000D03*
X4000000Y1800000D03*
X3000000Y1800000D03*
X2000000Y1800000D03*
X1000000Y1800000D03*
X0Y1800000D03*
X-1000000Y1800000D03*
X-2000000Y1800000D03*
X-3000000Y1800000D03*
X-4000000Y1800000D03*
X-5000000Y1800000D03*
X-6000000Y1800000D03*
X-7000000Y1800000D03*
%TD*%
D17*
%TO.C,R3*%
X-21250000Y18575000D03*
X-21250000Y16925000D03*
%TD*%
D14*
%TO.C,C2*%
X-25975000Y4850000D03*
X-24425000Y4850000D03*
%TD*%
D26*
%TO.C,J1*%
X-5000000Y17150000D03*
X-2500000Y17150000D03*
X0Y17150000D03*
X2500000Y17150000D03*
D27*
X5000000Y17150000D03*
%TD*%
D17*
%TO.C,R9*%
X-21250000Y-3925000D03*
X-21250000Y-5575000D03*
%TD*%
D28*
%TO.C,J3*%
X-36745707Y16440232D03*
D29*
X-38513473Y14672466D03*
%TD*%
D28*
%TO.C,J5*%
X36745707Y-16440232D03*
D30*
X38513473Y-14672466D03*
%TD*%
D13*
%TO.C,R22*%
X33325000Y-2250000D03*
X31675000Y-2250000D03*
%TD*%
D31*
%TO.C,Q4*%
X32500000Y-4062500D03*
X33450000Y-5937500D03*
X31550000Y-5937500D03*
%TD*%
D17*
%TO.C,R6*%
X-22750000Y18575000D03*
X-22750000Y16925000D03*
%TD*%
D14*
%TO.C,C7*%
X6725000Y-13000000D03*
X8275000Y-13000000D03*
%TD*%
D13*
%TO.C,R20*%
X33325000Y750000D03*
X31675000Y750000D03*
%TD*%
D32*
%TO.C,J2*%
X27750000Y-3750000D03*
X27750000Y-1250000D03*
X27750000Y1250000D03*
D33*
X27750000Y3750000D03*
%TD*%
M02*
