M48
; DRILL file {KiCad 8.0.1} date 2024-07-21T16:29:25+0900
; FORMAT={-:-/ absolute / inch / decimal}
; #@! TF.CreationDate,2024-07-21T16:29:25+09:00
; #@! TF.GenerationSoftware,Kicad,Pcbnew,8.0.1
; #@! TF.FileFunction,Plated,1,2,PTH
FMAT,2
INCH
; #@! TA.AperFunction,Plated,PTH,ViaDrill
T1C0.0118
; #@! TA.AperFunction,Plated,PTH,ViaDrill
T2C0.0157
; #@! TA.AperFunction,Plated,PTH,ComponentDrill
T3C0.0374
; #@! TA.AperFunction,Plated,PTH,ComponentDrill
T4C0.0394
; #@! TA.AperFunction,Plated,PTH,ComponentDrill
T5C0.0709
%
G90
G05
T1
X-0.8396Y-0.4754
T2
X-0.9774Y0.7283
X-0.9774Y-0.1575
X-0.9183Y0.7283
X-0.8396Y0.4104
X-0.8386Y0.5723
X-0.8386Y0.5231
X-0.8386Y0.4641
X-0.8386Y-0.3135
X-0.8386Y-0.3627
X-0.8386Y-0.4119
X-0.2756Y0.2264
X-0.2362Y0.2362
X-0.1988Y-0.5595
X-0.1969Y-0.1575
X-0.1575Y-0.1969
X-0.1181Y-0.1969
X-0.0787Y-0.1575
X-0.0394Y0.2362
X0.0Y0.2264
X0.1575Y0.2362
X0.1969Y0.2264
X0.2598Y0.4149
X0.2756Y0.0787
X0.3248Y-0.0492
X0.3415Y0.1644
X0.3937Y-0.4035
X0.4528Y-0.4035
X0.6004Y-0.3543
X0.6004Y-0.4035
X0.7185Y-0.4429
X0.7874Y-0.4429
X0.8524Y0.3568
X0.8524Y0.3076
X0.8524Y-0.529
X0.8524Y-0.5782
X0.8533Y0.4695
X0.8533Y-0.4163
X0.8543Y0.4149
X0.9321Y-0.7343
X0.9911Y0.1516
X0.9911Y-0.7343
T3
X-0.19Y0.4793
X-0.0915Y0.4793
X0.0069Y0.4793
X0.1053Y0.4793
X0.2037Y0.4793
X0.561Y0.1476
X0.561Y0.0492
X0.561Y-0.0492
X0.561Y-0.1476
T4
X-1.5094Y0.5747
X-1.5094Y-0.5806
X-1.4398Y0.6443
X-1.4398Y-0.6502
X1.4536Y0.6443
X1.4536Y-0.6502
X1.5232Y0.5747
X1.5232Y-0.5806
T5
X-0.0915Y-0.6329
X0.1053Y-0.6329
M30
