M48
; DRILL file {KiCad 8.0.1} date 2024-07-18T22:31:53+0900
; FORMAT={-:-/ absolute / inch / decimal}
; #@! TF.CreationDate,2024-07-18T22:31:53+09:00
; #@! TF.GenerationSoftware,Kicad,Pcbnew,8.0.1
; #@! TF.FileFunction,Plated,1,2,PTH
FMAT,2
INCH
; #@! TA.AperFunction,Plated,PTH,ViaDrill
T1C0.0118
; #@! TA.AperFunction,Plated,PTH,ViaDrill
T2C0.0157
; #@! TA.AperFunction,Plated,PTH,ComponentDrill
T3C0.0374
; #@! TA.AperFunction,Plated,PTH,ComponentDrill
T4C0.0394
; #@! TA.AperFunction,Plated,PTH,ComponentDrill
T5C0.0709
%
G90
G05
T1
X-0.8396Y-0.4729
T2
X-0.9774Y0.7308
X-0.9774Y-0.155
X-0.9183Y0.7308
X-0.8396Y0.4129
X-0.8386Y0.5748
X-0.8386Y0.5256
X-0.8386Y0.4665
X-0.8386Y-0.311
X-0.8386Y-0.3602
X-0.8386Y-0.4094
X-0.2687Y0.2357
X-0.2293Y0.2357
X-0.1988Y-0.5571
X-0.19Y0.0881
X-0.1506Y0.0881
X-0.1112Y0.0881
X-0.0719Y0.0881
X-0.0325Y0.2357
X0.0069Y0.2357
X0.1644Y0.2357
X0.2037Y0.2357
X0.2598Y0.4173
X0.2825Y0.0881
X0.3415Y0.1668
X0.7844Y-0.6993
X0.8524Y0.3593
X0.8524Y0.31
X0.8524Y-0.5266
X0.8524Y-0.5758
X0.8533Y0.4719
X0.8533Y-0.4139
X0.8543Y0.4173
X0.9321Y-0.7318
X0.9911Y0.154
X0.9911Y-0.7318
X1.1978Y0.029
X1.1978Y-0.0891
X1.2077Y0.2259
X1.2864Y0.2948
X1.2864Y-0.2958
X1.3258Y0.1471
X1.375Y-0.0005
T3
X-0.19Y0.4818
X-0.0915Y0.4818
X0.0069Y0.4818
X0.1053Y0.4818
X0.2037Y0.4818
X1.0994Y0.1471
X1.0994Y0.0487
X1.0994Y-0.0497
X1.0994Y-0.1481
T4
X-1.5094Y0.5772
X-1.5094Y-0.5781
X-1.4398Y0.6468
X-1.4398Y-0.6477
X1.4536Y0.6468
X1.4536Y-0.6477
X1.5232Y0.5772
X1.5232Y-0.5781
T5
X-0.0915Y-0.6304
X0.1053Y-0.6304
M30
