0
SECTION
2
HEADER
9
$INSUNITS
70
4
9
$ACADVER
1
AC1014
9
$HANDSEED
5
FFFF
0
ENDSEC
0
SECTION
2
TABLES
0
TABLE
2
VPORT
5
8
100
AcDbSymbolTable
0
ENDTAB
0
TABLE
2
LTYPE
5
5
100
AcDbSymbolTable
0
LTYPE
5
14
100
AcDbSymbolTableRecord
100
AcDbLinetypeTableRecord
2
BYBLOCK
70
0
0
LTYPE
5
15
100
AcDbSymbolTableRecord
100
AcDbLinetypeTableRecord
2
BYLAYER
70
0
0
ENDTAB
0
TABLE
2
LAYER
5
2
100
AcDbSymbolTable
70
2
0
LAYER
5
50
100
AcDbSymbolTableRecord
100
AcDbLayerTableRecord
2
0
70
0
6
CONTINUOUS
0
ENDTAB
0
TABLE
2
STYLE
5
3
100
AcDbSymbolTable
70
1
0
STYLE
5
11
100
AcDbSymbolTableRecord
100
AcDbTextStyleTableRecord
2
STANDARD
70
0
0
ENDTAB
0
TABLE
2
VIEW
5
6
100
AcDbSymbolTable
70
0
0
ENDTAB
0
TABLE
2
UCS
5
7
100
AcDbSymbolTable
70
0
0
ENDTAB
0
TABLE
2
APPID
5
9
100
AcDbSymbolTable
70
2
0
APPID
5
12
100
AcDbSymbolTableRecord
100
AcDbRegAppTableRecord
2
ACAD
70
0
0
ENDTAB
0
TABLE
2
DIMSTYLE
5
A
100
AcDbSymbolTable
70
1
0
ENDTAB
0
TABLE
2
BLOCK_RECORD
5
1
100
AcDbSymbolTable
70
1
0
BLOCK_RECORD
5
1F
100
AcDbSymbolTableRecord
100
AcDbBlockTableRecord
2
*MODEL_SPACE
0
BLOCK_RECORD
5
1B
100
AcDbSymbolTableRecord
100
AcDbBlockTableRecord
2
*PAPER_SPACE
0
ENDTAB
0
ENDSEC
0
SECTION
2
BLOCKS
0
BLOCK
5
20
100
AcDbEntity
100
AcDbBlockBegin
2
*MODEL_SPACE
0
ENDBLK
5
21
100
AcDbEntity
100
AcDbBlockEnd
0
BLOCK
5
1C
100
AcDbEntity
100
AcDbBlockBegin
2
*PAPER_SPACE
0
ENDBLK
5
1D
100
AcDbEntity
100
AcDbBlockEnd
0
ENDSEC
0
SECTION
2
ENTITIES
0
LWPOLYLINE
5
100
100
AcDbEntity
8
0
100
AcDbPolyline
90
72
70
1
43
0.0
10
-6.4014952365927202
20
-24.166523513651708
42
0.042230568222188215
10
-2.2499999999999942
20
-24.898544134145677
10
-2.25
20
-16.5
10
2.25
20
-16.5
10
2.25
20
-24.898544134145677
42
0.042230568222188049
10
6.4014952365926794
20
-24.166523513651718
10
3.5290239681052391
20
-16.274473565450243
10
7.7576407616418264
20
-14.735382920484737
10
10.630112030129286
20
-22.627432868686203
42
0.042230568222188215
10
14.280875671644589
20
-20.519663497509647
10
8.8823955628101992
20
-14.086005433257853
10
12.329595556845604
20
-11.193461189668426
10
17.728075665680009
20
-17.62711925392021
42
0.042230568222188215
10
20.437771737418178
20
-14.397829225587824
10
13.164419162443238
20
-10.198557158514989
10
15.414419162443238
20
-6.3014428414850165
10
22.687771737418174
20
-10.500714908557853
42
0.042230568222188049
10
24.129570902272697
20
-6.5394042597315263
10
15.858619524950836
20
-5.0810123757818211
10
16.640036324452026
20
-0.6493774872268876
10
24.910987701773891
20
-2.1077693711765737
42
0.042230568222188049
10
24.910987701773895
20
2.1077693711765408
10
16.64003632445203
20
0.64937748722688315
10
15.858619524950841
20
5.0810123757818193
10
24.129570902272711
20
6.5394042597315059
42
0.042230568222188382
10
22.687771737418178
20
10.500714908557855
10
15.414419162443242
20
6.3014428414850077
10
13.164419162443242
20
10.198557158514987
10
20.437771737418181
20
14.397829225587824
42
0.042230568222188708
10
17.728075665679995
20
17.627119253920224
10
12.329595556845604
20
11.193461189668419
10
8.8823955628102027
20
14.086005433257846
10
14.280875671644608
20
20.519663497509626
42
0.042230568222188548
10
10.630112030129272
20
22.627432868686206
10
7.757640761641829
20
14.73538292048473
10
3.5290239681052427
20
16.274473565450236
10
6.4014952365927025
20
24.166523513651708
42
0.042230568222188215
10
2.250000000000024
20
24.898544134145673
10
2.2500000000000018
20
16.500000000000004
10
-2.2499999999999982
20
16.500000000000004
10
-2.2499999999999964
20
24.898544134145677
42
0.042230568222188049
10
-6.4014952365926758
20
24.166523513651718
10
-3.52902396810524
20
16.274473565450236
10
-7.7576407616418264
20
14.73538292048473
10
-10.630112030129284
20
22.627432868686199
42
0.042230568222188215
10
-14.280875671644587
20
20.519663497509644
10
-8.8823955628102009
20
14.086005433257851
10
-12.329595556845604
20
11.193461189668428
10
-17.728075665680009
20
17.62711925392021
42
0.042230568222188049
10
-20.437771737418156
20
14.397829225587861
10
-13.164419162443235
20
10.198557158514991
10
-15.414419162443236
20
6.3014428414850165
10
-22.687771737418174
20
10.500714908557857
42
0.042230568222188708
10
-24.129570902272711
20
6.5394042597314863
10
-15.858619524950843
20
5.0810123757818193
10
-16.640036324452026
20
0.64937748722688315
10
-24.910987701773895
20
2.1077693711765639
42
0.042230568222188382
10
-24.910987701773895
20
-2.1077693711765715
10
-16.640036324452026
20
-0.64937748722687427
10
-15.858619524950843
20
-5.0810123757818122
10
-24.129570902272704
20
-6.5394042597314961
42
0.042230568222188548
10
-22.687771737418171
20
-10.500714908557864
10
-15.414419162443238
20
-6.3014428414850165
10
-13.164419162443238
20
-10.198557158514989
10
-20.437771737418181
20
-14.397829225587826
42
0.042230568222188708
10
-17.728075665679992
20
-17.627119253920227
10
-12.329595556845604
20
-11.193461189668422
10
-8.8823955628102027
20
-14.086005433257851
10
-14.28087567164461
20
-20.519663497509633
42
0.042230568222187882
10
-10.630112030129332
20
-22.627432868686185
10
-7.7576407616418388
20
-14.735382920484728
10
-3.5290239681052524
20
-16.27447356545024
0
CIRCLE
5
101
100
AcDbEntity
8
0
100
AcDbCircle
10
0
20
0
30
0
40
1.5000000000000002
210
0
220
-0
230
1
0
CIRCLE
5
102
100
AcDbEntity
8
0
100
AcDbCircle
10
-3.8890872965260121
20
3.8890872965260144
30
0
40
1.75
210
0
220
-0
230
1
0
CIRCLE
5
103
100
AcDbEntity
8
0
100
AcDbCircle
10
3.8890872965260117
20
3.8890872965260126
30
0
40
1.7500000000000002
210
0
220
-0
230
1
0
CIRCLE
5
104
100
AcDbEntity
8
0
100
AcDbCircle
10
-3.8890872965260121
20
-3.8890872965260121
30
0
40
1.75
210
0
220
-0
230
1
0
CIRCLE
5
105
100
AcDbEntity
8
0
100
AcDbCircle
10
3.889087296526013
20
-3.8890872965260108
30
0
40
1.7500000000000002
210
0
220
-0
230
1
0
LWPOLYLINE
5
106
100
AcDbEntity
8
0
100
AcDbPolyline
90
10
70
1
43
0.0
10
4.7876595788552976
20
7.6762660041280073
42
0.35484634561250106
10
1.4330195937876278
20
5.4356902332890726
42
-0.7374412297658679
10
-1.4330195937876256
20
5.4356902332890726
42
0.35484634561250195
10
-4.7876595788553074
20
7.6762660041280188
42
-0.22322865602131223
10
-5.9877876498479745
20
8.1091079934076156
10
-7.2666496474106559
20
9.3879699909702907
42
-0.4893091341242799
10
-6.9719906367862698
20
11.738297647456356
42
-0.27458511286913856
10
6.9719906367862539
20
11.73829764745637
42
-0.48930913412428229
10
7.266649647410647
20
9.3879699909702978
10
5.9877876498479568
20
8.1091079934076067
42
-0.22322865602131128
0
LWPOLYLINE
5
107
100
AcDbEntity
8
0
100
AcDbPolyline
90
10
70
1
43
0.0
10
9.3879699909702943
20
-7.266649647410647
10
8.1091079934076067
20
-5.9877876498479594
42
-0.22322865602131095
10
7.6762660041280046
20
-4.7876595788552994
42
0.35484634561250145
10
5.4356902332890726
20
-1.4330195937876256
42
-0.73744122976586723
10
5.4356902332890735
20
1.4330195937876289
42
0.35484634561250239
10
7.6762660041280197
20
4.7876595788553136
42
-0.22322865602131212
10
8.1091079934076156
20
5.9877876498479798
10
9.3879699909702889
20
7.2666496474106568
42
-0.48930913412428201
10
11.738297647456356
20
6.9719906367862681
42
-0.27458511286913856
10
11.738297647456362
20
-6.9719906367862503
42
-0.48930913412428084
0
LWPOLYLINE
5
108
100
AcDbEntity
8
0
100
AcDbPolyline
90
10
70
1
43
0.0
10
-7.6762660041280073
20
4.7876595788552985
42
0.35484634561250117
10
-5.4356902332890726
20
1.4330195937876289
42
-0.7374412297658679
10
-5.4356902332890726
20
-1.4330195937876256
42
0.35484634561250195
10
-7.6762660041280188
20
-4.78765957885531
42
-0.22322865602131245
10
-8.1091079934076173
20
-5.987787649847979
10
-9.3879699909702907
20
-7.2666496474106514
42
-0.48930913412428234
10
-11.738297647456356
20
-6.971990636786261
42
-0.27458511286913834
10
-11.738297647456367
20
6.9719906367862468
42
-0.48930913412428167
10
-9.3879699909702925
20
7.2666496474106479
10
-8.1091079934076067
20
5.9877876498479594
42
-0.22322865602130953
0
LWPOLYLINE
5
109
100
AcDbEntity
8
0
100
AcDbPolyline
90
10
70
1
43
0.0
10
-4.7876595788553038
20
-7.6762660041280162
42
0.354846345612502
10
-1.4330195937876267
20
-5.43569023328907
42
-0.73744122976586746
10
1.4330195937876267
20
-5.4356902332890726
42
0.35484634561250222
10
4.7876595788553127
20
-7.6762660041280188
42
-0.22322865602131198
10
5.987787649847979
20
-8.1091079934076156
10
7.2666496474106532
20
-9.3879699909702889
42
-0.4893091341242799
10
6.9719906367862645
20
-11.738297647456356
42
-0.27458511286913878
10
-6.9719906367862636
20
-11.738297647456356
42
-0.48930913412428156
10
-7.2666496474106506
20
-9.3879699909702925
10
-5.9877876498479585
20
-8.109107993407612
42
-0.22322865602130931
0
ENDSEC
0
SECTION
2
OBJECTS
0
DICTIONARY
5
C
100
AcDbDictionary
3
ACAD_GROUP
350
D
3
ACAD_MLINESTYLE
350
17
0
DICTIONARY
5
D
100
AcDbDictionary
0
DICTIONARY
5
1A
330
C
100
AcDbDictionary
0
DICTIONARY
5
17
100
AcDbDictionary
0
ENDSEC
0
EOF
