0
SECTION
2
HEADER
9
$INSUNITS
70
4
9
$ACADVER
1
AC1014
9
$HANDSEED
5
FFFF
0
ENDSEC
0
SECTION
2
TABLES
0
TABLE
2
VPORT
5
8
100
AcDbSymbolTable
0
ENDTAB
0
TABLE
2
LTYPE
5
5
100
AcDbSymbolTable
0
LTYPE
5
14
100
AcDbSymbolTableRecord
100
AcDbLinetypeTableRecord
2
BYBLOCK
70
0
0
LTYPE
5
15
100
AcDbSymbolTableRecord
100
AcDbLinetypeTableRecord
2
BYLAYER
70
0
0
ENDTAB
0
TABLE
2
LAYER
5
2
100
AcDbSymbolTable
70
2
0
LAYER
5
50
100
AcDbSymbolTableRecord
100
AcDbLayerTableRecord
2
0
70
0
6
CONTINUOUS
0
ENDTAB
0
TABLE
2
STYLE
5
3
100
AcDbSymbolTable
70
1
0
STYLE
5
11
100
AcDbSymbolTableRecord
100
AcDbTextStyleTableRecord
2
STANDARD
70
0
0
ENDTAB
0
TABLE
2
VIEW
5
6
100
AcDbSymbolTable
70
0
0
ENDTAB
0
TABLE
2
UCS
5
7
100
AcDbSymbolTable
70
0
0
ENDTAB
0
TABLE
2
APPID
5
9
100
AcDbSymbolTable
70
2
0
APPID
5
12
100
AcDbSymbolTableRecord
100
AcDbRegAppTableRecord
2
ACAD
70
0
0
ENDTAB
0
TABLE
2
DIMSTYLE
5
A
100
AcDbSymbolTable
70
1
0
ENDTAB
0
TABLE
2
BLOCK_RECORD
5
1
100
AcDbSymbolTable
70
1
0
BLOCK_RECORD
5
1F
100
AcDbSymbolTableRecord
100
AcDbBlockTableRecord
2
*MODEL_SPACE
0
BLOCK_RECORD
5
1B
100
AcDbSymbolTableRecord
100
AcDbBlockTableRecord
2
*PAPER_SPACE
0
ENDTAB
0
ENDSEC
0
SECTION
2
BLOCKS
0
BLOCK
5
20
100
AcDbEntity
100
AcDbBlockBegin
2
*MODEL_SPACE
0
ENDBLK
5
21
100
AcDbEntity
100
AcDbBlockEnd
0
BLOCK
5
1C
100
AcDbEntity
100
AcDbBlockBegin
2
*PAPER_SPACE
0
ENDBLK
5
1D
100
AcDbEntity
100
AcDbBlockEnd
0
ENDSEC
0
SECTION
2
ENTITIES
0
CIRCLE
5
100
100
AcDbEntity
8
0
100
AcDbCircle
10
3.8890872965260161
20
-3.8890872965260104
30
0
40
1.8500000000000003
210
0
220
-0
230
1
0
LWPOLYLINE
5
101
100
AcDbEntity
8
0
100
AcDbPolyline
90
10
70
1
43
0.0
10
4.3840620433565931
20
7.3539105243400993
42
0.26417068435904828
10
1.166726201128045
20
6.088803202333855
42
-0.47763101536765301
10
-1.1667262011271562
20
6.0888032023340033
42
0.26417068435911606
10
-4.3840620433571589
20
7.3539105243408729
42
-0.23606797749982289
10
-5.6568542494931293
20
7.778174593052773
10
-7.2666496474106559
20
9.3879699909702907
42
-0.4893091341242799
10
-6.9719906367862672
20
11.738297647456362
42
-0.27458511286913856
10
6.9719906367862539
20
11.73829764745637
42
-0.48930913412428229
10
7.266649647410647
20
9.3879699909702978
10
5.6568542494923797
20
7.7781745930520287
42
-0.23606797749979005
0
LWPOLYLINE
5
102
100
AcDbEntity
8
0
100
AcDbPolyline
90
10
70
1
43
0.0
10
-9.3879699909702925
20
7.2666496474106479
10
-7.778174593052027
20
5.6568542494923824
42
-0.23606797749978914
10
-7.3539105243400993
20
4.3840620433565958
42
0.26417068435904845
10
-6.0888032023338576
20
1.1667262011280446
42
-0.47763101536765284
10
-6.0888032023340033
20
-1.1667262011271569
42
0.26417068435911623
10
-7.3539105243408738
20
-4.3840620433571615
42
-0.23606797749982533
10
-7.7781745930527766
20
-5.65685424949314
10
-9.3879699909702907
20
-7.2666496474106514
42
-0.48930913412428234
10
-11.738297647456356
20
-6.971990636786261
42
-0.27458511286913834
10
-11.738297647456367
20
6.9719906367862468
42
-0.48930913412428167
0
CIRCLE
5
103
100
AcDbEntity
8
0
100
AcDbCircle
10
-3.8890872965260099
20
-3.8890872965260188
30
0
40
1.8500000000000003
210
0
220
-0
230
1
0
CIRCLE
5
104
100
AcDbEntity
8
0
100
AcDbCircle
10
3.8890872965260108
20
3.8890872965260153
30
0
40
1.8500000000000001
210
0
220
-0
230
1
0
LWPOLYLINE
5
105
100
AcDbEntity
8
0
100
AcDbPolyline
90
10
70
1
43
0.0
10
7.3539105243400975
20
-4.3840620433565984
42
0.26417068435904889
10
6.0888032023338559
20
-1.1667262011280446
42
-0.47763101536765284
10
6.0888032023340024
20
1.1667262011271569
42
0.26417068435911645
10
7.353910524340872
20
4.3840620433571615
42
-0.23606797749982453
10
7.778174593052773
20
5.6568542494931382
10
9.3879699909702889
20
7.2666496474106568
42
-0.48930913412428201
10
11.738297647456356
20
6.9719906367862698
42
-0.27458511286913856
10
11.738297647456363
20
-6.9719906367862494
42
-0.48930913412428056
10
9.3879699909702943
20
-7.2666496474106479
10
7.778174593052027
20
-5.656854249492385
42
-0.236067977499789
0
LWPOLYLINE
5
106
100
AcDbEntity
8
0
100
AcDbPolyline
90
10
70
1
43
0.0
10
-4.3840620433565922
20
-7.3539105243401028
42
0.26417068435904828
10
-1.1667262011280439
20
-6.0888032023338585
42
-0.47763101536765323
10
1.1667262011271584
20
-6.0888032023340042
42
0.26226847442564061
10
4.3593946557880798
20
-7.3573449264938162
42
-0.23094863340779914
10
5.6084861974852149
20
-7.7701124907480459
10
7.2666496474106532
20
-9.3879699909702889
42
-0.4893091341242799
10
6.9719906367862645
20
-11.738297647456355
42
-0.27458511286913878
10
-6.9719906367862636
20
-11.738297647456356
42
-0.48930913412428156
10
-7.2666496474106506
20
-9.3879699909702925
10
-5.6568542494923735
20
-7.778174593052027
42
-0.23606797749978878
0
CIRCLE
5
107
100
AcDbEntity
8
0
100
AcDbCircle
10
-3.8890872965260166
20
3.8890872965260099
30
0
40
1.8500000000000003
210
0
220
-0
230
1
0
CIRCLE
5
108
100
AcDbEntity
8
0
100
AcDbCircle
10
-5.5511151231257827e-16
20
2.2204460492503131e-15
30
0
40
1.6999999999999997
210
0
220
-0
230
1
0
LWPOLYLINE
5
109
100
AcDbEntity
8
0
100
AcDbPolyline
90
108
70
1
43
0.0
10
-6.4014952365927202
20
-24.166523513651708
42
0.042230568222188215
10
-2.2499999999999942
20
-24.898544134145677
10
-2.2499999999999987
20
-18.000000000000004
42
-0.41421356237309503
10
-0.74999999999999944
20
-16.500000000000004
10
0.74999999999999967
20
-16.500000000000004
42
-0.41421356237309503
10
2.25
20
-18.000000000000004
10
2.25
20
-24.898544134145677
42
0.042230568222188049
10
6.4014952365926794
20
-24.166523513651718
10
4.0420541830937466
20
-17.684012496629109
42
-0.41421356237309498
10
4.9385628992841042
20
-15.761443350461741
10
6.3481018304629631
20
-15.248413135473236
42
-0.41421356237309509
10
8.2706709766303295
20
-16.144921851663597
10
10.630112030129288
20
-22.627432868686206
42
0.042230568222188215
10
14.280875671644589
20
-20.519663497509647
10
9.8465769773400087
20
-15.235072097936321
42
-0.41421356237309476
10
10.031462227488666
20
-13.121824018728045
10
11.180528892167134
20
-12.157642604198236
42
-0.41421356237309503
10
13.293776971375408
20
-12.342527854346894
10
17.728075665680009
20
-17.627119253920206
42
0.042230568222188382
10
20.437771737418178
20
-14.397829225587824
10
14.463457268119893
20
-10.948557158514991
42
-0.41421356237309509
10
13.914419162443236
20
-8.8995190528383326
10
14.664419162443238
20
-7.6004809471616728
42
-0.41421356237309465
10
16.713457268119896
20
-7.0514428414850165
10
22.687771737418174
20
-10.500714908557855
42
0.042230568222188049
10
24.129570902272697
20
-6.5394042597315263
10
17.335831154469147
20
-5.341484642282218
42
-0.41421356237309509
10
16.119091791451229
20
-3.6038007462635084
10
16.379564057951626
20
-2.1265891167451967
42
-0.4142135623730947
10
18.117247953970335
20
-0.90984975372728183
10
24.910987701773891
20
-2.1077693711765733
42
0.042230568222187882
10
24.910987701773895
20
2.1077693711765408
10
18.117247953970342
20
0.90984975372727372
42
-0.41421356237309531
10
16.37956405795163
20
2.1265891167451927
10
16.119091791451233
20
3.6038007462635053
42
-0.41421356237309515
10
17.335831154469151
20
5.3414846422822135
10
24.129570902272711
20
6.5394042597315059
42
0.042230568222188382
10
22.687771737418178
20
10.500714908557855
10
16.713457268119896
20
7.0514428414850077
42
-0.41421356237309465
10
14.664419162443243
20
7.6004809471616666
10
13.914419162443242
20
8.8995190528383255
42
-0.41421356237309537
10
14.463457268119901
20
10.948557158514983
10
20.437771737418181
20
14.397829225587824
42
0.042230568222188215
10
17.728075665679995
20
17.627119253920224
10
13.293776971375419
20
12.342527854346883
42
-0.4142135623730957
10
11.180528892167141
20
12.157642604198225
10
10.031462227488667
20
13.121824018728036
42
-0.41421356237309509
10
9.8465769773400105
20
15.235072097936314
10
14.280875671644608
20
20.519663497509626
42
0.042230568222188548
10
10.630112030129272
20
22.627432868686206
10
8.2706709766303295
20
16.144921851663593
42
-0.41421356237309498
10
6.3481018304629657
20
15.248413135473236
10
4.938562899284106
20
15.761443350461736
42
-0.4142135623730952
10
4.0420541830937449
20
17.684012496629105
10
6.4014952365927025
20
24.166523513651708
42
0.042230568222188548
10
2.250000000000024
20
24.898544134145673
10
2.2500000000000009
20
18.000000000000004
42
-0.41421356237309503
10
0.75000000000000167
20
16.500000000000004
10
-0.74999999999999722
20
16.500000000000004
42
-0.41421356237309509
10
-2.2499999999999978
20
18.000000000000004
10
-2.2499999999999969
20
24.898544134145677
42
0.042230568222188049
10
-6.4014952365926758
20
24.166523513651718
10
-4.0420541830937475
20
17.684012496629101
42
-0.41421356237309498
10
-4.938562899284106
20
15.761443350461734
10
-6.3481018304629622
20
15.248413135473234
42
-0.41421356237309492
10
-8.2706709766303295
20
16.144921851663593
10
-10.630112030129284
20
22.627432868686199
42
0.042230568222188215
10
-14.280875671644587
20
20.519663497509644
10
-9.8465769773400087
20
15.235072097936321
42
-0.41421356237309476
10
-10.031462227488666
20
13.121824018728045
10
-11.180528892167134
20
12.157642604198236
42
-0.41421356237309503
10
-13.293776971375408
20
12.342527854346894
10
-17.728075665680009
20
17.627119253920213
42
0.042230568222188215
10
-20.437771737418156
20
14.397829225587861
10
-14.463457268119893
20
10.948557158514987
42
-0.41421356237309459
10
-13.914419162443236
20
8.8995190528383308
10
-14.664419162443236
20
7.6004809471616754
42
-0.41421356237309503
10
-16.713457268119896
20
7.0514428414850192
10
-22.687771737418174
20
10.50071490855786
42
0.042230568222188708
10
-24.129570902272711
20
6.5394042597314863
10
-17.335831154469155
20
5.3414846422822126
42
-0.41421356237309492
10
-16.119091791451236
20
3.6038007462635049
10
-16.379564057951633
20
2.1265891167451954
42
-0.41421356237309531
10
-18.117247953970342
20
0.90984975372727739
10
-24.910987701773895
20
2.1077693711765644
42
0.042230568222188382
10
-24.910987701773895
20
-2.1077693711765715
10
-18.117247953970342
20
-0.90984975372726962
42
-0.41421356237309531
10
-16.379564057951633
20
-2.1265891167451882
10
-16.119091791451236
20
-3.6038007462634996
42
-0.41421356237309503
10
-17.335831154469151
20
-5.3414846422822073
10
-24.129570902272704
20
-6.5394042597314961
42
0.042230568222188548
10
-22.687771737418171
20
-10.500714908557864
10
-16.713457268119893
20
-7.0514428414850192
42
-0.41421356237309476
10
-14.664419162443236
20
-7.6004809471616772
10
-13.914419162443236
20
-8.8995190528383308
42
-0.41421356237309465
10
-14.463457268119893
20
-10.948557158514989
10
-20.437771737418181
20
-14.397829225587827
42
0.042230568222188875
10
-17.728075665679992
20
-17.627119253920227
10
-13.293776971375417
20
-12.342527854346891
42
-0.41421356237309537
10
-11.180528892167139
20
-12.15764260419823
10
-10.031462227488667
20
-13.121824018728038
42
-0.41421356237309509
10
-9.8465769773400105
20
-15.235072097936316
10
-14.28087567164461
20
-20.519663497509633
42
0.042230568222187882
10
-10.630112030129332
20
-22.627432868686185
10
-8.2706709766303383
20
-16.14492185166359
42
-0.41421356237309481
10
-6.3481018304629719
20
-15.248413135473234
10
-4.9385628992841131
20
-15.761443350461732
42
-0.41421356237309481
10
-4.0420541830937555
20
-17.684012496629101
0
ENDSEC
0
SECTION
2
OBJECTS
0
DICTIONARY
5
C
100
AcDbDictionary
3
ACAD_GROUP
350
D
3
ACAD_MLINESTYLE
350
17
0
DICTIONARY
5
D
100
AcDbDictionary
0
DICTIONARY
5
1A
330
C
100
AcDbDictionary
0
DICTIONARY
5
17
100
AcDbDictionary
0
ENDSEC
0
EOF
