0
SECTION
2
HEADER
9
$INSUNITS
70
4
9
$ACADVER
1
AC1014
9
$HANDSEED
5
FFFF
0
ENDSEC
0
SECTION
2
TABLES
0
TABLE
2
VPORT
5
8
100
AcDbSymbolTable
0
ENDTAB
0
TABLE
2
LTYPE
5
5
100
AcDbSymbolTable
0
LTYPE
5
14
100
AcDbSymbolTableRecord
100
AcDbLinetypeTableRecord
2
BYBLOCK
70
0
0
LTYPE
5
15
100
AcDbSymbolTableRecord
100
AcDbLinetypeTableRecord
2
BYLAYER
70
0
0
ENDTAB
0
TABLE
2
LAYER
5
2
100
AcDbSymbolTable
70
2
0
LAYER
5
50
100
AcDbSymbolTableRecord
100
AcDbLayerTableRecord
2
0
70
0
6
CONTINUOUS
0
ENDTAB
0
TABLE
2
STYLE
5
3
100
AcDbSymbolTable
70
1
0
STYLE
5
11
100
AcDbSymbolTableRecord
100
AcDbTextStyleTableRecord
2
STANDARD
70
0
0
ENDTAB
0
TABLE
2
VIEW
5
6
100
AcDbSymbolTable
70
0
0
ENDTAB
0
TABLE
2
UCS
5
7
100
AcDbSymbolTable
70
0
0
ENDTAB
0
TABLE
2
APPID
5
9
100
AcDbSymbolTable
70
2
0
APPID
5
12
100
AcDbSymbolTableRecord
100
AcDbRegAppTableRecord
2
ACAD
70
0
0
ENDTAB
0
TABLE
2
DIMSTYLE
5
A
100
AcDbSymbolTable
70
1
0
ENDTAB
0
TABLE
2
BLOCK_RECORD
5
1
100
AcDbSymbolTable
70
1
0
BLOCK_RECORD
5
1F
100
AcDbSymbolTableRecord
100
AcDbBlockTableRecord
2
*MODEL_SPACE
0
BLOCK_RECORD
5
1B
100
AcDbSymbolTableRecord
100
AcDbBlockTableRecord
2
*PAPER_SPACE
0
ENDTAB
0
ENDSEC
0
SECTION
2
BLOCKS
0
BLOCK
5
20
100
AcDbEntity
100
AcDbBlockBegin
2
*MODEL_SPACE
0
ENDBLK
5
21
100
AcDbEntity
100
AcDbBlockEnd
0
BLOCK
5
1C
100
AcDbEntity
100
AcDbBlockBegin
2
*PAPER_SPACE
0
ENDBLK
5
1D
100
AcDbEntity
100
AcDbBlockEnd
0
ENDSEC
0
SECTION
2
ENTITIES
0
CIRCLE
5
100
100
AcDbEntity
8
0
100
AcDbCircle
10
47.022600883050941
20
-69.225753944017356
30
0
40
1.6999999999999993
210
0
220
-0
230
1
0
CIRCLE
5
101
100
AcDbEntity
8
0
100
AcDbCircle
10
47.022600883050885
20
69.225753944017399
30
0
40
1.6999999999999993
210
0
220
-0
230
1
0
CIRCLE
5
102
100
AcDbEntity
8
0
100
AcDbCircle
10
69.225753944017356
20
47.022600883050927
30
0
40
1.6999999999999993
210
0
220
-0
230
1
0
CIRCLE
5
103
100
AcDbEntity
8
0
100
AcDbCircle
10
69.225753944017399
20
-47.022600883050877
30
0
40
1.6999999999999993
210
0
220
-0
230
1
0
CIRCLE
5
104
100
AcDbEntity
8
0
100
AcDbCircle
10
-69.225753944017413
20
47.02260088305087
30
0
40
1.6999999999999993
210
0
220
-0
230
1
0
CIRCLE
5
105
100
AcDbEntity
8
0
100
AcDbCircle
10
-69.225753944017356
20
-47.02260088305097
30
0
40
1.6999999999999993
210
0
220
-0
230
1
0
CIRCLE
5
106
100
AcDbEntity
8
0
100
AcDbCircle
10
-47.022600883050856
20
-69.225753944017441
30
0
40
1.6999999999999993
210
0
220
-0
230
1
0
CIRCLE
5
107
100
AcDbEntity
8
0
100
AcDbCircle
10
-47.022600883050949
20
69.225753944017342
30
0
40
1.6999999999999993
210
0
220
-0
230
1
0
LINE
5
108
100
AcDbEntity
8
0
100
AcDbLine
10
42.002142802481018
20
83.01433611130048
30
0
11
53.056801602796043
21
94.068994911615505
31
0
0
ARC
5
109
100
AcDbEntity
8
0
100
AcDbCircle
10
0
20
1.9539925233402755e-13
30
0
40
107.99999999999984
210
0
220
-0
230
1
100
AcDbArc
50
60.576129076571789
51
119.4238709234279
0
LINE
5
110
100
AcDbEntity
8
0
100
AcDbLine
10
-42.002142802480691
20
83.014336111300793
30
0
11
-83.014336111300437
21
42.002142802481039
31
0
0
LINE
5
111
100
AcDbEntity
8
0
100
AcDbLine
10
-83.014336111300437
20
42.002142802481039
30
0
11
-94.068994911615476
21
53.056801602796064
31
0
0
ARC
5
112
100
AcDbEntity
8
0
100
AcDbCircle
10
0
20
1.9539925233402755e-13
30
0
40
107.99999999999991
210
0
220
0
230
1
100
AcDbArc
50
150.57612907657193
51
209.42387092342793
0
LINE
5
113
100
AcDbEntity
8
0
100
AcDbLine
10
-94.068994911615746
20
-53.056801602795581
30
0
11
-83.014336111300821
21
-42.002142802480677
31
0
0
LINE
5
114
100
AcDbEntity
8
0
100
AcDbLine
10
-83.014336111300821
20
-42.002142802480677
30
0
11
-42.002142802481046
21
-83.014336111300423
31
0
0
LINE
5
115
100
AcDbEntity
8
0
100
AcDbLine
10
-42.002142802481046
20
-83.014336111300423
30
0
11
-53.056801602796071
21
-94.068994911615462
31
0
0
ARC
5
116
100
AcDbEntity
8
0
100
AcDbCircle
10
0
20
1.9539925233402755e-13
30
0
40
108.00000000000017
210
0
220
0
230
1
100
AcDbArc
50
240.57612907657187
51
299.42387092342784
0
LINE
5
117
100
AcDbEntity
8
0
100
AcDbLine
10
53.056801602795574
20
-94.068994911615746
30
0
11
42.002142802480691
21
-83.014336111300807
31
0
0
LINE
5
118
100
AcDbEntity
8
0
100
AcDbLine
10
42.002142802480691
20
-83.014336111300807
30
0
11
83.014336111300437
21
-42.002142802481032
31
0
0
LINE
5
119
100
AcDbEntity
8
0
100
AcDbLine
10
83.014336111300437
20
-42.002142802481032
30
0
11
94.068994911615476
21
-53.056801602796057
31
0
0
ARC
5
120
100
AcDbEntity
8
0
100
AcDbCircle
10
0
20
1.9539925233402755e-13
30
0
40
108.0000000000001
210
-0
220
0
230
1
100
AcDbArc
50
-29.423870923428289
51
29.423870923427799
0
LINE
5
121
100
AcDbEntity
8
0
100
AcDbLine
10
94.068994911615732
20
53.056801602795581
30
0
11
83.014336111300807
21
42.002142802480719
31
0
0
LINE
5
122
100
AcDbEntity
8
0
100
AcDbLine
10
83.014336111300807
20
42.002142802480719
30
0
11
42.002142802481018
21
83.01433611130048
31
0
0
ARC
5
123
100
AcDbEntity
8
0
100
AcDbCircle
10
0
20
0
30
0
40
108.00000000000003
210
0
220
-0
230
1
100
AcDbArc
50
25.72533159599406
51
64.274668404005666
0
ARC
5
124
100
AcDbEntity
8
0
100
AcDbCircle
10
0
20
0
30
0
40
105
210
0
220
-0
230
1
100
AcDbArc
50
28.250289611994486
51
61.749710388005532
0
CIRCLE
5
125
100
AcDbEntity
8
0
100
AcDbCircle
10
92.791176013385694
20
44.707914892700074
30
0
40
1.5999999999999988
210
0
220
0
230
1
0
CIRCLE
5
126
100
AcDbEntity
8
0
100
AcDbCircle
10
44.707914892700458
20
92.791176013385382
30
0
40
1.6000000000000003
210
0
220
0
230
1
0
CIRCLE
5
127
100
AcDbEntity
8
0
100
AcDbCircle
10
44.707914892700458
20
92.791176013385382
30
0
40
2.4999999999999951
210
0
220
0
230
1
0
CIRCLE
5
128
100
AcDbEntity
8
0
100
AcDbCircle
10
92.791176013385694
20
44.707914892700074
30
0
40
2.5
210
0
220
0
230
1
0
ARC
5
129
100
AcDbEntity
8
0
100
AcDbCircle
10
0
20
0
30
0
40
108.00000000000003
210
0
220
0
230
1
100
AcDbArc
50
115.72533159599408
51
154.27466840400569
0
ARC
5
130
100
AcDbEntity
8
0
100
AcDbCircle
10
0
20
0
30
0
40
105
210
0
220
0
230
1
100
AcDbArc
50
118.2502896119945
51
151.74971038800555
0
CIRCLE
5
131
100
AcDbEntity
8
0
100
AcDbCircle
10
-92.79117601338541
20
44.707914892700451
30
0
40
2.4999999999999951
210
0
220
0
230
1
0
CIRCLE
5
132
100
AcDbEntity
8
0
100
AcDbCircle
10
-92.79117601338541
20
44.707914892700451
30
0
40
1.6000000000000003
210
0
220
0
230
1
0
CIRCLE
5
133
100
AcDbEntity
8
0
100
AcDbCircle
10
-44.707914892700103
20
92.791176013385694
30
0
40
2.5
210
0
220
0
230
1
0
CIRCLE
5
134
100
AcDbEntity
8
0
100
AcDbCircle
10
-44.707914892700103
20
92.791176013385694
30
0
40
1.5999999999999988
210
0
220
0
230
1
0
ARC
5
135
100
AcDbEntity
8
0
100
AcDbCircle
10
0
20
0
30
0
40
108.00000000000003
210
0
220
0
230
1
100
AcDbArc
50
205.72533159599405
51
244.27466840400567
0
ARC
5
136
100
AcDbEntity
8
0
100
AcDbCircle
10
0
20
0
30
0
40
105
210
0
220
0
230
1
100
AcDbArc
50
208.25028961199448
51
241.74971038800552
0
CIRCLE
5
137
100
AcDbEntity
8
0
100
AcDbCircle
10
-44.707914892700472
20
-92.791176013385382
30
0
40
2.4999999999999951
210
0
220
0
230
1
0
CIRCLE
5
138
100
AcDbEntity
8
0
100
AcDbCircle
10
-44.707914892700472
20
-92.791176013385382
30
0
40
1.6000000000000003
210
0
220
0
230
1
0
CIRCLE
5
139
100
AcDbEntity
8
0
100
AcDbCircle
10
-92.791176013385694
20
-44.707914892700067
30
0
40
2.5
210
0
220
0
230
1
0
CIRCLE
5
140
100
AcDbEntity
8
0
100
AcDbCircle
10
-92.791176013385694
20
-44.707914892700067
30
0
40
1.5999999999999988
210
0
220
0
230
1
0
ARC
5
141
100
AcDbEntity
8
0
100
AcDbCircle
10
0
20
0
30
0
40
108.00000000000003
210
0
220
0
230
1
100
AcDbArc
50
295.72533159599402
51
334.27466840400569
0
ARC
5
142
100
AcDbEntity
8
0
100
AcDbCircle
10
0
20
0
30
0
40
105
210
0
220
0
230
1
100
AcDbArc
50
298.25028961199445
51
331.7497103880055
0
CIRCLE
5
143
100
AcDbEntity
8
0
100
AcDbCircle
10
92.791176013385353
20
-44.707914892700479
30
0
40
2.4999999999999951
210
0
220
0
230
1
0
CIRCLE
5
144
100
AcDbEntity
8
0
100
AcDbCircle
10
92.791176013385353
20
-44.707914892700479
30
0
40
1.6000000000000003
210
0
220
0
230
1
0
CIRCLE
5
145
100
AcDbEntity
8
0
100
AcDbCircle
10
44.70791489270006
20
-92.791176013385709
30
0
40
2.5
210
0
220
0
230
1
0
CIRCLE
5
146
100
AcDbEntity
8
0
100
AcDbCircle
10
44.70791489270006
20
-92.791176013385709
30
0
40
1.5999999999999988
210
0
220
0
230
1
0
CIRCLE
5
147
100
AcDbEntity
8
0
100
AcDbCircle
10
92.791176013385353
20
-44.707914892700479
30
0
40
4.9999999999999698
210
0
220
0
230
1
0
CIRCLE
5
148
100
AcDbEntity
8
0
100
AcDbCircle
10
44.70791489270006
20
-92.791176013385709
30
0
40
5.0000000000002949
210
0
220
-0
230
1
0
CIRCLE
5
149
100
AcDbEntity
8
0
100
AcDbCircle
10
92.791176013385694
20
44.707914892700074
30
0
40
5.0000000000002949
210
0
220
0
230
1
0
CIRCLE
5
150
100
AcDbEntity
8
0
100
AcDbCircle
10
-44.707914892700472
20
-92.791176013385382
30
0
40
4.9999999999999698
210
0
220
0
230
1
0
CIRCLE
5
151
100
AcDbEntity
8
0
100
AcDbCircle
10
-92.791176013385694
20
-44.707914892700067
30
0
40
5.0000000000002949
210
0
220
0
230
1
0
CIRCLE
5
152
100
AcDbEntity
8
0
100
AcDbCircle
10
-92.79117601338541
20
44.707914892700451
30
0
40
4.9999999999999698
210
0
220
0
230
1
0
CIRCLE
5
153
100
AcDbEntity
8
0
100
AcDbCircle
10
-44.707914892700103
20
92.791176013385694
30
0
40
5.0000000000002949
210
0
220
0
230
1
0
CIRCLE
5
154
100
AcDbEntity
8
0
100
AcDbCircle
10
44.707914892700458
20
92.791176013385382
30
0
40
4.9999999999999698
210
0
220
-0
230
1
0
LWPOLYLINE
5
155
100
AcDbEntity
8
0
100
AcDbPolyline
90
16
70
1
43
0.0
10
-48.31836636171829
20
-29.284560302910059
10
-45.572302719911406
20
-27.826160798873651
42
1.0000000074505806
10
-48.574178892520756
20
-22.173839201126352
10
-51.320242534326191
20
-23.632238705165491
42
-0.21918183589358084
10
-51.320242534326972
20
23.632238705164195
10
-48.574178892520017
20
22.173839201127734
42
0.99999999999999989
10
-45.572302719912145
20
27.826160798872259
10
-48.318366361719129
20
29.284560302908702
42
-0.56325248029604802
10
48.318366361719086
20
29.284560302908751
10
45.572302719912095
20
27.82616079887223
42
0.99999999999999989
10
48.574178892520059
20
22.173839201127763
10
51.320242534327114
20
23.632238705164315
42
-0.2191818358935757
10
51.320242534326837
20
-23.632238705164525
10
48.574178892519882
20
-22.173839201128047
42
0.99999999999999989
10
45.572302719912265
20
-27.826160798871953
10
48.318366361719129
20
-29.284560302908694
42
-0.56325248029603514
0
CIRCLE
5
156
100
AcDbEntity
8
0
100
AcDbCircle
10
-47.073240806216077
20
25
30
0
40
1.6000000000000014
210
0
220
-0
230
1
0
CIRCLE
5
157
100
AcDbEntity
8
0
100
AcDbCircle
10
47.073240806216077
20
-25
30
0
40
1.6000000000000014
210
0
220
-0
230
1
0
CIRCLE
5
158
100
AcDbEntity
8
0
100
AcDbCircle
10
-47.073240806216077
20
-25
30
0
40
1.6000000000000014
210
0
220
-0
230
1
0
CIRCLE
5
159
100
AcDbEntity
8
0
100
AcDbCircle
10
47.073240806216077
20
25
30
0
40
1.6000000000000014
210
0
220
-0
230
1
0
ENDSEC
0
SECTION
2
OBJECTS
0
DICTIONARY
5
C
100
AcDbDictionary
3
ACAD_GROUP
350
D
3
ACAD_MLINESTYLE
350
17
0
DICTIONARY
5
D
100
AcDbDictionary
0
DICTIONARY
5
1A
330
C
100
AcDbDictionary
0
DICTIONARY
5
17
100
AcDbDictionary
0
ENDSEC
0
EOF
