0
SECTION
2
HEADER
9
$INSUNITS
70
4
9
$ACADVER
1
AC1014
9
$HANDSEED
5
FFFF
0
ENDSEC
0
SECTION
2
TABLES
0
TABLE
2
VPORT
5
8
100
AcDbSymbolTable
0
ENDTAB
0
TABLE
2
LTYPE
5
5
100
AcDbSymbolTable
0
LTYPE
5
14
100
AcDbSymbolTableRecord
100
AcDbLinetypeTableRecord
2
BYBLOCK
70
0
0
LTYPE
5
15
100
AcDbSymbolTableRecord
100
AcDbLinetypeTableRecord
2
BYLAYER
70
0
0
ENDTAB
0
TABLE
2
LAYER
5
2
100
AcDbSymbolTable
70
2
0
LAYER
5
50
100
AcDbSymbolTableRecord
100
AcDbLayerTableRecord
2
0
70
0
6
CONTINUOUS
0
ENDTAB
0
TABLE
2
STYLE
5
3
100
AcDbSymbolTable
70
1
0
STYLE
5
11
100
AcDbSymbolTableRecord
100
AcDbTextStyleTableRecord
2
STANDARD
70
0
0
ENDTAB
0
TABLE
2
VIEW
5
6
100
AcDbSymbolTable
70
0
0
ENDTAB
0
TABLE
2
UCS
5
7
100
AcDbSymbolTable
70
0
0
ENDTAB
0
TABLE
2
APPID
5
9
100
AcDbSymbolTable
70
2
0
APPID
5
12
100
AcDbSymbolTableRecord
100
AcDbRegAppTableRecord
2
ACAD
70
0
0
ENDTAB
0
TABLE
2
DIMSTYLE
5
A
100
AcDbSymbolTable
70
1
0
ENDTAB
0
TABLE
2
BLOCK_RECORD
5
1
100
AcDbSymbolTable
70
1
0
BLOCK_RECORD
5
1F
100
AcDbSymbolTableRecord
100
AcDbBlockTableRecord
2
*MODEL_SPACE
0
BLOCK_RECORD
5
1B
100
AcDbSymbolTableRecord
100
AcDbBlockTableRecord
2
*PAPER_SPACE
0
ENDTAB
0
ENDSEC
0
SECTION
2
BLOCKS
0
BLOCK
5
20
100
AcDbEntity
100
AcDbBlockBegin
2
*MODEL_SPACE
0
ENDBLK
5
21
100
AcDbEntity
100
AcDbBlockEnd
0
BLOCK
5
1C
100
AcDbEntity
100
AcDbBlockBegin
2
*PAPER_SPACE
0
ENDBLK
5
1D
100
AcDbEntity
100
AcDbBlockEnd
0
ENDSEC
0
SECTION
2
ENTITIES
0
LWPOLYLINE
5
100
100
AcDbEntity
8
0
100
AcDbPolyline
90
143
70
1
43
0.0
10
18.965809466022026
20
13.547991411960281
42
0.46197061162621023
10
19.378520708534076
20
15.794712252805255
42
0.0071367925570107382
10
18.919799890077357
20
16.341394436198801
42
0.46197061162621073
10
16.635545231994247
20
16.325092184556681
10
13.293776971375419
20
12.342527854346883
42
-0.4142135623730957
10
11.180528892167141
20
12.157642604198225
10
10.031462227488667
20
13.121824018728036
42
-0.41421356237309509
10
9.8465769773400105
20
15.235072097936314
10
13.188345237958842
20
19.217636428146108
42
0.46197061162620812
10
12.807743163064229
20
21.470018981570128
42
0.0071367925570078204
10
12.189710276241732
20
21.826840435145137
42
0.46197061162621172
10
10.048788728488356
20
21.030260224024936
10
8.2706709766303295
20
16.144921851663593
42
-0.41421356237309498
10
6.3481018304629657
20
15.248413135473236
10
4.938562899284106
20
15.761443350461736
42
-0.4142135623730952
10
4.0420541830937449
20
17.684012496629105
10
5.8201719349517722
20
22.569350868990448
42
0.46197061162621139
10
4.6921627699711816
20
24.555724557424419
42
0.0071367925570087927
10
3.9893617021276677
20
24.679647347755949
42
0.46197061162621011
10
2.2500000000000027
20
23.198868506890591
10
2.2500000000000009
20
18.000000000000004
42
-0.41421356237309503
10
0.75000000000000167
20
16.500000000000004
10
-0.74999999999999722
20
16.500000000000004
42
-0.41421356237309509
10
-2.2499999999999978
20
18.000000000000004
10
-2.2499999999999969
20
23.198868506890591
42
0.46197061162620934
10
-3.9893617021276571
20
24.679647347755946
42
0.0071367925570068481
10
-4.6921627699711683
20
24.555724557424412
42
0.46197061162621084
10
-5.8201719349517695
20
22.569350868990448
10
-4.0420541830937475
20
17.684012496629101
42
-0.41421356237309498
10
-4.938562899284106
20
15.761443350461734
10
-6.3481018304629622
20
15.248413135473234
42
-0.41421356237309492
10
-8.2706709766303295
20
16.144921851663593
10
-10.048788728488354
20
21.030260224024936
42
0.46197061162620895
10
-12.189710276241716
20
21.826840435145147
42
0.0071367925570078204
10
-12.807743163064217
20
21.470018981570135
42
0.46197061162620978
10
-13.188345237958835
20
19.217636428146111
10
-9.8465769773400087
20
15.235072097936321
42
-0.41421356237309476
10
-10.031462227488666
20
13.121824018728045
10
-11.180528892167134
20
12.157642604198236
42
-0.41421356237309503
10
-13.293776971375408
20
12.342527854346894
10
-16.635545231994236
20
16.325092184556688
42
0.46197061162620956
10
-18.919799890077353
20
16.341394436198808
42
0.0071367925570087927
10
-19.378520708534065
20
15.794712252805265
42
0.46197061162620856
10
-18.965809466022023
20
13.547991411960291
10
-14.463457268119893
20
10.948557158514987
42
-0.41421356237309459
10
-13.914419162443236
20
8.8995190528383308
10
-14.664419162443236
20
7.6004809471616754
42
-0.41421356237309503
10
-16.713457268119896
20
7.0514428414850192
10
-21.215809466022016
20
9.6508770949303173
42
0.46197061162620867
10
-23.367882410661728
20
8.8849350949507038
42
0.0071367925570087927
10
-23.611962660048533
20
8.2143301212256041
42
0.46197061162620795
10
-22.455717166946009
20
6.2442586844337562
10
-17.335831154469155
20
5.3414846422822126
42
-0.41421356237309492
10
-16.119091791451236
20
3.6038007462635049
10
-16.379564057951633
20
2.1265891167451954
42
-0.41421356237309531
10
-18.117247953970342
20
0.90984975372727739
10
-23.237133966447203
20
1.8126237958788245
42
0.46197061162620728
10
-24.99745343930595
20
0.35682145357501194
42
0.0071367925570078204
10
-24.997453439305954
20
-0.35682145357498596
42
0.46197061162621228
10
-23.237133966447203
20
-1.8126237958788216
10
-18.117247953970342
20
-0.90984975372726962
42
-0.41421356237309531
10
-16.379564057951633
20
-2.1265891167451882
10
-16.119091791451236
20
-3.6038007462634996
42
-0.41421356237309503
10
-17.335831154469151
20
-5.3414846422822073
10
-22.455717166946005
20
-6.2442586844337526
42
0.46197061162620945
10
-23.611962660048526
20
-8.2143301212256006
42
0.0071367925570087927
10
-23.367882410661718
20
-8.8849350949507038
42
0.46197061162620806
10
-21.215809466022016
20
-9.6508770949303102
10
-16.713457268119893
20
-7.0514428414850192
42
-0.41421356237309476
10
-14.664419162443236
20
-7.6004809471616772
10
-13.914419162443236
20
-8.8995190528383308
42
-0.41421356237309465
10
-14.463457268119893
20
-10.948557158514989
10
-18.965809466022023
20
-13.547991411960288
42
0.46197061162620862
10
-19.378520708534058
20
-15.794712252805265
42
0.0071367925570087927
10
-18.919799890077357
20
-16.341394436198794
42
0.46197061162621095
10
-16.635545231994247
20
-16.325092184556688
10
-13.293776971375417
20
-12.342527854346891
42
-0.41421356237309537
10
-11.180528892167139
20
-12.15764260419823
10
-10.031462227488667
20
-13.121824018728038
42
-0.41421356237309509
10
-9.8465769773400105
20
-15.235072097936316
10
-13.188345237958847
20
-19.217636428146111
42
0.46197061162620789
10
-12.807743163064236
20
-21.470018981570131
42
0.0071367925570107382
10
-12.18971027624174
20
-21.826840435145133
42
0.46197061162620812
10
-10.048788728488372
20
-21.030260224024936
10
-8.2706709766303383
20
-16.14492185166359
42
-0.41421356237309481
10
-6.3481018304629719
20
-15.248413135473234
10
-4.9385628992841131
20
-15.761443350461732
42
-0.41421356237309481
10
-4.0420541830937555
20
-17.684012496629101
10
-5.8201719349517873
20
-22.569350868990448
42
0.46197061162621111
10
-4.6921627699711967
20
-24.555724557424419
42
0.0071367925570087927
10
-3.9893617021276615
20
-24.679647347755949
42
0.4619706116262095
10
-2.25
20
-23.198868506890594
10
-2.25
20
-16.5
10
0.74999999999999944
20
-16.500000000000004
42
-0.41421356237309509
10
2.25
20
-18.000000000000004
10
2.2499999999999996
20
-23.198868506890591
42
0.46197061162620923
10
3.9893617021276584
20
-24.679647347755946
42
0.0071367925570068481
10
4.6921627699711701
20
-24.555724557424412
42
0.46197061162621095
10
5.8201719349517695
20
-22.569350868990451
10
4.0420541830937466
20
-17.684012496629109
42
-0.41421356237309498
10
4.9385628992841042
20
-15.761443350461741
10
6.3481018304629631
20
-15.248413135473236
42
-0.41421356237309509
10
8.2706709766303295
20
-16.144921851663597
10
10.048788728488356
20
-21.030260224024939
42
0.46197061162621061
10
12.189710276241723
20
-21.826840435145151
42
0.0071367925570087927
10
12.807743163064218
20
-21.470018981570142
42
0.46197061162621256
10
13.188345237958838
20
-19.217636428146115
10
9.8465769773400087
20
-15.235072097936321
42
-0.41421356237309476
10
10.031462227488666
20
-13.121824018728045
10
11.180528892167134
20
-12.157642604198236
42
-0.41421356237309503
10
13.293776971375408
20
-12.342527854346894
10
16.635545231994236
20
-16.325092184556688
42
0.46197061162620956
10
18.919799890077353
20
-16.341394436198808
42
0.0071367925570107382
10
19.378520708534051
20
-15.794712252805281
42
0.46197061162621295
10
18.965809466022019
20
-13.54799141196029
10
14.463457268119893
20
-10.948557158514991
42
-0.41421356237309509
10
13.914419162443236
20
-8.8995190528383326
10
14.664419162443238
20
-7.6004809471616728
42
-0.41421356237309465
10
16.713457268119896
20
-7.0514428414850165
10
21.215809466022016
20
-9.6508770949303102
42
0.46197061162621011
10
23.367882410661721
20
-8.8849350949506949
42
0.0071367925570078204
10
23.611962660048519
20
-8.2143301212256183
42
0.46197061162621
10
22.455717166946009
20
-6.2442586844337642
10
17.335831154469147
20
-5.341484642282218
42
-0.41421356237309509
10
16.119091791451229
20
-3.6038007462635084
10
16.379564057951626
20
-2.1265891167451967
42
-0.4142135623730947
10
18.117247953970335
20
-0.90984975372728183
10
23.237133966447196
20
-1.8126237958788298
42
0.46197061162620984
10
24.99745343930595
20
-0.3568214535750181
42
0.0071367925570078204
10
24.99745343930595
20
0.35682145357500189
42
0.46197061162621206
10
23.237133966447196
20
1.8126237958788258
10
18.117247953970342
20
0.90984975372727372
42
-0.41421356237309531
10
16.37956405795163
20
2.1265891167451927
10
16.119091791451233
20
3.6038007462635053
42
-0.41421356237309515
10
17.335831154469151
20
5.3414846422822135
10
22.455717166946009
20
6.2442586844337598
42
0.46197061162620723
10
23.61196266004853
20
8.2143301212256112
42
0.0071367925570087927
10
23.367882410661736
20
8.8849350949506896
42
0.46197061162620795
10
21.215809466022023
20
9.6508770949303013
10
16.713457268119896
20
7.0514428414850077
42
-0.41421356237309465
10
14.664419162443243
20
7.6004809471616666
10
13.914419162443242
20
8.8995190528383255
42
-0.41421356237309537
10
14.463457268119901
20
10.948557158514983
0
CIRCLE
5
101
100
AcDbEntity
8
0
100
AcDbCircle
10
0
20
0
30
0
40
1.5000000000000002
210
0
220
-0
230
1
0
CIRCLE
5
102
100
AcDbEntity
8
0
100
AcDbCircle
10
-4.4901280605345741
20
-4.4901280605345768
30
0
40
1.7500000000000002
210
0
220
-0
230
1
0
CIRCLE
5
103
100
AcDbEntity
8
0
100
AcDbCircle
10
-4.4901280605345759
20
4.4901280605345759
30
0
40
1.7500000000000002
210
0
220
-0
230
1
0
CIRCLE
5
104
100
AcDbEntity
8
0
100
AcDbCircle
10
4.4901280605345777
20
4.4901280605345759
30
0
40
1.7500000000000002
210
0
220
-0
230
1
0
CIRCLE
5
105
100
AcDbEntity
8
0
100
AcDbCircle
10
4.4901280605345768
20
-4.490128060534575
30
0
40
1.7500000000000002
210
0
220
-0
230
1
0
LWPOLYLINE
5
106
100
AcDbEntity
8
0
100
AcDbPolyline
90
10
70
1
43
0.0
10
4.7876595788552976
20
7.6762660041280073
42
0.35484634561250106
10
1.433019593787628
20
5.4356902332890735
42
-0.73744122976586757
10
-1.4330195937876256
20
5.4356902332890726
42
0.35484634561250195
10
-4.7876595788553074
20
7.6762660041280188
42
-0.22322865602131223
10
-5.9877876498479745
20
8.1091079934076156
10
-7.2666496474106559
20
9.3879699909702907
42
-0.4893091341242799
10
-6.9719906367862698
20
11.738297647456356
42
-0.27458511286913856
10
6.9719906367862539
20
11.73829764745637
42
-0.48930913412428229
10
7.266649647410647
20
9.3879699909702978
10
5.9877876498479568
20
8.1091079934076067
42
-0.22322865602131128
0
LWPOLYLINE
5
107
100
AcDbEntity
8
0
100
AcDbPolyline
90
10
70
1
43
0.0
10
9.3879699909702943
20
-7.266649647410647
10
8.1091079934076067
20
-5.9877876498479594
42
-0.22322865602131095
10
7.6762660041280046
20
-4.7876595788552994
42
0.35484634561250145
10
5.4356902332890726
20
-1.4330195937876256
42
-0.73744122976586723
10
5.4356902332890735
20
1.4330195937876289
42
0.35484634561250239
10
7.6762660041280197
20
4.7876595788553136
42
-0.22322865602131212
10
8.1091079934076156
20
5.9877876498479798
10
9.3879699909702889
20
7.2666496474106568
42
-0.48930913412428201
10
11.738297647456356
20
6.9719906367862681
42
-0.27458511286913856
10
11.738297647456362
20
-6.9719906367862503
42
-0.48930913412428084
0
LWPOLYLINE
5
108
100
AcDbEntity
8
0
100
AcDbPolyline
90
10
70
1
43
0.0
10
-7.6762660041280073
20
4.7876595788552985
42
0.35484634561250117
10
-5.4356902332890726
20
1.4330195937876289
42
-0.7374412297658679
10
-5.4356902332890726
20
-1.4330195937876256
42
0.35484634561250195
10
-7.6762660041280188
20
-4.78765957885531
42
-0.22322865602131245
10
-8.1091079934076173
20
-5.987787649847979
10
-9.3879699909702907
20
-7.2666496474106514
42
-0.48930913412428234
10
-11.738297647456356
20
-6.971990636786261
42
-0.27458511286913834
10
-11.738297647456367
20
6.9719906367862468
42
-0.48930913412428167
10
-9.3879699909702925
20
7.2666496474106479
10
-8.1091079934076067
20
5.9877876498479594
42
-0.22322865602130953
0
LWPOLYLINE
5
109
100
AcDbEntity
8
0
100
AcDbPolyline
90
10
70
1
43
0.0
10
-4.7876595788553038
20
-7.6762660041280162
42
0.354846345612502
10
-1.4330195937876278
20
-5.43569023328907
42
-0.73744122976586757
10
1.4330195937876273
20
-5.4356902332890726
42
0.35484634561250222
10
4.7876595788553127
20
-7.6762660041280188
42
-0.22322865602131198
10
5.987787649847979
20
-8.1091079934076156
10
7.2666496474106532
20
-9.3879699909702889
42
-0.4893091341242799
10
6.9719906367862645
20
-11.738297647456356
42
-0.27458511286913878
10
-6.9719906367862636
20
-11.738297647456356
42
-0.48930913412428156
10
-7.2666496474106506
20
-9.3879699909702925
10
-5.9877876498479585
20
-8.109107993407612
42
-0.22322865602130931
0
ENDSEC
0
SECTION
2
OBJECTS
0
DICTIONARY
5
C
100
AcDbDictionary
3
ACAD_GROUP
350
D
3
ACAD_MLINESTYLE
350
17
0
DICTIONARY
5
D
100
AcDbDictionary
0
DICTIONARY
5
1A
330
C
100
AcDbDictionary
0
DICTIONARY
5
17
100
AcDbDictionary
0
ENDSEC
0
EOF
