0
SECTION
2
HEADER
9
$INSUNITS
70
4
9
$ACADVER
1
AC1014
9
$HANDSEED
5
FFFF
0
ENDSEC
0
SECTION
2
TABLES
0
TABLE
2
VPORT
5
8
100
AcDbSymbolTable
0
ENDTAB
0
TABLE
2
LTYPE
5
5
100
AcDbSymbolTable
0
LTYPE
5
14
100
AcDbSymbolTableRecord
100
AcDbLinetypeTableRecord
2
BYBLOCK
70
0
0
LTYPE
5
15
100
AcDbSymbolTableRecord
100
AcDbLinetypeTableRecord
2
BYLAYER
70
0
0
ENDTAB
0
TABLE
2
LAYER
5
2
100
AcDbSymbolTable
70
2
0
LAYER
5
50
100
AcDbSymbolTableRecord
100
AcDbLayerTableRecord
2
0
70
0
6
CONTINUOUS
0
ENDTAB
0
TABLE
2
STYLE
5
3
100
AcDbSymbolTable
70
1
0
STYLE
5
11
100
AcDbSymbolTableRecord
100
AcDbTextStyleTableRecord
2
STANDARD
70
0
0
ENDTAB
0
TABLE
2
VIEW
5
6
100
AcDbSymbolTable
70
0
0
ENDTAB
0
TABLE
2
UCS
5
7
100
AcDbSymbolTable
70
0
0
ENDTAB
0
TABLE
2
APPID
5
9
100
AcDbSymbolTable
70
2
0
APPID
5
12
100
AcDbSymbolTableRecord
100
AcDbRegAppTableRecord
2
ACAD
70
0
0
ENDTAB
0
TABLE
2
DIMSTYLE
5
A
100
AcDbSymbolTable
70
1
0
ENDTAB
0
TABLE
2
BLOCK_RECORD
5
1
100
AcDbSymbolTable
70
1
0
BLOCK_RECORD
5
1F
100
AcDbSymbolTableRecord
100
AcDbBlockTableRecord
2
*MODEL_SPACE
0
BLOCK_RECORD
5
1B
100
AcDbSymbolTableRecord
100
AcDbBlockTableRecord
2
*PAPER_SPACE
0
ENDTAB
0
ENDSEC
0
SECTION
2
BLOCKS
0
BLOCK
5
20
100
AcDbEntity
100
AcDbBlockBegin
2
*MODEL_SPACE
0
ENDBLK
5
21
100
AcDbEntity
100
AcDbBlockEnd
0
BLOCK
5
1C
100
AcDbEntity
100
AcDbBlockBegin
2
*PAPER_SPACE
0
ENDBLK
5
1D
100
AcDbEntity
100
AcDbBlockEnd
0
ENDSEC
0
SECTION
2
ENTITIES
0
LWPOLYLINE
5
100
100
AcDbEntity
8
0
100
AcDbPolyline
90
32
70
1
43
0.0
10
8.9125647388747513
20
-40.503077358486443
10
19.560660171779787
20
-29.854981925581406
42
0.19891236737965851
10
19.999999999999964
20
-28.794321753801583
10
19.999999999999961
20
-20.915642097361232
42
-0.41421356237309337
10
21.499999999999964
20
-19.415642097361228
10
28.499999999999964
20
-19.415642097361228
42
0.41421356237309853
10
29.999999999999964
20
-17.915642097361232
10
29.999999999999964
20
17.915642097361214
42
0.41421356237309853
10
28.499999999999964
20
19.415642097361211
10
21.499999999999964
20
19.415642097361214
42
-0.41421356237309764
10
19.999999999999961
20
20.915642097361214
10
19.999999999999968
20
28.794321753801569
42
0.19891236737965801
10
19.560660171779784
20
29.854981925581392
10
8.9125647388747424
20
40.503077358486436
42
0.41421356237309492
10
4.3870813392808392
20
40.503077358486436
10
-1.869112305534161
20
34.246883713671437
42
-0.11948825057138067
10
-2.4726123494346393
20
33.878906556568467
42
0.24243789412066546
10
-4.5450970449086556
20
31.806421861094456
42
-0.11948825057139498
10
-4.9130742020116198
20
31.202921817193975
10
-5.9366772381787651
20
30.179318781026829
42
-0.41421356237307977
10
-8.0579975817383627
20
30.179318781026787
10
-10.533121452326426
20
32.654442651614644
42
0.55562656863218896
10
-18.802768639191374
20
30.727688234393561
42
0.16527232037283365
10
-18.802768639191385
20
-30.727688234393561
42
0.55562656863218896
10
-10.533121452326426
20
-32.654442651614644
10
-8.0579975817383627
20
-30.179318781026787
42
-0.41421356237307977
10
-5.9366772381787651
20
-30.179318781026829
10
-4.9130742020116207
20
-31.202921817193975
42
-0.11948825057139498
10
-4.5450970449086565
20
-31.806421861094456
42
0.24243789412066546
10
-2.4726123494346393
20
-33.878906556568467
42
-0.11948825057138067
10
-1.8691123055341607
20
-34.246883713671437
10
4.3870813392808481
20
-40.503077358486443
42
0.41421356237309481
0
CIRCLE
5
101
100
AcDbEntity
8
0
100
AcDbCircle
10
-1.4973374099587105
20
-30.831146921618526
30
-4.8659328125300743e-38
40
1.6000000000000005
210
0
220
0
230
1
0
CIRCLE
5
102
100
AcDbEntity
8
0
100
AcDbCircle
10
-1.4973374099587105
20
30.831146921618526
30
-4.8659328125300743e-38
40
1.6000000000000005
210
0
220
0
230
1
0
CIRCLE
5
103
100
AcDbEntity
8
0
100
AcDbCircle
10
6.6498230390778001
20
-38.240335658689489
30
0
40
1.6000000000000014
210
0
220
0
230
1
0
CIRCLE
5
104
100
AcDbEntity
8
0
100
AcDbCircle
10
6.6498230390777913
20
38.240335658689482
30
0
40
1.600000000000001
210
0
220
0
230
1
0
ENDSEC
0
SECTION
2
OBJECTS
0
DICTIONARY
5
C
100
AcDbDictionary
3
ACAD_GROUP
350
D
3
ACAD_MLINESTYLE
350
17
0
DICTIONARY
5
D
100
AcDbDictionary
0
DICTIONARY
5
1A
330
C
100
AcDbDictionary
0
DICTIONARY
5
17
100
AcDbDictionary
0
ENDSEC
0
EOF
