%TF.GenerationSoftware,KiCad,Pcbnew,8.0.1*%
%TF.CreationDate,2024-08-04T00:00:00+09:00*%
%TF.ProjectId,UI-20240325,55492d32-3032-4343-9033-32352e6b6963,rev?*%
%TF.SameCoordinates,Original*%
%TF.FileFunction,Copper,L1,Top*%
%TF.FilePolarity,Positive*%
%FSLAX46Y46*%
G04 Gerber Fmt 4.6, Leading zero omitted, Abs format (unit mm)*
G04 Created by KiCad (PCBNEW 8.0.1) date 2024-08-04 00:00:00*
%MOMM*%
%LPD*%
G01*
G04 APERTURE LIST*
G04 Aperture macros list*
%AMRoundRect*
0 Rectangle with rounded corners*
0 $1 Rounding radius*
0 $2 $3 $4 $5 $6 $7 $8 $9 X,Y pos of 4 corners*
0 Add a 4 corners polygon primitive as box body*
4,1,4,$2,$3,$4,$5,$6,$7,$8,$9,$2,$3,0*
0 Add four circle primitives for the rounded corners*
1,1,$1+$1,$2,$3*
1,1,$1+$1,$4,$5*
1,1,$1+$1,$6,$7*
1,1,$1+$1,$8,$9*
0 Add four rect primitives between the rounded corners*
20,1,$1+$1,$2,$3,$4,$5,0*
20,1,$1+$1,$4,$5,$6,$7,0*
20,1,$1+$1,$6,$7,$8,$9,0*
20,1,$1+$1,$8,$9,$2,$3,0*%
G04 Aperture macros list end*
%TA.AperFunction,ComponentPad*%
%ADD10O,2.000000X2.700000*%
%TD*%
%TA.AperFunction,ComponentPad*%
%ADD11C,1.800000*%
%TD*%
%TA.AperFunction,ComponentPad*%
%ADD12R,1.800000X1.800000*%
%TD*%
%TA.AperFunction,ComponentPad*%
%ADD13O,1.700000X1.950000*%
%TD*%
%TA.AperFunction,ComponentPad*%
%ADD14RoundRect,0.250000X0.600000X0.725000X-0.600000X0.725000X-0.600000X-0.725000X0.600000X-0.725000X0*%
%TD*%
%TA.AperFunction,ComponentPad*%
%ADD15C,1.500000*%
%TD*%
%TA.AperFunction,Conductor*%
%ADD16C,1.250000*%
%TD*%
%TA.AperFunction,Conductor*%
%ADD17C,0.500000*%
%TD*%
G04 APERTURE END LIST*
D10*
%TO.P,SW5,2,2*%
%TO.N,+3.3V*%
X16250000Y-21000000D03*
%TO.P,SW5,1,1*%
%TO.N,Net-(R10-Pad2)*%
X22750000Y-21000000D03*
%TD*%
%TO.P,SW4,2,2*%
%TO.N,+3.3V*%
X16250000Y-16000000D03*
%TO.P,SW4,1,1*%
%TO.N,Net-(R4-Pad2)*%
X22750000Y-16000000D03*
%TD*%
%TO.P,SW3,2,2*%
%TO.N,+3.3V*%
X16250000Y-11000000D03*
%TO.P,SW3,1,1*%
%TO.N,Net-(R3-Pad2)*%
X22750000Y-11000000D03*
%TD*%
D11*
%TO.P,U1,4,SDA*%
%TO.N,SDA*%
X3810000Y-3739997D03*
%TO.P,U1,3,SCL*%
%TO.N,SCL*%
X1270000Y-3739997D03*
%TO.P,U1,2,VCC*%
%TO.N,+3.3V*%
X-1270000Y-3739997D03*
D12*
%TO.P,U1,1,GND*%
%TO.N,GND*%
X-3810000Y-3739997D03*
%TD*%
D10*
%TO.P,SW2,2,2*%
%TO.N,+3.3V*%
X-16250000Y-21000000D03*
%TO.P,SW2,1,1*%
%TO.N,Net-(R2-Pad2)*%
X-22750000Y-21000000D03*
%TD*%
%TO.P,SW1,2,2*%
%TO.N,+3.3V*%
X-16250000Y-11000000D03*
%TO.P,SW1,1,1*%
%TO.N,Net-(R1-Pad2)*%
X-22750000Y-11000000D03*
%TD*%
D13*
%TO.P,J1,10,Pin_10*%
%TO.N,+3.3V*%
X-11250000Y-9214997D03*
%TO.P,J1,9,Pin_9*%
%TO.N,GND*%
X-8750000Y-9214997D03*
%TO.P,J1,8,Pin_8*%
%TO.N,SW-TAC-1*%
X-6250000Y-9214997D03*
%TO.P,J1,7,Pin_7*%
%TO.N,SW-TAC-2*%
X-3750000Y-9214997D03*
%TO.P,J1,6,Pin_6*%
%TO.N,SW-TAC-5*%
X-1250000Y-9214997D03*
%TO.P,J1,5,Pin_5*%
%TO.N,SW-TAC-4*%
X1250000Y-9214997D03*
%TO.P,J1,4,Pin_4*%
%TO.N,SW-TAC-3*%
X3750000Y-9214997D03*
%TO.P,J1,3,Pin_3*%
%TO.N,SDA*%
X6250000Y-9214997D03*
%TO.P,J1,2,Pin_2*%
%TO.N,SCL*%
X8750000Y-9214997D03*
D14*
%TO.P,J1,1,Pin_1*%
%TO.N,BUZZER*%
X11250000Y-9214997D03*
%TD*%
D15*
%TO.P,BZ1,2,-*%
%TO.N,GND*%
X-2500000Y-20739997D03*
%TO.P,BZ1,1,+*%
%TO.N,BUZZER*%
X2500000Y-20739997D03*
%TD*%
D16*
%TO.N,+3.3V*%
X-14464997Y-9214997D02*
X-16250000Y-11000000D01*
D17*
%TO.N,SCL*%
X4859594Y-2239997D02*
X2770000Y-2239997D01*
%TO.N,BUZZER*%
X11250000Y-9214997D02*
X11250000Y-11989997D01*
X11250000Y-11989997D02*
X2500000Y-20739997D01*
D16*
%TO.N,+3.3V*%
X16250000Y-11000000D02*
X16250000Y-16000000D01*
X-16250000Y-11000000D02*
X-16250000Y-21000000D01*
X-11250000Y-9214997D02*
X-14464997Y-9214997D01*
X16250000Y-16000000D02*
X16250000Y-21000000D01*
D17*
%TO.N,SDA*%
X3810000Y-3739997D02*
X6250000Y-6179997D01*
X6250000Y-6179997D02*
X6250000Y-9214997D01*
%TO.N,SCL*%
X8750000Y-9214997D02*
X8750000Y-6130403D01*
X8750000Y-6130403D02*
X4859594Y-2239997D01*
X2770000Y-2239997D02*
X1270000Y-3739997D01*
%TD*%
%TA.AperFunction,Conductor*%
%TO.N,GND*%
G36*
X29560855Y-12D02*
G01*
X29564854Y-68D01*
X29733491Y-2431D01*
X29745613Y-3198D01*
X30071376Y-39902D01*
X30089519Y-41947D01*
X30103227Y-44276D01*
X30439777Y-121091D01*
X30453139Y-124940D01*
X30778982Y-238957D01*
X30791824Y-244276D01*
X31102675Y-393975D01*
X31102845Y-394057D01*
X31115015Y-400783D01*
X31407311Y-584444D01*
X31418652Y-592491D01*
X31688547Y-807725D01*
X31698915Y-816991D01*
X31943008Y-1061084D01*
X31952274Y-1071452D01*
X32167508Y-1341347D01*
X32175555Y-1352688D01*
X32359216Y-1644984D01*
X32365942Y-1657154D01*
X32515720Y-1968169D01*
X32521042Y-1981017D01*
X32635059Y-2306860D01*
X32638908Y-2320222D01*
X32715723Y-2656772D01*
X32718052Y-2670480D01*
X32756703Y-3013510D01*
X32757483Y-3027394D01*
X32757483Y-3372605D01*
X32756703Y-3386489D01*
X32718052Y-3729519D01*
X32715723Y-3743227D01*
X32638908Y-4079777D01*
X32635059Y-4093139D01*
X32521042Y-4418982D01*
X32515720Y-4431830D01*
X32365942Y-4742845D01*
X32359216Y-4755015D01*
X32175555Y-5047311D01*
X32167508Y-5058652D01*
X31952274Y-5328547D01*
X31943008Y-5338915D01*
X31698915Y-5583008D01*
X31688547Y-5592274D01*
X31418652Y-5807508D01*
X31407311Y-5815555D01*
X31115015Y-5999216D01*
X31102845Y-6005942D01*
X30791830Y-6155720D01*
X30778982Y-6161042D01*
X30453139Y-6275059D01*
X30439777Y-6278908D01*
X30103227Y-6355723D01*
X30089519Y-6358052D01*
X29745625Y-6396800D01*
X29733479Y-6397568D01*
X29560856Y-6399988D01*
X29559118Y-6400000D01*
X28860007Y-6400000D01*
X28696316Y-6402561D01*
X28696314Y-6402561D01*
X28696303Y-6402562D01*
X28371737Y-6445291D01*
X28371727Y-6445293D01*
X28138837Y-6507696D01*
X28055507Y-6530024D01*
X28055505Y-6530024D01*
X28055504Y-6530025D01*
X28055491Y-6530029D01*
X27753056Y-6655301D01*
X27753041Y-6655308D01*
X27469524Y-6818996D01*
X27209795Y-7018293D01*
X27209788Y-7018299D01*
X26978304Y-7249783D01*
X26978300Y-7249787D01*
X26978299Y-7249789D01*
X26779002Y-7509517D01*
X26778996Y-7509525D01*
X26615313Y-7793031D01*
X26615305Y-7793048D01*
X26490026Y-8095500D01*
X26405292Y-8411731D01*
X26362561Y-8736300D01*
X26362561Y-8736305D01*
X26360007Y-8900006D01*
X26360007Y-25143393D01*
X26359992Y-25145350D01*
X26357529Y-25301396D01*
X26356477Y-25315670D01*
X26315508Y-25625970D01*
X26312326Y-25641922D01*
X26231343Y-25943252D01*
X26226099Y-25958651D01*
X26106374Y-26246771D01*
X26099161Y-26261351D01*
X25942740Y-26531339D01*
X25933679Y-26544849D01*
X25743272Y-26792025D01*
X25732522Y-26804233D01*
X25511393Y-27024363D01*
X25499136Y-27035058D01*
X25251096Y-27224346D01*
X25237545Y-27233345D01*
X24966863Y-27388534D01*
X24952251Y-27395682D01*
X24662666Y-27514479D01*
X24649135Y-27519137D01*
X24499088Y-27561283D01*
X24496890Y-27561879D01*
X23540308Y-27811712D01*
X23538136Y-27812258D01*
X21614281Y-28277755D01*
X21611787Y-28278331D01*
X19678906Y-28703980D01*
X19676400Y-28704505D01*
X17735127Y-29090167D01*
X17732612Y-29090640D01*
X15783782Y-29436152D01*
X15781257Y-29436573D01*
X13825680Y-29741787D01*
X13823147Y-29742155D01*
X11861782Y-30006925D01*
X11859241Y-30007242D01*
X9892703Y-30231483D01*
X9890157Y-30231746D01*
X7919505Y-30415338D01*
X7916954Y-30415549D01*
X5942938Y-30558424D01*
X5940384Y-30558583D01*
X3963789Y-30660682D01*
X3961231Y-30660788D01*
X1982908Y-30722066D01*
X1980349Y-30722118D01*
X1280Y-30742546D01*
X-1280Y-30742546D01*
X-1980349Y-30722118D01*
X-1982908Y-30722066D01*
X-3961231Y-30660788D01*
X-3963789Y-30660682D01*
X-5940384Y-30558583D01*
X-5942938Y-30558424D01*
X-7916954Y-30415549D01*
X-7919505Y-30415338D01*
X-9890157Y-30231746D01*
X-9892703Y-30231483D01*
X-11859241Y-30007242D01*
X-11861782Y-30006925D01*
X-13823147Y-29742155D01*
X-13825680Y-29741787D01*
X-15781257Y-29436573D01*
X-15783782Y-29436152D01*
X-17732612Y-29090640D01*
X-17735127Y-29090167D01*
X-19676400Y-28704505D01*
X-19678906Y-28703980D01*
X-21611787Y-28278331D01*
X-21614281Y-28277755D01*
X-23538136Y-27812258D01*
X-23540308Y-27811712D01*
X-24496875Y-27561883D01*
X-24499074Y-27561287D01*
X-24649143Y-27519133D01*
X-24662676Y-27514473D01*
X-24952253Y-27395668D01*
X-24966865Y-27388520D01*
X-25237548Y-27233319D01*
X-25251099Y-27224320D01*
X-25499143Y-27035017D01*
X-25511399Y-27024321D01*
X-25732528Y-26804180D01*
X-25743278Y-26791973D01*
X-25933684Y-26544786D01*
X-25942744Y-26531275D01*
X-26099157Y-26261285D01*
X-26106370Y-26246706D01*
X-26226096Y-25958565D01*
X-26231339Y-25943166D01*
X-26312317Y-25641835D01*
X-26315499Y-25625883D01*
X-26356463Y-25315576D01*
X-26357515Y-25301302D01*
X-26359976Y-25145251D01*
X-26359991Y-25143296D01*
X-26359994Y-21475962D01*
X-24350500Y-21475962D01*
X-24311090Y-21724785D01*
X-24233241Y-21964379D01*
X-24118870Y-22188845D01*
X-23970793Y-22392656D01*
X-23792656Y-22570793D01*
X-23588845Y-22718870D01*
X-23364379Y-22833241D01*
X-23124785Y-22911090D01*
X-22875962Y-22950500D01*
X-22875961Y-22950500D01*
X-22624039Y-22950500D01*
X-22624038Y-22950500D01*
X-22375215Y-22911090D01*
X-22135621Y-22833241D01*
X-22135618Y-22833239D01*
X-22135616Y-22833239D01*
X-22054184Y-22791747D01*
X-21911155Y-22718870D01*
X-21885117Y-22699952D01*
X-21707350Y-22570798D01*
X-21707345Y-22570794D01*
X-21529205Y-22392654D01*
X-21529201Y-22392649D01*
X-21381132Y-22188848D01*
X-21266760Y-21964383D01*
X-21188910Y-21724785D01*
X-21149500Y-21475962D01*
X-17850500Y-21475962D01*
X-17811090Y-21724785D01*
X-17733241Y-21964379D01*
X-17618870Y-22188845D01*
X-17470793Y-22392656D01*
X-17292656Y-22570793D01*
X-17088845Y-22718870D01*
X-16864379Y-22833241D01*
X-16624785Y-22911090D01*
X-16375962Y-22950500D01*
X-16375961Y-22950500D01*
X-16124039Y-22950500D01*
X-16124038Y-22950500D01*
X-15875215Y-22911090D01*
X-15635621Y-22833241D01*
X-15635618Y-22833239D01*
X-15635616Y-22833239D01*
X-15554184Y-22791747D01*
X-15411155Y-22718870D01*
X-15385117Y-22699952D01*
X-15207350Y-22570798D01*
X-15207345Y-22570794D01*
X-15029205Y-22392654D01*
X-15029201Y-22392649D01*
X-14881132Y-22188848D01*
X-14766760Y-21964383D01*
X-14688910Y-21724785D01*
X-14649500Y-21475961D01*
X-14649500Y-20524038D01*
X-14688910Y-20275214D01*
X-14766760Y-20035616D01*
X-14881132Y-19811151D01*
X-15000818Y-19646417D01*
X-15024298Y-19580611D01*
X-15024500Y-19573532D01*
X-15024500Y-12426466D01*
X-15004815Y-12359427D01*
X-15000835Y-12353605D01*
X-14881130Y-12188845D01*
X-14822495Y-12073768D01*
X-14766760Y-11964383D01*
X-14688910Y-11724785D01*
X-14649500Y-11475961D01*
X-14649500Y-11183981D01*
X-14629815Y-11116942D01*
X-14613181Y-11096300D01*
X-13993697Y-10476816D01*
X-13932374Y-10443331D01*
X-13906016Y-10440497D01*
X-12243319Y-10440497D01*
X-12176280Y-10460182D01*
X-12170440Y-10464173D01*
X-12010228Y-10580576D01*
X-11806799Y-10684228D01*
X-11589660Y-10754781D01*
X-11364162Y-10790497D01*
X-11364157Y-10790497D01*
X-11135838Y-10790497D01*
X-10910339Y-10754781D01*
X-10809592Y-10722046D01*
X-10693201Y-10684228D01*
X-10693198Y-10684226D01*
X-10693196Y-10684226D01*
X-10585884Y-10629547D01*
X-10489772Y-10580576D01*
X-10305063Y-10446376D01*
X-10143621Y-10284934D01*
X-10009421Y-10100225D01*
X-9986628Y-10055492D01*
X-9905770Y-9896800D01*
X-9835215Y-9679657D01*
X-9799500Y-9454159D01*
X-7700500Y-9454159D01*
X-7664784Y-9679657D01*
X-7594231Y-9896796D01*
X-7490579Y-10100225D01*
X-7356379Y-10284934D01*
X-7194937Y-10446376D01*
X-7010228Y-10580576D01*
X-6806799Y-10684228D01*
X-6589660Y-10754781D01*
X-6364162Y-10790497D01*
X-6364157Y-10790497D01*
X-6135838Y-10790497D01*
X-5910339Y-10754781D01*
X-5809592Y-10722046D01*
X-5693201Y-10684228D01*
X-5693198Y-10684226D01*
X-5693196Y-10684226D01*
X-5585884Y-10629547D01*
X-5489772Y-10580576D01*
X-5305063Y-10446376D01*
X-5143621Y-10284934D01*
X-5100316Y-10225330D01*
X-5044988Y-10182667D01*
X-4975374Y-10176688D01*
X-4913579Y-10209294D01*
X-4899686Y-10225326D01*
X-4856379Y-10284934D01*
X-4694937Y-10446376D01*
X-4510228Y-10580576D01*
X-4306799Y-10684228D01*
X-4089660Y-10754781D01*
X-3864162Y-10790497D01*
X-3864157Y-10790497D01*
X-3635838Y-10790497D01*
X-3410339Y-10754781D01*
X-3309592Y-10722046D01*
X-3193201Y-10684228D01*
X-3193198Y-10684226D01*
X-3193196Y-10684226D01*
X-3085884Y-10629547D01*
X-2989772Y-10580576D01*
X-2805063Y-10446376D01*
X-2643621Y-10284934D01*
X-2600316Y-10225330D01*
X-2544988Y-10182667D01*
X-2475374Y-10176688D01*
X-2413579Y-10209294D01*
X-2399686Y-10225326D01*
X-2356379Y-10284934D01*
X-2194937Y-10446376D01*
X-2010228Y-10580576D01*
X-1806799Y-10684228D01*
X-1589660Y-10754781D01*
X-1364162Y-10790497D01*
X-1364157Y-10790497D01*
X-1135838Y-10790497D01*
X-910339Y-10754781D01*
X-809592Y-10722046D01*
X-693201Y-10684228D01*
X-693198Y-10684226D01*
X-693196Y-10684226D01*
X-585884Y-10629547D01*
X-489772Y-10580576D01*
X-305063Y-10446376D01*
X-143621Y-10284934D01*
X-100316Y-10225330D01*
X-44988Y-10182667D01*
X24626Y-10176688D01*
X86421Y-10209294D01*
X100313Y-10225326D01*
X143621Y-10284934D01*
X305063Y-10446376D01*
X489772Y-10580576D01*
X585884Y-10629547D01*
X693196Y-10684226D01*
X693198Y-10684226D01*
X693201Y-10684228D01*
X809592Y-10722046D01*
X910339Y-10754781D01*
X1135838Y-10790497D01*
X1135843Y-10790497D01*
X1364162Y-10790497D01*
X1589660Y-10754781D01*
X1806799Y-10684228D01*
X2010228Y-10580576D01*
X2194937Y-10446376D01*
X2356379Y-10284934D01*
X2399683Y-10225330D01*
X2455012Y-10182667D01*
X2524626Y-10176688D01*
X2586421Y-10209294D01*
X2600313Y-10225326D01*
X2643621Y-10284934D01*
X2805063Y-10446376D01*
X2989772Y-10580576D01*
X3085884Y-10629547D01*
X3193196Y-10684226D01*
X3193198Y-10684226D01*
X3193201Y-10684228D01*
X3309592Y-10722046D01*
X3410339Y-10754781D01*
X3635838Y-10790497D01*
X3635843Y-10790497D01*
X3864162Y-10790497D01*
X4089660Y-10754781D01*
X4306799Y-10684228D01*
X4510228Y-10580576D01*
X4694937Y-10446376D01*
X4856379Y-10284934D01*
X4899683Y-10225330D01*
X4955012Y-10182667D01*
X5024626Y-10176688D01*
X5086421Y-10209294D01*
X5100313Y-10225326D01*
X5143621Y-10284934D01*
X5305063Y-10446376D01*
X5489772Y-10580576D01*
X5585884Y-10629547D01*
X5693196Y-10684226D01*
X5693198Y-10684226D01*
X5693201Y-10684228D01*
X5809592Y-10722046D01*
X5910339Y-10754781D01*
X6135838Y-10790497D01*
X6135843Y-10790497D01*
X6364162Y-10790497D01*
X6589660Y-10754781D01*
X6806799Y-10684228D01*
X7010228Y-10580576D01*
X7194937Y-10446376D01*
X7356379Y-10284934D01*
X7399683Y-10225330D01*
X7455012Y-10182667D01*
X7524626Y-10176688D01*
X7586421Y-10209294D01*
X7600313Y-10225326D01*
X7643621Y-10284934D01*
X7805063Y-10446376D01*
X7989772Y-10580576D01*
X8085884Y-10629547D01*
X8193196Y-10684226D01*
X8193198Y-10684226D01*
X8193201Y-10684228D01*
X8309592Y-10722046D01*
X8410339Y-10754781D01*
X8635838Y-10790497D01*
X8635843Y-10790497D01*
X8864162Y-10790497D01*
X9089660Y-10754781D01*
X9306799Y-10684228D01*
X9510228Y-10580576D01*
X9694937Y-10446376D01*
X9747382Y-10393930D01*
X9808703Y-10360446D01*
X9878395Y-10365430D01*
X9931709Y-10403924D01*
X10045059Y-10544937D01*
X10089395Y-10580575D01*
X10189247Y-10660839D01*
X10189248Y-10660839D01*
X10189249Y-10660840D01*
X10330594Y-10730941D01*
X10381907Y-10778362D01*
X10399500Y-10842029D01*
X10399500Y-11586345D01*
X10379815Y-11653384D01*
X10363181Y-11674026D01*
X2681457Y-19355749D01*
X2620134Y-19389234D01*
X2582970Y-19391596D01*
X2500003Y-19384338D01*
X2499999Y-19384338D01*
X2264596Y-19404933D01*
X2264586Y-19404935D01*
X2036344Y-19466091D01*
X2036335Y-19466095D01*
X1822171Y-19565961D01*
X1822169Y-19565962D01*
X1628597Y-19701502D01*
X1461505Y-19868594D01*
X1325965Y-20062166D01*
X1325964Y-20062168D01*
X1226098Y-20276332D01*
X1226094Y-20276341D01*
X1164938Y-20504583D01*
X1164936Y-20504593D01*
X1144341Y-20739996D01*
X1144341Y-20739997D01*
X1164936Y-20975400D01*
X1164938Y-20975410D01*
X1226094Y-21203652D01*
X1226096Y-21203656D01*
X1226097Y-21203660D01*
X1325965Y-21417827D01*
X1325967Y-21417831D01*
X1434281Y-21572518D01*
X1461505Y-21611398D01*
X1628599Y-21778492D01*
X1725384Y-21846262D01*
X1822165Y-21914029D01*
X1822167Y-21914030D01*
X1822170Y-21914032D01*
X2036337Y-22013900D01*
X2264592Y-22075060D01*
X2452918Y-22091536D01*
X2499999Y-22095656D01*
X2500000Y-22095656D01*
X2500001Y-22095656D01*
X2539234Y-22092223D01*
X2735408Y-22075060D01*
X2963663Y-22013900D01*
X3177830Y-21914032D01*
X3371401Y-21778492D01*
X3538495Y-21611398D01*
X3633329Y-21475961D01*
X14649500Y-21475961D01*
X14688910Y-21724785D01*
X14766760Y-21964383D01*
X14881132Y-22188848D01*
X15029201Y-22392649D01*
X15029205Y-22392654D01*
X15207345Y-22570794D01*
X15207350Y-22570798D01*
X15385117Y-22699952D01*
X15411155Y-22718870D01*
X15554184Y-22791747D01*
X15635616Y-22833239D01*
X15635618Y-22833239D01*
X15635621Y-22833241D01*
X15875215Y-22911090D01*
X16124038Y-22950500D01*
X16124039Y-22950500D01*
X16375961Y-22950500D01*
X16375962Y-22950500D01*
X16624785Y-22911090D01*
X16864379Y-22833241D01*
X17088845Y-22718870D01*
X17292656Y-22570793D01*
X17470793Y-22392656D01*
X17618870Y-22188845D01*
X17733241Y-21964379D01*
X17811090Y-21724785D01*
X17850500Y-21475962D01*
X17850500Y-21475961D01*
X21149500Y-21475961D01*
X21188910Y-21724785D01*
X21266760Y-21964383D01*
X21381132Y-22188848D01*
X21529201Y-22392649D01*
X21529205Y-22392654D01*
X21707345Y-22570794D01*
X21707350Y-22570798D01*
X21885117Y-22699952D01*
X21911155Y-22718870D01*
X22054184Y-22791747D01*
X22135616Y-22833239D01*
X22135618Y-22833239D01*
X22135621Y-22833241D01*
X22375215Y-22911090D01*
X22624038Y-22950500D01*
X22624039Y-22950500D01*
X22875961Y-22950500D01*
X22875962Y-22950500D01*
X23124785Y-22911090D01*
X23364379Y-22833241D01*
X23588845Y-22718870D01*
X23792656Y-22570793D01*
X23970793Y-22392656D01*
X24118870Y-22188845D01*
X24233241Y-21964379D01*
X24311090Y-21724785D01*
X24350500Y-21475962D01*
X24350500Y-20524038D01*
X24311090Y-20275215D01*
X24233241Y-20035621D01*
X24233239Y-20035618D01*
X24233239Y-20035616D01*
X24191747Y-19954184D01*
X24118870Y-19811155D01*
X24039203Y-19701502D01*
X23970798Y-19607350D01*
X23970794Y-19607345D01*
X23792654Y-19429205D01*
X23792649Y-19429201D01*
X23588848Y-19281132D01*
X23588847Y-19281131D01*
X23588845Y-19281130D01*
X23518747Y-19245413D01*
X23364383Y-19166760D01*
X23124785Y-19088910D01*
X22875962Y-19049500D01*
X22624038Y-19049500D01*
X22499626Y-19069205D01*
X22375214Y-19088910D01*
X22135616Y-19166760D01*
X21911151Y-19281132D01*
X21707350Y-19429201D01*
X21707345Y-19429205D01*
X21529205Y-19607345D01*
X21529201Y-19607350D01*
X21381132Y-19811151D01*
X21266760Y-20035616D01*
X21188910Y-20275214D01*
X21149500Y-20524038D01*
X21149500Y-21475961D01*
X17850500Y-21475961D01*
X17850500Y-20524038D01*
X17811090Y-20275215D01*
X17733241Y-20035621D01*
X17733239Y-20035618D01*
X17733239Y-20035616D01*
X17691747Y-19954184D01*
X17618870Y-19811155D01*
X17499182Y-19646417D01*
X17475702Y-19580611D01*
X17475500Y-19573532D01*
X17475500Y-17426466D01*
X17495185Y-17359427D01*
X17499164Y-17353605D01*
X17618870Y-17188845D01*
X17733241Y-16964379D01*
X17811090Y-16724785D01*
X17850500Y-16475962D01*
X17850500Y-16475961D01*
X21149500Y-16475961D01*
X21188910Y-16724785D01*
X21266760Y-16964383D01*
X21381132Y-17188848D01*
X21529201Y-17392649D01*
X21529205Y-17392654D01*
X21707345Y-17570794D01*
X21707350Y-17570798D01*
X21885117Y-17699952D01*
X21911155Y-17718870D01*
X22054184Y-17791747D01*
X22135616Y-17833239D01*
X22135618Y-17833239D01*
X22135621Y-17833241D01*
X22375215Y-17911090D01*
X22624038Y-17950500D01*
X22624039Y-17950500D01*
X22875961Y-17950500D01*
X22875962Y-17950500D01*
X23124785Y-17911090D01*
X23364379Y-17833241D01*
X23588845Y-17718870D01*
X23792656Y-17570793D01*
X23970793Y-17392656D01*
X24118870Y-17188845D01*
X24233241Y-16964379D01*
X24311090Y-16724785D01*
X24350500Y-16475962D01*
X24350500Y-15524038D01*
X24311090Y-15275215D01*
X24233241Y-15035621D01*
X24233239Y-15035618D01*
X24233239Y-15035616D01*
X24191747Y-14954184D01*
X24118870Y-14811155D01*
X24099952Y-14785117D01*
X23970798Y-14607350D01*
X23970794Y-14607345D01*
X23792654Y-14429205D01*
X23792649Y-14429201D01*
X23588848Y-14281132D01*
X23588847Y-14281131D01*
X23588845Y-14281130D01*
X23518747Y-14245413D01*
X23364383Y-14166760D01*
X23124785Y-14088910D01*
X22875962Y-14049500D01*
X22624038Y-14049500D01*
X22499626Y-14069205D01*
X22375214Y-14088910D01*
X22135616Y-14166760D01*
X21911151Y-14281132D01*
X21707350Y-14429201D01*
X21707345Y-14429205D01*
X21529205Y-14607345D01*
X21529201Y-14607350D01*
X21381132Y-14811151D01*
X21266760Y-15035616D01*
X21188910Y-15275214D01*
X21149500Y-15524038D01*
X21149500Y-16475961D01*
X17850500Y-16475961D01*
X17850500Y-15524038D01*
X17811090Y-15275215D01*
X17733241Y-15035621D01*
X17733239Y-15035618D01*
X17733239Y-15035616D01*
X17691747Y-14954184D01*
X17618870Y-14811155D01*
X17499182Y-14646417D01*
X17475702Y-14580611D01*
X17475500Y-14573532D01*
X17475500Y-12426466D01*
X17495185Y-12359427D01*
X17499164Y-12353605D01*
X17618870Y-12188845D01*
X17733241Y-11964379D01*
X17811090Y-11724785D01*
X17850500Y-11475962D01*
X17850500Y-11475961D01*
X21149500Y-11475961D01*
X21188910Y-11724785D01*
X21266760Y-11964383D01*
X21381132Y-12188848D01*
X21529201Y-12392649D01*
X21529205Y-12392654D01*
X21707345Y-12570794D01*
X21707350Y-12570798D01*
X21885117Y-12699952D01*
X21911155Y-12718870D01*
X22054184Y-12791747D01*
X22135616Y-12833239D01*
X22135618Y-12833239D01*
X22135621Y-12833241D01*
X22375215Y-12911090D01*
X22624038Y-12950500D01*
X22624039Y-12950500D01*
X22875961Y-12950500D01*
X22875962Y-12950500D01*
X23124785Y-12911090D01*
X23364379Y-12833241D01*
X23588845Y-12718870D01*
X23792656Y-12570793D01*
X23970793Y-12392656D01*
X24118870Y-12188845D01*
X24233241Y-11964379D01*
X24311090Y-11724785D01*
X24350500Y-11475962D01*
X24350500Y-10524038D01*
X24311090Y-10275215D01*
X24233241Y-10035621D01*
X24233239Y-10035618D01*
X24233239Y-10035616D01*
X24162506Y-9896796D01*
X24118870Y-9811155D01*
X24099952Y-9785117D01*
X23970798Y-9607350D01*
X23970794Y-9607345D01*
X23792654Y-9429205D01*
X23792649Y-9429201D01*
X23588848Y-9281132D01*
X23588847Y-9281131D01*
X23588845Y-9281130D01*
X23518747Y-9245413D01*
X23364383Y-9166760D01*
X23124785Y-9088910D01*
X22875962Y-9049500D01*
X22624038Y-9049500D01*
X22545123Y-9061999D01*
X22375214Y-9088910D01*
X22135616Y-9166760D01*
X21911151Y-9281132D01*
X21707350Y-9429201D01*
X21707345Y-9429205D01*
X21529205Y-9607345D01*
X21529201Y-9607350D01*
X21381132Y-9811151D01*
X21266760Y-10035616D01*
X21188910Y-10275214D01*
X21149500Y-10524038D01*
X21149500Y-11475961D01*
X17850500Y-11475961D01*
X17850500Y-10524038D01*
X17811090Y-10275215D01*
X17733241Y-10035621D01*
X17733239Y-10035618D01*
X17733239Y-10035616D01*
X17662506Y-9896796D01*
X17618870Y-9811155D01*
X17599952Y-9785117D01*
X17470798Y-9607350D01*
X17470794Y-9607345D01*
X17292654Y-9429205D01*
X17292649Y-9429201D01*
X17088848Y-9281132D01*
X17088847Y-9281131D01*
X17088845Y-9281130D01*
X17018747Y-9245413D01*
X16864383Y-9166760D01*
X16624785Y-9088910D01*
X16375962Y-9049500D01*
X16124038Y-9049500D01*
X16045123Y-9061999D01*
X15875214Y-9088910D01*
X15635616Y-9166760D01*
X15411151Y-9281132D01*
X15207350Y-9429201D01*
X15207345Y-9429205D01*
X15029205Y-9607345D01*
X15029201Y-9607350D01*
X14881132Y-9811151D01*
X14766760Y-10035616D01*
X14688910Y-10275214D01*
X14649500Y-10524038D01*
X14649500Y-11475961D01*
X14688910Y-11724785D01*
X14766760Y-11964383D01*
X14822495Y-12073768D01*
X14881130Y-12188845D01*
X15000819Y-12353582D01*
X15024298Y-12419387D01*
X15024500Y-12426466D01*
X15024500Y-14573532D01*
X15004815Y-14640571D01*
X15000818Y-14646417D01*
X14881132Y-14811151D01*
X14766760Y-15035616D01*
X14688910Y-15275214D01*
X14649500Y-15524038D01*
X14649500Y-16475961D01*
X14688910Y-16724785D01*
X14766760Y-16964383D01*
X14881130Y-17188845D01*
X15000819Y-17353582D01*
X15024298Y-17419387D01*
X15024500Y-17426466D01*
X15024500Y-19573532D01*
X15004815Y-19640571D01*
X15000818Y-19646417D01*
X14881132Y-19811151D01*
X14766760Y-20035616D01*
X14688910Y-20275214D01*
X14649500Y-20524038D01*
X14649500Y-21475961D01*
X3633329Y-21475961D01*
X3674035Y-21417827D01*
X3773903Y-21203660D01*
X3835063Y-20975405D01*
X3855659Y-20739997D01*
X3848399Y-20657025D01*
X3862165Y-20588528D01*
X3884243Y-20558541D01*
X11910627Y-12532159D01*
X12003704Y-12392860D01*
X12067816Y-12238078D01*
X12082423Y-12164646D01*
X12100500Y-12073764D01*
X12100500Y-10842029D01*
X12120185Y-10774990D01*
X12169406Y-10730941D01*
X12263597Y-10684226D01*
X12310753Y-10660839D01*
X12454940Y-10544937D01*
X12570842Y-10400750D01*
X12653037Y-10235018D01*
X12697683Y-10055492D01*
X12700500Y-10013951D01*
X12700500Y-8416043D01*
X12697683Y-8374502D01*
X12691156Y-8348258D01*
X12686558Y-8329768D01*
X12653037Y-8194976D01*
X12570842Y-8029244D01*
X12519856Y-7965815D01*
X12454940Y-7885056D01*
X12340456Y-7793031D01*
X12310753Y-7769155D01*
X12310751Y-7769154D01*
X12310750Y-7769153D01*
X12145023Y-7686961D01*
X12145021Y-7686960D01*
X11965497Y-7642314D01*
X11965501Y-7642314D01*
X11934339Y-7640201D01*
X11923954Y-7639497D01*
X10576046Y-7639497D01*
X10564177Y-7640301D01*
X10534500Y-7642314D01*
X10354978Y-7686960D01*
X10354976Y-7686961D01*
X10189249Y-7769153D01*
X10045057Y-7885059D01*
X9931708Y-8026069D01*
X9874365Y-8065988D01*
X9804543Y-8068567D01*
X9747381Y-8036062D01*
X9694934Y-7983615D01*
X9651613Y-7952140D01*
X9608948Y-7896810D01*
X9600500Y-7851823D01*
X9600500Y-6046635D01*
X9600499Y-6046631D01*
X9592422Y-6006024D01*
X9567816Y-5882321D01*
X9524246Y-5777134D01*
X9503704Y-5727540D01*
X9503702Y-5727538D01*
X9503702Y-5727536D01*
X9410627Y-5588241D01*
X9410624Y-5588237D01*
X7143675Y-3321288D01*
X27709507Y-3321288D01*
X27741168Y-3561785D01*
X27803954Y-3796104D01*
X27841472Y-3886680D01*
X27896783Y-4020212D01*
X28018071Y-4230289D01*
X28018073Y-4230292D01*
X28018074Y-4230293D01*
X28165740Y-4422736D01*
X28165746Y-4422743D01*
X28337263Y-4594260D01*
X28337269Y-4594265D01*
X28529718Y-4741936D01*
X28739795Y-4863224D01*
X28963907Y-4956054D01*
X29198218Y-5018838D01*
X29378593Y-5042584D01*
X29438718Y-5050500D01*
X29438719Y-5050500D01*
X29681296Y-5050500D01*
X29729395Y-5044167D01*
X29921796Y-5018838D01*
X30156107Y-4956054D01*
X30380219Y-4863224D01*
X30590296Y-4741936D01*
X30782745Y-4594265D01*
X30954272Y-4422738D01*
X31101943Y-4230289D01*
X31223231Y-4020212D01*
X31316061Y-3796100D01*
X31378845Y-3561789D01*
X31410507Y-3321288D01*
X31410507Y-3078712D01*
X31378845Y-2838211D01*
X31316061Y-2603900D01*
X31223231Y-2379788D01*
X31101943Y-2169711D01*
X31041025Y-2090321D01*
X30954273Y-1977263D01*
X30954267Y-1977256D01*
X30782750Y-1805739D01*
X30782743Y-1805733D01*
X30590300Y-1658067D01*
X30590299Y-1658066D01*
X30590296Y-1658064D01*
X30380219Y-1536776D01*
X30380212Y-1536773D01*
X30156111Y-1443947D01*
X29921792Y-1381161D01*
X29681296Y-1349500D01*
X29681295Y-1349500D01*
X29438719Y-1349500D01*
X29438718Y-1349500D01*
X29198221Y-1381161D01*
X28963902Y-1443947D01*
X28739801Y-1536773D01*
X28739792Y-1536777D01*
X28529713Y-1658067D01*
X28337270Y-1805733D01*
X28337263Y-1805739D01*
X28165746Y-1977256D01*
X28165740Y-1977263D01*
X28018074Y-2169706D01*
X27896784Y-2379785D01*
X27896780Y-2379794D01*
X27803954Y-2603895D01*
X27741168Y-2838214D01*
X27709507Y-3078711D01*
X27709507Y-3321288D01*
X7143675Y-3321288D01*
X5401759Y-1579372D01*
X5401755Y-1579369D01*
X5262460Y-1486294D01*
X5262457Y-1486293D01*
X5153010Y-1440959D01*
X5153008Y-1440958D01*
X5107680Y-1422182D01*
X5107668Y-1422179D01*
X4943365Y-1389497D01*
X4943361Y-1389497D01*
X2686233Y-1389497D01*
X2686228Y-1389497D01*
X2521925Y-1422179D01*
X2521917Y-1422181D01*
X2367135Y-1486294D01*
X2367129Y-1486298D01*
X2227838Y-1579370D01*
X2227834Y-1579373D01*
X1588050Y-2219156D01*
X1526727Y-2252641D01*
X1479961Y-2253784D01*
X1394335Y-2239497D01*
X1145665Y-2239497D01*
X900383Y-2280426D01*
X665197Y-2361166D01*
X665188Y-2361169D01*
X446493Y-2479521D01*
X250257Y-2632258D01*
X91230Y-2805007D01*
X31342Y-2840998D01*
X-38496Y-2838897D01*
X-91230Y-2805007D01*
X-250257Y-2632258D01*
X-446493Y-2479521D01*
X-665188Y-2361169D01*
X-665197Y-2361166D01*
X-900383Y-2280426D01*
X-1145665Y-2239497D01*
X-1394335Y-2239497D01*
X-1639616Y-2280426D01*
X-1874802Y-2361166D01*
X-1874811Y-2361169D01*
X-2093506Y-2479521D01*
X-2093507Y-2479522D01*
X-2093509Y-2479523D01*
X-2289744Y-2632259D01*
X-2436557Y-2791741D01*
X-2458166Y-2815214D01*
X-2594173Y-3023390D01*
X-2694063Y-3251115D01*
X-2755107Y-3492172D01*
X-2755109Y-3492184D01*
X-2775643Y-3739991D01*
X-2775643Y-3740002D01*
X-2770994Y-3796104D01*
X-2755108Y-3987818D01*
X-2694063Y-4228878D01*
X-2594173Y-4456604D01*
X-2458164Y-4664782D01*
X-2289744Y-4847735D01*
X-2093509Y-5000471D01*
X-1874810Y-5118825D01*
X-1639614Y-5199568D01*
X-1394335Y-5240497D01*
X-1145665Y-5240497D01*
X-900386Y-5199568D01*
X-665190Y-5118825D01*
X-446491Y-5000471D01*
X-250256Y-4847735D01*
X-91228Y-4674985D01*
X-31343Y-4638996D01*
X38495Y-4641096D01*
X91228Y-4674985D01*
X250256Y-4847735D01*
X446491Y-5000471D01*
X665190Y-5118825D01*
X900386Y-5199568D01*
X1145665Y-5240497D01*
X1394335Y-5240497D01*
X1639614Y-5199568D01*
X1874810Y-5118825D01*
X2093509Y-5000471D01*
X2289744Y-4847735D01*
X2448771Y-4674985D01*
X2508657Y-4638996D01*
X2578495Y-4641096D01*
X2631228Y-4674985D01*
X2790256Y-4847735D01*
X2986491Y-5000471D01*
X3205190Y-5118825D01*
X3440386Y-5199568D01*
X3685665Y-5240497D01*
X3934333Y-5240497D01*
X3934335Y-5240497D01*
X4019961Y-5226208D01*
X4089324Y-5234590D01*
X4128050Y-5260836D01*
X5363181Y-6495966D01*
X5396666Y-6557289D01*
X5399500Y-6583647D01*
X5399500Y-7851823D01*
X5379815Y-7918862D01*
X5348387Y-7952140D01*
X5305065Y-7983615D01*
X5143623Y-8145057D01*
X5143616Y-8145066D01*
X5100317Y-8204661D01*
X5044987Y-8247327D01*
X4975373Y-8253305D01*
X4913579Y-8220698D01*
X4899683Y-8204661D01*
X4856383Y-8145066D01*
X4856379Y-8145060D01*
X4694937Y-7983618D01*
X4510228Y-7849418D01*
X4306803Y-7745767D01*
X4089660Y-7675212D01*
X3864162Y-7639497D01*
X3864157Y-7639497D01*
X3635843Y-7639497D01*
X3635838Y-7639497D01*
X3410339Y-7675212D01*
X3193196Y-7745767D01*
X2989771Y-7849418D01*
X2805061Y-7983619D01*
X2643623Y-8145057D01*
X2643616Y-8145066D01*
X2600317Y-8204661D01*
X2544987Y-8247327D01*
X2475373Y-8253305D01*
X2413579Y-8220698D01*
X2399683Y-8204661D01*
X2356383Y-8145066D01*
X2356379Y-8145060D01*
X2194937Y-7983618D01*
X2010228Y-7849418D01*
X1806803Y-7745767D01*
X1589660Y-7675212D01*
X1364162Y-7639497D01*
X1364157Y-7639497D01*
X1135843Y-7639497D01*
X1135838Y-7639497D01*
X910339Y-7675212D01*
X693196Y-7745767D01*
X489771Y-7849418D01*
X305061Y-7983619D01*
X143623Y-8145057D01*
X143616Y-8145066D01*
X100317Y-8204661D01*
X44987Y-8247327D01*
X-24627Y-8253305D01*
X-86421Y-8220698D01*
X-100317Y-8204661D01*
X-143616Y-8145066D01*
X-143623Y-8145057D01*
X-305061Y-7983619D01*
X-489771Y-7849418D01*
X-693196Y-7745767D01*
X-910339Y-7675212D01*
X-1135838Y-7639497D01*
X-1135843Y-7639497D01*
X-1364157Y-7639497D01*
X-1364162Y-7639497D01*
X-1589660Y-7675212D01*
X-1806803Y-7745767D01*
X-2010228Y-7849418D01*
X-2194937Y-7983618D01*
X-2356379Y-8145060D01*
X-2356383Y-8145066D01*
X-2399683Y-8204661D01*
X-2455013Y-8247327D01*
X-2524627Y-8253305D01*
X-2586421Y-8220698D01*
X-2600317Y-8204661D01*
X-2643616Y-8145066D01*
X-2643623Y-8145057D01*
X-2805061Y-7983619D01*
X-2989771Y-7849418D01*
X-3193196Y-7745767D01*
X-3410339Y-7675212D01*
X-3635838Y-7639497D01*
X-3635843Y-7639497D01*
X-3864157Y-7639497D01*
X-3864162Y-7639497D01*
X-4089660Y-7675212D01*
X-4306803Y-7745767D01*
X-4510228Y-7849418D01*
X-4694937Y-7983618D01*
X-4856379Y-8145060D01*
X-4856383Y-8145066D01*
X-4899683Y-8204661D01*
X-4955013Y-8247327D01*
X-5024627Y-8253305D01*
X-5086421Y-8220698D01*
X-5100317Y-8204661D01*
X-5143616Y-8145066D01*
X-5143623Y-8145057D01*
X-5305061Y-7983619D01*
X-5489771Y-7849418D01*
X-5693196Y-7745767D01*
X-5910339Y-7675212D01*
X-6135838Y-7639497D01*
X-6135843Y-7639497D01*
X-6364157Y-7639497D01*
X-6364162Y-7639497D01*
X-6589660Y-7675212D01*
X-6806803Y-7745767D01*
X-7010228Y-7849418D01*
X-7194937Y-7983618D01*
X-7356379Y-8145060D01*
X-7490579Y-8329769D01*
X-7532341Y-8411731D01*
X-7594229Y-8533193D01*
X-7664784Y-8750336D01*
X-7700500Y-8975834D01*
X-7700500Y-9454159D01*
X-9799500Y-9454159D01*
X-9799500Y-8975834D01*
X-9835215Y-8750336D01*
X-9905770Y-8533193D01*
X-10009421Y-8329768D01*
X-10143622Y-8145058D01*
X-10305061Y-7983619D01*
X-10489771Y-7849418D01*
X-10693196Y-7745767D01*
X-10910339Y-7675212D01*
X-11135838Y-7639497D01*
X-11135843Y-7639497D01*
X-11364157Y-7639497D01*
X-11364162Y-7639497D01*
X-11589660Y-7675212D01*
X-11806803Y-7745767D01*
X-12010228Y-7849418D01*
X-12151611Y-7952140D01*
X-12170433Y-7965815D01*
X-12236239Y-7989295D01*
X-12243319Y-7989497D01*
X-14561446Y-7989497D01*
X-14605611Y-7996492D01*
X-14751966Y-8019672D01*
X-14751969Y-8019673D01*
X-14935426Y-8079282D01*
X-15107299Y-8166856D01*
X-15107301Y-8166857D01*
X-15107302Y-8166858D01*
X-15263351Y-8280232D01*
X-16000442Y-9017323D01*
X-16061765Y-9050808D01*
X-16107519Y-9052116D01*
X-16124037Y-9049500D01*
X-16124038Y-9049500D01*
X-16375962Y-9049500D01*
X-16624785Y-9088910D01*
X-16864383Y-9166760D01*
X-17018747Y-9245413D01*
X-17088845Y-9281130D01*
X-17088847Y-9281131D01*
X-17088848Y-9281132D01*
X-17292649Y-9429201D01*
X-17292654Y-9429205D01*
X-17470794Y-9607345D01*
X-17470798Y-9607350D01*
X-17599952Y-9785117D01*
X-17618870Y-9811155D01*
X-17662506Y-9896796D01*
X-17733239Y-10035616D01*
X-17733239Y-10035618D01*
X-17733241Y-10035621D01*
X-17811090Y-10275215D01*
X-17850500Y-10524038D01*
X-17850500Y-11475962D01*
X-17811090Y-11724785D01*
X-17733241Y-11964379D01*
X-17618870Y-12188845D01*
X-17499180Y-12353582D01*
X-17475702Y-12419387D01*
X-17475500Y-12426466D01*
X-17475500Y-19573532D01*
X-17495185Y-19640571D01*
X-17499182Y-19646417D01*
X-17618870Y-19811155D01*
X-17691747Y-19954184D01*
X-17733239Y-20035616D01*
X-17733239Y-20035618D01*
X-17733241Y-20035621D01*
X-17811090Y-20275215D01*
X-17850500Y-20524038D01*
X-17850500Y-21475962D01*
X-21149500Y-21475962D01*
X-21149500Y-21475961D01*
X-21149500Y-20524038D01*
X-21188910Y-20275214D01*
X-21266760Y-20035616D01*
X-21381132Y-19811151D01*
X-21529201Y-19607350D01*
X-21529205Y-19607345D01*
X-21707345Y-19429205D01*
X-21707350Y-19429201D01*
X-21911151Y-19281132D01*
X-22135616Y-19166760D01*
X-22375214Y-19088910D01*
X-22499626Y-19069205D01*
X-22624038Y-19049500D01*
X-22875962Y-19049500D01*
X-23124785Y-19088910D01*
X-23364383Y-19166760D01*
X-23518747Y-19245413D01*
X-23588845Y-19281130D01*
X-23588847Y-19281131D01*
X-23588848Y-19281132D01*
X-23792649Y-19429201D01*
X-23792654Y-19429205D01*
X-23970794Y-19607345D01*
X-23970798Y-19607350D01*
X-24039203Y-19701502D01*
X-24118870Y-19811155D01*
X-24191747Y-19954184D01*
X-24233239Y-20035616D01*
X-24233239Y-20035618D01*
X-24233241Y-20035621D01*
X-24311090Y-20275215D01*
X-24350500Y-20524038D01*
X-24350500Y-21475962D01*
X-26359994Y-21475962D01*
X-26360004Y-11475962D01*
X-24350500Y-11475962D01*
X-24311090Y-11724785D01*
X-24233241Y-11964379D01*
X-24118870Y-12188845D01*
X-23970793Y-12392656D01*
X-23792656Y-12570793D01*
X-23588845Y-12718870D01*
X-23364379Y-12833241D01*
X-23124785Y-12911090D01*
X-22875962Y-12950500D01*
X-22875961Y-12950500D01*
X-22624039Y-12950500D01*
X-22624038Y-12950500D01*
X-22375215Y-12911090D01*
X-22135621Y-12833241D01*
X-22135618Y-12833239D01*
X-22135616Y-12833239D01*
X-22054184Y-12791747D01*
X-21911155Y-12718870D01*
X-21885117Y-12699952D01*
X-21707350Y-12570798D01*
X-21707345Y-12570794D01*
X-21529205Y-12392654D01*
X-21529201Y-12392649D01*
X-21381132Y-12188848D01*
X-21266760Y-11964383D01*
X-21188910Y-11724785D01*
X-21149500Y-11475961D01*
X-21149500Y-10524038D01*
X-21188910Y-10275214D01*
X-21266760Y-10035616D01*
X-21381132Y-9811151D01*
X-21529201Y-9607350D01*
X-21529205Y-9607345D01*
X-21707345Y-9429205D01*
X-21707350Y-9429201D01*
X-21911151Y-9281132D01*
X-22135616Y-9166760D01*
X-22375214Y-9088910D01*
X-22545123Y-9061999D01*
X-22624038Y-9049500D01*
X-22875962Y-9049500D01*
X-23124785Y-9088910D01*
X-23364383Y-9166760D01*
X-23518747Y-9245413D01*
X-23588845Y-9281130D01*
X-23588847Y-9281131D01*
X-23588848Y-9281132D01*
X-23792649Y-9429201D01*
X-23792654Y-9429205D01*
X-23970794Y-9607345D01*
X-23970798Y-9607350D01*
X-24099952Y-9785117D01*
X-24118870Y-9811155D01*
X-24162506Y-9896796D01*
X-24233239Y-10035616D01*
X-24233239Y-10035618D01*
X-24233241Y-10035621D01*
X-24311090Y-10275215D01*
X-24350500Y-10524038D01*
X-24350500Y-11475962D01*
X-26360004Y-11475962D01*
X-26360006Y-8905920D01*
X-26362197Y-8741973D01*
X-26404287Y-8416820D01*
X-26404289Y-8416807D01*
X-26488524Y-8099941D01*
X-26613454Y-7796811D01*
X-26613457Y-7796803D01*
X-26776942Y-7512605D01*
X-26776944Y-7512603D01*
X-26976187Y-7252201D01*
X-26976188Y-7252200D01*
X-27207743Y-7020096D01*
X-27207744Y-7020095D01*
X-27467676Y-6820234D01*
X-27467679Y-6820231D01*
X-27751490Y-6656074D01*
X-28054331Y-6530424D01*
X-28054332Y-6530423D01*
X-28054334Y-6530423D01*
X-28130981Y-6509853D01*
X-28370996Y-6445439D01*
X-28371000Y-6445438D01*
X-28371002Y-6445438D01*
X-28449203Y-6435126D01*
X-28696058Y-6402577D01*
X-28696048Y-6402577D01*
X-28766321Y-6401472D01*
X-28860000Y-6400000D01*
X-28860020Y-6400000D01*
X-29559141Y-6400000D01*
X-29560813Y-6399989D01*
X-29566207Y-6399916D01*
X-29733455Y-6397657D01*
X-29745663Y-6396888D01*
X-30089534Y-6358144D01*
X-30103244Y-6355815D01*
X-30439807Y-6278996D01*
X-30453168Y-6275147D01*
X-30779016Y-6161129D01*
X-30791864Y-6155807D01*
X-31102891Y-6006024D01*
X-31115061Y-5999298D01*
X-31407366Y-5815631D01*
X-31418707Y-5807584D01*
X-31688610Y-5592344D01*
X-31698978Y-5583078D01*
X-31943079Y-5338978D01*
X-31952345Y-5328610D01*
X-32167586Y-5058706D01*
X-32175633Y-5047365D01*
X-32359300Y-4755060D01*
X-32366026Y-4742890D01*
X-32515808Y-4431866D01*
X-32521130Y-4419019D01*
X-32635151Y-4093166D01*
X-32639000Y-4079804D01*
X-32715818Y-3743244D01*
X-32718147Y-3729534D01*
X-32756798Y-3386494D01*
X-32757578Y-3372611D01*
X-32757578Y-3321288D01*
X-31410507Y-3321288D01*
X-31378845Y-3561789D01*
X-31316061Y-3796100D01*
X-31223231Y-4020212D01*
X-31101943Y-4230289D01*
X-30954272Y-4422738D01*
X-30782745Y-4594265D01*
X-30590296Y-4741936D01*
X-30380219Y-4863224D01*
X-30156107Y-4956054D01*
X-29921796Y-5018838D01*
X-29729395Y-5044167D01*
X-29681296Y-5050500D01*
X-29681295Y-5050500D01*
X-29438718Y-5050500D01*
X-29378593Y-5042584D01*
X-29198218Y-5018838D01*
X-28963907Y-4956054D01*
X-28739795Y-4863224D01*
X-28529718Y-4741936D01*
X-28337269Y-4594265D01*
X-28337263Y-4594260D01*
X-28165746Y-4422743D01*
X-28165740Y-4422736D01*
X-28018074Y-4230293D01*
X-28018073Y-4230292D01*
X-28018071Y-4230289D01*
X-27896783Y-4020212D01*
X-27841472Y-3886680D01*
X-27803954Y-3796104D01*
X-27741168Y-3561785D01*
X-27709507Y-3321288D01*
X-27709507Y-3078711D01*
X-27741168Y-2838214D01*
X-27803954Y-2603895D01*
X-27896780Y-2379794D01*
X-27896784Y-2379785D01*
X-28018074Y-2169706D01*
X-28165740Y-1977263D01*
X-28165746Y-1977256D01*
X-28337263Y-1805739D01*
X-28337270Y-1805733D01*
X-28529713Y-1658067D01*
X-28739792Y-1536777D01*
X-28739801Y-1536773D01*
X-28963902Y-1443947D01*
X-29198221Y-1381161D01*
X-29438718Y-1349500D01*
X-29438719Y-1349500D01*
X-29681295Y-1349500D01*
X-29681296Y-1349500D01*
X-29921792Y-1381161D01*
X-30156111Y-1443947D01*
X-30380212Y-1536773D01*
X-30380219Y-1536776D01*
X-30590296Y-1658064D01*
X-30590299Y-1658066D01*
X-30590300Y-1658067D01*
X-30782743Y-1805733D01*
X-30782750Y-1805739D01*
X-30954267Y-1977256D01*
X-30954273Y-1977263D01*
X-31041025Y-2090321D01*
X-31101943Y-2169711D01*
X-31223231Y-2379788D01*
X-31316061Y-2603900D01*
X-31378845Y-2838211D01*
X-31410507Y-3078712D01*
X-31410507Y-3321288D01*
X-32757578Y-3321288D01*
X-32757578Y-3027388D01*
X-32756798Y-3013505D01*
X-32718147Y-2670465D01*
X-32715818Y-2656755D01*
X-32639000Y-2320195D01*
X-32635151Y-2306833D01*
X-32521130Y-1980980D01*
X-32515808Y-1968133D01*
X-32366026Y-1657109D01*
X-32359300Y-1644939D01*
X-32175633Y-1352634D01*
X-32167586Y-1341293D01*
X-31952345Y-1071389D01*
X-31943079Y-1061021D01*
X-31698978Y-816921D01*
X-31688610Y-807655D01*
X-31418707Y-592415D01*
X-31407366Y-584368D01*
X-31115191Y-400783D01*
X-31115060Y-400700D01*
X-31102891Y-393975D01*
X-30791858Y-244189D01*
X-30779021Y-238872D01*
X-30505859Y-143289D01*
X-30453168Y-124852D01*
X-30439807Y-121003D01*
X-30103229Y-44181D01*
X-30089549Y-41857D01*
X-29745657Y-3110D01*
X-29733461Y-2342D01*
X-29560814Y-10D01*
X-29559141Y0D01*
X29559118Y0D01*
X29560855Y-12D01*
G37*
%TD.AperFunction*%
%TD*%
M02*
