%TF.GenerationSoftware,KiCad,Pcbnew,8.0.1*%
%TF.CreationDate,2024-05-21T00:31:34+09:00*%
%TF.ProjectId,UI-20240325,55492d32-3032-4343-9033-32352e6b6963,rev?*%
%TF.SameCoordinates,Original*%
%TF.FileFunction,Legend,Top*%
%TF.FilePolarity,Positive*%
%FSLAX46Y46*%
G04 Gerber Fmt 4.6, Leading zero omitted, Abs format (unit mm)*
G04 Created by KiCad (PCBNEW 8.0.1) date 2024-05-21 00:31:34*
%MOMM*%
%LPD*%
G01*
G04 APERTURE LIST*
G04 Aperture macros list*
%AMRoundRect*
0 Rectangle with rounded corners*
0 $1 Rounding radius*
0 $2 $3 $4 $5 $6 $7 $8 $9 X,Y pos of 4 corners*
0 Add a 4 corners polygon primitive as box body*
4,1,4,$2,$3,$4,$5,$6,$7,$8,$9,$2,$3,0*
0 Add four circle primitives for the rounded corners*
1,1,$1+$1,$2,$3*
1,1,$1+$1,$4,$5*
1,1,$1+$1,$6,$7*
1,1,$1+$1,$8,$9*
0 Add four rect primitives between the rounded corners*
20,1,$1+$1,$2,$3,$4,$5,0*
20,1,$1+$1,$4,$5,$6,$7,0*
20,1,$1+$1,$6,$7,$8,$9,0*
20,1,$1+$1,$8,$9,$2,$3,0*%
G04 Aperture macros list end*
%ADD10C,0.120000*%
%ADD11R,1.800000X1.800000*%
%ADD12C,1.800000*%
%ADD13O,2.000000X2.700000*%
%ADD14RoundRect,0.250000X0.600000X0.725000X-0.600000X0.725000X-0.600000X-0.725000X0.600000X-0.725000X0*%
%ADD15O,1.700000X1.950000*%
%ADD16C,1.500000*%
%ADD17C,3.200000*%
G04 APERTURE END LIST*
%TO.C,SW5*%
D10*
X120475000Y-124725000D02*
X117525000Y-124725000D01*
X117525000Y-123275000D01*
X120475000Y-123275000D01*
X120475000Y-124725000D01*
X116000000Y-125750000D02*
X122000000Y-125750000D01*
X122000000Y-122250000D01*
X116000000Y-122250000D01*
X116000000Y-125750000D01*
%TO.C,SW4*%
X120475000Y-118725000D02*
X117525000Y-118725000D01*
X117525000Y-117275000D01*
X120475000Y-117275000D01*
X120475000Y-118725000D01*
X116000000Y-119750000D02*
X122000000Y-119750000D01*
X122000000Y-116250000D01*
X116000000Y-116250000D01*
X116000000Y-119750000D01*
%TO.C,SW3*%
X120475000Y-112725000D02*
X117525000Y-112725000D01*
X117525000Y-111275000D01*
X120475000Y-111275000D01*
X120475000Y-112725000D01*
X116000000Y-113750000D02*
X122000000Y-113750000D01*
X122000000Y-110250000D01*
X116000000Y-110250000D01*
X116000000Y-113750000D01*
%TO.C,SW2*%
X79525000Y-123275000D02*
X82475000Y-123275000D01*
X82475000Y-124725000D01*
X79525000Y-124725000D01*
X79525000Y-123275000D01*
X84000000Y-122250000D02*
X78000000Y-122250000D01*
X78000000Y-125750000D01*
X84000000Y-125750000D01*
X84000000Y-122250000D01*
%TO.C,SW1*%
X79525000Y-111275000D02*
X82475000Y-111275000D01*
X82475000Y-112725000D01*
X79525000Y-112725000D01*
X79525000Y-111275000D01*
X84000000Y-110250000D02*
X78000000Y-110250000D01*
X78000000Y-113750000D01*
X84000000Y-113750000D01*
X84000000Y-110250000D01*
%TD*%
%LPC*%
D11*
%TO.C,U1*%
X96190000Y-103000000D03*
D12*
X98730000Y-103000000D03*
X101270000Y-103000000D03*
X103810000Y-103000000D03*
%TD*%
D13*
%TO.C,SW5*%
X122250000Y-124000000D03*
X115750000Y-124000000D03*
%TD*%
%TO.C,SW4*%
X122250000Y-118000000D03*
X115750000Y-118000000D03*
%TD*%
%TO.C,SW3*%
X122250000Y-112000000D03*
X115750000Y-112000000D03*
%TD*%
%TO.C,SW2*%
X77750000Y-124000000D03*
X84250000Y-124000000D03*
%TD*%
%TO.C,SW1*%
X77750000Y-112000000D03*
X84250000Y-112000000D03*
%TD*%
D14*
%TO.C,J1*%
X111250000Y-108475000D03*
D15*
X108750000Y-108475000D03*
X106250000Y-108475000D03*
X103750000Y-108475000D03*
X101250000Y-108475000D03*
X98750000Y-108475000D03*
X96250000Y-108475000D03*
X93750000Y-108475000D03*
X91250000Y-108475000D03*
X88750000Y-108475000D03*
%TD*%
D16*
%TO.C,BZ1*%
X102500000Y-120000000D03*
X97500000Y-120000000D03*
%TD*%
D17*
%TO.C,REF\u002A\u002A*%
X129560007Y-102460003D03*
%TD*%
%TO.C,REF\u002A\u002A*%
X70439993Y-102460003D03*
%TD*%
%LPD*%
M02*
