M48
; DRILL file {KiCad 8.0.1} date 2024-08-08T23:52:37+0900
; FORMAT={-:-/ absolute / inch / decimal}
; #@! TF.CreationDate,2024-08-08T23:52:37+09:00
; #@! TF.GenerationSoftware,Kicad,Pcbnew,8.0.1
; #@! TF.FileFunction,Plated,1,2,PTH
FMAT,2
INCH
; #@! TA.AperFunction,Plated,PTH,ViaDrill
T1C0.0157
; #@! TA.AperFunction,Plated,PTH,ComponentDrill
T2C0.0276
; #@! TA.AperFunction,Plated,PTH,ComponentDrill
T3C0.0374
; #@! TA.AperFunction,Plated,PTH,ComponentDrill
T4C0.0433
; #@! TA.AperFunction,Plated,PTH,ComponentDrill
T5C0.0512
%
G90
G05
T1
X-0.7677Y-0.4331
X-0.7677Y-0.8268
X0.7677Y-0.4331
X0.7677Y-0.6299
X0.7677Y-0.8268
T2
X-0.0984Y-0.8165
X0.0984Y-0.8165
T3
X-0.4429Y-0.3628
X-0.3445Y-0.3628
X-0.2461Y-0.3628
X-0.1476Y-0.3628
X-0.0492Y-0.3628
X0.0492Y-0.3628
X0.1476Y-0.3628
X0.2461Y-0.3628
X0.3445Y-0.3628
X0.4429Y-0.3628
T4
X-0.15Y-0.1472
X-0.05Y-0.1472
X0.05Y-0.1472
X0.15Y-0.1472
T5
G00X-0.8957Y-0.4193
M15
G01X-0.8957Y-0.4469
M16
G05
G00X-0.8957Y-0.813
M15
G01X-0.8957Y-0.8406
M16
G05
G00X-0.6398Y-0.4193
M15
G01X-0.6398Y-0.4469
M16
G05
G00X-0.6398Y-0.813
M15
G01X-0.6398Y-0.8406
M16
G05
G00X0.6398Y-0.4469
M15
G01X0.6398Y-0.4193
M16
G05
G00X0.6398Y-0.6437
M15
G01X0.6398Y-0.6161
M16
G05
G00X0.6398Y-0.8406
M15
G01X0.6398Y-0.813
M16
G05
G00X0.8957Y-0.4469
M15
G01X0.8957Y-0.4193
M16
G05
G00X0.8957Y-0.6437
M15
G01X0.8957Y-0.6161
M16
G05
G00X0.8957Y-0.8406
M15
G01X0.8957Y-0.813
M16
G05
M30
