M48
; DRILL file {KiCad 8.0.1} date 2024-05-21T00:31:34+0900
; FORMAT={-:-/ absolute / inch / decimal}
; #@! TF.CreationDate,2024-05-21T00:31:34+09:00
; #@! TF.GenerationSoftware,Kicad,Pcbnew,8.0.1
; #@! TF.FileFunction,Plated,1,2,PTH
FMAT,2
INCH
; #@! TA.AperFunction,Plated,PTH,ComponentDrill
T1C0.0276
; #@! TA.AperFunction,Plated,PTH,ComponentDrill
T2C0.0374
; #@! TA.AperFunction,Plated,PTH,ComponentDrill
T3C0.0433
; #@! TA.AperFunction,Plated,PTH,ComponentDrill
T4C0.0512
%
G90
G05
T1
X3.8386Y-4.7244
X4.0354Y-4.7244
T2
X3.4941Y-4.2707
X3.5925Y-4.2707
X3.6909Y-4.2707
X3.7894Y-4.2707
X3.8878Y-4.2707
X3.9862Y-4.2707
X4.0846Y-4.2707
X4.1831Y-4.2707
X4.2815Y-4.2707
X4.3799Y-4.2707
T3
X3.787Y-4.0551
X3.887Y-4.0551
X3.987Y-4.0551
X4.087Y-4.0551
T4
G00X3.061Y-4.3957
M15
G01X3.061Y-4.4232
M16
G05
G00X3.061Y-4.8681
M15
G01X3.061Y-4.8957
M16
G05
G00X3.3169Y-4.3957
M15
G01X3.3169Y-4.4232
M16
G05
G00X3.3169Y-4.8681
M15
G01X3.3169Y-4.8957
M16
G05
G00X4.5571Y-4.4232
M15
G01X4.5571Y-4.3957
M16
G05
G00X4.5571Y-4.6594
M15
G01X4.5571Y-4.6319
M16
G05
G00X4.5571Y-4.8957
M15
G01X4.5571Y-4.8681
M16
G05
G00X4.813Y-4.4232
M15
G01X4.813Y-4.3957
M16
G05
G00X4.813Y-4.6594
M15
G01X4.813Y-4.6319
M16
G05
G00X4.813Y-4.8957
M15
G01X4.813Y-4.8681
M16
G05
M30
