%TF.GenerationSoftware,KiCad,Pcbnew,8.0.3*%
%TF.CreationDate,2024-11-12T18:28:05+09:00*%
%TF.ProjectId,UI-20240325,55492d32-3032-4343-9033-32352e6b6963,rev?*%
%TF.SameCoordinates,Original*%
%TF.FileFunction,Copper,L2,Bot*%
%TF.FilePolarity,Positive*%
%FSLAX46Y46*%
G04 Gerber Fmt 4.6, Leading zero omitted, Abs format (unit mm)*
G04 Created by KiCad (PCBNEW 8.0.3) date 2024-11-12 18:28:05*
%MOMM*%
%LPD*%
G01*
G04 APERTURE LIST*
G04 Aperture macros list*
%AMRoundRect*
0 Rectangle with rounded corners*
0 $1 Rounding radius*
0 $2 $3 $4 $5 $6 $7 $8 $9 X,Y pos of 4 corners*
0 Add a 4 corners polygon primitive as box body*
4,1,4,$2,$3,$4,$5,$6,$7,$8,$9,$2,$3,0*
0 Add four circle primitives for the rounded corners*
1,1,$1+$1,$2,$3*
1,1,$1+$1,$4,$5*
1,1,$1+$1,$6,$7*
1,1,$1+$1,$8,$9*
0 Add four rect primitives between the rounded corners*
20,1,$1+$1,$2,$3,$4,$5,0*
20,1,$1+$1,$4,$5,$6,$7,0*
20,1,$1+$1,$6,$7,$8,$9,0*
20,1,$1+$1,$8,$9,$2,$3,0*%
G04 Aperture macros list end*
%TA.AperFunction,SMDPad,CuDef*%
%ADD10RoundRect,0.225000X-0.225000X-0.250000X0.225000X-0.250000X0.225000X0.250000X-0.225000X0.250000X0*%
%TD*%
%TA.AperFunction,SMDPad,CuDef*%
%ADD11RoundRect,0.225000X0.225000X0.250000X-0.225000X0.250000X-0.225000X-0.250000X0.225000X-0.250000X0*%
%TD*%
%TA.AperFunction,ComponentPad*%
%ADD12O,2.000000X2.700000*%
%TD*%
%TA.AperFunction,ComponentPad*%
%ADD13R,1.800000X1.800000*%
%TD*%
%TA.AperFunction,ComponentPad*%
%ADD14C,1.800000*%
%TD*%
%TA.AperFunction,SMDPad,CuDef*%
%ADD15RoundRect,0.200000X-0.200000X-0.275000X0.200000X-0.275000X0.200000X0.275000X-0.200000X0.275000X0*%
%TD*%
%TA.AperFunction,SMDPad,CuDef*%
%ADD16RoundRect,0.200000X0.200000X0.275000X-0.200000X0.275000X-0.200000X-0.275000X0.200000X-0.275000X0*%
%TD*%
%TA.AperFunction,SMDPad,CuDef*%
%ADD17RoundRect,0.200000X-0.275000X0.200000X-0.275000X-0.200000X0.275000X-0.200000X0.275000X0.200000X0*%
%TD*%
%TA.AperFunction,ComponentPad*%
%ADD18RoundRect,0.250000X0.600000X0.725000X-0.600000X0.725000X-0.600000X-0.725000X0.600000X-0.725000X0*%
%TD*%
%TA.AperFunction,ComponentPad*%
%ADD19O,1.700000X1.950000*%
%TD*%
%TA.AperFunction,ComponentPad*%
%ADD20C,1.500000*%
%TD*%
%TA.AperFunction,ViaPad*%
%ADD21C,0.800000*%
%TD*%
%TA.AperFunction,Conductor*%
%ADD22C,0.500000*%
%TD*%
%TA.AperFunction,Conductor*%
%ADD23C,0.250000*%
%TD*%
%TA.AperFunction,Conductor*%
%ADD24C,0.750000*%
%TD*%
G04 APERTURE END LIST*
D10*
%TO.P,C4,1*%
%TO.N,Net-(C4-Pad1)*%
X18725000Y-27000000D03*
%TO.P,C4,2*%
%TO.N,+3.3V*%
X20275000Y-27000000D03*
%TD*%
%TO.P,C3,1*%
%TO.N,Net-(C3-Pad1)*%
X18725000Y-20000000D03*
%TO.P,C3,2*%
%TO.N,+3.3V*%
X20275000Y-20000000D03*
%TD*%
%TO.P,C2,1*%
%TO.N,Net-(C2-Pad1)*%
X18725000Y-13000000D03*
%TO.P,C2,2*%
%TO.N,+3.3V*%
X20275000Y-13000000D03*
%TD*%
D11*
%TO.P,C1,2*%
%TO.N,+3.3V*%
X-20275000Y-27000000D03*
%TO.P,C1,1*%
%TO.N,Net-(C1-Pad1)*%
X-18725000Y-27000000D03*
%TD*%
D12*
%TO.P,SW2,1,1*%
%TO.N,Net-(C1-Pad1)*%
X-16250000Y-24000000D03*
%TO.P,SW2,2,2*%
%TO.N,+3.3V*%
X-22750000Y-24000000D03*
%TD*%
%TO.P,SW4,1,1*%
%TO.N,Net-(C3-Pad1)*%
X16250000Y-17000000D03*
%TO.P,SW4,2,2*%
%TO.N,+3.3V*%
X22750000Y-17000000D03*
%TD*%
%TO.P,SW3,1,1*%
%TO.N,Net-(C2-Pad1)*%
X16250000Y-10000000D03*
%TO.P,SW3,2,2*%
%TO.N,+3.3V*%
X22750000Y-10000000D03*
%TD*%
%TO.P,SW5,1,1*%
%TO.N,Net-(C4-Pad1)*%
X16250000Y-24000000D03*
%TO.P,SW5,2,2*%
%TO.N,+3.3V*%
X22750000Y-24000000D03*
%TD*%
D13*
%TO.P,U1,1,GND*%
%TO.N,GND*%
X-3810000Y-3739997D03*
D14*
%TO.P,U1,2,VCC*%
%TO.N,+3.3V*%
X-1270000Y-3739997D03*
%TO.P,U1,3,SCL*%
%TO.N,SCL*%
X1270000Y-3739997D03*
%TO.P,U1,4,SDA*%
%TO.N,SDA*%
X3810000Y-3739997D03*
%TD*%
%TO.P,SW1,*%
%TO.N,*%
X-19500000Y-8420000D03*
X-19500000Y-18580000D03*
%TO.P,SW1,1,A*%
%TO.N,+3.3V*%
X-19500000Y-10960000D03*
%TO.P,SW1,2,B*%
%TO.N,Net-(SW1-B)*%
X-19500000Y-13500000D03*
%TO.P,SW1,3,C*%
%TO.N,unconnected-(SW1-C-Pad3)*%
X-19500000Y-16040000D03*
%TD*%
D15*
%TO.P,R10,1*%
%TO.N,+3.3V*%
X-825000Y-29500000D03*
%TO.P,R10,2*%
%TO.N,Net-(D1-A)*%
X825000Y-29500000D03*
%TD*%
D16*
%TO.P,R7,1*%
%TO.N,SW-TAC-3*%
X20325000Y-16000000D03*
%TO.P,R7,2*%
%TO.N,Net-(C3-Pad1)*%
X18675000Y-16000000D03*
%TD*%
%TO.P,R11,1*%
%TO.N,GND*%
X20325000Y-25000000D03*
%TO.P,R11,2*%
%TO.N,Net-(C4-Pad1)*%
X18675000Y-25000000D03*
%TD*%
D17*
%TO.P,R1,1*%
%TO.N,SW-TOG*%
X-17250000Y-12675000D03*
%TO.P,R1,2*%
%TO.N,Net-(SW1-B)*%
X-17250000Y-14325000D03*
%TD*%
D16*
%TO.P,R9,1*%
%TO.N,SW-TAC-4*%
X20325000Y-23000000D03*
%TO.P,R9,2*%
%TO.N,Net-(C4-Pad1)*%
X18675000Y-23000000D03*
%TD*%
%TO.P,R6,1*%
%TO.N,GND*%
X20325000Y-11000000D03*
%TO.P,R6,2*%
%TO.N,Net-(C2-Pad1)*%
X18675000Y-11000000D03*
%TD*%
D17*
%TO.P,R2,2*%
%TO.N,Net-(SW1-B)*%
X-21750000Y-14325000D03*
%TO.P,R2,1*%
%TO.N,GND*%
X-21750000Y-12675000D03*
%TD*%
D15*
%TO.P,R4,1*%
%TO.N,GND*%
X-20325000Y-25000000D03*
%TO.P,R4,2*%
%TO.N,Net-(C1-Pad1)*%
X-18675000Y-25000000D03*
%TD*%
D16*
%TO.P,R5,1*%
%TO.N,SW-TAC-2*%
X20325000Y-9000000D03*
%TO.P,R5,2*%
%TO.N,Net-(C2-Pad1)*%
X18675000Y-9000000D03*
%TD*%
D18*
%TO.P,J1,1,Pin_1*%
%TO.N,+3.3V*%
X11250000Y-9214997D03*
D19*
%TO.P,J1,2,Pin_2*%
%TO.N,GND*%
X8750000Y-9214997D03*
%TO.P,J1,3,Pin_3*%
%TO.N,SW-TOG*%
X6250000Y-9214997D03*
%TO.P,J1,4,Pin_4*%
%TO.N,SW-TAC-1*%
X3750000Y-9214997D03*
%TO.P,J1,5,Pin_5*%
%TO.N,SW-TAC-2*%
X1250000Y-9214997D03*
%TO.P,J1,6,Pin_6*%
%TO.N,SW-TAC-3*%
X-1250000Y-9214997D03*
%TO.P,J1,7,Pin_7*%
%TO.N,SW-TAC-4*%
X-3750000Y-9214997D03*
%TO.P,J1,8,Pin_8*%
%TO.N,SDA*%
X-6250000Y-9214997D03*
%TO.P,J1,9,Pin_9*%
%TO.N,SCL*%
X-8750000Y-9214997D03*
%TO.P,J1,10,Pin_10*%
%TO.N,BUZZER*%
X-11250000Y-9214997D03*
%TD*%
D16*
%TO.P,R8,1*%
%TO.N,GND*%
X20325000Y-18000000D03*
%TO.P,R8,2*%
%TO.N,Net-(C3-Pad1)*%
X18675000Y-18000000D03*
%TD*%
D15*
%TO.P,R3,1*%
%TO.N,SW-TAC-1*%
X-20325000Y-23000000D03*
%TO.P,R3,2*%
%TO.N,Net-(C1-Pad1)*%
X-18675000Y-23000000D03*
%TD*%
D20*
%TO.P,BZ1,1,+*%
%TO.N,BUZZER*%
X2500000Y-20739997D03*
%TO.P,BZ1,2,-*%
%TO.N,GND*%
X-2500000Y-20739997D03*
%TD*%
D21*
%TO.N,GND*%
X-20000000Y-25000000D03*
X20000000Y-25000000D03*
X20000000Y-11000000D03*
X20000000Y-18000000D03*
%TO.N,Net-(D1-A)*%
X2500000Y-29500000D03*
%TO.N,+3.3V*%
X-2500000Y-29500000D03*
%TD*%
D22*
%TO.N,Net-(C4-Pad1)*%
X16250000Y-24262500D02*
G75*
G03*
X16435621Y-24710609I633700J0D01*
G01*
%TO.N,Net-(C3-Pad1)*%
X16250000Y-17262500D02*
G75*
G03*
X16435621Y-17710609I633700J0D01*
G01*
%TO.N,Net-(C2-Pad1)*%
X16250000Y-10262500D02*
G75*
G03*
X16435621Y-10710609I633700J0D01*
G01*
%TO.N,Net-(C1-Pad1)*%
X-16250000Y-24262500D02*
G75*
G02*
X-16435615Y-24710615I-633723J-3D01*
G01*
%TO.N,Net-(SW1-B)*%
X-19815614Y-13500000D02*
X-19920818Y-13500000D01*
X-18763567Y-13500000D02*
X-18868771Y-13500000D01*
X-18868771Y-13500000D02*
X-18973976Y-13500000D01*
X-18684664Y-13500000D02*
X-18737266Y-13500000D01*
X-18973976Y-13500000D02*
X-19079182Y-13500000D01*
X-20026022Y-13500000D02*
X-20131226Y-13500000D01*
X-19079182Y-13500000D02*
X-19184388Y-13500000D01*
X-20131226Y-13500000D02*
X-20236430Y-13500000D01*
X-19920818Y-13500000D02*
X-20026022Y-13500000D01*
X-19631505Y-13500000D02*
X-19789312Y-13500000D01*
X-20262731Y-13500000D02*
X-20315334Y-13500000D01*
X-19210688Y-13500000D02*
X-19368494Y-13500000D01*
%TO.N,+3.3V*%
X22750000Y-10262500D02*
G75*
G02*
X22564378Y-10710609I-633700J0D01*
G01*
X-22750000Y-24262500D02*
G75*
G03*
X-22564384Y-24710615I633740J5D01*
G01*
X22750000Y-17262500D02*
G75*
G02*
X22564378Y-17710609I-633700J0D01*
G01*
X22750000Y-24262500D02*
G75*
G02*
X22564378Y-24710609I-633700J0D01*
G01*
%TO.N,Net-(C4-Pad1)*%
X16250000Y-24262500D02*
X16250000Y-24000000D01*
X16435615Y-24710615D02*
X18725000Y-27000000D01*
%TO.N,+3.3V*%
X22750000Y-24262500D02*
X22750000Y-24000000D01*
X22564384Y-24710615D02*
X20275000Y-27000000D01*
%TO.N,Net-(C3-Pad1)*%
X16250000Y-17262500D02*
X16250000Y-17000000D01*
X16435615Y-17710615D02*
X18725000Y-20000000D01*
%TO.N,+3.3V*%
X22750000Y-17262500D02*
X22750000Y-17000000D01*
X22564384Y-17710615D02*
X20275000Y-20000000D01*
%TO.N,Net-(C2-Pad1)*%
X16250000Y-10262500D02*
X16250000Y-10000000D01*
X16435615Y-10710615D02*
X18725000Y-13000000D01*
%TO.N,+3.3V*%
X22750000Y-10262500D02*
X22750000Y-10000000D01*
X22564384Y-10710615D02*
X20275000Y-13000000D01*
X-22750000Y-24262500D02*
X-22750000Y-24000000D01*
X-22564384Y-24710615D02*
X-20275000Y-27000000D01*
%TO.N,Net-(C1-Pad1)*%
X-16250000Y-24262500D02*
X-16250000Y-24000000D01*
X-16435615Y-24710615D02*
X-18725000Y-27000000D01*
%TO.N,SW-TAC-2*%
X16551676Y-8000000D02*
X18617893Y-8000000D01*
X11978372Y-10639997D02*
X3682627Y-10639997D01*
X14627798Y-8796896D02*
X13354855Y-10069839D01*
X1962500Y-9927497D02*
X1250000Y-9214997D01*
X19825000Y-8500000D02*
X20325000Y-9000000D01*
X1962500Y-9927497D02*
G75*
G03*
X3682627Y-10639999I1720130J1720127D01*
G01*
X14627798Y-8796896D02*
G75*
G02*
X16551676Y-7999990I1923902J-1923904D01*
G01*
X19825000Y-8500000D02*
G75*
G03*
X18617893Y-8000003I-1207100J-1207100D01*
G01*
X13354855Y-10069839D02*
G75*
G02*
X11978372Y-10639990I-1376455J1376439D01*
G01*
%TO.N,SW-TAC-1*%
X-16796896Y-19471896D02*
X-20325000Y-23000000D01*
X-10583068Y-7200000D02*
X608021Y-7200000D01*
X-16000000Y-12616931D02*
X-16000000Y-17548018D01*
X-15203103Y-10693053D02*
X-12506946Y-7996896D01*
X2531899Y-7996896D02*
X3750000Y-9214997D01*
X-16000000Y-12616931D02*
G75*
G02*
X-15203103Y-10693053I2720777J-2D01*
G01*
X-10583068Y-7200000D02*
G75*
G03*
X-12506946Y-7996896I-2J-2720770D01*
G01*
X-16796896Y-19471896D02*
G75*
G03*
X-16000000Y-17548018I-1923874J1923876D01*
G01*
X2531899Y-7996896D02*
G75*
G03*
X608021Y-7200000I-1923876J-1923874D01*
G01*
%TO.N,SW-TOG*%
X4331899Y-7296896D02*
X6250000Y-9214997D01*
X-17250000Y-12212500D02*
X-17250000Y-12675000D01*
X-16922963Y-11422963D02*
X-12796896Y-7296896D01*
X-10873018Y-6500000D02*
X2408021Y-6500000D01*
X-16922963Y-11422963D02*
G75*
G03*
X-17250000Y-12212500I789543J-789540D01*
G01*
X2408021Y-6500000D02*
G75*
G02*
X4331897Y-7296898I-1J-2720770D01*
G01*
X-10873018Y-6500000D02*
G75*
G03*
X-12796896Y-7296896I-2J-2720770D01*
G01*
D23*
%TO.N,Net-(D1-A)*%
X2500000Y-29500000D02*
X825000Y-29500000D01*
D24*
%TO.N,+3.3V*%
X8506899Y-6471896D02*
X11250000Y-9214997D01*
X1791984Y-5675000D02*
X6583021Y-5675000D01*
X-131893Y-4878103D02*
X-1270000Y-3739997D01*
X-2500000Y-29500000D02*
X-825000Y-29500000D01*
X-131893Y-4878103D02*
G75*
G03*
X1791984Y-5675000I1923878J1923875D01*
G01*
X6583021Y-5675000D02*
G75*
G02*
X8506897Y-6471898I-1J-2720770D01*
G01*
D22*
%TO.N,SW-TAC-3*%
X3738106Y-14203103D02*
X-1250000Y-9214997D01*
X19825000Y-15500000D02*
X20325000Y-16000000D01*
X5661984Y-15000000D02*
X18617893Y-15000000D01*
X3738106Y-14203103D02*
G75*
G03*
X5661984Y-15000002I1923884J1923883D01*
G01*
X18617893Y-15000000D02*
G75*
G02*
X19825002Y-15499998I7J-1707100D01*
G01*
%TO.N,Net-(SW1-B)*%
X-19184388Y-13500000D02*
X-19210688Y-13500000D01*
X-21750000Y-14325000D02*
X-21337500Y-13912500D01*
X-17662500Y-13912500D02*
X-17250000Y-14325000D01*
X-19631505Y-13500000D02*
X-19368494Y-13500000D01*
X-20341636Y-13500000D02*
X-20315334Y-13500000D01*
X-19815614Y-13500000D02*
X-19789312Y-13500000D01*
X-18684664Y-13500000D02*
X-18658363Y-13500000D01*
X-20236430Y-13500000D02*
X-20262731Y-13500000D01*
X-18763567Y-13500000D02*
X-18737266Y-13500000D01*
X-20341636Y-13500000D02*
G75*
G03*
X-21337500Y-13912500I0J-1408365D01*
G01*
X-18658363Y-13500000D02*
G75*
G02*
X-17662500Y-13912500I3J-1408356D01*
G01*
%TO.N,Net-(C2-Pad1)*%
X17957106Y-11000000D02*
X18675000Y-11000000D01*
X17957106Y-9000000D02*
X18675000Y-9000000D01*
X16750000Y-10500000D02*
G75*
G02*
X16750000Y-9500000I500000J500000D01*
G01*
X16750000Y-10500000D02*
G75*
G03*
X17957106Y-10999997I1207100J1207100D01*
G01*
X16750000Y-9500000D02*
G75*
G02*
X17957106Y-9000003I1207100J-1207100D01*
G01*
%TO.N,Net-(C3-Pad1)*%
X17957106Y-18000000D02*
X18675000Y-18000000D01*
X17957106Y-16000000D02*
X18675000Y-16000000D01*
X16750000Y-17500000D02*
G75*
G03*
X17957106Y-17999997I1207100J1207100D01*
G01*
X17957106Y-16000000D02*
G75*
G03*
X16749998Y-16499998I-6J-1707100D01*
G01*
X16750000Y-17500000D02*
G75*
G02*
X16750000Y-16500000I500000J500000D01*
G01*
%TO.N,SW-TAC-4*%
X19716148Y-22391148D02*
X20325000Y-23000000D01*
X18952899Y-22075000D02*
X10236984Y-22075000D01*
X8313106Y-21278103D02*
X-3750000Y-9214997D01*
X19716148Y-22391148D02*
G75*
G03*
X18952899Y-22075001I-763248J-763252D01*
G01*
X8313106Y-21278103D02*
G75*
G03*
X10236984Y-22075003I1923894J1923903D01*
G01*
%TO.N,Net-(C1-Pad1)*%
X-17957106Y-23000000D02*
X-18675000Y-23000000D01*
X-17957106Y-25000000D02*
X-18675000Y-25000000D01*
X-17957106Y-25000000D02*
G75*
G03*
X-16750000Y-24500000I-1J1707108D01*
G01*
X-16750000Y-23500000D02*
G75*
G03*
X-17957106Y-23000000I-1207103J-1207097D01*
G01*
X-16750000Y-23500000D02*
G75*
G02*
X-16750000Y-24500000I-499999J-500000D01*
G01*
%TO.N,Net-(C4-Pad1)*%
X17957106Y-25000000D02*
X18675000Y-25000000D01*
X17957106Y-23000000D02*
X18675000Y-23000000D01*
X16750000Y-23500000D02*
G75*
G03*
X16750000Y-24500000I500000J-500000D01*
G01*
X16750000Y-23500000D02*
G75*
G02*
X17957106Y-23000003I1207100J-1207100D01*
G01*
X17957106Y-25000000D02*
G75*
G02*
X16749998Y-24500002I-6J1707100D01*
G01*
%TD*%
%TA.AperFunction,Conductor*%
%TO.N,GND*%
G36*
X-19456666Y-23841258D02*
G01*
X-19412319Y-23869759D01*
X-19372338Y-23909740D01*
X-19373772Y-23911174D01*
X-19339332Y-23960241D01*
X-19336482Y-24030052D01*
X-19371827Y-24090322D01*
X-19376122Y-24094044D01*
X-19377262Y-24095184D01*
X-19504816Y-24222738D01*
X-19600789Y-24375478D01*
X-19635950Y-24475962D01*
X-19660368Y-24545745D01*
X-19660369Y-24545750D01*
X-19675499Y-24680039D01*
X-19675500Y-24680043D01*
X-19675500Y-25319956D01*
X-19675499Y-25319960D01*
X-19667309Y-25392656D01*
X-19660368Y-25454255D01*
X-19600789Y-25624522D01*
X-19504816Y-25777262D01*
X-19403203Y-25878874D01*
X-19369721Y-25940193D01*
X-19374705Y-26009885D01*
X-19413201Y-26063200D01*
X-19422314Y-26070525D01*
X-19486899Y-26097183D01*
X-19555643Y-26084692D01*
X-19577686Y-26070525D01*
X-19602785Y-26050349D01*
X-19602790Y-26050346D01*
X-19763649Y-25970567D01*
X-19937897Y-25927234D01*
X-19937896Y-25927234D01*
X-19964777Y-25925411D01*
X-19978216Y-25924500D01*
X-19978218Y-25924500D01*
X-20096349Y-25924500D01*
X-20163388Y-25904815D01*
X-20184030Y-25888181D01*
X-21174052Y-24898157D01*
X-21207537Y-24836834D01*
X-21204303Y-24772159D01*
X-21204303Y-24772158D01*
X-21188910Y-24724785D01*
X-21188909Y-24724783D01*
X-21188908Y-24724778D01*
X-21149500Y-24475961D01*
X-21149500Y-24052370D01*
X-21129815Y-23985331D01*
X-21077011Y-23939576D01*
X-21007853Y-23929632D01*
X-20959528Y-23947375D01*
X-20874522Y-24000789D01*
X-20704255Y-24060368D01*
X-20704252Y-24060368D01*
X-20704249Y-24060369D01*
X-20637104Y-24067934D01*
X-20569958Y-24075499D01*
X-20569957Y-24075500D01*
X-20569954Y-24075500D01*
X-20080043Y-24075500D01*
X-20080040Y-24075499D01*
X-20036246Y-24070565D01*
X-19945750Y-24060369D01*
X-19945745Y-24060368D01*
X-19859107Y-24030052D01*
X-19775478Y-24000789D01*
X-19622738Y-23904816D01*
X-19587681Y-23869759D01*
X-19526358Y-23836274D01*
X-19456666Y-23841258D01*
G37*
%TD.AperFunction*%
%TA.AperFunction,Conductor*%
G36*
X19543334Y-23841258D02*
G01*
X19587681Y-23869759D01*
X19622738Y-23904816D01*
X19775478Y-24000789D01*
X19859107Y-24030052D01*
X19945745Y-24060368D01*
X19945750Y-24060369D01*
X20036246Y-24070565D01*
X20080040Y-24075499D01*
X20080043Y-24075500D01*
X20080046Y-24075500D01*
X20569957Y-24075500D01*
X20569958Y-24075499D01*
X20637104Y-24067934D01*
X20704249Y-24060369D01*
X20704252Y-24060368D01*
X20704255Y-24060368D01*
X20874522Y-24000789D01*
X20959528Y-23947375D01*
X21026764Y-23928376D01*
X21093600Y-23948744D01*
X21138814Y-24002011D01*
X21149500Y-24052370D01*
X21149500Y-24475961D01*
X21188910Y-24724786D01*
X21204302Y-24772158D01*
X21206297Y-24841999D01*
X21174052Y-24898157D01*
X20887267Y-25184943D01*
X20430280Y-25641931D01*
X20184030Y-25888181D01*
X20122707Y-25921666D01*
X20096349Y-25924500D01*
X19978216Y-25924500D01*
X19962089Y-25925593D01*
X19937897Y-25927234D01*
X19763649Y-25970567D01*
X19602790Y-26050346D01*
X19602785Y-26050349D01*
X19577686Y-26070525D01*
X19513102Y-26097183D01*
X19444358Y-26084692D01*
X19422314Y-26070525D01*
X19413201Y-26063200D01*
X19373281Y-26005858D01*
X19370701Y-25936036D01*
X19403203Y-25878874D01*
X19504816Y-25777262D01*
X19600789Y-25624522D01*
X19660368Y-25454255D01*
X19667309Y-25392656D01*
X19675499Y-25319960D01*
X19675500Y-25319956D01*
X19675500Y-24680043D01*
X19675499Y-24680039D01*
X19660369Y-24545750D01*
X19660368Y-24545745D01*
X19635950Y-24475962D01*
X19600789Y-24375478D01*
X19504816Y-24222738D01*
X19377262Y-24095184D01*
X19372338Y-24090260D01*
X19373772Y-24088825D01*
X19339332Y-24039759D01*
X19336482Y-23969948D01*
X19371827Y-23909678D01*
X19376122Y-23905955D01*
X19377259Y-23904817D01*
X19377262Y-23904816D01*
X19412319Y-23869759D01*
X19473642Y-23836274D01*
X19543334Y-23841258D01*
G37*
%TD.AperFunction*%
%TA.AperFunction,Conductor*%
G36*
X19543334Y-16841258D02*
G01*
X19587681Y-16869759D01*
X19622738Y-16904816D01*
X19775478Y-17000789D01*
X19886848Y-17039759D01*
X19945745Y-17060368D01*
X19945750Y-17060369D01*
X20036246Y-17070565D01*
X20080040Y-17075499D01*
X20080043Y-17075500D01*
X20080046Y-17075500D01*
X20569957Y-17075500D01*
X20569958Y-17075499D01*
X20637104Y-17067934D01*
X20704249Y-17060369D01*
X20704252Y-17060368D01*
X20704255Y-17060368D01*
X20874522Y-17000789D01*
X20959528Y-16947375D01*
X21026764Y-16928376D01*
X21093600Y-16948744D01*
X21138814Y-17002011D01*
X21149500Y-17052370D01*
X21149500Y-17475962D01*
X21160913Y-17548019D01*
X21188910Y-17724786D01*
X21204302Y-17772158D01*
X21206297Y-17841999D01*
X21174052Y-17898157D01*
X20184030Y-18888181D01*
X20122707Y-18921666D01*
X20096349Y-18924500D01*
X19978216Y-18924500D01*
X19962089Y-18925593D01*
X19937897Y-18927234D01*
X19763649Y-18970567D01*
X19602790Y-19050346D01*
X19602785Y-19050349D01*
X19577686Y-19070525D01*
X19513102Y-19097183D01*
X19444358Y-19084692D01*
X19422314Y-19070525D01*
X19413201Y-19063200D01*
X19373281Y-19005858D01*
X19370701Y-18936036D01*
X19403203Y-18878874D01*
X19504816Y-18777262D01*
X19600789Y-18624522D01*
X19660368Y-18454255D01*
X19667309Y-18392656D01*
X19667934Y-18387104D01*
X19675500Y-18319954D01*
X19675500Y-17680046D01*
X19661080Y-17552061D01*
X19660369Y-17545750D01*
X19660368Y-17545745D01*
X19635950Y-17475962D01*
X19600789Y-17375478D01*
X19504816Y-17222738D01*
X19377262Y-17095184D01*
X19372338Y-17090260D01*
X19373772Y-17088825D01*
X19339332Y-17039759D01*
X19336482Y-16969948D01*
X19371827Y-16909678D01*
X19376122Y-16905955D01*
X19377259Y-16904817D01*
X19377262Y-16904816D01*
X19412319Y-16869759D01*
X19473642Y-16836274D01*
X19543334Y-16841258D01*
G37*
%TD.AperFunction*%
%TA.AperFunction,Conductor*%
G36*
X19543334Y-9841258D02*
G01*
X19587681Y-9869759D01*
X19622738Y-9904816D01*
X19775478Y-10000789D01*
X19873862Y-10035215D01*
X19945745Y-10060368D01*
X19945750Y-10060369D01*
X20036246Y-10070565D01*
X20080040Y-10075499D01*
X20080043Y-10075500D01*
X20080046Y-10075500D01*
X20569957Y-10075500D01*
X20569958Y-10075499D01*
X20637104Y-10067934D01*
X20704249Y-10060369D01*
X20704252Y-10060368D01*
X20704255Y-10060368D01*
X20874522Y-10000789D01*
X20959528Y-9947375D01*
X21026764Y-9928376D01*
X21093600Y-9948744D01*
X21138814Y-10002011D01*
X21149500Y-10052370D01*
X21149500Y-10475961D01*
X21188910Y-10724786D01*
X21204302Y-10772158D01*
X21206297Y-10841999D01*
X21174052Y-10898157D01*
X20184030Y-11888181D01*
X20122707Y-11921666D01*
X20096349Y-11924500D01*
X19978216Y-11924500D01*
X19962089Y-11925593D01*
X19937897Y-11927234D01*
X19763649Y-11970567D01*
X19602790Y-12050346D01*
X19602785Y-12050349D01*
X19577686Y-12070525D01*
X19513102Y-12097183D01*
X19444358Y-12084692D01*
X19422314Y-12070525D01*
X19413201Y-12063200D01*
X19373281Y-12005858D01*
X19370701Y-11936036D01*
X19403203Y-11878874D01*
X19504816Y-11777262D01*
X19600789Y-11624522D01*
X19660368Y-11454255D01*
X19667309Y-11392656D01*
X19671447Y-11355926D01*
X19675500Y-11319954D01*
X19675500Y-10680046D01*
X19670565Y-10636246D01*
X19660369Y-10545750D01*
X19660368Y-10545745D01*
X19635950Y-10475962D01*
X19600789Y-10375478D01*
X19504816Y-10222738D01*
X19377262Y-10095184D01*
X19372338Y-10090260D01*
X19373772Y-10088825D01*
X19339332Y-10039759D01*
X19336482Y-9969948D01*
X19371827Y-9909678D01*
X19376122Y-9905955D01*
X19377259Y-9904817D01*
X19377262Y-9904816D01*
X19412319Y-9869759D01*
X19473642Y-9836274D01*
X19543334Y-9841258D01*
G37*
%TD.AperFunction*%
%TA.AperFunction,Conductor*%
G36*
X6587064Y-6650765D02*
G01*
X6802732Y-6664900D01*
X6818788Y-6667015D01*
X7026769Y-6708385D01*
X7042416Y-6712578D01*
X7243215Y-6780740D01*
X7258193Y-6786944D01*
X7448370Y-6880730D01*
X7462416Y-6888840D01*
X7638713Y-7006637D01*
X7651582Y-7016511D01*
X7814082Y-7159020D01*
X7819989Y-7164552D01*
X7881033Y-7225596D01*
X7885363Y-7229926D01*
X7885374Y-7229936D01*
X9763181Y-9107743D01*
X9796666Y-9169066D01*
X9799500Y-9195424D01*
X9799500Y-9665497D01*
X9779815Y-9732536D01*
X9727011Y-9778291D01*
X9675500Y-9789497D01*
X7792572Y-9789497D01*
X7725533Y-9769812D01*
X7679778Y-9717008D01*
X7669834Y-9647850D01*
X7670099Y-9646099D01*
X7700500Y-9454159D01*
X7700500Y-8975834D01*
X7664784Y-8750336D01*
X7619389Y-8610627D01*
X7594231Y-8533198D01*
X7594229Y-8533195D01*
X7594229Y-8533193D01*
X7536551Y-8419994D01*
X7490579Y-8329769D01*
X7356379Y-8145060D01*
X7194937Y-7983618D01*
X7010228Y-7849418D01*
X7009084Y-7848835D01*
X6806803Y-7745767D01*
X6589660Y-7675212D01*
X6364162Y-7639497D01*
X6364157Y-7639497D01*
X6135843Y-7639497D01*
X6135838Y-7639497D01*
X5975043Y-7664964D01*
X5905749Y-7656009D01*
X5867964Y-7630172D01*
X5099973Y-6862181D01*
X5066488Y-6800858D01*
X5071472Y-6731166D01*
X5113344Y-6675233D01*
X5178808Y-6650816D01*
X5187654Y-6650500D01*
X6492627Y-6650500D01*
X6578954Y-6650500D01*
X6587064Y-6650765D01*
G37*
%TD.AperFunction*%
%TA.AperFunction,Conductor*%
G36*
X29560855Y-12D02*
G01*
X29564854Y-68D01*
X29733491Y-2431D01*
X29745613Y-3198D01*
X30071376Y-39902D01*
X30089519Y-41947D01*
X30103227Y-44276D01*
X30439777Y-121091D01*
X30453139Y-124940D01*
X30778982Y-238957D01*
X30791824Y-244276D01*
X31102675Y-393975D01*
X31102845Y-394057D01*
X31115015Y-400783D01*
X31407311Y-584444D01*
X31418652Y-592491D01*
X31688547Y-807725D01*
X31698915Y-816991D01*
X31943008Y-1061084D01*
X31952274Y-1071452D01*
X32167508Y-1341347D01*
X32175555Y-1352688D01*
X32359216Y-1644984D01*
X32365942Y-1657154D01*
X32515720Y-1968169D01*
X32521042Y-1981017D01*
X32635059Y-2306860D01*
X32638908Y-2320222D01*
X32715723Y-2656772D01*
X32718052Y-2670480D01*
X32756703Y-3013510D01*
X32757483Y-3027394D01*
X32757483Y-3372605D01*
X32756703Y-3386489D01*
X32718052Y-3729519D01*
X32715723Y-3743227D01*
X32638908Y-4079777D01*
X32635059Y-4093139D01*
X32521042Y-4418982D01*
X32515720Y-4431830D01*
X32365942Y-4742845D01*
X32359216Y-4755015D01*
X32175555Y-5047311D01*
X32167508Y-5058652D01*
X31952274Y-5328547D01*
X31943008Y-5338915D01*
X31698915Y-5583008D01*
X31688547Y-5592274D01*
X31418652Y-5807508D01*
X31407311Y-5815555D01*
X31115015Y-5999216D01*
X31102845Y-6005942D01*
X30791830Y-6155720D01*
X30778982Y-6161042D01*
X30453139Y-6275059D01*
X30439777Y-6278908D01*
X30103227Y-6355723D01*
X30089519Y-6358052D01*
X29745625Y-6396800D01*
X29733479Y-6397568D01*
X29560856Y-6399988D01*
X29559118Y-6400000D01*
X28860007Y-6400000D01*
X28826331Y-6400528D01*
X28696318Y-6402567D01*
X28371739Y-6445298D01*
X28371725Y-6445301D01*
X28055510Y-6530030D01*
X28055500Y-6530033D01*
X27753055Y-6655310D01*
X27753045Y-6655314D01*
X27469528Y-6819002D01*
X27209799Y-7018298D01*
X27209792Y-7018304D01*
X26978309Y-7249787D01*
X26930371Y-7312261D01*
X26795146Y-7488490D01*
X26779008Y-7509521D01*
X26779002Y-7509529D01*
X26615319Y-7793034D01*
X26615314Y-7793045D01*
X26490034Y-8095498D01*
X26405299Y-8411732D01*
X26362568Y-8736298D01*
X26362568Y-8736310D01*
X26360007Y-8900011D01*
X26360007Y-25143433D01*
X26359992Y-25145363D01*
X26357563Y-25301378D01*
X26356511Y-25315680D01*
X26315540Y-25625979D01*
X26312357Y-25641931D01*
X26231374Y-25943249D01*
X26226131Y-25958648D01*
X26106398Y-26246783D01*
X26099184Y-26261363D01*
X25942766Y-26531340D01*
X25933706Y-26544850D01*
X25743287Y-26792037D01*
X25732536Y-26804244D01*
X25511408Y-27024369D01*
X25499151Y-27035065D01*
X25251107Y-27224352D01*
X25237556Y-27233351D01*
X24966862Y-27388544D01*
X24952250Y-27395691D01*
X24662677Y-27514480D01*
X24649143Y-27519139D01*
X24499077Y-27561285D01*
X24496883Y-27561880D01*
X23540308Y-27811712D01*
X23538136Y-27812258D01*
X21614281Y-28277755D01*
X21611787Y-28278331D01*
X19678906Y-28703980D01*
X19676400Y-28704505D01*
X17735127Y-29090167D01*
X17732612Y-29090640D01*
X15783782Y-29436152D01*
X15781257Y-29436573D01*
X13825680Y-29741787D01*
X13823147Y-29742155D01*
X11861782Y-30006925D01*
X11859241Y-30007242D01*
X9892703Y-30231483D01*
X9890157Y-30231746D01*
X7919505Y-30415338D01*
X7916954Y-30415549D01*
X5942938Y-30558424D01*
X5940384Y-30558583D01*
X3963789Y-30660682D01*
X3961231Y-30660788D01*
X2845686Y-30695342D01*
X2778069Y-30677742D01*
X2730702Y-30626380D01*
X2718622Y-30557562D01*
X2745665Y-30493139D01*
X2803245Y-30453562D01*
X2805801Y-30452756D01*
X2884727Y-30428814D01*
X3058538Y-30335910D01*
X3210883Y-30210883D01*
X3335910Y-30058538D01*
X3428814Y-29884727D01*
X3486024Y-29696132D01*
X3505341Y-29500000D01*
X3486024Y-29303868D01*
X3428814Y-29115273D01*
X3428811Y-29115269D01*
X3428811Y-29115266D01*
X3335913Y-28941467D01*
X3335909Y-28941460D01*
X3210883Y-28789116D01*
X3058539Y-28664090D01*
X3058532Y-28664086D01*
X2884733Y-28571188D01*
X2884727Y-28571186D01*
X2696132Y-28513976D01*
X2696129Y-28513975D01*
X2500000Y-28494659D01*
X2303870Y-28513975D01*
X2115266Y-28571188D01*
X1941467Y-28664086D01*
X1941460Y-28664090D01*
X1841225Y-28746353D01*
X1776916Y-28773666D01*
X1762560Y-28774500D01*
X1755810Y-28774500D01*
X1688771Y-28754815D01*
X1658865Y-28727815D01*
X1654816Y-28722738D01*
X1527262Y-28595184D01*
X1374523Y-28499211D01*
X1204254Y-28439631D01*
X1204249Y-28439630D01*
X1069960Y-28424500D01*
X1069954Y-28424500D01*
X580046Y-28424500D01*
X580039Y-28424500D01*
X445750Y-28439630D01*
X445745Y-28439631D01*
X275476Y-28499211D01*
X122737Y-28595184D01*
X87681Y-28630241D01*
X26358Y-28663726D01*
X-43334Y-28658742D01*
X-87681Y-28630241D01*
X-122737Y-28595184D01*
X-275476Y-28499211D01*
X-445745Y-28439631D01*
X-445750Y-28439630D01*
X-580039Y-28424500D01*
X-580046Y-28424500D01*
X-1069954Y-28424500D01*
X-1069960Y-28424500D01*
X-1204249Y-28439630D01*
X-1204254Y-28439631D01*
X-1374525Y-28499212D01*
X-1384523Y-28505494D01*
X-1450494Y-28524500D01*
X-2250781Y-28524500D01*
X-2286774Y-28519161D01*
X-2290613Y-28517996D01*
X-2303869Y-28513975D01*
X-2500000Y-28494659D01*
X-2696129Y-28513975D01*
X-2696132Y-28513976D01*
X-2884727Y-28571186D01*
X-2884733Y-28571188D01*
X-3058532Y-28664086D01*
X-3058539Y-28664090D01*
X-3210883Y-28789116D01*
X-3335909Y-28941460D01*
X-3335913Y-28941467D01*
X-3428811Y-29115266D01*
X-3428811Y-29115269D01*
X-3428814Y-29115273D01*
X-3486024Y-29303868D01*
X-3505341Y-29500000D01*
X-3486024Y-29696132D01*
X-3428814Y-29884727D01*
X-3335910Y-30058538D01*
X-3210883Y-30210883D01*
X-3058538Y-30335910D01*
X-2884727Y-30428814D01*
X-2805850Y-30452741D01*
X-2747413Y-30491038D01*
X-2718957Y-30554850D01*
X-2729517Y-30623917D01*
X-2775741Y-30676311D01*
X-2842954Y-30695396D01*
X-2845686Y-30695342D01*
X-3961231Y-30660788D01*
X-3963789Y-30660682D01*
X-5940384Y-30558583D01*
X-5942938Y-30558424D01*
X-7916954Y-30415549D01*
X-7919505Y-30415338D01*
X-9890157Y-30231746D01*
X-9892703Y-30231483D01*
X-11859241Y-30007242D01*
X-11861782Y-30006925D01*
X-13823147Y-29742155D01*
X-13825680Y-29741787D01*
X-15781257Y-29436573D01*
X-15783782Y-29436152D01*
X-17732612Y-29090640D01*
X-17735127Y-29090167D01*
X-19676400Y-28704505D01*
X-19678906Y-28703980D01*
X-21611787Y-28278331D01*
X-21614281Y-28277755D01*
X-23538136Y-27812258D01*
X-23540308Y-27811712D01*
X-24496911Y-27561873D01*
X-24499111Y-27561277D01*
X-24649141Y-27519132D01*
X-24662670Y-27514474D01*
X-24952253Y-27395667D01*
X-24966865Y-27388519D01*
X-25237548Y-27233318D01*
X-25251099Y-27224319D01*
X-25499143Y-27035017D01*
X-25511399Y-27024321D01*
X-25732524Y-26804183D01*
X-25743274Y-26791976D01*
X-25933686Y-26544782D01*
X-25942746Y-26531271D01*
X-26099157Y-26261285D01*
X-26106370Y-26246706D01*
X-26226096Y-25958565D01*
X-26231339Y-25943166D01*
X-26312316Y-25641835D01*
X-26315498Y-25625883D01*
X-26356463Y-25315576D01*
X-26357515Y-25301303D01*
X-26359350Y-25184943D01*
X-26359991Y-25144300D01*
X-26359992Y-25144256D01*
X-26360007Y-25142300D01*
X-26360007Y-23524038D01*
X-24350500Y-23524038D01*
X-24350500Y-24475962D01*
X-24311090Y-24724785D01*
X-24233241Y-24964379D01*
X-24118870Y-25188845D01*
X-23970793Y-25392656D01*
X-23792656Y-25570793D01*
X-23588845Y-25718870D01*
X-23364379Y-25833241D01*
X-23124785Y-25911090D01*
X-22875962Y-25950500D01*
X-22875961Y-25950500D01*
X-22624044Y-25950500D01*
X-22624038Y-25950500D01*
X-22602917Y-25947154D01*
X-22533629Y-25956107D01*
X-22495843Y-25981943D01*
X-21361817Y-27115970D01*
X-21328334Y-27177291D01*
X-21325500Y-27203649D01*
X-21325500Y-27321784D01*
X-21322766Y-27362100D01*
X-21279433Y-27536349D01*
X-21199653Y-27697210D01*
X-21087159Y-27837159D01*
X-20947210Y-27949653D01*
X-20786349Y-28029433D01*
X-20612100Y-28072766D01*
X-20571784Y-28075500D01*
X-20571782Y-28075500D01*
X-19978218Y-28075500D01*
X-19978216Y-28075500D01*
X-19937900Y-28072766D01*
X-19763651Y-28029433D01*
X-19602790Y-27949653D01*
X-19577686Y-27929474D01*
X-19513105Y-27902815D01*
X-19444360Y-27915305D01*
X-19422314Y-27929473D01*
X-19397210Y-27949653D01*
X-19236349Y-28029433D01*
X-19062100Y-28072766D01*
X-19021784Y-28075500D01*
X-19021782Y-28075500D01*
X-18428218Y-28075500D01*
X-18428216Y-28075500D01*
X-18387900Y-28072766D01*
X-18213651Y-28029433D01*
X-18052790Y-27949653D01*
X-17912841Y-27837159D01*
X-17800347Y-27697210D01*
X-17800346Y-27697209D01*
X-17720567Y-27536350D01*
X-17677234Y-27362102D01*
X-17674500Y-27321781D01*
X-17674500Y-27203650D01*
X-17654815Y-27136611D01*
X-17638181Y-27115969D01*
X-16504159Y-25981947D01*
X-16442836Y-25948462D01*
X-16397080Y-25947155D01*
X-16375962Y-25950500D01*
X-16375961Y-25950500D01*
X-16124039Y-25950500D01*
X-16124038Y-25950500D01*
X-15875215Y-25911090D01*
X-15635621Y-25833241D01*
X-15635618Y-25833239D01*
X-15635616Y-25833239D01*
X-15525750Y-25777259D01*
X-15411155Y-25718870D01*
X-15281297Y-25624523D01*
X-15207350Y-25570798D01*
X-15207345Y-25570794D01*
X-15029205Y-25392654D01*
X-15029201Y-25392649D01*
X-14881132Y-25188848D01*
X-14857991Y-25143433D01*
X-14845413Y-25118747D01*
X-14766760Y-24964383D01*
X-14688910Y-24724785D01*
X-14681823Y-24680039D01*
X-14649500Y-24475962D01*
X-14649500Y-23524038D01*
X-14688910Y-23275215D01*
X-14688910Y-23275214D01*
X-14766760Y-23035616D01*
X-14881132Y-22811151D01*
X-15029201Y-22607350D01*
X-15029205Y-22607345D01*
X-15207345Y-22429205D01*
X-15207350Y-22429201D01*
X-15411151Y-22281132D01*
X-15635616Y-22166760D01*
X-15875214Y-22088910D01*
X-15999626Y-22069205D01*
X-16124038Y-22049500D01*
X-16375962Y-22049500D01*
X-16537340Y-22075060D01*
X-16624785Y-22088910D01*
X-16864383Y-22166760D01*
X-17065042Y-22269002D01*
X-17133711Y-22281898D01*
X-17162291Y-22275559D01*
X-17247952Y-22245585D01*
X-17247954Y-22245584D01*
X-17528013Y-22181663D01*
X-17528031Y-22181660D01*
X-17813468Y-22149500D01*
X-17813475Y-22149500D01*
X-17867060Y-22149500D01*
X-17934099Y-22129815D01*
X-17954741Y-22113181D01*
X-17972737Y-22095184D01*
X-17972742Y-22095180D01*
X-17991331Y-22083500D01*
X-18037621Y-22031165D01*
X-18048268Y-21962111D01*
X-18019891Y-21898263D01*
X-18013038Y-21890827D01*
X-16862207Y-20739996D01*
X1144341Y-20739996D01*
X1144341Y-20739997D01*
X1164936Y-20975400D01*
X1164938Y-20975410D01*
X1226094Y-21203652D01*
X1226096Y-21203656D01*
X1226097Y-21203660D01*
X1325965Y-21417827D01*
X1325967Y-21417831D01*
X1434281Y-21572518D01*
X1461505Y-21611398D01*
X1628599Y-21778492D01*
X1676379Y-21811948D01*
X1822165Y-21914029D01*
X1822167Y-21914030D01*
X1822170Y-21914032D01*
X2036337Y-22013900D01*
X2264592Y-22075060D01*
X2422895Y-22088910D01*
X2499999Y-22095656D01*
X2500000Y-22095656D01*
X2500001Y-22095656D01*
X2539234Y-22092223D01*
X2735408Y-22075060D01*
X2963663Y-22013900D01*
X3177830Y-21914032D01*
X3371401Y-21778492D01*
X3538495Y-21611398D01*
X3674035Y-21417827D01*
X3773903Y-21203660D01*
X3835063Y-20975405D01*
X3855659Y-20739997D01*
X3835063Y-20504589D01*
X3773903Y-20276334D01*
X3674035Y-20062168D01*
X3658213Y-20039571D01*
X3538494Y-19868594D01*
X3371402Y-19701503D01*
X3371395Y-19701498D01*
X3177834Y-19565964D01*
X3177830Y-19565962D01*
X3177828Y-19565961D01*
X2963663Y-19466094D01*
X2963659Y-19466093D01*
X2963655Y-19466091D01*
X2735413Y-19404935D01*
X2735403Y-19404933D01*
X2500001Y-19384338D01*
X2499999Y-19384338D01*
X2264596Y-19404933D01*
X2264586Y-19404935D01*
X2036344Y-19466091D01*
X2036335Y-19466095D01*
X1822171Y-19565961D01*
X1822169Y-19565962D01*
X1628597Y-19701502D01*
X1461505Y-19868594D01*
X1325965Y-20062166D01*
X1325964Y-20062168D01*
X1226098Y-20276332D01*
X1226094Y-20276341D01*
X1164938Y-20504583D01*
X1164936Y-20504593D01*
X1144341Y-20739996D01*
X-16862207Y-20739996D01*
X-16136269Y-20014058D01*
X-16071443Y-19949232D01*
X-16005266Y-19868596D01*
X-15848844Y-19677995D01*
X-15848827Y-19677972D01*
X-15653901Y-19386243D01*
X-15653896Y-19386234D01*
X-15488490Y-19076783D01*
X-15488488Y-19076778D01*
X-15354207Y-18752600D01*
X-15252345Y-18416803D01*
X-15252342Y-18416792D01*
X-15183892Y-18072663D01*
X-15159958Y-17829654D01*
X-15149500Y-17723463D01*
X-15149500Y-17548017D01*
X-15149500Y-17458626D01*
X-15149500Y-12620981D01*
X-15149234Y-12612870D01*
X-15134030Y-12380921D01*
X-15131913Y-12364841D01*
X-15087357Y-12140842D01*
X-15083159Y-12125175D01*
X-15009745Y-11908904D01*
X-15003538Y-11893918D01*
X-14902524Y-11689083D01*
X-14894414Y-11675036D01*
X-14767528Y-11485137D01*
X-14757654Y-11472269D01*
X-14745909Y-11458877D01*
X-14604389Y-11297503D01*
X-14598842Y-11291581D01*
X-12880912Y-9573651D01*
X-12819589Y-9540166D01*
X-12749897Y-9545150D01*
X-12693964Y-9587022D01*
X-12670758Y-9641932D01*
X-12664784Y-9679657D01*
X-12594231Y-9896796D01*
X-12490579Y-10100225D01*
X-12356379Y-10284934D01*
X-12194937Y-10446376D01*
X-12010228Y-10580576D01*
X-11806799Y-10684228D01*
X-11605261Y-10749712D01*
X-11589660Y-10754781D01*
X-11364162Y-10790497D01*
X-11364157Y-10790497D01*
X-11135838Y-10790497D01*
X-10910339Y-10754781D01*
X-10779213Y-10712175D01*
X-10693201Y-10684228D01*
X-10693198Y-10684226D01*
X-10693196Y-10684226D01*
X-10585884Y-10629547D01*
X-10489772Y-10580576D01*
X-10305063Y-10446376D01*
X-10143621Y-10284934D01*
X-10100316Y-10225330D01*
X-10044988Y-10182667D01*
X-9975374Y-10176688D01*
X-9913579Y-10209294D01*
X-9899686Y-10225326D01*
X-9856379Y-10284934D01*
X-9694937Y-10446376D01*
X-9510228Y-10580576D01*
X-9306799Y-10684228D01*
X-9105261Y-10749712D01*
X-9089660Y-10754781D01*
X-8864162Y-10790497D01*
X-8864157Y-10790497D01*
X-8635838Y-10790497D01*
X-8410339Y-10754781D01*
X-8279213Y-10712175D01*
X-8193201Y-10684228D01*
X-8193198Y-10684226D01*
X-8193196Y-10684226D01*
X-8085884Y-10629547D01*
X-7989772Y-10580576D01*
X-7805063Y-10446376D01*
X-7643621Y-10284934D01*
X-7600316Y-10225330D01*
X-7544988Y-10182667D01*
X-7475374Y-10176688D01*
X-7413579Y-10209294D01*
X-7399686Y-10225326D01*
X-7356379Y-10284934D01*
X-7194937Y-10446376D01*
X-7010228Y-10580576D01*
X-6806799Y-10684228D01*
X-6605261Y-10749712D01*
X-6589660Y-10754781D01*
X-6364162Y-10790497D01*
X-6364157Y-10790497D01*
X-6135838Y-10790497D01*
X-5910339Y-10754781D01*
X-5779213Y-10712175D01*
X-5693201Y-10684228D01*
X-5693198Y-10684226D01*
X-5693196Y-10684226D01*
X-5585884Y-10629547D01*
X-5489772Y-10580576D01*
X-5305063Y-10446376D01*
X-5143621Y-10284934D01*
X-5100316Y-10225330D01*
X-5044988Y-10182667D01*
X-4975374Y-10176688D01*
X-4913579Y-10209294D01*
X-4899686Y-10225326D01*
X-4856379Y-10284934D01*
X-4694937Y-10446376D01*
X-4510228Y-10580576D01*
X-4306799Y-10684228D01*
X-4105261Y-10749712D01*
X-4089660Y-10754781D01*
X-3864162Y-10790497D01*
X-3864157Y-10790497D01*
X-3635844Y-10790497D01*
X-3635843Y-10790497D01*
X-3475040Y-10765028D01*
X-3405750Y-10773982D01*
X-3367967Y-10799817D01*
X2356253Y-16524038D01*
X7644163Y-21811948D01*
X7644184Y-21811971D01*
X7770294Y-21938081D01*
X7770300Y-21938085D01*
X7774859Y-21942644D01*
X7774906Y-21942687D01*
X7835774Y-22003554D01*
X8107016Y-22226156D01*
X8398770Y-22421100D01*
X8398779Y-22421105D01*
X8398781Y-22421106D01*
X8708219Y-22586505D01*
X8708221Y-22586505D01*
X8708227Y-22586509D01*
X8905801Y-22668347D01*
X9032401Y-22720787D01*
X9032405Y-22720788D01*
X9032407Y-22720789D01*
X9368187Y-22822648D01*
X9712334Y-22891104D01*
X10061534Y-22925499D01*
X10143215Y-22925499D01*
X10143227Y-22925500D01*
X10236979Y-22925500D01*
X10326370Y-22925501D01*
X10326375Y-22925500D01*
X14631868Y-22925500D01*
X14698907Y-22945185D01*
X14744662Y-22997989D01*
X14754606Y-23067147D01*
X14749799Y-23087818D01*
X14688910Y-23275210D01*
X14688910Y-23275213D01*
X14688910Y-23275214D01*
X14688910Y-23275215D01*
X14649500Y-23524038D01*
X14649500Y-24475962D01*
X14681823Y-24680039D01*
X14688910Y-24724785D01*
X14766760Y-24964383D01*
X14845413Y-25118747D01*
X14857991Y-25143433D01*
X14881132Y-25188848D01*
X15029201Y-25392649D01*
X15029205Y-25392654D01*
X15207345Y-25570794D01*
X15207350Y-25570798D01*
X15281297Y-25624523D01*
X15411155Y-25718870D01*
X15525750Y-25777259D01*
X15635616Y-25833239D01*
X15635618Y-25833239D01*
X15635621Y-25833241D01*
X15875215Y-25911090D01*
X16124038Y-25950500D01*
X16124039Y-25950500D01*
X16375960Y-25950500D01*
X16375962Y-25950500D01*
X16397078Y-25947155D01*
X16466371Y-25956109D01*
X16504158Y-25981947D01*
X17638181Y-27115969D01*
X17671666Y-27177292D01*
X17674500Y-27203650D01*
X17674500Y-27321781D01*
X17677234Y-27362102D01*
X17720567Y-27536350D01*
X17800346Y-27697209D01*
X17800347Y-27697210D01*
X17912841Y-27837159D01*
X18052790Y-27949653D01*
X18213651Y-28029433D01*
X18387900Y-28072766D01*
X18428216Y-28075500D01*
X18428218Y-28075500D01*
X19021782Y-28075500D01*
X19021784Y-28075500D01*
X19062100Y-28072766D01*
X19236349Y-28029433D01*
X19397210Y-27949653D01*
X19422313Y-27929474D01*
X19486895Y-27902815D01*
X19555640Y-27915305D01*
X19577685Y-27929473D01*
X19602790Y-27949653D01*
X19763651Y-28029433D01*
X19937900Y-28072766D01*
X19978216Y-28075500D01*
X19978218Y-28075500D01*
X20571782Y-28075500D01*
X20571784Y-28075500D01*
X20612100Y-28072766D01*
X20786349Y-28029433D01*
X20947210Y-27949653D01*
X21087159Y-27837159D01*
X21199653Y-27697210D01*
X21279433Y-27536349D01*
X21322766Y-27362100D01*
X21325500Y-27321784D01*
X21325500Y-27203649D01*
X21345185Y-27136610D01*
X21361814Y-27115972D01*
X22495842Y-25981944D01*
X22557163Y-25948461D01*
X22602914Y-25947154D01*
X22624038Y-25950500D01*
X22624044Y-25950500D01*
X22875961Y-25950500D01*
X22875962Y-25950500D01*
X23124785Y-25911090D01*
X23364379Y-25833241D01*
X23588845Y-25718870D01*
X23792656Y-25570793D01*
X23970793Y-25392656D01*
X24118870Y-25188845D01*
X24233241Y-24964379D01*
X24311090Y-24724785D01*
X24350500Y-24475962D01*
X24350500Y-23524038D01*
X24311090Y-23275215D01*
X24233241Y-23035621D01*
X24233239Y-23035618D01*
X24233239Y-23035616D01*
X24177132Y-22925501D01*
X24118870Y-22811155D01*
X24099952Y-22785117D01*
X23970798Y-22607350D01*
X23970794Y-22607345D01*
X23792654Y-22429205D01*
X23792649Y-22429201D01*
X23588848Y-22281132D01*
X23588847Y-22281131D01*
X23588845Y-22281130D01*
X23518747Y-22245413D01*
X23364383Y-22166760D01*
X23124785Y-22088910D01*
X23037340Y-22075060D01*
X22875962Y-22049500D01*
X22624038Y-22049500D01*
X22499626Y-22069205D01*
X22375214Y-22088910D01*
X22135616Y-22166760D01*
X21911151Y-22281132D01*
X21707350Y-22429201D01*
X21707345Y-22429205D01*
X21529205Y-22607345D01*
X21527516Y-22609323D01*
X21526687Y-22609863D01*
X21525762Y-22610789D01*
X21525567Y-22610594D01*
X21469002Y-22647505D01*
X21399134Y-22647991D01*
X21340094Y-22610627D01*
X21312962Y-22552293D01*
X21311917Y-22552532D01*
X21310803Y-22547651D01*
X21310628Y-22547275D01*
X21310506Y-22546351D01*
X21310368Y-22545745D01*
X21250789Y-22375478D01*
X21154816Y-22222738D01*
X21027262Y-22095184D01*
X20995232Y-22075058D01*
X20874523Y-21999211D01*
X20704254Y-21939631D01*
X20704249Y-21939630D01*
X20569960Y-21924500D01*
X20569954Y-21924500D01*
X20503651Y-21924500D01*
X20436612Y-21904815D01*
X20415970Y-21888181D01*
X20353861Y-21826072D01*
X20353858Y-21826067D01*
X20317541Y-21789751D01*
X20317542Y-21789751D01*
X20228098Y-21700308D01*
X20228093Y-21700304D01*
X20228091Y-21700302D01*
X20027389Y-21546298D01*
X20027387Y-21546297D01*
X19808311Y-21419815D01*
X19808294Y-21419806D01*
X19574583Y-21323000D01*
X19574576Y-21322998D01*
X19574574Y-21322997D01*
X19478210Y-21297176D01*
X19330219Y-21257523D01*
X19330211Y-21257521D01*
X19296245Y-21253049D01*
X19232349Y-21224781D01*
X19193879Y-21166455D01*
X19193049Y-21096591D01*
X19230123Y-21037368D01*
X19257328Y-21019028D01*
X19397210Y-20949653D01*
X19422313Y-20929474D01*
X19486895Y-20902815D01*
X19555640Y-20915305D01*
X19577685Y-20929473D01*
X19602790Y-20949653D01*
X19763651Y-21029433D01*
X19937900Y-21072766D01*
X19978216Y-21075500D01*
X19978218Y-21075500D01*
X20571782Y-21075500D01*
X20571784Y-21075500D01*
X20612100Y-21072766D01*
X20786349Y-21029433D01*
X20947210Y-20949653D01*
X21087159Y-20837159D01*
X21199653Y-20697210D01*
X21279433Y-20536349D01*
X21322766Y-20362100D01*
X21325500Y-20321784D01*
X21325500Y-20203649D01*
X21345185Y-20136610D01*
X21361814Y-20115972D01*
X22495842Y-18981944D01*
X22557163Y-18948461D01*
X22602914Y-18947154D01*
X22624038Y-18950500D01*
X22624044Y-18950500D01*
X22875961Y-18950500D01*
X22875962Y-18950500D01*
X23124785Y-18911090D01*
X23364379Y-18833241D01*
X23588845Y-18718870D01*
X23792656Y-18570793D01*
X23970793Y-18392656D01*
X24118870Y-18188845D01*
X24233241Y-17964379D01*
X24311090Y-17724785D01*
X24350500Y-17475962D01*
X24350500Y-16524038D01*
X24311090Y-16275215D01*
X24233241Y-16035621D01*
X24233239Y-16035617D01*
X24233239Y-16035616D01*
X24138917Y-15850500D01*
X24118870Y-15811155D01*
X23999972Y-15647505D01*
X23970798Y-15607350D01*
X23970794Y-15607345D01*
X23792654Y-15429205D01*
X23792649Y-15429201D01*
X23588848Y-15281132D01*
X23588847Y-15281131D01*
X23588845Y-15281130D01*
X23490593Y-15231068D01*
X23364383Y-15166760D01*
X23124785Y-15088910D01*
X22875962Y-15049500D01*
X22624038Y-15049500D01*
X22499626Y-15069205D01*
X22375214Y-15088910D01*
X22135616Y-15166760D01*
X21911151Y-15281132D01*
X21707350Y-15429201D01*
X21707345Y-15429205D01*
X21529205Y-15607345D01*
X21527516Y-15609323D01*
X21526687Y-15609863D01*
X21525762Y-15610789D01*
X21525567Y-15610594D01*
X21469002Y-15647505D01*
X21399134Y-15647991D01*
X21340094Y-15610627D01*
X21312962Y-15552293D01*
X21311917Y-15552532D01*
X21310803Y-15547651D01*
X21310628Y-15547275D01*
X21310506Y-15546351D01*
X21310368Y-15545745D01*
X21276690Y-15449500D01*
X21250789Y-15375478D01*
X21154816Y-15222738D01*
X21027262Y-15095184D01*
X21017277Y-15088910D01*
X20874523Y-14999211D01*
X20704254Y-14939631D01*
X20704249Y-14939630D01*
X20569960Y-14924500D01*
X20569954Y-14924500D01*
X20503654Y-14924500D01*
X20436615Y-14904815D01*
X20415977Y-14888185D01*
X20324833Y-14797040D01*
X20100240Y-14617934D01*
X19857006Y-14465100D01*
X19857003Y-14465098D01*
X19598190Y-14340460D01*
X19327044Y-14245583D01*
X19327042Y-14245582D01*
X19305624Y-14240694D01*
X19244646Y-14206585D01*
X19211788Y-14144924D01*
X19217483Y-14075286D01*
X19259923Y-14019783D01*
X19278123Y-14008715D01*
X19397206Y-13949655D01*
X19397206Y-13949654D01*
X19397210Y-13949653D01*
X19422313Y-13929474D01*
X19486895Y-13902815D01*
X19555640Y-13915305D01*
X19577685Y-13929473D01*
X19602790Y-13949653D01*
X19763651Y-14029433D01*
X19937900Y-14072766D01*
X19978216Y-14075500D01*
X19978218Y-14075500D01*
X20571782Y-14075500D01*
X20571784Y-14075500D01*
X20612100Y-14072766D01*
X20786349Y-14029433D01*
X20947210Y-13949653D01*
X21087159Y-13837159D01*
X21199653Y-13697210D01*
X21279433Y-13536349D01*
X21322766Y-13362100D01*
X21325500Y-13321784D01*
X21325500Y-13203649D01*
X21345185Y-13136610D01*
X21361814Y-13115972D01*
X22495842Y-11981944D01*
X22557163Y-11948461D01*
X22602914Y-11947154D01*
X22624038Y-11950500D01*
X22624044Y-11950500D01*
X22875961Y-11950500D01*
X22875962Y-11950500D01*
X23124785Y-11911090D01*
X23364379Y-11833241D01*
X23588845Y-11718870D01*
X23792656Y-11570793D01*
X23970793Y-11392656D01*
X24118870Y-11188845D01*
X24233241Y-10964379D01*
X24311090Y-10724785D01*
X24350500Y-10475962D01*
X24350500Y-9524038D01*
X24311090Y-9275215D01*
X24233241Y-9035621D01*
X24233239Y-9035618D01*
X24233239Y-9035616D01*
X24164144Y-8900011D01*
X24118870Y-8811155D01*
X24074683Y-8750336D01*
X23970798Y-8607350D01*
X23970794Y-8607345D01*
X23792654Y-8429205D01*
X23792649Y-8429201D01*
X23588848Y-8281132D01*
X23588847Y-8281131D01*
X23588845Y-8281130D01*
X23518747Y-8245413D01*
X23364383Y-8166760D01*
X23124785Y-8088910D01*
X22875962Y-8049500D01*
X22624038Y-8049500D01*
X22499626Y-8069205D01*
X22375214Y-8088910D01*
X22135616Y-8166760D01*
X21911151Y-8281132D01*
X21707350Y-8429201D01*
X21707345Y-8429205D01*
X21529205Y-8607345D01*
X21527516Y-8609323D01*
X21526687Y-8609863D01*
X21525762Y-8610789D01*
X21525567Y-8610594D01*
X21469002Y-8647505D01*
X21399134Y-8647991D01*
X21340094Y-8610627D01*
X21312962Y-8552293D01*
X21311917Y-8552532D01*
X21310803Y-8547651D01*
X21310628Y-8547275D01*
X21310506Y-8546351D01*
X21310368Y-8545745D01*
X21305976Y-8533193D01*
X21250789Y-8375478D01*
X21222067Y-8329768D01*
X21154815Y-8222737D01*
X21027262Y-8095184D01*
X20874523Y-7999211D01*
X20704254Y-7939631D01*
X20704249Y-7939630D01*
X20569960Y-7924500D01*
X20569954Y-7924500D01*
X20503654Y-7924500D01*
X20436615Y-7904815D01*
X20415977Y-7888185D01*
X20324833Y-7797040D01*
X20100240Y-7617934D01*
X19857006Y-7465100D01*
X19857003Y-7465098D01*
X19598190Y-7340460D01*
X19327044Y-7245583D01*
X19327038Y-7245581D01*
X19046974Y-7181660D01*
X18761526Y-7149499D01*
X18761522Y-7149499D01*
X18617890Y-7149500D01*
X16647193Y-7149500D01*
X16647173Y-7149499D01*
X16603038Y-7149499D01*
X16603010Y-7149491D01*
X16376226Y-7149491D01*
X16075470Y-7179115D01*
X16027023Y-7183888D01*
X16027021Y-7183888D01*
X16027014Y-7183889D01*
X15682872Y-7252346D01*
X15347099Y-7354204D01*
X15022913Y-7488488D01*
X15022908Y-7488490D01*
X14713470Y-7653889D01*
X14713452Y-7653900D01*
X14421712Y-7848835D01*
X14421698Y-7848845D01*
X14150463Y-8071442D01*
X14078568Y-8143336D01*
X14026404Y-8195499D01*
X14026405Y-8195500D01*
X14026404Y-8195501D01*
X13963195Y-8258710D01*
X13963193Y-8258712D01*
X12912181Y-9309723D01*
X12850858Y-9343208D01*
X12781166Y-9338224D01*
X12725233Y-9296352D01*
X12700816Y-9230888D01*
X12700500Y-9222042D01*
X12700500Y-8416045D01*
X12700500Y-8416043D01*
X12697683Y-8374502D01*
X12691156Y-8348258D01*
X12668887Y-8258712D01*
X12653037Y-8194976D01*
X12570842Y-8029244D01*
X12498809Y-7939632D01*
X12454940Y-7885056D01*
X12340459Y-7793034D01*
X12310753Y-7769155D01*
X12310751Y-7769154D01*
X12310750Y-7769153D01*
X12145023Y-7686961D01*
X12145021Y-7686960D01*
X11965497Y-7642314D01*
X11965501Y-7642314D01*
X11934339Y-7640201D01*
X11923954Y-7639497D01*
X11923952Y-7639497D01*
X11105427Y-7639497D01*
X11038388Y-7619812D01*
X11017746Y-7603178D01*
X9230685Y-5816117D01*
X9230683Y-5816114D01*
X9179246Y-5764676D01*
X9179241Y-5764672D01*
X9124936Y-5710367D01*
X9124888Y-5710323D01*
X9082568Y-5668003D01*
X8835319Y-5460535D01*
X8570926Y-5275404D01*
X8570923Y-5275402D01*
X8570920Y-5275400D01*
X8439573Y-5199567D01*
X8291402Y-5114020D01*
X8291386Y-5114012D01*
X7998889Y-4977617D01*
X7998881Y-4977614D01*
X7998879Y-4977613D01*
X7998872Y-4977610D01*
X7695571Y-4867217D01*
X7497920Y-4814256D01*
X7383805Y-4783679D01*
X7383798Y-4783678D01*
X7065944Y-4727631D01*
X6744407Y-4699500D01*
X6744404Y-4699500D01*
X6679099Y-4699500D01*
X5204613Y-4699500D01*
X5137574Y-4679815D01*
X5091819Y-4627011D01*
X5081875Y-4557853D01*
X5100805Y-4507678D01*
X5134172Y-4456605D01*
X5134173Y-4456604D01*
X5234063Y-4228878D01*
X5295108Y-3987818D01*
X5310994Y-3796104D01*
X5315643Y-3740002D01*
X5315643Y-3739991D01*
X5295109Y-3492184D01*
X5295107Y-3492172D01*
X5234063Y-3251115D01*
X5158439Y-3078711D01*
X27709507Y-3078711D01*
X27709507Y-3321288D01*
X27741168Y-3561785D01*
X27803954Y-3796104D01*
X27883361Y-3987809D01*
X27896783Y-4020212D01*
X28018071Y-4230289D01*
X28018073Y-4230292D01*
X28018074Y-4230293D01*
X28165740Y-4422736D01*
X28165746Y-4422743D01*
X28337263Y-4594260D01*
X28337270Y-4594266D01*
X28429165Y-4664779D01*
X28529718Y-4741936D01*
X28739795Y-4863224D01*
X28963907Y-4956054D01*
X29198218Y-5018838D01*
X29378593Y-5042584D01*
X29438718Y-5050500D01*
X29438719Y-5050500D01*
X29681296Y-5050500D01*
X29729395Y-5044167D01*
X29921796Y-5018838D01*
X30156107Y-4956054D01*
X30380219Y-4863224D01*
X30590296Y-4741936D01*
X30782745Y-4594265D01*
X30954272Y-4422738D01*
X31101943Y-4230289D01*
X31223231Y-4020212D01*
X31316061Y-3796100D01*
X31378845Y-3561789D01*
X31410507Y-3321288D01*
X31410507Y-3078712D01*
X31378845Y-2838211D01*
X31316061Y-2603900D01*
X31223231Y-2379788D01*
X31101943Y-2169711D01*
X31041025Y-2090321D01*
X30954273Y-1977263D01*
X30954267Y-1977256D01*
X30782750Y-1805739D01*
X30782743Y-1805733D01*
X30590300Y-1658067D01*
X30590299Y-1658066D01*
X30590296Y-1658064D01*
X30380219Y-1536776D01*
X30380212Y-1536773D01*
X30156111Y-1443947D01*
X29921792Y-1381161D01*
X29681296Y-1349500D01*
X29681295Y-1349500D01*
X29438719Y-1349500D01*
X29438718Y-1349500D01*
X29198221Y-1381161D01*
X28963902Y-1443947D01*
X28739801Y-1536773D01*
X28739792Y-1536777D01*
X28529713Y-1658067D01*
X28337270Y-1805733D01*
X28337263Y-1805739D01*
X28165746Y-1977256D01*
X28165740Y-1977263D01*
X28018074Y-2169706D01*
X27896784Y-2379785D01*
X27896780Y-2379794D01*
X27803954Y-2603895D01*
X27741168Y-2838214D01*
X27709507Y-3078711D01*
X5158439Y-3078711D01*
X5134173Y-3023390D01*
X4998166Y-2815214D01*
X4976557Y-2791741D01*
X4829744Y-2632259D01*
X4633509Y-2479523D01*
X4633507Y-2479522D01*
X4633506Y-2479521D01*
X4414811Y-2361169D01*
X4414802Y-2361166D01*
X4179616Y-2280426D01*
X3934335Y-2239497D01*
X3685665Y-2239497D01*
X3440383Y-2280426D01*
X3205197Y-2361166D01*
X3205188Y-2361169D01*
X2986493Y-2479521D01*
X2790257Y-2632258D01*
X2631230Y-2805007D01*
X2571342Y-2840998D01*
X2501504Y-2838897D01*
X2448770Y-2805007D01*
X2409108Y-2761923D01*
X2289744Y-2632259D01*
X2093509Y-2479523D01*
X2093507Y-2479522D01*
X2093506Y-2479521D01*
X1874811Y-2361169D01*
X1874802Y-2361166D01*
X1639616Y-2280426D01*
X1394335Y-2239497D01*
X1145665Y-2239497D01*
X900383Y-2280426D01*
X665197Y-2361166D01*
X665188Y-2361169D01*
X446493Y-2479521D01*
X250257Y-2632258D01*
X91230Y-2805007D01*
X31342Y-2840998D01*
X-38496Y-2838897D01*
X-91230Y-2805007D01*
X-250257Y-2632258D01*
X-446493Y-2479521D01*
X-665188Y-2361169D01*
X-665197Y-2361166D01*
X-900383Y-2280426D01*
X-1145665Y-2239497D01*
X-1394335Y-2239497D01*
X-1639616Y-2280426D01*
X-1874802Y-2361166D01*
X-1874811Y-2361169D01*
X-2093506Y-2479521D01*
X-2093507Y-2479522D01*
X-2093509Y-2479523D01*
X-2289744Y-2632259D01*
X-2436557Y-2791741D01*
X-2458166Y-2815214D01*
X-2594173Y-3023390D01*
X-2694063Y-3251115D01*
X-2755107Y-3492172D01*
X-2755109Y-3492184D01*
X-2775643Y-3739991D01*
X-2775643Y-3740002D01*
X-2770994Y-3796104D01*
X-2755108Y-3987818D01*
X-2694063Y-4228878D01*
X-2594173Y-4456604D01*
X-2458164Y-4664782D01*
X-2289744Y-4847735D01*
X-2093509Y-5000471D01*
X-1874810Y-5118825D01*
X-1639614Y-5199568D01*
X-1394335Y-5240497D01*
X-1200427Y-5240497D01*
X-1133388Y-5260182D01*
X-1112746Y-5276816D01*
X-951743Y-5437819D01*
X-918258Y-5499142D01*
X-923242Y-5568834D01*
X-965114Y-5624767D01*
X-1030578Y-5649184D01*
X-1039424Y-5649500D01*
X-10783626Y-5649500D01*
X-10873017Y-5649500D01*
X-11048463Y-5649500D01*
X-11134659Y-5657989D01*
X-11397663Y-5683892D01*
X-11741792Y-5752342D01*
X-11741803Y-5752345D01*
X-12077600Y-5854207D01*
X-12401778Y-5988488D01*
X-12401783Y-5988490D01*
X-12711234Y-6153896D01*
X-12711243Y-6153901D01*
X-13002972Y-6348827D01*
X-13002995Y-6348844D01*
X-13224250Y-6530424D01*
X-13274232Y-6571443D01*
X-13339058Y-6636269D01*
X-17456810Y-10754021D01*
X-17456833Y-10754042D01*
X-17479583Y-10776793D01*
X-17479596Y-10776807D01*
X-17479609Y-10776820D01*
X-17544788Y-10841999D01*
X-17587921Y-10885132D01*
X-17587930Y-10885142D01*
X-17602471Y-10899683D01*
X-17740222Y-11072418D01*
X-17773126Y-11124784D01*
X-17825459Y-11171075D01*
X-17894512Y-11181724D01*
X-17958361Y-11153349D01*
X-17996733Y-11094960D01*
X-18001696Y-11048573D01*
X-17998304Y-11007633D01*
X-17994357Y-10960000D01*
X-17994357Y-10959994D01*
X-18014890Y-10712187D01*
X-18014892Y-10712175D01*
X-18075936Y-10471118D01*
X-18175826Y-10243393D01*
X-18311833Y-10035217D01*
X-18480257Y-9852261D01*
X-18504400Y-9833469D01*
X-18563008Y-9787852D01*
X-18603821Y-9731143D01*
X-18607496Y-9661370D01*
X-18572864Y-9600687D01*
X-18563014Y-9592151D01*
X-18480256Y-9527738D01*
X-18311836Y-9344785D01*
X-18311833Y-9344782D01*
X-18175826Y-9136606D01*
X-18075936Y-8908881D01*
X-18014892Y-8667824D01*
X-18014890Y-8667812D01*
X-17994357Y-8420005D01*
X-17994357Y-8419994D01*
X-18014890Y-8172187D01*
X-18014892Y-8172175D01*
X-18075936Y-7931118D01*
X-18175826Y-7703393D01*
X-18311833Y-7495217D01*
X-18480257Y-7312261D01*
X-18676493Y-7159524D01*
X-18895188Y-7041172D01*
X-18895197Y-7041169D01*
X-19130383Y-6960429D01*
X-19375665Y-6919500D01*
X-19624335Y-6919500D01*
X-19869616Y-6960429D01*
X-20104802Y-7041169D01*
X-20104811Y-7041172D01*
X-20323506Y-7159524D01*
X-20323507Y-7159525D01*
X-20323509Y-7159526D01*
X-20519744Y-7312262D01*
X-20660439Y-7465098D01*
X-20688166Y-7495217D01*
X-20824173Y-7703393D01*
X-20924063Y-7931118D01*
X-20985107Y-8172175D01*
X-20985109Y-8172187D01*
X-21005643Y-8419994D01*
X-21005643Y-8420005D01*
X-20986751Y-8647991D01*
X-20985108Y-8667821D01*
X-20924063Y-8908881D01*
X-20824173Y-9136607D01*
X-20688164Y-9344785D01*
X-20519744Y-9527738D01*
X-20436991Y-9592147D01*
X-20396179Y-9648857D01*
X-20392504Y-9718630D01*
X-20427136Y-9779313D01*
X-20436985Y-9787848D01*
X-20519744Y-9852262D01*
X-20635477Y-9977982D01*
X-20688166Y-10035217D01*
X-20824173Y-10243393D01*
X-20924063Y-10471118D01*
X-20985107Y-10712175D01*
X-20985109Y-10712187D01*
X-21005643Y-10959994D01*
X-21005643Y-10960005D01*
X-20986680Y-11188848D01*
X-20985108Y-11207821D01*
X-20924063Y-11448881D01*
X-20824173Y-11676607D01*
X-20688164Y-11884785D01*
X-20519744Y-12067738D01*
X-20436991Y-12132147D01*
X-20396179Y-12188857D01*
X-20392504Y-12258630D01*
X-20427136Y-12319313D01*
X-20436985Y-12327848D01*
X-20519744Y-12392262D01*
X-20688164Y-12575215D01*
X-20718064Y-12620981D01*
X-20733937Y-12645276D01*
X-20787084Y-12690632D01*
X-20810154Y-12698345D01*
X-20967954Y-12734361D01*
X-20967966Y-12734365D01*
X-21207421Y-12818155D01*
X-21207443Y-12818164D01*
X-21436007Y-12928234D01*
X-21436013Y-12928238D01*
X-21650835Y-13063220D01*
X-21716980Y-13115969D01*
X-21849198Y-13221409D01*
X-21915970Y-13288181D01*
X-21977293Y-13321666D01*
X-22003651Y-13324500D01*
X-22069960Y-13324500D01*
X-22204249Y-13339630D01*
X-22204254Y-13339631D01*
X-22374523Y-13399211D01*
X-22527262Y-13495184D01*
X-22654815Y-13622737D01*
X-22750788Y-13775476D01*
X-22810368Y-13945745D01*
X-22810369Y-13945750D01*
X-22810809Y-13949655D01*
X-22825500Y-14080046D01*
X-22825500Y-14569954D01*
X-22810368Y-14704255D01*
X-22750789Y-14874522D01*
X-22654816Y-15027262D01*
X-22527262Y-15154816D01*
X-22374522Y-15250789D01*
X-22204255Y-15310368D01*
X-22204252Y-15310368D01*
X-22204249Y-15310369D01*
X-22137104Y-15317934D01*
X-22069958Y-15325499D01*
X-22069957Y-15325500D01*
X-22069954Y-15325500D01*
X-21430043Y-15325500D01*
X-21430040Y-15325499D01*
X-21386246Y-15320565D01*
X-21295750Y-15310369D01*
X-21295745Y-15310368D01*
X-21267041Y-15300324D01*
X-21125478Y-15250789D01*
X-21125477Y-15250788D01*
X-21125473Y-15250787D01*
X-21007142Y-15176434D01*
X-20939906Y-15157433D01*
X-20873071Y-15177800D01*
X-20827856Y-15231068D01*
X-20818618Y-15300324D01*
X-20827614Y-15331237D01*
X-20924063Y-15551118D01*
X-20985107Y-15792175D01*
X-20985109Y-15792187D01*
X-21005280Y-16035621D01*
X-21005643Y-16040000D01*
X-20985108Y-16287821D01*
X-20924063Y-16528881D01*
X-20824173Y-16756607D01*
X-20688164Y-16964785D01*
X-20519744Y-17147738D01*
X-20436991Y-17212147D01*
X-20396179Y-17268857D01*
X-20392504Y-17338630D01*
X-20427136Y-17399313D01*
X-20436985Y-17407848D01*
X-20519744Y-17472262D01*
X-20587394Y-17545750D01*
X-20688166Y-17655217D01*
X-20824173Y-17863393D01*
X-20924063Y-18091118D01*
X-20985107Y-18332175D01*
X-20985109Y-18332187D01*
X-21005643Y-18579994D01*
X-21005643Y-18580005D01*
X-20985109Y-18827812D01*
X-20985108Y-18827821D01*
X-20924063Y-19068881D01*
X-20824173Y-19296607D01*
X-20688164Y-19504785D01*
X-20519744Y-19687738D01*
X-20323509Y-19840474D01*
X-20104810Y-19958828D01*
X-19869614Y-20039571D01*
X-19624335Y-20080500D01*
X-19375665Y-20080500D01*
X-19130386Y-20039571D01*
X-18895190Y-19958828D01*
X-18753222Y-19881998D01*
X-18684894Y-19867404D01*
X-18619522Y-19892067D01*
X-18577861Y-19948157D01*
X-18573139Y-20017867D01*
X-18606524Y-20078735D01*
X-20415970Y-21888181D01*
X-20477293Y-21921666D01*
X-20503651Y-21924500D01*
X-20569960Y-21924500D01*
X-20704249Y-21939630D01*
X-20704254Y-21939631D01*
X-20874523Y-21999211D01*
X-20995232Y-22075058D01*
X-21027262Y-22095184D01*
X-21154816Y-22222738D01*
X-21250789Y-22375478D01*
X-21310368Y-22545745D01*
X-21311917Y-22552532D01*
X-21313976Y-22552061D01*
X-21337071Y-22607053D01*
X-21394658Y-22646619D01*
X-21464495Y-22648770D01*
X-21524408Y-22612824D01*
X-21527516Y-22609323D01*
X-21529205Y-22607345D01*
X-21707345Y-22429205D01*
X-21707350Y-22429201D01*
X-21911151Y-22281132D01*
X-22135616Y-22166760D01*
X-22375214Y-22088910D01*
X-22499626Y-22069205D01*
X-22624038Y-22049500D01*
X-22875962Y-22049500D01*
X-23037340Y-22075060D01*
X-23124785Y-22088910D01*
X-23364383Y-22166760D01*
X-23518747Y-22245413D01*
X-23588845Y-22281130D01*
X-23588847Y-22281131D01*
X-23588848Y-22281132D01*
X-23792649Y-22429201D01*
X-23792654Y-22429205D01*
X-23970794Y-22607345D01*
X-23970798Y-22607350D01*
X-24099952Y-22785117D01*
X-24118870Y-22811155D01*
X-24177132Y-22925501D01*
X-24233239Y-23035616D01*
X-24233239Y-23035618D01*
X-24233241Y-23035621D01*
X-24311090Y-23275215D01*
X-24350500Y-23524038D01*
X-26360007Y-23524038D01*
X-26360007Y-8905920D01*
X-26362197Y-8741973D01*
X-26379368Y-8609323D01*
X-26404288Y-8416812D01*
X-26415277Y-8375476D01*
X-26488524Y-8099941D01*
X-26613454Y-7796811D01*
X-26613457Y-7796803D01*
X-26776942Y-7512605D01*
X-26776944Y-7512603D01*
X-26790247Y-7495217D01*
X-26976184Y-7252205D01*
X-26976183Y-7252205D01*
X-26976187Y-7252201D01*
X-26976188Y-7252200D01*
X-27207743Y-7020096D01*
X-27207744Y-7020095D01*
X-27467676Y-6820234D01*
X-27467679Y-6820231D01*
X-27751490Y-6656074D01*
X-28054331Y-6530424D01*
X-28054332Y-6530423D01*
X-28054334Y-6530423D01*
X-28130981Y-6509853D01*
X-28370996Y-6445439D01*
X-28371000Y-6445438D01*
X-28371002Y-6445438D01*
X-28449203Y-6435126D01*
X-28696058Y-6402577D01*
X-28696048Y-6402577D01*
X-28766321Y-6401472D01*
X-28860000Y-6400000D01*
X-28860020Y-6400000D01*
X-29559141Y-6400000D01*
X-29560813Y-6399989D01*
X-29566207Y-6399916D01*
X-29733455Y-6397657D01*
X-29745663Y-6396888D01*
X-30089534Y-6358144D01*
X-30103244Y-6355815D01*
X-30439807Y-6278996D01*
X-30453168Y-6275147D01*
X-30779016Y-6161129D01*
X-30791864Y-6155807D01*
X-31102891Y-6006024D01*
X-31115061Y-5999298D01*
X-31407366Y-5815631D01*
X-31418707Y-5807584D01*
X-31688610Y-5592344D01*
X-31698978Y-5583078D01*
X-31943079Y-5338978D01*
X-31952345Y-5328610D01*
X-32167586Y-5058706D01*
X-32175633Y-5047365D01*
X-32359300Y-4755060D01*
X-32366026Y-4742890D01*
X-32515808Y-4431866D01*
X-32521130Y-4419019D01*
X-32635151Y-4093166D01*
X-32639000Y-4079804D01*
X-32715818Y-3743244D01*
X-32718147Y-3729534D01*
X-32756798Y-3386494D01*
X-32757578Y-3372611D01*
X-32757578Y-3078712D01*
X-31410507Y-3078712D01*
X-31410507Y-3321288D01*
X-31378845Y-3561789D01*
X-31316061Y-3796100D01*
X-31223231Y-4020212D01*
X-31101943Y-4230289D01*
X-30954272Y-4422738D01*
X-30782745Y-4594265D01*
X-30590296Y-4741936D01*
X-30380219Y-4863224D01*
X-30156107Y-4956054D01*
X-29921796Y-5018838D01*
X-29729395Y-5044167D01*
X-29681296Y-5050500D01*
X-29681295Y-5050500D01*
X-29438718Y-5050500D01*
X-29378593Y-5042584D01*
X-29198218Y-5018838D01*
X-28963907Y-4956054D01*
X-28739795Y-4863224D01*
X-28529718Y-4741936D01*
X-28429165Y-4664779D01*
X-28337270Y-4594266D01*
X-28337263Y-4594260D01*
X-28165746Y-4422743D01*
X-28165740Y-4422736D01*
X-28018074Y-4230293D01*
X-28018073Y-4230292D01*
X-28018071Y-4230289D01*
X-27896783Y-4020212D01*
X-27883361Y-3987809D01*
X-27803954Y-3796104D01*
X-27741168Y-3561785D01*
X-27709507Y-3321288D01*
X-27709507Y-3078711D01*
X-27741168Y-2838214D01*
X-27803954Y-2603895D01*
X-27896780Y-2379794D01*
X-27896784Y-2379785D01*
X-28018074Y-2169706D01*
X-28165740Y-1977263D01*
X-28165746Y-1977256D01*
X-28337263Y-1805739D01*
X-28337270Y-1805733D01*
X-28529713Y-1658067D01*
X-28739792Y-1536777D01*
X-28739801Y-1536773D01*
X-28963902Y-1443947D01*
X-29198221Y-1381161D01*
X-29438718Y-1349500D01*
X-29438719Y-1349500D01*
X-29681295Y-1349500D01*
X-29681296Y-1349500D01*
X-29921792Y-1381161D01*
X-30156111Y-1443947D01*
X-30380212Y-1536773D01*
X-30380219Y-1536776D01*
X-30590296Y-1658064D01*
X-30590299Y-1658066D01*
X-30590300Y-1658067D01*
X-30782743Y-1805733D01*
X-30782750Y-1805739D01*
X-30954267Y-1977256D01*
X-30954273Y-1977263D01*
X-31041025Y-2090321D01*
X-31101943Y-2169711D01*
X-31223231Y-2379788D01*
X-31316061Y-2603900D01*
X-31378845Y-2838211D01*
X-31410507Y-3078712D01*
X-32757578Y-3078712D01*
X-32757578Y-3027388D01*
X-32756798Y-3013505D01*
X-32718147Y-2670465D01*
X-32715818Y-2656755D01*
X-32639000Y-2320195D01*
X-32635151Y-2306833D01*
X-32521130Y-1980980D01*
X-32515808Y-1968133D01*
X-32366026Y-1657109D01*
X-32359300Y-1644939D01*
X-32175633Y-1352634D01*
X-32167586Y-1341293D01*
X-31952345Y-1071389D01*
X-31943079Y-1061021D01*
X-31698978Y-816921D01*
X-31688610Y-807655D01*
X-31418707Y-592415D01*
X-31407366Y-584368D01*
X-31115191Y-400783D01*
X-31115060Y-400700D01*
X-31102891Y-393975D01*
X-30791858Y-244189D01*
X-30779021Y-238872D01*
X-30505859Y-143289D01*
X-30453168Y-124852D01*
X-30439807Y-121003D01*
X-30103229Y-44181D01*
X-30089549Y-41857D01*
X-29745657Y-3110D01*
X-29733461Y-2342D01*
X-29560814Y-10D01*
X-29559141Y0D01*
X29559118Y0D01*
X29560855Y-12D01*
G37*
%TD.AperFunction*%
%TD*%
M02*
