%TF.GenerationSoftware,KiCad,Pcbnew,8.0.3*%
%TF.CreationDate,2024-11-12T18:15:59+09:00*%
%TF.ProjectId,UI-20240325,55492d32-3032-4343-9033-32352e6b6963,rev?*%
%TF.SameCoordinates,Original*%
%TF.FileFunction,Soldermask,Bot*%
%TF.FilePolarity,Negative*%
%FSLAX46Y46*%
G04 Gerber Fmt 4.6, Leading zero omitted, Abs format (unit mm)*
G04 Created by KiCad (PCBNEW 8.0.3) date 2024-11-12 18:15:59*
%MOMM*%
%LPD*%
G01*
G04 APERTURE LIST*
G04 Aperture macros list*
%AMRoundRect*
0 Rectangle with rounded corners*
0 $1 Rounding radius*
0 $2 $3 $4 $5 $6 $7 $8 $9 X,Y pos of 4 corners*
0 Add a 4 corners polygon primitive as box body*
4,1,4,$2,$3,$4,$5,$6,$7,$8,$9,$2,$3,0*
0 Add four circle primitives for the rounded corners*
1,1,$1+$1,$2,$3*
1,1,$1+$1,$4,$5*
1,1,$1+$1,$6,$7*
1,1,$1+$1,$8,$9*
0 Add four rect primitives between the rounded corners*
20,1,$1+$1,$2,$3,$4,$5,0*
20,1,$1+$1,$4,$5,$6,$7,0*
20,1,$1+$1,$6,$7,$8,$9,0*
20,1,$1+$1,$8,$9,$2,$3,0*%
G04 Aperture macros list end*
%ADD10C,3.200000*%
%ADD11O,2.000000X2.700000*%
%ADD12R,1.800000X1.800000*%
%ADD13C,1.800000*%
%ADD14RoundRect,0.200000X-0.200000X-0.275000X0.200000X-0.275000X0.200000X0.275000X-0.200000X0.275000X0*%
%ADD15RoundRect,0.200000X0.200000X0.275000X-0.200000X0.275000X-0.200000X-0.275000X0.200000X-0.275000X0*%
%ADD16RoundRect,0.200000X-0.275000X0.200000X-0.275000X-0.200000X0.275000X-0.200000X0.275000X0.200000X0*%
%ADD17RoundRect,0.250000X0.600000X0.725000X-0.600000X0.725000X-0.600000X-0.725000X0.600000X-0.725000X0*%
%ADD18O,1.700000X1.950000*%
%ADD19C,1.500000*%
G04 APERTURE END LIST*
D10*
%TO.C,REF\u002A\u002A*%
X29560007Y-3200000D03*
%TD*%
D11*
%TO.C,SW2*%
X-16250000Y-24000000D03*
X-22750000Y-24000000D03*
%TD*%
%TO.C,SW4*%
X16250000Y-17000000D03*
X22750000Y-17000000D03*
%TD*%
%TO.C,SW3*%
X16250000Y-10000000D03*
X22750000Y-10000000D03*
%TD*%
%TO.C,SW5*%
X16250000Y-24000000D03*
X22750000Y-24000000D03*
%TD*%
D12*
%TO.C,U1*%
X-3810000Y-3739997D03*
D13*
X-1270000Y-3739997D03*
X1270000Y-3739997D03*
X3810000Y-3739997D03*
%TD*%
D10*
%TO.C,REF\u002A\u002A*%
X-29560007Y-3200000D03*
%TD*%
D13*
%TO.C,SW1*%
X-19500000Y-8420000D03*
X-19500000Y-18580000D03*
X-19500000Y-10960000D03*
X-19500000Y-13500000D03*
X-19500000Y-16040000D03*
%TD*%
D14*
%TO.C,R10*%
X-825000Y-29500000D03*
X825000Y-29500000D03*
%TD*%
D15*
%TO.C,R7*%
X20325000Y-16000000D03*
X18675000Y-16000000D03*
%TD*%
%TO.C,R11*%
X20325000Y-25000000D03*
X18675000Y-25000000D03*
%TD*%
D16*
%TO.C,R1*%
X-17250000Y-12675000D03*
X-17250000Y-14325000D03*
%TD*%
D15*
%TO.C,R9*%
X20325000Y-23000000D03*
X18675000Y-23000000D03*
%TD*%
%TO.C,R6*%
X20325000Y-11000000D03*
X18675000Y-11000000D03*
%TD*%
D16*
%TO.C,R2*%
X-21750000Y-12675000D03*
X-21750000Y-14325000D03*
%TD*%
D14*
%TO.C,R4*%
X-20325000Y-25000000D03*
X-18675000Y-25000000D03*
%TD*%
D15*
%TO.C,R5*%
X20325000Y-9000000D03*
X18675000Y-9000000D03*
%TD*%
D17*
%TO.C,J1*%
X11250000Y-9214997D03*
D18*
X8750000Y-9214997D03*
X6250000Y-9214997D03*
X3750000Y-9214997D03*
X1250000Y-9214997D03*
X-1250000Y-9214997D03*
X-3750000Y-9214997D03*
X-6250000Y-9214997D03*
X-8750000Y-9214997D03*
X-11250000Y-9214997D03*
%TD*%
D15*
%TO.C,R8*%
X20325000Y-18000000D03*
X18675000Y-18000000D03*
%TD*%
D14*
%TO.C,R3*%
X-20325000Y-23000000D03*
X-18675000Y-23000000D03*
%TD*%
D19*
%TO.C,BZ1*%
X2500000Y-20739997D03*
X-2500000Y-20739997D03*
%TD*%
M02*
