0
SECTION
2
HEADER
9
$INSUNITS
70
4
9
$ACADVER
1
AC1014
9
$HANDSEED
5
FFFF
0
ENDSEC
0
SECTION
2
TABLES
0
TABLE
2
VPORT
5
8
100
AcDbSymbolTable
0
ENDTAB
0
TABLE
2
LTYPE
5
5
100
AcDbSymbolTable
0
LTYPE
5
14
100
AcDbSymbolTableRecord
100
AcDbLinetypeTableRecord
2
BYBLOCK
70
0
0
LTYPE
5
15
100
AcDbSymbolTableRecord
100
AcDbLinetypeTableRecord
2
BYLAYER
70
0
0
ENDTAB
0
TABLE
2
LAYER
5
2
100
AcDbSymbolTable
70
2
0
LAYER
5
50
100
AcDbSymbolTableRecord
100
AcDbLayerTableRecord
2
0
70
0
6
CONTINUOUS
0
ENDTAB
0
TABLE
2
STYLE
5
3
100
AcDbSymbolTable
70
1
0
STYLE
5
11
100
AcDbSymbolTableRecord
100
AcDbTextStyleTableRecord
2
STANDARD
70
0
0
ENDTAB
0
TABLE
2
VIEW
5
6
100
AcDbSymbolTable
70
0
0
ENDTAB
0
TABLE
2
UCS
5
7
100
AcDbSymbolTable
70
0
0
ENDTAB
0
TABLE
2
APPID
5
9
100
AcDbSymbolTable
70
2
0
APPID
5
12
100
AcDbSymbolTableRecord
100
AcDbRegAppTableRecord
2
ACAD
70
0
0
ENDTAB
0
TABLE
2
DIMSTYLE
5
A
100
AcDbSymbolTable
70
1
0
ENDTAB
0
TABLE
2
BLOCK_RECORD
5
1
100
AcDbSymbolTable
70
1
0
BLOCK_RECORD
5
1F
100
AcDbSymbolTableRecord
100
AcDbBlockTableRecord
2
*MODEL_SPACE
0
BLOCK_RECORD
5
1B
100
AcDbSymbolTableRecord
100
AcDbBlockTableRecord
2
*PAPER_SPACE
0
ENDTAB
0
ENDSEC
0
SECTION
2
BLOCKS
0
BLOCK
5
20
100
AcDbEntity
100
AcDbBlockBegin
2
*MODEL_SPACE
0
ENDBLK
5
21
100
AcDbEntity
100
AcDbBlockEnd
0
BLOCK
5
1C
100
AcDbEntity
100
AcDbBlockBegin
2
*PAPER_SPACE
0
ENDBLK
5
1D
100
AcDbEntity
100
AcDbBlockEnd
0
ENDSEC
0
SECTION
2
ENTITIES
0
CIRCLE
5
100
100
AcDbEntity
8
0
100
AcDbCircle
10
-47.073245999999997
20
-25.000013000000003
30
0
40
1.6000000000000014
210
0
220
-0
230
1
0
CIRCLE
5
101
100
AcDbEntity
8
0
100
AcDbCircle
10
-47.073245999999997
20
24.999987000000004
30
0
40
1.6000000000000014
210
0
220
-0
230
1
0
CIRCLE
5
102
100
AcDbEntity
8
0
100
AcDbCircle
10
-31.636863257624384
20
86.92156742269654
30
0
40
1.599999999999997
210
0
220
-0
230
1
0
CIRCLE
5
103
100
AcDbEntity
8
0
100
AcDbCircle
10
-86.921567422696526
20
-31.636863257624348
30
0
40
1.6000000000000014
210
0
220
-0
230
1
0
CIRCLE
5
104
100
AcDbEntity
8
0
100
AcDbCircle
10
31.636863257624348
20
86.92156742269654
30
0
40
1.599999999999997
210
0
220
-0
230
1
0
CIRCLE
5
105
100
AcDbEntity
8
0
100
AcDbCircle
10
-86.921567422696526
20
31.63686325762437
30
0
40
1.6000000000000014
210
0
220
-0
230
1
0
LWPOLYLINE
5
106
100
AcDbEntity
8
0
100
AcDbPolyline
90
28
70
1
43
0.0
10
-44.893263513192835
20
-27.738193362556149
42
0.39612720269866397
10
-45.483298032263598
20
-31.804395924278921
42
0.52097365921987082
10
45.483289526320263
20
-31.80440808857994
42
0.39612517299744193
10
44.893272565381423
20
-27.738218481709115
42
-0.83092274404125566
10
48.1210520153288
20
-21.660541062186695
42
0.39612517299744732
10
51.820276936216992
20
-19.87231486902775
42
0.18516818661474396
10
51.820286819917037
20
19.872289095661149
42
0.39612570623068877
10
48.121057511184361
20
21.660515472841947
42
-0.83092426751472526
10
44.893279750036939
20
27.738196405477783
42
0.39612570623068655
10
45.483302725582718
20
31.804389212387008
42
0.046377638107222514
10
38.841908778419125
20
39.642857142856968
42
0.19626156828141039
10
36.742346141747817
20
40.499999999999844
10
18.000000223517418
20
40.499999999999844
42
0.41421356237309531
10
15.000000223517418
20
37.499999999999851
10
15.000000223517416
20
28.499999999999844
42
-0.41421356237309481
10
12.00000022351742
20
25.499999999999847
10
-27
20
25.499999999999847
42
-0.41421356237309503
10
-30
20
28.499999999999844
10
-30
20
37.499999999999851
42
0.41421356237309503
10
-33
20
40.499999999999844
10
-36.742346141747824
20
40.499999999999844
42
0.19626156828141236
10
-38.841908778419125
20
39.642857142856997
42
0.046377674606915636
10
-45.483307359017999
20
31.804382586132665
42
0.39612528774263295
10
-44.893287187035966
20
27.738192568783258
42
-0.83092307187369063
10
-48.121063408598019
20
21.660512871727637
42
0.39612528774263317
10
-51.820288430737804
20
19.872284895178581
42
0.1851680154543679
10
-51.820288479769296
20
-19.872284767320792
42
0.39612720269865986
10
-48.121044510363092
20
-21.660506806517191
42
-0.83092854300791141
0
CIRCLE
5
107
100
AcDbEntity
8
0
100
AcDbCircle
10
47.073236000000009
20
24.999987000000004
30
0
40
1.6000000000000014
210
0
220
-0
230
1
0
CIRCLE
5
108
100
AcDbEntity
8
0
100
AcDbCircle
10
47.073235000000004
20
-25.000014000000004
30
0
40
1.6000000000000014
210
0
220
-0
230
1
0
CIRCLE
5
109
100
AcDbEntity
8
0
100
AcDbCircle
10
86.921567422696526
20
-31.636863257624359
30
0
40
1.6000000000000014
210
0
220
-0
230
1
0
CIRCLE
5
110
100
AcDbEntity
8
0
100
AcDbCircle
10
86.921567422696526
20
31.636863257624359
30
0
40
1.6000000000000014
210
0
220
-0
230
1
0
CIRCLE
5
111
100
AcDbEntity
8
0
100
AcDbCircle
10
28.718617223412171
20
-90.073643456455329
30
0
40
1.599999999999997
210
0
220
-0
230
1
0
CIRCLE
5
112
100
AcDbEntity
8
0
100
AcDbCircle
10
-28.718617223412171
20
-90.073643456455329
30
0
40
1.599999999999997
210
0
220
-0
230
1
0
LWPOLYLINE
5
113
100
AcDbEntity
8
0
100
AcDbPolyline
90
76
70
1
43
0.0
10
31.234709289339591
20
-86.599085383827216
42
0.1990965518107238
10
30.379917985692625
20
-84.465911015101725
42
0.14328466236931156
10
9.5773057401337418
20
-72.775384095278739
42
-0.83211772567404729
10
9.7088408082990121
20
-69.828278012272122
42
0.33874661474382051
10
69.939471324171024
20
-8.8724489795918355
42
-0.37771960464296667
10
72.915619040093191
20
-6.2500000000000044
10
83.992187136661698
20
-6.2499999999999947
42
-0.44671756389417433
10
86.974158277608325
20
-9.5784023668638874
42
-0.051601560903793996
10
83.169963127499372
20
-27.184687479726435
42
0.18361144148246475
10
83.270674306118266
20
-29.313785298158233
42
-0.1471888050839332
10
83.474485521441494
20
-31.030541258980126
42
0.84733633636758898
10
89.986499422759195
20
-33.326890427521853
42
-0.14486115387137352
10
91.197919270476916
20
-32.130510023731901
42
0.19285150050881289
10
92.6324848497826
20
-30.421583629962754
42
0.1600020304473371
10
92.6324848497825
20
30.421583629962679
42
0.19285150050880134
10
91.19791927047703
20
32.130510023731745
42
-0.14486115387135992
10
89.986499422759394
20
33.326890427521704
42
0.84733633636763439
10
83.474485521441423
20
31.030541258979977
42
-0.14718880508396676
10
83.27067430611821
20
29.313785298158116
42
0.18361144148244701
10
83.169963127499372
20
27.184687479726488
42
-0.051601560903794107
10
86.974158277608282
20
9.5784023668638927
42
-0.44671756389418155
10
83.992187136661713
20
6.2499999999999991
10
72.915619040093205
20
6.2499999999999956
42
-0.377719604642964
10
69.939471324171024
20
8.8724489795918053
42
0.34208538490160662
10
8.8724489795919066
20
69.939471324171009
42
-0.37771960464297794
10
6.2499999999999893
20
72.915619040093191
10
6.2499999999999929
20
83.992187136661698
42
-0.44671756389418377
10
9.5784023668639264
20
86.974158277608268
42
-0.051601560903793885
10
27.184687479726477
20
83.169963127499358
42
0.183611441482459
10
29.313785298158219
20
83.270674306118281
42
-0.14718880508393409
10
31.030541258980115
20
83.474485521441508
42
0.84733633636758954
10
33.326890427521853
20
89.986499422759209
42
-0.14486115387136944
10
32.130510023731887
20
91.19791927047693
42
0.19285150050881325
10
30.421583629962726
20
92.6324848497826
42
0.16000203044733677
10
-30.421583629962704
20
92.632484849782514
42
0.19285150050880118
10
-32.130510023731773
20
91.19791927047703
42
-0.14486115387135903
10
-33.326890427521725
20
89.986499422759408
42
0.84733633636763495
10
-31.030541258980001
20
83.474485521441437
42
-0.1471888050839881
10
-29.313785298158137
20
83.270674306118224
42
0.18361144148244701
10
-27.184687479726591
20
83.169963127499287
42
-0.051601560903794218
10
-9.5784023668639247
20
86.974158277608282
42
-0.44671756389418121
10
-6.2500000000000187
20
83.992187136661727
10
-6.2500000000000178
20
72.915619040093219
42
-0.37771960464296322
10
-8.8724489795918391
20
69.939471324171038
42
0.34208538490160523
10
-69.939471324171038
20
8.8724489795918799
42
-0.37771960464296706
10
-72.915619040093219
20
6.2500000000000133
10
-83.992187136661698
20
6.2500000000000071
42
-0.4467175638941831
10
-86.974158277608282
20
9.5784023668638838
42
-0.051601560903793885
10
-83.169963127499358
20
27.184687479726488
42
0.18361144148246056
10
-83.270674306118266
20
29.313785298158241
42
-0.1471888050839332
10
-83.474485521441494
20
31.030541258980136
42
0.84733633636758898
10
-89.986499422759195
20
33.326890427521867
42
-0.1448611538713733
10
-91.197919270476916
20
32.130510023731908
42
0.19285150050881278
10
-92.6324848497826
20
30.421583629962772
42
0.16000203044733644
10
-92.632484849782514
20
-30.421583629962655
42
0.19285150050880276
10
-91.19791927047703
20
-32.130510023731738
42
-0.14486115387136458
10
-89.986499422759394
20
-33.32689042752169
42
0.84733633636763439
10
-83.474485521441423
20
-31.030541258979966
42
-0.14718880508396676
10
-83.27067430611821
20
-29.313785298158109
42
0.18361144148244701
10
-83.169963127499358
20
-27.184687479726499
42
-0.051601560903793885
10
-86.974158277608282
20
-9.5784023668638962
42
-0.44671756389417983
10
-83.992187136661713
20
-6.2499999999999893
10
-72.915619040093191
20
-6.2499999999999867
42
-0.37771960464296594
10
-69.939471324171038
20
-8.8724489795918267
42
0.33874661474360795
10
-9.7088408083529956
20
-69.828278012272435
42
-0.83211772567321274
10
-9.5773057401870503
20
-72.775384095278469
42
0.14328466236900009
10
-30.379917985701926
20
-84.46591101509263
42
0.19909655181073138
10
-31.234709289339694
20
-86.599085383827287
42
-0.14331975748962886
10
-31.68870564596595
20
-88.222002356724602
42
0.84683233757514409
10
-26.511470657245297
20
-92.789983647863195
42
-0.14909419060022361
10
-24.890244566447794
20
-92.1305054771519
42
0.17621677862428842
10
-23.033959120023081
20
-91.258462420510753
42
-0.41575701585012514
10
23.033959120023091
20
-91.258462420510767
42
0.17621677862431614
10
24.890244566448118
20
-92.130505477152241
42
-0.14909419060024845
10
26.511470657245621
20
-92.789983647863465
42
0.84683233757509968
10
31.688705645965911
20
-88.222002356724559
42
-0.14331975748960449
0
ENDSEC
0
SECTION
2
OBJECTS
0
DICTIONARY
5
C
100
AcDbDictionary
3
ACAD_GROUP
350
D
3
ACAD_MLINESTYLE
350
17
0
DICTIONARY
5
D
100
AcDbDictionary
0
DICTIONARY
5
1A
330
C
100
AcDbDictionary
0
DICTIONARY
5
17
100
AcDbDictionary
0
ENDSEC
0
EOF
