0
SECTION
2
HEADER
9
$INSUNITS
70
4
9
$ACADVER
1
AC1014
9
$HANDSEED
5
FFFF
0
ENDSEC
0
SECTION
2
TABLES
0
TABLE
2
VPORT
5
8
100
AcDbSymbolTable
0
ENDTAB
0
TABLE
2
LTYPE
5
5
100
AcDbSymbolTable
0
LTYPE
5
14
100
AcDbSymbolTableRecord
100
AcDbLinetypeTableRecord
2
BYBLOCK
70
0
0
LTYPE
5
15
100
AcDbSymbolTableRecord
100
AcDbLinetypeTableRecord
2
BYLAYER
70
0
0
ENDTAB
0
TABLE
2
LAYER
5
2
100
AcDbSymbolTable
70
2
0
LAYER
5
50
100
AcDbSymbolTableRecord
100
AcDbLayerTableRecord
2
0
70
0
6
CONTINUOUS
0
ENDTAB
0
TABLE
2
STYLE
5
3
100
AcDbSymbolTable
70
1
0
STYLE
5
11
100
AcDbSymbolTableRecord
100
AcDbTextStyleTableRecord
2
STANDARD
70
0
0
ENDTAB
0
TABLE
2
VIEW
5
6
100
AcDbSymbolTable
70
0
0
ENDTAB
0
TABLE
2
UCS
5
7
100
AcDbSymbolTable
70
0
0
ENDTAB
0
TABLE
2
APPID
5
9
100
AcDbSymbolTable
70
2
0
APPID
5
12
100
AcDbSymbolTableRecord
100
AcDbRegAppTableRecord
2
ACAD
70
0
0
ENDTAB
0
TABLE
2
DIMSTYLE
5
A
100
AcDbSymbolTable
70
1
0
ENDTAB
0
TABLE
2
BLOCK_RECORD
5
1
100
AcDbSymbolTable
70
1
0
BLOCK_RECORD
5
1F
100
AcDbSymbolTableRecord
100
AcDbBlockTableRecord
2
*MODEL_SPACE
0
BLOCK_RECORD
5
1B
100
AcDbSymbolTableRecord
100
AcDbBlockTableRecord
2
*PAPER_SPACE
0
ENDTAB
0
ENDSEC
0
SECTION
2
BLOCKS
0
BLOCK
5
20
100
AcDbEntity
100
AcDbBlockBegin
2
*MODEL_SPACE
0
ENDBLK
5
21
100
AcDbEntity
100
AcDbBlockEnd
0
BLOCK
5
1C
100
AcDbEntity
100
AcDbBlockBegin
2
*PAPER_SPACE
0
ENDBLK
5
1D
100
AcDbEntity
100
AcDbBlockEnd
0
ENDSEC
0
SECTION
2
ENTITIES
0
CIRCLE
5
100
100
AcDbEntity
8
0
100
AcDbCircle
10
0
20
0
30
0
40
55.500000000000007
210
0
220
0
230
1
0
LWPOLYLINE
5
101
100
AcDbEntity
8
0
100
AcDbPolyline
90
76
70
1
43
0.0
10
-92.632484849782486
20
30.421583629962715
42
0.16000203044733682
10
-92.6324848497825
20
-30.421583629962697
42
0.19285150050879971
10
-91.19791927047703
20
-32.130510023731745
42
-0.14486115387136345
10
-89.986499422759394
20
-33.326890427521704
42
0.84733633636763439
10
-83.474485521441423
20
-31.03054125897998
42
-0.1471888050839755
10
-83.27067430611821
20
-29.313785298158116
42
0.18361144148244782
10
-83.169963127499358
20
-27.184687479726438
42
-0.051601560903793885
10
-86.974158277608282
20
-9.5784023668638874
42
-0.44671756389417788
10
-83.992187136661713
20
-6.2499999999999991
10
-72.915619040093191
20
-6.2499999999999982
42
-0.37771960464296317
10
-69.939471324171024
20
-8.8724489795918089
42
0.34208538490160612
10
-8.8724489795918622
20
-69.939471324171024
42
-0.37771960464297039
10
-6.2499999999999893
20
-72.915619040093191
10
-6.2499999999999787
20
-83.992187136661698
42
-0.44671756389418155
10
-9.5784023668639193
20
-86.974158277608268
42
-0.051601560903793885
10
-27.184687479726474
20
-83.169963127499358
42
0.18361144148245942
10
-29.313785298158219
20
-83.270674306118281
42
-0.14718880508393262
10
-31.030541258980119
20
-83.474485521441508
42
0.84733633636758987
10
-33.326890427521839
20
-89.986499422759209
42
-0.14486115387136356
10
-32.130510023731887
20
-91.19791927047693
42
0.19285150050881306
10
-30.421583629962701
20
-92.632484849782514
42
0.16000203044733688
10
30.421583629962726
20
-92.632484849782514
42
0.19285150050879932
10
32.130510023731773
20
-91.197919270477058
42
-0.14486115387136322
10
33.326890427521725
20
-89.986499422759408
42
0.84733633636763439
10
31.030541258980001
20
-83.474485521441451
42
-0.14718880508397583
10
29.313785298158137
20
-83.270674306118224
42
0.18361144148244782
10
27.18468747972647
20
-83.169963127499358
42
-0.051601560903793885
10
9.5784023668639211
20
-86.974158277608282
42
-0.44671756389417666
10
6.2500000000000187
20
-83.992187136661727
10
6.2500000000000133
20
-72.915619040093219
42
-0.37771960464296378
10
8.8724489795918409
20
-69.939471324171052
42
0.342085384901606
10
69.939471324171038
20
-8.8724489795918675
42
-0.37771960464296733
10
72.915619040093219
20
-6.2500000000000124
10
83.992187136661698
20
-6.2500000000000044
42
-0.44671756389417966
10
86.974158277608282
20
-9.5784023668638305
42
-0.051601560903794218
10
83.169963127499344
20
-27.184687479726499
42
0.18361144148245942
10
83.270674306118266
20
-29.313785298158237
42
-0.14718880508393228
10
83.474485521441494
20
-31.030541258980136
42
0.84733633636758987
10
89.986499422759195
20
-33.326890427521867
42
-0.144861153871363
10
91.197919270476916
20
-32.130510023731908
42
0.19285150050881289
10
92.632484849782486
20
-30.421583629962733
42
0.16000203044733682
10
92.6324848497825
20
30.421583629962683
42
0.19285150050879987
10
91.19791927047703
20
32.13051002373173
42
-0.14486115387136378
10
89.986499422759394
20
33.32689042752169
42
0.84733633636763439
10
83.474485521441423
20
31.030541258979973
42
-0.1471888050839755
10
83.27067430611821
20
29.313785298158109
42
0.18361144148244782
10
83.169963127499358
20
27.184687479726449
42
-0.051601560903793885
10
86.974158277608282
20
9.5784023668638962
42
-0.44671756389417966
10
83.992187136661713
20
6.2499999999999893
10
72.915619040093191
20
6.2499999999999893
42
-0.37771960464296767
10
69.939471324171024
20
8.8724489795918267
42
0.33874661474360873
10
9.7088408083529885
20
69.828278012272435
42
-0.83211772567320874
10
9.5773057401870503
20
72.775384095278469
42
0.14328466236900025
10
30.379917985692696
20
84.465911015101668
42
0.19909655181073022
10
31.234709289339687
20
86.599085383827287
42
-0.14331975748962772
10
31.68870564596595
20
88.222002356724602
42
0.84683233757514376
10
26.511470657245297
20
92.789983647863195
42
-0.14909419060022314
10
24.890244566447791
20
92.1305054771519
42
0.17621677862428739
10
23.033959120023081
20
91.258462420510753
42
-0.41575701585012514
10
-23.033959120023084
20
91.258462420510767
42
0.17621677862431667
10
-24.890244566448118
20
92.130505477152241
42
-0.14909419060025436
10
-26.511470657245621
20
92.789983647863465
42
0.84683233757510024
10
-31.688705645965911
20
88.222002356724545
42
-0.14331975748960257
10
-31.234709289339591
20
86.599085383827216
42
0.1990965518107233
10
-30.379917985692689
20
84.465911015101668
42
0.14328466236931178
10
-9.5773057401337329
20
72.775384095278724
42
-0.83211772567404596
10
-9.7088408082990156
20
69.828278012272136
42
0.33874661474381984
10
-69.939471324171024
20
8.8724489795918267
42
-0.37771960464296461
10
-72.915619040093191
20
6.2500000000000036
10
-83.992187136661698
20
6.250000000000008
42
-0.44671756389417666
10
-86.974158277608282
20
9.5784023668638199
42
-0.051601560903794218
10
-83.169963127499344
20
27.184687479726488
42
0.18361144148245942
10
-83.270674306118266
20
29.313785298158233
42
-0.14718880508393228
10
-83.474485521441494
20
31.030541258980126
42
0.84733633636758987
10
-89.986499422759195
20
33.326890427521853
42
-0.14486115387136334
10
-91.197919270476916
20
32.130510023731901
42
0.19285150050881306
0
CIRCLE
5
102
100
AcDbEntity
8
0
100
AcDbCircle
10
-86.921567422696526
20
31.636863257624359
30
0
40
1.5999999999999965
210
0
220
0
230
1
0
CIRCLE
5
103
100
AcDbEntity
8
0
100
AcDbCircle
10
-86.921567422696526
20
-31.636863257624359
30
0
40
1.5999999999999965
210
0
220
0
230
1
0
CIRCLE
5
104
100
AcDbEntity
8
0
100
AcDbCircle
10
28.718617223412171
20
90.073643456455329
30
0
40
1.5999999999999956
210
0
220
0
230
1
0
CIRCLE
5
105
100
AcDbEntity
8
0
100
AcDbCircle
10
-28.718617223412171
20
90.073643456455329
30
0
40
1.5999999999999956
210
0
220
0
230
1
0
CIRCLE
5
106
100
AcDbEntity
8
0
100
AcDbCircle
10
-31.636863257624348
20
-86.92156742269654
30
0
40
1.5999999999999965
210
0
220
0
230
1
0
CIRCLE
5
107
100
AcDbEntity
8
0
100
AcDbCircle
10
31.636863257624384
20
-86.92156742269654
30
0
40
1.5999999999999965
210
0
220
0
230
1
0
CIRCLE
5
108
100
AcDbEntity
8
0
100
AcDbCircle
10
86.921567422696526
20
-31.63686325762437
30
0
40
1.5999999999999965
210
0
220
0
230
1
0
CIRCLE
5
109
100
AcDbEntity
8
0
100
AcDbCircle
10
86.921567422696526
20
31.636863257624348
30
0
40
1.5999999999999965
210
0
220
0
230
1
0
ENDSEC
0
SECTION
2
OBJECTS
0
DICTIONARY
5
C
100
AcDbDictionary
3
ACAD_GROUP
350
D
3
ACAD_MLINESTYLE
350
17
0
DICTIONARY
5
D
100
AcDbDictionary
0
DICTIONARY
5
1A
330
C
100
AcDbDictionary
0
DICTIONARY
5
17
100
AcDbDictionary
0
ENDSEC
0
EOF
