<?xml version="1.0" standalone="no"?>
<!DOCTYPE svg PUBLIC "-//W3C//DTD SVG 20010904//EN"
 "http://www.w3.org/TR/2001/REC-SVG-20010904/DTD/svg10.dtd">
<svg version="1.0" xmlns="http://www.w3.org/2000/svg"
 width="646.000000pt" height="316.000000pt" viewBox="0 0 646.000000 316.000000"
 preserveAspectRatio="xMidYMid meet">

<g transform="translate(0.000000,316.000000) scale(0.100000,-0.100000)"
fill="#000000" stroke="none">
<path d="M680 1795 l0 -1065 2550 0 2550 0 0 1065 0 1065 -2550 0 -2550 0 0
-1065z m1948 560 c74 -33 139 -99 170 -174 11 -28 18 -51 14 -51 -4 0 -62 -7
-127 -15 -165 -21 -157 -22 -180 28 -16 34 -28 45 -63 57 -40 14 -45 13 -80
-5 -48 -26 -78 -83 -92 -173 -16 -101 -13 -111 25 -80 93 78 245 94 355 38 48
-24 125 -102 149 -149 46 -91 50 -218 11 -324 -66 -177 -273 -261 -518 -211
-228 46 -334 222 -333 549 1 261 78 425 237 500 78 37 123 44 254 41 102 -2
122 -6 178 -31z m1500 0 c74 -33 139 -99 170 -174 11 -28 18 -51 14 -51 -4 0
-62 -7 -127 -15 -165 -21 -157 -22 -180 28 -16 34 -28 45 -63 57 -40 14 -45
13 -80 -5 -48 -26 -78 -83 -92 -173 -16 -101 -13 -111 25 -80 93 78 245 94
355 38 48 -24 125 -102 149 -149 46 -91 50 -218 11 -324 -66 -177 -273 -261
-518 -211 -228 46 -334 222 -333 549 1 261 78 425 237 500 78 37 123 44 254
41 102 -2 122 -6 178 -31z m736 -365 c66 -209 121 -378 122 -377 1 1 54 170
118 376 64 206 118 376 120 378 2 2 77 2 168 1 l165 -3 -197 -530 -197 -530
-182 0 -183 0 -192 510 c-106 281 -196 520 -200 533 l-7 22 173 0 173 0 119
-380z m-3352 108 l3 -143 138 -3 137 -3 0 -114 0 -114 -137 -3 -138 -3 -3
-137 -3 -138 -119 0 -120 0 0 140 0 140 -140 0 -140 0 0 115 0 115 140 0 140
0 0 145 0 145 120 0 119 0 3 -142z m1788 -648 l0 -150 -160 0 -160 0 0 150 0
150 160 0 160 0 0 -150z"/>
<path d="M2340 1808 c-48 -32 -70 -80 -70 -152 0 -110 60 -186 146 -186 86 0
137 63 138 170 2 115 -44 179 -133 188 -36 3 -53 -1 -81 -20z"/>
<path d="M3840 1808 c-48 -32 -70 -80 -70 -152 0 -110 60 -186 146 -186 86 0
137 63 138 170 2 115 -44 179 -133 188 -36 3 -53 -1 -81 -20z"/>
</g>
</svg>
