<?xml version="1.0" standalone="no"?>
<!DOCTYPE svg PUBLIC "-//W3C//DTD SVG 20010904//EN"
 "http://www.w3.org/TR/2001/REC-SVG-20010904/DTD/svg10.dtd">
<svg version="1.0" xmlns="http://www.w3.org/2000/svg"
 width="422.000000pt" height="316.000000pt" viewBox="0 0 422.000000 316.000000"
 preserveAspectRatio="xMidYMid meet">

<g transform="translate(0.000000,316.000000) scale(0.100000,-0.100000)"
fill="#000000" stroke="none">
<path d="M520 1800 l0 -1060 1590 0 1590 0 0 1060 0 1060 -1590 0 -1590 0 0
-1060z m2540 45 l0 -545 -155 0 -155 0 -2 354 -3 355 -60 -40 c-53 -35 -160
-85 -222 -104 -23 -6 -23 -6 -23 117 l0 124 53 17 c111 35 221 118 284 215
l34 52 124 0 125 0 0 -545z m-1536 223 c44 -167 82 -309 86 -316 3 -7 43 128
87 300 l80 313 221 3 222 2 0 -535 0 -535 -140 0 -140 0 -1 393 0 392 -102
-393 -102 -392 -124 2 -124 3 -103 395 -103 395 0 -397 -1 -398 -135 0 -135 0
0 535 0 535 218 0 218 0 78 -302z"/>
</g>
</svg>
