<?xml version="1.0" standalone="no"?>
<!DOCTYPE svg PUBLIC "-//W3C//DTD SVG 20010904//EN"
 "http://www.w3.org/TR/2001/REC-SVG-20010904/DTD/svg10.dtd">
<svg version="1.0" xmlns="http://www.w3.org/2000/svg"
 width="422.000000pt" height="316.000000pt" viewBox="0 0 422.000000 316.000000"
 preserveAspectRatio="xMidYMid meet">

<g transform="translate(0.000000,316.000000) scale(0.100000,-0.100000)"
fill="#000000" stroke="none">
<path d="M520 1800 l0 -1060 1590 0 1590 0 0 1060 0 1060 -1590 0 -1590 0 0
-1060z m2464 575 c162 -34 258 -144 258 -293 0 -142 -72 -244 -275 -393 -119
-87 -167 -128 -167 -141 0 -4 101 -8 225 -8 l225 0 0 -120 0 -120 -445 0
c-349 0 -445 3 -445 13 0 28 29 116 54 168 56 115 121 181 362 370 128 101
169 153 169 215 0 55 -29 94 -83 114 -37 13 -47 13 -84 0 -48 -18 -75 -49 -91
-111 l-12 -45 -143 12 c-79 7 -146 14 -148 17 -8 7 25 127 46 166 40 77 132
141 233 160 69 14 247 12 321 -4z m-1460 -307 c44 -167 82 -309 86 -316 3 -7
43 128 87 300 l80 313 221 3 222 2 0 -535 0 -535 -140 0 -140 0 -1 393 0 392
-102 -393 -102 -392 -124 2 -124 3 -103 395 -103 395 0 -397 -1 -398 -135 0
-135 0 0 535 0 535 218 0 218 0 78 -302z"/>
</g>
</svg>
