<?xml version="1.0" standalone="no"?>
<!DOCTYPE svg PUBLIC "-//W3C//DTD SVG 20010904//EN"
 "http://www.w3.org/TR/2001/REC-SVG-20010904/DTD/svg10.dtd">
<svg version="1.0" xmlns="http://www.w3.org/2000/svg"
 width="1920.000000pt" height="1080.000000pt" viewBox="0 0 1920.000000 1080.000000"
 preserveAspectRatio="xMidYMid meet">

<g transform="translate(0.000000,1080.000000) scale(0.100000,-0.100000)"
fill="#000000" stroke="none">
<path d="M17710 6400 c-106 -23 -180 -101 -180 -193 0 -51 22 -117 39 -117 14
0 13 10 -4 40 -25 43 -19 98 14 131 25 24 38 29 78 29 111 0 213 -90 213 -189
0 -81 -52 -131 -173 -165 -105 -30 -154 -95 -172 -228 -8 -58 7 -63 24 -8 26
89 90 92 204 9 85 -62 199 -72 270 -25 69 46 89 158 42 229 -35 51 -62 48 -35
-4 15 -28 -4 -59 -37 -59 -14 0 -47 13 -72 28 -25 16 -64 35 -86 42 l-39 13
52 23 c130 57 192 130 192 225 -1 93 -52 170 -138 206 -43 18 -136 24 -192 13z"/>
<path d="M4493 6025 c-190 -35 -277 -121 -320 -315 -25 -117 -25 -431 0 -538
43 -179 96 -247 237 -297 113 -41 361 -37 482 7 69 25 141 84 170 141 59 117
88 348 68 548 -31 309 -110 413 -348 454 -101 18 -191 18 -289 0z m266 -215
c22 -11 49 -35 61 -55 35 -57 53 -188 47 -355 -5 -162 -18 -234 -50 -281 -66
-96 -257 -104 -336 -13 -51 58 -65 125 -65 324 0 246 20 321 103 377 46 31
182 33 240 3z"/>
<path d="M13922 6025 c-141 -26 -233 -89 -277 -189 -45 -103 -59 -197 -59
-396 0 -424 92 -561 394 -590 248 -24 425 32 504 158 78 125 105 431 61 684
-26 150 -95 253 -200 298 -108 46 -281 60 -423 35z m272 -218 c83 -47 111
-155 103 -406 -7 -244 -36 -315 -140 -346 -64 -19 -113 -19 -168 0 -65 23 -97
59 -120 137 -19 61 -20 87 -17 270 4 160 8 212 22 248 34 91 82 119 201 119
65 1 88 -4 119 -22z"/>
<path d="M1780 5910 l0 -100 173 -2 172 -3 3 -473 2 -473 121 3 120 3 -1 460
c0 253 4 466 8 472 6 9 57 13 176 15 l168 3 0 95 0 95 -471 3 -471 2 0 -100z"/>
<path d="M6650 5435 l0 -575 120 0 120 0 0 575 0 575 -120 0 -120 0 0 -575z"/>
<path d="M8430 5994 c69 -19 131 -55 192 -112 54 -50 96 -128 263 -487 198
-425 208 -440 341 -502 l59 -28 535 -2 c492 -3 531 -2 480 12 -88 25 -155 62
-215 121 -60 60 -74 85 -316 603 -130 279 -160 320 -267 373 l-67 33 -530 2
c-484 2 -525 1 -475 -13z"/>
<path d="M10010 6004 c0 -7 324 -703 351 -754 18 -35 18 -30 19 363 l0 397
-185 0 c-102 0 -185 -3 -185 -6z"/>
<path d="M11820 5435 l0 -576 120 3 120 3 0 570 0 570 -120 3 -120 3 0 -576z"/>
<path d="M15990 5910 l0 -100 170 0 170 0 0 -462 c0 -255 4 -469 8 -476 6 -9
39 -12 126 -10 l117 3 2 470 2 470 173 3 172 2 0 100 0 100 -470 0 -470 0 0
-100z"/>
<path d="M8330 5262 l0 -402 190 0 c180 0 190 1 181 18 -5 10 -89 189 -186
397 -97 209 -179 382 -181 384 -2 2 -4 -176 -4 -397z"/>
<path d="M3028 4138 c-3 -30 -6 -33 -41 -36 -48 -4 -72 -37 -63 -87 5 -26 12
-35 26 -35 17 0 20 7 20 40 l0 41 72 -3 c59 -2 73 -6 76 -20 7 -35 -31 -90
-84 -124 -37 -23 -51 -39 -48 -49 9 -22 24 -19 77 15 111 70 140 220 42 220
-31 0 -34 3 -37 32 -4 47 -35 51 -40 6z"/>
<path d="M14606 4163 c-7 -7 23 -43 36 -43 4 0 8 7 8 15 0 16 -34 38 -44 28z"/>
<path d="M16807 4163 c-4 -3 -7 -19 -7 -35 0 -25 -3 -28 -34 -28 -48 0 -68
-23 -64 -74 2 -28 8 -41 18 -41 10 0 15 10 15 34 0 31 4 36 35 44 38 10 116 1
125 -14 20 -31 -59 -136 -114 -154 -22 -7 -28 -29 -11 -40 18 -11 99 44 126
85 35 52 44 128 19 147 -11 7 -31 13 -47 13 -21 0 -28 5 -28 19 0 39 -17 61
-33 44z"/>
<path d="M4224 4125 c-15 -20 -56 -59 -93 -87 -72 -57 -82 -68 -75 -80 10 -16
33 -8 78 27 26 19 48 35 51 35 3 0 5 -36 5 -80 0 -73 2 -80 20 -80 19 0 20 7
20 102 0 93 2 104 26 135 24 32 27 63 5 63 -6 0 -22 -16 -37 -35z"/>
<path d="M7648 4106 c-26 -29 -70 -68 -97 -87 -50 -34 -67 -69 -33 -69 9 0 37
16 62 36 l45 36 3 -81 c3 -73 5 -81 22 -81 19 0 20 7 20 101 0 94 2 103 25
131 25 30 30 59 10 64 -5 2 -31 -21 -57 -50z"/>
<path d="M1854 4137 c-2 -7 -3 -71 -2 -142 3 -114 5 -130 21 -133 15 -3 17 6
17 72 0 45 4 76 10 76 6 0 28 -12 50 -26 38 -25 70 -27 70 -4 0 14 -89 70
-112 70 -15 0 -18 8 -18 50 0 38 -4 50 -15 50 -9 0 -18 -6 -21 -13z"/>
<path d="M8798 4118 l-3 -33 -78 -3 c-68 -2 -78 -5 -75 -20 2 -13 17 -18 66
-22 l63 -5 -33 -31 c-18 -17 -50 -43 -70 -59 -21 -15 -38 -34 -38 -41 0 -29
42 -12 105 41 69 59 80 58 73 -2 -2 -20 -9 -29 -26 -31 -26 -4 -40 -28 -24
-44 7 -7 21 -7 46 2 42 14 51 35 44 115 l-5 54 36 3 c24 2 37 9 39 20 2 13 -5
17 -35 20 -33 3 -39 7 -43 33 -8 44 -38 46 -42 3z"/>
<path d="M11040 4005 c0 -134 1 -146 18 -143 14 3 18 16 20 76 2 39 6 72 10
72 4 0 24 -11 44 -25 43 -29 71 -33 66 -8 -4 20 -75 72 -100 73 -13 0 -18 11
-20 47 -2 36 -7 49 -20 51 -17 3 -18 -9 -18 -143z"/>
<path d="M6340 4120 c0 -18 8 -20 118 -22 96 -2 117 -6 117 -18 0 -10 -12 -16
-37 -18 -22 -2 -38 1 -38 7 0 6 -9 11 -20 11 -17 0 -20 -7 -20 -45 0 -49 -25
-108 -58 -138 -22 -20 -19 -47 3 -47 22 0 75 72 89 120 12 43 15 45 56 51 28
4 50 14 62 28 23 30 23 46 -2 71 -18 18 -33 20 -145 20 -118 0 -125 -1 -125
-20z"/>
<path d="M14576 4132 c-7 -11 31 -48 41 -38 4 3 -2 16 -14 27 -11 12 -23 17
-27 11z"/>
<path d="M12279 4093 c-32 -52 -105 -129 -145 -154 -34 -21 -43 -42 -24 -54
16 -10 71 29 132 92 60 64 92 117 84 139 -9 23 -23 16 -47 -23z"/>
<path d="M14425 4121 c-8 -14 62 -64 80 -57 20 7 10 29 -24 49 -33 19 -47 21
-56 8z"/>
<path d="M5217 4113 c-15 -14 -5 -32 34 -57 38 -26 69 -29 69 -7 0 9 -78 71
-90 71 -4 0 -10 -3 -13 -7z"/>
<path d="M13282 4073 c3 -16 15 -18 93 -18 78 0 90 2 93 18 3 15 -7 17 -93 17
-86 0 -96 -2 -93 -17z"/>
<path d="M5410 4029 c-25 -22 -78 -56 -117 -76 -70 -35 -88 -55 -60 -66 36
-14 251 128 245 160 -5 28 -21 23 -68 -18z"/>
<path d="M14579 4017 c-31 -29 -82 -66 -114 -83 -59 -30 -69 -50 -24 -48 50 3
214 130 214 166 0 25 -23 15 -76 -35z"/>
<path d="M9896 4052 c-8 -13 23 -72 39 -72 18 0 19 20 3 55 -11 24 -32 33 -42
17z"/>
<path d="M9996 4048 c-3 -7 -7 -26 -11 -42 -6 -29 -58 -88 -104 -117 -20 -12
-21 -16 -9 -27 25 -20 101 38 132 100 30 59 34 98 11 98 -9 0 -17 -6 -19 -12z"/>
<path d="M14380 4045 c0 -12 66 -55 85 -55 17 0 0 38 -24 53 -36 21 -61 22
-61 2z"/>
<path d="M15588 4044 c-18 -17 -5 -24 45 -24 66 0 97 -9 97 -26 0 -11 -18 -14
-75 -14 -60 0 -75 -3 -75 -15 0 -12 15 -15 76 -15 66 0 75 -2 72 -17 -3 -15
-17 -19 -78 -23 -43 -3 -74 -9 -73 -15 4 -15 152 -18 169 -4 16 13 19 115 4
139 -10 16 -149 28 -162 14z"/>
<path d="M9830 4030 c0 -18 30 -70 40 -70 18 0 20 20 5 50 -15 29 -45 42 -45
20z"/>
<path d="M13235 3949 c-15 -24 16 -30 146 -27 111 3 134 6 134 18 0 12 -23 15
-137 18 -92 2 -139 -1 -143 -9z"/>
</g>
</svg>
