<?xml version="1.0" standalone="no"?>
<!DOCTYPE svg PUBLIC "-//W3C//DTD SVG 20010904//EN"
 "http://www.w3.org/TR/2001/REC-SVG-20010904/DTD/svg10.dtd">
<svg version="1.0" xmlns="http://www.w3.org/2000/svg"
 width="1920.000000pt" height="1080.000000pt" viewBox="0 0 1920.000000 1080.000000"
 preserveAspectRatio="xMidYMid meet">

<g transform="translate(0.000000,1080.000000) scale(0.100000,-0.100000)"
fill="#000000" stroke="none">
<path d="M17697 6400 c-114 -29 -188 -124 -173 -222 9 -56 33 -99 51 -92 11 5
12 10 4 26 -37 70 -28 137 21 163 103 53 270 -56 270 -177 0 -72 -55 -123
-172 -158 -37 -12 -81 -32 -97 -46 -41 -34 -70 -98 -77 -172 -6 -53 -5 -62 10
-62 9 0 16 8 16 20 0 29 26 76 45 84 35 13 64 4 135 -42 84 -55 127 -72 178
-72 129 0 220 111 183 223 -15 44 -57 85 -72 70 -8 -8 -8 -13 0 -17 6 -4 11
-20 11 -36 0 -49 -33 -48 -132 3 l-86 44 57 26 c179 82 233 238 124 358 -53
58 -105 82 -188 85 -38 2 -87 -1 -108 -6z"/>
<path d="M4493 6025 c-190 -35 -277 -121 -320 -315 -25 -117 -25 -431 0 -538
43 -179 96 -247 237 -297 113 -41 361 -37 482 7 69 25 141 84 170 141 59 117
88 348 68 548 -31 309 -110 413 -348 454 -101 18 -191 18 -289 0z m266 -215
c22 -11 49 -35 61 -55 35 -57 53 -188 47 -355 -5 -162 -18 -234 -50 -281 -66
-96 -257 -104 -336 -13 -51 58 -65 125 -65 324 0 246 20 321 103 377 46 31
182 33 240 3z"/>
<path d="M13922 6025 c-141 -26 -233 -89 -277 -189 -45 -103 -59 -197 -59
-396 0 -424 92 -561 394 -590 248 -24 425 32 504 158 78 125 105 431 61 684
-26 150 -95 253 -200 298 -108 46 -281 60 -423 35z m272 -218 c83 -47 111
-155 103 -406 -7 -244 -36 -315 -140 -346 -64 -19 -113 -19 -168 0 -65 23 -97
59 -120 137 -19 61 -20 87 -17 270 4 160 8 212 22 248 34 91 82 119 201 119
65 1 88 -4 119 -22z"/>
<path d="M1780 5910 l0 -100 173 -2 172 -3 3 -473 2 -473 121 3 120 3 -1 460
c0 253 4 466 8 472 6 9 57 13 176 15 l168 3 0 95 0 95 -471 3 -471 2 0 -100z"/>
<path d="M6650 5435 l0 -575 120 0 120 0 0 575 0 575 -120 0 -120 0 0 -575z"/>
<path d="M8430 5994 c69 -19 131 -55 192 -112 54 -50 96 -128 263 -487 198
-425 208 -440 341 -502 l59 -28 535 -2 c492 -3 531 -2 480 12 -88 25 -155 62
-215 121 -60 60 -74 85 -316 603 -130 279 -160 320 -267 373 l-67 33 -530 2
c-484 2 -525 1 -475 -13z"/>
<path d="M10010 6004 c0 -7 323 -702 351 -754 18 -35 18 -31 19 363 l0 397
-185 0 c-102 0 -185 -3 -185 -6z"/>
<path d="M11820 5435 l0 -576 120 3 120 3 0 570 0 570 -120 3 -120 3 0 -576z"/>
<path d="M15990 5910 l0 -100 170 0 170 0 0 -462 c0 -255 4 -469 8 -476 6 -9
39 -12 126 -10 l117 3 2 470 2 470 173 3 172 2 0 100 0 100 -470 0 -470 0 0
-100z"/>
<path d="M8330 5262 l0 -402 190 0 c180 0 190 1 181 18 -5 10 -89 189 -186
397 -97 209 -179 382 -181 384 -2 2 -4 -176 -4 -397z"/>
<path d="M3028 4138 c-3 -30 -6 -33 -41 -36 -48 -4 -72 -37 -63 -87 5 -26 12
-35 26 -35 17 0 20 7 20 40 l0 41 72 -3 c59 -2 73 -6 76 -20 7 -35 -31 -90
-84 -124 -37 -23 -51 -39 -48 -49 9 -22 24 -19 77 15 111 70 140 220 42 220
-31 0 -34 3 -37 32 -4 47 -35 51 -40 6z"/>
<path d="M14600 4162 c0 -14 39 -46 47 -38 4 4 2 15 -3 24 -12 19 -44 29 -44
14z"/>
<path d="M16798 4138 c-3 -30 -6 -33 -41 -36 -48 -4 -69 -33 -60 -85 4 -27 11
-37 24 -37 13 0 19 9 21 38 l3 37 73 3 72 3 0 -28 c0 -41 -34 -90 -85 -121
-25 -15 -45 -35 -45 -44 0 -24 17 -22 64 5 52 29 92 82 107 139 12 42 11 49
-6 68 -11 12 -31 20 -51 20 -30 0 -33 3 -36 32 -4 47 -35 51 -40 6z"/>
<path d="M4224 4125 c-15 -20 -56 -59 -93 -87 -72 -57 -82 -68 -75 -80 10 -16
33 -8 78 27 26 19 48 35 51 35 3 0 5 -36 5 -80 0 -73 2 -80 20 -80 19 0 20 7
20 102 0 93 2 104 26 135 24 32 27 63 5 63 -6 0 -22 -16 -37 -35z"/>
<path d="M7648 4106 c-26 -29 -70 -68 -97 -87 -50 -34 -67 -69 -33 -69 9 0 37
16 62 36 l45 36 3 -81 c3 -73 5 -81 22 -81 19 0 20 7 20 101 0 94 2 103 25
131 25 30 30 59 10 64 -5 2 -31 -21 -57 -50z"/>
<path d="M1854 4137 c-2 -7 -3 -71 -2 -142 3 -114 5 -130 21 -133 15 -3 17 6
17 72 0 45 4 76 10 76 6 0 28 -12 50 -26 38 -25 70 -27 70 -4 0 14 -89 70
-112 70 -15 0 -18 8 -18 50 0 38 -4 50 -15 50 -9 0 -18 -6 -21 -13z"/>
<path d="M8798 4118 l-3 -33 -78 -3 c-68 -2 -78 -5 -75 -20 2 -13 17 -18 66
-22 l63 -5 -33 -31 c-18 -17 -50 -43 -70 -59 -21 -15 -38 -34 -38 -41 0 -29
42 -12 105 41 69 59 80 58 73 -2 -2 -20 -9 -29 -26 -31 -26 -4 -40 -28 -24
-44 7 -7 21 -7 46 2 42 14 51 35 44 115 l-5 54 36 3 c24 2 37 9 39 20 2 13 -5
17 -35 20 -33 3 -39 7 -43 33 -8 44 -38 46 -42 3z"/>
<path d="M11040 4005 c0 -134 1 -146 18 -143 14 3 18 16 20 76 2 39 6 72 10
72 4 0 24 -11 44 -25 43 -29 71 -33 66 -8 -4 20 -75 72 -100 73 -13 0 -18 11
-20 47 -2 36 -7 49 -20 51 -17 3 -18 -9 -18 -143z"/>
<path d="M6340 4120 c0 -18 8 -20 118 -22 96 -2 117 -6 117 -18 0 -10 -12 -16
-37 -18 -22 -2 -38 1 -38 7 0 6 -9 11 -20 11 -17 0 -20 -7 -20 -45 0 -49 -25
-108 -58 -138 -22 -20 -19 -47 3 -47 22 0 75 72 89 120 12 43 15 45 56 51 28
4 50 14 62 28 23 30 23 46 -2 71 -18 18 -33 20 -145 20 -118 0 -125 -1 -125
-20z"/>
<path d="M14427 4133 c-15 -14 -5 -32 28 -53 34 -21 65 -21 65 -1 0 10 -68 61
-81 61 -3 0 -9 -3 -12 -7z"/>
<path d="M14572 4124 c4 -20 34 -41 44 -31 8 8 -24 47 -38 47 -5 0 -8 -7 -6
-16z"/>
<path d="M12279 4093 c-32 -52 -105 -129 -145 -154 -34 -21 -43 -42 -24 -54
16 -10 71 29 132 92 60 64 92 117 84 139 -9 23 -23 16 -47 -23z"/>
<path d="M5217 4113 c-15 -14 -5 -32 34 -57 38 -26 69 -29 69 -7 0 9 -78 71
-90 71 -4 0 -10 -3 -13 -7z"/>
<path d="M13272 4073 c3 -15 17 -18 97 -21 67 -2 97 1 102 10 15 23 -3 28
-102 28 -90 0 -100 -2 -97 -17z"/>
<path d="M5410 4029 c-25 -22 -78 -56 -117 -76 -70 -35 -88 -55 -60 -66 36
-14 251 128 245 160 -5 28 -21 23 -68 -18z"/>
<path d="M14578 4019 c-26 -27 -75 -63 -112 -81 -63 -31 -79 -49 -55 -63 32
-21 249 134 249 178 0 30 -34 16 -82 -34z"/>
<path d="M9896 4052 c-8 -13 23 -72 39 -72 18 0 19 20 3 55 -11 24 -32 33 -42
17z"/>
<path d="M9996 4048 c-3 -7 -7 -26 -11 -42 -6 -29 -58 -88 -104 -117 -20 -12
-21 -16 -9 -27 25 -20 101 38 132 100 30 59 34 98 11 98 -9 0 -17 -6 -19 -12z"/>
<path d="M14380 4046 c0 -19 66 -60 85 -52 24 9 18 25 -17 46 -39 23 -68 26
-68 6z"/>
<path d="M15582 4033 c3 -15 17 -19 72 -23 99 -7 100 -28 2 -32 -42 -2 -76 -7
-76 -13 0 -6 33 -11 75 -13 41 -2 75 -6 75 -10 0 -22 -30 -32 -92 -32 -54 0
-68 -3 -68 -15 0 -12 16 -15 84 -15 100 0 111 8 111 87 0 72 -15 83 -113 83
-65 0 -73 -2 -70 -17z"/>
<path d="M9830 4030 c0 -18 30 -70 40 -70 18 0 20 20 5 50 -15 29 -45 42 -45
20z"/>
<path d="M13230 3940 c0 -20 5 -20 142 -18 127 3 143 5 146 21 3 16 -9 17
-142 17 -140 0 -146 -1 -146 -20z"/>
</g>
</svg>
