<?xml version="1.0" standalone="no"?>
<!DOCTYPE svg PUBLIC "-//W3C//DTD SVG 20010904//EN"
 "http://www.w3.org/TR/2001/REC-SVG-20010904/DTD/svg10.dtd">
<svg version="1.0" xmlns="http://www.w3.org/2000/svg"
 width="1920.000000pt" height="1080.000000pt" viewBox="0 0 1920.000000 1080.000000"
 preserveAspectRatio="xMidYMid meet">

<g transform="translate(0.000000,1080.000000) scale(0.100000,-0.100000)"
fill="#000000" stroke="none">
<path d="M17697 6400 c-114 -29 -188 -124 -173 -222 9 -56 33 -99 51 -92 11 5
12 10 4 26 -37 70 -28 137 21 163 103 53 270 -56 270 -177 0 -72 -55 -123
-172 -158 -37 -12 -81 -32 -97 -46 -41 -34 -70 -98 -77 -172 -6 -53 -5 -62 10
-62 9 0 16 8 16 20 0 29 26 76 45 84 35 13 64 4 135 -42 84 -55 127 -72 178
-72 129 0 220 111 183 223 -15 44 -57 85 -72 70 -8 -8 -8 -13 0 -17 6 -4 11
-20 11 -36 0 -49 -33 -48 -132 3 l-86 44 57 26 c179 82 233 238 124 358 -53
58 -105 82 -188 85 -38 2 -87 -1 -108 -6z"/>
<path d="M4539 6050 c-185 -18 -302 -95 -357 -235 -47 -119 -66 -413 -39 -591
35 -228 106 -322 282 -377 94 -29 328 -31 420 -3 164 49 238 128 282 303 26
100 26 490 0 583 -58 214 -162 298 -399 320 -51 5 -97 9 -103 8 -5 0 -44 -4
-86 -8z m302 -50 c72 -17 150 -69 186 -124 68 -101 100 -285 89 -511 -15 -332
-98 -456 -330 -496 -88 -15 -293 -6 -363 15 -118 37 -194 122 -227 252 -25 98
-36 286 -26 422 15 183 49 290 114 355 80 80 186 109 381 102 72 -2 151 -9
176 -15z"/>
<path d="M4542 5837 c-52 -20 -96 -68 -116 -128 -14 -42 -20 -95 -23 -234 -9
-337 38 -432 219 -443 120 -7 193 32 229 125 19 50 23 82 26 243 7 274 -22
381 -114 426 -47 23 -173 29 -221 11z m204 -46 c31 -14 47 -30 62 -62 55 -115
55 -467 -1 -579 -31 -63 -73 -85 -163 -84 -138 1 -184 52 -205 224 -14 116 -6
315 17 390 28 95 76 129 184 129 42 1 79 -6 106 -18z"/>
<path d="M13975 6050 c-232 -23 -344 -121 -389 -340 -34 -169 -30 -433 10
-587 56 -217 184 -297 479 -297 119 -1 151 3 214 22 41 13 86 31 100 40 49 30
103 87 128 137 54 106 84 356 64 551 -29 290 -108 408 -307 457 -74 19 -207
26 -299 17z m258 -44 c188 -36 264 -123 303 -349 20 -115 14 -407 -10 -505
-35 -138 -106 -223 -219 -262 -75 -26 -269 -38 -367 -22 -257 41 -340 180
-340 573 0 434 113 575 462 578 53 1 130 -5 171 -13z"/>
<path d="M13965 5832 c-77 -37 -106 -87 -125 -221 -16 -109 -8 -356 15 -428
31 -101 101 -152 210 -153 86 0 134 16 175 59 45 47 58 91 71 236 11 119 1
300 -21 376 -15 52 -50 100 -89 123 -50 29 -182 34 -236 8z m215 -40 c49 -27
78 -84 91 -183 15 -109 6 -357 -15 -424 -28 -92 -100 -132 -211 -119 -119 14
-160 75 -176 258 -10 121 -1 292 21 367 14 48 46 88 84 105 47 20 164 18 206
-4z"/>
<path d="M1760 5910 l0 -120 170 0 170 0 0 -475 0 -475 150 0 150 0 0 475 0
475 170 0 170 0 0 120 0 120 -490 0 -490 0 0 -120z m948 3 l3 -83 -173 -2
-173 -3 -3 -472 -2 -473 -110 0 -110 0 0 475 0 475 -175 0 -175 0 0 78 c0 43
3 82 7 85 3 4 209 6 457 5 l451 -3 3 -82z"/>
<path d="M6620 5435 l0 -595 145 0 145 0 0 595 0 595 -145 0 -145 0 0 -595z
m258 3 l2 -558 -110 0 -110 0 0 560 0 561 108 -3 107 -3 3 -557z"/>
<path d="M11800 5435 l0 -595 145 0 145 0 0 595 0 595 -145 0 -145 0 0 -595z
m250 5 l0 -560 -110 0 -110 0 0 553 c0 305 3 557 7 560 3 4 53 7 110 7 l103 0
0 -560z"/>
<path d="M15970 5910 l0 -120 170 0 170 0 0 -475 0 -475 150 0 150 0 0 475 0
475 170 0 170 0 0 120 0 120 -490 0 -490 0 0 -120z m948 3 l3 -83 -173 -2
-173 -3 -3 -472 -2 -473 -110 0 -110 0 0 475 0 475 -175 0 -175 0 0 78 c0 43
3 82 7 85 3 4 209 6 457 5 l451 -3 3 -82z"/>
<path d="M8430 5994 c69 -19 131 -55 192 -112 54 -50 96 -128 263 -487 198
-425 208 -440 341 -502 l59 -28 535 -2 c492 -3 531 -2 480 12 -88 25 -155 62
-215 121 -60 60 -74 85 -316 603 -130 279 -160 320 -267 373 l-67 33 -530 2
c-484 2 -525 1 -475 -13z"/>
<path d="M10010 6004 c0 -7 323 -702 351 -754 18 -35 18 -31 19 363 l0 397
-185 0 c-102 0 -185 -3 -185 -6z"/>
<path d="M8330 5262 l0 -402 190 0 c180 0 190 1 181 18 -5 10 -89 189 -186
397 -97 209 -179 382 -181 384 -2 2 -4 -176 -4 -397z"/>
<path d="M3028 4138 c-3 -30 -6 -33 -41 -36 -48 -4 -72 -37 -63 -87 5 -26 12
-35 26 -35 17 0 20 7 20 40 l0 41 72 -3 c59 -2 73 -6 76 -20 7 -35 -31 -90
-84 -124 -37 -23 -51 -39 -48 -49 9 -22 24 -19 77 15 111 70 140 220 42 220
-31 0 -34 3 -37 32 -4 47 -35 51 -40 6z"/>
<path d="M14600 4162 c0 -14 39 -46 47 -38 4 4 2 15 -3 24 -12 19 -44 29 -44
14z"/>
<path d="M16798 4138 c-3 -30 -6 -33 -41 -36 -48 -4 -69 -33 -60 -85 4 -27 11
-37 24 -37 13 0 19 9 21 38 l3 37 73 3 72 3 0 -28 c0 -41 -34 -90 -85 -121
-25 -15 -45 -35 -45 -44 0 -24 17 -22 64 5 52 29 92 82 107 139 12 42 11 49
-6 68 -11 12 -31 20 -51 20 -30 0 -33 3 -36 32 -4 47 -35 51 -40 6z"/>
<path d="M4224 4125 c-15 -20 -56 -59 -93 -87 -72 -57 -82 -68 -75 -80 10 -16
33 -8 78 27 26 19 48 35 51 35 3 0 5 -36 5 -80 0 -73 2 -80 20 -80 19 0 20 7
20 102 0 93 2 104 26 135 24 32 27 63 5 63 -6 0 -22 -16 -37 -35z"/>
<path d="M7648 4106 c-26 -29 -70 -68 -97 -87 -50 -34 -67 -69 -33 -69 9 0 37
16 62 36 l45 36 3 -81 c3 -73 5 -81 22 -81 19 0 20 7 20 101 0 94 2 103 25
131 25 30 30 59 10 64 -5 2 -31 -21 -57 -50z"/>
<path d="M1854 4137 c-2 -7 -3 -71 -2 -142 3 -114 5 -130 21 -133 15 -3 17 6
17 72 0 45 4 76 10 76 6 0 28 -12 50 -26 38 -25 70 -27 70 -4 0 14 -89 70
-112 70 -15 0 -18 8 -18 50 0 38 -4 50 -15 50 -9 0 -18 -6 -21 -13z"/>
<path d="M8798 4118 l-3 -33 -78 -3 c-68 -2 -78 -5 -75 -20 2 -13 17 -18 66
-22 l63 -5 -33 -31 c-18 -17 -50 -43 -70 -59 -21 -15 -38 -34 -38 -41 0 -29
42 -12 105 41 69 59 80 58 73 -2 -2 -20 -9 -29 -26 -31 -26 -4 -40 -28 -24
-44 7 -7 21 -7 46 2 42 14 51 35 44 115 l-5 54 36 3 c24 2 37 9 39 20 2 13 -5
17 -35 20 -33 3 -39 7 -43 33 -8 44 -38 46 -42 3z"/>
<path d="M11040 4005 c0 -134 1 -146 18 -143 14 3 18 16 20 76 2 39 6 72 10
72 4 0 24 -11 44 -25 43 -29 71 -33 66 -8 -4 20 -75 72 -100 73 -13 0 -18 11
-20 47 -2 36 -7 49 -20 51 -17 3 -18 -9 -18 -143z"/>
<path d="M6340 4120 c0 -18 8 -20 118 -22 96 -2 117 -6 117 -18 0 -10 -12 -16
-37 -18 -22 -2 -38 1 -38 7 0 6 -9 11 -20 11 -17 0 -20 -7 -20 -45 0 -49 -25
-108 -58 -138 -22 -20 -19 -47 3 -47 22 0 75 72 89 120 12 43 15 45 56 51 28
4 50 14 62 28 23 30 23 46 -2 71 -18 18 -33 20 -145 20 -118 0 -125 -1 -125
-20z"/>
<path d="M14427 4133 c-15 -14 -5 -32 28 -53 34 -21 65 -21 65 -1 0 10 -68 61
-81 61 -3 0 -9 -3 -12 -7z"/>
<path d="M14572 4124 c4 -20 34 -41 44 -31 8 8 -24 47 -38 47 -5 0 -8 -7 -6
-16z"/>
<path d="M12279 4093 c-32 -52 -105 -129 -145 -154 -34 -21 -43 -42 -24 -54
16 -10 71 29 132 92 60 64 92 117 84 139 -9 23 -23 16 -47 -23z"/>
<path d="M5217 4113 c-15 -14 -5 -32 34 -57 38 -26 69 -29 69 -7 0 9 -78 71
-90 71 -4 0 -10 -3 -13 -7z"/>
<path d="M13272 4073 c3 -15 17 -18 97 -21 67 -2 97 1 102 10 15 23 -3 28
-102 28 -90 0 -100 -2 -97 -17z"/>
<path d="M5410 4029 c-25 -22 -78 -56 -117 -76 -70 -35 -88 -55 -60 -66 36
-14 251 128 245 160 -5 28 -21 23 -68 -18z"/>
<path d="M14578 4019 c-26 -27 -75 -63 -112 -81 -63 -31 -79 -49 -55 -63 32
-21 249 134 249 178 0 30 -34 16 -82 -34z"/>
<path d="M9896 4052 c-8 -13 23 -72 39 -72 18 0 19 20 3 55 -11 24 -32 33 -42
17z"/>
<path d="M9996 4048 c-3 -7 -7 -26 -11 -42 -6 -29 -58 -88 -104 -117 -20 -12
-21 -16 -9 -27 25 -20 101 38 132 100 30 59 34 98 11 98 -9 0 -17 -6 -19 -12z"/>
<path d="M14380 4046 c0 -19 66 -60 85 -52 24 9 18 25 -17 46 -39 23 -68 26
-68 6z"/>
<path d="M15582 4033 c3 -15 17 -19 72 -23 99 -7 100 -28 2 -32 -42 -2 -76 -7
-76 -13 0 -6 33 -11 75 -13 41 -2 75 -6 75 -10 0 -22 -30 -32 -92 -32 -54 0
-68 -3 -68 -15 0 -12 16 -15 84 -15 100 0 111 8 111 87 0 72 -15 83 -113 83
-65 0 -73 -2 -70 -17z"/>
<path d="M9830 4030 c0 -18 30 -70 40 -70 18 0 20 20 5 50 -15 29 -45 42 -45
20z"/>
<path d="M13230 3940 c0 -20 5 -20 142 -18 127 3 143 5 146 21 3 16 -9 17
-142 17 -140 0 -146 -1 -146 -20z"/>
</g>
</svg>
