<?xml version="1.0" standalone="no"?>
<!DOCTYPE svg PUBLIC "-//W3C//DTD SVG 20010904//EN"
 "http://www.w3.org/TR/2001/REC-SVG-20010904/DTD/svg10.dtd">
<svg version="1.0" xmlns="http://www.w3.org/2000/svg"
 width="1920.000000pt" height="1080.000000pt" viewBox="0 0 1920.000000 1080.000000"
 preserveAspectRatio="xMidYMid meet">

<g transform="translate(0.000000,1080.000000) scale(0.100000,-0.100000)"
fill="#000000" stroke="none">
<path d="M260 10760 c395 -66 607 -114 856 -194 744 -240 1466 -741 1976
-1371 293 -362 485 -747 2153 -4320 1330 -2850 1486 -3169 1673 -3440 356
-515 963 -975 1608 -1220 154 -59 369 -120 503 -144 317 -58 703 -62 5706 -66
l4430 -4 -225 38 c-626 107 -934 197 -1339 392 -202 98 -305 156 -490 277
-274 178 -526 385 -746 613 -274 283 -404 462 -598 819 -254 469 -555 1100
-2035 4270 -1092 2340 -1283 2728 -1468 2987 -193 268 -466 534 -778 757 -437
312 -1011 548 -1447 595 -359 39 -1402 47 -6229 48 l-3775 1 225 -38z"/>
<path d="M15693 10788 c3 -7 115 -249 250 -538 134 -289 572 -1227 972 -2085
400 -858 1069 -2293 1487 -3190 418 -896 769 -1646 779 -1665 18 -34 18 69 19
3728 l0 3762 -1756 0 c-1401 0 -1755 -3 -1751 -12z"/>
<path d="M0 3768 l0 -3768 1760 0 1760 0 -19 38 c-10 20 -64 134 -119 252 -94
204 -998 2142 -1762 3780 -194 415 -631 1354 -972 2085 -341 732 -626 1341
-634 1355 -11 21 -13 -574 -14 -3742z"/>
</g>
</svg>
