<?xml version="1.0" encoding="utf-8"?><svg xmlns="http://www.w3.org/2000/svg" xmlns:xlink="http://www.w3.org/1999/xlink" version="1.1" width="290px" height="290px" viewBox="0 0 290 290"><rect x="0" y="0" width="70" height="10"></rect><rect x="80" y="0" width="30" height="10"></rect><rect x="150" y="0" width="30" height="10"></rect><rect x="220" y="0" width="70" height="10"></rect><rect x="0" y="10" width="10" height="10"></rect><rect x="60" y="10" width="10" height="10"></rect><rect x="100" y="10" width="50" height="10"></rect><rect x="160" y="10" width="10" height="10"></rect><rect x="180" y="10" width="10" height="10"></rect><rect x="220" y="10" width="10" height="10"></rect><rect x="280" y="10" width="10" height="10"></rect><rect x="0" y="20" width="10" height="10"></rect><rect x="20" y="20" width="30" height="10"></rect><rect x="60" y="20" width="10" height="10"></rect><rect x="80" y="20" width="10" height="10"></rect><rect x="120" y="20" width="10" height="10"></rect><rect x="140" y="20" width="40" height="10"></rect><rect x="190" y="20" width="20" height="10"></rect><rect x="220" y="20" width="10" height="10"></rect><rect x="240" y="20" width="30" height="10"></rect><rect x="280" y="20" width="10" height="10"></rect><rect x="0" y="30" width="10" height="10"></rect><rect x="20" y="30" width="30" height="10"></rect><rect x="60" y="30" width="10" height="10"></rect><rect x="90" y="30" width="10" height="10"></rect><rect x="110" y="30" width="10" height="10"></rect><rect x="140" y="30" width="10" height="10"></rect><rect x="170" y="30" width="30" height="10"></rect><rect x="220" y="30" width="10" height="10"></rect><rect x="240" y="30" width="30" height="10"></rect><rect x="280" y="30" width="10" height="10"></rect><rect x="0" y="40" width="10" height="10"></rect><rect x="20" y="40" width="30" height="10"></rect><rect x="60" y="40" width="10" height="10"></rect><rect x="90" y="40" width="10" height="10"></rect><rect x="130" y="40" width="30" height="10"></rect><rect x="170" y="40" width="20" height="10"></rect><rect x="220" y="40" width="10" height="10"></rect><rect x="240" y="40" width="30" height="10"></rect><rect x="280" y="40" width="10" height="10"></rect><rect x="0" y="50" width="10" height="10"></rect><rect x="60" y="50" width="10" height="10"></rect><rect x="80" y="50" width="20" height="10"></rect><rect x="120" y="50" width="10" height="10"></rect><rect x="150" y="50" width="10" height="10"></rect><rect x="170" y="50" width="10" height="10"></rect><rect x="220" y="50" width="10" height="10"></rect><rect x="280" y="50" width="10" height="10"></rect><rect x="0" y="60" width="70" height="10"></rect><rect x="80" y="60" width="10" height="10"></rect><rect x="100" y="60" width="10" height="10"></rect><rect x="120" y="60" width="10" height="10"></rect><rect x="140" y="60" width="10" height="10"></rect><rect x="160" y="60" width="10" height="10"></rect><rect x="180" y="60" width="10" height="10"></rect><rect x="200" y="60" width="10" height="10"></rect><rect x="220" y="60" width="70" height="10"></rect><rect x="110" y="70" width="20" height="10"></rect><rect x="140" y="70" width="30" height="10"></rect><rect x="200" y="70" width="10" height="10"></rect><rect x="0" y="80" width="10" height="10"></rect><rect x="20" y="80" width="10" height="10"></rect><rect x="60" y="80" width="20" height="10"></rect><rect x="90" y="80" width="30" height="10"></rect><rect x="130" y="80" width="20" height="10"></rect><rect x="180" y="80" width="20" height="10"></rect><rect x="230" y="80" width="10" height="10"></rect><rect x="260" y="80" width="10" height="10"></rect><rect x="280" y="80" width="10" height="10"></rect><rect x="0" y="90" width="10" height="10"></rect><rect x="20" y="90" width="40" height="10"></rect><rect x="70" y="90" width="30" height="10"></rect><rect x="120" y="90" width="30" height="10"></rect><rect x="170" y="90" width="10" height="10"></rect><rect x="190" y="90" width="20" height="10"></rect><rect x="220" y="90" width="20" height="10"></rect><rect x="250" y="90" width="20" height="10"></rect><rect x="280" y="90" width="10" height="10"></rect><rect x="0" y="100" width="30" height="10"></rect><rect x="40" y="100" width="10" height="10"></rect><rect x="60" y="100" width="10" height="10"></rect><rect x="80" y="100" width="10" height="10"></rect><rect x="100" y="100" width="10" height="10"></rect><rect x="150" y="100" width="10" height="10"></rect><rect x="190" y="100" width="10" height="10"></rect><rect x="210" y="100" width="20" height="10"></rect><rect x="250" y="100" width="10" height="10"></rect><rect x="280" y="100" width="10" height="10"></rect><rect x="10" y="110" width="10" height="10"></rect><rect x="70" y="110" width="30" height="10"></rect><rect x="110" y="110" width="30" height="10"></rect><rect x="210" y="110" width="10" height="10"></rect><rect x="240" y="110" width="20" height="10"></rect><rect x="270" y="110" width="10" height="10"></rect><rect x="10" y="120" width="20" height="10"></rect><rect x="40" y="120" width="10" height="10"></rect><rect x="60" y="120" width="10" height="10"></rect><rect x="80" y="120" width="10" height="10"></rect><rect x="110" y="120" width="30" height="10"></rect><rect x="150" y="120" width="20" height="10"></rect><rect x="200" y="120" width="10" height="10"></rect><rect x="220" y="120" width="20" height="10"></rect><rect x="250" y="120" width="10" height="10"></rect><rect x="270" y="120" width="10" height="10"></rect><rect x="0" y="130" width="10" height="10"></rect><rect x="30" y="130" width="20" height="10"></rect><rect x="90" y="130" width="30" height="10"></rect><rect x="160" y="130" width="20" height="10"></rect><rect x="190" y="130" width="50" height="10"></rect><rect x="260" y="130" width="10" height="10"></rect><rect x="280" y="130" width="10" height="10"></rect><rect x="10" y="140" width="40" height="10"></rect><rect x="60" y="140" width="10" height="10"></rect><rect x="90" y="140" width="30" height="10"></rect><rect x="130" y="140" width="20" height="10"></rect><rect x="160" y="140" width="40" height="10"></rect><rect x="210" y="140" width="10" height="10"></rect><rect x="240" y="140" width="10" height="10"></rect><rect x="260" y="140" width="10" height="10"></rect><rect x="280" y="140" width="10" height="10"></rect><rect x="20" y="150" width="20" height="10"></rect><rect x="50" y="150" width="10" height="10"></rect><rect x="70" y="150" width="40" height="10"></rect><rect x="120" y="150" width="10" height="10"></rect><rect x="140" y="150" width="30" height="10"></rect><rect x="180" y="150" width="40" height="10"></rect><rect x="250" y="150" width="10" height="10"></rect><rect x="270" y="150" width="20" height="10"></rect><rect x="0" y="160" width="10" height="10"></rect><rect x="30" y="160" width="10" height="10"></rect><rect x="60" y="160" width="20" height="10"></rect><rect x="110" y="160" width="10" height="10"></rect><rect x="130" y="160" width="20" height="10"></rect><rect x="160" y="160" width="10" height="10"></rect><rect x="190" y="160" width="20" height="10"></rect><rect x="220" y="160" width="20" height="10"></rect><rect x="250" y="160" width="10" height="10"></rect><rect x="10" y="170" width="10" height="10"></rect><rect x="80" y="170" width="20" height="10"></rect><rect x="120" y="170" width="30" height="10"></rect><rect x="170" y="170" width="10" height="10"></rect><rect x="190" y="170" width="20" height="10"></rect><rect x="220" y="170" width="20" height="10"></rect><rect x="250" y="170" width="20" height="10"></rect><rect x="280" y="170" width="10" height="10"></rect><rect x="0" y="180" width="20" height="10"></rect><rect x="60" y="180" width="10" height="10"></rect><rect x="80" y="180" width="10" height="10"></rect><rect x="110" y="180" width="20" height="10"></rect><rect x="150" y="180" width="20" height="10"></rect><rect x="190" y="180" width="40" height="10"></rect><rect x="280" y="180" width="10" height="10"></rect><rect x="20" y="190" width="10" height="10"></rect><rect x="40" y="190" width="20" height="10"></rect><rect x="130" y="190" width="10" height="10"></rect><rect x="150" y="190" width="20" height="10"></rect><rect x="180" y="190" width="40" height="10"></rect><rect x="230" y="190" width="10" height="10"></rect><rect x="250" y="190" width="10" height="10"></rect><rect x="0" y="200" width="30" height="10"></rect><rect x="50" y="200" width="20" height="10"></rect><rect x="80" y="200" width="10" height="10"></rect><rect x="120" y="200" width="20" height="10"></rect><rect x="160" y="200" width="10" height="10"></rect><rect x="180" y="200" width="10" height="10"></rect><rect x="200" y="200" width="50" height="10"></rect><rect x="280" y="200" width="10" height="10"></rect><rect x="80" y="210" width="30" height="10"></rect><rect x="120" y="210" width="10" height="10"></rect><rect x="150" y="210" width="30" height="10"></rect><rect x="200" y="210" width="10" height="10"></rect><rect x="240" y="210" width="20" height="10"></rect><rect x="270" y="210" width="20" height="10"></rect><rect x="0" y="220" width="70" height="10"></rect><rect x="80" y="220" width="10" height="10"></rect><rect x="100" y="220" width="10" height="10"></rect><rect x="120" y="220" width="40" height="10"></rect><rect x="200" y="220" width="10" height="10"></rect><rect x="220" y="220" width="10" height="10"></rect><rect x="240" y="220" width="30" height="10"></rect><rect x="280" y="220" width="10" height="10"></rect><rect x="0" y="230" width="10" height="10"></rect><rect x="60" y="230" width="10" height="10"></rect><rect x="100" y="230" width="30" height="10"></rect><rect x="140" y="230" width="10" height="10"></rect><rect x="180" y="230" width="10" height="10"></rect><rect x="200" y="230" width="10" height="10"></rect><rect x="240" y="230" width="10" height="10"></rect><rect x="0" y="240" width="10" height="10"></rect><rect x="20" y="240" width="30" height="10"></rect><rect x="60" y="240" width="10" height="10"></rect><rect x="90" y="240" width="20" height="10"></rect><rect x="130" y="240" width="20" height="10"></rect><rect x="160" y="240" width="20" height="10"></rect><rect x="190" y="240" width="60" height="10"></rect><rect x="270" y="240" width="20" height="10"></rect><rect x="0" y="250" width="10" height="10"></rect><rect x="20" y="250" width="30" height="10"></rect><rect x="60" y="250" width="10" height="10"></rect><rect x="100" y="250" width="10" height="10"></rect><rect x="120" y="250" width="10" height="10"></rect><rect x="140" y="250" width="40" height="10"></rect><rect x="190" y="250" width="10" height="10"></rect><rect x="210" y="250" width="10" height="10"></rect><rect x="230" y="250" width="20" height="10"></rect><rect x="280" y="250" width="10" height="10"></rect><rect x="0" y="260" width="10" height="10"></rect><rect x="20" y="260" width="30" height="10"></rect><rect x="60" y="260" width="10" height="10"></rect><rect x="80" y="260" width="10" height="10"></rect><rect x="100" y="260" width="10" height="10"></rect><rect x="130" y="260" width="10" height="10"></rect><rect x="150" y="260" width="10" height="10"></rect><rect x="170" y="260" width="10" height="10"></rect><rect x="190" y="260" width="30" height="10"></rect><rect x="240" y="260" width="20" height="10"></rect><rect x="270" y="260" width="20" height="10"></rect><rect x="0" y="270" width="10" height="10"></rect><rect x="60" y="270" width="10" height="10"></rect><rect x="90" y="270" width="10" height="10"></rect><rect x="110" y="270" width="10" height="10"></rect><rect x="140" y="270" width="10" height="10"></rect><rect x="180" y="270" width="10" height="10"></rect><rect x="200" y="270" width="40" height="10"></rect><rect x="0" y="280" width="70" height="10"></rect><rect x="80" y="280" width="20" height="10"></rect><rect x="110" y="280" width="30" height="10"></rect><rect x="150" y="280" width="20" height="10"></rect><rect x="200" y="280" width="10" height="10"></rect><rect x="220" y="280" width="10" height="10"></rect><rect x="250" y="280" width="10" height="10"></rect><rect x="280" y="280" width="10" height="10"></rect></svg>