M48
; DRILL file {KiCad 7.0.6} date Fri Dec  1 18:17:32 2023
; FORMAT={-:-/ absolute / inch / decimal}
; #@! TF.CreationDate,2023-12-01T18:17:32+09:00
; #@! TF.GenerationSoftware,Kicad,Pcbnew,7.0.6
; #@! TF.FileFunction,Plated,1,2,PTH
FMAT,2
INCH
; #@! TA.AperFunction,Plated,PTH,ComponentDrill
T1C0.0315
; #@! TA.AperFunction,Plated,PTH,ComponentDrill
T2C0.0354
; #@! TA.AperFunction,Plated,PTH,ComponentDrill
T3C0.0394
%
G90
G05
T1
X2.2713Y-2.185
X2.2713Y-2.9921
X2.2713Y-3.7992
X2.2713Y-4.6063
X2.2713Y-5.4134
X2.2717Y-2.0346
X2.2717Y-2.3346
X2.2717Y-2.8417
X2.2717Y-3.1417
X2.2717Y-3.6488
X2.2717Y-3.9488
X2.2717Y-4.4559
X2.2717Y-4.7559
X2.2717Y-5.263
X2.2717Y-5.563
X2.3717Y-2.0346
X2.3717Y-2.3346
X2.3717Y-2.8417
X2.3717Y-3.1417
X2.3717Y-3.6488
X2.3717Y-3.9488
X2.3717Y-4.4559
X2.3717Y-4.7559
X2.3717Y-5.263
X2.3717Y-5.563
X2.4717Y-2.0346
X2.4717Y-2.3346
X2.4717Y-2.8417
X2.4717Y-3.1417
X2.4717Y-3.6488
X2.4717Y-3.9488
X2.4717Y-4.4559
X2.4717Y-4.7559
X2.4717Y-5.263
X2.4717Y-5.563
X2.5713Y-2.185
X2.5713Y-2.9921
X2.5713Y-3.7992
X2.5713Y-4.6063
X2.5713Y-5.4134
X2.5717Y-2.0346
X2.5717Y-2.3346
X2.5717Y-2.8417
X2.5717Y-3.1417
X2.5717Y-3.6488
X2.5717Y-3.9488
X2.5717Y-4.4559
X2.5717Y-4.7559
X2.5717Y-5.263
X2.5717Y-5.563
X3.0783Y-2.185
X3.0783Y-2.9921
X3.0783Y-3.7992
X3.0783Y-4.6063
X3.0783Y-5.4134
X3.0787Y-2.0346
X3.0787Y-2.3346
X3.0787Y-2.8417
X3.0787Y-3.1417
X3.0787Y-3.6488
X3.0787Y-3.9488
X3.0787Y-4.4559
X3.0787Y-4.7559
X3.0787Y-5.263
X3.0787Y-5.563
X3.1787Y-2.0346
X3.1787Y-2.3346
X3.1787Y-2.8417
X3.1787Y-3.1417
X3.1787Y-3.6488
X3.1787Y-3.9488
X3.1787Y-4.4559
X3.1787Y-4.7559
X3.1787Y-5.263
X3.1787Y-5.563
X3.2787Y-2.0346
X3.2787Y-2.3346
X3.2787Y-2.8417
X3.2787Y-3.1417
X3.2787Y-3.6488
X3.2787Y-3.9488
X3.2787Y-4.4559
X3.2787Y-4.7559
X3.2787Y-5.263
X3.2787Y-5.563
X3.3783Y-2.185
X3.3783Y-2.9921
X3.3783Y-3.7992
X3.3783Y-4.6063
X3.3783Y-5.4134
X3.3787Y-2.0346
X3.3787Y-2.3346
X3.3787Y-2.8417
X3.3787Y-3.1417
X3.3787Y-3.6488
X3.3787Y-3.9488
X3.3787Y-4.4559
X3.3787Y-4.7559
X3.3787Y-5.263
X3.3787Y-5.563
X3.8854Y-2.185
X3.8854Y-2.9921
X3.8854Y-3.7992
X3.8854Y-4.6063
X3.8854Y-5.4134
X3.8858Y-2.0346
X3.8858Y-2.3346
X3.8858Y-2.8417
X3.8858Y-3.1417
X3.8858Y-3.6488
X3.8858Y-3.9488
X3.8858Y-4.4559
X3.8858Y-4.7559
X3.8858Y-5.263
X3.8858Y-5.563
X3.9858Y-2.0346
X3.9858Y-2.3346
X3.9858Y-2.8417
X3.9858Y-3.1417
X3.9858Y-3.6488
X3.9858Y-3.9488
X3.9858Y-4.4559
X3.9858Y-4.7559
X3.9858Y-5.263
X3.9858Y-5.563
X4.0858Y-2.0346
X4.0858Y-2.3346
X4.0858Y-2.8417
X4.0858Y-3.1417
X4.0858Y-3.6488
X4.0858Y-3.9488
X4.0858Y-4.4559
X4.0858Y-4.7559
X4.0858Y-5.263
X4.0858Y-5.563
X4.1854Y-2.185
X4.1854Y-2.9921
X4.1854Y-3.7992
X4.1854Y-4.6063
X4.1854Y-5.4134
X4.1858Y-2.0346
X4.1858Y-2.3346
X4.1858Y-2.8417
X4.1858Y-3.1417
X4.1858Y-3.6488
X4.1858Y-3.9488
X4.1858Y-4.4559
X4.1858Y-4.7559
X4.1858Y-5.263
X4.1858Y-5.563
X4.6925Y-2.185
X4.6925Y-2.9921
X4.6925Y-3.7992
X4.6925Y-4.6063
X4.6925Y-5.4134
X4.6929Y-2.0346
X4.6929Y-2.3346
X4.6929Y-2.8417
X4.6929Y-3.1417
X4.6929Y-3.6488
X4.6929Y-3.9488
X4.6929Y-4.4559
X4.6929Y-4.7559
X4.6929Y-5.263
X4.6929Y-5.563
X4.7929Y-2.0346
X4.7929Y-2.3346
X4.7929Y-2.8417
X4.7929Y-3.1417
X4.7929Y-3.6488
X4.7929Y-3.9488
X4.7929Y-4.4559
X4.7929Y-4.7559
X4.7929Y-5.263
X4.7929Y-5.563
X4.8929Y-2.0346
X4.8929Y-2.3346
X4.8929Y-2.8417
X4.8929Y-3.1417
X4.8929Y-3.6488
X4.8929Y-3.9488
X4.8929Y-4.4559
X4.8929Y-4.7559
X4.8929Y-5.263
X4.8929Y-5.563
X4.9925Y-2.185
X4.9925Y-2.9921
X4.9925Y-3.7992
X4.9925Y-4.6063
X4.9925Y-5.4134
X4.9929Y-2.0346
X4.9929Y-2.3346
X4.9929Y-2.8417
X4.9929Y-3.1417
X4.9929Y-3.6488
X4.9929Y-3.9488
X4.9929Y-4.4559
X4.9929Y-4.7559
X4.9929Y-5.263
X4.9929Y-5.563
X5.4996Y-2.185
X5.4996Y-2.9921
X5.4996Y-3.7992
X5.4996Y-4.6063
X5.4996Y-5.4134
X5.5Y-2.0346
X5.5Y-2.3346
X5.5Y-2.8417
X5.5Y-3.1417
X5.5Y-3.6488
X5.5Y-3.9488
X5.5Y-4.4559
X5.5Y-4.7559
X5.5Y-5.263
X5.5Y-5.563
X5.6Y-2.0346
X5.6Y-2.3346
X5.6Y-2.8417
X5.6Y-3.1417
X5.6Y-3.6488
X5.6Y-3.9488
X5.6Y-4.4559
X5.6Y-4.7559
X5.6Y-5.263
X5.6Y-5.563
X5.7Y-2.0346
X5.7Y-2.3346
X5.7Y-2.8417
X5.7Y-3.1417
X5.7Y-3.6488
X5.7Y-3.9488
X5.7Y-4.4559
X5.7Y-4.7559
X5.7Y-5.263
X5.7Y-5.563
X5.7996Y-2.185
X5.7996Y-2.9921
X5.7996Y-3.7992
X5.7996Y-4.6063
X5.7996Y-5.4134
X5.8Y-2.0346
X5.8Y-2.3346
X5.8Y-2.8417
X5.8Y-3.1417
X5.8Y-3.6488
X5.8Y-3.9488
X5.8Y-4.4559
X5.8Y-4.7559
X5.8Y-5.263
X5.8Y-5.563
T2
X2.0866Y-2.1352
X2.0866Y-2.2352
X2.0866Y-2.9423
X2.0866Y-3.0423
X2.0866Y-3.7494
X2.0866Y-3.8494
X2.0866Y-4.5565
X2.0866Y-4.6565
X2.0866Y-5.3636
X2.0866Y-5.4636
X2.8937Y-2.1352
X2.8937Y-2.2352
X2.8937Y-2.9423
X2.8937Y-3.0423
X2.8937Y-3.7494
X2.8937Y-3.8494
X2.8937Y-4.5565
X2.8937Y-4.6565
X2.8937Y-5.3636
X2.8937Y-5.4636
X3.7008Y-2.1352
X3.7008Y-2.2352
X3.7008Y-2.9423
X3.7008Y-3.0423
X3.7008Y-3.7494
X3.7008Y-3.8494
X3.7008Y-4.5565
X3.7008Y-4.6565
X3.7008Y-5.3636
X3.7008Y-5.4636
X4.5079Y-2.1352
X4.5079Y-2.2352
X4.5079Y-2.9423
X4.5079Y-3.0423
X4.5079Y-3.7494
X4.5079Y-3.8494
X4.5079Y-4.5565
X4.5079Y-4.6565
X4.5079Y-5.3636
X4.5079Y-5.4636
X5.315Y-2.1352
X5.315Y-2.2352
X5.315Y-2.9423
X5.315Y-3.0423
X5.315Y-3.7494
X5.315Y-3.8494
X5.315Y-4.5565
X5.315Y-4.6565
X5.315Y-5.3636
X5.315Y-5.4636
T3
X2.1228Y-2.5984
X2.1228Y-3.4055
X2.1228Y-4.2126
X2.1228Y-5.0197
X2.1228Y-5.8268
X2.2228Y-2.5984
X2.2228Y-3.4055
X2.2228Y-4.2126
X2.2228Y-5.0197
X2.2228Y-5.8268
X2.3228Y-2.5984
X2.3228Y-3.4055
X2.3228Y-4.2126
X2.3228Y-5.0197
X2.3228Y-5.8268
X2.4228Y-2.5984
X2.4228Y-3.4055
X2.4228Y-4.2126
X2.4228Y-5.0197
X2.4228Y-5.8268
X2.5228Y-2.5984
X2.5228Y-3.4055
X2.5228Y-4.2126
X2.5228Y-5.0197
X2.5228Y-5.8268
X2.9299Y-2.5984
X2.9299Y-3.4055
X2.9299Y-4.2126
X2.9299Y-5.0197
X2.9299Y-5.8268
X3.0299Y-2.5984
X3.0299Y-3.4055
X3.0299Y-4.2126
X3.0299Y-5.0197
X3.0299Y-5.8268
X3.1299Y-2.5984
X3.1299Y-3.4055
X3.1299Y-4.2126
X3.1299Y-5.0197
X3.1299Y-5.8268
X3.2299Y-2.5984
X3.2299Y-3.4055
X3.2299Y-4.2126
X3.2299Y-5.0197
X3.2299Y-5.8268
X3.3299Y-2.5984
X3.3299Y-3.4055
X3.3299Y-4.2126
X3.3299Y-5.0197
X3.3299Y-5.8268
X3.737Y-2.5984
X3.737Y-3.4055
X3.737Y-4.2126
X3.737Y-5.0197
X3.737Y-5.8268
X3.837Y-2.5984
X3.837Y-3.4055
X3.837Y-4.2126
X3.837Y-5.0197
X3.837Y-5.8268
X3.937Y-2.5984
X3.937Y-3.4055
X3.937Y-4.2126
X3.937Y-5.0197
X3.937Y-5.8268
X4.037Y-2.5984
X4.037Y-3.4055
X4.037Y-4.2126
X4.037Y-5.0197
X4.037Y-5.8268
X4.137Y-2.5984
X4.137Y-3.4055
X4.137Y-4.2126
X4.137Y-5.0197
X4.137Y-5.8268
X4.5441Y-2.5984
X4.5441Y-3.4055
X4.5441Y-4.2126
X4.5441Y-5.0197
X4.5441Y-5.8268
X4.6441Y-2.5984
X4.6441Y-3.4055
X4.6441Y-4.2126
X4.6441Y-5.0197
X4.6441Y-5.8268
X4.7441Y-2.5984
X4.7441Y-3.4055
X4.7441Y-4.2126
X4.7441Y-5.0197
X4.7441Y-5.8268
X4.8441Y-2.5984
X4.8441Y-3.4055
X4.8441Y-4.2126
X4.8441Y-5.0197
X4.8441Y-5.8268
X4.9441Y-2.5984
X4.9441Y-3.4055
X4.9441Y-4.2126
X4.9441Y-5.0197
X4.9441Y-5.8268
X5.3512Y-2.5984
X5.3512Y-3.4055
X5.3512Y-4.2126
X5.3512Y-5.0197
X5.3512Y-5.8268
X5.4512Y-2.5984
X5.4512Y-3.4055
X5.4512Y-4.2126
X5.4512Y-5.0197
X5.4512Y-5.8268
X5.5512Y-2.5984
X5.5512Y-3.4055
X5.5512Y-4.2126
X5.5512Y-5.0197
X5.5512Y-5.8268
X5.6512Y-2.5984
X5.6512Y-3.4055
X5.6512Y-4.2126
X5.6512Y-5.0197
X5.6512Y-5.8268
X5.7512Y-2.5984
X5.7512Y-3.4055
X5.7512Y-4.2126
X5.7512Y-5.0197
X5.7512Y-5.8268
T0
M30
