%TF.GenerationSoftware,KiCad,Pcbnew,8.0.1*%
%TF.CreationDate,2024-07-22T16:32:21+09:00*%
%TF.ProjectId,Line-20240325,4c696e65-2d32-4303-9234-303332352e6b,rev?*%
%TF.SameCoordinates,Original*%
%TF.FileFunction,Soldermask,Bot*%
%TF.FilePolarity,Negative*%
%FSLAX46Y46*%
G04 Gerber Fmt 4.6, Leading zero omitted, Abs format (unit mm)*
G04 Created by KiCad (PCBNEW 8.0.1) date 2024-07-22 16:32:21*
%MOMM*%
%LPD*%
G01*
G04 APERTURE LIST*
G04 Aperture macros list*
%AMRoundRect*
0 Rectangle with rounded corners*
0 $1 Rounding radius*
0 $2 $3 $4 $5 $6 $7 $8 $9 X,Y pos of 4 corners*
0 Add a 4 corners polygon primitive as box body*
4,1,4,$2,$3,$4,$5,$6,$7,$8,$9,$2,$3,0*
0 Add four circle primitives for the rounded corners*
1,1,$1+$1,$2,$3*
1,1,$1+$1,$4,$5*
1,1,$1+$1,$6,$7*
1,1,$1+$1,$8,$9*
0 Add four rect primitives between the rounded corners*
20,1,$1+$1,$2,$3,$4,$5,0*
20,1,$1+$1,$4,$5,$6,$7,0*
20,1,$1+$1,$6,$7,$8,$9,0*
20,1,$1+$1,$8,$9,$2,$3,0*%
%AMRotRect*
0 Rectangle, with rotation*
0 The origin of the aperture is its center*
0 $1 length*
0 $2 width*
0 $3 Rotation angle, in degrees counterclockwise*
0 Add horizontal line*
21,1,$1,$2,0,0,$3*%
G04 Aperture macros list end*
%ADD10C,1.800000*%
%ADD11RotRect,1.800000X1.800000X126.000000*%
%ADD12C,1.150000*%
%ADD13O,1.700000X1.700000*%
%ADD14R,1.700000X1.700000*%
%ADD15C,2.700000*%
%ADD16RoundRect,0.250001X-1.099999X-1.099999X1.099999X-1.099999X1.099999X1.099999X-1.099999X1.099999X0*%
%ADD17RotRect,1.400000X1.400000X165.000000*%
%ADD18C,1.400000*%
%ADD19RotRect,1.800000X1.800000X144.000000*%
%ADD20RotRect,1.400000X1.400000X198.000000*%
%ADD21RotRect,1.400000X1.400000X18.000000*%
%ADD22RotRect,1.400000X1.400000X144.000000*%
%ADD23RotRect,1.800000X1.800000X345.000000*%
%ADD24RotRect,1.800000X1.800000X15.000000*%
%ADD25RoundRect,0.200000X0.200000X0.275000X-0.200000X0.275000X-0.200000X-0.275000X0.200000X-0.275000X0*%
%ADD26RotRect,1.800000X1.800000X324.000000*%
%ADD27R,1.400000X1.400000*%
%ADD28RotRect,1.800000X1.800000X216.000000*%
%ADD29RotRect,1.400000X1.400000X36.000000*%
%ADD30RotRect,1.800000X1.800000X342.000000*%
%ADD31RotRect,1.400000X1.400000X162.000000*%
%ADD32RotRect,1.400000X1.400000X72.000000*%
%ADD33RotRect,1.800000X1.800000X288.000000*%
%ADD34R,1.800000X1.800000*%
%ADD35RoundRect,0.200000X0.275000X-0.200000X0.275000X0.200000X-0.275000X0.200000X-0.275000X-0.200000X0*%
%ADD36RotRect,1.800000X1.800000X72.000000*%
%ADD37RotRect,1.800000X1.800000X108.000000*%
%ADD38RotRect,1.800000X1.800000X54.000000*%
%ADD39RotRect,1.800000X1.800000X255.000000*%
%ADD40RotRect,1.400000X1.400000X5.000000*%
%ADD41RoundRect,0.243750X-0.243750X-0.456250X0.243750X-0.456250X0.243750X0.456250X-0.243750X0.456250X0*%
%ADD42RotRect,1.800000X1.800000X175.000000*%
%ADD43RotRect,1.400000X1.400000X15.000000*%
%ADD44RotRect,1.400000X1.400000X355.000000*%
%ADD45RotRect,1.400000X1.400000X126.000000*%
%ADD46RotRect,1.800000X1.800000X18.000000*%
%ADD47RotRect,1.400000X1.400000X324.000000*%
%ADD48RotRect,1.400000X1.400000X105.000000*%
%ADD49RotRect,1.400000X1.400000X185.000000*%
%ADD50O,1.950000X1.700000*%
%ADD51RoundRect,0.250000X0.725000X-0.600000X0.725000X0.600000X-0.725000X0.600000X-0.725000X-0.600000X0*%
%ADD52RotRect,1.800000X1.800000X306.000000*%
%ADD53RoundRect,0.243750X0.243750X0.456250X-0.243750X0.456250X-0.243750X-0.456250X0.243750X-0.456250X0*%
%ADD54RotRect,1.400000X1.400000X342.000000*%
%ADD55RotRect,1.800000X1.800000X275.000000*%
%ADD56RotRect,1.800000X1.800000X165.000000*%
%ADD57RotRect,1.400000X1.400000X195.000000*%
%ADD58RotRect,1.800000X1.800000X285.000000*%
%ADD59RotRect,1.400000X1.400000X175.000000*%
%ADD60RotRect,1.800000X1.800000X5.000000*%
%ADD61RotRect,1.800000X1.800000X195.000000*%
%ADD62RotRect,1.400000X1.400000X306.000000*%
%ADD63RotRect,1.400000X1.400000X75.000000*%
%ADD64RoundRect,0.225000X0.225000X0.250000X-0.225000X0.250000X-0.225000X-0.250000X0.225000X-0.250000X0*%
%ADD65RotRect,1.400000X1.400000X95.000000*%
%ADD66RotRect,1.800000X1.800000X265.000000*%
%ADD67RotRect,1.800000X1.800000X234.000000*%
%ADD68RotRect,1.400000X1.400000X345.000000*%
%ADD69RotRect,1.400000X1.400000X216.000000*%
%ADD70RoundRect,0.200000X-0.335876X-0.053033X-0.053033X-0.335876X0.335876X0.053033X0.053033X0.335876X0*%
%ADD71RoundRect,0.200000X-0.200000X-0.275000X0.200000X-0.275000X0.200000X0.275000X-0.200000X0.275000X0*%
%ADD72RotRect,1.400000X1.400000X234.000000*%
%ADD73RotRect,1.400000X1.400000X108.000000*%
%ADD74RotRect,1.400000X1.400000X252.000000*%
%ADD75RotRect,1.800000X1.800000X36.000000*%
%ADD76RotRect,1.800000X1.800000X185.000000*%
%ADD77RotRect,1.800000X1.800000X198.000000*%
%ADD78RoundRect,0.225000X-0.225000X-0.250000X0.225000X-0.250000X0.225000X0.250000X-0.225000X0.250000X0*%
%ADD79RotRect,1.400000X1.400000X54.000000*%
%ADD80RotRect,1.400000X1.400000X288.000000*%
%ADD81RoundRect,0.225000X-0.250000X0.225000X-0.250000X-0.225000X0.250000X-0.225000X0.250000X0.225000X0*%
%ADD82RotRect,1.800000X1.800000X162.000000*%
%ADD83RotRect,1.400000X1.400000X85.000000*%
%ADD84RotRect,1.800000X1.800000X252.000000*%
%ADD85RotRect,1.800000X1.800000X355.000000*%
G04 APERTURE END LIST*
D10*
%TO.C,D3*%
X-36307493Y49972980D03*
D11*
X-34814519Y47918076D03*
%TD*%
D12*
%TO.C,16MHz*%
X-38052944Y-45697056D03*
X-41447056Y-42302944D03*
%TD*%
D13*
%TO.C,J4*%
X-13790000Y-26000000D03*
D14*
X-11250000Y-26000000D03*
%TD*%
D15*
%TO.C,J1*%
X1980000Y-26019999D03*
D16*
X-1980000Y-26019999D03*
%TD*%
D17*
%TO.C,U29*%
X90536227Y-24259109D03*
D18*
X92989679Y-24916509D03*
%TD*%
D10*
%TO.C,D4*%
X-49972980Y36307494D03*
D19*
X-47918076Y34814520D03*
%TD*%
D20*
%TO.C,U17*%
X62037416Y20157178D03*
D18*
X64453100Y20942082D03*
%TD*%
D21*
%TO.C,U7*%
X-62037416Y-20157178D03*
D18*
X-64453100Y-20942082D03*
%TD*%
D22*
%TO.C,U14*%
X52772178Y-38341232D03*
D18*
X54827082Y-39834206D03*
%TD*%
D10*
%TO.C,D29*%
X88160051Y-23622414D03*
D23*
X85706599Y-22965014D03*
%TD*%
D10*
%TO.C,D32*%
X88160050Y23622413D03*
D24*
X85706596Y22965013D03*
%TD*%
D25*
%TO.C,330*%
X-2700000Y-38750002D03*
X-1050000Y-38750000D03*
%TD*%
D10*
%TO.C,D14*%
X49972980Y-36307494D03*
D26*
X47918076Y-34814520D03*
%TD*%
D27*
%TO.C,U16*%
X65229998Y0D03*
D18*
X67769998Y0D03*
%TD*%
D10*
%TO.C,D8*%
X-49972980Y-36307493D03*
D28*
X-47918076Y-34814519D03*
%TD*%
D29*
%TO.C,U8*%
X-52772178Y-38341232D03*
D18*
X-54827082Y-39834206D03*
%TD*%
D10*
%TO.C,D15*%
X58787842Y-19112452D03*
D30*
X56372158Y-18327548D03*
%TD*%
D31*
%TO.C,U15*%
X62037416Y-20157178D03*
D18*
X64453100Y-20942082D03*
%TD*%
D32*
%TO.C,U10*%
X-20157178Y-62037416D03*
D18*
X-20942082Y-64453100D03*
%TD*%
D10*
%TO.C,D12*%
X19087980Y-58746761D03*
D33*
X18303076Y-56331077D03*
%TD*%
D10*
%TO.C,D1*%
X0Y61769999D03*
D34*
X0Y59229999D03*
%TD*%
D35*
%TO.C,R43*%
X-11250001Y-27925000D03*
X-11249999Y-29575000D03*
%TD*%
D10*
%TO.C,D20*%
X19087980Y58746761D03*
D36*
X18303076Y56331077D03*
%TD*%
D10*
%TO.C,D2*%
X-19087980Y58746761D03*
D37*
X-18303076Y56331077D03*
%TD*%
D25*
%TO.C,R36*%
X-2700000Y-41250001D03*
X-1050000Y-41249999D03*
%TD*%
D10*
%TO.C,D19*%
X36307494Y49972980D03*
D38*
X34814520Y47918076D03*
%TD*%
D10*
%TO.C,D25*%
X-23622413Y-88160051D03*
D39*
X-22965013Y-85706599D03*
%TD*%
D40*
%TO.C,U23*%
X-93373331Y-8169108D03*
D18*
X-95903663Y-8390486D03*
%TD*%
D41*
%TO.C,PWR*%
X937501Y-34000000D03*
X-937501Y-34000000D03*
%TD*%
D10*
%TO.C,D22*%
X-90922690Y7954705D03*
D42*
X-88392356Y7733329D03*
%TD*%
D43*
%TO.C,U24*%
X-90536227Y-24259110D03*
D18*
X-92989681Y-24916510D03*
%TD*%
D44*
%TO.C,U22*%
X-93373330Y8169108D03*
D18*
X-95903664Y8390484D03*
%TD*%
D45*
%TO.C,U13*%
X38341232Y-52772178D03*
D18*
X39834206Y-54827082D03*
%TD*%
D10*
%TO.C,D17*%
X58746761Y19087980D03*
D46*
X56331077Y18303076D03*
%TD*%
D47*
%TO.C,U4*%
X-52772178Y38341232D03*
D18*
X-54827082Y39834206D03*
%TD*%
D48*
%TO.C,U28*%
X24259110Y-90536227D03*
D18*
X24916510Y-92989681D03*
%TD*%
D49*
%TO.C,U31*%
X93373331Y8169108D03*
D18*
X95903663Y8390486D03*
%TD*%
D50*
%TO.C,J2*%
X51849999Y3750000D03*
X51850000Y1250000D03*
X51850000Y-1249999D03*
D51*
X51850000Y-3750000D03*
%TD*%
D10*
%TO.C,D13*%
X36307493Y-49972980D03*
D52*
X34814519Y-47918076D03*
%TD*%
D53*
%TO.C,D49*%
X687499Y-43770000D03*
X2562501Y-43770000D03*
%TD*%
D54*
%TO.C,U5*%
X-62037416Y20157178D03*
D18*
X-64453100Y20942082D03*
%TD*%
D10*
%TO.C,D16*%
X61790000Y0D03*
D34*
X59250000Y0D03*
%TD*%
D10*
%TO.C,D27*%
X7954706Y-90922689D03*
D55*
X7733328Y-88392357D03*
%TD*%
D35*
%TO.C,R42*%
X-14000000Y-27925000D03*
X-13999998Y-29575000D03*
%TD*%
D10*
%TO.C,D21*%
X-88160047Y23622413D03*
D56*
X-85706595Y22965013D03*
%TD*%
D57*
%TO.C,U32*%
X90536227Y24259110D03*
D18*
X92989681Y24916510D03*
%TD*%
D13*
%TO.C,J5*%
X23830000Y-32500000D03*
X21290000Y-32500000D03*
X18750000Y-32500000D03*
X16210000Y-32500000D03*
X13670000Y-32500000D03*
D14*
X11130000Y-32500000D03*
%TD*%
D10*
%TO.C,D28*%
X23622414Y-88160052D03*
D58*
X22965014Y-85706598D03*
%TD*%
D59*
%TO.C,U30*%
X93373330Y-8169108D03*
D18*
X95903664Y-8390484D03*
%TD*%
D27*
%TO.C,U1*%
X0Y65229998D03*
D18*
X0Y67769998D03*
%TD*%
D10*
%TO.C,D31*%
X90922687Y7954705D03*
D60*
X88392355Y7733327D03*
%TD*%
D27*
%TO.C,U11*%
X0Y-65229998D03*
D18*
X0Y-67769998D03*
%TD*%
D25*
%TO.C,R39*%
X-2700000Y-43770001D03*
X-1050000Y-43769999D03*
%TD*%
D10*
%TO.C,D24*%
X-88160052Y-23622414D03*
D61*
X-85706598Y-22965014D03*
%TD*%
D62*
%TO.C,U3*%
X-38341232Y52772178D03*
D18*
X-39834206Y54827082D03*
%TD*%
D63*
%TO.C,U25*%
X-24259109Y-90536227D03*
D18*
X-24916509Y-92989679D03*
%TD*%
D27*
%TO.C,U6*%
X-65229998Y0D03*
D18*
X-67769998Y0D03*
%TD*%
D10*
%TO.C,D6*%
X-61769999Y0D03*
D34*
X-59229999Y0D03*
%TD*%
D64*
%TO.C,C6*%
X-38025000Y-44170000D03*
X-36475000Y-44170000D03*
%TD*%
D65*
%TO.C,U27*%
X8169108Y-93373331D03*
D18*
X8390486Y-95903663D03*
%TD*%
D10*
%TO.C,D26*%
X-7954705Y-90922689D03*
D66*
X-7733329Y-88392355D03*
%TD*%
D10*
%TO.C,D9*%
X-36307494Y-49972980D03*
D67*
X-34814520Y-47918076D03*
%TD*%
D68*
%TO.C,U21*%
X-90536227Y24259109D03*
D18*
X-92989679Y24916509D03*
%TD*%
D69*
%TO.C,U18*%
X52772178Y38341232D03*
D18*
X54827082Y39834206D03*
%TD*%
D70*
%TO.C,R34*%
X-36616636Y-41983362D03*
X-37783364Y-40816638D03*
%TD*%
D53*
%TO.C,D48*%
X687499Y-41250000D03*
X2562501Y-41250000D03*
%TD*%
D71*
%TO.C,R46*%
X25425000Y-35750000D03*
X23775000Y-35750000D03*
%TD*%
D72*
%TO.C,U19*%
X38341232Y52772178D03*
D18*
X39834206Y54827082D03*
%TD*%
D73*
%TO.C,U12*%
X20157178Y-62037416D03*
D18*
X20942082Y-64453100D03*
%TD*%
D74*
%TO.C,U20*%
X20157178Y62037416D03*
D18*
X20942082Y64453100D03*
%TD*%
D10*
%TO.C,D18*%
X49972980Y36307493D03*
D75*
X47918076Y34814519D03*
%TD*%
D10*
%TO.C,D23*%
X-90922690Y-7954705D03*
D76*
X-88392358Y-7733327D03*
%TD*%
D10*
%TO.C,D7*%
X-58746761Y-19087980D03*
D77*
X-56331077Y-18303076D03*
%TD*%
D78*
%TO.C,C11*%
X25375000Y-37750000D03*
X23825000Y-37750000D03*
%TD*%
D79*
%TO.C,U9*%
X-38341232Y-52772178D03*
D18*
X-39834206Y-54827082D03*
%TD*%
D80*
%TO.C,U2*%
X-20157178Y62037416D03*
D18*
X-20942082Y64453100D03*
%TD*%
D81*
%TO.C,C7*%
X-39920000Y-42275000D03*
X-39920000Y-40725000D03*
%TD*%
D71*
%TO.C,R33*%
X937501Y-31999999D03*
X-712499Y-32000001D03*
%TD*%
D10*
%TO.C,D5*%
X-58746761Y19087980D03*
D82*
X-56331077Y18303076D03*
%TD*%
D83*
%TO.C,U26*%
X-8169108Y-93373330D03*
D18*
X-8390484Y-95903664D03*
%TD*%
D10*
%TO.C,D11*%
X0Y-61769999D03*
D34*
X0Y-59229999D03*
%TD*%
D10*
%TO.C,D10*%
X-19087980Y-58746761D03*
D84*
X-18303076Y-56331077D03*
%TD*%
D10*
%TO.C,D30*%
X90922689Y-7954705D03*
D85*
X88392355Y-7733329D03*
%TD*%
D53*
%TO.C,D47*%
X687499Y-38750001D03*
X2562501Y-38750001D03*
%TD*%
M02*
