%TF.GenerationSoftware,KiCad,Pcbnew,8.0.3*%
%TF.CreationDate,2024-07-24T13:58:59+09:00*%
%TF.ProjectId,Line-20240325,4c696e65-2d32-4303-9234-303332352e6b,rev?*%
%TF.SameCoordinates,Original*%
%TF.FileFunction,Legend,Top*%
%TF.FilePolarity,Positive*%
%FSLAX46Y46*%
G04 Gerber Fmt 4.6, Leading zero omitted, Abs format (unit mm)*
G04 Created by KiCad (PCBNEW 8.0.3) date 2024-07-24 13:58:59*
%MOMM*%
%LPD*%
G01*
G04 APERTURE LIST*
G04 Aperture macros list*
%AMRoundRect*
0 Rectangle with rounded corners*
0 $1 Rounding radius*
0 $2 $3 $4 $5 $6 $7 $8 $9 X,Y pos of 4 corners*
0 Add a 4 corners polygon primitive as box body*
4,1,4,$2,$3,$4,$5,$6,$7,$8,$9,$2,$3,0*
0 Add four circle primitives for the rounded corners*
1,1,$1+$1,$2,$3*
1,1,$1+$1,$4,$5*
1,1,$1+$1,$6,$7*
1,1,$1+$1,$8,$9*
0 Add four rect primitives between the rounded corners*
20,1,$1+$1,$2,$3,$4,$5,0*
20,1,$1+$1,$4,$5,$6,$7,0*
20,1,$1+$1,$6,$7,$8,$9,0*
20,1,$1+$1,$8,$9,$2,$3,0*%
%AMHorizOval*
0 Thick line with rounded ends*
0 $1 width*
0 $2 $3 position (X,Y) of the first rounded end (center of the circle)*
0 $4 $5 position (X,Y) of the second rounded end (center of the circle)*
0 Add line between two ends*
20,1,$1,$2,$3,$4,$5,0*
0 Add two circle primitives to create the rounded ends*
1,1,$1,$2,$3*
1,1,$1,$4,$5*%
%AMRotRect*
0 Rectangle, with rotation*
0 The origin of the aperture is its center*
0 $1 length*
0 $2 width*
0 $3 Rotation angle, in degrees counterclockwise*
0 Add horizontal line*
21,1,$1,$2,0,0,$3*%
G04 Aperture macros list end*
%ADD10C,0.100000*%
%ADD11C,0.150000*%
%ADD12C,0.120000*%
%ADD13RoundRect,0.250001X-1.099999X-1.099999X1.099999X-1.099999X1.099999X1.099999X-1.099999X1.099999X0*%
%ADD14C,2.700000*%
%ADD15C,1.150000*%
%ADD16C,1.400000*%
%ADD17RotRect,1.400000X1.400000X165.000000*%
%ADD18RotRect,1.800000X1.800000X144.000000*%
%ADD19C,1.800000*%
%ADD20RotRect,1.400000X1.400000X198.000000*%
%ADD21RotRect,1.400000X1.400000X18.000000*%
%ADD22RotRect,1.400000X1.400000X144.000000*%
%ADD23RotRect,1.800000X1.800000X345.000000*%
%ADD24RotRect,1.800000X1.800000X15.000000*%
%ADD25R,1.600000X1.600000*%
%ADD26O,1.600000X1.600000*%
%ADD27RotRect,1.800000X1.800000X324.000000*%
%ADD28R,1.400000X1.400000*%
%ADD29RotRect,1.800000X1.800000X216.000000*%
%ADD30RotRect,1.400000X1.400000X36.000000*%
%ADD31RotRect,1.800000X1.800000X342.000000*%
%ADD32RotRect,1.400000X1.400000X162.000000*%
%ADD33RotRect,1.400000X1.400000X72.000000*%
%ADD34RotRect,1.800000X1.800000X288.000000*%
%ADD35R,1.800000X1.800000*%
%ADD36RotRect,1.800000X1.800000X72.000000*%
%ADD37RotRect,1.800000X1.800000X108.000000*%
%ADD38RotRect,1.800000X1.800000X54.000000*%
%ADD39RotRect,1.800000X1.800000X255.000000*%
%ADD40RotRect,1.400000X1.400000X5.000000*%
%ADD41RotRect,1.800000X1.800000X175.000000*%
%ADD42RotRect,1.400000X1.400000X15.000000*%
%ADD43RotRect,1.400000X1.400000X355.000000*%
%ADD44RotRect,1.600000X1.600000X315.000000*%
%ADD45HorizOval,1.600000X0.000000X0.000000X0.000000X0.000000X0*%
%ADD46RotRect,1.400000X1.400000X126.000000*%
%ADD47RotRect,1.800000X1.800000X18.000000*%
%ADD48RotRect,1.400000X1.400000X324.000000*%
%ADD49RotRect,1.400000X1.400000X105.000000*%
%ADD50RotRect,1.400000X1.400000X185.000000*%
%ADD51RoundRect,0.250000X0.725000X-0.600000X0.725000X0.600000X-0.725000X0.600000X-0.725000X-0.600000X0*%
%ADD52O,1.950000X1.700000*%
%ADD53RotRect,1.800000X1.800000X306.000000*%
%ADD54RotRect,1.400000X1.400000X342.000000*%
%ADD55RotRect,1.800000X1.800000X275.000000*%
%ADD56RotRect,1.800000X1.800000X165.000000*%
%ADD57RotRect,1.400000X1.400000X195.000000*%
%ADD58RotRect,1.600000X1.600000X243.000000*%
%ADD59HorizOval,1.600000X0.000000X0.000000X0.000000X0.000000X0*%
%ADD60RotRect,1.800000X1.800000X285.000000*%
%ADD61RotRect,1.400000X1.400000X175.000000*%
%ADD62RotRect,1.800000X1.800000X5.000000*%
%ADD63RotRect,1.800000X1.800000X195.000000*%
%ADD64RotRect,1.400000X1.400000X306.000000*%
%ADD65RotRect,1.400000X1.400000X75.000000*%
%ADD66RotRect,1.800000X1.800000X126.000000*%
%ADD67RotRect,1.400000X1.400000X95.000000*%
%ADD68RotRect,1.800000X1.800000X265.000000*%
%ADD69RotRect,1.800000X1.800000X234.000000*%
%ADD70RotRect,1.600000X1.600000X99.000000*%
%ADD71HorizOval,1.600000X0.000000X0.000000X0.000000X0.000000X0*%
%ADD72RotRect,1.400000X1.400000X345.000000*%
%ADD73RotRect,1.400000X1.400000X216.000000*%
%ADD74RotRect,1.400000X1.400000X234.000000*%
%ADD75RotRect,1.400000X1.400000X108.000000*%
%ADD76RotRect,1.400000X1.400000X252.000000*%
%ADD77RotRect,1.800000X1.800000X36.000000*%
%ADD78RotRect,1.600000X1.600000X27.000000*%
%ADD79HorizOval,1.600000X0.000000X0.000000X0.000000X0.000000X0*%
%ADD80RotRect,1.800000X1.800000X185.000000*%
%ADD81RotRect,1.800000X1.800000X198.000000*%
%ADD82R,1.700000X1.700000*%
%ADD83O,1.700000X1.700000*%
%ADD84RotRect,1.400000X1.400000X54.000000*%
%ADD85RotRect,1.400000X1.400000X288.000000*%
%ADD86RotRect,1.600000X1.600000X171.000000*%
%ADD87HorizOval,1.600000X0.000000X0.000000X0.000000X0.000000X0*%
%ADD88RotRect,1.800000X1.800000X162.000000*%
%ADD89RotRect,1.400000X1.400000X85.000000*%
%ADD90RotRect,1.800000X1.800000X252.000000*%
%ADD91RotRect,1.800000X1.800000X355.000000*%
G04 APERTURE END LIST*
D10*
G36*
X-15500004Y-46649991D02*
G01*
X-14781548Y-47368447D01*
X-14981714Y-47568613D01*
X-15452165Y-47098162D01*
X-15460061Y-47150322D01*
X-15470150Y-47199074D01*
X-15483781Y-47248766D01*
X-15485152Y-47253079D01*
X-15503288Y-47302826D01*
X-15524877Y-47352371D01*
X-15548459Y-47400480D01*
X-15554234Y-47411623D01*
X-15720031Y-47245826D01*
X-15696172Y-47197092D01*
X-15676404Y-47150630D01*
X-15658515Y-47099294D01*
X-15646195Y-47051048D01*
X-15640069Y-47012155D01*
X-15637532Y-46961930D01*
X-15640630Y-46912115D01*
X-15649362Y-46862710D01*
X-15663729Y-46813716D01*
X-15500004Y-46649991D01*
G37*
G36*
X-14685869Y-45995091D02*
G01*
X-14636182Y-46003610D01*
X-14585434Y-46020619D01*
X-14538379Y-46043448D01*
X-14713675Y-46261576D01*
X-14759917Y-46239487D01*
X-14791047Y-46236361D01*
X-14837192Y-46254333D01*
X-14850976Y-46266239D01*
X-14878471Y-46309752D01*
X-14882935Y-46362273D01*
X-14877227Y-46389551D01*
X-14856027Y-46435136D01*
X-14827253Y-46478568D01*
X-14792849Y-46523673D01*
X-14756506Y-46567610D01*
X-14756367Y-46518619D01*
X-14750210Y-46470155D01*
X-14741481Y-46437217D01*
X-14721169Y-46392752D01*
X-14690824Y-46350568D01*
X-14673434Y-46331867D01*
X-14636450Y-46299545D01*
X-14590017Y-46270339D01*
X-14540046Y-46250290D01*
X-14486539Y-46239398D01*
X-14446154Y-46237224D01*
X-14389797Y-46242302D01*
X-14336334Y-46257082D01*
X-14285762Y-46281564D01*
X-14244718Y-46310271D01*
X-14212137Y-46339639D01*
X-14177038Y-46380011D01*
X-14149071Y-46423798D01*
X-14128234Y-46471001D01*
X-14119740Y-46498701D01*
X-14110666Y-46549178D01*
X-14110061Y-46599381D01*
X-14117927Y-46649312D01*
X-14125957Y-46676933D01*
X-14147506Y-46726533D01*
X-14174458Y-46770713D01*
X-14208751Y-46814980D01*
X-14244779Y-46853784D01*
X-14284649Y-46891116D01*
X-14324083Y-46922936D01*
X-14369536Y-46953091D01*
X-14414395Y-46975742D01*
X-14452371Y-46989185D01*
X-14503783Y-46999126D01*
X-14557333Y-47000454D01*
X-14605942Y-46994550D01*
X-14656187Y-46982051D01*
X-14670844Y-46977268D01*
X-14722978Y-46955147D01*
X-14768625Y-46929359D01*
X-14815159Y-46897268D01*
X-14854614Y-46865711D01*
X-14894684Y-46829778D01*
X-14919022Y-46806117D01*
X-14953226Y-46770489D01*
X-14993822Y-46723565D01*
X-15028691Y-46677306D01*
X-15057833Y-46631710D01*
X-15066127Y-46615795D01*
X-14638893Y-46615795D01*
X-14628870Y-46665735D01*
X-14602134Y-46707297D01*
X-14590536Y-46719764D01*
X-14551798Y-46750292D01*
X-14503965Y-46767798D01*
X-14482595Y-46769331D01*
X-14431931Y-46759575D01*
X-14388099Y-46731605D01*
X-14382771Y-46726500D01*
X-14353497Y-46684359D01*
X-14343394Y-46635656D01*
X-14354292Y-46587073D01*
X-14382155Y-46545212D01*
X-14394169Y-46532378D01*
X-14433757Y-46500465D01*
X-14480801Y-46481774D01*
X-14501247Y-46479876D01*
X-14552238Y-46489677D01*
X-14593533Y-46517295D01*
X-14596062Y-46519771D01*
X-14626117Y-46561514D01*
X-14638564Y-46609025D01*
X-14638893Y-46615795D01*
X-15066127Y-46615795D01*
X-15081250Y-46586778D01*
X-15102468Y-46531547D01*
X-15114739Y-46477353D01*
X-15117806Y-46445335D01*
X-15116483Y-46392864D01*
X-15107765Y-46341667D01*
X-15091650Y-46291744D01*
X-15068140Y-46243093D01*
X-15037234Y-46195717D01*
X-14998933Y-46149613D01*
X-14981542Y-46131528D01*
X-14945102Y-46097039D01*
X-14905258Y-46064201D01*
X-14862731Y-46035644D01*
X-14826970Y-46017715D01*
X-14778895Y-46001873D01*
X-14730371Y-45994480D01*
X-14685869Y-45995091D01*
G37*
G36*
X-14588118Y-45760211D02*
G01*
X-14298663Y-45470756D01*
X-13758267Y-45787671D01*
X-14075700Y-45247793D01*
X-13787108Y-44959201D01*
X-13079706Y-45666604D01*
X-13259492Y-45846391D01*
X-13802479Y-45303404D01*
X-13398866Y-45985764D01*
X-13561555Y-46148453D01*
X-14243570Y-45744495D01*
X-13700583Y-46287481D01*
X-13880715Y-46467614D01*
X-14588118Y-45760211D01*
G37*
G36*
X-13650671Y-44822764D02*
G01*
X-13430644Y-44602737D01*
X-13187474Y-44845906D01*
X-12947068Y-44605500D01*
X-13190237Y-44362330D01*
X-12969347Y-44141440D01*
X-12261944Y-44848842D01*
X-12482834Y-45069733D01*
X-12770217Y-44782351D01*
X-13010623Y-45022757D01*
X-12723241Y-45310139D01*
X-12943268Y-45530167D01*
X-13650671Y-44822764D01*
G37*
G36*
X-12675056Y-44222957D02*
G01*
X-12196661Y-43744562D01*
X-12083193Y-43858029D01*
X-12070240Y-44391863D01*
X-11793738Y-44115361D01*
X-11661100Y-44247999D01*
X-12175073Y-44761971D01*
X-12300975Y-44636069D01*
X-12315137Y-44128314D01*
X-12542418Y-44355595D01*
X-12675056Y-44222957D01*
G37*
D11*
G36*
X47933706Y4335418D02*
G01*
X48879658Y4335418D01*
X48879658Y4100945D01*
X48562387Y4100945D01*
X48562387Y3335000D01*
X48251221Y3335000D01*
X48251221Y4100945D01*
X47933706Y4100945D01*
X47933706Y4335418D01*
G37*
G36*
X48945359Y4335418D02*
G01*
X49288032Y4335418D01*
X49466818Y4027672D01*
X49639742Y4335418D01*
X49979239Y4335418D01*
X49665876Y3850840D01*
X50008793Y3335000D01*
X49659037Y3335000D01*
X49460468Y3656423D01*
X49261410Y3335000D01*
X48913608Y3335000D01*
X49261410Y3856458D01*
X48945359Y4335418D01*
G37*
G36*
X48500792Y1834551D02*
G01*
X48555094Y1831347D01*
X48609167Y1824794D01*
X48659817Y1813737D01*
X48669609Y1810750D01*
X48718507Y1788965D01*
X48760421Y1757195D01*
X48792463Y1719647D01*
X48817193Y1675287D01*
X48832763Y1625251D01*
X48838946Y1575365D01*
X48839358Y1557714D01*
X48835852Y1507902D01*
X48823895Y1458288D01*
X48803454Y1414099D01*
X48772931Y1372048D01*
X48734852Y1336384D01*
X48705268Y1316158D01*
X48658068Y1294298D01*
X48608838Y1279594D01*
X48596092Y1276591D01*
X48644208Y1257845D01*
X48677180Y1239221D01*
X48711481Y1204234D01*
X48726762Y1185488D01*
X48756703Y1145474D01*
X48770481Y1122473D01*
X48920935Y835000D01*
X48569225Y835000D01*
X48403140Y1141036D01*
X48376713Y1185020D01*
X48346720Y1218217D01*
X48301153Y1238157D01*
X48270516Y1241420D01*
X48242917Y1241420D01*
X48242917Y835000D01*
X47930530Y835000D01*
X47930530Y1428998D01*
X48242917Y1428998D01*
X48374075Y1428998D01*
X48425412Y1436064D01*
X48456629Y1442676D01*
X48500801Y1466542D01*
X48507187Y1473939D01*
X48526040Y1520053D01*
X48526727Y1532069D01*
X48515792Y1581575D01*
X48495708Y1606318D01*
X48447638Y1626519D01*
X48395197Y1631981D01*
X48379693Y1632208D01*
X48242917Y1632208D01*
X48242917Y1428998D01*
X47930530Y1428998D01*
X47930530Y1835418D01*
X48449058Y1835418D01*
X48500792Y1834551D01*
G37*
G36*
X48945359Y1835418D02*
G01*
X49288032Y1835418D01*
X49466818Y1527672D01*
X49639742Y1835418D01*
X49979239Y1835418D01*
X49665876Y1350840D01*
X50008792Y835000D01*
X49659037Y835000D01*
X49460467Y1156423D01*
X49261409Y835000D01*
X48913608Y835000D01*
X49261409Y1356458D01*
X48945359Y1835418D01*
G37*
G36*
X47189986Y-1336737D02*
G01*
X47189986Y-1102264D01*
X47670656Y-1102264D01*
X47670656Y-1508196D01*
X47628307Y-1537927D01*
X47579535Y-1569480D01*
X47532995Y-1596534D01*
X47488688Y-1619088D01*
X47439818Y-1639715D01*
X47426413Y-1644483D01*
X47378133Y-1658568D01*
X47326042Y-1669194D01*
X47270141Y-1676360D01*
X47219194Y-1679749D01*
X47174599Y-1680631D01*
X47120192Y-1679152D01*
X47069017Y-1674716D01*
X47011872Y-1665488D01*
X46959382Y-1652001D01*
X46911546Y-1634255D01*
X46882240Y-1620059D01*
X46835292Y-1590730D01*
X46793182Y-1555745D01*
X46755911Y-1515103D01*
X46723479Y-1468804D01*
X46707118Y-1439808D01*
X46686035Y-1393600D01*
X46669314Y-1344919D01*
X46656955Y-1293766D01*
X46648958Y-1240139D01*
X46645323Y-1184040D01*
X46645081Y-1164790D01*
X46646738Y-1114772D01*
X46653104Y-1057504D01*
X46664244Y-1003242D01*
X46680158Y-951986D01*
X46700846Y-903734D01*
X46712980Y-880736D01*
X46740749Y-837450D01*
X46772949Y-798269D01*
X46809580Y-763193D01*
X46850641Y-732221D01*
X46896134Y-705353D01*
X46912282Y-697309D01*
X46960444Y-678466D01*
X47015385Y-664251D01*
X47067873Y-655750D01*
X47125340Y-650649D01*
X47177034Y-648996D01*
X47187788Y-648949D01*
X47237868Y-649713D01*
X47292547Y-652643D01*
X47341320Y-657773D01*
X47390754Y-666535D01*
X47437404Y-680212D01*
X47486387Y-702986D01*
X47529835Y-732534D01*
X47567750Y-768855D01*
X47574669Y-776933D01*
X47603299Y-816534D01*
X47627640Y-861700D01*
X47647692Y-912430D01*
X47656979Y-943018D01*
X47356804Y-992843D01*
X47333713Y-948629D01*
X47296543Y-913534D01*
X47293790Y-911755D01*
X47246978Y-891418D01*
X47197726Y-883865D01*
X47180949Y-883422D01*
X47126669Y-888697D01*
X47078957Y-904520D01*
X47037814Y-930892D01*
X47017795Y-950101D01*
X46988397Y-993751D01*
X46970342Y-1042867D01*
X46960780Y-1093807D01*
X46957216Y-1143386D01*
X46956979Y-1161127D01*
X46959143Y-1215646D01*
X46967137Y-1271438D01*
X46981021Y-1318816D01*
X47004102Y-1362657D01*
X47018528Y-1380457D01*
X47056975Y-1412217D01*
X47103072Y-1433582D01*
X47156820Y-1444554D01*
X47189986Y-1446158D01*
X47240850Y-1443593D01*
X47289393Y-1435900D01*
X47336996Y-1423116D01*
X47386750Y-1405472D01*
X47398081Y-1400973D01*
X47398081Y-1336737D01*
X47189986Y-1336737D01*
G37*
G36*
X47851152Y-664581D02*
G01*
X48141801Y-664581D01*
X48521110Y-1228293D01*
X48521110Y-664581D01*
X48814201Y-664581D01*
X48814201Y-1665000D01*
X48521110Y-1665000D01*
X48143755Y-1104218D01*
X48143755Y-1665000D01*
X47851152Y-1665000D01*
X47851152Y-664581D01*
G37*
G36*
X49530590Y-665877D02*
G01*
X49583534Y-670668D01*
X49637917Y-680464D01*
X49685765Y-694870D01*
X49702024Y-701461D01*
X49747104Y-724738D01*
X49787547Y-753076D01*
X49823354Y-786476D01*
X49841243Y-807219D01*
X49869759Y-847758D01*
X49893484Y-891892D01*
X49912417Y-939619D01*
X49920866Y-967686D01*
X49932790Y-1019938D01*
X49940812Y-1073929D01*
X49944667Y-1123380D01*
X49945534Y-1161371D01*
X49944238Y-1219013D01*
X49940348Y-1271589D01*
X49932532Y-1326525D01*
X49921187Y-1374565D01*
X49908654Y-1410254D01*
X49885785Y-1457610D01*
X49858396Y-1500483D01*
X49826486Y-1538874D01*
X49806804Y-1558265D01*
X49765092Y-1591625D01*
X49721472Y-1617208D01*
X49675944Y-1635016D01*
X49666609Y-1637644D01*
X49616646Y-1649612D01*
X49563321Y-1658989D01*
X49513048Y-1664038D01*
X49481229Y-1665000D01*
X49018877Y-1665000D01*
X49018877Y-1430526D01*
X49330042Y-1430526D01*
X49406246Y-1430526D01*
X49456620Y-1428884D01*
X49506118Y-1422417D01*
X49544976Y-1409766D01*
X49583732Y-1378694D01*
X49609456Y-1336737D01*
X49623744Y-1288469D01*
X49630614Y-1234392D01*
X49632812Y-1182063D01*
X49632903Y-1167721D01*
X49631066Y-1113179D01*
X49624277Y-1058228D01*
X49610393Y-1006876D01*
X49586965Y-963702D01*
X49580635Y-956207D01*
X49541394Y-926068D01*
X49494576Y-908486D01*
X49443811Y-900449D01*
X49407711Y-899054D01*
X49330042Y-899054D01*
X49330042Y-1430526D01*
X49018877Y-1430526D01*
X49018877Y-664581D01*
X49481229Y-664581D01*
X49530590Y-665877D01*
G37*
G36*
X47141626Y-3555369D02*
G01*
X47404676Y-3555369D01*
X47404676Y-3289633D01*
X47626692Y-3289633D01*
X47626692Y-3555369D01*
X47891207Y-3555369D01*
X47891207Y-3774211D01*
X47626692Y-3774211D01*
X47626692Y-4039947D01*
X47404676Y-4039947D01*
X47404676Y-3774211D01*
X47141626Y-3774211D01*
X47141626Y-3555369D01*
G37*
G36*
X48149616Y-3164581D02*
G01*
X48813957Y-3164581D01*
X48813957Y-3399054D01*
X48364062Y-3399054D01*
X48339882Y-3540471D01*
X48386288Y-3519588D01*
X48432205Y-3504811D01*
X48480458Y-3495473D01*
X48522575Y-3492843D01*
X48577261Y-3496029D01*
X48627928Y-3505586D01*
X48674576Y-3521514D01*
X48723921Y-3548150D01*
X48767795Y-3583457D01*
X48804530Y-3625345D01*
X48832243Y-3671721D01*
X48850933Y-3722584D01*
X48860600Y-3777936D01*
X48862073Y-3811580D01*
X48858228Y-3865386D01*
X48846694Y-3917995D01*
X48827471Y-3969405D01*
X48813468Y-3997449D01*
X48786754Y-4039398D01*
X48750643Y-4080313D01*
X48708118Y-4114582D01*
X48676204Y-4133736D01*
X48628638Y-4154253D01*
X48574843Y-4168907D01*
X48522664Y-4176922D01*
X48465716Y-4180448D01*
X48448570Y-4180631D01*
X48394757Y-4179105D01*
X48345427Y-4174526D01*
X48295872Y-4165858D01*
X48277600Y-4161336D01*
X48231247Y-4145819D01*
X48186407Y-4123757D01*
X48156699Y-4103695D01*
X48119478Y-4070886D01*
X48086246Y-4031856D01*
X48076099Y-4016988D01*
X48052630Y-3973547D01*
X48034043Y-3926435D01*
X48024564Y-3895844D01*
X48307642Y-3868000D01*
X48321900Y-3916032D01*
X48351133Y-3957187D01*
X48355757Y-3961301D01*
X48400048Y-3986076D01*
X48445883Y-3993053D01*
X48496154Y-3984359D01*
X48537517Y-3958277D01*
X48542359Y-3953485D01*
X48568405Y-3911431D01*
X48579121Y-3863551D01*
X48580461Y-3835516D01*
X48575901Y-3785351D01*
X48558754Y-3739162D01*
X48541870Y-3717791D01*
X48500286Y-3690968D01*
X48451306Y-3680750D01*
X48439533Y-3680422D01*
X48389902Y-3687386D01*
X48361131Y-3698251D01*
X48319855Y-3725863D01*
X48299337Y-3744902D01*
X48061201Y-3714127D01*
X48149616Y-3164581D01*
G37*
G36*
X48915074Y-3164581D02*
G01*
X49240649Y-3164581D01*
X49467307Y-3884609D01*
X49690545Y-3164581D01*
X50006595Y-3164581D01*
X49632903Y-4165000D01*
X49295604Y-4165000D01*
X48915074Y-3164581D01*
G37*
D12*
%TO.C,J1*%
X-4840200Y-25700040D02*
X-4240200Y-26000040D01*
X-4840200Y-26300040D02*
X-4840200Y-25700040D01*
X-4240200Y-26000040D02*
X-4840200Y-26300040D01*
X-4040200Y-23890040D02*
X-2840200Y-23890040D01*
X-4040200Y-30910040D02*
X-4040200Y-23890040D01*
X-2840200Y-22190040D02*
X2839800Y-22190040D01*
X-2840200Y-23890040D02*
X-2840200Y-22190040D01*
X2839800Y-22190040D02*
X2839800Y-23890040D01*
X2839800Y-23890040D02*
X4039800Y-23890040D01*
X4039800Y-23890040D02*
X4039800Y-30910040D01*
X4039800Y-30910040D02*
X-4040200Y-30910040D01*
D10*
%TO.C,Y1*%
X-16007748Y-38967019D02*
X-20533231Y-43492502D01*
X-12967189Y-42007578D02*
X-17492672Y-46533061D01*
X-17492672Y-46533061D02*
G75*
G02*
X-20533231Y-43492502I-1520280J1520279D01*
G01*
X-16007748Y-38967019D02*
G75*
G02*
X-12967189Y-42007578I1520280J-1520279D01*
G01*
%TD*%
%LPC*%
D13*
%TO.C,J1*%
X-1980200Y-26000040D03*
D14*
X1979800Y-26000040D03*
%TD*%
D15*
%TO.C,Y1*%
X-15053154Y-41052984D03*
X-18447266Y-44447096D03*
%TD*%
D16*
%TO.C,U29*%
X92989879Y-24916249D03*
D17*
X90536427Y-24258849D03*
%TD*%
D18*
%TO.C,D4*%
X-47918276Y34814480D03*
D19*
X-49973180Y36307454D03*
%TD*%
D16*
%TO.C,U17*%
X64452900Y20942042D03*
D20*
X62037216Y20157138D03*
%TD*%
D16*
%TO.C,U7*%
X-64453300Y-20942122D03*
D21*
X-62037616Y-20157218D03*
%TD*%
D16*
%TO.C,U14*%
X54826882Y-39834246D03*
D22*
X52771978Y-38341272D03*
%TD*%
D23*
%TO.C,D29*%
X85706799Y-22964754D03*
D19*
X88160251Y-23622154D03*
%TD*%
D24*
%TO.C,D32*%
X85706797Y22965273D03*
D19*
X88160249Y23622673D03*
%TD*%
D25*
%TO.C,Comp6*%
X-70917504Y-3799740D03*
D26*
X-73457504Y-3799740D03*
X-75997504Y-3799740D03*
X-78537504Y-3799740D03*
X-81077504Y-3799740D03*
X-83617504Y-3799740D03*
X-86157504Y-3799740D03*
X-86157504Y3820260D03*
X-83617504Y3820260D03*
X-81077504Y3820260D03*
X-78537504Y3820260D03*
X-75997504Y3820260D03*
X-73457504Y3820260D03*
X-70917504Y3820260D03*
%TD*%
D27*
%TO.C,D14*%
X47917876Y-34814560D03*
D19*
X49972780Y-36307534D03*
%TD*%
D16*
%TO.C,U16*%
X67769800Y-40D03*
D28*
X65229800Y-40D03*
%TD*%
D29*
%TO.C,D8*%
X-47918276Y-34814560D03*
D19*
X-49973180Y-36307534D03*
%TD*%
D16*
%TO.C,U8*%
X-54827282Y-39834246D03*
D30*
X-52772378Y-38341272D03*
%TD*%
D31*
%TO.C,D15*%
X56330877Y-18303116D03*
D19*
X58746561Y-19088020D03*
%TD*%
D16*
%TO.C,U15*%
X64452900Y-20942122D03*
D32*
X62037216Y-20157218D03*
%TD*%
D16*
%TO.C,U10*%
X-20942282Y-64453140D03*
D33*
X-20157378Y-62037456D03*
%TD*%
D34*
%TO.C,D12*%
X18302876Y-56331117D03*
D19*
X19087780Y-58746801D03*
%TD*%
D35*
%TO.C,D1*%
X-200Y59229960D03*
D19*
X-200Y61769960D03*
%TD*%
D36*
%TO.C,D20*%
X18302876Y56331037D03*
D19*
X19087780Y58746721D03*
%TD*%
D37*
%TO.C,D2*%
X-18303276Y56331037D03*
D19*
X-19088180Y58746721D03*
%TD*%
D38*
%TO.C,D19*%
X34814320Y47918036D03*
D19*
X36307294Y49972940D03*
%TD*%
D39*
%TO.C,D25*%
X-22964813Y-85706339D03*
D19*
X-23622213Y-88159791D03*
%TD*%
D16*
%TO.C,U23*%
X-95903464Y-8390225D03*
D40*
X-93373130Y-8168849D03*
%TD*%
D41*
%TO.C,D22*%
X-88392156Y7733589D03*
D19*
X-90922490Y7954965D03*
%TD*%
D16*
%TO.C,U24*%
X-92989480Y-24916250D03*
D42*
X-90536028Y-24258850D03*
%TD*%
D16*
%TO.C,U22*%
X-95903464Y8390744D03*
D43*
X-93373130Y8169368D03*
%TD*%
D44*
%TO.C,Comp5*%
X32053351Y37427422D03*
D45*
X33849402Y39223473D03*
X35645453Y41019525D03*
X37441504Y42815576D03*
X39237555Y44611627D03*
X41033607Y46407678D03*
X42829658Y48203729D03*
X48217812Y42815576D03*
X46421760Y41019525D03*
X44625709Y39223473D03*
X42829658Y37427422D03*
X41033607Y35631371D03*
X39237555Y33835320D03*
X37441504Y32039268D03*
%TD*%
D16*
%TO.C,U13*%
X39834006Y-54827122D03*
D46*
X38341032Y-52772218D03*
%TD*%
D47*
%TO.C,D17*%
X56330877Y18303036D03*
D19*
X58746561Y19087940D03*
%TD*%
D16*
%TO.C,U4*%
X-54827282Y39834166D03*
D48*
X-52772378Y38341192D03*
%TD*%
D16*
%TO.C,U28*%
X24916710Y-92989420D03*
D49*
X24259310Y-90535968D03*
%TD*%
D16*
%TO.C,U31*%
X95903864Y8390745D03*
D50*
X93373530Y8169369D03*
%TD*%
D51*
%TO.C,J2*%
X51850200Y-3749740D03*
D52*
X51850200Y-1249740D03*
X51850200Y1250260D03*
X51850200Y3750260D03*
%TD*%
D53*
%TO.C,D13*%
X34814320Y-47918116D03*
D19*
X36307294Y-49973020D03*
%TD*%
D16*
%TO.C,U5*%
X-64453300Y20942042D03*
D54*
X-62037616Y20157138D03*
%TD*%
D35*
%TO.C,D16*%
X59229800Y-40D03*
D19*
X61769800Y-40D03*
%TD*%
D55*
%TO.C,D27*%
X7733529Y-88392096D03*
D19*
X7954905Y-90922430D03*
%TD*%
D56*
%TO.C,D21*%
X-85706395Y22965273D03*
D19*
X-88159847Y23622673D03*
%TD*%
D16*
%TO.C,U32*%
X92989880Y24916770D03*
D57*
X90536428Y24259370D03*
%TD*%
D58*
%TO.C,Comp4*%
X45500514Y-18918470D03*
D59*
X47763671Y-20071605D03*
X50026827Y-21224741D03*
X52289984Y-22377877D03*
X54553140Y-23531013D03*
X56816297Y-24684149D03*
X59079454Y-25837285D03*
X55620046Y-32626755D03*
X53356889Y-31473619D03*
X51093733Y-30320483D03*
X48830576Y-29167347D03*
X46567420Y-28014211D03*
X44304263Y-26861075D03*
X42041107Y-25707939D03*
%TD*%
D60*
%TO.C,D28*%
X22965214Y-85706339D03*
D19*
X23622614Y-88159791D03*
%TD*%
D25*
%TO.C,Comp7*%
X3800200Y-70911018D03*
D26*
X3800200Y-73451018D03*
X3800200Y-75991018D03*
X3800200Y-78531018D03*
X3800200Y-81071018D03*
X3800200Y-83611018D03*
X3800200Y-86151018D03*
X-3819800Y-86151018D03*
X-3819800Y-83611018D03*
X-3819800Y-81071018D03*
X-3819800Y-78531018D03*
X-3819800Y-75991018D03*
X-3819800Y-73451018D03*
X-3819800Y-70911018D03*
%TD*%
D16*
%TO.C,U30*%
X95903864Y-8390224D03*
D61*
X93373530Y-8168848D03*
%TD*%
D16*
%TO.C,U1*%
X-200Y67769960D03*
D28*
X-200Y65229960D03*
%TD*%
D62*
%TO.C,D31*%
X88392554Y7733588D03*
D19*
X90922888Y7954964D03*
%TD*%
D16*
%TO.C,U11*%
X-200Y-67770040D03*
D28*
X-200Y-65230040D03*
%TD*%
D63*
%TO.C,D24*%
X-85706399Y-22964754D03*
D19*
X-88159851Y-23622154D03*
%TD*%
D16*
%TO.C,U3*%
X-39834406Y54827042D03*
D64*
X-38341432Y52772138D03*
%TD*%
D25*
%TO.C,Comp8*%
X70920498Y3800260D03*
D26*
X73460498Y3800260D03*
X76000498Y3800260D03*
X78540498Y3800260D03*
X81080498Y3800260D03*
X83620498Y3800260D03*
X86160498Y3800260D03*
X86160498Y-3819740D03*
X83620498Y-3819740D03*
X81080498Y-3819740D03*
X78540498Y-3819740D03*
X76000498Y-3819740D03*
X73460498Y-3819740D03*
X70920498Y-3819740D03*
%TD*%
D16*
%TO.C,U25*%
X-24916309Y-92989419D03*
D65*
X-24258909Y-90535967D03*
%TD*%
D16*
%TO.C,U6*%
X-67770200Y-39D03*
D28*
X-65230200Y-39D03*
%TD*%
D35*
%TO.C,D6*%
X-59230200Y-39D03*
D19*
X-61770200Y-39D03*
%TD*%
D66*
%TO.C,D3*%
X-34814720Y47918036D03*
D19*
X-36307694Y49972940D03*
%TD*%
D16*
%TO.C,U27*%
X8390685Y-95903404D03*
D67*
X8169309Y-93373070D03*
%TD*%
D68*
%TO.C,D26*%
X-7733129Y-88392095D03*
D19*
X-7954505Y-90922429D03*
%TD*%
D69*
%TO.C,D9*%
X-34814720Y-47918116D03*
D19*
X-36307694Y-49973020D03*
%TD*%
D70*
%TO.C,Comp2*%
X-47930477Y-11438581D03*
D71*
X-50439205Y-11835925D03*
X-52947934Y-12233268D03*
X-55456662Y-12630612D03*
X-57965390Y-13027955D03*
X-60474119Y-13425299D03*
X-62982847Y-13822642D03*
X-64174878Y-6296457D03*
X-61666149Y-5899114D03*
X-59157421Y-5501770D03*
X-56648693Y-5104427D03*
X-54139964Y-4707083D03*
X-51631236Y-4309739D03*
X-49122508Y-3912396D03*
%TD*%
D16*
%TO.C,U21*%
X-92989479Y24916769D03*
D72*
X-90536027Y24259369D03*
%TD*%
D16*
%TO.C,U18*%
X54826882Y39834166D03*
D73*
X52771978Y38341192D03*
%TD*%
D16*
%TO.C,U19*%
X39834006Y54827042D03*
D74*
X38341032Y52772138D03*
%TD*%
D16*
%TO.C,U12*%
X20941882Y-64453140D03*
D75*
X20156978Y-62037456D03*
%TD*%
D16*
%TO.C,U20*%
X20941882Y64453060D03*
D76*
X20156978Y62037376D03*
%TD*%
D77*
%TO.C,D18*%
X47917876Y34814480D03*
D19*
X49972780Y36307454D03*
%TD*%
D78*
%TO.C,Comp1*%
X-25690178Y42050247D03*
D79*
X-26843314Y44313404D03*
X-27996450Y46576561D03*
X-29149586Y48839717D03*
X-30302722Y51102874D03*
X-31455858Y53366030D03*
X-32608993Y55629187D03*
X-25819524Y59088594D03*
X-24666388Y56825438D03*
X-23513252Y54562281D03*
X-22360116Y52299125D03*
X-21206980Y50035968D03*
X-20053844Y47772812D03*
X-18900708Y45509655D03*
%TD*%
D80*
%TO.C,D23*%
X-88392157Y-7733068D03*
D19*
X-90922491Y-7954444D03*
%TD*%
D81*
%TO.C,D7*%
X-56331277Y-18303116D03*
D19*
X-58746961Y-19088020D03*
%TD*%
D82*
%TO.C,J4*%
X11130200Y-32499740D03*
D83*
X13670200Y-32499740D03*
X16210200Y-32499740D03*
X18750200Y-32499740D03*
X21290200Y-32499740D03*
X23830200Y-32499740D03*
%TD*%
D16*
%TO.C,U9*%
X-39834406Y-54827122D03*
D84*
X-38341432Y-52772218D03*
%TD*%
D16*
%TO.C,U2*%
X-20942282Y64453060D03*
D85*
X-20157378Y62037376D03*
%TD*%
D86*
%TO.C,Comp3*%
X-3932210Y-49119321D03*
D87*
X-4329553Y-51628049D03*
X-4726897Y-54136778D03*
X-5124240Y-56645506D03*
X-5521584Y-59154234D03*
X-5918927Y-61662963D03*
X-6316271Y-64171691D03*
X-13842456Y-62979660D03*
X-13445113Y-60470932D03*
X-13047769Y-57962204D03*
X-12650425Y-55453475D03*
X-12253082Y-52944747D03*
X-11855738Y-50436019D03*
X-11458395Y-47927290D03*
%TD*%
D88*
%TO.C,D5*%
X-56331277Y18303036D03*
D19*
X-58746961Y19087940D03*
%TD*%
D16*
%TO.C,U26*%
X-8390284Y-95903404D03*
D89*
X-8168908Y-93373070D03*
%TD*%
D35*
%TO.C,D11*%
X-200Y-59230040D03*
D19*
X-200Y-61770040D03*
%TD*%
D90*
%TO.C,D10*%
X-18303276Y-56331117D03*
D19*
X-19088180Y-58746801D03*
%TD*%
D91*
%TO.C,D30*%
X88392555Y-7733069D03*
D19*
X90922889Y-7954445D03*
%TD*%
%LPD*%
M02*
