%TF.GenerationSoftware,KiCad,Pcbnew,8.0.1*%
%TF.CreationDate,2024-08-22T21:09:10+09:00*%
%TF.ProjectId,Line-20240325,4c696e65-2d32-4303-9234-303332352e6b,rev?*%
%TF.SameCoordinates,Original*%
%TF.FileFunction,Soldermask,Bot*%
%TF.FilePolarity,Negative*%
%FSLAX46Y46*%
G04 Gerber Fmt 4.6, Leading zero omitted, Abs format (unit mm)*
G04 Created by KiCad (PCBNEW 8.0.1) date 2024-08-22 21:09:10*
%MOMM*%
%LPD*%
G01*
G04 APERTURE LIST*
G04 Aperture macros list*
%AMRoundRect*
0 Rectangle with rounded corners*
0 $1 Rounding radius*
0 $2 $3 $4 $5 $6 $7 $8 $9 X,Y pos of 4 corners*
0 Add a 4 corners polygon primitive as box body*
4,1,4,$2,$3,$4,$5,$6,$7,$8,$9,$2,$3,0*
0 Add four circle primitives for the rounded corners*
1,1,$1+$1,$2,$3*
1,1,$1+$1,$4,$5*
1,1,$1+$1,$6,$7*
1,1,$1+$1,$8,$9*
0 Add four rect primitives between the rounded corners*
20,1,$1+$1,$2,$3,$4,$5,0*
20,1,$1+$1,$4,$5,$6,$7,0*
20,1,$1+$1,$6,$7,$8,$9,0*
20,1,$1+$1,$8,$9,$2,$3,0*%
%AMHorizOval*
0 Thick line with rounded ends*
0 $1 width*
0 $2 $3 position (X,Y) of the first rounded end (center of the circle)*
0 $4 $5 position (X,Y) of the second rounded end (center of the circle)*
0 Add line between two ends*
20,1,$1,$2,$3,$4,$5,0*
0 Add two circle primitives to create the rounded ends*
1,1,$1,$2,$3*
1,1,$1,$4,$5*%
%AMRotRect*
0 Rectangle, with rotation*
0 The origin of the aperture is its center*
0 $1 length*
0 $2 width*
0 $3 Rotation angle, in degrees counterclockwise*
0 Add horizontal line*
21,1,$1,$2,0,0,$3*%
G04 Aperture macros list end*
%ADD10C,3.200000*%
%ADD11RoundRect,0.250001X-1.099999X-1.099999X1.099999X-1.099999X1.099999X1.099999X-1.099999X1.099999X0*%
%ADD12C,2.700000*%
%ADD13R,2.000000X2.000000*%
%ADD14C,2.000000*%
%ADD15RoundRect,0.200000X-0.214118X-0.264156X0.185334X-0.285090X0.214118X0.264156X-0.185334X0.285090X0*%
%ADD16C,1.400000*%
%ADD17RotRect,1.400000X1.400000X342.000000*%
%ADD18RoundRect,0.200000X0.000162X0.340037X-0.323444X0.104923X-0.000162X-0.340037X0.323444X-0.104923X0*%
%ADD19RotRect,1.400000X1.400000X252.000000*%
%ADD20RoundRect,0.225000X-0.335876X-0.017678X-0.017678X-0.335876X0.335876X0.017678X0.017678X0.335876X0*%
%ADD21RotRect,1.600000X1.600000X99.000000*%
%ADD22HorizOval,1.600000X0.000000X0.000000X0.000000X0.000000X0*%
%ADD23RoundRect,0.200000X-0.264156X0.214118X-0.285090X-0.185334X0.264156X-0.214118X0.285090X0.185334X0*%
%ADD24RoundRect,0.200000X0.200000X0.275000X-0.200000X0.275000X-0.200000X-0.275000X0.200000X-0.275000X0*%
%ADD25RotRect,1.400000X1.400000X195.000000*%
%ADD26RotRect,1.400000X1.400000X72.000000*%
%ADD27RoundRect,0.200000X-0.133012X-0.312942X0.256736X-0.222962X0.133012X0.312942X-0.256736X0.222962X0*%
%ADD28RotRect,1.400000X1.400000X324.000000*%
%ADD29RotRect,1.400000X1.400000X185.000000*%
%ADD30RoundRect,0.200000X0.105232X0.323344X-0.275191X0.199737X-0.105232X-0.323344X0.275191X-0.199737X0*%
%ADD31RoundRect,0.200000X-0.000162X-0.340037X0.323444X-0.104923X0.000162X0.340037X-0.323444X0.104923X0*%
%ADD32R,1.700000X1.700000*%
%ADD33O,1.700000X1.700000*%
%ADD34RoundRect,0.225000X0.225000X0.250000X-0.225000X0.250000X-0.225000X-0.250000X0.225000X-0.250000X0*%
%ADD35RoundRect,0.200000X0.248576X-0.232023X0.297324X0.164995X-0.248576X0.232023X-0.297324X-0.164995X0*%
%ADD36RotRect,1.800000X1.800000X36.000000*%
%ADD37C,1.800000*%
%ADD38RoundRect,0.243750X0.243750X0.456250X-0.243750X0.456250X-0.243750X-0.456250X0.243750X-0.456250X0*%
%ADD39RoundRect,0.200000X-0.105232X-0.323344X0.275191X-0.199737X0.105232X0.323344X-0.275191X0.199737X0*%
%ADD40RoundRect,0.200000X0.164995X0.297324X-0.232023X0.248576X-0.164995X-0.297324X0.232023X-0.248576X0*%
%ADD41R,1.800000X1.800000*%
%ADD42RotRect,1.600000X1.600000X27.000000*%
%ADD43HorizOval,1.600000X0.000000X0.000000X0.000000X0.000000X0*%
%ADD44RotRect,1.400000X1.400000X162.000000*%
%ADD45C,1.150000*%
%ADD46RoundRect,0.200000X-0.275191X-0.199737X0.105232X-0.323344X0.275191X0.199737X-0.105232X0.323344X0*%
%ADD47RotRect,1.800000X1.800000X288.000000*%
%ADD48RoundRect,0.200000X0.285090X-0.185334X0.264156X0.214118X-0.285090X0.185334X-0.264156X-0.214118X0*%
%ADD49RoundRect,0.200000X-0.164995X-0.297324X0.232023X-0.248576X0.164995X0.297324X-0.232023X0.248576X0*%
%ADD50RoundRect,0.200000X0.340037X-0.000162X0.104923X0.323444X-0.340037X0.000162X-0.104923X-0.323444X0*%
%ADD51RotRect,1.800000X1.800000X162.000000*%
%ADD52R,1.400000X1.400000*%
%ADD53R,1.600000X1.600000*%
%ADD54O,1.600000X1.600000*%
%ADD55RoundRect,0.200000X-0.200000X-0.275000X0.200000X-0.275000X0.200000X0.275000X-0.200000X0.275000X0*%
%ADD56RotRect,1.800000X1.800000X5.000000*%
%ADD57RoundRect,0.225000X-0.017678X0.335876X-0.335876X0.017678X0.017678X-0.335876X0.335876X-0.017678X0*%
%ADD58RotRect,1.800000X1.800000X165.000000*%
%ADD59RoundRect,0.200000X-0.275000X0.200000X-0.275000X-0.200000X0.275000X-0.200000X0.275000X0.200000X0*%
%ADD60RoundRect,0.200000X0.323444X0.104923X-0.000162X0.340037X-0.323444X-0.104923X0.000162X-0.340037X0*%
%ADD61RoundRect,0.200000X0.335876X0.053033X0.053033X0.335876X-0.335876X-0.053033X-0.053033X-0.335876X0*%
%ADD62RotRect,1.400000X1.400000X15.000000*%
%ADD63RoundRect,0.200000X0.110859X0.321458X-0.271663X0.204509X-0.110859X-0.321458X0.271663X-0.204509X0*%
%ADD64RotRect,1.600000X1.600000X315.000000*%
%ADD65HorizOval,1.600000X0.000000X0.000000X0.000000X0.000000X0*%
%ADD66RoundRect,0.200000X-0.222962X0.256736X-0.312942X-0.133012X0.222962X-0.256736X0.312942X0.133012X0*%
%ADD67RoundRect,0.200000X0.275191X0.199737X-0.105232X0.323344X-0.275191X-0.199737X0.105232X-0.323344X0*%
%ADD68RotRect,1.400000X1.400000X265.000000*%
%ADD69RoundRect,0.200000X0.256736X0.222962X-0.133012X0.312942X-0.256736X-0.222962X0.133012X-0.312942X0*%
%ADD70RotRect,1.800000X1.800000X85.000000*%
%ADD71RoundRect,0.200000X-0.199737X0.275191X-0.323344X-0.105232X0.199737X-0.275191X0.323344X0.105232X0*%
%ADD72RoundRect,0.200000X0.312942X-0.133012X0.222962X0.256736X-0.312942X0.133012X-0.222962X-0.256736X0*%
%ADD73RotRect,1.800000X1.800000X72.000000*%
%ADD74RoundRect,0.200000X0.104923X-0.323444X0.340037X0.000162X-0.104923X0.323444X-0.340037X-0.000162X0*%
%ADD75RotRect,1.800000X1.800000X15.000000*%
%ADD76RoundRect,0.250000X0.725000X-0.600000X0.725000X0.600000X-0.725000X0.600000X-0.725000X-0.600000X0*%
%ADD77O,1.950000X1.700000*%
%ADD78RotRect,1.800000X1.800000X126.000000*%
%ADD79RotRect,1.400000X1.400000X345.000000*%
%ADD80RotRect,1.400000X1.400000X175.000000*%
%ADD81RotRect,1.400000X1.400000X165.000000*%
%ADD82RotRect,1.800000X1.800000X345.000000*%
%ADD83RoundRect,0.225000X-0.250000X0.225000X-0.250000X-0.225000X0.250000X-0.225000X0.250000X0.225000X0*%
%ADD84RotRect,1.600000X1.600000X171.000000*%
%ADD85HorizOval,1.600000X0.000000X0.000000X0.000000X0.000000X0*%
%ADD86RoundRect,0.200000X-0.323344X0.105232X-0.199737X-0.275191X0.323344X-0.105232X0.199737X0.275191X0*%
%ADD87RotRect,1.800000X1.800000X185.000000*%
%ADD88RotRect,1.800000X1.800000X342.000000*%
%ADD89RotRect,1.400000X1.400000X216.000000*%
%ADD90RotRect,1.800000X1.800000X355.000000*%
%ADD91RotRect,1.800000X1.800000X18.000000*%
%ADD92RotRect,1.800000X1.800000X216.000000*%
%ADD93RotRect,1.800000X1.800000X252.000000*%
%ADD94RoundRect,0.200000X0.204509X-0.271663X0.321458X0.110859X-0.204509X0.271663X-0.321458X-0.110859X0*%
%ADD95RotRect,1.400000X1.400000X234.000000*%
%ADD96RoundRect,0.200000X0.275000X-0.200000X0.275000X0.200000X-0.275000X0.200000X-0.275000X-0.200000X0*%
%ADD97RoundRect,0.350000X-0.350000X-0.350000X0.350000X-0.350000X0.350000X0.350000X-0.350000X0.350000X0*%
%ADD98RoundRect,0.200000X-0.232023X-0.248576X0.164995X-0.297324X0.232023X0.248576X-0.164995X0.297324X0*%
%ADD99RotRect,1.800000X1.800000X144.000000*%
%ADD100RotRect,1.800000X1.800000X54.000000*%
%ADD101RotRect,1.400000X1.400000X144.000000*%
%ADD102RoundRect,0.200000X-0.323444X-0.104923X0.000162X-0.340037X0.323444X0.104923X-0.000162X0.340037X0*%
%ADD103RotRect,1.800000X1.800000X95.000000*%
%ADD104RotRect,1.800000X1.800000X195.000000*%
%ADD105RotRect,1.400000X1.400000X255.000000*%
%ADD106RoundRect,0.200000X-0.104923X0.323444X-0.340037X-0.000162X0.104923X-0.323444X0.340037X0.000162X0*%
%ADD107RotRect,1.800000X1.800000X198.000000*%
%ADD108RotRect,1.800000X1.800000X175.000000*%
%ADD109RotRect,1.400000X1.400000X36.000000*%
%ADD110RoundRect,0.200000X0.271663X0.204509X-0.110859X0.321458X-0.271663X-0.204509X0.110859X-0.321458X0*%
%ADD111RoundRect,0.200000X-0.297324X0.164995X-0.248576X-0.232023X0.297324X-0.164995X0.248576X0.232023X0*%
%ADD112RotRect,1.400000X1.400000X285.000000*%
%ADD113RotRect,1.400000X1.400000X198.000000*%
%ADD114RoundRect,0.200000X-0.185334X-0.285090X0.214118X-0.264156X0.185334X0.285090X-0.214118X0.264156X0*%
%ADD115RoundRect,0.200000X0.185334X0.285090X-0.214118X0.264156X-0.185334X-0.285090X0.214118X-0.264156X0*%
%ADD116RotRect,1.800000X1.800000X306.000000*%
%ADD117RotRect,1.400000X1.400000X18.000000*%
%ADD118RotRect,1.800000X1.800000X108.000000*%
%ADD119RoundRect,0.200000X-0.053033X0.335876X-0.335876X0.053033X0.053033X-0.335876X0.335876X-0.053033X0*%
%ADD120RotRect,1.400000X1.400000X288.000000*%
%ADD121RoundRect,0.200000X-0.340037X0.000162X-0.104923X-0.323444X0.340037X-0.000162X0.104923X0.323444X0*%
%ADD122RotRect,1.400000X1.400000X108.000000*%
%ADD123RotRect,1.400000X1.400000X54.000000*%
%ADD124RotRect,1.400000X1.400000X275.000000*%
%ADD125RotRect,1.400000X1.400000X306.000000*%
%ADD126RotRect,1.800000X1.800000X75.000000*%
%ADD127RoundRect,0.075000X0.415425X0.521491X-0.521491X-0.415425X-0.415425X-0.521491X0.521491X0.415425X0*%
%ADD128RoundRect,0.075000X-0.415425X0.521491X-0.521491X0.415425X0.415425X-0.521491X0.521491X-0.415425X0*%
%ADD129RotRect,1.400000X1.400000X355.000000*%
%ADD130RoundRect,0.200000X0.232023X0.248576X-0.164995X0.297324X-0.232023X-0.248576X0.164995X-0.297324X0*%
%ADD131RotRect,1.800000X1.800000X105.000000*%
%ADD132RotRect,1.800000X1.800000X234.000000*%
%ADD133RotRect,1.800000X1.800000X324.000000*%
%ADD134RoundRect,0.200000X0.323344X-0.105232X0.199737X0.275191X-0.323344X0.105232X-0.199737X-0.275191X0*%
%ADD135RoundRect,0.200000X-0.110859X-0.321458X0.271663X-0.204509X0.110859X0.321458X-0.271663X0.204509X0*%
%ADD136RotRect,1.400000X1.400000X126.000000*%
%ADD137RotRect,1.400000X1.400000X5.000000*%
%ADD138RoundRect,0.200000X0.214118X0.264156X-0.185334X0.285090X-0.214118X-0.264156X0.185334X-0.285090X0*%
%ADD139RotRect,1.600000X1.600000X243.000000*%
%ADD140HorizOval,1.600000X0.000000X0.000000X0.000000X0.000000X0*%
%ADD141RoundRect,0.200000X-0.321458X0.110859X-0.204509X-0.271663X0.321458X-0.110859X0.204509X0.271663X0*%
%ADD142RoundRect,0.225000X0.017678X-0.335876X0.335876X-0.017678X-0.017678X0.335876X-0.335876X0.017678X0*%
%ADD143RoundRect,0.200000X0.133012X0.312942X-0.256736X0.222962X-0.133012X-0.312942X0.256736X-0.222962X0*%
%ADD144RoundRect,0.200000X0.199737X-0.275191X0.323344X0.105232X-0.199737X0.275191X-0.323344X-0.105232X0*%
%ADD145RoundRect,0.200000X-0.271663X-0.204509X0.110859X-0.321458X0.271663X0.204509X-0.110859X0.321458X0*%
%ADD146RoundRect,0.200000X-0.256736X-0.222962X0.133012X-0.312942X0.256736X0.222962X-0.133012X0.312942X0*%
G04 APERTURE END LIST*
D10*
%TO.C,REF\u002A\u002A*%
X-79992706Y25637809D03*
%TD*%
%TO.C,REF\u002A\u002A*%
X79991001Y-25638052D03*
%TD*%
%TO.C,REF\u002A\u002A*%
X-47074093Y-25000123D03*
%TD*%
%TO.C,REF\u002A\u002A*%
X47072351Y24999817D03*
%TD*%
%TO.C,REF\u002A\u002A*%
X-80008997Y-25638052D03*
%TD*%
%TO.C,REF\u002A\u002A*%
X-47074094Y24999877D03*
%TD*%
D11*
%TO.C,J1*%
X-13085634Y-25436718D03*
D12*
X-9125636Y-25436718D03*
%TD*%
D13*
%TO.C,C1*%
X-1101000Y-24632423D03*
D14*
X-1101000Y-29632423D03*
%TD*%
D10*
%TO.C,REF\u002A\u002A*%
X79990993Y25637806D03*
%TD*%
%TO.C,REF\u002A\u002A*%
X-25638782Y-79991975D03*
%TD*%
%TO.C,REF\u002A\u002A*%
X25637078Y-79991975D03*
%TD*%
D15*
%TO.C,R62*%
X91436028Y-5285206D03*
X93083766Y-5371560D03*
%TD*%
D16*
%TO.C,U15*%
X56330427Y-18303160D03*
D17*
X58746111Y-19088062D03*
%TD*%
D18*
%TO.C,R40*%
X-49236325Y-38862064D03*
X-50571203Y-39831910D03*
%TD*%
D16*
%TO.C,U10*%
X-18303723Y-56331160D03*
D19*
X-19088625Y-58746844D03*
%TD*%
D20*
%TO.C,C4*%
X-21241334Y-27382111D03*
X-20145318Y-28478127D03*
%TD*%
D21*
%TO.C,Comp2*%
X-48672091Y-11556250D03*
D22*
X-51180819Y-11953593D03*
X-53689548Y-12350937D03*
X-56198276Y-12748281D03*
X-58707004Y-13145625D03*
X-61215733Y-13542969D03*
X-63724461Y-13940311D03*
X-64916492Y-6414127D03*
X-62407763Y-6016784D03*
X-59899034Y-5619439D03*
X-57390307Y-5222095D03*
X-54881579Y-4824752D03*
X-52372850Y-4427408D03*
X-49864122Y-4030065D03*
%TD*%
D23*
%TO.C,R58*%
X-4798755Y-91549485D03*
X-4885109Y-93197225D03*
%TD*%
D24*
%TO.C,R16*%
X64324354Y-2500082D03*
X62674354Y-2500082D03*
%TD*%
D16*
%TO.C,U24*%
X-85707456Y-22965137D03*
D25*
X-88160910Y-23622537D03*
%TD*%
D16*
%TO.C,U20*%
X18302428Y56330994D03*
D26*
X19087330Y58746678D03*
%TD*%
D27*
%TO.C,R24*%
X-90933943Y-20993682D03*
X-89326233Y-20622512D03*
%TD*%
D16*
%TO.C,U14*%
X47917430Y-34814601D03*
D28*
X49972332Y-36307577D03*
%TD*%
D16*
%TO.C,U23*%
X-88393211Y-7733452D03*
D29*
X-90923551Y-7954828D03*
%TD*%
D30*
%TO.C,R39*%
X-58835574Y-21745363D03*
X-60404816Y-22255241D03*
%TD*%
D31*
%TO.C,R8*%
X-53510129Y-35786826D03*
X-52175251Y-34816980D03*
%TD*%
D32*
%TO.C,J3*%
X16174000Y-32000101D03*
D33*
X18714000Y-32000101D03*
X21253999Y-32000101D03*
X23794000Y-32000101D03*
X26334000Y-32000101D03*
X28874000Y-32000101D03*
%TD*%
D34*
%TO.C,C8*%
X28873999Y-35000101D03*
X27323999Y-35000101D03*
%TD*%
D35*
%TO.C,R26*%
X-11374315Y-92629491D03*
X-11173231Y-90991793D03*
%TD*%
D36*
%TO.C,D8*%
X-54827728Y-39834289D03*
D37*
X-52772826Y-38341313D03*
%TD*%
D38*
%TO.C,D36*%
X9737501Y-29499999D03*
X7862499Y-29499999D03*
%TD*%
D39*
%TO.C,R49*%
X58834277Y21745198D03*
X60403519Y22255076D03*
%TD*%
D40*
%TO.C,R55*%
X-90992527Y-11172494D03*
X-92630227Y-11373580D03*
%TD*%
D41*
%TO.C,D6*%
X-67770649Y-83D03*
D37*
X-65230647Y-83D03*
%TD*%
D42*
%TO.C,Comp1*%
X-26031518Y42718159D03*
D43*
X-27184655Y44981316D03*
X-28337790Y47244473D03*
X-29490926Y49507629D03*
X-30644063Y51770786D03*
X-31797198Y54033942D03*
X-32950333Y56297099D03*
X-26160864Y59756506D03*
X-25007728Y57493350D03*
X-23854592Y55230193D03*
X-22701456Y52967037D03*
X-21548320Y50703881D03*
X-20395184Y48440724D03*
X-19242048Y46177567D03*
%TD*%
D16*
%TO.C,U5*%
X-56331724Y18302995D03*
D44*
X-58747408Y19087897D03*
%TD*%
D45*
%TO.C,Y1*%
X-14046520Y-42372774D03*
X-17440632Y-45766886D03*
%TD*%
D46*
%TO.C,R47*%
X60379360Y-16990082D03*
X61948602Y-17499960D03*
%TD*%
D47*
%TO.C,D2*%
X-20942730Y64453018D03*
D37*
X-20157828Y62037334D03*
%TD*%
D48*
%TO.C,R27*%
X4883394Y-93197222D03*
X4797038Y-91549486D03*
%TD*%
D49*
%TO.C,R63*%
X90878334Y10685063D03*
X92516034Y10886149D03*
%TD*%
D50*
%TO.C,R13*%
X35786095Y-53509563D03*
X34816249Y-52174685D03*
%TD*%
%TO.C,R35*%
X-38862630Y49235594D03*
X-39832476Y50570472D03*
%TD*%
D51*
%TO.C,D15*%
X64452453Y-20942164D03*
D37*
X62036769Y-20157262D03*
%TD*%
D16*
%TO.C,U16*%
X59229351Y-82D03*
D52*
X61769353Y-82D03*
%TD*%
D53*
%TO.C,Comp8*%
X86152692Y-3800122D03*
D54*
X83612692Y-3800122D03*
X81072692Y-3800122D03*
X78532692Y-3800122D03*
X75992692Y-3800122D03*
X73452692Y-3800122D03*
X70912692Y-3800122D03*
X70912692Y3819878D03*
X73452692Y3819877D03*
X75992692Y3819878D03*
X78532692Y3819878D03*
X81072692Y3819878D03*
X83612692Y3819877D03*
X86152692Y3819878D03*
%TD*%
D55*
%TO.C,R6*%
X-64325648Y2499918D03*
X-62675648Y2499918D03*
%TD*%
D56*
%TO.C,D23*%
X-95904523Y-8390607D03*
D37*
X-93374183Y-8169231D03*
%TD*%
D31*
%TO.C,R50*%
X49235028Y38861900D03*
X50569906Y39831746D03*
%TD*%
D57*
%TO.C,C7*%
X-15445568Y-38771822D03*
X-16541584Y-39867838D03*
%TD*%
D16*
%TO.C,U1*%
X-649Y59229916D03*
D52*
X-649Y61769918D03*
%TD*%
D58*
%TO.C,D29*%
X92988822Y-24916632D03*
D37*
X90535368Y-24259232D03*
%TD*%
D59*
%TO.C,R1*%
X2499351Y64324918D03*
X2499351Y62674918D03*
%TD*%
D60*
%TO.C,R36*%
X-52175251Y34816816D03*
X-53510129Y35786662D03*
%TD*%
D61*
%TO.C,R72*%
X-22866637Y-26249045D03*
X-24033363Y-25082319D03*
%TD*%
D16*
%TO.C,U32*%
X85705738Y22964889D03*
D62*
X88159194Y23622291D03*
%TD*%
D63*
%TO.C,R56*%
X-87670097Y-26803299D03*
X-89247999Y-27285715D03*
%TD*%
D64*
%TO.C,Comp5*%
X32582833Y37957409D03*
D65*
X34378884Y39753460D03*
X36174935Y41549512D03*
X37970986Y43345563D03*
X39767037Y45141614D03*
X41563089Y46937665D03*
X43359140Y48733716D03*
X48747294Y43345563D03*
X46951243Y41549511D03*
X45155191Y39753460D03*
X43359140Y37957409D03*
X41563088Y36161359D03*
X39767038Y34365307D03*
X37970986Y32569256D03*
%TD*%
D66*
%TO.C,R57*%
X-20623246Y-89325497D03*
X-20994414Y-90933211D03*
%TD*%
D67*
%TO.C,R15*%
X60403520Y-22255241D03*
X58834278Y-21745363D03*
%TD*%
D16*
%TO.C,U26*%
X-7734185Y-88392480D03*
D68*
X-7955561Y-90922816D03*
%TD*%
D20*
%TO.C,C10*%
X-22798008Y-23917675D03*
X-21701992Y-25013691D03*
%TD*%
D59*
%TO.C,R43*%
X2499351Y-62675083D03*
X2499351Y-64325083D03*
%TD*%
D69*
%TO.C,R53*%
X-89326233Y20622265D03*
X-90933943Y20993435D03*
%TD*%
D70*
%TO.C,D26*%
X-8391341Y-95903787D03*
D37*
X-8169965Y-93373451D03*
%TD*%
D71*
%TO.C,R20*%
X22254510Y60404085D03*
X21744632Y58834843D03*
%TD*%
D59*
%TO.C,R71*%
X-1101000Y-33350100D03*
X-1101000Y-35000100D03*
%TD*%
D72*
%TO.C,R28*%
X20992698Y-90933206D03*
X20621532Y-89325500D03*
%TD*%
D55*
%TO.C,R65*%
X4675000Y-31600000D03*
X6325000Y-31600000D03*
%TD*%
D73*
%TO.C,D10*%
X-20942728Y-64453182D03*
D37*
X-20157826Y-62037498D03*
%TD*%
D74*
%TO.C,R51*%
X34816249Y52174520D03*
X35786095Y53509398D03*
%TD*%
D75*
%TO.C,D24*%
X-92990540Y-24916632D03*
D37*
X-90537086Y-24259232D03*
%TD*%
D76*
%TO.C,J2*%
X52349351Y-3750082D03*
D77*
X52349351Y-1250082D03*
X52349351Y1249918D03*
X52349351Y3749918D03*
%TD*%
D78*
%TO.C,D13*%
X39833558Y-54827163D03*
D37*
X38340582Y-52772261D03*
%TD*%
D16*
%TO.C,U29*%
X85705740Y-22965135D03*
D79*
X88159192Y-23622537D03*
%TD*%
D16*
%TO.C,U22*%
X-88393214Y7733206D03*
D80*
X-90923550Y7954582D03*
%TD*%
D16*
%TO.C,U21*%
X-85707456Y22964891D03*
D81*
X-88160910Y23622291D03*
%TD*%
D82*
%TO.C,D21*%
X-92990537Y24916387D03*
D37*
X-90537085Y24258985D03*
%TD*%
D74*
%TO.C,R9*%
X-39832477Y-50570637D03*
X-38862631Y-49235759D03*
%TD*%
D83*
%TO.C,C3*%
X-5200000Y-27700000D03*
X-5200000Y-29250000D03*
%TD*%
D84*
%TO.C,Comp3*%
X-4050385Y-49860426D03*
D85*
X-4447727Y-52369155D03*
X-4845072Y-54877884D03*
X-5242415Y-57386612D03*
X-5639759Y-59895340D03*
X-6037103Y-62404069D03*
X-6434446Y-64912797D03*
X-13960631Y-63720766D03*
X-13563288Y-61212038D03*
X-13165942Y-58703310D03*
X-12768601Y-56194581D03*
X-12371257Y-53685854D03*
X-11973916Y-51177124D03*
X-11576570Y-48668396D03*
%TD*%
D86*
%TO.C,R2*%
X-17500525Y61949169D03*
X-16990647Y60379927D03*
%TD*%
D87*
%TO.C,D31*%
X95902808Y8390359D03*
D37*
X93372468Y8168983D03*
%TD*%
D88*
%TO.C,D5*%
X-64453749Y20941999D03*
D37*
X-62038065Y20157097D03*
%TD*%
D24*
%TO.C,R67*%
X6325000Y-25300000D03*
X4675000Y-25300000D03*
%TD*%
D16*
%TO.C,U8*%
X-47918726Y-34814601D03*
D89*
X-49973628Y-36307577D03*
%TD*%
D90*
%TO.C,D22*%
X-95904523Y8390361D03*
D37*
X-93374187Y8168985D03*
%TD*%
D38*
%TO.C,D35*%
X9737501Y-27400000D03*
X7862499Y-27400000D03*
%TD*%
D91*
%TO.C,D7*%
X-64453748Y-20942164D03*
D37*
X-62038064Y-20157262D03*
%TD*%
D92*
%TO.C,D18*%
X54826431Y39834125D03*
D37*
X52771529Y38341149D03*
%TD*%
D41*
%TO.C,D16*%
X67769353Y-82D03*
D37*
X65229351Y-82D03*
%TD*%
D93*
%TO.C,D20*%
X20941434Y64453018D03*
D37*
X20156532Y62037334D03*
%TD*%
D94*
%TO.C,R25*%
X-27286448Y-89247265D03*
X-26804034Y-87669361D03*
%TD*%
D16*
%TO.C,U9*%
X-34815167Y-47918160D03*
D95*
X-36308143Y-49973062D03*
%TD*%
D38*
%TO.C,D34*%
X9737501Y-25300000D03*
X7862499Y-25300000D03*
%TD*%
D16*
%TO.C,U6*%
X-59230646Y-82D03*
D52*
X-61770648Y-82D03*
%TD*%
D96*
%TO.C,R33*%
X-2500649Y62674918D03*
X-2500649Y64324918D03*
%TD*%
D97*
%TO.C,SW1*%
X2799000Y-35000100D03*
X9199000Y-35000100D03*
%TD*%
D83*
%TO.C,C2*%
X-6900000Y-27700000D03*
X-6900000Y-29250000D03*
%TD*%
D98*
%TO.C,R22*%
X-92630227Y11373333D03*
X-90992529Y11172249D03*
%TD*%
D99*
%TO.C,D14*%
X54826432Y-39834289D03*
D37*
X52771530Y-38341313D03*
%TD*%
D100*
%TO.C,D9*%
X-39834854Y-54827163D03*
D37*
X-38341878Y-52772261D03*
%TD*%
D16*
%TO.C,U4*%
X-47918725Y34814436D03*
D101*
X-49973627Y36307412D03*
%TD*%
D102*
%TO.C,R46*%
X52173956Y-34816980D03*
X53508834Y-35786826D03*
%TD*%
D103*
%TO.C,D27*%
X8389628Y-95903792D03*
D37*
X8168252Y-93373452D03*
%TD*%
D104*
%TO.C,D32*%
X92988823Y24916385D03*
D37*
X90535367Y24258983D03*
%TD*%
D16*
%TO.C,U25*%
X-22965870Y-85706719D03*
D105*
X-23623270Y-88160173D03*
%TD*%
D106*
%TO.C,R19*%
X39831180Y50570472D03*
X38861334Y49235594D03*
%TD*%
D107*
%TO.C,D17*%
X64452453Y20941999D03*
D37*
X62036769Y20157097D03*
%TD*%
D108*
%TO.C,D30*%
X95902806Y-8390606D03*
D37*
X93372470Y-8169230D03*
%TD*%
D16*
%TO.C,U18*%
X47917429Y34814436D03*
D109*
X49972331Y36307412D03*
%TD*%
D110*
%TO.C,R29*%
X89246283Y-27285715D03*
X87668381Y-26803299D03*
%TD*%
D41*
%TO.C,D1*%
X-648Y67769918D03*
D37*
X-648Y65229916D03*
%TD*%
D38*
%TO.C,D33*%
X9737501Y-31600000D03*
X7862499Y-31600000D03*
%TD*%
D111*
%TO.C,R59*%
X11171513Y-90991793D03*
X11372599Y-92629493D03*
%TD*%
D30*
%TO.C,R17*%
X61948602Y17499796D03*
X60379360Y16989918D03*
%TD*%
D16*
%TO.C,U28*%
X22964157Y-85706720D03*
D112*
X23621559Y-88160176D03*
%TD*%
D16*
%TO.C,U7*%
X-56331724Y-18303158D03*
D113*
X-58747408Y-19088060D03*
%TD*%
D83*
%TO.C,C9*%
X-2801000Y-35000100D03*
X-2801000Y-36550100D03*
%TD*%
D24*
%TO.C,R69*%
X6325000Y-27400000D03*
X4675000Y-27400000D03*
%TD*%
D67*
%TO.C,R37*%
X-60380657Y16989917D03*
X-61949899Y17499795D03*
%TD*%
D86*
%TO.C,R44*%
X21744633Y-58835008D03*
X22254511Y-60404250D03*
%TD*%
D114*
%TO.C,R23*%
X-93197960Y-4884377D03*
X-91550222Y-4798021D03*
%TD*%
D53*
%TO.C,Comp6*%
X-86158562Y3799878D03*
D54*
X-83618562Y3799878D03*
X-81078562Y3799878D03*
X-78538562Y3799878D03*
X-75998562Y3799878D03*
X-73458562Y3799878D03*
X-70918562Y3799878D03*
X-70918562Y-3820122D03*
X-73458562Y-3820121D03*
X-75998562Y-3820122D03*
X-78538562Y-3820122D03*
X-81078562Y-3820122D03*
X-83618562Y-3820121D03*
X-86158562Y-3820122D03*
%TD*%
D115*
%TO.C,R31*%
X93196243Y4884130D03*
X91548505Y4797774D03*
%TD*%
D116*
%TO.C,D3*%
X-39834854Y54826997D03*
D37*
X-38341878Y52772095D03*
%TD*%
D24*
%TO.C,R70*%
X6325000Y-29500000D03*
X4675000Y-29500000D03*
%TD*%
%TO.C,R38*%
X-62675648Y-2500082D03*
X-64325648Y-2500082D03*
%TD*%
D46*
%TO.C,R5*%
X-60404815Y22255076D03*
X-58835573Y21745198D03*
%TD*%
D16*
%TO.C,U17*%
X56330430Y18302995D03*
D117*
X58746114Y19087897D03*
%TD*%
D118*
%TO.C,D12*%
X20941434Y-64453182D03*
D37*
X20156532Y-62037498D03*
%TD*%
D119*
%TO.C,R66*%
X-17660214Y-40986467D03*
X-18826940Y-42153193D03*
%TD*%
D16*
%TO.C,U12*%
X18302430Y-56331159D03*
D120*
X19087332Y-58746843D03*
%TD*%
D121*
%TO.C,R3*%
X-35787393Y53509398D03*
X-34817547Y52174520D03*
%TD*%
D55*
%TO.C,R48*%
X62674353Y2499918D03*
X64324353Y2499918D03*
%TD*%
D16*
%TO.C,U2*%
X-18303725Y56330994D03*
D122*
X-19088627Y58746678D03*
%TD*%
D16*
%TO.C,U19*%
X34813870Y47917995D03*
D123*
X36306846Y49972897D03*
%TD*%
D16*
%TO.C,U27*%
X7732473Y-88392479D03*
D124*
X7953847Y-90922813D03*
%TD*%
D16*
%TO.C,U13*%
X34813871Y-47918160D03*
D125*
X36306847Y-49973062D03*
%TD*%
D53*
%TO.C,Comp7*%
X3799141Y-70917800D03*
D54*
X3799141Y-73457800D03*
X3799141Y-75997800D03*
X3799141Y-78537800D03*
X3799141Y-81077800D03*
X3799141Y-83617800D03*
X3799141Y-86157800D03*
X-3820859Y-86157800D03*
X-3820858Y-83617800D03*
X-3820859Y-81077800D03*
X-3820859Y-78537800D03*
X-3820859Y-75997800D03*
X-3820858Y-73457800D03*
X-3820859Y-70917800D03*
%TD*%
D16*
%TO.C,U11*%
X-649Y-59230081D03*
D52*
X-649Y-61770083D03*
%TD*%
D60*
%TO.C,R14*%
X50569908Y-39831910D03*
X49235030Y-38862064D03*
%TD*%
D71*
%TO.C,R42*%
X-16990646Y-60380091D03*
X-17500524Y-61949333D03*
%TD*%
D39*
%TO.C,R7*%
X-61949898Y-17499959D03*
X-60380656Y-16990081D03*
%TD*%
D126*
%TO.C,D25*%
X-24917369Y-92989802D03*
D37*
X-24259967Y-90536350D03*
%TD*%
D127*
%TO.C,U33*%
X-25819849Y-26339127D03*
X-25466296Y-26692680D03*
X-25112742Y-27046233D03*
X-24759189Y-27399787D03*
X-24405635Y-27753340D03*
X-24052082Y-28106894D03*
X-23698529Y-28460447D03*
X-23344975Y-28814000D03*
X-22991422Y-29167554D03*
X-22637868Y-29521107D03*
X-22284315Y-29874661D03*
X-21930762Y-30228214D03*
X-21577208Y-30581767D03*
X-21223655Y-30935321D03*
X-20870102Y-31288874D03*
X-20516548Y-31642427D03*
X-20162995Y-31995981D03*
X-19809441Y-32349534D03*
X-19455888Y-32703088D03*
X-19102335Y-33056641D03*
X-18748781Y-33410194D03*
X-18395228Y-33763748D03*
X-18041674Y-34117301D03*
X-17688121Y-34470855D03*
X-17334568Y-34824408D03*
D128*
X-17334568Y-37175538D03*
X-17688121Y-37529091D03*
X-18041674Y-37882645D03*
X-18395228Y-38236198D03*
X-18748781Y-38589752D03*
X-19102335Y-38943305D03*
X-19455888Y-39296858D03*
X-19809441Y-39650412D03*
X-20162995Y-40003965D03*
X-20516548Y-40357519D03*
X-20870102Y-40711072D03*
X-21223655Y-41064625D03*
X-21577208Y-41418179D03*
X-21930762Y-41771732D03*
X-22284315Y-42125285D03*
X-22637868Y-42478839D03*
X-22991422Y-42832392D03*
X-23344975Y-43185946D03*
X-23698529Y-43539499D03*
X-24052082Y-43893052D03*
X-24405635Y-44246606D03*
X-24759189Y-44600159D03*
X-25112742Y-44953713D03*
X-25466296Y-45307266D03*
X-25819849Y-45660819D03*
D127*
X-28170979Y-45660819D03*
X-28524532Y-45307266D03*
X-28878086Y-44953713D03*
X-29231639Y-44600159D03*
X-29585193Y-44246606D03*
X-29938746Y-43893052D03*
X-30292299Y-43539499D03*
X-30645853Y-43185946D03*
X-30999406Y-42832392D03*
X-31352960Y-42478839D03*
X-31706513Y-42125285D03*
X-32060066Y-41771732D03*
X-32413620Y-41418179D03*
X-32767173Y-41064625D03*
X-33120726Y-40711072D03*
X-33474280Y-40357519D03*
X-33827833Y-40003965D03*
X-34181387Y-39650412D03*
X-34534940Y-39296858D03*
X-34888493Y-38943305D03*
X-35242047Y-38589752D03*
X-35595600Y-38236198D03*
X-35949154Y-37882645D03*
X-36302707Y-37529091D03*
X-36656260Y-37175538D03*
D128*
X-36656260Y-34824408D03*
X-36302707Y-34470855D03*
X-35949154Y-34117301D03*
X-35595600Y-33763748D03*
X-35242047Y-33410194D03*
X-34888493Y-33056641D03*
X-34534940Y-32703088D03*
X-34181387Y-32349534D03*
X-33827833Y-31995981D03*
X-33474280Y-31642427D03*
X-33120726Y-31288874D03*
X-32767173Y-30935321D03*
X-32413620Y-30581767D03*
X-32060066Y-30228214D03*
X-31706513Y-29874661D03*
X-31352960Y-29521107D03*
X-30999406Y-29167554D03*
X-30645853Y-28814000D03*
X-30292299Y-28460447D03*
X-29938746Y-28106894D03*
X-29585193Y-27753340D03*
X-29231639Y-27399787D03*
X-28878086Y-27046233D03*
X-28524532Y-26692680D03*
X-28170979Y-26339127D03*
%TD*%
D106*
%TO.C,R41*%
X-34817547Y-52174685D03*
X-35787393Y-53509563D03*
%TD*%
D96*
%TO.C,R11*%
X-2500649Y-64325083D03*
X-2500649Y-62675083D03*
%TD*%
D41*
%TO.C,D11*%
X-649Y-67770083D03*
D37*
X-649Y-65230081D03*
%TD*%
D16*
%TO.C,U30*%
X88391497Y-7733452D03*
D129*
X90921833Y-7954828D03*
%TD*%
D130*
%TO.C,R30*%
X92628509Y-11373579D03*
X90990811Y-11172495D03*
%TD*%
D131*
%TO.C,D28*%
X24915654Y-92989804D03*
D37*
X24258252Y-90536348D03*
%TD*%
D132*
%TO.C,D19*%
X39833559Y54826998D03*
D37*
X38340583Y52772096D03*
%TD*%
D133*
%TO.C,D4*%
X-54827729Y39834125D03*
D37*
X-52772827Y38341149D03*
%TD*%
D134*
%TO.C,R34*%
X-21745928Y58834843D03*
X-22255806Y60404085D03*
%TD*%
D135*
%TO.C,R64*%
X87555906Y26315867D03*
X89133806Y26798281D03*
%TD*%
D16*
%TO.C,U3*%
X-34815166Y47917995D03*
D136*
X-36308142Y49972897D03*
%TD*%
D57*
%TO.C,C5*%
X-29346509Y-23469792D03*
X-30442525Y-24565808D03*
%TD*%
D16*
%TO.C,U31*%
X88391495Y7733204D03*
D137*
X90921835Y7954580D03*
%TD*%
D138*
%TO.C,R54*%
X-91550222Y4797777D03*
X-93197960Y4884131D03*
%TD*%
D121*
%TO.C,R45*%
X38861335Y-49235759D03*
X39831181Y-50570637D03*
%TD*%
D139*
%TO.C,Comp4*%
X46167921Y-19259304D03*
D140*
X48431077Y-20412440D03*
X50694234Y-21565574D03*
X52957391Y-22718711D03*
X55220547Y-23871847D03*
X57483704Y-25024982D03*
X59746861Y-26178119D03*
X56287453Y-32967589D03*
X54024296Y-31814453D03*
X51761139Y-30661317D03*
X49497983Y-29508181D03*
X47234827Y-28355044D03*
X44971670Y-27201909D03*
X42708514Y-26048773D03*
%TD*%
D102*
%TO.C,R4*%
X-50571202Y39831746D03*
X-49236324Y38861900D03*
%TD*%
D18*
%TO.C,R18*%
X53508834Y35786662D03*
X52173956Y34816816D03*
%TD*%
D141*
%TO.C,R60*%
X26802321Y-87669364D03*
X27284731Y-89247266D03*
%TD*%
D142*
%TO.C,C6*%
X-21041585Y-44367838D03*
X-19945569Y-43271822D03*
%TD*%
D143*
%TO.C,R32*%
X90932225Y20993435D03*
X89324517Y20622265D03*
%TD*%
D144*
%TO.C,R10*%
X-22255807Y-60404250D03*
X-21745929Y-58835008D03*
%TD*%
D145*
%TO.C,R21*%
X-89247999Y27285468D03*
X-87670097Y26803052D03*
%TD*%
D146*
%TO.C,R61*%
X89212042Y-21109696D03*
X90819752Y-21480866D03*
%TD*%
D134*
%TO.C,R12*%
X17499230Y-61949333D03*
X16989352Y-60380091D03*
%TD*%
D144*
%TO.C,R52*%
X16989352Y60379928D03*
X17499230Y61949170D03*
%TD*%
M02*
