%TF.GenerationSoftware,KiCad,Pcbnew,8.0.3*%
%TF.CreationDate,2024-07-24T13:58:59+09:00*%
%TF.ProjectId,Line-20240325,4c696e65-2d32-4303-9234-303332352e6b,rev?*%
%TF.SameCoordinates,Original*%
%TF.FileFunction,Profile,NP*%
%FSLAX46Y46*%
G04 Gerber Fmt 4.6, Leading zero omitted, Abs format (unit mm)*
G04 Created by KiCad (PCBNEW 8.0.3) date 2024-07-24 13:58:59*
%MOMM*%
%LPD*%
G01*
G04 APERTURE LIST*
%TA.AperFunction,Profile*%
%ADD10C,0.200000*%
%TD*%
G04 APERTURE END LIST*
D10*
X-91583519Y33447630D02*
G75*
G02*
X-81916479Y31189664I4696580J-1715265D01*
G01*
X-78924489Y28971101D02*
G75*
G02*
X-81060983Y22305114I-1067569J-3333211D01*
G01*
X-48118648Y-21800040D02*
G75*
G02*
X-49332173Y-19418362I2J1500001D01*
G01*
X-45473446Y-25000040D02*
G75*
G02*
X-48673446Y-25000040I-1600000J0D01*
G01*
X-48673446Y-25000040D02*
G75*
G02*
X-45473446Y-25000040I1600000J0D01*
G01*
X46153095Y-6250040D02*
G75*
G02*
X44653040Y-4762064I95J1500200D01*
G01*
X81916068Y31189664D02*
G75*
G02*
X91583110Y33447630I4970462J542696D01*
G01*
X-8648461Y-87071606D02*
G75*
G02*
X-21817114Y-84736529I8648251J87071566D01*
G01*
X31189499Y-81916313D02*
G75*
G02*
X29600333Y-80889477I-162809J1491173D01*
G01*
X52728377Y-12830471D02*
X43943691Y-15684788D01*
X81916068Y31189664D02*
G75*
G02*
X80889231Y29600499I-1491178J-162804D01*
G01*
X-29598580Y-80882705D02*
X-28971346Y-78924324D01*
X-45473446Y24999960D02*
G75*
G02*
X-48673446Y24999960I-1600000J0D01*
G01*
X-48673446Y24999960D02*
G75*
G02*
X-45473446Y24999960I1600000J0D01*
G01*
X-7000205Y-85578950D02*
X-7000205Y-71496485D01*
X-81060983Y-22305195D02*
G75*
G02*
X-78924490Y-28971183I1068926J-3332776D01*
G01*
X48573505Y22173550D02*
G75*
G02*
X44176068Y26359365I-1500515J2826410D01*
G01*
X71496295Y6999960D02*
G75*
G02*
X70006780Y8322876I-5J1500000D01*
G01*
X91583109Y-33447710D02*
G75*
G02*
X81916073Y-31189745I-4696579J1715260D01*
G01*
X-85579115Y6999960D02*
X-71496714Y6999960D01*
X22871052Y-82825853D02*
X22304949Y-81060817D01*
X31189499Y-81916313D02*
G75*
G02*
X33447463Y-91583348I542701J-4970457D01*
G01*
X78924078Y28971101D02*
X80889230Y29600503D01*
X46153095Y-6250040D02*
X52935495Y-6250040D01*
X91583109Y33447630D02*
G75*
G02*
X91583109Y-33447710I-91583319J-33447670D01*
G01*
X27237725Y-79991893D02*
G75*
G02*
X24037725Y-79991893I-1600000J0D01*
G01*
X24037725Y-79991893D02*
G75*
G02*
X27237725Y-79991893I1600000J0D01*
G01*
X41906775Y-17424428D02*
G75*
G02*
X43943680Y-15684753I3118415J-1588912D01*
G01*
X-29598580Y-80882705D02*
G75*
G02*
X-31189909Y-81916313I-1428519J457530D01*
G01*
X-44145553Y-10535549D02*
G75*
G02*
X-44770902Y-13140312I-3456906J-547517D01*
G01*
X81060572Y22305114D02*
G75*
G02*
X78924077Y28971105I-1068932J3332776D01*
G01*
X40094599Y-20981023D02*
G75*
G02*
X38758088Y-21800038I-1336509J680983D01*
G01*
X-46640257Y-1337686D02*
X-54117851Y4095103D01*
X-24038135Y-79991893D02*
G75*
G02*
X-27238135Y-79991893I-1600000J0D01*
G01*
X-27238135Y-79991893D02*
G75*
G02*
X-24038135Y-79991893I1600000J0D01*
G01*
X-22305359Y-81060818D02*
X-22871443Y-82825794D01*
X-71496674Y-7000039D02*
X-85579116Y-7000038D01*
X82825608Y22871217D02*
X81060572Y22305114D01*
X85578695Y-7000037D02*
G75*
G02*
X87071349Y-8648294I-5J-1500003D01*
G01*
X82825608Y22871217D02*
G75*
G02*
X84736258Y21816862I458082J-1428257D01*
G01*
X27753228Y47484136D02*
G75*
G02*
X28496263Y46189113I-756938J-1294976D01*
G01*
X29521449Y34471413D02*
G75*
G02*
X28496291Y36946294I2474941J2474947D01*
G01*
X-7000205Y-85578950D02*
G75*
G02*
X-8648461Y-87071607I-1500001J0D01*
G01*
X-49332173Y-19418362D02*
X-44770902Y-13140312D01*
X36946095Y28496547D02*
X42818195Y28496547D01*
X-80882870Y29598335D02*
G75*
G02*
X-81916478Y31189664I457530J1428519D01*
G01*
X38758088Y-21800040D02*
X-48118648Y-21800040D01*
X-36584000Y41068512D02*
G75*
G02*
X-35122736Y41375045I997738J-1120047D01*
G01*
X-81916478Y-31189744D02*
G75*
G02*
X-80882870Y-29598415I1491140J162809D01*
G01*
X-84736694Y21816869D02*
G75*
G02*
X-82825959Y22871198I1452624J-374002D01*
G01*
X71496295Y6999960D02*
X85583891Y6999960D01*
X-12828839Y52734348D02*
G75*
G02*
X-11721937Y53736363I1426588J-463526D01*
G01*
X-35122736Y41375045D02*
X-26332319Y38518866D01*
X78924078Y-28971181D02*
G75*
G02*
X81060573Y-22305192I1067572J3333211D01*
G01*
X80882429Y-29598405D02*
X78924078Y-28971181D01*
X-44145553Y-10535549D02*
X-45240595Y-3621728D01*
X-78924490Y-28971182D02*
X-80882870Y-29598415D01*
X-82825956Y-22871277D02*
X-81060983Y-22305195D01*
X54419665Y7967250D02*
G75*
G02*
X52935487Y6249963I-1484175J-217290D01*
G01*
X70006759Y-8322953D02*
G75*
G02*
X71487989Y-7000042I1489531J-177087D01*
G01*
X6999794Y-71496490D02*
G75*
G02*
X8322711Y-70006983I1499996J0D01*
G01*
X-78392058Y-25637970D02*
G75*
G02*
X-81592058Y-25637970I-1600000J0D01*
G01*
X-81592058Y-25637970D02*
G75*
G02*
X-78392058Y-25637970I1600000J0D01*
G01*
X29521449Y34471413D02*
X34477354Y29515509D01*
X-87071772Y-8648294D02*
G75*
G02*
X-85579116Y-7000038I1492655J148256D01*
G01*
X-11721937Y53736363D02*
G75*
G02*
X27753228Y47484136I11721732J-53736405D01*
G01*
X41906775Y-17424428D02*
X40094599Y-20981023D01*
X-81060983Y22305114D02*
X-82825959Y22871198D01*
X-81916478Y-31189744D02*
G75*
G02*
X-91583518Y-33447710I-4970460J-542702D01*
G01*
X84736284Y21816869D02*
G75*
G02*
X87071361Y8648216I-84736502J-21816906D01*
G01*
X44653045Y4749960D02*
G75*
G02*
X46153045Y6250005I1500045J0D01*
G01*
X52935495Y-6250040D02*
G75*
G02*
X54400979Y-8069948I-5J-1500000D01*
G01*
X-54728768Y5457468D02*
G75*
G02*
X-50653350Y21430288I54728608J-5457518D01*
G01*
X81591648Y-25637970D02*
G75*
G02*
X78391648Y-25637970I-1600000J0D01*
G01*
X78391648Y-25637970D02*
G75*
G02*
X81591648Y-25637970I1600000J0D01*
G01*
X85578695Y-7000037D02*
X71487989Y-7000037D01*
X-23661795Y38729040D02*
G75*
G02*
X-26332319Y38518866I-1588965J3118522D01*
G01*
X87071362Y-8648295D02*
G75*
G02*
X84736284Y-21816949I-87071730J8648284D01*
G01*
X-80882870Y29598335D02*
X-78924489Y28971101D01*
X-15685016Y43943938D02*
X-12828839Y52734348D01*
X-87071771Y8648216D02*
G75*
G02*
X-84736693Y21816869I87071561J-8648256D01*
G01*
X28970936Y-78924323D02*
X29600338Y-80889475D01*
X6999794Y-71496490D02*
X6999794Y-85583838D01*
X54400985Y-8069949D02*
X53736219Y-11721679D01*
X36946095Y28496547D02*
G75*
G02*
X34477372Y29515527I-5J3500013D01*
G01*
X48573505Y22173550D02*
X48568037Y22170647D01*
X-45566367Y27822860D02*
G75*
G02*
X-46120727Y29964897I703471J1324811D01*
G01*
X-21817114Y-84736529D02*
G75*
G02*
X-22871443Y-82825794I374002J1452624D01*
G01*
X-28971346Y-78924324D02*
G75*
G02*
X-22305359Y-81060818I3333211J-1067569D01*
G01*
X48673036Y24999960D02*
G75*
G02*
X45473036Y24999960I-1600000J0D01*
G01*
X45473036Y24999960D02*
G75*
G02*
X48673036Y24999960I1600000J0D01*
G01*
X-78392058Y25637890D02*
G75*
G02*
X-81592058Y25637890I-1600000J0D01*
G01*
X-81592058Y25637890D02*
G75*
G02*
X-78392058Y25637890I1600000J0D01*
G01*
X-84736694Y-21816949D02*
G75*
G02*
X-87071773Y-8648294I84736694J21816949D01*
G01*
X87071361Y8648216D02*
G75*
G02*
X85583891Y6999953I-1492671J-148256D01*
G01*
X8648049Y-87071606D02*
G75*
G02*
X6999787Y-85583838I-148259J1492666D01*
G01*
X80882429Y-29598405D02*
G75*
G02*
X81916047Y-31189742I-457539J-1428535D01*
G01*
X-91583519Y-33447710D02*
G75*
G02*
X-91583519Y33447630I91583309J33447670D01*
G01*
X70006759Y-8322953D02*
G75*
G02*
X8322711Y-70006983I-70006990J8322962D01*
G01*
X33447465Y-91583354D02*
G75*
G02*
X-33447875Y-91583354I-33447670J91583317D01*
G01*
X44653045Y4749960D02*
X44653045Y-4762064D01*
X-8323122Y-70006974D02*
G75*
G02*
X-70007162Y-8322954I8322928J70006971D01*
G01*
X81060572Y-22305194D02*
X82829498Y-22872545D01*
X-45572654Y27826199D02*
X-45566367Y27822860D01*
X52935487Y6249960D02*
X46153045Y6249960D01*
X-50653350Y21430288D02*
G75*
G02*
X-48568486Y22170666I1381450J-584467D01*
G01*
X21816704Y-84736529D02*
G75*
G02*
X8648049Y-87071607I-21816854J84736199D01*
G01*
X81591648Y25637890D02*
G75*
G02*
X78391648Y25637890I-1600000J0D01*
G01*
X78391648Y25637890D02*
G75*
G02*
X81591648Y25637890I1600000J0D01*
G01*
X84736284Y-21816949D02*
G75*
G02*
X82829496Y-22872552I-1452694J374109D01*
G01*
X-48568486Y22170667D02*
X-48574185Y22173693D01*
X-70007203Y8322877D02*
G75*
G02*
X70006783Y8322876I70006993J-8322918D01*
G01*
X-82825956Y-22871276D02*
G75*
G02*
X-84736694Y-21816949I-458114J1428330D01*
G01*
X48568037Y22170647D02*
G75*
G02*
X50652924Y21430281I703453J-1324787D01*
G01*
X-15685016Y43943938D02*
G75*
G02*
X-17424749Y41906973I-3328701J1081561D01*
G01*
X22871052Y-82825853D02*
G75*
G02*
X21816700Y-84736513I-1428262J-458087D01*
G01*
X-8323122Y-70006974D02*
G75*
G02*
X-7000205Y-71496485I-177081J-1489509D01*
G01*
X42818195Y28496547D02*
G75*
G02*
X44176101Y26359349I-5J-1499987D01*
G01*
X28496316Y46189113D02*
X28496316Y36946294D01*
X-45572654Y27826199D02*
G75*
G02*
X-48574185Y22173693I-1500792J-2826239D01*
G01*
X-54117851Y4095103D02*
G75*
G02*
X-54728768Y5457468I881674J1213521D01*
G01*
X-23661795Y38729040D02*
X-17424749Y41906973D01*
X50652940Y21430288D02*
G75*
G02*
X54419672Y7967251I-50653050J-21430328D01*
G01*
X-46640257Y-1337686D02*
G75*
G02*
X-45240595Y-3621728I-2057253J-2831563D01*
G01*
X53736219Y-11721679D02*
G75*
G02*
X52728378Y-12830475I-1465729J319839D01*
G01*
X-71496674Y-7000039D02*
G75*
G02*
X-70007162Y-8322954I0J-1500002D01*
G01*
X-70007203Y8322877D02*
G75*
G02*
X-71496714Y6999960I-1489509J177081D01*
G01*
X-85579115Y6999960D02*
G75*
G02*
X-87071772Y8648216I0J1500001D01*
G01*
X-46120727Y29964897D02*
G75*
G02*
X-36583999Y41068511I46120517J-29964937D01*
G01*
X22304949Y-81060817D02*
G75*
G02*
X28970928Y-78924326I3332771J1068927D01*
G01*
X-33447875Y-91583354D02*
G75*
G02*
X-31189909Y-81916314I1715265J4696580D01*
G01*
M02*
