M48
; DRILL file {KiCad 8.0.3} date 2024-10-15T17:05:12+0900
; FORMAT={-:-/ absolute / inch / decimal}
; #@! TF.CreationDate,2024-10-15T17:05:12+09:00
; #@! TF.GenerationSoftware,Kicad,Pcbnew,8.0.3
; #@! TF.FileFunction,Plated,1,4,PTH
FMAT,2
INCH
; #@! TA.AperFunction,Plated,PTH,ViaDrill
T1C0.0157
; #@! TA.AperFunction,Plated,PTH,ComponentDrill
T2C0.0276
; #@! TA.AperFunction,Plated,PTH,ComponentDrill
T3C0.0315
; #@! TA.AperFunction,Plated,PTH,ComponentDrill
T4C0.0354
; #@! TA.AperFunction,Plated,PTH,ComponentDrill
T5C0.0374
; #@! TA.AperFunction,Plated,PTH,ComponentDrill
T6C0.0394
; #@! TA.AperFunction,Plated,PTH,ComponentDrill
T7C0.0669
%
G90
G05
T1
X-3.6504Y-0.779
X-3.5748Y-0.779
X-3.1969Y-0.6
X-3.1969Y-0.7
X-3.1349Y0.3711
X-3.1039Y-0.5413
X-3.0969Y0.7
X-3.0969Y-0.6
X-3.0969Y-0.7
X-3.064Y-0.4449
X-3.0617Y-0.5405
X-2.9969Y0.7
X-2.9969Y0.6
X-2.9969Y-0.6
X-2.9969Y-0.7
X-2.9291Y0.2672
X-2.8969Y0.7
X-2.8969Y-0.6
X-2.8969Y-0.7
X-2.7969Y0.7
X-2.7969Y0.6
X-2.7969Y-0.6
X-2.7969Y-0.7
X-2.6969Y0.6
X-2.6969Y-0.6
X-2.6969Y-0.7
X-2.6339Y-0.7795
X-2.5413Y0.7795
X-2.4007Y-0.7589
X-2.2697Y0.4444
X-2.2323Y0.5315
X-2.2185Y0.4444
X-2.1969Y-0.6
X-2.154Y-0.7441
X-2.1118Y1.0508
X-2.1102Y0.9154
X-2.1033Y0.4193
X-2.1033Y-0.1988
X-2.1033Y-0.2382
X-2.0969Y-0.6
X-2.0969Y-0.7
X-2.0606Y-1.0685
X-1.9969Y-0.6
X-1.9969Y-0.7
X-1.9488Y-0.6476
X-1.9213Y-0.5098
X-1.9213Y-0.4695
X-1.8969Y0.7
X-1.8969Y0.6
X-1.7969Y0.5
X-1.7969Y0.4
X-1.7939Y-0.703
X-1.6969Y0.6
X-1.6969Y0.5
X-1.6969Y0.4
X-1.6969Y0.3
X-1.6969Y-0.2
X-1.6969Y-0.6
X-1.6969Y-0.7
X-0.2904Y-2.626
X0.2402Y-2.311
X0.8327Y1.624
X1.9965Y0.8371
T2
X0.0Y-3.003
X0.0Y-3.1998
T3
X-3.7902Y0.0
X-3.7578Y0.4947
X-3.7578Y-0.4947
X-3.6902Y0.0
X-3.6611Y-0.9809
X-3.6611Y0.981
X-3.6586Y0.4817
X-3.6586Y-0.4816
X-3.5645Y-0.9551
X-3.5645Y0.9551
X-3.378Y0.3
X-3.378Y0.2
X-3.378Y0.1
X-3.378Y0.0
X-3.378Y-0.1
X-3.378Y-0.2
X-3.378Y-0.3
X-3.078Y0.3
X-3.078Y0.2
X-3.078Y0.1
X-3.078Y0.0
X-3.078Y-0.1
X-3.078Y-0.2
X-3.078Y-0.3
X-2.9575Y0.1504
X-2.9575Y-0.1496
X-2.8575Y0.1504
X-2.8575Y-0.1496
X-2.7575Y0.1504
X-2.7575Y-0.1496
X-2.6878Y-0.3263
X-2.6878Y0.3264
X-2.6575Y0.1504
X-2.6575Y-0.1496
X-2.5885Y-0.3143
X-2.5885Y0.3143
X-2.5575Y0.1504
X-2.5575Y-0.1496
X-2.5316Y0.9601
X-2.5316Y-0.9601
X-2.4575Y0.1504
X-2.4575Y-0.1496
X-2.4381Y0.9246
X-2.4381Y-0.9246
X-2.3575Y0.1504
X-2.3575Y-0.1496
X-2.237Y0.3
X-2.237Y0.2
X-2.237Y0.1
X-2.237Y0.0
X-2.237Y-0.1
X-2.237Y-0.2
X-2.237Y-0.3
X-2.2283Y1.538
X-2.2283Y-1.538
X-2.146Y-1.4812
X-2.146Y1.4812
X-1.937Y0.3
X-1.937Y0.2
X-1.937Y0.1
X-1.937Y0.0
X-1.937Y-0.1
X-1.937Y-0.2
X-1.937Y-0.3
X-1.7954Y2.0266
X-1.7954Y-2.0266
X-1.7291Y1.9517
X-1.7291Y-1.9517
X-1.2583Y2.3974
X-1.2583Y-2.3973
X-1.2118Y2.3088
X-1.2118Y-2.3088
X-1.0498Y-2.3438
X-1.0421Y2.3257
X-1.0143Y-2.2503
X-1.0094Y3.4855
X-1.0066Y2.2322
X-0.981Y-3.661
X-0.9789Y-2.1568
X-0.9712Y2.1387
X-0.9551Y-3.5644
X-0.9434Y-2.0633
X-0.9387Y3.5562
X-0.9357Y2.0452
X-0.9079Y-1.9698
X-0.9002Y1.9517
X-0.8725Y-1.8763
X-0.8648Y1.8582
X-0.837Y-1.7828
X-0.8293Y1.7647
X-0.7693Y-2.4502
X-0.7616Y2.4321
X-0.7338Y-2.3567
X-0.7261Y2.3386
X-0.6984Y-2.2632
X-0.6906Y2.2451
X-0.6629Y-2.1697
X-0.6552Y2.1516
X-0.648Y2.6288
X-0.648Y-2.6288
X-0.6274Y-2.0762
X-0.6241Y2.5317
X-0.6241Y-2.5317
X-0.6197Y2.0581
X-0.592Y-1.9827
X-0.5843Y1.9646
X-0.5565Y-1.8892
X-0.5488Y1.8711
X-0.5463Y3.1761
X-0.508Y3.2685
X-0.4948Y-3.7577
X-0.4817Y-3.6586
X-0.1504Y-1.6094
X-0.1504Y-1.7094
X-0.1504Y-1.8094
X-0.1504Y-1.9094
X-0.1504Y-2.0094
X-0.1504Y-2.1094
X-0.1504Y-2.2094
X-0.1496Y2.2095
X-0.1496Y2.1095
X-0.1496Y2.0095
X-0.1496Y1.9095
X-0.1496Y1.8095
X-0.1496Y1.7095
X-0.1496Y1.6095
X-0.0Y-3.6901
X-0.0Y-3.7901
X-0.0Y2.7075
X-0.0Y2.6075
X-0.0Y-2.6075
X-0.0Y-2.7075
X-0.0Y3.1674
X-0.0Y3.0674
X0.1496Y-1.6094
X0.1496Y-1.7094
X0.1496Y-1.8094
X0.1496Y-1.9094
X0.1496Y-2.0094
X0.1496Y-2.1094
X0.1496Y-2.2094
X0.1504Y2.2095
X0.1504Y2.1095
X0.1504Y2.0095
X0.1504Y1.9095
X0.1504Y1.8095
X0.1504Y1.7095
X0.1504Y1.6095
X0.4816Y-3.6586
X0.4947Y-3.7577
X0.508Y3.2685
X0.5463Y3.1761
X0.5557Y-1.8895
X0.5564Y1.8892
X0.5912Y-1.983
X0.5919Y1.9827
X0.624Y-2.5317
X0.624Y2.5317
X0.6266Y-2.0765
X0.6274Y2.0762
X0.6479Y-2.6288
X0.6479Y2.6288
X0.6621Y-2.17
X0.6628Y2.1697
X0.6975Y-2.2635
X0.6983Y2.2632
X0.733Y-2.357
X0.7337Y2.3567
X0.7685Y-2.4505
X0.7692Y2.4502
X0.8362Y-1.7831
X0.8369Y1.7828
X0.8717Y-1.8766
X0.8724Y1.8763
X0.9071Y-1.9701
X0.9079Y1.9698
X0.9387Y3.5562
X0.9426Y-2.0636
X0.9433Y2.0633
X0.955Y-3.5644
X0.9781Y-2.1571
X0.9788Y2.1568
X0.9809Y-3.661
X1.0094Y3.4855
X1.0135Y-2.2506
X1.0142Y2.2503
X1.049Y-2.3441
X1.0497Y2.3439
X1.2117Y-2.3088
X1.2117Y2.3088
X1.2582Y-2.3973
X1.2582Y2.3974
X1.729Y-1.9517
X1.729Y1.9517
X1.7953Y-2.0266
X1.7953Y2.0266
X1.8707Y-0.616
X1.8709Y0.6152
X1.9425Y-0.3247
X1.9427Y0.3239
X1.9678Y-0.6399
X1.968Y0.6392
X2.0396Y-0.3486
X2.0398Y0.3479
X2.0649Y-0.6638
X2.0651Y0.6631
X2.1367Y-0.3726
X2.1369Y0.3718
X2.1459Y-1.4812
X2.1459Y1.4812
X2.162Y-0.6878
X2.1622Y0.687
X2.2282Y-1.538
X2.2282Y1.538
X2.2338Y-0.3965
X2.2339Y0.3957
X2.2591Y-0.7117
X2.2592Y0.711
X2.3309Y-0.4204
X2.331Y0.4197
X2.3562Y-0.7356
X2.3563Y0.7349
X2.4279Y-0.4444
X2.4281Y0.4436
X2.438Y0.9246
X2.438Y-0.9246
X2.4532Y-0.7596
X2.4534Y0.7588
X2.525Y-0.4683
X2.5252Y0.4675
X2.5315Y0.9601
X2.5315Y-0.9601
X2.5884Y-0.3143
X2.5884Y0.3143
X2.6877Y-0.3263
X2.6877Y0.3264
X2.7315Y0.1496
X2.7315Y-0.1504
X2.8315Y0.1496
X2.8315Y-0.1504
X2.9315Y0.1496
X2.9315Y-0.1504
X3.0315Y0.1496
X3.0315Y-0.1504
X3.1315Y0.1496
X3.1315Y-0.1504
X3.2315Y0.1496
X3.2315Y-0.1504
X3.3315Y0.1496
X3.3315Y-0.1504
X3.5644Y-0.9551
X3.5644Y0.9551
X3.6585Y0.4817
X3.6585Y-0.4816
X3.661Y-0.9809
X3.661Y0.981
X3.6901Y0.0
X3.7577Y0.4947
X3.7577Y-0.4947
X3.7901Y0.0
T4
X-3.5934Y0.0
X-3.5626Y0.469
X-3.5626Y-0.469
X-3.4934Y0.0
X-3.4709Y0.93
X-3.4709Y-0.93
X-3.4635Y0.456
X-3.4635Y-0.456
X-3.3743Y0.9042
X-3.3743Y-0.9041
X-2.4924Y0.3026
X-2.4924Y-0.3026
X-2.3931Y0.2906
X-2.3931Y-0.2906
X-2.3475Y0.8903
X-2.3475Y-0.8903
X-2.254Y0.8548
X-2.254Y-0.8548
X-2.0663Y1.4262
X-2.0663Y-1.4262
X-1.984Y-1.3694
X-1.984Y1.3694
X-1.6649Y1.8793
X-1.6649Y-1.8792
X-1.5986Y1.8044
X-1.5986Y-1.8044
X-1.1668Y2.2231
X-1.1668Y-2.223
X-1.1486Y3.3463
X-1.1203Y2.1345
X-1.1203Y-2.1345
X-1.0779Y3.417
X-0.9301Y-3.4708
X-0.9042Y-3.3743
X-0.6216Y2.9942
X-0.6009Y-2.4377
X-0.6009Y2.4377
X-0.5834Y3.0866
X-0.5769Y-2.3406
X-0.5769Y2.3406
X-0.4691Y-3.5625
X-0.456Y-3.4634
X-0.0Y-3.4933
X-0.0Y-3.5933
X-0.0Y2.5106
X-0.0Y2.4106
X-0.0Y-2.4106
X-0.0Y-2.5106
X-0.0Y2.9706
X-0.0Y2.8706
X0.4559Y-3.4634
X0.469Y-3.5625
X0.5769Y-2.3406
X0.5769Y2.3406
X0.5833Y3.0866
X0.6008Y-2.4377
X0.6008Y2.4377
X0.6216Y2.9942
X0.9041Y-3.3743
X0.93Y-3.4708
X1.0779Y3.417
X1.1202Y-2.1345
X1.1202Y2.1345
X1.1486Y3.3463
X1.1667Y-2.223
X1.1667Y2.2231
X1.5985Y-1.8044
X1.5985Y1.8044
X1.6648Y-1.8792
X1.6648Y1.8793
X1.9839Y-1.3694
X1.9839Y1.3694
X2.0662Y-1.4262
X2.0662Y1.4262
X2.2539Y-0.8548
X2.2539Y0.8548
X2.3474Y-0.8903
X2.3474Y0.8903
X2.393Y0.2906
X2.393Y-0.2906
X2.4923Y0.3026
X2.4923Y-0.3026
X3.3742Y-0.9041
X3.3742Y0.9042
X3.4634Y0.456
X3.4634Y-0.4559
X3.4708Y0.93
X3.4708Y-0.93
X3.4933Y0.0
X3.5625Y0.469
X3.5625Y-0.469
X3.5933Y0.0
T5
X1.7323Y0.1476
X1.7323Y0.0492
X1.7323Y-0.0492
X1.7323Y-0.1476
T6
X-0.546Y-1.4961
X-0.3491Y-1.4961
T7
X0.3748Y-1.4961
X0.5307Y-1.4961
M30
