%TF.GenerationSoftware,KiCad,Pcbnew,8.0.1*%
%TF.CreationDate,2024-08-22T21:09:10+09:00*%
%TF.ProjectId,Line-20240325,4c696e65-2d32-4303-9234-303332352e6b,rev?*%
%TF.SameCoordinates,Original*%
%TF.FileFunction,Paste,Bot*%
%TF.FilePolarity,Positive*%
%FSLAX46Y46*%
G04 Gerber Fmt 4.6, Leading zero omitted, Abs format (unit mm)*
G04 Created by KiCad (PCBNEW 8.0.1) date 2024-08-22 21:09:10*
%MOMM*%
%LPD*%
G01*
G04 APERTURE LIST*
G04 Aperture macros list*
%AMRoundRect*
0 Rectangle with rounded corners*
0 $1 Rounding radius*
0 $2 $3 $4 $5 $6 $7 $8 $9 X,Y pos of 4 corners*
0 Add a 4 corners polygon primitive as box body*
4,1,4,$2,$3,$4,$5,$6,$7,$8,$9,$2,$3,0*
0 Add four circle primitives for the rounded corners*
1,1,$1+$1,$2,$3*
1,1,$1+$1,$4,$5*
1,1,$1+$1,$6,$7*
1,1,$1+$1,$8,$9*
0 Add four rect primitives between the rounded corners*
20,1,$1+$1,$2,$3,$4,$5,0*
20,1,$1+$1,$4,$5,$6,$7,0*
20,1,$1+$1,$6,$7,$8,$9,0*
20,1,$1+$1,$8,$9,$2,$3,0*%
G04 Aperture macros list end*
%ADD10RoundRect,0.200000X-0.214118X-0.264156X0.185334X-0.285090X0.214118X0.264156X-0.185334X0.285090X0*%
%ADD11RoundRect,0.200000X0.000162X0.340037X-0.323444X0.104923X-0.000162X-0.340037X0.323444X-0.104923X0*%
%ADD12RoundRect,0.225000X-0.335876X-0.017678X-0.017678X-0.335876X0.335876X0.017678X0.017678X0.335876X0*%
%ADD13RoundRect,0.200000X-0.264156X0.214118X-0.285090X-0.185334X0.264156X-0.214118X0.285090X0.185334X0*%
%ADD14RoundRect,0.200000X0.200000X0.275000X-0.200000X0.275000X-0.200000X-0.275000X0.200000X-0.275000X0*%
%ADD15RoundRect,0.200000X-0.133012X-0.312942X0.256736X-0.222962X0.133012X0.312942X-0.256736X0.222962X0*%
%ADD16RoundRect,0.200000X0.105232X0.323344X-0.275191X0.199737X-0.105232X-0.323344X0.275191X-0.199737X0*%
%ADD17RoundRect,0.200000X-0.000162X-0.340037X0.323444X-0.104923X0.000162X0.340037X-0.323444X0.104923X0*%
%ADD18RoundRect,0.225000X0.225000X0.250000X-0.225000X0.250000X-0.225000X-0.250000X0.225000X-0.250000X0*%
%ADD19RoundRect,0.200000X0.248576X-0.232023X0.297324X0.164995X-0.248576X0.232023X-0.297324X-0.164995X0*%
%ADD20RoundRect,0.243750X0.243750X0.456250X-0.243750X0.456250X-0.243750X-0.456250X0.243750X-0.456250X0*%
%ADD21RoundRect,0.200000X-0.105232X-0.323344X0.275191X-0.199737X0.105232X0.323344X-0.275191X0.199737X0*%
%ADD22RoundRect,0.200000X0.164995X0.297324X-0.232023X0.248576X-0.164995X-0.297324X0.232023X-0.248576X0*%
%ADD23RoundRect,0.200000X-0.275191X-0.199737X0.105232X-0.323344X0.275191X0.199737X-0.105232X0.323344X0*%
%ADD24RoundRect,0.200000X0.285090X-0.185334X0.264156X0.214118X-0.285090X0.185334X-0.264156X-0.214118X0*%
%ADD25RoundRect,0.200000X-0.164995X-0.297324X0.232023X-0.248576X0.164995X0.297324X-0.232023X0.248576X0*%
%ADD26RoundRect,0.200000X0.340037X-0.000162X0.104923X0.323444X-0.340037X0.000162X-0.104923X-0.323444X0*%
%ADD27RoundRect,0.200000X-0.200000X-0.275000X0.200000X-0.275000X0.200000X0.275000X-0.200000X0.275000X0*%
%ADD28RoundRect,0.225000X-0.017678X0.335876X-0.335876X0.017678X0.017678X-0.335876X0.335876X-0.017678X0*%
%ADD29RoundRect,0.200000X-0.275000X0.200000X-0.275000X-0.200000X0.275000X-0.200000X0.275000X0.200000X0*%
%ADD30RoundRect,0.200000X0.323444X0.104923X-0.000162X0.340037X-0.323444X-0.104923X0.000162X-0.340037X0*%
%ADD31RoundRect,0.200000X0.335876X0.053033X0.053033X0.335876X-0.335876X-0.053033X-0.053033X-0.335876X0*%
%ADD32RoundRect,0.200000X0.110859X0.321458X-0.271663X0.204509X-0.110859X-0.321458X0.271663X-0.204509X0*%
%ADD33RoundRect,0.200000X-0.222962X0.256736X-0.312942X-0.133012X0.222962X-0.256736X0.312942X0.133012X0*%
%ADD34RoundRect,0.200000X0.275191X0.199737X-0.105232X0.323344X-0.275191X-0.199737X0.105232X-0.323344X0*%
%ADD35RoundRect,0.200000X0.256736X0.222962X-0.133012X0.312942X-0.256736X-0.222962X0.133012X-0.312942X0*%
%ADD36RoundRect,0.200000X-0.199737X0.275191X-0.323344X-0.105232X0.199737X-0.275191X0.323344X0.105232X0*%
%ADD37RoundRect,0.200000X0.312942X-0.133012X0.222962X0.256736X-0.312942X0.133012X-0.222962X-0.256736X0*%
%ADD38RoundRect,0.200000X0.104923X-0.323444X0.340037X0.000162X-0.104923X0.323444X-0.340037X-0.000162X0*%
%ADD39RoundRect,0.225000X-0.250000X0.225000X-0.250000X-0.225000X0.250000X-0.225000X0.250000X0.225000X0*%
%ADD40RoundRect,0.200000X-0.323344X0.105232X-0.199737X-0.275191X0.323344X-0.105232X0.199737X0.275191X0*%
%ADD41RoundRect,0.200000X0.204509X-0.271663X0.321458X0.110859X-0.204509X0.271663X-0.321458X-0.110859X0*%
%ADD42RoundRect,0.200000X0.275000X-0.200000X0.275000X0.200000X-0.275000X0.200000X-0.275000X-0.200000X0*%
%ADD43RoundRect,0.350000X-0.350000X-0.350000X0.350000X-0.350000X0.350000X0.350000X-0.350000X0.350000X0*%
%ADD44RoundRect,0.200000X-0.232023X-0.248576X0.164995X-0.297324X0.232023X0.248576X-0.164995X0.297324X0*%
%ADD45RoundRect,0.200000X-0.323444X-0.104923X0.000162X-0.340037X0.323444X0.104923X-0.000162X0.340037X0*%
%ADD46RoundRect,0.200000X-0.104923X0.323444X-0.340037X-0.000162X0.104923X-0.323444X0.340037X0.000162X0*%
%ADD47RoundRect,0.200000X0.271663X0.204509X-0.110859X0.321458X-0.271663X-0.204509X0.110859X-0.321458X0*%
%ADD48RoundRect,0.200000X-0.297324X0.164995X-0.248576X-0.232023X0.297324X-0.164995X0.248576X0.232023X0*%
%ADD49RoundRect,0.200000X-0.185334X-0.285090X0.214118X-0.264156X0.185334X0.285090X-0.214118X0.264156X0*%
%ADD50RoundRect,0.200000X0.185334X0.285090X-0.214118X0.264156X-0.185334X-0.285090X0.214118X-0.264156X0*%
%ADD51RoundRect,0.200000X-0.053033X0.335876X-0.335876X0.053033X0.053033X-0.335876X0.335876X-0.053033X0*%
%ADD52RoundRect,0.200000X-0.340037X0.000162X-0.104923X-0.323444X0.340037X-0.000162X0.104923X0.323444X0*%
%ADD53RoundRect,0.075000X0.415425X0.521491X-0.521491X-0.415425X-0.415425X-0.521491X0.521491X0.415425X0*%
%ADD54RoundRect,0.075000X-0.415425X0.521491X-0.521491X0.415425X0.415425X-0.521491X0.521491X-0.415425X0*%
%ADD55RoundRect,0.200000X0.232023X0.248576X-0.164995X0.297324X-0.232023X-0.248576X0.164995X-0.297324X0*%
%ADD56RoundRect,0.200000X0.323344X-0.105232X0.199737X0.275191X-0.323344X0.105232X-0.199737X-0.275191X0*%
%ADD57RoundRect,0.200000X-0.110859X-0.321458X0.271663X-0.204509X0.110859X0.321458X-0.271663X0.204509X0*%
%ADD58RoundRect,0.200000X0.214118X0.264156X-0.185334X0.285090X-0.214118X-0.264156X0.185334X-0.285090X0*%
%ADD59RoundRect,0.200000X-0.321458X0.110859X-0.204509X-0.271663X0.321458X-0.110859X0.204509X0.271663X0*%
%ADD60RoundRect,0.225000X0.017678X-0.335876X0.335876X-0.017678X-0.017678X0.335876X-0.335876X0.017678X0*%
%ADD61RoundRect,0.200000X0.133012X0.312942X-0.256736X0.222962X-0.133012X-0.312942X0.256736X-0.222962X0*%
%ADD62RoundRect,0.200000X0.199737X-0.275191X0.323344X0.105232X-0.199737X0.275191X-0.323344X-0.105232X0*%
%ADD63RoundRect,0.200000X-0.271663X-0.204509X0.110859X-0.321458X0.271663X0.204509X-0.110859X0.321458X0*%
%ADD64RoundRect,0.200000X-0.256736X-0.222962X0.133012X-0.312942X0.256736X0.222962X-0.133012X0.312942X0*%
G04 APERTURE END LIST*
D10*
%TO.C,R62*%
X91436028Y-5285206D03*
X93083766Y-5371560D03*
%TD*%
D11*
%TO.C,R40*%
X-49236325Y-38862064D03*
X-50571203Y-39831910D03*
%TD*%
D12*
%TO.C,C4*%
X-21241334Y-27382111D03*
X-20145318Y-28478127D03*
%TD*%
D13*
%TO.C,R58*%
X-4798755Y-91549485D03*
X-4885109Y-93197225D03*
%TD*%
D14*
%TO.C,R16*%
X64324354Y-2500082D03*
X62674354Y-2500082D03*
%TD*%
D15*
%TO.C,R24*%
X-90933943Y-20993682D03*
X-89326233Y-20622512D03*
%TD*%
D16*
%TO.C,R39*%
X-58835574Y-21745363D03*
X-60404816Y-22255241D03*
%TD*%
D17*
%TO.C,R8*%
X-53510129Y-35786826D03*
X-52175251Y-34816980D03*
%TD*%
D18*
%TO.C,C8*%
X28873999Y-35000101D03*
X27323999Y-35000101D03*
%TD*%
D19*
%TO.C,R26*%
X-11374315Y-92629491D03*
X-11173231Y-90991793D03*
%TD*%
D20*
%TO.C,D36*%
X9737501Y-29499999D03*
X7862499Y-29499999D03*
%TD*%
D21*
%TO.C,R49*%
X58834277Y21745198D03*
X60403519Y22255076D03*
%TD*%
D22*
%TO.C,R55*%
X-90992527Y-11172494D03*
X-92630227Y-11373580D03*
%TD*%
D23*
%TO.C,R47*%
X60379360Y-16990082D03*
X61948602Y-17499960D03*
%TD*%
D24*
%TO.C,R27*%
X4883394Y-93197222D03*
X4797038Y-91549486D03*
%TD*%
D25*
%TO.C,R63*%
X90878334Y10685063D03*
X92516034Y10886149D03*
%TD*%
D26*
%TO.C,R13*%
X35786095Y-53509563D03*
X34816249Y-52174685D03*
%TD*%
%TO.C,R35*%
X-38862630Y49235594D03*
X-39832476Y50570472D03*
%TD*%
D27*
%TO.C,R6*%
X-64325648Y2499918D03*
X-62675648Y2499918D03*
%TD*%
D17*
%TO.C,R50*%
X49235028Y38861900D03*
X50569906Y39831746D03*
%TD*%
D28*
%TO.C,C7*%
X-15445568Y-38771822D03*
X-16541584Y-39867838D03*
%TD*%
D29*
%TO.C,R1*%
X2499351Y64324918D03*
X2499351Y62674918D03*
%TD*%
D30*
%TO.C,R36*%
X-52175251Y34816816D03*
X-53510129Y35786662D03*
%TD*%
D31*
%TO.C,R72*%
X-22866637Y-26249045D03*
X-24033363Y-25082319D03*
%TD*%
D32*
%TO.C,R56*%
X-87670097Y-26803299D03*
X-89247999Y-27285715D03*
%TD*%
D33*
%TO.C,R57*%
X-20623246Y-89325497D03*
X-20994414Y-90933211D03*
%TD*%
D34*
%TO.C,R15*%
X60403520Y-22255241D03*
X58834278Y-21745363D03*
%TD*%
D12*
%TO.C,C10*%
X-22798008Y-23917675D03*
X-21701992Y-25013691D03*
%TD*%
D29*
%TO.C,R43*%
X2499351Y-62675083D03*
X2499351Y-64325083D03*
%TD*%
D35*
%TO.C,R53*%
X-89326233Y20622265D03*
X-90933943Y20993435D03*
%TD*%
D36*
%TO.C,R20*%
X22254510Y60404085D03*
X21744632Y58834843D03*
%TD*%
D29*
%TO.C,R71*%
X-1101000Y-33350100D03*
X-1101000Y-35000100D03*
%TD*%
D37*
%TO.C,R28*%
X20992698Y-90933206D03*
X20621532Y-89325500D03*
%TD*%
D27*
%TO.C,R65*%
X4675000Y-31600000D03*
X6325000Y-31600000D03*
%TD*%
D38*
%TO.C,R51*%
X34816249Y52174520D03*
X35786095Y53509398D03*
%TD*%
%TO.C,R9*%
X-39832477Y-50570637D03*
X-38862631Y-49235759D03*
%TD*%
D39*
%TO.C,C3*%
X-5200000Y-27700000D03*
X-5200000Y-29250000D03*
%TD*%
D40*
%TO.C,R2*%
X-17500525Y61949169D03*
X-16990647Y60379927D03*
%TD*%
D14*
%TO.C,R67*%
X6325000Y-25300000D03*
X4675000Y-25300000D03*
%TD*%
D20*
%TO.C,D35*%
X9737501Y-27400000D03*
X7862499Y-27400000D03*
%TD*%
D41*
%TO.C,R25*%
X-27286448Y-89247265D03*
X-26804034Y-87669361D03*
%TD*%
D20*
%TO.C,D34*%
X9737501Y-25300000D03*
X7862499Y-25300000D03*
%TD*%
D42*
%TO.C,R33*%
X-2500649Y62674918D03*
X-2500649Y64324918D03*
%TD*%
D43*
%TO.C,SW1*%
X2799000Y-35000100D03*
X9199000Y-35000100D03*
%TD*%
D39*
%TO.C,C2*%
X-6900000Y-27700000D03*
X-6900000Y-29250000D03*
%TD*%
D44*
%TO.C,R22*%
X-92630227Y11373333D03*
X-90992529Y11172249D03*
%TD*%
D45*
%TO.C,R46*%
X52173956Y-34816980D03*
X53508834Y-35786826D03*
%TD*%
D46*
%TO.C,R19*%
X39831180Y50570472D03*
X38861334Y49235594D03*
%TD*%
D47*
%TO.C,R29*%
X89246283Y-27285715D03*
X87668381Y-26803299D03*
%TD*%
D20*
%TO.C,D33*%
X9737501Y-31600000D03*
X7862499Y-31600000D03*
%TD*%
D48*
%TO.C,R59*%
X11171513Y-90991793D03*
X11372599Y-92629493D03*
%TD*%
D16*
%TO.C,R17*%
X61948602Y17499796D03*
X60379360Y16989918D03*
%TD*%
D39*
%TO.C,C9*%
X-2801000Y-35000100D03*
X-2801000Y-36550100D03*
%TD*%
D14*
%TO.C,R69*%
X6325000Y-27400000D03*
X4675000Y-27400000D03*
%TD*%
D34*
%TO.C,R37*%
X-60380657Y16989917D03*
X-61949899Y17499795D03*
%TD*%
D40*
%TO.C,R44*%
X21744633Y-58835008D03*
X22254511Y-60404250D03*
%TD*%
D49*
%TO.C,R23*%
X-93197960Y-4884377D03*
X-91550222Y-4798021D03*
%TD*%
D50*
%TO.C,R31*%
X93196243Y4884130D03*
X91548505Y4797774D03*
%TD*%
D14*
%TO.C,R70*%
X6325000Y-29500000D03*
X4675000Y-29500000D03*
%TD*%
%TO.C,R38*%
X-62675648Y-2500082D03*
X-64325648Y-2500082D03*
%TD*%
D23*
%TO.C,R5*%
X-60404815Y22255076D03*
X-58835573Y21745198D03*
%TD*%
D51*
%TO.C,R66*%
X-17660214Y-40986467D03*
X-18826940Y-42153193D03*
%TD*%
D52*
%TO.C,R3*%
X-35787393Y53509398D03*
X-34817547Y52174520D03*
%TD*%
D27*
%TO.C,R48*%
X62674353Y2499918D03*
X64324353Y2499918D03*
%TD*%
D30*
%TO.C,R14*%
X50569908Y-39831910D03*
X49235030Y-38862064D03*
%TD*%
D36*
%TO.C,R42*%
X-16990646Y-60380091D03*
X-17500524Y-61949333D03*
%TD*%
D21*
%TO.C,R7*%
X-61949898Y-17499959D03*
X-60380656Y-16990081D03*
%TD*%
D53*
%TO.C,U33*%
X-25819849Y-26339127D03*
X-25466296Y-26692680D03*
X-25112742Y-27046233D03*
X-24759189Y-27399787D03*
X-24405635Y-27753340D03*
X-24052082Y-28106894D03*
X-23698529Y-28460447D03*
X-23344975Y-28814000D03*
X-22991422Y-29167554D03*
X-22637868Y-29521107D03*
X-22284315Y-29874661D03*
X-21930762Y-30228214D03*
X-21577208Y-30581767D03*
X-21223655Y-30935321D03*
X-20870102Y-31288874D03*
X-20516548Y-31642427D03*
X-20162995Y-31995981D03*
X-19809441Y-32349534D03*
X-19455888Y-32703088D03*
X-19102335Y-33056641D03*
X-18748781Y-33410194D03*
X-18395228Y-33763748D03*
X-18041674Y-34117301D03*
X-17688121Y-34470855D03*
X-17334568Y-34824408D03*
D54*
X-17334568Y-37175538D03*
X-17688121Y-37529091D03*
X-18041674Y-37882645D03*
X-18395228Y-38236198D03*
X-18748781Y-38589752D03*
X-19102335Y-38943305D03*
X-19455888Y-39296858D03*
X-19809441Y-39650412D03*
X-20162995Y-40003965D03*
X-20516548Y-40357519D03*
X-20870102Y-40711072D03*
X-21223655Y-41064625D03*
X-21577208Y-41418179D03*
X-21930762Y-41771732D03*
X-22284315Y-42125285D03*
X-22637868Y-42478839D03*
X-22991422Y-42832392D03*
X-23344975Y-43185946D03*
X-23698529Y-43539499D03*
X-24052082Y-43893052D03*
X-24405635Y-44246606D03*
X-24759189Y-44600159D03*
X-25112742Y-44953713D03*
X-25466296Y-45307266D03*
X-25819849Y-45660819D03*
D53*
X-28170979Y-45660819D03*
X-28524532Y-45307266D03*
X-28878086Y-44953713D03*
X-29231639Y-44600159D03*
X-29585193Y-44246606D03*
X-29938746Y-43893052D03*
X-30292299Y-43539499D03*
X-30645853Y-43185946D03*
X-30999406Y-42832392D03*
X-31352960Y-42478839D03*
X-31706513Y-42125285D03*
X-32060066Y-41771732D03*
X-32413620Y-41418179D03*
X-32767173Y-41064625D03*
X-33120726Y-40711072D03*
X-33474280Y-40357519D03*
X-33827833Y-40003965D03*
X-34181387Y-39650412D03*
X-34534940Y-39296858D03*
X-34888493Y-38943305D03*
X-35242047Y-38589752D03*
X-35595600Y-38236198D03*
X-35949154Y-37882645D03*
X-36302707Y-37529091D03*
X-36656260Y-37175538D03*
D54*
X-36656260Y-34824408D03*
X-36302707Y-34470855D03*
X-35949154Y-34117301D03*
X-35595600Y-33763748D03*
X-35242047Y-33410194D03*
X-34888493Y-33056641D03*
X-34534940Y-32703088D03*
X-34181387Y-32349534D03*
X-33827833Y-31995981D03*
X-33474280Y-31642427D03*
X-33120726Y-31288874D03*
X-32767173Y-30935321D03*
X-32413620Y-30581767D03*
X-32060066Y-30228214D03*
X-31706513Y-29874661D03*
X-31352960Y-29521107D03*
X-30999406Y-29167554D03*
X-30645853Y-28814000D03*
X-30292299Y-28460447D03*
X-29938746Y-28106894D03*
X-29585193Y-27753340D03*
X-29231639Y-27399787D03*
X-28878086Y-27046233D03*
X-28524532Y-26692680D03*
X-28170979Y-26339127D03*
%TD*%
D46*
%TO.C,R41*%
X-34817547Y-52174685D03*
X-35787393Y-53509563D03*
%TD*%
D42*
%TO.C,R11*%
X-2500649Y-64325083D03*
X-2500649Y-62675083D03*
%TD*%
D55*
%TO.C,R30*%
X92628509Y-11373579D03*
X90990811Y-11172495D03*
%TD*%
D56*
%TO.C,R34*%
X-21745928Y58834843D03*
X-22255806Y60404085D03*
%TD*%
D57*
%TO.C,R64*%
X87555906Y26315867D03*
X89133806Y26798281D03*
%TD*%
D28*
%TO.C,C5*%
X-29346509Y-23469792D03*
X-30442525Y-24565808D03*
%TD*%
D58*
%TO.C,R54*%
X-91550222Y4797777D03*
X-93197960Y4884131D03*
%TD*%
D52*
%TO.C,R45*%
X38861335Y-49235759D03*
X39831181Y-50570637D03*
%TD*%
D45*
%TO.C,R4*%
X-50571202Y39831746D03*
X-49236324Y38861900D03*
%TD*%
D11*
%TO.C,R18*%
X53508834Y35786662D03*
X52173956Y34816816D03*
%TD*%
D59*
%TO.C,R60*%
X26802321Y-87669364D03*
X27284731Y-89247266D03*
%TD*%
D60*
%TO.C,C6*%
X-21041585Y-44367838D03*
X-19945569Y-43271822D03*
%TD*%
D61*
%TO.C,R32*%
X90932225Y20993435D03*
X89324517Y20622265D03*
%TD*%
D62*
%TO.C,R10*%
X-22255807Y-60404250D03*
X-21745929Y-58835008D03*
%TD*%
D63*
%TO.C,R21*%
X-89247999Y27285468D03*
X-87670097Y26803052D03*
%TD*%
D64*
%TO.C,R61*%
X89212042Y-21109696D03*
X90819752Y-21480866D03*
%TD*%
D56*
%TO.C,R12*%
X17499230Y-61949333D03*
X16989352Y-60380091D03*
%TD*%
D62*
%TO.C,R52*%
X16989352Y60379928D03*
X17499230Y61949170D03*
%TD*%
M02*
