%TF.GenerationSoftware,KiCad,Pcbnew,8.0.1*%
%TF.CreationDate,2024-07-22T16:32:21+09:00*%
%TF.ProjectId,Line-20240325,4c696e65-2d32-4303-9234-303332352e6b,rev?*%
%TF.SameCoordinates,Original*%
%TF.FileFunction,Paste,Top*%
%TF.FilePolarity,Positive*%
%FSLAX46Y46*%
G04 Gerber Fmt 4.6, Leading zero omitted, Abs format (unit mm)*
G04 Created by KiCad (PCBNEW 8.0.1) date 2024-07-22 16:32:21*
%MOMM*%
%LPD*%
G01*
G04 APERTURE LIST*
G04 Aperture macros list*
%AMRoundRect*
0 Rectangle with rounded corners*
0 $1 Rounding radius*
0 $2 $3 $4 $5 $6 $7 $8 $9 X,Y pos of 4 corners*
0 Add a 4 corners polygon primitive as box body*
4,1,4,$2,$3,$4,$5,$6,$7,$8,$9,$2,$3,0*
0 Add four circle primitives for the rounded corners*
1,1,$1+$1,$2,$3*
1,1,$1+$1,$4,$5*
1,1,$1+$1,$6,$7*
1,1,$1+$1,$8,$9*
0 Add four rect primitives between the rounded corners*
20,1,$1+$1,$2,$3,$4,$5,0*
20,1,$1+$1,$4,$5,$6,$7,0*
20,1,$1+$1,$6,$7,$8,$9,0*
20,1,$1+$1,$8,$9,$2,$3,0*%
G04 Aperture macros list end*
%ADD10RoundRect,0.200000X-0.256522X0.223207X-0.291385X-0.175271X0.256522X-0.223207X0.291385X0.175271X0*%
%ADD11RoundRect,0.150000X0.150000X-0.825000X0.150000X0.825000X-0.150000X0.825000X-0.150000X-0.825000X0*%
%ADD12RoundRect,0.200000X0.175271X0.291385X-0.223207X0.256522X-0.175271X-0.291385X0.223207X-0.256522X0*%
%ADD13RoundRect,0.350000X-0.350000X-0.350000X0.350000X-0.350000X0.350000X0.350000X-0.350000X0.350000X0*%
%ADD14RoundRect,0.225000X-0.335876X-0.017678X-0.017678X-0.335876X0.335876X0.017678X0.017678X0.335876X0*%
%ADD15RoundRect,0.200000X-0.175271X-0.291385X0.223207X-0.256522X0.175271X0.291385X-0.223207X0.256522X0*%
%ADD16RoundRect,0.200000X-0.317393X0.122010X-0.213866X-0.264360X0.317393X-0.122010X0.213866X0.264360X0*%
%ADD17RoundRect,0.200000X-0.199737X0.275191X-0.323344X-0.105232X0.199737X-0.275191X0.323344X0.105232X0*%
%ADD18RoundRect,0.150000X0.240891X0.803179X-0.508193X-0.666982X-0.240891X-0.803179X0.508193X0.666982X0*%
%ADD19RoundRect,0.200000X-0.340037X0.000162X-0.104923X-0.323444X0.340037X-0.000162X0.104923X0.323444X0*%
%ADD20RoundRect,0.200000X-0.200000X-0.275000X0.200000X-0.275000X0.200000X0.275000X-0.200000X0.275000X0*%
%ADD21RoundRect,0.200000X-0.122010X-0.317393X0.264360X-0.213866X0.122010X0.317393X-0.264360X0.213866X0*%
%ADD22RoundRect,0.200000X-0.223207X-0.256522X0.175271X-0.291385X0.223207X0.256522X-0.175271X0.291385X0*%
%ADD23RoundRect,0.200000X-0.104923X0.323444X-0.340037X-0.000162X0.104923X-0.323444X0.340037X0.000162X0*%
%ADD24RoundRect,0.075000X-0.521491X-0.415425X-0.415425X-0.521491X0.521491X0.415425X0.415425X0.521491X0*%
%ADD25RoundRect,0.075000X-0.521491X0.415425X0.415425X-0.521491X0.521491X-0.415425X-0.415425X0.521491X0*%
%ADD26RoundRect,0.200000X-0.213866X0.264360X-0.317393X-0.122010X0.213866X-0.264360X0.317393X0.122010X0*%
%ADD27RoundRect,0.200000X-0.291385X0.175271X-0.256522X-0.223207X0.291385X-0.175271X0.256522X0.223207X0*%
%ADD28RoundRect,0.200000X-0.275000X0.200000X-0.275000X-0.200000X0.275000X-0.200000X0.275000X0.200000X0*%
%ADD29RoundRect,0.200000X0.199737X-0.275191X0.323344X0.105232X-0.199737X0.275191X-0.323344X-0.105232X0*%
%ADD30RoundRect,0.200000X-0.323344X0.105232X-0.199737X-0.275191X0.323344X-0.105232X0.199737X0.275191X0*%
%ADD31RoundRect,0.200000X0.000162X0.340037X-0.323444X0.104923X-0.000162X-0.340037X0.323444X-0.104923X0*%
%ADD32RoundRect,0.200000X-0.275191X-0.199737X0.105232X-0.323344X0.275191X0.199737X-0.105232X0.323344X0*%
%ADD33RoundRect,0.150000X0.825000X0.150000X-0.825000X0.150000X-0.825000X-0.150000X0.825000X-0.150000X0*%
%ADD34RoundRect,0.200000X0.323344X-0.105232X0.199737X0.275191X-0.323344X0.105232X-0.199737X-0.275191X0*%
%ADD35RoundRect,0.150000X-0.666982X-0.508193X0.803179X0.240891X0.666982X0.508193X-0.803179X-0.240891X0*%
%ADD36RoundRect,0.200000X0.275191X0.199737X-0.105232X0.323344X-0.275191X-0.199737X0.105232X-0.323344X0*%
%ADD37RoundRect,0.200000X0.323444X0.104923X-0.000162X0.340037X-0.323444X-0.104923X0.000162X-0.340037X0*%
%ADD38RoundRect,0.150000X-0.150000X0.825000X-0.150000X-0.825000X0.150000X-0.825000X0.150000X0.825000X0*%
%ADD39RoundRect,0.200000X0.122010X0.317393X-0.264360X0.213866X-0.122010X-0.317393X0.264360X-0.213866X0*%
%ADD40RoundRect,0.200000X-0.000162X-0.340037X0.323444X-0.104923X0.000162X0.340037X-0.323444X0.104923X0*%
%ADD41RoundRect,0.150000X0.277212X-0.791378X0.019095X0.838308X-0.277212X0.791378X-0.019095X-0.838308X0*%
%ADD42RoundRect,0.150000X-0.689429X0.477297X0.477297X-0.689429X0.689429X-0.477297X-0.477297X0.689429X0*%
%ADD43RoundRect,0.225000X-0.250000X0.225000X-0.250000X-0.225000X0.250000X-0.225000X0.250000X0.225000X0*%
%ADD44RoundRect,0.225000X-0.017678X0.335876X-0.335876X0.017678X0.017678X-0.335876X0.335876X-0.017678X0*%
%ADD45RoundRect,0.200000X-0.264360X-0.213866X0.122010X-0.317393X0.264360X0.213866X-0.122010X0.317393X0*%
%ADD46RoundRect,0.150000X0.838308X0.019095X-0.791378X0.277212X-0.838308X-0.019095X0.791378X-0.277212X0*%
%ADD47RoundRect,0.200000X0.264360X0.213866X-0.122010X0.317393X-0.264360X-0.213866X0.122010X-0.317393X0*%
%ADD48RoundRect,0.200000X0.275000X-0.200000X0.275000X0.200000X-0.275000X0.200000X-0.275000X-0.200000X0*%
%ADD49RoundRect,0.200000X0.104923X-0.323444X0.340037X0.000162X-0.104923X0.323444X-0.340037X-0.000162X0*%
%ADD50RoundRect,0.200000X0.340037X-0.000162X0.104923X0.323444X-0.340037X0.000162X-0.104923X-0.323444X0*%
%ADD51RoundRect,0.200000X0.105232X0.323344X-0.275191X0.199737X-0.105232X-0.323344X0.275191X-0.199737X0*%
%ADD52RoundRect,0.200000X0.200000X0.275000X-0.200000X0.275000X-0.200000X-0.275000X0.200000X-0.275000X0*%
%ADD53RoundRect,0.200000X-0.105232X-0.323344X0.275191X-0.199737X0.105232X0.323344X-0.275191X0.199737X0*%
%ADD54RoundRect,0.200000X0.223207X0.256522X-0.175271X0.291385X-0.223207X-0.256522X0.175271X-0.291385X0*%
%ADD55RoundRect,0.200000X-0.323444X-0.104923X0.000162X-0.340037X0.323444X0.104923X-0.000162X0.340037X0*%
G04 APERTURE END LIST*
D10*
%TO.C,R26*%
X-5145223Y-93231338D03*
X-5001423Y-91587616D03*
%TD*%
D11*
%TO.C,Comp6*%
X-81810000Y2474998D03*
X-80540000Y2474999D03*
X-79270000Y2474999D03*
X-78000000Y2474999D03*
X-76730000Y2474999D03*
X-75460000Y2474999D03*
X-74190000Y2474999D03*
X-74190000Y-2475000D03*
X-75460000Y-2475001D03*
X-76730000Y-2475001D03*
X-78000000Y-2475001D03*
X-79270000Y-2475001D03*
X-80540000Y-2475001D03*
X-81810000Y-2475001D03*
%TD*%
D12*
%TO.C,R23*%
X-92708401Y-11122393D03*
X-91064681Y-10978585D03*
%TD*%
D13*
%TO.C,RESET*%
X36900000Y-26000000D03*
X30500000Y-26000000D03*
%TD*%
D14*
%TO.C,C4*%
X-22050000Y-24700000D03*
X-23146016Y-23603984D03*
%TD*%
D15*
%TO.C,R31*%
X92708404Y11122391D03*
X91064682Y10978591D03*
%TD*%
D16*
%TO.C,R28*%
X27052064Y-89368571D03*
X26625014Y-87774793D03*
%TD*%
D17*
%TO.C,R10*%
X-22730688Y-60249659D03*
X-22220810Y-58680415D03*
%TD*%
D18*
%TO.C,Comp4*%
X58850021Y-32763342D03*
X57718443Y-32186774D03*
X56586865Y-31610206D03*
X55455287Y-31033638D03*
X54323708Y-30457070D03*
X53192130Y-29880502D03*
X52060552Y-29303934D03*
X54307805Y-24893452D03*
X55439383Y-25470020D03*
X56570961Y-26046588D03*
X57702539Y-26623156D03*
X58834118Y-27199724D03*
X59965696Y-27776292D03*
X61097274Y-28352860D03*
%TD*%
D19*
%TO.C,R13*%
X35382235Y-53803374D03*
X34412389Y-52468496D03*
%TD*%
D20*
%TO.C,R16*%
X64325000Y-3000001D03*
X62675000Y-2999999D03*
%TD*%
D21*
%TO.C,R32*%
X89368571Y27052064D03*
X87774793Y26625014D03*
%TD*%
D22*
%TO.C,R30*%
X93231339Y-5145222D03*
X91587617Y-5001422D03*
%TD*%
D23*
%TO.C,R9*%
X-40236337Y-50276662D03*
X-39266491Y-48941784D03*
%TD*%
D24*
%TO.C,U33*%
X-26324435Y-25339154D03*
X-25970882Y-25692708D03*
X-25617328Y-26046260D03*
X-25263775Y-26399814D03*
X-24910221Y-26753367D03*
X-24556668Y-27106921D03*
X-24203115Y-27460473D03*
X-23849561Y-27814027D03*
X-23496008Y-28167581D03*
X-23142453Y-28521134D03*
X-22788901Y-28874688D03*
X-22435348Y-29228241D03*
X-22081794Y-29581794D03*
X-21728241Y-29935348D03*
X-21374688Y-30288901D03*
X-21021134Y-30642454D03*
X-20667581Y-30996010D03*
X-20314027Y-31349561D03*
X-19960474Y-31703115D03*
X-19606921Y-32056666D03*
X-19253367Y-32410221D03*
X-18899814Y-32763775D03*
X-18546260Y-33117328D03*
X-18192707Y-33470882D03*
X-17839154Y-33824435D03*
D25*
X-17839154Y-36175565D03*
X-18192708Y-36529118D03*
X-18546260Y-36882672D03*
X-18899814Y-37236225D03*
X-19253367Y-37589779D03*
X-19606921Y-37943332D03*
X-19960473Y-38296885D03*
X-20314027Y-38650439D03*
X-20667581Y-39003992D03*
X-21021134Y-39357547D03*
X-21374688Y-39711099D03*
X-21728241Y-40064652D03*
X-22081794Y-40418206D03*
X-22435348Y-40771759D03*
X-22788901Y-41125312D03*
X-23142454Y-41478866D03*
X-23496010Y-41832419D03*
X-23849561Y-42185973D03*
X-24203115Y-42539526D03*
X-24556666Y-42893079D03*
X-24910221Y-43246633D03*
X-25263775Y-43600186D03*
X-25617328Y-43953740D03*
X-25970882Y-44307293D03*
X-26324435Y-44660846D03*
D24*
X-28675565Y-44660846D03*
X-29029118Y-44307292D03*
X-29382672Y-43953740D03*
X-29736225Y-43600186D03*
X-30089779Y-43246633D03*
X-30443332Y-42893079D03*
X-30796885Y-42539527D03*
X-31150439Y-42185973D03*
X-31503992Y-41832419D03*
X-31857547Y-41478866D03*
X-32211099Y-41125312D03*
X-32564652Y-40771759D03*
X-32918206Y-40418206D03*
X-33271759Y-40064652D03*
X-33625312Y-39711099D03*
X-33978866Y-39357546D03*
X-34332419Y-39003990D03*
X-34685973Y-38650439D03*
X-35039526Y-38296885D03*
X-35393079Y-37943334D03*
X-35746633Y-37589779D03*
X-36100186Y-37236225D03*
X-36453740Y-36882672D03*
X-36807293Y-36529118D03*
X-37160846Y-36175565D03*
D25*
X-37160846Y-33824435D03*
X-36807292Y-33470882D03*
X-36453740Y-33117328D03*
X-36100186Y-32763775D03*
X-35746633Y-32410221D03*
X-35393079Y-32056668D03*
X-35039527Y-31703115D03*
X-34685973Y-31349561D03*
X-34332419Y-30996008D03*
X-33978866Y-30642453D03*
X-33625312Y-30288901D03*
X-33271759Y-29935348D03*
X-32918206Y-29581794D03*
X-32564652Y-29228241D03*
X-32211099Y-28874688D03*
X-31857546Y-28521134D03*
X-31503990Y-28167581D03*
X-31150439Y-27814027D03*
X-30796885Y-27460474D03*
X-30443334Y-27106921D03*
X-30089779Y-26753367D03*
X-29736225Y-26399814D03*
X-29382672Y-26046260D03*
X-29029118Y-25692707D03*
X-28675565Y-25339154D03*
%TD*%
D26*
%TO.C,R25*%
X-21256512Y-90921486D03*
X-20829458Y-89327706D03*
%TD*%
D27*
%TO.C,R27*%
X11122390Y-92708404D03*
X10978590Y-91064682D03*
%TD*%
D28*
%TO.C,R11*%
X-3000001Y-64325000D03*
X-2999999Y-62675000D03*
%TD*%
D29*
%TO.C,R20*%
X22730688Y60249659D03*
X22220810Y58680415D03*
%TD*%
D30*
%TO.C,R12*%
X17024348Y-62103760D03*
X16514470Y-60534516D03*
%TD*%
D31*
%TO.C,R8*%
X-53803374Y-35382235D03*
X-52468496Y-34412389D03*
%TD*%
D14*
%TO.C,C5*%
X-19750000Y-27000000D03*
X-20846016Y-25903984D03*
%TD*%
D32*
%TO.C,R15*%
X60249659Y-22730688D03*
X58680415Y-22220810D03*
%TD*%
D33*
%TO.C,Comp7*%
X-2474998Y-81810000D03*
X-2474999Y-80540000D03*
X-2474999Y-79270000D03*
X-2474999Y-78000000D03*
X-2474999Y-76730000D03*
X-2474999Y-75460000D03*
X-2474999Y-74190000D03*
X2475000Y-74190000D03*
X2475001Y-75460000D03*
X2475001Y-76730000D03*
X2475001Y-78000000D03*
X2475001Y-79270000D03*
X2475001Y-80540000D03*
X2475001Y-81810000D03*
%TD*%
D34*
%TO.C,R2*%
X-17024348Y62103760D03*
X-16514470Y60534516D03*
%TD*%
D35*
%TO.C,Comp1*%
X-28352860Y61097276D03*
X-27776292Y59965697D03*
X-27199724Y58834119D03*
X-26623156Y57702540D03*
X-26046588Y56570962D03*
X-25470020Y55439384D03*
X-24893452Y54307806D03*
X-29303934Y52060552D03*
X-29880502Y53192131D03*
X-30457070Y54323709D03*
X-31033638Y55455288D03*
X-31610206Y56586866D03*
X-32186774Y57718444D03*
X-32763342Y58850022D03*
%TD*%
D36*
%TO.C,R5*%
X-60249659Y22730688D03*
X-58680415Y22220810D03*
%TD*%
D37*
%TO.C,R4*%
X-50276662Y40236337D03*
X-48941784Y39266491D03*
%TD*%
D38*
%TO.C,Comp8*%
X81810000Y-2474998D03*
X80540000Y-2474999D03*
X79270000Y-2474999D03*
X78000000Y-2474999D03*
X76730000Y-2474999D03*
X75460000Y-2474999D03*
X74190000Y-2474999D03*
X74190000Y2475000D03*
X75460000Y2475001D03*
X76730000Y2475001D03*
X78000000Y2475001D03*
X79270000Y2475001D03*
X80540000Y2475001D03*
X81810000Y2475001D03*
%TD*%
D39*
%TO.C,R24*%
X-89368569Y-27052063D03*
X-87774793Y-26625013D03*
%TD*%
D40*
%TO.C,R18*%
X53803374Y35382235D03*
X52468496Y34412389D03*
%TD*%
D41*
%TO.C,Comp2*%
X-66868479Y-8085075D03*
X-65614114Y-7886403D03*
X-64359748Y-7687731D03*
X-63105384Y-7489059D03*
X-61851020Y-7290388D03*
X-60596656Y-7091716D03*
X-59342291Y-6893043D03*
X-58567939Y-11782101D03*
X-59822304Y-11980773D03*
X-61076670Y-12179445D03*
X-62331034Y-12378117D03*
X-63585398Y-12576788D03*
X-64839762Y-12775460D03*
X-66094127Y-12974133D03*
%TD*%
D42*
%TO.C,Comp5*%
X49345449Y45845268D03*
X48447424Y44947242D03*
X47549398Y44049216D03*
X46651372Y43151191D03*
X45753347Y42253165D03*
X44855321Y41355139D03*
X43957295Y40457114D03*
X40457117Y43957292D03*
X41355142Y44855318D03*
X42253168Y45753344D03*
X43151194Y46651369D03*
X44049219Y47549395D03*
X44947245Y48447421D03*
X45845271Y49345446D03*
%TD*%
D43*
%TO.C,C1*%
X2625000Y-32744999D03*
X2625000Y-34295001D03*
%TD*%
D44*
%TO.C,C9*%
X-34250000Y-24750000D03*
X-33153984Y-23653984D03*
%TD*%
D45*
%TO.C,R29*%
X90921486Y-21256512D03*
X89327706Y-20829458D03*
%TD*%
D43*
%TO.C,C3*%
X-875000Y-34295002D03*
X-875000Y-32745000D03*
%TD*%
D46*
%TO.C,Comp3*%
X-12974132Y-66094126D03*
X-12775460Y-64839762D03*
X-12576788Y-63585398D03*
X-12378117Y-62331034D03*
X-12179445Y-61076670D03*
X-11980774Y-59822305D03*
X-11782101Y-58567941D03*
X-6893044Y-59342292D03*
X-7091716Y-60596656D03*
X-7290388Y-61851020D03*
X-7489059Y-63105384D03*
X-7687731Y-64359748D03*
X-7886402Y-65614113D03*
X-8085075Y-66868477D03*
%TD*%
D47*
%TO.C,R21*%
X-90921486Y21256509D03*
X-89327708Y20829459D03*
%TD*%
D48*
%TO.C,R38*%
X28750000Y-29750000D03*
X28749998Y-31400000D03*
%TD*%
D43*
%TO.C,C2*%
X875000Y-34295001D03*
X875000Y-32744999D03*
%TD*%
D49*
%TO.C,R19*%
X40236337Y50276662D03*
X39266491Y48941784D03*
%TD*%
D50*
%TO.C,R3*%
X-35382235Y53803374D03*
X-34412389Y52468496D03*
%TD*%
D51*
%TO.C,R7*%
X-61819244Y-17759878D03*
X-60250000Y-17250000D03*
%TD*%
D52*
%TO.C,R6*%
X-64325000Y3000001D03*
X-62675000Y2999999D03*
%TD*%
D53*
%TO.C,R17*%
X62103760Y17024348D03*
X60534516Y16514470D03*
%TD*%
D43*
%TO.C,C10*%
X30500000Y-31350000D03*
X30500000Y-29800000D03*
%TD*%
D54*
%TO.C,R22*%
X-93231335Y5145224D03*
X-91587615Y5001420D03*
%TD*%
D55*
%TO.C,R14*%
X50276662Y-40236337D03*
X48941784Y-39266491D03*
%TD*%
D48*
%TO.C,R1*%
X3000001Y64325000D03*
X2999999Y62675000D03*
%TD*%
M02*
