%TF.GenerationSoftware,KiCad,Pcbnew,8.0.3*%
%TF.CreationDate,2024-10-15T17:05:12+09:00*%
%TF.ProjectId,Line-20240325,4c696e65-2d32-4303-9234-303332352e6b,rev?*%
%TF.SameCoordinates,Original*%
%TF.FileFunction,Soldermask,Bot*%
%TF.FilePolarity,Negative*%
%FSLAX46Y46*%
G04 Gerber Fmt 4.6, Leading zero omitted, Abs format (unit mm)*
G04 Created by KiCad (PCBNEW 8.0.3) date 2024-10-15 17:05:12*
%MOMM*%
%LPD*%
G01*
G04 APERTURE LIST*
G04 Aperture macros list*
%AMRoundRect*
0 Rectangle with rounded corners*
0 $1 Rounding radius*
0 $2 $3 $4 $5 $6 $7 $8 $9 X,Y pos of 4 corners*
0 Add a 4 corners polygon primitive as box body*
4,1,4,$2,$3,$4,$5,$6,$7,$8,$9,$2,$3,0*
0 Add four circle primitives for the rounded corners*
1,1,$1+$1,$2,$3*
1,1,$1+$1,$4,$5*
1,1,$1+$1,$6,$7*
1,1,$1+$1,$8,$9*
0 Add four rect primitives between the rounded corners*
20,1,$1+$1,$2,$3,$4,$5,0*
20,1,$1+$1,$4,$5,$6,$7,0*
20,1,$1+$1,$6,$7,$8,$9,0*
20,1,$1+$1,$8,$9,$2,$3,0*%
%AMHorizOval*
0 Thick line with rounded ends*
0 $1 width*
0 $2 $3 position (X,Y) of the first rounded end (center of the circle)*
0 $4 $5 position (X,Y) of the second rounded end (center of the circle)*
0 Add line between two ends*
20,1,$1,$2,$3,$4,$5,0*
0 Add two circle primitives to create the rounded ends*
1,1,$1,$2,$3*
1,1,$1,$4,$5*%
%AMRotRect*
0 Rectangle, with rotation*
0 The origin of the aperture is its center*
0 $1 length*
0 $2 width*
0 $3 Rotation angle, in degrees counterclockwise*
0 Add horizontal line*
21,1,$1,$2,0,0,$3*%
G04 Aperture macros list end*
%ADD10R,2.000000X2.000000*%
%ADD11C,2.000000*%
%ADD12RoundRect,0.250001X-1.099999X-1.099999X1.099999X-1.099999X1.099999X1.099999X-1.099999X1.099999X0*%
%ADD13C,2.700000*%
%ADD14RoundRect,0.250000X-0.725000X0.600000X-0.725000X-0.600000X0.725000X-0.600000X0.725000X0.600000X0*%
%ADD15O,1.950000X1.700000*%
%ADD16RoundRect,0.200000X-0.339001X-0.026517X-0.079222X-0.330679X0.339001X0.026517X0.079222X0.330679X0*%
%ADD17RotRect,1.800000X1.800000X135.000000*%
%ADD18C,1.800000*%
%ADD19RoundRect,0.200000X-0.151072X-0.304635X0.243268X-0.237583X0.151072X0.304635X-0.243268X0.237583X0*%
%ADD20RotRect,1.400000X1.400000X186.923077*%
%ADD21C,1.400000*%
%ADD22RotRect,1.400000X1.400000X112.500000*%
%ADD23RotRect,1.400000X1.400000X34.615384*%
%ADD24RotRect,1.400000X1.400000X103.846154*%
%ADD25RoundRect,0.200000X-0.304238X0.151869X-0.238219X-0.242645X0.304238X-0.151869X0.238219X0.242645X0*%
%ADD26RoundRect,0.200000X0.315003X0.128054X-0.024770X0.339133X-0.315003X-0.128054X0.024770X-0.339133X0*%
%ADD27RoundRect,0.200000X0.339001X0.026517X0.079222X0.330679X-0.339001X-0.026517X-0.079222X-0.330679X0*%
%ADD28RotRect,1.400000X1.400000X173.076923*%
%ADD29RoundRect,0.200000X0.073466X0.332006X-0.293218X0.172186X-0.073466X-0.332006X0.293218X-0.172186X0*%
%ADD30RotRect,1.600000X1.600000X159.230769*%
%ADD31HorizOval,1.600000X0.000000X0.000000X0.000000X0.000000X0*%
%ADD32RoundRect,0.200000X0.225437X0.254565X-0.172722X0.292903X-0.225437X-0.254565X0.172722X-0.292903X0*%
%ADD33RoundRect,0.200000X0.171954X0.293354X-0.226102X0.253974X-0.171954X-0.293354X0.226102X-0.253974X0*%
%ADD34RoundRect,0.200000X0.336499X0.048926X0.057132X0.335203X-0.336499X-0.048926X-0.057132X-0.335203X0*%
%ADD35RoundRect,0.200000X-0.172722X-0.292903X0.225437X-0.254565X0.172722X0.292903X-0.225437X0.254565X0*%
%ADD36RoundRect,0.200000X-0.257318X-0.222289X0.132193X-0.313289X0.257318X0.222289X-0.132193X0.313289X0*%
%ADD37RoundRect,0.200000X0.180632X0.288092X-0.218423X0.260608X-0.180632X-0.288092X0.218423X-0.260608X0*%
%ADD38RotRect,1.800000X1.800000X76.153845*%
%ADD39RotRect,1.800000X1.800000X339.230768*%
%ADD40RoundRect,0.200000X-0.315115X-0.127780X0.024474X-0.339155X0.315115X0.127780X-0.024474X0.339155X0*%
%ADD41RotRect,1.800000X1.800000X325.384615*%
%ADD42RotRect,1.400000X1.400000X277.500000*%
%ADD43RoundRect,0.200000X-0.089284X0.328106X-0.339653X0.016152X0.089284X-0.328106X0.339653X-0.016152X0*%
%ADD44RotRect,1.800000X1.800000X195.000000*%
%ADD45RoundRect,0.200000X0.314476X0.129343X-0.026158X0.339029X-0.314476X-0.129343X0.026158X-0.339029X0*%
%ADD46RotRect,1.400000X1.400000X345.000000*%
%ADD47RoundRect,0.200000X-0.152665X-0.303839X0.242021X-0.238853X0.152665X0.303839X-0.242021X0.238853X0*%
%ADD48RotRect,1.800000X1.800000X285.000000*%
%ADD49RotRect,1.400000X1.400000X187.500000*%
%ADD50R,1.600000X1.600000*%
%ADD51O,1.600000X1.600000*%
%ADD52RotRect,1.400000X1.400000X325.384615*%
%ADD53RoundRect,0.200000X0.338564X-0.031617X0.134393X0.312352X-0.338564X0.031617X-0.134393X-0.312352X0*%
%ADD54RoundRect,0.200000X0.110859X0.321458X-0.271663X0.204509X-0.110859X-0.321458X0.271663X-0.204509X0*%
%ADD55RoundRect,0.200000X-0.338398X0.033343X-0.135985X-0.311662X0.338398X-0.033343X0.135985X0.311662X0*%
%ADD56RoundRect,0.200000X0.231351X-0.249202X0.308360X0.143315X-0.231351X0.249202X-0.308360X-0.143315X0*%
%ADD57RotRect,1.400000X1.400000X159.230769*%
%ADD58RotRect,1.400000X1.400000X195.000000*%
%ADD59RotRect,1.400000X1.400000X353.076922*%
%ADD60RoundRect,0.200000X0.275000X-0.200000X0.275000X0.200000X-0.275000X0.200000X-0.275000X-0.200000X0*%
%ADD61RotRect,1.800000X1.800000X186.923077*%
%ADD62RotRect,1.400000X1.400000X339.230768*%
%ADD63RotRect,1.800000X1.800000X67.500000*%
%ADD64RoundRect,0.200000X0.323344X-0.105232X0.199737X0.275191X-0.323344X0.105232X-0.199737X-0.275191X0*%
%ADD65RoundRect,0.200000X-0.232453X0.248175X-0.307722X-0.144680X0.232453X-0.248175X0.307722X0.144680X0*%
%ADD66RoundRect,0.200000X0.009423X-0.339906X0.326274X-0.095763X-0.009423X0.339906X-0.326274X0.095763X0*%
%ADD67RoundRect,0.200000X-0.154229X0.303049X-0.335825X-0.053354X0.154229X-0.303049X0.335825X0.053354X0*%
%ADD68RoundRect,0.200000X0.285090X-0.185334X0.264156X0.214118X-0.285090X0.185334X-0.264156X-0.214118X0*%
%ADD69RotRect,1.800000X1.800000X352.500000*%
%ADD70RotRect,1.800000X1.800000X297.692307*%
%ADD71RotRect,1.400000X1.400000X62.307691*%
%ADD72RoundRect,0.200000X-0.281812X0.190281X-0.267853X-0.209476X0.281812X-0.190281X0.267853X0.209476X0*%
%ADD73RotRect,1.800000X1.800000X311.538461*%
%ADD74R,1.800000X1.800000*%
%ADD75RoundRect,0.200000X-0.218346X-0.260672X0.180717X-0.288039X0.218346X0.260672X-0.180717X0.288039X0*%
%ADD76RotRect,1.800000X1.800000X200.769230*%
%ADD77RoundRect,0.225000X-0.225000X-0.250000X0.225000X-0.250000X0.225000X0.250000X-0.225000X0.250000X0*%
%ADD78RoundRect,0.200000X0.132193X0.313289X-0.257318X0.222289X-0.132193X-0.313289X0.257318X-0.222289X0*%
%ADD79RotRect,1.800000X1.800000X112.500000*%
%ADD80RoundRect,0.200000X-0.271663X-0.204509X0.110859X-0.321458X0.271663X0.204509X-0.110859X0.321458X0*%
%ADD81R,1.400000X1.400000*%
%ADD82RotRect,1.400000X1.400000X172.500000*%
%ADD83RotRect,1.800000X1.800000X173.076923*%
%ADD84RotRect,1.400000X1.400000X256.153846*%
%ADD85RoundRect,0.200000X0.079222X-0.330679X0.339001X-0.026517X-0.079222X0.330679X-0.339001X0.026517X0*%
%ADD86RotRect,1.800000X1.800000X159.230769*%
%ADD87RotRect,1.800000X1.800000X20.769230*%
%ADD88RoundRect,0.200000X0.336292X0.050326X0.055737X0.335438X-0.336292X-0.050326X-0.055737X-0.335438X0*%
%ADD89RoundRect,0.200000X0.281313X-0.191018X0.268400X0.208774X-0.281313X0.191018X-0.268400X-0.208774X0*%
%ADD90RotRect,1.400000X1.400000X311.538461*%
%ADD91RotRect,1.400000X1.400000X228.461538*%
%ADD92RoundRect,0.200000X-0.073756X-0.331941X0.293068X-0.172442X0.073756X0.331941X-0.293068X0.172442X0*%
%ADD93RotRect,1.400000X1.400000X67.500000*%
%ADD94RotRect,1.800000X1.800000X7.500000*%
%ADD95RotRect,1.800000X1.800000X15.000000*%
%ADD96RoundRect,0.200000X0.151869X0.304238X-0.242645X0.238219X-0.151869X-0.304238X0.242645X-0.238219X0*%
%ADD97RotRect,1.800000X1.800000X45.000000*%
%ADD98RoundRect,0.200000X-0.134393X0.312352X-0.338564X-0.031617X0.134393X-0.312352X0.338564X0.031617X0*%
%ADD99RotRect,1.400000X1.400000X76.153845*%
%ADD100RoundRect,0.200000X0.088997X-0.328184X0.339639X-0.016448X-0.088997X0.328184X-0.339639X0.016448X0*%
%ADD101RotRect,1.400000X1.400000X283.846153*%
%ADD102RotRect,1.400000X1.400000X165.000000*%
%ADD103C,1.500000*%
%ADD104RotRect,1.400000X1.400000X131.538461*%
%ADD105RotRect,1.800000X1.800000X262.500000*%
%ADD106RotRect,1.800000X1.800000X48.461537*%
%ADD107RoundRect,0.200000X0.154229X-0.303049X0.335825X0.053354X-0.154229X0.303049X-0.335825X-0.053354X0*%
%ADD108RotRect,1.400000X1.400000X20.769230*%
%ADD109RoundRect,0.218750X-0.256250X0.218750X-0.256250X-0.218750X0.256250X-0.218750X0.256250X0.218750X0*%
%ADD110RoundRect,0.200000X0.256736X0.222962X-0.133012X0.312942X-0.256736X-0.222962X0.133012X-0.312942X0*%
%ADD111RoundRect,0.200000X-0.285090X0.185334X-0.264156X-0.214118X0.285090X-0.185334X0.264156X0.214118X0*%
%ADD112RoundRect,0.200000X0.007849X-0.339946X0.325827X-0.097273X-0.007849X0.339946X-0.325827X0.097273X0*%
%ADD113RotRect,1.800000X1.800000X145.384615*%
%ADD114RoundRect,0.200000X0.258460X-0.220960X0.289844X0.177807X-0.258460X0.220960X-0.289844X-0.177807X0*%
%ADD115RoundRect,0.200000X-0.209476X-0.267853X0.190281X-0.281812X0.209476X0.267853X-0.190281X0.281812X0*%
%ADD116RotRect,1.600000X1.600000X256.153846*%
%ADD117HorizOval,1.600000X0.000000X0.000000X0.000000X0.000000X0*%
%ADD118RoundRect,0.200000X0.134393X-0.312352X0.338564X0.031617X-0.134393X0.312352X-0.338564X-0.031617X0*%
%ADD119RotRect,1.400000X1.400000X6.923076*%
%ADD120RotRect,1.800000X1.800000X172.500000*%
%ADD121RoundRect,0.200000X0.190281X0.281812X-0.209476X0.267853X-0.190281X-0.281812X0.209476X-0.267853X0*%
%ADD122RotRect,1.400000X1.400000X297.692307*%
%ADD123RotRect,1.400000X1.400000X255.000000*%
%ADD124RoundRect,0.200000X-0.079222X0.330679X-0.339001X0.026517X0.079222X-0.330679X0.339001X-0.026517X0*%
%ADD125RoundRect,0.200000X-0.254565X0.225437X-0.292903X-0.172722X0.254565X-0.225437X0.292903X0.172722X0*%
%ADD126RoundRect,0.200000X0.284279X-0.186576X0.265088X0.212964X-0.284279X0.186576X-0.265088X-0.212964X0*%
%ADD127RotRect,1.800000X1.800000X255.000000*%
%ADD128RoundRect,0.200000X-0.307722X0.144680X-0.232453X-0.248175X0.307722X-0.144680X0.232453X0.248175X0*%
%ADD129RotRect,1.400000X1.400000X117.692308*%
%ADD130RoundRect,0.200000X-0.338564X0.031617X-0.134393X-0.312352X0.338564X-0.031617X0.134393X0.312352X0*%
%ADD131RoundRect,0.200000X0.138428X-0.310584X0.338126X0.036000X-0.138428X0.310584X-0.338126X-0.036000X0*%
%ADD132RoundRect,0.200000X0.242021X0.238853X-0.152665X0.303839X-0.242021X-0.238853X0.152665X-0.303839X0*%
%ADD133RoundRect,0.200000X-0.180717X-0.288039X0.218346X-0.260672X0.180717X0.288039X-0.218346X0.260672X0*%
%ADD134RoundRect,0.200000X-0.242645X-0.238219X0.151869X-0.304238X0.242645X0.238219X-0.151869X0.304238X0*%
%ADD135RoundRect,0.200000X-0.314476X-0.129343X0.026158X-0.339029X0.314476X0.129343X-0.026158X0.339029X0*%
%ADD136RotRect,1.600000X1.600000X339.230769*%
%ADD137HorizOval,1.600000X0.000000X0.000000X0.000000X0.000000X0*%
%ADD138RotRect,1.800000X1.800000X283.846153*%
%ADD139RoundRect,0.200000X0.072195X0.332284X-0.293875X0.171063X-0.072195X-0.332284X0.293875X-0.171063X0*%
%ADD140RoundRect,0.200000X-0.284116X0.186824X-0.265273X-0.212732X0.284116X-0.186824X0.265273X0.212732X0*%
%ADD141RoundRect,0.200000X0.232453X-0.248175X0.307722X0.144680X-0.232453X0.248175X-0.307722X-0.144680X0*%
%ADD142RotRect,1.800000X1.800000X214.615384*%
%ADD143RoundRect,0.200000X0.321167X-0.111700X0.205220X0.271127X-0.321167X0.111700X-0.205220X-0.271127X0*%
%ADD144RoundRect,0.200000X-0.136528X0.311424X-0.338339X-0.033934X0.136528X-0.311424X0.338339X0.033934X0*%
%ADD145RotRect,1.800000X1.800000X242.307692*%
%ADD146RotRect,1.600000X1.600000X20.769231*%
%ADD147HorizOval,1.600000X0.000000X0.000000X0.000000X0.000000X0*%
%ADD148RotRect,1.400000X1.400000X214.615384*%
%ADD149RoundRect,0.200000X0.303839X-0.152665X0.238853X0.242021X-0.303839X0.152665X-0.238853X-0.242021X0*%
%ADD150RotRect,1.400000X1.400000X269.999999*%
%ADD151RoundRect,0.200000X0.338427X-0.033048X0.135712X0.311781X-0.338427X0.033048X-0.135712X-0.311781X0*%
%ADD152RoundRect,0.200000X0.090494X-0.327774X0.339710X-0.014898X-0.090494X0.327774X-0.339710X0.014898X0*%
%ADD153RotRect,1.400000X1.400000X135.000000*%
%ADD154RoundRect,0.200000X-0.008145X0.339939X-0.325911X0.096989X0.008145X-0.339939X0.325911X-0.096989X0*%
%ADD155RotRect,1.800000X1.800000X62.307691*%
%ADD156RoundRect,0.200000X-0.336541X-0.048632X-0.057425X-0.335153X0.336541X0.048632X0.057425X0.335153X0*%
%ADD157RoundRect,0.200000X-0.308485X0.143046X-0.231134X-0.249404X0.308485X-0.143046X0.231134X0.249404X0*%
%ADD158RoundRect,0.200000X0.308610X-0.142777X0.230916X0.249605X-0.308610X0.142777X-0.230916X-0.249605X0*%
%ADD159RotRect,1.400000X1.400000X15.000000*%
%ADD160RoundRect,0.200000X0.292767X0.172953X-0.074335X0.331812X-0.292767X-0.172953X0.074335X-0.331812X0*%
%ADD161RotRect,1.800000X1.800000X103.846154*%
%ADD162RotRect,1.400000X1.400000X7.500000*%
%ADD163RotRect,1.400000X1.400000X48.461537*%
%ADD164RoundRect,0.200000X-0.009423X0.339906X-0.326274X0.095763X0.009423X-0.339906X0.326274X-0.095763X0*%
%ADD165RoundRect,0.200000X-0.226102X-0.253974X0.171954X-0.293354X0.226102X0.253974X-0.171954X0.293354X0*%
%ADD166RotRect,1.400000X1.400000X45.000000*%
%ADD167RoundRect,0.200000X0.274384X0.200844X-0.106533X0.322917X-0.274384X-0.200844X0.106533X-0.322917X0*%
%ADD168RotRect,1.800000X1.800000X187.500000*%
%ADD169RoundRect,0.200000X-0.191018X-0.281313X0.208774X-0.268400X0.191018X0.281313X-0.208774X0.268400X0*%
%ADD170RoundRect,0.200000X0.307722X-0.144680X0.232453X0.248175X-0.307722X0.144680X-0.232453X-0.248175X0*%
%ADD171RoundRect,0.200000X-0.243061X-0.237795X0.151338X-0.304503X0.243061X0.237795X-0.151338X0.304503X0*%
%ADD172RoundRect,0.200000X-0.111700X-0.321167X0.271127X-0.205220X0.111700X0.321167X-0.271127X0.205220X0*%
%ADD173RoundRect,0.200000X0.208774X0.268400X-0.191018X0.281313X-0.208774X-0.268400X0.191018X-0.281313X0*%
%ADD174RotRect,1.400000X1.400000X285.000000*%
%ADD175RoundRect,0.200000X0.253974X-0.226102X0.293354X0.171954X-0.253974X0.226102X-0.293354X-0.171954X0*%
%ADD176RotRect,1.400000X1.400000X145.384615*%
%ADD177RoundRect,0.200000X0.149618X0.305351X-0.244398X0.236421X-0.149618X-0.305351X0.244398X-0.236421X0*%
%ADD178RoundRect,0.200000X-0.072195X-0.332284X0.293875X-0.171063X0.072195X0.332284X-0.293875X0.171063X0*%
%ADD179RotRect,1.600000X1.600000X283.846154*%
%ADD180HorizOval,1.600000X0.000000X0.000000X0.000000X0.000000X0*%
%ADD181RotRect,1.800000X1.800000X228.461538*%
%ADD182RotRect,1.800000X1.800000X269.999999*%
%ADD183RoundRect,0.200000X-0.222962X0.256736X-0.312942X-0.133012X0.222962X-0.256736X0.312942X0.133012X0*%
%ADD184RoundRect,0.200000X-0.275365X-0.199497X0.104949X-0.323436X0.275365X0.199497X-0.104949X0.323436X0*%
%ADD185RotRect,1.800000X1.800000X6.923076*%
%ADD186RoundRect,0.200000X-0.231568X0.249000X-0.308235X-0.143584X0.231568X-0.249000X0.308235X0.143584X0*%
%ADD187RoundRect,0.200000X-0.133012X-0.312942X0.256736X-0.222962X0.133012X0.312942X-0.256736X0.222962X0*%
%ADD188RoundRect,0.200000X0.222289X-0.257318X0.313289X0.132193X-0.222289X0.257318X-0.313289X-0.132193X0*%
%ADD189RotRect,1.800000X1.800000X34.615384*%
%ADD190RotRect,1.600000X1.600000X200.769231*%
%ADD191HorizOval,1.600000X0.000000X0.000000X0.000000X0.000000X0*%
%ADD192RotRect,1.400000X1.400000X352.500000*%
%ADD193RotRect,1.800000X1.800000X256.153846*%
%ADD194RoundRect,0.200000X0.271127X0.205220X-0.111700X0.321167X-0.271127X-0.205220X0.111700X-0.321167X0*%
%ADD195RotRect,1.800000X1.800000X353.076922*%
%ADD196RotRect,1.400000X1.400000X200.769230*%
%ADD197RoundRect,0.200000X-0.258460X0.220960X-0.289844X-0.177807X0.258460X-0.220960X0.289844X0.177807X0*%
%ADD198RotRect,1.400000X1.400000X262.500000*%
%ADD199RoundRect,0.200000X-0.293875X-0.171063X0.072195X-0.332284X0.293875X0.171063X-0.072195X0.332284X0*%
%ADD200RotRect,1.800000X1.800000X277.500000*%
%ADD201RoundRect,0.200000X-0.200000X-0.275000X0.200000X-0.275000X0.200000X0.275000X-0.200000X0.275000X0*%
%ADD202RotRect,1.800000X1.800000X117.692308*%
%ADD203RotRect,1.800000X1.800000X131.538461*%
%ADD204RotRect,1.800000X1.800000X165.000000*%
%ADD205RotRect,1.400000X1.400000X242.307692*%
%ADD206RoundRect,0.200000X-0.321458X0.110859X-0.204509X-0.271663X0.321458X-0.110859X0.204509X0.271663X0*%
%ADD207RoundRect,0.200000X-0.336292X-0.050326X-0.055737X-0.335438X0.336292X0.050326X0.055737X0.335438X0*%
%ADD208RotRect,1.800000X1.800000X345.000000*%
%ADD209RoundRect,0.200000X-0.323344X0.105232X-0.199737X-0.275191X0.323344X-0.105232X0.199737X0.275191X0*%
%ADD210RoundRect,0.200000X0.218332X0.260684X-0.180732X0.288029X-0.218332X-0.260684X0.180732X-0.288029X0*%
%ADD211RoundRect,0.200000X0.244398X0.236421X-0.149618X0.305351X-0.244398X-0.236421X0.149618X-0.305351X0*%
%ADD212RoundRect,0.200000X-0.090494X0.327774X-0.339710X0.014898X0.090494X-0.327774X0.339710X-0.014898X0*%
G04 APERTURE END LIST*
D10*
%TO.C,C1*%
X-13867677Y-38000000D03*
D11*
X-8867677Y-38000000D03*
%TD*%
D12*
%TO.C,J1*%
X9520000Y-38000000D03*
D13*
X13480000Y-38000000D03*
%TD*%
D14*
%TO.C,J2*%
X44000000Y3750000D03*
D15*
X44000000Y1250000D03*
X44000000Y-1250000D03*
X44000000Y-3750000D03*
%TD*%
D16*
%TO.C,R73*%
X21914205Y87877335D03*
X22985795Y86622665D03*
%TD*%
D17*
%TO.C,D27*%
X29173754Y84996991D03*
D18*
X27377702Y86793043D03*
%TD*%
D19*
%TO.C,R54*%
X-67358210Y-11453260D03*
X-65731558Y-11176672D03*
%TD*%
D20*
%TO.C,U8*%
X-68269669Y-8288832D03*
D21*
X-65748189Y-7982668D03*
%TD*%
D22*
%TO.C,U28*%
X12902938Y83019217D03*
D21*
X13874954Y80672563D03*
%TD*%
D23*
%TO.C,U23*%
X56595520Y39066286D03*
D21*
X54505142Y37623402D03*
%TD*%
D24*
%TO.C,U2*%
X-16458818Y66772143D03*
D21*
X-15850956Y64305951D03*
%TD*%
D25*
%TO.C,R40*%
X14718120Y-87952019D03*
X14990450Y-89579389D03*
%TD*%
D26*
%TO.C,R64*%
X58037477Y-36054915D03*
X56635913Y-35184215D03*
%TD*%
D27*
%TO.C,R27*%
X26512887Y83127997D03*
X25441297Y84382667D03*
%TD*%
D28*
%TO.C,U7*%
X-68269668Y8289783D03*
D21*
X-65748188Y7983619D03*
%TD*%
D29*
%TO.C,R68*%
X62634330Y27299199D03*
X61121756Y26639943D03*
%TD*%
D30*
%TO.C,Comp9*%
X-14135660Y-47985964D03*
D31*
X-15036356Y-50360905D03*
X-15937053Y-52735846D03*
X-16837749Y-55110788D03*
X-17738446Y-57485729D03*
X-18639142Y-59860670D03*
X-19539839Y-62235611D03*
X-26664662Y-59533522D03*
X-25763966Y-57158581D03*
X-24863269Y-54783640D03*
X-23962573Y-52408698D03*
X-23061877Y-50033757D03*
X-22161180Y-47658816D03*
X-21260484Y-45283875D03*
%TD*%
D32*
%TO.C,R33*%
X-88764456Y8547045D03*
X-90406860Y8705191D03*
%TD*%
D33*
%TO.C,R91*%
X95359469Y9434101D03*
X93717485Y9271657D03*
%TD*%
D34*
%TO.C,R63*%
X47719225Y-48899707D03*
X46566839Y-47718813D03*
%TD*%
D35*
%TO.C,R45*%
X88764456Y8547045D03*
X90406860Y8705191D03*
%TD*%
D36*
%TO.C,R78*%
X-93312259Y21800299D03*
X-91705525Y21424925D03*
%TD*%
D37*
%TO.C,R67*%
X66667062Y4591665D03*
X65020962Y4478291D03*
%TD*%
D38*
%TO.C,D26*%
X14652219Y59451242D03*
D18*
X15260081Y61917434D03*
%TD*%
D39*
%TO.C,D19*%
X57249963Y-21711983D03*
D18*
X59624905Y-22612679D03*
%TD*%
D40*
%TO.C,R51*%
X-58005991Y36105550D03*
X-56605187Y35233626D03*
%TD*%
D41*
%TO.C,D18*%
X50390222Y-34782130D03*
D18*
X52480600Y-36225014D03*
%TD*%
D42*
%TO.C,U40*%
X12564666Y-95445922D03*
D21*
X12233130Y-92927652D03*
%TD*%
D43*
%TO.C,R70*%
X42766221Y53285608D03*
X41733447Y51998798D03*
%TD*%
D44*
%TO.C,D36*%
X-85707699Y-22964578D03*
D18*
X-88161151Y-23621978D03*
%TD*%
D45*
%TO.C,R5*%
X-52522668Y32331409D03*
X-53927786Y33196363D03*
%TD*%
D46*
%TO.C,U42*%
X92988589Y-24916034D03*
D21*
X90535137Y-24258634D03*
%TD*%
D47*
%TO.C,R81*%
X-94551899Y-15568205D03*
X-92923821Y-15300137D03*
%TD*%
D48*
%TO.C,D41*%
X22963924Y-85706124D03*
D18*
X23621324Y-88159576D03*
%TD*%
D49*
%TO.C,U35*%
X-95447487Y-12565281D03*
D21*
X-92929217Y-12233745D03*
%TD*%
D50*
%TO.C,Comp8*%
X3798970Y-40879855D03*
D51*
X3798970Y-43419855D03*
X3798970Y-45959855D03*
X3798970Y-48499855D03*
X3798970Y-51039855D03*
X3798970Y-53579855D03*
X3798970Y-56119855D03*
X-3821030Y-56119855D03*
X-3821030Y-53579855D03*
X-3821030Y-51039855D03*
X-3821030Y-48499855D03*
X-3821030Y-45959855D03*
X-3821030Y-43419855D03*
X-3821030Y-40879855D03*
%TD*%
D52*
%TO.C,U18*%
X56595519Y-39065338D03*
D21*
X54505141Y-37622454D03*
%TD*%
D53*
%TO.C,R3*%
X-31481702Y53036091D03*
X-32323910Y54454959D03*
%TD*%
D50*
%TO.C,Comp6*%
X-85801030Y-7619855D03*
D51*
X-85801030Y-5079855D03*
X-85801030Y-2539855D03*
X-85801030Y145D03*
X-85801030Y2540145D03*
X-85801030Y5080145D03*
X-85801030Y7620145D03*
X-78181030Y7620145D03*
X-78181030Y5080145D03*
X-78181030Y2540145D03*
X-78181030Y145D03*
X-78181030Y-2539855D03*
X-78181030Y-5079855D03*
X-78181030Y-7619855D03*
%TD*%
D54*
%TO.C,R36*%
X-85278477Y-26072248D03*
X-86856379Y-26554658D03*
%TD*%
D55*
%TO.C,R49*%
X-34574757Y58931247D03*
X-33739801Y57508099D03*
%TD*%
D56*
%TO.C,R59*%
X-13154064Y-67046821D03*
X-12836402Y-65427689D03*
%TD*%
D57*
%TO.C,U6*%
X-64302147Y24386653D03*
D21*
X-61927205Y23485957D03*
%TD*%
D58*
%TO.C,U36*%
X-92990770Y-24916034D03*
D21*
X-90537318Y-24258634D03*
%TD*%
D59*
%TO.C,U20*%
X68267508Y-8288835D03*
D21*
X65746028Y-7982667D03*
%TD*%
D60*
%TO.C,R95*%
X-70700000Y-12850000D03*
X-70700000Y-11200000D03*
%TD*%
D61*
%TO.C,D8*%
X-60784644Y-7379985D03*
D18*
X-63306124Y-7686149D03*
%TD*%
D62*
%TO.C,U19*%
X64299987Y-24385703D03*
D21*
X61925045Y-23485007D03*
%TD*%
D63*
%TO.C,D30*%
X-15789901Y76053165D03*
D18*
X-14817885Y78399819D03*
%TD*%
D64*
%TO.C,R28*%
X12614789Y75344687D03*
X12104911Y76913931D03*
%TD*%
D65*
%TO.C,R13*%
X-11606630Y-60572761D03*
X-11917114Y-62193285D03*
%TD*%
D66*
%TO.C,R23*%
X48853269Y37644296D03*
X50160277Y38651386D03*
%TD*%
D67*
%TO.C,R76*%
X-15675458Y84035080D03*
X-16424542Y82564920D03*
%TD*%
D68*
%TO.C,R1*%
X-3228910Y61590952D03*
X-3315264Y63238690D03*
%TD*%
D69*
%TO.C,D43*%
X87969813Y-11581113D03*
D18*
X90488085Y-11912651D03*
%TD*%
D70*
%TO.C,D16*%
X28453919Y-54215997D03*
D18*
X29634315Y-56465055D03*
%TD*%
D71*
%TO.C,U25*%
X31957933Y60893285D03*
D21*
X30777537Y58644227D03*
%TD*%
D72*
%TO.C,R39*%
X3112163Y-89120677D03*
X3169747Y-90769671D03*
%TD*%
D73*
%TO.C,D17*%
X40601919Y-45830838D03*
D18*
X42286251Y-47732056D03*
%TD*%
D74*
%TO.C,D34*%
X-88731101Y437D03*
D18*
X-91271101Y437D03*
%TD*%
D75*
%TO.C,R20*%
X61529393Y-4219151D03*
X63175527Y-4332039D03*
%TD*%
D76*
%TO.C,D9*%
X-57252124Y-21711982D03*
D18*
X-59627066Y-22612678D03*
%TD*%
D77*
%TO.C,C5*%
X-79375000Y-12250000D03*
X-77825000Y-12250000D03*
%TD*%
D78*
%TO.C,R92*%
X93312259Y21800299D03*
X91705525Y21424925D03*
%TD*%
D79*
%TO.C,D28*%
X15788371Y76053165D03*
D18*
X14816355Y78399819D03*
%TD*%
D80*
%TO.C,R42*%
X85278477Y-26072248D03*
X86856379Y-26554658D03*
%TD*%
D81*
%TO.C,U34*%
X-96271090Y475D03*
D21*
X-93731090Y475D03*
%TD*%
D82*
%TO.C,U33*%
X-95447487Y12566233D03*
D21*
X-92929217Y12234695D03*
%TD*%
D50*
%TO.C,Comp5*%
X-59881030Y-3799855D03*
D51*
X-62421030Y-3799855D03*
X-64961030Y-3799855D03*
X-67501030Y-3799855D03*
X-70041030Y-3799855D03*
X-72581030Y-3799855D03*
X-75121030Y-3799855D03*
X-75121030Y3820145D03*
X-72581030Y3820145D03*
X-70041030Y3820145D03*
X-67501030Y3820145D03*
X-64961030Y3820145D03*
X-62421030Y3820145D03*
X-59881030Y3820145D03*
%TD*%
D83*
%TO.C,D7*%
X-60784644Y7380935D03*
D18*
X-63306124Y7687099D03*
%TD*%
D84*
%TO.C,U13*%
X-16458818Y-66771193D03*
D21*
X-15850956Y-64305001D03*
%TD*%
D60*
%TO.C,R94*%
X-73200000Y-12850000D03*
X-73200000Y-11200000D03*
%TD*%
D85*
%TO.C,R31*%
X-26514546Y83127996D03*
X-25442956Y84382666D03*
%TD*%
D86*
%TO.C,D6*%
X-57252124Y21712932D03*
D18*
X-59627066Y22613628D03*
%TD*%
D87*
%TO.C,D22*%
X57249964Y21712931D03*
D18*
X59624906Y22613627D03*
%TD*%
D88*
%TO.C,R4*%
X-43259188Y43961168D03*
X-44416478Y45137254D03*
%TD*%
D89*
%TO.C,R85*%
X3093516Y-95775053D03*
X3040250Y-94125913D03*
%TD*%
D90*
%TO.C,U17*%
X45601864Y-51474610D03*
D21*
X43917532Y-49573392D03*
%TD*%
D81*
%TO.C,U29*%
X-765Y80452510D03*
D21*
X-765Y77912510D03*
%TD*%
D91*
%TO.C,U11*%
X-45604025Y-51474609D03*
D21*
X-43919693Y-49573391D03*
%TD*%
D92*
%TO.C,R55*%
X-62658130Y-27244530D03*
X-61144980Y-26586594D03*
%TD*%
D93*
%TO.C,U30*%
X-12904467Y83019217D03*
D21*
X-13876483Y80672563D03*
%TD*%
D94*
%TO.C,D45*%
X87969813Y11582066D03*
D18*
X90488083Y11913600D03*
%TD*%
D95*
%TO.C,D46*%
X85705509Y22965491D03*
D18*
X88158959Y23622889D03*
%TD*%
D96*
%TO.C,R35*%
X-87952019Y-14718120D03*
X-89579389Y-14990450D03*
%TD*%
D97*
%TO.C,D31*%
X-29175285Y84996991D03*
D18*
X-27379233Y86793043D03*
%TD*%
D98*
%TO.C,R12*%
X-31481647Y-53035029D03*
X-32323855Y-54453897D03*
%TD*%
D99*
%TO.C,U26*%
X16456659Y66772143D03*
D21*
X15848797Y64305951D03*
%TD*%
D100*
%TO.C,R57*%
X-42812705Y-53248267D03*
X-41778809Y-51962359D03*
%TD*%
D101*
%TO.C,U15*%
X16456657Y-66771193D03*
D21*
X15848795Y-64305001D03*
%TD*%
D102*
%TO.C,U32*%
X-92990769Y24916984D03*
D21*
X-90537317Y24259584D03*
%TD*%
D103*
%TO.C,BZ1*%
X0Y-76275000D03*
X0Y-81275000D03*
%TD*%
D104*
%TO.C,U4*%
X-45604025Y51475559D03*
D21*
X-43919693Y49574341D03*
%TD*%
D105*
%TO.C,D38*%
X-11582678Y-87970428D03*
D18*
X-11914216Y-90488698D03*
%TD*%
D106*
%TO.C,D24*%
X40601921Y45831786D03*
D18*
X42286253Y47733004D03*
%TD*%
D107*
%TO.C,R30*%
X-18534992Y77796228D03*
X-17785908Y79266388D03*
%TD*%
D108*
%TO.C,U22*%
X64299987Y24386651D03*
D21*
X61925045Y23485955D03*
%TD*%
D109*
%TO.C,D50*%
X-74400000Y12200000D03*
X-74400000Y10625000D03*
%TD*%
D110*
%TO.C,R32*%
X-86889449Y20060011D03*
X-88497163Y20431179D03*
%TD*%
D111*
%TO.C,R14*%
X3226731Y-61590002D03*
X3313085Y-63237740D03*
%TD*%
D112*
%TO.C,R56*%
X-54314573Y-41451572D03*
X-53002915Y-40450546D03*
%TD*%
D113*
%TO.C,D5*%
X-50392381Y34783079D03*
D18*
X-52482761Y36225963D03*
%TD*%
D114*
%TO.C,R29*%
X-3203922Y73472420D03*
X-3074464Y75117334D03*
%TD*%
D115*
%TO.C,R44*%
X89120677Y-3112163D03*
X90769671Y-3169747D03*
%TD*%
D116*
%TO.C,Comp12*%
X49338948Y-8247342D03*
D117*
X51805140Y-8855204D03*
X54271332Y-9463065D03*
X56737525Y-10070927D03*
X59203717Y-10678789D03*
X61669909Y-11286651D03*
X64136101Y-11894512D03*
X62312516Y-19293089D03*
X59846324Y-18685227D03*
X57380131Y-18077366D03*
X54913939Y-17469504D03*
X52447747Y-16861642D03*
X49981555Y-16253780D03*
X47515363Y-15645918D03*
%TD*%
D118*
%TO.C,R25*%
X31479560Y53036095D03*
X32321766Y54454965D03*
%TD*%
D119*
%TO.C,U21*%
X68267509Y8289781D03*
D21*
X65746029Y7983617D03*
%TD*%
D120*
%TO.C,D33*%
X-87972003Y11582026D03*
D18*
X-90490273Y11913562D03*
%TD*%
D121*
%TO.C,R34*%
X-89120677Y-3112163D03*
X-90769671Y-3169747D03*
%TD*%
D122*
%TO.C,U16*%
X31957931Y-60892336D03*
D21*
X30777535Y-58643278D03*
%TD*%
D123*
%TO.C,U37*%
X-24917599Y-92989204D03*
D21*
X-24260199Y-90535752D03*
%TD*%
D124*
%TO.C,R77*%
X-21764205Y88127335D03*
X-22835795Y86872665D03*
%TD*%
D125*
%TO.C,R38*%
X-8547045Y-88764456D03*
X-8705191Y-90406860D03*
%TD*%
D126*
%TO.C,R60*%
X3278106Y-68246316D03*
X3198942Y-66598216D03*
%TD*%
D127*
%TO.C,D37*%
X-22966104Y-85706123D03*
D18*
X-23623504Y-88159575D03*
%TD*%
D128*
%TO.C,R15*%
X11604485Y-60572757D03*
X11914969Y-62193281D03*
%TD*%
D129*
%TO.C,U3*%
X-31960092Y60893285D03*
D21*
X-30779696Y58644227D03*
%TD*%
D130*
%TO.C,R16*%
X31479522Y-53035141D03*
X32321730Y-54454009D03*
%TD*%
D131*
%TO.C,R58*%
X-34461876Y-58814831D03*
X-33638124Y-57385169D03*
%TD*%
D132*
%TO.C,R89*%
X94551899Y-15568205D03*
X92923821Y-15300137D03*
%TD*%
D74*
%TO.C,D44*%
X88728910Y477D03*
D18*
X91268912Y477D03*
%TD*%
D133*
%TO.C,R21*%
X61529428Y4220104D03*
X63175562Y4332992D03*
%TD*%
D134*
%TO.C,R43*%
X87952019Y-14718120D03*
X89579389Y-14990450D03*
%TD*%
D135*
%TO.C,R18*%
X52520489Y-32330460D03*
X53925607Y-33195414D03*
%TD*%
D136*
%TO.C,Comp3*%
X14133600Y47986254D03*
D137*
X15034296Y50361195D03*
X15934993Y52736136D03*
X16835689Y55111078D03*
X17736386Y57486019D03*
X18637082Y59860960D03*
X19537779Y62235901D03*
X26662602Y59533812D03*
X25761906Y57158871D03*
X24861209Y54783930D03*
X23960513Y52408988D03*
X23059817Y50034047D03*
X22159120Y47659106D03*
X21258424Y45284165D03*
%TD*%
D138*
%TO.C,D15*%
X14652217Y-59450292D03*
D18*
X15260079Y-61916484D03*
%TD*%
D139*
%TO.C,R9*%
X-56444586Y-24857873D03*
X-57954624Y-25522911D03*
%TD*%
D109*
%TO.C,D48*%
X-73200000Y-8162500D03*
X-73200000Y-9737500D03*
%TD*%
D140*
%TO.C,R47*%
X-3218548Y68249151D03*
X-3140822Y66600983D03*
%TD*%
D141*
%TO.C,R26*%
X11604452Y60573712D03*
X11914936Y62194236D03*
%TD*%
D142*
%TO.C,D10*%
X-50392382Y-34782129D03*
D18*
X-52482760Y-36225013D03*
%TD*%
D143*
%TO.C,R87*%
X27776515Y-91710936D03*
X27298235Y-90131776D03*
%TD*%
D144*
%TO.C,R71*%
X34471850Y58991501D03*
X33639380Y57566899D03*
%TD*%
D145*
%TO.C,D12*%
X-28456080Y-54215997D03*
D18*
X-29636476Y-56465055D03*
%TD*%
D146*
%TO.C,Comp1*%
X-21064480Y44823749D03*
D147*
X-21965177Y47198690D03*
X-22865873Y49573631D03*
X-23766570Y51948572D03*
X-24667266Y54323514D03*
X-25567963Y56698455D03*
X-26468659Y59073396D03*
X-19343835Y61775485D03*
X-18443139Y59400544D03*
X-17542442Y57025603D03*
X-16641746Y54650662D03*
X-15741050Y52275720D03*
X-14840353Y49900779D03*
X-13939657Y47525838D03*
%TD*%
D148*
%TO.C,U10*%
X-56597680Y-39065337D03*
D21*
X-54507302Y-37622453D03*
%TD*%
D50*
%TO.C,Comp11*%
X69378970Y3800145D03*
D51*
X71918970Y3800145D03*
X74458970Y3800145D03*
X76998970Y3800145D03*
X79538970Y3800145D03*
X82078970Y3800145D03*
X84618970Y3800145D03*
X84618970Y-3819855D03*
X82078970Y-3819855D03*
X79538970Y-3819855D03*
X76998970Y-3819855D03*
X74458970Y-3819855D03*
X71918970Y-3819855D03*
X69378970Y-3819855D03*
%TD*%
D149*
%TO.C,R86*%
X15568205Y-94551899D03*
X15300137Y-92923821D03*
%TD*%
D150*
%TO.C,U14*%
X-1080Y-68769525D03*
D21*
X-1080Y-66229525D03*
%TD*%
D151*
%TO.C,R62*%
X34626171Y-58901052D03*
X33789973Y-57478634D03*
%TD*%
D152*
%TO.C,R24*%
X38424894Y48242050D03*
X39452910Y49532660D03*
%TD*%
D153*
%TO.C,U27*%
X23842168Y90328577D03*
D21*
X25638220Y88532525D03*
%TD*%
D154*
%TO.C,R69*%
X54278379Y41498954D03*
X52967595Y40496784D03*
%TD*%
D60*
%TO.C,R93*%
X-75700000Y-12850000D03*
X-75700000Y-11200000D03*
%TD*%
D155*
%TO.C,D25*%
X28453921Y54216947D03*
D18*
X29634317Y56466005D03*
%TD*%
D156*
%TO.C,R50*%
X-47676533Y48941330D03*
X-46525179Y47759432D03*
%TD*%
D157*
%TO.C,R48*%
X-13212568Y67035317D03*
X-12893494Y65416461D03*
%TD*%
D158*
%TO.C,R61*%
X13271062Y-67023761D03*
X12950576Y-65405185D03*
%TD*%
D159*
%TO.C,U46*%
X92988590Y24916984D03*
D21*
X90535138Y24259584D03*
%TD*%
D160*
%TO.C,R65*%
X62705585Y-27135130D03*
X61191289Y-26479836D03*
%TD*%
D161*
%TO.C,D2*%
X-14654377Y59451242D03*
D18*
X-15262239Y61917434D03*
%TD*%
D162*
%TO.C,U45*%
X95445307Y12566232D03*
D21*
X92927037Y12234696D03*
%TD*%
D163*
%TO.C,U24*%
X45601866Y51475558D03*
D21*
X43917534Y49574340D03*
%TD*%
D164*
%TO.C,R10*%
X-48855446Y-37643347D03*
X-50162454Y-38650437D03*
%TD*%
D165*
%TO.C,R79*%
X-95359469Y9434101D03*
X-93717485Y9271657D03*
%TD*%
D81*
%TO.C,U39*%
X-1090Y-96269525D03*
D21*
X-1090Y-93729525D03*
%TD*%
D166*
%TO.C,U31*%
X-23843699Y90328577D03*
D21*
X-25639751Y88532525D03*
%TD*%
D167*
%TO.C,R6*%
X-58733786Y18822694D03*
X-60305070Y19326248D03*
%TD*%
D74*
%TO.C,D1*%
X-1080Y61230475D03*
D18*
X-1080Y63770475D03*
%TD*%
D168*
%TO.C,D35*%
X-87972003Y-11581152D03*
D18*
X-90490273Y-11912688D03*
%TD*%
D169*
%TO.C,R80*%
X-95775053Y-3093516D03*
X-94125913Y-3040250D03*
%TD*%
D170*
%TO.C,R2*%
X-11606594Y60573716D03*
X-11917078Y62194240D03*
%TD*%
D171*
%TO.C,R53*%
X-67368180Y11394474D03*
X-65741286Y11119306D03*
%TD*%
D172*
%TO.C,R82*%
X-91710936Y-27776515D03*
X-90131776Y-27298235D03*
%TD*%
D173*
%TO.C,R90*%
X95775053Y-3093516D03*
X94125913Y-3040250D03*
%TD*%
D174*
%TO.C,U41*%
X24915418Y-92989205D03*
D21*
X24258018Y-90535753D03*
%TD*%
D175*
%TO.C,R84*%
X-9434101Y-95359469D03*
X-9271657Y-93717485D03*
%TD*%
D176*
%TO.C,U5*%
X-56597680Y39066287D03*
D21*
X-54507300Y37623403D03*
%TD*%
D177*
%TO.C,R8*%
X-60753431Y-10627721D03*
X-62378747Y-10912059D03*
%TD*%
D178*
%TO.C,R22*%
X56442407Y24858823D03*
X57952445Y25523861D03*
%TD*%
D179*
%TO.C,Comp10*%
X47520149Y15626790D03*
D180*
X49986341Y16234651D03*
X52452533Y16842513D03*
X54918725Y17450375D03*
X57384918Y18058237D03*
X59851110Y18666098D03*
X62317302Y19273960D03*
X64140887Y11875384D03*
X61674695Y11267522D03*
X59208503Y10659660D03*
X56742311Y10051798D03*
X54276119Y9443936D03*
X51809926Y8836075D03*
X49343734Y8228213D03*
%TD*%
D50*
%TO.C,Comp4*%
X-49201030Y7620145D03*
D51*
X-49201030Y5080145D03*
X-49201030Y2540145D03*
X-49201030Y145D03*
X-49201030Y-2539855D03*
X-49201030Y-5079855D03*
X-49201030Y-7619855D03*
X-56821030Y-7619855D03*
X-56821030Y-5079855D03*
X-56821030Y-2539855D03*
X-56821030Y145D03*
X-56821030Y2540145D03*
X-56821030Y5080145D03*
X-56821030Y7620145D03*
%TD*%
D181*
%TO.C,D11*%
X-40604080Y-45830837D03*
D18*
X-42288412Y-47732055D03*
%TD*%
D81*
%TO.C,U44*%
X96268911Y476D03*
D21*
X93728911Y476D03*
%TD*%
D81*
%TO.C,U1*%
X-1080Y68770475D03*
D21*
X-1080Y66230475D03*
%TD*%
D50*
%TO.C,Comp2*%
X-3801030Y40880145D03*
D51*
X-3801030Y43420145D03*
X-3801030Y45960145D03*
X-3801030Y48500145D03*
X-3801030Y51040145D03*
X-3801030Y53580145D03*
X-3801030Y56120145D03*
X3818970Y56120145D03*
X3818970Y53580145D03*
X3818970Y51040145D03*
X3818970Y48500145D03*
X3818970Y45960145D03*
X3818970Y43420145D03*
X3818970Y40880145D03*
%TD*%
D182*
%TO.C,D14*%
X-1080Y-61229525D03*
D18*
X-1080Y-63769525D03*
%TD*%
D183*
%TO.C,R37*%
X-20060011Y-86889449D03*
X-20431179Y-88497163D03*
%TD*%
D184*
%TO.C,R52*%
X-64962487Y21170285D03*
X-63393689Y20659037D03*
%TD*%
D185*
%TO.C,D21*%
X60782484Y7380934D03*
D18*
X63303964Y7687098D03*
%TD*%
D186*
%TO.C,R72*%
X13095549Y67058275D03*
X12779301Y65438865D03*
%TD*%
D60*
%TO.C,R96*%
X-74400000Y6787500D03*
X-74400000Y8437500D03*
%TD*%
D187*
%TO.C,R46*%
X86889452Y20060010D03*
X88497160Y20431180D03*
%TD*%
D188*
%TO.C,R83*%
X-21800299Y-93312259D03*
X-21424925Y-91705525D03*
%TD*%
D189*
%TO.C,D23*%
X50390223Y34783078D03*
D18*
X52480601Y36225962D03*
%TD*%
D190*
%TO.C,Comp7*%
X21239723Y-45290967D03*
D191*
X22140420Y-47665908D03*
X23041116Y-50040849D03*
X23941813Y-52415790D03*
X24842509Y-54790732D03*
X25743206Y-57165673D03*
X26643902Y-59540614D03*
X19519078Y-62242703D03*
X18618382Y-59867762D03*
X17717685Y-57492821D03*
X16816989Y-55117880D03*
X15916293Y-52742938D03*
X15015596Y-50367997D03*
X14114900Y-47993056D03*
%TD*%
D74*
%TO.C,D39*%
X-1089Y-88729526D03*
D18*
X-1089Y-91269526D03*
%TD*%
D192*
%TO.C,U43*%
X95445307Y-12565282D03*
D21*
X92927037Y-12233744D03*
%TD*%
D193*
%TO.C,D13*%
X-14654378Y-59450292D03*
D18*
X-15262240Y-61916484D03*
%TD*%
D194*
%TO.C,R88*%
X91710936Y-27776515D03*
X90131776Y-27298235D03*
%TD*%
D195*
%TO.C,D20*%
X60782484Y-7379984D03*
D18*
X63303964Y-7686152D03*
%TD*%
D196*
%TO.C,U9*%
X-64302147Y-24385702D03*
D21*
X-61927205Y-23485006D03*
%TD*%
D197*
%TO.C,R75*%
X-2985271Y80222457D03*
X-3114729Y78577543D03*
%TD*%
D109*
%TO.C,D47*%
X-75700000Y-8162500D03*
X-75700000Y-9737500D03*
%TD*%
D74*
%TO.C,D29*%
X-765Y72912510D03*
D18*
X-765Y75452510D03*
%TD*%
D198*
%TO.C,U38*%
X-12566848Y-95445922D03*
D21*
X-12235310Y-92927652D03*
%TD*%
D109*
%TO.C,D49*%
X-70700000Y-8137500D03*
X-70700000Y-9712500D03*
%TD*%
D199*
%TO.C,R19*%
X56442440Y-24857869D03*
X57952480Y-25522909D03*
%TD*%
D200*
%TO.C,D40*%
X11580499Y-87970428D03*
D18*
X11912035Y-90488698D03*
%TD*%
D201*
%TO.C,R97*%
X-79425000Y-10350000D03*
X-77775000Y-10350000D03*
%TD*%
D202*
%TO.C,D3*%
X-28456080Y54216947D03*
D18*
X-29636476Y56466005D03*
%TD*%
D203*
%TO.C,D4*%
X-40604080Y45831787D03*
D18*
X-42288412Y47733005D03*
%TD*%
D204*
%TO.C,D32*%
X-85707699Y22965450D03*
D18*
X-88161151Y23622850D03*
%TD*%
D205*
%TO.C,U12*%
X-31960092Y-60892335D03*
D21*
X-30779696Y-58643277D03*
%TD*%
D206*
%TO.C,R41*%
X26072248Y-85278477D03*
X26554658Y-86856379D03*
%TD*%
D207*
%TO.C,R17*%
X43257008Y-43960218D03*
X44414298Y-45136304D03*
%TD*%
D208*
%TO.C,D42*%
X85705507Y-22964539D03*
D18*
X88158961Y-23621939D03*
%TD*%
D209*
%TO.C,R74*%
X10295061Y81484622D03*
X10804939Y79915378D03*
%TD*%
D210*
%TO.C,R66*%
X66668661Y-4568394D03*
X65022521Y-4455594D03*
%TD*%
D211*
%TO.C,R7*%
X-60753396Y10628676D03*
X-62378712Y10913014D03*
%TD*%
D212*
%TO.C,R11*%
X-38427072Y-48241100D03*
X-39455088Y-49531710D03*
%TD*%
M02*
