0
SECTION
2
HEADER
9
$INSUNITS
70
4
9
$ACADVER
1
AC1014
9
$HANDSEED
5
FFFF
0
ENDSEC
0
SECTION
2
TABLES
0
TABLE
2
VPORT
5
8
100
AcDbSymbolTable
0
ENDTAB
0
TABLE
2
LTYPE
5
5
100
AcDbSymbolTable
0
LTYPE
5
14
100
AcDbSymbolTableRecord
100
AcDbLinetypeTableRecord
2
BYBLOCK
70
0
0
LTYPE
5
15
100
AcDbSymbolTableRecord
100
AcDbLinetypeTableRecord
2
BYLAYER
70
0
0
LTYPE
5
16
100
AcDbSymbolTableRecord
100
AcDbLinetypeTableRecord
2
DASHED
70
0
3
Dashed __ __ __ __ __ __ __ __ __ __ __ __ __ _
72
65
73
2
40
0.75
49
0.5
74
0
49
-0.25
74
0
0
ENDTAB
0
TABLE
2
LAYER
5
2
100
AcDbSymbolTable
70
3
0
LAYER
5
50
100
AcDbSymbolTableRecord
100
AcDbLayerTableRecord
2
1
70
0
62
7
6
DASHED
0
LAYER
5
51
100
AcDbSymbolTableRecord
100
AcDbLayerTableRecord
2
0
70
0
62
7
6
CONTINUOUS
0
ENDTAB
0
TABLE
2
STYLE
5
3
100
AcDbSymbolTable
70
1
0
STYLE
5
11
100
AcDbSymbolTableRecord
100
AcDbTextStyleTableRecord
2
STANDARD
70
0
0
ENDTAB
0
TABLE
2
VIEW
5
6
100
AcDbSymbolTable
70
0
0
ENDTAB
0
TABLE
2
UCS
5
7
100
AcDbSymbolTable
70
0
0
ENDTAB
0
TABLE
2
APPID
5
9
100
AcDbSymbolTable
70
2
0
APPID
5
12
100
AcDbSymbolTableRecord
100
AcDbRegAppTableRecord
2
ACAD
70
0
0
ENDTAB
0
TABLE
2
DIMSTYLE
5
A
100
AcDbSymbolTable
70
1
0
ENDTAB
0
TABLE
2
BLOCK_RECORD
5
1
100
AcDbSymbolTable
70
1
0
BLOCK_RECORD
5
1F
100
AcDbSymbolTableRecord
100
AcDbBlockTableRecord
2
*MODEL_SPACE
0
BLOCK_RECORD
5
1B
100
AcDbSymbolTableRecord
100
AcDbBlockTableRecord
2
*PAPER_SPACE
0
ENDTAB
0
ENDSEC
0
SECTION
2
BLOCKS
0
BLOCK
5
20
100
AcDbEntity
100
AcDbBlockBegin
2
*MODEL_SPACE
0
ENDBLK
5
21
100
AcDbEntity
100
AcDbBlockEnd
0
BLOCK
5
1C
100
AcDbEntity
100
AcDbBlockBegin
2
*PAPER_SPACE
0
ENDBLK
5
1D
100
AcDbEntity
100
AcDbBlockEnd
0
ENDSEC
0
SECTION
2
ENTITIES
0
CIRCLE
5
100
100
AcDbEntity
8
0
100
AcDbCircle
10
-37.688792454557507
20
37.688792454557507
30
0
40
1.5999999999999996
210
0
220
0
230
1
0
LWPOLYLINE
5
101
100
AcDbEntity
8
0
100
AcDbPolyline
90
48
70
1
43
0.0
10
-34.626759612214727
20
38.618284182554142
42
0.99999999999999989
10
-40.750825296900295
20
36.759300726560859
10
-35.8790536838344
20
20.710180298396061
42
-0.07381210459462384
10
-35.663479999994998
20
19.257849473401318
10
-35.663479999994998
20
18.200481030683928
42
-0.19891236737965914
10
-36.102819828215182
20
17.139820858904109
10
-37.389087296526007
20
15.85355339059328
42
0.41421356237309254
10
-37.389087296526007
20
13.732233047033633
10
-36.102819828215182
20
12.445965578722813
42
-0.19891236737965845
10
-35.663479999994998
20
11.385305406942985
10
-35.663479999994998
20
-11.385305406942985
42
-0.1989123673796587
10
-36.102819828215182
20
-12.445965578722813
10
-37.389087296526007
20
-13.732233047033631
42
0.41421356237309254
10
-37.389087296526007
20
-15.853553390593278
10
-36.102819828215182
20
-17.139820858904105
42
-0.1989123673796595
10
-35.663479999994998
20
-18.200481030683928
10
-35.663479999994998
20
-19.257849473401315
42
-0.073812104594624062
10
-35.8790536838344
20
-20.710180298396065
10
-40.750825296900295
20
-36.759300726560859
42
0.99999999999999989
10
-34.626759612214727
20
-38.618284182554142
10
-30.052021294993061
20
-23.547683175002867
42
-0.33030278864522794
10
-25.267594978832456
20
-20.000013999997623
10
25.267594978832463
20
-20.00001399999762
42
-0.33030278864522883
10
30.052021294993061
20
-23.54768317500287
10
34.626759612214727
20
-38.618284182554142
42
0.99999999999999989
10
40.750825296900295
20
-36.759300726560859
10
35.8790536838344
20
-20.710180298396065
42
-0.073812104594624284
10
35.663479999994998
20
-19.257849473401315
10
35.663479999994998
20
-18.200481030683928
42
-0.1989123673796595
10
36.102819828215182
20
-17.139820858904105
10
37.389087296526007
20
-15.853553390593278
42
0.41421356237309254
10
37.389087296526007
20
-13.732233047033631
10
36.102819828215182
20
-12.445965578722815
42
-0.1989123673796587
10
35.663479999994998
20
-11.385305406942985
10
35.663479999994998
20
11.385305406942985
42
-0.1989123673796587
10
36.102819828215182
20
12.445965578722813
10
37.389087296526007
20
13.732233047033631
42
0.41421356237309254
10
37.389087296526007
20
15.853553390593278
10
36.102819828215182
20
17.139820858904105
42
-0.1989123673796595
10
35.663479999994998
20
18.200481030683928
10
35.663479999994998
20
19.257849473401325
42
-0.07381210459462384
10
35.8790536838344
20
20.710180298396068
10
40.750825296900295
20
36.759300726560866
42
1.0000000074505806
10
34.626759612214727
20
38.618284182554135
10
30.052021294993065
20
23.547683175002874
42
-0.3303027886452275
10
25.26759497883247
20
20.000013999997623
10
-25.267594978832456
20
20.00001399999762
42
-0.33030278864522888
10
-30.052021294993061
20
23.54768317500287
0
CIRCLE
5
102
100
AcDbEntity
8
0
100
AcDbCircle
10
-37.688792454557507
20
-37.688792454557507
30
0
40
1.5999999999999996
210
0
220
0
230
1
0
CIRCLE
5
103
100
AcDbEntity
8
0
100
AcDbCircle
10
37.688792454557507
20
-37.688792454557507
30
0
40
1.5999999999999996
210
0
220
0
230
1
0
CIRCLE
5
104
100
AcDbEntity
8
0
100
AcDbCircle
10
37.688792454557507
20
37.688792454557507
30
0
40
1.5999999999999996
210
0
220
0
230
1
0
ENDSEC
0
SECTION
2
OBJECTS
0
DICTIONARY
5
C
100
AcDbDictionary
3
ACAD_GROUP
350
D
3
ACAD_MLINESTYLE
350
17
0
DICTIONARY
5
D
100
AcDbDictionary
0
DICTIONARY
5
1A
330
C
100
AcDbDictionary
0
DICTIONARY
5
17
100
AcDbDictionary
0
ENDSEC
0
EOF
