M48
; DRILL file {KiCad 7.0.6} date Sun Feb 11 17:46:38 2024
; FORMAT={-:-/ absolute / inch / decimal}
; #@! TF.CreationDate,2024-02-11T17:46:38+09:00
; #@! TF.GenerationSoftware,Kicad,Pcbnew,7.0.6
; #@! TF.FileFunction,Plated,1,2,PTH
FMAT,2
INCH
; #@! TA.AperFunction,Plated,PTH,ViaDrill
T1C0.0157
; #@! TA.AperFunction,Plated,PTH,ComponentDrill
T2C0.0374
; #@! TA.AperFunction,Plated,PTH,ComponentDrill
T3C0.0669
%
G90
G05
T1
X3.3661Y-3.718
X3.4547Y-2.8248
X3.6909Y-2.8248
X3.7598Y-4.5276
X3.8509Y-3.0841
X3.8509Y-3.1235
X3.8509Y-3.1629
X3.8509Y-3.2022
X3.8509Y-3.2416
X3.8509Y-3.9109
X3.8509Y-3.9503
X3.8509Y-3.9897
X3.8509Y-4.029
X3.8509Y-4.0684
X3.8583Y-2.9503
X3.8903Y-3.0841
X3.8903Y-3.1235
X3.8903Y-3.1629
X3.8903Y-3.2022
X3.8903Y-3.2416
X3.8903Y-3.9109
X3.8903Y-3.9503
X3.8903Y-3.9897
X3.8903Y-4.029
X3.8903Y-4.0684
X3.9296Y-3.0841
X3.9296Y-3.1235
X3.9296Y-3.1629
X3.9296Y-3.2022
X3.9296Y-3.2416
X3.9296Y-3.9109
X3.9296Y-3.9503
X3.9296Y-3.9897
X3.9296Y-4.029
X3.9296Y-4.0684
X3.9567Y-2.9503
X3.9567Y-4.6531
X3.969Y-3.0841
X3.969Y-3.1235
X3.969Y-3.1629
X3.969Y-3.2022
X3.969Y-3.2416
X3.969Y-3.9109
X3.969Y-3.9503
X3.969Y-3.9897
X3.969Y-4.029
X3.969Y-4.0684
X4.0084Y-3.0841
X4.0084Y-3.1235
X4.0084Y-3.1629
X4.0084Y-3.9109
X4.0084Y-3.9503
X4.0084Y-3.9897
X4.0477Y-3.0841
X4.0477Y-3.1235
X4.0477Y-3.1629
X4.0477Y-3.9109
X4.0477Y-3.9503
X4.0477Y-3.9897
X4.0871Y-3.0841
X4.0871Y-3.1235
X4.0871Y-3.1629
X4.0871Y-3.9109
X4.0871Y-3.9503
X4.0871Y-3.9897
X4.1265Y-3.0841
X4.1265Y-3.1235
X4.1265Y-3.1629
X4.1265Y-3.9109
X4.1265Y-3.9503
X4.1265Y-3.9897
X4.3209Y-3.4843
X4.3474Y-3.4089
X4.3474Y-3.4483
X4.3519Y-4.124
X4.3519Y-4.0448
X4.3519Y-4.2027
X4.3519Y-4.242
X4.3519Y-4.1633
X4.3524Y-4.0846
X4.377Y-3.5999
X4.377Y-3.6786
X4.377Y-3.7574
X4.377Y-3.8361
X4.5079Y-3.5408
T2
X4.1309Y-2.8312
X4.1309Y-4.6048
X4.2293Y-2.8312
X4.2293Y-4.6048
X4.3278Y-2.8312
X4.3278Y-4.6048
X4.4262Y-2.8312
X4.4262Y-4.6048
T3
X3.3344Y-4.6048
X3.4904Y-4.6048
X3.7973Y-2.3832
X3.7973Y-2.5391
X3.7973Y-4.897
X3.7973Y-5.0529
T0
M30
