%TF.GenerationSoftware,KiCad,Pcbnew,7.0.6*%
%TF.CreationDate,2024-02-11T17:46:38+09:00*%
%TF.ProjectId,MotorDriver_DRV8874_20240201,4d6f746f-7244-4726-9976-65725f445256,rev?*%
%TF.SameCoordinates,Original*%
%TF.FileFunction,Copper,L2,Bot*%
%TF.FilePolarity,Positive*%
%FSLAX46Y46*%
G04 Gerber Fmt 4.6, Leading zero omitted, Abs format (unit mm)*
G04 Created by KiCad (PCBNEW 7.0.6) date 2024-02-11 17:46:38*
%MOMM*%
%LPD*%
G01*
G04 APERTURE LIST*
G04 Aperture macros list*
%AMRoundRect*
0 Rectangle with rounded corners*
0 $1 Rounding radius*
0 $2 $3 $4 $5 $6 $7 $8 $9 X,Y pos of 4 corners*
0 Add a 4 corners polygon primitive as box body*
4,1,4,$2,$3,$4,$5,$6,$7,$8,$9,$2,$3,0*
0 Add four circle primitives for the rounded corners*
1,1,$1+$1,$2,$3*
1,1,$1+$1,$4,$5*
1,1,$1+$1,$6,$7*
1,1,$1+$1,$8,$9*
0 Add four rect primitives between the rounded corners*
20,1,$1+$1,$2,$3,$4,$5,0*
20,1,$1+$1,$4,$5,$6,$7,0*
20,1,$1+$1,$6,$7,$8,$9,0*
20,1,$1+$1,$8,$9,$2,$3,0*%
G04 Aperture macros list end*
%TA.AperFunction,ComponentPad*%
%ADD10RoundRect,0.250001X1.099999X-1.099999X1.099999X1.099999X-1.099999X1.099999X-1.099999X-1.099999X0*%
%TD*%
%TA.AperFunction,ComponentPad*%
%ADD11C,2.700000*%
%TD*%
%TA.AperFunction,ComponentPad*%
%ADD12RoundRect,0.250000X-0.600000X-0.725000X0.600000X-0.725000X0.600000X0.725000X-0.600000X0.725000X0*%
%TD*%
%TA.AperFunction,ComponentPad*%
%ADD13O,1.700000X1.950000*%
%TD*%
%TA.AperFunction,ComponentPad*%
%ADD14RoundRect,0.250000X0.600000X0.725000X-0.600000X0.725000X-0.600000X-0.725000X0.600000X-0.725000X0*%
%TD*%
%TA.AperFunction,ComponentPad*%
%ADD15RoundRect,0.250001X-1.099999X-1.099999X1.099999X-1.099999X1.099999X1.099999X-1.099999X1.099999X0*%
%TD*%
%TA.AperFunction,SMDPad,CuDef*%
%ADD16RoundRect,0.243750X-0.456250X0.243750X-0.456250X-0.243750X0.456250X-0.243750X0.456250X0.243750X0*%
%TD*%
%TA.AperFunction,ViaPad*%
%ADD17C,0.800000*%
%TD*%
%TA.AperFunction,Conductor*%
%ADD18C,1.500000*%
%TD*%
%TA.AperFunction,Conductor*%
%ADD19C,0.250000*%
%TD*%
G04 APERTURE END LIST*
D10*
%TO.P,M2,1,Pin_1*%
%TO.N,OUT1-2*%
X96452585Y-128342867D03*
D11*
%TO.P,M2,2,Pin_2*%
%TO.N,OUT2-2*%
X96452585Y-124382867D03*
%TD*%
D12*
%TO.P,J4,1,Pin_1*%
%TO.N,PH-1*%
X104925000Y-71912500D03*
D13*
%TO.P,J4,2,Pin_2*%
%TO.N,unconnected-(J4-Pin_2-Pad2)*%
X107425000Y-71912500D03*
%TO.P,J4,3,Pin_3*%
%TO.N,EN-1*%
X109925000Y-71912500D03*
%TO.P,J4,4,Pin_4*%
%TO.N,PH-2*%
X112425000Y-71912500D03*
%TD*%
D14*
%TO.P,J5,1,Pin_1*%
%TO.N,unconnected-(J5-Pin_1-Pad1)*%
X112425000Y-116962500D03*
D13*
%TO.P,J5,2,Pin_2*%
%TO.N,EN-2*%
X109925000Y-116962500D03*
%TO.P,J5,3,Pin_3*%
%TO.N,SLEEP-1*%
X107425000Y-116962500D03*
%TO.P,J5,4,Pin_4*%
%TO.N,GND*%
X104925000Y-116962500D03*
%TD*%
D15*
%TO.P,VIN,1,Pin_1*%
%TO.N,VIN*%
X84695000Y-116962133D03*
D11*
%TO.P,VIN,2,Pin_2*%
%TO.N,GND*%
X88655000Y-116962133D03*
%TD*%
D10*
%TO.P,M1,1,Pin_1*%
%TO.N,OUT1-1*%
X96452585Y-64492133D03*
D11*
%TO.P,M1,2,Pin_2*%
%TO.N,OUT2-1*%
X96452585Y-60532133D03*
%TD*%
D16*
%TO.P,PWR,1,K*%
%TO.N,GND*%
X100500000Y-115000000D03*
%TO.P,PWR,2,A*%
%TO.N,Net-(D2-A)*%
X100500000Y-116875000D03*
%TD*%
%TO.P,M2,1,K*%
%TO.N,GND*%
X100500000Y-71750000D03*
%TO.P,M2,2,A*%
%TO.N,Net-(D4-A)*%
X100500000Y-73625000D03*
%TD*%
%TO.P,M1,1,K*%
%TO.N,GND*%
X98000000Y-71750000D03*
%TO.P,M1,2,A*%
%TO.N,Net-(D3-A)*%
X98000000Y-73625000D03*
%TD*%
D17*
%TO.N,GND*%
X114500000Y-89937500D03*
X95500000Y-115000000D03*
X85500000Y-94437500D03*
X87750000Y-71750000D03*
X93750000Y-71750000D03*
%TO.N,Net-(D2-A)*%
X100500000Y-118187500D03*
%TO.N,Net-(D3-A)*%
X98000000Y-74937500D03*
%TO.N,Net-(D4-A)*%
X100500000Y-74937500D03*
%TO.N,PH-1*%
X110425000Y-86587133D03*
%TO.N,EN-1*%
X110425000Y-87587133D03*
%TO.N,PH-2*%
X110537500Y-106747861D03*
%TO.N,EN-2*%
X110537500Y-107747364D03*
%TO.N,OUT2-1*%
X104812500Y-79337133D03*
X99812500Y-82337133D03*
X100812500Y-81337133D03*
X102812500Y-79337133D03*
X98812500Y-78337133D03*
X104812500Y-78337133D03*
X98812500Y-79337133D03*
X98812500Y-81337133D03*
X101812500Y-80337133D03*
X103812500Y-80337133D03*
X102812500Y-80337133D03*
X100812500Y-82337133D03*
X103812500Y-78337133D03*
X99812500Y-79337133D03*
X99812500Y-78337133D03*
X97812500Y-80337133D03*
X104812500Y-80337133D03*
X97812500Y-78337133D03*
X97812500Y-81337133D03*
X98812500Y-80337133D03*
X99812500Y-81337133D03*
X97812500Y-79337133D03*
X100812500Y-78337133D03*
X100812500Y-80337133D03*
X102812500Y-78337133D03*
X100812500Y-79337133D03*
X101812500Y-78337133D03*
X99812500Y-80337133D03*
X103812500Y-79337133D03*
X98812500Y-82337133D03*
X101812500Y-79337133D03*
X97812500Y-82337133D03*
%TO.N,OUT2-2*%
X103812500Y-99337133D03*
X102812500Y-99337133D03*
X97812500Y-103337133D03*
X100812500Y-103337133D03*
X98812500Y-102337133D03*
X104812500Y-99337133D03*
X104812500Y-101337133D03*
X100812500Y-99337133D03*
X97812500Y-99337133D03*
X102812500Y-101337133D03*
X100812500Y-100337133D03*
X101812500Y-101337133D03*
X97812500Y-100337133D03*
X100812500Y-102337133D03*
X98812500Y-101337133D03*
X99812500Y-101337133D03*
X98812500Y-103337133D03*
X104812500Y-100337133D03*
X98812500Y-100337133D03*
X98812500Y-99337133D03*
X99812500Y-103337133D03*
X99812500Y-100337133D03*
X97812500Y-101337133D03*
X101812500Y-99337133D03*
X102812500Y-100337133D03*
X99812500Y-99337133D03*
X99812500Y-102337133D03*
X101812500Y-100337133D03*
X103812500Y-101337133D03*
X100812500Y-101337133D03*
X103812500Y-100337133D03*
X97812500Y-102337133D03*
%TO.N,Net-(U2-IPROPI)*%
X111175000Y-93437500D03*
X110549799Y-103749432D03*
%TO.N,SLEEP-1*%
X109750000Y-88500000D03*
X110537502Y-105748359D03*
X111175000Y-97437500D03*
%TO.N,VREF-2*%
X110537354Y-104748857D03*
X111175000Y-95437500D03*
%TO.N,IMODE-2*%
X111175000Y-91437500D03*
X110537500Y-102737133D03*
%TD*%
D18*
%TO.N,GND*%
X112433084Y-69250000D02*
X114500000Y-71316916D01*
X104925000Y-116962500D02*
X102962500Y-115000000D01*
X100500000Y-71750000D02*
X103000000Y-69250000D01*
X114500000Y-71316916D02*
X114500000Y-89937500D01*
X103000000Y-69250000D02*
X112433084Y-69250000D01*
X102962500Y-115000000D02*
X100500000Y-115000000D01*
X98000000Y-71750000D02*
X93750000Y-71750000D01*
X113757624Y-118887500D02*
X106325862Y-118887500D01*
X114500000Y-89937500D02*
X114500000Y-118145124D01*
X114500000Y-118145124D02*
X113757624Y-118887500D01*
X100500000Y-115000000D02*
X95500000Y-115000000D01*
X98000000Y-71750000D02*
X100500000Y-71750000D01*
X106325862Y-118887500D02*
X104925000Y-117486638D01*
X104925000Y-117486638D02*
X104925000Y-116962500D01*
D19*
%TO.N,Net-(D2-A)*%
X100500000Y-118187500D02*
X100500000Y-116875000D01*
%TO.N,Net-(D3-A)*%
X98000000Y-74937500D02*
X98000000Y-73625000D01*
%TO.N,Net-(D4-A)*%
X100500000Y-74937500D02*
X100500000Y-73625000D01*
%TO.N,PH-1*%
X110425000Y-77412500D02*
X104925000Y-71912500D01*
X110425000Y-86587133D02*
X110425000Y-77412500D01*
%TO.N,EN-1*%
X110425000Y-87587133D02*
X110450305Y-87587133D01*
X111150000Y-73137500D02*
X109925000Y-71912500D01*
X110450305Y-87587133D02*
X111150000Y-86887438D01*
X111150000Y-86887438D02*
X111150000Y-73137500D01*
%TO.N,PH-2*%
X110563305Y-106747861D02*
X110537500Y-106747861D01*
X112425000Y-71912500D02*
X112425000Y-101690140D01*
X112425000Y-101690140D02*
X112612500Y-101877640D01*
X112612500Y-104698666D02*
X110563305Y-106747861D01*
X112612500Y-101877640D02*
X112612500Y-104698666D01*
%TO.N,EN-2*%
X109925000Y-108359864D02*
X110537500Y-107747364D01*
X109925000Y-116962500D02*
X109925000Y-108359864D01*
%TO.N,Net-(U2-IPROPI)*%
X110000000Y-101174328D02*
X110000000Y-94612500D01*
X111262500Y-102436828D02*
X110000000Y-101174328D01*
X110549799Y-103749432D02*
X111262500Y-103036731D01*
X110000000Y-94612500D02*
X111175000Y-93437500D01*
X111262500Y-103036731D02*
X111262500Y-102436828D01*
%TO.N,SLEEP-1*%
X109750000Y-88500000D02*
X111900000Y-90650000D01*
X110537502Y-105748359D02*
X110537502Y-105737135D01*
X112162500Y-102064036D02*
X112162500Y-104149016D01*
X110537502Y-105737135D02*
X110537500Y-105737133D01*
X112162500Y-104149016D02*
X110563157Y-105748359D01*
X111900000Y-90650000D02*
X111900000Y-96712500D01*
X110511697Y-105748359D02*
X110537502Y-105748359D01*
X111900000Y-96712500D02*
X111175000Y-97437500D01*
X111175000Y-101076536D02*
X112162500Y-102064036D01*
X107425000Y-116962500D02*
X107425000Y-108835056D01*
X107425000Y-108835056D02*
X110511697Y-105748359D01*
X111175000Y-97437500D02*
X111175000Y-101076536D01*
X110563157Y-105748359D02*
X110537502Y-105748359D01*
%TO.N,VREF-2*%
X111712500Y-102250432D02*
X110450000Y-100987932D01*
X110450000Y-100987932D02*
X110450000Y-96162500D01*
X110575679Y-104748857D02*
X111712500Y-103612036D01*
X111712500Y-103612036D02*
X111712500Y-102250432D01*
X110450000Y-96162500D02*
X111175000Y-95437500D01*
X110537354Y-104748857D02*
X110575679Y-104748857D01*
%TO.N,IMODE-2*%
X109550000Y-101749633D02*
X109550000Y-93062500D01*
X110537500Y-102737133D02*
X109550000Y-101749633D01*
X109550000Y-93062500D02*
X111175000Y-91437500D01*
%TD*%
%TA.AperFunction,Conductor*%
%TO.N,OUT2-2*%
G36*
X108867539Y-97981818D02*
G01*
X108913294Y-98034622D01*
X108924500Y-98086133D01*
X108924500Y-101666888D01*
X108922775Y-101682505D01*
X108923061Y-101682532D01*
X108922326Y-101690298D01*
X108924500Y-101759447D01*
X108924500Y-101788976D01*
X108924501Y-101788993D01*
X108925368Y-101795864D01*
X108925826Y-101801683D01*
X108927290Y-101848257D01*
X108927291Y-101848260D01*
X108932880Y-101867500D01*
X108936824Y-101886544D01*
X108939336Y-101906425D01*
X108955278Y-101946690D01*
X108956490Y-101949752D01*
X108958382Y-101955280D01*
X108971381Y-102000021D01*
X108981580Y-102017267D01*
X108990138Y-102034736D01*
X108997514Y-102053365D01*
X109024898Y-102091056D01*
X109028106Y-102095940D01*
X109051827Y-102136049D01*
X109051833Y-102136057D01*
X109065990Y-102150213D01*
X109078628Y-102165009D01*
X109090405Y-102181219D01*
X109090406Y-102181220D01*
X109126309Y-102210921D01*
X109130620Y-102214843D01*
X109567960Y-102652184D01*
X109598538Y-102682762D01*
X109632023Y-102744085D01*
X109634178Y-102757481D01*
X109642468Y-102836360D01*
X109651826Y-102925389D01*
X109651827Y-102925392D01*
X109710318Y-103105410D01*
X109710321Y-103105417D01*
X109760271Y-103191932D01*
X109776744Y-103259832D01*
X109760272Y-103315931D01*
X109722619Y-103381148D01*
X109687233Y-103490057D01*
X109664125Y-103561176D01*
X109644339Y-103749432D01*
X109664125Y-103937688D01*
X109664126Y-103937691D01*
X109722617Y-104117709D01*
X109722620Y-104117716D01*
X109756481Y-104176365D01*
X109772954Y-104244266D01*
X109756482Y-104300364D01*
X109710174Y-104380572D01*
X109651681Y-104560597D01*
X109651680Y-104560601D01*
X109640269Y-104669173D01*
X109631996Y-104747891D01*
X109631894Y-104748857D01*
X109651680Y-104937113D01*
X109651681Y-104937116D01*
X109710172Y-105117134D01*
X109710175Y-105117141D01*
X109750355Y-105186735D01*
X109766828Y-105254636D01*
X109750356Y-105310734D01*
X109710322Y-105380075D01*
X109651829Y-105560098D01*
X109651829Y-105560099D01*
X109651828Y-105560103D01*
X109645229Y-105622884D01*
X109637210Y-105699175D01*
X109610625Y-105763789D01*
X109601570Y-105773893D01*
X107041208Y-108334255D01*
X107028951Y-108344076D01*
X107029134Y-108344297D01*
X107023123Y-108349269D01*
X106975772Y-108399692D01*
X106954889Y-108420575D01*
X106954877Y-108420588D01*
X106950621Y-108426073D01*
X106946837Y-108430503D01*
X106914937Y-108464474D01*
X106914936Y-108464476D01*
X106905284Y-108482032D01*
X106894610Y-108498282D01*
X106882329Y-108514117D01*
X106882324Y-108514124D01*
X106863815Y-108556894D01*
X106861245Y-108562140D01*
X106838803Y-108602962D01*
X106833822Y-108622363D01*
X106827521Y-108640766D01*
X106819562Y-108659158D01*
X106819561Y-108659161D01*
X106812271Y-108705183D01*
X106811087Y-108710902D01*
X106799501Y-108756028D01*
X106799500Y-108756038D01*
X106799500Y-108776072D01*
X106797973Y-108795471D01*
X106794840Y-108815250D01*
X106794840Y-108815251D01*
X106799225Y-108861639D01*
X106799500Y-108867477D01*
X106799500Y-115562273D01*
X106779815Y-115629312D01*
X106746623Y-115663848D01*
X106553597Y-115799005D01*
X106386508Y-115966094D01*
X106276574Y-116123096D01*
X106221997Y-116166721D01*
X106152498Y-116173913D01*
X106090144Y-116142391D01*
X106073424Y-116123095D01*
X105963494Y-115966097D01*
X105796402Y-115799006D01*
X105796395Y-115799001D01*
X105602834Y-115663467D01*
X105602830Y-115663465D01*
X105550500Y-115639063D01*
X105388663Y-115563597D01*
X105388659Y-115563596D01*
X105388657Y-115563595D01*
X105292222Y-115537755D01*
X105236635Y-115505661D01*
X103898856Y-114167882D01*
X103894219Y-114162693D01*
X103870007Y-114132332D01*
X103818531Y-114087359D01*
X103815497Y-114084523D01*
X103807029Y-114076055D01*
X103774681Y-114049049D01*
X103700496Y-113984235D01*
X103696741Y-113981991D01*
X103680873Y-113970732D01*
X103677519Y-113967932D01*
X103677518Y-113967931D01*
X103677513Y-113967927D01*
X103610114Y-113929685D01*
X103591840Y-113919316D01*
X103507264Y-113868785D01*
X103507261Y-113868783D01*
X103503169Y-113867248D01*
X103485544Y-113859002D01*
X103481745Y-113856846D01*
X103388753Y-113824307D01*
X103296529Y-113789694D01*
X103296519Y-113789691D01*
X103292223Y-113788912D01*
X103273418Y-113783949D01*
X103269284Y-113782502D01*
X103269279Y-113782501D01*
X103171972Y-113767089D01*
X103075050Y-113749500D01*
X103075047Y-113749500D01*
X103070672Y-113749500D01*
X103051269Y-113747972D01*
X103046960Y-113747289D01*
X102948478Y-113749500D01*
X100612547Y-113749500D01*
X95443845Y-113749500D01*
X95405399Y-113752960D01*
X95275813Y-113764622D01*
X95275807Y-113764623D01*
X95058839Y-113824503D01*
X95058826Y-113824508D01*
X94856033Y-113922167D01*
X94856025Y-113922171D01*
X94673927Y-114054473D01*
X94673925Y-114054474D01*
X94518366Y-114217176D01*
X94394363Y-114405033D01*
X94305899Y-114612004D01*
X94305895Y-114612017D01*
X94255810Y-114831457D01*
X94255808Y-114831468D01*
X94245710Y-115056325D01*
X94245710Y-115056330D01*
X94275925Y-115279387D01*
X94275926Y-115279390D01*
X94345483Y-115493465D01*
X94452146Y-115691678D01*
X94452148Y-115691681D01*
X94592489Y-115867663D01*
X94592491Y-115867664D01*
X94592492Y-115867666D01*
X94762004Y-116015765D01*
X94955236Y-116131215D01*
X95115716Y-116191444D01*
X95165976Y-116210307D01*
X95387450Y-116250500D01*
X95387453Y-116250500D01*
X99214150Y-116250500D01*
X99281189Y-116270185D01*
X99326944Y-116322989D01*
X99336888Y-116392147D01*
X99331856Y-116413504D01*
X99309913Y-116479723D01*
X99299500Y-116581644D01*
X99299500Y-117168355D01*
X99309913Y-117270276D01*
X99364637Y-117435422D01*
X99364642Y-117435433D01*
X99455971Y-117583499D01*
X99455974Y-117583503D01*
X99578996Y-117706525D01*
X99579001Y-117706529D01*
X99604705Y-117722383D01*
X99651431Y-117774330D01*
X99662654Y-117843292D01*
X99657541Y-117866240D01*
X99625405Y-117965146D01*
X99614326Y-117999244D01*
X99600466Y-118131121D01*
X99595639Y-118177048D01*
X99594540Y-118187500D01*
X99614326Y-118375756D01*
X99614327Y-118375759D01*
X99672818Y-118555777D01*
X99672821Y-118555784D01*
X99767467Y-118719716D01*
X99893908Y-118860143D01*
X99894129Y-118860388D01*
X100047265Y-118971648D01*
X100047270Y-118971651D01*
X100220192Y-119048642D01*
X100220197Y-119048644D01*
X100405354Y-119088000D01*
X100405355Y-119088000D01*
X100594644Y-119088000D01*
X100594646Y-119088000D01*
X100779803Y-119048644D01*
X100952730Y-118971651D01*
X101105871Y-118860388D01*
X101232533Y-118719716D01*
X101327179Y-118555784D01*
X101385674Y-118375756D01*
X101405460Y-118187500D01*
X101385674Y-117999244D01*
X101342457Y-117866239D01*
X101340463Y-117796399D01*
X101376543Y-117736566D01*
X101395294Y-117722383D01*
X101414032Y-117710826D01*
X101421003Y-117706526D01*
X101544026Y-117583503D01*
X101635362Y-117435425D01*
X101690087Y-117270275D01*
X101700500Y-117168348D01*
X101700500Y-116581652D01*
X101690087Y-116479725D01*
X101668144Y-116413504D01*
X101665742Y-116343675D01*
X101701474Y-116283634D01*
X101763995Y-116252441D01*
X101785850Y-116250500D01*
X102393164Y-116250500D01*
X102460203Y-116270185D01*
X102480845Y-116286819D01*
X103593162Y-117399137D01*
X103625255Y-117454723D01*
X103651097Y-117551162D01*
X103670442Y-117592648D01*
X103681779Y-117636711D01*
X103684903Y-117683045D01*
X103684903Y-117683050D01*
X103685972Y-117687290D01*
X103689230Y-117706462D01*
X103689623Y-117710828D01*
X103715835Y-117805803D01*
X103739903Y-117901319D01*
X103741715Y-117905308D01*
X103748340Y-117923582D01*
X103749504Y-117927800D01*
X103749507Y-117927808D01*
X103792253Y-118016573D01*
X103832993Y-118106264D01*
X103832994Y-118106267D01*
X103835483Y-118109859D01*
X103845269Y-118126664D01*
X103847166Y-118130603D01*
X103847174Y-118130617D01*
X103905078Y-118210314D01*
X103961180Y-118291293D01*
X103964273Y-118294386D01*
X103976907Y-118309177D01*
X103979478Y-118312716D01*
X103979481Y-118312719D01*
X104050679Y-118380791D01*
X105389504Y-119719616D01*
X105394141Y-119724804D01*
X105418354Y-119755166D01*
X105469829Y-119800139D01*
X105472862Y-119802974D01*
X105481333Y-119811445D01*
X105481337Y-119811449D01*
X105481341Y-119811452D01*
X105513679Y-119838449D01*
X105587863Y-119903263D01*
X105591612Y-119905503D01*
X105607486Y-119916765D01*
X105610843Y-119919568D01*
X105696521Y-119968183D01*
X105781098Y-120018715D01*
X105785189Y-120020250D01*
X105802817Y-120028496D01*
X105806617Y-120030653D01*
X105899039Y-120062993D01*
X105899608Y-120063192D01*
X105988792Y-120096664D01*
X105991838Y-120097807D01*
X105994427Y-120098276D01*
X105996136Y-120098587D01*
X106014951Y-120103553D01*
X106019079Y-120104998D01*
X106116388Y-120120409D01*
X106116389Y-120120410D01*
X106213312Y-120138000D01*
X106213315Y-120138000D01*
X106217690Y-120138000D01*
X106237093Y-120139528D01*
X106238800Y-120139797D01*
X106241402Y-120140210D01*
X106339864Y-120138000D01*
X113617275Y-120138000D01*
X113684314Y-120157685D01*
X113730069Y-120210489D01*
X113740013Y-120279647D01*
X113710988Y-120343203D01*
X113652210Y-120380977D01*
X113641463Y-120383618D01*
X113622106Y-120387468D01*
X113488788Y-120411895D01*
X113481661Y-120412778D01*
X113267500Y-120426807D01*
X113177406Y-120432254D01*
X113173664Y-120432367D01*
X104667137Y-120432367D01*
X104665870Y-120431995D01*
X104662232Y-120432234D01*
X104658170Y-120432367D01*
X104640511Y-120432367D01*
X104640321Y-120432385D01*
X104501333Y-120432390D01*
X104316656Y-120454821D01*
X104313242Y-120455140D01*
X104237891Y-120460087D01*
X104219040Y-120466678D01*
X104201050Y-120468863D01*
X104201040Y-120468865D01*
X103985104Y-120522095D01*
X103982363Y-120522705D01*
X103923419Y-120534432D01*
X103911872Y-120540148D01*
X103907339Y-120541265D01*
X103907329Y-120541268D01*
X103651801Y-120638185D01*
X103627603Y-120646399D01*
X103627814Y-120646800D01*
X103624499Y-120648539D01*
X103624496Y-120648541D01*
X103356648Y-120789124D01*
X103356637Y-120789130D01*
X103353439Y-120791064D01*
X103353397Y-120790995D01*
X103352254Y-120791667D01*
X103350467Y-120793389D01*
X103107693Y-120960967D01*
X103092723Y-120974229D01*
X103092015Y-120974774D01*
X103091784Y-120975061D01*
X102908512Y-121137425D01*
X102908512Y-121137426D01*
X102881286Y-121161545D01*
X102881274Y-121161558D01*
X102857150Y-121188788D01*
X102857144Y-121188793D01*
X102694765Y-121372079D01*
X102694556Y-121372209D01*
X102693940Y-121373009D01*
X102680677Y-121387979D01*
X102680671Y-121387987D01*
X102513102Y-121630747D01*
X102511818Y-121631787D01*
X102510703Y-121633685D01*
X102510771Y-121633726D01*
X102508834Y-121636929D01*
X102366507Y-121908096D01*
X102366106Y-121907885D01*
X102357886Y-121932098D01*
X102260971Y-122187620D01*
X102259853Y-122192155D01*
X102254662Y-122201066D01*
X102242413Y-122262635D01*
X102241803Y-122265377D01*
X102188568Y-122481324D01*
X102186382Y-122499322D01*
X102180058Y-122514012D01*
X102174841Y-122593548D01*
X102174521Y-122596966D01*
X102152091Y-122781616D01*
X102152085Y-122932767D01*
X102152085Y-122938437D01*
X102151952Y-122942496D01*
X102151629Y-122947414D01*
X102152085Y-122949877D01*
X102152085Y-129790995D01*
X102151972Y-129794736D01*
X102146169Y-129890740D01*
X102132492Y-130099393D01*
X102131609Y-130106517D01*
X102106982Y-130240936D01*
X102073623Y-130408676D01*
X102072006Y-130415029D01*
X102028908Y-130553358D01*
X101976389Y-130708088D01*
X101974216Y-130713607D01*
X101913330Y-130848903D01*
X101842306Y-130992933D01*
X101839757Y-130997588D01*
X101762776Y-131124935D01*
X101761269Y-131127306D01*
X101673493Y-131258675D01*
X101670747Y-131262468D01*
X101578502Y-131380213D01*
X101576310Y-131382857D01*
X101472545Y-131501180D01*
X101469770Y-131504142D01*
X101363851Y-131610061D01*
X101360890Y-131612835D01*
X101242573Y-131716596D01*
X101239929Y-131718788D01*
X101122189Y-131811031D01*
X101118396Y-131813778D01*
X100987012Y-131901565D01*
X100984641Y-131903073D01*
X100857296Y-131980053D01*
X100852641Y-131982601D01*
X100708623Y-132053621D01*
X100573341Y-132114503D01*
X100567822Y-132116676D01*
X100413054Y-132169209D01*
X100297756Y-132205134D01*
X100274754Y-132212301D01*
X100268406Y-132213917D01*
X100240432Y-132219480D01*
X100100652Y-132247279D01*
X99966245Y-132271904D01*
X99959118Y-132272787D01*
X99748046Y-132286614D01*
X99654744Y-132292254D01*
X99651003Y-132292367D01*
X89799000Y-132292367D01*
X89731961Y-132272682D01*
X89686206Y-132219878D01*
X89675000Y-132168367D01*
X89675000Y-129492882D01*
X94602085Y-129492882D01*
X94612585Y-129595662D01*
X94612586Y-129595663D01*
X94667771Y-129762202D01*
X94667772Y-129762204D01*
X94759871Y-129911518D01*
X94759874Y-129911522D01*
X94883929Y-130035577D01*
X94883933Y-130035580D01*
X95033247Y-130127679D01*
X95033249Y-130127680D01*
X95033251Y-130127681D01*
X95199788Y-130182866D01*
X95302577Y-130193367D01*
X95302582Y-130193367D01*
X97602588Y-130193367D01*
X97602593Y-130193367D01*
X97705382Y-130182866D01*
X97871919Y-130127681D01*
X98021240Y-130035578D01*
X98145296Y-129911522D01*
X98237399Y-129762201D01*
X98292584Y-129595664D01*
X98303085Y-129492875D01*
X98303085Y-127192859D01*
X98292584Y-127090070D01*
X98237399Y-126923533D01*
X98145296Y-126774212D01*
X98021240Y-126650156D01*
X98021236Y-126650153D01*
X97871922Y-126558054D01*
X97871920Y-126558053D01*
X97788650Y-126530460D01*
X97705382Y-126502868D01*
X97705380Y-126502867D01*
X97602600Y-126492367D01*
X97602593Y-126492367D01*
X95302577Y-126492367D01*
X95302569Y-126492367D01*
X95199789Y-126502867D01*
X95199788Y-126502868D01*
X95033249Y-126558053D01*
X95033247Y-126558054D01*
X94883933Y-126650153D01*
X94883929Y-126650156D01*
X94759874Y-126774211D01*
X94759871Y-126774215D01*
X94667772Y-126923529D01*
X94667771Y-126923531D01*
X94612586Y-127090070D01*
X94612585Y-127090071D01*
X94602085Y-127192851D01*
X94602085Y-129492882D01*
X89675000Y-129492882D01*
X89675000Y-118572200D01*
X89694685Y-118505161D01*
X89724684Y-118472938D01*
X89869915Y-118364220D01*
X90057087Y-118177048D01*
X90215716Y-117965144D01*
X90342574Y-117732822D01*
X90435077Y-117484811D01*
X90491343Y-117226159D01*
X90510227Y-116962133D01*
X90491343Y-116698107D01*
X90435077Y-116439455D01*
X90342574Y-116191444D01*
X90333001Y-116173913D01*
X90215719Y-115959127D01*
X90215714Y-115959119D01*
X90057093Y-115747225D01*
X90057077Y-115747207D01*
X89869925Y-115560055D01*
X89869919Y-115560050D01*
X89869915Y-115560046D01*
X89818104Y-115521261D01*
X89724689Y-115451330D01*
X89682818Y-115395396D01*
X89675000Y-115352063D01*
X89675000Y-105105263D01*
X91816477Y-105105263D01*
X91846103Y-105374513D01*
X91846105Y-105374524D01*
X91894621Y-105560100D01*
X91914618Y-105636588D01*
X92020560Y-105885890D01*
X92092688Y-106004075D01*
X92161669Y-106117105D01*
X92161676Y-106117115D01*
X92334943Y-106325319D01*
X92334949Y-106325324D01*
X92536688Y-106506082D01*
X92762600Y-106655544D01*
X93007866Y-106770520D01*
X93007873Y-106770522D01*
X93007875Y-106770523D01*
X93267247Y-106848557D01*
X93267254Y-106848558D01*
X93267259Y-106848560D01*
X93535251Y-106888000D01*
X93535256Y-106888000D01*
X93738326Y-106888000D01*
X93789823Y-106884230D01*
X93940846Y-106873177D01*
X94053448Y-106848093D01*
X94205236Y-106814282D01*
X94205238Y-106814281D01*
X94205243Y-106814280D01*
X94458248Y-106717514D01*
X94694467Y-106584941D01*
X94908867Y-106419388D01*
X95096876Y-106224381D01*
X95254489Y-106004079D01*
X95372836Y-105773893D01*
X95378339Y-105763190D01*
X95378341Y-105763184D01*
X95378346Y-105763175D01*
X95465808Y-105506805D01*
X95515009Y-105240433D01*
X95524902Y-104969735D01*
X95495276Y-104700482D01*
X95426762Y-104438412D01*
X95320820Y-104189110D01*
X95179708Y-103957890D01*
X95090437Y-103850619D01*
X95006436Y-103749680D01*
X95006430Y-103749675D01*
X94804692Y-103568918D01*
X94578782Y-103419457D01*
X94578780Y-103419456D01*
X94333514Y-103304480D01*
X94333509Y-103304478D01*
X94333504Y-103304476D01*
X94074132Y-103226442D01*
X94074118Y-103226439D01*
X93958481Y-103209421D01*
X93806129Y-103187000D01*
X93603059Y-103187000D01*
X93603054Y-103187000D01*
X93400534Y-103201823D01*
X93400521Y-103201825D01*
X93136143Y-103260717D01*
X93136136Y-103260720D01*
X92883129Y-103357487D01*
X92646916Y-103490057D01*
X92432512Y-103655612D01*
X92244512Y-103850609D01*
X92244506Y-103850616D01*
X92086892Y-104070919D01*
X92086889Y-104070924D01*
X91963040Y-104311809D01*
X91963033Y-104311827D01*
X91875574Y-104568185D01*
X91875571Y-104568199D01*
X91851139Y-104700475D01*
X91842203Y-104748856D01*
X91826371Y-104834568D01*
X91826370Y-104834575D01*
X91816477Y-105105263D01*
X89675000Y-105105263D01*
X89675000Y-98086133D01*
X89694685Y-98019094D01*
X89747489Y-97973339D01*
X89799000Y-97962133D01*
X108800500Y-97962133D01*
X108867539Y-97981818D01*
G37*
%TD.AperFunction*%
%TD*%
%TA.AperFunction,Conductor*%
%TO.N,OUT2-1*%
G36*
X99654453Y-56582746D02*
G01*
X99752806Y-56588694D01*
X99958818Y-56602185D01*
X99965926Y-56603066D01*
X100103024Y-56628189D01*
X100268073Y-56661019D01*
X100274409Y-56662632D01*
X100414395Y-56706253D01*
X100442456Y-56715778D01*
X100567465Y-56758213D01*
X100572958Y-56760375D01*
X100709536Y-56821844D01*
X100852267Y-56892232D01*
X100856894Y-56894765D01*
X100985311Y-56972396D01*
X100987633Y-56973872D01*
X101118006Y-57060985D01*
X101121774Y-57063715D01*
X101240414Y-57156663D01*
X101243036Y-57158838D01*
X101360456Y-57261813D01*
X101363418Y-57264587D01*
X101470124Y-57371295D01*
X101472899Y-57374257D01*
X101575865Y-57491668D01*
X101578056Y-57494312D01*
X101670992Y-57612936D01*
X101673739Y-57616729D01*
X101760810Y-57747042D01*
X101762317Y-57749412D01*
X101784535Y-57786164D01*
X101839943Y-57877822D01*
X101842478Y-57882452D01*
X101868626Y-57935475D01*
X101912870Y-58025197D01*
X101974321Y-58161739D01*
X101976494Y-58167258D01*
X102028445Y-58320300D01*
X102072069Y-58460302D01*
X102073686Y-58466655D01*
X102106524Y-58631748D01*
X102131632Y-58768770D01*
X102132516Y-58775896D01*
X102145871Y-58979681D01*
X102151971Y-59080562D01*
X102152084Y-59084305D01*
X102152085Y-65890752D01*
X102152066Y-65890816D01*
X102152066Y-65922475D01*
X102151436Y-65924618D01*
X102151934Y-65932212D01*
X102152066Y-65936262D01*
X102152068Y-66093380D01*
X102174488Y-66278005D01*
X102174807Y-66281427D01*
X102179744Y-66356800D01*
X102186350Y-66375692D01*
X102188534Y-66393672D01*
X102188535Y-66393680D01*
X102241761Y-66609621D01*
X102242371Y-66612362D01*
X102254101Y-66671325D01*
X102259814Y-66682863D01*
X102260930Y-66687390D01*
X102357833Y-66942899D01*
X102366062Y-66967138D01*
X102366464Y-66966928D01*
X102508788Y-67238100D01*
X102510725Y-67241304D01*
X102510656Y-67241345D01*
X102511330Y-67242492D01*
X102513053Y-67244279D01*
X102680631Y-67487053D01*
X102693890Y-67502019D01*
X102694436Y-67502727D01*
X102694723Y-67502959D01*
X102881231Y-67713482D01*
X102907518Y-67736770D01*
X102964762Y-67787484D01*
X103001889Y-67846673D01*
X103001121Y-67916539D01*
X102962703Y-67974898D01*
X102898832Y-68003223D01*
X102890877Y-68004018D01*
X102803590Y-68009903D01*
X102799349Y-68010972D01*
X102780176Y-68014230D01*
X102775808Y-68014623D01*
X102680834Y-68040835D01*
X102585319Y-68064902D01*
X102581322Y-68066718D01*
X102563059Y-68073339D01*
X102558834Y-68074505D01*
X102470064Y-68117253D01*
X102380369Y-68157995D01*
X102376775Y-68160486D01*
X102359971Y-68170271D01*
X102356031Y-68172168D01*
X102356028Y-68172170D01*
X102276323Y-68230078D01*
X102195349Y-68286177D01*
X102195343Y-68286182D01*
X102192239Y-68289286D01*
X102177465Y-68301903D01*
X102173928Y-68304473D01*
X102173921Y-68304478D01*
X102105846Y-68375679D01*
X100018345Y-70463181D01*
X99957022Y-70496666D01*
X99930664Y-70499500D01*
X98112547Y-70499500D01*
X93693845Y-70499500D01*
X93658445Y-70502686D01*
X93525813Y-70514622D01*
X93525807Y-70514623D01*
X93308839Y-70574503D01*
X93308826Y-70574508D01*
X93106033Y-70672167D01*
X93106025Y-70672171D01*
X92923927Y-70804473D01*
X92923925Y-70804474D01*
X92768366Y-70967176D01*
X92644363Y-71155033D01*
X92555899Y-71362004D01*
X92555895Y-71362017D01*
X92505810Y-71581457D01*
X92505808Y-71581468D01*
X92495710Y-71806325D01*
X92495710Y-71806330D01*
X92525925Y-72029387D01*
X92525926Y-72029390D01*
X92595483Y-72243465D01*
X92702146Y-72441678D01*
X92702148Y-72441681D01*
X92842489Y-72617663D01*
X92842491Y-72617664D01*
X92842492Y-72617666D01*
X93012004Y-72765765D01*
X93205236Y-72881215D01*
X93406714Y-72956831D01*
X93415976Y-72960307D01*
X93637450Y-73000500D01*
X93637453Y-73000500D01*
X96714150Y-73000500D01*
X96781189Y-73020185D01*
X96826944Y-73072989D01*
X96836888Y-73142147D01*
X96831856Y-73163504D01*
X96809913Y-73229723D01*
X96799500Y-73331644D01*
X96799500Y-73918355D01*
X96809913Y-74020276D01*
X96864637Y-74185422D01*
X96864642Y-74185433D01*
X96955971Y-74333499D01*
X96955974Y-74333503D01*
X97078996Y-74456525D01*
X97079001Y-74456529D01*
X97104705Y-74472383D01*
X97151431Y-74524330D01*
X97162654Y-74593292D01*
X97157541Y-74616240D01*
X97114327Y-74749240D01*
X97114326Y-74749244D01*
X97094540Y-74937500D01*
X97114326Y-75125756D01*
X97114327Y-75125759D01*
X97172818Y-75305777D01*
X97172821Y-75305784D01*
X97267467Y-75469716D01*
X97394128Y-75610388D01*
X97394129Y-75610388D01*
X97547265Y-75721648D01*
X97547270Y-75721651D01*
X97720192Y-75798642D01*
X97720197Y-75798644D01*
X97905354Y-75838000D01*
X97905355Y-75838000D01*
X98094644Y-75838000D01*
X98094646Y-75838000D01*
X98279803Y-75798644D01*
X98452730Y-75721651D01*
X98605871Y-75610388D01*
X98732533Y-75469716D01*
X98827179Y-75305784D01*
X98885674Y-75125756D01*
X98905460Y-74937500D01*
X98885674Y-74749244D01*
X98842457Y-74616239D01*
X98840463Y-74546399D01*
X98876543Y-74486566D01*
X98895294Y-74472383D01*
X98921001Y-74456527D01*
X98921000Y-74456527D01*
X98921003Y-74456526D01*
X99044026Y-74333503D01*
X99135362Y-74185425D01*
X99135366Y-74185412D01*
X99137616Y-74180590D01*
X99183787Y-74128149D01*
X99250980Y-74108995D01*
X99317862Y-74129208D01*
X99362384Y-74180590D01*
X99364636Y-74185420D01*
X99364638Y-74185425D01*
X99364640Y-74185429D01*
X99364641Y-74185430D01*
X99455971Y-74333499D01*
X99455974Y-74333503D01*
X99578996Y-74456525D01*
X99579001Y-74456529D01*
X99604705Y-74472383D01*
X99651431Y-74524330D01*
X99662654Y-74593292D01*
X99657541Y-74616240D01*
X99614327Y-74749240D01*
X99614326Y-74749244D01*
X99594540Y-74937500D01*
X99614326Y-75125756D01*
X99614327Y-75125759D01*
X99672818Y-75305777D01*
X99672821Y-75305784D01*
X99767467Y-75469716D01*
X99894128Y-75610388D01*
X99894129Y-75610388D01*
X100047265Y-75721648D01*
X100047270Y-75721651D01*
X100220192Y-75798642D01*
X100220197Y-75798644D01*
X100405354Y-75838000D01*
X100405355Y-75838000D01*
X100594644Y-75838000D01*
X100594646Y-75838000D01*
X100779803Y-75798644D01*
X100952730Y-75721651D01*
X101105871Y-75610388D01*
X101232533Y-75469716D01*
X101327179Y-75305784D01*
X101385674Y-75125756D01*
X101405460Y-74937500D01*
X101385674Y-74749244D01*
X101342457Y-74616239D01*
X101340463Y-74546399D01*
X101376543Y-74486566D01*
X101395294Y-74472383D01*
X101421001Y-74456527D01*
X101421000Y-74456527D01*
X101421003Y-74456526D01*
X101544026Y-74333503D01*
X101635362Y-74185425D01*
X101690087Y-74020275D01*
X101700500Y-73918348D01*
X101700500Y-73331652D01*
X101690087Y-73229725D01*
X101635362Y-73064575D01*
X101635358Y-73064569D01*
X101635357Y-73064566D01*
X101544028Y-72916500D01*
X101544025Y-72916496D01*
X101421006Y-72793477D01*
X101421003Y-72793474D01*
X101420999Y-72793471D01*
X101420844Y-72793349D01*
X101420761Y-72793232D01*
X101415896Y-72788367D01*
X101416727Y-72787535D01*
X101380466Y-72736328D01*
X101377326Y-72666529D01*
X101410070Y-72608402D01*
X103481654Y-70536819D01*
X103542978Y-70503334D01*
X103569336Y-70500500D01*
X103651270Y-70500500D01*
X103718309Y-70520185D01*
X103764064Y-70572989D01*
X103774008Y-70642147D01*
X103744983Y-70705703D01*
X103738951Y-70712181D01*
X103732289Y-70718842D01*
X103640187Y-70868163D01*
X103640185Y-70868168D01*
X103621450Y-70924706D01*
X103585001Y-71034703D01*
X103585001Y-71034704D01*
X103585000Y-71034704D01*
X103574500Y-71137483D01*
X103574500Y-72687501D01*
X103574501Y-72687518D01*
X103585000Y-72790296D01*
X103585001Y-72790299D01*
X103640185Y-72956831D01*
X103640186Y-72956834D01*
X103732288Y-73106156D01*
X103856344Y-73230212D01*
X104005666Y-73322314D01*
X104172203Y-73377499D01*
X104274991Y-73388000D01*
X105464547Y-73387999D01*
X105531586Y-73407684D01*
X105552228Y-73424318D01*
X109763181Y-77635271D01*
X109796666Y-77696594D01*
X109799500Y-77722952D01*
X109799500Y-85888445D01*
X109779815Y-85955484D01*
X109767650Y-85971417D01*
X109692466Y-86054917D01*
X109597821Y-86218848D01*
X109597818Y-86218855D01*
X109539327Y-86398873D01*
X109539326Y-86398877D01*
X109519540Y-86587133D01*
X109539326Y-86775389D01*
X109539327Y-86775392D01*
X109597818Y-86955410D01*
X109597820Y-86955414D01*
X109597821Y-86955417D01*
X109631890Y-87014426D01*
X109638072Y-87025134D01*
X109654543Y-87093034D01*
X109638072Y-87149132D01*
X109597820Y-87218851D01*
X109597818Y-87218855D01*
X109542781Y-87388244D01*
X109539326Y-87398877D01*
X109538158Y-87409993D01*
X109523742Y-87547148D01*
X109497157Y-87611763D01*
X109450858Y-87647465D01*
X109297267Y-87715850D01*
X109297265Y-87715851D01*
X109144129Y-87827111D01*
X109017466Y-87967785D01*
X108922821Y-88131715D01*
X108922818Y-88131722D01*
X108864327Y-88311740D01*
X108864326Y-88311744D01*
X108844540Y-88500000D01*
X108864326Y-88688256D01*
X108864327Y-88688259D01*
X108922818Y-88868277D01*
X108922821Y-88868284D01*
X109017467Y-89032216D01*
X109144128Y-89172887D01*
X109144129Y-89172888D01*
X109297265Y-89284148D01*
X109297270Y-89284151D01*
X109470192Y-89361142D01*
X109470197Y-89361144D01*
X109655354Y-89400500D01*
X109714548Y-89400500D01*
X109781587Y-89420185D01*
X109802229Y-89436819D01*
X110799843Y-90434433D01*
X110833328Y-90495756D01*
X110828344Y-90565448D01*
X110786472Y-90621381D01*
X110762599Y-90635393D01*
X110722267Y-90653350D01*
X110722265Y-90653351D01*
X110569129Y-90764611D01*
X110442466Y-90905285D01*
X110347821Y-91069215D01*
X110347818Y-91069222D01*
X110289325Y-91249245D01*
X110281249Y-91326094D01*
X110254665Y-91390709D01*
X110197368Y-91430694D01*
X110157928Y-91437133D01*
X89799000Y-91437133D01*
X89731961Y-91417448D01*
X89686206Y-91364644D01*
X89675000Y-91313133D01*
X89675000Y-83905263D01*
X91816495Y-83905263D01*
X91846121Y-84174513D01*
X91846123Y-84174524D01*
X91914634Y-84436582D01*
X91914636Y-84436588D01*
X92020578Y-84685890D01*
X92092706Y-84804075D01*
X92161687Y-84917105D01*
X92161694Y-84917115D01*
X92334961Y-85125319D01*
X92334967Y-85125324D01*
X92536706Y-85306082D01*
X92762618Y-85455544D01*
X93007884Y-85570520D01*
X93007891Y-85570522D01*
X93007893Y-85570523D01*
X93267265Y-85648557D01*
X93267272Y-85648558D01*
X93267277Y-85648560D01*
X93535269Y-85688000D01*
X93535274Y-85688000D01*
X93738344Y-85688000D01*
X93789841Y-85684230D01*
X93940864Y-85673177D01*
X94053466Y-85648093D01*
X94205254Y-85614282D01*
X94205256Y-85614281D01*
X94205261Y-85614280D01*
X94458266Y-85517514D01*
X94694485Y-85384941D01*
X94908885Y-85219388D01*
X95096894Y-85024381D01*
X95254507Y-84804079D01*
X95328495Y-84660169D01*
X95378357Y-84563190D01*
X95378359Y-84563184D01*
X95378364Y-84563175D01*
X95465826Y-84306805D01*
X95515027Y-84040433D01*
X95524920Y-83769735D01*
X95495294Y-83500482D01*
X95426780Y-83238412D01*
X95320838Y-82989110D01*
X95179726Y-82757890D01*
X95090455Y-82650619D01*
X95006454Y-82549680D01*
X95006448Y-82549675D01*
X94804710Y-82368918D01*
X94578800Y-82219457D01*
X94578798Y-82219456D01*
X94333532Y-82104480D01*
X94333527Y-82104478D01*
X94333522Y-82104476D01*
X94074150Y-82026442D01*
X94074136Y-82026439D01*
X93958499Y-82009421D01*
X93806147Y-81987000D01*
X93603077Y-81987000D01*
X93603072Y-81987000D01*
X93400552Y-82001823D01*
X93400539Y-82001825D01*
X93136161Y-82060717D01*
X93136154Y-82060720D01*
X92883147Y-82157487D01*
X92646934Y-82290057D01*
X92432530Y-82455612D01*
X92244530Y-82650609D01*
X92244524Y-82650616D01*
X92086910Y-82870919D01*
X92086907Y-82870924D01*
X91963058Y-83111809D01*
X91963051Y-83111827D01*
X91875592Y-83368185D01*
X91875589Y-83368199D01*
X91826389Y-83634568D01*
X91826388Y-83634575D01*
X91816495Y-83905263D01*
X89675000Y-83905263D01*
X89675000Y-65642148D01*
X94602085Y-65642148D01*
X94612585Y-65744928D01*
X94612586Y-65744929D01*
X94667771Y-65911468D01*
X94667772Y-65911470D01*
X94759871Y-66060784D01*
X94759874Y-66060788D01*
X94883929Y-66184843D01*
X94883933Y-66184846D01*
X95033247Y-66276945D01*
X95033249Y-66276946D01*
X95033251Y-66276947D01*
X95199788Y-66332132D01*
X95302577Y-66342633D01*
X95302582Y-66342633D01*
X97602588Y-66342633D01*
X97602593Y-66342633D01*
X97705382Y-66332132D01*
X97871919Y-66276947D01*
X98021240Y-66184844D01*
X98145296Y-66060788D01*
X98237399Y-65911467D01*
X98292584Y-65744930D01*
X98303085Y-65642141D01*
X98303085Y-63342125D01*
X98292584Y-63239336D01*
X98237399Y-63072799D01*
X98145296Y-62923478D01*
X98021240Y-62799422D01*
X98021236Y-62799419D01*
X97871922Y-62707320D01*
X97871920Y-62707319D01*
X97788650Y-62679726D01*
X97705382Y-62652134D01*
X97705380Y-62652133D01*
X97602600Y-62641633D01*
X97602593Y-62641633D01*
X95302577Y-62641633D01*
X95302569Y-62641633D01*
X95199789Y-62652133D01*
X95199788Y-62652134D01*
X95033249Y-62707319D01*
X95033247Y-62707320D01*
X94883933Y-62799419D01*
X94883929Y-62799422D01*
X94759874Y-62923477D01*
X94759871Y-62923481D01*
X94667772Y-63072795D01*
X94667771Y-63072797D01*
X94612586Y-63239336D01*
X94612585Y-63239337D01*
X94602085Y-63342117D01*
X94602085Y-65642148D01*
X89675000Y-65642148D01*
X89675000Y-56706633D01*
X89694685Y-56639594D01*
X89747489Y-56593839D01*
X89799000Y-56582633D01*
X99650709Y-56582633D01*
X99654453Y-56582746D01*
G37*
%TD.AperFunction*%
%TD*%
%TA.AperFunction,Conductor*%
%TO.N,GND*%
G36*
X89112539Y-56602318D02*
G01*
X89158294Y-56655122D01*
X89169500Y-56706632D01*
X89169500Y-56706633D01*
X89169500Y-65616393D01*
X89169500Y-83886754D01*
X89169500Y-91313133D01*
X89169501Y-91313142D01*
X89181052Y-91420583D01*
X89181054Y-91420595D01*
X89192260Y-91472105D01*
X89226383Y-91574630D01*
X89226386Y-91574636D01*
X89304171Y-91695670D01*
X89304179Y-91695681D01*
X89349923Y-91748473D01*
X89349926Y-91748476D01*
X89349930Y-91748480D01*
X89458664Y-91842700D01*
X89589541Y-91902471D01*
X89634357Y-91915630D01*
X89656575Y-91922155D01*
X89656580Y-91922156D01*
X89656584Y-91922157D01*
X89799000Y-91942633D01*
X109485914Y-91942633D01*
X109552953Y-91962318D01*
X109598708Y-92015122D01*
X109608652Y-92084280D01*
X109579627Y-92147836D01*
X109573595Y-92154314D01*
X109166208Y-92561699D01*
X109153951Y-92571520D01*
X109154134Y-92571741D01*
X109148123Y-92576713D01*
X109100772Y-92627136D01*
X109079889Y-92648019D01*
X109079877Y-92648032D01*
X109075621Y-92653517D01*
X109071837Y-92657947D01*
X109039937Y-92691918D01*
X109039936Y-92691920D01*
X109030284Y-92709476D01*
X109019610Y-92725726D01*
X109007329Y-92741561D01*
X109007324Y-92741568D01*
X108988815Y-92784338D01*
X108986245Y-92789584D01*
X108963803Y-92830406D01*
X108958822Y-92849807D01*
X108952521Y-92868210D01*
X108944562Y-92886602D01*
X108944561Y-92886605D01*
X108937271Y-92932627D01*
X108936087Y-92938346D01*
X108924501Y-92983472D01*
X108924500Y-92983482D01*
X108924500Y-93003516D01*
X108922973Y-93022915D01*
X108919840Y-93042694D01*
X108919840Y-93042695D01*
X108924225Y-93089083D01*
X108924500Y-93094921D01*
X108924500Y-97332633D01*
X108904815Y-97399672D01*
X108852011Y-97445427D01*
X108800500Y-97456633D01*
X89799000Y-97456633D01*
X89798991Y-97456633D01*
X89798990Y-97456634D01*
X89691549Y-97468185D01*
X89691537Y-97468187D01*
X89640027Y-97479393D01*
X89537502Y-97513516D01*
X89537496Y-97513519D01*
X89416462Y-97591304D01*
X89416451Y-97591312D01*
X89363659Y-97637056D01*
X89269433Y-97745797D01*
X89269430Y-97745801D01*
X89209664Y-97876667D01*
X89189978Y-97943708D01*
X89189976Y-97943713D01*
X89169500Y-98086134D01*
X89169500Y-115352062D01*
X89177531Y-115441811D01*
X89185349Y-115485144D01*
X89185350Y-115485148D01*
X89192148Y-115509928D01*
X89209187Y-115572043D01*
X89278144Y-115698332D01*
X89320008Y-115754256D01*
X89320012Y-115754260D01*
X89320013Y-115754262D01*
X89320014Y-115754263D01*
X89421752Y-115856002D01*
X89506980Y-115919803D01*
X89530934Y-115937735D01*
X89544305Y-115949321D01*
X89667817Y-116072834D01*
X89679402Y-116086205D01*
X89784054Y-116226005D01*
X89793619Y-116240887D01*
X89877331Y-116394191D01*
X89884681Y-116410286D01*
X89945714Y-116573924D01*
X89950698Y-116590899D01*
X89987824Y-116761564D01*
X89990342Y-116779076D01*
X90002802Y-116953286D01*
X90002802Y-116970978D01*
X89990342Y-117145188D01*
X89987824Y-117162700D01*
X89950698Y-117333365D01*
X89945714Y-117350340D01*
X89884679Y-117513985D01*
X89877329Y-117530079D01*
X89793628Y-117683364D01*
X89784063Y-117698247D01*
X89679389Y-117838075D01*
X89667803Y-117851446D01*
X89544313Y-117974936D01*
X89530944Y-117986521D01*
X89421745Y-118068267D01*
X89354706Y-118128488D01*
X89324703Y-118160715D01*
X89269435Y-118231861D01*
X89269434Y-118231861D01*
X89209663Y-118362737D01*
X89189978Y-118429775D01*
X89189976Y-118429780D01*
X89169500Y-118572201D01*
X89169500Y-132168367D01*
X89149815Y-132235406D01*
X89097011Y-132281161D01*
X89045500Y-132292367D01*
X88158482Y-132292367D01*
X88155623Y-132292300D01*
X88096166Y-132289528D01*
X88030771Y-132286479D01*
X87777162Y-132273651D01*
X87771659Y-132273126D01*
X87601830Y-132249247D01*
X87393051Y-132217410D01*
X87388098Y-132216447D01*
X87275443Y-132189738D01*
X87211910Y-132174675D01*
X87016205Y-132124248D01*
X87011824Y-132122945D01*
X86836487Y-132063692D01*
X86693052Y-132010840D01*
X86650123Y-131995021D01*
X86646340Y-131993484D01*
X86475352Y-131917333D01*
X86298222Y-131830915D01*
X86295027Y-131829240D01*
X86130872Y-131736969D01*
X86100473Y-131718131D01*
X85963724Y-131633392D01*
X85961130Y-131631692D01*
X85807144Y-131525167D01*
X85804619Y-131523325D01*
X85648759Y-131403453D01*
X85504541Y-131282401D01*
X85501846Y-131280003D01*
X85358493Y-131144711D01*
X85226941Y-131011574D01*
X85224165Y-131008572D01*
X85094187Y-130858409D01*
X84976890Y-130715215D01*
X84974143Y-130711598D01*
X84857911Y-130546214D01*
X84756697Y-130396092D01*
X84754067Y-130391827D01*
X84650646Y-130207692D01*
X84613522Y-130139754D01*
X84568401Y-130057181D01*
X84565967Y-130052212D01*
X84462429Y-129814568D01*
X84447834Y-129780712D01*
X84415384Y-129705436D01*
X84414106Y-129702226D01*
X83777579Y-127962073D01*
X83744829Y-127872465D01*
X83429709Y-126956028D01*
X83321746Y-126642047D01*
X83103195Y-126004772D01*
X82739250Y-124875247D01*
X82498581Y-124124837D01*
X82170884Y-123035556D01*
X81931181Y-122233265D01*
X81632086Y-121163975D01*
X81401270Y-120330975D01*
X81326802Y-120043253D01*
X81127298Y-119272431D01*
X80909013Y-118418571D01*
X80836043Y-118112148D01*
X82844500Y-118112148D01*
X82855000Y-118214928D01*
X82855001Y-118214930D01*
X82876633Y-118280210D01*
X82910186Y-118381468D01*
X82910187Y-118381470D01*
X83002286Y-118530784D01*
X83002289Y-118530788D01*
X83126344Y-118654843D01*
X83126348Y-118654846D01*
X83275662Y-118746945D01*
X83275664Y-118746946D01*
X83275666Y-118746947D01*
X83442203Y-118802132D01*
X83544992Y-118812633D01*
X83544997Y-118812633D01*
X85845003Y-118812633D01*
X85845008Y-118812633D01*
X85947797Y-118802132D01*
X86114334Y-118746947D01*
X86263655Y-118654844D01*
X86387711Y-118530788D01*
X86479814Y-118381467D01*
X86534999Y-118214930D01*
X86545500Y-118112141D01*
X86545500Y-115812125D01*
X86534999Y-115709336D01*
X86479814Y-115542799D01*
X86468381Y-115524264D01*
X86387713Y-115393481D01*
X86387710Y-115393477D01*
X86263655Y-115269422D01*
X86263651Y-115269419D01*
X86114337Y-115177320D01*
X86114335Y-115177319D01*
X86031065Y-115149726D01*
X85947797Y-115122134D01*
X85947795Y-115122133D01*
X85845015Y-115111633D01*
X85845008Y-115111633D01*
X83544992Y-115111633D01*
X83544984Y-115111633D01*
X83442204Y-115122133D01*
X83442203Y-115122134D01*
X83275664Y-115177319D01*
X83275662Y-115177320D01*
X83126348Y-115269419D01*
X83126344Y-115269422D01*
X83002289Y-115393477D01*
X83002286Y-115393481D01*
X82910187Y-115542795D01*
X82910186Y-115542797D01*
X82855001Y-115709336D01*
X82855000Y-115709337D01*
X82844500Y-115812117D01*
X82844500Y-118112148D01*
X80836043Y-118112148D01*
X80658435Y-117366315D01*
X80650711Y-117333365D01*
X80454616Y-116496853D01*
X80226368Y-115448112D01*
X80038277Y-114566685D01*
X79831705Y-113519790D01*
X79660102Y-112628554D01*
X79474798Y-111582547D01*
X79320287Y-110683477D01*
X79155964Y-109637682D01*
X79018944Y-108732121D01*
X78875425Y-107686237D01*
X78756186Y-106775229D01*
X78633333Y-105729011D01*
X78532113Y-104813580D01*
X78516060Y-104649301D01*
X78429849Y-103767052D01*
X78346815Y-102848001D01*
X78265062Y-101801020D01*
X78200354Y-100879164D01*
X78139079Y-99831925D01*
X78092790Y-98907976D01*
X78051953Y-97860389D01*
X78045244Y-97637056D01*
X78024156Y-96935171D01*
X78003741Y-95887312D01*
X77994472Y-94961417D01*
X77994472Y-94437505D01*
X77994472Y-93913567D01*
X78003741Y-92987762D01*
X78024160Y-91939817D01*
X78027079Y-91842702D01*
X78051953Y-91014726D01*
X78092794Y-89967078D01*
X78139082Y-89043146D01*
X78200365Y-87995799D01*
X78265073Y-87073979D01*
X78346827Y-86026989D01*
X78429862Y-85107944D01*
X78532133Y-84061354D01*
X78633348Y-83145992D01*
X78756206Y-82099732D01*
X78875445Y-81188748D01*
X79018961Y-80142897D01*
X79155992Y-79237270D01*
X79320307Y-78191536D01*
X79474828Y-77292415D01*
X79660141Y-76246367D01*
X79831705Y-75355339D01*
X80038291Y-74308380D01*
X80226413Y-73426812D01*
X80251243Y-73312725D01*
X80454656Y-72378097D01*
X80658434Y-71508819D01*
X80909048Y-70456417D01*
X80915332Y-70431841D01*
X81127272Y-69602800D01*
X81401303Y-68544031D01*
X81632078Y-67711184D01*
X81931235Y-66641677D01*
X82170819Y-65839789D01*
X82498615Y-64750181D01*
X82739350Y-63999575D01*
X82814146Y-63767442D01*
X83103239Y-62870226D01*
X83321464Y-62233904D01*
X83744900Y-61002463D01*
X83773820Y-60923329D01*
X84414271Y-59172456D01*
X84415529Y-59169297D01*
X84465047Y-59054401D01*
X84565902Y-58822889D01*
X84568302Y-58817988D01*
X84651248Y-58666172D01*
X84753954Y-58483280D01*
X84756573Y-58479032D01*
X84858337Y-58328076D01*
X84973997Y-58163489D01*
X84976711Y-58159914D01*
X85094480Y-58016132D01*
X85100215Y-58009505D01*
X85223979Y-57866507D01*
X85226741Y-57863522D01*
X85358743Y-57729921D01*
X85501643Y-57595049D01*
X85504247Y-57592730D01*
X85648985Y-57471238D01*
X85804373Y-57351725D01*
X85806780Y-57349968D01*
X85961386Y-57243013D01*
X85963875Y-57241383D01*
X86130519Y-57138118D01*
X86295233Y-57045533D01*
X86298354Y-57043896D01*
X86474925Y-56957755D01*
X86646556Y-56881321D01*
X86650226Y-56879829D01*
X86835919Y-56811410D01*
X87012017Y-56751906D01*
X87016341Y-56750620D01*
X87211105Y-56700443D01*
X87388270Y-56658448D01*
X87393223Y-56657485D01*
X87600459Y-56625894D01*
X87771829Y-56601809D01*
X87777295Y-56601288D01*
X88032020Y-56588439D01*
X88149296Y-56582979D01*
X88155295Y-56582700D01*
X88158178Y-56582633D01*
X89045500Y-56582633D01*
X89112539Y-56602318D01*
G37*
%TD.AperFunction*%
%TA.AperFunction,Conductor*%
G36*
X103558774Y-68192021D02*
G01*
X103627790Y-68228244D01*
X103627580Y-68228643D01*
X103651764Y-68236852D01*
X103907319Y-68333772D01*
X103911838Y-68334886D01*
X103920766Y-68340082D01*
X103982380Y-68352339D01*
X103985113Y-68352946D01*
X104201033Y-68406167D01*
X104219015Y-68408350D01*
X104233712Y-68414676D01*
X104313260Y-68419890D01*
X104316651Y-68420206D01*
X104501332Y-68442632D01*
X104627819Y-68442632D01*
X104627823Y-68442633D01*
X104652486Y-68442633D01*
X104652585Y-68442633D01*
X104653085Y-68442633D01*
X104658185Y-68442633D01*
X104662242Y-68442766D01*
X104667188Y-68443090D01*
X104669667Y-68442633D01*
X113026756Y-68442633D01*
X113093795Y-68462318D01*
X113139550Y-68515122D01*
X113150439Y-68575477D01*
X113147028Y-68623184D01*
X113146187Y-68634943D01*
X113146187Y-68634944D01*
X113156450Y-68778446D01*
X113156451Y-68778454D01*
X113206725Y-68913248D01*
X113206728Y-68913254D01*
X113238429Y-68971313D01*
X113238693Y-68971874D01*
X113240216Y-68974587D01*
X113326434Y-69089761D01*
X113326450Y-69089779D01*
X115020885Y-70784213D01*
X115035825Y-70798496D01*
X115037199Y-70799810D01*
X115106362Y-70855194D01*
X115106363Y-70855195D01*
X115106364Y-70855196D01*
X115142400Y-70879192D01*
X115142401Y-70879192D01*
X115142407Y-70879196D01*
X115193054Y-70906845D01*
X115220177Y-70921652D01*
X115220178Y-70921652D01*
X115220183Y-70921655D01*
X115358883Y-70959913D01*
X115428196Y-70968717D01*
X115428198Y-70968717D01*
X115548460Y-70966737D01*
X115615813Y-70985315D01*
X115662431Y-71037359D01*
X115674500Y-71090720D01*
X115674500Y-117930995D01*
X115674387Y-117934736D01*
X115668637Y-118029863D01*
X115654884Y-118239519D01*
X115654001Y-118246640D01*
X115629578Y-118379950D01*
X115595995Y-118548819D01*
X115594378Y-118555172D01*
X115551516Y-118692744D01*
X115533120Y-118746945D01*
X115498738Y-118848241D01*
X115496565Y-118853760D01*
X115435913Y-118988535D01*
X115364642Y-119133067D01*
X115362093Y-119137723D01*
X115285364Y-119264652D01*
X115283857Y-119267023D01*
X115195783Y-119398841D01*
X115193036Y-119402633D01*
X115101085Y-119520004D01*
X115098893Y-119522648D01*
X114994797Y-119641349D01*
X114992023Y-119644311D01*
X114886432Y-119749903D01*
X114883470Y-119752678D01*
X114764778Y-119856768D01*
X114762135Y-119858960D01*
X114644758Y-119950919D01*
X114640965Y-119953666D01*
X114509143Y-120041745D01*
X114506772Y-120043253D01*
X114386089Y-120116207D01*
X114318535Y-120134043D01*
X114252061Y-120112525D01*
X114207774Y-120058484D01*
X114202963Y-120045026D01*
X114189888Y-120000496D01*
X114112100Y-119879457D01*
X114112095Y-119879451D01*
X114066351Y-119826659D01*
X114066347Y-119826656D01*
X114066345Y-119826653D01*
X113957611Y-119732433D01*
X113957608Y-119732431D01*
X113957606Y-119732430D01*
X113826740Y-119672664D01*
X113826735Y-119672662D01*
X113826734Y-119672662D01*
X113804133Y-119666025D01*
X113759700Y-119652978D01*
X113759694Y-119652976D01*
X113674241Y-119640690D01*
X113617275Y-119632500D01*
X106334192Y-119632500D01*
X106334191Y-119632500D01*
X106279664Y-119633723D01*
X106254743Y-119631761D01*
X106201069Y-119622021D01*
X106147173Y-119613484D01*
X106123001Y-119607104D01*
X106071919Y-119587933D01*
X106020411Y-119569909D01*
X105997767Y-119559316D01*
X105950921Y-119531327D01*
X105903469Y-119504401D01*
X105883080Y-119489934D01*
X105841995Y-119454039D01*
X105823045Y-119438219D01*
X105820441Y-119435919D01*
X105808813Y-119425050D01*
X105808812Y-119425049D01*
X105792342Y-119410659D01*
X105779201Y-119397294D01*
X105775767Y-119393228D01*
X105761681Y-119377469D01*
X105751953Y-119367179D01*
X104404109Y-118019337D01*
X104364678Y-117981636D01*
X104348443Y-117962627D01*
X104317370Y-117917777D01*
X104285298Y-117873634D01*
X104272716Y-117852028D01*
X104269602Y-117845173D01*
X104250155Y-117802357D01*
X104226477Y-117753189D01*
X104217955Y-117729683D01*
X104204628Y-117676788D01*
X104190083Y-117624091D01*
X104186410Y-117605131D01*
X104186135Y-117602722D01*
X104186134Y-117602720D01*
X104186134Y-117602709D01*
X104171335Y-117510753D01*
X104159998Y-117466690D01*
X104128582Y-117379017D01*
X104128578Y-117379010D01*
X104128334Y-117378327D01*
X104126820Y-117373487D01*
X104113529Y-117323884D01*
X104063029Y-117201971D01*
X104030936Y-117146385D01*
X104030931Y-117146379D01*
X104030929Y-117146375D01*
X103950606Y-117041696D01*
X103950600Y-117041689D01*
X102828707Y-115919796D01*
X102828706Y-115919796D01*
X102826891Y-115918166D01*
X102808570Y-115901709D01*
X102808571Y-115901709D01*
X102777387Y-115876580D01*
X102733500Y-115844933D01*
X102602626Y-115785163D01*
X102535589Y-115765478D01*
X102535583Y-115765476D01*
X102450130Y-115753190D01*
X102393164Y-115745000D01*
X101774654Y-115745000D01*
X101752282Y-115745991D01*
X101719276Y-115748923D01*
X101674895Y-115754855D01*
X101538318Y-115800113D01*
X101475800Y-115831304D01*
X101350218Y-115918252D01*
X101349360Y-115917013D01*
X101295572Y-115943838D01*
X101234732Y-115939482D01*
X101107776Y-115897413D01*
X101005855Y-115887000D01*
X101005848Y-115887000D01*
X99994152Y-115887000D01*
X99994144Y-115887000D01*
X99892221Y-115897413D01*
X99758647Y-115941675D01*
X99688819Y-115944077D01*
X99638441Y-115917681D01*
X99554489Y-115844935D01*
X99554481Y-115844930D01*
X99423615Y-115785164D01*
X99423610Y-115785162D01*
X99423609Y-115785162D01*
X99401008Y-115778525D01*
X99356575Y-115765478D01*
X99356569Y-115765476D01*
X99271116Y-115753190D01*
X99214150Y-115745000D01*
X99214148Y-115745000D01*
X95444109Y-115745000D01*
X95421967Y-115743007D01*
X95311985Y-115723047D01*
X95290557Y-115717133D01*
X95185897Y-115677854D01*
X95165875Y-115668212D01*
X95069904Y-115610873D01*
X95051924Y-115597809D01*
X94967745Y-115524264D01*
X94952382Y-115508195D01*
X94882689Y-115420802D01*
X94870443Y-115402251D01*
X94817470Y-115303813D01*
X94808732Y-115283369D01*
X94774193Y-115177065D01*
X94769246Y-115155394D01*
X94754238Y-115044605D01*
X94753242Y-115022413D01*
X94758256Y-114910740D01*
X94761238Y-114888722D01*
X94786116Y-114779725D01*
X94792984Y-114758590D01*
X94836917Y-114655802D01*
X94847452Y-114636225D01*
X94909033Y-114542934D01*
X94922888Y-114525561D01*
X94963508Y-114483076D01*
X95000145Y-114444755D01*
X95016880Y-114430134D01*
X95107324Y-114364423D01*
X95126388Y-114353032D01*
X95227120Y-114304523D01*
X95247907Y-114296721D01*
X95355681Y-114266976D01*
X95377544Y-114263009D01*
X95425498Y-114258693D01*
X95463771Y-114255250D01*
X95469331Y-114255000D01*
X102954152Y-114255000D01*
X103008691Y-114253775D01*
X103033615Y-114255736D01*
X103087293Y-114265478D01*
X103141186Y-114274013D01*
X103165352Y-114280391D01*
X103216444Y-114299567D01*
X103267955Y-114317591D01*
X103290597Y-114328184D01*
X103337443Y-114356173D01*
X103384884Y-114383091D01*
X103405273Y-114397557D01*
X103439413Y-114427385D01*
X103446365Y-114433459D01*
X103465325Y-114449288D01*
X103467927Y-114451587D01*
X103479547Y-114462449D01*
X103496017Y-114476838D01*
X103509163Y-114490207D01*
X103512568Y-114494239D01*
X103521391Y-114504113D01*
X103526655Y-114510004D01*
X103536398Y-114520309D01*
X104879191Y-115863101D01*
X104879200Y-115863109D01*
X104983876Y-115943431D01*
X104983881Y-115943435D01*
X104994076Y-115949321D01*
X105039467Y-115975528D01*
X105161387Y-116026030D01*
X105204627Y-116037615D01*
X105224935Y-116045008D01*
X105284609Y-116072834D01*
X105339286Y-116098330D01*
X105357992Y-116109129D01*
X105461344Y-116181497D01*
X105477896Y-116195386D01*
X105567106Y-116284594D01*
X105581001Y-116301153D01*
X105666820Y-116423717D01*
X105666820Y-116423716D01*
X105682857Y-116444277D01*
X105682856Y-116444276D01*
X105708110Y-116473420D01*
X105708112Y-116473422D01*
X105744223Y-116510995D01*
X105862083Y-116593521D01*
X105923099Y-116624366D01*
X105924435Y-116625042D01*
X105924442Y-116625045D01*
X105990841Y-116647438D01*
X106048075Y-116687514D01*
X106074556Y-116752171D01*
X106074745Y-116775722D01*
X106074500Y-116778523D01*
X106074500Y-117146466D01*
X106089936Y-117322903D01*
X106089938Y-117322913D01*
X106151094Y-117551155D01*
X106151096Y-117551159D01*
X106151097Y-117551163D01*
X106175140Y-117602722D01*
X106250964Y-117765328D01*
X106250965Y-117765330D01*
X106386505Y-117958902D01*
X106495868Y-118068264D01*
X106553599Y-118125995D01*
X106650384Y-118193765D01*
X106747165Y-118261532D01*
X106747167Y-118261533D01*
X106747170Y-118261535D01*
X106961337Y-118361403D01*
X106961343Y-118361404D01*
X106961344Y-118361405D01*
X107002050Y-118372312D01*
X107189592Y-118422563D01*
X107366034Y-118438000D01*
X107424999Y-118443159D01*
X107425000Y-118443159D01*
X107425001Y-118443159D01*
X107483966Y-118438000D01*
X107660408Y-118422563D01*
X107888663Y-118361403D01*
X108102829Y-118261535D01*
X108296401Y-118125995D01*
X108463495Y-117958901D01*
X108573426Y-117801902D01*
X108628000Y-117758279D01*
X108697499Y-117751085D01*
X108759853Y-117782607D01*
X108776574Y-117801903D01*
X108811672Y-117852028D01*
X108880478Y-117950294D01*
X108886508Y-117958905D01*
X108995868Y-118068264D01*
X109053599Y-118125995D01*
X109150384Y-118193765D01*
X109247165Y-118261532D01*
X109247167Y-118261533D01*
X109247170Y-118261535D01*
X109461337Y-118361403D01*
X109461343Y-118361404D01*
X109461344Y-118361405D01*
X109502050Y-118372312D01*
X109689592Y-118422563D01*
X109866034Y-118438000D01*
X109924999Y-118443159D01*
X109925000Y-118443159D01*
X109925001Y-118443159D01*
X109983966Y-118438000D01*
X110160408Y-118422563D01*
X110388663Y-118361403D01*
X110602829Y-118261535D01*
X110796401Y-118125995D01*
X110943602Y-117978793D01*
X111004924Y-117945310D01*
X111074615Y-117950294D01*
X111130549Y-117992165D01*
X111136821Y-118001379D01*
X111140186Y-118006834D01*
X111232288Y-118156156D01*
X111356344Y-118280212D01*
X111505666Y-118372314D01*
X111672203Y-118427499D01*
X111774991Y-118438000D01*
X113075008Y-118437999D01*
X113177797Y-118427499D01*
X113344334Y-118372314D01*
X113493656Y-118280212D01*
X113617712Y-118156156D01*
X113709814Y-118006834D01*
X113764999Y-117840297D01*
X113775500Y-117737509D01*
X113775499Y-116187492D01*
X113764999Y-116084703D01*
X113709814Y-115918166D01*
X113709103Y-115917013D01*
X113657797Y-115833832D01*
X113639357Y-115766440D01*
X113654302Y-115717249D01*
X113651383Y-115715916D01*
X113714835Y-115576977D01*
X113714838Y-115576971D01*
X113734523Y-115509932D01*
X113734524Y-115509928D01*
X113755000Y-115367512D01*
X113755000Y-105240760D01*
X113754666Y-105227768D01*
X113753677Y-105208551D01*
X113751676Y-105182651D01*
X113716691Y-105043089D01*
X113690230Y-104978424D01*
X113617344Y-104854372D01*
X113617342Y-104854370D01*
X113512462Y-104755880D01*
X113512459Y-104755878D01*
X113455243Y-104715788D01*
X113455239Y-104715785D01*
X113455232Y-104715780D01*
X113326847Y-104650828D01*
X113326846Y-104650827D01*
X113326841Y-104650825D01*
X113322327Y-104649301D01*
X113265109Y-104609202D01*
X113238654Y-104544535D01*
X113238000Y-104531819D01*
X113238000Y-103767207D01*
X113238000Y-101960371D01*
X113239724Y-101944770D01*
X113239438Y-101944743D01*
X113240171Y-101936976D01*
X113240172Y-101936973D01*
X113237999Y-101867843D01*
X113238000Y-101838290D01*
X113237129Y-101831398D01*
X113236672Y-101825586D01*
X113235209Y-101779012D01*
X113229622Y-101759784D01*
X113225674Y-101740724D01*
X113223163Y-101720844D01*
X113206012Y-101677527D01*
X113204119Y-101671998D01*
X113191118Y-101627249D01*
X113191116Y-101627246D01*
X113180923Y-101610011D01*
X113172361Y-101592534D01*
X113164987Y-101573910D01*
X113164986Y-101573908D01*
X113137579Y-101536185D01*
X113134388Y-101531326D01*
X113110672Y-101491223D01*
X113110665Y-101491214D01*
X113096505Y-101477054D01*
X113083868Y-101462258D01*
X113074181Y-101448925D01*
X113050701Y-101383119D01*
X113050499Y-101376040D01*
X113050499Y-87624213D01*
X113050499Y-73312721D01*
X113070184Y-73245686D01*
X113103370Y-73211155D01*
X113296401Y-73075995D01*
X113463495Y-72908901D01*
X113599035Y-72715329D01*
X113698903Y-72501163D01*
X113760063Y-72272908D01*
X113775500Y-72096466D01*
X113775500Y-71728534D01*
X113760063Y-71552092D01*
X113698903Y-71323837D01*
X113599035Y-71109671D01*
X113597774Y-71107869D01*
X113463494Y-70916097D01*
X113296402Y-70749006D01*
X113296395Y-70749001D01*
X113102834Y-70613467D01*
X113102830Y-70613465D01*
X113102830Y-70613464D01*
X112888663Y-70513597D01*
X112888659Y-70513596D01*
X112888655Y-70513594D01*
X112660413Y-70452438D01*
X112660403Y-70452436D01*
X112425001Y-70431841D01*
X112424999Y-70431841D01*
X112366022Y-70437001D01*
X112217161Y-70450024D01*
X112148662Y-70436259D01*
X112098479Y-70387643D01*
X112090641Y-70369137D01*
X112087837Y-70362997D01*
X112010051Y-70241962D01*
X112010048Y-70241957D01*
X111993006Y-70222289D01*
X111964299Y-70189159D01*
X111964295Y-70189156D01*
X111964293Y-70189153D01*
X111855559Y-70094933D01*
X111855556Y-70094931D01*
X111855554Y-70094930D01*
X111724688Y-70035164D01*
X111724683Y-70035162D01*
X111724682Y-70035162D01*
X111697519Y-70027186D01*
X111657648Y-70015478D01*
X111657642Y-70015476D01*
X111567714Y-70002547D01*
X111515223Y-69995000D01*
X110819232Y-69995000D01*
X110819229Y-69995000D01*
X110788215Y-69996909D01*
X110788211Y-69996909D01*
X110788202Y-69996910D01*
X110757287Y-70000731D01*
X110742592Y-70002547D01*
X110742587Y-70002547D01*
X110742586Y-70002548D01*
X110731856Y-70004549D01*
X110681514Y-70013941D01*
X110681511Y-70013943D01*
X110548377Y-70068472D01*
X110548375Y-70068473D01*
X110488139Y-70103890D01*
X110375755Y-70193722D01*
X110293225Y-70311587D01*
X110272372Y-70352837D01*
X110262470Y-70372426D01*
X110261707Y-70373935D01*
X110261696Y-70373955D01*
X110261482Y-70374471D01*
X110261369Y-70374610D01*
X110259783Y-70377782D01*
X110259085Y-70377433D01*
X110217533Y-70428787D01*
X110151195Y-70450721D01*
X110136208Y-70450319D01*
X109925002Y-70431841D01*
X109924999Y-70431841D01*
X109866022Y-70437001D01*
X109717161Y-70450024D01*
X109648662Y-70436259D01*
X109598479Y-70387643D01*
X109590641Y-70369137D01*
X109587837Y-70362997D01*
X109510051Y-70241962D01*
X109510048Y-70241957D01*
X109493006Y-70222289D01*
X109464299Y-70189159D01*
X109464295Y-70189156D01*
X109464293Y-70189153D01*
X109355559Y-70094933D01*
X109355556Y-70094931D01*
X109355554Y-70094930D01*
X109224688Y-70035164D01*
X109224683Y-70035162D01*
X109224682Y-70035162D01*
X109197519Y-70027186D01*
X109157648Y-70015478D01*
X109157642Y-70015476D01*
X109067714Y-70002547D01*
X109015223Y-69995000D01*
X108319232Y-69995000D01*
X108319229Y-69995000D01*
X108288215Y-69996909D01*
X108288211Y-69996909D01*
X108288202Y-69996910D01*
X108257287Y-70000731D01*
X108242592Y-70002547D01*
X108242587Y-70002547D01*
X108242586Y-70002548D01*
X108231856Y-70004549D01*
X108181514Y-70013941D01*
X108181511Y-70013943D01*
X108048377Y-70068472D01*
X108048375Y-70068473D01*
X107988139Y-70103890D01*
X107875755Y-70193722D01*
X107793225Y-70311587D01*
X107772372Y-70352837D01*
X107762470Y-70372426D01*
X107761707Y-70373935D01*
X107761696Y-70373955D01*
X107761482Y-70374471D01*
X107761369Y-70374610D01*
X107759783Y-70377782D01*
X107759085Y-70377433D01*
X107717533Y-70428787D01*
X107651195Y-70450721D01*
X107636208Y-70450319D01*
X107425002Y-70431841D01*
X107424999Y-70431841D01*
X107366022Y-70437001D01*
X107217161Y-70450024D01*
X107148662Y-70436259D01*
X107098479Y-70387643D01*
X107090641Y-70369137D01*
X107087837Y-70362997D01*
X107010051Y-70241962D01*
X107010048Y-70241957D01*
X106993006Y-70222289D01*
X106964299Y-70189159D01*
X106964295Y-70189156D01*
X106964293Y-70189153D01*
X106855559Y-70094933D01*
X106855556Y-70094931D01*
X106855554Y-70094930D01*
X106724688Y-70035164D01*
X106724683Y-70035162D01*
X106724682Y-70035162D01*
X106697519Y-70027186D01*
X106657648Y-70015478D01*
X106657642Y-70015476D01*
X106567714Y-70002547D01*
X106515223Y-69995000D01*
X106189704Y-69995000D01*
X106171838Y-69995638D01*
X106169381Y-69995769D01*
X106153827Y-69996603D01*
X106153811Y-69996605D01*
X106013235Y-70027186D01*
X106013230Y-70027187D01*
X106013229Y-70027188D01*
X105997403Y-70033090D01*
X105947763Y-70051605D01*
X105947759Y-70051607D01*
X105821491Y-70120555D01*
X105719753Y-70222289D01*
X105719747Y-70222296D01*
X105677881Y-70278221D01*
X105677869Y-70278237D01*
X105626440Y-70372426D01*
X105577035Y-70421832D01*
X105517607Y-70437000D01*
X104337370Y-70437000D01*
X104270331Y-70417315D01*
X104229350Y-70370024D01*
X104228678Y-70370457D01*
X104225671Y-70365779D01*
X104224578Y-70364517D01*
X104223883Y-70362997D01*
X104223883Y-70362996D01*
X104146095Y-70241957D01*
X104129053Y-70222289D01*
X104100346Y-70189159D01*
X104100342Y-70189156D01*
X104100340Y-70189153D01*
X103991606Y-70094933D01*
X103991603Y-70094931D01*
X103991601Y-70094930D01*
X103860735Y-70035164D01*
X103860730Y-70035162D01*
X103860729Y-70035162D01*
X103833566Y-70027186D01*
X103793695Y-70015478D01*
X103793689Y-70015476D01*
X103703761Y-70002547D01*
X103651270Y-69995000D01*
X103555797Y-69995000D01*
X103528758Y-69996449D01*
X103528750Y-69996449D01*
X103528747Y-69996450D01*
X103528746Y-69996450D01*
X103488938Y-70000731D01*
X103435530Y-70009385D01*
X103300719Y-70059666D01*
X103239403Y-70093147D01*
X103239398Y-70093149D01*
X103239391Y-70093153D01*
X103124219Y-70179369D01*
X103124201Y-70179385D01*
X101052631Y-72250954D01*
X101052624Y-72250963D01*
X100969649Y-72360292D01*
X100969637Y-72360310D01*
X100936896Y-72418433D01*
X100907385Y-72493007D01*
X100890703Y-72535162D01*
X100883205Y-72554108D01*
X100880955Y-72553217D01*
X100852448Y-72602680D01*
X100790369Y-72634742D01*
X100766812Y-72637000D01*
X99994144Y-72637000D01*
X99892223Y-72647413D01*
X99727077Y-72702137D01*
X99727066Y-72702142D01*
X99579000Y-72793471D01*
X99578996Y-72793474D01*
X99455974Y-72916496D01*
X99455971Y-72916500D01*
X99364639Y-73064571D01*
X99362382Y-73069413D01*
X99316210Y-73121852D01*
X99249016Y-73141004D01*
X99182135Y-73120788D01*
X99137618Y-73069413D01*
X99135360Y-73064571D01*
X99044028Y-72916500D01*
X99044025Y-72916496D01*
X98921003Y-72793474D01*
X98920999Y-72793471D01*
X98772933Y-72702142D01*
X98772927Y-72702139D01*
X98772925Y-72702138D01*
X98772922Y-72702137D01*
X98607776Y-72647413D01*
X98505855Y-72637000D01*
X98505848Y-72637000D01*
X97494152Y-72637000D01*
X97494144Y-72637000D01*
X97392221Y-72647413D01*
X97258647Y-72691675D01*
X97188819Y-72694077D01*
X97138441Y-72667681D01*
X97054489Y-72594935D01*
X97054481Y-72594930D01*
X96923615Y-72535164D01*
X96923610Y-72535162D01*
X96923609Y-72535162D01*
X96901008Y-72528525D01*
X96856575Y-72515478D01*
X96856569Y-72515476D01*
X96757015Y-72501163D01*
X96714150Y-72495000D01*
X96714148Y-72495000D01*
X93694109Y-72495000D01*
X93671967Y-72493007D01*
X93561985Y-72473047D01*
X93540557Y-72467133D01*
X93435897Y-72427854D01*
X93415875Y-72418212D01*
X93319904Y-72360873D01*
X93301924Y-72347809D01*
X93217745Y-72274264D01*
X93202382Y-72258195D01*
X93132689Y-72170802D01*
X93120443Y-72152251D01*
X93067470Y-72053813D01*
X93058732Y-72033369D01*
X93024193Y-71927065D01*
X93019246Y-71905394D01*
X93004238Y-71794605D01*
X93003242Y-71772413D01*
X93008256Y-71660740D01*
X93011238Y-71638722D01*
X93036116Y-71529725D01*
X93042984Y-71508590D01*
X93086918Y-71405799D01*
X93097452Y-71386225D01*
X93159033Y-71292934D01*
X93172888Y-71275561D01*
X93250145Y-71194756D01*
X93266880Y-71180134D01*
X93357324Y-71114423D01*
X93376388Y-71103032D01*
X93477120Y-71054523D01*
X93497907Y-71046721D01*
X93605681Y-71016976D01*
X93627544Y-71013009D01*
X93675498Y-71008693D01*
X93713771Y-71005250D01*
X93719331Y-71005000D01*
X99944199Y-71005000D01*
X99944203Y-71005000D01*
X99971242Y-71003551D01*
X99971249Y-71003550D01*
X99971253Y-71003550D01*
X99971254Y-71003550D01*
X100011062Y-70999269D01*
X100011062Y-70999268D01*
X100064474Y-70990614D01*
X100199283Y-70940332D01*
X100260606Y-70906847D01*
X100375788Y-70820623D01*
X102467299Y-68729111D01*
X102505000Y-68689677D01*
X102524008Y-68673442D01*
X102568859Y-68642370D01*
X102613006Y-68610295D01*
X102634606Y-68597717D01*
X102683564Y-68575479D01*
X102684280Y-68575154D01*
X102733458Y-68551472D01*
X102756941Y-68542958D01*
X102809848Y-68529627D01*
X102862464Y-68515105D01*
X102887099Y-68510920D01*
X102933024Y-68507824D01*
X102947315Y-68506395D01*
X102949101Y-68506217D01*
X102952241Y-68505852D01*
X102965271Y-68504338D01*
X103103760Y-68465321D01*
X103167631Y-68436996D01*
X103276038Y-68368999D01*
X103289512Y-68360548D01*
X103289514Y-68360546D01*
X103289513Y-68360546D01*
X103289516Y-68360545D01*
X103384927Y-68252850D01*
X103397576Y-68233634D01*
X103450878Y-68188464D01*
X103520142Y-68179280D01*
X103558774Y-68192021D01*
G37*
%TD.AperFunction*%
%TD*%
M02*
