<?xml version="1.0" standalone="no"?>
<!DOCTYPE svg PUBLIC "-//W3C//DTD SVG 20010904//EN"
 "http://www.w3.org/TR/2001/REC-SVG-20010904/DTD/svg10.dtd">
<svg version="1.0" xmlns="http://www.w3.org/2000/svg"
 width="1920.000000pt" height="1080.000000pt" viewBox="0 0 1920.000000 1080.000000"
 preserveAspectRatio="xMidYMid meet">

<g transform="translate(0.000000,1080.000000) scale(0.100000,-0.100000)"
fill="#000000" stroke="none">
<path d="M17735 6404 c-11 -3 -37 -10 -58 -15 -21 -6 -35 -14 -32 -19 3 -6 -1
-7 -9 -4 -14 6 -69 -47 -93 -89 -27 -47 -6 -187 27 -187 13 0 12 10 -5 40 -35
60 -6 145 53 156 43 8 103 0 143 -20 17 -9 37 -13 43 -9 6 3 8 3 4 -1 -3 -4 9
-28 29 -54 33 -43 34 -49 29 -106 -7 -80 -10 -96 -14 -91 -2 2 -20 -8 -39 -21
-20 -13 -54 -29 -77 -35 -130 -35 -186 -91 -202 -201 -3 -23 -7 -53 -9 -65 -2
-13 1 -23 6 -23 5 0 9 3 10 8 6 62 41 102 90 102 19 0 59 -18 107 -49 103 -66
146 -78 218 -62 87 20 134 78 134 166 0 54 -15 90 -47 110 -25 17 -30 7 -13
-26 15 -27 -4 -59 -35 -59 -13 0 -61 20 -107 44 l-84 44 59 27 c65 30 140 93
163 136 17 35 20 154 2 143 -7 -4 -8 -3 -4 4 13 21 -55 109 -75 97 -8 -5 -10
-4 -5 3 18 29 -145 72 -209 56z"/>
<path d="M4493 6025 c-190 -35 -278 -122 -319 -315 -28 -130 -26 -444 4 -558
25 -98 64 -173 107 -209 90 -77 258 -112 453 -93 213 20 319 103 366 286 29
115 40 291 26 430 -30 311 -111 418 -345 459 -103 18 -193 18 -292 0z m266
-215 c22 -11 49 -35 61 -55 67 -108 66 -530 -2 -632 -46 -69 -160 -100 -255
-69 -92 31 -126 88 -144 243 -12 103 -6 291 12 375 13 58 43 105 88 135 46 31
182 33 240 3z"/>
<path d="M13922 6025 c-254 -47 -336 -189 -336 -585 0 -380 71 -519 295 -576
75 -19 283 -22 368 -5 119 24 204 83 248 173 89 178 93 606 8 797 -32 70 -94
133 -160 161 -108 46 -281 60 -423 35z m272 -218 c83 -47 111 -155 103 -406
-7 -244 -36 -315 -140 -346 -64 -19 -113 -19 -168 0 -65 23 -97 59 -120 137
-19 61 -20 87 -17 270 4 160 8 212 22 248 34 91 82 119 201 119 65 1 88 -4
119 -22z"/>
<path d="M1780 5910 l0 -100 173 -2 172 -3 3 -473 2 -473 120 3 120 3 0 460
c1 253 4 466 8 472 6 9 57 13 176 15 l168 3 0 95 0 95 -471 3 -471 2 0 -100z"/>
<path d="M6650 5435 l0 -575 120 0 120 0 0 575 0 575 -120 0 -120 0 0 -575z"/>
<path d="M8430 5994 c69 -19 131 -55 192 -112 54 -50 96 -127 263 -487 196
-421 209 -439 333 -498 l67 -32 535 -2 c483 -3 530 -1 483 12 -120 33 -201 86
-261 169 -20 29 -116 220 -212 425 -196 420 -213 447 -328 503 l-67 33 -530 2
c-485 2 -525 1 -475 -13z"/>
<path d="M10010 6004 c0 -7 323 -701 351 -754 18 -35 18 -30 19 363 l0 397
-185 0 c-102 0 -185 -3 -185 -6z"/>
<path d="M11820 5435 l0 -576 120 3 120 3 0 570 1 570 -121 3 -120 3 0 -576z"/>
<path d="M15990 5910 l0 -100 170 0 c129 0 170 -3 170 -12 1 -7 0 -214 0 -459
0 -245 2 -453 6 -462 5 -15 23 -17 125 -17 l119 0 0 459 c0 253 3 466 6 475 5
14 30 16 175 16 l169 0 0 100 0 100 -470 0 -470 0 0 -100z"/>
<path d="M8330 5262 l0 -402 185 0 c102 0 185 4 185 9 0 9 -358 782 -366 790
-2 2 -4 -176 -4 -397z"/>
<path d="M3028 4138 c-3 -30 -6 -33 -41 -36 -49 -4 -72 -37 -63 -88 10 -50 40
-44 44 9 l3 38 72 -3 c58 -2 72 -6 75 -20 7 -35 -31 -90 -84 -124 -37 -23 -51
-39 -48 -49 9 -22 27 -18 80 18 72 48 121 150 91 191 -7 10 -28 21 -47 25 -29
6 -36 12 -40 36 -8 44 -38 46 -42 3z"/>
<path d="M14606 4162 c-3 -5 3 -17 13 -26 11 -10 22 -13 25 -8 3 5 -3 17 -13
26 -11 10 -22 13 -25 8z"/>
<path d="M16807 4163 c-4 -3 -7 -19 -7 -35 0 -24 -4 -28 -27 -28 -16 0 -38 -8
-51 -18 -19 -15 -23 -26 -20 -58 4 -51 33 -56 33 -5 0 31 4 36 35 44 38 10
116 1 126 -14 11 -19 -6 -58 -46 -104 -22 -25 -42 -46 -44 -46 -39 -5 -61 -29
-38 -43 26 -16 149 82 138 111 -3 8 -2 11 3 8 12 -7 24 31 23 70 -1 35 -25 55
-64 55 -21 0 -28 5 -28 19 0 39 -17 61 -33 44z"/>
<path d="M4228 4129 c-13 -17 -57 -58 -98 -92 -41 -33 -75 -65 -75 -71 0 -23
34 -15 79 19 25 19 48 35 51 35 3 0 5 -36 5 -80 0 -73 2 -80 20 -80 19 0 20 7
20 102 0 93 2 104 26 135 24 32 27 63 5 63 -6 0 -21 -14 -33 -31z"/>
<path d="M7648 4106 c-26 -29 -70 -68 -97 -87 -49 -33 -67 -69 -35 -69 9 0 38
16 65 36 l49 36 0 -81 c0 -74 2 -81 20 -81 19 0 20 7 20 101 0 94 2 103 25
131 25 30 30 59 10 64 -5 2 -31 -21 -57 -50z"/>
<path d="M1854 4137 c-2 -7 -3 -71 -2 -142 3 -114 5 -130 21 -133 15 -3 17 6
17 72 0 45 4 76 10 76 6 0 28 -12 50 -26 38 -25 70 -27 70 -4 0 14 -89 70
-112 70 -15 0 -18 8 -18 50 0 38 -4 50 -15 50 -9 0 -18 -6 -21 -13z"/>
<path d="M8798 4118 l-3 -33 -78 -3 c-68 -2 -78 -5 -75 -20 2 -13 17 -18 66
-22 l63 -5 -33 -31 c-18 -17 -50 -43 -70 -59 -41 -29 -50 -55 -19 -55 20 0 57
25 113 78 l37 35 6 -26 c10 -39 2 -61 -25 -67 -16 -4 -25 -13 -25 -25 0 -17 6
-20 35 -17 50 4 62 25 58 104 l-4 67 36 3 c23 2 36 9 38 20 2 13 -5 17 -35 20
-35 3 -38 6 -41 36 -2 23 -8 32 -22 32 -14 0 -20 -9 -22 -32z"/>
<path d="M11040 4005 c0 -134 1 -146 18 -143 14 3 18 16 20 76 2 39 6 72 10
72 4 0 24 -12 45 -26 37 -24 67 -26 67 -4 0 14 -80 70 -101 70 -14 0 -19 10
-21 47 -2 36 -7 49 -20 51 -17 3 -18 -9 -18 -143z"/>
<path d="M6340 4120 c0 -18 8 -20 118 -22 96 -2 117 -6 117 -18 0 -10 -12 -16
-37 -18 -22 -2 -38 1 -38 7 0 6 -9 11 -20 11 -17 0 -20 -7 -20 -45 0 -49 -25
-108 -58 -138 -21 -19 -20 -47 2 -47 23 0 69 59 87 112 17 51 19 53 60 59 27
4 49 14 61 28 23 30 23 46 -2 71 -18 18 -33 20 -145 20 -118 0 -125 -1 -125
-20z"/>
<path d="M14576 4132 c-7 -11 31 -48 41 -38 4 3 -2 16 -14 27 -11 12 -23 17
-27 11z"/>
<path d="M12285 4101 c-21 -41 -123 -149 -157 -167 -28 -15 -37 -37 -18 -49
16 -10 71 29 132 92 60 64 92 117 84 139 -9 22 -24 16 -41 -15z"/>
<path d="M14432 4113 c4 -21 63 -57 78 -48 8 5 4 15 -11 31 -12 13 -26 21 -30
18 -5 -3 -9 0 -9 5 0 6 -7 11 -16 11 -9 0 -14 -7 -12 -17z"/>
<path d="M5217 4113 c-15 -14 -5 -32 34 -57 38 -26 69 -29 69 -7 0 9 -78 71
-90 71 -4 0 -10 -3 -13 -7z"/>
<path d="M13280 4075 c0 -20 33 -27 115 -23 57 2 70 6 73 21 3 15 -6 17 -92
17 -78 0 -96 -3 -96 -15z"/>
<path d="M5410 4029 c-25 -22 -78 -56 -117 -76 -69 -34 -89 -56 -60 -66 28 -9
184 79 231 131 17 20 17 53 -1 52 -4 -1 -28 -19 -53 -41z"/>
<path d="M14584 4020 c-28 -27 -50 -52 -48 -55 2 -3 1 -3 -2 0 -12 8 -45 -16
-38 -27 4 -6 3 -8 -3 -5 -16 10 -83 -21 -83 -38 0 -22 24 -19 80 10 55 28 92
63 83 78 -4 6 -1 7 6 2 14 -8 73 43 65 57 -3 4 0 8 6 8 6 0 8 5 5 10 -10 16
-17 12 -71 -40z"/>
<path d="M9896 4052 c-8 -13 23 -72 39 -72 18 0 19 7 4 49 -10 29 -32 41 -43
23z"/>
<path d="M9995 4048 c-2 -7 -9 -30 -15 -50 -11 -35 -46 -74 -99 -108 -20 -13
-21 -17 -9 -28 25 -20 101 38 132 100 30 59 34 98 11 98 -9 0 -17 -6 -20 -12z"/>
<path d="M14385 4051 c-3 -6 11 -21 32 -36 21 -14 39 -21 41 -15 2 6 9 7 15 4
7 -3 -3 8 -21 25 -33 31 -56 39 -67 22z"/>
<path d="M15593 4044 c-26 -11 -2 -30 32 -26 50 6 105 -6 105 -23 0 -11 -18
-15 -72 -17 -46 -2 -73 -7 -76 -15 -3 -10 16 -13 73 -13 67 0 76 -2 73 -17 -3
-15 -16 -19 -76 -21 -99 -4 -94 -26 7 -30 89 -4 101 6 101 82 0 73 -14 86 -93
85 -34 0 -67 -3 -74 -5z"/>
<path d="M9830 4030 c0 -18 30 -70 40 -70 18 0 20 20 5 50 -15 29 -45 42 -45
20z"/>
<path d="M13240 3950 c-30 -20 14 -30 135 -30 119 0 154 7 141 29 -9 14 -255
15 -276 1z"/>
</g>
</svg>
