%TF.GenerationSoftware,KiCad,Pcbnew,8.0.1*%
%TF.CreationDate,2024-07-18T22:05:32+09:00*%
%TF.ProjectId,Dribbler-20240708,44726962-626c-4657-922d-323032343037,rev?*%
%TF.SameCoordinates,Original*%
%TF.FileFunction,Legend,Bot*%
%TF.FilePolarity,Positive*%
%FSLAX46Y46*%
G04 Gerber Fmt 4.6, Leading zero omitted, Abs format (unit mm)*
G04 Created by KiCad (PCBNEW 8.0.1) date 2024-07-18 22:05:32*
%MOMM*%
%LPD*%
G01*
G04 APERTURE LIST*
G04 Aperture macros list*
%AMRoundRect*
0 Rectangle with rounded corners*
0 $1 Rounding radius*
0 $2 $3 $4 $5 $6 $7 $8 $9 X,Y pos of 4 corners*
0 Add a 4 corners polygon primitive as box body*
4,1,4,$2,$3,$4,$5,$6,$7,$8,$9,$2,$3,0*
0 Add four circle primitives for the rounded corners*
1,1,$1+$1,$2,$3*
1,1,$1+$1,$4,$5*
1,1,$1+$1,$6,$7*
1,1,$1+$1,$8,$9*
0 Add four rect primitives between the rounded corners*
20,1,$1+$1,$2,$3,$4,$5,0*
20,1,$1+$1,$4,$5,$6,$7,0*
20,1,$1+$1,$6,$7,$8,$9,0*
20,1,$1+$1,$8,$9,$2,$3,0*%
G04 Aperture macros list end*
%ADD10C,0.300000*%
%ADD11C,0.000000*%
%ADD12RoundRect,0.250000X-0.600000X-0.750000X0.600000X-0.750000X0.600000X0.750000X-0.600000X0.750000X0*%
%ADD13O,1.700000X2.000000*%
%ADD14R,1.700000X1.700000*%
%ADD15C,1.700000*%
%ADD16RoundRect,0.250000X0.725000X-0.600000X0.725000X0.600000X-0.725000X0.600000X-0.725000X-0.600000X0*%
%ADD17O,1.950000X1.700000*%
%ADD18RoundRect,0.250000X0.600000X0.750000X-0.600000X0.750000X-0.600000X-0.750000X0.600000X-0.750000X0*%
G04 APERTURE END LIST*
D10*
G36*
X118550069Y-98362500D02*
G01*
X118550069Y-98091756D01*
X118192131Y-98091756D01*
X118111695Y-98085209D01*
X118037349Y-98062883D01*
X117977808Y-98024712D01*
X117931594Y-97966631D01*
X117906710Y-97893507D01*
X117901970Y-97836400D01*
X117901970Y-97397496D01*
X117910932Y-97320158D01*
X117941148Y-97250701D01*
X117977808Y-97208818D01*
X118043496Y-97168186D01*
X118119188Y-97147414D01*
X118192131Y-97142140D01*
X118550069Y-97142140D01*
X118550069Y-96871397D01*
X118198359Y-96871397D01*
X118113668Y-96874823D01*
X118035220Y-96885100D01*
X117963015Y-96902228D01*
X117884610Y-96931827D01*
X117815195Y-96971291D01*
X117764217Y-97011714D01*
X117712049Y-97068215D01*
X117670674Y-97132752D01*
X117640093Y-97205327D01*
X117620305Y-97285938D01*
X117612060Y-97359254D01*
X117610711Y-97405922D01*
X117610711Y-97828340D01*
X117614809Y-97905437D01*
X117627106Y-97977725D01*
X117650737Y-98053302D01*
X117676290Y-98107876D01*
X117718337Y-98171297D01*
X117770700Y-98226372D01*
X117833381Y-98273101D01*
X117872661Y-98295455D01*
X117942133Y-98324787D01*
X118019756Y-98345738D01*
X118094364Y-98357196D01*
X118175212Y-98362238D01*
X118199458Y-98362500D01*
X118550069Y-98362500D01*
G37*
G36*
X118691485Y-98362500D02*
G01*
X118691485Y-96871397D01*
X118410484Y-96871397D01*
X118410484Y-98362500D01*
X118691485Y-98362500D01*
G37*
G36*
X117334472Y-98362500D02*
G01*
X117334472Y-97298211D01*
X117032954Y-97298211D01*
X117032954Y-98362500D01*
X117334472Y-98362500D01*
G37*
G36*
X116735833Y-97594600D02*
G01*
X116785292Y-97564192D01*
X116854535Y-97553567D01*
X116930006Y-97567306D01*
X116986426Y-97608522D01*
X117021322Y-97673826D01*
X117032773Y-97748549D01*
X117032954Y-97760563D01*
X117054570Y-97483592D01*
X117017939Y-97418745D01*
X116970000Y-97361518D01*
X116940630Y-97336313D01*
X116876417Y-97299748D01*
X116801702Y-97283294D01*
X116786025Y-97282824D01*
X116711494Y-97290315D01*
X116665857Y-97304073D01*
X116601010Y-97340160D01*
X116571702Y-97365989D01*
X116735833Y-97594600D01*
G37*
G36*
X116454465Y-97152398D02*
G01*
X116454465Y-96871397D01*
X116173464Y-96871397D01*
X116173464Y-97152398D01*
X116454465Y-97152398D01*
G37*
G36*
X116454465Y-98362500D02*
G01*
X116454465Y-97298211D01*
X116173464Y-97298211D01*
X116173464Y-98362500D01*
X116454465Y-98362500D01*
G37*
G36*
X115385048Y-98377887D02*
G01*
X115461634Y-98368771D01*
X115532951Y-98338771D01*
X115545882Y-98330259D01*
X115601695Y-98276915D01*
X115639843Y-98211439D01*
X115646265Y-98195437D01*
X115631977Y-97952172D01*
X115620797Y-98024765D01*
X115613659Y-98041564D01*
X115561986Y-98096732D01*
X115559804Y-98097984D01*
X115486473Y-98117098D01*
X115474074Y-98117402D01*
X115400127Y-98102616D01*
X115351709Y-98065012D01*
X115317691Y-97997250D01*
X115308154Y-97923278D01*
X115308111Y-97917367D01*
X115308111Y-97748107D01*
X115316456Y-97671431D01*
X115346429Y-97604065D01*
X115351709Y-97597165D01*
X115411704Y-97553617D01*
X115474074Y-97543309D01*
X115548437Y-97557393D01*
X115559804Y-97563093D01*
X115611259Y-97616287D01*
X115613659Y-97620978D01*
X115631333Y-97693424D01*
X115631977Y-97713302D01*
X115653593Y-97477730D01*
X115617409Y-97413690D01*
X115569721Y-97357919D01*
X115540386Y-97333749D01*
X115471403Y-97297196D01*
X115395658Y-97283023D01*
X115385048Y-97282824D01*
X115304219Y-97290403D01*
X115233190Y-97313141D01*
X115164997Y-97356839D01*
X115120533Y-97404091D01*
X115079660Y-97471021D01*
X115053476Y-97539915D01*
X115036233Y-97618452D01*
X115028570Y-97693444D01*
X115027110Y-97747374D01*
X115027110Y-97917367D01*
X115030394Y-97996184D01*
X115042528Y-98079346D01*
X115063603Y-98153042D01*
X115098637Y-98225674D01*
X115120533Y-98257353D01*
X115171961Y-98310087D01*
X115241532Y-98351402D01*
X115313786Y-98372119D01*
X115385048Y-98377887D01*
G37*
G36*
X115912979Y-98362500D02*
G01*
X115912979Y-96871397D01*
X115631977Y-96871397D01*
X115631977Y-98362500D01*
X115912979Y-98362500D01*
G37*
G36*
X114243457Y-98377887D02*
G01*
X114320043Y-98368771D01*
X114391360Y-98338771D01*
X114404291Y-98330259D01*
X114460104Y-98276915D01*
X114498252Y-98211439D01*
X114504674Y-98195437D01*
X114490386Y-97952172D01*
X114479206Y-98024765D01*
X114472068Y-98041564D01*
X114420395Y-98096732D01*
X114418212Y-98097984D01*
X114344882Y-98117098D01*
X114332483Y-98117402D01*
X114258536Y-98102616D01*
X114210118Y-98065012D01*
X114176100Y-97997250D01*
X114166563Y-97923278D01*
X114166520Y-97917367D01*
X114166520Y-97748107D01*
X114174865Y-97671431D01*
X114204838Y-97604065D01*
X114210118Y-97597165D01*
X114270113Y-97553617D01*
X114332483Y-97543309D01*
X114406846Y-97557393D01*
X114418212Y-97563093D01*
X114469668Y-97616287D01*
X114472068Y-97620978D01*
X114489742Y-97693424D01*
X114490386Y-97713302D01*
X114512002Y-97477730D01*
X114475818Y-97413690D01*
X114428130Y-97357919D01*
X114398795Y-97333749D01*
X114329812Y-97297196D01*
X114254067Y-97283023D01*
X114243457Y-97282824D01*
X114162628Y-97290403D01*
X114091599Y-97313141D01*
X114023406Y-97356839D01*
X113978942Y-97404091D01*
X113938069Y-97471021D01*
X113911885Y-97539915D01*
X113894642Y-97618452D01*
X113886979Y-97693444D01*
X113885519Y-97747374D01*
X113885519Y-97917367D01*
X113888803Y-97996184D01*
X113900937Y-98079346D01*
X113922012Y-98153042D01*
X113957046Y-98225674D01*
X113978942Y-98257353D01*
X114030370Y-98310087D01*
X114099941Y-98351402D01*
X114172195Y-98372119D01*
X114243457Y-98377887D01*
G37*
G36*
X114771388Y-98362500D02*
G01*
X114771388Y-96871397D01*
X114490386Y-96871397D01*
X114490386Y-98362500D01*
X114771388Y-98362500D01*
G37*
G36*
X113348795Y-96871397D02*
G01*
X113348795Y-98010790D01*
X113326813Y-98070507D01*
X113263799Y-98091756D01*
X113216538Y-98091756D01*
X113216538Y-98362500D01*
X113360152Y-98362500D01*
X113434678Y-98355308D01*
X113509278Y-98327693D01*
X113559088Y-98288860D01*
X113602176Y-98224855D01*
X113624203Y-98151249D01*
X113629797Y-98080399D01*
X113629797Y-96871397D01*
X113348795Y-96871397D01*
G37*
G36*
X112565508Y-98377887D02*
G01*
X112648692Y-98373508D01*
X112724585Y-98360370D01*
X112803913Y-98333973D01*
X112873319Y-98295655D01*
X112924912Y-98253323D01*
X112974590Y-98193900D01*
X113012066Y-98124625D01*
X113037341Y-98045497D01*
X113049294Y-97969831D01*
X113052406Y-97901247D01*
X113052406Y-97781079D01*
X113048105Y-97695702D01*
X113035199Y-97617898D01*
X113013689Y-97547668D01*
X112977720Y-97475305D01*
X112930041Y-97413250D01*
X112871524Y-97362430D01*
X112803366Y-97324091D01*
X112725566Y-97298236D01*
X112651205Y-97286008D01*
X112583827Y-97282824D01*
X112507942Y-97288285D01*
X112427973Y-97308461D01*
X112357225Y-97343503D01*
X112295698Y-97393412D01*
X112257396Y-97438162D01*
X112218176Y-97500871D01*
X112187071Y-97572492D01*
X112164080Y-97653027D01*
X112151120Y-97726947D01*
X112143794Y-97807057D01*
X112141991Y-97875601D01*
X112141991Y-97945211D01*
X112869957Y-97945211D01*
X112869957Y-97755434D01*
X112398080Y-97755434D01*
X112401377Y-97730887D01*
X112417977Y-97658850D01*
X112456045Y-97592304D01*
X112458896Y-97589105D01*
X112521145Y-97547927D01*
X112583827Y-97538180D01*
X112658784Y-97548157D01*
X112726640Y-97584462D01*
X112741363Y-97598630D01*
X112781334Y-97666330D01*
X112796180Y-97742846D01*
X112797051Y-97769722D01*
X112797051Y-97905277D01*
X112788498Y-97979758D01*
X112756902Y-98049331D01*
X112736234Y-98073438D01*
X112673443Y-98114010D01*
X112598560Y-98131340D01*
X112565508Y-98132789D01*
X112491930Y-98124269D01*
X112453767Y-98113005D01*
X112385253Y-98079301D01*
X112353017Y-98055853D01*
X112169469Y-98218885D01*
X112229069Y-98266997D01*
X112293517Y-98307057D01*
X112356314Y-98336488D01*
X112427646Y-98360058D01*
X112506154Y-98374612D01*
X112565508Y-98377887D01*
G37*
G36*
X111896161Y-98362500D02*
G01*
X111896161Y-97298211D01*
X111594643Y-97298211D01*
X111594643Y-98362500D01*
X111896161Y-98362500D01*
G37*
G36*
X111297522Y-97594600D02*
G01*
X111346981Y-97564192D01*
X111416224Y-97553567D01*
X111491695Y-97567306D01*
X111548115Y-97608522D01*
X111583011Y-97673826D01*
X111594461Y-97748549D01*
X111594643Y-97760563D01*
X111616259Y-97483592D01*
X111579628Y-97418745D01*
X111531689Y-97361518D01*
X111502319Y-97336313D01*
X111438105Y-97299748D01*
X111363391Y-97283294D01*
X111347713Y-97282824D01*
X111273183Y-97290315D01*
X111227546Y-97304073D01*
X111162698Y-97340160D01*
X111133390Y-97365989D01*
X111297522Y-97594600D01*
G37*
G36*
X116478645Y-100882500D02*
G01*
X116224388Y-99391397D01*
X116006035Y-99391397D01*
X116260292Y-100882500D01*
X116478645Y-100882500D01*
G37*
G36*
X116964810Y-100882500D02*
G01*
X116710187Y-99391397D01*
X116491834Y-99391397D01*
X116746091Y-100882500D01*
X116964810Y-100882500D01*
G37*
G36*
X117008774Y-99753365D02*
G01*
X115881838Y-99753365D01*
X115881838Y-99977946D01*
X117008774Y-99977946D01*
X117008774Y-99753365D01*
G37*
G36*
X117069224Y-100295950D02*
G01*
X115942288Y-100295950D01*
X115942288Y-100520532D01*
X117069224Y-100520532D01*
X117069224Y-100295950D01*
G37*
G36*
X115305060Y-99374842D02*
G01*
X115378824Y-99384098D01*
X115455342Y-99404925D01*
X115521587Y-99436551D01*
X115584716Y-99485919D01*
X115598380Y-99500356D01*
X115644222Y-99564744D01*
X115675958Y-99639758D01*
X115692157Y-99714109D01*
X115697556Y-99796596D01*
X115697556Y-100474370D01*
X115697120Y-100498418D01*
X115688717Y-100577629D01*
X115669621Y-100649125D01*
X115634702Y-100721391D01*
X115585815Y-100783581D01*
X115556151Y-100810372D01*
X115486450Y-100853236D01*
X115414117Y-100879022D01*
X115331195Y-100893868D01*
X115251691Y-100897887D01*
X115198236Y-100896124D01*
X115124365Y-100886867D01*
X115047754Y-100866040D01*
X114981452Y-100834414D01*
X114918299Y-100785047D01*
X114904635Y-100770610D01*
X114858794Y-100706221D01*
X114827058Y-100631208D01*
X114810859Y-100556856D01*
X114805459Y-100474370D01*
X114805459Y-100402562D01*
X115086461Y-100402562D01*
X115086799Y-100421816D01*
X115096078Y-100496168D01*
X115124929Y-100567426D01*
X115175762Y-100612214D01*
X115251325Y-100627144D01*
X115318614Y-100615713D01*
X115377720Y-100567426D01*
X115386822Y-100551707D01*
X115410146Y-100480320D01*
X115416555Y-100402562D01*
X115416555Y-99868403D01*
X115416214Y-99849025D01*
X115406846Y-99774431D01*
X115377720Y-99703539D01*
X115326704Y-99658751D01*
X115251325Y-99643822D01*
X115184105Y-99655252D01*
X115125295Y-99703539D01*
X115116193Y-99719098D01*
X115092870Y-99790292D01*
X115086461Y-99868403D01*
X115086461Y-100402562D01*
X114805459Y-100402562D01*
X114805459Y-99796596D01*
X114805899Y-99772068D01*
X114814356Y-99691563D01*
X114833578Y-99619367D01*
X114868726Y-99547033D01*
X114917933Y-99485553D01*
X114947672Y-99459191D01*
X115017418Y-99417014D01*
X115089679Y-99391641D01*
X115172423Y-99377033D01*
X115251691Y-99373079D01*
X115305060Y-99374842D01*
G37*
G36*
X114188382Y-99374842D02*
G01*
X114262145Y-99384098D01*
X114338664Y-99404925D01*
X114404909Y-99436551D01*
X114468038Y-99485919D01*
X114481702Y-99500356D01*
X114527543Y-99564744D01*
X114559280Y-99639758D01*
X114575478Y-99714109D01*
X114580878Y-99796596D01*
X114580878Y-100474370D01*
X114580441Y-100498418D01*
X114572039Y-100577629D01*
X114552943Y-100649125D01*
X114518024Y-100721391D01*
X114469137Y-100783581D01*
X114439473Y-100810372D01*
X114369772Y-100853236D01*
X114297439Y-100879022D01*
X114214517Y-100893868D01*
X114135013Y-100897887D01*
X114081558Y-100896124D01*
X114007687Y-100886867D01*
X113931076Y-100866040D01*
X113864773Y-100834414D01*
X113801621Y-100785047D01*
X113787957Y-100770610D01*
X113742116Y-100706221D01*
X113710379Y-100631208D01*
X113694181Y-100556856D01*
X113688781Y-100474370D01*
X113688781Y-100402562D01*
X113969782Y-100402562D01*
X113970120Y-100421816D01*
X113979399Y-100496168D01*
X114008251Y-100567426D01*
X114059084Y-100612214D01*
X114134646Y-100627144D01*
X114201936Y-100615713D01*
X114261042Y-100567426D01*
X114270144Y-100551707D01*
X114293467Y-100480320D01*
X114299877Y-100402562D01*
X114299877Y-99868403D01*
X114299535Y-99849025D01*
X114290168Y-99774431D01*
X114261042Y-99703539D01*
X114210026Y-99658751D01*
X114134646Y-99643822D01*
X114067427Y-99655252D01*
X114008617Y-99703539D01*
X113999515Y-99719098D01*
X113976192Y-99790292D01*
X113969782Y-99868403D01*
X113969782Y-100402562D01*
X113688781Y-100402562D01*
X113688781Y-99796596D01*
X113689220Y-99772068D01*
X113697678Y-99691563D01*
X113716899Y-99619367D01*
X113752048Y-99547033D01*
X113801255Y-99485553D01*
X113830993Y-99459191D01*
X113900740Y-99417014D01*
X113973001Y-99391641D01*
X114055745Y-99377033D01*
X114135013Y-99373079D01*
X114188382Y-99374842D01*
G37*
G36*
X113022364Y-99391397D02*
G01*
X113022364Y-100882500D01*
X113303366Y-100882500D01*
X113303366Y-99721857D01*
X113484716Y-99790368D01*
X113484716Y-99492147D01*
X113262333Y-99391397D01*
X113022364Y-99391397D01*
G37*
D11*
G36*
X110495435Y-112033867D02*
G01*
X110438815Y-112169862D01*
X110321870Y-112448733D01*
X110162062Y-112828675D01*
X110188520Y-112874183D01*
X110192082Y-112879964D01*
X110195634Y-112885407D01*
X110199193Y-112890522D01*
X110202774Y-112895317D01*
X110206392Y-112899802D01*
X110210062Y-112903986D01*
X110213801Y-112907879D01*
X110217624Y-112911489D01*
X110221545Y-112914827D01*
X110225582Y-112917901D01*
X110229749Y-112920721D01*
X110234061Y-112923296D01*
X110238535Y-112925636D01*
X110243185Y-112927749D01*
X110248028Y-112929645D01*
X110253078Y-112931333D01*
X110261228Y-112933529D01*
X110270848Y-112935360D01*
X110281725Y-112936831D01*
X110293642Y-112937948D01*
X110306383Y-112938718D01*
X110319734Y-112939147D01*
X110333479Y-112939241D01*
X110347402Y-112939006D01*
X110361287Y-112938449D01*
X110374920Y-112937576D01*
X110388085Y-112936392D01*
X110400566Y-112934905D01*
X110412148Y-112933120D01*
X110422616Y-112931044D01*
X110431753Y-112928682D01*
X110439345Y-112926041D01*
X110442175Y-112924978D01*
X110443482Y-112924547D01*
X110444721Y-112924185D01*
X110445892Y-112923897D01*
X110446997Y-112923683D01*
X110448039Y-112923549D01*
X110449018Y-112923495D01*
X110449937Y-112923525D01*
X110450797Y-112923641D01*
X110451600Y-112923847D01*
X110452348Y-112924144D01*
X110453043Y-112924536D01*
X110453685Y-112925025D01*
X110454278Y-112925614D01*
X110454822Y-112926306D01*
X110455320Y-112927103D01*
X110455773Y-112928009D01*
X110456184Y-112929025D01*
X110456552Y-112930155D01*
X110456882Y-112931401D01*
X110457173Y-112932766D01*
X110457429Y-112934253D01*
X110457650Y-112935864D01*
X110457839Y-112937602D01*
X110457996Y-112939471D01*
X110458227Y-112943607D01*
X110458355Y-112948296D01*
X110458394Y-112953558D01*
X110457305Y-112974322D01*
X110455037Y-113000803D01*
X110451901Y-113030484D01*
X110448208Y-113060847D01*
X110444266Y-113089374D01*
X110440386Y-113113548D01*
X110436878Y-113130852D01*
X110435361Y-113136140D01*
X110434053Y-113138767D01*
X110432332Y-113139947D01*
X110429589Y-113141107D01*
X110421264Y-113143349D01*
X110409531Y-113145471D01*
X110394845Y-113147448D01*
X110358430Y-113150877D01*
X110315652Y-113153451D01*
X110270146Y-113154982D01*
X110225545Y-113155286D01*
X110204719Y-113154920D01*
X110185483Y-113154176D01*
X110168290Y-113153033D01*
X110153594Y-113151466D01*
X110131119Y-113148393D01*
X110110066Y-113144693D01*
X110090347Y-113140307D01*
X110071871Y-113135178D01*
X110054549Y-113129249D01*
X110038290Y-113122464D01*
X110023005Y-113114763D01*
X110008603Y-113106090D01*
X109994995Y-113096388D01*
X109982091Y-113085600D01*
X109969801Y-113073667D01*
X109958035Y-113060533D01*
X109946703Y-113046139D01*
X109935715Y-113030430D01*
X109924981Y-113013347D01*
X109914412Y-112994833D01*
X109847058Y-112826046D01*
X109718487Y-112490670D01*
X109593687Y-112159461D01*
X109537645Y-112003175D01*
X109537848Y-112002983D01*
X109538450Y-112002803D01*
X109540813Y-112002478D01*
X109549898Y-112001968D01*
X109564266Y-112001631D01*
X109583285Y-112001455D01*
X109632746Y-112001538D01*
X109693219Y-112002117D01*
X109848795Y-112005292D01*
X109922878Y-112261408D01*
X109952577Y-112361189D01*
X109977911Y-112443706D01*
X109996101Y-112500426D01*
X110001649Y-112516446D01*
X110004369Y-112522816D01*
X110004716Y-112522945D01*
X110005160Y-112522740D01*
X110005697Y-112522209D01*
X110006325Y-112521359D01*
X110007844Y-112518735D01*
X110009695Y-112514929D01*
X110011855Y-112509999D01*
X110014304Y-112504008D01*
X110019980Y-112489082D01*
X110026549Y-112470634D01*
X110033838Y-112449147D01*
X110041672Y-112425105D01*
X110049878Y-112398991D01*
X110132428Y-112134408D01*
X110174761Y-112000000D01*
X110510252Y-112000000D01*
X110495435Y-112033867D01*
G37*
G36*
X115686561Y-112229658D02*
G01*
X115687470Y-112322262D01*
X115689868Y-112403754D01*
X115691470Y-112437604D01*
X115693258Y-112465402D01*
X115695170Y-112486056D01*
X115697144Y-112498475D01*
X115700589Y-112509474D01*
X115704568Y-112519842D01*
X115709068Y-112529568D01*
X115711510Y-112534187D01*
X115714077Y-112538642D01*
X115716768Y-112542931D01*
X115719581Y-112547052D01*
X115722516Y-112551005D01*
X115725570Y-112554788D01*
X115728741Y-112558399D01*
X115732029Y-112561838D01*
X115735432Y-112565103D01*
X115738948Y-112568193D01*
X115742575Y-112571105D01*
X115746313Y-112573840D01*
X115750159Y-112576395D01*
X115754112Y-112578770D01*
X115758170Y-112580962D01*
X115762332Y-112582971D01*
X115766597Y-112584795D01*
X115770962Y-112586432D01*
X115775427Y-112587882D01*
X115779989Y-112589144D01*
X115784648Y-112590214D01*
X115789400Y-112591094D01*
X115794246Y-112591780D01*
X115799184Y-112592272D01*
X115804211Y-112592568D01*
X115809327Y-112592667D01*
X115828178Y-112592469D01*
X115836738Y-112592139D01*
X115844746Y-112591581D01*
X115852219Y-112590741D01*
X115859177Y-112589562D01*
X115865638Y-112587990D01*
X115871620Y-112585969D01*
X115877141Y-112583445D01*
X115882220Y-112580361D01*
X115886876Y-112576663D01*
X115891127Y-112572296D01*
X115894990Y-112567203D01*
X115898486Y-112561331D01*
X115901631Y-112554624D01*
X115904445Y-112547026D01*
X115906945Y-112538482D01*
X115909151Y-112528938D01*
X115911081Y-112518337D01*
X115912752Y-112506625D01*
X115914184Y-112493747D01*
X115915395Y-112479646D01*
X115916404Y-112464269D01*
X115917228Y-112447559D01*
X115918396Y-112409922D01*
X115919049Y-112366293D01*
X115919332Y-112316230D01*
X115919394Y-112259292D01*
X115919394Y-112000000D01*
X116236894Y-112000000D01*
X116236894Y-112304800D01*
X116236497Y-112420594D01*
X116234909Y-112511820D01*
X116231536Y-112582383D01*
X116228993Y-112611137D01*
X116225781Y-112636190D01*
X116221825Y-112658032D01*
X116217050Y-112677149D01*
X116211382Y-112694031D01*
X116204747Y-112709166D01*
X116197070Y-112723042D01*
X116188276Y-112736147D01*
X116178293Y-112748970D01*
X116167044Y-112762000D01*
X116157515Y-112771960D01*
X116147566Y-112781209D01*
X116137173Y-112789754D01*
X116126314Y-112797603D01*
X116114965Y-112804763D01*
X116103103Y-112811243D01*
X116090705Y-112817050D01*
X116077747Y-112822193D01*
X116064206Y-112826677D01*
X116050059Y-112830512D01*
X116035282Y-112833706D01*
X116019853Y-112836265D01*
X116003748Y-112838198D01*
X115986943Y-112839512D01*
X115969416Y-112840216D01*
X115951144Y-112840316D01*
X115933064Y-112839990D01*
X115915696Y-112838998D01*
X115898982Y-112837317D01*
X115882865Y-112834926D01*
X115867287Y-112831803D01*
X115852192Y-112827927D01*
X115837521Y-112823275D01*
X115823218Y-112817827D01*
X115809225Y-112811560D01*
X115795484Y-112804453D01*
X115781939Y-112796484D01*
X115768532Y-112787631D01*
X115755205Y-112777873D01*
X115741902Y-112767188D01*
X115728564Y-112755554D01*
X115715136Y-112742950D01*
X115665394Y-112694266D01*
X115665394Y-112825500D01*
X115369060Y-112825500D01*
X115369060Y-112000000D01*
X115686561Y-112000000D01*
X115686561Y-112229658D01*
G37*
G36*
X114153199Y-112339904D02*
G01*
X114157666Y-112377428D01*
X114159243Y-112415311D01*
X114157907Y-112453258D01*
X114153636Y-112490972D01*
X114146404Y-112528158D01*
X114141671Y-112546460D01*
X114136190Y-112564519D01*
X114129957Y-112582297D01*
X114122970Y-112599759D01*
X114115225Y-112616866D01*
X114106721Y-112633582D01*
X114097453Y-112649869D01*
X114087419Y-112665691D01*
X114073611Y-112685395D01*
X114059507Y-112703663D01*
X114045010Y-112720549D01*
X114037583Y-112728489D01*
X114030021Y-112736104D01*
X114022311Y-112743399D01*
X114014443Y-112750381D01*
X114006402Y-112757058D01*
X113998178Y-112763434D01*
X113989757Y-112769518D01*
X113981128Y-112775315D01*
X113972279Y-112780833D01*
X113963197Y-112786077D01*
X113953870Y-112791054D01*
X113944286Y-112795772D01*
X113934432Y-112800236D01*
X113924297Y-112804453D01*
X113913868Y-112808430D01*
X113903133Y-112812173D01*
X113880697Y-112818984D01*
X113856890Y-112824940D01*
X113831614Y-112830093D01*
X113804773Y-112834495D01*
X113776269Y-112838200D01*
X113744388Y-112841180D01*
X113712711Y-112842989D01*
X113681344Y-112843648D01*
X113650393Y-112843177D01*
X113619963Y-112841596D01*
X113590159Y-112838925D01*
X113561087Y-112835185D01*
X113532852Y-112830395D01*
X113505560Y-112824575D01*
X113479315Y-112817746D01*
X113454224Y-112809928D01*
X113430392Y-112801142D01*
X113407924Y-112791406D01*
X113386926Y-112780742D01*
X113367503Y-112769169D01*
X113349760Y-112756708D01*
X113339640Y-112748454D01*
X113329222Y-112739289D01*
X113318655Y-112729396D01*
X113308089Y-112718955D01*
X113297671Y-112708149D01*
X113287550Y-112697158D01*
X113277876Y-112686164D01*
X113268798Y-112675349D01*
X113260464Y-112664893D01*
X113253022Y-112654978D01*
X113246623Y-112645786D01*
X113241414Y-112637497D01*
X113237544Y-112630293D01*
X113235163Y-112624357D01*
X113234577Y-112621920D01*
X113234419Y-112619868D01*
X113234707Y-112618223D01*
X113235460Y-112617008D01*
X113236045Y-112616596D01*
X113236998Y-112616155D01*
X113239969Y-112615189D01*
X113244295Y-112614125D01*
X113249897Y-112612973D01*
X113264612Y-112610460D01*
X113283483Y-112607748D01*
X113305875Y-112604937D01*
X113331157Y-112602125D01*
X113358697Y-112599413D01*
X113387861Y-112596900D01*
X113531794Y-112584200D01*
X113566719Y-112613833D01*
X113574684Y-112620488D01*
X113582885Y-112626564D01*
X113591298Y-112632068D01*
X113599900Y-112637003D01*
X113608666Y-112641374D01*
X113617572Y-112645187D01*
X113626594Y-112648446D01*
X113635709Y-112651156D01*
X113644892Y-112653322D01*
X113654119Y-112654948D01*
X113663367Y-112656040D01*
X113672610Y-112656603D01*
X113681826Y-112656640D01*
X113690989Y-112656158D01*
X113700077Y-112655161D01*
X113709065Y-112653653D01*
X113717928Y-112651640D01*
X113726644Y-112649126D01*
X113735187Y-112646117D01*
X113743535Y-112642617D01*
X113751662Y-112638631D01*
X113759545Y-112634163D01*
X113767160Y-112629220D01*
X113774483Y-112623805D01*
X113781489Y-112617923D01*
X113788155Y-112611579D01*
X113794457Y-112604779D01*
X113800371Y-112597526D01*
X113805872Y-112589826D01*
X113810936Y-112581684D01*
X113815541Y-112573104D01*
X113819660Y-112564092D01*
X113829843Y-112540868D01*
X113831707Y-112536054D01*
X113833171Y-112531607D01*
X113834171Y-112527514D01*
X113834643Y-112523759D01*
X113834660Y-112522004D01*
X113834522Y-112520328D01*
X113834219Y-112518730D01*
X113833745Y-112517207D01*
X113833090Y-112515758D01*
X113832248Y-112514380D01*
X113831209Y-112513073D01*
X113829967Y-112511834D01*
X113828512Y-112510662D01*
X113826838Y-112509554D01*
X113824935Y-112508509D01*
X113822797Y-112507525D01*
X113817780Y-112505733D01*
X113811723Y-112504163D01*
X113804562Y-112502801D01*
X113796234Y-112501632D01*
X113786674Y-112500642D01*
X113775818Y-112499816D01*
X113763603Y-112499140D01*
X113749964Y-112498599D01*
X113734838Y-112498178D01*
X113718160Y-112497863D01*
X113679894Y-112497493D01*
X113634655Y-112497373D01*
X113521210Y-112497416D01*
X113206886Y-112497416D01*
X113213235Y-112398991D01*
X113217529Y-112352965D01*
X113219823Y-112338667D01*
X113527560Y-112338667D01*
X113837652Y-112338667D01*
X113831303Y-112301625D01*
X113829398Y-112292480D01*
X113826881Y-112283338D01*
X113823784Y-112274247D01*
X113820140Y-112265261D01*
X113815982Y-112256430D01*
X113811341Y-112247805D01*
X113806250Y-112239437D01*
X113800743Y-112231378D01*
X113794851Y-112223678D01*
X113788607Y-112216390D01*
X113782044Y-112209563D01*
X113775194Y-112203249D01*
X113768090Y-112197500D01*
X113760764Y-112192366D01*
X113753249Y-112187899D01*
X113745577Y-112184150D01*
X113737669Y-112180874D01*
X113729092Y-112178182D01*
X113719948Y-112176064D01*
X113710338Y-112174509D01*
X113700361Y-112173506D01*
X113690120Y-112173043D01*
X113679714Y-112173111D01*
X113669245Y-112173699D01*
X113658813Y-112174795D01*
X113648518Y-112176388D01*
X113638463Y-112178468D01*
X113628747Y-112181024D01*
X113619471Y-112184046D01*
X113610737Y-112187521D01*
X113602644Y-112191440D01*
X113595294Y-112195792D01*
X113592829Y-112197444D01*
X113590395Y-112199226D01*
X113587994Y-112201137D01*
X113585624Y-112203175D01*
X113583287Y-112205341D01*
X113580983Y-112207633D01*
X113576475Y-112212593D01*
X113572104Y-112218049D01*
X113567872Y-112223994D01*
X113563783Y-112230424D01*
X113559840Y-112237331D01*
X113556045Y-112244709D01*
X113552402Y-112252553D01*
X113548915Y-112260855D01*
X113545585Y-112269610D01*
X113542417Y-112278812D01*
X113539413Y-112288454D01*
X113536576Y-112298529D01*
X113533910Y-112309033D01*
X113527560Y-112338667D01*
X113219823Y-112338667D01*
X113224466Y-112309730D01*
X113228930Y-112289156D01*
X113234060Y-112269276D01*
X113239857Y-112250089D01*
X113246325Y-112231593D01*
X113253463Y-112213787D01*
X113261275Y-112196669D01*
X113269761Y-112180239D01*
X113278924Y-112164494D01*
X113288766Y-112149434D01*
X113299287Y-112135057D01*
X113310490Y-112121362D01*
X113322376Y-112108347D01*
X113334948Y-112096011D01*
X113348206Y-112084353D01*
X113362154Y-112073371D01*
X113376791Y-112063064D01*
X113392121Y-112053430D01*
X113408145Y-112044469D01*
X113424865Y-112036179D01*
X113442282Y-112028558D01*
X113460398Y-112021606D01*
X113479215Y-112015320D01*
X113498735Y-112009700D01*
X113518960Y-112004744D01*
X113539890Y-112000450D01*
X113561528Y-111996818D01*
X113606936Y-111991533D01*
X113624807Y-111990047D01*
X113643150Y-111988772D01*
X113679167Y-111986903D01*
X113695798Y-111986335D01*
X113710818Y-111986027D01*
X113723704Y-111985991D01*
X113733936Y-111986242D01*
X113757847Y-111988226D01*
X113781160Y-111991002D01*
X113803871Y-111994569D01*
X113825978Y-111998925D01*
X113847477Y-112004069D01*
X113868365Y-112009998D01*
X113888639Y-112016712D01*
X113908296Y-112024209D01*
X113927333Y-112032488D01*
X113945747Y-112041546D01*
X113963535Y-112051382D01*
X113980693Y-112061995D01*
X113997218Y-112073383D01*
X114013108Y-112085545D01*
X114028359Y-112098479D01*
X114042969Y-112112183D01*
X114055330Y-112125218D01*
X114067013Y-112138898D01*
X114078014Y-112153186D01*
X114088330Y-112168045D01*
X114097959Y-112183439D01*
X114106898Y-112199329D01*
X114115143Y-112215679D01*
X114122691Y-112232453D01*
X114129541Y-112249612D01*
X114135688Y-112267121D01*
X114145865Y-112303037D01*
X114152952Y-112338667D01*
X114153199Y-112339904D01*
G37*
G36*
X114752352Y-111987062D02*
G01*
X114789133Y-111988630D01*
X114827194Y-111991533D01*
X114856126Y-111994785D01*
X114884523Y-111999739D01*
X114912298Y-112006337D01*
X114939360Y-112014519D01*
X114965623Y-112024226D01*
X114990998Y-112035400D01*
X115015395Y-112047982D01*
X115038728Y-112061912D01*
X115060907Y-112077133D01*
X115081845Y-112093584D01*
X115101452Y-112111207D01*
X115119641Y-112129943D01*
X115136323Y-112149734D01*
X115151410Y-112170520D01*
X115164813Y-112192242D01*
X115176444Y-112214842D01*
X115186093Y-112237475D01*
X115194407Y-112261567D01*
X115201387Y-112286891D01*
X115207036Y-112313217D01*
X115211359Y-112340318D01*
X115214358Y-112367967D01*
X115216036Y-112395935D01*
X115216396Y-112423995D01*
X115215441Y-112451918D01*
X115213175Y-112479477D01*
X115209601Y-112506443D01*
X115204721Y-112532590D01*
X115198539Y-112557688D01*
X115191058Y-112581511D01*
X115182280Y-112603829D01*
X115172210Y-112624416D01*
X115165543Y-112636240D01*
X115158635Y-112647700D01*
X115151481Y-112658800D01*
X115144075Y-112669544D01*
X115136413Y-112679935D01*
X115128490Y-112689975D01*
X115120299Y-112699668D01*
X115111836Y-112709017D01*
X115103095Y-112718025D01*
X115094072Y-112726694D01*
X115084760Y-112735029D01*
X115075156Y-112743033D01*
X115065253Y-112750707D01*
X115055046Y-112758056D01*
X115044530Y-112765082D01*
X115033701Y-112771789D01*
X115022552Y-112778180D01*
X115011078Y-112784258D01*
X114999275Y-112790026D01*
X114987136Y-112795486D01*
X114974657Y-112800643D01*
X114961833Y-112805499D01*
X114948658Y-112810057D01*
X114935127Y-112814321D01*
X114906976Y-112821978D01*
X114877338Y-112828493D01*
X114846172Y-112833892D01*
X114813435Y-112838200D01*
X114766731Y-112842157D01*
X114721881Y-112843717D01*
X114678904Y-112842886D01*
X114637818Y-112839672D01*
X114598642Y-112834082D01*
X114561395Y-112826126D01*
X114526095Y-112815810D01*
X114492760Y-112803142D01*
X114461410Y-112788131D01*
X114432063Y-112770783D01*
X114404738Y-112751106D01*
X114379453Y-112729109D01*
X114356226Y-112704798D01*
X114335077Y-112678183D01*
X114316024Y-112649270D01*
X114299085Y-112618067D01*
X114292609Y-112604678D01*
X114286766Y-112591724D01*
X114281691Y-112579539D01*
X114277522Y-112568457D01*
X114274395Y-112558814D01*
X114273264Y-112554637D01*
X114272445Y-112550945D01*
X114271955Y-112547780D01*
X114271811Y-112545184D01*
X114272029Y-112543199D01*
X114272279Y-112542449D01*
X114272627Y-112541866D01*
X114273106Y-112541355D01*
X114273942Y-112540814D01*
X114276646Y-112539651D01*
X114280664Y-112538388D01*
X114285923Y-112537038D01*
X114292347Y-112535614D01*
X114299863Y-112534127D01*
X114317871Y-112531019D01*
X114339352Y-112527811D01*
X114363710Y-112524602D01*
X114390350Y-112521494D01*
X114418677Y-112518583D01*
X114463032Y-112514428D01*
X114497093Y-112511539D01*
X114522373Y-112509988D01*
X114532193Y-112509739D01*
X114540386Y-112509852D01*
X114547139Y-112510337D01*
X114552643Y-112511204D01*
X114557087Y-112512461D01*
X114560659Y-112514118D01*
X114563549Y-112516185D01*
X114565947Y-112518670D01*
X114568040Y-112521583D01*
X114570019Y-112524933D01*
X114571205Y-112527098D01*
X114572760Y-112529605D01*
X114574656Y-112532421D01*
X114576865Y-112535516D01*
X114582111Y-112542420D01*
X114588275Y-112550069D01*
X114595134Y-112558213D01*
X114602463Y-112566605D01*
X114610041Y-112574997D01*
X114617644Y-112583141D01*
X114624641Y-112590019D01*
X114631926Y-112596366D01*
X114639476Y-112602186D01*
X114647269Y-112607481D01*
X114655282Y-112612255D01*
X114663492Y-112616509D01*
X114671878Y-112620248D01*
X114680416Y-112623474D01*
X114689085Y-112626190D01*
X114697861Y-112628398D01*
X114706723Y-112630103D01*
X114715647Y-112631306D01*
X114724612Y-112632011D01*
X114733594Y-112632220D01*
X114742572Y-112631936D01*
X114751523Y-112631163D01*
X114760424Y-112629903D01*
X114769253Y-112628160D01*
X114777988Y-112625935D01*
X114786605Y-112623232D01*
X114795083Y-112620054D01*
X114803399Y-112616404D01*
X114811530Y-112612284D01*
X114819455Y-112607698D01*
X114827150Y-112602649D01*
X114834593Y-112597138D01*
X114841762Y-112591170D01*
X114848633Y-112584748D01*
X114855186Y-112577873D01*
X114861396Y-112570549D01*
X114867243Y-112562779D01*
X114872702Y-112554566D01*
X114876476Y-112548174D01*
X114879871Y-112542026D01*
X114882906Y-112536016D01*
X114885601Y-112530043D01*
X114887972Y-112524001D01*
X114890041Y-112517787D01*
X114891823Y-112511298D01*
X114893340Y-112504428D01*
X114894608Y-112497075D01*
X114895646Y-112489134D01*
X114896474Y-112480502D01*
X114897110Y-112471074D01*
X114897572Y-112460747D01*
X114897879Y-112449417D01*
X114898049Y-112436981D01*
X114898102Y-112423333D01*
X114897529Y-112397060D01*
X114895797Y-112372595D01*
X114892891Y-112349910D01*
X114888792Y-112328976D01*
X114883484Y-112309766D01*
X114880371Y-112300799D01*
X114876950Y-112292253D01*
X114873217Y-112284123D01*
X114869172Y-112276407D01*
X114864812Y-112269101D01*
X114860134Y-112262202D01*
X114855137Y-112255706D01*
X114849819Y-112249609D01*
X114844177Y-112243908D01*
X114838209Y-112238600D01*
X114831913Y-112233681D01*
X114825287Y-112229148D01*
X114818330Y-112224997D01*
X114811037Y-112221225D01*
X114803409Y-112217827D01*
X114795442Y-112214802D01*
X114787134Y-112212144D01*
X114778483Y-112209852D01*
X114760145Y-112206346D01*
X114740410Y-112204258D01*
X114727876Y-112203624D01*
X114715690Y-112203698D01*
X114703880Y-112204470D01*
X114692471Y-112205928D01*
X114681490Y-112208063D01*
X114670963Y-112210862D01*
X114660917Y-112214316D01*
X114651378Y-112218413D01*
X114642372Y-112223143D01*
X114633926Y-112228494D01*
X114626066Y-112234457D01*
X114618818Y-112241019D01*
X114612209Y-112248170D01*
X114606265Y-112255900D01*
X114601012Y-112264196D01*
X114596477Y-112273050D01*
X114593977Y-112278313D01*
X114591609Y-112283005D01*
X114589331Y-112287151D01*
X114587101Y-112290777D01*
X114585991Y-112292402D01*
X114584877Y-112293906D01*
X114583754Y-112295293D01*
X114582618Y-112296565D01*
X114581461Y-112297725D01*
X114580280Y-112298776D01*
X114579070Y-112299723D01*
X114577824Y-112300567D01*
X114576538Y-112301311D01*
X114575206Y-112301960D01*
X114573824Y-112302515D01*
X114572386Y-112302981D01*
X114570886Y-112303360D01*
X114569320Y-112303655D01*
X114567682Y-112303869D01*
X114565967Y-112304006D01*
X114564171Y-112304069D01*
X114562286Y-112304060D01*
X114558235Y-112303841D01*
X114553770Y-112303374D01*
X114548852Y-112302683D01*
X114527603Y-112299425D01*
X114493951Y-112294878D01*
X114452560Y-112289735D01*
X114408094Y-112284692D01*
X114384124Y-112281471D01*
X114362387Y-112278176D01*
X114343130Y-112274832D01*
X114326602Y-112271462D01*
X114313050Y-112268093D01*
X114307468Y-112266416D01*
X114302723Y-112264749D01*
X114298847Y-112263093D01*
X114295869Y-112261454D01*
X114293821Y-112259833D01*
X114292735Y-112258233D01*
X114292209Y-112256144D01*
X114292012Y-112253661D01*
X114292132Y-112250805D01*
X114292557Y-112247598D01*
X114294275Y-112240218D01*
X114297068Y-112231692D01*
X114300841Y-112222193D01*
X114305497Y-112211892D01*
X114310941Y-112200961D01*
X114317077Y-112189574D01*
X114323808Y-112177901D01*
X114331038Y-112166115D01*
X114338671Y-112154388D01*
X114346611Y-112142891D01*
X114354762Y-112131798D01*
X114363028Y-112121280D01*
X114371312Y-112111510D01*
X114379519Y-112102658D01*
X114388039Y-112094184D01*
X114396929Y-112086027D01*
X114415814Y-112070666D01*
X114436160Y-112056580D01*
X114457951Y-112043772D01*
X114481175Y-112032248D01*
X114505818Y-112022012D01*
X114531865Y-112013069D01*
X114559303Y-112005424D01*
X114588117Y-111999081D01*
X114618295Y-111994045D01*
X114649821Y-111990320D01*
X114682681Y-111987912D01*
X114716863Y-111986824D01*
X114752352Y-111987062D01*
G37*
G36*
X118392391Y-112437271D02*
G01*
X118391180Y-112456478D01*
X118389124Y-112475464D01*
X118386236Y-112494208D01*
X118382530Y-112512689D01*
X118378019Y-112530885D01*
X118372715Y-112548774D01*
X118366632Y-112566336D01*
X118359784Y-112583550D01*
X118352182Y-112600393D01*
X118343842Y-112616844D01*
X118334775Y-112632883D01*
X118324995Y-112648488D01*
X118314514Y-112663637D01*
X118303348Y-112678310D01*
X118291507Y-112692485D01*
X118279006Y-112706140D01*
X118265858Y-112719255D01*
X118252076Y-112731807D01*
X118237673Y-112743777D01*
X118222662Y-112755141D01*
X118207056Y-112765880D01*
X118190870Y-112775972D01*
X118174115Y-112785395D01*
X118156805Y-112794128D01*
X118138953Y-112802150D01*
X118120573Y-112809439D01*
X118101677Y-112815975D01*
X118073575Y-112823904D01*
X118044198Y-112830248D01*
X118013782Y-112835032D01*
X117982565Y-112838283D01*
X117950783Y-112840026D01*
X117918674Y-112840290D01*
X117886475Y-112839099D01*
X117854424Y-112836480D01*
X117822757Y-112832460D01*
X117791711Y-112827065D01*
X117761525Y-112820321D01*
X117732434Y-112812254D01*
X117704677Y-112802892D01*
X117678490Y-112792260D01*
X117654111Y-112780384D01*
X117631777Y-112767292D01*
X117612923Y-112754013D01*
X117595064Y-112739623D01*
X117578206Y-112724186D01*
X117562357Y-112707769D01*
X117547525Y-112690436D01*
X117533718Y-112672255D01*
X117520943Y-112653292D01*
X117509209Y-112633611D01*
X117498522Y-112613279D01*
X117488892Y-112592362D01*
X117480324Y-112570925D01*
X117472828Y-112549035D01*
X117466412Y-112526757D01*
X117461081Y-112504158D01*
X117456846Y-112481303D01*
X117453712Y-112458258D01*
X117451689Y-112435089D01*
X117450983Y-112416983D01*
X117768302Y-112416983D01*
X117768912Y-112440680D01*
X117770005Y-112461301D01*
X117770760Y-112470613D01*
X117771669Y-112479342D01*
X117772742Y-112487550D01*
X117773990Y-112495300D01*
X117775425Y-112502652D01*
X117777056Y-112509670D01*
X117778895Y-112516415D01*
X117780952Y-112522949D01*
X117783239Y-112529334D01*
X117785766Y-112535632D01*
X117788545Y-112541906D01*
X117791585Y-112548217D01*
X117797009Y-112557918D01*
X117802939Y-112566982D01*
X117809341Y-112575408D01*
X117816183Y-112583197D01*
X117823432Y-112590350D01*
X117831053Y-112596867D01*
X117839013Y-112602749D01*
X117847280Y-112607996D01*
X117855820Y-112612609D01*
X117864599Y-112616588D01*
X117873584Y-112619935D01*
X117882743Y-112622649D01*
X117892040Y-112624732D01*
X117901444Y-112626183D01*
X117910921Y-112627004D01*
X117920437Y-112627195D01*
X117929960Y-112626756D01*
X117939455Y-112625689D01*
X117948890Y-112623993D01*
X117958231Y-112621669D01*
X117967445Y-112618719D01*
X117976499Y-112615142D01*
X117985359Y-112610939D01*
X117993991Y-112606111D01*
X118002364Y-112600658D01*
X118010442Y-112594580D01*
X118018193Y-112587879D01*
X118025584Y-112580556D01*
X118032581Y-112572609D01*
X118039151Y-112564041D01*
X118045261Y-112554852D01*
X118050877Y-112545042D01*
X118056272Y-112533271D01*
X118060950Y-112519933D01*
X118064911Y-112505246D01*
X118068157Y-112489429D01*
X118070691Y-112472701D01*
X118072513Y-112455280D01*
X118073625Y-112437384D01*
X118074028Y-112419232D01*
X118073724Y-112401043D01*
X118072715Y-112383036D01*
X118071003Y-112365428D01*
X118068587Y-112348440D01*
X118065472Y-112332288D01*
X118061657Y-112317192D01*
X118057144Y-112303370D01*
X118051935Y-112291042D01*
X118047820Y-112283266D01*
X118043420Y-112275817D01*
X118038750Y-112268698D01*
X118033822Y-112261915D01*
X118028649Y-112255470D01*
X118023246Y-112249367D01*
X118017626Y-112243612D01*
X118011801Y-112238208D01*
X118005786Y-112233158D01*
X117999593Y-112228468D01*
X117993237Y-112224141D01*
X117986730Y-112220181D01*
X117980086Y-112216592D01*
X117973318Y-112213379D01*
X117966439Y-112210545D01*
X117959463Y-112208095D01*
X117952404Y-112206032D01*
X117945274Y-112204361D01*
X117938088Y-112203085D01*
X117930857Y-112202210D01*
X117923597Y-112201738D01*
X117916319Y-112201674D01*
X117909039Y-112202022D01*
X117901768Y-112202786D01*
X117894520Y-112203971D01*
X117887309Y-112205579D01*
X117880148Y-112207616D01*
X117873050Y-112210085D01*
X117866029Y-112212991D01*
X117859098Y-112216337D01*
X117852271Y-112220127D01*
X117845560Y-112224367D01*
X117840404Y-112228076D01*
X117835449Y-112231867D01*
X117830694Y-112235745D01*
X117826136Y-112239719D01*
X117821773Y-112243793D01*
X117817601Y-112247977D01*
X117813620Y-112252275D01*
X117809825Y-112256695D01*
X117806215Y-112261244D01*
X117802786Y-112265929D01*
X117799537Y-112270755D01*
X117796465Y-112275731D01*
X117793568Y-112280862D01*
X117790842Y-112286156D01*
X117788286Y-112291620D01*
X117785897Y-112297259D01*
X117783671Y-112303082D01*
X117781608Y-112309094D01*
X117779704Y-112315303D01*
X117777957Y-112321715D01*
X117776364Y-112328337D01*
X117774923Y-112335176D01*
X117773631Y-112342238D01*
X117772486Y-112349531D01*
X117770625Y-112364835D01*
X117769321Y-112381142D01*
X117768553Y-112398507D01*
X117768302Y-112416983D01*
X117450983Y-112416983D01*
X117450783Y-112411862D01*
X117451003Y-112388643D01*
X117452356Y-112365497D01*
X117454851Y-112342491D01*
X117458493Y-112319690D01*
X117463293Y-112297160D01*
X117469257Y-112274968D01*
X117476392Y-112253179D01*
X117484708Y-112231859D01*
X117494211Y-112211073D01*
X117504909Y-112190888D01*
X117516811Y-112171370D01*
X117529923Y-112152585D01*
X117544253Y-112134598D01*
X117559810Y-112117475D01*
X117577559Y-112100537D01*
X117596625Y-112084662D01*
X117616937Y-112069873D01*
X117638425Y-112056191D01*
X117661016Y-112043637D01*
X117684640Y-112032234D01*
X117709225Y-112022002D01*
X117734700Y-112012965D01*
X117760993Y-112005142D01*
X117788034Y-111998557D01*
X117815751Y-111993231D01*
X117844072Y-111989185D01*
X117872927Y-111986442D01*
X117902243Y-111985022D01*
X117931950Y-111984948D01*
X117961977Y-111986242D01*
X118003822Y-111990571D01*
X118043977Y-111997565D01*
X118082365Y-112007157D01*
X118118908Y-112019281D01*
X118153529Y-112033874D01*
X118186149Y-112050870D01*
X118216693Y-112070204D01*
X118231161Y-112080727D01*
X118245081Y-112091810D01*
X118258443Y-112103445D01*
X118271237Y-112115624D01*
X118283454Y-112128339D01*
X118295083Y-112141581D01*
X118306116Y-112155342D01*
X118316542Y-112169615D01*
X118326352Y-112184390D01*
X118335536Y-112199661D01*
X118344084Y-112215418D01*
X118351987Y-112231654D01*
X118359235Y-112248361D01*
X118365818Y-112265530D01*
X118371727Y-112283153D01*
X118376952Y-112301222D01*
X118381483Y-112319730D01*
X118385310Y-112338667D01*
X118388522Y-112358659D01*
X118390822Y-112378536D01*
X118392225Y-112398279D01*
X118392743Y-112417864D01*
X118392718Y-112419232D01*
X118392391Y-112437271D01*
G37*
G36*
X118618216Y-111987880D02*
G01*
X118624704Y-111988538D01*
X118630844Y-111989417D01*
X118640746Y-111991404D01*
X118650233Y-111993809D01*
X118659335Y-111996651D01*
X118668084Y-111999950D01*
X118676510Y-112003727D01*
X118684645Y-112008001D01*
X118692520Y-112012794D01*
X118700165Y-112018124D01*
X118707611Y-112024012D01*
X118714890Y-112030479D01*
X118722033Y-112037544D01*
X118729070Y-112045227D01*
X118736033Y-112053549D01*
X118742953Y-112062530D01*
X118749860Y-112072191D01*
X118756785Y-112082550D01*
X118787477Y-112131233D01*
X118787477Y-112000000D01*
X119083810Y-112000000D01*
X119083810Y-112825500D01*
X118766310Y-112825500D01*
X118766310Y-112647700D01*
X118765733Y-112582850D01*
X118763927Y-112524284D01*
X118760778Y-112471790D01*
X118756174Y-112425152D01*
X118750000Y-112384158D01*
X118742144Y-112348593D01*
X118732494Y-112318242D01*
X118726960Y-112304956D01*
X118720934Y-112292894D01*
X118714404Y-112282028D01*
X118707353Y-112272332D01*
X118699770Y-112263780D01*
X118691638Y-112256344D01*
X118682944Y-112249998D01*
X118673674Y-112244715D01*
X118663814Y-112240469D01*
X118653350Y-112237232D01*
X118642267Y-112234978D01*
X118630551Y-112233680D01*
X118618188Y-112233312D01*
X118605164Y-112233846D01*
X118577077Y-112237516D01*
X118546177Y-112244475D01*
X118545250Y-112244658D01*
X118544255Y-112244613D01*
X118543193Y-112244341D01*
X118542063Y-112243844D01*
X118540867Y-112243123D01*
X118539605Y-112242180D01*
X118538277Y-112241015D01*
X118536883Y-112239630D01*
X118535424Y-112238026D01*
X118533901Y-112236205D01*
X118532313Y-112234169D01*
X118530661Y-112231917D01*
X118527168Y-112226777D01*
X118523423Y-112220795D01*
X118519430Y-112213981D01*
X118515192Y-112206348D01*
X118510712Y-112197905D01*
X118505993Y-112188664D01*
X118501039Y-112178636D01*
X118495852Y-112167830D01*
X118490436Y-112156259D01*
X118484794Y-112143933D01*
X118466802Y-112102890D01*
X118451985Y-112067998D01*
X118441931Y-112043028D01*
X118439186Y-112035442D01*
X118438227Y-112031750D01*
X118438599Y-112029457D01*
X118439692Y-112027147D01*
X118441471Y-112024828D01*
X118443899Y-112022508D01*
X118446941Y-112020195D01*
X118450561Y-112017897D01*
X118454724Y-112015622D01*
X118459393Y-112013378D01*
X118470111Y-112009014D01*
X118482429Y-112004868D01*
X118496061Y-112001004D01*
X118510723Y-111997486D01*
X118526128Y-111994378D01*
X118541993Y-111991742D01*
X118558031Y-111989643D01*
X118573958Y-111988143D01*
X118589488Y-111987307D01*
X118604336Y-111987199D01*
X118618216Y-111987880D01*
G37*
G36*
X111474394Y-112825500D02*
G01*
X111178061Y-112825500D01*
X111178061Y-112712258D01*
X111133611Y-112754592D01*
X111121372Y-112765844D01*
X111109220Y-112776203D01*
X111097092Y-112785690D01*
X111084928Y-112794329D01*
X111072664Y-112802143D01*
X111060239Y-112809156D01*
X111047590Y-112815390D01*
X111034657Y-112820870D01*
X111021376Y-112825617D01*
X111007686Y-112829657D01*
X110993524Y-112833011D01*
X110978830Y-112835703D01*
X110963539Y-112837756D01*
X110947592Y-112839194D01*
X110930925Y-112840040D01*
X110913477Y-112840316D01*
X110890979Y-112840044D01*
X110880874Y-112839675D01*
X110871408Y-112839126D01*
X110862488Y-112838379D01*
X110854020Y-112837414D01*
X110845912Y-112836214D01*
X110838071Y-112834760D01*
X110830403Y-112833033D01*
X110822816Y-112831015D01*
X110815217Y-112828686D01*
X110807512Y-112826029D01*
X110799609Y-112823025D01*
X110791414Y-112819654D01*
X110773778Y-112811742D01*
X110760093Y-112804653D01*
X110746824Y-112796891D01*
X110733978Y-112788471D01*
X110721562Y-112779409D01*
X110709582Y-112769718D01*
X110698045Y-112759414D01*
X110686958Y-112748513D01*
X110676328Y-112737030D01*
X110666162Y-112724979D01*
X110656465Y-112712375D01*
X110647246Y-112699235D01*
X110638511Y-112685572D01*
X110630267Y-112671403D01*
X110622520Y-112656742D01*
X110615277Y-112641604D01*
X110608545Y-112626004D01*
X110602331Y-112609958D01*
X110596642Y-112593480D01*
X110591483Y-112576587D01*
X110586864Y-112559292D01*
X110582789Y-112541611D01*
X110579265Y-112523559D01*
X110576301Y-112505152D01*
X110573901Y-112486403D01*
X110572074Y-112467329D01*
X110570825Y-112447945D01*
X110570162Y-112428266D01*
X110570092Y-112408306D01*
X110570390Y-112396893D01*
X110883877Y-112396893D01*
X110883976Y-112411900D01*
X110884670Y-112427419D01*
X110885960Y-112443441D01*
X110888655Y-112464480D01*
X110891994Y-112483960D01*
X110895999Y-112501908D01*
X110900694Y-112518352D01*
X110906103Y-112533320D01*
X110912247Y-112546840D01*
X110915603Y-112553066D01*
X110919151Y-112558940D01*
X110922896Y-112564466D01*
X110926839Y-112569648D01*
X110930983Y-112574488D01*
X110935332Y-112578991D01*
X110939888Y-112583160D01*
X110944655Y-112586999D01*
X110949634Y-112590510D01*
X110954830Y-112593697D01*
X110960245Y-112596565D01*
X110965882Y-112599116D01*
X110971743Y-112601353D01*
X110977832Y-112603281D01*
X110984152Y-112604903D01*
X110990705Y-112606222D01*
X111004524Y-112607966D01*
X111019311Y-112608541D01*
X111026935Y-112608476D01*
X111033971Y-112608267D01*
X111040472Y-112607893D01*
X111046497Y-112607334D01*
X111052100Y-112606571D01*
X111057336Y-112605584D01*
X111062263Y-112604351D01*
X111066936Y-112602853D01*
X111071410Y-112601070D01*
X111075741Y-112598981D01*
X111079986Y-112596567D01*
X111084200Y-112593808D01*
X111088438Y-112590682D01*
X111092757Y-112587170D01*
X111097213Y-112583252D01*
X111101861Y-112578908D01*
X111106437Y-112574251D01*
X111110836Y-112569219D01*
X111115056Y-112563830D01*
X111119094Y-112558099D01*
X111126610Y-112545680D01*
X111133363Y-112532093D01*
X111139327Y-112517471D01*
X111144481Y-112501945D01*
X111148801Y-112485647D01*
X111152264Y-112468709D01*
X111154846Y-112451263D01*
X111156524Y-112433439D01*
X111157275Y-112415371D01*
X111157076Y-112397189D01*
X111155903Y-112379026D01*
X111153733Y-112361014D01*
X111150544Y-112343283D01*
X111146310Y-112325967D01*
X111143571Y-112317197D01*
X111140329Y-112308752D01*
X111136612Y-112300642D01*
X111132445Y-112292875D01*
X111127852Y-112285461D01*
X111122861Y-112278409D01*
X111117496Y-112271728D01*
X111111783Y-112265427D01*
X111105747Y-112259515D01*
X111099414Y-112254001D01*
X111092811Y-112248894D01*
X111085961Y-112244204D01*
X111078891Y-112239940D01*
X111071627Y-112236110D01*
X111064194Y-112232724D01*
X111056617Y-112229791D01*
X111048923Y-112227319D01*
X111041136Y-112225319D01*
X111033282Y-112223799D01*
X111025388Y-112222769D01*
X111017478Y-112222237D01*
X111009578Y-112222212D01*
X111001714Y-112222704D01*
X110993911Y-112223722D01*
X110986195Y-112225274D01*
X110978591Y-112227371D01*
X110971125Y-112230020D01*
X110963823Y-112233232D01*
X110956710Y-112237015D01*
X110949811Y-112241379D01*
X110943153Y-112246332D01*
X110936761Y-112251883D01*
X110932867Y-112255632D01*
X110929121Y-112259534D01*
X110925524Y-112263590D01*
X110922077Y-112267798D01*
X110915627Y-112276665D01*
X110909773Y-112286130D01*
X110904515Y-112296184D01*
X110899852Y-112306819D01*
X110895784Y-112318028D01*
X110892311Y-112329803D01*
X110889433Y-112342136D01*
X110887151Y-112355019D01*
X110885465Y-112368445D01*
X110884373Y-112382405D01*
X110883877Y-112396893D01*
X110570390Y-112396893D01*
X110570620Y-112388081D01*
X110571755Y-112367606D01*
X110573502Y-112346896D01*
X110575869Y-112325967D01*
X110579775Y-112298708D01*
X110584741Y-112272500D01*
X110590761Y-112247353D01*
X110597830Y-112223275D01*
X110605940Y-112200277D01*
X110615086Y-112178366D01*
X110625261Y-112157554D01*
X110636459Y-112137848D01*
X110648674Y-112119258D01*
X110661900Y-112101794D01*
X110676131Y-112085465D01*
X110691360Y-112070280D01*
X110707581Y-112056248D01*
X110724788Y-112043379D01*
X110742975Y-112031682D01*
X110762136Y-112021167D01*
X110770208Y-112017032D01*
X110777852Y-112013345D01*
X110785206Y-112010079D01*
X110792414Y-112007210D01*
X110799615Y-112004713D01*
X110806952Y-112002563D01*
X110814564Y-112000736D01*
X110822593Y-111999206D01*
X110831180Y-111997949D01*
X110840467Y-111996941D01*
X110850594Y-111996155D01*
X110861702Y-111995568D01*
X110873932Y-111995155D01*
X110887426Y-111994890D01*
X110918769Y-111994708D01*
X110948925Y-111994927D01*
X110974084Y-111995667D01*
X110985056Y-111996271D01*
X110995100Y-111997052D01*
X111004322Y-111998025D01*
X111012829Y-111999206D01*
X111020728Y-112000610D01*
X111028127Y-112002253D01*
X111035132Y-112004150D01*
X111041850Y-112006317D01*
X111048389Y-112008769D01*
X111054854Y-112011522D01*
X111061354Y-112014591D01*
X111067994Y-112017992D01*
X111076785Y-112022973D01*
X111085539Y-112028277D01*
X111094020Y-112033730D01*
X111101993Y-112039158D01*
X111109221Y-112044388D01*
X111115470Y-112049245D01*
X111120503Y-112053557D01*
X111122490Y-112055454D01*
X111124085Y-112057150D01*
X111125684Y-112058910D01*
X111127300Y-112060612D01*
X111128925Y-112062250D01*
X111130551Y-112063814D01*
X111132172Y-112065298D01*
X111133778Y-112066694D01*
X111135363Y-112067993D01*
X111136918Y-112069188D01*
X111138436Y-112070272D01*
X111139909Y-112071237D01*
X111141329Y-112072074D01*
X111142689Y-112072777D01*
X111143981Y-112073337D01*
X111145196Y-112073746D01*
X111146328Y-112073998D01*
X111146860Y-112074062D01*
X111147369Y-112074083D01*
X111147862Y-112073834D01*
X111148348Y-112073095D01*
X111149297Y-112070195D01*
X111150213Y-112065481D01*
X111151089Y-112059052D01*
X111151923Y-112051003D01*
X111152708Y-112041434D01*
X111154116Y-112018124D01*
X111155275Y-111989902D01*
X111156150Y-111957551D01*
X111156702Y-111921851D01*
X111156894Y-111883583D01*
X111156894Y-111693083D01*
X111474394Y-111693083D01*
X111474394Y-112415371D01*
X111474394Y-112825500D01*
G37*
G36*
X113099576Y-112453878D02*
G01*
X113095165Y-112496077D01*
X113087901Y-112536831D01*
X113077884Y-112575934D01*
X113065213Y-112613179D01*
X113049987Y-112648361D01*
X113032306Y-112681274D01*
X113012268Y-112711710D01*
X112989973Y-112739465D01*
X112965519Y-112764332D01*
X112952514Y-112775617D01*
X112939007Y-112786104D01*
X112925010Y-112795765D01*
X112910536Y-112804575D01*
X112895596Y-112812509D01*
X112880204Y-112819540D01*
X112864371Y-112825643D01*
X112848111Y-112830792D01*
X112826317Y-112836285D01*
X112804976Y-112840455D01*
X112784068Y-112843295D01*
X112763576Y-112844798D01*
X112743482Y-112844955D01*
X112723765Y-112843758D01*
X112704408Y-112841200D01*
X112685392Y-112837274D01*
X112666698Y-112831971D01*
X112648309Y-112825283D01*
X112630205Y-112817203D01*
X112612367Y-112807723D01*
X112594777Y-112796836D01*
X112577417Y-112784533D01*
X112560268Y-112770807D01*
X112543311Y-112755650D01*
X112490394Y-112705908D01*
X112490394Y-112825500D01*
X112194061Y-112825500D01*
X112194061Y-112415999D01*
X112514052Y-112415999D01*
X112514488Y-112430108D01*
X112515397Y-112444235D01*
X112516765Y-112458239D01*
X112518578Y-112471975D01*
X112520822Y-112485303D01*
X112523483Y-112498078D01*
X112526548Y-112510159D01*
X112530001Y-112521403D01*
X112533829Y-112531667D01*
X112538019Y-112540808D01*
X112541858Y-112547685D01*
X112546020Y-112554223D01*
X112550488Y-112560420D01*
X112555244Y-112566272D01*
X112560270Y-112571776D01*
X112565550Y-112576929D01*
X112571064Y-112581727D01*
X112576797Y-112586168D01*
X112582729Y-112590247D01*
X112588844Y-112593961D01*
X112595123Y-112597308D01*
X112601550Y-112600284D01*
X112608106Y-112602885D01*
X112614773Y-112605108D01*
X112621535Y-112606951D01*
X112628374Y-112608409D01*
X112635271Y-112609480D01*
X112642210Y-112610160D01*
X112649172Y-112610445D01*
X112656141Y-112610334D01*
X112663097Y-112609821D01*
X112670025Y-112608905D01*
X112676906Y-112607581D01*
X112683722Y-112605846D01*
X112690455Y-112603698D01*
X112697090Y-112601132D01*
X112703606Y-112598146D01*
X112709988Y-112594736D01*
X112716217Y-112590899D01*
X112722275Y-112586631D01*
X112728146Y-112581930D01*
X112733811Y-112576792D01*
X112740254Y-112570011D01*
X112746287Y-112562597D01*
X112751910Y-112554590D01*
X112757121Y-112546032D01*
X112761921Y-112536964D01*
X112766309Y-112527429D01*
X112770284Y-112517469D01*
X112773846Y-112507123D01*
X112779727Y-112485447D01*
X112783947Y-112462733D01*
X112786503Y-112439316D01*
X112787389Y-112415528D01*
X112786601Y-112391703D01*
X112784133Y-112368174D01*
X112779982Y-112345274D01*
X112774143Y-112323337D01*
X112770589Y-112312834D01*
X112766611Y-112302696D01*
X112762209Y-112292966D01*
X112757381Y-112283685D01*
X112752129Y-112274894D01*
X112746450Y-112266636D01*
X112740344Y-112258952D01*
X112733811Y-112251883D01*
X112729350Y-112247539D01*
X112725061Y-112243621D01*
X112720893Y-112240110D01*
X112716795Y-112236984D01*
X112712715Y-112234224D01*
X112710666Y-112232975D01*
X112708603Y-112231810D01*
X112706519Y-112230726D01*
X112704407Y-112229722D01*
X112702262Y-112228793D01*
X112700076Y-112227938D01*
X112697844Y-112227155D01*
X112695559Y-112226441D01*
X112690805Y-112225208D01*
X112685763Y-112224220D01*
X112680381Y-112223457D01*
X112674609Y-112222899D01*
X112668394Y-112222525D01*
X112661687Y-112222315D01*
X112654436Y-112222250D01*
X112646834Y-112222317D01*
X112639859Y-112222535D01*
X112633442Y-112222934D01*
X112627514Y-112223540D01*
X112622009Y-112224382D01*
X112616857Y-112225487D01*
X112611990Y-112226884D01*
X112607340Y-112228600D01*
X112602839Y-112230663D01*
X112598418Y-112233102D01*
X112594010Y-112235944D01*
X112589547Y-112239216D01*
X112584959Y-112242948D01*
X112580178Y-112247166D01*
X112575138Y-112251899D01*
X112569769Y-112257175D01*
X112566002Y-112261113D01*
X112562253Y-112265367D01*
X112558542Y-112269902D01*
X112554886Y-112274687D01*
X112551305Y-112279689D01*
X112547817Y-112284876D01*
X112544440Y-112290214D01*
X112541194Y-112295672D01*
X112538097Y-112301216D01*
X112535166Y-112306815D01*
X112532422Y-112312436D01*
X112529883Y-112318046D01*
X112527567Y-112323612D01*
X112525492Y-112329102D01*
X112523679Y-112334484D01*
X112522144Y-112339725D01*
X112519450Y-112350727D01*
X112517313Y-112362603D01*
X112515719Y-112375211D01*
X112514653Y-112388408D01*
X112514102Y-112402052D01*
X112514052Y-112415999D01*
X112194061Y-112415999D01*
X112194061Y-111693083D01*
X112511560Y-111693083D01*
X112511560Y-111883583D01*
X112512106Y-111957551D01*
X112513545Y-112018124D01*
X112514506Y-112041434D01*
X112515579Y-112059052D01*
X112516726Y-112070195D01*
X112517316Y-112073095D01*
X112517910Y-112074083D01*
X112518254Y-112074046D01*
X112518688Y-112073937D01*
X112519816Y-112073509D01*
X112521273Y-112072814D01*
X112523037Y-112071867D01*
X112525086Y-112070686D01*
X112527398Y-112069284D01*
X112532727Y-112065881D01*
X112538850Y-112061784D01*
X112545592Y-112057117D01*
X112552782Y-112052003D01*
X112560243Y-112046567D01*
X112569999Y-112039309D01*
X112579846Y-112032608D01*
X112589826Y-112026449D01*
X112599981Y-112020819D01*
X112610353Y-112015704D01*
X112620985Y-112011090D01*
X112631916Y-112006962D01*
X112643191Y-112003307D01*
X112654850Y-112000111D01*
X112666935Y-111997360D01*
X112679489Y-111995040D01*
X112692552Y-111993137D01*
X112706168Y-111991637D01*
X112720377Y-111990527D01*
X112735221Y-111989791D01*
X112750744Y-111989417D01*
X112768612Y-111989680D01*
X112785737Y-111990485D01*
X112802171Y-111991851D01*
X112817965Y-111993799D01*
X112833169Y-111996348D01*
X112847836Y-111999518D01*
X112862016Y-112003331D01*
X112875760Y-112007805D01*
X112889119Y-112012962D01*
X112902146Y-112018820D01*
X112914890Y-112025402D01*
X112927403Y-112032725D01*
X112939736Y-112040812D01*
X112951941Y-112049682D01*
X112964068Y-112059354D01*
X112976168Y-112069850D01*
X112988139Y-112081178D01*
X112999450Y-112092955D01*
X113010113Y-112105210D01*
X113020139Y-112117971D01*
X113029539Y-112131265D01*
X113038323Y-112145120D01*
X113046503Y-112159564D01*
X113054089Y-112174625D01*
X113061092Y-112190331D01*
X113067522Y-112206710D01*
X113073392Y-112223789D01*
X113078711Y-112241598D01*
X113083491Y-112260162D01*
X113087742Y-112279512D01*
X113091475Y-112299673D01*
X113094702Y-112320675D01*
X113099444Y-112365971D01*
X113101035Y-112410441D01*
X113100865Y-112415528D01*
X113099576Y-112453878D01*
G37*
G36*
X117332909Y-112453878D02*
G01*
X117328498Y-112496077D01*
X117321235Y-112536831D01*
X117311218Y-112575934D01*
X117298547Y-112613179D01*
X117283321Y-112648361D01*
X117265639Y-112681274D01*
X117245601Y-112711710D01*
X117223306Y-112739465D01*
X117198852Y-112764332D01*
X117185847Y-112775617D01*
X117172340Y-112786104D01*
X117158343Y-112795765D01*
X117143869Y-112804575D01*
X117128929Y-112812509D01*
X117113537Y-112819540D01*
X117097704Y-112825643D01*
X117081443Y-112830792D01*
X117059649Y-112836285D01*
X117038308Y-112840455D01*
X117017401Y-112843295D01*
X116996909Y-112844798D01*
X116976814Y-112844955D01*
X116957098Y-112843758D01*
X116937741Y-112841200D01*
X116918725Y-112837274D01*
X116900031Y-112831971D01*
X116881642Y-112825283D01*
X116863538Y-112817203D01*
X116845700Y-112807723D01*
X116828110Y-112796836D01*
X116810750Y-112784533D01*
X116793601Y-112770807D01*
X116776644Y-112755650D01*
X116723727Y-112705908D01*
X116723727Y-112825500D01*
X116427394Y-112825500D01*
X116427394Y-112415999D01*
X116747385Y-112415999D01*
X116747821Y-112430108D01*
X116748730Y-112444235D01*
X116750098Y-112458239D01*
X116751911Y-112471975D01*
X116754155Y-112485303D01*
X116756817Y-112498078D01*
X116759881Y-112510159D01*
X116763334Y-112521403D01*
X116767162Y-112531667D01*
X116771352Y-112540808D01*
X116775191Y-112547685D01*
X116779353Y-112554223D01*
X116783821Y-112560420D01*
X116788577Y-112566272D01*
X116793603Y-112571776D01*
X116798883Y-112576929D01*
X116804398Y-112581727D01*
X116810130Y-112586168D01*
X116816062Y-112590247D01*
X116822177Y-112593961D01*
X116828456Y-112597308D01*
X116834883Y-112600284D01*
X116841439Y-112602885D01*
X116848107Y-112605108D01*
X116854869Y-112606951D01*
X116861707Y-112608409D01*
X116868604Y-112609480D01*
X116875543Y-112610160D01*
X116882505Y-112610445D01*
X116889474Y-112610334D01*
X116896431Y-112609821D01*
X116903358Y-112608905D01*
X116910239Y-112607581D01*
X116917055Y-112605846D01*
X116923788Y-112603698D01*
X116930422Y-112601132D01*
X116936939Y-112598146D01*
X116943321Y-112594736D01*
X116949550Y-112590899D01*
X116955608Y-112586631D01*
X116961479Y-112581930D01*
X116967144Y-112576792D01*
X116973586Y-112570011D01*
X116979620Y-112562597D01*
X116985242Y-112554590D01*
X116990454Y-112546032D01*
X116995254Y-112536964D01*
X116999642Y-112527429D01*
X117003617Y-112517469D01*
X117007178Y-112507123D01*
X117013059Y-112485447D01*
X117017280Y-112462733D01*
X117019836Y-112439316D01*
X117020722Y-112415528D01*
X117019933Y-112391703D01*
X117017466Y-112368174D01*
X117013315Y-112345274D01*
X117007476Y-112323337D01*
X117003922Y-112312834D01*
X116999944Y-112302696D01*
X116995542Y-112292966D01*
X116990714Y-112283685D01*
X116985461Y-112274894D01*
X116979782Y-112266636D01*
X116973677Y-112258952D01*
X116967144Y-112251883D01*
X116962683Y-112247539D01*
X116958394Y-112243621D01*
X116954226Y-112240110D01*
X116950128Y-112236984D01*
X116946048Y-112234224D01*
X116943999Y-112232975D01*
X116941936Y-112231810D01*
X116939851Y-112230726D01*
X116937740Y-112229722D01*
X116935595Y-112228793D01*
X116933409Y-112227938D01*
X116931177Y-112227155D01*
X116928892Y-112226441D01*
X116924138Y-112225208D01*
X116919096Y-112224220D01*
X116913714Y-112223457D01*
X116907942Y-112222899D01*
X116901727Y-112222525D01*
X116895020Y-112222315D01*
X116887769Y-112222250D01*
X116880167Y-112222317D01*
X116873192Y-112222535D01*
X116866775Y-112222934D01*
X116860847Y-112223540D01*
X116855342Y-112224382D01*
X116850190Y-112225487D01*
X116845323Y-112226884D01*
X116840673Y-112228600D01*
X116836172Y-112230663D01*
X116831752Y-112233102D01*
X116827344Y-112235944D01*
X116822880Y-112239216D01*
X116818292Y-112242948D01*
X116813512Y-112247166D01*
X116808471Y-112251899D01*
X116803102Y-112257175D01*
X116799335Y-112261113D01*
X116795586Y-112265367D01*
X116791875Y-112269902D01*
X116788219Y-112274687D01*
X116784638Y-112279689D01*
X116781150Y-112284876D01*
X116777773Y-112290214D01*
X116774527Y-112295672D01*
X116771430Y-112301216D01*
X116768500Y-112306815D01*
X116765756Y-112312436D01*
X116763216Y-112318046D01*
X116760900Y-112323612D01*
X116758826Y-112329102D01*
X116757012Y-112334484D01*
X116755477Y-112339725D01*
X116752784Y-112350727D01*
X116750646Y-112362603D01*
X116749052Y-112375211D01*
X116747986Y-112388408D01*
X116747435Y-112402052D01*
X116747385Y-112415999D01*
X116427394Y-112415999D01*
X116427394Y-111693083D01*
X116744894Y-111693083D01*
X116744894Y-111883583D01*
X116745439Y-111957551D01*
X116746878Y-112018124D01*
X116747839Y-112041434D01*
X116748912Y-112059052D01*
X116750059Y-112070195D01*
X116750649Y-112073095D01*
X116751244Y-112074083D01*
X116751588Y-112074046D01*
X116752022Y-112073937D01*
X116753150Y-112073509D01*
X116754606Y-112072814D01*
X116756370Y-112071867D01*
X116758419Y-112070686D01*
X116760731Y-112069284D01*
X116766060Y-112065881D01*
X116772183Y-112061784D01*
X116778926Y-112057117D01*
X116786115Y-112052003D01*
X116793577Y-112046567D01*
X116803332Y-112039309D01*
X116813179Y-112032608D01*
X116823159Y-112026449D01*
X116833314Y-112020819D01*
X116843686Y-112015704D01*
X116854318Y-112011090D01*
X116865250Y-112006962D01*
X116876524Y-112003307D01*
X116888183Y-112000111D01*
X116900268Y-111997360D01*
X116912822Y-111995040D01*
X116925885Y-111993137D01*
X116939501Y-111991637D01*
X116953710Y-111990527D01*
X116968555Y-111989791D01*
X116984077Y-111989417D01*
X117001945Y-111989680D01*
X117019070Y-111990485D01*
X117035504Y-111991851D01*
X117051298Y-111993799D01*
X117066502Y-111996348D01*
X117081169Y-111999518D01*
X117095348Y-112003331D01*
X117109092Y-112007805D01*
X117122452Y-112012962D01*
X117135478Y-112018820D01*
X117148223Y-112025402D01*
X117160736Y-112032725D01*
X117173069Y-112040812D01*
X117185274Y-112049682D01*
X117197401Y-112059354D01*
X117209502Y-112069850D01*
X117221472Y-112081178D01*
X117232783Y-112092955D01*
X117243446Y-112105210D01*
X117253472Y-112117971D01*
X117262872Y-112131265D01*
X117271656Y-112145120D01*
X117279836Y-112159564D01*
X117287422Y-112174625D01*
X117294425Y-112190331D01*
X117300856Y-112206710D01*
X117306725Y-112223789D01*
X117312045Y-112241598D01*
X117316824Y-112260162D01*
X117321076Y-112279512D01*
X117324809Y-112299673D01*
X117328035Y-112320675D01*
X117332777Y-112365971D01*
X117334369Y-112410441D01*
X117334198Y-112415528D01*
X117332909Y-112453878D01*
G37*
G36*
X120216227Y-112825500D02*
G01*
X119856394Y-112825500D01*
X119856394Y-112402167D01*
X119717752Y-112402167D01*
X119672428Y-112401526D01*
X119630043Y-112399570D01*
X119590485Y-112396251D01*
X119553644Y-112391517D01*
X119519408Y-112385320D01*
X119487664Y-112377610D01*
X119458301Y-112368337D01*
X119431208Y-112357452D01*
X119406273Y-112344905D01*
X119383385Y-112330646D01*
X119362431Y-112314627D01*
X119343300Y-112296796D01*
X119325881Y-112277105D01*
X119310062Y-112255505D01*
X119295731Y-112231944D01*
X119282777Y-112206375D01*
X119279015Y-112198067D01*
X119275654Y-112190113D01*
X119272671Y-112182374D01*
X119270044Y-112174708D01*
X119267752Y-112166973D01*
X119265773Y-112159029D01*
X119264086Y-112150735D01*
X119262669Y-112141949D01*
X119261499Y-112132531D01*
X119260556Y-112122339D01*
X119259818Y-112111232D01*
X119259262Y-112099070D01*
X119258868Y-112085711D01*
X119258613Y-112071014D01*
X119258479Y-112045397D01*
X119593616Y-112045397D01*
X119593818Y-112052620D01*
X119594408Y-112059809D01*
X119595382Y-112066939D01*
X119596738Y-112073989D01*
X119598472Y-112080936D01*
X119600581Y-112087756D01*
X119603061Y-112094427D01*
X119605910Y-112100926D01*
X119609123Y-112107230D01*
X119612698Y-112113316D01*
X119616631Y-112119162D01*
X119620920Y-112124743D01*
X119625560Y-112130039D01*
X119630548Y-112135025D01*
X119635882Y-112139679D01*
X119641557Y-112143978D01*
X119647571Y-112147899D01*
X119653921Y-112151420D01*
X119660602Y-112154516D01*
X119664898Y-112156078D01*
X119669815Y-112157584D01*
X119675306Y-112159028D01*
X119681322Y-112160403D01*
X119687816Y-112161705D01*
X119694739Y-112162925D01*
X119709682Y-112165100D01*
X119725766Y-112166878D01*
X119742606Y-112168209D01*
X119759819Y-112169044D01*
X119777019Y-112169333D01*
X119856394Y-112169333D01*
X119856394Y-111923800D01*
X119755852Y-111928033D01*
X119725259Y-111929222D01*
X119701017Y-111930596D01*
X119690936Y-111931443D01*
X119682033Y-111932442D01*
X119674172Y-111933631D01*
X119667217Y-111935045D01*
X119661030Y-111936719D01*
X119655476Y-111938689D01*
X119650418Y-111940991D01*
X119645719Y-111943660D01*
X119641244Y-111946733D01*
X119636856Y-111950244D01*
X119632418Y-111954229D01*
X119627794Y-111958725D01*
X119622652Y-111964321D01*
X119617942Y-111970179D01*
X119613659Y-111976277D01*
X119609800Y-111982591D01*
X119606362Y-111989099D01*
X119603342Y-111995778D01*
X119600736Y-112002606D01*
X119598541Y-112009558D01*
X119596753Y-112016613D01*
X119595370Y-112023747D01*
X119594389Y-112030937D01*
X119593805Y-112038162D01*
X119593616Y-112045397D01*
X119258479Y-112045397D01*
X119258435Y-112037042D01*
X119258652Y-112004252D01*
X119259378Y-111976733D01*
X119260724Y-111953605D01*
X119261664Y-111943412D01*
X119262801Y-111933986D01*
X119264149Y-111925218D01*
X119265722Y-111916997D01*
X119267533Y-111909213D01*
X119269597Y-111901757D01*
X119271928Y-111894517D01*
X119274540Y-111887385D01*
X119280660Y-111873000D01*
X119286476Y-111861244D01*
X119292808Y-111849793D01*
X119299652Y-111838656D01*
X119307003Y-111827839D01*
X119314856Y-111817351D01*
X119323207Y-111807199D01*
X119332050Y-111797392D01*
X119341382Y-111787936D01*
X119351198Y-111778841D01*
X119361493Y-111770112D01*
X119372262Y-111761759D01*
X119383501Y-111753789D01*
X119395205Y-111746209D01*
X119407369Y-111739028D01*
X119419989Y-111732253D01*
X119433060Y-111725892D01*
X119491269Y-111698375D01*
X119853219Y-111695200D01*
X120216227Y-111692025D01*
X120216227Y-111923800D01*
X120216227Y-112825500D01*
G37*
G36*
X118148400Y-107195282D02*
G01*
X118149409Y-107471585D01*
X118150334Y-108420733D01*
X118150334Y-109750000D01*
X116909263Y-109750000D01*
X116950891Y-109660747D01*
X117175963Y-109178500D01*
X117603529Y-108261278D01*
X118147160Y-107097111D01*
X118148400Y-107195282D01*
G37*
G36*
X112433350Y-105940485D02*
G01*
X112615251Y-105941764D01*
X112610296Y-105952926D01*
X112596775Y-105982377D01*
X112576705Y-106025653D01*
X112552104Y-106078289D01*
X112342554Y-106527375D01*
X111928040Y-107416375D01*
X111586904Y-108148389D01*
X111382293Y-108585481D01*
X111381906Y-108585617D01*
X111381540Y-108584477D01*
X111380865Y-108577812D01*
X111379730Y-108543054D01*
X111378851Y-108472303D01*
X111378192Y-108356660D01*
X111377382Y-107955094D01*
X111377002Y-107267150D01*
X111377002Y-105940001D01*
X111996127Y-105940001D01*
X112433350Y-105940485D01*
G37*
G36*
X118137988Y-105940705D02*
G01*
X118039210Y-105957639D01*
X117965518Y-105970686D01*
X117933697Y-105976844D01*
X117904493Y-105982907D01*
X117877356Y-105988986D01*
X117851736Y-105995193D01*
X117827084Y-106001640D01*
X117802849Y-106008439D01*
X117755935Y-106022909D01*
X117709299Y-106039170D01*
X117663016Y-106057176D01*
X117617155Y-106076883D01*
X117571791Y-106098246D01*
X117526996Y-106121220D01*
X117482841Y-106145759D01*
X117439400Y-106171819D01*
X117396743Y-106199355D01*
X117354945Y-106228322D01*
X117314077Y-106258675D01*
X117274211Y-106290369D01*
X117235421Y-106323359D01*
X117197777Y-106357600D01*
X117161353Y-106393047D01*
X117126221Y-106429656D01*
X117100407Y-106457996D01*
X117077135Y-106484733D01*
X117055906Y-106510544D01*
X117045901Y-106523314D01*
X117036219Y-106536106D01*
X117026797Y-106549006D01*
X117017573Y-106562099D01*
X116999469Y-106589199D01*
X116981406Y-106618086D01*
X116962885Y-106649436D01*
X116949326Y-106673964D01*
X116931344Y-106707749D01*
X116886509Y-106794472D01*
X116837175Y-106892373D01*
X116792141Y-106984222D01*
X116576990Y-107438115D01*
X116237221Y-108164264D01*
X116000000Y-108671410D01*
X115854193Y-108977108D01*
X115805978Y-109074145D01*
X115769107Y-109144496D01*
X115739744Y-109196053D01*
X115714052Y-109236708D01*
X115696157Y-109262385D01*
X115676791Y-109288038D01*
X115656038Y-109313590D01*
X115633982Y-109338970D01*
X115610707Y-109364101D01*
X115586295Y-109388910D01*
X115560832Y-109413322D01*
X115534400Y-109437263D01*
X115507083Y-109460657D01*
X115478965Y-109483432D01*
X115450130Y-109505513D01*
X115420662Y-109526824D01*
X115390644Y-109547292D01*
X115360159Y-109566842D01*
X115329292Y-109585400D01*
X115298127Y-109602892D01*
X115257306Y-109623952D01*
X115214910Y-109643847D01*
X115171579Y-109662336D01*
X115127955Y-109679180D01*
X115084679Y-109694138D01*
X115042390Y-109706972D01*
X115021817Y-109712517D01*
X115001730Y-109717441D01*
X114982212Y-109721714D01*
X114963340Y-109725305D01*
X114941254Y-109728861D01*
X114916409Y-109732006D01*
X114886437Y-109734768D01*
X114848969Y-109737173D01*
X114801634Y-109739250D01*
X114742064Y-109741025D01*
X114667889Y-109742527D01*
X114576740Y-109743782D01*
X114334042Y-109745663D01*
X113995015Y-109746886D01*
X112952154Y-109748236D01*
X111389349Y-109749647D01*
X111488127Y-109732714D01*
X111562524Y-109719303D01*
X111593243Y-109713298D01*
X111621080Y-109707446D01*
X111647114Y-109701512D01*
X111672426Y-109695259D01*
X111698092Y-109688452D01*
X111725193Y-109680856D01*
X111756239Y-109671544D01*
X111787311Y-109661349D01*
X111818375Y-109650286D01*
X111849399Y-109638373D01*
X111880351Y-109625628D01*
X111911197Y-109612066D01*
X111941907Y-109597705D01*
X111972446Y-109582563D01*
X112002783Y-109566656D01*
X112032885Y-109550000D01*
X112062719Y-109532615D01*
X112092253Y-109514515D01*
X112121454Y-109495719D01*
X112150289Y-109476244D01*
X112178727Y-109456106D01*
X112206735Y-109435322D01*
X112227596Y-109419157D01*
X112248464Y-109402327D01*
X112269268Y-109384903D01*
X112289941Y-109366955D01*
X112310413Y-109348554D01*
X112330616Y-109329772D01*
X112350481Y-109310679D01*
X112369939Y-109291345D01*
X112388921Y-109271842D01*
X112407360Y-109252240D01*
X112425186Y-109232610D01*
X112442330Y-109213023D01*
X112458724Y-109193549D01*
X112474298Y-109174260D01*
X112488985Y-109155227D01*
X112502715Y-109136519D01*
X112518792Y-109113120D01*
X112536009Y-109086149D01*
X112554880Y-109054562D01*
X112575917Y-109017319D01*
X112599633Y-108973377D01*
X112626540Y-108921692D01*
X112691981Y-108790930D01*
X112776339Y-108616692D01*
X112883715Y-108390643D01*
X113018212Y-108104441D01*
X113183929Y-107749750D01*
X113482269Y-107111740D01*
X113659297Y-106738777D01*
X113755628Y-106546921D01*
X113786223Y-106492677D01*
X113811874Y-106452233D01*
X113824470Y-106434126D01*
X113838016Y-106415822D01*
X113852460Y-106397372D01*
X113867750Y-106378828D01*
X113883837Y-106360240D01*
X113900668Y-106341660D01*
X113918193Y-106323139D01*
X113936360Y-106304728D01*
X113955119Y-106286478D01*
X113974417Y-106268441D01*
X113994204Y-106250667D01*
X114014429Y-106233208D01*
X114035040Y-106216115D01*
X114055987Y-106199438D01*
X114077218Y-106183230D01*
X114098682Y-106167542D01*
X114128201Y-106147166D01*
X114158716Y-106127486D01*
X114190086Y-106108561D01*
X114222165Y-106090449D01*
X114254811Y-106073209D01*
X114287880Y-106056900D01*
X114321227Y-106041582D01*
X114354710Y-106027312D01*
X114388185Y-106014151D01*
X114421508Y-106002156D01*
X114454535Y-105991387D01*
X114487123Y-105981903D01*
X114519129Y-105973763D01*
X114550407Y-105967025D01*
X114580815Y-105961748D01*
X114610210Y-105957992D01*
X114678494Y-105953283D01*
X114791295Y-105949431D01*
X114956979Y-105946364D01*
X115183915Y-105944013D01*
X115855008Y-105941174D01*
X116871516Y-105940353D01*
X118137988Y-105940705D01*
G37*
G36*
X119617597Y-115804964D02*
G01*
X119672302Y-115869162D01*
X119731206Y-115930110D01*
X119794249Y-115987782D01*
X119861372Y-116042152D01*
X119932515Y-116093193D01*
X120007620Y-116140881D01*
X120086626Y-116185190D01*
X120169474Y-116226092D01*
X120256104Y-116263564D01*
X120346458Y-116297578D01*
X120440476Y-116328109D01*
X120538099Y-116355132D01*
X120639266Y-116378620D01*
X120743919Y-116398547D01*
X120851998Y-116414888D01*
X120963444Y-116427617D01*
X121074236Y-116435646D01*
X121181625Y-116437942D01*
X121285475Y-116434558D01*
X121385647Y-116425550D01*
X121482006Y-116410970D01*
X121574415Y-116390875D01*
X121662735Y-116365317D01*
X121746831Y-116334351D01*
X121826566Y-116298032D01*
X121901802Y-116256413D01*
X121972403Y-116209549D01*
X122038231Y-116157494D01*
X122099150Y-116100302D01*
X122155023Y-116038028D01*
X122205713Y-115970726D01*
X122251083Y-115898450D01*
X122268553Y-115868178D01*
X122275535Y-115856712D01*
X122281372Y-115847766D01*
X122286083Y-115841393D01*
X122288022Y-115839188D01*
X122289685Y-115837647D01*
X122291076Y-115836777D01*
X122292197Y-115836584D01*
X122293050Y-115837075D01*
X122293637Y-115838257D01*
X122293960Y-115840137D01*
X122294022Y-115842721D01*
X122293825Y-115846016D01*
X122293372Y-115850029D01*
X122291703Y-115860236D01*
X122289034Y-115873397D01*
X122285384Y-115889565D01*
X122280769Y-115908796D01*
X122268722Y-115956658D01*
X122258215Y-115994434D01*
X122246538Y-116031366D01*
X122233685Y-116067458D01*
X122219653Y-116102713D01*
X122204440Y-116137135D01*
X122188041Y-116170727D01*
X122170452Y-116203492D01*
X122151671Y-116235435D01*
X122131694Y-116266559D01*
X122110517Y-116296868D01*
X122088136Y-116326364D01*
X122064548Y-116355053D01*
X122039750Y-116382936D01*
X122013738Y-116410018D01*
X121986508Y-116436302D01*
X121958057Y-116461792D01*
X121928381Y-116486491D01*
X121897477Y-116510404D01*
X121865341Y-116533532D01*
X121831970Y-116555881D01*
X121761507Y-116598253D01*
X121686060Y-116637547D01*
X121605600Y-116673792D01*
X121520099Y-116707017D01*
X121429529Y-116737250D01*
X121333861Y-116764519D01*
X121289236Y-116775062D01*
X121240375Y-116784201D01*
X121187792Y-116791940D01*
X121132006Y-116798281D01*
X121073532Y-116803227D01*
X121012888Y-116806780D01*
X120950590Y-116808943D01*
X120887156Y-116809719D01*
X120823101Y-116809110D01*
X120758943Y-116807118D01*
X120695199Y-116803747D01*
X120632384Y-116798998D01*
X120571017Y-116792875D01*
X120511613Y-116785379D01*
X120454690Y-116776515D01*
X120400763Y-116766283D01*
X120281530Y-116738985D01*
X120165322Y-116708054D01*
X120052231Y-116673537D01*
X119942345Y-116635480D01*
X119835757Y-116593929D01*
X119732556Y-116548932D01*
X119632833Y-116500535D01*
X119536678Y-116448783D01*
X119444182Y-116393724D01*
X119355435Y-116335405D01*
X119270528Y-116273871D01*
X119189551Y-116209170D01*
X119112594Y-116141347D01*
X119039747Y-116070450D01*
X118971103Y-115996524D01*
X118906750Y-115919616D01*
X118885590Y-115892204D01*
X118864802Y-115864688D01*
X118844924Y-115837792D01*
X118826493Y-115812240D01*
X118810046Y-115788755D01*
X118796121Y-115768060D01*
X118785255Y-115750879D01*
X118777986Y-115737936D01*
X118749763Y-115686783D01*
X119522347Y-115686783D01*
X119617597Y-115804964D01*
G37*
G36*
X121138069Y-115328714D02*
G01*
X121138598Y-115341012D01*
X121138830Y-115352192D01*
X121138716Y-115362374D01*
X121138207Y-115371681D01*
X121137253Y-115380233D01*
X121135806Y-115388152D01*
X121133816Y-115395559D01*
X121132602Y-115399109D01*
X121131234Y-115402577D01*
X121129706Y-115405977D01*
X121128012Y-115409325D01*
X121124099Y-115415926D01*
X121119448Y-115422502D01*
X121114009Y-115429173D01*
X121107732Y-115436061D01*
X121100569Y-115443287D01*
X121092471Y-115450974D01*
X121083389Y-115459241D01*
X121070731Y-115469867D01*
X121064328Y-115474715D01*
X121057867Y-115479254D01*
X121051345Y-115483484D01*
X121044755Y-115487406D01*
X121038093Y-115491020D01*
X121031354Y-115494326D01*
X121024532Y-115497325D01*
X121017622Y-115500016D01*
X121010619Y-115502401D01*
X121003517Y-115504479D01*
X120996313Y-115506251D01*
X120989000Y-115507717D01*
X120981573Y-115508878D01*
X120974027Y-115509733D01*
X120966358Y-115510283D01*
X120958559Y-115510529D01*
X120950626Y-115510471D01*
X120942553Y-115510108D01*
X120934336Y-115509442D01*
X120925968Y-115508473D01*
X120908764Y-115505626D01*
X120890897Y-115501570D01*
X120872328Y-115496307D01*
X120853015Y-115489840D01*
X120832916Y-115482172D01*
X120809941Y-115472988D01*
X120800395Y-115469436D01*
X120791989Y-115466573D01*
X120784605Y-115464391D01*
X120778129Y-115462886D01*
X120772443Y-115462054D01*
X120769861Y-115461888D01*
X120767432Y-115461887D01*
X120765143Y-115462053D01*
X120762979Y-115462383D01*
X120760925Y-115462877D01*
X120758967Y-115463534D01*
X120757091Y-115464354D01*
X120755281Y-115465337D01*
X120753524Y-115466481D01*
X120751805Y-115467785D01*
X120748421Y-115470875D01*
X120745015Y-115474600D01*
X120741468Y-115478955D01*
X120737666Y-115483936D01*
X120735846Y-115486350D01*
X120734015Y-115488631D01*
X120732163Y-115490782D01*
X120730280Y-115492804D01*
X120728356Y-115494699D01*
X120726380Y-115496470D01*
X120724342Y-115498118D01*
X120722232Y-115499646D01*
X120720039Y-115501054D01*
X120717754Y-115502346D01*
X120715364Y-115503522D01*
X120712862Y-115504586D01*
X120710235Y-115505538D01*
X120707473Y-115506382D01*
X120704568Y-115507118D01*
X120701507Y-115507749D01*
X120698280Y-115508276D01*
X120694878Y-115508702D01*
X120691290Y-115509028D01*
X120687506Y-115509257D01*
X120683515Y-115509391D01*
X120679306Y-115509431D01*
X120674871Y-115509379D01*
X120670198Y-115509237D01*
X120660097Y-115508692D01*
X120648921Y-115507811D01*
X120636587Y-115506609D01*
X120623013Y-115505103D01*
X120600832Y-115502011D01*
X120578952Y-115498039D01*
X120557392Y-115493209D01*
X120536176Y-115487540D01*
X120515325Y-115481051D01*
X120494858Y-115473763D01*
X120474799Y-115465697D01*
X120455168Y-115456871D01*
X120417277Y-115437023D01*
X120381354Y-115414379D01*
X120347570Y-115389100D01*
X120316097Y-115361346D01*
X120287104Y-115331276D01*
X120273591Y-115315423D01*
X120260762Y-115299051D01*
X120248638Y-115282181D01*
X120237241Y-115264832D01*
X120226592Y-115247025D01*
X120216713Y-115228778D01*
X120207624Y-115210114D01*
X120199347Y-115191050D01*
X120191903Y-115171608D01*
X120185314Y-115151808D01*
X120179601Y-115131669D01*
X120174785Y-115111212D01*
X120170888Y-115090456D01*
X120167930Y-115069422D01*
X120166487Y-115054588D01*
X120165787Y-115039861D01*
X120165820Y-115025256D01*
X120166576Y-115010787D01*
X120168044Y-114996467D01*
X120170213Y-114982311D01*
X120173072Y-114968334D01*
X120176612Y-114954549D01*
X120180820Y-114940971D01*
X120185687Y-114927613D01*
X120191202Y-114914491D01*
X120197355Y-114901618D01*
X120204134Y-114889009D01*
X120211528Y-114876678D01*
X120219528Y-114864638D01*
X120228123Y-114852905D01*
X120237301Y-114841492D01*
X120247053Y-114830413D01*
X120257368Y-114819684D01*
X120268234Y-114809317D01*
X120279642Y-114799328D01*
X120291580Y-114789730D01*
X120304039Y-114780538D01*
X120317006Y-114771766D01*
X120330473Y-114763428D01*
X120344427Y-114755538D01*
X120358859Y-114748110D01*
X120373757Y-114741160D01*
X120389112Y-114734700D01*
X120404912Y-114728745D01*
X120421146Y-114723310D01*
X120437805Y-114718408D01*
X120458569Y-114713238D01*
X120481627Y-114708958D01*
X120506669Y-114705552D01*
X120533386Y-114703002D01*
X120561467Y-114701288D01*
X120590602Y-114700394D01*
X120620481Y-114700300D01*
X120650795Y-114700990D01*
X120681232Y-114702444D01*
X120711484Y-114704645D01*
X120741239Y-114707575D01*
X120770188Y-114711215D01*
X120798021Y-114715548D01*
X120824428Y-114720555D01*
X120849098Y-114726218D01*
X120871722Y-114732519D01*
X120923159Y-114750799D01*
X120972253Y-114771845D01*
X121018934Y-114795574D01*
X121063131Y-114821899D01*
X121104776Y-114850736D01*
X121143798Y-114881999D01*
X121180128Y-114915602D01*
X121213696Y-114951462D01*
X121244432Y-114989492D01*
X121272266Y-115029607D01*
X121297129Y-115071722D01*
X121318950Y-115115752D01*
X121337661Y-115161611D01*
X121353191Y-115209214D01*
X121365471Y-115258476D01*
X121374430Y-115309311D01*
X121376225Y-115325308D01*
X121377316Y-115341207D01*
X121377711Y-115356995D01*
X121377421Y-115372656D01*
X121376453Y-115388176D01*
X121374818Y-115403542D01*
X121372524Y-115418737D01*
X121369580Y-115433748D01*
X121365995Y-115448560D01*
X121361778Y-115463158D01*
X121356939Y-115477529D01*
X121351486Y-115491656D01*
X121338775Y-115519126D01*
X121323718Y-115545452D01*
X121306388Y-115570516D01*
X121286856Y-115594203D01*
X121265195Y-115616397D01*
X121241477Y-115636981D01*
X121215775Y-115655839D01*
X121188161Y-115672855D01*
X121158707Y-115687912D01*
X121143313Y-115694670D01*
X121127486Y-115700894D01*
X121074783Y-115718458D01*
X121019561Y-115732183D01*
X120962360Y-115742155D01*
X120903720Y-115748464D01*
X120844180Y-115751197D01*
X120784282Y-115750442D01*
X120724564Y-115746286D01*
X120665567Y-115738818D01*
X120607831Y-115728125D01*
X120551896Y-115714296D01*
X120498302Y-115697417D01*
X120447589Y-115677578D01*
X120400297Y-115654865D01*
X120356966Y-115629367D01*
X120318136Y-115601172D01*
X120300578Y-115586090D01*
X120284347Y-115570367D01*
X120226138Y-115510394D01*
X120272000Y-115510394D01*
X120277093Y-115510700D01*
X120283062Y-115511597D01*
X120289832Y-115513057D01*
X120297328Y-115515052D01*
X120305475Y-115517554D01*
X120314199Y-115520533D01*
X120323423Y-115523962D01*
X120333074Y-115527813D01*
X120343077Y-115532056D01*
X120353356Y-115536663D01*
X120363836Y-115541606D01*
X120374443Y-115546857D01*
X120385102Y-115552387D01*
X120395737Y-115558168D01*
X120406274Y-115564170D01*
X120416639Y-115570367D01*
X120446508Y-115587128D01*
X120477823Y-115602344D01*
X120510462Y-115615999D01*
X120544300Y-115628079D01*
X120579213Y-115638567D01*
X120615076Y-115647447D01*
X120651766Y-115654705D01*
X120689159Y-115660325D01*
X120727131Y-115664291D01*
X120765558Y-115666588D01*
X120804315Y-115667200D01*
X120843279Y-115666113D01*
X120882326Y-115663309D01*
X120921331Y-115658775D01*
X120960171Y-115652493D01*
X120998722Y-115644450D01*
X121031461Y-115635792D01*
X121062201Y-115625702D01*
X121090926Y-115614196D01*
X121117619Y-115601290D01*
X121130199Y-115594316D01*
X121142266Y-115586999D01*
X121153817Y-115579339D01*
X121164851Y-115571338D01*
X121175366Y-115562999D01*
X121185359Y-115554324D01*
X121194829Y-115545313D01*
X121203774Y-115535971D01*
X121212192Y-115526297D01*
X121220080Y-115516295D01*
X121227438Y-115505966D01*
X121234263Y-115495312D01*
X121240553Y-115484335D01*
X121246306Y-115473037D01*
X121251521Y-115461419D01*
X121256195Y-115449485D01*
X121260326Y-115437235D01*
X121263912Y-115424673D01*
X121266953Y-115411798D01*
X121269444Y-115398615D01*
X121271386Y-115385124D01*
X121272775Y-115371327D01*
X121273610Y-115357227D01*
X121273889Y-115342825D01*
X121272554Y-115304744D01*
X121268587Y-115267288D01*
X121262040Y-115230545D01*
X121252970Y-115194603D01*
X121241429Y-115159550D01*
X121227473Y-115125474D01*
X121211155Y-115092462D01*
X121192529Y-115060603D01*
X121171651Y-115029984D01*
X121148573Y-115000692D01*
X121123351Y-114972817D01*
X121096039Y-114946446D01*
X121066691Y-114921666D01*
X121035360Y-114898566D01*
X121002103Y-114877233D01*
X120966972Y-114857755D01*
X120947366Y-114847759D01*
X120929355Y-114838887D01*
X120912630Y-114831063D01*
X120896885Y-114824214D01*
X120881811Y-114818264D01*
X120867102Y-114813138D01*
X120852450Y-114808761D01*
X120837547Y-114805059D01*
X120822085Y-114801956D01*
X120805759Y-114799378D01*
X120788259Y-114797250D01*
X120769279Y-114795496D01*
X120748510Y-114794041D01*
X120725646Y-114792812D01*
X120672403Y-114790728D01*
X120620754Y-114789198D01*
X120578365Y-114788743D01*
X120560075Y-114788996D01*
X120543418Y-114789611D01*
X120528167Y-114790619D01*
X120514093Y-114792051D01*
X120500971Y-114793937D01*
X120488572Y-114796309D01*
X120476669Y-114799197D01*
X120465035Y-114802634D01*
X120453442Y-114806649D01*
X120441664Y-114811274D01*
X120416639Y-114822478D01*
X120408297Y-114826997D01*
X120399847Y-114831924D01*
X120391346Y-114837213D01*
X120382849Y-114842817D01*
X120374415Y-114848690D01*
X120366099Y-114854786D01*
X120357959Y-114861057D01*
X120350052Y-114867457D01*
X120342434Y-114873940D01*
X120335162Y-114880459D01*
X120328293Y-114886967D01*
X120321885Y-114893419D01*
X120315993Y-114899768D01*
X120310674Y-114905966D01*
X120305986Y-114911968D01*
X120301986Y-114917728D01*
X120294542Y-114931068D01*
X120288073Y-114944932D01*
X120282564Y-114959274D01*
X120277998Y-114974048D01*
X120274357Y-114989210D01*
X120271627Y-115004715D01*
X120269790Y-115020516D01*
X120268830Y-115036570D01*
X120268731Y-115052830D01*
X120269475Y-115069252D01*
X120271047Y-115085789D01*
X120273429Y-115102399D01*
X120276607Y-115119033D01*
X120280562Y-115135649D01*
X120290741Y-115168641D01*
X120303834Y-115201013D01*
X120319711Y-115232403D01*
X120338238Y-115262449D01*
X120348455Y-115276855D01*
X120359285Y-115290790D01*
X120370711Y-115304208D01*
X120382719Y-115317064D01*
X120395290Y-115329313D01*
X120408408Y-115340909D01*
X120422058Y-115351808D01*
X120436222Y-115361964D01*
X120450884Y-115371332D01*
X120466027Y-115379867D01*
X120476676Y-115385158D01*
X120487387Y-115389788D01*
X120498057Y-115393757D01*
X120508581Y-115397064D01*
X120518858Y-115399710D01*
X120528783Y-115401695D01*
X120538254Y-115403018D01*
X120547166Y-115403679D01*
X120555417Y-115403679D01*
X120562904Y-115403018D01*
X120569522Y-115401695D01*
X120572473Y-115400785D01*
X120575168Y-115399710D01*
X120577595Y-115398470D01*
X120579740Y-115397064D01*
X120581590Y-115395493D01*
X120583133Y-115393757D01*
X120584356Y-115391855D01*
X120585245Y-115389788D01*
X120585788Y-115387556D01*
X120585972Y-115385158D01*
X120585483Y-115382077D01*
X120584049Y-115376880D01*
X120578530Y-115360602D01*
X120569787Y-115337254D01*
X120558191Y-115307768D01*
X120544114Y-115273072D01*
X120527929Y-115234098D01*
X120510008Y-115191775D01*
X120490722Y-115147033D01*
X120477422Y-115117047D01*
X120638889Y-115117047D01*
X120639302Y-115129562D01*
X120640520Y-115142275D01*
X120642510Y-115155148D01*
X120645241Y-115168141D01*
X120648680Y-115181216D01*
X120652795Y-115194333D01*
X120662922Y-115220538D01*
X120675363Y-115246443D01*
X120689862Y-115271735D01*
X120706159Y-115296103D01*
X120723996Y-115319233D01*
X120743115Y-115340813D01*
X120763256Y-115360529D01*
X120784163Y-115378070D01*
X120805576Y-115393123D01*
X120816392Y-115399619D01*
X120827237Y-115405375D01*
X120838080Y-115410353D01*
X120848888Y-115414514D01*
X120859628Y-115417818D01*
X120870270Y-115420226D01*
X120880779Y-115421700D01*
X120891125Y-115422200D01*
X120904462Y-115421883D01*
X120916715Y-115420908D01*
X120922444Y-115420161D01*
X120927913Y-115419235D01*
X120933127Y-115418125D01*
X120938088Y-115416826D01*
X120942802Y-115415333D01*
X120947271Y-115413641D01*
X120951500Y-115411746D01*
X120955493Y-115409643D01*
X120959253Y-115407326D01*
X120962784Y-115404791D01*
X120966091Y-115402034D01*
X120969177Y-115399049D01*
X120972045Y-115395831D01*
X120974701Y-115392376D01*
X120977147Y-115388679D01*
X120979388Y-115384734D01*
X120981427Y-115380538D01*
X120983269Y-115376085D01*
X120984917Y-115371370D01*
X120986375Y-115366389D01*
X120987647Y-115361137D01*
X120988736Y-115355608D01*
X120989648Y-115349799D01*
X120990385Y-115343703D01*
X120991351Y-115330636D01*
X120991666Y-115316367D01*
X120990910Y-115297765D01*
X120989008Y-115279363D01*
X120986012Y-115261205D01*
X120981975Y-115243334D01*
X120976950Y-115225795D01*
X120970989Y-115208633D01*
X120964145Y-115191891D01*
X120956471Y-115175614D01*
X120948019Y-115159846D01*
X120938842Y-115144631D01*
X120928993Y-115130013D01*
X120918523Y-115116038D01*
X120907487Y-115102748D01*
X120895936Y-115090189D01*
X120883923Y-115078404D01*
X120871501Y-115067438D01*
X120858723Y-115057335D01*
X120845640Y-115048139D01*
X120832307Y-115039894D01*
X120818774Y-115032646D01*
X120805096Y-115026437D01*
X120791324Y-115021313D01*
X120777512Y-115017317D01*
X120763711Y-115014493D01*
X120749975Y-115012887D01*
X120736357Y-115012542D01*
X120722908Y-115013503D01*
X120709682Y-115015813D01*
X120696731Y-115019517D01*
X120684108Y-115024659D01*
X120671865Y-115031284D01*
X120660055Y-115039436D01*
X120659063Y-115040339D01*
X120658073Y-115041393D01*
X120657087Y-115042591D01*
X120656107Y-115043928D01*
X120654172Y-115047001D01*
X120652283Y-115050570D01*
X120650456Y-115054594D01*
X120648707Y-115059032D01*
X120647051Y-115063841D01*
X120645503Y-115068981D01*
X120644079Y-115074411D01*
X120642795Y-115080088D01*
X120641666Y-115085972D01*
X120640708Y-115092022D01*
X120639935Y-115098195D01*
X120639364Y-115104452D01*
X120639010Y-115110749D01*
X120638889Y-115117047D01*
X120477422Y-115117047D01*
X120393708Y-114928311D01*
X120455444Y-114928311D01*
X120462094Y-114928474D01*
X120468790Y-114928952D01*
X120475497Y-114929730D01*
X120482178Y-114930791D01*
X120488797Y-114932122D01*
X120495318Y-114933706D01*
X120501704Y-114935528D01*
X120507920Y-114937571D01*
X120513929Y-114939822D01*
X120519695Y-114942264D01*
X120525182Y-114944881D01*
X120530354Y-114947659D01*
X120535175Y-114950581D01*
X120539608Y-114953632D01*
X120543617Y-114956798D01*
X120547166Y-114960061D01*
X120552785Y-114965642D01*
X120557801Y-114970479D01*
X120562317Y-114974572D01*
X120564418Y-114976339D01*
X120566431Y-114977920D01*
X120568370Y-114979316D01*
X120570246Y-114980525D01*
X120572073Y-114981548D01*
X120573862Y-114982385D01*
X120575627Y-114983036D01*
X120577380Y-114983501D01*
X120579134Y-114983780D01*
X120580901Y-114983873D01*
X120582693Y-114983780D01*
X120584524Y-114983501D01*
X120586407Y-114983036D01*
X120588352Y-114982385D01*
X120590374Y-114981548D01*
X120592485Y-114980525D01*
X120594697Y-114979316D01*
X120597024Y-114977920D01*
X120599476Y-114976339D01*
X120602069Y-114974572D01*
X120607721Y-114970479D01*
X120614081Y-114965642D01*
X120621250Y-114960061D01*
X120625791Y-114956798D01*
X120630792Y-114953632D01*
X120636218Y-114950581D01*
X120642030Y-114947659D01*
X120648195Y-114944881D01*
X120654674Y-114942264D01*
X120661432Y-114939822D01*
X120668434Y-114937571D01*
X120675642Y-114935528D01*
X120683020Y-114933706D01*
X120690533Y-114932122D01*
X120698144Y-114930791D01*
X120705817Y-114929730D01*
X120713516Y-114928952D01*
X120721205Y-114928474D01*
X120728847Y-114928311D01*
X120747227Y-114928894D01*
X120765631Y-114930618D01*
X120784019Y-114933446D01*
X120802355Y-114937341D01*
X120820599Y-114942265D01*
X120838712Y-114948182D01*
X120856657Y-114955054D01*
X120874395Y-114962845D01*
X120891888Y-114971516D01*
X120909096Y-114981032D01*
X120925983Y-114991354D01*
X120942508Y-115002446D01*
X120958635Y-115014271D01*
X120974323Y-115026790D01*
X120989536Y-115039968D01*
X121004234Y-115053768D01*
X121018379Y-115068151D01*
X121031933Y-115083081D01*
X121044857Y-115098520D01*
X121057113Y-115114432D01*
X121068662Y-115130780D01*
X121079466Y-115147525D01*
X121089486Y-115164632D01*
X121098685Y-115182063D01*
X121107023Y-115199781D01*
X121114462Y-115217748D01*
X121120964Y-115235927D01*
X121126490Y-115254282D01*
X121131002Y-115272776D01*
X121134462Y-115291370D01*
X121136830Y-115310029D01*
X121137250Y-115316367D01*
X121138069Y-115328714D01*
G37*
G36*
X119816083Y-114557264D02*
G01*
X119833726Y-114558741D01*
X119850155Y-114561064D01*
X119864909Y-114564244D01*
X119871515Y-114566160D01*
X119877529Y-114568295D01*
X119882895Y-114570651D01*
X119887555Y-114573230D01*
X119891452Y-114576032D01*
X119894527Y-114579061D01*
X119907574Y-114624443D01*
X119932093Y-114731444D01*
X119999258Y-115050681D01*
X120063447Y-115377524D01*
X120084245Y-115494034D01*
X120092083Y-115552728D01*
X120091967Y-115554981D01*
X120091815Y-115556063D01*
X120091592Y-115557114D01*
X120091294Y-115558136D01*
X120090914Y-115559129D01*
X120090449Y-115560094D01*
X120089892Y-115561030D01*
X120089238Y-115561939D01*
X120088482Y-115562820D01*
X120087618Y-115563674D01*
X120086641Y-115564502D01*
X120085547Y-115565304D01*
X120084328Y-115566079D01*
X120082981Y-115566830D01*
X120081500Y-115567555D01*
X120079879Y-115568256D01*
X120078113Y-115568933D01*
X120074125Y-115570216D01*
X120069495Y-115571407D01*
X120064178Y-115572509D01*
X120058132Y-115573527D01*
X120051315Y-115574462D01*
X120043685Y-115575318D01*
X120035198Y-115576099D01*
X120025811Y-115576808D01*
X120015483Y-115577447D01*
X120004170Y-115578021D01*
X119991831Y-115578531D01*
X119978421Y-115578983D01*
X119963900Y-115579378D01*
X119931349Y-115580013D01*
X119893837Y-115580462D01*
X119851023Y-115580750D01*
X119802566Y-115580904D01*
X119748125Y-115580950D01*
X119622392Y-115581126D01*
X119530064Y-115580371D01*
X119494772Y-115579044D01*
X119465847Y-115576764D01*
X119442627Y-115573290D01*
X119424451Y-115568382D01*
X119417048Y-115565315D01*
X119410657Y-115561800D01*
X119405196Y-115557806D01*
X119400583Y-115553303D01*
X119396735Y-115548261D01*
X119393569Y-115542651D01*
X119388953Y-115529604D01*
X119386073Y-115513922D01*
X119384267Y-115495363D01*
X119381236Y-115448658D01*
X119377708Y-115395742D01*
X119592902Y-115390450D01*
X119647297Y-115388951D01*
X119693031Y-115387060D01*
X119730537Y-115384714D01*
X119760251Y-115381851D01*
X119782607Y-115378409D01*
X119791160Y-115376452D01*
X119798037Y-115374327D01*
X119803291Y-115372026D01*
X119806977Y-115369542D01*
X119809149Y-115366866D01*
X119809861Y-115363992D01*
X119808345Y-115352096D01*
X119804018Y-115326702D01*
X119788253Y-115241622D01*
X119737541Y-114977700D01*
X119709760Y-114833667D01*
X119688593Y-114711794D01*
X119681111Y-114663197D01*
X119676026Y-114624977D01*
X119673587Y-114598746D01*
X119673437Y-114590630D01*
X119674041Y-114586117D01*
X119675835Y-114582897D01*
X119678533Y-114579855D01*
X119682077Y-114576993D01*
X119686409Y-114574310D01*
X119691473Y-114571810D01*
X119697210Y-114569493D01*
X119710477Y-114565418D01*
X119725748Y-114562098D01*
X119742564Y-114559544D01*
X119760466Y-114557772D01*
X119778993Y-114556792D01*
X119797685Y-114556618D01*
X119816083Y-114557264D01*
G37*
G36*
X121517090Y-114559189D02*
G01*
X121534507Y-114560092D01*
X121550812Y-114561482D01*
X121565564Y-114563351D01*
X121578322Y-114565697D01*
X121588643Y-114568512D01*
X121592752Y-114570095D01*
X121596085Y-114571793D01*
X121598589Y-114573606D01*
X121600208Y-114575533D01*
X121601504Y-114578751D01*
X121603381Y-114584990D01*
X121608724Y-114605878D01*
X121615928Y-114636894D01*
X121624682Y-114676736D01*
X121634676Y-114724103D01*
X121645601Y-114777691D01*
X121657145Y-114836199D01*
X121669000Y-114898325D01*
X121693946Y-115025004D01*
X121715109Y-115126611D01*
X121733337Y-115206182D01*
X121749477Y-115266757D01*
X121757029Y-115290871D01*
X121764377Y-115311375D01*
X121771627Y-115328649D01*
X121778884Y-115343073D01*
X121786256Y-115355027D01*
X121793846Y-115364891D01*
X121801763Y-115373044D01*
X121810111Y-115379867D01*
X121815824Y-115383525D01*
X121821711Y-115386895D01*
X121827760Y-115389977D01*
X121833958Y-115392772D01*
X121840293Y-115395280D01*
X121846752Y-115397501D01*
X121859996Y-115401088D01*
X121873591Y-115403539D01*
X121887439Y-115404857D01*
X121901443Y-115405049D01*
X121915503Y-115404120D01*
X121929522Y-115402075D01*
X121943402Y-115398918D01*
X121957043Y-115394655D01*
X121970349Y-115389292D01*
X121983221Y-115382834D01*
X121989463Y-115379195D01*
X121995560Y-115375285D01*
X122001500Y-115371103D01*
X122007269Y-115366650D01*
X122012857Y-115361928D01*
X122018250Y-115356936D01*
X122067639Y-115309311D01*
X122141722Y-115351644D01*
X122177809Y-115371130D01*
X122192296Y-115379364D01*
X122204533Y-115386812D01*
X122214609Y-115393640D01*
X122218866Y-115396873D01*
X122222616Y-115400013D01*
X122225872Y-115403081D01*
X122228644Y-115406097D01*
X122230944Y-115409083D01*
X122232783Y-115412057D01*
X122234172Y-115415043D01*
X122235123Y-115418059D01*
X122235647Y-115421127D01*
X122235756Y-115424267D01*
X122235460Y-115427500D01*
X122234771Y-115430847D01*
X122233700Y-115434328D01*
X122232259Y-115437965D01*
X122228310Y-115445785D01*
X122223016Y-115454474D01*
X122216465Y-115464196D01*
X122208750Y-115475116D01*
X122198325Y-115488619D01*
X122186928Y-115501344D01*
X122174609Y-115513289D01*
X122161421Y-115524450D01*
X122147414Y-115534827D01*
X122132638Y-115544415D01*
X122117146Y-115553212D01*
X122100987Y-115561216D01*
X122084214Y-115568425D01*
X122066876Y-115574835D01*
X122049026Y-115580444D01*
X122030714Y-115585249D01*
X122011991Y-115589249D01*
X121992908Y-115592439D01*
X121973517Y-115594819D01*
X121953868Y-115596384D01*
X121934012Y-115597133D01*
X121914000Y-115597063D01*
X121893884Y-115596171D01*
X121873714Y-115594455D01*
X121853542Y-115591912D01*
X121833418Y-115588539D01*
X121813393Y-115584335D01*
X121793519Y-115579296D01*
X121773847Y-115573420D01*
X121754427Y-115566704D01*
X121735311Y-115559146D01*
X121716549Y-115550743D01*
X121698193Y-115541493D01*
X121680294Y-115531392D01*
X121662902Y-115520439D01*
X121646069Y-115508631D01*
X121637452Y-115502055D01*
X121629119Y-115495200D01*
X121621054Y-115488021D01*
X121613241Y-115480477D01*
X121605664Y-115472525D01*
X121598308Y-115464122D01*
X121591157Y-115455225D01*
X121584195Y-115445792D01*
X121577406Y-115435780D01*
X121570774Y-115425147D01*
X121564284Y-115413850D01*
X121557919Y-115401846D01*
X121551665Y-115389093D01*
X121545504Y-115375548D01*
X121539421Y-115361168D01*
X121533401Y-115345912D01*
X121521484Y-115312596D01*
X121509626Y-115275260D01*
X121497701Y-115233562D01*
X121485583Y-115187162D01*
X121473144Y-115135718D01*
X121460258Y-115078889D01*
X121446798Y-115016335D01*
X121432639Y-114947714D01*
X121397636Y-114768734D01*
X121386316Y-114705062D01*
X121378840Y-114656231D01*
X121375002Y-114620464D01*
X121374383Y-114606924D01*
X121374596Y-114595983D01*
X121375614Y-114587420D01*
X121377414Y-114581011D01*
X121379967Y-114576535D01*
X121383250Y-114573769D01*
X121386630Y-114571852D01*
X121390783Y-114570068D01*
X121401181Y-114566900D01*
X121414004Y-114564258D01*
X121428808Y-114562139D01*
X121445152Y-114560536D01*
X121462594Y-114559445D01*
X121480692Y-114558860D01*
X121499005Y-114558776D01*
X121517090Y-114559189D01*
G37*
G36*
X118626670Y-114543139D02*
G01*
X118647731Y-114544088D01*
X118667908Y-114545520D01*
X118686907Y-114547437D01*
X118704433Y-114549843D01*
X118720192Y-114552740D01*
X118733888Y-114556130D01*
X118770079Y-114568862D01*
X118805791Y-114583819D01*
X118840878Y-114600868D01*
X118875192Y-114619878D01*
X118908587Y-114640718D01*
X118940915Y-114663256D01*
X118972028Y-114687359D01*
X119001779Y-114712896D01*
X119030022Y-114739735D01*
X119056608Y-114767745D01*
X119081390Y-114796794D01*
X119104222Y-114826750D01*
X119124956Y-114857480D01*
X119143445Y-114888854D01*
X119159541Y-114920740D01*
X119173097Y-114953005D01*
X119181240Y-114977113D01*
X119188465Y-115002329D01*
X119194766Y-115028439D01*
X119200134Y-115055228D01*
X119204561Y-115082483D01*
X119208040Y-115109988D01*
X119210564Y-115137530D01*
X119212123Y-115164893D01*
X119212711Y-115191863D01*
X119212319Y-115218226D01*
X119210941Y-115243768D01*
X119208568Y-115268273D01*
X119205192Y-115291528D01*
X119200806Y-115313318D01*
X119195402Y-115333428D01*
X119188972Y-115351644D01*
X119181637Y-115367771D01*
X119173539Y-115383403D01*
X119164697Y-115398531D01*
X119155134Y-115413146D01*
X119144871Y-115427239D01*
X119133929Y-115440802D01*
X119122329Y-115453824D01*
X119110093Y-115466297D01*
X119097242Y-115478212D01*
X119083797Y-115489560D01*
X119069780Y-115500332D01*
X119055212Y-115510518D01*
X119040115Y-115520111D01*
X119024509Y-115529099D01*
X119008416Y-115537476D01*
X118991857Y-115545231D01*
X118974854Y-115552356D01*
X118957428Y-115558841D01*
X118939600Y-115564678D01*
X118921391Y-115569857D01*
X118902823Y-115574369D01*
X118883918Y-115578206D01*
X118864696Y-115581358D01*
X118845179Y-115583816D01*
X118825388Y-115585572D01*
X118805344Y-115586615D01*
X118785069Y-115586938D01*
X118764584Y-115586531D01*
X118743911Y-115585385D01*
X118723070Y-115583491D01*
X118702083Y-115580839D01*
X118680972Y-115577422D01*
X118662784Y-115573825D01*
X118643451Y-115569068D01*
X118623235Y-115563272D01*
X118602396Y-115556559D01*
X118581195Y-115549050D01*
X118559894Y-115540866D01*
X118538753Y-115532130D01*
X118518033Y-115522962D01*
X118497995Y-115513484D01*
X118478900Y-115503818D01*
X118461009Y-115494084D01*
X118444583Y-115484405D01*
X118429883Y-115474901D01*
X118417171Y-115465694D01*
X118406706Y-115456906D01*
X118398750Y-115448658D01*
X118397820Y-115447454D01*
X118397014Y-115446157D01*
X118396334Y-115444768D01*
X118395780Y-115443287D01*
X118395352Y-115441714D01*
X118395052Y-115440050D01*
X118394880Y-115438295D01*
X118394836Y-115436449D01*
X118394921Y-115434512D01*
X118395137Y-115432486D01*
X118395482Y-115430369D01*
X118395959Y-115428163D01*
X118396568Y-115425868D01*
X118397309Y-115423484D01*
X118398183Y-115421012D01*
X118399191Y-115418452D01*
X118400333Y-115415803D01*
X118401610Y-115413067D01*
X118403023Y-115410244D01*
X118404572Y-115407334D01*
X118408082Y-115401255D01*
X118412144Y-115394832D01*
X118416765Y-115388068D01*
X118421949Y-115380965D01*
X118427701Y-115373527D01*
X118434027Y-115365755D01*
X118486944Y-115302255D01*
X118562791Y-115342825D01*
X118581722Y-115352722D01*
X118600463Y-115361586D01*
X118618993Y-115369424D01*
X118637288Y-115376246D01*
X118655324Y-115382062D01*
X118673079Y-115386880D01*
X118690529Y-115390711D01*
X118707651Y-115393564D01*
X118724421Y-115395448D01*
X118740817Y-115396372D01*
X118756814Y-115396347D01*
X118772391Y-115395380D01*
X118787523Y-115393482D01*
X118802188Y-115390661D01*
X118816361Y-115386928D01*
X118830020Y-115382292D01*
X118843142Y-115376762D01*
X118855704Y-115370346D01*
X118867681Y-115363056D01*
X118879051Y-115354900D01*
X118889791Y-115345887D01*
X118899877Y-115336027D01*
X118909286Y-115325330D01*
X118917994Y-115313803D01*
X118925980Y-115301458D01*
X118933218Y-115288303D01*
X118939687Y-115274348D01*
X118945362Y-115259602D01*
X118950221Y-115244074D01*
X118954240Y-115227774D01*
X118957396Y-115210711D01*
X118959666Y-115192894D01*
X118961437Y-115160409D01*
X118960855Y-115127896D01*
X118958003Y-115095532D01*
X118952969Y-115063497D01*
X118945836Y-115031967D01*
X118936691Y-115001123D01*
X118925618Y-114971142D01*
X118912703Y-114942202D01*
X118898030Y-114914481D01*
X118881686Y-114888158D01*
X118863756Y-114863412D01*
X118844324Y-114840420D01*
X118823477Y-114819360D01*
X118801299Y-114800412D01*
X118777875Y-114783753D01*
X118753291Y-114769561D01*
X118735295Y-114761189D01*
X118716480Y-114753934D01*
X118697019Y-114747795D01*
X118677086Y-114742772D01*
X118656852Y-114738865D01*
X118636492Y-114736075D01*
X118616178Y-114734400D01*
X118596085Y-114733842D01*
X118576383Y-114734400D01*
X118557248Y-114736075D01*
X118538852Y-114738865D01*
X118521367Y-114742772D01*
X118504968Y-114747795D01*
X118489828Y-114753934D01*
X118476118Y-114761189D01*
X118469854Y-114765236D01*
X118464013Y-114769561D01*
X118454708Y-114776648D01*
X118445465Y-114783259D01*
X118436511Y-114789250D01*
X118428074Y-114794476D01*
X118424121Y-114796757D01*
X118420381Y-114798793D01*
X118416885Y-114800565D01*
X118413660Y-114802055D01*
X118410735Y-114803246D01*
X118408138Y-114804119D01*
X118405897Y-114804656D01*
X118404041Y-114804839D01*
X118403133Y-114804752D01*
X118402064Y-114804493D01*
X118400840Y-114804066D01*
X118399466Y-114803475D01*
X118396290Y-114801816D01*
X118392576Y-114799547D01*
X118388366Y-114796700D01*
X118383701Y-114793305D01*
X118378623Y-114789393D01*
X118373173Y-114784995D01*
X118367392Y-114780143D01*
X118361322Y-114774866D01*
X118355004Y-114769198D01*
X118348479Y-114763167D01*
X118341788Y-114756806D01*
X118334974Y-114750144D01*
X118328077Y-114743215D01*
X118321139Y-114736047D01*
X118254111Y-114667255D01*
X118314083Y-114624922D01*
X118320274Y-114620255D01*
X118326902Y-114615534D01*
X118333907Y-114610787D01*
X118341230Y-114606043D01*
X118356592Y-114596676D01*
X118372512Y-114587660D01*
X118388514Y-114579223D01*
X118404124Y-114571592D01*
X118418865Y-114564995D01*
X118425762Y-114562155D01*
X118432263Y-114559658D01*
X118445960Y-114555917D01*
X118461719Y-114552634D01*
X118479245Y-114549810D01*
X118498244Y-114547449D01*
X118518421Y-114545553D01*
X118539482Y-114544124D01*
X118561132Y-114543166D01*
X118583076Y-114542681D01*
X118605020Y-114542671D01*
X118626670Y-114543139D01*
G37*
G36*
X110024026Y-115341502D02*
G01*
X110131967Y-115817512D01*
X110154471Y-115916750D01*
X110195581Y-116109083D01*
X110209014Y-116187728D01*
X110207893Y-116189981D01*
X110206475Y-116192114D01*
X110204703Y-116194129D01*
X110202516Y-116196030D01*
X110199857Y-116197820D01*
X110196665Y-116199502D01*
X110192884Y-116201079D01*
X110188453Y-116202555D01*
X110183314Y-116203933D01*
X110177409Y-116205216D01*
X110170678Y-116206407D01*
X110163063Y-116207509D01*
X110154504Y-116208527D01*
X110144944Y-116209462D01*
X110134323Y-116210318D01*
X110122583Y-116211099D01*
X110109664Y-116211808D01*
X110095509Y-116212447D01*
X110063251Y-116213531D01*
X110025341Y-116214378D01*
X109981306Y-116215013D01*
X109930678Y-116215462D01*
X109872985Y-116215750D01*
X109734527Y-116215950D01*
X109556929Y-116215089D01*
X109412094Y-116212036D01*
X109294585Y-116206090D01*
X109244379Y-116201812D01*
X109198966Y-116196547D01*
X109157667Y-116190207D01*
X109119802Y-116182705D01*
X109084691Y-116173952D01*
X109051654Y-116163860D01*
X109020013Y-116152342D01*
X108989088Y-116139310D01*
X108926666Y-116108353D01*
X108907909Y-116098039D01*
X108889673Y-116087279D01*
X108871963Y-116076079D01*
X108854784Y-116064448D01*
X108838142Y-116052394D01*
X108822041Y-116039923D01*
X108806486Y-116027044D01*
X108791481Y-116013764D01*
X108777032Y-116000092D01*
X108763143Y-115986035D01*
X108749819Y-115971600D01*
X108737065Y-115956796D01*
X108724887Y-115941630D01*
X108713288Y-115926111D01*
X108702273Y-115910245D01*
X108691849Y-115894040D01*
X108682018Y-115877505D01*
X108672786Y-115860647D01*
X108664159Y-115843473D01*
X108656140Y-115825993D01*
X108648735Y-115808212D01*
X108641948Y-115790140D01*
X108635785Y-115771783D01*
X108630250Y-115753150D01*
X108625348Y-115734248D01*
X108621084Y-115715085D01*
X108617463Y-115695668D01*
X108614489Y-115676007D01*
X108612167Y-115656108D01*
X108611349Y-115646214D01*
X109085416Y-115646214D01*
X109085747Y-115659402D01*
X109086744Y-115672179D01*
X109088410Y-115684547D01*
X109090749Y-115696509D01*
X109093765Y-115708066D01*
X109097462Y-115719221D01*
X109101843Y-115729976D01*
X109106913Y-115740334D01*
X109112676Y-115750296D01*
X109119135Y-115759865D01*
X109126294Y-115769044D01*
X109134157Y-115777834D01*
X109142728Y-115786237D01*
X109152011Y-115794257D01*
X109162010Y-115801895D01*
X109172728Y-115809153D01*
X109184170Y-115816034D01*
X109196339Y-115822540D01*
X109209240Y-115828674D01*
X109222875Y-115834437D01*
X109237250Y-115839831D01*
X109252367Y-115844860D01*
X109268231Y-115849525D01*
X109284845Y-115853829D01*
X109302214Y-115857774D01*
X109320342Y-115861361D01*
X109339231Y-115864594D01*
X109358887Y-115867475D01*
X109379313Y-115870006D01*
X109400512Y-115872188D01*
X109445249Y-115875519D01*
X109488461Y-115877655D01*
X109524707Y-115878716D01*
X109554793Y-115878620D01*
X109567778Y-115878112D01*
X109579525Y-115877283D01*
X109590136Y-115876124D01*
X109599710Y-115874624D01*
X109608349Y-115872772D01*
X109616153Y-115870558D01*
X109623224Y-115867973D01*
X109629662Y-115865005D01*
X109635567Y-115861644D01*
X109641041Y-115857880D01*
X109646930Y-115853163D01*
X109649577Y-115850935D01*
X109652024Y-115848747D01*
X109654269Y-115846567D01*
X109656311Y-115844358D01*
X109658149Y-115842086D01*
X109659782Y-115839718D01*
X109661208Y-115837217D01*
X109662426Y-115834551D01*
X109662957Y-115833144D01*
X109663435Y-115831683D01*
X109664233Y-115828580D01*
X109664819Y-115825207D01*
X109665193Y-115821529D01*
X109665351Y-115817512D01*
X109665294Y-115813122D01*
X109665020Y-115808323D01*
X109664528Y-115803081D01*
X109663816Y-115797363D01*
X109662883Y-115791132D01*
X109661728Y-115784354D01*
X109660349Y-115776996D01*
X109658745Y-115769022D01*
X109656916Y-115760398D01*
X109652573Y-115741061D01*
X109647311Y-115718709D01*
X109641118Y-115693065D01*
X109633985Y-115663853D01*
X109625765Y-115629574D01*
X109617173Y-115597321D01*
X109608498Y-115567797D01*
X109600030Y-115541703D01*
X109592059Y-115519744D01*
X109584872Y-115502622D01*
X109581664Y-115496095D01*
X109578761Y-115491040D01*
X109576199Y-115487546D01*
X109574014Y-115485700D01*
X109565596Y-115483529D01*
X109552647Y-115481648D01*
X109515529Y-115478755D01*
X109467415Y-115477018D01*
X109413058Y-115476440D01*
X109357213Y-115477018D01*
X109304635Y-115478755D01*
X109260076Y-115481648D01*
X109242290Y-115483529D01*
X109228291Y-115485700D01*
X109220277Y-115487487D01*
X109212444Y-115489537D01*
X109204795Y-115491845D01*
X109197337Y-115494406D01*
X109190074Y-115497213D01*
X109183011Y-115500261D01*
X109176153Y-115503545D01*
X109169504Y-115507059D01*
X109163070Y-115510799D01*
X109156855Y-115514757D01*
X109150864Y-115518929D01*
X109145103Y-115523310D01*
X109139575Y-115527893D01*
X109134285Y-115532674D01*
X109129240Y-115537647D01*
X109124442Y-115542806D01*
X109119898Y-115548146D01*
X109115612Y-115553661D01*
X109111589Y-115559346D01*
X109107833Y-115565195D01*
X109104350Y-115571204D01*
X109101145Y-115577366D01*
X109098222Y-115583675D01*
X109095586Y-115590128D01*
X109093242Y-115596717D01*
X109091195Y-115603437D01*
X109089449Y-115610284D01*
X109088010Y-115617251D01*
X109086882Y-115624333D01*
X109086071Y-115631524D01*
X109085580Y-115638820D01*
X109085416Y-115646214D01*
X108611349Y-115646214D01*
X108610503Y-115635978D01*
X108609501Y-115615627D01*
X108609166Y-115595061D01*
X108609394Y-115559756D01*
X108609841Y-115545017D01*
X108610654Y-115531892D01*
X108611944Y-115520130D01*
X108613817Y-115509485D01*
X108615007Y-115504503D01*
X108616383Y-115499708D01*
X108617959Y-115495067D01*
X108619749Y-115490551D01*
X108621767Y-115486127D01*
X108624026Y-115481766D01*
X108626539Y-115477435D01*
X108629320Y-115473105D01*
X108635741Y-115464320D01*
X108643396Y-115455163D01*
X108652396Y-115445385D01*
X108662847Y-115434740D01*
X108688541Y-115409853D01*
X108696841Y-115402024D01*
X108705171Y-115394439D01*
X108713474Y-115387133D01*
X108721697Y-115380142D01*
X108737686Y-115367251D01*
X108745343Y-115361422D01*
X108752703Y-115356054D01*
X108759712Y-115351182D01*
X108766315Y-115346842D01*
X108772458Y-115343070D01*
X108778086Y-115339903D01*
X108783147Y-115337377D01*
X108787584Y-115335528D01*
X108791345Y-115334392D01*
X108794374Y-115334005D01*
X108798793Y-115333928D01*
X108802791Y-115333700D01*
X108806371Y-115333324D01*
X108809536Y-115332803D01*
X108812289Y-115332142D01*
X108814633Y-115331343D01*
X108816570Y-115330410D01*
X108818104Y-115329348D01*
X108819238Y-115328158D01*
X108819655Y-115327517D01*
X108819974Y-115326846D01*
X108820194Y-115326145D01*
X108820315Y-115325414D01*
X108820265Y-115323867D01*
X108819825Y-115322206D01*
X108819000Y-115320437D01*
X108817791Y-115318563D01*
X108816203Y-115316587D01*
X108814237Y-115314513D01*
X108811897Y-115312344D01*
X108809185Y-115310084D01*
X108806105Y-115307737D01*
X108802660Y-115305305D01*
X108798851Y-115302793D01*
X108794683Y-115300205D01*
X108790158Y-115297543D01*
X108785279Y-115294811D01*
X108780049Y-115292013D01*
X108774471Y-115289152D01*
X108768547Y-115286232D01*
X108755676Y-115280230D01*
X108741458Y-115274033D01*
X108725891Y-115267326D01*
X108710619Y-115259791D01*
X108695659Y-115251459D01*
X108681028Y-115242362D01*
X108666741Y-115232530D01*
X108652816Y-115221994D01*
X108639269Y-115210783D01*
X108626116Y-115198930D01*
X108613374Y-115186464D01*
X108601059Y-115173417D01*
X108589189Y-115159819D01*
X108577778Y-115145700D01*
X108566844Y-115131092D01*
X108556403Y-115116024D01*
X108546472Y-115100529D01*
X108537067Y-115084636D01*
X108528205Y-115068376D01*
X108519902Y-115051779D01*
X108512174Y-115034877D01*
X108505039Y-115017701D01*
X108498511Y-115000280D01*
X108492609Y-114982646D01*
X108487348Y-114964829D01*
X108484793Y-114954852D01*
X108962326Y-114954852D01*
X108963076Y-114966664D01*
X108964629Y-114978551D01*
X108966975Y-114990474D01*
X108970102Y-115002394D01*
X108973999Y-115014273D01*
X108978655Y-115026072D01*
X108984058Y-115037753D01*
X108990197Y-115049275D01*
X108997061Y-115060601D01*
X109004638Y-115071692D01*
X109012918Y-115082510D01*
X109021888Y-115093014D01*
X109031538Y-115103167D01*
X109041857Y-115112930D01*
X109052832Y-115122264D01*
X109064453Y-115131131D01*
X109076708Y-115139491D01*
X109089586Y-115147305D01*
X109103076Y-115154536D01*
X109117166Y-115161144D01*
X109135903Y-115168536D01*
X109158004Y-115175466D01*
X109182906Y-115181883D01*
X109210046Y-115187740D01*
X109238860Y-115192988D01*
X109268785Y-115197576D01*
X109299257Y-115201457D01*
X109329715Y-115204580D01*
X109359593Y-115206897D01*
X109388329Y-115208359D01*
X109415360Y-115208917D01*
X109440123Y-115208521D01*
X109462054Y-115207123D01*
X109480589Y-115204673D01*
X109495166Y-115201122D01*
X109500794Y-115198919D01*
X109505222Y-115196422D01*
X109506968Y-115195184D01*
X109508569Y-115193777D01*
X109510022Y-115192183D01*
X109511326Y-115190390D01*
X109512481Y-115188380D01*
X109513485Y-115186140D01*
X109514336Y-115183653D01*
X109515033Y-115180905D01*
X109515575Y-115177881D01*
X109515961Y-115174565D01*
X109516190Y-115170942D01*
X109516259Y-115166998D01*
X109516169Y-115162716D01*
X109515917Y-115158081D01*
X109515502Y-115153079D01*
X109514923Y-115147695D01*
X109514178Y-115141912D01*
X109513267Y-115135716D01*
X109510940Y-115122025D01*
X109507931Y-115106500D01*
X109504229Y-115089018D01*
X109499825Y-115069459D01*
X109494707Y-115047701D01*
X109488866Y-115023623D01*
X109482291Y-114997103D01*
X109463054Y-114925059D01*
X109446132Y-114863929D01*
X109433178Y-114819997D01*
X109428707Y-114806444D01*
X109425847Y-114799547D01*
X109425131Y-114798736D01*
X109423981Y-114797956D01*
X109422410Y-114797208D01*
X109420428Y-114796491D01*
X109415278Y-114795156D01*
X109408621Y-114793952D01*
X109400549Y-114792883D01*
X109391151Y-114791951D01*
X109380518Y-114791158D01*
X109368741Y-114790507D01*
X109355909Y-114790001D01*
X109342113Y-114789642D01*
X109311993Y-114789377D01*
X109279103Y-114789732D01*
X109244167Y-114790728D01*
X109195184Y-114792330D01*
X109154594Y-114794614D01*
X109137071Y-114796070D01*
X109121197Y-114797766D01*
X109106821Y-114799726D01*
X109093794Y-114801972D01*
X109081967Y-114804529D01*
X109071188Y-114807419D01*
X109061308Y-114810666D01*
X109052178Y-114814292D01*
X109043647Y-114818322D01*
X109035566Y-114822777D01*
X109027784Y-114827683D01*
X109020152Y-114833061D01*
X109010373Y-114840951D01*
X109001534Y-114849380D01*
X108993623Y-114858311D01*
X108986628Y-114867705D01*
X108980539Y-114877522D01*
X108975345Y-114887724D01*
X108971034Y-114898273D01*
X108967594Y-114909129D01*
X108965015Y-114920253D01*
X108963284Y-114931608D01*
X108962392Y-114943154D01*
X108962326Y-114954852D01*
X108484793Y-114954852D01*
X108482746Y-114946859D01*
X108478817Y-114928769D01*
X108475579Y-114910587D01*
X108473049Y-114892346D01*
X108471243Y-114874075D01*
X108470176Y-114855805D01*
X108469867Y-114837568D01*
X108470330Y-114819393D01*
X108471584Y-114801311D01*
X108473544Y-114784871D01*
X108476128Y-114768949D01*
X108479347Y-114753535D01*
X108483214Y-114738620D01*
X108487743Y-114724195D01*
X108492946Y-114710251D01*
X108498837Y-114696777D01*
X108505428Y-114683764D01*
X108512732Y-114671204D01*
X108520762Y-114659087D01*
X108529531Y-114647403D01*
X108539052Y-114636143D01*
X108549337Y-114625297D01*
X108560401Y-114614858D01*
X108572255Y-114604814D01*
X108584913Y-114595156D01*
X108598387Y-114585876D01*
X108612690Y-114576964D01*
X108627836Y-114568410D01*
X108643838Y-114560206D01*
X108660707Y-114552341D01*
X108678457Y-114544807D01*
X108697102Y-114537593D01*
X108716653Y-114530692D01*
X108737124Y-114524092D01*
X108758528Y-114517786D01*
X108804186Y-114506015D01*
X108853730Y-114495302D01*
X108907263Y-114485575D01*
X108979717Y-114479129D01*
X109097295Y-114474358D01*
X109243274Y-114471281D01*
X109400932Y-114469920D01*
X109553546Y-114470296D01*
X109684394Y-114472428D01*
X109776754Y-114476339D01*
X109803275Y-114478967D01*
X109813902Y-114482047D01*
X109838332Y-114566479D01*
X109887297Y-114762946D01*
X109982786Y-115166998D01*
X110024026Y-115341502D01*
G37*
G36*
X113463609Y-115340840D02*
G01*
X113594054Y-115916502D01*
X113635164Y-116109011D01*
X113648596Y-116187728D01*
X113647689Y-116189826D01*
X113646607Y-116191823D01*
X113645331Y-116193722D01*
X113643842Y-116195524D01*
X113642121Y-116197231D01*
X113640147Y-116198847D01*
X113637903Y-116200373D01*
X113635367Y-116201811D01*
X113632522Y-116203164D01*
X113629347Y-116204434D01*
X113625823Y-116205623D01*
X113621931Y-116206734D01*
X113617652Y-116207769D01*
X113612965Y-116208729D01*
X113607853Y-116209618D01*
X113602294Y-116210438D01*
X113596271Y-116211190D01*
X113589763Y-116211877D01*
X113582751Y-116212502D01*
X113575216Y-116213066D01*
X113558498Y-116214023D01*
X113539456Y-116214765D01*
X113517932Y-116215310D01*
X113493774Y-116215678D01*
X113466824Y-116215885D01*
X113436929Y-116215950D01*
X113387451Y-116215616D01*
X113344711Y-116214600D01*
X113308503Y-116212880D01*
X113278621Y-116210438D01*
X113254856Y-116207251D01*
X113245204Y-116205372D01*
X113237004Y-116203300D01*
X113230230Y-116201030D01*
X113224857Y-116198562D01*
X113220858Y-116195893D01*
X113218208Y-116193019D01*
X113215961Y-116189777D01*
X113213216Y-116184110D01*
X113210011Y-116176160D01*
X113206384Y-116166065D01*
X113198023Y-116139999D01*
X113188442Y-116107030D01*
X113177952Y-116068272D01*
X113166862Y-116024844D01*
X113155483Y-115977859D01*
X113144124Y-115928436D01*
X113085916Y-115686783D01*
X112846028Y-115686783D01*
X112777476Y-115686072D01*
X112712595Y-115683907D01*
X112651214Y-115680237D01*
X112593157Y-115675015D01*
X112538253Y-115668190D01*
X112486328Y-115659715D01*
X112437209Y-115649540D01*
X112390723Y-115637615D01*
X112346697Y-115623892D01*
X112304958Y-115608321D01*
X112265332Y-115590854D01*
X112227646Y-115571441D01*
X112191728Y-115550034D01*
X112157404Y-115526583D01*
X112124502Y-115501039D01*
X112092847Y-115473353D01*
X112068372Y-115449030D01*
X112044633Y-115421897D01*
X112021747Y-115392241D01*
X111999829Y-115360354D01*
X111978997Y-115326523D01*
X111959367Y-115291038D01*
X111941054Y-115254189D01*
X111924175Y-115216266D01*
X111908847Y-115177557D01*
X111895185Y-115138352D01*
X111883306Y-115098940D01*
X111873326Y-115059610D01*
X111868480Y-115035908D01*
X112348611Y-115035908D01*
X112348722Y-115048618D01*
X112349083Y-115060365D01*
X112349739Y-115071259D01*
X112350733Y-115081411D01*
X112352110Y-115090933D01*
X112353913Y-115099935D01*
X112356186Y-115108530D01*
X112358974Y-115116827D01*
X112362319Y-115124938D01*
X112366267Y-115132974D01*
X112370861Y-115141046D01*
X112376144Y-115149266D01*
X112382161Y-115157744D01*
X112388956Y-115166591D01*
X112396573Y-115175919D01*
X112405055Y-115185839D01*
X112419851Y-115201934D01*
X112434621Y-115216541D01*
X112442066Y-115223313D01*
X112449587Y-115229743D01*
X112457214Y-115235843D01*
X112464972Y-115241622D01*
X112472891Y-115247091D01*
X112480998Y-115252260D01*
X112489320Y-115257140D01*
X112497887Y-115261741D01*
X112506724Y-115266073D01*
X112515860Y-115270147D01*
X112525324Y-115273973D01*
X112535142Y-115277561D01*
X112545342Y-115280922D01*
X112555953Y-115284065D01*
X112567001Y-115287002D01*
X112578515Y-115289743D01*
X112603052Y-115294676D01*
X112629785Y-115298948D01*
X112658937Y-115302641D01*
X112690729Y-115305838D01*
X112725384Y-115308622D01*
X112763124Y-115311075D01*
X112843336Y-115315485D01*
X112875617Y-115316780D01*
X112903105Y-115317249D01*
X112926118Y-115316725D01*
X112944974Y-115315044D01*
X112952942Y-115313717D01*
X112959990Y-115312040D01*
X112966157Y-115309990D01*
X112971484Y-115307547D01*
X112976010Y-115304691D01*
X112979774Y-115301401D01*
X112982817Y-115297656D01*
X112985178Y-115293436D01*
X112986897Y-115288720D01*
X112988014Y-115283487D01*
X112988568Y-115277716D01*
X112988599Y-115271387D01*
X112987252Y-115256973D01*
X112984289Y-115240078D01*
X112974791Y-115198186D01*
X112949655Y-115085518D01*
X112935103Y-115019840D01*
X112921874Y-114958297D01*
X112891889Y-114822478D01*
X112720791Y-114822478D01*
X112685317Y-114822874D01*
X112649657Y-114823994D01*
X112614782Y-114825733D01*
X112581664Y-114827990D01*
X112551275Y-114830660D01*
X112524586Y-114833640D01*
X112502568Y-114836826D01*
X112486194Y-114840117D01*
X112477729Y-114842706D01*
X112469533Y-114845513D01*
X112461606Y-114848539D01*
X112453948Y-114851785D01*
X112446558Y-114855252D01*
X112439437Y-114858941D01*
X112432585Y-114862853D01*
X112426001Y-114866988D01*
X112419686Y-114871349D01*
X112413640Y-114875935D01*
X112407863Y-114880748D01*
X112402354Y-114885788D01*
X112397114Y-114891057D01*
X112392143Y-114896556D01*
X112387440Y-114902286D01*
X112383006Y-114908247D01*
X112378841Y-114914440D01*
X112374945Y-114920867D01*
X112371317Y-114927529D01*
X112367958Y-114934426D01*
X112364868Y-114941559D01*
X112362047Y-114948930D01*
X112359494Y-114956539D01*
X112357210Y-114964388D01*
X112355194Y-114972477D01*
X112353448Y-114980807D01*
X112351970Y-114989379D01*
X112350761Y-114998195D01*
X112349820Y-115007254D01*
X112349148Y-115016559D01*
X112348745Y-115026110D01*
X112348611Y-115035908D01*
X111868480Y-115035908D01*
X111865361Y-115020653D01*
X111859528Y-114982358D01*
X111855943Y-114945013D01*
X111854722Y-114908908D01*
X111855330Y-114892252D01*
X111857109Y-114874798D01*
X111859989Y-114856698D01*
X111863900Y-114838105D01*
X111868772Y-114819170D01*
X111874535Y-114800047D01*
X111881120Y-114780887D01*
X111888456Y-114761844D01*
X111896475Y-114743069D01*
X111905106Y-114724716D01*
X111914280Y-114706936D01*
X111923927Y-114689883D01*
X111933977Y-114673708D01*
X111944360Y-114658563D01*
X111955006Y-114644603D01*
X111965846Y-114631978D01*
X111977238Y-114620432D01*
X111990169Y-114608982D01*
X112004526Y-114597681D01*
X112020196Y-114586585D01*
X112037065Y-114575747D01*
X112055019Y-114565222D01*
X112073945Y-114555064D01*
X112093729Y-114545327D01*
X112114256Y-114536065D01*
X112135414Y-114527333D01*
X112157089Y-114519185D01*
X112179167Y-114511675D01*
X112201534Y-114504857D01*
X112224077Y-114498787D01*
X112246682Y-114493517D01*
X112269235Y-114489103D01*
X112344445Y-114481926D01*
X112470401Y-114476342D01*
X112628562Y-114472452D01*
X112800386Y-114470361D01*
X112967332Y-114470172D01*
X113110858Y-114471987D01*
X113212423Y-114475911D01*
X113241676Y-114478696D01*
X113253485Y-114482047D01*
X113277915Y-114565973D01*
X113326880Y-114762202D01*
X113447197Y-115271387D01*
X113463609Y-115340840D01*
G37*
G36*
X116309189Y-114468511D02*
G01*
X116344530Y-114470138D01*
X116376781Y-114472594D01*
X116404857Y-114475887D01*
X116427672Y-114480025D01*
X116444142Y-114485015D01*
X116449657Y-114487833D01*
X116453180Y-114490867D01*
X116455609Y-114495172D01*
X116458892Y-114503317D01*
X116467787Y-114530278D01*
X116479411Y-114570055D01*
X116493309Y-114620953D01*
X116509025Y-114681277D01*
X116526106Y-114749331D01*
X116544096Y-114823422D01*
X116562541Y-114901853D01*
X116760097Y-115729116D01*
X116800556Y-115901564D01*
X116832416Y-116046396D01*
X116844088Y-116103753D01*
X116852370Y-116148564D01*
X116856849Y-116178946D01*
X116857533Y-116188139D01*
X116857111Y-116193019D01*
X116855964Y-116194792D01*
X116854138Y-116196473D01*
X116851574Y-116198065D01*
X116848212Y-116199568D01*
X116843994Y-116200985D01*
X116838860Y-116202317D01*
X116832751Y-116203566D01*
X116825609Y-116204733D01*
X116807986Y-116206828D01*
X116785518Y-116208615D01*
X116757733Y-116210108D01*
X116724158Y-116211320D01*
X116684319Y-116212262D01*
X116637744Y-116212949D01*
X116583961Y-116213393D01*
X116522495Y-116213607D01*
X116374628Y-116213397D01*
X116190360Y-116212422D01*
X115532430Y-116207130D01*
X115491860Y-116041325D01*
X115481766Y-115998489D01*
X115473946Y-115962226D01*
X115468358Y-115931998D01*
X115466388Y-115918980D01*
X115464961Y-115907269D01*
X115464072Y-115896799D01*
X115463714Y-115887501D01*
X115463884Y-115879310D01*
X115464576Y-115872157D01*
X115465784Y-115865975D01*
X115467504Y-115860698D01*
X115469730Y-115856259D01*
X115472458Y-115852589D01*
X115474173Y-115850811D01*
X115476359Y-115849113D01*
X115479042Y-115847494D01*
X115482249Y-115845950D01*
X115486006Y-115844480D01*
X115490341Y-115843082D01*
X115495278Y-115841752D01*
X115500846Y-115840490D01*
X115513976Y-115838156D01*
X115529943Y-115836063D01*
X115548959Y-115834192D01*
X115571236Y-115832525D01*
X115596985Y-115831044D01*
X115626419Y-115829731D01*
X115659749Y-115828567D01*
X115697188Y-115827536D01*
X115785238Y-115825796D01*
X115892263Y-115824367D01*
X116290903Y-115819075D01*
X116296194Y-115773214D01*
X116296082Y-115765498D01*
X116294475Y-115751833D01*
X116287071Y-115708005D01*
X116274583Y-115644415D01*
X116257609Y-115563752D01*
X116236749Y-115468702D01*
X116212602Y-115361952D01*
X116156847Y-115124103D01*
X116102690Y-114888816D01*
X116059612Y-114691729D01*
X116032079Y-114553843D01*
X116025537Y-114513663D01*
X116024555Y-114496158D01*
X116026796Y-114492944D01*
X116031113Y-114489917D01*
X116037370Y-114487078D01*
X116045432Y-114484428D01*
X116066428Y-114479698D01*
X116093016Y-114475736D01*
X116124110Y-114472549D01*
X116158624Y-114470144D01*
X116195475Y-114468531D01*
X116233576Y-114467716D01*
X116271842Y-114467706D01*
X116309189Y-114468511D01*
G37*
G36*
X117143147Y-114469111D02*
G01*
X117234611Y-114471767D01*
X117271709Y-114474122D01*
X117300980Y-114477193D01*
X117320873Y-114481003D01*
X117326816Y-114483192D01*
X117329833Y-114485575D01*
X117334230Y-114494436D01*
X117339376Y-114508591D01*
X117351275Y-114549654D01*
X117364250Y-114602498D01*
X117377017Y-114660861D01*
X117388296Y-114718481D01*
X117396806Y-114769092D01*
X117399621Y-114789813D01*
X117401264Y-114806434D01*
X117401573Y-114818171D01*
X117401177Y-114821963D01*
X117400389Y-114824241D01*
X117399836Y-114825244D01*
X117399174Y-114826265D01*
X117398406Y-114827304D01*
X117397536Y-114828358D01*
X117395505Y-114830509D01*
X117393113Y-114832703D01*
X117390389Y-114834928D01*
X117387366Y-114837171D01*
X117384074Y-114839419D01*
X117380545Y-114841660D01*
X117376808Y-114843880D01*
X117372897Y-114846066D01*
X117368840Y-114848206D01*
X117364670Y-114850286D01*
X117360417Y-114852295D01*
X117356112Y-114854217D01*
X117351787Y-114856042D01*
X117347472Y-114857755D01*
X117342866Y-114859840D01*
X117338322Y-114862110D01*
X117333860Y-114864546D01*
X117329502Y-114867126D01*
X117325268Y-114869830D01*
X117321179Y-114872638D01*
X117317255Y-114875529D01*
X117313517Y-114878481D01*
X117309986Y-114881475D01*
X117306682Y-114884489D01*
X117303626Y-114887504D01*
X117300839Y-114890498D01*
X117298341Y-114893450D01*
X117296153Y-114896340D01*
X117294297Y-114899148D01*
X117292791Y-114901853D01*
X117291344Y-114916857D01*
X117293367Y-114943011D01*
X117298485Y-114978813D01*
X117306324Y-115022762D01*
X117328665Y-115129095D01*
X117357394Y-115250000D01*
X117389512Y-115373469D01*
X117422024Y-115487491D01*
X117451930Y-115580058D01*
X117464970Y-115614542D01*
X117476235Y-115639158D01*
X117482744Y-115650823D01*
X117489380Y-115662009D01*
X117496159Y-115672723D01*
X117503094Y-115682973D01*
X117510199Y-115692766D01*
X117517489Y-115702108D01*
X117524978Y-115711007D01*
X117532680Y-115719470D01*
X117540610Y-115727505D01*
X117548781Y-115735117D01*
X117557208Y-115742315D01*
X117565905Y-115749105D01*
X117574886Y-115755495D01*
X117584166Y-115761491D01*
X117593758Y-115767101D01*
X117603677Y-115772332D01*
X117613937Y-115777191D01*
X117624552Y-115781684D01*
X117635537Y-115785820D01*
X117646906Y-115789606D01*
X117658672Y-115793047D01*
X117670851Y-115796152D01*
X117683456Y-115798928D01*
X117696501Y-115801381D01*
X117710002Y-115803519D01*
X117723971Y-115805349D01*
X117753373Y-115808113D01*
X117784822Y-115809729D01*
X117818430Y-115810255D01*
X117847383Y-115809859D01*
X117878072Y-115808740D01*
X117909587Y-115807000D01*
X117941020Y-115804743D01*
X117971461Y-115802073D01*
X118000000Y-115799093D01*
X118025728Y-115795907D01*
X118047736Y-115792617D01*
X118072268Y-115788066D01*
X118083156Y-115786342D01*
X118093183Y-115784982D01*
X118102394Y-115783984D01*
X118110833Y-115783346D01*
X118118542Y-115783064D01*
X118125567Y-115783136D01*
X118131952Y-115783559D01*
X118137739Y-115784331D01*
X118142973Y-115785449D01*
X118147699Y-115786911D01*
X118151959Y-115788715D01*
X118155798Y-115790856D01*
X118159260Y-115793334D01*
X118162388Y-115796144D01*
X118165795Y-115800291D01*
X118169385Y-115806044D01*
X118177020Y-115821931D01*
X118185104Y-115842928D01*
X118193449Y-115868161D01*
X118201867Y-115896752D01*
X118210169Y-115927826D01*
X118225668Y-115993920D01*
X118238439Y-116059436D01*
X118243330Y-116089787D01*
X118246973Y-116117365D01*
X118249179Y-116141295D01*
X118249760Y-116160701D01*
X118248527Y-116174707D01*
X118247171Y-116179411D01*
X118245291Y-116182436D01*
X118244079Y-116183454D01*
X118242434Y-116184521D01*
X118237898Y-116186794D01*
X118231780Y-116189238D01*
X118224180Y-116191834D01*
X118215194Y-116194565D01*
X118204922Y-116197412D01*
X118180909Y-116203382D01*
X118152928Y-116209601D01*
X118121764Y-116215922D01*
X118088202Y-116222203D01*
X118053027Y-116228297D01*
X117984157Y-116236918D01*
X117917128Y-116242277D01*
X117851966Y-116244381D01*
X117788692Y-116243235D01*
X117727330Y-116238843D01*
X117667903Y-116231212D01*
X117610435Y-116220345D01*
X117554949Y-116206249D01*
X117501468Y-116188927D01*
X117450015Y-116168387D01*
X117400614Y-116144632D01*
X117353287Y-116117668D01*
X117308059Y-116087500D01*
X117264951Y-116054134D01*
X117223989Y-116017574D01*
X117185194Y-115977825D01*
X117164023Y-115953724D01*
X117144070Y-115928805D01*
X117125186Y-115902702D01*
X117107225Y-115875051D01*
X117090038Y-115845488D01*
X117073480Y-115813649D01*
X117057402Y-115779169D01*
X117041658Y-115741684D01*
X117026099Y-115700830D01*
X117010579Y-115656242D01*
X116994951Y-115607557D01*
X116979067Y-115554409D01*
X116962780Y-115496434D01*
X116945943Y-115433269D01*
X116928407Y-115364548D01*
X116910027Y-115289908D01*
X116816155Y-114899152D01*
X116762302Y-114660200D01*
X116748004Y-114586178D01*
X116740859Y-114536342D01*
X116739915Y-114506101D01*
X116741472Y-114496895D01*
X116744222Y-114490867D01*
X116747719Y-114488604D01*
X116754112Y-114486447D01*
X116774811Y-114482464D01*
X116804765Y-114478941D01*
X116842421Y-114475901D01*
X116934629Y-114471364D01*
X117039012Y-114469038D01*
X117143147Y-114469111D01*
G37*
G36*
X110851355Y-114455747D02*
G01*
X110893990Y-114458501D01*
X110934881Y-114462148D01*
X110973468Y-114466684D01*
X111009189Y-114472104D01*
X111041484Y-114478403D01*
X111069792Y-114485575D01*
X111117568Y-114500570D01*
X111164270Y-114517731D01*
X111209814Y-114536990D01*
X111254118Y-114558280D01*
X111297099Y-114581534D01*
X111338674Y-114606684D01*
X111378761Y-114633663D01*
X111417277Y-114662405D01*
X111454140Y-114692841D01*
X111489266Y-114724906D01*
X111522573Y-114758531D01*
X111553978Y-114793649D01*
X111583400Y-114830194D01*
X111610754Y-114868098D01*
X111635958Y-114907293D01*
X111658930Y-114947714D01*
X111674576Y-114979593D01*
X111690921Y-115018948D01*
X111707710Y-115064695D01*
X111724690Y-115115752D01*
X111758211Y-115229464D01*
X111789458Y-115351424D01*
X111816405Y-115472970D01*
X111837028Y-115585442D01*
X111844334Y-115635569D01*
X111849299Y-115680179D01*
X111851670Y-115718190D01*
X111851194Y-115748519D01*
X111847649Y-115780654D01*
X111842329Y-115811891D01*
X111835264Y-115842211D01*
X111826489Y-115871595D01*
X111816036Y-115900025D01*
X111803937Y-115927481D01*
X111790226Y-115953944D01*
X111774934Y-115979396D01*
X111758094Y-116003816D01*
X111739739Y-116027187D01*
X111719902Y-116049488D01*
X111698614Y-116070701D01*
X111675910Y-116090807D01*
X111651821Y-116109787D01*
X111626380Y-116127622D01*
X111599619Y-116144292D01*
X111571572Y-116159779D01*
X111542271Y-116174063D01*
X111511748Y-116187126D01*
X111480037Y-116198948D01*
X111447169Y-116209511D01*
X111413177Y-116218795D01*
X111378095Y-116226781D01*
X111341954Y-116233451D01*
X111304787Y-116238785D01*
X111266627Y-116242763D01*
X111227507Y-116245368D01*
X111187458Y-116246580D01*
X111146515Y-116246380D01*
X111104708Y-116244749D01*
X111062072Y-116241667D01*
X111018638Y-116237117D01*
X110984180Y-116231942D01*
X110947697Y-116225817D01*
X110910304Y-116218947D01*
X110873118Y-116211540D01*
X110837254Y-116203802D01*
X110803830Y-116195941D01*
X110773961Y-116188162D01*
X110748763Y-116180672D01*
X110710398Y-116166346D01*
X110672775Y-116149900D01*
X110636014Y-116131450D01*
X110600238Y-116111109D01*
X110565568Y-116088989D01*
X110532125Y-116065206D01*
X110500031Y-116039873D01*
X110469407Y-116013103D01*
X110440375Y-115985010D01*
X110413056Y-115955707D01*
X110387571Y-115925310D01*
X110364042Y-115893930D01*
X110342591Y-115861682D01*
X110323338Y-115828680D01*
X110306406Y-115795037D01*
X110291915Y-115760867D01*
X110282659Y-115735559D01*
X110279029Y-115725063D01*
X110276068Y-115715832D01*
X110273780Y-115707739D01*
X110272165Y-115700653D01*
X110271228Y-115694446D01*
X110270970Y-115688988D01*
X110271097Y-115686500D01*
X110271394Y-115684150D01*
X110271863Y-115681924D01*
X110272503Y-115679803D01*
X110273315Y-115677774D01*
X110274299Y-115675818D01*
X110275456Y-115673921D01*
X110276785Y-115672066D01*
X110279964Y-115668417D01*
X110283837Y-115664741D01*
X110288409Y-115660911D01*
X110293680Y-115656797D01*
X110298498Y-115653923D01*
X110304363Y-115651254D01*
X110311288Y-115648786D01*
X110319284Y-115646517D01*
X110328366Y-115644444D01*
X110338546Y-115642565D01*
X110349836Y-115640878D01*
X110362251Y-115639379D01*
X110375803Y-115638066D01*
X110390504Y-115636936D01*
X110406368Y-115635988D01*
X110423408Y-115635217D01*
X110441637Y-115634622D01*
X110461066Y-115634201D01*
X110503582Y-115633867D01*
X110678208Y-115633867D01*
X110768166Y-115729116D01*
X110781582Y-115743020D01*
X110794135Y-115755678D01*
X110805954Y-115767168D01*
X110817169Y-115777568D01*
X110827908Y-115786955D01*
X110838301Y-115795407D01*
X110848477Y-115803001D01*
X110858565Y-115809814D01*
X110868695Y-115815925D01*
X110878995Y-115821411D01*
X110889594Y-115826348D01*
X110900623Y-115830816D01*
X110912210Y-115834890D01*
X110924484Y-115838650D01*
X110937574Y-115842172D01*
X110951611Y-115845533D01*
X110976498Y-115850579D01*
X111001472Y-115854480D01*
X111026408Y-115857250D01*
X111051188Y-115858900D01*
X111075688Y-115859445D01*
X111099788Y-115858897D01*
X111123365Y-115857268D01*
X111146300Y-115854573D01*
X111168469Y-115850824D01*
X111189753Y-115846033D01*
X111210028Y-115840213D01*
X111229175Y-115833379D01*
X111247071Y-115825542D01*
X111263595Y-115816715D01*
X111278626Y-115806911D01*
X111292041Y-115796144D01*
X111300862Y-115787913D01*
X111309137Y-115779406D01*
X111316864Y-115770597D01*
X111324046Y-115761459D01*
X111330683Y-115751964D01*
X111336775Y-115742086D01*
X111342323Y-115731796D01*
X111347328Y-115721069D01*
X111351790Y-115709876D01*
X111355711Y-115698192D01*
X111359090Y-115685988D01*
X111361928Y-115673237D01*
X111364227Y-115659913D01*
X111365986Y-115645988D01*
X111367206Y-115631435D01*
X111367888Y-115616228D01*
X111368033Y-115600338D01*
X111367641Y-115583739D01*
X111366713Y-115566403D01*
X111365249Y-115548304D01*
X111363251Y-115529415D01*
X111360718Y-115509707D01*
X111354053Y-115467730D01*
X111345258Y-115422157D01*
X111334340Y-115372770D01*
X111321303Y-115319352D01*
X111306152Y-115261686D01*
X111291313Y-115211995D01*
X111274585Y-115165454D01*
X111255981Y-115122070D01*
X111235514Y-115081852D01*
X111213197Y-115044806D01*
X111201349Y-115027476D01*
X111189043Y-115010942D01*
X111176281Y-114995204D01*
X111163065Y-114980265D01*
X111149396Y-114966125D01*
X111135276Y-114952785D01*
X111120706Y-114940246D01*
X111105688Y-114928509D01*
X111090224Y-114917574D01*
X111074315Y-114907444D01*
X111057963Y-114898119D01*
X111041169Y-114889599D01*
X111023935Y-114881886D01*
X111006264Y-114874981D01*
X110988155Y-114868885D01*
X110969612Y-114863598D01*
X110950635Y-114859122D01*
X110931226Y-114855458D01*
X110911387Y-114852606D01*
X110891120Y-114850568D01*
X110870425Y-114849344D01*
X110849305Y-114848936D01*
X110823930Y-114849666D01*
X110800009Y-114851220D01*
X110777468Y-114853637D01*
X110756232Y-114856956D01*
X110736226Y-114861216D01*
X110717375Y-114866454D01*
X110699604Y-114872711D01*
X110682838Y-114880025D01*
X110667002Y-114888434D01*
X110652022Y-114897977D01*
X110637821Y-114908693D01*
X110624327Y-114920622D01*
X110611462Y-114933800D01*
X110599153Y-114948268D01*
X110587325Y-114964065D01*
X110575903Y-114981228D01*
X110531805Y-115051783D01*
X110332486Y-115051783D01*
X110285609Y-115051453D01*
X110244209Y-115050460D01*
X110208307Y-115048807D01*
X110177925Y-115046492D01*
X110153083Y-115043515D01*
X110142745Y-115041779D01*
X110133800Y-115039877D01*
X110126251Y-115037810D01*
X110120099Y-115035577D01*
X110115348Y-115033180D01*
X110112000Y-115030617D01*
X110110853Y-115029331D01*
X110109727Y-115027795D01*
X110108624Y-115026015D01*
X110107545Y-115023999D01*
X110105461Y-115019288D01*
X110103483Y-115013722D01*
X110101619Y-115007360D01*
X110099876Y-115000262D01*
X110098263Y-114992487D01*
X110096786Y-114984094D01*
X110095454Y-114975143D01*
X110094274Y-114965694D01*
X110093255Y-114955805D01*
X110092404Y-114945536D01*
X110091728Y-114934948D01*
X110091236Y-114924098D01*
X110090935Y-114913046D01*
X110090833Y-114901853D01*
X110092239Y-114861442D01*
X110093997Y-114841934D01*
X110096459Y-114822891D01*
X110099624Y-114804313D01*
X110103495Y-114786201D01*
X110108070Y-114768553D01*
X110113350Y-114751371D01*
X110119335Y-114734654D01*
X110126027Y-114718401D01*
X110133424Y-114702614D01*
X110141527Y-114687292D01*
X110150338Y-114672435D01*
X110159855Y-114658043D01*
X110170079Y-114644116D01*
X110181012Y-114630655D01*
X110192652Y-114617658D01*
X110205000Y-114605127D01*
X110218057Y-114593060D01*
X110231823Y-114581459D01*
X110246299Y-114570323D01*
X110261484Y-114559651D01*
X110277378Y-114549445D01*
X110293983Y-114539704D01*
X110311299Y-114530428D01*
X110329325Y-114521617D01*
X110367512Y-114505391D01*
X110408546Y-114491025D01*
X110452430Y-114478519D01*
X110481668Y-114472049D01*
X110514769Y-114466523D01*
X110551172Y-114461939D01*
X110590317Y-114458290D01*
X110631642Y-114455571D01*
X110674587Y-114453777D01*
X110763095Y-114452943D01*
X110851355Y-114455747D01*
G37*
G36*
X114323050Y-114458961D02*
G01*
X114366941Y-114460660D01*
X114406366Y-114463268D01*
X114441244Y-114466806D01*
X114471492Y-114471295D01*
X114497027Y-114476755D01*
X114543764Y-114489993D01*
X114590551Y-114506421D01*
X114637146Y-114525841D01*
X114683310Y-114548055D01*
X114728802Y-114572863D01*
X114773382Y-114600066D01*
X114816810Y-114629465D01*
X114858845Y-114660861D01*
X114899247Y-114694056D01*
X114937775Y-114728850D01*
X114974191Y-114765045D01*
X115008252Y-114802441D01*
X115039719Y-114840840D01*
X115068352Y-114880042D01*
X115093910Y-114919848D01*
X115116152Y-114960061D01*
X115128929Y-114987853D01*
X115142628Y-115022324D01*
X115171853Y-115107594D01*
X115201946Y-115208449D01*
X115231026Y-115317469D01*
X115257212Y-115427233D01*
X115278623Y-115530321D01*
X115293378Y-115619311D01*
X115297672Y-115656201D01*
X115299597Y-115686783D01*
X115300074Y-115711398D01*
X115299531Y-115735621D01*
X115297980Y-115759430D01*
X115295435Y-115782805D01*
X115291908Y-115805725D01*
X115287411Y-115828170D01*
X115281959Y-115850119D01*
X115275564Y-115871551D01*
X115268238Y-115892445D01*
X115259995Y-115912781D01*
X115250848Y-115932539D01*
X115240810Y-115951697D01*
X115229892Y-115970235D01*
X115218110Y-115988133D01*
X115205474Y-116005368D01*
X115191999Y-116021922D01*
X115166449Y-116050559D01*
X115139978Y-116076971D01*
X115112454Y-116101208D01*
X115098254Y-116112526D01*
X115083741Y-116123318D01*
X115068897Y-116133591D01*
X115053705Y-116143351D01*
X115038149Y-116152604D01*
X115022211Y-116161355D01*
X115005876Y-116169612D01*
X114989127Y-116177381D01*
X114971945Y-116184666D01*
X114954316Y-116191476D01*
X114917644Y-116203690D01*
X114878978Y-116214072D01*
X114838183Y-116222672D01*
X114795125Y-116229537D01*
X114749669Y-116234718D01*
X114701680Y-116238264D01*
X114651025Y-116240223D01*
X114597569Y-116240644D01*
X114540311Y-116239190D01*
X114485528Y-116236124D01*
X114433091Y-116231405D01*
X114382871Y-116224990D01*
X114334739Y-116216839D01*
X114288565Y-116206910D01*
X114244220Y-116195162D01*
X114201576Y-116181554D01*
X114160503Y-116166044D01*
X114120871Y-116148591D01*
X114082552Y-116129154D01*
X114045417Y-116107691D01*
X114009335Y-116084161D01*
X113974179Y-116058523D01*
X113939818Y-116030735D01*
X113906124Y-116000755D01*
X113888969Y-115983491D01*
X113871983Y-115964916D01*
X113855298Y-115945251D01*
X113839041Y-115924715D01*
X113823343Y-115903528D01*
X113808332Y-115881910D01*
X113794137Y-115860080D01*
X113780888Y-115838257D01*
X113768714Y-115816662D01*
X113757744Y-115795514D01*
X113748107Y-115775032D01*
X113739933Y-115755437D01*
X113733350Y-115736948D01*
X113728489Y-115719784D01*
X113725477Y-115704165D01*
X113724444Y-115690311D01*
X113724541Y-115685804D01*
X113724849Y-115681538D01*
X113725393Y-115677508D01*
X113726198Y-115673706D01*
X113727288Y-115670126D01*
X113728688Y-115666762D01*
X113730424Y-115663607D01*
X113732519Y-115660656D01*
X113735000Y-115657900D01*
X113737891Y-115655335D01*
X113741216Y-115652953D01*
X113745001Y-115650748D01*
X113749270Y-115648713D01*
X113754049Y-115646843D01*
X113759362Y-115645130D01*
X113765234Y-115643568D01*
X113771690Y-115642151D01*
X113778755Y-115640872D01*
X113786453Y-115639725D01*
X113794810Y-115638704D01*
X113803851Y-115637801D01*
X113813599Y-115637010D01*
X113824081Y-115636326D01*
X113835321Y-115635741D01*
X113847344Y-115635249D01*
X113860174Y-115634843D01*
X113888358Y-115634266D01*
X113920072Y-115633958D01*
X113955514Y-115633867D01*
X114013839Y-115633977D01*
X114058315Y-115634749D01*
X114076200Y-115635589D01*
X114091629Y-115636843D01*
X114104940Y-115638593D01*
X114116469Y-115640922D01*
X114126550Y-115643913D01*
X114135520Y-115647647D01*
X114143715Y-115652208D01*
X114151471Y-115657679D01*
X114159123Y-115664142D01*
X114167008Y-115671680D01*
X114184819Y-115690311D01*
X114195120Y-115702090D01*
X114204718Y-115713434D01*
X114213406Y-115724076D01*
X114220979Y-115733747D01*
X114227228Y-115742177D01*
X114231948Y-115749098D01*
X114233670Y-115751909D01*
X114234932Y-115754242D01*
X114235708Y-115756063D01*
X114235972Y-115757339D01*
X114236069Y-115758046D01*
X114236358Y-115758844D01*
X114236834Y-115759729D01*
X114237491Y-115760698D01*
X114238326Y-115761748D01*
X114239332Y-115762877D01*
X114241842Y-115765359D01*
X114244983Y-115768120D01*
X114248715Y-115771136D01*
X114253001Y-115774385D01*
X114257800Y-115777844D01*
X114263075Y-115781488D01*
X114268786Y-115785296D01*
X114274896Y-115789242D01*
X114281364Y-115793306D01*
X114288153Y-115797462D01*
X114295224Y-115801687D01*
X114302537Y-115805960D01*
X114310055Y-115810255D01*
X114321404Y-115816545D01*
X114332383Y-115822206D01*
X114343119Y-115827274D01*
X114353739Y-115831780D01*
X114364369Y-115835760D01*
X114375136Y-115839246D01*
X114386167Y-115842272D01*
X114397588Y-115844872D01*
X114409526Y-115847079D01*
X114422107Y-115848927D01*
X114435458Y-115850449D01*
X114449705Y-115851679D01*
X114464976Y-115852651D01*
X114481397Y-115853398D01*
X114518194Y-115854353D01*
X114544659Y-115853961D01*
X114569823Y-115852772D01*
X114593696Y-115850763D01*
X114616290Y-115847910D01*
X114637614Y-115844192D01*
X114657682Y-115839586D01*
X114676502Y-115834069D01*
X114694087Y-115827619D01*
X114710447Y-115820212D01*
X114725593Y-115811827D01*
X114739537Y-115802441D01*
X114752288Y-115792031D01*
X114763859Y-115780574D01*
X114774260Y-115768049D01*
X114783502Y-115754431D01*
X114791597Y-115739700D01*
X114798554Y-115723831D01*
X114804386Y-115706804D01*
X114809103Y-115688593D01*
X114812715Y-115669179D01*
X114815235Y-115648537D01*
X114816673Y-115626645D01*
X114817040Y-115603480D01*
X114816346Y-115579021D01*
X114814604Y-115553243D01*
X114811824Y-115526125D01*
X114808017Y-115497645D01*
X114803193Y-115467778D01*
X114790542Y-115403799D01*
X114773958Y-115334005D01*
X114754218Y-115256735D01*
X114737743Y-115196064D01*
X114730304Y-115170938D01*
X114723170Y-115148745D01*
X114716171Y-115129080D01*
X114709135Y-115111535D01*
X114701892Y-115095706D01*
X114694273Y-115081187D01*
X114686105Y-115067572D01*
X114677220Y-115054457D01*
X114667445Y-115041434D01*
X114656611Y-115028098D01*
X114631083Y-114998867D01*
X114612379Y-114979180D01*
X114593896Y-114961098D01*
X114575528Y-114944571D01*
X114557165Y-114929551D01*
X114538698Y-114915988D01*
X114520020Y-114903834D01*
X114501021Y-114893038D01*
X114481593Y-114883552D01*
X114461628Y-114875328D01*
X114441017Y-114868315D01*
X114419651Y-114862464D01*
X114397423Y-114857728D01*
X114374223Y-114854056D01*
X114349943Y-114851399D01*
X114324474Y-114849709D01*
X114297708Y-114848936D01*
X114271366Y-114849374D01*
X114246548Y-114850700D01*
X114223209Y-114852936D01*
X114201300Y-114856102D01*
X114180777Y-114860219D01*
X114161592Y-114865307D01*
X114143699Y-114871388D01*
X114127052Y-114878481D01*
X114111603Y-114886608D01*
X114097307Y-114895789D01*
X114084116Y-114906045D01*
X114071985Y-114917397D01*
X114060867Y-114929865D01*
X114050715Y-114943469D01*
X114041483Y-114958232D01*
X114033125Y-114974172D01*
X114030360Y-114979808D01*
X114027375Y-114985444D01*
X114024199Y-114991039D01*
X114020860Y-114996551D01*
X114017387Y-115001940D01*
X114013808Y-115007162D01*
X114010151Y-115012178D01*
X114006446Y-115016946D01*
X114002719Y-115021425D01*
X113999001Y-115025573D01*
X113995318Y-115029349D01*
X113991701Y-115032711D01*
X113988176Y-115035619D01*
X113984773Y-115038030D01*
X113981519Y-115039905D01*
X113978444Y-115041200D01*
X113974865Y-115042191D01*
X113969494Y-115043174D01*
X113953805Y-115045086D01*
X113932245Y-115046874D01*
X113905684Y-115048476D01*
X113874988Y-115049830D01*
X113841026Y-115050874D01*
X113804666Y-115051546D01*
X113766777Y-115051783D01*
X113708197Y-115051625D01*
X113663259Y-115050846D01*
X113645209Y-115050082D01*
X113629732Y-115048993D01*
X113616549Y-115047521D01*
X113605382Y-115045610D01*
X113595951Y-115043202D01*
X113587977Y-115040242D01*
X113581181Y-115036672D01*
X113575285Y-115032436D01*
X113570009Y-115027476D01*
X113565074Y-115021735D01*
X113555110Y-115007686D01*
X113549687Y-114998527D01*
X113544984Y-114988612D01*
X113540987Y-114977991D01*
X113537682Y-114966713D01*
X113535055Y-114954830D01*
X113533093Y-114942392D01*
X113531781Y-114929447D01*
X113531105Y-114916046D01*
X113531609Y-114888079D01*
X113534492Y-114858889D01*
X113539643Y-114828877D01*
X113546953Y-114798445D01*
X113556308Y-114767991D01*
X113567599Y-114737918D01*
X113580714Y-114708625D01*
X113595542Y-114680512D01*
X113611972Y-114653981D01*
X113629893Y-114629432D01*
X113639378Y-114618025D01*
X113649194Y-114607265D01*
X113659327Y-114597200D01*
X113669763Y-114587880D01*
X113690193Y-114571668D01*
X113711246Y-114556737D01*
X113733089Y-114543046D01*
X113755891Y-114530554D01*
X113779819Y-114519220D01*
X113805042Y-114509001D01*
X113831727Y-114499858D01*
X113860043Y-114491748D01*
X113890157Y-114484631D01*
X113922237Y-114478464D01*
X113956452Y-114473207D01*
X113992968Y-114468818D01*
X114031955Y-114465256D01*
X114073580Y-114462479D01*
X114118011Y-114460446D01*
X114165416Y-114459116D01*
X114222205Y-114458210D01*
X114274777Y-114458152D01*
X114323050Y-114458961D01*
G37*
G36*
X120096796Y-113837621D02*
G01*
X120177931Y-113841073D01*
X120212475Y-113843737D01*
X120242014Y-113847047D01*
X120293614Y-113855694D01*
X120355178Y-113867938D01*
X120423770Y-113883076D01*
X120496454Y-113900405D01*
X120570297Y-113919222D01*
X120642361Y-113938824D01*
X120709713Y-113958510D01*
X120769416Y-113977575D01*
X120836634Y-114000870D01*
X120910610Y-114028342D01*
X120986364Y-114057880D01*
X121058915Y-114087377D01*
X121123279Y-114114724D01*
X121174477Y-114137813D01*
X121207526Y-114154536D01*
X121215688Y-114159850D01*
X121217405Y-114161631D01*
X121217444Y-114162783D01*
X121216898Y-114163052D01*
X121215929Y-114163200D01*
X121212766Y-114163145D01*
X121208042Y-114162640D01*
X121201845Y-114161708D01*
X121185384Y-114158659D01*
X121164086Y-114154184D01*
X121138655Y-114148469D01*
X121109792Y-114141699D01*
X121078200Y-114134061D01*
X121044583Y-114125742D01*
X120945583Y-114101930D01*
X120849632Y-114081431D01*
X120756678Y-114064249D01*
X120666670Y-114050390D01*
X120579555Y-114039860D01*
X120495283Y-114032662D01*
X120413801Y-114028803D01*
X120335059Y-114028287D01*
X120259003Y-114031119D01*
X120185583Y-114037306D01*
X120114747Y-114046851D01*
X120046442Y-114059761D01*
X119980619Y-114076040D01*
X119917224Y-114095693D01*
X119856206Y-114118726D01*
X119797514Y-114145144D01*
X119779491Y-114154026D01*
X119762394Y-114162866D01*
X119746114Y-114171747D01*
X119730541Y-114180753D01*
X119715568Y-114189965D01*
X119701085Y-114199467D01*
X119686985Y-114209340D01*
X119673159Y-114219669D01*
X119659499Y-114230534D01*
X119645895Y-114242020D01*
X119632239Y-114254209D01*
X119618424Y-114267183D01*
X119604339Y-114281026D01*
X119589878Y-114295819D01*
X119574930Y-114311646D01*
X119559389Y-114328589D01*
X119448264Y-114452061D01*
X119063736Y-114452061D01*
X118915376Y-114450821D01*
X118793640Y-114447431D01*
X118746735Y-114445085D01*
X118711261Y-114442387D01*
X118688809Y-114439400D01*
X118682964Y-114437818D01*
X118680972Y-114436186D01*
X118681125Y-114435200D01*
X118681581Y-114433903D01*
X118683369Y-114430412D01*
X118686274Y-114425783D01*
X118690232Y-114420090D01*
X118695183Y-114413405D01*
X118701064Y-114405800D01*
X118715368Y-114388120D01*
X118732648Y-114367629D01*
X118752409Y-114344905D01*
X118774155Y-114320527D01*
X118797388Y-114295075D01*
X118835950Y-114255165D01*
X118876191Y-114216819D01*
X118918055Y-114180070D01*
X118961485Y-114144951D01*
X119006424Y-114111496D01*
X119052815Y-114079739D01*
X119100601Y-114049713D01*
X119149725Y-114021452D01*
X119200131Y-113994989D01*
X119251762Y-113970357D01*
X119304561Y-113947592D01*
X119358470Y-113926725D01*
X119413434Y-113907791D01*
X119469396Y-113890824D01*
X119526297Y-113875856D01*
X119584083Y-113862922D01*
X119610831Y-113858170D01*
X119642956Y-113853848D01*
X119720371Y-113846551D01*
X119810395Y-113841156D01*
X119907095Y-113837787D01*
X120004540Y-113836567D01*
X120096796Y-113837621D01*
G37*
%LPC*%
D12*
%TO.C,VIN*%
X113750000Y-103150000D03*
D13*
X116250000Y-103150000D03*
%TD*%
D14*
%TO.C,U1*%
X108650000Y-91380000D03*
D15*
X108650000Y-93920000D03*
X108650000Y-96460000D03*
X108650000Y-99000000D03*
X108650000Y-101540000D03*
X108650000Y-104080000D03*
X108650000Y-106620000D03*
X121350000Y-106620000D03*
X121350000Y-104080000D03*
X121350000Y-101540000D03*
X121350000Y-99000000D03*
X121350000Y-96460000D03*
X121350000Y-93920000D03*
X121350000Y-91380000D03*
%TD*%
D16*
%TO.C,SIG/LOGIC*%
X103250000Y-115000000D03*
D17*
X103250000Y-112500000D03*
X103250000Y-110000000D03*
X103250000Y-107500000D03*
%TD*%
D18*
%TO.C,J3*%
X116250000Y-94850000D03*
D13*
X113750000Y-94850000D03*
%TD*%
%LPD*%
M02*
