0
SECTION
2
HEADER
9
$INSUNITS
70
4
9
$ACADVER
1
AC1014
9
$HANDSEED
5
FFFF
0
ENDSEC
0
SECTION
2
TABLES
0
TABLE
2
VPORT
5
8
100
AcDbSymbolTable
0
ENDTAB
0
TABLE
2
LTYPE
5
5
100
AcDbSymbolTable
0
LTYPE
5
14
100
AcDbSymbolTableRecord
100
AcDbLinetypeTableRecord
2
BYBLOCK
70
0
0
LTYPE
5
15
100
AcDbSymbolTableRecord
100
AcDbLinetypeTableRecord
2
BYLAYER
70
0
0
LTYPE
5
16
100
AcDbSymbolTableRecord
100
AcDbLinetypeTableRecord
2
DASHED
70
0
3
Dashed __ __ __ __ __ __ __ __ __ __ __ __ __ _
72
65
73
2
40
0.75
49
0.5
74
0
49
-0.25
74
0
0
ENDTAB
0
TABLE
2
LAYER
5
2
100
AcDbSymbolTable
70
3
0
LAYER
5
50
100
AcDbSymbolTableRecord
100
AcDbLayerTableRecord
2
1
70
0
62
7
6
DASHED
0
LAYER
5
51
100
AcDbSymbolTableRecord
100
AcDbLayerTableRecord
2
0
70
0
62
7
6
CONTINUOUS
0
ENDTAB
0
TABLE
2
STYLE
5
3
100
AcDbSymbolTable
70
1
0
STYLE
5
11
100
AcDbSymbolTableRecord
100
AcDbTextStyleTableRecord
2
STANDARD
70
0
0
ENDTAB
0
TABLE
2
VIEW
5
6
100
AcDbSymbolTable
70
0
0
ENDTAB
0
TABLE
2
UCS
5
7
100
AcDbSymbolTable
70
0
0
ENDTAB
0
TABLE
2
APPID
5
9
100
AcDbSymbolTable
70
2
0
APPID
5
12
100
AcDbSymbolTableRecord
100
AcDbRegAppTableRecord
2
ACAD
70
0
0
ENDTAB
0
TABLE
2
DIMSTYLE
5
A
100
AcDbSymbolTable
70
1
0
ENDTAB
0
TABLE
2
BLOCK_RECORD
5
1
100
AcDbSymbolTable
70
1
0
BLOCK_RECORD
5
1F
100
AcDbSymbolTableRecord
100
AcDbBlockTableRecord
2
*MODEL_SPACE
0
BLOCK_RECORD
5
1B
100
AcDbSymbolTableRecord
100
AcDbBlockTableRecord
2
*PAPER_SPACE
0
ENDTAB
0
ENDSEC
0
SECTION
2
BLOCKS
0
BLOCK
5
20
100
AcDbEntity
100
AcDbBlockBegin
2
*MODEL_SPACE
0
ENDBLK
5
21
100
AcDbEntity
100
AcDbBlockEnd
0
BLOCK
5
1C
100
AcDbEntity
100
AcDbBlockBegin
2
*PAPER_SPACE
0
ENDBLK
5
1D
100
AcDbEntity
100
AcDbBlockEnd
0
ENDSEC
0
SECTION
2
ENTITIES
0
POINT
5
100
100
AcDbEntity
8
0
100
AcDbPoint
10
31.538965678857164
20
2.7755575615628914e-16
30
0
0
CIRCLE
5
101
100
AcDbEntity
8
0
100
AcDbCircle
10
0
20
0
30
0
40
7.0000000000000009
210
0
220
0
230
1
0
LWPOLYLINE
5
102
100
AcDbEntity
8
0
100
AcDbPolyline
90
16
70
1
43
0.0
10
21.701671553544848
20
-7.6458940265523587
42
0.31783724519578116
10
20.328202674683226
20
-8.7011585615380618
42
-0.70710678118654735
10
14.675793108028072
20
-8.9253595668552936
42
0.31783724519578227
10
13.223057203562119
20
-7.9821955345282101
10
0.3368848588183796
20
-8.4933214110793518
42
-1.0404510121671442
10
0.3368848588183937
20
8.4933214110793518
10
13.223057203562119
20
7.9821955345282101
42
0.31783724519578227
10
14.675793108028071
20
8.9253595668552972
42
-0.70710678118654757
10
20.328202674683233
20
8.7011585615380618
42
0.31783724519578227
10
21.701671553544855
20
7.6458940265523587
10
31.826308646672864
20
7.2443035565088536
42
-0.045521994513950691
10
33.132493053097619
20
7.0727060243973296
10
51.534390637616724
20
2.9266369756126815
42
-0.79976074309428447
10
51.534390637616724
20
-2.9266369756126798
10
33.132493053097612
20
-7.0727060243973296
42
-0.045521994513951024
10
31.82630864667285
20
-7.2443035565088536
0
CIRCLE
5
103
100
AcDbEntity
8
0
100
AcDbCircle
10
50.874999999999922
20
1.1102230246251565e-15
30
0
40
1.5000000000000011
210
0
220
-0
230
1
0
LWPOLYLINE
5
104
100
AcDbEntity
8
0
100
AcDbPolyline
90
6
70
1
43
0.0
10
40.576593262055233
20
2.3202990469802516
42
0.51127279097330758
10
38.75410955506571
20
0.71006960617267534
42
-0.049088319635766382
10
38.75410955506571
20
-0.71006960617267323
42
0.51127279097330647
10
40.576593262055226
20
-2.3202990469802502
10
44.380212617228587
20
-1.4633184878063248
42
0.79976074309426615
10
44.380212617228587
20
1.4633184878063263
0
CIRCLE
5
105
100
AcDbEntity
8
0
100
AcDbCircle
10
17.462364378553485
20
7.8140447805402848
30
0
40
1.5000000000000002
210
0
220
0
230
1
0
LWPOLYLINE
5
106
100
AcDbEntity
8
0
100
AcDbPolyline
90
8
70
1
43
0.0
10
7.9190115970994146
20
-3.0885684912277869
42
0.18810928252060022
10
7.919011597099411
20
3.0885684912277833
42
-0.54057493862641715
10
9.375934501084906
20
5.1324314151643353
10
23.407310895477575
20
4.5758813887534089
42
-0.51127279097330747
10
24.752050063859954
20
2.5495639695655936
42
0.181632777420248
10
24.752050063859961
20
-2.5495639695655892
42
-0.51127279097330924
10
23.407310895477575
20
-4.5758813887534089
10
9.375934501084906
20
-5.1324314151643335
42
-0.54057493862641703
0
CIRCLE
5
107
100
AcDbEntity
8
0
100
AcDbCircle
10
17.462364378553485
20
-7.8140447805402848
30
0
40
1.5000000000000002
210
0
220
0
230
1
0
CIRCLE
5
108
100
AcDbEntity
8
0
100
AcDbCircle
10
31.538965678857164
20
2.7755575615628914e-16
30
0
40
5.7499999999999947
210
-0
220
0
230
1
0
ENDSEC
0
SECTION
2
OBJECTS
0
DICTIONARY
5
C
100
AcDbDictionary
3
ACAD_GROUP
350
D
3
ACAD_MLINESTYLE
350
17
0
DICTIONARY
5
D
100
AcDbDictionary
0
DICTIONARY
5
1A
330
C
100
AcDbDictionary
0
DICTIONARY
5
17
100
AcDbDictionary
0
ENDSEC
0
EOF
