0
SECTION
2
HEADER
9
$INSUNITS
70
4
9
$ACADVER
1
AC1014
9
$HANDSEED
5
FFFF
0
ENDSEC
0
SECTION
2
TABLES
0
TABLE
2
VPORT
5
8
100
AcDbSymbolTable
0
ENDTAB
0
TABLE
2
LTYPE
5
5
100
AcDbSymbolTable
0
LTYPE
5
14
100
AcDbSymbolTableRecord
100
AcDbLinetypeTableRecord
2
BYBLOCK
70
0
0
LTYPE
5
15
100
AcDbSymbolTableRecord
100
AcDbLinetypeTableRecord
2
BYLAYER
70
0
0
ENDTAB
0
TABLE
2
LAYER
5
2
100
AcDbSymbolTable
70
2
0
LAYER
5
50
100
AcDbSymbolTableRecord
100
AcDbLayerTableRecord
2
0
70
0
6
CONTINUOUS
0
ENDTAB
0
TABLE
2
STYLE
5
3
100
AcDbSymbolTable
70
1
0
STYLE
5
11
100
AcDbSymbolTableRecord
100
AcDbTextStyleTableRecord
2
STANDARD
70
0
0
ENDTAB
0
TABLE
2
VIEW
5
6
100
AcDbSymbolTable
70
0
0
ENDTAB
0
TABLE
2
UCS
5
7
100
AcDbSymbolTable
70
0
0
ENDTAB
0
TABLE
2
APPID
5
9
100
AcDbSymbolTable
70
2
0
APPID
5
12
100
AcDbSymbolTableRecord
100
AcDbRegAppTableRecord
2
ACAD
70
0
0
ENDTAB
0
TABLE
2
DIMSTYLE
5
A
100
AcDbSymbolTable
70
1
0
ENDTAB
0
TABLE
2
BLOCK_RECORD
5
1
100
AcDbSymbolTable
70
1
0
BLOCK_RECORD
5
1F
100
AcDbSymbolTableRecord
100
AcDbBlockTableRecord
2
*MODEL_SPACE
0
BLOCK_RECORD
5
1B
100
AcDbSymbolTableRecord
100
AcDbBlockTableRecord
2
*PAPER_SPACE
0
ENDTAB
0
ENDSEC
0
SECTION
2
BLOCKS
0
BLOCK
5
20
100
AcDbEntity
100
AcDbBlockBegin
2
*MODEL_SPACE
0
ENDBLK
5
21
100
AcDbEntity
100
AcDbBlockEnd
0
BLOCK
5
1C
100
AcDbEntity
100
AcDbBlockBegin
2
*PAPER_SPACE
0
ENDBLK
5
1D
100
AcDbEntity
100
AcDbBlockEnd
0
ENDSEC
0
SECTION
2
ENTITIES
0
LWPOLYLINE
5
100
100
AcDbEntity
8
0
100
AcDbPolyline
90
32
70
1
43
0.0
10
35
20
-74.7242872751264
10
35
20
-66.035533905932724
42
0.19891236737965795
10
34.267766952966383
20
-64.267766952966369
10
30.732233047033368
20
-60.73223304703329
42
0.19891236737966314
10
28.964466094066967
20
-59.999999999999638
10
16.228498911788364
20
-59.999999999999716
42
-0.36849956078638829
10
13.759859038197071
20
-57.894736842104997
42
0.85280286542244155
10
7.4401409618033885
20
-57.894736842105047
42
-0.36849956078638713
10
4.9715010882121264
20
-59.999999999999801
10
-4.971501088212074
20
-59.999999999999886
42
-0.36849956078638596
10
-7.4401409618033725
20
-57.894736842105175
42
0.85280286542244377
10
-13.759859038197042
20
-57.894736842105218
42
-0.36849956078638468
10
-16.228498911788304
20
-59.999999999999972
10
-28.964466094067344
20
-60.000000000000057
42
0.19891236737965862
10
-30.732233047033688
20
-60.732233047033688
10
-34.267766952966376
20
-64.267766952966369
42
0.19891236737965448
10
-35
20
-66.035533905932738
10
-35
20
-74.724287275126414
42
-0.36849956078638518
10
-37.10526315789474
20
-77.192927148717686
42
0.85280286542244244
10
-37.105263157894733
20
-83.51264522511137
42
-0.36849956078638985
10
-35
20
-85.981285098702656
10
-35.000000000000007
20
-88.964466094067248
42
0.19891236737965487
10
-34.267766952966376
20
-90.732233047033617
10
-30.732233047033631
20
-94.267766952966369
42
0.19891236737965831
10
-28.964466094067262
20
-95
10
28.964466094067262
20
-95
42
0.19891236737965831
10
30.732233047033631
20
-94.267766952966369
10
34.267766952966369
20
-90.732233047033631
42
0.19891236737965931
10
35
20
-88.964466094067262
10
34.999999999999993
20
-85.981285098702642
42
-0.36849956078639001
10
37.10526315789474
20
-83.512645225111385
42
0.85280286542244144
10
37.105263157894733
20
-77.192927148717686
42
-0.36849956078638596
0
CIRCLE
5
101
100
AcDbEntity
8
0
100
AcDbCircle
10
-36.600000000000001
20
-80.352786186914528
30
0
40
1.6000000000000014
210
0
220
0
230
1
0
CIRCLE
5
102
100
AcDbEntity
8
0
100
AcDbCircle
10
36.599999999999994
20
-80.352786186914528
30
0
40
1.6000000000000014
210
0
220
0
230
1
0
CIRCLE
5
103
100
AcDbEntity
8
0
100
AcDbCircle
10
-10.600000000000204
20
-58.399999999999928
30
0
40
1.5999999999999925
210
0
220
0
230
1
0
CIRCLE
5
104
100
AcDbEntity
8
0
100
AcDbCircle
10
10.600000000000234
20
-58.399999999999757
30
0
40
1.6000000000000014
210
0
220
0
230
1
0
ENDSEC
0
SECTION
2
OBJECTS
0
DICTIONARY
5
C
100
AcDbDictionary
3
ACAD_GROUP
350
D
3
ACAD_MLINESTYLE
350
17
0
DICTIONARY
5
D
100
AcDbDictionary
0
DICTIONARY
5
1A
330
C
100
AcDbDictionary
0
DICTIONARY
5
17
100
AcDbDictionary
0
ENDSEC
0
EOF
