0
SECTION
2
HEADER
9
$INSUNITS
70
4
9
$ACADVER
1
AC1014
9
$HANDSEED
5
FFFF
0
ENDSEC
0
SECTION
2
TABLES
0
TABLE
2
VPORT
5
8
100
AcDbSymbolTable
0
ENDTAB
0
TABLE
2
LTYPE
5
5
100
AcDbSymbolTable
0
LTYPE
5
14
100
AcDbSymbolTableRecord
100
AcDbLinetypeTableRecord
2
BYBLOCK
70
0
0
LTYPE
5
15
100
AcDbSymbolTableRecord
100
AcDbLinetypeTableRecord
2
BYLAYER
70
0
0
ENDTAB
0
TABLE
2
LAYER
5
2
100
AcDbSymbolTable
70
2
0
LAYER
5
50
100
AcDbSymbolTableRecord
100
AcDbLayerTableRecord
2
0
70
0
6
CONTINUOUS
0
ENDTAB
0
TABLE
2
STYLE
5
3
100
AcDbSymbolTable
70
1
0
STYLE
5
11
100
AcDbSymbolTableRecord
100
AcDbTextStyleTableRecord
2
STANDARD
70
0
0
ENDTAB
0
TABLE
2
VIEW
5
6
100
AcDbSymbolTable
70
0
0
ENDTAB
0
TABLE
2
UCS
5
7
100
AcDbSymbolTable
70
0
0
ENDTAB
0
TABLE
2
APPID
5
9
100
AcDbSymbolTable
70
2
0
APPID
5
12
100
AcDbSymbolTableRecord
100
AcDbRegAppTableRecord
2
ACAD
70
0
0
ENDTAB
0
TABLE
2
DIMSTYLE
5
A
100
AcDbSymbolTable
70
1
0
ENDTAB
0
TABLE
2
BLOCK_RECORD
5
1
100
AcDbSymbolTable
70
1
0
BLOCK_RECORD
5
1F
100
AcDbSymbolTableRecord
100
AcDbBlockTableRecord
2
*MODEL_SPACE
0
BLOCK_RECORD
5
1B
100
AcDbSymbolTableRecord
100
AcDbBlockTableRecord
2
*PAPER_SPACE
0
ENDTAB
0
ENDSEC
0
SECTION
2
BLOCKS
0
BLOCK
5
20
100
AcDbEntity
100
AcDbBlockBegin
2
*MODEL_SPACE
0
ENDBLK
5
21
100
AcDbEntity
100
AcDbBlockEnd
0
BLOCK
5
1C
100
AcDbEntity
100
AcDbBlockBegin
2
*PAPER_SPACE
0
ENDBLK
5
1D
100
AcDbEntity
100
AcDbBlockEnd
0
ENDSEC
0
SECTION
2
ENTITIES
0
LWPOLYLINE
5
100
100
AcDbEntity
8
0
100
AcDbPolyline
90
12
70
1
43
0.0
10
-11.25
20
22.499999478459358
10
11.249999999999991
20
22.499999478459358
10
11.249999999999993
20
18.999999478459362
10
14.75
20
18.999999478459362
10
14.75
20
14.999999478459358
10
11.249999999999996
20
14.999999478459358
10
11.249999999999998
20
11.499999478459362
10
-11.25
20
11.499999478459362
10
-11.25
20
14.999999478459358
10
-14.75
20
14.999999478459358
10
-14.75
20
18.999999478459362
10
-11.25
20
18.999999478459362
0
LWPOLYLINE
5
101
100
AcDbEntity
8
0
100
AcDbPolyline
90
8
70
1
43
0.0
10
-7.8680000000002046
20
-0.018000119209284904
10
-9.3920000000002055
20
-0.018000119209283794
42
-0.41421356237309503
10
-9.7730000000002057
20
0.36299988079071532
10
-9.7730000000002057
20
1.1249998807907158
42
-0.41421356237309503
10
-9.3920000000002055
20
1.505999880790716
10
-7.8680000000002046
20
1.505999880790716
42
-0.41421356237309503
10
-7.4870000000002044
20
1.1249998807907158
10
-7.4870000000002044
20
0.36299988079071532
42
-0.41421356237309503
0
LWPOLYLINE
5
102
100
AcDbEntity
8
0
100
AcDbPolyline
90
4
70
1
43
0.0
10
-10.300000298023221
20
-7.2757861869145302
10
-10.300000298023221
20
-20.275786186914537
10
-29.700000298023227
20
-20.275786186914537
10
-29.700000298023227
20
-7.2757861869145302
0
LWPOLYLINE
5
103
100
AcDbEntity
8
0
100
AcDbPolyline
90
36
70
1
43
0.0
10
-10.200000000000005
20
-23.965999999999994
42
0.41421356237309453
10
-12.700000000000005
20
-26.465999999999994
10
-12.700000000000005
20
-27.466188315264883
42
-0.99999999999999989
10
-19.700000000000006
20
-27.466188315264883
10
-19.700000000000006
20
-26.465999999999994
42
0.41421356237309453
10
-22.200000000000006
20
-23.965999999999994
10
-28.964466094067262
20
-23.965999999999994
42
-0.19891236737965834
10
-30.732233047033631
20
-23.233766952966359
10
-34.267766952966369
20
-19.698233047033611
42
-0.19891236737965487
10
-35.000000000000007
20
-17.930466094067246
10
-35.000000000000007
20
4.9984660940672656
42
-0.19891236737965454
10
-34.267766952966376
20
6.7662330470336407
10
-30.732233047033688
20
10.301766952966318
42
-0.19891236780127011
10
-28.964466090011697
20
11.033999999999953
10
-22.233858387242989
20
11.009298460050561
42
0.41421356237309503
10
-19.724700207390175
20
13.500106607716233
10
-19.691513604013906
20
22.542701068252022
42
-0.41310330786933552
10
-16.191964590252404
20
26.02985601962331
10
16.199999999999996
20
26.033811684735117
42
-0.41454462401030129
10
19.69999776470214
20
22.529856045721026
10
19.689833991738439
20
13.536825456438963
42
0.41454462401030129
10
22.189832395097131
20
11.034000000000326
10
28.964466094066967
20
11.034000000000368
42
-0.19891236737966309
10
30.732233047033368
20
10.301766952966718
10
34.267766952966383
20
6.7662330470336336
42
-0.19891236737965801
10
35
20
4.9984660940672843
10
35
20
-17.930466094067263
42
-0.19891236737965926
10
34.267766952966369
20
-19.698233047033629
10
30.732233047033631
20
-23.233766952966359
42
-0.19891236737965834
10
28.964466094067262
20
-23.965999999999994
10
22.199999999999996
20
-23.965999999999994
42
0.41421356237309453
10
19.699999999999996
20
-26.465999999999994
10
19.699999999999996
20
-27.466188315264883
42
-0.99999999999999989
10
12.699999999999996
20
-27.466188315264883
10
12.699999999999996
20
-26.465999999999994
42
0.41421356237309503
10
10.199999999999992
20
-23.965999999999994
0
LWPOLYLINE
5
104
100
AcDbEntity
8
0
100
AcDbPolyline
90
8
70
1
43
0.0
10
-6.3480000000002033
20
-2.3040001192092863
42
0.41421356237309587
10
-6.7290000000002053
20
-1.923000119209286
10
-7.4910000000002057
20
-1.923000119209286
42
0.4142135623730942
10
-7.8720000000002059
20
-2.3040001192092863
10
-7.8720000000002059
20
-3.8280001192092872
42
0.41421356237309587
10
-7.4910000000002039
20
-4.2090001192092874
10
-6.7290000000002035
20
-4.2090001192092874
42
0.41421356237309587
10
-6.3480000000002033
20
-3.8280001192092872
0
LWPOLYLINE
5
105
100
AcDbEntity
8
0
100
AcDbPolyline
90
8
70
1
43
0.0
10
-7.8680000000002046
20
2.271999880790716
10
-9.3920000000002055
20
2.2719998807907169
42
-0.41421356237309503
10
-9.7730000000002057
20
2.6529998807907162
10
-9.7730000000002057
20
3.4149998807907167
42
-0.41421356237309503
10
-9.3920000000002055
20
3.7959998807907169
10
-7.8680000000002046
20
3.7959998807907169
42
-0.41421356237309503
10
-7.4870000000002044
20
3.4149998807907167
10
-7.4870000000002044
20
2.6529998807907162
42
-0.41421356237309503
0
CIRCLE
5
106
100
AcDbEntity
8
0
100
AcDbCircle
10
-16.200000000000006
20
-27.466188315264883
30
0
40
1.6000000000000014
210
0
220
0
230
1
0
LWPOLYLINE
5
107
100
AcDbEntity
8
0
100
AcDbPolyline
90
8
70
1
43
0.0
10
-3.292000000000205
20
8.3719998807907192
42
0.4142135623730942
10
-2.9110000000002048
20
7.990999880790719
10
-2.1490000000002043
20
7.990999880790719
42
0.41421356237309587
10
-1.7680000000002027
20
8.3719998807907192
10
-1.7680000000002027
20
9.8959998807907201
42
0.41421356237309587
10
-2.149000000000203
20
10.27699988079072
10
-2.9110000000002034
20
10.27699988079072
42
0.41421356237309587
10
-3.292000000000205
20
9.8959998807907201
0
CIRCLE
5
108
100
AcDbEntity
8
0
100
AcDbCircle
10
17.248999999999995
20
4.2852138130854733
30
0
40
0.49999999999999906
210
0
220
0
230
1
0
LWPOLYLINE
5
109
100
AcDbEntity
8
0
100
AcDbPolyline
90
4
70
1
43
0.0
10
24.093
20
-7.7907861869145378
10
24.093
20
-10.490786186914534
10
21.392999999999994
20
-10.490786186914534
10
21.392999999999994
20
-7.7907861869145378
0
CIRCLE
5
110
100
AcDbEntity
8
0
100
AcDbCircle
10
26.702999999999996
20
-9.1407861869145357
30
0
40
1.3500000000000023
210
0
220
0
230
1
0
LWPOLYLINE
5
111
100
AcDbEntity
8
0
100
AcDbPolyline
90
8
70
1
43
0.0
10
-7.8720000000002042
20
8.3719998807907192
42
0.4142135623730942
10
-7.4910000000002039
20
7.990999880790719
10
-6.7290000000002035
20
7.990999880790719
42
0.41421356237309587
10
-6.3480000000002024
20
8.3719998807907192
10
-6.3480000000002024
20
9.8959998807907201
42
0.41421356237309587
10
-6.7290000000002026
20
10.27699988079072
10
-7.4910000000002031
20
10.27699988079072
42
0.41421356237309587
10
-7.8720000000002042
20
9.8959998807907201
0
ARC
5
112
100
AcDbEntity
8
0
100
AcDbCircle
10
1.6689999999997966
20
8.3719998807907192
30
0
40
0.38100000000000134
210
0
220
0
230
1
100
AcDbArc
50
180
51
269.99999999999983
0
CIRCLE
5
113
100
AcDbEntity
8
0
100
AcDbCircle
10
22.742999999999999
20
-9.1407861869145357
30
0
40
0.84999999999999964
210
0
220
0
230
1
0
LWPOLYLINE
5
114
100
AcDbEntity
8
0
100
AcDbPolyline
90
8
70
1
43
0.0
10
-7.4870000000002044
20
5.7049998807907176
42
0.41421356237309503
10
-7.8680000000002046
20
6.0859998807907179
10
-9.3920000000002055
20
6.0859998807907179
42
0.41421356237309503
10
-9.7730000000002057
20
5.7049998807907176
10
-9.7730000000002057
20
4.9429998807907172
42
0.41421356237309503
10
-9.3920000000002055
20
4.5619998807907169
10
-7.8680000000002046
20
4.5619998807907169
42
0.41421356237309503
10
-7.4870000000002044
20
4.9429998807907172
0
ARC
5
115
100
AcDbEntity
8
0
100
AcDbCircle
10
2.4309999999997971
20
8.3719998807907192
30
0
40
0.38100000000000023
210
0
220
0
230
1
100
AcDbArc
50
-90.000000000000142
51
0
0
LWPOLYLINE
5
116
100
AcDbEntity
8
0
100
AcDbPolyline
90
4
70
1
43
0.0
10
-27.593
20
4.1102138130854726
10
-24.892999999999997
20
4.1102138130854726
10
-24.892999999999997
20
1.4102138130854769
10
-27.593
20
1.4102138130854769
0
LWPOLYLINE
5
117
100
AcDbEntity
8
0
100
AcDbPolyline
90
4
70
1
43
0.0
10
31.606999999999999
20
1.4602138130854758
10
28.906999999999993
20
1.4602138130854758
10
28.906999999999993
20
4.1602138130854716
10
31.606999999999999
20
4.1602138130854716
0
LWPOLYLINE
5
118
100
AcDbEntity
8
0
100
AcDbPolyline
90
4
70
1
43
0.0
10
-16.401
20
3.2852138130854769
10
-18.100999999999992
20
3.2852138130854769
10
-18.100999999999992
20
5.2852138130854698
10
-16.401
20
5.2852138130854698
0
CIRCLE
5
119
100
AcDbEntity
8
0
100
AcDbCircle
10
-17.250999999999998
20
4.2852138130854733
30
0
40
0.49999999999999906
210
0
220
0
230
1
0
CIRCLE
5
120
100
AcDbEntity
8
0
100
AcDbCircle
10
-16.200000000000006
20
22.533811684735117
30
0
40
1.6000000000000014
210
0
220
0
230
1
0
LWPOLYLINE
5
121
100
AcDbEntity
8
0
100
AcDbPolyline
90
4
70
1
43
0.0
10
31.606999999999999
20
1.4602138130854758
10
28.906999999999993
20
1.4602138130854758
10
28.906999999999993
20
4.1602138130854716
10
31.606999999999999
20
4.1602138130854716
0
LWPOLYLINE
5
122
100
AcDbEntity
8
0
100
AcDbPolyline
90
8
70
1
43
0.0
10
-2.149000000000203
20
-4.2090001192092874
42
0.41421356237309587
10
-1.7680000000002027
20
-3.8280001192092872
10
-1.7680000000002027
20
-2.3040001192092863
42
0.41421356237309587
10
-2.1490000000002043
20
-1.923000119209286
10
-2.9110000000002048
20
-1.923000119209286
42
0.4142135623730942
10
-3.292000000000205
20
-2.3040001192092863
10
-3.292000000000205
20
-3.8280001192092872
42
0.41421356237309587
10
-2.9110000000002034
20
-4.2090001192092874
0
CIRCLE
5
123
100
AcDbEntity
8
0
100
AcDbCircle
10
13
20
16.999999478459358
30
0
40
1.1499999999999999
210
0
220
0
230
1
0
CIRCLE
5
124
100
AcDbEntity
8
0
100
AcDbCircle
10
3.7499999999999911
20
-20.689786186914532
30
0
40
1.2999999999999992
210
0
220
0
230
1
0
CIRCLE
5
125
100
AcDbEntity
8
0
100
AcDbCircle
10
26.702999999999996
20
-9.1407861869145357
30
0
40
0.84999999999999964
210
0
220
0
230
1
0
LINE
5
126
100
AcDbEntity
8
0
100
AcDbLine
10
2.8119999999997973
20
8.3719998807907192
30
0
11
2.8119999999997973
21
9.8959998807907201
31
0
0
CIRCLE
5
127
100
AcDbEntity
8
0
100
AcDbCircle
10
-13
20
16.999999478459358
30
0
40
1.1499999999999999
210
0
220
0
230
1
0
CIRCLE
5
128
100
AcDbEntity
8
0
100
AcDbCircle
10
26.296999999999997
20
2.8102138130854737
30
0
40
1.3500000000000023
210
0
220
0
230
1
0
LWPOLYLINE
5
129
100
AcDbEntity
8
0
100
AcDbPolyline
90
8
70
1
43
0.0
10
4.3319999999997947
20
2.271999880790716
10
2.8079999999997938
20
2.2719998807907169
42
-0.41421356237309503
10
2.4269999999997949
20
2.6529998807907162
10
2.4269999999997935
20
3.4149998807907167
42
-0.41421356237309503
10
2.8079999999997938
20
3.7959998807907169
10
4.3319999999997947
20
3.7959998807907169
42
-0.41421356237309503
10
4.7129999999997949
20
3.4149998807907167
10
4.7129999999997949
20
2.6529998807907162
42
-0.41421356237309503
0
CIRCLE
5
130
100
AcDbEntity
8
0
100
AcDbCircle
10
26.296999999999997
20
2.8102138130854737
30
0
40
0.84999999999999964
210
0
220
0
230
1
0
CIRCLE
5
131
100
AcDbEntity
8
0
100
AcDbCircle
10
8.9689999999999959
20
2.3102138130854755
30
0
40
0.74999999999999956
210
0
220
0
230
1
0
CIRCLE
5
132
100
AcDbEntity
8
0
100
AcDbCircle
10
-26.242999999999999
20
2.7602138130854748
30
0
40
0.84999999999999964
210
0
220
0
230
1
0
CIRCLE
5
133
100
AcDbEntity
8
0
100
AcDbCircle
10
-2.7500000000000089
20
-17.689786186914525
30
0
40
1.2999999999999992
210
0
220
0
230
1
0
CIRCLE
5
134
100
AcDbEntity
8
0
100
AcDbCircle
10
30.256999999999998
20
2.8102138130854737
30
0
40
0.84999999999999964
210
0
220
0
230
1
0
LINE
5
135
100
AcDbEntity
8
0
100
AcDbLine
10
1.6689999999997958
20
7.990999880790719
30
0
11
2.4309999999997962
21
7.990999880790719
31
0
0
CIRCLE
5
136
100
AcDbEntity
8
0
100
AcDbCircle
10
21.249999999999996
20
-17.689786186914525
30
0
40
1.2999999999999992
210
0
220
0
230
1
0
CIRCLE
5
137
100
AcDbEntity
8
0
100
AcDbCircle
10
19.748999999999995
20
4.2852138130854733
30
0
40
0.49999999999999906
210
0
220
0
230
1
0
CIRCLE
5
138
100
AcDbEntity
8
0
100
AcDbCircle
10
8.9689999999999959
20
4.8102138130854755
30
0
40
0.74999999999999956
210
0
220
0
230
1
0
LWPOLYLINE
5
139
100
AcDbEntity
8
0
100
AcDbPolyline
90
4
70
1
43
0.0
10
18.098999999999997
20
4.1352138130854676
10
18.098999999999997
20
4.4352138130854701
42
0.99999999999999989
10
16.398999999999994
20
4.4352138130854701
10
16.398999999999994
20
4.1352138130854676
42
0.99999999999999989
0
LWPOLYLINE
5
140
100
AcDbEntity
8
0
100
AcDbPolyline
90
4
70
1
43
0.0
10
-18.900999999999996
20
4.1352138130854676
10
-18.900999999999996
20
4.4352138130854701
42
0.99999999999999989
10
-20.600999999999999
20
4.4352138130854701
10
-20.600999999999999
20
4.1352138130854676
42
0.99999999999999989
0
LINE
5
141
100
AcDbEntity
8
0
100
AcDbLine
10
1.2879999999997955
20
9.8959998807907201
30
0
11
1.2879999999997955
21
8.3719998807907192
31
0
0
CIRCLE
5
142
100
AcDbEntity
8
0
100
AcDbCircle
10
27.749999999999993
20
-20.689786186914532
30
0
40
0.89999999999999902
210
0
220
0
230
1
0
ARC
5
143
100
AcDbEntity
8
0
100
AcDbCircle
10
2.4309999999997984
20
9.8959998807907201
30
0
40
0.38099999999999912
210
0
220
0
230
1
100
AcDbArc
50
0
51
90.000000000000199
0
CIRCLE
5
144
100
AcDbEntity
8
0
100
AcDbCircle
10
-19.750999999999998
20
4.2852138130854733
30
0
40
0.49999999999999906
210
0
220
0
230
1
0
CIRCLE
5
145
100
AcDbEntity
8
0
100
AcDbCircle
10
8.9689999999999959
20
-0.18978618691452454
30
0
40
0.74999999999999956
210
0
220
0
230
1
0
CIRCLE
5
146
100
AcDbEntity
8
0
100
AcDbCircle
10
-30.202999999999996
20
2.7602138130854748
30
0
40
0.84999999999999964
210
0
220
0
230
1
0
CIRCLE
5
147
100
AcDbEntity
8
0
100
AcDbCircle
10
8.9689999999999959
20
-0.18978618691452454
30
0
40
0.40000000000000013
210
0
220
0
230
1
0
CIRCLE
5
148
100
AcDbEntity
8
0
100
AcDbCircle
10
-2.7500000000000089
20
-17.689786186914525
30
0
40
0.89999999999999902
210
0
220
0
230
1
0
CIRCLE
5
149
100
AcDbEntity
8
0
100
AcDbCircle
10
26.296999999999997
20
2.8102138130854737
30
0
40
1.3500000000000023
210
0
220
0
230
1
0
CIRCLE
5
150
100
AcDbEntity
8
0
100
AcDbCircle
10
-30.202999999999996
20
2.7602138130854748
30
0
40
1.3500000000000023
210
0
220
0
230
1
0
CIRCLE
5
151
100
AcDbEntity
8
0
100
AcDbCircle
10
30.256999999999998
20
2.8102138130854737
30
0
40
0.84999999999999964
210
0
220
0
230
1
0
CIRCLE
5
152
100
AcDbEntity
8
0
100
AcDbCircle
10
3.7499999999999911
20
-20.689786186914532
30
0
40
0.89999999999999902
210
0
220
0
230
1
0
CIRCLE
5
153
100
AcDbEntity
8
0
100
AcDbCircle
10
8.9689999999999959
20
2.3102138130854755
30
0
40
0.40000000000000013
210
0
220
0
230
1
0
CIRCLE
5
154
100
AcDbEntity
8
0
100
AcDbCircle
10
26.296999999999997
20
2.8102138130854737
30
0
40
0.84999999999999964
210
0
220
0
230
1
0
CIRCLE
5
155
100
AcDbEntity
8
0
100
AcDbCircle
10
27.749999999999993
20
-20.689786186914532
30
0
40
1.2999999999999992
210
0
220
0
230
1
0
CIRCLE
5
156
100
AcDbEntity
8
0
100
AcDbCircle
10
21.249999999999996
20
-17.689786186914525
30
0
40
0.89999999999999902
210
0
220
0
230
1
0
LWPOLYLINE
5
157
100
AcDbEntity
8
0
100
AcDbPolyline
90
4
70
1
43
0.0
10
18.899000000000001
20
5.2852138130854698
10
20.598999999999993
20
5.2852138130854698
10
20.598999999999993
20
3.285213813085468
10
18.899000000000001
20
3.285213813085468
0
CIRCLE
5
158
100
AcDbEntity
8
0
100
AcDbCircle
10
16.199999999999996
20
-27.466188315264883
30
0
40
1.6000000000000014
210
0
220
0
230
1
0
ARC
5
159
100
AcDbEntity
8
0
100
AcDbCircle
10
1.6689999999997958
20
9.8959998807907201
30
0
40
0.38100000000000023
210
0
220
-0
230
1
100
AcDbArc
50
89.999999999999872
51
180
0
CIRCLE
5
160
100
AcDbEntity
8
0
100
AcDbCircle
10
16.199999999999996
20
22.533811684735117
30
0
40
1.6000000000000014
210
0
220
0
230
1
0
CIRCLE
5
161
100
AcDbEntity
8
0
100
AcDbCircle
10
8.9689999999999959
20
4.8102138130854755
30
0
40
0.40000000000000013
210
0
220
0
230
1
0
LINE
5
162
100
AcDbEntity
8
0
100
AcDbLine
10
2.4309999999997971
20
10.27699988079072
30
0
11
1.6689999999997966
21
10.27699988079072
31
0
0
CIRCLE
5
163
100
AcDbEntity
8
0
100
AcDbCircle
10
-24.000000000000004
20
-4.1897861869145281
30
0
40
1.6000000000000014
210
0
220
0
230
1
0
CIRCLE
5
164
100
AcDbEntity
8
0
100
AcDbCircle
10
-24.000000000000004
20
-4.1897861869145281
30
0
40
0.87499999999999911
210
0
220
0
230
1
0
ENDSEC
0
SECTION
2
OBJECTS
0
DICTIONARY
5
C
100
AcDbDictionary
3
ACAD_GROUP
350
D
3
ACAD_MLINESTYLE
350
17
0
DICTIONARY
5
D
100
AcDbDictionary
0
DICTIONARY
5
1A
330
C
100
AcDbDictionary
0
DICTIONARY
5
17
100
AcDbDictionary
0
ENDSEC
0
EOF
