M48
; DRILL file {KiCad 7.0.6} date Sat Dec 23 00:17:47 2023
; FORMAT={-:-/ absolute / inch / decimal}
; #@! TF.CreationDate,2023-12-23T00:17:47+09:00
; #@! TF.GenerationSoftware,Kicad,Pcbnew,7.0.6
; #@! TF.FileFunction,Plated,1,2,PTH
FMAT,2
INCH
; #@! TA.AperFunction,Plated,PTH,ViaDrill
T1C0.0157
; #@! TA.AperFunction,Plated,PTH,ComponentDrill
T2C0.0276
; #@! TA.AperFunction,Plated,PTH,ComponentDrill
T3C0.0315
; #@! TA.AperFunction,Plated,PTH,ComponentDrill
T4C0.0374
; #@! TA.AperFunction,Plated,PTH,ComponentDrill
T5C0.0394
; #@! TA.AperFunction,Plated,PTH,ComponentDrill
T6C0.0512
%
G90
G05
T1
X2.9976Y-4.4133
X2.9976Y-4.4527
X2.9976Y-4.492
X3.037Y-4.4133
X3.037Y-4.4527
X3.0764Y-4.4133
X3.1Y-5.6216
X3.1Y-6.0153
X3.1227Y-3.0247
X3.1394Y-3.8696
X3.3362Y-4.0664
X3.7268Y-4.7199
X3.7268Y-4.7593
X3.789Y-5.0704
X3.789Y-5.1294
X3.789Y-5.1885
X3.8283Y-4.1255
X3.8283Y-3.906
X3.848Y-5.0704
X3.848Y-5.1294
X3.848Y-5.1885
X3.8555Y-4.9526
X3.9071Y-4.2042
X3.9071Y-5.0704
X3.9071Y-5.1294
X3.9661Y-4.3027
X4.0247Y-4.2441
X4.0247Y-4.4762
X4.0555Y-4.9526
X4.0843Y-4.1845
X4.0843Y-4.2436
X4.1476Y-4.618
X4.2181Y-5.1023
X4.2354Y-5.3373
X4.2614Y-4.2436
X4.2614Y-4.4208
X4.3795Y-4.7955
X4.474Y-4.9448
X4.474Y-4.9842
X4.474Y-5.0235
X4.474Y-5.0629
X4.474Y-5.1023
X4.5134Y-4.9842
X4.5134Y-5.0235
X4.5134Y-5.0629
X4.5134Y-5.1023
X4.5528Y-5.0235
X4.5528Y-5.0629
X4.5528Y-5.1023
X4.5921Y-5.0629
X4.5921Y-5.1023
X4.6315Y-5.1023
X4.6354Y-2.9444
X4.6354Y-2.9838
X4.6354Y-3.0231
X4.6354Y-3.0625
X4.6354Y-3.1019
X4.6354Y-3.1412
X4.911Y-6.468
X4.9115Y-4.9715
X5.0882Y-5.4247
X5.0882Y-5.6806
X5.0882Y-5.9168
X5.0882Y-6.1531
X5.1472Y-3.0625
X5.1866Y-3.0231
X5.1866Y-3.1019
X5.226Y-3.0625
T2
X4.1976Y-4.1743
X4.3945Y-4.1743
T3
X2.9976Y-3.268
X2.9976Y-3.368
X2.9976Y-3.468
X2.9976Y-3.568
X2.9976Y-3.668
X2.9976Y-3.968
X2.9976Y-4.068
X2.9976Y-4.168
X2.9976Y-4.568
X2.9976Y-4.668
X3.0976Y-3.268
X3.0976Y-3.368
X3.0976Y-3.468
X3.0976Y-3.568
X3.0976Y-3.668
X3.0976Y-3.968
X3.0976Y-4.068
X3.0976Y-4.168
X3.0976Y-4.568
X3.0976Y-4.668
X3.1976Y-3.268
X3.1976Y-3.368
X3.1976Y-4.568
X3.1976Y-4.668
X3.2976Y-3.268
X3.2976Y-3.368
X3.2976Y-4.568
X3.2976Y-4.668
X3.3976Y-3.268
X3.3976Y-3.368
X3.3976Y-4.568
X3.3976Y-4.668
X3.4976Y-3.268
X3.4976Y-3.368
X3.4976Y-4.568
X3.4976Y-4.668
X3.5976Y-3.268
X3.5976Y-3.368
X3.5976Y-4.568
X3.5976Y-4.668
X3.6976Y-3.268
X3.6976Y-3.368
X3.6976Y-4.568
X3.6976Y-4.668
X3.7976Y-3.268
X3.7976Y-3.368
X3.7976Y-4.568
X3.7976Y-4.668
X3.8976Y-3.268
X3.8976Y-3.368
X3.8976Y-4.568
X3.8976Y-4.668
X3.9976Y-3.268
X3.9976Y-3.368
X3.9976Y-4.568
X3.9976Y-4.668
X4.0976Y-3.268
X4.0976Y-3.368
X4.0976Y-4.568
X4.0976Y-4.668
X4.1976Y-3.268
X4.1976Y-3.368
X4.1976Y-4.568
X4.1976Y-4.668
X4.2976Y-3.268
X4.2976Y-3.368
X4.2976Y-4.568
X4.2976Y-4.668
X4.3976Y-3.268
X4.3976Y-3.368
X4.3976Y-4.568
X4.3976Y-4.668
X4.4976Y-3.268
X4.4976Y-3.368
X4.4976Y-4.568
X4.4976Y-4.668
X4.5976Y-4.568
X4.5976Y-4.668
X4.6976Y-4.568
X4.6976Y-4.668
X4.7976Y-4.568
X4.7976Y-4.668
X4.8976Y-4.568
X4.8976Y-4.668
X4.9898Y-6.3105
X4.9976Y-4.568
X4.9976Y-4.668
X5.0882Y-6.3105
X5.1866Y-6.3105
T4
X2.7473Y-2.9867
X2.786Y-3.6235
X2.786Y-3.7219
X2.786Y-3.8204
X2.786Y-3.9188
X2.786Y-4.0172
X2.786Y-4.1156
X2.786Y-4.2141
X2.786Y-4.3125
X2.8169Y-2.9172
X2.8865Y-2.8476
X5.225Y-3.6235
X5.225Y-3.7219
X5.225Y-3.8204
X5.225Y-3.9188
X5.225Y-4.0172
X5.225Y-4.1156
X5.225Y-4.2141
X5.225Y-4.3125
T5
X3.4055Y-3.622
X3.4055Y-3.722
X3.4618Y-4.0345
X3.4618Y-4.3345
X3.5055Y-3.622
X3.5055Y-3.722
X3.5555Y-2.9541
X3.5555Y-3.0541
X3.5618Y-4.0345
X3.5618Y-4.3345
X3.6055Y-3.622
X3.6055Y-3.722
X3.6555Y-2.9541
X3.6555Y-3.0541
X3.6618Y-4.0345
X3.6618Y-4.3345
X3.7055Y-3.622
X3.7055Y-3.722
X3.7555Y-2.9541
X3.7555Y-3.0541
X3.7618Y-4.0345
X3.7618Y-4.3345
X3.8055Y-3.622
X3.8055Y-3.722
X3.8055Y-4.903
X3.8055Y-5.003
X3.8555Y-2.9541
X3.8555Y-3.0541
X3.8559Y-5.2662
X3.9055Y-3.622
X3.9055Y-3.722
X3.9055Y-4.903
X3.9055Y-5.003
X3.9555Y-2.9541
X3.9555Y-3.0541
X3.9559Y-5.2662
X4.0055Y-3.622
X4.0055Y-3.722
X4.0055Y-4.903
X4.0055Y-5.003
X4.0555Y-2.9541
X4.0555Y-3.0541
X4.0559Y-5.2662
X4.1055Y-3.622
X4.1055Y-3.722
X4.1055Y-4.903
X4.1055Y-5.003
X4.1555Y-2.9541
X4.1555Y-3.0541
X4.1559Y-5.2662
X4.2055Y-3.622
X4.2055Y-3.722
X4.2055Y-4.903
X4.2055Y-5.003
X4.2555Y-2.9541
X4.2555Y-3.0541
X4.3055Y-3.622
X4.3055Y-3.722
X4.3555Y-2.9541
X4.3555Y-3.0541
X4.4055Y-3.622
X4.4055Y-3.722
X4.4555Y-2.9541
X4.4555Y-3.0541
X4.5055Y-3.622
X4.5055Y-3.722
X4.6055Y-3.622
X4.6055Y-3.722
X5.1594Y-2.8824
X5.229Y-2.952
T6
G00X2.7949Y-5.47
M15
G01X2.7949Y-5.4975
M16
G05
G00X2.7949Y-5.8637
M15
G01X2.7949Y-5.8912
M16
G05
G00X2.7949Y-6.2574
M15
G01X2.7949Y-6.2849
M16
G05
G00X3.0508Y-5.47
M15
G01X3.0508Y-5.4975
M16
G05
G00X3.0508Y-5.8637
M15
G01X3.0508Y-5.8912
M16
G05
G00X3.0508Y-6.2574
M15
G01X3.0508Y-6.2849
M16
G05
T0
M30
