%TF.GenerationSoftware,KiCad,Pcbnew,7.0.6*%
%TF.CreationDate,2023-12-23T00:17:47+09:00*%
%TF.ProjectId,MainBoard_ATMega2560Pro_20230629,4d61696e-426f-4617-9264-5f41544d6567,rev?*%
%TF.SameCoordinates,Original*%
%TF.FileFunction,Profile,NP*%
%FSLAX46Y46*%
G04 Gerber Fmt 4.6, Leading zero omitted, Abs format (unit mm)*
G04 Created by KiCad (PCBNEW 7.0.6) date 2023-12-23 00:17:47*
%MOMM*%
%LPD*%
G01*
G04 APERTURE LIST*
%TA.AperFunction,Profile*%
%ADD10C,0.200000*%
%TD*%
G04 APERTURE END LIST*
D10*
X121372433Y-67054463D02*
G75*
G03*
X116373841Y-65109159I-3132433J-654237D01*
G01*
X66740000Y-133287508D02*
X66740000Y-123133862D01*
X121739992Y-139287508D02*
G75*
G03*
X118740000Y-136287508I-2999992J8D01*
G01*
X87106147Y-65109176D02*
G75*
G03*
X82107587Y-67054467I-1866147J-2599524D01*
G01*
X136740001Y-163287508D02*
X136740001Y-133287508D01*
X121372419Y-67054466D02*
G75*
G03*
X124309053Y-69441152I2936681J613366D01*
G01*
X87106160Y-65109157D02*
G75*
G03*
X89929376Y-65473400I1749540J2437157D01*
G01*
X121740000Y-139287508D02*
X121740000Y-163287508D01*
X118740000Y-136287508D02*
X84740000Y-136287508D01*
X66740000Y-123133862D02*
X66740000Y-72441152D01*
X66740000Y-163287508D02*
X66740000Y-133287508D01*
X136740000Y-123133862D02*
X136740000Y-72441152D01*
X81740000Y-139287508D02*
X81740000Y-163287508D01*
X69740000Y-69441152D02*
X79170947Y-69441152D01*
X66739992Y-163287508D02*
G75*
G03*
X69740000Y-166287508I3000008J8D01*
G01*
X121739992Y-163287508D02*
G75*
G03*
X124740000Y-166287508I3000008J8D01*
G01*
X79170947Y-69441157D02*
G75*
G03*
X82107586Y-67054467I-47J3000057D01*
G01*
X124309053Y-69441152D02*
X133740000Y-69441152D01*
X78740000Y-166287500D02*
G75*
G03*
X81740000Y-163287508I0J3000000D01*
G01*
X113550611Y-65473436D02*
G75*
G03*
X116373841Y-65109159I1073689J2801136D01*
G01*
X84740000Y-136287500D02*
G75*
G03*
X81740000Y-139287508I0J-3000000D01*
G01*
X78740000Y-166287508D02*
X69740000Y-166287508D01*
X133740001Y-166287501D02*
G75*
G03*
X136740001Y-163287508I-1J3000001D01*
G01*
X136739948Y-72441152D02*
G75*
G03*
X133740000Y-69441152I-2999948J52D01*
G01*
X113550624Y-65473402D02*
G75*
G03*
X89929376Y-65473402I-11810624J-30814098D01*
G01*
X124740000Y-166287508D02*
X133740001Y-166287508D01*
X69740000Y-69441150D02*
G75*
G03*
X66740000Y-72441152I-20J-2999980D01*
G01*
X136740001Y-123133862D02*
X136740001Y-133287508D01*
M02*
