%TF.GenerationSoftware,KiCad,Pcbnew,7.0.6*%
%TF.CreationDate,2023-12-18T00:12:50+09:00*%
%TF.ProjectId,LineSensor_20230418,4c696e65-5365-46e7-936f-725f32303233,rev?*%
%TF.SameCoordinates,Original*%
%TF.FileFunction,Soldermask,Top*%
%TF.FilePolarity,Negative*%
%FSLAX46Y46*%
G04 Gerber Fmt 4.6, Leading zero omitted, Abs format (unit mm)*
G04 Created by KiCad (PCBNEW 7.0.6) date 2023-12-18 00:12:50*
%MOMM*%
%LPD*%
G01*
G04 APERTURE LIST*
G04 Aperture macros list*
%AMRoundRect*
0 Rectangle with rounded corners*
0 $1 Rounding radius*
0 $2 $3 $4 $5 $6 $7 $8 $9 X,Y pos of 4 corners*
0 Add a 4 corners polygon primitive as box body*
4,1,4,$2,$3,$4,$5,$6,$7,$8,$9,$2,$3,0*
0 Add four circle primitives for the rounded corners*
1,1,$1+$1,$2,$3*
1,1,$1+$1,$4,$5*
1,1,$1+$1,$6,$7*
1,1,$1+$1,$8,$9*
0 Add four rect primitives between the rounded corners*
20,1,$1+$1,$2,$3,$4,$5,0*
20,1,$1+$1,$4,$5,$6,$7,0*
20,1,$1+$1,$6,$7,$8,$9,0*
20,1,$1+$1,$8,$9,$2,$3,0*%
G04 Aperture macros list end*
%ADD10C,1.400000*%
%ADD11R,1.400000X1.400000*%
%ADD12C,3.200000*%
%ADD13RoundRect,0.300000X-0.300000X-0.600000X0.300000X-0.600000X0.300000X0.600000X-0.300000X0.600000X0*%
%ADD14RoundRect,0.400000X-0.400000X-0.600000X0.400000X-0.600000X0.400000X0.600000X-0.400000X0.600000X0*%
%ADD15RoundRect,0.200000X-0.275000X0.200000X-0.275000X-0.200000X0.275000X-0.200000X0.275000X0.200000X0*%
%ADD16R,1.800000X1.800000*%
%ADD17C,1.800000*%
%ADD18RoundRect,0.300000X0.300000X0.600000X-0.300000X0.600000X-0.300000X-0.600000X0.300000X-0.600000X0*%
%ADD19RoundRect,0.400000X0.400000X0.600000X-0.400000X0.600000X-0.400000X-0.600000X0.400000X-0.600000X0*%
%ADD20RoundRect,0.200000X-0.200000X-0.275000X0.200000X-0.275000X0.200000X0.275000X-0.200000X0.275000X0*%
%ADD21RoundRect,0.300000X-0.600000X0.300000X-0.600000X-0.300000X0.600000X-0.300000X0.600000X0.300000X0*%
%ADD22RoundRect,0.400000X-0.600000X0.400000X-0.600000X-0.400000X0.600000X-0.400000X0.600000X0.400000X0*%
%ADD23RoundRect,0.200000X0.200000X0.275000X-0.200000X0.275000X-0.200000X-0.275000X0.200000X-0.275000X0*%
%ADD24RoundRect,0.200000X0.275000X-0.200000X0.275000X0.200000X-0.275000X0.200000X-0.275000X-0.200000X0*%
%ADD25RoundRect,0.250000X-0.250000X-0.475000X0.250000X-0.475000X0.250000X0.475000X-0.250000X0.475000X0*%
%ADD26RoundRect,0.300000X0.600000X-0.300000X0.600000X0.300000X-0.600000X0.300000X-0.600000X-0.300000X0*%
%ADD27RoundRect,0.400000X0.600000X-0.400000X0.600000X0.400000X-0.600000X0.400000X-0.600000X-0.400000X0*%
%ADD28RoundRect,0.250000X-0.600000X0.600000X-0.600000X-0.600000X0.600000X-0.600000X0.600000X0.600000X0*%
%ADD29C,1.700000*%
%ADD30RoundRect,0.250000X0.600000X0.725000X-0.600000X0.725000X-0.600000X-0.725000X0.600000X-0.725000X0*%
%ADD31O,1.700000X1.950000*%
G04 APERTURE END LIST*
D10*
%TO.C,Q17*%
X51500000Y-148017500D03*
D11*
X51500000Y-145477500D03*
%TD*%
D12*
%TO.C,REF\u002A\u002A*%
X229036605Y-159847500D03*
%TD*%
D13*
%TO.C,R3*%
X151500000Y-115960000D03*
D14*
X152500000Y-112710000D03*
D13*
X153500000Y-115960000D03*
%TD*%
D15*
%TO.C,R31*%
X221000000Y-145922500D03*
X221000000Y-147572500D03*
%TD*%
D16*
%TO.C,D11*%
X153775000Y-247747500D03*
D17*
X151235000Y-247747500D03*
%TD*%
D10*
%TO.C,Q8*%
X215500000Y-150477500D03*
D11*
X215500000Y-153017500D03*
%TD*%
D16*
%TO.C,D9*%
X204500000Y-145472500D03*
D17*
X204500000Y-148012500D03*
%TD*%
D12*
%TO.C,REF\u002A\u002A*%
X229036605Y-138647500D03*
%TD*%
D16*
%TO.C,D3*%
X146225000Y-108747500D03*
D17*
X148765000Y-108747500D03*
%TD*%
D18*
%TO.C,R15*%
X148500000Y-196535000D03*
D19*
X147500000Y-199785000D03*
D18*
X146500000Y-196535000D03*
%TD*%
D15*
%TO.C,R29*%
X243000000Y-145922500D03*
X243000000Y-147572500D03*
%TD*%
D20*
%TO.C,R25*%
X146675000Y-92247500D03*
X148325000Y-92247500D03*
%TD*%
D10*
%TO.C,Q11*%
X148770000Y-247747500D03*
D11*
X146230000Y-247747500D03*
%TD*%
D21*
%TO.C,R7*%
X219287500Y-150747500D03*
D22*
X222537500Y-151747500D03*
D21*
X219287500Y-152747500D03*
%TD*%
D16*
%TO.C,D7*%
X226500000Y-145472500D03*
D17*
X226500000Y-148012500D03*
%TD*%
D13*
%TO.C,R23*%
X149000000Y-160997500D03*
D14*
X150000000Y-157747500D03*
D13*
X151000000Y-160997500D03*
%TD*%
D16*
%TO.C,D14*%
X153775000Y-214747500D03*
D17*
X151235000Y-214747500D03*
%TD*%
D10*
%TO.C,Q15*%
X148770000Y-203747500D03*
D11*
X146230000Y-203747500D03*
%TD*%
D10*
%TO.C,Q7*%
X226500000Y-150477500D03*
D11*
X226500000Y-153017500D03*
%TD*%
D12*
%TO.C,REF\u002A\u002A*%
X139400000Y-94747500D03*
%TD*%
D23*
%TO.C,R24*%
X164475000Y-160000000D03*
X162825000Y-160000000D03*
%TD*%
D20*
%TO.C,R27*%
X146675000Y-114247500D03*
X148325000Y-114247500D03*
%TD*%
D24*
%TO.C,R46*%
X112000000Y-152572500D03*
X112000000Y-150922500D03*
%TD*%
D18*
%TO.C,R12*%
X148500000Y-229535000D03*
D19*
X147500000Y-232785000D03*
D18*
X146500000Y-229535000D03*
%TD*%
D23*
%TO.C,R38*%
X153325000Y-209247500D03*
X151675000Y-209247500D03*
%TD*%
D25*
%TO.C,C1*%
X162700000Y-157747500D03*
X164600000Y-157747500D03*
%TD*%
D16*
%TO.C,D18*%
X62500000Y-153022500D03*
D17*
X62500000Y-150482500D03*
%TD*%
D10*
%TO.C,Q22*%
X106500000Y-148017500D03*
D11*
X106500000Y-145477500D03*
%TD*%
D10*
%TO.C,Q5*%
X248500000Y-150477500D03*
D11*
X248500000Y-153017500D03*
%TD*%
D16*
%TO.C,D19*%
X73500000Y-153022500D03*
D17*
X73500000Y-150482500D03*
%TD*%
D16*
%TO.C,D16*%
X153775000Y-192747500D03*
D17*
X151235000Y-192747500D03*
%TD*%
D10*
%TO.C,Q3*%
X151230000Y-108747500D03*
D11*
X153770000Y-108747500D03*
%TD*%
D23*
%TO.C,R35*%
X153325000Y-242247500D03*
X151675000Y-242247500D03*
%TD*%
D16*
%TO.C,D5*%
X248500000Y-145472500D03*
D17*
X248500000Y-148012500D03*
%TD*%
D18*
%TO.C,R16*%
X148500000Y-185535000D03*
D19*
X147500000Y-188785000D03*
D18*
X146500000Y-185535000D03*
%TD*%
%TO.C,R13*%
X148500000Y-218535000D03*
D19*
X147500000Y-221785000D03*
D18*
X146500000Y-218535000D03*
%TD*%
D26*
%TO.C,R22*%
X113712500Y-147747500D03*
D27*
X110462500Y-146747500D03*
D26*
X113712500Y-145747500D03*
%TD*%
D21*
%TO.C,R8*%
X208287500Y-150747500D03*
D22*
X211537500Y-151747500D03*
D21*
X208287500Y-152747500D03*
%TD*%
D16*
%TO.C,D20*%
X84500000Y-153022500D03*
D17*
X84500000Y-150482500D03*
%TD*%
D16*
%TO.C,D6*%
X237500000Y-145472500D03*
D17*
X237500000Y-148012500D03*
%TD*%
D26*
%TO.C,R20*%
X91712500Y-147747500D03*
D27*
X88462500Y-146747500D03*
D26*
X91712500Y-145747500D03*
%TD*%
D21*
%TO.C,R9*%
X197287500Y-150747500D03*
D22*
X200537500Y-151747500D03*
D21*
X197287500Y-152747500D03*
%TD*%
D12*
%TO.C,REF\u002A\u002A*%
X70963395Y-138647500D03*
%TD*%
D10*
%TO.C,Q14*%
X148770000Y-214747500D03*
D11*
X146230000Y-214747500D03*
%TD*%
D18*
%TO.C,R11*%
X148500000Y-240535000D03*
D19*
X147500000Y-243785000D03*
D18*
X146500000Y-240535000D03*
%TD*%
D10*
%TO.C,Q2*%
X151230000Y-97747500D03*
D11*
X153770000Y-97747500D03*
%TD*%
D26*
%TO.C,R18*%
X69712500Y-147747500D03*
D27*
X66462500Y-146747500D03*
D26*
X69712500Y-145747500D03*
%TD*%
D12*
%TO.C,REF\u002A\u002A*%
X139400000Y-221072380D03*
%TD*%
D15*
%TO.C,R32*%
X210000000Y-145922500D03*
X210000000Y-147572500D03*
%TD*%
D12*
%TO.C,REF\u002A\u002A*%
X160600000Y-94722142D03*
%TD*%
D10*
%TO.C,Q21*%
X95500000Y-148017500D03*
D11*
X95500000Y-145477500D03*
%TD*%
D16*
%TO.C,D2*%
X146225000Y-97747500D03*
D17*
X148765000Y-97747500D03*
%TD*%
D16*
%TO.C,D22*%
X106500000Y-153022500D03*
D17*
X106500000Y-150482500D03*
%TD*%
D24*
%TO.C,R41*%
X57000000Y-152572500D03*
X57000000Y-150922500D03*
%TD*%
D26*
%TO.C,R19*%
X80712500Y-147747500D03*
D27*
X77462500Y-146747500D03*
D26*
X80712500Y-145747500D03*
%TD*%
D23*
%TO.C,R40*%
X153325000Y-187247500D03*
X151675000Y-187247500D03*
%TD*%
D16*
%TO.C,D4*%
X146225000Y-119747500D03*
D17*
X148765000Y-119747500D03*
%TD*%
D23*
%TO.C,R39*%
X153325000Y-198247500D03*
X151675000Y-198247500D03*
%TD*%
D24*
%TO.C,R43*%
X79000000Y-152572500D03*
X79000000Y-150922500D03*
%TD*%
D23*
%TO.C,R37*%
X153325000Y-220247500D03*
X151675000Y-220247500D03*
%TD*%
D15*
%TO.C,R34*%
X188000000Y-145922500D03*
X188000000Y-147572500D03*
%TD*%
D13*
%TO.C,R1*%
X151500000Y-93960000D03*
D14*
X152500000Y-90710000D03*
D13*
X153500000Y-93960000D03*
%TD*%
D16*
%TO.C,D13*%
X153775000Y-225747500D03*
D17*
X151235000Y-225747500D03*
%TD*%
D10*
%TO.C,Q9*%
X204500000Y-150477500D03*
D11*
X204500000Y-153017500D03*
%TD*%
D26*
%TO.C,R17*%
X58712500Y-147747500D03*
D27*
X55462500Y-146747500D03*
D26*
X58712500Y-145747500D03*
%TD*%
D10*
%TO.C,Q12*%
X148770000Y-236747500D03*
D11*
X146230000Y-236747500D03*
%TD*%
D21*
%TO.C,R5*%
X241287500Y-150747500D03*
D22*
X244537500Y-151747500D03*
D21*
X241287500Y-152747500D03*
%TD*%
D10*
%TO.C,Q20*%
X84500000Y-148017500D03*
D11*
X84500000Y-145477500D03*
%TD*%
D12*
%TO.C,REF\u002A\u002A*%
X70963395Y-159847500D03*
%TD*%
D23*
%TO.C,R36*%
X153325000Y-231247500D03*
X151675000Y-231247500D03*
%TD*%
D10*
%TO.C,Q19*%
X73500000Y-148017500D03*
D11*
X73500000Y-145477500D03*
%TD*%
D10*
%TO.C,Q4*%
X151230000Y-119747500D03*
D11*
X153770000Y-119747500D03*
%TD*%
D21*
%TO.C,R10*%
X186287500Y-150747500D03*
D22*
X189537500Y-151747500D03*
D21*
X186287500Y-152747500D03*
%TD*%
D24*
%TO.C,R45*%
X101000000Y-152572500D03*
X101000000Y-150922500D03*
%TD*%
D15*
%TO.C,R30*%
X232000000Y-145922500D03*
X232000000Y-147572500D03*
%TD*%
D24*
%TO.C,R42*%
X68000000Y-152572500D03*
X68000000Y-150922500D03*
%TD*%
D13*
%TO.C,R2*%
X151500000Y-104960000D03*
D14*
X152500000Y-101710000D03*
D13*
X153500000Y-104960000D03*
%TD*%
D12*
%TO.C,REF\u002A\u002A*%
X160600000Y-221072440D03*
%TD*%
D20*
%TO.C,R28*%
X146675000Y-125247500D03*
X148325000Y-125247500D03*
%TD*%
D10*
%TO.C,Q10*%
X193500000Y-150477500D03*
D11*
X193500000Y-153017500D03*
%TD*%
D16*
%TO.C,D10*%
X193500000Y-145472500D03*
D17*
X193500000Y-148012500D03*
%TD*%
D16*
%TO.C,D12*%
X153775000Y-236747500D03*
D17*
X151235000Y-236747500D03*
%TD*%
D26*
%TO.C,R21*%
X102712500Y-147747500D03*
D27*
X99462500Y-146747500D03*
D26*
X102712500Y-145747500D03*
%TD*%
D16*
%TO.C,D21*%
X95500000Y-153022500D03*
D17*
X95500000Y-150482500D03*
%TD*%
D24*
%TO.C,R44*%
X90000000Y-152572500D03*
X90000000Y-150922500D03*
%TD*%
D18*
%TO.C,R14*%
X148500000Y-207535000D03*
D19*
X147500000Y-210785000D03*
D18*
X146500000Y-207535000D03*
%TD*%
D16*
%TO.C,D17*%
X51500000Y-153022500D03*
D17*
X51500000Y-150482500D03*
%TD*%
D10*
%TO.C,Q1*%
X151230000Y-86747500D03*
D11*
X153770000Y-86747500D03*
%TD*%
D16*
%TO.C,D15*%
X153775000Y-203747500D03*
D17*
X151235000Y-203747500D03*
%TD*%
D10*
%TO.C,Q13*%
X148770000Y-225747500D03*
D11*
X146230000Y-225747500D03*
%TD*%
D10*
%TO.C,Q18*%
X62500000Y-148017500D03*
D11*
X62500000Y-145477500D03*
%TD*%
D15*
%TO.C,R33*%
X199000000Y-145922500D03*
X199000000Y-147572500D03*
%TD*%
D16*
%TO.C,D8*%
X215500000Y-145472500D03*
D17*
X215500000Y-148012500D03*
%TD*%
D13*
%TO.C,R4*%
X151500000Y-126960000D03*
D14*
X152500000Y-123710000D03*
D13*
X153500000Y-126960000D03*
%TD*%
D20*
%TO.C,R26*%
X146675000Y-103247500D03*
X148325000Y-103247500D03*
%TD*%
D10*
%TO.C,Q16*%
X148770000Y-192747500D03*
D11*
X146230000Y-192747500D03*
%TD*%
D21*
%TO.C,R6*%
X230287500Y-150747500D03*
D22*
X233537500Y-151747500D03*
D21*
X230287500Y-152747500D03*
%TD*%
D10*
%TO.C,Q6*%
X237500000Y-150477500D03*
D11*
X237500000Y-153017500D03*
%TD*%
D16*
%TO.C,D1*%
X146225000Y-86747500D03*
D17*
X148765000Y-86747500D03*
%TD*%
D28*
%TO.C,J1*%
X134760000Y-149747500D03*
D29*
X134760000Y-152287500D03*
X137300000Y-149747500D03*
X137300000Y-152287500D03*
X139840000Y-149747500D03*
X139840000Y-152287500D03*
X142380000Y-149747500D03*
X142380000Y-152287500D03*
X144920000Y-149747500D03*
X144920000Y-152287500D03*
X147460000Y-149747500D03*
X147460000Y-152287500D03*
X150000000Y-149747500D03*
X150000000Y-152287500D03*
X152540000Y-149747500D03*
X152540000Y-152287500D03*
X155080000Y-149747500D03*
X155080000Y-152287500D03*
X157620000Y-149747500D03*
X157620000Y-152287500D03*
X160160000Y-149747500D03*
X160160000Y-152287500D03*
X162700000Y-149747500D03*
X162700000Y-152287500D03*
X165240000Y-149747500D03*
X165240000Y-152287500D03*
%TD*%
D30*
%TO.C,J2*%
X152500000Y-134247500D03*
D31*
X150000000Y-134247500D03*
X147500000Y-134247500D03*
%TD*%
M02*
