0
SECTION
2
HEADER
9
$INSUNITS
70
4
9
$ACADVER
1
AC1014
9
$HANDSEED
5
FFFF
0
ENDSEC
0
SECTION
2
TABLES
0
TABLE
2
VPORT
5
8
100
AcDbSymbolTable
0
ENDTAB
0
TABLE
2
LTYPE
5
5
100
AcDbSymbolTable
0
LTYPE
5
14
100
AcDbSymbolTableRecord
100
AcDbLinetypeTableRecord
2
BYBLOCK
70
0
0
LTYPE
5
15
100
AcDbSymbolTableRecord
100
AcDbLinetypeTableRecord
2
BYLAYER
70
0
0
LTYPE
5
16
100
AcDbSymbolTableRecord
100
AcDbLinetypeTableRecord
2
DASHED
70
0
3
Dashed __ __ __ __ __ __ __ __ __ __ __ __ __ _
72
65
73
2
40
0.75
49
0.5
74
0
49
-0.25
74
0
0
ENDTAB
0
TABLE
2
LAYER
5
2
100
AcDbSymbolTable
70
3
0
LAYER
5
50
100
AcDbSymbolTableRecord
100
AcDbLayerTableRecord
2
1
70
0
62
7
6
DASHED
0
LAYER
5
51
100
AcDbSymbolTableRecord
100
AcDbLayerTableRecord
2
0
70
0
62
7
6
CONTINUOUS
0
ENDTAB
0
TABLE
2
STYLE
5
3
100
AcDbSymbolTable
70
1
0
STYLE
5
11
100
AcDbSymbolTableRecord
100
AcDbTextStyleTableRecord
2
STANDARD
70
0
0
ENDTAB
0
TABLE
2
VIEW
5
6
100
AcDbSymbolTable
70
0
0
ENDTAB
0
TABLE
2
UCS
5
7
100
AcDbSymbolTable
70
0
0
ENDTAB
0
TABLE
2
APPID
5
9
100
AcDbSymbolTable
70
2
0
APPID
5
12
100
AcDbSymbolTableRecord
100
AcDbRegAppTableRecord
2
ACAD
70
0
0
ENDTAB
0
TABLE
2
DIMSTYLE
5
A
100
AcDbSymbolTable
70
1
0
ENDTAB
0
TABLE
2
BLOCK_RECORD
5
1
100
AcDbSymbolTable
70
1
0
BLOCK_RECORD
5
1F
100
AcDbSymbolTableRecord
100
AcDbBlockTableRecord
2
*MODEL_SPACE
0
BLOCK_RECORD
5
1B
100
AcDbSymbolTableRecord
100
AcDbBlockTableRecord
2
*PAPER_SPACE
0
ENDTAB
0
ENDSEC
0
SECTION
2
BLOCKS
0
BLOCK
5
20
100
AcDbEntity
100
AcDbBlockBegin
2
*MODEL_SPACE
0
ENDBLK
5
21
100
AcDbEntity
100
AcDbBlockEnd
0
BLOCK
5
1C
100
AcDbEntity
100
AcDbBlockBegin
2
*PAPER_SPACE
0
ENDBLK
5
1D
100
AcDbEntity
100
AcDbBlockEnd
0
ENDSEC
0
SECTION
2
ENTITIES
0
CIRCLE
5
100
100
AcDbEntity
8
0
100
AcDbCircle
10
18.999999999999982
20
-48.734547302557587
30
0
40
1.5000000000000013
210
0
220
-0
230
1
0
CIRCLE
5
101
100
AcDbEntity
8
0
100
AcDbCircle
10
-18.999999999999982
20
-48.734547302557587
30
0
40
1.4999999999999991
210
0
220
-0
230
1
0
LWPOLYLINE
5
102
100
AcDbEntity
8
0
100
AcDbPolyline
90
76
70
1
43
0.0
10
-16.499999999999982
20
-43.957365708151571
42
0.30445010244463011
10
-17.431578947367779
20
-42.569238369997734
42
-0.021951709061798639
10
-21.096915466960077
20
-40.876890265527067
42
-0.44759054041538571
10
-21.656176989752147
20
-38.710592842121798
10
-20.701591260274171
20
-37.2819543384268
42
0.9999999925494194
10
-26.521878517416745
20
-33.392962663925083
10
-27.476464275869965
20
-34.821601210984568
42
-0.44759054041537893
10
-29.691882245817833
20
-35.133917070268311
42
-0.14065052522755966
10
-43.804329463860029
20
-14.042105263157874
42
0.32601027894190582
10
-45.232731511594586
20
-13.000000000000005
10
-49.068134925574938
20
-12.999999999999998
42
0.19891236737965476
10
-50.128795097354761
20
-13.439339828220175
10
-71.872710970388965
20
-35.183255701254254
42
-0.41421356237309387
10
-73.994031313948597
20
-35.183255701254254
10
-81.105147802097832
20
-28.072139213105043
42
0.41421356237311163
10
-83.226468145657563
20
-28.072139213105135
10
-89.512614735083545
20
-34.358285802532144
42
-0.54756886249024339
10
-91.981149646348413
20
-33.815205303769261
42
-0.052829919784953425
10
-97.025074096385055
20
-13.788944723618075
42
0.37344432108458719
10
-98.510151761125655
20
-12.499999999999986
10
-105.57580215181885
20
-12.499999999999986
42
0.45337656072051707
10
-107.06278528071772
20
-14.197183098591539
42
0.079455263712755686
10
-97.295602033452582
20
-46.878202023413991
42
0.51655115275121721
10
-89.255642107452587
20
-48.243448798633217
10
-83.226468145656995
20
-42.214274836836651
42
-0.41421356237311469
10
-81.105147802097264
20
-42.214274836836559
10
-42.214274836836978
20
-81.105147802096766
42
-0.41421356237308771
10
-42.214274836836978
20
-83.226468145656412
10
-48.243448798633182
20
-89.25564210745263
42
0.51655115275121022
10
-46.878202023414055
20
-97.295602033452568
42
0.024087518221428753
10
-37.302724513202577
20
-101.35337559199556
42
0.4237969712875882
10
-35.360802385953434
20
-100.41761327142839
42
-0.72205071151096623
10
35.360802385953463
20
-100.41761327142842
42
0.42379697128758376
10
37.302724513202584
20
-101.35337559199561
42
0.024087518221428753
10
46.878202023414246
20
-97.295602033452568
42
0.51655115275119978
10
48.243448798633182
20
-89.255642107452616
10
42.214274836836978
20
-83.226468145656412
42
-0.41421356237308771
10
42.214274836836978
20
-81.105147802096766
10
81.105147802097264
20
-42.214274836836559
42
-0.41421356237311469
10
83.226468145656995
20
-42.214274836836651
10
89.255642107452587
20
-48.24344879863321
42
0.51655115275121255
10
97.295602033452553
20
-46.878202023414062
42
0.07945526371275595
10
107.06278528071772
20
-14.19718309859153
42
0.45337656072051574
10
105.57580215181885
20
-12.499999999999982
10
98.510151761125655
20
-12.499999999999996
42
0.37344432108458919
10
97.025074096385069
20
-13.788944723618101
42
-0.052829919784953314
10
91.981149646348399
20
-33.81520530376924
42
-0.5475688624902415
10
89.512614735083545
20
-34.358285802532137
10
83.226468145657563
20
-28.072139213105132
42
0.41421356237311163
10
81.105147802097832
20
-28.072139213105046
10
73.994031313948597
20
-35.183255701254254
42
-0.4142135623730932
10
71.872710970388965
20
-35.183255701254261
10
50.12879509735474
20
-13.439339828220174
42
0.19891236737965692
10
49.068134925574924
20
-12.999999999999998
10
45.232731511594579
20
-13
42
0.32601027894191459
10
43.804329463860022
20
-14.042105263157898
42
-0.14065052522755944
10
29.69188224581783
20
-35.133917070268275
42
-0.44759054041538099
10
27.476464275869962
20
-34.821601210984568
10
26.521878546391989
20
-33.392962707289598
42
0.99999999999999989
10
20.701591260274171
20
-37.281954338426807
10
21.656176989752147
20
-38.710592842121791
42
-0.44759054041538804
10
21.09691546696007
20
-40.876890265527081
42
-0.021951709061798639
10
17.431578947367768
20
-42.56923836999772
42
0.30445010244462989
10
16.499999999999989
20
-43.957365708151571
10
16.499999999999986
20
-45.73454730255758
42
-0.16227766016837919
10
16.199999999999989
20
-46.634547302557579
42
0.33333333333333487
10
16.199999999999989
20
-50.834547302557596
42
-0.16227766016837897
10
16.499999999999986
20
-51.734547302557594
10
16.499999999999982
20
-70.24213360553027
42
-0.51889886329141166
10
14.4943820224719
20
-71.654348341609875
42
0.17361974419810303
10
-14.494382022471894
20
-71.654348341609875
42
-0.51889886329141199
10
-16.499999999999982
20
-70.24213360553027
10
-16.499999999999982
20
-51.734547302557594
42
-0.16227766016837919
10
-16.199999999999985
20
-50.834547302557596
42
0.33333333333333537
10
-16.199999999999996
20
-46.634547302557571
42
-0.16227766016837783
10
-16.499999999999989
20
-45.73454730255758
0
LWPOLYLINE
5
103
100
AcDbEntity
8
0
100
AcDbPolyline
90
12
70
1
43
0.0
10
-22.224719101123569
20
-75.326672548247785
42
0.040368696141885568
10
-27.851010023212744
20
-79.376255663180316
42
-0.3907297140267772
10
-29.883217056267426
20
-79.294069958935296
10
-44.128795097354683
20
-65.048491917848125
42
-0.19891236737965581
10
-44.568134925574853
20
-63.987831746068302
10
-44.568134925574903
20
-30.023087017035387
42
-0.7340316311409667
10
-41.837616784844194
20
-29.165284530834363
42
0.12435904313644497
10
-22.9661238288353
20
-45.536327874334646
42
-0.3891884931944648
10
-22.249118641366739
20
-47.433306335508298
42
0.26185792612716918
10
-21.799999999999983
20
-50.834547302557588
42
-0.16227766016837974
10
-21.499999999999982
20
-51.734547302557594
10
-21.499999999999964
20
-74.042562144957856
42
-0.26271142598129904
0
CIRCLE
5
104
100
AcDbEntity
8
0
100
AcDbCircle
10
46.669047558312151
20
-16.500000000000007
30
0
40
1.5000000000000036
210
0
220
-0
230
1
0
CIRCLE
5
105
100
AcDbEntity
8
0
100
AcDbCircle
10
-46.669047558312151
20
-16.500000000000004
30
0
40
1.5000000000000036
210
0
220
-0
230
1
0
CIRCLE
5
106
100
AcDbEntity
8
0
100
AcDbCircle
10
-101.50246302430315
20
-17.500000000000007
30
0
40
1.5000000000000036
210
0
220
-0
230
1
0
CIRCLE
5
107
100
AcDbEntity
8
0
100
AcDbCircle
10
-69.225753944017413
20
-47.02260088305087
30
0
40
1.5000000000000036
210
0
220
-0
230
1
0
CIRCLE
5
108
100
AcDbEntity
8
0
100
AcDbCircle
10
-44.70791489270043
20
-92.791176013385339
30
0
40
1.5000000000000036
210
0
220
-0
230
1
0
CIRCLE
5
109
100
AcDbEntity
8
0
100
AcDbCircle
10
92.791176013385297
20
-44.707914892700472
30
0
40
1.5000000000000036
210
0
220
-0
230
1
0
CIRCLE
5
110
100
AcDbEntity
8
0
100
AcDbCircle
10
69.225753944017356
20
-47.022600883050927
30
0
40
1.5000000000000036
210
0
220
-0
230
1
0
CIRCLE
5
111
100
AcDbEntity
8
0
100
AcDbCircle
10
-92.791176013385297
20
-44.707914892700472
30
0
40
1.5000000000000036
210
0
220
-0
230
1
0
CIRCLE
5
112
100
AcDbEntity
8
0
100
AcDbCircle
10
-47.022600883050949
20
-69.225753944017342
30
0
40
1.5000000000000036
210
0
220
-0
230
1
0
CIRCLE
5
113
100
AcDbEntity
8
0
100
AcDbCircle
10
47.022600883050885
20
-69.225753944017399
30
0
40
1.5000000000000036
210
0
220
-0
230
1
0
CIRCLE
5
114
100
AcDbEntity
8
0
100
AcDbCircle
10
44.70791489270043
20
-92.791176013385339
30
0
40
1.5000000000000036
210
0
220
-0
230
1
0
LWPOLYLINE
5
115
100
AcDbEntity
8
0
100
AcDbPolyline
90
6
70
1
43
0.0
10
-68.337177064456171
20
-38.718789607186949
42
0.41421356237309748
10
-68.337177064456185
20
-40.840109950746609
10
-52.128795097354669
20
-57.048491917848125
42
0.66817863791929744
10
-49.568134925574853
20
-55.987831746068295
10
-49.56813492557491
20
-23.571067811865412
42
0.66817863791929322
10
-52.128795097354718
20
-22.51040764008561
0
CIRCLE
5
116
100
AcDbEntity
8
0
100
AcDbCircle
10
23.61173490333308
20
-35.337458522858199
30
0
40
1.4999999999999991
210
0
220
-0
230
1
0
CIRCLE
5
117
100
AcDbEntity
8
0
100
AcDbCircle
10
-23.61173490333308
20
-35.337458522858199
30
0
40
1.4999999999999991
210
0
220
-0
230
1
0
LWPOLYLINE
5
118
100
AcDbEntity
8
0
100
AcDbPolyline
90
6
70
1
43
0.0
10
49.568134925574853
20
-55.987831746068295
42
0.66817863791929744
10
52.128795097354669
20
-57.048491917848125
10
68.337177064456171
20
-40.840109950746601
42
0.41421356237309809
10
68.337177064456171
20
-38.718789607186949
10
52.128795097354725
20
-22.510407640085607
42
0.66817863791929677
10
49.56813492557491
20
-23.571067811865415
0
LWPOLYLINE
5
119
100
AcDbEntity
8
0
100
AcDbPolyline
90
12
70
1
43
0.0
10
21.499999999999979
20
-74.042562144957856
42
0.26271142598129948
10
22.224719101123522
20
-75.326672548247757
42
-0.040368696141886068
10
27.851010023212766
20
-79.376255663180316
42
0.39072971402676976
10
29.883217056267437
20
-79.294069958935296
10
44.128795097354669
20
-65.048491917848111
42
0.19891236737965803
10
44.568134925574853
20
-63.987831746068295
10
44.568134925574903
20
-30.023087017035387
42
0.73403163114098413
10
41.837616784846574
20
-29.165284530836111
42
-0.12435904313644471
10
22.966123828835279
20
-45.536327874334653
42
0.38918849319446147
10
22.24911864136617
20
-47.433306335508533
42
-0.26185792612716907
10
21.799999999999983
20
-50.834547302557596
42
0.162277660168379
10
21.499999999999986
20
-51.734547302557594
0
ENDSEC
0
SECTION
2
OBJECTS
0
DICTIONARY
5
C
100
AcDbDictionary
3
ACAD_GROUP
350
D
3
ACAD_MLINESTYLE
350
17
0
DICTIONARY
5
D
100
AcDbDictionary
0
DICTIONARY
5
1A
330
C
100
AcDbDictionary
0
DICTIONARY
5
17
100
AcDbDictionary
0
ENDSEC
0
EOF
