0
SECTION
2
HEADER
9
$INSUNITS
70
4
9
$ACADVER
1
AC1014
9
$HANDSEED
5
FFFF
0
ENDSEC
0
SECTION
2
TABLES
0
TABLE
2
VPORT
5
8
100
AcDbSymbolTable
0
ENDTAB
0
TABLE
2
LTYPE
5
5
100
AcDbSymbolTable
0
LTYPE
5
14
100
AcDbSymbolTableRecord
100
AcDbLinetypeTableRecord
2
BYBLOCK
70
0
0
LTYPE
5
15
100
AcDbSymbolTableRecord
100
AcDbLinetypeTableRecord
2
BYLAYER
70
0
0
LTYPE
5
16
100
AcDbSymbolTableRecord
100
AcDbLinetypeTableRecord
2
DASHED
70
0
3
Dashed __ __ __ __ __ __ __ __ __ __ __ __ __ _
72
65
73
2
40
0.75
49
0.5
74
0
49
-0.25
74
0
0
ENDTAB
0
TABLE
2
LAYER
5
2
100
AcDbSymbolTable
70
3
0
LAYER
5
50
100
AcDbSymbolTableRecord
100
AcDbLayerTableRecord
2
1
70
0
62
7
6
DASHED
0
LAYER
5
51
100
AcDbSymbolTableRecord
100
AcDbLayerTableRecord
2
0
70
0
62
7
6
CONTINUOUS
0
ENDTAB
0
TABLE
2
STYLE
5
3
100
AcDbSymbolTable
70
1
0
STYLE
5
11
100
AcDbSymbolTableRecord
100
AcDbTextStyleTableRecord
2
STANDARD
70
0
0
ENDTAB
0
TABLE
2
VIEW
5
6
100
AcDbSymbolTable
70
0
0
ENDTAB
0
TABLE
2
UCS
5
7
100
AcDbSymbolTable
70
0
0
ENDTAB
0
TABLE
2
APPID
5
9
100
AcDbSymbolTable
70
2
0
APPID
5
12
100
AcDbSymbolTableRecord
100
AcDbRegAppTableRecord
2
ACAD
70
0
0
ENDTAB
0
TABLE
2
DIMSTYLE
5
A
100
AcDbSymbolTable
70
1
0
ENDTAB
0
TABLE
2
BLOCK_RECORD
5
1
100
AcDbSymbolTable
70
1
0
BLOCK_RECORD
5
1F
100
AcDbSymbolTableRecord
100
AcDbBlockTableRecord
2
*MODEL_SPACE
0
BLOCK_RECORD
5
1B
100
AcDbSymbolTableRecord
100
AcDbBlockTableRecord
2
*PAPER_SPACE
0
ENDTAB
0
ENDSEC
0
SECTION
2
BLOCKS
0
BLOCK
5
20
100
AcDbEntity
100
AcDbBlockBegin
2
*MODEL_SPACE
0
ENDBLK
5
21
100
AcDbEntity
100
AcDbBlockEnd
0
BLOCK
5
1C
100
AcDbEntity
100
AcDbBlockBegin
2
*PAPER_SPACE
0
ENDBLK
5
1D
100
AcDbEntity
100
AcDbBlockEnd
0
ENDSEC
0
SECTION
2
ENTITIES
0
CIRCLE
5
100
100
AcDbEntity
8
0
100
AcDbCircle
10
46.669047558312151
20
16.500000000000007
30
0
40
1.5000000000000036
210
0
220
-0
230
1
0
CIRCLE
5
101
100
AcDbEntity
8
0
100
AcDbCircle
10
-46.669047558312151
20
16.500000000000007
30
0
40
1.5000000000000036
210
0
220
-0
230
1
0
CIRCLE
5
102
100
AcDbEntity
8
0
100
AcDbCircle
10
-101.50246302430315
20
17.500000000000007
30
0
40
1.5000000000000036
210
0
220
-0
230
1
0
LWPOLYLINE
5
103
100
AcDbEntity
8
0
100
AcDbPolyline
90
60
70
1
43
0.0
10
97.025074096385069
20
13.788944723618101
42
0.37344432108458919
10
98.510151761125655
20
12.500000000000018
10
105.57580215181885
20
12.50000000000002
42
0.45337656072051707
10
107.0627852807177
20
14.197183098591566
42
0.079455263712755686
10
97.295602033452568
20
46.878202023414019
42
0.51655115275121521
10
89.255642107452587
20
48.243448798633217
10
83.226468145656995
20
42.214274836836658
42
-0.41421356237311591
10
81.105147802097264
20
42.214274836836559
10
42.214274836836978
20
81.105147802096766
42
-0.41421356237308771
10
42.214274836836978
20
83.226468145656412
10
48.243448798633175
20
89.255642107452644
42
0.51655115275121033
10
46.878202023414069
20
97.295602033452596
42
0.22834489175162803
10
-46.878202023414048
20
97.29560203345261
42
0.51655115275121299
10
-48.243448798633182
20
89.255642107452616
10
-42.214274836836978
20
83.226468145656412
42
-0.41421356237308771
10
-42.214274836836978
20
81.105147802096766
10
-81.105147802097264
20
42.214274836836559
42
-0.41421356237311341
10
-83.226468145656995
20
42.214274836836651
10
-89.255642107452587
20
48.243448798633217
42
0.51655115275121222
10
-97.295602033452553
20
46.878202023414062
42
0.079455263712755769
10
-107.06278528071769
20
14.197183098591628
42
0.45337656072052945
10
-105.57580215181885
20
12.500000000000018
10
-98.510151761125655
20
12.500000000000011
42
0.37344432108458875
10
-97.025074096385026
20
13.788944723618119
42
-0.052829919784953314
10
-91.981149646348385
20
33.815205303769261
42
-0.54756886249023662
10
-89.512614735083545
20
34.358285802532137
10
-83.226468145657563
20
28.072139213105132
42
0.41421356237311163
10
-81.105147802097832
20
28.072139213105046
10
-73.994031313948597
20
35.183255701254254
42
-0.4142135623730932
10
-71.872710970388965
20
35.183255701254261
10
-50.128795097354761
20
13.439339828220174
42
0.19891236737965456
10
-49.068134925574938
20
12.999999999999998
10
-45.232731511594565
20
13
42
0.32601027894191842
10
-43.804329463860007
20
14.042105263157907
42
-0.11832225154232584
10
-32.659503808736488
20
32.393777349471407
42
-0.19997416973705717
10
-31.59451998888639
20
32.837458522858206
10
-26.611734903333083
20
32.837458522858213
42
-0.16227766016838455
10
-25.711734903333085
20
32.537458522858209
42
0.33333333333333398
10
-21.511734903333082
20
32.537458522858202
42
-0.16227766016838693
10
-20.611734903333073
20
32.837458522858206
10
-3.0000000000000155
20
32.837458522858206
42
-0.16227766016838283
10
-2.1000000000000156
20
32.537458522858209
42
0.33333333333333381
10
2.0999999999999854
20
32.537458522858202
42
-0.16227766016838216
10
2.9999999999999871
20
32.837458522858199
10
20.61173490333308
20
32.837458522858199
42
-0.16227766016838363
10
21.511734903333078
20
32.537458522858202
42
0.33333333333333376
10
25.711734903333081
20
32.537458522858202
42
-0.16227766016838432
10
26.611734903333083
20
32.837458522858199
10
31.594519988886397
20
32.837458522858199
42
-0.19997416973705961
10
32.65950380873651
20
32.393777349471407
42
-0.11832225154232584
10
43.804329463860014
20
14.042105263157893
42
0.32601027894190782
10
45.232731511594572
20
13.000000000000005
10
49.068134925574924
20
12.999999999999998
42
0.19891236737965692
10
50.12879509735474
20
13.439339828220174
10
71.872710970388965
20
35.183255701254254
42
-0.4142135623730932
10
73.994031313948597
20
35.183255701254254
10
81.105147802097832
20
28.072139213105043
42
0.4142135623731098
10
83.226468145657563
20
28.072139213105132
10
89.512614735083517
20
34.358285802532151
42
-0.54756886249024195
10
91.981149646348427
20
33.815205303769254
42
-0.052829919784953314
0
LWPOLYLINE
5
104
100
AcDbEntity
8
0
100
AcDbPolyline
90
6
70
1
43
0.0
10
-68.337177064456171
20
40.840109950746601
10
-52.128795097354669
20
57.048491917848125
42
-0.66817863791929744
10
-49.568134925574853
20
55.987831746068295
10
-49.56813492557491
20
23.571067811865415
42
-0.66817863791929677
10
-52.128795097354725
20
22.510407640085607
10
-68.337177064456171
20
38.718789607186949
42
-0.41421356237309809
0
LWPOLYLINE
5
105
100
AcDbEntity
8
0
100
AcDbPolyline
90
6
70
1
43
0.0
10
68.337177064456171
20
38.718789607186949
42
0.41421356237309809
10
68.337177064456171
20
40.840109950746609
10
52.128795097354669
20
57.048491917848125
42
0.66817863791929744
10
49.568134925574853
20
55.987831746068295
10
49.56813492557491
20
23.571067811865415
42
0.66817863791929677
10
52.128795097354725
20
22.510407640085607
0
CIRCLE
5
106
100
AcDbEntity
8
0
100
AcDbCircle
10
-1.1102230246251565e-14
20
35.337458522858199
30
0
40
1.5000000000000002
210
0
220
-0
230
1
0
CIRCLE
5
107
100
AcDbEntity
8
0
100
AcDbCircle
10
-23.61173490333308
20
35.337458522858199
30
0
40
1.4999999999999991
210
0
220
-0
230
1
0
CIRCLE
5
108
100
AcDbEntity
8
0
100
AcDbCircle
10
23.61173490333308
20
35.337458522858199
30
0
40
1.4999999999999991
210
0
220
-0
230
1
0
CIRCLE
5
109
100
AcDbEntity
8
0
100
AcDbCircle
10
20.928063934011444
20
100.8514558148465
30
0
40
1.4999999999999947
210
0
220
-0
230
1
0
CIRCLE
5
110
100
AcDbEntity
8
0
100
AcDbCircle
10
-20.928063934012012
20
100.85145581484639
30
0
40
1.4999999999999991
210
0
220
-0
230
1
0
CIRCLE
5
111
100
AcDbEntity
8
0
100
AcDbCircle
10
69.225753944017413
20
47.022600883050913
30
0
40
1.5000000000000036
210
0
220
-0
230
1
0
CIRCLE
5
112
100
AcDbEntity
8
0
100
AcDbCircle
10
47.02260088305092
20
69.225753944017384
30
0
40
1.5000000000000036
210
0
220
-0
230
1
0
CIRCLE
5
113
100
AcDbEntity
8
0
100
AcDbCircle
10
-92.791176013385297
20
44.707914892700472
30
0
40
1.5000000000000036
210
0
220
-0
230
1
0
CIRCLE
5
114
100
AcDbEntity
8
0
100
AcDbCircle
10
44.70791489270043
20
92.791176013385339
30
0
40
1.5000000000000036
210
0
220
-0
230
1
0
CIRCLE
5
115
100
AcDbEntity
8
0
100
AcDbCircle
10
-47.022600883050877
20
69.225753944017413
30
0
40
1.5000000000000036
210
0
220
-0
230
1
0
CIRCLE
5
116
100
AcDbEntity
8
0
100
AcDbCircle
10
92.791176013385297
20
44.707914892700472
30
0
40
1.5000000000000036
210
0
220
-0
230
1
0
CIRCLE
5
117
100
AcDbEntity
8
0
100
AcDbCircle
10
-44.70791489270043
20
92.791176013385339
30
0
40
1.5000000000000036
210
0
220
-0
230
1
0
CIRCLE
5
118
100
AcDbEntity
8
0
100
AcDbCircle
10
-69.225753944017342
20
47.022600883050941
30
0
40
1.5000000000000036
210
0
220
-0
230
1
0
LWPOLYLINE
5
119
100
AcDbEntity
8
0
100
AcDbPolyline
90
32
70
1
43
0.0
10
44.568134925574853
20
63.987831746068295
42
0.19891236737965692
10
44.128795097354676
20
65.048491917848111
10
28.072139213106027
20
81.105147802096724
42
-0.41421356237310358
10
28.072139213106006
20
83.226468145656369
10
34.358285802532976
20
89.512614735083361
42
0.5475688624902052
10
33.815205303770014
20
91.981149646348086
42
0.17799242381003266
10
-33.815205303770036
20
91.981149646348086
42
0.54756886249019954
10
-34.358285802532997
20
89.512614735083361
10
-28.072139213106002
20
83.226468145656412
42
-0.41421356237310608
10
-28.072139213106002
20
81.105147802096724
10
-44.128795097354669
20
65.048491917848111
42
0.19891236737965803
10
-44.568134925574853
20
63.987831746068295
10
-44.568134925574903
20
30.023087017035387
42
0.7340316311409647
10
-41.837616784844187
20
29.165284530834366
42
-0.053938260375752715
10
-34.631657584308854
20
37.438593629611482
42
-0.18881465590786672
10
-33.61307942006448
20
37.837458522858199
10
-26.611734903333083
20
37.837458522858199
42
0.16227766016838072
10
-25.711734903333088
20
38.137458522858196
42
-0.33333333333333398
10
-21.511734903333082
20
38.137458522858203
42
0.16227766016838563
10
-20.61173490333308
20
37.837458522858199
10
-3.0000000000000111
20
37.837458522858199
42
0.1622776601683833
10
-2.1000000000000094
20
38.137458522858196
42
-0.33333333333333381
10
2.0999999999999903
20
38.137458522858196
42
0.16227766016838177
10
2.9999999999999893
20
37.837458522858199
10
20.61173490333308
20
37.837458522858199
42
0.16227766016838427
10
21.511734903333078
20
38.137458522858203
42
-0.33333333333333376
10
25.711734903333085
20
38.137458522858203
42
0.16227766016838363
10
26.611734903333083
20
37.837458522858199
10
33.613079420064466
20
37.837458522858199
42
-0.18881465590786456
10
34.631657584308819
20
37.438593629611518
42
-0.053938260375752937
10
41.837616784844172
20
29.165284530834363
42
0.73403163114096892
10
44.568134925574903
20
30.023087017035387
0
ENDSEC
0
SECTION
2
OBJECTS
0
DICTIONARY
5
C
100
AcDbDictionary
3
ACAD_GROUP
350
D
3
ACAD_MLINESTYLE
350
17
0
DICTIONARY
5
D
100
AcDbDictionary
0
DICTIONARY
5
1A
330
C
100
AcDbDictionary
0
DICTIONARY
5
17
100
AcDbDictionary
0
ENDSEC
0
EOF
