0
SECTION
2
HEADER
9
$INSUNITS
70
4
9
$ACADVER
1
AC1014
9
$HANDSEED
5
FFFF
0
ENDSEC
0
SECTION
2
TABLES
0
TABLE
2
VPORT
5
8
100
AcDbSymbolTable
0
ENDTAB
0
TABLE
2
LTYPE
5
5
100
AcDbSymbolTable
0
LTYPE
5
14
100
AcDbSymbolTableRecord
100
AcDbLinetypeTableRecord
2
BYBLOCK
70
0
0
LTYPE
5
15
100
AcDbSymbolTableRecord
100
AcDbLinetypeTableRecord
2
BYLAYER
70
0
0
LTYPE
5
16
100
AcDbSymbolTableRecord
100
AcDbLinetypeTableRecord
2
DASHED
70
0
3
Dashed __ __ __ __ __ __ __ __ __ __ __ __ __ _
72
65
73
2
40
0.75
49
0.5
74
0
49
-0.25
74
0
0
ENDTAB
0
TABLE
2
LAYER
5
2
100
AcDbSymbolTable
70
3
0
LAYER
5
50
100
AcDbSymbolTableRecord
100
AcDbLayerTableRecord
2
1
70
0
62
7
6
DASHED
0
LAYER
5
51
100
AcDbSymbolTableRecord
100
AcDbLayerTableRecord
2
0
70
0
62
7
6
CONTINUOUS
0
ENDTAB
0
TABLE
2
STYLE
5
3
100
AcDbSymbolTable
70
1
0
STYLE
5
11
100
AcDbSymbolTableRecord
100
AcDbTextStyleTableRecord
2
STANDARD
70
0
0
ENDTAB
0
TABLE
2
VIEW
5
6
100
AcDbSymbolTable
70
0
0
ENDTAB
0
TABLE
2
UCS
5
7
100
AcDbSymbolTable
70
0
0
ENDTAB
0
TABLE
2
APPID
5
9
100
AcDbSymbolTable
70
2
0
APPID
5
12
100
AcDbSymbolTableRecord
100
AcDbRegAppTableRecord
2
ACAD
70
0
0
ENDTAB
0
TABLE
2
DIMSTYLE
5
A
100
AcDbSymbolTable
70
1
0
ENDTAB
0
TABLE
2
BLOCK_RECORD
5
1
100
AcDbSymbolTable
70
1
0
BLOCK_RECORD
5
1F
100
AcDbSymbolTableRecord
100
AcDbBlockTableRecord
2
*MODEL_SPACE
0
BLOCK_RECORD
5
1B
100
AcDbSymbolTableRecord
100
AcDbBlockTableRecord
2
*PAPER_SPACE
0
ENDTAB
0
ENDSEC
0
SECTION
2
BLOCKS
0
BLOCK
5
20
100
AcDbEntity
100
AcDbBlockBegin
2
*MODEL_SPACE
0
ENDBLK
5
21
100
AcDbEntity
100
AcDbBlockEnd
0
BLOCK
5
1C
100
AcDbEntity
100
AcDbBlockBegin
2
*PAPER_SPACE
0
ENDBLK
5
1D
100
AcDbEntity
100
AcDbBlockEnd
0
ENDSEC
0
SECTION
2
ENTITIES
0
LWPOLYLINE
5
100
100
AcDbEntity
8
0
100
AcDbPolyline
90
88
70
1
43
0.0
10
-7.4999999999999991
20
-54.30000000000004
42
0.4142135623730927
10
-6.0000000000000018
20
-55.800000000000054
10
6
20
-55.800000000000054
42
0.41421356237309137
10
7.5000000000000018
20
-54.300000000000054
10
7.5000000000000355
20
-51.519802018253188
42
-0.36441987853416424
10
8.7418738049713696
20
-50.04217863340844
42
0.13937224694140074
10
33.758165904516524
20
-37.960851344024711
42
0.16994274720961955
10
34.239596198197802
20
-37.094609476099933
42
-0.3174662181548723
10
37.09460947609994
20
-34.239596198197816
42
0.16994274720962355
10
37.960851344024732
20
-33.758165904516531
42
0.045062052260768405
10
43.394591715479663
20
-26.411160706164157
42
0.16994274720961114
10
43.601250984014527
20
-25.441912519089087
42
-0.8134592516485859
10
50.081295375079257
20
-23.210696305614889
42
0.13859212933188056
10
50.673376860812169
20
-23.772035903643904
10
62.818283609531207
20
-30.146174680639444
42
0.51590587999432391
10
64.998758751602949
20
-29.040595603137227
42
-1.4060424357094785
10
70.853681153940073
20
-32.113495930263042
42
0.51590587999442072
10
71.182458470017281
20
-34.53603229081984
10
72.473462484884806
20
-35.213603467172589
42
0.32826266005141752
10
74.231207414730278
20
-34.946079600472594
10
78.302730277564592
20
-30.874556737638294
42
0.47502724644816385
10
78.06700494298228
20
-28.561106673507059
42
-1.0580082187628024
10
82.233279109894085
20
-22.949806650435505
10
88.961854788745597
20
-28.560265136500536
42
0.086707030764692883
10
89.409435808093434
20
-28.817751093000254
10
91.755604760864472
20
-29.671686756368032
42
0.42947897250909517
10
93.702862462524052
20
-28.701455822471786
42
0.14971845205536599
10
93.702862462524067
20
28.701455822471825
42
0.4294789725090879
10
91.755604760864472
20
29.671686756368029
10
89.409435808093434
20
28.817751093000254
42
0.086707030764693382
10
88.961854788745597
20
28.560265136500533
10
82.233279109894085
20
22.949806650435498
42
-1.0580082187627995
10
78.067004942982265
20
28.561106673507059
42
0.47502724644816591
10
78.302730277564564
20
30.874556737638276
10
74.231207414730278
20
34.946079600472601
42
0.32826266005141697
10
72.473462484884806
20
35.213603467172589
10
71.182458470017295
20
34.53603229081984
42
0.51590587999442417
10
70.853681153940073
20
32.113495930263042
42
-1.4060424357094774
10
64.998758751602935
20
29.040595603137227
42
0.51590587999432358
10
62.818283609531207
20
30.146174680639444
10
50.673376860812155
20
23.772035903643896
42
0.13859212933188494
10
50.081295375079236
20
23.210696305614881
42
-0.81345925164858368
10
43.601250984014534
20
25.44191251908908
42
0.16994274720963243
10
43.394591715479642
20
26.411160706164193
42
0.045062052260768558
10
37.960851344024732
20
33.758165904516531
42
0.16994274720962804
10
37.094609476099947
20
34.239596198197816
42
-0.31746621815487291
10
34.239596198197809
20
37.094609476099933
42
0.16994274720961886
10
33.758165904516531
20
37.960851344024704
42
0.035473611865335451
10
28.053033460198332
20
42.351709690176627
42
-0.41982531103483006
10
27.646895263529053
20
44.454349419235264
10
38.226711404189558
20
59.781859246219121
10
28.24178054375966
20
70.761311474968494
42
-0.022781935996411408
10
28.038265101404718
20
71.006674890586538
10
22.845048437808519
20
77.882395350454104
42
-0.34865707847881611
10
22.949806650435495
20
82.233279109894099
10
28.560265136500522
20
88.961854788745626
42
0.086707030764692883
10
28.81775109300024
20
89.409435808093448
10
29.671686756368018
20
91.755604760864486
42
0.42947897250909373
10
28.701455822471754
20
93.702862462524038
42
0.14971845205536613
10
-28.70145582247185
20
93.702862462524081
42
0.4294789725090879
10
-29.671686756368057
20
91.755604760864486
10
-28.817751093000275
20
89.409435808093448
42
0.086707030764692883
10
-28.560265136500558
20
88.961854788745626
10
-22.949806666291686
20
82.233279096672817
42
-0.34865707705318477
10
-22.845048456611412
20
77.882395364655906
10
-28.038265101404725
20
71.006674890586538
42
-0.022781935996411741
10
-28.241780543759663
20
70.761311474968494
10
-38.226711404189558
20
59.781859246219121
10
-27.646895263529036
20
44.454349419235264
42
-0.41982531103483633
10
-28.053033460198339
20
42.351709690176591
42
0.035473611865335646
10
-33.758165904516524
20
37.960851344024711
42
0.16994274720961955
10
-34.239596198197802
20
37.094609476099933
42
-0.3174662181548723
10
-37.09460947609994
20
34.239596198197816
42
0.16994274720962355
10
-37.960851344024732
20
33.758165904516531
42
0.04506205226076887
10
-43.394591715479663
20
26.411160706164157
42
0.16994274720961172
10
-43.601250984014534
20
25.441912519089087
42
-0.3174662181548451
10
-45.495058910076409
20
21.876005457319781
42
0.16994274720965305
10
-46.182347225301335
20
21.162013249256539
42
0.21820479556031647
10
-46.182347225301321
20
-21.16201324925656
42
0.1699427472096422
10
-45.495058910076409
20
-21.876005457319785
42
-0.3174662181548446
10
-43.601250984014534
20
-25.441912519089076
42
0.16994274720963007
10
-43.394591715479649
20
-26.411160706164189
42
0.045062052260768252
10
-37.960851344024732
20
-33.758165904516517
42
0.16994274720962371
10
-37.094609476099947
20
-34.239596198197823
42
-0.31746621815487219
10
-34.239596198197809
20
-37.094609476099933
42
0.16994274720962346
10
-33.758165904516503
20
-37.960851344024732
42
0.13937224694140068
10
-8.7418738049713181
20
-50.042178633408447
42
-0.3644198785341643
10
-7.4999999999999991
20
-51.519802018253181
0
LWPOLYLINE
5
101
100
AcDbEntity
8
0
100
AcDbPolyline
90
28
70
1
43
0.0
10
-12.5
20
-55.563387225762355
42
0.34363407576529481
10
-13.633507853403131
20
-54.108848293150785
42
-0.071989188061931872
10
-28.414924644466588
20
-48.023244970006942
42
0.39389555090617817
10
-30.413242503642191
20
-48.462095295340504
10
-42.077563580065139
20
-65.360781770321722
42
0.36207087285576345
10
-41.903747953004462
20
-67.273539062198282
10
-28.072139213106016
20
-81.105147802096724
42
-0.41421356237310542
10
-28.072139213106002
20
-83.226468145656384
10
-30.577556564899531
20
-85.731885497449923
42
0.41421356237309503
10
-30.577556564899531
20
-87.853205841009569
10
-29.313178070285552
20
-89.117584335623704
42
0.43770803898386357
10
-27.110931422131799
20
-89.02995053397018
42
-0.46161516519348134
10
27.110931422131955
20
-89.029950533970037
42
0.43770803898386407
10
29.313178070285552
20
-89.117584335623704
10
30.577556564899538
20
-87.853205841009569
42
0.41421356237309442
10
30.577556564899531
20
-85.731885497449923
10
28.072139213106002
20
-83.226468145656412
42
-0.41421356237310547
10
28.072139213106002
20
-81.105147802096724
10
41.903747953004469
20
-67.273539062198282
42
0.36207087285576228
10
42.077563580065139
20
-65.360781770321722
10
30.413242503642191
20
-48.462095295340504
42
0.39389555090617406
10
28.414924644477818
20
-48.023244970025864
42
-0.071989188061956311
10
13.633507853403284
20
-54.108848293173402
42
0.34363407576532135
10
12.499999999999998
20
-55.563387225785021
10
12.499999999999854
20
-59.30000000000004
42
-0.41421356237309503
10
10.99999999999984
20
-60.800000000000054
10
-10.999999999999988
20
-60.800000000000054
42
-0.41421356237309503
10
-12.5
20
-59.30000000000004
0
CIRCLE
5
102
100
AcDbEntity
8
0
100
AcDbCircle
10
-101.50246302430315
20
17.500000000000007
30
0
40
1.5000000000000036
210
0
220
-0
230
1
0
CIRCLE
5
103
100
AcDbEntity
8
0
100
AcDbCircle
10
-101.50246302430315
20
-17.500000000000007
30
0
40
1.5000000000000036
210
0
220
-0
230
1
0
CIRCLE
5
104
100
AcDbEntity
8
0
100
AcDbCircle
10
68.460002980940047
20
29.56000717875007
30
0
40
1.6000000000000014
210
0
220
-0
230
1
0
CIRCLE
5
105
100
AcDbEntity
8
0
100
AcDbCircle
10
68.460002980940047
20
-29.56000717875007
30
0
40
1.6000000000000014
210
0
220
-0
230
1
0
CIRCLE
5
106
100
AcDbEntity
8
0
100
AcDbCircle
10
-38.240335658691464
20
64.968971987539049
30
0
40
1.6000000000000014
210
0
220
-0
230
1
0
CIRCLE
5
107
100
AcDbEntity
8
0
100
AcDbCircle
10
-30.831146921616561
20
73.116132436575597
30
0
40
1.6000000000000014
210
0
220
-0
230
1
0
CIRCLE
5
108
100
AcDbEntity
8
0
100
AcDbCircle
10
30.831146921616561
20
73.116132436575597
30
0
40
1.6000000000000014
210
0
220
-0
230
1
0
CIRCLE
5
109
100
AcDbEntity
8
0
100
AcDbCircle
10
38.24033565868752
20
64.968971987539092
30
0
40
1.6000000000000014
210
0
220
-0
230
1
0
CIRCLE
5
110
100
AcDbEntity
8
0
100
AcDbCircle
10
-79.991852898444989
20
-25.637930272383898
30
0
40
1.5000000000000036
210
0
220
-0
230
1
0
CIRCLE
5
111
100
AcDbEntity
8
0
100
AcDbCircle
10
79.991852896443149
20
-25.637930258020376
30
0
40
1.5000000000000036
210
0
220
-0
230
1
0
CIRCLE
5
112
100
AcDbEntity
8
0
100
AcDbCircle
10
25.637930258020361
20
79.991852896443177
30
0
40
1.5000000000000036
210
0
220
-0
230
1
0
CIRCLE
5
113
100
AcDbEntity
8
0
100
AcDbCircle
10
-79.991852896443149
20
25.637930258020383
30
0
40
1.5000000000000036
210
0
220
-0
230
1
0
CIRCLE
5
114
100
AcDbEntity
8
0
100
AcDbCircle
10
79.991852898444989
20
25.637930272383905
30
0
40
1.5000000000000036
210
0
220
-0
230
1
0
CIRCLE
5
115
100
AcDbEntity
8
0
100
AcDbCircle
10
-25.63793027238393
20
79.991852898445003
30
0
40
1.5000000000000036
210
0
220
-0
230
1
0
CIRCLE
5
116
100
AcDbEntity
8
0
100
AcDbCircle
10
-30.313739515625137
20
-92.113804525348669
30
0
40
1.4999999999999991
210
0
220
-0
230
1
0
CIRCLE
5
117
100
AcDbEntity
8
0
100
AcDbCircle
10
30.31373951362329
20
-92.113804525348684
30
0
40
1.5000000000000036
210
0
220
-0
230
1
0
LWPOLYLINE
5
118
100
AcDbEntity
8
0
100
AcDbPolyline
90
12
70
1
43
0.0
10
47.654805052946202
20
61.52248196225657
10
68.30606798609314
20
40.871219029109717
42
-0.50572628453063762
10
67.942492572378967
20
38.482374818850076
10
49.45104748404033
20
28.777315766610347
42
-0.39389555090617895
10
47.477680979221404
20
29.317397715951671
42
0.044509266337796789
10
41.539534346730555
20
37.257309165542296
42
-0.15544576714749228
10
41.165969378258147
20
38.087832245328876
42
0.34875922444144786
10
38.087832245328954
20
41.165969378258147
42
-0.15544576714761837
10
37.257309165542445
20
41.539534346730406
42
0.014273256652885351
10
34.826442929543873
20
43.597693435263665
42
-0.39389555090618139
10
34.528161833110467
20
45.621771561684703
10
45.359669082325894
20
61.313918910573484
42
-0.46835237420996678
0
LWPOLYLINE
5
119
100
AcDbEntity
8
0
100
AcDbPolyline
90
12
70
1
43
0.0
10
-47.654805052946202
20
-61.522481962256563
10
-68.306067986093126
20
-40.87121902910971
42
-0.50572628453063784
10
-67.942492572378967
20
-38.482374818850076
10
-49.451047484040316
20
-28.777315766610343
42
-0.39389555090617973
10
-47.477680979221411
20
-29.317397715951682
42
0.044509266337796789
10
-41.539534346730505
20
-37.257309165542331
42
-0.15544576714747704
10
-41.165969378258147
20
-38.087832245328883
42
0.34875922444144791
10
-38.087832245328954
20
-41.165969378258147
42
-0.15544576714761826
10
-37.257309165542452
20
-41.539534346730413
42
0.014273256652884378
10
-34.826442929543873
20
-43.597693435263665
42
-0.39389555090618139
10
-34.528161833110467
20
-45.621771561684703
10
-45.359669082325908
20
-61.313918910573477
42
-0.46835237420997233
0
LWPOLYLINE
5
120
100
AcDbEntity
8
0
100
AcDbPolyline
90
22
70
1
43
0.0
10
-74.231207414730278
20
-34.946079600472601
10
-78.302730277564564
20
-30.874556737638269
42
-0.47502724644816591
10
-78.067004942982265
20
-28.561106673507052
42
1.0580082156886002
10
-82.233279096672817
20
-22.949806666291657
10
-88.961854788745597
20
-28.560265136500522
42
-0.086707030764692924
10
-89.409435808093434
20
-28.817751093000243
10
-91.755604760864472
20
-29.671686756368018
42
-0.4294789725090879
10
-93.702862462523939
20
-28.701455822471807
42
-0.14971845205536577
10
-93.702862462524081
20
28.701455822471797
42
-0.42947897250909595
10
-91.755604760864472
20
29.671686756368047
10
-89.409435808093434
20
28.817751093000265
42
-0.086707030764692924
10
-88.961854788745597
20
28.560265136500544
10
-82.233279109894085
20
22.949806650435516
42
1.0580082187628024
10
-78.06700494298228
20
28.561106673507055
42
-0.47502724644816385
10
-78.302730277564592
20
30.874556737638304
10
-74.231207414730278
20
34.946079600472601
42
-0.32826266005141752
10
-72.473462484884806
20
35.213603467172589
10
-51.774663344259153
20
24.350035638344284
42
-0.39389555090617878
10
-51.09814213105976
20
22.419185327616702
42
0.20972474245745237
10
-51.098142131059774
20
-22.419185327616681
42
-0.3938955509061845
10
-51.774663344259153
20
-24.350035638344281
10
-72.473462484884806
20
-35.213603467172589
42
-0.32826266005141697
0
LWPOLYLINE
5
121
100
AcDbEntity
8
0
100
AcDbPolyline
90
12
70
1
43
0.0
10
-68.30606798609314
20
40.871219029109717
10
-47.654805052946202
20
61.52248196225657
42
-0.46835237420996678
10
-45.359669082325908
20
61.313918910573484
10
-34.528161833110467
20
45.621771561684703
42
-0.39389555090617784
10
-34.826442929543859
20
43.597693435263679
42
0.014273256652885351
10
-37.257309165542438
20
41.539534346730413
42
-0.15544576714762792
10
-38.087832245328954
20
41.165969378258154
42
0.34875922444144802
10
-41.165969378258147
20
38.087832245328876
42
-0.1554457671474809
10
-41.53953434673052
20
37.257309165542345
42
0.044509266337796789
10
-47.477680979221404
20
29.317397715951689
42
-0.3938955509061815
10
-49.451047484040316
20
28.777315766610347
10
-67.942492572378967
20
38.482374818850076
42
-0.50572628453063762
0
LWPOLYLINE
5
122
100
AcDbEntity
8
0
100
AcDbPolyline
90
12
70
1
43
0.0
10
45.359669082325908
20
-61.313918910573484
42
0.46835237420996678
10
47.654805052946202
20
-61.52248196225657
10
68.30606798609314
20
-40.871219029109717
42
0.50572628453063762
10
67.942492572378967
20
-38.482374818850076
10
49.451047484040316
20
-28.777315766610347
42
0.3938955509061815
10
47.477680979221432
20
-29.317397715951703
42
-0.044509266337796782
10
41.539534346730505
20
-37.257309165542345
42
0.1554457671474809
10
41.165969378258154
20
-38.087832245328876
42
-0.34875922444144802
10
38.087832245328954
20
-41.165969378258154
42
0.15544576714763864
10
37.257309165542324
20
-41.539534346730548
42
-0.014273256652884347
10
34.826442929543859
20
-43.597693435263679
42
0.39389555090617784
10
34.528161833110467
20
-45.621771561684703
0
CIRCLE
5
123
100
AcDbEntity
8
0
100
AcDbCircle
10
-37.688791437243019
20
37.688791437243033
30
0
40
1.4999999999999991
210
0
220
-0
230
1
0
CIRCLE
5
124
100
AcDbEntity
8
0
100
AcDbCircle
10
-37.688791437243019
20
-37.68879143724304
30
0
40
1.4999999999999991
210
0
220
-0
230
1
0
CIRCLE
5
125
100
AcDbEntity
8
0
100
AcDbCircle
10
37.688791437243019
20
37.688791437243033
30
0
40
1.4999999999999991
210
0
220
-0
230
1
0
CIRCLE
5
126
100
AcDbEntity
8
0
100
AcDbCircle
10
47.073240806216077
20
25
30
0
40
1.6000000000000014
210
0
220
-0
230
1
0
CIRCLE
5
127
100
AcDbEntity
8
0
100
AcDbCircle
10
47.073240806216077
20
-25
30
0
40
1.6000000000000014
210
0
220
-0
230
1
0
CIRCLE
5
128
100
AcDbEntity
8
0
100
AcDbCircle
10
37.688791437243019
20
-37.688791437243033
30
0
40
1.4999999999999991
210
0
220
-0
230
1
0
CIRCLE
5
129
100
AcDbEntity
8
0
100
AcDbCircle
10
-47.073240806216077
20
-25
30
0
40
1.6000000000000014
210
0
220
-0
230
1
0
CIRCLE
5
130
100
AcDbEntity
8
0
100
AcDbCircle
10
-47.073240806216077
20
25
30
0
40
1.6000000000000014
210
0
220
-0
230
1
0
CIRCLE
5
131
100
AcDbEntity
8
0
100
AcDbCircle
10
-87.391413733090033
20
31.807873329298619
30
0
40
1.5000000000000036
210
0
220
-0
230
1
0
CIRCLE
5
132
100
AcDbEntity
8
0
100
AcDbCircle
10
-87.391413733090033
20
-31.807873329272738
30
0
40
1.5000000000000036
210
0
220
-0
230
1
0
CIRCLE
5
133
100
AcDbEntity
8
0
100
AcDbCircle
10
31.807873329289773
20
87.391413733094154
30
0
40
1.4999999999999991
210
0
220
-0
230
1
0
CIRCLE
5
134
100
AcDbEntity
8
0
100
AcDbCircle
10
87.391413733085301
20
-31.807873329285677
30
0
40
1.5000000000000036
210
0
220
-0
230
1
0
CIRCLE
5
135
100
AcDbEntity
8
0
100
AcDbCircle
10
-31.807873329281602
20
87.391413733094154
30
0
40
1.4999999999999991
210
0
220
-0
230
1
0
CIRCLE
5
136
100
AcDbEntity
8
0
100
AcDbCircle
10
87.391413733085301
20
31.807873329285677
30
0
40
1.5000000000000036
210
0
220
-0
230
1
0
CIRCLE
5
137
100
AcDbEntity
8
0
100
AcDbCircle
10
42.200000581145254
20
-74.000000119209346
30
0
40
1.6000000000000014
210
0
220
-0
230
1
0
CIRCLE
5
138
100
AcDbEntity
8
0
100
AcDbCircle
10
-42.200000418854756
20
-73.999975119209324
30
0
40
1.6000000000000014
210
0
220
-0
230
1
0
LWPOLYLINE
5
139
100
AcDbEntity
8
0
100
AcDbPolyline
90
36
70
1
43
0.0
10
29.07059404470461
20
-102.51232125442579
42
0.40564352558777195
10
30.924067571423024
20
-103.47802686966003
42
0.039669125081560404
10
46.878202023414062
20
-97.295602033452568
42
0.51655115275121044
10
48.243448798633182
20
-89.255642107452616
10
42.214274836836978
20
-83.226468145656412
42
-0.41421356237308771
10
42.214274836836978
20
-81.105147802096766
10
81.105147802097264
20
-42.214274836836559
42
-0.41421356237311469
10
83.226468145656995
20
-42.214274836836651
10
89.255642107452587
20
-48.24344879863321
42
0.51655115275121199
10
97.295602033452582
20
-46.878202023414076
42
0.22834489175162845
10
97.295602033452553
20
46.87820202341409
42
0.51655115275121066
10
89.255642107452587
20
48.243448798633217
10
83.226468145656995
20
42.214274836836651
42
-0.41421356237311341
10
81.105147802097264
20
42.214274836836559
10
42.214274836836978
20
81.105147802096766
42
-0.41421356237308771
10
42.214274836836978
20
83.226468145656412
10
48.243448798633175
20
89.25564210745263
42
0.51655115275121055
10
46.878202023414062
20
97.295602033452582
42
0.22834489175162848
10
-46.878202023414026
20
97.295602033452596
42
0.51655115275121344
10
-48.243448798633182
20
89.255642107452616
10
-42.214274836836978
20
83.226468145656412
42
-0.41421356237308771
10
-42.214274836836978
20
81.105147802096766
10
-81.105147802097264
20
42.214274836836559
42
-0.41421356237311341
10
-83.226468145656995
20
42.214274836836651
10
-89.255642107452587
20
48.243448798633196
42
0.51655115275121244
10
-97.295602033452553
20
46.878202023414076
42
0.22834489175162814
10
-97.295602033452553
20
-46.87820202341409
42
0.51655115275121066
10
-89.255642107452587
20
-48.243448798633217
10
-83.226468145656995
20
-42.214274836836651
42
-0.41421356237311469
10
-81.105147802097264
20
-42.214274836836559
10
-42.214274836836978
20
-81.105147802096766
42
-0.41421356237308771
10
-42.214274836836978
20
-83.226468145656412
10
-48.243448798633167
20
-89.25564210745263
42
0.51655115275121144
10
-46.878202023414055
20
-97.295602033452582
42
0.039669125081556712
10
-30.924067571424381
20
-103.47802686965957
42
0.40564352558778333
10
-29.070594044704372
20
-102.5123212544259
42
-0.72228272236690827
0
CIRCLE
5
140
100
AcDbEntity
8
0
100
AcDbCircle
10
92.791176013385297
20
-44.707914892700472
30
0
40
1.5000000000000036
210
0
220
-0
230
1
0
CIRCLE
5
141
100
AcDbEntity
8
0
100
AcDbCircle
10
-92.791176013385297
20
44.707914892700472
30
0
40
1.5000000000000036
210
0
220
-0
230
1
0
CIRCLE
5
142
100
AcDbEntity
8
0
100
AcDbCircle
10
44.70791489270043
20
92.791176013385339
30
0
40
1.5000000000000036
210
0
220
-0
230
1
0
CIRCLE
5
143
100
AcDbEntity
8
0
100
AcDbCircle
10
-69.225753944017356
20
-47.022600883050927
30
0
40
1.5000000000000036
210
0
220
-0
230
1
0
CIRCLE
5
144
100
AcDbEntity
8
0
100
AcDbCircle
10
-47.022600883050885
20
-69.225753944017399
30
0
40
1.4999999999999947
210
0
220
-0
230
1
0
CIRCLE
5
145
100
AcDbEntity
8
0
100
AcDbCircle
10
69.225753944017356
20
47.022600883050927
30
0
40
1.5000000000000036
210
0
220
-0
230
1
0
CIRCLE
5
146
100
AcDbEntity
8
0
100
AcDbCircle
10
-92.791176013385297
20
-44.707914892700472
30
0
40
1.5000000000000036
210
0
220
-0
230
1
0
CIRCLE
5
147
100
AcDbEntity
8
0
100
AcDbCircle
10
92.791176013385297
20
44.707914892700472
30
0
40
1.5000000000000036
210
0
220
-0
230
1
0
CIRCLE
5
148
100
AcDbEntity
8
0
100
AcDbCircle
10
47.022600883050885
20
-69.225753944017399
30
0
40
1.4999999999999947
210
0
220
-0
230
1
0
CIRCLE
5
149
100
AcDbEntity
8
0
100
AcDbCircle
10
-44.70791489270043
20
92.791176013385339
30
0
40
1.5000000000000036
210
0
220
-0
230
1
0
CIRCLE
5
150
100
AcDbEntity
8
0
100
AcDbCircle
10
-47.022600883050885
20
69.225753944017399
30
0
40
1.4999999999999947
210
0
220
-0
230
1
0
CIRCLE
5
151
100
AcDbEntity
8
0
100
AcDbCircle
10
-44.70791489270043
20
-92.791176013385339
30
0
40
1.5000000000000036
210
0
220
-0
230
1
0
CIRCLE
5
152
100
AcDbEntity
8
0
100
AcDbCircle
10
69.225753944017356
20
-47.022600883050927
30
0
40
1.5000000000000036
210
0
220
-0
230
1
0
CIRCLE
5
153
100
AcDbEntity
8
0
100
AcDbCircle
10
44.70791489270043
20
-92.791176013385339
30
0
40
1.5000000000000036
210
0
220
-0
230
1
0
CIRCLE
5
154
100
AcDbEntity
8
0
100
AcDbCircle
10
47.022600883050885
20
69.225753944017399
30
0
40
1.4999999999999947
210
0
220
-0
230
1
0
CIRCLE
5
155
100
AcDbEntity
8
0
100
AcDbCircle
10
-69.225753944017356
20
47.022600883050927
30
0
40
1.5000000000000036
210
0
220
-0
230
1
0
ENDSEC
0
SECTION
2
OBJECTS
0
DICTIONARY
5
C
100
AcDbDictionary
3
ACAD_GROUP
350
D
3
ACAD_MLINESTYLE
350
17
0
DICTIONARY
5
D
100
AcDbDictionary
0
DICTIONARY
5
1A
330
C
100
AcDbDictionary
0
DICTIONARY
5
17
100
AcDbDictionary
0
ENDSEC
0
EOF
