<?xml version="1.0" standalone="no"?>
<!DOCTYPE svg PUBLIC "-//W3C//DTD SVG 20010904//EN"
 "http://www.w3.org/TR/2001/REC-SVG-20010904/DTD/svg10.dtd">
<svg version="1.0" xmlns="http://www.w3.org/2000/svg"
 width="1014.000000pt" height="316.000000pt" viewBox="0 0 1014.000000 316.000000"
 preserveAspectRatio="xMidYMid meet">

<g transform="translate(0.000000,316.000000) scale(0.100000,-0.100000)"
fill="#000000" stroke="none">
<path d="M630 1795 l0 -1065 4440 0 4440 0 0 1065 0 1065 -4440 0 -4440 0 0
-1065z m3481 581 c158 -34 253 -126 275 -266 l6 -38 -108 -6 c-60 -4 -130 -9
-156 -11 -45 -5 -47 -5 -53 24 -14 67 -77 111 -155 111 -80 0 -133 -51 -109
-104 15 -31 32 -38 201 -82 239 -61 332 -115 385 -222 39 -80 39 -191 1 -274
-73 -159 -248 -238 -493 -224 -208 12 -312 58 -382 170 -30 47 -63 139 -63
176 l0 27 107 6 c58 4 128 7 154 7 48 0 48 0 60 -42 15 -56 72 -113 128 -128
106 -28 214 38 196 119 -11 49 -52 78 -155 106 -245 68 -316 101 -382 173 -51
57 -68 105 -68 188 0 140 108 253 274 289 81 18 255 18 337 1z m-2266 -21
c214 -56 325 -237 325 -528 0 -190 -42 -308 -141 -402 -112 -107 -191 -124
-576 -125 l-273 0 0 535 0 535 303 0 c240 0 315 -3 362 -15z m795 -85 l0 -100
-150 0 -150 0 0 100 0 100 150 0 150 0 0 -100z m773 -201 c32 -14 32 -13 -24
-138 -24 -52 -44 -85 -51 -82 -7 2 -32 6 -56 9 -116 13 -152 -78 -152 -385 l0
-173 -150 0 -150 0 0 390 0 390 140 0 140 0 0 -62 0 -62 29 46 c35 54 68 79
119 88 43 7 115 -3 155 -21z m1722 10 c191 -36 305 -192 305 -416 l0 -53 -295
0 -295 0 0 -23 c0 -12 8 -38 18 -56 44 -82 169 -95 242 -26 25 23 26 24 145
14 165 -14 168 -14 154 -41 -20 -38 -92 -109 -136 -135 -131 -76 -392 -82
-532 -11 -153 78 -232 271 -187 461 55 232 281 344 581 286z m1134 -14 c51
-26 91 -77 111 -143 18 -57 20 -94 20 -343 l0 -279 -150 0 -150 0 0 235 c0
250 -6 292 -48 314 -29 16 -78 14 -113 -5 -55 -28 -62 -63 -67 -316 l-4 -228
-144 0 -144 0 0 390 0 391 138 -3 137 -3 3 -57 3 -57 39 39 c51 51 112 82 180
89 64 7 150 -3 189 -24z m804 20 c67 -6 127 -33 175 -79 42 -39 78 -106 63
-115 -6 -4 -68 -13 -138 -19 l-127 -12 -24 30 c-60 77 -232 47 -190 -33 13
-25 47 -36 168 -53 203 -28 280 -65 325 -158 24 -48 27 -65 22 -112 -10 -96
-67 -169 -168 -213 -140 -61 -436 -47 -542 26 -42 29 -88 90 -104 139 l-11 31
127 12 c172 15 168 16 186 -19 21 -40 63 -60 130 -60 49 0 60 4 86 29 35 35
36 45 6 75 -16 16 -48 27 -112 39 -149 29 -228 49 -265 67 -140 71 -162 263
-42 358 54 43 111 62 207 72 78 7 111 6 228 -5z m1053 -34 c86 -40 138 -91
179 -175 98 -198 24 -446 -162 -539 -153 -77 -388 -67 -518 23 -104 71 -157
169 -163 301 -9 176 67 312 213 386 116 59 330 61 451 4z m952 19 c18 -7 31
-17 29 -24 -3 -6 -24 -55 -47 -108 -41 -92 -44 -96 -67 -87 -41 15 -98 11
-125 -11 -53 -41 -62 -85 -66 -322 l-4 -218 -149 0 -149 0 0 390 0 390 140 0
140 0 0 -57 0 -56 30 41 c16 23 41 49 56 58 49 33 131 34 212 4z m-6438 -380
l0 -390 -150 0 -150 0 0 390 0 390 150 0 150 0 0 -390z"/>
<path d="M1520 1835 l0 -298 88 6 c188 12 227 62 227 287 0 136 -10 181 -52
231 -39 46 -78 61 -175 67 l-88 5 0 -298z"/>
<path d="M4930 1902 c-42 -21 -80 -75 -80 -113 l0 -29 144 0 144 0 -7 33 c-25
108 -111 155 -201 109z"/>
<path d="M7840 1872 c-21 -11 -44 -36 -58 -63 -20 -38 -23 -56 -20 -136 2 -74
7 -97 24 -119 36 -49 69 -67 120 -66 83 1 133 59 141 166 11 133 -37 220 -127
232 -33 4 -54 0 -80 -14z"/>
</g>
</svg>
