999
% GNUPLOT: dxf file for AutoCad
  0
SECTION
  2
HEADER
  9
$EXTMIN
 10
0.000
 20
0.000
  9
$EXTMAX
 10
120.000
 20
80.000
  9
$LIMMIN
 10
0.000
 20
0.000
  9
$LIMMAX
 10
120.000
 20
80.000
  9
$TEXTSTYLE
  7
STANDARD
  9
$TEXTSIZE
 40
1.456 
  9
$PLINEWID
 40
0.0351
  9
$LTSCALE
  40
1.000 
  9
$COORDS
 70
  1
  9
$CELTYPE
 6
BYLAYER
  9
$CLAYER
  8
0
  9
$CECOLOR
 62
   7
  9
$MENU
  1
acad
  0
ENDSEC
  0
SECTION
  2
TABLES
0
TABLE
  2
LTYPE
 70
    7
0
LTYPE
  2
CONTINUOUS
 70
    64
  3
Solid line
 72
    65
 73
      0
 40
0.0
  0
LTYPE
  2
DASHED
 70
    64
  3
__ __ __ __ __ __ __ __ __ __ __ __ __ __ __
 72
    65
 73
     2
 40
0.75
 49
0.5
 49
-0.25
  0
LTYPE
  2
HIDDEN
 70
    64
  3
_ _ _ _ _ _ _ _ _ _ _ _ _ _ _ _ _ _ _ _ _ _ _
 72
    65
 73
     2
 40
0.375
 49
0.25
 49
-0.125
  0
LTYPE
  2
CENTER
 70
    64
  3
____ _ ____ _ ____ _ ____ _ ____ _ ____ _ ____
 72
    65
 73
     4
 40
2.0
 49
1.25
 49
-0.25
 49
0.25
 49
-0.25
  0
LTYPE
  2
PHANTOM
 70
    64
  3
_____ _ _ _____ _ _ _____ _ _ _____ _ _ ____
 72
    65
 73
     6
 40
2.5
 49
1.25
 49
-0.25
 49
0.25
 49
-0.25
 49
0.25
 49
-0.25
  0
LTYPE
  2
DOT
 70
    64
  3
...............................................
 72
    65
 73
     2
 40
0.25
 49
0.0
 49
-0.25
  0
LTYPE
  2
DASHDOT
 70
    64
  3
__ . __ . __ . __ . __ . __ . __ . __ . __ . __
 72
    65
 73
     4
 40
1.0
 49
0.5
 49
-0.25
 49
0.0
 49
-0.25
  0
ENDTAB
  0
TABLE
  2
LAYER
 70
   7
  0
LAYER
  2
0
 70
   64
62
   7
  6
CONTINUOUS
  0
LAYER
  2
1
 70
   64
62
   1
  6
DASHED
  0
LAYER
  2
2
 70
   64
62
   2
  6
HIDDEN
  0
LAYER
  2
3
 70
   64
62
   3
  6
CENTER
  0
LAYER
  2
4
 70
   64
62
   4
  6
PHANTOM
  0
LAYER
  2
5
 70
   64
62
   5
  6
DOT
  0
LAYER
  2
6
 70
   64
62
   6
  6
DASHDOT
  0
ENDTAB
0
ENDSEC
  0
SECTION
  2
BLOCKS
  0
ENDSEC
  0
SECTION
  2
ENTITIES
  0
POLYLINE
  8
1
 66
   1
  6
DASHED
  0
VERTEX
  8
1
  6
DASHED
 10
9.167 
 20
4.133 
 30
0.000
  0
VERTEX
  8
1
  6
DASHED
  10
114.983
  20
4.133 
  30
0.000
  0
SEQEND
  0
POLYLINE
  8
2
 66
   1
  6
HIDDEN
  0
VERTEX
  8
2
  6
HIDDEN
 10
9.167 
 20
4.133 
 30
0.000
  0
VERTEX
  8
2
  6
HIDDEN
  10
11.167
  20
4.133 
  30
0.000
  0
SEQEND
  0
POLYLINE
  8
2
 66
   1
  6
HIDDEN
  0
VERTEX
  8
2
  6
HIDDEN
 10
114.983
 20
4.133 
 30
0.000
  0
VERTEX
  8
2
  6
HIDDEN
  10
112.983
  20
4.133 
  30
0.000
  0
SEQEND
  0
TEXT
  8
0
 10
3.972 
 20
3.613 
 30
0.000
 40
1.456 
  1
 22
 50
0.000 
  7
STANDARD
 72
2
 11
7.500 
 21
3.613 
 31
0.000
  0
POLYLINE
  8
1
 66
   1
  6
DASHED
  0
VERTEX
  8
1
  6
DASHED
 10
9.167 
 20
13.350
 30
0.000
  0
VERTEX
  8
1
  6
DASHED
  10
114.983
  20
13.350
  30
0.000
  0
SEQEND
  0
POLYLINE
  8
2
 66
   1
  6
HIDDEN
  0
VERTEX
  8
2
  6
HIDDEN
 10
9.167 
 20
13.350
 30
0.000
  0
VERTEX
  8
2
  6
HIDDEN
  10
11.167
  20
13.350
  30
0.000
  0
SEQEND
  0
POLYLINE
  8
2
 66
   1
  6
HIDDEN
  0
VERTEX
  8
2
  6
HIDDEN
 10
114.983
 20
13.350
 30
0.000
  0
VERTEX
  8
2
  6
HIDDEN
  10
112.983
  20
13.350
  30
0.000
  0
SEQEND
  0
TEXT
  8
0
 10
3.972 
 20
12.830
 30
0.000
 40
1.456 
  1
 24
 50
0.000 
  7
STANDARD
 72
2
 11
7.500 
 21
12.830
 31
0.000
  0
POLYLINE
  8
1
 66
   1
  6
DASHED
  0
VERTEX
  8
1
  6
DASHED
 10
9.167 
 20
22.583
 30
0.000
  0
VERTEX
  8
1
  6
DASHED
  10
114.983
  20
22.583
  30
0.000
  0
SEQEND
  0
POLYLINE
  8
2
 66
   1
  6
HIDDEN
  0
VERTEX
  8
2
  6
HIDDEN
 10
9.167 
 20
22.583
 30
0.000
  0
VERTEX
  8
2
  6
HIDDEN
  10
11.167
  20
22.583
  30
0.000
  0
SEQEND
  0
POLYLINE
  8
2
 66
   1
  6
HIDDEN
  0
VERTEX
  8
2
  6
HIDDEN
 10
114.983
 20
22.583
 30
0.000
  0
VERTEX
  8
2
  6
HIDDEN
  10
112.983
  20
22.583
  30
0.000
  0
SEQEND
  0
TEXT
  8
0
 10
3.972 
 20
22.063
 30
0.000
 40
1.456 
  1
 26
 50
0.000 
  7
STANDARD
 72
2
 11
7.500 
 21
22.063
 31
0.000
  0
POLYLINE
  8
1
 66
   1
  6
DASHED
  0
VERTEX
  8
1
  6
DASHED
 10
9.167 
 20
31.800
 30
0.000
  0
VERTEX
  8
1
  6
DASHED
  10
114.983
  20
31.800
  30
0.000
  0
SEQEND
  0
POLYLINE
  8
2
 66
   1
  6
HIDDEN
  0
VERTEX
  8
2
  6
HIDDEN
 10
9.167 
 20
31.800
 30
0.000
  0
VERTEX
  8
2
  6
HIDDEN
  10
11.167
  20
31.800
  30
0.000
  0
SEQEND
  0
POLYLINE
  8
2
 66
   1
  6
HIDDEN
  0
VERTEX
  8
2
  6
HIDDEN
 10
114.983
 20
31.800
 30
0.000
  0
VERTEX
  8
2
  6
HIDDEN
  10
112.983
  20
31.800
  30
0.000
  0
SEQEND
  0
TEXT
  8
0
 10
3.972 
 20
31.280
 30
0.000
 40
1.456 
  1
 28
 50
0.000 
  7
STANDARD
 72
2
 11
7.500 
 21
31.280
 31
0.000
  0
POLYLINE
  8
1
 66
   1
  6
DASHED
  0
VERTEX
  8
1
  6
DASHED
 10
9.167 
 20
41.033
 30
0.000
  0
VERTEX
  8
1
  6
DASHED
  10
114.983
  20
41.033
  30
0.000
  0
SEQEND
  0
POLYLINE
  8
2
 66
   1
  6
HIDDEN
  0
VERTEX
  8
2
  6
HIDDEN
 10
9.167 
 20
41.033
 30
0.000
  0
VERTEX
  8
2
  6
HIDDEN
  10
11.167
  20
41.033
  30
0.000
  0
SEQEND
  0
POLYLINE
  8
2
 66
   1
  6
HIDDEN
  0
VERTEX
  8
2
  6
HIDDEN
 10
114.983
 20
41.033
 30
0.000
  0
VERTEX
  8
2
  6
HIDDEN
  10
112.983
  20
41.033
  30
0.000
  0
SEQEND
  0
TEXT
  8
0
 10
3.972 
 20
40.513
 30
0.000
 40
1.456 
  1
 30
 50
0.000 
  7
STANDARD
 72
2
 11
7.500 
 21
40.513
 31
0.000
  0
POLYLINE
  8
1
 66
   1
  6
DASHED
  0
VERTEX
  8
1
  6
DASHED
 10
9.167 
 20
50.250
 30
0.000
  0
VERTEX
  8
1
  6
DASHED
  10
114.983
  20
50.250
  30
0.000
  0
SEQEND
  0
POLYLINE
  8
2
 66
   1
  6
HIDDEN
  0
VERTEX
  8
2
  6
HIDDEN
 10
9.167 
 20
50.250
 30
0.000
  0
VERTEX
  8
2
  6
HIDDEN
  10
11.167
  20
50.250
  30
0.000
  0
SEQEND
  0
POLYLINE
  8
2
 66
   1
  6
HIDDEN
  0
VERTEX
  8
2
  6
HIDDEN
 10
114.983
 20
50.250
 30
0.000
  0
VERTEX
  8
2
  6
HIDDEN
  10
112.983
  20
50.250
  30
0.000
  0
SEQEND
  0
TEXT
  8
0
 10
3.972 
 20
49.730
 30
0.000
 40
1.456 
  1
 32
 50
0.000 
  7
STANDARD
 72
2
 11
7.500 
 21
49.730
 31
0.000
  0
POLYLINE
  8
1
 66
   1
  6
DASHED
  0
VERTEX
  8
1
  6
DASHED
 10
9.167 
 20
59.467
 30
0.000
  0
VERTEX
  8
1
  6
DASHED
  10
114.983
  20
59.467
  30
0.000
  0
SEQEND
  0
POLYLINE
  8
2
 66
   1
  6
HIDDEN
  0
VERTEX
  8
2
  6
HIDDEN
 10
9.167 
 20
59.467
 30
0.000
  0
VERTEX
  8
2
  6
HIDDEN
  10
11.167
  20
59.467
  30
0.000
  0
SEQEND
  0
POLYLINE
  8
2
 66
   1
  6
HIDDEN
  0
VERTEX
  8
2
  6
HIDDEN
 10
114.983
 20
59.467
 30
0.000
  0
VERTEX
  8
2
  6
HIDDEN
  10
112.983
  20
59.467
  30
0.000
  0
SEQEND
  0
TEXT
  8
0
 10
3.972 
 20
58.947
 30
0.000
 40
1.456 
  1
 34
 50
0.000 
  7
STANDARD
 72
2
 11
7.500 
 21
58.947
 31
0.000
  0
POLYLINE
  8
1
 66
   1
  6
DASHED
  0
VERTEX
  8
1
  6
DASHED
 10
9.167 
 20
68.700
 30
0.000
  0
VERTEX
  8
1
  6
DASHED
  10
114.983
  20
68.700
  30
0.000
  0
SEQEND
  0
POLYLINE
  8
2
 66
   1
  6
HIDDEN
  0
VERTEX
  8
2
  6
HIDDEN
 10
9.167 
 20
68.700
 30
0.000
  0
VERTEX
  8
2
  6
HIDDEN
  10
11.167
  20
68.700
  30
0.000
  0
SEQEND
  0
POLYLINE
  8
2
 66
   1
  6
HIDDEN
  0
VERTEX
  8
2
  6
HIDDEN
 10
114.983
 20
68.700
 30
0.000
  0
VERTEX
  8
2
  6
HIDDEN
  10
112.983
  20
68.700
  30
0.000
  0
SEQEND
  0
TEXT
  8
0
 10
3.972 
 20
68.180
 30
0.000
 40
1.456 
  1
 36
 50
0.000 
  7
STANDARD
 72
2
 11
7.500 
 21
68.180
 31
0.000
  0
POLYLINE
  8
1
 66
   1
  6
DASHED
  0
VERTEX
  8
1
  6
DASHED
 10
9.167 
 20
77.917
 30
0.000
  0
VERTEX
  8
1
  6
DASHED
  10
114.983
  20
77.917
  30
0.000
  0
SEQEND
  0
POLYLINE
  8
2
 66
   1
  6
HIDDEN
  0
VERTEX
  8
2
  6
HIDDEN
 10
9.167 
 20
77.917
 30
0.000
  0
VERTEX
  8
2
  6
HIDDEN
  10
11.167
  20
77.917
  30
0.000
  0
SEQEND
  0
POLYLINE
  8
2
 66
   1
  6
HIDDEN
  0
VERTEX
  8
2
  6
HIDDEN
 10
114.983
 20
77.917
 30
0.000
  0
VERTEX
  8
2
  6
HIDDEN
  10
112.983
  20
77.917
  30
0.000
  0
SEQEND
  0
TEXT
  8
0
 10
3.972 
 20
77.397
 30
0.000
 40
1.456 
  1
 38
 50
0.000 
  7
STANDARD
 72
2
 11
7.500 
 21
77.397
 31
0.000
  0
POLYLINE
  8
1
 66
   1
  6
DASHED
  0
VERTEX
  8
1
  6
DASHED
 10
9.167 
 20
4.133 
 30
0.000
  0
VERTEX
  8
1
  6
DASHED
  10
9.167 
  20
77.917
  30
0.000
  0
SEQEND
  0
POLYLINE
  8
2
 66
   1
  6
HIDDEN
  0
VERTEX
  8
2
  6
HIDDEN
 10
9.167 
 20
4.133 
 30
0.000
  0
VERTEX
  8
2
  6
HIDDEN
  10
9.167 
  20
6.133 
  30
0.000
  0
SEQEND
  0
POLYLINE
  8
2
 66
   1
  6
HIDDEN
  0
VERTEX
  8
2
  6
HIDDEN
 10
9.167 
 20
77.917
 30
0.000
  0
VERTEX
  8
2
  6
HIDDEN
  10
9.167 
  20
75.917
  30
0.000
  0
SEQEND
  0
TEXT
  8
0
 10
7.403 
 20
1.547 
 30
0.000
 40
1.456 
  1
-30
 50
0.000 
  7
STANDARD
 72
1
 11
9.167 
 21
1.547 
 31
0.000
  0
POLYLINE
  8
1
 66
   1
  6
DASHED
  0
VERTEX
  8
1
  6
DASHED
 10
26.800
 20
4.133 
 30
0.000
  0
VERTEX
  8
1
  6
DASHED
  10
26.800
  20
73.417
  30
0.000
  0
SEQEND
  0
POLYLINE
  8
1
 66
   1
  6
DASHED
  0
VERTEX
  8
1
  6
DASHED
 10
26.800
 20
75.917
 30
0.000
  0
VERTEX
  8
1
  6
DASHED
  10
26.800
  20
77.917
  30
0.000
  0
SEQEND
  0
POLYLINE
  8
2
 66
   1
  6
HIDDEN
  0
VERTEX
  8
2
  6
HIDDEN
 10
26.800
 20
4.133 
 30
0.000
  0
VERTEX
  8
2
  6
HIDDEN
  10
26.800
  20
6.133 
  30
0.000
  0
SEQEND
  0
POLYLINE
  8
2
 66
   1
  6
HIDDEN
  0
VERTEX
  8
2
  6
HIDDEN
 10
26.800
 20
77.917
 30
0.000
  0
VERTEX
  8
2
  6
HIDDEN
  10
26.800
  20
75.917
  30
0.000
  0
SEQEND
  0
TEXT
  8
0
 10
25.036
 20
1.547 
 30
0.000
 40
1.456 
  1
-20
 50
0.000 
  7
STANDARD
 72
1
 11
26.800
 21
1.547 
 31
0.000
  0
POLYLINE
  8
1
 66
   1
  6
DASHED
  0
VERTEX
  8
1
  6
DASHED
 10
44.433
 20
4.133 
 30
0.000
  0
VERTEX
  8
1
  6
DASHED
  10
44.433
  20
73.417
  30
0.000
  0
SEQEND
  0
POLYLINE
  8
1
 66
   1
  6
DASHED
  0
VERTEX
  8
1
  6
DASHED
 10
44.433
 20
75.917
 30
0.000
  0
VERTEX
  8
1
  6
DASHED
  10
44.433
  20
77.917
  30
0.000
  0
SEQEND
  0
POLYLINE
  8
2
 66
   1
  6
HIDDEN
  0
VERTEX
  8
2
  6
HIDDEN
 10
44.433
 20
4.133 
 30
0.000
  0
VERTEX
  8
2
  6
HIDDEN
  10
44.433
  20
6.133 
  30
0.000
  0
SEQEND
  0
POLYLINE
  8
2
 66
   1
  6
HIDDEN
  0
VERTEX
  8
2
  6
HIDDEN
 10
44.433
 20
77.917
 30
0.000
  0
VERTEX
  8
2
  6
HIDDEN
  10
44.433
  20
75.917
  30
0.000
  0
SEQEND
  0
TEXT
  8
0
 10
42.669
 20
1.547 
 30
0.000
 40
1.456 
  1
-10
 50
0.000 
  7
STANDARD
 72
1
 11
44.433
 21
1.547 
 31
0.000
  0
POLYLINE
  8
1
 66
   1
  6
DASHED
  0
VERTEX
  8
1
  6
DASHED
 10
62.083
 20
4.133 
 30
0.000
  0
VERTEX
  8
1
  6
DASHED
  10
62.083
  20
73.417
  30
0.000
  0
SEQEND
  0
POLYLINE
  8
1
 66
   1
  6
DASHED
  0
VERTEX
  8
1
  6
DASHED
 10
62.083
 20
75.917
 30
0.000
  0
VERTEX
  8
1
  6
DASHED
  10
62.083
  20
77.917
  30
0.000
  0
SEQEND
  0
POLYLINE
  8
2
 66
   1
  6
HIDDEN
  0
VERTEX
  8
2
  6
HIDDEN
 10
62.083
 20
4.133 
 30
0.000
  0
VERTEX
  8
2
  6
HIDDEN
  10
62.083
  20
6.133 
  30
0.000
  0
SEQEND
  0
POLYLINE
  8
2
 66
   1
  6
HIDDEN
  0
VERTEX
  8
2
  6
HIDDEN
 10
62.083
 20
77.917
 30
0.000
  0
VERTEX
  8
2
  6
HIDDEN
  10
62.083
  20
75.917
  30
0.000
  0
SEQEND
  0
TEXT
  8
0
 10
60.907
 20
1.547 
 30
0.000
 40
1.456 
  1
 0
 50
0.000 
  7
STANDARD
 72
1
 11
62.083
 21
1.547 
 31
0.000
  0
POLYLINE
  8
1
 66
   1
  6
DASHED
  0
VERTEX
  8
1
  6
DASHED
 10
79.717
 20
4.133 
 30
0.000
  0
VERTEX
  8
1
  6
DASHED
  10
79.717
  20
73.417
  30
0.000
  0
SEQEND
  0
POLYLINE
  8
1
 66
   1
  6
DASHED
  0
VERTEX
  8
1
  6
DASHED
 10
79.717
 20
75.917
 30
0.000
  0
VERTEX
  8
1
  6
DASHED
  10
79.717
  20
77.917
  30
0.000
  0
SEQEND
  0
POLYLINE
  8
2
 66
   1
  6
HIDDEN
  0
VERTEX
  8
2
  6
HIDDEN
 10
79.717
 20
4.133 
 30
0.000
  0
VERTEX
  8
2
  6
HIDDEN
  10
79.717
  20
6.133 
  30
0.000
  0
SEQEND
  0
POLYLINE
  8
2
 66
   1
  6
HIDDEN
  0
VERTEX
  8
2
  6
HIDDEN
 10
79.717
 20
77.917
 30
0.000
  0
VERTEX
  8
2
  6
HIDDEN
  10
79.717
  20
75.917
  30
0.000
  0
SEQEND
  0
TEXT
  8
0
 10
77.953
 20
1.547 
 30
0.000
 40
1.456 
  1
 10
 50
0.000 
  7
STANDARD
 72
1
 11
79.717
 21
1.547 
 31
0.000
  0
POLYLINE
  8
1
 66
   1
  6
DASHED
  0
VERTEX
  8
1
  6
DASHED
 10
97.350
 20
4.133 
 30
0.000
  0
VERTEX
  8
1
  6
DASHED
  10
97.350
  20
73.417
  30
0.000
  0
SEQEND
  0
POLYLINE
  8
1
 66
   1
  6
DASHED
  0
VERTEX
  8
1
  6
DASHED
 10
97.350
 20
75.917
 30
0.000
  0
VERTEX
  8
1
  6
DASHED
  10
97.350
  20
77.917
  30
0.000
  0
SEQEND
  0
POLYLINE
  8
2
 66
   1
  6
HIDDEN
  0
VERTEX
  8
2
  6
HIDDEN
 10
97.350
 20
4.133 
 30
0.000
  0
VERTEX
  8
2
  6
HIDDEN
  10
97.350
  20
6.133 
  30
0.000
  0
SEQEND
  0
POLYLINE
  8
2
 66
   1
  6
HIDDEN
  0
VERTEX
  8
2
  6
HIDDEN
 10
97.350
 20
77.917
 30
0.000
  0
VERTEX
  8
2
  6
HIDDEN
  10
97.350
  20
75.917
  30
0.000
  0
SEQEND
  0
TEXT
  8
0
 10
95.586
 20
1.547 
 30
0.000
 40
1.456 
  1
 20
 50
0.000 
  7
STANDARD
 72
1
 11
97.350
 21
1.547 
 31
0.000
  0
POLYLINE
  8
1
 66
   1
  6
DASHED
  0
VERTEX
  8
1
  6
DASHED
 10
114.983
 20
4.133 
 30
0.000
  0
VERTEX
  8
1
  6
DASHED
  10
114.983
  20
77.917
  30
0.000
  0
SEQEND
  0
POLYLINE
  8
2
 66
   1
  6
HIDDEN
  0
VERTEX
  8
2
  6
HIDDEN
 10
114.983
 20
4.133 
 30
0.000
  0
VERTEX
  8
2
  6
HIDDEN
  10
114.983
  20
6.133 
  30
0.000
  0
SEQEND
  0
POLYLINE
  8
2
 66
   1
  6
HIDDEN
  0
VERTEX
  8
2
  6
HIDDEN
 10
114.983
 20
77.917
 30
0.000
  0
VERTEX
  8
2
  6
HIDDEN
  10
114.983
  20
75.917
  30
0.000
  0
SEQEND
  0
TEXT
  8
0
 10
113.219
 20
1.547 
 30
0.000
 40
1.456 
  1
 30
 50
0.000 
  7
STANDARD
 72
1
 11
114.983
 21
1.547 
 31
0.000
  0
TEXT
  8
0
 10
37.813
 20
74.147
 30
0.000
 40
1.456 
  1
sqrt(((x**2)*(489.4603407)/(508.8462638))+489.4603407)
 50
0.000 
  7
STANDARD
 72
2
 11
101.317
 21
74.147
 31
0.000
  0
POLYLINE
  8
0
 66
   1
  6
CONTINUOUS
  0
VERTEX
  8
0
  6
CONTINUOUS
 10
102.983
 20
74.667
 30
0.000
  0
VERTEX
  8
0
  6
CONTINUOUS
  10
111.650
  20
74.667
  30
0.000
  0
SEQEND
  0
POLYLINE
  8
0
 66
   1
  6
CONTINUOUS
  0
VERTEX
  8
0
  6
CONTINUOUS
 10
11.767
 20
67.167
 30
0.000
  0
VERTEX
  8
0
  6
CONTINUOUS
  10
11.767
  20
67.167
  30
0.000
  0
VERTEX
  8
0
  6
CONTINUOUS
  10
12.783
  20
65.117
  30
0.000
  0
VERTEX
  8
0
  6
CONTINUOUS
  10
13.817
  20
63.083
  30
0.000
  0
VERTEX
  8
0
  6
CONTINUOUS
  10
14.833
  20
61.067
  30
0.000
  0
VERTEX
  8
0
  6
CONTINUOUS
  10
15.867
  20
59.067
  30
0.000
  0
VERTEX
  8
0
  6
CONTINUOUS
  10
16.883
  20
57.083
  30
0.000
  0
VERTEX
  8
0
  6
CONTINUOUS
  10
17.900
  20
55.117
  30
0.000
  0
VERTEX
  8
0
  6
CONTINUOUS
  10
18.933
  20
53.183
  30
0.000
  0
VERTEX
  8
0
  6
CONTINUOUS
  10
19.950
  20
51.250
  30
0.000
  0
VERTEX
  8
0
  6
CONTINUOUS
  10
20.983
  20
49.367
  30
0.000
  0
VERTEX
  8
0
  6
CONTINUOUS
  10
22.000
  20
47.483
  30
0.000
  0
VERTEX
  8
0
  6
CONTINUOUS
  10
23.033
  20
45.633
  30
0.000
  0
VERTEX
  8
0
  6
CONTINUOUS
  10
24.050
  20
43.800
  30
0.000
  0
VERTEX
  8
0
  6
CONTINUOUS
  10
25.083
  20
42.000
  30
0.000
  0
VERTEX
  8
0
  6
CONTINUOUS
  10
26.100
  20
40.233
  30
0.000
  0
VERTEX
  8
0
  6
CONTINUOUS
  10
27.133
  20
38.483
  30
0.000
  0
VERTEX
  8
0
  6
CONTINUOUS
  10
28.150
  20
36.767
  30
0.000
  0
VERTEX
  8
0
  6
CONTINUOUS
  10
29.183
  20
35.067
  30
0.000
  0
VERTEX
  8
0
  6
CONTINUOUS
  10
30.200
  20
33.417
  30
0.000
  0
VERTEX
  8
0
  6
CONTINUOUS
  10
31.217
  20
31.783
  30
0.000
  0
VERTEX
  8
0
  6
CONTINUOUS
  10
32.250
  20
30.200
  30
0.000
  0
VERTEX
  8
0
  6
CONTINUOUS
  10
33.267
  20
28.633
  30
0.000
  0
VERTEX
  8
0
  6
CONTINUOUS
  10
34.300
  20
27.117
  30
0.000
  0
VERTEX
  8
0
  6
CONTINUOUS
  10
35.317
  20
25.633
  30
0.000
  0
VERTEX
  8
0
  6
CONTINUOUS
  10
36.350
  20
24.183
  30
0.000
  0
VERTEX
  8
0
  6
CONTINUOUS
  10
37.367
  20
22.767
  30
0.000
  0
VERTEX
  8
0
  6
CONTINUOUS
  10
38.400
  20
21.417
  30
0.000
  0
VERTEX
  8
0
  6
CONTINUOUS
  10
39.417
  20
20.083
  30
0.000
  0
VERTEX
  8
0
  6
CONTINUOUS
  10
40.450
  20
18.817
  30
0.000
  0
VERTEX
  8
0
  6
CONTINUOUS
  10
41.467
  20
17.583
  30
0.000
  0
VERTEX
  8
0
  6
CONTINUOUS
  10
42.500
  20
16.400
  30
0.000
  0
VERTEX
  8
0
  6
CONTINUOUS
  10
43.517
  20
15.267
  30
0.000
  0
VERTEX
  8
0
  6
CONTINUOUS
  10
44.533
  20
14.167
  30
0.000
  0
VERTEX
  8
0
  6
CONTINUOUS
  10
45.567
  20
13.133
  30
0.000
  0
VERTEX
  8
0
  6
CONTINUOUS
  10
46.583
  20
12.167
  30
0.000
  0
VERTEX
  8
0
  6
CONTINUOUS
  10
47.617
  20
11.233
  30
0.000
  0
VERTEX
  8
0
  6
CONTINUOUS
  10
48.633
  20
10.367
  30
0.000
  0
VERTEX
  8
0
  6
CONTINUOUS
  10
49.667
  20
9.550 
  30
0.000
  0
VERTEX
  8
0
  6
CONTINUOUS
  10
50.683
  20
8.800 
  30
0.000
  0
VERTEX
  8
0
  6
CONTINUOUS
  10
51.717
  20
8.117 
  30
0.000
  0
VERTEX
  8
0
  6
CONTINUOUS
  10
52.733
  20
7.483 
  30
0.000
  0
VERTEX
  8
0
  6
CONTINUOUS
  10
53.767
  20
6.917 
  30
0.000
  0
VERTEX
  8
0
  6
CONTINUOUS
  10
54.783
  20
6.400 
  30
0.000
  0
VERTEX
  8
0
  6
CONTINUOUS
  10
55.800
  20
5.967 
  30
0.000
  0
VERTEX
  8
0
  6
CONTINUOUS
  10
56.833
  20
5.583 
  30
0.000
  0
VERTEX
  8
0
  6
CONTINUOUS
  10
57.850
  20
5.283 
  30
0.000
  0
VERTEX
  8
0
  6
CONTINUOUS
  10
58.883
  20
5.033 
  30
0.000
  0
VERTEX
  8
0
  6
CONTINUOUS
  10
59.900
  20
4.850 
  30
0.000
  0
VERTEX
  8
0
  6
CONTINUOUS
  10
60.933
  20
4.750 
  30
0.000
  0
VERTEX
  8
0
  6
CONTINUOUS
  10
61.950
  20
4.700 
  30
0.000
  0
VERTEX
  8
0
  6
CONTINUOUS
  10
62.983
  20
4.733 
  30
0.000
  0
VERTEX
  8
0
  6
CONTINUOUS
  10
64.000
  20
4.817 
  30
0.000
  0
VERTEX
  8
0
  6
CONTINUOUS
  10
65.033
  20
4.983 
  30
0.000
  0
VERTEX
  8
0
  6
CONTINUOUS
  10
66.050
  20
5.217 
  30
0.000
  0
VERTEX
  8
0
  6
CONTINUOUS
  10
67.083
  20
5.500 
  30
0.000
  0
VERTEX
  8
0
  6
CONTINUOUS
  10
68.100
  20
5.867 
  30
0.000
  0
VERTEX
  8
0
  6
CONTINUOUS
  10
69.117
  20
6.300 
  30
0.000
  0
VERTEX
  8
0
  6
CONTINUOUS
  10
70.150
  20
6.783 
  30
0.000
  0
VERTEX
  8
0
  6
CONTINUOUS
  10
71.167
  20
7.333 
  30
0.000
  0
VERTEX
  8
0
  6
CONTINUOUS
  10
72.200
  20
7.950 
  30
0.000
  0
VERTEX
  8
0
  6
CONTINUOUS
  10
73.217
  20
8.633 
  30
0.000
  0
VERTEX
  8
0
  6
CONTINUOUS
  10
74.250
  20
9.367 
  30
0.000
  0
VERTEX
  8
0
  6
CONTINUOUS
  10
75.267
  20
10.167
  30
0.000
  0
VERTEX
  8
0
  6
CONTINUOUS
  10
76.300
  20
11.033
  30
0.000
  0
VERTEX
  8
0
  6
CONTINUOUS
  10
77.317
  20
11.933
  30
0.000
  0
VERTEX
  8
0
  6
CONTINUOUS
  10
78.350
  20
12.900
  30
0.000
  0
VERTEX
  8
0
  6
CONTINUOUS
  10
79.367
  20
13.933
  30
0.000
  0
VERTEX
  8
0
  6
CONTINUOUS
  10
80.400
  20
15.000
  30
0.000
  0
VERTEX
  8
0
  6
CONTINUOUS
  10
81.417
  20
16.117
  30
0.000
  0
VERTEX
  8
0
  6
CONTINUOUS
  10
82.433
  20
17.300
  30
0.000
  0
VERTEX
  8
0
  6
CONTINUOUS
  10
83.467
  20
18.517
  30
0.000
  0
VERTEX
  8
0
  6
CONTINUOUS
  10
84.483
  20
19.783
  30
0.000
  0
VERTEX
  8
0
  6
CONTINUOUS
  10
85.517
  20
21.100
  30
0.000
  0
VERTEX
  8
0
  6
CONTINUOUS
  10
86.533
  20
22.450
  30
0.000
  0
VERTEX
  8
0
  6
CONTINUOUS
  10
87.567
  20
23.850
  30
0.000
  0
VERTEX
  8
0
  6
CONTINUOUS
  10
88.583
  20
25.283
  30
0.000
  0
VERTEX
  8
0
  6
CONTINUOUS
  10
89.617
  20
26.750
  30
0.000
  0
VERTEX
  8
0
  6
CONTINUOUS
  10
90.633
  20
28.267
  30
0.000
  0
VERTEX
  8
0
  6
CONTINUOUS
  10
91.667
  20
29.817
  30
0.000
  0
VERTEX
  8
0
  6
CONTINUOUS
  10
92.683
  20
31.400
  30
0.000
  0
VERTEX
  8
0
  6
CONTINUOUS
  10
93.700
  20
33.017
  30
0.000
  0
VERTEX
  8
0
  6
CONTINUOUS
  10
94.733
  20
34.683
  30
0.000
  0
VERTEX
  8
0
  6
CONTINUOUS
  10
95.750
  20
36.350
  30
0.000
  0
VERTEX
  8
0
  6
CONTINUOUS
  10
96.783
  20
38.067
  30
0.000
  0
VERTEX
  8
0
  6
CONTINUOUS
  10
97.800
  20
39.817
  30
0.000
  0
VERTEX
  8
0
  6
CONTINUOUS
  10
98.833
  20
41.583
  30
0.000
  0
VERTEX
  8
0
  6
CONTINUOUS
  10
99.850
  20
43.383
  30
0.000
  0
VERTEX
  8
0
  6
CONTINUOUS
  10
100.883
  20
45.200
  30
0.000
  0
VERTEX
  8
0
  6
CONTINUOUS
  10
101.900
  20
47.050
  30
0.000
  0
VERTEX
  8
0
  6
CONTINUOUS
  10
102.933
  20
48.917
  30
0.000
  0
VERTEX
  8
0
  6
CONTINUOUS
  10
103.950
  20
50.800
  30
0.000
  0
VERTEX
  8
0
  6
CONTINUOUS
  10
104.983
  20
52.717
  30
0.000
  0
VERTEX
  8
0
  6
CONTINUOUS
  10
106.000
  20
54.667
  30
0.000
  0
VERTEX
  8
0
  6
CONTINUOUS
  10
107.017
  20
56.617
  30
0.000
  0
VERTEX
  8
0
  6
CONTINUOUS
  10
108.050
  20
58.600
  30
0.000
  0
VERTEX
  8
0
  6
CONTINUOUS
  10
109.067
  20
60.583
  30
0.000
  0
VERTEX
  8
0
  6
CONTINUOUS
  10
110.100
  20
62.600
  30
0.000
  0
VERTEX
  8
0
  6
CONTINUOUS
  10
111.117
  20
64.633
  30
0.000
  0
VERTEX
  8
0
  6
CONTINUOUS
  10
112.150
  20
66.683
  30
0.000
  0
VERTEX
  8
0
  6
CONTINUOUS
  10
113.167
  20
68.750
  30
0.000
  0
SEQEND
  0
ENDSEC
  0
EOF
