999
% GNUPLOT: dxf file for AutoCad
  0
SECTION
  2
HEADER
  9
$EXTMIN
 10
0.000
 20
0.000
  9
$EXTMAX
 10
120.000
 20
80.000
  9
$LIMMIN
 10
0.000
 20
0.000
  9
$LIMMAX
 10
120.000
 20
80.000
  9
$TEXTSTYLE
  7
STANDARD
  9
$TEXTSIZE
 40
1.456 
  9
$PLINEWID
 40
0.0351
  9
$LTSCALE
  40
1.000 
  9
$COORDS
 70
  1
  9
$CELTYPE
 6
BYLAYER
  9
$CLAYER
  8
0
  9
$CECOLOR
 62
   7
  9
$MENU
  1
acad
  0
ENDSEC
  0
SECTION
  2
TABLES
0
TABLE
  2
LTYPE
 70
    7
0
LTYPE
  2
CONTINUOUS
 70
    64
  3
Solid line
 72
    65
 73
      0
 40
0.0
  0
LTYPE
  2
DASHED
 70
    64
  3
__ __ __ __ __ __ __ __ __ __ __ __ __ __ __
 72
    65
 73
     2
 40
0.75
 49
0.5
 49
-0.25
  0
LTYPE
  2
HIDDEN
 70
    64
  3
_ _ _ _ _ _ _ _ _ _ _ _ _ _ _ _ _ _ _ _ _ _ _
 72
    65
 73
     2
 40
0.375
 49
0.25
 49
-0.125
  0
LTYPE
  2
CENTER
 70
    64
  3
____ _ ____ _ ____ _ ____ _ ____ _ ____ _ ____
 72
    65
 73
     4
 40
2.0
 49
1.25
 49
-0.25
 49
0.25
 49
-0.25
  0
LTYPE
  2
PHANTOM
 70
    64
  3
_____ _ _ _____ _ _ _____ _ _ _____ _ _ ____
 72
    65
 73
     6
 40
2.5
 49
1.25
 49
-0.25
 49
0.25
 49
-0.25
 49
0.25
 49
-0.25
  0
LTYPE
  2
DOT
 70
    64
  3
...............................................
 72
    65
 73
     2
 40
0.25
 49
0.0
 49
-0.25
  0
LTYPE
  2
DASHDOT
 70
    64
  3
__ . __ . __ . __ . __ . __ . __ . __ . __ . __
 72
    65
 73
     4
 40
1.0
 49
0.5
 49
-0.25
 49
0.0
 49
-0.25
  0
ENDTAB
  0
TABLE
  2
LAYER
 70
   7
  0
LAYER
  2
0
 70
   64
62
   7
  6
CONTINUOUS
  0
LAYER
  2
1
 70
   64
62
   1
  6
DASHED
  0
LAYER
  2
2
 70
   64
62
   2
  6
HIDDEN
  0
LAYER
  2
3
 70
   64
62
   3
  6
CENTER
  0
LAYER
  2
4
 70
   64
62
   4
  6
PHANTOM
  0
LAYER
  2
5
 70
   64
62
   5
  6
DOT
  0
LAYER
  2
6
 70
   64
62
   6
  6
DASHDOT
  0
ENDTAB
0
ENDSEC
  0
SECTION
  2
BLOCKS
  0
ENDSEC
  0
SECTION
  2
ENTITIES
  0
POLYLINE
  8
2
 66
   1
  6
HIDDEN
  0
VERTEX
  8
2
  6
HIDDEN
 10
9.167 
 20
14.567
 30
0.000
  0
VERTEX
  8
2
  6
HIDDEN
  10
11.167
  20
14.567
  30
0.000
  0
SEQEND
  0
POLYLINE
  8
2
 66
   1
  6
HIDDEN
  0
VERTEX
  8
2
  6
HIDDEN
 10
114.983
 20
14.567
 30
0.000
  0
VERTEX
  8
2
  6
HIDDEN
  10
112.983
  20
14.567
  30
0.000
  0
SEQEND
  0
TEXT
  8
0
 10
3.972 
 20
14.047
 30
0.000
 40
1.456 
  1
 15
 50
0.000 
  7
STANDARD
 72
2
 11
7.500 
 21
14.047
 31
0.000
  0
POLYLINE
  8
2
 66
   1
  6
HIDDEN
  0
VERTEX
  8
2
  6
HIDDEN
 10
9.167 
 20
25.150
 30
0.000
  0
VERTEX
  8
2
  6
HIDDEN
  10
11.167
  20
25.150
  30
0.000
  0
SEQEND
  0
POLYLINE
  8
2
 66
   1
  6
HIDDEN
  0
VERTEX
  8
2
  6
HIDDEN
 10
114.983
 20
25.150
 30
0.000
  0
VERTEX
  8
2
  6
HIDDEN
  10
112.983
  20
25.150
  30
0.000
  0
SEQEND
  0
TEXT
  8
0
 10
3.972 
 20
24.630
 30
0.000
 40
1.456 
  1
 20
 50
0.000 
  7
STANDARD
 72
2
 11
7.500 
 21
24.630
 31
0.000
  0
POLYLINE
  8
2
 66
   1
  6
HIDDEN
  0
VERTEX
  8
2
  6
HIDDEN
 10
9.167 
 20
35.733
 30
0.000
  0
VERTEX
  8
2
  6
HIDDEN
  10
11.167
  20
35.733
  30
0.000
  0
SEQEND
  0
POLYLINE
  8
2
 66
   1
  6
HIDDEN
  0
VERTEX
  8
2
  6
HIDDEN
 10
114.983
 20
35.733
 30
0.000
  0
VERTEX
  8
2
  6
HIDDEN
  10
112.983
  20
35.733
  30
0.000
  0
SEQEND
  0
TEXT
  8
0
 10
3.972 
 20
35.213
 30
0.000
 40
1.456 
  1
 25
 50
0.000 
  7
STANDARD
 72
2
 11
7.500 
 21
35.213
 31
0.000
  0
POLYLINE
  8
2
 66
   1
  6
HIDDEN
  0
VERTEX
  8
2
  6
HIDDEN
 10
9.167 
 20
46.317
 30
0.000
  0
VERTEX
  8
2
  6
HIDDEN
  10
11.167
  20
46.317
  30
0.000
  0
SEQEND
  0
POLYLINE
  8
2
 66
   1
  6
HIDDEN
  0
VERTEX
  8
2
  6
HIDDEN
 10
114.983
 20
46.317
 30
0.000
  0
VERTEX
  8
2
  6
HIDDEN
  10
112.983
  20
46.317
  30
0.000
  0
SEQEND
  0
TEXT
  8
0
 10
3.972 
 20
45.797
 30
0.000
 40
1.456 
  1
 30
 50
0.000 
  7
STANDARD
 72
2
 11
7.500 
 21
45.797
 31
0.000
  0
POLYLINE
  8
2
 66
   1
  6
HIDDEN
  0
VERTEX
  8
2
  6
HIDDEN
 10
9.167 
 20
56.900
 30
0.000
  0
VERTEX
  8
2
  6
HIDDEN
  10
11.167
  20
56.900
  30
0.000
  0
SEQEND
  0
POLYLINE
  8
2
 66
   1
  6
HIDDEN
  0
VERTEX
  8
2
  6
HIDDEN
 10
114.983
 20
56.900
 30
0.000
  0
VERTEX
  8
2
  6
HIDDEN
  10
112.983
  20
56.900
  30
0.000
  0
SEQEND
  0
TEXT
  8
0
 10
3.972 
 20
56.380
 30
0.000
 40
1.456 
  1
 35
 50
0.000 
  7
STANDARD
 72
2
 11
7.500 
 21
56.380
 31
0.000
  0
POLYLINE
  8
2
 66
   1
  6
HIDDEN
  0
VERTEX
  8
2
  6
HIDDEN
 10
9.167 
 20
67.483
 30
0.000
  0
VERTEX
  8
2
  6
HIDDEN
  10
11.167
  20
67.483
  30
0.000
  0
SEQEND
  0
POLYLINE
  8
2
 66
   1
  6
HIDDEN
  0
VERTEX
  8
2
  6
HIDDEN
 10
114.983
 20
67.483
 30
0.000
  0
VERTEX
  8
2
  6
HIDDEN
  10
112.983
  20
67.483
  30
0.000
  0
SEQEND
  0
TEXT
  8
0
 10
3.972 
 20
66.963
 30
0.000
 40
1.456 
  1
 40
 50
0.000 
  7
STANDARD
 72
2
 11
7.500 
 21
66.963
 31
0.000
  0
POLYLINE
  8
2
 66
   1
  6
HIDDEN
  0
VERTEX
  8
2
  6
HIDDEN
 10
19.750
 20
14.567
 30
0.000
  0
VERTEX
  8
2
  6
HIDDEN
  10
19.750
  20
16.567
  30
0.000
  0
SEQEND
  0
POLYLINE
  8
2
 66
   1
  6
HIDDEN
  0
VERTEX
  8
2
  6
HIDDEN
 10
19.750
 20
67.483
 30
0.000
  0
VERTEX
  8
2
  6
HIDDEN
  10
19.750
  20
65.483
  30
0.000
  0
SEQEND
  0
TEXT
  8
0
 10
17.986
 20
11.980
 30
0.000
 40
1.456 
  1
-20
 50
0.000 
  7
STANDARD
 72
1
 11
19.750
 21
11.980
 31
0.000
  0
POLYLINE
  8
2
 66
   1
  6
HIDDEN
  0
VERTEX
  8
2
  6
HIDDEN
 10
40.917
 20
14.567
 30
0.000
  0
VERTEX
  8
2
  6
HIDDEN
  10
40.917
  20
16.567
  30
0.000
  0
SEQEND
  0
POLYLINE
  8
2
 66
   1
  6
HIDDEN
  0
VERTEX
  8
2
  6
HIDDEN
 10
40.917
 20
67.483
 30
0.000
  0
VERTEX
  8
2
  6
HIDDEN
  10
40.917
  20
65.483
  30
0.000
  0
SEQEND
  0
TEXT
  8
0
 10
39.153
 20
11.980
 30
0.000
 40
1.456 
  1
-10
 50
0.000 
  7
STANDARD
 72
1
 11
40.917
 21
11.980
 31
0.000
  0
POLYLINE
  8
2
 66
   1
  6
HIDDEN
  0
VERTEX
  8
2
  6
HIDDEN
 10
62.083
 20
14.567
 30
0.000
  0
VERTEX
  8
2
  6
HIDDEN
  10
62.083
  20
16.567
  30
0.000
  0
SEQEND
  0
POLYLINE
  8
2
 66
   1
  6
HIDDEN
  0
VERTEX
  8
2
  6
HIDDEN
 10
62.083
 20
67.483
 30
0.000
  0
VERTEX
  8
2
  6
HIDDEN
  10
62.083
  20
65.483
  30
0.000
  0
SEQEND
  0
TEXT
  8
0
 10
60.907
 20
11.980
 30
0.000
 40
1.456 
  1
 0
 50
0.000 
  7
STANDARD
 72
1
 11
62.083
 21
11.980
 31
0.000
  0
POLYLINE
  8
2
 66
   1
  6
HIDDEN
  0
VERTEX
  8
2
  6
HIDDEN
 10
83.233
 20
14.567
 30
0.000
  0
VERTEX
  8
2
  6
HIDDEN
  10
83.233
  20
16.567
  30
0.000
  0
SEQEND
  0
POLYLINE
  8
2
 66
   1
  6
HIDDEN
  0
VERTEX
  8
2
  6
HIDDEN
 10
83.233
 20
67.483
 30
0.000
  0
VERTEX
  8
2
  6
HIDDEN
  10
83.233
  20
65.483
  30
0.000
  0
SEQEND
  0
TEXT
  8
0
 10
81.469
 20
11.980
 30
0.000
 40
1.456 
  1
 10
 50
0.000 
  7
STANDARD
 72
1
 11
83.233
 21
11.980
 31
0.000
  0
POLYLINE
  8
2
 66
   1
  6
HIDDEN
  0
VERTEX
  8
2
  6
HIDDEN
 10
104.400
 20
14.567
 30
0.000
  0
VERTEX
  8
2
  6
HIDDEN
  10
104.400
  20
16.567
  30
0.000
  0
SEQEND
  0
POLYLINE
  8
2
 66
   1
  6
HIDDEN
  0
VERTEX
  8
2
  6
HIDDEN
 10
104.400
 20
67.483
 30
0.000
  0
VERTEX
  8
2
  6
HIDDEN
  10
104.400
  20
65.483
  30
0.000
  0
SEQEND
  0
TEXT
  8
0
 10
102.636
 20
11.980
 30
0.000
 40
1.456 
  1
 20
 50
0.000 
  7
STANDARD
 72
1
 11
104.400
 21
11.980
 31
0.000
  0
TEXT
  8
0
 10
35.461
 20
63.713
 30
0.000
 40
1.456 
  1
sqrt(((x**2)*(489.4603407)/(508.8462638))+(489.4603407))
 50
0.000 
  7
STANDARD
 72
2
 11
101.317
 21
63.713
 31
0.000
  0
POLYLINE
  8
0
 66
   1
  6
CONTINUOUS
  0
VERTEX
  8
0
  6
CONTINUOUS
 10
102.983
 20
64.233
 30
0.000
  0
VERTEX
  8
0
  6
CONTINUOUS
  10
111.650
  20
64.233
  30
0.000
  0
SEQEND
  0
POLYLINE
  8
0
 66
   1
  6
CONTINUOUS
  0
VERTEX
  8
0
  6
CONTINUOUS
 10
9.167 
 20
52.717
 30
0.000
  0
VERTEX
  8
0
  6
CONTINUOUS
  10
9.167 
  20
52.717
  30
0.000
  0
VERTEX
  8
0
  6
CONTINUOUS
  10
10.233
  20
51.950
  30
0.000
  0
VERTEX
  8
0
  6
CONTINUOUS
  10
11.300
  20
51.183
  30
0.000
  0
VERTEX
  8
0
  6
CONTINUOUS
  10
12.367
  20
50.417
  30
0.000
  0
VERTEX
  8
0
  6
CONTINUOUS
  10
13.450
  20
49.667
  30
0.000
  0
VERTEX
  8
0
  6
CONTINUOUS
  10
14.517
  20
48.917
  30
0.000
  0
VERTEX
  8
0
  6
CONTINUOUS
  10
15.583
  20
48.183
  30
0.000
  0
VERTEX
  8
0
  6
CONTINUOUS
  10
16.650
  20
47.450
  30
0.000
  0
VERTEX
  8
0
  6
CONTINUOUS
  10
17.717
  20
46.733
  30
0.000
  0
VERTEX
  8
0
  6
CONTINUOUS
  10
18.783
  20
46.033
  30
0.000
  0
VERTEX
  8
0
  6
CONTINUOUS
  10
19.850
  20
45.333
  30
0.000
  0
VERTEX
  8
0
  6
CONTINUOUS
  10
20.917
  20
44.633
  30
0.000
  0
VERTEX
  8
0
  6
CONTINUOUS
  10
22.000
  20
43.967
  30
0.000
  0
VERTEX
  8
0
  6
CONTINUOUS
  10
23.067
  20
43.300
  30
0.000
  0
VERTEX
  8
0
  6
CONTINUOUS
  10
24.133
  20
42.633
  30
0.000
  0
VERTEX
  8
0
  6
CONTINUOUS
  10
25.200
  20
41.983
  30
0.000
  0
VERTEX
  8
0
  6
CONTINUOUS
  10
26.267
  20
41.350
  30
0.000
  0
VERTEX
  8
0
  6
CONTINUOUS
  10
27.333
  20
40.733
  30
0.000
  0
VERTEX
  8
0
  6
CONTINUOUS
  10
28.400
  20
40.117
  30
0.000
  0
VERTEX
  8
0
  6
CONTINUOUS
  10
29.467
  20
39.517
  30
0.000
  0
VERTEX
  8
0
  6
CONTINUOUS
  10
30.550
  20
38.933
  30
0.000
  0
VERTEX
  8
0
  6
CONTINUOUS
  10
31.617
  20
38.367
  30
0.000
  0
VERTEX
  8
0
  6
CONTINUOUS
  10
32.683
  20
37.817
  30
0.000
  0
VERTEX
  8
0
  6
CONTINUOUS
  10
33.750
  20
37.267
  30
0.000
  0
VERTEX
  8
0
  6
CONTINUOUS
  10
34.817
  20
36.733
  30
0.000
  0
VERTEX
  8
0
  6
CONTINUOUS
  10
35.883
  20
36.233
  30
0.000
  0
VERTEX
  8
0
  6
CONTINUOUS
  10
36.950
  20
35.733
  30
0.000
  0
VERTEX
  8
0
  6
CONTINUOUS
  10
38.033
  20
35.250
  30
0.000
  0
VERTEX
  8
0
  6
CONTINUOUS
  10
39.100
  20
34.783
  30
0.000
  0
VERTEX
  8
0
  6
CONTINUOUS
  10
40.167
  20
34.350
  30
0.000
  0
VERTEX
  8
0
  6
CONTINUOUS
  10
41.233
  20
33.917
  30
0.000
  0
VERTEX
  8
0
  6
CONTINUOUS
  10
42.300
  20
33.500
  30
0.000
  0
VERTEX
  8
0
  6
CONTINUOUS
  10
43.367
  20
33.117
  30
0.000
  0
VERTEX
  8
0
  6
CONTINUOUS
  10
44.433
  20
32.733
  30
0.000
  0
VERTEX
  8
0
  6
CONTINUOUS
  10
45.500
  20
32.383
  30
0.000
  0
VERTEX
  8
0
  6
CONTINUOUS
  10
46.583
  20
32.050
  30
0.000
  0
VERTEX
  8
0
  6
CONTINUOUS
  10
47.650
  20
31.733
  30
0.000
  0
VERTEX
  8
0
  6
CONTINUOUS
  10
48.717
  20
31.450
  30
0.000
  0
VERTEX
  8
0
  6
CONTINUOUS
  10
49.783
  20
31.167
  30
0.000
  0
VERTEX
  8
0
  6
CONTINUOUS
  10
50.850
  20
30.917
  30
0.000
  0
VERTEX
  8
0
  6
CONTINUOUS
  10
51.917
  20
30.700
  30
0.000
  0
VERTEX
  8
0
  6
CONTINUOUS
  10
52.983
  20
30.483
  30
0.000
  0
VERTEX
  8
0
  6
CONTINUOUS
  10
54.067
  20
30.300
  30
0.000
  0
VERTEX
  8
0
  6
CONTINUOUS
  10
55.133
  20
30.133
  30
0.000
  0
VERTEX
  8
0
  6
CONTINUOUS
  10
56.200
  20
30.000
  30
0.000
  0
VERTEX
  8
0
  6
CONTINUOUS
  10
57.267
  20
29.883
  30
0.000
  0
VERTEX
  8
0
  6
CONTINUOUS
  10
58.333
  20
29.783
  30
0.000
  0
VERTEX
  8
0
  6
CONTINUOUS
  10
59.400
  20
29.717
  30
0.000
  0
VERTEX
  8
0
  6
CONTINUOUS
  10
60.467
  20
29.667
  30
0.000
  0
VERTEX
  8
0
  6
CONTINUOUS
  10
61.533
  20
29.650
  30
0.000
  0
VERTEX
  8
0
  6
CONTINUOUS
  10
62.617
  20
29.650
  30
0.000
  0
VERTEX
  8
0
  6
CONTINUOUS
  10
63.683
  20
29.667
  30
0.000
  0
VERTEX
  8
0
  6
CONTINUOUS
  10
64.750
  20
29.717
  30
0.000
  0
VERTEX
  8
0
  6
CONTINUOUS
  10
65.817
  20
29.783
  30
0.000
  0
VERTEX
  8
0
  6
CONTINUOUS
  10
66.883
  20
29.883
  30
0.000
  0
VERTEX
  8
0
  6
CONTINUOUS
  10
67.950
  20
30.000
  30
0.000
  0
VERTEX
  8
0
  6
CONTINUOUS
  10
69.017
  20
30.133
  30
0.000
  0
VERTEX
  8
0
  6
CONTINUOUS
  10
70.083
  20
30.300
  30
0.000
  0
VERTEX
  8
0
  6
CONTINUOUS
  10
71.167
  20
30.483
  30
0.000
  0
VERTEX
  8
0
  6
CONTINUOUS
  10
72.233
  20
30.700
  30
0.000
  0
VERTEX
  8
0
  6
CONTINUOUS
  10
73.300
  20
30.917
  30
0.000
  0
VERTEX
  8
0
  6
CONTINUOUS
  10
74.367
  20
31.167
  30
0.000
  0
VERTEX
  8
0
  6
CONTINUOUS
  10
75.433
  20
31.450
  30
0.000
  0
VERTEX
  8
0
  6
CONTINUOUS
  10
76.500
  20
31.733
  30
0.000
  0
VERTEX
  8
0
  6
CONTINUOUS
  10
77.567
  20
32.050
  30
0.000
  0
VERTEX
  8
0
  6
CONTINUOUS
  10
78.650
  20
32.383
  30
0.000
  0
VERTEX
  8
0
  6
CONTINUOUS
  10
79.717
  20
32.733
  30
0.000
  0
VERTEX
  8
0
  6
CONTINUOUS
  10
80.783
  20
33.117
  30
0.000
  0
VERTEX
  8
0
  6
CONTINUOUS
  10
81.850
  20
33.500
  30
0.000
  0
VERTEX
  8
0
  6
CONTINUOUS
  10
82.917
  20
33.917
  30
0.000
  0
VERTEX
  8
0
  6
CONTINUOUS
  10
83.983
  20
34.350
  30
0.000
  0
VERTEX
  8
0
  6
CONTINUOUS
  10
85.050
  20
34.783
  30
0.000
  0
VERTEX
  8
0
  6
CONTINUOUS
  10
86.117
  20
35.250
  30
0.000
  0
VERTEX
  8
0
  6
CONTINUOUS
  10
87.200
  20
35.733
  30
0.000
  0
VERTEX
  8
0
  6
CONTINUOUS
  10
88.267
  20
36.233
  30
0.000
  0
VERTEX
  8
0
  6
CONTINUOUS
  10
89.333
  20
36.733
  30
0.000
  0
VERTEX
  8
0
  6
CONTINUOUS
  10
90.400
  20
37.267
  30
0.000
  0
VERTEX
  8
0
  6
CONTINUOUS
  10
91.467
  20
37.817
  30
0.000
  0
VERTEX
  8
0
  6
CONTINUOUS
  10
92.533
  20
38.367
  30
0.000
  0
VERTEX
  8
0
  6
CONTINUOUS
  10
93.600
  20
38.933
  30
0.000
  0
VERTEX
  8
0
  6
CONTINUOUS
  10
94.683
  20
39.517
  30
0.000
  0
VERTEX
  8
0
  6
CONTINUOUS
  10
95.750
  20
40.117
  30
0.000
  0
VERTEX
  8
0
  6
CONTINUOUS
  10
96.817
  20
40.733
  30
0.000
  0
VERTEX
  8
0
  6
CONTINUOUS
  10
97.883
  20
41.350
  30
0.000
  0
VERTEX
  8
0
  6
CONTINUOUS
  10
98.950
  20
41.983
  30
0.000
  0
VERTEX
  8
0
  6
CONTINUOUS
  10
100.017
  20
42.633
  30
0.000
  0
VERTEX
  8
0
  6
CONTINUOUS
  10
101.083
  20
43.300
  30
0.000
  0
VERTEX
  8
0
  6
CONTINUOUS
  10
102.150
  20
43.967
  30
0.000
  0
VERTEX
  8
0
  6
CONTINUOUS
  10
103.233
  20
44.633
  30
0.000
  0
VERTEX
  8
0
  6
CONTINUOUS
  10
104.300
  20
45.333
  30
0.000
  0
VERTEX
  8
0
  6
CONTINUOUS
  10
105.367
  20
46.033
  30
0.000
  0
VERTEX
  8
0
  6
CONTINUOUS
  10
106.433
  20
46.733
  30
0.000
  0
VERTEX
  8
0
  6
CONTINUOUS
  10
107.500
  20
47.450
  30
0.000
  0
VERTEX
  8
0
  6
CONTINUOUS
  10
108.567
  20
48.183
  30
0.000
  0
VERTEX
  8
0
  6
CONTINUOUS
  10
109.633
  20
48.917
  30
0.000
  0
VERTEX
  8
0
  6
CONTINUOUS
  10
110.700
  20
49.667
  30
0.000
  0
VERTEX
  8
0
  6
CONTINUOUS
  10
111.783
  20
50.417
  30
0.000
  0
VERTEX
  8
0
  6
CONTINUOUS
  10
112.850
  20
51.183
  30
0.000
  0
VERTEX
  8
0
  6
CONTINUOUS
  10
113.917
  20
51.950
  30
0.000
  0
VERTEX
  8
0
  6
CONTINUOUS
  10
114.983
  20
52.717
  30
0.000
  0
SEQEND
  0
ENDSEC
  0
EOF
