999
% GNUPLOT: dxf file for AutoCad
  0
SECTION
  2
HEADER
  9
$EXTMIN
 10
0.000
 20
0.000
  9
$EXTMAX
 10
120.000
 20
80.000
  9
$LIMMIN
 10
0.000
 20
0.000
  9
$LIMMAX
 10
120.000
 20
80.000
  9
$TEXTSTYLE
  7
STANDARD
  9
$TEXTSIZE
 40
1.456 
  9
$PLINEWID
 40
0.0351
  9
$LTSCALE
  40
1.000 
  9
$COORDS
 70
  1
  9
$CELTYPE
 6
BYLAYER
  9
$CLAYER
  8
0
  9
$CECOLOR
 62
   7
  9
$MENU
  1
acad
  0
ENDSEC
  0
SECTION
  2
TABLES
0
TABLE
  2
LTYPE
 70
    7
0
LTYPE
  2
CONTINUOUS
 70
    64
  3
Solid line
 72
    65
 73
      0
 40
0.0
  0
LTYPE
  2
DASHED
 70
    64
  3
__ __ __ __ __ __ __ __ __ __ __ __ __ __ __
 72
    65
 73
     2
 40
0.75
 49
0.5
 49
-0.25
  0
LTYPE
  2
HIDDEN
 70
    64
  3
_ _ _ _ _ _ _ _ _ _ _ _ _ _ _ _ _ _ _ _ _ _ _
 72
    65
 73
     2
 40
0.375
 49
0.25
 49
-0.125
  0
LTYPE
  2
CENTER
 70
    64
  3
____ _ ____ _ ____ _ ____ _ ____ _ ____ _ ____
 72
    65
 73
     4
 40
2.0
 49
1.25
 49
-0.25
 49
0.25
 49
-0.25
  0
LTYPE
  2
PHANTOM
 70
    64
  3
_____ _ _ _____ _ _ _____ _ _ _____ _ _ ____
 72
    65
 73
     6
 40
2.5
 49
1.25
 49
-0.25
 49
0.25
 49
-0.25
 49
0.25
 49
-0.25
  0
LTYPE
  2
DOT
 70
    64
  3
...............................................
 72
    65
 73
     2
 40
0.25
 49
0.0
 49
-0.25
  0
LTYPE
  2
DASHDOT
 70
    64
  3
__ . __ . __ . __ . __ . __ . __ . __ . __ . __
 72
    65
 73
     4
 40
1.0
 49
0.5
 49
-0.25
 49
0.0
 49
-0.25
  0
ENDTAB
  0
TABLE
  2
LAYER
 70
   7
  0
LAYER
  2
0
 70
   64
62
   7
  6
CONTINUOUS
  0
LAYER
  2
1
 70
   64
62
   1
  6
DASHED
  0
LAYER
  2
2
 70
   64
62
   2
  6
HIDDEN
  0
LAYER
  2
3
 70
   64
62
   3
  6
CENTER
  0
LAYER
  2
4
 70
   64
62
   4
  6
PHANTOM
  0
LAYER
  2
5
 70
   64
62
   5
  6
DOT
  0
LAYER
  2
6
 70
   64
62
   6
  6
DASHDOT
  0
ENDTAB
0
ENDSEC
  0
SECTION
  2
BLOCKS
  0
ENDSEC
  0
SECTION
  2
ENTITIES
  0
POLYLINE
  8
2
 66
   1
  6
HIDDEN
  0
VERTEX
  8
2
  6
HIDDEN
 10
9.167 
 20
4.133 
 30
0.000
  0
VERTEX
  8
2
  6
HIDDEN
  10
11.167
  20
4.133 
  30
0.000
  0
SEQEND
  0
POLYLINE
  8
2
 66
   1
  6
HIDDEN
  0
VERTEX
  8
2
  6
HIDDEN
 10
114.983
 20
4.133 
 30
0.000
  0
VERTEX
  8
2
  6
HIDDEN
  10
112.983
  20
4.133 
  30
0.000
  0
SEQEND
  0
TEXT
  8
0
 10
5.148 
 20
3.613 
 30
0.000
 40
1.456 
  1
 0
 50
0.000 
  7
STANDARD
 72
2
 11
7.500 
 21
3.613 
 31
0.000
  0
POLYLINE
  8
2
 66
   1
  6
HIDDEN
  0
VERTEX
  8
2
  6
HIDDEN
 10
9.167 
 20
18.883
 30
0.000
  0
VERTEX
  8
2
  6
HIDDEN
  10
11.167
  20
18.883
  30
0.000
  0
SEQEND
  0
POLYLINE
  8
2
 66
   1
  6
HIDDEN
  0
VERTEX
  8
2
  6
HIDDEN
 10
114.983
 20
18.883
 30
0.000
  0
VERTEX
  8
2
  6
HIDDEN
  10
112.983
  20
18.883
  30
0.000
  0
SEQEND
  0
TEXT
  8
0
 10
5.148 
 20
18.363
 30
0.000
 40
1.456 
  1
 5
 50
0.000 
  7
STANDARD
 72
2
 11
7.500 
 21
18.363
 31
0.000
  0
POLYLINE
  8
2
 66
   1
  6
HIDDEN
  0
VERTEX
  8
2
  6
HIDDEN
 10
9.167 
 20
33.650
 30
0.000
  0
VERTEX
  8
2
  6
HIDDEN
  10
11.167
  20
33.650
  30
0.000
  0
SEQEND
  0
POLYLINE
  8
2
 66
   1
  6
HIDDEN
  0
VERTEX
  8
2
  6
HIDDEN
 10
114.983
 20
33.650
 30
0.000
  0
VERTEX
  8
2
  6
HIDDEN
  10
112.983
  20
33.650
  30
0.000
  0
SEQEND
  0
TEXT
  8
0
 10
3.972 
 20
33.130
 30
0.000
 40
1.456 
  1
 10
 50
0.000 
  7
STANDARD
 72
2
 11
7.500 
 21
33.130
 31
0.000
  0
POLYLINE
  8
2
 66
   1
  6
HIDDEN
  0
VERTEX
  8
2
  6
HIDDEN
 10
9.167 
 20
48.400
 30
0.000
  0
VERTEX
  8
2
  6
HIDDEN
  10
11.167
  20
48.400
  30
0.000
  0
SEQEND
  0
POLYLINE
  8
2
 66
   1
  6
HIDDEN
  0
VERTEX
  8
2
  6
HIDDEN
 10
114.983
 20
48.400
 30
0.000
  0
VERTEX
  8
2
  6
HIDDEN
  10
112.983
  20
48.400
  30
0.000
  0
SEQEND
  0
TEXT
  8
0
 10
3.972 
 20
47.880
 30
0.000
 40
1.456 
  1
 15
 50
0.000 
  7
STANDARD
 72
2
 11
7.500 
 21
47.880
 31
0.000
  0
POLYLINE
  8
2
 66
   1
  6
HIDDEN
  0
VERTEX
  8
2
  6
HIDDEN
 10
9.167 
 20
63.167
 30
0.000
  0
VERTEX
  8
2
  6
HIDDEN
  10
11.167
  20
63.167
  30
0.000
  0
SEQEND
  0
POLYLINE
  8
2
 66
   1
  6
HIDDEN
  0
VERTEX
  8
2
  6
HIDDEN
 10
114.983
 20
63.167
 30
0.000
  0
VERTEX
  8
2
  6
HIDDEN
  10
112.983
  20
63.167
  30
0.000
  0
SEQEND
  0
TEXT
  8
0
 10
3.972 
 20
62.647
 30
0.000
 40
1.456 
  1
 20
 50
0.000 
  7
STANDARD
 72
2
 11
7.500 
 21
62.647
 31
0.000
  0
POLYLINE
  8
2
 66
   1
  6
HIDDEN
  0
VERTEX
  8
2
  6
HIDDEN
 10
9.167 
 20
77.917
 30
0.000
  0
VERTEX
  8
2
  6
HIDDEN
  10
11.167
  20
77.917
  30
0.000
  0
SEQEND
  0
POLYLINE
  8
2
 66
   1
  6
HIDDEN
  0
VERTEX
  8
2
  6
HIDDEN
 10
114.983
 20
77.917
 30
0.000
  0
VERTEX
  8
2
  6
HIDDEN
  10
112.983
  20
77.917
  30
0.000
  0
SEQEND
  0
TEXT
  8
0
 10
3.972 
 20
77.397
 30
0.000
 40
1.456 
  1
 25
 50
0.000 
  7
STANDARD
 72
2
 11
7.500 
 21
77.397
 31
0.000
  0
POLYLINE
  8
2
 66
   1
  6
HIDDEN
  0
VERTEX
  8
2
  6
HIDDEN
 10
17.983
 20
4.133 
 30
0.000
  0
VERTEX
  8
2
  6
HIDDEN
  10
17.983
  20
6.133 
  30
0.000
  0
SEQEND
  0
POLYLINE
  8
2
 66
   1
  6
HIDDEN
  0
VERTEX
  8
2
  6
HIDDEN
 10
17.983
 20
77.917
 30
0.000
  0
VERTEX
  8
2
  6
HIDDEN
  10
17.983
  20
75.917
  30
0.000
  0
SEQEND
  0
TEXT
  8
0
 10
16.219
 20
1.547 
 30
0.000
 40
1.456 
  1
-15
 50
0.000 
  7
STANDARD
 72
1
 11
17.983
 21
1.547 
 31
0.000
  0
POLYLINE
  8
2
 66
   1
  6
HIDDEN
  0
VERTEX
  8
2
  6
HIDDEN
 10
32.683
 20
4.133 
 30
0.000
  0
VERTEX
  8
2
  6
HIDDEN
  10
32.683
  20
6.133 
  30
0.000
  0
SEQEND
  0
POLYLINE
  8
2
 66
   1
  6
HIDDEN
  0
VERTEX
  8
2
  6
HIDDEN
 10
32.683
 20
77.917
 30
0.000
  0
VERTEX
  8
2
  6
HIDDEN
  10
32.683
  20
75.917
  30
0.000
  0
SEQEND
  0
TEXT
  8
0
 10
30.919
 20
1.547 
 30
0.000
 40
1.456 
  1
-10
 50
0.000 
  7
STANDARD
 72
1
 11
32.683
 21
1.547 
 31
0.000
  0
POLYLINE
  8
2
 66
   1
  6
HIDDEN
  0
VERTEX
  8
2
  6
HIDDEN
 10
47.383
 20
4.133 
 30
0.000
  0
VERTEX
  8
2
  6
HIDDEN
  10
47.383
  20
6.133 
  30
0.000
  0
SEQEND
  0
POLYLINE
  8
2
 66
   1
  6
HIDDEN
  0
VERTEX
  8
2
  6
HIDDEN
 10
47.383
 20
77.917
 30
0.000
  0
VERTEX
  8
2
  6
HIDDEN
  10
47.383
  20
75.917
  30
0.000
  0
SEQEND
  0
TEXT
  8
0
 10
46.207
 20
1.547 
 30
0.000
 40
1.456 
  1
-5
 50
0.000 
  7
STANDARD
 72
1
 11
47.383
 21
1.547 
 31
0.000
  0
POLYLINE
  8
2
 66
   1
  6
HIDDEN
  0
VERTEX
  8
2
  6
HIDDEN
 10
62.083
 20
4.133 
 30
0.000
  0
VERTEX
  8
2
  6
HIDDEN
  10
62.083
  20
6.133 
  30
0.000
  0
SEQEND
  0
POLYLINE
  8
2
 66
   1
  6
HIDDEN
  0
VERTEX
  8
2
  6
HIDDEN
 10
62.083
 20
77.917
 30
0.000
  0
VERTEX
  8
2
  6
HIDDEN
  10
62.083
  20
75.917
  30
0.000
  0
SEQEND
  0
TEXT
  8
0
 10
60.907
 20
1.547 
 30
0.000
 40
1.456 
  1
 0
 50
0.000 
  7
STANDARD
 72
1
 11
62.083
 21
1.547 
 31
0.000
  0
POLYLINE
  8
2
 66
   1
  6
HIDDEN
  0
VERTEX
  8
2
  6
HIDDEN
 10
76.767
 20
4.133 
 30
0.000
  0
VERTEX
  8
2
  6
HIDDEN
  10
76.767
  20
6.133 
  30
0.000
  0
SEQEND
  0
POLYLINE
  8
2
 66
   1
  6
HIDDEN
  0
VERTEX
  8
2
  6
HIDDEN
 10
76.767
 20
77.917
 30
0.000
  0
VERTEX
  8
2
  6
HIDDEN
  10
76.767
  20
75.917
  30
0.000
  0
SEQEND
  0
TEXT
  8
0
 10
75.591
 20
1.547 
 30
0.000
 40
1.456 
  1
 5
 50
0.000 
  7
STANDARD
 72
1
 11
76.767
 21
1.547 
 31
0.000
  0
POLYLINE
  8
2
 66
   1
  6
HIDDEN
  0
VERTEX
  8
2
  6
HIDDEN
 10
91.467
 20
4.133 
 30
0.000
  0
VERTEX
  8
2
  6
HIDDEN
  10
91.467
  20
6.133 
  30
0.000
  0
SEQEND
  0
POLYLINE
  8
2
 66
   1
  6
HIDDEN
  0
VERTEX
  8
2
  6
HIDDEN
 10
91.467
 20
77.917
 30
0.000
  0
VERTEX
  8
2
  6
HIDDEN
  10
91.467
  20
75.917
  30
0.000
  0
SEQEND
  0
TEXT
  8
0
 10
89.703
 20
1.547 
 30
0.000
 40
1.456 
  1
 10
 50
0.000 
  7
STANDARD
 72
1
 11
91.467
 21
1.547 
 31
0.000
  0
POLYLINE
  8
2
 66
   1
  6
HIDDEN
  0
VERTEX
  8
2
  6
HIDDEN
 10
106.167
 20
4.133 
 30
0.000
  0
VERTEX
  8
2
  6
HIDDEN
  10
106.167
  20
6.133 
  30
0.000
  0
SEQEND
  0
POLYLINE
  8
2
 66
   1
  6
HIDDEN
  0
VERTEX
  8
2
  6
HIDDEN
 10
106.167
 20
77.917
 30
0.000
  0
VERTEX
  8
2
  6
HIDDEN
  10
106.167
  20
75.917
  30
0.000
  0
SEQEND
  0
TEXT
  8
0
 10
104.403
 20
1.547 
 30
0.000
 40
1.456 
  1
 15
 50
0.000 
  7
STANDARD
 72
1
 11
106.167
 21
1.547 
 31
0.000
  0
POLYLINE
  8
2
 66
   1
  6
HIDDEN
  0
VERTEX
  8
2
  6
HIDDEN
 10
9.167 
 20
77.917
 30
0.000
  0
VERTEX
  8
2
  6
HIDDEN
  10
9.167 
  20
4.133 
  30
0.000
  0
VERTEX
  8
2
  6
HIDDEN
  10
114.983
  20
4.133 
  30
0.000
  0
VERTEX
  8
2
  6
HIDDEN
  10
114.983
  20
77.917
  30
0.000
  0
VERTEX
  8
2
  6
HIDDEN
  10
9.167 
  20
77.917
  30
0.000
  0
SEQEND
  0
TEXT
  8
0
 10
54.277
 20
74.147
 30
0.000
 40
1.456 
  1
sqrt(299.783**2/311.656**2*x**2+299.783)
 50
0.000 
  7
STANDARD
 72
2
 11
101.317
 21
74.147
 31
0.000
  0
POLYLINE
  8
0
 66
   1
  6
CONTINUOUS
  0
VERTEX
  8
0
  6
CONTINUOUS
 10
102.983
 20
74.667
 30
0.000
  0
VERTEX
  8
0
  6
CONTINUOUS
  10
111.650
  20
74.667
  30
0.000
  0
SEQEND
  0
POLYLINE
  8
0
 66
   1
  6
CONTINUOUS
  0
VERTEX
  8
0
  6
CONTINUOUS
 10
9.167 
 20
76.400
 30
0.000
  0
VERTEX
  8
0
  6
CONTINUOUS
  10
9.167 
  20
76.400
  30
0.000
  0
VERTEX
  8
0
  6
CONTINUOUS
  10
10.233
  20
75.667
  30
0.000
  0
VERTEX
  8
0
  6
CONTINUOUS
  10
11.300
  20
74.950
  30
0.000
  0
VERTEX
  8
0
  6
CONTINUOUS
  10
12.367
  20
74.250
  30
0.000
  0
VERTEX
  8
0
  6
CONTINUOUS
  10
13.450
  20
73.533
  30
0.000
  0
VERTEX
  8
0
  6
CONTINUOUS
  10
14.517
  20
72.850
  30
0.000
  0
VERTEX
  8
0
  6
CONTINUOUS
  10
15.583
  20
72.167
  30
0.000
  0
VERTEX
  8
0
  6
CONTINUOUS
  10
16.650
  20
71.483
  30
0.000
  0
VERTEX
  8
0
  6
CONTINUOUS
  10
17.717
  20
70.817
  30
0.000
  0
VERTEX
  8
0
  6
CONTINUOUS
  10
18.783
  20
70.150
  30
0.000
  0
VERTEX
  8
0
  6
CONTINUOUS
  10
19.850
  20
69.517
  30
0.000
  0
VERTEX
  8
0
  6
CONTINUOUS
  10
20.917
  20
68.867
  30
0.000
  0
VERTEX
  8
0
  6
CONTINUOUS
  10
22.000
  20
68.233
  30
0.000
  0
VERTEX
  8
0
  6
CONTINUOUS
  10
23.067
  20
67.617
  30
0.000
  0
VERTEX
  8
0
  6
CONTINUOUS
  10
24.133
  20
67.017
  30
0.000
  0
VERTEX
  8
0
  6
CONTINUOUS
  10
25.200
  20
66.417
  30
0.000
  0
VERTEX
  8
0
  6
CONTINUOUS
  10
26.267
  20
65.833
  30
0.000
  0
VERTEX
  8
0
  6
CONTINUOUS
  10
27.333
  20
65.267
  30
0.000
  0
VERTEX
  8
0
  6
CONTINUOUS
  10
28.400
  20
64.700
  30
0.000
  0
VERTEX
  8
0
  6
CONTINUOUS
  10
29.467
  20
64.150
  30
0.000
  0
VERTEX
  8
0
  6
CONTINUOUS
  10
30.550
  20
63.617
  30
0.000
  0
VERTEX
  8
0
  6
CONTINUOUS
  10
31.617
  20
63.100
  30
0.000
  0
VERTEX
  8
0
  6
CONTINUOUS
  10
32.683
  20
62.583
  30
0.000
  0
VERTEX
  8
0
  6
CONTINUOUS
  10
33.750
  20
62.100
  30
0.000
  0
VERTEX
  8
0
  6
CONTINUOUS
  10
34.817
  20
61.617
  30
0.000
  0
VERTEX
  8
0
  6
CONTINUOUS
  10
35.883
  20
61.150
  30
0.000
  0
VERTEX
  8
0
  6
CONTINUOUS
  10
36.950
  20
60.700
  30
0.000
  0
VERTEX
  8
0
  6
CONTINUOUS
  10
38.033
  20
60.267
  30
0.000
  0
VERTEX
  8
0
  6
CONTINUOUS
  10
39.100
  20
59.850
  30
0.000
  0
VERTEX
  8
0
  6
CONTINUOUS
  10
40.167
  20
59.450
  30
0.000
  0
VERTEX
  8
0
  6
CONTINUOUS
  10
41.233
  20
59.050
  30
0.000
  0
VERTEX
  8
0
  6
CONTINUOUS
  10
42.300
  20
58.683
  30
0.000
  0
VERTEX
  8
0
  6
CONTINUOUS
  10
43.367
  20
58.333
  30
0.000
  0
VERTEX
  8
0
  6
CONTINUOUS
  10
44.433
  20
58.000
  30
0.000
  0
VERTEX
  8
0
  6
CONTINUOUS
  10
45.500
  20
57.683
  30
0.000
  0
VERTEX
  8
0
  6
CONTINUOUS
  10
46.583
  20
57.383
  30
0.000
  0
VERTEX
  8
0
  6
CONTINUOUS
  10
47.650
  20
57.100
  30
0.000
  0
VERTEX
  8
0
  6
CONTINUOUS
  10
48.717
  20
56.833
  30
0.000
  0
VERTEX
  8
0
  6
CONTINUOUS
  10
49.783
  20
56.600
  30
0.000
  0
VERTEX
  8
0
  6
CONTINUOUS
  10
50.850
  20
56.367
  30
0.000
  0
VERTEX
  8
0
  6
CONTINUOUS
  10
51.917
  20
56.167
  30
0.000
  0
VERTEX
  8
0
  6
CONTINUOUS
  10
52.983
  20
55.983
  30
0.000
  0
VERTEX
  8
0
  6
CONTINUOUS
  10
54.067
  20
55.817
  30
0.000
  0
VERTEX
  8
0
  6
CONTINUOUS
  10
55.133
  20
55.667
  30
0.000
  0
VERTEX
  8
0
  6
CONTINUOUS
  10
56.200
  20
55.550
  30
0.000
  0
VERTEX
  8
0
  6
CONTINUOUS
  10
57.267
  20
55.450
  30
0.000
  0
VERTEX
  8
0
  6
CONTINUOUS
  10
58.333
  20
55.367
  30
0.000
  0
VERTEX
  8
0
  6
CONTINUOUS
  10
59.400
  20
55.300
  30
0.000
  0
VERTEX
  8
0
  6
CONTINUOUS
  10
60.467
  20
55.250
  30
0.000
  0
VERTEX
  8
0
  6
CONTINUOUS
  10
61.533
  20
55.233
  30
0.000
  0
VERTEX
  8
0
  6
CONTINUOUS
  10
62.617
  20
55.233
  30
0.000
  0
VERTEX
  8
0
  6
CONTINUOUS
  10
63.683
  20
55.250
  30
0.000
  0
VERTEX
  8
0
  6
CONTINUOUS
  10
64.750
  20
55.300
  30
0.000
  0
VERTEX
  8
0
  6
CONTINUOUS
  10
65.817
  20
55.367
  30
0.000
  0
VERTEX
  8
0
  6
CONTINUOUS
  10
66.883
  20
55.450
  30
0.000
  0
VERTEX
  8
0
  6
CONTINUOUS
  10
67.950
  20
55.550
  30
0.000
  0
VERTEX
  8
0
  6
CONTINUOUS
  10
69.017
  20
55.667
  30
0.000
  0
VERTEX
  8
0
  6
CONTINUOUS
  10
70.083
  20
55.817
  30
0.000
  0
VERTEX
  8
0
  6
CONTINUOUS
  10
71.167
  20
55.983
  30
0.000
  0
VERTEX
  8
0
  6
CONTINUOUS
  10
72.233
  20
56.167
  30
0.000
  0
VERTEX
  8
0
  6
CONTINUOUS
  10
73.300
  20
56.367
  30
0.000
  0
VERTEX
  8
0
  6
CONTINUOUS
  10
74.367
  20
56.600
  30
0.000
  0
VERTEX
  8
0
  6
CONTINUOUS
  10
75.433
  20
56.833
  30
0.000
  0
VERTEX
  8
0
  6
CONTINUOUS
  10
76.500
  20
57.100
  30
0.000
  0
VERTEX
  8
0
  6
CONTINUOUS
  10
77.567
  20
57.383
  30
0.000
  0
VERTEX
  8
0
  6
CONTINUOUS
  10
78.650
  20
57.683
  30
0.000
  0
VERTEX
  8
0
  6
CONTINUOUS
  10
79.717
  20
58.000
  30
0.000
  0
VERTEX
  8
0
  6
CONTINUOUS
  10
80.783
  20
58.333
  30
0.000
  0
VERTEX
  8
0
  6
CONTINUOUS
  10
81.850
  20
58.683
  30
0.000
  0
VERTEX
  8
0
  6
CONTINUOUS
  10
82.917
  20
59.050
  30
0.000
  0
VERTEX
  8
0
  6
CONTINUOUS
  10
83.983
  20
59.450
  30
0.000
  0
VERTEX
  8
0
  6
CONTINUOUS
  10
85.050
  20
59.850
  30
0.000
  0
VERTEX
  8
0
  6
CONTINUOUS
  10
86.117
  20
60.267
  30
0.000
  0
VERTEX
  8
0
  6
CONTINUOUS
  10
87.200
  20
60.700
  30
0.000
  0
VERTEX
  8
0
  6
CONTINUOUS
  10
88.267
  20
61.150
  30
0.000
  0
VERTEX
  8
0
  6
CONTINUOUS
  10
89.333
  20
61.617
  30
0.000
  0
VERTEX
  8
0
  6
CONTINUOUS
  10
90.400
  20
62.100
  30
0.000
  0
VERTEX
  8
0
  6
CONTINUOUS
  10
91.467
  20
62.583
  30
0.000
  0
VERTEX
  8
0
  6
CONTINUOUS
  10
92.533
  20
63.100
  30
0.000
  0
VERTEX
  8
0
  6
CONTINUOUS
  10
93.600
  20
63.617
  30
0.000
  0
VERTEX
  8
0
  6
CONTINUOUS
  10
94.683
  20
64.150
  30
0.000
  0
VERTEX
  8
0
  6
CONTINUOUS
  10
95.750
  20
64.700
  30
0.000
  0
VERTEX
  8
0
  6
CONTINUOUS
  10
96.817
  20
65.267
  30
0.000
  0
VERTEX
  8
0
  6
CONTINUOUS
  10
97.883
  20
65.833
  30
0.000
  0
VERTEX
  8
0
  6
CONTINUOUS
  10
98.950
  20
66.417
  30
0.000
  0
VERTEX
  8
0
  6
CONTINUOUS
  10
100.017
  20
67.017
  30
0.000
  0
VERTEX
  8
0
  6
CONTINUOUS
  10
101.083
  20
67.617
  30
0.000
  0
VERTEX
  8
0
  6
CONTINUOUS
  10
102.150
  20
68.233
  30
0.000
  0
VERTEX
  8
0
  6
CONTINUOUS
  10
103.233
  20
68.867
  30
0.000
  0
VERTEX
  8
0
  6
CONTINUOUS
  10
104.300
  20
69.517
  30
0.000
  0
VERTEX
  8
0
  6
CONTINUOUS
  10
105.367
  20
70.150
  30
0.000
  0
VERTEX
  8
0
  6
CONTINUOUS
  10
106.433
  20
70.817
  30
0.000
  0
VERTEX
  8
0
  6
CONTINUOUS
  10
107.500
  20
71.483
  30
0.000
  0
VERTEX
  8
0
  6
CONTINUOUS
  10
108.567
  20
72.167
  30
0.000
  0
VERTEX
  8
0
  6
CONTINUOUS
  10
109.633
  20
72.850
  30
0.000
  0
VERTEX
  8
0
  6
CONTINUOUS
  10
110.700
  20
73.533
  30
0.000
  0
VERTEX
  8
0
  6
CONTINUOUS
  10
111.783
  20
74.250
  30
0.000
  0
VERTEX
  8
0
  6
CONTINUOUS
  10
112.850
  20
74.950
  30
0.000
  0
VERTEX
  8
0
  6
CONTINUOUS
  10
113.917
  20
75.667
  30
0.000
  0
VERTEX
  8
0
  6
CONTINUOUS
  10
114.983
  20
76.400
  30
0.000
  0
SEQEND
  0
POLYLINE
  8
2
 66
   1
  6
HIDDEN
  0
VERTEX
  8
2
  6
HIDDEN
 10
9.167 
 20
77.917
 30
0.000
  0
VERTEX
  8
2
  6
HIDDEN
  10
9.167 
  20
4.133 
  30
0.000
  0
VERTEX
  8
2
  6
HIDDEN
  10
114.983
  20
4.133 
  30
0.000
  0
VERTEX
  8
2
  6
HIDDEN
  10
114.983
  20
77.917
  30
0.000
  0
VERTEX
  8
2
  6
HIDDEN
  10
9.167 
  20
77.917
  30
0.000
  0
SEQEND
  0
ENDSEC
  0
EOF
