%TF.GenerationSoftware,KiCad,Pcbnew,7.0.6*%
%TF.CreationDate,2023-12-23T00:17:47+09:00*%
%TF.ProjectId,MainBoard_ATMega2560Pro_20230629,4d61696e-426f-4617-9264-5f41544d6567,rev?*%
%TF.SameCoordinates,Original*%
%TF.FileFunction,Soldermask,Top*%
%TF.FilePolarity,Negative*%
%FSLAX46Y46*%
G04 Gerber Fmt 4.6, Leading zero omitted, Abs format (unit mm)*
G04 Created by KiCad (PCBNEW 7.0.6) date 2023-12-23 00:17:47*
%MOMM*%
%LPD*%
G01*
G04 APERTURE LIST*
G04 Aperture macros list*
%AMRoundRect*
0 Rectangle with rounded corners*
0 $1 Rounding radius*
0 $2 $3 $4 $5 $6 $7 $8 $9 X,Y pos of 4 corners*
0 Add a 4 corners polygon primitive as box body*
4,1,4,$2,$3,$4,$5,$6,$7,$8,$9,$2,$3,0*
0 Add four circle primitives for the rounded corners*
1,1,$1+$1,$2,$3*
1,1,$1+$1,$4,$5*
1,1,$1+$1,$6,$7*
1,1,$1+$1,$8,$9*
0 Add four rect primitives between the rounded corners*
20,1,$1+$1,$2,$3,$4,$5,0*
20,1,$1+$1,$4,$5,$6,$7,0*
20,1,$1+$1,$6,$7,$8,$9,0*
20,1,$1+$1,$8,$9,$2,$3,0*%
%AMHorizOval*
0 Thick line with rounded ends*
0 $1 width*
0 $2 $3 position (X,Y) of the first rounded end (center of the circle)*
0 $4 $5 position (X,Y) of the second rounded end (center of the circle)*
0 Add line between two ends*
20,1,$1,$2,$3,$4,$5,0*
0 Add two circle primitives to create the rounded ends*
1,1,$1,$2,$3*
1,1,$1,$4,$5*%
G04 Aperture macros list end*
%ADD10RoundRect,0.218750X0.218750X0.256250X-0.218750X0.256250X-0.218750X-0.256250X0.218750X-0.256250X0*%
%ADD11C,3.200000*%
%ADD12RoundRect,0.250000X-0.262500X-0.450000X0.262500X-0.450000X0.262500X0.450000X-0.262500X0.450000X0*%
%ADD13O,2.000000X2.700000*%
%ADD14RoundRect,0.250000X0.954594X0.106066X0.106066X0.954594X-0.954594X-0.106066X-0.106066X-0.954594X0*%
%ADD15HorizOval,1.700000X0.106066X0.106066X-0.106066X-0.106066X0*%
%ADD16RoundRect,0.250000X0.512652X0.159099X0.159099X0.512652X-0.512652X-0.159099X-0.159099X-0.512652X0*%
%ADD17R,1.700000X1.700000*%
%ADD18O,1.700000X1.700000*%
%ADD19C,1.676400*%
%ADD20RoundRect,0.250000X0.262500X0.450000X-0.262500X0.450000X-0.262500X-0.450000X0.262500X-0.450000X0*%
%ADD21C,1.500000*%
%ADD22RoundRect,0.250000X-0.600000X0.600000X-0.600000X-0.600000X0.600000X-0.600000X0.600000X0.600000X0*%
%ADD23C,1.700000*%
%ADD24RoundRect,0.250000X-0.088388X0.936916X-0.936916X0.088388X0.088388X-0.936916X0.936916X-0.088388X0*%
%ADD25HorizOval,1.700000X-0.088388X0.088388X0.088388X-0.088388X0*%
%ADD26RoundRect,0.218750X-0.218750X-0.256250X0.218750X-0.256250X0.218750X0.256250X-0.218750X0.256250X0*%
%ADD27RoundRect,0.250000X-0.725000X0.600000X-0.725000X-0.600000X0.725000X-0.600000X0.725000X0.600000X0*%
%ADD28O,1.950000X1.700000*%
%ADD29RoundRect,0.250000X0.600000X-0.600000X0.600000X0.600000X-0.600000X0.600000X-0.600000X-0.600000X0*%
%ADD30RoundRect,0.250000X0.725000X-0.600000X0.725000X0.600000X-0.725000X0.600000X-0.725000X-0.600000X0*%
G04 APERTURE END LIST*
D10*
%TO.C,D2*%
X130027500Y-142287500D03*
X128452500Y-142287500D03*
%TD*%
D11*
%TO.C,REF\u002A\u002A*%
X118240000Y-67708707D03*
%TD*%
D12*
%TO.C,R13*%
X79315915Y-78327881D03*
X81140915Y-78327881D03*
%TD*%
%TO.C,R5*%
X75327500Y-142787500D03*
X77152500Y-142787500D03*
%TD*%
%TO.C,R6*%
X71327500Y-142787500D03*
X73152500Y-142787500D03*
%TD*%
D11*
%TO.C,REF\u002A\u002A*%
X118240000Y-124866345D03*
%TD*%
D13*
%TO.C,SW3*%
X70990000Y-159287500D03*
X77490000Y-159287500D03*
%TD*%
D14*
%TO.C,J5*%
X132815736Y-74979531D03*
D15*
X131047969Y-73211764D03*
%TD*%
D16*
%TO.C,C1*%
X127711751Y-79659251D03*
X126368249Y-78315749D03*
%TD*%
D13*
%TO.C,SW1*%
X70990000Y-139287500D03*
X77490000Y-139287500D03*
%TD*%
D17*
%TO.C,J3*%
X97940000Y-133762500D03*
D18*
X100480000Y-133762500D03*
X103020000Y-133762500D03*
X105560000Y-133762500D03*
%TD*%
D12*
%TO.C,R8*%
X71327500Y-152787500D03*
X73152500Y-152787500D03*
%TD*%
D11*
%TO.C,REF\u002A\u002A*%
X85240000Y-124866345D03*
%TD*%
D19*
%TO.C,U1*%
X119320000Y-118567500D03*
X119320000Y-116027500D03*
X121860000Y-118567500D03*
X121860000Y-116027500D03*
X76140000Y-100787500D03*
X114240000Y-83007500D03*
X114240000Y-85547500D03*
X111700000Y-83007500D03*
X111700000Y-85547500D03*
X109160000Y-83007500D03*
X109160000Y-85547500D03*
X106620000Y-83007500D03*
X106620000Y-85547500D03*
X104080000Y-83007500D03*
X104080000Y-85547500D03*
X101540000Y-83007500D03*
X101540000Y-85547500D03*
X99000000Y-83007500D03*
X99000000Y-85547500D03*
X96460000Y-83007500D03*
X96460000Y-85547500D03*
X116780000Y-116027500D03*
X111700000Y-116027500D03*
X111700000Y-118567500D03*
X109160000Y-116027500D03*
X109160000Y-118567500D03*
X106620000Y-116027500D03*
X106620000Y-118567500D03*
X104080000Y-116027500D03*
X104080000Y-118567500D03*
X101540000Y-116027500D03*
X101540000Y-118567500D03*
X99000000Y-116027500D03*
X99000000Y-118567500D03*
X96460000Y-116027500D03*
X96460000Y-118567500D03*
X93920000Y-116027500D03*
X93920000Y-118567500D03*
X91380000Y-116027500D03*
X91380000Y-118567500D03*
X88840000Y-116027500D03*
X88840000Y-118567500D03*
X86300000Y-116027500D03*
X86300000Y-118567500D03*
X83760000Y-116027500D03*
X83760000Y-118567500D03*
X81220000Y-116027500D03*
X81220000Y-118567500D03*
X78680000Y-116027500D03*
X78680000Y-118567500D03*
X76140000Y-116027500D03*
X76140000Y-118567500D03*
X93920000Y-83007500D03*
X93920000Y-85547500D03*
X91380000Y-83007500D03*
X91380000Y-85547500D03*
X88840000Y-83007500D03*
X88840000Y-85547500D03*
X86300000Y-83007500D03*
X86300000Y-85547500D03*
X83760000Y-83007500D03*
X83760000Y-85547500D03*
X81220000Y-83007500D03*
X81220000Y-85547500D03*
X78680000Y-83007500D03*
X78680000Y-85547500D03*
X76140000Y-83007500D03*
X76140000Y-85547500D03*
X76140000Y-88087500D03*
X78680000Y-88087500D03*
X76140000Y-90627500D03*
X78680000Y-90627500D03*
X76140000Y-93167500D03*
X78680000Y-93167500D03*
X124400000Y-118567500D03*
X124400000Y-116027500D03*
X76140000Y-105867500D03*
X78680000Y-100787500D03*
X76140000Y-103327500D03*
X78680000Y-105867500D03*
X116780000Y-118567500D03*
X114240000Y-116027500D03*
X78680000Y-103327500D03*
X114240000Y-118567500D03*
X126940000Y-118567500D03*
X126940000Y-116027500D03*
%TD*%
D10*
%TO.C,D4*%
X130027500Y-154287500D03*
X128452500Y-154287500D03*
%TD*%
D20*
%TO.C,R1*%
X130152500Y-133287500D03*
X128327500Y-133287500D03*
%TD*%
%TO.C,R12*%
X132152500Y-164287500D03*
X130327500Y-164287500D03*
%TD*%
D21*
%TO.C,SW4*%
X131740000Y-160287500D03*
X129240000Y-160287500D03*
X126740000Y-160287500D03*
%TD*%
D12*
%TO.C,R7*%
X75327500Y-152787500D03*
X77152500Y-152787500D03*
%TD*%
D22*
%TO.C,J1*%
X106820000Y-124535000D03*
D23*
X106820000Y-127075000D03*
X104280000Y-124535000D03*
X104280000Y-127075000D03*
X101740000Y-124535000D03*
X101740000Y-127075000D03*
X99200000Y-124535000D03*
X99200000Y-127075000D03*
X96660000Y-124535000D03*
X96660000Y-127075000D03*
%TD*%
D20*
%TO.C,R11*%
X128152500Y-164287500D03*
X126327500Y-164287500D03*
%TD*%
D21*
%TO.C,BZ1*%
X106620000Y-106027500D03*
X111620000Y-106027500D03*
%TD*%
D24*
%TO.C,J8*%
X73315915Y-72327881D03*
D25*
X71548148Y-74095648D03*
X69780381Y-75863415D03*
%TD*%
D11*
%TO.C,REF\u002A\u002A*%
X85240000Y-67708669D03*
%TD*%
D10*
%TO.C,D3*%
X130027500Y-148287500D03*
X128452500Y-148287500D03*
%TD*%
D12*
%TO.C,R9*%
X75327500Y-162787500D03*
X77152500Y-162787500D03*
%TD*%
D22*
%TO.C,J6*%
X113170000Y-75035000D03*
D23*
X113170000Y-77575000D03*
X110630000Y-75035000D03*
X110630000Y-77575000D03*
X108090000Y-75035000D03*
X108090000Y-77575000D03*
X105550000Y-75035000D03*
X105550000Y-77575000D03*
X103010000Y-75035000D03*
X103010000Y-77575000D03*
X100470000Y-75035000D03*
X100470000Y-77575000D03*
X97930000Y-75035000D03*
X97930000Y-77575000D03*
X95390000Y-75035000D03*
X95390000Y-77575000D03*
X92850000Y-75035000D03*
X92850000Y-77575000D03*
X90310000Y-75035000D03*
X90310000Y-77575000D03*
%TD*%
D12*
%TO.C,R3*%
X128327500Y-146287500D03*
X130152500Y-146287500D03*
%TD*%
D13*
%TO.C,SW2*%
X70990000Y-149287500D03*
X77490000Y-149287500D03*
%TD*%
D26*
%TO.C,D1*%
X128452500Y-135287500D03*
X130027500Y-135287500D03*
%TD*%
D12*
%TO.C,R10*%
X71327500Y-162787500D03*
X73152500Y-162787500D03*
%TD*%
%TO.C,R4*%
X128327500Y-152287500D03*
X130152500Y-152287500D03*
%TD*%
%TO.C,R2*%
X128327500Y-140287500D03*
X130152500Y-140287500D03*
%TD*%
D23*
%TO.C,U2*%
X87930000Y-110097500D03*
X90470000Y-110097500D03*
X93010000Y-110097500D03*
X95550000Y-110097500D03*
X95550000Y-102477500D03*
X93010000Y-102477500D03*
X90470000Y-102477500D03*
X87930000Y-102477500D03*
%TD*%
D27*
%TO.C,J4*%
X132715000Y-92037500D03*
D28*
X132715000Y-94537500D03*
X132715000Y-97037500D03*
X132715000Y-99537500D03*
X132715000Y-102037500D03*
X132715000Y-104537500D03*
X132715000Y-107037500D03*
X132715000Y-109537500D03*
%TD*%
D29*
%TO.C,J7*%
X116980000Y-94540000D03*
D23*
X116980000Y-92000000D03*
X114440000Y-94540000D03*
X114440000Y-92000000D03*
X111900000Y-94540000D03*
X111900000Y-92000000D03*
X109360000Y-94540000D03*
X109360000Y-92000000D03*
X106820000Y-94540000D03*
X106820000Y-92000000D03*
X104280000Y-94540000D03*
X104280000Y-92000000D03*
X101740000Y-94540000D03*
X101740000Y-92000000D03*
X99200000Y-94540000D03*
X99200000Y-92000000D03*
X96660000Y-94540000D03*
X96660000Y-92000000D03*
X94120000Y-94540000D03*
X94120000Y-92000000D03*
X91580000Y-94540000D03*
X91580000Y-92000000D03*
X89040000Y-94540000D03*
X89040000Y-92000000D03*
X86500000Y-94540000D03*
X86500000Y-92000000D03*
%TD*%
D30*
%TO.C,J2*%
X70765000Y-109537500D03*
D28*
X70765000Y-107037500D03*
X70765000Y-104537500D03*
X70765000Y-102037500D03*
X70765000Y-99537500D03*
X70765000Y-97037500D03*
X70765000Y-94537500D03*
X70765000Y-92037500D03*
%TD*%
M02*
