0
SECTION
2
HEADER
9
$INSUNITS
70
4
9
$ACADVER
1
AC1014
9
$HANDSEED
5
FFFF
0
ENDSEC
0
SECTION
2
TABLES
0
TABLE
2
VPORT
5
8
100
AcDbSymbolTable
0
ENDTAB
0
TABLE
2
LTYPE
5
5
100
AcDbSymbolTable
0
LTYPE
5
14
100
AcDbSymbolTableRecord
100
AcDbLinetypeTableRecord
2
BYBLOCK
70
0
0
LTYPE
5
15
100
AcDbSymbolTableRecord
100
AcDbLinetypeTableRecord
2
BYLAYER
70
0
0
ENDTAB
0
TABLE
2
LAYER
5
2
100
AcDbSymbolTable
70
2
0
LAYER
5
50
100
AcDbSymbolTableRecord
100
AcDbLayerTableRecord
2
0
70
0
6
CONTINUOUS
0
ENDTAB
0
TABLE
2
STYLE
5
3
100
AcDbSymbolTable
70
1
0
STYLE
5
11
100
AcDbSymbolTableRecord
100
AcDbTextStyleTableRecord
2
STANDARD
70
0
0
ENDTAB
0
TABLE
2
VIEW
5
6
100
AcDbSymbolTable
70
0
0
ENDTAB
0
TABLE
2
UCS
5
7
100
AcDbSymbolTable
70
0
0
ENDTAB
0
TABLE
2
APPID
5
9
100
AcDbSymbolTable
70
2
0
APPID
5
12
100
AcDbSymbolTableRecord
100
AcDbRegAppTableRecord
2
ACAD
70
0
0
ENDTAB
0
TABLE
2
DIMSTYLE
5
A
100
AcDbSymbolTable
70
1
0
ENDTAB
0
TABLE
2
BLOCK_RECORD
5
1
100
AcDbSymbolTable
70
1
0
BLOCK_RECORD
5
1F
100
AcDbSymbolTableRecord
100
AcDbBlockTableRecord
2
*MODEL_SPACE
0
BLOCK_RECORD
5
1B
100
AcDbSymbolTableRecord
100
AcDbBlockTableRecord
2
*PAPER_SPACE
0
ENDTAB
0
ENDSEC
0
SECTION
2
BLOCKS
0
BLOCK
5
20
100
AcDbEntity
100
AcDbBlockBegin
2
*MODEL_SPACE
0
ENDBLK
5
21
100
AcDbEntity
100
AcDbBlockEnd
0
BLOCK
5
1C
100
AcDbEntity
100
AcDbBlockBegin
2
*PAPER_SPACE
0
ENDBLK
5
1D
100
AcDbEntity
100
AcDbBlockEnd
0
ENDSEC
0
SECTION
2
ENTITIES
0
LWPOLYLINE
5
100
100
AcDbEntity
8
0
100
AcDbPolyline
90
52
70
1
43
0.0
10
-41.000000610947623
20
26.414213711384711
42
0.19891236737966594
10
-40.707107392134162
20
25.707106930198165
10
-39.29289356771244
20
24.292893105776486
42
-0.1989123712523487
10
-39.000000348898986
20
23.585786309688771
10
-39.000000429153438
20
21.20000010430816
42
-0.41421355800864623
10
-40.000000429153445
20
20.200000119209314
10
-42.200000581145261
20
20.200000119209314
42
0.99999999999999989
10
-42.200000581145275
20
13.800000119209308
10
-40.000000554323194
20
13.800000141561048
42
-0.41421356673754245
10
-39.000000531971452
20
12.800000104308131
10
-39.000000581145287
20
8.0000001192092789
42
0.19891237125234307
10
-36.656854795722076
20
2.3431456662139345
10
-14.606602348321612
20
-19.707106781186546
42
0.1989123673796544
10
-13.899495567135061
20
-19.999999999999996
10
13.899495567135061
20
-19.999999999999986
42
0.19891236737965529
10
14.606602348321612
20
-19.707106781186535
10
36.656854795722076
20
2.3431456662139327
42
0.19891237125234321
10
39.000000581145287
20
8.0000001192092807
10
39.000000554323186
20
12.800000104308131
42
-0.41421356673754245
10
40.000000554323194
20
13.80000011920931
10
42.200000581145275
20
13.80000011920931
42
0.99999999999999989
10
42.200000581145261
20
20.200000119209314
10
40.000000429153445
20
20.200000096857575
42
-0.41421355800864507
10
39.000000406801696
20
21.200000104308153
10
39.000000348898958
20
23.585786309688793
42
-0.19891237125234709
10
39.292893567712419
20
24.292893105776511
10
40.707107392134141
20
25.707106930198194
42
0.19891236737966297
10
41.000000610947595
20
26.41421371138474
10
41.000000610947595
20
31.500000245869192
42
0.41421356237309503
10
40.000000610947581
20
32.500000245869188
10
37.000000610947602
20
32.500000245869188
42
0.41421356237308982
10
36.000000610947602
20
31.500000245869188
10
36.000000610947609
20
27.071067960877137
42
-0.19891236737964993
10
35.707107392134162
20
26.363961179690591
10
31.29289368074943
20
21.949747468305823
42
0.19891236737965523
10
31.000000461935979
20
21.242640687119277
10
31.00000046193599
20
16.944272029951208
42
-0.38196601167433952
10
30.111111571575378
20
15.950464039786763
42
0.25870977360699604
10
23.785390014995219
20
11.456790130488358
42
-0.28863126142250478
10
22.883563722565874
20
10.888888890360624
10
-22.883563722565896
20
10.888888890360606
42
-0.28863126142250478
10
-23.785390014995237
20
11.456790130488343
42
0.25870977360699599
10
-30.111111571575396
20
15.950464039786743
42
-0.38196601167433952
10
-31.000000461936004
20
16.94427202995119
10
-31.000000461936004
20
21.242640687119263
42
0.19891236737965523
10
-31.292893680749458
20
21.949747468305809
10
-35.707107392134191
20
26.363961179690566
42
-0.19891236737965085
10
-36.000000610947637
20
27.071067960877116
10
-36.000000610947623
20
31.500000245869163
42
0.41421356237308982
10
-37.00000061094763
20
32.500000245869167
10
-40.000000610947609
20
32.500000245869167
42
0.41421356237309503
10
-41.000000610947623
20
31.500000245869167
0
LINE
5
101
100
AcDbEntity
8
0
100
AcDbLine
10
-37.000000610947637
20
31.500000245869156
30
0
11
-40.000000610947652
21
26.414213711384697
31
0
0
LINE
5
102
100
AcDbEntity
8
0
100
AcDbLine
10
-40.000000610947609
20
31.500000245869167
30
0
11
-37.000000610947637
21
26.414213711384697
31
0
0
LINE
5
103
100
AcDbEntity
8
0
100
AcDbLine
10
37.000000610947609
20
31.500000245869177
30
0
11
40.000000610947609
21
26.414213711384718
31
0
0
LINE
5
104
100
AcDbEntity
8
0
100
AcDbLine
10
40.000000610947581
20
31.500000245869192
30
0
11
37.000000610947609
21
26.414213711384718
31
0
0
LINE
5
105
100
AcDbEntity
8
0
100
AcDbLine
10
37.000000610947609
20
26.414213711384718
30
0
11
37.073370532335659
21
26.53859496412856
31
0
0
CIRCLE
5
106
100
AcDbEntity
8
0
100
AcDbCircle
10
-42.200000581145275
20
17.000000119209311
30
0
40
1.6000000000000014
210
0
220
0
230
1
0
CIRCLE
5
107
100
AcDbEntity
8
0
100
AcDbCircle
10
42.200000581145275
20
17.000000119209314
30
0
40
1.6000000000000014
210
0
220
0
230
1
0
ENDSEC
0
SECTION
2
OBJECTS
0
DICTIONARY
5
C
100
AcDbDictionary
3
ACAD_GROUP
350
D
3
ACAD_MLINESTYLE
350
17
0
DICTIONARY
5
D
100
AcDbDictionary
0
DICTIONARY
5
1A
330
C
100
AcDbDictionary
0
DICTIONARY
5
17
100
AcDbDictionary
0
ENDSEC
0
EOF
