0
SECTION
2
HEADER
9
$INSUNITS
70
4
9
$ACADVER
1
AC1014
9
$HANDSEED
5
FFFF
0
ENDSEC
0
SECTION
2
TABLES
0
TABLE
2
VPORT
5
8
100
AcDbSymbolTable
0
ENDTAB
0
TABLE
2
LTYPE
5
5
100
AcDbSymbolTable
0
LTYPE
5
14
100
AcDbSymbolTableRecord
100
AcDbLinetypeTableRecord
2
BYBLOCK
70
0
0
LTYPE
5
15
100
AcDbSymbolTableRecord
100
AcDbLinetypeTableRecord
2
BYLAYER
70
0
0
ENDTAB
0
TABLE
2
LAYER
5
2
100
AcDbSymbolTable
70
2
0
LAYER
5
50
100
AcDbSymbolTableRecord
100
AcDbLayerTableRecord
2
0
70
0
6
CONTINUOUS
0
ENDTAB
0
TABLE
2
STYLE
5
3
100
AcDbSymbolTable
70
1
0
STYLE
5
11
100
AcDbSymbolTableRecord
100
AcDbTextStyleTableRecord
2
STANDARD
70
0
0
ENDTAB
0
TABLE
2
VIEW
5
6
100
AcDbSymbolTable
70
0
0
ENDTAB
0
TABLE
2
UCS
5
7
100
AcDbSymbolTable
70
0
0
ENDTAB
0
TABLE
2
APPID
5
9
100
AcDbSymbolTable
70
2
0
APPID
5
12
100
AcDbSymbolTableRecord
100
AcDbRegAppTableRecord
2
ACAD
70
0
0
ENDTAB
0
TABLE
2
DIMSTYLE
5
A
100
AcDbSymbolTable
70
1
0
ENDTAB
0
TABLE
2
BLOCK_RECORD
5
1
100
AcDbSymbolTable
70
1
0
BLOCK_RECORD
5
1F
100
AcDbSymbolTableRecord
100
AcDbBlockTableRecord
2
*MODEL_SPACE
0
BLOCK_RECORD
5
1B
100
AcDbSymbolTableRecord
100
AcDbBlockTableRecord
2
*PAPER_SPACE
0
ENDTAB
0
ENDSEC
0
SECTION
2
BLOCKS
0
BLOCK
5
20
100
AcDbEntity
100
AcDbBlockBegin
2
*MODEL_SPACE
0
ENDBLK
5
21
100
AcDbEntity
100
AcDbBlockEnd
0
BLOCK
5
1C
100
AcDbEntity
100
AcDbBlockBegin
2
*PAPER_SPACE
0
ENDBLK
5
1D
100
AcDbEntity
100
AcDbBlockEnd
0
ENDSEC
0
SECTION
2
ENTITIES
0
LWPOLYLINE
5
100
100
AcDbEntity
8
0
100
AcDbPolyline
90
44
70
1
43
0.0
10
22.000000327825553
20
-7.7279223640556616
10
22.000000327825546
20
-10.263456101401047
42
-0.19891236737965487
10
21.707107109012092
20
-10.970562882587593
10
12.97056321041314
20
-19.70710678118655
42
-0.19891236737965245
10
12.263456429226594
20
-20
10
-12.263456429226594
20
-20
42
-0.19891236737965406
10
-12.970563210413131
20
-19.70710678118655
10
-21.707107109012092
20
-10.970562882587584
42
-0.19891236737966192
10
-22.000000327825546
20
-10.263456101401038
10
-22.000000327825546
20
-7.7279223640557273
42
0.19891236737965376
10
-22.292893546638997
20
-7.0208155828691794
10
-36.65685479572209
20
7.3431456662139194
42
-0.41421356237309515
10
-36.65685479572209
20
18.656854333786093
10
-35.863961576908643
20
19.449747552599533
42
0.41421356237309687
10
-35.863961576908643
20
20.863961114972625
10
-37.324555867091661
20
22.324555405155657
10
-40.707107392134169
20
25.707106930198155
42
-0.19891236737966597
10
-41.000000610947623
20
26.414213711384711
10
-41.000000610947609
20
31.500000245869167
42
-0.41421356237309503
10
-40.000000610947609
20
32.500000245869167
10
-37.00000061094763
20
32.500000245869167
42
-0.41421356237308982
10
-36.000000610947623
20
31.500000245869163
10
-36.00000061094763
20
29.727922378956876
42
0.19891236737965243
10
-35.707107392134176
20
29.020815597770326
10
-25.343146128149922
20
18.656854333786082
42
-0.23128942477024975
10
-23.061200751089466
20
12.0123456786853
42
0.45094826552781542
10
-22.068850802020819
20
10.888888890360612
10
22.068850802020805
20
10.888888890360612
42
0.45094826552781547
10
23.061200751089448
20
12.0123456786853
42
-0.23128942477024975
10
25.343146128149911
20
18.656854333786082
10
35.707107392134148
20
29.020815597770316
42
0.19891236737965243
10
36.000000610947602
20
29.727922378956869
10
36.000000610947602
20
31.500000245869163
42
-0.41421356237308982
10
37.000000610947602
20
32.500000245869167
10
40.000000610947602
20
32.500000245869167
42
-0.41421356237309503
10
41.000000610947602
20
31.500000245869167
10
41.000000610947602
20
26.414213711384711
42
-0.19891236737966422
10
40.707107392134148
20
25.707106930198165
10
37.32455586709164
20
22.324555405155657
10
35.863961576908601
20
20.863961114972632
42
0.41421356237309825
10
35.863961576908608
20
19.449747552599529
10
36.656854795722055
20
18.656854333786079
42
-0.41421356237309465
10
36.656854795722069
20
7.3431456662139443
10
22.292893546639007
20
-7.0208155828691199
42
0.19891236737966853
0
LWPOLYLINE
5
101
100
AcDbEntity
8
0
100
AcDbPolyline
90
3
70
1
43
0.0
10
40.000000610947602
20
31.500000245869167
10
36.999999172985554
20
31.500000245869167
10
40.000000610947602
20
26.499999407678843
0
LINE
5
102
100
AcDbEntity
8
0
100
AcDbLine
10
36.999999172985554
20
31.500000245869167
30
0
11
36.999999172985554
21
26.499999407678843
31
0
0
LINE
5
103
100
AcDbEntity
8
0
100
AcDbLine
10
36.999999172985554
20
26.499999407678843
30
0
11
40.000000610947602
21
26.499999407678843
31
0
0
LINE
5
104
100
AcDbEntity
8
0
100
AcDbLine
10
36.999999172985554
20
26.499999407678843
30
0
11
40.000000610947602
21
31.500000245869167
31
0
0
LWPOLYLINE
5
105
100
AcDbEntity
8
0
100
AcDbPolyline
90
3
70
1
43
0.0
10
-40.000000610947602
20
26.499999407678843
10
-40.000000610947602
20
31.500000245869167
10
-36.999999172985554
20
31.500000245869167
0
LINE
5
106
100
AcDbEntity
8
0
100
AcDbLine
10
-36.999999172985554
20
26.499999407678843
30
0
11
-40.000000610947602
21
31.500000245869167
31
0
0
LINE
5
107
100
AcDbEntity
8
0
100
AcDbLine
10
-36.999999172985554
20
26.499999407678843
30
0
11
-40.000000610947602
21
26.499999407678843
31
0
0
LINE
5
108
100
AcDbEntity
8
0
100
AcDbLine
10
-36.999999172985554
20
31.500000245869167
30
0
11
-36.999999172985554
21
26.499999407678843
31
0
0
LINE
5
109
100
AcDbEntity
8
0
100
AcDbLine
10
-31.000000461936004
20
13.000000000000005
30
0
11
-25.343146128149925
21
18.656854333786082
31
0
0
LINE
5
110
100
AcDbEntity
8
0
100
AcDbLine
10
31.00000046193599
20
13.000000000000005
30
0
11
25.343146128149911
21
18.656854333786082
31
0
0
ENDSEC
0
SECTION
2
OBJECTS
0
DICTIONARY
5
C
100
AcDbDictionary
3
ACAD_GROUP
350
D
3
ACAD_MLINESTYLE
350
17
0
DICTIONARY
5
D
100
AcDbDictionary
0
DICTIONARY
5
1A
330
C
100
AcDbDictionary
0
DICTIONARY
5
17
100
AcDbDictionary
0
ENDSEC
0
EOF
