0
SECTION
2
HEADER
9
$INSUNITS
70
4
9
$ACADVER
1
AC1014
9
$HANDSEED
5
FFFF
0
ENDSEC
0
SECTION
2
TABLES
0
TABLE
2
VPORT
5
8
100
AcDbSymbolTable
0
ENDTAB
0
TABLE
2
LTYPE
5
5
100
AcDbSymbolTable
0
LTYPE
5
14
100
AcDbSymbolTableRecord
100
AcDbLinetypeTableRecord
2
BYBLOCK
70
0
0
LTYPE
5
15
100
AcDbSymbolTableRecord
100
AcDbLinetypeTableRecord
2
BYLAYER
70
0
0
ENDTAB
0
TABLE
2
LAYER
5
2
100
AcDbSymbolTable
70
2
0
LAYER
5
50
100
AcDbSymbolTableRecord
100
AcDbLayerTableRecord
2
0
70
0
6
CONTINUOUS
0
ENDTAB
0
TABLE
2
STYLE
5
3
100
AcDbSymbolTable
70
1
0
STYLE
5
11
100
AcDbSymbolTableRecord
100
AcDbTextStyleTableRecord
2
STANDARD
70
0
0
ENDTAB
0
TABLE
2
VIEW
5
6
100
AcDbSymbolTable
70
0
0
ENDTAB
0
TABLE
2
UCS
5
7
100
AcDbSymbolTable
70
0
0
ENDTAB
0
TABLE
2
APPID
5
9
100
AcDbSymbolTable
70
2
0
APPID
5
12
100
AcDbSymbolTableRecord
100
AcDbRegAppTableRecord
2
ACAD
70
0
0
ENDTAB
0
TABLE
2
DIMSTYLE
5
A
100
AcDbSymbolTable
70
1
0
ENDTAB
0
TABLE
2
BLOCK_RECORD
5
1
100
AcDbSymbolTable
70
1
0
BLOCK_RECORD
5
1F
100
AcDbSymbolTableRecord
100
AcDbBlockTableRecord
2
*MODEL_SPACE
0
BLOCK_RECORD
5
1B
100
AcDbSymbolTableRecord
100
AcDbBlockTableRecord
2
*PAPER_SPACE
0
ENDTAB
0
ENDSEC
0
SECTION
2
BLOCKS
0
BLOCK
5
20
100
AcDbEntity
100
AcDbBlockBegin
2
*MODEL_SPACE
0
ENDBLK
5
21
100
AcDbEntity
100
AcDbBlockEnd
0
BLOCK
5
1C
100
AcDbEntity
100
AcDbBlockBegin
2
*PAPER_SPACE
0
ENDBLK
5
1D
100
AcDbEntity
100
AcDbBlockEnd
0
ENDSEC
0
SECTION
2
ENTITIES
0
LWPOLYLINE
5
100
100
AcDbEntity
8
0
100
AcDbPolyline
90
33
70
1
43
0.0
10
38.181444000000006
20
20.328574999998366
42
0.25260106752805567
10
37.340589999998564
20
19.886649999999332
42
-0.53257460581099847
10
-37.340589999998542
20
19.886649999999349
42
0.24966090892056542
10
-38.170380000000002
20
20.328574999998217
10
-39.999997999999998
20
20.328574999998374
42
0.41424105017325552
10
-41.000000999999529
20
19.328570999998377
10
-41.000000999999962
20
9.0285749999983267
42
-0.41421356237308399
10
-42.000000999999969
20
8.0285749999983764
10
-42.200001
20
8.0285749999983729
42
1.000007500032136
10
-42.200001
20
1.6285749999983712
10
-42.000001000002456
20
1.6285749999985666
42
-0.41421356237342599
10
-39.000000999999557
20
-1.371425000001913
10
-39.000001000000005
20
-4.1714220000016278
42
0.1989149717645112
10
-36.656853999997139
20
-9.8282799999987613
10
-22.128679656440099
20
-24.35645434355958
42
-0.19891236737962245
10
-21.250000000000018
20
-26.477774687118952
10
-21.25000000000005
20
-45.171425000001491
42
0.4142135623730937
10
-18.250000000000057
20
-48.171425000001506
10
18.249999999999975
20
-48.171425000001555
42
0.41421356237309698
10
21.249999999999979
20
-45.171425000001555
10
21.249999999999993
20
-26.47777468712038
42
-0.19891236737966192
10
22.128679656440386
20
-24.356454343560699
10
36.656854000000003
20
-9.8282800000016408
42
0.19890942088033997
10
39.000000999999955
20
-4.1714250000016406
10
39.000000999999983
20
-1.3714250000016117
42
-0.41421356237310175
10
42.000001000000104
20
1.6285749999983665
10
42.199999999999989
20
1.6285749999983579
42
0.99999218752919505
10
42.199999999999989
20
8.0285749999987033
10
41.999992690285033
20
8.0285765625558128
42
-0.41421130808246803
10
41.000000502785035
20
9.0285766783895305
10
41.000000734513293
20
11.028574734512498
10
41
20
19.328574999998359
42
0.41420300001710542
10
39.999999999999993
20
20.328574999997791
0
CIRCLE
5
101
100
AcDbEntity
8
0
100
AcDbCircle
10
-42.200025000000011
20
4.8285749999983718
30
0
40
1.6000000000000014
210
0
220
0
230
1
0
CIRCLE
5
102
100
AcDbEntity
8
0
100
AcDbCircle
10
42.199974999999995
20
4.8285749999983585
30
0
40
1.6000000000000014
210
0
220
0
230
1
0
ENDSEC
0
SECTION
2
OBJECTS
0
DICTIONARY
5
C
100
AcDbDictionary
3
ACAD_GROUP
350
D
3
ACAD_MLINESTYLE
350
17
0
DICTIONARY
5
D
100
AcDbDictionary
0
DICTIONARY
5
1A
330
C
100
AcDbDictionary
0
DICTIONARY
5
17
100
AcDbDictionary
0
ENDSEC
0
EOF
