0
SECTION
2
HEADER
9
$INSUNITS
70
4
9
$ACADVER
1
AC1014
9
$HANDSEED
5
FFFF
0
ENDSEC
0
SECTION
2
TABLES
0
TABLE
2
VPORT
5
8
100
AcDbSymbolTable
0
ENDTAB
0
TABLE
2
LTYPE
5
5
100
AcDbSymbolTable
0
LTYPE
5
14
100
AcDbSymbolTableRecord
100
AcDbLinetypeTableRecord
2
BYBLOCK
70
0
0
LTYPE
5
15
100
AcDbSymbolTableRecord
100
AcDbLinetypeTableRecord
2
BYLAYER
70
0
0
ENDTAB
0
TABLE
2
LAYER
5
2
100
AcDbSymbolTable
70
2
0
LAYER
5
50
100
AcDbSymbolTableRecord
100
AcDbLayerTableRecord
2
0
70
0
6
CONTINUOUS
0
ENDTAB
0
TABLE
2
STYLE
5
3
100
AcDbSymbolTable
70
1
0
STYLE
5
11
100
AcDbSymbolTableRecord
100
AcDbTextStyleTableRecord
2
STANDARD
70
0
0
ENDTAB
0
TABLE
2
VIEW
5
6
100
AcDbSymbolTable
70
0
0
ENDTAB
0
TABLE
2
UCS
5
7
100
AcDbSymbolTable
70
0
0
ENDTAB
0
TABLE
2
APPID
5
9
100
AcDbSymbolTable
70
2
0
APPID
5
12
100
AcDbSymbolTableRecord
100
AcDbRegAppTableRecord
2
ACAD
70
0
0
ENDTAB
0
TABLE
2
DIMSTYLE
5
A
100
AcDbSymbolTable
70
1
0
ENDTAB
0
TABLE
2
BLOCK_RECORD
5
1
100
AcDbSymbolTable
70
1
0
BLOCK_RECORD
5
1F
100
AcDbSymbolTableRecord
100
AcDbBlockTableRecord
2
*MODEL_SPACE
0
BLOCK_RECORD
5
1B
100
AcDbSymbolTableRecord
100
AcDbBlockTableRecord
2
*PAPER_SPACE
0
ENDTAB
0
ENDSEC
0
SECTION
2
BLOCKS
0
BLOCK
5
20
100
AcDbEntity
100
AcDbBlockBegin
2
*MODEL_SPACE
0
ENDBLK
5
21
100
AcDbEntity
100
AcDbBlockEnd
0
BLOCK
5
1C
100
AcDbEntity
100
AcDbBlockBegin
2
*PAPER_SPACE
0
ENDBLK
5
1D
100
AcDbEntity
100
AcDbBlockEnd
0
ENDSEC
0
SECTION
2
ENTITIES
0
CIRCLE
5
100
100
AcDbEntity
8
0
100
AcDbCircle
10
42.200001
20
-4.8285749999983718
30
0
40
1.6000000000000014
210
0
220
-0
230
1
0
CIRCLE
5
101
100
AcDbEntity
8
0
100
AcDbCircle
10
-42.200001
20
-4.8285749999983585
30
0
40
1.6000000000000014
210
0
220
-0
230
1
0
LWPOLYLINE
5
102
100
AcDbEntity
8
0
100
AcDbPolyline
90
36
70
1
43
0.0
10
6.5599989999998432
20
43.971425000001894
10
-6.5600010000001419
20
43.97142500000173
42
0.4142135623730957
10
-7.5600010000001294
20
42.97142500000173
10
-7.5600010000000033
20
33.171425000001733
42
-0.4142135623731012
10
-8.5600009999999855
20
32.171425000001719
10
-13.899495437626079
20
32.171425000001641
42
0.19891236737965332
10
-14.606602218812597
20
31.878531781188208
10
-36.656854000000003
20
9.828280000001639
42
0.19890942088033983
10
-39.00000099999987
20
4.1714250000016433
10
-39.000000999999983
20
1.3714250000016128
42
-0.41421356237310181
10
-42.000001000000104
20
-1.6285749999983659
10
-42.199999999999989
20
-1.6285749999983579
42
0.99999218752919505
10
-42.200000000008473
20
-8.0285749999983587
10
-42.000000911504713
20
-8.0285749999986411
42
-0.41421353645341841
10
-41.000000911504422
20
-9.0285749115030711
10
-41
20
-19.328574999998359
42
0.41420300001710542
10
-39.999999999999993
20
-20.328574999998356
10
-38.181444000000006
20
-20.328574999998366
42
0.252601067528056
10
-37.340589999998556
20
-19.886649999999342
42
-0.53257460581099847
10
37.340589999998542
20
-19.886649999999353
42
0.2496609089205645
10
38.170380000000002
20
-20.328574999998217
10
39.999997999999998
20
-20.328574999998374
42
0.41424105017325552
10
41.00000100000009
20
-19.328570999998377
10
41.000000999999962
20
-9.0285749999983267
42
-0.41421356237308915
10
42.000000999999969
20
-8.0285749999983764
10
42.200001
20
-8.0285749999983729
42
1.0000075000358368
10
42.200001
20
-1.6285749999983707
10
42.000000999999557
20
-1.6285749999983679
42
-0.41421356237314133
10
39.000000999999557
20
1.3714250000021089
10
39.000001000000005
20
4.1714220000016278
42
0.19891497176451114
10
36.656854000001573
20
9.8282800000031916
10
14.606602218813149
20
31.878531781188482
42
0.19891236737969778
10
13.899495437626499
20
32.171425000002031
10
8.5599990000000137
20
32.17142500000196
42
-0.41421356237309437
10
7.5599990000000004
20
33.171425000001946
10
7.5599989999998618
20
42.971425000001908
42
0.41421356237308299
0
LINE
5
103
100
AcDbEntity
8
0
100
AcDbLine
10
-9.9999998504074483e-07
20
32.17142500000184
30
0
11
-1.0000000935958851e-06
21
39.871425000001835
31
0
0
CIRCLE
5
104
100
AcDbEntity
8
0
100
AcDbCircle
10
39.024999999999999
20
-15.999999999998371
30
0
40
0.42500000000000004
210
0
220
-0
230
1
0
CIRCLE
5
105
100
AcDbEntity
8
0
100
AcDbCircle
10
-39.025000000000006
20
-15.999999999998362
30
0
40
0.42500000000000004
210
0
220
-0
230
1
0
ENDSEC
0
SECTION
2
OBJECTS
0
DICTIONARY
5
C
100
AcDbDictionary
3
ACAD_GROUP
350
D
3
ACAD_MLINESTYLE
350
17
0
DICTIONARY
5
D
100
AcDbDictionary
0
DICTIONARY
5
1A
330
C
100
AcDbDictionary
0
DICTIONARY
5
17
100
AcDbDictionary
0
ENDSEC
0
EOF
