<?xml version="1.0" standalone="no"?>
<!DOCTYPE svg PUBLIC "-//W3C//DTD SVG 20010904//EN"
 "http://www.w3.org/TR/2001/REC-SVG-20010904/DTD/svg10.dtd">
<svg version="1.0" xmlns="http://www.w3.org/2000/svg"
 width="790.000000pt" height="170.000000pt" viewBox="0 0 790.000000 170.000000"
 preserveAspectRatio="xMidYMid meet">

<g transform="translate(0.000000,170.000000) scale(0.100000,-0.100000)"
fill="#000000" stroke="none">
<path d="M1175 1683 c-69 -10 -216 -46 -299 -74 -94 -31 -259 -100 -254 -105
2 -2 46 8 98 21 304 77 533 74 707 -11 56 -27 87 -51 135 -104 l63 -70 218 0
c119 0 217 4 217 9 0 5 -30 41 -66 80 -114 123 -270 209 -446 245 -72 15 -292
20 -373 9z"/>
<path d="M4432 1326 c-141 -35 -289 -152 -351 -274 -37 -73 -102 -330 -104
-412 -3 -75 19 -141 61 -190 76 -90 171 -125 337 -124 177 2 291 42 392 136
52 50 103 137 103 176 0 28 -18 32 -131 32 -100 0 -100 0 -130 -32 -16 -18
-29 -35 -29 -38 0 -4 -19 -17 -42 -30 -35 -20 -58 -24 -118 -25 -164 0 -201
75 -145 295 33 131 38 142 81 190 57 62 106 84 189 85 82 0 126 -21 150 -71 8
-17 22 -35 31 -38 8 -3 62 -6 120 -6 100 0 104 1 120 25 35 53 -1 184 -65 238
-61 51 -133 70 -281 73 -89 2 -153 -1 -188 -10z"/>
<path d="M6375 1321 c-146 -42 -268 -138 -334 -262 -46 -84 -115 -375 -109
-454 16 -197 207 -309 472 -277 50 7 119 21 153 32 117 40 219 134 259 238 16
43 16 46 -1 59 -13 9 -51 13 -119 13 l-99 0 -51 -54 c-42 -44 -60 -56 -104
-66 -75 -17 -155 -6 -193 28 -55 49 -57 122 -8 303 42 155 130 234 259 234 79
-1 121 -21 155 -75 l25 -40 113 0 c75 0 117 4 125 12 7 7 12 39 12 73 0 125
-68 205 -205 240 -82 21 -271 19 -350 -4z"/>
<path d="M2826 1321 c-12 -18 -46 -183 -40 -192 3 -6 17 -14 30 -19 14 -6 27
-17 31 -25 10 -27 -73 -360 -104 -418 -39 -72 -89 -97 -194 -97 -42 0 -100 5
-130 10 -40 8 -56 7 -65 -2 -20 -20 -60 -206 -47 -219 6 -6 55 -17 109 -26
211 -31 378 17 492 142 66 72 99 155 156 390 88 362 104 439 94 453 -12 14
-323 18 -332 3z"/>
<path d="M3323 1318 c-6 -7 -34 -112 -62 -233 -29 -121 -79 -332 -112 -469
-33 -137 -58 -255 -55 -263 5 -11 70 -13 378 -11 l373 3 23 94 c17 70 20 97
11 107 -9 11 -61 14 -238 16 l-226 3 -3 26 c-2 14 34 180 79 368 44 187 78
348 75 356 -7 20 -228 22 -243 3z"/>
<path d="M5137 1323 c-14 -23 -229 -953 -224 -967 5 -13 25 -16 120 -16 80 0
118 4 124 13 6 6 25 74 42 150 l33 137 136 0 c213 0 333 34 427 121 75 69 135
213 135 320 0 49 -30 121 -63 157 -32 35 -104 69 -172 81 -66 12 -551 15 -558
4z m435 -203 c52 -15 78 -51 78 -111 0 -40 -5 -54 -32 -85 -45 -51 -84 -64
-203 -71 -138 -8 -137 -8 -120 64 7 32 21 93 30 136 l17 77 97 0 c53 0 113 -5
133 -10z"/>
<path d="M7087 1323 c-14 -24 -229 -953 -224 -967 6 -14 35 -16 269 -16 296 0
361 9 458 61 115 61 180 166 180 291 0 60 -1 63 -45 105 -25 24 -52 43 -60 43
-28 0 -15 15 30 34 95 38 163 159 153 268 -10 101 -79 151 -247 179 -67 11
-508 12 -514 2z m450 -199 c62 -46 32 -148 -55 -186 -51 -23 -197 -36 -220
-20 -11 7 -8 29 13 113 15 57 29 107 32 112 3 5 49 7 103 5 81 -2 104 -7 127
-24z m-118 -370 c49 -10 81 -46 81 -91 0 -81 -64 -122 -204 -130 -71 -4 -95
-2 -111 10 -19 15 -19 16 4 110 12 53 28 98 34 101 18 7 160 7 196 0z"/>
<path d="M2030 1281 c-110 -35 -212 -127 -249 -225 -26 -71 -30 -174 -9 -226
42 -99 160 -151 288 -128 53 9 140 49 160 73 6 7 0 23 -20 47 l-30 36 -43 -23
c-115 -63 -214 -25 -225 85 -9 98 41 201 117 240 53 27 130 27 164 0 14 -11
29 -20 34 -20 5 0 26 17 47 39 l38 39 -34 24 c-18 14 -48 30 -67 37 -38 12
-133 13 -171 2z"/>
<path d="M405 1270 c-3 -5 -21 -87 -39 -183 -41 -212 -54 -254 -80 -273 -34
-23 -86 -18 -118 13 l-28 27 -42 -24 c-62 -33 -63 -35 -38 -70 60 -84 219 -93
319 -19 53 39 77 101 121 318 33 164 39 206 28 212 -18 12 -116 11 -123 -1z"/>
<path d="M1372 1268 c-9 -12 -112 -517 -112 -552 0 -14 21 -16 195 -16 218 0
202 -6 208 75 l2 30 -122 3 c-89 2 -123 6 -123 15 0 7 19 105 41 219 23 114
39 214 36 222 -8 20 -109 23 -125 4z"/>
<path d="M818 1181 c-159 -51 -263 -171 -285 -327 -13 -97 43 -186 140 -222
155 -59 384 -23 478 74 l33 34 -26 0 c-14 0 -51 -15 -82 -34 -88 -53 -214 -69
-330 -42 -102 24 -156 83 -156 171 0 116 65 219 174 275 62 32 78 35 167 38
86 3 105 1 145 -18 25 -13 54 -37 65 -54 48 -79 0 -213 -93 -262 -32 -17 -68
-18 -68 -3 0 6 24 66 54 135 l55 124 -35 0 c-20 0 -42 -8 -52 -18 -18 -18 -19
-18 -42 0 -13 10 -38 18 -61 18 -111 0 -228 -114 -232 -227 -2 -39 2 -48 31
-74 38 -34 80 -38 142 -13 39 16 42 15 54 -1 11 -15 22 -17 65 -12 135 16 243
119 258 247 11 90 -51 171 -153 199 -59 17 -181 12 -246 -8z m120 -174 c6 -5
12 -25 12 -44 0 -75 -81 -173 -143 -173 -42 0 -57 15 -57 60 1 113 118 211
188 157z"/>
<path d="M1529 573 c-159 -199 -421 -320 -763 -353 -340 -33 -601 74 -730 300
-30 53 -31 49 -10 -33 60 -231 233 -380 530 -458 128 -34 371 -34 529 -1 365
77 659 243 847 480 32 41 65 87 73 103 l16 29 -219 0 -219 0 -54 -67z"/>
</g>
</svg>
