<?xml version="1.0" standalone="no"?>
<!DOCTYPE svg PUBLIC "-//W3C//DTD SVG 20010904//EN"
 "http://www.w3.org/TR/2001/REC-SVG-20010904/DTD/svg10.dtd">
<svg version="1.0" xmlns="http://www.w3.org/2000/svg"
 width="1200.000000pt" height="316.000000pt" viewBox="0 0 1200.000000 316.000000"
 preserveAspectRatio="xMidYMid meet">

<g transform="translate(0.000000,316.000000) scale(0.100000,-0.100000)"
fill="#000000" stroke="none">
<path d="M1010 1835 l0 -535 170 0 170 0 0 200 0 200 131 0 c236 0 349 51 411
185 20 43 23 66 23 160 0 90 -4 118 -21 155 -28 60 -77 108 -144 139 l-55 26
-342 3 -343 3 0 -536z m556 284 c54 -55 38 -156 -31 -185 -20 -8 -67 -14 -110
-14 l-75 0 0 116 0 116 95 -4 c86 -3 97 -5 121 -29z"/>
<path d="M4290 2190 c0 -99 -3 -180 -6 -180 -3 0 -21 12 -40 26 -49 38 -100
53 -180 54 -92 0 -152 -21 -213 -76 -62 -56 -97 -129 -112 -237 -32 -230 67
-435 233 -482 111 -31 203 -9 288 71 l50 47 0 -57 0 -56 140 0 140 0 0 535 0
535 -150 0 -150 0 0 -180z m-55 -353 c19 -19 38 -52 45 -78 15 -53 7 -147 -15
-190 -37 -71 -129 -88 -185 -34 -67 65 -68 239 0 307 23 23 37 28 75 28 40 0
52 -5 80 -33z"/>
<path d="M8290 2190 c0 -99 -3 -180 -6 -180 -3 0 -21 12 -40 26 -49 38 -100
53 -180 54 -92 0 -152 -21 -213 -76 -62 -56 -97 -129 -112 -237 -32 -230 67
-435 233 -482 111 -31 203 -9 288 71 l50 47 0 -57 0 -56 140 0 140 0 0 535 0
535 -150 0 -150 0 0 -180z m-55 -353 c19 -19 38 -52 45 -78 15 -53 7 -147 -15
-190 -37 -71 -129 -88 -185 -34 -67 65 -68 239 0 307 23 23 37 28 75 28 40 0
52 -5 80 -33z"/>
<path d="M9270 1835 l0 -535 140 0 140 0 0 53 0 54 42 -40 c62 -59 118 -81
208 -81 61 0 85 5 132 27 140 68 214 247 187 459 -17 140 -77 238 -176 288
-42 22 -61 25 -148 25 -83 0 -107 -4 -141 -22 -22 -12 -46 -29 -53 -37 -8 -9
-17 -16 -22 -16 -5 0 -9 81 -9 180 l0 180 -150 0 -150 0 0 -535z m508 7 c40
-37 56 -99 48 -181 -12 -110 -49 -156 -126 -156 -40 0 -54 5 -78 28 -47 45
-66 153 -42 239 25 90 135 129 198 70z"/>
<path d="M2508 2090 c-51 -9 -84 -34 -119 -88 l-29 -46 0 62 0 62 -140 0 -140
0 0 -390 0 -390 150 0 150 0 0 168 c0 343 45 424 208 381 9 -3 29 31 58 95 24
54 44 102 44 106 0 23 -122 50 -182 40z"/>
<path d="M3140 2093 c-215 -15 -365 -140 -400 -333 -37 -202 75 -389 268 -451
138 -44 337 -23 444 46 195 128 231 446 68 614 -86 88 -228 134 -380 124z
m110 -225 c53 -37 73 -86 73 -182 -1 -64 -6 -92 -22 -124 -52 -101 -191 -99
-245 3 -29 55 -29 182 -1 240 40 80 128 108 195 63z"/>
<path d="M6102 2088 c-147 -12 -276 -95 -330 -211 -52 -110 -50 -288 4 -387
66 -121 170 -183 339 -202 240 -26 406 45 486 208 17 34 29 67 25 72 -3 5 -65
15 -138 22 -126 12 -133 12 -143 -6 -5 -10 -26 -35 -45 -55 -69 -72 -188 -58
-241 27 -20 33 -24 52 -24 124 0 137 46 200 149 207 64 5 115 -19 136 -65 13
-28 19 -32 45 -28 17 3 77 11 133 17 63 8 106 17 109 25 7 19 -41 105 -82 147
-84 87 -228 123 -423 105z"/>
<path d="M7135 2093 c-122 -8 -220 -48 -292 -119 -128 -128 -147 -366 -42
-523 69 -103 146 -146 294 -163 161 -18 318 12 403 77 50 39 118 122 108 132
-4 4 -69 13 -144 19 l-136 12 -33 -28 c-79 -70 -200 -46 -239 47 -29 67 -45
63 282 63 l297 0 -6 93 c-15 239 -136 365 -372 385 -44 4 -98 6 -120 5z m131
-198 c25 -16 45 -53 58 -107 l6 -28 -146 0 -147 0 6 35 c8 46 42 94 81 111 38
18 107 12 142 -11z"/>
<path d="M4770 1792 c0 -326 6 -365 66 -432 47 -52 110 -75 204 -74 93 0 155
26 223 92 l47 46 0 -62 0 -62 140 0 140 0 0 390 0 390 -150 0 -150 0 0 -217
c0 -120 -5 -234 -10 -254 -16 -57 -54 -89 -106 -89 -101 0 -104 10 -104 315
l0 245 -150 0 -150 0 0 -288z"/>
<path d="M10195 2048 c7 -18 81 -194 164 -392 l151 -359 -25 -43 c-18 -30 -35
-46 -61 -54 -37 -12 -142 -9 -176 5 -15 6 -18 2 -18 -26 1 -43 17 -169 23
-175 12 -12 198 -21 265 -12 117 14 173 51 226 148 19 36 356 922 356 937 0 2
-66 2 -147 1 l-147 -3 -70 -242 c-39 -133 -74 -244 -77 -247 -3 -3 -22 49 -43
117 -21 67 -56 179 -78 250 l-40 127 -159 0 -158 0 14 -32z"/>
</g>
</svg>
