M48
; DRILL file {KiCad 7.0.6} date Sun Nov 19 20:23:39 2023
; FORMAT={-:-/ absolute / inch / decimal}
; #@! TF.CreationDate,2023-11-19T20:23:39+09:00
; #@! TF.GenerationSoftware,Kicad,Pcbnew,7.0.6
; #@! TF.FileFunction,Plated,1,2,PTH
FMAT,2
INCH
; #@! TA.AperFunction,Plated,PTH,ViaDrill
T1C0.0157
; #@! TA.AperFunction,Plated,PTH,ComponentDrill
T2C0.0276
; #@! TA.AperFunction,Plated,PTH,ComponentDrill
T3C0.0315
; #@! TA.AperFunction,Plated,PTH,ComponentDrill
T4C0.0394
; #@! TA.AperFunction,Plated,PTH,ViaDrill
T5C0.0591
; #@! TA.AperFunction,Plated,PTH,ComponentDrill
T6C0.0669
; #@! TA.AperFunction,Plated,PTH,ComponentDrill
T7C0.0709
%
G90
G05
T1
X2.9Y-4.4
X3.0512Y-4.3504
X3.15Y-3.99
X3.15Y-4.35
X3.248Y-4.3504
X3.248Y-4.6654
X3.3303Y-3.68
X3.3465Y-3.937
X3.35Y-4.35
X3.4715Y-4.5624
T2
X3.2648Y-5.0485
X3.4617Y-5.0485
X4.564Y-4.3202
X4.564Y-4.3891
T3
X3.0004Y-4.4246
X3.0004Y-4.7246
X3.1004Y-4.4246
X3.1004Y-4.7246
X3.2004Y-4.4246
X3.2004Y-4.7246
X3.3004Y-4.4246
X3.3004Y-4.7246
X3.925Y-4.71
X3.925Y-5.01
X4.0157Y-4.2047
X4.0157Y-4.3031
X4.0157Y-4.4016
X4.065Y-4.71
X4.065Y-5.01
T4
X2.5151Y-3.3939
X2.5847Y-3.3243
T5
X3.6811Y-3.3465
T6
X2.4626Y-3.9466
X2.4626Y-4.1025
X2.4626Y-4.3403
X2.4626Y-4.4962
X2.7822Y-5.1056
X2.9381Y-5.1056
X3.001Y-3.2965
X3.1569Y-3.2965
T7
X3.5601Y-3.7946
X3.5601Y-4.7395
X3.6782Y-3.5387
X3.6782Y-4.4836
T0
M30
