0
SECTION
2
HEADER
9
$INSUNITS
70
4
9
$ACADVER
1
AC1014
9
$HANDSEED
5
FFFF
0
ENDSEC
0
SECTION
2
TABLES
0
TABLE
2
VPORT
5
8
100
AcDbSymbolTable
0
ENDTAB
0
TABLE
2
LTYPE
5
5
100
AcDbSymbolTable
0
LTYPE
5
14
100
AcDbSymbolTableRecord
100
AcDbLinetypeTableRecord
2
BYBLOCK
70
0
0
LTYPE
5
15
100
AcDbSymbolTableRecord
100
AcDbLinetypeTableRecord
2
BYLAYER
70
0
0
ENDTAB
0
TABLE
2
LAYER
5
2
100
AcDbSymbolTable
70
2
0
LAYER
5
50
100
AcDbSymbolTableRecord
100
AcDbLayerTableRecord
2
0
70
0
6
CONTINUOUS
0
ENDTAB
0
TABLE
2
STYLE
5
3
100
AcDbSymbolTable
70
1
0
STYLE
5
11
100
AcDbSymbolTableRecord
100
AcDbTextStyleTableRecord
2
STANDARD
70
0
0
ENDTAB
0
TABLE
2
VIEW
5
6
100
AcDbSymbolTable
70
0
0
ENDTAB
0
TABLE
2
UCS
5
7
100
AcDbSymbolTable
70
0
0
ENDTAB
0
TABLE
2
APPID
5
9
100
AcDbSymbolTable
70
2
0
APPID
5
12
100
AcDbSymbolTableRecord
100
AcDbRegAppTableRecord
2
ACAD
70
0
0
ENDTAB
0
TABLE
2
DIMSTYLE
5
A
100
AcDbSymbolTable
70
1
0
ENDTAB
0
TABLE
2
BLOCK_RECORD
5
1
100
AcDbSymbolTable
70
1
0
BLOCK_RECORD
5
1F
100
AcDbSymbolTableRecord
100
AcDbBlockTableRecord
2
*MODEL_SPACE
0
BLOCK_RECORD
5
1B
100
AcDbSymbolTableRecord
100
AcDbBlockTableRecord
2
*PAPER_SPACE
0
ENDTAB
0
ENDSEC
0
SECTION
2
BLOCKS
0
BLOCK
5
20
100
AcDbEntity
100
AcDbBlockBegin
2
*MODEL_SPACE
0
ENDBLK
5
21
100
AcDbEntity
100
AcDbBlockEnd
0
BLOCK
5
1C
100
AcDbEntity
100
AcDbBlockBegin
2
*PAPER_SPACE
0
ENDBLK
5
1D
100
AcDbEntity
100
AcDbBlockEnd
0
ENDSEC
0
SECTION
2
ENTITIES
0
LWPOLYLINE
5
100
100
AcDbEntity
8
0
100
AcDbPolyline
90
32
70
1
43
0.0
10
19.510902586009315
20
-9.8782724460197677
42
0.045615051602976332
10
19.507362422693767
20
-10.333462039113126
42
-0.096800766918094402
10
19.37307965122427
20
-11.553642484799159
42
0.045615051602976645
10
19.277545330711682
20
-11.998707976632579
42
-0.060106082795560546
10
13.575150323177184
20
-35.266006890415184
42
-0.31218295915781774
10
9.8321443102501149
20
-37.855366614798612
10
-1.6633950319511557
20
-37.855366614798626
42
-0.41421356237309398
10
-4.163395031951147
20
-35.355366614798626
10
-4.1633950319511559
20
-28.495366614798634
42
0.41421356237309348
10
-6.663395031951147
20
-25.995366614798638
10
-15.18580982395882
20
-25.99536661479863
42
-0.41421356237309453
10
-17.68580982395882
20
-23.495366614798634
10
-17.685809823958813
20
-11.663014581273414
42
0.046932439296634584
10
-17.729669473081611
20
-11.196780115802625
42
-0.09407208683835451
10
-17.729669473081611
20
-10.003219884197396
42
0.046932439296672471
10
-17.685809823958813
20
-9.5369854187266085
10
-17.685809823958792
20
9.5369854187265535
42
0.046932439296655165
10
-17.7296694730816
20
10.003219884197364
42
-0.094072086838356966
10
-17.7296694730816
20
11.196780115802625
42
0.046932439296652778
10
-17.685809823958792
20
11.663014581273426
10
-17.685809823958785
20
23.495366614798634
42
-0.41421356237309503
10
-15.185809823958785
20
25.995366614798634
10
-6.6633950319511115
20
25.995366614798634
42
0.41421356237309293
10
-4.1633950319511204
20
28.495366614798627
10
-4.1633950319511115
20
35.355366614798626
42
-0.41421356237309503
10
-1.6633950319511026
20
37.855366614798612
10
9.8321443102501682
20
37.855366614798584
42
-0.31218295915781624
10
13.575150323177233
20
35.266006890415099
42
-0.06010608279555988
10
19.277545330711678
20
11.998707976632762
42
0.045615051602899179
10
19.373079651224238
20
11.553642484799209
42
-0.096800766918094958
10
19.507362422693753
20
10.333462039113179
42
0.045615051603014219
10
19.510902586009326
20
9.8782724460198086
42
-0.049512444272368741
0
LINE
5
101
100
AcDbEntity
8
0
100
AcDbLine
10
18.351988286968641
20
-18.080000000000041
30
0
11
-17.685809823958813
21
-18.080000000000037
31
0
0
LWPOLYLINE
5
102
100
AcDbEntity
8
0
100
AcDbPolyline
90
4
70
1
43
0.0
10
-11.863395031951125
20
27.995366614798634
10
-11.863395031951116
20
35.855366614798633
10
3.5366049680488842
20
35.855366614798612
10
3.5366049680488665
20
27.99536661479862
0
LWPOLYLINE
5
103
100
AcDbEntity
8
0
100
AcDbPolyline
90
4
70
1
43
0.0
10
-11.863395031951161
20
-35.855366614798633
10
3.536604968048831
20
-35.855366614798633
10
3.536604968048831
20
-27.995366614798634
10
-11.863395031951161
20
-27.995366614798634
0
CIRCLE
5
104
100
AcDbEntity
8
0
100
AcDbCircle
10
-14.585809823958797
20
-10.600000000000009
30
0
40
1.6000000000000003
210
0
220
0
230
1
0
CIRCLE
5
105
100
AcDbEntity
8
0
100
AcDbCircle
10
16.318482130897536
20
10.600000000000005
30
0
40
1.5999999999999994
210
0
220
0
230
1
0
LINE
5
106
100
AcDbEntity
8
0
100
AcDbLine
10
-14.585809823958797
20
-10.600000000000009
30
0
11
-14.585809823958797
21
-9.0000001341104507
31
0
0
LINE
5
107
100
AcDbEntity
8
0
100
AcDbLine
10
16.318482130897536
20
10.600000000000005
30
0
11
16.318482130897536
21
12.200000000000006
31
0
0
LINE
5
108
100
AcDbEntity
8
0
100
AcDbLine
10
16.318482130897536
20
-10.600000000000005
30
0
11
14.718482130897534
21
-10.600000000000007
31
0
0
LINE
5
109
100
AcDbEntity
8
0
100
AcDbLine
10
16.318482130897536
20
10.600000000000005
30
0
11
14.718482130897534
21
10.600000000000005
31
0
0
LINE
5
110
100
AcDbEntity
8
0
100
AcDbLine
10
-14.585809823958797
20
-10.600000000000009
30
0
11
-16.185809823958799
21
-10.600000000000009
31
0
0
LINE
5
111
100
AcDbEntity
8
0
100
AcDbLine
10
18.351988286968659
20
18.080000000000005
30
0
11
-17.685809823958785
21
18.080000000000048
31
0
0
LINE
5
112
100
AcDbEntity
8
0
100
AcDbLine
10
16.318482130897536
20
-10.600000000000005
30
0
11
16.318482130897536
21
-9.0000000000000053
31
0
0
LINE
5
113
100
AcDbEntity
8
0
100
AcDbLine
10
-14.585809823958789
20
10.599999999999996
30
0
11
-14.585809823958789
21
12.199999999999992
31
0
0
CIRCLE
5
114
100
AcDbEntity
8
0
100
AcDbCircle
10
16.318482130897536
20
-10.600000000000005
30
0
40
1.5999999999999994
210
0
220
0
230
1
0
CIRCLE
5
115
100
AcDbEntity
8
0
100
AcDbCircle
10
-14.585809823958789
20
10.599999999999996
30
0
40
1.5999999999999994
210
0
220
0
230
1
0
LINE
5
116
100
AcDbEntity
8
0
100
AcDbLine
10
-14.585809823958789
20
10.599999999999996
30
0
11
-16.185809823958792
21
10.599999999999996
31
0
0
ENDSEC
0
SECTION
2
OBJECTS
0
DICTIONARY
5
C
100
AcDbDictionary
3
ACAD_GROUP
350
D
3
ACAD_MLINESTYLE
350
17
0
DICTIONARY
5
D
100
AcDbDictionary
0
DICTIONARY
5
1A
330
C
100
AcDbDictionary
0
DICTIONARY
5
17
100
AcDbDictionary
0
ENDSEC
0
EOF
