0
SECTION
2
HEADER
9
$INSUNITS
70
4
9
$ACADVER
1
AC1014
9
$HANDSEED
5
FFFF
0
ENDSEC
0
SECTION
2
TABLES
0
TABLE
2
VPORT
5
8
100
AcDbSymbolTable
0
ENDTAB
0
TABLE
2
LTYPE
5
5
100
AcDbSymbolTable
0
LTYPE
5
14
100
AcDbSymbolTableRecord
100
AcDbLinetypeTableRecord
2
BYBLOCK
70
0
0
LTYPE
5
15
100
AcDbSymbolTableRecord
100
AcDbLinetypeTableRecord
2
BYLAYER
70
0
0
ENDTAB
0
TABLE
2
LAYER
5
2
100
AcDbSymbolTable
70
2
0
LAYER
5
50
100
AcDbSymbolTableRecord
100
AcDbLayerTableRecord
2
0
70
0
6
CONTINUOUS
0
ENDTAB
0
TABLE
2
STYLE
5
3
100
AcDbSymbolTable
70
1
0
STYLE
5
11
100
AcDbSymbolTableRecord
100
AcDbTextStyleTableRecord
2
STANDARD
70
0
0
ENDTAB
0
TABLE
2
VIEW
5
6
100
AcDbSymbolTable
70
0
0
ENDTAB
0
TABLE
2
UCS
5
7
100
AcDbSymbolTable
70
0
0
ENDTAB
0
TABLE
2
APPID
5
9
100
AcDbSymbolTable
70
2
0
APPID
5
12
100
AcDbSymbolTableRecord
100
AcDbRegAppTableRecord
2
ACAD
70
0
0
ENDTAB
0
TABLE
2
DIMSTYLE
5
A
100
AcDbSymbolTable
70
1
0
ENDTAB
0
TABLE
2
BLOCK_RECORD
5
1
100
AcDbSymbolTable
70
1
0
BLOCK_RECORD
5
1F
100
AcDbSymbolTableRecord
100
AcDbBlockTableRecord
2
*MODEL_SPACE
0
BLOCK_RECORD
5
1B
100
AcDbSymbolTableRecord
100
AcDbBlockTableRecord
2
*PAPER_SPACE
0
ENDTAB
0
ENDSEC
0
SECTION
2
BLOCKS
0
BLOCK
5
20
100
AcDbEntity
100
AcDbBlockBegin
2
*MODEL_SPACE
0
ENDBLK
5
21
100
AcDbEntity
100
AcDbBlockEnd
0
BLOCK
5
1C
100
AcDbEntity
100
AcDbBlockBegin
2
*PAPER_SPACE
0
ENDBLK
5
1D
100
AcDbEntity
100
AcDbBlockEnd
0
ENDSEC
0
SECTION
2
ENTITIES
0
LWPOLYLINE
5
100
100
AcDbEntity
8
0
100
AcDbPolyline
90
52
70
1
43
0.0
10
7.5599999999997758
20
37.000000000000114
10
7.5600000000000156
20
20.000014000000483
10
35.476695999999997
20
20.0000140000008
42
0.19891101651523563
10
39.012234999999997
20
21.464485000000003
10
44.810503999995525
20
27.262754999995543
42
-0.99998232237294205
10
49.335988
20
22.737271000000003
10
42.073248999999969
20
15.474533000000029
42
0.41421358557251214
10
42.073248999999997
20
-15.474504999999997
10
49.335968000044687
20
-22.737223000035133
42
-1.0000048613486572
10
44.810504000000002
20
-27.262726999999998
10
39.018151000004067
20
-21.470372999995952
42
0.19934711201150568
10
35.476706000000007
20
-19.999985999999996
10
-35.476684999999996
20
-19.999985999996007
42
0.19891233769737612
10
-39.012217
20
-21.464451000000007
10
-44.810493000000022
20
-27.262728000000003
42
-0.99999999999999989
10
-49.335977
20
-22.737244000000008
10
-42.073235999997408
20
-15.474504000002611
42
0.41421361234006326
10
-42.073236000000009
20
15.474531999999996
10
-49.335977033717327
20
22.737272033717648
42
-0.9999999925494194
10
-44.810493000000157
20
27.26275599999984
10
-39.012216999998415
20
21.464479000001596
42
0.19891233769722924
10
-35.47668500000001
20
20.000013999999993
10
-7.559999999999989
20
20.000014000000309
10
-7.5600000000002154
20
36.999999999999915
10
-13.071069312880343
20
36.999999999999822
42
-0.19891236737969609
10
-15.192389656440302
20
37.878679656440454
10
-36.656855000001769
20
59.343144999998643
42
-0.19891497176451084
10
-39.000002000000208
20
65.000003000000191
10
-39.000001999999768
20
67.799999999999741
42
0.41421356237314017
10
-42.000001999999768
20
70.80000000000021
10
-42.200001999950878
20
70.80000000000021
42
-1.0000075000358368
10
-42.200002000000211
20
77.200000000000216
10
-42.00000200000018
20
77.200000000000216
42
0.41421356237308721
10
-41.000002000000173
20
78.200000000000159
10
-41.000002000000293
20
88.499996000000195
42
-0.41424105017326329
10
-39.999999000000209
20
89.500000000000227
10
-38.170381000000205
20
89.500000000000043
42
-0.24966090892056542
10
-37.340590999998753
20
89.058075000001168
42
0.53257460581099858
10
37.340588999999895
20
89.058075000000144
42
-0.25260106752805372
10
38.181442999999796
20
89.500000000000185
10
39.999998999999789
20
89.500000000000185
42
-0.41420300001710281
10
40.999998999999789
20
88.500000000000213
10
40.999999911504219
20
78.199999911504904
42
0.41421353645342202
10
41.999999911504496
20
77.200000000000472
10
42.199999000008262
20
77.200000000000188
42
-0.99999218752919505
10
42.199998999999778
20
70.800000000000182
10
41.999999999999893
20
70.80000000000021
42
0.41421356237310197
10
38.999999999999773
20
67.80000000000021
10
38.999999999999673
20
65.000000000000199
42
-0.19890942088034011
10
36.656852999999792
20
59.343145000000192
10
15.192387656439273
20
37.878679656440511
42
-0.19891236737965107
10
13.07106731287972
20
37.000000000000192
0
LINE
5
101
100
AcDbEntity
8
0
100
AcDbLine
10
-42.200026000000221
20
74.000000000000213
30
0
11
42.199973999999791
21
74.000000000000185
31
0
0
LINE
5
102
100
AcDbEntity
8
0
100
AcDbLine
10
-47.073235000000004
20
25.000014000000004
30
0
11
47.073247000022
21
-24.99998599992
31
0
0
LINE
5
103
100
AcDbEntity
8
0
100
AcDbLine
10
47.073205999735002
20
24.999972999735011
30
0
11
-47.073235000000011
21
-24.999986000000007
31
0
0
ENDSEC
0
SECTION
2
OBJECTS
0
DICTIONARY
5
C
100
AcDbDictionary
3
ACAD_GROUP
350
D
3
ACAD_MLINESTYLE
350
17
0
DICTIONARY
5
D
100
AcDbDictionary
0
DICTIONARY
5
1A
330
C
100
AcDbDictionary
0
DICTIONARY
5
17
100
AcDbDictionary
0
ENDSEC
0
EOF
