M48
; DRILL file {KiCad 7.0.6} date Sun Dec 17 00:49:34 2023
; FORMAT={-:-/ absolute / inch / decimal}
; #@! TF.CreationDate,2023-12-17T00:49:34+09:00
; #@! TF.GenerationSoftware,Kicad,Pcbnew,7.0.6
; #@! TF.FileFunction,Plated,1,2,PTH
FMAT,2
INCH
; #@! TA.AperFunction,Plated,PTH,ViaDrill
T1C0.0157
; #@! TA.AperFunction,Plated,PTH,ComponentDrill
T2C0.0374
; #@! TA.AperFunction,Plated,PTH,ComponentDrill
T3C0.0402
; #@! TA.AperFunction,Plated,PTH,ComponentDrill
T4C0.0669
%
G90
G05
T1
X3.3858Y-3.4882
X3.3858Y-3.5276
X3.3858Y-3.5669
X3.4055Y-3.6398
X3.4114Y-3.7398
X3.4114Y-3.7898
X3.4114Y-3.8398
X3.4114Y-4.0398
X3.4114Y-4.0898
X3.4114Y-4.1398
X3.4114Y-4.189
X3.4114Y-4.2382
X3.4252Y-3.4882
X3.4252Y-3.5276
X3.4252Y-3.5669
X3.4646Y-3.4882
X3.4646Y-3.5276
X3.4646Y-3.5669
X4.8252Y-4.0398
X4.8276Y-3.9398
X4.8323Y-3.7398
X4.8327Y-3.685
X4.8346Y-3.6398
T2
X2.878Y-3.5453
X2.878Y-3.6437
X2.878Y-3.7421
X2.878Y-3.8406
X2.878Y-3.939
X2.878Y-4.0374
X2.878Y-4.1358
X2.878Y-4.2343
X5.3504Y-3.5453
X5.3504Y-3.6437
X5.3504Y-3.7421
X5.3504Y-3.8406
X5.3504Y-3.939
X5.3504Y-4.0374
X5.3504Y-4.1358
X5.3504Y-4.2343
T3
X3.1614Y-3.5398
X3.1614Y-3.6398
X3.1614Y-3.7398
X3.1614Y-3.8398
X3.1614Y-3.9398
X3.1614Y-4.0398
X3.1614Y-4.1398
X3.1614Y-4.2398
X3.6614Y-3.5398
X3.6614Y-3.6398
X3.6614Y-3.7398
X3.6614Y-3.8398
X3.6614Y-3.9398
X3.6614Y-4.0398
X3.6614Y-4.1398
X3.6614Y-4.2398
X4.5669Y-3.5398
X4.5669Y-3.6398
X4.5669Y-3.7398
X4.5669Y-3.8398
X4.5669Y-3.9398
X4.5669Y-4.0398
X4.5669Y-4.1398
X4.5669Y-4.2398
X5.0669Y-3.5398
X5.0669Y-3.6398
X5.0669Y-3.7398
X5.0669Y-3.8398
X5.0669Y-3.9398
X5.0669Y-4.0398
X5.0669Y-4.1398
X5.0669Y-4.2398
T4
X2.8107Y-2.9708
X2.8107Y-4.8087
X2.9209Y-3.0811
X2.9209Y-4.6984
X3.2175Y-4.6248
X3.2175Y-4.7807
X5.0108Y-4.6248
X5.0108Y-4.7807
X5.3055Y-3.0811
X5.3055Y-4.6984
X5.4157Y-2.9708
X5.4157Y-4.8087
T0
M30
