M48
; DRILL file {KiCad 7.0.6} date Fri Dec  1 18:17:32 2023
; FORMAT={-:-/ absolute / inch / decimal}
; #@! TF.CreationDate,2023-12-01T18:17:32+09:00
; #@! TF.GenerationSoftware,Kicad,Pcbnew,7.0.6
; #@! TF.FileFunction,NonPlated,1,2,NPTH
FMAT,2
INCH
; #@! TA.AperFunction,NonPlated,NPTH,ComponentDrill
T1C0.0276
%
G90
G05
T1
X2.2244Y-2.687
X2.2244Y-2.7657
X2.2244Y-3.4941
X2.2244Y-3.5728
X2.2244Y-4.3012
X2.2244Y-4.3799
X2.2244Y-5.1083
X2.2244Y-5.187
X2.2638Y-2.687
X2.2638Y-2.7657
X2.2638Y-3.4941
X2.2638Y-3.5728
X2.2638Y-4.3012
X2.2638Y-4.3799
X2.2638Y-5.1083
X2.2638Y-5.187
X2.3031Y-2.687
X2.3031Y-2.7657
X2.3031Y-3.4941
X2.3031Y-3.5728
X2.3031Y-4.3012
X2.3031Y-4.3799
X2.3031Y-5.1083
X2.3031Y-5.187
X2.3425Y-2.687
X2.3425Y-2.7657
X2.3425Y-3.4941
X2.3425Y-3.5728
X2.3425Y-4.3012
X2.3425Y-4.3799
X2.3425Y-5.1083
X2.3425Y-5.187
X2.3819Y-2.687
X2.3819Y-2.7657
X2.3819Y-3.4941
X2.3819Y-3.5728
X2.3819Y-4.3012
X2.3819Y-4.3799
X2.3819Y-5.1083
X2.3819Y-5.187
X2.4213Y-2.687
X2.4213Y-2.7657
X2.4213Y-3.4941
X2.4213Y-3.5728
X2.4213Y-4.3012
X2.4213Y-4.3799
X2.4213Y-5.1083
X2.4213Y-5.187
X2.687Y-2.2244
X2.687Y-2.2638
X2.687Y-2.3031
X2.687Y-2.3425
X2.687Y-2.3819
X2.687Y-2.4213
X2.687Y-3.0315
X2.687Y-3.0709
X2.687Y-3.1102
X2.687Y-3.1496
X2.687Y-3.189
X2.687Y-3.2283
X2.687Y-3.8386
X2.687Y-3.878
X2.687Y-3.9173
X2.687Y-3.9567
X2.687Y-3.9961
X2.687Y-4.0354
X2.687Y-4.6457
X2.687Y-4.685
X2.687Y-4.7244
X2.687Y-4.7638
X2.687Y-4.8031
X2.687Y-4.8425
X2.687Y-5.4528
X2.687Y-5.4921
X2.687Y-5.5315
X2.687Y-5.5709
X2.687Y-5.6102
X2.687Y-5.6496
X2.7657Y-2.2244
X2.7657Y-2.2638
X2.7657Y-2.3031
X2.7657Y-2.3425
X2.7657Y-2.3819
X2.7657Y-2.4213
X2.7657Y-3.0315
X2.7657Y-3.0709
X2.7657Y-3.1102
X2.7657Y-3.1496
X2.7657Y-3.189
X2.7657Y-3.2283
X2.7657Y-3.8386
X2.7657Y-3.878
X2.7657Y-3.9173
X2.7657Y-3.9567
X2.7657Y-3.9961
X2.7657Y-4.0354
X2.7657Y-4.6457
X2.7657Y-4.685
X2.7657Y-4.7244
X2.7657Y-4.7638
X2.7657Y-4.8031
X2.7657Y-4.8425
X2.7657Y-5.4528
X2.7657Y-5.4921
X2.7657Y-5.5315
X2.7657Y-5.5709
X2.7657Y-5.6102
X2.7657Y-5.6496
X3.0315Y-2.687
X3.0315Y-2.7657
X3.0315Y-3.4941
X3.0315Y-3.5728
X3.0315Y-4.3012
X3.0315Y-4.3799
X3.0315Y-5.1083
X3.0315Y-5.187
X3.0709Y-2.687
X3.0709Y-2.7657
X3.0709Y-3.4941
X3.0709Y-3.5728
X3.0709Y-4.3012
X3.0709Y-4.3799
X3.0709Y-5.1083
X3.0709Y-5.187
X3.1102Y-2.687
X3.1102Y-2.7657
X3.1102Y-3.4941
X3.1102Y-3.5728
X3.1102Y-4.3012
X3.1102Y-4.3799
X3.1102Y-5.1083
X3.1102Y-5.187
X3.1496Y-2.687
X3.1496Y-2.7657
X3.1496Y-3.4941
X3.1496Y-3.5728
X3.1496Y-4.3012
X3.1496Y-4.3799
X3.1496Y-5.1083
X3.1496Y-5.187
X3.189Y-2.687
X3.189Y-2.7657
X3.189Y-3.4941
X3.189Y-3.5728
X3.189Y-4.3012
X3.189Y-4.3799
X3.189Y-5.1083
X3.189Y-5.187
X3.2283Y-2.687
X3.2283Y-2.7657
X3.2283Y-3.4941
X3.2283Y-3.5728
X3.2283Y-4.3012
X3.2283Y-4.3799
X3.2283Y-5.1083
X3.2283Y-5.187
X3.4941Y-2.2244
X3.4941Y-2.2638
X3.4941Y-2.3031
X3.4941Y-2.3425
X3.4941Y-2.3819
X3.4941Y-2.4213
X3.4941Y-3.0315
X3.4941Y-3.0709
X3.4941Y-3.1102
X3.4941Y-3.1496
X3.4941Y-3.189
X3.4941Y-3.2283
X3.4941Y-3.8386
X3.4941Y-3.878
X3.4941Y-3.9173
X3.4941Y-3.9567
X3.4941Y-3.9961
X3.4941Y-4.0354
X3.4941Y-4.6457
X3.4941Y-4.685
X3.4941Y-4.7244
X3.4941Y-4.7638
X3.4941Y-4.8031
X3.4941Y-4.8425
X3.4941Y-5.4528
X3.4941Y-5.4921
X3.4941Y-5.5315
X3.4941Y-5.5709
X3.4941Y-5.6102
X3.4941Y-5.6496
X3.5728Y-2.2244
X3.5728Y-2.2638
X3.5728Y-2.3031
X3.5728Y-2.3425
X3.5728Y-2.3819
X3.5728Y-2.4213
X3.5728Y-3.0315
X3.5728Y-3.0709
X3.5728Y-3.1102
X3.5728Y-3.1496
X3.5728Y-3.189
X3.5728Y-3.2283
X3.5728Y-3.8386
X3.5728Y-3.878
X3.5728Y-3.9173
X3.5728Y-3.9567
X3.5728Y-3.9961
X3.5728Y-4.0354
X3.5728Y-4.6457
X3.5728Y-4.685
X3.5728Y-4.7244
X3.5728Y-4.7638
X3.5728Y-4.8031
X3.5728Y-4.8425
X3.5728Y-5.4528
X3.5728Y-5.4921
X3.5728Y-5.5315
X3.5728Y-5.5709
X3.5728Y-5.6102
X3.5728Y-5.6496
X3.8386Y-2.687
X3.8386Y-2.7657
X3.8386Y-3.4941
X3.8386Y-3.5728
X3.8386Y-4.3012
X3.8386Y-4.3799
X3.8386Y-5.1083
X3.8386Y-5.187
X3.878Y-2.687
X3.878Y-2.7657
X3.878Y-3.4941
X3.878Y-3.5728
X3.878Y-4.3012
X3.878Y-4.3799
X3.878Y-5.1083
X3.878Y-5.187
X3.9173Y-2.687
X3.9173Y-2.7657
X3.9173Y-3.4941
X3.9173Y-3.5728
X3.9173Y-4.3012
X3.9173Y-4.3799
X3.9173Y-5.1083
X3.9173Y-5.187
X3.9567Y-2.687
X3.9567Y-2.7657
X3.9567Y-3.4941
X3.9567Y-3.5728
X3.9567Y-4.3012
X3.9567Y-4.3799
X3.9567Y-5.1083
X3.9567Y-5.187
X3.9961Y-2.687
X3.9961Y-2.7657
X3.9961Y-3.4941
X3.9961Y-3.5728
X3.9961Y-4.3012
X3.9961Y-4.3799
X3.9961Y-5.1083
X3.9961Y-5.187
X4.0354Y-2.687
X4.0354Y-2.7657
X4.0354Y-3.4941
X4.0354Y-3.5728
X4.0354Y-4.3012
X4.0354Y-4.3799
X4.0354Y-5.1083
X4.0354Y-5.187
X4.3012Y-2.2244
X4.3012Y-2.2638
X4.3012Y-2.3031
X4.3012Y-2.3425
X4.3012Y-2.3819
X4.3012Y-2.4213
X4.3012Y-3.0315
X4.3012Y-3.0709
X4.3012Y-3.1102
X4.3012Y-3.1496
X4.3012Y-3.189
X4.3012Y-3.2283
X4.3012Y-3.8386
X4.3012Y-3.878
X4.3012Y-3.9173
X4.3012Y-3.9567
X4.3012Y-3.9961
X4.3012Y-4.0354
X4.3012Y-4.6457
X4.3012Y-4.685
X4.3012Y-4.7244
X4.3012Y-4.7638
X4.3012Y-4.8031
X4.3012Y-4.8425
X4.3012Y-5.4528
X4.3012Y-5.4921
X4.3012Y-5.5315
X4.3012Y-5.5709
X4.3012Y-5.6102
X4.3012Y-5.6496
X4.3799Y-2.2244
X4.3799Y-2.2638
X4.3799Y-2.3031
X4.3799Y-2.3425
X4.3799Y-2.3819
X4.3799Y-2.4213
X4.3799Y-3.0315
X4.3799Y-3.0709
X4.3799Y-3.1102
X4.3799Y-3.1496
X4.3799Y-3.189
X4.3799Y-3.2283
X4.3799Y-3.8386
X4.3799Y-3.878
X4.3799Y-3.9173
X4.3799Y-3.9567
X4.3799Y-3.9961
X4.3799Y-4.0354
X4.3799Y-4.6457
X4.3799Y-4.685
X4.3799Y-4.7244
X4.3799Y-4.7638
X4.3799Y-4.8031
X4.3799Y-4.8425
X4.3799Y-5.4528
X4.3799Y-5.4921
X4.3799Y-5.5315
X4.3799Y-5.5709
X4.3799Y-5.6102
X4.3799Y-5.6496
X4.6457Y-2.687
X4.6457Y-2.7657
X4.6457Y-3.4941
X4.6457Y-3.5728
X4.6457Y-4.3012
X4.6457Y-4.3799
X4.6457Y-5.1083
X4.6457Y-5.187
X4.685Y-2.687
X4.685Y-2.7657
X4.685Y-3.4941
X4.685Y-3.5728
X4.685Y-4.3012
X4.685Y-4.3799
X4.685Y-5.1083
X4.685Y-5.187
X4.7244Y-2.687
X4.7244Y-2.7657
X4.7244Y-3.4941
X4.7244Y-3.5728
X4.7244Y-4.3012
X4.7244Y-4.3799
X4.7244Y-5.1083
X4.7244Y-5.187
X4.7638Y-2.687
X4.7638Y-2.7657
X4.7638Y-3.4941
X4.7638Y-3.5728
X4.7638Y-4.3012
X4.7638Y-4.3799
X4.7638Y-5.1083
X4.7638Y-5.187
X4.8031Y-2.687
X4.8031Y-2.7657
X4.8031Y-3.4941
X4.8031Y-3.5728
X4.8031Y-4.3012
X4.8031Y-4.3799
X4.8031Y-5.1083
X4.8031Y-5.187
X4.8425Y-2.687
X4.8425Y-2.7657
X4.8425Y-3.4941
X4.8425Y-3.5728
X4.8425Y-4.3012
X4.8425Y-4.3799
X4.8425Y-5.1083
X4.8425Y-5.187
X5.1083Y-2.2244
X5.1083Y-2.2638
X5.1083Y-2.3031
X5.1083Y-2.3425
X5.1083Y-2.3819
X5.1083Y-2.4213
X5.1083Y-3.0315
X5.1083Y-3.0709
X5.1083Y-3.1102
X5.1083Y-3.1496
X5.1083Y-3.189
X5.1083Y-3.2283
X5.1083Y-3.8386
X5.1083Y-3.878
X5.1083Y-3.9173
X5.1083Y-3.9567
X5.1083Y-3.9961
X5.1083Y-4.0354
X5.1083Y-4.6457
X5.1083Y-4.685
X5.1083Y-4.7244
X5.1083Y-4.7638
X5.1083Y-4.8031
X5.1083Y-4.8425
X5.1083Y-5.4528
X5.1083Y-5.4921
X5.1083Y-5.5315
X5.1083Y-5.5709
X5.1083Y-5.6102
X5.1083Y-5.6496
X5.187Y-2.2244
X5.187Y-2.2638
X5.187Y-2.3031
X5.187Y-2.3425
X5.187Y-2.3819
X5.187Y-2.4213
X5.187Y-3.0315
X5.187Y-3.0709
X5.187Y-3.1102
X5.187Y-3.1496
X5.187Y-3.189
X5.187Y-3.2283
X5.187Y-3.8386
X5.187Y-3.878
X5.187Y-3.9173
X5.187Y-3.9567
X5.187Y-3.9961
X5.187Y-4.0354
X5.187Y-4.6457
X5.187Y-4.685
X5.187Y-4.7244
X5.187Y-4.7638
X5.187Y-4.8031
X5.187Y-4.8425
X5.187Y-5.4528
X5.187Y-5.4921
X5.187Y-5.5315
X5.187Y-5.5709
X5.187Y-5.6102
X5.187Y-5.6496
X5.4528Y-2.687
X5.4528Y-2.7657
X5.4528Y-3.4941
X5.4528Y-3.5728
X5.4528Y-4.3012
X5.4528Y-4.3799
X5.4528Y-5.1083
X5.4528Y-5.187
X5.4921Y-2.687
X5.4921Y-2.7657
X5.4921Y-3.4941
X5.4921Y-3.5728
X5.4921Y-4.3012
X5.4921Y-4.3799
X5.4921Y-5.1083
X5.4921Y-5.187
X5.5315Y-2.687
X5.5315Y-2.7657
X5.5315Y-3.4941
X5.5315Y-3.5728
X5.5315Y-4.3012
X5.5315Y-4.3799
X5.5315Y-5.1083
X5.5315Y-5.187
X5.5709Y-2.687
X5.5709Y-2.7657
X5.5709Y-3.4941
X5.5709Y-3.5728
X5.5709Y-4.3012
X5.5709Y-4.3799
X5.5709Y-5.1083
X5.5709Y-5.187
X5.6102Y-2.687
X5.6102Y-2.7657
X5.6102Y-3.4941
X5.6102Y-3.5728
X5.6102Y-4.3012
X5.6102Y-4.3799
X5.6102Y-5.1083
X5.6102Y-5.187
X5.6496Y-2.687
X5.6496Y-2.7657
X5.6496Y-3.4941
X5.6496Y-3.5728
X5.6496Y-4.3012
X5.6496Y-4.3799
X5.6496Y-5.1083
X5.6496Y-5.187
T0
M30
