%TF.GenerationSoftware,KiCad,Pcbnew,8.0.1*%
%TF.CreationDate,2024-08-04T20:51:24+09:00*%
%TF.ProjectId,Kicker-20240411,4b69636b-6572-42d3-9230-323430343131,rev?*%
%TF.SameCoordinates,Original*%
%TF.FileFunction,Legend,Top*%
%TF.FilePolarity,Positive*%
%FSLAX46Y46*%
G04 Gerber Fmt 4.6, Leading zero omitted, Abs format (unit mm)*
G04 Created by KiCad (PCBNEW 8.0.1) date 2024-08-04 20:51:24*
%MOMM*%
%LPD*%
G01*
G04 APERTURE LIST*
G04 Aperture macros list*
%AMRoundRect*
0 Rectangle with rounded corners*
0 $1 Rounding radius*
0 $2 $3 $4 $5 $6 $7 $8 $9 X,Y pos of 4 corners*
0 Add a 4 corners polygon primitive as box body*
4,1,4,$2,$3,$4,$5,$6,$7,$8,$9,$2,$3,0*
0 Add four circle primitives for the rounded corners*
1,1,$1+$1,$2,$3*
1,1,$1+$1,$4,$5*
1,1,$1+$1,$6,$7*
1,1,$1+$1,$8,$9*
0 Add four rect primitives between the rounded corners*
20,1,$1+$1,$2,$3,$4,$5,0*
20,1,$1+$1,$4,$5,$6,$7,0*
20,1,$1+$1,$6,$7,$8,$9,0*
20,1,$1+$1,$8,$9,$2,$3,0*%
G04 Aperture macros list end*
%ADD10C,0.000000*%
%ADD11C,0.150000*%
%ADD12C,0.100000*%
%ADD13C,0.120000*%
%ADD14RoundRect,0.200000X-0.200000X-0.275000X0.200000X-0.275000X0.200000X0.275000X-0.200000X0.275000X0*%
%ADD15RoundRect,0.225000X-0.225000X-0.250000X0.225000X-0.250000X0.225000X0.250000X-0.225000X0.250000X0*%
%ADD16C,3.200000*%
%ADD17RoundRect,0.250200X0.649800X-0.649800X0.649800X0.649800X-0.649800X0.649800X-0.649800X-0.649800X0*%
%ADD18C,1.800000*%
%ADD19R,2.000000X0.640000*%
%ADD20R,2.400000X2.400000*%
%ADD21C,2.400000*%
%ADD22RoundRect,0.250000X-0.600000X-0.750000X0.600000X-0.750000X0.600000X0.750000X-0.600000X0.750000X0*%
%ADD23O,1.700000X2.000000*%
%ADD24RoundRect,0.200000X0.200000X0.275000X-0.200000X0.275000X-0.200000X-0.275000X0.200000X-0.275000X0*%
%ADD25R,3.000000X3.000000*%
%ADD26RoundRect,0.250200X-0.649800X0.649800X-0.649800X-0.649800X0.649800X-0.649800X0.649800X0.649800X0*%
%ADD27R,1.700000X1.700000*%
%ADD28O,1.700000X1.700000*%
G04 APERTURE END LIST*
D10*
G36*
X4720791Y-7939208D02*
G01*
X4803341Y-8203791D01*
X4811547Y-8229905D01*
X4819381Y-8253947D01*
X4826670Y-8275434D01*
X4833239Y-8293882D01*
X4838915Y-8308808D01*
X4841364Y-8314799D01*
X4843524Y-8319729D01*
X4845375Y-8323535D01*
X4846894Y-8326159D01*
X4847522Y-8327009D01*
X4848059Y-8327540D01*
X4848503Y-8327745D01*
X4848850Y-8327616D01*
X4851570Y-8321246D01*
X4857118Y-8305226D01*
X4875308Y-8248506D01*
X4900642Y-8165989D01*
X4930341Y-8066208D01*
X5004424Y-7810092D01*
X5160000Y-7806917D01*
X5220473Y-7806338D01*
X5269934Y-7806255D01*
X5288953Y-7806431D01*
X5303321Y-7806768D01*
X5312406Y-7807278D01*
X5314769Y-7807603D01*
X5315371Y-7807783D01*
X5315574Y-7807975D01*
X5259532Y-7964261D01*
X5134732Y-8295470D01*
X5006161Y-8630846D01*
X4938807Y-8799633D01*
X4928238Y-8818147D01*
X4917504Y-8835230D01*
X4906516Y-8850939D01*
X4895184Y-8865333D01*
X4883418Y-8878467D01*
X4871128Y-8890400D01*
X4858224Y-8901188D01*
X4844616Y-8910890D01*
X4830214Y-8919563D01*
X4814929Y-8927264D01*
X4798670Y-8934049D01*
X4781348Y-8939978D01*
X4762872Y-8945107D01*
X4743153Y-8949493D01*
X4722100Y-8953193D01*
X4699625Y-8956266D01*
X4684929Y-8957833D01*
X4667736Y-8958976D01*
X4648500Y-8959720D01*
X4627674Y-8960086D01*
X4583073Y-8959782D01*
X4537567Y-8958251D01*
X4494789Y-8955677D01*
X4458374Y-8952248D01*
X4443688Y-8950271D01*
X4431955Y-8948149D01*
X4423630Y-8945907D01*
X4420887Y-8944747D01*
X4419166Y-8943567D01*
X4417858Y-8940940D01*
X4416341Y-8935652D01*
X4412833Y-8918348D01*
X4408953Y-8894174D01*
X4405011Y-8865647D01*
X4401318Y-8835284D01*
X4398182Y-8805603D01*
X4395914Y-8779122D01*
X4394825Y-8758358D01*
X4394864Y-8753096D01*
X4394992Y-8748407D01*
X4395223Y-8744271D01*
X4395380Y-8742402D01*
X4395569Y-8740664D01*
X4395790Y-8739053D01*
X4396046Y-8737566D01*
X4396337Y-8736201D01*
X4396667Y-8734955D01*
X4397035Y-8733825D01*
X4397446Y-8732809D01*
X4397899Y-8731903D01*
X4398397Y-8731106D01*
X4398941Y-8730414D01*
X4399534Y-8729825D01*
X4400176Y-8729336D01*
X4400871Y-8728944D01*
X4401619Y-8728647D01*
X4402422Y-8728441D01*
X4403282Y-8728325D01*
X4404201Y-8728295D01*
X4405180Y-8728349D01*
X4406222Y-8728483D01*
X4407327Y-8728697D01*
X4408498Y-8728985D01*
X4409737Y-8729347D01*
X4411044Y-8729778D01*
X4413874Y-8730841D01*
X4421466Y-8733482D01*
X4430603Y-8735844D01*
X4441071Y-8737920D01*
X4452653Y-8739705D01*
X4465134Y-8741192D01*
X4478299Y-8742376D01*
X4491932Y-8743249D01*
X4505817Y-8743806D01*
X4519740Y-8744041D01*
X4533485Y-8743947D01*
X4546836Y-8743518D01*
X4559577Y-8742748D01*
X4571494Y-8741631D01*
X4582371Y-8740160D01*
X4591991Y-8738329D01*
X4600141Y-8736133D01*
X4605191Y-8734445D01*
X4610034Y-8732549D01*
X4614684Y-8730436D01*
X4619158Y-8728096D01*
X4623470Y-8725521D01*
X4627637Y-8722701D01*
X4631674Y-8719627D01*
X4635595Y-8716289D01*
X4639418Y-8712679D01*
X4643157Y-8708786D01*
X4646827Y-8704602D01*
X4650445Y-8700117D01*
X4654026Y-8695322D01*
X4657585Y-8690207D01*
X4661137Y-8684764D01*
X4664699Y-8678983D01*
X4691157Y-8633475D01*
X4531349Y-8253533D01*
X4414404Y-7974662D01*
X4357784Y-7838667D01*
X4342967Y-7804800D01*
X4678458Y-7804800D01*
X4720791Y-7939208D01*
G37*
G36*
X-1066175Y-8064092D02*
G01*
X-1066113Y-8121030D01*
X-1065830Y-8171093D01*
X-1065177Y-8214722D01*
X-1064009Y-8252359D01*
X-1063185Y-8269069D01*
X-1062176Y-8284446D01*
X-1060965Y-8298547D01*
X-1059533Y-8311425D01*
X-1057862Y-8323137D01*
X-1055932Y-8333738D01*
X-1053726Y-8343282D01*
X-1051226Y-8351826D01*
X-1048412Y-8359424D01*
X-1045267Y-8366131D01*
X-1041771Y-8372003D01*
X-1037908Y-8377096D01*
X-1033657Y-8381463D01*
X-1029001Y-8385161D01*
X-1023922Y-8388245D01*
X-1018401Y-8390769D01*
X-1012419Y-8392790D01*
X-1005958Y-8394362D01*
X-999000Y-8395541D01*
X-991527Y-8396381D01*
X-983519Y-8396939D01*
X-974959Y-8397269D01*
X-956108Y-8397467D01*
X-950992Y-8397368D01*
X-945965Y-8397072D01*
X-941027Y-8396580D01*
X-936181Y-8395894D01*
X-931429Y-8395014D01*
X-926770Y-8393944D01*
X-922208Y-8392682D01*
X-917743Y-8391232D01*
X-913378Y-8389595D01*
X-909113Y-8387771D01*
X-904951Y-8385762D01*
X-900893Y-8383570D01*
X-896940Y-8381195D01*
X-893094Y-8378640D01*
X-889356Y-8375905D01*
X-885729Y-8372993D01*
X-882213Y-8369903D01*
X-878810Y-8366638D01*
X-875522Y-8363199D01*
X-872351Y-8359588D01*
X-869297Y-8355805D01*
X-866362Y-8351852D01*
X-863549Y-8347731D01*
X-860858Y-8343442D01*
X-858291Y-8338987D01*
X-855849Y-8334368D01*
X-851349Y-8324642D01*
X-847370Y-8314274D01*
X-843925Y-8303275D01*
X-841951Y-8290856D01*
X-840039Y-8270202D01*
X-838251Y-8242404D01*
X-836649Y-8208554D01*
X-834251Y-8127062D01*
X-833342Y-8034458D01*
X-833342Y-7804800D01*
X-515841Y-7804800D01*
X-515841Y-8630300D01*
X-812175Y-8630300D01*
X-812175Y-8499066D01*
X-861917Y-8547750D01*
X-875345Y-8560354D01*
X-888683Y-8571988D01*
X-901986Y-8582673D01*
X-915313Y-8592431D01*
X-928720Y-8601284D01*
X-942265Y-8609253D01*
X-956006Y-8616360D01*
X-969999Y-8622627D01*
X-984302Y-8628075D01*
X-998973Y-8632727D01*
X-1014068Y-8636603D01*
X-1029646Y-8639726D01*
X-1045763Y-8642117D01*
X-1062477Y-8643798D01*
X-1079845Y-8644790D01*
X-1097925Y-8645116D01*
X-1116197Y-8645016D01*
X-1133724Y-8644312D01*
X-1150529Y-8642998D01*
X-1166634Y-8641065D01*
X-1182063Y-8638506D01*
X-1196840Y-8635312D01*
X-1210987Y-8631477D01*
X-1224528Y-8626993D01*
X-1237486Y-8621850D01*
X-1249884Y-8616043D01*
X-1261746Y-8609563D01*
X-1273095Y-8602403D01*
X-1283954Y-8594554D01*
X-1294347Y-8586009D01*
X-1304296Y-8576760D01*
X-1313825Y-8566800D01*
X-1325074Y-8553770D01*
X-1335057Y-8540947D01*
X-1343851Y-8527842D01*
X-1351528Y-8513966D01*
X-1358163Y-8498831D01*
X-1363831Y-8481949D01*
X-1368606Y-8462832D01*
X-1372562Y-8440990D01*
X-1375774Y-8415937D01*
X-1378317Y-8387183D01*
X-1381690Y-8316620D01*
X-1383278Y-8225394D01*
X-1383675Y-8109600D01*
X-1383675Y-7804800D01*
X-1066175Y-7804800D01*
X-1066175Y-8064092D01*
G37*
G36*
X1142401Y-7790827D02*
G01*
X1157421Y-7791135D01*
X1174052Y-7791703D01*
X1210069Y-7793572D01*
X1228412Y-7794847D01*
X1246283Y-7796333D01*
X1291691Y-7801618D01*
X1313329Y-7805250D01*
X1334259Y-7809544D01*
X1354484Y-7814500D01*
X1374004Y-7820120D01*
X1392821Y-7826406D01*
X1410937Y-7833358D01*
X1428354Y-7840979D01*
X1445074Y-7849269D01*
X1461098Y-7858230D01*
X1476428Y-7867864D01*
X1491065Y-7878171D01*
X1505013Y-7889153D01*
X1518271Y-7900811D01*
X1530843Y-7913147D01*
X1542729Y-7926162D01*
X1553932Y-7939857D01*
X1564453Y-7954234D01*
X1574295Y-7969294D01*
X1583458Y-7985039D01*
X1591944Y-8001469D01*
X1599756Y-8018587D01*
X1606894Y-8036393D01*
X1613362Y-8054889D01*
X1619159Y-8074076D01*
X1624289Y-8093956D01*
X1628753Y-8114530D01*
X1635690Y-8157765D01*
X1639984Y-8203791D01*
X1646333Y-8302216D01*
X1332009Y-8302216D01*
X1218564Y-8302173D01*
X1173325Y-8302293D01*
X1135059Y-8302663D01*
X1118381Y-8302978D01*
X1103255Y-8303399D01*
X1089616Y-8303940D01*
X1077401Y-8304616D01*
X1066545Y-8305442D01*
X1056985Y-8306432D01*
X1048657Y-8307601D01*
X1041496Y-8308963D01*
X1035439Y-8310533D01*
X1030422Y-8312325D01*
X1028284Y-8313309D01*
X1026381Y-8314354D01*
X1024707Y-8315462D01*
X1023252Y-8316634D01*
X1022010Y-8317873D01*
X1020971Y-8319180D01*
X1020129Y-8320558D01*
X1019474Y-8322007D01*
X1019000Y-8323530D01*
X1018697Y-8325128D01*
X1018559Y-8326804D01*
X1018576Y-8328559D01*
X1019048Y-8332314D01*
X1020048Y-8336407D01*
X1021512Y-8340854D01*
X1023376Y-8345668D01*
X1033559Y-8368892D01*
X1037678Y-8377904D01*
X1042283Y-8386484D01*
X1047347Y-8394626D01*
X1052848Y-8402326D01*
X1058762Y-8409579D01*
X1065064Y-8416379D01*
X1071730Y-8422723D01*
X1078736Y-8428605D01*
X1086059Y-8434020D01*
X1093674Y-8438963D01*
X1101557Y-8443431D01*
X1109684Y-8447417D01*
X1118032Y-8450917D01*
X1126575Y-8453926D01*
X1135291Y-8456440D01*
X1144154Y-8458453D01*
X1153142Y-8459961D01*
X1162230Y-8460958D01*
X1171393Y-8461440D01*
X1180609Y-8461403D01*
X1189852Y-8460840D01*
X1199100Y-8459748D01*
X1208327Y-8458122D01*
X1217510Y-8455956D01*
X1226625Y-8453246D01*
X1235647Y-8449987D01*
X1244553Y-8446174D01*
X1253319Y-8441803D01*
X1261921Y-8436868D01*
X1270334Y-8431364D01*
X1278535Y-8425288D01*
X1286500Y-8418633D01*
X1321425Y-8389000D01*
X1465358Y-8401700D01*
X1494522Y-8404213D01*
X1522062Y-8406925D01*
X1547344Y-8409737D01*
X1569736Y-8412548D01*
X1588607Y-8415260D01*
X1603322Y-8417773D01*
X1608924Y-8418925D01*
X1613250Y-8419989D01*
X1616221Y-8420955D01*
X1617174Y-8421396D01*
X1617759Y-8421808D01*
X1618512Y-8423023D01*
X1618800Y-8424668D01*
X1618642Y-8426720D01*
X1618056Y-8429157D01*
X1615675Y-8435093D01*
X1611805Y-8442297D01*
X1606596Y-8450586D01*
X1600197Y-8459778D01*
X1592755Y-8469693D01*
X1584421Y-8480149D01*
X1575343Y-8490964D01*
X1565669Y-8501958D01*
X1555548Y-8512949D01*
X1545130Y-8523755D01*
X1534564Y-8534196D01*
X1523997Y-8544089D01*
X1513579Y-8553254D01*
X1503459Y-8561508D01*
X1485716Y-8573969D01*
X1466293Y-8585542D01*
X1445295Y-8596206D01*
X1422827Y-8605942D01*
X1398995Y-8614728D01*
X1373904Y-8622546D01*
X1347659Y-8629375D01*
X1320367Y-8635195D01*
X1292132Y-8639985D01*
X1263060Y-8643725D01*
X1233256Y-8646396D01*
X1202826Y-8647977D01*
X1171875Y-8648448D01*
X1140508Y-8647789D01*
X1108831Y-8645980D01*
X1076950Y-8643000D01*
X1048446Y-8639295D01*
X1021605Y-8634893D01*
X996329Y-8629740D01*
X972522Y-8623784D01*
X950086Y-8616973D01*
X939351Y-8613230D01*
X928922Y-8609253D01*
X918787Y-8605036D01*
X908933Y-8600572D01*
X899349Y-8595854D01*
X890022Y-8590877D01*
X880940Y-8585633D01*
X872091Y-8580115D01*
X863462Y-8574318D01*
X855041Y-8568234D01*
X846817Y-8561858D01*
X838776Y-8555181D01*
X830908Y-8548199D01*
X823198Y-8540904D01*
X815636Y-8533289D01*
X808209Y-8525349D01*
X793712Y-8508463D01*
X779608Y-8490195D01*
X765800Y-8470491D01*
X755766Y-8454669D01*
X746498Y-8438382D01*
X737994Y-8421666D01*
X730249Y-8404559D01*
X723262Y-8387097D01*
X717029Y-8369319D01*
X711548Y-8351260D01*
X706815Y-8332958D01*
X699583Y-8295772D01*
X695312Y-8258058D01*
X693976Y-8220111D01*
X695553Y-8182228D01*
X700020Y-8144704D01*
X700267Y-8143467D01*
X1015567Y-8143467D01*
X1325659Y-8143467D01*
X1319309Y-8113833D01*
X1316643Y-8103329D01*
X1313806Y-8093254D01*
X1310802Y-8083612D01*
X1307634Y-8074410D01*
X1304304Y-8065655D01*
X1300817Y-8057353D01*
X1297174Y-8049509D01*
X1293379Y-8042131D01*
X1289436Y-8035224D01*
X1285347Y-8028794D01*
X1281115Y-8022849D01*
X1276744Y-8017393D01*
X1272236Y-8012433D01*
X1269932Y-8010141D01*
X1267595Y-8007975D01*
X1265225Y-8005937D01*
X1262824Y-8004026D01*
X1260390Y-8002244D01*
X1257925Y-8000592D01*
X1250575Y-7996240D01*
X1242482Y-7992321D01*
X1233748Y-7988846D01*
X1224472Y-7985824D01*
X1214756Y-7983268D01*
X1204701Y-7981188D01*
X1194406Y-7979595D01*
X1183974Y-7978499D01*
X1173505Y-7977911D01*
X1163099Y-7977843D01*
X1152858Y-7978306D01*
X1142881Y-7979309D01*
X1133271Y-7980864D01*
X1124127Y-7982982D01*
X1115550Y-7985674D01*
X1107642Y-7988950D01*
X1099970Y-7992699D01*
X1092455Y-7997166D01*
X1085129Y-8002300D01*
X1078025Y-8008049D01*
X1071175Y-8014363D01*
X1064612Y-8021190D01*
X1058368Y-8028478D01*
X1052476Y-8036178D01*
X1046969Y-8044237D01*
X1041878Y-8052605D01*
X1037237Y-8061230D01*
X1033079Y-8070061D01*
X1029435Y-8079047D01*
X1026338Y-8088138D01*
X1023821Y-8097280D01*
X1021916Y-8106425D01*
X1015567Y-8143467D01*
X700267Y-8143467D01*
X707354Y-8107837D01*
X717531Y-8071921D01*
X723678Y-8054412D01*
X730528Y-8037253D01*
X738076Y-8020479D01*
X746321Y-8004129D01*
X755260Y-7988239D01*
X764889Y-7972845D01*
X775205Y-7957986D01*
X786206Y-7943698D01*
X797889Y-7930018D01*
X810250Y-7916983D01*
X824860Y-7903279D01*
X840111Y-7890345D01*
X856001Y-7878183D01*
X872526Y-7866795D01*
X889684Y-7856182D01*
X907472Y-7846346D01*
X925886Y-7837288D01*
X944923Y-7829009D01*
X964580Y-7821512D01*
X984854Y-7814798D01*
X1005742Y-7808869D01*
X1027241Y-7803725D01*
X1049348Y-7799369D01*
X1072059Y-7795802D01*
X1095372Y-7793026D01*
X1119283Y-7791042D01*
X1129515Y-7790791D01*
X1142401Y-7790827D01*
G37*
G36*
X170538Y-7792712D02*
G01*
X203398Y-7795120D01*
X234924Y-7798845D01*
X265102Y-7803881D01*
X293916Y-7810224D01*
X321354Y-7817869D01*
X347401Y-7826812D01*
X372044Y-7837048D01*
X395268Y-7848572D01*
X417059Y-7861380D01*
X437405Y-7875466D01*
X456290Y-7890827D01*
X465180Y-7898984D01*
X473700Y-7907458D01*
X481907Y-7916310D01*
X490191Y-7926080D01*
X498457Y-7936598D01*
X506608Y-7947691D01*
X514548Y-7959188D01*
X522181Y-7970915D01*
X529411Y-7982701D01*
X536142Y-7994374D01*
X542278Y-8005761D01*
X547722Y-8016692D01*
X552378Y-8026993D01*
X556151Y-8036492D01*
X558944Y-8045018D01*
X560662Y-8052398D01*
X561087Y-8055605D01*
X561207Y-8058461D01*
X561010Y-8060944D01*
X560484Y-8063033D01*
X559398Y-8064633D01*
X557350Y-8066254D01*
X554372Y-8067893D01*
X550496Y-8069549D01*
X545751Y-8071216D01*
X540169Y-8072893D01*
X526617Y-8076262D01*
X510089Y-8079632D01*
X490832Y-8082976D01*
X469095Y-8086271D01*
X445125Y-8089492D01*
X400659Y-8094535D01*
X359268Y-8099678D01*
X325616Y-8104225D01*
X304367Y-8107483D01*
X299449Y-8108174D01*
X294984Y-8108641D01*
X290933Y-8108860D01*
X289048Y-8108869D01*
X287252Y-8108806D01*
X285537Y-8108669D01*
X283899Y-8108455D01*
X282333Y-8108160D01*
X280833Y-8107781D01*
X279395Y-8107315D01*
X278013Y-8106760D01*
X276681Y-8106111D01*
X275395Y-8105367D01*
X274149Y-8104523D01*
X272939Y-8103576D01*
X271758Y-8102525D01*
X270601Y-8101365D01*
X269465Y-8100093D01*
X268342Y-8098706D01*
X267228Y-8097202D01*
X266118Y-8095577D01*
X263888Y-8091951D01*
X261610Y-8087805D01*
X259242Y-8083113D01*
X256742Y-8077850D01*
X252207Y-8068996D01*
X246954Y-8060700D01*
X241010Y-8052970D01*
X234401Y-8045819D01*
X227153Y-8039257D01*
X219293Y-8033294D01*
X210847Y-8027943D01*
X201841Y-8023213D01*
X192302Y-8019116D01*
X182256Y-8015662D01*
X171729Y-8012863D01*
X160748Y-8010728D01*
X149339Y-8009270D01*
X137529Y-8008498D01*
X125343Y-8008424D01*
X112809Y-8009058D01*
X93074Y-8011146D01*
X74736Y-8014652D01*
X66085Y-8016944D01*
X57777Y-8019602D01*
X49810Y-8022627D01*
X42182Y-8026025D01*
X34889Y-8029797D01*
X27932Y-8033948D01*
X21306Y-8038481D01*
X15010Y-8043400D01*
X9042Y-8048708D01*
X3400Y-8054409D01*
X-1918Y-8060506D01*
X-6915Y-8067002D01*
X-11593Y-8073901D01*
X-15953Y-8081207D01*
X-19998Y-8088923D01*
X-23731Y-8097053D01*
X-27152Y-8105599D01*
X-30265Y-8114566D01*
X-35573Y-8133776D01*
X-39672Y-8154710D01*
X-42578Y-8177395D01*
X-44310Y-8201860D01*
X-44883Y-8228133D01*
X-44830Y-8241781D01*
X-44660Y-8254217D01*
X-44353Y-8265547D01*
X-43891Y-8275874D01*
X-43255Y-8285302D01*
X-42427Y-8293934D01*
X-41389Y-8301875D01*
X-40121Y-8309228D01*
X-38604Y-8316098D01*
X-36822Y-8322587D01*
X-34753Y-8328801D01*
X-32382Y-8334843D01*
X-29687Y-8340816D01*
X-26652Y-8346826D01*
X-23257Y-8352974D01*
X-19483Y-8359366D01*
X-14024Y-8367579D01*
X-8177Y-8375349D01*
X-1967Y-8382673D01*
X4586Y-8389548D01*
X11457Y-8395970D01*
X18626Y-8401938D01*
X26069Y-8407449D01*
X33764Y-8412498D01*
X41689Y-8417084D01*
X49820Y-8421204D01*
X58136Y-8424854D01*
X66614Y-8428032D01*
X75231Y-8430735D01*
X83966Y-8432960D01*
X92795Y-8434703D01*
X101696Y-8435963D01*
X110647Y-8436736D01*
X119625Y-8437020D01*
X128607Y-8436811D01*
X137572Y-8436106D01*
X146496Y-8434903D01*
X155358Y-8433198D01*
X164134Y-8430990D01*
X172803Y-8428274D01*
X181341Y-8425048D01*
X189727Y-8421309D01*
X197937Y-8417055D01*
X205950Y-8412281D01*
X213743Y-8406986D01*
X221293Y-8401166D01*
X228578Y-8394819D01*
X235575Y-8387941D01*
X243178Y-8379797D01*
X250756Y-8371405D01*
X258085Y-8363013D01*
X264944Y-8354869D01*
X271108Y-8347220D01*
X276354Y-8340316D01*
X278563Y-8337221D01*
X280459Y-8334405D01*
X282014Y-8331898D01*
X283200Y-8329733D01*
X285179Y-8326383D01*
X287272Y-8323470D01*
X289670Y-8320985D01*
X292560Y-8318918D01*
X296132Y-8317261D01*
X300576Y-8316004D01*
X306080Y-8315137D01*
X312833Y-8314652D01*
X321026Y-8314539D01*
X330846Y-8314788D01*
X356126Y-8316339D01*
X390187Y-8319228D01*
X434542Y-8323383D01*
X462869Y-8326294D01*
X489509Y-8329402D01*
X513867Y-8332611D01*
X535348Y-8335819D01*
X553356Y-8338927D01*
X560872Y-8340414D01*
X567296Y-8341838D01*
X572555Y-8343188D01*
X576573Y-8344451D01*
X579277Y-8345614D01*
X580113Y-8346155D01*
X580592Y-8346666D01*
X580940Y-8347249D01*
X581190Y-8347999D01*
X581408Y-8349984D01*
X581264Y-8352580D01*
X580774Y-8355745D01*
X579955Y-8359437D01*
X578824Y-8363614D01*
X575697Y-8373257D01*
X571528Y-8384339D01*
X566453Y-8396524D01*
X560610Y-8409478D01*
X554134Y-8422867D01*
X537195Y-8454070D01*
X518142Y-8482983D01*
X496993Y-8509598D01*
X473766Y-8533909D01*
X448481Y-8555906D01*
X421156Y-8575583D01*
X391809Y-8592931D01*
X360459Y-8607942D01*
X327124Y-8620610D01*
X291824Y-8630926D01*
X254577Y-8638882D01*
X215401Y-8644472D01*
X174315Y-8647686D01*
X131338Y-8648517D01*
X86488Y-8646957D01*
X39784Y-8643000D01*
X7047Y-8638692D01*
X-24119Y-8633293D01*
X-53757Y-8626778D01*
X-81908Y-8619121D01*
X-95439Y-8614857D01*
X-108614Y-8610299D01*
X-121438Y-8605443D01*
X-133917Y-8600286D01*
X-146056Y-8594826D01*
X-157859Y-8589058D01*
X-169333Y-8582980D01*
X-180482Y-8576589D01*
X-191311Y-8569882D01*
X-201827Y-8562856D01*
X-212034Y-8555507D01*
X-221937Y-8547833D01*
X-231541Y-8539829D01*
X-240853Y-8531494D01*
X-249876Y-8522825D01*
X-258617Y-8513817D01*
X-267080Y-8504468D01*
X-275271Y-8494775D01*
X-283194Y-8484735D01*
X-290856Y-8474344D01*
X-298262Y-8463600D01*
X-305416Y-8452500D01*
X-312324Y-8441040D01*
X-318991Y-8429216D01*
X-329061Y-8408629D01*
X-337839Y-8386311D01*
X-345320Y-8362488D01*
X-351502Y-8337390D01*
X-356382Y-8311243D01*
X-359956Y-8284277D01*
X-362222Y-8256718D01*
X-363177Y-8228795D01*
X-362817Y-8200735D01*
X-361139Y-8172767D01*
X-358140Y-8145118D01*
X-353817Y-8118017D01*
X-348168Y-8091691D01*
X-341188Y-8066367D01*
X-332874Y-8042275D01*
X-323225Y-8019642D01*
X-311594Y-7997042D01*
X-298191Y-7975320D01*
X-283104Y-7954534D01*
X-266422Y-7934743D01*
X-248233Y-7916007D01*
X-228626Y-7898384D01*
X-207688Y-7881933D01*
X-185509Y-7866712D01*
X-162176Y-7852782D01*
X-137779Y-7840200D01*
X-112404Y-7829026D01*
X-86141Y-7819319D01*
X-59079Y-7811137D01*
X-31304Y-7804539D01*
X-2907Y-7799585D01*
X26025Y-7796333D01*
X64086Y-7793430D01*
X100867Y-7791862D01*
X136356Y-7791624D01*
X170538Y-7792712D01*
G37*
G36*
X-3049024Y-7789822D02*
G01*
X-3019708Y-7791242D01*
X-2990853Y-7793985D01*
X-2962532Y-7798031D01*
X-2934815Y-7803357D01*
X-2907774Y-7809942D01*
X-2881481Y-7817765D01*
X-2856006Y-7826802D01*
X-2831421Y-7837034D01*
X-2807797Y-7848437D01*
X-2785206Y-7860991D01*
X-2763718Y-7874673D01*
X-2743406Y-7889462D01*
X-2724340Y-7905337D01*
X-2706591Y-7922275D01*
X-2691034Y-7939398D01*
X-2676704Y-7957385D01*
X-2663592Y-7976170D01*
X-2651690Y-7995688D01*
X-2640992Y-8015873D01*
X-2631489Y-8036659D01*
X-2623173Y-8057979D01*
X-2616038Y-8079768D01*
X-2610074Y-8101960D01*
X-2605274Y-8124490D01*
X-2601632Y-8147291D01*
X-2599137Y-8170297D01*
X-2597784Y-8193443D01*
X-2597564Y-8216662D01*
X-2598470Y-8239889D01*
X-2600493Y-8263058D01*
X-2603627Y-8286103D01*
X-2607862Y-8308958D01*
X-2613193Y-8331557D01*
X-2619609Y-8353835D01*
X-2627105Y-8375725D01*
X-2635673Y-8397162D01*
X-2645303Y-8418079D01*
X-2655990Y-8438411D01*
X-2667724Y-8458092D01*
X-2680499Y-8477055D01*
X-2694306Y-8495236D01*
X-2709138Y-8512569D01*
X-2724987Y-8528986D01*
X-2741845Y-8544423D01*
X-2759704Y-8558813D01*
X-2778558Y-8572092D01*
X-2800892Y-8585184D01*
X-2825271Y-8597060D01*
X-2851458Y-8607692D01*
X-2879215Y-8617054D01*
X-2908306Y-8625121D01*
X-2938492Y-8631865D01*
X-2969538Y-8637260D01*
X-3001205Y-8641280D01*
X-3033256Y-8643899D01*
X-3065455Y-8645090D01*
X-3097564Y-8644826D01*
X-3129346Y-8643083D01*
X-3160563Y-8639832D01*
X-3190979Y-8635048D01*
X-3220356Y-8628704D01*
X-3248458Y-8620775D01*
X-3267354Y-8614239D01*
X-3285734Y-8606950D01*
X-3303586Y-8598928D01*
X-3320896Y-8590195D01*
X-3337651Y-8580772D01*
X-3353837Y-8570680D01*
X-3369443Y-8559941D01*
X-3384454Y-8548577D01*
X-3398857Y-8536607D01*
X-3412639Y-8524055D01*
X-3425787Y-8510940D01*
X-3438288Y-8497285D01*
X-3450129Y-8483110D01*
X-3461295Y-8468437D01*
X-3471776Y-8453288D01*
X-3481556Y-8437683D01*
X-3490623Y-8421644D01*
X-3498963Y-8405193D01*
X-3506565Y-8388350D01*
X-3513413Y-8371136D01*
X-3519496Y-8353574D01*
X-3524800Y-8335685D01*
X-3529311Y-8317489D01*
X-3533017Y-8299008D01*
X-3535905Y-8280264D01*
X-3537961Y-8261278D01*
X-3539172Y-8242071D01*
X-3539499Y-8224032D01*
X-3220809Y-8224032D01*
X-3220406Y-8242184D01*
X-3219294Y-8260080D01*
X-3217472Y-8277501D01*
X-3214938Y-8294229D01*
X-3211692Y-8310046D01*
X-3207731Y-8324733D01*
X-3203053Y-8338071D01*
X-3197658Y-8349842D01*
X-3192042Y-8359652D01*
X-3185932Y-8368841D01*
X-3179362Y-8377409D01*
X-3172365Y-8385356D01*
X-3164974Y-8392679D01*
X-3157223Y-8399380D01*
X-3149145Y-8405458D01*
X-3140772Y-8410911D01*
X-3132140Y-8415739D01*
X-3123280Y-8419942D01*
X-3114226Y-8423519D01*
X-3105012Y-8426469D01*
X-3095671Y-8428793D01*
X-3086236Y-8430489D01*
X-3076741Y-8431556D01*
X-3067218Y-8431995D01*
X-3057702Y-8431804D01*
X-3048225Y-8430983D01*
X-3038821Y-8429532D01*
X-3029524Y-8427449D01*
X-3020365Y-8424735D01*
X-3011380Y-8421388D01*
X-3002601Y-8417409D01*
X-2994061Y-8412796D01*
X-2985794Y-8407549D01*
X-2977834Y-8401667D01*
X-2970213Y-8395150D01*
X-2962964Y-8387997D01*
X-2956122Y-8380208D01*
X-2949720Y-8371782D01*
X-2943790Y-8362718D01*
X-2938366Y-8353017D01*
X-2935326Y-8346706D01*
X-2932547Y-8340432D01*
X-2930020Y-8334134D01*
X-2927733Y-8327749D01*
X-2925676Y-8321215D01*
X-2923837Y-8314470D01*
X-2922206Y-8307452D01*
X-2920771Y-8300100D01*
X-2919523Y-8292350D01*
X-2918450Y-8284142D01*
X-2917541Y-8275413D01*
X-2916786Y-8266101D01*
X-2915693Y-8245480D01*
X-2915083Y-8221783D01*
X-2915334Y-8203307D01*
X-2916102Y-8185942D01*
X-2917406Y-8169635D01*
X-2919267Y-8154331D01*
X-2920412Y-8147038D01*
X-2921704Y-8139976D01*
X-2923145Y-8133137D01*
X-2924738Y-8126515D01*
X-2926485Y-8120103D01*
X-2928389Y-8113894D01*
X-2930452Y-8107882D01*
X-2932678Y-8102059D01*
X-2935067Y-8096420D01*
X-2937623Y-8090956D01*
X-2940349Y-8085662D01*
X-2943246Y-8080531D01*
X-2946318Y-8075555D01*
X-2949567Y-8070729D01*
X-2952996Y-8066044D01*
X-2956606Y-8061495D01*
X-2960401Y-8057075D01*
X-2964382Y-8052777D01*
X-2968554Y-8048593D01*
X-2972917Y-8044519D01*
X-2977475Y-8040545D01*
X-2982230Y-8036667D01*
X-2987185Y-8032876D01*
X-2992341Y-8029167D01*
X-2999052Y-8024927D01*
X-3005879Y-8021137D01*
X-3012810Y-8017791D01*
X-3019831Y-8014885D01*
X-3026929Y-8012416D01*
X-3034090Y-8010379D01*
X-3041301Y-8008771D01*
X-3048549Y-8007586D01*
X-3055820Y-8006822D01*
X-3063100Y-8006474D01*
X-3070378Y-8006538D01*
X-3077638Y-8007010D01*
X-3084869Y-8007885D01*
X-3092055Y-8009161D01*
X-3099185Y-8010832D01*
X-3106244Y-8012895D01*
X-3113220Y-8015345D01*
X-3120099Y-8018179D01*
X-3126867Y-8021392D01*
X-3133511Y-8024981D01*
X-3140018Y-8028941D01*
X-3146374Y-8033268D01*
X-3152567Y-8037958D01*
X-3158582Y-8043008D01*
X-3164407Y-8048412D01*
X-3170027Y-8054167D01*
X-3175430Y-8060270D01*
X-3180603Y-8066715D01*
X-3185531Y-8073498D01*
X-3190201Y-8080617D01*
X-3194601Y-8088066D01*
X-3198716Y-8095842D01*
X-3203925Y-8108170D01*
X-3208438Y-8121992D01*
X-3212253Y-8137088D01*
X-3215368Y-8153240D01*
X-3217784Y-8170228D01*
X-3219496Y-8187836D01*
X-3220505Y-8205843D01*
X-3220809Y-8224032D01*
X-3539499Y-8224032D01*
X-3539524Y-8222664D01*
X-3539006Y-8203079D01*
X-3537603Y-8183336D01*
X-3535303Y-8163459D01*
X-3532091Y-8143467D01*
X-3528264Y-8124530D01*
X-3523733Y-8106022D01*
X-3518508Y-8087953D01*
X-3512599Y-8070330D01*
X-3506016Y-8053161D01*
X-3498768Y-8036454D01*
X-3490865Y-8020218D01*
X-3482317Y-8004461D01*
X-3473133Y-7989190D01*
X-3463323Y-7974415D01*
X-3452897Y-7960142D01*
X-3441864Y-7946381D01*
X-3430235Y-7933139D01*
X-3418018Y-7920424D01*
X-3405224Y-7908245D01*
X-3391862Y-7896610D01*
X-3377942Y-7885527D01*
X-3363474Y-7875004D01*
X-3332930Y-7855670D01*
X-3300310Y-7838674D01*
X-3265689Y-7824081D01*
X-3229146Y-7811957D01*
X-3190758Y-7802365D01*
X-3150603Y-7795371D01*
X-3108758Y-7791042D01*
X-3078731Y-7789748D01*
X-3049024Y-7789822D01*
G37*
G36*
X-3736269Y-7792107D02*
G01*
X-3720739Y-7792943D01*
X-3704812Y-7794443D01*
X-3688774Y-7796542D01*
X-3672909Y-7799178D01*
X-3657504Y-7802286D01*
X-3642842Y-7805804D01*
X-3629210Y-7809668D01*
X-3616892Y-7813814D01*
X-3606174Y-7818178D01*
X-3601505Y-7820422D01*
X-3597342Y-7822697D01*
X-3593722Y-7824995D01*
X-3590680Y-7827308D01*
X-3588252Y-7829628D01*
X-3586473Y-7831947D01*
X-3585380Y-7834257D01*
X-3585008Y-7836550D01*
X-3585967Y-7840242D01*
X-3588712Y-7847828D01*
X-3598766Y-7872798D01*
X-3613583Y-7907690D01*
X-3631575Y-7948733D01*
X-3637217Y-7961059D01*
X-3642633Y-7972630D01*
X-3647820Y-7983436D01*
X-3652774Y-7993464D01*
X-3657493Y-8002705D01*
X-3661973Y-8011148D01*
X-3666211Y-8018781D01*
X-3670204Y-8025595D01*
X-3673949Y-8031577D01*
X-3677442Y-8036717D01*
X-3679094Y-8038969D01*
X-3680682Y-8041005D01*
X-3682205Y-8042826D01*
X-3683664Y-8044430D01*
X-3685058Y-8045815D01*
X-3686386Y-8046980D01*
X-3687648Y-8047923D01*
X-3688844Y-8048644D01*
X-3689974Y-8049141D01*
X-3691036Y-8049413D01*
X-3692031Y-8049458D01*
X-3692958Y-8049275D01*
X-3723858Y-8042316D01*
X-3751945Y-8038646D01*
X-3764969Y-8038112D01*
X-3777332Y-8038480D01*
X-3789048Y-8039778D01*
X-3800131Y-8042032D01*
X-3810595Y-8045269D01*
X-3820455Y-8049515D01*
X-3829725Y-8054798D01*
X-3838419Y-8061144D01*
X-3846551Y-8068580D01*
X-3854134Y-8077132D01*
X-3861185Y-8086828D01*
X-3867715Y-8097694D01*
X-3873741Y-8109756D01*
X-3879275Y-8123042D01*
X-3888925Y-8153393D01*
X-3896781Y-8188958D01*
X-3902955Y-8229952D01*
X-3907559Y-8276590D01*
X-3910708Y-8329084D01*
X-3912514Y-8387650D01*
X-3913091Y-8452500D01*
X-3913091Y-8630300D01*
X-4230591Y-8630300D01*
X-4230591Y-7804800D01*
X-3934258Y-7804800D01*
X-3934258Y-7936033D01*
X-3903566Y-7887350D01*
X-3896641Y-7876991D01*
X-3889734Y-7867330D01*
X-3882814Y-7858349D01*
X-3875851Y-7850027D01*
X-3868814Y-7842344D01*
X-3861671Y-7835279D01*
X-3854392Y-7828812D01*
X-3846946Y-7822924D01*
X-3839301Y-7817594D01*
X-3831426Y-7812801D01*
X-3823291Y-7808527D01*
X-3814865Y-7804750D01*
X-3806116Y-7801451D01*
X-3797014Y-7798609D01*
X-3787527Y-7796204D01*
X-3777625Y-7794217D01*
X-3771485Y-7793338D01*
X-3764997Y-7792680D01*
X-3751117Y-7791999D01*
X-3736269Y-7792107D01*
G37*
G36*
X3696325Y-7688383D02*
G01*
X3696517Y-7726651D01*
X3697069Y-7762351D01*
X3697944Y-7794702D01*
X3699103Y-7822924D01*
X3700511Y-7846234D01*
X3701296Y-7855803D01*
X3702130Y-7863852D01*
X3703006Y-7870281D01*
X3703922Y-7874995D01*
X3704871Y-7877895D01*
X3705357Y-7878634D01*
X3705850Y-7878883D01*
X3706359Y-7878862D01*
X3706891Y-7878798D01*
X3708023Y-7878546D01*
X3709238Y-7878137D01*
X3710530Y-7877577D01*
X3711890Y-7876874D01*
X3713310Y-7876037D01*
X3714783Y-7875072D01*
X3716301Y-7873988D01*
X3717856Y-7872793D01*
X3719441Y-7871494D01*
X3721047Y-7870098D01*
X3722668Y-7868614D01*
X3724294Y-7867050D01*
X3725919Y-7865412D01*
X3727535Y-7863710D01*
X3729134Y-7861950D01*
X3730729Y-7860254D01*
X3732716Y-7858357D01*
X3737749Y-7854045D01*
X3743998Y-7849188D01*
X3751226Y-7843958D01*
X3759199Y-7838530D01*
X3767680Y-7833077D01*
X3776434Y-7827773D01*
X3785225Y-7822792D01*
X3791865Y-7819391D01*
X3798365Y-7816322D01*
X3804830Y-7813569D01*
X3811369Y-7811117D01*
X3818087Y-7808950D01*
X3825092Y-7807053D01*
X3832491Y-7805410D01*
X3840390Y-7804006D01*
X3848897Y-7802825D01*
X3858119Y-7801852D01*
X3868163Y-7801071D01*
X3879135Y-7800467D01*
X3904294Y-7799727D01*
X3934450Y-7799508D01*
X3965793Y-7799690D01*
X3979287Y-7799955D01*
X3991517Y-7800368D01*
X4002625Y-7800955D01*
X4012752Y-7801741D01*
X4022039Y-7802749D01*
X4030626Y-7804006D01*
X4038655Y-7805536D01*
X4046267Y-7807363D01*
X4053604Y-7809513D01*
X4060805Y-7812010D01*
X4068013Y-7814879D01*
X4075367Y-7818145D01*
X4083011Y-7821832D01*
X4091083Y-7825967D01*
X4110244Y-7836482D01*
X4128431Y-7848179D01*
X4145638Y-7861048D01*
X4161859Y-7875080D01*
X4177088Y-7890265D01*
X4191319Y-7906594D01*
X4204545Y-7924058D01*
X4216760Y-7942648D01*
X4227958Y-7962354D01*
X4238133Y-7983166D01*
X4247279Y-8005077D01*
X4255389Y-8028075D01*
X4262458Y-8052153D01*
X4268478Y-8077300D01*
X4273444Y-8103508D01*
X4277350Y-8130767D01*
X4279717Y-8151696D01*
X4281464Y-8172406D01*
X4282599Y-8192881D01*
X4283127Y-8213106D01*
X4283057Y-8233066D01*
X4282394Y-8252745D01*
X4281145Y-8272129D01*
X4279318Y-8291203D01*
X4276918Y-8309952D01*
X4273954Y-8328359D01*
X4270430Y-8346411D01*
X4266355Y-8364092D01*
X4261736Y-8381387D01*
X4256577Y-8398280D01*
X4250888Y-8414758D01*
X4244674Y-8430804D01*
X4237942Y-8446404D01*
X4230699Y-8461542D01*
X4222952Y-8476203D01*
X4214708Y-8490372D01*
X4205973Y-8504035D01*
X4196754Y-8517175D01*
X4187057Y-8529779D01*
X4176891Y-8541830D01*
X4166261Y-8553313D01*
X4155174Y-8564214D01*
X4143637Y-8574518D01*
X4131657Y-8584209D01*
X4119241Y-8593271D01*
X4106395Y-8601691D01*
X4093126Y-8609453D01*
X4079441Y-8616542D01*
X4061805Y-8624454D01*
X4053610Y-8627825D01*
X4045707Y-8630829D01*
X4038002Y-8633486D01*
X4030403Y-8635815D01*
X4022816Y-8637833D01*
X4015148Y-8639560D01*
X4007307Y-8641014D01*
X3999199Y-8642214D01*
X3990731Y-8643179D01*
X3981811Y-8643926D01*
X3972345Y-8644475D01*
X3962240Y-8644844D01*
X3939742Y-8645116D01*
X3922294Y-8644840D01*
X3905627Y-8643994D01*
X3889680Y-8642556D01*
X3874389Y-8640503D01*
X3859695Y-8637811D01*
X3845533Y-8634457D01*
X3831843Y-8630417D01*
X3818562Y-8625670D01*
X3805629Y-8620190D01*
X3792980Y-8613956D01*
X3780555Y-8606943D01*
X3768291Y-8599129D01*
X3756127Y-8590490D01*
X3743999Y-8581003D01*
X3731847Y-8570644D01*
X3719608Y-8559392D01*
X3675158Y-8517058D01*
X3675158Y-8630300D01*
X3378825Y-8630300D01*
X3378825Y-8220171D01*
X3695944Y-8220171D01*
X3696695Y-8238239D01*
X3698373Y-8256063D01*
X3700955Y-8273509D01*
X3704418Y-8290447D01*
X3708738Y-8306745D01*
X3713892Y-8322271D01*
X3719856Y-8336893D01*
X3726609Y-8350480D01*
X3734125Y-8362899D01*
X3738163Y-8368630D01*
X3742383Y-8374019D01*
X3746782Y-8379051D01*
X3751358Y-8383708D01*
X3756006Y-8388052D01*
X3760462Y-8391970D01*
X3764781Y-8395482D01*
X3769019Y-8398608D01*
X3773233Y-8401367D01*
X3777478Y-8403781D01*
X3781809Y-8405870D01*
X3786283Y-8407653D01*
X3790956Y-8409151D01*
X3795883Y-8410384D01*
X3801119Y-8411371D01*
X3806722Y-8412134D01*
X3812747Y-8412693D01*
X3819248Y-8413067D01*
X3826284Y-8413276D01*
X3833908Y-8413341D01*
X3848695Y-8412766D01*
X3862514Y-8411022D01*
X3869067Y-8409703D01*
X3875387Y-8408081D01*
X3881476Y-8406153D01*
X3887337Y-8403916D01*
X3892974Y-8401365D01*
X3898389Y-8398497D01*
X3903585Y-8395310D01*
X3908564Y-8391799D01*
X3913331Y-8387960D01*
X3917887Y-8383791D01*
X3922236Y-8379288D01*
X3926380Y-8374448D01*
X3930323Y-8369266D01*
X3934068Y-8363740D01*
X3937616Y-8357866D01*
X3940972Y-8351640D01*
X3947116Y-8338120D01*
X3952525Y-8323152D01*
X3957220Y-8306708D01*
X3961225Y-8288760D01*
X3964564Y-8269280D01*
X3967259Y-8248241D01*
X3968549Y-8232219D01*
X3969243Y-8216700D01*
X3969342Y-8201693D01*
X3968846Y-8187205D01*
X3967754Y-8173245D01*
X3966068Y-8159819D01*
X3963786Y-8146936D01*
X3960908Y-8134603D01*
X3957435Y-8122828D01*
X3953367Y-8111619D01*
X3948704Y-8100984D01*
X3943446Y-8090930D01*
X3937592Y-8081465D01*
X3931142Y-8072598D01*
X3927695Y-8068390D01*
X3924098Y-8064334D01*
X3920352Y-8060432D01*
X3916458Y-8056683D01*
X3910066Y-8051132D01*
X3903408Y-8046179D01*
X3896509Y-8041815D01*
X3889396Y-8038032D01*
X3882094Y-8034820D01*
X3874628Y-8032171D01*
X3867024Y-8030074D01*
X3859308Y-8028522D01*
X3851505Y-8027504D01*
X3843641Y-8027012D01*
X3835741Y-8027037D01*
X3827831Y-8027569D01*
X3819937Y-8028599D01*
X3812083Y-8030119D01*
X3804296Y-8032119D01*
X3796602Y-8034591D01*
X3789025Y-8037524D01*
X3781592Y-8040910D01*
X3774328Y-8044740D01*
X3767258Y-8049004D01*
X3760408Y-8053694D01*
X3753805Y-8058801D01*
X3747472Y-8064315D01*
X3741436Y-8070227D01*
X3735723Y-8076528D01*
X3730358Y-8083209D01*
X3725367Y-8090261D01*
X3720774Y-8097675D01*
X3716607Y-8105442D01*
X3712890Y-8113552D01*
X3709648Y-8121997D01*
X3706909Y-8130767D01*
X3702675Y-8148083D01*
X3699486Y-8165814D01*
X3697316Y-8183826D01*
X3696143Y-8201989D01*
X3695944Y-8220171D01*
X3378825Y-8220171D01*
X3378825Y-7497883D01*
X3696325Y-7497883D01*
X3696325Y-7688383D01*
G37*
G36*
X2659158Y-8630300D02*
G01*
X2362825Y-8630300D01*
X2362825Y-8510708D01*
X2309908Y-8560450D01*
X2292951Y-8575607D01*
X2275802Y-8589333D01*
X2258442Y-8601636D01*
X2240852Y-8612523D01*
X2223014Y-8622003D01*
X2204910Y-8630083D01*
X2186521Y-8636771D01*
X2167827Y-8642074D01*
X2148811Y-8646000D01*
X2129454Y-8648558D01*
X2109737Y-8649755D01*
X2089643Y-8649598D01*
X2069151Y-8648095D01*
X2048243Y-8645255D01*
X2026902Y-8641085D01*
X2005108Y-8635592D01*
X1988848Y-8630443D01*
X1973015Y-8624340D01*
X1957623Y-8617309D01*
X1942683Y-8609375D01*
X1928209Y-8600565D01*
X1914212Y-8590904D01*
X1900705Y-8580417D01*
X1887700Y-8569132D01*
X1863246Y-8544265D01*
X1840951Y-8516510D01*
X1820913Y-8486074D01*
X1803232Y-8453161D01*
X1788006Y-8417979D01*
X1775335Y-8380734D01*
X1765318Y-8341631D01*
X1758054Y-8300877D01*
X1753643Y-8258678D01*
X1752354Y-8220328D01*
X2065830Y-8220328D01*
X2066716Y-8244116D01*
X2069272Y-8267533D01*
X2073492Y-8290247D01*
X2079373Y-8311923D01*
X2082935Y-8322269D01*
X2086910Y-8332229D01*
X2091298Y-8341764D01*
X2096098Y-8350832D01*
X2101309Y-8359390D01*
X2106932Y-8367397D01*
X2112965Y-8374811D01*
X2119408Y-8381592D01*
X2125073Y-8386730D01*
X2130944Y-8391431D01*
X2137002Y-8395699D01*
X2143231Y-8399536D01*
X2149613Y-8402946D01*
X2156129Y-8405932D01*
X2162764Y-8408498D01*
X2169497Y-8410646D01*
X2176313Y-8412381D01*
X2183194Y-8413705D01*
X2190122Y-8414621D01*
X2197078Y-8415134D01*
X2204047Y-8415245D01*
X2211009Y-8414960D01*
X2217948Y-8414280D01*
X2224845Y-8413209D01*
X2231684Y-8411751D01*
X2238446Y-8409908D01*
X2245113Y-8407685D01*
X2251669Y-8405084D01*
X2258096Y-8402108D01*
X2264375Y-8398761D01*
X2270490Y-8395047D01*
X2276422Y-8390968D01*
X2282155Y-8386527D01*
X2287669Y-8381729D01*
X2292949Y-8376576D01*
X2297975Y-8371072D01*
X2302731Y-8365220D01*
X2307199Y-8359023D01*
X2311361Y-8352485D01*
X2315200Y-8345608D01*
X2319390Y-8336467D01*
X2323218Y-8326203D01*
X2326671Y-8314959D01*
X2329736Y-8302878D01*
X2332397Y-8290103D01*
X2334641Y-8276775D01*
X2336454Y-8263039D01*
X2337822Y-8249035D01*
X2338731Y-8234908D01*
X2339167Y-8220799D01*
X2339117Y-8206852D01*
X2338566Y-8193208D01*
X2337500Y-8180011D01*
X2335906Y-8167403D01*
X2333769Y-8155527D01*
X2331075Y-8144525D01*
X2329540Y-8139284D01*
X2327727Y-8133902D01*
X2325652Y-8128412D01*
X2323336Y-8122846D01*
X2320797Y-8117236D01*
X2318053Y-8111615D01*
X2315122Y-8106016D01*
X2312025Y-8100472D01*
X2308779Y-8095014D01*
X2305402Y-8089676D01*
X2301914Y-8084489D01*
X2298333Y-8079487D01*
X2294677Y-8074702D01*
X2290966Y-8070167D01*
X2287217Y-8065913D01*
X2283450Y-8061975D01*
X2278081Y-8056699D01*
X2273041Y-8051966D01*
X2268260Y-8047748D01*
X2263672Y-8044016D01*
X2259209Y-8040744D01*
X2254801Y-8037902D01*
X2250380Y-8035463D01*
X2245879Y-8033400D01*
X2241229Y-8031684D01*
X2236362Y-8030287D01*
X2231210Y-8029182D01*
X2225705Y-8028340D01*
X2219777Y-8027734D01*
X2213360Y-8027335D01*
X2206385Y-8027117D01*
X2198783Y-8027050D01*
X2191532Y-8027115D01*
X2184825Y-8027325D01*
X2178610Y-8027699D01*
X2172838Y-8028257D01*
X2167456Y-8029020D01*
X2162414Y-8030008D01*
X2157660Y-8031241D01*
X2155375Y-8031955D01*
X2153143Y-8032738D01*
X2150957Y-8033593D01*
X2148812Y-8034522D01*
X2146700Y-8035526D01*
X2144616Y-8036610D01*
X2142553Y-8037775D01*
X2140504Y-8039024D01*
X2136424Y-8041784D01*
X2132326Y-8044910D01*
X2128158Y-8048421D01*
X2123869Y-8052339D01*
X2119408Y-8056683D01*
X2112875Y-8063752D01*
X2106769Y-8071436D01*
X2101090Y-8079694D01*
X2095838Y-8088485D01*
X2091010Y-8097766D01*
X2086608Y-8107496D01*
X2082630Y-8117634D01*
X2079076Y-8128137D01*
X2073237Y-8150074D01*
X2069086Y-8172974D01*
X2066618Y-8196503D01*
X2065830Y-8220328D01*
X1752354Y-8220328D01*
X1752184Y-8215241D01*
X1753775Y-8170771D01*
X1758517Y-8125475D01*
X1761744Y-8104473D01*
X1765477Y-8084312D01*
X1769728Y-8064962D01*
X1774508Y-8046398D01*
X1779827Y-8028589D01*
X1785697Y-8011510D01*
X1792127Y-7995131D01*
X1799130Y-7979425D01*
X1806716Y-7964364D01*
X1814896Y-7949920D01*
X1823680Y-7936065D01*
X1833080Y-7922771D01*
X1843106Y-7910010D01*
X1853769Y-7897755D01*
X1865080Y-7885978D01*
X1877051Y-7874650D01*
X1889151Y-7864154D01*
X1901278Y-7854482D01*
X1913483Y-7845612D01*
X1925816Y-7837525D01*
X1938329Y-7830202D01*
X1951073Y-7823620D01*
X1964100Y-7817762D01*
X1977459Y-7812605D01*
X1991203Y-7808131D01*
X2005383Y-7804318D01*
X2020050Y-7801148D01*
X2035254Y-7798599D01*
X2051048Y-7796651D01*
X2067482Y-7795285D01*
X2084607Y-7794480D01*
X2102475Y-7794217D01*
X2117998Y-7794591D01*
X2132842Y-7795327D01*
X2147051Y-7796437D01*
X2160667Y-7797937D01*
X2173730Y-7799840D01*
X2186284Y-7802160D01*
X2198369Y-7804911D01*
X2210028Y-7808107D01*
X2221303Y-7811762D01*
X2232234Y-7815890D01*
X2242866Y-7820504D01*
X2253238Y-7825619D01*
X2263393Y-7831249D01*
X2273373Y-7837408D01*
X2283220Y-7844109D01*
X2292976Y-7851367D01*
X2300437Y-7856803D01*
X2307627Y-7861917D01*
X2314369Y-7866584D01*
X2320492Y-7870681D01*
X2325821Y-7874084D01*
X2328133Y-7875486D01*
X2330182Y-7876667D01*
X2331946Y-7877614D01*
X2333403Y-7878309D01*
X2334531Y-7878737D01*
X2334965Y-7878846D01*
X2335309Y-7878883D01*
X2335903Y-7877895D01*
X2336493Y-7874995D01*
X2337640Y-7863852D01*
X2338713Y-7846234D01*
X2339674Y-7822924D01*
X2341113Y-7762351D01*
X2341659Y-7688383D01*
X2341659Y-7497883D01*
X2659158Y-7497883D01*
X2659158Y-8630300D01*
G37*
G36*
X-1574175Y-8630300D02*
G01*
X-1870508Y-8630300D01*
X-1870508Y-8510708D01*
X-1923425Y-8560450D01*
X-1940382Y-8575607D01*
X-1957531Y-8589333D01*
X-1974891Y-8601636D01*
X-1992481Y-8612523D01*
X-2010319Y-8622003D01*
X-2028423Y-8630083D01*
X-2046812Y-8636771D01*
X-2065506Y-8642074D01*
X-2084522Y-8646000D01*
X-2103879Y-8648558D01*
X-2123595Y-8649755D01*
X-2143690Y-8649598D01*
X-2164182Y-8648095D01*
X-2185089Y-8645255D01*
X-2206430Y-8641085D01*
X-2228224Y-8635592D01*
X-2244485Y-8630443D01*
X-2260318Y-8624340D01*
X-2275710Y-8617309D01*
X-2290650Y-8609375D01*
X-2305124Y-8600565D01*
X-2319121Y-8590904D01*
X-2332628Y-8580417D01*
X-2345633Y-8569132D01*
X-2370087Y-8544265D01*
X-2392382Y-8516510D01*
X-2412420Y-8486074D01*
X-2430102Y-8453161D01*
X-2445328Y-8417979D01*
X-2457999Y-8380734D01*
X-2468016Y-8341631D01*
X-2475279Y-8300877D01*
X-2479690Y-8258678D01*
X-2480979Y-8220328D01*
X-2167503Y-8220328D01*
X-2166617Y-8244116D01*
X-2164061Y-8267533D01*
X-2159840Y-8290247D01*
X-2153959Y-8311923D01*
X-2150398Y-8322269D01*
X-2146423Y-8332229D01*
X-2142035Y-8341764D01*
X-2137235Y-8350832D01*
X-2132023Y-8359390D01*
X-2126401Y-8367397D01*
X-2120367Y-8374811D01*
X-2113925Y-8381592D01*
X-2108260Y-8386730D01*
X-2102389Y-8391431D01*
X-2096331Y-8395699D01*
X-2090102Y-8399536D01*
X-2083720Y-8402946D01*
X-2077203Y-8405932D01*
X-2070569Y-8408498D01*
X-2063836Y-8410646D01*
X-2057020Y-8412381D01*
X-2050139Y-8413705D01*
X-2043212Y-8414621D01*
X-2036255Y-8415134D01*
X-2029286Y-8415245D01*
X-2022324Y-8414960D01*
X-2015385Y-8414280D01*
X-2008488Y-8413209D01*
X-2001650Y-8411751D01*
X-1994888Y-8409908D01*
X-1988220Y-8407685D01*
X-1981664Y-8405084D01*
X-1975237Y-8402108D01*
X-1968958Y-8398761D01*
X-1962843Y-8395047D01*
X-1956911Y-8390968D01*
X-1951179Y-8386527D01*
X-1945664Y-8381729D01*
X-1940384Y-8376576D01*
X-1935358Y-8371072D01*
X-1930602Y-8365220D01*
X-1926134Y-8359023D01*
X-1921972Y-8352485D01*
X-1918133Y-8345608D01*
X-1913943Y-8336467D01*
X-1910115Y-8326203D01*
X-1906662Y-8314959D01*
X-1903598Y-8302878D01*
X-1900936Y-8290103D01*
X-1898692Y-8276775D01*
X-1896879Y-8263039D01*
X-1895511Y-8249035D01*
X-1894602Y-8234908D01*
X-1894166Y-8220799D01*
X-1894216Y-8206852D01*
X-1894767Y-8193208D01*
X-1895833Y-8180011D01*
X-1897427Y-8167403D01*
X-1899565Y-8155527D01*
X-1902258Y-8144525D01*
X-1903793Y-8139284D01*
X-1905607Y-8133902D01*
X-1907681Y-8128412D01*
X-1909997Y-8122846D01*
X-1912537Y-8117236D01*
X-1915281Y-8111615D01*
X-1918211Y-8106016D01*
X-1921308Y-8100472D01*
X-1924554Y-8095014D01*
X-1927931Y-8089676D01*
X-1931419Y-8084489D01*
X-1935000Y-8079487D01*
X-1938656Y-8074702D01*
X-1942367Y-8070167D01*
X-1946116Y-8065913D01*
X-1949883Y-8061975D01*
X-1955252Y-8056699D01*
X-1960293Y-8051966D01*
X-1965073Y-8047748D01*
X-1969661Y-8044016D01*
X-1974125Y-8040744D01*
X-1978533Y-8037902D01*
X-1982953Y-8035463D01*
X-1987454Y-8033400D01*
X-1992104Y-8031684D01*
X-1996971Y-8030287D01*
X-2002123Y-8029182D01*
X-2007628Y-8028340D01*
X-2013556Y-8027734D01*
X-2019973Y-8027335D01*
X-2026948Y-8027117D01*
X-2034550Y-8027050D01*
X-2041801Y-8027115D01*
X-2048508Y-8027325D01*
X-2054723Y-8027699D01*
X-2060495Y-8028257D01*
X-2065877Y-8029020D01*
X-2070919Y-8030008D01*
X-2075673Y-8031241D01*
X-2077958Y-8031955D01*
X-2080190Y-8032738D01*
X-2082376Y-8033593D01*
X-2084521Y-8034522D01*
X-2086632Y-8035526D01*
X-2088717Y-8036610D01*
X-2090780Y-8037775D01*
X-2092829Y-8039024D01*
X-2096909Y-8041784D01*
X-2101007Y-8044910D01*
X-2105175Y-8048421D01*
X-2109464Y-8052339D01*
X-2113925Y-8056683D01*
X-2120458Y-8063752D01*
X-2126563Y-8071436D01*
X-2132242Y-8079694D01*
X-2137495Y-8088485D01*
X-2142323Y-8097766D01*
X-2146725Y-8107496D01*
X-2150703Y-8117634D01*
X-2154257Y-8128137D01*
X-2160096Y-8150074D01*
X-2164247Y-8172974D01*
X-2166714Y-8196503D01*
X-2167503Y-8220328D01*
X-2480979Y-8220328D01*
X-2481150Y-8215241D01*
X-2479558Y-8170771D01*
X-2474816Y-8125475D01*
X-2471590Y-8104473D01*
X-2467857Y-8084312D01*
X-2463605Y-8064962D01*
X-2458826Y-8046398D01*
X-2453506Y-8028589D01*
X-2447637Y-8011510D01*
X-2441206Y-7995131D01*
X-2434203Y-7979425D01*
X-2426617Y-7964364D01*
X-2418437Y-7949920D01*
X-2409653Y-7936065D01*
X-2400253Y-7922771D01*
X-2390227Y-7910010D01*
X-2379564Y-7897755D01*
X-2368253Y-7885978D01*
X-2356283Y-7874650D01*
X-2344182Y-7864154D01*
X-2332055Y-7854482D01*
X-2319850Y-7845612D01*
X-2307517Y-7837525D01*
X-2295004Y-7830202D01*
X-2282259Y-7823620D01*
X-2269233Y-7817762D01*
X-2255873Y-7812605D01*
X-2242129Y-7808131D01*
X-2227950Y-7804318D01*
X-2213283Y-7801148D01*
X-2198079Y-7798599D01*
X-2182285Y-7796651D01*
X-2165851Y-7795285D01*
X-2148726Y-7794480D01*
X-2130858Y-7794217D01*
X-2115336Y-7794591D01*
X-2100491Y-7795327D01*
X-2086282Y-7796437D01*
X-2072666Y-7797937D01*
X-2059603Y-7799840D01*
X-2047049Y-7802160D01*
X-2034964Y-7804911D01*
X-2023305Y-7808107D01*
X-2012031Y-7811762D01*
X-2001099Y-7815890D01*
X-1990467Y-7820504D01*
X-1980095Y-7825619D01*
X-1969940Y-7831249D01*
X-1959960Y-7837408D01*
X-1950113Y-7844109D01*
X-1940358Y-7851367D01*
X-1932896Y-7856803D01*
X-1925707Y-7861917D01*
X-1918964Y-7866584D01*
X-1912841Y-7870681D01*
X-1907512Y-7874084D01*
X-1905200Y-7875486D01*
X-1903151Y-7876667D01*
X-1901387Y-7877614D01*
X-1899931Y-7878309D01*
X-1898803Y-7878737D01*
X-1898369Y-7878846D01*
X-1898025Y-7878883D01*
X-1897430Y-7877895D01*
X-1896840Y-7874995D01*
X-1895693Y-7863852D01*
X-1894620Y-7846234D01*
X-1893659Y-7822924D01*
X-1892220Y-7762351D01*
X-1891675Y-7688383D01*
X-1891675Y-7497883D01*
X-1574175Y-7497883D01*
X-1574175Y-8630300D01*
G37*
G36*
X-5000000Y-7500000D02*
G01*
X-4638050Y-7503175D01*
X-4579841Y-7530692D01*
X-4566770Y-7537053D01*
X-4554150Y-7543828D01*
X-4541986Y-7551009D01*
X-4530282Y-7558589D01*
X-4519043Y-7566559D01*
X-4508274Y-7574912D01*
X-4497979Y-7583641D01*
X-4488163Y-7592736D01*
X-4478831Y-7602192D01*
X-4469988Y-7611999D01*
X-4461637Y-7622151D01*
X-4453784Y-7632639D01*
X-4446433Y-7643456D01*
X-4439589Y-7654593D01*
X-4433257Y-7666044D01*
X-4427441Y-7677800D01*
X-4421321Y-7692185D01*
X-4418709Y-7699317D01*
X-4416378Y-7706557D01*
X-4414314Y-7714013D01*
X-4412503Y-7721797D01*
X-4410930Y-7730018D01*
X-4409582Y-7738786D01*
X-4408445Y-7748212D01*
X-4407505Y-7758405D01*
X-4406159Y-7781533D01*
X-4405433Y-7809052D01*
X-4405216Y-7841842D01*
X-4405394Y-7875814D01*
X-4405649Y-7890511D01*
X-4406043Y-7903870D01*
X-4406599Y-7916032D01*
X-4407337Y-7927139D01*
X-4408280Y-7937331D01*
X-4409450Y-7946749D01*
X-4410867Y-7955535D01*
X-4412554Y-7963829D01*
X-4414533Y-7971773D01*
X-4416825Y-7979508D01*
X-4419452Y-7987174D01*
X-4422435Y-7994913D01*
X-4425796Y-8002867D01*
X-4429558Y-8011175D01*
X-4442512Y-8036744D01*
X-4456843Y-8060305D01*
X-4472662Y-8081905D01*
X-4490081Y-8101596D01*
X-4509212Y-8119427D01*
X-4530166Y-8135446D01*
X-4553054Y-8149705D01*
X-4577989Y-8162252D01*
X-4605082Y-8173137D01*
X-4634445Y-8182410D01*
X-4666189Y-8190120D01*
X-4700425Y-8196317D01*
X-4737266Y-8201051D01*
X-4776824Y-8204370D01*
X-4819209Y-8206326D01*
X-4864533Y-8206967D01*
X-5003175Y-8206967D01*
X-5003175Y-8630300D01*
X-5363008Y-8630300D01*
X-5363008Y-7728600D01*
X-5003175Y-7728600D01*
X-5003175Y-7974133D01*
X-4923800Y-7974133D01*
X-4906600Y-7973844D01*
X-4889387Y-7973009D01*
X-4872547Y-7971678D01*
X-4856463Y-7969900D01*
X-4841520Y-7967725D01*
X-4834597Y-7966505D01*
X-4828103Y-7965203D01*
X-4822087Y-7963828D01*
X-4816596Y-7962384D01*
X-4811679Y-7960878D01*
X-4807383Y-7959316D01*
X-4800702Y-7956220D01*
X-4794352Y-7952699D01*
X-4788338Y-7948778D01*
X-4782663Y-7944479D01*
X-4777329Y-7939825D01*
X-4772341Y-7934839D01*
X-4767701Y-7929543D01*
X-4763412Y-7923962D01*
X-4759479Y-7918116D01*
X-4755904Y-7912030D01*
X-4752691Y-7905726D01*
X-4749842Y-7899227D01*
X-4747362Y-7892556D01*
X-4745253Y-7885736D01*
X-4743519Y-7878789D01*
X-4742163Y-7871739D01*
X-4741189Y-7864609D01*
X-4740599Y-7857420D01*
X-4740397Y-7850197D01*
X-4740586Y-7842962D01*
X-4741170Y-7835737D01*
X-4742151Y-7828547D01*
X-4743534Y-7821413D01*
X-4745322Y-7814358D01*
X-4747517Y-7807406D01*
X-4750123Y-7800578D01*
X-4753143Y-7793899D01*
X-4756581Y-7787391D01*
X-4760440Y-7781077D01*
X-4764723Y-7774979D01*
X-4769433Y-7769121D01*
X-4774575Y-7763525D01*
X-4779199Y-7759029D01*
X-4783637Y-7755044D01*
X-4788025Y-7751533D01*
X-4792500Y-7748460D01*
X-4797199Y-7745791D01*
X-4802257Y-7743489D01*
X-4807811Y-7741519D01*
X-4813998Y-7739845D01*
X-4820953Y-7738431D01*
X-4828814Y-7737242D01*
X-4837717Y-7736243D01*
X-4847798Y-7735396D01*
X-4872040Y-7734022D01*
X-4902633Y-7732833D01*
X-5003175Y-7728600D01*
X-5363008Y-7728600D01*
X-5363008Y-7496825D01*
X-5000000Y-7500000D01*
G37*
G36*
X-2808578Y-11430856D02*
G01*
X-2814394Y-11441211D01*
X-2823086Y-11454955D01*
X-2834226Y-11471511D01*
X-2847384Y-11490299D01*
X-2862129Y-11510741D01*
X-2878031Y-11532258D01*
X-2894661Y-11554270D01*
X-2911589Y-11576200D01*
X-2963072Y-11637726D01*
X-3017988Y-11696867D01*
X-3076264Y-11753585D01*
X-3137830Y-11807843D01*
X-3202612Y-11859604D01*
X-3270538Y-11908831D01*
X-3341535Y-11955487D01*
X-3415532Y-11999534D01*
X-3492456Y-12040935D01*
X-3572235Y-12079653D01*
X-3654795Y-12115651D01*
X-3740066Y-12148891D01*
X-3827974Y-12179337D01*
X-3918447Y-12206951D01*
X-4011414Y-12231695D01*
X-4106800Y-12253534D01*
X-4149941Y-12261719D01*
X-4195480Y-12268811D01*
X-4243003Y-12274807D01*
X-4292097Y-12279706D01*
X-4342348Y-12283504D01*
X-4393344Y-12286202D01*
X-4444671Y-12287795D01*
X-4495914Y-12288282D01*
X-4546662Y-12287662D01*
X-4596500Y-12285932D01*
X-4645015Y-12283089D01*
X-4691794Y-12279132D01*
X-4736423Y-12274059D01*
X-4778489Y-12267868D01*
X-4817579Y-12260557D01*
X-4853278Y-12252123D01*
X-4929813Y-12230307D01*
X-5002269Y-12206121D01*
X-5070670Y-12179541D01*
X-5135037Y-12150545D01*
X-5195395Y-12119109D01*
X-5251766Y-12085212D01*
X-5278463Y-12067333D01*
X-5304171Y-12048830D01*
X-5328895Y-12029700D01*
X-5352635Y-12009941D01*
X-5375396Y-11989549D01*
X-5397180Y-11968521D01*
X-5417990Y-11946856D01*
X-5437828Y-11924549D01*
X-5456698Y-11901599D01*
X-5474603Y-11878001D01*
X-5491545Y-11853755D01*
X-5507527Y-11828855D01*
X-5522552Y-11803301D01*
X-5536622Y-11777088D01*
X-5549742Y-11750215D01*
X-5561912Y-11722678D01*
X-5573137Y-11694474D01*
X-5583420Y-11665600D01*
X-5592762Y-11636055D01*
X-5601167Y-11605834D01*
X-5610805Y-11567544D01*
X-5614497Y-11552160D01*
X-5617417Y-11539225D01*
X-5619552Y-11528696D01*
X-5620887Y-11520530D01*
X-5621250Y-11517320D01*
X-5621407Y-11514684D01*
X-5621358Y-11512617D01*
X-5621099Y-11511113D01*
X-5620630Y-11510167D01*
X-5619947Y-11509774D01*
X-5619051Y-11509929D01*
X-5617938Y-11510625D01*
X-5616607Y-11511858D01*
X-5615056Y-11513621D01*
X-5611287Y-11518720D01*
X-5606618Y-11525877D01*
X-5601032Y-11535049D01*
X-5587056Y-11559267D01*
X-5550760Y-11617088D01*
X-5510208Y-11670930D01*
X-5465510Y-11720749D01*
X-5416775Y-11766502D01*
X-5364112Y-11808146D01*
X-5307631Y-11845637D01*
X-5247442Y-11878932D01*
X-5183655Y-11907988D01*
X-5116378Y-11932761D01*
X-5045721Y-11953207D01*
X-4971795Y-11969283D01*
X-4894708Y-11980947D01*
X-4814569Y-11988154D01*
X-4731490Y-11990860D01*
X-4645579Y-11989024D01*
X-4556945Y-11982601D01*
X-4467788Y-11972417D01*
X-4381325Y-11959345D01*
X-4297603Y-11943403D01*
X-4216669Y-11924613D01*
X-4138571Y-11902995D01*
X-4063356Y-11878570D01*
X-3991073Y-11851358D01*
X-3921768Y-11821381D01*
X-3855490Y-11788659D01*
X-3792285Y-11753212D01*
X-3732202Y-11715062D01*
X-3675287Y-11674229D01*
X-3621589Y-11630733D01*
X-3571154Y-11584595D01*
X-3524031Y-11535837D01*
X-3480267Y-11484478D01*
X-3404067Y-11389934D01*
X-2786000Y-11389934D01*
X-2808578Y-11430856D01*
G37*
G36*
X-4258671Y-10600822D02*
G01*
X-4235363Y-10601538D01*
X-4212898Y-10602909D01*
X-4191525Y-10604949D01*
X-4171491Y-10607674D01*
X-4153045Y-10611097D01*
X-4136434Y-10615234D01*
X-4123107Y-10619155D01*
X-4110119Y-10623503D01*
X-4097479Y-10628267D01*
X-4085196Y-10633435D01*
X-4073277Y-10638995D01*
X-4061731Y-10644937D01*
X-4050568Y-10651249D01*
X-4039795Y-10657920D01*
X-4029421Y-10664938D01*
X-4019454Y-10672291D01*
X-4009903Y-10679970D01*
X-4000777Y-10687961D01*
X-3992084Y-10696254D01*
X-3983832Y-10704838D01*
X-3976031Y-10713701D01*
X-3968688Y-10722831D01*
X-3961812Y-10732218D01*
X-3955412Y-10741849D01*
X-3949496Y-10751715D01*
X-3944073Y-10761802D01*
X-3939152Y-10772100D01*
X-3934740Y-10782598D01*
X-3930846Y-10793284D01*
X-3927479Y-10804146D01*
X-3924648Y-10815174D01*
X-3922360Y-10826356D01*
X-3920625Y-10837681D01*
X-3919451Y-10849136D01*
X-3918846Y-10860712D01*
X-3918819Y-10872396D01*
X-3919379Y-10884178D01*
X-3920534Y-10896045D01*
X-3922900Y-10912872D01*
X-3926018Y-10929477D01*
X-3929870Y-10945843D01*
X-3934441Y-10961954D01*
X-3939712Y-10977794D01*
X-3945667Y-10993347D01*
X-3952289Y-11008598D01*
X-3959560Y-11023530D01*
X-3967463Y-11038127D01*
X-3975983Y-11052373D01*
X-3985100Y-11066252D01*
X-3994799Y-11079748D01*
X-4005062Y-11092846D01*
X-4015873Y-11105528D01*
X-4039067Y-11129584D01*
X-4064246Y-11151787D01*
X-4091273Y-11172011D01*
X-4120011Y-11190126D01*
X-4150324Y-11206004D01*
X-4166029Y-11213065D01*
X-4182076Y-11219518D01*
X-4198449Y-11225348D01*
X-4215131Y-11230539D01*
X-4232104Y-11235074D01*
X-4249351Y-11238939D01*
X-4266855Y-11242116D01*
X-4284600Y-11244589D01*
X-4295459Y-11245794D01*
X-4305326Y-11246756D01*
X-4314267Y-11247460D01*
X-4322348Y-11247897D01*
X-4326086Y-11248010D01*
X-4329635Y-11248052D01*
X-4333001Y-11248020D01*
X-4336194Y-11247913D01*
X-4339222Y-11247730D01*
X-4342092Y-11247469D01*
X-4344814Y-11247128D01*
X-4347395Y-11246706D01*
X-4349844Y-11246201D01*
X-4352168Y-11245613D01*
X-4354377Y-11244938D01*
X-4356479Y-11244176D01*
X-4358481Y-11243325D01*
X-4360393Y-11242384D01*
X-4362221Y-11241351D01*
X-4363975Y-11240224D01*
X-4365664Y-11239002D01*
X-4367294Y-11237683D01*
X-4368874Y-11236267D01*
X-4370414Y-11234750D01*
X-4371920Y-11233132D01*
X-4373401Y-11231412D01*
X-4374866Y-11229587D01*
X-4376323Y-11227656D01*
X-4379364Y-11223671D01*
X-4382201Y-11220187D01*
X-4384927Y-11217207D01*
X-4387634Y-11214736D01*
X-4389009Y-11213692D01*
X-4390415Y-11212777D01*
X-4391862Y-11211991D01*
X-4393363Y-11211335D01*
X-4394930Y-11210809D01*
X-4396573Y-11210413D01*
X-4398304Y-11210149D01*
X-4400135Y-11210017D01*
X-4402078Y-11210017D01*
X-4404144Y-11210150D01*
X-4408693Y-11210816D01*
X-4413874Y-11212020D01*
X-4419780Y-11213765D01*
X-4426506Y-11216056D01*
X-4434142Y-11218897D01*
X-4452523Y-11226245D01*
X-4468602Y-11232380D01*
X-4484052Y-11237553D01*
X-4498907Y-11241763D01*
X-4513200Y-11245008D01*
X-4526964Y-11247286D01*
X-4533658Y-11248061D01*
X-4540232Y-11248594D01*
X-4546690Y-11248884D01*
X-4553037Y-11248930D01*
X-4559276Y-11248734D01*
X-4565412Y-11248293D01*
X-4571448Y-11247609D01*
X-4577389Y-11246681D01*
X-4583240Y-11245508D01*
X-4589004Y-11244090D01*
X-4594685Y-11242428D01*
X-4600287Y-11240520D01*
X-4605815Y-11238367D01*
X-4611273Y-11235968D01*
X-4616664Y-11233323D01*
X-4621994Y-11230432D01*
X-4627265Y-11227295D01*
X-4632483Y-11223910D01*
X-4637652Y-11220279D01*
X-4642775Y-11216400D01*
X-4652900Y-11207900D01*
X-4660166Y-11201286D01*
X-4666645Y-11195137D01*
X-4672375Y-11189356D01*
X-4677396Y-11183845D01*
X-4681748Y-11178509D01*
X-4685469Y-11173248D01*
X-4688599Y-11167967D01*
X-4689954Y-11165289D01*
X-4691177Y-11162568D01*
X-4692271Y-11159795D01*
X-4693242Y-11156955D01*
X-4694834Y-11151029D01*
X-4695992Y-11144694D01*
X-4696755Y-11137852D01*
X-4697163Y-11130407D01*
X-4697254Y-11122261D01*
X-4697068Y-11113317D01*
X-4696645Y-11103478D01*
X-4695990Y-11093600D01*
X-4579523Y-11093600D01*
X-4579270Y-11105016D01*
X-4578497Y-11115470D01*
X-4577908Y-11120346D01*
X-4577179Y-11124994D01*
X-4576307Y-11129417D01*
X-4575289Y-11133619D01*
X-4574123Y-11137604D01*
X-4572805Y-11141375D01*
X-4571331Y-11144938D01*
X-4569700Y-11148295D01*
X-4567907Y-11151450D01*
X-4565950Y-11154408D01*
X-4563826Y-11157172D01*
X-4561531Y-11159746D01*
X-4559062Y-11162134D01*
X-4556417Y-11164340D01*
X-4553592Y-11166368D01*
X-4550584Y-11168221D01*
X-4547390Y-11169904D01*
X-4544006Y-11171420D01*
X-4540431Y-11172773D01*
X-4536660Y-11173968D01*
X-4532691Y-11175007D01*
X-4528520Y-11175895D01*
X-4524145Y-11176636D01*
X-4519561Y-11177234D01*
X-4509759Y-11178014D01*
X-4499089Y-11178267D01*
X-4490813Y-11177867D01*
X-4482405Y-11176688D01*
X-4473892Y-11174762D01*
X-4465300Y-11172118D01*
X-4456653Y-11168790D01*
X-4447979Y-11164808D01*
X-4439303Y-11160202D01*
X-4430650Y-11155006D01*
X-4413520Y-11142964D01*
X-4396795Y-11128931D01*
X-4380681Y-11113157D01*
X-4365387Y-11095894D01*
X-4351117Y-11077390D01*
X-4338079Y-11057895D01*
X-4326480Y-11037661D01*
X-4316527Y-11016937D01*
X-4308425Y-10995974D01*
X-4305134Y-10985480D01*
X-4302383Y-10975020D01*
X-4300198Y-10964626D01*
X-4298605Y-10954327D01*
X-4297631Y-10944157D01*
X-4297300Y-10934145D01*
X-4297398Y-10929107D01*
X-4297681Y-10924069D01*
X-4298138Y-10919064D01*
X-4298756Y-10914125D01*
X-4299523Y-10909285D01*
X-4300426Y-10904578D01*
X-4301453Y-10900036D01*
X-4302592Y-10895692D01*
X-4303830Y-10891580D01*
X-4305155Y-10887733D01*
X-4306555Y-10884183D01*
X-4308016Y-10880964D01*
X-4309527Y-10878108D01*
X-4311075Y-10875650D01*
X-4311859Y-10874580D01*
X-4312648Y-10873621D01*
X-4313440Y-10872779D01*
X-4314234Y-10872056D01*
X-4323681Y-10865535D01*
X-4333476Y-10860235D01*
X-4343574Y-10856121D01*
X-4353935Y-10853158D01*
X-4364516Y-10851309D01*
X-4375275Y-10850541D01*
X-4386170Y-10850817D01*
X-4397159Y-10852102D01*
X-4408199Y-10854361D01*
X-4419249Y-10857557D01*
X-4430266Y-10861657D01*
X-4441209Y-10866624D01*
X-4452035Y-10872423D01*
X-4462702Y-10879018D01*
X-4473168Y-10886375D01*
X-4483391Y-10894457D01*
X-4493328Y-10903230D01*
X-4502939Y-10912658D01*
X-4512179Y-10922706D01*
X-4521008Y-10933337D01*
X-4529384Y-10944518D01*
X-4537263Y-10956212D01*
X-4544605Y-10968384D01*
X-4551367Y-10980998D01*
X-4557506Y-10994020D01*
X-4562981Y-11007413D01*
X-4567750Y-11021143D01*
X-4571770Y-11035174D01*
X-4574999Y-11049471D01*
X-4577396Y-11063998D01*
X-4578918Y-11078719D01*
X-4579523Y-11093600D01*
X-4695990Y-11093600D01*
X-4695654Y-11088530D01*
X-4693759Y-11073603D01*
X-4690991Y-11058728D01*
X-4687382Y-11043933D01*
X-4682961Y-11029249D01*
X-4677759Y-11014705D01*
X-4671808Y-11000332D01*
X-4665137Y-10986158D01*
X-4657779Y-10972213D01*
X-4649762Y-10958528D01*
X-4641119Y-10945131D01*
X-4631880Y-10932053D01*
X-4622075Y-10919323D01*
X-4611736Y-10906972D01*
X-4600893Y-10895028D01*
X-4589577Y-10883521D01*
X-4577818Y-10872482D01*
X-4565648Y-10861939D01*
X-4553097Y-10851924D01*
X-4540196Y-10842464D01*
X-4526976Y-10833590D01*
X-4513467Y-10825333D01*
X-4499700Y-10817720D01*
X-4485706Y-10810783D01*
X-4471515Y-10804551D01*
X-4457159Y-10799053D01*
X-4442668Y-10794319D01*
X-4428073Y-10790380D01*
X-4413405Y-10787264D01*
X-4398694Y-10785002D01*
X-4383971Y-10783622D01*
X-4369267Y-10783156D01*
X-4363153Y-10783286D01*
X-4357003Y-10783669D01*
X-4350843Y-10784291D01*
X-4344705Y-10785140D01*
X-4338616Y-10786205D01*
X-4332606Y-10787472D01*
X-4326703Y-10788929D01*
X-4320936Y-10790564D01*
X-4315335Y-10792365D01*
X-4309929Y-10794318D01*
X-4304745Y-10796412D01*
X-4299814Y-10798634D01*
X-4295164Y-10800972D01*
X-4290824Y-10803413D01*
X-4286822Y-10805945D01*
X-4283189Y-10808556D01*
X-4277454Y-10813021D01*
X-4272366Y-10816890D01*
X-4267844Y-10820165D01*
X-4265771Y-10821578D01*
X-4263809Y-10822843D01*
X-4261948Y-10823960D01*
X-4260178Y-10824927D01*
X-4258489Y-10825746D01*
X-4256871Y-10826415D01*
X-4255315Y-10826936D01*
X-4253809Y-10827308D01*
X-4252344Y-10827532D01*
X-4250910Y-10827606D01*
X-4249497Y-10827532D01*
X-4248094Y-10827308D01*
X-4246691Y-10826936D01*
X-4245279Y-10826415D01*
X-4243848Y-10825746D01*
X-4242387Y-10824927D01*
X-4240886Y-10823960D01*
X-4239335Y-10822843D01*
X-4237724Y-10821578D01*
X-4236043Y-10820165D01*
X-4232431Y-10816890D01*
X-4228417Y-10813021D01*
X-4223923Y-10808556D01*
X-4221083Y-10805945D01*
X-4217876Y-10803413D01*
X-4214329Y-10800972D01*
X-4210473Y-10798634D01*
X-4206335Y-10796412D01*
X-4201946Y-10794318D01*
X-4197333Y-10792365D01*
X-4192525Y-10790564D01*
X-4187553Y-10788929D01*
X-4182444Y-10787472D01*
X-4177227Y-10786205D01*
X-4171932Y-10785140D01*
X-4166587Y-10784291D01*
X-4161222Y-10783669D01*
X-4155865Y-10783286D01*
X-4150545Y-10783156D01*
X-4101156Y-10783156D01*
X-4178767Y-10958134D01*
X-4194196Y-10993927D01*
X-4208533Y-11027785D01*
X-4221481Y-11058965D01*
X-4232742Y-11086721D01*
X-4242019Y-11110310D01*
X-4249014Y-11128988D01*
X-4253429Y-11142011D01*
X-4254576Y-11146169D01*
X-4254967Y-11148634D01*
X-4254820Y-11150552D01*
X-4254386Y-11152338D01*
X-4253674Y-11153992D01*
X-4252696Y-11155513D01*
X-4251462Y-11156902D01*
X-4249981Y-11158159D01*
X-4248265Y-11159283D01*
X-4246324Y-11160275D01*
X-4244168Y-11161135D01*
X-4241807Y-11161863D01*
X-4236512Y-11162921D01*
X-4230523Y-11163450D01*
X-4223923Y-11163450D01*
X-4216793Y-11162921D01*
X-4209216Y-11161863D01*
X-4201276Y-11160275D01*
X-4193055Y-11158159D01*
X-4184635Y-11155513D01*
X-4176099Y-11152338D01*
X-4167531Y-11148634D01*
X-4159012Y-11144400D01*
X-4146897Y-11137573D01*
X-4135167Y-11130078D01*
X-4123836Y-11121954D01*
X-4112916Y-11113235D01*
X-4102421Y-11103958D01*
X-4092364Y-11094159D01*
X-4082759Y-11083874D01*
X-4073617Y-11073139D01*
X-4064953Y-11061991D01*
X-4056780Y-11050466D01*
X-4041958Y-11026429D01*
X-4029257Y-11001317D01*
X-4018782Y-10975420D01*
X-4010639Y-10949026D01*
X-4007475Y-10935734D01*
X-4004933Y-10922426D01*
X-4003027Y-10909139D01*
X-4001769Y-10895908D01*
X-4001174Y-10882771D01*
X-4001254Y-10869763D01*
X-4002022Y-10856920D01*
X-4003491Y-10844279D01*
X-4005676Y-10831875D01*
X-4008588Y-10819746D01*
X-4012241Y-10807926D01*
X-4016648Y-10796453D01*
X-4021823Y-10785362D01*
X-4027778Y-10774689D01*
X-4030979Y-10770082D01*
X-4034729Y-10765280D01*
X-4038984Y-10760321D01*
X-4043697Y-10755242D01*
X-4048824Y-10750081D01*
X-4054319Y-10744874D01*
X-4060137Y-10739659D01*
X-4066231Y-10734473D01*
X-4072557Y-10729353D01*
X-4079069Y-10724336D01*
X-4085721Y-10719460D01*
X-4092469Y-10714761D01*
X-4099266Y-10710278D01*
X-4106067Y-10706046D01*
X-4112827Y-10702105D01*
X-4119500Y-10698489D01*
X-4139521Y-10689527D01*
X-4148944Y-10685827D01*
X-4158218Y-10682614D01*
X-4167525Y-10679865D01*
X-4177047Y-10677554D01*
X-4186966Y-10675657D01*
X-4197464Y-10674148D01*
X-4208723Y-10673003D01*
X-4220924Y-10672196D01*
X-4234250Y-10671704D01*
X-4248882Y-10671502D01*
X-4282792Y-10671866D01*
X-4324112Y-10673089D01*
X-4366707Y-10674757D01*
X-4384998Y-10675740D01*
X-4401612Y-10676904D01*
X-4416797Y-10678307D01*
X-4430797Y-10680010D01*
X-4443858Y-10682072D01*
X-4456227Y-10684555D01*
X-4468149Y-10687516D01*
X-4479871Y-10691018D01*
X-4491639Y-10695118D01*
X-4503697Y-10699878D01*
X-4516294Y-10705358D01*
X-4529673Y-10711616D01*
X-4544083Y-10718714D01*
X-4559767Y-10726712D01*
X-4587872Y-10742294D01*
X-4614478Y-10759360D01*
X-4639542Y-10777840D01*
X-4663021Y-10797664D01*
X-4684871Y-10818761D01*
X-4705048Y-10841061D01*
X-4723510Y-10864494D01*
X-4740213Y-10888989D01*
X-4755113Y-10914477D01*
X-4768168Y-10940886D01*
X-4779333Y-10968147D01*
X-4788566Y-10996190D01*
X-4795822Y-11024943D01*
X-4801059Y-11054337D01*
X-4804233Y-11084302D01*
X-4805300Y-11114767D01*
X-4805077Y-11126289D01*
X-4804410Y-11137569D01*
X-4803298Y-11148606D01*
X-4801745Y-11159399D01*
X-4799752Y-11169946D01*
X-4797320Y-11180245D01*
X-4794450Y-11190296D01*
X-4791145Y-11200095D01*
X-4787406Y-11209643D01*
X-4783235Y-11218936D01*
X-4778632Y-11227975D01*
X-4773600Y-11236757D01*
X-4768140Y-11245280D01*
X-4762254Y-11253543D01*
X-4755943Y-11261545D01*
X-4749209Y-11269284D01*
X-4742053Y-11276758D01*
X-4734477Y-11283966D01*
X-4726482Y-11290906D01*
X-4718071Y-11297578D01*
X-4709244Y-11303978D01*
X-4700002Y-11310106D01*
X-4690349Y-11315960D01*
X-4680285Y-11321539D01*
X-4658930Y-11331864D01*
X-4635951Y-11341069D01*
X-4611359Y-11349140D01*
X-4585167Y-11356067D01*
X-4554327Y-11362502D01*
X-4523255Y-11367527D01*
X-4492050Y-11371155D01*
X-4460813Y-11373397D01*
X-4429642Y-11374268D01*
X-4398636Y-11373778D01*
X-4367895Y-11371940D01*
X-4337517Y-11368767D01*
X-4307603Y-11364271D01*
X-4278250Y-11358465D01*
X-4249560Y-11351360D01*
X-4221630Y-11342970D01*
X-4194559Y-11333307D01*
X-4168448Y-11322382D01*
X-4143396Y-11310209D01*
X-4119500Y-11296801D01*
X-4111209Y-11291843D01*
X-4102779Y-11287041D01*
X-4094271Y-11282417D01*
X-4085744Y-11277993D01*
X-4077258Y-11273792D01*
X-4068874Y-11269838D01*
X-4060651Y-11266152D01*
X-4052649Y-11262757D01*
X-4044928Y-11259677D01*
X-4037548Y-11256934D01*
X-4030570Y-11254550D01*
X-4024052Y-11252549D01*
X-4018055Y-11250953D01*
X-4012639Y-11249785D01*
X-4007864Y-11249067D01*
X-4003789Y-11248823D01*
X-3967100Y-11248823D01*
X-4013667Y-11296801D01*
X-4026652Y-11309379D01*
X-4040698Y-11321445D01*
X-4071762Y-11344001D01*
X-4106427Y-11364399D01*
X-4144261Y-11382570D01*
X-4184831Y-11398441D01*
X-4227707Y-11411944D01*
X-4272455Y-11423007D01*
X-4318643Y-11431562D01*
X-4365841Y-11437536D01*
X-4413615Y-11440861D01*
X-4461534Y-11441465D01*
X-4509166Y-11439279D01*
X-4556078Y-11434231D01*
X-4601839Y-11426253D01*
X-4646016Y-11415274D01*
X-4688178Y-11401223D01*
X-4700840Y-11396243D01*
X-4713155Y-11390837D01*
X-4736718Y-11378791D01*
X-4758810Y-11365178D01*
X-4779371Y-11350092D01*
X-4798345Y-11333625D01*
X-4815674Y-11315870D01*
X-4831300Y-11296920D01*
X-4845164Y-11276868D01*
X-4857210Y-11255808D01*
X-4867378Y-11233832D01*
X-4871741Y-11222530D01*
X-4875612Y-11211034D01*
X-4878985Y-11199355D01*
X-4881853Y-11187505D01*
X-4884208Y-11175497D01*
X-4886044Y-11163340D01*
X-4887352Y-11151048D01*
X-4888126Y-11138632D01*
X-4888358Y-11126103D01*
X-4888042Y-11113473D01*
X-4887170Y-11100753D01*
X-4885734Y-11087956D01*
X-4878566Y-11047288D01*
X-4868743Y-11007878D01*
X-4856319Y-10969796D01*
X-4841350Y-10933109D01*
X-4823893Y-10897885D01*
X-4804002Y-10864193D01*
X-4781735Y-10832101D01*
X-4757146Y-10801677D01*
X-4730292Y-10772989D01*
X-4701228Y-10746106D01*
X-4670010Y-10721096D01*
X-4636695Y-10698026D01*
X-4601337Y-10676966D01*
X-4563992Y-10657983D01*
X-4524717Y-10641146D01*
X-4483567Y-10626523D01*
X-4465468Y-10621481D01*
X-4445732Y-10616951D01*
X-4424606Y-10612945D01*
X-4402340Y-10609479D01*
X-4379181Y-10606567D01*
X-4355376Y-10604223D01*
X-4331175Y-10602462D01*
X-4306825Y-10601299D01*
X-4282575Y-10600748D01*
X-4258671Y-10600822D01*
G37*
G36*
X-3609384Y-10485941D02*
G01*
X-3594562Y-10486724D01*
X-3580241Y-10488143D01*
X-3566788Y-10490185D01*
X-3554571Y-10492842D01*
X-3543958Y-10496102D01*
X-3539368Y-10497955D01*
X-3535317Y-10499955D01*
X-3531851Y-10502101D01*
X-3529016Y-10504392D01*
X-3526858Y-10506825D01*
X-3525423Y-10509400D01*
X-3524939Y-10513012D01*
X-3525059Y-10519504D01*
X-3527010Y-10540489D01*
X-3531078Y-10571065D01*
X-3537064Y-10609942D01*
X-3553998Y-10707441D01*
X-3576223Y-10822667D01*
X-3616792Y-11033805D01*
X-3629404Y-11101869D01*
X-3632866Y-11122184D01*
X-3634078Y-11131700D01*
X-3633509Y-11134000D01*
X-3631771Y-11136140D01*
X-3628823Y-11138128D01*
X-3624619Y-11139969D01*
X-3619118Y-11141669D01*
X-3612275Y-11143235D01*
X-3594391Y-11145988D01*
X-3570619Y-11148278D01*
X-3540614Y-11150155D01*
X-3504027Y-11151668D01*
X-3460511Y-11152867D01*
X-3288356Y-11157100D01*
X-3291178Y-11199434D01*
X-3293604Y-11236798D01*
X-3295048Y-11251645D01*
X-3297352Y-11264191D01*
X-3301045Y-11274628D01*
X-3303578Y-11279116D01*
X-3306656Y-11283150D01*
X-3310347Y-11286752D01*
X-3314715Y-11289947D01*
X-3319828Y-11292759D01*
X-3325750Y-11295213D01*
X-3340292Y-11299139D01*
X-3358867Y-11301919D01*
X-3382007Y-11303743D01*
X-3410241Y-11304804D01*
X-3484104Y-11305408D01*
X-3584689Y-11305267D01*
X-3628242Y-11305231D01*
X-3667008Y-11305107D01*
X-3701259Y-11304876D01*
X-3731268Y-11304517D01*
X-3757309Y-11304010D01*
X-3768927Y-11303693D01*
X-3779654Y-11303332D01*
X-3789526Y-11302924D01*
X-3798576Y-11302465D01*
X-3806839Y-11301953D01*
X-3814348Y-11301387D01*
X-3821137Y-11300762D01*
X-3827242Y-11300077D01*
X-3832695Y-11299329D01*
X-3837532Y-11298515D01*
X-3841785Y-11297633D01*
X-3845490Y-11296680D01*
X-3848680Y-11295654D01*
X-3850093Y-11295112D01*
X-3851389Y-11294551D01*
X-3852574Y-11293971D01*
X-3853652Y-11293371D01*
X-3854627Y-11292750D01*
X-3855503Y-11292109D01*
X-3856284Y-11291447D01*
X-3856975Y-11290763D01*
X-3857580Y-11290058D01*
X-3858103Y-11289331D01*
X-3858549Y-11288582D01*
X-3858921Y-11287811D01*
X-3859225Y-11287016D01*
X-3859463Y-11286198D01*
X-3859641Y-11285357D01*
X-3859763Y-11284492D01*
X-3859856Y-11282689D01*
X-3853586Y-11235734D01*
X-3836947Y-11142526D01*
X-3785596Y-10881052D01*
X-3731864Y-10625663D01*
X-3712249Y-10540062D01*
X-3701812Y-10503756D01*
X-3699351Y-10501333D01*
X-3696234Y-10499091D01*
X-3692506Y-10497028D01*
X-3688213Y-10495143D01*
X-3683401Y-10493435D01*
X-3678117Y-10491902D01*
X-3666313Y-10489358D01*
X-3653170Y-10487500D01*
X-3639056Y-10486318D01*
X-3624337Y-10485802D01*
X-3609384Y-10485941D01*
G37*
G36*
X-4970743Y-10487595D02*
G01*
X-4956265Y-10488063D01*
X-4942311Y-10488936D01*
X-4929236Y-10490218D01*
X-4917392Y-10491914D01*
X-4907135Y-10494027D01*
X-4898816Y-10496562D01*
X-4895494Y-10497989D01*
X-4892789Y-10499523D01*
X-4890163Y-10501735D01*
X-4888121Y-10505316D01*
X-4886681Y-10510443D01*
X-4885866Y-10517294D01*
X-4885696Y-10526046D01*
X-4886191Y-10536879D01*
X-4889262Y-10565492D01*
X-4895242Y-10604557D01*
X-4904299Y-10655495D01*
X-4932300Y-10798678D01*
X-4943628Y-10853575D01*
X-4954396Y-10903619D01*
X-4964705Y-10949081D01*
X-4974656Y-10990237D01*
X-4984351Y-11027357D01*
X-4993890Y-11060715D01*
X-5003377Y-11090584D01*
X-5012910Y-11117237D01*
X-5017726Y-11129442D01*
X-5022593Y-11140946D01*
X-5027521Y-11151782D01*
X-5032525Y-11161984D01*
X-5037617Y-11171587D01*
X-5042809Y-11180625D01*
X-5048114Y-11189131D01*
X-5053546Y-11197141D01*
X-5059115Y-11204687D01*
X-5064836Y-11211804D01*
X-5070721Y-11218527D01*
X-5076782Y-11224889D01*
X-5083033Y-11230924D01*
X-5089485Y-11236667D01*
X-5096151Y-11242151D01*
X-5103045Y-11247412D01*
X-5116511Y-11256858D01*
X-5130424Y-11265621D01*
X-5144744Y-11273701D01*
X-5159429Y-11281102D01*
X-5174438Y-11287824D01*
X-5189731Y-11293871D01*
X-5205267Y-11299243D01*
X-5221005Y-11303944D01*
X-5236904Y-11307975D01*
X-5252924Y-11311339D01*
X-5269023Y-11314037D01*
X-5285161Y-11316071D01*
X-5301297Y-11317444D01*
X-5317390Y-11318157D01*
X-5333399Y-11318213D01*
X-5349284Y-11317614D01*
X-5365003Y-11316362D01*
X-5380516Y-11314459D01*
X-5395782Y-11311906D01*
X-5410761Y-11308707D01*
X-5425410Y-11304862D01*
X-5439691Y-11300375D01*
X-5453561Y-11295247D01*
X-5466979Y-11289480D01*
X-5479906Y-11283077D01*
X-5492300Y-11276039D01*
X-5504120Y-11268368D01*
X-5515326Y-11260067D01*
X-5525877Y-11251138D01*
X-5535732Y-11241582D01*
X-5544849Y-11231403D01*
X-5553189Y-11220600D01*
X-5559362Y-11211864D01*
X-5564602Y-11204086D01*
X-5568838Y-11197135D01*
X-5571997Y-11190879D01*
X-5573150Y-11187970D01*
X-5574006Y-11185185D01*
X-5574557Y-11182507D01*
X-5574794Y-11179921D01*
X-5574707Y-11177409D01*
X-5574288Y-11174954D01*
X-5573527Y-11172541D01*
X-5572416Y-11170153D01*
X-5570945Y-11167773D01*
X-5569105Y-11165385D01*
X-5566887Y-11162972D01*
X-5564283Y-11160518D01*
X-5561282Y-11158006D01*
X-5557877Y-11155419D01*
X-5549816Y-11149957D01*
X-5540027Y-11143998D01*
X-5528437Y-11137411D01*
X-5499567Y-11121823D01*
X-5440300Y-11087956D01*
X-5400789Y-11126056D01*
X-5396475Y-11130049D01*
X-5392005Y-11133827D01*
X-5387389Y-11137389D01*
X-5382638Y-11140735D01*
X-5377760Y-11143863D01*
X-5372766Y-11146774D01*
X-5362469Y-11151941D01*
X-5351824Y-11156232D01*
X-5340911Y-11159642D01*
X-5329807Y-11162167D01*
X-5318592Y-11163803D01*
X-5307344Y-11164547D01*
X-5296141Y-11164393D01*
X-5285062Y-11163338D01*
X-5274186Y-11161378D01*
X-5263591Y-11158508D01*
X-5258424Y-11156731D01*
X-5253356Y-11154725D01*
X-5248398Y-11152489D01*
X-5243559Y-11150024D01*
X-5238849Y-11147327D01*
X-5234278Y-11144400D01*
X-5227600Y-11138942D01*
X-5221267Y-11132420D01*
X-5215194Y-11124529D01*
X-5209297Y-11114966D01*
X-5203491Y-11103426D01*
X-5197691Y-11089607D01*
X-5191813Y-11073204D01*
X-5185771Y-11053913D01*
X-5172859Y-11005453D01*
X-5158277Y-10941796D01*
X-5141346Y-10860511D01*
X-5121389Y-10759167D01*
X-5111906Y-10709467D01*
X-5102670Y-10662660D01*
X-5093931Y-10619790D01*
X-5085935Y-10581896D01*
X-5078932Y-10550022D01*
X-5073169Y-10525209D01*
X-5068894Y-10508499D01*
X-5067393Y-10503508D01*
X-5066356Y-10500934D01*
X-5065061Y-10499392D01*
X-5063058Y-10497941D01*
X-5060391Y-10496583D01*
X-5057104Y-10495317D01*
X-5048847Y-10493064D01*
X-5038641Y-10491188D01*
X-5026839Y-10489692D01*
X-5013795Y-10488581D01*
X-4999862Y-10487858D01*
X-4985393Y-10487528D01*
X-4970743Y-10487595D01*
G37*
G36*
X-2652650Y-10474652D02*
G01*
X-2635095Y-10475040D01*
X-2617775Y-10475807D01*
X-2600926Y-10476949D01*
X-2584785Y-10478466D01*
X-2569586Y-10480355D01*
X-2555565Y-10482614D01*
X-2542958Y-10485241D01*
X-2532000Y-10488234D01*
X-2526799Y-10490231D01*
X-2521282Y-10492503D01*
X-2509489Y-10497781D01*
X-2497001Y-10503886D01*
X-2484199Y-10510635D01*
X-2471463Y-10517848D01*
X-2459174Y-10525342D01*
X-2453315Y-10529137D01*
X-2447711Y-10532935D01*
X-2442409Y-10536711D01*
X-2437456Y-10540445D01*
X-2389478Y-10574311D01*
X-2443100Y-10629345D01*
X-2448651Y-10635079D01*
X-2454169Y-10640623D01*
X-2459620Y-10645952D01*
X-2464973Y-10651041D01*
X-2470193Y-10655865D01*
X-2475247Y-10660400D01*
X-2480103Y-10664621D01*
X-2484728Y-10668503D01*
X-2489088Y-10672021D01*
X-2493151Y-10675151D01*
X-2496883Y-10677867D01*
X-2500250Y-10680145D01*
X-2503222Y-10681960D01*
X-2505763Y-10683287D01*
X-2506862Y-10683760D01*
X-2507841Y-10684101D01*
X-2508696Y-10684308D01*
X-2509423Y-10684378D01*
X-2510907Y-10684232D01*
X-2512700Y-10683802D01*
X-2514777Y-10683104D01*
X-2517118Y-10682151D01*
X-2519698Y-10680959D01*
X-2522495Y-10679541D01*
X-2525486Y-10677913D01*
X-2528649Y-10676088D01*
X-2535399Y-10671907D01*
X-2542562Y-10667114D01*
X-2549956Y-10661825D01*
X-2557400Y-10656156D01*
X-2562073Y-10652696D01*
X-2567084Y-10649459D01*
X-2578052Y-10643654D01*
X-2590164Y-10638743D01*
X-2603283Y-10634725D01*
X-2617271Y-10631599D01*
X-2631988Y-10629367D01*
X-2647296Y-10628027D01*
X-2663057Y-10627581D01*
X-2679132Y-10628027D01*
X-2695383Y-10629367D01*
X-2711671Y-10631599D01*
X-2727858Y-10634725D01*
X-2743805Y-10638743D01*
X-2759374Y-10643654D01*
X-2774426Y-10649459D01*
X-2788822Y-10656156D01*
X-2808490Y-10667509D01*
X-2827228Y-10680837D01*
X-2844971Y-10695995D01*
X-2861649Y-10712843D01*
X-2877194Y-10731237D01*
X-2891539Y-10751034D01*
X-2904614Y-10772092D01*
X-2916352Y-10794268D01*
X-2926684Y-10817421D01*
X-2935542Y-10841406D01*
X-2942859Y-10866081D01*
X-2948565Y-10891304D01*
X-2952592Y-10916933D01*
X-2954873Y-10942824D01*
X-2955340Y-10968835D01*
X-2953923Y-10994823D01*
X-2952107Y-11009076D01*
X-2949582Y-11022726D01*
X-2946366Y-11035766D01*
X-2942479Y-11048189D01*
X-2937939Y-11059986D01*
X-2932764Y-11071150D01*
X-2926973Y-11081674D01*
X-2920585Y-11091550D01*
X-2913618Y-11100771D01*
X-2906091Y-11109329D01*
X-2898022Y-11117217D01*
X-2889430Y-11124427D01*
X-2880334Y-11130952D01*
X-2870753Y-11136784D01*
X-2860704Y-11141916D01*
X-2850206Y-11146341D01*
X-2839278Y-11150050D01*
X-2827940Y-11153036D01*
X-2816208Y-11155293D01*
X-2804102Y-11156811D01*
X-2791641Y-11157584D01*
X-2778843Y-11157605D01*
X-2765726Y-11156866D01*
X-2752310Y-11155359D01*
X-2738613Y-11153076D01*
X-2724653Y-11150011D01*
X-2710449Y-11146156D01*
X-2696020Y-11141504D01*
X-2681384Y-11136046D01*
X-2666560Y-11129776D01*
X-2651567Y-11122685D01*
X-2636423Y-11114767D01*
X-2575745Y-11082312D01*
X-2533411Y-11133111D01*
X-2528351Y-11139329D01*
X-2523749Y-11145280D01*
X-2519601Y-11150962D01*
X-2515905Y-11156373D01*
X-2512655Y-11161511D01*
X-2509847Y-11166375D01*
X-2508608Y-11168703D01*
X-2507478Y-11170961D01*
X-2506456Y-11173150D01*
X-2505542Y-11175268D01*
X-2504736Y-11177317D01*
X-2504037Y-11179295D01*
X-2503444Y-11181202D01*
X-2502957Y-11183038D01*
X-2502575Y-11184803D01*
X-2502299Y-11186496D01*
X-2502127Y-11188117D01*
X-2502058Y-11189666D01*
X-2502093Y-11191143D01*
X-2502231Y-11192547D01*
X-2502472Y-11193879D01*
X-2502814Y-11195137D01*
X-2503257Y-11196322D01*
X-2503801Y-11197433D01*
X-2504445Y-11198471D01*
X-2505189Y-11199434D01*
X-2511554Y-11206032D01*
X-2519926Y-11213063D01*
X-2530096Y-11220428D01*
X-2541856Y-11228031D01*
X-2554997Y-11235774D01*
X-2569309Y-11243561D01*
X-2584585Y-11251295D01*
X-2600616Y-11258877D01*
X-2617192Y-11266211D01*
X-2634105Y-11273200D01*
X-2651146Y-11279747D01*
X-2668106Y-11285754D01*
X-2684778Y-11291125D01*
X-2700951Y-11295761D01*
X-2716417Y-11299567D01*
X-2730967Y-11302445D01*
X-2747856Y-11305179D01*
X-2764646Y-11307300D01*
X-2781318Y-11308815D01*
X-2797857Y-11309732D01*
X-2814245Y-11310058D01*
X-2830465Y-11309799D01*
X-2846500Y-11308965D01*
X-2862333Y-11307560D01*
X-2877946Y-11305594D01*
X-2893324Y-11303072D01*
X-2908448Y-11300002D01*
X-2923303Y-11296393D01*
X-2937869Y-11292249D01*
X-2952132Y-11287580D01*
X-2966073Y-11282392D01*
X-2979675Y-11276692D01*
X-2992922Y-11270488D01*
X-3005797Y-11263787D01*
X-3018282Y-11256596D01*
X-3030360Y-11248922D01*
X-3042014Y-11240773D01*
X-3053227Y-11232155D01*
X-3063983Y-11223077D01*
X-3074264Y-11213545D01*
X-3084053Y-11203566D01*
X-3093333Y-11193149D01*
X-3102086Y-11182299D01*
X-3110297Y-11171024D01*
X-3117947Y-11159332D01*
X-3125021Y-11147230D01*
X-3131499Y-11134724D01*
X-3137367Y-11121823D01*
X-3142511Y-11107250D01*
X-3146834Y-11091161D01*
X-3150343Y-11073729D01*
X-3153044Y-11055126D01*
X-3154942Y-11035521D01*
X-3156045Y-11015088D01*
X-3156358Y-10993998D01*
X-3155888Y-10972421D01*
X-3154640Y-10950531D01*
X-3152622Y-10928498D01*
X-3149839Y-10906494D01*
X-3146297Y-10884690D01*
X-3142002Y-10863258D01*
X-3136962Y-10842370D01*
X-3131181Y-10822198D01*
X-3124667Y-10802912D01*
X-3113822Y-10777099D01*
X-3100945Y-10751591D01*
X-3086155Y-10726491D01*
X-3069568Y-10701907D01*
X-3051302Y-10677942D01*
X-3031476Y-10654704D01*
X-3010207Y-10632296D01*
X-2987613Y-10610824D01*
X-2963812Y-10590394D01*
X-2938921Y-10571112D01*
X-2913059Y-10553082D01*
X-2886344Y-10536410D01*
X-2858892Y-10521202D01*
X-2830822Y-10507562D01*
X-2802253Y-10495597D01*
X-2773300Y-10485411D01*
X-2762343Y-10482699D01*
X-2749736Y-10480382D01*
X-2735715Y-10478457D01*
X-2720516Y-10476923D01*
X-2704374Y-10475777D01*
X-2687526Y-10475018D01*
X-2670206Y-10474644D01*
X-2652650Y-10474652D01*
G37*
G36*
X4819191Y-10417532D02*
G01*
X4935974Y-10419993D01*
X5030037Y-10423810D01*
X5088000Y-10428967D01*
X5130826Y-10436749D01*
X5170462Y-10445319D01*
X5206988Y-10454736D01*
X5224111Y-10459781D01*
X5240488Y-10465061D01*
X5256129Y-10470582D01*
X5271045Y-10476353D01*
X5285245Y-10482380D01*
X5298740Y-10488672D01*
X5311541Y-10495236D01*
X5323658Y-10502079D01*
X5335101Y-10509208D01*
X5345880Y-10516632D01*
X5356006Y-10524358D01*
X5365490Y-10532393D01*
X5374340Y-10540745D01*
X5382569Y-10549421D01*
X5390186Y-10558429D01*
X5397201Y-10567776D01*
X5403625Y-10577470D01*
X5409468Y-10587519D01*
X5414741Y-10597929D01*
X5419453Y-10608708D01*
X5423616Y-10619864D01*
X5427239Y-10631404D01*
X5430333Y-10643335D01*
X5432908Y-10655666D01*
X5434975Y-10668404D01*
X5436543Y-10681556D01*
X5437546Y-10696021D01*
X5437917Y-10710561D01*
X5437669Y-10725151D01*
X5436816Y-10739767D01*
X5435371Y-10754384D01*
X5433347Y-10768977D01*
X5430757Y-10783522D01*
X5427614Y-10797995D01*
X5423932Y-10812370D01*
X5419723Y-10826624D01*
X5415001Y-10840731D01*
X5409780Y-10854668D01*
X5404071Y-10868409D01*
X5397889Y-10881931D01*
X5391246Y-10895208D01*
X5384156Y-10908216D01*
X5376633Y-10920930D01*
X5368688Y-10933327D01*
X5360335Y-10945380D01*
X5351588Y-10957067D01*
X5342460Y-10968362D01*
X5332963Y-10979241D01*
X5323111Y-10989679D01*
X5312918Y-10999651D01*
X5302395Y-11009134D01*
X5291558Y-11018102D01*
X5280418Y-11026531D01*
X5268988Y-11034397D01*
X5257283Y-11041675D01*
X5245315Y-11048340D01*
X5233098Y-11054368D01*
X5220644Y-11059734D01*
X5209270Y-11064691D01*
X5198973Y-11069493D01*
X5194234Y-11071829D01*
X5189771Y-11074117D01*
X5185587Y-11076356D01*
X5181684Y-11078541D01*
X5178064Y-11080671D01*
X5174729Y-11082742D01*
X5171683Y-11084751D01*
X5168926Y-11086696D01*
X5166462Y-11088574D01*
X5164293Y-11090382D01*
X5162421Y-11092117D01*
X5160848Y-11093777D01*
X5159577Y-11095358D01*
X5158610Y-11096857D01*
X5157950Y-11098272D01*
X5157599Y-11099600D01*
X5157558Y-11100839D01*
X5157655Y-11101423D01*
X5157831Y-11101984D01*
X5158086Y-11102521D01*
X5158420Y-11103034D01*
X5159327Y-11103985D01*
X5160554Y-11104835D01*
X5162104Y-11105581D01*
X5163979Y-11106220D01*
X5166181Y-11106750D01*
X5168713Y-11107166D01*
X5171577Y-11107467D01*
X5174776Y-11107650D01*
X5178311Y-11107712D01*
X5180734Y-11108021D01*
X5183743Y-11108930D01*
X5187293Y-11110409D01*
X5191341Y-11112430D01*
X5195844Y-11114963D01*
X5200759Y-11117981D01*
X5206041Y-11121453D01*
X5211648Y-11125350D01*
X5217536Y-11129645D01*
X5223662Y-11134308D01*
X5236453Y-11144621D01*
X5243031Y-11150214D01*
X5249674Y-11156059D01*
X5256337Y-11162127D01*
X5262978Y-11168389D01*
X5283532Y-11188299D01*
X5291894Y-11196815D01*
X5299093Y-11204637D01*
X5305218Y-11211963D01*
X5310354Y-11218991D01*
X5312579Y-11222455D01*
X5314590Y-11225920D01*
X5316397Y-11229409D01*
X5318011Y-11232948D01*
X5319443Y-11236561D01*
X5320704Y-11240273D01*
X5321805Y-11244110D01*
X5322757Y-11248095D01*
X5324255Y-11256611D01*
X5325287Y-11266021D01*
X5325938Y-11276521D01*
X5326296Y-11288312D01*
X5326477Y-11316556D01*
X5326209Y-11333009D01*
X5325408Y-11349290D01*
X5324076Y-11365393D01*
X5322219Y-11381313D01*
X5319840Y-11397042D01*
X5316943Y-11412575D01*
X5313532Y-11427905D01*
X5309610Y-11443027D01*
X5305182Y-11457933D01*
X5300252Y-11472619D01*
X5294822Y-11487077D01*
X5288898Y-11501301D01*
X5282483Y-11515286D01*
X5275581Y-11529025D01*
X5268196Y-11542511D01*
X5260332Y-11555739D01*
X5251992Y-11568703D01*
X5243180Y-11581396D01*
X5233901Y-11593811D01*
X5224158Y-11605944D01*
X5213955Y-11617787D01*
X5203296Y-11629335D01*
X5192185Y-11640581D01*
X5180626Y-11651518D01*
X5168622Y-11662142D01*
X5156178Y-11672445D01*
X5143297Y-11682422D01*
X5129983Y-11692066D01*
X5116240Y-11701371D01*
X5102072Y-11710330D01*
X5087483Y-11718939D01*
X5072477Y-11727189D01*
X5022540Y-11751955D01*
X4997800Y-11762381D01*
X4972487Y-11771595D01*
X4946058Y-11779668D01*
X4917969Y-11786671D01*
X4887677Y-11792673D01*
X4854637Y-11797745D01*
X4818307Y-11801957D01*
X4778142Y-11805379D01*
X4684135Y-11810136D01*
X4568267Y-11812578D01*
X4426189Y-11813267D01*
X4315422Y-11813107D01*
X4269268Y-11812876D01*
X4228765Y-11812518D01*
X4193538Y-11812010D01*
X4163209Y-11811332D01*
X4137403Y-11810465D01*
X4126079Y-11809953D01*
X4115744Y-11809387D01*
X4106352Y-11808762D01*
X4097855Y-11808077D01*
X4090207Y-11807329D01*
X4083360Y-11806515D01*
X4077268Y-11805633D01*
X4071883Y-11804680D01*
X4067159Y-11803654D01*
X4063048Y-11802551D01*
X4059503Y-11801371D01*
X4056478Y-11800109D01*
X4053925Y-11798763D01*
X4051798Y-11797331D01*
X4050048Y-11795811D01*
X4048630Y-11794198D01*
X4047496Y-11792492D01*
X4046600Y-11790689D01*
X4057345Y-11727774D01*
X4090234Y-11573907D01*
X4108236Y-11494517D01*
X4481529Y-11494517D01*
X4481656Y-11497730D01*
X4481955Y-11500673D01*
X4482424Y-11503371D01*
X4483062Y-11505854D01*
X4483445Y-11507022D01*
X4483869Y-11508148D01*
X4484844Y-11510281D01*
X4485985Y-11512281D01*
X4487291Y-11514176D01*
X4488761Y-11515994D01*
X4490395Y-11517761D01*
X4492191Y-11519505D01*
X4494149Y-11521255D01*
X4496266Y-11523037D01*
X4500978Y-11526811D01*
X4505357Y-11529822D01*
X4510081Y-11532511D01*
X4515231Y-11534885D01*
X4520888Y-11536954D01*
X4527131Y-11538725D01*
X4534042Y-11540206D01*
X4541702Y-11541406D01*
X4550190Y-11542334D01*
X4559588Y-11542997D01*
X4569976Y-11543403D01*
X4594045Y-11543480D01*
X4623042Y-11542631D01*
X4657612Y-11540923D01*
X4693400Y-11538258D01*
X4710360Y-11536512D01*
X4726701Y-11534487D01*
X4742425Y-11532183D01*
X4757537Y-11529596D01*
X4772039Y-11526726D01*
X4785934Y-11523570D01*
X4799226Y-11520127D01*
X4811917Y-11516395D01*
X4824011Y-11512372D01*
X4835510Y-11508056D01*
X4846419Y-11503446D01*
X4856739Y-11498539D01*
X4866474Y-11493334D01*
X4875628Y-11487830D01*
X4884202Y-11482023D01*
X4892201Y-11475913D01*
X4899628Y-11469497D01*
X4906485Y-11462774D01*
X4912775Y-11455742D01*
X4918503Y-11448399D01*
X4923670Y-11440744D01*
X4928280Y-11432774D01*
X4932336Y-11424488D01*
X4935841Y-11415884D01*
X4938799Y-11406960D01*
X4941211Y-11397714D01*
X4943083Y-11388145D01*
X4944415Y-11378250D01*
X4945213Y-11368029D01*
X4945478Y-11357478D01*
X4945346Y-11351563D01*
X4944954Y-11345727D01*
X4944305Y-11339973D01*
X4943402Y-11334308D01*
X4942251Y-11328734D01*
X4940855Y-11323257D01*
X4939217Y-11317881D01*
X4937342Y-11312609D01*
X4935233Y-11307448D01*
X4932894Y-11302400D01*
X4930330Y-11297470D01*
X4927544Y-11292664D01*
X4924539Y-11287984D01*
X4921321Y-11283436D01*
X4917892Y-11279024D01*
X4914257Y-11274752D01*
X4910419Y-11270625D01*
X4906382Y-11266647D01*
X4902151Y-11262822D01*
X4897728Y-11259155D01*
X4893119Y-11255651D01*
X4888326Y-11252313D01*
X4883354Y-11249146D01*
X4878207Y-11246155D01*
X4872888Y-11243343D01*
X4867401Y-11240716D01*
X4861751Y-11238277D01*
X4855941Y-11236032D01*
X4849974Y-11233983D01*
X4843855Y-11232137D01*
X4837589Y-11230497D01*
X4831177Y-11229067D01*
X4819979Y-11227331D01*
X4805750Y-11225826D01*
X4770103Y-11223511D01*
X4728040Y-11222122D01*
X4683364Y-11221659D01*
X4639878Y-11222122D01*
X4601387Y-11223511D01*
X4571693Y-11225826D01*
X4561333Y-11227331D01*
X4554599Y-11229067D01*
X4552851Y-11230544D01*
X4550802Y-11233339D01*
X4548479Y-11237383D01*
X4545913Y-11242605D01*
X4540164Y-11256303D01*
X4533786Y-11273870D01*
X4527012Y-11294744D01*
X4520072Y-11318364D01*
X4513198Y-11344166D01*
X4506622Y-11371589D01*
X4500916Y-11394959D01*
X4495962Y-11415474D01*
X4491752Y-11433356D01*
X4488278Y-11448826D01*
X4486814Y-11455725D01*
X4485531Y-11462104D01*
X4484428Y-11467991D01*
X4483504Y-11473413D01*
X4482758Y-11478397D01*
X4482188Y-11482972D01*
X4481794Y-11487166D01*
X4481575Y-11491005D01*
X4481529Y-11494517D01*
X4108236Y-11494517D01*
X4194590Y-11113709D01*
X4227582Y-10974105D01*
X4600803Y-10974105D01*
X4600858Y-10977261D01*
X4601041Y-10980159D01*
X4601350Y-10982812D01*
X4601784Y-10985232D01*
X4602342Y-10987430D01*
X4603023Y-10989419D01*
X4603826Y-10991211D01*
X4604749Y-10992819D01*
X4605793Y-10994254D01*
X4606956Y-10995529D01*
X4608236Y-10996655D01*
X4609633Y-10997645D01*
X4613175Y-10999642D01*
X4617677Y-11001405D01*
X4629339Y-11004246D01*
X4644168Y-11006206D01*
X4661712Y-11007324D01*
X4681522Y-11007641D01*
X4703147Y-11007195D01*
X4726136Y-11006025D01*
X4750039Y-11004171D01*
X4774404Y-11001673D01*
X4798783Y-10998568D01*
X4822723Y-10994897D01*
X4845774Y-10990700D01*
X4867485Y-10986014D01*
X4887407Y-10980880D01*
X4905088Y-10975336D01*
X4920077Y-10969423D01*
X4931350Y-10964136D01*
X4942142Y-10958351D01*
X4952444Y-10952100D01*
X4962248Y-10945412D01*
X4971545Y-10938319D01*
X4980325Y-10930851D01*
X4988580Y-10923041D01*
X4996300Y-10914918D01*
X5003476Y-10906515D01*
X5010100Y-10897861D01*
X5016162Y-10888988D01*
X5021653Y-10879927D01*
X5026564Y-10870709D01*
X5030887Y-10861365D01*
X5034611Y-10851926D01*
X5037729Y-10842423D01*
X5040231Y-10832886D01*
X5042107Y-10823348D01*
X5043350Y-10813838D01*
X5043949Y-10804389D01*
X5043897Y-10795030D01*
X5043183Y-10785794D01*
X5041799Y-10776710D01*
X5039735Y-10767810D01*
X5036984Y-10759125D01*
X5033534Y-10750687D01*
X5029379Y-10742525D01*
X5024508Y-10734671D01*
X5018912Y-10727156D01*
X5012583Y-10720012D01*
X5005512Y-10713268D01*
X4997688Y-10706956D01*
X4991583Y-10702653D01*
X4985358Y-10698729D01*
X4978893Y-10695164D01*
X4972068Y-10691941D01*
X4964764Y-10689040D01*
X4956860Y-10686443D01*
X4948237Y-10684131D01*
X4938775Y-10682085D01*
X4928353Y-10680288D01*
X4916853Y-10678720D01*
X4904154Y-10677363D01*
X4890135Y-10676198D01*
X4857663Y-10674371D01*
X4818477Y-10673089D01*
X4790528Y-10672293D01*
X4764216Y-10672009D01*
X4740120Y-10672221D01*
X4729083Y-10672508D01*
X4718818Y-10672913D01*
X4709396Y-10673433D01*
X4700890Y-10674068D01*
X4693371Y-10674814D01*
X4686913Y-10675669D01*
X4681588Y-10676632D01*
X4677468Y-10677700D01*
X4675883Y-10678273D01*
X4674626Y-10678872D01*
X4673706Y-10679496D01*
X4673133Y-10680145D01*
X4670845Y-10685663D01*
X4667268Y-10696505D01*
X4656905Y-10731650D01*
X4643367Y-10780554D01*
X4627978Y-10838189D01*
X4622718Y-10859405D01*
X4618045Y-10878668D01*
X4613951Y-10896074D01*
X4610427Y-10911721D01*
X4607466Y-10925707D01*
X4605058Y-10938127D01*
X4603197Y-10949080D01*
X4602468Y-10954037D01*
X4601872Y-10958663D01*
X4601409Y-10962971D01*
X4601077Y-10966972D01*
X4600875Y-10970680D01*
X4600803Y-10974105D01*
X4227582Y-10974105D01*
X4303973Y-10650864D01*
X4343145Y-10493691D01*
X4362688Y-10426145D01*
X4371191Y-10423681D01*
X4392407Y-10421578D01*
X4466295Y-10418450D01*
X4570973Y-10416744D01*
X4693065Y-10416443D01*
X4819191Y-10417532D01*
G37*
G36*
X1973501Y-10416796D02*
G01*
X2110961Y-10418469D01*
X2237489Y-10421581D01*
X2338254Y-10426048D01*
X2398422Y-10431789D01*
X2416465Y-10435321D01*
X2434549Y-10439537D01*
X2452583Y-10444393D01*
X2470477Y-10449847D01*
X2488139Y-10455855D01*
X2505479Y-10462373D01*
X2522405Y-10469359D01*
X2538828Y-10476768D01*
X2554654Y-10484558D01*
X2569795Y-10492685D01*
X2584158Y-10501105D01*
X2597653Y-10509775D01*
X2610189Y-10518652D01*
X2621675Y-10527692D01*
X2632020Y-10536853D01*
X2641133Y-10546089D01*
X2649806Y-10556189D01*
X2658323Y-10567358D01*
X2666629Y-10579473D01*
X2674669Y-10592413D01*
X2682386Y-10606056D01*
X2689725Y-10620280D01*
X2696630Y-10634963D01*
X2703045Y-10649982D01*
X2708915Y-10665217D01*
X2714183Y-10680545D01*
X2718793Y-10695843D01*
X2722691Y-10710991D01*
X2725819Y-10725866D01*
X2728123Y-10740346D01*
X2729546Y-10754309D01*
X2730033Y-10767634D01*
X2729056Y-10796517D01*
X2726188Y-10826393D01*
X2721522Y-10857030D01*
X2715150Y-10888196D01*
X2707166Y-10919659D01*
X2697663Y-10951188D01*
X2686733Y-10982553D01*
X2674470Y-11013520D01*
X2660967Y-11043859D01*
X2646317Y-11073338D01*
X2630613Y-11101725D01*
X2613947Y-11128790D01*
X2596413Y-11154300D01*
X2578104Y-11178025D01*
X2559113Y-11199732D01*
X2539533Y-11219189D01*
X2514209Y-11241338D01*
X2487887Y-11261774D01*
X2460428Y-11280534D01*
X2431693Y-11297660D01*
X2401545Y-11313190D01*
X2369844Y-11327164D01*
X2336453Y-11339621D01*
X2301232Y-11350599D01*
X2264043Y-11360139D01*
X2224748Y-11368279D01*
X2183208Y-11375060D01*
X2139285Y-11380519D01*
X2092839Y-11384697D01*
X2043734Y-11387632D01*
X1991830Y-11389365D01*
X1936988Y-11389934D01*
X1745077Y-11389934D01*
X1698511Y-11583256D01*
X1689424Y-11622795D01*
X1680321Y-11660382D01*
X1671449Y-11695125D01*
X1663057Y-11726131D01*
X1655392Y-11752507D01*
X1648703Y-11773359D01*
X1645802Y-11781435D01*
X1643238Y-11787795D01*
X1641041Y-11792328D01*
X1639244Y-11794923D01*
X1637124Y-11797222D01*
X1633925Y-11799357D01*
X1629626Y-11801332D01*
X1624207Y-11803147D01*
X1617647Y-11804805D01*
X1609925Y-11806308D01*
X1590914Y-11808857D01*
X1567008Y-11810812D01*
X1538041Y-11812187D01*
X1503850Y-11813000D01*
X1464267Y-11813267D01*
X1440351Y-11813215D01*
X1418791Y-11813049D01*
X1399464Y-11812756D01*
X1382246Y-11812319D01*
X1367012Y-11811725D01*
X1353638Y-11810960D01*
X1347610Y-11810509D01*
X1342000Y-11810009D01*
X1336794Y-11809459D01*
X1331975Y-11808857D01*
X1327528Y-11808202D01*
X1323438Y-11807491D01*
X1319689Y-11806722D01*
X1316265Y-11805895D01*
X1313152Y-11805006D01*
X1310333Y-11804055D01*
X1307793Y-11803039D01*
X1305517Y-11801956D01*
X1303488Y-11800806D01*
X1301693Y-11799585D01*
X1300114Y-11798292D01*
X1298737Y-11796926D01*
X1297546Y-11795485D01*
X1296525Y-11793966D01*
X1295659Y-11792368D01*
X1294933Y-11790689D01*
X1305679Y-11727716D01*
X1338567Y-11573709D01*
X1442923Y-11113180D01*
X1456053Y-11057617D01*
X1822931Y-11057617D01*
X1822956Y-11062680D01*
X1823399Y-11067296D01*
X1824293Y-11071483D01*
X1825668Y-11075256D01*
X1827557Y-11078632D01*
X1829991Y-11081628D01*
X1833003Y-11084260D01*
X1836623Y-11086545D01*
X1840885Y-11088499D01*
X1845819Y-11090139D01*
X1851457Y-11091481D01*
X1857831Y-11092542D01*
X1872916Y-11093887D01*
X1891326Y-11094306D01*
X1913316Y-11093931D01*
X1939141Y-11092895D01*
X2003311Y-11089367D01*
X2033503Y-11087405D01*
X2061227Y-11085178D01*
X2086661Y-11082620D01*
X2109982Y-11079666D01*
X2131369Y-11076248D01*
X2150998Y-11072301D01*
X2160209Y-11070109D01*
X2169048Y-11067759D01*
X2177537Y-11065245D01*
X2185697Y-11062556D01*
X2193551Y-11059686D01*
X2201122Y-11056625D01*
X2208431Y-11053366D01*
X2215501Y-11049900D01*
X2222354Y-11046219D01*
X2229012Y-11042315D01*
X2235498Y-11038180D01*
X2241833Y-11033805D01*
X2248040Y-11029181D01*
X2254140Y-11024302D01*
X2260158Y-11019157D01*
X2266114Y-11013740D01*
X2277929Y-11002055D01*
X2289766Y-10989178D01*
X2296552Y-10981242D01*
X2302645Y-10973780D01*
X2308081Y-10966702D01*
X2312895Y-10959920D01*
X2317122Y-10953344D01*
X2320797Y-10946886D01*
X2323955Y-10940457D01*
X2326631Y-10933968D01*
X2328861Y-10927331D01*
X2330680Y-10920455D01*
X2332123Y-10913253D01*
X2333224Y-10905636D01*
X2334019Y-10897514D01*
X2334544Y-10888799D01*
X2334833Y-10879402D01*
X2334922Y-10869234D01*
X2334814Y-10861395D01*
X2334492Y-10853755D01*
X2333954Y-10846311D01*
X2333202Y-10839063D01*
X2332235Y-10832011D01*
X2331052Y-10825153D01*
X2329655Y-10818489D01*
X2328043Y-10812018D01*
X2326215Y-10805739D01*
X2324173Y-10799651D01*
X2321916Y-10793755D01*
X2319444Y-10788048D01*
X2316757Y-10782530D01*
X2313854Y-10777201D01*
X2310737Y-10772059D01*
X2307405Y-10767105D01*
X2303858Y-10762336D01*
X2300096Y-10757752D01*
X2296119Y-10753353D01*
X2291927Y-10749138D01*
X2287520Y-10745105D01*
X2282898Y-10741255D01*
X2278061Y-10737586D01*
X2273010Y-10734098D01*
X2267743Y-10730789D01*
X2262261Y-10727660D01*
X2256564Y-10724709D01*
X2250652Y-10721935D01*
X2244525Y-10719338D01*
X2238184Y-10716917D01*
X2231627Y-10714672D01*
X2224855Y-10712600D01*
X2211756Y-10709968D01*
X2194142Y-10707419D01*
X2172790Y-10705035D01*
X2148479Y-10702899D01*
X2121985Y-10701094D01*
X2094085Y-10699702D01*
X2065557Y-10698806D01*
X2037178Y-10698489D01*
X1900300Y-10698489D01*
X1876311Y-10807145D01*
X1865728Y-10856379D01*
X1854086Y-10908921D01*
X1833977Y-10999056D01*
X1826379Y-11032570D01*
X1824009Y-11046086D01*
X1822931Y-11057617D01*
X1456053Y-11057617D01*
X1552307Y-10650269D01*
X1591479Y-10493286D01*
X1611022Y-10426145D01*
X1620470Y-10423464D01*
X1643872Y-10421236D01*
X1725124Y-10418097D01*
X1839945Y-10416645D01*
X1973501Y-10416796D01*
G37*
G36*
X-773050Y-10414680D02*
G01*
X-742569Y-10415332D01*
X-713089Y-10416623D01*
X-685477Y-10418546D01*
X-660602Y-10421096D01*
X-639332Y-10424266D01*
X-622535Y-10428049D01*
X-616086Y-10430169D01*
X-611080Y-10432441D01*
X-607626Y-10434862D01*
X-605834Y-10437434D01*
X-606619Y-10451437D01*
X-611853Y-10483582D01*
X-633880Y-10593891D01*
X-668342Y-10751560D01*
X-711667Y-10939789D01*
X-756271Y-11130069D01*
X-775589Y-11215469D01*
X-792277Y-11291509D01*
X-805856Y-11356040D01*
X-815847Y-11406911D01*
X-821769Y-11441974D01*
X-823055Y-11452905D01*
X-823145Y-11459078D01*
X-818912Y-11495767D01*
X-500000Y-11500000D01*
X-414380Y-11501144D01*
X-343940Y-11502536D01*
X-313989Y-11503361D01*
X-287325Y-11504292D01*
X-263778Y-11505342D01*
X-243178Y-11506527D01*
X-225357Y-11507860D01*
X-210144Y-11509357D01*
X-197370Y-11511032D01*
X-186866Y-11512899D01*
X-182412Y-11513909D01*
X-178462Y-11514972D01*
X-174995Y-11516091D01*
X-171989Y-11517267D01*
X-169423Y-11518502D01*
X-167277Y-11519798D01*
X-165528Y-11521156D01*
X-164156Y-11522578D01*
X-161974Y-11525514D01*
X-160193Y-11529066D01*
X-158817Y-11533288D01*
X-157850Y-11538233D01*
X-157297Y-11543955D01*
X-157161Y-11550508D01*
X-157447Y-11557946D01*
X-158159Y-11566323D01*
X-159300Y-11575691D01*
X-160876Y-11586106D01*
X-165346Y-11610288D01*
X-171603Y-11639298D01*
X-179678Y-11673567D01*
X-212134Y-11806212D01*
X-738478Y-11810445D01*
X-885892Y-11811225D01*
X-1004186Y-11811393D01*
X-1053358Y-11811222D01*
X-1096385Y-11810867D01*
X-1133645Y-11810317D01*
X-1165516Y-11809563D01*
X-1192376Y-11808594D01*
X-1214604Y-11807399D01*
X-1232578Y-11805969D01*
X-1246677Y-11804293D01*
X-1252391Y-11803360D01*
X-1257278Y-11802361D01*
X-1261385Y-11801295D01*
X-1264759Y-11800162D01*
X-1267449Y-11798959D01*
X-1269500Y-11797686D01*
X-1270961Y-11796341D01*
X-1271878Y-11794923D01*
X-1272216Y-11791018D01*
X-1271669Y-11783664D01*
X-1268086Y-11759358D01*
X-1261460Y-11723510D01*
X-1252123Y-11677624D01*
X-1226634Y-11561759D01*
X-1194267Y-11423800D01*
X-1036223Y-10761989D01*
X-1021467Y-10699245D01*
X-1007074Y-10639972D01*
X-993410Y-10585529D01*
X-980836Y-10537270D01*
X-969718Y-10496552D01*
X-960419Y-10464730D01*
X-953303Y-10443161D01*
X-950677Y-10436645D01*
X-948733Y-10433200D01*
X-945915Y-10430774D01*
X-941503Y-10428520D01*
X-928327Y-10424527D01*
X-910075Y-10421217D01*
X-887615Y-10418582D01*
X-861814Y-10416617D01*
X-833541Y-10415316D01*
X-803663Y-10414672D01*
X-773050Y-10414680D01*
G37*
G36*
X-1333893Y-10417598D02*
G01*
X-1260126Y-10421228D01*
X-1230001Y-10423660D01*
X-1206038Y-10426478D01*
X-1189479Y-10429665D01*
X-1184365Y-10431390D01*
X-1181567Y-10433200D01*
X-1179367Y-10438023D01*
X-1178122Y-10445388D01*
X-1178877Y-10469581D01*
X-1184593Y-10509450D01*
X-1196031Y-10568667D01*
X-1239114Y-10759829D01*
X-1314212Y-11072434D01*
X-1328916Y-11132146D01*
X-1342944Y-11187122D01*
X-1356414Y-11237655D01*
X-1369443Y-11284034D01*
X-1382150Y-11326553D01*
X-1394653Y-11365501D01*
X-1407069Y-11401171D01*
X-1419516Y-11433855D01*
X-1432111Y-11463842D01*
X-1444974Y-11491426D01*
X-1458220Y-11516898D01*
X-1471969Y-11540548D01*
X-1486338Y-11562668D01*
X-1501445Y-11583551D01*
X-1517408Y-11603487D01*
X-1534345Y-11622767D01*
X-1565381Y-11654566D01*
X-1598151Y-11683814D01*
X-1632636Y-11710508D01*
X-1668819Y-11734642D01*
X-1706681Y-11756213D01*
X-1746202Y-11775217D01*
X-1787364Y-11791649D01*
X-1830149Y-11805506D01*
X-1874538Y-11816783D01*
X-1920512Y-11825477D01*
X-1968054Y-11831582D01*
X-2017143Y-11835095D01*
X-2067762Y-11836012D01*
X-2119892Y-11834329D01*
X-2173515Y-11830041D01*
X-2228611Y-11823145D01*
X-2256751Y-11818269D01*
X-2283601Y-11813245D01*
X-2308532Y-11808188D01*
X-2330917Y-11803213D01*
X-2350127Y-11798437D01*
X-2358345Y-11796159D01*
X-2365533Y-11793975D01*
X-2371614Y-11791898D01*
X-2376508Y-11789942D01*
X-2380137Y-11788124D01*
X-2381453Y-11787270D01*
X-2382423Y-11786456D01*
X-2383926Y-11784036D01*
X-2385011Y-11780272D01*
X-2385997Y-11769068D01*
X-2385533Y-11753543D01*
X-2383768Y-11734399D01*
X-2380853Y-11712336D01*
X-2376941Y-11688056D01*
X-2366724Y-11635643D01*
X-2354324Y-11582768D01*
X-2347683Y-11557909D01*
X-2340949Y-11535036D01*
X-2334273Y-11514850D01*
X-2327805Y-11498052D01*
X-2321698Y-11485343D01*
X-2318826Y-11480740D01*
X-2316100Y-11477423D01*
X-2313597Y-11475174D01*
X-2310828Y-11473192D01*
X-2307757Y-11471479D01*
X-2304348Y-11470036D01*
X-2300568Y-11468867D01*
X-2296381Y-11467972D01*
X-2291751Y-11467354D01*
X-2286643Y-11467016D01*
X-2281023Y-11466958D01*
X-2274856Y-11467184D01*
X-2268105Y-11467695D01*
X-2260736Y-11468493D01*
X-2252714Y-11469581D01*
X-2244004Y-11470960D01*
X-2224378Y-11474600D01*
X-2206772Y-11477233D01*
X-2186190Y-11479782D01*
X-2163359Y-11482166D01*
X-2139006Y-11484302D01*
X-2113859Y-11486107D01*
X-2088647Y-11487499D01*
X-2064096Y-11488395D01*
X-2040934Y-11488712D01*
X-2014047Y-11488291D01*
X-1988888Y-11486997D01*
X-1965366Y-11484786D01*
X-1954191Y-11483322D01*
X-1943391Y-11481612D01*
X-1932954Y-11479649D01*
X-1922870Y-11477429D01*
X-1913128Y-11474945D01*
X-1903714Y-11472192D01*
X-1894619Y-11469163D01*
X-1885832Y-11465855D01*
X-1877339Y-11462260D01*
X-1869131Y-11458373D01*
X-1861196Y-11454188D01*
X-1853522Y-11449700D01*
X-1846098Y-11444903D01*
X-1838913Y-11439791D01*
X-1831956Y-11434359D01*
X-1825214Y-11428601D01*
X-1818677Y-11422511D01*
X-1812334Y-11416083D01*
X-1806172Y-11409313D01*
X-1800181Y-11402193D01*
X-1794349Y-11394720D01*
X-1788664Y-11386886D01*
X-1783117Y-11378686D01*
X-1777694Y-11370114D01*
X-1772385Y-11361165D01*
X-1767178Y-11351834D01*
X-1758166Y-11332141D01*
X-1747734Y-11304553D01*
X-1723808Y-11230500D01*
X-1697799Y-11139282D01*
X-1672105Y-11040507D01*
X-1649122Y-10943783D01*
X-1631248Y-10858717D01*
X-1624977Y-10823558D01*
X-1620883Y-10794916D01*
X-1619265Y-10773993D01*
X-1620423Y-10761989D01*
X-1621627Y-10759826D01*
X-1623112Y-10757580D01*
X-1624862Y-10755267D01*
X-1626861Y-10752905D01*
X-1629090Y-10750510D01*
X-1631535Y-10748099D01*
X-1634178Y-10745687D01*
X-1637003Y-10743292D01*
X-1639993Y-10740930D01*
X-1643133Y-10738618D01*
X-1646404Y-10736372D01*
X-1649791Y-10734208D01*
X-1653278Y-10732144D01*
X-1656847Y-10730195D01*
X-1660482Y-10728379D01*
X-1664167Y-10726712D01*
X-1667619Y-10725341D01*
X-1671079Y-10723881D01*
X-1674523Y-10722343D01*
X-1677925Y-10720736D01*
X-1681262Y-10719072D01*
X-1684507Y-10717360D01*
X-1687636Y-10715611D01*
X-1690625Y-10713835D01*
X-1693449Y-10712043D01*
X-1696082Y-10710244D01*
X-1698501Y-10708449D01*
X-1700680Y-10706669D01*
X-1702594Y-10704914D01*
X-1704218Y-10703194D01*
X-1704915Y-10702350D01*
X-1705529Y-10701519D01*
X-1706059Y-10700702D01*
X-1706500Y-10699900D01*
X-1707131Y-10698078D01*
X-1707448Y-10695044D01*
X-1707200Y-10685654D01*
X-1705887Y-10672358D01*
X-1703634Y-10655781D01*
X-1696827Y-10615292D01*
X-1687803Y-10569196D01*
X-1677589Y-10522506D01*
X-1667210Y-10480230D01*
X-1657690Y-10447380D01*
X-1653573Y-10436056D01*
X-1650056Y-10428967D01*
X-1647643Y-10427061D01*
X-1642888Y-10425309D01*
X-1626974Y-10422261D01*
X-1603557Y-10419805D01*
X-1573878Y-10417921D01*
X-1500707Y-10415796D01*
X-1417399Y-10415738D01*
X-1333893Y-10417598D01*
G37*
G36*
X3674141Y-10403528D02*
G01*
X3708497Y-10404964D01*
X3741557Y-10407139D01*
X3772873Y-10410058D01*
X3801995Y-10413726D01*
X3828476Y-10418146D01*
X3851866Y-10423323D01*
X3886974Y-10433327D01*
X3919801Y-10444820D01*
X3950350Y-10457801D01*
X3964771Y-10464850D01*
X3978624Y-10472271D01*
X3991908Y-10480063D01*
X4004624Y-10488228D01*
X4016771Y-10496765D01*
X4028352Y-10505674D01*
X4039364Y-10514955D01*
X4049810Y-10524608D01*
X4059689Y-10534634D01*
X4069001Y-10545031D01*
X4077747Y-10555800D01*
X4085927Y-10566942D01*
X4093540Y-10578455D01*
X4100589Y-10590341D01*
X4107071Y-10602599D01*
X4112989Y-10615228D01*
X4118342Y-10628230D01*
X4123130Y-10641604D01*
X4127355Y-10655350D01*
X4131015Y-10669468D01*
X4134111Y-10683958D01*
X4136644Y-10698820D01*
X4138613Y-10714054D01*
X4140019Y-10729661D01*
X4141144Y-10761989D01*
X4141063Y-10770944D01*
X4140822Y-10779785D01*
X4140428Y-10788465D01*
X4139887Y-10796936D01*
X4139206Y-10805151D01*
X4138391Y-10813062D01*
X4137447Y-10820622D01*
X4136382Y-10827782D01*
X4135200Y-10834497D01*
X4133909Y-10840717D01*
X4132515Y-10846395D01*
X4131024Y-10851485D01*
X4129441Y-10855937D01*
X4127774Y-10859706D01*
X4126911Y-10861319D01*
X4126029Y-10862743D01*
X4125128Y-10863972D01*
X4124211Y-10865000D01*
X4121532Y-10867051D01*
X4117731Y-10868969D01*
X4112810Y-10870755D01*
X4106770Y-10872409D01*
X4099614Y-10873930D01*
X4091344Y-10875319D01*
X4071470Y-10877700D01*
X4047164Y-10879553D01*
X4018443Y-10880875D01*
X3985324Y-10881669D01*
X3947821Y-10881934D01*
X3788367Y-10881934D01*
X3753088Y-10825489D01*
X3743950Y-10811759D01*
X3734488Y-10799122D01*
X3724641Y-10787547D01*
X3714349Y-10777004D01*
X3703553Y-10767462D01*
X3692193Y-10758889D01*
X3680209Y-10751254D01*
X3667540Y-10744527D01*
X3654127Y-10738676D01*
X3639910Y-10733671D01*
X3624830Y-10729480D01*
X3608825Y-10726072D01*
X3591836Y-10723417D01*
X3573803Y-10721483D01*
X3554667Y-10720240D01*
X3534366Y-10719656D01*
X3517470Y-10719982D01*
X3500915Y-10720961D01*
X3484701Y-10722592D01*
X3468830Y-10724873D01*
X3453303Y-10727805D01*
X3438121Y-10731386D01*
X3423286Y-10735615D01*
X3408800Y-10740492D01*
X3394662Y-10746016D01*
X3380875Y-10752186D01*
X3367440Y-10759002D01*
X3354359Y-10766462D01*
X3341632Y-10774567D01*
X3329260Y-10783314D01*
X3317246Y-10792704D01*
X3305590Y-10802735D01*
X3294294Y-10813407D01*
X3283358Y-10824719D01*
X3272785Y-10836671D01*
X3262576Y-10849260D01*
X3252731Y-10862488D01*
X3243253Y-10876352D01*
X3225399Y-10905989D01*
X3209026Y-10938164D01*
X3194143Y-10972871D01*
X3180760Y-11010103D01*
X3168889Y-11049856D01*
X3156768Y-11095989D01*
X3146339Y-11138723D01*
X3137604Y-11178233D01*
X3130568Y-11214691D01*
X3125236Y-11248273D01*
X3123210Y-11264039D01*
X3121611Y-11279151D01*
X3120440Y-11293630D01*
X3119697Y-11307498D01*
X3119384Y-11320777D01*
X3119500Y-11333489D01*
X3120046Y-11345656D01*
X3121022Y-11357298D01*
X3122429Y-11368438D01*
X3124268Y-11379097D01*
X3126538Y-11389297D01*
X3129242Y-11399061D01*
X3132378Y-11408408D01*
X3135948Y-11417362D01*
X3139952Y-11425944D01*
X3144390Y-11434176D01*
X3149264Y-11442079D01*
X3154574Y-11449674D01*
X3160319Y-11456985D01*
X3166501Y-11464032D01*
X3173120Y-11470837D01*
X3180177Y-11477423D01*
X3190910Y-11486036D01*
X3202934Y-11493879D01*
X3216154Y-11500941D01*
X3230470Y-11507210D01*
X3245788Y-11512678D01*
X3262008Y-11517333D01*
X3279035Y-11521166D01*
X3296771Y-11524166D01*
X3315118Y-11526322D01*
X3333980Y-11527625D01*
X3353260Y-11528063D01*
X3372860Y-11527627D01*
X3392684Y-11526307D01*
X3412633Y-11524091D01*
X3432612Y-11520970D01*
X3452522Y-11516934D01*
X3463751Y-11514244D01*
X3474223Y-11511427D01*
X3484043Y-11508420D01*
X3493312Y-11505160D01*
X3502135Y-11501586D01*
X3510615Y-11497636D01*
X3518855Y-11493247D01*
X3526958Y-11488359D01*
X3535029Y-11482908D01*
X3543169Y-11476833D01*
X3551484Y-11470072D01*
X3560075Y-11462562D01*
X3569047Y-11454242D01*
X3578502Y-11445050D01*
X3588545Y-11434923D01*
X3599278Y-11423800D01*
X3671244Y-11347601D01*
X3810945Y-11347601D01*
X3844957Y-11347868D01*
X3860501Y-11348205D01*
X3875084Y-11348681D01*
X3888716Y-11349297D01*
X3901407Y-11350056D01*
X3913168Y-11350960D01*
X3924009Y-11352010D01*
X3933941Y-11353209D01*
X3942974Y-11354560D01*
X3951118Y-11356063D01*
X3958383Y-11357721D01*
X3964780Y-11359536D01*
X3970320Y-11361510D01*
X3975012Y-11363646D01*
X3978866Y-11365945D01*
X3983084Y-11369236D01*
X3986740Y-11372300D01*
X3989839Y-11375240D01*
X3992382Y-11378160D01*
X3993446Y-11379644D01*
X3994371Y-11381162D01*
X3995158Y-11382726D01*
X3995808Y-11384350D01*
X3996320Y-11386046D01*
X3996695Y-11387827D01*
X3996933Y-11389707D01*
X3997034Y-11391698D01*
X3996828Y-11396064D01*
X3996078Y-11401030D01*
X3994787Y-11406698D01*
X3992956Y-11413173D01*
X3990587Y-11420557D01*
X3987683Y-11428954D01*
X3980278Y-11449200D01*
X3968686Y-11476537D01*
X3955140Y-11503451D01*
X3939738Y-11529853D01*
X3922577Y-11555651D01*
X3903754Y-11580755D01*
X3883366Y-11605073D01*
X3861511Y-11628515D01*
X3838285Y-11650989D01*
X3813786Y-11672405D01*
X3788110Y-11692672D01*
X3761356Y-11711699D01*
X3733620Y-11729394D01*
X3704999Y-11745667D01*
X3675590Y-11760428D01*
X3645492Y-11773584D01*
X3614800Y-11785045D01*
X3594642Y-11791037D01*
X3570746Y-11797260D01*
X3544007Y-11803549D01*
X3515316Y-11809739D01*
X3485567Y-11815665D01*
X3455653Y-11821161D01*
X3426466Y-11826061D01*
X3398900Y-11830200D01*
X3364153Y-11833841D01*
X3330044Y-11836306D01*
X3296599Y-11837611D01*
X3263844Y-11837771D01*
X3231805Y-11836802D01*
X3200509Y-11834718D01*
X3169981Y-11831535D01*
X3140248Y-11827268D01*
X3111335Y-11821932D01*
X3083269Y-11815543D01*
X3056075Y-11808116D01*
X3029781Y-11799666D01*
X3004412Y-11790208D01*
X2979994Y-11779758D01*
X2956553Y-11768330D01*
X2934115Y-11755941D01*
X2912707Y-11742605D01*
X2892354Y-11728337D01*
X2873082Y-11713153D01*
X2854919Y-11697068D01*
X2837889Y-11680098D01*
X2822019Y-11662256D01*
X2807335Y-11643560D01*
X2793863Y-11624024D01*
X2781630Y-11603663D01*
X2770660Y-11582492D01*
X2760981Y-11560527D01*
X2752619Y-11537783D01*
X2745599Y-11514276D01*
X2739947Y-11490020D01*
X2735691Y-11465030D01*
X2732855Y-11439323D01*
X2732474Y-11415059D01*
X2734371Y-11384650D01*
X2738343Y-11348962D01*
X2744188Y-11308861D01*
X2760686Y-11218883D01*
X2782244Y-11121646D01*
X2807242Y-11024078D01*
X2834059Y-10933109D01*
X2847643Y-10892263D01*
X2861074Y-10855666D01*
X2874149Y-10824182D01*
X2886667Y-10798678D01*
X2905044Y-10766342D01*
X2925208Y-10734985D01*
X2947091Y-10704662D01*
X2970628Y-10675426D01*
X2995752Y-10647332D01*
X3022398Y-10620432D01*
X3050499Y-10594780D01*
X3079989Y-10570431D01*
X3110802Y-10547438D01*
X3142871Y-10525854D01*
X3176132Y-10505734D01*
X3210516Y-10487131D01*
X3245959Y-10470099D01*
X3282395Y-10454692D01*
X3319756Y-10440964D01*
X3357977Y-10428967D01*
X3380624Y-10423230D01*
X3406459Y-10418191D01*
X3435036Y-10413855D01*
X3465905Y-10410226D01*
X3498618Y-10407308D01*
X3532726Y-10405105D01*
X3603334Y-10402861D01*
X3674141Y-10403528D01*
G37*
G36*
X836046Y-10407076D02*
G01*
X881477Y-10407800D01*
X919401Y-10408864D01*
X954946Y-10410490D01*
X988246Y-10412712D01*
X1019436Y-10415561D01*
X1048649Y-10419073D01*
X1076021Y-10423278D01*
X1101685Y-10428212D01*
X1125776Y-10433906D01*
X1148429Y-10440394D01*
X1169777Y-10447708D01*
X1189955Y-10455883D01*
X1209098Y-10464950D01*
X1227339Y-10474944D01*
X1244814Y-10485897D01*
X1261656Y-10497841D01*
X1278000Y-10510812D01*
X1286349Y-10518267D01*
X1294455Y-10526319D01*
X1302308Y-10534927D01*
X1309896Y-10544053D01*
X1324233Y-10563692D01*
X1337377Y-10584917D01*
X1349239Y-10607407D01*
X1359731Y-10630841D01*
X1368764Y-10654900D01*
X1376248Y-10679263D01*
X1382096Y-10703609D01*
X1386217Y-10727618D01*
X1388524Y-10750970D01*
X1388926Y-10773344D01*
X1388386Y-10784065D01*
X1387336Y-10794420D01*
X1385766Y-10804372D01*
X1383665Y-10813878D01*
X1381021Y-10822900D01*
X1377823Y-10831397D01*
X1374061Y-10839329D01*
X1369722Y-10846656D01*
X1361751Y-10857895D01*
X1357803Y-10862488D01*
X1353582Y-10866456D01*
X1348865Y-10869845D01*
X1343429Y-10872701D01*
X1337050Y-10875069D01*
X1329505Y-10876995D01*
X1320571Y-10878524D01*
X1310025Y-10879701D01*
X1297644Y-10880573D01*
X1283203Y-10881184D01*
X1247253Y-10881807D01*
X1200389Y-10881934D01*
X1170077Y-10881744D01*
X1140990Y-10881206D01*
X1113820Y-10880371D01*
X1089264Y-10879288D01*
X1068014Y-10878006D01*
X1050767Y-10876576D01*
X1038215Y-10875046D01*
X1033918Y-10874260D01*
X1031055Y-10873467D01*
X1028595Y-10872431D01*
X1025992Y-10870932D01*
X1023270Y-10869002D01*
X1020450Y-10866676D01*
X1017556Y-10863986D01*
X1014610Y-10860966D01*
X1011635Y-10857647D01*
X1008654Y-10854064D01*
X1005689Y-10850250D01*
X1002764Y-10846237D01*
X999901Y-10842059D01*
X997122Y-10837748D01*
X994451Y-10833339D01*
X991911Y-10828863D01*
X989523Y-10824354D01*
X987311Y-10819845D01*
X980624Y-10807092D01*
X973238Y-10795283D01*
X965117Y-10784399D01*
X956222Y-10774425D01*
X946517Y-10765343D01*
X935965Y-10757139D01*
X924528Y-10749794D01*
X912169Y-10743292D01*
X898851Y-10737617D01*
X884537Y-10732753D01*
X869189Y-10728682D01*
X852770Y-10725389D01*
X835243Y-10722856D01*
X816572Y-10721067D01*
X796718Y-10720006D01*
X775644Y-10719656D01*
X754231Y-10720274D01*
X733856Y-10721627D01*
X714432Y-10723752D01*
X695872Y-10726689D01*
X678089Y-10730479D01*
X660997Y-10735159D01*
X644508Y-10740769D01*
X628536Y-10747349D01*
X612994Y-10754938D01*
X597795Y-10763574D01*
X582852Y-10773298D01*
X568079Y-10784148D01*
X553388Y-10796164D01*
X538693Y-10809386D01*
X523907Y-10823851D01*
X508944Y-10839600D01*
X488521Y-10862986D01*
X479854Y-10873654D01*
X472035Y-10884072D01*
X464926Y-10894565D01*
X458392Y-10905457D01*
X452296Y-10917072D01*
X446502Y-10929735D01*
X440874Y-10943771D01*
X435274Y-10959504D01*
X429567Y-10977258D01*
X423616Y-10997358D01*
X410436Y-11045896D01*
X394644Y-11107712D01*
X381377Y-11163546D01*
X371256Y-11214730D01*
X367397Y-11238623D01*
X364351Y-11261408D01*
X362127Y-11283102D01*
X360733Y-11303724D01*
X360179Y-11323291D01*
X360472Y-11341823D01*
X361622Y-11359337D01*
X363638Y-11375850D01*
X366528Y-11391382D01*
X370302Y-11405950D01*
X374967Y-11419572D01*
X380533Y-11432267D01*
X387008Y-11444052D01*
X394402Y-11454946D01*
X402723Y-11464967D01*
X411980Y-11474132D01*
X422181Y-11482460D01*
X433336Y-11489969D01*
X445453Y-11496677D01*
X458541Y-11502602D01*
X472609Y-11507763D01*
X487665Y-11512176D01*
X503719Y-11515861D01*
X520779Y-11518836D01*
X538853Y-11521117D01*
X557952Y-11522725D01*
X578083Y-11523676D01*
X599255Y-11523989D01*
X628693Y-11523226D01*
X641829Y-11522628D01*
X654046Y-11521851D01*
X665444Y-11520866D01*
X676125Y-11519648D01*
X686190Y-11518170D01*
X695740Y-11516405D01*
X704877Y-11514325D01*
X713701Y-11511904D01*
X722315Y-11509115D01*
X730819Y-11505931D01*
X739315Y-11502326D01*
X747904Y-11498272D01*
X756688Y-11493743D01*
X765766Y-11488712D01*
X771781Y-11485275D01*
X777631Y-11481857D01*
X783288Y-11478476D01*
X788719Y-11475152D01*
X793894Y-11471901D01*
X798781Y-11468744D01*
X803351Y-11465698D01*
X807570Y-11462782D01*
X811410Y-11460016D01*
X814838Y-11457416D01*
X817824Y-11455003D01*
X820336Y-11452794D01*
X822345Y-11450809D01*
X823150Y-11449906D01*
X823817Y-11449065D01*
X824343Y-11448290D01*
X824724Y-11447582D01*
X824955Y-11446944D01*
X825033Y-11446378D01*
X825244Y-11445357D01*
X825865Y-11443901D01*
X826875Y-11442034D01*
X828252Y-11439786D01*
X832028Y-11434249D01*
X837027Y-11427505D01*
X843085Y-11419768D01*
X850036Y-11411255D01*
X857714Y-11402179D01*
X865955Y-11392756D01*
X880204Y-11377851D01*
X886512Y-11371821D01*
X892634Y-11366650D01*
X898838Y-11362274D01*
X905395Y-11358625D01*
X912571Y-11355637D01*
X920636Y-11353245D01*
X929858Y-11351382D01*
X940507Y-11349982D01*
X952851Y-11348979D01*
X967158Y-11348306D01*
X1002739Y-11347689D01*
X1049399Y-11347601D01*
X1077753Y-11347674D01*
X1103124Y-11347920D01*
X1125671Y-11348382D01*
X1135935Y-11348706D01*
X1145554Y-11349100D01*
X1154546Y-11349568D01*
X1162931Y-11350115D01*
X1170730Y-11350748D01*
X1177962Y-11351470D01*
X1184648Y-11352287D01*
X1190807Y-11353205D01*
X1196459Y-11354228D01*
X1201623Y-11355362D01*
X1206321Y-11356611D01*
X1210571Y-11357981D01*
X1214394Y-11359478D01*
X1217810Y-11361105D01*
X1220838Y-11362869D01*
X1223498Y-11364775D01*
X1225810Y-11366827D01*
X1227795Y-11369032D01*
X1229472Y-11371393D01*
X1230860Y-11373917D01*
X1231980Y-11376608D01*
X1232852Y-11379472D01*
X1233496Y-11382513D01*
X1233931Y-11385738D01*
X1234177Y-11389150D01*
X1234255Y-11392756D01*
X1233429Y-11403839D01*
X1231020Y-11416334D01*
X1227130Y-11430065D01*
X1221864Y-11444857D01*
X1215324Y-11460533D01*
X1207615Y-11476918D01*
X1198839Y-11493837D01*
X1189100Y-11511113D01*
X1178501Y-11528571D01*
X1167145Y-11546035D01*
X1155136Y-11563330D01*
X1142577Y-11580279D01*
X1129572Y-11596708D01*
X1116224Y-11612440D01*
X1102636Y-11627300D01*
X1088911Y-11641112D01*
X1061956Y-11665095D01*
X1034467Y-11687325D01*
X1006342Y-11707836D01*
X977477Y-11726660D01*
X947769Y-11743830D01*
X917113Y-11759380D01*
X885408Y-11773343D01*
X852550Y-11785750D01*
X818434Y-11796637D01*
X782959Y-11806035D01*
X746019Y-11813978D01*
X707514Y-11820499D01*
X667338Y-11825631D01*
X625388Y-11829407D01*
X581562Y-11831860D01*
X535755Y-11833023D01*
X492990Y-11832685D01*
X452466Y-11831118D01*
X414076Y-11828282D01*
X377710Y-11824137D01*
X343264Y-11818644D01*
X310628Y-11811765D01*
X279695Y-11803459D01*
X250358Y-11793688D01*
X236254Y-11788240D01*
X222509Y-11782412D01*
X209109Y-11776197D01*
X196041Y-11769592D01*
X183291Y-11762590D01*
X170847Y-11755188D01*
X158693Y-11747380D01*
X146818Y-11739162D01*
X135207Y-11730528D01*
X123847Y-11721474D01*
X101828Y-11702084D01*
X80651Y-11680954D01*
X60211Y-11658045D01*
X49431Y-11644802D01*
X39323Y-11631013D01*
X29896Y-11616695D01*
X21163Y-11601865D01*
X13132Y-11586538D01*
X5814Y-11570732D01*
X-780Y-11554463D01*
X-6641Y-11537748D01*
X-11757Y-11520602D01*
X-16119Y-11503043D01*
X-19716Y-11485087D01*
X-22538Y-11466751D01*
X-24574Y-11448051D01*
X-25815Y-11429004D01*
X-26249Y-11409626D01*
X-25867Y-11389934D01*
X-24327Y-11365468D01*
X-20892Y-11335956D01*
X-9088Y-11264764D01*
X8041Y-11182294D01*
X28990Y-11094482D01*
X52254Y-11007266D01*
X76328Y-10926582D01*
X99708Y-10858367D01*
X110667Y-10830790D01*
X120889Y-10808556D01*
X138683Y-10776386D01*
X159129Y-10744541D01*
X182035Y-10713179D01*
X207209Y-10682460D01*
X234458Y-10652543D01*
X263590Y-10623587D01*
X294413Y-10595752D01*
X326735Y-10569196D01*
X360362Y-10544079D01*
X395105Y-10520560D01*
X430769Y-10498797D01*
X467162Y-10478951D01*
X504093Y-10461180D01*
X541370Y-10445644D01*
X578799Y-10432501D01*
X616189Y-10421911D01*
X636617Y-10417543D01*
X660815Y-10413952D01*
X688717Y-10411121D01*
X720258Y-10409035D01*
X755370Y-10407676D01*
X793989Y-10407029D01*
X836046Y-10407076D01*
G37*
G36*
X-3711866Y-9910736D02*
G01*
X-3634505Y-9913432D01*
X-3562486Y-9917748D01*
X-3500555Y-9923585D01*
X-3474854Y-9927043D01*
X-3453456Y-9930845D01*
X-3407228Y-9941192D01*
X-3361706Y-9953166D01*
X-3316937Y-9966740D01*
X-3272966Y-9981887D01*
X-3229838Y-9998581D01*
X-3187599Y-10016793D01*
X-3146295Y-10036498D01*
X-3105970Y-10057668D01*
X-3066670Y-10080278D01*
X-3028441Y-10104299D01*
X-2991329Y-10129704D01*
X-2955378Y-10156468D01*
X-2920634Y-10184563D01*
X-2887143Y-10213963D01*
X-2854950Y-10244640D01*
X-2824100Y-10276567D01*
X-2805513Y-10296929D01*
X-2788117Y-10316431D01*
X-2772308Y-10334610D01*
X-2758484Y-10351003D01*
X-2747040Y-10365147D01*
X-2742336Y-10371231D01*
X-2738375Y-10376580D01*
X-2735209Y-10381134D01*
X-2732885Y-10384837D01*
X-2731455Y-10387630D01*
X-2731090Y-10388667D01*
X-2730967Y-10389456D01*
X-2732561Y-10390761D01*
X-2737237Y-10392027D01*
X-2755198Y-10394417D01*
X-2783578Y-10396575D01*
X-2821102Y-10398452D01*
X-2918491Y-10401164D01*
X-3037178Y-10402156D01*
X-3344800Y-10402156D01*
X-3433700Y-10303378D01*
X-3446134Y-10289824D01*
X-3458092Y-10277162D01*
X-3469661Y-10265328D01*
X-3480928Y-10254254D01*
X-3491981Y-10243875D01*
X-3502905Y-10234124D01*
X-3513788Y-10224935D01*
X-3524717Y-10216242D01*
X-3535778Y-10207979D01*
X-3547058Y-10200080D01*
X-3558644Y-10192479D01*
X-3570622Y-10185109D01*
X-3583080Y-10177905D01*
X-3596105Y-10170800D01*
X-3609783Y-10163728D01*
X-3624200Y-10156623D01*
X-3671154Y-10135488D01*
X-3719969Y-10117062D01*
X-3770685Y-10101339D01*
X-3823343Y-10088316D01*
X-3877987Y-10077988D01*
X-3934656Y-10070352D01*
X-3993392Y-10065403D01*
X-4054237Y-10063137D01*
X-4117231Y-10063549D01*
X-4182416Y-10066637D01*
X-4249834Y-10072395D01*
X-4319525Y-10080820D01*
X-4391532Y-10091907D01*
X-4465895Y-10105652D01*
X-4542656Y-10122051D01*
X-4621856Y-10141100D01*
X-4648750Y-10147756D01*
X-4674023Y-10153867D01*
X-4697113Y-10159282D01*
X-4717459Y-10163855D01*
X-4734497Y-10167435D01*
X-4747665Y-10169874D01*
X-4752623Y-10170619D01*
X-4756402Y-10171023D01*
X-4758933Y-10171068D01*
X-4759708Y-10170949D01*
X-4760145Y-10170734D01*
X-4760114Y-10169812D01*
X-4758740Y-10168388D01*
X-4752210Y-10164136D01*
X-4725771Y-10150758D01*
X-4684813Y-10132286D01*
X-4633321Y-10110409D01*
X-4575281Y-10086811D01*
X-4514678Y-10063181D01*
X-4455496Y-10041204D01*
X-4401723Y-10022567D01*
X-4353960Y-10007315D01*
X-4300079Y-9991567D01*
X-4242427Y-9975885D01*
X-4183353Y-9960831D01*
X-4125205Y-9946968D01*
X-4070332Y-9934858D01*
X-4021081Y-9925063D01*
X-3979800Y-9918145D01*
X-3956169Y-9915497D01*
X-3928535Y-9913366D01*
X-3863626Y-9910604D01*
X-3789821Y-9909761D01*
X-3711866Y-9910736D01*
G37*
D11*
G36*
X9517992Y-21651301D02*
G01*
X9589777Y-21659143D01*
X9657058Y-21672214D01*
X9719836Y-21690513D01*
X9778111Y-21714041D01*
X9844622Y-21750802D01*
X9904096Y-21795733D01*
X9925916Y-21815993D01*
X9974906Y-21871453D01*
X10015593Y-21933457D01*
X10047976Y-22002006D01*
X10067904Y-22061557D01*
X10082518Y-22125296D01*
X10091818Y-22193224D01*
X10095804Y-22265340D01*
X10095970Y-22284023D01*
X10094151Y-22350419D01*
X10088695Y-22412984D01*
X10077346Y-22483005D01*
X10060760Y-22547509D01*
X10038935Y-22606496D01*
X10021476Y-22642755D01*
X9985848Y-22700965D01*
X9943880Y-22753243D01*
X9895571Y-22799590D01*
X9840922Y-22840005D01*
X9806847Y-22860437D01*
X9742222Y-22890772D01*
X9681550Y-22910843D01*
X9616006Y-22925440D01*
X9545588Y-22934564D01*
X9483184Y-22937985D01*
X9457275Y-22938289D01*
X9392477Y-22936649D01*
X9331271Y-22931730D01*
X9262567Y-22921497D01*
X9199037Y-22906542D01*
X9140680Y-22886864D01*
X9104649Y-22871122D01*
X9046135Y-22837997D01*
X8992676Y-22797391D01*
X8944271Y-22749306D01*
X8900921Y-22693741D01*
X8878419Y-22658631D01*
X8848953Y-22601454D01*
X8825583Y-22539147D01*
X8808309Y-22471710D01*
X8797132Y-22399142D01*
X8792475Y-22334749D01*
X8791713Y-22294404D01*
X9180670Y-22294404D01*
X9183160Y-22360882D01*
X9192360Y-22429080D01*
X9211174Y-22494678D01*
X9242923Y-22552737D01*
X9251500Y-22563376D01*
X9300748Y-22606524D01*
X9359955Y-22633691D01*
X9421754Y-22644478D01*
X9444147Y-22645198D01*
X9510237Y-22638870D01*
X9573135Y-22616998D01*
X9624941Y-22579503D01*
X9638320Y-22565208D01*
X9671526Y-22509996D01*
X9691919Y-22444050D01*
X9702720Y-22373325D01*
X9706745Y-22303029D01*
X9707013Y-22277612D01*
X9704491Y-22215430D01*
X9695172Y-22151241D01*
X9676115Y-22088902D01*
X9643955Y-22032821D01*
X9635267Y-22022378D01*
X9585446Y-21979874D01*
X9525668Y-21953113D01*
X9463353Y-21942487D01*
X9440788Y-21941778D01*
X9378318Y-21948250D01*
X9317460Y-21970623D01*
X9265606Y-22008977D01*
X9251805Y-22023599D01*
X9217419Y-22078101D01*
X9196300Y-22140778D01*
X9185116Y-22206610D01*
X9180948Y-22271199D01*
X9180670Y-22294404D01*
X8791713Y-22294404D01*
X8794394Y-22220191D01*
X8802437Y-22150205D01*
X8815842Y-22084446D01*
X8834608Y-22022913D01*
X8858737Y-21965606D01*
X8896438Y-21899917D01*
X8942516Y-21840831D01*
X8963294Y-21819046D01*
X9020295Y-21769968D01*
X9083871Y-21729208D01*
X9139465Y-21702589D01*
X9199266Y-21681295D01*
X9263275Y-21665323D01*
X9331491Y-21654676D01*
X9403915Y-21649352D01*
X9441704Y-21648687D01*
X9517992Y-21651301D01*
G37*
G36*
X11116600Y-21668226D02*
G01*
X11504640Y-21668226D01*
X11504640Y-22412251D01*
X11501887Y-22473452D01*
X11492370Y-22539188D01*
X11476056Y-22602538D01*
X11469836Y-22621079D01*
X11444237Y-22680136D01*
X11410946Y-22734422D01*
X11369962Y-22783939D01*
X11360842Y-22793270D01*
X11313759Y-22834963D01*
X11260314Y-22870907D01*
X11205138Y-22896462D01*
X11145527Y-22914761D01*
X11080269Y-22927832D01*
X11018534Y-22934980D01*
X10952475Y-22938126D01*
X10932807Y-22938289D01*
X10867644Y-22936774D01*
X10804961Y-22932767D01*
X10738999Y-22926255D01*
X10732222Y-22925466D01*
X10667942Y-22915007D01*
X10605222Y-22897855D01*
X10550872Y-22874786D01*
X10497864Y-22841927D01*
X10448290Y-22800139D01*
X10417149Y-22767319D01*
X10380099Y-22718748D01*
X10349967Y-22664609D01*
X10334412Y-22623216D01*
X10316997Y-22558389D01*
X10305282Y-22497861D01*
X10298949Y-22435650D01*
X10298386Y-22412251D01*
X10298386Y-21668226D01*
X10686427Y-21668226D01*
X10686427Y-22428432D01*
X10693173Y-22493270D01*
X10715921Y-22551989D01*
X10743519Y-22587800D01*
X10797212Y-22624963D01*
X10859744Y-22642451D01*
X10901971Y-22645198D01*
X10965904Y-22638523D01*
X11023964Y-22616019D01*
X11059508Y-22588716D01*
X11096473Y-22535015D01*
X11113868Y-22471581D01*
X11116600Y-22428432D01*
X11116600Y-21668226D01*
G37*
G36*
X11665841Y-21668226D02*
G01*
X12848281Y-21668226D01*
X12848281Y-21961318D01*
X12451692Y-21961318D01*
X12451692Y-22918750D01*
X12062735Y-22918750D01*
X12062735Y-21961318D01*
X11665841Y-21961318D01*
X11665841Y-21668226D01*
G37*
G36*
X-12544503Y-21668226D02*
G01*
X-12137534Y-21668226D01*
X-11854212Y-22568261D01*
X-11575164Y-21668226D01*
X-11180102Y-21668226D01*
X-11647216Y-22918750D01*
X-12068840Y-22918750D01*
X-12544503Y-21668226D01*
G37*
G36*
X-11043936Y-21668226D02*
G01*
X-10654369Y-21668226D01*
X-10654369Y-22918750D01*
X-11043936Y-22918750D01*
X-11043936Y-21668226D01*
G37*
G36*
X-10376848Y-21668226D02*
G01*
X-10013537Y-21668226D01*
X-9539400Y-22372867D01*
X-9539400Y-21668226D01*
X-9173036Y-21668226D01*
X-9173036Y-22918750D01*
X-9539400Y-22918750D01*
X-10011094Y-22217773D01*
X-10011094Y-22918750D01*
X-10376848Y-22918750D01*
X-10376848Y-21668226D01*
G37*
D12*
G36*
X-25090281Y-18371871D02*
G01*
X-24622800Y-18371871D01*
X-24622800Y-19872500D01*
X-25090281Y-19872500D01*
X-25090281Y-18371871D01*
G37*
G36*
X-24289775Y-18371871D02*
G01*
X-23853802Y-18371871D01*
X-23284838Y-19217440D01*
X-23284838Y-18371871D01*
X-22845201Y-18371871D01*
X-22845201Y-19872500D01*
X-23284838Y-19872500D01*
X-23850871Y-19031327D01*
X-23850871Y-19872500D01*
X-24289775Y-19872500D01*
X-24289775Y-18371871D01*
G37*
G36*
X-22652493Y-19145633D02*
G01*
X-22042497Y-19145633D01*
X-22042497Y-19473895D01*
X-22652493Y-19473895D01*
X-22652493Y-19145633D01*
G37*
G36*
X23217522Y-18351561D02*
G01*
X23303663Y-18360972D01*
X23384401Y-18376657D01*
X23459734Y-18398616D01*
X23529664Y-18426849D01*
X23609477Y-18470963D01*
X23680847Y-18524880D01*
X23707030Y-18549192D01*
X23765818Y-18615744D01*
X23814643Y-18690149D01*
X23853503Y-18772407D01*
X23877416Y-18843868D01*
X23894953Y-18920356D01*
X23906113Y-19001869D01*
X23910896Y-19088408D01*
X23911095Y-19110828D01*
X23908913Y-19190503D01*
X23902365Y-19265581D01*
X23888747Y-19349606D01*
X23868843Y-19427011D01*
X23842654Y-19497795D01*
X23821702Y-19541306D01*
X23778949Y-19611158D01*
X23728587Y-19673891D01*
X23670617Y-19729508D01*
X23605038Y-19778006D01*
X23564148Y-19802524D01*
X23486598Y-19838926D01*
X23413792Y-19863012D01*
X23335138Y-19880528D01*
X23250637Y-19891476D01*
X23175752Y-19895582D01*
X23144661Y-19895947D01*
X23066903Y-19893979D01*
X22993457Y-19888076D01*
X22911012Y-19875797D01*
X22834776Y-19857851D01*
X22764747Y-19834237D01*
X22721510Y-19815347D01*
X22651293Y-19775596D01*
X22587142Y-19726870D01*
X22529056Y-19669167D01*
X22477037Y-19602489D01*
X22450034Y-19560357D01*
X22414675Y-19491745D01*
X22386630Y-19416977D01*
X22365902Y-19336052D01*
X22352490Y-19248970D01*
X22346901Y-19171699D01*
X22345987Y-19123285D01*
X22812735Y-19123285D01*
X22815723Y-19203059D01*
X22826763Y-19284897D01*
X22849340Y-19363613D01*
X22887439Y-19433285D01*
X22897732Y-19446051D01*
X22956829Y-19497829D01*
X23027877Y-19530430D01*
X23102036Y-19543374D01*
X23128907Y-19544237D01*
X23208216Y-19536644D01*
X23283693Y-19510398D01*
X23345860Y-19465404D01*
X23361915Y-19448250D01*
X23401763Y-19381995D01*
X23426235Y-19302860D01*
X23439195Y-19217990D01*
X23444025Y-19133634D01*
X23444347Y-19103135D01*
X23441320Y-19028516D01*
X23430138Y-18951490D01*
X23407269Y-18876683D01*
X23368677Y-18809385D01*
X23358251Y-18796854D01*
X23298467Y-18745849D01*
X23226732Y-18713735D01*
X23151954Y-18700984D01*
X23124877Y-18700134D01*
X23049913Y-18707900D01*
X22976883Y-18734748D01*
X22914658Y-18780773D01*
X22898098Y-18798319D01*
X22856834Y-18863721D01*
X22831492Y-18938934D01*
X22818070Y-19017932D01*
X22813068Y-19095439D01*
X22812735Y-19123285D01*
X22345987Y-19123285D01*
X22349204Y-19034229D01*
X22358855Y-18950246D01*
X22374941Y-18871335D01*
X22397461Y-18797495D01*
X22426415Y-18728727D01*
X22471656Y-18649900D01*
X22526951Y-18578997D01*
X22551884Y-18552855D01*
X22620285Y-18493962D01*
X22696576Y-18445050D01*
X22763289Y-18413107D01*
X22835050Y-18387554D01*
X22911861Y-18368388D01*
X22993720Y-18355611D01*
X23080629Y-18349223D01*
X23125976Y-18348424D01*
X23217522Y-18351561D01*
G37*
G36*
X25135851Y-18371871D02*
G01*
X25601500Y-18371871D01*
X25601500Y-19264701D01*
X25598196Y-19338143D01*
X25586776Y-19417026D01*
X25567198Y-19493046D01*
X25559734Y-19515294D01*
X25529016Y-19586163D01*
X25489066Y-19651307D01*
X25439886Y-19710727D01*
X25428942Y-19721924D01*
X25372442Y-19771955D01*
X25308308Y-19815089D01*
X25242096Y-19845755D01*
X25170564Y-19867714D01*
X25092254Y-19883399D01*
X25018172Y-19891977D01*
X24938901Y-19895751D01*
X24915300Y-19895947D01*
X24837104Y-19894129D01*
X24761885Y-19889320D01*
X24682730Y-19881506D01*
X24674598Y-19880560D01*
X24597461Y-19868009D01*
X24522198Y-19847426D01*
X24456978Y-19819743D01*
X24393368Y-19780313D01*
X24333879Y-19730167D01*
X24296510Y-19690783D01*
X24252050Y-19632497D01*
X24215892Y-19567531D01*
X24197226Y-19517859D01*
X24176328Y-19440067D01*
X24162269Y-19367433D01*
X24154670Y-19292780D01*
X24153995Y-19264701D01*
X24153995Y-18371871D01*
X24619644Y-18371871D01*
X24619644Y-19284118D01*
X24627739Y-19361924D01*
X24655036Y-19432387D01*
X24688154Y-19475361D01*
X24752586Y-19519955D01*
X24827624Y-19540941D01*
X24878297Y-19544237D01*
X24955016Y-19536228D01*
X25024689Y-19509223D01*
X25067341Y-19476460D01*
X25111698Y-19412019D01*
X25132573Y-19335898D01*
X25135851Y-19284118D01*
X25135851Y-18371871D01*
G37*
G36*
X25794940Y-18371871D02*
G01*
X27213869Y-18371871D01*
X27213869Y-18723581D01*
X26737962Y-18723581D01*
X26737962Y-19872500D01*
X26271214Y-19872500D01*
X26271214Y-18723581D01*
X25794940Y-18723581D01*
X25794940Y-18371871D01*
G37*
G36*
X27166242Y-19145633D02*
G01*
X27776238Y-19145633D01*
X27776238Y-19473895D01*
X27166242Y-19473895D01*
X27166242Y-19145633D01*
G37*
G36*
X-25777581Y-621871D02*
G01*
X-25310100Y-621871D01*
X-25310100Y-2122500D01*
X-25777581Y-2122500D01*
X-25777581Y-621871D01*
G37*
G36*
X-24977075Y-621871D02*
G01*
X-24541102Y-621871D01*
X-23972138Y-1467440D01*
X-23972138Y-621871D01*
X-23532501Y-621871D01*
X-23532501Y-2122500D01*
X-23972138Y-2122500D01*
X-24538171Y-1281327D01*
X-24538171Y-2122500D01*
X-24977075Y-2122500D01*
X-24977075Y-621871D01*
G37*
G36*
X-23255530Y-1208054D02*
G01*
X-22860955Y-1208054D01*
X-22860955Y-809450D01*
X-22527930Y-809450D01*
X-22527930Y-1208054D01*
X-22131158Y-1208054D01*
X-22131158Y-1536317D01*
X-22527930Y-1536317D01*
X-22527930Y-1934921D01*
X-22860955Y-1934921D01*
X-22860955Y-1536317D01*
X-23255530Y-1536317D01*
X-23255530Y-1208054D01*
G37*
G36*
X23217522Y-601561D02*
G01*
X23303663Y-610972D01*
X23384401Y-626657D01*
X23459734Y-648616D01*
X23529664Y-676849D01*
X23609477Y-720963D01*
X23680847Y-774880D01*
X23707030Y-799192D01*
X23765818Y-865744D01*
X23814643Y-940149D01*
X23853503Y-1022407D01*
X23877416Y-1093868D01*
X23894953Y-1170356D01*
X23906113Y-1251869D01*
X23910896Y-1338408D01*
X23911095Y-1360828D01*
X23908913Y-1440503D01*
X23902365Y-1515581D01*
X23888747Y-1599606D01*
X23868843Y-1677011D01*
X23842654Y-1747795D01*
X23821702Y-1791306D01*
X23778949Y-1861158D01*
X23728587Y-1923891D01*
X23670617Y-1979508D01*
X23605038Y-2028006D01*
X23564148Y-2052524D01*
X23486598Y-2088926D01*
X23413792Y-2113012D01*
X23335138Y-2130528D01*
X23250637Y-2141476D01*
X23175752Y-2145582D01*
X23144661Y-2145947D01*
X23066903Y-2143979D01*
X22993457Y-2138076D01*
X22911012Y-2125797D01*
X22834776Y-2107851D01*
X22764747Y-2084237D01*
X22721510Y-2065347D01*
X22651293Y-2025596D01*
X22587142Y-1976870D01*
X22529056Y-1919167D01*
X22477037Y-1852489D01*
X22450034Y-1810357D01*
X22414675Y-1741745D01*
X22386630Y-1666977D01*
X22365902Y-1586052D01*
X22352490Y-1498970D01*
X22346901Y-1421699D01*
X22345987Y-1373285D01*
X22812735Y-1373285D01*
X22815723Y-1453059D01*
X22826763Y-1534897D01*
X22849340Y-1613613D01*
X22887439Y-1683285D01*
X22897732Y-1696051D01*
X22956829Y-1747829D01*
X23027877Y-1780430D01*
X23102036Y-1793374D01*
X23128907Y-1794237D01*
X23208216Y-1786644D01*
X23283693Y-1760398D01*
X23345860Y-1715404D01*
X23361915Y-1698250D01*
X23401763Y-1631995D01*
X23426235Y-1552860D01*
X23439195Y-1467990D01*
X23444025Y-1383634D01*
X23444347Y-1353135D01*
X23441320Y-1278516D01*
X23430138Y-1201490D01*
X23407269Y-1126683D01*
X23368677Y-1059385D01*
X23358251Y-1046854D01*
X23298467Y-995849D01*
X23226732Y-963735D01*
X23151954Y-950984D01*
X23124877Y-950134D01*
X23049913Y-957900D01*
X22976883Y-984748D01*
X22914658Y-1030773D01*
X22898098Y-1048319D01*
X22856834Y-1113721D01*
X22831492Y-1188934D01*
X22818070Y-1267932D01*
X22813068Y-1345439D01*
X22812735Y-1373285D01*
X22345987Y-1373285D01*
X22349204Y-1284229D01*
X22358855Y-1200246D01*
X22374941Y-1121335D01*
X22397461Y-1047495D01*
X22426415Y-978727D01*
X22471656Y-899900D01*
X22526951Y-828997D01*
X22551884Y-802855D01*
X22620285Y-743962D01*
X22696576Y-695050D01*
X22763289Y-663107D01*
X22835050Y-637554D01*
X22911861Y-618388D01*
X22993720Y-605611D01*
X23080629Y-599223D01*
X23125976Y-598424D01*
X23217522Y-601561D01*
G37*
G36*
X25135851Y-621871D02*
G01*
X25601500Y-621871D01*
X25601500Y-1514701D01*
X25598196Y-1588143D01*
X25586776Y-1667026D01*
X25567198Y-1743046D01*
X25559734Y-1765294D01*
X25529016Y-1836163D01*
X25489066Y-1901307D01*
X25439886Y-1960727D01*
X25428942Y-1971924D01*
X25372442Y-2021955D01*
X25308308Y-2065089D01*
X25242096Y-2095755D01*
X25170564Y-2117714D01*
X25092254Y-2133399D01*
X25018172Y-2141977D01*
X24938901Y-2145751D01*
X24915300Y-2145947D01*
X24837104Y-2144129D01*
X24761885Y-2139320D01*
X24682730Y-2131506D01*
X24674598Y-2130560D01*
X24597461Y-2118009D01*
X24522198Y-2097426D01*
X24456978Y-2069743D01*
X24393368Y-2030313D01*
X24333879Y-1980167D01*
X24296510Y-1940783D01*
X24252050Y-1882497D01*
X24215892Y-1817531D01*
X24197226Y-1767859D01*
X24176328Y-1690067D01*
X24162269Y-1617433D01*
X24154670Y-1542780D01*
X24153995Y-1514701D01*
X24153995Y-621871D01*
X24619644Y-621871D01*
X24619644Y-1534118D01*
X24627739Y-1611924D01*
X24655036Y-1682387D01*
X24688154Y-1725361D01*
X24752586Y-1769955D01*
X24827624Y-1790941D01*
X24878297Y-1794237D01*
X24955016Y-1786228D01*
X25024689Y-1759223D01*
X25067341Y-1726460D01*
X25111698Y-1662019D01*
X25132573Y-1585898D01*
X25135851Y-1534118D01*
X25135851Y-621871D01*
G37*
G36*
X25794940Y-621871D02*
G01*
X27213869Y-621871D01*
X27213869Y-973581D01*
X26737962Y-973581D01*
X26737962Y-2122500D01*
X26271214Y-2122500D01*
X26271214Y-973581D01*
X25794940Y-973581D01*
X25794940Y-621871D01*
G37*
G36*
X27392655Y-1208054D02*
G01*
X27787229Y-1208054D01*
X27787229Y-809450D01*
X28120254Y-809450D01*
X28120254Y-1208054D01*
X28517027Y-1208054D01*
X28517027Y-1536317D01*
X28120254Y-1536317D01*
X28120254Y-1934921D01*
X27787229Y-1934921D01*
X27787229Y-1536317D01*
X27392655Y-1536317D01*
X27392655Y-1208054D01*
G37*
D13*
%TO.C,R5*%
X-231939Y-28713200D02*
X242577Y-28713200D01*
X-231939Y-29758200D02*
X242577Y-29758200D01*
%TO.C,C2*%
X38009420Y9310000D02*
X38290580Y9310000D01*
X38009420Y8290000D02*
X38290580Y8290000D01*
%TO.C,C3*%
X-38290580Y9310000D02*
X-38009420Y9310000D01*
X-38290580Y8290000D02*
X-38009420Y8290000D01*
%TO.C,R2*%
X-38437258Y11122500D02*
X-37962742Y11122500D01*
X-38437258Y10077500D02*
X-37962742Y10077500D01*
%TO.C,R3*%
X-231939Y-36463200D02*
X242577Y-36463200D01*
X-231939Y-37508200D02*
X242577Y-37508200D01*
%TO.C,U2*%
X-40535000Y18600000D02*
X-40535000Y16000000D01*
X-40185000Y18600000D02*
X-40535000Y18600000D01*
X-37865000Y18600000D02*
X-37525000Y18600000D01*
X-37525000Y18600000D02*
X-37525000Y13510000D01*
X-37525000Y18099999D02*
G75*
G02*
X-37523264Y13900084I-100000J-2099999D01*
G01*
%TO.C,D2*%
X-2394681Y-30235700D02*
X2405319Y-30235700D01*
X-2394681Y-30385700D02*
X-2394681Y-30235700D01*
X-2394681Y-34235700D02*
X-2394681Y-34085700D01*
X2405319Y-30235700D02*
X2405319Y-30385700D01*
X2405319Y-31585700D02*
X2405319Y-32885700D01*
X2405319Y-34085700D02*
X2405319Y-34235700D01*
X2405319Y-34235700D02*
X-2394681Y-34235700D01*
X3070319Y-34415700D02*
X2590319Y-34415700D01*
X2830319Y-34085700D01*
X3070319Y-34415700D01*
G36*
X3070319Y-34415700D02*
G01*
X2590319Y-34415700D01*
X2830319Y-34085700D01*
X3070319Y-34415700D01*
G37*
%TO.C,C1*%
X31237246Y3909575D02*
X31237246Y-12252425D01*
X31277246Y3908575D02*
X31277246Y-12251425D01*
X31317246Y3908575D02*
X31317246Y-12251425D01*
X31357246Y3908575D02*
X31357246Y-12251425D01*
X31397246Y3907575D02*
X31397246Y-12250425D01*
X31437246Y3906575D02*
X31437246Y-12249425D01*
X31477246Y3905575D02*
X31477246Y-12248425D01*
X31517246Y3904575D02*
X31517246Y-12247425D01*
X31557246Y3902575D02*
X31557246Y-12245425D01*
X31597246Y3901575D02*
X31597246Y-12244425D01*
X31637246Y3899575D02*
X31637246Y-12242425D01*
X31677246Y3897575D02*
X31677246Y-12240425D01*
X31717246Y3894575D02*
X31717246Y-12237425D01*
X31757246Y3892575D02*
X31757246Y-12235425D01*
X31797246Y3889575D02*
X31797246Y-12232425D01*
X31837246Y3886575D02*
X31837246Y-12229425D01*
X31877246Y3883575D02*
X31877246Y-12226425D01*
X31917246Y3880575D02*
X31917246Y-12223425D01*
X31958246Y3877575D02*
X31958246Y-12220425D01*
X31998246Y3873575D02*
X31998246Y-12216425D01*
X32038246Y3869575D02*
X32038246Y-12212425D01*
X32078246Y3865575D02*
X32078246Y-12208425D01*
X32118246Y3861575D02*
X32118246Y-12204425D01*
X32158246Y3856575D02*
X32158246Y-12199425D01*
X32198246Y3852575D02*
X32198246Y-12195425D01*
X32238246Y3847575D02*
X32238246Y-12190425D01*
X32278246Y3842575D02*
X32278246Y-12185425D01*
X32318246Y3836575D02*
X32318246Y-12179425D01*
X32358246Y3831575D02*
X32358246Y-12174425D01*
X32398246Y3825575D02*
X32398246Y-12168425D01*
X32438246Y3819575D02*
X32438246Y-12162425D01*
X32478246Y3813575D02*
X32478246Y-12156425D01*
X32518246Y3807575D02*
X32518246Y-12150425D01*
X32558246Y3800575D02*
X32558246Y-12143425D01*
X32598246Y3794575D02*
X32598246Y-12137425D01*
X32638246Y3787575D02*
X32638246Y-12130425D01*
X32678246Y3780575D02*
X32678246Y-12123425D01*
X32718246Y3772575D02*
X32718246Y-12115425D01*
X32758246Y3765575D02*
X32758246Y-12108425D01*
X32798246Y3757575D02*
X32798246Y-12100425D01*
X32838246Y3749575D02*
X32838246Y-12092425D01*
X32878246Y3741575D02*
X32878246Y-12084425D01*
X32918246Y3733575D02*
X32918246Y-12076425D01*
X32958246Y3724575D02*
X32958246Y-12067425D01*
X32998246Y3715575D02*
X32998246Y-12058425D01*
X33038246Y3706575D02*
X33038246Y-12049425D01*
X33078246Y3697575D02*
X33078246Y-12040425D01*
X33118246Y3688575D02*
X33118246Y-12031425D01*
X33158246Y3678575D02*
X33158246Y-12021425D01*
X33198246Y3668575D02*
X33198246Y-12011425D01*
X33238246Y3658575D02*
X33238246Y-12001425D01*
X33278246Y3648575D02*
X33278246Y-11991425D01*
X33318246Y3638575D02*
X33318246Y-11981425D01*
X33358246Y3627575D02*
X33358246Y-11970425D01*
X33398246Y3616575D02*
X33398246Y-11959425D01*
X33438246Y3605575D02*
X33438246Y-11948425D01*
X33478246Y3593575D02*
X33478246Y-11936425D01*
X33518246Y3582575D02*
X33518246Y-11925425D01*
X33558246Y3570575D02*
X33558246Y-2731425D01*
X33558246Y-5611425D02*
X33558246Y-11913425D01*
X33598246Y3558575D02*
X33598246Y-2731425D01*
X33598246Y-5611425D02*
X33598246Y-11901425D01*
X33638246Y3546575D02*
X33638246Y-2731425D01*
X33638246Y-5611425D02*
X33638246Y-11889425D01*
X33678246Y3533575D02*
X33678246Y-2731425D01*
X33678246Y-5611425D02*
X33678246Y-11876425D01*
X33718246Y3521575D02*
X33718246Y-2731425D01*
X33718246Y-5611425D02*
X33718246Y-11864425D01*
X33758246Y3508575D02*
X33758246Y-2731425D01*
X33758246Y-5611425D02*
X33758246Y-11851425D01*
X33798246Y3494575D02*
X33798246Y-2731425D01*
X33798246Y-5611425D02*
X33798246Y-11837425D01*
X33838246Y3481575D02*
X33838246Y-2731425D01*
X33838246Y-5611425D02*
X33838246Y-11824425D01*
X33878246Y3467575D02*
X33878246Y-2731425D01*
X33878246Y-5611425D02*
X33878246Y-11810425D01*
X33918246Y3453575D02*
X33918246Y-2731425D01*
X33918246Y-5611425D02*
X33918246Y-11796425D01*
X33958246Y3439575D02*
X33958246Y-2731425D01*
X33958246Y-5611425D02*
X33958246Y-11782425D01*
X33998246Y3425575D02*
X33998246Y-2731425D01*
X33998246Y-5611425D02*
X33998246Y-11768425D01*
X34038246Y3410575D02*
X34038246Y-2731425D01*
X34038246Y-5611425D02*
X34038246Y-11753425D01*
X34078246Y3396575D02*
X34078246Y-2731425D01*
X34078246Y-5611425D02*
X34078246Y-11739425D01*
X34118246Y3381575D02*
X34118246Y-2731425D01*
X34118246Y-5611425D02*
X34118246Y-11724425D01*
X34158246Y3365575D02*
X34158246Y-2731425D01*
X34158246Y-5611425D02*
X34158246Y-11708425D01*
X34198246Y3350575D02*
X34198246Y-2731425D01*
X34198246Y-5611425D02*
X34198246Y-11693425D01*
X34238246Y3334575D02*
X34238246Y-2731425D01*
X34238246Y-5611425D02*
X34238246Y-11677425D01*
X34278246Y3318575D02*
X34278246Y-2731425D01*
X34278246Y-5611425D02*
X34278246Y-11661425D01*
X34318246Y3302575D02*
X34318246Y-2731425D01*
X34318246Y-5611425D02*
X34318246Y-11645425D01*
X34358246Y3285575D02*
X34358246Y-2731425D01*
X34358246Y-5611425D02*
X34358246Y-11628425D01*
X34398246Y3268575D02*
X34398246Y-2731425D01*
X34398246Y-5611425D02*
X34398246Y-11611425D01*
X34438246Y3251575D02*
X34438246Y-2731425D01*
X34438246Y-5611425D02*
X34438246Y-11594425D01*
X34478246Y3234575D02*
X34478246Y-2731425D01*
X34478246Y-5611425D02*
X34478246Y-11577425D01*
X34518246Y3217575D02*
X34518246Y-2731425D01*
X34518246Y-5611425D02*
X34518246Y-11560425D01*
X34558246Y3199575D02*
X34558246Y-2731425D01*
X34558246Y-5611425D02*
X34558246Y-11542425D01*
X34598246Y3181575D02*
X34598246Y-2731425D01*
X34598246Y-5611425D02*
X34598246Y-11524425D01*
X34638246Y3162575D02*
X34638246Y-2731425D01*
X34638246Y-5611425D02*
X34638246Y-11505425D01*
X34678246Y3144575D02*
X34678246Y-2731425D01*
X34678246Y-5611425D02*
X34678246Y-11487425D01*
X34718246Y3125575D02*
X34718246Y-2731425D01*
X34718246Y-5611425D02*
X34718246Y-11468425D01*
X34758246Y3106575D02*
X34758246Y-2731425D01*
X34758246Y-5611425D02*
X34758246Y-11449425D01*
X34798246Y3086575D02*
X34798246Y-2731425D01*
X34798246Y-5611425D02*
X34798246Y-11429425D01*
X34838246Y3067575D02*
X34838246Y-2731425D01*
X34838246Y-5611425D02*
X34838246Y-11410425D01*
X34878246Y3047575D02*
X34878246Y-2731425D01*
X34878246Y-5611425D02*
X34878246Y-11390425D01*
X34918246Y3027575D02*
X34918246Y-2731425D01*
X34918246Y-5611425D02*
X34918246Y-11370425D01*
X34958246Y3006575D02*
X34958246Y-2731425D01*
X34958246Y-5611425D02*
X34958246Y-11349425D01*
X34998246Y2985575D02*
X34998246Y-2731425D01*
X34998246Y-5611425D02*
X34998246Y-11328425D01*
X35038246Y2964575D02*
X35038246Y-2731425D01*
X35038246Y-5611425D02*
X35038246Y-11307425D01*
X35078246Y2943575D02*
X35078246Y-2731425D01*
X35078246Y-5611425D02*
X35078246Y-11286425D01*
X35118246Y2922575D02*
X35118246Y-2731425D01*
X35118246Y-5611425D02*
X35118246Y-11265425D01*
X35158246Y2900575D02*
X35158246Y-2731425D01*
X35158246Y-5611425D02*
X35158246Y-11243425D01*
X35198246Y2877575D02*
X35198246Y-2731425D01*
X35198246Y-5611425D02*
X35198246Y-11220425D01*
X35238246Y2855575D02*
X35238246Y-2731425D01*
X35238246Y-5611425D02*
X35238246Y-11198425D01*
X35278246Y2832575D02*
X35278246Y-2731425D01*
X35278246Y-5611425D02*
X35278246Y-11175425D01*
X35318246Y2809575D02*
X35318246Y-2731425D01*
X35318246Y-5611425D02*
X35318246Y-11152425D01*
X35358246Y2786575D02*
X35358246Y-2731425D01*
X35358246Y-5611425D02*
X35358246Y-11129425D01*
X35398246Y2762575D02*
X35398246Y-2731425D01*
X35398246Y-5611425D02*
X35398246Y-11105425D01*
X35438246Y2738575D02*
X35438246Y-2731425D01*
X35438246Y-5611425D02*
X35438246Y-11081425D01*
X35478246Y2714575D02*
X35478246Y-2731425D01*
X35478246Y-5611425D02*
X35478246Y-11057425D01*
X35518246Y2689575D02*
X35518246Y-2731425D01*
X35518246Y-5611425D02*
X35518246Y-11032425D01*
X35558246Y2664575D02*
X35558246Y-2731425D01*
X35558246Y-5611425D02*
X35558246Y-11007425D01*
X35598246Y2639575D02*
X35598246Y-2731425D01*
X35598246Y-5611425D02*
X35598246Y-10982425D01*
X35638246Y2613575D02*
X35638246Y-2731425D01*
X35638246Y-5611425D02*
X35638246Y-10956425D01*
X35678246Y2587575D02*
X35678246Y-2731425D01*
X35678246Y-5611425D02*
X35678246Y-10930425D01*
X35718246Y2561575D02*
X35718246Y-2731425D01*
X35718246Y-5611425D02*
X35718246Y-10904425D01*
X35758246Y2534575D02*
X35758246Y-2731425D01*
X35758246Y-5611425D02*
X35758246Y-10877425D01*
X35798246Y2507575D02*
X35798246Y-2731425D01*
X35798246Y-5611425D02*
X35798246Y-10850425D01*
X35838246Y2480575D02*
X35838246Y-2731425D01*
X35838246Y-5611425D02*
X35838246Y-10823425D01*
X35878246Y2452575D02*
X35878246Y-2731425D01*
X35878246Y-5611425D02*
X35878246Y-10795425D01*
X35918246Y2424575D02*
X35918246Y-2731425D01*
X35918246Y-5611425D02*
X35918246Y-10767425D01*
X35958246Y2396575D02*
X35958246Y-2731425D01*
X35958246Y-5611425D02*
X35958246Y-10739425D01*
X35998246Y2367575D02*
X35998246Y-2731425D01*
X35998246Y-5611425D02*
X35998246Y-10710425D01*
X36038246Y2338575D02*
X36038246Y-2731425D01*
X36038246Y-5611425D02*
X36038246Y-10681425D01*
X36078246Y2308575D02*
X36078246Y-2731425D01*
X36078246Y-5611425D02*
X36078246Y-10651425D01*
X36118246Y2278575D02*
X36118246Y-2731425D01*
X36118246Y-5611425D02*
X36118246Y-10621425D01*
X36158246Y2248575D02*
X36158246Y-2731425D01*
X36158246Y-5611425D02*
X36158246Y-10591425D01*
X36198246Y2218575D02*
X36198246Y-2731425D01*
X36198246Y-5611425D02*
X36198246Y-10561425D01*
X36238246Y2186575D02*
X36238246Y-2731425D01*
X36238246Y-5611425D02*
X36238246Y-10529425D01*
X36278246Y2155575D02*
X36278246Y-2731425D01*
X36278246Y-5611425D02*
X36278246Y-10498425D01*
X36318246Y2123575D02*
X36318246Y-2731425D01*
X36318246Y-5611425D02*
X36318246Y-10466425D01*
X36358246Y2091575D02*
X36358246Y-2731425D01*
X36358246Y-5611425D02*
X36358246Y-10434425D01*
X36398246Y2058575D02*
X36398246Y-2731425D01*
X36398246Y-5611425D02*
X36398246Y-10401425D01*
X36438246Y2025575D02*
X36438246Y-10368425D01*
X36478246Y1991575D02*
X36478246Y-10334425D01*
X36518246Y1957575D02*
X36518246Y-10300425D01*
X36558246Y1923575D02*
X36558246Y-10266425D01*
X36598246Y1888575D02*
X36598246Y-10231425D01*
X36638246Y1853575D02*
X36638246Y-10196425D01*
X36678246Y1817575D02*
X36678246Y-10160425D01*
X36718246Y1780575D02*
X36718246Y-10123425D01*
X36758246Y1744575D02*
X36758246Y-10087425D01*
X36798246Y1706575D02*
X36798246Y-10049425D01*
X36838246Y1668575D02*
X36838246Y-10011425D01*
X36878246Y1630575D02*
X36878246Y-9973425D01*
X36918246Y1591575D02*
X36918246Y-9934425D01*
X36958246Y1552575D02*
X36958246Y-9895425D01*
X36998246Y1512575D02*
X36998246Y-9855425D01*
X37038246Y1471575D02*
X37038246Y-9814425D01*
X37078246Y1430575D02*
X37078246Y-9773425D01*
X37118246Y1388575D02*
X37118246Y-9731425D01*
X37158246Y1346575D02*
X37158246Y-9689425D01*
X37198246Y1303575D02*
X37198246Y-9646425D01*
X37238246Y1260575D02*
X37238246Y-9603425D01*
X37278246Y1216575D02*
X37278246Y-9559425D01*
X37318246Y1171575D02*
X37318246Y-9514425D01*
X37358246Y1125575D02*
X37358246Y-9468425D01*
X37398246Y1079575D02*
X37398246Y-9422425D01*
X37438246Y1032575D02*
X37438246Y-9375425D01*
X37478246Y984575D02*
X37478246Y-9327425D01*
X37518246Y936575D02*
X37518246Y-9279425D01*
X37558246Y887575D02*
X37558246Y-9230425D01*
X37598246Y837575D02*
X37598246Y-9180425D01*
X37638246Y786575D02*
X37638246Y-9129425D01*
X37678246Y734575D02*
X37678246Y-9077425D01*
X37718246Y682575D02*
X37718246Y-9025425D01*
X37758246Y628575D02*
X37758246Y-8971425D01*
X37798246Y574575D02*
X37798246Y-8917425D01*
X37838246Y519575D02*
X37838246Y-8862425D01*
X37878246Y462575D02*
X37878246Y-8805425D01*
X37918246Y405575D02*
X37918246Y-8748425D01*
X37958246Y347575D02*
X37958246Y-8690425D01*
X37998246Y287575D02*
X37998246Y-8630425D01*
X38038246Y226575D02*
X38038246Y-8569425D01*
X38078246Y164575D02*
X38078246Y-8507425D01*
X38118246Y101575D02*
X38118246Y-8444425D01*
X38158246Y37575D02*
X38158246Y-8380425D01*
X38198246Y-28425D02*
X38198246Y-8314425D01*
X38238246Y-95425D02*
X38238246Y-8247425D01*
X38278246Y-164425D02*
X38278246Y-8178425D01*
X38318246Y-235425D02*
X38318246Y-8107425D01*
X38358246Y-307425D02*
X38358246Y-8035425D01*
X38398246Y-381425D02*
X38398246Y-7961425D01*
X38438246Y-456425D02*
X38438246Y-7886425D01*
X38478246Y-534425D02*
X38478246Y-7808425D01*
X38518246Y-614425D02*
X38518246Y-7728425D01*
X38558246Y-696425D02*
X38558246Y-7646425D01*
X38598246Y-781425D02*
X38598246Y-7561425D01*
X38638246Y-868425D02*
X38638246Y-7474425D01*
X38678246Y-958425D02*
X38678246Y-7384425D01*
X38718246Y-1051425D02*
X38718246Y-7291425D01*
X38758246Y-1147425D02*
X38758246Y-7195425D01*
X38798246Y-1247425D02*
X38798246Y-7095425D01*
X38838246Y-1351425D02*
X38838246Y-6991425D01*
X38878246Y-1460425D02*
X38878246Y-6882425D01*
X38918246Y-1574425D02*
X38918246Y-6768425D01*
X38958246Y-1693425D02*
X38958246Y-6649425D01*
X38998246Y-1820425D02*
X38998246Y-6522425D01*
X39038246Y-1953425D02*
X39038246Y-6389425D01*
X39078246Y-2097425D02*
X39078246Y-6245425D01*
X39118246Y-2251425D02*
X39118246Y-6091425D01*
X39158246Y-2419425D02*
X39158246Y-5923425D01*
X39198246Y-2607425D02*
X39198246Y-5735425D01*
X39238246Y-2820425D02*
X39238246Y-5522425D01*
X39278246Y-3073425D02*
X39278246Y-5269425D01*
X39318246Y-3406425D02*
X39318246Y-4936425D01*
X39357246Y-4171425D02*
G75*
G02*
X23117246Y-4171425I-8120000J0D01*
G01*
X23117246Y-4171425D02*
G75*
G02*
X39357246Y-4171425I8120000J0D01*
G01*
%TO.C,C4*%
X-39318246Y-4936425D02*
X-39318246Y-3406425D01*
X-39278246Y-5269425D02*
X-39278246Y-3073425D01*
X-39238246Y-5522425D02*
X-39238246Y-2820425D01*
X-39198246Y-5735425D02*
X-39198246Y-2607425D01*
X-39158246Y-5923425D02*
X-39158246Y-2419425D01*
X-39118246Y-6091425D02*
X-39118246Y-2251425D01*
X-39078246Y-6245425D02*
X-39078246Y-2097425D01*
X-39038246Y-6389425D02*
X-39038246Y-1953425D01*
X-38998246Y-6522425D02*
X-38998246Y-1820425D01*
X-38958246Y-6649425D02*
X-38958246Y-1693425D01*
X-38918246Y-6768425D02*
X-38918246Y-1574425D01*
X-38878246Y-6882425D02*
X-38878246Y-1460425D01*
X-38838246Y-6991425D02*
X-38838246Y-1351425D01*
X-38798246Y-7095425D02*
X-38798246Y-1247425D01*
X-38758246Y-7195425D02*
X-38758246Y-1147425D01*
X-38718246Y-7291425D02*
X-38718246Y-1051425D01*
X-38678246Y-7384425D02*
X-38678246Y-958425D01*
X-38638246Y-7474425D02*
X-38638246Y-868425D01*
X-38598246Y-7561425D02*
X-38598246Y-781425D01*
X-38558246Y-7646425D02*
X-38558246Y-696425D01*
X-38518246Y-7728425D02*
X-38518246Y-614425D01*
X-38478246Y-7808425D02*
X-38478246Y-534425D01*
X-38438246Y-7886425D02*
X-38438246Y-456425D01*
X-38398246Y-7961425D02*
X-38398246Y-381425D01*
X-38358246Y-8035425D02*
X-38358246Y-307425D01*
X-38318246Y-8107425D02*
X-38318246Y-235425D01*
X-38278246Y-8178425D02*
X-38278246Y-164425D01*
X-38238246Y-8247425D02*
X-38238246Y-95425D01*
X-38198246Y-8314425D02*
X-38198246Y-28425D01*
X-38158246Y-8380425D02*
X-38158246Y37575D01*
X-38118246Y-8444425D02*
X-38118246Y101575D01*
X-38078246Y-8507425D02*
X-38078246Y164575D01*
X-38038246Y-8569425D02*
X-38038246Y226575D01*
X-37998246Y-8630425D02*
X-37998246Y287575D01*
X-37958246Y-8690425D02*
X-37958246Y347575D01*
X-37918246Y-8748425D02*
X-37918246Y405575D01*
X-37878246Y-8805425D02*
X-37878246Y462575D01*
X-37838246Y-8862425D02*
X-37838246Y519575D01*
X-37798246Y-8917425D02*
X-37798246Y574575D01*
X-37758246Y-8971425D02*
X-37758246Y628575D01*
X-37718246Y-9025425D02*
X-37718246Y682575D01*
X-37678246Y-9077425D02*
X-37678246Y734575D01*
X-37638246Y-9129425D02*
X-37638246Y786575D01*
X-37598246Y-9180425D02*
X-37598246Y837575D01*
X-37558246Y-9230425D02*
X-37558246Y887575D01*
X-37518246Y-9279425D02*
X-37518246Y936575D01*
X-37478246Y-9327425D02*
X-37478246Y984575D01*
X-37438246Y-9375425D02*
X-37438246Y1032575D01*
X-37398246Y-9422425D02*
X-37398246Y1079575D01*
X-37358246Y-9468425D02*
X-37358246Y1125575D01*
X-37318246Y-9514425D02*
X-37318246Y1171575D01*
X-37278246Y-9559425D02*
X-37278246Y1216575D01*
X-37238246Y-9603425D02*
X-37238246Y1260575D01*
X-37198246Y-9646425D02*
X-37198246Y1303575D01*
X-37158246Y-9689425D02*
X-37158246Y1346575D01*
X-37118246Y-9731425D02*
X-37118246Y1388575D01*
X-37078246Y-9773425D02*
X-37078246Y1430575D01*
X-37038246Y-9814425D02*
X-37038246Y1471575D01*
X-36998246Y-9855425D02*
X-36998246Y1512575D01*
X-36958246Y-9895425D02*
X-36958246Y1552575D01*
X-36918246Y-9934425D02*
X-36918246Y1591575D01*
X-36878246Y-9973425D02*
X-36878246Y1630575D01*
X-36838246Y-10011425D02*
X-36838246Y1668575D01*
X-36798246Y-10049425D02*
X-36798246Y1706575D01*
X-36758246Y-10087425D02*
X-36758246Y1744575D01*
X-36718246Y-10123425D02*
X-36718246Y1780575D01*
X-36678246Y-10160425D02*
X-36678246Y1817575D01*
X-36638246Y-10196425D02*
X-36638246Y1853575D01*
X-36598246Y-10231425D02*
X-36598246Y1888575D01*
X-36558246Y-10266425D02*
X-36558246Y1923575D01*
X-36518246Y-10300425D02*
X-36518246Y1957575D01*
X-36478246Y-10334425D02*
X-36478246Y1991575D01*
X-36438246Y-10368425D02*
X-36438246Y2025575D01*
X-36398246Y-2731425D02*
X-36398246Y2058575D01*
X-36398246Y-10401425D02*
X-36398246Y-5611425D01*
X-36358246Y-2731425D02*
X-36358246Y2091575D01*
X-36358246Y-10434425D02*
X-36358246Y-5611425D01*
X-36318246Y-2731425D02*
X-36318246Y2123575D01*
X-36318246Y-10466425D02*
X-36318246Y-5611425D01*
X-36278246Y-2731425D02*
X-36278246Y2155575D01*
X-36278246Y-10498425D02*
X-36278246Y-5611425D01*
X-36238246Y-2731425D02*
X-36238246Y2186575D01*
X-36238246Y-10529425D02*
X-36238246Y-5611425D01*
X-36198246Y-2731425D02*
X-36198246Y2218575D01*
X-36198246Y-10561425D02*
X-36198246Y-5611425D01*
X-36158246Y-2731425D02*
X-36158246Y2248575D01*
X-36158246Y-10591425D02*
X-36158246Y-5611425D01*
X-36118246Y-2731425D02*
X-36118246Y2278575D01*
X-36118246Y-10621425D02*
X-36118246Y-5611425D01*
X-36078246Y-2731425D02*
X-36078246Y2308575D01*
X-36078246Y-10651425D02*
X-36078246Y-5611425D01*
X-36038246Y-2731425D02*
X-36038246Y2338575D01*
X-36038246Y-10681425D02*
X-36038246Y-5611425D01*
X-35998246Y-2731425D02*
X-35998246Y2367575D01*
X-35998246Y-10710425D02*
X-35998246Y-5611425D01*
X-35958246Y-2731425D02*
X-35958246Y2396575D01*
X-35958246Y-10739425D02*
X-35958246Y-5611425D01*
X-35918246Y-2731425D02*
X-35918246Y2424575D01*
X-35918246Y-10767425D02*
X-35918246Y-5611425D01*
X-35878246Y-2731425D02*
X-35878246Y2452575D01*
X-35878246Y-10795425D02*
X-35878246Y-5611425D01*
X-35838246Y-2731425D02*
X-35838246Y2480575D01*
X-35838246Y-10823425D02*
X-35838246Y-5611425D01*
X-35798246Y-2731425D02*
X-35798246Y2507575D01*
X-35798246Y-10850425D02*
X-35798246Y-5611425D01*
X-35758246Y-2731425D02*
X-35758246Y2534575D01*
X-35758246Y-10877425D02*
X-35758246Y-5611425D01*
X-35718246Y-2731425D02*
X-35718246Y2561575D01*
X-35718246Y-10904425D02*
X-35718246Y-5611425D01*
X-35678246Y-2731425D02*
X-35678246Y2587575D01*
X-35678246Y-10930425D02*
X-35678246Y-5611425D01*
X-35638246Y-2731425D02*
X-35638246Y2613575D01*
X-35638246Y-10956425D02*
X-35638246Y-5611425D01*
X-35598246Y-2731425D02*
X-35598246Y2639575D01*
X-35598246Y-10982425D02*
X-35598246Y-5611425D01*
X-35558246Y-2731425D02*
X-35558246Y2664575D01*
X-35558246Y-11007425D02*
X-35558246Y-5611425D01*
X-35518246Y-2731425D02*
X-35518246Y2689575D01*
X-35518246Y-11032425D02*
X-35518246Y-5611425D01*
X-35478246Y-2731425D02*
X-35478246Y2714575D01*
X-35478246Y-11057425D02*
X-35478246Y-5611425D01*
X-35438246Y-2731425D02*
X-35438246Y2738575D01*
X-35438246Y-11081425D02*
X-35438246Y-5611425D01*
X-35398246Y-2731425D02*
X-35398246Y2762575D01*
X-35398246Y-11105425D02*
X-35398246Y-5611425D01*
X-35358246Y-2731425D02*
X-35358246Y2786575D01*
X-35358246Y-11129425D02*
X-35358246Y-5611425D01*
X-35318246Y-2731425D02*
X-35318246Y2809575D01*
X-35318246Y-11152425D02*
X-35318246Y-5611425D01*
X-35278246Y-2731425D02*
X-35278246Y2832575D01*
X-35278246Y-11175425D02*
X-35278246Y-5611425D01*
X-35238246Y-2731425D02*
X-35238246Y2855575D01*
X-35238246Y-11198425D02*
X-35238246Y-5611425D01*
X-35198246Y-2731425D02*
X-35198246Y2877575D01*
X-35198246Y-11220425D02*
X-35198246Y-5611425D01*
X-35158246Y-2731425D02*
X-35158246Y2900575D01*
X-35158246Y-11243425D02*
X-35158246Y-5611425D01*
X-35118246Y-2731425D02*
X-35118246Y2922575D01*
X-35118246Y-11265425D02*
X-35118246Y-5611425D01*
X-35078246Y-2731425D02*
X-35078246Y2943575D01*
X-35078246Y-11286425D02*
X-35078246Y-5611425D01*
X-35038246Y-2731425D02*
X-35038246Y2964575D01*
X-35038246Y-11307425D02*
X-35038246Y-5611425D01*
X-34998246Y-2731425D02*
X-34998246Y2985575D01*
X-34998246Y-11328425D02*
X-34998246Y-5611425D01*
X-34958246Y-2731425D02*
X-34958246Y3006575D01*
X-34958246Y-11349425D02*
X-34958246Y-5611425D01*
X-34918246Y-2731425D02*
X-34918246Y3027575D01*
X-34918246Y-11370425D02*
X-34918246Y-5611425D01*
X-34878246Y-2731425D02*
X-34878246Y3047575D01*
X-34878246Y-11390425D02*
X-34878246Y-5611425D01*
X-34838246Y-2731425D02*
X-34838246Y3067575D01*
X-34838246Y-11410425D02*
X-34838246Y-5611425D01*
X-34798246Y-2731425D02*
X-34798246Y3086575D01*
X-34798246Y-11429425D02*
X-34798246Y-5611425D01*
X-34758246Y-2731425D02*
X-34758246Y3106575D01*
X-34758246Y-11449425D02*
X-34758246Y-5611425D01*
X-34718246Y-2731425D02*
X-34718246Y3125575D01*
X-34718246Y-11468425D02*
X-34718246Y-5611425D01*
X-34678246Y-2731425D02*
X-34678246Y3144575D01*
X-34678246Y-11487425D02*
X-34678246Y-5611425D01*
X-34638246Y-2731425D02*
X-34638246Y3162575D01*
X-34638246Y-11505425D02*
X-34638246Y-5611425D01*
X-34598246Y-2731425D02*
X-34598246Y3181575D01*
X-34598246Y-11524425D02*
X-34598246Y-5611425D01*
X-34558246Y-2731425D02*
X-34558246Y3199575D01*
X-34558246Y-11542425D02*
X-34558246Y-5611425D01*
X-34518246Y-2731425D02*
X-34518246Y3217575D01*
X-34518246Y-11560425D02*
X-34518246Y-5611425D01*
X-34478246Y-2731425D02*
X-34478246Y3234575D01*
X-34478246Y-11577425D02*
X-34478246Y-5611425D01*
X-34438246Y-2731425D02*
X-34438246Y3251575D01*
X-34438246Y-11594425D02*
X-34438246Y-5611425D01*
X-34398246Y-2731425D02*
X-34398246Y3268575D01*
X-34398246Y-11611425D02*
X-34398246Y-5611425D01*
X-34358246Y-2731425D02*
X-34358246Y3285575D01*
X-34358246Y-11628425D02*
X-34358246Y-5611425D01*
X-34318246Y-2731425D02*
X-34318246Y3302575D01*
X-34318246Y-11645425D02*
X-34318246Y-5611425D01*
X-34278246Y-2731425D02*
X-34278246Y3318575D01*
X-34278246Y-11661425D02*
X-34278246Y-5611425D01*
X-34238246Y-2731425D02*
X-34238246Y3334575D01*
X-34238246Y-11677425D02*
X-34238246Y-5611425D01*
X-34198246Y-2731425D02*
X-34198246Y3350575D01*
X-34198246Y-11693425D02*
X-34198246Y-5611425D01*
X-34158246Y-2731425D02*
X-34158246Y3365575D01*
X-34158246Y-11708425D02*
X-34158246Y-5611425D01*
X-34118246Y-2731425D02*
X-34118246Y3381575D01*
X-34118246Y-11724425D02*
X-34118246Y-5611425D01*
X-34078246Y-2731425D02*
X-34078246Y3396575D01*
X-34078246Y-11739425D02*
X-34078246Y-5611425D01*
X-34038246Y-2731425D02*
X-34038246Y3410575D01*
X-34038246Y-11753425D02*
X-34038246Y-5611425D01*
X-33998246Y-2731425D02*
X-33998246Y3425575D01*
X-33998246Y-11768425D02*
X-33998246Y-5611425D01*
X-33958246Y-2731425D02*
X-33958246Y3439575D01*
X-33958246Y-11782425D02*
X-33958246Y-5611425D01*
X-33918246Y-2731425D02*
X-33918246Y3453575D01*
X-33918246Y-11796425D02*
X-33918246Y-5611425D01*
X-33878246Y-2731425D02*
X-33878246Y3467575D01*
X-33878246Y-11810425D02*
X-33878246Y-5611425D01*
X-33838246Y-2731425D02*
X-33838246Y3481575D01*
X-33838246Y-11824425D02*
X-33838246Y-5611425D01*
X-33798246Y-2731425D02*
X-33798246Y3494575D01*
X-33798246Y-11837425D02*
X-33798246Y-5611425D01*
X-33758246Y-2731425D02*
X-33758246Y3508575D01*
X-33758246Y-11851425D02*
X-33758246Y-5611425D01*
X-33718246Y-2731425D02*
X-33718246Y3521575D01*
X-33718246Y-11864425D02*
X-33718246Y-5611425D01*
X-33678246Y-2731425D02*
X-33678246Y3533575D01*
X-33678246Y-11876425D02*
X-33678246Y-5611425D01*
X-33638246Y-2731425D02*
X-33638246Y3546575D01*
X-33638246Y-11889425D02*
X-33638246Y-5611425D01*
X-33598246Y-2731425D02*
X-33598246Y3558575D01*
X-33598246Y-11901425D02*
X-33598246Y-5611425D01*
X-33558246Y-2731425D02*
X-33558246Y3570575D01*
X-33558246Y-11913425D02*
X-33558246Y-5611425D01*
X-33518246Y-11925425D02*
X-33518246Y3582575D01*
X-33478246Y-11936425D02*
X-33478246Y3593575D01*
X-33438246Y-11948425D02*
X-33438246Y3605575D01*
X-33398246Y-11959425D02*
X-33398246Y3616575D01*
X-33358246Y-11970425D02*
X-33358246Y3627575D01*
X-33318246Y-11981425D02*
X-33318246Y3638575D01*
X-33278246Y-11991425D02*
X-33278246Y3648575D01*
X-33238246Y-12001425D02*
X-33238246Y3658575D01*
X-33198246Y-12011425D02*
X-33198246Y3668575D01*
X-33158246Y-12021425D02*
X-33158246Y3678575D01*
X-33118246Y-12031425D02*
X-33118246Y3688575D01*
X-33078246Y-12040425D02*
X-33078246Y3697575D01*
X-33038246Y-12049425D02*
X-33038246Y3706575D01*
X-32998246Y-12058425D02*
X-32998246Y3715575D01*
X-32958246Y-12067425D02*
X-32958246Y3724575D01*
X-32918246Y-12076425D02*
X-32918246Y3733575D01*
X-32878246Y-12084425D02*
X-32878246Y3741575D01*
X-32838246Y-12092425D02*
X-32838246Y3749575D01*
X-32798246Y-12100425D02*
X-32798246Y3757575D01*
X-32758246Y-12108425D02*
X-32758246Y3765575D01*
X-32718246Y-12115425D02*
X-32718246Y3772575D01*
X-32678246Y-12123425D02*
X-32678246Y3780575D01*
X-32638246Y-12130425D02*
X-32638246Y3787575D01*
X-32598246Y-12137425D02*
X-32598246Y3794575D01*
X-32558246Y-12143425D02*
X-32558246Y3800575D01*
X-32518246Y-12150425D02*
X-32518246Y3807575D01*
X-32478246Y-12156425D02*
X-32478246Y3813575D01*
X-32438246Y-12162425D02*
X-32438246Y3819575D01*
X-32398246Y-12168425D02*
X-32398246Y3825575D01*
X-32358246Y-12174425D02*
X-32358246Y3831575D01*
X-32318246Y-12179425D02*
X-32318246Y3836575D01*
X-32278246Y-12185425D02*
X-32278246Y3842575D01*
X-32238246Y-12190425D02*
X-32238246Y3847575D01*
X-32198246Y-12195425D02*
X-32198246Y3852575D01*
X-32158246Y-12199425D02*
X-32158246Y3856575D01*
X-32118246Y-12204425D02*
X-32118246Y3861575D01*
X-32078246Y-12208425D02*
X-32078246Y3865575D01*
X-32038246Y-12212425D02*
X-32038246Y3869575D01*
X-31998246Y-12216425D02*
X-31998246Y3873575D01*
X-31958246Y-12220425D02*
X-31958246Y3877575D01*
X-31917246Y-12223425D02*
X-31917246Y3880575D01*
X-31877246Y-12226425D02*
X-31877246Y3883575D01*
X-31837246Y-12229425D02*
X-31837246Y3886575D01*
X-31797246Y-12232425D02*
X-31797246Y3889575D01*
X-31757246Y-12235425D02*
X-31757246Y3892575D01*
X-31717246Y-12237425D02*
X-31717246Y3894575D01*
X-31677246Y-12240425D02*
X-31677246Y3897575D01*
X-31637246Y-12242425D02*
X-31637246Y3899575D01*
X-31597246Y-12244425D02*
X-31597246Y3901575D01*
X-31557246Y-12245425D02*
X-31557246Y3902575D01*
X-31517246Y-12247425D02*
X-31517246Y3904575D01*
X-31477246Y-12248425D02*
X-31477246Y3905575D01*
X-31437246Y-12249425D02*
X-31437246Y3906575D01*
X-31397246Y-12250425D02*
X-31397246Y3907575D01*
X-31357246Y-12251425D02*
X-31357246Y3908575D01*
X-31317246Y-12251425D02*
X-31317246Y3908575D01*
X-31277246Y-12251425D02*
X-31277246Y3908575D01*
X-31237246Y-12252425D02*
X-31237246Y3909575D01*
X-23117246Y-4171425D02*
G75*
G02*
X-39357246Y-4171425I-8120000J0D01*
G01*
X-39357246Y-4171425D02*
G75*
G02*
X-23117246Y-4171425I8120000J0D01*
G01*
%TO.C,J1*%
X-14560000Y-21490000D02*
X-13140000Y-21490000D01*
X-14560000Y-33210000D02*
X-14560000Y-21490000D01*
X-13140000Y-21490000D02*
X-13140000Y-25990000D01*
X-12300000Y-23400000D02*
X-11700000Y-23400000D01*
X-12250000Y-27100000D02*
X-12250000Y-32600000D01*
X-12250000Y-32600000D02*
X-11750000Y-32600000D01*
X-12000000Y-24000000D02*
X-12300000Y-23400000D01*
X-11750000Y-27100000D02*
X-12250000Y-27100000D01*
X-11750000Y-32600000D02*
X-11750000Y-27100000D01*
X-11700000Y-23400000D02*
X-12000000Y-24000000D01*
X-10750000Y-33210000D02*
X-14560000Y-33210000D01*
X-10750000Y-33210000D02*
X-6940000Y-33210000D01*
X-9750000Y-27100000D02*
X-9750000Y-32600000D01*
X-9750000Y-32600000D02*
X-9250000Y-32600000D01*
X-9250000Y-27100000D02*
X-9750000Y-27100000D01*
X-9250000Y-32600000D02*
X-9250000Y-27100000D01*
X-8360000Y-21490000D02*
X-8360000Y-25990000D01*
X-6940000Y-21490000D02*
X-8360000Y-21490000D01*
X-6940000Y-33210000D02*
X-6940000Y-21490000D01*
%TO.C,R1*%
X38437258Y11122500D02*
X37962742Y11122500D01*
X38437258Y10077500D02*
X37962742Y10077500D01*
D12*
%TO.C,U3*%
X-21000000Y0D02*
X-12000000Y0D01*
D13*
X-21000000Y0D02*
X21000000Y0D01*
X21000000Y-20500000D01*
X-21000000Y-20500000D01*
X-21000000Y0D01*
%TO.C,U1*%
X37525000Y13400000D02*
X37525000Y18490000D01*
X37865000Y13400000D02*
X37525000Y13400000D01*
X40185000Y13400000D02*
X40535000Y13400000D01*
X40535000Y13400000D02*
X40535000Y16000000D01*
X37525000Y13900001D02*
G75*
G02*
X37523264Y18099916I100000J2099999D01*
G01*
%TO.C,R4*%
X-237258Y-26977500D02*
X237258Y-26977500D01*
X-237258Y-28022500D02*
X237258Y-28022500D01*
%TO.C,C5*%
X-135261Y-34725700D02*
X145899Y-34725700D01*
X-135261Y-35745700D02*
X145899Y-35745700D01*
%TO.C,J3*%
X6940000Y-21490000D02*
X8360000Y-21490000D01*
X6940000Y-33210000D02*
X6940000Y-21490000D01*
X8360000Y-21490000D02*
X8360000Y-25990000D01*
X9200000Y-23400000D02*
X9800000Y-23400000D01*
X9250000Y-27100000D02*
X9250000Y-32600000D01*
X9250000Y-32600000D02*
X9750000Y-32600000D01*
X9500000Y-24000000D02*
X9200000Y-23400000D01*
X9750000Y-27100000D02*
X9250000Y-27100000D01*
X9750000Y-32600000D02*
X9750000Y-27100000D01*
X9800000Y-23400000D02*
X9500000Y-24000000D01*
X10750000Y-33210000D02*
X6940000Y-33210000D01*
X10750000Y-33210000D02*
X14560000Y-33210000D01*
X11750000Y-27100000D02*
X11750000Y-32600000D01*
X11750000Y-32600000D02*
X12250000Y-32600000D01*
X12250000Y-27100000D02*
X11750000Y-27100000D01*
X12250000Y-32600000D02*
X12250000Y-27100000D01*
X13140000Y-21490000D02*
X13140000Y-25990000D01*
X14560000Y-21490000D02*
X13140000Y-21490000D01*
X14560000Y-33210000D02*
X14560000Y-21490000D01*
%TO.C,J2*%
X-6409999Y-41311425D02*
X-6409999Y-43971425D01*
X-6409999Y-43971425D02*
X6410001Y-43971425D01*
X-5459999Y-40914354D02*
X-5459999Y-41311425D01*
X-5459999Y-49971425D02*
X-5459999Y-43971425D01*
X-4699999Y-40914354D02*
X-4699999Y-41311425D01*
X-4699999Y-43971425D02*
X-4699999Y-49971425D01*
X-4699999Y-49971425D02*
X-5459999Y-49971425D01*
X-3809999Y-41311425D02*
X-3809999Y-43971425D01*
X-2919999Y-40914354D02*
X-2919999Y-41311425D01*
X-2919999Y-49971425D02*
X-2919999Y-43971425D01*
X-2159999Y-40914354D02*
X-2159999Y-41311425D01*
X-2159999Y-43971425D02*
X-2159999Y-49971425D01*
X-2159999Y-49971425D02*
X-2919999Y-49971425D01*
X-1269999Y-41311425D02*
X-1269999Y-43971425D01*
X-379999Y-40914354D02*
X-379999Y-41311425D01*
X-379999Y-49971425D02*
X-379999Y-43971425D01*
X380001Y-40914354D02*
X380001Y-41311425D01*
X380001Y-43971425D02*
X380001Y-49971425D01*
X380001Y-49971425D02*
X-379999Y-49971425D01*
X1270001Y-41311425D02*
X1270001Y-43971425D01*
X2160001Y-40914354D02*
X2160001Y-41311425D01*
X2160001Y-49971425D02*
X2160001Y-43971425D01*
X2920001Y-40914354D02*
X2920001Y-41311425D01*
X2920001Y-43971425D02*
X2920001Y-49971425D01*
X2920001Y-49971425D02*
X2160001Y-49971425D01*
X3810001Y-41311425D02*
X3810001Y-43971425D01*
X4700001Y-40981425D02*
X4700001Y-41311425D01*
X4700001Y-49971425D02*
X4700001Y-43971425D01*
X4800001Y-43971425D02*
X4800001Y-49971425D01*
X4920001Y-43971425D02*
X4920001Y-49971425D01*
X5040001Y-43971425D02*
X5040001Y-49971425D01*
X5080001Y-38601425D02*
X6350001Y-38601425D01*
X5160001Y-43971425D02*
X5160001Y-49971425D01*
X5280001Y-43971425D02*
X5280001Y-49971425D01*
X5400001Y-43971425D02*
X5400001Y-49971425D01*
X5460001Y-40981425D02*
X5460001Y-41311425D01*
X5460001Y-43971425D02*
X5460001Y-49971425D01*
X5460001Y-49971425D02*
X4700001Y-49971425D01*
X6350001Y-38601425D02*
X6350001Y-39871425D01*
X6410001Y-41311425D02*
X-6409999Y-41311425D01*
X6410001Y-43971425D02*
X6410001Y-41311425D01*
%TD*%
%LPC*%
D14*
%TO.C,R5*%
X-819681Y-29235700D03*
X830319Y-29235700D03*
%TD*%
D15*
%TO.C,C2*%
X37375000Y8800000D03*
X38925000Y8800000D03*
%TD*%
%TO.C,C3*%
X-38925000Y8800000D03*
X-37375000Y8800000D03*
%TD*%
D14*
%TO.C,R2*%
X-39025000Y10600000D03*
X-37375000Y10600000D03*
%TD*%
D16*
%TO.C,REF\u002A\u002A*%
X-42200000Y4828600D03*
%TD*%
D14*
%TO.C,R3*%
X-819681Y-36985700D03*
X830319Y-36985700D03*
%TD*%
D17*
%TO.C,U2*%
X-39025000Y13460000D03*
D18*
X-39025000Y16000000D03*
X-39025000Y18540000D03*
%TD*%
D19*
%TO.C,D2*%
X3155319Y-33505700D03*
X3155319Y-30965700D03*
X-3144681Y-30965700D03*
X-3144681Y-32235700D03*
X-3144681Y-33505700D03*
%TD*%
D20*
%TO.C,C1*%
X27487246Y-4171425D03*
D21*
X34987246Y-4171425D03*
%TD*%
D20*
%TO.C,C4*%
X-27487246Y-4171425D03*
D21*
X-34987246Y-4171425D03*
%TD*%
D22*
%TO.C,J1*%
X-12000000Y-25500000D03*
D23*
X-9500000Y-25500000D03*
%TD*%
D24*
%TO.C,R1*%
X39025000Y10600000D03*
X37375000Y10600000D03*
%TD*%
D25*
%TO.C,U3*%
X-19750000Y-1250000D03*
X-19750000Y-19250000D03*
X19750000Y-1250000D03*
X19750000Y-19250000D03*
%TD*%
D26*
%TO.C,U1*%
X39025000Y18540000D03*
D18*
X39025000Y16000000D03*
X39025000Y13460000D03*
%TD*%
D14*
%TO.C,R4*%
X-825000Y-27500000D03*
X825000Y-27500000D03*
%TD*%
D16*
%TO.C,REF\u002A\u002A*%
X42200001Y4828575D03*
%TD*%
D15*
%TO.C,C5*%
X-769681Y-35235700D03*
X780319Y-35235700D03*
%TD*%
D22*
%TO.C,J3*%
X9500000Y-25500000D03*
D23*
X12000000Y-25500000D03*
%TD*%
D27*
%TO.C,J2*%
X5080001Y-39871425D03*
D28*
X2540001Y-39871425D03*
X1Y-39871425D03*
X-2539999Y-39871425D03*
X-5079999Y-39871425D03*
%TD*%
%LPD*%
M02*
