%TF.GenerationSoftware,KiCad,Pcbnew,8.0.1*%
%TF.CreationDate,2024-08-04T20:06:35+09:00*%
%TF.ProjectId,Kicker-20240411,4b69636b-6572-42d3-9230-323430343131,rev?*%
%TF.SameCoordinates,Original*%
%TF.FileFunction,Copper,L2,Bot*%
%TF.FilePolarity,Positive*%
%FSLAX46Y46*%
G04 Gerber Fmt 4.6, Leading zero omitted, Abs format (unit mm)*
G04 Created by KiCad (PCBNEW 8.0.1) date 2024-08-04 20:06:35*
%MOMM*%
%LPD*%
G01*
G04 APERTURE LIST*
G04 Aperture macros list*
%AMRoundRect*
0 Rectangle with rounded corners*
0 $1 Rounding radius*
0 $2 $3 $4 $5 $6 $7 $8 $9 X,Y pos of 4 corners*
0 Add a 4 corners polygon primitive as box body*
4,1,4,$2,$3,$4,$5,$6,$7,$8,$9,$2,$3,0*
0 Add four circle primitives for the rounded corners*
1,1,$1+$1,$2,$3*
1,1,$1+$1,$4,$5*
1,1,$1+$1,$6,$7*
1,1,$1+$1,$8,$9*
0 Add four rect primitives between the rounded corners*
20,1,$1+$1,$2,$3,$4,$5,0*
20,1,$1+$1,$4,$5,$6,$7,0*
20,1,$1+$1,$6,$7,$8,$9,0*
20,1,$1+$1,$8,$9,$2,$3,0*%
G04 Aperture macros list end*
%TA.AperFunction,ComponentPad*%
%ADD10RoundRect,0.250200X0.649800X-0.649800X0.649800X0.649800X-0.649800X0.649800X-0.649800X-0.649800X0*%
%TD*%
%TA.AperFunction,ComponentPad*%
%ADD11C,1.800000*%
%TD*%
%TA.AperFunction,ComponentPad*%
%ADD12R,2.400000X2.400000*%
%TD*%
%TA.AperFunction,ComponentPad*%
%ADD13C,2.400000*%
%TD*%
%TA.AperFunction,ComponentPad*%
%ADD14RoundRect,0.250000X-0.600000X-0.750000X0.600000X-0.750000X0.600000X0.750000X-0.600000X0.750000X0*%
%TD*%
%TA.AperFunction,ComponentPad*%
%ADD15O,1.700000X2.000000*%
%TD*%
%TA.AperFunction,ComponentPad*%
%ADD16RoundRect,0.250200X-0.649800X0.649800X-0.649800X-0.649800X0.649800X-0.649800X0.649800X0.649800X0*%
%TD*%
%TA.AperFunction,ComponentPad*%
%ADD17R,1.700000X1.700000*%
%TD*%
%TA.AperFunction,ComponentPad*%
%ADD18O,1.700000X1.700000*%
%TD*%
%TA.AperFunction,SMDPad,CuDef*%
%ADD19RoundRect,0.150000X-0.512500X-0.150000X0.512500X-0.150000X0.512500X0.150000X-0.512500X0.150000X0*%
%TD*%
%TA.AperFunction,SMDPad,CuDef*%
%ADD20RoundRect,0.243750X-0.243750X-0.456250X0.243750X-0.456250X0.243750X0.456250X-0.243750X0.456250X0*%
%TD*%
%TA.AperFunction,SMDPad,CuDef*%
%ADD21RoundRect,0.250000X-0.850000X-0.350000X0.850000X-0.350000X0.850000X0.350000X-0.850000X0.350000X0*%
%TD*%
%TA.AperFunction,SMDPad,CuDef*%
%ADD22RoundRect,0.250000X-1.275000X-1.125000X1.275000X-1.125000X1.275000X1.125000X-1.275000X1.125000X0*%
%TD*%
%TA.AperFunction,SMDPad,CuDef*%
%ADD23RoundRect,0.249997X-2.950003X-2.650003X2.950003X-2.650003X2.950003X2.650003X-2.950003X2.650003X0*%
%TD*%
%TA.AperFunction,SMDPad,CuDef*%
%ADD24RoundRect,0.250000X0.850000X0.350000X-0.850000X0.350000X-0.850000X-0.350000X0.850000X-0.350000X0*%
%TD*%
%TA.AperFunction,SMDPad,CuDef*%
%ADD25RoundRect,0.250000X1.275000X1.125000X-1.275000X1.125000X-1.275000X-1.125000X1.275000X-1.125000X0*%
%TD*%
%TA.AperFunction,SMDPad,CuDef*%
%ADD26RoundRect,0.249997X2.950003X2.650003X-2.950003X2.650003X-2.950003X-2.650003X2.950003X-2.650003X0*%
%TD*%
%TA.AperFunction,ViaPad*%
%ADD27C,0.800000*%
%TD*%
%TA.AperFunction,Conductor*%
%ADD28C,0.500000*%
%TD*%
G04 APERTURE END LIST*
D10*
%TO.P,U2,1,OUT*%
%TO.N,Net-(U2-OUT)*%
X-39025000Y13460000D03*
D11*
%TO.P,U2,2,GND*%
%TO.N,GND*%
X-39025000Y16000000D03*
%TO.P,U2,3,Vs*%
%TO.N,+3.3V*%
X-39025000Y18540000D03*
%TD*%
D12*
%TO.P,C1,1*%
%TO.N,VDD*%
X27487246Y-4171425D03*
D13*
%TO.P,C1,2*%
%TO.N,GND*%
X34987246Y-4171425D03*
%TD*%
D12*
%TO.P,C4,1*%
%TO.N,VDD*%
X-27487246Y-4171425D03*
D13*
%TO.P,C4,2*%
%TO.N,GND*%
X-34987246Y-4171425D03*
%TD*%
D14*
%TO.P,J1,1,Pin_1*%
%TO.N,VCC*%
X-12000000Y-25500000D03*
D15*
%TO.P,J1,2,Pin_2*%
%TO.N,GND*%
X-9500000Y-25500000D03*
%TD*%
D16*
%TO.P,U1,1,OUT*%
%TO.N,Net-(U1-OUT)*%
X39025000Y18540000D03*
D11*
%TO.P,U1,2,GND*%
%TO.N,GND*%
X39025000Y16000000D03*
%TO.P,U1,3,Vs*%
%TO.N,+3.3V*%
X39025000Y13460000D03*
%TD*%
D14*
%TO.P,J3,1,Pin_1*%
%TO.N,Net-(J3-Pin_1)*%
X9500000Y-25500000D03*
D15*
%TO.P,J3,2,Pin_2*%
%TO.N,VDD*%
X12000000Y-25500000D03*
%TD*%
D17*
%TO.P,J2,1,Pin_1*%
%TO.N,ball01k*%
X5080001Y-39871425D03*
D18*
%TO.P,J2,2,Pin_2*%
%TO.N,Sig-main*%
X2540001Y-39871425D03*
%TO.P,J2,3,Pin_3*%
%TO.N,GND*%
X1Y-39871425D03*
%TO.P,J2,4,Pin_4*%
%TO.N,+3.3V*%
X-2539999Y-39871425D03*
%TO.P,J2,5,Pin_5*%
%TO.N,ball02k*%
X-5079999Y-39871425D03*
%TD*%
D19*
%TO.P,U4,1*%
%TO.N,N/C*%
X-1132181Y-33185700D03*
%TO.P,U4,2,IN*%
%TO.N,Sig*%
X-1132181Y-32235700D03*
%TO.P,U4,3,GND*%
%TO.N,GND*%
X-1132181Y-31285700D03*
%TO.P,U4,4,OUT*%
%TO.N,Net-(Q2-G)*%
X1142819Y-31285700D03*
%TO.P,U4,5,VCC*%
%TO.N,+3.3V*%
X1142819Y-33185700D03*
%TD*%
D20*
%TO.P,D1,1,K*%
%TO.N,GND*%
X-932181Y-36985700D03*
%TO.P,D1,2,A*%
%TO.N,Net-(D1-A)*%
X942819Y-36985700D03*
%TD*%
D21*
%TO.P,Q2,1,G*%
%TO.N,Net-(Q2-G)*%
X-4200000Y-28777500D03*
D22*
%TO.P,Q2,2,D*%
%TO.N,Net-(J3-Pin_1)*%
X425000Y-24972500D03*
X425000Y-28022500D03*
D23*
X2100000Y-26497500D03*
D22*
X3775000Y-24972500D03*
X3775000Y-28022500D03*
D21*
%TO.P,Q2,3,S*%
%TO.N,GND*%
X-4200000Y-24217500D03*
%TD*%
D24*
%TO.P,Q1,1,G*%
%TO.N,Sig*%
X4200000Y-16972500D03*
D25*
%TO.P,Q1,2,D*%
%TO.N,+48V*%
X-425000Y-20777500D03*
X-425000Y-17727500D03*
D26*
X-2100001Y-19252500D03*
D25*
X-3775000Y-20777500D03*
X-3775000Y-17727500D03*
D24*
%TO.P,Q1,3,S*%
%TO.N,VDD*%
X4200000Y-21532500D03*
%TD*%
D27*
%TO.N,GND*%
X-4800000Y-30535700D03*
%TO.N,+3.3V*%
X-3144681Y-34502500D03*
X-7425000Y-28800000D03*
X6600000Y-29935700D03*
%TO.N,ball01k*%
X37375000Y7600000D03*
%TO.N,Net-(D1-A)*%
X2255319Y-36985700D03*
%TO.N,Sig*%
X5599999Y-30537435D03*
X5319Y-32235700D03*
%TO.N,Sig-main*%
X3600000Y-32200000D03*
%TO.N,+48V*%
X-300001Y-17452500D03*
X-300001Y-19852500D03*
X-1500001Y-21052500D03*
X-2700001Y-18652500D03*
X-2700001Y-19852500D03*
X-2700001Y-17452500D03*
X-3900001Y-21052500D03*
X-3900001Y-19852500D03*
X-3900001Y-18652500D03*
X-1500001Y-19852500D03*
X-1500001Y-18652500D03*
X-300001Y-21052500D03*
X-1500001Y-17452500D03*
X-300001Y-18652500D03*
X-3900001Y-17452500D03*
X-2700001Y-21052500D03*
%TO.N,Net-(Q2-G)*%
X2600000Y-32225209D03*
X-6200000Y-28777500D03*
%TD*%
D28*
%TO.N,+3.3V*%
X6600000Y-29935700D02*
X14201850Y-29935700D01*
X-12600000Y-31200000D02*
X-6447181Y-31200000D01*
X-6447181Y-31200000D02*
X-3144681Y-34502500D01*
X-37400000Y-6400000D02*
X-12600000Y-31200000D01*
X14201850Y-29935700D02*
X36637246Y-7500304D01*
X-173981Y-34502500D02*
X1142819Y-33185700D01*
X-40375000Y17190000D02*
X-40375000Y11975000D01*
X36525000Y-3375726D02*
X36525000Y10960000D01*
X36637246Y-3487972D02*
X36525000Y-3375726D01*
X36525000Y10960000D02*
X39025000Y13460000D01*
X-6447181Y-31200000D02*
X-6447181Y-29777819D01*
X-3144681Y-34502500D02*
X-173981Y-34502500D01*
X36637246Y-7500304D02*
X36637246Y-3487972D01*
X-6447181Y-29777819D02*
X-7425000Y-28800000D01*
X-40375000Y11975000D02*
X-37400000Y9000000D01*
X-37400000Y9000000D02*
X-37400000Y-6400000D01*
X-39025000Y18540000D02*
X-40375000Y17190000D01*
%TO.N,ball01k*%
X13991800Y-31135700D02*
X6800000Y-31135700D01*
X37375000Y-7752500D02*
X13991800Y-31135700D01*
X37375000Y7600000D02*
X37375000Y-7752500D01*
X6800000Y-31135700D02*
X5080001Y-32855699D01*
X5080001Y-32855699D02*
X5080001Y-39871425D01*
%TO.N,Net-(D1-A)*%
X2255319Y-36985700D02*
X942819Y-36985700D01*
%TO.N,Sig*%
X5599999Y-30537435D02*
X5598264Y-30535700D01*
X4200000Y-16972500D02*
X2149999Y-19022501D01*
X899999Y-23002500D02*
X-1600001Y-23002500D01*
X5598264Y-30535700D02*
X377635Y-30535700D01*
X-1055197Y-29847500D02*
X5319Y-30908016D01*
X-1146878Y-29847500D02*
X-1055197Y-29847500D01*
X377635Y-30535700D02*
X5319Y-30908016D01*
X5319Y-30908016D02*
X5319Y-32235700D01*
X2149999Y-19022501D02*
X2149999Y-21752500D01*
X-1600001Y-23002500D02*
X-2244681Y-23647180D01*
X5319Y-32235700D02*
X-1132181Y-32235700D01*
X2149999Y-21752500D02*
X899999Y-23002500D01*
X-2244681Y-23647180D02*
X-2244681Y-28749697D01*
X-2244681Y-28749697D02*
X-1146878Y-29847500D01*
%TO.N,Sig-main*%
X3600000Y-38811426D02*
X2540001Y-39871425D01*
X3600000Y-32200000D02*
X3600000Y-38811426D01*
%TO.N,Net-(Q2-G)*%
X-4200000Y-28777500D02*
X-6200000Y-28777500D01*
X2082328Y-32225209D02*
X1142819Y-31285700D01*
X2600000Y-32225209D02*
X2082328Y-32225209D01*
%TD*%
%TA.AperFunction,Conductor*%
%TO.N,GND*%
G36*
X3664341Y-40759493D02*
G01*
X3720275Y-40801364D01*
X3737190Y-40832342D01*
X3786203Y-40963753D01*
X3786207Y-40963760D01*
X3872453Y-41078969D01*
X3872456Y-41078972D01*
X3987665Y-41165218D01*
X3987672Y-41165222D01*
X4122518Y-41215516D01*
X4122517Y-41215516D01*
X4129445Y-41216260D01*
X4182128Y-41221925D01*
X5977873Y-41221924D01*
X6037484Y-41215516D01*
X6172332Y-41165221D01*
X6211689Y-41135757D01*
X6277153Y-41111340D01*
X6345426Y-41126191D01*
X6394832Y-41175596D01*
X6410001Y-41235024D01*
X6410001Y-42969889D01*
X6409964Y-42972932D01*
X6407851Y-43059000D01*
X6405505Y-43080152D01*
X6371629Y-43250432D01*
X6364572Y-43273692D01*
X6298716Y-43432673D01*
X6287257Y-43454110D01*
X6191654Y-43597186D01*
X6176235Y-43615975D01*
X6054551Y-43737660D01*
X6035761Y-43753080D01*
X5892686Y-43848683D01*
X5871250Y-43860142D01*
X5712262Y-43926002D01*
X5689002Y-43933058D01*
X5518736Y-43966933D01*
X5497576Y-43969280D01*
X5411512Y-43971388D01*
X5408476Y-43971425D01*
X2500000Y-43971425D01*
X2500000Y-41223584D01*
X2540001Y-41227084D01*
X2540002Y-41227084D01*
X2598967Y-41221925D01*
X2775409Y-41206488D01*
X3003664Y-41145328D01*
X3217831Y-41045460D01*
X3411402Y-40909920D01*
X3533330Y-40787991D01*
X3594649Y-40754509D01*
X3664341Y-40759493D01*
G37*
%TD.AperFunction*%
%TA.AperFunction,Conductor*%
G36*
X2807590Y-37804880D02*
G01*
X2844804Y-37864014D01*
X2849500Y-37897816D01*
X2849500Y-38407521D01*
X2829815Y-38474560D01*
X2777011Y-38520315D01*
X2714693Y-38531049D01*
X2540003Y-38515766D01*
X2540000Y-38515766D01*
X2500000Y-38519265D01*
X2500000Y-37854309D01*
X2535122Y-37846844D01*
X2535126Y-37846842D01*
X2535127Y-37846842D01*
X2675064Y-37784537D01*
X2744314Y-37775252D01*
X2807590Y-37804880D01*
G37*
%TD.AperFunction*%
%TA.AperFunction,Conductor*%
G36*
X2505354Y-33125709D02*
G01*
X2505356Y-33125709D01*
X2694643Y-33125709D01*
X2694646Y-33125709D01*
X2699716Y-33124631D01*
X2769381Y-33129944D01*
X2825117Y-33172079D01*
X2849224Y-33237658D01*
X2849500Y-33245920D01*
X2849500Y-36073583D01*
X2829815Y-36140622D01*
X2777011Y-36186377D01*
X2707853Y-36196321D01*
X2675064Y-36186862D01*
X2535126Y-36124557D01*
X2535121Y-36124555D01*
X2500000Y-36117090D01*
X2500000Y-33124570D01*
X2505354Y-33125709D01*
G37*
%TD.AperFunction*%
%TD*%
%TA.AperFunction,Conductor*%
%TO.N,GND*%
G36*
X-6742372Y-31970185D02*
G01*
X-6721729Y-31986819D01*
X-4057451Y-34651095D01*
X-4027203Y-34700455D01*
X-3971860Y-34870784D01*
X-3877214Y-35034716D01*
X-3750552Y-35175388D01*
X-3597411Y-35286651D01*
X-3424484Y-35363644D01*
X-3239327Y-35403000D01*
X-3239325Y-35403000D01*
X-3050036Y-35403000D01*
X-3050035Y-35403000D01*
X-2864878Y-35363644D01*
X-2864873Y-35363642D01*
X-2691951Y-35286651D01*
X-2691946Y-35286648D01*
X-2678229Y-35276682D01*
X-2612423Y-35253202D01*
X-2605344Y-35253000D01*
X-100060Y-35253000D01*
X9424Y-35231221D01*
X44932Y-35224158D01*
X181514Y-35167584D01*
X230748Y-35134686D01*
X304435Y-35085452D01*
X1367367Y-34022518D01*
X1428690Y-33989034D01*
X1455048Y-33986200D01*
X1721005Y-33986200D01*
X1721013Y-33986200D01*
X1757888Y-33983298D01*
X1757890Y-33983297D01*
X1757892Y-33983297D01*
X1799510Y-33971205D01*
X1915717Y-33937444D01*
X2057184Y-33853781D01*
X2173400Y-33737565D01*
X2257063Y-33596098D01*
X2302917Y-33438269D01*
X2305819Y-33401394D01*
X2305819Y-33236423D01*
X2325504Y-33169384D01*
X2378308Y-33123629D01*
X2447466Y-33113685D01*
X2455578Y-33115129D01*
X2500000Y-33124570D01*
X2500000Y-36117090D01*
X2386849Y-36093039D01*
X2349965Y-36085200D01*
X2160673Y-36085200D01*
X2128216Y-36092098D01*
X1975516Y-36124555D01*
X1975511Y-36124557D01*
X1945703Y-36137828D01*
X1876453Y-36147111D01*
X1813177Y-36117480D01*
X1789734Y-36089646D01*
X1774345Y-36064697D01*
X1651322Y-35941674D01*
X1651318Y-35941671D01*
X1503252Y-35850342D01*
X1503246Y-35850339D01*
X1503244Y-35850338D01*
X1503241Y-35850337D01*
X1338095Y-35795613D01*
X1236174Y-35785200D01*
X1236167Y-35785200D01*
X649471Y-35785200D01*
X649463Y-35785200D01*
X547542Y-35795613D01*
X382396Y-35850337D01*
X382385Y-35850342D01*
X234319Y-35941671D01*
X234315Y-35941674D01*
X111293Y-36064696D01*
X111290Y-36064700D01*
X19961Y-36212766D01*
X19957Y-36212775D01*
X-34768Y-36377925D01*
X-45181Y-36479852D01*
X-45181Y-37491548D01*
X-34768Y-37593475D01*
X19477Y-37757176D01*
X19956Y-37758622D01*
X19961Y-37758633D01*
X111290Y-37906699D01*
X111293Y-37906703D01*
X234315Y-38029725D01*
X234319Y-38029728D01*
X382385Y-38121057D01*
X382388Y-38121058D01*
X382394Y-38121062D01*
X547544Y-38175787D01*
X649471Y-38186200D01*
X649476Y-38186200D01*
X1236162Y-38186200D01*
X1236167Y-38186200D01*
X1338094Y-38175787D01*
X1503244Y-38121062D01*
X1651322Y-38029726D01*
X1774345Y-37906703D01*
X1789732Y-37881755D01*
X1841677Y-37835031D01*
X1910639Y-37823807D01*
X1945704Y-37833570D01*
X1975516Y-37846844D01*
X2160673Y-37886200D01*
X2160674Y-37886200D01*
X2349963Y-37886200D01*
X2349965Y-37886200D01*
X2500000Y-37854309D01*
X2500000Y-38519265D01*
X2304597Y-38536361D01*
X2304587Y-38536363D01*
X2076345Y-38597519D01*
X2076336Y-38597523D01*
X1862172Y-38697389D01*
X1862170Y-38697390D01*
X1668598Y-38832930D01*
X1501506Y-39000022D01*
X1365966Y-39193594D01*
X1365965Y-39193596D01*
X1266099Y-39407760D01*
X1266095Y-39407769D01*
X1204939Y-39636011D01*
X1204937Y-39636021D01*
X1184342Y-39871424D01*
X1184342Y-39871425D01*
X1204937Y-40106828D01*
X1204939Y-40106838D01*
X1266095Y-40335080D01*
X1266097Y-40335084D01*
X1266098Y-40335088D01*
X1270001Y-40343457D01*
X1365966Y-40549255D01*
X1365968Y-40549259D01*
X1406397Y-40606997D01*
X1501506Y-40742826D01*
X1668600Y-40909920D01*
X1765385Y-40977690D01*
X1862166Y-41045457D01*
X1862168Y-41045458D01*
X1862171Y-41045460D01*
X2076338Y-41145328D01*
X2304593Y-41206488D01*
X2500000Y-41223584D01*
X2500000Y-43971425D01*
X-5408563Y-43971425D01*
X-5411398Y-43971393D01*
X-5497491Y-43969424D01*
X-5518845Y-43967074D01*
X-5689057Y-43933220D01*
X-5712320Y-43926163D01*
X-5871329Y-43860300D01*
X-5892767Y-43848842D01*
X-6035881Y-43753218D01*
X-6054672Y-43737796D01*
X-6176370Y-43616098D01*
X-6191792Y-43597307D01*
X-6287416Y-43454193D01*
X-6298874Y-43432755D01*
X-6364737Y-43273746D01*
X-6371794Y-43250483D01*
X-6405648Y-43080271D01*
X-6407998Y-43058917D01*
X-6409967Y-42972824D01*
X-6409999Y-42969989D01*
X-6409999Y-40719791D01*
X-6390314Y-40652752D01*
X-6337510Y-40606997D01*
X-6268352Y-40597053D01*
X-6204796Y-40626078D01*
X-6184424Y-40648666D01*
X-6118494Y-40742826D01*
X-5951400Y-40909920D01*
X-5757829Y-41045460D01*
X-5543662Y-41145328D01*
X-5315407Y-41206488D01*
X-5120003Y-41223584D01*
X-5080000Y-41227084D01*
X-5079999Y-41227084D01*
X-5079998Y-41227084D01*
X-5032917Y-41222964D01*
X-4844591Y-41206488D01*
X-4616336Y-41145328D01*
X-4402169Y-41045460D01*
X-4402166Y-41045458D01*
X-4402164Y-41045457D01*
X-4305383Y-40977690D01*
X-4208598Y-40909920D01*
X-4041504Y-40742826D01*
X-4041499Y-40742820D01*
X-3911574Y-40557267D01*
X-3856997Y-40513642D01*
X-3787499Y-40506448D01*
X-3725144Y-40537971D01*
X-3708423Y-40557267D01*
X-3578494Y-40742826D01*
X-3411400Y-40909920D01*
X-3217829Y-41045460D01*
X-3003662Y-41145328D01*
X-2775407Y-41206488D01*
X-2580003Y-41223584D01*
X-2540000Y-41227084D01*
X-2539999Y-41227084D01*
X-2539998Y-41227084D01*
X-2492917Y-41222964D01*
X-2304591Y-41206488D01*
X-2076336Y-41145328D01*
X-1862169Y-41045460D01*
X-1862166Y-41045458D01*
X-1862164Y-41045457D01*
X-1765383Y-40977690D01*
X-1668598Y-40909920D01*
X-1501504Y-40742826D01*
X-1406395Y-40606997D01*
X-1365966Y-40549259D01*
X-1365964Y-40549255D01*
X-1269999Y-40343457D01*
X-1266096Y-40335088D01*
X-1266095Y-40335084D01*
X-1266093Y-40335080D01*
X-1204937Y-40106838D01*
X-1204935Y-40106828D01*
X-1184340Y-39871425D01*
X-1184340Y-39871424D01*
X-1204935Y-39636021D01*
X-1204937Y-39636011D01*
X-1266093Y-39407769D01*
X-1266097Y-39407760D01*
X-1365963Y-39193596D01*
X-1365964Y-39193594D01*
X-1501504Y-39000022D01*
X-1668596Y-38832931D01*
X-1668603Y-38832926D01*
X-1862164Y-38697392D01*
X-1862168Y-38697390D01*
X-2076334Y-38597523D01*
X-2076343Y-38597519D01*
X-2304585Y-38536363D01*
X-2304595Y-38536361D01*
X-2539998Y-38515766D01*
X-2540000Y-38515766D01*
X-2775402Y-38536361D01*
X-2775412Y-38536363D01*
X-3003654Y-38597519D01*
X-3003658Y-38597521D01*
X-3003662Y-38597522D01*
X-3110745Y-38647456D01*
X-3217827Y-38697389D01*
X-3217829Y-38697390D01*
X-3411401Y-38832930D01*
X-3578493Y-39000022D01*
X-3708424Y-39185583D01*
X-3763001Y-39229208D01*
X-3832499Y-39236402D01*
X-3894854Y-39204879D01*
X-3911574Y-39185583D01*
X-4041504Y-39000022D01*
X-4208596Y-38832931D01*
X-4208603Y-38832926D01*
X-4402164Y-38697392D01*
X-4402168Y-38697390D01*
X-4616334Y-38597523D01*
X-4616343Y-38597519D01*
X-4844585Y-38536363D01*
X-4844595Y-38536361D01*
X-5079998Y-38515766D01*
X-5080000Y-38515766D01*
X-5315402Y-38536361D01*
X-5315412Y-38536363D01*
X-5543654Y-38597519D01*
X-5543658Y-38597521D01*
X-5543662Y-38597522D01*
X-5650745Y-38647456D01*
X-5757827Y-38697389D01*
X-5757829Y-38697390D01*
X-5951401Y-38832930D01*
X-6118490Y-39000019D01*
X-6118492Y-39000022D01*
X-6118494Y-39000024D01*
X-6139720Y-39030338D01*
X-6184424Y-39094182D01*
X-6239001Y-39137806D01*
X-6308500Y-39144999D01*
X-6370854Y-39113477D01*
X-6406268Y-39053247D01*
X-6409999Y-39023058D01*
X-6409999Y-33171434D01*
X-6412408Y-33073170D01*
X-6412408Y-33073167D01*
X-6450748Y-32880438D01*
X-6450750Y-32880431D01*
X-6525948Y-32698894D01*
X-6635123Y-32535501D01*
X-6774075Y-32396549D01*
X-6937468Y-32287374D01*
X-7119005Y-32212176D01*
X-7119012Y-32212174D01*
X-7169279Y-32202174D01*
X-7199732Y-32196116D01*
X-7261643Y-32163731D01*
X-7296216Y-32103014D01*
X-7292475Y-32033245D01*
X-7251608Y-31976574D01*
X-7186589Y-31950993D01*
X-7175539Y-31950500D01*
X-6809411Y-31950500D01*
X-6742372Y-31970185D01*
G37*
%TD.AperFunction*%
%TA.AperFunction,Conductor*%
G36*
X-2541052Y-29515400D02*
G01*
X-2532837Y-29522907D01*
X-1625294Y-30430452D01*
X-1553620Y-30478342D01*
X-1502373Y-30512584D01*
X-1438277Y-30539132D01*
X-1398055Y-30566008D01*
X-1074932Y-30889132D01*
X-781500Y-31182564D01*
X-748015Y-31243887D01*
X-745181Y-31270245D01*
X-745181Y-31311200D01*
X-764866Y-31378239D01*
X-817670Y-31423994D01*
X-869181Y-31435200D01*
X-1710382Y-31435200D01*
X-1747248Y-31438101D01*
X-1747254Y-31438102D01*
X-1905074Y-31483954D01*
X-1905077Y-31483955D01*
X-1905078Y-31483955D01*
X-1905079Y-31483956D01*
X-1968362Y-31521381D01*
X-2046543Y-31567617D01*
X-2046551Y-31567623D01*
X-2162757Y-31683829D01*
X-2162760Y-31683833D01*
X-2162762Y-31683835D01*
X-2246425Y-31825302D01*
X-2246425Y-31825303D01*
X-2246426Y-31825306D01*
X-2290488Y-31976968D01*
X-2292279Y-31983131D01*
X-2295181Y-32020006D01*
X-2295181Y-32451394D01*
X-2292279Y-32488269D01*
X-2246425Y-32646098D01*
X-2245552Y-32647574D01*
X-2245219Y-32648883D01*
X-2243327Y-32653257D01*
X-2244032Y-32653562D01*
X-2228366Y-32715297D01*
X-2243820Y-32767929D01*
X-2243327Y-32768143D01*
X-2245057Y-32772141D01*
X-2245551Y-32773825D01*
X-2246425Y-32775302D01*
X-2292279Y-32933131D01*
X-2295181Y-32970006D01*
X-2295181Y-33401394D01*
X-2295180Y-33401401D01*
X-2292279Y-33438267D01*
X-2292278Y-33438273D01*
X-2247208Y-33593405D01*
X-2247407Y-33663274D01*
X-2285349Y-33721944D01*
X-2348987Y-33750788D01*
X-2366284Y-33752000D01*
X-2605344Y-33752000D01*
X-2672383Y-33732315D01*
X-2678229Y-33728318D01*
X-2691946Y-33718351D01*
X-2691951Y-33718348D01*
X-2864873Y-33641357D01*
X-2864877Y-33641356D01*
X-2930011Y-33627511D01*
X-2991493Y-33594318D01*
X-2991910Y-33593902D01*
X-5660362Y-30925451D01*
X-5693847Y-30864128D01*
X-5696681Y-30837770D01*
X-5696681Y-29832579D01*
X-5676996Y-29765540D01*
X-5624192Y-29719785D01*
X-5555034Y-29709841D01*
X-5507588Y-29727038D01*
X-5369334Y-29812314D01*
X-5202797Y-29867499D01*
X-5100009Y-29878000D01*
X-3299992Y-29877999D01*
X-3299983Y-29877998D01*
X-3299981Y-29877998D01*
X-3197203Y-29867499D01*
X-3197200Y-29867498D01*
X-3030666Y-29812314D01*
X-2881344Y-29720212D01*
X-2757288Y-29596156D01*
X-2757285Y-29596152D01*
X-2726044Y-29545503D01*
X-2674096Y-29498778D01*
X-2605133Y-29487557D01*
X-2541052Y-29515400D01*
G37*
%TD.AperFunction*%
%TA.AperFunction,Conductor*%
G36*
X-31100001Y-6000000D02*
G01*
X-18100001Y-19000000D01*
X-5924501Y-19000000D01*
X-5857462Y-19019685D01*
X-5811707Y-19072489D01*
X-5800501Y-19124000D01*
X-5800501Y-21952512D01*
X-5790000Y-22055300D01*
X-5734816Y-22221836D01*
X-5642713Y-22371157D01*
X-5518658Y-22495212D01*
X-5369337Y-22587315D01*
X-5202801Y-22642499D01*
X-5100013Y-22653000D01*
X-5100009Y-22653000D01*
X-2611230Y-22653000D01*
X-2544191Y-22672685D01*
X-2498436Y-22725489D01*
X-2488492Y-22794647D01*
X-2517517Y-22858203D01*
X-2523543Y-22864675D01*
X-2755869Y-23097000D01*
X-2827633Y-23168764D01*
X-2827635Y-23168766D01*
X-2862808Y-23221409D01*
X-2862810Y-23221412D01*
X-2909765Y-23291685D01*
X-2909766Y-23291687D01*
X-2909768Y-23291691D01*
X-2966337Y-23428262D01*
X-2966339Y-23428267D01*
X-2966339Y-23428271D01*
X-2966340Y-23428272D01*
X-2995181Y-23573259D01*
X-2995181Y-27582724D01*
X-3014866Y-27649763D01*
X-3067670Y-27695518D01*
X-3136828Y-27705462D01*
X-3158183Y-27700430D01*
X-3197197Y-27687502D01*
X-3197204Y-27687500D01*
X-3299989Y-27677000D01*
X-5100001Y-27677000D01*
X-5100018Y-27677001D01*
X-5202796Y-27687500D01*
X-5202799Y-27687501D01*
X-5369331Y-27742685D01*
X-5369334Y-27742686D01*
X-5518656Y-27834788D01*
X-5518657Y-27834789D01*
X-5638536Y-27954668D01*
X-5699859Y-27988153D01*
X-5769551Y-27983169D01*
X-5776653Y-27980266D01*
X-5920192Y-27916357D01*
X-5920197Y-27916355D01*
X-6072897Y-27883898D01*
X-6105354Y-27877000D01*
X-6294646Y-27877000D01*
X-6334001Y-27885365D01*
X-6479802Y-27916355D01*
X-6479807Y-27916357D01*
X-6652729Y-27993348D01*
X-6652734Y-27993351D01*
X-6755098Y-28067723D01*
X-6820904Y-28091203D01*
X-6888958Y-28075377D01*
X-6900866Y-28067725D01*
X-6972271Y-28015848D01*
X-7145192Y-27938857D01*
X-7145197Y-27938855D01*
X-7297897Y-27906398D01*
X-7330354Y-27899500D01*
X-7519646Y-27899500D01*
X-7559001Y-27907865D01*
X-7704802Y-27938855D01*
X-7704807Y-27938857D01*
X-7877729Y-28015848D01*
X-7877734Y-28015851D01*
X-8030870Y-28127111D01*
X-8030871Y-28127112D01*
X-8157533Y-28267784D01*
X-8252179Y-28431716D01*
X-8310674Y-28611744D01*
X-8330460Y-28800000D01*
X-8310674Y-28988256D01*
X-8252179Y-29168284D01*
X-8157533Y-29332216D01*
X-8030871Y-29472888D01*
X-7877730Y-29584151D01*
X-7704803Y-29661144D01*
X-7639667Y-29674988D01*
X-7578188Y-29708180D01*
X-7577991Y-29708375D01*
X-7233998Y-30052369D01*
X-7200515Y-30113690D01*
X-7197681Y-30140048D01*
X-7197681Y-30325500D01*
X-7217366Y-30392539D01*
X-7270170Y-30438294D01*
X-7321681Y-30449500D01*
X-12237771Y-30449500D01*
X-12304810Y-30429815D01*
X-12325452Y-30413181D01*
X-18038642Y-24699991D01*
X-13350500Y-24699991D01*
X-13350499Y-26300008D01*
X-13339999Y-26402797D01*
X-13284814Y-26569334D01*
X-13192712Y-26718656D01*
X-13068656Y-26842712D01*
X-12919334Y-26934814D01*
X-12752797Y-26989999D01*
X-12650009Y-27000500D01*
X-11349992Y-27000499D01*
X-11349983Y-27000498D01*
X-11349981Y-27000498D01*
X-11247203Y-26989999D01*
X-11247200Y-26989998D01*
X-11080666Y-26934814D01*
X-10931344Y-26842712D01*
X-10807288Y-26718656D01*
X-10715186Y-26569334D01*
X-10660001Y-26402797D01*
X-10660001Y-26402795D01*
X-10660000Y-26402795D01*
X-10649500Y-26300016D01*
X-10649500Y-24699998D01*
X-10649501Y-24699981D01*
X-10660000Y-24597203D01*
X-10660001Y-24597200D01*
X-10715185Y-24430668D01*
X-10715187Y-24430663D01*
X-10807289Y-24281342D01*
X-10931342Y-24157289D01*
X-11080663Y-24065187D01*
X-11080668Y-24065185D01*
X-11164670Y-24037349D01*
X-11247203Y-24010001D01*
X-11247204Y-24010000D01*
X-11349989Y-23999500D01*
X-12650001Y-23999500D01*
X-12650018Y-23999501D01*
X-12752796Y-24010000D01*
X-12752799Y-24010001D01*
X-12919331Y-24065185D01*
X-12919334Y-24065186D01*
X-13068656Y-24157288D01*
X-13192712Y-24281344D01*
X-13284814Y-24430666D01*
X-13339999Y-24597203D01*
X-13350500Y-24699991D01*
X-18038642Y-24699991D01*
X-36613181Y-6125451D01*
X-36646666Y-6064128D01*
X-36649500Y-6037770D01*
X-36649500Y0D01*
X-31100001Y0D01*
X-31100001Y-6000000D01*
G37*
%TD.AperFunction*%
%TD*%
%TA.AperFunction,Conductor*%
%TO.N,GND*%
G36*
X-38168856Y20328538D02*
G01*
X-38166090Y20328470D01*
X-38083082Y20326455D01*
X-38061975Y20324124D01*
X-37892202Y20290461D01*
X-37869005Y20283447D01*
X-37710433Y20217989D01*
X-37689044Y20206598D01*
X-37549628Y20113808D01*
X-37546223Y20111542D01*
X-37527459Y20096209D01*
X-37404781Y19974121D01*
X-37391069Y19957909D01*
X-37351674Y19902297D01*
X-37341328Y19887692D01*
X-37339880Y19885602D01*
X-36966134Y19334275D01*
X-36188779Y18249360D01*
X-35379595Y17187975D01*
X-34539291Y16151051D01*
X-34313022Y15888175D01*
X-33668606Y15139499D01*
X-32922669Y14323147D01*
X-32768311Y14154218D01*
X-31839193Y13196065D01*
X-30882069Y12265885D01*
X-29978504Y11438420D01*
X-29897773Y11364488D01*
X-28887186Y10492682D01*
X-27851204Y9651237D01*
X-26790749Y8840903D01*
X-26790723Y8840884D01*
X-26790720Y8840882D01*
X-25706667Y8062326D01*
X-25706645Y8062311D01*
X-25706642Y8062309D01*
X-25594520Y7986721D01*
X-24600004Y7316260D01*
X-23471703Y6603338D01*
X-22322758Y5924189D01*
X-21154178Y5279410D01*
X-19966991Y4669568D01*
X-19966982Y4669564D01*
X-19966969Y4669557D01*
X-18762231Y4095193D01*
X-17541016Y3556819D01*
X-16768066Y3243097D01*
X-16347864Y3072547D01*
X-16304296Y3054864D01*
X-15053282Y2589822D01*
X-13789041Y2162086D01*
X-12512650Y1772021D01*
X-11567594Y1513594D01*
X-11225245Y1419978D01*
X-11225239Y1419976D01*
X-11225237Y1419976D01*
X-9927966Y1106264D01*
X-8621992Y831168D01*
X-8621979Y831165D01*
X-8621976Y831165D01*
X-8125695Y741906D01*
X-7308381Y594909D01*
X-5988366Y397712D01*
X-4725001Y247128D01*
X-4660762Y219648D01*
X-4621579Y161800D01*
X-4619890Y91950D01*
X-4656234Y32277D01*
X-4719069Y1724D01*
X-4739677Y0D01*
X-36649500Y0D01*
X-36649500Y9073920D01*
X-36649499Y9073920D01*
X-36678340Y9218907D01*
X-36678343Y9218917D01*
X-36734912Y9355488D01*
X-36734919Y9355501D01*
X-36817047Y9478414D01*
X-36817049Y9478416D01*
X-36921584Y9582951D01*
X-39186451Y11847819D01*
X-39219936Y11909142D01*
X-39214952Y11978834D01*
X-39173080Y12034767D01*
X-39107616Y12059184D01*
X-39098770Y12059500D01*
X-38325166Y12059500D01*
X-38222361Y12070003D01*
X-38055782Y12125202D01*
X-38055777Y12125204D01*
X-37906417Y12217331D01*
X-37782331Y12341417D01*
X-37690204Y12490777D01*
X-37690202Y12490782D01*
X-37635003Y12657361D01*
X-37624500Y12760166D01*
X-37624500Y14159833D01*
X-37635003Y14262638D01*
X-37690202Y14429217D01*
X-37690204Y14429222D01*
X-37782331Y14578582D01*
X-37906417Y14702668D01*
X-37906419Y14702670D01*
X-38055780Y14794797D01*
X-38166834Y14831596D01*
X-38222361Y14849996D01*
X-38259236Y14853763D01*
X-38325174Y14860500D01*
X-38325178Y14860500D01*
X-39500500Y14860500D01*
X-39567539Y14880185D01*
X-39613294Y14932989D01*
X-39624500Y14984500D01*
X-39624500Y16827769D01*
X-39604815Y16894808D01*
X-39588181Y16915450D01*
X-39377362Y17126268D01*
X-39316039Y17159753D01*
X-39269272Y17160896D01*
X-39141049Y17139500D01*
X-38908952Y17139500D01*
X-38908951Y17139500D01*
X-38846004Y17150004D01*
X-38680015Y17177702D01*
X-38460504Y17253061D01*
X-38460495Y17253064D01*
X-38256371Y17363531D01*
X-38256365Y17363535D01*
X-38073222Y17506081D01*
X-38073219Y17506084D01*
X-37916016Y17676852D01*
X-37789075Y17871151D01*
X-37695842Y18083699D01*
X-37638866Y18308691D01*
X-37638864Y18308702D01*
X-37619700Y18539993D01*
X-37619700Y18540006D01*
X-37638864Y18771297D01*
X-37638866Y18771308D01*
X-37695842Y18996300D01*
X-37789075Y19208848D01*
X-37916016Y19403147D01*
X-37916019Y19403151D01*
X-37916021Y19403153D01*
X-38073216Y19573913D01*
X-38116529Y19607625D01*
X-38256365Y19716464D01*
X-38256371Y19716468D01*
X-38256372Y19716468D01*
X-38256374Y19716470D01*
X-38460497Y19826936D01*
X-38574487Y19866068D01*
X-38680015Y19902297D01*
X-38680017Y19902297D01*
X-38680019Y19902298D01*
X-38908951Y19940500D01*
X-39141049Y19940500D01*
X-39369981Y19902298D01*
X-39589503Y19826936D01*
X-39793626Y19716470D01*
X-39976784Y19573913D01*
X-40133979Y19403153D01*
X-40260924Y19208849D01*
X-40260924Y19208848D01*
X-40354157Y18996300D01*
X-40411133Y18771308D01*
X-40411135Y18771297D01*
X-40430300Y18540006D01*
X-40430300Y18539993D01*
X-40411135Y18308702D01*
X-40411134Y18308695D01*
X-40409545Y18302421D01*
X-40412168Y18232600D01*
X-40442067Y18184299D01*
X-40709485Y17916882D01*
X-40788320Y17838047D01*
X-40849643Y17804562D01*
X-40919335Y17809546D01*
X-40975268Y17851418D01*
X-40999685Y17916882D01*
X-41000001Y17925728D01*
X-41000001Y19327139D01*
X-40999969Y19329971D01*
X-40998002Y19416066D01*
X-40995652Y19437421D01*
X-40961801Y19607631D01*
X-40954745Y19630894D01*
X-40888884Y19789907D01*
X-40877425Y19811347D01*
X-40781803Y19954459D01*
X-40766382Y19973250D01*
X-40644676Y20094957D01*
X-40625883Y20110379D01*
X-40482776Y20205997D01*
X-40461337Y20217456D01*
X-40302320Y20283319D01*
X-40279057Y20290375D01*
X-40108848Y20324226D01*
X-40087493Y20326576D01*
X-40001399Y20328543D01*
X-39998567Y20328575D01*
X-38171865Y20328575D01*
X-38168856Y20328538D01*
G37*
%TD.AperFunction*%
%TA.AperFunction,Conductor*%
G36*
X40001397Y20328543D02*
G01*
X40001617Y20328538D01*
X40087495Y20326572D01*
X40108848Y20324221D01*
X40279048Y20290366D01*
X40302311Y20283310D01*
X40461325Y20217443D01*
X40482761Y20205984D01*
X40625867Y20110362D01*
X40644655Y20094943D01*
X40766359Y19973235D01*
X40781779Y19954444D01*
X40877394Y19811342D01*
X40888853Y19789904D01*
X40954716Y19630888D01*
X40961772Y19607625D01*
X40995627Y19437403D01*
X40997976Y19416082D01*
X40999967Y19330003D01*
X41000000Y19327136D01*
X41000000Y9028586D01*
X41002411Y8930323D01*
X41002411Y8930318D01*
X41040751Y8737594D01*
X41040752Y8737590D01*
X41115954Y8556046D01*
X41225127Y8392662D01*
X41364085Y8253709D01*
X41364086Y8253708D01*
X41527471Y8144541D01*
X41527473Y8144540D01*
X41709013Y8069345D01*
X41709021Y8069342D01*
X41901735Y8031009D01*
X41901746Y8031008D01*
X41901748Y8031008D01*
X42000001Y8028575D01*
X42199116Y8028575D01*
X42200854Y8028563D01*
X42204288Y8028514D01*
X42373478Y8026141D01*
X42385623Y8025373D01*
X42729514Y7986622D01*
X42743223Y7984293D01*
X43079778Y7907473D01*
X43093140Y7903623D01*
X43418963Y7789608D01*
X43431810Y7784287D01*
X43742837Y7634501D01*
X43755007Y7627774D01*
X44047293Y7444116D01*
X44058634Y7436069D01*
X44328521Y7220837D01*
X44338889Y7211572D01*
X44582987Y6967471D01*
X44592253Y6957102D01*
X44807482Y6687210D01*
X44815528Y6675870D01*
X44999189Y6383573D01*
X45005915Y6371402D01*
X45155688Y6060392D01*
X45161010Y6047545D01*
X45275026Y5721704D01*
X45278875Y5708342D01*
X45355688Y5371797D01*
X45358017Y5358089D01*
X45396668Y5015058D01*
X45397448Y5001174D01*
X45397448Y4655965D01*
X45396668Y4642081D01*
X45358017Y4299050D01*
X45355688Y4285342D01*
X45278875Y3948797D01*
X45275026Y3935435D01*
X45161010Y3609594D01*
X45155688Y3596747D01*
X45005915Y3285737D01*
X44999189Y3273566D01*
X44815528Y2981269D01*
X44807482Y2969929D01*
X44592253Y2700037D01*
X44582987Y2689668D01*
X44338889Y2445567D01*
X44328521Y2436302D01*
X44058628Y2221065D01*
X44047300Y2213028D01*
X43793181Y2053352D01*
X43755007Y2029365D01*
X43742837Y2022638D01*
X43431810Y1872852D01*
X43418965Y1867532D01*
X43093127Y1753512D01*
X43079791Y1749670D01*
X42743210Y1672843D01*
X42729527Y1670519D01*
X42385609Y1631765D01*
X42373489Y1630999D01*
X42200859Y1628587D01*
X42199127Y1628575D01*
X42000001Y1628575D01*
X41831653Y1626302D01*
X41497073Y1588604D01*
X41168818Y1513682D01*
X41168811Y1513679D01*
X41168806Y1513678D01*
X40956950Y1439545D01*
X40851016Y1402477D01*
X40547664Y1256390D01*
X40547657Y1256386D01*
X40547652Y1256383D01*
X40262578Y1077257D01*
X39999336Y867328D01*
X39761261Y629252D01*
X39761257Y629247D01*
X39761256Y629246D01*
X39761207Y629184D01*
X39551341Y366019D01*
X39551333Y366007D01*
X39551331Y366005D01*
X39440672Y189890D01*
X39372195Y80909D01*
X39333232Y0D01*
X38125500Y0D01*
X38125500Y4707286D01*
X40349501Y4707286D01*
X40381162Y4466789D01*
X40443948Y4232470D01*
X40536774Y4008369D01*
X40536778Y4008360D01*
X40641818Y3826426D01*
X40658053Y3798306D01*
X40658068Y3798281D01*
X40805734Y3605838D01*
X40805740Y3605831D01*
X40977257Y3434314D01*
X40977264Y3434308D01*
X41169707Y3286642D01*
X41379786Y3165352D01*
X41379795Y3165348D01*
X41603896Y3072522D01*
X41838215Y3009736D01*
X42078712Y2978075D01*
X42078713Y2978075D01*
X42321290Y2978075D01*
X42561786Y3009736D01*
X42561880Y3009761D01*
X42796101Y3072521D01*
X42796105Y3072522D01*
X43020206Y3165348D01*
X43020215Y3165352D01*
X43058662Y3187549D01*
X43230290Y3286639D01*
X43230323Y3286664D01*
X43422737Y3434308D01*
X43422744Y3434314D01*
X43594261Y3605831D01*
X43594267Y3605838D01*
X43741933Y3798281D01*
X43741937Y3798286D01*
X43863225Y4008363D01*
X43956055Y4232475D01*
X44018839Y4466786D01*
X44050501Y4707287D01*
X44050501Y4949863D01*
X44018839Y5190364D01*
X43956055Y5424675D01*
X43863225Y5648787D01*
X43741937Y5858864D01*
X43594266Y6051313D01*
X43422739Y6222840D01*
X43230290Y6370511D01*
X43020213Y6491799D01*
X42796101Y6584629D01*
X42561790Y6647413D01*
X42345057Y6675946D01*
X42321290Y6679075D01*
X42321289Y6679075D01*
X42078713Y6679075D01*
X42078712Y6679075D01*
X42054945Y6675946D01*
X41838212Y6647413D01*
X41603901Y6584629D01*
X41379789Y6491799D01*
X41169712Y6370511D01*
X41169707Y6370507D01*
X40977264Y6222841D01*
X40977257Y6222835D01*
X40805740Y6051318D01*
X40805734Y6051311D01*
X40658087Y5858893D01*
X40658065Y5858864D01*
X40578902Y5721750D01*
X40536778Y5648789D01*
X40536774Y5648780D01*
X40443948Y5424679D01*
X40381162Y5190360D01*
X40349501Y4949863D01*
X40349501Y4707286D01*
X38125500Y4707286D01*
X38125500Y7065677D01*
X38142113Y7127677D01*
X38202178Y7231714D01*
X38229649Y7316260D01*
X38260674Y7411744D01*
X38280460Y7600000D01*
X38260674Y7788256D01*
X38202179Y7968284D01*
X38107533Y8132216D01*
X37980871Y8272888D01*
X37827730Y8384151D01*
X37654803Y8461144D01*
X37469646Y8500500D01*
X37399500Y8500500D01*
X37332461Y8520185D01*
X37286706Y8572989D01*
X37275500Y8624500D01*
X37275500Y10597770D01*
X37295185Y10664809D01*
X37311819Y10685451D01*
X38672636Y12046268D01*
X38733959Y12079753D01*
X38780726Y12080896D01*
X38908951Y12059500D01*
X39141048Y12059500D01*
X39141049Y12059500D01*
X39203996Y12070004D01*
X39369984Y12097702D01*
X39589495Y12173061D01*
X39589504Y12173064D01*
X39793628Y12283531D01*
X39793634Y12283535D01*
X39976777Y12426081D01*
X39976780Y12426084D01*
X39976784Y12426087D01*
X40133979Y12596847D01*
X40133980Y12596849D01*
X40133983Y12596852D01*
X40260924Y12791151D01*
X40354157Y13003699D01*
X40411133Y13228691D01*
X40411135Y13228702D01*
X40430300Y13459993D01*
X40430300Y13460006D01*
X40411135Y13691297D01*
X40411133Y13691308D01*
X40354157Y13916300D01*
X40260924Y14128848D01*
X40260924Y14128849D01*
X40133979Y14323153D01*
X39976784Y14493913D01*
X39793626Y14636470D01*
X39589503Y14746936D01*
X39369981Y14822298D01*
X39141049Y14860500D01*
X38908951Y14860500D01*
X38680019Y14822298D01*
X38680017Y14822297D01*
X38680015Y14822297D01*
X38574487Y14786068D01*
X38460497Y14746936D01*
X38256374Y14636470D01*
X38256372Y14636468D01*
X38256371Y14636468D01*
X38256365Y14636464D01*
X38073222Y14493918D01*
X38073216Y14493913D01*
X37916021Y14323153D01*
X37916019Y14323151D01*
X37916016Y14323147D01*
X37789075Y14128848D01*
X37695842Y13916300D01*
X37638866Y13691308D01*
X37638864Y13691297D01*
X37619700Y13460006D01*
X37619700Y13459993D01*
X37638865Y13228697D01*
X37640456Y13222415D01*
X37637828Y13152595D01*
X37607930Y13104298D01*
X35942052Y11438421D01*
X35942051Y11438420D01*
X35892814Y11364730D01*
X35892813Y11364729D01*
X35859914Y11315492D01*
X35803343Y11178917D01*
X35803340Y11178907D01*
X35774500Y11033920D01*
X35774500Y0D01*
X4739677Y0D01*
X4672638Y19685D01*
X4626883Y72489D01*
X4616939Y141647D01*
X4645964Y205203D01*
X4704742Y242977D01*
X4725001Y247128D01*
X5988366Y397712D01*
X7308381Y594909D01*
X8125695Y741906D01*
X8621976Y831165D01*
X8621979Y831165D01*
X8621992Y831168D01*
X9927966Y1106264D01*
X11225237Y1419976D01*
X11225239Y1419976D01*
X11225245Y1419978D01*
X11567594Y1513594D01*
X12512650Y1772021D01*
X13789041Y2162086D01*
X15053282Y2589822D01*
X16304296Y3054864D01*
X16347864Y3072547D01*
X16768066Y3243097D01*
X17541016Y3556819D01*
X18762231Y4095193D01*
X19966969Y4669557D01*
X19966982Y4669564D01*
X19966991Y4669568D01*
X21154178Y5279410D01*
X22322758Y5924189D01*
X23471703Y6603338D01*
X24600004Y7316260D01*
X25594520Y7986721D01*
X25706642Y8062309D01*
X25706645Y8062311D01*
X25706667Y8062326D01*
X26790720Y8840882D01*
X26790723Y8840884D01*
X26790749Y8840903D01*
X27851204Y9651237D01*
X28887186Y10492682D01*
X29897773Y11364488D01*
X29978504Y11438420D01*
X30882069Y12265885D01*
X31839193Y13196065D01*
X32768311Y14154218D01*
X32922669Y14323147D01*
X33668606Y15139499D01*
X34313022Y15888175D01*
X34539291Y16151051D01*
X35379595Y17187975D01*
X35876816Y17840166D01*
X37624500Y17840166D01*
X37635003Y17737361D01*
X37690202Y17570782D01*
X37690204Y17570777D01*
X37782331Y17421417D01*
X37906417Y17297331D01*
X38055777Y17205204D01*
X38055782Y17205202D01*
X38222361Y17150003D01*
X38325166Y17139500D01*
X38325174Y17139500D01*
X39724833Y17139500D01*
X39827638Y17150003D01*
X39994217Y17205202D01*
X39994220Y17205203D01*
X40143581Y17297330D01*
X40267670Y17421419D01*
X40359797Y17570780D01*
X40414996Y17737362D01*
X40425500Y17840174D01*
X40425500Y19239826D01*
X40414996Y19342638D01*
X40359797Y19509220D01*
X40267670Y19658581D01*
X40143581Y19782670D01*
X39994220Y19874797D01*
X39827638Y19929996D01*
X39724826Y19940500D01*
X38325174Y19940500D01*
X38259236Y19933763D01*
X38222361Y19929996D01*
X38166834Y19911596D01*
X38055780Y19874797D01*
X37906419Y19782670D01*
X37782330Y19658581D01*
X37765249Y19630888D01*
X37690204Y19509222D01*
X37690202Y19509217D01*
X37635003Y19342638D01*
X37624500Y19239833D01*
X37624500Y17840166D01*
X35876816Y17840166D01*
X36188779Y18249360D01*
X36966134Y19334275D01*
X37339909Y19885646D01*
X37341297Y19887650D01*
X37391550Y19958708D01*
X37405514Y19975193D01*
X37529824Y20098365D01*
X37548849Y20113808D01*
X37693721Y20209318D01*
X37715411Y20220718D01*
X37876243Y20285878D01*
X37899753Y20292790D01*
X38071690Y20325321D01*
X38093194Y20327473D01*
X38180643Y20328565D01*
X38182191Y20328575D01*
X39998561Y20328575D01*
X40001397Y20328543D01*
G37*
%TD.AperFunction*%
%TD*%
%TA.AperFunction,Conductor*%
%TO.N,VDD*%
G36*
X4100903Y-19685D02*
G01*
X4146658Y-72489D01*
X4152841Y-89065D01*
X4167063Y-137501D01*
X4167066Y-137507D01*
X4244848Y-258537D01*
X4244856Y-258548D01*
X4290600Y-311340D01*
X4290603Y-311343D01*
X4290607Y-311347D01*
X4399341Y-405567D01*
X4399344Y-405568D01*
X4399345Y-405569D01*
X4436054Y-422334D01*
X4530218Y-465338D01*
X4597257Y-485023D01*
X4597261Y-485024D01*
X4739677Y-505500D01*
X30470499Y-505500D01*
X30537538Y-525185D01*
X30583293Y-577989D01*
X30594499Y-629500D01*
X30594499Y-11676839D01*
X30594820Y-11694821D01*
X30595139Y-11703737D01*
X30596103Y-11721723D01*
X30596105Y-11721738D01*
X30626686Y-11862314D01*
X30626688Y-11862321D01*
X30641847Y-11902965D01*
X30651105Y-11927786D01*
X30651107Y-11927790D01*
X30720056Y-12054060D01*
X30720057Y-12054061D01*
X30783408Y-12117415D01*
X30816892Y-12178739D01*
X30811906Y-12248430D01*
X30783406Y-12292775D01*
X13927301Y-29148881D01*
X13865978Y-29182366D01*
X13839620Y-29185200D01*
X11329499Y-29185200D01*
X11262460Y-29165515D01*
X11216705Y-29112711D01*
X11205499Y-29061200D01*
X11205499Y-26038963D01*
X11205499Y-26038957D01*
X11199275Y-25959877D01*
X11193206Y-25921560D01*
X11177504Y-25856160D01*
X11175610Y-25846641D01*
X11156525Y-25726134D01*
X11155000Y-25706749D01*
X11155000Y-25293249D01*
X11156527Y-25273852D01*
X11175608Y-25153376D01*
X11177507Y-25143825D01*
X11193206Y-25078438D01*
X11199275Y-25040120D01*
X11205499Y-24961042D01*
X11205499Y-22924000D01*
X11193946Y-22816544D01*
X11182740Y-22765033D01*
X11182636Y-22764722D01*
X11148615Y-22662502D01*
X11148612Y-22662496D01*
X11070827Y-22541462D01*
X11070824Y-22541457D01*
X11070819Y-22541451D01*
X11025075Y-22488659D01*
X11025071Y-22488656D01*
X11025069Y-22488653D01*
X10916335Y-22394433D01*
X10916332Y-22394431D01*
X10916330Y-22394430D01*
X10785464Y-22334664D01*
X10785459Y-22334662D01*
X10785458Y-22334662D01*
X10718419Y-22314977D01*
X10718421Y-22314977D01*
X10718416Y-22314976D01*
X10670943Y-22308150D01*
X10575999Y-22294500D01*
X10575997Y-22294500D01*
X2922275Y-22294500D01*
X2855236Y-22274815D01*
X2809481Y-22222011D01*
X2799537Y-22152853D01*
X2812920Y-22112040D01*
X2815076Y-22108005D01*
X2815083Y-22107995D01*
X2871657Y-21971413D01*
X2900499Y-21826418D01*
X2900499Y-19384729D01*
X2920184Y-19317690D01*
X2936813Y-19297053D01*
X4124548Y-18109317D01*
X4185871Y-18075833D01*
X4212229Y-18072999D01*
X5100002Y-18072999D01*
X5100008Y-18072999D01*
X5202797Y-18062499D01*
X5369334Y-18007314D01*
X5518656Y-17915212D01*
X5642712Y-17791156D01*
X5734814Y-17641834D01*
X5789999Y-17475297D01*
X5800500Y-17372509D01*
X5800499Y-16572492D01*
X5789999Y-16469703D01*
X5734814Y-16303166D01*
X5642712Y-16153844D01*
X5518656Y-16029788D01*
X5369334Y-15937686D01*
X5202797Y-15882501D01*
X5202795Y-15882500D01*
X5100010Y-15872000D01*
X3299998Y-15872000D01*
X3299981Y-15872001D01*
X3197203Y-15882500D01*
X3197200Y-15882501D01*
X3030668Y-15937685D01*
X3030663Y-15937687D01*
X2881342Y-16029789D01*
X2757289Y-16153842D01*
X2665187Y-16303163D01*
X2665185Y-16303168D01*
X2637349Y-16387170D01*
X2610001Y-16469703D01*
X2610001Y-16469704D01*
X2610000Y-16469704D01*
X2599500Y-16572483D01*
X2599500Y-17372501D01*
X2599501Y-17372519D01*
X2606407Y-17440119D01*
X2593637Y-17508812D01*
X2570730Y-17540401D01*
X1812180Y-18298951D01*
X1750857Y-18332436D01*
X1681165Y-18327452D01*
X1625232Y-18285580D01*
X1600815Y-18220116D01*
X1600499Y-18211270D01*
X1600499Y-16552498D01*
X1600498Y-16552488D01*
X1589999Y-16449703D01*
X1542850Y-16307416D01*
X1534814Y-16283164D01*
X1442711Y-16133843D01*
X1318656Y-16009788D01*
X1318652Y-16009785D01*
X1169343Y-15917689D01*
X1169337Y-15917686D01*
X1169335Y-15917685D01*
X1063153Y-15882500D01*
X1002800Y-15862501D01*
X900018Y-15852000D01*
X900011Y-15852000D01*
X-5100013Y-15852000D01*
X-5100020Y-15852000D01*
X-5202802Y-15862501D01*
X-5263155Y-15882500D01*
X-5369337Y-15917685D01*
X-5369339Y-15917686D01*
X-5369345Y-15917689D01*
X-5518654Y-16009785D01*
X-5518658Y-16009788D01*
X-5642712Y-16133842D01*
X-5642715Y-16133846D01*
X-5734811Y-16283155D01*
X-5734812Y-16283158D01*
X-5734816Y-16283164D01*
X-5790000Y-16449700D01*
X-5800500Y-16552480D01*
X-5800501Y-16552493D01*
X-5800501Y-18370500D01*
X-5820186Y-18437539D01*
X-5872990Y-18483294D01*
X-5924501Y-18494500D01*
X-17839255Y-18494500D01*
X-17906294Y-18474815D01*
X-17926936Y-18458181D01*
X-30558182Y-5826935D01*
X-30591667Y-5765612D01*
X-30594501Y-5739254D01*
X-30594501Y-3249999D01*
X-10500000Y-3249999D01*
X-10497751Y-3348269D01*
X-10459408Y-3541032D01*
X-10384196Y-3722611D01*
X-10275004Y-3886028D01*
X-10136029Y-4025003D01*
X-9972612Y-4134195D01*
X-9972605Y-4134197D01*
X-9972605Y-4134198D01*
X-9931467Y-4151237D01*
X-9791033Y-4209407D01*
X-9598270Y-4247750D01*
X-9500000Y-4249999D01*
X-2750000Y-4250000D01*
X-2651730Y-4247751D01*
X-2458967Y-4209408D01*
X-2458960Y-4209405D01*
X-2277394Y-4134199D01*
X-2277381Y-4134192D01*
X-2113971Y-4025004D01*
X-2113967Y-4025001D01*
X-1974998Y-3886032D01*
X-1974995Y-3886028D01*
X-1865807Y-3722618D01*
X-1865800Y-3722605D01*
X-1790593Y-3541037D01*
X-1790590Y-3541025D01*
X-1752250Y-3348276D01*
X-1752249Y-3348274D01*
X-1752249Y-3348270D01*
X-1750000Y-3250000D01*
X-1750000Y-2250001D01*
X-1752249Y-2151731D01*
X-1752250Y-2151724D01*
X-1790590Y-1958975D01*
X-1790593Y-1958963D01*
X-1865800Y-1777395D01*
X-1865807Y-1777382D01*
X-1974995Y-1613972D01*
X-1974998Y-1613968D01*
X-2113967Y-1474999D01*
X-2113971Y-1474996D01*
X-2277381Y-1365808D01*
X-2277394Y-1365801D01*
X-2458962Y-1290594D01*
X-2458974Y-1290591D01*
X-2651723Y-1252251D01*
X-2651725Y-1252250D01*
X-2651730Y-1252250D01*
X-2712457Y-1250860D01*
X-2750021Y-1250000D01*
X-9499979Y-1250000D01*
X-9500000Y-1250000D01*
X-9598270Y-1252249D01*
X-9598274Y-1252249D01*
X-9598276Y-1252250D01*
X-9791025Y-1290590D01*
X-9791037Y-1290593D01*
X-9972605Y-1365800D01*
X-9972618Y-1365807D01*
X-10136028Y-1474995D01*
X-10136032Y-1474998D01*
X-10275001Y-1613967D01*
X-10275004Y-1613971D01*
X-10384192Y-1777381D01*
X-10384199Y-1777394D01*
X-10384199Y-1777395D01*
X-10459408Y-1958967D01*
X-10497751Y-2151730D01*
X-10500000Y-2250000D01*
X-10500000Y-3249999D01*
X-30594501Y-3249999D01*
X-30594501Y-629500D01*
X-30574816Y-562461D01*
X-30522012Y-516706D01*
X-30470501Y-505500D01*
X-4739677Y-505500D01*
X-4697536Y-503740D01*
X-4676928Y-502016D01*
X-4635052Y-496745D01*
X-4498020Y-452883D01*
X-4469800Y-439161D01*
X-4435192Y-422334D01*
X-4435175Y-422324D01*
X-4316076Y-341652D01*
X-4316072Y-341648D01*
X-4224508Y-230673D01*
X-4224505Y-230670D01*
X-4188165Y-171003D01*
X-4188154Y-170984D01*
X-4188153Y-170982D01*
X-4147191Y-75229D01*
X-4102726Y-21335D01*
X-4036182Y-36D01*
X-4033185Y0D01*
X4033864Y0D01*
X4100903Y-19685D01*
G37*
%TD.AperFunction*%
%TD*%
%TA.AperFunction,Conductor*%
%TO.N,Net-(J3-Pin_1)*%
G36*
X10643038Y-22819685D02*
G01*
X10688793Y-22872489D01*
X10699999Y-22924000D01*
X10699999Y-24961042D01*
X10693930Y-24999360D01*
X10682754Y-25033755D01*
X10649500Y-25243713D01*
X10649500Y-25756286D01*
X10682753Y-25966240D01*
X10682754Y-25966244D01*
X10693930Y-26000640D01*
X10699999Y-26038957D01*
X10699999Y-29061200D01*
X10680314Y-29128239D01*
X10627510Y-29173994D01*
X10575999Y-29185200D01*
X7139337Y-29185200D01*
X7072298Y-29165515D01*
X7066452Y-29161518D01*
X7052734Y-29151551D01*
X7052729Y-29151548D01*
X6879807Y-29074557D01*
X6879802Y-29074555D01*
X6734001Y-29043565D01*
X6694646Y-29035200D01*
X6505354Y-29035200D01*
X6472897Y-29042098D01*
X6320197Y-29074555D01*
X6320192Y-29074557D01*
X6147270Y-29151548D01*
X6147265Y-29151551D01*
X5994129Y-29262811D01*
X5867466Y-29403485D01*
X5769572Y-29573044D01*
X5767445Y-29571816D01*
X5729369Y-29616610D01*
X5662519Y-29636929D01*
X5661343Y-29636935D01*
X5505353Y-29636935D01*
X5472896Y-29643833D01*
X5320196Y-29676290D01*
X5320191Y-29676292D01*
X5147269Y-29753283D01*
X5147264Y-29753286D01*
X5135935Y-29761518D01*
X5070129Y-29784998D01*
X5063050Y-29785200D01*
X2623999Y-29785200D01*
X2556960Y-29765515D01*
X2511205Y-29712711D01*
X2499999Y-29661200D01*
X2499999Y-22924000D01*
X2519684Y-22856961D01*
X2572488Y-22811206D01*
X2623999Y-22800000D01*
X10575999Y-22800000D01*
X10643038Y-22819685D01*
G37*
%TD.AperFunction*%
%TD*%
%TA.AperFunction,Conductor*%
%TO.N,GND*%
G36*
X35774500Y-3449644D02*
G01*
X35774500Y-3449646D01*
X35774499Y-3449646D01*
X35803340Y-3594633D01*
X35803343Y-3594643D01*
X35859912Y-3731214D01*
X35859918Y-3731225D01*
X35865846Y-3740096D01*
X35886726Y-3806773D01*
X35886746Y-3808990D01*
X35886746Y-7138074D01*
X35867061Y-7205113D01*
X35850427Y-7225755D01*
X31311681Y-11764501D01*
X31250358Y-11797986D01*
X31180666Y-11793002D01*
X31124733Y-11751130D01*
X31100316Y-11685666D01*
X31100000Y-11676820D01*
X31100000Y-11198646D01*
X31099999Y-11198637D01*
X31099999Y0D01*
X35774500Y0D01*
X35774500Y-3449644D01*
G37*
%TD.AperFunction*%
%TA.AperFunction,Conductor*%
G36*
X39226113Y-222437D02*
G01*
X39114912Y-540241D01*
X39114910Y-540247D01*
X39039992Y-868493D01*
X39039989Y-868511D01*
X39002297Y-1203067D01*
X39002296Y-1203082D01*
X39000001Y-1371390D01*
X39000001Y-4170918D01*
X38999996Y-4171999D01*
X38997545Y-4453166D01*
X38997234Y-4460931D01*
X38957074Y-5022444D01*
X38956128Y-5031245D01*
X38876088Y-5587936D01*
X38874516Y-5596647D01*
X38754970Y-6146193D01*
X38752781Y-6154770D01*
X38594334Y-6694396D01*
X38591539Y-6702795D01*
X38394997Y-7229745D01*
X38391609Y-7237922D01*
X38362293Y-7302115D01*
X38316540Y-7354918D01*
X38249501Y-7374603D01*
X38182461Y-7354919D01*
X38136706Y-7302115D01*
X38125500Y-7250603D01*
X38125500Y0D01*
X39333232Y0D01*
X39226113Y-222437D01*
G37*
%TD.AperFunction*%
%TD*%
M02*
