%TF.GenerationSoftware,KiCad,Pcbnew,8.0.1*%
%TF.CreationDate,2024-04-25T23:19:35+09:00*%
%TF.ProjectId,Kicker-20240411,4b69636b-6572-42d3-9230-323430343131,rev?*%
%TF.SameCoordinates,Original*%
%TF.FileFunction,Copper,L1,Top*%
%TF.FilePolarity,Positive*%
%FSLAX46Y46*%
G04 Gerber Fmt 4.6, Leading zero omitted, Abs format (unit mm)*
G04 Created by KiCad (PCBNEW 8.0.1) date 2024-04-25 23:19:35*
%MOMM*%
%LPD*%
G01*
G04 APERTURE LIST*
G04 Aperture macros list*
%AMRoundRect*
0 Rectangle with rounded corners*
0 $1 Rounding radius*
0 $2 $3 $4 $5 $6 $7 $8 $9 X,Y pos of 4 corners*
0 Add a 4 corners polygon primitive as box body*
4,1,4,$2,$3,$4,$5,$6,$7,$8,$9,$2,$3,0*
0 Add four circle primitives for the rounded corners*
1,1,$1+$1,$2,$3*
1,1,$1+$1,$4,$5*
1,1,$1+$1,$6,$7*
1,1,$1+$1,$8,$9*
0 Add four rect primitives between the rounded corners*
20,1,$1+$1,$2,$3,$4,$5,0*
20,1,$1+$1,$4,$5,$6,$7,0*
20,1,$1+$1,$6,$7,$8,$9,0*
20,1,$1+$1,$8,$9,$2,$3,0*%
%AMHorizOval*
0 Thick line with rounded ends*
0 $1 width*
0 $2 $3 position (X,Y) of the first rounded end (center of the circle)*
0 $4 $5 position (X,Y) of the second rounded end (center of the circle)*
0 Add line between two ends*
20,1,$1,$2,$3,$4,$5,0*
0 Add two circle primitives to create the rounded ends*
1,1,$1,$2,$3*
1,1,$1,$4,$5*%
%AMRotRect*
0 Rectangle, with rotation*
0 The origin of the aperture is its center*
0 $1 length*
0 $2 width*
0 $3 Rotation angle, in degrees counterclockwise*
0 Add horizontal line*
21,1,$1,$2,0,0,$3*%
G04 Aperture macros list end*
%TA.AperFunction,ComponentPad*%
%ADD10C,1.600000*%
%TD*%
%TA.AperFunction,ComponentPad*%
%ADD11RotRect,1.600000X1.600000X45.000000*%
%TD*%
%TA.AperFunction,ComponentPad*%
%ADD12C,2.400000*%
%TD*%
%TA.AperFunction,ComponentPad*%
%ADD13R,2.400000X2.400000*%
%TD*%
%TA.AperFunction,ComponentPad*%
%ADD14C,1.800000*%
%TD*%
%TA.AperFunction,ComponentPad*%
%ADD15RoundRect,0.250200X-0.649800X0.649800X-0.649800X-0.649800X0.649800X-0.649800X0.649800X0.649800X0*%
%TD*%
%TA.AperFunction,SMDPad,CuDef*%
%ADD16R,2.680000X3.600000*%
%TD*%
%TA.AperFunction,SMDPad,CuDef*%
%ADD17R,0.610000X2.000000*%
%TD*%
%TA.AperFunction,ComponentPad*%
%ADD18O,1.700000X2.000000*%
%TD*%
%TA.AperFunction,ComponentPad*%
%ADD19RoundRect,0.250000X-0.600000X-0.750000X0.600000X-0.750000X0.600000X0.750000X-0.600000X0.750000X0*%
%TD*%
%TA.AperFunction,ComponentPad*%
%ADD20HorizOval,1.700000X-0.106066X0.106066X0.106066X-0.106066X0*%
%TD*%
%TA.AperFunction,ComponentPad*%
%ADD21RoundRect,0.250000X-0.106066X0.954594X-0.954594X0.106066X0.106066X-0.954594X0.954594X-0.106066X0*%
%TD*%
%TA.AperFunction,ComponentPad*%
%ADD22C,1.700000*%
%TD*%
%TA.AperFunction,ComponentPad*%
%ADD23RoundRect,0.250200X0.649800X-0.649800X0.649800X0.649800X-0.649800X0.649800X-0.649800X-0.649800X0*%
%TD*%
%TA.AperFunction,ViaPad*%
%ADD24C,0.800000*%
%TD*%
%TA.AperFunction,Conductor*%
%ADD25C,2.750000*%
%TD*%
%TA.AperFunction,Conductor*%
%ADD26C,0.500000*%
%TD*%
%TA.AperFunction,Conductor*%
%ADD27C,0.250000*%
%TD*%
G04 APERTURE END LIST*
D10*
%TO.P,C1,2*%
%TO.N,GND*%
X120335388Y-115982233D03*
D11*
%TO.P,C1,1*%
%TO.N,VCC*%
X118567621Y-117750000D03*
%TD*%
D12*
%TO.P,C5,2*%
%TO.N,GND*%
X138987246Y-95100001D03*
D13*
%TO.P,C5,1*%
%TO.N,KickerPower*%
X131487246Y-95100001D03*
%TD*%
D12*
%TO.P,C6,2*%
%TO.N,GND*%
X76987246Y-95100000D03*
D13*
%TO.P,C6,1*%
%TO.N,KickerPower*%
X69487246Y-95100000D03*
%TD*%
D14*
%TO.P,U2,3,Vs*%
%TO.N,+3.3V*%
X143524998Y-76682894D03*
%TO.P,U2,2,GND*%
%TO.N,GND*%
X143524998Y-74142894D03*
D15*
%TO.P,U2,1,OUT*%
%TO.N,Net-(U2-OUT)*%
X143524998Y-71602894D03*
%TD*%
D16*
%TO.P,J2,MP*%
%TO.N,N/C*%
X104000000Y-119450000D03*
X94020000Y-119450000D03*
D17*
%TO.P,J2,5,Pin_5*%
%TO.N,ball01k*%
X101010000Y-116650000D03*
%TO.P,J2,4,Pin_4*%
%TO.N,GND*%
X100010000Y-116650000D03*
%TO.P,J2,3,Pin_3*%
%TO.N,+3.3V*%
X99010000Y-116650000D03*
%TO.P,J2,2,Pin_2*%
%TO.N,KickerSignal-main*%
X98010000Y-116650000D03*
%TO.P,J2,1,Pin_1*%
%TO.N,ball02k*%
X97010000Y-116650000D03*
%TD*%
D18*
%TO.P,J1,2,Pin_2*%
%TO.N,GND*%
X113060000Y-120250000D03*
D19*
%TO.P,J1,1,Pin_1*%
%TO.N,VCC*%
X110560000Y-120250000D03*
%TD*%
D20*
%TO.P,J3,2,Pin_2*%
%TO.N,Net-(J3-Pin_2)*%
X128999946Y-108211112D03*
D21*
%TO.P,J3,1,Pin_1*%
%TO.N,KickerPower*%
X130767713Y-106443345D03*
%TD*%
D22*
%TO.P,U1,4,-OUT*%
%TO.N,GND*%
X122649946Y-111961112D03*
%TO.P,U1,3,+OUT*%
%TO.N,KickerPower*%
X122649946Y-93961112D03*
%TO.P,U1,2,-IN*%
%TO.N,GND*%
X82899946Y-111961112D03*
%TO.P,U1,1,+IN*%
%TO.N,VCC*%
X83149946Y-93961112D03*
%TD*%
D14*
%TO.P,U3,3,Vs*%
%TO.N,+3.3V*%
X64474996Y-71602894D03*
%TO.P,U3,2,GND*%
%TO.N,GND*%
X64474996Y-74142894D03*
D23*
%TO.P,U3,1,OUT*%
%TO.N,Net-(U3-OUT)*%
X64474996Y-76682894D03*
%TD*%
D24*
%TO.N,GND*%
X125999946Y-97211112D03*
X125999946Y-96211112D03*
X127999946Y-97211112D03*
X127999946Y-96211112D03*
X124999946Y-96211112D03*
X126999946Y-98211112D03*
X127999946Y-98211112D03*
X87999946Y-106211112D03*
X92814645Y-111914645D03*
X125999946Y-98211112D03*
X126999946Y-97211112D03*
X87999946Y-107211112D03*
X124999946Y-97211112D03*
X126999946Y-96211112D03*
X127999946Y-99211112D03*
X89999946Y-106211112D03*
X88999946Y-106211112D03*
X100289645Y-107114645D03*
X88999946Y-107211112D03*
X126999946Y-99211112D03*
X123999946Y-96211112D03*
X89999946Y-107211112D03*
%TO.N,+3.3V*%
X67014645Y-86096017D03*
X95814645Y-111314645D03*
X91414645Y-106914645D03*
X99010000Y-118314645D03*
%TO.N,ball01k*%
X106834645Y-118494645D03*
%TO.N,KickerSignal-main*%
X97279645Y-114964645D03*
%TO.N,ball02k*%
X66214645Y-84514645D03*
%TD*%
D25*
%TO.N,VCC*%
X113900000Y-117750000D02*
X118567621Y-117750000D01*
X110560000Y-114410000D02*
X113900000Y-117750000D01*
D26*
%TO.N,+3.3V*%
X99010000Y-121520355D02*
X100014645Y-122525000D01*
D27*
%TO.N,ball01k*%
X106834645Y-118494645D02*
X104990000Y-116650000D01*
X104990000Y-116650000D02*
X101010000Y-116650000D01*
D25*
%TO.N,VCC*%
X83149946Y-97861112D02*
X83149946Y-93961112D01*
X86499946Y-101211112D02*
X83149946Y-97861112D01*
X97361112Y-101211112D02*
X86499946Y-101211112D01*
X110560000Y-114410000D02*
X97361112Y-101211112D01*
X110560000Y-120250000D02*
X110560000Y-114410000D01*
D26*
%TO.N,+3.3V*%
X95814645Y-111314645D02*
X99010000Y-114510000D01*
X118191202Y-122525000D02*
X141499946Y-99216256D01*
X95814645Y-111314645D02*
X91414645Y-106914645D01*
X141499946Y-78707946D02*
X143524998Y-76682894D01*
X99010000Y-118314645D02*
X99010000Y-121520355D01*
X82677817Y-114114645D02*
X98614645Y-114114645D01*
X99010000Y-114510000D02*
X99010000Y-116650000D01*
X141499946Y-99216256D02*
X141499946Y-78707946D01*
X99010000Y-118314645D02*
X99010000Y-116650000D01*
X67014645Y-86096017D02*
X67014645Y-98451473D01*
X100014645Y-122525000D02*
X118191202Y-122525000D01*
X67014645Y-98451473D02*
X82677817Y-114114645D01*
D27*
%TO.N,KickerSignal-main*%
X98010000Y-115695000D02*
X98010000Y-116650000D01*
X97279645Y-114964645D02*
X98010000Y-115695000D01*
%TO.N,ball02k*%
X66214645Y-84514645D02*
X66200000Y-84529290D01*
X84024695Y-116650000D02*
X97010000Y-116650000D01*
X66200000Y-98825305D02*
X84024695Y-116650000D01*
X66200000Y-84529290D02*
X66200000Y-98825305D01*
%TD*%
%TA.AperFunction,Conductor*%
%TO.N,GND*%
G36*
X67001394Y-70600033D02*
G01*
X67087489Y-70602003D01*
X67108838Y-70604352D01*
X67185925Y-70619686D01*
X67279055Y-70638210D01*
X67302315Y-70645266D01*
X67461326Y-70711130D01*
X67482762Y-70722587D01*
X67486272Y-70724933D01*
X67625873Y-70818211D01*
X67644663Y-70833632D01*
X67766365Y-70955334D01*
X67781786Y-70974124D01*
X67877408Y-71117232D01*
X67888867Y-71138670D01*
X67954734Y-71297685D01*
X67961790Y-71320947D01*
X67995645Y-71491149D01*
X67997996Y-71512508D01*
X67999963Y-71598601D01*
X67999995Y-71601433D01*
X67999995Y-75282394D01*
X67999995Y-76028933D01*
X68002238Y-76127202D01*
X68040571Y-76319965D01*
X68041125Y-76321303D01*
X68115775Y-76501543D01*
X68115777Y-76501546D01*
X68224963Y-76664961D01*
X68292897Y-76736049D01*
X72706113Y-81149265D01*
X72708191Y-81151393D01*
X72767169Y-81213270D01*
X72780415Y-81229786D01*
X72876374Y-81372967D01*
X72887793Y-81394223D01*
X72953620Y-81551897D01*
X72960706Y-81574967D01*
X72995033Y-81743847D01*
X72997465Y-81764935D01*
X72999943Y-81850004D01*
X72999996Y-81853615D01*
X72999996Y-86155719D01*
X73002687Y-86260077D01*
X73045885Y-86464242D01*
X73045890Y-86464257D01*
X73130404Y-86655055D01*
X73130409Y-86655063D01*
X73252555Y-86824198D01*
X73252589Y-86824245D01*
X73407142Y-86964481D01*
X73587373Y-87069692D01*
X73587375Y-87069692D01*
X73587380Y-87069695D01*
X73785466Y-87135320D01*
X73785473Y-87135321D01*
X73785477Y-87135323D01*
X73888884Y-87149537D01*
X74172265Y-87183762D01*
X74180021Y-87184950D01*
X74740743Y-87289113D01*
X74749471Y-87291063D01*
X75300681Y-87435340D01*
X75309242Y-87437915D01*
X75848577Y-87621647D01*
X75856930Y-87624834D01*
X76381569Y-87847060D01*
X76389658Y-87850836D01*
X76896870Y-88110398D01*
X76896872Y-88110399D01*
X76904701Y-88114770D01*
X77391817Y-88410300D01*
X77399300Y-88415219D01*
X77507868Y-88492343D01*
X77863777Y-88745174D01*
X77870895Y-88750628D01*
X78310311Y-89113287D01*
X78317016Y-89119241D01*
X78379597Y-89178998D01*
X78627742Y-89415947D01*
X78729076Y-89512708D01*
X78735328Y-89519126D01*
X79117885Y-89941354D01*
X79123650Y-89948199D01*
X79171228Y-90009022D01*
X79474694Y-90396972D01*
X79479959Y-90404230D01*
X79797632Y-90877167D01*
X79802360Y-90884786D01*
X80085316Y-91379954D01*
X80088999Y-91386902D01*
X80214606Y-91643211D01*
X80257017Y-91726835D01*
X80368088Y-91877869D01*
X80505345Y-92005575D01*
X80663986Y-92105482D01*
X80838458Y-92174095D01*
X81022657Y-92209013D01*
X81116396Y-92211112D01*
X81116400Y-92211112D01*
X81984452Y-92211112D01*
X82051491Y-92230797D01*
X82097246Y-92283601D01*
X82107190Y-92352759D01*
X82078165Y-92416315D01*
X82059939Y-92433488D01*
X81910684Y-92548015D01*
X81736849Y-92721850D01*
X81736843Y-92721857D01*
X81587182Y-92916899D01*
X81464253Y-93129817D01*
X81464249Y-93129826D01*
X81370171Y-93356949D01*
X81370168Y-93356959D01*
X81320466Y-93542453D01*
X81306538Y-93594432D01*
X81306536Y-93594443D01*
X81274446Y-93838177D01*
X81274446Y-97984032D01*
X81274447Y-97984049D01*
X81306535Y-98227787D01*
X81359799Y-98426571D01*
X81370165Y-98465258D01*
X81370168Y-98465266D01*
X81464246Y-98692392D01*
X81464252Y-98692404D01*
X81587179Y-98905320D01*
X81587181Y-98905323D01*
X81587182Y-98905324D01*
X81736843Y-99100366D01*
X81736849Y-99100373D01*
X85260681Y-102624206D01*
X85260686Y-102624210D01*
X85260689Y-102624213D01*
X85345374Y-102689193D01*
X85455738Y-102773879D01*
X85668654Y-102896806D01*
X85801708Y-102951918D01*
X85895792Y-102990890D01*
X86133269Y-103054521D01*
X86377019Y-103086612D01*
X96532893Y-103086612D01*
X96599932Y-103106297D01*
X96620574Y-103122931D01*
X108648181Y-115150538D01*
X108681666Y-115211861D01*
X108684500Y-115238219D01*
X108684500Y-120372934D01*
X108711227Y-120575939D01*
X108716591Y-120616677D01*
X108716592Y-120616679D01*
X108780222Y-120854152D01*
X108780225Y-120854162D01*
X108874303Y-121081285D01*
X108874306Y-121081292D01*
X108997233Y-121294208D01*
X108997235Y-121294211D01*
X108997236Y-121294212D01*
X109146897Y-121489254D01*
X109146903Y-121489261D01*
X109220461Y-121562819D01*
X109253946Y-121624142D01*
X109248962Y-121693834D01*
X109207090Y-121749767D01*
X109141626Y-121774184D01*
X109132780Y-121774500D01*
X105820286Y-121774500D01*
X105753247Y-121754815D01*
X105707492Y-121702011D01*
X105697548Y-121632853D01*
X105721019Y-121576189D01*
X105783796Y-121492331D01*
X105834091Y-121357483D01*
X105840500Y-121297873D01*
X105840499Y-119036507D01*
X105860184Y-118969469D01*
X105912987Y-118923714D01*
X105982146Y-118913770D01*
X106045702Y-118942795D01*
X106071886Y-118974508D01*
X106102112Y-119026861D01*
X106207140Y-119143506D01*
X106228774Y-119167533D01*
X106381910Y-119278793D01*
X106381915Y-119278796D01*
X106554837Y-119355787D01*
X106554842Y-119355789D01*
X106739999Y-119395145D01*
X106740000Y-119395145D01*
X106929289Y-119395145D01*
X106929291Y-119395145D01*
X107114448Y-119355789D01*
X107287375Y-119278796D01*
X107440516Y-119167533D01*
X107567178Y-119026861D01*
X107661824Y-118862929D01*
X107720319Y-118682901D01*
X107740105Y-118494645D01*
X107720319Y-118306389D01*
X107665757Y-118138468D01*
X107661826Y-118126367D01*
X107661825Y-118126366D01*
X107661824Y-118126361D01*
X107567178Y-117962429D01*
X107440516Y-117821757D01*
X107393967Y-117787937D01*
X107287379Y-117710496D01*
X107287374Y-117710493D01*
X107114452Y-117633502D01*
X107114447Y-117633500D01*
X106966792Y-117602116D01*
X106929291Y-117594145D01*
X106929290Y-117594145D01*
X106870097Y-117594145D01*
X106803058Y-117574460D01*
X106782416Y-117557826D01*
X105480198Y-116255608D01*
X105480178Y-116255586D01*
X105388733Y-116164141D01*
X105337509Y-116129915D01*
X105286287Y-116095689D01*
X105286286Y-116095688D01*
X105286283Y-116095686D01*
X105286280Y-116095685D01*
X105205792Y-116062347D01*
X105172453Y-116048537D01*
X105162427Y-116046543D01*
X105112029Y-116036518D01*
X105051610Y-116024500D01*
X105051607Y-116024500D01*
X105051606Y-116024500D01*
X101939499Y-116024500D01*
X101872460Y-116004815D01*
X101826705Y-115952011D01*
X101815499Y-115900500D01*
X101815499Y-115602129D01*
X101815498Y-115602123D01*
X101815497Y-115602116D01*
X101809091Y-115542517D01*
X101758796Y-115407669D01*
X101758795Y-115407668D01*
X101758793Y-115407664D01*
X101672547Y-115292455D01*
X101672544Y-115292452D01*
X101557335Y-115206206D01*
X101557328Y-115206202D01*
X101422486Y-115155910D01*
X101422485Y-115155909D01*
X101422483Y-115155909D01*
X101362873Y-115149500D01*
X101362863Y-115149500D01*
X100657129Y-115149500D01*
X100657123Y-115149501D01*
X100597516Y-115155908D01*
X100462671Y-115206202D01*
X100462664Y-115206206D01*
X100347455Y-115292452D01*
X100347452Y-115292455D01*
X100261206Y-115407664D01*
X100261202Y-115407671D01*
X100210908Y-115542517D01*
X100204501Y-115602116D01*
X100204501Y-115602123D01*
X100204500Y-115602135D01*
X100204500Y-117697870D01*
X100204501Y-117697876D01*
X100210908Y-117757483D01*
X100261202Y-117892328D01*
X100261206Y-117892335D01*
X100347452Y-118007544D01*
X100347455Y-118007547D01*
X100462664Y-118093793D01*
X100462671Y-118093797D01*
X100507618Y-118110561D01*
X100597517Y-118144091D01*
X100657127Y-118150500D01*
X101362872Y-118150499D01*
X101422483Y-118144091D01*
X101557331Y-118093796D01*
X101672546Y-118007546D01*
X101758796Y-117892331D01*
X101809091Y-117757483D01*
X101815500Y-117697873D01*
X101815500Y-117399500D01*
X101835185Y-117332461D01*
X101887989Y-117286706D01*
X101939500Y-117275500D01*
X102086906Y-117275500D01*
X102153945Y-117295185D01*
X102199700Y-117347989D01*
X102209644Y-117417147D01*
X102203088Y-117442833D01*
X102165908Y-117542517D01*
X102160358Y-117594145D01*
X102159501Y-117602123D01*
X102159500Y-117602135D01*
X102159500Y-121297870D01*
X102159501Y-121297876D01*
X102165908Y-121357483D01*
X102216202Y-121492328D01*
X102216204Y-121492331D01*
X102278980Y-121576189D01*
X102303398Y-121641652D01*
X102288547Y-121709926D01*
X102239142Y-121759331D01*
X102179714Y-121774500D01*
X100376874Y-121774500D01*
X100309835Y-121754815D01*
X100289193Y-121738181D01*
X99796819Y-121245806D01*
X99763334Y-121184483D01*
X99760500Y-121158125D01*
X99760500Y-118848966D01*
X99777113Y-118786966D01*
X99837179Y-118682929D01*
X99895674Y-118502901D01*
X99915460Y-118314645D01*
X99895674Y-118126389D01*
X99837179Y-117946361D01*
X99837176Y-117946355D01*
X99806527Y-117893269D01*
X99790054Y-117825369D01*
X99797732Y-117787937D01*
X99809091Y-117757483D01*
X99815500Y-117697873D01*
X99815499Y-115602128D01*
X99809091Y-115542517D01*
X99768318Y-115433198D01*
X99760500Y-115389865D01*
X99760500Y-114436079D01*
X99731659Y-114291092D01*
X99731658Y-114291091D01*
X99731658Y-114291087D01*
X99731656Y-114291082D01*
X99675087Y-114154511D01*
X99675080Y-114154498D01*
X99592952Y-114031585D01*
X99592951Y-114031584D01*
X99488416Y-113927049D01*
X96727415Y-111166047D01*
X96697166Y-111116686D01*
X96641824Y-110946361D01*
X96547178Y-110782429D01*
X96420516Y-110641757D01*
X96420515Y-110641756D01*
X96267379Y-110530496D01*
X96267374Y-110530493D01*
X96094452Y-110453502D01*
X96094447Y-110453500D01*
X96029314Y-110439656D01*
X95967832Y-110406463D01*
X95967414Y-110406047D01*
X92327415Y-106766047D01*
X92297166Y-106716686D01*
X92241824Y-106546361D01*
X92147178Y-106382429D01*
X92020516Y-106241757D01*
X92020515Y-106241756D01*
X91867379Y-106130496D01*
X91867374Y-106130493D01*
X91694452Y-106053502D01*
X91694447Y-106053500D01*
X91548646Y-106022510D01*
X91509291Y-106014145D01*
X91319999Y-106014145D01*
X91287542Y-106021043D01*
X91134842Y-106053500D01*
X91134837Y-106053502D01*
X90961915Y-106130493D01*
X90961910Y-106130496D01*
X90808774Y-106241756D01*
X90682111Y-106382430D01*
X90587466Y-106546360D01*
X90587463Y-106546367D01*
X90557970Y-106637139D01*
X90528971Y-106726389D01*
X90509185Y-106914645D01*
X90528971Y-107102901D01*
X90528972Y-107102904D01*
X90587463Y-107282922D01*
X90587466Y-107282929D01*
X90682112Y-107446861D01*
X90807962Y-107586631D01*
X90808774Y-107587533D01*
X90961910Y-107698793D01*
X90961915Y-107698796D01*
X91134836Y-107775787D01*
X91134838Y-107775787D01*
X91134842Y-107775789D01*
X91199974Y-107789632D01*
X91261454Y-107822823D01*
X91261873Y-107823241D01*
X94901873Y-111463240D01*
X94932123Y-111512603D01*
X94987463Y-111682922D01*
X94987466Y-111682929D01*
X95082112Y-111846861D01*
X95160442Y-111933855D01*
X95208774Y-111987533D01*
X95361910Y-112098793D01*
X95361915Y-112098796D01*
X95534836Y-112175787D01*
X95534838Y-112175787D01*
X95534842Y-112175789D01*
X95599974Y-112189632D01*
X95661454Y-112222823D01*
X95661873Y-112223241D01*
X96591096Y-113152464D01*
X96624581Y-113213787D01*
X96619597Y-113283479D01*
X96577725Y-113339412D01*
X96512261Y-113363829D01*
X96503415Y-113364145D01*
X83040046Y-113364145D01*
X82973007Y-113344460D01*
X82952365Y-113327826D01*
X67801464Y-98176924D01*
X67767979Y-98115601D01*
X67765145Y-98089243D01*
X67765145Y-96782082D01*
X67784830Y-96715043D01*
X67837634Y-96669288D01*
X67906792Y-96659344D01*
X67963455Y-96682815D01*
X68044914Y-96743795D01*
X68044917Y-96743797D01*
X68179763Y-96794091D01*
X68179762Y-96794091D01*
X68186690Y-96794835D01*
X68239373Y-96800500D01*
X70735118Y-96800499D01*
X70794729Y-96794091D01*
X70929577Y-96743796D01*
X71044792Y-96657546D01*
X71131042Y-96542331D01*
X71181337Y-96407483D01*
X71187746Y-96347873D01*
X71187745Y-93852128D01*
X71181337Y-93792517D01*
X71156417Y-93725704D01*
X71131043Y-93657671D01*
X71131039Y-93657664D01*
X71044793Y-93542455D01*
X71044790Y-93542452D01*
X70929581Y-93456206D01*
X70929574Y-93456202D01*
X70794728Y-93405908D01*
X70794729Y-93405908D01*
X70735129Y-93399501D01*
X70735127Y-93399500D01*
X70735119Y-93399500D01*
X70735110Y-93399500D01*
X68239375Y-93399500D01*
X68239369Y-93399501D01*
X68179762Y-93405908D01*
X68044917Y-93456202D01*
X68044914Y-93456204D01*
X67963456Y-93517184D01*
X67897992Y-93541601D01*
X67829719Y-93526749D01*
X67780313Y-93477344D01*
X67765145Y-93417917D01*
X67765145Y-86630338D01*
X67781758Y-86568338D01*
X67841824Y-86464301D01*
X67900319Y-86284273D01*
X67920105Y-86096017D01*
X67900319Y-85907761D01*
X67841824Y-85727733D01*
X67747178Y-85563801D01*
X67620516Y-85423129D01*
X67620515Y-85423128D01*
X67467379Y-85311868D01*
X67467374Y-85311865D01*
X67294452Y-85234874D01*
X67294447Y-85234872D01*
X67148646Y-85203882D01*
X67109291Y-85195517D01*
X67076126Y-85195517D01*
X67009087Y-85175832D01*
X66963332Y-85123028D01*
X66953388Y-85053870D01*
X66968739Y-85009518D01*
X67041821Y-84882934D01*
X67041820Y-84882934D01*
X67041824Y-84882929D01*
X67100319Y-84702901D01*
X67120105Y-84514645D01*
X67100319Y-84326389D01*
X67041824Y-84146361D01*
X66947178Y-83982429D01*
X66820516Y-83841757D01*
X66820515Y-83841756D01*
X66667379Y-83730496D01*
X66667374Y-83730493D01*
X66494452Y-83653502D01*
X66494447Y-83653500D01*
X66348646Y-83622510D01*
X66309291Y-83614145D01*
X66119999Y-83614145D01*
X66087542Y-83621043D01*
X65934842Y-83653500D01*
X65934837Y-83653502D01*
X65761915Y-83730493D01*
X65761910Y-83730496D01*
X65608774Y-83841756D01*
X65482111Y-83982430D01*
X65387466Y-84146360D01*
X65387463Y-84146367D01*
X65328972Y-84326385D01*
X65328971Y-84326389D01*
X65309185Y-84514645D01*
X65328971Y-84702901D01*
X65328972Y-84702904D01*
X65387463Y-84882922D01*
X65387466Y-84882929D01*
X65482112Y-85046861D01*
X65542649Y-85114093D01*
X65572879Y-85177084D01*
X65574500Y-85197066D01*
X65574500Y-97335322D01*
X65554815Y-97402361D01*
X65502011Y-97448116D01*
X65432853Y-97458060D01*
X65369297Y-97429035D01*
X65331523Y-97370257D01*
X65247274Y-97083331D01*
X65245085Y-97074754D01*
X65241712Y-97059250D01*
X65125537Y-96525202D01*
X65123967Y-96516501D01*
X65043924Y-95959794D01*
X65042982Y-95951020D01*
X65002820Y-95389483D01*
X65002510Y-95381756D01*
X65001845Y-95307216D01*
X64999998Y-95100334D01*
X64999995Y-95099675D01*
X64999995Y-90350534D01*
X65001068Y-90346878D01*
X64999995Y-90300001D01*
X64999996Y-90300001D01*
X64997747Y-90201731D01*
X64959404Y-90008968D01*
X64884224Y-89827466D01*
X64884194Y-89827393D01*
X64884193Y-89827391D01*
X64775000Y-89663973D01*
X64774997Y-89663969D01*
X64636027Y-89524999D01*
X64472611Y-89415809D01*
X64472610Y-89415808D01*
X64472608Y-89415807D01*
X64472605Y-89415805D01*
X64472600Y-89415803D01*
X64291032Y-89340596D01*
X64291030Y-89340595D01*
X64291029Y-89340595D01*
X64291024Y-89340594D01*
X64291020Y-89340593D01*
X64098272Y-89302253D01*
X64098260Y-89302252D01*
X64000016Y-89300001D01*
X63999996Y-89300001D01*
X61800878Y-89300001D01*
X61799140Y-89299989D01*
X61626516Y-89297569D01*
X61614370Y-89296801D01*
X61270476Y-89258052D01*
X61256767Y-89255723D01*
X60920210Y-89178906D01*
X60906854Y-89175058D01*
X60581006Y-89061038D01*
X60568174Y-89055723D01*
X60257151Y-88905942D01*
X60244981Y-88899216D01*
X59952685Y-88715554D01*
X59941344Y-88707507D01*
X59671450Y-88492273D01*
X59661082Y-88483007D01*
X59416989Y-88238914D01*
X59407723Y-88228546D01*
X59192489Y-87958651D01*
X59184442Y-87947310D01*
X59122547Y-87848805D01*
X59000780Y-87655013D01*
X58994055Y-87642844D01*
X58922501Y-87494261D01*
X58844276Y-87331824D01*
X58838956Y-87318981D01*
X58724939Y-86993138D01*
X58721090Y-86979777D01*
X58717598Y-86964479D01*
X58644275Y-86643228D01*
X58641946Y-86629519D01*
X58603296Y-86286489D01*
X58602516Y-86272605D01*
X58602516Y-86221289D01*
X59949496Y-86221289D01*
X59981157Y-86461786D01*
X60043943Y-86696105D01*
X60097000Y-86824195D01*
X60136772Y-86920213D01*
X60258060Y-87130290D01*
X60258062Y-87130293D01*
X60258063Y-87130294D01*
X60405729Y-87322737D01*
X60405735Y-87322744D01*
X60577252Y-87494261D01*
X60577258Y-87494266D01*
X60769707Y-87641937D01*
X60979784Y-87763225D01*
X61203896Y-87856055D01*
X61438207Y-87918839D01*
X61618582Y-87942585D01*
X61678707Y-87950501D01*
X61678708Y-87950501D01*
X61921285Y-87950501D01*
X61969384Y-87944168D01*
X62161785Y-87918839D01*
X62396096Y-87856055D01*
X62620208Y-87763225D01*
X62830285Y-87641937D01*
X63022734Y-87494266D01*
X63194261Y-87322739D01*
X63341932Y-87130290D01*
X63463220Y-86920213D01*
X63556050Y-86696101D01*
X63618834Y-86461790D01*
X63650496Y-86221289D01*
X63650496Y-85978713D01*
X63618834Y-85738212D01*
X63556050Y-85503901D01*
X63463220Y-85279789D01*
X63341932Y-85069712D01*
X63198609Y-84882929D01*
X63194262Y-84877264D01*
X63194256Y-84877257D01*
X63022739Y-84705740D01*
X63022732Y-84705734D01*
X62830289Y-84558068D01*
X62830288Y-84558067D01*
X62830285Y-84558065D01*
X62620208Y-84436777D01*
X62620201Y-84436774D01*
X62396100Y-84343948D01*
X62161781Y-84281162D01*
X61921285Y-84249501D01*
X61921284Y-84249501D01*
X61678708Y-84249501D01*
X61678707Y-84249501D01*
X61438210Y-84281162D01*
X61203891Y-84343948D01*
X60979790Y-84436774D01*
X60979781Y-84436778D01*
X60769702Y-84558068D01*
X60577259Y-84705734D01*
X60577252Y-84705740D01*
X60405735Y-84877257D01*
X60405729Y-84877264D01*
X60258063Y-85069707D01*
X60136773Y-85279786D01*
X60136769Y-85279795D01*
X60043943Y-85503896D01*
X59981157Y-85738215D01*
X59949496Y-85978712D01*
X59949496Y-86221289D01*
X58602516Y-86221289D01*
X58602516Y-85927394D01*
X58603296Y-85913510D01*
X58641946Y-85570480D01*
X58644275Y-85556771D01*
X58644279Y-85556755D01*
X58721092Y-85220213D01*
X58724939Y-85206861D01*
X58724949Y-85206833D01*
X58838958Y-84881011D01*
X58844273Y-84868181D01*
X58994059Y-84557146D01*
X59000775Y-84544994D01*
X59184450Y-84252677D01*
X59192480Y-84241359D01*
X59407731Y-83971443D01*
X59416980Y-83961094D01*
X59661091Y-83716983D01*
X59671440Y-83707734D01*
X59941355Y-83492483D01*
X59952673Y-83484453D01*
X60244990Y-83300777D01*
X60257142Y-83294061D01*
X60568188Y-83144270D01*
X60580990Y-83138966D01*
X60906870Y-83024935D01*
X60920203Y-83021094D01*
X61256768Y-82944275D01*
X61270474Y-82941947D01*
X61614385Y-82903196D01*
X61626502Y-82902430D01*
X61796598Y-82900048D01*
X61799140Y-82900013D01*
X61800876Y-82900001D01*
X63999975Y-82900001D01*
X63999996Y-82900001D01*
X64098266Y-82897752D01*
X64291030Y-82859410D01*
X64472610Y-82784198D01*
X64636028Y-82675006D01*
X64775003Y-82536031D01*
X64884195Y-82372614D01*
X64959408Y-82191035D01*
X64997752Y-81998271D01*
X64999996Y-81900001D01*
X64999996Y-79514215D01*
X64997572Y-79415954D01*
X64997569Y-79415937D01*
X64959212Y-79223223D01*
X64959208Y-79223210D01*
X64883992Y-79041653D01*
X64774811Y-78878249D01*
X64774808Y-78878246D01*
X64774807Y-78878244D01*
X64707037Y-78807042D01*
X64195070Y-78295075D01*
X64161585Y-78233752D01*
X64166569Y-78164060D01*
X64208441Y-78108127D01*
X64273905Y-78083710D01*
X64282751Y-78083394D01*
X65174818Y-78083394D01*
X65174822Y-78083394D01*
X65277634Y-78072890D01*
X65444216Y-78017691D01*
X65593577Y-77925564D01*
X65717666Y-77801475D01*
X65809793Y-77652114D01*
X65864992Y-77485532D01*
X65875496Y-77382720D01*
X65875496Y-75983068D01*
X65864992Y-75880256D01*
X65809793Y-75713674D01*
X65717666Y-75564313D01*
X65593577Y-75440224D01*
X65444216Y-75348097D01*
X65444213Y-75348096D01*
X65277634Y-75292897D01*
X65174829Y-75282394D01*
X65174822Y-75282394D01*
X63775170Y-75282394D01*
X63775162Y-75282394D01*
X63672357Y-75292897D01*
X63505778Y-75348096D01*
X63505773Y-75348098D01*
X63356413Y-75440225D01*
X63232325Y-75564313D01*
X63229533Y-75568841D01*
X63177584Y-75615565D01*
X63108621Y-75626786D01*
X63044540Y-75598942D01*
X63005684Y-75540873D01*
X62999995Y-75503743D01*
X62999995Y-72318086D01*
X63019680Y-72251047D01*
X63072484Y-72205292D01*
X63141642Y-72195348D01*
X63205198Y-72224373D01*
X63237551Y-72268276D01*
X63239071Y-72271742D01*
X63366012Y-72466041D01*
X63366015Y-72466045D01*
X63366017Y-72466047D01*
X63523212Y-72636807D01*
X63523215Y-72636809D01*
X63523218Y-72636812D01*
X63706361Y-72779358D01*
X63706367Y-72779362D01*
X63706370Y-72779364D01*
X63910493Y-72889830D01*
X64024483Y-72928962D01*
X64130011Y-72965191D01*
X64130013Y-72965191D01*
X64130015Y-72965192D01*
X64358947Y-73003394D01*
X64358948Y-73003394D01*
X64591044Y-73003394D01*
X64591045Y-73003394D01*
X64819977Y-72965192D01*
X65039499Y-72889830D01*
X65243622Y-72779364D01*
X65426780Y-72636807D01*
X65583975Y-72466047D01*
X65710920Y-72271743D01*
X65804153Y-72059194D01*
X65861130Y-71834199D01*
X65880296Y-71602894D01*
X65880296Y-71602887D01*
X65861131Y-71371596D01*
X65861129Y-71371585D01*
X65804153Y-71146593D01*
X65710920Y-70934045D01*
X65618002Y-70791822D01*
X65597814Y-70724933D01*
X65616995Y-70657747D01*
X65669454Y-70611597D01*
X65721811Y-70600001D01*
X66998557Y-70600001D01*
X67001394Y-70600033D01*
G37*
%TD.AperFunction*%
%TA.AperFunction,Conductor*%
G36*
X142096678Y-70619686D02*
G01*
X142142433Y-70672490D01*
X142152377Y-70741648D01*
X142147345Y-70763004D01*
X142135002Y-70800252D01*
X142135002Y-70800254D01*
X142124498Y-70903060D01*
X142124498Y-72302727D01*
X142135001Y-72405532D01*
X142155052Y-72466041D01*
X142190201Y-72572114D01*
X142282328Y-72721475D01*
X142406417Y-72845564D01*
X142555778Y-72937691D01*
X142638769Y-72965191D01*
X142722359Y-72992890D01*
X142759234Y-72996657D01*
X142825172Y-73003394D01*
X142825176Y-73003394D01*
X144224820Y-73003394D01*
X144224824Y-73003394D01*
X144327636Y-72992890D01*
X144494218Y-72937691D01*
X144643579Y-72845564D01*
X144767668Y-72721475D01*
X144770457Y-72716952D01*
X144822403Y-72670229D01*
X144891365Y-72659005D01*
X144955448Y-72686847D01*
X144994305Y-72744915D01*
X144999996Y-72782049D01*
X144999996Y-75967696D01*
X144980311Y-76034735D01*
X144927507Y-76080490D01*
X144858349Y-76090434D01*
X144794793Y-76061409D01*
X144762438Y-76017501D01*
X144760922Y-76014044D01*
X144633981Y-75819746D01*
X144633978Y-75819743D01*
X144633977Y-75819741D01*
X144476782Y-75648981D01*
X144476777Y-75648977D01*
X144476775Y-75648975D01*
X144293632Y-75506429D01*
X144293626Y-75506425D01*
X144089502Y-75395958D01*
X144089493Y-75395955D01*
X143869982Y-75320596D01*
X143698280Y-75291944D01*
X143641047Y-75282394D01*
X143408949Y-75282394D01*
X143363162Y-75290034D01*
X143180013Y-75320596D01*
X142960502Y-75395955D01*
X142960493Y-75395958D01*
X142756369Y-75506425D01*
X142756363Y-75506429D01*
X142573220Y-75648975D01*
X142573217Y-75648978D01*
X142416014Y-75819746D01*
X142289073Y-76014045D01*
X142195840Y-76226593D01*
X142138864Y-76451585D01*
X142138862Y-76451596D01*
X142119698Y-76682887D01*
X142119698Y-76682900D01*
X142138863Y-76914198D01*
X142138863Y-76914201D01*
X142140452Y-76920472D01*
X142137828Y-76990292D01*
X142107928Y-77038594D01*
X140916996Y-78229526D01*
X140916990Y-78229534D01*
X140867758Y-78303214D01*
X140867759Y-78303215D01*
X140834867Y-78352442D01*
X140834860Y-78352454D01*
X140778288Y-78489032D01*
X140778286Y-78489038D01*
X140749446Y-78634025D01*
X140749446Y-98854026D01*
X140729761Y-98921065D01*
X140713127Y-98941707D01*
X132557371Y-107097462D01*
X132496048Y-107130947D01*
X132426356Y-107125963D01*
X132370423Y-107084091D01*
X132346006Y-107018627D01*
X132358880Y-106954130D01*
X132432347Y-106807844D01*
X132448326Y-106740426D01*
X132472808Y-106637132D01*
X132472808Y-106461690D01*
X132432347Y-106290978D01*
X132432347Y-106290977D01*
X132353611Y-106134201D01*
X132353609Y-106134197D01*
X132288352Y-106054089D01*
X131156969Y-104922707D01*
X131116915Y-104890078D01*
X131076863Y-104857450D01*
X131076855Y-104857445D01*
X130920079Y-104778710D01*
X130749375Y-104738251D01*
X130749370Y-104738250D01*
X130749368Y-104738250D01*
X130573926Y-104738250D01*
X130573924Y-104738250D01*
X130573918Y-104738251D01*
X130403216Y-104778709D01*
X130246429Y-104857450D01*
X130166335Y-104922697D01*
X130166317Y-104922713D01*
X129247082Y-105841949D01*
X129247063Y-105841970D01*
X129181822Y-105922056D01*
X129181818Y-105922062D01*
X129103077Y-106078848D01*
X129062619Y-106249550D01*
X129062618Y-106249561D01*
X129062618Y-106424996D01*
X129062619Y-106425005D01*
X129104557Y-106601948D01*
X129100864Y-106671720D01*
X129060036Y-106728420D01*
X128995035Y-106754045D01*
X128983900Y-106754546D01*
X128787593Y-106754546D01*
X128738922Y-106762254D01*
X128577640Y-106787799D01*
X128375465Y-106853490D01*
X128186063Y-106949995D01*
X128014086Y-107074944D01*
X127863778Y-107225252D01*
X127738829Y-107397229D01*
X127642324Y-107586631D01*
X127576633Y-107788806D01*
X127548888Y-107963984D01*
X127543380Y-107998759D01*
X127543380Y-108211333D01*
X127576634Y-108421289D01*
X127642323Y-108623458D01*
X127738829Y-108812862D01*
X127863776Y-108984837D01*
X128226221Y-109347282D01*
X128398196Y-109472229D01*
X128587600Y-109568735D01*
X128789769Y-109634424D01*
X128999725Y-109667678D01*
X128999726Y-109667678D01*
X129212298Y-109667678D01*
X129212299Y-109667678D01*
X129422255Y-109634424D01*
X129624424Y-109568735D01*
X129813828Y-109472229D01*
X129887738Y-109418529D01*
X129953544Y-109395049D01*
X130021598Y-109410874D01*
X130070293Y-109460979D01*
X130084169Y-109529457D01*
X130058821Y-109594566D01*
X130048305Y-109606528D01*
X117916653Y-121738181D01*
X117855330Y-121771666D01*
X117828972Y-121774500D01*
X111987220Y-121774500D01*
X111920181Y-121754815D01*
X111874426Y-121702011D01*
X111864482Y-121632853D01*
X111893507Y-121569297D01*
X111899539Y-121562819D01*
X111973096Y-121489261D01*
X111973101Y-121489256D01*
X112122767Y-121294208D01*
X112245694Y-121081292D01*
X112339778Y-120854153D01*
X112403409Y-120616677D01*
X112435500Y-120372927D01*
X112435500Y-119237219D01*
X112455185Y-119170180D01*
X112507989Y-119124425D01*
X112577147Y-119114481D01*
X112640703Y-119143506D01*
X112647169Y-119149526D01*
X112660744Y-119163101D01*
X112660747Y-119163103D01*
X112855794Y-119312769D01*
X112855796Y-119312770D01*
X112943435Y-119363368D01*
X112943436Y-119363368D01*
X113068707Y-119435694D01*
X113295846Y-119529778D01*
X113533323Y-119593409D01*
X113777073Y-119625500D01*
X113777080Y-119625500D01*
X118690541Y-119625500D01*
X118690548Y-119625500D01*
X118934298Y-119593409D01*
X119171774Y-119529778D01*
X119398913Y-119435694D01*
X119611829Y-119312767D01*
X119806877Y-119163101D01*
X119980722Y-118989256D01*
X120130388Y-118794208D01*
X120253315Y-118581292D01*
X120347399Y-118354153D01*
X120411030Y-118116677D01*
X120443121Y-117872927D01*
X120443121Y-117627073D01*
X120411030Y-117383323D01*
X120347399Y-117145847D01*
X120343261Y-117135858D01*
X120253317Y-116918714D01*
X120253315Y-116918708D01*
X120130388Y-116705792D01*
X119980722Y-116510744D01*
X119980717Y-116510738D01*
X119806882Y-116336903D01*
X119806875Y-116336897D01*
X119611833Y-116187236D01*
X119611832Y-116187235D01*
X119611829Y-116187233D01*
X119398913Y-116064306D01*
X119394184Y-116062347D01*
X119171783Y-115970225D01*
X119171776Y-115970223D01*
X119171774Y-115970222D01*
X118934298Y-115906591D01*
X118888033Y-115900500D01*
X118690555Y-115874500D01*
X118690548Y-115874500D01*
X114728219Y-115874500D01*
X114661180Y-115854815D01*
X114640538Y-115838181D01*
X111976226Y-113173869D01*
X111976198Y-113173839D01*
X109634759Y-110832400D01*
X116149446Y-110832400D01*
X116181107Y-111072897D01*
X116243893Y-111307216D01*
X116336719Y-111531317D01*
X116336722Y-111531324D01*
X116458010Y-111741401D01*
X116458012Y-111741404D01*
X116458013Y-111741405D01*
X116605679Y-111933848D01*
X116605685Y-111933855D01*
X116777202Y-112105372D01*
X116777208Y-112105377D01*
X116969657Y-112253048D01*
X117179734Y-112374336D01*
X117403846Y-112467166D01*
X117638157Y-112529950D01*
X117818532Y-112553696D01*
X117878657Y-112561612D01*
X117878658Y-112561612D01*
X118121235Y-112561612D01*
X118169334Y-112555279D01*
X118361735Y-112529950D01*
X118596046Y-112467166D01*
X118820158Y-112374336D01*
X119030235Y-112253048D01*
X119222684Y-112105377D01*
X119394211Y-111933850D01*
X119541882Y-111741401D01*
X119663170Y-111531324D01*
X119756000Y-111307212D01*
X119818784Y-111072901D01*
X119850446Y-110832400D01*
X119850446Y-110589824D01*
X119818784Y-110349323D01*
X119756000Y-110115012D01*
X119663170Y-109890900D01*
X119541882Y-109680823D01*
X119455874Y-109568735D01*
X119394212Y-109488375D01*
X119394206Y-109488368D01*
X119222689Y-109316851D01*
X119222682Y-109316845D01*
X119030239Y-109169179D01*
X119030238Y-109169178D01*
X119030235Y-109169176D01*
X118820158Y-109047888D01*
X118764887Y-109024994D01*
X118596050Y-108955059D01*
X118361731Y-108892273D01*
X118121235Y-108860612D01*
X118121234Y-108860612D01*
X117878658Y-108860612D01*
X117878657Y-108860612D01*
X117638160Y-108892273D01*
X117403841Y-108955059D01*
X117179740Y-109047885D01*
X117179731Y-109047889D01*
X116969652Y-109169179D01*
X116777209Y-109316845D01*
X116777202Y-109316851D01*
X116605685Y-109488368D01*
X116605679Y-109488375D01*
X116458013Y-109680818D01*
X116336723Y-109890897D01*
X116336719Y-109890906D01*
X116243893Y-110115007D01*
X116181107Y-110349326D01*
X116149446Y-110589823D01*
X116149446Y-110832400D01*
X109634759Y-110832400D01*
X98600373Y-99798015D01*
X98600366Y-99798009D01*
X98520351Y-99736612D01*
X98520349Y-99736610D01*
X98405328Y-99648351D01*
X98405326Y-99648350D01*
X98405320Y-99648345D01*
X98192404Y-99525418D01*
X98192392Y-99525412D01*
X97965265Y-99431334D01*
X97727785Y-99367701D01*
X97484049Y-99335613D01*
X97484044Y-99335612D01*
X97484039Y-99335612D01*
X97484032Y-99335612D01*
X87328166Y-99335612D01*
X87261127Y-99315927D01*
X87240485Y-99299293D01*
X85061765Y-97120573D01*
X85028280Y-97059250D01*
X85025446Y-97032892D01*
X85025446Y-94832400D01*
X86149446Y-94832400D01*
X86181107Y-95072897D01*
X86243893Y-95307216D01*
X86336719Y-95531317D01*
X86336722Y-95531324D01*
X86458010Y-95741401D01*
X86458012Y-95741404D01*
X86458013Y-95741405D01*
X86605679Y-95933848D01*
X86605685Y-95933855D01*
X86777202Y-96105372D01*
X86777208Y-96105377D01*
X86969657Y-96253048D01*
X87179734Y-96374336D01*
X87403846Y-96467166D01*
X87638157Y-96529950D01*
X87818532Y-96553696D01*
X87878657Y-96561612D01*
X87878658Y-96561612D01*
X88121235Y-96561612D01*
X88169334Y-96555279D01*
X88361735Y-96529950D01*
X88596046Y-96467166D01*
X88820158Y-96374336D01*
X88865997Y-96347871D01*
X129786746Y-96347871D01*
X129786747Y-96347877D01*
X129793154Y-96407484D01*
X129843448Y-96542329D01*
X129843452Y-96542336D01*
X129929698Y-96657545D01*
X129929701Y-96657548D01*
X130044910Y-96743794D01*
X130044917Y-96743798D01*
X130179763Y-96794092D01*
X130179762Y-96794092D01*
X130186690Y-96794836D01*
X130239373Y-96800501D01*
X132735118Y-96800500D01*
X132794729Y-96794092D01*
X132929577Y-96743797D01*
X133044792Y-96657547D01*
X133131042Y-96542332D01*
X133181337Y-96407484D01*
X133187746Y-96347874D01*
X133187745Y-93852129D01*
X133181337Y-93792518D01*
X133181336Y-93792516D01*
X133131043Y-93657672D01*
X133131039Y-93657665D01*
X133044793Y-93542456D01*
X133044790Y-93542453D01*
X132929581Y-93456207D01*
X132929574Y-93456203D01*
X132794728Y-93405909D01*
X132794729Y-93405909D01*
X132735129Y-93399502D01*
X132735127Y-93399501D01*
X132735119Y-93399501D01*
X132735110Y-93399501D01*
X130239375Y-93399501D01*
X130239369Y-93399502D01*
X130179762Y-93405909D01*
X130044917Y-93456203D01*
X130044910Y-93456207D01*
X129929701Y-93542453D01*
X129929698Y-93542456D01*
X129843452Y-93657665D01*
X129843448Y-93657672D01*
X129793154Y-93792518D01*
X129788246Y-93838177D01*
X129786747Y-93852124D01*
X129786746Y-93852136D01*
X129786746Y-96347871D01*
X88865997Y-96347871D01*
X89030235Y-96253048D01*
X89222684Y-96105377D01*
X89394211Y-95933850D01*
X89541882Y-95741401D01*
X89663170Y-95531324D01*
X89756000Y-95307212D01*
X89818784Y-95072901D01*
X89850446Y-94832400D01*
X89850446Y-94589824D01*
X89818784Y-94349323D01*
X89756000Y-94115012D01*
X89692253Y-93961112D01*
X121294287Y-93961112D01*
X121314882Y-94196515D01*
X121314884Y-94196525D01*
X121376040Y-94424767D01*
X121376042Y-94424771D01*
X121376043Y-94424775D01*
X121453006Y-94589823D01*
X121475911Y-94638942D01*
X121475913Y-94638946D01*
X121584227Y-94793633D01*
X121611451Y-94832513D01*
X121778545Y-94999607D01*
X121875330Y-95067377D01*
X121972111Y-95135144D01*
X121972113Y-95135145D01*
X121972116Y-95135147D01*
X122186283Y-95235015D01*
X122414538Y-95296175D01*
X122602864Y-95312651D01*
X122649945Y-95316771D01*
X122649946Y-95316771D01*
X122649947Y-95316771D01*
X122689180Y-95313338D01*
X122885354Y-95296175D01*
X123113609Y-95235015D01*
X123327776Y-95135147D01*
X123521347Y-94999607D01*
X123688441Y-94832513D01*
X123823981Y-94638942D01*
X123923849Y-94424775D01*
X123985009Y-94196520D01*
X124005605Y-93961112D01*
X123985009Y-93725704D01*
X123923849Y-93497449D01*
X123823981Y-93283283D01*
X123716524Y-93129817D01*
X123688440Y-93089709D01*
X123521348Y-92922618D01*
X123521341Y-92922613D01*
X123327780Y-92787079D01*
X123327776Y-92787077D01*
X123327774Y-92787076D01*
X123113609Y-92687209D01*
X123113605Y-92687208D01*
X123113601Y-92687206D01*
X122885359Y-92626050D01*
X122885349Y-92626048D01*
X122649947Y-92605453D01*
X122649945Y-92605453D01*
X122414542Y-92626048D01*
X122414532Y-92626050D01*
X122186290Y-92687206D01*
X122186281Y-92687210D01*
X121972117Y-92787076D01*
X121972115Y-92787077D01*
X121778543Y-92922617D01*
X121611451Y-93089709D01*
X121475911Y-93283281D01*
X121475910Y-93283283D01*
X121376044Y-93497447D01*
X121376040Y-93497456D01*
X121314884Y-93725698D01*
X121314882Y-93725708D01*
X121294287Y-93961111D01*
X121294287Y-93961112D01*
X89692253Y-93961112D01*
X89663170Y-93890900D01*
X89541882Y-93680823D01*
X89475592Y-93594432D01*
X89394212Y-93488375D01*
X89394206Y-93488368D01*
X89222689Y-93316851D01*
X89222682Y-93316845D01*
X89030239Y-93169179D01*
X89030238Y-93169178D01*
X89030235Y-93169176D01*
X88820158Y-93047888D01*
X88820151Y-93047885D01*
X88596050Y-92955059D01*
X88361731Y-92892273D01*
X88121235Y-92860612D01*
X88121234Y-92860612D01*
X87878658Y-92860612D01*
X87878657Y-92860612D01*
X87638160Y-92892273D01*
X87403841Y-92955059D01*
X87179740Y-93047885D01*
X87179731Y-93047889D01*
X86969652Y-93169179D01*
X86777209Y-93316845D01*
X86777202Y-93316851D01*
X86605685Y-93488368D01*
X86605679Y-93488375D01*
X86458013Y-93680818D01*
X86336723Y-93890897D01*
X86336719Y-93890906D01*
X86243893Y-94115007D01*
X86181107Y-94349326D01*
X86149446Y-94589823D01*
X86149446Y-94832400D01*
X85025446Y-94832400D01*
X85025446Y-93838191D01*
X85025445Y-93838177D01*
X85019434Y-93792518D01*
X84993355Y-93594435D01*
X84929724Y-93356959D01*
X84835640Y-93129820D01*
X84712713Y-92916904D01*
X84563047Y-92721856D01*
X84563042Y-92721850D01*
X84389207Y-92548015D01*
X84239953Y-92433488D01*
X84198751Y-92377060D01*
X84194596Y-92307314D01*
X84228809Y-92246393D01*
X84290526Y-92213641D01*
X84315440Y-92211112D01*
X126923736Y-92211112D01*
X126933215Y-92209982D01*
X126977241Y-92208988D01*
X127161450Y-92174073D01*
X127335936Y-92105466D01*
X127494593Y-92005564D01*
X127631870Y-91877865D01*
X127742965Y-91726835D01*
X127785386Y-91643211D01*
X127911008Y-91386875D01*
X127914665Y-91379977D01*
X128197638Y-90884779D01*
X128202361Y-90877169D01*
X128520045Y-90404214D01*
X128525287Y-90396989D01*
X128876356Y-89948184D01*
X128882094Y-89941371D01*
X129264677Y-89519112D01*
X129270896Y-89512728D01*
X129682985Y-89119233D01*
X129689672Y-89113295D01*
X130129110Y-88750617D01*
X130136202Y-88745183D01*
X130600704Y-88415210D01*
X130608150Y-88410315D01*
X131095304Y-88114761D01*
X131103107Y-88110405D01*
X131610344Y-87850830D01*
X131618411Y-87847064D01*
X132143070Y-87624829D01*
X132151405Y-87621649D01*
X132690757Y-87437910D01*
X132699303Y-87435340D01*
X133250525Y-87291059D01*
X133259247Y-87289110D01*
X133819945Y-87184952D01*
X133827720Y-87183760D01*
X134111108Y-87149537D01*
X134214504Y-87135261D01*
X134412600Y-87069633D01*
X134592823Y-86964426D01*
X134747369Y-86824195D01*
X134869544Y-86655013D01*
X134954058Y-86464209D01*
X134997250Y-86260043D01*
X134999996Y-86155701D01*
X134999996Y-81858971D01*
X135000031Y-81856027D01*
X135002055Y-81770797D01*
X135004355Y-81749792D01*
X135037559Y-81581112D01*
X135044474Y-81558071D01*
X135047005Y-81551893D01*
X135109070Y-81400355D01*
X135120304Y-81379082D01*
X135214973Y-81235556D01*
X135228052Y-81218993D01*
X135286063Y-81157169D01*
X135288776Y-81154367D01*
X139704424Y-76738719D01*
X139772886Y-76667524D01*
X139883057Y-76503621D01*
X139958968Y-76321304D01*
X139997674Y-76127645D01*
X139999997Y-76028901D01*
X139999997Y-71601527D01*
X140000034Y-71598491D01*
X140002142Y-71512422D01*
X140004487Y-71491273D01*
X140038359Y-71320987D01*
X140045412Y-71297735D01*
X140111268Y-71138742D01*
X140122722Y-71117313D01*
X140218334Y-70974219D01*
X140233747Y-70955439D01*
X140355436Y-70833750D01*
X140374214Y-70818339D01*
X140517307Y-70722727D01*
X140538734Y-70711273D01*
X140697735Y-70645411D01*
X140720984Y-70638359D01*
X140891270Y-70604487D01*
X140912411Y-70602143D01*
X140995121Y-70600120D01*
X140998485Y-70600038D01*
X141001517Y-70600001D01*
X142029639Y-70600001D01*
X142096678Y-70619686D01*
G37*
%TD.AperFunction*%
%TD*%
M02*
