%TF.GenerationSoftware,KiCad,Pcbnew,8.0.1*%
%TF.CreationDate,2024-08-02T00:12:23+09:00*%
%TF.ProjectId,Kicker-20240411,4b69636b-6572-42d3-9230-323430343131,rev?*%
%TF.SameCoordinates,Original*%
%TF.FileFunction,Copper,L1,Top*%
%TF.FilePolarity,Positive*%
%FSLAX46Y46*%
G04 Gerber Fmt 4.6, Leading zero omitted, Abs format (unit mm)*
G04 Created by KiCad (PCBNEW 8.0.1) date 2024-08-02 00:12:23*
%MOMM*%
%LPD*%
G01*
G04 APERTURE LIST*
G04 Aperture macros list*
%AMRoundRect*
0 Rectangle with rounded corners*
0 $1 Rounding radius*
0 $2 $3 $4 $5 $6 $7 $8 $9 X,Y pos of 4 corners*
0 Add a 4 corners polygon primitive as box body*
4,1,4,$2,$3,$4,$5,$6,$7,$8,$9,$2,$3,0*
0 Add four circle primitives for the rounded corners*
1,1,$1+$1,$2,$3*
1,1,$1+$1,$4,$5*
1,1,$1+$1,$6,$7*
1,1,$1+$1,$8,$9*
0 Add four rect primitives between the rounded corners*
20,1,$1+$1,$2,$3,$4,$5,0*
20,1,$1+$1,$4,$5,$6,$7,0*
20,1,$1+$1,$6,$7,$8,$9,0*
20,1,$1+$1,$8,$9,$2,$3,0*%
G04 Aperture macros list end*
%TA.AperFunction,ComponentPad*%
%ADD10R,2.400000X2.400000*%
%TD*%
%TA.AperFunction,ComponentPad*%
%ADD11C,2.400000*%
%TD*%
%TA.AperFunction,SMDPad,CuDef*%
%ADD12R,3.000000X3.000000*%
%TD*%
%TA.AperFunction,ComponentPad*%
%ADD13RoundRect,0.250000X-0.600000X-0.750000X0.600000X-0.750000X0.600000X0.750000X-0.600000X0.750000X0*%
%TD*%
%TA.AperFunction,ComponentPad*%
%ADD14O,1.700000X2.000000*%
%TD*%
%TA.AperFunction,ComponentPad*%
%ADD15RoundRect,0.250200X-0.649800X0.649800X-0.649800X-0.649800X0.649800X-0.649800X0.649800X0.649800X0*%
%TD*%
%TA.AperFunction,ComponentPad*%
%ADD16C,1.800000*%
%TD*%
%TA.AperFunction,ComponentPad*%
%ADD17RoundRect,0.250000X-0.600000X-0.725000X0.600000X-0.725000X0.600000X0.725000X-0.600000X0.725000X0*%
%TD*%
%TA.AperFunction,ComponentPad*%
%ADD18O,1.700000X1.950000*%
%TD*%
%TA.AperFunction,ComponentPad*%
%ADD19RoundRect,0.250200X0.649800X-0.649800X0.649800X0.649800X-0.649800X0.649800X-0.649800X-0.649800X0*%
%TD*%
%TA.AperFunction,Conductor*%
%ADD20C,2.500000*%
%TD*%
%TA.AperFunction,Conductor*%
%ADD21C,5.000000*%
%TD*%
%TA.AperFunction,Conductor*%
%ADD22C,0.750000*%
%TD*%
G04 APERTURE END LIST*
D10*
%TO.P,C3,1*%
%TO.N,KickerPower*%
X-27487245Y-4100000D03*
D11*
%TO.P,C3,2*%
%TO.N,GND*%
X-34987245Y-4100000D03*
%TD*%
D12*
%TO.P,U1,1,+IN*%
%TO.N,VCC*%
X-19750000Y-1350000D03*
%TO.P,U1,2,-IN*%
%TO.N,GND*%
X-19750000Y-19350000D03*
%TO.P,U1,3,+OUT*%
%TO.N,KickerPower*%
X19750000Y-1350000D03*
%TO.P,U1,4,-OUT*%
%TO.N,GND*%
X19750000Y-19350000D03*
%TD*%
D13*
%TO.P,VIN,1,Pin_1*%
%TO.N,VCC*%
X-13500000Y-26250000D03*
D14*
%TO.P,VIN,2,Pin_2*%
%TO.N,GND*%
X-11000000Y-26250000D03*
%TD*%
D15*
%TO.P,U3,1,OUT*%
%TO.N,Net-(U3-OUT)*%
X39025000Y18440000D03*
D16*
%TO.P,U3,2,GND*%
%TO.N,GND*%
X39025000Y15900000D03*
%TO.P,U3,3,Vs*%
%TO.N,+3.3V*%
X39025000Y13360000D03*
%TD*%
D17*
%TO.P,MD,1,Pin_1*%
%TO.N,ball02k*%
X-5000000Y-26250000D03*
D18*
%TO.P,MD,2,Pin_2*%
%TO.N,KickerSignal-main*%
X-2500000Y-26250000D03*
%TO.P,MD,3,Pin_3*%
%TO.N,GND*%
X0Y-26250000D03*
%TO.P,MD,4,Pin_4*%
%TO.N,+3.3V*%
X2500000Y-26250000D03*
%TO.P,MD,5,Pin_5*%
%TO.N,ball01k*%
X5000000Y-26250000D03*
%TD*%
D13*
%TO.P,KI.,1,Pin_1*%
%TO.N,KickerPower*%
X11000000Y-26250000D03*
D14*
%TO.P,KI.,2,Pin_2*%
%TO.N,Net-(J3-Pin_2)*%
X13500000Y-26250000D03*
%TD*%
D19*
%TO.P,U4,1,OUT*%
%TO.N,Net-(U4-OUT)*%
X-39025000Y13360000D03*
D16*
%TO.P,U4,2,GND*%
%TO.N,GND*%
X-39025000Y15900000D03*
%TO.P,U4,3,Vs*%
%TO.N,+3.3V*%
X-39025000Y18440000D03*
%TD*%
D10*
%TO.P,C4,1*%
%TO.N,KickerPower*%
X27487246Y-4100000D03*
D11*
%TO.P,C4,2*%
%TO.N,GND*%
X34987246Y-4100000D03*
%TD*%
D20*
%TO.N,VCC*%
X-19750000Y-1350000D02*
X-13500000Y-7600000D01*
X-13500000Y-7600000D02*
X-13500000Y-26250000D01*
D21*
%TO.N,GND*%
X19750000Y-19350000D02*
X34987246Y-4100000D01*
D22*
%TO.N,+3.3V*%
X-40500000Y10085000D02*
X-40500000Y16965000D01*
X-13000000Y-31350000D02*
X-2600000Y-31350000D01*
X-2600000Y-31350000D02*
X2500000Y-26250000D01*
X-37800000Y7385000D02*
X-40500000Y10085000D01*
X-13000000Y-31350000D02*
X-37800000Y-6550000D01*
X-40500000Y16965000D02*
X-39025000Y18440000D01*
X-37800000Y-6550000D02*
X-37800000Y7385000D01*
%TD*%
%TA.AperFunction,Conductor*%
%TO.N,KickerPower*%
G36*
X-38168858Y20228538D02*
G01*
X-38083080Y20226452D01*
X-38061975Y20224120D01*
X-38024327Y20216654D01*
X-37892208Y20190452D01*
X-37869014Y20183439D01*
X-37710431Y20117974D01*
X-37689044Y20106583D01*
X-37546230Y20011533D01*
X-37527466Y19996201D01*
X-37404786Y19874119D01*
X-37391072Y19857906D01*
X-37341318Y19787677D01*
X-37339886Y19785611D01*
X-36966134Y19234275D01*
X-36188779Y18149360D01*
X-35379595Y17087975D01*
X-34539291Y16051051D01*
X-34409280Y15900006D01*
X-33668606Y15039499D01*
X-32922669Y14223147D01*
X-32768311Y14054218D01*
X-31839193Y13096065D01*
X-30882069Y12165885D01*
X-29897783Y11264497D01*
X-29010436Y10499006D01*
X-28887186Y10392682D01*
X-27851204Y9551237D01*
X-26790749Y8740903D01*
X-26790723Y8740884D01*
X-26790720Y8740882D01*
X-25706667Y7962326D01*
X-25706645Y7962311D01*
X-25706642Y7962309D01*
X-25594520Y7886721D01*
X-24600004Y7216260D01*
X-23471703Y6503338D01*
X-22322758Y5824189D01*
X-21154178Y5179410D01*
X-19966991Y4569568D01*
X-19966982Y4569564D01*
X-19966969Y4569557D01*
X-18762231Y3995193D01*
X-17541016Y3456819D01*
X-16304296Y2954864D01*
X-15053282Y2489822D01*
X-13789041Y2062086D01*
X-12512650Y1672021D01*
X-11564050Y1412625D01*
X-11225245Y1319978D01*
X-11225239Y1319976D01*
X-11225237Y1319976D01*
X-9927966Y1006264D01*
X-8621992Y731168D01*
X-8621979Y731165D01*
X-8621976Y731165D01*
X-8173469Y650499D01*
X-7308381Y494909D01*
X-5988366Y297712D01*
X-4663096Y139749D01*
X-3333738Y21155D01*
X-2542400Y-25839D01*
X-2001404Y-57968D01*
X-2001399Y-57968D01*
X-2001385Y-57969D01*
X-667346Y-97546D01*
X667330Y-97546D01*
X667346Y-97546D01*
X2001385Y-57969D01*
X2001399Y-57968D01*
X2001404Y-57968D01*
X2542400Y-25839D01*
X3333738Y21155D01*
X4663096Y139749D01*
X5988366Y297712D01*
X7308381Y494909D01*
X8173469Y650499D01*
X8621976Y731165D01*
X8621979Y731165D01*
X8621992Y731168D01*
X9927966Y1006264D01*
X11225237Y1319976D01*
X11225239Y1319976D01*
X11225245Y1319978D01*
X11564050Y1412625D01*
X12512650Y1672021D01*
X13789041Y2062086D01*
X15053282Y2489822D01*
X16304296Y2954864D01*
X17541016Y3456819D01*
X18762231Y3995193D01*
X19966969Y4569557D01*
X19966982Y4569564D01*
X19966991Y4569568D01*
X20031762Y4602840D01*
X40602467Y4602840D01*
X40641802Y4354484D01*
X40719509Y4115330D01*
X40833669Y3891281D01*
X40981464Y3687857D01*
X40981468Y3687852D01*
X41159278Y3510042D01*
X41159283Y3510038D01*
X41362707Y3362243D01*
X41586756Y3248083D01*
X41825910Y3170376D01*
X42074267Y3131041D01*
X42325730Y3131041D01*
X42325735Y3131041D01*
X42574091Y3170376D01*
X42813245Y3248083D01*
X42967323Y3326590D01*
X43037291Y3362241D01*
X43037294Y3362243D01*
X43240718Y3510038D01*
X43240723Y3510042D01*
X43418533Y3687852D01*
X43418537Y3687857D01*
X43566332Y3891281D01*
X43566335Y3891285D01*
X43639077Y4034049D01*
X43680492Y4115330D01*
X43680494Y4115335D01*
X43758199Y4354485D01*
X43797535Y4602846D01*
X43800001Y4728575D01*
X43797535Y4854304D01*
X43758199Y5102665D01*
X43680494Y5341815D01*
X43566335Y5565865D01*
X43418532Y5769299D01*
X43240725Y5947106D01*
X43037291Y6094909D01*
X42813241Y6209068D01*
X42574091Y6286773D01*
X42325735Y6326109D01*
X42325730Y6326109D01*
X42074272Y6326109D01*
X42074267Y6326109D01*
X41825910Y6286773D01*
X41778613Y6271405D01*
X41586761Y6209068D01*
X41586758Y6209066D01*
X41586756Y6209066D01*
X41505475Y6167651D01*
X41362711Y6094909D01*
X41362707Y6094906D01*
X41159283Y5947111D01*
X41159278Y5947107D01*
X40981468Y5769297D01*
X40981464Y5769292D01*
X40833669Y5565868D01*
X40719509Y5341819D01*
X40641802Y5102665D01*
X40602467Y4854309D01*
X40602467Y4602840D01*
X20031762Y4602840D01*
X21154178Y5179410D01*
X22322758Y5824189D01*
X23471703Y6503338D01*
X24600004Y7216260D01*
X25594520Y7886721D01*
X25706642Y7962309D01*
X25706645Y7962311D01*
X25706667Y7962326D01*
X26790720Y8740882D01*
X26790723Y8740884D01*
X26790749Y8740903D01*
X27851204Y9551237D01*
X28887186Y10392682D01*
X29010436Y10499006D01*
X29897783Y11264497D01*
X30882069Y12165885D01*
X31839193Y13096065D01*
X32095123Y13359993D01*
X37619700Y13359993D01*
X37638864Y13128702D01*
X37638866Y13128691D01*
X37695842Y12903699D01*
X37789075Y12691151D01*
X37916016Y12496852D01*
X38073219Y12326084D01*
X38073222Y12326081D01*
X38256365Y12183535D01*
X38256371Y12183531D01*
X38460495Y12073064D01*
X38460504Y12073061D01*
X38680015Y11997702D01*
X38846004Y11970004D01*
X38908951Y11959500D01*
X38908952Y11959500D01*
X39141048Y11959500D01*
X39141049Y11959500D01*
X39203996Y11970004D01*
X39369984Y11997702D01*
X39589495Y12073061D01*
X39589504Y12073064D01*
X39793628Y12183531D01*
X39793634Y12183535D01*
X39976777Y12326081D01*
X39976780Y12326084D01*
X39976784Y12326087D01*
X40133979Y12496847D01*
X40133980Y12496849D01*
X40133983Y12496852D01*
X40260924Y12691151D01*
X40354157Y12903699D01*
X40411133Y13128691D01*
X40411135Y13128702D01*
X40430300Y13359993D01*
X40430300Y13360006D01*
X40411135Y13591297D01*
X40411133Y13591308D01*
X40354157Y13816300D01*
X40260924Y14028848D01*
X40260924Y14028849D01*
X40133979Y14223153D01*
X39976784Y14393913D01*
X39799180Y14532147D01*
X39758368Y14588857D01*
X39754693Y14658630D01*
X39789324Y14719313D01*
X39799181Y14727854D01*
X39976784Y14866087D01*
X40133979Y15036847D01*
X40133980Y15036849D01*
X40133983Y15036852D01*
X40260924Y15231151D01*
X40354157Y15443699D01*
X40411133Y15668691D01*
X40411135Y15668702D01*
X40430300Y15899993D01*
X40430300Y15900006D01*
X40411135Y16131297D01*
X40411133Y16131308D01*
X40354157Y16356300D01*
X40260924Y16568848D01*
X40260924Y16568849D01*
X40133979Y16763153D01*
X39984335Y16925709D01*
X39953416Y16988360D01*
X39961276Y17057786D01*
X40005423Y17111941D01*
X40010471Y17115226D01*
X40143577Y17197327D01*
X40143581Y17197330D01*
X40267668Y17321417D01*
X40267670Y17321419D01*
X40359797Y17470780D01*
X40414996Y17637362D01*
X40425500Y17740174D01*
X40425500Y19139826D01*
X40414996Y19242638D01*
X40359797Y19409220D01*
X40267670Y19558581D01*
X40143581Y19682670D01*
X39994220Y19774797D01*
X39827638Y19829996D01*
X39724826Y19840500D01*
X38325174Y19840500D01*
X38259236Y19833763D01*
X38222361Y19829996D01*
X38166834Y19811596D01*
X38055780Y19774797D01*
X37906419Y19682670D01*
X37782330Y19558581D01*
X37765249Y19530888D01*
X37690204Y19409222D01*
X37690202Y19409217D01*
X37635003Y19242638D01*
X37624500Y19139833D01*
X37624500Y17740166D01*
X37635003Y17637361D01*
X37690202Y17470782D01*
X37690204Y17470777D01*
X37782331Y17321417D01*
X37906418Y17197330D01*
X37906422Y17197327D01*
X38039528Y17115226D01*
X38086253Y17063278D01*
X38097474Y16994315D01*
X38069631Y16930234D01*
X38065680Y16925726D01*
X37916021Y16763153D01*
X37916019Y16763151D01*
X37916016Y16763147D01*
X37789075Y16568848D01*
X37695842Y16356300D01*
X37638866Y16131308D01*
X37638864Y16131297D01*
X37619700Y15900006D01*
X37619700Y15899993D01*
X37638864Y15668702D01*
X37638866Y15668691D01*
X37695842Y15443699D01*
X37789075Y15231151D01*
X37916016Y15036852D01*
X38073219Y14866084D01*
X38073222Y14866081D01*
X38250818Y14727853D01*
X38291631Y14671143D01*
X38295306Y14601370D01*
X38260674Y14540687D01*
X38250818Y14532147D01*
X38073222Y14393918D01*
X38073216Y14393913D01*
X37916021Y14223153D01*
X37916019Y14223151D01*
X37916016Y14223147D01*
X37789075Y14028848D01*
X37695842Y13816300D01*
X37638866Y13591308D01*
X37638864Y13591297D01*
X37619700Y13360006D01*
X37619700Y13359993D01*
X32095123Y13359993D01*
X32768311Y14054218D01*
X32922669Y14223147D01*
X33668606Y15039499D01*
X34409280Y15900006D01*
X34539291Y16051051D01*
X35379595Y17087975D01*
X36188779Y18149360D01*
X36966134Y19234275D01*
X37339909Y19785646D01*
X37341297Y19787650D01*
X37391550Y19858708D01*
X37405514Y19875193D01*
X37529824Y19998365D01*
X37548849Y20013808D01*
X37693721Y20109318D01*
X37715411Y20120718D01*
X37876243Y20185878D01*
X37899753Y20192790D01*
X38071690Y20225321D01*
X38093194Y20227473D01*
X38180643Y20228565D01*
X38182191Y20228575D01*
X39998561Y20228575D01*
X40001397Y20228543D01*
X40001617Y20228538D01*
X40087495Y20226572D01*
X40108848Y20224221D01*
X40279048Y20190366D01*
X40302311Y20183310D01*
X40461325Y20117443D01*
X40482761Y20105984D01*
X40625867Y20010362D01*
X40644655Y19994943D01*
X40766359Y19873235D01*
X40781779Y19854444D01*
X40877394Y19711342D01*
X40888853Y19689904D01*
X40954716Y19530888D01*
X40961772Y19507625D01*
X40995627Y19337403D01*
X40997976Y19316082D01*
X40999967Y19230003D01*
X41000000Y19227136D01*
X41000000Y7928575D01*
X41000001Y7928575D01*
X42199116Y7928575D01*
X42200854Y7928563D01*
X42204288Y7928514D01*
X42373478Y7926141D01*
X42385623Y7925373D01*
X42729517Y7886622D01*
X42743225Y7884293D01*
X43079780Y7807474D01*
X43093142Y7803624D01*
X43418967Y7689611D01*
X43431815Y7684290D01*
X43742838Y7534506D01*
X43755008Y7527779D01*
X44047297Y7344119D01*
X44058637Y7336073D01*
X44328527Y7120841D01*
X44338896Y7111575D01*
X44582999Y6867470D01*
X44592264Y6857101D01*
X44807486Y6587219D01*
X44815533Y6575878D01*
X44999197Y6283575D01*
X45005923Y6271405D01*
X45155697Y5960395D01*
X45161019Y5947548D01*
X45275035Y5621706D01*
X45278884Y5608344D01*
X45355698Y5271797D01*
X45358027Y5258089D01*
X45396678Y4915058D01*
X45397458Y4901174D01*
X45397458Y4555965D01*
X45396678Y4542081D01*
X45358027Y4199050D01*
X45355698Y4185342D01*
X45278884Y3848795D01*
X45275035Y3835433D01*
X45161019Y3509591D01*
X45155697Y3496744D01*
X45005923Y3185734D01*
X44999197Y3173564D01*
X44815533Y2881261D01*
X44807486Y2869920D01*
X44592264Y2600038D01*
X44582999Y2589669D01*
X44338896Y2345564D01*
X44328527Y2336298D01*
X44058637Y2121066D01*
X44047297Y2113020D01*
X43755008Y1929360D01*
X43742845Y1922636D01*
X43431800Y1772842D01*
X43418975Y1767531D01*
X43195449Y1689314D01*
X43093142Y1653515D01*
X43079780Y1649665D01*
X42743225Y1572846D01*
X42729517Y1570517D01*
X42385608Y1531764D01*
X42373490Y1530999D01*
X42200859Y1528587D01*
X42199127Y1528575D01*
X40000000Y1528575D01*
X39901731Y1526326D01*
X39708970Y1487983D01*
X39527393Y1412770D01*
X39527387Y1412766D01*
X39527383Y1412764D01*
X39363979Y1303578D01*
X39225004Y1164599D01*
X39225004Y1164598D01*
X39115823Y1001192D01*
X39115817Y1001182D01*
X39040610Y819606D01*
X39040608Y819601D01*
X39002271Y626842D01*
X39000001Y528571D01*
X39000001Y-4270878D01*
X38999996Y-4271985D01*
X38997485Y-4553179D01*
X38997174Y-4560919D01*
X38957011Y-5122437D01*
X38956065Y-5131238D01*
X38876023Y-5687925D01*
X38874451Y-5696635D01*
X38754904Y-6246176D01*
X38752715Y-6254753D01*
X38594269Y-6794369D01*
X38591474Y-6802768D01*
X38394928Y-7329728D01*
X38391540Y-7337905D01*
X38157918Y-7849468D01*
X38153956Y-7857384D01*
X37884425Y-8350993D01*
X37879909Y-8358605D01*
X37575847Y-8831739D01*
X37570798Y-8839010D01*
X37233768Y-9289231D01*
X37228214Y-9296123D01*
X36859560Y-9721577D01*
X36854307Y-9727270D01*
X36657242Y-9927884D01*
X36656463Y-9928670D01*
X14607701Y-31977432D01*
X14605520Y-31979561D01*
X14543156Y-32038932D01*
X14526540Y-32052229D01*
X14382180Y-32148673D01*
X14360744Y-32160129D01*
X14201762Y-32225974D01*
X14178502Y-32233029D01*
X14008204Y-32266899D01*
X13987104Y-32269243D01*
X13912807Y-32271093D01*
X13901024Y-32271387D01*
X13897939Y-32271425D01*
X10629500Y-32271425D01*
X10562461Y-32251740D01*
X10516706Y-32198936D01*
X10505500Y-32147425D01*
X10505500Y-27704267D01*
X10499586Y-27651557D01*
X10492931Y-27592240D01*
X10480751Y-27538646D01*
X10443666Y-27432188D01*
X10442271Y-27430104D01*
X10416588Y-27391725D01*
X10363647Y-27312611D01*
X10316922Y-27260666D01*
X10316921Y-27260665D01*
X10316919Y-27260663D01*
X10316918Y-27260662D01*
X10304647Y-27250422D01*
X10296414Y-27242898D01*
X10216760Y-27163244D01*
X10198901Y-27140657D01*
X10184051Y-27116580D01*
X10171886Y-27090493D01*
X10161529Y-27059240D01*
X10155873Y-27032806D01*
X10155639Y-27030510D01*
X10155000Y-27017937D01*
X10155000Y-26506286D01*
X12149500Y-26506286D01*
X12182753Y-26716239D01*
X12248444Y-26918414D01*
X12344951Y-27107820D01*
X12469890Y-27279786D01*
X12620213Y-27430109D01*
X12792179Y-27555048D01*
X12792181Y-27555049D01*
X12792184Y-27555051D01*
X12981588Y-27651557D01*
X13183757Y-27717246D01*
X13393713Y-27750500D01*
X13393714Y-27750500D01*
X13606286Y-27750500D01*
X13606287Y-27750500D01*
X13816243Y-27717246D01*
X14018412Y-27651557D01*
X14207816Y-27555051D01*
X14376924Y-27432188D01*
X14379786Y-27430109D01*
X14379788Y-27430106D01*
X14379792Y-27430104D01*
X14530104Y-27279792D01*
X14530106Y-27279788D01*
X14530109Y-27279786D01*
X14655048Y-27107820D01*
X14655047Y-27107820D01*
X14655051Y-27107816D01*
X14751557Y-26918412D01*
X14817246Y-26716243D01*
X14850500Y-26506287D01*
X14850500Y-25993713D01*
X14817246Y-25783757D01*
X14751557Y-25581588D01*
X14655051Y-25392184D01*
X14655049Y-25392181D01*
X14655048Y-25392179D01*
X14530109Y-25220213D01*
X14379786Y-25069890D01*
X14207820Y-24944951D01*
X14018414Y-24848444D01*
X14018413Y-24848443D01*
X14018412Y-24848443D01*
X13816243Y-24782754D01*
X13816241Y-24782753D01*
X13816240Y-24782753D01*
X13654957Y-24757208D01*
X13606287Y-24749500D01*
X13393713Y-24749500D01*
X13345042Y-24757208D01*
X13183760Y-24782753D01*
X12981585Y-24848444D01*
X12792179Y-24944951D01*
X12620213Y-25069890D01*
X12469890Y-25220213D01*
X12344951Y-25392179D01*
X12248444Y-25581585D01*
X12182753Y-25783760D01*
X12149500Y-25993713D01*
X12149500Y-26506286D01*
X10155000Y-26506286D01*
X10155000Y-25482054D01*
X10155638Y-25469491D01*
X10155872Y-25467194D01*
X10161528Y-25440759D01*
X10171884Y-25409509D01*
X10184049Y-25383422D01*
X10198906Y-25359333D01*
X10216759Y-25336754D01*
X10272812Y-25280701D01*
X10284022Y-25270771D01*
X10295230Y-25261994D01*
X10334444Y-25223497D01*
X10405567Y-25136069D01*
X10465338Y-25005192D01*
X10485023Y-24938153D01*
X10485024Y-24938149D01*
X10505500Y-24795733D01*
X10505500Y-19182746D01*
X16749430Y-19182746D01*
X16749570Y-19519747D01*
X16787443Y-19854628D01*
X16862574Y-20183172D01*
X16974005Y-20501197D01*
X16974009Y-20501205D01*
X16974012Y-20501213D01*
X17120362Y-20804786D01*
X17120365Y-20804790D01*
X17299778Y-21090058D01*
X17299783Y-21090065D01*
X17510010Y-21353456D01*
X17510024Y-21353472D01*
X17748402Y-21591651D01*
X17748407Y-21591655D01*
X17748414Y-21591662D01*
X17825505Y-21653087D01*
X18011973Y-21801664D01*
X18011999Y-21801682D01*
X18297411Y-21980852D01*
X18601102Y-22126947D01*
X18601108Y-22126949D01*
X18601110Y-22126950D01*
X18919255Y-22238124D01*
X19247845Y-22312977D01*
X19582750Y-22350570D01*
X19919760Y-22350429D01*
X20254634Y-22312556D01*
X20583162Y-22237428D01*
X20583167Y-22237425D01*
X20583172Y-22237425D01*
X20901197Y-22125994D01*
X20901199Y-22125992D01*
X20901213Y-22125988D01*
X21204786Y-21979638D01*
X21490064Y-21800218D01*
X21753461Y-21589986D01*
X37228908Y-6101586D01*
X37377493Y-5915105D01*
X37438910Y-5838026D01*
X37438913Y-5838020D01*
X37438919Y-5838014D01*
X37462470Y-5800499D01*
X37618098Y-5552588D01*
X37618097Y-5552588D01*
X37618100Y-5552585D01*
X37764196Y-5248890D01*
X37875370Y-4930746D01*
X37950223Y-4602155D01*
X37987816Y-4267250D01*
X37987675Y-3930240D01*
X37949802Y-3595367D01*
X37874674Y-3266839D01*
X37853898Y-3207546D01*
X37813530Y-3092335D01*
X37763233Y-2948788D01*
X37616884Y-2645214D01*
X37437464Y-2359936D01*
X37227232Y-2096539D01*
X37227228Y-2096535D01*
X37227221Y-2096527D01*
X36988843Y-1858348D01*
X36988837Y-1858343D01*
X36988832Y-1858338D01*
X36939637Y-1819140D01*
X36725272Y-1648335D01*
X36725246Y-1648317D01*
X36439841Y-1469151D01*
X36432877Y-1465801D01*
X36276540Y-1390593D01*
X36136134Y-1323049D01*
X35918653Y-1247052D01*
X35817991Y-1211876D01*
X35817985Y-1211874D01*
X35817983Y-1211874D01*
X35742412Y-1194659D01*
X35489401Y-1137023D01*
X35489395Y-1137022D01*
X35489394Y-1137022D01*
X35154499Y-1099430D01*
X35154496Y-1099430D01*
X35154074Y-1099430D01*
X34817498Y-1099570D01*
X34817489Y-1099570D01*
X34817486Y-1099571D01*
X34666420Y-1116656D01*
X34482617Y-1137443D01*
X34482613Y-1137443D01*
X34482612Y-1137444D01*
X34391220Y-1158343D01*
X34154078Y-1212573D01*
X33836043Y-1324008D01*
X33836040Y-1324010D01*
X33836035Y-1324012D01*
X33836033Y-1324013D01*
X33782128Y-1350000D01*
X33532465Y-1470359D01*
X33532455Y-1470365D01*
X33247186Y-1649778D01*
X33247180Y-1649782D01*
X32983789Y-1860010D01*
X32983781Y-1860017D01*
X17508340Y-17348412D01*
X17508328Y-17348426D01*
X17298335Y-17611973D01*
X17298317Y-17611999D01*
X17119147Y-17897411D01*
X16973052Y-18201102D01*
X16861877Y-18519252D01*
X16861874Y-18519262D01*
X16787022Y-18847851D01*
X16749430Y-19182746D01*
X10505500Y-19182746D01*
X10505500Y-11224000D01*
X10493947Y-11116544D01*
X10482741Y-11065033D01*
X10482637Y-11064722D01*
X10448616Y-10962502D01*
X10448613Y-10962496D01*
X10370828Y-10841462D01*
X10370825Y-10841457D01*
X10353786Y-10821793D01*
X10325076Y-10788659D01*
X10325072Y-10788656D01*
X10325070Y-10788653D01*
X10216336Y-10694433D01*
X10216333Y-10694431D01*
X10216331Y-10694430D01*
X10085465Y-10634664D01*
X10085460Y-10634662D01*
X10085459Y-10634662D01*
X10018420Y-10614977D01*
X10018422Y-10614977D01*
X10018417Y-10614976D01*
X9956354Y-10606053D01*
X9876000Y-10594500D01*
X-11625500Y-10594500D01*
X-11692539Y-10574815D01*
X-11738294Y-10522011D01*
X-11749500Y-10470500D01*
X-11749500Y-7485258D01*
X-11761798Y-7391855D01*
X-11761798Y-7391854D01*
X-11779450Y-7257766D01*
X-11779451Y-7257761D01*
X-11838844Y-7036106D01*
X-11926650Y-6824120D01*
X-11926655Y-6824111D01*
X-11955338Y-6774431D01*
X-11984022Y-6724750D01*
X-12041384Y-6625395D01*
X-12041390Y-6625387D01*
X-12111235Y-6534363D01*
X-12181078Y-6443340D01*
X-12181084Y-6443333D01*
X-15274418Y-3349999D01*
X-10500000Y-3349999D01*
X-10497751Y-3448269D01*
X-10459408Y-3641032D01*
X-10384196Y-3822611D01*
X-10275004Y-3986028D01*
X-10136029Y-4125003D01*
X-9972612Y-4234195D01*
X-9972605Y-4234197D01*
X-9972605Y-4234198D01*
X-9931467Y-4251237D01*
X-9791033Y-4309407D01*
X-9598270Y-4347750D01*
X-9500000Y-4349999D01*
X-2750000Y-4350000D01*
X-2651730Y-4347751D01*
X-2458967Y-4309408D01*
X-2396158Y-4283392D01*
X-2277394Y-4234199D01*
X-2277381Y-4234192D01*
X-2113971Y-4125004D01*
X-2113967Y-4125001D01*
X-1974998Y-3986032D01*
X-1974995Y-3986028D01*
X-1865807Y-3822618D01*
X-1865800Y-3822605D01*
X-1790593Y-3641037D01*
X-1790590Y-3641025D01*
X-1752250Y-3448276D01*
X-1752249Y-3448274D01*
X-1752249Y-3448270D01*
X-1750000Y-3350000D01*
X-1750000Y-2350001D01*
X-1752249Y-2251731D01*
X-1752250Y-2251724D01*
X-1790590Y-2058975D01*
X-1790593Y-2058963D01*
X-1865800Y-1877395D01*
X-1865807Y-1877382D01*
X-1974995Y-1713972D01*
X-1974998Y-1713968D01*
X-2113967Y-1574999D01*
X-2113971Y-1574996D01*
X-2277381Y-1465808D01*
X-2277394Y-1465801D01*
X-2458962Y-1390594D01*
X-2458974Y-1390591D01*
X-2651723Y-1352251D01*
X-2651725Y-1352250D01*
X-2651730Y-1352250D01*
X-2712457Y-1350860D01*
X-2750021Y-1350000D01*
X-9499979Y-1350000D01*
X-9500000Y-1350000D01*
X-9598270Y-1352249D01*
X-9598274Y-1352249D01*
X-9598276Y-1352250D01*
X-9791025Y-1390590D01*
X-9791037Y-1390593D01*
X-9972605Y-1465800D01*
X-9972618Y-1465807D01*
X-10136028Y-1574995D01*
X-10136032Y-1574998D01*
X-10275001Y-1713967D01*
X-10275004Y-1713971D01*
X-10384192Y-1877381D01*
X-10384199Y-1877394D01*
X-10384199Y-1877395D01*
X-10459408Y-2058967D01*
X-10497751Y-2251730D01*
X-10500000Y-2350000D01*
X-10500000Y-3349999D01*
X-15274418Y-3349999D01*
X-17713181Y-911236D01*
X-17746666Y-849913D01*
X-17749500Y-823555D01*
X-17749500Y197870D01*
X-17749501Y197876D01*
X-17755908Y257483D01*
X-17806202Y392328D01*
X-17806206Y392335D01*
X-17892452Y507544D01*
X-17892455Y507547D01*
X-18007664Y593793D01*
X-18007671Y593797D01*
X-18142517Y644091D01*
X-18142516Y644091D01*
X-18148925Y644779D01*
X-18202127Y650500D01*
X-21297872Y650499D01*
X-21357483Y644091D01*
X-21492331Y593796D01*
X-21607546Y507546D01*
X-21693796Y392331D01*
X-21744091Y257483D01*
X-21750500Y197873D01*
X-21750499Y-2897872D01*
X-21744091Y-2957483D01*
X-21693796Y-3092331D01*
X-21607546Y-3207546D01*
X-21492331Y-3293796D01*
X-21357483Y-3344091D01*
X-21297873Y-3350500D01*
X-20276441Y-3350499D01*
X-20209403Y-3370183D01*
X-20188766Y-3386813D01*
X-15286817Y-8288763D01*
X-15253334Y-8350084D01*
X-15250500Y-8376442D01*
X-15250500Y-10470500D01*
X-15270185Y-10537539D01*
X-15322989Y-10583294D01*
X-15374500Y-10594500D01*
X-31712513Y-10594500D01*
X-31730495Y-10594820D01*
X-31737501Y-10595070D01*
X-31739386Y-10595138D01*
X-31739391Y-10595138D01*
X-31739411Y-10595139D01*
X-31757397Y-10596103D01*
X-31757412Y-10596105D01*
X-31897988Y-10626686D01*
X-31897991Y-10626687D01*
X-31897995Y-10626688D01*
X-31919379Y-10634664D01*
X-31963460Y-10651105D01*
X-31963464Y-10651107D01*
X-32042809Y-10694433D01*
X-32089734Y-10720056D01*
X-32153088Y-10783409D01*
X-32214411Y-10816892D01*
X-32284102Y-10811906D01*
X-32328448Y-10783406D01*
X-36888181Y-6223674D01*
X-36921666Y-6162351D01*
X-36924500Y-6135993D01*
X-36924500Y-4318327D01*
X-36904815Y-4251288D01*
X-36852011Y-4205533D01*
X-36782853Y-4195589D01*
X-36719297Y-4224614D01*
X-36681523Y-4283392D01*
X-36676847Y-4309061D01*
X-36676152Y-4318327D01*
X-36673467Y-4354157D01*
X-36616753Y-4602637D01*
X-36523638Y-4839888D01*
X-36396204Y-5060612D01*
X-36237295Y-5259877D01*
X-36050462Y-5433232D01*
X-35839879Y-5576805D01*
X-35610249Y-5687389D01*
X-35366703Y-5762513D01*
X-35114680Y-5800500D01*
X-34859810Y-5800500D01*
X-34607787Y-5762513D01*
X-34364241Y-5687389D01*
X-34340153Y-5675788D01*
X-34134618Y-5576809D01*
X-34134617Y-5576808D01*
X-34134616Y-5576807D01*
X-34134611Y-5576805D01*
X-33924028Y-5433232D01*
X-33737195Y-5259877D01*
X-33578286Y-5060612D01*
X-33450852Y-4839888D01*
X-33357737Y-4602637D01*
X-33357625Y-4602150D01*
X-33301022Y-4354154D01*
X-33281977Y-4100004D01*
X-33281977Y-4099995D01*
X-33301022Y-3845845D01*
X-33357735Y-3597369D01*
X-33357737Y-3597362D01*
X-33450853Y-3360109D01*
X-33578286Y-3139388D01*
X-33737195Y-2940123D01*
X-33737197Y-2940121D01*
X-33924027Y-2766768D01*
X-34134617Y-2623191D01*
X-34134618Y-2623190D01*
X-34364238Y-2512612D01*
X-34364236Y-2512612D01*
X-34607778Y-2437489D01*
X-34607784Y-2437488D01*
X-34607783Y-2437488D01*
X-34607787Y-2437487D01*
X-34702854Y-2423157D01*
X-34859804Y-2399500D01*
X-34859810Y-2399500D01*
X-35114680Y-2399500D01*
X-35114685Y-2399500D01*
X-35245476Y-2419214D01*
X-35366703Y-2437487D01*
X-35366707Y-2437488D01*
X-35366711Y-2437489D01*
X-35610252Y-2512612D01*
X-35839871Y-2623190D01*
X-35839872Y-2623191D01*
X-35839875Y-2623193D01*
X-35839879Y-2623195D01*
X-36050462Y-2766768D01*
X-36237295Y-2940123D01*
X-36396204Y-3139388D01*
X-36523638Y-3360112D01*
X-36616753Y-3597363D01*
X-36626718Y-3641025D01*
X-36673467Y-3845845D01*
X-36676847Y-3890938D01*
X-36701486Y-3956319D01*
X-36757561Y-3998000D01*
X-36827270Y-4002748D01*
X-36888479Y-3969055D01*
X-36921755Y-3907618D01*
X-36924500Y-3881672D01*
X-36924500Y7471233D01*
X-36958143Y7640366D01*
X-36958146Y7640378D01*
X-37024138Y7799698D01*
X-37024145Y7799711D01*
X-37119953Y7943097D01*
X-37139182Y7962326D01*
X-37241901Y8065045D01*
X-39588181Y10411325D01*
X-39621666Y10472648D01*
X-39624500Y10499006D01*
X-39624500Y11835500D01*
X-39604815Y11902539D01*
X-39552011Y11948294D01*
X-39500500Y11959500D01*
X-38325166Y11959500D01*
X-38222361Y11970003D01*
X-38055782Y12025202D01*
X-38055777Y12025204D01*
X-37906417Y12117331D01*
X-37782331Y12241417D01*
X-37690204Y12390777D01*
X-37690202Y12390782D01*
X-37635003Y12557361D01*
X-37624500Y12660166D01*
X-37624500Y14059833D01*
X-37635003Y14162638D01*
X-37690202Y14329217D01*
X-37690204Y14329222D01*
X-37782331Y14478582D01*
X-37906417Y14602668D01*
X-37906419Y14602670D01*
X-38039529Y14684773D01*
X-38086252Y14736720D01*
X-38097475Y14805683D01*
X-38069631Y14869765D01*
X-38065661Y14874293D01*
X-37916018Y15036849D01*
X-37789075Y15231151D01*
X-37695842Y15443699D01*
X-37638866Y15668691D01*
X-37638864Y15668702D01*
X-37619700Y15899993D01*
X-37619700Y15900006D01*
X-37638864Y16131297D01*
X-37638866Y16131308D01*
X-37695842Y16356300D01*
X-37789075Y16568848D01*
X-37916016Y16763147D01*
X-37916019Y16763151D01*
X-37916021Y16763153D01*
X-38073216Y16933913D01*
X-38073222Y16933918D01*
X-38250818Y17072147D01*
X-38291631Y17128857D01*
X-38295306Y17198630D01*
X-38260674Y17259313D01*
X-38250818Y17267853D01*
X-38073222Y17406081D01*
X-38073219Y17406084D01*
X-37916016Y17576852D01*
X-37789075Y17771151D01*
X-37695842Y17983699D01*
X-37638866Y18208691D01*
X-37638864Y18208702D01*
X-37619700Y18439993D01*
X-37619700Y18440006D01*
X-37638864Y18671297D01*
X-37638866Y18671308D01*
X-37695842Y18896300D01*
X-37789075Y19108848D01*
X-37916016Y19303147D01*
X-37916019Y19303151D01*
X-37916021Y19303153D01*
X-38073216Y19473913D01*
X-38116529Y19507625D01*
X-38256365Y19616464D01*
X-38256371Y19616468D01*
X-38256372Y19616468D01*
X-38256374Y19616470D01*
X-38460497Y19726936D01*
X-38574487Y19766068D01*
X-38680015Y19802297D01*
X-38680017Y19802297D01*
X-38680019Y19802298D01*
X-38908951Y19840500D01*
X-39141049Y19840500D01*
X-39369981Y19802298D01*
X-39589503Y19726936D01*
X-39793626Y19616470D01*
X-39976784Y19473913D01*
X-40133979Y19303153D01*
X-40260924Y19108849D01*
X-40260924Y19108848D01*
X-40354157Y18896300D01*
X-40411133Y18671308D01*
X-40411135Y18671297D01*
X-40430300Y18440006D01*
X-40430300Y18439995D01*
X-40422255Y18342914D01*
X-40436335Y18274477D01*
X-40458146Y18244996D01*
X-40788321Y17914822D01*
X-40849643Y17881338D01*
X-40919335Y17886322D01*
X-40975268Y17928194D01*
X-40999685Y17993658D01*
X-41000001Y18002504D01*
X-41000001Y19227139D01*
X-40999969Y19229971D01*
X-40998002Y19316066D01*
X-40995652Y19337421D01*
X-40961801Y19507631D01*
X-40954745Y19530894D01*
X-40888884Y19689907D01*
X-40877425Y19711347D01*
X-40781803Y19854459D01*
X-40766382Y19873250D01*
X-40644676Y19994957D01*
X-40625883Y20010379D01*
X-40482776Y20105997D01*
X-40461337Y20117456D01*
X-40302320Y20183319D01*
X-40279057Y20190375D01*
X-40108848Y20224226D01*
X-40087493Y20226576D01*
X-40001399Y20228543D01*
X-39998567Y20228575D01*
X-38171873Y20228575D01*
X-38168858Y20228538D01*
G37*
%TD.AperFunction*%
%TD*%
%TA.AperFunction,Conductor*%
%TO.N,GND*%
G36*
X-15307461Y-11119685D02*
G01*
X-15261706Y-11172489D01*
X-15250500Y-11224000D01*
X-15250500Y-26364734D01*
X-15220548Y-26592238D01*
X-15161158Y-26813887D01*
X-15073344Y-27025888D01*
X-14958611Y-27224612D01*
X-14818919Y-27406661D01*
X-14818914Y-27406665D01*
X-14818911Y-27406670D01*
X-14656670Y-27568911D01*
X-14656665Y-27568914D01*
X-14656661Y-27568919D01*
X-14474612Y-27708611D01*
X-14275888Y-27823344D01*
X-14063887Y-27911158D01*
X-13842238Y-27970548D01*
X-13614734Y-28000500D01*
X-13614727Y-28000500D01*
X-13385273Y-28000500D01*
X-13385266Y-28000500D01*
X-13157762Y-27970548D01*
X-12936113Y-27911158D01*
X-12815480Y-27861190D01*
X-12724123Y-27823349D01*
X-12724117Y-27823346D01*
X-12724112Y-27823344D01*
X-12525388Y-27708611D01*
X-12525385Y-27708608D01*
X-12525382Y-27708607D01*
X-12382183Y-27598725D01*
X-12343339Y-27568919D01*
X-12343338Y-27568918D01*
X-12343330Y-27568911D01*
X-12181089Y-27406670D01*
X-12181081Y-27406661D01*
X-12041392Y-27224617D01*
X-11926657Y-27025890D01*
X-11926650Y-27025876D01*
X-11838842Y-26813887D01*
X-11779453Y-26592240D01*
X-11779452Y-26592238D01*
X-11774446Y-26554215D01*
X-11749500Y-26364741D01*
X-11749500Y-25474991D01*
X-6350500Y-25474991D01*
X-6350499Y-27025008D01*
X-6339999Y-27127797D01*
X-6284814Y-27294334D01*
X-6192712Y-27443656D01*
X-6068656Y-27567712D01*
X-5919334Y-27659814D01*
X-5752797Y-27714999D01*
X-5650009Y-27725500D01*
X-4349992Y-27725499D01*
X-4349983Y-27725498D01*
X-4349981Y-27725498D01*
X-4247203Y-27714999D01*
X-4247200Y-27714998D01*
X-4080666Y-27659814D01*
X-3931344Y-27567712D01*
X-3807288Y-27443656D01*
X-3715186Y-27294334D01*
X-3715185Y-27294333D01*
X-3711821Y-27288878D01*
X-3659873Y-27242154D01*
X-3590910Y-27230931D01*
X-3526828Y-27258775D01*
X-3518623Y-27266272D01*
X-3379792Y-27405104D01*
X-3207816Y-27530051D01*
X-3018412Y-27626557D01*
X-2816243Y-27692246D01*
X-2606287Y-27725500D01*
X-2606286Y-27725500D01*
X-2393714Y-27725500D01*
X-2393713Y-27725500D01*
X-2183757Y-27692246D01*
X-1981588Y-27626557D01*
X-1792184Y-27530051D01*
X-1792181Y-27530049D01*
X-1792179Y-27530048D01*
X-1620213Y-27405109D01*
X-1469890Y-27254786D01*
X-1344951Y-27082820D01*
X-1248444Y-26893414D01*
X-1182753Y-26691239D01*
X-1149500Y-26481286D01*
X-1149500Y-26018713D01*
X-1182753Y-25808760D01*
X-1248444Y-25606585D01*
X-1344951Y-25417179D01*
X-1469890Y-25245213D01*
X-1620213Y-25094890D01*
X-1792179Y-24969951D01*
X-1981585Y-24873444D01*
X-2183760Y-24807753D01*
X-2183759Y-24807753D01*
X-2354202Y-24780757D01*
X-2393713Y-24774500D01*
X-2606287Y-24774500D01*
X-2669644Y-24784534D01*
X-2816239Y-24807753D01*
X-2816241Y-24807753D01*
X-2816243Y-24807754D01*
X-3018412Y-24873443D01*
X-3018413Y-24873443D01*
X-3018414Y-24873444D01*
X-3207820Y-24969951D01*
X-3379786Y-25094890D01*
X-3518601Y-25233705D01*
X-3579924Y-25267190D01*
X-3649616Y-25262206D01*
X-3705549Y-25220334D01*
X-3711821Y-25211121D01*
X-3807289Y-25056342D01*
X-3931342Y-24932289D01*
X-4080663Y-24840187D01*
X-4080668Y-24840185D01*
X-4178542Y-24807753D01*
X-4247203Y-24785001D01*
X-4247204Y-24785000D01*
X-4349989Y-24774500D01*
X-5650001Y-24774500D01*
X-5650018Y-24774501D01*
X-5752796Y-24785000D01*
X-5752799Y-24785001D01*
X-5919331Y-24840185D01*
X-5919334Y-24840186D01*
X-6068656Y-24932288D01*
X-6192712Y-25056344D01*
X-6284814Y-25205666D01*
X-6339999Y-25372203D01*
X-6350500Y-25474991D01*
X-11749500Y-25474991D01*
X-11749500Y-11224000D01*
X-11729815Y-11156961D01*
X-11677011Y-11111206D01*
X-11625500Y-11100000D01*
X9876000Y-11100000D01*
X9943039Y-11119685D01*
X9988794Y-11172489D01*
X10000000Y-11224000D01*
X10000000Y-24795733D01*
X9980315Y-24862772D01*
X9941101Y-24901269D01*
X9931346Y-24907286D01*
X9931343Y-24907288D01*
X9807289Y-25031342D01*
X9715187Y-25180663D01*
X9715185Y-25180668D01*
X9693797Y-25245213D01*
X9660001Y-25347203D01*
X9660001Y-25347204D01*
X9660000Y-25347204D01*
X9649500Y-25449983D01*
X9649500Y-27050001D01*
X9649501Y-27050018D01*
X9660000Y-27152796D01*
X9660001Y-27152799D01*
X9697610Y-27266294D01*
X9715186Y-27319334D01*
X9807288Y-27468656D01*
X9931344Y-27592712D01*
X9941095Y-27598726D01*
X9987820Y-27650671D01*
X10000000Y-27704265D01*
X10000000Y-32147425D01*
X9980315Y-32214464D01*
X9927511Y-32260219D01*
X9876000Y-32271425D01*
X-1994378Y-32271425D01*
X-2061417Y-32251740D01*
X-2107172Y-32198936D01*
X-2117116Y-32129778D01*
X-2088091Y-32066222D01*
X-2063269Y-32044323D01*
X-2041901Y-32030045D01*
X-2041897Y-32030042D01*
X85999Y-29902143D01*
X2235890Y-27752252D01*
X2297211Y-27718769D01*
X2342966Y-27717462D01*
X2393713Y-27725500D01*
X2393714Y-27725500D01*
X2606286Y-27725500D01*
X2606287Y-27725500D01*
X2816243Y-27692246D01*
X3018412Y-27626557D01*
X3207816Y-27530051D01*
X3229789Y-27514086D01*
X3379786Y-27405109D01*
X3379788Y-27405106D01*
X3379792Y-27405104D01*
X3530104Y-27254792D01*
X3649683Y-27090204D01*
X3705011Y-27047540D01*
X3774624Y-27041561D01*
X3836420Y-27074166D01*
X3850313Y-27090199D01*
X3947969Y-27224612D01*
X3969896Y-27254792D01*
X4120213Y-27405109D01*
X4292179Y-27530048D01*
X4292181Y-27530049D01*
X4292184Y-27530051D01*
X4481588Y-27626557D01*
X4683757Y-27692246D01*
X4893713Y-27725500D01*
X4893714Y-27725500D01*
X5106286Y-27725500D01*
X5106287Y-27725500D01*
X5316243Y-27692246D01*
X5518412Y-27626557D01*
X5707816Y-27530051D01*
X5729789Y-27514086D01*
X5879786Y-27405109D01*
X5879788Y-27405106D01*
X5879792Y-27405104D01*
X6030104Y-27254792D01*
X6030106Y-27254788D01*
X6030109Y-27254786D01*
X6155048Y-27082820D01*
X6155047Y-27082820D01*
X6155051Y-27082816D01*
X6251557Y-26893412D01*
X6317246Y-26691243D01*
X6350500Y-26481287D01*
X6350500Y-26018713D01*
X6317246Y-25808757D01*
X6251557Y-25606588D01*
X6155051Y-25417184D01*
X6155049Y-25417181D01*
X6155048Y-25417179D01*
X6030109Y-25245213D01*
X5879786Y-25094890D01*
X5707820Y-24969951D01*
X5518414Y-24873444D01*
X5518413Y-24873443D01*
X5518412Y-24873443D01*
X5316243Y-24807754D01*
X5316241Y-24807753D01*
X5316240Y-24807753D01*
X5154957Y-24782208D01*
X5106287Y-24774500D01*
X4893713Y-24774500D01*
X4845042Y-24782208D01*
X4683760Y-24807753D01*
X4481585Y-24873444D01*
X4292179Y-24969951D01*
X4120213Y-25094890D01*
X3969894Y-25245209D01*
X3969890Y-25245214D01*
X3850318Y-25409793D01*
X3794989Y-25452459D01*
X3725375Y-25458438D01*
X3663580Y-25425833D01*
X3649682Y-25409793D01*
X3530109Y-25245214D01*
X3530105Y-25245209D01*
X3379786Y-25094890D01*
X3207820Y-24969951D01*
X3018414Y-24873444D01*
X3018413Y-24873443D01*
X3018412Y-24873443D01*
X2816243Y-24807754D01*
X2816241Y-24807753D01*
X2816240Y-24807753D01*
X2654957Y-24782208D01*
X2606287Y-24774500D01*
X2393713Y-24774500D01*
X2345042Y-24782208D01*
X2183760Y-24807753D01*
X1981585Y-24873444D01*
X1792179Y-24969951D01*
X1620213Y-25094890D01*
X1469890Y-25245213D01*
X1344951Y-25417179D01*
X1248444Y-25606585D01*
X1182753Y-25808760D01*
X1149500Y-26018713D01*
X1149500Y-26310994D01*
X1129815Y-26378033D01*
X1113181Y-26398675D01*
X-2926325Y-30438181D01*
X-2987648Y-30471666D01*
X-3014006Y-30474500D01*
X-12585994Y-30474500D01*
X-12653033Y-30454815D01*
X-12673675Y-30438181D01*
X-31800175Y-11311681D01*
X-31833660Y-11250358D01*
X-31828676Y-11180666D01*
X-31786804Y-11124733D01*
X-31721340Y-11100316D01*
X-31712494Y-11100000D01*
X-15374500Y-11100000D01*
X-15307461Y-11119685D01*
G37*
%TD.AperFunction*%
%TD*%
M02*
