%TF.GenerationSoftware,KiCad,Pcbnew,8.0.1*%
%TF.CreationDate,2024-05-25T23:16:20+09:00*%
%TF.ProjectId,Kicker-20240411,4b69636b-6572-42d3-9230-323430343131,rev?*%
%TF.SameCoordinates,Original*%
%TF.FileFunction,Soldermask,Bot*%
%TF.FilePolarity,Negative*%
%FSLAX46Y46*%
G04 Gerber Fmt 4.6, Leading zero omitted, Abs format (unit mm)*
G04 Created by KiCad (PCBNEW 8.0.1) date 2024-05-25 23:16:20*
%MOMM*%
%LPD*%
G01*
G04 APERTURE LIST*
G04 Aperture macros list*
%AMRoundRect*
0 Rectangle with rounded corners*
0 $1 Rounding radius*
0 $2 $3 $4 $5 $6 $7 $8 $9 X,Y pos of 4 corners*
0 Add a 4 corners polygon primitive as box body*
4,1,4,$2,$3,$4,$5,$6,$7,$8,$9,$2,$3,0*
0 Add four circle primitives for the rounded corners*
1,1,$1+$1,$2,$3*
1,1,$1+$1,$4,$5*
1,1,$1+$1,$6,$7*
1,1,$1+$1,$8,$9*
0 Add four rect primitives between the rounded corners*
20,1,$1+$1,$2,$3,$4,$5,0*
20,1,$1+$1,$4,$5,$6,$7,0*
20,1,$1+$1,$6,$7,$8,$9,0*
20,1,$1+$1,$8,$9,$2,$3,0*%
G04 Aperture macros list end*
%ADD10R,2.400000X2.400000*%
%ADD11C,2.400000*%
%ADD12RoundRect,0.250000X-0.600000X-0.750000X0.600000X-0.750000X0.600000X0.750000X-0.600000X0.750000X0*%
%ADD13O,1.700000X2.000000*%
%ADD14RoundRect,0.250200X-0.649800X0.649800X-0.649800X-0.649800X0.649800X-0.649800X0.649800X0.649800X0*%
%ADD15C,1.800000*%
%ADD16RoundRect,0.250000X-0.600000X-0.725000X0.600000X-0.725000X0.600000X0.725000X-0.600000X0.725000X0*%
%ADD17O,1.700000X1.950000*%
%ADD18RoundRect,0.250200X0.649800X-0.649800X0.649800X0.649800X-0.649800X0.649800X-0.649800X-0.649800X0*%
%ADD19RoundRect,0.225000X-0.225000X-0.250000X0.225000X-0.250000X0.225000X0.250000X-0.225000X0.250000X0*%
%ADD20R,2.000000X0.640000*%
%ADD21RoundRect,0.250000X0.350000X-0.850000X0.350000X0.850000X-0.350000X0.850000X-0.350000X-0.850000X0*%
%ADD22RoundRect,0.249997X2.650003X-2.950003X2.650003X2.950003X-2.650003X2.950003X-2.650003X-2.950003X0*%
%ADD23RoundRect,0.200000X0.200000X0.275000X-0.200000X0.275000X-0.200000X-0.275000X0.200000X-0.275000X0*%
%ADD24RoundRect,0.243750X-0.243750X-0.456250X0.243750X-0.456250X0.243750X0.456250X-0.243750X0.456250X0*%
%ADD25R,1.000000X1.500000*%
%ADD26RoundRect,0.200000X-0.200000X-0.275000X0.200000X-0.275000X0.200000X0.275000X-0.200000X0.275000X0*%
%ADD27RoundRect,0.225000X0.225000X0.250000X-0.225000X0.250000X-0.225000X-0.250000X0.225000X-0.250000X0*%
%ADD28RoundRect,0.150000X-0.512500X-0.150000X0.512500X-0.150000X0.512500X0.150000X-0.512500X0.150000X0*%
G04 APERTURE END LIST*
D10*
%TO.C,C3*%
X152512755Y-98000000D03*
D11*
X145012755Y-98000000D03*
%TD*%
D12*
%TO.C,J1*%
X182500000Y-121650000D03*
D13*
X185000000Y-121650000D03*
%TD*%
D14*
%TO.C,U3*%
X219025000Y-75460000D03*
D15*
X219025000Y-78000000D03*
X219025000Y-80540000D03*
%TD*%
D16*
%TO.C,J2*%
X166250000Y-121650000D03*
D17*
X168750000Y-121650000D03*
X171250000Y-121650000D03*
X173750000Y-121650000D03*
X176250000Y-121650000D03*
%TD*%
D12*
%TO.C,J3*%
X191250000Y-121650000D03*
D13*
X193750000Y-121650000D03*
%TD*%
D18*
%TO.C,U4*%
X140975000Y-80540000D03*
D15*
X140975000Y-78000000D03*
X140975000Y-75460000D03*
%TD*%
D10*
%TO.C,C4*%
X207487246Y-98000000D03*
D11*
X214987246Y-98000000D03*
%TD*%
D19*
%TO.C,C6*%
X143225000Y-87500000D03*
X144775000Y-87500000D03*
%TD*%
D20*
%TO.C,D2*%
X168100000Y-117770000D03*
X168100000Y-115230000D03*
X174400000Y-115230000D03*
X174400000Y-116500000D03*
X174400000Y-117770000D03*
%TD*%
D21*
%TO.C,Q1*%
X190405000Y-117890000D03*
D22*
X188125000Y-111590000D03*
D21*
X185845000Y-117890000D03*
%TD*%
D23*
%TO.C,R4*%
X144825000Y-85750000D03*
X143175000Y-85750000D03*
%TD*%
D24*
%TO.C,D3*%
X154062500Y-110500000D03*
X155937500Y-110500000D03*
%TD*%
D25*
%TO.C,JP1*%
X181062500Y-110800000D03*
X182362500Y-110800000D03*
%TD*%
D26*
%TO.C,R3*%
X215175000Y-85750000D03*
X216825000Y-85750000D03*
%TD*%
D27*
%TO.C,C2*%
X173775000Y-124500000D03*
X172225000Y-124500000D03*
%TD*%
D26*
%TO.C,R2*%
X154175000Y-112500000D03*
X155825000Y-112500000D03*
%TD*%
D25*
%TO.C,JP2*%
X181062500Y-113300000D03*
X182362500Y-113300000D03*
%TD*%
D27*
%TO.C,C5*%
X216775000Y-87500000D03*
X215225000Y-87500000D03*
%TD*%
D28*
%TO.C,U2*%
X178787500Y-117450000D03*
X178787500Y-116500000D03*
X178787500Y-115550000D03*
X181062500Y-115550000D03*
X181062500Y-117450000D03*
%TD*%
D23*
%TO.C,R1*%
X188950000Y-120275000D03*
X187300000Y-120275000D03*
%TD*%
M02*
