%TF.GenerationSoftware,KiCad,Pcbnew,8.0.1*%
%TF.CreationDate,2024-05-24T22:30:20+09:00*%
%TF.ProjectId,Kicker-20240411,4b69636b-6572-42d3-9230-323430343131,rev?*%
%TF.SameCoordinates,Original*%
%TF.FileFunction,Copper,L1,Top*%
%TF.FilePolarity,Positive*%
%FSLAX46Y46*%
G04 Gerber Fmt 4.6, Leading zero omitted, Abs format (unit mm)*
G04 Created by KiCad (PCBNEW 8.0.1) date 2024-05-24 22:30:20*
%MOMM*%
%LPD*%
G01*
G04 APERTURE LIST*
G04 Aperture macros list*
%AMRoundRect*
0 Rectangle with rounded corners*
0 $1 Rounding radius*
0 $2 $3 $4 $5 $6 $7 $8 $9 X,Y pos of 4 corners*
0 Add a 4 corners polygon primitive as box body*
4,1,4,$2,$3,$4,$5,$6,$7,$8,$9,$2,$3,0*
0 Add four circle primitives for the rounded corners*
1,1,$1+$1,$2,$3*
1,1,$1+$1,$4,$5*
1,1,$1+$1,$6,$7*
1,1,$1+$1,$8,$9*
0 Add four rect primitives between the rounded corners*
20,1,$1+$1,$2,$3,$4,$5,0*
20,1,$1+$1,$4,$5,$6,$7,0*
20,1,$1+$1,$6,$7,$8,$9,0*
20,1,$1+$1,$8,$9,$2,$3,0*%
G04 Aperture macros list end*
%TA.AperFunction,ComponentPad*%
%ADD10R,2.400000X2.400000*%
%TD*%
%TA.AperFunction,ComponentPad*%
%ADD11C,2.400000*%
%TD*%
%TA.AperFunction,SMDPad,CuDef*%
%ADD12R,3.000000X3.000000*%
%TD*%
%TA.AperFunction,ComponentPad*%
%ADD13RoundRect,0.250000X-0.600000X-0.750000X0.600000X-0.750000X0.600000X0.750000X-0.600000X0.750000X0*%
%TD*%
%TA.AperFunction,ComponentPad*%
%ADD14O,1.700000X2.000000*%
%TD*%
%TA.AperFunction,ComponentPad*%
%ADD15RoundRect,0.250200X-0.649800X0.649800X-0.649800X-0.649800X0.649800X-0.649800X0.649800X0.649800X0*%
%TD*%
%TA.AperFunction,ComponentPad*%
%ADD16C,1.800000*%
%TD*%
%TA.AperFunction,ComponentPad*%
%ADD17RoundRect,0.250000X-0.600000X-0.725000X0.600000X-0.725000X0.600000X0.725000X-0.600000X0.725000X0*%
%TD*%
%TA.AperFunction,ComponentPad*%
%ADD18O,1.700000X1.950000*%
%TD*%
%TA.AperFunction,ComponentPad*%
%ADD19RoundRect,0.250200X0.649800X-0.649800X0.649800X0.649800X-0.649800X0.649800X-0.649800X-0.649800X0*%
%TD*%
%TA.AperFunction,ViaPad*%
%ADD20C,0.800000*%
%TD*%
%TA.AperFunction,Conductor*%
%ADD21C,5.000000*%
%TD*%
%TA.AperFunction,Conductor*%
%ADD22C,0.500000*%
%TD*%
%TA.AperFunction,Conductor*%
%ADD23C,2.500000*%
%TD*%
G04 APERTURE END LIST*
D10*
%TO.P,C3,1*%
%TO.N,KickerPower*%
X152512755Y-98000000D03*
D11*
%TO.P,C3,2*%
%TO.N,GND*%
X145012755Y-98000000D03*
%TD*%
D12*
%TO.P,IN+,1,+IN*%
%TO.N,VCC*%
X160250000Y-96000000D03*
%TO.P,IN+,2,-IN*%
%TO.N,GND*%
X160250000Y-114000000D03*
%TO.P,IN+,3,+OUT*%
%TO.N,KickerPower*%
X199750000Y-96000000D03*
%TO.P,IN+,4,-OUT*%
%TO.N,GND*%
X199750000Y-114000000D03*
%TD*%
D13*
%TO.P,VIN,1,Pin_1*%
%TO.N,VCC*%
X182500000Y-121650000D03*
D14*
%TO.P,VIN,2,Pin_2*%
%TO.N,GND*%
X185000000Y-121650000D03*
%TD*%
D15*
%TO.P,U3,1,OUT*%
%TO.N,Net-(U3-OUT)*%
X219025000Y-75460000D03*
D16*
%TO.P,U3,2,GND*%
%TO.N,GND*%
X219025000Y-78000000D03*
%TO.P,U3,3,Vs*%
%TO.N,+3.3V*%
X219025000Y-80540000D03*
%TD*%
D17*
%TO.P,TO-MD,1,Pin_1*%
%TO.N,ball02k*%
X166250000Y-121650000D03*
D18*
%TO.P,TO-MD,2,Pin_2*%
%TO.N,KickerSignal-main*%
X168750000Y-121650000D03*
%TO.P,TO-MD,3,Pin_3*%
%TO.N,+3.3V*%
X171250000Y-121650000D03*
%TO.P,TO-MD,4,Pin_4*%
%TO.N,GND*%
X173750000Y-121650000D03*
%TO.P,TO-MD,5,Pin_5*%
%TO.N,ball01k*%
X176250000Y-121650000D03*
%TD*%
D13*
%TO.P,KI.,1,Pin_1*%
%TO.N,KickerPower*%
X191250000Y-121650000D03*
D14*
%TO.P,KI.,2,Pin_2*%
%TO.N,Net-(J3-Pin_2)*%
X193750000Y-121650000D03*
%TD*%
D16*
%TO.P,U4,3,Vs*%
%TO.N,+3.3V*%
X140975000Y-75460000D03*
%TO.P,U4,2,GND*%
%TO.N,GND*%
X140975000Y-78000000D03*
D19*
%TO.P,U4,1,OUT*%
%TO.N,Net-(U4-OUT)*%
X140975000Y-80540000D03*
%TD*%
D10*
%TO.P,C4,1*%
%TO.N,KickerPower*%
X207487246Y-98000000D03*
D11*
%TO.P,C4,2*%
%TO.N,GND*%
X214987246Y-98000000D03*
%TD*%
D20*
%TO.N,+3.3V*%
X177500000Y-118200000D03*
%TO.N,ball02k*%
X144000000Y-89000000D03*
%TD*%
D21*
%TO.N,GND*%
X214987246Y-98762754D02*
X214987246Y-98000000D01*
X199750000Y-114000000D02*
X214987246Y-98762754D01*
D22*
%TO.N,ball02k*%
X143362755Y-89637245D02*
X144000000Y-89000000D01*
X143362755Y-102862755D02*
X143362755Y-89637245D01*
X162150000Y-121650000D02*
X143362755Y-102862755D01*
X166250000Y-121650000D02*
X162150000Y-121650000D01*
%TO.N,+3.3V*%
X174700000Y-118200000D02*
X177500000Y-118200000D01*
X171250000Y-121650000D02*
X174700000Y-118200000D01*
D23*
%TO.N,VCC*%
X182500000Y-118250000D02*
X182500000Y-121650000D01*
X160250000Y-96000000D02*
X182500000Y-118250000D01*
%TD*%
%TA.AperFunction,Conductor*%
%TO.N,KickerPower*%
G36*
X141831118Y-73671461D02*
G01*
X141833143Y-73671509D01*
X141916911Y-73673521D01*
X141938039Y-73675853D01*
X142107802Y-73709518D01*
X142130986Y-73716527D01*
X142283002Y-73779285D01*
X142289574Y-73781998D01*
X142310963Y-73793390D01*
X142453779Y-73888449D01*
X142472544Y-73903784D01*
X142595217Y-74025873D01*
X142608932Y-74042088D01*
X142658685Y-74112327D01*
X142660137Y-74114423D01*
X143033861Y-74665718D01*
X143811224Y-75750644D01*
X144526503Y-76688857D01*
X144620405Y-76812025D01*
X145460709Y-77848949D01*
X145460724Y-77848966D01*
X146331393Y-78860500D01*
X147077330Y-79676852D01*
X147231689Y-79845782D01*
X148160807Y-80803935D01*
X149117931Y-81734115D01*
X149331827Y-81929996D01*
X150102226Y-82635511D01*
X151112813Y-83507317D01*
X152148795Y-84348762D01*
X153209250Y-85159096D01*
X153209270Y-85159110D01*
X153209280Y-85159118D01*
X154293333Y-85937674D01*
X155399996Y-86683740D01*
X156528297Y-87396662D01*
X157677242Y-88075811D01*
X158845822Y-88720590D01*
X160033009Y-89330432D01*
X160033030Y-89330442D01*
X161237768Y-89904806D01*
X162458983Y-90443180D01*
X162458996Y-90443185D01*
X162459009Y-90443191D01*
X163695689Y-90945130D01*
X164946710Y-91410175D01*
X165554101Y-91615675D01*
X166210958Y-91837913D01*
X167487349Y-92227978D01*
X167487360Y-92227981D01*
X168774755Y-92580022D01*
X170072024Y-92893733D01*
X170072029Y-92893734D01*
X170072033Y-92893735D01*
X170096159Y-92898817D01*
X171378024Y-93168835D01*
X172691609Y-93405089D01*
X173515697Y-93528199D01*
X174011633Y-93602287D01*
X174945934Y-93713649D01*
X175336901Y-93760250D01*
X176666282Y-93878846D01*
X177998596Y-93957968D01*
X177998598Y-93957968D01*
X177998614Y-93957969D01*
X179332654Y-93997546D01*
X180667330Y-93997546D01*
X180667346Y-93997546D01*
X182001385Y-93957969D01*
X182001399Y-93957968D01*
X182001404Y-93957968D01*
X183333718Y-93878846D01*
X184663099Y-93760250D01*
X185249549Y-93690348D01*
X185988366Y-93602287D01*
X186126952Y-93581583D01*
X187308391Y-93405089D01*
X188621976Y-93168835D01*
X189927976Y-92893733D01*
X191225245Y-92580022D01*
X192512640Y-92227981D01*
X193789029Y-91837917D01*
X195053290Y-91410175D01*
X196304311Y-90945130D01*
X197540991Y-90443191D01*
X198065077Y-90212147D01*
X198762231Y-89904806D01*
X198762235Y-89904803D01*
X198762242Y-89904801D01*
X199966991Y-89330432D01*
X200031764Y-89297159D01*
X220602467Y-89297159D01*
X220641802Y-89545515D01*
X220719509Y-89784669D01*
X220765593Y-89875112D01*
X220828958Y-89999474D01*
X220833669Y-90008718D01*
X220981464Y-90212142D01*
X220981468Y-90212147D01*
X221159278Y-90389957D01*
X221159283Y-90389961D01*
X221336721Y-90518876D01*
X221362711Y-90537759D01*
X221505475Y-90610501D01*
X221586756Y-90651916D01*
X221586758Y-90651916D01*
X221586761Y-90651918D01*
X221714950Y-90693569D01*
X221825910Y-90729623D01*
X222074267Y-90768959D01*
X222325730Y-90768959D01*
X222325735Y-90768959D01*
X222574091Y-90729623D01*
X222621456Y-90714233D01*
X222813241Y-90651918D01*
X223037291Y-90537759D01*
X223240725Y-90389956D01*
X223418532Y-90212149D01*
X223566335Y-90008715D01*
X223680494Y-89784665D01*
X223758199Y-89545515D01*
X223797535Y-89297154D01*
X223800001Y-89171425D01*
X223797535Y-89045696D01*
X223758199Y-88797335D01*
X223680494Y-88558185D01*
X223680492Y-88558182D01*
X223680492Y-88558180D01*
X223634433Y-88467785D01*
X223566335Y-88334135D01*
X223547452Y-88308145D01*
X223418537Y-88130707D01*
X223418533Y-88130702D01*
X223240723Y-87952892D01*
X223240718Y-87952888D01*
X223037294Y-87805093D01*
X223037293Y-87805092D01*
X223037291Y-87805091D01*
X222967323Y-87769440D01*
X222813245Y-87690933D01*
X222574091Y-87613226D01*
X222325735Y-87573891D01*
X222325730Y-87573891D01*
X222074272Y-87573891D01*
X222074267Y-87573891D01*
X221825910Y-87613226D01*
X221586756Y-87690933D01*
X221362707Y-87805093D01*
X221159283Y-87952888D01*
X221159278Y-87952892D01*
X220981468Y-88130702D01*
X220981464Y-88130707D01*
X220833669Y-88334131D01*
X220719509Y-88558180D01*
X220641802Y-88797334D01*
X220602467Y-89045690D01*
X220602467Y-89297159D01*
X200031764Y-89297159D01*
X201154178Y-88720590D01*
X202322758Y-88075811D01*
X203471703Y-87396662D01*
X204600004Y-86683740D01*
X205706667Y-85937674D01*
X206790720Y-85159118D01*
X207851209Y-84348758D01*
X208887200Y-83507306D01*
X209897783Y-82635503D01*
X210882069Y-81734115D01*
X211839193Y-80803935D01*
X212095124Y-80540006D01*
X217619700Y-80540006D01*
X217638864Y-80771297D01*
X217638866Y-80771308D01*
X217695842Y-80996300D01*
X217789075Y-81208848D01*
X217916016Y-81403147D01*
X217916019Y-81403151D01*
X217916021Y-81403153D01*
X218073216Y-81573913D01*
X218073219Y-81573915D01*
X218073222Y-81573918D01*
X218256365Y-81716464D01*
X218256371Y-81716468D01*
X218256374Y-81716470D01*
X218460497Y-81826936D01*
X218574487Y-81866068D01*
X218680015Y-81902297D01*
X218680017Y-81902297D01*
X218680019Y-81902298D01*
X218908951Y-81940500D01*
X218908952Y-81940500D01*
X219141048Y-81940500D01*
X219141049Y-81940500D01*
X219369981Y-81902298D01*
X219589503Y-81826936D01*
X219793626Y-81716470D01*
X219976784Y-81573913D01*
X220133979Y-81403153D01*
X220260924Y-81208849D01*
X220354157Y-80996300D01*
X220411134Y-80771305D01*
X220430300Y-80540000D01*
X220430300Y-80539993D01*
X220411135Y-80308702D01*
X220411133Y-80308691D01*
X220354157Y-80083699D01*
X220260924Y-79871151D01*
X220133983Y-79676852D01*
X220133980Y-79676849D01*
X220133979Y-79676847D01*
X219976784Y-79506087D01*
X219799180Y-79367853D01*
X219758368Y-79311143D01*
X219754693Y-79241370D01*
X219789324Y-79180687D01*
X219799181Y-79172146D01*
X219817631Y-79157786D01*
X219976784Y-79033913D01*
X220133979Y-78863153D01*
X220260924Y-78668849D01*
X220354157Y-78456300D01*
X220411134Y-78231305D01*
X220430300Y-78000000D01*
X220430300Y-77999993D01*
X220411135Y-77768702D01*
X220411133Y-77768691D01*
X220354157Y-77543699D01*
X220260924Y-77331151D01*
X220133983Y-77136852D01*
X220133980Y-77136849D01*
X220133979Y-77136847D01*
X219984336Y-76974291D01*
X219953416Y-76911639D01*
X219961276Y-76842213D01*
X220005424Y-76788058D01*
X220010434Y-76784795D01*
X220143581Y-76702670D01*
X220267670Y-76578581D01*
X220359797Y-76429220D01*
X220414996Y-76262638D01*
X220425500Y-76159826D01*
X220425500Y-74760174D01*
X220416287Y-74670001D01*
X220414996Y-74657361D01*
X220383588Y-74562577D01*
X220359797Y-74490780D01*
X220267670Y-74341419D01*
X220143581Y-74217330D01*
X219994220Y-74125203D01*
X219961688Y-74114423D01*
X219827638Y-74070003D01*
X219724833Y-74059500D01*
X219724826Y-74059500D01*
X218325174Y-74059500D01*
X218325166Y-74059500D01*
X218222361Y-74070003D01*
X218055782Y-74125202D01*
X218055777Y-74125204D01*
X217906417Y-74217331D01*
X217782331Y-74341417D01*
X217690204Y-74490777D01*
X217690202Y-74490782D01*
X217635003Y-74657361D01*
X217624500Y-74760166D01*
X217624500Y-76159833D01*
X217635003Y-76262638D01*
X217655054Y-76323147D01*
X217690203Y-76429220D01*
X217782330Y-76578581D01*
X217906419Y-76702670D01*
X218039529Y-76784773D01*
X218086252Y-76836720D01*
X218097475Y-76905683D01*
X218069631Y-76969765D01*
X218065661Y-76974293D01*
X217916018Y-77136849D01*
X217789075Y-77331151D01*
X217695842Y-77543699D01*
X217638866Y-77768691D01*
X217638864Y-77768702D01*
X217619700Y-77999993D01*
X217619700Y-78000006D01*
X217638864Y-78231297D01*
X217638866Y-78231308D01*
X217695842Y-78456300D01*
X217789075Y-78668848D01*
X217916016Y-78863147D01*
X217916019Y-78863151D01*
X217916021Y-78863153D01*
X218073216Y-79033913D01*
X218073219Y-79033915D01*
X218073222Y-79033918D01*
X218250818Y-79172147D01*
X218291631Y-79228857D01*
X218295306Y-79298630D01*
X218260674Y-79359313D01*
X218250818Y-79367853D01*
X218073222Y-79506081D01*
X218073219Y-79506084D01*
X217916016Y-79676852D01*
X217789075Y-79871151D01*
X217695842Y-80083699D01*
X217638866Y-80308691D01*
X217638864Y-80308702D01*
X217619700Y-80539993D01*
X217619700Y-80540006D01*
X212095124Y-80540006D01*
X212768311Y-79845782D01*
X213212819Y-79359313D01*
X213668606Y-78860500D01*
X214016518Y-78456300D01*
X214539291Y-77848949D01*
X215379595Y-76812025D01*
X216188779Y-75750640D01*
X216966134Y-74665725D01*
X217339923Y-74114332D01*
X217341275Y-74112380D01*
X217391559Y-74041288D01*
X217405516Y-74024813D01*
X217529828Y-73901639D01*
X217548848Y-73886199D01*
X217693731Y-73790682D01*
X217715408Y-73779289D01*
X217876256Y-73714123D01*
X217899733Y-73707219D01*
X218071706Y-73674681D01*
X218093190Y-73672532D01*
X218180647Y-73671435D01*
X218182202Y-73671425D01*
X219998608Y-73671425D01*
X220001413Y-73671457D01*
X220004228Y-73671520D01*
X220087481Y-73673404D01*
X220108854Y-73675754D01*
X220265306Y-73706875D01*
X220279058Y-73709611D01*
X220302319Y-73716667D01*
X220397651Y-73756155D01*
X220453491Y-73779285D01*
X220461333Y-73782533D01*
X220482772Y-73793993D01*
X220625883Y-73889619D01*
X220644673Y-73905040D01*
X220766375Y-74026745D01*
X220781796Y-74045536D01*
X220877418Y-74188649D01*
X220888877Y-74210087D01*
X220954740Y-74369103D01*
X220961796Y-74392366D01*
X220995649Y-74562577D01*
X220997999Y-74583929D01*
X220999969Y-74670093D01*
X221000001Y-74672867D01*
X221000001Y-85971425D01*
X222199170Y-85971425D01*
X222200873Y-85971437D01*
X222373459Y-85973808D01*
X222385638Y-85974575D01*
X222729528Y-86013323D01*
X222743231Y-86015651D01*
X223079791Y-86092469D01*
X223093135Y-86096312D01*
X223418998Y-86210336D01*
X223431834Y-86215653D01*
X223431928Y-86215699D01*
X223742857Y-86365435D01*
X223755027Y-86372161D01*
X224047325Y-86555824D01*
X224058666Y-86563871D01*
X224328564Y-86779107D01*
X224338932Y-86788373D01*
X224583026Y-87032467D01*
X224592292Y-87042835D01*
X224807528Y-87312733D01*
X224815575Y-87324074D01*
X224999238Y-87616372D01*
X225005964Y-87628542D01*
X225155743Y-87939560D01*
X225161065Y-87952407D01*
X225275084Y-88278255D01*
X225278933Y-88291618D01*
X225355747Y-88628166D01*
X225358076Y-88641874D01*
X225396728Y-88984909D01*
X225397508Y-88998793D01*
X225397508Y-89344006D01*
X225396728Y-89357890D01*
X225358076Y-89700925D01*
X225355747Y-89714633D01*
X225278933Y-90051181D01*
X225275084Y-90064544D01*
X225161065Y-90390392D01*
X225155743Y-90403239D01*
X225005964Y-90714257D01*
X224999238Y-90726427D01*
X224815575Y-91018725D01*
X224807528Y-91030066D01*
X224592292Y-91299964D01*
X224583026Y-91310332D01*
X224338932Y-91554426D01*
X224328564Y-91563692D01*
X224058666Y-91778928D01*
X224047325Y-91786975D01*
X223755027Y-91970638D01*
X223742857Y-91977364D01*
X223431839Y-92127143D01*
X223418992Y-92132465D01*
X223093144Y-92246484D01*
X223079781Y-92250333D01*
X222743233Y-92327147D01*
X222729525Y-92329476D01*
X222385626Y-92368225D01*
X222373480Y-92368993D01*
X222200856Y-92371413D01*
X222199118Y-92371425D01*
X219999990Y-92371425D01*
X219901724Y-92373650D01*
X219708968Y-92411993D01*
X219708964Y-92411994D01*
X219527382Y-92487208D01*
X219527376Y-92487211D01*
X219363964Y-92596402D01*
X219363958Y-92596407D01*
X219224991Y-92735377D01*
X219224987Y-92735382D01*
X219115801Y-92898795D01*
X219115794Y-92898808D01*
X219040587Y-93080385D01*
X219040585Y-93080392D01*
X219002248Y-93273151D01*
X219000001Y-93371442D01*
X219000001Y-98170890D01*
X218999996Y-98171989D01*
X218997503Y-98453175D01*
X218997192Y-98460922D01*
X218957030Y-99022437D01*
X218956084Y-99031239D01*
X218876042Y-99587925D01*
X218874470Y-99596635D01*
X218754922Y-100146181D01*
X218752733Y-100154758D01*
X218594286Y-100694373D01*
X218591491Y-100702772D01*
X218394946Y-101229726D01*
X218391558Y-101237904D01*
X218157929Y-101749477D01*
X218153967Y-101757392D01*
X217884434Y-102251001D01*
X217879917Y-102258614D01*
X217575861Y-102731732D01*
X217570813Y-102739003D01*
X217233773Y-103189234D01*
X217228219Y-103196126D01*
X216859554Y-103621585D01*
X216854301Y-103627277D01*
X216657242Y-103827884D01*
X216656463Y-103828670D01*
X194607678Y-125877455D01*
X194605512Y-125879569D01*
X194543172Y-125938938D01*
X194526546Y-125952246D01*
X194382190Y-126048699D01*
X194360752Y-126060158D01*
X194201773Y-126126007D01*
X194178513Y-126133062D01*
X194008229Y-126166933D01*
X193987076Y-126169279D01*
X193903305Y-126171331D01*
X193901009Y-126171388D01*
X193897973Y-126171425D01*
X190629500Y-126171425D01*
X190562461Y-126151740D01*
X190516706Y-126098936D01*
X190505500Y-126047425D01*
X190505500Y-122810944D01*
X190505500Y-122810941D01*
X190486318Y-122673010D01*
X190467855Y-122607913D01*
X190441630Y-122548313D01*
X190437423Y-122537377D01*
X190411529Y-122459239D01*
X190405873Y-122432806D01*
X190405639Y-122430510D01*
X190405000Y-122417937D01*
X190405000Y-121906287D01*
X192399500Y-121906287D01*
X192432754Y-122116243D01*
X192469079Y-122228040D01*
X192498444Y-122318414D01*
X192594951Y-122507820D01*
X192719890Y-122679786D01*
X192870213Y-122830109D01*
X193042179Y-122955048D01*
X193042181Y-122955049D01*
X193042184Y-122955051D01*
X193231588Y-123051557D01*
X193433757Y-123117246D01*
X193643713Y-123150500D01*
X193643714Y-123150500D01*
X193856286Y-123150500D01*
X193856287Y-123150500D01*
X194066243Y-123117246D01*
X194268412Y-123051557D01*
X194457816Y-122955051D01*
X194479789Y-122939086D01*
X194629786Y-122830109D01*
X194629788Y-122830106D01*
X194629792Y-122830104D01*
X194780104Y-122679792D01*
X194780106Y-122679788D01*
X194780109Y-122679786D01*
X194905048Y-122507820D01*
X194905047Y-122507820D01*
X194905051Y-122507816D01*
X195001557Y-122318412D01*
X195067246Y-122116243D01*
X195100500Y-121906287D01*
X195100500Y-121393713D01*
X195067246Y-121183757D01*
X195001557Y-120981588D01*
X194905051Y-120792184D01*
X194905049Y-120792181D01*
X194905048Y-120792179D01*
X194780109Y-120620213D01*
X194629786Y-120469890D01*
X194457820Y-120344951D01*
X194268414Y-120248444D01*
X194268413Y-120248443D01*
X194268412Y-120248443D01*
X194066243Y-120182754D01*
X194066241Y-120182753D01*
X194066240Y-120182753D01*
X193904957Y-120157208D01*
X193856287Y-120149500D01*
X193643713Y-120149500D01*
X193595042Y-120157208D01*
X193433760Y-120182753D01*
X193231585Y-120248444D01*
X193042179Y-120344951D01*
X192870213Y-120469890D01*
X192719890Y-120620213D01*
X192594951Y-120792179D01*
X192498444Y-120981585D01*
X192432753Y-121183760D01*
X192399500Y-121393713D01*
X192399500Y-121906287D01*
X190405000Y-121906287D01*
X190405000Y-120882054D01*
X190405638Y-120869491D01*
X190405872Y-120867194D01*
X190411525Y-120840767D01*
X190437417Y-120762631D01*
X190441623Y-120751701D01*
X190467860Y-120692072D01*
X190486321Y-120626976D01*
X190505500Y-120489057D01*
X190505500Y-114168509D01*
X196749500Y-114168509D01*
X196787231Y-114503381D01*
X196787233Y-114503397D01*
X196862223Y-114831953D01*
X196862227Y-114831965D01*
X196973532Y-115150054D01*
X197119752Y-115453683D01*
X197119754Y-115453686D01*
X197299054Y-115739039D01*
X197509176Y-116002524D01*
X197747476Y-116240824D01*
X198010961Y-116450946D01*
X198296314Y-116630246D01*
X198599949Y-116776469D01*
X198838848Y-116860063D01*
X198918034Y-116887772D01*
X198918046Y-116887776D01*
X199246606Y-116962767D01*
X199581491Y-117000499D01*
X199581492Y-117000500D01*
X199581495Y-117000500D01*
X199918508Y-117000500D01*
X199918508Y-117000499D01*
X200253394Y-116962767D01*
X200581954Y-116887776D01*
X200900051Y-116776469D01*
X201203686Y-116630246D01*
X201489039Y-116450946D01*
X201752524Y-116240824D01*
X217228070Y-100765278D01*
X217438192Y-100501793D01*
X217617492Y-100216440D01*
X217763715Y-99912805D01*
X217875022Y-99594708D01*
X217950013Y-99266148D01*
X217987746Y-98931259D01*
X217987746Y-98594249D01*
X217987746Y-97831496D01*
X217950013Y-97496606D01*
X217875022Y-97168046D01*
X217763715Y-96849949D01*
X217617492Y-96546314D01*
X217438192Y-96260961D01*
X217228071Y-95997477D01*
X216989769Y-95759175D01*
X216726285Y-95549054D01*
X216440932Y-95369754D01*
X216440929Y-95369752D01*
X216137300Y-95223532D01*
X215819211Y-95112227D01*
X215819199Y-95112223D01*
X215490643Y-95037233D01*
X215490627Y-95037231D01*
X215155754Y-94999500D01*
X215155750Y-94999500D01*
X214818742Y-94999500D01*
X214818737Y-94999500D01*
X214483864Y-95037231D01*
X214483848Y-95037233D01*
X214155292Y-95112223D01*
X214155280Y-95112227D01*
X213837191Y-95223532D01*
X213533562Y-95369752D01*
X213248208Y-95549053D01*
X212984723Y-95759174D01*
X212746420Y-95997477D01*
X212536299Y-96260962D01*
X212356998Y-96546316D01*
X212210778Y-96849945D01*
X212099473Y-97168034D01*
X212099470Y-97168042D01*
X212036696Y-97443076D01*
X212003486Y-97503164D01*
X197509175Y-111997476D01*
X197299053Y-112260962D01*
X197119752Y-112546316D01*
X196973532Y-112849945D01*
X196862227Y-113168034D01*
X196862223Y-113168046D01*
X196787233Y-113496602D01*
X196787231Y-113496618D01*
X196749500Y-113831490D01*
X196749500Y-114168509D01*
X190505500Y-114168509D01*
X190505500Y-105124000D01*
X190493947Y-105016544D01*
X190482741Y-104965033D01*
X190482637Y-104964722D01*
X190448616Y-104862502D01*
X190448613Y-104862496D01*
X190370828Y-104741462D01*
X190370825Y-104741457D01*
X190353786Y-104721793D01*
X190325076Y-104688659D01*
X190325072Y-104688656D01*
X190325070Y-104688653D01*
X190216336Y-104594433D01*
X190216333Y-104594431D01*
X190216331Y-104594430D01*
X190085465Y-104534664D01*
X190085460Y-104534662D01*
X190085459Y-104534662D01*
X190018420Y-104514977D01*
X190018422Y-104514977D01*
X190018417Y-104514976D01*
X189970944Y-104508150D01*
X189876000Y-104494500D01*
X172024943Y-104494500D01*
X172024924Y-104494500D01*
X172006941Y-104494820D01*
X171999296Y-104495093D01*
X171998051Y-104495138D01*
X171998047Y-104495138D01*
X171998025Y-104495139D01*
X171980039Y-104496103D01*
X171980024Y-104496105D01*
X171839448Y-104526686D01*
X171839443Y-104526687D01*
X171839442Y-104526688D01*
X171823616Y-104532590D01*
X171773976Y-104551105D01*
X171773972Y-104551107D01*
X171647704Y-104620055D01*
X171584347Y-104683409D01*
X171523023Y-104716892D01*
X171453331Y-104711906D01*
X171408987Y-104683406D01*
X162286818Y-95561237D01*
X162253333Y-95499914D01*
X162250499Y-95473556D01*
X162250499Y-94452129D01*
X162250498Y-94452123D01*
X162250497Y-94452116D01*
X162244091Y-94392517D01*
X162193796Y-94257669D01*
X162193795Y-94257668D01*
X162193793Y-94257664D01*
X162107547Y-94142455D01*
X162107544Y-94142452D01*
X161992335Y-94056206D01*
X161992328Y-94056202D01*
X161857482Y-94005908D01*
X161857483Y-94005908D01*
X161797883Y-93999501D01*
X161797881Y-93999500D01*
X161797873Y-93999500D01*
X161797864Y-93999500D01*
X158702129Y-93999500D01*
X158702123Y-93999501D01*
X158642516Y-94005908D01*
X158507671Y-94056202D01*
X158507664Y-94056206D01*
X158392455Y-94142452D01*
X158392452Y-94142455D01*
X158306206Y-94257664D01*
X158306202Y-94257671D01*
X158255908Y-94392517D01*
X158249501Y-94452116D01*
X158249501Y-94452123D01*
X158249500Y-94452135D01*
X158249500Y-97547870D01*
X158249501Y-97547876D01*
X158255908Y-97607483D01*
X158306202Y-97742328D01*
X158306206Y-97742335D01*
X158392452Y-97857544D01*
X158392455Y-97857547D01*
X158507664Y-97943793D01*
X158507671Y-97943797D01*
X158642517Y-97994091D01*
X158642516Y-97994091D01*
X158649444Y-97994835D01*
X158702127Y-98000500D01*
X159723556Y-98000499D01*
X159790595Y-98020183D01*
X159811237Y-98036818D01*
X166057238Y-104282819D01*
X166090723Y-104344142D01*
X166085739Y-104413834D01*
X166043867Y-104469767D01*
X165978403Y-104494184D01*
X165969557Y-104494500D01*
X146860711Y-104494500D01*
X146842728Y-104494820D01*
X146835083Y-104495093D01*
X146833838Y-104495138D01*
X146833834Y-104495138D01*
X146833812Y-104495139D01*
X146815826Y-104496103D01*
X146815811Y-104496105D01*
X146675235Y-104526686D01*
X146675230Y-104526687D01*
X146675229Y-104526688D01*
X146659403Y-104532590D01*
X146609763Y-104551105D01*
X146609759Y-104551107D01*
X146483491Y-104620055D01*
X146420134Y-104683409D01*
X146358810Y-104716892D01*
X146289118Y-104711906D01*
X146244774Y-104683406D01*
X144149574Y-102588206D01*
X144116089Y-102526883D01*
X144113255Y-102500525D01*
X144113255Y-99651580D01*
X144132940Y-99584541D01*
X144185744Y-99538786D01*
X144254902Y-99528842D01*
X144291054Y-99539859D01*
X144389751Y-99587389D01*
X144633297Y-99662513D01*
X144885320Y-99700500D01*
X145140190Y-99700500D01*
X145392213Y-99662513D01*
X145635759Y-99587389D01*
X145865389Y-99476805D01*
X146075972Y-99333232D01*
X146262805Y-99159877D01*
X146421714Y-98960612D01*
X146549148Y-98739888D01*
X146642263Y-98502637D01*
X146698977Y-98254157D01*
X146718023Y-98000000D01*
X146717580Y-97994091D01*
X146698977Y-97745845D01*
X146698174Y-97742328D01*
X146642263Y-97497363D01*
X146549148Y-97260112D01*
X146421714Y-97039388D01*
X146262805Y-96840123D01*
X146075972Y-96666768D01*
X145865389Y-96523195D01*
X145865385Y-96523193D01*
X145865382Y-96523191D01*
X145865381Y-96523190D01*
X145635761Y-96412612D01*
X145635763Y-96412612D01*
X145392221Y-96337489D01*
X145392217Y-96337488D01*
X145392213Y-96337487D01*
X145270986Y-96319214D01*
X145140195Y-96299500D01*
X145140190Y-96299500D01*
X144885320Y-96299500D01*
X144885314Y-96299500D01*
X144728364Y-96323157D01*
X144633297Y-96337487D01*
X144633294Y-96337488D01*
X144633288Y-96337489D01*
X144389753Y-96412610D01*
X144291056Y-96460140D01*
X144222114Y-96471491D01*
X144157980Y-96443768D01*
X144119015Y-96385773D01*
X144113255Y-96348419D01*
X144113255Y-89999474D01*
X144132940Y-89932435D01*
X144149574Y-89911793D01*
X144152770Y-89908597D01*
X144214093Y-89875112D01*
X144214671Y-89874988D01*
X144244101Y-89868732D01*
X144279803Y-89861144D01*
X144279806Y-89861142D01*
X144279808Y-89861142D01*
X144338058Y-89835206D01*
X144452730Y-89784151D01*
X144605871Y-89672888D01*
X144732533Y-89532216D01*
X144827179Y-89368284D01*
X144885674Y-89188256D01*
X144905460Y-89000000D01*
X144885674Y-88811744D01*
X144827179Y-88631716D01*
X144732533Y-88467784D01*
X144605871Y-88327112D01*
X144605870Y-88327111D01*
X144452734Y-88215851D01*
X144452729Y-88215848D01*
X144279807Y-88138857D01*
X144279802Y-88138855D01*
X144134001Y-88107865D01*
X144094646Y-88099500D01*
X143905354Y-88099500D01*
X143872897Y-88106398D01*
X143720197Y-88138855D01*
X143720192Y-88138857D01*
X143547270Y-88215848D01*
X143547265Y-88215851D01*
X143394129Y-88327111D01*
X143267466Y-88467785D01*
X143172821Y-88631715D01*
X143172818Y-88631722D01*
X143117479Y-88802039D01*
X143087229Y-88851402D01*
X142779803Y-89158828D01*
X142760141Y-89188256D01*
X142739658Y-89218912D01*
X142697674Y-89281744D01*
X142697667Y-89281756D01*
X142641098Y-89418327D01*
X142641095Y-89418337D01*
X142612255Y-89563324D01*
X142612255Y-102602111D01*
X142592570Y-102669150D01*
X142539766Y-102714905D01*
X142470608Y-102724849D01*
X142407052Y-102695824D01*
X142383940Y-102669151D01*
X142120096Y-102258604D01*
X142115579Y-102250991D01*
X141846047Y-101757384D01*
X141842085Y-101749469D01*
X141608456Y-101237897D01*
X141605068Y-101229719D01*
X141408523Y-100702765D01*
X141405728Y-100694366D01*
X141247275Y-100154729D01*
X141245099Y-100146201D01*
X141125539Y-99596603D01*
X141123976Y-99587942D01*
X141043929Y-99031214D01*
X141042988Y-99022455D01*
X141002823Y-98460904D01*
X141002513Y-98453176D01*
X141000004Y-98171981D01*
X140999999Y-98170875D01*
X140999999Y-93371428D01*
X140997728Y-93273157D01*
X140997727Y-93273154D01*
X140959390Y-93080394D01*
X140884181Y-92898815D01*
X140884179Y-92898812D01*
X140884176Y-92898807D01*
X140774995Y-92735401D01*
X140774995Y-92735400D01*
X140636020Y-92596421D01*
X140472616Y-92487235D01*
X140472608Y-92487231D01*
X140472609Y-92487231D01*
X140472607Y-92487230D01*
X140291030Y-92412017D01*
X140291026Y-92412016D01*
X140291022Y-92412015D01*
X140098275Y-92373675D01*
X140098273Y-92373674D01*
X140098269Y-92373674D01*
X140000000Y-92371425D01*
X139999979Y-92371425D01*
X137800862Y-92371425D01*
X137799090Y-92371412D01*
X137797231Y-92371385D01*
X137626508Y-92368944D01*
X137614397Y-92368177D01*
X137270483Y-92329427D01*
X137256774Y-92327098D01*
X136920220Y-92250282D01*
X136906864Y-92246434D01*
X136581018Y-92132415D01*
X136568186Y-92127100D01*
X136257166Y-91977320D01*
X136244996Y-91970594D01*
X135952702Y-91786934D01*
X135941361Y-91778887D01*
X135671468Y-91563655D01*
X135661100Y-91554389D01*
X135417010Y-91310298D01*
X135407744Y-91299930D01*
X135192511Y-91030037D01*
X135184464Y-91018696D01*
X135138239Y-90945130D01*
X135000803Y-90726401D01*
X134994078Y-90714233D01*
X134844301Y-90403218D01*
X134838979Y-90390370D01*
X134838834Y-90389957D01*
X134724965Y-90064534D01*
X134721116Y-90051173D01*
X134644301Y-89714624D01*
X134641972Y-89700915D01*
X134603322Y-89357887D01*
X134602542Y-89344003D01*
X134602542Y-89297159D01*
X136202465Y-89297159D01*
X136241800Y-89545515D01*
X136319507Y-89784669D01*
X136365591Y-89875112D01*
X136428956Y-89999474D01*
X136433667Y-90008718D01*
X136581462Y-90212142D01*
X136581466Y-90212147D01*
X136759276Y-90389957D01*
X136759281Y-90389961D01*
X136936719Y-90518876D01*
X136962709Y-90537759D01*
X137105473Y-90610501D01*
X137186754Y-90651916D01*
X137186756Y-90651916D01*
X137186759Y-90651918D01*
X137314948Y-90693569D01*
X137425908Y-90729623D01*
X137674265Y-90768959D01*
X137925728Y-90768959D01*
X137925733Y-90768959D01*
X138174089Y-90729623D01*
X138221454Y-90714233D01*
X138413239Y-90651918D01*
X138637289Y-90537759D01*
X138840723Y-90389956D01*
X139018530Y-90212149D01*
X139166333Y-90008715D01*
X139280492Y-89784665D01*
X139358197Y-89545515D01*
X139397533Y-89297154D01*
X139399999Y-89171425D01*
X139397533Y-89045696D01*
X139358197Y-88797335D01*
X139280492Y-88558185D01*
X139280490Y-88558182D01*
X139280490Y-88558180D01*
X139234431Y-88467785D01*
X139166333Y-88334135D01*
X139147450Y-88308145D01*
X139018535Y-88130707D01*
X139018531Y-88130702D01*
X138840721Y-87952892D01*
X138840716Y-87952888D01*
X138637292Y-87805093D01*
X138637291Y-87805092D01*
X138637289Y-87805091D01*
X138567321Y-87769440D01*
X138413243Y-87690933D01*
X138174089Y-87613226D01*
X137925733Y-87573891D01*
X137925728Y-87573891D01*
X137674270Y-87573891D01*
X137674265Y-87573891D01*
X137425908Y-87613226D01*
X137186754Y-87690933D01*
X136962705Y-87805093D01*
X136759281Y-87952888D01*
X136759276Y-87952892D01*
X136581466Y-88130702D01*
X136581462Y-88130707D01*
X136433667Y-88334131D01*
X136319507Y-88558180D01*
X136241800Y-88797334D01*
X136202465Y-89045690D01*
X136202465Y-89297159D01*
X134602542Y-89297159D01*
X134602542Y-88998796D01*
X134603322Y-88984912D01*
X134641972Y-88641884D01*
X134644301Y-88628175D01*
X134721116Y-88291626D01*
X134724965Y-88278265D01*
X134838983Y-87952417D01*
X134844295Y-87939593D01*
X134994082Y-87628557D01*
X135000798Y-87616405D01*
X135184472Y-87324091D01*
X135192502Y-87312773D01*
X135407752Y-87042859D01*
X135417001Y-87032510D01*
X135661109Y-86788401D01*
X135671458Y-86779152D01*
X135941372Y-86563903D01*
X135952690Y-86555873D01*
X136245005Y-86372199D01*
X136257157Y-86365483D01*
X136568200Y-86215693D01*
X136581002Y-86210389D01*
X136906880Y-86096359D01*
X136920213Y-86092518D01*
X137256775Y-86015700D01*
X137270481Y-86013372D01*
X137614388Y-85974623D01*
X137626508Y-85973856D01*
X137795254Y-85971491D01*
X137799144Y-85971437D01*
X137800881Y-85971425D01*
X138999999Y-85971425D01*
X138999999Y-78000006D01*
X139569700Y-78000006D01*
X139588864Y-78231297D01*
X139588866Y-78231308D01*
X139645842Y-78456300D01*
X139739075Y-78668848D01*
X139866016Y-78863147D01*
X139866019Y-78863151D01*
X139866021Y-78863153D01*
X140015662Y-79025707D01*
X140046583Y-79088360D01*
X140038723Y-79157786D01*
X139994575Y-79211941D01*
X139989528Y-79215226D01*
X139856422Y-79297327D01*
X139856418Y-79297330D01*
X139732331Y-79421417D01*
X139640204Y-79570777D01*
X139640202Y-79570782D01*
X139585003Y-79737361D01*
X139574500Y-79840166D01*
X139574500Y-81239833D01*
X139585003Y-81342638D01*
X139605054Y-81403147D01*
X139640203Y-81509220D01*
X139732330Y-81658581D01*
X139856419Y-81782670D01*
X140005780Y-81874797D01*
X140088771Y-81902297D01*
X140172361Y-81929996D01*
X140209236Y-81933763D01*
X140275174Y-81940500D01*
X140275178Y-81940500D01*
X141674822Y-81940500D01*
X141674826Y-81940500D01*
X141777638Y-81929996D01*
X141944220Y-81874797D01*
X142093581Y-81782670D01*
X142217670Y-81658581D01*
X142309797Y-81509220D01*
X142364996Y-81342638D01*
X142375500Y-81239826D01*
X142375500Y-79840174D01*
X142364996Y-79737362D01*
X142309797Y-79570780D01*
X142217670Y-79421419D01*
X142093581Y-79297330D01*
X142093577Y-79297327D01*
X141960471Y-79215226D01*
X141913746Y-79163278D01*
X141902525Y-79094316D01*
X141930368Y-79030234D01*
X141934298Y-79025749D01*
X142083979Y-78863153D01*
X142210924Y-78668849D01*
X142304157Y-78456300D01*
X142361134Y-78231305D01*
X142380300Y-78000000D01*
X142380300Y-77999993D01*
X142361135Y-77768702D01*
X142361133Y-77768691D01*
X142304157Y-77543699D01*
X142210924Y-77331151D01*
X142083983Y-77136852D01*
X142083980Y-77136849D01*
X142083979Y-77136847D01*
X141926784Y-76966087D01*
X141749180Y-76827853D01*
X141708368Y-76771143D01*
X141704693Y-76701370D01*
X141739324Y-76640687D01*
X141749181Y-76632146D01*
X141926784Y-76493913D01*
X142083979Y-76323153D01*
X142210924Y-76128849D01*
X142304157Y-75916300D01*
X142361134Y-75691305D01*
X142380300Y-75460000D01*
X142380300Y-75459993D01*
X142361135Y-75228702D01*
X142361133Y-75228691D01*
X142304157Y-75003699D01*
X142210924Y-74791151D01*
X142083983Y-74596852D01*
X142083980Y-74596849D01*
X142083979Y-74596847D01*
X141926784Y-74426087D01*
X141926779Y-74426083D01*
X141926777Y-74426081D01*
X141743634Y-74283535D01*
X141743628Y-74283531D01*
X141539504Y-74173064D01*
X141539495Y-74173061D01*
X141319984Y-74097702D01*
X141148282Y-74069050D01*
X141091049Y-74059500D01*
X140858951Y-74059500D01*
X140813164Y-74067140D01*
X140630015Y-74097702D01*
X140410504Y-74173061D01*
X140410495Y-74173064D01*
X140206371Y-74283531D01*
X140206365Y-74283535D01*
X140023222Y-74426081D01*
X140023219Y-74426084D01*
X139866016Y-74596852D01*
X139739075Y-74791151D01*
X139645842Y-75003699D01*
X139588866Y-75228691D01*
X139588864Y-75228702D01*
X139569700Y-75459993D01*
X139569700Y-75460006D01*
X139588864Y-75691297D01*
X139588866Y-75691308D01*
X139645842Y-75916300D01*
X139739075Y-76128848D01*
X139866016Y-76323147D01*
X139866019Y-76323151D01*
X139866021Y-76323153D01*
X140023216Y-76493913D01*
X140023219Y-76493915D01*
X140023222Y-76493918D01*
X140200818Y-76632147D01*
X140241631Y-76688857D01*
X140245306Y-76758630D01*
X140210674Y-76819313D01*
X140200818Y-76827853D01*
X140023222Y-76966081D01*
X140023219Y-76966084D01*
X139866016Y-77136852D01*
X139739075Y-77331151D01*
X139645842Y-77543699D01*
X139588866Y-77768691D01*
X139588864Y-77768702D01*
X139569700Y-77999993D01*
X139569700Y-78000006D01*
X138999999Y-78000006D01*
X138999999Y-74672867D01*
X139000032Y-74670001D01*
X139002022Y-74583922D01*
X139004371Y-74562600D01*
X139038226Y-74392376D01*
X139045282Y-74369114D01*
X139080730Y-74283531D01*
X139111146Y-74210095D01*
X139122602Y-74188663D01*
X139122612Y-74188649D01*
X139183378Y-74097702D01*
X139218222Y-74045553D01*
X139233638Y-74026766D01*
X139355350Y-73905050D01*
X139374120Y-73889645D01*
X139517249Y-73794007D01*
X139538664Y-73782561D01*
X139697701Y-73716684D01*
X139720940Y-73709635D01*
X139891158Y-73675777D01*
X139912502Y-73673427D01*
X139998604Y-73671457D01*
X140001441Y-73671425D01*
X141828141Y-73671425D01*
X141831118Y-73671461D01*
G37*
%TD.AperFunction*%
%TD*%
%TA.AperFunction,Conductor*%
%TO.N,GND*%
G36*
X166790096Y-105019685D02*
G01*
X166810738Y-105036319D01*
X180713181Y-118938762D01*
X180746666Y-119000085D01*
X180749500Y-119026443D01*
X180749500Y-121764741D01*
X180774446Y-121954215D01*
X180779452Y-121992238D01*
X180838842Y-122213887D01*
X180926650Y-122425876D01*
X180926657Y-122425890D01*
X181041392Y-122624617D01*
X181181081Y-122806661D01*
X181181089Y-122806670D01*
X181343330Y-122968911D01*
X181343338Y-122968918D01*
X181343339Y-122968919D01*
X181393962Y-123007764D01*
X181525382Y-123108607D01*
X181525385Y-123108608D01*
X181525388Y-123108611D01*
X181724112Y-123223344D01*
X181724117Y-123223346D01*
X181724123Y-123223349D01*
X181815480Y-123261190D01*
X181936113Y-123311158D01*
X182157762Y-123370548D01*
X182385266Y-123400500D01*
X182385273Y-123400500D01*
X182614727Y-123400500D01*
X182614734Y-123400500D01*
X182842238Y-123370548D01*
X183063887Y-123311158D01*
X183275888Y-123223344D01*
X183474612Y-123108611D01*
X183656661Y-122968919D01*
X183656665Y-122968914D01*
X183656670Y-122968911D01*
X183818911Y-122806670D01*
X183818914Y-122806665D01*
X183818919Y-122806661D01*
X183958611Y-122624612D01*
X184073344Y-122425888D01*
X184161158Y-122213887D01*
X184220548Y-121992238D01*
X184250500Y-121764734D01*
X184250500Y-118135266D01*
X184230202Y-117981087D01*
X184220549Y-117907761D01*
X184161158Y-117686114D01*
X184153566Y-117667784D01*
X184073349Y-117474120D01*
X184073344Y-117474111D01*
X184039707Y-117415851D01*
X183995254Y-117338856D01*
X183958611Y-117275388D01*
X183888765Y-117184363D01*
X183818920Y-117093339D01*
X183818915Y-117093333D01*
X171937262Y-105211681D01*
X171903777Y-105150358D01*
X171908761Y-105080666D01*
X171950633Y-105024733D01*
X172016097Y-105000316D01*
X172024943Y-105000000D01*
X189876000Y-105000000D01*
X189943039Y-105019685D01*
X189988794Y-105072489D01*
X190000000Y-105124000D01*
X190000000Y-120489057D01*
X189981539Y-120554153D01*
X189965189Y-120580659D01*
X189965185Y-120580668D01*
X189943797Y-120645213D01*
X189910001Y-120747203D01*
X189910001Y-120747204D01*
X189910000Y-120747204D01*
X189899500Y-120849983D01*
X189899500Y-122450001D01*
X189899501Y-122450018D01*
X189910000Y-122552796D01*
X189910001Y-122552799D01*
X189965185Y-122719331D01*
X189965189Y-122719340D01*
X189972664Y-122731458D01*
X189981537Y-122745844D01*
X190000000Y-122810941D01*
X190000000Y-126047425D01*
X189980315Y-126114464D01*
X189927511Y-126160219D01*
X189876000Y-126171425D01*
X166102009Y-126171425D01*
X166098958Y-126171387D01*
X166096244Y-126171320D01*
X166012923Y-126169269D01*
X165991785Y-126166925D01*
X165821496Y-126133054D01*
X165798235Y-126125998D01*
X165639254Y-126060149D01*
X165617816Y-126048690D01*
X165473458Y-125952236D01*
X165456842Y-125938938D01*
X165394486Y-125879568D01*
X165392310Y-125877444D01*
X162127047Y-122612181D01*
X162093562Y-122550858D01*
X162098546Y-122481166D01*
X162140418Y-122425233D01*
X162205882Y-122400816D01*
X162214728Y-122400500D01*
X162223918Y-122400500D01*
X164785019Y-122400500D01*
X164852058Y-122420185D01*
X164897813Y-122472989D01*
X164908377Y-122511899D01*
X164910000Y-122527796D01*
X164910001Y-122527799D01*
X164955894Y-122666294D01*
X164965186Y-122694334D01*
X165057288Y-122843656D01*
X165181344Y-122967712D01*
X165330666Y-123059814D01*
X165497203Y-123114999D01*
X165599991Y-123125500D01*
X166900008Y-123125499D01*
X167002797Y-123114999D01*
X167169334Y-123059814D01*
X167318656Y-122967712D01*
X167442712Y-122843656D01*
X167534814Y-122694334D01*
X167534814Y-122694331D01*
X167538178Y-122688879D01*
X167590126Y-122642154D01*
X167659088Y-122630931D01*
X167723170Y-122658774D01*
X167731398Y-122666294D01*
X167870213Y-122805109D01*
X168042179Y-122930048D01*
X168042181Y-122930049D01*
X168042184Y-122930051D01*
X168231588Y-123026557D01*
X168433757Y-123092246D01*
X168643713Y-123125500D01*
X168643714Y-123125500D01*
X168856286Y-123125500D01*
X168856287Y-123125500D01*
X169066243Y-123092246D01*
X169268412Y-123026557D01*
X169457816Y-122930051D01*
X169542320Y-122868656D01*
X169629786Y-122805109D01*
X169629788Y-122805106D01*
X169629792Y-122805104D01*
X169780104Y-122654792D01*
X169899683Y-122490204D01*
X169955011Y-122447540D01*
X170024624Y-122441561D01*
X170086420Y-122474166D01*
X170100313Y-122490199D01*
X170188938Y-122612181D01*
X170219896Y-122654792D01*
X170370213Y-122805109D01*
X170542179Y-122930048D01*
X170542181Y-122930049D01*
X170542184Y-122930051D01*
X170731588Y-123026557D01*
X170933757Y-123092246D01*
X171143713Y-123125500D01*
X171143714Y-123125500D01*
X171356286Y-123125500D01*
X171356287Y-123125500D01*
X171566243Y-123092246D01*
X171768412Y-123026557D01*
X171957816Y-122930051D01*
X172042320Y-122868656D01*
X172129786Y-122805109D01*
X172129788Y-122805106D01*
X172129792Y-122805104D01*
X172280104Y-122654792D01*
X172280106Y-122654788D01*
X172280109Y-122654786D01*
X172405048Y-122482820D01*
X172405047Y-122482820D01*
X172405051Y-122482816D01*
X172501557Y-122293412D01*
X172567246Y-122091243D01*
X172600500Y-121881287D01*
X172600500Y-121881286D01*
X174899500Y-121881286D01*
X174917071Y-121992229D01*
X174932754Y-122091243D01*
X174944832Y-122128416D01*
X174998444Y-122293414D01*
X175094951Y-122482820D01*
X175219890Y-122654786D01*
X175370213Y-122805109D01*
X175542179Y-122930048D01*
X175542181Y-122930049D01*
X175542184Y-122930051D01*
X175731588Y-123026557D01*
X175933757Y-123092246D01*
X176143713Y-123125500D01*
X176143714Y-123125500D01*
X176356286Y-123125500D01*
X176356287Y-123125500D01*
X176566243Y-123092246D01*
X176768412Y-123026557D01*
X176957816Y-122930051D01*
X177042320Y-122868656D01*
X177129786Y-122805109D01*
X177129788Y-122805106D01*
X177129792Y-122805104D01*
X177280104Y-122654792D01*
X177280106Y-122654788D01*
X177280109Y-122654786D01*
X177405048Y-122482820D01*
X177405047Y-122482820D01*
X177405051Y-122482816D01*
X177501557Y-122293412D01*
X177567246Y-122091243D01*
X177600500Y-121881287D01*
X177600500Y-121418713D01*
X177567246Y-121208757D01*
X177501557Y-121006588D01*
X177405051Y-120817184D01*
X177405049Y-120817181D01*
X177405048Y-120817179D01*
X177280109Y-120645213D01*
X177129786Y-120494890D01*
X176957820Y-120369951D01*
X176768414Y-120273444D01*
X176768413Y-120273443D01*
X176768412Y-120273443D01*
X176566243Y-120207754D01*
X176566241Y-120207753D01*
X176566240Y-120207753D01*
X176404957Y-120182208D01*
X176356287Y-120174500D01*
X176143713Y-120174500D01*
X176095042Y-120182208D01*
X175933760Y-120207753D01*
X175731585Y-120273444D01*
X175542179Y-120369951D01*
X175370213Y-120494890D01*
X175219890Y-120645213D01*
X175094951Y-120817179D01*
X174998444Y-121006585D01*
X174932753Y-121208760D01*
X174899500Y-121418713D01*
X174899500Y-121881286D01*
X172600500Y-121881286D01*
X172600500Y-121418713D01*
X172600500Y-121413840D01*
X172602502Y-121413840D01*
X172615112Y-121353728D01*
X172636698Y-121324668D01*
X174974549Y-118986819D01*
X175035872Y-118953334D01*
X175062230Y-118950500D01*
X176960663Y-118950500D01*
X177027702Y-118970185D01*
X177033548Y-118974182D01*
X177047265Y-118984148D01*
X177047270Y-118984151D01*
X177220192Y-119061142D01*
X177220197Y-119061144D01*
X177405354Y-119100500D01*
X177405355Y-119100500D01*
X177594644Y-119100500D01*
X177594646Y-119100500D01*
X177779803Y-119061144D01*
X177952730Y-118984151D01*
X178105871Y-118872888D01*
X178232533Y-118732216D01*
X178327179Y-118568284D01*
X178385674Y-118388256D01*
X178405460Y-118200000D01*
X178385674Y-118011744D01*
X178327179Y-117831716D01*
X178232533Y-117667784D01*
X178105871Y-117527112D01*
X178038745Y-117478342D01*
X177952734Y-117415851D01*
X177952729Y-117415848D01*
X177779807Y-117338857D01*
X177779802Y-117338855D01*
X177634001Y-117307865D01*
X177594646Y-117299500D01*
X177405354Y-117299500D01*
X177372897Y-117306398D01*
X177220197Y-117338855D01*
X177220192Y-117338857D01*
X177047270Y-117415848D01*
X177047265Y-117415851D01*
X177033548Y-117425818D01*
X176967742Y-117449298D01*
X176960663Y-117449500D01*
X174626080Y-117449500D01*
X174481092Y-117478340D01*
X174481086Y-117478342D01*
X174344508Y-117534914D01*
X174344496Y-117534921D01*
X174295269Y-117567813D01*
X174221588Y-117617044D01*
X174221580Y-117617050D01*
X171666715Y-120171915D01*
X171605392Y-120205400D01*
X171559636Y-120206707D01*
X171401974Y-120181736D01*
X171356287Y-120174500D01*
X171143713Y-120174500D01*
X171095042Y-120182208D01*
X170933760Y-120207753D01*
X170731585Y-120273444D01*
X170542179Y-120369951D01*
X170370213Y-120494890D01*
X170219894Y-120645209D01*
X170219890Y-120645214D01*
X170100318Y-120809793D01*
X170044989Y-120852459D01*
X169975375Y-120858438D01*
X169913580Y-120825833D01*
X169899682Y-120809793D01*
X169780109Y-120645214D01*
X169780105Y-120645209D01*
X169629786Y-120494890D01*
X169457820Y-120369951D01*
X169268414Y-120273444D01*
X169268413Y-120273443D01*
X169268412Y-120273443D01*
X169066243Y-120207754D01*
X169066241Y-120207753D01*
X169066240Y-120207753D01*
X168904957Y-120182208D01*
X168856287Y-120174500D01*
X168643713Y-120174500D01*
X168595042Y-120182208D01*
X168433760Y-120207753D01*
X168231585Y-120273444D01*
X168042179Y-120369951D01*
X167870215Y-120494889D01*
X167731398Y-120633706D01*
X167670075Y-120667190D01*
X167600383Y-120662206D01*
X167544450Y-120620334D01*
X167538178Y-120611120D01*
X167442712Y-120456344D01*
X167318657Y-120332289D01*
X167318656Y-120332288D01*
X167169334Y-120240186D01*
X167002797Y-120185001D01*
X167002795Y-120185000D01*
X166900010Y-120174500D01*
X165599998Y-120174500D01*
X165599981Y-120174501D01*
X165497203Y-120185000D01*
X165497200Y-120185001D01*
X165330668Y-120240185D01*
X165330663Y-120240187D01*
X165181342Y-120332289D01*
X165057289Y-120456342D01*
X164965187Y-120605663D01*
X164965185Y-120605668D01*
X164910001Y-120772204D01*
X164910000Y-120772205D01*
X164908377Y-120788101D01*
X164881982Y-120852793D01*
X164824802Y-120892945D01*
X164785019Y-120899500D01*
X162512229Y-120899500D01*
X162445190Y-120879815D01*
X162424548Y-120863181D01*
X146773049Y-105211681D01*
X146739564Y-105150358D01*
X146744548Y-105080666D01*
X146786420Y-105024733D01*
X146851884Y-105000316D01*
X146860730Y-105000000D01*
X166723057Y-105000000D01*
X166790096Y-105019685D01*
G37*
%TD.AperFunction*%
%TD*%
M02*
