%TF.GenerationSoftware,KiCad,Pcbnew,8.0.1*%
%TF.CreationDate,2024-08-02T00:12:23+09:00*%
%TF.ProjectId,Kicker-20240411,4b69636b-6572-42d3-9230-323430343131,rev?*%
%TF.SameCoordinates,Original*%
%TF.FileFunction,Copper,L2,Bot*%
%TF.FilePolarity,Positive*%
%FSLAX46Y46*%
G04 Gerber Fmt 4.6, Leading zero omitted, Abs format (unit mm)*
G04 Created by KiCad (PCBNEW 8.0.1) date 2024-08-02 00:12:23*
%MOMM*%
%LPD*%
G01*
G04 APERTURE LIST*
G04 Aperture macros list*
%AMRoundRect*
0 Rectangle with rounded corners*
0 $1 Rounding radius*
0 $2 $3 $4 $5 $6 $7 $8 $9 X,Y pos of 4 corners*
0 Add a 4 corners polygon primitive as box body*
4,1,4,$2,$3,$4,$5,$6,$7,$8,$9,$2,$3,0*
0 Add four circle primitives for the rounded corners*
1,1,$1+$1,$2,$3*
1,1,$1+$1,$4,$5*
1,1,$1+$1,$6,$7*
1,1,$1+$1,$8,$9*
0 Add four rect primitives between the rounded corners*
20,1,$1+$1,$2,$3,$4,$5,0*
20,1,$1+$1,$4,$5,$6,$7,0*
20,1,$1+$1,$6,$7,$8,$9,0*
20,1,$1+$1,$8,$9,$2,$3,0*%
G04 Aperture macros list end*
%TA.AperFunction,ComponentPad*%
%ADD10R,2.400000X2.400000*%
%TD*%
%TA.AperFunction,ComponentPad*%
%ADD11C,2.400000*%
%TD*%
%TA.AperFunction,ComponentPad*%
%ADD12RoundRect,0.250000X-0.600000X-0.750000X0.600000X-0.750000X0.600000X0.750000X-0.600000X0.750000X0*%
%TD*%
%TA.AperFunction,ComponentPad*%
%ADD13O,1.700000X2.000000*%
%TD*%
%TA.AperFunction,ComponentPad*%
%ADD14RoundRect,0.250200X-0.649800X0.649800X-0.649800X-0.649800X0.649800X-0.649800X0.649800X0.649800X0*%
%TD*%
%TA.AperFunction,ComponentPad*%
%ADD15C,1.800000*%
%TD*%
%TA.AperFunction,ComponentPad*%
%ADD16RoundRect,0.250000X-0.600000X-0.725000X0.600000X-0.725000X0.600000X0.725000X-0.600000X0.725000X0*%
%TD*%
%TA.AperFunction,ComponentPad*%
%ADD17O,1.700000X1.950000*%
%TD*%
%TA.AperFunction,ComponentPad*%
%ADD18RoundRect,0.250200X0.649800X-0.649800X0.649800X0.649800X-0.649800X0.649800X-0.649800X-0.649800X0*%
%TD*%
%TA.AperFunction,SMDPad,CuDef*%
%ADD19RoundRect,0.225000X-0.225000X-0.250000X0.225000X-0.250000X0.225000X0.250000X-0.225000X0.250000X0*%
%TD*%
%TA.AperFunction,SMDPad,CuDef*%
%ADD20R,2.000000X0.640000*%
%TD*%
%TA.AperFunction,SMDPad,CuDef*%
%ADD21RoundRect,0.250000X-0.850000X-0.350000X0.850000X-0.350000X0.850000X0.350000X-0.850000X0.350000X0*%
%TD*%
%TA.AperFunction,SMDPad,CuDef*%
%ADD22RoundRect,0.250000X-1.275000X-1.125000X1.275000X-1.125000X1.275000X1.125000X-1.275000X1.125000X0*%
%TD*%
%TA.AperFunction,SMDPad,CuDef*%
%ADD23RoundRect,0.249997X-2.950003X-2.650003X2.950003X-2.650003X2.950003X2.650003X-2.950003X2.650003X0*%
%TD*%
%TA.AperFunction,SMDPad,CuDef*%
%ADD24RoundRect,0.200000X0.200000X0.275000X-0.200000X0.275000X-0.200000X-0.275000X0.200000X-0.275000X0*%
%TD*%
%TA.AperFunction,SMDPad,CuDef*%
%ADD25RoundRect,0.243750X-0.243750X-0.456250X0.243750X-0.456250X0.243750X0.456250X-0.243750X0.456250X0*%
%TD*%
%TA.AperFunction,SMDPad,CuDef*%
%ADD26RoundRect,0.200000X-0.200000X-0.275000X0.200000X-0.275000X0.200000X0.275000X-0.200000X0.275000X0*%
%TD*%
%TA.AperFunction,SMDPad,CuDef*%
%ADD27RoundRect,0.225000X0.225000X0.250000X-0.225000X0.250000X-0.225000X-0.250000X0.225000X-0.250000X0*%
%TD*%
%TA.AperFunction,SMDPad,CuDef*%
%ADD28RoundRect,0.150000X-0.512500X-0.150000X0.512500X-0.150000X0.512500X0.150000X-0.512500X0.150000X0*%
%TD*%
%TA.AperFunction,SMDPad,CuDef*%
%ADD29RoundRect,0.200000X0.275000X-0.200000X0.275000X0.200000X-0.275000X0.200000X-0.275000X-0.200000X0*%
%TD*%
%TA.AperFunction,Conductor*%
%ADD30C,0.750000*%
%TD*%
%TA.AperFunction,Conductor*%
%ADD31C,0.500000*%
%TD*%
G04 APERTURE END LIST*
D10*
%TO.P,C3,1*%
%TO.N,KickerPower*%
X-27487245Y-4100000D03*
D11*
%TO.P,C3,2*%
%TO.N,GND*%
X-34987245Y-4100000D03*
%TD*%
D12*
%TO.P,VIN,1,Pin_1*%
%TO.N,VCC*%
X-13500000Y-26250000D03*
D13*
%TO.P,VIN,2,Pin_2*%
%TO.N,GND*%
X-11000000Y-26250000D03*
%TD*%
D14*
%TO.P,U3,1,OUT*%
%TO.N,Net-(U3-OUT)*%
X39025000Y18440000D03*
D15*
%TO.P,U3,2,GND*%
%TO.N,GND*%
X39025000Y15900000D03*
%TO.P,U3,3,Vs*%
%TO.N,+3.3V*%
X39025000Y13360000D03*
%TD*%
D16*
%TO.P,MD,1,Pin_1*%
%TO.N,ball02k*%
X-5000000Y-26250000D03*
D17*
%TO.P,MD,2,Pin_2*%
%TO.N,KickerSignal-main*%
X-2500000Y-26250000D03*
%TO.P,MD,3,Pin_3*%
%TO.N,GND*%
X0Y-26250000D03*
%TO.P,MD,4,Pin_4*%
%TO.N,+3.3V*%
X2500000Y-26250000D03*
%TO.P,MD,5,Pin_5*%
%TO.N,ball01k*%
X5000000Y-26250000D03*
%TD*%
D12*
%TO.P,KI.,1,Pin_1*%
%TO.N,KickerPower*%
X11000000Y-26250000D03*
D13*
%TO.P,KI.,2,Pin_2*%
%TO.N,Net-(J3-Pin_2)*%
X13500000Y-26250000D03*
%TD*%
D18*
%TO.P,U4,1,OUT*%
%TO.N,Net-(U4-OUT)*%
X-39025000Y13360000D03*
D15*
%TO.P,U4,2,GND*%
%TO.N,GND*%
X-39025000Y15900000D03*
%TO.P,U4,3,Vs*%
%TO.N,+3.3V*%
X-39025000Y18440000D03*
%TD*%
D10*
%TO.P,C4,1*%
%TO.N,KickerPower*%
X27487246Y-4100000D03*
D11*
%TO.P,C4,2*%
%TO.N,GND*%
X34987246Y-4100000D03*
%TD*%
D19*
%TO.P,C6,1*%
%TO.N,ball02k*%
X-36775000Y6400000D03*
%TO.P,C6,2*%
%TO.N,GND*%
X-35225000Y6400000D03*
%TD*%
D20*
%TO.P,D2,1,Anode*%
%TO.N,KickerSignal-main*%
X-9900000Y-22870000D03*
%TO.P,D2,3,Cathode*%
%TO.N,GND*%
X-9900000Y-20330000D03*
%TO.P,D2,4,GND*%
X-3600000Y-20330000D03*
%TO.P,D2,5,VO*%
%TO.N,KickerSignal*%
X-3600000Y-21600000D03*
%TO.P,D2,6,VCC*%
%TO.N,+3.3V*%
X-3600000Y-22870000D03*
%TD*%
D21*
%TO.P,Q1,1,G*%
%TO.N,Net-(Q1-G)*%
X7710000Y-22102500D03*
D22*
%TO.P,Q1,2,D*%
%TO.N,Net-(J3-Pin_2)*%
X12335000Y-18297500D03*
X12335000Y-21347500D03*
D23*
X14010000Y-19822500D03*
D22*
X15685000Y-18297500D03*
X15685000Y-21347500D03*
D21*
%TO.P,Q1,3,S*%
%TO.N,GND*%
X7710000Y-17542500D03*
%TD*%
D24*
%TO.P,R4,1*%
%TO.N,Net-(U4-OUT)*%
X-35175000Y8150000D03*
%TO.P,R4,2*%
%TO.N,ball02k*%
X-36825000Y8150000D03*
%TD*%
D25*
%TO.P,D3,1,K*%
%TO.N,GND*%
X-2937500Y-29350000D03*
%TO.P,D3,2,A*%
%TO.N,Net-(D3-A)*%
X-1062500Y-29350000D03*
%TD*%
D26*
%TO.P,R3,1*%
%TO.N,Net-(U3-OUT)*%
X35175000Y8150000D03*
%TO.P,R3,2*%
%TO.N,ball01k*%
X36825000Y8150000D03*
%TD*%
D27*
%TO.P,C2,1*%
%TO.N,+3.3V*%
X775000Y-31350000D03*
%TO.P,C2,2*%
%TO.N,GND*%
X-775000Y-31350000D03*
%TD*%
D24*
%TO.P,R2,1*%
%TO.N,+3.3V*%
X2575000Y-29350000D03*
%TO.P,R2,2*%
%TO.N,Net-(D3-A)*%
X925000Y-29350000D03*
%TD*%
D27*
%TO.P,C5,1*%
%TO.N,ball01k*%
X36775000Y6400000D03*
%TO.P,C5,2*%
%TO.N,GND*%
X35225000Y6400000D03*
%TD*%
D28*
%TO.P,U2,1*%
%TO.N,N/C*%
X-637500Y-22550000D03*
%TO.P,U2,2*%
%TO.N,KickerSignal*%
X-637500Y-21600000D03*
%TO.P,U2,3,GND*%
%TO.N,GND*%
X-637500Y-20650000D03*
%TO.P,U2,4*%
%TO.N,Net-(Q1-G)*%
X1637500Y-20650000D03*
%TO.P,U2,5,VCC*%
%TO.N,+3.3V*%
X1637500Y-22550000D03*
%TD*%
D29*
%TO.P,R1,1*%
%TO.N,Net-(Q1-G)*%
X3750000Y-20650000D03*
%TO.P,R1,2*%
%TO.N,GND*%
X3750000Y-19000000D03*
%TD*%
D30*
%TO.N,+3.3V*%
X39025000Y13360000D02*
X37800000Y12135000D01*
X2500000Y-26250000D02*
X2500000Y-23412500D01*
X2575000Y-29350000D02*
X2575000Y-29550000D01*
X-2370000Y-24100000D02*
X87500Y-24100000D01*
X37800000Y-6550000D02*
X13000000Y-31350000D01*
X13000000Y-31350000D02*
X775000Y-31350000D01*
X37800000Y12135000D02*
X37800000Y-6550000D01*
X2575000Y-26325000D02*
X2500000Y-26250000D01*
X2575000Y-29550000D02*
X775000Y-31350000D01*
X87500Y-24100000D02*
X1637500Y-22550000D01*
X-3600000Y-22870000D02*
X-2370000Y-24100000D01*
X2575000Y-29350000D02*
X2575000Y-26325000D01*
X2500000Y-23412500D02*
X1637500Y-22550000D01*
%TO.N,Net-(D3-A)*%
X925000Y-29350000D02*
X-1062500Y-29350000D01*
D31*
%TO.N,ball01k*%
X36825000Y8150000D02*
X36825000Y6450000D01*
X36825000Y6450000D02*
X36775000Y6400000D01*
X7600000Y-28850000D02*
X5000000Y-26250000D01*
X36775000Y6400000D02*
X36775000Y-6408274D01*
X36775000Y-6408274D02*
X14333274Y-28850000D01*
X14333274Y-28850000D02*
X7600000Y-28850000D01*
D30*
%TO.N,KickerSignal-main*%
X-5880000Y-22870000D02*
X-9900000Y-22870000D01*
X-2500000Y-26250000D02*
X-5880000Y-22870000D01*
%TO.N,Net-(Q1-G)*%
X6257500Y-20650000D02*
X7710000Y-22102500D01*
X1637500Y-20650000D02*
X6257500Y-20650000D01*
D31*
%TO.N,Net-(U3-OUT)*%
X35175000Y14590000D02*
X39025000Y18440000D01*
X35175000Y8150000D02*
X35175000Y14590000D01*
%TO.N,ball02k*%
X-36825000Y6450000D02*
X-36775000Y6400000D01*
X-36775000Y6400000D02*
X-36775000Y-6408274D01*
X-36825000Y8150000D02*
X-36825000Y6450000D01*
X-15483274Y-27700000D02*
X-6450000Y-27700000D01*
X-6450000Y-27700000D02*
X-5000000Y-26250000D01*
X-36775000Y-6408274D02*
X-15483274Y-27700000D01*
%TO.N,Net-(U4-OUT)*%
X-35175000Y9510000D02*
X-39025000Y13360000D01*
X-35175000Y8150000D02*
X-35175000Y9510000D01*
%TD*%
%TA.AperFunction,Conductor*%
%TO.N,GND*%
G36*
X-38168858Y20228538D02*
G01*
X-38083080Y20226452D01*
X-38061975Y20224120D01*
X-38024327Y20216654D01*
X-37892208Y20190452D01*
X-37869014Y20183439D01*
X-37710431Y20117974D01*
X-37689044Y20106583D01*
X-37546230Y20011533D01*
X-37527466Y19996201D01*
X-37404786Y19874119D01*
X-37391072Y19857906D01*
X-37341318Y19787677D01*
X-37339886Y19785611D01*
X-36966134Y19234275D01*
X-36188779Y18149360D01*
X-35379595Y17087975D01*
X-34539291Y16051051D01*
X-34313022Y15788175D01*
X-33668606Y15039499D01*
X-32926893Y14227770D01*
X-32768311Y14054218D01*
X-31839193Y13096065D01*
X-30882069Y12165885D01*
X-29897783Y11264497D01*
X-29897773Y11264488D01*
X-28887186Y10392682D01*
X-27851204Y9551237D01*
X-26790749Y8740903D01*
X-26790723Y8740884D01*
X-26790720Y8740882D01*
X-25706667Y7962326D01*
X-25706645Y7962311D01*
X-25706642Y7962309D01*
X-25594520Y7886721D01*
X-24600004Y7216260D01*
X-23471703Y6503338D01*
X-22322758Y5824189D01*
X-21154178Y5179410D01*
X-19966991Y4569568D01*
X-19966982Y4569564D01*
X-19966969Y4569557D01*
X-18762231Y3995193D01*
X-17541016Y3456819D01*
X-16304296Y2954864D01*
X-15053282Y2489822D01*
X-13789041Y2062086D01*
X-12512650Y1672021D01*
X-11564050Y1412625D01*
X-11225245Y1319978D01*
X-11225239Y1319976D01*
X-11225237Y1319976D01*
X-9927966Y1006264D01*
X-8621992Y731168D01*
X-8621979Y731165D01*
X-8621976Y731165D01*
X-8125695Y641906D01*
X-7308381Y494909D01*
X-5988366Y297712D01*
X-4663096Y139749D01*
X-3333738Y21155D01*
X-2542400Y-25839D01*
X-2001404Y-57968D01*
X-2001399Y-57968D01*
X-2001385Y-57969D01*
X-667346Y-97546D01*
X667330Y-97546D01*
X667346Y-97546D01*
X2001385Y-57969D01*
X2001399Y-57968D01*
X2001404Y-57968D01*
X2542400Y-25839D01*
X3333738Y21155D01*
X4663096Y139749D01*
X5988366Y297712D01*
X7308381Y494909D01*
X8125695Y641906D01*
X8621976Y731165D01*
X8621979Y731165D01*
X8621992Y731168D01*
X9927966Y1006264D01*
X11225237Y1319976D01*
X11225239Y1319976D01*
X11225245Y1319978D01*
X11564050Y1412625D01*
X12512650Y1672021D01*
X13789041Y2062086D01*
X15053282Y2489822D01*
X16304296Y2954864D01*
X17541016Y3456819D01*
X18762231Y3995193D01*
X19966969Y4569557D01*
X19966982Y4569564D01*
X19966991Y4569568D01*
X21154178Y5179410D01*
X22322758Y5824189D01*
X23471703Y6503338D01*
X24600004Y7216260D01*
X25594520Y7886721D01*
X25706642Y7962309D01*
X25706645Y7962311D01*
X25706667Y7962326D01*
X26790720Y8740882D01*
X26790723Y8740884D01*
X26790749Y8740903D01*
X27851204Y9551237D01*
X28887186Y10392682D01*
X29897773Y11264488D01*
X29897783Y11264497D01*
X30882069Y12165885D01*
X31839193Y13096065D01*
X32768311Y14054218D01*
X32926893Y14227770D01*
X33668606Y15039499D01*
X34313022Y15788175D01*
X34539291Y16051051D01*
X35379595Y17087975D01*
X36188779Y18149360D01*
X36966134Y19234275D01*
X37339909Y19785646D01*
X37341297Y19787650D01*
X37391550Y19858708D01*
X37405514Y19875193D01*
X37529824Y19998365D01*
X37548849Y20013808D01*
X37693721Y20109318D01*
X37715411Y20120718D01*
X37876243Y20185878D01*
X37899753Y20192790D01*
X38071690Y20225321D01*
X38093194Y20227473D01*
X38180643Y20228565D01*
X38182191Y20228575D01*
X39998561Y20228575D01*
X40001397Y20228543D01*
X40001617Y20228538D01*
X40087495Y20226572D01*
X40108848Y20224221D01*
X40279048Y20190366D01*
X40302311Y20183310D01*
X40461325Y20117443D01*
X40482761Y20105984D01*
X40625867Y20010362D01*
X40644655Y19994943D01*
X40766359Y19873235D01*
X40781779Y19854444D01*
X40877394Y19711342D01*
X40888853Y19689904D01*
X40954716Y19530888D01*
X40961772Y19507625D01*
X40995627Y19337403D01*
X40997976Y19316082D01*
X40999967Y19230003D01*
X41000000Y19227136D01*
X41000000Y7928575D01*
X41000001Y7928575D01*
X42199116Y7928575D01*
X42200854Y7928563D01*
X42204288Y7928514D01*
X42373478Y7926141D01*
X42385623Y7925373D01*
X42729517Y7886622D01*
X42743225Y7884293D01*
X43079780Y7807474D01*
X43093142Y7803624D01*
X43418967Y7689611D01*
X43431815Y7684290D01*
X43742838Y7534506D01*
X43755008Y7527779D01*
X44047297Y7344119D01*
X44058637Y7336073D01*
X44328527Y7120841D01*
X44338896Y7111575D01*
X44582999Y6867470D01*
X44592264Y6857101D01*
X44807486Y6587219D01*
X44815533Y6575878D01*
X44999197Y6283575D01*
X45005923Y6271405D01*
X45155697Y5960395D01*
X45161019Y5947548D01*
X45275035Y5621706D01*
X45278884Y5608344D01*
X45355698Y5271797D01*
X45358027Y5258089D01*
X45396678Y4915058D01*
X45397458Y4901174D01*
X45397458Y4555965D01*
X45396678Y4542081D01*
X45358027Y4199050D01*
X45355698Y4185342D01*
X45278884Y3848795D01*
X45275035Y3835433D01*
X45161019Y3509591D01*
X45155697Y3496744D01*
X45005923Y3185734D01*
X44999197Y3173564D01*
X44815533Y2881261D01*
X44807486Y2869920D01*
X44592264Y2600038D01*
X44582999Y2589669D01*
X44338896Y2345564D01*
X44328527Y2336298D01*
X44058637Y2121066D01*
X44047297Y2113020D01*
X43755008Y1929360D01*
X43742845Y1922636D01*
X43431800Y1772842D01*
X43418975Y1767531D01*
X43195449Y1689314D01*
X43093142Y1653515D01*
X43079780Y1649665D01*
X42743225Y1572846D01*
X42729517Y1570517D01*
X42385608Y1531764D01*
X42373490Y1530999D01*
X42200859Y1528587D01*
X42199127Y1528575D01*
X40000000Y1528575D01*
X39901731Y1526326D01*
X39708970Y1487983D01*
X39527393Y1412770D01*
X39527387Y1412766D01*
X39527383Y1412764D01*
X39363979Y1303578D01*
X39225004Y1164599D01*
X39225004Y1164598D01*
X39115823Y1001192D01*
X39115817Y1001182D01*
X39040610Y819606D01*
X39040608Y819601D01*
X39002271Y626842D01*
X39000001Y528571D01*
X39000001Y-4270878D01*
X38999996Y-4271985D01*
X38997485Y-4553179D01*
X38997174Y-4560919D01*
X38957011Y-5122437D01*
X38956065Y-5131237D01*
X38922238Y-5366503D01*
X38893213Y-5430059D01*
X38834434Y-5467833D01*
X38764565Y-5467833D01*
X38705787Y-5430058D01*
X38676762Y-5366503D01*
X38675500Y-5348856D01*
X38675500Y4602840D01*
X40602467Y4602840D01*
X40641802Y4354484D01*
X40719509Y4115330D01*
X40833669Y3891281D01*
X40981464Y3687857D01*
X40981468Y3687852D01*
X41159278Y3510042D01*
X41159283Y3510038D01*
X41362707Y3362243D01*
X41586756Y3248083D01*
X41825910Y3170376D01*
X42074267Y3131041D01*
X42325730Y3131041D01*
X42325735Y3131041D01*
X42574091Y3170376D01*
X42813245Y3248083D01*
X42967323Y3326590D01*
X43037291Y3362241D01*
X43037294Y3362243D01*
X43240718Y3510038D01*
X43240723Y3510042D01*
X43418533Y3687852D01*
X43418537Y3687857D01*
X43566332Y3891281D01*
X43566335Y3891285D01*
X43639077Y4034049D01*
X43680492Y4115330D01*
X43680494Y4115335D01*
X43758199Y4354485D01*
X43797535Y4602846D01*
X43800001Y4728575D01*
X43797535Y4854304D01*
X43758199Y5102665D01*
X43680494Y5341815D01*
X43566335Y5565865D01*
X43418532Y5769299D01*
X43240725Y5947106D01*
X43037291Y6094909D01*
X42813241Y6209068D01*
X42574091Y6286773D01*
X42325735Y6326109D01*
X42325730Y6326109D01*
X42074272Y6326109D01*
X42074267Y6326109D01*
X41825910Y6286773D01*
X41778613Y6271405D01*
X41586761Y6209068D01*
X41586758Y6209066D01*
X41586756Y6209066D01*
X41505475Y6167651D01*
X41362711Y6094909D01*
X41362707Y6094906D01*
X41159283Y5947111D01*
X41159278Y5947107D01*
X40981468Y5769297D01*
X40981464Y5769292D01*
X40833669Y5565868D01*
X40719509Y5341819D01*
X40641802Y5102665D01*
X40602467Y4854309D01*
X40602467Y4602840D01*
X38675500Y4602840D01*
X38675500Y11720994D01*
X38695185Y11788033D01*
X38711819Y11808675D01*
X38826325Y11923181D01*
X38887648Y11956666D01*
X38914006Y11959500D01*
X39141048Y11959500D01*
X39141049Y11959500D01*
X39203996Y11970004D01*
X39369984Y11997702D01*
X39589495Y12073061D01*
X39589504Y12073064D01*
X39793628Y12183531D01*
X39793634Y12183535D01*
X39976777Y12326081D01*
X39976780Y12326084D01*
X39976784Y12326087D01*
X40133979Y12496847D01*
X40133980Y12496849D01*
X40133983Y12496852D01*
X40260924Y12691151D01*
X40354157Y12903699D01*
X40411133Y13128691D01*
X40411135Y13128702D01*
X40430300Y13359993D01*
X40430300Y13360006D01*
X40411135Y13591297D01*
X40411133Y13591308D01*
X40354157Y13816300D01*
X40260924Y14028848D01*
X40260924Y14028849D01*
X40133979Y14223153D01*
X39976784Y14393913D01*
X39793626Y14536470D01*
X39589503Y14646936D01*
X39369981Y14722298D01*
X39141049Y14760500D01*
X38908951Y14760500D01*
X38680019Y14722298D01*
X38680017Y14722297D01*
X38680015Y14722297D01*
X38574487Y14686068D01*
X38460497Y14646936D01*
X38256374Y14536470D01*
X38256372Y14536468D01*
X38256371Y14536468D01*
X38256365Y14536464D01*
X38073222Y14393918D01*
X38073216Y14393913D01*
X37916021Y14223153D01*
X37916019Y14223151D01*
X37916016Y14223147D01*
X37789075Y14028848D01*
X37695842Y13816300D01*
X37638866Y13591308D01*
X37638864Y13591297D01*
X37619700Y13360006D01*
X37619700Y13360004D01*
X37627744Y13262911D01*
X37613661Y13194475D01*
X37591848Y13164992D01*
X37241901Y12815045D01*
X37119955Y12693099D01*
X37119953Y12693097D01*
X37024145Y12549711D01*
X37024138Y12549698D01*
X36958146Y12390378D01*
X36958143Y12390366D01*
X36924500Y12221233D01*
X36924500Y9249500D01*
X36904815Y9182461D01*
X36852011Y9136706D01*
X36800500Y9125500D01*
X36568384Y9125500D01*
X36497804Y9119086D01*
X36335394Y9068478D01*
X36189815Y8980472D01*
X36189813Y8980470D01*
X36189811Y8980469D01*
X36137181Y8927839D01*
X36075858Y8894354D01*
X36006166Y8899338D01*
X35950233Y8941210D01*
X35925816Y9006674D01*
X35925500Y9015520D01*
X35925500Y14227770D01*
X35945185Y14294809D01*
X35961819Y14315451D01*
X38649548Y17003181D01*
X38710871Y17036666D01*
X38737229Y17039500D01*
X39724833Y17039500D01*
X39827638Y17050003D01*
X39994217Y17105202D01*
X39994220Y17105203D01*
X40143581Y17197330D01*
X40267670Y17321419D01*
X40359797Y17470780D01*
X40414996Y17637362D01*
X40425500Y17740174D01*
X40425500Y19139826D01*
X40414996Y19242638D01*
X40359797Y19409220D01*
X40267670Y19558581D01*
X40143581Y19682670D01*
X39994220Y19774797D01*
X39827638Y19829996D01*
X39724826Y19840500D01*
X38325174Y19840500D01*
X38259236Y19833763D01*
X38222361Y19829996D01*
X38166834Y19811596D01*
X38055780Y19774797D01*
X37906419Y19682670D01*
X37782330Y19558581D01*
X37765249Y19530888D01*
X37690204Y19409222D01*
X37690202Y19409217D01*
X37635003Y19242638D01*
X37624500Y19139833D01*
X37624500Y18152229D01*
X37604815Y18085190D01*
X37588181Y18064548D01*
X34592052Y15068421D01*
X34592051Y15068420D01*
X34542814Y14994730D01*
X34542813Y14994729D01*
X34509914Y14945492D01*
X34453343Y14808917D01*
X34453340Y14808907D01*
X34424500Y14663920D01*
X34424500Y8902976D01*
X34406617Y8838829D01*
X34331522Y8714606D01*
X34280913Y8552192D01*
X34274500Y8481613D01*
X34274500Y7818386D01*
X34280913Y7747807D01*
X34331522Y7585393D01*
X34419530Y7439811D01*
X34539811Y7319530D01*
X34685393Y7231522D01*
X34847807Y7180913D01*
X34899145Y7176248D01*
X34918384Y7174500D01*
X34918387Y7174500D01*
X35431613Y7174500D01*
X35431616Y7174500D01*
X35452778Y7176423D01*
X35502192Y7180913D01*
X35502194Y7180913D01*
X35502196Y7180914D01*
X35664606Y7231522D01*
X35810185Y7319528D01*
X35810188Y7319530D01*
X35862819Y7372161D01*
X35924142Y7405646D01*
X35993834Y7400662D01*
X36049767Y7358790D01*
X36074184Y7293326D01*
X36074500Y7284480D01*
X36074500Y7251874D01*
X36054815Y7184835D01*
X36038181Y7164193D01*
X35977032Y7103044D01*
X35977029Y7103040D01*
X35888001Y6958705D01*
X35887996Y6958694D01*
X35834651Y6797709D01*
X35824500Y6698352D01*
X35824500Y6101662D01*
X35824501Y6101644D01*
X35834650Y6002292D01*
X35834651Y6002289D01*
X35887996Y5841305D01*
X35888001Y5841294D01*
X35977029Y5696959D01*
X35977032Y5696955D01*
X35988181Y5685807D01*
X36021666Y5624484D01*
X36024500Y5598126D01*
X36024500Y-6046044D01*
X36004815Y-6113083D01*
X35988181Y-6133725D01*
X23217181Y-18904725D01*
X23155858Y-18938210D01*
X23086166Y-18933226D01*
X23030233Y-18891354D01*
X23005816Y-18825890D01*
X23005500Y-18817044D01*
X23005500Y-11224010D01*
X23005500Y-11224000D01*
X22993947Y-11116544D01*
X22982741Y-11065033D01*
X22982637Y-11064722D01*
X22948616Y-10962502D01*
X22948613Y-10962496D01*
X22870828Y-10841462D01*
X22870825Y-10841457D01*
X22870820Y-10841451D01*
X22825076Y-10788659D01*
X22825072Y-10788656D01*
X22825070Y-10788653D01*
X22716336Y-10694433D01*
X22716333Y-10694431D01*
X22716331Y-10694430D01*
X22585465Y-10634664D01*
X22585460Y-10634662D01*
X22585459Y-10634662D01*
X22518420Y-10614977D01*
X22518422Y-10614977D01*
X22518417Y-10614976D01*
X22456347Y-10606052D01*
X22376000Y-10594500D01*
X10124000Y-10594500D01*
X10123991Y-10594500D01*
X10123990Y-10594501D01*
X10016549Y-10606052D01*
X10016537Y-10606054D01*
X9965027Y-10617260D01*
X9862502Y-10651383D01*
X9862496Y-10651386D01*
X9741462Y-10729171D01*
X9741451Y-10729179D01*
X9688659Y-10774923D01*
X9594433Y-10883664D01*
X9594430Y-10883668D01*
X9534664Y-11014534D01*
X9514976Y-11081582D01*
X9509949Y-11116549D01*
X9494502Y-11223990D01*
X9494500Y-11224001D01*
X9494500Y-21418245D01*
X9474815Y-21485284D01*
X9422011Y-21531039D01*
X9352853Y-21540983D01*
X9289297Y-21511958D01*
X9252794Y-21457249D01*
X9250558Y-21450500D01*
X9244814Y-21433166D01*
X9152712Y-21283844D01*
X9028656Y-21159788D01*
X8879334Y-21067686D01*
X8712797Y-21012501D01*
X8712795Y-21012500D01*
X8610016Y-21002000D01*
X8610009Y-21002000D01*
X7899006Y-21002000D01*
X7831967Y-20982315D01*
X7811325Y-20965681D01*
X6815602Y-19969957D01*
X6815598Y-19969954D01*
X6672211Y-19874145D01*
X6672198Y-19874138D01*
X6512878Y-19808146D01*
X6512866Y-19808143D01*
X6343732Y-19774500D01*
X6343729Y-19774500D01*
X4230715Y-19774500D01*
X4193827Y-19768886D01*
X4152196Y-19755914D01*
X4081616Y-19749500D01*
X3418384Y-19749500D01*
X3365449Y-19754310D01*
X3347803Y-19755914D01*
X3306173Y-19768886D01*
X3269285Y-19774500D01*
X1551268Y-19774500D01*
X1382133Y-19808143D01*
X1382125Y-19808145D01*
X1305074Y-19840061D01*
X1257621Y-19849500D01*
X1059298Y-19849500D01*
X1022432Y-19852401D01*
X1022426Y-19852402D01*
X864606Y-19898254D01*
X864603Y-19898255D01*
X723137Y-19981917D01*
X723129Y-19981923D01*
X606923Y-20098129D01*
X606917Y-20098137D01*
X523255Y-20239603D01*
X523254Y-20239606D01*
X477402Y-20397426D01*
X477401Y-20397432D01*
X474500Y-20434298D01*
X474500Y-20832104D01*
X454815Y-20899143D01*
X402011Y-20944898D01*
X332853Y-20954842D01*
X284502Y-20934330D01*
X283580Y-20935890D01*
X135396Y-20848255D01*
X135393Y-20848254D01*
X-22426Y-20802402D01*
X-22432Y-20802401D01*
X-59298Y-20799500D01*
X-59306Y-20799500D01*
X-1215694Y-20799500D01*
X-1215701Y-20799500D01*
X-1252567Y-20802401D01*
X-1252573Y-20802402D01*
X-1410393Y-20848254D01*
X-1410396Y-20848255D01*
X-1551862Y-20931917D01*
X-1551870Y-20931923D01*
X-1668076Y-21048129D01*
X-1668079Y-21048133D01*
X-1668081Y-21048135D01*
X-1751744Y-21189602D01*
X-1751744Y-21189603D01*
X-1751745Y-21189606D01*
X-1787917Y-21314110D01*
X-1797598Y-21347431D01*
X-1800500Y-21384306D01*
X-1800500Y-21815694D01*
X-1797598Y-21852569D01*
X-1751744Y-22010398D01*
X-1750871Y-22011874D01*
X-1750538Y-22013183D01*
X-1748646Y-22017557D01*
X-1749351Y-22017862D01*
X-1733685Y-22079597D01*
X-1749139Y-22132229D01*
X-1748646Y-22132443D01*
X-1750376Y-22136441D01*
X-1750871Y-22138126D01*
X-1751744Y-22139602D01*
X-1751745Y-22139606D01*
X-1782904Y-22246856D01*
X-1797598Y-22297431D01*
X-1800500Y-22334306D01*
X-1800500Y-22765694D01*
X-1797598Y-22802569D01*
X-1751744Y-22960398D01*
X-1729632Y-22997788D01*
X-1706218Y-23037380D01*
X-1689035Y-23105104D01*
X-1711195Y-23171366D01*
X-1765662Y-23215129D01*
X-1812950Y-23224500D01*
X-1955993Y-23224500D01*
X-2023032Y-23204815D01*
X-2043676Y-23188179D01*
X-2063183Y-23168671D01*
X-2096667Y-23107347D01*
X-2099500Y-23080992D01*
X-2099500Y-22502129D01*
X-2099501Y-22502123D01*
X-2105908Y-22442516D01*
X-2156202Y-22307671D01*
X-2160454Y-22299886D01*
X-2158823Y-22298995D01*
X-2179392Y-22243834D01*
X-2164534Y-22175563D01*
X-2157188Y-22164133D01*
X-2156202Y-22162328D01*
X-2105910Y-22027486D01*
X-2105909Y-22027485D01*
X-2105909Y-22027483D01*
X-2099500Y-21967873D01*
X-2099500Y-21663274D01*
X-2099500Y-21232129D01*
X-2099501Y-21232123D01*
X-2105908Y-21172516D01*
X-2156202Y-21037671D01*
X-2156206Y-21037664D01*
X-2242452Y-20922455D01*
X-2242455Y-20922452D01*
X-2357664Y-20836206D01*
X-2357671Y-20836202D01*
X-2492517Y-20785908D01*
X-2492516Y-20785908D01*
X-2552116Y-20779501D01*
X-2552119Y-20779500D01*
X-2552127Y-20779500D01*
X-2552134Y-20779500D01*
X-2552135Y-20779500D01*
X-4647870Y-20779500D01*
X-4647876Y-20779501D01*
X-4707483Y-20785908D01*
X-4842328Y-20836202D01*
X-4842335Y-20836206D01*
X-4957544Y-20922452D01*
X-4957547Y-20922455D01*
X-5043793Y-21037664D01*
X-5043797Y-21037671D01*
X-5052273Y-21060398D01*
X-5094091Y-21172517D01*
X-5100500Y-21232127D01*
X-5100499Y-21967872D01*
X-5094091Y-22027483D01*
X-5061134Y-22115843D01*
X-5056151Y-22185533D01*
X-5089636Y-22246856D01*
X-5150959Y-22280341D01*
X-5220651Y-22275357D01*
X-5264998Y-22246857D01*
X-5321901Y-22189954D01*
X-5465288Y-22094145D01*
X-5465301Y-22094138D01*
X-5624621Y-22028146D01*
X-5624633Y-22028143D01*
X-5793768Y-21994500D01*
X-5793771Y-21994500D01*
X-9986229Y-21994500D01*
X-9986232Y-21994500D01*
X-10155371Y-22028143D01*
X-10155379Y-22028146D01*
X-10184144Y-22040061D01*
X-10231596Y-22049500D01*
X-10947870Y-22049500D01*
X-10947876Y-22049501D01*
X-11007483Y-22055908D01*
X-11142328Y-22106202D01*
X-11142335Y-22106206D01*
X-11257544Y-22192452D01*
X-11257547Y-22192455D01*
X-11343793Y-22307664D01*
X-11343795Y-22307668D01*
X-11343796Y-22307669D01*
X-11394091Y-22442517D01*
X-11400500Y-22502127D01*
X-11400499Y-23237872D01*
X-11394091Y-23297483D01*
X-11343796Y-23432331D01*
X-11257546Y-23547546D01*
X-11142331Y-23633796D01*
X-11007483Y-23684091D01*
X-10947873Y-23690500D01*
X-10231594Y-23690499D01*
X-10184142Y-23699938D01*
X-10155374Y-23711855D01*
X-9986232Y-23745499D01*
X-9986231Y-23745500D01*
X-9986229Y-23745500D01*
X-6294006Y-23745500D01*
X-6226967Y-23765185D01*
X-6206324Y-23781819D01*
X-5425321Y-24562821D01*
X-5391838Y-24624142D01*
X-5396822Y-24693833D01*
X-5438693Y-24749767D01*
X-5504158Y-24774184D01*
X-5513003Y-24774500D01*
X-5650000Y-24774500D01*
X-5650019Y-24774501D01*
X-5752796Y-24785000D01*
X-5752799Y-24785001D01*
X-5919331Y-24840185D01*
X-5919334Y-24840186D01*
X-6068656Y-24932288D01*
X-6192712Y-25056344D01*
X-6284814Y-25205666D01*
X-6339999Y-25372203D01*
X-6350500Y-25474991D01*
X-6350499Y-26018713D01*
X-6350499Y-26487769D01*
X-6370183Y-26554808D01*
X-6386818Y-26575450D01*
X-6724549Y-26913181D01*
X-6785872Y-26946666D01*
X-6812230Y-26949500D01*
X-12025500Y-26949500D01*
X-12092539Y-26929815D01*
X-12138294Y-26877011D01*
X-12149500Y-26825500D01*
X-12149500Y-25449998D01*
X-12149501Y-25449981D01*
X-12160000Y-25347203D01*
X-12160001Y-25347200D01*
X-12215185Y-25180668D01*
X-12215187Y-25180663D01*
X-12307289Y-25031342D01*
X-12431342Y-24907289D01*
X-12580663Y-24815187D01*
X-12580668Y-24815185D01*
X-12683404Y-24781142D01*
X-12747203Y-24760001D01*
X-12747204Y-24760000D01*
X-12849989Y-24749500D01*
X-14150001Y-24749500D01*
X-14150018Y-24749501D01*
X-14252796Y-24760000D01*
X-14252799Y-24760001D01*
X-14396903Y-24807753D01*
X-14419334Y-24815186D01*
X-14568656Y-24907288D01*
X-14692712Y-25031344D01*
X-14784814Y-25180666D01*
X-14839999Y-25347203D01*
X-14850500Y-25449991D01*
X-14850499Y-26481286D01*
X-14850499Y-26825500D01*
X-14870184Y-26892539D01*
X-14922987Y-26938294D01*
X-14974499Y-26949500D01*
X-15121045Y-26949500D01*
X-15188084Y-26929815D01*
X-15208726Y-26913181D01*
X-35988181Y-6133725D01*
X-36021666Y-6072402D01*
X-36024500Y-6046044D01*
X-36024500Y-2852127D01*
X-29187745Y-2852127D01*
X-29187744Y-5347872D01*
X-29181336Y-5407483D01*
X-29131041Y-5542331D01*
X-29044791Y-5657546D01*
X-28929576Y-5743796D01*
X-28794728Y-5794091D01*
X-28735118Y-5800500D01*
X-26239373Y-5800499D01*
X-26191002Y-5795299D01*
X-26179761Y-5794091D01*
X-26044916Y-5743797D01*
X-26044909Y-5743793D01*
X-25929700Y-5657547D01*
X-25929697Y-5657544D01*
X-25843451Y-5542335D01*
X-25843447Y-5542328D01*
X-25793153Y-5407482D01*
X-25786746Y-5347883D01*
X-25786745Y-5347881D01*
X-25786745Y-5347873D01*
X-25786745Y-5347870D01*
X25786746Y-5347870D01*
X25786747Y-5347876D01*
X25793154Y-5407483D01*
X25843448Y-5542328D01*
X25843452Y-5542335D01*
X25929698Y-5657544D01*
X25929701Y-5657547D01*
X26044910Y-5743793D01*
X26044917Y-5743797D01*
X26179763Y-5794091D01*
X26179762Y-5794091D01*
X26186690Y-5794835D01*
X26239373Y-5800500D01*
X28735118Y-5800499D01*
X28794729Y-5794091D01*
X28929577Y-5743796D01*
X29044792Y-5657546D01*
X29131042Y-5542331D01*
X29181337Y-5407483D01*
X29187746Y-5347873D01*
X29187745Y-2852128D01*
X29181337Y-2792517D01*
X29131042Y-2657669D01*
X29131041Y-2657668D01*
X29131039Y-2657664D01*
X29044793Y-2542455D01*
X29044790Y-2542452D01*
X28929581Y-2456206D01*
X28929574Y-2456202D01*
X28794728Y-2405908D01*
X28794729Y-2405908D01*
X28735129Y-2399501D01*
X28735127Y-2399500D01*
X28735119Y-2399500D01*
X28735110Y-2399500D01*
X26239375Y-2399500D01*
X26239369Y-2399501D01*
X26179762Y-2405908D01*
X26044917Y-2456202D01*
X26044910Y-2456206D01*
X25929701Y-2542452D01*
X25929698Y-2542455D01*
X25843452Y-2657664D01*
X25843448Y-2657671D01*
X25793154Y-2792517D01*
X25786747Y-2852116D01*
X25786747Y-2852123D01*
X25786746Y-2852135D01*
X25786746Y-5347870D01*
X-25786745Y-5347870D01*
X-25786745Y-4125001D01*
X-25786745Y-3349999D01*
X-10500000Y-3349999D01*
X-10497751Y-3448269D01*
X-10459408Y-3641032D01*
X-10384196Y-3822611D01*
X-10275004Y-3986028D01*
X-10136029Y-4125003D01*
X-9972612Y-4234195D01*
X-9972605Y-4234197D01*
X-9972605Y-4234198D01*
X-9931467Y-4251237D01*
X-9791033Y-4309407D01*
X-9598270Y-4347750D01*
X-9500000Y-4349999D01*
X-2750000Y-4350000D01*
X-2651730Y-4347751D01*
X-2458967Y-4309408D01*
X-2458960Y-4309405D01*
X-2277394Y-4234199D01*
X-2277381Y-4234192D01*
X-2113971Y-4125004D01*
X-2113967Y-4125001D01*
X-1974998Y-3986032D01*
X-1974995Y-3986028D01*
X-1865807Y-3822618D01*
X-1865800Y-3822605D01*
X-1790593Y-3641037D01*
X-1790590Y-3641025D01*
X-1752250Y-3448276D01*
X-1752249Y-3448274D01*
X-1752249Y-3448270D01*
X-1750000Y-3350000D01*
X-1750000Y-2350001D01*
X-1752249Y-2251731D01*
X-1752250Y-2251724D01*
X-1790590Y-2058975D01*
X-1790593Y-2058963D01*
X-1865800Y-1877395D01*
X-1865807Y-1877382D01*
X-1974995Y-1713972D01*
X-1974998Y-1713968D01*
X-2113967Y-1574999D01*
X-2113971Y-1574996D01*
X-2277381Y-1465808D01*
X-2277394Y-1465801D01*
X-2458962Y-1390594D01*
X-2458974Y-1390591D01*
X-2651723Y-1352251D01*
X-2651725Y-1352250D01*
X-2651730Y-1352250D01*
X-2712457Y-1350860D01*
X-2750021Y-1350000D01*
X-9499979Y-1350000D01*
X-9500000Y-1350000D01*
X-9598270Y-1352249D01*
X-9598274Y-1352249D01*
X-9598276Y-1352250D01*
X-9791025Y-1390590D01*
X-9791037Y-1390593D01*
X-9972605Y-1465800D01*
X-9972618Y-1465807D01*
X-10136028Y-1574995D01*
X-10136032Y-1574998D01*
X-10275001Y-1713967D01*
X-10275004Y-1713971D01*
X-10384192Y-1877381D01*
X-10384199Y-1877394D01*
X-10384199Y-1877395D01*
X-10459408Y-2058967D01*
X-10497751Y-2251730D01*
X-10500000Y-2350000D01*
X-10500000Y-3349999D01*
X-25786745Y-3349999D01*
X-25786745Y-2852129D01*
X-25786746Y-2852123D01*
X-25793153Y-2792516D01*
X-25843447Y-2657671D01*
X-25843451Y-2657664D01*
X-25929697Y-2542455D01*
X-25929700Y-2542452D01*
X-26044909Y-2456206D01*
X-26044916Y-2456202D01*
X-26179762Y-2405908D01*
X-26179761Y-2405908D01*
X-26239361Y-2399501D01*
X-26239364Y-2399500D01*
X-26239372Y-2399500D01*
X-26239379Y-2399500D01*
X-26239380Y-2399500D01*
X-28735115Y-2399500D01*
X-28735121Y-2399501D01*
X-28794728Y-2405908D01*
X-28929573Y-2456202D01*
X-28929580Y-2456206D01*
X-29044789Y-2542452D01*
X-29044792Y-2542455D01*
X-29131038Y-2657664D01*
X-29131040Y-2657668D01*
X-29131041Y-2657669D01*
X-29181336Y-2792517D01*
X-29187745Y-2852127D01*
X-36024500Y-2852127D01*
X-36024500Y5598126D01*
X-36004815Y5665165D01*
X-35988181Y5685807D01*
X-35977032Y5696955D01*
X-35977029Y5696959D01*
X-35888001Y5841294D01*
X-35887996Y5841305D01*
X-35834651Y6002290D01*
X-35824500Y6101647D01*
X-35824500Y6698337D01*
X-35824501Y6698355D01*
X-35834650Y6797707D01*
X-35834651Y6797710D01*
X-35887996Y6958694D01*
X-35888001Y6958705D01*
X-35977029Y7103040D01*
X-35977032Y7103044D01*
X-36038181Y7164193D01*
X-36071666Y7225516D01*
X-36074500Y7251874D01*
X-36074500Y7284480D01*
X-36054815Y7351519D01*
X-36002011Y7397274D01*
X-35932853Y7407218D01*
X-35869297Y7378193D01*
X-35862819Y7372161D01*
X-35810188Y7319530D01*
X-35810185Y7319528D01*
X-35664606Y7231522D01*
X-35502196Y7180914D01*
X-35502194Y7180913D01*
X-35502192Y7180913D01*
X-35452778Y7176423D01*
X-35431616Y7174500D01*
X-35431613Y7174500D01*
X-34918387Y7174500D01*
X-34918384Y7174500D01*
X-34899145Y7176248D01*
X-34847807Y7180913D01*
X-34685393Y7231522D01*
X-34539811Y7319530D01*
X-34419530Y7439811D01*
X-34331522Y7585393D01*
X-34280913Y7747807D01*
X-34274500Y7818386D01*
X-34274500Y8481613D01*
X-34280913Y8552192D01*
X-34331522Y8714606D01*
X-34406617Y8838829D01*
X-34424500Y8902976D01*
X-34424500Y9583920D01*
X-34424499Y9583920D01*
X-34453340Y9728907D01*
X-34453343Y9728917D01*
X-34509912Y9865488D01*
X-34509919Y9865501D01*
X-34592047Y9988414D01*
X-34592049Y9988416D01*
X-34696584Y10092951D01*
X-37588181Y12984548D01*
X-37621666Y13045871D01*
X-37624500Y13072229D01*
X-37624500Y14059833D01*
X-37635003Y14162638D01*
X-37690202Y14329217D01*
X-37690204Y14329222D01*
X-37782331Y14478582D01*
X-37906417Y14602668D01*
X-37906419Y14602670D01*
X-38055780Y14694797D01*
X-38166834Y14731596D01*
X-38222361Y14749996D01*
X-38259236Y14753763D01*
X-38325174Y14760500D01*
X-39724826Y14760500D01*
X-39827638Y14749996D01*
X-39994220Y14694797D01*
X-40143581Y14602670D01*
X-40267670Y14478581D01*
X-40359797Y14329220D01*
X-40414996Y14162638D01*
X-40425499Y14059833D01*
X-40425500Y14059822D01*
X-40425500Y12660177D01*
X-40425499Y12660166D01*
X-40414996Y12557361D01*
X-40396596Y12501834D01*
X-40359797Y12390780D01*
X-40267670Y12241419D01*
X-40143581Y12117330D01*
X-39994220Y12025203D01*
X-39994217Y12025202D01*
X-39827638Y11970003D01*
X-39724833Y11959500D01*
X-39724826Y11959500D01*
X-38737230Y11959500D01*
X-38670191Y11939815D01*
X-38649549Y11923181D01*
X-35961819Y9235451D01*
X-35928334Y9174128D01*
X-35925500Y9147770D01*
X-35925500Y9015520D01*
X-35945185Y8948481D01*
X-35997989Y8902726D01*
X-36067147Y8892782D01*
X-36130703Y8921807D01*
X-36137181Y8927839D01*
X-36189811Y8980469D01*
X-36189813Y8980470D01*
X-36189815Y8980472D01*
X-36335394Y9068478D01*
X-36497804Y9119086D01*
X-36568384Y9125500D01*
X-37081616Y9125500D01*
X-37152196Y9119086D01*
X-37314606Y9068478D01*
X-37460185Y8980472D01*
X-37580472Y8860185D01*
X-37668478Y8714606D01*
X-37719086Y8552196D01*
X-37725500Y8481616D01*
X-37725500Y7818384D01*
X-37719086Y7747804D01*
X-37668478Y7585394D01*
X-37650000Y7554827D01*
X-37593383Y7461173D01*
X-37575500Y7397023D01*
X-37575500Y7134104D01*
X-37593961Y7069009D01*
X-37662003Y6958697D01*
X-37715349Y6797708D01*
X-37725500Y6698345D01*
X-37725499Y6326109D01*
X-37725499Y6101662D01*
X-37725498Y6101644D01*
X-37715349Y6002292D01*
X-37662003Y5841303D01*
X-37661999Y5841297D01*
X-37661998Y5841294D01*
X-37572970Y5696959D01*
X-37572967Y5696955D01*
X-37561819Y5685807D01*
X-37528334Y5624484D01*
X-37525500Y5598126D01*
X-37525500Y-6482192D01*
X-37496658Y-6627187D01*
X-37440084Y-6763769D01*
X-37412284Y-6805374D01*
X-37357952Y-6886690D01*
X-16066225Y-28178416D01*
X-15961690Y-28282951D01*
X-15838769Y-28365084D01*
X-15838762Y-28365086D01*
X-15838762Y-28365087D01*
X-15800553Y-28380914D01*
X-15800552Y-28380914D01*
X-15702186Y-28421659D01*
X-15586033Y-28444763D01*
X-15562960Y-28449352D01*
X-15557193Y-28450500D01*
X-15557192Y-28450500D01*
X-6376079Y-28450500D01*
X-6231092Y-28421659D01*
X-6231091Y-28421658D01*
X-6231087Y-28421658D01*
X-6132722Y-28380914D01*
X-6094507Y-28365085D01*
X-6094506Y-28365084D01*
X-6094505Y-28365084D01*
X-6006040Y-28305974D01*
X-5994554Y-28298300D01*
X-5971586Y-28282954D01*
X-5971584Y-28282952D01*
X-5450451Y-27761818D01*
X-5389128Y-27728333D01*
X-5362770Y-27725499D01*
X-4349998Y-27725499D01*
X-4349992Y-27725499D01*
X-4349983Y-27725498D01*
X-4349981Y-27725498D01*
X-4247203Y-27714999D01*
X-4247200Y-27714998D01*
X-4080666Y-27659814D01*
X-3931344Y-27567712D01*
X-3807288Y-27443656D01*
X-3715186Y-27294334D01*
X-3715185Y-27294333D01*
X-3711821Y-27288878D01*
X-3659873Y-27242154D01*
X-3590910Y-27230931D01*
X-3526828Y-27258775D01*
X-3518623Y-27266272D01*
X-3379792Y-27405104D01*
X-3207816Y-27530051D01*
X-3018412Y-27626557D01*
X-2816243Y-27692246D01*
X-2606287Y-27725500D01*
X-2606286Y-27725500D01*
X-2393714Y-27725500D01*
X-2393713Y-27725500D01*
X-2183757Y-27692246D01*
X-1981588Y-27626557D01*
X-1792184Y-27530051D01*
X-1792181Y-27530049D01*
X-1792179Y-27530048D01*
X-1620213Y-27405109D01*
X-1469890Y-27254786D01*
X-1344951Y-27082820D01*
X-1248444Y-26893414D01*
X-1248159Y-26892539D01*
X-1182754Y-26691243D01*
X-1149500Y-26481287D01*
X-1149500Y-26018713D01*
X-1182753Y-25808760D01*
X-1248444Y-25606585D01*
X-1344951Y-25417179D01*
X-1469890Y-25245213D01*
X-1469894Y-25245209D01*
X-1527923Y-25187181D01*
X-1561408Y-25125858D01*
X-1556424Y-25056166D01*
X-1514552Y-25000233D01*
X-1449088Y-24975816D01*
X-1440242Y-24975500D01*
X173731Y-24975500D01*
X173732Y-24975499D01*
X342874Y-24941855D01*
X502205Y-24875858D01*
X645599Y-24780045D01*
X1412819Y-24012825D01*
X1474142Y-23979340D01*
X1543833Y-23984324D01*
X1599767Y-24026196D01*
X1624184Y-24091660D01*
X1624500Y-24100506D01*
X1624500Y-25039241D01*
X1604815Y-25106280D01*
X1588182Y-25126922D01*
X1469889Y-25245215D01*
X1344951Y-25417179D01*
X1248444Y-25606585D01*
X1182753Y-25808760D01*
X1149500Y-26018713D01*
X1149500Y-26481287D01*
X1182754Y-26691243D01*
X1248159Y-26892539D01*
X1248444Y-26893414D01*
X1344951Y-27082820D01*
X1469890Y-27254786D01*
X1469896Y-27254792D01*
X1620208Y-27405104D01*
X1648384Y-27425575D01*
X1691050Y-27480902D01*
X1699500Y-27525893D01*
X1699500Y-28383889D01*
X1679815Y-28450928D01*
X1627011Y-28496683D01*
X1557853Y-28506627D01*
X1511350Y-28490006D01*
X1414606Y-28431522D01*
X1261743Y-28383889D01*
X1252196Y-28380914D01*
X1252194Y-28380913D01*
X1252192Y-28380913D01*
X1202778Y-28376423D01*
X1181616Y-28374500D01*
X668384Y-28374500D01*
X649145Y-28376248D01*
X597807Y-28380913D01*
X597804Y-28380914D01*
X443501Y-28428996D01*
X435391Y-28431523D01*
X393881Y-28456617D01*
X329732Y-28474500D01*
X-134962Y-28474500D01*
X-202001Y-28454815D01*
X-225380Y-28433617D01*
X-225867Y-28434104D01*
X-354000Y-28305971D01*
X-502066Y-28214642D01*
X-502077Y-28214637D01*
X-667223Y-28159913D01*
X-769144Y-28149500D01*
X-769152Y-28149500D01*
X-1355848Y-28149500D01*
X-1355855Y-28149500D01*
X-1457776Y-28159913D01*
X-1513614Y-28178416D01*
X-1622925Y-28214638D01*
X-1622927Y-28214639D01*
X-1622933Y-28214642D01*
X-1770999Y-28305971D01*
X-1771002Y-28305973D01*
X-1894025Y-28428996D01*
X-1894028Y-28429000D01*
X-1985357Y-28577066D01*
X-1985358Y-28577069D01*
X-1985362Y-28577075D01*
X-2040087Y-28742225D01*
X-2050500Y-28844152D01*
X-2050500Y-29855848D01*
X-2040087Y-29957775D01*
X-1985362Y-30122925D01*
X-1894026Y-30271003D01*
X-1771003Y-30394026D01*
X-1622925Y-30485362D01*
X-1457775Y-30540087D01*
X-1355848Y-30550500D01*
X-1355843Y-30550500D01*
X-769157Y-30550500D01*
X-769152Y-30550500D01*
X-667225Y-30540087D01*
X-502075Y-30485362D01*
X-502069Y-30485358D01*
X-502066Y-30485357D01*
X-354000Y-30394028D01*
X-353999Y-30394027D01*
X-353997Y-30394026D01*
X-230974Y-30271003D01*
X-230973Y-30271002D01*
X-225867Y-30265896D01*
X-224583Y-30267179D01*
X-175217Y-30232216D01*
X-134962Y-30225500D01*
X148578Y-30225500D01*
X215617Y-30245185D01*
X261372Y-30297989D01*
X271316Y-30367147D01*
X242291Y-30430703D01*
X213675Y-30455038D01*
X96959Y-30527029D01*
X96955Y-30527032D01*
X-22967Y-30646955D01*
X-22970Y-30646959D01*
X-111998Y-30791294D01*
X-111999Y-30791297D01*
X-112003Y-30791303D01*
X-165349Y-30952292D01*
X-175500Y-31051655D01*
X-175499Y-31648344D01*
X-165349Y-31747708D01*
X-112003Y-31908697D01*
X-22968Y-32053044D01*
X-16268Y-32059744D01*
X17217Y-32121067D01*
X12233Y-32190759D01*
X-29639Y-32246692D01*
X-95103Y-32271109D01*
X-103949Y-32271425D01*
X-13898061Y-32271425D01*
X-13900895Y-32271393D01*
X-13904788Y-32271303D01*
X-13986989Y-32269423D01*
X-14008342Y-32267073D01*
X-14178554Y-32233217D01*
X-14201816Y-32226160D01*
X-14360823Y-32160298D01*
X-14382263Y-32148839D01*
X-14526557Y-32052423D01*
X-14543318Y-32038984D01*
X-14605592Y-31979495D01*
X-14607620Y-31977513D01*
X-36656434Y-9928699D01*
X-36657195Y-9927932D01*
X-36854341Y-9727321D01*
X-36859612Y-9721610D01*
X-37228266Y-9296164D01*
X-37233820Y-9289272D01*
X-37570863Y-8839038D01*
X-37575911Y-8831767D01*
X-37879970Y-8358645D01*
X-37884487Y-8351032D01*
X-38154020Y-7857420D01*
X-38157982Y-7849505D01*
X-38391612Y-7337928D01*
X-38395000Y-7329750D01*
X-38591546Y-6802790D01*
X-38594341Y-6794391D01*
X-38752787Y-6254770D01*
X-38754976Y-6246193D01*
X-38874521Y-5696645D01*
X-38876093Y-5687934D01*
X-38956132Y-5131244D01*
X-38957078Y-5122442D01*
X-38997235Y-4560927D01*
X-38997546Y-4553162D01*
X-38999996Y-4271996D01*
X-39000001Y-4270916D01*
X-39000001Y528565D01*
X-39002410Y626829D01*
X-39002411Y626835D01*
X-39040747Y819555D01*
X-39040748Y819557D01*
X-39040768Y819606D01*
X-39115951Y1001109D01*
X-39143244Y1041956D01*
X-39225122Y1164496D01*
X-39364070Y1303444D01*
X-39364076Y1303449D01*
X-39364268Y1303577D01*
X-39417553Y1339182D01*
X-39527456Y1412619D01*
X-39527459Y1412620D01*
X-39527466Y1412625D01*
X-39709015Y1487827D01*
X-39709018Y1487827D01*
X-39709019Y1487828D01*
X-39757518Y1497475D01*
X-39901746Y1526166D01*
X-40000000Y1528575D01*
X-40000010Y1528575D01*
X-42199142Y1528575D01*
X-42200815Y1528586D01*
X-42205692Y1528651D01*
X-42373464Y1530916D01*
X-42385658Y1531684D01*
X-42729542Y1570428D01*
X-42743249Y1572757D01*
X-42743639Y1572846D01*
X-43079819Y1649574D01*
X-43093163Y1653418D01*
X-43419039Y1767445D01*
X-43431862Y1772757D01*
X-43742902Y1922544D01*
X-43755070Y1929269D01*
X-43966446Y2062083D01*
X-44047382Y2112938D01*
X-44058708Y2120973D01*
X-44328624Y2336223D01*
X-44338984Y2345481D01*
X-44583098Y2589593D01*
X-44592364Y2599962D01*
X-44807603Y2869862D01*
X-44815650Y2881203D01*
X-44999319Y3173508D01*
X-45006045Y3185678D01*
X-45155832Y3496711D01*
X-45161153Y3509558D01*
X-45275170Y3835399D01*
X-45279020Y3848762D01*
X-45355838Y4185327D01*
X-45358167Y4199035D01*
X-45396820Y4542079D01*
X-45397600Y4555963D01*
X-45397600Y4602840D01*
X-43797535Y4602840D01*
X-43758199Y4354484D01*
X-43680492Y4115330D01*
X-43639077Y4034049D01*
X-43566335Y3891285D01*
X-43566332Y3891281D01*
X-43418537Y3687857D01*
X-43418533Y3687852D01*
X-43240723Y3510042D01*
X-43240718Y3510038D01*
X-43037294Y3362243D01*
X-43037291Y3362241D01*
X-42967323Y3326590D01*
X-42813245Y3248083D01*
X-42574091Y3170376D01*
X-42325735Y3131041D01*
X-42074272Y3131041D01*
X-42074267Y3131041D01*
X-41825910Y3170376D01*
X-41586756Y3248083D01*
X-41362707Y3362243D01*
X-41159283Y3510038D01*
X-41159278Y3510042D01*
X-40981468Y3687852D01*
X-40981464Y3687857D01*
X-40833669Y3891281D01*
X-40719509Y4115330D01*
X-40641803Y4354484D01*
X-40602466Y4602849D01*
X-40600000Y4728575D01*
X-40602466Y4854300D01*
X-40641803Y5102665D01*
X-40719509Y5341819D01*
X-40833669Y5565868D01*
X-40981464Y5769292D01*
X-40981468Y5769297D01*
X-41159278Y5947107D01*
X-41159283Y5947111D01*
X-41362707Y6094906D01*
X-41362711Y6094909D01*
X-41505475Y6167651D01*
X-41586756Y6209066D01*
X-41586758Y6209066D01*
X-41586761Y6209068D01*
X-41778613Y6271405D01*
X-41825910Y6286773D01*
X-42074267Y6326109D01*
X-42074272Y6326109D01*
X-42325730Y6326109D01*
X-42325735Y6326109D01*
X-42574091Y6286773D01*
X-42813241Y6209068D01*
X-43037291Y6094909D01*
X-43240725Y5947106D01*
X-43418532Y5769299D01*
X-43566335Y5565865D01*
X-43680494Y5341815D01*
X-43733263Y5179410D01*
X-43758199Y5102665D01*
X-43797535Y4854309D01*
X-43797535Y4602840D01*
X-45397600Y4602840D01*
X-45397600Y4901186D01*
X-45396820Y4915070D01*
X-45358167Y5258114D01*
X-45355838Y5271822D01*
X-45279020Y5608387D01*
X-45275170Y5621750D01*
X-45161153Y5947591D01*
X-45155832Y5960438D01*
X-45006045Y6271471D01*
X-44999319Y6283641D01*
X-44815650Y6575946D01*
X-44807603Y6587287D01*
X-44592364Y6857187D01*
X-44583098Y6867556D01*
X-44338984Y7111668D01*
X-44328616Y7120933D01*
X-44058720Y7336167D01*
X-44047378Y7344214D01*
X-43755070Y7527880D01*
X-43742900Y7534606D01*
X-43431874Y7684387D01*
X-43419027Y7689709D01*
X-43093172Y7803728D01*
X-43079810Y7807577D01*
X-42743249Y7884392D01*
X-42729540Y7886721D01*
X-42385666Y7925464D01*
X-42373457Y7926233D01*
X-42200816Y7928564D01*
X-42199142Y7928575D01*
X-41000001Y7928575D01*
X-41000001Y18439993D01*
X-40430300Y18439993D01*
X-40411135Y18208702D01*
X-40411133Y18208691D01*
X-40354157Y17983699D01*
X-40260924Y17771151D01*
X-40133983Y17576852D01*
X-40133980Y17576849D01*
X-40133979Y17576847D01*
X-39976784Y17406087D01*
X-39976780Y17406084D01*
X-39976777Y17406081D01*
X-39793634Y17263535D01*
X-39793628Y17263531D01*
X-39589504Y17153064D01*
X-39589495Y17153061D01*
X-39369984Y17077702D01*
X-39203996Y17050004D01*
X-39141049Y17039500D01*
X-39141048Y17039500D01*
X-38908952Y17039500D01*
X-38908951Y17039500D01*
X-38846004Y17050004D01*
X-38680015Y17077702D01*
X-38460504Y17153061D01*
X-38460495Y17153064D01*
X-38256371Y17263531D01*
X-38256365Y17263535D01*
X-38073222Y17406081D01*
X-38073219Y17406084D01*
X-37916016Y17576852D01*
X-37789075Y17771151D01*
X-37695842Y17983699D01*
X-37638866Y18208691D01*
X-37638864Y18208702D01*
X-37619700Y18439993D01*
X-37619700Y18440006D01*
X-37638864Y18671297D01*
X-37638866Y18671308D01*
X-37695842Y18896300D01*
X-37789075Y19108848D01*
X-37916016Y19303147D01*
X-37916019Y19303151D01*
X-37916021Y19303153D01*
X-38073216Y19473913D01*
X-38116529Y19507625D01*
X-38256365Y19616464D01*
X-38256371Y19616468D01*
X-38256372Y19616468D01*
X-38256374Y19616470D01*
X-38460497Y19726936D01*
X-38574487Y19766068D01*
X-38680015Y19802297D01*
X-38680017Y19802297D01*
X-38680019Y19802298D01*
X-38908951Y19840500D01*
X-39141049Y19840500D01*
X-39369981Y19802298D01*
X-39589503Y19726936D01*
X-39793626Y19616470D01*
X-39976784Y19473913D01*
X-40133979Y19303153D01*
X-40260924Y19108849D01*
X-40260924Y19108848D01*
X-40354157Y18896300D01*
X-40411133Y18671308D01*
X-40411135Y18671297D01*
X-40430300Y18440006D01*
X-40430300Y18439993D01*
X-41000001Y18439993D01*
X-41000001Y19227139D01*
X-40999969Y19229971D01*
X-40998002Y19316066D01*
X-40995652Y19337421D01*
X-40961801Y19507631D01*
X-40954745Y19530894D01*
X-40888884Y19689907D01*
X-40877425Y19711347D01*
X-40781803Y19854459D01*
X-40766382Y19873250D01*
X-40644676Y19994957D01*
X-40625883Y20010379D01*
X-40482776Y20105997D01*
X-40461337Y20117456D01*
X-40302320Y20183319D01*
X-40279057Y20190375D01*
X-40108848Y20224226D01*
X-40087493Y20226576D01*
X-40001399Y20228543D01*
X-39998567Y20228575D01*
X-38171873Y20228575D01*
X-38168858Y20228538D01*
G37*
%TD.AperFunction*%
%TD*%
%TA.AperFunction,Conductor*%
%TO.N,Net-(J3-Pin_2)*%
G36*
X22443039Y-11119685D02*
G01*
X22488794Y-11172489D01*
X22500000Y-11224000D01*
X22500000Y-19570544D01*
X22480315Y-19637583D01*
X22463681Y-19658225D01*
X14058725Y-28063181D01*
X13997402Y-28096666D01*
X13971044Y-28099500D01*
X10124000Y-28099500D01*
X10056961Y-28079815D01*
X10011206Y-28027011D01*
X10000000Y-27975500D01*
X10000000Y-27829803D01*
X10019685Y-27762764D01*
X10072489Y-27717009D01*
X10141647Y-27707065D01*
X10162989Y-27712093D01*
X10247203Y-27739999D01*
X10349991Y-27750500D01*
X11650008Y-27750499D01*
X11752797Y-27739999D01*
X11919334Y-27684814D01*
X12068656Y-27592712D01*
X12192712Y-27468656D01*
X12284814Y-27319334D01*
X12339999Y-27152797D01*
X12350500Y-27050009D01*
X12350499Y-25449992D01*
X12339999Y-25347203D01*
X12284814Y-25180666D01*
X12192712Y-25031344D01*
X12068656Y-24907288D01*
X11919334Y-24815186D01*
X11752797Y-24760001D01*
X11752795Y-24760000D01*
X11650010Y-24749500D01*
X10349998Y-24749500D01*
X10349981Y-24749501D01*
X10247203Y-24760000D01*
X10247196Y-24760002D01*
X10163003Y-24787901D01*
X10093175Y-24790303D01*
X10033133Y-24754571D01*
X10001941Y-24692050D01*
X10000000Y-24670195D01*
X10000000Y-11224000D01*
X10019685Y-11156961D01*
X10072489Y-11111206D01*
X10124000Y-11100000D01*
X22376000Y-11100000D01*
X22443039Y-11119685D01*
G37*
%TD.AperFunction*%
%TD*%
M02*
