M48
; DRILL file {KiCad 8.0.1} date 2024-05-24T22:30:21+0900
; FORMAT={-:-/ absolute / inch / decimal}
; #@! TF.CreationDate,2024-05-24T22:30:21+09:00
; #@! TF.GenerationSoftware,Kicad,Pcbnew,8.0.1
; #@! TF.FileFunction,Plated,1,2,PTH
FMAT,2
INCH
; #@! TA.AperFunction,Plated,PTH,ViaDrill
T1C0.0157
; #@! TA.AperFunction,Plated,PTH,ComponentDrill
T2C0.0354
; #@! TA.AperFunction,Plated,PTH,ComponentDrill
T3C0.0374
; #@! TA.AperFunction,Plated,PTH,ComponentDrill
T4C0.0394
; #@! TA.AperFunction,Plated,PTH,ComponentDrill
T5C0.0472
%
G90
G05
T1
X5.6693Y-3.5039
X6.9882Y-4.6535
T2
X5.5502Y-2.9709
X5.5502Y-3.0709
X5.5502Y-3.1709
X8.623Y-2.9709
X8.623Y-3.0709
X8.623Y-3.1709
T3
X6.5453Y-4.7894
X6.6437Y-4.7894
X6.7421Y-4.7894
X6.8406Y-4.7894
X6.939Y-4.7894
T4
X7.185Y-4.7894
X7.2835Y-4.7894
X7.5295Y-4.7894
X7.628Y-4.7894
T5
X5.7092Y-3.8583
X6.0044Y-3.8583
X8.1688Y-3.8583
X8.4641Y-3.8583
M30
