%TF.GenerationSoftware,KiCad,Pcbnew,8.0.1*%
%TF.CreationDate,2024-09-21T22:08:13+09:00*%
%TF.ProjectId,Kicker-20240411,4b69636b-6572-42d3-9230-323430343131,rev?*%
%TF.SameCoordinates,Original*%
%TF.FileFunction,Soldermask,Top*%
%TF.FilePolarity,Negative*%
%FSLAX46Y46*%
G04 Gerber Fmt 4.6, Leading zero omitted, Abs format (unit mm)*
G04 Created by KiCad (PCBNEW 8.0.1) date 2024-09-21 22:08:13*
%MOMM*%
%LPD*%
G01*
G04 APERTURE LIST*
G04 Aperture macros list*
%AMRoundRect*
0 Rectangle with rounded corners*
0 $1 Rounding radius*
0 $2 $3 $4 $5 $6 $7 $8 $9 X,Y pos of 4 corners*
0 Add a 4 corners polygon primitive as box body*
4,1,4,$2,$3,$4,$5,$6,$7,$8,$9,$2,$3,0*
0 Add four circle primitives for the rounded corners*
1,1,$1+$1,$2,$3*
1,1,$1+$1,$4,$5*
1,1,$1+$1,$6,$7*
1,1,$1+$1,$8,$9*
0 Add four rect primitives between the rounded corners*
20,1,$1+$1,$2,$3,$4,$5,0*
20,1,$1+$1,$4,$5,$6,$7,0*
20,1,$1+$1,$6,$7,$8,$9,0*
20,1,$1+$1,$8,$9,$2,$3,0*%
G04 Aperture macros list end*
%ADD10RoundRect,0.200000X-0.200000X-0.275000X0.200000X-0.275000X0.200000X0.275000X-0.200000X0.275000X0*%
%ADD11RoundRect,0.225000X-0.225000X-0.250000X0.225000X-0.250000X0.225000X0.250000X-0.225000X0.250000X0*%
%ADD12C,3.200000*%
%ADD13RoundRect,0.250200X0.649800X-0.649800X0.649800X0.649800X-0.649800X0.649800X-0.649800X-0.649800X0*%
%ADD14C,1.800000*%
%ADD15R,2.000000X0.640000*%
%ADD16R,2.400000X2.400000*%
%ADD17C,2.400000*%
%ADD18RoundRect,0.250000X-0.600000X-0.750000X0.600000X-0.750000X0.600000X0.750000X-0.600000X0.750000X0*%
%ADD19O,1.700000X2.000000*%
%ADD20RoundRect,0.200000X0.200000X0.275000X-0.200000X0.275000X-0.200000X-0.275000X0.200000X-0.275000X0*%
%ADD21R,3.000000X3.000000*%
%ADD22RoundRect,0.250200X-0.649800X0.649800X-0.649800X-0.649800X0.649800X-0.649800X0.649800X0.649800X0*%
%ADD23R,1.700000X1.700000*%
%ADD24O,1.700000X1.700000*%
G04 APERTURE END LIST*
D10*
%TO.C,R5*%
X-819681Y-28500000D03*
X830319Y-28500000D03*
%TD*%
D11*
%TO.C,C2*%
X37375000Y9535700D03*
X38925000Y9535700D03*
%TD*%
%TO.C,C3*%
X-38925000Y9535700D03*
X-37375000Y9535700D03*
%TD*%
D10*
%TO.C,R2*%
X-39025000Y11335700D03*
X-37375000Y11335700D03*
%TD*%
D12*
%TO.C,REF\u002A\u002A*%
X-42200000Y5564300D03*
%TD*%
D10*
%TO.C,R3*%
X-819681Y-36250000D03*
X830319Y-36250000D03*
%TD*%
D13*
%TO.C,U2*%
X-39025000Y14195700D03*
D14*
X-39025000Y16735700D03*
X-39025000Y19275700D03*
%TD*%
D15*
%TO.C,D2*%
X3155319Y-32770000D03*
X3155319Y-30230000D03*
X-3144681Y-30230000D03*
X-3144681Y-31500000D03*
X-3144681Y-32770000D03*
%TD*%
D16*
%TO.C,C1*%
X27487246Y-3435725D03*
D17*
X34987246Y-3435725D03*
%TD*%
D16*
%TO.C,C4*%
X-27487246Y-3435725D03*
D17*
X-34987246Y-3435725D03*
%TD*%
D18*
%TO.C,J1*%
X-12000000Y-24764300D03*
D19*
X-9500000Y-24764300D03*
%TD*%
D11*
%TO.C,C7*%
X-775000Y-26500000D03*
X775000Y-26500000D03*
%TD*%
D20*
%TO.C,R1*%
X39025000Y11335700D03*
X37375000Y11335700D03*
%TD*%
D21*
%TO.C,U3*%
X-19750000Y-514300D03*
X-19750000Y-18514300D03*
X19750000Y-514300D03*
X19750000Y-18514300D03*
%TD*%
D22*
%TO.C,U1*%
X39025000Y19275700D03*
D14*
X39025000Y16735700D03*
X39025000Y14195700D03*
%TD*%
D10*
%TO.C,R4*%
X-825000Y-24500000D03*
X825000Y-24500000D03*
%TD*%
D12*
%TO.C,REF\u002A\u002A*%
X42200001Y5564275D03*
%TD*%
D11*
%TO.C,C5*%
X-769681Y-34500000D03*
X780319Y-34500000D03*
%TD*%
D18*
%TO.C,J3*%
X9500000Y-24764300D03*
D19*
X12000000Y-24764300D03*
%TD*%
D23*
%TO.C,J2*%
X5080001Y-39135725D03*
D24*
X2540001Y-39135725D03*
X1Y-39135725D03*
X-2539999Y-39135725D03*
X-5079999Y-39135725D03*
%TD*%
M02*
