%TF.GenerationSoftware,KiCad,Pcbnew,8.0.1*%
%TF.CreationDate,2024-08-02T00:12:24+09:00*%
%TF.ProjectId,Kicker-20240411,4b69636b-6572-42d3-9230-323430343131,rev?*%
%TF.SameCoordinates,Original*%
%TF.FileFunction,Profile,NP*%
%FSLAX46Y46*%
G04 Gerber Fmt 4.6, Leading zero omitted, Abs format (unit mm)*
G04 Created by KiCad (PCBNEW 8.0.1) date 2024-08-02 00:12:24*
%MOMM*%
%LPD*%
G01*
G04 APERTURE LIST*
%TA.AperFunction,Profile*%
%ADD10C,0.200000*%
%TD*%
%TA.AperFunction,Profile*%
%ADD11C,0.050000*%
%TD*%
G04 APERTURE END LIST*
D10*
X-40000000Y1528575D02*
X-42200001Y1528575D01*
X-40000000Y1528575D02*
G75*
G02*
X-39000001Y528575I-17J-1000016D01*
G01*
X37340590Y19786650D02*
G75*
G02*
X38181444Y20228581I829910J-558150D01*
G01*
X41000001Y7928575D02*
X42200000Y7928575D01*
X-41000001Y19228571D02*
G75*
G02*
X-39999998Y20228575I999957J47D01*
G01*
X-39000001Y-4271422D02*
X-39000001Y528575D01*
X38181444Y20228575D02*
X40000000Y20228575D01*
X-42200001Y7928575D02*
X-41000001Y7928575D01*
X42200000Y7928575D02*
G75*
G02*
X42200000Y1528565I-30J-3200005D01*
G01*
X-36656854Y-9928280D02*
G75*
G02*
X-39000001Y-4271422I5656761J5656818D01*
G01*
X40000000Y20228575D02*
G75*
G02*
X40999975Y19228575I0J-999975D01*
G01*
X-14606600Y-31978534D02*
X-36656854Y-9928280D01*
X14606604Y-31978530D02*
G75*
G02*
X13899500Y-32271385I-707104J707230D01*
G01*
X-39999998Y20228575D02*
X-38170380Y20228575D01*
X-42200001Y1528575D02*
G75*
G02*
X-42200001Y7928575I-24J3200000D01*
G01*
X43800001Y4728575D02*
G75*
G02*
X40600001Y4728575I-1600000J0D01*
G01*
X40600001Y4728575D02*
G75*
G02*
X43800001Y4728575I1600000J0D01*
G01*
X39000001Y528575D02*
G75*
G02*
X40000000Y1528599I999999J25D01*
G01*
X-41000001Y7928575D02*
X-41000001Y19228571D01*
X39000001Y528575D02*
X39000001Y-4271425D01*
X41000001Y19228575D02*
X41000001Y7928575D01*
X39000001Y-4271425D02*
G75*
G02*
X36656855Y-9928281I-8000111J45D01*
G01*
X-13899498Y-32271425D02*
G75*
G02*
X-14606600Y-31978534I-18J999951D01*
G01*
X42200000Y1528575D02*
X40000000Y1528575D01*
X-40600001Y4728575D02*
G75*
G02*
X-43800001Y4728575I-1600000J0D01*
G01*
X-43800001Y4728575D02*
G75*
G02*
X-40600001Y4728575I1600000J0D01*
G01*
X-38170380Y20228575D02*
G75*
G02*
X-37340590Y19786650I-47J-1000088D01*
G01*
X36656854Y-9928280D02*
X14606604Y-31978530D01*
X37340590Y19786650D02*
G75*
G02*
X-37340590Y19786650I-37340590J25113350D01*
G01*
X13899500Y-32271425D02*
X-13899498Y-32271425D01*
D11*
%TO.C,U1*%
X-10500000Y-3349999D02*
X-10500000Y-2350000D01*
X-9500000Y-4349999D02*
X-2750000Y-4350000D01*
X-2750000Y-1350001D02*
X-9500000Y-1350000D01*
X-1750000Y-3350000D02*
X-1750000Y-2350001D01*
X-10500000Y-2350000D02*
G75*
G02*
X-9500000Y-1350000I999999J1D01*
G01*
X-9500000Y-4349999D02*
G75*
G02*
X-10500000Y-3349999I-1J999999D01*
G01*
X-2750000Y-1350001D02*
G75*
G02*
X-1750000Y-2350001I1J-999999D01*
G01*
X-1750000Y-3350000D02*
G75*
G02*
X-2750000Y-4350000I-999999J-1D01*
G01*
%TD*%
M02*
