M48
; DRILL file {KiCad 8.0.1} date 2024-04-25T23:19:35+0900
; FORMAT={-:-/ absolute / inch / decimal}
; #@! TF.CreationDate,2024-04-25T23:19:35+09:00
; #@! TF.GenerationSoftware,Kicad,Pcbnew,8.0.1
; #@! TF.FileFunction,Plated,1,2,PTH
FMAT,2
INCH
; #@! TA.AperFunction,Plated,PTH,ViaDrill
T1C0.0157
; #@! TA.AperFunction,Plated,PTH,ComponentDrill
T2C0.0315
; #@! TA.AperFunction,Plated,PTH,ComponentDrill
T3C0.0354
; #@! TA.AperFunction,Plated,PTH,ComponentDrill
T4C0.0394
; #@! TA.AperFunction,Plated,PTH,ComponentDrill
T5C0.0472
%
G90
G05
T1
X2.6069Y-3.3273
X2.6384Y-3.3896
X3.4646Y-4.1815
X3.4646Y-4.2209
X3.5039Y-4.1815
X3.5039Y-4.2209
X3.5433Y-4.1815
X3.5433Y-4.2209
X3.599Y-4.2092
X3.6541Y-4.4061
X3.7722Y-4.3825
X3.8299Y-4.5262
X3.898Y-4.6581
X3.9484Y-4.2171
X4.2061Y-4.6651
X4.8819Y-3.7878
X4.9213Y-3.7878
X4.9213Y-3.8272
X4.9606Y-3.7878
X4.9606Y-3.8272
X4.9606Y-3.8666
X5.0Y-3.7878
X5.0Y-3.8272
X5.0Y-3.8666
X5.0Y-3.9059
X5.0394Y-3.7878
X5.0394Y-3.8272
X5.0394Y-3.8666
X5.0394Y-3.9059
T2
X4.668Y-4.6358
X4.7376Y-4.5662
T3
X2.5384Y-2.819
X2.5384Y-2.919
X2.5384Y-3.019
X5.6506Y-2.819
X5.6506Y-2.919
X5.6506Y-3.019
T4
X3.2638Y-4.4079
X3.2736Y-3.6993
X4.3528Y-4.7343
X4.4512Y-4.7343
X4.8287Y-3.6993
X4.8287Y-4.4079
X5.0787Y-4.2603
X5.1483Y-4.1907
T5
X2.7357Y-3.7441
X3.031Y-3.7441
X5.1767Y-3.7441
X5.4719Y-3.7441
M30
