%TF.GenerationSoftware,KiCad,Pcbnew,8.0.1*%
%TF.CreationDate,2024-08-04T20:06:35+09:00*%
%TF.ProjectId,Kicker-20240411,4b69636b-6572-42d3-9230-323430343131,rev?*%
%TF.SameCoordinates,Original*%
%TF.FileFunction,Legend,Bot*%
%TF.FilePolarity,Positive*%
%FSLAX46Y46*%
G04 Gerber Fmt 4.6, Leading zero omitted, Abs format (unit mm)*
G04 Created by KiCad (PCBNEW 8.0.1) date 2024-08-04 20:06:35*
%MOMM*%
%LPD*%
G01*
G04 APERTURE LIST*
G04 Aperture macros list*
%AMRoundRect*
0 Rectangle with rounded corners*
0 $1 Rounding radius*
0 $2 $3 $4 $5 $6 $7 $8 $9 X,Y pos of 4 corners*
0 Add a 4 corners polygon primitive as box body*
4,1,4,$2,$3,$4,$5,$6,$7,$8,$9,$2,$3,0*
0 Add four circle primitives for the rounded corners*
1,1,$1+$1,$2,$3*
1,1,$1+$1,$4,$5*
1,1,$1+$1,$6,$7*
1,1,$1+$1,$8,$9*
0 Add four rect primitives between the rounded corners*
20,1,$1+$1,$2,$3,$4,$5,0*
20,1,$1+$1,$4,$5,$6,$7,0*
20,1,$1+$1,$6,$7,$8,$9,0*
20,1,$1+$1,$8,$9,$2,$3,0*%
G04 Aperture macros list end*
%ADD10C,0.150000*%
%ADD11C,0.120000*%
%ADD12C,3.200000*%
%ADD13RoundRect,0.250200X0.649800X-0.649800X0.649800X0.649800X-0.649800X0.649800X-0.649800X-0.649800X0*%
%ADD14C,1.800000*%
%ADD15R,2.400000X2.400000*%
%ADD16C,2.400000*%
%ADD17RoundRect,0.250000X-0.600000X-0.750000X0.600000X-0.750000X0.600000X0.750000X-0.600000X0.750000X0*%
%ADD18O,1.700000X2.000000*%
%ADD19RoundRect,0.250200X-0.649800X0.649800X-0.649800X-0.649800X0.649800X-0.649800X0.649800X0.649800X0*%
%ADD20R,1.700000X1.700000*%
%ADD21O,1.700000X1.700000*%
%ADD22RoundRect,0.150000X-0.512500X-0.150000X0.512500X-0.150000X0.512500X0.150000X-0.512500X0.150000X0*%
%ADD23RoundRect,0.243750X-0.243750X-0.456250X0.243750X-0.456250X0.243750X0.456250X-0.243750X0.456250X0*%
%ADD24RoundRect,0.250000X-0.850000X-0.350000X0.850000X-0.350000X0.850000X0.350000X-0.850000X0.350000X0*%
%ADD25RoundRect,0.249997X-2.950003X-2.650003X2.950003X-2.650003X2.950003X2.650003X-2.950003X2.650003X0*%
%ADD26RoundRect,0.250000X0.850000X0.350000X-0.850000X0.350000X-0.850000X-0.350000X0.850000X-0.350000X0*%
%ADD27RoundRect,0.249997X2.950003X2.650003X-2.950003X2.650003X-2.950003X-2.650003X2.950003X-2.650003X0*%
G04 APERTURE END LIST*
D10*
X935238Y-31547557D02*
X1030476Y-31499938D01*
X1030476Y-31499938D02*
X1125714Y-31404700D01*
X1125714Y-31404700D02*
X1268571Y-31261842D01*
X1268571Y-31261842D02*
X1363809Y-31214223D01*
X1363809Y-31214223D02*
X1459047Y-31214223D01*
X1411428Y-31452319D02*
X1506666Y-31404700D01*
X1506666Y-31404700D02*
X1601904Y-31309461D01*
X1601904Y-31309461D02*
X1649523Y-31118985D01*
X1649523Y-31118985D02*
X1649523Y-30785652D01*
X1649523Y-30785652D02*
X1601904Y-30595176D01*
X1601904Y-30595176D02*
X1506666Y-30499938D01*
X1506666Y-30499938D02*
X1411428Y-30452319D01*
X1411428Y-30452319D02*
X1220952Y-30452319D01*
X1220952Y-30452319D02*
X1125714Y-30499938D01*
X1125714Y-30499938D02*
X1030476Y-30595176D01*
X1030476Y-30595176D02*
X982857Y-30785652D01*
X982857Y-30785652D02*
X982857Y-31118985D01*
X982857Y-31118985D02*
X1030476Y-31309461D01*
X1030476Y-31309461D02*
X1125714Y-31404700D01*
X1125714Y-31404700D02*
X1220952Y-31452319D01*
X1220952Y-31452319D02*
X1411428Y-31452319D01*
X601904Y-30547557D02*
X554285Y-30499938D01*
X554285Y-30499938D02*
X459047Y-30452319D01*
X459047Y-30452319D02*
X220952Y-30452319D01*
X220952Y-30452319D02*
X125714Y-30499938D01*
X125714Y-30499938D02*
X78095Y-30547557D01*
X78095Y-30547557D02*
X30476Y-30642795D01*
X30476Y-30642795D02*
X30476Y-30738033D01*
X30476Y-30738033D02*
X78095Y-30880890D01*
X78095Y-30880890D02*
X649523Y-31452319D01*
X649523Y-31452319D02*
X30476Y-31452319D01*
X-744761Y-15302556D02*
X-649523Y-15254937D01*
X-649523Y-15254937D02*
X-554285Y-15159699D01*
X-554285Y-15159699D02*
X-411428Y-15016841D01*
X-411428Y-15016841D02*
X-316190Y-14969222D01*
X-316190Y-14969222D02*
X-220952Y-14969222D01*
X-268571Y-15207318D02*
X-173333Y-15159699D01*
X-173333Y-15159699D02*
X-78095Y-15064460D01*
X-78095Y-15064460D02*
X-30476Y-14873984D01*
X-30476Y-14873984D02*
X-30476Y-14540651D01*
X-30476Y-14540651D02*
X-78095Y-14350175D01*
X-78095Y-14350175D02*
X-173333Y-14254937D01*
X-173333Y-14254937D02*
X-268571Y-14207318D01*
X-268571Y-14207318D02*
X-459047Y-14207318D01*
X-459047Y-14207318D02*
X-554285Y-14254937D01*
X-554285Y-14254937D02*
X-649523Y-14350175D01*
X-649523Y-14350175D02*
X-697142Y-14540651D01*
X-697142Y-14540651D02*
X-697142Y-14873984D01*
X-697142Y-14873984D02*
X-649523Y-15064460D01*
X-649523Y-15064460D02*
X-554285Y-15159699D01*
X-554285Y-15159699D02*
X-459047Y-15207318D01*
X-459047Y-15207318D02*
X-268571Y-15207318D01*
X-1649523Y-15207318D02*
X-1078095Y-15207318D01*
X-1363809Y-15207318D02*
X-1363809Y-14207318D01*
X-1363809Y-14207318D02*
X-1268571Y-14350175D01*
X-1268571Y-14350175D02*
X-1173333Y-14445413D01*
X-1173333Y-14445413D02*
X-1078095Y-14493032D01*
D11*
%TO.C,U4*%
X-794681Y-30675700D02*
X5319Y-30675700D01*
X-794681Y-33795700D02*
X5319Y-33795700D01*
X805319Y-30675700D02*
X5319Y-30675700D01*
X805319Y-33795700D02*
X5319Y-33795700D01*
X-1054681Y-34075700D02*
X-1534681Y-34075700D01*
X-1294681Y-33745700D01*
X-1054681Y-34075700D01*
G36*
X-1054681Y-34075700D02*
G01*
X-1534681Y-34075700D01*
X-1294681Y-33745700D01*
X-1054681Y-34075700D01*
G37*
%TO.C,D1*%
X-1679681Y-36025700D02*
X-1679681Y-37945700D01*
X-1679681Y-37945700D02*
X1005319Y-37945700D01*
X1005319Y-36025700D02*
X-1679681Y-36025700D01*
%TO.C,Q2*%
X-2470000Y-23047500D02*
X3950000Y-23047500D01*
X-2470000Y-23317500D02*
X-2470000Y-23047500D01*
X-2470000Y-29677500D02*
X-2470000Y-29947500D01*
X-2470000Y-29947500D02*
X3950000Y-29947500D01*
X-3650000Y-29967500D02*
X-4130000Y-29967500D01*
X-3890000Y-29637500D01*
X-3650000Y-29967500D01*
G36*
X-3650000Y-29967500D02*
G01*
X-4130000Y-29967500D01*
X-3890000Y-29637500D01*
X-3650000Y-29967500D01*
G37*
%TO.C,Q1*%
X2470000Y-15802500D02*
X-3950000Y-15802501D01*
X2470000Y-16072500D02*
X2470000Y-15802500D01*
X2470000Y-22432500D02*
X2470000Y-22702500D01*
X2470000Y-22702500D02*
X-3950000Y-22702499D01*
X3890000Y-16112500D02*
X3650000Y-15782500D01*
X4130000Y-15782500D01*
X3890000Y-16112500D01*
G36*
X3890000Y-16112500D02*
G01*
X3650000Y-15782500D01*
X4130000Y-15782500D01*
X3890000Y-16112500D01*
G37*
%TD*%
%LPC*%
D12*
%TO.C,REF\u002A\u002A*%
X-42200000Y4828600D03*
%TD*%
D13*
%TO.C,U2*%
X-39025000Y13460000D03*
D14*
X-39025000Y16000000D03*
X-39025000Y18540000D03*
%TD*%
D15*
%TO.C,C1*%
X27487246Y-4171425D03*
D16*
X34987246Y-4171425D03*
%TD*%
D15*
%TO.C,C4*%
X-27487246Y-4171425D03*
D16*
X-34987246Y-4171425D03*
%TD*%
D17*
%TO.C,J1*%
X-12000000Y-25500000D03*
D18*
X-9500000Y-25500000D03*
%TD*%
D19*
%TO.C,U1*%
X39025000Y18540000D03*
D14*
X39025000Y16000000D03*
X39025000Y13460000D03*
%TD*%
D12*
%TO.C,REF\u002A\u002A*%
X42200001Y4828575D03*
%TD*%
D17*
%TO.C,J3*%
X9500000Y-25500000D03*
D18*
X12000000Y-25500000D03*
%TD*%
D20*
%TO.C,J2*%
X5080001Y-39871425D03*
D21*
X2540001Y-39871425D03*
X1Y-39871425D03*
X-2539999Y-39871425D03*
X-5079999Y-39871425D03*
%TD*%
D22*
%TO.C,U4*%
X-1132181Y-33185700D03*
X-1132181Y-32235700D03*
X-1132181Y-31285700D03*
X1142819Y-31285700D03*
X1142819Y-33185700D03*
%TD*%
D23*
%TO.C,D1*%
X-932181Y-36985700D03*
X942819Y-36985700D03*
%TD*%
D24*
%TO.C,Q2*%
X-4200000Y-28777500D03*
D25*
X2100000Y-26497500D03*
D24*
X-4200000Y-24217500D03*
%TD*%
D26*
%TO.C,Q1*%
X4200000Y-16972500D03*
D27*
X-2100001Y-19252500D03*
D26*
X4200000Y-21532500D03*
%TD*%
%LPD*%
M02*
