%TF.GenerationSoftware,KiCad,Pcbnew,8.0.1*%
%TF.CreationDate,2024-08-02T00:12:23+09:00*%
%TF.ProjectId,Kicker-20240411,4b69636b-6572-42d3-9230-323430343131,rev?*%
%TF.SameCoordinates,Original*%
%TF.FileFunction,Legend,Top*%
%TF.FilePolarity,Positive*%
%FSLAX46Y46*%
G04 Gerber Fmt 4.6, Leading zero omitted, Abs format (unit mm)*
G04 Created by KiCad (PCBNEW 8.0.1) date 2024-08-02 00:12:23*
%MOMM*%
%LPD*%
G01*
G04 APERTURE LIST*
G04 Aperture macros list*
%AMRoundRect*
0 Rectangle with rounded corners*
0 $1 Rounding radius*
0 $2 $3 $4 $5 $6 $7 $8 $9 X,Y pos of 4 corners*
0 Add a 4 corners polygon primitive as box body*
4,1,4,$2,$3,$4,$5,$6,$7,$8,$9,$2,$3,0*
0 Add four circle primitives for the rounded corners*
1,1,$1+$1,$2,$3*
1,1,$1+$1,$4,$5*
1,1,$1+$1,$6,$7*
1,1,$1+$1,$8,$9*
0 Add four rect primitives between the rounded corners*
20,1,$1+$1,$2,$3,$4,$5,0*
20,1,$1+$1,$4,$5,$6,$7,0*
20,1,$1+$1,$6,$7,$8,$9,0*
20,1,$1+$1,$8,$9,$2,$3,0*%
G04 Aperture macros list end*
%ADD10C,0.150000*%
%ADD11C,0.100000*%
%ADD12C,0.120000*%
%ADD13R,2.400000X2.400000*%
%ADD14C,2.400000*%
%ADD15R,3.000000X3.000000*%
%ADD16RoundRect,0.250000X-0.600000X-0.750000X0.600000X-0.750000X0.600000X0.750000X-0.600000X0.750000X0*%
%ADD17O,1.700000X2.000000*%
%ADD18RoundRect,0.250200X-0.649800X0.649800X-0.649800X-0.649800X0.649800X-0.649800X0.649800X0.649800X0*%
%ADD19C,1.800000*%
%ADD20RoundRect,0.250000X-0.600000X-0.725000X0.600000X-0.725000X0.600000X0.725000X-0.600000X0.725000X0*%
%ADD21O,1.700000X1.950000*%
%ADD22RoundRect,0.250200X0.649800X-0.649800X0.649800X0.649800X-0.649800X0.649800X-0.649800X-0.649800X0*%
G04 APERTURE END LIST*
D10*
X-761904Y-7264819D02*
X-761904Y-8074342D01*
X-761904Y-8074342D02*
X-714285Y-8169580D01*
X-714285Y-8169580D02*
X-666666Y-8217200D01*
X-666666Y-8217200D02*
X-571428Y-8264819D01*
X-571428Y-8264819D02*
X-380952Y-8264819D01*
X-380952Y-8264819D02*
X-285714Y-8217200D01*
X-285714Y-8217200D02*
X-238095Y-8169580D01*
X-238095Y-8169580D02*
X-190476Y-8074342D01*
X-190476Y-8074342D02*
X-190476Y-7264819D01*
X809523Y-8264819D02*
X238095Y-8264819D01*
X523809Y-8264819D02*
X523809Y-7264819D01*
X523809Y-7264819D02*
X428571Y-7407676D01*
X428571Y-7407676D02*
X333333Y-7502914D01*
X333333Y-7502914D02*
X238095Y-7550533D01*
D11*
G36*
X23217522Y-701561D02*
G01*
X23303663Y-710972D01*
X23384401Y-726657D01*
X23459734Y-748616D01*
X23529664Y-776849D01*
X23609477Y-820963D01*
X23680847Y-874880D01*
X23707030Y-899192D01*
X23765818Y-965744D01*
X23814643Y-1040149D01*
X23853503Y-1122407D01*
X23877416Y-1193868D01*
X23894953Y-1270356D01*
X23906113Y-1351869D01*
X23910896Y-1438408D01*
X23911095Y-1460828D01*
X23908913Y-1540503D01*
X23902365Y-1615581D01*
X23888747Y-1699606D01*
X23868843Y-1777011D01*
X23842654Y-1847795D01*
X23821702Y-1891306D01*
X23778949Y-1961158D01*
X23728587Y-2023891D01*
X23670617Y-2079508D01*
X23605038Y-2128006D01*
X23564148Y-2152524D01*
X23486598Y-2188926D01*
X23413792Y-2213012D01*
X23335138Y-2230528D01*
X23250637Y-2241476D01*
X23175752Y-2245582D01*
X23144661Y-2245947D01*
X23066903Y-2243979D01*
X22993457Y-2238076D01*
X22911012Y-2225797D01*
X22834776Y-2207851D01*
X22764747Y-2184237D01*
X22721510Y-2165347D01*
X22651293Y-2125596D01*
X22587142Y-2076870D01*
X22529056Y-2019167D01*
X22477037Y-1952489D01*
X22450034Y-1910357D01*
X22414675Y-1841745D01*
X22386630Y-1766977D01*
X22365902Y-1686052D01*
X22352490Y-1598970D01*
X22346901Y-1521699D01*
X22345987Y-1473285D01*
X22812735Y-1473285D01*
X22815723Y-1553059D01*
X22826763Y-1634897D01*
X22849340Y-1713613D01*
X22887439Y-1783285D01*
X22897732Y-1796051D01*
X22956829Y-1847829D01*
X23027877Y-1880430D01*
X23102036Y-1893374D01*
X23128907Y-1894237D01*
X23208216Y-1886644D01*
X23283693Y-1860398D01*
X23345860Y-1815404D01*
X23361915Y-1798250D01*
X23401763Y-1731995D01*
X23426235Y-1652860D01*
X23439195Y-1567990D01*
X23444025Y-1483634D01*
X23444347Y-1453135D01*
X23441320Y-1378516D01*
X23430138Y-1301490D01*
X23407269Y-1226683D01*
X23368677Y-1159385D01*
X23358251Y-1146854D01*
X23298467Y-1095849D01*
X23226732Y-1063735D01*
X23151954Y-1050984D01*
X23124877Y-1050134D01*
X23049913Y-1057900D01*
X22976883Y-1084748D01*
X22914658Y-1130773D01*
X22898098Y-1148319D01*
X22856834Y-1213721D01*
X22831492Y-1288934D01*
X22818070Y-1367932D01*
X22813068Y-1445439D01*
X22812735Y-1473285D01*
X22345987Y-1473285D01*
X22349204Y-1384229D01*
X22358855Y-1300246D01*
X22374941Y-1221335D01*
X22397461Y-1147495D01*
X22426415Y-1078727D01*
X22471656Y-999900D01*
X22526951Y-928997D01*
X22551884Y-902855D01*
X22620285Y-843962D01*
X22696576Y-795050D01*
X22763289Y-763107D01*
X22835050Y-737554D01*
X22911861Y-718388D01*
X22993720Y-705611D01*
X23080629Y-699223D01*
X23125976Y-698424D01*
X23217522Y-701561D01*
G37*
G36*
X25135851Y-721871D02*
G01*
X25601500Y-721871D01*
X25601500Y-1614701D01*
X25598196Y-1688143D01*
X25586776Y-1767026D01*
X25567198Y-1843046D01*
X25559734Y-1865294D01*
X25529016Y-1936163D01*
X25489066Y-2001307D01*
X25439886Y-2060727D01*
X25428942Y-2071924D01*
X25372442Y-2121955D01*
X25308308Y-2165089D01*
X25242096Y-2195755D01*
X25170564Y-2217714D01*
X25092254Y-2233399D01*
X25018172Y-2241977D01*
X24938901Y-2245751D01*
X24915300Y-2245947D01*
X24837104Y-2244129D01*
X24761885Y-2239320D01*
X24682730Y-2231506D01*
X24674598Y-2230560D01*
X24597461Y-2218009D01*
X24522198Y-2197426D01*
X24456978Y-2169743D01*
X24393368Y-2130313D01*
X24333879Y-2080167D01*
X24296510Y-2040783D01*
X24252050Y-1982497D01*
X24215892Y-1917531D01*
X24197226Y-1867859D01*
X24176328Y-1790067D01*
X24162269Y-1717433D01*
X24154670Y-1642780D01*
X24153995Y-1614701D01*
X24153995Y-721871D01*
X24619644Y-721871D01*
X24619644Y-1634118D01*
X24627739Y-1711924D01*
X24655036Y-1782387D01*
X24688154Y-1825361D01*
X24752586Y-1869955D01*
X24827624Y-1890941D01*
X24878297Y-1894237D01*
X24955016Y-1886228D01*
X25024689Y-1859223D01*
X25067341Y-1826460D01*
X25111698Y-1762019D01*
X25132573Y-1685898D01*
X25135851Y-1634118D01*
X25135851Y-721871D01*
G37*
G36*
X25794940Y-721871D02*
G01*
X27213869Y-721871D01*
X27213869Y-1073581D01*
X26737962Y-1073581D01*
X26737962Y-2222500D01*
X26271214Y-2222500D01*
X26271214Y-1073581D01*
X25794940Y-1073581D01*
X25794940Y-721871D01*
G37*
G36*
X27392655Y-1308054D02*
G01*
X27787229Y-1308054D01*
X27787229Y-909450D01*
X28120254Y-909450D01*
X28120254Y-1308054D01*
X28517027Y-1308054D01*
X28517027Y-1636317D01*
X28120254Y-1636317D01*
X28120254Y-2034921D01*
X27787229Y-2034921D01*
X27787229Y-1636317D01*
X27392655Y-1636317D01*
X27392655Y-1308054D01*
G37*
G36*
X-25090281Y-18471871D02*
G01*
X-24622800Y-18471871D01*
X-24622800Y-19972500D01*
X-25090281Y-19972500D01*
X-25090281Y-18471871D01*
G37*
G36*
X-24289775Y-18471871D02*
G01*
X-23853802Y-18471871D01*
X-23284838Y-19317440D01*
X-23284838Y-18471871D01*
X-22845201Y-18471871D01*
X-22845201Y-19972500D01*
X-23284838Y-19972500D01*
X-23850871Y-19131327D01*
X-23850871Y-19972500D01*
X-24289775Y-19972500D01*
X-24289775Y-18471871D01*
G37*
G36*
X-22652493Y-19245633D02*
G01*
X-22042497Y-19245633D01*
X-22042497Y-19573895D01*
X-22652493Y-19573895D01*
X-22652493Y-19245633D01*
G37*
G36*
X23217522Y-18451561D02*
G01*
X23303663Y-18460972D01*
X23384401Y-18476657D01*
X23459734Y-18498616D01*
X23529664Y-18526849D01*
X23609477Y-18570963D01*
X23680847Y-18624880D01*
X23707030Y-18649192D01*
X23765818Y-18715744D01*
X23814643Y-18790149D01*
X23853503Y-18872407D01*
X23877416Y-18943868D01*
X23894953Y-19020356D01*
X23906113Y-19101869D01*
X23910896Y-19188408D01*
X23911095Y-19210828D01*
X23908913Y-19290503D01*
X23902365Y-19365581D01*
X23888747Y-19449606D01*
X23868843Y-19527011D01*
X23842654Y-19597795D01*
X23821702Y-19641306D01*
X23778949Y-19711158D01*
X23728587Y-19773891D01*
X23670617Y-19829508D01*
X23605038Y-19878006D01*
X23564148Y-19902524D01*
X23486598Y-19938926D01*
X23413792Y-19963012D01*
X23335138Y-19980528D01*
X23250637Y-19991476D01*
X23175752Y-19995582D01*
X23144661Y-19995947D01*
X23066903Y-19993979D01*
X22993457Y-19988076D01*
X22911012Y-19975797D01*
X22834776Y-19957851D01*
X22764747Y-19934237D01*
X22721510Y-19915347D01*
X22651293Y-19875596D01*
X22587142Y-19826870D01*
X22529056Y-19769167D01*
X22477037Y-19702489D01*
X22450034Y-19660357D01*
X22414675Y-19591745D01*
X22386630Y-19516977D01*
X22365902Y-19436052D01*
X22352490Y-19348970D01*
X22346901Y-19271699D01*
X22345987Y-19223285D01*
X22812735Y-19223285D01*
X22815723Y-19303059D01*
X22826763Y-19384897D01*
X22849340Y-19463613D01*
X22887439Y-19533285D01*
X22897732Y-19546051D01*
X22956829Y-19597829D01*
X23027877Y-19630430D01*
X23102036Y-19643374D01*
X23128907Y-19644237D01*
X23208216Y-19636644D01*
X23283693Y-19610398D01*
X23345860Y-19565404D01*
X23361915Y-19548250D01*
X23401763Y-19481995D01*
X23426235Y-19402860D01*
X23439195Y-19317990D01*
X23444025Y-19233634D01*
X23444347Y-19203135D01*
X23441320Y-19128516D01*
X23430138Y-19051490D01*
X23407269Y-18976683D01*
X23368677Y-18909385D01*
X23358251Y-18896854D01*
X23298467Y-18845849D01*
X23226732Y-18813735D01*
X23151954Y-18800984D01*
X23124877Y-18800134D01*
X23049913Y-18807900D01*
X22976883Y-18834748D01*
X22914658Y-18880773D01*
X22898098Y-18898319D01*
X22856834Y-18963721D01*
X22831492Y-19038934D01*
X22818070Y-19117932D01*
X22813068Y-19195439D01*
X22812735Y-19223285D01*
X22345987Y-19223285D01*
X22349204Y-19134229D01*
X22358855Y-19050246D01*
X22374941Y-18971335D01*
X22397461Y-18897495D01*
X22426415Y-18828727D01*
X22471656Y-18749900D01*
X22526951Y-18678997D01*
X22551884Y-18652855D01*
X22620285Y-18593962D01*
X22696576Y-18545050D01*
X22763289Y-18513107D01*
X22835050Y-18487554D01*
X22911861Y-18468388D01*
X22993720Y-18455611D01*
X23080629Y-18449223D01*
X23125976Y-18448424D01*
X23217522Y-18451561D01*
G37*
G36*
X25135851Y-18471871D02*
G01*
X25601500Y-18471871D01*
X25601500Y-19364701D01*
X25598196Y-19438143D01*
X25586776Y-19517026D01*
X25567198Y-19593046D01*
X25559734Y-19615294D01*
X25529016Y-19686163D01*
X25489066Y-19751307D01*
X25439886Y-19810727D01*
X25428942Y-19821924D01*
X25372442Y-19871955D01*
X25308308Y-19915089D01*
X25242096Y-19945755D01*
X25170564Y-19967714D01*
X25092254Y-19983399D01*
X25018172Y-19991977D01*
X24938901Y-19995751D01*
X24915300Y-19995947D01*
X24837104Y-19994129D01*
X24761885Y-19989320D01*
X24682730Y-19981506D01*
X24674598Y-19980560D01*
X24597461Y-19968009D01*
X24522198Y-19947426D01*
X24456978Y-19919743D01*
X24393368Y-19880313D01*
X24333879Y-19830167D01*
X24296510Y-19790783D01*
X24252050Y-19732497D01*
X24215892Y-19667531D01*
X24197226Y-19617859D01*
X24176328Y-19540067D01*
X24162269Y-19467433D01*
X24154670Y-19392780D01*
X24153995Y-19364701D01*
X24153995Y-18471871D01*
X24619644Y-18471871D01*
X24619644Y-19384118D01*
X24627739Y-19461924D01*
X24655036Y-19532387D01*
X24688154Y-19575361D01*
X24752586Y-19619955D01*
X24827624Y-19640941D01*
X24878297Y-19644237D01*
X24955016Y-19636228D01*
X25024689Y-19609223D01*
X25067341Y-19576460D01*
X25111698Y-19512019D01*
X25132573Y-19435898D01*
X25135851Y-19384118D01*
X25135851Y-18471871D01*
G37*
G36*
X25794940Y-18471871D02*
G01*
X27213869Y-18471871D01*
X27213869Y-18823581D01*
X26737962Y-18823581D01*
X26737962Y-19972500D01*
X26271214Y-19972500D01*
X26271214Y-18823581D01*
X25794940Y-18823581D01*
X25794940Y-18471871D01*
G37*
G36*
X27166242Y-19245633D02*
G01*
X27776238Y-19245633D01*
X27776238Y-19573895D01*
X27166242Y-19573895D01*
X27166242Y-19245633D01*
G37*
G36*
X-25777581Y-721871D02*
G01*
X-25310100Y-721871D01*
X-25310100Y-2222500D01*
X-25777581Y-2222500D01*
X-25777581Y-721871D01*
G37*
G36*
X-24977075Y-721871D02*
G01*
X-24541102Y-721871D01*
X-23972138Y-1567440D01*
X-23972138Y-721871D01*
X-23532501Y-721871D01*
X-23532501Y-2222500D01*
X-23972138Y-2222500D01*
X-24538171Y-1381327D01*
X-24538171Y-2222500D01*
X-24977075Y-2222500D01*
X-24977075Y-721871D01*
G37*
G36*
X-23255530Y-1308054D02*
G01*
X-22860955Y-1308054D01*
X-22860955Y-909450D01*
X-22527930Y-909450D01*
X-22527930Y-1308054D01*
X-22131158Y-1308054D01*
X-22131158Y-1636317D01*
X-22527930Y-1636317D01*
X-22527930Y-2034921D01*
X-22860955Y-2034921D01*
X-22860955Y-1636317D01*
X-23255530Y-1636317D01*
X-23255530Y-1308054D01*
G37*
D10*
G36*
X-14692306Y-22625518D02*
G01*
X-14122548Y-22625518D01*
X-13725898Y-23885567D01*
X-13335231Y-22625518D01*
X-12782143Y-22625518D01*
X-13436104Y-24376251D01*
X-14026377Y-24376251D01*
X-14692306Y-22625518D01*
G37*
G36*
X-12591512Y-22625518D02*
G01*
X-12046117Y-22625518D01*
X-12046117Y-24376251D01*
X-12591512Y-24376251D01*
X-12591512Y-22625518D01*
G37*
G36*
X-11657588Y-22625518D02*
G01*
X-11148952Y-22625518D01*
X-10485161Y-23612015D01*
X-10485161Y-22625518D01*
X-9972251Y-22625518D01*
X-9972251Y-24376251D01*
X-10485161Y-24376251D01*
X-11145533Y-23394883D01*
X-11145533Y-24376251D01*
X-11657588Y-24376251D01*
X-11657588Y-22625518D01*
G37*
G36*
X-1933670Y-22625518D02*
G01*
X-1217306Y-22625518D01*
X-940762Y-23686387D01*
X-665500Y-22625518D01*
X48726Y-22625518D01*
X48726Y-24376251D01*
X-396222Y-24376251D01*
X-396222Y-23032426D01*
X-741154Y-24376251D01*
X-1143789Y-24376251D01*
X-1487866Y-23032426D01*
X-1487866Y-24376251D01*
X-1933670Y-24376251D01*
X-1933670Y-22625518D01*
G37*
G36*
X1286592Y-22627787D02*
G01*
X1379244Y-22636170D01*
X1474413Y-22653313D01*
X1558148Y-22678525D01*
X1586601Y-22690059D01*
X1665491Y-22730792D01*
X1736267Y-22780384D01*
X1798928Y-22838834D01*
X1830233Y-22875134D01*
X1880137Y-22946079D01*
X1921655Y-23023312D01*
X1954789Y-23106834D01*
X1969574Y-23155952D01*
X1990442Y-23247393D01*
X2004481Y-23341877D01*
X2011226Y-23428417D01*
X2012744Y-23494900D01*
X2010475Y-23595774D01*
X2003668Y-23687782D01*
X1989990Y-23783920D01*
X1970136Y-23867990D01*
X1948203Y-23930446D01*
X1908183Y-24013318D01*
X1860252Y-24088346D01*
X1804409Y-24155531D01*
X1769966Y-24189466D01*
X1696970Y-24247844D01*
X1620635Y-24292615D01*
X1540960Y-24323779D01*
X1524624Y-24328379D01*
X1437189Y-24349323D01*
X1343870Y-24365732D01*
X1255893Y-24374568D01*
X1200209Y-24376251D01*
X391093Y-24376251D01*
X391093Y-23035846D01*
X935633Y-23035846D01*
X935633Y-23965923D01*
X1068989Y-23965923D01*
X1157143Y-23963049D01*
X1243766Y-23951731D01*
X1311767Y-23929591D01*
X1379590Y-23875215D01*
X1424607Y-23801791D01*
X1449611Y-23717321D01*
X1461633Y-23622687D01*
X1465479Y-23531111D01*
X1465640Y-23506013D01*
X1462424Y-23410564D01*
X1450544Y-23314400D01*
X1426247Y-23224534D01*
X1385247Y-23148980D01*
X1374171Y-23135863D01*
X1305499Y-23083120D01*
X1223566Y-23052353D01*
X1134729Y-23038288D01*
X1071554Y-23035846D01*
X935633Y-23035846D01*
X391093Y-23035846D01*
X391093Y-22625518D01*
X1200209Y-22625518D01*
X1286592Y-22627787D01*
G37*
G36*
X10529187Y-22625518D02*
G01*
X11073727Y-22625518D01*
X11073727Y-23287172D01*
X11644767Y-22625518D01*
X12368397Y-22625518D01*
X11726405Y-23285889D01*
X12397035Y-24376251D01*
X11726405Y-24376251D01*
X11354972Y-23656039D01*
X11073727Y-23948826D01*
X11073727Y-24376251D01*
X10529187Y-24376251D01*
X10529187Y-22625518D01*
G37*
G36*
X12588094Y-22625518D02*
G01*
X13133488Y-22625518D01*
X13133488Y-24376251D01*
X12588094Y-24376251D01*
X12588094Y-22625518D01*
G37*
G36*
X13487396Y-23883857D02*
G01*
X14010136Y-23883857D01*
X14010136Y-24376251D01*
X13487396Y-24376251D01*
X13487396Y-23883857D01*
G37*
D12*
%TO.C,C3*%
X-39318245Y-4865000D02*
X-39318245Y-3335000D01*
X-39278245Y-5198000D02*
X-39278245Y-3002000D01*
X-39238245Y-5451000D02*
X-39238245Y-2749000D01*
X-39198245Y-5664000D02*
X-39198245Y-2536000D01*
X-39158245Y-5852000D02*
X-39158245Y-2348000D01*
X-39118245Y-6020000D02*
X-39118245Y-2180000D01*
X-39078245Y-6174000D02*
X-39078245Y-2026000D01*
X-39038245Y-6318000D02*
X-39038245Y-1882000D01*
X-38998245Y-6451000D02*
X-38998245Y-1749000D01*
X-38958245Y-6578000D02*
X-38958245Y-1622000D01*
X-38918245Y-6697000D02*
X-38918245Y-1503000D01*
X-38878245Y-6811000D02*
X-38878245Y-1389000D01*
X-38838245Y-6920000D02*
X-38838245Y-1280000D01*
X-38798245Y-7024000D02*
X-38798245Y-1176000D01*
X-38758245Y-7124000D02*
X-38758245Y-1076000D01*
X-38718245Y-7220000D02*
X-38718245Y-980000D01*
X-38678245Y-7313000D02*
X-38678245Y-887000D01*
X-38638245Y-7403000D02*
X-38638245Y-797000D01*
X-38598245Y-7490000D02*
X-38598245Y-710000D01*
X-38558245Y-7575000D02*
X-38558245Y-625000D01*
X-38518245Y-7657000D02*
X-38518245Y-543000D01*
X-38478245Y-7737000D02*
X-38478245Y-463000D01*
X-38438245Y-7815000D02*
X-38438245Y-385000D01*
X-38398245Y-7890000D02*
X-38398245Y-310000D01*
X-38358245Y-7964000D02*
X-38358245Y-236000D01*
X-38318245Y-8036000D02*
X-38318245Y-164000D01*
X-38278245Y-8107000D02*
X-38278245Y-93000D01*
X-38238245Y-8176000D02*
X-38238245Y-24000D01*
X-38198245Y-8243000D02*
X-38198245Y43000D01*
X-38158245Y-8309000D02*
X-38158245Y109000D01*
X-38118245Y-8373000D02*
X-38118245Y173000D01*
X-38078245Y-8436000D02*
X-38078245Y236000D01*
X-38038245Y-8498000D02*
X-38038245Y298000D01*
X-37998245Y-8559000D02*
X-37998245Y359000D01*
X-37958245Y-8619000D02*
X-37958245Y419000D01*
X-37918245Y-8677000D02*
X-37918245Y477000D01*
X-37878245Y-8734000D02*
X-37878245Y534000D01*
X-37838245Y-8791000D02*
X-37838245Y591000D01*
X-37798245Y-8846000D02*
X-37798245Y646000D01*
X-37758245Y-8900000D02*
X-37758245Y700000D01*
X-37718245Y-8954000D02*
X-37718245Y754000D01*
X-37678245Y-9006000D02*
X-37678245Y806000D01*
X-37638245Y-9058000D02*
X-37638245Y858000D01*
X-37598245Y-9109000D02*
X-37598245Y909000D01*
X-37558245Y-9159000D02*
X-37558245Y959000D01*
X-37518245Y-9208000D02*
X-37518245Y1008000D01*
X-37478245Y-9256000D02*
X-37478245Y1056000D01*
X-37438245Y-9304000D02*
X-37438245Y1104000D01*
X-37398245Y-9351000D02*
X-37398245Y1151000D01*
X-37358245Y-9397000D02*
X-37358245Y1197000D01*
X-37318245Y-9443000D02*
X-37318245Y1243000D01*
X-37278245Y-9488000D02*
X-37278245Y1288000D01*
X-37238245Y-9532000D02*
X-37238245Y1332000D01*
X-37198245Y-9575000D02*
X-37198245Y1375000D01*
X-37158245Y-9618000D02*
X-37158245Y1418000D01*
X-37118245Y-9660000D02*
X-37118245Y1460000D01*
X-37078245Y-9702000D02*
X-37078245Y1502000D01*
X-37038245Y-9743000D02*
X-37038245Y1543000D01*
X-36998245Y-9784000D02*
X-36998245Y1584000D01*
X-36958245Y-9824000D02*
X-36958245Y1624000D01*
X-36918245Y-9863000D02*
X-36918245Y1663000D01*
X-36878245Y-9902000D02*
X-36878245Y1702000D01*
X-36838245Y-9940000D02*
X-36838245Y1740000D01*
X-36798245Y-9978000D02*
X-36798245Y1778000D01*
X-36758245Y-10016000D02*
X-36758245Y1816000D01*
X-36718245Y-10052000D02*
X-36718245Y1852000D01*
X-36678245Y-10089000D02*
X-36678245Y1889000D01*
X-36638245Y-10125000D02*
X-36638245Y1925000D01*
X-36598245Y-10160000D02*
X-36598245Y1960000D01*
X-36558245Y-10195000D02*
X-36558245Y1995000D01*
X-36518245Y-10229000D02*
X-36518245Y2029000D01*
X-36478245Y-10263000D02*
X-36478245Y2063000D01*
X-36438245Y-10297000D02*
X-36438245Y2097000D01*
X-36398245Y-2660000D02*
X-36398245Y2130000D01*
X-36398245Y-10330000D02*
X-36398245Y-5540000D01*
X-36358245Y-2660000D02*
X-36358245Y2163000D01*
X-36358245Y-10363000D02*
X-36358245Y-5540000D01*
X-36318245Y-2660000D02*
X-36318245Y2195000D01*
X-36318245Y-10395000D02*
X-36318245Y-5540000D01*
X-36278245Y-2660000D02*
X-36278245Y2227000D01*
X-36278245Y-10427000D02*
X-36278245Y-5540000D01*
X-36238245Y-2660000D02*
X-36238245Y2258000D01*
X-36238245Y-10458000D02*
X-36238245Y-5540000D01*
X-36198245Y-2660000D02*
X-36198245Y2290000D01*
X-36198245Y-10490000D02*
X-36198245Y-5540000D01*
X-36158245Y-2660000D02*
X-36158245Y2320000D01*
X-36158245Y-10520000D02*
X-36158245Y-5540000D01*
X-36118245Y-2660000D02*
X-36118245Y2350000D01*
X-36118245Y-10550000D02*
X-36118245Y-5540000D01*
X-36078245Y-2660000D02*
X-36078245Y2380000D01*
X-36078245Y-10580000D02*
X-36078245Y-5540000D01*
X-36038245Y-2660000D02*
X-36038245Y2410000D01*
X-36038245Y-10610000D02*
X-36038245Y-5540000D01*
X-35998245Y-2660000D02*
X-35998245Y2439000D01*
X-35998245Y-10639000D02*
X-35998245Y-5540000D01*
X-35958245Y-2660000D02*
X-35958245Y2468000D01*
X-35958245Y-10668000D02*
X-35958245Y-5540000D01*
X-35918245Y-2660000D02*
X-35918245Y2496000D01*
X-35918245Y-10696000D02*
X-35918245Y-5540000D01*
X-35878245Y-2660000D02*
X-35878245Y2524000D01*
X-35878245Y-10724000D02*
X-35878245Y-5540000D01*
X-35838245Y-2660000D02*
X-35838245Y2552000D01*
X-35838245Y-10752000D02*
X-35838245Y-5540000D01*
X-35798245Y-2660000D02*
X-35798245Y2579000D01*
X-35798245Y-10779000D02*
X-35798245Y-5540000D01*
X-35758245Y-2660000D02*
X-35758245Y2606000D01*
X-35758245Y-10806000D02*
X-35758245Y-5540000D01*
X-35718245Y-2660000D02*
X-35718245Y2633000D01*
X-35718245Y-10833000D02*
X-35718245Y-5540000D01*
X-35678245Y-2660000D02*
X-35678245Y2659000D01*
X-35678245Y-10859000D02*
X-35678245Y-5540000D01*
X-35638245Y-2660000D02*
X-35638245Y2685000D01*
X-35638245Y-10885000D02*
X-35638245Y-5540000D01*
X-35598245Y-2660000D02*
X-35598245Y2711000D01*
X-35598245Y-10911000D02*
X-35598245Y-5540000D01*
X-35558245Y-2660000D02*
X-35558245Y2736000D01*
X-35558245Y-10936000D02*
X-35558245Y-5540000D01*
X-35518245Y-2660000D02*
X-35518245Y2761000D01*
X-35518245Y-10961000D02*
X-35518245Y-5540000D01*
X-35478245Y-2660000D02*
X-35478245Y2786000D01*
X-35478245Y-10986000D02*
X-35478245Y-5540000D01*
X-35438245Y-2660000D02*
X-35438245Y2810000D01*
X-35438245Y-11010000D02*
X-35438245Y-5540000D01*
X-35398245Y-2660000D02*
X-35398245Y2834000D01*
X-35398245Y-11034000D02*
X-35398245Y-5540000D01*
X-35358245Y-2660000D02*
X-35358245Y2858000D01*
X-35358245Y-11058000D02*
X-35358245Y-5540000D01*
X-35318245Y-2660000D02*
X-35318245Y2881000D01*
X-35318245Y-11081000D02*
X-35318245Y-5540000D01*
X-35278245Y-2660000D02*
X-35278245Y2904000D01*
X-35278245Y-11104000D02*
X-35278245Y-5540000D01*
X-35238245Y-2660000D02*
X-35238245Y2927000D01*
X-35238245Y-11127000D02*
X-35238245Y-5540000D01*
X-35198245Y-2660000D02*
X-35198245Y2949000D01*
X-35198245Y-11149000D02*
X-35198245Y-5540000D01*
X-35158245Y-2660000D02*
X-35158245Y2972000D01*
X-35158245Y-11172000D02*
X-35158245Y-5540000D01*
X-35118245Y-2660000D02*
X-35118245Y2994000D01*
X-35118245Y-11194000D02*
X-35118245Y-5540000D01*
X-35078245Y-2660000D02*
X-35078245Y3015000D01*
X-35078245Y-11215000D02*
X-35078245Y-5540000D01*
X-35038245Y-2660000D02*
X-35038245Y3036000D01*
X-35038245Y-11236000D02*
X-35038245Y-5540000D01*
X-34998245Y-2660000D02*
X-34998245Y3057000D01*
X-34998245Y-11257000D02*
X-34998245Y-5540000D01*
X-34958245Y-2660000D02*
X-34958245Y3078000D01*
X-34958245Y-11278000D02*
X-34958245Y-5540000D01*
X-34918245Y-2660000D02*
X-34918245Y3099000D01*
X-34918245Y-11299000D02*
X-34918245Y-5540000D01*
X-34878245Y-2660000D02*
X-34878245Y3119000D01*
X-34878245Y-11319000D02*
X-34878245Y-5540000D01*
X-34838245Y-2660000D02*
X-34838245Y3139000D01*
X-34838245Y-11339000D02*
X-34838245Y-5540000D01*
X-34798245Y-2660000D02*
X-34798245Y3158000D01*
X-34798245Y-11358000D02*
X-34798245Y-5540000D01*
X-34758245Y-2660000D02*
X-34758245Y3178000D01*
X-34758245Y-11378000D02*
X-34758245Y-5540000D01*
X-34718245Y-2660000D02*
X-34718245Y3197000D01*
X-34718245Y-11397000D02*
X-34718245Y-5540000D01*
X-34678245Y-2660000D02*
X-34678245Y3216000D01*
X-34678245Y-11416000D02*
X-34678245Y-5540000D01*
X-34638245Y-2660000D02*
X-34638245Y3234000D01*
X-34638245Y-11434000D02*
X-34638245Y-5540000D01*
X-34598245Y-2660000D02*
X-34598245Y3253000D01*
X-34598245Y-11453000D02*
X-34598245Y-5540000D01*
X-34558245Y-2660000D02*
X-34558245Y3271000D01*
X-34558245Y-11471000D02*
X-34558245Y-5540000D01*
X-34518245Y-2660000D02*
X-34518245Y3289000D01*
X-34518245Y-11489000D02*
X-34518245Y-5540000D01*
X-34478245Y-2660000D02*
X-34478245Y3306000D01*
X-34478245Y-11506000D02*
X-34478245Y-5540000D01*
X-34438245Y-2660000D02*
X-34438245Y3323000D01*
X-34438245Y-11523000D02*
X-34438245Y-5540000D01*
X-34398245Y-2660000D02*
X-34398245Y3340000D01*
X-34398245Y-11540000D02*
X-34398245Y-5540000D01*
X-34358245Y-2660000D02*
X-34358245Y3357000D01*
X-34358245Y-11557000D02*
X-34358245Y-5540000D01*
X-34318245Y-2660000D02*
X-34318245Y3374000D01*
X-34318245Y-11574000D02*
X-34318245Y-5540000D01*
X-34278245Y-2660000D02*
X-34278245Y3390000D01*
X-34278245Y-11590000D02*
X-34278245Y-5540000D01*
X-34238245Y-2660000D02*
X-34238245Y3406000D01*
X-34238245Y-11606000D02*
X-34238245Y-5540000D01*
X-34198245Y-2660000D02*
X-34198245Y3422000D01*
X-34198245Y-11622000D02*
X-34198245Y-5540000D01*
X-34158245Y-2660000D02*
X-34158245Y3437000D01*
X-34158245Y-11637000D02*
X-34158245Y-5540000D01*
X-34118245Y-2660000D02*
X-34118245Y3453000D01*
X-34118245Y-11653000D02*
X-34118245Y-5540000D01*
X-34078245Y-2660000D02*
X-34078245Y3468000D01*
X-34078245Y-11668000D02*
X-34078245Y-5540000D01*
X-34038245Y-2660000D02*
X-34038245Y3482000D01*
X-34038245Y-11682000D02*
X-34038245Y-5540000D01*
X-33998245Y-2660000D02*
X-33998245Y3497000D01*
X-33998245Y-11697000D02*
X-33998245Y-5540000D01*
X-33958245Y-2660000D02*
X-33958245Y3511000D01*
X-33958245Y-11711000D02*
X-33958245Y-5540000D01*
X-33918245Y-2660000D02*
X-33918245Y3525000D01*
X-33918245Y-11725000D02*
X-33918245Y-5540000D01*
X-33878245Y-2660000D02*
X-33878245Y3539000D01*
X-33878245Y-11739000D02*
X-33878245Y-5540000D01*
X-33838245Y-2660000D02*
X-33838245Y3553000D01*
X-33838245Y-11753000D02*
X-33838245Y-5540000D01*
X-33798245Y-2660000D02*
X-33798245Y3566000D01*
X-33798245Y-11766000D02*
X-33798245Y-5540000D01*
X-33758245Y-2660000D02*
X-33758245Y3580000D01*
X-33758245Y-11780000D02*
X-33758245Y-5540000D01*
X-33718245Y-2660000D02*
X-33718245Y3593000D01*
X-33718245Y-11793000D02*
X-33718245Y-5540000D01*
X-33678245Y-2660000D02*
X-33678245Y3605000D01*
X-33678245Y-11805000D02*
X-33678245Y-5540000D01*
X-33638245Y-2660000D02*
X-33638245Y3618000D01*
X-33638245Y-11818000D02*
X-33638245Y-5540000D01*
X-33598245Y-2660000D02*
X-33598245Y3630000D01*
X-33598245Y-11830000D02*
X-33598245Y-5540000D01*
X-33558245Y-2660000D02*
X-33558245Y3642000D01*
X-33558245Y-11842000D02*
X-33558245Y-5540000D01*
X-33518245Y-11854000D02*
X-33518245Y3654000D01*
X-33478245Y-11865000D02*
X-33478245Y3665000D01*
X-33438245Y-11877000D02*
X-33438245Y3677000D01*
X-33398245Y-11888000D02*
X-33398245Y3688000D01*
X-33358245Y-11899000D02*
X-33358245Y3699000D01*
X-33318245Y-11910000D02*
X-33318245Y3710000D01*
X-33278245Y-11920000D02*
X-33278245Y3720000D01*
X-33238245Y-11930000D02*
X-33238245Y3730000D01*
X-33198245Y-11940000D02*
X-33198245Y3740000D01*
X-33158245Y-11950000D02*
X-33158245Y3750000D01*
X-33118245Y-11960000D02*
X-33118245Y3760000D01*
X-33078245Y-11969000D02*
X-33078245Y3769000D01*
X-33038245Y-11978000D02*
X-33038245Y3778000D01*
X-32998245Y-11987000D02*
X-32998245Y3787000D01*
X-32958245Y-11996000D02*
X-32958245Y3796000D01*
X-32918245Y-12005000D02*
X-32918245Y3805000D01*
X-32878245Y-12013000D02*
X-32878245Y3813000D01*
X-32838245Y-12021000D02*
X-32838245Y3821000D01*
X-32798245Y-12029000D02*
X-32798245Y3829000D01*
X-32758245Y-12037000D02*
X-32758245Y3837000D01*
X-32718245Y-12044000D02*
X-32718245Y3844000D01*
X-32678245Y-12052000D02*
X-32678245Y3852000D01*
X-32638245Y-12059000D02*
X-32638245Y3859000D01*
X-32598245Y-12066000D02*
X-32598245Y3866000D01*
X-32558245Y-12072000D02*
X-32558245Y3872000D01*
X-32518245Y-12079000D02*
X-32518245Y3879000D01*
X-32478245Y-12085000D02*
X-32478245Y3885000D01*
X-32438245Y-12091000D02*
X-32438245Y3891000D01*
X-32398245Y-12097000D02*
X-32398245Y3897000D01*
X-32358245Y-12103000D02*
X-32358245Y3903000D01*
X-32318245Y-12108000D02*
X-32318245Y3908000D01*
X-32278245Y-12114000D02*
X-32278245Y3914000D01*
X-32238245Y-12119000D02*
X-32238245Y3919000D01*
X-32198245Y-12124000D02*
X-32198245Y3924000D01*
X-32158245Y-12128000D02*
X-32158245Y3928000D01*
X-32118245Y-12133000D02*
X-32118245Y3933000D01*
X-32078245Y-12137000D02*
X-32078245Y3937000D01*
X-32038245Y-12141000D02*
X-32038245Y3941000D01*
X-31998245Y-12145000D02*
X-31998245Y3945000D01*
X-31958245Y-12149000D02*
X-31958245Y3949000D01*
X-31917245Y-12152000D02*
X-31917245Y3952000D01*
X-31877245Y-12155000D02*
X-31877245Y3955000D01*
X-31837245Y-12158000D02*
X-31837245Y3958000D01*
X-31797245Y-12161000D02*
X-31797245Y3961000D01*
X-31757245Y-12164000D02*
X-31757245Y3964000D01*
X-31717245Y-12166000D02*
X-31717245Y3966000D01*
X-31677245Y-12169000D02*
X-31677245Y3969000D01*
X-31637245Y-12171000D02*
X-31637245Y3971000D01*
X-31597245Y-12173000D02*
X-31597245Y3973000D01*
X-31557245Y-12174000D02*
X-31557245Y3974000D01*
X-31517245Y-12176000D02*
X-31517245Y3976000D01*
X-31477245Y-12177000D02*
X-31477245Y3977000D01*
X-31437245Y-12178000D02*
X-31437245Y3978000D01*
X-31397245Y-12179000D02*
X-31397245Y3979000D01*
X-31357245Y-12180000D02*
X-31357245Y3980000D01*
X-31317245Y-12180000D02*
X-31317245Y3980000D01*
X-31277245Y-12180000D02*
X-31277245Y3980000D01*
X-31237245Y-12181000D02*
X-31237245Y3981000D01*
X-23347754Y-9455000D02*
X-23347754Y-7855000D01*
X-22547754Y-8655000D02*
X-24147754Y-8655000D01*
X-23117245Y-4100000D02*
G75*
G02*
X-39357245Y-4100000I-8120000J0D01*
G01*
X-39357245Y-4100000D02*
G75*
G02*
X-23117245Y-4100000I8120000J0D01*
G01*
D11*
%TO.C,U1*%
X-21000000Y-100000D02*
X-12000000Y-100000D01*
D12*
X-21000000Y-100000D02*
X21000000Y-100000D01*
X21000000Y-20600000D01*
X-21000000Y-20600000D01*
X-21000000Y-100000D01*
%TO.C,VIN*%
X-16060000Y-22240000D02*
X-14640000Y-22240000D01*
X-16060000Y-33960000D02*
X-16060000Y-22240000D01*
X-14640000Y-22240000D02*
X-14640000Y-26740000D01*
X-13800000Y-24150000D02*
X-13200000Y-24150000D01*
X-13750000Y-27850000D02*
X-13750000Y-33350000D01*
X-13750000Y-33350000D02*
X-13250000Y-33350000D01*
X-13500000Y-24750000D02*
X-13800000Y-24150000D01*
X-13250000Y-27850000D02*
X-13750000Y-27850000D01*
X-13250000Y-33350000D02*
X-13250000Y-27850000D01*
X-13200000Y-24150000D02*
X-13500000Y-24750000D01*
X-12250000Y-33960000D02*
X-16060000Y-33960000D01*
X-12250000Y-33960000D02*
X-8440000Y-33960000D01*
X-11250000Y-27850000D02*
X-11250000Y-33350000D01*
X-11250000Y-33350000D02*
X-10750000Y-33350000D01*
X-10750000Y-27850000D02*
X-11250000Y-27850000D01*
X-10750000Y-33350000D02*
X-10750000Y-27850000D01*
X-9860000Y-22240000D02*
X-9860000Y-26740000D01*
X-8440000Y-22240000D02*
X-9860000Y-22240000D01*
X-8440000Y-33960000D02*
X-8440000Y-22240000D01*
%TO.C,U3*%
X37525000Y13300000D02*
X37525000Y18390000D01*
X37865000Y13300000D02*
X37525000Y13300000D01*
X40185000Y13300000D02*
X40535000Y13300000D01*
X40535000Y13300000D02*
X40535000Y15900000D01*
X37525000Y13800001D02*
G75*
G02*
X37523264Y17999916I100000J2099999D01*
G01*
%TO.C,MD*%
X-7560000Y-22240000D02*
X-6140000Y-22240000D01*
X-7560000Y-33960000D02*
X-7560000Y-22240000D01*
X-6140000Y-22240000D02*
X-6140000Y-26740000D01*
X-5300000Y-24150000D02*
X-4700000Y-24150000D01*
X-5250000Y-27850000D02*
X-5250000Y-33350000D01*
X-5250000Y-33350000D02*
X-4750000Y-33350000D01*
X-5000000Y-24750000D02*
X-5300000Y-24150000D01*
X-4750000Y-27850000D02*
X-5250000Y-27850000D01*
X-4750000Y-33350000D02*
X-4750000Y-27850000D01*
X-4700000Y-24150000D02*
X-5000000Y-24750000D01*
X-2750000Y-27850000D02*
X-2750000Y-33350000D01*
X-2750000Y-33350000D02*
X-2250000Y-33350000D01*
X-2250000Y-27850000D02*
X-2750000Y-27850000D01*
X-2250000Y-33350000D02*
X-2250000Y-27850000D01*
X-250000Y-27850000D02*
X-250000Y-33350000D01*
X-250000Y-33350000D02*
X250000Y-33350000D01*
X0Y-33960000D02*
X-7560000Y-33960000D01*
X0Y-33960000D02*
X7560000Y-33960000D01*
X250000Y-27850000D02*
X-250000Y-27850000D01*
X250000Y-33350000D02*
X250000Y-27850000D01*
X2250000Y-27850000D02*
X2250000Y-33350000D01*
X2250000Y-33350000D02*
X2750000Y-33350000D01*
X2750000Y-27850000D02*
X2250000Y-27850000D01*
X2750000Y-33350000D02*
X2750000Y-27850000D01*
X4750000Y-27850000D02*
X4750000Y-33350000D01*
X4750000Y-33350000D02*
X5250000Y-33350000D01*
X5250000Y-27850000D02*
X4750000Y-27850000D01*
X5250000Y-33350000D02*
X5250000Y-27850000D01*
X6140000Y-22240000D02*
X6140000Y-26740000D01*
X7560000Y-22240000D02*
X6140000Y-22240000D01*
X7560000Y-33960000D02*
X7560000Y-22240000D01*
%TO.C,KI.*%
X8440000Y-22240000D02*
X9860000Y-22240000D01*
X8440000Y-33960000D02*
X8440000Y-22240000D01*
X9860000Y-22240000D02*
X9860000Y-26740000D01*
X10700000Y-24150000D02*
X11300000Y-24150000D01*
X10750000Y-27850000D02*
X10750000Y-33350000D01*
X10750000Y-33350000D02*
X11250000Y-33350000D01*
X11000000Y-24750000D02*
X10700000Y-24150000D01*
X11250000Y-27850000D02*
X10750000Y-27850000D01*
X11250000Y-33350000D02*
X11250000Y-27850000D01*
X11300000Y-24150000D02*
X11000000Y-24750000D01*
X12250000Y-33960000D02*
X8440000Y-33960000D01*
X12250000Y-33960000D02*
X16060000Y-33960000D01*
X13250000Y-27850000D02*
X13250000Y-33350000D01*
X13250000Y-33350000D02*
X13750000Y-33350000D01*
X13750000Y-27850000D02*
X13250000Y-27850000D01*
X13750000Y-33350000D02*
X13750000Y-27850000D01*
X14640000Y-22240000D02*
X14640000Y-26740000D01*
X16060000Y-22240000D02*
X14640000Y-22240000D01*
X16060000Y-33960000D02*
X16060000Y-22240000D01*
%TO.C,U4*%
X-40535000Y18500000D02*
X-40535000Y15900000D01*
X-40185000Y18500000D02*
X-40535000Y18500000D01*
X-37865000Y18500000D02*
X-37525000Y18500000D01*
X-37525000Y18500000D02*
X-37525000Y13410000D01*
X-37525000Y17999999D02*
G75*
G02*
X-37523264Y13800084I-100000J-2099999D01*
G01*
%TO.C,C4*%
X22547755Y455000D02*
X24147755Y455000D01*
X23347755Y1255000D02*
X23347755Y-345000D01*
X31237246Y3981000D02*
X31237246Y-12181000D01*
X31277246Y3980000D02*
X31277246Y-12180000D01*
X31317246Y3980000D02*
X31317246Y-12180000D01*
X31357246Y3980000D02*
X31357246Y-12180000D01*
X31397246Y3979000D02*
X31397246Y-12179000D01*
X31437246Y3978000D02*
X31437246Y-12178000D01*
X31477246Y3977000D02*
X31477246Y-12177000D01*
X31517246Y3976000D02*
X31517246Y-12176000D01*
X31557246Y3974000D02*
X31557246Y-12174000D01*
X31597246Y3973000D02*
X31597246Y-12173000D01*
X31637246Y3971000D02*
X31637246Y-12171000D01*
X31677246Y3969000D02*
X31677246Y-12169000D01*
X31717246Y3966000D02*
X31717246Y-12166000D01*
X31757246Y3964000D02*
X31757246Y-12164000D01*
X31797246Y3961000D02*
X31797246Y-12161000D01*
X31837246Y3958000D02*
X31837246Y-12158000D01*
X31877246Y3955000D02*
X31877246Y-12155000D01*
X31917246Y3952000D02*
X31917246Y-12152000D01*
X31958246Y3949000D02*
X31958246Y-12149000D01*
X31998246Y3945000D02*
X31998246Y-12145000D01*
X32038246Y3941000D02*
X32038246Y-12141000D01*
X32078246Y3937000D02*
X32078246Y-12137000D01*
X32118246Y3933000D02*
X32118246Y-12133000D01*
X32158246Y3928000D02*
X32158246Y-12128000D01*
X32198246Y3924000D02*
X32198246Y-12124000D01*
X32238246Y3919000D02*
X32238246Y-12119000D01*
X32278246Y3914000D02*
X32278246Y-12114000D01*
X32318246Y3908000D02*
X32318246Y-12108000D01*
X32358246Y3903000D02*
X32358246Y-12103000D01*
X32398246Y3897000D02*
X32398246Y-12097000D01*
X32438246Y3891000D02*
X32438246Y-12091000D01*
X32478246Y3885000D02*
X32478246Y-12085000D01*
X32518246Y3879000D02*
X32518246Y-12079000D01*
X32558246Y3872000D02*
X32558246Y-12072000D01*
X32598246Y3866000D02*
X32598246Y-12066000D01*
X32638246Y3859000D02*
X32638246Y-12059000D01*
X32678246Y3852000D02*
X32678246Y-12052000D01*
X32718246Y3844000D02*
X32718246Y-12044000D01*
X32758246Y3837000D02*
X32758246Y-12037000D01*
X32798246Y3829000D02*
X32798246Y-12029000D01*
X32838246Y3821000D02*
X32838246Y-12021000D01*
X32878246Y3813000D02*
X32878246Y-12013000D01*
X32918246Y3805000D02*
X32918246Y-12005000D01*
X32958246Y3796000D02*
X32958246Y-11996000D01*
X32998246Y3787000D02*
X32998246Y-11987000D01*
X33038246Y3778000D02*
X33038246Y-11978000D01*
X33078246Y3769000D02*
X33078246Y-11969000D01*
X33118246Y3760000D02*
X33118246Y-11960000D01*
X33158246Y3750000D02*
X33158246Y-11950000D01*
X33198246Y3740000D02*
X33198246Y-11940000D01*
X33238246Y3730000D02*
X33238246Y-11930000D01*
X33278246Y3720000D02*
X33278246Y-11920000D01*
X33318246Y3710000D02*
X33318246Y-11910000D01*
X33358246Y3699000D02*
X33358246Y-11899000D01*
X33398246Y3688000D02*
X33398246Y-11888000D01*
X33438246Y3677000D02*
X33438246Y-11877000D01*
X33478246Y3665000D02*
X33478246Y-11865000D01*
X33518246Y3654000D02*
X33518246Y-11854000D01*
X33558246Y3642000D02*
X33558246Y-2660000D01*
X33558246Y-5540000D02*
X33558246Y-11842000D01*
X33598246Y3630000D02*
X33598246Y-2660000D01*
X33598246Y-5540000D02*
X33598246Y-11830000D01*
X33638246Y3618000D02*
X33638246Y-2660000D01*
X33638246Y-5540000D02*
X33638246Y-11818000D01*
X33678246Y3605000D02*
X33678246Y-2660000D01*
X33678246Y-5540000D02*
X33678246Y-11805000D01*
X33718246Y3593000D02*
X33718246Y-2660000D01*
X33718246Y-5540000D02*
X33718246Y-11793000D01*
X33758246Y3580000D02*
X33758246Y-2660000D01*
X33758246Y-5540000D02*
X33758246Y-11780000D01*
X33798246Y3566000D02*
X33798246Y-2660000D01*
X33798246Y-5540000D02*
X33798246Y-11766000D01*
X33838246Y3553000D02*
X33838246Y-2660000D01*
X33838246Y-5540000D02*
X33838246Y-11753000D01*
X33878246Y3539000D02*
X33878246Y-2660000D01*
X33878246Y-5540000D02*
X33878246Y-11739000D01*
X33918246Y3525000D02*
X33918246Y-2660000D01*
X33918246Y-5540000D02*
X33918246Y-11725000D01*
X33958246Y3511000D02*
X33958246Y-2660000D01*
X33958246Y-5540000D02*
X33958246Y-11711000D01*
X33998246Y3497000D02*
X33998246Y-2660000D01*
X33998246Y-5540000D02*
X33998246Y-11697000D01*
X34038246Y3482000D02*
X34038246Y-2660000D01*
X34038246Y-5540000D02*
X34038246Y-11682000D01*
X34078246Y3468000D02*
X34078246Y-2660000D01*
X34078246Y-5540000D02*
X34078246Y-11668000D01*
X34118246Y3453000D02*
X34118246Y-2660000D01*
X34118246Y-5540000D02*
X34118246Y-11653000D01*
X34158246Y3437000D02*
X34158246Y-2660000D01*
X34158246Y-5540000D02*
X34158246Y-11637000D01*
X34198246Y3422000D02*
X34198246Y-2660000D01*
X34198246Y-5540000D02*
X34198246Y-11622000D01*
X34238246Y3406000D02*
X34238246Y-2660000D01*
X34238246Y-5540000D02*
X34238246Y-11606000D01*
X34278246Y3390000D02*
X34278246Y-2660000D01*
X34278246Y-5540000D02*
X34278246Y-11590000D01*
X34318246Y3374000D02*
X34318246Y-2660000D01*
X34318246Y-5540000D02*
X34318246Y-11574000D01*
X34358246Y3357000D02*
X34358246Y-2660000D01*
X34358246Y-5540000D02*
X34358246Y-11557000D01*
X34398246Y3340000D02*
X34398246Y-2660000D01*
X34398246Y-5540000D02*
X34398246Y-11540000D01*
X34438246Y3323000D02*
X34438246Y-2660000D01*
X34438246Y-5540000D02*
X34438246Y-11523000D01*
X34478246Y3306000D02*
X34478246Y-2660000D01*
X34478246Y-5540000D02*
X34478246Y-11506000D01*
X34518246Y3289000D02*
X34518246Y-2660000D01*
X34518246Y-5540000D02*
X34518246Y-11489000D01*
X34558246Y3271000D02*
X34558246Y-2660000D01*
X34558246Y-5540000D02*
X34558246Y-11471000D01*
X34598246Y3253000D02*
X34598246Y-2660000D01*
X34598246Y-5540000D02*
X34598246Y-11453000D01*
X34638246Y3234000D02*
X34638246Y-2660000D01*
X34638246Y-5540000D02*
X34638246Y-11434000D01*
X34678246Y3216000D02*
X34678246Y-2660000D01*
X34678246Y-5540000D02*
X34678246Y-11416000D01*
X34718246Y3197000D02*
X34718246Y-2660000D01*
X34718246Y-5540000D02*
X34718246Y-11397000D01*
X34758246Y3178000D02*
X34758246Y-2660000D01*
X34758246Y-5540000D02*
X34758246Y-11378000D01*
X34798246Y3158000D02*
X34798246Y-2660000D01*
X34798246Y-5540000D02*
X34798246Y-11358000D01*
X34838246Y3139000D02*
X34838246Y-2660000D01*
X34838246Y-5540000D02*
X34838246Y-11339000D01*
X34878246Y3119000D02*
X34878246Y-2660000D01*
X34878246Y-5540000D02*
X34878246Y-11319000D01*
X34918246Y3099000D02*
X34918246Y-2660000D01*
X34918246Y-5540000D02*
X34918246Y-11299000D01*
X34958246Y3078000D02*
X34958246Y-2660000D01*
X34958246Y-5540000D02*
X34958246Y-11278000D01*
X34998246Y3057000D02*
X34998246Y-2660000D01*
X34998246Y-5540000D02*
X34998246Y-11257000D01*
X35038246Y3036000D02*
X35038246Y-2660000D01*
X35038246Y-5540000D02*
X35038246Y-11236000D01*
X35078246Y3015000D02*
X35078246Y-2660000D01*
X35078246Y-5540000D02*
X35078246Y-11215000D01*
X35118246Y2994000D02*
X35118246Y-2660000D01*
X35118246Y-5540000D02*
X35118246Y-11194000D01*
X35158246Y2972000D02*
X35158246Y-2660000D01*
X35158246Y-5540000D02*
X35158246Y-11172000D01*
X35198246Y2949000D02*
X35198246Y-2660000D01*
X35198246Y-5540000D02*
X35198246Y-11149000D01*
X35238246Y2927000D02*
X35238246Y-2660000D01*
X35238246Y-5540000D02*
X35238246Y-11127000D01*
X35278246Y2904000D02*
X35278246Y-2660000D01*
X35278246Y-5540000D02*
X35278246Y-11104000D01*
X35318246Y2881000D02*
X35318246Y-2660000D01*
X35318246Y-5540000D02*
X35318246Y-11081000D01*
X35358246Y2858000D02*
X35358246Y-2660000D01*
X35358246Y-5540000D02*
X35358246Y-11058000D01*
X35398246Y2834000D02*
X35398246Y-2660000D01*
X35398246Y-5540000D02*
X35398246Y-11034000D01*
X35438246Y2810000D02*
X35438246Y-2660000D01*
X35438246Y-5540000D02*
X35438246Y-11010000D01*
X35478246Y2786000D02*
X35478246Y-2660000D01*
X35478246Y-5540000D02*
X35478246Y-10986000D01*
X35518246Y2761000D02*
X35518246Y-2660000D01*
X35518246Y-5540000D02*
X35518246Y-10961000D01*
X35558246Y2736000D02*
X35558246Y-2660000D01*
X35558246Y-5540000D02*
X35558246Y-10936000D01*
X35598246Y2711000D02*
X35598246Y-2660000D01*
X35598246Y-5540000D02*
X35598246Y-10911000D01*
X35638246Y2685000D02*
X35638246Y-2660000D01*
X35638246Y-5540000D02*
X35638246Y-10885000D01*
X35678246Y2659000D02*
X35678246Y-2660000D01*
X35678246Y-5540000D02*
X35678246Y-10859000D01*
X35718246Y2633000D02*
X35718246Y-2660000D01*
X35718246Y-5540000D02*
X35718246Y-10833000D01*
X35758246Y2606000D02*
X35758246Y-2660000D01*
X35758246Y-5540000D02*
X35758246Y-10806000D01*
X35798246Y2579000D02*
X35798246Y-2660000D01*
X35798246Y-5540000D02*
X35798246Y-10779000D01*
X35838246Y2552000D02*
X35838246Y-2660000D01*
X35838246Y-5540000D02*
X35838246Y-10752000D01*
X35878246Y2524000D02*
X35878246Y-2660000D01*
X35878246Y-5540000D02*
X35878246Y-10724000D01*
X35918246Y2496000D02*
X35918246Y-2660000D01*
X35918246Y-5540000D02*
X35918246Y-10696000D01*
X35958246Y2468000D02*
X35958246Y-2660000D01*
X35958246Y-5540000D02*
X35958246Y-10668000D01*
X35998246Y2439000D02*
X35998246Y-2660000D01*
X35998246Y-5540000D02*
X35998246Y-10639000D01*
X36038246Y2410000D02*
X36038246Y-2660000D01*
X36038246Y-5540000D02*
X36038246Y-10610000D01*
X36078246Y2380000D02*
X36078246Y-2660000D01*
X36078246Y-5540000D02*
X36078246Y-10580000D01*
X36118246Y2350000D02*
X36118246Y-2660000D01*
X36118246Y-5540000D02*
X36118246Y-10550000D01*
X36158246Y2320000D02*
X36158246Y-2660000D01*
X36158246Y-5540000D02*
X36158246Y-10520000D01*
X36198246Y2290000D02*
X36198246Y-2660000D01*
X36198246Y-5540000D02*
X36198246Y-10490000D01*
X36238246Y2258000D02*
X36238246Y-2660000D01*
X36238246Y-5540000D02*
X36238246Y-10458000D01*
X36278246Y2227000D02*
X36278246Y-2660000D01*
X36278246Y-5540000D02*
X36278246Y-10427000D01*
X36318246Y2195000D02*
X36318246Y-2660000D01*
X36318246Y-5540000D02*
X36318246Y-10395000D01*
X36358246Y2163000D02*
X36358246Y-2660000D01*
X36358246Y-5540000D02*
X36358246Y-10363000D01*
X36398246Y2130000D02*
X36398246Y-2660000D01*
X36398246Y-5540000D02*
X36398246Y-10330000D01*
X36438246Y2097000D02*
X36438246Y-10297000D01*
X36478246Y2063000D02*
X36478246Y-10263000D01*
X36518246Y2029000D02*
X36518246Y-10229000D01*
X36558246Y1995000D02*
X36558246Y-10195000D01*
X36598246Y1960000D02*
X36598246Y-10160000D01*
X36638246Y1925000D02*
X36638246Y-10125000D01*
X36678246Y1889000D02*
X36678246Y-10089000D01*
X36718246Y1852000D02*
X36718246Y-10052000D01*
X36758246Y1816000D02*
X36758246Y-10016000D01*
X36798246Y1778000D02*
X36798246Y-9978000D01*
X36838246Y1740000D02*
X36838246Y-9940000D01*
X36878246Y1702000D02*
X36878246Y-9902000D01*
X36918246Y1663000D02*
X36918246Y-9863000D01*
X36958246Y1624000D02*
X36958246Y-9824000D01*
X36998246Y1584000D02*
X36998246Y-9784000D01*
X37038246Y1543000D02*
X37038246Y-9743000D01*
X37078246Y1502000D02*
X37078246Y-9702000D01*
X37118246Y1460000D02*
X37118246Y-9660000D01*
X37158246Y1418000D02*
X37158246Y-9618000D01*
X37198246Y1375000D02*
X37198246Y-9575000D01*
X37238246Y1332000D02*
X37238246Y-9532000D01*
X37278246Y1288000D02*
X37278246Y-9488000D01*
X37318246Y1243000D02*
X37318246Y-9443000D01*
X37358246Y1197000D02*
X37358246Y-9397000D01*
X37398246Y1151000D02*
X37398246Y-9351000D01*
X37438246Y1104000D02*
X37438246Y-9304000D01*
X37478246Y1056000D02*
X37478246Y-9256000D01*
X37518246Y1008000D02*
X37518246Y-9208000D01*
X37558246Y959000D02*
X37558246Y-9159000D01*
X37598246Y909000D02*
X37598246Y-9109000D01*
X37638246Y858000D02*
X37638246Y-9058000D01*
X37678246Y806000D02*
X37678246Y-9006000D01*
X37718246Y754000D02*
X37718246Y-8954000D01*
X37758246Y700000D02*
X37758246Y-8900000D01*
X37798246Y646000D02*
X37798246Y-8846000D01*
X37838246Y591000D02*
X37838246Y-8791000D01*
X37878246Y534000D02*
X37878246Y-8734000D01*
X37918246Y477000D02*
X37918246Y-8677000D01*
X37958246Y419000D02*
X37958246Y-8619000D01*
X37998246Y359000D02*
X37998246Y-8559000D01*
X38038246Y298000D02*
X38038246Y-8498000D01*
X38078246Y236000D02*
X38078246Y-8436000D01*
X38118246Y173000D02*
X38118246Y-8373000D01*
X38158246Y109000D02*
X38158246Y-8309000D01*
X38198246Y43000D02*
X38198246Y-8243000D01*
X38238246Y-24000D02*
X38238246Y-8176000D01*
X38278246Y-93000D02*
X38278246Y-8107000D01*
X38318246Y-164000D02*
X38318246Y-8036000D01*
X38358246Y-236000D02*
X38358246Y-7964000D01*
X38398246Y-310000D02*
X38398246Y-7890000D01*
X38438246Y-385000D02*
X38438246Y-7815000D01*
X38478246Y-463000D02*
X38478246Y-7737000D01*
X38518246Y-543000D02*
X38518246Y-7657000D01*
X38558246Y-625000D02*
X38558246Y-7575000D01*
X38598246Y-710000D02*
X38598246Y-7490000D01*
X38638246Y-797000D02*
X38638246Y-7403000D01*
X38678246Y-887000D02*
X38678246Y-7313000D01*
X38718246Y-980000D02*
X38718246Y-7220000D01*
X38758246Y-1076000D02*
X38758246Y-7124000D01*
X38798246Y-1176000D02*
X38798246Y-7024000D01*
X38838246Y-1280000D02*
X38838246Y-6920000D01*
X38878246Y-1389000D02*
X38878246Y-6811000D01*
X38918246Y-1503000D02*
X38918246Y-6697000D01*
X38958246Y-1622000D02*
X38958246Y-6578000D01*
X38998246Y-1749000D02*
X38998246Y-6451000D01*
X39038246Y-1882000D02*
X39038246Y-6318000D01*
X39078246Y-2026000D02*
X39078246Y-6174000D01*
X39118246Y-2180000D02*
X39118246Y-6020000D01*
X39158246Y-2348000D02*
X39158246Y-5852000D01*
X39198246Y-2536000D02*
X39198246Y-5664000D01*
X39238246Y-2749000D02*
X39238246Y-5451000D01*
X39278246Y-3002000D02*
X39278246Y-5198000D01*
X39318246Y-3335000D02*
X39318246Y-4865000D01*
X39357246Y-4100000D02*
G75*
G02*
X23117246Y-4100000I-8120000J0D01*
G01*
X23117246Y-4100000D02*
G75*
G02*
X39357246Y-4100000I8120000J0D01*
G01*
%TD*%
%LPC*%
D13*
%TO.C,C3*%
X-27487245Y-4100000D03*
D14*
X-34987245Y-4100000D03*
%TD*%
D15*
%TO.C,U1*%
X-19750000Y-1350000D03*
X-19750000Y-19350000D03*
X19750000Y-1350000D03*
X19750000Y-19350000D03*
%TD*%
D16*
%TO.C,VIN*%
X-13500000Y-26250000D03*
D17*
X-11000000Y-26250000D03*
%TD*%
D18*
%TO.C,U3*%
X39025000Y18440000D03*
D19*
X39025000Y15900000D03*
X39025000Y13360000D03*
%TD*%
D20*
%TO.C,MD*%
X-5000000Y-26250000D03*
D21*
X-2500000Y-26250000D03*
X0Y-26250000D03*
X2500000Y-26250000D03*
X5000000Y-26250000D03*
%TD*%
D16*
%TO.C,KI.*%
X11000000Y-26250000D03*
D17*
X13500000Y-26250000D03*
%TD*%
D22*
%TO.C,U4*%
X-39025000Y13360000D03*
D19*
X-39025000Y15900000D03*
X-39025000Y18440000D03*
%TD*%
D13*
%TO.C,C4*%
X27487246Y-4100000D03*
D14*
X34987246Y-4100000D03*
%TD*%
%LPD*%
M02*
