%TF.GenerationSoftware,KiCad,Pcbnew,8.0.1*%
%TF.CreationDate,2024-08-02T00:12:23+09:00*%
%TF.ProjectId,Kicker-20240411,4b69636b-6572-42d3-9230-323430343131,rev?*%
%TF.SameCoordinates,Original*%
%TF.FileFunction,Soldermask,Bot*%
%TF.FilePolarity,Negative*%
%FSLAX46Y46*%
G04 Gerber Fmt 4.6, Leading zero omitted, Abs format (unit mm)*
G04 Created by KiCad (PCBNEW 8.0.1) date 2024-08-02 00:12:23*
%MOMM*%
%LPD*%
G01*
G04 APERTURE LIST*
G04 Aperture macros list*
%AMRoundRect*
0 Rectangle with rounded corners*
0 $1 Rounding radius*
0 $2 $3 $4 $5 $6 $7 $8 $9 X,Y pos of 4 corners*
0 Add a 4 corners polygon primitive as box body*
4,1,4,$2,$3,$4,$5,$6,$7,$8,$9,$2,$3,0*
0 Add four circle primitives for the rounded corners*
1,1,$1+$1,$2,$3*
1,1,$1+$1,$4,$5*
1,1,$1+$1,$6,$7*
1,1,$1+$1,$8,$9*
0 Add four rect primitives between the rounded corners*
20,1,$1+$1,$2,$3,$4,$5,0*
20,1,$1+$1,$4,$5,$6,$7,0*
20,1,$1+$1,$6,$7,$8,$9,0*
20,1,$1+$1,$8,$9,$2,$3,0*%
G04 Aperture macros list end*
%ADD10R,2.400000X2.400000*%
%ADD11C,2.400000*%
%ADD12RoundRect,0.250000X-0.600000X-0.750000X0.600000X-0.750000X0.600000X0.750000X-0.600000X0.750000X0*%
%ADD13O,1.700000X2.000000*%
%ADD14RoundRect,0.250200X-0.649800X0.649800X-0.649800X-0.649800X0.649800X-0.649800X0.649800X0.649800X0*%
%ADD15C,1.800000*%
%ADD16RoundRect,0.250000X-0.600000X-0.725000X0.600000X-0.725000X0.600000X0.725000X-0.600000X0.725000X0*%
%ADD17O,1.700000X1.950000*%
%ADD18RoundRect,0.250200X0.649800X-0.649800X0.649800X0.649800X-0.649800X0.649800X-0.649800X-0.649800X0*%
%ADD19RoundRect,0.225000X-0.225000X-0.250000X0.225000X-0.250000X0.225000X0.250000X-0.225000X0.250000X0*%
%ADD20R,2.000000X0.640000*%
%ADD21RoundRect,0.250000X-0.850000X-0.350000X0.850000X-0.350000X0.850000X0.350000X-0.850000X0.350000X0*%
%ADD22RoundRect,0.249997X-2.950003X-2.650003X2.950003X-2.650003X2.950003X2.650003X-2.950003X2.650003X0*%
%ADD23RoundRect,0.200000X0.200000X0.275000X-0.200000X0.275000X-0.200000X-0.275000X0.200000X-0.275000X0*%
%ADD24RoundRect,0.243750X-0.243750X-0.456250X0.243750X-0.456250X0.243750X0.456250X-0.243750X0.456250X0*%
%ADD25RoundRect,0.200000X-0.200000X-0.275000X0.200000X-0.275000X0.200000X0.275000X-0.200000X0.275000X0*%
%ADD26RoundRect,0.225000X0.225000X0.250000X-0.225000X0.250000X-0.225000X-0.250000X0.225000X-0.250000X0*%
%ADD27RoundRect,0.150000X-0.512500X-0.150000X0.512500X-0.150000X0.512500X0.150000X-0.512500X0.150000X0*%
%ADD28RoundRect,0.200000X0.275000X-0.200000X0.275000X0.200000X-0.275000X0.200000X-0.275000X-0.200000X0*%
G04 APERTURE END LIST*
D10*
%TO.C,C3*%
X-27487245Y-4100000D03*
D11*
X-34987245Y-4100000D03*
%TD*%
D12*
%TO.C,VIN*%
X-13500000Y-26250000D03*
D13*
X-11000000Y-26250000D03*
%TD*%
D14*
%TO.C,U3*%
X39025000Y18440000D03*
D15*
X39025000Y15900000D03*
X39025000Y13360000D03*
%TD*%
D16*
%TO.C,MD*%
X-5000000Y-26250000D03*
D17*
X-2500000Y-26250000D03*
X0Y-26250000D03*
X2500000Y-26250000D03*
X5000000Y-26250000D03*
%TD*%
D12*
%TO.C,KI.*%
X11000000Y-26250000D03*
D13*
X13500000Y-26250000D03*
%TD*%
D18*
%TO.C,U4*%
X-39025000Y13360000D03*
D15*
X-39025000Y15900000D03*
X-39025000Y18440000D03*
%TD*%
D10*
%TO.C,C4*%
X27487246Y-4100000D03*
D11*
X34987246Y-4100000D03*
%TD*%
D19*
%TO.C,C6*%
X-36775000Y6400000D03*
X-35225000Y6400000D03*
%TD*%
D20*
%TO.C,D2*%
X-9900000Y-22870000D03*
X-9900000Y-20330000D03*
X-3600000Y-20330000D03*
X-3600000Y-21600000D03*
X-3600000Y-22870000D03*
%TD*%
D21*
%TO.C,Q1*%
X7710000Y-22102500D03*
D22*
X14010000Y-19822500D03*
D21*
X7710000Y-17542500D03*
%TD*%
D23*
%TO.C,R4*%
X-35175000Y8150000D03*
X-36825000Y8150000D03*
%TD*%
D24*
%TO.C,D3*%
X-2937500Y-29350000D03*
X-1062500Y-29350000D03*
%TD*%
D25*
%TO.C,R3*%
X35175000Y8150000D03*
X36825000Y8150000D03*
%TD*%
D26*
%TO.C,C2*%
X775000Y-31350000D03*
X-775000Y-31350000D03*
%TD*%
D23*
%TO.C,R2*%
X2575000Y-29350000D03*
X925000Y-29350000D03*
%TD*%
D26*
%TO.C,C5*%
X36775000Y6400000D03*
X35225000Y6400000D03*
%TD*%
D27*
%TO.C,U2*%
X-637500Y-22550000D03*
X-637500Y-21600000D03*
X-637500Y-20650000D03*
X1637500Y-20650000D03*
X1637500Y-22550000D03*
%TD*%
D28*
%TO.C,R1*%
X3750000Y-20650000D03*
X3750000Y-19000000D03*
%TD*%
M02*
