%TF.GenerationSoftware,KiCad,Pcbnew,8.0.1*%
%TF.CreationDate,2024-09-21T22:08:13+09:00*%
%TF.ProjectId,Kicker-20240411,4b69636b-6572-42d3-9230-323430343131,rev?*%
%TF.SameCoordinates,Original*%
%TF.FileFunction,Copper,L2,Bot*%
%TF.FilePolarity,Positive*%
%FSLAX46Y46*%
G04 Gerber Fmt 4.6, Leading zero omitted, Abs format (unit mm)*
G04 Created by KiCad (PCBNEW 8.0.1) date 2024-09-21 22:08:13*
%MOMM*%
%LPD*%
G01*
G04 APERTURE LIST*
G04 Aperture macros list*
%AMRoundRect*
0 Rectangle with rounded corners*
0 $1 Rounding radius*
0 $2 $3 $4 $5 $6 $7 $8 $9 X,Y pos of 4 corners*
0 Add a 4 corners polygon primitive as box body*
4,1,4,$2,$3,$4,$5,$6,$7,$8,$9,$2,$3,0*
0 Add four circle primitives for the rounded corners*
1,1,$1+$1,$2,$3*
1,1,$1+$1,$4,$5*
1,1,$1+$1,$6,$7*
1,1,$1+$1,$8,$9*
0 Add four rect primitives between the rounded corners*
20,1,$1+$1,$2,$3,$4,$5,0*
20,1,$1+$1,$4,$5,$6,$7,0*
20,1,$1+$1,$6,$7,$8,$9,0*
20,1,$1+$1,$8,$9,$2,$3,0*%
G04 Aperture macros list end*
%TA.AperFunction,ComponentPad*%
%ADD10RoundRect,0.250200X0.649800X-0.649800X0.649800X0.649800X-0.649800X0.649800X-0.649800X-0.649800X0*%
%TD*%
%TA.AperFunction,ComponentPad*%
%ADD11C,1.800000*%
%TD*%
%TA.AperFunction,ComponentPad*%
%ADD12R,2.400000X2.400000*%
%TD*%
%TA.AperFunction,ComponentPad*%
%ADD13C,2.400000*%
%TD*%
%TA.AperFunction,ComponentPad*%
%ADD14RoundRect,0.250000X-0.600000X-0.750000X0.600000X-0.750000X0.600000X0.750000X-0.600000X0.750000X0*%
%TD*%
%TA.AperFunction,ComponentPad*%
%ADD15O,1.700000X2.000000*%
%TD*%
%TA.AperFunction,ComponentPad*%
%ADD16RoundRect,0.250200X-0.649800X0.649800X-0.649800X-0.649800X0.649800X-0.649800X0.649800X0.649800X0*%
%TD*%
%TA.AperFunction,ComponentPad*%
%ADD17R,1.700000X1.700000*%
%TD*%
%TA.AperFunction,ComponentPad*%
%ADD18O,1.700000X1.700000*%
%TD*%
%TA.AperFunction,SMDPad,CuDef*%
%ADD19RoundRect,0.150000X-0.512500X-0.150000X0.512500X-0.150000X0.512500X0.150000X-0.512500X0.150000X0*%
%TD*%
%TA.AperFunction,SMDPad,CuDef*%
%ADD20RoundRect,0.243750X-0.243750X-0.456250X0.243750X-0.456250X0.243750X0.456250X-0.243750X0.456250X0*%
%TD*%
%TA.AperFunction,SMDPad,CuDef*%
%ADD21RoundRect,0.250000X-0.850000X-0.350000X0.850000X-0.350000X0.850000X0.350000X-0.850000X0.350000X0*%
%TD*%
%TA.AperFunction,SMDPad,CuDef*%
%ADD22RoundRect,0.250000X-1.275000X-1.125000X1.275000X-1.125000X1.275000X1.125000X-1.275000X1.125000X0*%
%TD*%
%TA.AperFunction,SMDPad,CuDef*%
%ADD23RoundRect,0.249997X-2.950003X-2.650003X2.950003X-2.650003X2.950003X2.650003X-2.950003X2.650003X0*%
%TD*%
%TA.AperFunction,SMDPad,CuDef*%
%ADD24RoundRect,0.250000X0.850000X0.350000X-0.850000X0.350000X-0.850000X-0.350000X0.850000X-0.350000X0*%
%TD*%
%TA.AperFunction,SMDPad,CuDef*%
%ADD25RoundRect,0.250000X1.275000X1.125000X-1.275000X1.125000X-1.275000X-1.125000X1.275000X-1.125000X0*%
%TD*%
%TA.AperFunction,SMDPad,CuDef*%
%ADD26RoundRect,0.249997X2.950003X2.650003X-2.950003X2.650003X-2.950003X-2.650003X2.950003X-2.650003X0*%
%TD*%
%TA.AperFunction,ViaPad*%
%ADD27C,0.800000*%
%TD*%
%TA.AperFunction,Conductor*%
%ADD28C,0.500000*%
%TD*%
G04 APERTURE END LIST*
D10*
%TO.P,U2,1,OUT*%
%TO.N,Net-(U2-OUT)*%
X-39025000Y14195700D03*
D11*
%TO.P,U2,2,GND*%
%TO.N,GND*%
X-39025000Y16735700D03*
%TO.P,U2,3,Vs*%
%TO.N,+3.3V*%
X-39025000Y19275700D03*
%TD*%
D12*
%TO.P,C1,1*%
%TO.N,VDD*%
X27487246Y-3435725D03*
D13*
%TO.P,C1,2*%
%TO.N,GND*%
X34987246Y-3435725D03*
%TD*%
D12*
%TO.P,C4,1*%
%TO.N,VDD*%
X-27487246Y-3435725D03*
D13*
%TO.P,C4,2*%
%TO.N,GND*%
X-34987246Y-3435725D03*
%TD*%
D14*
%TO.P,J1,1,Pin_1*%
%TO.N,VCC*%
X-12000000Y-24764300D03*
D15*
%TO.P,J1,2,Pin_2*%
%TO.N,GND*%
X-9500000Y-24764300D03*
%TD*%
D16*
%TO.P,U1,1,OUT*%
%TO.N,Net-(U1-OUT)*%
X39025000Y19275700D03*
D11*
%TO.P,U1,2,GND*%
%TO.N,GND*%
X39025000Y16735700D03*
%TO.P,U1,3,Vs*%
%TO.N,+3.3V*%
X39025000Y14195700D03*
%TD*%
D14*
%TO.P,J3,1,Pin_1*%
%TO.N,Net-(J3-Pin_1)*%
X9500000Y-24764300D03*
D15*
%TO.P,J3,2,Pin_2*%
%TO.N,VDD*%
X12000000Y-24764300D03*
%TD*%
D17*
%TO.P,J2,1,Pin_1*%
%TO.N,ball01k*%
X5080001Y-39135725D03*
D18*
%TO.P,J2,2,Pin_2*%
%TO.N,Sig-main*%
X2540001Y-39135725D03*
%TO.P,J2,3,Pin_3*%
%TO.N,GND*%
X1Y-39135725D03*
%TO.P,J2,4,Pin_4*%
%TO.N,+3.3V*%
X-2539999Y-39135725D03*
%TO.P,J2,5,Pin_5*%
%TO.N,ball02k*%
X-5079999Y-39135725D03*
%TD*%
D19*
%TO.P,U4,1*%
%TO.N,N/C*%
X-1132181Y-32450000D03*
%TO.P,U4,2,IN*%
%TO.N,Sig*%
X-1132181Y-31500000D03*
%TO.P,U4,3,GND*%
%TO.N,GND*%
X-1132181Y-30550000D03*
%TO.P,U4,4,OUT*%
%TO.N,Net-(Q2-G)*%
X1142819Y-30550000D03*
%TO.P,U4,5,VCC*%
%TO.N,+3.3V*%
X1142819Y-32450000D03*
%TD*%
D20*
%TO.P,D1,1,K*%
%TO.N,GND*%
X-932181Y-36250000D03*
%TO.P,D1,2,A*%
%TO.N,Net-(D1-A)*%
X942819Y-36250000D03*
%TD*%
D21*
%TO.P,Q2,1,G*%
%TO.N,Net-(Q2-G)*%
X-4200000Y-28041800D03*
D22*
%TO.P,Q2,2,D*%
%TO.N,Net-(J3-Pin_1)*%
X425000Y-24236800D03*
X425000Y-27286800D03*
D23*
X2100000Y-25761800D03*
D22*
X3775000Y-24236800D03*
X3775000Y-27286800D03*
D21*
%TO.P,Q2,3,S*%
%TO.N,GND*%
X-4200000Y-23481800D03*
%TD*%
D24*
%TO.P,Q1,1,G*%
%TO.N,Sig*%
X4200000Y-16236800D03*
D25*
%TO.P,Q1,2,D*%
%TO.N,+48V*%
X-425000Y-20041800D03*
X-425000Y-16991800D03*
D26*
X-2100001Y-18516800D03*
D25*
X-3775000Y-20041800D03*
X-3775000Y-16991800D03*
D24*
%TO.P,Q1,3,S*%
%TO.N,Net-(D3-K)*%
X4200000Y-20796800D03*
%TD*%
D27*
%TO.N,GND*%
X-4800000Y-29800000D03*
%TO.N,+3.3V*%
X-3144681Y-33766800D03*
X-7425000Y-28064300D03*
X6600000Y-29200000D03*
%TO.N,ball01k*%
X37375000Y8335700D03*
%TO.N,Net-(D1-A)*%
X2255319Y-36250000D03*
%TO.N,Sig*%
X5599999Y-29801735D03*
X5319Y-31500000D03*
%TO.N,Sig-main*%
X3600000Y-31464300D03*
%TO.N,+48V*%
X-300001Y-16716800D03*
X-300001Y-19116800D03*
X-1500001Y-20316800D03*
X-2700001Y-17916800D03*
X-2700001Y-19116800D03*
X-2700001Y-16716800D03*
X-3900001Y-20316800D03*
X-3900001Y-19116800D03*
X-3900001Y-17916800D03*
X-1500001Y-19116800D03*
X-1500001Y-17916800D03*
X-300001Y-20316800D03*
X-1500001Y-16716800D03*
X-300001Y-17916800D03*
X-3900001Y-16716800D03*
X-2700001Y-20316800D03*
%TO.N,Net-(Q2-G)*%
X2600000Y-31489509D03*
X-6200000Y-28041800D03*
%TD*%
D28*
%TO.N,+3.3V*%
X6600000Y-29200000D02*
X14201850Y-29200000D01*
X-12600000Y-30464300D02*
X-6447181Y-30464300D01*
X-6447181Y-30464300D02*
X-3144681Y-33766800D01*
X-37400000Y-5664300D02*
X-12600000Y-30464300D01*
X14201850Y-29200000D02*
X36637246Y-6764604D01*
X-173981Y-33766800D02*
X1142819Y-32450000D01*
X-40375000Y17925700D02*
X-40375000Y12710700D01*
X36525000Y-2640026D02*
X36525000Y11695700D01*
X36637246Y-2752272D02*
X36525000Y-2640026D01*
X36525000Y11695700D02*
X39025000Y14195700D01*
X-6447181Y-30464300D02*
X-6447181Y-29042119D01*
X-3144681Y-33766800D02*
X-173981Y-33766800D01*
X36637246Y-6764604D02*
X36637246Y-2752272D01*
X-6447181Y-29042119D02*
X-7425000Y-28064300D01*
X-40375000Y12710700D02*
X-37400000Y9735700D01*
X-37400000Y9735700D02*
X-37400000Y-5664300D01*
X-39025000Y19275700D02*
X-40375000Y17925700D01*
%TO.N,ball01k*%
X13991800Y-30400000D02*
X6800000Y-30400000D01*
X37375000Y-7016800D02*
X13991800Y-30400000D01*
X37375000Y8335700D02*
X37375000Y-7016800D01*
X6800000Y-30400000D02*
X5080001Y-32119999D01*
X5080001Y-32119999D02*
X5080001Y-39135725D01*
%TO.N,Net-(D1-A)*%
X2255319Y-36250000D02*
X942819Y-36250000D01*
%TO.N,Sig*%
X5599999Y-29801735D02*
X5598264Y-29800000D01*
X4200000Y-16236800D02*
X2149999Y-18286801D01*
X899999Y-22266800D02*
X-1600001Y-22266800D01*
X5598264Y-29800000D02*
X377635Y-29800000D01*
X-1055197Y-29111800D02*
X5319Y-30172316D01*
X-1146878Y-29111800D02*
X-1055197Y-29111800D01*
X377635Y-29800000D02*
X5319Y-30172316D01*
X5319Y-30172316D02*
X5319Y-31500000D01*
X2149999Y-18286801D02*
X2149999Y-21016800D01*
X-1600001Y-22266800D02*
X-2244681Y-22911480D01*
X5319Y-31500000D02*
X-1132181Y-31500000D01*
X2149999Y-21016800D02*
X899999Y-22266800D01*
X-2244681Y-22911480D02*
X-2244681Y-28013997D01*
X-2244681Y-28013997D02*
X-1146878Y-29111800D01*
%TO.N,Sig-main*%
X3600000Y-38075726D02*
X2540001Y-39135725D01*
X3600000Y-31464300D02*
X3600000Y-38075726D01*
%TO.N,Net-(Q2-G)*%
X-4200000Y-28041800D02*
X-6200000Y-28041800D01*
X2082328Y-31489509D02*
X1142819Y-30550000D01*
X2600000Y-31489509D02*
X2082328Y-31489509D01*
%TD*%
%TA.AperFunction,Conductor*%
%TO.N,GND*%
G36*
X3664341Y-40023793D02*
G01*
X3720275Y-40065664D01*
X3737190Y-40096642D01*
X3786203Y-40228053D01*
X3786207Y-40228060D01*
X3872453Y-40343269D01*
X3872456Y-40343272D01*
X3987665Y-40429518D01*
X3987672Y-40429522D01*
X4122518Y-40479816D01*
X4122517Y-40479816D01*
X4129445Y-40480560D01*
X4182128Y-40486225D01*
X5977873Y-40486224D01*
X6037484Y-40479816D01*
X6172332Y-40429521D01*
X6211689Y-40400057D01*
X6277153Y-40375640D01*
X6345426Y-40390491D01*
X6394832Y-40439896D01*
X6410001Y-40499324D01*
X6410001Y-42234196D01*
X6409964Y-42237235D01*
X6407854Y-42323298D01*
X6405508Y-42344454D01*
X6371632Y-42514732D01*
X6364575Y-42537992D01*
X6298719Y-42696972D01*
X6287260Y-42718409D01*
X6191657Y-42861485D01*
X6176237Y-42880275D01*
X6054551Y-43001960D01*
X6035762Y-43017379D01*
X5892686Y-43112982D01*
X5871249Y-43124441D01*
X5712268Y-43190296D01*
X5689009Y-43197352D01*
X5518730Y-43231229D01*
X5497576Y-43233576D01*
X5411509Y-43235688D01*
X5408467Y-43235725D01*
X2500000Y-43235725D01*
X2500000Y-40487884D01*
X2540001Y-40491384D01*
X2540002Y-40491384D01*
X2598967Y-40486225D01*
X2775409Y-40470788D01*
X3003664Y-40409628D01*
X3217831Y-40309760D01*
X3411402Y-40174220D01*
X3533330Y-40052291D01*
X3594649Y-40018809D01*
X3664341Y-40023793D01*
G37*
%TD.AperFunction*%
%TA.AperFunction,Conductor*%
G36*
X2807590Y-37069180D02*
G01*
X2844804Y-37128314D01*
X2849500Y-37162116D01*
X2849500Y-37671821D01*
X2829815Y-37738860D01*
X2777011Y-37784615D01*
X2714693Y-37795349D01*
X2540003Y-37780066D01*
X2540000Y-37780066D01*
X2500000Y-37783565D01*
X2500000Y-37118609D01*
X2535122Y-37111144D01*
X2535126Y-37111142D01*
X2535127Y-37111142D01*
X2675064Y-37048837D01*
X2744314Y-37039552D01*
X2807590Y-37069180D01*
G37*
%TD.AperFunction*%
%TA.AperFunction,Conductor*%
G36*
X2505354Y-32390009D02*
G01*
X2505356Y-32390009D01*
X2694643Y-32390009D01*
X2694646Y-32390009D01*
X2699716Y-32388931D01*
X2769381Y-32394244D01*
X2825117Y-32436379D01*
X2849224Y-32501958D01*
X2849500Y-32510220D01*
X2849500Y-35337883D01*
X2829815Y-35404922D01*
X2777011Y-35450677D01*
X2707853Y-35460621D01*
X2675064Y-35451162D01*
X2535126Y-35388857D01*
X2535121Y-35388855D01*
X2500000Y-35381390D01*
X2500000Y-32388870D01*
X2505354Y-32390009D01*
G37*
%TD.AperFunction*%
%TD*%
%TA.AperFunction,Conductor*%
%TO.N,GND*%
G36*
X-6742372Y-31234485D02*
G01*
X-6721729Y-31251119D01*
X-4057451Y-33915395D01*
X-4027203Y-33964755D01*
X-3971860Y-34135084D01*
X-3877214Y-34299016D01*
X-3750552Y-34439688D01*
X-3597411Y-34550951D01*
X-3424484Y-34627944D01*
X-3239327Y-34667300D01*
X-3239325Y-34667300D01*
X-3050036Y-34667300D01*
X-3050035Y-34667300D01*
X-2864878Y-34627944D01*
X-2864873Y-34627942D01*
X-2691951Y-34550951D01*
X-2691946Y-34550948D01*
X-2678229Y-34540982D01*
X-2612423Y-34517502D01*
X-2605344Y-34517300D01*
X-100060Y-34517300D01*
X9424Y-34495521D01*
X44932Y-34488458D01*
X181514Y-34431884D01*
X230748Y-34398986D01*
X304435Y-34349752D01*
X1367367Y-33286818D01*
X1428690Y-33253334D01*
X1455048Y-33250500D01*
X1721005Y-33250500D01*
X1721013Y-33250500D01*
X1757888Y-33247598D01*
X1757890Y-33247597D01*
X1757892Y-33247597D01*
X1799510Y-33235505D01*
X1915717Y-33201744D01*
X2057184Y-33118081D01*
X2173400Y-33001865D01*
X2257063Y-32860398D01*
X2302917Y-32702569D01*
X2305819Y-32665694D01*
X2305819Y-32500723D01*
X2325504Y-32433684D01*
X2378308Y-32387929D01*
X2447466Y-32377985D01*
X2455578Y-32379429D01*
X2500000Y-32388870D01*
X2500000Y-35381390D01*
X2386849Y-35357339D01*
X2349965Y-35349500D01*
X2160673Y-35349500D01*
X2128216Y-35356398D01*
X1975516Y-35388855D01*
X1975511Y-35388857D01*
X1945703Y-35402128D01*
X1876453Y-35411411D01*
X1813177Y-35381780D01*
X1789734Y-35353946D01*
X1774345Y-35328997D01*
X1651322Y-35205974D01*
X1651318Y-35205971D01*
X1503252Y-35114642D01*
X1503246Y-35114639D01*
X1503244Y-35114638D01*
X1503241Y-35114637D01*
X1338095Y-35059913D01*
X1236174Y-35049500D01*
X1236167Y-35049500D01*
X649471Y-35049500D01*
X649463Y-35049500D01*
X547542Y-35059913D01*
X382396Y-35114637D01*
X382385Y-35114642D01*
X234319Y-35205971D01*
X234315Y-35205974D01*
X111293Y-35328996D01*
X111290Y-35329000D01*
X19961Y-35477066D01*
X19957Y-35477075D01*
X-34768Y-35642225D01*
X-45181Y-35744152D01*
X-45181Y-36755848D01*
X-34768Y-36857775D01*
X19477Y-37021476D01*
X19956Y-37022922D01*
X19961Y-37022933D01*
X111290Y-37170999D01*
X111293Y-37171003D01*
X234315Y-37294025D01*
X234319Y-37294028D01*
X382385Y-37385357D01*
X382388Y-37385358D01*
X382394Y-37385362D01*
X547544Y-37440087D01*
X649471Y-37450500D01*
X649476Y-37450500D01*
X1236162Y-37450500D01*
X1236167Y-37450500D01*
X1338094Y-37440087D01*
X1503244Y-37385362D01*
X1651322Y-37294026D01*
X1774345Y-37171003D01*
X1789732Y-37146055D01*
X1841677Y-37099331D01*
X1910639Y-37088107D01*
X1945704Y-37097870D01*
X1975516Y-37111144D01*
X2160673Y-37150500D01*
X2160674Y-37150500D01*
X2349963Y-37150500D01*
X2349965Y-37150500D01*
X2500000Y-37118609D01*
X2500000Y-37783565D01*
X2304597Y-37800661D01*
X2304587Y-37800663D01*
X2076345Y-37861819D01*
X2076336Y-37861823D01*
X1862172Y-37961689D01*
X1862170Y-37961690D01*
X1668598Y-38097230D01*
X1501506Y-38264322D01*
X1365966Y-38457894D01*
X1365965Y-38457896D01*
X1266099Y-38672060D01*
X1266095Y-38672069D01*
X1204939Y-38900311D01*
X1204937Y-38900321D01*
X1184342Y-39135724D01*
X1184342Y-39135725D01*
X1204937Y-39371128D01*
X1204939Y-39371138D01*
X1266095Y-39599380D01*
X1266097Y-39599384D01*
X1266098Y-39599388D01*
X1270001Y-39607757D01*
X1365966Y-39813555D01*
X1365968Y-39813559D01*
X1406397Y-39871297D01*
X1501506Y-40007126D01*
X1668600Y-40174220D01*
X1765385Y-40241990D01*
X1862166Y-40309757D01*
X1862168Y-40309758D01*
X1862171Y-40309760D01*
X2076338Y-40409628D01*
X2304593Y-40470788D01*
X2500000Y-40487884D01*
X2500000Y-43235725D01*
X-5408563Y-43235725D01*
X-5411398Y-43235693D01*
X-5497491Y-43233724D01*
X-5518845Y-43231374D01*
X-5689057Y-43197520D01*
X-5712320Y-43190463D01*
X-5871329Y-43124600D01*
X-5892767Y-43113142D01*
X-6035881Y-43017518D01*
X-6054672Y-43002096D01*
X-6176370Y-42880398D01*
X-6191792Y-42861607D01*
X-6287416Y-42718493D01*
X-6298874Y-42697055D01*
X-6364737Y-42538046D01*
X-6371794Y-42514783D01*
X-6405648Y-42344571D01*
X-6407998Y-42323217D01*
X-6409967Y-42237124D01*
X-6409999Y-42234289D01*
X-6409999Y-39984091D01*
X-6390314Y-39917052D01*
X-6337510Y-39871297D01*
X-6268352Y-39861353D01*
X-6204796Y-39890378D01*
X-6184424Y-39912966D01*
X-6118494Y-40007126D01*
X-5951400Y-40174220D01*
X-5757829Y-40309760D01*
X-5543662Y-40409628D01*
X-5315407Y-40470788D01*
X-5120003Y-40487884D01*
X-5080000Y-40491384D01*
X-5079999Y-40491384D01*
X-5079998Y-40491384D01*
X-5032917Y-40487264D01*
X-4844591Y-40470788D01*
X-4616336Y-40409628D01*
X-4402169Y-40309760D01*
X-4402166Y-40309758D01*
X-4402164Y-40309757D01*
X-4305383Y-40241990D01*
X-4208598Y-40174220D01*
X-4041504Y-40007126D01*
X-4041499Y-40007120D01*
X-3911574Y-39821567D01*
X-3856997Y-39777942D01*
X-3787499Y-39770748D01*
X-3725144Y-39802271D01*
X-3708423Y-39821567D01*
X-3578494Y-40007126D01*
X-3411400Y-40174220D01*
X-3217829Y-40309760D01*
X-3003662Y-40409628D01*
X-2775407Y-40470788D01*
X-2580003Y-40487884D01*
X-2540000Y-40491384D01*
X-2539999Y-40491384D01*
X-2539998Y-40491384D01*
X-2492917Y-40487264D01*
X-2304591Y-40470788D01*
X-2076336Y-40409628D01*
X-1862169Y-40309760D01*
X-1862166Y-40309758D01*
X-1862164Y-40309757D01*
X-1765383Y-40241990D01*
X-1668598Y-40174220D01*
X-1501504Y-40007126D01*
X-1406395Y-39871297D01*
X-1365966Y-39813559D01*
X-1365964Y-39813555D01*
X-1269999Y-39607757D01*
X-1266096Y-39599388D01*
X-1266095Y-39599384D01*
X-1266093Y-39599380D01*
X-1204937Y-39371138D01*
X-1204935Y-39371128D01*
X-1184340Y-39135725D01*
X-1184340Y-39135724D01*
X-1204935Y-38900321D01*
X-1204937Y-38900311D01*
X-1266093Y-38672069D01*
X-1266097Y-38672060D01*
X-1365963Y-38457896D01*
X-1365964Y-38457894D01*
X-1501504Y-38264322D01*
X-1668596Y-38097231D01*
X-1668603Y-38097226D01*
X-1862164Y-37961692D01*
X-1862168Y-37961690D01*
X-2076334Y-37861823D01*
X-2076343Y-37861819D01*
X-2304585Y-37800663D01*
X-2304595Y-37800661D01*
X-2539998Y-37780066D01*
X-2540000Y-37780066D01*
X-2775402Y-37800661D01*
X-2775412Y-37800663D01*
X-3003654Y-37861819D01*
X-3003658Y-37861821D01*
X-3003662Y-37861822D01*
X-3110745Y-37911756D01*
X-3217827Y-37961689D01*
X-3217829Y-37961690D01*
X-3411401Y-38097230D01*
X-3578493Y-38264322D01*
X-3708424Y-38449883D01*
X-3763001Y-38493508D01*
X-3832499Y-38500702D01*
X-3894854Y-38469179D01*
X-3911574Y-38449883D01*
X-4041504Y-38264322D01*
X-4208596Y-38097231D01*
X-4208603Y-38097226D01*
X-4402164Y-37961692D01*
X-4402168Y-37961690D01*
X-4616334Y-37861823D01*
X-4616343Y-37861819D01*
X-4844585Y-37800663D01*
X-4844595Y-37800661D01*
X-5079998Y-37780066D01*
X-5080000Y-37780066D01*
X-5315402Y-37800661D01*
X-5315412Y-37800663D01*
X-5543654Y-37861819D01*
X-5543658Y-37861821D01*
X-5543662Y-37861822D01*
X-5650745Y-37911756D01*
X-5757827Y-37961689D01*
X-5757829Y-37961690D01*
X-5951401Y-38097230D01*
X-6118490Y-38264319D01*
X-6118492Y-38264322D01*
X-6118494Y-38264324D01*
X-6139720Y-38294638D01*
X-6184424Y-38358482D01*
X-6239001Y-38402106D01*
X-6308500Y-38409299D01*
X-6370854Y-38377777D01*
X-6406268Y-38317547D01*
X-6409999Y-38287358D01*
X-6409999Y-32435734D01*
X-6412408Y-32337470D01*
X-6412408Y-32337467D01*
X-6450748Y-32144738D01*
X-6450750Y-32144731D01*
X-6525948Y-31963194D01*
X-6635123Y-31799801D01*
X-6774075Y-31660849D01*
X-6937468Y-31551674D01*
X-7119005Y-31476476D01*
X-7119012Y-31476474D01*
X-7169279Y-31466474D01*
X-7199732Y-31460416D01*
X-7261643Y-31428031D01*
X-7296216Y-31367314D01*
X-7292475Y-31297545D01*
X-7251608Y-31240874D01*
X-7186589Y-31215293D01*
X-7175539Y-31214800D01*
X-6809411Y-31214800D01*
X-6742372Y-31234485D01*
G37*
%TD.AperFunction*%
%TA.AperFunction,Conductor*%
G36*
X-2541052Y-28779700D02*
G01*
X-2532837Y-28787207D01*
X-1625294Y-29694752D01*
X-1553620Y-29742642D01*
X-1502373Y-29776884D01*
X-1438277Y-29803432D01*
X-1398055Y-29830308D01*
X-1074932Y-30153432D01*
X-781500Y-30446864D01*
X-748015Y-30508187D01*
X-745181Y-30534545D01*
X-745181Y-30575500D01*
X-764866Y-30642539D01*
X-817670Y-30688294D01*
X-869181Y-30699500D01*
X-1710382Y-30699500D01*
X-1747248Y-30702401D01*
X-1747254Y-30702402D01*
X-1905074Y-30748254D01*
X-1905077Y-30748255D01*
X-1905078Y-30748255D01*
X-1905079Y-30748256D01*
X-1968362Y-30785681D01*
X-2046543Y-30831917D01*
X-2046551Y-30831923D01*
X-2162757Y-30948129D01*
X-2162760Y-30948133D01*
X-2162762Y-30948135D01*
X-2246425Y-31089602D01*
X-2246425Y-31089603D01*
X-2246426Y-31089606D01*
X-2290509Y-31241340D01*
X-2292279Y-31247431D01*
X-2295181Y-31284306D01*
X-2295181Y-31715694D01*
X-2292279Y-31752569D01*
X-2246425Y-31910398D01*
X-2245552Y-31911874D01*
X-2245219Y-31913183D01*
X-2243327Y-31917557D01*
X-2244032Y-31917862D01*
X-2228366Y-31979597D01*
X-2243820Y-32032229D01*
X-2243327Y-32032443D01*
X-2245057Y-32036441D01*
X-2245551Y-32038125D01*
X-2246425Y-32039602D01*
X-2292279Y-32197431D01*
X-2295181Y-32234306D01*
X-2295181Y-32665694D01*
X-2295180Y-32665701D01*
X-2292279Y-32702567D01*
X-2292278Y-32702573D01*
X-2247208Y-32857705D01*
X-2247407Y-32927574D01*
X-2285349Y-32986244D01*
X-2348987Y-33015088D01*
X-2366284Y-33016300D01*
X-2605344Y-33016300D01*
X-2672383Y-32996615D01*
X-2678229Y-32992618D01*
X-2691946Y-32982651D01*
X-2691951Y-32982648D01*
X-2864873Y-32905657D01*
X-2864877Y-32905656D01*
X-2930011Y-32891811D01*
X-2991493Y-32858618D01*
X-2991910Y-32858202D01*
X-5660362Y-30189751D01*
X-5693847Y-30128428D01*
X-5696681Y-30102070D01*
X-5696681Y-29096879D01*
X-5676996Y-29029840D01*
X-5624192Y-28984085D01*
X-5555034Y-28974141D01*
X-5507588Y-28991338D01*
X-5369334Y-29076614D01*
X-5202797Y-29131799D01*
X-5100009Y-29142300D01*
X-3299992Y-29142299D01*
X-3299983Y-29142298D01*
X-3299981Y-29142298D01*
X-3197203Y-29131799D01*
X-3197200Y-29131798D01*
X-3030666Y-29076614D01*
X-2881344Y-28984512D01*
X-2757288Y-28860456D01*
X-2757285Y-28860452D01*
X-2726044Y-28809803D01*
X-2674096Y-28763078D01*
X-2605133Y-28751857D01*
X-2541052Y-28779700D01*
G37*
%TD.AperFunction*%
%TA.AperFunction,Conductor*%
G36*
X-31156962Y716014D02*
G01*
X-31111207Y663210D01*
X-31100001Y611699D01*
X-31100001Y-5264300D01*
X-18100001Y-18264300D01*
X-5924501Y-18264300D01*
X-5857462Y-18283985D01*
X-5811707Y-18336789D01*
X-5800501Y-18388300D01*
X-5800501Y-21216812D01*
X-5790000Y-21319600D01*
X-5734816Y-21486136D01*
X-5642713Y-21635457D01*
X-5518658Y-21759512D01*
X-5369337Y-21851615D01*
X-5202801Y-21906799D01*
X-5100013Y-21917300D01*
X-5100009Y-21917300D01*
X-2611230Y-21917300D01*
X-2544191Y-21936985D01*
X-2498436Y-21989789D01*
X-2488492Y-22058947D01*
X-2517517Y-22122503D01*
X-2523543Y-22128975D01*
X-2755869Y-22361300D01*
X-2827633Y-22433064D01*
X-2827635Y-22433066D01*
X-2862808Y-22485709D01*
X-2862810Y-22485712D01*
X-2909765Y-22555985D01*
X-2909766Y-22555987D01*
X-2909768Y-22555991D01*
X-2966337Y-22692562D01*
X-2966339Y-22692567D01*
X-2966339Y-22692571D01*
X-2966340Y-22692572D01*
X-2995181Y-22837559D01*
X-2995181Y-26847024D01*
X-3014866Y-26914063D01*
X-3067670Y-26959818D01*
X-3136828Y-26969762D01*
X-3158183Y-26964730D01*
X-3197197Y-26951802D01*
X-3197204Y-26951800D01*
X-3299989Y-26941300D01*
X-5100001Y-26941300D01*
X-5100018Y-26941301D01*
X-5202796Y-26951800D01*
X-5202799Y-26951801D01*
X-5369331Y-27006985D01*
X-5369334Y-27006986D01*
X-5518656Y-27099088D01*
X-5518657Y-27099089D01*
X-5638536Y-27218968D01*
X-5699859Y-27252453D01*
X-5769551Y-27247469D01*
X-5776653Y-27244566D01*
X-5920192Y-27180657D01*
X-5920197Y-27180655D01*
X-6072897Y-27148198D01*
X-6105354Y-27141300D01*
X-6294646Y-27141300D01*
X-6334001Y-27149665D01*
X-6479802Y-27180655D01*
X-6479807Y-27180657D01*
X-6652729Y-27257648D01*
X-6652734Y-27257651D01*
X-6755098Y-27332023D01*
X-6820904Y-27355503D01*
X-6888958Y-27339677D01*
X-6900866Y-27332025D01*
X-6972271Y-27280148D01*
X-7145192Y-27203157D01*
X-7145197Y-27203155D01*
X-7297897Y-27170698D01*
X-7330354Y-27163800D01*
X-7519646Y-27163800D01*
X-7559001Y-27172165D01*
X-7704802Y-27203155D01*
X-7704807Y-27203157D01*
X-7877729Y-27280148D01*
X-7877734Y-27280151D01*
X-8030870Y-27391411D01*
X-8030871Y-27391412D01*
X-8157533Y-27532084D01*
X-8252179Y-27696016D01*
X-8310674Y-27876044D01*
X-8330460Y-28064300D01*
X-8310674Y-28252556D01*
X-8252179Y-28432584D01*
X-8157533Y-28596516D01*
X-8030871Y-28737188D01*
X-7877730Y-28848451D01*
X-7704803Y-28925444D01*
X-7639667Y-28939288D01*
X-7578188Y-28972480D01*
X-7577991Y-28972675D01*
X-7233998Y-29316669D01*
X-7200515Y-29377990D01*
X-7197681Y-29404348D01*
X-7197681Y-29589800D01*
X-7217366Y-29656839D01*
X-7270170Y-29702594D01*
X-7321681Y-29713800D01*
X-12237771Y-29713800D01*
X-12304810Y-29694115D01*
X-12325452Y-29677481D01*
X-18038642Y-23964291D01*
X-13350500Y-23964291D01*
X-13350499Y-25564308D01*
X-13339999Y-25667097D01*
X-13284814Y-25833634D01*
X-13192712Y-25982956D01*
X-13068656Y-26107012D01*
X-12919334Y-26199114D01*
X-12752797Y-26254299D01*
X-12650009Y-26264800D01*
X-11349992Y-26264799D01*
X-11349983Y-26264798D01*
X-11349981Y-26264798D01*
X-11247203Y-26254299D01*
X-11247200Y-26254298D01*
X-11080666Y-26199114D01*
X-10931344Y-26107012D01*
X-10807288Y-25982956D01*
X-10715186Y-25833634D01*
X-10660001Y-25667097D01*
X-10660001Y-25667095D01*
X-10660000Y-25667095D01*
X-10649500Y-25564316D01*
X-10649500Y-23964298D01*
X-10649501Y-23964281D01*
X-10660000Y-23861503D01*
X-10660001Y-23861500D01*
X-10715185Y-23694968D01*
X-10715187Y-23694963D01*
X-10807289Y-23545642D01*
X-10931342Y-23421589D01*
X-11080663Y-23329487D01*
X-11080668Y-23329485D01*
X-11164670Y-23301649D01*
X-11247203Y-23274301D01*
X-11247204Y-23274300D01*
X-11349989Y-23263800D01*
X-12650001Y-23263800D01*
X-12650018Y-23263801D01*
X-12752796Y-23274300D01*
X-12752799Y-23274301D01*
X-12919331Y-23329485D01*
X-12919334Y-23329486D01*
X-13068656Y-23421588D01*
X-13192712Y-23545644D01*
X-13284814Y-23694966D01*
X-13339999Y-23861503D01*
X-13350500Y-23964291D01*
X-18038642Y-23964291D01*
X-36613181Y-5389751D01*
X-36646666Y-5328428D01*
X-36649500Y-5302070D01*
X-36649500Y611699D01*
X-36629815Y678738D01*
X-36577011Y724493D01*
X-36525500Y735699D01*
X-31224001Y735699D01*
X-31156962Y716014D01*
G37*
%TD.AperFunction*%
%TD*%
%TA.AperFunction,Conductor*%
%TO.N,GND*%
G36*
X-38168857Y21064238D02*
G01*
X-38163462Y21064107D01*
X-38083083Y21062155D01*
X-38061976Y21059824D01*
X-37892203Y21026160D01*
X-37869006Y21019146D01*
X-37710431Y20953686D01*
X-37689043Y20942295D01*
X-37546224Y20847241D01*
X-37527460Y20831908D01*
X-37404782Y20709822D01*
X-37391069Y20693609D01*
X-37351674Y20637997D01*
X-37341328Y20623392D01*
X-37339898Y20621329D01*
X-36966134Y20069975D01*
X-36188779Y18985060D01*
X-35379595Y17923675D01*
X-34539291Y16886751D01*
X-34313022Y16623875D01*
X-33668606Y15875199D01*
X-32922669Y15058847D01*
X-32768311Y14889918D01*
X-31839193Y13931765D01*
X-30882069Y13001585D01*
X-29978504Y12174120D01*
X-29897773Y12100188D01*
X-28887186Y11228382D01*
X-27851204Y10386937D01*
X-26790749Y9576603D01*
X-26790723Y9576584D01*
X-26790720Y9576582D01*
X-25706667Y8798026D01*
X-25706645Y8798011D01*
X-25706642Y8798009D01*
X-25651839Y8761063D01*
X-24600004Y8051960D01*
X-23471703Y7339038D01*
X-22322758Y6659889D01*
X-21154178Y6015110D01*
X-19966991Y5405268D01*
X-19966982Y5405264D01*
X-19966969Y5405257D01*
X-18762231Y4830893D01*
X-17541016Y4292519D01*
X-16768066Y3978797D01*
X-16347864Y3808247D01*
X-16304296Y3790564D01*
X-15053282Y3325522D01*
X-13789041Y2897786D01*
X-12512650Y2507721D01*
X-11567594Y2249294D01*
X-11225245Y2155678D01*
X-11225239Y2155676D01*
X-11225237Y2155676D01*
X-9927966Y1841964D01*
X-8621992Y1566868D01*
X-8621979Y1566865D01*
X-8621976Y1566865D01*
X-8125695Y1477606D01*
X-7308381Y1330609D01*
X-5988366Y1133412D01*
X-4725001Y982828D01*
X-4660762Y955348D01*
X-4621579Y897500D01*
X-4619890Y827650D01*
X-4656234Y767977D01*
X-4719069Y737424D01*
X-4739677Y735700D01*
X-36525500Y735700D01*
X-36592539Y755385D01*
X-36638294Y808189D01*
X-36649500Y859700D01*
X-36649500Y9809620D01*
X-36649499Y9809620D01*
X-36678340Y9954607D01*
X-36678343Y9954617D01*
X-36734912Y10091188D01*
X-36734919Y10091201D01*
X-36817047Y10214114D01*
X-36817049Y10214116D01*
X-36921584Y10318651D01*
X-39186451Y12583519D01*
X-39219936Y12644842D01*
X-39214952Y12714534D01*
X-39173080Y12770467D01*
X-39107616Y12794884D01*
X-39098770Y12795200D01*
X-38325166Y12795200D01*
X-38222361Y12805703D01*
X-38055782Y12860902D01*
X-38055777Y12860904D01*
X-37906417Y12953031D01*
X-37782331Y13077117D01*
X-37690204Y13226477D01*
X-37690202Y13226482D01*
X-37635003Y13393061D01*
X-37624500Y13495866D01*
X-37624500Y14895533D01*
X-37635003Y14998338D01*
X-37690202Y15164917D01*
X-37690204Y15164922D01*
X-37782331Y15314282D01*
X-37906417Y15438368D01*
X-37906419Y15438370D01*
X-38055780Y15530497D01*
X-38166834Y15567296D01*
X-38222361Y15585696D01*
X-38259236Y15589463D01*
X-38325174Y15596200D01*
X-38325178Y15596200D01*
X-39500500Y15596200D01*
X-39567539Y15615885D01*
X-39613294Y15668689D01*
X-39624500Y15720200D01*
X-39624500Y17563469D01*
X-39604815Y17630508D01*
X-39588181Y17651150D01*
X-39377362Y17861968D01*
X-39316039Y17895453D01*
X-39269272Y17896596D01*
X-39141049Y17875200D01*
X-38908952Y17875200D01*
X-38908951Y17875200D01*
X-38846004Y17885704D01*
X-38680015Y17913402D01*
X-38460504Y17988761D01*
X-38460495Y17988764D01*
X-38256371Y18099231D01*
X-38256365Y18099235D01*
X-38073222Y18241781D01*
X-38073219Y18241784D01*
X-37916016Y18412552D01*
X-37789075Y18606851D01*
X-37695842Y18819399D01*
X-37638866Y19044391D01*
X-37638864Y19044402D01*
X-37619700Y19275693D01*
X-37619700Y19275706D01*
X-37638864Y19506997D01*
X-37638866Y19507008D01*
X-37695842Y19732000D01*
X-37789075Y19944548D01*
X-37916016Y20138847D01*
X-37916019Y20138851D01*
X-37916021Y20138853D01*
X-38073216Y20309613D01*
X-38073222Y20309618D01*
X-38256365Y20452164D01*
X-38256371Y20452168D01*
X-38256372Y20452168D01*
X-38256374Y20452170D01*
X-38460497Y20562636D01*
X-38574487Y20601768D01*
X-38680015Y20637997D01*
X-38680017Y20637997D01*
X-38680019Y20637998D01*
X-38908951Y20676200D01*
X-39141049Y20676200D01*
X-39369981Y20637998D01*
X-39589503Y20562636D01*
X-39793626Y20452170D01*
X-39976784Y20309613D01*
X-40133979Y20138853D01*
X-40260924Y19944549D01*
X-40260924Y19944548D01*
X-40354157Y19732000D01*
X-40411133Y19507008D01*
X-40411135Y19506997D01*
X-40430300Y19275706D01*
X-40430300Y19275693D01*
X-40411135Y19044402D01*
X-40411134Y19044395D01*
X-40409545Y19038121D01*
X-40412168Y18968300D01*
X-40442067Y18919999D01*
X-40709485Y18652582D01*
X-40788320Y18573747D01*
X-40849643Y18540262D01*
X-40919335Y18545246D01*
X-40975268Y18587118D01*
X-40999685Y18652582D01*
X-41000001Y18661428D01*
X-41000001Y20062839D01*
X-40999969Y20065671D01*
X-40998002Y20151766D01*
X-40995652Y20173121D01*
X-40961801Y20343331D01*
X-40954745Y20366594D01*
X-40888884Y20525607D01*
X-40877425Y20547047D01*
X-40781803Y20690159D01*
X-40766382Y20708950D01*
X-40644676Y20830657D01*
X-40625883Y20846079D01*
X-40482776Y20941697D01*
X-40461337Y20953156D01*
X-40302320Y21019019D01*
X-40279057Y21026075D01*
X-40108848Y21059926D01*
X-40087493Y21062276D01*
X-40001399Y21064243D01*
X-39998567Y21064275D01*
X-38171865Y21064275D01*
X-38168857Y21064238D01*
G37*
%TD.AperFunction*%
%TA.AperFunction,Conductor*%
G36*
X40001414Y21064243D02*
G01*
X40087475Y21062295D01*
X40108861Y21059944D01*
X40279058Y21026088D01*
X40302319Y21019032D01*
X40461333Y20953166D01*
X40482772Y20941706D01*
X40625883Y20846080D01*
X40644673Y20830659D01*
X40766375Y20708954D01*
X40781796Y20690163D01*
X40877418Y20547050D01*
X40888877Y20525612D01*
X40954740Y20366596D01*
X40961796Y20343333D01*
X40995649Y20173122D01*
X40997999Y20151769D01*
X40999968Y20065674D01*
X41000000Y20062839D01*
X41000000Y9764295D01*
X41002385Y9666016D01*
X41040726Y9473286D01*
X41040727Y9473282D01*
X41115930Y9291736D01*
X41115931Y9291734D01*
X41225103Y9128352D01*
X41225108Y9128345D01*
X41364061Y8989395D01*
X41364063Y8989393D01*
X41527454Y8880221D01*
X41527465Y8880215D01*
X41709000Y8805022D01*
X41709016Y8805017D01*
X41901738Y8766683D01*
X41901744Y8766682D01*
X41901746Y8766682D01*
X42000001Y8764275D01*
X42199106Y8764275D01*
X42200851Y8764263D01*
X42204291Y8764214D01*
X42373482Y8761831D01*
X42385620Y8761063D01*
X42729513Y8722312D01*
X42743222Y8719983D01*
X43079775Y8643163D01*
X43093137Y8639313D01*
X43418960Y8525298D01*
X43431807Y8519977D01*
X43742832Y8370192D01*
X43755002Y8363465D01*
X44047286Y8179808D01*
X44058626Y8171762D01*
X44328515Y7956530D01*
X44338884Y7947264D01*
X44582979Y7703165D01*
X44592245Y7692796D01*
X44807477Y7422900D01*
X44815523Y7411560D01*
X44999178Y7119272D01*
X45005904Y7107101D01*
X45155679Y6796089D01*
X45161001Y6783242D01*
X45275016Y6457401D01*
X45278865Y6444039D01*
X45355678Y6107495D01*
X45358007Y6093787D01*
X45396658Y5750757D01*
X45397438Y5736873D01*
X45397438Y5391666D01*
X45396658Y5377782D01*
X45358007Y5034752D01*
X45355678Y5021044D01*
X45278865Y4684500D01*
X45275016Y4671138D01*
X45161001Y4345297D01*
X45155679Y4332450D01*
X45005904Y4021438D01*
X44999178Y4009267D01*
X44815523Y3716979D01*
X44807477Y3705639D01*
X44592245Y3435743D01*
X44582979Y3425374D01*
X44338884Y3181275D01*
X44328515Y3172009D01*
X44058626Y2956777D01*
X44047286Y2948731D01*
X43755002Y2765074D01*
X43742832Y2758347D01*
X43431807Y2608562D01*
X43418962Y2603242D01*
X43093124Y2489222D01*
X43079788Y2485379D01*
X42743209Y2408553D01*
X42729526Y2406229D01*
X42385611Y2367475D01*
X42373487Y2366708D01*
X42202549Y2364310D01*
X42200855Y2364287D01*
X42199116Y2364275D01*
X42000001Y2364275D01*
X41831651Y2362026D01*
X41622966Y2338513D01*
X41497082Y2324330D01*
X41497077Y2324328D01*
X41497069Y2324328D01*
X41168812Y2249405D01*
X41168800Y2249401D01*
X40956942Y2175268D01*
X40851007Y2138200D01*
X40547652Y1992111D01*
X40547647Y1992108D01*
X40262562Y1812976D01*
X39999320Y1603046D01*
X39761243Y1364968D01*
X39761239Y1364963D01*
X39551321Y1101733D01*
X39551312Y1101721D01*
X39372174Y816621D01*
X39333205Y735700D01*
X38125500Y735700D01*
X38125500Y5442986D01*
X40349501Y5442986D01*
X40381162Y5202489D01*
X40443948Y4968170D01*
X40536774Y4744069D01*
X40536778Y4744060D01*
X40641818Y4562126D01*
X40658053Y4534006D01*
X40658068Y4533981D01*
X40805734Y4341538D01*
X40805740Y4341531D01*
X40977257Y4170014D01*
X40977264Y4170008D01*
X41169707Y4022342D01*
X41379786Y3901052D01*
X41379795Y3901048D01*
X41603896Y3808222D01*
X41838215Y3745436D01*
X42078712Y3713775D01*
X42078713Y3713775D01*
X42321290Y3713775D01*
X42561786Y3745436D01*
X42561880Y3745461D01*
X42796101Y3808221D01*
X42796105Y3808222D01*
X43020206Y3901048D01*
X43020215Y3901052D01*
X43058662Y3923249D01*
X43230290Y4022339D01*
X43230323Y4022364D01*
X43422737Y4170008D01*
X43422744Y4170014D01*
X43594261Y4341531D01*
X43594267Y4341538D01*
X43741933Y4533981D01*
X43741937Y4533986D01*
X43863225Y4744063D01*
X43956055Y4968175D01*
X44018839Y5202486D01*
X44050501Y5442987D01*
X44050501Y5685563D01*
X44018839Y5926064D01*
X43956055Y6160375D01*
X43863225Y6384487D01*
X43741937Y6594564D01*
X43594266Y6787013D01*
X43422739Y6958540D01*
X43230290Y7106211D01*
X43020213Y7227499D01*
X42796101Y7320329D01*
X42561790Y7383113D01*
X42345057Y7411646D01*
X42321290Y7414775D01*
X42321289Y7414775D01*
X42078713Y7414775D01*
X42078712Y7414775D01*
X42054945Y7411646D01*
X41838212Y7383113D01*
X41603901Y7320329D01*
X41379789Y7227499D01*
X41169712Y7106211D01*
X41169707Y7106207D01*
X40977264Y6958541D01*
X40977257Y6958535D01*
X40805740Y6787018D01*
X40805734Y6787011D01*
X40658087Y6594593D01*
X40658065Y6594564D01*
X40578902Y6457450D01*
X40536778Y6384489D01*
X40536774Y6384480D01*
X40443948Y6160379D01*
X40381162Y5926060D01*
X40349501Y5685563D01*
X40349501Y5442986D01*
X38125500Y5442986D01*
X38125500Y7801377D01*
X38142113Y7863377D01*
X38202178Y7967414D01*
X38229649Y8051960D01*
X38260674Y8147444D01*
X38280460Y8335700D01*
X38260674Y8523956D01*
X38202179Y8703984D01*
X38107533Y8867916D01*
X37980871Y9008588D01*
X37827730Y9119851D01*
X37654803Y9196844D01*
X37469646Y9236200D01*
X37399500Y9236200D01*
X37332461Y9255885D01*
X37286706Y9308689D01*
X37275500Y9360200D01*
X37275500Y11333470D01*
X37295185Y11400509D01*
X37311819Y11421151D01*
X38672636Y12781968D01*
X38733959Y12815453D01*
X38780726Y12816596D01*
X38908951Y12795200D01*
X39141048Y12795200D01*
X39141049Y12795200D01*
X39203996Y12805704D01*
X39369984Y12833402D01*
X39589495Y12908761D01*
X39589504Y12908764D01*
X39793628Y13019231D01*
X39793634Y13019235D01*
X39976777Y13161781D01*
X39976780Y13161784D01*
X39976784Y13161787D01*
X40133979Y13332547D01*
X40133980Y13332549D01*
X40133983Y13332552D01*
X40260924Y13526851D01*
X40354157Y13739399D01*
X40411133Y13964391D01*
X40411135Y13964402D01*
X40430300Y14195693D01*
X40430300Y14195706D01*
X40411135Y14426997D01*
X40411133Y14427008D01*
X40354157Y14652000D01*
X40260924Y14864548D01*
X40260924Y14864549D01*
X40133979Y15058853D01*
X39976784Y15229613D01*
X39793626Y15372170D01*
X39589503Y15482636D01*
X39369981Y15557998D01*
X39141049Y15596200D01*
X38908951Y15596200D01*
X38680019Y15557998D01*
X38680017Y15557997D01*
X38680015Y15557997D01*
X38574487Y15521768D01*
X38460497Y15482636D01*
X38256374Y15372170D01*
X38256372Y15372168D01*
X38256371Y15372168D01*
X38256365Y15372164D01*
X38073222Y15229618D01*
X38073216Y15229613D01*
X37916021Y15058853D01*
X37916019Y15058851D01*
X37916016Y15058847D01*
X37789075Y14864548D01*
X37695842Y14652000D01*
X37638866Y14427008D01*
X37638864Y14426997D01*
X37619700Y14195706D01*
X37619700Y14195693D01*
X37638865Y13964397D01*
X37640456Y13958115D01*
X37637828Y13888295D01*
X37607930Y13839998D01*
X35942052Y12174121D01*
X35942051Y12174120D01*
X35892814Y12100430D01*
X35892813Y12100429D01*
X35859914Y12051192D01*
X35803343Y11914617D01*
X35803340Y11914607D01*
X35774500Y11769620D01*
X35774500Y735700D01*
X4739677Y735700D01*
X4672638Y755385D01*
X4626883Y808189D01*
X4616939Y877347D01*
X4645964Y940903D01*
X4704742Y978677D01*
X4725001Y982828D01*
X5988366Y1133412D01*
X7308381Y1330609D01*
X8125695Y1477606D01*
X8621976Y1566865D01*
X8621979Y1566865D01*
X8621992Y1566868D01*
X9927966Y1841964D01*
X11225237Y2155676D01*
X11225239Y2155676D01*
X11225245Y2155678D01*
X11567594Y2249294D01*
X12512650Y2507721D01*
X13789041Y2897786D01*
X15053282Y3325522D01*
X16304296Y3790564D01*
X16347864Y3808247D01*
X16768066Y3978797D01*
X17541016Y4292519D01*
X18762231Y4830893D01*
X19966969Y5405257D01*
X19966982Y5405264D01*
X19966991Y5405268D01*
X21154178Y6015110D01*
X22322758Y6659889D01*
X23471703Y7339038D01*
X24600004Y8051960D01*
X25651839Y8761063D01*
X25706642Y8798009D01*
X25706645Y8798011D01*
X25706667Y8798026D01*
X26790720Y9576582D01*
X26790723Y9576584D01*
X26790749Y9576603D01*
X27851204Y10386937D01*
X28887186Y11228382D01*
X29897773Y12100188D01*
X29978504Y12174120D01*
X30882069Y13001585D01*
X31839193Y13931765D01*
X32768311Y14889918D01*
X32922669Y15058847D01*
X33668606Y15875199D01*
X34313022Y16623875D01*
X34539291Y16886751D01*
X35379595Y17923675D01*
X35876816Y18575866D01*
X37624500Y18575866D01*
X37635003Y18473061D01*
X37690202Y18306482D01*
X37690204Y18306477D01*
X37782331Y18157117D01*
X37906417Y18033031D01*
X38055777Y17940904D01*
X38055782Y17940902D01*
X38222361Y17885703D01*
X38325166Y17875200D01*
X38325174Y17875200D01*
X39724833Y17875200D01*
X39827638Y17885703D01*
X39994217Y17940902D01*
X39994220Y17940903D01*
X40143581Y18033030D01*
X40267670Y18157119D01*
X40359797Y18306480D01*
X40414996Y18473062D01*
X40425500Y18575874D01*
X40425500Y19975526D01*
X40414996Y20078338D01*
X40359797Y20244920D01*
X40267670Y20394281D01*
X40143581Y20518370D01*
X39994220Y20610497D01*
X39827638Y20665696D01*
X39724826Y20676200D01*
X38325174Y20676200D01*
X38259236Y20669463D01*
X38222361Y20665696D01*
X38166834Y20647296D01*
X38055780Y20610497D01*
X37906419Y20518370D01*
X37782330Y20394281D01*
X37750905Y20343333D01*
X37690204Y20244922D01*
X37690202Y20244917D01*
X37635003Y20078338D01*
X37624500Y19975533D01*
X37624500Y18575866D01*
X35876816Y18575866D01*
X36188779Y18985060D01*
X36966134Y20069975D01*
X37225223Y20452168D01*
X37339898Y20621329D01*
X37341301Y20623355D01*
X37391557Y20694408D01*
X37405516Y20710886D01*
X37529828Y20834060D01*
X37548853Y20849503D01*
X37693726Y20945014D01*
X37715416Y20956414D01*
X37732577Y20963367D01*
X37876247Y21021573D01*
X37899743Y21028482D01*
X38071695Y21061016D01*
X38093189Y21063167D01*
X38178893Y21064243D01*
X38180648Y21064265D01*
X38182202Y21064275D01*
X39998608Y21064275D01*
X40001414Y21064243D01*
G37*
%TD.AperFunction*%
%TD*%
%TA.AperFunction,Conductor*%
%TO.N,VDD*%
G36*
X4100903Y716015D02*
G01*
X4146658Y663211D01*
X4152841Y646635D01*
X4167063Y598198D01*
X4167066Y598192D01*
X4244848Y477162D01*
X4244856Y477151D01*
X4290600Y424359D01*
X4399341Y330133D01*
X4399345Y330130D01*
X4530211Y270364D01*
X4597259Y250676D01*
X4692205Y237025D01*
X4739677Y230200D01*
X30470499Y230200D01*
X30537538Y210515D01*
X30583293Y157711D01*
X30594499Y106200D01*
X30594499Y-10941139D01*
X30594820Y-10959121D01*
X30595139Y-10968037D01*
X30596103Y-10986023D01*
X30596105Y-10986038D01*
X30626686Y-11126614D01*
X30626688Y-11126621D01*
X30641847Y-11167265D01*
X30651105Y-11192086D01*
X30651107Y-11192090D01*
X30720056Y-11318360D01*
X30720057Y-11318361D01*
X30783408Y-11381715D01*
X30816892Y-11443039D01*
X30811906Y-11512730D01*
X30783406Y-11557075D01*
X13927301Y-28413181D01*
X13865978Y-28446666D01*
X13839620Y-28449500D01*
X11329499Y-28449500D01*
X11262460Y-28429815D01*
X11216705Y-28377011D01*
X11205499Y-28325500D01*
X11205499Y-25303263D01*
X11205499Y-25303257D01*
X11199275Y-25224177D01*
X11193206Y-25185860D01*
X11177504Y-25120460D01*
X11175610Y-25110941D01*
X11156525Y-24990434D01*
X11155000Y-24971049D01*
X11155000Y-24557549D01*
X11156527Y-24538152D01*
X11175608Y-24417676D01*
X11177507Y-24408125D01*
X11193206Y-24342738D01*
X11199275Y-24304420D01*
X11205499Y-24225342D01*
X11205499Y-22188300D01*
X11193946Y-22080844D01*
X11182740Y-22029333D01*
X11182636Y-22029022D01*
X11148615Y-21926802D01*
X11148612Y-21926796D01*
X11070827Y-21805762D01*
X11070824Y-21805757D01*
X11070819Y-21805751D01*
X11025075Y-21752959D01*
X11025071Y-21752956D01*
X11025069Y-21752953D01*
X10916335Y-21658733D01*
X10916332Y-21658731D01*
X10916330Y-21658730D01*
X10785464Y-21598964D01*
X10785459Y-21598962D01*
X10785458Y-21598962D01*
X10718419Y-21579277D01*
X10718421Y-21579277D01*
X10718416Y-21579276D01*
X10670943Y-21572450D01*
X10575999Y-21558800D01*
X10575997Y-21558800D01*
X5875827Y-21558800D01*
X5808788Y-21539115D01*
X5763033Y-21486311D01*
X5753089Y-21417153D01*
X5758119Y-21395803D01*
X5789999Y-21299597D01*
X5800500Y-21196809D01*
X5800499Y-20396792D01*
X5789999Y-20294003D01*
X5734814Y-20127466D01*
X5642712Y-19978144D01*
X5518656Y-19854088D01*
X5369334Y-19761986D01*
X5202797Y-19706801D01*
X5202795Y-19706800D01*
X5100010Y-19696300D01*
X3299998Y-19696300D01*
X3299981Y-19696301D01*
X3197203Y-19706800D01*
X3197200Y-19706801D01*
X3063503Y-19751105D01*
X2993675Y-19753507D01*
X2933633Y-19717775D01*
X2902440Y-19655255D01*
X2900499Y-19633399D01*
X2900499Y-18649029D01*
X2920184Y-18581990D01*
X2936813Y-18561353D01*
X4124548Y-17373617D01*
X4185871Y-17340133D01*
X4212229Y-17337299D01*
X5100002Y-17337299D01*
X5100008Y-17337299D01*
X5202797Y-17326799D01*
X5369334Y-17271614D01*
X5518656Y-17179512D01*
X5642712Y-17055456D01*
X5734814Y-16906134D01*
X5789999Y-16739597D01*
X5800500Y-16636809D01*
X5800499Y-15836792D01*
X5789999Y-15734003D01*
X5734814Y-15567466D01*
X5642712Y-15418144D01*
X5518656Y-15294088D01*
X5369334Y-15201986D01*
X5202797Y-15146801D01*
X5202795Y-15146800D01*
X5100010Y-15136300D01*
X3299998Y-15136300D01*
X3299981Y-15136301D01*
X3197203Y-15146800D01*
X3197200Y-15146801D01*
X3030668Y-15201985D01*
X3030663Y-15201987D01*
X2881342Y-15294089D01*
X2757289Y-15418142D01*
X2665187Y-15567463D01*
X2665185Y-15567468D01*
X2637349Y-15651470D01*
X2610001Y-15734003D01*
X2610001Y-15734004D01*
X2610000Y-15734004D01*
X2599500Y-15836783D01*
X2599500Y-16636801D01*
X2599501Y-16636819D01*
X2606407Y-16704419D01*
X2593637Y-16773112D01*
X2570730Y-16804701D01*
X1812180Y-17563251D01*
X1750857Y-17596736D01*
X1681165Y-17591752D01*
X1625232Y-17549880D01*
X1600815Y-17484416D01*
X1600499Y-17475570D01*
X1600499Y-15816798D01*
X1600498Y-15816788D01*
X1589999Y-15714003D01*
X1542850Y-15571716D01*
X1534814Y-15547464D01*
X1442711Y-15398143D01*
X1318656Y-15274088D01*
X1318652Y-15274085D01*
X1169343Y-15181989D01*
X1169337Y-15181986D01*
X1169335Y-15181985D01*
X1063153Y-15146800D01*
X1002800Y-15126801D01*
X900018Y-15116300D01*
X900011Y-15116300D01*
X-5100013Y-15116300D01*
X-5100020Y-15116300D01*
X-5202802Y-15126801D01*
X-5263155Y-15146800D01*
X-5369337Y-15181985D01*
X-5369339Y-15181986D01*
X-5369345Y-15181989D01*
X-5518654Y-15274085D01*
X-5518658Y-15274088D01*
X-5642712Y-15398142D01*
X-5642715Y-15398146D01*
X-5734811Y-15547455D01*
X-5734812Y-15547458D01*
X-5734816Y-15547464D01*
X-5790000Y-15714000D01*
X-5800500Y-15816780D01*
X-5800501Y-15816793D01*
X-5800501Y-17634800D01*
X-5820186Y-17701839D01*
X-5872990Y-17747594D01*
X-5924501Y-17758800D01*
X-17839255Y-17758800D01*
X-17906294Y-17739115D01*
X-17926936Y-17722481D01*
X-30558182Y-5091235D01*
X-30591667Y-5029912D01*
X-30594501Y-5003554D01*
X-30594501Y-2514299D01*
X-10500000Y-2514299D01*
X-10497751Y-2612569D01*
X-10459408Y-2805332D01*
X-10384196Y-2986911D01*
X-10275004Y-3150328D01*
X-10136029Y-3289303D01*
X-9972612Y-3398495D01*
X-9972605Y-3398497D01*
X-9972605Y-3398498D01*
X-9931467Y-3415537D01*
X-9791033Y-3473707D01*
X-9598270Y-3512050D01*
X-9500000Y-3514299D01*
X-2750000Y-3514300D01*
X-2651730Y-3512051D01*
X-2458967Y-3473708D01*
X-2458960Y-3473705D01*
X-2277394Y-3398499D01*
X-2277381Y-3398492D01*
X-2113971Y-3289304D01*
X-2113967Y-3289301D01*
X-1974998Y-3150332D01*
X-1974995Y-3150328D01*
X-1865807Y-2986918D01*
X-1865800Y-2986905D01*
X-1790593Y-2805337D01*
X-1790590Y-2805325D01*
X-1752250Y-2612576D01*
X-1752249Y-2612574D01*
X-1752249Y-2612570D01*
X-1750000Y-2514300D01*
X-1750000Y-1514301D01*
X-1752249Y-1416031D01*
X-1752250Y-1416024D01*
X-1790590Y-1223275D01*
X-1790593Y-1223263D01*
X-1865800Y-1041695D01*
X-1865807Y-1041682D01*
X-1974995Y-878272D01*
X-1974998Y-878268D01*
X-2113967Y-739299D01*
X-2113971Y-739296D01*
X-2277381Y-630108D01*
X-2277394Y-630101D01*
X-2458962Y-554894D01*
X-2458974Y-554891D01*
X-2651723Y-516551D01*
X-2651725Y-516550D01*
X-2651730Y-516550D01*
X-2712457Y-515160D01*
X-2750021Y-514300D01*
X-9499979Y-514300D01*
X-9500000Y-514300D01*
X-9598270Y-516549D01*
X-9598274Y-516549D01*
X-9598276Y-516550D01*
X-9791025Y-554890D01*
X-9791037Y-554893D01*
X-9972605Y-630100D01*
X-9972618Y-630107D01*
X-10136028Y-739295D01*
X-10136032Y-739298D01*
X-10275001Y-878267D01*
X-10275004Y-878271D01*
X-10384192Y-1041681D01*
X-10384199Y-1041694D01*
X-10384199Y-1041695D01*
X-10459408Y-1223267D01*
X-10497751Y-1416030D01*
X-10500000Y-1514300D01*
X-10500000Y-2514299D01*
X-30594501Y-2514299D01*
X-30594501Y106200D01*
X-30574816Y173239D01*
X-30522012Y218994D01*
X-30470501Y230200D01*
X-4739677Y230200D01*
X-4697545Y231959D01*
X-4676915Y233685D01*
X-4635054Y238954D01*
X-4498021Y282816D01*
X-4435192Y313365D01*
X-4435175Y313375D01*
X-4316076Y394047D01*
X-4316072Y394051D01*
X-4224508Y505026D01*
X-4224505Y505029D01*
X-4188165Y564696D01*
X-4188154Y564715D01*
X-4188153Y564717D01*
X-4147191Y660471D01*
X-4102726Y714365D01*
X-4036182Y735664D01*
X-4033185Y735700D01*
X4033864Y735700D01*
X4100903Y716015D01*
G37*
%TD.AperFunction*%
%TD*%
%TA.AperFunction,Conductor*%
%TO.N,Net-(J3-Pin_1)*%
G36*
X10643038Y-22083985D02*
G01*
X10688793Y-22136789D01*
X10699999Y-22188300D01*
X10699999Y-24225342D01*
X10693930Y-24263660D01*
X10682754Y-24298055D01*
X10649500Y-24508013D01*
X10649500Y-25020586D01*
X10682753Y-25230540D01*
X10682754Y-25230544D01*
X10693930Y-25264940D01*
X10699999Y-25303257D01*
X10699999Y-28325500D01*
X10680314Y-28392539D01*
X10627510Y-28438294D01*
X10575999Y-28449500D01*
X7139337Y-28449500D01*
X7072298Y-28429815D01*
X7066452Y-28425818D01*
X7052734Y-28415851D01*
X7052729Y-28415848D01*
X6879807Y-28338857D01*
X6879802Y-28338855D01*
X6734001Y-28307865D01*
X6694646Y-28299500D01*
X6505354Y-28299500D01*
X6472897Y-28306398D01*
X6320197Y-28338855D01*
X6320192Y-28338857D01*
X6147270Y-28415848D01*
X6147265Y-28415851D01*
X5994129Y-28527111D01*
X5867466Y-28667785D01*
X5769572Y-28837344D01*
X5767445Y-28836116D01*
X5729369Y-28880910D01*
X5662519Y-28901229D01*
X5661343Y-28901235D01*
X5505353Y-28901235D01*
X5472896Y-28908133D01*
X5320196Y-28940590D01*
X5320191Y-28940592D01*
X5147269Y-29017583D01*
X5147264Y-29017586D01*
X5135935Y-29025818D01*
X5070129Y-29049298D01*
X5063050Y-29049500D01*
X2623999Y-29049500D01*
X2556960Y-29029815D01*
X2511205Y-28977011D01*
X2499999Y-28925500D01*
X2499999Y-22188300D01*
X2519684Y-22121261D01*
X2572488Y-22075506D01*
X2623999Y-22064300D01*
X10575999Y-22064300D01*
X10643038Y-22083985D01*
G37*
%TD.AperFunction*%
%TD*%
%TA.AperFunction,Conductor*%
%TO.N,GND*%
G36*
X35774500Y-2713944D02*
G01*
X35774500Y-2713946D01*
X35774499Y-2713946D01*
X35803340Y-2858933D01*
X35803343Y-2858943D01*
X35859912Y-2995514D01*
X35859918Y-2995525D01*
X35865846Y-3004396D01*
X35886726Y-3071073D01*
X35886746Y-3073290D01*
X35886746Y-6402374D01*
X35867061Y-6469413D01*
X35850427Y-6490055D01*
X31311681Y-11028801D01*
X31250358Y-11062286D01*
X31180666Y-11057302D01*
X31124733Y-11015430D01*
X31100316Y-10949966D01*
X31100000Y-10941120D01*
X31100000Y-10462946D01*
X31099999Y-10462937D01*
X31099999Y735700D01*
X35774500Y735700D01*
X35774500Y-2713944D01*
G37*
%TD.AperFunction*%
%TA.AperFunction,Conductor*%
G36*
X39226091Y513272D02*
G01*
X39114889Y195465D01*
X39114887Y195459D01*
X39039968Y-132789D01*
X39039965Y-132809D01*
X39002274Y-467355D01*
X39002273Y-467371D01*
X39000001Y-635747D01*
X39000001Y-3435190D01*
X38999996Y-3436289D01*
X38997503Y-3717475D01*
X38997192Y-3725222D01*
X38957030Y-4286737D01*
X38956084Y-4295539D01*
X38876042Y-4852225D01*
X38874470Y-4860935D01*
X38754922Y-5410481D01*
X38752733Y-5419058D01*
X38594286Y-5958673D01*
X38591491Y-5967072D01*
X38394946Y-6494026D01*
X38391559Y-6502203D01*
X38362295Y-6566283D01*
X38316540Y-6619087D01*
X38249501Y-6638772D01*
X38182461Y-6619088D01*
X38136706Y-6566284D01*
X38125500Y-6514772D01*
X38125500Y735700D01*
X39333205Y735700D01*
X39226091Y513272D01*
G37*
%TD.AperFunction*%
%TD*%
M02*
