%TF.GenerationSoftware,KiCad,Pcbnew,8.0.1*%
%TF.CreationDate,2024-09-21T22:08:13+09:00*%
%TF.ProjectId,Kicker-20240411,4b69636b-6572-42d3-9230-323430343131,rev?*%
%TF.SameCoordinates,Original*%
%TF.FileFunction,Copper,L1,Top*%
%TF.FilePolarity,Positive*%
%FSLAX46Y46*%
G04 Gerber Fmt 4.6, Leading zero omitted, Abs format (unit mm)*
G04 Created by KiCad (PCBNEW 8.0.1) date 2024-09-21 22:08:13*
%MOMM*%
%LPD*%
G01*
G04 APERTURE LIST*
G04 Aperture macros list*
%AMRoundRect*
0 Rectangle with rounded corners*
0 $1 Rounding radius*
0 $2 $3 $4 $5 $6 $7 $8 $9 X,Y pos of 4 corners*
0 Add a 4 corners polygon primitive as box body*
4,1,4,$2,$3,$4,$5,$6,$7,$8,$9,$2,$3,0*
0 Add four circle primitives for the rounded corners*
1,1,$1+$1,$2,$3*
1,1,$1+$1,$4,$5*
1,1,$1+$1,$6,$7*
1,1,$1+$1,$8,$9*
0 Add four rect primitives between the rounded corners*
20,1,$1+$1,$2,$3,$4,$5,0*
20,1,$1+$1,$4,$5,$6,$7,0*
20,1,$1+$1,$6,$7,$8,$9,0*
20,1,$1+$1,$8,$9,$2,$3,0*%
G04 Aperture macros list end*
%TA.AperFunction,SMDPad,CuDef*%
%ADD10RoundRect,0.200000X-0.200000X-0.275000X0.200000X-0.275000X0.200000X0.275000X-0.200000X0.275000X0*%
%TD*%
%TA.AperFunction,SMDPad,CuDef*%
%ADD11RoundRect,0.225000X-0.225000X-0.250000X0.225000X-0.250000X0.225000X0.250000X-0.225000X0.250000X0*%
%TD*%
%TA.AperFunction,ComponentPad*%
%ADD12RoundRect,0.250200X0.649800X-0.649800X0.649800X0.649800X-0.649800X0.649800X-0.649800X-0.649800X0*%
%TD*%
%TA.AperFunction,ComponentPad*%
%ADD13C,1.800000*%
%TD*%
%TA.AperFunction,SMDPad,CuDef*%
%ADD14R,2.000000X0.640000*%
%TD*%
%TA.AperFunction,ComponentPad*%
%ADD15R,2.400000X2.400000*%
%TD*%
%TA.AperFunction,ComponentPad*%
%ADD16C,2.400000*%
%TD*%
%TA.AperFunction,ComponentPad*%
%ADD17RoundRect,0.250000X-0.600000X-0.750000X0.600000X-0.750000X0.600000X0.750000X-0.600000X0.750000X0*%
%TD*%
%TA.AperFunction,ComponentPad*%
%ADD18O,1.700000X2.000000*%
%TD*%
%TA.AperFunction,SMDPad,CuDef*%
%ADD19RoundRect,0.200000X0.200000X0.275000X-0.200000X0.275000X-0.200000X-0.275000X0.200000X-0.275000X0*%
%TD*%
%TA.AperFunction,SMDPad,CuDef*%
%ADD20R,3.000000X3.000000*%
%TD*%
%TA.AperFunction,ComponentPad*%
%ADD21RoundRect,0.250200X-0.649800X0.649800X-0.649800X-0.649800X0.649800X-0.649800X0.649800X0.649800X0*%
%TD*%
%TA.AperFunction,ComponentPad*%
%ADD22R,1.700000X1.700000*%
%TD*%
%TA.AperFunction,ComponentPad*%
%ADD23O,1.700000X1.700000*%
%TD*%
%TA.AperFunction,ViaPad*%
%ADD24C,0.800000*%
%TD*%
%TA.AperFunction,Conductor*%
%ADD25C,0.500000*%
%TD*%
G04 APERTURE END LIST*
D10*
%TO.P,R5,1*%
%TO.N,Net-(Q2-G)*%
X-819681Y-28500000D03*
%TO.P,R5,2*%
%TO.N,GND*%
X830319Y-28500000D03*
%TD*%
D11*
%TO.P,C2,1*%
%TO.N,ball01k*%
X37375000Y9535700D03*
%TO.P,C2,2*%
%TO.N,GND*%
X38925000Y9535700D03*
%TD*%
%TO.P,C3,1*%
%TO.N,ball02k*%
X-38925000Y9535700D03*
%TO.P,C3,2*%
%TO.N,GND*%
X-37375000Y9535700D03*
%TD*%
D10*
%TO.P,R2,1*%
%TO.N,Net-(U2-OUT)*%
X-39025000Y11335700D03*
%TO.P,R2,2*%
%TO.N,ball02k*%
X-37375000Y11335700D03*
%TD*%
%TO.P,R3,1*%
%TO.N,+3.3V*%
X-819681Y-36250000D03*
%TO.P,R3,2*%
%TO.N,Net-(D1-A)*%
X830319Y-36250000D03*
%TD*%
D12*
%TO.P,U2,1,OUT*%
%TO.N,Net-(U2-OUT)*%
X-39025000Y14195700D03*
D13*
%TO.P,U2,2,GND*%
%TO.N,GND*%
X-39025000Y16735700D03*
%TO.P,U2,3,Vs*%
%TO.N,+3.3V*%
X-39025000Y19275700D03*
%TD*%
D14*
%TO.P,D2,1,Anode*%
%TO.N,Sig-main*%
X3155319Y-32770000D03*
%TO.P,D2,3,Cathode*%
%TO.N,GND*%
X3155319Y-30230000D03*
%TO.P,D2,4,GND*%
X-3144681Y-30230000D03*
%TO.P,D2,5,VO*%
%TO.N,Sig*%
X-3144681Y-31500000D03*
%TO.P,D2,6,VCC*%
%TO.N,+3.3V*%
X-3144681Y-32770000D03*
%TD*%
D15*
%TO.P,C1,1*%
%TO.N,VDD*%
X27487246Y-3435725D03*
D16*
%TO.P,C1,2*%
%TO.N,GND*%
X34987246Y-3435725D03*
%TD*%
D15*
%TO.P,C4,1*%
%TO.N,VDD*%
X-27487246Y-3435725D03*
D16*
%TO.P,C4,2*%
%TO.N,GND*%
X-34987246Y-3435725D03*
%TD*%
D17*
%TO.P,J1,1,Pin_1*%
%TO.N,VCC*%
X-12000000Y-24764300D03*
D18*
%TO.P,J1,2,Pin_2*%
%TO.N,GND*%
X-9500000Y-24764300D03*
%TD*%
D11*
%TO.P,C7,1*%
%TO.N,Net-(Q2-G)*%
X-775000Y-26500000D03*
%TO.P,C7,2*%
%TO.N,GND*%
X775000Y-26500000D03*
%TD*%
D19*
%TO.P,R1,1*%
%TO.N,Net-(U1-OUT)*%
X39025000Y11335700D03*
%TO.P,R1,2*%
%TO.N,ball01k*%
X37375000Y11335700D03*
%TD*%
D20*
%TO.P,U3,1,+IN*%
%TO.N,VCC*%
X-19750000Y-514300D03*
%TO.P,U3,2,-IN*%
%TO.N,GND*%
X-19750000Y-18514300D03*
%TO.P,U3,3,+OUT*%
%TO.N,+48V*%
X19750000Y-514300D03*
%TO.P,U3,4,-OUT*%
%TO.N,GND*%
X19750000Y-18514300D03*
%TD*%
D21*
%TO.P,U1,1,OUT*%
%TO.N,Net-(U1-OUT)*%
X39025000Y19275700D03*
D13*
%TO.P,U1,2,GND*%
%TO.N,GND*%
X39025000Y16735700D03*
%TO.P,U1,3,Vs*%
%TO.N,+3.3V*%
X39025000Y14195700D03*
%TD*%
D10*
%TO.P,R4,1*%
%TO.N,Sig*%
X-825000Y-24500000D03*
%TO.P,R4,2*%
%TO.N,GND*%
X825000Y-24500000D03*
%TD*%
D11*
%TO.P,C5,1*%
%TO.N,+3.3V*%
X-769681Y-34500000D03*
%TO.P,C5,2*%
%TO.N,GND*%
X780319Y-34500000D03*
%TD*%
D17*
%TO.P,J3,1,Pin_1*%
%TO.N,Net-(J3-Pin_1)*%
X9500000Y-24764300D03*
D18*
%TO.P,J3,2,Pin_2*%
%TO.N,VDD*%
X12000000Y-24764300D03*
%TD*%
D22*
%TO.P,J2,1,Pin_1*%
%TO.N,ball01k*%
X5080001Y-39135725D03*
D23*
%TO.P,J2,2,Pin_2*%
%TO.N,Sig-main*%
X2540001Y-39135725D03*
%TO.P,J2,3,Pin_3*%
%TO.N,GND*%
X1Y-39135725D03*
%TO.P,J2,4,Pin_4*%
%TO.N,+3.3V*%
X-2539999Y-39135725D03*
%TO.P,J2,5,Pin_5*%
%TO.N,ball02k*%
X-5079999Y-39135725D03*
%TD*%
D24*
%TO.N,GND*%
X-4800000Y-29800000D03*
%TO.N,+3.3V*%
X-3144681Y-33766800D03*
X-7425000Y-28064300D03*
X6600000Y-29200000D03*
%TO.N,ball01k*%
X37375000Y8335700D03*
%TO.N,Net-(D1-A)*%
X2255319Y-36250000D03*
%TO.N,Sig*%
X5599999Y-29801735D03*
X5319Y-31500000D03*
%TO.N,Sig-main*%
X3600000Y-31464300D03*
%TO.N,+48V*%
X-300001Y-16716800D03*
X-300001Y-19116800D03*
X-1500001Y-20316800D03*
X-2700001Y-17916800D03*
X-2700001Y-19116800D03*
X-2700001Y-16716800D03*
X-3900001Y-20316800D03*
X-3900001Y-19116800D03*
X-3900001Y-17916800D03*
X-1500001Y-19116800D03*
X-1500001Y-17916800D03*
X-300001Y-20316800D03*
X-1500001Y-16716800D03*
X-300001Y-17916800D03*
X-3900001Y-16716800D03*
X-2700001Y-20316800D03*
%TO.N,Net-(Q2-G)*%
X2600000Y-31489509D03*
X-6200000Y-28041800D03*
%TD*%
D25*
%TO.N,+3.3V*%
X-3144681Y-33766800D02*
X-3144681Y-32770000D01*
X2075000Y-22764300D02*
X-2125000Y-22764300D01*
X6600000Y-27289300D02*
X2075000Y-22764300D01*
X-769681Y-34500000D02*
X-769681Y-37365407D01*
X-769681Y-37365407D02*
X-2539999Y-39135725D01*
X-1502881Y-33766800D02*
X-3144681Y-33766800D01*
X6600000Y-29200000D02*
X6600000Y-27289300D01*
X-769681Y-34500000D02*
X-1502881Y-33766800D01*
X-2125000Y-22764300D02*
X-7425000Y-28064300D01*
%TO.N,ball01k*%
X37375000Y9535700D02*
X37375000Y8335700D01*
X37375000Y11335700D02*
X37375000Y9535700D01*
%TO.N,ball02k*%
X-38925000Y9535700D02*
X-37375000Y11335700D01*
X-12600000Y-30464300D02*
X-6200000Y-30464300D01*
X-6200000Y-30464300D02*
X-5079999Y-31584301D01*
X-38200000Y-4864300D02*
X-12600000Y-30464300D01*
X-5079999Y-31584301D02*
X-5079999Y-39135725D01*
X-38925000Y9535700D02*
X-38200000Y8810700D01*
X-38200000Y8810700D02*
X-38200000Y-4864300D01*
%TO.N,Net-(D1-A)*%
X830319Y-36250000D02*
X2255319Y-36250000D01*
%TO.N,Sig*%
X5599999Y-29801735D02*
X5599999Y-27491799D01*
X100000Y-23575000D02*
X-825000Y-24500000D01*
X-3144681Y-31500000D02*
X5319Y-31500000D01*
X1683200Y-23575000D02*
X100000Y-23575000D01*
X5599999Y-27491799D02*
X1683200Y-23575000D01*
%TO.N,Sig-main*%
X3600000Y-31464300D02*
X3600000Y-32325319D01*
X3600000Y-32325319D02*
X3155319Y-32770000D01*
%TO.N,Net-(Q2-G)*%
X2169828Y-31489509D02*
X-819681Y-28500000D01*
X-2316800Y-28041800D02*
X-775000Y-26500000D01*
X-1277881Y-28041800D02*
X-819681Y-28500000D01*
X-6200000Y-28041800D02*
X-2316800Y-28041800D01*
X2600000Y-31489509D02*
X2169828Y-31489509D01*
X-6200000Y-28041800D02*
X-1277881Y-28041800D01*
%TO.N,Net-(U1-OUT)*%
X37675000Y17925700D02*
X39025000Y19275700D01*
X39025000Y11335700D02*
X37675000Y12685700D01*
X37675000Y12685700D02*
X37675000Y17925700D01*
%TO.N,Net-(U2-OUT)*%
X-39025000Y14195700D02*
X-39025000Y11335700D01*
%TD*%
%TA.AperFunction,Conductor*%
%TO.N,VCC*%
G36*
X-17684324Y1463515D02*
G01*
X-17663682Y1446881D01*
X-6786319Y-9430482D01*
X-6752834Y-9491805D01*
X-6750000Y-9518163D01*
X-6750000Y-25992800D01*
X-6769685Y-26059839D01*
X-6822489Y-26105594D01*
X-6874000Y-26116800D01*
X-8493242Y-26116800D01*
X-8560281Y-26097115D01*
X-8606036Y-26044311D01*
X-8615980Y-25975153D01*
X-8586955Y-25911597D01*
X-8580923Y-25905119D01*
X-8469890Y-25794086D01*
X-8344951Y-25622120D01*
X-8248444Y-25432714D01*
X-8182753Y-25230539D01*
X-8149500Y-25020586D01*
X-8149500Y-24508013D01*
X-8182753Y-24298060D01*
X-8248444Y-24095885D01*
X-8344951Y-23906479D01*
X-8469890Y-23734513D01*
X-8620213Y-23584190D01*
X-8792179Y-23459251D01*
X-8981585Y-23362744D01*
X-9183760Y-23297053D01*
X-9183759Y-23297053D01*
X-9354202Y-23270057D01*
X-9393713Y-23263800D01*
X-9606287Y-23263800D01*
X-9669644Y-23273834D01*
X-9816239Y-23297053D01*
X-9816241Y-23297053D01*
X-9816243Y-23297054D01*
X-10018412Y-23362743D01*
X-10018413Y-23362743D01*
X-10018414Y-23362744D01*
X-10207820Y-23459251D01*
X-10379786Y-23584190D01*
X-10530109Y-23734513D01*
X-10655048Y-23906479D01*
X-10655049Y-23906481D01*
X-10655051Y-23906484D01*
X-10751557Y-24095888D01*
X-10817246Y-24298057D01*
X-10850500Y-24508013D01*
X-10850500Y-25020587D01*
X-10817246Y-25230543D01*
X-10751557Y-25432712D01*
X-10655051Y-25622116D01*
X-10655048Y-25622120D01*
X-10530109Y-25794086D01*
X-10530106Y-25794088D01*
X-10530104Y-25794092D01*
X-10419077Y-25905119D01*
X-10385592Y-25966442D01*
X-10390576Y-26036134D01*
X-10432448Y-26092067D01*
X-10497912Y-26116484D01*
X-10506758Y-26116800D01*
X-14776001Y-26116800D01*
X-14843040Y-26097115D01*
X-14888795Y-26044311D01*
X-14900001Y-25992800D01*
X-14900001Y-9316799D01*
X-21663682Y-2553119D01*
X-21697167Y-2491796D01*
X-21700001Y-2465438D01*
X-21700001Y1359200D01*
X-21680316Y1426239D01*
X-21627512Y1471994D01*
X-21576001Y1483200D01*
X-17751363Y1483200D01*
X-17684324Y1463515D01*
G37*
%TD.AperFunction*%
%TD*%
%TA.AperFunction,Conductor*%
%TO.N,+48V*%
G36*
X21593038Y1463515D02*
G01*
X21638793Y1410711D01*
X21649999Y1359200D01*
X21649999Y-2465438D01*
X21630314Y-2532477D01*
X21613680Y-2553119D01*
X2686318Y-21480481D01*
X2624995Y-21513966D01*
X2598637Y-21516800D01*
X-5226001Y-21516800D01*
X-5293040Y-21497115D01*
X-5338795Y-21444311D01*
X-5350001Y-21392800D01*
X-5350001Y-15640800D01*
X-5330316Y-15573761D01*
X-5277512Y-15528006D01*
X-5226001Y-15516800D01*
X1149999Y-15516800D01*
X18113680Y1446881D01*
X18175003Y1480366D01*
X18201361Y1483200D01*
X21525999Y1483200D01*
X21593038Y1463515D01*
G37*
%TD.AperFunction*%
%TD*%
%TA.AperFunction,Conductor*%
%TO.N,GND*%
G36*
X-38168857Y21064238D02*
G01*
X-38163462Y21064107D01*
X-38083083Y21062155D01*
X-38061976Y21059824D01*
X-37892203Y21026160D01*
X-37869006Y21019146D01*
X-37710431Y20953686D01*
X-37689043Y20942295D01*
X-37546224Y20847241D01*
X-37527460Y20831908D01*
X-37404782Y20709822D01*
X-37391069Y20693609D01*
X-37351674Y20637997D01*
X-37341328Y20623392D01*
X-37339898Y20621329D01*
X-36966134Y20069975D01*
X-36188779Y18985060D01*
X-35379595Y17923675D01*
X-34539291Y16886751D01*
X-34313022Y16623875D01*
X-33668606Y15875199D01*
X-32922669Y15058847D01*
X-32768311Y14889918D01*
X-31839193Y13931765D01*
X-30882069Y13001585D01*
X-30128191Y12311200D01*
X-29897773Y12100188D01*
X-28887186Y11228382D01*
X-27851204Y10386937D01*
X-26790749Y9576603D01*
X-26790723Y9576584D01*
X-26790720Y9576582D01*
X-25706667Y8798026D01*
X-25706645Y8798011D01*
X-25706642Y8798009D01*
X-25606952Y8730802D01*
X-24600004Y8051960D01*
X-23471703Y7339038D01*
X-22322758Y6659889D01*
X-21154178Y6015110D01*
X-19966991Y5405268D01*
X-19966982Y5405264D01*
X-19966969Y5405257D01*
X-18762231Y4830893D01*
X-17541016Y4292519D01*
X-16768066Y3978797D01*
X-16347864Y3808247D01*
X-16304296Y3790564D01*
X-15053282Y3325522D01*
X-13789041Y2897786D01*
X-12512650Y2507721D01*
X-11567594Y2249294D01*
X-11225245Y2155678D01*
X-11225239Y2155676D01*
X-11225237Y2155676D01*
X-9927966Y1841964D01*
X-8621992Y1566868D01*
X-8621979Y1566865D01*
X-8621976Y1566865D01*
X-8125695Y1477606D01*
X-7308381Y1330609D01*
X-5988366Y1133412D01*
X-4663096Y975449D01*
X-3333738Y856855D01*
X-2001385Y777730D01*
X-667346Y738154D01*
X667330Y738154D01*
X667346Y738154D01*
X2001385Y777730D01*
X3333738Y856855D01*
X4663096Y975449D01*
X5988366Y1133412D01*
X7308381Y1330609D01*
X8125695Y1477606D01*
X8621976Y1566865D01*
X8621979Y1566865D01*
X8621992Y1566868D01*
X9927966Y1841964D01*
X11225237Y2155676D01*
X11225239Y2155676D01*
X11225245Y2155678D01*
X11567594Y2249294D01*
X12512650Y2507721D01*
X13789041Y2897786D01*
X15053282Y3325522D01*
X16304296Y3790564D01*
X16347864Y3808247D01*
X16768066Y3978797D01*
X17541016Y4292519D01*
X18762231Y4830893D01*
X19966969Y5405257D01*
X19966982Y5405264D01*
X19966991Y5405268D01*
X20040417Y5442986D01*
X40349501Y5442986D01*
X40381162Y5202489D01*
X40443948Y4968170D01*
X40536774Y4744069D01*
X40536778Y4744060D01*
X40641818Y4562126D01*
X40658053Y4534006D01*
X40658068Y4533981D01*
X40805734Y4341538D01*
X40805740Y4341531D01*
X40977257Y4170014D01*
X40977264Y4170008D01*
X41169707Y4022342D01*
X41379786Y3901052D01*
X41379795Y3901048D01*
X41603896Y3808222D01*
X41838215Y3745436D01*
X42078712Y3713775D01*
X42078713Y3713775D01*
X42321290Y3713775D01*
X42561786Y3745436D01*
X42561880Y3745461D01*
X42796101Y3808221D01*
X42796105Y3808222D01*
X43020206Y3901048D01*
X43020215Y3901052D01*
X43058662Y3923249D01*
X43230290Y4022339D01*
X43230323Y4022364D01*
X43422737Y4170008D01*
X43422744Y4170014D01*
X43594261Y4341531D01*
X43594267Y4341538D01*
X43741933Y4533981D01*
X43741937Y4533986D01*
X43863225Y4744063D01*
X43956055Y4968175D01*
X44018839Y5202486D01*
X44050501Y5442987D01*
X44050501Y5685563D01*
X44018839Y5926064D01*
X43956055Y6160375D01*
X43863225Y6384487D01*
X43741937Y6594564D01*
X43594266Y6787013D01*
X43422739Y6958540D01*
X43230290Y7106211D01*
X43020213Y7227499D01*
X42796101Y7320329D01*
X42561790Y7383113D01*
X42345057Y7411646D01*
X42321290Y7414775D01*
X42321289Y7414775D01*
X42078713Y7414775D01*
X42078712Y7414775D01*
X42054945Y7411646D01*
X41838212Y7383113D01*
X41603901Y7320329D01*
X41379789Y7227499D01*
X41169712Y7106211D01*
X41169707Y7106207D01*
X40977264Y6958541D01*
X40977257Y6958535D01*
X40805740Y6787018D01*
X40805734Y6787011D01*
X40658087Y6594593D01*
X40658065Y6594564D01*
X40578902Y6457450D01*
X40536778Y6384489D01*
X40536774Y6384480D01*
X40443948Y6160379D01*
X40381162Y5926060D01*
X40349501Y5685563D01*
X40349501Y5442986D01*
X20040417Y5442986D01*
X21154178Y6015110D01*
X22322758Y6659889D01*
X23471703Y7339038D01*
X24600004Y8051960D01*
X25606952Y8730802D01*
X25706642Y8798009D01*
X25706645Y8798011D01*
X25706667Y8798026D01*
X26318394Y9237362D01*
X36424500Y9237362D01*
X36424501Y9237344D01*
X36434650Y9137992D01*
X36434651Y9137989D01*
X36487996Y8977005D01*
X36487998Y8977000D01*
X36561459Y8857903D01*
X36579899Y8790510D01*
X36563307Y8730806D01*
X36558466Y8722421D01*
X36547821Y8703984D01*
X36547818Y8703977D01*
X36504401Y8570351D01*
X36489326Y8523956D01*
X36469540Y8335700D01*
X36489326Y8147444D01*
X36489326Y8147441D01*
X36489327Y8147440D01*
X36547818Y7967422D01*
X36547821Y7967415D01*
X36642466Y7803485D01*
X36769129Y7662811D01*
X36922265Y7551551D01*
X36922270Y7551548D01*
X37095192Y7474557D01*
X37095197Y7474555D01*
X37247897Y7442098D01*
X37280354Y7435200D01*
X37280355Y7435200D01*
X37469645Y7435200D01*
X37469646Y7435200D01*
X37509001Y7443565D01*
X37654802Y7474555D01*
X37654807Y7474557D01*
X37827729Y7551548D01*
X37827734Y7551551D01*
X37980870Y7662811D01*
X38007869Y7692796D01*
X38107533Y7803484D01*
X38202179Y7967416D01*
X38260674Y8147444D01*
X38280460Y8335700D01*
X38260674Y8523956D01*
X38202179Y8703984D01*
X38186693Y8730806D01*
X38170219Y8798702D01*
X38188541Y8857903D01*
X38261998Y8976994D01*
X38262001Y8977000D01*
X38262003Y8977003D01*
X38315349Y9137992D01*
X38325500Y9237355D01*
X38325499Y9834044D01*
X38315349Y9933408D01*
X38262003Y10094397D01*
X38172968Y10238744D01*
X38161819Y10249893D01*
X38128334Y10311216D01*
X38125500Y10337574D01*
X38125500Y10470180D01*
X38145185Y10537219D01*
X38197989Y10582974D01*
X38267147Y10592918D01*
X38330703Y10563893D01*
X38337181Y10557861D01*
X38389810Y10505231D01*
X38389811Y10505230D01*
X38535393Y10417222D01*
X38697807Y10366613D01*
X38749145Y10361948D01*
X38768384Y10360200D01*
X38768387Y10360200D01*
X39281613Y10360200D01*
X39281616Y10360200D01*
X39302778Y10362123D01*
X39352192Y10366613D01*
X39352194Y10366613D01*
X39352196Y10366614D01*
X39514606Y10417222D01*
X39660185Y10505228D01*
X39660188Y10505230D01*
X39780469Y10625511D01*
X39780470Y10625513D01*
X39780472Y10625515D01*
X39868478Y10771094D01*
X39919086Y10933504D01*
X39925500Y11004084D01*
X39925500Y11667316D01*
X39919086Y11737896D01*
X39868478Y11900306D01*
X39780472Y12045885D01*
X39660185Y12166172D01*
X39514606Y12254178D01*
X39352196Y12304786D01*
X39281616Y12311200D01*
X39281613Y12311200D01*
X39162229Y12311200D01*
X39095190Y12330885D01*
X39074548Y12347519D01*
X38838548Y12583519D01*
X38805063Y12644842D01*
X38810047Y12714534D01*
X38851919Y12770467D01*
X38917383Y12794884D01*
X38926229Y12795200D01*
X39141048Y12795200D01*
X39141049Y12795200D01*
X39203996Y12805704D01*
X39369984Y12833402D01*
X39589495Y12908761D01*
X39589504Y12908764D01*
X39793628Y13019231D01*
X39793634Y13019235D01*
X39976777Y13161781D01*
X39976780Y13161784D01*
X39976784Y13161787D01*
X40133979Y13332547D01*
X40133980Y13332549D01*
X40133983Y13332552D01*
X40260924Y13526851D01*
X40354157Y13739399D01*
X40411133Y13964391D01*
X40411135Y13964402D01*
X40430300Y14195693D01*
X40430300Y14195706D01*
X40411135Y14426997D01*
X40411133Y14427008D01*
X40354157Y14652000D01*
X40260924Y14864548D01*
X40260924Y14864549D01*
X40133979Y15058853D01*
X39976784Y15229613D01*
X39793626Y15372170D01*
X39589503Y15482636D01*
X39369981Y15557998D01*
X39141049Y15596200D01*
X38908951Y15596200D01*
X38680019Y15557998D01*
X38589762Y15527012D01*
X38519965Y15523863D01*
X38459543Y15558949D01*
X38427683Y15621131D01*
X38425500Y15644294D01*
X38425500Y17563470D01*
X38445185Y17630509D01*
X38461819Y17651151D01*
X38649549Y17838881D01*
X38710872Y17872366D01*
X38737230Y17875200D01*
X39724833Y17875200D01*
X39827638Y17885703D01*
X39994217Y17940902D01*
X39994220Y17940903D01*
X40143581Y18033030D01*
X40267670Y18157119D01*
X40359797Y18306480D01*
X40414996Y18473062D01*
X40425500Y18575874D01*
X40425500Y19975526D01*
X40414996Y20078338D01*
X40359797Y20244920D01*
X40267670Y20394281D01*
X40143581Y20518370D01*
X39994220Y20610497D01*
X39827638Y20665696D01*
X39724826Y20676200D01*
X38325174Y20676200D01*
X38259236Y20669463D01*
X38222361Y20665696D01*
X38166834Y20647296D01*
X38055780Y20610497D01*
X37906419Y20518370D01*
X37782330Y20394281D01*
X37750905Y20343333D01*
X37690204Y20244922D01*
X37690202Y20244917D01*
X37635003Y20078338D01*
X37624500Y19975533D01*
X37624500Y18987929D01*
X37604815Y18920890D01*
X37588181Y18900248D01*
X37092052Y18404121D01*
X37092051Y18404120D01*
X37042814Y18330430D01*
X37042813Y18330429D01*
X37009914Y18281192D01*
X36953343Y18144617D01*
X36953340Y18144607D01*
X36924500Y17999620D01*
X36924500Y12611779D01*
X36924499Y12611779D01*
X36953340Y12466792D01*
X36953343Y12466782D01*
X36971612Y12422678D01*
X36979081Y12353209D01*
X36947805Y12290730D01*
X36893938Y12256840D01*
X36885394Y12254178D01*
X36739815Y12166172D01*
X36739813Y12166170D01*
X36739811Y12166169D01*
X36619530Y12045888D01*
X36531522Y11900306D01*
X36480913Y11737892D01*
X36474500Y11667313D01*
X36474500Y11004086D01*
X36480913Y10933507D01*
X36531522Y10771093D01*
X36606617Y10646873D01*
X36624500Y10582723D01*
X36624500Y10337574D01*
X36604815Y10270535D01*
X36588181Y10249893D01*
X36577032Y10238744D01*
X36577029Y10238740D01*
X36488001Y10094405D01*
X36487996Y10094394D01*
X36434651Y9933409D01*
X36424500Y9834052D01*
X36424500Y9237362D01*
X26318394Y9237362D01*
X26790720Y9576582D01*
X26790723Y9576584D01*
X26790749Y9576603D01*
X27851204Y10386937D01*
X28887186Y11228382D01*
X29897773Y12100188D01*
X30128191Y12311200D01*
X30882069Y13001585D01*
X31839193Y13931765D01*
X32768311Y14889918D01*
X32922669Y15058847D01*
X33668606Y15875199D01*
X34313022Y16623875D01*
X34539291Y16886751D01*
X35379595Y17923675D01*
X36188779Y18985060D01*
X36966134Y20069975D01*
X37225223Y20452168D01*
X37339898Y20621329D01*
X37341301Y20623355D01*
X37391557Y20694408D01*
X37405516Y20710886D01*
X37529828Y20834060D01*
X37548853Y20849503D01*
X37693726Y20945014D01*
X37715416Y20956414D01*
X37732577Y20963367D01*
X37876247Y21021573D01*
X37899743Y21028482D01*
X38071695Y21061016D01*
X38093189Y21063167D01*
X38178893Y21064243D01*
X38180648Y21064265D01*
X38182202Y21064275D01*
X39998608Y21064275D01*
X40001414Y21064243D01*
X40087475Y21062295D01*
X40108861Y21059944D01*
X40279058Y21026088D01*
X40302319Y21019032D01*
X40461333Y20953166D01*
X40482772Y20941706D01*
X40625883Y20846080D01*
X40644673Y20830659D01*
X40766375Y20708954D01*
X40781796Y20690163D01*
X40877418Y20547050D01*
X40888877Y20525612D01*
X40954740Y20366596D01*
X40961796Y20343333D01*
X40995649Y20173122D01*
X40997999Y20151769D01*
X40999968Y20065674D01*
X41000000Y20062839D01*
X41000000Y9764295D01*
X41002385Y9666016D01*
X41040726Y9473286D01*
X41040727Y9473282D01*
X41115930Y9291736D01*
X41115931Y9291734D01*
X41225103Y9128352D01*
X41225108Y9128345D01*
X41364061Y8989395D01*
X41364063Y8989393D01*
X41527454Y8880221D01*
X41527465Y8880215D01*
X41709000Y8805022D01*
X41709016Y8805017D01*
X41901738Y8766683D01*
X41901744Y8766682D01*
X41901746Y8766682D01*
X42000001Y8764275D01*
X42199106Y8764275D01*
X42200851Y8764263D01*
X42204291Y8764214D01*
X42373482Y8761831D01*
X42385620Y8761063D01*
X42729513Y8722312D01*
X42743222Y8719983D01*
X43079775Y8643163D01*
X43093137Y8639313D01*
X43418960Y8525298D01*
X43431807Y8519977D01*
X43742832Y8370192D01*
X43755002Y8363465D01*
X44047286Y8179808D01*
X44058626Y8171762D01*
X44328515Y7956530D01*
X44338884Y7947264D01*
X44582979Y7703165D01*
X44592245Y7692796D01*
X44807477Y7422900D01*
X44815523Y7411560D01*
X44999178Y7119272D01*
X45005904Y7107101D01*
X45155679Y6796089D01*
X45161001Y6783242D01*
X45275016Y6457401D01*
X45278865Y6444039D01*
X45355678Y6107495D01*
X45358007Y6093787D01*
X45396658Y5750757D01*
X45397438Y5736873D01*
X45397438Y5391666D01*
X45396658Y5377782D01*
X45358007Y5034752D01*
X45355678Y5021044D01*
X45278865Y4684500D01*
X45275016Y4671138D01*
X45161001Y4345297D01*
X45155679Y4332450D01*
X45005904Y4021438D01*
X44999178Y4009267D01*
X44815523Y3716979D01*
X44807477Y3705639D01*
X44592245Y3435743D01*
X44582979Y3425374D01*
X44338884Y3181275D01*
X44328515Y3172009D01*
X44058626Y2956777D01*
X44047286Y2948731D01*
X43755002Y2765074D01*
X43742832Y2758347D01*
X43431807Y2608562D01*
X43418962Y2603242D01*
X43093124Y2489222D01*
X43079788Y2485379D01*
X42743209Y2408553D01*
X42729526Y2406229D01*
X42385611Y2367475D01*
X42373487Y2366708D01*
X42202549Y2364310D01*
X42200855Y2364287D01*
X42199116Y2364275D01*
X42000001Y2364275D01*
X41831651Y2362026D01*
X41622966Y2338513D01*
X41497082Y2324330D01*
X41497077Y2324328D01*
X41497069Y2324328D01*
X41168812Y2249405D01*
X41168800Y2249401D01*
X40956942Y2175268D01*
X40851007Y2138200D01*
X40547652Y1992111D01*
X40547647Y1992108D01*
X40262562Y1812976D01*
X39999320Y1603046D01*
X39761243Y1364968D01*
X39761239Y1364963D01*
X39761238Y1364962D01*
X39756641Y1359197D01*
X39551321Y1101733D01*
X39551312Y1101721D01*
X39372174Y816621D01*
X39226091Y513272D01*
X39114889Y195465D01*
X39114887Y195459D01*
X39039968Y-132789D01*
X39039965Y-132809D01*
X39002274Y-467355D01*
X39002273Y-467371D01*
X39000001Y-635747D01*
X39000001Y-3435190D01*
X38999996Y-3436289D01*
X38997503Y-3717475D01*
X38997192Y-3725222D01*
X38957030Y-4286737D01*
X38956084Y-4295539D01*
X38876042Y-4852225D01*
X38874470Y-4860935D01*
X38754922Y-5410481D01*
X38752733Y-5419058D01*
X38594286Y-5958673D01*
X38591491Y-5967072D01*
X38394946Y-6494026D01*
X38391558Y-6502204D01*
X38157929Y-7013777D01*
X38153967Y-7021692D01*
X37884434Y-7515301D01*
X37879917Y-7522914D01*
X37575861Y-7996032D01*
X37570813Y-8003303D01*
X37233773Y-8453534D01*
X37228219Y-8460426D01*
X36859554Y-8885885D01*
X36854301Y-8891577D01*
X36657242Y-9092184D01*
X36656463Y-9092970D01*
X14607672Y-31141761D01*
X14605495Y-31143886D01*
X14543163Y-31203232D01*
X14526536Y-31216537D01*
X14382172Y-31312971D01*
X14360746Y-31324422D01*
X14201748Y-31390278D01*
X14178499Y-31397331D01*
X14008218Y-31431218D01*
X13987073Y-31433565D01*
X13901036Y-31435687D01*
X13897979Y-31435725D01*
X7410001Y-31435725D01*
X7311730Y-31437966D01*
X7311725Y-31437966D01*
X7118967Y-31476302D01*
X7118961Y-31476304D01*
X6937384Y-31551511D01*
X6937381Y-31551513D01*
X6773957Y-31660708D01*
X6634978Y-31799688D01*
X6525794Y-31963098D01*
X6525792Y-31963101D01*
X6450584Y-32144682D01*
X6450581Y-32144692D01*
X6412246Y-32337451D01*
X6412246Y-32337454D01*
X6410769Y-32402135D01*
X6410001Y-32435740D01*
X6410001Y-37772125D01*
X6390316Y-37839164D01*
X6337512Y-37884919D01*
X6268354Y-37894863D01*
X6211691Y-37871392D01*
X6172335Y-37841931D01*
X6172329Y-37841927D01*
X6037483Y-37791633D01*
X6037484Y-37791633D01*
X5977884Y-37785226D01*
X5977882Y-37785225D01*
X5977874Y-37785225D01*
X5977865Y-37785225D01*
X4182130Y-37785225D01*
X4182124Y-37785226D01*
X4122517Y-37791633D01*
X3987672Y-37841927D01*
X3987665Y-37841931D01*
X3872456Y-37928177D01*
X3872453Y-37928180D01*
X3786207Y-38043389D01*
X3786204Y-38043394D01*
X3737190Y-38174808D01*
X3695318Y-38230741D01*
X3629854Y-38255158D01*
X3561581Y-38240306D01*
X3533327Y-38219155D01*
X3411403Y-38097231D01*
X3411396Y-38097226D01*
X3217835Y-37961692D01*
X3217831Y-37961690D01*
X3188522Y-37948023D01*
X3003664Y-37861822D01*
X3003660Y-37861821D01*
X3003656Y-37861819D01*
X2775414Y-37800663D01*
X2775404Y-37800661D01*
X2540002Y-37780066D01*
X2540000Y-37780066D01*
X2304597Y-37800661D01*
X2304587Y-37800663D01*
X2076345Y-37861819D01*
X2076336Y-37861823D01*
X1862172Y-37961689D01*
X1862170Y-37961690D01*
X1668598Y-38097230D01*
X1501506Y-38264322D01*
X1365966Y-38457894D01*
X1365965Y-38457896D01*
X1266099Y-38672060D01*
X1266095Y-38672069D01*
X1204939Y-38900311D01*
X1204937Y-38900321D01*
X1184342Y-39135724D01*
X1184342Y-39135725D01*
X1204937Y-39371128D01*
X1204939Y-39371138D01*
X1266095Y-39599380D01*
X1266097Y-39599384D01*
X1266098Y-39599388D01*
X1270001Y-39607757D01*
X1365966Y-39813555D01*
X1365968Y-39813559D01*
X1406397Y-39871297D01*
X1501506Y-40007126D01*
X1668600Y-40174220D01*
X1765385Y-40241990D01*
X1862166Y-40309757D01*
X1862168Y-40309758D01*
X1862171Y-40309760D01*
X2076338Y-40409628D01*
X2304593Y-40470788D01*
X2481035Y-40486225D01*
X2540000Y-40491384D01*
X2540001Y-40491384D01*
X2540002Y-40491384D01*
X2598967Y-40486225D01*
X2775409Y-40470788D01*
X3003664Y-40409628D01*
X3217831Y-40309760D01*
X3411402Y-40174220D01*
X3533330Y-40052291D01*
X3594649Y-40018809D01*
X3664341Y-40023793D01*
X3720275Y-40065664D01*
X3737190Y-40096642D01*
X3786203Y-40228053D01*
X3786207Y-40228060D01*
X3872453Y-40343269D01*
X3872456Y-40343272D01*
X3987665Y-40429518D01*
X3987672Y-40429522D01*
X4122518Y-40479816D01*
X4122517Y-40479816D01*
X4129445Y-40480560D01*
X4182128Y-40486225D01*
X5977873Y-40486224D01*
X6037484Y-40479816D01*
X6172332Y-40429521D01*
X6211689Y-40400057D01*
X6277153Y-40375640D01*
X6345426Y-40390491D01*
X6394832Y-40439896D01*
X6410001Y-40499324D01*
X6410001Y-42234196D01*
X6409964Y-42237235D01*
X6407854Y-42323298D01*
X6405508Y-42344454D01*
X6371632Y-42514732D01*
X6364575Y-42537992D01*
X6298719Y-42696972D01*
X6287260Y-42718409D01*
X6191657Y-42861485D01*
X6176237Y-42880275D01*
X6054551Y-43001960D01*
X6035762Y-43017379D01*
X5892686Y-43112982D01*
X5871249Y-43124441D01*
X5712268Y-43190296D01*
X5689009Y-43197352D01*
X5518730Y-43231229D01*
X5497576Y-43233576D01*
X5411509Y-43235688D01*
X5408467Y-43235725D01*
X-5408563Y-43235725D01*
X-5411398Y-43235693D01*
X-5497491Y-43233724D01*
X-5518845Y-43231374D01*
X-5689057Y-43197520D01*
X-5712320Y-43190463D01*
X-5871329Y-43124600D01*
X-5892767Y-43113142D01*
X-6035881Y-43017518D01*
X-6054672Y-43002096D01*
X-6176370Y-42880398D01*
X-6191792Y-42861607D01*
X-6287416Y-42718493D01*
X-6298874Y-42697055D01*
X-6364737Y-42538046D01*
X-6371794Y-42514783D01*
X-6405648Y-42344571D01*
X-6407998Y-42323217D01*
X-6409967Y-42237124D01*
X-6409999Y-42234289D01*
X-6409999Y-39984091D01*
X-6390314Y-39917052D01*
X-6337510Y-39871297D01*
X-6268352Y-39861353D01*
X-6204796Y-39890378D01*
X-6184424Y-39912966D01*
X-6118494Y-40007126D01*
X-5951400Y-40174220D01*
X-5757829Y-40309760D01*
X-5543662Y-40409628D01*
X-5315407Y-40470788D01*
X-5138965Y-40486225D01*
X-5080000Y-40491384D01*
X-5079999Y-40491384D01*
X-5079998Y-40491384D01*
X-5021033Y-40486225D01*
X-4844591Y-40470788D01*
X-4616336Y-40409628D01*
X-4402169Y-40309760D01*
X-4402166Y-40309758D01*
X-4402164Y-40309757D01*
X-4305383Y-40241990D01*
X-4208598Y-40174220D01*
X-4041504Y-40007126D01*
X-4041499Y-40007120D01*
X-3911574Y-39821567D01*
X-3856997Y-39777942D01*
X-3787499Y-39770748D01*
X-3725144Y-39802271D01*
X-3708423Y-39821567D01*
X-3578494Y-40007126D01*
X-3411400Y-40174220D01*
X-3217829Y-40309760D01*
X-3003662Y-40409628D01*
X-2775407Y-40470788D01*
X-2598965Y-40486225D01*
X-2540000Y-40491384D01*
X-2539999Y-40491384D01*
X-2539998Y-40491384D01*
X-2481033Y-40486225D01*
X-2304591Y-40470788D01*
X-2076336Y-40409628D01*
X-1862169Y-40309760D01*
X-1862166Y-40309758D01*
X-1862164Y-40309757D01*
X-1765383Y-40241990D01*
X-1668598Y-40174220D01*
X-1501504Y-40007126D01*
X-1406395Y-39871297D01*
X-1365966Y-39813559D01*
X-1365964Y-39813555D01*
X-1269999Y-39607757D01*
X-1266096Y-39599388D01*
X-1266095Y-39599384D01*
X-1266093Y-39599380D01*
X-1204937Y-39371138D01*
X-1204935Y-39371128D01*
X-1184340Y-39135725D01*
X-1184340Y-39135722D01*
X-1202976Y-38922711D01*
X-1189209Y-38854211D01*
X-1167129Y-38824223D01*
X-186733Y-37843828D01*
X-186727Y-37843821D01*
X-137559Y-37770235D01*
X-137493Y-37770134D01*
X-104596Y-37720901D01*
X-81162Y-37664328D01*
X-81162Y-37664327D01*
X-48022Y-37584319D01*
X-48020Y-37584311D01*
X-48019Y-37584311D01*
X-19181Y-37439328D01*
X-19181Y-37165520D01*
X504Y-37098481D01*
X53308Y-37052726D01*
X122466Y-37042782D01*
X186022Y-37071807D01*
X192500Y-37077839D01*
X195130Y-37080469D01*
X195132Y-37080470D01*
X195134Y-37080472D01*
X340713Y-37168478D01*
X503123Y-37219086D01*
X573703Y-37225500D01*
X573706Y-37225500D01*
X1086932Y-37225500D01*
X1086935Y-37225500D01*
X1157515Y-37219086D01*
X1319925Y-37168478D01*
X1465504Y-37080472D01*
X1509156Y-37036820D01*
X1570479Y-37003334D01*
X1596838Y-37000500D01*
X1715982Y-37000500D01*
X1783021Y-37020185D01*
X1788867Y-37024182D01*
X1802584Y-37034148D01*
X1802589Y-37034151D01*
X1975511Y-37111142D01*
X1975516Y-37111144D01*
X2160673Y-37150500D01*
X2160674Y-37150500D01*
X2349963Y-37150500D01*
X2349965Y-37150500D01*
X2535122Y-37111144D01*
X2708049Y-37034151D01*
X2861190Y-36922888D01*
X2987852Y-36782216D01*
X3082498Y-36618284D01*
X3140993Y-36438256D01*
X3160779Y-36250000D01*
X3140993Y-36061744D01*
X3082498Y-35881716D01*
X2987852Y-35717784D01*
X2861190Y-35577112D01*
X2861189Y-35577111D01*
X2708053Y-35465851D01*
X2708048Y-35465848D01*
X2535126Y-35388857D01*
X2535121Y-35388855D01*
X2389320Y-35357865D01*
X2349965Y-35349500D01*
X2160673Y-35349500D01*
X2128216Y-35356398D01*
X1975516Y-35388855D01*
X1975511Y-35388857D01*
X1802589Y-35465848D01*
X1802584Y-35465851D01*
X1788867Y-35475818D01*
X1723061Y-35499298D01*
X1715982Y-35499500D01*
X1596838Y-35499500D01*
X1529799Y-35479815D01*
X1509156Y-35463180D01*
X1465507Y-35419531D01*
X1465507Y-35419530D01*
X1414766Y-35388856D01*
X1319925Y-35331522D01*
X1157515Y-35280914D01*
X1157513Y-35280913D01*
X1157511Y-35280913D01*
X1108097Y-35276423D01*
X1086935Y-35274500D01*
X573703Y-35274500D01*
X554464Y-35276248D01*
X503126Y-35280913D01*
X340712Y-35331522D01*
X195130Y-35419530D01*
X195129Y-35419531D01*
X192500Y-35422161D01*
X190100Y-35423471D01*
X189225Y-35424157D01*
X189111Y-35424011D01*
X131177Y-35455646D01*
X61485Y-35450662D01*
X5552Y-35408790D01*
X-18865Y-35343326D01*
X-19181Y-35334480D01*
X-19181Y-35301874D01*
X504Y-35234835D01*
X17138Y-35214193D01*
X28287Y-35203044D01*
X117322Y-35058697D01*
X170668Y-34897708D01*
X180819Y-34798345D01*
X180818Y-34201656D01*
X170668Y-34102292D01*
X117322Y-33941303D01*
X117318Y-33941297D01*
X117317Y-33941294D01*
X28289Y-33796959D01*
X28286Y-33796955D01*
X-91636Y-33677032D01*
X-91640Y-33677029D01*
X-235975Y-33588001D01*
X-235986Y-33587996D01*
X-396971Y-33534651D01*
X-496328Y-33524500D01*
X-496336Y-33524500D01*
X-632451Y-33524500D01*
X-699490Y-33504815D01*
X-720132Y-33488181D01*
X-1024462Y-33183850D01*
X-1024463Y-33183849D01*
X-1111800Y-33125494D01*
X-1147390Y-33101713D01*
X-1283963Y-33045143D01*
X-1283973Y-33045140D01*
X-1428961Y-33016300D01*
X-1428963Y-33016300D01*
X-1520181Y-33016300D01*
X-1587220Y-32996615D01*
X-1632975Y-32943811D01*
X-1644181Y-32892300D01*
X-1644181Y-32402129D01*
X-1644182Y-32402120D01*
X-1645727Y-32387752D01*
X-1633320Y-32318993D01*
X-1585708Y-32267857D01*
X-1522437Y-32250500D01*
X-534018Y-32250500D01*
X-466979Y-32270185D01*
X-461133Y-32274182D01*
X-449457Y-32282664D01*
X-447411Y-32284151D01*
X-274484Y-32361144D01*
X-89327Y-32400500D01*
X-89325Y-32400500D01*
X99963Y-32400500D01*
X99965Y-32400500D01*
X285122Y-32361144D01*
X458049Y-32284151D01*
X611190Y-32172888D01*
X737852Y-32032216D01*
X832498Y-31868284D01*
X890993Y-31688256D01*
X903403Y-31570170D01*
X929987Y-31505558D01*
X987285Y-31465573D01*
X1057104Y-31462913D01*
X1114405Y-31495453D01*
X1686536Y-32067584D01*
X1720021Y-32128907D01*
X1715037Y-32198599D01*
X1714316Y-32200176D01*
X1663110Y-32337470D01*
X1661228Y-32342517D01*
X1654819Y-32402127D01*
X1654819Y-32402134D01*
X1654819Y-32402135D01*
X1654819Y-33137870D01*
X1654820Y-33137876D01*
X1661227Y-33197483D01*
X1711521Y-33332328D01*
X1711525Y-33332335D01*
X1797771Y-33447544D01*
X1797774Y-33447547D01*
X1912983Y-33533793D01*
X1912990Y-33533797D01*
X2047836Y-33584091D01*
X2047835Y-33584091D01*
X2054763Y-33584835D01*
X2107446Y-33590500D01*
X4203191Y-33590499D01*
X4262802Y-33584091D01*
X4397650Y-33533796D01*
X4512865Y-33447546D01*
X4599115Y-33332331D01*
X4649410Y-33197483D01*
X4655819Y-33137873D01*
X4655818Y-32402128D01*
X4649410Y-32342517D01*
X4647526Y-32337467D01*
X4599116Y-32207671D01*
X4599112Y-32207664D01*
X4512866Y-32092455D01*
X4512863Y-32092452D01*
X4436382Y-32035198D01*
X4394511Y-31979264D01*
X4389527Y-31909573D01*
X4403303Y-31873937D01*
X4427179Y-31832584D01*
X4485674Y-31652556D01*
X4505460Y-31464300D01*
X4485674Y-31276044D01*
X4427179Y-31096016D01*
X4332533Y-30932084D01*
X4205871Y-30791412D01*
X4205870Y-30791411D01*
X4052734Y-30680151D01*
X4052729Y-30680148D01*
X3879807Y-30603157D01*
X3879802Y-30603155D01*
X3733304Y-30572017D01*
X3694646Y-30563800D01*
X3505354Y-30563800D01*
X3472897Y-30570698D01*
X3320197Y-30603155D01*
X3320192Y-30603157D01*
X3147270Y-30680148D01*
X3141637Y-30683401D01*
X3140957Y-30682223D01*
X3081938Y-30703277D01*
X3024432Y-30692758D01*
X2879807Y-30628366D01*
X2879802Y-30628364D01*
X2734001Y-30597374D01*
X2694646Y-30589009D01*
X2505354Y-30589009D01*
X2505352Y-30589009D01*
X2427163Y-30605627D01*
X2357496Y-30600309D01*
X2313703Y-30572017D01*
X1217186Y-29475500D01*
X117138Y-28375451D01*
X83653Y-28314128D01*
X80819Y-28287770D01*
X80819Y-28168386D01*
X74405Y-28097807D01*
X74405Y-28097804D01*
X23797Y-27935394D01*
X-64209Y-27789815D01*
X-64211Y-27789811D01*
X-184491Y-27669531D01*
X-184495Y-27669528D01*
X-250794Y-27629449D01*
X-297981Y-27577921D01*
X-309819Y-27509062D01*
X-282550Y-27444733D01*
X-246748Y-27416932D01*
X-247450Y-27415795D01*
X-96959Y-27322970D01*
X-96955Y-27322967D01*
X-45603Y-27271615D01*
X22968Y-27203044D01*
X112003Y-27058697D01*
X165349Y-26897708D01*
X175500Y-26798345D01*
X175499Y-26201656D01*
X175239Y-26199114D01*
X165349Y-26102292D01*
X165348Y-26102289D01*
X164672Y-26100250D01*
X112003Y-25941303D01*
X111999Y-25941297D01*
X111998Y-25941294D01*
X22970Y-25796959D01*
X22967Y-25796955D01*
X-96955Y-25677032D01*
X-96959Y-25677029D01*
X-241305Y-25587994D01*
X-242058Y-25587644D01*
X-242486Y-25587266D01*
X-247450Y-25584205D01*
X-246926Y-25583356D01*
X-294494Y-25541468D01*
X-313641Y-25474273D01*
X-293420Y-25407393D01*
X-253796Y-25369150D01*
X-189815Y-25330472D01*
X-189813Y-25330470D01*
X-189811Y-25330469D01*
X-69530Y-25210188D01*
X-15884Y-25121447D01*
X18478Y-25064606D01*
X69086Y-24902196D01*
X75500Y-24831616D01*
X75500Y-24712229D01*
X95185Y-24645190D01*
X111819Y-24624548D01*
X374548Y-24361819D01*
X435871Y-24328334D01*
X462229Y-24325500D01*
X1320970Y-24325500D01*
X1388009Y-24345185D01*
X1408651Y-24361819D01*
X4813180Y-27766347D01*
X4846665Y-27827670D01*
X4849499Y-27854028D01*
X4849499Y-29267412D01*
X4832886Y-29329412D01*
X4772820Y-29433449D01*
X4714326Y-29613475D01*
X4714325Y-29613479D01*
X4694539Y-29801735D01*
X4714325Y-29989991D01*
X4714326Y-29989994D01*
X4772817Y-30170012D01*
X4772820Y-30170019D01*
X4867466Y-30333951D01*
X4971185Y-30449142D01*
X4994128Y-30474623D01*
X5147264Y-30585883D01*
X5147269Y-30585886D01*
X5320191Y-30662877D01*
X5320196Y-30662879D01*
X5505353Y-30702235D01*
X5505354Y-30702235D01*
X5694643Y-30702235D01*
X5694645Y-30702235D01*
X5879802Y-30662879D01*
X6052729Y-30585886D01*
X6205870Y-30474623D01*
X6332532Y-30333951D01*
X6350697Y-30302486D01*
X6430428Y-30164391D01*
X6432554Y-30165618D01*
X6470631Y-30120825D01*
X6537481Y-30100506D01*
X6538657Y-30100500D01*
X6694644Y-30100500D01*
X6694646Y-30100500D01*
X6879803Y-30061144D01*
X7052730Y-29984151D01*
X7205871Y-29872888D01*
X7332533Y-29732216D01*
X7427179Y-29568284D01*
X7485674Y-29388256D01*
X7505460Y-29200000D01*
X7485674Y-29011744D01*
X7427179Y-28831716D01*
X7418095Y-28815982D01*
X7367113Y-28727677D01*
X7350500Y-28665677D01*
X7350500Y-27215379D01*
X7321659Y-27070392D01*
X7321658Y-27070391D01*
X7321658Y-27070387D01*
X7316815Y-27058694D01*
X7265087Y-26933811D01*
X7265080Y-26933798D01*
X7182952Y-26810885D01*
X7136014Y-26763947D01*
X7078416Y-26706349D01*
X5959333Y-25587266D01*
X5936368Y-25564301D01*
X8149500Y-25564301D01*
X8149501Y-25564318D01*
X8160000Y-25667096D01*
X8160001Y-25667099D01*
X8215185Y-25833631D01*
X8215187Y-25833636D01*
X8250069Y-25890188D01*
X8307288Y-25982956D01*
X8431344Y-26107012D01*
X8580666Y-26199114D01*
X8747203Y-26254299D01*
X8849991Y-26264800D01*
X10150008Y-26264799D01*
X10252797Y-26254299D01*
X10419334Y-26199114D01*
X10568656Y-26107012D01*
X10692712Y-25982956D01*
X10784814Y-25833634D01*
X10784814Y-25833631D01*
X10788178Y-25828179D01*
X10840126Y-25781454D01*
X10909088Y-25770231D01*
X10973170Y-25798074D01*
X10981398Y-25805594D01*
X11120213Y-25944409D01*
X11292179Y-26069348D01*
X11292181Y-26069349D01*
X11292184Y-26069351D01*
X11481588Y-26165857D01*
X11683757Y-26231546D01*
X11893713Y-26264800D01*
X11893714Y-26264800D01*
X12106286Y-26264800D01*
X12106287Y-26264800D01*
X12316243Y-26231546D01*
X12518412Y-26165857D01*
X12707816Y-26069351D01*
X12738452Y-26047093D01*
X12879786Y-25944409D01*
X12879788Y-25944406D01*
X12879792Y-25944404D01*
X13030104Y-25794092D01*
X13030106Y-25794088D01*
X13030109Y-25794086D01*
X13155048Y-25622120D01*
X13155047Y-25622120D01*
X13155051Y-25622116D01*
X13251557Y-25432712D01*
X13317246Y-25230543D01*
X13350500Y-25020587D01*
X13350500Y-24508013D01*
X13317246Y-24298057D01*
X13251557Y-24095888D01*
X13155051Y-23906484D01*
X13155049Y-23906481D01*
X13155048Y-23906479D01*
X13030109Y-23734513D01*
X12879786Y-23584190D01*
X12707820Y-23459251D01*
X12518414Y-23362744D01*
X12518413Y-23362743D01*
X12518412Y-23362743D01*
X12316243Y-23297054D01*
X12316241Y-23297053D01*
X12316240Y-23297053D01*
X12154957Y-23271508D01*
X12106287Y-23263800D01*
X11893713Y-23263800D01*
X11845042Y-23271508D01*
X11683760Y-23297053D01*
X11481585Y-23362744D01*
X11292179Y-23459251D01*
X11120215Y-23584189D01*
X10981398Y-23723006D01*
X10920075Y-23756490D01*
X10850383Y-23751506D01*
X10794450Y-23709634D01*
X10788178Y-23700420D01*
X10692712Y-23545644D01*
X10568657Y-23421589D01*
X10568656Y-23421588D01*
X10419334Y-23329486D01*
X10252797Y-23274301D01*
X10252795Y-23274300D01*
X10150010Y-23263800D01*
X8849998Y-23263800D01*
X8849981Y-23263801D01*
X8747203Y-23274300D01*
X8747200Y-23274301D01*
X8580668Y-23329485D01*
X8580663Y-23329487D01*
X8431342Y-23421589D01*
X8307289Y-23545642D01*
X8215187Y-23694963D01*
X8215185Y-23694968D01*
X8205894Y-23723006D01*
X8160001Y-23861503D01*
X8160001Y-23861504D01*
X8160000Y-23861504D01*
X8149500Y-23964283D01*
X8149500Y-25564301D01*
X5936368Y-25564301D01*
X2600093Y-22228024D01*
X2566608Y-22166701D01*
X2571592Y-22097009D01*
X2613464Y-22041076D01*
X2674534Y-22017052D01*
X2679035Y-22016569D01*
X2732447Y-22007914D01*
X2867256Y-21957632D01*
X2928579Y-21924147D01*
X3043760Y-21837923D01*
X20198088Y-4683595D01*
X25786746Y-4683595D01*
X25786747Y-4683601D01*
X25793154Y-4743208D01*
X25843448Y-4878053D01*
X25843452Y-4878060D01*
X25929698Y-4993269D01*
X25929701Y-4993272D01*
X26044910Y-5079518D01*
X26044917Y-5079522D01*
X26179763Y-5129816D01*
X26179762Y-5129816D01*
X26186690Y-5130560D01*
X26239373Y-5136225D01*
X28735118Y-5136224D01*
X28794729Y-5129816D01*
X28929577Y-5079521D01*
X29044792Y-4993271D01*
X29131042Y-4878056D01*
X29181337Y-4743208D01*
X29187746Y-4683598D01*
X29187745Y-2187853D01*
X29181337Y-2128242D01*
X29131042Y-1993394D01*
X29131041Y-1993393D01*
X29131039Y-1993389D01*
X29044793Y-1878180D01*
X29044790Y-1878177D01*
X28929581Y-1791931D01*
X28929574Y-1791927D01*
X28794728Y-1741633D01*
X28794729Y-1741633D01*
X28735129Y-1735226D01*
X28735127Y-1735225D01*
X28735119Y-1735225D01*
X28735110Y-1735225D01*
X26239375Y-1735225D01*
X26239369Y-1735226D01*
X26179762Y-1741633D01*
X26044917Y-1791927D01*
X26044910Y-1791931D01*
X25929701Y-1878177D01*
X25929698Y-1878180D01*
X25843452Y-1993389D01*
X25843448Y-1993396D01*
X25793154Y-2128242D01*
X25786747Y-2187841D01*
X25786747Y-2187848D01*
X25786746Y-2187860D01*
X25786746Y-4683595D01*
X20198088Y-4683595D01*
X21971122Y-2910561D01*
X22007287Y-2870300D01*
X22023921Y-2849658D01*
X22055566Y-2805774D01*
X22115337Y-2674897D01*
X22135022Y-2607858D01*
X22135023Y-2607854D01*
X22155499Y-2465438D01*
X22155499Y1359200D01*
X22143946Y1466656D01*
X22132740Y1518167D01*
X22116531Y1566868D01*
X22098615Y1620697D01*
X22098612Y1620703D01*
X22098612Y1620704D01*
X22020824Y1741743D01*
X21975069Y1794547D01*
X21866335Y1888767D01*
X21735458Y1948538D01*
X21668419Y1968223D01*
X21668415Y1968224D01*
X21525999Y1988700D01*
X18201361Y1988700D01*
X18201359Y1988700D01*
X18190161Y1988099D01*
X18147321Y1985803D01*
X18147313Y1985802D01*
X18147310Y1985802D01*
X18147309Y1985802D01*
X18136200Y1984607D01*
X18120963Y1982969D01*
X18120954Y1982967D01*
X18120949Y1982967D01*
X18096750Y1979045D01*
X18067551Y1974314D01*
X17932742Y1924032D01*
X17871419Y1890547D01*
X17756238Y1804323D01*
X17756233Y1804318D01*
X17756227Y1804313D01*
X976934Y-14974981D01*
X915611Y-15008466D01*
X889253Y-15011300D01*
X-5226001Y-15011300D01*
X-5226010Y-15011301D01*
X-5333451Y-15022852D01*
X-5333463Y-15022854D01*
X-5384973Y-15034060D01*
X-5487498Y-15068183D01*
X-5487504Y-15068186D01*
X-5608538Y-15145971D01*
X-5608544Y-15145975D01*
X-5608546Y-15145977D01*
X-5608549Y-15145979D01*
X-5661341Y-15191723D01*
X-5661344Y-15191726D01*
X-5661348Y-15191730D01*
X-5755568Y-15300464D01*
X-5815339Y-15431341D01*
X-5835024Y-15498380D01*
X-5835025Y-15498384D01*
X-5855501Y-15640800D01*
X-5855501Y-21392800D01*
X-5843948Y-21500256D01*
X-5832742Y-21551767D01*
X-5832740Y-21551772D01*
X-5798617Y-21654297D01*
X-5798614Y-21654301D01*
X-5798614Y-21654304D01*
X-5720826Y-21775343D01*
X-5675071Y-21828147D01*
X-5566337Y-21922367D01*
X-5435460Y-21982138D01*
X-5368421Y-22001823D01*
X-5368417Y-22001824D01*
X-5226001Y-22022300D01*
X-2743731Y-22022300D01*
X-2676692Y-22041985D01*
X-2630937Y-22094789D01*
X-2620993Y-22163947D01*
X-2650018Y-22227503D01*
X-2656050Y-22233981D01*
X-6032819Y-25610750D01*
X-6094142Y-25644235D01*
X-6163834Y-25639251D01*
X-6219767Y-25597379D01*
X-6244184Y-25531915D01*
X-6244500Y-25523069D01*
X-6244500Y-9518160D01*
X-6247397Y-9464112D01*
X-6247397Y-9464111D01*
X-6250229Y-9437778D01*
X-6250232Y-9437751D01*
X-6258885Y-9384355D01*
X-6258885Y-9384353D01*
X-6309166Y-9249548D01*
X-6342651Y-9188223D01*
X-6428876Y-9073041D01*
X-6428886Y-9073029D01*
X-12987617Y-2514299D01*
X-10500000Y-2514299D01*
X-10497751Y-2612569D01*
X-10459408Y-2805332D01*
X-10384196Y-2986911D01*
X-10275004Y-3150328D01*
X-10136029Y-3289303D01*
X-9972612Y-3398495D01*
X-9972605Y-3398497D01*
X-9972605Y-3398498D01*
X-9931467Y-3415537D01*
X-9791033Y-3473707D01*
X-9598270Y-3512050D01*
X-9500000Y-3514299D01*
X-2750000Y-3514300D01*
X-2651730Y-3512051D01*
X-2458967Y-3473708D01*
X-2458960Y-3473705D01*
X-2277394Y-3398499D01*
X-2277381Y-3398492D01*
X-2113971Y-3289304D01*
X-2113967Y-3289301D01*
X-1974998Y-3150332D01*
X-1974995Y-3150328D01*
X-1865807Y-2986918D01*
X-1865800Y-2986905D01*
X-1790593Y-2805337D01*
X-1790590Y-2805325D01*
X-1752250Y-2612576D01*
X-1752249Y-2612574D01*
X-1752249Y-2612570D01*
X-1750000Y-2514300D01*
X-1750000Y-1514301D01*
X-1752249Y-1416031D01*
X-1752250Y-1416024D01*
X-1790590Y-1223275D01*
X-1790593Y-1223263D01*
X-1865800Y-1041695D01*
X-1865807Y-1041682D01*
X-1974995Y-878272D01*
X-1974998Y-878268D01*
X-2113967Y-739299D01*
X-2113971Y-739296D01*
X-2277381Y-630108D01*
X-2277394Y-630101D01*
X-2458962Y-554894D01*
X-2458974Y-554891D01*
X-2651723Y-516551D01*
X-2651725Y-516550D01*
X-2651730Y-516550D01*
X-2712457Y-515160D01*
X-2750021Y-514300D01*
X-9499979Y-514300D01*
X-9500000Y-514300D01*
X-9598270Y-516549D01*
X-9598274Y-516549D01*
X-9598276Y-516550D01*
X-9791025Y-554890D01*
X-9791037Y-554893D01*
X-9972605Y-630100D01*
X-9972618Y-630107D01*
X-10136028Y-739295D01*
X-10136032Y-739298D01*
X-10275001Y-878267D01*
X-10275004Y-878271D01*
X-10384192Y-1041681D01*
X-10384199Y-1041694D01*
X-10384199Y-1041695D01*
X-10459408Y-1223267D01*
X-10497751Y-1416030D01*
X-10500000Y-1514300D01*
X-10500000Y-2514299D01*
X-12987617Y-2514299D01*
X-17306224Y1804307D01*
X-17306230Y1804313D01*
X-17306240Y1804323D01*
X-17310634Y1808270D01*
X-17346481Y1840471D01*
X-17346493Y1840481D01*
X-17346495Y1840482D01*
X-17346501Y1840488D01*
X-17361779Y1852800D01*
X-17367144Y1857123D01*
X-17411026Y1888766D01*
X-17411027Y1888767D01*
X-17541904Y1948538D01*
X-17608943Y1968223D01*
X-17608947Y1968224D01*
X-17751363Y1988700D01*
X-21576001Y1988700D01*
X-21683457Y1977147D01*
X-21734968Y1965941D01*
X-21769198Y1954547D01*
X-21837498Y1931816D01*
X-21837502Y1931813D01*
X-21837505Y1931813D01*
X-21958544Y1854025D01*
X-22011348Y1808270D01*
X-22105568Y1699536D01*
X-22165339Y1568659D01*
X-22185024Y1501620D01*
X-22185025Y1501616D01*
X-22205501Y1359200D01*
X-22205501Y-2465438D01*
X-22202604Y-2519478D01*
X-22199770Y-2545836D01*
X-22191115Y-2599248D01*
X-22140833Y-2734057D01*
X-22107348Y-2795380D01*
X-22021124Y-2910562D01*
X-22021114Y-2910571D01*
X-22021114Y-2910572D01*
X-15441820Y-9489865D01*
X-15408335Y-9551188D01*
X-15405501Y-9577546D01*
X-15405501Y-25992800D01*
X-15393948Y-26100256D01*
X-15382742Y-26151767D01*
X-15382740Y-26151772D01*
X-15348617Y-26254297D01*
X-15348616Y-26254298D01*
X-15348614Y-26254304D01*
X-15270826Y-26375343D01*
X-15270821Y-26375348D01*
X-15270821Y-26375349D01*
X-15228728Y-26423927D01*
X-15227119Y-26427449D01*
X-15220863Y-26431792D01*
X-15116337Y-26522367D01*
X-14985460Y-26582138D01*
X-14918421Y-26601823D01*
X-14918417Y-26601824D01*
X-14776001Y-26622300D01*
X-14775998Y-26622300D01*
X-10506739Y-26622300D01*
X-10488756Y-26621979D01*
X-10488744Y-26621978D01*
X-10488712Y-26621978D01*
X-10479866Y-26621662D01*
X-10461849Y-26620696D01*
X-10461841Y-26620694D01*
X-10461839Y-26620694D01*
X-10410541Y-26609534D01*
X-10321257Y-26590112D01*
X-10255793Y-26565695D01*
X-10255791Y-26565694D01*
X-10255787Y-26565692D01*
X-10176447Y-26522369D01*
X-10129518Y-26496744D01*
X-10027778Y-26395007D01*
X-9985906Y-26339074D01*
X-9985905Y-26339074D01*
X-9985898Y-26339062D01*
X-9916946Y-26212784D01*
X-9886365Y-26072200D01*
X-9886364Y-26072192D01*
X-9881380Y-26002502D01*
X-9881380Y-26002499D01*
X-9891644Y-25858989D01*
X-9941924Y-25724185D01*
X-9975409Y-25662860D01*
X-10061631Y-25547682D01*
X-10061636Y-25547676D01*
X-10137626Y-25471684D01*
X-10150261Y-25456889D01*
X-10216968Y-25365074D01*
X-10227135Y-25348484D01*
X-10278660Y-25247360D01*
X-10286106Y-25229384D01*
X-10321179Y-25121444D01*
X-10325721Y-25102524D01*
X-10343473Y-24990446D01*
X-10345000Y-24971047D01*
X-10345000Y-24557551D01*
X-10343473Y-24538153D01*
X-10325721Y-24426074D01*
X-10321179Y-24407153D01*
X-10286106Y-24299212D01*
X-10278660Y-24281236D01*
X-10227138Y-24180119D01*
X-10216972Y-24163530D01*
X-10150262Y-24071709D01*
X-10137624Y-24056912D01*
X-10057381Y-23976669D01*
X-10042585Y-23964032D01*
X-9963369Y-23906479D01*
X-9950774Y-23897328D01*
X-9934194Y-23887168D01*
X-9833060Y-23835637D01*
X-9815091Y-23828194D01*
X-9707143Y-23793120D01*
X-9688223Y-23788578D01*
X-9576147Y-23770827D01*
X-9556749Y-23769300D01*
X-9443255Y-23769300D01*
X-9423868Y-23770825D01*
X-9311752Y-23788582D01*
X-9292866Y-23793116D01*
X-9184897Y-23828197D01*
X-9166941Y-23835635D01*
X-9065797Y-23887171D01*
X-9049228Y-23897324D01*
X-8957407Y-23964035D01*
X-8942622Y-23976663D01*
X-8862363Y-24056922D01*
X-8849735Y-24071707D01*
X-8783024Y-24163528D01*
X-8772871Y-24180097D01*
X-8721338Y-24281236D01*
X-8713896Y-24299199D01*
X-8678816Y-24407165D01*
X-8674282Y-24426051D01*
X-8656525Y-24538169D01*
X-8655000Y-24557554D01*
X-8655000Y-24971043D01*
X-8656525Y-24990429D01*
X-8674281Y-25102543D01*
X-8678817Y-25121435D01*
X-8713895Y-25229394D01*
X-8721336Y-25247358D01*
X-8772868Y-25348494D01*
X-8783022Y-25365065D01*
X-8849737Y-25456892D01*
X-8862362Y-25471674D01*
X-8938365Y-25547677D01*
X-8950874Y-25560639D01*
X-8956906Y-25567117D01*
X-8968987Y-25580565D01*
X-9046774Y-25701605D01*
X-9075606Y-25764738D01*
X-9075795Y-25765149D01*
X-9075797Y-25765158D01*
X-9075799Y-25765161D01*
X-9075801Y-25765164D01*
X-9116335Y-25903217D01*
X-9116334Y-26047097D01*
X-9106390Y-26116255D01*
X-9065855Y-26254304D01*
X-8988067Y-26375343D01*
X-8942312Y-26428147D01*
X-8833578Y-26522367D01*
X-8702701Y-26582138D01*
X-8635662Y-26601823D01*
X-8635658Y-26601824D01*
X-8493242Y-26622300D01*
X-7343730Y-26622300D01*
X-7276691Y-26641985D01*
X-7230936Y-26694789D01*
X-7220992Y-26763947D01*
X-7250017Y-26827503D01*
X-7256049Y-26833981D01*
X-7577770Y-27155702D01*
X-7639093Y-27189187D01*
X-7639669Y-27189311D01*
X-7704803Y-27203156D01*
X-7704807Y-27203157D01*
X-7877729Y-27280148D01*
X-7877734Y-27280151D01*
X-8030870Y-27391411D01*
X-8030871Y-27391412D01*
X-8157533Y-27532084D01*
X-8252179Y-27696016D01*
X-8310674Y-27876044D01*
X-8330460Y-28064300D01*
X-8310674Y-28252556D01*
X-8252179Y-28432584D01*
X-8157533Y-28596516D01*
X-8030871Y-28737188D01*
X-7877730Y-28848451D01*
X-7704803Y-28925444D01*
X-7519646Y-28964800D01*
X-7519644Y-28964800D01*
X-7330355Y-28964800D01*
X-7330354Y-28964800D01*
X-7145197Y-28925444D01*
X-7145192Y-28925442D01*
X-6972270Y-28848451D01*
X-6949236Y-28831716D01*
X-6869898Y-28774074D01*
X-6804094Y-28750595D01*
X-6736040Y-28766420D01*
X-6724143Y-28774065D01*
X-6652730Y-28825951D01*
X-6479803Y-28902944D01*
X-6294646Y-28942300D01*
X-6294644Y-28942300D01*
X-6105355Y-28942300D01*
X-6105354Y-28942300D01*
X-5920197Y-28902944D01*
X-5920192Y-28902942D01*
X-5747270Y-28825951D01*
X-5747265Y-28825948D01*
X-5733548Y-28815982D01*
X-5667742Y-28792502D01*
X-5660663Y-28792300D01*
X-2390717Y-28792300D01*
X-2242883Y-28792300D01*
X-1836996Y-28792300D01*
X-1769957Y-28811985D01*
X-1724202Y-28864789D01*
X-1715931Y-28895936D01*
X-1715047Y-28895761D01*
X-1713768Y-28902188D01*
X-1713767Y-28902196D01*
X-1663159Y-29064606D01*
X-1575153Y-29210185D01*
X-1454866Y-29330472D01*
X-1309287Y-29418478D01*
X-1146877Y-29469086D01*
X-1076297Y-29475500D01*
X-956911Y-29475500D01*
X-889872Y-29495185D01*
X-869230Y-29511819D01*
X6770Y-30387819D01*
X40255Y-30449142D01*
X35271Y-30518834D01*
X-6601Y-30574767D01*
X-72065Y-30599184D01*
X-80911Y-30599500D01*
X-89327Y-30599500D01*
X-128682Y-30607865D01*
X-274483Y-30638855D01*
X-274488Y-30638857D01*
X-447410Y-30715848D01*
X-447415Y-30715851D01*
X-461133Y-30725818D01*
X-526939Y-30749298D01*
X-534018Y-30749500D01*
X-1846351Y-30749500D01*
X-1893366Y-30737498D01*
X-1894040Y-30739303D01*
X-2037198Y-30685908D01*
X-2037197Y-30685908D01*
X-2096797Y-30679501D01*
X-2096800Y-30679500D01*
X-2096808Y-30679500D01*
X-2096815Y-30679500D01*
X-2096816Y-30679500D01*
X-4192551Y-30679500D01*
X-4192557Y-30679501D01*
X-4252164Y-30685908D01*
X-4387009Y-30736202D01*
X-4387016Y-30736206D01*
X-4479390Y-30805358D01*
X-4502227Y-30822454D01*
X-4535591Y-30867023D01*
X-4591524Y-30908893D01*
X-4661216Y-30913877D01*
X-4722538Y-30880392D01*
X-5721580Y-29881350D01*
X-5721588Y-29881344D01*
X-5795269Y-29832113D01*
X-5844496Y-29799221D01*
X-5844508Y-29799214D01*
X-5981086Y-29742642D01*
X-5981092Y-29742640D01*
X-6126080Y-29713800D01*
X-6126082Y-29713800D01*
X-12237771Y-29713800D01*
X-12304810Y-29694115D01*
X-12325452Y-29677481D01*
X-15389741Y-26613191D01*
X-15393598Y-26606125D01*
X-15410121Y-26592811D01*
X-37413181Y-4589751D01*
X-37446666Y-4528428D01*
X-37449500Y-4502070D01*
X-37449500Y-2187852D01*
X-29187746Y-2187852D01*
X-29187745Y-4683597D01*
X-29181337Y-4743208D01*
X-29131042Y-4878056D01*
X-29044792Y-4993271D01*
X-28929577Y-5079521D01*
X-28794729Y-5129816D01*
X-28735119Y-5136225D01*
X-26239374Y-5136224D01*
X-26191003Y-5131024D01*
X-26179762Y-5129816D01*
X-26044917Y-5079522D01*
X-26044910Y-5079518D01*
X-25929701Y-4993272D01*
X-25929698Y-4993269D01*
X-25843452Y-4878060D01*
X-25843448Y-4878053D01*
X-25793154Y-4743207D01*
X-25786747Y-4683608D01*
X-25786746Y-4683606D01*
X-25786746Y-4683598D01*
X-25786746Y-3436289D01*
X-25786746Y-2187854D01*
X-25786747Y-2187848D01*
X-25793154Y-2128241D01*
X-25843448Y-1993396D01*
X-25843452Y-1993389D01*
X-25929698Y-1878180D01*
X-25929701Y-1878177D01*
X-26044910Y-1791931D01*
X-26044917Y-1791927D01*
X-26179763Y-1741633D01*
X-26179762Y-1741633D01*
X-26239362Y-1735226D01*
X-26239365Y-1735225D01*
X-26239373Y-1735225D01*
X-26239380Y-1735225D01*
X-26239381Y-1735225D01*
X-28735116Y-1735225D01*
X-28735122Y-1735226D01*
X-28794729Y-1741633D01*
X-28929574Y-1791927D01*
X-28929581Y-1791931D01*
X-29044790Y-1878177D01*
X-29044793Y-1878180D01*
X-29131039Y-1993389D01*
X-29131041Y-1993393D01*
X-29131042Y-1993394D01*
X-29181337Y-2128242D01*
X-29187746Y-2187852D01*
X-37449500Y-2187852D01*
X-37449500Y8884620D01*
X-37449499Y8884620D01*
X-37478340Y9029607D01*
X-37478343Y9029617D01*
X-37534914Y9166192D01*
X-37567813Y9215429D01*
X-37567814Y9215430D01*
X-37617051Y9289120D01*
X-37617052Y9289121D01*
X-37820378Y9492446D01*
X-37853863Y9553769D01*
X-37848879Y9623460D01*
X-37826660Y9661040D01*
X-37419578Y10133780D01*
X-37261708Y10317113D01*
X-37203048Y10355069D01*
X-37167746Y10360200D01*
X-37118387Y10360200D01*
X-37118384Y10360200D01*
X-37099145Y10361948D01*
X-37047807Y10366613D01*
X-36885393Y10417222D01*
X-36739811Y10505230D01*
X-36619530Y10625511D01*
X-36531522Y10771093D01*
X-36480913Y10933507D01*
X-36474500Y11004086D01*
X-36474500Y11667313D01*
X-36480913Y11737892D01*
X-36531522Y11900306D01*
X-36619530Y12045888D01*
X-36739811Y12166169D01*
X-36739813Y12166170D01*
X-36739815Y12166172D01*
X-36885394Y12254178D01*
X-37047804Y12304786D01*
X-37118384Y12311200D01*
X-37631616Y12311200D01*
X-37702196Y12304786D01*
X-37864606Y12254178D01*
X-38010185Y12166172D01*
X-38010188Y12166169D01*
X-38010189Y12166168D01*
X-38062819Y12113539D01*
X-38124142Y12080054D01*
X-38193834Y12085038D01*
X-38249767Y12126910D01*
X-38274184Y12192374D01*
X-38274500Y12201220D01*
X-38274500Y12698886D01*
X-38254815Y12765925D01*
X-38202011Y12811680D01*
X-38189504Y12816592D01*
X-38055782Y12860902D01*
X-38055777Y12860904D01*
X-37906417Y12953031D01*
X-37782331Y13077117D01*
X-37690204Y13226477D01*
X-37690202Y13226482D01*
X-37635003Y13393061D01*
X-37624500Y13495866D01*
X-37624500Y14895533D01*
X-37635003Y14998338D01*
X-37690202Y15164917D01*
X-37690204Y15164922D01*
X-37782331Y15314282D01*
X-37906417Y15438368D01*
X-37906419Y15438370D01*
X-38055780Y15530497D01*
X-38166834Y15567296D01*
X-38222361Y15585696D01*
X-38259236Y15589463D01*
X-38325174Y15596200D01*
X-39724826Y15596200D01*
X-39827638Y15585696D01*
X-39994220Y15530497D01*
X-40143581Y15438370D01*
X-40267670Y15314281D01*
X-40359797Y15164920D01*
X-40414996Y14998338D01*
X-40425500Y14895526D01*
X-40425500Y13495874D01*
X-40414996Y13393062D01*
X-40359797Y13226480D01*
X-40267670Y13077119D01*
X-40143581Y12953030D01*
X-40071815Y12908764D01*
X-40027059Y12881158D01*
X-39994220Y12860903D01*
X-39994217Y12860902D01*
X-39860496Y12816592D01*
X-39803051Y12776820D01*
X-39776228Y12712304D01*
X-39775500Y12698886D01*
X-39775500Y12088676D01*
X-39793382Y12024529D01*
X-39868478Y11900306D01*
X-39919086Y11737896D01*
X-39925500Y11667316D01*
X-39925500Y11004084D01*
X-39919086Y10933504D01*
X-39868478Y10771094D01*
X-39780472Y10625515D01*
X-39780470Y10625513D01*
X-39780469Y10625511D01*
X-39660186Y10505228D01*
X-39656146Y10502063D01*
X-39615514Y10445223D01*
X-39612062Y10375438D01*
X-39644936Y10316775D01*
X-39722968Y10238744D01*
X-39812003Y10094397D01*
X-39865349Y9933408D01*
X-39875500Y9834045D01*
X-39875499Y9237356D01*
X-39865349Y9137992D01*
X-39812003Y8977003D01*
X-39812001Y8977000D01*
X-39811998Y8976994D01*
X-39722970Y8832659D01*
X-39722967Y8832655D01*
X-39603044Y8712732D01*
X-39603040Y8712729D01*
X-39458705Y8623701D01*
X-39458699Y8623698D01*
X-39458697Y8623697D01*
X-39458694Y8623696D01*
X-39297709Y8570351D01*
X-39198352Y8560200D01*
X-39198345Y8560200D01*
X-39074500Y8560200D01*
X-39007461Y8540515D01*
X-38961706Y8487711D01*
X-38950500Y8436200D01*
X-38950500Y455179D01*
X-38970185Y388140D01*
X-39022989Y342385D01*
X-39092147Y332441D01*
X-39155703Y361466D01*
X-39191541Y414224D01*
X-39226181Y513220D01*
X-39226206Y513271D01*
X-39372268Y816571D01*
X-39372270Y816575D01*
X-39551395Y1101650D01*
X-39551396Y1101652D01*
X-39756783Y1359198D01*
X-39761317Y1364884D01*
X-39999391Y1602958D01*
X-40021635Y1620697D01*
X-40262624Y1812880D01*
X-40547705Y1992008D01*
X-40851049Y2138092D01*
X-41168842Y2249294D01*
X-41497087Y2324216D01*
X-41831657Y2361914D01*
X-42000001Y2364275D01*
X-42000015Y2364275D01*
X-42199142Y2364275D01*
X-42200815Y2364286D01*
X-42205692Y2364351D01*
X-42373464Y2366616D01*
X-42385658Y2367384D01*
X-42729542Y2406128D01*
X-42743249Y2408457D01*
X-42743683Y2408556D01*
X-43079819Y2485274D01*
X-43093163Y2489118D01*
X-43419039Y2603145D01*
X-43431862Y2608457D01*
X-43742902Y2758244D01*
X-43755070Y2764969D01*
X-43966446Y2897783D01*
X-44047382Y2948638D01*
X-44058708Y2956673D01*
X-44328624Y3171923D01*
X-44338984Y3181181D01*
X-44583098Y3425293D01*
X-44592364Y3435662D01*
X-44807603Y3705562D01*
X-44815650Y3716903D01*
X-44999319Y4009208D01*
X-45006045Y4021378D01*
X-45155832Y4332411D01*
X-45161153Y4345258D01*
X-45275170Y4671099D01*
X-45279020Y4684462D01*
X-45355838Y5021027D01*
X-45358167Y5034735D01*
X-45396820Y5377779D01*
X-45397600Y5391663D01*
X-45397600Y5443011D01*
X-44050500Y5443011D01*
X-44045530Y5405257D01*
X-44018838Y5202511D01*
X-43956054Y4968200D01*
X-43863224Y4744088D01*
X-43741936Y4534011D01*
X-43741932Y4534006D01*
X-43594266Y4341563D01*
X-43594260Y4341556D01*
X-43422743Y4170039D01*
X-43422736Y4170033D01*
X-43422703Y4170008D01*
X-43230289Y4022364D01*
X-43058661Y3923274D01*
X-43020214Y3901077D01*
X-43020205Y3901073D01*
X-42796104Y3808247D01*
X-42561785Y3745461D01*
X-42321289Y3713800D01*
X-42321288Y3713800D01*
X-42078711Y3713800D01*
X-41838214Y3745461D01*
X-41603895Y3808247D01*
X-41379794Y3901073D01*
X-41379785Y3901077D01*
X-41169706Y4022367D01*
X-40977263Y4170033D01*
X-40977256Y4170039D01*
X-40805739Y4341556D01*
X-40805733Y4341563D01*
X-40658067Y4534006D01*
X-40536777Y4744085D01*
X-40536773Y4744094D01*
X-40443947Y4968195D01*
X-40381161Y5202514D01*
X-40349500Y5443011D01*
X-40349500Y5685588D01*
X-40381161Y5926085D01*
X-40443947Y6160404D01*
X-40536773Y6384505D01*
X-40536777Y6384514D01*
X-40571172Y6444087D01*
X-40658064Y6594589D01*
X-40802822Y6783242D01*
X-40805733Y6787036D01*
X-40805739Y6787043D01*
X-40977256Y6958560D01*
X-40977263Y6958566D01*
X-41169673Y7106207D01*
X-41169711Y7106236D01*
X-41379788Y7227524D01*
X-41603835Y7320327D01*
X-41603895Y7320352D01*
X-41603900Y7320354D01*
X-41838211Y7383138D01*
X-42054101Y7411560D01*
X-42078711Y7414800D01*
X-42078712Y7414800D01*
X-42321288Y7414800D01*
X-42321289Y7414800D01*
X-42345899Y7411560D01*
X-42561789Y7383138D01*
X-42796100Y7320354D01*
X-43020212Y7227524D01*
X-43230289Y7106236D01*
X-43422738Y6958565D01*
X-43594265Y6787038D01*
X-43741936Y6594589D01*
X-43863224Y6384512D01*
X-43956054Y6160400D01*
X-44018838Y5926089D01*
X-44043748Y5736873D01*
X-44050500Y5685588D01*
X-44050500Y5443011D01*
X-45397600Y5443011D01*
X-45397600Y5736886D01*
X-45396820Y5750770D01*
X-45358167Y6093814D01*
X-45355838Y6107522D01*
X-45279020Y6444087D01*
X-45275170Y6457450D01*
X-45161153Y6783291D01*
X-45155832Y6796138D01*
X-45006045Y7107171D01*
X-44999319Y7119341D01*
X-44815650Y7411646D01*
X-44807603Y7422987D01*
X-44592364Y7692887D01*
X-44583098Y7703256D01*
X-44338984Y7947368D01*
X-44328616Y7956633D01*
X-44058720Y8171867D01*
X-44047378Y8179914D01*
X-43755070Y8363580D01*
X-43742900Y8370306D01*
X-43431874Y8520087D01*
X-43419027Y8525409D01*
X-43093172Y8639428D01*
X-43079810Y8643277D01*
X-42743249Y8720092D01*
X-42729540Y8722421D01*
X-42385666Y8761164D01*
X-42373457Y8761933D01*
X-42200816Y8764264D01*
X-42199142Y8764275D01*
X-42000014Y8764275D01*
X-42000001Y8764275D01*
X-41901748Y8766686D01*
X-41901746Y8766686D01*
X-41709017Y8805029D01*
X-41527471Y8880233D01*
X-41364090Y8989404D01*
X-41364082Y8989410D01*
X-41225136Y9128356D01*
X-41225130Y9128364D01*
X-41115959Y9291745D01*
X-41040755Y9473291D01*
X-41002412Y9666020D01*
X-41002412Y9666022D01*
X-41000001Y9764288D01*
X-41000001Y19275693D01*
X-40430300Y19275693D01*
X-40411135Y19044402D01*
X-40411133Y19044391D01*
X-40354157Y18819399D01*
X-40260924Y18606851D01*
X-40133983Y18412552D01*
X-40133980Y18412549D01*
X-40133979Y18412547D01*
X-39976784Y18241787D01*
X-39976780Y18241784D01*
X-39976777Y18241781D01*
X-39793634Y18099235D01*
X-39793628Y18099231D01*
X-39589504Y17988764D01*
X-39589495Y17988761D01*
X-39369984Y17913402D01*
X-39203996Y17885704D01*
X-39141049Y17875200D01*
X-39141048Y17875200D01*
X-38908952Y17875200D01*
X-38908951Y17875200D01*
X-38846004Y17885704D01*
X-38680015Y17913402D01*
X-38460504Y17988761D01*
X-38460495Y17988764D01*
X-38256371Y18099231D01*
X-38256365Y18099235D01*
X-38073222Y18241781D01*
X-38073219Y18241784D01*
X-37916016Y18412552D01*
X-37789075Y18606851D01*
X-37695842Y18819399D01*
X-37638866Y19044391D01*
X-37638864Y19044402D01*
X-37619700Y19275693D01*
X-37619700Y19275706D01*
X-37638864Y19506997D01*
X-37638866Y19507008D01*
X-37695842Y19732000D01*
X-37789075Y19944548D01*
X-37916016Y20138847D01*
X-37916019Y20138851D01*
X-37916021Y20138853D01*
X-38073216Y20309613D01*
X-38073222Y20309618D01*
X-38256365Y20452164D01*
X-38256371Y20452168D01*
X-38256372Y20452168D01*
X-38256374Y20452170D01*
X-38460497Y20562636D01*
X-38574487Y20601768D01*
X-38680015Y20637997D01*
X-38680017Y20637997D01*
X-38680019Y20637998D01*
X-38908951Y20676200D01*
X-39141049Y20676200D01*
X-39369981Y20637998D01*
X-39589503Y20562636D01*
X-39793626Y20452170D01*
X-39976784Y20309613D01*
X-40133979Y20138853D01*
X-40260924Y19944549D01*
X-40260924Y19944548D01*
X-40354157Y19732000D01*
X-40411133Y19507008D01*
X-40411135Y19506997D01*
X-40430300Y19275706D01*
X-40430300Y19275693D01*
X-41000001Y19275693D01*
X-41000001Y20062839D01*
X-40999969Y20065671D01*
X-40998002Y20151766D01*
X-40995652Y20173121D01*
X-40961801Y20343331D01*
X-40954745Y20366594D01*
X-40888884Y20525607D01*
X-40877425Y20547047D01*
X-40781803Y20690159D01*
X-40766382Y20708950D01*
X-40644676Y20830657D01*
X-40625883Y20846079D01*
X-40482776Y20941697D01*
X-40461337Y20953156D01*
X-40302320Y21019019D01*
X-40279057Y21026075D01*
X-40108848Y21059926D01*
X-40087493Y21062276D01*
X-40001399Y21064243D01*
X-39998567Y21064275D01*
X-38171865Y21064275D01*
X-38168857Y21064238D01*
G37*
%TD.AperFunction*%
%TD*%
M02*
