M48
; DRILL file {KiCad 8.0.1} date 2024-09-21T22:08:13+0900
; FORMAT={-:-/ absolute / inch / decimal}
; #@! TF.CreationDate,2024-09-21T22:08:13+09:00
; #@! TF.GenerationSoftware,Kicad,Pcbnew,8.0.1
; #@! TF.FileFunction,Plated,1,2,PTH
FMAT,2
INCH
; #@! TA.AperFunction,Plated,PTH,ViaDrill
T1C0.0157
; #@! TA.AperFunction,Plated,PTH,ComponentDrill
T2C0.0354
; #@! TA.AperFunction,Plated,PTH,ComponentDrill
T3C0.0394
; #@! TA.AperFunction,Plated,PTH,ComponentDrill
T4C0.0472
%
G90
G05
T1
X-0.2923Y-1.1049
X-0.2441Y-1.104
X-0.189Y-1.1732
X-0.1535Y-0.6581
X-0.1535Y-0.7054
X-0.1535Y-0.7526
X-0.1535Y-0.7999
X-0.1238Y-1.3294
X-0.1063Y-0.6581
X-0.1063Y-0.7054
X-0.1063Y-0.7526
X-0.1063Y-0.7999
X-0.0591Y-0.6581
X-0.0591Y-0.7054
X-0.0591Y-0.7526
X-0.0591Y-0.7999
X-0.0118Y-0.6581
X-0.0118Y-0.7054
X-0.0118Y-0.7526
X-0.0118Y-0.7999
X0.0002Y-1.2402
X0.0888Y-1.4272
X0.1024Y-1.2397
X0.1417Y-1.2388
X0.2205Y-1.1733
X0.2598Y-1.1496
X1.4715Y0.3282
T2
X-1.5364Y0.7589
X-1.5364Y0.6589
X-1.5364Y0.5589
X1.5364Y0.7589
X1.5364Y0.6589
X1.5364Y0.5589
T3
X-0.4724Y-0.975
X-0.374Y-0.975
X-0.2Y-1.5408
X-0.1Y-1.5408
X0.0Y-1.5408
X0.1Y-1.5408
X0.2Y-1.5408
X0.374Y-0.975
X0.4724Y-0.975
T4
X-1.3775Y-0.1353
X-1.0822Y-0.1353
X1.0822Y-0.1353
X1.3775Y-0.1353
M30
