M48
; DRILL file {KiCad 7.0.6} date Sun Sep  3 00:14:34 2023
; FORMAT={-:-/ absolute / inch / decimal}
; #@! TF.CreationDate,2023-09-03T00:14:34+09:00
; #@! TF.GenerationSoftware,Kicad,Pcbnew,7.0.6
; #@! TF.FileFunction,Plated,1,2,PTH
FMAT,2
INCH
; #@! TA.AperFunction,Plated,PTH,ViaDrill
T1C0.0157
; #@! TA.AperFunction,Plated,PTH,ComponentDrill
T2C0.0315
; #@! TA.AperFunction,Plated,PTH,ComponentDrill
T3C0.0374
; #@! TA.AperFunction,Plated,PTH,ComponentDrill
T4C0.0394
; #@! TA.AperFunction,Plated,PTH,ComponentDrill
T5C0.0472
%
G90
G05
T1
X3.4055Y-3.7992
X3.4055Y-3.8583
X3.4055Y-3.9173
X3.4055Y-3.9764
X3.4055Y-4.0354
X3.4055Y-4.0945
X3.4055Y-4.1535
X3.4646Y-3.7992
X3.4646Y-3.8583
X3.4646Y-3.9173
X3.4646Y-3.9764
X3.4646Y-4.0354
X3.4646Y-4.0945
X3.4646Y-4.1535
X3.5039Y-4.7835
X3.5039Y-4.8425
X3.5039Y-4.9016
X3.5236Y-3.7992
X3.5236Y-3.8583
X3.5236Y-3.9173
X3.5236Y-3.9764
X3.5236Y-4.0354
X3.5236Y-4.0945
X3.5236Y-4.1535
X3.563Y-4.7835
X3.563Y-4.8425
X3.563Y-4.9016
X3.5827Y-3.7992
X3.5827Y-3.8583
X3.5827Y-3.9173
X3.5827Y-3.9764
X3.5827Y-4.0354
X3.5827Y-4.0945
X3.5827Y-4.1535
X3.6417Y-3.7992
X3.6417Y-3.8583
X3.6417Y-3.9173
X3.6417Y-3.9764
X3.6417Y-4.0354
X3.6417Y-4.0945
X3.6417Y-4.1535
X3.7008Y-3.7992
X3.7008Y-3.8583
X3.7008Y-3.9173
X3.7008Y-3.9764
X3.7008Y-4.0354
X3.7008Y-4.0945
X3.7008Y-4.1535
X3.7205Y-4.7835
X3.7205Y-4.8425
X3.7205Y-4.9016
X3.7598Y-3.7992
X3.7598Y-3.8583
X3.7598Y-3.9173
X3.7598Y-3.9764
X3.7598Y-4.0354
X3.7598Y-4.0945
X3.7598Y-4.1535
X3.7795Y-4.7835
X3.7795Y-4.8425
X3.7795Y-4.9016
X3.8189Y-3.7992
X3.8386Y-4.7835
X3.8386Y-4.8425
X3.8386Y-4.9016
X3.878Y-3.7992
X3.8976Y-4.7835
X3.8976Y-4.8425
X3.8976Y-4.9016
X3.937Y-3.7992
X3.937Y-4.3307
X3.9567Y-4.7835
X3.9567Y-4.8425
X3.9567Y-4.9016
X3.9961Y-3.7992
X4.0157Y-4.7835
X4.0157Y-4.8425
X4.0157Y-4.9016
X4.0551Y-3.7992
X4.0748Y-4.7835
X4.0748Y-4.8425
X4.0748Y-4.9016
X4.1142Y-3.7992
X4.1142Y-3.8583
X4.1142Y-3.9173
X4.1142Y-3.9764
X4.1142Y-4.0354
X4.1142Y-4.0945
X4.1142Y-4.1535
X4.1339Y-4.7835
X4.1339Y-4.8425
X4.1339Y-4.9016
X4.1732Y-3.7992
X4.1732Y-3.8583
X4.1732Y-3.9173
X4.1732Y-3.9764
X4.1732Y-4.0354
X4.1732Y-4.0945
X4.1732Y-4.1535
X4.2323Y-3.7992
X4.2323Y-3.8583
X4.2323Y-3.9173
X4.2323Y-3.9764
X4.2323Y-4.0354
X4.2323Y-4.0945
X4.2323Y-4.1535
X4.2913Y-3.7992
X4.2913Y-3.8583
X4.2913Y-3.9173
X4.2913Y-3.9764
X4.2913Y-4.0354
X4.2913Y-4.0945
X4.2913Y-4.1535
X4.311Y-4.7835
X4.311Y-4.8425
X4.311Y-4.9016
X4.3504Y-3.7992
X4.3504Y-3.8583
X4.3504Y-3.9173
X4.3504Y-3.9764
X4.3504Y-4.0354
X4.3504Y-4.0945
X4.3504Y-4.1535
X4.3701Y-4.7835
X4.3701Y-4.8425
X4.3701Y-4.9016
X4.4094Y-3.7992
X4.4094Y-3.8583
X4.4094Y-3.9173
X4.4094Y-3.9764
X4.4094Y-4.0354
X4.4094Y-4.0945
X4.4291Y-4.7835
X4.4291Y-4.8425
X4.4291Y-4.9016
X4.4685Y-3.7992
X4.4685Y-3.8583
X4.4685Y-3.9173
X4.4685Y-3.9764
X4.4685Y-4.0354
X4.4882Y-4.7244
X4.4882Y-4.7835
X4.4882Y-4.8425
X4.4882Y-4.9016
X4.5276Y-3.7992
X4.5276Y-3.8583
X4.5276Y-3.9173
X4.5276Y-3.9764
X4.5472Y-4.7244
X4.5472Y-4.7835
X4.5472Y-4.8425
X4.5472Y-4.9016
X4.5866Y-3.7992
X4.5866Y-3.8583
X4.5866Y-3.9173
X4.6063Y-4.7244
X4.6063Y-4.7835
X4.6063Y-4.8425
X4.6063Y-4.9016
X4.6654Y-4.7244
X4.6654Y-4.7835
X4.6654Y-4.8425
X4.6654Y-4.9016
X4.7244Y-4.7244
X4.7244Y-4.7835
X4.7244Y-4.8425
X4.7244Y-4.9016
X4.7835Y-4.7244
X4.7835Y-4.7835
X4.7835Y-4.8425
X4.7835Y-4.9016
X4.8425Y-4.9016
X4.9016Y-4.9016
X4.9606Y-4.9016
X5.0197Y-4.6654
X5.0197Y-4.9016
X5.0787Y-4.6654
X5.0787Y-4.9016
X5.1378Y-4.6654
X5.1378Y-4.7244
X5.1378Y-4.7835
X5.1378Y-4.8425
X5.1378Y-4.9016
X5.1969Y-4.7244
X5.1969Y-4.7835
X5.1969Y-4.8425
X5.1969Y-4.9016
X5.2559Y-4.7835
X5.2559Y-4.8425
X5.2559Y-4.9016
T2
X3.2175Y-4.5937
X3.2175Y-4.8937
X3.3175Y-4.5937
X3.3175Y-4.8937
T3
X2.8346Y-4.7894
X2.9331Y-4.7894
X3.0315Y-4.7894
T4
X4.9508Y-4.7894
X5.0492Y-4.7894
T5
X3.1595Y-3.6192
X3.1595Y-4.2942
X3.6417Y-4.6457
X3.6417Y-4.8425
X4.2323Y-4.6457
X4.2323Y-4.8425
X4.7145Y-3.6192
X4.7145Y-4.2942
T0
M30
