M48
; DRILL file {KiCad 7.0.6} date Sat Dec 16 12:44:14 2023
; FORMAT={-:-/ absolute / inch / decimal}
; #@! TF.CreationDate,2023-12-16T12:44:14+09:00
; #@! TF.GenerationSoftware,Kicad,Pcbnew,7.0.6
; #@! TF.FileFunction,Plated,1,4,PTH
FMAT,2
INCH
; #@! TA.AperFunction,Plated,PTH,ViaDrill
T1C0.0157
; #@! TA.AperFunction,Plated,PTH,ComponentDrill
T2C0.0354
; #@! TA.AperFunction,Plated,PTH,ComponentDrill
T3C0.0394
%
G90
G05
T1
X2.1752Y-3.8287
X2.1752Y-4.0157
X2.2047Y-3.937
X2.2555Y-3.1988
X2.2736Y-3.3169
X2.2736Y-4.5276
X2.3228Y-3.2283
X2.3228Y-4.6063
X2.3425Y-4.6949
X2.628Y-5.128
X2.6476Y-2.687
X2.6575Y-2.5984
X2.7165Y-2.6378
X2.7559Y-5.1575
X2.7756Y-5.2559
X3.1988Y-2.2933
X3.1988Y-5.5512
X3.225Y-2.525
X3.225Y-2.5644
X3.225Y-2.6037
X3.225Y-2.6431
X3.225Y-2.6824
X3.225Y-2.7218
X3.2874Y-2.2638
X3.3661Y-5.6201
X3.625Y-2.7305
X3.625Y-2.8181
X3.625Y-3.0305
X3.725Y-2.5181
X3.725Y-2.7305
X3.725Y-2.8181
X3.725Y-3.0305
X3.825Y-2.5181
X3.825Y-2.7305
X3.825Y-2.8181
X3.825Y-3.0305
X3.878Y-5.7283
X3.925Y-2.5181
X3.925Y-2.7305
X3.925Y-2.8181
X3.925Y-3.0305
X3.9764Y-2.0571
X3.9764Y-2.1161
X4.025Y-2.5181
X4.025Y-2.7305
X4.025Y-2.8181
X4.025Y-3.0305
X4.0748Y-5.7185
X4.125Y-2.5181
X4.125Y-2.7305
X4.125Y-2.8181
X4.125Y-3.0305
X4.225Y-2.5181
X4.225Y-2.7305
X4.225Y-2.8181
X4.225Y-3.0305
X4.325Y-2.5181
X4.325Y-2.7305
X4.325Y-2.8181
X4.325Y-3.0305
X4.5272Y-2.6177
X4.5665Y-2.5783
X4.5768Y-5.6201
X4.7146Y-5.5906
X4.7539Y-2.2933
X4.7638Y-2.5689
X4.7638Y-2.6083
X4.7638Y-2.6487
X4.7638Y-2.688
X5.1772Y-5.2756
X5.1969Y-2.5886
X5.315Y-5.128
X5.3248Y-2.7165
X5.6218Y-3.0298
X5.689Y-4.6555
X5.748Y-4.4685
X5.7579Y-3.376
X5.7776Y-3.8287
X5.7776Y-4.0157
T2
X2.3431Y-3.8246
X2.3431Y-3.9246
X2.3431Y-4.0246
X2.4291Y-3.3925
X2.4291Y-4.4568
X2.4673Y-3.3001
X2.4673Y-4.5491
X2.5056Y-3.2078
X2.5056Y-4.6415
X2.7504Y-2.8414
X2.7504Y-5.0079
X2.8211Y-2.7707
X2.8211Y-5.0786
X2.8918Y-2.7
X2.8918Y-5.1493
X3.2581Y-2.4552
X3.2581Y-5.394
X3.3505Y-2.417
X3.3505Y-5.4323
X3.4429Y-2.3787
X3.4429Y-5.4706
X3.875Y-2.2928
X3.875Y-5.5565
X3.975Y-2.2928
X3.975Y-5.5565
X4.075Y-2.2928
X4.075Y-5.5565
X4.5071Y-2.3787
X4.5071Y-5.4706
X4.5995Y-2.417
X4.5995Y-5.4323
X4.6919Y-2.4552
X4.6919Y-5.394
X5.0582Y-2.7
X5.0582Y-5.1493
X5.1289Y-2.7707
X5.1289Y-5.0786
X5.1996Y-2.8414
X5.1996Y-5.0079
X5.4444Y-3.2078
X5.4444Y-4.6415
X5.4827Y-3.3001
X5.4827Y-4.5491
X5.5209Y-3.3925
X5.5209Y-4.4568
X5.6069Y-3.8246
X5.6069Y-3.9246
X5.6069Y-4.0246
T3
X3.525Y-3.175
X3.525Y-3.275
X3.625Y-3.175
X3.625Y-3.275
X3.725Y-3.175
X3.725Y-3.275
X3.825Y-3.175
X3.825Y-3.275
X3.925Y-3.175
X3.925Y-3.275
X4.025Y-3.175
X4.025Y-3.275
X4.125Y-3.175
X4.125Y-3.275
X4.225Y-3.175
X4.225Y-3.275
X4.325Y-3.175
X4.325Y-3.275
X4.425Y-3.175
X4.425Y-3.275
T0
M30
