%TF.GenerationSoftware,KiCad,Pcbnew,7.0.6*%
%TF.CreationDate,2023-12-16T12:44:13+09:00*%
%TF.ProjectId,BallSensor_TSSP58038_20230330,42616c6c-5365-46e7-936f-725f54535350,rev?*%
%TF.SameCoordinates,Original*%
%TF.FileFunction,Soldermask,Top*%
%TF.FilePolarity,Negative*%
%FSLAX46Y46*%
G04 Gerber Fmt 4.6, Leading zero omitted, Abs format (unit mm)*
G04 Created by KiCad (PCBNEW 7.0.6) date 2023-12-16 12:44:13*
%MOMM*%
%LPD*%
G01*
G04 APERTURE LIST*
G04 Aperture macros list*
%AMRoundRect*
0 Rectangle with rounded corners*
0 $1 Rounding radius*
0 $2 $3 $4 $5 $6 $7 $8 $9 X,Y pos of 4 corners*
0 Add a 4 corners polygon primitive as box body*
4,1,4,$2,$3,$4,$5,$6,$7,$8,$9,$2,$3,0*
0 Add four circle primitives for the rounded corners*
1,1,$1+$1,$2,$3*
1,1,$1+$1,$4,$5*
1,1,$1+$1,$6,$7*
1,1,$1+$1,$8,$9*
0 Add four rect primitives between the rounded corners*
20,1,$1+$1,$2,$3,$4,$5,0*
20,1,$1+$1,$4,$5,$6,$7,0*
20,1,$1+$1,$6,$7,$8,$9,0*
20,1,$1+$1,$8,$9,$2,$3,0*%
G04 Aperture macros list end*
%ADD10RoundRect,0.225000X0.212132X0.530330X-0.530330X-0.212132X-0.212132X-0.530330X0.530330X0.212132X0*%
%ADD11RoundRect,0.225000X0.250000X-0.225000X0.250000X0.225000X-0.250000X0.225000X-0.250000X-0.225000X0*%
%ADD12RoundRect,0.225000X-0.571141X-0.006964X0.398933X-0.408782X0.571141X0.006964X-0.398933X0.408782X0*%
%ADD13C,3.200000*%
%ADD14RoundRect,0.225000X0.408782X-0.398933X0.006964X0.571141X-0.408782X0.398933X-0.006964X-0.571141X0*%
%ADD15RoundRect,0.200000X-0.200000X-0.275000X0.200000X-0.275000X0.200000X0.275000X-0.200000X0.275000X0*%
%ADD16RoundRect,0.225000X0.225000X0.250000X-0.225000X0.250000X-0.225000X-0.250000X0.225000X-0.250000X0*%
%ADD17RoundRect,0.225000X0.398933X0.408782X-0.571141X0.006964X-0.398933X-0.408782X0.571141X-0.006964X0*%
%ADD18RoundRect,0.225000X-0.530330X0.212132X0.212132X-0.530330X0.530330X-0.212132X-0.212132X0.530330X0*%
%ADD19RoundRect,0.250000X0.475000X-0.250000X0.475000X0.250000X-0.475000X0.250000X-0.475000X-0.250000X0*%
%ADD20RoundRect,0.225000X-0.225000X0.525000X-0.225000X-0.525000X0.225000X-0.525000X0.225000X0.525000X0*%
%ADD21RoundRect,0.225000X-0.250000X0.225000X-0.250000X-0.225000X0.250000X-0.225000X0.250000X0.225000X0*%
%ADD22RoundRect,0.225000X-0.212132X-0.530330X0.530330X0.212132X0.212132X0.530330X-0.530330X-0.212132X0*%
%ADD23RoundRect,0.225000X-0.335876X-0.017678X-0.017678X-0.335876X0.335876X0.017678X0.017678X0.335876X0*%
%ADD24RoundRect,0.225000X0.225000X-0.525000X0.225000X0.525000X-0.225000X0.525000X-0.225000X-0.525000X0*%
%ADD25RoundRect,0.225000X-0.398933X-0.408782X0.571141X-0.006964X0.398933X0.408782X-0.571141X0.006964X0*%
%ADD26RoundRect,0.225000X0.335876X0.017678X0.017678X0.335876X-0.335876X-0.017678X-0.017678X-0.335876X0*%
%ADD27RoundRect,0.218750X-0.218750X-0.256250X0.218750X-0.256250X0.218750X0.256250X-0.218750X0.256250X0*%
%ADD28RoundRect,0.225000X-0.006964X0.571141X-0.408782X-0.398933X0.006964X-0.571141X0.408782X0.398933X0*%
%ADD29RoundRect,0.225000X-0.525000X-0.225000X0.525000X-0.225000X0.525000X0.225000X-0.525000X0.225000X0*%
%ADD30RoundRect,0.225000X-0.225000X-0.250000X0.225000X-0.250000X0.225000X0.250000X-0.225000X0.250000X0*%
%ADD31RoundRect,0.225000X0.006964X-0.571141X0.408782X0.398933X-0.006964X0.571141X-0.408782X-0.398933X0*%
%ADD32RoundRect,0.225000X0.525000X0.225000X-0.525000X0.225000X-0.525000X-0.225000X0.525000X-0.225000X0*%
%ADD33RoundRect,0.225000X0.571141X0.006964X-0.398933X0.408782X-0.571141X-0.006964X0.398933X-0.408782X0*%
%ADD34RoundRect,0.225000X-0.408782X0.398933X-0.006964X-0.571141X0.408782X-0.398933X0.006964X0.571141X0*%
%ADD35RoundRect,0.225000X-0.017678X0.335876X-0.335876X0.017678X0.017678X-0.335876X0.335876X-0.017678X0*%
%ADD36RoundRect,0.225000X0.017678X-0.335876X0.335876X-0.017678X-0.017678X0.335876X-0.335876X0.017678X0*%
%ADD37RoundRect,0.225000X0.530330X-0.212132X-0.212132X0.530330X-0.530330X0.212132X0.212132X-0.530330X0*%
%ADD38RoundRect,0.250200X0.849005X0.351669X-0.351669X0.849005X-0.849005X-0.351669X0.351669X-0.849005X0*%
%ADD39C,1.800000*%
%ADD40RoundRect,0.250200X-0.849005X-0.351669X0.351669X-0.849005X0.849005X0.351669X-0.351669X0.849005X0*%
%ADD41RoundRect,0.250200X-0.918956X0.000000X0.000000X-0.918956X0.918956X0.000000X0.000000X0.918956X0*%
%ADD42RoundRect,0.250000X0.600000X-0.600000X0.600000X0.600000X-0.600000X0.600000X-0.600000X-0.600000X0*%
%ADD43C,1.700000*%
%ADD44RoundRect,0.250200X-0.649800X-0.649800X0.649800X-0.649800X0.649800X0.649800X-0.649800X0.649800X0*%
%ADD45RoundRect,0.250200X-0.351669X0.849005X-0.849005X-0.351669X0.351669X-0.849005X0.849005X0.351669X0*%
%ADD46RoundRect,0.250200X0.918956X0.000000X0.000000X0.918956X-0.918956X0.000000X0.000000X-0.918956X0*%
%ADD47RoundRect,0.250200X0.649800X-0.649800X0.649800X0.649800X-0.649800X0.649800X-0.649800X-0.649800X0*%
%ADD48RoundRect,0.250200X0.351669X0.849005X-0.849005X0.351669X-0.351669X-0.849005X0.849005X-0.351669X0*%
%ADD49RoundRect,0.250200X0.000000X-0.918956X0.918956X0.000000X0.000000X0.918956X-0.918956X0.000000X0*%
%ADD50RoundRect,0.250200X-0.649800X0.649800X-0.649800X-0.649800X0.649800X-0.649800X0.649800X0.649800X0*%
%ADD51RoundRect,0.250200X0.351669X-0.849005X0.849005X0.351669X-0.351669X0.849005X-0.849005X-0.351669X0*%
%ADD52RoundRect,0.250200X-0.351669X-0.849005X0.849005X-0.351669X0.351669X0.849005X-0.849005X0.351669X0*%
%ADD53RoundRect,0.250200X-0.849005X0.351669X-0.351669X-0.849005X0.849005X-0.351669X0.351669X0.849005X0*%
%ADD54RoundRect,0.250200X0.849005X-0.351669X0.351669X0.849005X-0.849005X0.351669X-0.351669X-0.849005X0*%
%ADD55RoundRect,0.250200X0.000000X0.918956X-0.918956X0.000000X0.000000X-0.918956X0.918956X0.000000X0*%
%ADD56RoundRect,0.250200X0.649800X0.649800X-0.649800X0.649800X-0.649800X-0.649800X0.649800X-0.649800X0*%
G04 APERTURE END LIST*
D10*
%TO.C,D12*%
X136249628Y-131505805D03*
X133916175Y-129172352D03*
X130451352Y-132637175D03*
X132784805Y-134970628D03*
%TD*%
D11*
%TO.C,C18*%
X105965000Y-53111000D03*
X105965000Y-54661000D03*
%TD*%
D12*
%TO.C,D17*%
X116859824Y-54910341D03*
X115596968Y-57959144D03*
X120123978Y-59834293D03*
X121386834Y-56785490D03*
%TD*%
D13*
%TO.C,REF\u002A\u002A*%
X84465000Y-71107200D03*
%TD*%
D14*
%TO.C,D7*%
X58064490Y-120107834D03*
X61113293Y-118844978D03*
X59238144Y-114317968D03*
X56189341Y-115580824D03*
%TD*%
D15*
%TO.C,R1*%
X86390000Y-75705000D03*
X88040000Y-75705000D03*
%TD*%
D16*
%TO.C,C20*%
X55940000Y-94686000D03*
X54390000Y-94686000D03*
%TD*%
D17*
%TO.C,D11*%
X121386834Y-142586509D03*
X120123978Y-139537706D03*
X115596968Y-141412855D03*
X116859824Y-144461658D03*
%TD*%
D13*
%TO.C,REF\u002A\u002A*%
X135134565Y-96441978D03*
%TD*%
D18*
%TO.C,D16*%
X132784805Y-64401371D03*
X130451352Y-66734824D03*
X133916175Y-70199647D03*
X136249628Y-67866194D03*
%TD*%
D19*
%TO.C,BYPS*%
X86995000Y-82865000D03*
X86995000Y-80965000D03*
%TD*%
D20*
%TO.C,D14*%
X148415000Y-97236000D03*
X145115000Y-97236000D03*
X145115000Y-102136000D03*
X148415000Y-102136000D03*
%TD*%
D21*
%TO.C,C22*%
X95965000Y-144711000D03*
X95965000Y-146261000D03*
%TD*%
D22*
%TO.C,D4*%
X65680371Y-67866194D03*
X68013824Y-70199647D03*
X71478647Y-66734824D03*
X69145194Y-64401371D03*
%TD*%
D23*
%TO.C,C23*%
X129266948Y-135059016D03*
X130362964Y-136155032D03*
%TD*%
D24*
%TO.C,D6*%
X53515000Y-102136000D03*
X56815000Y-102136000D03*
X56815000Y-97236000D03*
X53515000Y-97236000D03*
%TD*%
D25*
%TO.C,D3*%
X80543165Y-56785490D03*
X81806021Y-59834293D03*
X86333031Y-57959144D03*
X85070175Y-54910341D03*
%TD*%
D13*
%TO.C,REF\u002A\u002A*%
X117465000Y-128264838D03*
%TD*%
D26*
%TO.C,C19*%
X72663051Y-64312983D03*
X71567035Y-63216967D03*
%TD*%
D27*
%TO.C,PWR*%
X86427500Y-77686000D03*
X88002500Y-77686000D03*
%TD*%
D28*
%TO.C,D13*%
X145740658Y-115580824D03*
X142691855Y-114317968D03*
X140816706Y-118844978D03*
X143865509Y-120107834D03*
%TD*%
D29*
%TO.C,D2*%
X98515000Y-52236000D03*
X98515000Y-55536000D03*
X103415000Y-55536000D03*
X103415000Y-52236000D03*
%TD*%
D13*
%TO.C,REF\u002A\u002A*%
X84465000Y-128264840D03*
%TD*%
%TO.C,REF\u002A\u002A*%
X135134600Y-102930000D03*
%TD*%
D30*
%TO.C,C24*%
X145990000Y-104686000D03*
X147540000Y-104686000D03*
%TD*%
D31*
%TO.C,D5*%
X56189341Y-83791175D03*
X59238144Y-85054031D03*
X61113293Y-80527021D03*
X58064490Y-79264165D03*
%TD*%
D32*
%TO.C,D10*%
X103415000Y-147136000D03*
X103415000Y-143836000D03*
X98515000Y-143836000D03*
X98515000Y-147136000D03*
%TD*%
D33*
%TO.C,D9*%
X85070175Y-144461658D03*
X86333031Y-141412855D03*
X81806021Y-139537706D03*
X80543165Y-142586509D03*
%TD*%
D34*
%TO.C,D15*%
X143865509Y-79264165D03*
X140816706Y-80527021D03*
X142691855Y-85054031D03*
X145740658Y-83791175D03*
%TD*%
D35*
%TO.C,C21*%
X65591983Y-127987948D03*
X64495967Y-129083964D03*
%TD*%
D13*
%TO.C,REF\u002A\u002A*%
X117465000Y-71107162D03*
%TD*%
D36*
%TO.C,C25*%
X136338016Y-71384051D03*
X137434032Y-70288035D03*
%TD*%
D37*
%TO.C,D8*%
X69145194Y-134970628D03*
X71478647Y-132637175D03*
X68013824Y-129172352D03*
X65680371Y-131505805D03*
%TD*%
D38*
%TO.C,U8*%
X87449425Y-138952822D03*
D39*
X85102771Y-137980806D03*
X82756117Y-137008790D03*
%TD*%
D40*
%TO.C,U16*%
X114480574Y-60419177D03*
D39*
X116827228Y-61391193D03*
X119173882Y-62363209D03*
%TD*%
D41*
%TO.C,U15*%
X128478525Y-68580372D03*
D39*
X130274576Y-70376423D03*
X132070627Y-72172474D03*
%TD*%
D42*
%TO.C,J1*%
X112395000Y-83185000D03*
D43*
X112395000Y-80645000D03*
X109855000Y-83185000D03*
X109855000Y-80645000D03*
X107315000Y-83185000D03*
X107315000Y-80645000D03*
X104775000Y-83185000D03*
X104775000Y-80645000D03*
X102235000Y-83185000D03*
X102235000Y-80645000D03*
X99695000Y-83185000D03*
X99695000Y-80645000D03*
X97155000Y-83185000D03*
X97155000Y-80645000D03*
X94615000Y-83185000D03*
X94615000Y-80645000D03*
X92075000Y-83185000D03*
X92075000Y-80645000D03*
X89535000Y-83185000D03*
X89535000Y-80645000D03*
%TD*%
D44*
%TO.C,U1*%
X98425000Y-58236000D03*
D39*
X100965000Y-58236000D03*
X103505000Y-58236000D03*
%TD*%
D45*
%TO.C,U12*%
X140231822Y-113201574D03*
D39*
X139259806Y-115548228D03*
X138287790Y-117894882D03*
%TD*%
D46*
%TO.C,U7*%
X73451474Y-130791627D03*
D39*
X71655423Y-128995576D03*
X69859372Y-127199525D03*
%TD*%
D47*
%TO.C,U5*%
X59515000Y-102226000D03*
D39*
X59515000Y-99686000D03*
X59515000Y-97146000D03*
%TD*%
D48*
%TO.C,U10*%
X119173882Y-137008790D03*
D39*
X116827228Y-137980806D03*
X114480574Y-138952822D03*
%TD*%
D49*
%TO.C,U3*%
X69859372Y-72172474D03*
D39*
X71655423Y-70376423D03*
X73451474Y-68580372D03*
%TD*%
D50*
%TO.C,U13*%
X142415000Y-97146000D03*
D39*
X142415000Y-99686000D03*
X142415000Y-102226000D03*
%TD*%
D51*
%TO.C,U4*%
X61698177Y-86170425D03*
D39*
X62670193Y-83823771D03*
X63642209Y-81477117D03*
%TD*%
D52*
%TO.C,U2*%
X82756117Y-62363209D03*
D39*
X85102771Y-61391193D03*
X87449425Y-60419177D03*
%TD*%
D53*
%TO.C,U14*%
X138287790Y-81477117D03*
D39*
X139259806Y-83823771D03*
X140231822Y-86170425D03*
%TD*%
D54*
%TO.C,U6*%
X63642209Y-117894882D03*
D39*
X62670193Y-115548228D03*
X61698177Y-113201574D03*
%TD*%
D55*
%TO.C,U11*%
X132070627Y-127199525D03*
D39*
X130274576Y-128995576D03*
X128478525Y-130791627D03*
%TD*%
D56*
%TO.C,U9*%
X103505000Y-141136000D03*
D39*
X100965000Y-141136000D03*
X98425000Y-141136000D03*
%TD*%
M02*
