%TF.GenerationSoftware,KiCad,Pcbnew,7.0.6*%
%TF.CreationDate,2023-12-16T12:44:14+09:00*%
%TF.ProjectId,BallSensor_TSSP58038_20230330,42616c6c-5365-46e7-936f-725f54535350,rev?*%
%TF.SameCoordinates,Original*%
%TF.FileFunction,Legend,Bot*%
%TF.FilePolarity,Positive*%
%FSLAX46Y46*%
G04 Gerber Fmt 4.6, Leading zero omitted, Abs format (unit mm)*
G04 Created by KiCad (PCBNEW 7.0.6) date 2023-12-16 12:44:14*
%MOMM*%
%LPD*%
G01*
G04 APERTURE LIST*
G04 Aperture macros list*
%AMRoundRect*
0 Rectangle with rounded corners*
0 $1 Rounding radius*
0 $2 $3 $4 $5 $6 $7 $8 $9 X,Y pos of 4 corners*
0 Add a 4 corners polygon primitive as box body*
4,1,4,$2,$3,$4,$5,$6,$7,$8,$9,$2,$3,0*
0 Add four circle primitives for the rounded corners*
1,1,$1+$1,$2,$3*
1,1,$1+$1,$4,$5*
1,1,$1+$1,$6,$7*
1,1,$1+$1,$8,$9*
0 Add four rect primitives between the rounded corners*
20,1,$1+$1,$2,$3,$4,$5,0*
20,1,$1+$1,$4,$5,$6,$7,0*
20,1,$1+$1,$6,$7,$8,$9,0*
20,1,$1+$1,$8,$9,$2,$3,0*%
G04 Aperture macros list end*
%ADD10C,0.150000*%
%ADD11C,0.120000*%
%ADD12C,3.200000*%
%ADD13RoundRect,0.200000X-0.275000X0.200000X-0.275000X-0.200000X0.275000X-0.200000X0.275000X0.200000X0*%
%ADD14RoundRect,0.250200X0.849005X0.351669X-0.351669X0.849005X-0.849005X-0.351669X0.351669X-0.849005X0*%
%ADD15C,1.800000*%
%ADD16RoundRect,0.225000X-0.250000X0.225000X-0.250000X-0.225000X0.250000X-0.225000X0.250000X0.225000X0*%
%ADD17RoundRect,0.250200X-0.849005X-0.351669X0.351669X-0.849005X0.849005X0.351669X-0.351669X0.849005X0*%
%ADD18RoundRect,0.250200X-0.918956X0.000000X0.000000X-0.918956X0.918956X0.000000X0.000000X0.918956X0*%
%ADD19RoundRect,0.250000X0.600000X-0.600000X0.600000X0.600000X-0.600000X0.600000X-0.600000X-0.600000X0*%
%ADD20C,1.700000*%
%ADD21RoundRect,0.250200X-0.649800X-0.649800X0.649800X-0.649800X0.649800X0.649800X-0.649800X0.649800X0*%
%ADD22RoundRect,0.250200X-0.351669X0.849005X-0.849005X-0.351669X0.351669X-0.849005X0.849005X0.351669X0*%
%ADD23RoundRect,0.250200X0.918956X0.000000X0.000000X0.918956X-0.918956X0.000000X0.000000X-0.918956X0*%
%ADD24RoundRect,0.250200X0.649800X-0.649800X0.649800X0.649800X-0.649800X0.649800X-0.649800X-0.649800X0*%
%ADD25RoundRect,0.250200X0.351669X0.849005X-0.849005X0.351669X-0.351669X-0.849005X0.849005X-0.351669X0*%
%ADD26RoundRect,0.250200X0.000000X-0.918956X0.918956X0.000000X0.000000X0.918956X-0.918956X0.000000X0*%
%ADD27RoundRect,0.250200X-0.649800X0.649800X-0.649800X-0.649800X0.649800X-0.649800X0.649800X0.649800X0*%
%ADD28RoundRect,0.250200X0.351669X-0.849005X0.849005X0.351669X-0.351669X0.849005X-0.849005X-0.351669X0*%
%ADD29RoundRect,0.250200X-0.351669X-0.849005X0.849005X-0.351669X0.351669X0.849005X-0.849005X0.351669X0*%
%ADD30RoundRect,0.250200X-0.849005X0.351669X-0.351669X-0.849005X0.849005X-0.351669X0.351669X0.849005X0*%
%ADD31RoundRect,0.250200X0.849005X-0.351669X0.351669X0.849005X-0.849005X0.351669X-0.351669X-0.849005X0*%
%ADD32RoundRect,0.250200X0.000000X0.918956X-0.918956X0.000000X0.000000X-0.918956X0.918956X0.000000X0*%
%ADD33RoundRect,0.250200X0.649800X0.649800X-0.649800X0.649800X-0.649800X-0.649800X0.649800X-0.649800X0*%
G04 APERTURE END LIST*
D10*
X108879819Y-63968333D02*
X108403628Y-63635000D01*
X108879819Y-63396905D02*
X107879819Y-63396905D01*
X107879819Y-63396905D02*
X107879819Y-63777857D01*
X107879819Y-63777857D02*
X107927438Y-63873095D01*
X107927438Y-63873095D02*
X107975057Y-63920714D01*
X107975057Y-63920714D02*
X108070295Y-63968333D01*
X108070295Y-63968333D02*
X108213152Y-63968333D01*
X108213152Y-63968333D02*
X108308390Y-63920714D01*
X108308390Y-63920714D02*
X108356009Y-63873095D01*
X108356009Y-63873095D02*
X108403628Y-63777857D01*
X108403628Y-63777857D02*
X108403628Y-63396905D01*
X107879819Y-64301667D02*
X107879819Y-64920714D01*
X107879819Y-64920714D02*
X108260771Y-64587381D01*
X108260771Y-64587381D02*
X108260771Y-64730238D01*
X108260771Y-64730238D02*
X108308390Y-64825476D01*
X108308390Y-64825476D02*
X108356009Y-64873095D01*
X108356009Y-64873095D02*
X108451247Y-64920714D01*
X108451247Y-64920714D02*
X108689342Y-64920714D01*
X108689342Y-64920714D02*
X108784580Y-64873095D01*
X108784580Y-64873095D02*
X108832200Y-64825476D01*
X108832200Y-64825476D02*
X108879819Y-64730238D01*
X108879819Y-64730238D02*
X108879819Y-64444524D01*
X108879819Y-64444524D02*
X108832200Y-64349286D01*
X108832200Y-64349286D02*
X108784580Y-64301667D01*
X86970704Y-135566688D02*
X86660913Y-136314591D01*
X86660913Y-136314591D02*
X86580473Y-136384356D01*
X86580473Y-136384356D02*
X86518255Y-136410128D01*
X86518255Y-136410128D02*
X86412044Y-136417676D01*
X86412044Y-136417676D02*
X86236067Y-136344784D01*
X86236067Y-136344784D02*
X86166301Y-136264343D01*
X86166301Y-136264343D02*
X86140530Y-136202126D01*
X86140530Y-136202126D02*
X86132982Y-136095915D01*
X86132982Y-136095915D02*
X86442773Y-135348012D01*
X85706841Y-135507061D02*
X85813052Y-135499513D01*
X85813052Y-135499513D02*
X85875270Y-135473742D01*
X85875270Y-135473742D02*
X85955710Y-135403976D01*
X85955710Y-135403976D02*
X85973933Y-135359982D01*
X85973933Y-135359982D02*
X85966385Y-135253770D01*
X85966385Y-135253770D02*
X85940613Y-135191553D01*
X85940613Y-135191553D02*
X85870848Y-135111113D01*
X85870848Y-135111113D02*
X85694871Y-135038221D01*
X85694871Y-135038221D02*
X85588659Y-135045769D01*
X85588659Y-135045769D02*
X85526442Y-135071540D01*
X85526442Y-135071540D02*
X85446002Y-135141306D01*
X85446002Y-135141306D02*
X85427779Y-135185300D01*
X85427779Y-135185300D02*
X85435327Y-135291512D01*
X85435327Y-135291512D02*
X85461098Y-135353729D01*
X85461098Y-135353729D02*
X85530864Y-135434169D01*
X85530864Y-135434169D02*
X85706841Y-135507061D01*
X85706841Y-135507061D02*
X85776606Y-135587501D01*
X85776606Y-135587501D02*
X85802377Y-135649719D01*
X85802377Y-135649719D02*
X85809926Y-135755930D01*
X85809926Y-135755930D02*
X85737034Y-135931907D01*
X85737034Y-135931907D02*
X85656593Y-136001673D01*
X85656593Y-136001673D02*
X85594376Y-136027444D01*
X85594376Y-136027444D02*
X85488164Y-136034992D01*
X85488164Y-136034992D02*
X85312187Y-135962100D01*
X85312187Y-135962100D02*
X85242422Y-135881660D01*
X85242422Y-135881660D02*
X85216651Y-135819443D01*
X85216651Y-135819443D02*
X85209102Y-135713231D01*
X85209102Y-135713231D02*
X85281995Y-135537254D01*
X85281995Y-135537254D02*
X85362435Y-135467489D01*
X85362435Y-135467489D02*
X85424652Y-135441717D01*
X85424652Y-135441717D02*
X85530864Y-135434169D01*
X106244580Y-67143333D02*
X106292200Y-67095714D01*
X106292200Y-67095714D02*
X106339819Y-66952857D01*
X106339819Y-66952857D02*
X106339819Y-66857619D01*
X106339819Y-66857619D02*
X106292200Y-66714762D01*
X106292200Y-66714762D02*
X106196961Y-66619524D01*
X106196961Y-66619524D02*
X106101723Y-66571905D01*
X106101723Y-66571905D02*
X105911247Y-66524286D01*
X105911247Y-66524286D02*
X105768390Y-66524286D01*
X105768390Y-66524286D02*
X105577914Y-66571905D01*
X105577914Y-66571905D02*
X105482676Y-66619524D01*
X105482676Y-66619524D02*
X105387438Y-66714762D01*
X105387438Y-66714762D02*
X105339819Y-66857619D01*
X105339819Y-66857619D02*
X105339819Y-66952857D01*
X105339819Y-66952857D02*
X105387438Y-67095714D01*
X105387438Y-67095714D02*
X105435057Y-67143333D01*
X105339819Y-68048095D02*
X105339819Y-67571905D01*
X105339819Y-67571905D02*
X105816009Y-67524286D01*
X105816009Y-67524286D02*
X105768390Y-67571905D01*
X105768390Y-67571905D02*
X105720771Y-67667143D01*
X105720771Y-67667143D02*
X105720771Y-67905238D01*
X105720771Y-67905238D02*
X105768390Y-68000476D01*
X105768390Y-68000476D02*
X105816009Y-68048095D01*
X105816009Y-68048095D02*
X105911247Y-68095714D01*
X105911247Y-68095714D02*
X106149342Y-68095714D01*
X106149342Y-68095714D02*
X106244580Y-68048095D01*
X106244580Y-68048095D02*
X106292200Y-68000476D01*
X106292200Y-68000476D02*
X106339819Y-67905238D01*
X106339819Y-67905238D02*
X106339819Y-67667143D01*
X106339819Y-67667143D02*
X106292200Y-67571905D01*
X106292200Y-67571905D02*
X106244580Y-67524286D01*
X93639819Y-63492142D02*
X93163628Y-63158809D01*
X93639819Y-62920714D02*
X92639819Y-62920714D01*
X92639819Y-62920714D02*
X92639819Y-63301666D01*
X92639819Y-63301666D02*
X92687438Y-63396904D01*
X92687438Y-63396904D02*
X92735057Y-63444523D01*
X92735057Y-63444523D02*
X92830295Y-63492142D01*
X92830295Y-63492142D02*
X92973152Y-63492142D01*
X92973152Y-63492142D02*
X93068390Y-63444523D01*
X93068390Y-63444523D02*
X93116009Y-63396904D01*
X93116009Y-63396904D02*
X93163628Y-63301666D01*
X93163628Y-63301666D02*
X93163628Y-62920714D01*
X93639819Y-64444523D02*
X93639819Y-63873095D01*
X93639819Y-64158809D02*
X92639819Y-64158809D01*
X92639819Y-64158809D02*
X92782676Y-64063571D01*
X92782676Y-64063571D02*
X92877914Y-63968333D01*
X92877914Y-63968333D02*
X92925533Y-63873095D01*
X92639819Y-65349285D02*
X92639819Y-64873095D01*
X92639819Y-64873095D02*
X93116009Y-64825476D01*
X93116009Y-64825476D02*
X93068390Y-64873095D01*
X93068390Y-64873095D02*
X93020771Y-64968333D01*
X93020771Y-64968333D02*
X93020771Y-65206428D01*
X93020771Y-65206428D02*
X93068390Y-65301666D01*
X93068390Y-65301666D02*
X93116009Y-65349285D01*
X93116009Y-65349285D02*
X93211247Y-65396904D01*
X93211247Y-65396904D02*
X93449342Y-65396904D01*
X93449342Y-65396904D02*
X93544580Y-65349285D01*
X93544580Y-65349285D02*
X93592200Y-65301666D01*
X93592200Y-65301666D02*
X93639819Y-65206428D01*
X93639819Y-65206428D02*
X93639819Y-64968333D01*
X93639819Y-64968333D02*
X93592200Y-64873095D01*
X93592200Y-64873095D02*
X93544580Y-64825476D01*
X101164580Y-74763333D02*
X101212200Y-74715714D01*
X101212200Y-74715714D02*
X101259819Y-74572857D01*
X101259819Y-74572857D02*
X101259819Y-74477619D01*
X101259819Y-74477619D02*
X101212200Y-74334762D01*
X101212200Y-74334762D02*
X101116961Y-74239524D01*
X101116961Y-74239524D02*
X101021723Y-74191905D01*
X101021723Y-74191905D02*
X100831247Y-74144286D01*
X100831247Y-74144286D02*
X100688390Y-74144286D01*
X100688390Y-74144286D02*
X100497914Y-74191905D01*
X100497914Y-74191905D02*
X100402676Y-74239524D01*
X100402676Y-74239524D02*
X100307438Y-74334762D01*
X100307438Y-74334762D02*
X100259819Y-74477619D01*
X100259819Y-74477619D02*
X100259819Y-74572857D01*
X100259819Y-74572857D02*
X100307438Y-74715714D01*
X100307438Y-74715714D02*
X100355057Y-74763333D01*
X100688390Y-75334762D02*
X100640771Y-75239524D01*
X100640771Y-75239524D02*
X100593152Y-75191905D01*
X100593152Y-75191905D02*
X100497914Y-75144286D01*
X100497914Y-75144286D02*
X100450295Y-75144286D01*
X100450295Y-75144286D02*
X100355057Y-75191905D01*
X100355057Y-75191905D02*
X100307438Y-75239524D01*
X100307438Y-75239524D02*
X100259819Y-75334762D01*
X100259819Y-75334762D02*
X100259819Y-75525238D01*
X100259819Y-75525238D02*
X100307438Y-75620476D01*
X100307438Y-75620476D02*
X100355057Y-75668095D01*
X100355057Y-75668095D02*
X100450295Y-75715714D01*
X100450295Y-75715714D02*
X100497914Y-75715714D01*
X100497914Y-75715714D02*
X100593152Y-75668095D01*
X100593152Y-75668095D02*
X100640771Y-75620476D01*
X100640771Y-75620476D02*
X100688390Y-75525238D01*
X100688390Y-75525238D02*
X100688390Y-75334762D01*
X100688390Y-75334762D02*
X100736009Y-75239524D01*
X100736009Y-75239524D02*
X100783628Y-75191905D01*
X100783628Y-75191905D02*
X100878866Y-75144286D01*
X100878866Y-75144286D02*
X101069342Y-75144286D01*
X101069342Y-75144286D02*
X101164580Y-75191905D01*
X101164580Y-75191905D02*
X101212200Y-75239524D01*
X101212200Y-75239524D02*
X101259819Y-75334762D01*
X101259819Y-75334762D02*
X101259819Y-75525238D01*
X101259819Y-75525238D02*
X101212200Y-75620476D01*
X101212200Y-75620476D02*
X101164580Y-75668095D01*
X101164580Y-75668095D02*
X101069342Y-75715714D01*
X101069342Y-75715714D02*
X100878866Y-75715714D01*
X100878866Y-75715714D02*
X100783628Y-75668095D01*
X100783628Y-75668095D02*
X100736009Y-75620476D01*
X100736009Y-75620476D02*
X100688390Y-75525238D01*
X98624580Y-74287142D02*
X98672200Y-74239523D01*
X98672200Y-74239523D02*
X98719819Y-74096666D01*
X98719819Y-74096666D02*
X98719819Y-74001428D01*
X98719819Y-74001428D02*
X98672200Y-73858571D01*
X98672200Y-73858571D02*
X98576961Y-73763333D01*
X98576961Y-73763333D02*
X98481723Y-73715714D01*
X98481723Y-73715714D02*
X98291247Y-73668095D01*
X98291247Y-73668095D02*
X98148390Y-73668095D01*
X98148390Y-73668095D02*
X97957914Y-73715714D01*
X97957914Y-73715714D02*
X97862676Y-73763333D01*
X97862676Y-73763333D02*
X97767438Y-73858571D01*
X97767438Y-73858571D02*
X97719819Y-74001428D01*
X97719819Y-74001428D02*
X97719819Y-74096666D01*
X97719819Y-74096666D02*
X97767438Y-74239523D01*
X97767438Y-74239523D02*
X97815057Y-74287142D01*
X98719819Y-75239523D02*
X98719819Y-74668095D01*
X98719819Y-74953809D02*
X97719819Y-74953809D01*
X97719819Y-74953809D02*
X97862676Y-74858571D01*
X97862676Y-74858571D02*
X97957914Y-74763333D01*
X97957914Y-74763333D02*
X98005533Y-74668095D01*
X97719819Y-75858571D02*
X97719819Y-75953809D01*
X97719819Y-75953809D02*
X97767438Y-76049047D01*
X97767438Y-76049047D02*
X97815057Y-76096666D01*
X97815057Y-76096666D02*
X97910295Y-76144285D01*
X97910295Y-76144285D02*
X98100771Y-76191904D01*
X98100771Y-76191904D02*
X98338866Y-76191904D01*
X98338866Y-76191904D02*
X98529342Y-76144285D01*
X98529342Y-76144285D02*
X98624580Y-76096666D01*
X98624580Y-76096666D02*
X98672200Y-76049047D01*
X98672200Y-76049047D02*
X98719819Y-75953809D01*
X98719819Y-75953809D02*
X98719819Y-75858571D01*
X98719819Y-75858571D02*
X98672200Y-75763333D01*
X98672200Y-75763333D02*
X98624580Y-75715714D01*
X98624580Y-75715714D02*
X98529342Y-75668095D01*
X98529342Y-75668095D02*
X98338866Y-75620476D01*
X98338866Y-75620476D02*
X98100771Y-75620476D01*
X98100771Y-75620476D02*
X97910295Y-75668095D01*
X97910295Y-75668095D02*
X97815057Y-75715714D01*
X97815057Y-75715714D02*
X97767438Y-75763333D01*
X97767438Y-75763333D02*
X97719819Y-75858571D01*
X108879819Y-71588333D02*
X108403628Y-71255000D01*
X108879819Y-71016905D02*
X107879819Y-71016905D01*
X107879819Y-71016905D02*
X107879819Y-71397857D01*
X107879819Y-71397857D02*
X107927438Y-71493095D01*
X107927438Y-71493095D02*
X107975057Y-71540714D01*
X107975057Y-71540714D02*
X108070295Y-71588333D01*
X108070295Y-71588333D02*
X108213152Y-71588333D01*
X108213152Y-71588333D02*
X108308390Y-71540714D01*
X108308390Y-71540714D02*
X108356009Y-71493095D01*
X108356009Y-71493095D02*
X108403628Y-71397857D01*
X108403628Y-71397857D02*
X108403628Y-71016905D01*
X107975057Y-71969286D02*
X107927438Y-72016905D01*
X107927438Y-72016905D02*
X107879819Y-72112143D01*
X107879819Y-72112143D02*
X107879819Y-72350238D01*
X107879819Y-72350238D02*
X107927438Y-72445476D01*
X107927438Y-72445476D02*
X107975057Y-72493095D01*
X107975057Y-72493095D02*
X108070295Y-72540714D01*
X108070295Y-72540714D02*
X108165533Y-72540714D01*
X108165533Y-72540714D02*
X108308390Y-72493095D01*
X108308390Y-72493095D02*
X108879819Y-71921667D01*
X108879819Y-71921667D02*
X108879819Y-72540714D01*
X106244580Y-74763333D02*
X106292200Y-74715714D01*
X106292200Y-74715714D02*
X106339819Y-74572857D01*
X106339819Y-74572857D02*
X106339819Y-74477619D01*
X106339819Y-74477619D02*
X106292200Y-74334762D01*
X106292200Y-74334762D02*
X106196961Y-74239524D01*
X106196961Y-74239524D02*
X106101723Y-74191905D01*
X106101723Y-74191905D02*
X105911247Y-74144286D01*
X105911247Y-74144286D02*
X105768390Y-74144286D01*
X105768390Y-74144286D02*
X105577914Y-74191905D01*
X105577914Y-74191905D02*
X105482676Y-74239524D01*
X105482676Y-74239524D02*
X105387438Y-74334762D01*
X105387438Y-74334762D02*
X105339819Y-74477619D01*
X105339819Y-74477619D02*
X105339819Y-74572857D01*
X105339819Y-74572857D02*
X105387438Y-74715714D01*
X105387438Y-74715714D02*
X105435057Y-74763333D01*
X105673152Y-75620476D02*
X106339819Y-75620476D01*
X105292200Y-75382381D02*
X106006485Y-75144286D01*
X106006485Y-75144286D02*
X106006485Y-75763333D01*
X106339819Y-71588333D02*
X105863628Y-71255000D01*
X106339819Y-71016905D02*
X105339819Y-71016905D01*
X105339819Y-71016905D02*
X105339819Y-71397857D01*
X105339819Y-71397857D02*
X105387438Y-71493095D01*
X105387438Y-71493095D02*
X105435057Y-71540714D01*
X105435057Y-71540714D02*
X105530295Y-71588333D01*
X105530295Y-71588333D02*
X105673152Y-71588333D01*
X105673152Y-71588333D02*
X105768390Y-71540714D01*
X105768390Y-71540714D02*
X105816009Y-71493095D01*
X105816009Y-71493095D02*
X105863628Y-71397857D01*
X105863628Y-71397857D02*
X105863628Y-71016905D01*
X105673152Y-72445476D02*
X106339819Y-72445476D01*
X105292200Y-72207381D02*
X106006485Y-71969286D01*
X106006485Y-71969286D02*
X106006485Y-72588333D01*
X101164580Y-67143333D02*
X101212200Y-67095714D01*
X101212200Y-67095714D02*
X101259819Y-66952857D01*
X101259819Y-66952857D02*
X101259819Y-66857619D01*
X101259819Y-66857619D02*
X101212200Y-66714762D01*
X101212200Y-66714762D02*
X101116961Y-66619524D01*
X101116961Y-66619524D02*
X101021723Y-66571905D01*
X101021723Y-66571905D02*
X100831247Y-66524286D01*
X100831247Y-66524286D02*
X100688390Y-66524286D01*
X100688390Y-66524286D02*
X100497914Y-66571905D01*
X100497914Y-66571905D02*
X100402676Y-66619524D01*
X100402676Y-66619524D02*
X100307438Y-66714762D01*
X100307438Y-66714762D02*
X100259819Y-66857619D01*
X100259819Y-66857619D02*
X100259819Y-66952857D01*
X100259819Y-66952857D02*
X100307438Y-67095714D01*
X100307438Y-67095714D02*
X100355057Y-67143333D01*
X101259819Y-67619524D02*
X101259819Y-67810000D01*
X101259819Y-67810000D02*
X101212200Y-67905238D01*
X101212200Y-67905238D02*
X101164580Y-67952857D01*
X101164580Y-67952857D02*
X101021723Y-68048095D01*
X101021723Y-68048095D02*
X100831247Y-68095714D01*
X100831247Y-68095714D02*
X100450295Y-68095714D01*
X100450295Y-68095714D02*
X100355057Y-68048095D01*
X100355057Y-68048095D02*
X100307438Y-68000476D01*
X100307438Y-68000476D02*
X100259819Y-67905238D01*
X100259819Y-67905238D02*
X100259819Y-67714762D01*
X100259819Y-67714762D02*
X100307438Y-67619524D01*
X100307438Y-67619524D02*
X100355057Y-67571905D01*
X100355057Y-67571905D02*
X100450295Y-67524286D01*
X100450295Y-67524286D02*
X100688390Y-67524286D01*
X100688390Y-67524286D02*
X100783628Y-67571905D01*
X100783628Y-67571905D02*
X100831247Y-67619524D01*
X100831247Y-67619524D02*
X100878866Y-67714762D01*
X100878866Y-67714762D02*
X100878866Y-67905238D01*
X100878866Y-67905238D02*
X100831247Y-68000476D01*
X100831247Y-68000476D02*
X100783628Y-68048095D01*
X100783628Y-68048095D02*
X100688390Y-68095714D01*
X117224314Y-63563312D02*
X116914522Y-64311215D01*
X116914522Y-64311215D02*
X116834082Y-64380980D01*
X116834082Y-64380980D02*
X116771865Y-64406752D01*
X116771865Y-64406752D02*
X116665653Y-64414300D01*
X116665653Y-64414300D02*
X116489676Y-64341408D01*
X116489676Y-64341408D02*
X116419911Y-64260967D01*
X116419911Y-64260967D02*
X116394139Y-64198750D01*
X116394139Y-64198750D02*
X116386591Y-64092539D01*
X116386591Y-64092539D02*
X116696382Y-63344636D01*
X115389820Y-63885832D02*
X115917751Y-64104508D01*
X115653785Y-63995170D02*
X116036469Y-63071291D01*
X116036469Y-63071291D02*
X116069788Y-63239720D01*
X116069788Y-63239720D02*
X116121331Y-63364154D01*
X116121331Y-63364154D02*
X116191096Y-63444594D01*
X114980606Y-62633938D02*
X115156583Y-62706830D01*
X115156583Y-62706830D02*
X115226349Y-62787271D01*
X115226349Y-62787271D02*
X115252120Y-62849488D01*
X115252120Y-62849488D02*
X115285439Y-63017917D01*
X115285439Y-63017917D02*
X115256542Y-63212117D01*
X115256542Y-63212117D02*
X115110757Y-63564071D01*
X115110757Y-63564071D02*
X115030317Y-63633836D01*
X115030317Y-63633836D02*
X114968100Y-63659608D01*
X114968100Y-63659608D02*
X114861888Y-63667156D01*
X114861888Y-63667156D02*
X114685911Y-63594264D01*
X114685911Y-63594264D02*
X114616146Y-63513824D01*
X114616146Y-63513824D02*
X114590375Y-63451606D01*
X114590375Y-63451606D02*
X114582826Y-63345395D01*
X114582826Y-63345395D02*
X114673941Y-63125423D01*
X114673941Y-63125423D02*
X114754382Y-63055658D01*
X114754382Y-63055658D02*
X114816599Y-63029887D01*
X114816599Y-63029887D02*
X114922811Y-63022338D01*
X114922811Y-63022338D02*
X115098788Y-63095231D01*
X115098788Y-63095231D02*
X115168553Y-63175671D01*
X115168553Y-63175671D02*
X115194324Y-63237888D01*
X115194324Y-63237888D02*
X115201873Y-63344100D01*
X129810201Y-72535159D02*
X129237781Y-73107578D01*
X129237781Y-73107578D02*
X129136766Y-73141250D01*
X129136766Y-73141250D02*
X129069422Y-73141250D01*
X129069422Y-73141250D02*
X128968407Y-73107578D01*
X128968407Y-73107578D02*
X128833720Y-72972891D01*
X128833720Y-72972891D02*
X128800048Y-72871876D01*
X128800048Y-72871876D02*
X128800048Y-72804533D01*
X128800048Y-72804533D02*
X128833720Y-72703517D01*
X128833720Y-72703517D02*
X129406140Y-72131098D01*
X127991926Y-72131098D02*
X128395987Y-72535159D01*
X128193957Y-72333128D02*
X128901064Y-71626021D01*
X128901064Y-71626021D02*
X128867392Y-71794380D01*
X128867392Y-71794380D02*
X128867392Y-71929067D01*
X128867392Y-71929067D02*
X128901064Y-72030082D01*
X128059270Y-70784227D02*
X128395987Y-71120945D01*
X128395987Y-71120945D02*
X128092942Y-71491334D01*
X128092942Y-71491334D02*
X128092942Y-71423991D01*
X128092942Y-71423991D02*
X128059270Y-71322976D01*
X128059270Y-71322976D02*
X127890911Y-71154617D01*
X127890911Y-71154617D02*
X127789896Y-71120945D01*
X127789896Y-71120945D02*
X127722552Y-71120945D01*
X127722552Y-71120945D02*
X127621537Y-71154617D01*
X127621537Y-71154617D02*
X127453178Y-71322976D01*
X127453178Y-71322976D02*
X127419506Y-71423991D01*
X127419506Y-71423991D02*
X127419506Y-71491334D01*
X127419506Y-71491334D02*
X127453178Y-71592350D01*
X127453178Y-71592350D02*
X127621537Y-71760708D01*
X127621537Y-71760708D02*
X127722552Y-71794380D01*
X127722552Y-71794380D02*
X127789896Y-71794380D01*
X103799819Y-71588333D02*
X103323628Y-71255000D01*
X103799819Y-71016905D02*
X102799819Y-71016905D01*
X102799819Y-71016905D02*
X102799819Y-71397857D01*
X102799819Y-71397857D02*
X102847438Y-71493095D01*
X102847438Y-71493095D02*
X102895057Y-71540714D01*
X102895057Y-71540714D02*
X102990295Y-71588333D01*
X102990295Y-71588333D02*
X103133152Y-71588333D01*
X103133152Y-71588333D02*
X103228390Y-71540714D01*
X103228390Y-71540714D02*
X103276009Y-71493095D01*
X103276009Y-71493095D02*
X103323628Y-71397857D01*
X103323628Y-71397857D02*
X103323628Y-71016905D01*
X102799819Y-72445476D02*
X102799819Y-72255000D01*
X102799819Y-72255000D02*
X102847438Y-72159762D01*
X102847438Y-72159762D02*
X102895057Y-72112143D01*
X102895057Y-72112143D02*
X103037914Y-72016905D01*
X103037914Y-72016905D02*
X103228390Y-71969286D01*
X103228390Y-71969286D02*
X103609342Y-71969286D01*
X103609342Y-71969286D02*
X103704580Y-72016905D01*
X103704580Y-72016905D02*
X103752200Y-72064524D01*
X103752200Y-72064524D02*
X103799819Y-72159762D01*
X103799819Y-72159762D02*
X103799819Y-72350238D01*
X103799819Y-72350238D02*
X103752200Y-72445476D01*
X103752200Y-72445476D02*
X103704580Y-72493095D01*
X103704580Y-72493095D02*
X103609342Y-72540714D01*
X103609342Y-72540714D02*
X103371247Y-72540714D01*
X103371247Y-72540714D02*
X103276009Y-72493095D01*
X103276009Y-72493095D02*
X103228390Y-72445476D01*
X103228390Y-72445476D02*
X103180771Y-72350238D01*
X103180771Y-72350238D02*
X103180771Y-72159762D01*
X103180771Y-72159762D02*
X103228390Y-72064524D01*
X103228390Y-72064524D02*
X103276009Y-72016905D01*
X103276009Y-72016905D02*
X103371247Y-71969286D01*
X101259819Y-63968333D02*
X100783628Y-63635000D01*
X101259819Y-63396905D02*
X100259819Y-63396905D01*
X100259819Y-63396905D02*
X100259819Y-63777857D01*
X100259819Y-63777857D02*
X100307438Y-63873095D01*
X100307438Y-63873095D02*
X100355057Y-63920714D01*
X100355057Y-63920714D02*
X100450295Y-63968333D01*
X100450295Y-63968333D02*
X100593152Y-63968333D01*
X100593152Y-63968333D02*
X100688390Y-63920714D01*
X100688390Y-63920714D02*
X100736009Y-63873095D01*
X100736009Y-63873095D02*
X100783628Y-63777857D01*
X100783628Y-63777857D02*
X100783628Y-63396905D01*
X101259819Y-64444524D02*
X101259819Y-64635000D01*
X101259819Y-64635000D02*
X101212200Y-64730238D01*
X101212200Y-64730238D02*
X101164580Y-64777857D01*
X101164580Y-64777857D02*
X101021723Y-64873095D01*
X101021723Y-64873095D02*
X100831247Y-64920714D01*
X100831247Y-64920714D02*
X100450295Y-64920714D01*
X100450295Y-64920714D02*
X100355057Y-64873095D01*
X100355057Y-64873095D02*
X100307438Y-64825476D01*
X100307438Y-64825476D02*
X100259819Y-64730238D01*
X100259819Y-64730238D02*
X100259819Y-64539762D01*
X100259819Y-64539762D02*
X100307438Y-64444524D01*
X100307438Y-64444524D02*
X100355057Y-64396905D01*
X100355057Y-64396905D02*
X100450295Y-64349286D01*
X100450295Y-64349286D02*
X100688390Y-64349286D01*
X100688390Y-64349286D02*
X100783628Y-64396905D01*
X100783628Y-64396905D02*
X100831247Y-64444524D01*
X100831247Y-64444524D02*
X100878866Y-64539762D01*
X100878866Y-64539762D02*
X100878866Y-64730238D01*
X100878866Y-64730238D02*
X100831247Y-64825476D01*
X100831247Y-64825476D02*
X100783628Y-64873095D01*
X100783628Y-64873095D02*
X100688390Y-64920714D01*
X103704580Y-67143333D02*
X103752200Y-67095714D01*
X103752200Y-67095714D02*
X103799819Y-66952857D01*
X103799819Y-66952857D02*
X103799819Y-66857619D01*
X103799819Y-66857619D02*
X103752200Y-66714762D01*
X103752200Y-66714762D02*
X103656961Y-66619524D01*
X103656961Y-66619524D02*
X103561723Y-66571905D01*
X103561723Y-66571905D02*
X103371247Y-66524286D01*
X103371247Y-66524286D02*
X103228390Y-66524286D01*
X103228390Y-66524286D02*
X103037914Y-66571905D01*
X103037914Y-66571905D02*
X102942676Y-66619524D01*
X102942676Y-66619524D02*
X102847438Y-66714762D01*
X102847438Y-66714762D02*
X102799819Y-66857619D01*
X102799819Y-66857619D02*
X102799819Y-66952857D01*
X102799819Y-66952857D02*
X102847438Y-67095714D01*
X102847438Y-67095714D02*
X102895057Y-67143333D01*
X102799819Y-67476667D02*
X102799819Y-68143333D01*
X102799819Y-68143333D02*
X103799819Y-67714762D01*
X93544580Y-74287142D02*
X93592200Y-74239523D01*
X93592200Y-74239523D02*
X93639819Y-74096666D01*
X93639819Y-74096666D02*
X93639819Y-74001428D01*
X93639819Y-74001428D02*
X93592200Y-73858571D01*
X93592200Y-73858571D02*
X93496961Y-73763333D01*
X93496961Y-73763333D02*
X93401723Y-73715714D01*
X93401723Y-73715714D02*
X93211247Y-73668095D01*
X93211247Y-73668095D02*
X93068390Y-73668095D01*
X93068390Y-73668095D02*
X92877914Y-73715714D01*
X92877914Y-73715714D02*
X92782676Y-73763333D01*
X92782676Y-73763333D02*
X92687438Y-73858571D01*
X92687438Y-73858571D02*
X92639819Y-74001428D01*
X92639819Y-74001428D02*
X92639819Y-74096666D01*
X92639819Y-74096666D02*
X92687438Y-74239523D01*
X92687438Y-74239523D02*
X92735057Y-74287142D01*
X93639819Y-75239523D02*
X93639819Y-74668095D01*
X93639819Y-74953809D02*
X92639819Y-74953809D01*
X92639819Y-74953809D02*
X92782676Y-74858571D01*
X92782676Y-74858571D02*
X92877914Y-74763333D01*
X92877914Y-74763333D02*
X92925533Y-74668095D01*
X92973152Y-76096666D02*
X93639819Y-76096666D01*
X92592200Y-75858571D02*
X93306485Y-75620476D01*
X93306485Y-75620476D02*
X93306485Y-76239523D01*
X98719819Y-71112142D02*
X98243628Y-70778809D01*
X98719819Y-70540714D02*
X97719819Y-70540714D01*
X97719819Y-70540714D02*
X97719819Y-70921666D01*
X97719819Y-70921666D02*
X97767438Y-71016904D01*
X97767438Y-71016904D02*
X97815057Y-71064523D01*
X97815057Y-71064523D02*
X97910295Y-71112142D01*
X97910295Y-71112142D02*
X98053152Y-71112142D01*
X98053152Y-71112142D02*
X98148390Y-71064523D01*
X98148390Y-71064523D02*
X98196009Y-71016904D01*
X98196009Y-71016904D02*
X98243628Y-70921666D01*
X98243628Y-70921666D02*
X98243628Y-70540714D01*
X98719819Y-72064523D02*
X98719819Y-71493095D01*
X98719819Y-71778809D02*
X97719819Y-71778809D01*
X97719819Y-71778809D02*
X97862676Y-71683571D01*
X97862676Y-71683571D02*
X97957914Y-71588333D01*
X97957914Y-71588333D02*
X98005533Y-71493095D01*
X97719819Y-72683571D02*
X97719819Y-72778809D01*
X97719819Y-72778809D02*
X97767438Y-72874047D01*
X97767438Y-72874047D02*
X97815057Y-72921666D01*
X97815057Y-72921666D02*
X97910295Y-72969285D01*
X97910295Y-72969285D02*
X98100771Y-73016904D01*
X98100771Y-73016904D02*
X98338866Y-73016904D01*
X98338866Y-73016904D02*
X98529342Y-72969285D01*
X98529342Y-72969285D02*
X98624580Y-72921666D01*
X98624580Y-72921666D02*
X98672200Y-72874047D01*
X98672200Y-72874047D02*
X98719819Y-72778809D01*
X98719819Y-72778809D02*
X98719819Y-72683571D01*
X98719819Y-72683571D02*
X98672200Y-72588333D01*
X98672200Y-72588333D02*
X98624580Y-72540714D01*
X98624580Y-72540714D02*
X98529342Y-72493095D01*
X98529342Y-72493095D02*
X98338866Y-72445476D01*
X98338866Y-72445476D02*
X98100771Y-72445476D01*
X98100771Y-72445476D02*
X97910295Y-72493095D01*
X97910295Y-72493095D02*
X97815057Y-72540714D01*
X97815057Y-72540714D02*
X97767438Y-72588333D01*
X97767438Y-72588333D02*
X97719819Y-72683571D01*
X108784580Y-74763333D02*
X108832200Y-74715714D01*
X108832200Y-74715714D02*
X108879819Y-74572857D01*
X108879819Y-74572857D02*
X108879819Y-74477619D01*
X108879819Y-74477619D02*
X108832200Y-74334762D01*
X108832200Y-74334762D02*
X108736961Y-74239524D01*
X108736961Y-74239524D02*
X108641723Y-74191905D01*
X108641723Y-74191905D02*
X108451247Y-74144286D01*
X108451247Y-74144286D02*
X108308390Y-74144286D01*
X108308390Y-74144286D02*
X108117914Y-74191905D01*
X108117914Y-74191905D02*
X108022676Y-74239524D01*
X108022676Y-74239524D02*
X107927438Y-74334762D01*
X107927438Y-74334762D02*
X107879819Y-74477619D01*
X107879819Y-74477619D02*
X107879819Y-74572857D01*
X107879819Y-74572857D02*
X107927438Y-74715714D01*
X107927438Y-74715714D02*
X107975057Y-74763333D01*
X107975057Y-75144286D02*
X107927438Y-75191905D01*
X107927438Y-75191905D02*
X107879819Y-75287143D01*
X107879819Y-75287143D02*
X107879819Y-75525238D01*
X107879819Y-75525238D02*
X107927438Y-75620476D01*
X107927438Y-75620476D02*
X107975057Y-75668095D01*
X107975057Y-75668095D02*
X108070295Y-75715714D01*
X108070295Y-75715714D02*
X108165533Y-75715714D01*
X108165533Y-75715714D02*
X108308390Y-75668095D01*
X108308390Y-75668095D02*
X108879819Y-75096667D01*
X108879819Y-75096667D02*
X108879819Y-75715714D01*
X101686904Y-60090819D02*
X101686904Y-60900342D01*
X101686904Y-60900342D02*
X101639285Y-60995580D01*
X101639285Y-60995580D02*
X101591666Y-61043200D01*
X101591666Y-61043200D02*
X101496428Y-61090819D01*
X101496428Y-61090819D02*
X101305952Y-61090819D01*
X101305952Y-61090819D02*
X101210714Y-61043200D01*
X101210714Y-61043200D02*
X101163095Y-60995580D01*
X101163095Y-60995580D02*
X101115476Y-60900342D01*
X101115476Y-60900342D02*
X101115476Y-60090819D01*
X100115476Y-61090819D02*
X100686904Y-61090819D01*
X100401190Y-61090819D02*
X100401190Y-60090819D01*
X100401190Y-60090819D02*
X100496428Y-60233676D01*
X100496428Y-60233676D02*
X100591666Y-60328914D01*
X100591666Y-60328914D02*
X100686904Y-60376533D01*
X96084580Y-66667142D02*
X96132200Y-66619523D01*
X96132200Y-66619523D02*
X96179819Y-66476666D01*
X96179819Y-66476666D02*
X96179819Y-66381428D01*
X96179819Y-66381428D02*
X96132200Y-66238571D01*
X96132200Y-66238571D02*
X96036961Y-66143333D01*
X96036961Y-66143333D02*
X95941723Y-66095714D01*
X95941723Y-66095714D02*
X95751247Y-66048095D01*
X95751247Y-66048095D02*
X95608390Y-66048095D01*
X95608390Y-66048095D02*
X95417914Y-66095714D01*
X95417914Y-66095714D02*
X95322676Y-66143333D01*
X95322676Y-66143333D02*
X95227438Y-66238571D01*
X95227438Y-66238571D02*
X95179819Y-66381428D01*
X95179819Y-66381428D02*
X95179819Y-66476666D01*
X95179819Y-66476666D02*
X95227438Y-66619523D01*
X95227438Y-66619523D02*
X95275057Y-66667142D01*
X96179819Y-67619523D02*
X96179819Y-67048095D01*
X96179819Y-67333809D02*
X95179819Y-67333809D01*
X95179819Y-67333809D02*
X95322676Y-67238571D01*
X95322676Y-67238571D02*
X95417914Y-67143333D01*
X95417914Y-67143333D02*
X95465533Y-67048095D01*
X95179819Y-67952857D02*
X95179819Y-68571904D01*
X95179819Y-68571904D02*
X95560771Y-68238571D01*
X95560771Y-68238571D02*
X95560771Y-68381428D01*
X95560771Y-68381428D02*
X95608390Y-68476666D01*
X95608390Y-68476666D02*
X95656009Y-68524285D01*
X95656009Y-68524285D02*
X95751247Y-68571904D01*
X95751247Y-68571904D02*
X95989342Y-68571904D01*
X95989342Y-68571904D02*
X96084580Y-68524285D01*
X96084580Y-68524285D02*
X96132200Y-68476666D01*
X96132200Y-68476666D02*
X96179819Y-68381428D01*
X96179819Y-68381428D02*
X96179819Y-68095714D01*
X96179819Y-68095714D02*
X96132200Y-68000476D01*
X96132200Y-68000476D02*
X96084580Y-67952857D01*
X103704580Y-74763333D02*
X103752200Y-74715714D01*
X103752200Y-74715714D02*
X103799819Y-74572857D01*
X103799819Y-74572857D02*
X103799819Y-74477619D01*
X103799819Y-74477619D02*
X103752200Y-74334762D01*
X103752200Y-74334762D02*
X103656961Y-74239524D01*
X103656961Y-74239524D02*
X103561723Y-74191905D01*
X103561723Y-74191905D02*
X103371247Y-74144286D01*
X103371247Y-74144286D02*
X103228390Y-74144286D01*
X103228390Y-74144286D02*
X103037914Y-74191905D01*
X103037914Y-74191905D02*
X102942676Y-74239524D01*
X102942676Y-74239524D02*
X102847438Y-74334762D01*
X102847438Y-74334762D02*
X102799819Y-74477619D01*
X102799819Y-74477619D02*
X102799819Y-74572857D01*
X102799819Y-74572857D02*
X102847438Y-74715714D01*
X102847438Y-74715714D02*
X102895057Y-74763333D01*
X102799819Y-75620476D02*
X102799819Y-75430000D01*
X102799819Y-75430000D02*
X102847438Y-75334762D01*
X102847438Y-75334762D02*
X102895057Y-75287143D01*
X102895057Y-75287143D02*
X103037914Y-75191905D01*
X103037914Y-75191905D02*
X103228390Y-75144286D01*
X103228390Y-75144286D02*
X103609342Y-75144286D01*
X103609342Y-75144286D02*
X103704580Y-75191905D01*
X103704580Y-75191905D02*
X103752200Y-75239524D01*
X103752200Y-75239524D02*
X103799819Y-75334762D01*
X103799819Y-75334762D02*
X103799819Y-75525238D01*
X103799819Y-75525238D02*
X103752200Y-75620476D01*
X103752200Y-75620476D02*
X103704580Y-75668095D01*
X103704580Y-75668095D02*
X103609342Y-75715714D01*
X103609342Y-75715714D02*
X103371247Y-75715714D01*
X103371247Y-75715714D02*
X103276009Y-75668095D01*
X103276009Y-75668095D02*
X103228390Y-75620476D01*
X103228390Y-75620476D02*
X103180771Y-75525238D01*
X103180771Y-75525238D02*
X103180771Y-75334762D01*
X103180771Y-75334762D02*
X103228390Y-75239524D01*
X103228390Y-75239524D02*
X103276009Y-75191905D01*
X103276009Y-75191905D02*
X103371247Y-75144286D01*
X93639819Y-71112142D02*
X93163628Y-70778809D01*
X93639819Y-70540714D02*
X92639819Y-70540714D01*
X92639819Y-70540714D02*
X92639819Y-70921666D01*
X92639819Y-70921666D02*
X92687438Y-71016904D01*
X92687438Y-71016904D02*
X92735057Y-71064523D01*
X92735057Y-71064523D02*
X92830295Y-71112142D01*
X92830295Y-71112142D02*
X92973152Y-71112142D01*
X92973152Y-71112142D02*
X93068390Y-71064523D01*
X93068390Y-71064523D02*
X93116009Y-71016904D01*
X93116009Y-71016904D02*
X93163628Y-70921666D01*
X93163628Y-70921666D02*
X93163628Y-70540714D01*
X93639819Y-72064523D02*
X93639819Y-71493095D01*
X93639819Y-71778809D02*
X92639819Y-71778809D01*
X92639819Y-71778809D02*
X92782676Y-71683571D01*
X92782676Y-71683571D02*
X92877914Y-71588333D01*
X92877914Y-71588333D02*
X92925533Y-71493095D01*
X92973152Y-72921666D02*
X93639819Y-72921666D01*
X92592200Y-72683571D02*
X93306485Y-72445476D01*
X93306485Y-72445476D02*
X93306485Y-73064523D01*
X106339819Y-63968333D02*
X105863628Y-63635000D01*
X106339819Y-63396905D02*
X105339819Y-63396905D01*
X105339819Y-63396905D02*
X105339819Y-63777857D01*
X105339819Y-63777857D02*
X105387438Y-63873095D01*
X105387438Y-63873095D02*
X105435057Y-63920714D01*
X105435057Y-63920714D02*
X105530295Y-63968333D01*
X105530295Y-63968333D02*
X105673152Y-63968333D01*
X105673152Y-63968333D02*
X105768390Y-63920714D01*
X105768390Y-63920714D02*
X105816009Y-63873095D01*
X105816009Y-63873095D02*
X105863628Y-63777857D01*
X105863628Y-63777857D02*
X105863628Y-63396905D01*
X105339819Y-64873095D02*
X105339819Y-64396905D01*
X105339819Y-64396905D02*
X105816009Y-64349286D01*
X105816009Y-64349286D02*
X105768390Y-64396905D01*
X105768390Y-64396905D02*
X105720771Y-64492143D01*
X105720771Y-64492143D02*
X105720771Y-64730238D01*
X105720771Y-64730238D02*
X105768390Y-64825476D01*
X105768390Y-64825476D02*
X105816009Y-64873095D01*
X105816009Y-64873095D02*
X105911247Y-64920714D01*
X105911247Y-64920714D02*
X106149342Y-64920714D01*
X106149342Y-64920714D02*
X106244580Y-64873095D01*
X106244580Y-64873095D02*
X106292200Y-64825476D01*
X106292200Y-64825476D02*
X106339819Y-64730238D01*
X106339819Y-64730238D02*
X106339819Y-64492143D01*
X106339819Y-64492143D02*
X106292200Y-64396905D01*
X106292200Y-64396905D02*
X106244580Y-64349286D01*
X137027918Y-113240349D02*
X137775821Y-113550141D01*
X137775821Y-113550141D02*
X137845586Y-113630581D01*
X137845586Y-113630581D02*
X137871358Y-113692798D01*
X137871358Y-113692798D02*
X137878906Y-113799010D01*
X137878906Y-113799010D02*
X137806014Y-113974987D01*
X137806014Y-113974987D02*
X137725573Y-114044752D01*
X137725573Y-114044752D02*
X137663356Y-114070524D01*
X137663356Y-114070524D02*
X137557145Y-114078072D01*
X137557145Y-114078072D02*
X136809242Y-113768281D01*
X137350438Y-115074843D02*
X137569114Y-114546912D01*
X137459776Y-114810878D02*
X136535897Y-114428194D01*
X136535897Y-114428194D02*
X136704326Y-114394875D01*
X136704326Y-114394875D02*
X136828760Y-114343332D01*
X136828760Y-114343332D02*
X136909200Y-114273567D01*
X136368763Y-115080560D02*
X136306546Y-115106331D01*
X136306546Y-115106331D02*
X136226105Y-115176097D01*
X136226105Y-115176097D02*
X136134990Y-115396068D01*
X136134990Y-115396068D02*
X136142539Y-115502280D01*
X136142539Y-115502280D02*
X136168310Y-115564497D01*
X136168310Y-115564497D02*
X136238075Y-115644937D01*
X136238075Y-115644937D02*
X136326064Y-115681383D01*
X136326064Y-115681383D02*
X136476270Y-115692058D01*
X136476270Y-115692058D02*
X137222877Y-115382803D01*
X137222877Y-115382803D02*
X136985978Y-115954729D01*
X93544580Y-66667142D02*
X93592200Y-66619523D01*
X93592200Y-66619523D02*
X93639819Y-66476666D01*
X93639819Y-66476666D02*
X93639819Y-66381428D01*
X93639819Y-66381428D02*
X93592200Y-66238571D01*
X93592200Y-66238571D02*
X93496961Y-66143333D01*
X93496961Y-66143333D02*
X93401723Y-66095714D01*
X93401723Y-66095714D02*
X93211247Y-66048095D01*
X93211247Y-66048095D02*
X93068390Y-66048095D01*
X93068390Y-66048095D02*
X92877914Y-66095714D01*
X92877914Y-66095714D02*
X92782676Y-66143333D01*
X92782676Y-66143333D02*
X92687438Y-66238571D01*
X92687438Y-66238571D02*
X92639819Y-66381428D01*
X92639819Y-66381428D02*
X92639819Y-66476666D01*
X92639819Y-66476666D02*
X92687438Y-66619523D01*
X92687438Y-66619523D02*
X92735057Y-66667142D01*
X93639819Y-67619523D02*
X93639819Y-67048095D01*
X93639819Y-67333809D02*
X92639819Y-67333809D01*
X92639819Y-67333809D02*
X92782676Y-67238571D01*
X92782676Y-67238571D02*
X92877914Y-67143333D01*
X92877914Y-67143333D02*
X92925533Y-67048095D01*
X92639819Y-68524285D02*
X92639819Y-68048095D01*
X92639819Y-68048095D02*
X93116009Y-68000476D01*
X93116009Y-68000476D02*
X93068390Y-68048095D01*
X93068390Y-68048095D02*
X93020771Y-68143333D01*
X93020771Y-68143333D02*
X93020771Y-68381428D01*
X93020771Y-68381428D02*
X93068390Y-68476666D01*
X93068390Y-68476666D02*
X93116009Y-68524285D01*
X93116009Y-68524285D02*
X93211247Y-68571904D01*
X93211247Y-68571904D02*
X93449342Y-68571904D01*
X93449342Y-68571904D02*
X93544580Y-68524285D01*
X93544580Y-68524285D02*
X93592200Y-68476666D01*
X93592200Y-68476666D02*
X93639819Y-68381428D01*
X93639819Y-68381428D02*
X93639819Y-68143333D01*
X93639819Y-68143333D02*
X93592200Y-68048095D01*
X93592200Y-68048095D02*
X93544580Y-68000476D01*
X74305012Y-127480049D02*
X73732592Y-128052469D01*
X73732592Y-128052469D02*
X73631577Y-128086141D01*
X73631577Y-128086141D02*
X73564233Y-128086141D01*
X73564233Y-128086141D02*
X73463218Y-128052469D01*
X73463218Y-128052469D02*
X73328531Y-127917782D01*
X73328531Y-127917782D02*
X73294859Y-127816767D01*
X73294859Y-127816767D02*
X73294859Y-127749423D01*
X73294859Y-127749423D02*
X73328531Y-127648408D01*
X73328531Y-127648408D02*
X73900951Y-127075988D01*
X73631577Y-126806614D02*
X73160172Y-126335210D01*
X73160172Y-126335210D02*
X72756111Y-127345362D01*
X108784580Y-67143333D02*
X108832200Y-67095714D01*
X108832200Y-67095714D02*
X108879819Y-66952857D01*
X108879819Y-66952857D02*
X108879819Y-66857619D01*
X108879819Y-66857619D02*
X108832200Y-66714762D01*
X108832200Y-66714762D02*
X108736961Y-66619524D01*
X108736961Y-66619524D02*
X108641723Y-66571905D01*
X108641723Y-66571905D02*
X108451247Y-66524286D01*
X108451247Y-66524286D02*
X108308390Y-66524286D01*
X108308390Y-66524286D02*
X108117914Y-66571905D01*
X108117914Y-66571905D02*
X108022676Y-66619524D01*
X108022676Y-66619524D02*
X107927438Y-66714762D01*
X107927438Y-66714762D02*
X107879819Y-66857619D01*
X107879819Y-66857619D02*
X107879819Y-66952857D01*
X107879819Y-66952857D02*
X107927438Y-67095714D01*
X107927438Y-67095714D02*
X107975057Y-67143333D01*
X107879819Y-67476667D02*
X107879819Y-68095714D01*
X107879819Y-68095714D02*
X108260771Y-67762381D01*
X108260771Y-67762381D02*
X108260771Y-67905238D01*
X108260771Y-67905238D02*
X108308390Y-68000476D01*
X108308390Y-68000476D02*
X108356009Y-68048095D01*
X108356009Y-68048095D02*
X108451247Y-68095714D01*
X108451247Y-68095714D02*
X108689342Y-68095714D01*
X108689342Y-68095714D02*
X108784580Y-68048095D01*
X108784580Y-68048095D02*
X108832200Y-68000476D01*
X108832200Y-68000476D02*
X108879819Y-67905238D01*
X108879819Y-67905238D02*
X108879819Y-67619524D01*
X108879819Y-67619524D02*
X108832200Y-67524286D01*
X108832200Y-67524286D02*
X108784580Y-67476667D01*
X61369819Y-98964095D02*
X62179342Y-98964095D01*
X62179342Y-98964095D02*
X62274580Y-99011714D01*
X62274580Y-99011714D02*
X62322200Y-99059333D01*
X62322200Y-99059333D02*
X62369819Y-99154571D01*
X62369819Y-99154571D02*
X62369819Y-99345047D01*
X62369819Y-99345047D02*
X62322200Y-99440285D01*
X62322200Y-99440285D02*
X62274580Y-99487904D01*
X62274580Y-99487904D02*
X62179342Y-99535523D01*
X62179342Y-99535523D02*
X61369819Y-99535523D01*
X61369819Y-100487904D02*
X61369819Y-100011714D01*
X61369819Y-100011714D02*
X61846009Y-99964095D01*
X61846009Y-99964095D02*
X61798390Y-100011714D01*
X61798390Y-100011714D02*
X61750771Y-100106952D01*
X61750771Y-100106952D02*
X61750771Y-100345047D01*
X61750771Y-100345047D02*
X61798390Y-100440285D01*
X61798390Y-100440285D02*
X61846009Y-100487904D01*
X61846009Y-100487904D02*
X61941247Y-100535523D01*
X61941247Y-100535523D02*
X62179342Y-100535523D01*
X62179342Y-100535523D02*
X62274580Y-100487904D01*
X62274580Y-100487904D02*
X62322200Y-100440285D01*
X62322200Y-100440285D02*
X62369819Y-100345047D01*
X62369819Y-100345047D02*
X62369819Y-100106952D01*
X62369819Y-100106952D02*
X62322200Y-100011714D01*
X62322200Y-100011714D02*
X62274580Y-99964095D01*
X116880960Y-134770707D02*
X117190752Y-135518609D01*
X117190752Y-135518609D02*
X117183203Y-135624821D01*
X117183203Y-135624821D02*
X117157432Y-135687038D01*
X117157432Y-135687038D02*
X117087667Y-135767478D01*
X117087667Y-135767478D02*
X116911690Y-135840370D01*
X116911690Y-135840370D02*
X116805478Y-135832822D01*
X116805478Y-135832822D02*
X116743261Y-135807051D01*
X116743261Y-135807051D02*
X116662820Y-135737285D01*
X116662820Y-135737285D02*
X116353029Y-134989383D01*
X115811833Y-136295946D02*
X116339764Y-136077270D01*
X116075799Y-136186608D02*
X115693115Y-135262728D01*
X115693115Y-135262728D02*
X115835773Y-135358265D01*
X115835773Y-135358265D02*
X115960207Y-135409807D01*
X115960207Y-135409807D02*
X116066419Y-135417356D01*
X114857224Y-135608966D02*
X114769236Y-135645412D01*
X114769236Y-135645412D02*
X114699470Y-135725852D01*
X114699470Y-135725852D02*
X114673699Y-135788069D01*
X114673699Y-135788069D02*
X114666151Y-135894281D01*
X114666151Y-135894281D02*
X114695048Y-136088481D01*
X114695048Y-136088481D02*
X114786163Y-136308452D01*
X114786163Y-136308452D02*
X114903050Y-136466206D01*
X114903050Y-136466206D02*
X114983490Y-136535972D01*
X114983490Y-136535972D02*
X115045707Y-136561743D01*
X115045707Y-136561743D02*
X115151919Y-136569291D01*
X115151919Y-136569291D02*
X115239908Y-136532845D01*
X115239908Y-136532845D02*
X115309673Y-136452405D01*
X115309673Y-136452405D02*
X115335444Y-136390188D01*
X115335444Y-136390188D02*
X115342992Y-136283976D01*
X115342992Y-136283976D02*
X115314095Y-136089776D01*
X115314095Y-136089776D02*
X115222980Y-135869805D01*
X115222980Y-135869805D02*
X115106093Y-135712051D01*
X115106093Y-135712051D02*
X115025653Y-135642285D01*
X115025653Y-135642285D02*
X114963436Y-135616514D01*
X114963436Y-135616514D02*
X114857224Y-135608966D01*
X91099819Y-71112142D02*
X90623628Y-70778809D01*
X91099819Y-70540714D02*
X90099819Y-70540714D01*
X90099819Y-70540714D02*
X90099819Y-70921666D01*
X90099819Y-70921666D02*
X90147438Y-71016904D01*
X90147438Y-71016904D02*
X90195057Y-71064523D01*
X90195057Y-71064523D02*
X90290295Y-71112142D01*
X90290295Y-71112142D02*
X90433152Y-71112142D01*
X90433152Y-71112142D02*
X90528390Y-71064523D01*
X90528390Y-71064523D02*
X90576009Y-71016904D01*
X90576009Y-71016904D02*
X90623628Y-70921666D01*
X90623628Y-70921666D02*
X90623628Y-70540714D01*
X91099819Y-72064523D02*
X91099819Y-71493095D01*
X91099819Y-71778809D02*
X90099819Y-71778809D01*
X90099819Y-71778809D02*
X90242676Y-71683571D01*
X90242676Y-71683571D02*
X90337914Y-71588333D01*
X90337914Y-71588333D02*
X90385533Y-71493095D01*
X90099819Y-72921666D02*
X90099819Y-72731190D01*
X90099819Y-72731190D02*
X90147438Y-72635952D01*
X90147438Y-72635952D02*
X90195057Y-72588333D01*
X90195057Y-72588333D02*
X90337914Y-72493095D01*
X90337914Y-72493095D02*
X90528390Y-72445476D01*
X90528390Y-72445476D02*
X90909342Y-72445476D01*
X90909342Y-72445476D02*
X91004580Y-72493095D01*
X91004580Y-72493095D02*
X91052200Y-72540714D01*
X91052200Y-72540714D02*
X91099819Y-72635952D01*
X91099819Y-72635952D02*
X91099819Y-72826428D01*
X91099819Y-72826428D02*
X91052200Y-72921666D01*
X91052200Y-72921666D02*
X91004580Y-72969285D01*
X91004580Y-72969285D02*
X90909342Y-73016904D01*
X90909342Y-73016904D02*
X90671247Y-73016904D01*
X90671247Y-73016904D02*
X90576009Y-72969285D01*
X90576009Y-72969285D02*
X90528390Y-72921666D01*
X90528390Y-72921666D02*
X90480771Y-72826428D01*
X90480771Y-72826428D02*
X90480771Y-72635952D01*
X90480771Y-72635952D02*
X90528390Y-72540714D01*
X90528390Y-72540714D02*
X90576009Y-72493095D01*
X90576009Y-72493095D02*
X90671247Y-72445476D01*
X73477441Y-71177514D02*
X74049861Y-71749934D01*
X74049861Y-71749934D02*
X74083533Y-71850949D01*
X74083533Y-71850949D02*
X74083533Y-71918293D01*
X74083533Y-71918293D02*
X74049861Y-72019308D01*
X74049861Y-72019308D02*
X73915174Y-72153995D01*
X73915174Y-72153995D02*
X73814159Y-72187667D01*
X73814159Y-72187667D02*
X73746815Y-72187667D01*
X73746815Y-72187667D02*
X73645800Y-72153995D01*
X73645800Y-72153995D02*
X73073380Y-71581575D01*
X72804006Y-71850949D02*
X72366274Y-72288682D01*
X72366274Y-72288682D02*
X72871350Y-72322354D01*
X72871350Y-72322354D02*
X72770335Y-72423369D01*
X72770335Y-72423369D02*
X72736663Y-72524384D01*
X72736663Y-72524384D02*
X72736663Y-72591728D01*
X72736663Y-72591728D02*
X72770335Y-72692743D01*
X72770335Y-72692743D02*
X72938693Y-72861102D01*
X72938693Y-72861102D02*
X73039709Y-72894774D01*
X73039709Y-72894774D02*
X73107052Y-72894774D01*
X73107052Y-72894774D02*
X73208067Y-72861102D01*
X73208067Y-72861102D02*
X73410098Y-72659071D01*
X73410098Y-72659071D02*
X73443770Y-72558056D01*
X73443770Y-72558056D02*
X73443770Y-72490713D01*
X101259819Y-71588333D02*
X100783628Y-71255000D01*
X101259819Y-71016905D02*
X100259819Y-71016905D01*
X100259819Y-71016905D02*
X100259819Y-71397857D01*
X100259819Y-71397857D02*
X100307438Y-71493095D01*
X100307438Y-71493095D02*
X100355057Y-71540714D01*
X100355057Y-71540714D02*
X100450295Y-71588333D01*
X100450295Y-71588333D02*
X100593152Y-71588333D01*
X100593152Y-71588333D02*
X100688390Y-71540714D01*
X100688390Y-71540714D02*
X100736009Y-71493095D01*
X100736009Y-71493095D02*
X100783628Y-71397857D01*
X100783628Y-71397857D02*
X100783628Y-71016905D01*
X100688390Y-72159762D02*
X100640771Y-72064524D01*
X100640771Y-72064524D02*
X100593152Y-72016905D01*
X100593152Y-72016905D02*
X100497914Y-71969286D01*
X100497914Y-71969286D02*
X100450295Y-71969286D01*
X100450295Y-71969286D02*
X100355057Y-72016905D01*
X100355057Y-72016905D02*
X100307438Y-72064524D01*
X100307438Y-72064524D02*
X100259819Y-72159762D01*
X100259819Y-72159762D02*
X100259819Y-72350238D01*
X100259819Y-72350238D02*
X100307438Y-72445476D01*
X100307438Y-72445476D02*
X100355057Y-72493095D01*
X100355057Y-72493095D02*
X100450295Y-72540714D01*
X100450295Y-72540714D02*
X100497914Y-72540714D01*
X100497914Y-72540714D02*
X100593152Y-72493095D01*
X100593152Y-72493095D02*
X100640771Y-72445476D01*
X100640771Y-72445476D02*
X100688390Y-72350238D01*
X100688390Y-72350238D02*
X100688390Y-72159762D01*
X100688390Y-72159762D02*
X100736009Y-72064524D01*
X100736009Y-72064524D02*
X100783628Y-72016905D01*
X100783628Y-72016905D02*
X100878866Y-71969286D01*
X100878866Y-71969286D02*
X101069342Y-71969286D01*
X101069342Y-71969286D02*
X101164580Y-72016905D01*
X101164580Y-72016905D02*
X101212200Y-72064524D01*
X101212200Y-72064524D02*
X101259819Y-72159762D01*
X101259819Y-72159762D02*
X101259819Y-72350238D01*
X101259819Y-72350238D02*
X101212200Y-72445476D01*
X101212200Y-72445476D02*
X101164580Y-72493095D01*
X101164580Y-72493095D02*
X101069342Y-72540714D01*
X101069342Y-72540714D02*
X100878866Y-72540714D01*
X100878866Y-72540714D02*
X100783628Y-72493095D01*
X100783628Y-72493095D02*
X100736009Y-72445476D01*
X100736009Y-72445476D02*
X100688390Y-72350238D01*
X139469819Y-98407905D02*
X140279342Y-98407905D01*
X140279342Y-98407905D02*
X140374580Y-98455524D01*
X140374580Y-98455524D02*
X140422200Y-98503143D01*
X140422200Y-98503143D02*
X140469819Y-98598381D01*
X140469819Y-98598381D02*
X140469819Y-98788857D01*
X140469819Y-98788857D02*
X140422200Y-98884095D01*
X140422200Y-98884095D02*
X140374580Y-98931714D01*
X140374580Y-98931714D02*
X140279342Y-98979333D01*
X140279342Y-98979333D02*
X139469819Y-98979333D01*
X140469819Y-99979333D02*
X140469819Y-99407905D01*
X140469819Y-99693619D02*
X139469819Y-99693619D01*
X139469819Y-99693619D02*
X139612676Y-99598381D01*
X139612676Y-99598381D02*
X139707914Y-99503143D01*
X139707914Y-99503143D02*
X139755533Y-99407905D01*
X139469819Y-100312667D02*
X139469819Y-100931714D01*
X139469819Y-100931714D02*
X139850771Y-100598381D01*
X139850771Y-100598381D02*
X139850771Y-100741238D01*
X139850771Y-100741238D02*
X139898390Y-100836476D01*
X139898390Y-100836476D02*
X139946009Y-100884095D01*
X139946009Y-100884095D02*
X140041247Y-100931714D01*
X140041247Y-100931714D02*
X140279342Y-100931714D01*
X140279342Y-100931714D02*
X140374580Y-100884095D01*
X140374580Y-100884095D02*
X140422200Y-100836476D01*
X140422200Y-100836476D02*
X140469819Y-100741238D01*
X140469819Y-100741238D02*
X140469819Y-100455524D01*
X140469819Y-100455524D02*
X140422200Y-100360286D01*
X140422200Y-100360286D02*
X140374580Y-100312667D01*
X64660082Y-83866626D02*
X65407985Y-84176417D01*
X65407985Y-84176417D02*
X65477750Y-84256857D01*
X65477750Y-84256857D02*
X65503522Y-84319075D01*
X65503522Y-84319075D02*
X65511070Y-84425286D01*
X65511070Y-84425286D02*
X65438178Y-84601263D01*
X65438178Y-84601263D02*
X65357737Y-84671029D01*
X65357737Y-84671029D02*
X65295520Y-84696800D01*
X65295520Y-84696800D02*
X65189309Y-84704348D01*
X65189309Y-84704348D02*
X64441406Y-84394557D01*
X64403129Y-85358009D02*
X65019048Y-85613131D01*
X64142290Y-84992253D02*
X64893319Y-85045627D01*
X64893319Y-85045627D02*
X64656419Y-85617553D01*
X91099819Y-63492142D02*
X90623628Y-63158809D01*
X91099819Y-62920714D02*
X90099819Y-62920714D01*
X90099819Y-62920714D02*
X90099819Y-63301666D01*
X90099819Y-63301666D02*
X90147438Y-63396904D01*
X90147438Y-63396904D02*
X90195057Y-63444523D01*
X90195057Y-63444523D02*
X90290295Y-63492142D01*
X90290295Y-63492142D02*
X90433152Y-63492142D01*
X90433152Y-63492142D02*
X90528390Y-63444523D01*
X90528390Y-63444523D02*
X90576009Y-63396904D01*
X90576009Y-63396904D02*
X90623628Y-63301666D01*
X90623628Y-63301666D02*
X90623628Y-62920714D01*
X91099819Y-64444523D02*
X91099819Y-63873095D01*
X91099819Y-64158809D02*
X90099819Y-64158809D01*
X90099819Y-64158809D02*
X90242676Y-64063571D01*
X90242676Y-64063571D02*
X90337914Y-63968333D01*
X90337914Y-63968333D02*
X90385533Y-63873095D01*
X90099819Y-64777857D02*
X90099819Y-65444523D01*
X90099819Y-65444523D02*
X91099819Y-65015952D01*
X91004580Y-66667142D02*
X91052200Y-66619523D01*
X91052200Y-66619523D02*
X91099819Y-66476666D01*
X91099819Y-66476666D02*
X91099819Y-66381428D01*
X91099819Y-66381428D02*
X91052200Y-66238571D01*
X91052200Y-66238571D02*
X90956961Y-66143333D01*
X90956961Y-66143333D02*
X90861723Y-66095714D01*
X90861723Y-66095714D02*
X90671247Y-66048095D01*
X90671247Y-66048095D02*
X90528390Y-66048095D01*
X90528390Y-66048095D02*
X90337914Y-66095714D01*
X90337914Y-66095714D02*
X90242676Y-66143333D01*
X90242676Y-66143333D02*
X90147438Y-66238571D01*
X90147438Y-66238571D02*
X90099819Y-66381428D01*
X90099819Y-66381428D02*
X90099819Y-66476666D01*
X90099819Y-66476666D02*
X90147438Y-66619523D01*
X90147438Y-66619523D02*
X90195057Y-66667142D01*
X91099819Y-67619523D02*
X91099819Y-67048095D01*
X91099819Y-67333809D02*
X90099819Y-67333809D01*
X90099819Y-67333809D02*
X90242676Y-67238571D01*
X90242676Y-67238571D02*
X90337914Y-67143333D01*
X90337914Y-67143333D02*
X90385533Y-67048095D01*
X90099819Y-67952857D02*
X90099819Y-68619523D01*
X90099819Y-68619523D02*
X91099819Y-68190952D01*
X96084580Y-74287142D02*
X96132200Y-74239523D01*
X96132200Y-74239523D02*
X96179819Y-74096666D01*
X96179819Y-74096666D02*
X96179819Y-74001428D01*
X96179819Y-74001428D02*
X96132200Y-73858571D01*
X96132200Y-73858571D02*
X96036961Y-73763333D01*
X96036961Y-73763333D02*
X95941723Y-73715714D01*
X95941723Y-73715714D02*
X95751247Y-73668095D01*
X95751247Y-73668095D02*
X95608390Y-73668095D01*
X95608390Y-73668095D02*
X95417914Y-73715714D01*
X95417914Y-73715714D02*
X95322676Y-73763333D01*
X95322676Y-73763333D02*
X95227438Y-73858571D01*
X95227438Y-73858571D02*
X95179819Y-74001428D01*
X95179819Y-74001428D02*
X95179819Y-74096666D01*
X95179819Y-74096666D02*
X95227438Y-74239523D01*
X95227438Y-74239523D02*
X95275057Y-74287142D01*
X96179819Y-75239523D02*
X96179819Y-74668095D01*
X96179819Y-74953809D02*
X95179819Y-74953809D01*
X95179819Y-74953809D02*
X95322676Y-74858571D01*
X95322676Y-74858571D02*
X95417914Y-74763333D01*
X95417914Y-74763333D02*
X95465533Y-74668095D01*
X95275057Y-75620476D02*
X95227438Y-75668095D01*
X95227438Y-75668095D02*
X95179819Y-75763333D01*
X95179819Y-75763333D02*
X95179819Y-76001428D01*
X95179819Y-76001428D02*
X95227438Y-76096666D01*
X95227438Y-76096666D02*
X95275057Y-76144285D01*
X95275057Y-76144285D02*
X95370295Y-76191904D01*
X95370295Y-76191904D02*
X95465533Y-76191904D01*
X95465533Y-76191904D02*
X95608390Y-76144285D01*
X95608390Y-76144285D02*
X96179819Y-75572857D01*
X96179819Y-75572857D02*
X96179819Y-76191904D01*
X96179819Y-63492142D02*
X95703628Y-63158809D01*
X96179819Y-62920714D02*
X95179819Y-62920714D01*
X95179819Y-62920714D02*
X95179819Y-63301666D01*
X95179819Y-63301666D02*
X95227438Y-63396904D01*
X95227438Y-63396904D02*
X95275057Y-63444523D01*
X95275057Y-63444523D02*
X95370295Y-63492142D01*
X95370295Y-63492142D02*
X95513152Y-63492142D01*
X95513152Y-63492142D02*
X95608390Y-63444523D01*
X95608390Y-63444523D02*
X95656009Y-63396904D01*
X95656009Y-63396904D02*
X95703628Y-63301666D01*
X95703628Y-63301666D02*
X95703628Y-62920714D01*
X96179819Y-64444523D02*
X96179819Y-63873095D01*
X96179819Y-64158809D02*
X95179819Y-64158809D01*
X95179819Y-64158809D02*
X95322676Y-64063571D01*
X95322676Y-64063571D02*
X95417914Y-63968333D01*
X95417914Y-63968333D02*
X95465533Y-63873095D01*
X95179819Y-64777857D02*
X95179819Y-65396904D01*
X95179819Y-65396904D02*
X95560771Y-65063571D01*
X95560771Y-65063571D02*
X95560771Y-65206428D01*
X95560771Y-65206428D02*
X95608390Y-65301666D01*
X95608390Y-65301666D02*
X95656009Y-65349285D01*
X95656009Y-65349285D02*
X95751247Y-65396904D01*
X95751247Y-65396904D02*
X95989342Y-65396904D01*
X95989342Y-65396904D02*
X96084580Y-65349285D01*
X96084580Y-65349285D02*
X96132200Y-65301666D01*
X96132200Y-65301666D02*
X96179819Y-65206428D01*
X96179819Y-65206428D02*
X96179819Y-64920714D01*
X96179819Y-64920714D02*
X96132200Y-64825476D01*
X96132200Y-64825476D02*
X96084580Y-64777857D01*
X86479532Y-62828561D02*
X86789323Y-63576463D01*
X86789323Y-63576463D02*
X86781775Y-63682675D01*
X86781775Y-63682675D02*
X86756004Y-63744892D01*
X86756004Y-63744892D02*
X86686238Y-63825332D01*
X86686238Y-63825332D02*
X86510261Y-63898224D01*
X86510261Y-63898224D02*
X86404050Y-63890676D01*
X86404050Y-63890676D02*
X86341832Y-63864905D01*
X86341832Y-63864905D02*
X86261392Y-63795139D01*
X86261392Y-63795139D02*
X85951601Y-63047237D01*
X85592099Y-63299233D02*
X85529881Y-63273461D01*
X85529881Y-63273461D02*
X85423670Y-63265913D01*
X85423670Y-63265913D02*
X85203698Y-63357028D01*
X85203698Y-63357028D02*
X85133933Y-63437469D01*
X85133933Y-63437469D02*
X85108162Y-63499686D01*
X85108162Y-63499686D02*
X85100613Y-63605897D01*
X85100613Y-63605897D02*
X85137059Y-63693886D01*
X85137059Y-63693886D02*
X85235723Y-63807646D01*
X85235723Y-63807646D02*
X85982330Y-64116901D01*
X85982330Y-64116901D02*
X85410405Y-64353800D01*
X96179819Y-71112142D02*
X95703628Y-70778809D01*
X96179819Y-70540714D02*
X95179819Y-70540714D01*
X95179819Y-70540714D02*
X95179819Y-70921666D01*
X95179819Y-70921666D02*
X95227438Y-71016904D01*
X95227438Y-71016904D02*
X95275057Y-71064523D01*
X95275057Y-71064523D02*
X95370295Y-71112142D01*
X95370295Y-71112142D02*
X95513152Y-71112142D01*
X95513152Y-71112142D02*
X95608390Y-71064523D01*
X95608390Y-71064523D02*
X95656009Y-71016904D01*
X95656009Y-71016904D02*
X95703628Y-70921666D01*
X95703628Y-70921666D02*
X95703628Y-70540714D01*
X96179819Y-72064523D02*
X96179819Y-71493095D01*
X96179819Y-71778809D02*
X95179819Y-71778809D01*
X95179819Y-71778809D02*
X95322676Y-71683571D01*
X95322676Y-71683571D02*
X95417914Y-71588333D01*
X95417914Y-71588333D02*
X95465533Y-71493095D01*
X95275057Y-72445476D02*
X95227438Y-72493095D01*
X95227438Y-72493095D02*
X95179819Y-72588333D01*
X95179819Y-72588333D02*
X95179819Y-72826428D01*
X95179819Y-72826428D02*
X95227438Y-72921666D01*
X95227438Y-72921666D02*
X95275057Y-72969285D01*
X95275057Y-72969285D02*
X95370295Y-73016904D01*
X95370295Y-73016904D02*
X95465533Y-73016904D01*
X95465533Y-73016904D02*
X95608390Y-72969285D01*
X95608390Y-72969285D02*
X96179819Y-72397857D01*
X96179819Y-72397857D02*
X96179819Y-73016904D01*
X138004666Y-85640474D02*
X137256764Y-85950266D01*
X137256764Y-85950266D02*
X137150552Y-85942717D01*
X137150552Y-85942717D02*
X137088335Y-85916946D01*
X137088335Y-85916946D02*
X137007895Y-85847181D01*
X137007895Y-85847181D02*
X136935003Y-85671204D01*
X136935003Y-85671204D02*
X136942551Y-85564992D01*
X136942551Y-85564992D02*
X136968322Y-85502775D01*
X136968322Y-85502775D02*
X137038088Y-85422334D01*
X137038088Y-85422334D02*
X137785990Y-85112543D01*
X136479427Y-84571347D02*
X136698103Y-85099278D01*
X136588765Y-84835313D02*
X137512645Y-84452629D01*
X137512645Y-84452629D02*
X137417108Y-84595287D01*
X137417108Y-84595287D02*
X137365566Y-84719721D01*
X137365566Y-84719721D02*
X137358017Y-84825933D01*
X136767332Y-83524328D02*
X136151413Y-83779450D01*
X137210402Y-83598515D02*
X136641603Y-84091832D01*
X136641603Y-84091832D02*
X136404704Y-83519906D01*
X103799819Y-63968333D02*
X103323628Y-63635000D01*
X103799819Y-63396905D02*
X102799819Y-63396905D01*
X102799819Y-63396905D02*
X102799819Y-63777857D01*
X102799819Y-63777857D02*
X102847438Y-63873095D01*
X102847438Y-63873095D02*
X102895057Y-63920714D01*
X102895057Y-63920714D02*
X102990295Y-63968333D01*
X102990295Y-63968333D02*
X103133152Y-63968333D01*
X103133152Y-63968333D02*
X103228390Y-63920714D01*
X103228390Y-63920714D02*
X103276009Y-63873095D01*
X103276009Y-63873095D02*
X103323628Y-63777857D01*
X103323628Y-63777857D02*
X103323628Y-63396905D01*
X102799819Y-64301667D02*
X102799819Y-64968333D01*
X102799819Y-64968333D02*
X103799819Y-64539762D01*
X98719819Y-63492142D02*
X98243628Y-63158809D01*
X98719819Y-62920714D02*
X97719819Y-62920714D01*
X97719819Y-62920714D02*
X97719819Y-63301666D01*
X97719819Y-63301666D02*
X97767438Y-63396904D01*
X97767438Y-63396904D02*
X97815057Y-63444523D01*
X97815057Y-63444523D02*
X97910295Y-63492142D01*
X97910295Y-63492142D02*
X98053152Y-63492142D01*
X98053152Y-63492142D02*
X98148390Y-63444523D01*
X98148390Y-63444523D02*
X98196009Y-63396904D01*
X98196009Y-63396904D02*
X98243628Y-63301666D01*
X98243628Y-63301666D02*
X98243628Y-62920714D01*
X98719819Y-64444523D02*
X98719819Y-63873095D01*
X98719819Y-64158809D02*
X97719819Y-64158809D01*
X97719819Y-64158809D02*
X97862676Y-64063571D01*
X97862676Y-64063571D02*
X97957914Y-63968333D01*
X97957914Y-63968333D02*
X98005533Y-63873095D01*
X98719819Y-65396904D02*
X98719819Y-64825476D01*
X98719819Y-65111190D02*
X97719819Y-65111190D01*
X97719819Y-65111190D02*
X97862676Y-65015952D01*
X97862676Y-65015952D02*
X97957914Y-64920714D01*
X97957914Y-64920714D02*
X98005533Y-64825476D01*
X98624580Y-66667142D02*
X98672200Y-66619523D01*
X98672200Y-66619523D02*
X98719819Y-66476666D01*
X98719819Y-66476666D02*
X98719819Y-66381428D01*
X98719819Y-66381428D02*
X98672200Y-66238571D01*
X98672200Y-66238571D02*
X98576961Y-66143333D01*
X98576961Y-66143333D02*
X98481723Y-66095714D01*
X98481723Y-66095714D02*
X98291247Y-66048095D01*
X98291247Y-66048095D02*
X98148390Y-66048095D01*
X98148390Y-66048095D02*
X97957914Y-66095714D01*
X97957914Y-66095714D02*
X97862676Y-66143333D01*
X97862676Y-66143333D02*
X97767438Y-66238571D01*
X97767438Y-66238571D02*
X97719819Y-66381428D01*
X97719819Y-66381428D02*
X97719819Y-66476666D01*
X97719819Y-66476666D02*
X97767438Y-66619523D01*
X97767438Y-66619523D02*
X97815057Y-66667142D01*
X98719819Y-67619523D02*
X98719819Y-67048095D01*
X98719819Y-67333809D02*
X97719819Y-67333809D01*
X97719819Y-67333809D02*
X97862676Y-67238571D01*
X97862676Y-67238571D02*
X97957914Y-67143333D01*
X97957914Y-67143333D02*
X98005533Y-67048095D01*
X98719819Y-68571904D02*
X98719819Y-68000476D01*
X98719819Y-68286190D02*
X97719819Y-68286190D01*
X97719819Y-68286190D02*
X97862676Y-68190952D01*
X97862676Y-68190952D02*
X97957914Y-68095714D01*
X97957914Y-68095714D02*
X98005533Y-68000476D01*
X65698060Y-115162018D02*
X64950158Y-115471809D01*
X64950158Y-115471809D02*
X64843946Y-115464261D01*
X64843946Y-115464261D02*
X64781729Y-115438490D01*
X64781729Y-115438490D02*
X64701289Y-115368724D01*
X64701289Y-115368724D02*
X64628397Y-115192747D01*
X64628397Y-115192747D02*
X64635945Y-115086536D01*
X64635945Y-115086536D02*
X64661716Y-115024318D01*
X64661716Y-115024318D02*
X64731482Y-114943878D01*
X64731482Y-114943878D02*
X65479384Y-114634087D01*
X65133147Y-113798196D02*
X65206039Y-113974173D01*
X65206039Y-113974173D02*
X65198491Y-114080384D01*
X65198491Y-114080384D02*
X65172719Y-114142602D01*
X65172719Y-114142602D02*
X65077183Y-114285259D01*
X65077183Y-114285259D02*
X64919429Y-114402146D01*
X64919429Y-114402146D02*
X64567474Y-114547930D01*
X64567474Y-114547930D02*
X64461263Y-114540382D01*
X64461263Y-114540382D02*
X64399046Y-114514610D01*
X64399046Y-114514610D02*
X64318605Y-114444845D01*
X64318605Y-114444845D02*
X64245713Y-114268868D01*
X64245713Y-114268868D02*
X64253261Y-114162656D01*
X64253261Y-114162656D02*
X64279033Y-114100439D01*
X64279033Y-114100439D02*
X64348798Y-114019999D01*
X64348798Y-114019999D02*
X64568770Y-113928884D01*
X64568770Y-113928884D02*
X64674981Y-113936432D01*
X64674981Y-113936432D02*
X64737198Y-113962203D01*
X64737198Y-113962203D02*
X64817639Y-114031969D01*
X64817639Y-114031969D02*
X64890531Y-114207946D01*
X64890531Y-114207946D02*
X64882983Y-114314157D01*
X64882983Y-114314157D02*
X64857211Y-114376374D01*
X64857211Y-114376374D02*
X64787446Y-114456815D01*
X91004580Y-74287142D02*
X91052200Y-74239523D01*
X91052200Y-74239523D02*
X91099819Y-74096666D01*
X91099819Y-74096666D02*
X91099819Y-74001428D01*
X91099819Y-74001428D02*
X91052200Y-73858571D01*
X91052200Y-73858571D02*
X90956961Y-73763333D01*
X90956961Y-73763333D02*
X90861723Y-73715714D01*
X90861723Y-73715714D02*
X90671247Y-73668095D01*
X90671247Y-73668095D02*
X90528390Y-73668095D01*
X90528390Y-73668095D02*
X90337914Y-73715714D01*
X90337914Y-73715714D02*
X90242676Y-73763333D01*
X90242676Y-73763333D02*
X90147438Y-73858571D01*
X90147438Y-73858571D02*
X90099819Y-74001428D01*
X90099819Y-74001428D02*
X90099819Y-74096666D01*
X90099819Y-74096666D02*
X90147438Y-74239523D01*
X90147438Y-74239523D02*
X90195057Y-74287142D01*
X91099819Y-75239523D02*
X91099819Y-74668095D01*
X91099819Y-74953809D02*
X90099819Y-74953809D01*
X90099819Y-74953809D02*
X90242676Y-74858571D01*
X90242676Y-74858571D02*
X90337914Y-74763333D01*
X90337914Y-74763333D02*
X90385533Y-74668095D01*
X90099819Y-76096666D02*
X90099819Y-75906190D01*
X90099819Y-75906190D02*
X90147438Y-75810952D01*
X90147438Y-75810952D02*
X90195057Y-75763333D01*
X90195057Y-75763333D02*
X90337914Y-75668095D01*
X90337914Y-75668095D02*
X90528390Y-75620476D01*
X90528390Y-75620476D02*
X90909342Y-75620476D01*
X90909342Y-75620476D02*
X91004580Y-75668095D01*
X91004580Y-75668095D02*
X91052200Y-75715714D01*
X91052200Y-75715714D02*
X91099819Y-75810952D01*
X91099819Y-75810952D02*
X91099819Y-76001428D01*
X91099819Y-76001428D02*
X91052200Y-76096666D01*
X91052200Y-76096666D02*
X91004580Y-76144285D01*
X91004580Y-76144285D02*
X90909342Y-76191904D01*
X90909342Y-76191904D02*
X90671247Y-76191904D01*
X90671247Y-76191904D02*
X90576009Y-76144285D01*
X90576009Y-76144285D02*
X90528390Y-76096666D01*
X90528390Y-76096666D02*
X90480771Y-76001428D01*
X90480771Y-76001428D02*
X90480771Y-75810952D01*
X90480771Y-75810952D02*
X90528390Y-75715714D01*
X90528390Y-75715714D02*
X90576009Y-75668095D01*
X90576009Y-75668095D02*
X90671247Y-75620476D01*
X129095767Y-126009268D02*
X129668186Y-126581688D01*
X129668186Y-126581688D02*
X129701858Y-126682703D01*
X129701858Y-126682703D02*
X129701858Y-126750047D01*
X129701858Y-126750047D02*
X129668186Y-126851062D01*
X129668186Y-126851062D02*
X129533499Y-126985749D01*
X129533499Y-126985749D02*
X129432484Y-127019421D01*
X129432484Y-127019421D02*
X129365141Y-127019421D01*
X129365141Y-127019421D02*
X129264125Y-126985749D01*
X129264125Y-126985749D02*
X128691706Y-126413329D01*
X128691706Y-127827543D02*
X129095767Y-127423482D01*
X128893736Y-127625512D02*
X128186629Y-126918405D01*
X128186629Y-126918405D02*
X128354988Y-126952077D01*
X128354988Y-126952077D02*
X128489675Y-126952077D01*
X128489675Y-126952077D02*
X128590690Y-126918405D01*
X128018271Y-128500978D02*
X128422332Y-128096917D01*
X128220301Y-128298947D02*
X127513194Y-127591840D01*
X127513194Y-127591840D02*
X127681553Y-127625512D01*
X127681553Y-127625512D02*
X127816240Y-127625512D01*
X127816240Y-127625512D02*
X127917255Y-127591840D01*
X101766904Y-138190819D02*
X101766904Y-139000342D01*
X101766904Y-139000342D02*
X101719285Y-139095580D01*
X101719285Y-139095580D02*
X101671666Y-139143200D01*
X101671666Y-139143200D02*
X101576428Y-139190819D01*
X101576428Y-139190819D02*
X101385952Y-139190819D01*
X101385952Y-139190819D02*
X101290714Y-139143200D01*
X101290714Y-139143200D02*
X101243095Y-139095580D01*
X101243095Y-139095580D02*
X101195476Y-139000342D01*
X101195476Y-139000342D02*
X101195476Y-138190819D01*
X100671666Y-139190819D02*
X100481190Y-139190819D01*
X100481190Y-139190819D02*
X100385952Y-139143200D01*
X100385952Y-139143200D02*
X100338333Y-139095580D01*
X100338333Y-139095580D02*
X100243095Y-138952723D01*
X100243095Y-138952723D02*
X100195476Y-138762247D01*
X100195476Y-138762247D02*
X100195476Y-138381295D01*
X100195476Y-138381295D02*
X100243095Y-138286057D01*
X100243095Y-138286057D02*
X100290714Y-138238438D01*
X100290714Y-138238438D02*
X100385952Y-138190819D01*
X100385952Y-138190819D02*
X100576428Y-138190819D01*
X100576428Y-138190819D02*
X100671666Y-138238438D01*
X100671666Y-138238438D02*
X100719285Y-138286057D01*
X100719285Y-138286057D02*
X100766904Y-138381295D01*
X100766904Y-138381295D02*
X100766904Y-138619390D01*
X100766904Y-138619390D02*
X100719285Y-138714628D01*
X100719285Y-138714628D02*
X100671666Y-138762247D01*
X100671666Y-138762247D02*
X100576428Y-138809866D01*
X100576428Y-138809866D02*
X100385952Y-138809866D01*
X100385952Y-138809866D02*
X100290714Y-138762247D01*
X100290714Y-138762247D02*
X100243095Y-138714628D01*
X100243095Y-138714628D02*
X100195476Y-138619390D01*
D11*
%TO.C,R3*%
X110377500Y-63897742D02*
X110377500Y-64372258D01*
X109332500Y-63897742D02*
X109332500Y-64372258D01*
%TO.C,U8*%
X82126659Y-138371648D02*
X86829206Y-140319507D01*
X82256771Y-138057529D02*
X82126659Y-138371648D01*
X83144597Y-135914129D02*
X83278536Y-135590771D01*
X83278536Y-135590771D02*
X85680623Y-136585748D01*
X82588599Y-138562990D02*
G75*
G03*
X86468152Y-140171833I1978416J-711246D01*
G01*
%TO.C,C5*%
X107825000Y-67169420D02*
X107825000Y-67450580D01*
X106805000Y-67169420D02*
X106805000Y-67450580D01*
%TO.C,R15*%
X95137500Y-63897742D02*
X95137500Y-64372258D01*
X94092500Y-63897742D02*
X94092500Y-64372258D01*
%TO.C,C8*%
X102745000Y-74789420D02*
X102745000Y-75070580D01*
X101725000Y-74789420D02*
X101725000Y-75070580D01*
%TO.C,C10*%
X100205000Y-74789420D02*
X100205000Y-75070580D01*
X99185000Y-74789420D02*
X99185000Y-75070580D01*
%TO.C,R2*%
X110377500Y-71517742D02*
X110377500Y-71992258D01*
X109332500Y-71517742D02*
X109332500Y-71992258D01*
%TO.C,C4*%
X107825000Y-74789420D02*
X107825000Y-75070580D01*
X106805000Y-74789420D02*
X106805000Y-75070580D01*
%TO.C,R4*%
X107837500Y-71517742D02*
X107837500Y-71992258D01*
X106792500Y-71517742D02*
X106792500Y-71992258D01*
%TO.C,C9*%
X102745000Y-67169420D02*
X102745000Y-67450580D01*
X101725000Y-67169420D02*
X101725000Y-67450580D01*
%TO.C,U16*%
X119803340Y-61000351D02*
X115100793Y-59052492D01*
X119673228Y-61314470D02*
X119803340Y-61000351D01*
X118785402Y-63457870D02*
X118651463Y-63781228D01*
X118651463Y-63781228D02*
X116249376Y-62786251D01*
X119341400Y-60809009D02*
G75*
G03*
X115461847Y-59200166I-1978416J711246D01*
G01*
%TO.C,U15*%
X133173714Y-71154240D02*
X129574540Y-67555067D01*
X132933297Y-71394657D02*
X133173714Y-71154240D01*
X131292810Y-73035144D02*
X131045322Y-73282632D01*
X131045322Y-73282632D02*
X129206845Y-71444154D01*
X132820160Y-70800687D02*
G75*
G03*
X129851599Y-67829671I-1555635J1414213D01*
G01*
%TO.C,R6*%
X105297500Y-71517742D02*
X105297500Y-71992258D01*
X104252500Y-71517742D02*
X104252500Y-71992258D01*
%TO.C,R9*%
X102757500Y-63897742D02*
X102757500Y-64372258D01*
X101712500Y-63897742D02*
X101712500Y-64372258D01*
%TO.C,C7*%
X105285000Y-67169420D02*
X105285000Y-67450580D01*
X104265000Y-67169420D02*
X104265000Y-67450580D01*
%TO.C,C14*%
X95125000Y-74789420D02*
X95125000Y-75070580D01*
X94105000Y-74789420D02*
X94105000Y-75070580D01*
%TO.C,J1*%
X111895000Y-87865000D02*
X112395000Y-86865000D01*
X112895000Y-87865000D02*
X111895000Y-87865000D01*
X112395000Y-86865000D02*
X112895000Y-87865000D01*
X84325000Y-86475000D02*
X117605000Y-86475000D01*
X103015000Y-86475000D02*
X103015000Y-85165000D01*
X117605000Y-86475000D02*
X117605000Y-77355000D01*
X85625000Y-85165000D02*
X98915000Y-85165000D01*
X98915000Y-85165000D02*
X98915000Y-86475000D01*
X98915000Y-85165000D02*
X98915000Y-85165000D01*
X103015000Y-85165000D02*
X116305000Y-85165000D01*
X116305000Y-85165000D02*
X116305000Y-78665000D01*
X85625000Y-78665000D02*
X85625000Y-85165000D01*
X116305000Y-78665000D02*
X85625000Y-78665000D01*
X84325000Y-77355000D02*
X84325000Y-86475000D01*
X117605000Y-77355000D02*
X84325000Y-77355000D01*
%TO.C,R10*%
X100217500Y-71517742D02*
X100217500Y-71992258D01*
X99172500Y-71517742D02*
X99172500Y-71992258D01*
%TO.C,C2*%
X110365000Y-74789420D02*
X110365000Y-75070580D01*
X109345000Y-74789420D02*
X109345000Y-75070580D01*
%TO.C,U1*%
X103565000Y-56736000D02*
X98475000Y-56736000D01*
X103565000Y-57076000D02*
X103565000Y-56736000D01*
X103565000Y-59396000D02*
X103565000Y-59746000D01*
X103565000Y-59746000D02*
X100965000Y-59746000D01*
X103065000Y-56736000D02*
G75*
G03*
X98865083Y-56734264I-2100000J-100001D01*
G01*
%TO.C,C13*%
X97665000Y-67169420D02*
X97665000Y-67450580D01*
X96645000Y-67169420D02*
X96645000Y-67450580D01*
%TO.C,C6*%
X105285000Y-74789420D02*
X105285000Y-75070580D01*
X104265000Y-74789420D02*
X104265000Y-75070580D01*
%TO.C,R14*%
X95137500Y-71517742D02*
X95137500Y-71992258D01*
X94092500Y-71517742D02*
X94092500Y-71992258D01*
%TO.C,R5*%
X107837500Y-63897742D02*
X107837500Y-64372258D01*
X106792500Y-63897742D02*
X106792500Y-64372258D01*
%TO.C,U12*%
X139650648Y-118524340D02*
X141598507Y-113821793D01*
X139336529Y-118394228D02*
X139650648Y-118524340D01*
X137193129Y-117506402D02*
X136869771Y-117372463D01*
X136869771Y-117372463D02*
X137864748Y-114970376D01*
X139841990Y-118062400D02*
G75*
G03*
X141450833Y-114182847I711246J1978416D01*
G01*
%TO.C,C15*%
X95125000Y-67169420D02*
X95125000Y-67450580D01*
X94105000Y-67169420D02*
X94105000Y-67450580D01*
%TO.C,U7*%
X68756285Y-128217759D02*
X72355459Y-131816932D01*
X68996702Y-127977342D02*
X68756285Y-128217759D01*
X70637189Y-126336855D02*
X70884677Y-126089367D01*
X70884677Y-126089367D02*
X72723154Y-127927845D01*
X69109839Y-128571312D02*
G75*
G03*
X72078400Y-131542328I1555635J-1414213D01*
G01*
%TO.C,C3*%
X110365000Y-67169420D02*
X110365000Y-67450580D01*
X109345000Y-67169420D02*
X109345000Y-67450580D01*
%TO.C,U5*%
X58015000Y-97086000D02*
X58015000Y-102176000D01*
X58355000Y-97086000D02*
X58015000Y-97086000D01*
X60675000Y-97086000D02*
X61025000Y-97086000D01*
X61025000Y-97086000D02*
X61025000Y-99686000D01*
X58015000Y-97586000D02*
G75*
G03*
X58013264Y-101785917I100001J-2100000D01*
G01*
%TO.C,U10*%
X114999166Y-140361602D02*
X119701713Y-138413744D01*
X114869054Y-140047483D02*
X114999166Y-140361602D01*
X113981228Y-137904083D02*
X113847289Y-137580725D01*
X113847289Y-137580725D02*
X116249376Y-136585748D01*
X115461106Y-140170261D02*
G75*
G03*
X119341988Y-138564626I1901878J896025D01*
G01*
%TO.C,R16*%
X92597500Y-71517742D02*
X92597500Y-71992258D01*
X91552500Y-71517742D02*
X91552500Y-71992258D01*
%TO.C,U3*%
X72433240Y-67477285D02*
X68834067Y-71076459D01*
X72673657Y-67717702D02*
X72433240Y-67477285D01*
X74314144Y-69358189D02*
X74561632Y-69605677D01*
X74561632Y-69605677D02*
X72723154Y-71444154D01*
X72079687Y-67830839D02*
G75*
G03*
X69108671Y-70799400I-1414213J-1555635D01*
G01*
%TO.C,R8*%
X102757500Y-71517742D02*
X102757500Y-71992258D01*
X101712500Y-71517742D02*
X101712500Y-71992258D01*
%TO.C,U13*%
X143915000Y-102286000D02*
X143915000Y-97196000D01*
X143575000Y-102286000D02*
X143915000Y-102286000D01*
X141255000Y-102286000D02*
X140905000Y-102286000D01*
X140905000Y-102286000D02*
X140905000Y-99686000D01*
X143915000Y-101786000D02*
G75*
G03*
X143916736Y-97586083I-100001J2100000D01*
G01*
%TO.C,U4*%
X62279351Y-80847659D02*
X60331492Y-85550206D01*
X62593470Y-80977771D02*
X62279351Y-80847659D01*
X64736870Y-81865597D02*
X65060228Y-81999536D01*
X65060228Y-81999536D02*
X64065251Y-84401623D01*
X62088009Y-81309599D02*
G75*
G03*
X60479166Y-85189152I-711246J-1978416D01*
G01*
%TO.C,R17*%
X92597500Y-63897742D02*
X92597500Y-64372258D01*
X91552500Y-63897742D02*
X91552500Y-64372258D01*
%TO.C,C17*%
X92585000Y-67169420D02*
X92585000Y-67450580D01*
X91565000Y-67169420D02*
X91565000Y-67450580D01*
%TO.C,C12*%
X97665000Y-74789420D02*
X97665000Y-75070580D01*
X96645000Y-74789420D02*
X96645000Y-75070580D01*
%TO.C,R13*%
X97677500Y-63897742D02*
X97677500Y-64372258D01*
X96632500Y-63897742D02*
X96632500Y-64372258D01*
%TO.C,U2*%
X86930833Y-59010397D02*
X82228286Y-60958255D01*
X87060945Y-59324516D02*
X86930833Y-59010397D01*
X87948771Y-61467916D02*
X88082710Y-61791274D01*
X88082710Y-61791274D02*
X85680623Y-62786251D01*
X86468893Y-59201738D02*
G75*
G03*
X82588011Y-60807373I-1901878J-896025D01*
G01*
%TO.C,R12*%
X97677500Y-71517742D02*
X97677500Y-71992258D01*
X96632500Y-71517742D02*
X96632500Y-71992258D01*
%TO.C,U14*%
X141640602Y-85651833D02*
X139692744Y-80949286D01*
X141326483Y-85781945D02*
X141640602Y-85651833D01*
X139183083Y-86669771D02*
X138859725Y-86803710D01*
X138859725Y-86803710D02*
X137864748Y-84401623D01*
X141449261Y-85189893D02*
G75*
G03*
X139843626Y-81309011I-896025J1901878D01*
G01*
%TO.C,R7*%
X105297500Y-63897742D02*
X105297500Y-64372258D01*
X104252500Y-63897742D02*
X104252500Y-64372258D01*
%TO.C,R11*%
X100217500Y-63897742D02*
X100217500Y-64372258D01*
X99172500Y-63897742D02*
X99172500Y-64372258D01*
%TO.C,C11*%
X100205000Y-67169420D02*
X100205000Y-67450580D01*
X99185000Y-67169420D02*
X99185000Y-67450580D01*
%TO.C,U6*%
X60289397Y-113720166D02*
X62237255Y-118422713D01*
X60603516Y-113590054D02*
X60289397Y-113720166D01*
X62746916Y-112702228D02*
X63070274Y-112568289D01*
X63070274Y-112568289D02*
X64065251Y-114970376D01*
X60480738Y-114182106D02*
G75*
G03*
X62086373Y-118062988I896025J-1901878D01*
G01*
%TO.C,C16*%
X92585000Y-74789420D02*
X92585000Y-75070580D01*
X91565000Y-74789420D02*
X91565000Y-75070580D01*
%TO.C,U11*%
X129496759Y-131894714D02*
X133095932Y-128295540D01*
X129256342Y-131654297D02*
X129496759Y-131894714D01*
X127615855Y-130013810D02*
X127368367Y-129766322D01*
X127368367Y-129766322D02*
X129206845Y-127927845D01*
X129850312Y-131541160D02*
G75*
G03*
X132821328Y-128572599I1414213J1555635D01*
G01*
%TO.C,U9*%
X98365000Y-142636000D02*
X103455000Y-142636000D01*
X98365000Y-142296000D02*
X98365000Y-142636000D01*
X98365000Y-139976000D02*
X98365000Y-139626000D01*
X98365000Y-139626000D02*
X100965000Y-139626000D01*
X98865000Y-142636000D02*
G75*
G03*
X103064917Y-142637736I2100000J100001D01*
G01*
%TD*%
%LPC*%
D12*
%TO.C,REF\u002A\u002A*%
X84465000Y-71107200D03*
%TD*%
%TO.C,REF\u002A\u002A*%
X135134565Y-96441978D03*
%TD*%
%TO.C,REF\u002A\u002A*%
X117465000Y-128264838D03*
%TD*%
%TO.C,REF\u002A\u002A*%
X84465000Y-128264840D03*
%TD*%
%TO.C,REF\u002A\u002A*%
X135134600Y-102930000D03*
%TD*%
%TO.C,REF\u002A\u002A*%
X117465000Y-71107162D03*
%TD*%
D13*
%TO.C,R3*%
X109855000Y-63310000D03*
X109855000Y-64960000D03*
%TD*%
D14*
%TO.C,U8*%
X87449425Y-138952822D03*
D15*
X85102771Y-137980806D03*
X82756117Y-137008790D03*
%TD*%
D16*
%TO.C,C5*%
X107315000Y-66535000D03*
X107315000Y-68085000D03*
%TD*%
D13*
%TO.C,R15*%
X94615000Y-63310000D03*
X94615000Y-64960000D03*
%TD*%
D16*
%TO.C,C8*%
X102235000Y-74155000D03*
X102235000Y-75705000D03*
%TD*%
%TO.C,C10*%
X99695000Y-74155000D03*
X99695000Y-75705000D03*
%TD*%
D13*
%TO.C,R2*%
X109855000Y-70930000D03*
X109855000Y-72580000D03*
%TD*%
D16*
%TO.C,C4*%
X107315000Y-74155000D03*
X107315000Y-75705000D03*
%TD*%
D13*
%TO.C,R4*%
X107315000Y-70930000D03*
X107315000Y-72580000D03*
%TD*%
D16*
%TO.C,C9*%
X102235000Y-66535000D03*
X102235000Y-68085000D03*
%TD*%
D17*
%TO.C,U16*%
X114480574Y-60419177D03*
D15*
X116827228Y-61391193D03*
X119173882Y-62363209D03*
%TD*%
D18*
%TO.C,U15*%
X128478525Y-68580372D03*
D15*
X130274576Y-70376423D03*
X132070627Y-72172474D03*
%TD*%
D13*
%TO.C,R6*%
X104775000Y-70930000D03*
X104775000Y-72580000D03*
%TD*%
%TO.C,R9*%
X102235000Y-63310000D03*
X102235000Y-64960000D03*
%TD*%
D16*
%TO.C,C7*%
X104775000Y-66535000D03*
X104775000Y-68085000D03*
%TD*%
%TO.C,C14*%
X94615000Y-74155000D03*
X94615000Y-75705000D03*
%TD*%
D19*
%TO.C,J1*%
X112395000Y-83185000D03*
D20*
X112395000Y-80645000D03*
X109855000Y-83185000D03*
X109855000Y-80645000D03*
X107315000Y-83185000D03*
X107315000Y-80645000D03*
X104775000Y-83185000D03*
X104775000Y-80645000D03*
X102235000Y-83185000D03*
X102235000Y-80645000D03*
X99695000Y-83185000D03*
X99695000Y-80645000D03*
X97155000Y-83185000D03*
X97155000Y-80645000D03*
X94615000Y-83185000D03*
X94615000Y-80645000D03*
X92075000Y-83185000D03*
X92075000Y-80645000D03*
X89535000Y-83185000D03*
X89535000Y-80645000D03*
%TD*%
D13*
%TO.C,R10*%
X99695000Y-70930000D03*
X99695000Y-72580000D03*
%TD*%
D16*
%TO.C,C2*%
X109855000Y-74155000D03*
X109855000Y-75705000D03*
%TD*%
D21*
%TO.C,U1*%
X98425000Y-58236000D03*
D15*
X100965000Y-58236000D03*
X103505000Y-58236000D03*
%TD*%
D16*
%TO.C,C13*%
X97155000Y-66535000D03*
X97155000Y-68085000D03*
%TD*%
%TO.C,C6*%
X104775000Y-74155000D03*
X104775000Y-75705000D03*
%TD*%
D13*
%TO.C,R14*%
X94615000Y-70930000D03*
X94615000Y-72580000D03*
%TD*%
%TO.C,R5*%
X107315000Y-63310000D03*
X107315000Y-64960000D03*
%TD*%
D22*
%TO.C,U12*%
X140231822Y-113201574D03*
D15*
X139259806Y-115548228D03*
X138287790Y-117894882D03*
%TD*%
D16*
%TO.C,C15*%
X94615000Y-66535000D03*
X94615000Y-68085000D03*
%TD*%
D23*
%TO.C,U7*%
X73451474Y-130791627D03*
D15*
X71655423Y-128995576D03*
X69859372Y-127199525D03*
%TD*%
D16*
%TO.C,C3*%
X109855000Y-66535000D03*
X109855000Y-68085000D03*
%TD*%
D24*
%TO.C,U5*%
X59515000Y-102226000D03*
D15*
X59515000Y-99686000D03*
X59515000Y-97146000D03*
%TD*%
D25*
%TO.C,U10*%
X119173882Y-137008790D03*
D15*
X116827228Y-137980806D03*
X114480574Y-138952822D03*
%TD*%
D13*
%TO.C,R16*%
X92075000Y-70930000D03*
X92075000Y-72580000D03*
%TD*%
D26*
%TO.C,U3*%
X69859372Y-72172474D03*
D15*
X71655423Y-70376423D03*
X73451474Y-68580372D03*
%TD*%
D13*
%TO.C,R8*%
X102235000Y-70930000D03*
X102235000Y-72580000D03*
%TD*%
D27*
%TO.C,U13*%
X142415000Y-97146000D03*
D15*
X142415000Y-99686000D03*
X142415000Y-102226000D03*
%TD*%
D28*
%TO.C,U4*%
X61698177Y-86170425D03*
D15*
X62670193Y-83823771D03*
X63642209Y-81477117D03*
%TD*%
D13*
%TO.C,R17*%
X92075000Y-63310000D03*
X92075000Y-64960000D03*
%TD*%
D16*
%TO.C,C17*%
X92075000Y-66535000D03*
X92075000Y-68085000D03*
%TD*%
%TO.C,C12*%
X97155000Y-74155000D03*
X97155000Y-75705000D03*
%TD*%
D13*
%TO.C,R13*%
X97155000Y-63310000D03*
X97155000Y-64960000D03*
%TD*%
D29*
%TO.C,U2*%
X82756117Y-62363209D03*
D15*
X85102771Y-61391193D03*
X87449425Y-60419177D03*
%TD*%
D13*
%TO.C,R12*%
X97155000Y-70930000D03*
X97155000Y-72580000D03*
%TD*%
D30*
%TO.C,U14*%
X138287790Y-81477117D03*
D15*
X139259806Y-83823771D03*
X140231822Y-86170425D03*
%TD*%
D13*
%TO.C,R7*%
X104775000Y-63310000D03*
X104775000Y-64960000D03*
%TD*%
%TO.C,R11*%
X99695000Y-63310000D03*
X99695000Y-64960000D03*
%TD*%
D16*
%TO.C,C11*%
X99695000Y-66535000D03*
X99695000Y-68085000D03*
%TD*%
D31*
%TO.C,U6*%
X63642209Y-117894882D03*
D15*
X62670193Y-115548228D03*
X61698177Y-113201574D03*
%TD*%
D16*
%TO.C,C16*%
X92075000Y-74155000D03*
X92075000Y-75705000D03*
%TD*%
D32*
%TO.C,U11*%
X132070627Y-127199525D03*
D15*
X130274576Y-128995576D03*
X128478525Y-130791627D03*
%TD*%
D33*
%TO.C,U9*%
X103505000Y-141136000D03*
D15*
X100965000Y-141136000D03*
X98425000Y-141136000D03*
%TD*%
%LPD*%
M02*
