%TF.GenerationSoftware,KiCad,Pcbnew,7.0.6*%
%TF.CreationDate,2023-12-16T12:44:13+09:00*%
%TF.ProjectId,BallSensor_TSSP58038_20230330,42616c6c-5365-46e7-936f-725f54535350,rev?*%
%TF.SameCoordinates,Original*%
%TF.FileFunction,Legend,Top*%
%TF.FilePolarity,Positive*%
%FSLAX46Y46*%
G04 Gerber Fmt 4.6, Leading zero omitted, Abs format (unit mm)*
G04 Created by KiCad (PCBNEW 7.0.6) date 2023-12-16 12:44:13*
%MOMM*%
%LPD*%
G01*
G04 APERTURE LIST*
G04 Aperture macros list*
%AMRoundRect*
0 Rectangle with rounded corners*
0 $1 Rounding radius*
0 $2 $3 $4 $5 $6 $7 $8 $9 X,Y pos of 4 corners*
0 Add a 4 corners polygon primitive as box body*
4,1,4,$2,$3,$4,$5,$6,$7,$8,$9,$2,$3,0*
0 Add four circle primitives for the rounded corners*
1,1,$1+$1,$2,$3*
1,1,$1+$1,$4,$5*
1,1,$1+$1,$6,$7*
1,1,$1+$1,$8,$9*
0 Add four rect primitives between the rounded corners*
20,1,$1+$1,$2,$3,$4,$5,0*
20,1,$1+$1,$4,$5,$6,$7,0*
20,1,$1+$1,$6,$7,$8,$9,0*
20,1,$1+$1,$8,$9,$2,$3,0*%
G04 Aperture macros list end*
%ADD10C,0.150000*%
%ADD11C,0.120000*%
%ADD12C,0.260000*%
%ADD13RoundRect,0.225000X0.212132X0.530330X-0.530330X-0.212132X-0.212132X-0.530330X0.530330X0.212132X0*%
%ADD14RoundRect,0.225000X0.250000X-0.225000X0.250000X0.225000X-0.250000X0.225000X-0.250000X-0.225000X0*%
%ADD15RoundRect,0.225000X-0.571141X-0.006964X0.398933X-0.408782X0.571141X0.006964X-0.398933X0.408782X0*%
%ADD16C,3.200000*%
%ADD17RoundRect,0.225000X0.408782X-0.398933X0.006964X0.571141X-0.408782X0.398933X-0.006964X-0.571141X0*%
%ADD18RoundRect,0.200000X-0.200000X-0.275000X0.200000X-0.275000X0.200000X0.275000X-0.200000X0.275000X0*%
%ADD19RoundRect,0.225000X0.225000X0.250000X-0.225000X0.250000X-0.225000X-0.250000X0.225000X-0.250000X0*%
%ADD20RoundRect,0.225000X0.398933X0.408782X-0.571141X0.006964X-0.398933X-0.408782X0.571141X-0.006964X0*%
%ADD21RoundRect,0.225000X-0.530330X0.212132X0.212132X-0.530330X0.530330X-0.212132X-0.212132X0.530330X0*%
%ADD22RoundRect,0.250000X0.475000X-0.250000X0.475000X0.250000X-0.475000X0.250000X-0.475000X-0.250000X0*%
%ADD23RoundRect,0.225000X-0.225000X0.525000X-0.225000X-0.525000X0.225000X-0.525000X0.225000X0.525000X0*%
%ADD24RoundRect,0.225000X-0.250000X0.225000X-0.250000X-0.225000X0.250000X-0.225000X0.250000X0.225000X0*%
%ADD25RoundRect,0.225000X-0.212132X-0.530330X0.530330X0.212132X0.212132X0.530330X-0.530330X-0.212132X0*%
%ADD26RoundRect,0.225000X-0.335876X-0.017678X-0.017678X-0.335876X0.335876X0.017678X0.017678X0.335876X0*%
%ADD27RoundRect,0.225000X0.225000X-0.525000X0.225000X0.525000X-0.225000X0.525000X-0.225000X-0.525000X0*%
%ADD28RoundRect,0.225000X-0.398933X-0.408782X0.571141X-0.006964X0.398933X0.408782X-0.571141X0.006964X0*%
%ADD29RoundRect,0.225000X0.335876X0.017678X0.017678X0.335876X-0.335876X-0.017678X-0.017678X-0.335876X0*%
%ADD30RoundRect,0.218750X-0.218750X-0.256250X0.218750X-0.256250X0.218750X0.256250X-0.218750X0.256250X0*%
%ADD31RoundRect,0.225000X-0.006964X0.571141X-0.408782X-0.398933X0.006964X-0.571141X0.408782X0.398933X0*%
%ADD32RoundRect,0.225000X-0.525000X-0.225000X0.525000X-0.225000X0.525000X0.225000X-0.525000X0.225000X0*%
%ADD33RoundRect,0.225000X-0.225000X-0.250000X0.225000X-0.250000X0.225000X0.250000X-0.225000X0.250000X0*%
%ADD34RoundRect,0.225000X0.006964X-0.571141X0.408782X0.398933X-0.006964X0.571141X-0.408782X-0.398933X0*%
%ADD35RoundRect,0.225000X0.525000X0.225000X-0.525000X0.225000X-0.525000X-0.225000X0.525000X-0.225000X0*%
%ADD36RoundRect,0.225000X0.571141X0.006964X-0.398933X0.408782X-0.571141X-0.006964X0.398933X-0.408782X0*%
%ADD37RoundRect,0.225000X-0.408782X0.398933X-0.006964X-0.571141X0.408782X-0.398933X0.006964X0.571141X0*%
%ADD38RoundRect,0.225000X-0.017678X0.335876X-0.335876X0.017678X0.017678X-0.335876X0.335876X-0.017678X0*%
%ADD39RoundRect,0.225000X0.017678X-0.335876X0.335876X-0.017678X-0.017678X0.335876X-0.335876X0.017678X0*%
%ADD40RoundRect,0.225000X0.530330X-0.212132X-0.212132X0.530330X-0.530330X0.212132X0.212132X-0.530330X0*%
%ADD41RoundRect,0.250200X0.849005X0.351669X-0.351669X0.849005X-0.849005X-0.351669X0.351669X-0.849005X0*%
%ADD42C,1.800000*%
%ADD43RoundRect,0.250200X-0.849005X-0.351669X0.351669X-0.849005X0.849005X0.351669X-0.351669X0.849005X0*%
%ADD44RoundRect,0.250200X-0.918956X0.000000X0.000000X-0.918956X0.918956X0.000000X0.000000X0.918956X0*%
%ADD45RoundRect,0.250000X0.600000X-0.600000X0.600000X0.600000X-0.600000X0.600000X-0.600000X-0.600000X0*%
%ADD46C,1.700000*%
%ADD47RoundRect,0.250200X-0.649800X-0.649800X0.649800X-0.649800X0.649800X0.649800X-0.649800X0.649800X0*%
%ADD48RoundRect,0.250200X-0.351669X0.849005X-0.849005X-0.351669X0.351669X-0.849005X0.849005X0.351669X0*%
%ADD49RoundRect,0.250200X0.918956X0.000000X0.000000X0.918956X-0.918956X0.000000X0.000000X-0.918956X0*%
%ADD50RoundRect,0.250200X0.649800X-0.649800X0.649800X0.649800X-0.649800X0.649800X-0.649800X-0.649800X0*%
%ADD51RoundRect,0.250200X0.351669X0.849005X-0.849005X0.351669X-0.351669X-0.849005X0.849005X-0.351669X0*%
%ADD52RoundRect,0.250200X0.000000X-0.918956X0.918956X0.000000X0.000000X0.918956X-0.918956X0.000000X0*%
%ADD53RoundRect,0.250200X-0.649800X0.649800X-0.649800X-0.649800X0.649800X-0.649800X0.649800X0.649800X0*%
%ADD54RoundRect,0.250200X0.351669X-0.849005X0.849005X0.351669X-0.351669X0.849005X-0.849005X-0.351669X0*%
%ADD55RoundRect,0.250200X-0.351669X-0.849005X0.849005X-0.351669X0.351669X0.849005X-0.849005X0.351669X0*%
%ADD56RoundRect,0.250200X-0.849005X0.351669X-0.351669X-0.849005X0.849005X-0.351669X0.351669X0.849005X0*%
%ADD57RoundRect,0.250200X0.849005X-0.351669X0.351669X0.849005X-0.849005X0.351669X-0.351669X-0.849005X0*%
%ADD58RoundRect,0.250200X0.000000X0.918956X-0.918956X0.000000X0.000000X-0.918956X0.918956X0.000000X0*%
%ADD59RoundRect,0.250200X0.649800X0.649800X-0.649800X0.649800X-0.649800X-0.649800X0.649800X-0.649800X0*%
G04 APERTURE END LIST*
D10*
X136327032Y-133330772D02*
X137034138Y-134037879D01*
X137034138Y-134037879D02*
X136865780Y-134206238D01*
X136865780Y-134206238D02*
X136731093Y-134273581D01*
X136731093Y-134273581D02*
X136596406Y-134273581D01*
X136596406Y-134273581D02*
X136495390Y-134239909D01*
X136495390Y-134239909D02*
X136327032Y-134138894D01*
X136327032Y-134138894D02*
X136226016Y-134037879D01*
X136226016Y-134037879D02*
X136125001Y-133869520D01*
X136125001Y-133869520D02*
X136091329Y-133768505D01*
X136091329Y-133768505D02*
X136091329Y-133633818D01*
X136091329Y-133633818D02*
X136158673Y-133499131D01*
X136158673Y-133499131D02*
X136327032Y-133330772D01*
X135249536Y-134408268D02*
X135653597Y-134004207D01*
X135451566Y-134206238D02*
X136158673Y-134913344D01*
X136158673Y-134913344D02*
X136125001Y-134744986D01*
X136125001Y-134744986D02*
X136125001Y-134610299D01*
X136125001Y-134610299D02*
X136158673Y-134509283D01*
X135619925Y-135317406D02*
X135619925Y-135384749D01*
X135619925Y-135384749D02*
X135586253Y-135485764D01*
X135586253Y-135485764D02*
X135417894Y-135654123D01*
X135417894Y-135654123D02*
X135316879Y-135687795D01*
X135316879Y-135687795D02*
X135249535Y-135687795D01*
X135249535Y-135687795D02*
X135148520Y-135654123D01*
X135148520Y-135654123D02*
X135081177Y-135586780D01*
X135081177Y-135586780D02*
X135013833Y-135452093D01*
X135013833Y-135452093D02*
X135013833Y-134643971D01*
X135013833Y-134643971D02*
X134576100Y-135081703D01*
X104894580Y-54528857D02*
X104942200Y-54576476D01*
X104942200Y-54576476D02*
X104989819Y-54719333D01*
X104989819Y-54719333D02*
X104989819Y-54814571D01*
X104989819Y-54814571D02*
X104942200Y-54957428D01*
X104942200Y-54957428D02*
X104846961Y-55052666D01*
X104846961Y-55052666D02*
X104751723Y-55100285D01*
X104751723Y-55100285D02*
X104561247Y-55147904D01*
X104561247Y-55147904D02*
X104418390Y-55147904D01*
X104418390Y-55147904D02*
X104227914Y-55100285D01*
X104227914Y-55100285D02*
X104132676Y-55052666D01*
X104132676Y-55052666D02*
X104037438Y-54957428D01*
X104037438Y-54957428D02*
X103989819Y-54814571D01*
X103989819Y-54814571D02*
X103989819Y-54719333D01*
X103989819Y-54719333D02*
X104037438Y-54576476D01*
X104037438Y-54576476D02*
X104085057Y-54528857D01*
X104989819Y-53576476D02*
X104989819Y-54147904D01*
X104989819Y-53862190D02*
X103989819Y-53862190D01*
X103989819Y-53862190D02*
X104132676Y-53957428D01*
X104132676Y-53957428D02*
X104227914Y-54052666D01*
X104227914Y-54052666D02*
X104275533Y-54147904D01*
X104418390Y-53005047D02*
X104370771Y-53100285D01*
X104370771Y-53100285D02*
X104323152Y-53147904D01*
X104323152Y-53147904D02*
X104227914Y-53195523D01*
X104227914Y-53195523D02*
X104180295Y-53195523D01*
X104180295Y-53195523D02*
X104085057Y-53147904D01*
X104085057Y-53147904D02*
X104037438Y-53100285D01*
X104037438Y-53100285D02*
X103989819Y-53005047D01*
X103989819Y-53005047D02*
X103989819Y-52814571D01*
X103989819Y-52814571D02*
X104037438Y-52719333D01*
X104037438Y-52719333D02*
X104085057Y-52671714D01*
X104085057Y-52671714D02*
X104180295Y-52624095D01*
X104180295Y-52624095D02*
X104227914Y-52624095D01*
X104227914Y-52624095D02*
X104323152Y-52671714D01*
X104323152Y-52671714D02*
X104370771Y-52719333D01*
X104370771Y-52719333D02*
X104418390Y-52814571D01*
X104418390Y-52814571D02*
X104418390Y-53005047D01*
X104418390Y-53005047D02*
X104466009Y-53100285D01*
X104466009Y-53100285D02*
X104513628Y-53147904D01*
X104513628Y-53147904D02*
X104608866Y-53195523D01*
X104608866Y-53195523D02*
X104799342Y-53195523D01*
X104799342Y-53195523D02*
X104894580Y-53147904D01*
X104894580Y-53147904D02*
X104942200Y-53100285D01*
X104942200Y-53100285D02*
X104989819Y-53005047D01*
X104989819Y-53005047D02*
X104989819Y-52814571D01*
X104989819Y-52814571D02*
X104942200Y-52719333D01*
X104942200Y-52719333D02*
X104894580Y-52671714D01*
X104894580Y-52671714D02*
X104799342Y-52624095D01*
X104799342Y-52624095D02*
X104608866Y-52624095D01*
X104608866Y-52624095D02*
X104513628Y-52671714D01*
X104513628Y-52671714D02*
X104466009Y-52719333D01*
X104466009Y-52719333D02*
X104418390Y-52814571D01*
X118516252Y-54140442D02*
X118898935Y-53216563D01*
X118898935Y-53216563D02*
X119118907Y-53307678D01*
X119118907Y-53307678D02*
X119232667Y-53406341D01*
X119232667Y-53406341D02*
X119284209Y-53530776D01*
X119284209Y-53530776D02*
X119291757Y-53636987D01*
X119291757Y-53636987D02*
X119262859Y-53831188D01*
X119262859Y-53831188D02*
X119208190Y-53963170D01*
X119208190Y-53963170D02*
X119091304Y-54120924D01*
X119091304Y-54120924D02*
X119010864Y-54190690D01*
X119010864Y-54190690D02*
X118886429Y-54242232D01*
X118886429Y-54242232D02*
X118736223Y-54231558D01*
X118736223Y-54231558D02*
X118516252Y-54140442D01*
X119924068Y-54723579D02*
X119396137Y-54504903D01*
X119660103Y-54614241D02*
X120042786Y-53690361D01*
X120042786Y-53690361D02*
X119900129Y-53785898D01*
X119900129Y-53785898D02*
X119775694Y-53837441D01*
X119775694Y-53837441D02*
X119669483Y-53844989D01*
X120614712Y-53927261D02*
X121230631Y-54182383D01*
X121230631Y-54182383D02*
X120452000Y-54942255D01*
X56166586Y-119041016D02*
X55242707Y-119423700D01*
X55242707Y-119423700D02*
X55151592Y-119203729D01*
X55151592Y-119203729D02*
X55140917Y-119053523D01*
X55140917Y-119053523D02*
X55192459Y-118929088D01*
X55192459Y-118929088D02*
X55262225Y-118848648D01*
X55262225Y-118848648D02*
X55419979Y-118731762D01*
X55419979Y-118731762D02*
X55551962Y-118677092D01*
X55551962Y-118677092D02*
X55746162Y-118648195D01*
X55746162Y-118648195D02*
X55852373Y-118655743D01*
X55852373Y-118655743D02*
X55976808Y-118707285D01*
X55976808Y-118707285D02*
X56075471Y-118821045D01*
X56075471Y-118821045D02*
X56166586Y-119041016D01*
X54896469Y-118587809D02*
X54641347Y-117971889D01*
X54641347Y-117971889D02*
X55729234Y-117985154D01*
X54522142Y-96475580D02*
X54474523Y-96523200D01*
X54474523Y-96523200D02*
X54331666Y-96570819D01*
X54331666Y-96570819D02*
X54236428Y-96570819D01*
X54236428Y-96570819D02*
X54093571Y-96523200D01*
X54093571Y-96523200D02*
X53998333Y-96427961D01*
X53998333Y-96427961D02*
X53950714Y-96332723D01*
X53950714Y-96332723D02*
X53903095Y-96142247D01*
X53903095Y-96142247D02*
X53903095Y-95999390D01*
X53903095Y-95999390D02*
X53950714Y-95808914D01*
X53950714Y-95808914D02*
X53998333Y-95713676D01*
X53998333Y-95713676D02*
X54093571Y-95618438D01*
X54093571Y-95618438D02*
X54236428Y-95570819D01*
X54236428Y-95570819D02*
X54331666Y-95570819D01*
X54331666Y-95570819D02*
X54474523Y-95618438D01*
X54474523Y-95618438D02*
X54522142Y-95666057D01*
X54903095Y-95666057D02*
X54950714Y-95618438D01*
X54950714Y-95618438D02*
X55045952Y-95570819D01*
X55045952Y-95570819D02*
X55284047Y-95570819D01*
X55284047Y-95570819D02*
X55379285Y-95618438D01*
X55379285Y-95618438D02*
X55426904Y-95666057D01*
X55426904Y-95666057D02*
X55474523Y-95761295D01*
X55474523Y-95761295D02*
X55474523Y-95856533D01*
X55474523Y-95856533D02*
X55426904Y-95999390D01*
X55426904Y-95999390D02*
X54855476Y-96570819D01*
X54855476Y-96570819D02*
X55474523Y-96570819D01*
X56093571Y-95570819D02*
X56188809Y-95570819D01*
X56188809Y-95570819D02*
X56284047Y-95618438D01*
X56284047Y-95618438D02*
X56331666Y-95666057D01*
X56331666Y-95666057D02*
X56379285Y-95761295D01*
X56379285Y-95761295D02*
X56426904Y-95951771D01*
X56426904Y-95951771D02*
X56426904Y-96189866D01*
X56426904Y-96189866D02*
X56379285Y-96380342D01*
X56379285Y-96380342D02*
X56331666Y-96475580D01*
X56331666Y-96475580D02*
X56284047Y-96523200D01*
X56284047Y-96523200D02*
X56188809Y-96570819D01*
X56188809Y-96570819D02*
X56093571Y-96570819D01*
X56093571Y-96570819D02*
X55998333Y-96523200D01*
X55998333Y-96523200D02*
X55950714Y-96475580D01*
X55950714Y-96475580D02*
X55903095Y-96380342D01*
X55903095Y-96380342D02*
X55855476Y-96189866D01*
X55855476Y-96189866D02*
X55855476Y-95951771D01*
X55855476Y-95951771D02*
X55903095Y-95761295D01*
X55903095Y-95761295D02*
X55950714Y-95666057D01*
X55950714Y-95666057D02*
X55998333Y-95618438D01*
X55998333Y-95618438D02*
X56093571Y-95570819D01*
X120759960Y-144302180D02*
X121142643Y-145226060D01*
X121142643Y-145226060D02*
X120922672Y-145317175D01*
X120922672Y-145317175D02*
X120772466Y-145327850D01*
X120772466Y-145327850D02*
X120648031Y-145276307D01*
X120648031Y-145276307D02*
X120567591Y-145206542D01*
X120567591Y-145206542D02*
X120450705Y-145048788D01*
X120450705Y-145048788D02*
X120396036Y-144916805D01*
X120396036Y-144916805D02*
X120367138Y-144722605D01*
X120367138Y-144722605D02*
X120374686Y-144616393D01*
X120374686Y-144616393D02*
X120426228Y-144491959D01*
X120426228Y-144491959D02*
X120539988Y-144393296D01*
X120539988Y-144393296D02*
X120759960Y-144302180D01*
X119352143Y-144885317D02*
X119880074Y-144666641D01*
X119616109Y-144775979D02*
X119998792Y-145699859D01*
X119998792Y-145699859D02*
X120032112Y-145531430D01*
X120032112Y-145531430D02*
X120083654Y-145406995D01*
X120083654Y-145406995D02*
X120153420Y-145326555D01*
X118472258Y-145249778D02*
X119000189Y-145031101D01*
X118736223Y-145140439D02*
X119118907Y-146064319D01*
X119118907Y-146064319D02*
X119152226Y-145895890D01*
X119152226Y-145895890D02*
X119203769Y-145771456D01*
X119203769Y-145771456D02*
X119273534Y-145691015D01*
X134609772Y-64323965D02*
X135316879Y-63616859D01*
X135316879Y-63616859D02*
X135485238Y-63785217D01*
X135485238Y-63785217D02*
X135552581Y-63919904D01*
X135552581Y-63919904D02*
X135552581Y-64054591D01*
X135552581Y-64054591D02*
X135518909Y-64155607D01*
X135518909Y-64155607D02*
X135417894Y-64323965D01*
X135417894Y-64323965D02*
X135316879Y-64424981D01*
X135316879Y-64424981D02*
X135148520Y-64525996D01*
X135148520Y-64525996D02*
X135047505Y-64559668D01*
X135047505Y-64559668D02*
X134912818Y-64559668D01*
X134912818Y-64559668D02*
X134778131Y-64492324D01*
X134778131Y-64492324D02*
X134609772Y-64323965D01*
X135687268Y-65401461D02*
X135283207Y-64997400D01*
X135485238Y-65199431D02*
X136192344Y-64492324D01*
X136192344Y-64492324D02*
X136023986Y-64525996D01*
X136023986Y-64525996D02*
X135889299Y-64525996D01*
X135889299Y-64525996D02*
X135788283Y-64492324D01*
X137000467Y-65300446D02*
X136865780Y-65165759D01*
X136865780Y-65165759D02*
X136764764Y-65132088D01*
X136764764Y-65132088D02*
X136697421Y-65132088D01*
X136697421Y-65132088D02*
X136529062Y-65165759D01*
X136529062Y-65165759D02*
X136360703Y-65266775D01*
X136360703Y-65266775D02*
X136091329Y-65536149D01*
X136091329Y-65536149D02*
X136057658Y-65637164D01*
X136057658Y-65637164D02*
X136057658Y-65704507D01*
X136057658Y-65704507D02*
X136091329Y-65805523D01*
X136091329Y-65805523D02*
X136226016Y-65940210D01*
X136226016Y-65940210D02*
X136327032Y-65973881D01*
X136327032Y-65973881D02*
X136394375Y-65973881D01*
X136394375Y-65973881D02*
X136495390Y-65940210D01*
X136495390Y-65940210D02*
X136663749Y-65771851D01*
X136663749Y-65771851D02*
X136697421Y-65670836D01*
X136697421Y-65670836D02*
X136697421Y-65603492D01*
X136697421Y-65603492D02*
X136663749Y-65502477D01*
X136663749Y-65502477D02*
X136529062Y-65367790D01*
X136529062Y-65367790D02*
X136428047Y-65334118D01*
X136428047Y-65334118D02*
X136360703Y-65334118D01*
X136360703Y-65334118D02*
X136259688Y-65367790D01*
X149760180Y-98471714D02*
X150760180Y-98471714D01*
X150760180Y-98471714D02*
X150760180Y-98709809D01*
X150760180Y-98709809D02*
X150712561Y-98852666D01*
X150712561Y-98852666D02*
X150617323Y-98947904D01*
X150617323Y-98947904D02*
X150522085Y-98995523D01*
X150522085Y-98995523D02*
X150331609Y-99043142D01*
X150331609Y-99043142D02*
X150188752Y-99043142D01*
X150188752Y-99043142D02*
X149998276Y-98995523D01*
X149998276Y-98995523D02*
X149903038Y-98947904D01*
X149903038Y-98947904D02*
X149807800Y-98852666D01*
X149807800Y-98852666D02*
X149760180Y-98709809D01*
X149760180Y-98709809D02*
X149760180Y-98471714D01*
X149760180Y-99995523D02*
X149760180Y-99424095D01*
X149760180Y-99709809D02*
X150760180Y-99709809D01*
X150760180Y-99709809D02*
X150617323Y-99614571D01*
X150617323Y-99614571D02*
X150522085Y-99519333D01*
X150522085Y-99519333D02*
X150474466Y-99424095D01*
X150426847Y-100852666D02*
X149760180Y-100852666D01*
X150807800Y-100614571D02*
X150093514Y-100376476D01*
X150093514Y-100376476D02*
X150093514Y-100995523D01*
X97754580Y-146128857D02*
X97802200Y-146176476D01*
X97802200Y-146176476D02*
X97849819Y-146319333D01*
X97849819Y-146319333D02*
X97849819Y-146414571D01*
X97849819Y-146414571D02*
X97802200Y-146557428D01*
X97802200Y-146557428D02*
X97706961Y-146652666D01*
X97706961Y-146652666D02*
X97611723Y-146700285D01*
X97611723Y-146700285D02*
X97421247Y-146747904D01*
X97421247Y-146747904D02*
X97278390Y-146747904D01*
X97278390Y-146747904D02*
X97087914Y-146700285D01*
X97087914Y-146700285D02*
X96992676Y-146652666D01*
X96992676Y-146652666D02*
X96897438Y-146557428D01*
X96897438Y-146557428D02*
X96849819Y-146414571D01*
X96849819Y-146414571D02*
X96849819Y-146319333D01*
X96849819Y-146319333D02*
X96897438Y-146176476D01*
X96897438Y-146176476D02*
X96945057Y-146128857D01*
X96945057Y-145747904D02*
X96897438Y-145700285D01*
X96897438Y-145700285D02*
X96849819Y-145605047D01*
X96849819Y-145605047D02*
X96849819Y-145366952D01*
X96849819Y-145366952D02*
X96897438Y-145271714D01*
X96897438Y-145271714D02*
X96945057Y-145224095D01*
X96945057Y-145224095D02*
X97040295Y-145176476D01*
X97040295Y-145176476D02*
X97135533Y-145176476D01*
X97135533Y-145176476D02*
X97278390Y-145224095D01*
X97278390Y-145224095D02*
X97849819Y-145795523D01*
X97849819Y-145795523D02*
X97849819Y-145176476D01*
X96945057Y-144795523D02*
X96897438Y-144747904D01*
X96897438Y-144747904D02*
X96849819Y-144652666D01*
X96849819Y-144652666D02*
X96849819Y-144414571D01*
X96849819Y-144414571D02*
X96897438Y-144319333D01*
X96897438Y-144319333D02*
X96945057Y-144271714D01*
X96945057Y-144271714D02*
X97040295Y-144224095D01*
X97040295Y-144224095D02*
X97135533Y-144224095D01*
X97135533Y-144224095D02*
X97278390Y-144271714D01*
X97278390Y-144271714D02*
X97849819Y-144843142D01*
X97849819Y-144843142D02*
X97849819Y-144224095D01*
X65939683Y-65704507D02*
X65232577Y-64997400D01*
X65232577Y-64997400D02*
X65400935Y-64829041D01*
X65400935Y-64829041D02*
X65535622Y-64761698D01*
X65535622Y-64761698D02*
X65670309Y-64761698D01*
X65670309Y-64761698D02*
X65771325Y-64795370D01*
X65771325Y-64795370D02*
X65939683Y-64896385D01*
X65939683Y-64896385D02*
X66040699Y-64997400D01*
X66040699Y-64997400D02*
X66141714Y-65165759D01*
X66141714Y-65165759D02*
X66175386Y-65266774D01*
X66175386Y-65266774D02*
X66175386Y-65401461D01*
X66175386Y-65401461D02*
X66108042Y-65536148D01*
X66108042Y-65536148D02*
X65939683Y-65704507D01*
X66478431Y-64222950D02*
X66949836Y-64694354D01*
X66040699Y-64121935D02*
X66377416Y-64795370D01*
X66377416Y-64795370D02*
X66815149Y-64357637D01*
X130117287Y-134395554D02*
X130049943Y-134395554D01*
X130049943Y-134395554D02*
X129915256Y-134328210D01*
X129915256Y-134328210D02*
X129847913Y-134260867D01*
X129847913Y-134260867D02*
X129780569Y-134126180D01*
X129780569Y-134126180D02*
X129780569Y-133991493D01*
X129780569Y-133991493D02*
X129814241Y-133890478D01*
X129814241Y-133890478D02*
X129915256Y-133722119D01*
X129915256Y-133722119D02*
X130016271Y-133621104D01*
X130016271Y-133621104D02*
X130184630Y-133520088D01*
X130184630Y-133520088D02*
X130285645Y-133486417D01*
X130285645Y-133486417D02*
X130420332Y-133486417D01*
X130420332Y-133486417D02*
X130555019Y-133553760D01*
X130555019Y-133553760D02*
X130622363Y-133621104D01*
X130622363Y-133621104D02*
X130689706Y-133755791D01*
X130689706Y-133755791D02*
X130689706Y-133823134D01*
X130959080Y-134092508D02*
X131026424Y-134092508D01*
X131026424Y-134092508D02*
X131127439Y-134126180D01*
X131127439Y-134126180D02*
X131295798Y-134294539D01*
X131295798Y-134294539D02*
X131329470Y-134395554D01*
X131329470Y-134395554D02*
X131329470Y-134462897D01*
X131329470Y-134462897D02*
X131295798Y-134563913D01*
X131295798Y-134563913D02*
X131228454Y-134631256D01*
X131228454Y-134631256D02*
X131093767Y-134698600D01*
X131093767Y-134698600D02*
X130285645Y-134698600D01*
X130285645Y-134698600D02*
X130723378Y-135136332D01*
X131666187Y-134664928D02*
X132103920Y-135102661D01*
X132103920Y-135102661D02*
X131598844Y-135136333D01*
X131598844Y-135136333D02*
X131699859Y-135237348D01*
X131699859Y-135237348D02*
X131733531Y-135338363D01*
X131733531Y-135338363D02*
X131733531Y-135405707D01*
X131733531Y-135405707D02*
X131699859Y-135506722D01*
X131699859Y-135506722D02*
X131531500Y-135675081D01*
X131531500Y-135675081D02*
X131430485Y-135708752D01*
X131430485Y-135708752D02*
X131363142Y-135708752D01*
X131363142Y-135708752D02*
X131262126Y-135675081D01*
X131262126Y-135675081D02*
X131060096Y-135473050D01*
X131060096Y-135473050D02*
X131026424Y-135372035D01*
X131026424Y-135372035D02*
X131026424Y-135304691D01*
X52169819Y-100424094D02*
X51169819Y-100424094D01*
X51169819Y-100424094D02*
X51169819Y-100185999D01*
X51169819Y-100185999D02*
X51217438Y-100043142D01*
X51217438Y-100043142D02*
X51312676Y-99947904D01*
X51312676Y-99947904D02*
X51407914Y-99900285D01*
X51407914Y-99900285D02*
X51598390Y-99852666D01*
X51598390Y-99852666D02*
X51741247Y-99852666D01*
X51741247Y-99852666D02*
X51931723Y-99900285D01*
X51931723Y-99900285D02*
X52026961Y-99947904D01*
X52026961Y-99947904D02*
X52122200Y-100043142D01*
X52122200Y-100043142D02*
X52169819Y-100185999D01*
X52169819Y-100185999D02*
X52169819Y-100424094D01*
X51169819Y-98995523D02*
X51169819Y-99185999D01*
X51169819Y-99185999D02*
X51217438Y-99281237D01*
X51217438Y-99281237D02*
X51265057Y-99328856D01*
X51265057Y-99328856D02*
X51407914Y-99424094D01*
X51407914Y-99424094D02*
X51598390Y-99471713D01*
X51598390Y-99471713D02*
X51979342Y-99471713D01*
X51979342Y-99471713D02*
X52074580Y-99424094D01*
X52074580Y-99424094D02*
X52122200Y-99376475D01*
X52122200Y-99376475D02*
X52169819Y-99281237D01*
X52169819Y-99281237D02*
X52169819Y-99090761D01*
X52169819Y-99090761D02*
X52122200Y-98995523D01*
X52122200Y-98995523D02*
X52074580Y-98947904D01*
X52074580Y-98947904D02*
X51979342Y-98900285D01*
X51979342Y-98900285D02*
X51741247Y-98900285D01*
X51741247Y-98900285D02*
X51646009Y-98947904D01*
X51646009Y-98947904D02*
X51598390Y-98995523D01*
X51598390Y-98995523D02*
X51550771Y-99090761D01*
X51550771Y-99090761D02*
X51550771Y-99281237D01*
X51550771Y-99281237D02*
X51598390Y-99376475D01*
X51598390Y-99376475D02*
X51646009Y-99424094D01*
X51646009Y-99424094D02*
X51741247Y-99471713D01*
X81609981Y-54887586D02*
X81227297Y-53963707D01*
X81227297Y-53963707D02*
X81447268Y-53872592D01*
X81447268Y-53872592D02*
X81597474Y-53861917D01*
X81597474Y-53861917D02*
X81721909Y-53913459D01*
X81721909Y-53913459D02*
X81802349Y-53983225D01*
X81802349Y-53983225D02*
X81919235Y-54140979D01*
X81919235Y-54140979D02*
X81973905Y-54272962D01*
X81973905Y-54272962D02*
X82002802Y-54467162D01*
X82002802Y-54467162D02*
X81995254Y-54573373D01*
X81995254Y-54573373D02*
X81943712Y-54697808D01*
X81943712Y-54697808D02*
X81829952Y-54796471D01*
X81829952Y-54796471D02*
X81609981Y-54887586D01*
X82063188Y-53617469D02*
X82635114Y-53380570D01*
X82635114Y-53380570D02*
X82472938Y-53860085D01*
X82472938Y-53860085D02*
X82604921Y-53805416D01*
X82604921Y-53805416D02*
X82711132Y-53812964D01*
X82711132Y-53812964D02*
X82773350Y-53838736D01*
X82773350Y-53838736D02*
X82853790Y-53908501D01*
X82853790Y-53908501D02*
X82944905Y-54128472D01*
X82944905Y-54128472D02*
X82937357Y-54234684D01*
X82937357Y-54234684D02*
X82911585Y-54296901D01*
X82911585Y-54296901D02*
X82841820Y-54377342D01*
X82841820Y-54377342D02*
X82577854Y-54486680D01*
X82577854Y-54486680D02*
X82471643Y-54479131D01*
X82471643Y-54479131D02*
X82409426Y-54453360D01*
X70395049Y-64575830D02*
X70327705Y-64575830D01*
X70327705Y-64575830D02*
X70193018Y-64508486D01*
X70193018Y-64508486D02*
X70125675Y-64441143D01*
X70125675Y-64441143D02*
X70058331Y-64306456D01*
X70058331Y-64306456D02*
X70058331Y-64171769D01*
X70058331Y-64171769D02*
X70092003Y-64070754D01*
X70092003Y-64070754D02*
X70193018Y-63902395D01*
X70193018Y-63902395D02*
X70294033Y-63801380D01*
X70294033Y-63801380D02*
X70462392Y-63700364D01*
X70462392Y-63700364D02*
X70563407Y-63666693D01*
X70563407Y-63666693D02*
X70698094Y-63666693D01*
X70698094Y-63666693D02*
X70832781Y-63734036D01*
X70832781Y-63734036D02*
X70900125Y-63801380D01*
X70900125Y-63801380D02*
X70967468Y-63936067D01*
X70967468Y-63936067D02*
X70967468Y-64003410D01*
X71001140Y-65316608D02*
X70597079Y-64912547D01*
X70799110Y-65114578D02*
X71506216Y-64407471D01*
X71506216Y-64407471D02*
X71337858Y-64441143D01*
X71337858Y-64441143D02*
X71203171Y-64441143D01*
X71203171Y-64441143D02*
X71102155Y-64407471D01*
X71337858Y-65653326D02*
X71472545Y-65788013D01*
X71472545Y-65788013D02*
X71573560Y-65821685D01*
X71573560Y-65821685D02*
X71640904Y-65821685D01*
X71640904Y-65821685D02*
X71809262Y-65788013D01*
X71809262Y-65788013D02*
X71977621Y-65686998D01*
X71977621Y-65686998D02*
X72246995Y-65417624D01*
X72246995Y-65417624D02*
X72280667Y-65316609D01*
X72280667Y-65316609D02*
X72280667Y-65249265D01*
X72280667Y-65249265D02*
X72246995Y-65148250D01*
X72246995Y-65148250D02*
X72112308Y-65013563D01*
X72112308Y-65013563D02*
X72011293Y-64979891D01*
X72011293Y-64979891D02*
X71943949Y-64979891D01*
X71943949Y-64979891D02*
X71842934Y-65013563D01*
X71842934Y-65013563D02*
X71674575Y-65181922D01*
X71674575Y-65181922D02*
X71640904Y-65282937D01*
X71640904Y-65282937D02*
X71640904Y-65350280D01*
X71640904Y-65350280D02*
X71674575Y-65451296D01*
X71674575Y-65451296D02*
X71809262Y-65585983D01*
X71809262Y-65585983D02*
X71910278Y-65619654D01*
X71910278Y-65619654D02*
X71977621Y-65619654D01*
X71977621Y-65619654D02*
X72078636Y-65585983D01*
G36*
X86095124Y-78802658D02*
G01*
X86105439Y-78802891D01*
X86115587Y-78803278D01*
X86125570Y-78803821D01*
X86135386Y-78804519D01*
X86154521Y-78806379D01*
X86172992Y-78808860D01*
X86190799Y-78811961D01*
X86207942Y-78815681D01*
X86224420Y-78820022D01*
X86240235Y-78824984D01*
X86255386Y-78830565D01*
X86269872Y-78836766D01*
X86283695Y-78843588D01*
X86296854Y-78851030D01*
X86309348Y-78859092D01*
X86321179Y-78867774D01*
X86332345Y-78877076D01*
X86337679Y-78881960D01*
X86347883Y-78892144D01*
X86357429Y-78902850D01*
X86366316Y-78914080D01*
X86374545Y-78925832D01*
X86382115Y-78938107D01*
X86389028Y-78950905D01*
X86395282Y-78964226D01*
X86400877Y-78978069D01*
X86405815Y-78992436D01*
X86410094Y-79007325D01*
X86413714Y-79022737D01*
X86416677Y-79038672D01*
X86418981Y-79055130D01*
X86420627Y-79072110D01*
X86421614Y-79089614D01*
X86421943Y-79107640D01*
X86421585Y-79126220D01*
X86420508Y-79144284D01*
X86418715Y-79161833D01*
X86416204Y-79178867D01*
X86412975Y-79195386D01*
X86409029Y-79211390D01*
X86404365Y-79226878D01*
X86398984Y-79241852D01*
X86392886Y-79256310D01*
X86386070Y-79270252D01*
X86378537Y-79283680D01*
X86370286Y-79296592D01*
X86361318Y-79308990D01*
X86351632Y-79320872D01*
X86341229Y-79332239D01*
X86330108Y-79343090D01*
X86318281Y-79353353D01*
X86305699Y-79362954D01*
X86292361Y-79371893D01*
X86278267Y-79380169D01*
X86263418Y-79387784D01*
X86247813Y-79394736D01*
X86231453Y-79401026D01*
X86214337Y-79406654D01*
X86196465Y-79411620D01*
X86177838Y-79415924D01*
X86168241Y-79417828D01*
X86158455Y-79419566D01*
X86148480Y-79421138D01*
X86138316Y-79422545D01*
X86127964Y-79423787D01*
X86117422Y-79424863D01*
X86106692Y-79425773D01*
X86095772Y-79426518D01*
X86084664Y-79427098D01*
X86073367Y-79427511D01*
X86061881Y-79427760D01*
X86050206Y-79427842D01*
X85879968Y-79427842D01*
X85879968Y-79803000D01*
X85567338Y-79803000D01*
X85567338Y-79005791D01*
X85879968Y-79005791D01*
X85879968Y-79224632D01*
X85956172Y-79224632D01*
X85967228Y-79224514D01*
X85977864Y-79224159D01*
X85988080Y-79223568D01*
X85997877Y-79222740D01*
X86011784Y-79221054D01*
X86024747Y-79218835D01*
X86036766Y-79216085D01*
X86047840Y-79212802D01*
X86057969Y-79208987D01*
X86067154Y-79204639D01*
X86077931Y-79198014D01*
X86082690Y-79194346D01*
X86091219Y-79186447D01*
X86098612Y-79178013D01*
X86104866Y-79169044D01*
X86109984Y-79159542D01*
X86113964Y-79149505D01*
X86116808Y-79138934D01*
X86118513Y-79127828D01*
X86119082Y-79116189D01*
X86118586Y-79104869D01*
X86117098Y-79093993D01*
X86114617Y-79083559D01*
X86111144Y-79073568D01*
X86106679Y-79064020D01*
X86101222Y-79054914D01*
X86094772Y-79046251D01*
X86087331Y-79038031D01*
X86078584Y-79030475D01*
X86068096Y-79023926D01*
X86059089Y-79019675D01*
X86049103Y-79015992D01*
X86038138Y-79012875D01*
X86026194Y-79010325D01*
X86013271Y-79008341D01*
X85999369Y-79006924D01*
X85989557Y-79006295D01*
X85979310Y-79005917D01*
X85968629Y-79005791D01*
X85879968Y-79005791D01*
X85567338Y-79005791D01*
X85567338Y-78802581D01*
X86084644Y-78802581D01*
X86095124Y-78802658D01*
G37*
G36*
X86475188Y-78802581D02*
G01*
X86770722Y-78802581D01*
X86877212Y-79361408D01*
X87032306Y-78802581D01*
X87327107Y-78802581D01*
X87482934Y-79361408D01*
X87589424Y-78802581D01*
X87883492Y-78802581D01*
X87661476Y-79803000D01*
X87356661Y-79803000D01*
X87180073Y-79173097D01*
X87004218Y-79803000D01*
X86699159Y-79803000D01*
X86475188Y-78802581D01*
G37*
G36*
X88519448Y-78802677D02*
G01*
X88536693Y-78802966D01*
X88553406Y-78803448D01*
X88569586Y-78804123D01*
X88585234Y-78804990D01*
X88600349Y-78806050D01*
X88614932Y-78807303D01*
X88628983Y-78808748D01*
X88642501Y-78810386D01*
X88655487Y-78812217D01*
X88667940Y-78814241D01*
X88679862Y-78816457D01*
X88691250Y-78818866D01*
X88702107Y-78821468D01*
X88712431Y-78824262D01*
X88722222Y-78827249D01*
X88731632Y-78830467D01*
X88740812Y-78834016D01*
X88754147Y-78839957D01*
X88766964Y-78846641D01*
X88779260Y-78854068D01*
X88791038Y-78862237D01*
X88802296Y-78871149D01*
X88813034Y-78880804D01*
X88823253Y-78891202D01*
X88829777Y-78898547D01*
X88836070Y-78906221D01*
X88842132Y-78914226D01*
X88845077Y-78918352D01*
X88850755Y-78926770D01*
X88856067Y-78935415D01*
X88861013Y-78944286D01*
X88865593Y-78953385D01*
X88869806Y-78962712D01*
X88873653Y-78972265D01*
X88877133Y-78982045D01*
X88880248Y-78992052D01*
X88882995Y-79002287D01*
X88885377Y-79012748D01*
X88887392Y-79023436D01*
X88889040Y-79034352D01*
X88890323Y-79045495D01*
X88891238Y-79056864D01*
X88891788Y-79068461D01*
X88891971Y-79080285D01*
X88891831Y-79090606D01*
X88891410Y-79100748D01*
X88890709Y-79110710D01*
X88889727Y-79120493D01*
X88887729Y-79134832D01*
X88885099Y-79148766D01*
X88881838Y-79162298D01*
X88877946Y-79175425D01*
X88873423Y-79188149D01*
X88868269Y-79200470D01*
X88862484Y-79212386D01*
X88856067Y-79223900D01*
X88849145Y-79235012D01*
X88841751Y-79245724D01*
X88833884Y-79256037D01*
X88825545Y-79265951D01*
X88816733Y-79275466D01*
X88807450Y-79284582D01*
X88797694Y-79293298D01*
X88787466Y-79301615D01*
X88776765Y-79309532D01*
X88765593Y-79317051D01*
X88757882Y-79321841D01*
X88747467Y-79327695D01*
X88736129Y-79333290D01*
X88727019Y-79337316D01*
X88717390Y-79341195D01*
X88707241Y-79344929D01*
X88696573Y-79348517D01*
X88685385Y-79351959D01*
X88673678Y-79355255D01*
X88661451Y-79358405D01*
X88648705Y-79361408D01*
X88658880Y-79364933D01*
X88668523Y-79368452D01*
X88680552Y-79373139D01*
X88691635Y-79377818D01*
X88701771Y-79382489D01*
X88710960Y-79387152D01*
X88721117Y-79392971D01*
X88729794Y-79398778D01*
X88738010Y-79405690D01*
X88746225Y-79413773D01*
X88753897Y-79422030D01*
X88760575Y-79429632D01*
X88767735Y-79438120D01*
X88775375Y-79447493D01*
X88779375Y-79452511D01*
X88787218Y-79462418D01*
X88794381Y-79471745D01*
X88800865Y-79480492D01*
X88806669Y-79488659D01*
X88812970Y-79498052D01*
X88818209Y-79506538D01*
X88823095Y-79515526D01*
X88973548Y-79803000D01*
X88621839Y-79803000D01*
X88455753Y-79496963D01*
X88449862Y-79486200D01*
X88444096Y-79476166D01*
X88438453Y-79466863D01*
X88432936Y-79458289D01*
X88425773Y-79447993D01*
X88418831Y-79438994D01*
X88412110Y-79431292D01*
X88404021Y-79423490D01*
X88399333Y-79419782D01*
X88390770Y-79414344D01*
X88381931Y-79409631D01*
X88372818Y-79405643D01*
X88363430Y-79402380D01*
X88353767Y-79399842D01*
X88343829Y-79398030D01*
X88333617Y-79396942D01*
X88323130Y-79396579D01*
X88295530Y-79396579D01*
X88295530Y-79803000D01*
X87983144Y-79803000D01*
X87983144Y-79005791D01*
X88295530Y-79005791D01*
X88295530Y-79209001D01*
X88426689Y-79209001D01*
X88437985Y-79208346D01*
X88448373Y-79207077D01*
X88458074Y-79205581D01*
X88469011Y-79203658D01*
X88481185Y-79201307D01*
X88491127Y-79199264D01*
X88501765Y-79196980D01*
X88509243Y-79195323D01*
X88520471Y-79192364D01*
X88530892Y-79188065D01*
X88540507Y-79182426D01*
X88549314Y-79175448D01*
X88557314Y-79167130D01*
X88559801Y-79164060D01*
X88565430Y-79155943D01*
X88570925Y-79145731D01*
X88575047Y-79135003D01*
X88577795Y-79123761D01*
X88579035Y-79113998D01*
X88579340Y-79105930D01*
X88578856Y-79094191D01*
X88577402Y-79083155D01*
X88574978Y-79072820D01*
X88571586Y-79063188D01*
X88567224Y-79054258D01*
X88561892Y-79046030D01*
X88555592Y-79038504D01*
X88548321Y-79031681D01*
X88539777Y-79025613D01*
X88529530Y-79020354D01*
X88517581Y-79015904D01*
X88507503Y-79013098D01*
X88496467Y-79010746D01*
X88484473Y-79008850D01*
X88471522Y-79007409D01*
X88457614Y-79006423D01*
X88447810Y-79006018D01*
X88437580Y-79005816D01*
X88432306Y-79005791D01*
X88295530Y-79005791D01*
X87983144Y-79005791D01*
X87983144Y-78802581D01*
X88501671Y-78802581D01*
X88519448Y-78802677D01*
G37*
X146510555Y-117237252D02*
X147434434Y-117619935D01*
X147434434Y-117619935D02*
X147343319Y-117839907D01*
X147343319Y-117839907D02*
X147244656Y-117953667D01*
X147244656Y-117953667D02*
X147120221Y-118005209D01*
X147120221Y-118005209D02*
X147014010Y-118012757D01*
X147014010Y-118012757D02*
X146819809Y-117983859D01*
X146819809Y-117983859D02*
X146687827Y-117929190D01*
X146687827Y-117929190D02*
X146530073Y-117812304D01*
X146530073Y-117812304D02*
X146460307Y-117731864D01*
X146460307Y-117731864D02*
X146408765Y-117607429D01*
X146408765Y-117607429D02*
X146419439Y-117457223D01*
X146419439Y-117457223D02*
X146510555Y-117237252D01*
X145927418Y-118645068D02*
X146146094Y-118117137D01*
X146036756Y-118381103D02*
X146960636Y-118763786D01*
X146960636Y-118763786D02*
X146865099Y-118621129D01*
X146865099Y-118621129D02*
X146813556Y-118496694D01*
X146813556Y-118496694D02*
X146806008Y-118390483D01*
X146723736Y-119335712D02*
X146486837Y-119907637D01*
X146486837Y-119907637D02*
X146262444Y-119453893D01*
X146262444Y-119453893D02*
X146207775Y-119585876D01*
X146207775Y-119585876D02*
X146127335Y-119655641D01*
X146127335Y-119655641D02*
X146065117Y-119681413D01*
X146065117Y-119681413D02*
X145958906Y-119688961D01*
X145958906Y-119688961D02*
X145738934Y-119597846D01*
X145738934Y-119597846D02*
X145669169Y-119517406D01*
X145669169Y-119517406D02*
X145643398Y-119455188D01*
X145643398Y-119455188D02*
X145635850Y-119348977D01*
X145635850Y-119348977D02*
X145745188Y-119085011D01*
X145745188Y-119085011D02*
X145825628Y-119015246D01*
X145825628Y-119015246D02*
X145887845Y-118989474D01*
X100226905Y-50890819D02*
X100226905Y-49890819D01*
X100226905Y-49890819D02*
X100465000Y-49890819D01*
X100465000Y-49890819D02*
X100607857Y-49938438D01*
X100607857Y-49938438D02*
X100703095Y-50033676D01*
X100703095Y-50033676D02*
X100750714Y-50128914D01*
X100750714Y-50128914D02*
X100798333Y-50319390D01*
X100798333Y-50319390D02*
X100798333Y-50462247D01*
X100798333Y-50462247D02*
X100750714Y-50652723D01*
X100750714Y-50652723D02*
X100703095Y-50747961D01*
X100703095Y-50747961D02*
X100607857Y-50843200D01*
X100607857Y-50843200D02*
X100465000Y-50890819D01*
X100465000Y-50890819D02*
X100226905Y-50890819D01*
X101179286Y-49986057D02*
X101226905Y-49938438D01*
X101226905Y-49938438D02*
X101322143Y-49890819D01*
X101322143Y-49890819D02*
X101560238Y-49890819D01*
X101560238Y-49890819D02*
X101655476Y-49938438D01*
X101655476Y-49938438D02*
X101703095Y-49986057D01*
X101703095Y-49986057D02*
X101750714Y-50081295D01*
X101750714Y-50081295D02*
X101750714Y-50176533D01*
X101750714Y-50176533D02*
X101703095Y-50319390D01*
X101703095Y-50319390D02*
X101131667Y-50890819D01*
X101131667Y-50890819D02*
X101750714Y-50890819D01*
X146122142Y-103615580D02*
X146074523Y-103663200D01*
X146074523Y-103663200D02*
X145931666Y-103710819D01*
X145931666Y-103710819D02*
X145836428Y-103710819D01*
X145836428Y-103710819D02*
X145693571Y-103663200D01*
X145693571Y-103663200D02*
X145598333Y-103567961D01*
X145598333Y-103567961D02*
X145550714Y-103472723D01*
X145550714Y-103472723D02*
X145503095Y-103282247D01*
X145503095Y-103282247D02*
X145503095Y-103139390D01*
X145503095Y-103139390D02*
X145550714Y-102948914D01*
X145550714Y-102948914D02*
X145598333Y-102853676D01*
X145598333Y-102853676D02*
X145693571Y-102758438D01*
X145693571Y-102758438D02*
X145836428Y-102710819D01*
X145836428Y-102710819D02*
X145931666Y-102710819D01*
X145931666Y-102710819D02*
X146074523Y-102758438D01*
X146074523Y-102758438D02*
X146122142Y-102806057D01*
X146503095Y-102806057D02*
X146550714Y-102758438D01*
X146550714Y-102758438D02*
X146645952Y-102710819D01*
X146645952Y-102710819D02*
X146884047Y-102710819D01*
X146884047Y-102710819D02*
X146979285Y-102758438D01*
X146979285Y-102758438D02*
X147026904Y-102806057D01*
X147026904Y-102806057D02*
X147074523Y-102901295D01*
X147074523Y-102901295D02*
X147074523Y-102996533D01*
X147074523Y-102996533D02*
X147026904Y-103139390D01*
X147026904Y-103139390D02*
X146455476Y-103710819D01*
X146455476Y-103710819D02*
X147074523Y-103710819D01*
X147931666Y-103044152D02*
X147931666Y-103710819D01*
X147693571Y-102663200D02*
X147455476Y-103377485D01*
X147455476Y-103377485D02*
X148074523Y-103377485D01*
X55601673Y-81694802D02*
X54677793Y-81312118D01*
X54677793Y-81312118D02*
X54768908Y-81092147D01*
X54768908Y-81092147D02*
X54867572Y-80978387D01*
X54867572Y-80978387D02*
X54992006Y-80926845D01*
X54992006Y-80926845D02*
X55098218Y-80919297D01*
X55098218Y-80919297D02*
X55292418Y-80948194D01*
X55292418Y-80948194D02*
X55424401Y-81002864D01*
X55424401Y-81002864D02*
X55582155Y-81119750D01*
X55582155Y-81119750D02*
X55651920Y-81200190D01*
X55651920Y-81200190D02*
X55703463Y-81324625D01*
X55703463Y-81324625D02*
X55692788Y-81474831D01*
X55692788Y-81474831D02*
X55601673Y-81694802D01*
X55242707Y-79948296D02*
X55060477Y-80388239D01*
X55060477Y-80388239D02*
X55482196Y-80614463D01*
X55482196Y-80614463D02*
X55456425Y-80552246D01*
X55456425Y-80552246D02*
X55448877Y-80446035D01*
X55448877Y-80446035D02*
X55539992Y-80226063D01*
X55539992Y-80226063D02*
X55620432Y-80156298D01*
X55620432Y-80156298D02*
X55682650Y-80130526D01*
X55682650Y-80130526D02*
X55788861Y-80122978D01*
X55788861Y-80122978D02*
X56008832Y-80214093D01*
X56008832Y-80214093D02*
X56078598Y-80294534D01*
X56078598Y-80294534D02*
X56104369Y-80356751D01*
X56104369Y-80356751D02*
X56111917Y-80462962D01*
X56111917Y-80462962D02*
X56020802Y-80682934D01*
X56020802Y-80682934D02*
X55940362Y-80752699D01*
X55940362Y-80752699D02*
X55878145Y-80778471D01*
X102179285Y-148481180D02*
X102179285Y-149481180D01*
X102179285Y-149481180D02*
X101941190Y-149481180D01*
X101941190Y-149481180D02*
X101798333Y-149433561D01*
X101798333Y-149433561D02*
X101703095Y-149338323D01*
X101703095Y-149338323D02*
X101655476Y-149243085D01*
X101655476Y-149243085D02*
X101607857Y-149052609D01*
X101607857Y-149052609D02*
X101607857Y-148909752D01*
X101607857Y-148909752D02*
X101655476Y-148719276D01*
X101655476Y-148719276D02*
X101703095Y-148624038D01*
X101703095Y-148624038D02*
X101798333Y-148528800D01*
X101798333Y-148528800D02*
X101941190Y-148481180D01*
X101941190Y-148481180D02*
X102179285Y-148481180D01*
X100655476Y-148481180D02*
X101226904Y-148481180D01*
X100941190Y-148481180D02*
X100941190Y-149481180D01*
X100941190Y-149481180D02*
X101036428Y-149338323D01*
X101036428Y-149338323D02*
X101131666Y-149243085D01*
X101131666Y-149243085D02*
X101226904Y-149195466D01*
X100036428Y-149481180D02*
X99941190Y-149481180D01*
X99941190Y-149481180D02*
X99845952Y-149433561D01*
X99845952Y-149433561D02*
X99798333Y-149385942D01*
X99798333Y-149385942D02*
X99750714Y-149290704D01*
X99750714Y-149290704D02*
X99703095Y-149100228D01*
X99703095Y-149100228D02*
X99703095Y-148862133D01*
X99703095Y-148862133D02*
X99750714Y-148671657D01*
X99750714Y-148671657D02*
X99798333Y-148576419D01*
X99798333Y-148576419D02*
X99845952Y-148528800D01*
X99845952Y-148528800D02*
X99941190Y-148481180D01*
X99941190Y-148481180D02*
X100036428Y-148481180D01*
X100036428Y-148481180D02*
X100131666Y-148528800D01*
X100131666Y-148528800D02*
X100179285Y-148576419D01*
X100179285Y-148576419D02*
X100226904Y-148671657D01*
X100226904Y-148671657D02*
X100274523Y-148862133D01*
X100274523Y-148862133D02*
X100274523Y-149100228D01*
X100274523Y-149100228D02*
X100226904Y-149290704D01*
X100226904Y-149290704D02*
X100179285Y-149385942D01*
X100179285Y-149385942D02*
X100131666Y-149433561D01*
X100131666Y-149433561D02*
X100036428Y-149481180D01*
X82973802Y-145049324D02*
X82591118Y-145973204D01*
X82591118Y-145973204D02*
X82371147Y-145882089D01*
X82371147Y-145882089D02*
X82257387Y-145783425D01*
X82257387Y-145783425D02*
X82205845Y-145658991D01*
X82205845Y-145658991D02*
X82198297Y-145552779D01*
X82198297Y-145552779D02*
X82227194Y-145358579D01*
X82227194Y-145358579D02*
X82281864Y-145226596D01*
X82281864Y-145226596D02*
X82398750Y-145068842D01*
X82398750Y-145068842D02*
X82479190Y-144999077D01*
X82479190Y-144999077D02*
X82603625Y-144947534D01*
X82603625Y-144947534D02*
X82753831Y-144958209D01*
X82753831Y-144958209D02*
X82973802Y-145049324D01*
X82005928Y-144648418D02*
X81829951Y-144575526D01*
X81829951Y-144575526D02*
X81723739Y-144583074D01*
X81723739Y-144583074D02*
X81661522Y-144608845D01*
X81661522Y-144608845D02*
X81518865Y-144704382D01*
X81518865Y-144704382D02*
X81401978Y-144862136D01*
X81401978Y-144862136D02*
X81256194Y-145214090D01*
X81256194Y-145214090D02*
X81263742Y-145320301D01*
X81263742Y-145320301D02*
X81289514Y-145382519D01*
X81289514Y-145382519D02*
X81359279Y-145462959D01*
X81359279Y-145462959D02*
X81535256Y-145535851D01*
X81535256Y-145535851D02*
X81641468Y-145528303D01*
X81641468Y-145528303D02*
X81703685Y-145502532D01*
X81703685Y-145502532D02*
X81784125Y-145432766D01*
X81784125Y-145432766D02*
X81875240Y-145212795D01*
X81875240Y-145212795D02*
X81867692Y-145106583D01*
X81867692Y-145106583D02*
X81841921Y-145044366D01*
X81841921Y-145044366D02*
X81772155Y-144963926D01*
X81772155Y-144963926D02*
X81596178Y-144891034D01*
X81596178Y-144891034D02*
X81489967Y-144898582D01*
X81489967Y-144898582D02*
X81427749Y-144924353D01*
X81427749Y-144924353D02*
X81347309Y-144994119D01*
X145581180Y-79891037D02*
X146505060Y-79508354D01*
X146505060Y-79508354D02*
X146596175Y-79728325D01*
X146596175Y-79728325D02*
X146606850Y-79878531D01*
X146606850Y-79878531D02*
X146555307Y-80002966D01*
X146555307Y-80002966D02*
X146485542Y-80083406D01*
X146485542Y-80083406D02*
X146327788Y-80200292D01*
X146327788Y-80200292D02*
X146195805Y-80254961D01*
X146195805Y-80254961D02*
X146001605Y-80283859D01*
X146001605Y-80283859D02*
X145895393Y-80276311D01*
X145895393Y-80276311D02*
X145770959Y-80224769D01*
X145770959Y-80224769D02*
X145672296Y-80111009D01*
X145672296Y-80111009D02*
X145581180Y-79891037D01*
X146164317Y-81298854D02*
X145945641Y-80770923D01*
X146054979Y-81034888D02*
X146978859Y-80652205D01*
X146978859Y-80652205D02*
X146810430Y-80618885D01*
X146810430Y-80618885D02*
X146685995Y-80567343D01*
X146685995Y-80567343D02*
X146605555Y-80497577D01*
X147434434Y-81752061D02*
X147252204Y-81312119D01*
X147252204Y-81312119D02*
X146794038Y-81450355D01*
X146794038Y-81450355D02*
X146856255Y-81476126D01*
X146856255Y-81476126D02*
X146936696Y-81545892D01*
X146936696Y-81545892D02*
X147027811Y-81765863D01*
X147027811Y-81765863D02*
X147020263Y-81872074D01*
X147020263Y-81872074D02*
X146994491Y-81934292D01*
X146994491Y-81934292D02*
X146924726Y-82014732D01*
X146924726Y-82014732D02*
X146704755Y-82105847D01*
X146704755Y-82105847D02*
X146598543Y-82098299D01*
X146598543Y-82098299D02*
X146536326Y-82072528D01*
X146536326Y-82072528D02*
X146455885Y-82002762D01*
X146455885Y-82002762D02*
X146364770Y-81782791D01*
X146364770Y-81782791D02*
X146372319Y-81676579D01*
X146372319Y-81676579D02*
X146398090Y-81614362D01*
X65854830Y-130255948D02*
X65854830Y-130323292D01*
X65854830Y-130323292D02*
X65787486Y-130457979D01*
X65787486Y-130457979D02*
X65720143Y-130525322D01*
X65720143Y-130525322D02*
X65585456Y-130592666D01*
X65585456Y-130592666D02*
X65450769Y-130592666D01*
X65450769Y-130592666D02*
X65349754Y-130558994D01*
X65349754Y-130558994D02*
X65181395Y-130457979D01*
X65181395Y-130457979D02*
X65080380Y-130356964D01*
X65080380Y-130356964D02*
X64979364Y-130188605D01*
X64979364Y-130188605D02*
X64945693Y-130087590D01*
X64945693Y-130087590D02*
X64945693Y-129952903D01*
X64945693Y-129952903D02*
X65013036Y-129818216D01*
X65013036Y-129818216D02*
X65080380Y-129750872D01*
X65080380Y-129750872D02*
X65215067Y-129683529D01*
X65215067Y-129683529D02*
X65282410Y-129683529D01*
X65551784Y-129414155D02*
X65551784Y-129346811D01*
X65551784Y-129346811D02*
X65585456Y-129245796D01*
X65585456Y-129245796D02*
X65753815Y-129077437D01*
X65753815Y-129077437D02*
X65854830Y-129043765D01*
X65854830Y-129043765D02*
X65922173Y-129043765D01*
X65922173Y-129043765D02*
X66023189Y-129077437D01*
X66023189Y-129077437D02*
X66090532Y-129144781D01*
X66090532Y-129144781D02*
X66157876Y-129279468D01*
X66157876Y-129279468D02*
X66157876Y-130087590D01*
X66157876Y-130087590D02*
X66595608Y-129649857D01*
X67269044Y-128976422D02*
X66864983Y-129380483D01*
X67067013Y-129178452D02*
X66359906Y-128471345D01*
X66359906Y-128471345D02*
X66393578Y-128639704D01*
X66393578Y-128639704D02*
X66393578Y-128774391D01*
X66393578Y-128774391D02*
X66359906Y-128875406D01*
X135674554Y-70533710D02*
X135674554Y-70601054D01*
X135674554Y-70601054D02*
X135607210Y-70735741D01*
X135607210Y-70735741D02*
X135539867Y-70803084D01*
X135539867Y-70803084D02*
X135405180Y-70870428D01*
X135405180Y-70870428D02*
X135270493Y-70870428D01*
X135270493Y-70870428D02*
X135169478Y-70836756D01*
X135169478Y-70836756D02*
X135001119Y-70735741D01*
X135001119Y-70735741D02*
X134900104Y-70634726D01*
X134900104Y-70634726D02*
X134799088Y-70466367D01*
X134799088Y-70466367D02*
X134765417Y-70365352D01*
X134765417Y-70365352D02*
X134765417Y-70230665D01*
X134765417Y-70230665D02*
X134832760Y-70095978D01*
X134832760Y-70095978D02*
X134900104Y-70028634D01*
X134900104Y-70028634D02*
X135034791Y-69961291D01*
X135034791Y-69961291D02*
X135102134Y-69961291D01*
X135371508Y-69691917D02*
X135371508Y-69624573D01*
X135371508Y-69624573D02*
X135405180Y-69523558D01*
X135405180Y-69523558D02*
X135573539Y-69355199D01*
X135573539Y-69355199D02*
X135674554Y-69321527D01*
X135674554Y-69321527D02*
X135741897Y-69321527D01*
X135741897Y-69321527D02*
X135842913Y-69355199D01*
X135842913Y-69355199D02*
X135910256Y-69422543D01*
X135910256Y-69422543D02*
X135977600Y-69557230D01*
X135977600Y-69557230D02*
X135977600Y-70365352D01*
X135977600Y-70365352D02*
X136415332Y-69927619D01*
X136347989Y-68580749D02*
X136011271Y-68917466D01*
X136011271Y-68917466D02*
X136314317Y-69287855D01*
X136314317Y-69287855D02*
X136314317Y-69220512D01*
X136314317Y-69220512D02*
X136347989Y-69119497D01*
X136347989Y-69119497D02*
X136516348Y-68951138D01*
X136516348Y-68951138D02*
X136617363Y-68917466D01*
X136617363Y-68917466D02*
X136684707Y-68917466D01*
X136684707Y-68917466D02*
X136785722Y-68951138D01*
X136785722Y-68951138D02*
X136954081Y-69119497D01*
X136954081Y-69119497D02*
X136987752Y-69220512D01*
X136987752Y-69220512D02*
X136987752Y-69287855D01*
X136987752Y-69287855D02*
X136954081Y-69388871D01*
X136954081Y-69388871D02*
X136785722Y-69557229D01*
X136785722Y-69557229D02*
X136684707Y-69590901D01*
X136684707Y-69590901D02*
X136617363Y-69590901D01*
X66983507Y-134711314D02*
X66276400Y-135418420D01*
X66276400Y-135418420D02*
X66108041Y-135250062D01*
X66108041Y-135250062D02*
X66040698Y-135115375D01*
X66040698Y-135115375D02*
X66040698Y-134980688D01*
X66040698Y-134980688D02*
X66074370Y-134879672D01*
X66074370Y-134879672D02*
X66175385Y-134711314D01*
X66175385Y-134711314D02*
X66276400Y-134610298D01*
X66276400Y-134610298D02*
X66444759Y-134509283D01*
X66444759Y-134509283D02*
X66545774Y-134475611D01*
X66545774Y-134475611D02*
X66680461Y-134475611D01*
X66680461Y-134475611D02*
X66815148Y-134542955D01*
X66815148Y-134542955D02*
X66983507Y-134711314D01*
X65771324Y-134307253D02*
X65804996Y-134408268D01*
X65804996Y-134408268D02*
X65804996Y-134475611D01*
X65804996Y-134475611D02*
X65771324Y-134576627D01*
X65771324Y-134576627D02*
X65737652Y-134610298D01*
X65737652Y-134610298D02*
X65636637Y-134643970D01*
X65636637Y-134643970D02*
X65569293Y-134643970D01*
X65569293Y-134643970D02*
X65468278Y-134610298D01*
X65468278Y-134610298D02*
X65333591Y-134475611D01*
X65333591Y-134475611D02*
X65299919Y-134374596D01*
X65299919Y-134374596D02*
X65299919Y-134307253D01*
X65299919Y-134307253D02*
X65333591Y-134206237D01*
X65333591Y-134206237D02*
X65367263Y-134172566D01*
X65367263Y-134172566D02*
X65468278Y-134138894D01*
X65468278Y-134138894D02*
X65535622Y-134138894D01*
X65535622Y-134138894D02*
X65636637Y-134172566D01*
X65636637Y-134172566D02*
X65771324Y-134307253D01*
X65771324Y-134307253D02*
X65872339Y-134340924D01*
X65872339Y-134340924D02*
X65939683Y-134340924D01*
X65939683Y-134340924D02*
X66040698Y-134307253D01*
X66040698Y-134307253D02*
X66175385Y-134172566D01*
X66175385Y-134172566D02*
X66209057Y-134071550D01*
X66209057Y-134071550D02*
X66209057Y-134004207D01*
X66209057Y-134004207D02*
X66175385Y-133903192D01*
X66175385Y-133903192D02*
X66040698Y-133768505D01*
X66040698Y-133768505D02*
X65939683Y-133734833D01*
X65939683Y-133734833D02*
X65872339Y-133734833D01*
X65872339Y-133734833D02*
X65771324Y-133768505D01*
X65771324Y-133768505D02*
X65636637Y-133903192D01*
X65636637Y-133903192D02*
X65602965Y-134004207D01*
X65602965Y-134004207D02*
X65602965Y-134071550D01*
X65602965Y-134071550D02*
X65636637Y-134172566D01*
D11*
%TO.C,D12*%
X133350490Y-135607024D02*
X136886024Y-132071490D01*
X136886024Y-132071490D02*
X133350490Y-128535956D01*
X133350490Y-128535956D02*
X129814956Y-132071490D01*
X129814956Y-132071490D02*
X133350490Y-135607024D01*
D12*
X137192801Y-130692632D02*
G75*
G03*
X137192801Y-130692632I-130000J0D01*
G01*
D11*
%TO.C,C18*%
X106475000Y-54026580D02*
X106475000Y-53745420D01*
X105455000Y-54026580D02*
X105455000Y-53745420D01*
%TO.C,D17*%
X121758308Y-56019327D02*
X117138911Y-54105910D01*
X117138911Y-54105910D02*
X115225494Y-58725307D01*
X115225494Y-58725307D02*
X119844891Y-60638724D01*
X119844891Y-60638724D02*
X121758308Y-56019327D01*
D12*
X115927362Y-54470255D02*
G75*
G03*
X115927362Y-54470255I-130000J0D01*
G01*
D11*
%TO.C,D7*%
X55384910Y-115859911D02*
X57298327Y-120479308D01*
X57298327Y-120479308D02*
X61917724Y-118565891D01*
X61917724Y-118565891D02*
X60004307Y-113946494D01*
X60004307Y-113946494D02*
X55384910Y-115859911D01*
D12*
X58634576Y-121170295D02*
G75*
G03*
X58634576Y-121170295I-130000J0D01*
G01*
D11*
%TO.C,R1*%
X86977742Y-75182500D02*
X87452258Y-75182500D01*
X86977742Y-76227500D02*
X87452258Y-76227500D01*
%TO.C,C20*%
X55305580Y-95196000D02*
X55024420Y-95196000D01*
X55305580Y-94176000D02*
X55024420Y-94176000D01*
%TO.C,D11*%
X117138911Y-145266089D02*
X121758308Y-143352672D01*
X121758308Y-143352672D02*
X119844891Y-138733275D01*
X119844891Y-138733275D02*
X115225494Y-140646692D01*
X115225494Y-140646692D02*
X117138911Y-145266089D01*
D12*
X122579295Y-142146423D02*
G75*
G03*
X122579295Y-142146423I-130000J0D01*
G01*
D11*
%TO.C,D16*%
X136886024Y-67300509D02*
X133350490Y-63764975D01*
X133350490Y-63764975D02*
X129814956Y-67300509D01*
X129814956Y-67300509D02*
X133350490Y-70836043D01*
X133350490Y-70836043D02*
X136886024Y-67300509D01*
D12*
X132101632Y-63588198D02*
G75*
G03*
X132101632Y-63588198I-130000J0D01*
G01*
D11*
%TO.C,BYPS*%
X86260000Y-82176252D02*
X86260000Y-81653748D01*
X87730000Y-82176252D02*
X87730000Y-81653748D01*
%TO.C,D14*%
X149265000Y-102186000D02*
X144265000Y-102186000D01*
X144265000Y-102186000D02*
X144265000Y-97186000D01*
X144265000Y-97186000D02*
X149265000Y-97186000D01*
X149265000Y-97186000D02*
X149265000Y-102186000D01*
D12*
X148545000Y-96086000D02*
G75*
G03*
X148545000Y-96086000I-130000J0D01*
G01*
D11*
%TO.C,C22*%
X96475000Y-145345420D02*
X96475000Y-145626580D01*
X95455000Y-145345420D02*
X95455000Y-145626580D01*
%TO.C,D4*%
X68579509Y-63764975D02*
X65043975Y-67300509D01*
X65043975Y-67300509D02*
X68579509Y-70836043D01*
X68579509Y-70836043D02*
X72115043Y-67300509D01*
X72115043Y-67300509D02*
X68579509Y-63764975D01*
D12*
X64997198Y-68679367D02*
G75*
G03*
X64997198Y-68679367I-130000J0D01*
G01*
D11*
%TO.C,C23*%
X130076175Y-135146994D02*
X130274986Y-135345805D01*
X129354926Y-135868243D02*
X129553737Y-136067054D01*
%TO.C,D6*%
X52665000Y-97186000D02*
X57665000Y-97186000D01*
X57665000Y-97186000D02*
X57665000Y-102186000D01*
X57665000Y-102186000D02*
X52665000Y-102186000D01*
X52665000Y-102186000D02*
X52665000Y-97186000D01*
D12*
X53645000Y-103286000D02*
G75*
G03*
X53645000Y-103286000I-130000J0D01*
G01*
D11*
%TO.C,D3*%
X84791088Y-54105910D02*
X80171691Y-56019327D01*
X80171691Y-56019327D02*
X82085108Y-60638724D01*
X82085108Y-60638724D02*
X86704505Y-58725307D01*
X86704505Y-58725307D02*
X84791088Y-54105910D01*
D12*
X79610704Y-57225576D02*
G75*
G03*
X79610704Y-57225576I-130000J0D01*
G01*
D11*
%TO.C,C19*%
X71853824Y-64225005D02*
X71655013Y-64026194D01*
X72575073Y-63503756D02*
X72376262Y-63304945D01*
%TO.C,PWR*%
X85730000Y-76951000D02*
X85730000Y-78421000D01*
X85730000Y-78421000D02*
X88015000Y-78421000D01*
X88015000Y-76951000D02*
X85730000Y-76951000D01*
%TO.C,D13*%
X144631672Y-120479308D02*
X146545089Y-115859911D01*
X146545089Y-115859911D02*
X141925692Y-113946494D01*
X141925692Y-113946494D02*
X140012275Y-118565891D01*
X140012275Y-118565891D02*
X144631672Y-120479308D01*
D12*
X146310744Y-114518362D02*
G75*
G03*
X146310744Y-114518362I-130000J0D01*
G01*
D11*
%TO.C,D2*%
X103465000Y-51386000D02*
X98465000Y-51386000D01*
X98465000Y-51386000D02*
X98465000Y-56386000D01*
X98465000Y-56386000D02*
X103465000Y-56386000D01*
X103465000Y-56386000D02*
X103465000Y-51386000D01*
D12*
X97495000Y-52236000D02*
G75*
G03*
X97495000Y-52236000I-130000J0D01*
G01*
D11*
%TO.C,C24*%
X146624420Y-104176000D02*
X146905580Y-104176000D01*
X146624420Y-105196000D02*
X146905580Y-105196000D01*
%TO.C,D5*%
X57298327Y-78892691D02*
X55384910Y-83512088D01*
X55384910Y-83512088D02*
X60004307Y-85425505D01*
X60004307Y-85425505D02*
X61917724Y-80806108D01*
X61917724Y-80806108D02*
X57298327Y-78892691D01*
D12*
X55879255Y-84853637D02*
G75*
G03*
X55879255Y-84853637I-130000J0D01*
G01*
D11*
%TO.C,D10*%
X98465000Y-147986000D02*
X103465000Y-147986000D01*
X103465000Y-147986000D02*
X103465000Y-142986000D01*
X103465000Y-142986000D02*
X98465000Y-142986000D01*
X98465000Y-142986000D02*
X98465000Y-147986000D01*
D12*
X104695000Y-147136000D02*
G75*
G03*
X104695000Y-147136000I-130000J0D01*
G01*
D11*
%TO.C,D9*%
X80171691Y-143352672D02*
X84791088Y-145266089D01*
X84791088Y-145266089D02*
X86704505Y-140646692D01*
X86704505Y-140646692D02*
X82085108Y-138733275D01*
X82085108Y-138733275D02*
X80171691Y-143352672D01*
D12*
X86262637Y-144901744D02*
G75*
G03*
X86262637Y-144901744I-130000J0D01*
G01*
D11*
%TO.C,D15*%
X146545089Y-83512088D02*
X144631672Y-78892691D01*
X144631672Y-78892691D02*
X140012275Y-80806108D01*
X140012275Y-80806108D02*
X141925692Y-85425505D01*
X141925692Y-85425505D02*
X146545089Y-83512088D01*
D12*
X143555423Y-78201704D02*
G75*
G03*
X143555423Y-78201704I-130000J0D01*
G01*
D11*
%TO.C,C21*%
X65504005Y-128797175D02*
X65305194Y-128995986D01*
X64782756Y-128075926D02*
X64583945Y-128274737D01*
%TO.C,C25*%
X136425994Y-70574824D02*
X136624805Y-70376013D01*
X137147243Y-71296073D02*
X137346054Y-71097262D01*
%TO.C,D8*%
X65043975Y-132071490D02*
X68579509Y-135607024D01*
X68579509Y-135607024D02*
X72115043Y-132071490D01*
X72115043Y-132071490D02*
X68579509Y-128535956D01*
X68579509Y-128535956D02*
X65043975Y-132071490D01*
D12*
X70088367Y-135783801D02*
G75*
G03*
X70088367Y-135783801I-130000J0D01*
G01*
%TD*%
%LPC*%
D13*
%TO.C,D12*%
X136249628Y-131505805D03*
X133916175Y-129172352D03*
X130451352Y-132637175D03*
X132784805Y-134970628D03*
%TD*%
D14*
%TO.C,C18*%
X105965000Y-53111000D03*
X105965000Y-54661000D03*
%TD*%
D15*
%TO.C,D17*%
X116859824Y-54910341D03*
X115596968Y-57959144D03*
X120123978Y-59834293D03*
X121386834Y-56785490D03*
%TD*%
D16*
%TO.C,REF\u002A\u002A*%
X84465000Y-71107200D03*
%TD*%
D17*
%TO.C,D7*%
X58064490Y-120107834D03*
X61113293Y-118844978D03*
X59238144Y-114317968D03*
X56189341Y-115580824D03*
%TD*%
D18*
%TO.C,R1*%
X86390000Y-75705000D03*
X88040000Y-75705000D03*
%TD*%
D19*
%TO.C,C20*%
X55940000Y-94686000D03*
X54390000Y-94686000D03*
%TD*%
D20*
%TO.C,D11*%
X121386834Y-142586509D03*
X120123978Y-139537706D03*
X115596968Y-141412855D03*
X116859824Y-144461658D03*
%TD*%
D16*
%TO.C,REF\u002A\u002A*%
X135134565Y-96441978D03*
%TD*%
D21*
%TO.C,D16*%
X132784805Y-64401371D03*
X130451352Y-66734824D03*
X133916175Y-70199647D03*
X136249628Y-67866194D03*
%TD*%
D22*
%TO.C,BYPS*%
X86995000Y-82865000D03*
X86995000Y-80965000D03*
%TD*%
D23*
%TO.C,D14*%
X148415000Y-97236000D03*
X145115000Y-97236000D03*
X145115000Y-102136000D03*
X148415000Y-102136000D03*
%TD*%
D24*
%TO.C,C22*%
X95965000Y-144711000D03*
X95965000Y-146261000D03*
%TD*%
D25*
%TO.C,D4*%
X65680371Y-67866194D03*
X68013824Y-70199647D03*
X71478647Y-66734824D03*
X69145194Y-64401371D03*
%TD*%
D26*
%TO.C,C23*%
X129266948Y-135059016D03*
X130362964Y-136155032D03*
%TD*%
D27*
%TO.C,D6*%
X53515000Y-102136000D03*
X56815000Y-102136000D03*
X56815000Y-97236000D03*
X53515000Y-97236000D03*
%TD*%
D28*
%TO.C,D3*%
X80543165Y-56785490D03*
X81806021Y-59834293D03*
X86333031Y-57959144D03*
X85070175Y-54910341D03*
%TD*%
D16*
%TO.C,REF\u002A\u002A*%
X117465000Y-128264838D03*
%TD*%
D29*
%TO.C,C19*%
X72663051Y-64312983D03*
X71567035Y-63216967D03*
%TD*%
D30*
%TO.C,PWR*%
X86427500Y-77686000D03*
X88002500Y-77686000D03*
%TD*%
D31*
%TO.C,D13*%
X145740658Y-115580824D03*
X142691855Y-114317968D03*
X140816706Y-118844978D03*
X143865509Y-120107834D03*
%TD*%
D32*
%TO.C,D2*%
X98515000Y-52236000D03*
X98515000Y-55536000D03*
X103415000Y-55536000D03*
X103415000Y-52236000D03*
%TD*%
D16*
%TO.C,REF\u002A\u002A*%
X84465000Y-128264840D03*
%TD*%
%TO.C,REF\u002A\u002A*%
X135134600Y-102930000D03*
%TD*%
D33*
%TO.C,C24*%
X145990000Y-104686000D03*
X147540000Y-104686000D03*
%TD*%
D34*
%TO.C,D5*%
X56189341Y-83791175D03*
X59238144Y-85054031D03*
X61113293Y-80527021D03*
X58064490Y-79264165D03*
%TD*%
D35*
%TO.C,D10*%
X103415000Y-147136000D03*
X103415000Y-143836000D03*
X98515000Y-143836000D03*
X98515000Y-147136000D03*
%TD*%
D36*
%TO.C,D9*%
X85070175Y-144461658D03*
X86333031Y-141412855D03*
X81806021Y-139537706D03*
X80543165Y-142586509D03*
%TD*%
D37*
%TO.C,D15*%
X143865509Y-79264165D03*
X140816706Y-80527021D03*
X142691855Y-85054031D03*
X145740658Y-83791175D03*
%TD*%
D38*
%TO.C,C21*%
X65591983Y-127987948D03*
X64495967Y-129083964D03*
%TD*%
D16*
%TO.C,REF\u002A\u002A*%
X117465000Y-71107162D03*
%TD*%
D39*
%TO.C,C25*%
X136338016Y-71384051D03*
X137434032Y-70288035D03*
%TD*%
D40*
%TO.C,D8*%
X69145194Y-134970628D03*
X71478647Y-132637175D03*
X68013824Y-129172352D03*
X65680371Y-131505805D03*
%TD*%
D41*
%TO.C,U8*%
X87449425Y-138952822D03*
D42*
X85102771Y-137980806D03*
X82756117Y-137008790D03*
%TD*%
D43*
%TO.C,U16*%
X114480574Y-60419177D03*
D42*
X116827228Y-61391193D03*
X119173882Y-62363209D03*
%TD*%
D44*
%TO.C,U15*%
X128478525Y-68580372D03*
D42*
X130274576Y-70376423D03*
X132070627Y-72172474D03*
%TD*%
D45*
%TO.C,J1*%
X112395000Y-83185000D03*
D46*
X112395000Y-80645000D03*
X109855000Y-83185000D03*
X109855000Y-80645000D03*
X107315000Y-83185000D03*
X107315000Y-80645000D03*
X104775000Y-83185000D03*
X104775000Y-80645000D03*
X102235000Y-83185000D03*
X102235000Y-80645000D03*
X99695000Y-83185000D03*
X99695000Y-80645000D03*
X97155000Y-83185000D03*
X97155000Y-80645000D03*
X94615000Y-83185000D03*
X94615000Y-80645000D03*
X92075000Y-83185000D03*
X92075000Y-80645000D03*
X89535000Y-83185000D03*
X89535000Y-80645000D03*
%TD*%
D47*
%TO.C,U1*%
X98425000Y-58236000D03*
D42*
X100965000Y-58236000D03*
X103505000Y-58236000D03*
%TD*%
D48*
%TO.C,U12*%
X140231822Y-113201574D03*
D42*
X139259806Y-115548228D03*
X138287790Y-117894882D03*
%TD*%
D49*
%TO.C,U7*%
X73451474Y-130791627D03*
D42*
X71655423Y-128995576D03*
X69859372Y-127199525D03*
%TD*%
D50*
%TO.C,U5*%
X59515000Y-102226000D03*
D42*
X59515000Y-99686000D03*
X59515000Y-97146000D03*
%TD*%
D51*
%TO.C,U10*%
X119173882Y-137008790D03*
D42*
X116827228Y-137980806D03*
X114480574Y-138952822D03*
%TD*%
D52*
%TO.C,U3*%
X69859372Y-72172474D03*
D42*
X71655423Y-70376423D03*
X73451474Y-68580372D03*
%TD*%
D53*
%TO.C,U13*%
X142415000Y-97146000D03*
D42*
X142415000Y-99686000D03*
X142415000Y-102226000D03*
%TD*%
D54*
%TO.C,U4*%
X61698177Y-86170425D03*
D42*
X62670193Y-83823771D03*
X63642209Y-81477117D03*
%TD*%
D55*
%TO.C,U2*%
X82756117Y-62363209D03*
D42*
X85102771Y-61391193D03*
X87449425Y-60419177D03*
%TD*%
D56*
%TO.C,U14*%
X138287790Y-81477117D03*
D42*
X139259806Y-83823771D03*
X140231822Y-86170425D03*
%TD*%
D57*
%TO.C,U6*%
X63642209Y-117894882D03*
D42*
X62670193Y-115548228D03*
X61698177Y-113201574D03*
%TD*%
D58*
%TO.C,U11*%
X132070627Y-127199525D03*
D42*
X130274576Y-128995576D03*
X128478525Y-130791627D03*
%TD*%
D59*
%TO.C,U9*%
X103505000Y-141136000D03*
D42*
X100965000Y-141136000D03*
X98425000Y-141136000D03*
%TD*%
%LPD*%
M02*
