<?xml version="1.0" standalone="no"?>
<!DOCTYPE svg PUBLIC "-//W3C//DTD SVG 20010904//EN"
 "http://www.w3.org/TR/2001/REC-SVG-20010904/DTD/svg10.dtd">
<svg version="1.0" xmlns="http://www.w3.org/2000/svg"
 width="298.000000pt" height="316.000000pt" viewBox="0 0 298.000000 316.000000"
 preserveAspectRatio="xMidYMid meet">

<g transform="translate(0.000000,316.000000) scale(0.100000,-0.100000)"
fill="#000000" stroke="none">
<path d="M540 1795 l0 -1065 950 0 950 0 0 1065 0 1065 -950 0 -950 0 0 -1065z
m1319 88 c101 -269 192 -509 202 -535 l19 -48 -175 0 -174 0 -28 88 -28 87
-187 3 c-171 2 -187 1 -192 -15 -3 -10 -15 -51 -26 -90 l-22 -73 -170 0 c-132
0 -169 3 -165 13 2 6 79 210 170 452 91 242 180 477 197 523 l32 82 182 0 182
0 183 -487z"/>
<path d="M1432 1902 c-29 -97 -53 -180 -52 -184 0 -12 220 -10 220 2 0 15
-102 344 -109 352 -3 4 -30 -73 -59 -170z"/>
</g>
</svg>
