<?xml version="1.0" standalone="no"?>
<!DOCTYPE svg PUBLIC "-//W3C//DTD SVG 20010904//EN"
 "http://www.w3.org/TR/2001/REC-SVG-20010904/DTD/svg10.dtd">
<svg version="1.0" xmlns="http://www.w3.org/2000/svg"
 width="298.000000pt" height="316.000000pt" viewBox="0 0 298.000000 316.000000"
 preserveAspectRatio="xMidYMid meet">

<g transform="translate(0.000000,316.000000) scale(0.100000,-0.100000)"
fill="#000000" stroke="none">
<path d="M540 1795 l0 -1065 950 0 950 0 0 1065 0 1065 -950 0 -950 0 0 -1065z
m1279 540 c29 -16 66 -45 82 -64 100 -122 63 -313 -74 -383 l-29 -14 66 -33
c73 -36 106 -72 130 -144 44 -130 -10 -273 -130 -343 -72 -42 -186 -54 -536
-54 l-308 0 0 536 0 535 373 -3 372 -3 54 -30z"/>
<path d="M1357 2153 c-4 -3 -7 -51 -7 -105 l0 -98 88 0 c149 0 192 24 192 106
0 53 -23 82 -75 94 -46 11 -188 13 -198 3z"/>
<path d="M1350 1640 l0 -112 123 4 c139 5 169 15 193 66 14 29 14 41 5 73 -18
60 -52 73 -198 77 l-123 4 0 -112z"/>
</g>
</svg>
