<?xml version="1.0" standalone="no"?>
<!DOCTYPE svg PUBLIC "-//W3C//DTD SVG 20010904//EN"
 "http://www.w3.org/TR/2001/REC-SVG-20010904/DTD/svg10.dtd">
<svg version="1.0" xmlns="http://www.w3.org/2000/svg"
 width="1064.000000pt" height="316.000000pt" viewBox="0 0 1064.000000 316.000000"
 preserveAspectRatio="xMidYMid meet">

<g transform="translate(0.000000,316.000000) scale(0.100000,-0.100000)"
fill="#000000" stroke="none">
<path d="M180 1795 l0 -1065 5140 0 5140 0 0 1065 0 1065 -5140 0 -5140 0 0
-1065z m4653 567 c77 -26 135 -68 169 -122 26 -41 58 -126 58 -156 0 -8 -35
-14 -117 -18 -65 -4 -134 -9 -153 -12 -35 -5 -36 -4 -56 44 -29 68 -61 87
-147 87 -63 0 -71 -2 -93 -28 -55 -64 -18 -105 122 -137 284 -64 396 -125 453
-244 40 -86 29 -222 -24 -306 -87 -135 -248 -198 -475 -186 -217 11 -329 68
-396 199 -23 44 -60 165 -52 172 2 2 73 6 159 10 l156 8 12 -46 c30 -123 194
-177 287 -95 27 24 34 38 34 67 0 75 -32 96 -221 146 -282 75 -382 163 -383
335 -1 146 103 256 278 296 90 20 313 13 389 -14z m-3031 -21 c99 -49 151
-130 151 -237 -1 -100 -40 -167 -127 -213 -33 -17 -36 -21 -20 -26 131 -42
196 -127 197 -259 0 -105 -40 -183 -123 -241 -74 -51 -123 -57 -512 -62 l-358
-5 0 537 0 536 373 -3 c368 -3 373 -3 419 -27z m1668 -506 l0 -535 -150 0
-150 0 0 535 0 535 150 0 150 0 0 -535z m500 0 l0 -535 -150 0 -150 0 0 535 0
535 150 0 150 0 0 -535z m-1267 250 c129 -8 196 -47 245 -140 26 -49 27 -54
32 -310 5 -212 9 -267 22 -297 l17 -38 -139 0 c-152 0 -151 -1 -169 68 l-6 23
-39 -30 c-66 -53 -138 -74 -251 -74 -121 -1 -186 23 -240 86 -61 71 -65 191
-9 265 37 48 106 76 285 116 85 19 172 41 194 49 36 13 40 18 38 47 -2 52 -23
65 -103 65 -74 0 -115 -19 -135 -63 -12 -26 -23 -27 -181 -10 -130 13 -130 13
-88 96 46 92 131 138 276 151 51 4 111 6 133 5 22 -2 75 -6 118 -9z m3154 -19
c145 -45 232 -177 248 -373 l7 -83 -301 0 c-234 0 -301 -3 -301 -12 0 -7 9
-32 20 -55 24 -53 70 -83 128 -83 48 0 74 11 112 45 l25 23 142 -12 c78 -6
144 -14 147 -17 3 -3 -12 -27 -32 -54 -88 -117 -192 -159 -392 -159 -103 0
-138 4 -199 23 -65 20 -83 31 -136 84 -88 89 -109 146 -110 297 0 110 1 118
33 182 65 133 190 209 362 221 60 4 193 -11 247 -27z m1046 13 c46 -12 102
-60 128 -111 29 -57 38 -157 39 -425 l0 -243 -149 0 -149 0 -4 243 c-4 259 -8
285 -55 306 -34 16 -85 14 -111 -5 -52 -36 -57 -62 -60 -311 l-4 -233 -149 0
-149 0 0 390 0 390 140 0 140 0 0 -62 0 -62 43 41 c92 90 201 116 340 82z
m894 -5 c69 -19 132 -69 166 -132 l28 -51 -23 -5 c-13 -3 -74 -10 -137 -16
l-115 -11 -23 30 c-28 35 -87 55 -137 45 -40 -7 -69 -35 -64 -60 6 -34 51 -53
167 -69 174 -25 237 -48 292 -104 81 -84 88 -186 19 -286 -62 -91 -173 -130
-365 -129 -185 0 -274 25 -342 96 -29 29 -80 125 -71 133 4 4 226 25 264 25
23 0 34 -6 42 -25 18 -40 69 -65 133 -65 73 0 112 27 107 74 -4 40 -25 50
-164 76 -179 34 -236 54 -283 101 -71 71 -87 187 -37 262 30 44 99 94 149 108
99 28 298 29 394 3z m943 -4 c193 -56 300 -231 269 -444 -15 -107 -68 -199
-151 -260 -118 -87 -330 -106 -493 -45 -72 27 -165 112 -199 182 -96 199 -17
445 174 542 106 53 267 63 400 25z m1003 -1 c12 -6 24 -13 26 -15 2 -2 -16
-51 -40 -109 -34 -80 -48 -104 -59 -99 -8 4 -35 9 -60 11 -39 4 -51 1 -78 -22
-51 -43 -63 -100 -69 -332 l-6 -203 -148 0 -149 0 0 390 0 390 140 0 140 0 0
-62 0 -62 31 44 c17 25 42 53 55 63 47 35 155 38 217 6z"/>
<path d="M1350 2056 l0 -106 88 0 c113 0 158 13 177 50 28 55 13 118 -34 141
-14 7 -72 14 -128 17 l-103 4 0 -106z"/>
<path d="M1350 1640 l0 -110 103 0 c121 0 169 11 197 47 29 37 27 103 -3 131
-34 32 -79 42 -194 42 l-103 0 0 -110z"/>
<path d="M2595 1640 c-49 -14 -105 -34 -123 -44 -84 -43 -52 -146 45 -146 110
0 183 80 171 187 l-3 31 -90 -28z"/>
<path d="M5615 1913 c-46 -12 -105 -93 -105 -145 0 -5 66 -8 146 -8 l147 0 -6
36 c-7 43 -29 78 -62 100 -26 17 -87 26 -120 17z"/>
<path d="M8514 1876 c-70 -31 -106 -130 -87 -241 13 -73 34 -110 77 -132 69
-36 153 -9 189 61 29 56 30 185 2 241 -37 73 -109 102 -181 71z"/>
</g>
</svg>
