<?xml version="1.0" standalone="no"?>
<!DOCTYPE svg PUBLIC "-//W3C//DTD SVG 20010904//EN"
 "http://www.w3.org/TR/2001/REC-SVG-20010904/DTD/svg10.dtd">
<svg version="1.0" xmlns="http://www.w3.org/2000/svg"
 width="298.000000pt" height="316.000000pt" viewBox="0 0 298.000000 316.000000"
 preserveAspectRatio="xMidYMid meet">

<g transform="translate(0.000000,316.000000) scale(0.100000,-0.100000)"
fill="#000000" stroke="none">
<path d="M540 1795 l0 -1065 950 0 950 0 0 1065 0 1065 -950 0 -950 0 0 -1065z
m1156 575 c95 -24 168 -70 223 -140 46 -59 96 -159 84 -170 -4 -4 -70 -21
-146 -37 l-138 -30 -15 36 c-33 78 -96 115 -190 109 -126 -8 -190 -89 -201
-254 -7 -108 10 -221 41 -266 80 -119 263 -115 333 7 13 22 28 57 34 78 6 23
15 37 22 34 7 -2 72 -22 145 -43 l132 -39 -6 -30 c-12 -58 -62 -154 -104 -199
-97 -106 -194 -141 -385 -140 -138 0 -205 13 -295 59 -104 53 -207 198 -235
332 -31 144 -13 341 41 451 34 69 120 161 183 195 121 67 323 86 477 47z"/>
</g>
</svg>
