<?xml version="1.0" standalone="no"?>
<!DOCTYPE svg PUBLIC "-//W3C//DTD SVG 20010904//EN"
 "http://www.w3.org/TR/2001/REC-SVG-20010904/DTD/svg10.dtd">
<svg version="1.0" xmlns="http://www.w3.org/2000/svg"
 width="540.000000pt" height="316.000000pt" viewBox="0 0 540.000000 316.000000"
 preserveAspectRatio="xMidYMid meet">

<g transform="translate(0.000000,316.000000) scale(0.100000,-0.100000)"
fill="#000000" stroke="none">
<path d="M610 1795 l0 -1065 2090 0 2090 0 0 1065 0 1065 -2090 0 -2090 0 0
-1065z m3530 585 c119 -23 205 -83 251 -176 19 -40 24 -64 23 -129 0 -148 -57
-225 -298 -406 -77 -57 -141 -110 -144 -116 -3 -10 47 -13 227 -13 l231 0 0
-120 0 -120 -450 0 -450 0 6 28 c41 186 124 298 352 474 191 147 232 196 232
274 0 47 -50 99 -104 109 -74 14 -131 -30 -155 -120 l-11 -41 -137 12 c-76 7
-143 13 -150 13 -8 1 -8 17 3 61 36 153 114 234 258 265 74 16 243 19 316 5z
m-2606 -322 c44 -170 82 -308 86 -308 3 0 42 140 85 310 l79 310 218 0 218 0
0 -535 0 -535 -135 0 -135 0 -1 398 -1 397 -24 -90 c-13 -49 -59 -227 -102
-395 l-79 -305 -124 -3 -124 -3 -85 328 c-133 519 -118 512 -119 61 l-1 -388
-140 0 -140 0 0 535 0 535 222 -2 222 -3 80 -307z m1548 301 c83 -18 151 -55
206 -112 99 -106 135 -217 134 -422 0 -71 -5 -151 -11 -177 -28 -121 -110
-233 -208 -286 -94 -50 -192 -62 -499 -62 l-264 0 0 535 0 535 295 0 c178 0
315 -4 347 -11z"/>
<path d="M2770 1834 l0 -297 91 6 c115 7 166 30 199 90 21 37 25 58 28 168 7
200 -26 279 -129 312 -28 9 -82 17 -120 17 l-69 0 0 -296z"/>
</g>
</svg>
