0
SECTION
2
HEADER
9
$INSUNITS
70
4
9
$ACADVER
1
AC1014
9
$HANDSEED
5
FFFF
0
ENDSEC
0
SECTION
2
TABLES
0
TABLE
2
VPORT
5
8
100
AcDbSymbolTable
0
ENDTAB
0
TABLE
2
LTYPE
5
5
100
AcDbSymbolTable
0
LTYPE
5
14
100
AcDbSymbolTableRecord
100
AcDbLinetypeTableRecord
2
BYBLOCK
70
0
0
LTYPE
5
15
100
AcDbSymbolTableRecord
100
AcDbLinetypeTableRecord
2
BYLAYER
70
0
0
ENDTAB
0
TABLE
2
LAYER
5
2
100
AcDbSymbolTable
70
2
0
LAYER
5
50
100
AcDbSymbolTableRecord
100
AcDbLayerTableRecord
2
0
70
0
6
CONTINUOUS
0
ENDTAB
0
TABLE
2
STYLE
5
3
100
AcDbSymbolTable
70
1
0
STYLE
5
11
100
AcDbSymbolTableRecord
100
AcDbTextStyleTableRecord
2
STANDARD
70
0
0
ENDTAB
0
TABLE
2
VIEW
5
6
100
AcDbSymbolTable
70
0
0
ENDTAB
0
TABLE
2
UCS
5
7
100
AcDbSymbolTable
70
0
0
ENDTAB
0
TABLE
2
APPID
5
9
100
AcDbSymbolTable
70
2
0
APPID
5
12
100
AcDbSymbolTableRecord
100
AcDbRegAppTableRecord
2
ACAD
70
0
0
ENDTAB
0
TABLE
2
DIMSTYLE
5
A
100
AcDbSymbolTable
70
1
0
ENDTAB
0
TABLE
2
BLOCK_RECORD
5
1
100
AcDbSymbolTable
70
1
0
BLOCK_RECORD
5
1F
100
AcDbSymbolTableRecord
100
AcDbBlockTableRecord
2
*MODEL_SPACE
0
BLOCK_RECORD
5
1B
100
AcDbSymbolTableRecord
100
AcDbBlockTableRecord
2
*PAPER_SPACE
0
ENDTAB
0
ENDSEC
0
SECTION
2
BLOCKS
0
BLOCK
5
20
100
AcDbEntity
100
AcDbBlockBegin
2
*MODEL_SPACE
0
ENDBLK
5
21
100
AcDbEntity
100
AcDbBlockEnd
0
BLOCK
5
1C
100
AcDbEntity
100
AcDbBlockBegin
2
*PAPER_SPACE
0
ENDBLK
5
1D
100
AcDbEntity
100
AcDbBlockEnd
0
ENDSEC
0
SECTION
2
ENTITIES
0
LWPOLYLINE
5
100
100
AcDbEntity
8
0
100
AcDbPolyline
90
28
70
1
43
0.0
10
-38.036290438755543
20
-17.9235920663615
10
-38.036290438856028
20
-17.383094710424732
42
-0.19306391592796907
10
-37.759146429378944
20
-16.692096000424442
42
0.40107746312015236
10
-37.75914643017542
20
-12.407903998742096
42
-0.19306391592795719
10
-38.036290439909436
20
-11.716905288844854
10
-38.036290444266015
20
11.716905283915597
42
-0.19306391642314094
10
-37.759146433469425
20
12.407903995296225
42
0.40107746422852569
10
-37.759146434265901
20
16.69209600553669
42
-0.19306391642314452
10
-38.036290445319423
20
17.383094716814274
10
-38.036290445419908
20
17.923592073398467
42
0.19891236733134723
10
-38.329183664233369
20
18.630698854399114
10
-47.74339722854257
20
28.044912418708059
42
0.19891236737965476
10
-48.450504009729102
20
28.337805637521498
10
-77.407700903373581
20
28.337805637521434
42
-0.22418191989364905
10
-78.17980316105492
20
28.70230732620708
42
0.47208991433371289
10
-82.966837158679155
20
28.70230732620707
42
-0.22418191989366421
10
-83.738939416360466
20
28.337805637521424
10
-95.150640475643158
20
28.337805637521384
42
0.33445011344543291
10
-96.11175805620519
20
27.613945088405458
42
0.14080718747600204
10
-96.111758059263195
20
-27.613945077762008
42
0.33445011347618742
10
-95.150640478670539
20
-28.337805626984391
10
-83.73893942503328
20
-28.33780562698437
42
-0.22418192076762578
10
-82.966837165236626
20
-28.702307318240024
42
0.47208991636893471
10
-78.179803154497407
20
-28.702307318240024
42
-0.22418192076761645
10
-77.407700894700767
20
-28.337805626984363
10
-48.450503999192534
20
-28.337805626984331
42
0.19891236737965554
10
-47.743397218005995
20
-28.04491240817088
10
-38.329183657569004
20
-18.63069884773396
42
0.19891236742797663
0
CIRCLE
5
101
100
AcDbEntity
8
0
100
AcDbCircle
10
-16.500000000000007
20
-28.578838324886476
30
0
40
1.6000000000000014
210
0
220
0
230
1
0
CIRCLE
5
102
100
AcDbEntity
8
0
100
AcDbCircle
10
16.500000000000085
20
-28.578838324886537
30
0
40
1.6000000000000014
210
0
220
0
230
1
0
CIRCLE
5
103
100
AcDbEntity
8
0
100
AcDbCircle
10
16.500000000000085
20
28.578838324886537
30
0
40
1.6000000000000014
210
0
220
0
230
1
0
ARC
5
104
100
AcDbEntity
8
0
100
AcDbCircle
10
0
20
0
30
0
40
33.000000000000028
210
0
220
0
230
1
100
AcDbArc
50
249.02885683701135
51
290.97114316298905
0
LINE
5
105
100
AcDbEntity
8
0
100
AcDbLine
10
-35.000000000000128
20
26.846354902290521
30
0
11
-35.000000000000099
21
-23.846354902290496
31
0
0
LINE
5
106
100
AcDbEntity
8
0
100
AcDbLine
10
14.9999999999996
20
42.665999999999983
30
0
11
-15
21
42.666000000000004
31
0
0
LINE
5
107
100
AcDbEntity
8
0
100
AcDbLine
10
-22.569052786556295
20
-26.846354902290493
30
0
11
-32.000000000000092
21
-26.846354902290503
31
0
0
LINE
5
108
100
AcDbEntity
8
0
100
AcDbLine
10
35.000000000000128
20
26.846354902290521
30
0
11
35.000000000000099
21
-23.846354902290507
31
0
0
LINE
5
109
100
AcDbEntity
8
0
100
AcDbLine
10
32.000000000000099
20
-26.846354902290503
30
0
11
22.569052786556284
21
-26.8463549022905
31
0
0
ARC
5
110
100
AcDbEntity
8
0
100
AcDbCircle
10
16.500000000000085
20
-28.578838324886537
30
0
40
3.1999999999999424
210
0
220
0
230
1
100
AcDbArc
50
234.3258623462437
51
348.20338868434686
0
ARC
5
111
100
AcDbEntity
8
0
100
AcDbCircle
10
-16.500000000000007
20
-28.578838324886476
30
0
40
3.200000000000057
210
0
220
0
230
1
100
AcDbArc
50
191.79661131565342
51
305.6741376537567
0
CIRCLE
5
112
100
AcDbEntity
8
0
100
AcDbCircle
10
-16.500000000000007
20
28.578838324886476
30
0
40
1.5999999999999992
210
0
220
0
230
1
0
LINE
5
113
100
AcDbEntity
8
0
100
AcDbLine
10
-35.000000521540642
20
26.846354902290521
30
0
11
-35.000000521540642
21
37.000000596046448
31
0
0
LINE
5
114
100
AcDbEntity
8
0
100
AcDbLine
10
-17.000000298023224
20
40.000000596046448
30
0
11
17.000000298023224
21
40.000000596046448
31
0
0
LINE
5
115
100
AcDbEntity
8
0
100
AcDbLine
10
35.000000000000128
20
37.000000596046448
30
0
11
35.000000000000128
21
26.846354902290521
31
0
0
ARC
5
116
100
AcDbEntity
8
0
100
AcDbCircle
10
32.000000000000099
20
-23.846354902290507
30
0
40
2.9999999999999982
210
-0
220
0
230
1
100
AcDbArc
50
-90
51
0
0
ARC
5
117
100
AcDbEntity
8
0
100
AcDbCircle
10
22.569052786556266
20
-29.846354902290489
30
0
40
2.9999999999999893
210
0
220
-0
230
1
100
AcDbArc
50
89.999999999999673
51
168.20338868434689
0
ARC
5
118
100
AcDbEntity
8
0
100
AcDbCircle
10
-22.569052786556302
20
-29.8463549022905
30
0
40
3.0000000000000053
210
0
220
-0
230
1
100
AcDbArc
50
11.796611315653715
51
89.999999999999872
0
ARC
5
119
100
AcDbEntity
8
0
100
AcDbCircle
10
-32.000000000000092
20
-23.8463549022905
30
0
40
3.0000000000000027
210
0
220
-0
230
1
100
AcDbArc
50
180
51
270
0
ARC
5
120
100
AcDbEntity
8
0
100
AcDbCircle
10
12.884317534894196
20
-33.615388762589077
30
0
40
2.9999999999997256
210
0
220
-0
230
1
100
AcDbArc
50
54.325862346239859
51
110.97114316299042
0
ARC
5
121
100
AcDbEntity
8
0
100
AcDbCircle
10
-12.884317534894009
20
-33.615388762589632
30
0
40
3.0000000000001767
210
0
220
-0
230
1
100
AcDbArc
50
69.028856837012455
51
125.67413765375458
0
LINE
5
122
100
AcDbEntity
8
0
100
AcDbLine
10
20.000000298023224
20
43.000000596046448
30
0
11
20.000000298023224
21
67.000001043081284
31
0
0
LINE
5
123
100
AcDbEntity
8
0
100
AcDbLine
10
23.000000298023224
20
70.000001043081284
30
0
11
32.000000474127866
21
70.000001043081284
31
0
0
LINE
5
124
100
AcDbEntity
8
0
100
AcDbLine
10
35.000000474127859
20
67.000000995668515
30
0
11
35.000000000000128
21
37.000000596046448
31
0
0
LINE
5
125
100
AcDbEntity
8
0
100
AcDbLine
10
-20.000000298023224
20
43.000000596046448
30
0
11
-20.000000298023224
21
67.000001043081284
31
0
0
LINE
5
126
100
AcDbEntity
8
0
100
AcDbLine
10
-23.000000298023224
20
70.000001043081284
30
0
11
-32.000000521540642
21
70.000001043081284
31
0
0
LINE
5
127
100
AcDbEntity
8
0
100
AcDbLine
10
-35.000000521540635
20
67.000001043081284
30
0
11
-35.000000521540642
21
37.000000596046448
31
0
0
ARC
5
128
100
AcDbEntity
8
0
100
AcDbCircle
10
32.000000474127866
20
67.000001043081284
30
0
40
2.9999999999999987
210
-0
220
0
230
1
100
AcDbArc
50
-8.5377364625159387e-07
51
90
0
ARC
5
129
100
AcDbEntity
8
0
100
AcDbCircle
10
23.000000298023213
20
67.000001043081298
30
0
40
2.9999999999999893
210
0
220
-0
230
1
100
AcDbArc
50
89.999999999999801
51
180
0
ARC
5
130
100
AcDbEntity
8
0
100
AcDbCircle
10
17.00000029802322
20
43.000000596046455
30
0
40
3.0000000000000071
210
-0
220
0
230
1
100
AcDbArc
50
270.00000000000006
51
360
0
ARC
5
131
100
AcDbEntity
8
0
100
AcDbCircle
10
-17.00000029802322
20
43.000000596046455
30
0
40
3.0000000000000027
210
0
220
0
230
1
100
AcDbArc
50
180
51
269.99999999999989
0
ARC
5
132
100
AcDbEntity
8
0
100
AcDbCircle
10
-23.00000029802321
20
67.000001043081298
30
0
40
2.9999999999999849
210
0
220
0
230
1
100
AcDbArc
50
0
51
90.00000000000027
0
ARC
5
133
100
AcDbEntity
8
0
100
AcDbCircle
10
-32.000000521540656
20
67.000001043081298
30
0
40
2.9999999999999805
210
0
220
-0
230
1
100
AcDbArc
50
89.99999999999973
51
180
0
ENDSEC
0
SECTION
2
OBJECTS
0
DICTIONARY
5
C
100
AcDbDictionary
3
ACAD_GROUP
350
D
3
ACAD_MLINESTYLE
350
17
0
DICTIONARY
5
D
100
AcDbDictionary
0
DICTIONARY
5
1A
330
C
100
AcDbDictionary
0
DICTIONARY
5
17
100
AcDbDictionary
0
ENDSEC
0
EOF
