<?xml version="1.0" standalone="no"?>
<!DOCTYPE svg PUBLIC "-//W3C//DTD SVG 20010904//EN"
 "http://www.w3.org/TR/2001/REC-SVG-20010904/DTD/svg10.dtd">
<svg version="1.0" xmlns="http://www.w3.org/2000/svg"
 width="556.000000pt" height="316.000000pt" viewBox="0 0 556.000000 316.000000"
 preserveAspectRatio="xMidYMid meet">

<g transform="translate(0.000000,316.000000) scale(0.100000,-0.100000)"
fill="#000000" stroke="none">
<path d="M370 1795 l0 -1065 2410 0 2410 0 0 1065 0 1065 -2410 0 -2410 0 0
-1065z m1380 544 c116 -54 162 -130 168 -279 3 -80 0 -104 -18 -153 -57 -150
-172 -207 -419 -207 l-131 0 0 -200 0 -200 -170 0 -170 0 0 535 0 536 343 -3
342 -3 55 -26z m610 -261 c30 -158 58 -281 61 -275 3 7 34 113 69 237 34 124
69 249 77 278 l14 52 159 0 158 0 70 -252 c39 -139 74 -265 78 -281 3 -15 9
-29 13 -32 4 -2 32 124 62 280 l54 285 157 0 c87 0 158 -1 158 -2 -1 -2 -54
-241 -118 -533 l-118 -530 -164 0 -165 0 -90 322 c-50 177 -93 324 -95 327 -3
2 -46 -143 -96 -322 l-91 -327 -164 -3 -164 -2 -114 517 c-63 285 -117 526
-119 536 -4 16 6 17 154 15 l159 -3 55 -287z m1982 281 c74 -16 120 -42 162
-91 63 -73 82 -189 51 -296 -21 -70 -100 -150 -176 -179 l-54 -20 43 -22 c59
-30 109 -99 208 -288 l85 -163 -189 0 -189 0 -97 183 c-100 187 -146 247 -190
247 -13 0 -31 3 -40 6 -14 5 -16 -17 -16 -215 l0 -221 -170 0 -170 0 0 535 0
535 345 0 c216 0 364 -4 397 -11z"/>
<path d="M1350 2036 l0 -116 75 0 c91 0 138 18 159 59 25 48 20 96 -13 133
-29 32 -31 33 -125 36 l-96 4 0 -116z"/>
<path d="M3940 2050 l0 -110 83 0 c45 0 100 5 121 10 79 18 116 94 77 157 -24
38 -81 53 -201 53 l-80 0 0 -110z"/>
</g>
</svg>
