<?xml version="1.0" standalone="no"?>
<!DOCTYPE svg PUBLIC "-//W3C//DTD SVG 20010904//EN"
 "http://www.w3.org/TR/2001/REC-SVG-20010904/DTD/svg10.dtd">
<svg version="1.0" xmlns="http://www.w3.org/2000/svg"
 width="1060.000000pt" height="316.000000pt" viewBox="0 0 1060.000000 316.000000"
 preserveAspectRatio="xMidYMid meet">

<g transform="translate(0.000000,316.000000) scale(0.100000,-0.100000)"
fill="#000000" stroke="none">
<path d="M160 1795 l0 -1065 5140 0 5140 0 0 1065 0 1065 -5140 0 -5140 0 0
-1065z m1302 528 c8 -27 45 -168 83 -316 38 -147 72 -262 76 -255 4 7 42 149
84 316 l78 302 219 0 218 0 0 -535 0 -535 -135 0 -135 0 -2 398 -3 397 -93
-360 c-51 -198 -98 -377 -103 -397 l-10 -38 -124 0 c-69 0 -125 3 -125 8 0 4
-45 177 -99 386 l-98 379 -6 -159 c-4 -88 -7 -261 -7 -386 l0 -228 -135 0
-135 0 0 535 0 535 219 0 219 0 14 -47z m2258 -53 l0 -100 -150 0 -150 0 0
100 0 100 150 0 150 0 0 -100z m1970 83 c65 -21 142 -89 165 -145 20 -49 23
-149 5 -193 -19 -51 -59 -94 -108 -119 -41 -21 -44 -25 -27 -32 63 -23 85 -35
120 -65 21 -19 47 -54 58 -78 27 -61 26 -172 -1 -234 -22 -50 -85 -118 -131
-142 -63 -32 -213 -45 -533 -45 l-308 0 0 535 0 535 354 0 c304 0 361 -2 406
-17z m3910 -518 l0 -535 -140 0 -140 0 0 51 0 51 -41 -37 c-64 -57 -121 -79
-209 -79 -156 -1 -258 89 -305 271 -8 31 -15 96 -15 143 0 183 65 306 193 366
41 19 68 24 132 24 83 0 133 -16 196 -61 l29 -20 0 180 0 181 150 0 150 0 0
-535z m-6641 251 c93 -6 184 -48 220 -100 49 -73 54 -106 60 -376 4 -176 10
-262 19 -277 6 -12 12 -24 12 -27 0 -3 -63 -6 -139 -6 l-139 0 -17 44 -17 43
-58 -39 c-75 -50 -175 -73 -275 -63 -167 16 -252 100 -243 240 8 129 70 175
305 225 192 42 247 61 251 89 9 58 -53 90 -145 76 -45 -7 -93 -41 -104 -74 -4
-12 -26 -12 -148 -1 l-142 13 6 26 c21 83 92 159 178 187 55 18 184 32 257 27
25 -1 78 -5 119 -7z m1614 -7 c46 -12 102 -60 128 -111 29 -57 38 -157 39
-425 l0 -243 -152 0 -153 0 0 237 c0 257 -6 291 -51 312 -45 20 -93 14 -124
-17 -43 -44 -50 -87 -50 -319 l0 -213 -150 0 -150 0 0 390 0 390 140 0 140 0
0 -62 0 -62 43 41 c92 90 201 116 340 82z m2077 -5 c127 -35 232 -134 266
-252 19 -66 22 -192 5 -248 -16 -50 -48 -111 -79 -149 -110 -133 -357 -179
-557 -104 -72 27 -165 112 -200 183 -97 198 -17 444 175 541 101 51 263 63
390 29z m979 11 c135 -10 209 -60 250 -170 19 -50 21 -77 21 -283 1 -193 3
-235 19 -279 l18 -53 -138 0 c-151 0 -150 -1 -168 68 l-7 24 -31 -26 c-98 -83
-289 -107 -415 -54 -99 42 -151 142 -127 246 24 107 83 144 320 196 238 53
252 61 230 119 -21 55 -151 61 -211 11 -16 -14 -30 -32 -30 -40 0 -17 -27 -18
-176 -2 -130 13 -130 13 -88 96 45 90 130 137 271 151 86 8 108 8 262 -4z
m1034 -16 c15 -7 27 -17 26 -23 0 -6 -19 -54 -43 -106 -29 -65 -47 -94 -57
-91 -8 2 -34 6 -59 8 -39 4 -51 1 -78 -22 -52 -43 -64 -100 -69 -332 l-6 -203
-148 0 -149 0 0 390 0 390 140 0 140 0 0 -62 0 -62 34 48 c18 26 43 54 55 62
46 32 147 34 214 3z m-4943 -379 l0 -390 -150 0 -150 0 0 390 0 390 150 0 150
0 0 -390z"/>
<path d="M5270 2055 l0 -107 108 4 c69 2 115 9 129 18 59 38 56 141 -6 171
-14 7 -72 14 -128 17 l-103 4 0 -107z"/>
<path d="M5270 1640 l0 -110 103 0 c121 0 169 11 197 47 29 37 27 103 -3 131
-34 32 -79 42 -194 42 l-103 0 0 -110z"/>
<path d="M9096 1840 c-38 -34 -50 -75 -48 -172 1 -73 23 -122 64 -148 63 -40
142 -9 174 67 21 50 18 166 -6 213 -38 74 -123 93 -184 40z"/>
<path d="M2827 1633 c-121 -38 -147 -57 -147 -107 0 -72 93 -99 180 -53 56 30
82 78 78 145 l-3 49 -108 -34z"/>
<path d="M6434 1876 c-44 -19 -71 -58 -85 -123 -16 -70 -1 -167 31 -211 61
-82 186 -70 233 22 29 56 30 185 2 241 -37 73 -109 102 -181 71z"/>
<path d="M7497 1635 c-114 -35 -141 -51 -151 -91 -13 -50 28 -93 90 -94 109
-1 184 80 172 187 l-3 31 -108 -33z"/>
</g>
</svg>
