%TF.GenerationSoftware,KiCad,Pcbnew,8.0.1*%
%TF.CreationDate,2024-12-29T01:01:08+09:00*%
%TF.ProjectId,FPC-MD-Main-002-20241229,4650432d-4d44-42d4-9d61-696e2d303032,rev?*%
%TF.SameCoordinates,Original*%
%TF.FileFunction,Other,Comment*%
%FSLAX46Y46*%
G04 Gerber Fmt 4.6, Leading zero omitted, Abs format (unit mm)*
G04 Created by KiCad (PCBNEW 8.0.1) date 2024-12-29 01:01:08*
%MOMM*%
%LPD*%
G01*
G04 APERTURE LIST*
%ADD10C,0.075000*%
%ADD11C,0.100000*%
G04 APERTURE END LIST*
D10*
X91738097Y13605090D02*
X91738097Y14105090D01*
X91738097Y14105090D02*
X91928573Y14105090D01*
X91928573Y14105090D02*
X91976192Y14081280D01*
X91976192Y14081280D02*
X92000002Y14057471D01*
X92000002Y14057471D02*
X92023811Y14009852D01*
X92023811Y14009852D02*
X92023811Y13938423D01*
X92023811Y13938423D02*
X92000002Y13890804D01*
X92000002Y13890804D02*
X91976192Y13866995D01*
X91976192Y13866995D02*
X91928573Y13843185D01*
X91928573Y13843185D02*
X91738097Y13843185D01*
X92309526Y13605090D02*
X92261907Y13628900D01*
X92261907Y13628900D02*
X92238097Y13676519D01*
X92238097Y13676519D02*
X92238097Y14105090D01*
X92690478Y13628900D02*
X92642859Y13605090D01*
X92642859Y13605090D02*
X92547621Y13605090D01*
X92547621Y13605090D02*
X92500002Y13628900D01*
X92500002Y13628900D02*
X92476193Y13676519D01*
X92476193Y13676519D02*
X92476193Y13866995D01*
X92476193Y13866995D02*
X92500002Y13914614D01*
X92500002Y13914614D02*
X92547621Y13938423D01*
X92547621Y13938423D02*
X92642859Y13938423D01*
X92642859Y13938423D02*
X92690478Y13914614D01*
X92690478Y13914614D02*
X92714288Y13866995D01*
X92714288Y13866995D02*
X92714288Y13819376D01*
X92714288Y13819376D02*
X92476193Y13771757D01*
X93142859Y13605090D02*
X93142859Y13866995D01*
X93142859Y13866995D02*
X93119049Y13914614D01*
X93119049Y13914614D02*
X93071430Y13938423D01*
X93071430Y13938423D02*
X92976192Y13938423D01*
X92976192Y13938423D02*
X92928573Y13914614D01*
X93142859Y13628900D02*
X93095240Y13605090D01*
X93095240Y13605090D02*
X92976192Y13605090D01*
X92976192Y13605090D02*
X92928573Y13628900D01*
X92928573Y13628900D02*
X92904764Y13676519D01*
X92904764Y13676519D02*
X92904764Y13724138D01*
X92904764Y13724138D02*
X92928573Y13771757D01*
X92928573Y13771757D02*
X92976192Y13795566D01*
X92976192Y13795566D02*
X93095240Y13795566D01*
X93095240Y13795566D02*
X93142859Y13819376D01*
X93357145Y13628900D02*
X93404764Y13605090D01*
X93404764Y13605090D02*
X93500002Y13605090D01*
X93500002Y13605090D02*
X93547621Y13628900D01*
X93547621Y13628900D02*
X93571430Y13676519D01*
X93571430Y13676519D02*
X93571430Y13700328D01*
X93571430Y13700328D02*
X93547621Y13747947D01*
X93547621Y13747947D02*
X93500002Y13771757D01*
X93500002Y13771757D02*
X93428573Y13771757D01*
X93428573Y13771757D02*
X93380954Y13795566D01*
X93380954Y13795566D02*
X93357145Y13843185D01*
X93357145Y13843185D02*
X93357145Y13866995D01*
X93357145Y13866995D02*
X93380954Y13914614D01*
X93380954Y13914614D02*
X93428573Y13938423D01*
X93428573Y13938423D02*
X93500002Y13938423D01*
X93500002Y13938423D02*
X93547621Y13914614D01*
X93976192Y13628900D02*
X93928573Y13605090D01*
X93928573Y13605090D02*
X93833335Y13605090D01*
X93833335Y13605090D02*
X93785716Y13628900D01*
X93785716Y13628900D02*
X93761907Y13676519D01*
X93761907Y13676519D02*
X93761907Y13866995D01*
X93761907Y13866995D02*
X93785716Y13914614D01*
X93785716Y13914614D02*
X93833335Y13938423D01*
X93833335Y13938423D02*
X93928573Y13938423D01*
X93928573Y13938423D02*
X93976192Y13914614D01*
X93976192Y13914614D02*
X94000002Y13866995D01*
X94000002Y13866995D02*
X94000002Y13819376D01*
X94000002Y13819376D02*
X93761907Y13771757D01*
X94571430Y13747947D02*
X94809525Y13747947D01*
X94523811Y13605090D02*
X94690477Y14105090D01*
X94690477Y14105090D02*
X94857144Y13605090D01*
X95238096Y13605090D02*
X95238096Y14105090D01*
X95238096Y13628900D02*
X95190477Y13605090D01*
X95190477Y13605090D02*
X95095239Y13605090D01*
X95095239Y13605090D02*
X95047620Y13628900D01*
X95047620Y13628900D02*
X95023810Y13652709D01*
X95023810Y13652709D02*
X95000001Y13700328D01*
X95000001Y13700328D02*
X95000001Y13843185D01*
X95000001Y13843185D02*
X95023810Y13890804D01*
X95023810Y13890804D02*
X95047620Y13914614D01*
X95047620Y13914614D02*
X95095239Y13938423D01*
X95095239Y13938423D02*
X95190477Y13938423D01*
X95190477Y13938423D02*
X95238096Y13914614D01*
X95690477Y13605090D02*
X95690477Y14105090D01*
X95690477Y13628900D02*
X95642858Y13605090D01*
X95642858Y13605090D02*
X95547620Y13605090D01*
X95547620Y13605090D02*
X95500001Y13628900D01*
X95500001Y13628900D02*
X95476191Y13652709D01*
X95476191Y13652709D02*
X95452382Y13700328D01*
X95452382Y13700328D02*
X95452382Y13843185D01*
X95452382Y13843185D02*
X95476191Y13890804D01*
X95476191Y13890804D02*
X95500001Y13914614D01*
X95500001Y13914614D02*
X95547620Y13938423D01*
X95547620Y13938423D02*
X95642858Y13938423D01*
X95642858Y13938423D02*
X95690477Y13914614D01*
X96285715Y13628900D02*
X96357143Y13605090D01*
X96357143Y13605090D02*
X96476191Y13605090D01*
X96476191Y13605090D02*
X96523810Y13628900D01*
X96523810Y13628900D02*
X96547619Y13652709D01*
X96547619Y13652709D02*
X96571429Y13700328D01*
X96571429Y13700328D02*
X96571429Y13747947D01*
X96571429Y13747947D02*
X96547619Y13795566D01*
X96547619Y13795566D02*
X96523810Y13819376D01*
X96523810Y13819376D02*
X96476191Y13843185D01*
X96476191Y13843185D02*
X96380953Y13866995D01*
X96380953Y13866995D02*
X96333334Y13890804D01*
X96333334Y13890804D02*
X96309524Y13914614D01*
X96309524Y13914614D02*
X96285715Y13962233D01*
X96285715Y13962233D02*
X96285715Y14009852D01*
X96285715Y14009852D02*
X96309524Y14057471D01*
X96309524Y14057471D02*
X96333334Y14081280D01*
X96333334Y14081280D02*
X96380953Y14105090D01*
X96380953Y14105090D02*
X96500000Y14105090D01*
X96500000Y14105090D02*
X96571429Y14081280D01*
X96714286Y13938423D02*
X96904762Y13938423D01*
X96785714Y14105090D02*
X96785714Y13676519D01*
X96785714Y13676519D02*
X96809524Y13628900D01*
X96809524Y13628900D02*
X96857143Y13605090D01*
X96857143Y13605090D02*
X96904762Y13605090D01*
X97071428Y13605090D02*
X97071428Y13938423D01*
X97071428Y14105090D02*
X97047619Y14081280D01*
X97047619Y14081280D02*
X97071428Y14057471D01*
X97071428Y14057471D02*
X97095238Y14081280D01*
X97095238Y14081280D02*
X97071428Y14105090D01*
X97071428Y14105090D02*
X97071428Y14057471D01*
X97238095Y13938423D02*
X97428571Y13938423D01*
X97309523Y13605090D02*
X97309523Y14033661D01*
X97309523Y14033661D02*
X97333333Y14081280D01*
X97333333Y14081280D02*
X97380952Y14105090D01*
X97380952Y14105090D02*
X97428571Y14105090D01*
X97523809Y13938423D02*
X97714285Y13938423D01*
X97595237Y13605090D02*
X97595237Y14033661D01*
X97595237Y14033661D02*
X97619047Y14081280D01*
X97619047Y14081280D02*
X97666666Y14105090D01*
X97666666Y14105090D02*
X97714285Y14105090D01*
X98071427Y13628900D02*
X98023808Y13605090D01*
X98023808Y13605090D02*
X97928570Y13605090D01*
X97928570Y13605090D02*
X97880951Y13628900D01*
X97880951Y13628900D02*
X97857142Y13676519D01*
X97857142Y13676519D02*
X97857142Y13866995D01*
X97857142Y13866995D02*
X97880951Y13914614D01*
X97880951Y13914614D02*
X97928570Y13938423D01*
X97928570Y13938423D02*
X98023808Y13938423D01*
X98023808Y13938423D02*
X98071427Y13914614D01*
X98071427Y13914614D02*
X98095237Y13866995D01*
X98095237Y13866995D02*
X98095237Y13819376D01*
X98095237Y13819376D02*
X97857142Y13771757D01*
X98309522Y13938423D02*
X98309522Y13605090D01*
X98309522Y13890804D02*
X98333332Y13914614D01*
X98333332Y13914614D02*
X98380951Y13938423D01*
X98380951Y13938423D02*
X98452379Y13938423D01*
X98452379Y13938423D02*
X98499998Y13914614D01*
X98499998Y13914614D02*
X98523808Y13866995D01*
X98523808Y13866995D02*
X98523808Y13605090D01*
X98952379Y13628900D02*
X98904760Y13605090D01*
X98904760Y13605090D02*
X98809522Y13605090D01*
X98809522Y13605090D02*
X98761903Y13628900D01*
X98761903Y13628900D02*
X98738094Y13676519D01*
X98738094Y13676519D02*
X98738094Y13866995D01*
X98738094Y13866995D02*
X98761903Y13914614D01*
X98761903Y13914614D02*
X98809522Y13938423D01*
X98809522Y13938423D02*
X98904760Y13938423D01*
X98904760Y13938423D02*
X98952379Y13914614D01*
X98952379Y13914614D02*
X98976189Y13866995D01*
X98976189Y13866995D02*
X98976189Y13819376D01*
X98976189Y13819376D02*
X98738094Y13771757D01*
X99190474Y13605090D02*
X99190474Y13938423D01*
X99190474Y13843185D02*
X99214284Y13890804D01*
X99214284Y13890804D02*
X99238093Y13914614D01*
X99238093Y13914614D02*
X99285712Y13938423D01*
X99285712Y13938423D02*
X99333331Y13938423D01*
X92238096Y12800118D02*
X92238096Y13133451D01*
X92238096Y13300118D02*
X92214287Y13276308D01*
X92214287Y13276308D02*
X92238096Y13252499D01*
X92238096Y13252499D02*
X92261906Y13276308D01*
X92261906Y13276308D02*
X92238096Y13300118D01*
X92238096Y13300118D02*
X92238096Y13252499D01*
X92476191Y13133451D02*
X92476191Y12800118D01*
X92476191Y13085832D02*
X92500001Y13109642D01*
X92500001Y13109642D02*
X92547620Y13133451D01*
X92547620Y13133451D02*
X92619048Y13133451D01*
X92619048Y13133451D02*
X92666667Y13109642D01*
X92666667Y13109642D02*
X92690477Y13062023D01*
X92690477Y13062023D02*
X92690477Y12800118D01*
X93238096Y13133451D02*
X93428572Y13133451D01*
X93309524Y13300118D02*
X93309524Y12871547D01*
X93309524Y12871547D02*
X93333334Y12823928D01*
X93333334Y12823928D02*
X93380953Y12800118D01*
X93380953Y12800118D02*
X93428572Y12800118D01*
X93595238Y12800118D02*
X93595238Y13300118D01*
X93809524Y12800118D02*
X93809524Y13062023D01*
X93809524Y13062023D02*
X93785714Y13109642D01*
X93785714Y13109642D02*
X93738095Y13133451D01*
X93738095Y13133451D02*
X93666667Y13133451D01*
X93666667Y13133451D02*
X93619048Y13109642D01*
X93619048Y13109642D02*
X93595238Y13085832D01*
X94238095Y12823928D02*
X94190476Y12800118D01*
X94190476Y12800118D02*
X94095238Y12800118D01*
X94095238Y12800118D02*
X94047619Y12823928D01*
X94047619Y12823928D02*
X94023810Y12871547D01*
X94023810Y12871547D02*
X94023810Y13062023D01*
X94023810Y13062023D02*
X94047619Y13109642D01*
X94047619Y13109642D02*
X94095238Y13133451D01*
X94095238Y13133451D02*
X94190476Y13133451D01*
X94190476Y13133451D02*
X94238095Y13109642D01*
X94238095Y13109642D02*
X94261905Y13062023D01*
X94261905Y13062023D02*
X94261905Y13014404D01*
X94261905Y13014404D02*
X94023810Y12966785D01*
X95071428Y12800118D02*
X95071428Y13062023D01*
X95071428Y13062023D02*
X95047618Y13109642D01*
X95047618Y13109642D02*
X94999999Y13133451D01*
X94999999Y13133451D02*
X94904761Y13133451D01*
X94904761Y13133451D02*
X94857142Y13109642D01*
X95071428Y12823928D02*
X95023809Y12800118D01*
X95023809Y12800118D02*
X94904761Y12800118D01*
X94904761Y12800118D02*
X94857142Y12823928D01*
X94857142Y12823928D02*
X94833333Y12871547D01*
X94833333Y12871547D02*
X94833333Y12919166D01*
X94833333Y12919166D02*
X94857142Y12966785D01*
X94857142Y12966785D02*
X94904761Y12990594D01*
X94904761Y12990594D02*
X95023809Y12990594D01*
X95023809Y12990594D02*
X95071428Y13014404D01*
X95309523Y12800118D02*
X95309523Y13133451D01*
X95309523Y13038213D02*
X95333333Y13085832D01*
X95333333Y13085832D02*
X95357142Y13109642D01*
X95357142Y13109642D02*
X95404761Y13133451D01*
X95404761Y13133451D02*
X95452380Y13133451D01*
X95809523Y12823928D02*
X95761904Y12800118D01*
X95761904Y12800118D02*
X95666666Y12800118D01*
X95666666Y12800118D02*
X95619047Y12823928D01*
X95619047Y12823928D02*
X95595238Y12871547D01*
X95595238Y12871547D02*
X95595238Y13062023D01*
X95595238Y13062023D02*
X95619047Y13109642D01*
X95619047Y13109642D02*
X95666666Y13133451D01*
X95666666Y13133451D02*
X95761904Y13133451D01*
X95761904Y13133451D02*
X95809523Y13109642D01*
X95809523Y13109642D02*
X95833333Y13062023D01*
X95833333Y13062023D02*
X95833333Y13014404D01*
X95833333Y13014404D02*
X95595238Y12966785D01*
X96261904Y12800118D02*
X96261904Y13062023D01*
X96261904Y13062023D02*
X96238094Y13109642D01*
X96238094Y13109642D02*
X96190475Y13133451D01*
X96190475Y13133451D02*
X96095237Y13133451D01*
X96095237Y13133451D02*
X96047618Y13109642D01*
X96261904Y12823928D02*
X96214285Y12800118D01*
X96214285Y12800118D02*
X96095237Y12800118D01*
X96095237Y12800118D02*
X96047618Y12823928D01*
X96047618Y12823928D02*
X96023809Y12871547D01*
X96023809Y12871547D02*
X96023809Y12919166D01*
X96023809Y12919166D02*
X96047618Y12966785D01*
X96047618Y12966785D02*
X96095237Y12990594D01*
X96095237Y12990594D02*
X96214285Y12990594D01*
X96214285Y12990594D02*
X96261904Y13014404D01*
X96880951Y12800118D02*
X96880951Y13300118D01*
X96880951Y13109642D02*
X96928570Y13133451D01*
X96928570Y13133451D02*
X97023808Y13133451D01*
X97023808Y13133451D02*
X97071427Y13109642D01*
X97071427Y13109642D02*
X97095237Y13085832D01*
X97095237Y13085832D02*
X97119046Y13038213D01*
X97119046Y13038213D02*
X97119046Y12895356D01*
X97119046Y12895356D02*
X97095237Y12847737D01*
X97095237Y12847737D02*
X97071427Y12823928D01*
X97071427Y12823928D02*
X97023808Y12800118D01*
X97023808Y12800118D02*
X96928570Y12800118D01*
X96928570Y12800118D02*
X96880951Y12823928D01*
X97523808Y12823928D02*
X97476189Y12800118D01*
X97476189Y12800118D02*
X97380951Y12800118D01*
X97380951Y12800118D02*
X97333332Y12823928D01*
X97333332Y12823928D02*
X97309523Y12871547D01*
X97309523Y12871547D02*
X97309523Y13062023D01*
X97309523Y13062023D02*
X97333332Y13109642D01*
X97333332Y13109642D02*
X97380951Y13133451D01*
X97380951Y13133451D02*
X97476189Y13133451D01*
X97476189Y13133451D02*
X97523808Y13109642D01*
X97523808Y13109642D02*
X97547618Y13062023D01*
X97547618Y13062023D02*
X97547618Y13014404D01*
X97547618Y13014404D02*
X97309523Y12966785D01*
X97833332Y12800118D02*
X97785713Y12823928D01*
X97785713Y12823928D02*
X97761903Y12871547D01*
X97761903Y12871547D02*
X97761903Y13300118D01*
X98095237Y12800118D02*
X98047618Y12823928D01*
X98047618Y12823928D02*
X98023808Y12847737D01*
X98023808Y12847737D02*
X97999999Y12895356D01*
X97999999Y12895356D02*
X97999999Y13038213D01*
X97999999Y13038213D02*
X98023808Y13085832D01*
X98023808Y13085832D02*
X98047618Y13109642D01*
X98047618Y13109642D02*
X98095237Y13133451D01*
X98095237Y13133451D02*
X98166665Y13133451D01*
X98166665Y13133451D02*
X98214284Y13109642D01*
X98214284Y13109642D02*
X98238094Y13085832D01*
X98238094Y13085832D02*
X98261903Y13038213D01*
X98261903Y13038213D02*
X98261903Y12895356D01*
X98261903Y12895356D02*
X98238094Y12847737D01*
X98238094Y12847737D02*
X98214284Y12823928D01*
X98214284Y12823928D02*
X98166665Y12800118D01*
X98166665Y12800118D02*
X98095237Y12800118D01*
X98428570Y13133451D02*
X98523808Y12800118D01*
X98523808Y12800118D02*
X98619046Y13038213D01*
X98619046Y13038213D02*
X98714284Y12800118D01*
X98714284Y12800118D02*
X98809522Y13133451D01*
X92345239Y11995146D02*
X92297620Y12018956D01*
X92297620Y12018956D02*
X92273810Y12042765D01*
X92273810Y12042765D02*
X92250001Y12090384D01*
X92250001Y12090384D02*
X92250001Y12233241D01*
X92250001Y12233241D02*
X92273810Y12280860D01*
X92273810Y12280860D02*
X92297620Y12304670D01*
X92297620Y12304670D02*
X92345239Y12328479D01*
X92345239Y12328479D02*
X92416667Y12328479D01*
X92416667Y12328479D02*
X92464286Y12304670D01*
X92464286Y12304670D02*
X92488096Y12280860D01*
X92488096Y12280860D02*
X92511905Y12233241D01*
X92511905Y12233241D02*
X92511905Y12090384D01*
X92511905Y12090384D02*
X92488096Y12042765D01*
X92488096Y12042765D02*
X92464286Y12018956D01*
X92464286Y12018956D02*
X92416667Y11995146D01*
X92416667Y11995146D02*
X92345239Y11995146D01*
X92726191Y12328479D02*
X92726191Y11995146D01*
X92726191Y12280860D02*
X92750001Y12304670D01*
X92750001Y12304670D02*
X92797620Y12328479D01*
X92797620Y12328479D02*
X92869048Y12328479D01*
X92869048Y12328479D02*
X92916667Y12304670D01*
X92916667Y12304670D02*
X92940477Y12257051D01*
X92940477Y12257051D02*
X92940477Y11995146D01*
X93250001Y11995146D02*
X93202382Y12018956D01*
X93202382Y12018956D02*
X93178572Y12066575D01*
X93178572Y12066575D02*
X93178572Y12495146D01*
X93392858Y12328479D02*
X93511906Y11995146D01*
X93630953Y12328479D02*
X93511906Y11995146D01*
X93511906Y11995146D02*
X93464287Y11876098D01*
X93464287Y11876098D02*
X93440477Y11852289D01*
X93440477Y11852289D02*
X93392858Y11828479D01*
X94273810Y11995146D02*
X94226191Y12018956D01*
X94226191Y12018956D02*
X94202381Y12042765D01*
X94202381Y12042765D02*
X94178572Y12090384D01*
X94178572Y12090384D02*
X94178572Y12233241D01*
X94178572Y12233241D02*
X94202381Y12280860D01*
X94202381Y12280860D02*
X94226191Y12304670D01*
X94226191Y12304670D02*
X94273810Y12328479D01*
X94273810Y12328479D02*
X94345238Y12328479D01*
X94345238Y12328479D02*
X94392857Y12304670D01*
X94392857Y12304670D02*
X94416667Y12280860D01*
X94416667Y12280860D02*
X94440476Y12233241D01*
X94440476Y12233241D02*
X94440476Y12090384D01*
X94440476Y12090384D02*
X94416667Y12042765D01*
X94416667Y12042765D02*
X94392857Y12018956D01*
X94392857Y12018956D02*
X94345238Y11995146D01*
X94345238Y11995146D02*
X94273810Y11995146D01*
X94654762Y12328479D02*
X94654762Y11995146D01*
X94654762Y12280860D02*
X94678572Y12304670D01*
X94678572Y12304670D02*
X94726191Y12328479D01*
X94726191Y12328479D02*
X94797619Y12328479D01*
X94797619Y12328479D02*
X94845238Y12304670D01*
X94845238Y12304670D02*
X94869048Y12257051D01*
X94869048Y12257051D02*
X94869048Y11995146D01*
X95416667Y12328479D02*
X95607143Y12328479D01*
X95488095Y12495146D02*
X95488095Y12066575D01*
X95488095Y12066575D02*
X95511905Y12018956D01*
X95511905Y12018956D02*
X95559524Y11995146D01*
X95559524Y11995146D02*
X95607143Y11995146D01*
X95773809Y11995146D02*
X95773809Y12495146D01*
X95988095Y11995146D02*
X95988095Y12257051D01*
X95988095Y12257051D02*
X95964285Y12304670D01*
X95964285Y12304670D02*
X95916666Y12328479D01*
X95916666Y12328479D02*
X95845238Y12328479D01*
X95845238Y12328479D02*
X95797619Y12304670D01*
X95797619Y12304670D02*
X95773809Y12280860D01*
X96416666Y12018956D02*
X96369047Y11995146D01*
X96369047Y11995146D02*
X96273809Y11995146D01*
X96273809Y11995146D02*
X96226190Y12018956D01*
X96226190Y12018956D02*
X96202381Y12066575D01*
X96202381Y12066575D02*
X96202381Y12257051D01*
X96202381Y12257051D02*
X96226190Y12304670D01*
X96226190Y12304670D02*
X96273809Y12328479D01*
X96273809Y12328479D02*
X96369047Y12328479D01*
X96369047Y12328479D02*
X96416666Y12304670D01*
X96416666Y12304670D02*
X96440476Y12257051D01*
X96440476Y12257051D02*
X96440476Y12209432D01*
X96440476Y12209432D02*
X96202381Y12161813D01*
X97202380Y12257051D02*
X97273808Y12233241D01*
X97273808Y12233241D02*
X97297618Y12209432D01*
X97297618Y12209432D02*
X97321427Y12161813D01*
X97321427Y12161813D02*
X97321427Y12090384D01*
X97321427Y12090384D02*
X97297618Y12042765D01*
X97297618Y12042765D02*
X97273808Y12018956D01*
X97273808Y12018956D02*
X97226189Y11995146D01*
X97226189Y11995146D02*
X97035713Y11995146D01*
X97035713Y11995146D02*
X97035713Y12495146D01*
X97035713Y12495146D02*
X97202380Y12495146D01*
X97202380Y12495146D02*
X97249999Y12471336D01*
X97249999Y12471336D02*
X97273808Y12447527D01*
X97273808Y12447527D02*
X97297618Y12399908D01*
X97297618Y12399908D02*
X97297618Y12352289D01*
X97297618Y12352289D02*
X97273808Y12304670D01*
X97273808Y12304670D02*
X97249999Y12280860D01*
X97249999Y12280860D02*
X97202380Y12257051D01*
X97202380Y12257051D02*
X97035713Y12257051D01*
X97511904Y12138003D02*
X97749999Y12138003D01*
X97464285Y11995146D02*
X97630951Y12495146D01*
X97630951Y12495146D02*
X97797618Y11995146D01*
X98249998Y12042765D02*
X98226189Y12018956D01*
X98226189Y12018956D02*
X98154760Y11995146D01*
X98154760Y11995146D02*
X98107141Y11995146D01*
X98107141Y11995146D02*
X98035713Y12018956D01*
X98035713Y12018956D02*
X97988094Y12066575D01*
X97988094Y12066575D02*
X97964284Y12114194D01*
X97964284Y12114194D02*
X97940475Y12209432D01*
X97940475Y12209432D02*
X97940475Y12280860D01*
X97940475Y12280860D02*
X97964284Y12376098D01*
X97964284Y12376098D02*
X97988094Y12423717D01*
X97988094Y12423717D02*
X98035713Y12471336D01*
X98035713Y12471336D02*
X98107141Y12495146D01*
X98107141Y12495146D02*
X98154760Y12495146D01*
X98154760Y12495146D02*
X98226189Y12471336D01*
X98226189Y12471336D02*
X98249998Y12447527D01*
X98464284Y11995146D02*
X98464284Y12495146D01*
X98749998Y11995146D02*
X98535713Y12280860D01*
X98749998Y12495146D02*
X98464284Y12209432D01*
X94714286Y11213984D02*
X94761905Y11190174D01*
X94761905Y11190174D02*
X94857143Y11190174D01*
X94857143Y11190174D02*
X94904762Y11213984D01*
X94904762Y11213984D02*
X94928571Y11261603D01*
X94928571Y11261603D02*
X94928571Y11285412D01*
X94928571Y11285412D02*
X94904762Y11333031D01*
X94904762Y11333031D02*
X94857143Y11356841D01*
X94857143Y11356841D02*
X94785714Y11356841D01*
X94785714Y11356841D02*
X94738095Y11380650D01*
X94738095Y11380650D02*
X94714286Y11428269D01*
X94714286Y11428269D02*
X94714286Y11452079D01*
X94714286Y11452079D02*
X94738095Y11499698D01*
X94738095Y11499698D02*
X94785714Y11523507D01*
X94785714Y11523507D02*
X94857143Y11523507D01*
X94857143Y11523507D02*
X94904762Y11499698D01*
X95142857Y11190174D02*
X95142857Y11523507D01*
X95142857Y11690174D02*
X95119048Y11666364D01*
X95119048Y11666364D02*
X95142857Y11642555D01*
X95142857Y11642555D02*
X95166667Y11666364D01*
X95166667Y11666364D02*
X95142857Y11690174D01*
X95142857Y11690174D02*
X95142857Y11642555D01*
X95595238Y11190174D02*
X95595238Y11690174D01*
X95595238Y11213984D02*
X95547619Y11190174D01*
X95547619Y11190174D02*
X95452381Y11190174D01*
X95452381Y11190174D02*
X95404762Y11213984D01*
X95404762Y11213984D02*
X95380952Y11237793D01*
X95380952Y11237793D02*
X95357143Y11285412D01*
X95357143Y11285412D02*
X95357143Y11428269D01*
X95357143Y11428269D02*
X95380952Y11475888D01*
X95380952Y11475888D02*
X95404762Y11499698D01*
X95404762Y11499698D02*
X95452381Y11523507D01*
X95452381Y11523507D02*
X95547619Y11523507D01*
X95547619Y11523507D02*
X95595238Y11499698D01*
X96023809Y11213984D02*
X95976190Y11190174D01*
X95976190Y11190174D02*
X95880952Y11190174D01*
X95880952Y11190174D02*
X95833333Y11213984D01*
X95833333Y11213984D02*
X95809524Y11261603D01*
X95809524Y11261603D02*
X95809524Y11452079D01*
X95809524Y11452079D02*
X95833333Y11499698D01*
X95833333Y11499698D02*
X95880952Y11523507D01*
X95880952Y11523507D02*
X95976190Y11523507D01*
X95976190Y11523507D02*
X96023809Y11499698D01*
X96023809Y11499698D02*
X96047619Y11452079D01*
X96047619Y11452079D02*
X96047619Y11404460D01*
X96047619Y11404460D02*
X95809524Y11356841D01*
X96261904Y11237793D02*
X96285714Y11213984D01*
X96285714Y11213984D02*
X96261904Y11190174D01*
X96261904Y11190174D02*
X96238095Y11213984D01*
X96238095Y11213984D02*
X96261904Y11237793D01*
X96261904Y11237793D02*
X96261904Y11190174D01*
X91952382Y10385202D02*
X91952382Y10885202D01*
X91952382Y10885202D02*
X92071430Y10885202D01*
X92071430Y10885202D02*
X92142858Y10861392D01*
X92142858Y10861392D02*
X92190477Y10813773D01*
X92190477Y10813773D02*
X92214287Y10766154D01*
X92214287Y10766154D02*
X92238096Y10670916D01*
X92238096Y10670916D02*
X92238096Y10599488D01*
X92238096Y10599488D02*
X92214287Y10504250D01*
X92214287Y10504250D02*
X92190477Y10456631D01*
X92190477Y10456631D02*
X92142858Y10409012D01*
X92142858Y10409012D02*
X92071430Y10385202D01*
X92071430Y10385202D02*
X91952382Y10385202D01*
X92523811Y10385202D02*
X92476192Y10409012D01*
X92476192Y10409012D02*
X92452382Y10432821D01*
X92452382Y10432821D02*
X92428573Y10480440D01*
X92428573Y10480440D02*
X92428573Y10623297D01*
X92428573Y10623297D02*
X92452382Y10670916D01*
X92452382Y10670916D02*
X92476192Y10694726D01*
X92476192Y10694726D02*
X92523811Y10718535D01*
X92523811Y10718535D02*
X92595239Y10718535D01*
X92595239Y10718535D02*
X92642858Y10694726D01*
X92642858Y10694726D02*
X92666668Y10670916D01*
X92666668Y10670916D02*
X92690477Y10623297D01*
X92690477Y10623297D02*
X92690477Y10480440D01*
X92690477Y10480440D02*
X92666668Y10432821D01*
X92666668Y10432821D02*
X92642858Y10409012D01*
X92642858Y10409012D02*
X92595239Y10385202D01*
X92595239Y10385202D02*
X92523811Y10385202D01*
X93285715Y10718535D02*
X93285715Y10385202D01*
X93285715Y10670916D02*
X93309525Y10694726D01*
X93309525Y10694726D02*
X93357144Y10718535D01*
X93357144Y10718535D02*
X93428572Y10718535D01*
X93428572Y10718535D02*
X93476191Y10694726D01*
X93476191Y10694726D02*
X93500001Y10647107D01*
X93500001Y10647107D02*
X93500001Y10385202D01*
X93809525Y10385202D02*
X93761906Y10409012D01*
X93761906Y10409012D02*
X93738096Y10432821D01*
X93738096Y10432821D02*
X93714287Y10480440D01*
X93714287Y10480440D02*
X93714287Y10623297D01*
X93714287Y10623297D02*
X93738096Y10670916D01*
X93738096Y10670916D02*
X93761906Y10694726D01*
X93761906Y10694726D02*
X93809525Y10718535D01*
X93809525Y10718535D02*
X93880953Y10718535D01*
X93880953Y10718535D02*
X93928572Y10694726D01*
X93928572Y10694726D02*
X93952382Y10670916D01*
X93952382Y10670916D02*
X93976191Y10623297D01*
X93976191Y10623297D02*
X93976191Y10480440D01*
X93976191Y10480440D02*
X93952382Y10432821D01*
X93952382Y10432821D02*
X93928572Y10409012D01*
X93928572Y10409012D02*
X93880953Y10385202D01*
X93880953Y10385202D02*
X93809525Y10385202D01*
X94119049Y10718535D02*
X94309525Y10718535D01*
X94190477Y10885202D02*
X94190477Y10456631D01*
X94190477Y10456631D02*
X94214287Y10409012D01*
X94214287Y10409012D02*
X94261906Y10385202D01*
X94261906Y10385202D02*
X94309525Y10385202D01*
X95071429Y10385202D02*
X95071429Y10647107D01*
X95071429Y10647107D02*
X95047619Y10694726D01*
X95047619Y10694726D02*
X95000000Y10718535D01*
X95000000Y10718535D02*
X94904762Y10718535D01*
X94904762Y10718535D02*
X94857143Y10694726D01*
X95071429Y10409012D02*
X95023810Y10385202D01*
X95023810Y10385202D02*
X94904762Y10385202D01*
X94904762Y10385202D02*
X94857143Y10409012D01*
X94857143Y10409012D02*
X94833334Y10456631D01*
X94833334Y10456631D02*
X94833334Y10504250D01*
X94833334Y10504250D02*
X94857143Y10551869D01*
X94857143Y10551869D02*
X94904762Y10575678D01*
X94904762Y10575678D02*
X95023810Y10575678D01*
X95023810Y10575678D02*
X95071429Y10599488D01*
X95523810Y10385202D02*
X95523810Y10885202D01*
X95523810Y10409012D02*
X95476191Y10385202D01*
X95476191Y10385202D02*
X95380953Y10385202D01*
X95380953Y10385202D02*
X95333334Y10409012D01*
X95333334Y10409012D02*
X95309524Y10432821D01*
X95309524Y10432821D02*
X95285715Y10480440D01*
X95285715Y10480440D02*
X95285715Y10623297D01*
X95285715Y10623297D02*
X95309524Y10670916D01*
X95309524Y10670916D02*
X95333334Y10694726D01*
X95333334Y10694726D02*
X95380953Y10718535D01*
X95380953Y10718535D02*
X95476191Y10718535D01*
X95476191Y10718535D02*
X95523810Y10694726D01*
X95976191Y10385202D02*
X95976191Y10885202D01*
X95976191Y10409012D02*
X95928572Y10385202D01*
X95928572Y10385202D02*
X95833334Y10385202D01*
X95833334Y10385202D02*
X95785715Y10409012D01*
X95785715Y10409012D02*
X95761905Y10432821D01*
X95761905Y10432821D02*
X95738096Y10480440D01*
X95738096Y10480440D02*
X95738096Y10623297D01*
X95738096Y10623297D02*
X95761905Y10670916D01*
X95761905Y10670916D02*
X95785715Y10694726D01*
X95785715Y10694726D02*
X95833334Y10718535D01*
X95833334Y10718535D02*
X95928572Y10718535D01*
X95928572Y10718535D02*
X95976191Y10694726D01*
X96571429Y10409012D02*
X96619048Y10385202D01*
X96619048Y10385202D02*
X96714286Y10385202D01*
X96714286Y10385202D02*
X96761905Y10409012D01*
X96761905Y10409012D02*
X96785714Y10456631D01*
X96785714Y10456631D02*
X96785714Y10480440D01*
X96785714Y10480440D02*
X96761905Y10528059D01*
X96761905Y10528059D02*
X96714286Y10551869D01*
X96714286Y10551869D02*
X96642857Y10551869D01*
X96642857Y10551869D02*
X96595238Y10575678D01*
X96595238Y10575678D02*
X96571429Y10623297D01*
X96571429Y10623297D02*
X96571429Y10647107D01*
X96571429Y10647107D02*
X96595238Y10694726D01*
X96595238Y10694726D02*
X96642857Y10718535D01*
X96642857Y10718535D02*
X96714286Y10718535D01*
X96714286Y10718535D02*
X96761905Y10694726D01*
X96928572Y10718535D02*
X97119048Y10718535D01*
X97000000Y10885202D02*
X97000000Y10456631D01*
X97000000Y10456631D02*
X97023810Y10409012D01*
X97023810Y10409012D02*
X97071429Y10385202D01*
X97071429Y10385202D02*
X97119048Y10385202D01*
X97285714Y10385202D02*
X97285714Y10718535D01*
X97285714Y10885202D02*
X97261905Y10861392D01*
X97261905Y10861392D02*
X97285714Y10837583D01*
X97285714Y10837583D02*
X97309524Y10861392D01*
X97309524Y10861392D02*
X97285714Y10885202D01*
X97285714Y10885202D02*
X97285714Y10837583D01*
X97452381Y10718535D02*
X97642857Y10718535D01*
X97523809Y10385202D02*
X97523809Y10813773D01*
X97523809Y10813773D02*
X97547619Y10861392D01*
X97547619Y10861392D02*
X97595238Y10885202D01*
X97595238Y10885202D02*
X97642857Y10885202D01*
X97738095Y10718535D02*
X97928571Y10718535D01*
X97809523Y10385202D02*
X97809523Y10813773D01*
X97809523Y10813773D02*
X97833333Y10861392D01*
X97833333Y10861392D02*
X97880952Y10885202D01*
X97880952Y10885202D02*
X97928571Y10885202D01*
X98095237Y10718535D02*
X98095237Y10385202D01*
X98095237Y10670916D02*
X98119047Y10694726D01*
X98119047Y10694726D02*
X98166666Y10718535D01*
X98166666Y10718535D02*
X98238094Y10718535D01*
X98238094Y10718535D02*
X98285713Y10694726D01*
X98285713Y10694726D02*
X98309523Y10647107D01*
X98309523Y10647107D02*
X98309523Y10385202D01*
X98738094Y10409012D02*
X98690475Y10385202D01*
X98690475Y10385202D02*
X98595237Y10385202D01*
X98595237Y10385202D02*
X98547618Y10409012D01*
X98547618Y10409012D02*
X98523809Y10456631D01*
X98523809Y10456631D02*
X98523809Y10647107D01*
X98523809Y10647107D02*
X98547618Y10694726D01*
X98547618Y10694726D02*
X98595237Y10718535D01*
X98595237Y10718535D02*
X98690475Y10718535D01*
X98690475Y10718535D02*
X98738094Y10694726D01*
X98738094Y10694726D02*
X98761904Y10647107D01*
X98761904Y10647107D02*
X98761904Y10599488D01*
X98761904Y10599488D02*
X98523809Y10551869D01*
X98976189Y10385202D02*
X98976189Y10718535D01*
X98976189Y10623297D02*
X98999999Y10670916D01*
X98999999Y10670916D02*
X99023808Y10694726D01*
X99023808Y10694726D02*
X99071427Y10718535D01*
X99071427Y10718535D02*
X99119046Y10718535D01*
X92238097Y9580230D02*
X92190478Y9604040D01*
X92190478Y9604040D02*
X92166668Y9627849D01*
X92166668Y9627849D02*
X92142859Y9675468D01*
X92142859Y9675468D02*
X92142859Y9818325D01*
X92142859Y9818325D02*
X92166668Y9865944D01*
X92166668Y9865944D02*
X92190478Y9889754D01*
X92190478Y9889754D02*
X92238097Y9913563D01*
X92238097Y9913563D02*
X92309525Y9913563D01*
X92309525Y9913563D02*
X92357144Y9889754D01*
X92357144Y9889754D02*
X92380954Y9865944D01*
X92380954Y9865944D02*
X92404763Y9818325D01*
X92404763Y9818325D02*
X92404763Y9675468D01*
X92404763Y9675468D02*
X92380954Y9627849D01*
X92380954Y9627849D02*
X92357144Y9604040D01*
X92357144Y9604040D02*
X92309525Y9580230D01*
X92309525Y9580230D02*
X92238097Y9580230D01*
X92619049Y9913563D02*
X92619049Y9580230D01*
X92619049Y9865944D02*
X92642859Y9889754D01*
X92642859Y9889754D02*
X92690478Y9913563D01*
X92690478Y9913563D02*
X92761906Y9913563D01*
X92761906Y9913563D02*
X92809525Y9889754D01*
X92809525Y9889754D02*
X92833335Y9842135D01*
X92833335Y9842135D02*
X92833335Y9580230D01*
X93380954Y9913563D02*
X93571430Y9913563D01*
X93452382Y10080230D02*
X93452382Y9651659D01*
X93452382Y9651659D02*
X93476192Y9604040D01*
X93476192Y9604040D02*
X93523811Y9580230D01*
X93523811Y9580230D02*
X93571430Y9580230D01*
X93738096Y9580230D02*
X93738096Y10080230D01*
X93952382Y9580230D02*
X93952382Y9842135D01*
X93952382Y9842135D02*
X93928572Y9889754D01*
X93928572Y9889754D02*
X93880953Y9913563D01*
X93880953Y9913563D02*
X93809525Y9913563D01*
X93809525Y9913563D02*
X93761906Y9889754D01*
X93761906Y9889754D02*
X93738096Y9865944D01*
X94380953Y9604040D02*
X94333334Y9580230D01*
X94333334Y9580230D02*
X94238096Y9580230D01*
X94238096Y9580230D02*
X94190477Y9604040D01*
X94190477Y9604040D02*
X94166668Y9651659D01*
X94166668Y9651659D02*
X94166668Y9842135D01*
X94166668Y9842135D02*
X94190477Y9889754D01*
X94190477Y9889754D02*
X94238096Y9913563D01*
X94238096Y9913563D02*
X94333334Y9913563D01*
X94333334Y9913563D02*
X94380953Y9889754D01*
X94380953Y9889754D02*
X94404763Y9842135D01*
X94404763Y9842135D02*
X94404763Y9794516D01*
X94404763Y9794516D02*
X94166668Y9746897D01*
X95166667Y9842135D02*
X95000000Y9842135D01*
X95000000Y9580230D02*
X95000000Y10080230D01*
X95000000Y10080230D02*
X95238095Y10080230D01*
X95428571Y9580230D02*
X95428571Y9913563D01*
X95428571Y9818325D02*
X95452381Y9865944D01*
X95452381Y9865944D02*
X95476190Y9889754D01*
X95476190Y9889754D02*
X95523809Y9913563D01*
X95523809Y9913563D02*
X95571428Y9913563D01*
X95809524Y9580230D02*
X95761905Y9604040D01*
X95761905Y9604040D02*
X95738095Y9627849D01*
X95738095Y9627849D02*
X95714286Y9675468D01*
X95714286Y9675468D02*
X95714286Y9818325D01*
X95714286Y9818325D02*
X95738095Y9865944D01*
X95738095Y9865944D02*
X95761905Y9889754D01*
X95761905Y9889754D02*
X95809524Y9913563D01*
X95809524Y9913563D02*
X95880952Y9913563D01*
X95880952Y9913563D02*
X95928571Y9889754D01*
X95928571Y9889754D02*
X95952381Y9865944D01*
X95952381Y9865944D02*
X95976190Y9818325D01*
X95976190Y9818325D02*
X95976190Y9675468D01*
X95976190Y9675468D02*
X95952381Y9627849D01*
X95952381Y9627849D02*
X95928571Y9604040D01*
X95928571Y9604040D02*
X95880952Y9580230D01*
X95880952Y9580230D02*
X95809524Y9580230D01*
X96190476Y9913563D02*
X96190476Y9580230D01*
X96190476Y9865944D02*
X96214286Y9889754D01*
X96214286Y9889754D02*
X96261905Y9913563D01*
X96261905Y9913563D02*
X96333333Y9913563D01*
X96333333Y9913563D02*
X96380952Y9889754D01*
X96380952Y9889754D02*
X96404762Y9842135D01*
X96404762Y9842135D02*
X96404762Y9580230D01*
X96571429Y9913563D02*
X96761905Y9913563D01*
X96642857Y10080230D02*
X96642857Y9651659D01*
X96642857Y9651659D02*
X96666667Y9604040D01*
X96666667Y9604040D02*
X96714286Y9580230D01*
X96714286Y9580230D02*
X96761905Y9580230D01*
X97285714Y9604040D02*
X97333333Y9580230D01*
X97333333Y9580230D02*
X97428571Y9580230D01*
X97428571Y9580230D02*
X97476190Y9604040D01*
X97476190Y9604040D02*
X97499999Y9651659D01*
X97499999Y9651659D02*
X97499999Y9675468D01*
X97499999Y9675468D02*
X97476190Y9723087D01*
X97476190Y9723087D02*
X97428571Y9746897D01*
X97428571Y9746897D02*
X97357142Y9746897D01*
X97357142Y9746897D02*
X97309523Y9770706D01*
X97309523Y9770706D02*
X97285714Y9818325D01*
X97285714Y9818325D02*
X97285714Y9842135D01*
X97285714Y9842135D02*
X97309523Y9889754D01*
X97309523Y9889754D02*
X97357142Y9913563D01*
X97357142Y9913563D02*
X97428571Y9913563D01*
X97428571Y9913563D02*
X97476190Y9889754D01*
X97714285Y9580230D02*
X97714285Y9913563D01*
X97714285Y10080230D02*
X97690476Y10056420D01*
X97690476Y10056420D02*
X97714285Y10032611D01*
X97714285Y10032611D02*
X97738095Y10056420D01*
X97738095Y10056420D02*
X97714285Y10080230D01*
X97714285Y10080230D02*
X97714285Y10032611D01*
X98166666Y9580230D02*
X98166666Y10080230D01*
X98166666Y9604040D02*
X98119047Y9580230D01*
X98119047Y9580230D02*
X98023809Y9580230D01*
X98023809Y9580230D02*
X97976190Y9604040D01*
X97976190Y9604040D02*
X97952380Y9627849D01*
X97952380Y9627849D02*
X97928571Y9675468D01*
X97928571Y9675468D02*
X97928571Y9818325D01*
X97928571Y9818325D02*
X97952380Y9865944D01*
X97952380Y9865944D02*
X97976190Y9889754D01*
X97976190Y9889754D02*
X98023809Y9913563D01*
X98023809Y9913563D02*
X98119047Y9913563D01*
X98119047Y9913563D02*
X98166666Y9889754D01*
X98595237Y9604040D02*
X98547618Y9580230D01*
X98547618Y9580230D02*
X98452380Y9580230D01*
X98452380Y9580230D02*
X98404761Y9604040D01*
X98404761Y9604040D02*
X98380952Y9651659D01*
X98380952Y9651659D02*
X98380952Y9842135D01*
X98380952Y9842135D02*
X98404761Y9889754D01*
X98404761Y9889754D02*
X98452380Y9913563D01*
X98452380Y9913563D02*
X98547618Y9913563D01*
X98547618Y9913563D02*
X98595237Y9889754D01*
X98595237Y9889754D02*
X98619047Y9842135D01*
X98619047Y9842135D02*
X98619047Y9794516D01*
X98619047Y9794516D02*
X98380952Y9746897D01*
X98833332Y9627849D02*
X98857142Y9604040D01*
X98857142Y9604040D02*
X98833332Y9580230D01*
X98833332Y9580230D02*
X98809523Y9604040D01*
X98809523Y9604040D02*
X98833332Y9627849D01*
X98833332Y9627849D02*
X98833332Y9580230D01*
D11*
X91000000Y14500000D02*
X100000000Y14500000D01*
X100000000Y9000000D01*
X91000000Y9000000D01*
X91000000Y14500000D01*
X91000000Y-8000000D02*
X99700000Y-8000000D01*
X99700000Y8000000D02*
G75*
G02*
X100000000Y7700000I0J-300000D01*
G01*
X91000000Y8000000D02*
X91000000Y-8000000D01*
X100000000Y-7700000D02*
G75*
G02*
X99700000Y-8000000I-300000J0D01*
G01*
X99700000Y8000000D02*
X91000000Y8000000D01*
X100000000Y-7700000D02*
X100000000Y7700000D01*
D10*
X738097Y13605090D02*
X738097Y14105090D01*
X738097Y14105090D02*
X928573Y14105090D01*
X928573Y14105090D02*
X976192Y14081280D01*
X976192Y14081280D02*
X1000002Y14057471D01*
X1000002Y14057471D02*
X1023811Y14009852D01*
X1023811Y14009852D02*
X1023811Y13938423D01*
X1023811Y13938423D02*
X1000002Y13890804D01*
X1000002Y13890804D02*
X976192Y13866995D01*
X976192Y13866995D02*
X928573Y13843185D01*
X928573Y13843185D02*
X738097Y13843185D01*
X1309526Y13605090D02*
X1261907Y13628900D01*
X1261907Y13628900D02*
X1238097Y13676519D01*
X1238097Y13676519D02*
X1238097Y14105090D01*
X1690478Y13628900D02*
X1642859Y13605090D01*
X1642859Y13605090D02*
X1547621Y13605090D01*
X1547621Y13605090D02*
X1500002Y13628900D01*
X1500002Y13628900D02*
X1476193Y13676519D01*
X1476193Y13676519D02*
X1476193Y13866995D01*
X1476193Y13866995D02*
X1500002Y13914614D01*
X1500002Y13914614D02*
X1547621Y13938423D01*
X1547621Y13938423D02*
X1642859Y13938423D01*
X1642859Y13938423D02*
X1690478Y13914614D01*
X1690478Y13914614D02*
X1714288Y13866995D01*
X1714288Y13866995D02*
X1714288Y13819376D01*
X1714288Y13819376D02*
X1476193Y13771757D01*
X2142859Y13605090D02*
X2142859Y13866995D01*
X2142859Y13866995D02*
X2119049Y13914614D01*
X2119049Y13914614D02*
X2071430Y13938423D01*
X2071430Y13938423D02*
X1976192Y13938423D01*
X1976192Y13938423D02*
X1928573Y13914614D01*
X2142859Y13628900D02*
X2095240Y13605090D01*
X2095240Y13605090D02*
X1976192Y13605090D01*
X1976192Y13605090D02*
X1928573Y13628900D01*
X1928573Y13628900D02*
X1904764Y13676519D01*
X1904764Y13676519D02*
X1904764Y13724138D01*
X1904764Y13724138D02*
X1928573Y13771757D01*
X1928573Y13771757D02*
X1976192Y13795566D01*
X1976192Y13795566D02*
X2095240Y13795566D01*
X2095240Y13795566D02*
X2142859Y13819376D01*
X2357145Y13628900D02*
X2404764Y13605090D01*
X2404764Y13605090D02*
X2500002Y13605090D01*
X2500002Y13605090D02*
X2547621Y13628900D01*
X2547621Y13628900D02*
X2571430Y13676519D01*
X2571430Y13676519D02*
X2571430Y13700328D01*
X2571430Y13700328D02*
X2547621Y13747947D01*
X2547621Y13747947D02*
X2500002Y13771757D01*
X2500002Y13771757D02*
X2428573Y13771757D01*
X2428573Y13771757D02*
X2380954Y13795566D01*
X2380954Y13795566D02*
X2357145Y13843185D01*
X2357145Y13843185D02*
X2357145Y13866995D01*
X2357145Y13866995D02*
X2380954Y13914614D01*
X2380954Y13914614D02*
X2428573Y13938423D01*
X2428573Y13938423D02*
X2500002Y13938423D01*
X2500002Y13938423D02*
X2547621Y13914614D01*
X2976192Y13628900D02*
X2928573Y13605090D01*
X2928573Y13605090D02*
X2833335Y13605090D01*
X2833335Y13605090D02*
X2785716Y13628900D01*
X2785716Y13628900D02*
X2761907Y13676519D01*
X2761907Y13676519D02*
X2761907Y13866995D01*
X2761907Y13866995D02*
X2785716Y13914614D01*
X2785716Y13914614D02*
X2833335Y13938423D01*
X2833335Y13938423D02*
X2928573Y13938423D01*
X2928573Y13938423D02*
X2976192Y13914614D01*
X2976192Y13914614D02*
X3000002Y13866995D01*
X3000002Y13866995D02*
X3000002Y13819376D01*
X3000002Y13819376D02*
X2761907Y13771757D01*
X3571430Y13747947D02*
X3809525Y13747947D01*
X3523811Y13605090D02*
X3690477Y14105090D01*
X3690477Y14105090D02*
X3857144Y13605090D01*
X4238096Y13605090D02*
X4238096Y14105090D01*
X4238096Y13628900D02*
X4190477Y13605090D01*
X4190477Y13605090D02*
X4095239Y13605090D01*
X4095239Y13605090D02*
X4047620Y13628900D01*
X4047620Y13628900D02*
X4023810Y13652709D01*
X4023810Y13652709D02*
X4000001Y13700328D01*
X4000001Y13700328D02*
X4000001Y13843185D01*
X4000001Y13843185D02*
X4023810Y13890804D01*
X4023810Y13890804D02*
X4047620Y13914614D01*
X4047620Y13914614D02*
X4095239Y13938423D01*
X4095239Y13938423D02*
X4190477Y13938423D01*
X4190477Y13938423D02*
X4238096Y13914614D01*
X4690477Y13605090D02*
X4690477Y14105090D01*
X4690477Y13628900D02*
X4642858Y13605090D01*
X4642858Y13605090D02*
X4547620Y13605090D01*
X4547620Y13605090D02*
X4500001Y13628900D01*
X4500001Y13628900D02*
X4476191Y13652709D01*
X4476191Y13652709D02*
X4452382Y13700328D01*
X4452382Y13700328D02*
X4452382Y13843185D01*
X4452382Y13843185D02*
X4476191Y13890804D01*
X4476191Y13890804D02*
X4500001Y13914614D01*
X4500001Y13914614D02*
X4547620Y13938423D01*
X4547620Y13938423D02*
X4642858Y13938423D01*
X4642858Y13938423D02*
X4690477Y13914614D01*
X5285715Y13628900D02*
X5357143Y13605090D01*
X5357143Y13605090D02*
X5476191Y13605090D01*
X5476191Y13605090D02*
X5523810Y13628900D01*
X5523810Y13628900D02*
X5547619Y13652709D01*
X5547619Y13652709D02*
X5571429Y13700328D01*
X5571429Y13700328D02*
X5571429Y13747947D01*
X5571429Y13747947D02*
X5547619Y13795566D01*
X5547619Y13795566D02*
X5523810Y13819376D01*
X5523810Y13819376D02*
X5476191Y13843185D01*
X5476191Y13843185D02*
X5380953Y13866995D01*
X5380953Y13866995D02*
X5333334Y13890804D01*
X5333334Y13890804D02*
X5309524Y13914614D01*
X5309524Y13914614D02*
X5285715Y13962233D01*
X5285715Y13962233D02*
X5285715Y14009852D01*
X5285715Y14009852D02*
X5309524Y14057471D01*
X5309524Y14057471D02*
X5333334Y14081280D01*
X5333334Y14081280D02*
X5380953Y14105090D01*
X5380953Y14105090D02*
X5500000Y14105090D01*
X5500000Y14105090D02*
X5571429Y14081280D01*
X5714286Y13938423D02*
X5904762Y13938423D01*
X5785714Y14105090D02*
X5785714Y13676519D01*
X5785714Y13676519D02*
X5809524Y13628900D01*
X5809524Y13628900D02*
X5857143Y13605090D01*
X5857143Y13605090D02*
X5904762Y13605090D01*
X6071428Y13605090D02*
X6071428Y13938423D01*
X6071428Y14105090D02*
X6047619Y14081280D01*
X6047619Y14081280D02*
X6071428Y14057471D01*
X6071428Y14057471D02*
X6095238Y14081280D01*
X6095238Y14081280D02*
X6071428Y14105090D01*
X6071428Y14105090D02*
X6071428Y14057471D01*
X6238095Y13938423D02*
X6428571Y13938423D01*
X6309523Y13605090D02*
X6309523Y14033661D01*
X6309523Y14033661D02*
X6333333Y14081280D01*
X6333333Y14081280D02*
X6380952Y14105090D01*
X6380952Y14105090D02*
X6428571Y14105090D01*
X6523809Y13938423D02*
X6714285Y13938423D01*
X6595237Y13605090D02*
X6595237Y14033661D01*
X6595237Y14033661D02*
X6619047Y14081280D01*
X6619047Y14081280D02*
X6666666Y14105090D01*
X6666666Y14105090D02*
X6714285Y14105090D01*
X7071427Y13628900D02*
X7023808Y13605090D01*
X7023808Y13605090D02*
X6928570Y13605090D01*
X6928570Y13605090D02*
X6880951Y13628900D01*
X6880951Y13628900D02*
X6857142Y13676519D01*
X6857142Y13676519D02*
X6857142Y13866995D01*
X6857142Y13866995D02*
X6880951Y13914614D01*
X6880951Y13914614D02*
X6928570Y13938423D01*
X6928570Y13938423D02*
X7023808Y13938423D01*
X7023808Y13938423D02*
X7071427Y13914614D01*
X7071427Y13914614D02*
X7095237Y13866995D01*
X7095237Y13866995D02*
X7095237Y13819376D01*
X7095237Y13819376D02*
X6857142Y13771757D01*
X7309522Y13938423D02*
X7309522Y13605090D01*
X7309522Y13890804D02*
X7333332Y13914614D01*
X7333332Y13914614D02*
X7380951Y13938423D01*
X7380951Y13938423D02*
X7452379Y13938423D01*
X7452379Y13938423D02*
X7499998Y13914614D01*
X7499998Y13914614D02*
X7523808Y13866995D01*
X7523808Y13866995D02*
X7523808Y13605090D01*
X7952379Y13628900D02*
X7904760Y13605090D01*
X7904760Y13605090D02*
X7809522Y13605090D01*
X7809522Y13605090D02*
X7761903Y13628900D01*
X7761903Y13628900D02*
X7738094Y13676519D01*
X7738094Y13676519D02*
X7738094Y13866995D01*
X7738094Y13866995D02*
X7761903Y13914614D01*
X7761903Y13914614D02*
X7809522Y13938423D01*
X7809522Y13938423D02*
X7904760Y13938423D01*
X7904760Y13938423D02*
X7952379Y13914614D01*
X7952379Y13914614D02*
X7976189Y13866995D01*
X7976189Y13866995D02*
X7976189Y13819376D01*
X7976189Y13819376D02*
X7738094Y13771757D01*
X8190474Y13605090D02*
X8190474Y13938423D01*
X8190474Y13843185D02*
X8214284Y13890804D01*
X8214284Y13890804D02*
X8238093Y13914614D01*
X8238093Y13914614D02*
X8285712Y13938423D01*
X8285712Y13938423D02*
X8333331Y13938423D01*
X1238096Y12800118D02*
X1238096Y13133451D01*
X1238096Y13300118D02*
X1214287Y13276308D01*
X1214287Y13276308D02*
X1238096Y13252499D01*
X1238096Y13252499D02*
X1261906Y13276308D01*
X1261906Y13276308D02*
X1238096Y13300118D01*
X1238096Y13300118D02*
X1238096Y13252499D01*
X1476191Y13133451D02*
X1476191Y12800118D01*
X1476191Y13085832D02*
X1500001Y13109642D01*
X1500001Y13109642D02*
X1547620Y13133451D01*
X1547620Y13133451D02*
X1619048Y13133451D01*
X1619048Y13133451D02*
X1666667Y13109642D01*
X1666667Y13109642D02*
X1690477Y13062023D01*
X1690477Y13062023D02*
X1690477Y12800118D01*
X2238096Y13133451D02*
X2428572Y13133451D01*
X2309524Y13300118D02*
X2309524Y12871547D01*
X2309524Y12871547D02*
X2333334Y12823928D01*
X2333334Y12823928D02*
X2380953Y12800118D01*
X2380953Y12800118D02*
X2428572Y12800118D01*
X2595238Y12800118D02*
X2595238Y13300118D01*
X2809524Y12800118D02*
X2809524Y13062023D01*
X2809524Y13062023D02*
X2785714Y13109642D01*
X2785714Y13109642D02*
X2738095Y13133451D01*
X2738095Y13133451D02*
X2666667Y13133451D01*
X2666667Y13133451D02*
X2619048Y13109642D01*
X2619048Y13109642D02*
X2595238Y13085832D01*
X3238095Y12823928D02*
X3190476Y12800118D01*
X3190476Y12800118D02*
X3095238Y12800118D01*
X3095238Y12800118D02*
X3047619Y12823928D01*
X3047619Y12823928D02*
X3023810Y12871547D01*
X3023810Y12871547D02*
X3023810Y13062023D01*
X3023810Y13062023D02*
X3047619Y13109642D01*
X3047619Y13109642D02*
X3095238Y13133451D01*
X3095238Y13133451D02*
X3190476Y13133451D01*
X3190476Y13133451D02*
X3238095Y13109642D01*
X3238095Y13109642D02*
X3261905Y13062023D01*
X3261905Y13062023D02*
X3261905Y13014404D01*
X3261905Y13014404D02*
X3023810Y12966785D01*
X4071428Y12800118D02*
X4071428Y13062023D01*
X4071428Y13062023D02*
X4047618Y13109642D01*
X4047618Y13109642D02*
X3999999Y13133451D01*
X3999999Y13133451D02*
X3904761Y13133451D01*
X3904761Y13133451D02*
X3857142Y13109642D01*
X4071428Y12823928D02*
X4023809Y12800118D01*
X4023809Y12800118D02*
X3904761Y12800118D01*
X3904761Y12800118D02*
X3857142Y12823928D01*
X3857142Y12823928D02*
X3833333Y12871547D01*
X3833333Y12871547D02*
X3833333Y12919166D01*
X3833333Y12919166D02*
X3857142Y12966785D01*
X3857142Y12966785D02*
X3904761Y12990594D01*
X3904761Y12990594D02*
X4023809Y12990594D01*
X4023809Y12990594D02*
X4071428Y13014404D01*
X4309523Y12800118D02*
X4309523Y13133451D01*
X4309523Y13038213D02*
X4333333Y13085832D01*
X4333333Y13085832D02*
X4357142Y13109642D01*
X4357142Y13109642D02*
X4404761Y13133451D01*
X4404761Y13133451D02*
X4452380Y13133451D01*
X4809523Y12823928D02*
X4761904Y12800118D01*
X4761904Y12800118D02*
X4666666Y12800118D01*
X4666666Y12800118D02*
X4619047Y12823928D01*
X4619047Y12823928D02*
X4595238Y12871547D01*
X4595238Y12871547D02*
X4595238Y13062023D01*
X4595238Y13062023D02*
X4619047Y13109642D01*
X4619047Y13109642D02*
X4666666Y13133451D01*
X4666666Y13133451D02*
X4761904Y13133451D01*
X4761904Y13133451D02*
X4809523Y13109642D01*
X4809523Y13109642D02*
X4833333Y13062023D01*
X4833333Y13062023D02*
X4833333Y13014404D01*
X4833333Y13014404D02*
X4595238Y12966785D01*
X5261904Y12800118D02*
X5261904Y13062023D01*
X5261904Y13062023D02*
X5238094Y13109642D01*
X5238094Y13109642D02*
X5190475Y13133451D01*
X5190475Y13133451D02*
X5095237Y13133451D01*
X5095237Y13133451D02*
X5047618Y13109642D01*
X5261904Y12823928D02*
X5214285Y12800118D01*
X5214285Y12800118D02*
X5095237Y12800118D01*
X5095237Y12800118D02*
X5047618Y12823928D01*
X5047618Y12823928D02*
X5023809Y12871547D01*
X5023809Y12871547D02*
X5023809Y12919166D01*
X5023809Y12919166D02*
X5047618Y12966785D01*
X5047618Y12966785D02*
X5095237Y12990594D01*
X5095237Y12990594D02*
X5214285Y12990594D01*
X5214285Y12990594D02*
X5261904Y13014404D01*
X5880951Y12800118D02*
X5880951Y13300118D01*
X5880951Y13109642D02*
X5928570Y13133451D01*
X5928570Y13133451D02*
X6023808Y13133451D01*
X6023808Y13133451D02*
X6071427Y13109642D01*
X6071427Y13109642D02*
X6095237Y13085832D01*
X6095237Y13085832D02*
X6119046Y13038213D01*
X6119046Y13038213D02*
X6119046Y12895356D01*
X6119046Y12895356D02*
X6095237Y12847737D01*
X6095237Y12847737D02*
X6071427Y12823928D01*
X6071427Y12823928D02*
X6023808Y12800118D01*
X6023808Y12800118D02*
X5928570Y12800118D01*
X5928570Y12800118D02*
X5880951Y12823928D01*
X6523808Y12823928D02*
X6476189Y12800118D01*
X6476189Y12800118D02*
X6380951Y12800118D01*
X6380951Y12800118D02*
X6333332Y12823928D01*
X6333332Y12823928D02*
X6309523Y12871547D01*
X6309523Y12871547D02*
X6309523Y13062023D01*
X6309523Y13062023D02*
X6333332Y13109642D01*
X6333332Y13109642D02*
X6380951Y13133451D01*
X6380951Y13133451D02*
X6476189Y13133451D01*
X6476189Y13133451D02*
X6523808Y13109642D01*
X6523808Y13109642D02*
X6547618Y13062023D01*
X6547618Y13062023D02*
X6547618Y13014404D01*
X6547618Y13014404D02*
X6309523Y12966785D01*
X6833332Y12800118D02*
X6785713Y12823928D01*
X6785713Y12823928D02*
X6761903Y12871547D01*
X6761903Y12871547D02*
X6761903Y13300118D01*
X7095237Y12800118D02*
X7047618Y12823928D01*
X7047618Y12823928D02*
X7023808Y12847737D01*
X7023808Y12847737D02*
X6999999Y12895356D01*
X6999999Y12895356D02*
X6999999Y13038213D01*
X6999999Y13038213D02*
X7023808Y13085832D01*
X7023808Y13085832D02*
X7047618Y13109642D01*
X7047618Y13109642D02*
X7095237Y13133451D01*
X7095237Y13133451D02*
X7166665Y13133451D01*
X7166665Y13133451D02*
X7214284Y13109642D01*
X7214284Y13109642D02*
X7238094Y13085832D01*
X7238094Y13085832D02*
X7261903Y13038213D01*
X7261903Y13038213D02*
X7261903Y12895356D01*
X7261903Y12895356D02*
X7238094Y12847737D01*
X7238094Y12847737D02*
X7214284Y12823928D01*
X7214284Y12823928D02*
X7166665Y12800118D01*
X7166665Y12800118D02*
X7095237Y12800118D01*
X7428570Y13133451D02*
X7523808Y12800118D01*
X7523808Y12800118D02*
X7619046Y13038213D01*
X7619046Y13038213D02*
X7714284Y12800118D01*
X7714284Y12800118D02*
X7809522Y13133451D01*
X1345239Y11995146D02*
X1297620Y12018956D01*
X1297620Y12018956D02*
X1273810Y12042765D01*
X1273810Y12042765D02*
X1250001Y12090384D01*
X1250001Y12090384D02*
X1250001Y12233241D01*
X1250001Y12233241D02*
X1273810Y12280860D01*
X1273810Y12280860D02*
X1297620Y12304670D01*
X1297620Y12304670D02*
X1345239Y12328479D01*
X1345239Y12328479D02*
X1416667Y12328479D01*
X1416667Y12328479D02*
X1464286Y12304670D01*
X1464286Y12304670D02*
X1488096Y12280860D01*
X1488096Y12280860D02*
X1511905Y12233241D01*
X1511905Y12233241D02*
X1511905Y12090384D01*
X1511905Y12090384D02*
X1488096Y12042765D01*
X1488096Y12042765D02*
X1464286Y12018956D01*
X1464286Y12018956D02*
X1416667Y11995146D01*
X1416667Y11995146D02*
X1345239Y11995146D01*
X1726191Y12328479D02*
X1726191Y11995146D01*
X1726191Y12280860D02*
X1750001Y12304670D01*
X1750001Y12304670D02*
X1797620Y12328479D01*
X1797620Y12328479D02*
X1869048Y12328479D01*
X1869048Y12328479D02*
X1916667Y12304670D01*
X1916667Y12304670D02*
X1940477Y12257051D01*
X1940477Y12257051D02*
X1940477Y11995146D01*
X2250001Y11995146D02*
X2202382Y12018956D01*
X2202382Y12018956D02*
X2178572Y12066575D01*
X2178572Y12066575D02*
X2178572Y12495146D01*
X2392858Y12328479D02*
X2511906Y11995146D01*
X2630953Y12328479D02*
X2511906Y11995146D01*
X2511906Y11995146D02*
X2464287Y11876098D01*
X2464287Y11876098D02*
X2440477Y11852289D01*
X2440477Y11852289D02*
X2392858Y11828479D01*
X3273810Y11995146D02*
X3226191Y12018956D01*
X3226191Y12018956D02*
X3202381Y12042765D01*
X3202381Y12042765D02*
X3178572Y12090384D01*
X3178572Y12090384D02*
X3178572Y12233241D01*
X3178572Y12233241D02*
X3202381Y12280860D01*
X3202381Y12280860D02*
X3226191Y12304670D01*
X3226191Y12304670D02*
X3273810Y12328479D01*
X3273810Y12328479D02*
X3345238Y12328479D01*
X3345238Y12328479D02*
X3392857Y12304670D01*
X3392857Y12304670D02*
X3416667Y12280860D01*
X3416667Y12280860D02*
X3440476Y12233241D01*
X3440476Y12233241D02*
X3440476Y12090384D01*
X3440476Y12090384D02*
X3416667Y12042765D01*
X3416667Y12042765D02*
X3392857Y12018956D01*
X3392857Y12018956D02*
X3345238Y11995146D01*
X3345238Y11995146D02*
X3273810Y11995146D01*
X3654762Y12328479D02*
X3654762Y11995146D01*
X3654762Y12280860D02*
X3678572Y12304670D01*
X3678572Y12304670D02*
X3726191Y12328479D01*
X3726191Y12328479D02*
X3797619Y12328479D01*
X3797619Y12328479D02*
X3845238Y12304670D01*
X3845238Y12304670D02*
X3869048Y12257051D01*
X3869048Y12257051D02*
X3869048Y11995146D01*
X4416667Y12328479D02*
X4607143Y12328479D01*
X4488095Y12495146D02*
X4488095Y12066575D01*
X4488095Y12066575D02*
X4511905Y12018956D01*
X4511905Y12018956D02*
X4559524Y11995146D01*
X4559524Y11995146D02*
X4607143Y11995146D01*
X4773809Y11995146D02*
X4773809Y12495146D01*
X4988095Y11995146D02*
X4988095Y12257051D01*
X4988095Y12257051D02*
X4964285Y12304670D01*
X4964285Y12304670D02*
X4916666Y12328479D01*
X4916666Y12328479D02*
X4845238Y12328479D01*
X4845238Y12328479D02*
X4797619Y12304670D01*
X4797619Y12304670D02*
X4773809Y12280860D01*
X5416666Y12018956D02*
X5369047Y11995146D01*
X5369047Y11995146D02*
X5273809Y11995146D01*
X5273809Y11995146D02*
X5226190Y12018956D01*
X5226190Y12018956D02*
X5202381Y12066575D01*
X5202381Y12066575D02*
X5202381Y12257051D01*
X5202381Y12257051D02*
X5226190Y12304670D01*
X5226190Y12304670D02*
X5273809Y12328479D01*
X5273809Y12328479D02*
X5369047Y12328479D01*
X5369047Y12328479D02*
X5416666Y12304670D01*
X5416666Y12304670D02*
X5440476Y12257051D01*
X5440476Y12257051D02*
X5440476Y12209432D01*
X5440476Y12209432D02*
X5202381Y12161813D01*
X6202380Y12257051D02*
X6273808Y12233241D01*
X6273808Y12233241D02*
X6297618Y12209432D01*
X6297618Y12209432D02*
X6321427Y12161813D01*
X6321427Y12161813D02*
X6321427Y12090384D01*
X6321427Y12090384D02*
X6297618Y12042765D01*
X6297618Y12042765D02*
X6273808Y12018956D01*
X6273808Y12018956D02*
X6226189Y11995146D01*
X6226189Y11995146D02*
X6035713Y11995146D01*
X6035713Y11995146D02*
X6035713Y12495146D01*
X6035713Y12495146D02*
X6202380Y12495146D01*
X6202380Y12495146D02*
X6249999Y12471336D01*
X6249999Y12471336D02*
X6273808Y12447527D01*
X6273808Y12447527D02*
X6297618Y12399908D01*
X6297618Y12399908D02*
X6297618Y12352289D01*
X6297618Y12352289D02*
X6273808Y12304670D01*
X6273808Y12304670D02*
X6249999Y12280860D01*
X6249999Y12280860D02*
X6202380Y12257051D01*
X6202380Y12257051D02*
X6035713Y12257051D01*
X6511904Y12138003D02*
X6749999Y12138003D01*
X6464285Y11995146D02*
X6630951Y12495146D01*
X6630951Y12495146D02*
X6797618Y11995146D01*
X7249998Y12042765D02*
X7226189Y12018956D01*
X7226189Y12018956D02*
X7154760Y11995146D01*
X7154760Y11995146D02*
X7107141Y11995146D01*
X7107141Y11995146D02*
X7035713Y12018956D01*
X7035713Y12018956D02*
X6988094Y12066575D01*
X6988094Y12066575D02*
X6964284Y12114194D01*
X6964284Y12114194D02*
X6940475Y12209432D01*
X6940475Y12209432D02*
X6940475Y12280860D01*
X6940475Y12280860D02*
X6964284Y12376098D01*
X6964284Y12376098D02*
X6988094Y12423717D01*
X6988094Y12423717D02*
X7035713Y12471336D01*
X7035713Y12471336D02*
X7107141Y12495146D01*
X7107141Y12495146D02*
X7154760Y12495146D01*
X7154760Y12495146D02*
X7226189Y12471336D01*
X7226189Y12471336D02*
X7249998Y12447527D01*
X7464284Y11995146D02*
X7464284Y12495146D01*
X7749998Y11995146D02*
X7535713Y12280860D01*
X7749998Y12495146D02*
X7464284Y12209432D01*
X3714286Y11213984D02*
X3761905Y11190174D01*
X3761905Y11190174D02*
X3857143Y11190174D01*
X3857143Y11190174D02*
X3904762Y11213984D01*
X3904762Y11213984D02*
X3928571Y11261603D01*
X3928571Y11261603D02*
X3928571Y11285412D01*
X3928571Y11285412D02*
X3904762Y11333031D01*
X3904762Y11333031D02*
X3857143Y11356841D01*
X3857143Y11356841D02*
X3785714Y11356841D01*
X3785714Y11356841D02*
X3738095Y11380650D01*
X3738095Y11380650D02*
X3714286Y11428269D01*
X3714286Y11428269D02*
X3714286Y11452079D01*
X3714286Y11452079D02*
X3738095Y11499698D01*
X3738095Y11499698D02*
X3785714Y11523507D01*
X3785714Y11523507D02*
X3857143Y11523507D01*
X3857143Y11523507D02*
X3904762Y11499698D01*
X4142857Y11190174D02*
X4142857Y11523507D01*
X4142857Y11690174D02*
X4119048Y11666364D01*
X4119048Y11666364D02*
X4142857Y11642555D01*
X4142857Y11642555D02*
X4166667Y11666364D01*
X4166667Y11666364D02*
X4142857Y11690174D01*
X4142857Y11690174D02*
X4142857Y11642555D01*
X4595238Y11190174D02*
X4595238Y11690174D01*
X4595238Y11213984D02*
X4547619Y11190174D01*
X4547619Y11190174D02*
X4452381Y11190174D01*
X4452381Y11190174D02*
X4404762Y11213984D01*
X4404762Y11213984D02*
X4380952Y11237793D01*
X4380952Y11237793D02*
X4357143Y11285412D01*
X4357143Y11285412D02*
X4357143Y11428269D01*
X4357143Y11428269D02*
X4380952Y11475888D01*
X4380952Y11475888D02*
X4404762Y11499698D01*
X4404762Y11499698D02*
X4452381Y11523507D01*
X4452381Y11523507D02*
X4547619Y11523507D01*
X4547619Y11523507D02*
X4595238Y11499698D01*
X5023809Y11213984D02*
X4976190Y11190174D01*
X4976190Y11190174D02*
X4880952Y11190174D01*
X4880952Y11190174D02*
X4833333Y11213984D01*
X4833333Y11213984D02*
X4809524Y11261603D01*
X4809524Y11261603D02*
X4809524Y11452079D01*
X4809524Y11452079D02*
X4833333Y11499698D01*
X4833333Y11499698D02*
X4880952Y11523507D01*
X4880952Y11523507D02*
X4976190Y11523507D01*
X4976190Y11523507D02*
X5023809Y11499698D01*
X5023809Y11499698D02*
X5047619Y11452079D01*
X5047619Y11452079D02*
X5047619Y11404460D01*
X5047619Y11404460D02*
X4809524Y11356841D01*
X5261904Y11237793D02*
X5285714Y11213984D01*
X5285714Y11213984D02*
X5261904Y11190174D01*
X5261904Y11190174D02*
X5238095Y11213984D01*
X5238095Y11213984D02*
X5261904Y11237793D01*
X5261904Y11237793D02*
X5261904Y11190174D01*
X952382Y10385202D02*
X952382Y10885202D01*
X952382Y10885202D02*
X1071430Y10885202D01*
X1071430Y10885202D02*
X1142858Y10861392D01*
X1142858Y10861392D02*
X1190477Y10813773D01*
X1190477Y10813773D02*
X1214287Y10766154D01*
X1214287Y10766154D02*
X1238096Y10670916D01*
X1238096Y10670916D02*
X1238096Y10599488D01*
X1238096Y10599488D02*
X1214287Y10504250D01*
X1214287Y10504250D02*
X1190477Y10456631D01*
X1190477Y10456631D02*
X1142858Y10409012D01*
X1142858Y10409012D02*
X1071430Y10385202D01*
X1071430Y10385202D02*
X952382Y10385202D01*
X1523811Y10385202D02*
X1476192Y10409012D01*
X1476192Y10409012D02*
X1452382Y10432821D01*
X1452382Y10432821D02*
X1428573Y10480440D01*
X1428573Y10480440D02*
X1428573Y10623297D01*
X1428573Y10623297D02*
X1452382Y10670916D01*
X1452382Y10670916D02*
X1476192Y10694726D01*
X1476192Y10694726D02*
X1523811Y10718535D01*
X1523811Y10718535D02*
X1595239Y10718535D01*
X1595239Y10718535D02*
X1642858Y10694726D01*
X1642858Y10694726D02*
X1666668Y10670916D01*
X1666668Y10670916D02*
X1690477Y10623297D01*
X1690477Y10623297D02*
X1690477Y10480440D01*
X1690477Y10480440D02*
X1666668Y10432821D01*
X1666668Y10432821D02*
X1642858Y10409012D01*
X1642858Y10409012D02*
X1595239Y10385202D01*
X1595239Y10385202D02*
X1523811Y10385202D01*
X2285715Y10718535D02*
X2285715Y10385202D01*
X2285715Y10670916D02*
X2309525Y10694726D01*
X2309525Y10694726D02*
X2357144Y10718535D01*
X2357144Y10718535D02*
X2428572Y10718535D01*
X2428572Y10718535D02*
X2476191Y10694726D01*
X2476191Y10694726D02*
X2500001Y10647107D01*
X2500001Y10647107D02*
X2500001Y10385202D01*
X2809525Y10385202D02*
X2761906Y10409012D01*
X2761906Y10409012D02*
X2738096Y10432821D01*
X2738096Y10432821D02*
X2714287Y10480440D01*
X2714287Y10480440D02*
X2714287Y10623297D01*
X2714287Y10623297D02*
X2738096Y10670916D01*
X2738096Y10670916D02*
X2761906Y10694726D01*
X2761906Y10694726D02*
X2809525Y10718535D01*
X2809525Y10718535D02*
X2880953Y10718535D01*
X2880953Y10718535D02*
X2928572Y10694726D01*
X2928572Y10694726D02*
X2952382Y10670916D01*
X2952382Y10670916D02*
X2976191Y10623297D01*
X2976191Y10623297D02*
X2976191Y10480440D01*
X2976191Y10480440D02*
X2952382Y10432821D01*
X2952382Y10432821D02*
X2928572Y10409012D01*
X2928572Y10409012D02*
X2880953Y10385202D01*
X2880953Y10385202D02*
X2809525Y10385202D01*
X3119049Y10718535D02*
X3309525Y10718535D01*
X3190477Y10885202D02*
X3190477Y10456631D01*
X3190477Y10456631D02*
X3214287Y10409012D01*
X3214287Y10409012D02*
X3261906Y10385202D01*
X3261906Y10385202D02*
X3309525Y10385202D01*
X4071429Y10385202D02*
X4071429Y10647107D01*
X4071429Y10647107D02*
X4047619Y10694726D01*
X4047619Y10694726D02*
X4000000Y10718535D01*
X4000000Y10718535D02*
X3904762Y10718535D01*
X3904762Y10718535D02*
X3857143Y10694726D01*
X4071429Y10409012D02*
X4023810Y10385202D01*
X4023810Y10385202D02*
X3904762Y10385202D01*
X3904762Y10385202D02*
X3857143Y10409012D01*
X3857143Y10409012D02*
X3833334Y10456631D01*
X3833334Y10456631D02*
X3833334Y10504250D01*
X3833334Y10504250D02*
X3857143Y10551869D01*
X3857143Y10551869D02*
X3904762Y10575678D01*
X3904762Y10575678D02*
X4023810Y10575678D01*
X4023810Y10575678D02*
X4071429Y10599488D01*
X4523810Y10385202D02*
X4523810Y10885202D01*
X4523810Y10409012D02*
X4476191Y10385202D01*
X4476191Y10385202D02*
X4380953Y10385202D01*
X4380953Y10385202D02*
X4333334Y10409012D01*
X4333334Y10409012D02*
X4309524Y10432821D01*
X4309524Y10432821D02*
X4285715Y10480440D01*
X4285715Y10480440D02*
X4285715Y10623297D01*
X4285715Y10623297D02*
X4309524Y10670916D01*
X4309524Y10670916D02*
X4333334Y10694726D01*
X4333334Y10694726D02*
X4380953Y10718535D01*
X4380953Y10718535D02*
X4476191Y10718535D01*
X4476191Y10718535D02*
X4523810Y10694726D01*
X4976191Y10385202D02*
X4976191Y10885202D01*
X4976191Y10409012D02*
X4928572Y10385202D01*
X4928572Y10385202D02*
X4833334Y10385202D01*
X4833334Y10385202D02*
X4785715Y10409012D01*
X4785715Y10409012D02*
X4761905Y10432821D01*
X4761905Y10432821D02*
X4738096Y10480440D01*
X4738096Y10480440D02*
X4738096Y10623297D01*
X4738096Y10623297D02*
X4761905Y10670916D01*
X4761905Y10670916D02*
X4785715Y10694726D01*
X4785715Y10694726D02*
X4833334Y10718535D01*
X4833334Y10718535D02*
X4928572Y10718535D01*
X4928572Y10718535D02*
X4976191Y10694726D01*
X5571429Y10409012D02*
X5619048Y10385202D01*
X5619048Y10385202D02*
X5714286Y10385202D01*
X5714286Y10385202D02*
X5761905Y10409012D01*
X5761905Y10409012D02*
X5785714Y10456631D01*
X5785714Y10456631D02*
X5785714Y10480440D01*
X5785714Y10480440D02*
X5761905Y10528059D01*
X5761905Y10528059D02*
X5714286Y10551869D01*
X5714286Y10551869D02*
X5642857Y10551869D01*
X5642857Y10551869D02*
X5595238Y10575678D01*
X5595238Y10575678D02*
X5571429Y10623297D01*
X5571429Y10623297D02*
X5571429Y10647107D01*
X5571429Y10647107D02*
X5595238Y10694726D01*
X5595238Y10694726D02*
X5642857Y10718535D01*
X5642857Y10718535D02*
X5714286Y10718535D01*
X5714286Y10718535D02*
X5761905Y10694726D01*
X5928572Y10718535D02*
X6119048Y10718535D01*
X6000000Y10885202D02*
X6000000Y10456631D01*
X6000000Y10456631D02*
X6023810Y10409012D01*
X6023810Y10409012D02*
X6071429Y10385202D01*
X6071429Y10385202D02*
X6119048Y10385202D01*
X6285714Y10385202D02*
X6285714Y10718535D01*
X6285714Y10885202D02*
X6261905Y10861392D01*
X6261905Y10861392D02*
X6285714Y10837583D01*
X6285714Y10837583D02*
X6309524Y10861392D01*
X6309524Y10861392D02*
X6285714Y10885202D01*
X6285714Y10885202D02*
X6285714Y10837583D01*
X6452381Y10718535D02*
X6642857Y10718535D01*
X6523809Y10385202D02*
X6523809Y10813773D01*
X6523809Y10813773D02*
X6547619Y10861392D01*
X6547619Y10861392D02*
X6595238Y10885202D01*
X6595238Y10885202D02*
X6642857Y10885202D01*
X6738095Y10718535D02*
X6928571Y10718535D01*
X6809523Y10385202D02*
X6809523Y10813773D01*
X6809523Y10813773D02*
X6833333Y10861392D01*
X6833333Y10861392D02*
X6880952Y10885202D01*
X6880952Y10885202D02*
X6928571Y10885202D01*
X7095237Y10718535D02*
X7095237Y10385202D01*
X7095237Y10670916D02*
X7119047Y10694726D01*
X7119047Y10694726D02*
X7166666Y10718535D01*
X7166666Y10718535D02*
X7238094Y10718535D01*
X7238094Y10718535D02*
X7285713Y10694726D01*
X7285713Y10694726D02*
X7309523Y10647107D01*
X7309523Y10647107D02*
X7309523Y10385202D01*
X7738094Y10409012D02*
X7690475Y10385202D01*
X7690475Y10385202D02*
X7595237Y10385202D01*
X7595237Y10385202D02*
X7547618Y10409012D01*
X7547618Y10409012D02*
X7523809Y10456631D01*
X7523809Y10456631D02*
X7523809Y10647107D01*
X7523809Y10647107D02*
X7547618Y10694726D01*
X7547618Y10694726D02*
X7595237Y10718535D01*
X7595237Y10718535D02*
X7690475Y10718535D01*
X7690475Y10718535D02*
X7738094Y10694726D01*
X7738094Y10694726D02*
X7761904Y10647107D01*
X7761904Y10647107D02*
X7761904Y10599488D01*
X7761904Y10599488D02*
X7523809Y10551869D01*
X7976189Y10385202D02*
X7976189Y10718535D01*
X7976189Y10623297D02*
X7999999Y10670916D01*
X7999999Y10670916D02*
X8023808Y10694726D01*
X8023808Y10694726D02*
X8071427Y10718535D01*
X8071427Y10718535D02*
X8119046Y10718535D01*
X1238097Y9580230D02*
X1190478Y9604040D01*
X1190478Y9604040D02*
X1166668Y9627849D01*
X1166668Y9627849D02*
X1142859Y9675468D01*
X1142859Y9675468D02*
X1142859Y9818325D01*
X1142859Y9818325D02*
X1166668Y9865944D01*
X1166668Y9865944D02*
X1190478Y9889754D01*
X1190478Y9889754D02*
X1238097Y9913563D01*
X1238097Y9913563D02*
X1309525Y9913563D01*
X1309525Y9913563D02*
X1357144Y9889754D01*
X1357144Y9889754D02*
X1380954Y9865944D01*
X1380954Y9865944D02*
X1404763Y9818325D01*
X1404763Y9818325D02*
X1404763Y9675468D01*
X1404763Y9675468D02*
X1380954Y9627849D01*
X1380954Y9627849D02*
X1357144Y9604040D01*
X1357144Y9604040D02*
X1309525Y9580230D01*
X1309525Y9580230D02*
X1238097Y9580230D01*
X1619049Y9913563D02*
X1619049Y9580230D01*
X1619049Y9865944D02*
X1642859Y9889754D01*
X1642859Y9889754D02*
X1690478Y9913563D01*
X1690478Y9913563D02*
X1761906Y9913563D01*
X1761906Y9913563D02*
X1809525Y9889754D01*
X1809525Y9889754D02*
X1833335Y9842135D01*
X1833335Y9842135D02*
X1833335Y9580230D01*
X2380954Y9913563D02*
X2571430Y9913563D01*
X2452382Y10080230D02*
X2452382Y9651659D01*
X2452382Y9651659D02*
X2476192Y9604040D01*
X2476192Y9604040D02*
X2523811Y9580230D01*
X2523811Y9580230D02*
X2571430Y9580230D01*
X2738096Y9580230D02*
X2738096Y10080230D01*
X2952382Y9580230D02*
X2952382Y9842135D01*
X2952382Y9842135D02*
X2928572Y9889754D01*
X2928572Y9889754D02*
X2880953Y9913563D01*
X2880953Y9913563D02*
X2809525Y9913563D01*
X2809525Y9913563D02*
X2761906Y9889754D01*
X2761906Y9889754D02*
X2738096Y9865944D01*
X3380953Y9604040D02*
X3333334Y9580230D01*
X3333334Y9580230D02*
X3238096Y9580230D01*
X3238096Y9580230D02*
X3190477Y9604040D01*
X3190477Y9604040D02*
X3166668Y9651659D01*
X3166668Y9651659D02*
X3166668Y9842135D01*
X3166668Y9842135D02*
X3190477Y9889754D01*
X3190477Y9889754D02*
X3238096Y9913563D01*
X3238096Y9913563D02*
X3333334Y9913563D01*
X3333334Y9913563D02*
X3380953Y9889754D01*
X3380953Y9889754D02*
X3404763Y9842135D01*
X3404763Y9842135D02*
X3404763Y9794516D01*
X3404763Y9794516D02*
X3166668Y9746897D01*
X4166667Y9842135D02*
X4000000Y9842135D01*
X4000000Y9580230D02*
X4000000Y10080230D01*
X4000000Y10080230D02*
X4238095Y10080230D01*
X4428571Y9580230D02*
X4428571Y9913563D01*
X4428571Y9818325D02*
X4452381Y9865944D01*
X4452381Y9865944D02*
X4476190Y9889754D01*
X4476190Y9889754D02*
X4523809Y9913563D01*
X4523809Y9913563D02*
X4571428Y9913563D01*
X4809524Y9580230D02*
X4761905Y9604040D01*
X4761905Y9604040D02*
X4738095Y9627849D01*
X4738095Y9627849D02*
X4714286Y9675468D01*
X4714286Y9675468D02*
X4714286Y9818325D01*
X4714286Y9818325D02*
X4738095Y9865944D01*
X4738095Y9865944D02*
X4761905Y9889754D01*
X4761905Y9889754D02*
X4809524Y9913563D01*
X4809524Y9913563D02*
X4880952Y9913563D01*
X4880952Y9913563D02*
X4928571Y9889754D01*
X4928571Y9889754D02*
X4952381Y9865944D01*
X4952381Y9865944D02*
X4976190Y9818325D01*
X4976190Y9818325D02*
X4976190Y9675468D01*
X4976190Y9675468D02*
X4952381Y9627849D01*
X4952381Y9627849D02*
X4928571Y9604040D01*
X4928571Y9604040D02*
X4880952Y9580230D01*
X4880952Y9580230D02*
X4809524Y9580230D01*
X5190476Y9913563D02*
X5190476Y9580230D01*
X5190476Y9865944D02*
X5214286Y9889754D01*
X5214286Y9889754D02*
X5261905Y9913563D01*
X5261905Y9913563D02*
X5333333Y9913563D01*
X5333333Y9913563D02*
X5380952Y9889754D01*
X5380952Y9889754D02*
X5404762Y9842135D01*
X5404762Y9842135D02*
X5404762Y9580230D01*
X5571429Y9913563D02*
X5761905Y9913563D01*
X5642857Y10080230D02*
X5642857Y9651659D01*
X5642857Y9651659D02*
X5666667Y9604040D01*
X5666667Y9604040D02*
X5714286Y9580230D01*
X5714286Y9580230D02*
X5761905Y9580230D01*
X6285714Y9604040D02*
X6333333Y9580230D01*
X6333333Y9580230D02*
X6428571Y9580230D01*
X6428571Y9580230D02*
X6476190Y9604040D01*
X6476190Y9604040D02*
X6499999Y9651659D01*
X6499999Y9651659D02*
X6499999Y9675468D01*
X6499999Y9675468D02*
X6476190Y9723087D01*
X6476190Y9723087D02*
X6428571Y9746897D01*
X6428571Y9746897D02*
X6357142Y9746897D01*
X6357142Y9746897D02*
X6309523Y9770706D01*
X6309523Y9770706D02*
X6285714Y9818325D01*
X6285714Y9818325D02*
X6285714Y9842135D01*
X6285714Y9842135D02*
X6309523Y9889754D01*
X6309523Y9889754D02*
X6357142Y9913563D01*
X6357142Y9913563D02*
X6428571Y9913563D01*
X6428571Y9913563D02*
X6476190Y9889754D01*
X6714285Y9580230D02*
X6714285Y9913563D01*
X6714285Y10080230D02*
X6690476Y10056420D01*
X6690476Y10056420D02*
X6714285Y10032611D01*
X6714285Y10032611D02*
X6738095Y10056420D01*
X6738095Y10056420D02*
X6714285Y10080230D01*
X6714285Y10080230D02*
X6714285Y10032611D01*
X7166666Y9580230D02*
X7166666Y10080230D01*
X7166666Y9604040D02*
X7119047Y9580230D01*
X7119047Y9580230D02*
X7023809Y9580230D01*
X7023809Y9580230D02*
X6976190Y9604040D01*
X6976190Y9604040D02*
X6952380Y9627849D01*
X6952380Y9627849D02*
X6928571Y9675468D01*
X6928571Y9675468D02*
X6928571Y9818325D01*
X6928571Y9818325D02*
X6952380Y9865944D01*
X6952380Y9865944D02*
X6976190Y9889754D01*
X6976190Y9889754D02*
X7023809Y9913563D01*
X7023809Y9913563D02*
X7119047Y9913563D01*
X7119047Y9913563D02*
X7166666Y9889754D01*
X7595237Y9604040D02*
X7547618Y9580230D01*
X7547618Y9580230D02*
X7452380Y9580230D01*
X7452380Y9580230D02*
X7404761Y9604040D01*
X7404761Y9604040D02*
X7380952Y9651659D01*
X7380952Y9651659D02*
X7380952Y9842135D01*
X7380952Y9842135D02*
X7404761Y9889754D01*
X7404761Y9889754D02*
X7452380Y9913563D01*
X7452380Y9913563D02*
X7547618Y9913563D01*
X7547618Y9913563D02*
X7595237Y9889754D01*
X7595237Y9889754D02*
X7619047Y9842135D01*
X7619047Y9842135D02*
X7619047Y9794516D01*
X7619047Y9794516D02*
X7380952Y9746897D01*
X7833332Y9627849D02*
X7857142Y9604040D01*
X7857142Y9604040D02*
X7833332Y9580230D01*
X7833332Y9580230D02*
X7809523Y9604040D01*
X7809523Y9604040D02*
X7833332Y9627849D01*
X7833332Y9627849D02*
X7833332Y9580230D01*
D11*
X0Y14500000D02*
X9000000Y14500000D01*
X9000000Y9000000D01*
X0Y9000000D01*
X0Y14500000D01*
X300000Y-8000000D02*
G75*
G02*
X0Y-7700000I0J300000D01*
G01*
X0Y7700000D02*
G75*
G02*
X300000Y8000000I300000J0D01*
G01*
X0Y-7700000D02*
X0Y7700000D01*
X9000000Y-8000000D02*
X300000Y-8000000D01*
X9000000Y8000000D02*
X9000000Y-8000000D01*
X300000Y8000000D02*
X9000000Y8000000D01*
M02*
