%TF.GenerationSoftware,KiCad,Pcbnew,7.0.6*%
%TF.CreationDate,2024-02-11T15:29:09+09:00*%
%TF.ProjectId,PowerSupply_20240202,506f7765-7253-4757-9070-6c795f323032,rev?*%
%TF.SameCoordinates,Original*%
%TF.FileFunction,Copper,L1,Top*%
%TF.FilePolarity,Positive*%
%FSLAX46Y46*%
G04 Gerber Fmt 4.6, Leading zero omitted, Abs format (unit mm)*
G04 Created by KiCad (PCBNEW 7.0.6) date 2024-02-11 15:29:09*
%MOMM*%
%LPD*%
G01*
G04 APERTURE LIST*
G04 Aperture macros list*
%AMRoundRect*
0 Rectangle with rounded corners*
0 $1 Rounding radius*
0 $2 $3 $4 $5 $6 $7 $8 $9 X,Y pos of 4 corners*
0 Add a 4 corners polygon primitive as box body*
4,1,4,$2,$3,$4,$5,$6,$7,$8,$9,$2,$3,0*
0 Add four circle primitives for the rounded corners*
1,1,$1+$1,$2,$3*
1,1,$1+$1,$4,$5*
1,1,$1+$1,$6,$7*
1,1,$1+$1,$8,$9*
0 Add four rect primitives between the rounded corners*
20,1,$1+$1,$2,$3,$4,$5,0*
20,1,$1+$1,$4,$5,$6,$7,0*
20,1,$1+$1,$6,$7,$8,$9,0*
20,1,$1+$1,$8,$9,$2,$3,0*%
G04 Aperture macros list end*
%TA.AperFunction,ComponentPad*%
%ADD10C,1.600000*%
%TD*%
%TA.AperFunction,ComponentPad*%
%ADD11O,1.600000X1.600000*%
%TD*%
%TA.AperFunction,ComponentPad*%
%ADD12RoundRect,0.250001X-1.099999X-1.099999X1.099999X-1.099999X1.099999X1.099999X-1.099999X1.099999X0*%
%TD*%
%TA.AperFunction,ComponentPad*%
%ADD13C,2.700000*%
%TD*%
%TA.AperFunction,ComponentPad*%
%ADD14RoundRect,0.250001X1.099999X1.099999X-1.099999X1.099999X-1.099999X-1.099999X1.099999X-1.099999X0*%
%TD*%
%TA.AperFunction,SMDPad,CuDef*%
%ADD15RoundRect,0.381000X-0.381000X0.762000X-0.381000X-0.762000X0.381000X-0.762000X0.381000X0.762000X0*%
%TD*%
%TA.AperFunction,SMDPad,CuDef*%
%ADD16RoundRect,0.381000X0.762000X0.381000X-0.762000X0.381000X-0.762000X-0.381000X0.762000X-0.381000X0*%
%TD*%
%TA.AperFunction,ComponentPad*%
%ADD17C,1.500000*%
%TD*%
%TA.AperFunction,ComponentPad*%
%ADD18RoundRect,0.250000X0.600000X0.750000X-0.600000X0.750000X-0.600000X-0.750000X0.600000X-0.750000X0*%
%TD*%
%TA.AperFunction,ComponentPad*%
%ADD19O,1.700000X2.000000*%
%TD*%
%TA.AperFunction,ComponentPad*%
%ADD20R,2.000000X2.000000*%
%TD*%
%TA.AperFunction,ComponentPad*%
%ADD21C,2.000000*%
%TD*%
%TA.AperFunction,ComponentPad*%
%ADD22C,2.600000*%
%TD*%
%TA.AperFunction,ViaPad*%
%ADD23C,3.200000*%
%TD*%
%TA.AperFunction,ViaPad*%
%ADD24C,0.800000*%
%TD*%
%TA.AperFunction,Conductor*%
%ADD25C,1.500000*%
%TD*%
%TA.AperFunction,Conductor*%
%ADD26C,0.500000*%
%TD*%
G04 APERTURE END LIST*
D10*
%TO.P,R1,1*%
%TO.N,Net-(SW2-A)*%
X176560000Y-90950298D03*
D11*
%TO.P,R1,2*%
%TO.N,VIN*%
X168940000Y-90950298D03*
%TD*%
D10*
%TO.P,R3,1*%
%TO.N,Net-(R3-Pad1)*%
X152940000Y-84000298D03*
D11*
%TO.P,R3,2*%
%TO.N,Net-(R2-Pad2)*%
X160560000Y-84000298D03*
%TD*%
D12*
%TO.P,VIN,1,Pin_1*%
%TO.N,Net-(J1-Pin_1)*%
X198022500Y-92674598D03*
D13*
%TO.P,VIN,2,Pin_2*%
%TO.N,GND*%
X201982500Y-92674598D03*
%TD*%
D14*
%TO.P,MD,1,Pin_1*%
%TO.N,VIN*%
X205537500Y-80724598D03*
D13*
%TO.P,MD,2,Pin_2*%
%TO.N,GND*%
X201577500Y-80724598D03*
%TD*%
D10*
%TO.P,R2,1*%
%TO.N,Net-(U1-Trim)*%
X176560000Y-94200298D03*
D11*
%TO.P,R2,2*%
%TO.N,Net-(R2-Pad2)*%
X168940000Y-94200298D03*
%TD*%
D10*
%TO.P,R5,1*%
%TO.N,+5V*%
X188000000Y-74390298D03*
D11*
%TO.P,R5,2*%
%TO.N,GND*%
X188000000Y-82010298D03*
%TD*%
D15*
%TO.P,U1,1,ON/OFF*%
%TO.N,Net-(SW2-A)*%
X172750000Y-86600298D03*
%TO.P,U1,2,Vin*%
%TO.N,VIN*%
X168170000Y-86600298D03*
D16*
X166650000Y-82790298D03*
%TO.P,U1,3,GND*%
%TO.N,GND*%
X166650000Y-80500298D03*
X166650000Y-78210298D03*
D15*
%TO.P,U1,4,Vout*%
%TO.N,+5V*%
X168170000Y-74400298D03*
%TO.P,U1,5,Sense*%
X172750000Y-74400298D03*
%TO.P,U1,6,Trim*%
%TO.N,Net-(U1-Trim)*%
X177330000Y-74400298D03*
D16*
%TO.P,U1,7,GND*%
%TO.N,GND*%
X178850000Y-80500298D03*
%TD*%
D17*
%TO.P,SW2,1,A*%
%TO.N,Net-(SW2-A)*%
X184250000Y-83724598D03*
%TO.P,SW2,2,B*%
%TO.N,GND*%
X184250000Y-81224598D03*
%TO.P,SW2,3,C*%
X184250000Y-78724598D03*
%TD*%
D18*
%TO.P,Voltage,1,Pin_1*%
%TO.N,VIN*%
X158030000Y-79249598D03*
D19*
%TO.P,Voltage,2,Pin_2*%
%TO.N,GND*%
X155530000Y-79249598D03*
%TD*%
D10*
%TO.P,R4,1*%
%TO.N,Net-(R3-Pad1)*%
X152940000Y-87250298D03*
D11*
%TO.P,R4,2*%
%TO.N,GND*%
X160560000Y-87250298D03*
%TD*%
D20*
%TO.P,C-Vin,1*%
%TO.N,+5V*%
X189368606Y-92974598D03*
D21*
%TO.P,C-Vin,2*%
%TO.N,GND*%
X184368606Y-92974598D03*
%TD*%
D14*
%TO.P,MD,1,Pin_1*%
%TO.N,VIN*%
X149037500Y-80774598D03*
D13*
%TO.P,MD,2,Pin_2*%
%TO.N,GND*%
X145077500Y-80774598D03*
%TD*%
D22*
%TO.P,F1,1*%
%TO.N,Net-(J1-Pin_1)*%
X203030000Y-104224598D03*
X196530000Y-101224598D03*
%TO.P,F1,2*%
%TO.N,Net-(SW1-A)*%
X179030000Y-104224598D03*
X172530000Y-101224598D03*
%TD*%
D18*
%TO.P,MAIN,1,Pin_1*%
%TO.N,+5V*%
X195500000Y-79249598D03*
D19*
%TO.P,MAIN,2,Pin_2*%
%TO.N,GND*%
X193000000Y-79249598D03*
%TD*%
D17*
%TO.P,MES1,1,-*%
%TO.N,GND*%
X185279500Y-70783813D03*
%TO.P,MES1,2,+*%
%TO.N,VIN*%
X183529500Y-70783813D03*
%TD*%
D23*
%TO.N,VIN*%
X147750000Y-87724598D03*
D24*
X169650000Y-82790298D03*
%TO.N,GND*%
X176560000Y-78210298D03*
%TO.N,+5V*%
X170750000Y-74400298D03*
X181750000Y-74400298D03*
%TO.N,Net-(SW2-A)*%
X176560000Y-86600298D03*
%TO.N,Net-(U1-Trim)*%
X174750000Y-74400298D03*
%TD*%
D25*
%TO.N,VIN*%
X166650000Y-82790298D02*
X169650000Y-82790298D01*
%TO.N,GND*%
X176560000Y-78210298D02*
X178850000Y-80500298D01*
X166650000Y-78210298D02*
X176560000Y-78210298D01*
X166650000Y-80500298D02*
X166650000Y-78210298D01*
%TO.N,+5V*%
X195500000Y-82410298D02*
X189368606Y-88541692D01*
X179657000Y-76493298D02*
X181750000Y-74400298D01*
X195500000Y-79249598D02*
X195500000Y-82410298D01*
X168170000Y-74400298D02*
X170750000Y-74400298D01*
X189368606Y-88541692D02*
X189368606Y-92974598D01*
X174843000Y-76493298D02*
X179657000Y-76493298D01*
X172750000Y-74400298D02*
X174843000Y-76493298D01*
X170750000Y-74400298D02*
X172750000Y-74400298D01*
D26*
%TO.N,Net-(SW2-A)*%
X172750000Y-86600298D02*
X176560000Y-86600298D01*
%TO.N,Net-(U1-Trim)*%
X177330000Y-74400298D02*
X174750000Y-74400298D01*
%TD*%
%TA.AperFunction,Conductor*%
%TO.N,Net-(SW1-A)*%
G36*
X145522539Y-97525483D02*
G01*
X145568294Y-97578287D01*
X145579500Y-97629798D01*
X145579500Y-103875765D01*
X145579416Y-103876187D01*
X145579459Y-103900299D01*
X145579500Y-103900397D01*
X145579616Y-103900680D01*
X145579618Y-103900682D01*
X145579808Y-103900760D01*
X145580000Y-103900839D01*
X145580002Y-103900837D01*
X145604616Y-103900822D01*
X145604616Y-103900826D01*
X145604760Y-103900798D01*
X164955240Y-103900798D01*
X164955383Y-103900826D01*
X164955384Y-103900822D01*
X164979997Y-103900837D01*
X164980000Y-103900839D01*
X164980383Y-103900681D01*
X164980500Y-103900397D01*
X164980541Y-103900298D01*
X164980540Y-103900295D01*
X164980583Y-103876187D01*
X164980500Y-103875765D01*
X164980500Y-97629798D01*
X165000185Y-97562759D01*
X165052989Y-97517004D01*
X165104500Y-97505798D01*
X192656000Y-97505798D01*
X192723039Y-97525483D01*
X192768794Y-97578287D01*
X192780000Y-97629798D01*
X192780000Y-109410852D01*
X192760315Y-109477891D01*
X192707511Y-109523646D01*
X192638353Y-109533590D01*
X192587581Y-109514268D01*
X192387592Y-109381957D01*
X192281745Y-109332338D01*
X192142324Y-109266980D01*
X192142319Y-109266978D01*
X192142314Y-109266976D01*
X191882942Y-109188942D01*
X191882928Y-109188939D01*
X191767291Y-109171921D01*
X191614939Y-109149500D01*
X191411869Y-109149500D01*
X191411864Y-109149500D01*
X191209344Y-109164323D01*
X191209331Y-109164325D01*
X190944953Y-109223217D01*
X190944946Y-109223220D01*
X190691939Y-109319987D01*
X190455726Y-109452557D01*
X190241322Y-109618112D01*
X190053322Y-109813109D01*
X190053316Y-109813116D01*
X189895702Y-110033419D01*
X189895699Y-110033424D01*
X189771850Y-110274309D01*
X189771843Y-110274327D01*
X189684384Y-110530685D01*
X189684381Y-110530699D01*
X189635181Y-110797068D01*
X189635180Y-110797075D01*
X189625287Y-111067763D01*
X189654913Y-111337013D01*
X189654915Y-111337024D01*
X189710163Y-111548350D01*
X189723428Y-111599088D01*
X189829370Y-111848390D01*
X189883509Y-111937099D01*
X189970479Y-112079605D01*
X189970486Y-112079615D01*
X190143753Y-112287819D01*
X190143759Y-112287824D01*
X190345498Y-112468582D01*
X190571410Y-112618044D01*
X190816676Y-112733020D01*
X190816683Y-112733022D01*
X190816685Y-112733023D01*
X191076057Y-112811057D01*
X191076064Y-112811058D01*
X191076069Y-112811060D01*
X191344061Y-112850500D01*
X191344066Y-112850500D01*
X191547136Y-112850500D01*
X191598633Y-112846730D01*
X191749656Y-112835677D01*
X191862258Y-112810593D01*
X192014046Y-112776782D01*
X192014048Y-112776781D01*
X192014053Y-112776780D01*
X192267058Y-112680014D01*
X192503277Y-112547441D01*
X192580217Y-112488030D01*
X192645307Y-112462639D01*
X192713794Y-112476469D01*
X192763932Y-112525131D01*
X192780000Y-112586177D01*
X192780000Y-114158895D01*
X192760315Y-114225934D01*
X192707511Y-114271689D01*
X192700439Y-114274658D01*
X192660460Y-114290006D01*
X192495046Y-114345739D01*
X192491296Y-114346872D01*
X192305660Y-114396614D01*
X192302941Y-114397277D01*
X192133549Y-114434562D01*
X192129919Y-114435248D01*
X191940230Y-114465293D01*
X191937234Y-114465693D01*
X191764733Y-114484453D01*
X191761274Y-114484731D01*
X191569523Y-114494782D01*
X191566278Y-114494867D01*
X191392723Y-114494867D01*
X191389477Y-114494782D01*
X191197724Y-114484731D01*
X191194265Y-114484453D01*
X191021764Y-114465693D01*
X191018768Y-114465293D01*
X190829079Y-114435248D01*
X190825449Y-114434562D01*
X190656057Y-114397277D01*
X190653338Y-114396614D01*
X190467702Y-114346872D01*
X190463951Y-114345739D01*
X190298539Y-114290006D01*
X190117735Y-114220601D01*
X190113919Y-114218988D01*
X189955813Y-114145840D01*
X189783147Y-114057863D01*
X189779329Y-114055745D01*
X189739612Y-114031848D01*
X189630387Y-113966129D01*
X189467692Y-113860472D01*
X189463937Y-113857831D01*
X189326020Y-113752990D01*
X189174970Y-113630671D01*
X189171349Y-113627499D01*
X189046081Y-113508839D01*
X188908296Y-113371054D01*
X188904881Y-113367350D01*
X188793789Y-113236563D01*
X188769006Y-113205959D01*
X188670674Y-113084529D01*
X188667542Y-113080306D01*
X188571973Y-112939352D01*
X188464830Y-112774367D01*
X188462056Y-112769650D01*
X188383142Y-112620803D01*
X188293082Y-112444050D01*
X188290743Y-112438885D01*
X188229447Y-112285042D01*
X188157396Y-112097344D01*
X188155546Y-112091738D01*
X188112639Y-111937203D01*
X188059292Y-111738111D01*
X188058011Y-111732165D01*
X188034027Y-111585874D01*
X187999911Y-111370469D01*
X187999245Y-111364179D01*
X187994485Y-111276379D01*
X187980084Y-111001621D01*
X187980000Y-110998377D01*
X187980000Y-110015197D01*
X187980416Y-110013780D01*
X187980133Y-110009464D01*
X187980000Y-110005406D01*
X187980000Y-109987946D01*
X187979988Y-109987819D01*
X187979988Y-109848558D01*
X187963429Y-109712180D01*
X187957562Y-109663860D01*
X187957247Y-109660480D01*
X187952305Y-109585120D01*
X187945711Y-109566253D01*
X187943527Y-109548261D01*
X187890297Y-109332299D01*
X187889693Y-109329579D01*
X187877965Y-109270620D01*
X187872247Y-109259063D01*
X187871134Y-109254547D01*
X187871132Y-109254542D01*
X187871130Y-109254535D01*
X187774220Y-108999000D01*
X187766008Y-108974807D01*
X187765607Y-108975018D01*
X187763863Y-108971695D01*
X187623286Y-108703845D01*
X187623280Y-108703837D01*
X187623279Y-108703834D01*
X187621342Y-108700629D01*
X187621409Y-108700588D01*
X187620740Y-108699447D01*
X187619014Y-108697655D01*
X187451448Y-108454894D01*
X187451445Y-108454889D01*
X187438173Y-108439908D01*
X187437636Y-108439212D01*
X187437353Y-108438983D01*
X187250848Y-108228461D01*
X187040328Y-108041956D01*
X187040198Y-108041747D01*
X187039389Y-108041123D01*
X187024421Y-108027863D01*
X186781650Y-107860289D01*
X186780608Y-107859004D01*
X186778710Y-107857889D01*
X186778670Y-107857957D01*
X186775467Y-107856020D01*
X186504293Y-107713697D01*
X186504503Y-107713296D01*
X186480278Y-107705072D01*
X186224770Y-107608171D01*
X186224758Y-107608167D01*
X186220233Y-107607052D01*
X186211316Y-107601859D01*
X186149716Y-107589606D01*
X186146974Y-107588996D01*
X186146901Y-107588978D01*
X185931051Y-107535775D01*
X185913059Y-107533590D01*
X185898362Y-107527264D01*
X185818817Y-107522051D01*
X185815399Y-107521732D01*
X185630755Y-107499312D01*
X185630752Y-107499312D01*
X185479599Y-107499312D01*
X185473906Y-107499312D01*
X185469850Y-107499179D01*
X185464888Y-107498854D01*
X185462407Y-107499312D01*
X165130874Y-107499312D01*
X165130833Y-107499300D01*
X165098372Y-107499300D01*
X165096354Y-107498707D01*
X165089340Y-107499167D01*
X165085286Y-107499300D01*
X164928244Y-107499300D01*
X164743616Y-107521718D01*
X164740196Y-107522037D01*
X164664833Y-107526974D01*
X164645937Y-107533579D01*
X164632909Y-107535161D01*
X164627946Y-107535764D01*
X164412046Y-107588978D01*
X164409305Y-107589588D01*
X164350317Y-107601321D01*
X164338769Y-107607039D01*
X164334234Y-107608157D01*
X164334227Y-107608159D01*
X164131979Y-107684862D01*
X164078730Y-107705057D01*
X164054491Y-107713284D01*
X164054702Y-107713686D01*
X163783526Y-107856010D01*
X163780324Y-107857947D01*
X163780282Y-107857878D01*
X163779136Y-107858551D01*
X163777345Y-107860278D01*
X163657859Y-107942754D01*
X163534572Y-108027853D01*
X163534569Y-108027855D01*
X163534564Y-108027859D01*
X163519602Y-108041114D01*
X163518893Y-108041660D01*
X163518659Y-108041950D01*
X163334433Y-108205162D01*
X163334430Y-108205162D01*
X163308144Y-108228452D01*
X163284854Y-108254739D01*
X163284854Y-108254741D01*
X163121636Y-108438977D01*
X163121424Y-108439109D01*
X163120797Y-108439923D01*
X163107546Y-108454881D01*
X163107543Y-108454885D01*
X162939967Y-108697661D01*
X162938684Y-108698699D01*
X162937579Y-108700581D01*
X162937648Y-108700623D01*
X162935710Y-108703828D01*
X162935707Y-108703834D01*
X162935704Y-108703839D01*
X162865170Y-108838232D01*
X162793382Y-108975013D01*
X162792980Y-108974802D01*
X162784760Y-108999018D01*
X162687858Y-109254531D01*
X162687853Y-109254549D01*
X162686738Y-109259073D01*
X162681543Y-109267993D01*
X162669290Y-109329596D01*
X162668680Y-109332338D01*
X162615462Y-109548249D01*
X162613276Y-109566257D01*
X162606949Y-109580954D01*
X162601735Y-109660513D01*
X162601416Y-109663932D01*
X162579000Y-109848556D01*
X162579000Y-110005384D01*
X162578867Y-110009440D01*
X162578543Y-110014384D01*
X162579000Y-110016853D01*
X162579000Y-110998376D01*
X162578915Y-111001622D01*
X162564515Y-111276379D01*
X162559755Y-111364161D01*
X162559083Y-111370507D01*
X162524992Y-111585750D01*
X162500996Y-111732118D01*
X162499700Y-111738138D01*
X162446373Y-111937157D01*
X162403461Y-112091709D01*
X162401602Y-112097343D01*
X162329548Y-112285053D01*
X162268266Y-112438858D01*
X162265911Y-112444060D01*
X162175857Y-112620803D01*
X162096942Y-112769650D01*
X162094161Y-112774378D01*
X161987026Y-112939352D01*
X161891456Y-113080306D01*
X161888321Y-113084532D01*
X161765210Y-113236563D01*
X161654117Y-113367350D01*
X161650702Y-113371054D01*
X161512918Y-113508839D01*
X161387649Y-113627499D01*
X161384029Y-113630671D01*
X161232979Y-113752990D01*
X161095060Y-113857832D01*
X161091307Y-113860472D01*
X160928596Y-113966140D01*
X160779669Y-114055745D01*
X160775851Y-114057863D01*
X160603186Y-114145840D01*
X160445078Y-114218988D01*
X160441264Y-114220601D01*
X160260460Y-114290006D01*
X160095046Y-114345739D01*
X160091296Y-114346872D01*
X159905660Y-114396614D01*
X159902941Y-114397277D01*
X159733549Y-114434562D01*
X159729919Y-114435248D01*
X159540230Y-114465293D01*
X159537234Y-114465693D01*
X159364733Y-114484453D01*
X159361274Y-114484731D01*
X159169523Y-114494782D01*
X159166278Y-114494867D01*
X158992723Y-114494867D01*
X158989477Y-114494782D01*
X158797724Y-114484731D01*
X158794265Y-114484453D01*
X158621764Y-114465693D01*
X158618768Y-114465293D01*
X158429079Y-114435248D01*
X158425449Y-114434562D01*
X158256057Y-114397277D01*
X158253338Y-114396614D01*
X158067702Y-114346872D01*
X158063951Y-114345739D01*
X157898539Y-114290006D01*
X157717735Y-114220601D01*
X157713919Y-114218988D01*
X157555813Y-114145840D01*
X157383147Y-114057863D01*
X157379329Y-114055745D01*
X157339612Y-114031848D01*
X157230387Y-113966129D01*
X157067692Y-113860472D01*
X157063937Y-113857831D01*
X156926020Y-113752990D01*
X156774970Y-113630671D01*
X156771349Y-113627499D01*
X156646081Y-113508839D01*
X156508296Y-113371054D01*
X156504881Y-113367350D01*
X156393789Y-113236563D01*
X156369006Y-113205959D01*
X156270674Y-113084529D01*
X156267542Y-113080306D01*
X156171973Y-112939352D01*
X156064830Y-112774367D01*
X156062056Y-112769650D01*
X155983142Y-112620803D01*
X155893082Y-112444050D01*
X155890743Y-112438885D01*
X155829447Y-112285042D01*
X155757396Y-112097344D01*
X155755546Y-112091738D01*
X155712639Y-111937203D01*
X155659292Y-111738111D01*
X155658011Y-111732165D01*
X155634027Y-111585874D01*
X155599911Y-111370469D01*
X155599245Y-111364179D01*
X155594485Y-111276379D01*
X155583551Y-111067763D01*
X157225287Y-111067763D01*
X157254913Y-111337013D01*
X157254915Y-111337024D01*
X157310163Y-111548350D01*
X157323428Y-111599088D01*
X157429370Y-111848390D01*
X157483509Y-111937099D01*
X157570479Y-112079605D01*
X157570486Y-112079615D01*
X157743753Y-112287819D01*
X157743759Y-112287824D01*
X157945498Y-112468582D01*
X158171410Y-112618044D01*
X158416676Y-112733020D01*
X158416683Y-112733022D01*
X158416685Y-112733023D01*
X158676057Y-112811057D01*
X158676064Y-112811058D01*
X158676069Y-112811060D01*
X158944061Y-112850500D01*
X158944066Y-112850500D01*
X159147136Y-112850500D01*
X159198633Y-112846730D01*
X159349656Y-112835677D01*
X159462258Y-112810593D01*
X159614046Y-112776782D01*
X159614048Y-112776781D01*
X159614053Y-112776780D01*
X159867058Y-112680014D01*
X160103277Y-112547441D01*
X160317677Y-112381888D01*
X160505686Y-112186881D01*
X160663299Y-111966579D01*
X160780748Y-111738139D01*
X160787149Y-111725690D01*
X160787151Y-111725684D01*
X160787156Y-111725675D01*
X160874618Y-111469305D01*
X160923819Y-111202933D01*
X160933712Y-110932235D01*
X160904086Y-110662982D01*
X160835572Y-110400912D01*
X160729630Y-110151610D01*
X160588518Y-109920390D01*
X160528740Y-109848559D01*
X160415246Y-109712180D01*
X160415240Y-109712175D01*
X160213502Y-109531418D01*
X159987592Y-109381957D01*
X159881745Y-109332338D01*
X159742324Y-109266980D01*
X159742319Y-109266978D01*
X159742314Y-109266976D01*
X159482942Y-109188942D01*
X159482928Y-109188939D01*
X159367291Y-109171921D01*
X159214939Y-109149500D01*
X159011869Y-109149500D01*
X159011864Y-109149500D01*
X158809344Y-109164323D01*
X158809331Y-109164325D01*
X158544953Y-109223217D01*
X158544946Y-109223220D01*
X158291939Y-109319987D01*
X158055726Y-109452557D01*
X157841322Y-109618112D01*
X157653322Y-109813109D01*
X157653316Y-109813116D01*
X157495702Y-110033419D01*
X157495699Y-110033424D01*
X157371850Y-110274309D01*
X157371843Y-110274327D01*
X157284384Y-110530685D01*
X157284381Y-110530699D01*
X157235181Y-110797068D01*
X157235180Y-110797075D01*
X157225287Y-111067763D01*
X155583551Y-111067763D01*
X155580084Y-111001621D01*
X155580000Y-110998377D01*
X155580000Y-110015197D01*
X155580416Y-110013780D01*
X155580133Y-110009464D01*
X155580000Y-110005406D01*
X155580000Y-109987946D01*
X155579988Y-109987819D01*
X155579988Y-109848558D01*
X155563429Y-109712180D01*
X155557562Y-109663860D01*
X155557247Y-109660480D01*
X155552305Y-109585120D01*
X155545711Y-109566253D01*
X155543527Y-109548261D01*
X155490297Y-109332299D01*
X155489693Y-109329579D01*
X155477965Y-109270620D01*
X155472247Y-109259063D01*
X155471134Y-109254547D01*
X155471132Y-109254542D01*
X155471130Y-109254535D01*
X155374220Y-108999000D01*
X155366008Y-108974807D01*
X155365607Y-108975018D01*
X155363863Y-108971695D01*
X155223286Y-108703845D01*
X155223280Y-108703837D01*
X155223279Y-108703834D01*
X155221342Y-108700629D01*
X155221409Y-108700588D01*
X155220740Y-108699447D01*
X155219014Y-108697655D01*
X155051448Y-108454894D01*
X155051445Y-108454889D01*
X155038173Y-108439908D01*
X155037636Y-108439212D01*
X155037353Y-108438983D01*
X154850848Y-108228461D01*
X154640328Y-108041956D01*
X154640198Y-108041747D01*
X154639389Y-108041123D01*
X154624421Y-108027863D01*
X154381650Y-107860289D01*
X154380608Y-107859004D01*
X154378710Y-107857889D01*
X154378670Y-107857957D01*
X154375467Y-107856020D01*
X154104293Y-107713697D01*
X154104503Y-107713296D01*
X154080278Y-107705072D01*
X153824770Y-107608171D01*
X153824758Y-107608167D01*
X153820233Y-107607052D01*
X153811316Y-107601859D01*
X153749716Y-107589606D01*
X153746974Y-107588996D01*
X153746901Y-107588978D01*
X153531051Y-107535775D01*
X153513059Y-107533590D01*
X153498362Y-107527264D01*
X153418817Y-107522051D01*
X153415399Y-107521732D01*
X153230755Y-107499312D01*
X153230752Y-107499312D01*
X153079599Y-107499312D01*
X153073906Y-107499312D01*
X153069850Y-107499179D01*
X153064888Y-107498854D01*
X153062407Y-107499312D01*
X146316776Y-107499312D01*
X146313298Y-107499214D01*
X146261227Y-107496290D01*
X146018256Y-107480391D01*
X146011915Y-107479647D01*
X145893868Y-107459591D01*
X145717445Y-107424497D01*
X145712376Y-107423265D01*
X145587985Y-107387431D01*
X145585218Y-107386563D01*
X145455841Y-107342646D01*
X145424655Y-107332059D01*
X145420868Y-107330634D01*
X145379803Y-107313625D01*
X145372823Y-107310733D01*
X145299222Y-107280248D01*
X145295523Y-107278572D01*
X145143146Y-107203424D01*
X145140579Y-107202082D01*
X145027762Y-107139733D01*
X145023302Y-107137017D01*
X144872506Y-107036251D01*
X144776165Y-106967896D01*
X144771157Y-106963941D01*
X144585373Y-106800999D01*
X144549259Y-106768727D01*
X144546731Y-106766336D01*
X141013306Y-103232910D01*
X141010935Y-103230401D01*
X140976778Y-103192180D01*
X140815327Y-103008050D01*
X140811377Y-103003048D01*
X140747857Y-102913524D01*
X140743428Y-102907281D01*
X140642174Y-102755743D01*
X140639460Y-102751286D01*
X140577535Y-102639239D01*
X140576193Y-102636672D01*
X140500580Y-102483348D01*
X140498914Y-102479672D01*
X140448870Y-102358851D01*
X140447466Y-102355124D01*
X140392578Y-102193438D01*
X140391731Y-102190737D01*
X140356159Y-102067260D01*
X140354929Y-102062199D01*
X140319575Y-101884478D01*
X140313393Y-101848097D01*
X140299714Y-101767585D01*
X140298976Y-101761301D01*
X140283093Y-101519091D01*
X140280098Y-101465735D01*
X140280000Y-101462259D01*
X140280000Y-97629798D01*
X140299685Y-97562759D01*
X140352489Y-97517004D01*
X140404000Y-97505798D01*
X145455500Y-97505798D01*
X145522539Y-97525483D01*
G37*
%TD.AperFunction*%
%TD*%
%TA.AperFunction,Conductor*%
%TO.N,Net-(J1-Pin_1)*%
G36*
X193421293Y-86997668D02*
G01*
X193477836Y-87005798D01*
X193477840Y-87005798D01*
X210155000Y-87005798D01*
X210222039Y-87025483D01*
X210267794Y-87078287D01*
X210279000Y-87129798D01*
X210279000Y-101462531D01*
X210278902Y-101466011D01*
X210275953Y-101518499D01*
X210260100Y-101760853D01*
X210259356Y-101767197D01*
X210239102Y-101886381D01*
X210204273Y-102061473D01*
X210203041Y-102066544D01*
X210166875Y-102192069D01*
X210166008Y-102194835D01*
X210111958Y-102354050D01*
X210110529Y-102357847D01*
X210059645Y-102480690D01*
X210057970Y-102484387D01*
X209983549Y-102635287D01*
X209982207Y-102637855D01*
X209919107Y-102752023D01*
X209916392Y-102756481D01*
X209816958Y-102905287D01*
X209747247Y-103003532D01*
X209743292Y-103008539D01*
X209584503Y-103189587D01*
X209547746Y-103230719D01*
X209545356Y-103233247D01*
X206012602Y-106766000D01*
X206010074Y-106768391D01*
X205971708Y-106802675D01*
X205787830Y-106963913D01*
X205782828Y-106967864D01*
X205686628Y-107036121D01*
X205535548Y-107137067D01*
X205531092Y-107139781D01*
X205418705Y-107201894D01*
X205416137Y-107203236D01*
X205263214Y-107278650D01*
X205259516Y-107280325D01*
X205138385Y-107330497D01*
X205134589Y-107331926D01*
X204973398Y-107386645D01*
X204970630Y-107387513D01*
X204846819Y-107423180D01*
X204841750Y-107424412D01*
X204664583Y-107459656D01*
X204547177Y-107479602D01*
X204540845Y-107480346D01*
X204300003Y-107496137D01*
X204245203Y-107499214D01*
X204241726Y-107499312D01*
X197530874Y-107499312D01*
X197530833Y-107499300D01*
X197498372Y-107499300D01*
X197496354Y-107498707D01*
X197489340Y-107499167D01*
X197485286Y-107499300D01*
X197328244Y-107499300D01*
X197143616Y-107521718D01*
X197140196Y-107522037D01*
X197064833Y-107526974D01*
X197045937Y-107533579D01*
X197032909Y-107535161D01*
X197027946Y-107535764D01*
X196812046Y-107588978D01*
X196809305Y-107589588D01*
X196750317Y-107601321D01*
X196738769Y-107607039D01*
X196734234Y-107608157D01*
X196734227Y-107608159D01*
X196531979Y-107684862D01*
X196478730Y-107705057D01*
X196454491Y-107713284D01*
X196454702Y-107713686D01*
X196183526Y-107856010D01*
X196180324Y-107857947D01*
X196180282Y-107857878D01*
X196179136Y-107858551D01*
X196177345Y-107860278D01*
X196102480Y-107911954D01*
X195934572Y-108027853D01*
X195934569Y-108027855D01*
X195934564Y-108027859D01*
X195919602Y-108041114D01*
X195918893Y-108041660D01*
X195918659Y-108041950D01*
X195734433Y-108205162D01*
X195734430Y-108205162D01*
X195708144Y-108228452D01*
X195684854Y-108254739D01*
X195684854Y-108254741D01*
X195521636Y-108438977D01*
X195521424Y-108439109D01*
X195520797Y-108439923D01*
X195507546Y-108454881D01*
X195507543Y-108454885D01*
X195339967Y-108697661D01*
X195338684Y-108698699D01*
X195337579Y-108700581D01*
X195337648Y-108700623D01*
X195335710Y-108703828D01*
X195335704Y-108703837D01*
X195335704Y-108703839D01*
X195198203Y-108965828D01*
X195193382Y-108975013D01*
X195192980Y-108974802D01*
X195184760Y-108999018D01*
X195087858Y-109254531D01*
X195087853Y-109254549D01*
X195086738Y-109259073D01*
X195081543Y-109267993D01*
X195069290Y-109329596D01*
X195068680Y-109332338D01*
X195015462Y-109548249D01*
X195013276Y-109566257D01*
X195006949Y-109580954D01*
X195001735Y-109660513D01*
X195001416Y-109663932D01*
X194979000Y-109848556D01*
X194979000Y-110005384D01*
X194978867Y-110009440D01*
X194978543Y-110014384D01*
X194979000Y-110016853D01*
X194979000Y-110998376D01*
X194978915Y-111001622D01*
X194964515Y-111276379D01*
X194959755Y-111364161D01*
X194959083Y-111370507D01*
X194924992Y-111585750D01*
X194900996Y-111732118D01*
X194899700Y-111738138D01*
X194846373Y-111937157D01*
X194803461Y-112091709D01*
X194801602Y-112097343D01*
X194729548Y-112285053D01*
X194668266Y-112438858D01*
X194665911Y-112444060D01*
X194575857Y-112620803D01*
X194496942Y-112769650D01*
X194494161Y-112774378D01*
X194387026Y-112939352D01*
X194291456Y-113080306D01*
X194288321Y-113084532D01*
X194165210Y-113236563D01*
X194054117Y-113367350D01*
X194050702Y-113371054D01*
X193912918Y-113508839D01*
X193787649Y-113627499D01*
X193784029Y-113630671D01*
X193632979Y-113752990D01*
X193495062Y-113857830D01*
X193491310Y-113860469D01*
X193477040Y-113869737D01*
X193410096Y-113889744D01*
X193342962Y-113870381D01*
X193296954Y-113817798D01*
X193285500Y-113765745D01*
X193285500Y-112586182D01*
X193285500Y-112586177D01*
X193268850Y-112457506D01*
X193252782Y-112396460D01*
X193203930Y-112276270D01*
X193115995Y-112162389D01*
X193078801Y-112126290D01*
X193044404Y-112065475D01*
X193048347Y-111995716D01*
X193061404Y-111970730D01*
X193060939Y-111970447D01*
X193063298Y-111966581D01*
X193187149Y-111725690D01*
X193187151Y-111725684D01*
X193187156Y-111725675D01*
X193274618Y-111469305D01*
X193323819Y-111202933D01*
X193333712Y-110932235D01*
X193304086Y-110662982D01*
X193235572Y-110400912D01*
X193129630Y-110151610D01*
X193129627Y-110151605D01*
X193129627Y-110151604D01*
X193087437Y-110082475D01*
X193054619Y-110028701D01*
X193036498Y-109961225D01*
X193057736Y-109894661D01*
X193079260Y-109870394D01*
X193091347Y-109859922D01*
X193185567Y-109751188D01*
X193245338Y-109620311D01*
X193265023Y-109553272D01*
X193265024Y-109553268D01*
X193285500Y-109410852D01*
X193285500Y-97629798D01*
X193273947Y-97522342D01*
X193262741Y-97470831D01*
X193262637Y-97470520D01*
X193228616Y-97368300D01*
X193228613Y-97368295D01*
X193228613Y-97368294D01*
X193199565Y-97323095D01*
X193179881Y-97256058D01*
X193191087Y-97204546D01*
X193245338Y-97085757D01*
X193265023Y-97018718D01*
X193265024Y-97018714D01*
X193285500Y-96876298D01*
X193285500Y-92674599D01*
X200127273Y-92674599D01*
X200146157Y-92938625D01*
X200146158Y-92938632D01*
X200202421Y-93197271D01*
X200294926Y-93445288D01*
X200294928Y-93445292D01*
X200421780Y-93677603D01*
X200421785Y-93677611D01*
X200580406Y-93889505D01*
X200580422Y-93889523D01*
X200767574Y-94076675D01*
X200767592Y-94076691D01*
X200979486Y-94235312D01*
X200979494Y-94235317D01*
X201211805Y-94362169D01*
X201211809Y-94362171D01*
X201211811Y-94362172D01*
X201459822Y-94454675D01*
X201459825Y-94454675D01*
X201459826Y-94454676D01*
X201655052Y-94497144D01*
X201718474Y-94510941D01*
X201962160Y-94528370D01*
X201982499Y-94529825D01*
X201982500Y-94529825D01*
X201982501Y-94529825D01*
X202001385Y-94528474D01*
X202246526Y-94510941D01*
X202505178Y-94454675D01*
X202753189Y-94362172D01*
X202985511Y-94235314D01*
X203197415Y-94076685D01*
X203384587Y-93889513D01*
X203543216Y-93677609D01*
X203670074Y-93445287D01*
X203762577Y-93197276D01*
X203818843Y-92938624D01*
X203837727Y-92674598D01*
X203818843Y-92410572D01*
X203762577Y-92151920D01*
X203670074Y-91903909D01*
X203660477Y-91886334D01*
X203543219Y-91671592D01*
X203543214Y-91671584D01*
X203384593Y-91459690D01*
X203384577Y-91459672D01*
X203197425Y-91272520D01*
X203197407Y-91272504D01*
X202985513Y-91113883D01*
X202985505Y-91113878D01*
X202753194Y-90987026D01*
X202753190Y-90987024D01*
X202505173Y-90894519D01*
X202246534Y-90838256D01*
X202246527Y-90838255D01*
X201982501Y-90819371D01*
X201982499Y-90819371D01*
X201718472Y-90838255D01*
X201718465Y-90838256D01*
X201459826Y-90894519D01*
X201211809Y-90987024D01*
X201211805Y-90987026D01*
X200979494Y-91113878D01*
X200979486Y-91113883D01*
X200767592Y-91272504D01*
X200767574Y-91272520D01*
X200580422Y-91459672D01*
X200580406Y-91459690D01*
X200421785Y-91671584D01*
X200421780Y-91671592D01*
X200294928Y-91903903D01*
X200294926Y-91903907D01*
X200202421Y-92151924D01*
X200146158Y-92410563D01*
X200146157Y-92410570D01*
X200127273Y-92674596D01*
X200127273Y-92674599D01*
X193285500Y-92674599D01*
X193285500Y-87189107D01*
X193284862Y-87171241D01*
X193283896Y-87153224D01*
X193282490Y-87146765D01*
X193287475Y-87077073D01*
X193329347Y-87021140D01*
X193394811Y-86996723D01*
X193421293Y-86997668D01*
G37*
%TD.AperFunction*%
%TD*%
%TA.AperFunction,Conductor*%
%TO.N,VIN*%
G36*
X191481017Y-57500574D02*
G01*
X191631800Y-57507987D01*
X191826364Y-57518191D01*
X191832207Y-57518777D01*
X192001452Y-57543901D01*
X192177599Y-57571820D01*
X192182957Y-57572915D01*
X192352296Y-57615364D01*
X192481845Y-57650103D01*
X192521554Y-57660752D01*
X192526380Y-57662259D01*
X192640885Y-57703262D01*
X192692180Y-57721630D01*
X192854708Y-57784067D01*
X192858988Y-57785900D01*
X193018982Y-57861633D01*
X193173635Y-57940499D01*
X193177331Y-57942547D01*
X193329632Y-58033914D01*
X193475041Y-58128429D01*
X193478169Y-58130603D01*
X193552711Y-58185940D01*
X193621123Y-58236727D01*
X193755834Y-58345923D01*
X193758446Y-58348163D01*
X193889413Y-58466992D01*
X193891586Y-58469064D01*
X194010821Y-58588434D01*
X194013161Y-58590776D01*
X194015240Y-58592962D01*
X194133923Y-58724067D01*
X194136128Y-58726643D01*
X194202964Y-58809286D01*
X194245190Y-58861500D01*
X194351128Y-59004540D01*
X194353327Y-59007710D01*
X194447669Y-59153212D01*
X194538871Y-59305630D01*
X194540933Y-59309363D01*
X194619602Y-59464063D01*
X194635262Y-59497242D01*
X194691717Y-59616857D01*
X194695155Y-59624140D01*
X194696988Y-59628437D01*
X194759233Y-59791010D01*
X194818418Y-59956885D01*
X194819927Y-59961732D01*
X194865120Y-60131034D01*
X194900865Y-60274309D01*
X194904828Y-60290198D01*
X194907376Y-60300409D01*
X194908467Y-60305783D01*
X194936183Y-60481936D01*
X194951418Y-60585374D01*
X194960275Y-60645508D01*
X194961119Y-60651234D01*
X194961699Y-60657095D01*
X194971670Y-60851409D01*
X194978923Y-61002425D01*
X194978995Y-61005469D01*
X194968892Y-69945622D01*
X194968845Y-69945778D01*
X194968820Y-69968725D01*
X194967743Y-69972374D01*
X194968667Y-69986673D01*
X194968796Y-69990735D01*
X194968626Y-70148350D01*
X194991044Y-70334595D01*
X194991360Y-70338009D01*
X194996192Y-70412834D01*
X195002715Y-70431550D01*
X195004803Y-70448901D01*
X195004804Y-70448908D01*
X195058205Y-70666455D01*
X195058814Y-70669201D01*
X195070356Y-70727538D01*
X195076007Y-70738977D01*
X195076969Y-70742895D01*
X195076971Y-70742902D01*
X195162220Y-70968271D01*
X195174254Y-71000084D01*
X195181979Y-71022911D01*
X195182335Y-71022725D01*
X195184074Y-71026045D01*
X195184075Y-71026047D01*
X195282086Y-71213144D01*
X195324553Y-71294209D01*
X195326490Y-71297419D01*
X195326438Y-71297449D01*
X195327338Y-71298984D01*
X195329119Y-71300834D01*
X195496347Y-71543462D01*
X195509757Y-71558617D01*
X195510414Y-71559470D01*
X195510759Y-71559749D01*
X195624992Y-71688847D01*
X195672702Y-71742766D01*
X195696947Y-71770167D01*
X195696951Y-71770170D01*
X195696955Y-71770175D01*
X195907402Y-71956808D01*
X195907542Y-71957031D01*
X195908402Y-71957695D01*
X195914820Y-71963386D01*
X195923445Y-71971035D01*
X196166271Y-72138798D01*
X196167317Y-72140090D01*
X196169261Y-72141233D01*
X196169302Y-72141167D01*
X196172504Y-72143104D01*
X196172509Y-72143108D01*
X196304837Y-72212616D01*
X196443832Y-72285626D01*
X196443621Y-72286025D01*
X196467813Y-72294243D01*
X196723538Y-72391300D01*
X196728119Y-72392430D01*
X196737060Y-72397637D01*
X196798741Y-72409914D01*
X196801442Y-72410515D01*
X197017454Y-72463795D01*
X197029897Y-72465306D01*
X197035527Y-72465991D01*
X197050247Y-72472327D01*
X197129863Y-72477548D01*
X197133276Y-72477867D01*
X197317969Y-72500307D01*
X197444568Y-72500310D01*
X197444575Y-72500312D01*
X197469233Y-72500312D01*
X197469332Y-72500312D01*
X197469832Y-72500312D01*
X197474938Y-72500312D01*
X197478996Y-72500445D01*
X197483995Y-72500772D01*
X197486490Y-72500312D01*
X204242227Y-72500312D01*
X204245704Y-72500410D01*
X204272303Y-72501903D01*
X204297411Y-72503312D01*
X204540962Y-72519267D01*
X204547257Y-72520006D01*
X204664387Y-72539905D01*
X204841813Y-72575197D01*
X204846815Y-72576413D01*
X204970723Y-72612109D01*
X204973372Y-72612940D01*
X205134578Y-72667662D01*
X205138346Y-72669080D01*
X205259591Y-72719300D01*
X205263271Y-72720969D01*
X205416078Y-72796326D01*
X205418622Y-72797655D01*
X205531152Y-72859847D01*
X205535603Y-72862558D01*
X205686589Y-72963445D01*
X205782835Y-73031735D01*
X205787830Y-73035680D01*
X205973158Y-73198214D01*
X205992166Y-73215201D01*
X206009808Y-73230966D01*
X206012336Y-73233356D01*
X209545700Y-76766720D01*
X209548073Y-76769231D01*
X209582420Y-76807667D01*
X209583975Y-76809440D01*
X209743581Y-76991449D01*
X209747526Y-76996444D01*
X209815878Y-77092778D01*
X209916695Y-77243662D01*
X209916741Y-77243730D01*
X209919455Y-77248187D01*
X209981589Y-77360611D01*
X209982931Y-77363179D01*
X210058366Y-77516145D01*
X210060040Y-77519841D01*
X210110156Y-77640829D01*
X210111586Y-77644627D01*
X210166409Y-77806126D01*
X210167276Y-77808892D01*
X210202838Y-77932324D01*
X210204070Y-77937394D01*
X210239487Y-78115434D01*
X210239556Y-78115838D01*
X210259276Y-78231900D01*
X210260020Y-78238234D01*
X210276061Y-78482905D01*
X210278902Y-78533472D01*
X210279000Y-78536951D01*
X210279000Y-86376298D01*
X210259315Y-86443337D01*
X210206511Y-86489092D01*
X210155000Y-86500298D01*
X193477836Y-86500298D01*
X193410797Y-86480613D01*
X193365042Y-86427809D01*
X193355098Y-86358651D01*
X193384123Y-86295095D01*
X193390155Y-86288617D01*
X195524851Y-84153920D01*
X196332127Y-83346643D01*
X196337287Y-83342031D01*
X196367666Y-83317806D01*
X196412645Y-83266321D01*
X196415462Y-83263308D01*
X196423945Y-83254827D01*
X196450951Y-83222478D01*
X196515765Y-83148294D01*
X196518004Y-83144546D01*
X196529266Y-83128672D01*
X196532069Y-83125316D01*
X196580691Y-83039624D01*
X196631215Y-82955062D01*
X196632744Y-82950985D01*
X196641006Y-82933326D01*
X196643154Y-82929542D01*
X196675695Y-82836542D01*
X196710307Y-82744322D01*
X196711085Y-82740033D01*
X196716057Y-82721194D01*
X196717498Y-82717080D01*
X196732912Y-82619758D01*
X196740159Y-82579825D01*
X196750500Y-82522848D01*
X196750500Y-82518473D01*
X196752027Y-82499075D01*
X196752710Y-82494762D01*
X196752711Y-82494757D01*
X196750500Y-82396250D01*
X196750500Y-80724599D01*
X199722273Y-80724599D01*
X199741157Y-80988625D01*
X199741158Y-80988632D01*
X199797421Y-81247271D01*
X199889926Y-81495288D01*
X199889928Y-81495292D01*
X200016780Y-81727603D01*
X200016785Y-81727611D01*
X200175406Y-81939505D01*
X200175422Y-81939523D01*
X200362574Y-82126675D01*
X200362592Y-82126691D01*
X200574486Y-82285312D01*
X200574494Y-82285317D01*
X200806805Y-82412169D01*
X200806809Y-82412171D01*
X200806811Y-82412172D01*
X201054822Y-82504675D01*
X201054825Y-82504675D01*
X201054826Y-82504676D01*
X201240300Y-82545023D01*
X201313474Y-82560941D01*
X201557160Y-82578370D01*
X201577499Y-82579825D01*
X201577500Y-82579825D01*
X201577501Y-82579825D01*
X201596384Y-82578474D01*
X201841526Y-82560941D01*
X202100178Y-82504675D01*
X202348189Y-82412172D01*
X202580511Y-82285314D01*
X202792415Y-82126685D01*
X202979587Y-81939513D01*
X203138216Y-81727609D01*
X203265074Y-81495287D01*
X203357577Y-81247276D01*
X203413843Y-80988624D01*
X203432727Y-80724598D01*
X203413843Y-80460572D01*
X203357577Y-80201920D01*
X203265074Y-79953909D01*
X203188414Y-79813518D01*
X203138219Y-79721592D01*
X203138214Y-79721584D01*
X202979593Y-79509690D01*
X202979577Y-79509672D01*
X202792425Y-79322520D01*
X202792407Y-79322504D01*
X202580513Y-79163883D01*
X202580505Y-79163878D01*
X202348194Y-79037026D01*
X202348190Y-79037024D01*
X202100173Y-78944519D01*
X201841534Y-78888256D01*
X201841527Y-78888255D01*
X201577501Y-78869371D01*
X201577499Y-78869371D01*
X201313472Y-78888255D01*
X201313465Y-78888256D01*
X201054826Y-78944519D01*
X200806809Y-79037024D01*
X200806805Y-79037026D01*
X200574494Y-79163878D01*
X200574486Y-79163883D01*
X200362592Y-79322504D01*
X200362574Y-79322520D01*
X200175422Y-79509672D01*
X200175406Y-79509690D01*
X200016785Y-79721584D01*
X200016780Y-79721592D01*
X199889928Y-79953903D01*
X199889926Y-79953907D01*
X199797421Y-80201924D01*
X199741158Y-80460563D01*
X199741157Y-80460570D01*
X199722273Y-80724596D01*
X199722273Y-80724599D01*
X196750500Y-80724599D01*
X196750500Y-80409729D01*
X196768960Y-80344634D01*
X196784814Y-80318932D01*
X196839999Y-80152395D01*
X196850500Y-80049607D01*
X196850499Y-78449590D01*
X196839999Y-78346801D01*
X196784814Y-78180264D01*
X196692712Y-78030942D01*
X196568656Y-77906886D01*
X196463494Y-77842022D01*
X196419336Y-77814785D01*
X196419331Y-77814783D01*
X196393206Y-77806126D01*
X196252797Y-77759599D01*
X196252795Y-77759598D01*
X196150010Y-77749098D01*
X194849998Y-77749098D01*
X194849981Y-77749099D01*
X194747203Y-77759598D01*
X194747200Y-77759599D01*
X194580668Y-77814783D01*
X194580663Y-77814785D01*
X194431342Y-77906887D01*
X194307289Y-78030940D01*
X194211821Y-78185719D01*
X194159873Y-78232443D01*
X194090910Y-78243666D01*
X194026828Y-78215822D01*
X194018601Y-78208303D01*
X193871402Y-78061104D01*
X193871395Y-78061099D01*
X193677834Y-77925565D01*
X193677830Y-77925563D01*
X193661013Y-77917721D01*
X193463663Y-77825695D01*
X193463659Y-77825694D01*
X193463655Y-77825692D01*
X193235413Y-77764536D01*
X193235403Y-77764534D01*
X193000001Y-77743939D01*
X192999999Y-77743939D01*
X192764596Y-77764534D01*
X192764586Y-77764536D01*
X192536344Y-77825692D01*
X192536335Y-77825696D01*
X192322171Y-77925562D01*
X192322169Y-77925563D01*
X192128597Y-78061103D01*
X191961505Y-78228195D01*
X191825965Y-78421767D01*
X191825964Y-78421769D01*
X191726098Y-78635933D01*
X191726094Y-78635942D01*
X191664938Y-78864184D01*
X191664936Y-78864194D01*
X191649500Y-79040632D01*
X191649500Y-79458564D01*
X191664936Y-79635001D01*
X191664938Y-79635011D01*
X191726094Y-79863253D01*
X191726096Y-79863257D01*
X191726097Y-79863261D01*
X191768364Y-79953903D01*
X191825964Y-80077426D01*
X191825965Y-80077428D01*
X191961505Y-80271000D01*
X192065070Y-80374564D01*
X192128599Y-80438093D01*
X192225384Y-80505863D01*
X192322165Y-80573630D01*
X192322167Y-80573631D01*
X192322170Y-80573633D01*
X192536337Y-80673501D01*
X192536343Y-80673502D01*
X192536344Y-80673503D01*
X192591285Y-80688224D01*
X192764592Y-80734661D01*
X192952918Y-80751137D01*
X192999999Y-80755257D01*
X193000000Y-80755257D01*
X193000001Y-80755257D01*
X193039234Y-80751824D01*
X193235408Y-80734661D01*
X193463663Y-80673501D01*
X193677829Y-80573633D01*
X193871401Y-80438093D01*
X194018602Y-80290891D01*
X194079924Y-80257408D01*
X194149615Y-80262392D01*
X194205549Y-80304263D01*
X194211819Y-80313475D01*
X194231037Y-80344631D01*
X194249500Y-80409730D01*
X194249500Y-81840961D01*
X194229815Y-81908000D01*
X194213181Y-81928642D01*
X188536491Y-87605331D01*
X188531305Y-87609966D01*
X188500943Y-87634180D01*
X188500939Y-87634184D01*
X188455971Y-87685652D01*
X188453127Y-87688695D01*
X188444670Y-87697153D01*
X188444660Y-87697164D01*
X188417655Y-87729510D01*
X188352840Y-87803696D01*
X188352836Y-87803702D01*
X188350587Y-87807466D01*
X188339352Y-87823300D01*
X188336540Y-87826669D01*
X188336538Y-87826673D01*
X188287922Y-87912351D01*
X188259927Y-87959206D01*
X188237389Y-87996930D01*
X188235853Y-88001024D01*
X188227614Y-88018637D01*
X188225456Y-88022439D01*
X188225452Y-88022449D01*
X188192913Y-88115438D01*
X188158300Y-88207662D01*
X188158295Y-88207680D01*
X188157515Y-88211980D01*
X188152558Y-88230761D01*
X188151109Y-88234901D01*
X188151108Y-88234907D01*
X188135695Y-88332219D01*
X188118106Y-88429140D01*
X188118106Y-88433519D01*
X188116579Y-88452921D01*
X188115895Y-88457232D01*
X188118106Y-88555713D01*
X188118106Y-91474847D01*
X188098421Y-91541886D01*
X188068418Y-91574113D01*
X188011063Y-91617049D01*
X188011057Y-91617055D01*
X187924812Y-91732262D01*
X187924808Y-91732269D01*
X187874514Y-91867115D01*
X187870559Y-91903909D01*
X187868107Y-91926721D01*
X187868106Y-91926733D01*
X187868106Y-94022468D01*
X187868107Y-94022474D01*
X187874514Y-94082081D01*
X187924808Y-94216926D01*
X187924812Y-94216933D01*
X188011058Y-94332142D01*
X188011061Y-94332145D01*
X188126270Y-94418391D01*
X188126277Y-94418395D01*
X188261123Y-94468689D01*
X188261122Y-94468689D01*
X188268050Y-94469433D01*
X188320733Y-94475098D01*
X190416478Y-94475097D01*
X190476089Y-94468689D01*
X190610937Y-94418394D01*
X190726152Y-94332144D01*
X190812402Y-94216929D01*
X190862697Y-94082081D01*
X190869106Y-94022471D01*
X190869105Y-91926726D01*
X190862697Y-91867115D01*
X190812402Y-91732267D01*
X190812401Y-91732266D01*
X190812399Y-91732262D01*
X190726154Y-91617055D01*
X190726152Y-91617052D01*
X190697719Y-91595767D01*
X190668794Y-91574113D01*
X190626924Y-91518179D01*
X190619106Y-91474847D01*
X190619106Y-89111027D01*
X190638791Y-89043988D01*
X190655420Y-89023351D01*
X192568320Y-87110451D01*
X192629642Y-87076967D01*
X192699334Y-87081951D01*
X192755267Y-87123823D01*
X192779684Y-87189287D01*
X192780000Y-87198133D01*
X192780000Y-96876298D01*
X192760315Y-96943337D01*
X192707511Y-96989092D01*
X192656000Y-97000298D01*
X165104500Y-97000298D01*
X165037461Y-96980613D01*
X164991706Y-96927809D01*
X164980500Y-96876298D01*
X164980500Y-94200299D01*
X167634532Y-94200299D01*
X167654364Y-94426984D01*
X167654366Y-94426995D01*
X167713258Y-94646786D01*
X167713261Y-94646795D01*
X167809431Y-94853030D01*
X167809432Y-94853032D01*
X167939954Y-95039439D01*
X168100858Y-95200343D01*
X168100861Y-95200345D01*
X168287266Y-95330866D01*
X168493504Y-95427037D01*
X168713308Y-95485933D01*
X168875230Y-95500099D01*
X168939998Y-95505766D01*
X168940000Y-95505766D01*
X168940002Y-95505766D01*
X168996672Y-95500807D01*
X169166692Y-95485933D01*
X169386496Y-95427037D01*
X169592734Y-95330866D01*
X169779139Y-95200345D01*
X169940047Y-95039437D01*
X170070568Y-94853032D01*
X170166739Y-94646794D01*
X170225635Y-94426990D01*
X170245468Y-94200299D01*
X175254532Y-94200299D01*
X175274364Y-94426984D01*
X175274366Y-94426995D01*
X175333258Y-94646786D01*
X175333261Y-94646795D01*
X175429431Y-94853030D01*
X175429432Y-94853032D01*
X175559954Y-95039439D01*
X175720858Y-95200343D01*
X175720861Y-95200345D01*
X175907266Y-95330866D01*
X176113504Y-95427037D01*
X176333308Y-95485933D01*
X176495230Y-95500099D01*
X176559998Y-95505766D01*
X176560000Y-95505766D01*
X176560002Y-95505766D01*
X176616673Y-95500807D01*
X176786692Y-95485933D01*
X177006496Y-95427037D01*
X177212734Y-95330866D01*
X177399139Y-95200345D01*
X177560047Y-95039437D01*
X177690568Y-94853032D01*
X177786739Y-94646794D01*
X177845635Y-94426990D01*
X177865468Y-94200298D01*
X177845635Y-93973606D01*
X177786739Y-93753802D01*
X177690568Y-93547564D01*
X177560047Y-93361159D01*
X177560045Y-93361156D01*
X177399141Y-93200252D01*
X177212734Y-93069730D01*
X177212732Y-93069729D01*
X177008736Y-92974603D01*
X182862962Y-92974603D01*
X182883496Y-93222410D01*
X182883498Y-93222422D01*
X182944542Y-93463479D01*
X183044432Y-93691204D01*
X183180439Y-93899380D01*
X183180442Y-93899383D01*
X183348862Y-94082336D01*
X183545097Y-94235072D01*
X183763796Y-94353426D01*
X183998992Y-94434169D01*
X184244271Y-94475098D01*
X184492941Y-94475098D01*
X184738220Y-94434169D01*
X184973416Y-94353426D01*
X185192115Y-94235072D01*
X185388350Y-94082336D01*
X185556770Y-93899383D01*
X185692779Y-93691205D01*
X185792669Y-93463479D01*
X185853714Y-93222419D01*
X185855551Y-93200251D01*
X185874249Y-92974603D01*
X185874249Y-92974592D01*
X185853715Y-92726785D01*
X185853713Y-92726773D01*
X185792669Y-92485716D01*
X185692779Y-92257991D01*
X185556772Y-92049815D01*
X185465201Y-91950343D01*
X185388350Y-91866860D01*
X185192115Y-91714124D01*
X185192113Y-91714123D01*
X185192112Y-91714122D01*
X184973417Y-91595770D01*
X184973408Y-91595767D01*
X184738222Y-91515027D01*
X184492941Y-91474098D01*
X184244271Y-91474098D01*
X183998989Y-91515027D01*
X183763803Y-91595767D01*
X183763794Y-91595770D01*
X183545099Y-91714122D01*
X183348863Y-91866859D01*
X183180439Y-92049815D01*
X183044432Y-92257991D01*
X182944542Y-92485716D01*
X182883498Y-92726773D01*
X182883496Y-92726785D01*
X182862962Y-92974592D01*
X182862962Y-92974603D01*
X177008736Y-92974603D01*
X177006497Y-92973559D01*
X177006488Y-92973556D01*
X176786697Y-92914664D01*
X176786693Y-92914663D01*
X176786692Y-92914663D01*
X176786691Y-92914662D01*
X176786686Y-92914662D01*
X176560002Y-92894830D01*
X176559998Y-92894830D01*
X176333313Y-92914662D01*
X176333302Y-92914664D01*
X176113511Y-92973556D01*
X176113502Y-92973559D01*
X175907267Y-93069729D01*
X175907265Y-93069730D01*
X175720858Y-93200252D01*
X175559954Y-93361156D01*
X175429432Y-93547563D01*
X175429431Y-93547565D01*
X175333261Y-93753800D01*
X175333258Y-93753809D01*
X175274366Y-93973600D01*
X175274364Y-93973611D01*
X175254532Y-94200296D01*
X175254532Y-94200299D01*
X170245468Y-94200299D01*
X170245468Y-94200298D01*
X170225635Y-93973606D01*
X170166739Y-93753802D01*
X170070568Y-93547564D01*
X169940047Y-93361159D01*
X169940045Y-93361156D01*
X169779141Y-93200252D01*
X169592734Y-93069730D01*
X169592732Y-93069729D01*
X169386497Y-92973559D01*
X169386488Y-92973556D01*
X169166697Y-92914664D01*
X169166693Y-92914663D01*
X169166692Y-92914663D01*
X169166691Y-92914662D01*
X169166686Y-92914662D01*
X168940002Y-92894830D01*
X168939998Y-92894830D01*
X168713313Y-92914662D01*
X168713302Y-92914664D01*
X168493511Y-92973556D01*
X168493502Y-92973559D01*
X168287267Y-93069729D01*
X168287265Y-93069730D01*
X168100858Y-93200252D01*
X167939954Y-93361156D01*
X167809432Y-93547563D01*
X167809431Y-93547565D01*
X167713261Y-93753800D01*
X167713258Y-93753809D01*
X167654366Y-93973600D01*
X167654364Y-93973611D01*
X167634532Y-94200296D01*
X167634532Y-94200299D01*
X164980500Y-94200299D01*
X164980500Y-90950299D01*
X175254532Y-90950299D01*
X175274364Y-91176984D01*
X175274366Y-91176995D01*
X175333258Y-91396786D01*
X175333261Y-91396795D01*
X175429431Y-91603030D01*
X175429432Y-91603032D01*
X175559954Y-91789439D01*
X175720858Y-91950343D01*
X175720861Y-91950345D01*
X175907266Y-92080866D01*
X176113504Y-92177037D01*
X176333308Y-92235933D01*
X176495230Y-92250099D01*
X176559998Y-92255766D01*
X176560000Y-92255766D01*
X176560002Y-92255766D01*
X176616673Y-92250807D01*
X176786692Y-92235933D01*
X177006496Y-92177037D01*
X177212734Y-92080866D01*
X177399139Y-91950345D01*
X177560047Y-91789437D01*
X177690568Y-91603032D01*
X177786739Y-91396794D01*
X177845635Y-91176990D01*
X177865468Y-90950298D01*
X177861093Y-90900297D01*
X177845635Y-90723611D01*
X177845635Y-90723606D01*
X177786739Y-90503802D01*
X177690568Y-90297564D01*
X177560047Y-90111159D01*
X177560045Y-90111156D01*
X177399141Y-89950252D01*
X177212734Y-89819730D01*
X177212732Y-89819729D01*
X177006497Y-89723559D01*
X177006488Y-89723556D01*
X176786697Y-89664664D01*
X176786693Y-89664663D01*
X176786692Y-89664663D01*
X176786691Y-89664662D01*
X176786686Y-89664662D01*
X176560002Y-89644830D01*
X176559998Y-89644830D01*
X176333313Y-89664662D01*
X176333302Y-89664664D01*
X176113511Y-89723556D01*
X176113502Y-89723559D01*
X175907267Y-89819729D01*
X175907265Y-89819730D01*
X175720858Y-89950252D01*
X175559954Y-90111156D01*
X175429432Y-90297563D01*
X175429431Y-90297565D01*
X175333261Y-90503800D01*
X175333258Y-90503809D01*
X175274366Y-90723600D01*
X175274364Y-90723611D01*
X175254532Y-90950296D01*
X175254532Y-90950299D01*
X164980500Y-90950299D01*
X164980500Y-90925057D01*
X164980528Y-90924914D01*
X164980524Y-90924914D01*
X164980539Y-90900300D01*
X164980541Y-90900298D01*
X164980462Y-90900106D01*
X164980384Y-90899916D01*
X164980382Y-90899914D01*
X164980099Y-90899798D01*
X164980000Y-90899757D01*
X164955446Y-90899757D01*
X164955240Y-90899798D01*
X145604760Y-90899798D01*
X145604554Y-90899757D01*
X145580000Y-90899757D01*
X145579901Y-90899798D01*
X145579617Y-90899914D01*
X145579615Y-90899916D01*
X145579459Y-90900297D01*
X145579476Y-90924914D01*
X145579471Y-90924914D01*
X145579500Y-90925057D01*
X145579500Y-96876298D01*
X145559815Y-96943337D01*
X145507011Y-96989092D01*
X145455500Y-97000298D01*
X140404000Y-97000298D01*
X140336961Y-96980613D01*
X140291206Y-96927809D01*
X140280000Y-96876298D01*
X140280000Y-87250299D01*
X151634532Y-87250299D01*
X151654364Y-87476984D01*
X151654366Y-87476995D01*
X151713258Y-87696786D01*
X151713261Y-87696795D01*
X151809431Y-87903030D01*
X151809432Y-87903032D01*
X151939954Y-88089439D01*
X152100858Y-88250343D01*
X152100861Y-88250345D01*
X152287266Y-88380866D01*
X152493504Y-88477037D01*
X152713308Y-88535933D01*
X152875230Y-88550099D01*
X152939998Y-88555766D01*
X152940000Y-88555766D01*
X152940002Y-88555766D01*
X152996673Y-88550807D01*
X153166692Y-88535933D01*
X153386496Y-88477037D01*
X153592734Y-88380866D01*
X153779139Y-88250345D01*
X153940047Y-88089437D01*
X154070568Y-87903032D01*
X154166739Y-87696794D01*
X154225635Y-87476990D01*
X154245468Y-87250299D01*
X159254532Y-87250299D01*
X159274364Y-87476984D01*
X159274366Y-87476995D01*
X159333258Y-87696786D01*
X159333261Y-87696795D01*
X159429431Y-87903030D01*
X159429432Y-87903032D01*
X159559954Y-88089439D01*
X159720858Y-88250343D01*
X159720861Y-88250345D01*
X159907266Y-88380866D01*
X160113504Y-88477037D01*
X160333308Y-88535933D01*
X160495230Y-88550099D01*
X160559998Y-88555766D01*
X160560000Y-88555766D01*
X160560002Y-88555766D01*
X160616672Y-88550807D01*
X160786692Y-88535933D01*
X161006496Y-88477037D01*
X161212734Y-88380866D01*
X161399139Y-88250345D01*
X161560047Y-88089437D01*
X161690568Y-87903032D01*
X161786739Y-87696794D01*
X161845635Y-87476990D01*
X161865468Y-87250298D01*
X161845635Y-87023606D01*
X161786739Y-86803802D01*
X161690568Y-86597564D01*
X161560665Y-86412042D01*
X161560045Y-86411156D01*
X161399141Y-86250252D01*
X161212734Y-86119730D01*
X161212732Y-86119729D01*
X161006497Y-86023559D01*
X161006488Y-86023556D01*
X160786697Y-85964664D01*
X160786693Y-85964663D01*
X160786692Y-85964663D01*
X160786691Y-85964662D01*
X160786686Y-85964662D01*
X160560002Y-85944830D01*
X160559998Y-85944830D01*
X160333313Y-85964662D01*
X160333302Y-85964664D01*
X160113511Y-86023556D01*
X160113502Y-86023559D01*
X159907267Y-86119729D01*
X159907265Y-86119730D01*
X159720858Y-86250252D01*
X159559954Y-86411156D01*
X159429432Y-86597563D01*
X159429431Y-86597565D01*
X159333261Y-86803800D01*
X159333258Y-86803809D01*
X159274366Y-87023600D01*
X159274364Y-87023611D01*
X159254532Y-87250296D01*
X159254532Y-87250299D01*
X154245468Y-87250299D01*
X154245468Y-87250298D01*
X154225635Y-87023606D01*
X154166739Y-86803802D01*
X154070568Y-86597564D01*
X153940665Y-86412042D01*
X153940045Y-86411156D01*
X153779141Y-86250252D01*
X153592734Y-86119730D01*
X153592732Y-86119729D01*
X153386497Y-86023559D01*
X153386488Y-86023556D01*
X153166697Y-85964664D01*
X153166693Y-85964663D01*
X153166692Y-85964663D01*
X153166691Y-85964662D01*
X153166686Y-85964662D01*
X152940002Y-85944830D01*
X152939998Y-85944830D01*
X152713313Y-85964662D01*
X152713302Y-85964664D01*
X152493511Y-86023556D01*
X152493502Y-86023559D01*
X152287267Y-86119729D01*
X152287265Y-86119730D01*
X152100858Y-86250252D01*
X151939954Y-86411156D01*
X151809432Y-86597563D01*
X151809431Y-86597565D01*
X151713261Y-86803800D01*
X151713258Y-86803809D01*
X151654366Y-87023600D01*
X151654364Y-87023611D01*
X151634532Y-87250296D01*
X151634532Y-87250299D01*
X140280000Y-87250299D01*
X140280000Y-85761640D01*
X171487500Y-85761640D01*
X171487501Y-87438954D01*
X171487501Y-87438955D01*
X171490418Y-87481999D01*
X171490418Y-87482000D01*
X171536694Y-87668076D01*
X171621881Y-87839841D01*
X171621883Y-87839844D01*
X171742009Y-87989287D01*
X171742010Y-87989288D01*
X171891453Y-88109414D01*
X171891456Y-88109416D01*
X172057959Y-88191993D01*
X172063225Y-88194605D01*
X172208611Y-88230761D01*
X172249291Y-88240878D01*
X172249292Y-88240878D01*
X172249296Y-88240879D01*
X172288336Y-88243526D01*
X172292342Y-88243798D01*
X172292342Y-88243797D01*
X172292343Y-88243798D01*
X173207656Y-88243797D01*
X173207657Y-88243797D01*
X173218417Y-88243067D01*
X173250704Y-88240879D01*
X173436775Y-88194605D01*
X173608547Y-88109414D01*
X173757990Y-87989288D01*
X173878116Y-87839845D01*
X173963307Y-87668073D01*
X174009581Y-87482002D01*
X174010638Y-87466406D01*
X174034814Y-87400854D01*
X174090593Y-87358777D01*
X174134354Y-87350798D01*
X176020663Y-87350798D01*
X176087702Y-87370483D01*
X176093548Y-87374480D01*
X176107265Y-87384446D01*
X176107270Y-87384449D01*
X176280192Y-87461440D01*
X176280197Y-87461442D01*
X176465354Y-87500798D01*
X176465355Y-87500798D01*
X176654644Y-87500798D01*
X176654646Y-87500798D01*
X176839803Y-87461442D01*
X177012730Y-87384449D01*
X177165871Y-87273186D01*
X177292533Y-87132514D01*
X177387179Y-86968582D01*
X177445674Y-86788554D01*
X177465460Y-86600298D01*
X177445674Y-86412042D01*
X177387179Y-86232014D01*
X177292533Y-86068082D01*
X177165871Y-85927410D01*
X177165870Y-85927409D01*
X177012734Y-85816149D01*
X177012729Y-85816146D01*
X176839807Y-85739155D01*
X176839802Y-85739153D01*
X176694001Y-85708163D01*
X176654646Y-85699798D01*
X176465354Y-85699798D01*
X176432897Y-85706696D01*
X176280197Y-85739153D01*
X176280192Y-85739155D01*
X176107270Y-85816146D01*
X176107265Y-85816149D01*
X176093548Y-85826116D01*
X176027742Y-85849596D01*
X176020663Y-85849798D01*
X174134354Y-85849798D01*
X174067315Y-85830113D01*
X174021560Y-85777309D01*
X174010638Y-85734183D01*
X174009581Y-85718597D01*
X174009581Y-85718595D01*
X174009580Y-85718589D01*
X173963307Y-85532523D01*
X173960695Y-85527257D01*
X173878118Y-85360754D01*
X173878116Y-85360751D01*
X173757990Y-85211308D01*
X173757989Y-85211307D01*
X173608546Y-85091181D01*
X173608543Y-85091179D01*
X173436778Y-85005992D01*
X173436776Y-85005991D01*
X173436775Y-85005991D01*
X173398939Y-84996581D01*
X173250708Y-84959717D01*
X173207658Y-84956798D01*
X173207657Y-84956798D01*
X172292344Y-84956799D01*
X172292343Y-84956799D01*
X172249298Y-84959716D01*
X172249297Y-84959716D01*
X172063221Y-85005992D01*
X171891456Y-85091179D01*
X171891453Y-85091181D01*
X171742010Y-85211307D01*
X171742009Y-85211308D01*
X171621883Y-85360751D01*
X171621881Y-85360754D01*
X171536694Y-85532519D01*
X171490419Y-85718589D01*
X171487500Y-85761640D01*
X140280000Y-85761640D01*
X140280000Y-84000299D01*
X151634532Y-84000299D01*
X151654364Y-84226984D01*
X151654366Y-84226995D01*
X151713258Y-84446786D01*
X151713261Y-84446795D01*
X151809431Y-84653030D01*
X151809432Y-84653032D01*
X151939954Y-84839439D01*
X152100858Y-85000343D01*
X152100861Y-85000345D01*
X152287266Y-85130866D01*
X152493504Y-85227037D01*
X152713308Y-85285933D01*
X152875230Y-85300099D01*
X152939998Y-85305766D01*
X152940000Y-85305766D01*
X152940002Y-85305766D01*
X152996672Y-85300807D01*
X153166692Y-85285933D01*
X153386496Y-85227037D01*
X153592734Y-85130866D01*
X153779139Y-85000345D01*
X153940047Y-84839437D01*
X154070568Y-84653032D01*
X154166739Y-84446794D01*
X154225635Y-84226990D01*
X154245468Y-84000299D01*
X159254532Y-84000299D01*
X159274364Y-84226984D01*
X159274366Y-84226995D01*
X159333258Y-84446786D01*
X159333261Y-84446795D01*
X159429431Y-84653030D01*
X159429432Y-84653032D01*
X159559954Y-84839439D01*
X159720858Y-85000343D01*
X159720861Y-85000345D01*
X159907266Y-85130866D01*
X160113504Y-85227037D01*
X160333308Y-85285933D01*
X160495230Y-85300099D01*
X160559998Y-85305766D01*
X160560000Y-85305766D01*
X160560002Y-85305766D01*
X160616673Y-85300807D01*
X160786692Y-85285933D01*
X161006496Y-85227037D01*
X161212734Y-85130866D01*
X161399139Y-85000345D01*
X161560047Y-84839437D01*
X161690568Y-84653032D01*
X161786739Y-84446794D01*
X161845635Y-84226990D01*
X161865468Y-84000298D01*
X161845635Y-83773606D01*
X161832504Y-83724600D01*
X182994723Y-83724600D01*
X183013793Y-83942573D01*
X183013793Y-83942577D01*
X183070422Y-84153920D01*
X183070424Y-84153924D01*
X183070425Y-84153928D01*
X183104497Y-84226995D01*
X183162897Y-84352236D01*
X183162898Y-84352237D01*
X183288402Y-84531475D01*
X183443123Y-84686196D01*
X183622361Y-84811700D01*
X183820670Y-84904173D01*
X184032023Y-84960805D01*
X184214926Y-84976806D01*
X184249998Y-84979875D01*
X184250000Y-84979875D01*
X184250002Y-84979875D01*
X184278254Y-84977403D01*
X184467977Y-84960805D01*
X184679330Y-84904173D01*
X184877639Y-84811700D01*
X185056877Y-84686196D01*
X185211598Y-84531475D01*
X185337102Y-84352237D01*
X185429575Y-84153928D01*
X185486207Y-83942575D01*
X185505277Y-83724598D01*
X185486207Y-83506621D01*
X185435614Y-83317806D01*
X185429577Y-83295275D01*
X185429576Y-83295274D01*
X185429575Y-83295268D01*
X185337102Y-83096960D01*
X185337100Y-83096957D01*
X185337099Y-83096955D01*
X185211599Y-82917722D01*
X185143314Y-82849437D01*
X185056877Y-82763000D01*
X184877639Y-82637496D01*
X184861188Y-82629825D01*
X184769307Y-82586980D01*
X184716867Y-82540808D01*
X184697715Y-82473614D01*
X184717931Y-82406733D01*
X184769307Y-82362216D01*
X184877639Y-82311700D01*
X185056877Y-82186196D01*
X185211598Y-82031475D01*
X185226426Y-82010299D01*
X186694532Y-82010299D01*
X186714364Y-82236984D01*
X186714366Y-82236995D01*
X186773258Y-82456786D01*
X186773261Y-82456795D01*
X186869431Y-82663030D01*
X186869432Y-82663032D01*
X186999954Y-82849439D01*
X187160858Y-83010343D01*
X187160861Y-83010345D01*
X187347266Y-83140866D01*
X187553504Y-83237037D01*
X187773308Y-83295933D01*
X187935230Y-83310099D01*
X187999998Y-83315766D01*
X188000000Y-83315766D01*
X188000002Y-83315766D01*
X188056673Y-83310807D01*
X188226692Y-83295933D01*
X188446496Y-83237037D01*
X188652734Y-83140866D01*
X188839139Y-83010345D01*
X189000047Y-82849437D01*
X189130568Y-82663032D01*
X189226739Y-82456794D01*
X189285635Y-82236990D01*
X189305468Y-82010298D01*
X189303650Y-81989523D01*
X189296518Y-81908000D01*
X189285635Y-81783606D01*
X189226739Y-81563802D01*
X189130568Y-81357564D01*
X189000047Y-81171159D01*
X189000045Y-81171156D01*
X188839141Y-81010252D01*
X188652734Y-80879730D01*
X188652732Y-80879729D01*
X188446497Y-80783559D01*
X188446488Y-80783556D01*
X188226697Y-80724664D01*
X188226693Y-80724663D01*
X188226692Y-80724663D01*
X188226691Y-80724662D01*
X188226686Y-80724662D01*
X188000002Y-80704830D01*
X187999998Y-80704830D01*
X187773313Y-80724662D01*
X187773302Y-80724664D01*
X187553511Y-80783556D01*
X187553502Y-80783559D01*
X187347267Y-80879729D01*
X187347265Y-80879730D01*
X187160858Y-81010252D01*
X186999954Y-81171156D01*
X186869432Y-81357563D01*
X186869431Y-81357565D01*
X186773261Y-81563800D01*
X186773258Y-81563809D01*
X186714366Y-81783600D01*
X186714364Y-81783611D01*
X186694532Y-82010296D01*
X186694532Y-82010299D01*
X185226426Y-82010299D01*
X185337102Y-81852237D01*
X185429575Y-81653928D01*
X185486207Y-81442575D01*
X185505277Y-81224598D01*
X185486207Y-81006621D01*
X185429575Y-80795268D01*
X185337102Y-80596960D01*
X185337100Y-80596957D01*
X185337099Y-80596955D01*
X185211599Y-80417722D01*
X185138508Y-80344631D01*
X185056877Y-80263000D01*
X184877639Y-80137496D01*
X184769306Y-80086979D01*
X184716867Y-80040808D01*
X184697715Y-79973614D01*
X184717931Y-79906733D01*
X184769307Y-79862216D01*
X184877639Y-79811700D01*
X185056877Y-79686196D01*
X185211598Y-79531475D01*
X185337102Y-79352237D01*
X185429575Y-79153928D01*
X185486207Y-78942575D01*
X185505277Y-78724598D01*
X185504087Y-78711000D01*
X185501569Y-78682216D01*
X185486207Y-78506621D01*
X185443383Y-78346801D01*
X185429577Y-78295275D01*
X185429576Y-78295274D01*
X185429575Y-78295268D01*
X185337102Y-78096960D01*
X185337100Y-78096957D01*
X185337099Y-78096955D01*
X185211599Y-77917722D01*
X185135899Y-77842022D01*
X185056877Y-77763000D01*
X184918978Y-77666442D01*
X184877638Y-77637495D01*
X184778484Y-77591259D01*
X184679330Y-77545023D01*
X184679326Y-77545022D01*
X184679322Y-77545020D01*
X184467977Y-77488391D01*
X184250002Y-77469321D01*
X184249998Y-77469321D01*
X184104681Y-77482034D01*
X184032023Y-77488391D01*
X184032020Y-77488391D01*
X183820677Y-77545020D01*
X183820668Y-77545024D01*
X183622361Y-77637496D01*
X183622357Y-77637498D01*
X183443121Y-77763000D01*
X183288402Y-77917719D01*
X183162900Y-78096955D01*
X183162898Y-78096959D01*
X183070426Y-78295266D01*
X183070422Y-78295275D01*
X183013793Y-78506618D01*
X183013793Y-78506622D01*
X182995913Y-78711000D01*
X182994723Y-78724598D01*
X183009812Y-78897076D01*
X183013793Y-78942573D01*
X183013793Y-78942577D01*
X183070422Y-79153920D01*
X183070424Y-79153924D01*
X183070425Y-79153928D01*
X183100355Y-79218113D01*
X183162897Y-79352236D01*
X183176863Y-79372181D01*
X183288402Y-79531475D01*
X183443123Y-79686196D01*
X183622361Y-79811699D01*
X183622361Y-79811700D01*
X183730693Y-79862216D01*
X183783132Y-79908388D01*
X183802284Y-79975582D01*
X183782068Y-80042463D01*
X183730693Y-80086980D01*
X183622362Y-80137496D01*
X183622357Y-80137498D01*
X183443121Y-80263000D01*
X183288402Y-80417719D01*
X183162900Y-80596955D01*
X183162898Y-80596959D01*
X183070426Y-80795266D01*
X183070422Y-80795275D01*
X183013793Y-81006618D01*
X183013793Y-81006621D01*
X183009025Y-81061115D01*
X182994723Y-81224595D01*
X182994723Y-81224600D01*
X183013793Y-81442573D01*
X183013793Y-81442577D01*
X183070422Y-81653920D01*
X183070424Y-81653924D01*
X183070425Y-81653928D01*
X183098252Y-81713603D01*
X183162897Y-81852236D01*
X183162898Y-81852237D01*
X183288402Y-82031475D01*
X183443123Y-82186196D01*
X183622361Y-82311699D01*
X183622361Y-82311700D01*
X183730693Y-82362216D01*
X183783132Y-82408388D01*
X183802284Y-82475582D01*
X183782068Y-82542463D01*
X183730693Y-82586980D01*
X183622362Y-82637496D01*
X183622357Y-82637498D01*
X183443121Y-82763000D01*
X183288402Y-82917719D01*
X183162900Y-83096955D01*
X183162898Y-83096959D01*
X183070426Y-83295266D01*
X183070422Y-83295275D01*
X183013793Y-83506618D01*
X183013793Y-83506622D01*
X182994723Y-83724595D01*
X182994723Y-83724600D01*
X161832504Y-83724600D01*
X161786739Y-83553802D01*
X161690568Y-83347564D01*
X161560047Y-83161159D01*
X161560045Y-83161156D01*
X161399141Y-83000252D01*
X161212734Y-82869730D01*
X161212732Y-82869729D01*
X161006497Y-82773559D01*
X161006488Y-82773556D01*
X160786697Y-82714664D01*
X160786693Y-82714663D01*
X160786692Y-82714663D01*
X160786691Y-82714662D01*
X160786686Y-82714662D01*
X160560002Y-82694830D01*
X160559998Y-82694830D01*
X160333313Y-82714662D01*
X160333302Y-82714664D01*
X160113511Y-82773556D01*
X160113502Y-82773559D01*
X159907267Y-82869729D01*
X159907265Y-82869730D01*
X159720858Y-83000252D01*
X159559954Y-83161156D01*
X159429432Y-83347563D01*
X159429431Y-83347565D01*
X159333261Y-83553800D01*
X159333258Y-83553809D01*
X159274366Y-83773600D01*
X159274364Y-83773611D01*
X159254532Y-84000296D01*
X159254532Y-84000299D01*
X154245468Y-84000299D01*
X154245468Y-84000298D01*
X154225635Y-83773606D01*
X154166739Y-83553802D01*
X154070568Y-83347564D01*
X153940047Y-83161159D01*
X153940045Y-83161156D01*
X153779141Y-83000252D01*
X153592734Y-82869730D01*
X153592732Y-82869729D01*
X153386497Y-82773559D01*
X153386488Y-82773556D01*
X153166697Y-82714664D01*
X153166693Y-82714663D01*
X153166692Y-82714663D01*
X153166691Y-82714662D01*
X153166686Y-82714662D01*
X152940002Y-82694830D01*
X152939998Y-82694830D01*
X152713313Y-82714662D01*
X152713302Y-82714664D01*
X152493511Y-82773556D01*
X152493502Y-82773559D01*
X152287267Y-82869729D01*
X152287265Y-82869730D01*
X152100858Y-83000252D01*
X151939954Y-83161156D01*
X151809432Y-83347563D01*
X151809431Y-83347565D01*
X151713261Y-83553800D01*
X151713258Y-83553809D01*
X151654366Y-83773600D01*
X151654364Y-83773611D01*
X151634532Y-84000296D01*
X151634532Y-84000299D01*
X140280000Y-84000299D01*
X140280000Y-80774599D01*
X143222273Y-80774599D01*
X143241157Y-81038625D01*
X143241158Y-81038632D01*
X143297421Y-81297271D01*
X143389926Y-81545288D01*
X143389928Y-81545292D01*
X143516780Y-81777603D01*
X143516785Y-81777611D01*
X143675406Y-81989505D01*
X143675422Y-81989523D01*
X143862574Y-82176675D01*
X143862592Y-82176691D01*
X144074486Y-82335312D01*
X144074494Y-82335317D01*
X144306805Y-82462169D01*
X144306809Y-82462171D01*
X144306811Y-82462172D01*
X144554822Y-82554675D01*
X144554825Y-82554675D01*
X144554826Y-82554676D01*
X144583626Y-82560941D01*
X144813474Y-82610941D01*
X145057160Y-82628370D01*
X145077499Y-82629825D01*
X145077500Y-82629825D01*
X145077501Y-82629825D01*
X145096384Y-82628474D01*
X145341526Y-82610941D01*
X145600178Y-82554675D01*
X145848189Y-82462172D01*
X146080511Y-82335314D01*
X146292415Y-82176685D01*
X146479587Y-81989513D01*
X146638216Y-81777609D01*
X146765074Y-81545287D01*
X146857577Y-81297276D01*
X146913843Y-81038624D01*
X146932727Y-80774598D01*
X146913843Y-80510572D01*
X146872155Y-80318934D01*
X146857578Y-80251924D01*
X146838929Y-80201924D01*
X146765074Y-80003909D01*
X146762718Y-79999595D01*
X146638219Y-79771592D01*
X146638214Y-79771584D01*
X146479593Y-79559690D01*
X146479577Y-79559672D01*
X146378469Y-79458564D01*
X154179500Y-79458564D01*
X154194936Y-79635001D01*
X154194938Y-79635011D01*
X154256094Y-79863253D01*
X154256096Y-79863257D01*
X154256097Y-79863261D01*
X154298364Y-79953903D01*
X154355964Y-80077426D01*
X154355965Y-80077428D01*
X154491505Y-80271000D01*
X154595070Y-80374564D01*
X154658599Y-80438093D01*
X154755384Y-80505863D01*
X154852165Y-80573630D01*
X154852167Y-80573631D01*
X154852170Y-80573633D01*
X155066337Y-80673501D01*
X155066343Y-80673502D01*
X155066344Y-80673503D01*
X155121285Y-80688224D01*
X155294592Y-80734661D01*
X155482918Y-80751137D01*
X155529999Y-80755257D01*
X155530000Y-80755257D01*
X155530001Y-80755257D01*
X155569234Y-80751824D01*
X155765408Y-80734661D01*
X155993663Y-80673501D01*
X156207829Y-80573633D01*
X156401401Y-80438093D01*
X156568495Y-80270999D01*
X156704035Y-80077427D01*
X156720257Y-80042640D01*
X165006500Y-80042640D01*
X165006501Y-80957954D01*
X165006501Y-80957955D01*
X165009418Y-81000999D01*
X165009418Y-81001000D01*
X165011719Y-81010251D01*
X165051735Y-81171159D01*
X165055694Y-81187076D01*
X165140881Y-81358841D01*
X165140883Y-81358844D01*
X165261009Y-81508287D01*
X165261010Y-81508288D01*
X165410453Y-81628414D01*
X165410456Y-81628416D01*
X165461897Y-81653928D01*
X165582225Y-81713605D01*
X165732013Y-81750856D01*
X165768291Y-81759878D01*
X165768292Y-81759878D01*
X165768296Y-81759879D01*
X165807336Y-81762526D01*
X165811342Y-81762798D01*
X165811342Y-81762797D01*
X165811343Y-81762798D01*
X167488656Y-81762797D01*
X167488657Y-81762797D01*
X167499417Y-81762067D01*
X167531704Y-81759879D01*
X167717775Y-81713605D01*
X167889547Y-81628414D01*
X168038990Y-81508288D01*
X168159116Y-81358845D01*
X168244307Y-81187073D01*
X168290581Y-81001002D01*
X168293500Y-80957955D01*
X168293499Y-80042642D01*
X168290581Y-79999594D01*
X168244307Y-79813523D01*
X168244305Y-79813518D01*
X168158195Y-79639892D01*
X168146043Y-79571087D01*
X168173020Y-79506636D01*
X168230559Y-79467000D01*
X168269283Y-79460798D01*
X175990664Y-79460798D01*
X176057703Y-79480483D01*
X176078345Y-79497117D01*
X177170181Y-80588953D01*
X177203666Y-80650276D01*
X177206500Y-80676634D01*
X177206501Y-80957954D01*
X177209418Y-81000999D01*
X177209418Y-81001000D01*
X177211719Y-81010251D01*
X177251735Y-81171159D01*
X177255694Y-81187076D01*
X177340881Y-81358841D01*
X177340883Y-81358844D01*
X177461009Y-81508287D01*
X177461010Y-81508288D01*
X177610453Y-81628414D01*
X177610456Y-81628416D01*
X177661897Y-81653928D01*
X177782225Y-81713605D01*
X177932013Y-81750856D01*
X177968291Y-81759878D01*
X177968292Y-81759878D01*
X177968296Y-81759879D01*
X178007336Y-81762526D01*
X178011342Y-81762798D01*
X178011342Y-81762797D01*
X178011343Y-81762798D01*
X179688656Y-81762797D01*
X179688657Y-81762797D01*
X179699417Y-81762067D01*
X179731704Y-81759879D01*
X179917775Y-81713605D01*
X180089547Y-81628414D01*
X180238990Y-81508288D01*
X180359116Y-81358845D01*
X180444307Y-81187073D01*
X180490581Y-81001002D01*
X180493500Y-80957955D01*
X180493499Y-80042642D01*
X180490581Y-79999594D01*
X180444307Y-79813523D01*
X180423507Y-79771584D01*
X180359118Y-79641754D01*
X180359116Y-79641751D01*
X180238990Y-79492308D01*
X180238989Y-79492307D01*
X180089546Y-79372181D01*
X180089543Y-79372179D01*
X179917778Y-79286992D01*
X179917776Y-79286991D01*
X179917775Y-79286991D01*
X179879939Y-79277581D01*
X179731708Y-79240717D01*
X179688658Y-79237798D01*
X179688657Y-79237798D01*
X179407336Y-79237798D01*
X179340297Y-79218113D01*
X179319655Y-79201479D01*
X178073655Y-77955479D01*
X178040170Y-77894156D01*
X178045154Y-77824464D01*
X178087026Y-77768531D01*
X178152490Y-77744114D01*
X178161336Y-77743798D01*
X179583293Y-77743798D01*
X179590231Y-77744187D01*
X179628827Y-77748536D01*
X179628829Y-77748535D01*
X179628830Y-77748536D01*
X179646586Y-77747338D01*
X179697032Y-77743937D01*
X179701188Y-77743798D01*
X179713147Y-77743798D01*
X179713155Y-77743798D01*
X179755123Y-77740020D01*
X179853412Y-77733394D01*
X179857646Y-77732326D01*
X179876841Y-77729065D01*
X179881188Y-77728675D01*
X179976165Y-77702462D01*
X180071683Y-77678394D01*
X180075655Y-77676589D01*
X180093962Y-77669952D01*
X180098170Y-77668791D01*
X180186935Y-77626044D01*
X180276626Y-77585305D01*
X180280220Y-77582814D01*
X180297035Y-77573022D01*
X180300973Y-77571127D01*
X180380676Y-77513219D01*
X180461654Y-77457118D01*
X180464743Y-77454028D01*
X180479545Y-77441386D01*
X180483078Y-77438820D01*
X180551153Y-77367618D01*
X182673945Y-75244827D01*
X182782068Y-75115317D01*
X182893153Y-74919543D01*
X182967498Y-74707081D01*
X183002710Y-74484758D01*
X183000590Y-74390299D01*
X186694532Y-74390299D01*
X186714364Y-74616984D01*
X186714366Y-74616995D01*
X186773258Y-74836786D01*
X186773261Y-74836795D01*
X186869431Y-75043030D01*
X186869432Y-75043032D01*
X186999954Y-75229439D01*
X187160858Y-75390343D01*
X187160861Y-75390345D01*
X187347266Y-75520866D01*
X187553504Y-75617037D01*
X187773308Y-75675933D01*
X187935230Y-75690099D01*
X187999998Y-75695766D01*
X188000000Y-75695766D01*
X188000002Y-75695766D01*
X188056672Y-75690807D01*
X188226692Y-75675933D01*
X188446496Y-75617037D01*
X188652734Y-75520866D01*
X188839139Y-75390345D01*
X189000047Y-75229437D01*
X189130568Y-75043032D01*
X189226739Y-74836794D01*
X189285635Y-74616990D01*
X189305468Y-74390298D01*
X189285635Y-74163606D01*
X189226739Y-73943802D01*
X189130568Y-73737564D01*
X189000047Y-73551159D01*
X189000045Y-73551156D01*
X188839141Y-73390252D01*
X188652734Y-73259730D01*
X188652732Y-73259729D01*
X188446497Y-73163559D01*
X188446488Y-73163556D01*
X188226697Y-73104664D01*
X188226693Y-73104663D01*
X188226692Y-73104663D01*
X188226691Y-73104662D01*
X188226686Y-73104662D01*
X188000002Y-73084830D01*
X187999998Y-73084830D01*
X187773313Y-73104662D01*
X187773302Y-73104664D01*
X187553511Y-73163556D01*
X187553502Y-73163559D01*
X187347267Y-73259729D01*
X187347265Y-73259730D01*
X187160858Y-73390252D01*
X186999954Y-73551156D01*
X186869432Y-73737563D01*
X186869431Y-73737565D01*
X186773261Y-73943800D01*
X186773258Y-73943809D01*
X186714366Y-74163600D01*
X186714364Y-74163611D01*
X186694532Y-74390296D01*
X186694532Y-74390299D01*
X183000590Y-74390299D01*
X182997660Y-74259720D01*
X182952508Y-74039202D01*
X182868707Y-73830289D01*
X182748950Y-73639696D01*
X182748949Y-73639695D01*
X182748948Y-73639693D01*
X182597088Y-73473552D01*
X182597087Y-73473551D01*
X182597086Y-73473550D01*
X182417995Y-73337190D01*
X182417991Y-73337188D01*
X182417990Y-73337187D01*
X182217436Y-73234999D01*
X182001849Y-73170261D01*
X181778179Y-73145060D01*
X181778168Y-73145059D01*
X181553592Y-73160201D01*
X181553587Y-73160201D01*
X181335321Y-73215200D01*
X181335318Y-73215201D01*
X181130377Y-73308289D01*
X181130367Y-73308295D01*
X180945345Y-73436478D01*
X179175345Y-75206479D01*
X179114022Y-75239964D01*
X179087664Y-75242798D01*
X178716500Y-75242798D01*
X178649461Y-75223113D01*
X178603706Y-75170309D01*
X178592500Y-75118798D01*
X178592499Y-73561642D01*
X178592499Y-73561641D01*
X178589581Y-73518596D01*
X178589581Y-73518595D01*
X178589580Y-73518589D01*
X178543307Y-73332523D01*
X178493650Y-73232399D01*
X178458118Y-73160754D01*
X178458116Y-73160751D01*
X178337990Y-73011308D01*
X178337989Y-73011307D01*
X178188546Y-72891181D01*
X178188543Y-72891179D01*
X178016778Y-72805992D01*
X178016776Y-72805991D01*
X178016775Y-72805991D01*
X177977911Y-72796326D01*
X177830708Y-72759717D01*
X177787658Y-72756798D01*
X177787657Y-72756798D01*
X176872344Y-72756799D01*
X176872343Y-72756799D01*
X176829298Y-72759716D01*
X176829297Y-72759716D01*
X176643221Y-72805992D01*
X176471456Y-72891179D01*
X176471453Y-72891181D01*
X176322010Y-73011307D01*
X176322009Y-73011308D01*
X176201883Y-73160751D01*
X176201881Y-73160754D01*
X176116694Y-73332519D01*
X176070419Y-73518589D01*
X176069362Y-73534188D01*
X176045186Y-73599742D01*
X175989407Y-73641819D01*
X175945646Y-73649798D01*
X175289337Y-73649798D01*
X175222298Y-73630113D01*
X175216452Y-73626116D01*
X175202734Y-73616149D01*
X175202729Y-73616146D01*
X175029807Y-73539155D01*
X175029802Y-73539153D01*
X174884001Y-73508163D01*
X174844646Y-73499798D01*
X174655354Y-73499798D01*
X174622897Y-73506696D01*
X174470197Y-73539153D01*
X174470192Y-73539155D01*
X174297270Y-73616146D01*
X174297265Y-73616149D01*
X174209384Y-73679999D01*
X174143578Y-73703479D01*
X174075524Y-73687653D01*
X174026829Y-73637547D01*
X174012499Y-73579681D01*
X174012499Y-73561641D01*
X174009581Y-73518596D01*
X174009581Y-73518595D01*
X174009580Y-73518589D01*
X173963307Y-73332523D01*
X173913650Y-73232399D01*
X173878118Y-73160754D01*
X173878116Y-73160751D01*
X173757990Y-73011308D01*
X173757989Y-73011307D01*
X173608546Y-72891181D01*
X173608543Y-72891179D01*
X173436778Y-72805992D01*
X173436776Y-72805991D01*
X173436775Y-72805991D01*
X173397911Y-72796326D01*
X173250708Y-72759717D01*
X173207658Y-72756798D01*
X173207657Y-72756798D01*
X172292344Y-72756799D01*
X172292343Y-72756799D01*
X172249298Y-72759716D01*
X172249297Y-72759716D01*
X172063221Y-72805992D01*
X171891456Y-72891179D01*
X171891453Y-72891181D01*
X171742012Y-73011306D01*
X171742010Y-73011308D01*
X171682911Y-73084830D01*
X171667915Y-73103486D01*
X171610571Y-73143404D01*
X171571268Y-73149798D01*
X169348732Y-73149798D01*
X169281693Y-73130113D01*
X169252085Y-73103486D01*
X169237089Y-73084830D01*
X169177990Y-73011308D01*
X169028547Y-72891182D01*
X169028546Y-72891181D01*
X169028543Y-72891179D01*
X168856778Y-72805992D01*
X168856776Y-72805991D01*
X168856775Y-72805991D01*
X168817911Y-72796326D01*
X168670708Y-72759717D01*
X168627658Y-72756798D01*
X168627657Y-72756798D01*
X167712344Y-72756799D01*
X167712343Y-72756799D01*
X167669298Y-72759716D01*
X167669297Y-72759716D01*
X167483221Y-72805992D01*
X167311456Y-72891179D01*
X167311453Y-72891181D01*
X167162010Y-73011307D01*
X167162009Y-73011308D01*
X167041883Y-73160751D01*
X167041881Y-73160754D01*
X166956694Y-73332519D01*
X166910419Y-73518589D01*
X166907500Y-73561640D01*
X166907501Y-75238954D01*
X166907501Y-75238955D01*
X166910418Y-75281999D01*
X166910418Y-75282000D01*
X166956694Y-75468076D01*
X167041881Y-75639841D01*
X167041883Y-75639844D01*
X167162009Y-75789287D01*
X167162010Y-75789288D01*
X167311453Y-75909414D01*
X167311456Y-75909416D01*
X167477959Y-75991993D01*
X167483225Y-75994605D01*
X167633013Y-76031856D01*
X167669291Y-76040878D01*
X167669292Y-76040878D01*
X167669296Y-76040879D01*
X167708336Y-76043526D01*
X167712342Y-76043798D01*
X167712342Y-76043797D01*
X167712343Y-76043798D01*
X168627656Y-76043797D01*
X168627657Y-76043797D01*
X168638417Y-76043067D01*
X168670704Y-76040879D01*
X168856775Y-75994605D01*
X169028547Y-75909414D01*
X169177990Y-75789288D01*
X169252085Y-75697109D01*
X169309429Y-75657192D01*
X169348732Y-75650798D01*
X170637453Y-75650798D01*
X171571268Y-75650798D01*
X171638307Y-75670483D01*
X171667914Y-75697109D01*
X171742010Y-75789288D01*
X171891453Y-75909414D01*
X171891456Y-75909416D01*
X172057959Y-75991993D01*
X172063225Y-75994605D01*
X172213013Y-76031856D01*
X172249291Y-76040878D01*
X172249292Y-76040878D01*
X172249296Y-76040879D01*
X172292343Y-76043798D01*
X172573663Y-76043797D01*
X172640702Y-76063481D01*
X172661344Y-76080116D01*
X173329345Y-76748117D01*
X173362830Y-76809440D01*
X173357846Y-76879132D01*
X173315974Y-76935065D01*
X173250510Y-76959482D01*
X173241664Y-76959798D01*
X167583408Y-76959798D01*
X167553481Y-76956132D01*
X167531712Y-76950718D01*
X167531706Y-76950717D01*
X167531704Y-76950717D01*
X167494215Y-76948174D01*
X167488658Y-76947798D01*
X167488657Y-76947798D01*
X165811344Y-76947799D01*
X165811343Y-76947799D01*
X165768298Y-76950716D01*
X165768297Y-76950716D01*
X165582221Y-76996992D01*
X165410456Y-77082179D01*
X165410453Y-77082181D01*
X165261010Y-77202307D01*
X165261009Y-77202308D01*
X165140883Y-77351751D01*
X165140881Y-77351754D01*
X165055694Y-77523519D01*
X165009419Y-77709589D01*
X165006500Y-77752640D01*
X165006501Y-78667954D01*
X165006501Y-78667955D01*
X165009418Y-78710999D01*
X165009418Y-78711000D01*
X165040161Y-78834621D01*
X165053500Y-78888256D01*
X165055694Y-78897076D01*
X165140881Y-79068841D01*
X165140883Y-79068844D01*
X165261007Y-79218285D01*
X165261008Y-79218286D01*
X165261010Y-79218288D01*
X165311224Y-79258651D01*
X165351142Y-79315993D01*
X165353722Y-79385815D01*
X165318144Y-79445947D01*
X165311225Y-79451943D01*
X165261008Y-79492309D01*
X165140883Y-79641751D01*
X165140881Y-79641754D01*
X165055694Y-79813519D01*
X165009419Y-79999589D01*
X165006500Y-80042640D01*
X156720257Y-80042640D01*
X156803903Y-79863261D01*
X156865063Y-79635006D01*
X156880500Y-79458564D01*
X156880500Y-79040632D01*
X156865063Y-78864190D01*
X156803903Y-78635935D01*
X156704035Y-78421769D01*
X156685236Y-78394920D01*
X156568494Y-78228195D01*
X156401402Y-78061104D01*
X156401395Y-78061099D01*
X156207834Y-77925565D01*
X156207830Y-77925563D01*
X156191013Y-77917721D01*
X155993663Y-77825695D01*
X155993659Y-77825694D01*
X155993655Y-77825692D01*
X155765413Y-77764536D01*
X155765403Y-77764534D01*
X155530001Y-77743939D01*
X155529999Y-77743939D01*
X155294596Y-77764534D01*
X155294586Y-77764536D01*
X155066344Y-77825692D01*
X155066335Y-77825696D01*
X154852171Y-77925562D01*
X154852169Y-77925563D01*
X154658597Y-78061103D01*
X154491505Y-78228195D01*
X154355965Y-78421767D01*
X154355964Y-78421769D01*
X154256098Y-78635933D01*
X154256094Y-78635942D01*
X154194938Y-78864184D01*
X154194936Y-78864194D01*
X154179500Y-79040632D01*
X154179500Y-79458564D01*
X146378469Y-79458564D01*
X146292425Y-79372520D01*
X146292407Y-79372504D01*
X146080513Y-79213883D01*
X146080505Y-79213878D01*
X145848194Y-79087026D01*
X145848190Y-79087024D01*
X145600173Y-78994519D01*
X145341534Y-78938256D01*
X145341527Y-78938255D01*
X145077501Y-78919371D01*
X145077499Y-78919371D01*
X144813472Y-78938255D01*
X144813465Y-78938256D01*
X144554826Y-78994519D01*
X144306809Y-79087024D01*
X144306805Y-79087026D01*
X144074494Y-79213878D01*
X144074486Y-79213883D01*
X143862592Y-79372504D01*
X143862574Y-79372520D01*
X143675422Y-79559672D01*
X143675406Y-79559690D01*
X143516785Y-79771584D01*
X143516780Y-79771592D01*
X143389928Y-80003903D01*
X143389926Y-80003907D01*
X143297421Y-80251924D01*
X143241158Y-80510563D01*
X143241157Y-80510570D01*
X143222273Y-80774596D01*
X143222273Y-80774599D01*
X140280000Y-80774599D01*
X140280000Y-78537082D01*
X140280096Y-78533629D01*
X140283016Y-78481607D01*
X140285112Y-78449596D01*
X140298931Y-78238467D01*
X140299664Y-78232218D01*
X140319686Y-78114361D01*
X140354837Y-77937648D01*
X140356050Y-77932659D01*
X140391860Y-77808355D01*
X140392705Y-77805660D01*
X140447291Y-77644859D01*
X140448692Y-77641135D01*
X140499051Y-77519555D01*
X140500683Y-77515954D01*
X140575973Y-77363287D01*
X140577255Y-77360835D01*
X140639561Y-77248096D01*
X140642253Y-77243678D01*
X140743117Y-77092730D01*
X140811395Y-76996498D01*
X140815335Y-76991509D01*
X140978599Y-76805356D01*
X141010524Y-76769631D01*
X141012893Y-76767127D01*
X141031903Y-76748117D01*
X144546410Y-73233608D01*
X144548877Y-73231275D01*
X144587253Y-73196981D01*
X144771229Y-73035662D01*
X144776198Y-73031736D01*
X144872211Y-72963613D01*
X145023537Y-72862501D01*
X145027938Y-72859821D01*
X145140202Y-72797776D01*
X145142721Y-72796460D01*
X145295917Y-72720910D01*
X145299536Y-72719270D01*
X145420576Y-72669135D01*
X145424240Y-72667756D01*
X145585817Y-72612906D01*
X145588430Y-72612086D01*
X145712121Y-72576453D01*
X145717148Y-72575231D01*
X145894642Y-72539921D01*
X146011780Y-72520021D01*
X146018065Y-72519283D01*
X146259653Y-72503442D01*
X146313576Y-72500414D01*
X146317198Y-72500319D01*
X153030688Y-72524957D01*
X153032026Y-72525356D01*
X153036015Y-72525109D01*
X153040056Y-72524992D01*
X153043820Y-72525006D01*
X153045140Y-72525011D01*
X153045140Y-72525012D01*
X153045640Y-72525014D01*
X153045640Y-72525013D01*
X153045735Y-72525013D01*
X153045739Y-72525014D01*
X153045739Y-72525013D01*
X153045744Y-72525014D01*
X153057561Y-72525132D01*
X153058267Y-72525064D01*
X153096857Y-72525218D01*
X153097135Y-72525187D01*
X153193384Y-72525540D01*
X153196888Y-72525553D01*
X153196888Y-72525552D01*
X153196891Y-72525553D01*
X153381634Y-72503807D01*
X153385050Y-72503501D01*
X153460440Y-72498833D01*
X153479323Y-72492309D01*
X153497320Y-72490191D01*
X153713472Y-72437754D01*
X153716165Y-72437165D01*
X153775188Y-72425650D01*
X153786760Y-72419975D01*
X153791296Y-72418875D01*
X154047172Y-72322905D01*
X154071418Y-72314774D01*
X154071209Y-72314373D01*
X154125706Y-72286025D01*
X154342900Y-72173047D01*
X154342907Y-72173042D01*
X154346115Y-72171120D01*
X154346156Y-72171189D01*
X154347290Y-72170528D01*
X154349090Y-72168807D01*
X154592484Y-72002121D01*
X154607515Y-71988902D01*
X154608204Y-71988374D01*
X154608430Y-71988097D01*
X154819646Y-71802357D01*
X155006930Y-71592514D01*
X155007136Y-71592385D01*
X155007755Y-71591590D01*
X155021069Y-71576672D01*
X155021073Y-71576668D01*
X155189545Y-71334501D01*
X155190833Y-71333465D01*
X155191942Y-71331593D01*
X155191874Y-71331552D01*
X155193823Y-71328354D01*
X155193824Y-71328350D01*
X155193828Y-71328346D01*
X155335392Y-71061012D01*
X155335392Y-71061009D01*
X155337145Y-71057701D01*
X155337545Y-71057913D01*
X155345852Y-71033732D01*
X155441686Y-70783815D01*
X184024223Y-70783815D01*
X184043293Y-71001788D01*
X184043293Y-71001792D01*
X184099922Y-71213135D01*
X184099924Y-71213139D01*
X184099925Y-71213143D01*
X184137725Y-71294206D01*
X184192397Y-71411451D01*
X184192398Y-71411452D01*
X184317902Y-71590690D01*
X184472623Y-71745411D01*
X184651861Y-71870915D01*
X184850170Y-71963388D01*
X185061523Y-72020020D01*
X185244426Y-72036021D01*
X185279498Y-72039090D01*
X185279500Y-72039090D01*
X185279502Y-72039090D01*
X185307754Y-72036618D01*
X185497477Y-72020020D01*
X185708830Y-71963388D01*
X185907139Y-71870915D01*
X186086377Y-71745411D01*
X186241098Y-71590690D01*
X186366602Y-71411452D01*
X186459075Y-71213143D01*
X186515707Y-71001790D01*
X186534777Y-70783813D01*
X186515707Y-70565836D01*
X186459075Y-70354483D01*
X186366602Y-70156175D01*
X186366600Y-70156172D01*
X186366599Y-70156170D01*
X186241099Y-69976937D01*
X186209784Y-69945622D01*
X186086377Y-69822215D01*
X185907139Y-69696711D01*
X185907140Y-69696711D01*
X185907138Y-69696710D01*
X185807984Y-69650474D01*
X185708830Y-69604238D01*
X185708826Y-69604237D01*
X185708822Y-69604235D01*
X185497477Y-69547606D01*
X185279502Y-69528536D01*
X185279498Y-69528536D01*
X185134181Y-69541249D01*
X185061523Y-69547606D01*
X185061520Y-69547606D01*
X184850177Y-69604235D01*
X184850168Y-69604239D01*
X184651861Y-69696711D01*
X184651857Y-69696713D01*
X184472621Y-69822215D01*
X184317902Y-69976934D01*
X184192400Y-70156170D01*
X184192398Y-70156174D01*
X184099926Y-70354481D01*
X184099922Y-70354490D01*
X184043293Y-70565833D01*
X184043293Y-70565837D01*
X184024223Y-70783810D01*
X184024223Y-70783815D01*
X155441686Y-70783815D01*
X155443700Y-70778563D01*
X155444832Y-70774040D01*
X155450060Y-70765134D01*
X155462541Y-70703574D01*
X155463162Y-70700834D01*
X155517174Y-70485119D01*
X155519423Y-70467143D01*
X155525802Y-70452470D01*
X155531310Y-70372941D01*
X155531642Y-70369523D01*
X155535586Y-70338009D01*
X155554742Y-70184957D01*
X155555230Y-70052051D01*
X155555233Y-70052041D01*
X155555299Y-70033807D01*
X155555300Y-70033806D01*
X155555321Y-70028075D01*
X155555468Y-70024044D01*
X155555800Y-70019245D01*
X155555362Y-70016824D01*
X155555434Y-69997167D01*
X155568363Y-66474159D01*
X160875202Y-66474159D01*
X160885319Y-66712341D01*
X160885319Y-66712345D01*
X160935545Y-66945393D01*
X161024435Y-67166601D01*
X161024436Y-67166603D01*
X161149431Y-67369608D01*
X161306936Y-67548568D01*
X161492420Y-67698336D01*
X161700546Y-67814603D01*
X161826451Y-67859088D01*
X161925329Y-67894024D01*
X162160290Y-67934312D01*
X162160298Y-67934312D01*
X162160300Y-67934313D01*
X162160301Y-67934313D01*
X162339002Y-67934313D01*
X162517036Y-67919160D01*
X162517039Y-67919159D01*
X162517041Y-67919159D01*
X162747749Y-67859088D01*
X162880473Y-67799092D01*
X162964980Y-67760893D01*
X162964981Y-67760891D01*
X162964986Y-67760890D01*
X163162503Y-67627392D01*
X163334618Y-67462434D01*
X163476379Y-67270760D01*
X163583707Y-67057887D01*
X163653516Y-66829936D01*
X163683798Y-66593467D01*
X163678730Y-66474159D01*
X186875202Y-66474159D01*
X186885319Y-66712341D01*
X186885319Y-66712345D01*
X186935545Y-66945393D01*
X187024435Y-67166601D01*
X187024436Y-67166603D01*
X187149431Y-67369608D01*
X187306936Y-67548568D01*
X187492420Y-67698336D01*
X187700546Y-67814603D01*
X187826451Y-67859088D01*
X187925329Y-67894024D01*
X188160290Y-67934312D01*
X188160298Y-67934312D01*
X188160300Y-67934313D01*
X188160301Y-67934313D01*
X188339002Y-67934313D01*
X188517036Y-67919160D01*
X188517039Y-67919159D01*
X188517041Y-67919159D01*
X188747749Y-67859088D01*
X188880473Y-67799092D01*
X188964980Y-67760893D01*
X188964981Y-67760891D01*
X188964986Y-67760890D01*
X189162503Y-67627392D01*
X189334618Y-67462434D01*
X189476379Y-67270760D01*
X189583707Y-67057887D01*
X189653516Y-66829936D01*
X189683798Y-66593467D01*
X189673680Y-66355281D01*
X189623454Y-66122232D01*
X189534564Y-65901023D01*
X189409569Y-65698018D01*
X189252064Y-65519058D01*
X189066580Y-65369290D01*
X188952630Y-65305633D01*
X188858455Y-65253023D01*
X188633670Y-65173601D01*
X188398709Y-65133313D01*
X188398700Y-65133313D01*
X188220003Y-65133313D01*
X188219998Y-65133313D01*
X188041963Y-65148465D01*
X187811251Y-65208537D01*
X187594019Y-65306732D01*
X187594011Y-65306737D01*
X187396506Y-65440226D01*
X187396497Y-65440234D01*
X187224381Y-65605192D01*
X187082623Y-65796863D01*
X187082620Y-65796867D01*
X186975296Y-66009733D01*
X186975293Y-66009739D01*
X186905483Y-66237691D01*
X186875202Y-66474159D01*
X163678730Y-66474159D01*
X163673680Y-66355281D01*
X163623454Y-66122232D01*
X163534564Y-65901023D01*
X163409569Y-65698018D01*
X163252064Y-65519058D01*
X163066580Y-65369290D01*
X162952630Y-65305633D01*
X162858455Y-65253023D01*
X162633670Y-65173601D01*
X162398709Y-65133313D01*
X162398700Y-65133313D01*
X162220003Y-65133313D01*
X162219998Y-65133313D01*
X162041963Y-65148465D01*
X161811251Y-65208537D01*
X161594019Y-65306732D01*
X161594011Y-65306737D01*
X161396506Y-65440226D01*
X161396497Y-65440234D01*
X161224381Y-65605192D01*
X161082623Y-65796863D01*
X161082620Y-65796867D01*
X160975296Y-66009733D01*
X160975293Y-66009739D01*
X160905483Y-66237691D01*
X160875202Y-66474159D01*
X155568363Y-66474159D01*
X155588204Y-61067763D01*
X157225287Y-61067763D01*
X157254913Y-61337013D01*
X157254915Y-61337024D01*
X157323426Y-61599082D01*
X157323428Y-61599088D01*
X157429370Y-61848390D01*
X157501498Y-61966575D01*
X157570479Y-62079605D01*
X157570486Y-62079615D01*
X157743753Y-62287819D01*
X157743759Y-62287824D01*
X157945498Y-62468582D01*
X158171410Y-62618044D01*
X158416676Y-62733020D01*
X158416683Y-62733022D01*
X158416685Y-62733023D01*
X158676057Y-62811057D01*
X158676064Y-62811058D01*
X158676069Y-62811060D01*
X158944061Y-62850500D01*
X158944066Y-62850500D01*
X159147136Y-62850500D01*
X159198633Y-62846730D01*
X159349656Y-62835677D01*
X159462258Y-62810593D01*
X159614046Y-62776782D01*
X159614048Y-62776781D01*
X159614053Y-62776780D01*
X159867058Y-62680014D01*
X160103277Y-62547441D01*
X160317677Y-62381888D01*
X160505686Y-62186881D01*
X160663299Y-61966579D01*
X160737287Y-61822669D01*
X160787149Y-61725690D01*
X160787151Y-61725684D01*
X160787156Y-61725675D01*
X160874618Y-61469305D01*
X160923819Y-61202933D01*
X160928759Y-61067763D01*
X189625287Y-61067763D01*
X189654913Y-61337013D01*
X189654915Y-61337024D01*
X189723426Y-61599082D01*
X189723428Y-61599088D01*
X189829370Y-61848390D01*
X189901498Y-61966575D01*
X189970479Y-62079605D01*
X189970486Y-62079615D01*
X190143753Y-62287819D01*
X190143759Y-62287824D01*
X190345498Y-62468582D01*
X190571410Y-62618044D01*
X190816676Y-62733020D01*
X190816683Y-62733022D01*
X190816685Y-62733023D01*
X191076057Y-62811057D01*
X191076064Y-62811058D01*
X191076069Y-62811060D01*
X191344061Y-62850500D01*
X191344066Y-62850500D01*
X191547136Y-62850500D01*
X191598633Y-62846730D01*
X191749656Y-62835677D01*
X191862258Y-62810593D01*
X192014046Y-62776782D01*
X192014048Y-62776781D01*
X192014053Y-62776780D01*
X192267058Y-62680014D01*
X192503277Y-62547441D01*
X192717677Y-62381888D01*
X192905686Y-62186881D01*
X193063299Y-61966579D01*
X193137287Y-61822669D01*
X193187149Y-61725690D01*
X193187151Y-61725684D01*
X193187156Y-61725675D01*
X193274618Y-61469305D01*
X193323819Y-61202933D01*
X193333712Y-60932235D01*
X193304086Y-60662982D01*
X193235572Y-60400912D01*
X193129630Y-60151610D01*
X192988518Y-59920390D01*
X192987345Y-59918981D01*
X192815246Y-59712180D01*
X192815240Y-59712175D01*
X192613502Y-59531418D01*
X192387592Y-59381957D01*
X192325279Y-59352746D01*
X192142324Y-59266980D01*
X192142319Y-59266978D01*
X192142314Y-59266976D01*
X191882942Y-59188942D01*
X191882928Y-59188939D01*
X191767291Y-59171921D01*
X191614939Y-59149500D01*
X191411869Y-59149500D01*
X191411864Y-59149500D01*
X191209344Y-59164323D01*
X191209331Y-59164325D01*
X190944953Y-59223217D01*
X190944946Y-59223220D01*
X190691939Y-59319987D01*
X190455726Y-59452557D01*
X190241322Y-59618112D01*
X190053322Y-59813109D01*
X190053316Y-59813116D01*
X189895702Y-60033419D01*
X189895699Y-60033424D01*
X189771850Y-60274309D01*
X189771843Y-60274327D01*
X189684384Y-60530685D01*
X189684381Y-60530699D01*
X189635181Y-60797068D01*
X189635180Y-60797075D01*
X189625287Y-61067763D01*
X160928759Y-61067763D01*
X160933712Y-60932235D01*
X160904086Y-60662982D01*
X160835572Y-60400912D01*
X160729630Y-60151610D01*
X160588518Y-59920390D01*
X160587345Y-59918981D01*
X160415246Y-59712180D01*
X160415240Y-59712175D01*
X160213502Y-59531418D01*
X159987592Y-59381957D01*
X159925279Y-59352746D01*
X159742324Y-59266980D01*
X159742319Y-59266978D01*
X159742314Y-59266976D01*
X159482942Y-59188942D01*
X159482928Y-59188939D01*
X159367291Y-59171921D01*
X159214939Y-59149500D01*
X159011869Y-59149500D01*
X159011864Y-59149500D01*
X158809344Y-59164323D01*
X158809331Y-59164325D01*
X158544953Y-59223217D01*
X158544946Y-59223220D01*
X158291939Y-59319987D01*
X158055726Y-59452557D01*
X157841322Y-59618112D01*
X157653322Y-59813109D01*
X157653316Y-59813116D01*
X157495702Y-60033419D01*
X157495699Y-60033424D01*
X157371850Y-60274309D01*
X157371843Y-60274327D01*
X157284384Y-60530685D01*
X157284381Y-60530699D01*
X157235181Y-60797068D01*
X157235180Y-60797075D01*
X157225287Y-61067763D01*
X155588204Y-61067763D01*
X155588480Y-60992576D01*
X155588563Y-60989636D01*
X155596585Y-60837344D01*
X155606338Y-60662975D01*
X155607314Y-60645508D01*
X155607916Y-60639699D01*
X155633676Y-60469904D01*
X155661884Y-60295507D01*
X155662978Y-60290235D01*
X155705964Y-60120829D01*
X155751506Y-59952901D01*
X155753016Y-59948116D01*
X155812826Y-59782440D01*
X155875275Y-59621096D01*
X155877083Y-59616899D01*
X155953173Y-59457095D01*
X156031907Y-59303534D01*
X156033947Y-59299871D01*
X156125566Y-59147831D01*
X156219802Y-59003442D01*
X156221966Y-59000341D01*
X156328253Y-58857664D01*
X156437063Y-58723850D01*
X156439250Y-58721309D01*
X156558194Y-58590573D01*
X156560196Y-58588478D01*
X156681458Y-58467646D01*
X156683598Y-58465616D01*
X156814716Y-58347172D01*
X156817290Y-58344975D01*
X156951481Y-58236647D01*
X157094561Y-58130847D01*
X157097594Y-58128746D01*
X157242361Y-58034994D01*
X157394717Y-57943921D01*
X157398416Y-57941879D01*
X157552237Y-57863700D01*
X157712279Y-57788192D01*
X157716516Y-57786384D01*
X157878067Y-57724512D01*
X158043974Y-57665284D01*
X158048742Y-57663799D01*
X158216853Y-57618847D01*
X158386397Y-57576466D01*
X158391667Y-57575392D01*
X158547574Y-57550742D01*
X158566247Y-57547791D01*
X158594269Y-57543641D01*
X158736053Y-57522645D01*
X158741841Y-57522066D01*
X158932449Y-57512079D01*
X159066450Y-57505498D01*
X159086154Y-57504531D01*
X159089196Y-57504456D01*
X159139332Y-57504456D01*
X159139383Y-57504448D01*
X191477988Y-57500500D01*
X191481017Y-57500574D01*
G37*
%TD.AperFunction*%
%TD*%
M02*
