M48
; DRILL file {KiCad 7.0.6} date Sun Feb 11 15:29:09 2024
; FORMAT={-:-/ absolute / inch / decimal}
; #@! TF.CreationDate,2024-02-11T15:29:09+09:00
; #@! TF.GenerationSoftware,Kicad,Pcbnew,7.0.6
; #@! TF.FileFunction,Plated,1,2,PTH
FMAT,2
INCH
; #@! TA.AperFunction,Plated,PTH,ViaDrill
T1C0.0157
; #@! TA.AperFunction,Plated,PTH,ComponentDrill
T2C0.0276
; #@! TA.AperFunction,Plated,PTH,ComponentDrill
T3C0.0315
; #@! TA.AperFunction,Plated,PTH,ComponentDrill
T4C0.0394
; #@! TA.AperFunction,Plated,PTH,ComponentDrill
T5C0.0669
; #@! TA.AperFunction,Plated,PTH,ViaDrill
T6C0.0689
; #@! TA.AperFunction,Plated,PTH,ComponentDrill
T7C0.0709
%
G90
G05
T1
X6.6791Y-3.2595
X6.7224Y-2.9291
X6.8799Y-2.9291
X6.9512Y-3.0791
X6.9512Y-3.4095
X7.1555Y-2.9291
T2
X7.2256Y-2.7868
X7.2945Y-2.7868
T3
X6.0213Y-3.3071
X6.0213Y-3.4351
X6.3213Y-3.3071
X6.3213Y-3.4351
X6.6512Y-3.5807
X6.6512Y-3.7087
X6.9512Y-3.5807
X6.9512Y-3.7087
X7.2539Y-3.0994
X7.2539Y-3.1978
X7.2539Y-3.2962
X7.4016Y-2.9288
X7.4016Y-3.2288
T4
X6.1232Y-3.1201
X6.2217Y-3.1201
X7.2586Y-3.6604
X7.4555Y-3.6604
X7.5984Y-3.1201
X7.6969Y-3.1201
T5
X5.7117Y-3.1801
X5.8676Y-3.1801
X7.7962Y-3.6486
X7.9361Y-3.1781
X7.9521Y-3.6486
X8.092Y-3.1781
T6
X5.8169Y-3.4537
T7
X6.7925Y-3.9852
X7.0484Y-4.1033
X7.7374Y-3.9852
X7.9933Y-4.1033
T0
M30
