%TF.GenerationSoftware,KiCad,Pcbnew,8.0.1*%
%TF.CreationDate,2024-05-26T22:46:05+09:00*%
%TF.ProjectId,Main-20240325,4d61696e-2d32-4303-9234-303332352e6b,rev?*%
%TF.SameCoordinates,Original*%
%TF.FileFunction,Copper,L1,Top*%
%TF.FilePolarity,Positive*%
%FSLAX46Y46*%
G04 Gerber Fmt 4.6, Leading zero omitted, Abs format (unit mm)*
G04 Created by KiCad (PCBNEW 8.0.1) date 2024-05-26 22:46:05*
%MOMM*%
%LPD*%
G01*
G04 APERTURE LIST*
G04 Aperture macros list*
%AMRoundRect*
0 Rectangle with rounded corners*
0 $1 Rounding radius*
0 $2 $3 $4 $5 $6 $7 $8 $9 X,Y pos of 4 corners*
0 Add a 4 corners polygon primitive as box body*
4,1,4,$2,$3,$4,$5,$6,$7,$8,$9,$2,$3,0*
0 Add four circle primitives for the rounded corners*
1,1,$1+$1,$2,$3*
1,1,$1+$1,$4,$5*
1,1,$1+$1,$6,$7*
1,1,$1+$1,$8,$9*
0 Add four rect primitives between the rounded corners*
20,1,$1+$1,$2,$3,$4,$5,0*
20,1,$1+$1,$4,$5,$6,$7,0*
20,1,$1+$1,$6,$7,$8,$9,0*
20,1,$1+$1,$8,$9,$2,$3,0*%
%AMRotRect*
0 Rectangle, with rotation*
0 The origin of the aperture is its center*
0 $1 length*
0 $2 width*
0 $3 Rotation angle, in degrees counterclockwise*
0 Add horizontal line*
21,1,$1,$2,0,0,$3*%
G04 Aperture macros list end*
%TA.AperFunction,SMDPad,CuDef*%
%ADD10RoundRect,0.225000X-0.144866X0.303544X-0.317074X-0.112202X0.144866X-0.303544X0.317074X0.112202X0*%
%TD*%
%TA.AperFunction,SMDPad,CuDef*%
%ADD11RoundRect,0.225000X0.317074X-0.112202X0.144866X0.303544X-0.317074X0.112202X-0.144866X-0.303544X0*%
%TD*%
%TA.AperFunction,ComponentPad*%
%ADD12RoundRect,0.250000X0.600000X0.600000X-0.600000X0.600000X-0.600000X-0.600000X0.600000X-0.600000X0*%
%TD*%
%TA.AperFunction,ComponentPad*%
%ADD13C,1.700000*%
%TD*%
%TA.AperFunction,SMDPad,CuDef*%
%ADD14RotRect,1.500000X0.900000X67.500000*%
%TD*%
%TA.AperFunction,SMDPad,CuDef*%
%ADD15RoundRect,0.225000X-0.225000X-0.250000X0.225000X-0.250000X0.225000X0.250000X-0.225000X0.250000X0*%
%TD*%
%TA.AperFunction,SMDPad,CuDef*%
%ADD16RoundRect,0.225000X0.225000X0.250000X-0.225000X0.250000X-0.225000X-0.250000X0.225000X-0.250000X0*%
%TD*%
%TA.AperFunction,SMDPad,CuDef*%
%ADD17R,0.900000X1.500000*%
%TD*%
%TA.AperFunction,SMDPad,CuDef*%
%ADD18RotRect,1.500000X0.900000X247.500000*%
%TD*%
%TA.AperFunction,SMDPad,CuDef*%
%ADD19RotRect,1.500000X0.900000X292.500000*%
%TD*%
%TA.AperFunction,SMDPad,CuDef*%
%ADD20RoundRect,0.225000X0.144866X-0.303544X0.317074X0.112202X-0.144866X0.303544X-0.317074X-0.112202X0*%
%TD*%
%TA.AperFunction,SMDPad,CuDef*%
%ADD21RotRect,1.500000X0.900000X112.500000*%
%TD*%
%TA.AperFunction,SMDPad,CuDef*%
%ADD22R,1.500000X0.900000*%
%TD*%
%TA.AperFunction,SMDPad,CuDef*%
%ADD23RoundRect,0.225000X-0.317074X0.112202X-0.144866X-0.303544X0.317074X-0.112202X0.144866X0.303544X0*%
%TD*%
%TA.AperFunction,SMDPad,CuDef*%
%ADD24RoundRect,0.225000X-0.335876X-0.017678X-0.017678X-0.335876X0.335876X0.017678X0.017678X0.335876X0*%
%TD*%
%TA.AperFunction,SMDPad,CuDef*%
%ADD25RotRect,1.500000X0.900000X202.500000*%
%TD*%
%TA.AperFunction,SMDPad,CuDef*%
%ADD26RoundRect,0.225000X-0.017678X0.335876X-0.335876X0.017678X0.017678X-0.335876X0.335876X-0.017678X0*%
%TD*%
%TA.AperFunction,SMDPad,CuDef*%
%ADD27RoundRect,0.225000X0.017678X-0.335876X0.335876X-0.017678X-0.017678X0.335876X-0.335876X0.017678X0*%
%TD*%
%TA.AperFunction,SMDPad,CuDef*%
%ADD28RoundRect,0.225000X0.250000X-0.225000X0.250000X0.225000X-0.250000X0.225000X-0.250000X-0.225000X0*%
%TD*%
%TA.AperFunction,SMDPad,CuDef*%
%ADD29RoundRect,0.225000X-0.112202X-0.317074X0.303544X-0.144866X0.112202X0.317074X-0.303544X0.144866X0*%
%TD*%
%TA.AperFunction,SMDPad,CuDef*%
%ADD30RotRect,1.500000X0.900000X337.500000*%
%TD*%
%TA.AperFunction,SMDPad,CuDef*%
%ADD31RoundRect,0.225000X0.112202X0.317074X-0.303544X0.144866X-0.112202X-0.317074X0.303544X-0.144866X0*%
%TD*%
%TA.AperFunction,ComponentPad*%
%ADD32C,1.308000*%
%TD*%
%TA.AperFunction,ComponentPad*%
%ADD33C,1.258000*%
%TD*%
%TA.AperFunction,ComponentPad*%
%ADD34C,1.208000*%
%TD*%
%TA.AperFunction,SMDPad,CuDef*%
%ADD35RotRect,1.500000X0.900000X45.000000*%
%TD*%
%TA.AperFunction,SMDPad,CuDef*%
%ADD36RoundRect,0.225000X0.335876X0.017678X0.017678X0.335876X-0.335876X-0.017678X-0.017678X-0.335876X0*%
%TD*%
%TA.AperFunction,SMDPad,CuDef*%
%ADD37RoundRect,0.225000X-0.250000X0.225000X-0.250000X-0.225000X0.250000X-0.225000X0.250000X0.225000X0*%
%TD*%
%TA.AperFunction,SMDPad,CuDef*%
%ADD38RotRect,1.500000X0.900000X225.000000*%
%TD*%
%TA.AperFunction,ComponentPad*%
%ADD39R,1.600000X1.600000*%
%TD*%
%TA.AperFunction,ComponentPad*%
%ADD40O,1.600000X1.600000*%
%TD*%
%TA.AperFunction,SMDPad,CuDef*%
%ADD41RotRect,1.500000X0.900000X157.500000*%
%TD*%
%TA.AperFunction,ComponentPad*%
%ADD42C,1.524000*%
%TD*%
%TA.AperFunction,SMDPad,CuDef*%
%ADD43RotRect,1.500000X0.900000X135.000000*%
%TD*%
%TA.AperFunction,SMDPad,CuDef*%
%ADD44RotRect,1.500000X0.900000X22.500000*%
%TD*%
%TA.AperFunction,SMDPad,CuDef*%
%ADD45RoundRect,0.225000X-0.303544X-0.144866X0.112202X-0.317074X0.303544X0.144866X-0.112202X0.317074X0*%
%TD*%
%TA.AperFunction,SMDPad,CuDef*%
%ADD46RotRect,1.500000X0.900000X315.000000*%
%TD*%
%TA.AperFunction,SMDPad,CuDef*%
%ADD47RoundRect,0.225000X0.303544X0.144866X-0.112202X0.317074X-0.303544X-0.144866X0.112202X-0.317074X0*%
%TD*%
%TA.AperFunction,ComponentPad*%
%ADD48RoundRect,0.250200X0.649800X0.649800X-0.649800X0.649800X-0.649800X-0.649800X0.649800X-0.649800X0*%
%TD*%
%TA.AperFunction,ComponentPad*%
%ADD49C,1.800000*%
%TD*%
%TA.AperFunction,ComponentPad*%
%ADD50RoundRect,0.250200X-0.351669X-0.849005X0.849005X-0.351669X0.351669X0.849005X-0.849005X0.351669X0*%
%TD*%
%TA.AperFunction,ComponentPad*%
%ADD51RoundRect,0.250200X-0.849005X0.351669X-0.351669X-0.849005X0.849005X-0.351669X0.351669X0.849005X0*%
%TD*%
%TA.AperFunction,ComponentPad*%
%ADD52RoundRect,0.250200X0.351669X0.849005X-0.849005X0.351669X-0.351669X-0.849005X0.849005X-0.351669X0*%
%TD*%
%TA.AperFunction,ComponentPad*%
%ADD53RoundRect,0.250000X0.725000X-0.600000X0.725000X0.600000X-0.725000X0.600000X-0.725000X-0.600000X0*%
%TD*%
%TA.AperFunction,ComponentPad*%
%ADD54O,1.950000X1.700000*%
%TD*%
%TA.AperFunction,ComponentPad*%
%ADD55RoundRect,0.250200X0.918956X0.000000X0.000000X0.918956X-0.918956X0.000000X0.000000X-0.918956X0*%
%TD*%
%TA.AperFunction,ComponentPad*%
%ADD56RoundRect,0.250000X0.600000X0.725000X-0.600000X0.725000X-0.600000X-0.725000X0.600000X-0.725000X0*%
%TD*%
%TA.AperFunction,ComponentPad*%
%ADD57O,1.700000X1.950000*%
%TD*%
%TA.AperFunction,ComponentPad*%
%ADD58RoundRect,0.250200X-0.649800X0.649800X-0.649800X-0.649800X0.649800X-0.649800X0.649800X0.649800X0*%
%TD*%
%TA.AperFunction,ComponentPad*%
%ADD59RoundRect,0.250200X-0.918956X0.000000X0.000000X-0.918956X0.918956X0.000000X0.000000X0.918956X0*%
%TD*%
%TA.AperFunction,ComponentPad*%
%ADD60RoundRect,0.250200X0.000000X-0.918956X0.918956X0.000000X0.000000X0.918956X-0.918956X0.000000X0*%
%TD*%
%TA.AperFunction,ComponentPad*%
%ADD61RoundRect,0.250200X-0.849005X-0.351669X0.351669X-0.849005X0.849005X0.351669X-0.351669X0.849005X0*%
%TD*%
%TA.AperFunction,ComponentPad*%
%ADD62RoundRect,0.250200X0.000000X0.918956X-0.918956X0.000000X0.000000X-0.918956X0.918956X0.000000X0*%
%TD*%
%TA.AperFunction,ComponentPad*%
%ADD63RoundRect,0.250200X0.351669X-0.849005X0.849005X0.351669X-0.351669X0.849005X-0.849005X-0.351669X0*%
%TD*%
%TA.AperFunction,ComponentPad*%
%ADD64RoundRect,0.250200X0.849005X-0.351669X0.351669X0.849005X-0.849005X0.351669X-0.351669X-0.849005X0*%
%TD*%
%TA.AperFunction,ComponentPad*%
%ADD65RoundRect,0.250200X-0.649800X-0.649800X0.649800X-0.649800X0.649800X0.649800X-0.649800X0.649800X0*%
%TD*%
%TA.AperFunction,ComponentPad*%
%ADD66RoundRect,0.250200X-0.351669X0.849005X-0.849005X-0.351669X0.351669X-0.849005X0.849005X0.351669X0*%
%TD*%
%TA.AperFunction,ComponentPad*%
%ADD67RoundRect,0.250200X0.849005X0.351669X-0.351669X0.849005X-0.849005X-0.351669X0.351669X-0.849005X0*%
%TD*%
%TA.AperFunction,ComponentPad*%
%ADD68RoundRect,0.250200X0.649800X-0.649800X0.649800X0.649800X-0.649800X0.649800X-0.649800X-0.649800X0*%
%TD*%
%TA.AperFunction,ViaPad*%
%ADD69C,0.800000*%
%TD*%
%TA.AperFunction,Conductor*%
%ADD70C,0.250000*%
%TD*%
%TA.AperFunction,Conductor*%
%ADD71C,1.000000*%
%TD*%
%TA.AperFunction,Conductor*%
%ADD72C,0.500000*%
%TD*%
G04 APERTURE END LIST*
D10*
%TO.P,C26,1*%
%TO.N,GND*%
X218777643Y-295887311D03*
%TO.P,C26,2*%
%TO.N,+5V*%
X218184483Y-297319325D03*
%TD*%
D11*
%TO.P,C20,1*%
%TO.N,GND*%
X228016439Y-201235854D03*
%TO.P,C20,2*%
%TO.N,+5V*%
X227423279Y-199803840D03*
%TD*%
D12*
%TO.P,J4,1,Pin_1*%
%TO.N,Cam_MISO_RX*%
X228752500Y-255555000D03*
D13*
%TO.P,J4,2,Pin_2*%
%TO.N,+5V*%
X226212500Y-255555000D03*
%TO.P,J4,3,Pin_3*%
%TO.N,Net-(J4-Pin_3)*%
X228752500Y-253015000D03*
%TO.P,J4,4,Pin_4*%
%TO.N,Cam_MOSI_TX*%
X226212500Y-253015000D03*
%TO.P,J4,5,Pin_5*%
%TO.N,Net-(J4-Pin_5)*%
X228752500Y-250475000D03*
%TO.P,J4,6,Pin_6*%
%TO.N,GND*%
X226212500Y-250475000D03*
%TO.P,J4,7,Pin_7*%
%TO.N,Net-(J4-Pin_7)*%
X228752500Y-247935000D03*
%TO.P,J4,8,Pin_8*%
%TO.N,unconnected-(J4-Pin_8-Pad8)*%
X226212500Y-247935000D03*
%TO.P,J4,9,Pin_9*%
%TO.N,Net-(J4-Pin_9)*%
X228752500Y-245395000D03*
%TO.P,J4,10,Pin_10*%
%TO.N,unconnected-(J4-Pin_10-Pad10)*%
X226212500Y-245395000D03*
%TD*%
D14*
%TO.P,D6,1,VDD*%
%TO.N,+5V*%
X191110469Y-231633513D03*
%TO.P,D6,2,DOUT*%
%TO.N,Net-(D6-DOUT)*%
X194159272Y-232896369D03*
%TO.P,D6,3,VSS*%
%TO.N,GND*%
X196034421Y-228369359D03*
%TO.P,D6,4,DIN*%
%TO.N,Net-(D5-DOUT)*%
X192985618Y-227106503D03*
%TD*%
D15*
%TO.P,C31,1*%
%TO.N,GND*%
X294225000Y-255475000D03*
%TO.P,C31,2*%
%TO.N,+5V*%
X295775000Y-255475000D03*
%TD*%
D16*
%TO.P,C23,1*%
%TO.N,GND*%
X191775000Y-245475000D03*
%TO.P,C23,2*%
%TO.N,+5V*%
X190225000Y-245475000D03*
%TD*%
D17*
%TO.P,D7,1,VDD*%
%TO.N,+5V*%
X187850000Y-252925000D03*
%TO.P,D7,2,DOUT*%
%TO.N,Net-(D7-DOUT)*%
X191150000Y-252925000D03*
%TO.P,D7,3,VSS*%
%TO.N,GND*%
X191150000Y-248025000D03*
%TO.P,D7,4,DIN*%
%TO.N,Net-(D6-DOUT)*%
X187850000Y-248025000D03*
%TD*%
D18*
%TO.P,D14,1,VDD*%
%TO.N,+5V*%
X294889530Y-269316486D03*
%TO.P,D14,2,DOUT*%
%TO.N,Net-(D14-DOUT)*%
X291840727Y-268053630D03*
%TO.P,D14,3,VSS*%
%TO.N,GND*%
X289965578Y-272580640D03*
%TO.P,D14,4,DIN*%
%TO.N,Net-(D13-DOUT)*%
X293014381Y-273843496D03*
%TD*%
D19*
%TO.P,D16,1,VDD*%
%TO.N,+5V*%
X293014381Y-227106503D03*
%TO.P,D16,2,DOUT*%
%TO.N,Net-(D16-DOUT)*%
X289965578Y-228369359D03*
%TO.P,D16,3,VSS*%
%TO.N,GND*%
X291840727Y-232896369D03*
%TO.P,D16,4,DIN*%
%TO.N,Net-(D15-DOUT)*%
X294889530Y-231633513D03*
%TD*%
D20*
%TO.P,C34,1*%
%TO.N,GND*%
X267222356Y-205062688D03*
%TO.P,C34,2*%
%TO.N,+5V*%
X267815516Y-203630674D03*
%TD*%
D21*
%TO.P,D8,1,VDD*%
%TO.N,+5V*%
X192985618Y-273843496D03*
%TO.P,D8,2,DOUT*%
%TO.N,Net-(D8-DOUT)*%
X196034421Y-272580640D03*
%TO.P,D8,3,VSS*%
%TO.N,GND*%
X194159272Y-268053630D03*
%TO.P,D8,4,DIN*%
%TO.N,Net-(D7-DOUT)*%
X191110469Y-269316486D03*
%TD*%
D22*
%TO.P,D3,1,VDD*%
%TO.N,+5V*%
X240550000Y-195325000D03*
%TO.P,D3,2,DOUT*%
%TO.N,Net-(D3-DOUT)*%
X240550000Y-198625000D03*
%TO.P,D3,3,VSS*%
%TO.N,GND*%
X245450000Y-198625000D03*
%TO.P,D3,4,DIN*%
%TO.N,NeoPixel_PWM*%
X245450000Y-195325000D03*
%TD*%
%TO.P,D11,1,VDD*%
%TO.N,+5V*%
X245450000Y-305625000D03*
%TO.P,D11,2,DOUT*%
%TO.N,Net-(D11-DOUT)*%
X245450000Y-302325000D03*
%TO.P,D11,3,VSS*%
%TO.N,GND*%
X240550000Y-302325000D03*
%TO.P,D11,4,DIN*%
%TO.N,Net-(D10-DOUT)*%
X240550000Y-305625000D03*
%TD*%
D23*
%TO.P,C28,1*%
%TO.N,GND*%
X257983560Y-299714145D03*
%TO.P,C28,2*%
%TO.N,+5V*%
X258576720Y-301146159D03*
%TD*%
D17*
%TO.P,D15,1,VDD*%
%TO.N,+5V*%
X298150000Y-248025000D03*
%TO.P,D15,2,DOUT*%
%TO.N,Net-(D15-DOUT)*%
X294850000Y-248025000D03*
%TO.P,D15,3,VSS*%
%TO.N,GND*%
X294850000Y-252925000D03*
%TO.P,D15,4,DIN*%
%TO.N,Net-(D14-DOUT)*%
X298150000Y-252925000D03*
%TD*%
D24*
%TO.P,C29,1*%
%TO.N,GND*%
X275686010Y-290232078D03*
%TO.P,C29,2*%
%TO.N,+5V*%
X276782026Y-291328094D03*
%TD*%
D25*
%TO.P,D12,1,VDD*%
%TO.N,+5V*%
X266368496Y-300489381D03*
%TO.P,D12,2,DOUT*%
%TO.N,Net-(D12-DOUT)*%
X265105640Y-297440578D03*
%TO.P,D12,3,VSS*%
%TO.N,GND*%
X260578630Y-299315727D03*
%TO.P,D12,4,DIN*%
%TO.N,Net-(D11-DOUT)*%
X261841486Y-302364530D03*
%TD*%
D26*
%TO.P,C25,1*%
%TO.N,GND*%
X203242921Y-283161010D03*
%TO.P,C25,2*%
%TO.N,+5V*%
X202146905Y-284257026D03*
%TD*%
D27*
%TO.P,C33,1*%
%TO.N,GND*%
X282757078Y-217788989D03*
%TO.P,C33,2*%
%TO.N,+5V*%
X283853094Y-216692973D03*
%TD*%
D28*
%TO.P,C19,1*%
%TO.N,GND*%
X248000000Y-199250000D03*
%TO.P,C19,2*%
%TO.N,+5V*%
X248000000Y-197700000D03*
%TD*%
D29*
%TO.P,C32,1*%
%TO.N,GND*%
X292239145Y-235491439D03*
%TO.P,C32,2*%
%TO.N,+5V*%
X293671159Y-234898279D03*
%TD*%
D30*
%TO.P,D18,1,VDD*%
%TO.N,+5V*%
X261841486Y-198585469D03*
%TO.P,D18,2,DOUT*%
%TO.N,unconnected-(D18-DOUT-Pad2)*%
X260578630Y-201634272D03*
%TO.P,D18,3,VSS*%
%TO.N,GND*%
X265105640Y-203509421D03*
%TO.P,D18,4,DIN*%
%TO.N,Net-(D17-DOUT)*%
X266368496Y-200460618D03*
%TD*%
D31*
%TO.P,C24,1*%
%TO.N,GND*%
X193760854Y-265458560D03*
%TO.P,C24,2*%
%TO.N,+5V*%
X192328840Y-266051720D03*
%TD*%
D32*
%TO.P,U1,0,RX1*%
%TO.N,Line-MD-Main=RX_3.3V*%
X250620000Y-277145000D03*
%TO.P,U1,1,TX1*%
%TO.N,Line-MD-Main=TX_3.3V*%
X250620000Y-274605000D03*
%TO.P,U1,2,OUT2*%
%TO.N,EN-1*%
X250620000Y-272065000D03*
%TO.P,U1,3,LRCLK2*%
%TO.N,PH-1*%
X250620000Y-269525000D03*
%TO.P,U1,3.3V_1,3.3V*%
%TO.N,unconnected-(U1-3.3V-Pad3.3V_1)*%
X250620000Y-244125000D03*
%TO.P,U1,3.3V_2,3.3V*%
%TO.N,unconnected-(U1-3.3V-Pad3.3V_1)_1*%
X235380000Y-274605000D03*
%TO.P,U1,3.3V_3,3.3V*%
%TO.N,unconnected-(U1-3.3V-Pad3.3V_1)_0*%
X245540000Y-233965000D03*
%TO.P,U1,4,BCLK2*%
%TO.N,EN-2*%
X250620000Y-266985000D03*
%TO.P,U1,5,IN2*%
%TO.N,PH-2*%
X250620000Y-264445000D03*
D33*
%TO.P,U1,5V,5V*%
%TO.N,unconnected-(U1-Pad5V)*%
X247570000Y-273335000D03*
D32*
%TO.P,U1,6,OUT1D*%
%TO.N,EN-3*%
X250620000Y-261905000D03*
%TO.P,U1,7,RX2*%
%TO.N,Cam-main=RX*%
X250620000Y-259365000D03*
%TO.P,U1,8,TX2*%
%TO.N,Cam-main=TX*%
X250620000Y-256825000D03*
%TO.P,U1,9,OUT1C*%
%TO.N,PH-3*%
X250620000Y-254285000D03*
%TO.P,U1,10,CS1*%
%TO.N,Cam_SS*%
X250620000Y-251745000D03*
%TO.P,U1,11,MOSI*%
%TO.N,MOSI*%
X250620000Y-249205000D03*
%TO.P,U1,12,MISO*%
%TO.N,MISO*%
X250620000Y-246665000D03*
%TO.P,U1,13,SCK*%
%TO.N,SCK*%
X235380000Y-246665000D03*
%TO.P,U1,14,A0*%
%TO.N,ball01*%
X235380000Y-249205000D03*
%TO.P,U1,15,A1*%
%TO.N,ball02*%
X235380000Y-251745000D03*
%TO.P,U1,16,A2*%
%TO.N,ball03*%
X235380000Y-254285000D03*
%TO.P,U1,17,A3*%
%TO.N,ball04*%
X235380000Y-256825000D03*
%TO.P,U1,18,A4*%
%TO.N,ball05*%
X235380000Y-259365000D03*
%TO.P,U1,19,A5*%
%TO.N,ball06*%
X235380000Y-261905000D03*
%TO.P,U1,20,A6*%
%TO.N,ball07*%
X235380000Y-264445000D03*
%TO.P,U1,21,A7*%
%TO.N,ball08*%
X235380000Y-266985000D03*
%TO.P,U1,22,A8*%
%TO.N,ball09*%
X235380000Y-269525000D03*
%TO.P,U1,23,A9*%
%TO.N,ball10*%
X235380000Y-272065000D03*
%TO.P,U1,24,A10*%
%TO.N,SCL*%
X250620000Y-241585000D03*
%TO.P,U1,25,A11*%
%TO.N,SDA*%
X250620000Y-239045000D03*
%TO.P,U1,26,A12*%
%TO.N,ball11*%
X250620000Y-236505000D03*
%TO.P,U1,27,A13*%
%TO.N,ball12*%
X250620000Y-233965000D03*
%TO.P,U1,28,RX7*%
%TO.N,EN-4*%
X250620000Y-231425000D03*
%TO.P,U1,29,TX7*%
%TO.N,PH-4*%
X250620000Y-228885000D03*
%TO.P,U1,30,CRX3*%
%TO.N,KickerSignal-main*%
X250620000Y-226345000D03*
%TO.P,U1,31,CTX3*%
%TO.N,unconnected-(U1-CTX3-Pad31)*%
X250620000Y-223805000D03*
%TO.P,U1,32,OUT1B*%
%TO.N,SW-TAC-5*%
X250620000Y-221265000D03*
%TO.P,U1,33,MCLK2*%
%TO.N,BUZZER*%
X235380000Y-221265000D03*
%TO.P,U1,34,RX8*%
%TO.N,SW-TAC-4*%
X235380000Y-223805000D03*
%TO.P,U1,35,TX8*%
%TO.N,SW-TAC-3*%
X235380000Y-226345000D03*
%TO.P,U1,36,CS2*%
%TO.N,SW-TAC-2*%
X235380000Y-228885000D03*
%TO.P,U1,37,CS3*%
%TO.N,SW-TAC-1*%
X235380000Y-231425000D03*
%TO.P,U1,38,A14*%
%TO.N,ball13*%
X235380000Y-233965000D03*
%TO.P,U1,39,A15*%
%TO.N,ball14*%
X235380000Y-236505000D03*
%TO.P,U1,40,A16*%
%TO.N,ball15*%
X235380000Y-239045000D03*
%TO.P,U1,41,A17*%
%TO.N,ball16*%
X235380000Y-241585000D03*
D33*
%TO.P,U1,D+,D+*%
%TO.N,unconnected-(U1-PadD+)*%
X247570000Y-268255000D03*
%TO.P,U1,D-,D-*%
%TO.N,unconnected-(U1-PadD-)*%
X247570000Y-270795000D03*
D32*
%TO.P,U1,GND1,GND*%
%TO.N,GND*%
X250620000Y-279685000D03*
%TO.P,U1,GND2,GND*%
X235380000Y-244125000D03*
%TO.P,U1,GND3,GND*%
X235380000Y-277145000D03*
%TO.P,U1,GND4,GND*%
X243000000Y-233965000D03*
D34*
%TO.P,U1,GND5,GND*%
X239830000Y-264715000D03*
%TO.P,U1,LED,LED*%
%TO.N,unconnected-(U1-PadLED)*%
X239830000Y-266715000D03*
D32*
%TO.P,U1,ON/OFF,ON/OFF*%
%TO.N,unconnected-(U1-PadON{slash}OFF)*%
X237920000Y-233965000D03*
%TO.P,U1,PROGRAM,PROGRAM*%
%TO.N,unconnected-(U1-PadPROGRAM)*%
X240460000Y-233965000D03*
D34*
%TO.P,U1,R+,R+*%
%TO.N,unconnected-(U1-PadR+)*%
X237830000Y-266715000D03*
%TO.P,U1,R-,R-*%
%TO.N,unconnected-(U1-PadR-)*%
X237830000Y-264715000D03*
%TO.P,U1,T+,T+*%
%TO.N,unconnected-(U1-PadT+)*%
X241830000Y-264715000D03*
%TO.P,U1,T-,T-*%
%TO.N,unconnected-(U1-PadT-)*%
X241830000Y-266715000D03*
D33*
%TO.P,U1,USB_GND1,USB_GND*%
%TO.N,GND*%
X247570000Y-265715000D03*
%TO.P,U1,USB_GND2,USB_GND*%
X247570000Y-263175000D03*
D32*
%TO.P,U1,VBAT,VBAT*%
%TO.N,unconnected-(U1-PadVBAT)*%
X248080000Y-233965000D03*
%TO.P,U1,VIN,VIN*%
%TO.N,+5V*%
X235380000Y-279685000D03*
%TO.P,U1,VUSB,VUSB*%
%TO.N,unconnected-(U1-PadVUSB)*%
X237920000Y-277145000D03*
%TD*%
D35*
%TO.P,D5,1,VDD*%
%TO.N,+5V*%
X202270649Y-213210472D03*
%TO.P,D5,2,DOUT*%
%TO.N,Net-(D5-DOUT)*%
X204604102Y-215543925D03*
%TO.P,D5,3,VSS*%
%TO.N,GND*%
X208068925Y-212079102D03*
%TO.P,D5,4,DIN*%
%TO.N,Net-(D4-DOUT)*%
X205735472Y-209745649D03*
%TD*%
D36*
%TO.P,C21,1*%
%TO.N,GND*%
X210313989Y-210717921D03*
%TO.P,C21,2*%
%TO.N,+5V*%
X209217973Y-209621905D03*
%TD*%
D37*
%TO.P,C27,1*%
%TO.N,GND*%
X238000000Y-301700000D03*
%TO.P,C27,2*%
%TO.N,+5V*%
X238000000Y-303250000D03*
%TD*%
D38*
%TO.P,D13,1,VDD*%
%TO.N,+5V*%
X283729350Y-287739527D03*
%TO.P,D13,2,DOUT*%
%TO.N,Net-(D13-DOUT)*%
X281395897Y-285406074D03*
%TO.P,D13,3,VSS*%
%TO.N,GND*%
X277931074Y-288870897D03*
%TO.P,D13,4,DIN*%
%TO.N,Net-(D12-DOUT)*%
X280264527Y-291204350D03*
%TD*%
D39*
%TO.P,U3,1,VIN*%
%TO.N,+3.3V*%
X246800000Y-259275000D03*
D40*
%TO.P,U3,2,GND*%
%TO.N,GND*%
X246800000Y-256735000D03*
%TO.P,U3,3,SDA/T*%
%TO.N,SDA*%
X246800000Y-254195000D03*
%TO.P,U3,4,SCL/R*%
%TO.N,SCL*%
X246800000Y-251655000D03*
%TO.P,U3,5,RESET*%
%TO.N,unconnected-(U3-RESET-Pad5)*%
X239180000Y-251655000D03*
%TO.P,U3,6,INT*%
%TO.N,unconnected-(U3-INT-Pad6)*%
X239180000Y-254195000D03*
%TO.P,U3,7,GND*%
%TO.N,GND*%
X239180000Y-256735000D03*
%TO.P,U3,8,VOUT*%
%TO.N,unconnected-(U3-VOUT-Pad8)*%
X239180000Y-259275000D03*
%TD*%
D41*
%TO.P,D10,1,VDD*%
%TO.N,+5V*%
X224158513Y-302364530D03*
%TO.P,D10,2,DOUT*%
%TO.N,Net-(D10-DOUT)*%
X225421369Y-299315727D03*
%TO.P,D10,3,VSS*%
%TO.N,GND*%
X220894359Y-297440578D03*
%TO.P,D10,4,DIN*%
%TO.N,Net-(D10-DIN)*%
X219631503Y-300489381D03*
%TD*%
D42*
%TO.P,U2,1,A0_D0*%
%TO.N,NeoPixel_PWM*%
X255380000Y-242855000D03*
%TO.P,U2,2,A1_D1*%
%TO.N,ball01k*%
X255380000Y-245395000D03*
%TO.P,U2,3,A2_D2*%
%TO.N,ball02k*%
X255380000Y-247935000D03*
%TO.P,U2,4,A3_D3*%
%TO.N,unconnected-(U2-A3_D3-Pad4)*%
X255380000Y-250475000D03*
%TO.P,U2,5,SDA_D4*%
%TO.N,SDA*%
X255380000Y-253015000D03*
%TO.P,U2,6,SCL_D5*%
%TO.N,SCL*%
X255380000Y-255555000D03*
%TO.P,U2,7,TX_D6*%
%TO.N,unconnected-(U2-TX_D6-Pad7)*%
X255380000Y-258095000D03*
%TO.P,U2,8,RX_D7*%
%TO.N,unconnected-(R5-Pad2)*%
X270620000Y-258095000D03*
%TO.P,U2,9,SCK_D8*%
%TO.N,unconnected-(U2-SCK_D8-Pad9)*%
X270620000Y-255555000D03*
%TO.P,U2,10,MISO_D9*%
%TO.N,unconnected-(U2-MISO_D9-Pad10)*%
X270620000Y-253015000D03*
%TO.P,U2,11,MOSI_D10*%
%TO.N,unconnected-(U2-MOSI_D10-Pad11)*%
X270620000Y-250475000D03*
%TO.P,U2,12,3V3*%
%TO.N,unconnected-(U2-3V3-Pad12)*%
X270620000Y-247935000D03*
%TO.P,U2,13,GND*%
%TO.N,GND*%
X270620000Y-245395000D03*
%TO.P,U2,14,5V*%
%TO.N,+5V*%
X270620000Y-242855000D03*
%TD*%
D43*
%TO.P,D9,1,VDD*%
%TO.N,+5V*%
X205735472Y-291204350D03*
%TO.P,D9,2,DOUT*%
%TO.N,Net-(D10-DIN)*%
X208068925Y-288870897D03*
%TO.P,D9,3,VSS*%
%TO.N,GND*%
X204604102Y-285406074D03*
%TO.P,D9,4,DIN*%
%TO.N,Net-(D8-DOUT)*%
X202270649Y-287739527D03*
%TD*%
D44*
%TO.P,D4,1,VDD*%
%TO.N,+5V*%
X219631503Y-200460618D03*
%TO.P,D4,2,DOUT*%
%TO.N,Net-(D4-DOUT)*%
X220894359Y-203509421D03*
%TO.P,D4,3,VSS*%
%TO.N,GND*%
X225421369Y-201634272D03*
%TO.P,D4,4,DIN*%
%TO.N,Net-(D3-DOUT)*%
X224158513Y-198585469D03*
%TD*%
D45*
%TO.P,C30,1*%
%TO.N,GND*%
X288412311Y-274697356D03*
%TO.P,C30,2*%
%TO.N,+5V*%
X289844325Y-275290516D03*
%TD*%
D46*
%TO.P,D17,1,VDD*%
%TO.N,+5V*%
X280264527Y-209745649D03*
%TO.P,D17,2,DOUT*%
%TO.N,Net-(D17-DOUT)*%
X277931074Y-212079102D03*
%TO.P,D17,3,VSS*%
%TO.N,GND*%
X281395897Y-215543925D03*
%TO.P,D17,4,DIN*%
%TO.N,Net-(D16-DOUT)*%
X283729350Y-213210472D03*
%TD*%
D47*
%TO.P,C22,1*%
%TO.N,GND*%
X197587688Y-226252643D03*
%TO.P,C22,2*%
%TO.N,+5V*%
X196155674Y-225659483D03*
%TD*%
D48*
%TO.P,U12,1,OUT*%
%TO.N,Net-(U12-OUT)*%
X245540000Y-299475000D03*
D49*
%TO.P,U12,2,GND*%
%TO.N,GND*%
X243000000Y-299475000D03*
%TO.P,U12,3,Vs*%
%TO.N,+3.3V*%
X240460000Y-299475000D03*
%TD*%
D50*
%TO.P,U5,1,OUT*%
%TO.N,Net-(U5-OUT)*%
X221901857Y-206176918D03*
D49*
%TO.P,U5,2,GND*%
%TO.N,GND*%
X224248511Y-205204902D03*
%TO.P,U5,3,Vs*%
%TO.N,+3.3V*%
X226595165Y-204232886D03*
%TD*%
D51*
%TO.P,U17,1,OUT*%
%TO.N,Net-(U17-OUT)*%
X287298081Y-229376857D03*
D49*
%TO.P,U17,2,GND*%
%TO.N,GND*%
X288270097Y-231723511D03*
%TO.P,U17,3,Vs*%
%TO.N,+3.3V*%
X289242113Y-234070165D03*
%TD*%
D52*
%TO.P,U13,1,OUT*%
%TO.N,Net-(U13-OUT)*%
X264098142Y-294773081D03*
D49*
%TO.P,U13,2,GND*%
%TO.N,GND*%
X261751488Y-295745097D03*
%TO.P,U13,3,Vs*%
%TO.N,+3.3V*%
X259404834Y-296717113D03*
%TD*%
D53*
%TO.P,J1,1,Pin_1*%
%TO.N,+3.3V*%
X208525000Y-261725000D03*
D54*
%TO.P,J1,2,Pin_2*%
%TO.N,GND*%
X208525000Y-259225000D03*
%TO.P,J1,3,Pin_3*%
%TO.N,SW-TAC-1*%
X208525000Y-256725000D03*
%TO.P,J1,4,Pin_4*%
%TO.N,SW-TAC-2*%
X208525000Y-254225000D03*
%TO.P,J1,5,Pin_5*%
%TO.N,SW-TAC-3*%
X208525000Y-251725000D03*
%TO.P,J1,6,Pin_6*%
%TO.N,SW-TAC-4*%
X208525000Y-249225000D03*
%TO.P,J1,7,Pin_7*%
%TO.N,SW-TAC-5*%
X208525000Y-246725000D03*
%TO.P,J1,8,Pin_8*%
%TO.N,SDA*%
X208525000Y-244225000D03*
%TO.P,J1,9,Pin_9*%
%TO.N,SCL*%
X208525000Y-241725000D03*
%TO.P,J1,10,Pin_10*%
%TO.N,BUZZER*%
X208525000Y-239225000D03*
%TD*%
D55*
%TO.P,U10,1,OUT*%
%TO.N,Net-(U10-OUT)*%
X210147818Y-286919283D03*
D49*
%TO.P,U10,2,GND*%
%TO.N,GND*%
X208351767Y-285123232D03*
%TO.P,U10,3,Vs*%
%TO.N,+3.3V*%
X206555716Y-283327181D03*
%TD*%
D56*
%TO.P,J2,1,Pin_1*%
%TO.N,+5V*%
X228000000Y-274950000D03*
D57*
%TO.P,J2,2,Pin_2*%
%TO.N,+3.3V*%
X225500000Y-274950000D03*
%TO.P,J2,3,Pin_3*%
%TO.N,GND*%
X223000000Y-274950000D03*
%TD*%
D58*
%TO.P,U16,1,OUT*%
%TO.N,Net-(U16-OUT)*%
X292000000Y-247935000D03*
D49*
%TO.P,U16,2,GND*%
%TO.N,GND*%
X292000000Y-250475000D03*
%TO.P,U16,3,Vs*%
%TO.N,+3.3V*%
X292000000Y-253015000D03*
%TD*%
D59*
%TO.P,U18,1,OUT*%
%TO.N,Net-(U18-OUT)*%
X275852181Y-214030716D03*
D49*
%TO.P,U18,2,GND*%
%TO.N,GND*%
X277648232Y-215826767D03*
%TO.P,U18,3,Vs*%
%TO.N,+3.3V*%
X279444283Y-217622818D03*
%TD*%
D60*
%TO.P,U6,1,OUT*%
%TO.N,Net-(U6-OUT)*%
X206555716Y-217622818D03*
D49*
%TO.P,U6,2,GND*%
%TO.N,GND*%
X208351767Y-215826767D03*
%TO.P,U6,3,Vs*%
%TO.N,+3.3V*%
X210147818Y-214030716D03*
%TD*%
D61*
%TO.P,U19,1,OUT*%
%TO.N,Net-(U19-OUT)*%
X259404834Y-204232886D03*
D49*
%TO.P,U19,2,GND*%
%TO.N,GND*%
X261751488Y-205204902D03*
%TO.P,U19,3,Vs*%
%TO.N,+3.3V*%
X264098142Y-206176918D03*
%TD*%
D62*
%TO.P,U14,1,OUT*%
%TO.N,Net-(U14-OUT)*%
X279444283Y-283327181D03*
D49*
%TO.P,U14,2,GND*%
%TO.N,GND*%
X277648232Y-285123232D03*
%TO.P,U14,3,Vs*%
%TO.N,+3.3V*%
X275852181Y-286919283D03*
%TD*%
D63*
%TO.P,U7,1,OUT*%
%TO.N,Net-(U7-OUT)*%
X196757886Y-234070165D03*
D49*
%TO.P,U7,2,GND*%
%TO.N,GND*%
X197729902Y-231723511D03*
%TO.P,U7,3,Vs*%
%TO.N,+3.3V*%
X198701918Y-229376857D03*
%TD*%
D64*
%TO.P,U9,1,OUT*%
%TO.N,Net-(U9-OUT)*%
X198701918Y-271573142D03*
D49*
%TO.P,U9,2,GND*%
%TO.N,GND*%
X197729902Y-269226488D03*
%TO.P,U9,3,Vs*%
%TO.N,+3.3V*%
X196757886Y-266879834D03*
%TD*%
D65*
%TO.P,U4,1,OUT*%
%TO.N,Net-(U4-OUT)*%
X240460000Y-201475000D03*
D49*
%TO.P,U4,2,GND*%
%TO.N,GND*%
X243000000Y-201475000D03*
%TO.P,U4,3,Vs*%
%TO.N,+3.3V*%
X245540000Y-201475000D03*
%TD*%
D66*
%TO.P,U15,1,OUT*%
%TO.N,Net-(U15-OUT)*%
X289242113Y-266879834D03*
D49*
%TO.P,U15,2,GND*%
%TO.N,GND*%
X288270097Y-269226488D03*
%TO.P,U15,3,Vs*%
%TO.N,+3.3V*%
X287298081Y-271573142D03*
%TD*%
D67*
%TO.P,U11,1,OUT*%
%TO.N,Net-(U11-OUT)*%
X226595165Y-296717113D03*
D49*
%TO.P,U11,2,GND*%
%TO.N,GND*%
X224248511Y-295745097D03*
%TO.P,U11,3,Vs*%
%TO.N,+3.3V*%
X221901857Y-294773081D03*
%TD*%
D68*
%TO.P,U8,1,OUT*%
%TO.N,Net-(U8-OUT)*%
X194000000Y-253015000D03*
D49*
%TO.P,U8,2,GND*%
%TO.N,GND*%
X194000000Y-250475000D03*
%TO.P,U8,3,Vs*%
%TO.N,+3.3V*%
X194000000Y-247935000D03*
%TD*%
D69*
%TO.N,KickerSignal-main*%
X241500000Y-288000000D03*
%TO.N,Line-MD-Main=TX_3.3V*%
X242000000Y-282750000D03*
%TO.N,Line-MD-Main=RX_3.3V*%
X242000000Y-284000000D03*
%TO.N,ball02k*%
X242000000Y-285250000D03*
%TO.N,ball01k*%
X242500000Y-288000000D03*
%TO.N,GND*%
X243875000Y-211250000D03*
X245625000Y-211250000D03*
X247475000Y-211250000D03*
X242125000Y-211250000D03*
X249125000Y-211250000D03*
%TO.N,+5V*%
X296200000Y-249975000D03*
%TO.N,+3.3V*%
X262245000Y-258095000D03*
%TO.N,ball01*%
X249125000Y-208975000D03*
%TO.N,ball02*%
X249125000Y-215975000D03*
%TO.N,ball03*%
X247375000Y-208975000D03*
%TO.N,ball04*%
X247375000Y-215975000D03*
%TO.N,ball05*%
X245625000Y-208975000D03*
%TO.N,ball06*%
X245625000Y-215975000D03*
%TO.N,ball07*%
X243875000Y-208975000D03*
%TO.N,ball08*%
X243875000Y-215975000D03*
%TO.N,ball09*%
X242125000Y-208975000D03*
%TO.N,ball10*%
X242125000Y-215975000D03*
%TO.N,ball11*%
X240375000Y-208975000D03*
%TO.N,ball12*%
X240375000Y-215975000D03*
%TO.N,ball13*%
X238625000Y-208975000D03*
%TO.N,ball14*%
X238625000Y-215975000D03*
%TO.N,ball15*%
X236875000Y-208975000D03*
%TO.N,ball16*%
X236875000Y-215975000D03*
%TO.N,SDA*%
X237332500Y-245395000D03*
%TO.N,SCL*%
X237332500Y-250475000D03*
%TO.N,SCK*%
X237080000Y-253015000D03*
%TO.N,Cam_SS*%
X237332500Y-247935000D03*
%TO.N,MISO*%
X237080000Y-255600000D03*
%TO.N,Cam-main=TX*%
X237080000Y-258025000D03*
%TO.N,MOSI*%
X237332500Y-260635000D03*
%TO.N,Cam-main=RX*%
X237375000Y-262900000D03*
%TO.N,Net-(U12-OUT)*%
X241250000Y-207475000D03*
%TO.N,Net-(U13-OUT)*%
X241250000Y-214475000D03*
%TO.N,Net-(U14-OUT)*%
X239500000Y-207475000D03*
%TO.N,Net-(U15-OUT)*%
X239500000Y-214475000D03*
%TO.N,Net-(U16-OUT)*%
X237750000Y-207475000D03*
%TO.N,Net-(U17-OUT)*%
X237750000Y-214475000D03*
%TO.N,Net-(U18-OUT)*%
X236000000Y-207475000D03*
%TO.N,Net-(U19-OUT)*%
X236000000Y-214475000D03*
%TO.N,NeoPixel_PWM*%
X247350000Y-195325000D03*
%TD*%
D70*
%TO.N,Line-MD-Main=TX_3.3V*%
X242000000Y-282750000D02*
X250145000Y-274605000D01*
X250145000Y-274605000D02*
X250620000Y-274605000D01*
%TO.N,Line-MD-Main=RX_3.3V*%
X242000000Y-284000000D02*
X248855000Y-277145000D01*
X248855000Y-277145000D02*
X250620000Y-277145000D01*
D71*
%TO.N,GND*%
X208068925Y-215543925D02*
X208351767Y-215826767D01*
X238000000Y-301700000D02*
X239975000Y-301700000D01*
X277931074Y-285406074D02*
X277648232Y-285123232D01*
X208068925Y-285406074D02*
X208351767Y-285123232D01*
X291840727Y-232896369D02*
X290667869Y-231723511D01*
X267222356Y-205062688D02*
X266658907Y-205062688D01*
X245625000Y-211250000D02*
X243875000Y-211250000D01*
X263446969Y-203509421D02*
X261751488Y-205204902D01*
X225421369Y-201634272D02*
X224248511Y-202807130D01*
X242125000Y-211250000D02*
X243875000Y-211250000D01*
X245450000Y-198625000D02*
X243000000Y-201075000D01*
X193600000Y-250475000D02*
X194000000Y-250475000D01*
X197587688Y-226252643D02*
X197587688Y-226816092D01*
X204639457Y-284557546D02*
X204639457Y-285370719D01*
X220894359Y-297440578D02*
X222553030Y-297440578D01*
X196034421Y-228369359D02*
X196034421Y-230028030D01*
X275686010Y-290232078D02*
X277082546Y-288835542D01*
X288412311Y-274697356D02*
X288412311Y-274133907D01*
X240550000Y-302325000D02*
X243000000Y-299875000D01*
X194200000Y-265897706D02*
X194200000Y-268053630D01*
X191775000Y-247450000D02*
X191200000Y-248025000D01*
X266658907Y-205062688D02*
X265105640Y-203509421D01*
X277931074Y-288870897D02*
X277931074Y-285406074D01*
X289965578Y-270921969D02*
X288270097Y-269226488D01*
X248000000Y-199250000D02*
X246025000Y-199250000D01*
X203242921Y-283161010D02*
X204639457Y-284557546D01*
X294850000Y-252925000D02*
X292400000Y-250475000D01*
X193760854Y-265458560D02*
X194200000Y-265897706D01*
X224248511Y-202807130D02*
X224248511Y-205204902D01*
X281360542Y-216392453D02*
X281360542Y-215579280D01*
X243000000Y-299875000D02*
X243000000Y-299475000D01*
X228016439Y-201235854D02*
X227591675Y-201660618D01*
X246025000Y-199250000D02*
X245450000Y-198675000D01*
X292400000Y-250475000D02*
X292000000Y-250475000D01*
X208068925Y-212079102D02*
X208068925Y-215543925D01*
X282757078Y-217788989D02*
X281360542Y-216392453D01*
X291800000Y-235052294D02*
X291800000Y-232896369D01*
X247475000Y-211250000D02*
X245625000Y-211250000D01*
X277931074Y-215543925D02*
X277648232Y-215826767D01*
X290667869Y-231723511D02*
X288270097Y-231723511D01*
X289965578Y-272580640D02*
X289965578Y-270921969D01*
X281395897Y-215543925D02*
X277931074Y-215543925D01*
X260578630Y-299315727D02*
X261751488Y-298142869D01*
X261751488Y-298142869D02*
X261751488Y-295745097D01*
X277082546Y-288835542D02*
X277895719Y-288835542D01*
X191150000Y-248025000D02*
X193600000Y-250475000D01*
X204604102Y-285406074D02*
X208068925Y-285406074D01*
X191775000Y-245475000D02*
X191775000Y-247450000D01*
X243000000Y-201075000D02*
X243000000Y-201475000D01*
X196034421Y-230028030D02*
X197729902Y-231723511D01*
X239975000Y-301700000D02*
X240550000Y-302275000D01*
X195332130Y-269226488D02*
X197729902Y-269226488D01*
X257983560Y-299714145D02*
X258422705Y-299275000D01*
X227591675Y-201660618D02*
X225421369Y-201660618D01*
X265105640Y-203509421D02*
X263446969Y-203509421D01*
X222553030Y-297440578D02*
X224248511Y-295745097D01*
X288412311Y-274133907D02*
X289965578Y-272580640D01*
X197587688Y-226816092D02*
X196034421Y-228369359D01*
X249125000Y-211250000D02*
X247475000Y-211250000D01*
X219341092Y-295887311D02*
X220894359Y-297440578D01*
X208917453Y-212114457D02*
X208104280Y-212114457D01*
X210313989Y-210717921D02*
X208917453Y-212114457D01*
X258422705Y-299275000D02*
X260578630Y-299275000D01*
X218777643Y-295887311D02*
X219341092Y-295887311D01*
X294225000Y-253500000D02*
X294800000Y-252925000D01*
X194159272Y-268053630D02*
X195332130Y-269226488D01*
X292239145Y-235491439D02*
X291800000Y-235052294D01*
X294225000Y-255475000D02*
X294225000Y-253500000D01*
%TO.N,+5V*%
X219522851Y-302364530D02*
X224158513Y-302364530D01*
X265985619Y-300489381D02*
X266368496Y-300489381D01*
X280264527Y-212562868D02*
X283000000Y-215298341D01*
X294417139Y-275057861D02*
X294417139Y-269788877D01*
X293014381Y-227774563D02*
X293014381Y-227106503D01*
X238425000Y-303675000D02*
X238000000Y-303250000D01*
X202270649Y-213210472D02*
X205187868Y-213210472D01*
X225014382Y-200460618D02*
X225671160Y-199803840D01*
X269500000Y-201475000D02*
X267082860Y-199057860D01*
X189800000Y-245900000D02*
X190225000Y-245475000D01*
X293014381Y-227774563D02*
X293000000Y-227788944D01*
X189707711Y-270182711D02*
X192985618Y-273460618D01*
X192328840Y-267803840D02*
X192328840Y-266051720D01*
X195000000Y-227743982D02*
X195000000Y-226815157D01*
X283729350Y-289365873D02*
X283729350Y-287739527D01*
X288500000Y-218975000D02*
X288500000Y-216354776D01*
X196924318Y-281399318D02*
X196924318Y-284019542D01*
X196924318Y-284019542D02*
X204109126Y-291204350D01*
X288500000Y-216354776D02*
X281890873Y-209745649D01*
X186700000Y-241775000D02*
X186700000Y-251775000D01*
X222909410Y-197182711D02*
X219631503Y-200460618D01*
X262707712Y-303767288D02*
X265985619Y-300489381D01*
X188500000Y-234243982D02*
X188500000Y-239975000D01*
X245450000Y-305625000D02*
X243500000Y-303675000D01*
X265985619Y-300489381D02*
X261014381Y-300489381D01*
X205187868Y-213210472D02*
X208776435Y-209621905D01*
X211544375Y-273162500D02*
X201977637Y-282729238D01*
X208879775Y-204975000D02*
X211500000Y-204975000D01*
X191582860Y-231161122D02*
X191110469Y-231633513D01*
X191110469Y-231633513D02*
X188500000Y-234243982D01*
X245450000Y-305625000D02*
X257350000Y-305625000D01*
X262313877Y-199057860D02*
X261841486Y-198585469D01*
X226212500Y-273162500D02*
X228000000Y-274950000D01*
X298150000Y-236625000D02*
X296500000Y-234975000D01*
X269985619Y-300489381D02*
X274000000Y-296475000D01*
X274000000Y-296475000D02*
X276620223Y-296475000D01*
X192985618Y-277460618D02*
X196924318Y-281399318D01*
X298150000Y-248025000D02*
X298150000Y-236625000D01*
X226792289Y-197182711D02*
X222909410Y-197182711D01*
X224158513Y-302364530D02*
X226768983Y-304975000D01*
X292000000Y-277475000D02*
X294417139Y-275057861D01*
X296200000Y-249975000D02*
X296200000Y-255050000D01*
X296500000Y-231260182D02*
X293014381Y-227774563D01*
X265731017Y-202475000D02*
X266659842Y-202475000D01*
X192985618Y-273843496D02*
X192985618Y-277460618D01*
X277346906Y-291328094D02*
X276782026Y-291328094D01*
X293014381Y-223489381D02*
X288500000Y-218975000D01*
X296500000Y-234975000D02*
X296500000Y-231260182D01*
X189800000Y-250975000D02*
X189800000Y-245900000D01*
X204109126Y-291204350D02*
X205735472Y-291204350D01*
X194000000Y-221481121D02*
X194000000Y-224108320D01*
X194000000Y-224108320D02*
X191582860Y-226525460D01*
X281890873Y-209745649D02*
X280264527Y-209745649D01*
X211500000Y-204975000D02*
X216014382Y-200460618D01*
X241700000Y-194175000D02*
X240550000Y-195325000D01*
X247575000Y-197275000D02*
X248000000Y-197700000D01*
X186700000Y-251775000D02*
X187850000Y-252925000D01*
X193000000Y-270975000D02*
X193000000Y-268475000D01*
X226768983Y-304975000D02*
X232400000Y-304975000D01*
X251050000Y-194175000D02*
X241700000Y-194175000D01*
X291000000Y-273206016D02*
X291000000Y-274134841D01*
X283729350Y-287739527D02*
X280935473Y-287739527D01*
X262313877Y-199057860D02*
X265731017Y-202475000D01*
X205735472Y-291204350D02*
X214006122Y-299475000D01*
X267082860Y-199057860D02*
X262313877Y-199057860D01*
X261000000Y-300475000D02*
X260328841Y-301146159D01*
X280935473Y-287739527D02*
X277346906Y-291328094D01*
X202270649Y-213210472D02*
X194000000Y-221481121D01*
X242500000Y-197275000D02*
X247575000Y-197275000D01*
X240550000Y-195325000D02*
X242500000Y-197275000D01*
X293000000Y-232475000D02*
X293671159Y-233146159D01*
X230645000Y-274950000D02*
X235380000Y-279685000D01*
X293671159Y-233146159D02*
X293671159Y-234898279D01*
X202270649Y-211584126D02*
X208879775Y-204975000D01*
X205735472Y-288410472D02*
X202146905Y-284821905D01*
X257350000Y-305625000D02*
X259207712Y-303767288D01*
X228650000Y-195325000D02*
X226792289Y-197182711D01*
X291000000Y-274134841D02*
X289844325Y-275290516D01*
X293014381Y-227106503D02*
X293014381Y-223489381D01*
X280264527Y-209745649D02*
X271993878Y-201475000D01*
X191582860Y-231161122D02*
X195000000Y-227743982D01*
X225671160Y-199803840D02*
X227423279Y-199803840D01*
X299300000Y-259175000D02*
X299300000Y-249175000D01*
X224158513Y-302364530D02*
X220637319Y-298843336D01*
X214006122Y-299475000D02*
X216633321Y-299475000D01*
X293000000Y-227788944D02*
X293000000Y-232475000D01*
X276620223Y-296475000D02*
X283729350Y-289365873D01*
X240550000Y-195325000D02*
X228650000Y-195325000D01*
X202270649Y-213210472D02*
X202270649Y-211584126D01*
X243500000Y-303675000D02*
X238425000Y-303675000D01*
X252850000Y-195975000D02*
X251050000Y-194175000D01*
X280264527Y-209745649D02*
X280264527Y-212562868D01*
X201977637Y-284087758D02*
X202146905Y-284257026D01*
X244300000Y-306775000D02*
X245450000Y-305625000D01*
X294417139Y-269788877D02*
X291000000Y-273206016D01*
X261014381Y-300489381D02*
X261000000Y-300475000D01*
X189707711Y-266182711D02*
X189707711Y-270182711D01*
X193000000Y-268475000D02*
X192328840Y-267803840D01*
X259207712Y-303767288D02*
X262707712Y-303767288D01*
X266659842Y-202475000D02*
X267815516Y-203630674D01*
X228000000Y-274950000D02*
X230645000Y-274950000D01*
X296200000Y-255050000D02*
X295775000Y-255475000D01*
X294417139Y-269788877D02*
X294889530Y-269316486D01*
X260328841Y-301146159D02*
X258576720Y-301146159D01*
X283000000Y-215839879D02*
X283853094Y-216692973D01*
X208776435Y-209621905D02*
X209217973Y-209621905D01*
X219631503Y-200460618D02*
X225014382Y-200460618D01*
X220637319Y-298843336D02*
X219708494Y-298843336D01*
X261841486Y-198585469D02*
X259231017Y-195975000D01*
X192985618Y-273460618D02*
X192985618Y-273843496D01*
X294889530Y-263585470D02*
X299300000Y-259175000D01*
X202146905Y-284821905D02*
X202146905Y-284257026D01*
X192985618Y-273843496D02*
X192985618Y-270989382D01*
X299300000Y-249175000D02*
X298150000Y-248025000D01*
X188500000Y-239975000D02*
X186700000Y-241775000D01*
X187850000Y-252925000D02*
X189800000Y-250975000D01*
X292000000Y-279468877D02*
X292000000Y-277475000D01*
X191582860Y-226525460D02*
X191582860Y-231161122D01*
X283729350Y-287739527D02*
X292000000Y-279468877D01*
X294889530Y-269316486D02*
X294889530Y-263585470D01*
X216633321Y-299475000D02*
X219522851Y-302364530D01*
X226212500Y-273162500D02*
X211544375Y-273162500D01*
X232400000Y-304975000D02*
X234200000Y-306775000D01*
X195000000Y-226815157D02*
X196155674Y-225659483D01*
X283000000Y-215298341D02*
X283000000Y-215839879D01*
X187850000Y-264325000D02*
X189707711Y-266182711D01*
X266368496Y-300489381D02*
X269985619Y-300489381D01*
X271993878Y-201475000D02*
X269500000Y-201475000D01*
X187850000Y-252925000D02*
X187850000Y-264325000D01*
X219708494Y-298843336D02*
X218184483Y-297319325D01*
X298150000Y-248025000D02*
X296200000Y-249975000D01*
X234200000Y-306775000D02*
X244300000Y-306775000D01*
X201977637Y-282729238D02*
X201977637Y-284087758D01*
X226212500Y-255555000D02*
X226212500Y-273162500D01*
X205735472Y-291204350D02*
X205735472Y-288410472D01*
X216014382Y-200460618D02*
X219631503Y-200460618D01*
X192985618Y-270989382D02*
X193000000Y-270975000D01*
X259231017Y-195975000D02*
X252850000Y-195975000D01*
D72*
%TO.N,SDA*%
X250620000Y-239045000D02*
X251724000Y-240149000D01*
X237332500Y-245395000D02*
X244270000Y-245395000D01*
X251724000Y-249359000D02*
X255380000Y-253015000D01*
X247980000Y-253015000D02*
X246800000Y-254195000D01*
X251724000Y-240149000D02*
X251724000Y-249359000D01*
X255380000Y-253015000D02*
X247980000Y-253015000D01*
X244270000Y-245395000D02*
X250620000Y-239045000D01*
D70*
%TO.N,SW-TAC-4*%
X235380000Y-223805000D02*
X234112792Y-223805000D01*
X208692792Y-249225000D02*
X208525000Y-249225000D01*
X234112792Y-223805000D02*
X208692792Y-249225000D01*
%TO.N,SW-TAC-3*%
X209825000Y-250425000D02*
X209825000Y-248729188D01*
X208525000Y-251725000D02*
X209825000Y-250425000D01*
X209825000Y-248729188D02*
X232209188Y-226345000D01*
X232209188Y-226345000D02*
X235380000Y-226345000D01*
%TO.N,SW-TAC-5*%
X208525000Y-246725000D02*
X210556396Y-246725000D01*
X249641000Y-222244000D02*
X250620000Y-221265000D01*
X210556396Y-246725000D02*
X235037396Y-222244000D01*
X235037396Y-222244000D02*
X249641000Y-222244000D01*
D72*
%TO.N,SCL*%
X237332500Y-250475000D02*
X237402500Y-250405000D01*
X241800000Y-250405000D02*
X250620000Y-241585000D01*
X237402500Y-250405000D02*
X241800000Y-250405000D01*
D70*
%TO.N,SW-TAC-1*%
X228401980Y-231425000D02*
X235380000Y-231425000D01*
X210725000Y-249101980D02*
X228401980Y-231425000D01*
X208525000Y-256725000D02*
X210725000Y-254525000D01*
X210725000Y-254525000D02*
X210725000Y-249101980D01*
%TO.N,SW-TAC-2*%
X210275000Y-252475000D02*
X208525000Y-254225000D01*
X230305584Y-228885000D02*
X210275000Y-248915584D01*
X210275000Y-248915584D02*
X210275000Y-252475000D01*
X235380000Y-228885000D02*
X230305584Y-228885000D01*
%TO.N,BUZZER*%
X217420000Y-239225000D02*
X235380000Y-221265000D01*
X208525000Y-239225000D02*
X217420000Y-239225000D01*
%TO.N,Line-MD-Main=TX_3.3V*%
X250620000Y-275030580D02*
X250620000Y-274605000D01*
D72*
%TO.N,SCK*%
X236484000Y-248747708D02*
X236482500Y-248746208D01*
X236482500Y-247767500D02*
X235380000Y-246665000D01*
X237080000Y-253015000D02*
X237080000Y-251424582D01*
X236482500Y-249663792D02*
X236484000Y-249662292D01*
X236482500Y-250827082D02*
X236482500Y-249663792D01*
X236482500Y-248746208D02*
X236482500Y-247767500D01*
X237080000Y-251424582D02*
X236482500Y-250827082D01*
X236484000Y-249662292D02*
X236484000Y-248747708D01*
%TO.N,MISO*%
X248762500Y-246665000D02*
X250620000Y-246665000D01*
X238662233Y-252945000D02*
X242482500Y-252945000D01*
X237080000Y-255600000D02*
X237080000Y-254527233D01*
X237080000Y-254527233D02*
X238662233Y-252945000D01*
X242482500Y-252945000D02*
X248762500Y-246665000D01*
%TO.N,Cam-main=TX*%
X237080000Y-258025000D02*
X240675000Y-258025000D01*
X249280000Y-255485000D02*
X250620000Y-256825000D01*
X243215000Y-255485000D02*
X249280000Y-255485000D01*
X240675000Y-258025000D02*
X243215000Y-255485000D01*
%TO.N,Cam-main=RX*%
X249350000Y-260635000D02*
X250620000Y-259365000D01*
X237375000Y-262900000D02*
X239640000Y-260635000D01*
X239640000Y-260635000D02*
X249350000Y-260635000D01*
D70*
%TO.N,Net-(U12-OUT)*%
X241250000Y-207475000D02*
X241525000Y-207200000D01*
X251671026Y-293343974D02*
X245540000Y-299475000D01*
X256525000Y-207200000D02*
X259426918Y-210101918D01*
X267058682Y-293343974D02*
X251671026Y-293343974D01*
X267008991Y-210101918D02*
X284068974Y-227161901D01*
X241525000Y-207200000D02*
X256525000Y-207200000D01*
X284068974Y-276333682D02*
X267058682Y-293343974D01*
X259426918Y-210101918D02*
X267008991Y-210101918D01*
X284068974Y-227161901D02*
X284068974Y-276333682D01*
%TO.N,Net-(U13-OUT)*%
X240525000Y-207775305D02*
X240525000Y-207174695D01*
X240949695Y-206750000D02*
X256711396Y-206750000D01*
X284518974Y-276520078D02*
X266265971Y-294773081D01*
X241250000Y-208500305D02*
X240525000Y-207775305D01*
X241250000Y-214475000D02*
X241250000Y-208500305D01*
X267195387Y-209651918D02*
X284518974Y-226975505D01*
X256711396Y-206750000D02*
X259613314Y-209651918D01*
X259613314Y-209651918D02*
X267195387Y-209651918D01*
X284518974Y-226975505D02*
X284518974Y-276520078D01*
X240525000Y-207174695D02*
X240949695Y-206750000D01*
X266265971Y-294773081D02*
X264098142Y-294773081D01*
%TO.N,Net-(U14-OUT)*%
X259799710Y-209201918D02*
X267381783Y-209201918D01*
X256897792Y-206300000D02*
X259799710Y-209201918D01*
X239500000Y-207475000D02*
X240675000Y-206300000D01*
X284968974Y-277802490D02*
X279444283Y-283327181D01*
X240675000Y-206300000D02*
X256897792Y-206300000D01*
X267381783Y-209201918D02*
X284968974Y-226789109D01*
X284968974Y-226789109D02*
X284968974Y-277802490D01*
%TO.N,Net-(U15-OUT)*%
X238775000Y-207174695D02*
X240099695Y-205850000D01*
X257084188Y-205850000D02*
X259986106Y-208751918D01*
X240099695Y-205850000D02*
X257084188Y-205850000D01*
X267568179Y-208751918D02*
X285418974Y-226602713D01*
X259986106Y-208751918D02*
X267568179Y-208751918D01*
X239500000Y-208500305D02*
X238775000Y-207775305D01*
X285418974Y-226602713D02*
X285418974Y-263056695D01*
X238775000Y-207775305D02*
X238775000Y-207174695D01*
X285418974Y-263056695D02*
X289242113Y-266879834D01*
X239500000Y-214475000D02*
X239500000Y-208500305D01*
%TO.N,Net-(U16-OUT)*%
X239825000Y-205400000D02*
X257270584Y-205400000D01*
X257270584Y-205400000D02*
X260172502Y-208301918D01*
X267754575Y-208301918D02*
X285868974Y-226416317D01*
X285868974Y-226416317D02*
X285868974Y-241803974D01*
X285868974Y-241803974D02*
X292000000Y-247935000D01*
X237750000Y-207475000D02*
X239825000Y-205400000D01*
X260172502Y-208301918D02*
X267754575Y-208301918D01*
%TO.N,Net-(U17-OUT)*%
X257456980Y-204950000D02*
X260358898Y-207851918D01*
X237025000Y-207775305D02*
X237025000Y-207174695D01*
X237025000Y-207174695D02*
X239249695Y-204950000D01*
X239249695Y-204950000D02*
X257456980Y-204950000D01*
X287298081Y-227209028D02*
X287298081Y-229376857D01*
X237750000Y-214475000D02*
X237750000Y-208500305D01*
X260358898Y-207851918D02*
X267940971Y-207851918D01*
X267940971Y-207851918D02*
X287298081Y-227209028D01*
X237750000Y-208500305D02*
X237025000Y-207775305D01*
%TO.N,Net-(U18-OUT)*%
X260545294Y-207401918D02*
X269223383Y-207401918D01*
X257643376Y-204500000D02*
X260545294Y-207401918D01*
X269223383Y-207401918D02*
X275852181Y-214030716D01*
X236000000Y-207475000D02*
X238975000Y-204500000D01*
X238975000Y-204500000D02*
X257643376Y-204500000D01*
%TO.N,Net-(U19-OUT)*%
X238399695Y-204050000D02*
X235275000Y-207174695D01*
X235275000Y-207775305D02*
X236000000Y-208500305D01*
X259404834Y-204232886D02*
X259221948Y-204050000D01*
X236000000Y-208500305D02*
X236000000Y-214475000D01*
X235275000Y-207174695D02*
X235275000Y-207775305D01*
X259221948Y-204050000D02*
X238399695Y-204050000D01*
%TO.N,NeoPixel_PWM*%
X247350000Y-195325000D02*
X245450000Y-195325000D01*
%TO.N,Net-(D3-DOUT)*%
X240510469Y-198585469D02*
X240550000Y-198625000D01*
X224158513Y-198585469D02*
X240510469Y-198585469D01*
%TO.N,Net-(D4-DOUT)*%
X215465579Y-203509421D02*
X220894359Y-203509421D01*
X209006121Y-206475000D02*
X212500000Y-206475000D01*
X205735472Y-209745649D02*
X209006121Y-206475000D01*
X212500000Y-206475000D02*
X215465579Y-203509421D01*
%TO.N,Net-(D5-DOUT)*%
X192985618Y-227106503D02*
X204548196Y-215543925D01*
X204548196Y-215543925D02*
X204604102Y-215543925D01*
%TO.N,Net-(D6-DOUT)*%
X187850000Y-241791726D02*
X187850000Y-248025000D01*
X194159272Y-235482454D02*
X187850000Y-241791726D01*
X194159272Y-232896369D02*
X194159272Y-235482454D01*
%TO.N,Net-(D7-DOUT)*%
X191150000Y-252925000D02*
X191150000Y-269276955D01*
X191150000Y-269276955D02*
X191110469Y-269316486D01*
%TO.N,Net-(D8-DOUT)*%
X196034421Y-279342695D02*
X197749318Y-281057592D01*
X196034421Y-272580640D02*
X196034421Y-279342695D01*
X197749318Y-281057592D02*
X197749318Y-283218196D01*
X197749318Y-283218196D02*
X202270649Y-287739527D01*
%TO.N,Net-(D10-DIN)*%
X219631503Y-300433475D02*
X219631503Y-300489381D01*
X208068925Y-288870897D02*
X219631503Y-300433475D01*
%TO.N,Net-(D10-DOUT)*%
X230255642Y-304150000D02*
X232741726Y-304150000D01*
X232741726Y-304150000D02*
X234216726Y-305625000D01*
X225421369Y-299315727D02*
X230255642Y-304150000D01*
X234216726Y-305625000D02*
X240550000Y-305625000D01*
%TO.N,Net-(D11-DOUT)*%
X245450000Y-302325000D02*
X261801956Y-302325000D01*
X261801956Y-302325000D02*
X261841486Y-302364530D01*
%TO.N,Net-(D12-DOUT)*%
X271867696Y-297440578D02*
X273658274Y-295650000D01*
X265105640Y-297440578D02*
X271867696Y-297440578D01*
X273658274Y-295650000D02*
X275818877Y-295650000D01*
X275818877Y-295650000D02*
X280264527Y-291204350D01*
%TO.N,Net-(D13-DOUT)*%
X292958475Y-273843496D02*
X293014381Y-273843496D01*
X281395897Y-285406074D02*
X292958475Y-273843496D01*
%TO.N,Net-(D14-DOUT)*%
X291840727Y-265467547D02*
X298150000Y-259158274D01*
X291840727Y-268053630D02*
X291840727Y-265467547D01*
X298150000Y-259158274D02*
X298150000Y-252925000D01*
%TO.N,Net-(D15-DOUT)*%
X294850000Y-248025000D02*
X294850000Y-231673043D01*
X294850000Y-231673043D02*
X294889530Y-231633513D01*
%TO.N,Net-(D16-DOUT)*%
X289965578Y-228369359D02*
X289965578Y-221607304D01*
X283735472Y-213210472D02*
X283729350Y-213210472D01*
X287675000Y-219316726D02*
X287675000Y-217150000D01*
X289965578Y-221607304D02*
X287675000Y-219316726D01*
X287675000Y-217150000D02*
X283735472Y-213210472D01*
%TO.N,Net-(D17-DOUT)*%
X266368496Y-200516524D02*
X266368496Y-200460618D01*
X277931074Y-212079102D02*
X266368496Y-200516524D01*
%TD*%
M02*
