M48
; DRILL file {KiCad 8.0.1} date 2024-11-10T20:11:21+0900
; FORMAT={-:-/ absolute / inch / decimal}
; #@! TF.CreationDate,2024-11-10T20:11:21+09:00
; #@! TF.GenerationSoftware,Kicad,Pcbnew,8.0.1
; #@! TF.FileFunction,Plated,1,4,PTH
FMAT,2
INCH
; #@! TA.AperFunction,Plated,PTH,ViaDrill
T1C0.0157
; #@! TA.AperFunction,Plated,PTH,ComponentDrill
T2C0.0300
; #@! TA.AperFunction,Plated,PTH,ComponentDrill
T3C0.0315
; #@! TA.AperFunction,Plated,PTH,ComponentDrill
T4C0.0354
; #@! TA.AperFunction,Plated,PTH,ComponentDrill
T5C0.0374
; #@! TA.AperFunction,Plated,PTH,ComponentDrill
T6C0.0394
; #@! TA.AperFunction,Plated,PTH,ComponentDrill
T7C0.0433
; #@! TA.AperFunction,Plated,PTH,ComponentDrill
T8C0.0472
; #@! TA.AperFunction,Plated,PTH,ComponentDrill
T9C0.0512
%
G90
G05
T1
X-2.0622Y0.028
X-2.0221Y0.435
X-2.0221Y-0.3791
X-1.9034Y0.8265
X-1.9034Y-0.7706
X-1.8929Y0.3782
X-1.881Y-0.3822
X-1.7105Y1.1872
X-1.7105Y-1.1313
X-1.6129Y1.0853
X-1.579Y-1.0801
X-1.451Y1.5034
X-1.451Y-1.4475
X-1.2965Y1.2111
X-1.2965Y-1.1552
X-1.286Y1.2638
X-1.286Y-1.1025
X-1.286Y1.1584
X-1.286Y-1.2079
X-1.2562Y1.3085
X-1.2562Y1.1137
X-1.2562Y-1.0578
X-1.2562Y-1.2526
X-1.2115Y1.3384
X-1.2115Y1.0838
X-1.2115Y-1.0279
X-1.2115Y-1.2825
X-1.1587Y1.3489
X-1.1587Y1.0733
X-1.1587Y-1.0174
X-1.1587Y-1.293
X-1.1349Y1.7629
X-1.1349Y-1.707
X-1.106Y1.3384
X-1.106Y1.0838
X-1.106Y-1.0279
X-1.106Y-1.2825
X-1.0837Y1.6314
X-1.0613Y1.3085
X-1.0613Y1.1137
X-1.0613Y-1.0578
X-1.0613Y-1.2526
X-1.043Y1.4192
X-1.043Y-1.3633
X-1.0329Y-1.6094
X-1.0325Y1.4719
X-1.0325Y-1.3106
X-1.0325Y1.3665
X-1.0325Y-1.416
X-1.0314Y1.2638
X-1.0314Y-1.1025
X-1.0314Y1.1584
X-1.0314Y-1.2079
X-1.0209Y1.2111
X-1.0209Y-1.1552
X-1.0026Y1.5166
X-1.0026Y1.3218
X-1.0026Y-1.2658
X-1.0026Y-1.4607
X-0.9992Y-0.9366
X-0.9579Y1.5465
X-0.9579Y1.2919
X-0.9579Y-1.236
X-0.9579Y-1.4906
X-0.9052Y1.557
X-0.9052Y1.2814
X-0.9052Y-1.2255
X-0.9052Y-1.5011
X-0.8525Y1.5465
X-0.8525Y1.2919
X-0.8525Y-1.236
X-0.8525Y-1.4906
X-0.8319Y-0.9366
X-0.8319Y-1.0744
X-0.8078Y1.5166
X-0.8078Y1.3218
X-0.8078Y-1.2658
X-0.8078Y-1.4607
X-0.7779Y1.4719
X-0.7779Y-1.3106
X-0.7779Y1.3665
X-0.7779Y-1.416
X-0.7741Y1.9557
X-0.7741Y-1.8998
X-0.7674Y1.4192
X-0.7674Y-1.3633
X-0.5696Y0.5963
X-0.4664Y0.6994
X-0.4622Y0.3281
X-0.4287Y0.3705
X-0.3857Y1.9334
X-0.3827Y2.0745
X-0.3827Y-2.0186
X-0.3259Y-1.8894
X-0.1331Y-1.2063
X-0.0937Y-1.2063
X-0.074Y-1.4287
X-0.0543Y-1.2063
X-0.0539Y0.578
X-0.015Y-1.4287
X0.0244Y2.1146
X0.0244Y-1.1433
X0.0244Y-2.0587
X0.0252Y0.4641
X0.0441Y-1.4287
X0.1031Y-1.4287
X0.1622Y-1.4287
X0.2031Y1.2799
X0.2213Y-1.4287
X0.2803Y-1.4287
X0.3394Y-1.4287
X0.3747Y1.9453
X0.4315Y2.0745
X0.4315Y-2.0186
X0.4345Y-1.8775
X0.6543Y-0.7988
X0.6543Y-0.976
X0.7262Y0.728
X0.8162Y1.4192
X0.8162Y-1.3633
X0.8229Y1.9557
X0.8229Y-1.8998
X0.8267Y1.4719
X0.8267Y-1.3106
X0.8267Y1.3665
X0.8267Y-1.416
X0.8315Y-0.7496
X0.8566Y1.5166
X0.8566Y1.3218
X0.8566Y-1.2658
X0.8566Y-1.4607
X0.9013Y1.5465
X0.9013Y1.2919
X0.9013Y-1.236
X0.9013Y-1.4906
X0.9512Y-0.0705
X0.954Y1.557
X0.954Y1.2814
X0.954Y-1.2255
X0.954Y-1.5011
X1.0067Y1.5465
X1.0067Y1.2919
X1.0067Y-1.236
X1.0067Y-1.4906
X1.0514Y1.5166
X1.0514Y1.3218
X1.0514Y-1.2658
X1.0514Y-1.4607
X1.0698Y1.2111
X1.0698Y-1.1552
X1.0803Y1.2638
X1.0803Y-1.1025
X1.0803Y1.1584
X1.0803Y-1.2079
X1.0813Y1.4719
X1.0813Y-1.3106
X1.0813Y1.3665
X1.0813Y-1.416
X1.0817Y1.6653
X1.0918Y1.4192
X1.0918Y-1.3633
X1.1101Y1.3085
X1.1101Y1.1137
X1.1101Y-1.0578
X1.1101Y-1.2526
X1.1325Y-1.5755
X1.1548Y1.3384
X1.1548Y1.0838
X1.1548Y-1.0279
X1.1548Y-1.2825
X1.1837Y1.7629
X1.1837Y-1.707
X1.2076Y1.3489
X1.2076Y1.0733
X1.2076Y-1.0174
X1.2076Y-1.293
X1.2603Y1.3384
X1.2603Y1.0838
X1.2603Y-1.0279
X1.2603Y-1.2825
X1.305Y1.3085
X1.305Y1.1137
X1.305Y-1.0578
X1.305Y-1.2526
X1.3349Y1.2638
X1.3349Y-1.1025
X1.3349Y1.1584
X1.3349Y-1.2079
X1.3454Y1.2111
X1.3454Y-1.1552
X1.4999Y1.5034
X1.4999Y-1.4475
X1.6278Y1.136
X1.6617Y-1.0294
X1.7594Y1.1872
X1.7594Y-1.1313
X1.9298Y0.4381
X1.9417Y-0.3223
X1.9522Y0.8265
X1.9522Y-0.7706
X2.0709Y0.435
X2.0709Y-0.3791
X2.111Y0.028
T2
X-0.6991Y-0.5905
X-0.6204Y-0.5905
X-0.5416Y-0.5905
X-0.4629Y-0.5905
T3
X0.0244Y-0.287
X0.0244Y-0.4248
X0.0244Y-0.6966
X0.0244Y-0.8344
X0.5437Y0.978
X0.5437Y0.878
X0.5437Y0.778
X0.5437Y0.678
X0.8437Y0.978
X0.8437Y0.878
X0.8437Y0.778
X0.8437Y0.678
T4
X-1.9244Y0.128
X-1.9244Y0.028
X-1.9244Y-0.072
X-1.8143Y0.6813
X-1.8143Y-0.6254
X-1.7761Y0.7737
X-1.7761Y-0.7178
X-1.7378Y0.8661
X-1.7378Y-0.8102
X-1.4243Y1.3353
X-1.4243Y-1.2794
X-1.3536Y1.406
X-1.3536Y-1.3501
X-1.2829Y1.4767
X-1.2829Y-1.4208
X-0.8138Y1.7902
X-0.8138Y-1.7343
X-0.7214Y1.8284
X-0.7214Y-1.7725
X-0.629Y1.8667
X-0.629Y-1.8108
X-0.0756Y1.9768
X-0.0756Y-1.9209
X0.0244Y1.9768
X0.0244Y-1.9209
X0.1244Y1.9768
X0.1244Y-1.9209
X0.6778Y1.8667
X0.6778Y-1.8108
X0.7702Y1.8284
X0.7702Y-1.7725
X0.8626Y1.7902
X0.8626Y-1.7343
X1.1252Y-0.6413
X1.151Y0.178
X1.151Y-0.122
X1.2252Y-0.5413
X1.3252Y-0.6413
X1.3317Y1.4767
X1.3317Y-1.4208
X1.4024Y1.406
X1.4024Y-1.3501
X1.4731Y1.3353
X1.4731Y-1.2794
X1.7866Y0.8661
X1.7866Y-0.8102
X1.8249Y0.7737
X1.8249Y-0.7178
X1.8632Y0.6813
X1.8632Y-0.6254
X1.9732Y0.128
X1.9732Y0.028
X1.9732Y-0.072
T5
X-1.4313Y0.4709
X-1.4313Y0.3724
X-1.4313Y0.274
X-1.4313Y0.1756
X-1.4313Y0.0772
X-1.4313Y-0.0213
X-1.4313Y-0.1197
X-1.4313Y-0.2181
X-1.4313Y-0.3165
X-1.4313Y-0.415
X-1.0778Y-0.5901
X-1.0231Y-0.672
X-0.9684Y-0.7538
X1.0874Y0.835
X1.0874Y0.7366
X1.0874Y0.6382
X1.0874Y0.5398
T6
X-0.8894Y0.1736
X-0.8894Y0.0736
X-0.8894Y-0.0264
X-0.8894Y-0.1264
X-0.8894Y-0.2264
X-0.8894Y-0.3264
X-0.6155Y0.228
X-0.6155Y0.128
X-0.6155Y0.028
X-0.6155Y-0.072
X-0.6155Y-0.172
X-0.5155Y0.228
X-0.5155Y0.128
X-0.5155Y0.028
X-0.5155Y-0.072
X-0.5155Y-0.172
X-0.2756Y1.178
X-0.2756Y1.078
X-0.2756Y0.978
X-0.2756Y0.878
X-0.2756Y0.778
X-0.2756Y0.678
X-0.2756Y0.578
X-0.2756Y0.478
X-0.2756Y0.378
X-0.2756Y0.278
X-0.2756Y0.178
X-0.2756Y0.078
X-0.2756Y-0.022
X-0.2756Y-0.122
X-0.2756Y-0.222
X-0.2756Y-0.322
X-0.2756Y-0.422
X-0.2756Y-0.522
X-0.2756Y-0.622
X-0.2756Y-0.722
X-0.2756Y-0.822
X-0.2756Y-0.922
X-0.2756Y-1.022
X-0.2756Y-1.122
X-0.1756Y0.678
X-0.0756Y0.678
X0.3244Y1.178
X0.3244Y1.078
X0.3244Y0.978
X0.3244Y0.878
X0.3244Y0.778
X0.3244Y0.678
X0.3244Y0.578
X0.3244Y0.478
X0.3244Y0.378
X0.3244Y0.278
X0.3244Y0.178
X0.3244Y0.078
X0.3244Y-0.022
X0.3244Y-0.122
X0.3244Y-0.222
X0.3244Y-0.322
X0.3244Y-0.422
X0.3244Y-0.522
X0.3244Y-0.622
X0.3244Y-0.722
X0.3244Y-0.822
X0.3244Y-0.922
X0.3244Y-1.022
X0.3244Y-1.122
X0.5512Y0.328
X0.5512Y-0.272
X0.6512Y0.328
X0.6512Y-0.272
X0.7512Y0.328
X0.7512Y-0.272
X0.8512Y0.328
X0.8512Y-0.272
X0.9512Y0.328
X0.9512Y-0.272
X1.0512Y0.328
X1.0512Y-0.272
X1.1512Y0.328
X1.1512Y-0.272
T7
X-1.4237Y-0.8194
X-1.3405Y-0.7638
X-1.3126Y-0.9857
X-1.2574Y-0.7083
X-1.2294Y-0.9301
X-1.1463Y-0.8746
T8
X-1.7866Y0.228
X-1.7866Y0.128
X-1.7866Y0.028
X-1.7866Y-0.072
X-1.7866Y-0.172
X-0.1756Y1.839
X-0.0756Y1.839
X0.0244Y1.839
X0.1244Y1.839
X0.2244Y1.839
X1.8354Y0.228
X1.8354Y0.128
X1.8354Y0.028
X1.8354Y-0.072
X1.8354Y-0.172
T9
G00X0.5657Y-0.6551
M15
G01X0.5657Y-0.6276
M16
G05
G00X0.5657Y-0.8717
M15
G01X0.5657Y-0.8441
M16
G05
G00X0.5657Y-1.0882
M15
G01X0.5657Y-1.0606
M16
G05
G00X0.8217Y-0.6551
M15
G01X0.8217Y-0.6276
M16
G05
G00X0.8217Y-0.8717
M15
G01X0.8217Y-0.8441
M16
G05
G00X0.8217Y-1.0882
M15
G01X0.8217Y-1.0606
M16
G05
M30
