%TF.GenerationSoftware,KiCad,Pcbnew,8.0.1*%
%TF.CreationDate,2024-11-12T23:52:01+09:00*%
%TF.ProjectId,Main-20240325,4d61696e-2d32-4303-9234-303332352e6b,rev?*%
%TF.SameCoordinates,Original*%
%TF.FileFunction,Legend,Top*%
%TF.FilePolarity,Positive*%
%FSLAX46Y46*%
G04 Gerber Fmt 4.6, Leading zero omitted, Abs format (unit mm)*
G04 Created by KiCad (PCBNEW 8.0.1) date 2024-11-12 23:52:01*
%MOMM*%
%LPD*%
G01*
G04 APERTURE LIST*
G04 Aperture macros list*
%AMRoundRect*
0 Rectangle with rounded corners*
0 $1 Rounding radius*
0 $2 $3 $4 $5 $6 $7 $8 $9 X,Y pos of 4 corners*
0 Add a 4 corners polygon primitive as box body*
4,1,4,$2,$3,$4,$5,$6,$7,$8,$9,$2,$3,0*
0 Add four circle primitives for the rounded corners*
1,1,$1+$1,$2,$3*
1,1,$1+$1,$4,$5*
1,1,$1+$1,$6,$7*
1,1,$1+$1,$8,$9*
0 Add four rect primitives between the rounded corners*
20,1,$1+$1,$2,$3,$4,$5,0*
20,1,$1+$1,$4,$5,$6,$7,0*
20,1,$1+$1,$6,$7,$8,$9,0*
20,1,$1+$1,$8,$9,$2,$3,0*%
%AMHorizOval*
0 Thick line with rounded ends*
0 $1 width*
0 $2 $3 position (X,Y) of the first rounded end (center of the circle)*
0 $4 $5 position (X,Y) of the second rounded end (center of the circle)*
0 Add line between two ends*
20,1,$1,$2,$3,$4,$5,0*
0 Add two circle primitives to create the rounded ends*
1,1,$1,$2,$3*
1,1,$1,$4,$5*%
G04 Aperture macros list end*
%ADD10C,0.150000*%
%ADD11C,0.175000*%
%ADD12C,0.120000*%
%ADD13C,0.100000*%
%ADD14C,0.775000*%
%ADD15C,3.200000*%
%ADD16O,2.000000X2.700000*%
%ADD17O,2.000000X1.200000*%
%ADD18R,2.000000X1.200000*%
%ADD19C,2.000000*%
%ADD20R,1.800000X1.800000*%
%ADD21O,1.800000X1.800000*%
%ADD22RoundRect,0.218750X0.218750X0.256250X-0.218750X0.256250X-0.218750X-0.256250X0.218750X-0.256250X0*%
%ADD23R,1.700000X1.700000*%
%ADD24O,1.700000X1.700000*%
%ADD25O,1.200000X2.000000*%
%ADD26R,1.600000X1.600000*%
%ADD27C,1.600000*%
%ADD28R,1.524000X1.524000*%
%ADD29C,1.524000*%
%ADD30RoundRect,0.250000X0.725000X-0.600000X0.725000X0.600000X-0.725000X0.600000X-0.725000X-0.600000X0*%
%ADD31O,1.950000X1.700000*%
%ADD32RoundRect,0.250200X0.649800X0.649800X-0.649800X0.649800X-0.649800X-0.649800X0.649800X-0.649800X0*%
%ADD33C,1.800000*%
%ADD34RoundRect,0.250200X-0.351669X0.849005X-0.849005X-0.351669X0.351669X-0.849005X0.849005X0.351669X0*%
%ADD35HorizOval,1.400000X0.305564X-0.457308X-0.305564X0.457308X0*%
%ADD36RoundRect,0.250200X0.649800X-0.649800X0.649800X0.649800X-0.649800X0.649800X-0.649800X-0.649800X0*%
%ADD37RoundRect,0.250200X-0.849005X-0.351669X0.351669X-0.849005X0.849005X0.351669X-0.351669X0.849005X0*%
%ADD38RoundRect,0.250200X0.918956X0.000000X0.000000X0.918956X-0.918956X0.000000X0.000000X-0.918956X0*%
%ADD39RoundRect,0.250200X0.000000X-0.918956X0.918956X0.000000X0.000000X0.918956X-0.918956X0.000000X0*%
%ADD40RoundRect,0.250200X0.000000X0.918956X-0.918956X0.000000X0.000000X-0.918956X0.918956X0.000000X0*%
%ADD41RoundRect,0.250200X-0.918956X0.000000X0.000000X-0.918956X0.918956X0.000000X0.000000X0.918956X0*%
%ADD42RoundRect,0.250200X-0.351669X-0.849005X0.849005X-0.351669X0.351669X0.849005X-0.849005X0.351669X0*%
%ADD43RoundRect,0.250000X-0.936158X0.096093X-0.269473X-0.901670X0.936158X-0.096093X0.269473X0.901670X0*%
%ADD44HorizOval,1.700000X-0.103934X-0.069446X0.103934X0.069446X0*%
%ADD45RoundRect,0.250200X0.351669X0.849005X-0.849005X0.351669X-0.351669X-0.849005X0.849005X-0.351669X0*%
%ADD46RoundRect,0.250200X0.351669X-0.849005X0.849005X0.351669X-0.351669X0.849005X-0.849005X-0.351669X0*%
%ADD47RoundRect,0.250200X-0.849005X0.351669X-0.351669X-0.849005X0.849005X-0.351669X0.351669X0.849005X0*%
%ADD48RoundRect,0.250200X-0.649800X0.649800X-0.649800X-0.649800X0.649800X-0.649800X0.649800X0.649800X0*%
%ADD49RoundRect,0.250200X-0.649800X-0.649800X0.649800X-0.649800X0.649800X0.649800X-0.649800X0.649800X0*%
%ADD50RoundRect,0.250200X0.849005X-0.351669X0.351669X0.849005X-0.849005X0.351669X-0.351669X-0.849005X0*%
%ADD51RoundRect,0.250200X0.849005X0.351669X-0.351669X0.849005X-0.849005X-0.351669X0.351669X-0.849005X0*%
G04 APERTURE END LIST*
D10*
X1500000Y-30000000D02*
X-1500000Y-30000000D01*
X0Y-28500000D01*
X1500000Y-30000000D01*
G36*
X1500000Y-30000000D02*
G01*
X-1500000Y-30000000D01*
X0Y-28500000D01*
X1500000Y-30000000D01*
G37*
X33500000Y-1500000D02*
X32000000Y0D01*
X33500000Y1500000D01*
X33500000Y-1500000D01*
G36*
X33500000Y-1500000D02*
G01*
X32000000Y0D01*
X33500000Y1500000D01*
X33500000Y-1500000D01*
G37*
D11*
G36*
X-25331665Y-1029924D02*
G01*
X-25332358Y-1071311D01*
X-25334922Y-1114752D01*
X-25340164Y-1158011D01*
X-25349010Y-1198531D01*
X-25351399Y-1206365D01*
X-25368827Y-1245483D01*
X-25394243Y-1279014D01*
X-25424281Y-1304648D01*
X-25459769Y-1324432D01*
X-25499798Y-1336888D01*
X-25539707Y-1341834D01*
X-25553828Y-1342164D01*
X-25593678Y-1339359D01*
X-25633369Y-1329794D01*
X-25668720Y-1313441D01*
X-25702361Y-1289023D01*
X-25730892Y-1258559D01*
X-25747073Y-1234892D01*
X-25764561Y-1197132D01*
X-25776324Y-1157748D01*
X-25778727Y-1147551D01*
X-25793723Y-1186044D01*
X-25808622Y-1212422D01*
X-25836612Y-1239863D01*
X-25851609Y-1252087D01*
X-25883620Y-1276040D01*
X-25902020Y-1287063D01*
X-26132000Y-1407425D01*
X-26132000Y-1126058D01*
X-25887170Y-993190D01*
X-25851983Y-972048D01*
X-25825426Y-948053D01*
X-25809474Y-911600D01*
X-25806863Y-887090D01*
X-25806863Y-865011D01*
X-25656801Y-865011D01*
X-25656801Y-969938D01*
X-25651148Y-1011007D01*
X-25645859Y-1035981D01*
X-25626765Y-1071318D01*
X-25620848Y-1076427D01*
X-25583957Y-1091509D01*
X-25574344Y-1092059D01*
X-25534739Y-1083311D01*
X-25514944Y-1067244D01*
X-25498784Y-1028788D01*
X-25494415Y-986835D01*
X-25494233Y-974432D01*
X-25494233Y-865011D01*
X-25656801Y-865011D01*
X-25806863Y-865011D01*
X-26132000Y-865011D01*
X-26132000Y-615102D01*
X-25331665Y-615102D01*
X-25331665Y-1029924D01*
G37*
G36*
X-25331665Y-1426965D02*
G01*
X-25331665Y-1701103D01*
X-25577861Y-1844132D01*
X-25331665Y-1982471D01*
X-25331665Y-2254069D01*
X-25719327Y-2003378D01*
X-26132000Y-2277711D01*
X-26132000Y-1997907D01*
X-25874861Y-1839051D01*
X-26132000Y-1679805D01*
X-26132000Y-1401564D01*
X-25714833Y-1679805D01*
X-25331665Y-1426965D01*
G37*
D10*
G36*
X-17869207Y-24208054D02*
G01*
X-17474633Y-24208054D01*
X-17474633Y-23809450D01*
X-17141608Y-23809450D01*
X-17141608Y-24208054D01*
X-16744836Y-24208054D01*
X-16744836Y-24536317D01*
X-17141608Y-24536317D01*
X-17141608Y-24934921D01*
X-17474633Y-24934921D01*
X-17474633Y-24536317D01*
X-17869207Y-24536317D01*
X-17869207Y-24208054D01*
G37*
G36*
X-16120184Y-24067370D02*
G01*
X-16516957Y-24001425D01*
X-16495203Y-23931418D01*
X-16461716Y-23857882D01*
X-16419498Y-23793112D01*
X-16368550Y-23737108D01*
X-16326814Y-23702472D01*
X-16259672Y-23661930D01*
X-16181346Y-23631345D01*
X-16105307Y-23613056D01*
X-16021050Y-23602082D01*
X-15944559Y-23598526D01*
X-15928576Y-23598424D01*
X-15840076Y-23601036D01*
X-15759590Y-23608871D01*
X-15687119Y-23621930D01*
X-15610732Y-23644496D01*
X-15536200Y-23680329D01*
X-15500662Y-23705403D01*
X-15442960Y-23762166D01*
X-15401744Y-23825845D01*
X-15377015Y-23896439D01*
X-15368771Y-23973948D01*
X-15377660Y-24047844D01*
X-15407112Y-24120934D01*
X-15422627Y-24145406D01*
X-15475096Y-24204773D01*
X-15533567Y-24250095D01*
X-15584193Y-24280228D01*
X-15511201Y-24302366D01*
X-15450471Y-24331153D01*
X-15391135Y-24377866D01*
X-15344563Y-24435939D01*
X-15333600Y-24454617D01*
X-15305050Y-24526976D01*
X-15292854Y-24604338D01*
X-15291835Y-24636700D01*
X-15297312Y-24710667D01*
X-15313744Y-24782953D01*
X-15341130Y-24853558D01*
X-15361078Y-24892056D01*
X-15404631Y-24956247D01*
X-15457806Y-25011570D01*
X-15520603Y-25058025D01*
X-15559647Y-25080001D01*
X-15629600Y-25108852D01*
X-15709765Y-25129460D01*
X-15788287Y-25140730D01*
X-15861814Y-25145367D01*
X-15900732Y-25145947D01*
X-15974891Y-25144260D01*
X-16053693Y-25138026D01*
X-16133578Y-25125278D01*
X-16210475Y-25103765D01*
X-16225697Y-25097953D01*
X-16296001Y-25063399D01*
X-16358075Y-25020187D01*
X-16411921Y-24968316D01*
X-16421702Y-24956903D01*
X-16466088Y-24894127D01*
X-16503533Y-24822121D01*
X-16531299Y-24749423D01*
X-16539305Y-24723529D01*
X-16120184Y-24677001D01*
X-16097911Y-24747291D01*
X-16059201Y-24809507D01*
X-16043614Y-24823913D01*
X-15975866Y-24856795D01*
X-15910990Y-24864579D01*
X-15838192Y-24851780D01*
X-15774204Y-24809911D01*
X-15770673Y-24806327D01*
X-15730176Y-24742920D01*
X-15714749Y-24668488D01*
X-15714253Y-24650622D01*
X-15723202Y-24577391D01*
X-15755766Y-24511375D01*
X-15768475Y-24497116D01*
X-15832039Y-24456174D01*
X-15909265Y-24442581D01*
X-15915020Y-24442527D01*
X-15991299Y-24451687D01*
X-16050942Y-24465975D01*
X-16029326Y-24156763D01*
X-15974738Y-24161160D01*
X-15899175Y-24149894D01*
X-15837351Y-24116097D01*
X-15791160Y-24056773D01*
X-15782030Y-24009485D01*
X-15803417Y-23936997D01*
X-15823429Y-23915329D01*
X-15890696Y-23883991D01*
X-15936636Y-23879792D01*
X-16011494Y-23893007D01*
X-16057536Y-23921557D01*
X-16098208Y-23983328D01*
X-16118008Y-24054565D01*
X-16120184Y-24067370D01*
G37*
G36*
X-15086304Y-24700448D02*
G01*
X-14638241Y-24700448D01*
X-14638241Y-25122500D01*
X-15086304Y-25122500D01*
X-15086304Y-24700448D01*
G37*
G36*
X-14021650Y-24067370D02*
G01*
X-14418422Y-24001425D01*
X-14396668Y-23931418D01*
X-14363181Y-23857882D01*
X-14320964Y-23793112D01*
X-14270016Y-23737108D01*
X-14228279Y-23702472D01*
X-14161138Y-23661930D01*
X-14082811Y-23631345D01*
X-14006772Y-23613056D01*
X-13922515Y-23602082D01*
X-13846024Y-23598526D01*
X-13830041Y-23598424D01*
X-13741542Y-23601036D01*
X-13661056Y-23608871D01*
X-13588584Y-23621930D01*
X-13512197Y-23644496D01*
X-13437665Y-23680329D01*
X-13402128Y-23705403D01*
X-13344426Y-23762166D01*
X-13303210Y-23825845D01*
X-13278480Y-23896439D01*
X-13270237Y-23973948D01*
X-13279125Y-24047844D01*
X-13308577Y-24120934D01*
X-13324092Y-24145406D01*
X-13376561Y-24204773D01*
X-13435032Y-24250095D01*
X-13485659Y-24280228D01*
X-13412667Y-24302366D01*
X-13351936Y-24331153D01*
X-13292601Y-24377866D01*
X-13246028Y-24435939D01*
X-13235066Y-24454617D01*
X-13206515Y-24526976D01*
X-13194320Y-24604338D01*
X-13193300Y-24636700D01*
X-13198777Y-24710667D01*
X-13215209Y-24782953D01*
X-13242595Y-24853558D01*
X-13262543Y-24892056D01*
X-13306097Y-24956247D01*
X-13359272Y-25011570D01*
X-13422068Y-25058025D01*
X-13461113Y-25080001D01*
X-13531065Y-25108852D01*
X-13611230Y-25129460D01*
X-13689752Y-25140730D01*
X-13763280Y-25145367D01*
X-13802198Y-25145947D01*
X-13876356Y-25144260D01*
X-13955159Y-25138026D01*
X-14035043Y-25125278D01*
X-14111940Y-25103765D01*
X-14127163Y-25097953D01*
X-14197466Y-25063399D01*
X-14259541Y-25020187D01*
X-14313386Y-24968316D01*
X-14323168Y-24956903D01*
X-14367554Y-24894127D01*
X-14404999Y-24822121D01*
X-14432765Y-24749423D01*
X-14440771Y-24723529D01*
X-14021650Y-24677001D01*
X-13999376Y-24747291D01*
X-13960666Y-24809507D01*
X-13945080Y-24823913D01*
X-13877331Y-24856795D01*
X-13812456Y-24864579D01*
X-13739657Y-24851780D01*
X-13675669Y-24809911D01*
X-13672138Y-24806327D01*
X-13631642Y-24742920D01*
X-13616214Y-24668488D01*
X-13615718Y-24650622D01*
X-13624667Y-24577391D01*
X-13657232Y-24511375D01*
X-13669940Y-24497116D01*
X-13733504Y-24456174D01*
X-13810731Y-24442581D01*
X-13816486Y-24442527D01*
X-13892764Y-24451687D01*
X-13952407Y-24465975D01*
X-13930792Y-24156763D01*
X-13876203Y-24161160D01*
X-13800641Y-24149894D01*
X-13738817Y-24116097D01*
X-13692626Y-24056773D01*
X-13683496Y-24009485D01*
X-13704883Y-23936997D01*
X-13724895Y-23915329D01*
X-13792162Y-23883991D01*
X-13838101Y-23879792D01*
X-13912960Y-23893007D01*
X-13959002Y-23921557D01*
X-13999673Y-23983328D01*
X-14019473Y-24054565D01*
X-14021650Y-24067370D01*
G37*
G36*
X-13110502Y-23621871D02*
G01*
X-12622138Y-23621871D01*
X-12282152Y-24701913D01*
X-11947295Y-23621871D01*
X-11473220Y-23621871D01*
X-12033757Y-25122500D01*
X-12539706Y-25122500D01*
X-13110502Y-23621871D01*
G37*
G36*
X-18192588Y13375221D02*
G01*
X-18109469Y13364058D01*
X-18035315Y13344523D01*
X-17960131Y13311152D01*
X-17897149Y13266385D01*
X-17889148Y13259059D01*
X-17839898Y13202163D01*
X-17802745Y13135660D01*
X-17777688Y13059550D01*
X-17765838Y12986667D01*
X-17762752Y12920539D01*
X-17767595Y12839249D01*
X-17782124Y12764914D01*
X-17811316Y12686981D01*
X-17853691Y12618514D01*
X-17900505Y12567363D01*
X-17967554Y12517828D01*
X-18036076Y12485053D01*
X-18114798Y12461216D01*
X-18188193Y12448181D01*
X-18268671Y12441352D01*
X-18320359Y12440235D01*
X-18575715Y12440235D01*
X-18575715Y11877500D01*
X-19044661Y11877500D01*
X-19044661Y13073312D01*
X-18575715Y13073312D01*
X-18575715Y12745050D01*
X-18461409Y12745050D01*
X-18384787Y12749487D01*
X-18308714Y12768519D01*
X-18271632Y12790479D01*
X-18227493Y12850114D01*
X-18217044Y12907716D01*
X-18233835Y12982451D01*
X-18264671Y13024952D01*
X-18332815Y13061222D01*
X-18411332Y13072557D01*
X-18442724Y13073312D01*
X-18575715Y13073312D01*
X-19044661Y13073312D01*
X-19044661Y13378128D01*
X-18268701Y13378128D01*
X-18192588Y13375221D01*
G37*
G36*
X-17539637Y13378128D02*
G01*
X-17120149Y13378128D01*
X-17120149Y13096760D01*
X-17539637Y13096760D01*
X-17539637Y13378128D01*
G37*
G36*
X-17539637Y12979523D02*
G01*
X-17120149Y12979523D01*
X-17120149Y11877500D01*
X-17539637Y11877500D01*
X-17539637Y12979523D01*
G37*
G36*
X-16950889Y12979523D02*
G01*
X-16453000Y12979523D01*
X-16278977Y12672510D01*
X-16077110Y12979523D01*
X-15614392Y12979523D01*
X-15987351Y12454523D01*
X-15587648Y11877500D01*
X-16077110Y11877500D01*
X-16278977Y12232506D01*
X-16517114Y11877500D01*
X-16971406Y11877500D01*
X-16573534Y12454523D01*
X-16950889Y12979523D01*
G37*
G36*
X-15578122Y12979523D02*
G01*
X-15135188Y12979523D01*
X-14909507Y12245696D01*
X-14700313Y12979523D01*
X-14287055Y12979523D01*
X-14720830Y11802028D01*
X-14748809Y11731450D01*
X-14781680Y11660667D01*
X-14819547Y11595014D01*
X-14867332Y11535809D01*
X-14872138Y11531285D01*
X-14934031Y11487848D01*
X-15010166Y11456822D01*
X-15088467Y11439854D01*
X-15164262Y11432873D01*
X-15205163Y11432001D01*
X-15279109Y11434858D01*
X-15357061Y11441446D01*
X-15439539Y11450513D01*
X-15485432Y11456181D01*
X-15518405Y11743777D01*
X-15441434Y11724088D01*
X-15364265Y11714823D01*
X-15316538Y11713368D01*
X-15241911Y11724265D01*
X-15196371Y11747807D01*
X-15146896Y11807946D01*
X-15118701Y11871271D01*
X-15578122Y12979523D01*
G37*
G36*
X-12986095Y11877500D02*
G01*
X-14245289Y11877500D01*
X-14231625Y11958977D01*
X-14209546Y12038315D01*
X-14179052Y12115514D01*
X-14140142Y12190575D01*
X-14114131Y12232506D01*
X-14066166Y12296885D01*
X-14015883Y12353387D01*
X-13956228Y12412483D01*
X-13901754Y12461627D01*
X-13841281Y12512432D01*
X-13774809Y12564896D01*
X-13702337Y12619021D01*
X-13637783Y12667286D01*
X-13574320Y12717801D01*
X-13517419Y12767890D01*
X-13466399Y12823452D01*
X-13429320Y12887444D01*
X-13414741Y12956076D01*
X-13432694Y13029893D01*
X-13465666Y13072213D01*
X-13531302Y13111021D01*
X-13593893Y13120207D01*
X-13667075Y13107201D01*
X-13725418Y13068183D01*
X-13765834Y13002367D01*
X-13787619Y12924674D01*
X-13793928Y12885734D01*
X-14214514Y12920539D01*
X-14201652Y12994222D01*
X-14182143Y13069286D01*
X-14154064Y13142074D01*
X-14123656Y13196411D01*
X-14077181Y13253920D01*
X-14020187Y13302342D01*
X-13952674Y13341676D01*
X-13937909Y13348452D01*
X-13863012Y13374132D01*
X-13784175Y13389902D01*
X-13705726Y13398255D01*
X-13631451Y13401367D01*
X-13605251Y13401575D01*
X-13525721Y13399823D01*
X-13441662Y13393352D01*
X-13366999Y13382112D01*
X-13293177Y13363427D01*
X-13260868Y13351749D01*
X-13188891Y13315650D01*
X-13127288Y13269174D01*
X-13076062Y13212323D01*
X-13067062Y13199708D01*
X-13029774Y13133162D01*
X-13006297Y13061749D01*
X-12996629Y12985471D01*
X-12996353Y12969631D01*
X-13002758Y12894515D01*
X-13021972Y12821254D01*
X-13053994Y12749847D01*
X-13077320Y12710978D01*
X-13126069Y12647735D01*
X-13182286Y12589917D01*
X-13240547Y12538517D01*
X-13308107Y12485417D01*
X-13371510Y12439869D01*
X-13436177Y12395526D01*
X-13497190Y12352428D01*
X-13541137Y12319335D01*
X-13597028Y12270948D01*
X-13641521Y12229209D01*
X-12986095Y12229209D01*
X-12986095Y11877500D01*
G37*
G36*
X-12773604Y12299551D02*
G01*
X-12325540Y12299551D01*
X-12325540Y11877500D01*
X-12773604Y11877500D01*
X-12773604Y12299551D01*
G37*
G36*
X-11164898Y13401575D02*
G01*
X-11164898Y11877500D01*
X-11589514Y11877500D01*
X-11589514Y12875476D01*
X-11653213Y12828528D01*
X-11715624Y12787520D01*
X-11782788Y12749270D01*
X-11788817Y12746149D01*
X-11860818Y12712622D01*
X-11936266Y12682970D01*
X-12012306Y12656955D01*
X-12030251Y12651261D01*
X-12030251Y13002971D01*
X-11953254Y13029353D01*
X-11883007Y13057668D01*
X-11809581Y13093143D01*
X-11745342Y13131248D01*
X-11697592Y13166003D01*
X-11641630Y13216584D01*
X-11592079Y13272706D01*
X-11548940Y13334370D01*
X-11512212Y13401575D01*
X-11164898Y13401575D01*
G37*
G36*
X22099651Y-26574581D02*
G01*
X22509002Y-26574581D01*
X22667027Y-27180792D01*
X22824319Y-26574581D01*
X23232449Y-26574581D01*
X23232449Y-27575000D01*
X22978192Y-27575000D01*
X22978192Y-26807100D01*
X22781088Y-27575000D01*
X22551011Y-27575000D01*
X22354396Y-26807100D01*
X22354396Y-27575000D01*
X22099651Y-27575000D01*
X22099651Y-26574581D01*
G37*
G36*
X23822686Y-26825363D02*
G01*
X23877057Y-26827798D01*
X23930816Y-26832654D01*
X23972016Y-26838852D01*
X24021544Y-26852227D01*
X24068662Y-26875114D01*
X24099267Y-26897958D01*
X24131140Y-26935511D01*
X24154146Y-26982583D01*
X24155443Y-26986130D01*
X24169634Y-27034943D01*
X24176021Y-27085064D01*
X24176203Y-27094818D01*
X24176203Y-27418928D01*
X24178213Y-27470070D01*
X24182554Y-27500017D01*
X24198894Y-27548052D01*
X24211130Y-27575000D01*
X23948813Y-27575000D01*
X23928053Y-27531524D01*
X23918527Y-27484385D01*
X23880832Y-27517274D01*
X23839908Y-27545054D01*
X23809351Y-27560345D01*
X23760607Y-27576316D01*
X23707188Y-27586372D01*
X23655114Y-27590365D01*
X23636915Y-27590631D01*
X23582762Y-27587849D01*
X23528258Y-27577858D01*
X23481631Y-27560601D01*
X23438590Y-27532501D01*
X23402912Y-27493499D01*
X23380449Y-27449153D01*
X23371199Y-27399465D01*
X23370935Y-27388886D01*
X23373423Y-27366660D01*
X23651325Y-27366660D01*
X23670181Y-27411842D01*
X23674284Y-27415509D01*
X23720950Y-27433140D01*
X23741939Y-27434316D01*
X23792335Y-27427824D01*
X23828646Y-27413799D01*
X23869862Y-27384719D01*
X23885799Y-27363974D01*
X23901006Y-27314910D01*
X23902651Y-27287037D01*
X23902651Y-27246737D01*
X23855012Y-27261134D01*
X23805759Y-27274160D01*
X23782484Y-27279710D01*
X23731298Y-27293728D01*
X23685406Y-27312565D01*
X23674773Y-27320010D01*
X23651417Y-27363416D01*
X23651325Y-27366660D01*
X23373423Y-27366660D01*
X23376707Y-27337325D01*
X23396170Y-27288713D01*
X23419783Y-27257484D01*
X23462982Y-27225170D01*
X23512882Y-27203369D01*
X23560748Y-27189297D01*
X23599790Y-27180792D01*
X23654885Y-27169987D01*
X23709330Y-27159009D01*
X23758587Y-27148609D01*
X23803733Y-27138049D01*
X23851788Y-27123944D01*
X23899390Y-27107282D01*
X23902651Y-27106053D01*
X23895928Y-27057418D01*
X23881402Y-27033269D01*
X23834075Y-27013925D01*
X23806420Y-27012264D01*
X23756299Y-27016214D01*
X23707787Y-27033301D01*
X23703349Y-27036200D01*
X23672720Y-27074658D01*
X23660118Y-27106053D01*
X23392916Y-27074790D01*
X23404886Y-27025150D01*
X23423050Y-26976605D01*
X23436392Y-26952180D01*
X23468710Y-26912732D01*
X23508848Y-26880755D01*
X23518702Y-26874511D01*
X23564314Y-26853323D01*
X23612075Y-26840154D01*
X23624459Y-26837630D01*
X23676528Y-26829742D01*
X23726914Y-26825709D01*
X23770027Y-26824685D01*
X23822686Y-26825363D01*
G37*
G36*
X24348639Y-26574581D02*
G01*
X24628297Y-26574581D01*
X24628297Y-26762159D01*
X24348639Y-26762159D01*
X24348639Y-26574581D01*
G37*
G36*
X24348639Y-26840317D02*
G01*
X24628297Y-26840317D01*
X24628297Y-27575000D01*
X24348639Y-27575000D01*
X24348639Y-26840317D01*
G37*
G36*
X24804396Y-26840317D02*
G01*
X25064759Y-26840317D01*
X25064759Y-26959508D01*
X25097691Y-26921988D01*
X25134508Y-26888004D01*
X25175283Y-26859988D01*
X25182728Y-26855949D01*
X25231283Y-26836898D01*
X25282248Y-26827158D01*
X25328541Y-26824685D01*
X25383389Y-26829036D01*
X25431917Y-26842088D01*
X25478957Y-26867172D01*
X25510013Y-26894295D01*
X25541773Y-26939302D01*
X25561278Y-26989364D01*
X25571608Y-27040932D01*
X25575458Y-27090901D01*
X25575715Y-27108740D01*
X25575715Y-27575000D01*
X25294836Y-27575000D01*
X25294836Y-27170289D01*
X25290643Y-27120662D01*
X25270997Y-27074174D01*
X25269434Y-27072348D01*
X25227259Y-27046933D01*
X25198115Y-27043527D01*
X25149514Y-27054487D01*
X25115561Y-27082362D01*
X25094023Y-27128123D01*
X25085562Y-27180607D01*
X25084054Y-27221580D01*
X25084054Y-27575000D01*
X24804396Y-27575000D01*
X24804396Y-26840317D01*
G37*
G36*
X22677484Y-28255448D02*
G01*
X22731786Y-28258652D01*
X22785859Y-28265205D01*
X22836509Y-28276262D01*
X22846301Y-28279249D01*
X22895199Y-28301034D01*
X22937113Y-28332804D01*
X22969155Y-28370352D01*
X22993885Y-28414712D01*
X23009455Y-28464748D01*
X23015638Y-28514634D01*
X23016050Y-28532285D01*
X23012544Y-28582097D01*
X23000587Y-28631711D01*
X22980146Y-28675900D01*
X22949623Y-28717951D01*
X22911544Y-28753615D01*
X22881960Y-28773841D01*
X22834760Y-28795701D01*
X22785530Y-28810405D01*
X22772784Y-28813408D01*
X22820900Y-28832154D01*
X22853872Y-28850778D01*
X22888173Y-28885765D01*
X22903454Y-28904511D01*
X22933395Y-28944525D01*
X22947173Y-28967526D01*
X23097627Y-29255000D01*
X22745917Y-29255000D01*
X22579832Y-28948963D01*
X22553405Y-28904979D01*
X22523412Y-28871782D01*
X22477845Y-28851842D01*
X22447208Y-28848579D01*
X22419609Y-28848579D01*
X22419609Y-29255000D01*
X22107222Y-29255000D01*
X22107222Y-28457791D01*
X22419609Y-28457791D01*
X22419609Y-28661001D01*
X22550767Y-28661001D01*
X22602104Y-28653935D01*
X22633321Y-28647323D01*
X22677493Y-28623457D01*
X22683879Y-28616060D01*
X22702732Y-28569946D01*
X22703419Y-28557930D01*
X22692484Y-28508424D01*
X22672400Y-28483681D01*
X22624330Y-28463480D01*
X22571889Y-28458018D01*
X22556385Y-28457791D01*
X22419609Y-28457791D01*
X22107222Y-28457791D01*
X22107222Y-28254581D01*
X22625750Y-28254581D01*
X22677484Y-28255448D01*
G37*
G36*
X23137194Y-28914769D02*
G01*
X23433217Y-28895474D01*
X23443177Y-28946547D01*
X23461917Y-28993544D01*
X23472295Y-29009535D01*
X23510252Y-29045551D01*
X23557965Y-29066617D01*
X23609804Y-29072794D01*
X23658901Y-29067715D01*
X23705384Y-29047519D01*
X23712386Y-29042020D01*
X23742568Y-29001945D01*
X23748534Y-28970457D01*
X23733703Y-28923383D01*
X23714096Y-28901580D01*
X23671318Y-28877339D01*
X23624134Y-28861217D01*
X23570126Y-28847341D01*
X23554849Y-28843939D01*
X23505512Y-28832169D01*
X23448993Y-28816127D01*
X23398198Y-28798605D01*
X23353128Y-28779605D01*
X23306600Y-28754852D01*
X23262735Y-28723283D01*
X23228474Y-28688277D01*
X23199623Y-28643405D01*
X23181763Y-28593343D01*
X23174893Y-28538091D01*
X23174808Y-28530819D01*
X23180118Y-28478936D01*
X23196049Y-28429072D01*
X23219748Y-28385495D01*
X23252273Y-28345615D01*
X23293670Y-28311459D01*
X23338514Y-28285613D01*
X23355059Y-28278028D01*
X23404426Y-28260931D01*
X23454485Y-28249978D01*
X23510949Y-28242766D01*
X23564444Y-28239560D01*
X23602721Y-28238949D01*
X23660847Y-28240679D01*
X23714476Y-28245866D01*
X23763610Y-28254513D01*
X23816636Y-28269453D01*
X23863187Y-28289374D01*
X23897034Y-28309780D01*
X23937452Y-28344765D01*
X23970017Y-28387745D01*
X23994727Y-28438718D01*
X24009656Y-28488773D01*
X24017690Y-28534972D01*
X23724354Y-28551580D01*
X23710596Y-28504281D01*
X23682043Y-28462226D01*
X23675261Y-28456325D01*
X23630748Y-28433977D01*
X23580078Y-28426644D01*
X23571946Y-28426528D01*
X23521849Y-28432938D01*
X23490125Y-28449242D01*
X23464079Y-28490697D01*
X23462770Y-28504441D01*
X23485484Y-28547184D01*
X23532856Y-28569440D01*
X23584691Y-28582520D01*
X23589776Y-28583576D01*
X23638953Y-28594407D01*
X23695336Y-28608009D01*
X23746067Y-28621684D01*
X23799482Y-28638187D01*
X23851511Y-28657571D01*
X23881891Y-28671503D01*
X23927799Y-28698208D01*
X23969836Y-28731868D01*
X24002427Y-28769725D01*
X24010362Y-28781901D01*
X24033307Y-28829086D01*
X24046727Y-28879965D01*
X24050662Y-28929424D01*
X24046412Y-28982120D01*
X24033661Y-29032498D01*
X24012409Y-29080558D01*
X23996929Y-29106256D01*
X23963460Y-29148639D01*
X23923230Y-29184841D01*
X23881792Y-29211830D01*
X23847208Y-29228866D01*
X23796070Y-29247138D01*
X23746165Y-29258844D01*
X23691444Y-29266552D01*
X23640708Y-29269978D01*
X23604919Y-29270631D01*
X23543153Y-29269063D01*
X23486324Y-29264357D01*
X23434434Y-29256515D01*
X23376516Y-29242300D01*
X23326314Y-29223184D01*
X23276256Y-29193775D01*
X23249057Y-29170247D01*
X23214986Y-29130605D01*
X23186959Y-29087151D01*
X23164977Y-29039885D01*
X23149040Y-28988805D01*
X23139148Y-28933914D01*
X23137194Y-28914769D01*
G37*
G36*
X24130774Y-28254581D02*
G01*
X25076727Y-28254581D01*
X25076727Y-28489054D01*
X24759455Y-28489054D01*
X24759455Y-29255000D01*
X24448290Y-29255000D01*
X24448290Y-28489054D01*
X24130774Y-28489054D01*
X24130774Y-28254581D01*
G37*
G36*
X22773517Y-21668579D02*
G01*
X23046092Y-21747470D01*
X23032604Y-21795370D01*
X23013469Y-21845733D01*
X22990366Y-21891426D01*
X22963293Y-21932447D01*
X22959630Y-21937247D01*
X22924122Y-21977037D01*
X22884093Y-22010954D01*
X22839543Y-22038998D01*
X22812840Y-22052041D01*
X22766128Y-22068924D01*
X22713433Y-22080983D01*
X22662416Y-22087578D01*
X22606817Y-22090480D01*
X22590090Y-22090631D01*
X22540266Y-22089480D01*
X22484350Y-22085061D01*
X22432658Y-22077327D01*
X22377691Y-22064115D01*
X22328473Y-22046392D01*
X22321912Y-22043492D01*
X22277747Y-22019338D01*
X22236293Y-21988334D01*
X22197551Y-21950482D01*
X22166502Y-21912586D01*
X22142149Y-21877163D01*
X22116500Y-21830131D01*
X22096159Y-21778428D01*
X22081123Y-21722053D01*
X22072648Y-21671507D01*
X22067857Y-21617716D01*
X22066678Y-21572348D01*
X22068754Y-21512283D01*
X22074982Y-21455798D01*
X22085362Y-21402893D01*
X22099895Y-21353567D01*
X22118579Y-21307821D01*
X22147774Y-21255673D01*
X22183456Y-21209118D01*
X22199546Y-21192062D01*
X22243762Y-21153714D01*
X22293370Y-21121866D01*
X22348367Y-21096517D01*
X22396246Y-21080918D01*
X22447575Y-21069479D01*
X22502355Y-21062199D01*
X22560584Y-21059079D01*
X22575680Y-21058949D01*
X22633146Y-21060834D01*
X22686629Y-21066486D01*
X22736129Y-21075908D01*
X22790271Y-21092188D01*
X22838676Y-21113895D01*
X22874633Y-21136130D01*
X22913516Y-21167984D01*
X22948467Y-21205659D01*
X22979485Y-21249156D01*
X23006570Y-21298475D01*
X23026137Y-21344021D01*
X23036566Y-21373290D01*
X22761793Y-21434106D01*
X22744164Y-21388480D01*
X22731507Y-21367184D01*
X22696340Y-21330897D01*
X22667515Y-21312718D01*
X22619663Y-21296607D01*
X22583251Y-21293422D01*
X22533456Y-21298628D01*
X22484809Y-21316928D01*
X22443966Y-21348405D01*
X22421074Y-21376709D01*
X22398663Y-21422223D01*
X22385590Y-21474973D01*
X22380070Y-21523721D01*
X22378576Y-21570882D01*
X22380362Y-21628633D01*
X22385720Y-21679154D01*
X22396486Y-21728958D01*
X22417472Y-21778531D01*
X22429378Y-21795341D01*
X22469183Y-21829966D01*
X22518742Y-21850219D01*
X22572260Y-21856158D01*
X22623862Y-21851483D01*
X22670760Y-21835541D01*
X22707327Y-21808286D01*
X22738044Y-21766086D01*
X22758237Y-21721578D01*
X22772210Y-21674261D01*
X22773517Y-21668579D01*
G37*
G36*
X23590167Y-21325363D02*
G01*
X23644537Y-21327798D01*
X23698296Y-21332654D01*
X23739497Y-21338852D01*
X23789025Y-21352227D01*
X23836143Y-21375114D01*
X23866748Y-21397958D01*
X23898621Y-21435511D01*
X23921626Y-21482583D01*
X23922923Y-21486130D01*
X23937115Y-21534943D01*
X23943502Y-21585064D01*
X23943684Y-21594818D01*
X23943684Y-21918928D01*
X23945693Y-21970070D01*
X23950034Y-22000017D01*
X23966375Y-22048052D01*
X23978611Y-22075000D01*
X23716294Y-22075000D01*
X23695533Y-22031524D01*
X23686008Y-21984385D01*
X23648313Y-22017274D01*
X23607389Y-22045054D01*
X23576831Y-22060345D01*
X23528088Y-22076316D01*
X23474669Y-22086372D01*
X23422595Y-22090365D01*
X23404396Y-22090631D01*
X23350243Y-22087849D01*
X23295739Y-22077858D01*
X23249111Y-22060601D01*
X23206071Y-22032501D01*
X23170393Y-21993499D01*
X23147929Y-21949153D01*
X23138680Y-21899465D01*
X23138415Y-21888886D01*
X23140904Y-21866660D01*
X23418806Y-21866660D01*
X23437662Y-21911842D01*
X23441765Y-21915509D01*
X23488431Y-21933140D01*
X23509420Y-21934316D01*
X23559815Y-21927824D01*
X23596127Y-21913799D01*
X23637342Y-21884719D01*
X23653279Y-21863974D01*
X23668486Y-21814910D01*
X23670132Y-21787037D01*
X23670132Y-21746737D01*
X23622492Y-21761134D01*
X23573240Y-21774160D01*
X23549965Y-21779710D01*
X23498779Y-21793728D01*
X23452887Y-21812565D01*
X23442254Y-21820010D01*
X23418898Y-21863416D01*
X23418806Y-21866660D01*
X23140904Y-21866660D01*
X23144188Y-21837325D01*
X23163651Y-21788713D01*
X23187264Y-21757484D01*
X23230463Y-21725170D01*
X23280362Y-21703369D01*
X23328229Y-21689297D01*
X23367271Y-21680792D01*
X23422366Y-21669987D01*
X23476811Y-21659009D01*
X23526068Y-21648609D01*
X23571214Y-21638049D01*
X23619269Y-21623944D01*
X23666871Y-21607282D01*
X23670132Y-21606053D01*
X23663409Y-21557418D01*
X23648883Y-21533269D01*
X23601556Y-21513925D01*
X23573900Y-21512264D01*
X23523780Y-21516214D01*
X23475268Y-21533301D01*
X23470830Y-21536200D01*
X23440201Y-21574658D01*
X23427599Y-21606053D01*
X23160397Y-21574790D01*
X23172367Y-21525150D01*
X23190531Y-21476605D01*
X23203872Y-21452180D01*
X23236191Y-21412732D01*
X23276328Y-21380755D01*
X23286182Y-21374511D01*
X23331795Y-21353323D01*
X23379555Y-21340154D01*
X23391939Y-21337630D01*
X23444009Y-21329742D01*
X23494395Y-21325709D01*
X23537508Y-21324685D01*
X23590167Y-21325363D01*
G37*
G36*
X24107815Y-21340317D02*
G01*
X24368911Y-21340317D01*
X24368911Y-21448272D01*
X24404245Y-21410214D01*
X24443278Y-21377056D01*
X24482484Y-21353018D01*
X24528863Y-21335753D01*
X24577231Y-21326927D01*
X24620969Y-21324685D01*
X24672041Y-21327715D01*
X24719955Y-21338044D01*
X24759211Y-21355704D01*
X24800110Y-21388690D01*
X24831725Y-21429784D01*
X24842254Y-21448272D01*
X24878421Y-21411513D01*
X24916431Y-21379189D01*
X24959021Y-21352238D01*
X24962421Y-21350575D01*
X25010827Y-21333813D01*
X25062879Y-21325924D01*
X25096510Y-21324685D01*
X25145442Y-21328040D01*
X25195325Y-21340088D01*
X25243743Y-21364115D01*
X25279937Y-21394783D01*
X25308788Y-21434778D01*
X25329396Y-21484665D01*
X25340666Y-21536430D01*
X25345303Y-21586828D01*
X25345882Y-21614113D01*
X25345882Y-22075000D01*
X25065491Y-22075000D01*
X25065491Y-21655879D01*
X25058689Y-21605548D01*
X25046196Y-21581629D01*
X25007934Y-21549815D01*
X24976099Y-21543527D01*
X24926622Y-21554964D01*
X24896475Y-21579675D01*
X24873761Y-21626509D01*
X24866663Y-21675979D01*
X24866189Y-21695202D01*
X24866189Y-22075000D01*
X24586043Y-22075000D01*
X24586043Y-21670778D01*
X24583729Y-21620664D01*
X24580669Y-21605076D01*
X24553658Y-21563878D01*
X24549651Y-21560624D01*
X24503590Y-21543677D01*
X24498115Y-21543527D01*
X24449395Y-21555119D01*
X24418981Y-21580163D01*
X24396891Y-21624814D01*
X24388957Y-21675372D01*
X24388206Y-21700331D01*
X24388206Y-22075000D01*
X24107815Y-22075000D01*
X24107815Y-21340317D01*
G37*
G36*
X22609385Y-23426737D02*
G01*
X22609385Y-23192264D01*
X23090055Y-23192264D01*
X23090055Y-23598196D01*
X23047706Y-23627927D01*
X22998934Y-23659480D01*
X22952394Y-23686534D01*
X22908087Y-23709088D01*
X22859217Y-23729715D01*
X22845812Y-23734483D01*
X22797532Y-23748568D01*
X22745441Y-23759194D01*
X22689540Y-23766360D01*
X22638593Y-23769749D01*
X22593998Y-23770631D01*
X22539591Y-23769152D01*
X22488416Y-23764716D01*
X22431271Y-23755488D01*
X22378781Y-23742001D01*
X22330945Y-23724255D01*
X22301639Y-23710059D01*
X22254691Y-23680730D01*
X22212581Y-23645745D01*
X22175310Y-23605103D01*
X22142878Y-23558804D01*
X22126517Y-23529808D01*
X22105434Y-23483600D01*
X22088713Y-23434919D01*
X22076354Y-23383766D01*
X22068357Y-23330139D01*
X22064722Y-23274040D01*
X22064480Y-23254790D01*
X22066137Y-23204772D01*
X22072503Y-23147504D01*
X22083643Y-23093242D01*
X22099557Y-23041986D01*
X22120245Y-22993734D01*
X22132379Y-22970736D01*
X22160148Y-22927450D01*
X22192348Y-22888269D01*
X22228979Y-22853193D01*
X22270040Y-22822221D01*
X22315533Y-22795353D01*
X22331681Y-22787309D01*
X22379843Y-22768466D01*
X22434784Y-22754251D01*
X22487272Y-22745750D01*
X22544739Y-22740649D01*
X22596433Y-22738996D01*
X22607187Y-22738949D01*
X22657267Y-22739713D01*
X22711946Y-22742643D01*
X22760719Y-22747773D01*
X22810153Y-22756535D01*
X22856803Y-22770212D01*
X22905786Y-22792986D01*
X22949234Y-22822534D01*
X22987149Y-22858855D01*
X22994068Y-22866933D01*
X23022698Y-22906534D01*
X23047039Y-22951700D01*
X23067091Y-23002430D01*
X23076378Y-23033018D01*
X22776203Y-23082843D01*
X22753112Y-23038629D01*
X22715942Y-23003534D01*
X22713189Y-23001755D01*
X22666377Y-22981418D01*
X22617125Y-22973865D01*
X22600348Y-22973422D01*
X22546068Y-22978697D01*
X22498356Y-22994520D01*
X22457213Y-23020892D01*
X22437194Y-23040101D01*
X22407796Y-23083751D01*
X22389741Y-23132867D01*
X22380179Y-23183807D01*
X22376615Y-23233386D01*
X22376378Y-23251127D01*
X22378542Y-23305646D01*
X22386536Y-23361438D01*
X22400420Y-23408816D01*
X22423501Y-23452657D01*
X22437927Y-23470457D01*
X22476374Y-23502217D01*
X22522471Y-23523582D01*
X22576219Y-23534554D01*
X22609385Y-23536158D01*
X22660249Y-23533593D01*
X22708792Y-23525900D01*
X22756395Y-23513116D01*
X22806149Y-23495472D01*
X22817480Y-23490973D01*
X22817480Y-23426737D01*
X22609385Y-23426737D01*
G37*
G36*
X23695830Y-22740920D02*
G01*
X23744347Y-22746832D01*
X23795826Y-22759410D01*
X23808374Y-22763862D01*
X23854032Y-22784493D01*
X23895743Y-22811649D01*
X23914863Y-22828342D01*
X23949697Y-22866578D01*
X23978334Y-22909374D01*
X23979832Y-22912117D01*
X24001386Y-22959684D01*
X24016340Y-23007215D01*
X24018178Y-23014455D01*
X24029123Y-23063744D01*
X24037379Y-23113945D01*
X24042947Y-23165057D01*
X24045827Y-23217081D01*
X24046266Y-23247219D01*
X24045450Y-23296864D01*
X24041825Y-23359077D01*
X24035299Y-23416741D01*
X24025873Y-23469856D01*
X24013546Y-23518423D01*
X23994059Y-23572733D01*
X23970040Y-23619936D01*
X23953454Y-23644846D01*
X23913944Y-23687593D01*
X23873830Y-23716460D01*
X23827180Y-23739185D01*
X23773995Y-23755768D01*
X23714275Y-23766209D01*
X23661793Y-23770140D01*
X23633984Y-23770631D01*
X23580745Y-23768714D01*
X23532157Y-23762964D01*
X23482324Y-23751698D01*
X23433524Y-23733040D01*
X23428576Y-23730575D01*
X23386716Y-23704970D01*
X23349338Y-23673491D01*
X23316443Y-23636139D01*
X23300104Y-23612850D01*
X23275077Y-23565784D01*
X23257684Y-23517904D01*
X23244723Y-23468082D01*
X23243440Y-23462152D01*
X23234571Y-23413029D01*
X23228236Y-23361402D01*
X23224435Y-23307272D01*
X23223187Y-23257854D01*
X23223176Y-23253813D01*
X23500872Y-23253813D01*
X23501701Y-23310255D01*
X23504187Y-23360817D01*
X23509359Y-23413731D01*
X23518410Y-23464763D01*
X23534822Y-23513443D01*
X23564612Y-23555861D01*
X23610306Y-23580605D01*
X23633496Y-23583053D01*
X23682230Y-23571508D01*
X23707257Y-23553499D01*
X23735787Y-23512448D01*
X23752243Y-23464149D01*
X23753175Y-23460198D01*
X23761657Y-23407916D01*
X23765978Y-23352560D01*
X23767710Y-23301678D01*
X23768073Y-23261140D01*
X23767245Y-23202412D01*
X23764758Y-23150029D01*
X23759586Y-23095544D01*
X23750535Y-23043525D01*
X23734124Y-22994916D01*
X23703853Y-22953242D01*
X23660207Y-22929800D01*
X23632030Y-22926528D01*
X23582000Y-22938016D01*
X23544627Y-22972481D01*
X23531646Y-22996137D01*
X23516770Y-23044662D01*
X23508565Y-23095361D01*
X23503877Y-23147839D01*
X23501623Y-23197934D01*
X23500872Y-23253813D01*
X23223176Y-23253813D01*
X23223168Y-23250638D01*
X23224076Y-23198833D01*
X23226800Y-23150028D01*
X23233257Y-23089624D01*
X23242943Y-23034555D01*
X23255857Y-22984821D01*
X23276540Y-22930156D01*
X23302268Y-22883827D01*
X23326482Y-22852766D01*
X23369112Y-22814086D01*
X23410436Y-22787966D01*
X23457030Y-22767404D01*
X23508896Y-22752398D01*
X23566033Y-22742951D01*
X23615538Y-22739394D01*
X23641556Y-22738949D01*
X23695830Y-22740920D01*
G37*
G36*
X-30085100Y20194630D02*
G01*
X-29822050Y20194630D01*
X-29822050Y20460366D01*
X-29600034Y20460366D01*
X-29600034Y20194630D01*
X-29335519Y20194630D01*
X-29335519Y19975788D01*
X-29600034Y19975788D01*
X-29600034Y19710052D01*
X-29822050Y19710052D01*
X-29822050Y19975788D01*
X-30085100Y19975788D01*
X-30085100Y20194630D01*
G37*
G36*
X-28919084Y20288419D02*
G01*
X-29183599Y20332383D01*
X-29169097Y20379054D01*
X-29146772Y20428078D01*
X-29118627Y20471258D01*
X-29084662Y20508594D01*
X-29056837Y20531685D01*
X-29012076Y20558713D01*
X-28959859Y20579102D01*
X-28909166Y20591295D01*
X-28852995Y20598611D01*
X-28802001Y20600982D01*
X-28791345Y20601050D01*
X-28732346Y20599309D01*
X-28678688Y20594085D01*
X-28630374Y20585379D01*
X-28579450Y20570335D01*
X-28529761Y20546446D01*
X-28506070Y20529731D01*
X-28467602Y20491888D01*
X-28440124Y20449436D01*
X-28423638Y20402373D01*
X-28418142Y20350701D01*
X-28424068Y20301436D01*
X-28443703Y20252710D01*
X-28454046Y20236395D01*
X-28489026Y20196817D01*
X-28528006Y20166603D01*
X-28561757Y20146514D01*
X-28513096Y20131755D01*
X-28472609Y20112564D01*
X-28433052Y20081422D01*
X-28402003Y20042707D01*
X-28394695Y20030254D01*
X-28375661Y19982015D01*
X-28367531Y19930441D01*
X-28366851Y19908866D01*
X-28370503Y19859554D01*
X-28381457Y19811364D01*
X-28399715Y19764294D01*
X-28413013Y19738628D01*
X-28442049Y19695834D01*
X-28477499Y19658953D01*
X-28519363Y19627983D01*
X-28545393Y19613332D01*
X-28592028Y19594098D01*
X-28645471Y19580359D01*
X-28697819Y19572846D01*
X-28746838Y19569754D01*
X-28772783Y19569368D01*
X-28822222Y19570493D01*
X-28874757Y19574649D01*
X-28928013Y19583147D01*
X-28979278Y19597489D01*
X-28989426Y19601364D01*
X-29036295Y19624400D01*
X-29077678Y19653208D01*
X-29113575Y19687789D01*
X-29120096Y19695397D01*
X-29149687Y19737248D01*
X-29174650Y19785252D01*
X-29193161Y19833717D01*
X-29198498Y19850980D01*
X-28919084Y19881999D01*
X-28904235Y19835139D01*
X-28878429Y19793661D01*
X-28868038Y19784057D01*
X-28822872Y19762136D01*
X-28779622Y19756946D01*
X-28731089Y19765479D01*
X-28688431Y19793392D01*
X-28686077Y19795781D01*
X-28659079Y19838053D01*
X-28648794Y19887674D01*
X-28648463Y19899584D01*
X-28654429Y19948405D01*
X-28676139Y19992416D01*
X-28684611Y20001922D01*
X-28726987Y20029216D01*
X-28778472Y20038279D01*
X-28782308Y20038314D01*
X-28833161Y20032208D01*
X-28872923Y20022683D01*
X-28858512Y20228824D01*
X-28822120Y20225893D01*
X-28771745Y20233403D01*
X-28730529Y20255935D01*
X-28699735Y20295484D01*
X-28693648Y20327009D01*
X-28707906Y20375335D01*
X-28721248Y20389780D01*
X-28766092Y20410672D01*
X-28796719Y20413471D01*
X-28846624Y20404661D01*
X-28877319Y20385628D01*
X-28904433Y20344447D01*
X-28917633Y20296956D01*
X-28919084Y20288419D01*
G37*
G36*
X-28229831Y19866367D02*
G01*
X-27931122Y19866367D01*
X-27931122Y19585000D01*
X-28229831Y19585000D01*
X-28229831Y19866367D01*
G37*
G36*
X-27520061Y20288419D02*
G01*
X-27784576Y20332383D01*
X-27770074Y20379054D01*
X-27747749Y20428078D01*
X-27719604Y20471258D01*
X-27685639Y20508594D01*
X-27657814Y20531685D01*
X-27613053Y20558713D01*
X-27560836Y20579102D01*
X-27510143Y20591295D01*
X-27453972Y20598611D01*
X-27402978Y20600982D01*
X-27392322Y20601050D01*
X-27333323Y20599309D01*
X-27279665Y20594085D01*
X-27231351Y20585379D01*
X-27180426Y20570335D01*
X-27130738Y20546446D01*
X-27107047Y20529731D01*
X-27068579Y20491888D01*
X-27041101Y20449436D01*
X-27024615Y20402373D01*
X-27019119Y20350701D01*
X-27025045Y20301436D01*
X-27044680Y20252710D01*
X-27055023Y20236395D01*
X-27090002Y20196817D01*
X-27128983Y20166603D01*
X-27162734Y20146514D01*
X-27114073Y20131755D01*
X-27073585Y20112564D01*
X-27034029Y20081422D01*
X-27002980Y20042707D01*
X-26995672Y20030254D01*
X-26976638Y19982015D01*
X-26968508Y19930441D01*
X-26967828Y19908866D01*
X-26971480Y19859554D01*
X-26982434Y19811364D01*
X-27000692Y19764294D01*
X-27013990Y19738628D01*
X-27043026Y19695834D01*
X-27078476Y19658953D01*
X-27120340Y19627983D01*
X-27146370Y19613332D01*
X-27193005Y19594098D01*
X-27246448Y19580359D01*
X-27298796Y19572846D01*
X-27347815Y19569754D01*
X-27373760Y19569368D01*
X-27423199Y19570493D01*
X-27475734Y19574649D01*
X-27528990Y19583147D01*
X-27580255Y19597489D01*
X-27590403Y19601364D01*
X-27637272Y19624400D01*
X-27678655Y19653208D01*
X-27714552Y19687789D01*
X-27721073Y19695397D01*
X-27750664Y19737248D01*
X-27775627Y19785252D01*
X-27794138Y19833717D01*
X-27799475Y19850980D01*
X-27520061Y19881999D01*
X-27505212Y19835139D01*
X-27479406Y19793661D01*
X-27469015Y19784057D01*
X-27423849Y19762136D01*
X-27380599Y19756946D01*
X-27332066Y19765479D01*
X-27289408Y19793392D01*
X-27287054Y19795781D01*
X-27260056Y19838053D01*
X-27249771Y19887674D01*
X-27249440Y19899584D01*
X-27255406Y19948405D01*
X-27277116Y19992416D01*
X-27285588Y20001922D01*
X-27327964Y20029216D01*
X-27379449Y20038279D01*
X-27383285Y20038314D01*
X-27434138Y20032208D01*
X-27473900Y20022683D01*
X-27459489Y20228824D01*
X-27423097Y20225893D01*
X-27372722Y20233403D01*
X-27331506Y20255935D01*
X-27300712Y20295484D01*
X-27294625Y20327009D01*
X-27308883Y20375335D01*
X-27322225Y20389780D01*
X-27367069Y20410672D01*
X-27397696Y20413471D01*
X-27447601Y20404661D01*
X-27478296Y20385628D01*
X-27505410Y20344447D01*
X-27518610Y20296956D01*
X-27520061Y20288419D01*
G37*
G36*
X-26912629Y20585418D02*
G01*
X-26587054Y20585418D01*
X-26360396Y19865390D01*
X-26137158Y20585418D01*
X-25821108Y20585418D01*
X-26194800Y19585000D01*
X-26532099Y19585000D01*
X-26912629Y20585418D01*
G37*
D11*
G36*
X-25869390Y-8094749D02*
G01*
X-25681811Y-8094749D01*
X-25681811Y-8479285D01*
X-26006556Y-8479285D01*
X-26030341Y-8445406D01*
X-26055584Y-8406388D01*
X-26077227Y-8369156D01*
X-26095270Y-8333711D01*
X-26111772Y-8294615D01*
X-26115586Y-8283891D01*
X-26126854Y-8245266D01*
X-26135355Y-8203594D01*
X-26141088Y-8158873D01*
X-26143799Y-8118115D01*
X-26144505Y-8082439D01*
X-26143322Y-8038914D01*
X-26139773Y-7997973D01*
X-26132390Y-7952258D01*
X-26121601Y-7910266D01*
X-26107404Y-7871997D01*
X-26096047Y-7848552D01*
X-26072584Y-7810994D01*
X-26044596Y-7777306D01*
X-26012082Y-7747489D01*
X-25975043Y-7721543D01*
X-25951846Y-7708455D01*
X-25914880Y-7691588D01*
X-25875935Y-7678211D01*
X-25835012Y-7668324D01*
X-25792111Y-7661926D01*
X-25747232Y-7659018D01*
X-25731832Y-7658825D01*
X-25691817Y-7660151D01*
X-25646003Y-7665243D01*
X-25602594Y-7674155D01*
X-25561588Y-7686886D01*
X-25522987Y-7703437D01*
X-25504588Y-7713144D01*
X-25469960Y-7735360D01*
X-25438615Y-7761120D01*
X-25410554Y-7790424D01*
X-25385777Y-7823273D01*
X-25364282Y-7859667D01*
X-25357847Y-7872586D01*
X-25342773Y-7911116D01*
X-25331400Y-7955068D01*
X-25324600Y-7997058D01*
X-25320519Y-8043032D01*
X-25319197Y-8084388D01*
X-25319159Y-8092991D01*
X-25319770Y-8133054D01*
X-25322115Y-8176798D01*
X-25326218Y-8215816D01*
X-25333228Y-8255363D01*
X-25344170Y-8292684D01*
X-25362389Y-8331869D01*
X-25386027Y-8366628D01*
X-25415084Y-8396960D01*
X-25421546Y-8402495D01*
X-25453227Y-8425399D01*
X-25489360Y-8444872D01*
X-25529944Y-8460914D01*
X-25554414Y-8468343D01*
X-25594274Y-8228204D01*
X-25558903Y-8209731D01*
X-25530827Y-8179994D01*
X-25529404Y-8177792D01*
X-25513135Y-8140342D01*
X-25507092Y-8100941D01*
X-25506738Y-8087520D01*
X-25510957Y-8044095D01*
X-25523616Y-8005926D01*
X-25544713Y-7973011D01*
X-25560080Y-7956996D01*
X-25595001Y-7933477D01*
X-25634293Y-7919033D01*
X-25675046Y-7911384D01*
X-25714709Y-7908533D01*
X-25728901Y-7908343D01*
X-25772517Y-7910074D01*
X-25817151Y-7916469D01*
X-25855053Y-7927577D01*
X-25890126Y-7946042D01*
X-25904365Y-7957582D01*
X-25929773Y-7988340D01*
X-25946866Y-8025218D01*
X-25955643Y-8068216D01*
X-25956926Y-8094749D01*
X-25954875Y-8135440D01*
X-25948720Y-8174275D01*
X-25938493Y-8212357D01*
X-25924377Y-8252160D01*
X-25920778Y-8261225D01*
X-25869390Y-8261225D01*
X-25869390Y-8094749D01*
G37*
G36*
X-25331665Y-8623682D02*
G01*
X-25331665Y-8856201D01*
X-25782635Y-9159648D01*
X-25331665Y-9159648D01*
X-25331665Y-9394121D01*
X-26132000Y-9394121D01*
X-26132000Y-9159648D01*
X-25683374Y-8857764D01*
X-26132000Y-8857764D01*
X-26132000Y-8623682D01*
X-25331665Y-8623682D01*
G37*
G36*
X-25331665Y-9927743D02*
G01*
X-25332702Y-9967232D01*
X-25336534Y-10009588D01*
X-25344371Y-10053093D01*
X-25355896Y-10091372D01*
X-25361169Y-10104379D01*
X-25379790Y-10140443D01*
X-25402461Y-10172798D01*
X-25429181Y-10201443D01*
X-25445775Y-10215754D01*
X-25478207Y-10238567D01*
X-25513513Y-10257547D01*
X-25551695Y-10272694D01*
X-25574149Y-10279453D01*
X-25615950Y-10288992D01*
X-25659143Y-10295410D01*
X-25698704Y-10298494D01*
X-25729096Y-10299187D01*
X-25775210Y-10298150D01*
X-25817271Y-10295038D01*
X-25861220Y-10288786D01*
X-25899652Y-10279710D01*
X-25928203Y-10269683D01*
X-25966088Y-10251388D01*
X-26000386Y-10229477D01*
X-26031099Y-10203949D01*
X-26046612Y-10188204D01*
X-26073300Y-10154834D01*
X-26093766Y-10119938D01*
X-26108013Y-10083515D01*
X-26110115Y-10076047D01*
X-26119690Y-10036077D01*
X-26127191Y-9993417D01*
X-26131230Y-9953198D01*
X-26132000Y-9927743D01*
X-26132000Y-9806794D01*
X-25944421Y-9806794D01*
X-25944421Y-9867757D01*
X-25943107Y-9908056D01*
X-25937933Y-9947655D01*
X-25927812Y-9978741D01*
X-25902955Y-10009746D01*
X-25869390Y-10030325D01*
X-25830775Y-10041756D01*
X-25787513Y-10047251D01*
X-25745650Y-10049010D01*
X-25734177Y-10049083D01*
X-25690543Y-10047613D01*
X-25646582Y-10042182D01*
X-25605500Y-10031075D01*
X-25570961Y-10012332D01*
X-25564965Y-10007268D01*
X-25540854Y-9975876D01*
X-25526789Y-9938421D01*
X-25520359Y-9897809D01*
X-25519243Y-9868929D01*
X-25519243Y-9806794D01*
X-25944421Y-9806794D01*
X-26132000Y-9806794D01*
X-26132000Y-9557862D01*
X-25331665Y-9557862D01*
X-25331665Y-9927743D01*
G37*
D10*
G36*
X-31600313Y23913262D02*
G01*
X-31600313Y24147735D01*
X-31119643Y24147735D01*
X-31119643Y23741803D01*
X-31161992Y23712072D01*
X-31210764Y23680519D01*
X-31257304Y23653465D01*
X-31301611Y23630911D01*
X-31350481Y23610284D01*
X-31363886Y23605516D01*
X-31412166Y23591431D01*
X-31464257Y23580805D01*
X-31520158Y23573639D01*
X-31571105Y23570250D01*
X-31615700Y23569368D01*
X-31670107Y23570847D01*
X-31721282Y23575283D01*
X-31778427Y23584511D01*
X-31830917Y23597998D01*
X-31878753Y23615744D01*
X-31908059Y23629940D01*
X-31955007Y23659269D01*
X-31997117Y23694254D01*
X-32034388Y23734896D01*
X-32066820Y23781195D01*
X-32083181Y23810191D01*
X-32104264Y23856399D01*
X-32120985Y23905080D01*
X-32133344Y23956233D01*
X-32141341Y24009860D01*
X-32144976Y24065959D01*
X-32145218Y24085209D01*
X-32143561Y24135227D01*
X-32137195Y24192495D01*
X-32126055Y24246757D01*
X-32110141Y24298013D01*
X-32089453Y24346265D01*
X-32077319Y24369263D01*
X-32049550Y24412549D01*
X-32017350Y24451730D01*
X-31980719Y24486806D01*
X-31939658Y24517778D01*
X-31894165Y24544646D01*
X-31878017Y24552690D01*
X-31829855Y24571533D01*
X-31774914Y24585748D01*
X-31722426Y24594249D01*
X-31664959Y24599350D01*
X-31613265Y24601003D01*
X-31602511Y24601050D01*
X-31552431Y24600286D01*
X-31497752Y24597356D01*
X-31448979Y24592226D01*
X-31399545Y24583464D01*
X-31352895Y24569787D01*
X-31303912Y24547013D01*
X-31260464Y24517465D01*
X-31222549Y24481144D01*
X-31215630Y24473066D01*
X-31187000Y24433465D01*
X-31162659Y24388299D01*
X-31142607Y24337569D01*
X-31133320Y24306981D01*
X-31433495Y24257156D01*
X-31456586Y24301370D01*
X-31493756Y24336465D01*
X-31496509Y24338244D01*
X-31543321Y24358581D01*
X-31592573Y24366134D01*
X-31609350Y24366577D01*
X-31663630Y24361302D01*
X-31711342Y24345479D01*
X-31752485Y24319107D01*
X-31772504Y24299898D01*
X-31801902Y24256248D01*
X-31819957Y24207132D01*
X-31829519Y24156192D01*
X-31833083Y24106613D01*
X-31833320Y24088872D01*
X-31831156Y24034353D01*
X-31823162Y23978561D01*
X-31809278Y23931183D01*
X-31786197Y23887342D01*
X-31771771Y23869542D01*
X-31733324Y23837782D01*
X-31687227Y23816417D01*
X-31633479Y23805445D01*
X-31600313Y23803841D01*
X-31549449Y23806406D01*
X-31500906Y23814099D01*
X-31453303Y23826883D01*
X-31403549Y23844527D01*
X-31392218Y23849026D01*
X-31392218Y23913262D01*
X-31600313Y23913262D01*
G37*
G36*
X-30939147Y24585418D02*
G01*
X-30648498Y24585418D01*
X-30269189Y24021706D01*
X-30269189Y24585418D01*
X-29976098Y24585418D01*
X-29976098Y23585000D01*
X-30269189Y23585000D01*
X-30646544Y24145781D01*
X-30646544Y23585000D01*
X-30939147Y23585000D01*
X-30939147Y24585418D01*
G37*
G36*
X-29259709Y24584122D02*
G01*
X-29206765Y24579331D01*
X-29152382Y24569535D01*
X-29104534Y24555129D01*
X-29088275Y24548538D01*
X-29043195Y24525261D01*
X-29002752Y24496923D01*
X-28966945Y24463523D01*
X-28949056Y24442780D01*
X-28920540Y24402241D01*
X-28896815Y24358107D01*
X-28877882Y24310380D01*
X-28869433Y24282313D01*
X-28857509Y24230061D01*
X-28849487Y24176070D01*
X-28845632Y24126619D01*
X-28844765Y24088628D01*
X-28846061Y24030986D01*
X-28849951Y23978410D01*
X-28857767Y23923474D01*
X-28869112Y23875434D01*
X-28881645Y23839745D01*
X-28904514Y23792389D01*
X-28931903Y23749516D01*
X-28963813Y23711125D01*
X-28983495Y23691734D01*
X-29025207Y23658374D01*
X-29068827Y23632791D01*
X-29114355Y23614983D01*
X-29123690Y23612355D01*
X-29173653Y23600387D01*
X-29226978Y23591010D01*
X-29277251Y23585961D01*
X-29309070Y23585000D01*
X-29771422Y23585000D01*
X-29771422Y24350945D01*
X-29460257Y24350945D01*
X-29460257Y23819473D01*
X-29384053Y23819473D01*
X-29333679Y23821115D01*
X-29284181Y23827582D01*
X-29245323Y23840233D01*
X-29206567Y23871305D01*
X-29180843Y23913262D01*
X-29166555Y23961530D01*
X-29159685Y24015607D01*
X-29157487Y24067936D01*
X-29157396Y24082278D01*
X-29159233Y24136820D01*
X-29166022Y24191771D01*
X-29179906Y24243123D01*
X-29203334Y24286297D01*
X-29209664Y24293792D01*
X-29248905Y24323931D01*
X-29295723Y24341513D01*
X-29346488Y24349550D01*
X-29382588Y24350945D01*
X-29460257Y24350945D01*
X-29771422Y24350945D01*
X-29771422Y24585418D01*
X-29309070Y24585418D01*
X-29259709Y24584122D01*
G37*
G36*
X-17869207Y-27708054D02*
G01*
X-17474633Y-27708054D01*
X-17474633Y-27309450D01*
X-17141608Y-27309450D01*
X-17141608Y-27708054D01*
X-16744836Y-27708054D01*
X-16744836Y-28036317D01*
X-17141608Y-28036317D01*
X-17141608Y-28434921D01*
X-17474633Y-28434921D01*
X-17474633Y-28036317D01*
X-17869207Y-28036317D01*
X-17869207Y-27708054D01*
G37*
G36*
X-16357222Y-27121871D02*
G01*
X-15360711Y-27121871D01*
X-15360711Y-27473581D01*
X-16035554Y-27473581D01*
X-16071824Y-27685706D01*
X-16002215Y-27654382D01*
X-15933339Y-27632217D01*
X-15860960Y-27618210D01*
X-15797784Y-27614265D01*
X-15715755Y-27619044D01*
X-15639755Y-27633379D01*
X-15569782Y-27657271D01*
X-15495766Y-27697225D01*
X-15429954Y-27750186D01*
X-15374851Y-27813018D01*
X-15333283Y-27882581D01*
X-15305248Y-27958876D01*
X-15290747Y-28041904D01*
X-15288538Y-28092370D01*
X-15294305Y-28173080D01*
X-15311606Y-28251992D01*
X-15340441Y-28329108D01*
X-15361444Y-28371174D01*
X-15401515Y-28434097D01*
X-15455682Y-28495470D01*
X-15519470Y-28546874D01*
X-15567341Y-28575605D01*
X-15638690Y-28606379D01*
X-15719382Y-28628361D01*
X-15797651Y-28640383D01*
X-15883072Y-28645672D01*
X-15908792Y-28645947D01*
X-15989511Y-28643657D01*
X-16063507Y-28636789D01*
X-16137839Y-28623787D01*
X-16165247Y-28617004D01*
X-16234777Y-28593729D01*
X-16302036Y-28560636D01*
X-16346598Y-28530542D01*
X-16402429Y-28481329D01*
X-16452278Y-28422785D01*
X-16467498Y-28400483D01*
X-16502702Y-28335321D01*
X-16530583Y-28264652D01*
X-16544801Y-28218766D01*
X-16120184Y-28177001D01*
X-16098796Y-28249048D01*
X-16054947Y-28310781D01*
X-16048011Y-28316952D01*
X-15981575Y-28354114D01*
X-15912822Y-28364579D01*
X-15837415Y-28351538D01*
X-15775371Y-28312415D01*
X-15768108Y-28305228D01*
X-15729039Y-28242146D01*
X-15712965Y-28170327D01*
X-15710956Y-28128274D01*
X-15717796Y-28053026D01*
X-15743516Y-27983743D01*
X-15768841Y-27951687D01*
X-15831218Y-27911453D01*
X-15904688Y-27896125D01*
X-15922348Y-27895633D01*
X-15996794Y-27906080D01*
X-16039951Y-27922377D01*
X-16101865Y-27963795D01*
X-16132641Y-27992353D01*
X-16489846Y-27946191D01*
X-16357222Y-27121871D01*
G37*
G36*
X-15209036Y-27121871D02*
G01*
X-14720673Y-27121871D01*
X-14380687Y-28201913D01*
X-14045830Y-27121871D01*
X-13571755Y-27121871D01*
X-14132292Y-28622500D01*
X-14638241Y-28622500D01*
X-15209036Y-27121871D01*
G37*
D11*
G36*
X-25869390Y-6098095D02*
G01*
X-25681811Y-6098095D01*
X-25681811Y-6482631D01*
X-26006556Y-6482631D01*
X-26030341Y-6448752D01*
X-26055584Y-6409734D01*
X-26077227Y-6372502D01*
X-26095270Y-6337057D01*
X-26111772Y-6297961D01*
X-26115586Y-6287237D01*
X-26126854Y-6248612D01*
X-26135355Y-6206940D01*
X-26141088Y-6162219D01*
X-26143799Y-6121461D01*
X-26144505Y-6085785D01*
X-26143322Y-6042260D01*
X-26139773Y-6001319D01*
X-26132390Y-5955604D01*
X-26121601Y-5913612D01*
X-26107404Y-5875343D01*
X-26096047Y-5851898D01*
X-26072584Y-5814340D01*
X-26044596Y-5780652D01*
X-26012082Y-5750835D01*
X-25975043Y-5724889D01*
X-25951846Y-5711801D01*
X-25914880Y-5694934D01*
X-25875935Y-5681557D01*
X-25835012Y-5671670D01*
X-25792111Y-5665272D01*
X-25747232Y-5662364D01*
X-25731832Y-5662171D01*
X-25691817Y-5663497D01*
X-25646003Y-5668589D01*
X-25602594Y-5677501D01*
X-25561588Y-5690232D01*
X-25522987Y-5706783D01*
X-25504588Y-5716490D01*
X-25469960Y-5738706D01*
X-25438615Y-5764466D01*
X-25410554Y-5793770D01*
X-25385777Y-5826619D01*
X-25364282Y-5863013D01*
X-25357847Y-5875932D01*
X-25342773Y-5914462D01*
X-25331400Y-5958414D01*
X-25324600Y-6000404D01*
X-25320519Y-6046378D01*
X-25319197Y-6087734D01*
X-25319159Y-6096337D01*
X-25319770Y-6136400D01*
X-25322115Y-6180144D01*
X-25326218Y-6219162D01*
X-25333228Y-6258709D01*
X-25344170Y-6296030D01*
X-25362389Y-6335215D01*
X-25386027Y-6369974D01*
X-25415084Y-6400306D01*
X-25421546Y-6405841D01*
X-25453227Y-6428745D01*
X-25489360Y-6448218D01*
X-25529944Y-6464260D01*
X-25554414Y-6471689D01*
X-25594274Y-6231550D01*
X-25558903Y-6213077D01*
X-25530827Y-6183340D01*
X-25529404Y-6181138D01*
X-25513135Y-6143688D01*
X-25507092Y-6104287D01*
X-25506738Y-6090866D01*
X-25510957Y-6047441D01*
X-25523616Y-6009272D01*
X-25544713Y-5976357D01*
X-25560080Y-5960342D01*
X-25595001Y-5936823D01*
X-25634293Y-5922379D01*
X-25675046Y-5914730D01*
X-25714709Y-5911879D01*
X-25728901Y-5911689D01*
X-25772517Y-5913420D01*
X-25817151Y-5919815D01*
X-25855053Y-5930923D01*
X-25890126Y-5949388D01*
X-25904365Y-5960928D01*
X-25929773Y-5991686D01*
X-25946866Y-6028564D01*
X-25955643Y-6071562D01*
X-25956926Y-6098095D01*
X-25954875Y-6138786D01*
X-25948720Y-6177621D01*
X-25938493Y-6215703D01*
X-25924377Y-6255506D01*
X-25920778Y-6264571D01*
X-25869390Y-6264571D01*
X-25869390Y-6098095D01*
G37*
G36*
X-25687066Y-6589847D02*
G01*
X-25648022Y-6592027D01*
X-25599699Y-6597193D01*
X-25555644Y-6604941D01*
X-25515856Y-6615273D01*
X-25472125Y-6631819D01*
X-25435062Y-6652401D01*
X-25410213Y-6671773D01*
X-25379269Y-6705877D01*
X-25358373Y-6738935D01*
X-25341923Y-6776211D01*
X-25329919Y-6817704D01*
X-25322360Y-6863413D01*
X-25319515Y-6903017D01*
X-25319159Y-6923831D01*
X-25320736Y-6967251D01*
X-25325465Y-7006064D01*
X-25335528Y-7047248D01*
X-25339090Y-7057286D01*
X-25355594Y-7093812D01*
X-25377319Y-7127181D01*
X-25390674Y-7142478D01*
X-25421262Y-7170344D01*
X-25455499Y-7193254D01*
X-25457694Y-7194453D01*
X-25495747Y-7211696D01*
X-25533772Y-7223659D01*
X-25539564Y-7225129D01*
X-25578995Y-7233885D01*
X-25619156Y-7240490D01*
X-25660046Y-7244945D01*
X-25701665Y-7247249D01*
X-25725775Y-7247600D01*
X-25765491Y-7246947D01*
X-25815262Y-7244047D01*
X-25861393Y-7238826D01*
X-25903885Y-7231285D01*
X-25942738Y-7221424D01*
X-25986187Y-7205834D01*
X-26023949Y-7186619D01*
X-26043877Y-7173350D01*
X-26078074Y-7141742D01*
X-26101168Y-7109651D01*
X-26119348Y-7072331D01*
X-26132614Y-7029783D01*
X-26140967Y-6982007D01*
X-26144112Y-6940022D01*
X-26144505Y-6917774D01*
X-26144491Y-6917383D01*
X-25994442Y-6917383D01*
X-25985206Y-6956371D01*
X-25970799Y-6976393D01*
X-25937958Y-6999216D01*
X-25899319Y-7012381D01*
X-25896159Y-7013127D01*
X-25854333Y-7019913D01*
X-25810048Y-7023370D01*
X-25769342Y-7024755D01*
X-25736912Y-7025046D01*
X-25689930Y-7024383D01*
X-25648023Y-7022393D01*
X-25604435Y-7018256D01*
X-25562820Y-7011015D01*
X-25523933Y-6997886D01*
X-25490593Y-6973669D01*
X-25471840Y-6938752D01*
X-25469222Y-6916211D01*
X-25478413Y-6876187D01*
X-25505984Y-6846288D01*
X-25524909Y-6835904D01*
X-25563730Y-6824003D01*
X-25604288Y-6817439D01*
X-25646271Y-6813689D01*
X-25686347Y-6811885D01*
X-25731050Y-6811284D01*
X-25776204Y-6811947D01*
X-25816654Y-6813937D01*
X-25858985Y-6818074D01*
X-25899811Y-6825315D01*
X-25938755Y-6838444D01*
X-25972689Y-6862276D01*
X-25992484Y-6898832D01*
X-25994442Y-6917383D01*
X-26144491Y-6917383D01*
X-26142971Y-6875183D01*
X-26138371Y-6836312D01*
X-26129359Y-6796446D01*
X-26114432Y-6757406D01*
X-26112460Y-6753448D01*
X-26091976Y-6719960D01*
X-26066793Y-6690057D01*
X-26036911Y-6663741D01*
X-26018280Y-6650670D01*
X-25980627Y-6630648D01*
X-25942323Y-6616734D01*
X-25902465Y-6606365D01*
X-25897722Y-6605339D01*
X-25858423Y-6598244D01*
X-25817122Y-6593175D01*
X-25773817Y-6590135D01*
X-25734283Y-6589137D01*
X-25728510Y-6589121D01*
X-25687066Y-6589847D01*
G37*
G36*
X-25331665Y1963620D02*
G01*
X-25331665Y1206858D01*
X-25519243Y1206858D01*
X-25519243Y1460676D01*
X-26132000Y1460676D01*
X-26132000Y1709608D01*
X-25519243Y1709608D01*
X-25519243Y1963620D01*
X-25331665Y1963620D01*
G37*
G36*
X-25331665Y1154297D02*
G01*
X-25331665Y880159D01*
X-25577861Y737131D01*
X-25331665Y598791D01*
X-25331665Y327193D01*
X-25719327Y577884D01*
X-26132000Y303551D01*
X-26132000Y583355D01*
X-25874861Y742211D01*
X-26132000Y901457D01*
X-26132000Y1179699D01*
X-25714833Y901457D01*
X-25331665Y1154297D01*
G37*
D10*
G36*
X-18113136Y-20512869D02*
G01*
X-17704273Y-20631205D01*
X-17724504Y-20703055D01*
X-17753207Y-20778600D01*
X-17787862Y-20847139D01*
X-17828472Y-20908671D01*
X-17833966Y-20915870D01*
X-17887228Y-20975556D01*
X-17947272Y-21026432D01*
X-18014096Y-21068498D01*
X-18054151Y-21088061D01*
X-18124218Y-21113386D01*
X-18203261Y-21131475D01*
X-18279787Y-21141368D01*
X-18363185Y-21145721D01*
X-18388275Y-21145947D01*
X-18463012Y-21144221D01*
X-18546886Y-21137592D01*
X-18624424Y-21125991D01*
X-18706875Y-21106173D01*
X-18780701Y-21079589D01*
X-18790543Y-21075239D01*
X-18856791Y-21039007D01*
X-18918971Y-20992502D01*
X-18977084Y-20935723D01*
X-19023658Y-20878880D01*
X-19060187Y-20825744D01*
X-19098660Y-20755196D01*
X-19129173Y-20677642D01*
X-19151726Y-20593080D01*
X-19164439Y-20517260D01*
X-19171625Y-20436574D01*
X-19173394Y-20368522D01*
X-19170280Y-20278425D01*
X-19160938Y-20193697D01*
X-19145367Y-20114339D01*
X-19123569Y-20040351D01*
X-19095542Y-19971732D01*
X-19051750Y-19893509D01*
X-18998226Y-19823677D01*
X-18974092Y-19798093D01*
X-18907767Y-19740571D01*
X-18833356Y-19692799D01*
X-18750860Y-19654776D01*
X-18679041Y-19631377D01*
X-18602048Y-19614218D01*
X-18519879Y-19603299D01*
X-18432535Y-19598619D01*
X-18409891Y-19598424D01*
X-18323692Y-19601251D01*
X-18243467Y-19609730D01*
X-18169217Y-19623862D01*
X-18088005Y-19648283D01*
X-18015396Y-19680843D01*
X-17961461Y-19714195D01*
X-17903136Y-19761976D01*
X-17850710Y-19818489D01*
X-17804183Y-19883735D01*
X-17763556Y-19957713D01*
X-17734205Y-20026032D01*
X-17718562Y-20069935D01*
X-18130721Y-20161160D01*
X-18157165Y-20092720D01*
X-18176151Y-20060776D01*
X-18228901Y-20006346D01*
X-18272138Y-19979077D01*
X-18343916Y-19954911D01*
X-18398534Y-19950134D01*
X-18473226Y-19957942D01*
X-18546198Y-19985392D01*
X-18607461Y-20032607D01*
X-18641799Y-20075064D01*
X-18675416Y-20143335D01*
X-18695026Y-20222460D01*
X-18703306Y-20295582D01*
X-18705547Y-20366324D01*
X-18702868Y-20452950D01*
X-18694831Y-20528732D01*
X-18678682Y-20603437D01*
X-18647203Y-20677796D01*
X-18629343Y-20703012D01*
X-18569637Y-20754950D01*
X-18495298Y-20785328D01*
X-18415020Y-20794237D01*
X-18337618Y-20787225D01*
X-18267270Y-20763312D01*
X-18212421Y-20722430D01*
X-18166345Y-20659129D01*
X-18136055Y-20592368D01*
X-18115096Y-20521392D01*
X-18113136Y-20512869D01*
G37*
G36*
X-16888161Y-19998045D02*
G01*
X-16806605Y-20001697D01*
X-16725966Y-20008981D01*
X-16664165Y-20018278D01*
X-16589874Y-20038341D01*
X-16519197Y-20072671D01*
X-16473289Y-20106938D01*
X-16425479Y-20163266D01*
X-16390971Y-20233875D01*
X-16389026Y-20239195D01*
X-16367738Y-20312415D01*
X-16358158Y-20387597D01*
X-16357885Y-20402227D01*
X-16357885Y-20888393D01*
X-16354871Y-20965106D01*
X-16348359Y-21010026D01*
X-16323849Y-21082078D01*
X-16305495Y-21122500D01*
X-16698970Y-21122500D01*
X-16730111Y-21057287D01*
X-16744399Y-20986578D01*
X-16800941Y-21035911D01*
X-16862327Y-21077582D01*
X-16908164Y-21100518D01*
X-16981279Y-21124474D01*
X-17061407Y-21139558D01*
X-17139518Y-21145548D01*
X-17166817Y-21145947D01*
X-17248046Y-21141774D01*
X-17329803Y-21126788D01*
X-17399744Y-21100902D01*
X-17464305Y-21058752D01*
X-17517821Y-21000248D01*
X-17551517Y-20933730D01*
X-17565391Y-20859198D01*
X-17565788Y-20843330D01*
X-17562055Y-20809991D01*
X-17145201Y-20809991D01*
X-17116918Y-20877764D01*
X-17110763Y-20883264D01*
X-17040765Y-20909711D01*
X-17009280Y-20911474D01*
X-16933688Y-20901736D01*
X-16879221Y-20880699D01*
X-16817397Y-20837079D01*
X-16793492Y-20805961D01*
X-16770681Y-20732366D01*
X-16768213Y-20690556D01*
X-16768213Y-20630106D01*
X-16839672Y-20651701D01*
X-16913550Y-20671240D01*
X-16948464Y-20679565D01*
X-17025243Y-20700593D01*
X-17094081Y-20728848D01*
X-17110030Y-20740015D01*
X-17145064Y-20805124D01*
X-17145201Y-20809991D01*
X-17562055Y-20809991D01*
X-17557129Y-20765988D01*
X-17527935Y-20693070D01*
X-17492515Y-20646226D01*
X-17427716Y-20597756D01*
X-17352867Y-20565053D01*
X-17281067Y-20543946D01*
X-17222504Y-20531188D01*
X-17139862Y-20514980D01*
X-17058195Y-20498514D01*
X-16984309Y-20482914D01*
X-16916590Y-20467074D01*
X-16844508Y-20445916D01*
X-16773105Y-20420924D01*
X-16768213Y-20419080D01*
X-16778298Y-20346128D01*
X-16800086Y-20309904D01*
X-16871077Y-20280888D01*
X-16912560Y-20278396D01*
X-16987741Y-20284322D01*
X-17060508Y-20309952D01*
X-17067166Y-20314300D01*
X-17113110Y-20371987D01*
X-17132012Y-20419080D01*
X-17532815Y-20372185D01*
X-17514861Y-20297725D01*
X-17487615Y-20224907D01*
X-17467602Y-20188271D01*
X-17419125Y-20129098D01*
X-17358918Y-20081133D01*
X-17344137Y-20071767D01*
X-17275719Y-20039985D01*
X-17204078Y-20020231D01*
X-17185502Y-20016446D01*
X-17107397Y-20004613D01*
X-17031819Y-19998564D01*
X-16967148Y-19997028D01*
X-16888161Y-19998045D01*
G37*
G36*
X-16111688Y-20020476D02*
G01*
X-15720044Y-20020476D01*
X-15720044Y-20182409D01*
X-15667043Y-20125322D01*
X-15608494Y-20075584D01*
X-15549685Y-20039527D01*
X-15480116Y-20013629D01*
X-15407564Y-20000390D01*
X-15341957Y-19997028D01*
X-15265349Y-20001572D01*
X-15193478Y-20017067D01*
X-15134594Y-20043557D01*
X-15073245Y-20093035D01*
X-15025823Y-20154676D01*
X-15010030Y-20182409D01*
X-14955780Y-20127270D01*
X-14898765Y-20078784D01*
X-14834880Y-20038357D01*
X-14829779Y-20035863D01*
X-14757171Y-20010719D01*
X-14679092Y-19998887D01*
X-14628645Y-19997028D01*
X-14555248Y-20002060D01*
X-14480423Y-20020132D01*
X-14407796Y-20056173D01*
X-14353506Y-20102175D01*
X-14310229Y-20162167D01*
X-14279317Y-20236997D01*
X-14262412Y-20314645D01*
X-14255457Y-20390242D01*
X-14254587Y-20431170D01*
X-14254587Y-21122500D01*
X-14675174Y-21122500D01*
X-14675174Y-20493818D01*
X-14685377Y-20418322D01*
X-14704116Y-20382444D01*
X-14761510Y-20334723D01*
X-14809263Y-20325291D01*
X-14883477Y-20342447D01*
X-14928698Y-20379513D01*
X-14962769Y-20449763D01*
X-14973417Y-20523969D01*
X-14974127Y-20552803D01*
X-14974127Y-21122500D01*
X-15394347Y-21122500D01*
X-15394347Y-20516167D01*
X-15397818Y-20440996D01*
X-15402407Y-20417615D01*
X-15442923Y-20355818D01*
X-15448935Y-20350936D01*
X-15518026Y-20325516D01*
X-15526238Y-20325291D01*
X-15599319Y-20342679D01*
X-15644940Y-20380245D01*
X-15678074Y-20447221D01*
X-15689975Y-20523059D01*
X-15691102Y-20560497D01*
X-15691102Y-21122500D01*
X-16111688Y-21122500D01*
X-16111688Y-20020476D01*
G37*
G36*
X-14068108Y-20612154D02*
G01*
X-13624074Y-20583211D01*
X-13609134Y-20659821D01*
X-13581024Y-20730317D01*
X-13565456Y-20754303D01*
X-13508521Y-20808327D01*
X-13436952Y-20839925D01*
X-13359193Y-20849192D01*
X-13285547Y-20841573D01*
X-13215824Y-20811279D01*
X-13205320Y-20803030D01*
X-13160047Y-20742917D01*
X-13151098Y-20695685D01*
X-13173345Y-20625075D01*
X-13202756Y-20592370D01*
X-13266922Y-20556008D01*
X-13337698Y-20531826D01*
X-13418710Y-20511012D01*
X-13441625Y-20505908D01*
X-13515631Y-20488254D01*
X-13600410Y-20464190D01*
X-13676602Y-20437908D01*
X-13744208Y-20409407D01*
X-13814000Y-20372278D01*
X-13879797Y-20324924D01*
X-13931188Y-20272416D01*
X-13974465Y-20205108D01*
X-14001255Y-20130015D01*
X-14011559Y-20047137D01*
X-14011688Y-20036229D01*
X-14003722Y-19958404D01*
X-13979826Y-19883609D01*
X-13944277Y-19818243D01*
X-13895490Y-19758422D01*
X-13833394Y-19707189D01*
X-13766129Y-19668420D01*
X-13741311Y-19657042D01*
X-13667260Y-19631397D01*
X-13592171Y-19614968D01*
X-13507476Y-19604149D01*
X-13427234Y-19599340D01*
X-13369818Y-19598424D01*
X-13282629Y-19601018D01*
X-13202185Y-19608800D01*
X-13128484Y-19621769D01*
X-13048946Y-19644180D01*
X-12979119Y-19674062D01*
X-12928349Y-19704670D01*
X-12867721Y-19757148D01*
X-12818874Y-19821617D01*
X-12781809Y-19898078D01*
X-12759415Y-19973160D01*
X-12747365Y-20042458D01*
X-13187368Y-20067370D01*
X-13208005Y-19996422D01*
X-13250835Y-19933339D01*
X-13261007Y-19924488D01*
X-13327777Y-19890966D01*
X-13403782Y-19879966D01*
X-13415980Y-19879792D01*
X-13491125Y-19889408D01*
X-13538712Y-19913864D01*
X-13577781Y-19976046D01*
X-13579744Y-19996662D01*
X-13545672Y-20060776D01*
X-13474615Y-20094160D01*
X-13396863Y-20113780D01*
X-13389235Y-20115364D01*
X-13315470Y-20131610D01*
X-13230895Y-20152014D01*
X-13154799Y-20172526D01*
X-13074677Y-20197281D01*
X-12996633Y-20226357D01*
X-12951063Y-20247255D01*
X-12882200Y-20287312D01*
X-12819146Y-20337802D01*
X-12770259Y-20394588D01*
X-12758356Y-20412852D01*
X-12723939Y-20483629D01*
X-12703809Y-20559947D01*
X-12697906Y-20634136D01*
X-12704281Y-20713180D01*
X-12723408Y-20788747D01*
X-12755286Y-20860837D01*
X-12778506Y-20899384D01*
X-12828709Y-20962959D01*
X-12889055Y-21017261D01*
X-12951211Y-21057745D01*
X-13003087Y-21083299D01*
X-13079795Y-21110707D01*
X-13154652Y-21128266D01*
X-13236733Y-21139829D01*
X-13312837Y-21144968D01*
X-13366520Y-21145947D01*
X-13459170Y-21143594D01*
X-13544413Y-21136536D01*
X-13622248Y-21124772D01*
X-13709126Y-21103450D01*
X-13784429Y-21074776D01*
X-13859515Y-21030662D01*
X-13900313Y-20995371D01*
X-13951421Y-20935908D01*
X-13993461Y-20870727D01*
X-14026434Y-20799827D01*
X-14050339Y-20723208D01*
X-14065177Y-20640871D01*
X-14068108Y-20612154D01*
G37*
G36*
X-12132605Y-20067370D02*
G01*
X-12529378Y-20001425D01*
X-12507624Y-19931418D01*
X-12474137Y-19857882D01*
X-12431919Y-19793112D01*
X-12380971Y-19737108D01*
X-12339235Y-19702472D01*
X-12272093Y-19661930D01*
X-12193767Y-19631345D01*
X-12117728Y-19613056D01*
X-12033471Y-19602082D01*
X-11956980Y-19598526D01*
X-11940997Y-19598424D01*
X-11852497Y-19601036D01*
X-11772011Y-19608871D01*
X-11699540Y-19621930D01*
X-11623153Y-19644496D01*
X-11548621Y-19680329D01*
X-11513084Y-19705403D01*
X-11455381Y-19762166D01*
X-11414165Y-19825845D01*
X-11389436Y-19896439D01*
X-11381192Y-19973948D01*
X-11390081Y-20047844D01*
X-11419533Y-20120934D01*
X-11435048Y-20145406D01*
X-11487517Y-20204773D01*
X-11545988Y-20250095D01*
X-11596615Y-20280228D01*
X-11523623Y-20302366D01*
X-11462892Y-20331153D01*
X-11403556Y-20377866D01*
X-11356984Y-20435939D01*
X-11346021Y-20454617D01*
X-11317471Y-20526976D01*
X-11305276Y-20604338D01*
X-11304256Y-20636700D01*
X-11309733Y-20710667D01*
X-11326165Y-20782953D01*
X-11353551Y-20853558D01*
X-11373499Y-20892056D01*
X-11417052Y-20956247D01*
X-11470227Y-21011570D01*
X-11533024Y-21058025D01*
X-11572068Y-21080001D01*
X-11642021Y-21108852D01*
X-11722186Y-21129460D01*
X-11800708Y-21140730D01*
X-11874235Y-21145367D01*
X-11913153Y-21145947D01*
X-11987312Y-21144260D01*
X-12066114Y-21138026D01*
X-12145999Y-21125278D01*
X-12222896Y-21103765D01*
X-12238118Y-21097953D01*
X-12308422Y-21063399D01*
X-12370496Y-21020187D01*
X-12424342Y-20968316D01*
X-12434123Y-20956903D01*
X-12478509Y-20894127D01*
X-12515954Y-20822121D01*
X-12543720Y-20749423D01*
X-12551726Y-20723529D01*
X-12132605Y-20677001D01*
X-12110332Y-20747291D01*
X-12071622Y-20809507D01*
X-12056035Y-20823913D01*
X-11988287Y-20856795D01*
X-11923412Y-20864579D01*
X-11850613Y-20851780D01*
X-11786625Y-20809911D01*
X-11783094Y-20806327D01*
X-11742597Y-20742920D01*
X-11727170Y-20668488D01*
X-11726674Y-20650622D01*
X-11735623Y-20577391D01*
X-11768188Y-20511375D01*
X-11780896Y-20497116D01*
X-11844460Y-20456174D01*
X-11921686Y-20442581D01*
X-11927442Y-20442527D01*
X-12003720Y-20451687D01*
X-12063363Y-20465975D01*
X-12041747Y-20156763D01*
X-11987159Y-20161160D01*
X-11911596Y-20149894D01*
X-11849772Y-20116097D01*
X-11803581Y-20056773D01*
X-11794451Y-20009485D01*
X-11815838Y-19936997D01*
X-11835850Y-19915329D01*
X-11903117Y-19883991D01*
X-11949057Y-19879792D01*
X-12023916Y-19893007D01*
X-12069957Y-19921557D01*
X-12110629Y-19983328D01*
X-12130429Y-20054565D01*
X-12132605Y-20067370D01*
G37*
G36*
X-26885589Y24194630D02*
G01*
X-26622539Y24194630D01*
X-26622539Y24460366D01*
X-26400523Y24460366D01*
X-26400523Y24194630D01*
X-26136008Y24194630D01*
X-26136008Y23975788D01*
X-26400523Y23975788D01*
X-26400523Y23710052D01*
X-26622539Y23710052D01*
X-26622539Y23975788D01*
X-26885589Y23975788D01*
X-26885589Y24194630D01*
G37*
G36*
X-25877599Y24585418D02*
G01*
X-25213258Y24585418D01*
X-25213258Y24350945D01*
X-25663153Y24350945D01*
X-25687333Y24209528D01*
X-25640927Y24230411D01*
X-25595010Y24245188D01*
X-25546757Y24254526D01*
X-25504640Y24257156D01*
X-25449954Y24253970D01*
X-25399287Y24244413D01*
X-25352639Y24228485D01*
X-25303294Y24201849D01*
X-25259420Y24166542D01*
X-25222685Y24124654D01*
X-25194972Y24078278D01*
X-25176282Y24027415D01*
X-25166615Y23972063D01*
X-25165142Y23938419D01*
X-25168987Y23884613D01*
X-25180521Y23832004D01*
X-25199744Y23780594D01*
X-25213747Y23752550D01*
X-25240461Y23710601D01*
X-25276572Y23669686D01*
X-25319097Y23635417D01*
X-25351011Y23616263D01*
X-25398577Y23595746D01*
X-25452372Y23581092D01*
X-25504551Y23573077D01*
X-25561499Y23569551D01*
X-25578645Y23569368D01*
X-25632458Y23570894D01*
X-25681788Y23575473D01*
X-25731343Y23584141D01*
X-25749615Y23588663D01*
X-25795968Y23604180D01*
X-25840808Y23626242D01*
X-25870516Y23646304D01*
X-25907737Y23679113D01*
X-25940969Y23718143D01*
X-25951116Y23733011D01*
X-25974585Y23776452D01*
X-25993172Y23823564D01*
X-26002651Y23854155D01*
X-25719573Y23881999D01*
X-25705315Y23833967D01*
X-25676082Y23792812D01*
X-25671458Y23788698D01*
X-25627167Y23763923D01*
X-25581332Y23756946D01*
X-25531061Y23765640D01*
X-25489698Y23791722D01*
X-25484856Y23796514D01*
X-25458810Y23838568D01*
X-25448094Y23886448D01*
X-25446754Y23914483D01*
X-25451314Y23964648D01*
X-25468461Y24010837D01*
X-25485345Y24032208D01*
X-25526929Y24059031D01*
X-25575909Y24069249D01*
X-25587682Y24069577D01*
X-25637313Y24062613D01*
X-25666084Y24051748D01*
X-25707360Y24024136D01*
X-25727878Y24005097D01*
X-25966014Y24035872D01*
X-25877599Y24585418D01*
G37*
G36*
X-25112141Y24585418D02*
G01*
X-24786566Y24585418D01*
X-24559908Y23865390D01*
X-24336670Y24585418D01*
X-24020620Y24585418D01*
X-24394312Y23585000D01*
X-24731611Y23585000D01*
X-25112141Y24585418D01*
G37*
G36*
X22773517Y-16168579D02*
G01*
X23046092Y-16247470D01*
X23032604Y-16295370D01*
X23013469Y-16345733D01*
X22990366Y-16391426D01*
X22963293Y-16432447D01*
X22959630Y-16437247D01*
X22924122Y-16477037D01*
X22884093Y-16510954D01*
X22839543Y-16538998D01*
X22812840Y-16552041D01*
X22766128Y-16568924D01*
X22713433Y-16580983D01*
X22662416Y-16587578D01*
X22606817Y-16590480D01*
X22590090Y-16590631D01*
X22540266Y-16589480D01*
X22484350Y-16585061D01*
X22432658Y-16577327D01*
X22377691Y-16564115D01*
X22328473Y-16546392D01*
X22321912Y-16543492D01*
X22277747Y-16519338D01*
X22236293Y-16488334D01*
X22197551Y-16450482D01*
X22166502Y-16412586D01*
X22142149Y-16377163D01*
X22116500Y-16330131D01*
X22096159Y-16278428D01*
X22081123Y-16222053D01*
X22072648Y-16171507D01*
X22067857Y-16117716D01*
X22066678Y-16072348D01*
X22068754Y-16012283D01*
X22074982Y-15955798D01*
X22085362Y-15902893D01*
X22099895Y-15853567D01*
X22118579Y-15807821D01*
X22147774Y-15755673D01*
X22183456Y-15709118D01*
X22199546Y-15692062D01*
X22243762Y-15653714D01*
X22293370Y-15621866D01*
X22348367Y-15596517D01*
X22396246Y-15580918D01*
X22447575Y-15569479D01*
X22502355Y-15562199D01*
X22560584Y-15559079D01*
X22575680Y-15558949D01*
X22633146Y-15560834D01*
X22686629Y-15566486D01*
X22736129Y-15575908D01*
X22790271Y-15592188D01*
X22838676Y-15613895D01*
X22874633Y-15636130D01*
X22913516Y-15667984D01*
X22948467Y-15705659D01*
X22979485Y-15749156D01*
X23006570Y-15798475D01*
X23026137Y-15844021D01*
X23036566Y-15873290D01*
X22761793Y-15934106D01*
X22744164Y-15888480D01*
X22731507Y-15867184D01*
X22696340Y-15830897D01*
X22667515Y-15812718D01*
X22619663Y-15796607D01*
X22583251Y-15793422D01*
X22533456Y-15798628D01*
X22484809Y-15816928D01*
X22443966Y-15848405D01*
X22421074Y-15876709D01*
X22398663Y-15922223D01*
X22385590Y-15974973D01*
X22380070Y-16023721D01*
X22378576Y-16070882D01*
X22380362Y-16128633D01*
X22385720Y-16179154D01*
X22396486Y-16228958D01*
X22417472Y-16278531D01*
X22429378Y-16295341D01*
X22469183Y-16329966D01*
X22518742Y-16350219D01*
X22572260Y-16356158D01*
X22623862Y-16351483D01*
X22670760Y-16335541D01*
X22707327Y-16308286D01*
X22738044Y-16266086D01*
X22758237Y-16221578D01*
X22772210Y-16174261D01*
X22773517Y-16168579D01*
G37*
G36*
X23590167Y-15825363D02*
G01*
X23644537Y-15827798D01*
X23698296Y-15832654D01*
X23739497Y-15838852D01*
X23789025Y-15852227D01*
X23836143Y-15875114D01*
X23866748Y-15897958D01*
X23898621Y-15935511D01*
X23921626Y-15982583D01*
X23922923Y-15986130D01*
X23937115Y-16034943D01*
X23943502Y-16085064D01*
X23943684Y-16094818D01*
X23943684Y-16418928D01*
X23945693Y-16470070D01*
X23950034Y-16500017D01*
X23966375Y-16548052D01*
X23978611Y-16575000D01*
X23716294Y-16575000D01*
X23695533Y-16531524D01*
X23686008Y-16484385D01*
X23648313Y-16517274D01*
X23607389Y-16545054D01*
X23576831Y-16560345D01*
X23528088Y-16576316D01*
X23474669Y-16586372D01*
X23422595Y-16590365D01*
X23404396Y-16590631D01*
X23350243Y-16587849D01*
X23295739Y-16577858D01*
X23249111Y-16560601D01*
X23206071Y-16532501D01*
X23170393Y-16493499D01*
X23147929Y-16449153D01*
X23138680Y-16399465D01*
X23138415Y-16388886D01*
X23140904Y-16366660D01*
X23418806Y-16366660D01*
X23437662Y-16411842D01*
X23441765Y-16415509D01*
X23488431Y-16433140D01*
X23509420Y-16434316D01*
X23559815Y-16427824D01*
X23596127Y-16413799D01*
X23637342Y-16384719D01*
X23653279Y-16363974D01*
X23668486Y-16314910D01*
X23670132Y-16287037D01*
X23670132Y-16246737D01*
X23622492Y-16261134D01*
X23573240Y-16274160D01*
X23549965Y-16279710D01*
X23498779Y-16293728D01*
X23452887Y-16312565D01*
X23442254Y-16320010D01*
X23418898Y-16363416D01*
X23418806Y-16366660D01*
X23140904Y-16366660D01*
X23144188Y-16337325D01*
X23163651Y-16288713D01*
X23187264Y-16257484D01*
X23230463Y-16225170D01*
X23280362Y-16203369D01*
X23328229Y-16189297D01*
X23367271Y-16180792D01*
X23422366Y-16169987D01*
X23476811Y-16159009D01*
X23526068Y-16148609D01*
X23571214Y-16138049D01*
X23619269Y-16123944D01*
X23666871Y-16107282D01*
X23670132Y-16106053D01*
X23663409Y-16057418D01*
X23648883Y-16033269D01*
X23601556Y-16013925D01*
X23573900Y-16012264D01*
X23523780Y-16016214D01*
X23475268Y-16033301D01*
X23470830Y-16036200D01*
X23440201Y-16074658D01*
X23427599Y-16106053D01*
X23160397Y-16074790D01*
X23172367Y-16025150D01*
X23190531Y-15976605D01*
X23203872Y-15952180D01*
X23236191Y-15912732D01*
X23276328Y-15880755D01*
X23286182Y-15874511D01*
X23331795Y-15853323D01*
X23379555Y-15840154D01*
X23391939Y-15837630D01*
X23444009Y-15829742D01*
X23494395Y-15825709D01*
X23537508Y-15824685D01*
X23590167Y-15825363D01*
G37*
G36*
X24107815Y-15840317D02*
G01*
X24368911Y-15840317D01*
X24368911Y-15948272D01*
X24404245Y-15910214D01*
X24443278Y-15877056D01*
X24482484Y-15853018D01*
X24528863Y-15835753D01*
X24577231Y-15826927D01*
X24620969Y-15824685D01*
X24672041Y-15827715D01*
X24719955Y-15838044D01*
X24759211Y-15855704D01*
X24800110Y-15888690D01*
X24831725Y-15929784D01*
X24842254Y-15948272D01*
X24878421Y-15911513D01*
X24916431Y-15879189D01*
X24959021Y-15852238D01*
X24962421Y-15850575D01*
X25010827Y-15833813D01*
X25062879Y-15825924D01*
X25096510Y-15824685D01*
X25145442Y-15828040D01*
X25195325Y-15840088D01*
X25243743Y-15864115D01*
X25279937Y-15894783D01*
X25308788Y-15934778D01*
X25329396Y-15984665D01*
X25340666Y-16036430D01*
X25345303Y-16086828D01*
X25345882Y-16114113D01*
X25345882Y-16575000D01*
X25065491Y-16575000D01*
X25065491Y-16155879D01*
X25058689Y-16105548D01*
X25046196Y-16081629D01*
X25007934Y-16049815D01*
X24976099Y-16043527D01*
X24926622Y-16054964D01*
X24896475Y-16079675D01*
X24873761Y-16126509D01*
X24866663Y-16175979D01*
X24866189Y-16195202D01*
X24866189Y-16575000D01*
X24586043Y-16575000D01*
X24586043Y-16170778D01*
X24583729Y-16120664D01*
X24580669Y-16105076D01*
X24553658Y-16063878D01*
X24549651Y-16060624D01*
X24503590Y-16043677D01*
X24498115Y-16043527D01*
X24449395Y-16055119D01*
X24418981Y-16080163D01*
X24396891Y-16124814D01*
X24388957Y-16175372D01*
X24388206Y-16200331D01*
X24388206Y-16575000D01*
X24107815Y-16575000D01*
X24107815Y-15840317D01*
G37*
G36*
X22102337Y-17254581D02*
G01*
X22936182Y-17254581D01*
X22936182Y-17489054D01*
X22414235Y-17489054D01*
X22414235Y-17629738D01*
X22898569Y-17629738D01*
X22898569Y-17832948D01*
X22414235Y-17832948D01*
X22414235Y-18020526D01*
X22951325Y-18020526D01*
X22951325Y-18255000D01*
X22102337Y-18255000D01*
X22102337Y-17254581D01*
G37*
G36*
X23115212Y-17254581D02*
G01*
X23405861Y-17254581D01*
X23785170Y-17818293D01*
X23785170Y-17254581D01*
X24078262Y-17254581D01*
X24078262Y-18255000D01*
X23785170Y-18255000D01*
X23407815Y-17694218D01*
X23407815Y-18255000D01*
X23115212Y-18255000D01*
X23115212Y-17254581D01*
G37*
D11*
G36*
X-25331665Y-3136584D02*
G01*
X-25331665Y-3803660D01*
X-25519243Y-3803660D01*
X-25519243Y-3386102D01*
X-25631790Y-3386102D01*
X-25631790Y-3773569D01*
X-25794358Y-3773569D01*
X-25794358Y-3386102D01*
X-25944421Y-3386102D01*
X-25944421Y-3815774D01*
X-26132000Y-3815774D01*
X-26132000Y-3136584D01*
X-25331665Y-3136584D01*
G37*
G36*
X-25331665Y-3946884D02*
G01*
X-25331665Y-4179403D01*
X-25782635Y-4482850D01*
X-25331665Y-4482850D01*
X-25331665Y-4717323D01*
X-26132000Y-4717323D01*
X-26132000Y-4482850D01*
X-25683374Y-4180966D01*
X-26132000Y-4180966D01*
X-26132000Y-3946884D01*
X-25331665Y-3946884D01*
G37*
G36*
X-25644295Y4808471D02*
G01*
X-25644295Y4598031D01*
X-25431706Y4598031D01*
X-25431706Y4420418D01*
X-25644295Y4420418D01*
X-25644295Y4208806D01*
X-25819369Y4208806D01*
X-25819369Y4420418D01*
X-26031958Y4420418D01*
X-26031958Y4598031D01*
X-25819369Y4598031D01*
X-25819369Y4808471D01*
X-25644295Y4808471D01*
G37*
G36*
X-25331665Y4002079D02*
G01*
X-25331665Y3470606D01*
X-25519243Y3470606D01*
X-25519243Y3830522D01*
X-25632376Y3849866D01*
X-25615670Y3812742D01*
X-25603849Y3776007D01*
X-25596378Y3737406D01*
X-25594274Y3703711D01*
X-25596823Y3659963D01*
X-25604469Y3619429D01*
X-25617211Y3582111D01*
X-25638520Y3542635D01*
X-25666766Y3507536D01*
X-25700276Y3478148D01*
X-25737376Y3455978D01*
X-25778067Y3441026D01*
X-25822348Y3433292D01*
X-25849264Y3432113D01*
X-25892309Y3435189D01*
X-25934396Y3444416D01*
X-25975524Y3459795D01*
X-25997959Y3470997D01*
X-26031518Y3492368D01*
X-26064250Y3521257D01*
X-26091666Y3555277D01*
X-26106989Y3580808D01*
X-26123402Y3618862D01*
X-26135126Y3661897D01*
X-26141537Y3703641D01*
X-26144358Y3749199D01*
X-26144505Y3762916D01*
X-26143284Y3805966D01*
X-26139621Y3845430D01*
X-26132686Y3885074D01*
X-26129069Y3899692D01*
X-26116655Y3936774D01*
X-26099006Y3972646D01*
X-26082956Y3996412D01*
X-26056708Y4026189D01*
X-26025485Y4052775D01*
X-26013591Y4060892D01*
X-25978837Y4079668D01*
X-25941148Y4094538D01*
X-25916675Y4102120D01*
X-25894400Y3875658D01*
X-25932826Y3864252D01*
X-25965750Y3840865D01*
X-25969041Y3837166D01*
X-25988861Y3801733D01*
X-25994442Y3765065D01*
X-25987487Y3724848D01*
X-25966621Y3691758D01*
X-25962788Y3687885D01*
X-25929144Y3667048D01*
X-25890841Y3658475D01*
X-25868413Y3657403D01*
X-25828280Y3661051D01*
X-25791330Y3674769D01*
X-25774233Y3688275D01*
X-25752775Y3721543D01*
X-25744600Y3760727D01*
X-25744337Y3770146D01*
X-25749909Y3809850D01*
X-25758601Y3832867D01*
X-25780691Y3865888D01*
X-25795921Y3882302D01*
X-25771302Y4072811D01*
X-25331665Y4002079D01*
G37*
G36*
X-25331665Y3389713D02*
G01*
X-25331665Y3129252D01*
X-25907687Y2947926D01*
X-25331665Y2769336D01*
X-25331665Y2516496D01*
X-26132000Y2815449D01*
X-26132000Y3085289D01*
X-25331665Y3389713D01*
G37*
%TO.C,SW4*%
D12*
X14000000Y-24250000D02*
X20000000Y-24250000D01*
X20000000Y-20750000D01*
X14000000Y-20750000D01*
X14000000Y-24250000D01*
X18475000Y-23225000D02*
X15525000Y-23225000D01*
X15525000Y-21775000D01*
X18475000Y-21775000D01*
X18475000Y-23225000D01*
%TO.C,U1*%
X-8890000Y30480000D02*
X-8890000Y-30480000D01*
X-8890000Y-30480000D02*
X-6350000Y-30480000D01*
X-6350000Y30480000D02*
X-8890000Y30480000D01*
X-6350000Y17780000D02*
X-6350000Y30480000D01*
X-6350000Y15240000D02*
X-1270000Y15240000D01*
X-6350000Y-30480000D02*
X-6350000Y15240000D01*
X-1270000Y17780000D02*
X-6350000Y17780000D01*
X-1270000Y17780000D02*
X-1270000Y15240000D01*
X6350000Y30480000D02*
X6350000Y-30480000D01*
X6350000Y-30480000D02*
X8890000Y-30480000D01*
X8890000Y30480000D02*
X6350000Y30480000D01*
X8890000Y-30480000D02*
X8890000Y30480000D01*
%TO.C,U2*%
D13*
X11920000Y25400000D02*
X14460000Y25400000D01*
X14460000Y15240000D01*
X11920000Y15240000D01*
X11920000Y25400000D01*
X19540000Y25400000D02*
X22080000Y25400000D01*
X22080000Y15240000D01*
X19540000Y15240000D01*
X19540000Y25400000D01*
X11158000Y24130000D02*
X10358000Y23730000D01*
X10358000Y24530000D01*
X11158000Y24130000D01*
G36*
X11158000Y24130000D02*
G01*
X10358000Y23730000D01*
X10358000Y24530000D01*
X11158000Y24130000D01*
G37*
D12*
%TO.C,D5*%
X27145000Y2720000D02*
X27475000Y2720000D01*
X27145000Y-1700000D02*
X30085000Y-1700000D01*
X27145000Y-1820000D02*
X30085000Y-1820000D01*
X27145000Y-1940000D02*
X30085000Y-1940000D01*
X27145000Y-2720000D02*
X27145000Y2720000D01*
X27475000Y-2720000D02*
X27145000Y-2720000D01*
X29755000Y-2720000D02*
X30085000Y-2720000D01*
X30085000Y2720000D02*
X29755000Y2720000D01*
X30085000Y-2720000D02*
X30085000Y2720000D01*
%TO.C,SW3*%
X14000000Y-18750000D02*
X20000000Y-18750000D01*
X20000000Y-15250000D01*
X14000000Y-15250000D01*
X14000000Y-18750000D01*
X18475000Y-17725000D02*
X15525000Y-17725000D01*
X15525000Y-16275000D01*
X18475000Y-16275000D01*
X18475000Y-17725000D01*
%TO.C,D3*%
X-20800000Y-28735000D02*
X-18515000Y-28735000D01*
X-18515000Y-27265000D02*
X-20800000Y-27265000D01*
X-18515000Y-28735000D02*
X-18515000Y-27265000D01*
%TO.C,J2*%
X-24540000Y2430000D02*
X-24540000Y-10330000D01*
X-24540000Y2430000D02*
X-21880000Y2430000D01*
X-24540000Y-10330000D02*
X-21880000Y-10330000D01*
X-23210000Y5030000D02*
X-21880000Y5030000D01*
X-21880000Y5030000D02*
X-21880000Y3700000D01*
X-21880000Y2430000D02*
X-21880000Y-10330000D01*
%TO.C,U19*%
D13*
X29890000Y8890000D02*
X12110000Y8890000D01*
X12110000Y6350000D01*
X29890000Y6350000D01*
X29890000Y8890000D01*
X29890000Y-6350000D02*
X12110000Y-6350000D01*
X12110000Y-8890000D01*
X29890000Y-8890000D01*
X29890000Y-6350000D01*
D12*
%TO.C,D4*%
X-20800000Y-25235000D02*
X-18515000Y-25235000D01*
X-18515000Y-23765000D02*
X-20800000Y-23765000D01*
X-18515000Y-25235000D02*
X-18515000Y-23765000D01*
%TO.C,J4*%
X-20932500Y5580000D02*
X-20932500Y4580000D01*
X-20932500Y4580000D02*
X-19932500Y5080000D01*
X-19932500Y5080000D02*
X-20932500Y5580000D01*
X-19542500Y10290000D02*
X-10422500Y10290000D01*
X-19542500Y2050000D02*
X-18232500Y2050000D01*
X-19542500Y-10290000D02*
X-19542500Y10290000D01*
X-18232500Y8990000D02*
X-11732500Y8990000D01*
X-18232500Y2050000D02*
X-18232500Y8990000D01*
X-18232500Y-2050000D02*
X-19542500Y-2050000D01*
X-18232500Y-2050000D02*
X-18232500Y-2050000D01*
X-18232500Y-8990000D02*
X-18232500Y-2050000D01*
X-11732500Y8990000D02*
X-11732500Y-8990000D01*
X-11732500Y-8990000D02*
X-18232500Y-8990000D01*
X-10422500Y10290000D02*
X-10422500Y-10290000D01*
X-10422500Y-10290000D02*
X-19542500Y-10290000D01*
%TO.C,C1*%
X-4080000Y-20072651D02*
X4080000Y-20072651D01*
X-4080000Y-20112651D02*
X4080000Y-20112651D01*
X-4080000Y-20152651D02*
X4080000Y-20152651D01*
X-4079000Y-20032651D02*
X4079000Y-20032651D01*
X-4077000Y-19992651D02*
X4077000Y-19992651D01*
X-4076000Y-19952651D02*
X4076000Y-19952651D01*
X-4074000Y-19912651D02*
X4074000Y-19912651D01*
X-4071000Y-19872651D02*
X4071000Y-19872651D01*
X-4068000Y-19832651D02*
X4068000Y-19832651D01*
X-4065000Y-19792651D02*
X4065000Y-19792651D01*
X-4061000Y-19752651D02*
X4061000Y-19752651D01*
X-4057000Y-19712651D02*
X4057000Y-19712651D01*
X-4052000Y-19672651D02*
X4052000Y-19672651D01*
X-4048000Y-19632651D02*
X4048000Y-19632651D01*
X-4042000Y-19592651D02*
X4042000Y-19592651D01*
X-4037000Y-19552651D02*
X4037000Y-19552651D01*
X-4030000Y-19512651D02*
X4030000Y-19512651D01*
X-4024000Y-19472651D02*
X4024000Y-19472651D01*
X-4017000Y-19431651D02*
X-1040000Y-19431651D01*
X-4010000Y-19391651D02*
X-1040000Y-19391651D01*
X-4002000Y-19351651D02*
X-1040000Y-19351651D01*
X-3994000Y-19311651D02*
X-1040000Y-19311651D01*
X-3985000Y-19271651D02*
X-1040000Y-19271651D01*
X-3976000Y-19231651D02*
X-1040000Y-19231651D01*
X-3967000Y-19191651D02*
X-1040000Y-19191651D01*
X-3957000Y-19151651D02*
X-1040000Y-19151651D01*
X-3947000Y-19111651D02*
X-1040000Y-19111651D01*
X-3936000Y-19071651D02*
X-1040000Y-19071651D01*
X-3925000Y-19031651D02*
X-1040000Y-19031651D01*
X-3914000Y-18991651D02*
X-1040000Y-18991651D01*
X-3902000Y-18951651D02*
X-1040000Y-18951651D01*
X-3889000Y-18911651D02*
X-1040000Y-18911651D01*
X-3877000Y-18871651D02*
X-1040000Y-18871651D01*
X-3863000Y-18831651D02*
X-1040000Y-18831651D01*
X-3850000Y-18791651D02*
X-1040000Y-18791651D01*
X-3835000Y-18751651D02*
X-1040000Y-18751651D01*
X-3821000Y-18711651D02*
X-1040000Y-18711651D01*
X-3805000Y-18671651D02*
X-1040000Y-18671651D01*
X-3790000Y-18631651D02*
X-1040000Y-18631651D01*
X-3774000Y-18591651D02*
X-1040000Y-18591651D01*
X-3757000Y-18551651D02*
X-1040000Y-18551651D01*
X-3740000Y-18511651D02*
X-1040000Y-18511651D01*
X-3722000Y-18471651D02*
X-1040000Y-18471651D01*
X-3704000Y-18431651D02*
X-1040000Y-18431651D01*
X-3686000Y-18391651D02*
X-1040000Y-18391651D01*
X-3666000Y-18351651D02*
X-1040000Y-18351651D01*
X-3647000Y-18311651D02*
X-1040000Y-18311651D01*
X-3627000Y-18271651D02*
X-1040000Y-18271651D01*
X-3606000Y-18231651D02*
X-1040000Y-18231651D01*
X-3584000Y-18191651D02*
X-1040000Y-18191651D01*
X-3562000Y-18151651D02*
X-1040000Y-18151651D01*
X-3540000Y-18111651D02*
X-1040000Y-18111651D01*
X-3517000Y-18071651D02*
X-1040000Y-18071651D01*
X-3493000Y-18031651D02*
X-1040000Y-18031651D01*
X-3469000Y-17991651D02*
X-1040000Y-17991651D01*
X-3444000Y-17951651D02*
X-1040000Y-17951651D01*
X-3418000Y-17911651D02*
X-1040000Y-17911651D01*
X-3392000Y-17871651D02*
X-1040000Y-17871651D01*
X-3365000Y-17831651D02*
X-1040000Y-17831651D01*
X-3338000Y-17791651D02*
X-1040000Y-17791651D01*
X-3309000Y-17751651D02*
X-1040000Y-17751651D01*
X-3280000Y-17711651D02*
X-1040000Y-17711651D01*
X-3250000Y-17671651D02*
X-1040000Y-17671651D01*
X-3220000Y-17631651D02*
X-1040000Y-17631651D01*
X-3189000Y-17591651D02*
X-1040000Y-17591651D01*
X-3156000Y-17551651D02*
X-1040000Y-17551651D01*
X-3124000Y-17511651D02*
X-1040000Y-17511651D01*
X-3090000Y-17471651D02*
X-1040000Y-17471651D01*
X-3055000Y-17431651D02*
X-1040000Y-17431651D01*
X-3019000Y-17391651D02*
X-1040000Y-17391651D01*
X-2983000Y-17351651D02*
X2983000Y-17351651D01*
X-2945000Y-17311651D02*
X2945000Y-17311651D01*
X-2907000Y-17271651D02*
X2907000Y-17271651D01*
X-2867000Y-17231651D02*
X2867000Y-17231651D01*
X-2826000Y-17191651D02*
X2826000Y-17191651D01*
X-2784000Y-17151651D02*
X2784000Y-17151651D01*
X-2741000Y-17111651D02*
X2741000Y-17111651D01*
X-2715000Y-24162349D02*
X-1915000Y-24162349D01*
X-2697000Y-17071651D02*
X2697000Y-17071651D01*
X-2651000Y-17031651D02*
X2651000Y-17031651D01*
X-2604000Y-16991651D02*
X2604000Y-16991651D01*
X-2556000Y-16951651D02*
X2556000Y-16951651D01*
X-2505000Y-16911651D02*
X2505000Y-16911651D01*
X-2454000Y-16871651D02*
X2454000Y-16871651D01*
X-2400000Y-16831651D02*
X2400000Y-16831651D01*
X-2345000Y-16791651D02*
X2345000Y-16791651D01*
X-2315000Y-24562349D02*
X-2315000Y-23762349D01*
X-2287000Y-16751651D02*
X2287000Y-16751651D01*
X-2228000Y-16711651D02*
X2228000Y-16711651D01*
X-2166000Y-16671651D02*
X2166000Y-16671651D01*
X-2102000Y-16631651D02*
X2102000Y-16631651D01*
X-2034000Y-16591651D02*
X2034000Y-16591651D01*
X-1964000Y-16551651D02*
X1964000Y-16551651D01*
X-1890000Y-16511651D02*
X1890000Y-16511651D01*
X-1813000Y-16471651D02*
X1813000Y-16471651D01*
X-1731000Y-16431651D02*
X1731000Y-16431651D01*
X-1645000Y-16391651D02*
X1645000Y-16391651D01*
X-1552000Y-16351651D02*
X1552000Y-16351651D01*
X-1453000Y-16311651D02*
X1453000Y-16311651D01*
X-1346000Y-16271651D02*
X1346000Y-16271651D01*
X-1229000Y-16231651D02*
X1229000Y-16231651D01*
X-1098000Y-16191651D02*
X1098000Y-16191651D01*
X-948000Y-16151651D02*
X948000Y-16151651D01*
X-768000Y-16111651D02*
X768000Y-16111651D01*
X-533000Y-16071651D02*
X533000Y-16071651D01*
X1040000Y-17391651D02*
X3019000Y-17391651D01*
X1040000Y-17431651D02*
X3055000Y-17431651D01*
X1040000Y-17471651D02*
X3090000Y-17471651D01*
X1040000Y-17511651D02*
X3124000Y-17511651D01*
X1040000Y-17551651D02*
X3156000Y-17551651D01*
X1040000Y-17591651D02*
X3189000Y-17591651D01*
X1040000Y-17631651D02*
X3220000Y-17631651D01*
X1040000Y-17671651D02*
X3250000Y-17671651D01*
X1040000Y-17711651D02*
X3280000Y-17711651D01*
X1040000Y-17751651D02*
X3309000Y-17751651D01*
X1040000Y-17791651D02*
X3338000Y-17791651D01*
X1040000Y-17831651D02*
X3365000Y-17831651D01*
X1040000Y-17871651D02*
X3392000Y-17871651D01*
X1040000Y-17911651D02*
X3418000Y-17911651D01*
X1040000Y-17951651D02*
X3444000Y-17951651D01*
X1040000Y-17991651D02*
X3469000Y-17991651D01*
X1040000Y-18031651D02*
X3493000Y-18031651D01*
X1040000Y-18071651D02*
X3517000Y-18071651D01*
X1040000Y-18111651D02*
X3540000Y-18111651D01*
X1040000Y-18151651D02*
X3562000Y-18151651D01*
X1040000Y-18191651D02*
X3584000Y-18191651D01*
X1040000Y-18231651D02*
X3606000Y-18231651D01*
X1040000Y-18271651D02*
X3627000Y-18271651D01*
X1040000Y-18311651D02*
X3647000Y-18311651D01*
X1040000Y-18351651D02*
X3666000Y-18351651D01*
X1040000Y-18391651D02*
X3686000Y-18391651D01*
X1040000Y-18431651D02*
X3704000Y-18431651D01*
X1040000Y-18471651D02*
X3722000Y-18471651D01*
X1040000Y-18511651D02*
X3740000Y-18511651D01*
X1040000Y-18551651D02*
X3757000Y-18551651D01*
X1040000Y-18591651D02*
X3774000Y-18591651D01*
X1040000Y-18631651D02*
X3790000Y-18631651D01*
X1040000Y-18671651D02*
X3805000Y-18671651D01*
X1040000Y-18711651D02*
X3821000Y-18711651D01*
X1040000Y-18751651D02*
X3835000Y-18751651D01*
X1040000Y-18791651D02*
X3850000Y-18791651D01*
X1040000Y-18831651D02*
X3863000Y-18831651D01*
X1040000Y-18871651D02*
X3877000Y-18871651D01*
X1040000Y-18911651D02*
X3889000Y-18911651D01*
X1040000Y-18951651D02*
X3902000Y-18951651D01*
X1040000Y-18991651D02*
X3914000Y-18991651D01*
X1040000Y-19031651D02*
X3925000Y-19031651D01*
X1040000Y-19071651D02*
X3936000Y-19071651D01*
X1040000Y-19111651D02*
X3947000Y-19111651D01*
X1040000Y-19151651D02*
X3957000Y-19151651D01*
X1040000Y-19191651D02*
X3967000Y-19191651D01*
X1040000Y-19231651D02*
X3976000Y-19231651D01*
X1040000Y-19271651D02*
X3985000Y-19271651D01*
X1040000Y-19311651D02*
X3994000Y-19311651D01*
X1040000Y-19351651D02*
X4002000Y-19351651D01*
X1040000Y-19391651D02*
X4010000Y-19391651D01*
X1040000Y-19431651D02*
X4017000Y-19431651D01*
X4120000Y-20152651D02*
G75*
G02*
X-4120000Y-20152651I-4120000J0D01*
G01*
X-4120000Y-20152651D02*
G75*
G02*
X4120000Y-20152651I4120000J0D01*
G01*
%TO.C,C2*%
X-4080000Y-9670000D02*
X4080000Y-9670000D01*
X-4080000Y-9710000D02*
X4080000Y-9710000D01*
X-4080000Y-9750000D02*
X4080000Y-9750000D01*
X-4079000Y-9630000D02*
X4079000Y-9630000D01*
X-4077000Y-9590000D02*
X4077000Y-9590000D01*
X-4076000Y-9550000D02*
X4076000Y-9550000D01*
X-4074000Y-9510000D02*
X4074000Y-9510000D01*
X-4071000Y-9470000D02*
X4071000Y-9470000D01*
X-4068000Y-9430000D02*
X4068000Y-9430000D01*
X-4065000Y-9390000D02*
X4065000Y-9390000D01*
X-4061000Y-9350000D02*
X4061000Y-9350000D01*
X-4057000Y-9310000D02*
X4057000Y-9310000D01*
X-4052000Y-9270000D02*
X4052000Y-9270000D01*
X-4048000Y-9230000D02*
X4048000Y-9230000D01*
X-4042000Y-9190000D02*
X4042000Y-9190000D01*
X-4037000Y-9150000D02*
X4037000Y-9150000D01*
X-4030000Y-9110000D02*
X4030000Y-9110000D01*
X-4024000Y-9070000D02*
X4024000Y-9070000D01*
X-4017000Y-9029000D02*
X-1040000Y-9029000D01*
X-4010000Y-8989000D02*
X-1040000Y-8989000D01*
X-4002000Y-8949000D02*
X-1040000Y-8949000D01*
X-3994000Y-8909000D02*
X-1040000Y-8909000D01*
X-3985000Y-8869000D02*
X-1040000Y-8869000D01*
X-3976000Y-8829000D02*
X-1040000Y-8829000D01*
X-3967000Y-8789000D02*
X-1040000Y-8789000D01*
X-3957000Y-8749000D02*
X-1040000Y-8749000D01*
X-3947000Y-8709000D02*
X-1040000Y-8709000D01*
X-3936000Y-8669000D02*
X-1040000Y-8669000D01*
X-3925000Y-8629000D02*
X-1040000Y-8629000D01*
X-3914000Y-8589000D02*
X-1040000Y-8589000D01*
X-3902000Y-8549000D02*
X-1040000Y-8549000D01*
X-3889000Y-8509000D02*
X-1040000Y-8509000D01*
X-3877000Y-8469000D02*
X-1040000Y-8469000D01*
X-3863000Y-8429000D02*
X-1040000Y-8429000D01*
X-3850000Y-8389000D02*
X-1040000Y-8389000D01*
X-3835000Y-8349000D02*
X-1040000Y-8349000D01*
X-3821000Y-8309000D02*
X-1040000Y-8309000D01*
X-3805000Y-8269000D02*
X-1040000Y-8269000D01*
X-3790000Y-8229000D02*
X-1040000Y-8229000D01*
X-3774000Y-8189000D02*
X-1040000Y-8189000D01*
X-3757000Y-8149000D02*
X-1040000Y-8149000D01*
X-3740000Y-8109000D02*
X-1040000Y-8109000D01*
X-3722000Y-8069000D02*
X-1040000Y-8069000D01*
X-3704000Y-8029000D02*
X-1040000Y-8029000D01*
X-3686000Y-7989000D02*
X-1040000Y-7989000D01*
X-3666000Y-7949000D02*
X-1040000Y-7949000D01*
X-3647000Y-7909000D02*
X-1040000Y-7909000D01*
X-3627000Y-7869000D02*
X-1040000Y-7869000D01*
X-3606000Y-7829000D02*
X-1040000Y-7829000D01*
X-3584000Y-7789000D02*
X-1040000Y-7789000D01*
X-3562000Y-7749000D02*
X-1040000Y-7749000D01*
X-3540000Y-7709000D02*
X-1040000Y-7709000D01*
X-3517000Y-7669000D02*
X-1040000Y-7669000D01*
X-3493000Y-7629000D02*
X-1040000Y-7629000D01*
X-3469000Y-7589000D02*
X-1040000Y-7589000D01*
X-3444000Y-7549000D02*
X-1040000Y-7549000D01*
X-3418000Y-7509000D02*
X-1040000Y-7509000D01*
X-3392000Y-7469000D02*
X-1040000Y-7469000D01*
X-3365000Y-7429000D02*
X-1040000Y-7429000D01*
X-3338000Y-7389000D02*
X-1040000Y-7389000D01*
X-3309000Y-7349000D02*
X-1040000Y-7349000D01*
X-3280000Y-7309000D02*
X-1040000Y-7309000D01*
X-3250000Y-7269000D02*
X-1040000Y-7269000D01*
X-3220000Y-7229000D02*
X-1040000Y-7229000D01*
X-3189000Y-7189000D02*
X-1040000Y-7189000D01*
X-3156000Y-7149000D02*
X-1040000Y-7149000D01*
X-3124000Y-7109000D02*
X-1040000Y-7109000D01*
X-3090000Y-7069000D02*
X-1040000Y-7069000D01*
X-3055000Y-7029000D02*
X-1040000Y-7029000D01*
X-3019000Y-6989000D02*
X-1040000Y-6989000D01*
X-2983000Y-6949000D02*
X2983000Y-6949000D01*
X-2945000Y-6909000D02*
X2945000Y-6909000D01*
X-2907000Y-6869000D02*
X2907000Y-6869000D01*
X-2867000Y-6829000D02*
X2867000Y-6829000D01*
X-2826000Y-6789000D02*
X2826000Y-6789000D01*
X-2784000Y-6749000D02*
X2784000Y-6749000D01*
X-2741000Y-6709000D02*
X2741000Y-6709000D01*
X-2715000Y-13759698D02*
X-1915000Y-13759698D01*
X-2697000Y-6669000D02*
X2697000Y-6669000D01*
X-2651000Y-6629000D02*
X2651000Y-6629000D01*
X-2604000Y-6589000D02*
X2604000Y-6589000D01*
X-2556000Y-6549000D02*
X2556000Y-6549000D01*
X-2505000Y-6509000D02*
X2505000Y-6509000D01*
X-2454000Y-6469000D02*
X2454000Y-6469000D01*
X-2400000Y-6429000D02*
X2400000Y-6429000D01*
X-2345000Y-6389000D02*
X2345000Y-6389000D01*
X-2315000Y-14159698D02*
X-2315000Y-13359698D01*
X-2287000Y-6349000D02*
X2287000Y-6349000D01*
X-2228000Y-6309000D02*
X2228000Y-6309000D01*
X-2166000Y-6269000D02*
X2166000Y-6269000D01*
X-2102000Y-6229000D02*
X2102000Y-6229000D01*
X-2034000Y-6189000D02*
X2034000Y-6189000D01*
X-1964000Y-6149000D02*
X1964000Y-6149000D01*
X-1890000Y-6109000D02*
X1890000Y-6109000D01*
X-1813000Y-6069000D02*
X1813000Y-6069000D01*
X-1731000Y-6029000D02*
X1731000Y-6029000D01*
X-1645000Y-5989000D02*
X1645000Y-5989000D01*
X-1552000Y-5949000D02*
X1552000Y-5949000D01*
X-1453000Y-5909000D02*
X1453000Y-5909000D01*
X-1346000Y-5869000D02*
X1346000Y-5869000D01*
X-1229000Y-5829000D02*
X1229000Y-5829000D01*
X-1098000Y-5789000D02*
X1098000Y-5789000D01*
X-948000Y-5749000D02*
X948000Y-5749000D01*
X-768000Y-5709000D02*
X768000Y-5709000D01*
X-533000Y-5669000D02*
X533000Y-5669000D01*
X1040000Y-6989000D02*
X3019000Y-6989000D01*
X1040000Y-7029000D02*
X3055000Y-7029000D01*
X1040000Y-7069000D02*
X3090000Y-7069000D01*
X1040000Y-7109000D02*
X3124000Y-7109000D01*
X1040000Y-7149000D02*
X3156000Y-7149000D01*
X1040000Y-7189000D02*
X3189000Y-7189000D01*
X1040000Y-7229000D02*
X3220000Y-7229000D01*
X1040000Y-7269000D02*
X3250000Y-7269000D01*
X1040000Y-7309000D02*
X3280000Y-7309000D01*
X1040000Y-7349000D02*
X3309000Y-7349000D01*
X1040000Y-7389000D02*
X3338000Y-7389000D01*
X1040000Y-7429000D02*
X3365000Y-7429000D01*
X1040000Y-7469000D02*
X3392000Y-7469000D01*
X1040000Y-7509000D02*
X3418000Y-7509000D01*
X1040000Y-7549000D02*
X3444000Y-7549000D01*
X1040000Y-7589000D02*
X3469000Y-7589000D01*
X1040000Y-7629000D02*
X3493000Y-7629000D01*
X1040000Y-7669000D02*
X3517000Y-7669000D01*
X1040000Y-7709000D02*
X3540000Y-7709000D01*
X1040000Y-7749000D02*
X3562000Y-7749000D01*
X1040000Y-7789000D02*
X3584000Y-7789000D01*
X1040000Y-7829000D02*
X3606000Y-7829000D01*
X1040000Y-7869000D02*
X3627000Y-7869000D01*
X1040000Y-7909000D02*
X3647000Y-7909000D01*
X1040000Y-7949000D02*
X3666000Y-7949000D01*
X1040000Y-7989000D02*
X3686000Y-7989000D01*
X1040000Y-8029000D02*
X3704000Y-8029000D01*
X1040000Y-8069000D02*
X3722000Y-8069000D01*
X1040000Y-8109000D02*
X3740000Y-8109000D01*
X1040000Y-8149000D02*
X3757000Y-8149000D01*
X1040000Y-8189000D02*
X3774000Y-8189000D01*
X1040000Y-8229000D02*
X3790000Y-8229000D01*
X1040000Y-8269000D02*
X3805000Y-8269000D01*
X1040000Y-8309000D02*
X3821000Y-8309000D01*
X1040000Y-8349000D02*
X3835000Y-8349000D01*
X1040000Y-8389000D02*
X3850000Y-8389000D01*
X1040000Y-8429000D02*
X3863000Y-8429000D01*
X1040000Y-8469000D02*
X3877000Y-8469000D01*
X1040000Y-8509000D02*
X3889000Y-8509000D01*
X1040000Y-8549000D02*
X3902000Y-8549000D01*
X1040000Y-8589000D02*
X3914000Y-8589000D01*
X1040000Y-8629000D02*
X3925000Y-8629000D01*
X1040000Y-8669000D02*
X3936000Y-8669000D01*
X1040000Y-8709000D02*
X3947000Y-8709000D01*
X1040000Y-8749000D02*
X3957000Y-8749000D01*
X1040000Y-8789000D02*
X3967000Y-8789000D01*
X1040000Y-8829000D02*
X3976000Y-8829000D01*
X1040000Y-8869000D02*
X3985000Y-8869000D01*
X1040000Y-8909000D02*
X3994000Y-8909000D01*
X1040000Y-8949000D02*
X4002000Y-8949000D01*
X1040000Y-8989000D02*
X4010000Y-8989000D01*
X1040000Y-9029000D02*
X4017000Y-9029000D01*
X4120000Y-9750000D02*
G75*
G02*
X-4120000Y-9750000I-4120000J0D01*
G01*
X-4120000Y-9750000D02*
G75*
G02*
X4120000Y-9750000I4120000J0D01*
G01*
%TO.C,J3*%
X-20927500Y-12407500D02*
X-20927500Y-18257500D01*
X-18277500Y-12407500D02*
X-20927500Y-12407500D01*
X-17377500Y-12407500D02*
X-17977500Y-12407500D01*
X-13627500Y-12407500D02*
X-17127500Y-12407500D01*
X-12777500Y-12407500D02*
X-13377500Y-12407500D01*
X-9877500Y-12407500D02*
X-12527500Y-12407500D01*
X-9877500Y-12407500D02*
X-9877500Y-18257500D01*
X-9877500Y-18257500D02*
X-20927500Y-18257500D01*
X-9377500Y-15707500D02*
X-9377500Y-18707500D01*
X-9377500Y-18707500D02*
X-12377500Y-18707500D01*
%TO.C,RV1*%
D13*
X27200000Y-13470000D02*
X33800000Y-13470000D01*
X33800000Y-20460000D01*
X27200000Y-20460000D01*
X27200000Y-13470000D01*
%TO.C,SW2*%
D12*
X14000000Y-29750000D02*
X20000000Y-29750000D01*
X20000000Y-26250000D01*
X14000000Y-26250000D01*
X14000000Y-29750000D01*
X18475000Y-28725000D02*
X15525000Y-28725000D01*
X15525000Y-27275000D01*
X18475000Y-27275000D01*
X18475000Y-28725000D01*
%TD*%
%LPC*%
D14*
X-25112500Y22000000D02*
G75*
G02*
X-25887500Y22000000I-387500J0D01*
G01*
X-25887500Y22000000D02*
G75*
G02*
X-25112500Y22000000I387500J0D01*
G01*
X-30112500Y22000000D02*
G75*
G02*
X-30887500Y22000000I-387500J0D01*
G01*
X-30887500Y22000000D02*
G75*
G02*
X-30112500Y22000000I387500J0D01*
G01*
X-27612500Y22000000D02*
G75*
G02*
X-28387500Y22000000I-387500J0D01*
G01*
X-28387500Y22000000D02*
G75*
G02*
X-27612500Y22000000I387500J0D01*
G01*
D15*
%TO.C,REF\u002A\u002A*%
X30052038Y-30052038D03*
%TD*%
D16*
%TO.C,SW4*%
X20250000Y-22500000D03*
X13750000Y-22500000D03*
%TD*%
D17*
%TO.C,U1*%
X7620000Y-26670000D03*
X7620000Y-24130000D03*
X7620000Y-21590000D03*
X7620000Y-19050000D03*
X7620000Y6350000D03*
X-7620000Y-24130000D03*
X7620000Y-16510000D03*
X7620000Y-13970000D03*
X7620000Y-11430000D03*
X7620000Y-8890000D03*
X7620000Y-6350000D03*
X7620000Y-3810000D03*
X7620000Y-1270000D03*
X7620000Y1270000D03*
X7620000Y3810000D03*
X-7620000Y3810000D03*
X-7620000Y1270000D03*
X-7620000Y-1270000D03*
X-7620000Y-3810000D03*
X-7620000Y-6350000D03*
X-7620000Y-8890000D03*
X-7620000Y-11430000D03*
X-7620000Y-13970000D03*
X-7620000Y-16510000D03*
X-7620000Y-19050000D03*
X-7620000Y-21590000D03*
X7620000Y8890000D03*
X7620000Y11430000D03*
X7620000Y13970000D03*
X7620000Y16510000D03*
X7620000Y19050000D03*
X7620000Y21590000D03*
X7620000Y24130000D03*
X7620000Y26670000D03*
X7620000Y29210000D03*
X-7620000Y29210000D03*
X-7620000Y26670000D03*
X-7620000Y24130000D03*
X-7620000Y21590000D03*
X-7620000Y19050000D03*
X-7620000Y16510000D03*
X-7620000Y13970000D03*
X-7620000Y11430000D03*
X-7620000Y8890000D03*
D18*
X7620000Y-29210000D03*
X-7620000Y-26670000D03*
X-7620000Y6350000D03*
D17*
X-5080000Y16510000D03*
X-2540000Y16510000D03*
X-7620000Y-29210000D03*
%TD*%
D19*
%TO.C,J8*%
X-5080000Y46000000D03*
X-2540000Y46000000D03*
X0Y46000000D03*
X2540000Y46000000D03*
X5080000Y46000000D03*
%TD*%
D17*
%TO.C,U2*%
X13190000Y24130000D03*
D18*
X13190000Y21590000D03*
D17*
X13190000Y19050000D03*
X13190000Y16510000D03*
X20810000Y16510000D03*
X20810000Y19050000D03*
D18*
X20810000Y21590000D03*
D17*
X20810000Y24130000D03*
%TD*%
D20*
%TO.C,D5*%
X28615000Y-3810000D03*
D21*
X28615000Y3810000D03*
%TD*%
D16*
%TO.C,SW3*%
X20250000Y-17000000D03*
X13750000Y-17000000D03*
%TD*%
D19*
%TO.C,J10*%
X46000000Y5080000D03*
X46000000Y2540000D03*
X46000000Y0D03*
X46000000Y-2540000D03*
X46000000Y-5080000D03*
%TD*%
D15*
%TO.C,REF\u002A\u002A*%
X-30052038Y-30052038D03*
%TD*%
%TO.C,REF\u002A\u002A*%
X-23611735Y35337459D03*
%TD*%
D22*
%TO.C,D3*%
X-19212500Y-28000000D03*
X-20787500Y-28000000D03*
%TD*%
D15*
%TO.C,REF\u002A\u002A*%
X23611735Y35337459D03*
%TD*%
D23*
%TO.C,J2*%
X-23210000Y3700000D03*
D24*
X-23210000Y1160000D03*
X-23210000Y-1380000D03*
X-23210000Y-3920000D03*
X-23210000Y-6460000D03*
X-23210000Y-9000000D03*
%TD*%
D15*
%TO.C,REF\u002A\u002A*%
X23611735Y-35337459D03*
%TD*%
D25*
%TO.C,U19*%
X28620000Y7620000D03*
X26080000Y7620000D03*
X23540000Y7620000D03*
X21000000Y7620000D03*
X18460000Y7620000D03*
X15920000Y7620000D03*
X13380000Y7620000D03*
X13380000Y-7620000D03*
X15920000Y-7620000D03*
X18460000Y-7620000D03*
X21000000Y-7620000D03*
X23540000Y-7620000D03*
X26080000Y-7620000D03*
X28620000Y-7620000D03*
%TD*%
D15*
%TO.C,REF\u002A\u002A*%
X-23611735Y-35337459D03*
%TD*%
D22*
%TO.C,D4*%
X-19212500Y-24500000D03*
X-20787500Y-24500000D03*
%TD*%
D15*
%TO.C,REF\u002A\u002A*%
X30052038Y30052038D03*
%TD*%
D17*
%TO.C,J4*%
X-16252500Y5080000D03*
X-13712500Y5080000D03*
X-16252500Y2540000D03*
X-13712500Y2540000D03*
X-16252500Y0D03*
X-13712500Y0D03*
X-16252500Y-2540000D03*
X-13712500Y-2540000D03*
X-16252500Y-5080000D03*
X-13712500Y-5080000D03*
%TD*%
D26*
%TO.C,C1*%
X0Y-21902651D03*
D27*
X0Y-18402651D03*
%TD*%
D15*
%TO.C,REF\u002A\u002A*%
X-30052038Y30052038D03*
%TD*%
D26*
%TO.C,C2*%
X0Y-11500000D03*
D27*
X0Y-8000000D03*
%TD*%
D28*
%TO.C,J3*%
X-12377500Y-15707500D03*
D29*
X-14377500Y-15707500D03*
X-16377500Y-15707500D03*
X-18377500Y-15707500D03*
%TD*%
D27*
%TO.C,RV1*%
X27960000Y-17000000D03*
X30500000Y-14460000D03*
X33040000Y-17000000D03*
%TD*%
D16*
%TO.C,SW2*%
X20250000Y-28000000D03*
X13750000Y-28000000D03*
%TD*%
D19*
%TO.C,J9*%
X-46000000Y-5080000D03*
X-46000000Y-2540000D03*
X-46000000Y0D03*
X-46000000Y2540000D03*
X-46000000Y5080000D03*
%TD*%
D30*
%TO.C,J7*%
X-36975000Y-11250000D03*
D31*
X-36975000Y-8750000D03*
X-36975000Y-6250000D03*
X-36975000Y-3750000D03*
X-36975000Y-1250000D03*
X-36975000Y1250000D03*
X-36975000Y3750000D03*
X-36975000Y6250000D03*
X-36975000Y8750000D03*
X-36975000Y11250000D03*
%TD*%
D32*
%TO.C,U11*%
X2540000Y-49499999D03*
D33*
X0Y-49499999D03*
X-2540000Y-49499999D03*
%TD*%
D34*
%TO.C,U14*%
X46704052Y-16596174D03*
D33*
X45732036Y-18942828D03*
X44760020Y-21289482D03*
%TD*%
D35*
%TO.C,SW1*%
X-29735703Y-22923592D03*
X-31847636Y-24334741D03*
X-33959568Y-25745889D03*
X-32558000Y-18699727D03*
X-34669932Y-20110875D03*
X-36781865Y-21522024D03*
%TD*%
D36*
%TO.C,U7*%
X-49500000Y-2539999D03*
D33*
X-49500000Y1D03*
X-49500000Y2540001D03*
%TD*%
D37*
%TO.C,U18*%
X16596175Y46704053D03*
D33*
X18942829Y45732037D03*
X21289483Y44760021D03*
%TD*%
D38*
%TO.C,U9*%
X-33205734Y-36797835D03*
D33*
X-35001785Y-35001784D03*
X-36797836Y-33205733D03*
%TD*%
D39*
%TO.C,U5*%
X-36797836Y33205735D03*
D33*
X-35001785Y35001786D03*
X-33205734Y36797837D03*
%TD*%
D40*
%TO.C,U13*%
X36797836Y-33205733D03*
D33*
X35001785Y-35001784D03*
X33205734Y-36797835D03*
%TD*%
D41*
%TO.C,U17*%
X33205734Y36797837D03*
D33*
X35001785Y35001786D03*
X36797836Y33205735D03*
%TD*%
D42*
%TO.C,U4*%
X-21289483Y44760021D03*
D33*
X-18942829Y45732037D03*
X-16596175Y46704053D03*
%TD*%
D43*
%TO.C,J1*%
X-27995954Y-15699574D03*
D44*
X-26607028Y-17778248D03*
X-25218103Y-19856922D03*
%TD*%
D45*
%TO.C,U12*%
X21289483Y-44760019D03*
D33*
X18942829Y-45732035D03*
X16596175Y-46704051D03*
%TD*%
D46*
%TO.C,U6*%
X-46704052Y16596176D03*
D33*
X-45732036Y18942830D03*
X-44760020Y21289484D03*
%TD*%
D47*
%TO.C,U16*%
X44760020Y21289484D03*
D33*
X45732036Y18942830D03*
X46704052Y16596176D03*
%TD*%
D48*
%TO.C,U15*%
X49500000Y2540000D03*
D33*
X49500000Y0D03*
X49500000Y-2540000D03*
%TD*%
D49*
%TO.C,U3*%
X-2540000Y49500001D03*
D33*
X0Y49500001D03*
X2540000Y49500001D03*
%TD*%
D30*
%TO.C,J6*%
X27000000Y13000000D03*
D31*
X27000000Y15500000D03*
X27000000Y18000000D03*
X27000000Y20500000D03*
%TD*%
D50*
%TO.C,U8*%
X-44760020Y-21289482D03*
D33*
X-45732036Y-18942828D03*
X-46704052Y-16596174D03*
%TD*%
D51*
%TO.C,U10*%
X-16596175Y-46704051D03*
D33*
X-18942829Y-45732035D03*
X-21289483Y-44760019D03*
%TD*%
%LPD*%
M02*
