%TF.GenerationSoftware,KiCad,Pcbnew,8.0.1*%
%TF.CreationDate,2024-05-26T22:46:05+09:00*%
%TF.ProjectId,Main-20240325,4d61696e-2d32-4303-9234-303332352e6b,rev?*%
%TF.SameCoordinates,Original*%
%TF.FileFunction,Paste,Top*%
%TF.FilePolarity,Positive*%
%FSLAX46Y46*%
G04 Gerber Fmt 4.6, Leading zero omitted, Abs format (unit mm)*
G04 Created by KiCad (PCBNEW 8.0.1) date 2024-05-26 22:46:05*
%MOMM*%
%LPD*%
G01*
G04 APERTURE LIST*
G04 Aperture macros list*
%AMRoundRect*
0 Rectangle with rounded corners*
0 $1 Rounding radius*
0 $2 $3 $4 $5 $6 $7 $8 $9 X,Y pos of 4 corners*
0 Add a 4 corners polygon primitive as box body*
4,1,4,$2,$3,$4,$5,$6,$7,$8,$9,$2,$3,0*
0 Add four circle primitives for the rounded corners*
1,1,$1+$1,$2,$3*
1,1,$1+$1,$4,$5*
1,1,$1+$1,$6,$7*
1,1,$1+$1,$8,$9*
0 Add four rect primitives between the rounded corners*
20,1,$1+$1,$2,$3,$4,$5,0*
20,1,$1+$1,$4,$5,$6,$7,0*
20,1,$1+$1,$6,$7,$8,$9,0*
20,1,$1+$1,$8,$9,$2,$3,0*%
%AMRotRect*
0 Rectangle, with rotation*
0 The origin of the aperture is its center*
0 $1 length*
0 $2 width*
0 $3 Rotation angle, in degrees counterclockwise*
0 Add horizontal line*
21,1,$1,$2,0,0,$3*%
G04 Aperture macros list end*
%ADD10RoundRect,0.225000X-0.144866X0.303544X-0.317074X-0.112202X0.144866X-0.303544X0.317074X0.112202X0*%
%ADD11RoundRect,0.225000X0.317074X-0.112202X0.144866X0.303544X-0.317074X0.112202X-0.144866X-0.303544X0*%
%ADD12RotRect,1.500000X0.900000X67.500000*%
%ADD13RoundRect,0.225000X-0.225000X-0.250000X0.225000X-0.250000X0.225000X0.250000X-0.225000X0.250000X0*%
%ADD14RoundRect,0.225000X0.225000X0.250000X-0.225000X0.250000X-0.225000X-0.250000X0.225000X-0.250000X0*%
%ADD15R,0.900000X1.500000*%
%ADD16RotRect,1.500000X0.900000X247.500000*%
%ADD17RotRect,1.500000X0.900000X292.500000*%
%ADD18RoundRect,0.225000X0.144866X-0.303544X0.317074X0.112202X-0.144866X0.303544X-0.317074X-0.112202X0*%
%ADD19RotRect,1.500000X0.900000X112.500000*%
%ADD20R,1.500000X0.900000*%
%ADD21RoundRect,0.225000X-0.317074X0.112202X-0.144866X-0.303544X0.317074X-0.112202X0.144866X0.303544X0*%
%ADD22RoundRect,0.225000X-0.335876X-0.017678X-0.017678X-0.335876X0.335876X0.017678X0.017678X0.335876X0*%
%ADD23RotRect,1.500000X0.900000X202.500000*%
%ADD24RoundRect,0.225000X-0.017678X0.335876X-0.335876X0.017678X0.017678X-0.335876X0.335876X-0.017678X0*%
%ADD25RoundRect,0.225000X0.017678X-0.335876X0.335876X-0.017678X-0.017678X0.335876X-0.335876X0.017678X0*%
%ADD26RoundRect,0.225000X0.250000X-0.225000X0.250000X0.225000X-0.250000X0.225000X-0.250000X-0.225000X0*%
%ADD27RoundRect,0.225000X-0.112202X-0.317074X0.303544X-0.144866X0.112202X0.317074X-0.303544X0.144866X0*%
%ADD28RotRect,1.500000X0.900000X337.500000*%
%ADD29RoundRect,0.225000X0.112202X0.317074X-0.303544X0.144866X-0.112202X-0.317074X0.303544X-0.144866X0*%
%ADD30RotRect,1.500000X0.900000X45.000000*%
%ADD31RoundRect,0.225000X0.335876X0.017678X0.017678X0.335876X-0.335876X-0.017678X-0.017678X-0.335876X0*%
%ADD32RoundRect,0.225000X-0.250000X0.225000X-0.250000X-0.225000X0.250000X-0.225000X0.250000X0.225000X0*%
%ADD33RotRect,1.500000X0.900000X225.000000*%
%ADD34RotRect,1.500000X0.900000X157.500000*%
%ADD35RotRect,1.500000X0.900000X135.000000*%
%ADD36RotRect,1.500000X0.900000X22.500000*%
%ADD37RoundRect,0.225000X-0.303544X-0.144866X0.112202X-0.317074X0.303544X0.144866X-0.112202X0.317074X0*%
%ADD38RotRect,1.500000X0.900000X315.000000*%
%ADD39RoundRect,0.225000X0.303544X0.144866X-0.112202X0.317074X-0.303544X-0.144866X0.112202X-0.317074X0*%
G04 APERTURE END LIST*
D10*
%TO.C,C26*%
X218777643Y-295887311D03*
X218184483Y-297319325D03*
%TD*%
D11*
%TO.C,C20*%
X228016439Y-201235854D03*
X227423279Y-199803840D03*
%TD*%
D12*
%TO.C,D6*%
X191110469Y-231633513D03*
X194159272Y-232896369D03*
X196034421Y-228369359D03*
X192985618Y-227106503D03*
%TD*%
D13*
%TO.C,C31*%
X294225000Y-255475000D03*
X295775000Y-255475000D03*
%TD*%
D14*
%TO.C,C23*%
X191775000Y-245475000D03*
X190225000Y-245475000D03*
%TD*%
D15*
%TO.C,D7*%
X187850000Y-252925000D03*
X191150000Y-252925000D03*
X191150000Y-248025000D03*
X187850000Y-248025000D03*
%TD*%
D16*
%TO.C,D14*%
X294889530Y-269316486D03*
X291840727Y-268053630D03*
X289965578Y-272580640D03*
X293014381Y-273843496D03*
%TD*%
D17*
%TO.C,D16*%
X293014381Y-227106503D03*
X289965578Y-228369359D03*
X291840727Y-232896369D03*
X294889530Y-231633513D03*
%TD*%
D18*
%TO.C,C34*%
X267222356Y-205062688D03*
X267815516Y-203630674D03*
%TD*%
D19*
%TO.C,D8*%
X192985618Y-273843496D03*
X196034421Y-272580640D03*
X194159272Y-268053630D03*
X191110469Y-269316486D03*
%TD*%
D20*
%TO.C,D3*%
X240550000Y-195325000D03*
X240550000Y-198625000D03*
X245450000Y-198625000D03*
X245450000Y-195325000D03*
%TD*%
%TO.C,D11*%
X245450000Y-305625000D03*
X245450000Y-302325000D03*
X240550000Y-302325000D03*
X240550000Y-305625000D03*
%TD*%
D21*
%TO.C,C28*%
X257983560Y-299714145D03*
X258576720Y-301146159D03*
%TD*%
D15*
%TO.C,D15*%
X298150000Y-248025000D03*
X294850000Y-248025000D03*
X294850000Y-252925000D03*
X298150000Y-252925000D03*
%TD*%
D22*
%TO.C,C29*%
X275686010Y-290232078D03*
X276782026Y-291328094D03*
%TD*%
D23*
%TO.C,D12*%
X266368496Y-300489381D03*
X265105640Y-297440578D03*
X260578630Y-299315727D03*
X261841486Y-302364530D03*
%TD*%
D24*
%TO.C,C25*%
X203242921Y-283161010D03*
X202146905Y-284257026D03*
%TD*%
D25*
%TO.C,C33*%
X282757078Y-217788989D03*
X283853094Y-216692973D03*
%TD*%
D26*
%TO.C,C19*%
X248000000Y-199250000D03*
X248000000Y-197700000D03*
%TD*%
D27*
%TO.C,C32*%
X292239145Y-235491439D03*
X293671159Y-234898279D03*
%TD*%
D28*
%TO.C,D18*%
X261841486Y-198585469D03*
X260578630Y-201634272D03*
X265105640Y-203509421D03*
X266368496Y-200460618D03*
%TD*%
D29*
%TO.C,C24*%
X193760854Y-265458560D03*
X192328840Y-266051720D03*
%TD*%
D30*
%TO.C,D5*%
X202270649Y-213210472D03*
X204604102Y-215543925D03*
X208068925Y-212079102D03*
X205735472Y-209745649D03*
%TD*%
D31*
%TO.C,C21*%
X210313989Y-210717921D03*
X209217973Y-209621905D03*
%TD*%
D32*
%TO.C,C27*%
X238000000Y-301700000D03*
X238000000Y-303250000D03*
%TD*%
D33*
%TO.C,D13*%
X283729350Y-287739527D03*
X281395897Y-285406074D03*
X277931074Y-288870897D03*
X280264527Y-291204350D03*
%TD*%
D34*
%TO.C,D10*%
X224158513Y-302364530D03*
X225421369Y-299315727D03*
X220894359Y-297440578D03*
X219631503Y-300489381D03*
%TD*%
D35*
%TO.C,D9*%
X205735472Y-291204350D03*
X208068925Y-288870897D03*
X204604102Y-285406074D03*
X202270649Y-287739527D03*
%TD*%
D36*
%TO.C,D4*%
X219631503Y-200460618D03*
X220894359Y-203509421D03*
X225421369Y-201634272D03*
X224158513Y-198585469D03*
%TD*%
D37*
%TO.C,C30*%
X288412311Y-274697356D03*
X289844325Y-275290516D03*
%TD*%
D38*
%TO.C,D17*%
X280264527Y-209745649D03*
X277931074Y-212079102D03*
X281395897Y-215543925D03*
X283729350Y-213210472D03*
%TD*%
D39*
%TO.C,C22*%
X197587688Y-226252643D03*
X196155674Y-225659483D03*
%TD*%
M02*
