%TF.GenerationSoftware,KiCad,Pcbnew,8.0.1*%
%TF.CreationDate,2024-05-26T22:46:05+09:00*%
%TF.ProjectId,Main-20240325,4d61696e-2d32-4303-9234-303332352e6b,rev?*%
%TF.SameCoordinates,Original*%
%TF.FileFunction,Soldermask,Bot*%
%TF.FilePolarity,Negative*%
%FSLAX46Y46*%
G04 Gerber Fmt 4.6, Leading zero omitted, Abs format (unit mm)*
G04 Created by KiCad (PCBNEW 8.0.1) date 2024-05-26 22:46:05*
%MOMM*%
%LPD*%
G01*
G04 APERTURE LIST*
G04 Aperture macros list*
%AMRoundRect*
0 Rectangle with rounded corners*
0 $1 Rounding radius*
0 $2 $3 $4 $5 $6 $7 $8 $9 X,Y pos of 4 corners*
0 Add a 4 corners polygon primitive as box body*
4,1,4,$2,$3,$4,$5,$6,$7,$8,$9,$2,$3,0*
0 Add four circle primitives for the rounded corners*
1,1,$1+$1,$2,$3*
1,1,$1+$1,$4,$5*
1,1,$1+$1,$6,$7*
1,1,$1+$1,$8,$9*
0 Add four rect primitives between the rounded corners*
20,1,$1+$1,$2,$3,$4,$5,0*
20,1,$1+$1,$4,$5,$6,$7,0*
20,1,$1+$1,$6,$7,$8,$9,0*
20,1,$1+$1,$8,$9,$2,$3,0*%
G04 Aperture macros list end*
%ADD10R,0.300000X1.100000*%
%ADD11R,2.300000X3.100000*%
%ADD12RoundRect,0.250000X0.600000X0.600000X-0.600000X0.600000X-0.600000X-0.600000X0.600000X-0.600000X0*%
%ADD13C,1.700000*%
%ADD14C,3.200000*%
%ADD15C,1.512000*%
%ADD16C,1.462000*%
%ADD17C,1.412000*%
%ADD18R,1.600000X1.600000*%
%ADD19O,1.600000X1.600000*%
%ADD20C,1.524000*%
%ADD21RoundRect,0.200000X0.200000X0.275000X-0.200000X0.275000X-0.200000X-0.275000X0.200000X-0.275000X0*%
%ADD22RoundRect,0.250200X0.649800X0.649800X-0.649800X0.649800X-0.649800X-0.649800X0.649800X-0.649800X0*%
%ADD23C,1.800000*%
%ADD24RoundRect,0.225000X-0.250000X0.225000X-0.250000X-0.225000X0.250000X-0.225000X0.250000X0.225000X0*%
%ADD25RoundRect,0.250200X-0.351669X-0.849005X0.849005X-0.351669X0.351669X0.849005X-0.849005X0.351669X0*%
%ADD26RoundRect,0.250200X-0.849005X0.351669X-0.351669X-0.849005X0.849005X-0.351669X0.351669X0.849005X0*%
%ADD27RoundRect,0.250200X0.351669X0.849005X-0.849005X0.351669X-0.351669X-0.849005X0.849005X-0.351669X0*%
%ADD28RoundRect,0.200000X-0.275000X0.200000X-0.275000X-0.200000X0.275000X-0.200000X0.275000X0.200000X0*%
%ADD29RoundRect,0.200000X-0.200000X-0.275000X0.200000X-0.275000X0.200000X0.275000X-0.200000X0.275000X0*%
%ADD30RoundRect,0.250000X0.725000X-0.600000X0.725000X0.600000X-0.725000X0.600000X-0.725000X-0.600000X0*%
%ADD31O,1.950000X1.700000*%
%ADD32RoundRect,0.250200X0.918956X0.000000X0.000000X0.918956X-0.918956X0.000000X0.000000X-0.918956X0*%
%ADD33RoundRect,0.250000X0.600000X0.725000X-0.600000X0.725000X-0.600000X-0.725000X0.600000X-0.725000X0*%
%ADD34O,1.700000X1.950000*%
%ADD35RoundRect,0.250200X-0.649800X0.649800X-0.649800X-0.649800X0.649800X-0.649800X0.649800X0.649800X0*%
%ADD36RoundRect,0.250000X0.250000X0.475000X-0.250000X0.475000X-0.250000X-0.475000X0.250000X-0.475000X0*%
%ADD37R,1.000000X1.500000*%
%ADD38RoundRect,0.250200X-0.918956X0.000000X0.000000X-0.918956X0.918956X0.000000X0.000000X0.918956X0*%
%ADD39RoundRect,0.250200X0.000000X-0.918956X0.918956X0.000000X0.000000X0.918956X-0.918956X0.000000X0*%
%ADD40RoundRect,0.250200X-0.849005X-0.351669X0.351669X-0.849005X0.849005X0.351669X-0.351669X0.849005X0*%
%ADD41RoundRect,0.250200X0.000000X0.918956X-0.918956X0.000000X0.000000X-0.918956X0.918956X0.000000X0*%
%ADD42RoundRect,0.250200X0.351669X-0.849005X0.849005X0.351669X-0.351669X0.849005X-0.849005X-0.351669X0*%
%ADD43RoundRect,0.250200X0.849005X-0.351669X0.351669X0.849005X-0.849005X0.351669X-0.351669X-0.849005X0*%
%ADD44RoundRect,0.250200X-0.649800X-0.649800X0.649800X-0.649800X0.649800X0.649800X-0.649800X0.649800X0*%
%ADD45RoundRect,0.250200X-0.351669X0.849005X-0.849005X-0.351669X0.351669X-0.849005X0.849005X0.351669X0*%
%ADD46RoundRect,0.250200X0.849005X0.351669X-0.351669X0.849005X-0.849005X-0.351669X0.351669X-0.849005X0*%
%ADD47RoundRect,0.243750X-0.243750X-0.456250X0.243750X-0.456250X0.243750X0.456250X-0.243750X0.456250X0*%
%ADD48RoundRect,0.250200X0.649800X-0.649800X0.649800X0.649800X-0.649800X0.649800X-0.649800X-0.649800X0*%
G04 APERTURE END LIST*
D10*
%TO.C,J3*%
X246500000Y-286625000D03*
X246000000Y-286625000D03*
X245500000Y-286625000D03*
X245000000Y-286625000D03*
X244500000Y-286625000D03*
X244000000Y-286625000D03*
X243500000Y-286625000D03*
X243000000Y-286625000D03*
X242500000Y-286625000D03*
X242000000Y-286625000D03*
X241500000Y-286625000D03*
X241000000Y-286625000D03*
X240500000Y-286625000D03*
X240000000Y-286625000D03*
X239500000Y-286625000D03*
D11*
X248170000Y-288325000D03*
X237830000Y-288325000D03*
%TD*%
D12*
%TO.C,J4*%
X228752500Y-255555000D03*
D13*
X226212500Y-255555000D03*
X228752500Y-253015000D03*
X226212500Y-253015000D03*
X228752500Y-250475000D03*
X226212500Y-250475000D03*
X228752500Y-247935000D03*
X226212500Y-247935000D03*
X228752500Y-245395000D03*
X226212500Y-245395000D03*
%TD*%
D14*
%TO.C,REF\u002A\u002A*%
X273052038Y-280527038D03*
%TD*%
%TO.C,REF\u002A\u002A*%
X212947962Y-220422962D03*
%TD*%
D15*
%TO.C,U1*%
X250620000Y-277145000D03*
X250620000Y-274605000D03*
X250620000Y-272065000D03*
X250620000Y-269525000D03*
X250620000Y-244125000D03*
X235380000Y-274605000D03*
X245540000Y-233965000D03*
X250620000Y-266985000D03*
X250620000Y-264445000D03*
D16*
X247570000Y-273335000D03*
D15*
X250620000Y-261905000D03*
X250620000Y-259365000D03*
X250620000Y-256825000D03*
X250620000Y-254285000D03*
X250620000Y-251745000D03*
X250620000Y-249205000D03*
X250620000Y-246665000D03*
X235380000Y-246665000D03*
X235380000Y-249205000D03*
X235380000Y-251745000D03*
X235380000Y-254285000D03*
X235380000Y-256825000D03*
X235380000Y-259365000D03*
X235380000Y-261905000D03*
X235380000Y-264445000D03*
X235380000Y-266985000D03*
X235380000Y-269525000D03*
X235380000Y-272065000D03*
X250620000Y-241585000D03*
X250620000Y-239045000D03*
X250620000Y-236505000D03*
X250620000Y-233965000D03*
X250620000Y-231425000D03*
X250620000Y-228885000D03*
X250620000Y-226345000D03*
X250620000Y-223805000D03*
X250620000Y-221265000D03*
X235380000Y-221265000D03*
X235380000Y-223805000D03*
X235380000Y-226345000D03*
X235380000Y-228885000D03*
X235380000Y-231425000D03*
X235380000Y-233965000D03*
X235380000Y-236505000D03*
X235380000Y-239045000D03*
X235380000Y-241585000D03*
D16*
X247570000Y-268255000D03*
X247570000Y-270795000D03*
D15*
X250620000Y-279685000D03*
X235380000Y-244125000D03*
X235380000Y-277145000D03*
X243000000Y-233965000D03*
D17*
X239830000Y-264715000D03*
X239830000Y-266715000D03*
D15*
X237920000Y-233965000D03*
X240460000Y-233965000D03*
D17*
X237830000Y-266715000D03*
X237830000Y-264715000D03*
X241830000Y-264715000D03*
X241830000Y-266715000D03*
D16*
X247570000Y-265715000D03*
X247570000Y-263175000D03*
D15*
X248080000Y-233965000D03*
X235380000Y-279685000D03*
X237920000Y-277145000D03*
%TD*%
D18*
%TO.C,U3*%
X246800000Y-259275000D03*
D19*
X246800000Y-256735000D03*
X246800000Y-254195000D03*
X246800000Y-251655000D03*
X239180000Y-251655000D03*
X239180000Y-254195000D03*
X239180000Y-256735000D03*
X239180000Y-259275000D03*
%TD*%
D14*
%TO.C,REF\u002A\u002A*%
X212947962Y-280527038D03*
%TD*%
%TO.C,REF\u002A\u002A*%
X273052038Y-220422962D03*
%TD*%
D20*
%TO.C,U2*%
X255380000Y-242855000D03*
X255380000Y-245395000D03*
X255380000Y-247935000D03*
X255380000Y-250475000D03*
X255380000Y-253015000D03*
X255380000Y-255555000D03*
X255380000Y-258095000D03*
X270620000Y-258095000D03*
X270620000Y-255555000D03*
X270620000Y-253015000D03*
X270620000Y-250475000D03*
X270620000Y-247935000D03*
X270620000Y-245395000D03*
X270620000Y-242855000D03*
%TD*%
D21*
%TO.C,R1*%
X228825000Y-279975000D03*
X227175000Y-279975000D03*
%TD*%
D22*
%TO.C,U12*%
X245540000Y-299475000D03*
D23*
X243000000Y-299475000D03*
X240460000Y-299475000D03*
%TD*%
D24*
%TO.C,C6*%
X247375000Y-216700000D03*
X247375000Y-218250000D03*
%TD*%
%TO.C,C4*%
X249125000Y-216700000D03*
X249125000Y-218250000D03*
%TD*%
D25*
%TO.C,U5*%
X221901857Y-206176918D03*
D23*
X224248511Y-205204902D03*
X226595165Y-204232886D03*
%TD*%
D26*
%TO.C,U17*%
X287298081Y-229376857D03*
D23*
X288270097Y-231723511D03*
X289242113Y-234070165D03*
%TD*%
D27*
%TO.C,U13*%
X264098142Y-294773081D03*
D23*
X261751488Y-295745097D03*
X259404834Y-296717113D03*
%TD*%
D28*
%TO.C,R19*%
X238625000Y-213650000D03*
X238625000Y-215300000D03*
%TD*%
%TO.C,R18*%
X238625000Y-206650000D03*
X238625000Y-208300000D03*
%TD*%
%TO.C,R17*%
X240375000Y-213650000D03*
X240375000Y-215300000D03*
%TD*%
D29*
%TO.C,R5*%
X265795000Y-258095000D03*
X267445000Y-258095000D03*
%TD*%
D28*
%TO.C,R20*%
X236875000Y-206650000D03*
X236875000Y-208300000D03*
%TD*%
D24*
%TO.C,C17*%
X236875000Y-209700000D03*
X236875000Y-211250000D03*
%TD*%
%TO.C,C16*%
X238625000Y-216700000D03*
X238625000Y-218250000D03*
%TD*%
%TO.C,C10*%
X243875000Y-216700000D03*
X243875000Y-218250000D03*
%TD*%
D30*
%TO.C,J1*%
X208525000Y-261725000D03*
D31*
X208525000Y-259225000D03*
X208525000Y-256725000D03*
X208525000Y-254225000D03*
X208525000Y-251725000D03*
X208525000Y-249225000D03*
X208525000Y-246725000D03*
X208525000Y-244225000D03*
X208525000Y-241725000D03*
X208525000Y-239225000D03*
%TD*%
D32*
%TO.C,U10*%
X210147818Y-286919283D03*
D23*
X208351767Y-285123232D03*
X206555716Y-283327181D03*
%TD*%
D33*
%TO.C,J2*%
X228000000Y-274950000D03*
D34*
X225500000Y-274950000D03*
X223000000Y-274950000D03*
%TD*%
D24*
%TO.C,C18*%
X236875000Y-216700000D03*
X236875000Y-218250000D03*
%TD*%
D35*
%TO.C,U16*%
X292000000Y-247935000D03*
D23*
X292000000Y-250475000D03*
X292000000Y-253015000D03*
%TD*%
D36*
%TO.C,C1*%
X228950000Y-284475000D03*
X227050000Y-284475000D03*
%TD*%
D28*
%TO.C,R21*%
X236875000Y-213650000D03*
X236875000Y-215300000D03*
%TD*%
%TO.C,R13*%
X243875000Y-213650000D03*
X243875000Y-215300000D03*
%TD*%
D37*
%TO.C,JP8*%
X222102500Y-253015000D03*
X223402500Y-253015000D03*
%TD*%
D36*
%TO.C,C2*%
X223950000Y-284475000D03*
X222050000Y-284475000D03*
%TD*%
D37*
%TO.C,JP5*%
X232900000Y-255550000D03*
X231600000Y-255550000D03*
%TD*%
D38*
%TO.C,U18*%
X275852181Y-214030716D03*
D23*
X277648232Y-215826767D03*
X279444283Y-217622818D03*
%TD*%
D39*
%TO.C,U6*%
X206555716Y-217622818D03*
D23*
X208351767Y-215826767D03*
X210147818Y-214030716D03*
%TD*%
D24*
%TO.C,C5*%
X247375000Y-209700000D03*
X247375000Y-211250000D03*
%TD*%
D37*
%TO.C,JP6*%
X232900000Y-258100000D03*
X231600000Y-258100000D03*
%TD*%
D24*
%TO.C,C9*%
X243875000Y-209700000D03*
X243875000Y-211250000D03*
%TD*%
D28*
%TO.C,R6*%
X249125000Y-206650000D03*
X249125000Y-208300000D03*
%TD*%
%TO.C,R16*%
X240375000Y-206650000D03*
X240375000Y-208300000D03*
%TD*%
D40*
%TO.C,U19*%
X259404834Y-204232886D03*
D23*
X261751488Y-205204902D03*
X264098142Y-206176918D03*
%TD*%
D24*
%TO.C,C8*%
X245625000Y-216700000D03*
X245625000Y-218250000D03*
%TD*%
D21*
%TO.C,R2*%
X223825000Y-279975000D03*
X222175000Y-279975000D03*
%TD*%
D37*
%TO.C,JP1*%
X232902500Y-253015000D03*
X231602500Y-253015000D03*
%TD*%
D41*
%TO.C,U14*%
X279444283Y-283327181D03*
D23*
X277648232Y-285123232D03*
X275852181Y-286919283D03*
%TD*%
D42*
%TO.C,U7*%
X196757886Y-234070165D03*
D23*
X197729902Y-231723511D03*
X198701918Y-229376857D03*
%TD*%
D43*
%TO.C,U9*%
X198701918Y-271573142D03*
D23*
X197729902Y-269226488D03*
X196757886Y-266879834D03*
%TD*%
D28*
%TO.C,R7*%
X249125000Y-213650000D03*
X249125000Y-215300000D03*
%TD*%
D44*
%TO.C,U4*%
X240460000Y-201475000D03*
D23*
X243000000Y-201475000D03*
X245540000Y-201475000D03*
%TD*%
D28*
%TO.C,R8*%
X247375000Y-206650000D03*
X247375000Y-208300000D03*
%TD*%
D24*
%TO.C,C13*%
X240375000Y-209700000D03*
X240375000Y-211250000D03*
%TD*%
D28*
%TO.C,R14*%
X242125000Y-206650000D03*
X242125000Y-208300000D03*
%TD*%
%TO.C,R10*%
X245625000Y-206650000D03*
X245625000Y-208300000D03*
%TD*%
D45*
%TO.C,U15*%
X289242113Y-266879834D03*
D23*
X288270097Y-269226488D03*
X287298081Y-271573142D03*
%TD*%
D37*
%TO.C,JP3*%
X232902500Y-247935000D03*
X231602500Y-247935000D03*
%TD*%
%TO.C,JP2*%
X232902500Y-250475000D03*
X231602500Y-250475000D03*
%TD*%
D28*
%TO.C,R9*%
X247375000Y-213650000D03*
X247375000Y-215300000D03*
%TD*%
D21*
%TO.C,R4*%
X259705000Y-255555000D03*
X258055000Y-255555000D03*
%TD*%
D28*
%TO.C,R11*%
X245625000Y-213650000D03*
X245625000Y-215300000D03*
%TD*%
D24*
%TO.C,C12*%
X242125000Y-216700000D03*
X242125000Y-218250000D03*
%TD*%
%TO.C,C7*%
X245625000Y-209700000D03*
X245625000Y-211250000D03*
%TD*%
D46*
%TO.C,U11*%
X226595165Y-296717113D03*
D23*
X224248511Y-295745097D03*
X221901857Y-294773081D03*
%TD*%
D24*
%TO.C,C3*%
X249125000Y-209700000D03*
X249125000Y-211250000D03*
%TD*%
%TO.C,C11*%
X242125000Y-209700000D03*
X242125000Y-211250000D03*
%TD*%
D47*
%TO.C,D1*%
X227062500Y-281975000D03*
X228937500Y-281975000D03*
%TD*%
D37*
%TO.C,JP7*%
X222102500Y-255555000D03*
X223402500Y-255555000D03*
%TD*%
D24*
%TO.C,C15*%
X238625000Y-209700000D03*
X238625000Y-211250000D03*
%TD*%
%TO.C,C14*%
X240375000Y-216700000D03*
X240375000Y-218250000D03*
%TD*%
D48*
%TO.C,U8*%
X194000000Y-253015000D03*
D23*
X194000000Y-250475000D03*
X194000000Y-247935000D03*
%TD*%
D47*
%TO.C,D2*%
X222062500Y-281975000D03*
X223937500Y-281975000D03*
%TD*%
D28*
%TO.C,R12*%
X243875000Y-206650000D03*
X243875000Y-208300000D03*
%TD*%
D37*
%TO.C,JP4*%
X232902500Y-245395000D03*
X231602500Y-245395000D03*
%TD*%
D21*
%TO.C,R3*%
X259705000Y-253015000D03*
X258055000Y-253015000D03*
%TD*%
D28*
%TO.C,R15*%
X242125000Y-213650000D03*
X242125000Y-215300000D03*
%TD*%
M02*
