%TF.GenerationSoftware,KiCad,Pcbnew,8.0.1*%
%TF.CreationDate,2024-05-26T22:46:05+09:00*%
%TF.ProjectId,Main-20240325,4d61696e-2d32-4303-9234-303332352e6b,rev?*%
%TF.SameCoordinates,Original*%
%TF.FileFunction,Paste,Bot*%
%TF.FilePolarity,Positive*%
%FSLAX46Y46*%
G04 Gerber Fmt 4.6, Leading zero omitted, Abs format (unit mm)*
G04 Created by KiCad (PCBNEW 8.0.1) date 2024-05-26 22:46:05*
%MOMM*%
%LPD*%
G01*
G04 APERTURE LIST*
G04 Aperture macros list*
%AMRoundRect*
0 Rectangle with rounded corners*
0 $1 Rounding radius*
0 $2 $3 $4 $5 $6 $7 $8 $9 X,Y pos of 4 corners*
0 Add a 4 corners polygon primitive as box body*
4,1,4,$2,$3,$4,$5,$6,$7,$8,$9,$2,$3,0*
0 Add four circle primitives for the rounded corners*
1,1,$1+$1,$2,$3*
1,1,$1+$1,$4,$5*
1,1,$1+$1,$6,$7*
1,1,$1+$1,$8,$9*
0 Add four rect primitives between the rounded corners*
20,1,$1+$1,$2,$3,$4,$5,0*
20,1,$1+$1,$4,$5,$6,$7,0*
20,1,$1+$1,$6,$7,$8,$9,0*
20,1,$1+$1,$8,$9,$2,$3,0*%
G04 Aperture macros list end*
%ADD10R,0.300000X1.100000*%
%ADD11R,2.300000X3.100000*%
%ADD12RoundRect,0.200000X0.200000X0.275000X-0.200000X0.275000X-0.200000X-0.275000X0.200000X-0.275000X0*%
%ADD13RoundRect,0.225000X-0.250000X0.225000X-0.250000X-0.225000X0.250000X-0.225000X0.250000X0.225000X0*%
%ADD14RoundRect,0.200000X-0.275000X0.200000X-0.275000X-0.200000X0.275000X-0.200000X0.275000X0.200000X0*%
%ADD15RoundRect,0.200000X-0.200000X-0.275000X0.200000X-0.275000X0.200000X0.275000X-0.200000X0.275000X0*%
%ADD16RoundRect,0.250000X0.250000X0.475000X-0.250000X0.475000X-0.250000X-0.475000X0.250000X-0.475000X0*%
%ADD17RoundRect,0.243750X-0.243750X-0.456250X0.243750X-0.456250X0.243750X0.456250X-0.243750X0.456250X0*%
G04 APERTURE END LIST*
D10*
%TO.C,J3*%
X246500000Y-286625000D03*
X246000000Y-286625000D03*
X245500000Y-286625000D03*
X245000000Y-286625000D03*
X244500000Y-286625000D03*
X244000000Y-286625000D03*
X243500000Y-286625000D03*
X243000000Y-286625000D03*
X242500000Y-286625000D03*
X242000000Y-286625000D03*
X241500000Y-286625000D03*
X241000000Y-286625000D03*
X240500000Y-286625000D03*
X240000000Y-286625000D03*
X239500000Y-286625000D03*
D11*
X248170000Y-288325000D03*
X237830000Y-288325000D03*
%TD*%
D12*
%TO.C,R1*%
X228825000Y-279975000D03*
X227175000Y-279975000D03*
%TD*%
D13*
%TO.C,C6*%
X247375000Y-216700000D03*
X247375000Y-218250000D03*
%TD*%
%TO.C,C4*%
X249125000Y-216700000D03*
X249125000Y-218250000D03*
%TD*%
D14*
%TO.C,R19*%
X238625000Y-213650000D03*
X238625000Y-215300000D03*
%TD*%
%TO.C,R18*%
X238625000Y-206650000D03*
X238625000Y-208300000D03*
%TD*%
%TO.C,R17*%
X240375000Y-213650000D03*
X240375000Y-215300000D03*
%TD*%
D15*
%TO.C,R5*%
X265795000Y-258095000D03*
X267445000Y-258095000D03*
%TD*%
D14*
%TO.C,R20*%
X236875000Y-206650000D03*
X236875000Y-208300000D03*
%TD*%
D13*
%TO.C,C17*%
X236875000Y-209700000D03*
X236875000Y-211250000D03*
%TD*%
%TO.C,C16*%
X238625000Y-216700000D03*
X238625000Y-218250000D03*
%TD*%
%TO.C,C10*%
X243875000Y-216700000D03*
X243875000Y-218250000D03*
%TD*%
%TO.C,C18*%
X236875000Y-216700000D03*
X236875000Y-218250000D03*
%TD*%
D16*
%TO.C,C1*%
X228950000Y-284475000D03*
X227050000Y-284475000D03*
%TD*%
D14*
%TO.C,R21*%
X236875000Y-213650000D03*
X236875000Y-215300000D03*
%TD*%
%TO.C,R13*%
X243875000Y-213650000D03*
X243875000Y-215300000D03*
%TD*%
D16*
%TO.C,C2*%
X223950000Y-284475000D03*
X222050000Y-284475000D03*
%TD*%
D13*
%TO.C,C5*%
X247375000Y-209700000D03*
X247375000Y-211250000D03*
%TD*%
%TO.C,C9*%
X243875000Y-209700000D03*
X243875000Y-211250000D03*
%TD*%
D14*
%TO.C,R6*%
X249125000Y-206650000D03*
X249125000Y-208300000D03*
%TD*%
%TO.C,R16*%
X240375000Y-206650000D03*
X240375000Y-208300000D03*
%TD*%
D13*
%TO.C,C8*%
X245625000Y-216700000D03*
X245625000Y-218250000D03*
%TD*%
D12*
%TO.C,R2*%
X223825000Y-279975000D03*
X222175000Y-279975000D03*
%TD*%
D14*
%TO.C,R7*%
X249125000Y-213650000D03*
X249125000Y-215300000D03*
%TD*%
%TO.C,R8*%
X247375000Y-206650000D03*
X247375000Y-208300000D03*
%TD*%
D13*
%TO.C,C13*%
X240375000Y-209700000D03*
X240375000Y-211250000D03*
%TD*%
D14*
%TO.C,R14*%
X242125000Y-206650000D03*
X242125000Y-208300000D03*
%TD*%
%TO.C,R10*%
X245625000Y-206650000D03*
X245625000Y-208300000D03*
%TD*%
%TO.C,R9*%
X247375000Y-213650000D03*
X247375000Y-215300000D03*
%TD*%
D12*
%TO.C,R4*%
X259705000Y-255555000D03*
X258055000Y-255555000D03*
%TD*%
D14*
%TO.C,R11*%
X245625000Y-213650000D03*
X245625000Y-215300000D03*
%TD*%
D13*
%TO.C,C12*%
X242125000Y-216700000D03*
X242125000Y-218250000D03*
%TD*%
%TO.C,C7*%
X245625000Y-209700000D03*
X245625000Y-211250000D03*
%TD*%
%TO.C,C3*%
X249125000Y-209700000D03*
X249125000Y-211250000D03*
%TD*%
%TO.C,C11*%
X242125000Y-209700000D03*
X242125000Y-211250000D03*
%TD*%
D17*
%TO.C,D1*%
X227062500Y-281975000D03*
X228937500Y-281975000D03*
%TD*%
D13*
%TO.C,C15*%
X238625000Y-209700000D03*
X238625000Y-211250000D03*
%TD*%
%TO.C,C14*%
X240375000Y-216700000D03*
X240375000Y-218250000D03*
%TD*%
D17*
%TO.C,D2*%
X222062500Y-281975000D03*
X223937500Y-281975000D03*
%TD*%
D14*
%TO.C,R12*%
X243875000Y-206650000D03*
X243875000Y-208300000D03*
%TD*%
D12*
%TO.C,R3*%
X259705000Y-253015000D03*
X258055000Y-253015000D03*
%TD*%
D14*
%TO.C,R15*%
X242125000Y-213650000D03*
X242125000Y-215300000D03*
%TD*%
M02*
