%TF.GenerationSoftware,KiCad,Pcbnew,8.0.1*%
%TF.CreationDate,2024-11-12T23:52:01+09:00*%
%TF.ProjectId,Main-20240325,4d61696e-2d32-4303-9234-303332352e6b,rev?*%
%TF.SameCoordinates,Original*%
%TF.FileFunction,Soldermask,Top*%
%TF.FilePolarity,Negative*%
%FSLAX46Y46*%
G04 Gerber Fmt 4.6, Leading zero omitted, Abs format (unit mm)*
G04 Created by KiCad (PCBNEW 8.0.1) date 2024-11-12 23:52:01*
%MOMM*%
%LPD*%
G01*
G04 APERTURE LIST*
G04 Aperture macros list*
%AMRoundRect*
0 Rectangle with rounded corners*
0 $1 Rounding radius*
0 $2 $3 $4 $5 $6 $7 $8 $9 X,Y pos of 4 corners*
0 Add a 4 corners polygon primitive as box body*
4,1,4,$2,$3,$4,$5,$6,$7,$8,$9,$2,$3,0*
0 Add four circle primitives for the rounded corners*
1,1,$1+$1,$2,$3*
1,1,$1+$1,$4,$5*
1,1,$1+$1,$6,$7*
1,1,$1+$1,$8,$9*
0 Add four rect primitives between the rounded corners*
20,1,$1+$1,$2,$3,$4,$5,0*
20,1,$1+$1,$4,$5,$6,$7,0*
20,1,$1+$1,$6,$7,$8,$9,0*
20,1,$1+$1,$8,$9,$2,$3,0*%
%AMHorizOval*
0 Thick line with rounded ends*
0 $1 width*
0 $2 $3 position (X,Y) of the first rounded end (center of the circle)*
0 $4 $5 position (X,Y) of the second rounded end (center of the circle)*
0 Add line between two ends*
20,1,$1,$2,$3,$4,$5,0*
0 Add two circle primitives to create the rounded ends*
1,1,$1,$2,$3*
1,1,$1,$4,$5*%
G04 Aperture macros list end*
%ADD10C,0.775000*%
%ADD11C,3.200000*%
%ADD12O,2.000000X2.700000*%
%ADD13O,2.000000X1.200000*%
%ADD14R,2.000000X1.200000*%
%ADD15C,2.000000*%
%ADD16R,1.800000X1.800000*%
%ADD17O,1.800000X1.800000*%
%ADD18RoundRect,0.218750X0.218750X0.256250X-0.218750X0.256250X-0.218750X-0.256250X0.218750X-0.256250X0*%
%ADD19R,1.700000X1.700000*%
%ADD20O,1.700000X1.700000*%
%ADD21O,1.200000X2.000000*%
%ADD22R,1.600000X1.600000*%
%ADD23C,1.600000*%
%ADD24R,1.524000X1.524000*%
%ADD25C,1.524000*%
%ADD26RoundRect,0.250000X0.725000X-0.600000X0.725000X0.600000X-0.725000X0.600000X-0.725000X-0.600000X0*%
%ADD27O,1.950000X1.700000*%
%ADD28RoundRect,0.250200X0.649800X0.649800X-0.649800X0.649800X-0.649800X-0.649800X0.649800X-0.649800X0*%
%ADD29C,1.800000*%
%ADD30RoundRect,0.250200X-0.351669X0.849005X-0.849005X-0.351669X0.351669X-0.849005X0.849005X0.351669X0*%
%ADD31HorizOval,1.400000X0.305564X-0.457308X-0.305564X0.457308X0*%
%ADD32RoundRect,0.250200X0.649800X-0.649800X0.649800X0.649800X-0.649800X0.649800X-0.649800X-0.649800X0*%
%ADD33RoundRect,0.250200X-0.849005X-0.351669X0.351669X-0.849005X0.849005X0.351669X-0.351669X0.849005X0*%
%ADD34RoundRect,0.250200X0.918956X0.000000X0.000000X0.918956X-0.918956X0.000000X0.000000X-0.918956X0*%
%ADD35RoundRect,0.250200X0.000000X-0.918956X0.918956X0.000000X0.000000X0.918956X-0.918956X0.000000X0*%
%ADD36RoundRect,0.250200X0.000000X0.918956X-0.918956X0.000000X0.000000X-0.918956X0.918956X0.000000X0*%
%ADD37RoundRect,0.250200X-0.918956X0.000000X0.000000X-0.918956X0.918956X0.000000X0.000000X0.918956X0*%
%ADD38RoundRect,0.250200X-0.351669X-0.849005X0.849005X-0.351669X0.351669X0.849005X-0.849005X0.351669X0*%
%ADD39RoundRect,0.250000X-0.936158X0.096093X-0.269473X-0.901670X0.936158X-0.096093X0.269473X0.901670X0*%
%ADD40HorizOval,1.700000X-0.103934X-0.069446X0.103934X0.069446X0*%
%ADD41RoundRect,0.250200X0.351669X0.849005X-0.849005X0.351669X-0.351669X-0.849005X0.849005X-0.351669X0*%
%ADD42RoundRect,0.250200X0.351669X-0.849005X0.849005X0.351669X-0.351669X0.849005X-0.849005X-0.351669X0*%
%ADD43RoundRect,0.250200X-0.849005X0.351669X-0.351669X-0.849005X0.849005X-0.351669X0.351669X0.849005X0*%
%ADD44RoundRect,0.250200X-0.649800X0.649800X-0.649800X-0.649800X0.649800X-0.649800X0.649800X0.649800X0*%
%ADD45RoundRect,0.250200X-0.649800X-0.649800X0.649800X-0.649800X0.649800X0.649800X-0.649800X0.649800X0*%
%ADD46RoundRect,0.250200X0.849005X-0.351669X0.351669X0.849005X-0.849005X0.351669X-0.351669X-0.849005X0*%
%ADD47RoundRect,0.250200X0.849005X0.351669X-0.351669X0.849005X-0.849005X-0.351669X0.351669X-0.849005X0*%
G04 APERTURE END LIST*
D10*
X-25112500Y22000000D02*
G75*
G02*
X-25887500Y22000000I-387500J0D01*
G01*
X-25887500Y22000000D02*
G75*
G02*
X-25112500Y22000000I387500J0D01*
G01*
X-30112500Y22000000D02*
G75*
G02*
X-30887500Y22000000I-387500J0D01*
G01*
X-30887500Y22000000D02*
G75*
G02*
X-30112500Y22000000I387500J0D01*
G01*
X-27612500Y22000000D02*
G75*
G02*
X-28387500Y22000000I-387500J0D01*
G01*
X-28387500Y22000000D02*
G75*
G02*
X-27612500Y22000000I387500J0D01*
G01*
D11*
%TO.C,REF\u002A\u002A*%
X30052038Y-30052038D03*
%TD*%
D12*
%TO.C,SW4*%
X20250000Y-22500000D03*
X13750000Y-22500000D03*
%TD*%
D13*
%TO.C,U1*%
X7620000Y-26670000D03*
X7620000Y-24130000D03*
X7620000Y-21590000D03*
X7620000Y-19050000D03*
X7620000Y6350000D03*
X-7620000Y-24130000D03*
X7620000Y-16510000D03*
X7620000Y-13970000D03*
X7620000Y-11430000D03*
X7620000Y-8890000D03*
X7620000Y-6350000D03*
X7620000Y-3810000D03*
X7620000Y-1270000D03*
X7620000Y1270000D03*
X7620000Y3810000D03*
X-7620000Y3810000D03*
X-7620000Y1270000D03*
X-7620000Y-1270000D03*
X-7620000Y-3810000D03*
X-7620000Y-6350000D03*
X-7620000Y-8890000D03*
X-7620000Y-11430000D03*
X-7620000Y-13970000D03*
X-7620000Y-16510000D03*
X-7620000Y-19050000D03*
X-7620000Y-21590000D03*
X7620000Y8890000D03*
X7620000Y11430000D03*
X7620000Y13970000D03*
X7620000Y16510000D03*
X7620000Y19050000D03*
X7620000Y21590000D03*
X7620000Y24130000D03*
X7620000Y26670000D03*
X7620000Y29210000D03*
X-7620000Y29210000D03*
X-7620000Y26670000D03*
X-7620000Y24130000D03*
X-7620000Y21590000D03*
X-7620000Y19050000D03*
X-7620000Y16510000D03*
X-7620000Y13970000D03*
X-7620000Y11430000D03*
X-7620000Y8890000D03*
D14*
X7620000Y-29210000D03*
X-7620000Y-26670000D03*
X-7620000Y6350000D03*
D13*
X-5080000Y16510000D03*
X-2540000Y16510000D03*
X-7620000Y-29210000D03*
%TD*%
D15*
%TO.C,J8*%
X-5080000Y46000000D03*
X-2540000Y46000000D03*
X0Y46000000D03*
X2540000Y46000000D03*
X5080000Y46000000D03*
%TD*%
D13*
%TO.C,U2*%
X13190000Y24130000D03*
D14*
X13190000Y21590000D03*
D13*
X13190000Y19050000D03*
X13190000Y16510000D03*
X20810000Y16510000D03*
X20810000Y19050000D03*
D14*
X20810000Y21590000D03*
D13*
X20810000Y24130000D03*
%TD*%
D16*
%TO.C,D5*%
X28615000Y-3810000D03*
D17*
X28615000Y3810000D03*
%TD*%
D12*
%TO.C,SW3*%
X20250000Y-17000000D03*
X13750000Y-17000000D03*
%TD*%
D15*
%TO.C,J10*%
X46000000Y5080000D03*
X46000000Y2540000D03*
X46000000Y0D03*
X46000000Y-2540000D03*
X46000000Y-5080000D03*
%TD*%
D11*
%TO.C,REF\u002A\u002A*%
X-30052038Y-30052038D03*
%TD*%
%TO.C,REF\u002A\u002A*%
X-23611735Y35337459D03*
%TD*%
D18*
%TO.C,D3*%
X-19212500Y-28000000D03*
X-20787500Y-28000000D03*
%TD*%
D11*
%TO.C,REF\u002A\u002A*%
X23611735Y35337459D03*
%TD*%
D19*
%TO.C,J2*%
X-23210000Y3700000D03*
D20*
X-23210000Y1160000D03*
X-23210000Y-1380000D03*
X-23210000Y-3920000D03*
X-23210000Y-6460000D03*
X-23210000Y-9000000D03*
%TD*%
D11*
%TO.C,REF\u002A\u002A*%
X23611735Y-35337459D03*
%TD*%
D21*
%TO.C,U19*%
X28620000Y7620000D03*
X26080000Y7620000D03*
X23540000Y7620000D03*
X21000000Y7620000D03*
X18460000Y7620000D03*
X15920000Y7620000D03*
X13380000Y7620000D03*
X13380000Y-7620000D03*
X15920000Y-7620000D03*
X18460000Y-7620000D03*
X21000000Y-7620000D03*
X23540000Y-7620000D03*
X26080000Y-7620000D03*
X28620000Y-7620000D03*
%TD*%
D11*
%TO.C,REF\u002A\u002A*%
X-23611735Y-35337459D03*
%TD*%
D18*
%TO.C,D4*%
X-19212500Y-24500000D03*
X-20787500Y-24500000D03*
%TD*%
D11*
%TO.C,REF\u002A\u002A*%
X30052038Y30052038D03*
%TD*%
D13*
%TO.C,J4*%
X-16252500Y5080000D03*
X-13712500Y5080000D03*
X-16252500Y2540000D03*
X-13712500Y2540000D03*
X-16252500Y0D03*
X-13712500Y0D03*
X-16252500Y-2540000D03*
X-13712500Y-2540000D03*
X-16252500Y-5080000D03*
X-13712500Y-5080000D03*
%TD*%
D22*
%TO.C,C1*%
X0Y-21902651D03*
D23*
X0Y-18402651D03*
%TD*%
D11*
%TO.C,REF\u002A\u002A*%
X-30052038Y30052038D03*
%TD*%
D22*
%TO.C,C2*%
X0Y-11500000D03*
D23*
X0Y-8000000D03*
%TD*%
D24*
%TO.C,J3*%
X-12377500Y-15707500D03*
D25*
X-14377500Y-15707500D03*
X-16377500Y-15707500D03*
X-18377500Y-15707500D03*
%TD*%
D23*
%TO.C,RV1*%
X27960000Y-17000000D03*
X30500000Y-14460000D03*
X33040000Y-17000000D03*
%TD*%
D12*
%TO.C,SW2*%
X20250000Y-28000000D03*
X13750000Y-28000000D03*
%TD*%
D15*
%TO.C,J9*%
X-46000000Y-5080000D03*
X-46000000Y-2540000D03*
X-46000000Y0D03*
X-46000000Y2540000D03*
X-46000000Y5080000D03*
%TD*%
D26*
%TO.C,J7*%
X-36975000Y-11250000D03*
D27*
X-36975000Y-8750000D03*
X-36975000Y-6250000D03*
X-36975000Y-3750000D03*
X-36975000Y-1250000D03*
X-36975000Y1250000D03*
X-36975000Y3750000D03*
X-36975000Y6250000D03*
X-36975000Y8750000D03*
X-36975000Y11250000D03*
%TD*%
D28*
%TO.C,U11*%
X2540000Y-49499999D03*
D29*
X0Y-49499999D03*
X-2540000Y-49499999D03*
%TD*%
D30*
%TO.C,U14*%
X46704052Y-16596174D03*
D29*
X45732036Y-18942828D03*
X44760020Y-21289482D03*
%TD*%
D31*
%TO.C,SW1*%
X-29735703Y-22923592D03*
X-31847636Y-24334741D03*
X-33959568Y-25745889D03*
X-32558000Y-18699727D03*
X-34669932Y-20110875D03*
X-36781865Y-21522024D03*
%TD*%
D32*
%TO.C,U7*%
X-49500000Y-2539999D03*
D29*
X-49500000Y1D03*
X-49500000Y2540001D03*
%TD*%
D33*
%TO.C,U18*%
X16596175Y46704053D03*
D29*
X18942829Y45732037D03*
X21289483Y44760021D03*
%TD*%
D34*
%TO.C,U9*%
X-33205734Y-36797835D03*
D29*
X-35001785Y-35001784D03*
X-36797836Y-33205733D03*
%TD*%
D35*
%TO.C,U5*%
X-36797836Y33205735D03*
D29*
X-35001785Y35001786D03*
X-33205734Y36797837D03*
%TD*%
D36*
%TO.C,U13*%
X36797836Y-33205733D03*
D29*
X35001785Y-35001784D03*
X33205734Y-36797835D03*
%TD*%
D37*
%TO.C,U17*%
X33205734Y36797837D03*
D29*
X35001785Y35001786D03*
X36797836Y33205735D03*
%TD*%
D38*
%TO.C,U4*%
X-21289483Y44760021D03*
D29*
X-18942829Y45732037D03*
X-16596175Y46704053D03*
%TD*%
D39*
%TO.C,J1*%
X-27995954Y-15699574D03*
D40*
X-26607028Y-17778248D03*
X-25218103Y-19856922D03*
%TD*%
D41*
%TO.C,U12*%
X21289483Y-44760019D03*
D29*
X18942829Y-45732035D03*
X16596175Y-46704051D03*
%TD*%
D42*
%TO.C,U6*%
X-46704052Y16596176D03*
D29*
X-45732036Y18942830D03*
X-44760020Y21289484D03*
%TD*%
D43*
%TO.C,U16*%
X44760020Y21289484D03*
D29*
X45732036Y18942830D03*
X46704052Y16596176D03*
%TD*%
D44*
%TO.C,U15*%
X49500000Y2540000D03*
D29*
X49500000Y0D03*
X49500000Y-2540000D03*
%TD*%
D45*
%TO.C,U3*%
X-2540000Y49500001D03*
D29*
X0Y49500001D03*
X2540000Y49500001D03*
%TD*%
D26*
%TO.C,J6*%
X27000000Y13000000D03*
D27*
X27000000Y15500000D03*
X27000000Y18000000D03*
X27000000Y20500000D03*
%TD*%
D46*
%TO.C,U8*%
X-44760020Y-21289482D03*
D29*
X-45732036Y-18942828D03*
X-46704052Y-16596174D03*
%TD*%
D47*
%TO.C,U10*%
X-16596175Y-46704051D03*
D29*
X-18942829Y-45732035D03*
X-21289483Y-44760019D03*
%TD*%
M02*
