%TF.GenerationSoftware,KiCad,Pcbnew,8.0.1*%
%TF.CreationDate,2024-11-10T20:11:21+09:00*%
%TF.ProjectId,Main-20240325,4d61696e-2d32-4303-9234-303332352e6b,rev?*%
%TF.SameCoordinates,Original*%
%TF.FileFunction,Soldermask,Bot*%
%TF.FilePolarity,Negative*%
%FSLAX46Y46*%
G04 Gerber Fmt 4.6, Leading zero omitted, Abs format (unit mm)*
G04 Created by KiCad (PCBNEW 8.0.1) date 2024-11-10 20:11:21*
%MOMM*%
%LPD*%
G01*
G04 APERTURE LIST*
G04 Aperture macros list*
%AMRoundRect*
0 Rectangle with rounded corners*
0 $1 Rounding radius*
0 $2 $3 $4 $5 $6 $7 $8 $9 X,Y pos of 4 corners*
0 Add a 4 corners polygon primitive as box body*
4,1,4,$2,$3,$4,$5,$6,$7,$8,$9,$2,$3,0*
0 Add four circle primitives for the rounded corners*
1,1,$1+$1,$2,$3*
1,1,$1+$1,$4,$5*
1,1,$1+$1,$6,$7*
1,1,$1+$1,$8,$9*
0 Add four rect primitives between the rounded corners*
20,1,$1+$1,$2,$3,$4,$5,0*
20,1,$1+$1,$4,$5,$6,$7,0*
20,1,$1+$1,$6,$7,$8,$9,0*
20,1,$1+$1,$8,$9,$2,$3,0*%
%AMHorizOval*
0 Thick line with rounded ends*
0 $1 width*
0 $2 $3 position (X,Y) of the first rounded end (center of the circle)*
0 $4 $5 position (X,Y) of the second rounded end (center of the circle)*
0 Add line between two ends*
20,1,$1,$2,$3,$4,$5,0*
0 Add two circle primitives to create the rounded ends*
1,1,$1,$2,$3*
1,1,$1,$4,$5*%
G04 Aperture macros list end*
%ADD10R,0.600000X1.500000*%
%ADD11R,2.300000X2.600000*%
%ADD12O,2.000000X2.700000*%
%ADD13C,3.200000*%
%ADD14O,2.000000X1.200000*%
%ADD15R,2.000000X1.200000*%
%ADD16C,2.000000*%
%ADD17R,1.800000X1.800000*%
%ADD18O,1.800000X1.800000*%
%ADD19R,1.700000X1.700000*%
%ADD20O,1.700000X1.700000*%
%ADD21O,1.200000X2.000000*%
%ADD22R,1.600000X1.600000*%
%ADD23C,1.600000*%
%ADD24R,1.524000X1.524000*%
%ADD25C,1.524000*%
%ADD26RoundRect,0.250000X0.725000X-0.600000X0.725000X0.600000X-0.725000X0.600000X-0.725000X-0.600000X0*%
%ADD27O,1.950000X1.700000*%
%ADD28RoundRect,0.200000X-0.013512X-0.339768X0.319076X-0.117540X0.013512X0.339768X-0.319076X0.117540X0*%
%ADD29RoundRect,0.200000X0.117540X-0.319076X0.339768X0.013512X-0.117540X0.319076X-0.339768X-0.013512X0*%
%ADD30RoundRect,0.250200X0.649800X0.649800X-0.649800X0.649800X-0.649800X-0.649800X0.649800X-0.649800X0*%
%ADD31C,1.800000*%
%ADD32RoundRect,0.200000X0.013512X0.339768X-0.319076X0.117540X-0.013512X-0.339768X0.319076X-0.117540X0*%
%ADD33RoundRect,0.250200X-0.351669X0.849005X-0.849005X-0.351669X0.351669X-0.849005X0.849005X0.351669X0*%
%ADD34HorizOval,1.400000X0.305564X-0.457308X-0.305564X0.457308X0*%
%ADD35RoundRect,0.200000X-0.308734X0.142507X-0.230698X-0.249807X0.308734X-0.142507X0.230698X0.249807X0*%
%ADD36RoundRect,0.250200X0.649800X-0.649800X0.649800X0.649800X-0.649800X0.649800X-0.649800X-0.649800X0*%
%ADD37RoundRect,0.200000X-0.200000X-0.275000X0.200000X-0.275000X0.200000X0.275000X-0.200000X0.275000X0*%
%ADD38RoundRect,0.225000X0.269449X0.201301X-0.171904X0.289092X-0.269449X-0.201301X0.171904X-0.289092X0*%
%ADD39RoundRect,0.250200X-0.849005X-0.351669X0.351669X-0.849005X0.849005X0.351669X-0.351669X0.849005X0*%
%ADD40RoundRect,0.200000X-0.117540X0.319076X-0.339768X-0.013512X0.117540X-0.319076X0.339768X0.013512X0*%
%ADD41RoundRect,0.250200X0.918956X0.000000X0.000000X0.918956X-0.918956X0.000000X0.000000X-0.918956X0*%
%ADD42RoundRect,0.250200X0.000000X-0.918956X0.918956X0.000000X0.000000X0.918956X-0.918956X0.000000X0*%
%ADD43RoundRect,0.225000X-0.171904X-0.289092X0.269449X-0.201301X0.171904X0.289092X-0.269449X0.201301X0*%
%ADD44RoundRect,0.200000X0.319076X0.117540X-0.013512X0.339768X-0.319076X-0.117540X0.013512X-0.339768X0*%
%ADD45RoundRect,0.225000X0.048188X0.332871X-0.325973X0.082864X-0.048188X-0.332871X0.325973X-0.082864X0*%
%ADD46RoundRect,0.225000X0.250000X-0.225000X0.250000X0.225000X-0.250000X0.225000X-0.250000X-0.225000X0*%
%ADD47RoundRect,0.200000X0.142507X0.308734X-0.249807X0.230698X-0.142507X-0.308734X0.249807X-0.230698X0*%
%ADD48RoundRect,0.225000X-0.250000X0.225000X-0.250000X-0.225000X0.250000X-0.225000X0.250000X0.225000X0*%
%ADD49RoundRect,0.250200X0.000000X0.918956X-0.918956X0.000000X0.000000X-0.918956X0.918956X0.000000X0*%
%ADD50RoundRect,0.250200X-0.918956X0.000000X0.000000X-0.918956X0.918956X0.000000X0.000000X0.918956X0*%
%ADD51RoundRect,0.225000X0.225000X0.250000X-0.225000X0.250000X-0.225000X-0.250000X0.225000X-0.250000X0*%
%ADD52RoundRect,0.225000X0.171904X0.289092X-0.269449X0.201301X-0.171904X-0.289092X0.269449X-0.201301X0*%
%ADD53RoundRect,0.225000X-0.225000X-0.250000X0.225000X-0.250000X0.225000X0.250000X-0.225000X0.250000X0*%
%ADD54RoundRect,0.200000X0.200000X0.275000X-0.200000X0.275000X-0.200000X-0.275000X0.200000X-0.275000X0*%
%ADD55RoundRect,0.225000X0.082864X-0.325973X0.332871X0.048188X-0.082864X0.325973X-0.332871X-0.048188X0*%
%ADD56RoundRect,0.225000X-0.332871X0.048188X-0.082864X-0.325973X0.332871X-0.048188X0.082864X0.325973X0*%
%ADD57RoundRect,0.200000X0.339768X-0.013512X0.117540X0.319076X-0.339768X0.013512X-0.117540X-0.319076X0*%
%ADD58RoundRect,0.225000X-0.082864X0.325973X-0.332871X-0.048188X0.082864X-0.325973X0.332871X0.048188X0*%
%ADD59RoundRect,0.225000X-0.325973X-0.082864X0.048188X-0.332871X0.325973X0.082864X-0.048188X0.332871X0*%
%ADD60RoundRect,0.250200X-0.351669X-0.849005X0.849005X-0.351669X0.351669X0.849005X-0.849005X0.351669X0*%
%ADD61RoundRect,0.250000X-0.936158X0.096093X-0.269473X-0.901670X0.936158X-0.096093X0.269473X0.901670X0*%
%ADD62HorizOval,1.700000X-0.103934X-0.069446X0.103934X0.069446X0*%
%ADD63RoundRect,0.250200X0.351669X0.849005X-0.849005X0.351669X-0.351669X-0.849005X0.849005X-0.351669X0*%
%ADD64RoundRect,0.250200X0.351669X-0.849005X0.849005X0.351669X-0.351669X0.849005X-0.849005X-0.351669X0*%
%ADD65RoundRect,0.225000X-0.201301X0.269449X-0.289092X-0.171904X0.201301X-0.269449X0.289092X0.171904X0*%
%ADD66RoundRect,0.250200X-0.849005X0.351669X-0.351669X-0.849005X0.849005X-0.351669X0.351669X0.849005X0*%
%ADD67RoundRect,0.225000X0.332871X-0.048188X0.082864X0.325973X-0.332871X0.048188X-0.082864X-0.325973X0*%
%ADD68RoundRect,0.200000X0.249807X0.230698X-0.142507X0.308734X-0.249807X-0.230698X0.142507X-0.308734X0*%
%ADD69RoundRect,0.225000X-0.269449X-0.201301X0.171904X-0.289092X0.269449X0.201301X-0.171904X0.289092X0*%
%ADD70RoundRect,0.200000X0.308734X-0.142507X0.230698X0.249807X-0.308734X0.142507X-0.230698X-0.249807X0*%
%ADD71RoundRect,0.225000X0.325973X0.082864X-0.048188X0.332871X-0.325973X-0.082864X0.048188X-0.332871X0*%
%ADD72RoundRect,0.250200X-0.649800X0.649800X-0.649800X-0.649800X0.649800X-0.649800X0.649800X0.649800X0*%
%ADD73RoundRect,0.225000X-0.289092X0.171904X-0.201301X-0.269449X0.289092X-0.171904X0.201301X0.269449X0*%
%ADD74RoundRect,0.200000X0.275000X-0.200000X0.275000X0.200000X-0.275000X0.200000X-0.275000X-0.200000X0*%
%ADD75RoundRect,0.225000X-0.048188X-0.332871X0.325973X-0.082864X0.048188X0.332871X-0.325973X0.082864X0*%
%ADD76RoundRect,0.200000X-0.249807X-0.230698X0.142507X-0.308734X0.249807X0.230698X-0.142507X0.308734X0*%
%ADD77RoundRect,0.200000X-0.142507X-0.308734X0.249807X-0.230698X0.142507X0.308734X-0.249807X0.230698X0*%
%ADD78RoundRect,0.200000X-0.230698X0.249807X-0.308734X-0.142507X0.230698X-0.249807X0.308734X0.142507X0*%
%ADD79RoundRect,0.250200X-0.649800X-0.649800X0.649800X-0.649800X0.649800X0.649800X-0.649800X0.649800X0*%
%ADD80RoundRect,0.225000X0.289092X-0.171904X0.201301X0.269449X-0.289092X0.171904X-0.201301X-0.269449X0*%
%ADD81RoundRect,0.200000X0.230698X-0.249807X0.308734X0.142507X-0.230698X0.249807X-0.308734X-0.142507X0*%
%ADD82RoundRect,0.225000X0.201301X-0.269449X0.289092X0.171904X-0.201301X0.269449X-0.289092X-0.171904X0*%
%ADD83RoundRect,0.250200X0.849005X-0.351669X0.351669X0.849005X-0.849005X0.351669X-0.351669X-0.849005X0*%
%ADD84RoundRect,0.200000X-0.339768X0.013512X-0.117540X-0.319076X0.339768X-0.013512X0.117540X0.319076X0*%
%ADD85RoundRect,0.200000X-0.319076X-0.117540X0.013512X-0.339768X0.319076X0.117540X-0.013512X0.339768X0*%
%ADD86RoundRect,0.250200X0.849005X0.351669X-0.351669X0.849005X-0.849005X-0.351669X0.351669X-0.849005X0*%
G04 APERTURE END LIST*
D10*
%TO.C,J5*%
X7620000Y-31790000D03*
X6620000Y-31790000D03*
X5620000Y-31790000D03*
X4620000Y-31790000D03*
X3620000Y-31790000D03*
X2620000Y-31790000D03*
X1620000Y-31790000D03*
X620000Y-31790000D03*
X-380000Y-31790000D03*
X-1380000Y-31790000D03*
X-2380000Y-31790000D03*
X-3380000Y-31790000D03*
X-4380000Y-31790000D03*
X-5380000Y-31790000D03*
X-6380000Y-31790000D03*
D11*
X10270000Y-34540000D03*
X-9030000Y-34540000D03*
%TD*%
D12*
%TO.C,SW4*%
X14370000Y-21790000D03*
X20870000Y-21790000D03*
%TD*%
%TO.C,SW3*%
X20870000Y-16290000D03*
X14370000Y-16290000D03*
%TD*%
%TO.C,SW2*%
X14370000Y-27290000D03*
X20870000Y-27290000D03*
%TD*%
D13*
%TO.C,REF\u002A\u002A*%
X30672038Y-29342038D03*
%TD*%
D14*
%TO.C,U1*%
X8240000Y-25960000D03*
X8240000Y-23420000D03*
X8240000Y-20880000D03*
X8240000Y-18340000D03*
X8240000Y7060000D03*
X-7000000Y-23420000D03*
X8240000Y-15800000D03*
X8240000Y-13260000D03*
X8240000Y-10720000D03*
X8240000Y-8180000D03*
X8240000Y-5640000D03*
X8240000Y-3100000D03*
X8240000Y-560000D03*
X8240000Y1980000D03*
X8240000Y4520000D03*
X-7000000Y4520000D03*
X-7000000Y1980000D03*
X-7000000Y-560000D03*
X-7000000Y-3100000D03*
X-7000000Y-5640000D03*
X-7000000Y-8180000D03*
X-7000000Y-10720000D03*
X-7000000Y-13260000D03*
X-7000000Y-15800000D03*
X-7000000Y-18340000D03*
X-7000000Y-20880000D03*
X8240000Y9600000D03*
X8240000Y12140000D03*
X8240000Y14680000D03*
X8240000Y17220000D03*
X8240000Y19760000D03*
X8240000Y22300000D03*
X8240000Y24840000D03*
X8240000Y27380000D03*
X8240000Y29920000D03*
X-7000000Y29920000D03*
X-7000000Y27380000D03*
X-7000000Y24840000D03*
X-7000000Y22300000D03*
X-7000000Y19760000D03*
X-7000000Y17220000D03*
X-7000000Y14680000D03*
X-7000000Y12140000D03*
X-7000000Y9600000D03*
D15*
X8240000Y-28500000D03*
X-7000000Y-25960000D03*
X-7000000Y7060000D03*
D14*
X-4460000Y17220000D03*
X-1920000Y17220000D03*
X-7000000Y-28500000D03*
%TD*%
D16*
%TO.C,J8*%
X-4460000Y46710000D03*
X-1920000Y46710000D03*
X620000Y46710000D03*
X3160000Y46710000D03*
X5700000Y46710000D03*
%TD*%
D14*
%TO.C,U2*%
X13810000Y24840000D03*
D15*
X13810000Y22300000D03*
D14*
X13810000Y19760000D03*
X13810000Y17220000D03*
X21430000Y17220000D03*
X21430000Y19760000D03*
D15*
X21430000Y22300000D03*
D14*
X21430000Y24840000D03*
%TD*%
D17*
%TO.C,D5*%
X29235000Y-3100000D03*
D18*
X29235000Y4520000D03*
%TD*%
D16*
%TO.C,J10*%
X46620000Y5790000D03*
X46620000Y3250000D03*
X46620000Y710000D03*
X46620000Y-1830000D03*
X46620000Y-4370000D03*
%TD*%
D13*
%TO.C,REF\u002A\u002A*%
X-29432038Y-29342038D03*
%TD*%
%TO.C,REF\u002A\u002A*%
X-22991735Y36047459D03*
%TD*%
%TO.C,REF\u002A\u002A*%
X24231735Y36047459D03*
%TD*%
D19*
%TO.C,J2*%
X-22590000Y4410000D03*
D20*
X-22590000Y1870000D03*
X-22590000Y-670000D03*
X-22590000Y-3210000D03*
X-22590000Y-5750000D03*
X-22590000Y-8290000D03*
%TD*%
D13*
%TO.C,REF\u002A\u002A*%
X24231735Y-34627459D03*
%TD*%
D21*
%TO.C,U19*%
X29240000Y8330000D03*
X26700000Y8330000D03*
X24160000Y8330000D03*
X21620000Y8330000D03*
X19080000Y8330000D03*
X16540000Y8330000D03*
X14000000Y8330000D03*
X14000000Y-6910000D03*
X16540000Y-6910000D03*
X19080000Y-6910000D03*
X21620000Y-6910000D03*
X24160000Y-6910000D03*
X26700000Y-6910000D03*
X29240000Y-6910000D03*
%TD*%
D13*
%TO.C,REF\u002A\u002A*%
X-22991735Y-34627459D03*
%TD*%
%TO.C,REF\u002A\u002A*%
X30672038Y30762038D03*
%TD*%
D14*
%TO.C,J4*%
X-15632500Y5790000D03*
X-13092500Y5790000D03*
X-15632500Y3250000D03*
X-13092500Y3250000D03*
X-15632500Y710000D03*
X-13092500Y710000D03*
X-15632500Y-1830000D03*
X-13092500Y-1830000D03*
X-15632500Y-4370000D03*
X-13092500Y-4370000D03*
%TD*%
D22*
%TO.C,C1*%
X620000Y-21192651D03*
D23*
X620000Y-17692651D03*
%TD*%
D13*
%TO.C,REF\u002A\u002A*%
X-29432038Y30762038D03*
%TD*%
D22*
%TO.C,C2*%
X620000Y-10790000D03*
D23*
X620000Y-7290000D03*
%TD*%
D24*
%TO.C,J3*%
X-11757500Y-14997500D03*
D25*
X-13757500Y-14997500D03*
X-15757500Y-14997500D03*
X-17757500Y-14997500D03*
%TD*%
D23*
%TO.C,RV1*%
X28580000Y-16290000D03*
X31120000Y-13750000D03*
X33660000Y-16290000D03*
%TD*%
D16*
%TO.C,J9*%
X-45380000Y-4370000D03*
X-45380000Y-1830000D03*
X-45380000Y710000D03*
X-45380000Y3250000D03*
X-45380000Y5790000D03*
%TD*%
D26*
%TO.C,J7*%
X-36355000Y-10540000D03*
D27*
X-36355000Y-8040000D03*
X-36355000Y-5540000D03*
X-36355000Y-3040000D03*
X-36355000Y-540000D03*
X-36355000Y1960000D03*
X-36355000Y4460000D03*
X-36355000Y6960000D03*
X-36355000Y9460000D03*
X-36355000Y11960000D03*
%TD*%
D28*
%TO.C,R19*%
X28545905Y-42569029D03*
X29917829Y-41652339D03*
%TD*%
D29*
%TO.C,R20*%
X42982341Y-28587829D03*
X43899031Y-27215905D03*
%TD*%
D30*
%TO.C,U11*%
X3160000Y-48789999D03*
D31*
X620000Y-48789999D03*
X-1920000Y-48789999D03*
%TD*%
D32*
%TO.C,R9*%
X-27305903Y43989029D03*
X-28677827Y43072339D03*
%TD*%
D33*
%TO.C,U14*%
X47324052Y-15886174D03*
D31*
X46352036Y-18232828D03*
X45380020Y-20579482D03*
%TD*%
D34*
%TO.C,SW1*%
X-29115703Y-22213592D03*
X-31227636Y-23624741D03*
X-33339568Y-25035889D03*
X-31938000Y-17989727D03*
X-34049932Y-19400875D03*
X-36161865Y-20812024D03*
%TD*%
D35*
%TO.C,R12*%
X-50051391Y-8528003D03*
X-49729491Y-10146299D03*
%TD*%
D36*
%TO.C,U7*%
X-48880000Y-1829999D03*
D31*
X-48880000Y710001D03*
X-48880000Y3250001D03*
%TD*%
D37*
%TO.C,R5*%
X-23705000Y-27290000D03*
X-22055000Y-27290000D03*
%TD*%
D38*
%TO.C,C20*%
X-8276862Y-47990067D03*
X-9797080Y-47687677D03*
%TD*%
D39*
%TO.C,U18*%
X17216175Y47414053D03*
D31*
X19562829Y46442037D03*
X21909483Y45470021D03*
%TD*%
D40*
%TO.C,R10*%
X-41742339Y30007829D03*
X-42659029Y28635905D03*
%TD*%
D41*
%TO.C,U9*%
X-32585734Y-36087835D03*
D31*
X-34381785Y-34291784D03*
X-36177836Y-32495733D03*
%TD*%
D42*
%TO.C,U5*%
X-36177836Y33915735D03*
D31*
X-34381785Y35711786D03*
X-32585734Y37507837D03*
%TD*%
D43*
%TO.C,C13*%
X-9797080Y49107677D03*
X-8276862Y49410067D03*
%TD*%
D44*
%TO.C,R24*%
X29917830Y43072340D03*
X28545906Y43989030D03*
%TD*%
D45*
%TO.C,C22*%
X28765114Y-40017177D03*
X27476336Y-40878311D03*
%TD*%
D46*
%TO.C,C11*%
X-13090000Y8710000D03*
X-13090000Y10260000D03*
%TD*%
D47*
%TO.C,R8*%
X-8618003Y51381392D03*
X-10236299Y51059492D03*
%TD*%
D46*
%TO.C,C3*%
X-9750000Y-28500000D03*
X-9750000Y-26950000D03*
%TD*%
D48*
%TO.C,C12*%
X-1920000Y41485000D03*
X-1920000Y39935000D03*
%TD*%
D49*
%TO.C,U13*%
X37417836Y-32495733D03*
D31*
X35621785Y-34291784D03*
X33825734Y-36087835D03*
%TD*%
D50*
%TO.C,U17*%
X33825734Y37507837D03*
D31*
X35621785Y35711786D03*
X37417836Y33915735D03*
%TD*%
D51*
%TO.C,C7*%
X-15765000Y-18790000D03*
X-17315000Y-18790000D03*
%TD*%
D52*
%TO.C,C21*%
X11037080Y-47687675D03*
X9516862Y-47990065D03*
%TD*%
D46*
%TO.C,C8*%
X-31840000Y-10540000D03*
X-31840000Y-8990000D03*
%TD*%
D53*
%TO.C,C4*%
X16845000Y24840000D03*
X18395000Y24840000D03*
%TD*%
D54*
%TO.C,R16*%
X18445000Y-16290000D03*
X16795000Y-16290000D03*
%TD*%
D55*
%TO.C,C15*%
X-40968312Y27566338D03*
X-40107178Y28855116D03*
%TD*%
D56*
%TO.C,C26*%
X41347178Y28855115D03*
X42208312Y27566337D03*
%TD*%
D57*
%TO.C,R23*%
X43899030Y28635904D03*
X42982340Y30007828D03*
%TD*%
D54*
%TO.C,R17*%
X16795000Y-21790000D03*
X18445000Y-21790000D03*
%TD*%
D46*
%TO.C,C6*%
X32160000Y18685000D03*
X32160000Y20235000D03*
%TD*%
D58*
%TO.C,C23*%
X42208312Y-26146336D03*
X41347178Y-27435114D03*
%TD*%
D59*
%TO.C,C27*%
X27476337Y42298313D03*
X28765115Y41437179D03*
%TD*%
D60*
%TO.C,U4*%
X-20669483Y45470021D03*
D31*
X-18322829Y46442037D03*
X-15976175Y47414053D03*
%TD*%
D61*
%TO.C,J1*%
X-27375954Y-14989574D03*
D62*
X-25987028Y-17068248D03*
X-24598103Y-19146922D03*
%TD*%
D63*
%TO.C,U12*%
X21909483Y-44050019D03*
D31*
X19562829Y-45022035D03*
X17216175Y-45994051D03*
%TD*%
D54*
%TO.C,R4*%
X18445000Y17220000D03*
X16795000Y17220000D03*
%TD*%
D64*
%TO.C,U6*%
X-46084052Y17306176D03*
D31*
X-45112036Y19652830D03*
X-44140020Y21999484D03*
%TD*%
D48*
%TO.C,C5*%
X29235000Y1485000D03*
X29235000Y-65000D03*
%TD*%
D65*
%TO.C,C24*%
X49320065Y-8186860D03*
X49017675Y-9707078D03*
%TD*%
D66*
%TO.C,U16*%
X45380020Y21999484D03*
D31*
X46352036Y19652830D03*
X47324052Y17306176D03*
%TD*%
D67*
%TO.C,C18*%
X-40107178Y-27435114D03*
X-40968312Y-26146336D03*
%TD*%
D68*
%TO.C,R25*%
X11476300Y51059491D03*
X9858004Y51381391D03*
%TD*%
D69*
%TO.C,C28*%
X9516861Y49410066D03*
X11037079Y49107676D03*
%TD*%
D70*
%TO.C,R22*%
X51291393Y9948004D03*
X50969493Y11566300D03*
%TD*%
D71*
%TO.C,C19*%
X-26236337Y-40878311D03*
X-27525115Y-40017177D03*
%TD*%
D72*
%TO.C,U15*%
X50120000Y3250000D03*
D31*
X50120000Y710000D03*
X50120000Y-1830000D03*
%TD*%
D73*
%TO.C,C25*%
X49017676Y11127080D03*
X49320066Y9606862D03*
%TD*%
D37*
%TO.C,R7*%
X-23705000Y-23790000D03*
X-22055000Y-23790000D03*
%TD*%
D74*
%TO.C,R6*%
X24160000Y-115000D03*
X24160000Y1535000D03*
%TD*%
D75*
%TO.C,C14*%
X-27525115Y41437179D03*
X-26236337Y42298313D03*
%TD*%
D54*
%TO.C,R3*%
X18445000Y19760000D03*
X16795000Y19760000D03*
%TD*%
D76*
%TO.C,R15*%
X-10236298Y-49639491D03*
X-8618002Y-49961391D03*
%TD*%
D77*
%TO.C,R18*%
X9858004Y-49961392D03*
X11476300Y-49639492D03*
%TD*%
D78*
%TO.C,R11*%
X-49729490Y11566299D03*
X-50051390Y9948003D03*
%TD*%
D46*
%TO.C,C10*%
X5620000Y-27515000D03*
X5620000Y-29065000D03*
%TD*%
D79*
%TO.C,U3*%
X-1920000Y50210001D03*
D31*
X620000Y50210001D03*
X3160000Y50210001D03*
%TD*%
D80*
%TO.C,C17*%
X-47777677Y-9707079D03*
X-48080067Y-8186861D03*
%TD*%
D81*
%TO.C,R21*%
X50969492Y-10146299D03*
X51291392Y-8528003D03*
%TD*%
D26*
%TO.C,J6*%
X27620000Y13710000D03*
D27*
X27620000Y16210000D03*
X27620000Y18710000D03*
X27620000Y21210000D03*
%TD*%
D53*
%TO.C,C9*%
X-20015000Y4410000D03*
X-18465000Y4410000D03*
%TD*%
D82*
%TO.C,C16*%
X-48080066Y9606862D03*
X-47777676Y11127080D03*
%TD*%
D83*
%TO.C,U8*%
X-44140020Y-20579482D03*
D31*
X-45112036Y-18232828D03*
X-46084052Y-15886174D03*
%TD*%
D84*
%TO.C,R13*%
X-42659028Y-27215904D03*
X-41742338Y-28587828D03*
%TD*%
D85*
%TO.C,R14*%
X-28677828Y-41652340D03*
X-27305904Y-42569030D03*
%TD*%
D86*
%TO.C,U10*%
X-15976175Y-45994051D03*
D31*
X-18322829Y-45022035D03*
X-20669483Y-44050019D03*
%TD*%
M02*
