%TF.GenerationSoftware,KiCad,Pcbnew,8.0.1*%
%TF.CreationDate,2024-07-22T15:22:36+09:00*%
%TF.ProjectId,Main-20240325,4d61696e-2d32-4303-9234-303332352e6b,rev?*%
%TF.SameCoordinates,Original*%
%TF.FileFunction,Paste,Bot*%
%TF.FilePolarity,Positive*%
%FSLAX46Y46*%
G04 Gerber Fmt 4.6, Leading zero omitted, Abs format (unit mm)*
G04 Created by KiCad (PCBNEW 8.0.1) date 2024-07-22 15:22:36*
%MOMM*%
%LPD*%
G01*
G04 APERTURE LIST*
G04 Aperture macros list*
%AMRoundRect*
0 Rectangle with rounded corners*
0 $1 Rounding radius*
0 $2 $3 $4 $5 $6 $7 $8 $9 X,Y pos of 4 corners*
0 Add a 4 corners polygon primitive as box body*
4,1,4,$2,$3,$4,$5,$6,$7,$8,$9,$2,$3,0*
0 Add four circle primitives for the rounded corners*
1,1,$1+$1,$2,$3*
1,1,$1+$1,$4,$5*
1,1,$1+$1,$6,$7*
1,1,$1+$1,$8,$9*
0 Add four rect primitives between the rounded corners*
20,1,$1+$1,$2,$3,$4,$5,0*
20,1,$1+$1,$4,$5,$6,$7,0*
20,1,$1+$1,$6,$7,$8,$9,0*
20,1,$1+$1,$8,$9,$2,$3,0*%
G04 Aperture macros list end*
%ADD10RoundRect,0.225000X0.017678X-0.335876X0.335876X-0.017678X-0.017678X0.335876X-0.335876X0.017678X0*%
%ADD11RoundRect,0.225000X-0.112202X-0.317074X0.303544X-0.144866X0.112202X0.317074X-0.303544X0.144866X0*%
%ADD12RoundRect,0.200000X0.335876X0.053033X0.053033X0.335876X-0.335876X-0.053033X-0.053033X-0.335876X0*%
%ADD13RoundRect,0.225000X0.225000X0.250000X-0.225000X0.250000X-0.225000X-0.250000X0.225000X-0.250000X0*%
%ADD14RoundRect,0.200000X-0.079538X-0.330604X0.290014X-0.177530X0.079538X0.330604X-0.290014X0.177530X0*%
%ADD15RoundRect,0.200000X0.200000X0.275000X-0.200000X0.275000X-0.200000X-0.275000X0.200000X-0.275000X0*%
%ADD16RoundRect,0.200000X-0.177530X0.290014X-0.330604X-0.079538X0.177530X-0.290014X0.330604X0.079538X0*%
%ADD17RoundRect,0.200000X-0.330604X0.079538X-0.177530X-0.290014X0.330604X-0.079538X0.177530X0.290014X0*%
%ADD18RoundRect,0.225000X-0.335876X-0.017678X-0.017678X-0.335876X0.335876X0.017678X0.017678X0.335876X0*%
%ADD19RoundRect,0.225000X-0.225000X-0.250000X0.225000X-0.250000X0.225000X0.250000X-0.225000X0.250000X0*%
%ADD20RoundRect,0.200000X0.275000X-0.200000X0.275000X0.200000X-0.275000X0.200000X-0.275000X-0.200000X0*%
%ADD21RoundRect,0.200000X-0.275000X0.200000X-0.275000X-0.200000X0.275000X-0.200000X0.275000X0.200000X0*%
%ADD22RoundRect,0.200000X-0.335876X-0.053033X-0.053033X-0.335876X0.335876X0.053033X0.053033X0.335876X0*%
%ADD23RoundRect,0.200000X-0.053033X0.335876X-0.335876X0.053033X0.053033X-0.335876X0.335876X-0.053033X0*%
%ADD24RoundRect,0.225000X0.317074X-0.112202X0.144866X0.303544X-0.317074X0.112202X-0.144866X-0.303544X0*%
%ADD25RoundRect,0.225000X0.144866X-0.303544X0.317074X0.112202X-0.144866X0.303544X-0.317074X-0.112202X0*%
%ADD26RoundRect,0.225000X0.303544X0.144866X-0.112202X0.317074X-0.303544X-0.144866X0.112202X-0.317074X0*%
%ADD27RoundRect,0.225000X0.335876X0.017678X0.017678X0.335876X-0.335876X-0.017678X-0.017678X-0.335876X0*%
%ADD28RoundRect,0.250000X0.475000X-0.250000X0.475000X0.250000X-0.475000X0.250000X-0.475000X-0.250000X0*%
%ADD29RoundRect,0.225000X0.112202X0.317074X-0.303544X0.144866X-0.112202X-0.317074X0.303544X-0.144866X0*%
%ADD30R,0.600000X1.500000*%
%ADD31R,2.300000X2.600000*%
%ADD32RoundRect,0.200000X-0.290014X-0.177530X0.079538X-0.330604X0.290014X0.177530X-0.079538X0.330604X0*%
%ADD33RoundRect,0.225000X-0.303544X-0.144866X0.112202X-0.317074X0.303544X0.144866X-0.112202X0.317074X0*%
%ADD34RoundRect,0.200000X0.330604X-0.079538X0.177530X0.290014X-0.330604X0.079538X-0.177530X-0.290014X0*%
%ADD35RoundRect,0.200000X-0.200000X-0.275000X0.200000X-0.275000X0.200000X0.275000X-0.200000X0.275000X0*%
%ADD36RoundRect,0.200000X0.079538X0.330604X-0.290014X0.177530X-0.079538X-0.330604X0.290014X-0.177530X0*%
%ADD37RoundRect,0.225000X-0.144866X0.303544X-0.317074X-0.112202X0.144866X-0.303544X0.317074X0.112202X0*%
%ADD38RoundRect,0.225000X-0.017678X0.335876X-0.335876X0.017678X0.017678X-0.335876X0.335876X-0.017678X0*%
%ADD39RoundRect,0.225000X-0.317074X0.112202X-0.144866X-0.303544X0.317074X-0.112202X0.144866X0.303544X0*%
%ADD40RoundRect,0.225000X-0.250000X0.225000X-0.250000X-0.225000X0.250000X-0.225000X0.250000X0.225000X0*%
%ADD41RoundRect,0.225000X0.250000X-0.225000X0.250000X0.225000X-0.250000X0.225000X-0.250000X-0.225000X0*%
%ADD42RoundRect,0.200000X0.290014X0.177530X-0.079538X0.330604X-0.290014X-0.177530X0.079538X-0.330604X0*%
%ADD43RoundRect,0.200000X0.177530X-0.290014X0.330604X0.079538X-0.177530X0.290014X-0.330604X-0.079538X0*%
%ADD44RoundRect,0.200000X0.053033X-0.335876X0.335876X-0.053033X-0.053033X0.335876X-0.335876X0.053033X0*%
G04 APERTURE END LIST*
D10*
%TO.C,C5*%
X-30600045Y34453777D03*
X-29504029Y35549793D03*
%TD*%
D11*
%TO.C,C4*%
X-15085866Y43541270D03*
X-13653852Y44134430D03*
%TD*%
D12*
%TO.C,R12*%
X-29468674Y-35585148D03*
X-30635400Y-34418422D03*
%TD*%
D13*
%TO.C,C11*%
X-2725000Y-46000000D03*
X-4275000Y-46000000D03*
%TD*%
D14*
%TO.C,R7*%
X-21599216Y40843352D03*
X-20074814Y41474780D03*
%TD*%
D15*
%TO.C,R2*%
X37575000Y-21050000D03*
X35925000Y-21050000D03*
%TD*%
D16*
%TO.C,R17*%
X44153564Y-13607658D03*
X43522136Y-15132060D03*
%TD*%
D15*
%TO.C,R1*%
X37620000Y-16500000D03*
X35970000Y-16500000D03*
%TD*%
D17*
%TO.C,R19*%
X40843352Y21599216D03*
X41474780Y20074814D03*
%TD*%
D18*
%TO.C,C17*%
X34453777Y30600045D03*
X35549793Y29504029D03*
%TD*%
D19*
%TO.C,C3*%
X2725000Y46000000D03*
X4275000Y46000000D03*
%TD*%
D20*
%TO.C,R4*%
X11560000Y13000000D03*
X11560000Y14650000D03*
%TD*%
D21*
%TO.C,R3*%
X11560000Y18825000D03*
X11560000Y17175000D03*
%TD*%
D22*
%TO.C,R20*%
X29468674Y35585148D03*
X30635400Y34418422D03*
%TD*%
D23*
%TO.C,R16*%
X35585148Y-29468674D03*
X34418422Y-30635400D03*
%TD*%
D24*
%TO.C,C8*%
X-43541270Y-15085866D03*
X-44134430Y-13653852D03*
%TD*%
D25*
%TO.C,C6*%
X-41455646Y20121008D03*
X-40862486Y21553022D03*
%TD*%
D26*
%TO.C,C10*%
X-20121008Y-41455646D03*
X-21553022Y-40862486D03*
%TD*%
D27*
%TO.C,C9*%
X-34453777Y-30600045D03*
X-35549793Y-29504029D03*
%TD*%
D28*
%TO.C,C1*%
X-10200000Y-23460000D03*
X-10200000Y-21560000D03*
%TD*%
D29*
%TO.C,C12*%
X15085866Y-43541270D03*
X13653852Y-44134430D03*
%TD*%
D30*
%TO.C,J3*%
X7000000Y-31750000D03*
X6000000Y-31750000D03*
X5000000Y-31750000D03*
X4000000Y-31750000D03*
X3000000Y-31750000D03*
X2000000Y-31750000D03*
X1000000Y-31750000D03*
X0Y-31750000D03*
X-1000000Y-31750000D03*
X-2000000Y-31750000D03*
X-3000000Y-31750000D03*
X-4000000Y-31750000D03*
X-5000000Y-31750000D03*
X-6000000Y-31750000D03*
X-7000000Y-31750000D03*
D31*
X9650000Y-34500000D03*
X-9650000Y-34500000D03*
%TD*%
D32*
%TO.C,R21*%
X13607658Y44153564D03*
X15132060Y43522136D03*
%TD*%
D33*
%TO.C,C18*%
X20121008Y41455646D03*
X21553022Y40862486D03*
%TD*%
D34*
%TO.C,R11*%
X-40843352Y-21599216D03*
X-41474780Y-20074814D03*
%TD*%
D35*
%TO.C,R6*%
X-4325000Y46000000D03*
X-2675000Y46000000D03*
%TD*%
D36*
%TO.C,R15*%
X21599216Y-40843352D03*
X20074814Y-41474780D03*
%TD*%
D21*
%TO.C,R18*%
X46000000Y4325000D03*
X46000000Y2675000D03*
%TD*%
D37*
%TO.C,C14*%
X41455646Y-20121008D03*
X40862486Y-21553022D03*
%TD*%
D15*
%TO.C,R14*%
X4325000Y-46000000D03*
X2675000Y-46000000D03*
%TD*%
D38*
%TO.C,C13*%
X30600045Y-34453777D03*
X29504029Y-35549793D03*
%TD*%
D39*
%TO.C,C16*%
X43541270Y15085866D03*
X44134430Y13653852D03*
%TD*%
D40*
%TO.C,C15*%
X46000000Y-2725000D03*
X46000000Y-4275000D03*
%TD*%
D28*
%TO.C,C2*%
X-14350000Y-33750000D03*
X-14350000Y-31850000D03*
%TD*%
D20*
%TO.C,R10*%
X-46000000Y-4325000D03*
X-46000000Y-2675000D03*
%TD*%
D41*
%TO.C,C7*%
X-46000000Y2725000D03*
X-46000000Y4275000D03*
%TD*%
D42*
%TO.C,R13*%
X-13607658Y-44153564D03*
X-15132060Y-43522136D03*
%TD*%
D43*
%TO.C,R9*%
X-44153564Y13607658D03*
X-43522136Y15132060D03*
%TD*%
D44*
%TO.C,R8*%
X-35585148Y29468674D03*
X-34418422Y30635400D03*
%TD*%
M02*
