%TF.GenerationSoftware,KiCad,Pcbnew,8.0.1*%
%TF.CreationDate,2024-11-12T23:52:01+09:00*%
%TF.ProjectId,Main-20240325,4d61696e-2d32-4303-9234-303332352e6b,rev?*%
%TF.SameCoordinates,Original*%
%TF.FileFunction,Legend,Bot*%
%TF.FilePolarity,Positive*%
%FSLAX46Y46*%
G04 Gerber Fmt 4.6, Leading zero omitted, Abs format (unit mm)*
G04 Created by KiCad (PCBNEW 8.0.1) date 2024-11-12 23:52:01*
%MOMM*%
%LPD*%
G01*
G04 APERTURE LIST*
G04 Aperture macros list*
%AMRoundRect*
0 Rectangle with rounded corners*
0 $1 Rounding radius*
0 $2 $3 $4 $5 $6 $7 $8 $9 X,Y pos of 4 corners*
0 Add a 4 corners polygon primitive as box body*
4,1,4,$2,$3,$4,$5,$6,$7,$8,$9,$2,$3,0*
0 Add four circle primitives for the rounded corners*
1,1,$1+$1,$2,$3*
1,1,$1+$1,$4,$5*
1,1,$1+$1,$6,$7*
1,1,$1+$1,$8,$9*
0 Add four rect primitives between the rounded corners*
20,1,$1+$1,$2,$3,$4,$5,0*
20,1,$1+$1,$4,$5,$6,$7,0*
20,1,$1+$1,$6,$7,$8,$9,0*
20,1,$1+$1,$8,$9,$2,$3,0*%
%AMHorizOval*
0 Thick line with rounded ends*
0 $1 width*
0 $2 $3 position (X,Y) of the first rounded end (center of the circle)*
0 $4 $5 position (X,Y) of the second rounded end (center of the circle)*
0 Add line between two ends*
20,1,$1,$2,$3,$4,$5,0*
0 Add two circle primitives to create the rounded ends*
1,1,$1,$2,$3*
1,1,$1,$4,$5*%
G04 Aperture macros list end*
%ADD10C,0.120000*%
%ADD11C,0.100000*%
%ADD12C,0.775000*%
%ADD13C,3.200000*%
%ADD14O,2.000000X2.700000*%
%ADD15O,2.000000X1.200000*%
%ADD16R,2.000000X1.200000*%
%ADD17C,2.000000*%
%ADD18R,1.800000X1.800000*%
%ADD19O,1.800000X1.800000*%
%ADD20R,1.700000X1.700000*%
%ADD21O,1.700000X1.700000*%
%ADD22O,1.200000X2.000000*%
%ADD23R,1.600000X1.600000*%
%ADD24C,1.600000*%
%ADD25R,1.524000X1.524000*%
%ADD26C,1.524000*%
%ADD27RoundRect,0.250000X0.725000X-0.600000X0.725000X0.600000X-0.725000X0.600000X-0.725000X-0.600000X0*%
%ADD28O,1.950000X1.700000*%
%ADD29RoundRect,0.200000X-0.013512X-0.339768X0.319076X-0.117540X0.013512X0.339768X-0.319076X0.117540X0*%
%ADD30RoundRect,0.200000X0.117540X-0.319076X0.339768X0.013512X-0.117540X0.319076X-0.339768X-0.013512X0*%
%ADD31RoundRect,0.250200X0.649800X0.649800X-0.649800X0.649800X-0.649800X-0.649800X0.649800X-0.649800X0*%
%ADD32C,1.800000*%
%ADD33RoundRect,0.200000X0.013512X0.339768X-0.319076X0.117540X-0.013512X-0.339768X0.319076X-0.117540X0*%
%ADD34RoundRect,0.250200X-0.351669X0.849005X-0.849005X-0.351669X0.351669X-0.849005X0.849005X0.351669X0*%
%ADD35HorizOval,1.400000X0.305564X-0.457308X-0.305564X0.457308X0*%
%ADD36RoundRect,0.200000X-0.308734X0.142507X-0.230698X-0.249807X0.308734X-0.142507X0.230698X0.249807X0*%
%ADD37R,0.600000X1.500000*%
%ADD38R,2.300000X2.600000*%
%ADD39RoundRect,0.250200X0.649800X-0.649800X0.649800X0.649800X-0.649800X0.649800X-0.649800X-0.649800X0*%
%ADD40RoundRect,0.200000X-0.200000X-0.275000X0.200000X-0.275000X0.200000X0.275000X-0.200000X0.275000X0*%
%ADD41RoundRect,0.225000X0.269449X0.201301X-0.171904X0.289092X-0.269449X-0.201301X0.171904X-0.289092X0*%
%ADD42RoundRect,0.250200X-0.849005X-0.351669X0.351669X-0.849005X0.849005X0.351669X-0.351669X0.849005X0*%
%ADD43RoundRect,0.200000X-0.117540X0.319076X-0.339768X-0.013512X0.117540X-0.319076X0.339768X0.013512X0*%
%ADD44RoundRect,0.250200X0.918956X0.000000X0.000000X0.918956X-0.918956X0.000000X0.000000X-0.918956X0*%
%ADD45RoundRect,0.250200X0.000000X-0.918956X0.918956X0.000000X0.000000X0.918956X-0.918956X0.000000X0*%
%ADD46RoundRect,0.225000X-0.171904X-0.289092X0.269449X-0.201301X0.171904X0.289092X-0.269449X0.201301X0*%
%ADD47RoundRect,0.200000X0.319076X0.117540X-0.013512X0.339768X-0.319076X-0.117540X0.013512X-0.339768X0*%
%ADD48RoundRect,0.225000X0.048188X0.332871X-0.325973X0.082864X-0.048188X-0.332871X0.325973X-0.082864X0*%
%ADD49RoundRect,0.225000X0.250000X-0.225000X0.250000X0.225000X-0.250000X0.225000X-0.250000X-0.225000X0*%
%ADD50RoundRect,0.200000X0.142507X0.308734X-0.249807X0.230698X-0.142507X-0.308734X0.249807X-0.230698X0*%
%ADD51RoundRect,0.225000X-0.250000X0.225000X-0.250000X-0.225000X0.250000X-0.225000X0.250000X0.225000X0*%
%ADD52RoundRect,0.250200X0.000000X0.918956X-0.918956X0.000000X0.000000X-0.918956X0.918956X0.000000X0*%
%ADD53RoundRect,0.250200X-0.918956X0.000000X0.000000X-0.918956X0.918956X0.000000X0.000000X0.918956X0*%
%ADD54RoundRect,0.225000X0.225000X0.250000X-0.225000X0.250000X-0.225000X-0.250000X0.225000X-0.250000X0*%
%ADD55RoundRect,0.225000X0.171904X0.289092X-0.269449X0.201301X-0.171904X-0.289092X0.269449X-0.201301X0*%
%ADD56RoundRect,0.225000X-0.225000X-0.250000X0.225000X-0.250000X0.225000X0.250000X-0.225000X0.250000X0*%
%ADD57RoundRect,0.200000X0.200000X0.275000X-0.200000X0.275000X-0.200000X-0.275000X0.200000X-0.275000X0*%
%ADD58RoundRect,0.225000X0.082864X-0.325973X0.332871X0.048188X-0.082864X0.325973X-0.332871X-0.048188X0*%
%ADD59RoundRect,0.225000X-0.332871X0.048188X-0.082864X-0.325973X0.332871X-0.048188X0.082864X0.325973X0*%
%ADD60RoundRect,0.200000X0.339768X-0.013512X0.117540X0.319076X-0.339768X0.013512X-0.117540X-0.319076X0*%
%ADD61RoundRect,0.225000X-0.082864X0.325973X-0.332871X-0.048188X0.082864X-0.325973X0.332871X0.048188X0*%
%ADD62RoundRect,0.225000X-0.325973X-0.082864X0.048188X-0.332871X0.325973X0.082864X-0.048188X0.332871X0*%
%ADD63RoundRect,0.250200X-0.351669X-0.849005X0.849005X-0.351669X0.351669X0.849005X-0.849005X0.351669X0*%
%ADD64RoundRect,0.250000X-0.936158X0.096093X-0.269473X-0.901670X0.936158X-0.096093X0.269473X0.901670X0*%
%ADD65HorizOval,1.700000X-0.103934X-0.069446X0.103934X0.069446X0*%
%ADD66RoundRect,0.250200X0.351669X0.849005X-0.849005X0.351669X-0.351669X-0.849005X0.849005X-0.351669X0*%
%ADD67RoundRect,0.250200X0.351669X-0.849005X0.849005X0.351669X-0.351669X0.849005X-0.849005X-0.351669X0*%
%ADD68RoundRect,0.225000X-0.201301X0.269449X-0.289092X-0.171904X0.201301X-0.269449X0.289092X0.171904X0*%
%ADD69RoundRect,0.250200X-0.849005X0.351669X-0.351669X-0.849005X0.849005X-0.351669X0.351669X0.849005X0*%
%ADD70RoundRect,0.225000X0.332871X-0.048188X0.082864X0.325973X-0.332871X0.048188X-0.082864X-0.325973X0*%
%ADD71RoundRect,0.200000X0.249807X0.230698X-0.142507X0.308734X-0.249807X-0.230698X0.142507X-0.308734X0*%
%ADD72RoundRect,0.225000X-0.269449X-0.201301X0.171904X-0.289092X0.269449X0.201301X-0.171904X0.289092X0*%
%ADD73RoundRect,0.200000X0.308734X-0.142507X0.230698X0.249807X-0.308734X0.142507X-0.230698X-0.249807X0*%
%ADD74RoundRect,0.225000X0.325973X0.082864X-0.048188X0.332871X-0.325973X-0.082864X0.048188X-0.332871X0*%
%ADD75RoundRect,0.250200X-0.649800X0.649800X-0.649800X-0.649800X0.649800X-0.649800X0.649800X0.649800X0*%
%ADD76RoundRect,0.225000X-0.289092X0.171904X-0.201301X-0.269449X0.289092X-0.171904X0.201301X0.269449X0*%
%ADD77RoundRect,0.200000X0.275000X-0.200000X0.275000X0.200000X-0.275000X0.200000X-0.275000X-0.200000X0*%
%ADD78RoundRect,0.225000X-0.048188X-0.332871X0.325973X-0.082864X0.048188X0.332871X-0.325973X0.082864X0*%
%ADD79RoundRect,0.200000X-0.249807X-0.230698X0.142507X-0.308734X0.249807X0.230698X-0.142507X0.308734X0*%
%ADD80RoundRect,0.200000X-0.142507X-0.308734X0.249807X-0.230698X0.142507X0.308734X-0.249807X0.230698X0*%
%ADD81RoundRect,0.200000X-0.230698X0.249807X-0.308734X-0.142507X0.230698X-0.249807X0.308734X0.142507X0*%
%ADD82RoundRect,0.250200X-0.649800X-0.649800X0.649800X-0.649800X0.649800X0.649800X-0.649800X0.649800X0*%
%ADD83RoundRect,0.225000X0.289092X-0.171904X0.201301X0.269449X-0.289092X0.171904X-0.201301X-0.269449X0*%
%ADD84RoundRect,0.200000X0.230698X-0.249807X0.308734X0.142507X-0.230698X0.249807X-0.308734X-0.142507X0*%
%ADD85RoundRect,0.225000X0.201301X-0.269449X0.289092X0.171904X-0.201301X0.269449X-0.289092X-0.171904X0*%
%ADD86RoundRect,0.250200X0.849005X-0.351669X0.351669X0.849005X-0.849005X0.351669X-0.351669X-0.849005X0*%
%ADD87RoundRect,0.200000X-0.339768X0.013512X-0.117540X-0.319076X0.339768X-0.013512X0.117540X0.319076X0*%
%ADD88RoundRect,0.200000X-0.319076X-0.117540X0.013512X-0.339768X0.319076X0.117540X-0.013512X0.339768X0*%
%ADD89RoundRect,0.250200X0.849005X0.351669X-0.351669X0.849005X-0.849005X-0.351669X0.351669X-0.849005X0*%
G04 APERTURE END LIST*
D10*
%TO.C,J7*%
X-40485000Y13810000D02*
X-40485000Y-13810000D01*
X-40485000Y-13810000D02*
X-34515000Y-13810000D01*
X-39725000Y13050000D02*
X-36775000Y13050000D01*
X-39725000Y0D02*
X-39725000Y13050000D01*
X-39725000Y0D02*
X-39725000Y-13050000D01*
X-39725000Y-13050000D02*
X-36775000Y-13050000D01*
X-36775000Y13050000D02*
X-36775000Y13800000D01*
X-36775000Y-13050000D02*
X-36775000Y-13800000D01*
X-35475000Y-14100000D02*
X-34225000Y-14100000D01*
X-35275000Y13800000D02*
X-35275000Y12000000D01*
X-35275000Y12000000D02*
X-34525000Y12000000D01*
X-35275000Y10500000D02*
X-35275000Y-10500000D01*
X-35275000Y-10500000D02*
X-34525000Y-10500000D01*
X-35275000Y-12000000D02*
X-35275000Y-13800000D01*
X-35275000Y-13800000D02*
X-34525000Y-13800000D01*
X-34525000Y13800000D02*
X-35275000Y13800000D01*
X-34525000Y12000000D02*
X-34525000Y13800000D01*
X-34525000Y10500000D02*
X-35275000Y10500000D01*
X-34525000Y-10500000D02*
X-34525000Y10500000D01*
X-34525000Y-12000000D02*
X-35275000Y-12000000D01*
X-34525000Y-13800000D02*
X-34525000Y-12000000D01*
X-34515000Y13810000D02*
X-40485000Y13810000D01*
X-34515000Y-13810000D02*
X-34515000Y13810000D01*
X-34225000Y-14100000D02*
X-34225000Y-12850000D01*
%TO.C,R19*%
X28518854Y-42254428D02*
X28124309Y-42518055D01*
X29099425Y-43123313D02*
X28704880Y-43386940D01*
%TO.C,R20*%
X42518057Y-28124309D02*
X42254430Y-28518854D01*
X43386942Y-28704880D02*
X43123315Y-29099425D01*
%TO.C,U11*%
X-2600000Y-47989999D02*
X-2600000Y-48339999D01*
X-2600000Y-50999999D02*
X-2600000Y-50659999D01*
X0Y-47989999D02*
X-2600000Y-47989999D01*
X2490000Y-50999999D02*
X-2600000Y-50999999D01*
X2099917Y-51001735D02*
G75*
G02*
X-2100000Y-50999999I-2099917J101737D01*
G01*
%TO.C,R9*%
X-29099423Y43123313D02*
X-28704878Y43386940D01*
X-28518852Y42254428D02*
X-28124307Y42518055D01*
%TO.C,U14*%
X43342001Y-20767063D02*
X43665359Y-20901002D01*
X44336978Y-18364976D02*
X43342001Y-20767063D01*
X46122878Y-21918940D02*
X45808759Y-21788828D01*
X48070737Y-17216393D02*
X46122878Y-21918940D01*
X47923063Y-17577448D02*
G75*
G02*
X46314220Y-21457001I-897598J-1901136D01*
G01*
D11*
%TO.C,SW1*%
X-27616310Y-23341561D02*
X-34384472Y-27863903D01*
X-38901258Y-21104055D01*
X-32133096Y-16581713D01*
X-27616310Y-23341561D01*
D10*
%TO.C,R12*%
X-50976615Y-10381785D02*
X-51069188Y-9916387D01*
X-49951694Y-10177915D02*
X-50044267Y-9712517D01*
D11*
%TO.C,J5*%
X-11000000Y-40250000D02*
X11000000Y-40250000D01*
X-11000000Y-41250000D02*
X-11000000Y-38550000D01*
X-11000000Y-41250000D02*
X11000000Y-41250000D01*
X-8500000Y-35950000D02*
X8500000Y-35950000D01*
X11000000Y-41250000D02*
X11000000Y-38550000D01*
D10*
%TO.C,U7*%
X-51000000Y2600001D02*
X-50660000Y2600001D01*
X-51000000Y-2489999D02*
X-51000000Y2600001D01*
X-47990000Y2600001D02*
X-48340000Y2600001D01*
X-47990000Y1D02*
X-47990000Y2600001D01*
X-51001736Y-2099916D02*
G75*
G02*
X-51000000Y2100001I101737J2099917D01*
G01*
%TO.C,R5*%
X-23262742Y-27477500D02*
X-23737258Y-27477500D01*
X-23262742Y-28522500D02*
X-23737258Y-28522500D01*
%TO.C,C20*%
X-9894346Y-49021647D02*
X-9618588Y-49076498D01*
X-9695354Y-48021246D02*
X-9419596Y-48076097D01*
%TO.C,U18*%
X17216394Y48070738D02*
X21918941Y46122879D01*
X18364977Y44336979D02*
X20767064Y43342002D01*
X20767064Y43342002D02*
X20901003Y43665360D01*
X21918941Y46122879D02*
X21788829Y45808760D01*
X17577449Y47923064D02*
G75*
G02*
X21457002Y46314221I1901136J-897598D01*
G01*
%TO.C,R10*%
X-43386940Y28704880D02*
X-43123313Y29099425D01*
X-42518055Y28124309D02*
X-42254428Y28518854D01*
%TO.C,U9*%
X-37900923Y-34223967D02*
X-37660506Y-33983550D01*
X-35772531Y-32095575D02*
X-36020019Y-32343063D01*
X-34301749Y-37823140D02*
X-37900923Y-34223967D01*
X-33934054Y-33934053D02*
X-35772531Y-32095575D01*
X-34578808Y-37548536D02*
G75*
G02*
X-37547369Y-34577520I-1412926J1556803D01*
G01*
%TO.C,U5*%
X-37823141Y34301750D02*
X-34223968Y37900924D01*
X-34223968Y37900924D02*
X-33983551Y37660507D01*
X-33934054Y33934055D02*
X-32095576Y35772532D01*
X-32095576Y35772532D02*
X-32343064Y36020020D01*
X-37548537Y34578809D02*
G75*
G02*
X-34577521Y37547370I1556803J1412926D01*
G01*
%TO.C,C13*%
X-9618588Y49076498D02*
X-9894346Y49021647D01*
X-9419596Y48076097D02*
X-9695354Y48021246D01*
%TO.C,R24*%
X28124310Y42518056D02*
X28518855Y42254429D01*
X28704881Y43386941D02*
X29099426Y43123314D01*
%TO.C,C22*%
X27100496Y-40811797D02*
X27334272Y-40655592D01*
X27667178Y-41659896D02*
X27900954Y-41503691D01*
%TO.C,C11*%
X-14220000Y8915580D02*
X-14220000Y8634420D01*
X-13200000Y8915580D02*
X-13200000Y8634420D01*
%TO.C,R8*%
X-10381785Y50976616D02*
X-9916387Y51069189D01*
X-10177915Y49951695D02*
X-9712517Y50044268D01*
%TO.C,C3*%
X-10880000Y-28294420D02*
X-10880000Y-28575580D01*
X-9860000Y-28294420D02*
X-9860000Y-28575580D01*
%TO.C,C12*%
X-3050000Y39859420D02*
X-3050000Y40140580D01*
X-2030000Y39859420D02*
X-2030000Y40140580D01*
%TO.C,U13*%
X32095576Y-35772530D02*
X32343064Y-36020018D01*
X33934054Y-33934053D02*
X32095576Y-35772530D01*
X34223968Y-37900922D02*
X33983551Y-37660505D01*
X37823141Y-34301748D02*
X34223968Y-37900922D01*
X37548537Y-34578807D02*
G75*
G02*
X34577521Y-37547368I-1556803J-1412926D01*
G01*
%TO.C,U17*%
X33934054Y33934055D02*
X35772531Y32095577D01*
X34301749Y37823142D02*
X37900923Y34223969D01*
X35772531Y32095577D02*
X36020019Y32343065D01*
X37900923Y34223969D02*
X37660506Y33983552D01*
X34578808Y37548538D02*
G75*
G02*
X37547369Y34577522I1412926J-1556803D01*
G01*
%TO.C,C7*%
X-17300580Y-18990000D02*
X-17019420Y-18990000D01*
X-17300580Y-20010000D02*
X-17019420Y-20010000D01*
%TO.C,C21*%
X9419596Y-48076095D02*
X9695354Y-48021244D01*
X9618588Y-49076496D02*
X9894346Y-49021645D01*
%TO.C,C8*%
X-32970000Y-10334420D02*
X-32970000Y-10615580D01*
X-31950000Y-10334420D02*
X-31950000Y-10615580D01*
%TO.C,C4*%
X17140580Y24640000D02*
X16859420Y24640000D01*
X17140580Y23620000D02*
X16859420Y23620000D01*
%TO.C,R16*%
X16762742Y-16477500D02*
X17237258Y-16477500D01*
X16762742Y-17522500D02*
X17237258Y-17522500D01*
%TO.C,C15*%
X-41503692Y27900956D02*
X-41659897Y27667180D01*
X-40655593Y27334274D02*
X-40811798Y27100498D01*
%TO.C,C26*%
X40811798Y27100497D02*
X40655593Y27334273D01*
X41659897Y27667179D02*
X41503692Y27900955D01*
%TO.C,R23*%
X42254429Y28518853D02*
X42518056Y28124308D01*
X43123314Y29099424D02*
X43386941Y28704879D01*
%TO.C,R17*%
X16762742Y-21977500D02*
X17237258Y-21977500D01*
X16762742Y-23022500D02*
X17237258Y-23022500D01*
%TO.C,C6*%
X31030000Y18890580D02*
X31030000Y18609420D01*
X32050000Y18890580D02*
X32050000Y18609420D01*
%TO.C,C23*%
X40655593Y-27334272D02*
X40811798Y-27100496D01*
X41503692Y-27900954D02*
X41659897Y-27667178D01*
%TO.C,C27*%
X27334273Y40655594D02*
X27100497Y40811799D01*
X27900955Y41503693D02*
X27667179Y41659898D01*
%TO.C,U4*%
X-21817314Y46164975D02*
X-17114767Y48112833D01*
X-18364977Y44336979D02*
X-15962890Y45331956D01*
X-17114767Y48112833D02*
X-16984655Y47798714D01*
X-15962890Y45331956D02*
X-16096829Y45655314D01*
X-21457589Y46315857D02*
G75*
G02*
X-17576707Y47921492I1979004J709610D01*
G01*
%TO.C,J1*%
X-31865871Y-14857704D02*
X-31171408Y-15897041D01*
X-31463629Y-14937715D02*
X-25841258Y-23352187D01*
X-31449759Y-14940474D02*
X-30449732Y-16437119D01*
X-30826534Y-14163241D02*
X-31865871Y-14857704D01*
X-30826156Y-14523796D02*
X-31449759Y-14940474D01*
X-30449732Y-16437119D02*
X-29826130Y-16020441D01*
X-29826130Y-16020441D02*
X-30826156Y-14523796D01*
X-29616377Y-17684323D02*
X-27671881Y-20594467D01*
X-29162274Y-14314043D02*
X-29578952Y-13690441D01*
X-28992775Y-17267646D02*
X-29616377Y-17684323D01*
X-27671881Y-20594467D02*
X-27048279Y-20177789D01*
X-27048279Y-20177789D02*
X-28992775Y-17267646D01*
X-26838526Y-21841671D02*
X-25838499Y-23338317D01*
X-26709439Y-12675111D02*
X-29162274Y-14314043D01*
X-26499755Y-11620960D02*
X-31463629Y-14937715D01*
X-26214924Y-21424994D02*
X-26838526Y-21841671D01*
X-25841258Y-23352187D02*
X-20877385Y-20035433D01*
X-25838499Y-23338317D02*
X-25214897Y-22921639D01*
X-25214897Y-22921639D02*
X-26214924Y-21424994D01*
X-24384370Y-21464681D02*
X-23967693Y-22088284D01*
X-24320487Y-16250430D02*
X-26709439Y-12675111D01*
X-24320487Y-16250430D02*
X-21931535Y-19825749D01*
X-21931535Y-19825749D02*
X-24384370Y-21464681D01*
X-20877385Y-20035433D02*
X-26499755Y-11620960D01*
%TO.C,U12*%
X15962890Y-45331954D02*
X16096829Y-45655312D01*
X17114767Y-48112831D02*
X16984655Y-47798712D01*
X18364977Y-44336977D02*
X15962890Y-45331954D01*
X21817314Y-46164973D02*
X17114767Y-48112831D01*
X21457589Y-46315855D02*
G75*
G02*
X17576707Y-47921490I-1979004J-709610D01*
G01*
%TO.C,R4*%
X16762742Y17032500D02*
X17237258Y17032500D01*
X16762742Y15987500D02*
X17237258Y15987500D01*
%TO.C,U6*%
X-48070737Y17216395D02*
X-46122878Y21918942D01*
X-46122878Y21918942D02*
X-45808759Y21788830D01*
X-44336978Y18364978D02*
X-43342001Y20767065D01*
X-43342001Y20767065D02*
X-43665359Y20901004D01*
X-47923063Y17577450D02*
G75*
G02*
X-46314220Y21457003I897598J1901136D01*
G01*
%TO.C,C5*%
X28105000Y-140580D02*
X28105000Y140580D01*
X29125000Y-140580D02*
X29125000Y140580D01*
%TO.C,C24*%
X48021244Y-9695352D02*
X48076095Y-9419594D01*
X49021645Y-9894344D02*
X49076496Y-9618586D01*
%TO.C,U16*%
X44336978Y18364978D02*
X45331955Y15962891D01*
X45331955Y15962891D02*
X45655313Y16096830D01*
X46164974Y21817315D02*
X48112832Y17114768D01*
X48112832Y17114768D02*
X47798713Y16984656D01*
X46315856Y21457590D02*
G75*
G02*
X47921491Y17576708I709610J-1979004D01*
G01*
%TO.C,C18*%
X-41659897Y-27667178D02*
X-41503692Y-27900954D01*
X-40811798Y-27100496D02*
X-40655593Y-27334272D01*
%TO.C,R25*%
X9712518Y50044267D02*
X10177916Y49951694D01*
X9916388Y51069188D02*
X10381786Y50976615D01*
%TO.C,C28*%
X9695353Y48021245D02*
X9419595Y48076096D01*
X9894345Y49021646D02*
X9618587Y49076497D01*
%TO.C,R22*%
X49951696Y10177916D02*
X50044269Y9712518D01*
X50976617Y10381786D02*
X51069190Y9916388D01*
%TO.C,C19*%
X-27900955Y-41503691D02*
X-27667179Y-41659896D01*
X-27334273Y-40655592D02*
X-27100497Y-40811797D01*
%TO.C,U15*%
X47990000Y0D02*
X47990000Y-2600000D01*
X47990000Y-2600000D02*
X48340000Y-2600000D01*
X51000000Y2490000D02*
X51000000Y-2600000D01*
X51000000Y-2600000D02*
X50660000Y-2600000D01*
X51001736Y2099917D02*
G75*
G02*
X51000000Y-2100000I-101737J-2099917D01*
G01*
%TO.C,C25*%
X48076096Y9419596D02*
X48021245Y9695354D01*
X49076497Y9618588D02*
X49021646Y9894346D01*
%TO.C,R7*%
X-23262742Y-23977500D02*
X-23737258Y-23977500D01*
X-23262742Y-25022500D02*
X-23737258Y-25022500D01*
%TO.C,R6*%
X23017500Y237258D02*
X23017500Y-237258D01*
X24062500Y237258D02*
X24062500Y-237258D01*
%TO.C,C14*%
X-27667179Y41659898D02*
X-27900955Y41503693D01*
X-27100497Y40811799D02*
X-27334273Y40655594D01*
%TO.C,R3*%
X16762742Y19572500D02*
X17237258Y19572500D01*
X16762742Y18527500D02*
X17237258Y18527500D01*
%TO.C,R15*%
X-9916386Y-51069188D02*
X-10381784Y-50976615D01*
X-9712516Y-50044267D02*
X-10177914Y-49951694D01*
%TO.C,R18*%
X10177916Y-49951695D02*
X9712518Y-50044268D01*
X10381786Y-50976616D02*
X9916388Y-51069189D01*
%TO.C,R11*%
X-51069187Y9916387D02*
X-50976614Y10381785D01*
X-50044266Y9712517D02*
X-49951693Y10177915D01*
%TO.C,C10*%
X4490000Y-28859420D02*
X4490000Y-29140580D01*
X5510000Y-28859420D02*
X5510000Y-29140580D01*
%TO.C,U3*%
X-2490000Y51000001D02*
X2600000Y51000001D01*
X0Y47990001D02*
X2600000Y47990001D01*
X2600000Y51000001D02*
X2600000Y50660001D01*
X2600000Y47990001D02*
X2600000Y48340001D01*
X-2099917Y51001737D02*
G75*
G02*
X2100000Y51000001I2099917J-101737D01*
G01*
%TO.C,C17*%
X-49076498Y-9618587D02*
X-49021647Y-9894345D01*
X-48076097Y-9419595D02*
X-48021246Y-9695353D01*
%TO.C,R21*%
X50044268Y-9712517D02*
X49951695Y-10177915D01*
X51069189Y-9916387D02*
X50976616Y-10381785D01*
%TO.C,J6*%
X23490000Y23060000D02*
X23490000Y10440000D01*
X23490000Y10440000D02*
X29460000Y10440000D01*
X24250000Y22300000D02*
X27200000Y22300000D01*
X24250000Y16750000D02*
X24250000Y22300000D01*
X24250000Y16750000D02*
X24250000Y11200000D01*
X24250000Y11200000D02*
X27200000Y11200000D01*
X27200000Y22300000D02*
X27200000Y23050000D01*
X27200000Y11200000D02*
X27200000Y10450000D01*
X28500000Y10150000D02*
X29750000Y10150000D01*
X28700000Y23050000D02*
X28700000Y21250000D01*
X28700000Y21250000D02*
X29450000Y21250000D01*
X28700000Y19750000D02*
X28700000Y13750000D01*
X28700000Y13750000D02*
X29450000Y13750000D01*
X28700000Y12250000D02*
X28700000Y10450000D01*
X28700000Y10450000D02*
X29450000Y10450000D01*
X29450000Y23050000D02*
X28700000Y23050000D01*
X29450000Y21250000D02*
X29450000Y23050000D01*
X29450000Y19750000D02*
X28700000Y19750000D01*
X29450000Y13750000D02*
X29450000Y19750000D01*
X29450000Y12250000D02*
X28700000Y12250000D01*
X29450000Y10450000D02*
X29450000Y12250000D01*
X29460000Y23060000D02*
X23490000Y23060000D01*
X29460000Y10440000D02*
X29460000Y23060000D01*
X29750000Y10150000D02*
X29750000Y11400000D01*
%TO.C,C9*%
X-19719420Y4210000D02*
X-20000580Y4210000D01*
X-19719420Y3190000D02*
X-20000580Y3190000D01*
%TO.C,C16*%
X-49021646Y9894346D02*
X-49076497Y9618588D01*
X-48021245Y9695354D02*
X-48076096Y9419596D01*
%TO.C,U8*%
X-48112832Y-17114766D02*
X-47798713Y-16984654D01*
X-46164974Y-21817313D02*
X-48112832Y-17114766D01*
X-45331955Y-15962889D02*
X-45655313Y-16096828D01*
X-44336978Y-18364976D02*
X-45331955Y-15962889D01*
X-46315856Y-21457588D02*
G75*
G02*
X-47921491Y-17576706I-709610J1979004D01*
G01*
%TO.C,R13*%
X-43123312Y-29099424D02*
X-43386939Y-28704879D01*
X-42254427Y-28518853D02*
X-42518054Y-28124308D01*
%TO.C,R14*%
X-28704879Y-43386941D02*
X-29099424Y-43123314D01*
X-28124308Y-42518056D02*
X-28518853Y-42254429D01*
%TO.C,U10*%
X-21918941Y-46122877D02*
X-21788829Y-45808758D01*
X-20767064Y-43342000D02*
X-20901003Y-43665358D01*
X-18364977Y-44336977D02*
X-20767064Y-43342000D01*
X-17216394Y-48070736D02*
X-21918941Y-46122877D01*
X-17577449Y-47923062D02*
G75*
G02*
X-21457002Y-46314219I-1901136J897598D01*
G01*
%TD*%
%LPC*%
D12*
X-25112500Y22000000D02*
G75*
G02*
X-25887500Y22000000I-387500J0D01*
G01*
X-25887500Y22000000D02*
G75*
G02*
X-25112500Y22000000I387500J0D01*
G01*
X-27612500Y22000000D02*
G75*
G02*
X-28387500Y22000000I-387500J0D01*
G01*
X-28387500Y22000000D02*
G75*
G02*
X-27612500Y22000000I387500J0D01*
G01*
X-30112500Y22000000D02*
G75*
G02*
X-30887500Y22000000I-387500J0D01*
G01*
X-30887500Y22000000D02*
G75*
G02*
X-30112500Y22000000I387500J0D01*
G01*
D13*
%TO.C,REF\u002A\u002A*%
X30052038Y-30052038D03*
%TD*%
D14*
%TO.C,SW4*%
X20250000Y-22500000D03*
X13750000Y-22500000D03*
%TD*%
D15*
%TO.C,U1*%
X7620000Y-26670000D03*
X7620000Y-24130000D03*
X7620000Y-21590000D03*
X7620000Y-19050000D03*
X7620000Y6350000D03*
X-7620000Y-24130000D03*
X7620000Y-16510000D03*
X7620000Y-13970000D03*
X7620000Y-11430000D03*
X7620000Y-8890000D03*
X7620000Y-6350000D03*
X7620000Y-3810000D03*
X7620000Y-1270000D03*
X7620000Y1270000D03*
X7620000Y3810000D03*
X-7620000Y3810000D03*
X-7620000Y1270000D03*
X-7620000Y-1270000D03*
X-7620000Y-3810000D03*
X-7620000Y-6350000D03*
X-7620000Y-8890000D03*
X-7620000Y-11430000D03*
X-7620000Y-13970000D03*
X-7620000Y-16510000D03*
X-7620000Y-19050000D03*
X-7620000Y-21590000D03*
X7620000Y8890000D03*
X7620000Y11430000D03*
X7620000Y13970000D03*
X7620000Y16510000D03*
X7620000Y19050000D03*
X7620000Y21590000D03*
X7620000Y24130000D03*
X7620000Y26670000D03*
X7620000Y29210000D03*
X-7620000Y29210000D03*
X-7620000Y26670000D03*
X-7620000Y24130000D03*
X-7620000Y21590000D03*
X-7620000Y19050000D03*
X-7620000Y16510000D03*
X-7620000Y13970000D03*
X-7620000Y11430000D03*
X-7620000Y8890000D03*
D16*
X7620000Y-29210000D03*
X-7620000Y-26670000D03*
X-7620000Y6350000D03*
D15*
X-5080000Y16510000D03*
X-2540000Y16510000D03*
X-7620000Y-29210000D03*
%TD*%
D17*
%TO.C,J8*%
X-5080000Y46000000D03*
X-2540000Y46000000D03*
X0Y46000000D03*
X2540000Y46000000D03*
X5080000Y46000000D03*
%TD*%
D15*
%TO.C,U2*%
X13190000Y24130000D03*
D16*
X13190000Y21590000D03*
D15*
X13190000Y19050000D03*
X13190000Y16510000D03*
X20810000Y16510000D03*
X20810000Y19050000D03*
D16*
X20810000Y21590000D03*
D15*
X20810000Y24130000D03*
%TD*%
D18*
%TO.C,D5*%
X28615000Y-3810000D03*
D19*
X28615000Y3810000D03*
%TD*%
D14*
%TO.C,SW3*%
X20250000Y-17000000D03*
X13750000Y-17000000D03*
%TD*%
D17*
%TO.C,J10*%
X46000000Y5080000D03*
X46000000Y2540000D03*
X46000000Y0D03*
X46000000Y-2540000D03*
X46000000Y-5080000D03*
%TD*%
D13*
%TO.C,REF\u002A\u002A*%
X-30052038Y-30052038D03*
%TD*%
%TO.C,REF\u002A\u002A*%
X-23611735Y35337459D03*
%TD*%
%TO.C,REF\u002A\u002A*%
X23611735Y35337459D03*
%TD*%
D20*
%TO.C,J2*%
X-23210000Y3700000D03*
D21*
X-23210000Y1160000D03*
X-23210000Y-1380000D03*
X-23210000Y-3920000D03*
X-23210000Y-6460000D03*
X-23210000Y-9000000D03*
%TD*%
D13*
%TO.C,REF\u002A\u002A*%
X23611735Y-35337459D03*
%TD*%
D22*
%TO.C,U19*%
X28620000Y7620000D03*
X26080000Y7620000D03*
X23540000Y7620000D03*
X21000000Y7620000D03*
X18460000Y7620000D03*
X15920000Y7620000D03*
X13380000Y7620000D03*
X13380000Y-7620000D03*
X15920000Y-7620000D03*
X18460000Y-7620000D03*
X21000000Y-7620000D03*
X23540000Y-7620000D03*
X26080000Y-7620000D03*
X28620000Y-7620000D03*
%TD*%
D13*
%TO.C,REF\u002A\u002A*%
X-23611735Y-35337459D03*
%TD*%
%TO.C,REF\u002A\u002A*%
X30052038Y30052038D03*
%TD*%
D15*
%TO.C,J4*%
X-16252500Y5080000D03*
X-13712500Y5080000D03*
X-16252500Y2540000D03*
X-13712500Y2540000D03*
X-16252500Y0D03*
X-13712500Y0D03*
X-16252500Y-2540000D03*
X-13712500Y-2540000D03*
X-16252500Y-5080000D03*
X-13712500Y-5080000D03*
%TD*%
D23*
%TO.C,C1*%
X0Y-21902651D03*
D24*
X0Y-18402651D03*
%TD*%
D13*
%TO.C,REF\u002A\u002A*%
X-30052038Y30052038D03*
%TD*%
D23*
%TO.C,C2*%
X0Y-11500000D03*
D24*
X0Y-8000000D03*
%TD*%
D25*
%TO.C,J3*%
X-12377500Y-15707500D03*
D26*
X-14377500Y-15707500D03*
X-16377500Y-15707500D03*
X-18377500Y-15707500D03*
%TD*%
D24*
%TO.C,RV1*%
X27960000Y-17000000D03*
X30500000Y-14460000D03*
X33040000Y-17000000D03*
%TD*%
D14*
%TO.C,SW2*%
X20250000Y-28000000D03*
X13750000Y-28000000D03*
%TD*%
D17*
%TO.C,J9*%
X-46000000Y-5080000D03*
X-46000000Y-2540000D03*
X-46000000Y0D03*
X-46000000Y2540000D03*
X-46000000Y5080000D03*
%TD*%
D27*
%TO.C,J7*%
X-36975000Y-11250000D03*
D28*
X-36975000Y-8750000D03*
X-36975000Y-6250000D03*
X-36975000Y-3750000D03*
X-36975000Y-1250000D03*
X-36975000Y1250000D03*
X-36975000Y3750000D03*
X-36975000Y6250000D03*
X-36975000Y8750000D03*
X-36975000Y11250000D03*
%TD*%
D29*
%TO.C,R19*%
X27925905Y-43279029D03*
X29297829Y-42362339D03*
%TD*%
D30*
%TO.C,R20*%
X42362341Y-29297829D03*
X43279031Y-27925905D03*
%TD*%
D31*
%TO.C,U11*%
X2540000Y-49499999D03*
D32*
X0Y-49499999D03*
X-2540000Y-49499999D03*
%TD*%
D33*
%TO.C,R9*%
X-27925903Y43279029D03*
X-29297827Y42362339D03*
%TD*%
D34*
%TO.C,U14*%
X46704052Y-16596174D03*
D32*
X45732036Y-18942828D03*
X44760020Y-21289482D03*
%TD*%
D35*
%TO.C,SW1*%
X-29735703Y-22923592D03*
X-31847636Y-24334741D03*
X-33959568Y-25745889D03*
X-32558000Y-18699727D03*
X-34669932Y-20110875D03*
X-36781865Y-21522024D03*
%TD*%
D36*
%TO.C,R12*%
X-50671391Y-9238003D03*
X-50349491Y-10856299D03*
%TD*%
D37*
%TO.C,J5*%
X7000000Y-34500000D03*
X6000000Y-34500000D03*
X5000000Y-34500000D03*
X4000000Y-34500000D03*
X3000000Y-34500000D03*
X2000000Y-34500000D03*
X1000000Y-34500000D03*
X0Y-34500000D03*
X-1000000Y-34500000D03*
X-2000000Y-34500000D03*
X-3000000Y-34500000D03*
X-4000000Y-34500000D03*
X-5000000Y-34500000D03*
X-6000000Y-34500000D03*
X-7000000Y-34500000D03*
D38*
X9650000Y-37250000D03*
X-9650000Y-37250000D03*
%TD*%
D39*
%TO.C,U7*%
X-49500000Y-2539999D03*
D32*
X-49500000Y1D03*
X-49500000Y2540001D03*
%TD*%
D40*
%TO.C,R5*%
X-24325000Y-28000000D03*
X-22675000Y-28000000D03*
%TD*%
D41*
%TO.C,C20*%
X-8896862Y-48700067D03*
X-10417080Y-48397677D03*
%TD*%
D42*
%TO.C,U18*%
X16596175Y46704053D03*
D32*
X18942829Y45732037D03*
X21289483Y44760021D03*
%TD*%
D43*
%TO.C,R10*%
X-42362339Y29297829D03*
X-43279029Y27925905D03*
%TD*%
D44*
%TO.C,U9*%
X-33205734Y-36797835D03*
D32*
X-35001785Y-35001784D03*
X-36797836Y-33205733D03*
%TD*%
D45*
%TO.C,U5*%
X-36797836Y33205735D03*
D32*
X-35001785Y35001786D03*
X-33205734Y36797837D03*
%TD*%
D46*
%TO.C,C13*%
X-10417080Y48397677D03*
X-8896862Y48700067D03*
%TD*%
D47*
%TO.C,R24*%
X29297830Y42362340D03*
X27925906Y43279030D03*
%TD*%
D48*
%TO.C,C22*%
X28145114Y-40727177D03*
X26856336Y-41588311D03*
%TD*%
D49*
%TO.C,C11*%
X-13710000Y8000000D03*
X-13710000Y9550000D03*
%TD*%
D50*
%TO.C,R8*%
X-9238003Y50671392D03*
X-10856299Y50349492D03*
%TD*%
D49*
%TO.C,C3*%
X-10370000Y-29210000D03*
X-10370000Y-27660000D03*
%TD*%
D51*
%TO.C,C12*%
X-2540000Y40775000D03*
X-2540000Y39225000D03*
%TD*%
D52*
%TO.C,U13*%
X36797836Y-33205733D03*
D32*
X35001785Y-35001784D03*
X33205734Y-36797835D03*
%TD*%
D53*
%TO.C,U17*%
X33205734Y36797837D03*
D32*
X35001785Y35001786D03*
X36797836Y33205735D03*
%TD*%
D54*
%TO.C,C7*%
X-16385000Y-19500000D03*
X-17935000Y-19500000D03*
%TD*%
D55*
%TO.C,C21*%
X10417080Y-48397675D03*
X8896862Y-48700065D03*
%TD*%
D49*
%TO.C,C8*%
X-32460000Y-11250000D03*
X-32460000Y-9700000D03*
%TD*%
D56*
%TO.C,C4*%
X16225000Y24130000D03*
X17775000Y24130000D03*
%TD*%
D57*
%TO.C,R16*%
X17825000Y-17000000D03*
X16175000Y-17000000D03*
%TD*%
D58*
%TO.C,C15*%
X-41588312Y26856338D03*
X-40727178Y28145116D03*
%TD*%
D59*
%TO.C,C26*%
X40727178Y28145115D03*
X41588312Y26856337D03*
%TD*%
D60*
%TO.C,R23*%
X43279030Y27925904D03*
X42362340Y29297828D03*
%TD*%
D57*
%TO.C,R17*%
X17825000Y-22500000D03*
X16175000Y-22500000D03*
%TD*%
D49*
%TO.C,C6*%
X31540000Y17975000D03*
X31540000Y19525000D03*
%TD*%
D61*
%TO.C,C23*%
X41588312Y-26856336D03*
X40727178Y-28145114D03*
%TD*%
D62*
%TO.C,C27*%
X26856337Y41588313D03*
X28145115Y40727179D03*
%TD*%
D63*
%TO.C,U4*%
X-21289483Y44760021D03*
D32*
X-18942829Y45732037D03*
X-16596175Y46704053D03*
%TD*%
D64*
%TO.C,J1*%
X-27995954Y-15699574D03*
D65*
X-26607028Y-17778248D03*
X-25218103Y-19856922D03*
%TD*%
D66*
%TO.C,U12*%
X21289483Y-44760019D03*
D32*
X18942829Y-45732035D03*
X16596175Y-46704051D03*
%TD*%
D57*
%TO.C,R4*%
X17825000Y16510000D03*
X16175000Y16510000D03*
%TD*%
D67*
%TO.C,U6*%
X-46704052Y16596176D03*
D32*
X-45732036Y18942830D03*
X-44760020Y21289484D03*
%TD*%
D51*
%TO.C,C5*%
X28615000Y775000D03*
X28615000Y-775000D03*
%TD*%
D68*
%TO.C,C24*%
X48700065Y-8896860D03*
X48397675Y-10417078D03*
%TD*%
D69*
%TO.C,U16*%
X44760020Y21289484D03*
D32*
X45732036Y18942830D03*
X46704052Y16596176D03*
%TD*%
D70*
%TO.C,C18*%
X-40727178Y-28145114D03*
X-41588312Y-26856336D03*
%TD*%
D71*
%TO.C,R25*%
X10856300Y50349491D03*
X9238004Y50671391D03*
%TD*%
D72*
%TO.C,C28*%
X8896861Y48700066D03*
X10417079Y48397676D03*
%TD*%
D73*
%TO.C,R22*%
X50671393Y9238004D03*
X50349493Y10856300D03*
%TD*%
D74*
%TO.C,C19*%
X-26856337Y-41588311D03*
X-28145115Y-40727177D03*
%TD*%
D75*
%TO.C,U15*%
X49500000Y2540000D03*
D32*
X49500000Y0D03*
X49500000Y-2540000D03*
%TD*%
D76*
%TO.C,C25*%
X48397676Y10417080D03*
X48700066Y8896862D03*
%TD*%
D40*
%TO.C,R7*%
X-24325000Y-24500000D03*
X-22675000Y-24500000D03*
%TD*%
D77*
%TO.C,R6*%
X23540000Y-825000D03*
X23540000Y825000D03*
%TD*%
D78*
%TO.C,C14*%
X-28145115Y40727179D03*
X-26856337Y41588313D03*
%TD*%
D57*
%TO.C,R3*%
X17825000Y19050000D03*
X16175000Y19050000D03*
%TD*%
D79*
%TO.C,R15*%
X-10856298Y-50349491D03*
X-9238002Y-50671391D03*
%TD*%
D80*
%TO.C,R18*%
X9238004Y-50671392D03*
X10856300Y-50349492D03*
%TD*%
D81*
%TO.C,R11*%
X-50349490Y10856299D03*
X-50671390Y9238003D03*
%TD*%
D49*
%TO.C,C10*%
X5000000Y-29775000D03*
X5000000Y-28225000D03*
%TD*%
D82*
%TO.C,U3*%
X-2540000Y49500001D03*
D32*
X0Y49500001D03*
X2540000Y49500001D03*
%TD*%
D83*
%TO.C,C17*%
X-48397677Y-10417079D03*
X-48700067Y-8896861D03*
%TD*%
D84*
%TO.C,R21*%
X50349492Y-10856299D03*
X50671392Y-9238003D03*
%TD*%
D27*
%TO.C,J6*%
X27000000Y13000000D03*
D28*
X27000000Y15500000D03*
X27000000Y18000000D03*
X27000000Y20500000D03*
%TD*%
D56*
%TO.C,C9*%
X-20635000Y3700000D03*
X-19085000Y3700000D03*
%TD*%
D85*
%TO.C,C16*%
X-48700066Y8896862D03*
X-48397676Y10417080D03*
%TD*%
D86*
%TO.C,U8*%
X-44760020Y-21289482D03*
D32*
X-45732036Y-18942828D03*
X-46704052Y-16596174D03*
%TD*%
D87*
%TO.C,R13*%
X-43279028Y-27925904D03*
X-42362338Y-29297828D03*
%TD*%
D88*
%TO.C,R14*%
X-29297828Y-42362340D03*
X-27925904Y-43279030D03*
%TD*%
D89*
%TO.C,U10*%
X-16596175Y-46704051D03*
D32*
X-18942829Y-45732035D03*
X-21289483Y-44760019D03*
%TD*%
%LPD*%
M02*
