M48
; DRILL file {KiCad 8.0.1} date 2024-05-26T22:46:05+0900
; FORMAT={-:-/ absolute / inch / decimal}
; #@! TF.CreationDate,2024-05-26T22:46:05+09:00
; #@! TF.GenerationSoftware,Kicad,Pcbnew,8.0.1
; #@! TF.FileFunction,Plated,1,4,PTH
FMAT,2
INCH
; #@! TA.AperFunction,Plated,PTH,ViaDrill
T1C0.0157
; #@! TA.AperFunction,Plated,PTH,ComponentDrill
T2C0.0276
; #@! TA.AperFunction,Plated,PTH,ComponentDrill
T3C0.0295
; #@! TA.AperFunction,Plated,PTH,ComponentDrill
T4C0.0300
; #@! TA.AperFunction,Plated,PTH,ComponentDrill
T5C0.0315
; #@! TA.AperFunction,Plated,PTH,ComponentDrill
T6C0.0354
; #@! TA.AperFunction,Plated,PTH,ComponentDrill
T7C0.0374
; #@! TA.AperFunction,Plated,PTH,ComponentDrill
T8C0.0394
%
G90
G05
T1
X9.2913Y-8.1683
X9.2913Y-8.4439
X9.3258Y-8.2274
X9.3258Y-8.503
X9.3339Y-9.9612
X9.3339Y-10.063
X9.3339Y-10.1585
X9.3438Y-9.6612
X9.3438Y-9.7612
X9.3438Y-9.8612
X9.3438Y-10.2612
X9.3455Y-10.3504
X9.3602Y-8.1683
X9.3602Y-8.4439
X9.3947Y-8.2274
X9.3947Y-8.503
X9.4291Y-8.1683
X9.4291Y-8.4439
X9.4636Y-8.2274
X9.4636Y-8.503
X9.498Y-8.1683
X9.498Y-8.4439
X9.5079Y-11.3386
X9.5276Y-11.1319
X9.5276Y-11.1811
X9.5276Y-11.2303
X9.5325Y-8.2274
X9.5325Y-8.3169
X9.5325Y-8.503
X9.5472Y-11.3386
X9.6014Y-8.2274
X9.6014Y-8.3169
X9.6014Y-8.503
X9.6703Y-8.2274
X9.6703Y-8.3169
X9.6703Y-8.503
X9.7382Y-7.69
X9.7392Y-8.2274
X9.7392Y-8.503
X9.7431Y-8.3169
X9.8081Y-8.2274
X9.8081Y-8.3169
X9.8081Y-8.503
X10.3246Y-10.1612
X11.6614Y-9.8415
T2
X9.3634Y-10.4219
X9.3634Y-10.5006
X9.4421Y-10.4219
X9.4421Y-10.5006
X9.5209Y-10.4219
X9.5209Y-10.5006
T3
X9.7469Y-10.3612
X9.7469Y-10.4612
X9.7469Y-10.5612
X9.7469Y-10.6612
X9.7469Y-10.7612
T4
X10.0543Y-9.5612
X10.0543Y-9.6612
X10.0543Y-9.7612
X10.0543Y-9.8612
X10.0543Y-9.9612
X10.0543Y-10.0612
X10.0543Y-10.1612
X10.6543Y-9.5612
X10.6543Y-9.6612
X10.6543Y-9.7612
X10.6543Y-9.8612
X10.6543Y-9.9612
X10.6543Y-10.0612
X10.6543Y-10.1612
T5
X9.2669Y-8.7112
X9.2669Y-8.8112
X9.2669Y-8.9112
X9.2669Y-9.0112
X9.2669Y-9.1112
X9.2669Y-9.2112
X9.2669Y-9.3112
X9.2669Y-9.4112
X9.2669Y-9.5112
X9.2669Y-9.6112
X9.2669Y-9.7112
X9.2669Y-9.8112
X9.2669Y-9.9112
X9.2669Y-10.0112
X9.2669Y-10.1112
X9.2669Y-10.2112
X9.2669Y-10.3112
X9.2669Y-10.4112
X9.2669Y-10.5112
X9.2669Y-10.6112
X9.2669Y-10.7112
X9.2669Y-10.8112
X9.2669Y-10.9112
X9.2669Y-11.0112
X9.3669Y-9.2112
X9.3669Y-10.9112
X9.4165Y-9.9077
X9.4165Y-10.0077
X9.4165Y-10.1077
X9.4165Y-10.2077
X9.4669Y-9.2112
X9.5669Y-9.2112
X9.6669Y-9.2112
X9.7165Y-9.9077
X9.7165Y-10.0077
X9.7165Y-10.1077
X9.7165Y-10.2077
X9.7669Y-9.2112
X9.8669Y-8.7112
X9.8669Y-8.8112
X9.8669Y-8.9112
X9.8669Y-9.0112
X9.8669Y-9.1112
X9.8669Y-9.2112
X9.8669Y-9.3112
X9.8669Y-9.4112
X9.8669Y-9.5112
X9.8669Y-9.6112
X9.8669Y-9.7112
X9.8669Y-9.8112
X9.8669Y-9.9112
X9.8669Y-10.0112
X9.8669Y-10.1112
X9.8669Y-10.2112
X9.8669Y-10.3112
X9.8669Y-10.4112
X9.8669Y-10.5112
X9.8669Y-10.6112
X9.8669Y-10.7112
X9.8669Y-10.8112
X9.8669Y-10.9112
X9.8669Y-11.0112
T6
X7.6378Y-9.7612
X7.6378Y-9.8612
X7.6378Y-9.9612
X7.7464Y-9.2154
X7.7464Y-10.5071
X7.7846Y-9.123
X7.7846Y-10.5995
X7.8229Y-9.0306
X7.8229Y-10.6919
X8.1321Y-8.5678
X8.1321Y-11.1546
X8.2028Y-8.4971
X8.2028Y-11.2253
X8.2735Y-8.4264
X8.2735Y-11.296
X8.7363Y-8.1172
X8.7363Y-11.6052
X8.8287Y-8.0789
X8.8287Y-11.6435
X8.9211Y-8.0407
X8.9211Y-11.6818
X9.4669Y-7.9321
X9.4669Y-11.7904
X9.5669Y-7.9321
X9.5669Y-11.7904
X9.6669Y-7.9321
X9.6669Y-11.7904
X10.2128Y-8.0407
X10.2128Y-11.6818
X10.3052Y-8.0789
X10.3052Y-11.6435
X10.3976Y-8.1172
X10.3976Y-11.6052
X10.8603Y-8.4264
X10.8603Y-11.296
X10.931Y-8.4971
X10.931Y-11.2253
X11.0017Y-8.5678
X11.0017Y-11.1546
X11.3109Y-9.0306
X11.3109Y-10.6919
X11.3492Y-9.123
X11.3492Y-10.5995
X11.3875Y-9.2154
X11.3875Y-10.5071
X11.4961Y-9.7612
X11.4961Y-9.8612
X11.4961Y-9.9612
T7
X8.2096Y-9.4183
X8.2096Y-9.5167
X8.2096Y-9.6152
X8.2096Y-9.7136
X8.2096Y-9.812
X8.2096Y-9.9104
X8.2096Y-10.0089
X8.2096Y-10.1073
X8.2096Y-10.2057
X8.2096Y-10.3041
X8.7795Y-10.8248
X8.878Y-10.8248
X8.9764Y-10.8248
T8
X8.906Y-9.6612
X8.906Y-9.7612
X8.906Y-9.8612
X8.906Y-9.9612
X8.906Y-10.0612
X9.006Y-9.6612
X9.006Y-9.7612
X9.006Y-9.8612
X9.006Y-9.9612
X9.006Y-10.0612
M30
