0
SECTION
2
HEADER
9
$INSUNITS
70
4
9
$ACADVER
1
AC1014
9
$HANDSEED
5
FFFF
0
ENDSEC
0
SECTION
2
TABLES
0
TABLE
2
VPORT
5
8
100
AcDbSymbolTable
0
ENDTAB
0
TABLE
2
LTYPE
5
5
100
AcDbSymbolTable
0
LTYPE
5
14
100
AcDbSymbolTableRecord
100
AcDbLinetypeTableRecord
2
BYBLOCK
70
0
0
LTYPE
5
15
100
AcDbSymbolTableRecord
100
AcDbLinetypeTableRecord
2
BYLAYER
70
0
0
ENDTAB
0
TABLE
2
LAYER
5
2
100
AcDbSymbolTable
70
2
0
LAYER
5
50
100
AcDbSymbolTableRecord
100
AcDbLayerTableRecord
2
0
70
0
6
CONTINUOUS
0
ENDTAB
0
TABLE
2
STYLE
5
3
100
AcDbSymbolTable
70
1
0
STYLE
5
11
100
AcDbSymbolTableRecord
100
AcDbTextStyleTableRecord
2
STANDARD
70
0
0
ENDTAB
0
TABLE
2
VIEW
5
6
100
AcDbSymbolTable
70
0
0
ENDTAB
0
TABLE
2
UCS
5
7
100
AcDbSymbolTable
70
0
0
ENDTAB
0
TABLE
2
APPID
5
9
100
AcDbSymbolTable
70
2
0
APPID
5
12
100
AcDbSymbolTableRecord
100
AcDbRegAppTableRecord
2
ACAD
70
0
0
ENDTAB
0
TABLE
2
DIMSTYLE
5
A
100
AcDbSymbolTable
70
1
0
ENDTAB
0
TABLE
2
BLOCK_RECORD
5
1
100
AcDbSymbolTable
70
1
0
BLOCK_RECORD
5
1F
100
AcDbSymbolTableRecord
100
AcDbBlockTableRecord
2
*MODEL_SPACE
0
BLOCK_RECORD
5
1B
100
AcDbSymbolTableRecord
100
AcDbBlockTableRecord
2
*PAPER_SPACE
0
ENDTAB
0
ENDSEC
0
SECTION
2
BLOCKS
0
BLOCK
5
20
100
AcDbEntity
100
AcDbBlockBegin
2
*MODEL_SPACE
0
ENDBLK
5
21
100
AcDbEntity
100
AcDbBlockEnd
0
BLOCK
5
1C
100
AcDbEntity
100
AcDbBlockBegin
2
*PAPER_SPACE
0
ENDBLK
5
1D
100
AcDbEntity
100
AcDbBlockEnd
0
ENDSEC
0
SECTION
2
ENTITIES
0
LWPOLYLINE
5
100
100
AcDbEntity
8
0
100
AcDbPolyline
90
32
70
1
43
0.0
10
-93.575150323177184
20
-35.266006890415177
42
0.31218295915781774
10
-89.832144310250115
20
-37.855366614798612
10
-78.336604968048846
20
-37.855366614798626
42
0.41421356237309398
10
-75.836604968048846
20
-35.355366614798626
10
-75.836604968048846
20
-28.495366614798634
42
-0.41421356237309348
10
-73.336604968048846
20
-25.995366614798638
10
-64.81419017604118
20
-25.995366614798634
42
0.41421356237309453
10
-62.31419017604118
20
-23.495366614798634
10
-62.314190176041187
20
-11.663014581273412
42
-0.046932439296634619
10
-62.270330526918386
20
-11.196780115802625
42
0.094072086838354468
10
-62.270330526918386
20
-10.003219884197396
42
-0.04693243929667245
10
-62.314190176041187
20
-9.5369854187266085
10
-62.314190176041208
20
9.5369854187265517
42
-0.046932439296655311
10
-62.2703305269184
20
10.003219884197364
42
0.094072086838356828
10
-62.2703305269184
20
11.196780115802621
42
-0.04693243929665309
10
-62.314190176041208
20
11.663014581273426
10
-62.314190176041215
20
23.495366614798638
42
0.41421356237309503
10
-64.814190176041222
20
25.995366614798638
10
-73.336604968048889
20
25.99536661479863
42
-0.41421356237309348
10
-75.836604968048874
20
28.495366614798627
10
-75.836604968048889
20
35.355366614798626
42
0.41421356237309503
10
-78.336604968048903
20
37.855366614798612
10
-89.832144310250172
20
37.855366614798584
42
0.31218295915781652
10
-93.575150323177212
20
35.266006890415149
42
0.060106082795559929
10
-99.277545330711661
20
11.998707976632762
42
-0.045615051602899144
10
-99.373079651224231
20
11.553642484799207
42
0.096800766918094944
10
-99.507362422693745
20
10.333462039113179
42
-0.045615051603013955
10
-99.510902586009337
20
9.8782724460198565
42
0.049512444272368721
10
-99.510902586009308
20
-9.878272446019766
42
-0.045615051602976353
10
-99.507362422693774
20
-10.333462039113128
42
0.096800766918094361
10
-99.373079651224273
20
-11.553642484799159
42
-0.045615051602976686
10
-99.277545330711746
20
-11.998707976632677
42
0.060106082795560511
0
LINE
5
101
100
AcDbEntity
8
0
100
AcDbLine
10
-98.351988286968634
20
-18.080000000000041
30
0
11
-62.314190176041187
21
-18.080000000000037
31
0
0
LWPOLYLINE
5
102
100
AcDbEntity
8
0
100
AcDbPolyline
90
4
70
1
43
0.0
10
-68.136604968048843
20
-35.855366614798633
10
-83.536604968048835
20
-35.855366614798633
10
-83.536604968048835
20
-27.995366614798634
10
-68.136604968048843
20
-27.995366614798634
0
LINE
5
103
100
AcDbEntity
8
0
100
AcDbLine
10
-98.351988286968663
20
18.080000000000005
30
0
11
-62.314190176041215
21
18.080000000000048
31
0
0
LWPOLYLINE
5
104
100
AcDbEntity
8
0
100
AcDbPolyline
90
4
70
1
43
0.0
10
-68.136604968048886
20
35.855366614798633
10
-83.536604968048891
20
35.855366614798612
10
-83.536604968048863
20
27.99536661479862
10
-68.136604968048871
20
27.995366614798634
0
CIRCLE
5
105
100
AcDbEntity
8
0
100
AcDbCircle
10
-96.318482130897536
20
-10.600000000000005
30
0
40
1.5999999999999994
210
0
220
0
230
1
0
CIRCLE
5
106
100
AcDbEntity
8
0
100
AcDbCircle
10
-96.318482130897536
20
10.600000000000005
30
0
40
1.5999999999999994
210
0
220
0
230
1
0
CIRCLE
5
107
100
AcDbEntity
8
0
100
AcDbCircle
10
-65.414190176041203
20
-10.600000000000009
30
0
40
1.6000000000000003
210
0
220
0
230
1
0
CIRCLE
5
108
100
AcDbEntity
8
0
100
AcDbCircle
10
-65.414190176041217
20
10.599999999999994
30
0
40
1.5999999999999994
210
0
220
0
230
1
0
LINE
5
109
100
AcDbEntity
8
0
100
AcDbLine
10
-96.318482130897536
20
10.600000000000005
30
0
11
-96.318482130897536
21
12.200000000000005
31
0
0
LINE
5
110
100
AcDbEntity
8
0
100
AcDbLine
10
-96.318482130897536
20
10.600000000000005
30
0
11
-94.718482130897542
21
10.600000000000005
31
0
0
LINE
5
111
100
AcDbEntity
8
0
100
AcDbLine
10
-65.414190176041217
20
10.599999999999994
30
0
11
-65.414190176041217
21
12.199999999999992
31
0
0
LINE
5
112
100
AcDbEntity
8
0
100
AcDbLine
10
-65.414190176041217
20
10.599999999999994
30
0
11
-63.814190176041208
21
10.599999999999994
31
0
0
LINE
5
113
100
AcDbEntity
8
0
100
AcDbLine
10
-65.414190176041203
20
-10.600000000000009
30
0
11
-65.414190176041203
21
-9.0000001341104507
31
0
0
LINE
5
114
100
AcDbEntity
8
0
100
AcDbLine
10
-65.414190176041203
20
-10.600000000000009
30
0
11
-63.814190176041201
21
-10.600000000000009
31
0
0
LINE
5
115
100
AcDbEntity
8
0
100
AcDbLine
10
-96.318482130897536
20
-10.600000000000005
30
0
11
-96.318482130897536
21
-9.0000000000000053
31
0
0
LINE
5
116
100
AcDbEntity
8
0
100
AcDbLine
10
-96.318482130897536
20
-10.600000000000005
30
0
11
-94.718482130897542
21
-10.600000000000007
31
0
0
ENDSEC
0
SECTION
2
OBJECTS
0
DICTIONARY
5
C
100
AcDbDictionary
3
ACAD_GROUP
350
D
3
ACAD_MLINESTYLE
350
17
0
DICTIONARY
5
D
100
AcDbDictionary
0
DICTIONARY
5
1A
330
C
100
AcDbDictionary
0
DICTIONARY
5
17
100
AcDbDictionary
0
ENDSEC
0
EOF
