0
SECTION
2
HEADER
9
$INSUNITS
70
4
9
$ACADVER
1
AC1014
9
$HANDSEED
5
FFFF
0
ENDSEC
0
SECTION
2
TABLES
0
TABLE
2
VPORT
5
8
100
AcDbSymbolTable
0
ENDTAB
0
TABLE
2
LTYPE
5
5
100
AcDbSymbolTable
0
LTYPE
5
14
100
AcDbSymbolTableRecord
100
AcDbLinetypeTableRecord
2
BYBLOCK
70
0
0
LTYPE
5
15
100
AcDbSymbolTableRecord
100
AcDbLinetypeTableRecord
2
BYLAYER
70
0
0
ENDTAB
0
TABLE
2
LAYER
5
2
100
AcDbSymbolTable
70
2
0
LAYER
5
50
100
AcDbSymbolTableRecord
100
AcDbLayerTableRecord
2
0
70
0
6
CONTINUOUS
0
ENDTAB
0
TABLE
2
STYLE
5
3
100
AcDbSymbolTable
70
1
0
STYLE
5
11
100
AcDbSymbolTableRecord
100
AcDbTextStyleTableRecord
2
STANDARD
70
0
0
ENDTAB
0
TABLE
2
VIEW
5
6
100
AcDbSymbolTable
70
0
0
ENDTAB
0
TABLE
2
UCS
5
7
100
AcDbSymbolTable
70
0
0
ENDTAB
0
TABLE
2
APPID
5
9
100
AcDbSymbolTable
70
2
0
APPID
5
12
100
AcDbSymbolTableRecord
100
AcDbRegAppTableRecord
2
ACAD
70
0
0
ENDTAB
0
TABLE
2
DIMSTYLE
5
A
100
AcDbSymbolTable
70
1
0
ENDTAB
0
TABLE
2
BLOCK_RECORD
5
1
100
AcDbSymbolTable
70
1
0
BLOCK_RECORD
5
1F
100
AcDbSymbolTableRecord
100
AcDbBlockTableRecord
2
*MODEL_SPACE
0
BLOCK_RECORD
5
1B
100
AcDbSymbolTableRecord
100
AcDbBlockTableRecord
2
*PAPER_SPACE
0
ENDTAB
0
ENDSEC
0
SECTION
2
BLOCKS
0
BLOCK
5
20
100
AcDbEntity
100
AcDbBlockBegin
2
*MODEL_SPACE
0
ENDBLK
5
21
100
AcDbEntity
100
AcDbBlockEnd
0
BLOCK
5
1C
100
AcDbEntity
100
AcDbBlockBegin
2
*PAPER_SPACE
0
ENDBLK
5
1D
100
AcDbEntity
100
AcDbBlockEnd
0
ENDSEC
0
SECTION
2
ENTITIES
0
LWPOLYLINE
5
100
100
AcDbEntity
8
0
100
AcDbPolyline
90
34
70
1
43
0.0
10
-17.000000253319737
20
14.50000041723251
42
0.41421356237309764
10
-15.500000253319739
20
13.000000417232521
10
15.500000253319747
20
13.000000417232512
42
0.41421356237309631
10
17.000000253319747
20
14.500000417232501
10
17.00000025331974
20
24.019233217708763
42
-0.27387082718944578
10
18.038461694350648
20
25.772927489700216
42
0.13726898933907572
10
19.271281292110295
20
26.978838324886539
10
21.592545861740003
20
30.999386497294694
42
-0.45501586840380703
10
24.552207020325142
20
31.57830157609968
42
-0.17316100441616289
10
38.999943133264921
20
8.8884439359263183
42
-0.4814767494279858
10
37.04994597660167
20
6.444021739130001
10
34.169565217390023
20
6.444021739130001
42
0.41421356237309492
10
30.96956521739002
20
3.2440217391300004
10
30.96956521739002
20
-3.2440217391300035
42
0.41421356237309503
10
34.169565217390023
20
-6.4440217391300081
10
37.049945976601663
20
-6.4440217391300081
42
-0.48147674942798879
10
38.999943133264907
20
-8.8884439359263396
42
-0.17316100441616278
10
24.552207020325135
20
-31.578301576099676
42
-0.45501586840379932
10
21.59254586174
20
-30.999386497294687
10
19.271281292110299
20
-26.978838324886539
42
0.99999999999999989
10
13.72871870788989
20
-30.178838324886552
10
16.049983277519594
20
-34.199386497294697
42
-0.45501586840380936
10
15.071507863106
20
-37.051985786625991
42
-0.19560180972937341
10
-15.07150786310601
20
-37.051985786626005
42
-0.45501586840380776
10
-16.049983277519594
20
-34.199386497294697
10
-13.728718707889891
20
-30.178838324886549
42
0.99999999999999989
10
-19.271281292110295
20
-26.978838324886546
10
-21.59254586174
20
-30.999386497294694
42
-0.45501586840380703
10
-24.552207020325145
20
-31.57830157609968
42
-0.48919011500500365
10
-24.552207020325135
20
31.578301576099665
42
-0.45501586840380553
10
-21.592545861740003
20
30.999386497294697
10
-19.271281292110295
20
26.978838324886546
42
0.13726898933907594
10
-18.038461694350644
20
25.772927489700219
42
-0.27387082718944433
10
-17.000000253319737
20
24.019233217708766
0
CIRCLE
5
101
100
AcDbEntity
8
0
100
AcDbCircle
10
0
20
0
30
0
40
50
210
0
220
0
230
1
0
CIRCLE
5
102
100
AcDbEntity
8
0
100
AcDbCircle
10
-16.500000000000096
20
28.578838324886547
30
0
40
1.6000000000000014
210
0
220
0
230
1
0
CIRCLE
5
103
100
AcDbEntity
8
0
100
AcDbCircle
10
16.500000000000014
20
28.578838324886483
30
0
40
1.6000000000000014
210
0
220
0
230
1
0
CIRCLE
5
104
100
AcDbEntity
8
0
100
AcDbCircle
10
34.169565217390023
20
3.244021739129999
30
0
40
1.600000000000001
210
0
220
0
230
1
0
CIRCLE
5
105
100
AcDbEntity
8
0
100
AcDbCircle
10
34.169565217390023
20
-3.2440217391300035
30
0
40
1.6000000000000005
210
0
220
0
230
1
0
CIRCLE
5
106
100
AcDbEntity
8
0
100
AcDbCircle
10
16.500000000000014
20
-28.578838324886483
30
0
40
1.6000000000000014
210
0
220
0
230
1
0
CIRCLE
5
107
100
AcDbEntity
8
0
100
AcDbCircle
10
-16.500000000000014
20
-28.578838324886483
30
0
40
1.6000000000000014
210
0
220
0
230
1
0
CIRCLE
5
108
100
AcDbEntity
8
0
100
AcDbCircle
10
41.450000000000017
20
-9.2037488741425484e-15
30
0
40
0.45000000000000012
210
0
220
0
230
1
0
CIRCLE
5
109
100
AcDbEntity
8
0
100
AcDbCircle
10
41.450000000000017
20
-9.2037488741425484e-15
30
0
40
0.90000000000000024
210
0
220
0
230
1
0
CIRCLE
5
110
100
AcDbEntity
8
0
100
AcDbCircle
10
41.450000000000017
20
-2.5400000000000098
30
0
40
0.45000000000000012
210
0
220
0
230
1
0
CIRCLE
5
111
100
AcDbEntity
8
0
100
AcDbCircle
10
41.450000000000017
20
-2.5400000000000098
30
0
40
0.90000000000000024
210
0
220
0
230
1
0
CIRCLE
5
112
100
AcDbEntity
8
0
100
AcDbCircle
10
41.450000000000017
20
2.5399999999999912
30
0
40
0.45000000000000012
210
0
220
0
230
1
0
LWPOLYLINE
5
113
100
AcDbEntity
8
0
100
AcDbPolyline
90
8
70
1
43
0.0
10
40.550000000000011
20
1.8899999999999917
10
40.550000000000011
20
3.1899999999999915
42
-0.41421356237305862
10
40.800000000000011
20
3.4399999999999906
10
42.100000000000009
20
3.4399999999999902
42
-0.414213562373069
10
42.350000000000009
20
3.1899999999999911
10
42.350000000000009
20
1.8899999999999908
42
-0.41421356237306933
10
42.100000000000009
20
1.6399999999999912
10
40.800000000000011
20
1.6399999999999924
42
-0.41421356237305862
0
CIRCLE
5
114
100
AcDbEntity
8
0
100
AcDbCircle
10
39.266822540800185
20
13.515574258954295
30
0
40
0.45000000000000012
210
0
220
0
230
1
0
CIRCLE
5
115
100
AcDbEntity
8
0
100
AcDbCircle
10
39.266822540800185
20
13.515574258954295
30
0
40
0.90000000000000024
210
0
220
0
230
1
0
CIRCLE
5
116
100
AcDbEntity
8
0
100
AcDbCircle
10
38.294806622592851
20
15.862228271532965
30
0
40
0.90000000000000024
210
0
220
0
230
1
0
CIRCLE
5
117
100
AcDbEntity
8
0
100
AcDbCircle
10
38.294806622592851
20
15.862228271532965
30
0
40
0.45000000000000012
210
0
220
0
230
1
0
LWPOLYLINE
5
118
100
AcDbEntity
8
0
100
AcDbPolyline
90
8
70
1
43
0.0
10
36.74004335616268
20
17.263945498850717
42
0.41421356237305929
10
37.066684097381767
20
17.128646473814168
10
38.26772748964644
20
17.626134935888786
42
0.414213562373066
10
38.403026514682985
20
17.952775677107876
10
37.905538052608371
20
19.153819069372553
42
0.41421356237306362
10
37.578897311389277
20
19.289118094409101
10
36.377853919124604
20
18.791629632334484
42
0.414213562373066
10
36.242554894088059
20
18.464988891115389
0
CIRCLE
5
119
100
AcDbEntity
8
0
100
AcDbCircle
10
37.322790704385525
20
18.208882284111635
30
0
40
0.45000000000000012
210
0
220
0
230
1
0
CIRCLE
5
120
100
AcDbEntity
8
0
100
AcDbCircle
10
31.105627304396243
20
27.513524855968562
30
0
40
0.45000000000000012
210
0
220
0
230
1
0
CIRCLE
5
121
100
AcDbEntity
8
0
100
AcDbCircle
10
31.105627304396243
20
27.513524855968562
30
0
40
0.90000000000000024
210
0
220
0
230
1
0
CIRCLE
5
122
100
AcDbEntity
8
0
100
AcDbCircle
10
29.309576080182403
20
29.309576080182399
30
0
40
0.90000000000000024
210
0
220
0
230
1
0
CIRCLE
5
123
100
AcDbEntity
8
0
100
AcDbCircle
10
29.309576080182403
20
29.309576080182399
30
0
40
0.45000000000000012
210
0
220
0
230
1
0
LWPOLYLINE
5
124
100
AcDbEntity
8
0
100
AcDbPolyline
90
8
70
1
43
0.0
10
27.336748160671938
20
30.009611793557088
42
0.41421356237306561
10
27.690301551265215
20
30.009611793557088
10
28.609540366807721
20
30.928850609099598
42
0.414213562373073
10
28.609540366807728
20
31.282403999692875
10
27.690301551265218
20
32.201642815235381
42
0.4142135623730766
10
27.336748160671934
20
32.201642815235381
10
26.417509345129432
20
31.282403999692868
42
0.41421356237306561
10
26.417509345129432
20
30.928850609099598
0
CIRCLE
5
125
100
AcDbEntity
8
0
100
AcDbCircle
10
27.513524855968576
20
31.105627304396236
30
0
40
0.45000000000000012
210
0
220
0
230
1
0
CIRCLE
5
126
100
AcDbEntity
8
0
100
AcDbCircle
10
18.20888228411166
20
37.322790704385511
30
0
40
0.45000000000000012
210
0
220
0
230
1
0
CIRCLE
5
127
100
AcDbEntity
8
0
100
AcDbCircle
10
18.20888228411166
20
37.322790704385511
30
0
40
0.90000000000000024
210
0
220
0
230
1
0
CIRCLE
5
128
100
AcDbEntity
8
0
100
AcDbCircle
10
15.86222827153299
20
38.294806622592844
30
0
40
0.90000000000000024
210
0
220
0
230
1
0
CIRCLE
5
129
100
AcDbEntity
8
0
100
AcDbCircle
10
15.86222827153299
20
38.294806622592844
30
0
40
0.45000000000000012
210
0
220
0
230
1
0
LWPOLYLINE
5
130
100
AcDbEntity
8
0
100
AcDbPolyline
90
8
70
1
43
0.0
10
13.771680865958073
20
38.186586730502704
42
0.41421356237305645
10
14.098321607177166
20
38.321885755539242
10
14.595810069251783
20
39.522929147803922
42
0.41421356237307044
10
14.460511044215236
20
39.849569889023016
10
13.259467651950562
20
40.34705835109763
42
0.41421356237307383
10
12.932826910731468
20
40.211759326061085
10
12.435338448656852
20
39.010715933796405
42
0.41421356237305162
10
12.570637473693401
20
38.684075192577318
0
CIRCLE
5
131
100
AcDbEntity
8
0
100
AcDbCircle
10
13.51557425895432
20
39.26682254080017
30
0
40
0.45000000000000012
210
0
220
0
230
1
0
CIRCLE
5
132
100
AcDbEntity
8
0
100
AcDbCircle
10
2.5400000000000009
20
41.450000000000024
30
0
40
0.45000000000000012
210
0
220
0
230
1
0
CIRCLE
5
133
100
AcDbEntity
8
0
100
AcDbCircle
10
2.5400000000000009
20
41.450000000000024
30
0
40
0.90000000000000024
210
0
220
0
230
1
0
CIRCLE
5
134
100
AcDbEntity
8
0
100
AcDbCircle
10
0
20
41.450000000000024
30
0
40
0.90000000000000024
210
0
220
0
230
1
0
CIRCLE
5
135
100
AcDbEntity
8
0
100
AcDbCircle
10
0
20
41.450000000000024
30
0
40
0.45000000000000012
210
0
220
0
230
1
0
LWPOLYLINE
5
136
100
AcDbEntity
8
0
100
AcDbPolyline
90
8
70
1
43
0.0
10
-1.8900000000000008
20
40.550000000000026
42
0.41421356237305829
10
-1.6400000000000015
20
40.800000000000018
10
-1.6400000000000012
20
42.100000000000016
42
0.41421356237306933
10
-1.8900000000000008
20
42.350000000000023
10
-3.1900000000000013
20
42.350000000000023
42
0.414213562373069
10
-3.4400000000000013
20
42.100000000000016
10
-3.4400000000000004
20
40.800000000000018
42
0.41421356237305862
10
-3.1900000000000013
20
40.550000000000026
0
CIRCLE
5
137
100
AcDbEntity
8
0
100
AcDbCircle
10
-2.5400000000000009
20
41.450000000000024
30
0
40
0.45000000000000012
210
0
220
0
230
1
0
CIRCLE
5
138
100
AcDbEntity
8
0
100
AcDbCircle
10
-13.515574258954302
20
39.266822540800192
30
0
40
0.45000000000000012
210
0
220
0
230
1
0
CIRCLE
5
139
100
AcDbEntity
8
0
100
AcDbCircle
10
-13.515574258954302
20
39.266822540800192
30
0
40
0.90000000000000024
210
0
220
0
230
1
0
CIRCLE
5
140
100
AcDbEntity
8
0
100
AcDbCircle
10
-15.862228271532972
20
38.294806622592859
30
0
40
0.90000000000000024
210
0
220
0
230
1
0
CIRCLE
5
141
100
AcDbEntity
8
0
100
AcDbCircle
10
-15.862228271532972
20
38.294806622592859
30
0
40
0.45000000000000012
210
0
220
0
230
1
0
LWPOLYLINE
5
142
100
AcDbEntity
8
0
100
AcDbPolyline
90
8
70
1
43
0.0
10
-17.26394549885072
20
36.74004335616268
42
0.41421356237306123
10
-17.128646473814172
20
37.066684097381774
10
-17.626134935888789
20
38.26772748964644
42
0.414213562373067
10
-17.952775677107883
20
38.403026514682992
10
-19.153819069372556
20
37.905538052608378
42
0.41421356237306467
10
-19.289118094409105
20
37.578897311389284
10
-18.791629632334487
20
36.377853919124611
42
0.414213562373066
10
-18.464988891115397
20
36.242554894088059
0
CIRCLE
5
143
100
AcDbEntity
8
0
100
AcDbCircle
10
-18.208882284111642
20
37.322790704385525
30
0
40
0.45000000000000012
210
0
220
0
230
1
0
CIRCLE
5
144
100
AcDbEntity
8
0
100
AcDbCircle
10
-27.513524855968559
20
31.105627304396247
30
0
40
0.45000000000000012
210
0
220
0
230
1
0
CIRCLE
5
145
100
AcDbEntity
8
0
100
AcDbCircle
10
-27.513524855968559
20
31.105627304396247
30
0
40
0.90000000000000024
210
0
220
0
230
1
0
CIRCLE
5
146
100
AcDbEntity
8
0
100
AcDbCircle
10
-29.309576080182396
20
29.309576080182413
30
0
40
0.90000000000000024
210
0
220
0
230
1
0
CIRCLE
5
147
100
AcDbEntity
8
0
100
AcDbCircle
10
-29.309576080182396
20
29.309576080182413
30
0
40
0.45000000000000012
210
0
220
0
230
1
0
LWPOLYLINE
5
148
100
AcDbEntity
8
0
100
AcDbPolyline
90
8
70
1
43
0.0
10
-30.009611793557085
20
27.336748160671949
42
0.41421356237306561
10
-30.009611793557085
20
27.690301551265222
10
-30.928850609099591
20
28.609540366807732
42
0.414213562373073
10
-31.282403999692868
20
28.609540366807735
10
-32.201642815235381
20
27.690301551265225
42
0.41421356237306928
10
-32.201642815235381
20
27.336748160671949
10
-31.282403999692864
20
26.417509345129439
42
0.41421356237306561
10
-30.928850609099591
20
26.417509345129439
0
CIRCLE
5
149
100
AcDbEntity
8
0
100
AcDbCircle
10
-31.105627304396233
20
27.513524855968591
30
0
40
0.45000000000000012
210
0
220
0
230
1
0
CIRCLE
5
150
100
AcDbEntity
8
0
100
AcDbCircle
10
-37.322790704385518
20
18.20888228411166
30
0
40
0.45000000000000012
210
0
220
0
230
1
0
CIRCLE
5
151
100
AcDbEntity
8
0
100
AcDbCircle
10
-37.322790704385518
20
18.20888228411166
30
0
40
0.90000000000000024
210
0
220
0
230
1
0
CIRCLE
5
152
100
AcDbEntity
8
0
100
AcDbCircle
10
-38.294806622592844
20
15.862228271532992
30
0
40
0.90000000000000024
210
0
220
0
230
1
0
CIRCLE
5
153
100
AcDbEntity
8
0
100
AcDbCircle
10
-38.294806622592844
20
15.862228271532992
30
0
40
0.45000000000000012
210
0
220
0
230
1
0
LWPOLYLINE
5
154
100
AcDbEntity
8
0
100
AcDbPolyline
90
8
70
1
43
0.0
10
-38.186586730502711
20
13.771680865958078
42
0.41421356237305879
10
-38.321885755539256
20
14.098321607177169
10
-39.522929147803922
20
14.595810069251785
42
0.414213562373067
10
-39.849569889023023
20
14.460511044215238
10
-40.347058351097644
20
13.259467651950565
42
0.41421356237306023
10
-40.211759326061092
20
12.932826910731469
10
-39.010715933796412
20
12.435338448656854
42
0.41421356237305879
10
-38.684075192577325
20
12.570637473693404
0
CIRCLE
5
155
100
AcDbEntity
8
0
100
AcDbCircle
10
-39.266822540800177
20
13.515574258954322
30
0
40
0.45000000000000012
210
0
220
0
230
1
0
CIRCLE
5
156
100
AcDbEntity
8
0
100
AcDbCircle
10
-41.450000000000017
20
2.5400000000000151
30
0
40
0.45000000000000012
210
0
220
0
230
1
0
CIRCLE
5
157
100
AcDbEntity
8
0
100
AcDbCircle
10
-41.450000000000017
20
2.5400000000000151
30
0
40
0.90000000000000024
210
0
220
0
230
1
0
CIRCLE
5
158
100
AcDbEntity
8
0
100
AcDbCircle
10
-41.450000000000017
20
1.4279909856608328e-14
30
0
40
0.90000000000000024
210
0
220
0
230
1
0
CIRCLE
5
159
100
AcDbEntity
8
0
100
AcDbCircle
10
-41.450000000000017
20
1.4279909856608328e-14
30
0
40
0.45000000000000012
210
0
220
0
230
1
0
LWPOLYLINE
5
160
100
AcDbEntity
8
0
100
AcDbPolyline
90
8
70
1
43
0.0
10
-40.550000000000011
20
-1.8899999999999864
42
0.41421356237305862
10
-40.800000000000011
20
-1.639999999999987
10
-42.100000000000009
20
-1.6399999999999861
42
0.41421356237306933
10
-42.350000000000009
20
-1.8899999999999855
10
-42.350000000000009
20
-3.1899999999999862
42
0.414213562373069
10
-42.100000000000009
20
-3.4399999999999862
10
-40.800000000000011
20
-3.4399999999999857
42
0.41421356237305862
10
-40.550000000000011
20
-3.1899999999999866
0
CIRCLE
5
161
100
AcDbEntity
8
0
100
AcDbCircle
10
-41.450000000000017
20
-2.5399999999999863
30
0
40
0.45000000000000012
210
0
220
0
230
1
0
CIRCLE
5
162
100
AcDbEntity
8
0
100
AcDbCircle
10
-39.266822540800185
20
-13.51557425895429
30
0
40
0.45000000000000012
210
0
220
0
230
1
0
CIRCLE
5
163
100
AcDbEntity
8
0
100
AcDbCircle
10
-39.266822540800185
20
-13.51557425895429
30
0
40
0.90000000000000024
210
0
220
0
230
1
0
CIRCLE
5
164
100
AcDbEntity
8
0
100
AcDbCircle
10
-38.294806622592851
20
-15.862228271532961
30
0
40
0.90000000000000024
210
0
220
0
230
1
0
CIRCLE
5
165
100
AcDbEntity
8
0
100
AcDbCircle
10
-38.294806622592851
20
-15.862228271532961
30
0
40
0.45000000000000012
210
0
220
0
230
1
0
LWPOLYLINE
5
166
100
AcDbEntity
8
0
100
AcDbPolyline
90
8
70
1
43
0.0
10
-36.74004335616268
20
-17.263945498850713
42
0.41421356237305929
10
-37.066684097381767
20
-17.128646473814165
10
-38.26772748964644
20
-17.626134935888778
42
0.41421356237306406
10
-38.403026514682992
20
-17.952775677107873
10
-37.905538052608371
20
-19.153819069372545
42
0.41421356237306362
10
-37.578897311389277
20
-19.289118094409098
10
-36.377853919124604
20
-18.79162963233448
42
0.414213562373066
10
-36.242554894088059
20
-18.464988891115386
0
CIRCLE
5
167
100
AcDbEntity
8
0
100
AcDbCircle
10
-37.322790704385525
20
-18.208882284111631
30
0
40
0.45000000000000012
210
0
220
0
230
1
0
CIRCLE
5
168
100
AcDbEntity
8
0
100
AcDbCircle
10
-31.105627304396236
20
-27.513524855968562
30
0
40
0.45000000000000012
210
0
220
0
230
1
0
CIRCLE
5
169
100
AcDbEntity
8
0
100
AcDbCircle
10
-31.105627304396236
20
-27.513524855968562
30
0
40
0.90000000000000024
210
0
220
0
230
1
0
CIRCLE
5
170
100
AcDbEntity
8
0
100
AcDbCircle
10
-29.309576080182403
20
-29.309576080182396
30
0
40
0.90000000000000024
210
0
220
0
230
1
0
CIRCLE
5
171
100
AcDbEntity
8
0
100
AcDbCircle
10
-29.309576080182403
20
-29.309576080182396
30
0
40
0.45000000000000012
210
0
220
0
230
1
0
LWPOLYLINE
5
172
100
AcDbEntity
8
0
100
AcDbPolyline
90
8
70
1
43
0.0
10
-27.336748160671938
20
-30.009611793557085
42
0.41421356237306561
10
-27.690301551265215
20
-30.009611793557085
10
-28.609540366807721
20
-30.928850609099591
42
0.414213562373073
10
-28.609540366807728
20
-31.282403999692868
10
-27.690301551265218
20
-32.201642815235381
42
0.414213562373073
10
-27.336748160671938
20
-32.201642815235374
10
-26.417509345129432
20
-31.282403999692864
42
0.41421356237306561
10
-26.417509345129432
20
-30.928850609099591
0
CIRCLE
5
173
100
AcDbEntity
8
0
100
AcDbCircle
10
-27.51352485596858
20
-31.105627304396229
30
0
40
0.45000000000000012
210
0
220
0
230
1
0
CIRCLE
5
174
100
AcDbEntity
8
0
100
AcDbCircle
10
-18.208882284111667
20
-37.322790704385504
30
0
40
0.45000000000000012
210
0
220
0
230
1
0
CIRCLE
5
175
100
AcDbEntity
8
0
100
AcDbCircle
10
-18.208882284111667
20
-37.322790704385504
30
0
40
0.90000000000000024
210
0
220
0
230
1
0
CIRCLE
5
176
100
AcDbEntity
8
0
100
AcDbCircle
10
-15.862228271532999
20
-38.29480662259283
30
0
40
0.90000000000000024
210
0
220
0
230
1
0
CIRCLE
5
177
100
AcDbEntity
8
0
100
AcDbCircle
10
-15.862228271532999
20
-38.29480662259283
30
0
40
0.45000000000000012
210
0
220
0
230
1
0
LWPOLYLINE
5
178
100
AcDbEntity
8
0
100
AcDbPolyline
90
8
70
1
43
0.0
10
-13.771680865958086
20
-38.186586730502697
42
0.4142135623730554
10
-14.098321607177176
20
-38.321885755539235
10
-14.59581006925179
20
-39.522929147803907
42
0.41421356237307383
10
-14.460511044215245
20
-39.849569889023009
10
-13.259467651950574
20
-40.347058351097623
42
0.41421356237307477
10
-12.932826910731476
20
-40.21175932606107
10
-12.435338448656863
20
-39.010715933796398
42
0.41421356237305745
10
-12.570637473693413
20
-38.684075192577311
0
CIRCLE
5
179
100
AcDbEntity
8
0
100
AcDbCircle
10
-13.515574258954327
20
-39.266822540800163
30
0
40
0.45000000000000012
210
0
220
0
230
1
0
CIRCLE
5
180
100
AcDbEntity
8
0
100
AcDbCircle
10
-2.5400000000000196
20
-41.450000000000017
30
0
40
0.45000000000000012
210
0
220
0
230
1
0
CIRCLE
5
181
100
AcDbEntity
8
0
100
AcDbCircle
10
-2.5400000000000196
20
-41.450000000000017
30
0
40
0.90000000000000024
210
0
220
0
230
1
0
CIRCLE
5
182
100
AcDbEntity
8
0
100
AcDbCircle
10
-1.8407497748285103e-14
20
-41.450000000000017
30
0
40
0.90000000000000024
210
0
220
0
230
1
0
CIRCLE
5
183
100
AcDbEntity
8
0
100
AcDbCircle
10
-1.8407497748285103e-14
20
-41.450000000000017
30
0
40
0.45000000000000012
210
0
220
0
230
1
0
LWPOLYLINE
5
184
100
AcDbEntity
8
0
100
AcDbPolyline
90
8
70
1
43
0.0
10
1.8899999999999826
20
-40.550000000000011
42
0.41421356237305895
10
1.6399999999999828
20
-40.800000000000011
10
1.6399999999999819
20
-42.100000000000009
42
0.41421356237306933
10
1.8899999999999815
20
-42.350000000000009
10
3.1899999999999817
20
-42.350000000000009
42
0.414213562373069
10
3.4399999999999817
20
-42.100000000000009
10
3.4399999999999817
20
-40.800000000000011
42
0.41421356237305862
10
3.1899999999999826
20
-40.550000000000011
0
CIRCLE
5
185
100
AcDbEntity
8
0
100
AcDbCircle
10
2.5399999999999818
20
-41.450000000000017
30
0
40
0.45000000000000012
210
0
220
0
230
1
0
CIRCLE
5
186
100
AcDbEntity
8
0
100
AcDbCircle
10
13.515574258954302
20
-39.266822540800192
30
0
40
0.45000000000000012
210
0
220
0
230
1
0
CIRCLE
5
187
100
AcDbEntity
8
0
100
AcDbCircle
10
13.515574258954302
20
-39.266822540800192
30
0
40
0.90000000000000024
210
0
220
0
230
1
0
CIRCLE
5
188
100
AcDbEntity
8
0
100
AcDbCircle
10
15.862228271532972
20
-38.294806622592859
30
0
40
0.90000000000000024
210
0
220
0
230
1
0
CIRCLE
5
189
100
AcDbEntity
8
0
100
AcDbCircle
10
15.862228271532972
20
-38.294806622592859
30
0
40
0.45000000000000012
210
0
220
0
230
1
0
LWPOLYLINE
5
190
100
AcDbEntity
8
0
100
AcDbPolyline
90
8
70
1
43
0.0
10
17.26394549885072
20
-36.74004335616268
42
0.41421356237306123
10
17.128646473814172
20
-37.066684097381774
10
17.626134935888789
20
-38.26772748964644
42
0.414213562373067
10
17.952775677107883
20
-38.403026514682992
10
19.153819069372556
20
-37.905538052608378
42
0.41421356237306467
10
19.289118094409105
20
-37.578897311389284
10
18.791629632334487
20
-36.377853919124611
42
0.414213562373066
10
18.464988891115397
20
-36.242554894088059
0
CIRCLE
5
191
100
AcDbEntity
8
0
100
AcDbCircle
10
18.208882284111642
20
-37.322790704385525
30
0
40
0.45000000000000012
210
0
220
0
230
1
0
CIRCLE
5
192
100
AcDbEntity
8
0
100
AcDbCircle
10
27.513524855968555
20
-31.105627304396247
30
0
40
0.45000000000000012
210
0
220
0
230
1
0
CIRCLE
5
193
100
AcDbEntity
8
0
100
AcDbCircle
10
27.513524855968555
20
-31.105627304396247
30
0
40
0.90000000000000024
210
0
220
0
230
1
0
CIRCLE
5
194
100
AcDbEntity
8
0
100
AcDbCircle
10
29.309576080182392
20
-29.309576080182413
30
0
40
0.90000000000000024
210
0
220
0
230
1
0
CIRCLE
5
195
100
AcDbEntity
8
0
100
AcDbCircle
10
29.309576080182392
20
-29.309576080182413
30
0
40
0.45000000000000012
210
0
220
0
230
1
0
LWPOLYLINE
5
196
100
AcDbEntity
8
0
100
AcDbPolyline
90
8
70
1
43
0.0
10
30.009611793557077
20
-27.336748160671949
42
0.41421356237306561
10
30.009611793557077
20
-27.690301551265222
10
30.928850609099587
20
-28.609540366807732
42
0.414213562373073
10
31.282403999692864
20
-28.609540366807735
10
32.201642815235381
20
-27.690301551265225
42
0.41421356237306561
10
32.201642815235374
20
-27.336748160671949
10
31.28240399969286
20
-26.417509345129439
42
0.41421356237306195
10
30.928850609099591
20
-26.417509345129439
0
CIRCLE
5
197
100
AcDbEntity
8
0
100
AcDbCircle
10
31.105627304396229
20
-27.513524855968591
30
0
40
0.45000000000000012
210
0
220
0
230
1
0
CIRCLE
5
198
100
AcDbEntity
8
0
100
AcDbCircle
10
37.322790704385504
20
-18.208882284111681
30
0
40
0.45000000000000012
210
0
220
0
230
1
0
CIRCLE
5
199
100
AcDbEntity
8
0
100
AcDbCircle
10
37.322790704385504
20
-18.208882284111681
30
0
40
0.90000000000000024
210
0
220
0
230
1
0
CIRCLE
5
200
100
AcDbEntity
8
0
100
AcDbCircle
10
38.294806622592837
20
-15.862228271533015
30
0
40
0.90000000000000024
210
0
220
0
230
1
0
CIRCLE
5
201
100
AcDbEntity
8
0
100
AcDbCircle
10
38.294806622592837
20
-15.862228271533015
30
0
40
0.45000000000000012
210
0
220
0
230
1
0
LWPOLYLINE
5
202
100
AcDbEntity
8
0
100
AcDbPolyline
90
8
70
1
43
0.0
10
38.186586730502697
20
-13.7716808659581
42
0.4142135623730554
10
38.321885755539242
20
-14.098321607177191
10
39.522929147803914
20
-14.595810069251808
42
0.41421356237307283
10
39.849569889023016
20
-14.460511044215261
10
40.34705835109763
20
-13.259467651950587
42
0.41421356237307144
10
40.211759326061085
20
-12.932826910731494
10
39.010715933796405
20
-12.435338448656877
42
0.41421356237305879
10
38.684075192577311
20
-12.570637473693427
0
CIRCLE
5
203
100
AcDbEntity
8
0
100
AcDbCircle
10
39.266822540800163
20
-13.515574258954343
30
0
40
0.45000000000000012
210
0
220
0
230
1
0
CIRCLE
5
204
100
AcDbEntity
8
0
100
AcDbCircle
10
11.430000000000007
20
16.501000000000005
30
0
40
0.49999999999999956
210
0
220
0
230
1
0
CIRCLE
5
205
100
AcDbEntity
8
0
100
AcDbCircle
10
8.8900000000000059
20
16.501000000000005
30
0
40
0.49999999999999956
210
0
220
0
230
1
0
CIRCLE
5
206
100
AcDbEntity
8
0
100
AcDbCircle
10
8.8900000000000059
20
16.501000000000005
30
0
40
0.84999999999999976
210
0
220
0
230
1
0
CIRCLE
5
207
100
AcDbEntity
8
0
100
AcDbCircle
10
6.350000000000005
20
16.501000000000005
30
0
40
0.49999999999999956
210
0
220
0
230
1
0
CIRCLE
5
208
100
AcDbEntity
8
0
100
AcDbCircle
10
6.350000000000005
20
16.501000000000005
30
0
40
0.84999999999999976
210
0
220
0
230
1
0
CIRCLE
5
209
100
AcDbEntity
8
0
100
AcDbCircle
10
3.8100000000000049
20
16.501000000000005
30
0
40
0.49999999999999956
210
0
220
0
230
1
0
CIRCLE
5
210
100
AcDbEntity
8
0
100
AcDbCircle
10
3.8100000000000049
20
16.501000000000005
30
0
40
0.84999999999999976
210
0
220
0
230
1
0
CIRCLE
5
211
100
AcDbEntity
8
0
100
AcDbCircle
10
1.270000000000004
20
16.501000000000005
30
0
40
0.49999999999999956
210
0
220
0
230
1
0
CIRCLE
5
212
100
AcDbEntity
8
0
100
AcDbCircle
10
1.270000000000004
20
16.501000000000005
30
0
40
0.84999999999999976
210
0
220
0
230
1
0
CIRCLE
5
213
100
AcDbEntity
8
0
100
AcDbCircle
10
-1.2699999999999967
20
16.501000000000005
30
0
40
0.49999999999999956
210
0
220
0
230
1
0
CIRCLE
5
214
100
AcDbEntity
8
0
100
AcDbCircle
10
-1.2699999999999967
20
16.501000000000005
30
0
40
0.84999999999999976
210
0
220
0
230
1
0
CIRCLE
5
215
100
AcDbEntity
8
0
100
AcDbCircle
10
-3.8099999999999974
20
16.501000000000005
30
0
40
0.49999999999999956
210
0
220
0
230
1
0
CIRCLE
5
216
100
AcDbEntity
8
0
100
AcDbCircle
10
-3.8099999999999974
20
16.501000000000005
30
0
40
0.84999999999999976
210
0
220
0
230
1
0
CIRCLE
5
217
100
AcDbEntity
8
0
100
AcDbCircle
10
-6.3499999999999979
20
16.501000000000008
30
0
40
0.49999999999999956
210
0
220
0
230
1
0
CIRCLE
5
218
100
AcDbEntity
8
0
100
AcDbCircle
10
-6.3499999999999979
20
16.501000000000008
30
0
40
0.84999999999999976
210
0
220
0
230
1
0
CIRCLE
5
219
100
AcDbEntity
8
0
100
AcDbCircle
10
-8.8899999999999988
20
16.501000000000008
30
0
40
0.49999999999999956
210
0
220
0
230
1
0
CIRCLE
5
220
100
AcDbEntity
8
0
100
AcDbCircle
10
-8.8899999999999988
20
16.501000000000008
30
0
40
0.84999999999999976
210
0
220
0
230
1
0
CIRCLE
5
221
100
AcDbEntity
8
0
100
AcDbCircle
10
-11.429999999999998
20
16.501000000000008
30
0
40
0.49999999999999956
210
0
220
0
230
1
0
CIRCLE
5
222
100
AcDbEntity
8
0
100
AcDbCircle
10
-11.429999999999998
20
16.501000000000008
30
0
40
0.84999999999999976
210
0
220
0
230
1
0
CIRCLE
5
223
100
AcDbEntity
8
0
100
AcDbCircle
10
6.3500000000000059
20
19.041000000000004
30
0
40
0.49999999999999956
210
0
220
0
230
1
0
CIRCLE
5
224
100
AcDbEntity
8
0
100
AcDbCircle
10
6.3500000000000059
20
19.041000000000004
30
0
40
0.84999999999999976
210
0
220
0
230
1
0
CIRCLE
5
225
100
AcDbEntity
8
0
100
AcDbCircle
10
3.8100000000000058
20
19.041000000000004
30
0
40
0.49999999999999956
210
0
220
0
230
1
0
CIRCLE
5
226
100
AcDbEntity
8
0
100
AcDbCircle
10
-6.349999999999997
20
19.041000000000007
30
0
40
0.84999999999999976
210
0
220
0
230
1
0
CIRCLE
5
227
100
AcDbEntity
8
0
100
AcDbCircle
10
11.430000000000007
20
19.041000000000004
30
0
40
0.84999999999999976
210
0
220
0
230
1
0
CIRCLE
5
228
100
AcDbEntity
8
0
100
AcDbCircle
10
1.2700000000000045
20
19.041000000000004
30
0
40
0.49999999999999956
210
0
220
0
230
1
0
CIRCLE
5
229
100
AcDbEntity
8
0
100
AcDbCircle
10
-8.889999999999997
20
19.041000000000007
30
0
40
0.84999999999999976
210
0
220
0
230
1
0
CIRCLE
5
230
100
AcDbEntity
8
0
100
AcDbCircle
10
-11.429999999999998
20
19.041000000000007
30
0
40
0.84999999999999976
210
0
220
0
230
1
0
CIRCLE
5
231
100
AcDbEntity
8
0
100
AcDbCircle
10
-8.889999999999997
20
19.041000000000007
30
0
40
0.49999999999999956
210
0
220
0
230
1
0
CIRCLE
5
232
100
AcDbEntity
8
0
100
AcDbCircle
10
-1.269999999999996
20
19.041000000000004
30
0
40
0.49999999999999956
210
0
220
0
230
1
0
CIRCLE
5
233
100
AcDbEntity
8
0
100
AcDbCircle
10
-3.8099999999999969
20
19.041000000000004
30
0
40
0.84999999999999976
210
0
220
0
230
1
0
CIRCLE
5
234
100
AcDbEntity
8
0
100
AcDbCircle
10
8.8900000000000077
20
19.041000000000004
30
0
40
0.84999999999999976
210
0
220
0
230
1
0
CIRCLE
5
235
100
AcDbEntity
8
0
100
AcDbCircle
10
-6.349999999999997
20
19.041000000000007
30
0
40
0.49999999999999956
210
0
220
0
230
1
0
CIRCLE
5
236
100
AcDbEntity
8
0
100
AcDbCircle
10
-1.269999999999996
20
19.041000000000004
30
0
40
0.84999999999999976
210
0
220
0
230
1
0
CIRCLE
5
237
100
AcDbEntity
8
0
100
AcDbCircle
10
-3.8099999999999969
20
19.041000000000004
30
0
40
0.49999999999999956
210
0
220
0
230
1
0
CIRCLE
5
238
100
AcDbEntity
8
0
100
AcDbCircle
10
8.8900000000000077
20
19.041000000000004
30
0
40
0.49999999999999956
210
0
220
0
230
1
0
CIRCLE
5
239
100
AcDbEntity
8
0
100
AcDbCircle
10
1.2700000000000045
20
19.041000000000004
30
0
40
0.84999999999999976
210
0
220
0
230
1
0
CIRCLE
5
240
100
AcDbEntity
8
0
100
AcDbCircle
10
-11.429999999999998
20
19.041000000000007
30
0
40
0.49999999999999956
210
0
220
0
230
1
0
CIRCLE
5
241
100
AcDbEntity
8
0
100
AcDbCircle
10
11.430000000000007
20
19.041000000000004
30
0
40
0.49999999999999956
210
0
220
0
230
1
0
CIRCLE
5
242
100
AcDbEntity
8
0
100
AcDbCircle
10
3.8100000000000058
20
19.041000000000004
30
0
40
0.84999999999999976
210
0
220
0
230
1
0
LWPOLYLINE
5
243
100
AcDbEntity
8
0
100
AcDbPolyline
90
8
70
1
43
0.0
10
12.280000000000006
20
15.901000000000003
10
12.280000000000006
20
17.101000000000003
42
0.41421356237309503
10
12.030000000000008
20
17.351000000000003
10
10.830000000000005
20
17.351000000000003
42
0.41421356237309503
10
10.580000000000007
20
17.101000000000003
10
10.580000000000007
20
15.901000000000003
42
0.41421356237309503
10
10.830000000000005
20
15.651000000000003
10
12.030000000000008
20
15.651000000000003
42
0.41421356237309503
0
ENDSEC
0
SECTION
2
OBJECTS
0
DICTIONARY
5
C
100
AcDbDictionary
3
ACAD_GROUP
350
D
3
ACAD_MLINESTYLE
350
17
0
DICTIONARY
5
D
100
AcDbDictionary
0
DICTIONARY
5
1A
330
C
100
AcDbDictionary
0
DICTIONARY
5
17
100
AcDbDictionary
0
ENDSEC
0
EOF
