<?xml version="1.0" standalone="no"?>
<!DOCTYPE svg PUBLIC "-//W3C//DTD SVG 20010904//EN"
 "http://www.w3.org/TR/2001/REC-SVG-20010904/DTD/svg10.dtd">
<svg version="1.0" xmlns="http://www.w3.org/2000/svg"
 width="525.000000pt" height="525.000000pt" viewBox="0 0 525.000000 525.000000"
 preserveAspectRatio="xMidYMid meet">

<g transform="translate(0.000000,525.000000) scale(0.100000,-0.100000)"
fill="#000000" stroke="none">
<path d="M545 4786 c-37 -16 -70 -52 -84 -89 -7 -18 -11 -168 -11 -425 0 -369
2 -400 19 -439 14 -30 31 -48 60 -62 39 -20 56 -21 453 -21 394 0 414 1 446
20 18 11 41 34 52 52 19 32 20 52 20 446 0 397 -1 414 -21 453 -14 29 -32 46
-62 60 -39 17 -70 19 -442 18 -311 0 -407 -3 -430 -13z m722 -155 c30 -14 48
-31 62 -60 20 -38 21 -57 21 -303 0 -245 -1 -265 -20 -296 -11 -18 -34 -41
-52 -52 -31 -19 -51 -20 -296 -20 -393 0 -381 -12 -382 372 0 256 4 284 43
327 43 47 66 50 332 50 225 1 254 -1 292 -18z"/>
<path d="M845 4486 c-73 -32 -95 -83 -95 -214 1 -183 41 -222 232 -222 127 0
162 13 198 72 17 28 20 51 20 146 0 192 -38 232 -225 231 -61 0 -112 -5 -130
-13z"/>
<path d="M3845 4786 c-37 -16 -70 -52 -84 -89 -7 -18 -11 -168 -11 -425 0
-369 2 -400 19 -439 14 -30 31 -48 60 -62 39 -20 56 -21 453 -21 394 0 414 1
446 20 18 11 41 34 52 52 19 32 20 52 20 446 0 397 -1 414 -21 453 -14 29 -32
46 -62 60 -39 17 -70 19 -442 18 -311 0 -407 -3 -430 -13z m722 -155 c30 -14
48 -31 62 -60 20 -38 21 -57 21 -303 0 -245 -1 -265 -20 -296 -11 -18 -34 -41
-52 -52 -31 -19 -51 -20 -296 -20 -393 0 -381 -12 -382 372 0 256 4 284 43
327 43 47 66 50 332 50 225 1 254 -1 292 -18z"/>
<path d="M4145 4486 c-73 -32 -95 -83 -95 -214 1 -183 41 -222 232 -222 95 0
118 3 146 20 59 36 72 71 72 198 0 192 -38 232 -225 231 -61 0 -112 -5 -130
-13z"/>
<path d="M1698 4779 c-72 -41 -18 -145 57 -111 46 21 45 90 -1 110 -30 14 -34
14 -56 1z"/>
<path d="M1848 4779 c-72 -41 -18 -145 57 -111 46 21 45 90 -1 110 -30 14 -34
14 -56 1z"/>
<path d="M1998 4779 c-72 -41 -18 -145 57 -111 46 21 45 90 -1 110 -30 14 -34
14 -56 1z"/>
<path d="M2148 4779 c-72 -41 -18 -145 57 -111 46 21 45 90 -1 110 -30 14 -34
14 -56 1z"/>
<path d="M2598 4779 c-72 -41 -18 -145 57 -111 46 21 45 90 -1 110 -30 14 -34
14 -56 1z"/>
<path d="M3198 4779 c-72 -41 -18 -145 57 -111 46 21 45 90 -1 110 -30 14 -34
14 -56 1z"/>
<path d="M2148 4629 c-72 -41 -18 -145 57 -111 46 21 45 90 -1 110 -30 14 -34
14 -56 1z"/>
<path d="M2298 4629 c-72 -41 -18 -145 57 -111 46 21 45 90 -1 110 -30 14 -34
14 -56 1z"/>
<path d="M3198 4629 c-72 -41 -18 -145 57 -111 46 21 45 90 -1 110 -30 14 -34
14 -56 1z"/>
<path d="M3348 4629 c-72 -41 -18 -145 57 -111 46 21 45 90 -1 110 -30 14 -34
14 -56 1z"/>
<path d="M3498 4629 c-72 -41 -18 -145 57 -111 46 21 45 90 -1 110 -30 14 -34
14 -56 1z"/>
<path d="M1848 4479 c-72 -41 -18 -145 57 -111 46 21 45 90 -1 110 -30 14 -34
14 -56 1z"/>
<path d="M2148 4479 c-72 -41 -18 -145 57 -111 46 21 45 90 -1 110 -30 14 -34
14 -56 1z"/>
<path d="M2448 4479 c-72 -41 -18 -145 57 -111 46 21 45 90 -1 110 -30 14 -34
14 -56 1z"/>
<path d="M2598 4479 c-72 -41 -18 -145 57 -111 46 21 45 90 -1 110 -30 14 -34
14 -56 1z"/>
<path d="M2898 4479 c-72 -41 -18 -145 57 -111 46 21 45 90 -1 110 -30 14 -34
14 -56 1z"/>
<path d="M1998 4329 c-72 -41 -18 -145 57 -111 46 21 45 90 -1 110 -30 14 -34
14 -56 1z"/>
<path d="M2148 4329 c-72 -41 -18 -145 57 -111 46 21 45 90 -1 110 -30 14 -34
14 -56 1z"/>
<path d="M2298 4329 c-72 -41 -18 -145 57 -111 46 21 45 90 -1 110 -30 14 -34
14 -56 1z"/>
<path d="M2448 4329 c-72 -41 -18 -145 57 -111 46 21 45 90 -1 110 -30 14 -34
14 -56 1z"/>
<path d="M3048 4329 c-72 -41 -18 -145 57 -111 46 21 45 90 -1 110 -30 14 -34
14 -56 1z"/>
<path d="M3198 4329 c-72 -41 -18 -145 57 -111 46 21 45 90 -1 110 -30 14 -34
14 -56 1z"/>
<path d="M3348 4329 c-72 -41 -18 -145 57 -111 46 21 45 90 -1 110 -30 14 -34
14 -56 1z"/>
<path d="M3498 4329 c-72 -41 -18 -145 57 -111 46 21 45 90 -1 110 -30 14 -34
14 -56 1z"/>
<path d="M1998 4179 c-72 -41 -18 -145 57 -111 46 21 45 90 -1 110 -30 14 -34
14 -56 1z"/>
<path d="M2148 4179 c-72 -41 -18 -145 57 -111 46 21 45 90 -1 110 -30 14 -34
14 -56 1z"/>
<path d="M2298 4179 c-72 -41 -18 -145 57 -111 46 21 45 90 -1 110 -30 14 -34
14 -56 1z"/>
<path d="M2448 4179 c-72 -41 -18 -145 57 -111 46 21 45 90 -1 110 -30 14 -34
14 -56 1z"/>
<path d="M2598 4179 c-72 -41 -18 -145 57 -111 46 21 45 90 -1 110 -30 14 -34
14 -56 1z"/>
<path d="M2898 4179 c-72 -41 -18 -145 57 -111 46 21 45 90 -1 110 -30 14 -34
14 -56 1z"/>
<path d="M3198 4179 c-72 -41 -18 -145 57 -111 46 21 45 90 -1 110 -30 14 -34
14 -56 1z"/>
<path d="M3348 4179 c-72 -41 -18 -145 57 -111 46 21 45 90 -1 110 -30 14 -34
14 -56 1z"/>
<path d="M1848 4029 c-72 -41 -18 -145 57 -111 46 21 45 90 -1 110 -30 14 -34
14 -56 1z"/>
<path d="M2148 4029 c-72 -41 -18 -145 57 -111 46 21 45 90 -1 110 -30 14 -34
14 -56 1z"/>
<path d="M2598 4029 c-72 -41 -18 -145 57 -111 46 21 45 90 -1 110 -30 14 -34
14 -56 1z"/>
<path d="M2898 4029 c-72 -41 -18 -145 57 -111 46 21 45 90 -1 110 -30 14 -34
14 -56 1z"/>
<path d="M3048 4029 c-72 -41 -18 -145 57 -111 46 21 45 90 -1 110 -30 14 -34
14 -56 1z"/>
<path d="M3498 4029 c-72 -41 -18 -145 57 -111 46 21 45 90 -1 110 -30 14 -34
14 -56 1z"/>
<path d="M1698 3879 c-72 -41 -18 -145 57 -111 46 21 45 90 -1 110 -30 14 -34
14 -56 1z"/>
<path d="M1998 3879 c-72 -41 -18 -145 57 -111 46 21 45 90 -1 110 -30 14 -34
14 -56 1z"/>
<path d="M2298 3879 c-72 -41 -18 -145 57 -111 46 21 45 90 -1 110 -30 14 -34
14 -56 1z"/>
<path d="M2598 3879 c-72 -41 -18 -145 57 -111 46 21 45 90 -1 110 -30 14 -34
14 -56 1z"/>
<path d="M2898 3879 c-72 -41 -18 -145 57 -111 46 21 45 90 -1 110 -30 14 -34
14 -56 1z"/>
<path d="M3198 3879 c-72 -41 -18 -145 57 -111 46 21 45 90 -1 110 -30 14 -34
14 -56 1z"/>
<path d="M3498 3879 c-72 -41 -18 -145 57 -111 46 21 45 90 -1 110 -30 14 -34
14 -56 1z"/>
<path d="M1698 3729 c-72 -41 -18 -145 57 -111 46 21 45 90 -1 110 -30 14 -34
14 -56 1z"/>
<path d="M1848 3729 c-72 -41 -18 -145 57 -111 46 21 45 90 -1 110 -30 14 -34
14 -56 1z"/>
<path d="M2148 3729 c-72 -41 -18 -145 57 -111 46 21 45 90 -1 110 -30 14 -34
14 -56 1z"/>
<path d="M2448 3729 c-72 -41 -18 -145 57 -111 46 21 45 90 -1 110 -30 14 -34
14 -56 1z"/>
<path d="M2598 3729 c-72 -41 -18 -145 57 -111 46 21 45 90 -1 110 -30 14 -34
14 -56 1z"/>
<path d="M2898 3729 c-72 -41 -18 -145 57 -111 46 21 45 90 -1 110 -30 14 -34
14 -56 1z"/>
<path d="M3348 3729 c-72 -41 -18 -145 57 -111 46 21 45 90 -1 110 -30 14 -34
14 -56 1z"/>
<path d="M498 3579 c-72 -41 -18 -145 57 -111 46 21 45 90 -1 110 -30 14 -34
14 -56 1z"/>
<path d="M648 3579 c-72 -41 -18 -145 57 -111 46 21 45 90 -1 110 -30 14 -34
14 -56 1z"/>
<path d="M948 3579 c-72 -41 -18 -145 57 -111 46 21 45 90 -1 110 -30 14 -34
14 -56 1z"/>
<path d="M1098 3579 c-72 -41 -18 -145 57 -111 46 21 45 90 -1 110 -30 14 -34
14 -56 1z"/>
<path d="M1398 3579 c-72 -41 -18 -145 57 -111 46 21 45 90 -1 110 -30 14 -34
14 -56 1z"/>
<path d="M1848 3579 c-72 -41 -18 -145 57 -111 46 21 45 90 -1 110 -30 14 -34
14 -56 1z"/>
<path d="M2148 3579 c-72 -41 -18 -145 57 -111 46 21 45 90 -1 110 -30 14 -34
14 -56 1z"/>
<path d="M2298 3579 c-72 -41 -18 -145 57 -111 46 21 45 90 -1 110 -30 14 -34
14 -56 1z"/>
<path d="M2598 3579 c-72 -41 -18 -145 57 -111 46 21 45 90 -1 110 -30 14 -34
14 -56 1z"/>
<path d="M2748 3579 c-72 -41 -18 -145 57 -111 46 21 45 90 -1 110 -30 14 -34
14 -56 1z"/>
<path d="M3348 3579 c-72 -41 -18 -145 57 -111 46 21 45 90 -1 110 -30 14 -34
14 -56 1z"/>
<path d="M3498 3579 c-72 -41 -18 -145 57 -111 46 21 45 90 -1 110 -30 14 -34
14 -56 1z"/>
<path d="M3798 3579 c-72 -41 -18 -145 57 -111 46 21 45 90 -1 110 -30 14 -34
14 -56 1z"/>
<path d="M4698 3579 c-72 -41 -18 -145 57 -111 46 21 45 90 -1 110 -30 14 -34
14 -56 1z"/>
<path d="M1098 3429 c-72 -41 -18 -145 57 -111 46 21 45 90 -1 110 -30 14 -34
14 -56 1z"/>
<path d="M1248 3429 c-72 -41 -18 -145 57 -111 46 21 45 90 -1 110 -30 14 -34
14 -56 1z"/>
<path d="M1998 3429 c-72 -41 -18 -145 57 -111 46 21 45 90 -1 110 -30 14 -34
14 -56 1z"/>
<path d="M2148 3429 c-72 -41 -18 -145 57 -111 46 21 45 90 -1 110 -30 14 -34
14 -56 1z"/>
<path d="M2298 3429 c-72 -41 -18 -145 57 -111 46 21 45 90 -1 110 -30 14 -34
14 -56 1z"/>
<path d="M2448 3429 c-72 -41 -18 -145 57 -111 46 21 45 90 -1 110 -30 14 -34
14 -56 1z"/>
<path d="M2598 3429 c-72 -41 -18 -145 57 -111 46 21 45 90 -1 110 -30 14 -34
14 -56 1z"/>
<path d="M2748 3429 c-72 -41 -18 -145 57 -111 46 21 45 90 -1 110 -30 14 -34
14 -56 1z"/>
<path d="M3348 3429 c-72 -41 -18 -145 57 -111 46 21 45 90 -1 110 -30 14 -34
14 -56 1z"/>
<path d="M3648 3429 c-72 -41 -18 -145 57 -111 46 21 45 90 -1 110 -30 14 -34
14 -56 1z"/>
<path d="M3948 3429 c-72 -41 -18 -145 57 -111 46 21 45 90 -1 110 -30 14 -34
14 -56 1z"/>
<path d="M4098 3429 c-72 -41 -18 -145 57 -111 46 21 45 90 -1 110 -30 14 -34
14 -56 1z"/>
<path d="M4398 3429 c-72 -41 -18 -145 57 -111 46 21 45 90 -1 110 -30 14 -34
14 -56 1z"/>
<path d="M4548 3429 c-72 -41 -18 -145 57 -111 46 21 45 90 -1 110 -30 14 -34
14 -56 1z"/>
<path d="M498 3279 c-72 -41 -18 -145 57 -111 46 21 45 90 -1 110 -30 14 -34
14 -56 1z"/>
<path d="M798 3279 c-72 -41 -18 -145 57 -111 46 21 45 90 -1 110 -30 14 -34
14 -56 1z"/>
<path d="M948 3279 c-72 -41 -18 -145 57 -111 46 21 45 90 -1 110 -30 14 -34
14 -56 1z"/>
<path d="M1398 3279 c-72 -41 -18 -145 57 -111 46 21 45 90 -1 110 -30 14 -34
14 -56 1z"/>
<path d="M1548 3279 c-72 -41 -18 -145 57 -111 46 21 45 90 -1 110 -30 14 -34
14 -56 1z"/>
<path d="M1848 3279 c-72 -41 -18 -145 57 -111 46 21 45 90 -1 110 -30 14 -34
14 -56 1z"/>
<path d="M2148 3279 c-72 -41 -18 -145 57 -111 46 21 45 90 -1 110 -30 14 -34
14 -56 1z"/>
<path d="M2298 3279 c-72 -41 -18 -145 57 -111 46 21 45 90 -1 110 -30 14 -34
14 -56 1z"/>
<path d="M2748 3279 c-72 -41 -18 -145 57 -111 46 21 45 90 -1 110 -30 14 -34
14 -56 1z"/>
<path d="M3048 3279 c-72 -41 -18 -145 57 -111 46 21 45 90 -1 110 -30 14 -34
14 -56 1z"/>
<path d="M3948 3279 c-72 -41 -18 -145 57 -111 46 21 45 90 -1 110 -30 14 -34
14 -56 1z"/>
<path d="M4098 3279 c-72 -41 -18 -145 57 -111 46 21 45 90 -1 110 -30 14 -34
14 -56 1z"/>
<path d="M4398 3279 c-72 -41 -18 -145 57 -111 46 21 45 90 -1 110 -30 14 -34
14 -56 1z"/>
<path d="M498 3129 c-72 -41 -18 -145 57 -111 46 21 45 90 -1 110 -30 14 -34
14 -56 1z"/>
<path d="M948 3129 c-72 -41 -18 -145 57 -111 46 21 45 90 -1 110 -30 14 -34
14 -56 1z"/>
<path d="M1248 3129 c-72 -41 -18 -145 57 -111 46 21 45 90 -1 110 -30 14 -34
14 -56 1z"/>
<path d="M1548 3129 c-72 -41 -18 -145 57 -111 46 21 45 90 -1 110 -30 14 -34
14 -56 1z"/>
<path d="M1698 3129 c-72 -41 -18 -145 57 -111 46 21 45 90 -1 110 -30 14 -34
14 -56 1z"/>
<path d="M2148 3129 c-72 -41 -18 -145 57 -111 46 21 45 90 -1 110 -30 14 -34
14 -56 1z"/>
<path d="M2748 3129 c-72 -41 -18 -145 57 -111 46 21 45 90 -1 110 -30 14 -34
14 -56 1z"/>
<path d="M3048 3129 c-72 -41 -18 -145 57 -111 46 21 45 90 -1 110 -30 14 -34
14 -56 1z"/>
<path d="M3198 3129 c-72 -41 -18 -145 57 -111 46 21 45 90 -1 110 -30 14 -34
14 -56 1z"/>
<path d="M3648 3129 c-72 -41 -18 -145 57 -111 46 21 45 90 -1 110 -30 14 -34
14 -56 1z"/>
<path d="M3798 3129 c-72 -41 -18 -145 57 -111 46 21 45 90 -1 110 -30 14 -34
14 -56 1z"/>
<path d="M3948 3129 c-72 -41 -18 -145 57 -111 46 21 45 90 -1 110 -30 14 -34
14 -56 1z"/>
<path d="M4248 3129 c-72 -41 -18 -145 57 -111 46 21 45 90 -1 110 -30 14 -34
14 -56 1z"/>
<path d="M4698 3129 c-72 -41 -18 -145 57 -111 46 21 45 90 -1 110 -30 14 -34
14 -56 1z"/>
<path d="M798 2979 c-72 -41 -18 -145 57 -111 46 21 45 90 -1 110 -30 14 -34
14 -56 1z"/>
<path d="M1398 2979 c-72 -41 -18 -145 57 -111 46 21 45 90 -1 110 -30 14 -34
14 -56 1z"/>
<path d="M1848 2979 c-72 -41 -18 -145 57 -111 46 21 45 90 -1 110 -30 14 -34
14 -56 1z"/>
<path d="M1998 2979 c-72 -41 -18 -145 57 -111 46 21 45 90 -1 110 -30 14 -34
14 -56 1z"/>
<path d="M2298 2979 c-72 -41 -18 -145 57 -111 46 21 45 90 -1 110 -30 14 -34
14 -56 1z"/>
<path d="M2898 2979 c-72 -41 -18 -145 57 -111 46 21 45 90 -1 110 -30 14 -34
14 -56 1z"/>
<path d="M3798 2979 c-72 -41 -18 -145 57 -111 46 21 45 90 -1 110 -30 14 -34
14 -56 1z"/>
<path d="M3948 2979 c-72 -41 -18 -145 57 -111 46 21 45 90 -1 110 -30 14 -34
14 -56 1z"/>
<path d="M4698 2979 c-72 -41 -18 -145 57 -111 46 21 45 90 -1 110 -30 14 -34
14 -56 1z"/>
<path d="M498 2829 c-72 -41 -18 -145 57 -111 46 21 45 90 -1 110 -30 14 -34
14 -56 1z"/>
<path d="M648 2829 c-72 -41 -18 -145 57 -111 46 21 45 90 -1 110 -30 14 -34
14 -56 1z"/>
<path d="M948 2829 c-72 -41 -18 -145 57 -111 46 21 45 90 -1 110 -30 14 -34
14 -56 1z"/>
<path d="M1098 2829 c-72 -41 -18 -145 57 -111 46 21 45 90 -1 110 -30 14 -34
14 -56 1z"/>
<path d="M1998 2829 c-72 -41 -18 -145 57 -111 46 21 45 90 -1 110 -30 14 -34
14 -56 1z"/>
<path d="M2148 2829 c-72 -41 -18 -145 57 -111 46 21 45 90 -1 110 -30 14 -34
14 -56 1z"/>
<path d="M2448 2829 c-72 -41 -18 -145 57 -111 46 21 45 90 -1 110 -30 14 -34
14 -56 1z"/>
<path d="M2598 2829 c-72 -41 -18 -145 57 -111 46 21 45 90 -1 110 -30 14 -34
14 -56 1z"/>
<path d="M2748 2829 c-72 -41 -18 -145 57 -111 46 21 45 90 -1 110 -30 14 -34
14 -56 1z"/>
<path d="M2898 2829 c-72 -41 -18 -145 57 -111 46 21 45 90 -1 110 -30 14 -34
14 -56 1z"/>
<path d="M3198 2829 c-72 -41 -18 -145 57 -111 46 21 45 90 -1 110 -30 14 -34
14 -56 1z"/>
<path d="M3348 2829 c-72 -41 -18 -145 57 -111 46 21 45 90 -1 110 -30 14 -34
14 -56 1z"/>
<path d="M3798 2829 c-72 -41 -18 -145 57 -111 46 21 45 90 -1 110 -30 14 -34
14 -56 1z"/>
<path d="M3948 2829 c-72 -41 -18 -145 57 -111 46 21 45 90 -1 110 -30 14 -34
14 -56 1z"/>
<path d="M4098 2829 c-72 -41 -18 -145 57 -111 46 21 45 90 -1 110 -30 14 -34
14 -56 1z"/>
<path d="M4248 2829 c-72 -41 -18 -145 57 -111 46 21 45 90 -1 110 -30 14 -34
14 -56 1z"/>
<path d="M4398 2829 c-72 -41 -18 -145 57 -111 46 21 45 90 -1 110 -30 14 -34
14 -56 1z"/>
<path d="M4548 2829 c-72 -41 -18 -145 57 -111 46 21 45 90 -1 110 -30 14 -34
14 -56 1z"/>
<path d="M4698 2829 c-72 -41 -18 -145 57 -111 46 21 45 90 -1 110 -30 14 -34
14 -56 1z"/>
<path d="M498 2679 c-72 -41 -18 -145 57 -111 46 21 45 90 -1 110 -30 14 -34
14 -56 1z"/>
<path d="M798 2679 c-72 -41 -18 -145 57 -111 46 21 45 90 -1 110 -30 14 -34
14 -56 1z"/>
<path d="M1398 2679 c-72 -41 -18 -145 57 -111 46 21 45 90 -1 110 -30 14 -34
14 -56 1z"/>
<path d="M1548 2679 c-72 -41 -18 -145 57 -111 46 21 45 90 -1 110 -30 14 -34
14 -56 1z"/>
<path d="M1698 2679 c-72 -41 -18 -145 57 -111 46 21 45 90 -1 110 -30 14 -34
14 -56 1z"/>
<path d="M1998 2679 c-72 -41 -18 -145 57 -111 46 21 45 90 -1 110 -30 14 -34
14 -56 1z"/>
<path d="M2448 2679 c-72 -41 -18 -145 57 -111 46 21 45 90 -1 110 -30 14 -34
14 -56 1z"/>
<path d="M2598 2679 c-72 -41 -18 -145 57 -111 46 21 45 90 -1 110 -30 14 -34
14 -56 1z"/>
<path d="M2748 2679 c-72 -41 -18 -145 57 -111 46 21 45 90 -1 110 -30 14 -34
14 -56 1z"/>
<path d="M3348 2679 c-72 -41 -18 -145 57 -111 46 21 45 90 -1 110 -30 14 -34
14 -56 1z"/>
<path d="M3498 2679 c-72 -41 -18 -145 57 -111 46 21 45 90 -1 110 -30 14 -34
14 -56 1z"/>
<path d="M3648 2679 c-72 -41 -18 -145 57 -111 46 21 45 90 -1 110 -30 14 -34
14 -56 1z"/>
<path d="M3798 2679 c-72 -41 -18 -145 57 -111 46 21 45 90 -1 110 -30 14 -34
14 -56 1z"/>
<path d="M4098 2679 c-72 -41 -18 -145 57 -111 46 21 45 90 -1 110 -30 14 -34
14 -56 1z"/>
<path d="M4398 2679 c-72 -41 -18 -145 57 -111 46 21 45 90 -1 110 -30 14 -34
14 -56 1z"/>
<path d="M4698 2679 c-72 -41 -18 -145 57 -111 46 21 45 90 -1 110 -30 14 -34
14 -56 1z"/>
<path d="M648 2529 c-72 -41 -18 -145 57 -111 46 21 45 90 -1 110 -30 14 -34
14 -56 1z"/>
<path d="M798 2529 c-72 -41 -18 -145 57 -111 46 21 45 90 -1 110 -30 14 -34
14 -56 1z"/>
<path d="M948 2529 c-72 -41 -18 -145 57 -111 46 21 45 90 -1 110 -30 14 -34
14 -56 1z"/>
<path d="M1548 2529 c-72 -41 -18 -145 57 -111 46 21 45 90 -1 110 -30 14 -34
14 -56 1z"/>
<path d="M1998 2529 c-72 -41 -18 -145 57 -111 46 21 45 90 -1 110 -30 14 -34
14 -56 1z"/>
<path d="M2298 2529 c-72 -41 -18 -145 57 -111 46 21 45 90 -1 110 -30 14 -34
14 -56 1z"/>
<path d="M2748 2529 c-72 -41 -18 -145 57 -111 46 21 45 90 -1 110 -30 14 -34
14 -56 1z"/>
<path d="M3348 2529 c-72 -41 -18 -145 57 -111 46 21 45 90 -1 110 -30 14 -34
14 -56 1z"/>
<path d="M3948 2529 c-72 -41 -18 -145 57 -111 46 21 45 90 -1 110 -30 14 -34
14 -56 1z"/>
<path d="M4098 2529 c-72 -41 -18 -145 57 -111 46 21 45 90 -1 110 -30 14 -34
14 -56 1z"/>
<path d="M4398 2529 c-72 -41 -18 -145 57 -111 46 21 45 90 -1 110 -30 14 -34
14 -56 1z"/>
<path d="M4698 2529 c-72 -41 -18 -145 57 -111 46 21 45 90 -1 110 -30 14 -34
14 -56 1z"/>
<path d="M648 2379 c-72 -41 -18 -145 57 -111 46 21 45 90 -1 110 -30 14 -34
14 -56 1z"/>
<path d="M948 2379 c-72 -41 -18 -145 57 -111 46 21 45 90 -1 110 -30 14 -34
14 -56 1z"/>
<path d="M1098 2379 c-72 -41 -18 -145 57 -111 46 21 45 90 -1 110 -30 14 -34
14 -56 1z"/>
<path d="M1248 2379 c-72 -41 -18 -145 57 -111 46 21 45 90 -1 110 -30 14 -34
14 -56 1z"/>
<path d="M1398 2379 c-72 -41 -18 -145 57 -111 46 21 45 90 -1 110 -30 14 -34
14 -56 1z"/>
<path d="M1548 2379 c-72 -41 -18 -145 57 -111 46 21 45 90 -1 110 -30 14 -34
14 -56 1z"/>
<path d="M2148 2379 c-72 -41 -18 -145 57 -111 46 21 45 90 -1 110 -30 14 -34
14 -56 1z"/>
<path d="M2298 2379 c-72 -41 -18 -145 57 -111 46 21 45 90 -1 110 -30 14 -34
14 -56 1z"/>
<path d="M2448 2379 c-72 -41 -18 -145 57 -111 46 21 45 90 -1 110 -30 14 -34
14 -56 1z"/>
<path d="M3348 2379 c-72 -41 -18 -145 57 -111 46 21 45 90 -1 110 -30 14 -34
14 -56 1z"/>
<path d="M3498 2379 c-72 -41 -18 -145 57 -111 46 21 45 90 -1 110 -30 14 -34
14 -56 1z"/>
<path d="M3648 2379 c-72 -41 -18 -145 57 -111 46 21 45 90 -1 110 -30 14 -34
14 -56 1z"/>
<path d="M4248 2379 c-72 -41 -18 -145 57 -111 46 21 45 90 -1 110 -30 14 -34
14 -56 1z"/>
<path d="M498 2229 c-72 -41 -18 -145 57 -111 46 21 45 90 -1 110 -30 14 -34
14 -56 1z"/>
<path d="M798 2229 c-72 -41 -18 -145 57 -111 46 21 45 90 -1 110 -30 14 -34
14 -56 1z"/>
<path d="M948 2229 c-72 -41 -18 -145 57 -111 46 21 45 90 -1 110 -30 14 -34
14 -56 1z"/>
<path d="M1098 2229 c-72 -41 -18 -145 57 -111 46 21 45 90 -1 110 -30 14 -34
14 -56 1z"/>
<path d="M1548 2229 c-72 -41 -18 -145 57 -111 46 21 45 90 -1 110 -30 14 -34
14 -56 1z"/>
<path d="M1998 2229 c-72 -41 -18 -145 57 -111 46 21 45 90 -1 110 -30 14 -34
14 -56 1z"/>
<path d="M2598 2229 c-72 -41 -18 -145 57 -111 46 21 45 90 -1 110 -30 14 -34
14 -56 1z"/>
<path d="M2748 2229 c-72 -41 -18 -145 57 -111 46 21 45 90 -1 110 -30 14 -34
14 -56 1z"/>
<path d="M3048 2229 c-72 -41 -18 -145 57 -111 46 21 45 90 -1 110 -30 14 -34
14 -56 1z"/>
<path d="M3348 2229 c-72 -41 -18 -145 57 -111 46 21 45 90 -1 110 -30 14 -34
14 -56 1z"/>
<path d="M4098 2229 c-72 -41 -18 -145 57 -111 46 21 45 90 -1 110 -30 14 -34
14 -56 1z"/>
<path d="M4398 2229 c-72 -41 -18 -145 57 -111 46 21 45 90 -1 110 -30 14 -34
14 -56 1z"/>
<path d="M4548 2229 c-72 -41 -18 -145 57 -111 46 21 45 90 -1 110 -30 14 -34
14 -56 1z"/>
<path d="M498 2079 c-72 -41 -18 -145 57 -111 46 21 45 90 -1 110 -30 14 -34
14 -56 1z"/>
<path d="M648 2079 c-72 -41 -18 -145 57 -111 46 21 45 90 -1 110 -30 14 -34
14 -56 1z"/>
<path d="M798 2079 c-72 -41 -18 -145 57 -111 46 21 45 90 -1 110 -30 14 -34
14 -56 1z"/>
<path d="M948 2079 c-72 -41 -18 -145 57 -111 46 21 45 90 -1 110 -30 14 -34
14 -56 1z"/>
<path d="M1098 2079 c-72 -41 -18 -145 57 -111 46 21 45 90 -1 110 -30 14 -34
14 -56 1z"/>
<path d="M1398 2079 c-72 -41 -18 -145 57 -111 46 21 45 90 -1 110 -30 14 -34
14 -56 1z"/>
<path d="M1548 2079 c-72 -41 -18 -145 57 -111 46 21 45 90 -1 110 -30 14 -34
14 -56 1z"/>
<path d="M1698 2079 c-72 -41 -18 -145 57 -111 46 21 45 90 -1 110 -30 14 -34
14 -56 1z"/>
<path d="M1848 2079 c-72 -41 -18 -145 57 -111 46 21 45 90 -1 110 -30 14 -34
14 -56 1z"/>
<path d="M1998 2079 c-72 -41 -18 -145 57 -111 46 21 45 90 -1 110 -30 14 -34
14 -56 1z"/>
<path d="M2148 2079 c-72 -41 -18 -145 57 -111 46 21 45 90 -1 110 -30 14 -34
14 -56 1z"/>
<path d="M2598 2079 c-72 -41 -18 -145 57 -111 46 21 45 90 -1 110 -30 14 -34
14 -56 1z"/>
<path d="M2748 2079 c-72 -41 -18 -145 57 -111 46 21 45 90 -1 110 -30 14 -34
14 -56 1z"/>
<path d="M3198 2079 c-72 -41 -18 -145 57 -111 46 21 45 90 -1 110 -30 14 -34
14 -56 1z"/>
<path d="M3348 2079 c-72 -41 -18 -145 57 -111 46 21 45 90 -1 110 -30 14 -34
14 -56 1z"/>
<path d="M4098 2079 c-72 -41 -18 -145 57 -111 46 21 45 90 -1 110 -30 14 -34
14 -56 1z"/>
<path d="M4248 2079 c-72 -41 -18 -145 57 -111 46 21 45 90 -1 110 -30 14 -34
14 -56 1z"/>
<path d="M4698 2079 c-72 -41 -18 -145 57 -111 46 21 45 90 -1 110 -30 14 -34
14 -56 1z"/>
<path d="M498 1929 c-72 -41 -18 -145 57 -111 46 21 45 90 -1 110 -30 14 -34
14 -56 1z"/>
<path d="M648 1929 c-72 -41 -18 -145 57 -111 46 21 45 90 -1 110 -30 14 -34
14 -56 1z"/>
<path d="M798 1929 c-72 -41 -18 -145 57 -111 46 21 45 90 -1 110 -30 14 -34
14 -56 1z"/>
<path d="M948 1929 c-72 -41 -18 -145 57 -111 46 21 45 90 -1 110 -30 14 -34
14 -56 1z"/>
<path d="M1248 1929 c-72 -41 -18 -145 57 -111 46 21 45 90 -1 110 -30 14 -34
14 -56 1z"/>
<path d="M1548 1929 c-72 -41 -18 -145 57 -111 46 21 45 90 -1 110 -30 14 -34
14 -56 1z"/>
<path d="M1698 1929 c-72 -41 -18 -145 57 -111 46 21 45 90 -1 110 -30 14 -34
14 -56 1z"/>
<path d="M2448 1929 c-72 -41 -18 -145 57 -111 46 21 45 90 -1 110 -30 14 -34
14 -56 1z"/>
<path d="M2598 1929 c-72 -41 -18 -145 57 -111 46 21 45 90 -1 110 -30 14 -34
14 -56 1z"/>
<path d="M2748 1929 c-72 -41 -18 -145 57 -111 46 21 45 90 -1 110 -30 14 -34
14 -56 1z"/>
<path d="M3198 1929 c-72 -41 -18 -145 57 -111 46 21 45 90 -1 110 -30 14 -34
14 -56 1z"/>
<path d="M3348 1929 c-72 -41 -18 -145 57 -111 46 21 45 90 -1 110 -30 14 -34
14 -56 1z"/>
<path d="M3798 1929 c-72 -41 -18 -145 57 -111 46 21 45 90 -1 110 -30 14 -34
14 -56 1z"/>
<path d="M4248 1929 c-72 -41 -18 -145 57 -111 46 21 45 90 -1 110 -30 14 -34
14 -56 1z"/>
<path d="M4398 1929 c-72 -41 -18 -145 57 -111 46 21 45 90 -1 110 -30 14 -34
14 -56 1z"/>
<path d="M498 1779 c-72 -41 -18 -145 57 -111 46 21 45 90 -1 110 -30 14 -34
14 -56 1z"/>
<path d="M648 1779 c-72 -41 -18 -145 57 -111 46 21 45 90 -1 110 -30 14 -34
14 -56 1z"/>
<path d="M798 1779 c-72 -41 -18 -145 57 -111 46 21 45 90 -1 110 -30 14 -34
14 -56 1z"/>
<path d="M948 1779 c-72 -41 -18 -145 57 -111 46 21 45 90 -1 110 -30 14 -34
14 -56 1z"/>
<path d="M1398 1779 c-72 -41 -18 -145 57 -111 46 21 45 90 -1 110 -30 14 -34
14 -56 1z"/>
<path d="M2748 1779 c-72 -41 -18 -145 57 -111 46 21 45 90 -1 110 -30 14 -34
14 -56 1z"/>
<path d="M2898 1779 c-72 -41 -18 -145 57 -111 46 21 45 90 -1 110 -30 14 -34
14 -56 1z"/>
<path d="M3048 1779 c-72 -41 -18 -145 57 -111 46 21 45 90 -1 110 -30 14 -34
14 -56 1z"/>
<path d="M3498 1779 c-72 -41 -18 -145 57 -111 46 21 45 90 -1 110 -30 14 -34
14 -56 1z"/>
<path d="M3648 1779 c-72 -41 -18 -145 57 -111 46 21 45 90 -1 110 -30 14 -34
14 -56 1z"/>
<path d="M3798 1779 c-72 -41 -18 -145 57 -111 46 21 45 90 -1 110 -30 14 -34
14 -56 1z"/>
<path d="M3948 1779 c-72 -41 -18 -145 57 -111 46 21 45 90 -1 110 -30 14 -34
14 -56 1z"/>
<path d="M4098 1779 c-72 -41 -18 -145 57 -111 46 21 45 90 -1 110 -30 14 -34
14 -56 1z"/>
<path d="M4248 1779 c-72 -41 -18 -145 57 -111 46 21 45 90 -1 110 -30 14 -34
14 -56 1z"/>
<path d="M4398 1779 c-72 -41 -18 -145 57 -111 46 21 45 90 -1 110 -30 14 -34
14 -56 1z"/>
<path d="M4548 1779 c-72 -41 -18 -145 57 -111 46 21 45 90 -1 110 -30 14 -34
14 -56 1z"/>
<path d="M1698 1629 c-72 -41 -18 -145 57 -111 46 21 45 90 -1 110 -30 14 -34
14 -56 1z"/>
<path d="M1848 1629 c-72 -41 -18 -145 57 -111 46 21 45 90 -1 110 -30 14 -34
14 -56 1z"/>
<path d="M1998 1629 c-72 -41 -18 -145 57 -111 46 21 45 90 -1 110 -30 14 -34
14 -56 1z"/>
<path d="M2148 1629 c-72 -41 -18 -145 57 -111 46 21 45 90 -1 110 -30 14 -34
14 -56 1z"/>
<path d="M2448 1629 c-72 -41 -18 -145 57 -111 46 21 45 90 -1 110 -30 14 -34
14 -56 1z"/>
<path d="M2598 1629 c-72 -41 -18 -145 57 -111 46 21 45 90 -1 110 -30 14 -34
14 -56 1z"/>
<path d="M3198 1629 c-72 -41 -18 -145 57 -111 46 21 45 90 -1 110 -30 14 -34
14 -56 1z"/>
<path d="M3498 1629 c-72 -41 -18 -145 57 -111 46 21 45 90 -1 110 -30 14 -34
14 -56 1z"/>
<path d="M4098 1629 c-72 -41 -18 -145 57 -111 46 21 45 90 -1 110 -30 14 -34
14 -56 1z"/>
<path d="M4248 1629 c-72 -41 -18 -145 57 -111 46 21 45 90 -1 110 -30 14 -34
14 -56 1z"/>
<path d="M545 1486 c-37 -16 -70 -52 -84 -89 -7 -18 -11 -168 -11 -425 0 -369
2 -400 19 -439 14 -30 31 -48 60 -62 39 -20 56 -21 453 -21 394 0 414 1 446
20 18 11 41 34 52 52 19 32 20 52 20 446 0 397 -1 414 -21 453 -14 29 -32 46
-62 60 -39 17 -70 19 -442 18 -311 0 -407 -3 -430 -13z m722 -155 c30 -14 48
-31 62 -60 20 -38 21 -57 21 -303 0 -245 -1 -265 -20 -296 -11 -18 -34 -41
-52 -52 -31 -19 -51 -20 -296 -20 -393 0 -381 -12 -382 372 0 256 4 284 43
327 43 47 66 50 332 50 225 1 254 -1 292 -18z"/>
<path d="M845 1186 c-73 -32 -95 -83 -95 -214 1 -183 41 -222 232 -222 127 0
162 13 198 72 17 28 20 51 20 146 0 192 -38 232 -225 231 -61 0 -112 -5 -130
-13z"/>
<path d="M3775 1475 c-30 -30 -32 -64 -4 -99 26 -33 79 -36 109 -6 30 30 27
83 -6 109 -35 28 -69 26 -99 -4z"/>
<path d="M2148 1479 c-72 -41 -18 -145 57 -111 46 21 45 90 -1 110 -30 14 -34
14 -56 1z"/>
<path d="M2298 1479 c-72 -41 -18 -145 57 -111 46 21 45 90 -1 110 -30 14 -34
14 -56 1z"/>
<path d="M2748 1479 c-72 -41 -18 -145 57 -111 46 21 45 90 -1 110 -30 14 -34
14 -56 1z"/>
<path d="M2898 1479 c-72 -41 -18 -145 57 -111 46 21 45 90 -1 110 -30 14 -34
14 -56 1z"/>
<path d="M3048 1479 c-72 -41 -18 -145 57 -111 46 21 45 90 -1 110 -30 14 -34
14 -56 1z"/>
<path d="M3198 1479 c-72 -41 -18 -145 57 -111 46 21 45 90 -1 110 -30 14 -34
14 -56 1z"/>
<path d="M3348 1479 c-72 -41 -18 -145 57 -111 46 21 45 90 -1 110 -30 14 -34
14 -56 1z"/>
<path d="M3498 1479 c-72 -41 -18 -145 57 -111 46 21 45 90 -1 110 -30 14 -34
14 -56 1z"/>
<path d="M4098 1479 c-72 -41 -18 -145 57 -111 46 21 45 90 -1 110 -30 14 -34
14 -56 1z"/>
<path d="M4248 1479 c-72 -41 -18 -145 57 -111 46 21 45 90 -1 110 -30 14 -34
14 -56 1z"/>
<path d="M1998 1329 c-72 -41 -18 -145 57 -111 46 21 45 90 -1 110 -30 14 -34
14 -56 1z"/>
<path d="M2598 1329 c-72 -41 -18 -145 57 -111 46 21 45 90 -1 110 -30 14 -34
14 -56 1z"/>
<path d="M2748 1329 c-72 -41 -18 -145 57 -111 46 21 45 90 -1 110 -30 14 -34
14 -56 1z"/>
<path d="M3048 1329 c-72 -41 -18 -145 57 -111 46 21 45 90 -1 110 -30 14 -34
14 -56 1z"/>
<path d="M3348 1329 c-72 -41 -18 -145 57 -111 46 21 45 90 -1 110 -30 14 -34
14 -56 1z"/>
<path d="M3498 1329 c-72 -41 -18 -145 57 -111 46 21 45 90 -1 110 -30 14 -34
14 -56 1z"/>
<path d="M4098 1329 c-72 -41 -18 -145 57 -111 46 21 45 90 -1 110 -30 14 -34
14 -56 1z"/>
<path d="M4548 1329 c-72 -41 -18 -145 57 -111 46 21 45 90 -1 110 -30 14 -34
14 -56 1z"/>
<path d="M4698 1329 c-72 -41 -18 -145 57 -111 46 21 45 90 -1 110 -30 14 -34
14 -56 1z"/>
<path d="M1698 1179 c-72 -41 -18 -145 57 -111 46 21 45 90 -1 110 -30 14 -34
14 -56 1z"/>
<path d="M2298 1179 c-72 -41 -18 -145 57 -111 46 21 45 90 -1 110 -30 14 -34
14 -56 1z"/>
<path d="M2448 1179 c-72 -41 -18 -145 57 -111 46 21 45 90 -1 110 -30 14 -34
14 -56 1z"/>
<path d="M2898 1179 c-72 -41 -18 -145 57 -111 46 21 45 90 -1 110 -30 14 -34
14 -56 1z"/>
<path d="M3348 1179 c-72 -41 -18 -145 57 -111 46 21 45 90 -1 110 -30 14 -34
14 -56 1z"/>
<path d="M3498 1179 c-72 -41 -18 -145 57 -111 46 21 45 90 -1 110 -30 14 -34
14 -56 1z"/>
<path d="M3648 1179 c-72 -41 -18 -145 57 -111 46 21 45 90 -1 110 -30 14 -34
14 -56 1z"/>
<path d="M3798 1179 c-72 -41 -18 -145 57 -111 46 21 45 90 -1 110 -30 14 -34
14 -56 1z"/>
<path d="M3948 1179 c-72 -41 -18 -145 57 -111 46 21 45 90 -1 110 -30 14 -34
14 -56 1z"/>
<path d="M4098 1179 c-72 -41 -18 -145 57 -111 46 21 45 90 -1 110 -30 14 -34
14 -56 1z"/>
<path d="M4248 1179 c-72 -41 -18 -145 57 -111 46 21 45 90 -1 110 -30 14 -34
14 -56 1z"/>
<path d="M4548 1179 c-72 -41 -18 -145 57 -111 46 21 45 90 -1 110 -30 14 -34
14 -56 1z"/>
<path d="M4698 1179 c-72 -41 -18 -145 57 -111 46 21 45 90 -1 110 -30 14 -34
14 -56 1z"/>
<path d="M1698 1029 c-72 -41 -18 -145 57 -111 46 21 45 90 -1 110 -30 14 -34
14 -56 1z"/>
<path d="M1848 1029 c-72 -41 -18 -145 57 -111 46 21 45 90 -1 110 -30 14 -34
14 -56 1z"/>
<path d="M1998 1029 c-72 -41 -18 -145 57 -111 46 21 45 90 -1 110 -30 14 -34
14 -56 1z"/>
<path d="M2148 1029 c-72 -41 -18 -145 57 -111 46 21 45 90 -1 110 -30 14 -34
14 -56 1z"/>
<path d="M2598 1029 c-72 -41 -18 -145 57 -111 46 21 45 90 -1 110 -30 14 -34
14 -56 1z"/>
<path d="M2748 1029 c-72 -41 -18 -145 57 -111 46 21 45 90 -1 110 -30 14 -34
14 -56 1z"/>
<path d="M3198 1029 c-72 -41 -18 -145 57 -111 46 21 45 90 -1 110 -30 14 -34
14 -56 1z"/>
<path d="M3648 1029 c-72 -41 -18 -145 57 -111 46 21 45 90 -1 110 -30 14 -34
14 -56 1z"/>
<path d="M4548 1029 c-72 -41 -18 -145 57 -111 46 21 45 90 -1 110 -30 14 -34
14 -56 1z"/>
<path d="M4698 1029 c-72 -41 -18 -145 57 -111 46 21 45 90 -1 110 -30 14 -34
14 -56 1z"/>
<path d="M1848 879 c-72 -41 -18 -145 57 -111 46 21 45 90 -1 110 -30 14 -34
14 -56 1z"/>
<path d="M2448 879 c-72 -41 -18 -145 57 -111 46 21 45 90 -1 110 -30 14 -34
14 -56 1z"/>
<path d="M2598 879 c-72 -41 -18 -145 57 -111 46 21 45 90 -1 110 -30 14 -34
14 -56 1z"/>
<path d="M2748 879 c-72 -41 -18 -145 57 -111 46 21 45 90 -1 110 -30 14 -34
14 -56 1z"/>
<path d="M3498 879 c-72 -41 -18 -145 57 -111 46 21 45 90 -1 110 -30 14 -34
14 -56 1z"/>
<path d="M3648 879 c-72 -41 -18 -145 57 -111 46 21 45 90 -1 110 -30 14 -34
14 -56 1z"/>
<path d="M3948 879 c-72 -41 -18 -145 57 -111 46 21 45 90 -1 110 -30 14 -34
14 -56 1z"/>
<path d="M4098 879 c-72 -41 -18 -145 57 -111 46 21 45 90 -1 110 -30 14 -34
14 -56 1z"/>
<path d="M4398 879 c-72 -41 -18 -145 57 -111 46 21 45 90 -1 110 -30 14 -34
14 -56 1z"/>
<path d="M4548 879 c-72 -41 -18 -145 57 -111 46 21 45 90 -1 110 -30 14 -34
14 -56 1z"/>
<path d="M4698 879 c-72 -41 -18 -145 57 -111 46 21 45 90 -1 110 -30 14 -34
14 -56 1z"/>
<path d="M1698 729 c-72 -41 -18 -145 57 -111 46 21 45 90 -1 110 -30 14 -34
14 -56 1z"/>
<path d="M1848 729 c-72 -41 -18 -145 57 -111 46 21 45 90 -1 110 -30 14 -34
14 -56 1z"/>
<path d="M1998 729 c-72 -41 -18 -145 57 -111 46 21 45 90 -1 110 -30 14 -34
14 -56 1z"/>
<path d="M2298 729 c-72 -41 -18 -145 57 -111 46 21 45 90 -1 110 -30 14 -34
14 -56 1z"/>
<path d="M2898 729 c-72 -41 -18 -145 57 -111 46 21 45 90 -1 110 -30 14 -34
14 -56 1z"/>
<path d="M3198 729 c-72 -41 -18 -145 57 -111 46 21 45 90 -1 110 -30 14 -34
14 -56 1z"/>
<path d="M3798 729 c-72 -41 -18 -145 57 -111 46 21 45 90 -1 110 -30 14 -34
14 -56 1z"/>
<path d="M3948 729 c-72 -41 -18 -145 57 -111 46 21 45 90 -1 110 -30 14 -34
14 -56 1z"/>
<path d="M4248 729 c-72 -41 -18 -145 57 -111 46 21 45 90 -1 110 -30 14 -34
14 -56 1z"/>
<path d="M4398 729 c-72 -41 -18 -145 57 -111 46 21 45 90 -1 110 -30 14 -34
14 -56 1z"/>
<path d="M4698 729 c-72 -41 -18 -145 57 -111 46 21 45 90 -1 110 -30 14 -34
14 -56 1z"/>
<path d="M1698 579 c-72 -41 -18 -145 57 -111 46 21 45 90 -1 110 -30 14 -34
14 -56 1z"/>
<path d="M1998 579 c-72 -41 -18 -145 57 -111 46 21 45 90 -1 110 -30 14 -34
14 -56 1z"/>
<path d="M2148 579 c-72 -41 -18 -145 57 -111 46 21 45 90 -1 110 -30 14 -34
14 -56 1z"/>
<path d="M2298 579 c-72 -41 -18 -145 57 -111 46 21 45 90 -1 110 -30 14 -34
14 -56 1z"/>
<path d="M2448 579 c-72 -41 -18 -145 57 -111 46 21 45 90 -1 110 -30 14 -34
14 -56 1z"/>
<path d="M2748 579 c-72 -41 -18 -145 57 -111 46 21 45 90 -1 110 -30 14 -34
14 -56 1z"/>
<path d="M3348 579 c-72 -41 -18 -145 57 -111 46 21 45 90 -1 110 -30 14 -34
14 -56 1z"/>
<path d="M3498 579 c-72 -41 -18 -145 57 -111 46 21 45 90 -1 110 -30 14 -34
14 -56 1z"/>
<path d="M3798 579 c-72 -41 -18 -145 57 -111 46 21 45 90 -1 110 -30 14 -34
14 -56 1z"/>
<path d="M4098 579 c-72 -41 -18 -145 57 -111 46 21 45 90 -1 110 -30 14 -34
14 -56 1z"/>
</g>
</svg>
