<?xml version="1.0" standalone="no"?>
<!DOCTYPE svg PUBLIC "-//W3C//DTD SVG 20010904//EN"
 "http://www.w3.org/TR/2001/REC-SVG-20010904/DTD/svg10.dtd">
<svg version="1.0" xmlns="http://www.w3.org/2000/svg"
 width="496.000000pt" height="316.000000pt" viewBox="0 0 496.000000 316.000000"
 preserveAspectRatio="xMidYMid meet">

<g transform="translate(0.000000,316.000000) scale(0.100000,-0.100000)"
fill="#000000" stroke="none">
<path d="M280 1800 l0 -1060 2200 0 2200 0 0 1060 0 1060 -2200 0 -2200 0 0
-1060z m2500 455 l0 -115 -234 0 c-129 0 -237 -4 -240 -8 -7 -11 -28 -144 -23
-148 1 -2 32 6 67 17 192 61 396 -28 461 -200 46 -122 9 -295 -86 -400 -84
-92 -253 -137 -431 -113 -160 21 -269 95 -326 221 -16 35 -28 65 -26 67 8 7
289 35 298 29 6 -3 10 -14 10 -23 0 -25 35 -79 65 -98 15 -10 45 -16 74 -16
99 0 148 71 139 205 -7 113 -49 160 -143 160 -55 0 -86 -12 -126 -49 l-25 -24
-125 16 c-68 9 -126 18 -127 20 -2 1 18 131 44 288 l47 286 354 0 353 0 0
-115z m584 -265 c66 -209 121 -378 122 -377 1 1 54 170 118 376 64 206 118
376 120 378 2 2 77 2 168 1 l165 -3 -197 -530 -197 -530 -182 0 -183 0 -192
510 c-106 281 -196 520 -200 533 l-7 22 173 0 173 0 119 -380z m-1852 108 l3
-143 138 -3 137 -3 0 -114 0 -114 -137 -3 -138 -3 -3 -137 -3 -138 -119 0
-120 0 0 140 0 140 -140 0 -140 0 0 115 0 115 140 0 140 0 0 145 0 145 120 0
119 0 3 -142z"/>
</g>
</svg>
