<?xml version="1.0" standalone="no"?>
<!DOCTYPE svg PUBLIC "-//W3C//DTD SVG 20010904//EN"
 "http://www.w3.org/TR/2001/REC-SVG-20010904/DTD/svg10.dtd">
<svg version="1.0" xmlns="http://www.w3.org/2000/svg"
 width="422.000000pt" height="316.000000pt" viewBox="0 0 422.000000 316.000000"
 preserveAspectRatio="xMidYMid meet">

<g transform="translate(0.000000,316.000000) scale(0.100000,-0.100000)"
fill="#000000" stroke="none">
<path d="M520 1800 l0 -1060 1590 0 1590 0 0 1060 0 1060 -1590 0 -1590 0 0
-1060z m2487 566 c115 -36 193 -135 193 -245 -1 -75 -25 -126 -89 -184 l-53
-47 27 -10 c14 -5 30 -10 36 -10 17 0 90 -74 109 -109 59 -117 14 -297 -96
-387 -61 -50 -157 -83 -262 -90 -225 -16 -392 59 -465 210 -45 92 -48 88 88
107 178 25 172 26 185 -21 32 -120 160 -155 239 -65 55 62 51 173 -8 229 -34
33 -96 44 -154 28 -43 -12 -42 -18 -30 126 5 73 8 82 24 77 30 -10 93 13 123
44 86 90 -5 223 -121 176 -42 -17 -66 -49 -78 -103 -5 -24 -11 -32 -23 -28
-10 3 -71 15 -137 26 -66 12 -122 24 -124 26 -8 8 30 92 60 132 50 68 134 115
239 136 52 10 266 -2 317 -18z m-1483 -298 c44 -167 82 -309 86 -316 3 -7 43
128 87 300 l80 313 221 3 222 2 0 -535 0 -535 -140 0 -140 0 -1 393 0 392
-102 -393 -102 -392 -124 2 -124 3 -103 395 -103 395 0 -397 -1 -398 -135 0
-135 0 0 535 0 535 218 0 218 0 78 -302z"/>
</g>
</svg>
