<?xml version="1.0" standalone="no"?>
<!DOCTYPE svg PUBLIC "-//W3C//DTD SVG 20010904//EN"
 "http://www.w3.org/TR/2001/REC-SVG-20010904/DTD/svg10.dtd">
<svg version="1.0" xmlns="http://www.w3.org/2000/svg"
 width="440.000000pt" height="316.000000pt" viewBox="0 0 440.000000 316.000000"
 preserveAspectRatio="xMidYMid meet">

<g transform="translate(0.000000,316.000000) scale(0.100000,-0.100000)"
fill="#000000" stroke="none">
<path d="M610 1800 l0 -1060 1590 0 1590 0 0 1060 0 1060 -1590 0 -1590 0 0
-1060z m924 258 c44 -170 82 -308 86 -308 3 0 42 140 85 310 l79 310 218 0
218 0 0 -535 0 -535 -135 0 -135 0 -1 398 -1 397 -24 -90 c-13 -49 -59 -227
-102 -395 l-79 -305 -124 -3 -124 -3 -85 328 c-133 519 -118 512 -119 61 l-1
-388 -140 0 -140 0 0 535 0 535 222 -2 222 -3 80 -307z m1548 301 c83 -18 151
-55 206 -112 99 -106 135 -217 134 -422 0 -71 -5 -151 -11 -177 -28 -121 -110
-233 -208 -286 -94 -50 -192 -62 -499 -62 l-264 0 0 535 0 535 295 0 c178 0
315 -4 347 -11z"/>
<path d="M2770 1834 l0 -297 91 6 c115 7 166 30 199 90 21 37 25 58 28 168 7
200 -26 279 -129 312 -28 9 -82 17 -120 17 l-69 0 0 -296z"/>
</g>
</svg>
