<?xml version="1.0" standalone="no"?>
<!DOCTYPE svg PUBLIC "-//W3C//DTD SVG 20010904//EN"
 "http://www.w3.org/TR/2001/REC-SVG-20010904/DTD/svg10.dtd">
<svg version="1.0" xmlns="http://www.w3.org/2000/svg"
 width="1144.000000pt" height="316.000000pt" viewBox="0 0 1144.000000 316.000000"
 preserveAspectRatio="xMidYMid meet">

<g transform="translate(0.000000,316.000000) scale(0.100000,-0.100000)"
fill="#000000" stroke="none">
<path d="M210 1795 l0 -1065 5510 0 5510 0 0 1065 0 1065 -5510 0 -5510 0 0
-1065z m1249 538 c6 -21 43 -163 83 -316 40 -152 75 -271 79 -265 6 12 159
600 159 612 0 3 99 6 220 6 l220 0 0 -535 0 -535 -135 0 -135 0 -2 398 -3 397
-93 -360 c-51 -198 -98 -377 -103 -397 l-10 -38 -123 0 -123 0 -76 293 c-42
160 -87 335 -100 387 l-23 95 -7 -124 c-4 -68 -7 -243 -7 -388 l0 -263 -135 0
-135 0 0 535 0 535 220 0 219 0 10 -37z m2311 -108 l0 -145 85 0 85 0 0 -110
0 -110 -85 0 -85 0 0 -159 c0 -203 8 -216 116 -197 l41 7 10 -98 c6 -54 8
-101 5 -105 -16 -16 -227 -30 -287 -19 -150 28 -184 106 -185 419 l0 152 -55
0 -55 0 0 110 0 110 55 0 55 0 0 69 0 69 143 76 c78 41 145 75 150 76 4 0 7
-65 7 -145z m2660 129 c80 -18 131 -48 191 -109 93 -94 132 -217 133 -420 0
-192 -31 -287 -126 -391 -102 -111 -202 -134 -585 -134 l-273 0 0 535 0 535
298 0 c231 0 311 -4 362 -16z m1460 -84 l0 -100 -150 0 -150 0 0 100 0 100
150 0 150 0 0 -100z m-4833 -225 c114 -56 182 -151 205 -285 22 -128 -18 -263
-104 -352 -83 -85 -189 -122 -348 -121 -191 1 -328 81 -399 233 -23 49 -26 67
-26 170 0 107 2 119 29 175 35 70 108 146 175 179 129 65 336 66 468 1z m1588
29 c155 -38 261 -157 284 -319 23 -164 -40 -317 -167 -399 -107 -70 -306 -91
-444 -47 -145 46 -245 161 -269 311 -21 131 26 276 117 359 113 105 292 140
479 95z m1003 -1 c23 -8 42 -20 41 -26 0 -7 -19 -55 -43 -107 -29 -64 -47 -94
-57 -91 -165 41 -209 -40 -209 -386 l0 -163 -150 0 -150 0 0 390 0 390 140 0
140 0 0 -62 0 -63 34 50 c60 89 137 110 254 68z m1835 0 c26 -8 47 -18 45 -22
-82 -192 -92 -211 -107 -205 -9 4 -35 9 -59 12 -55 5 -87 -16 -115 -76 -20
-43 -22 -67 -25 -264 l-4 -218 -149 0 -149 0 0 390 0 390 140 0 140 0 0 -57 0
-56 30 41 c62 87 130 104 253 65z m2032 6 c191 -36 305 -191 305 -416 l0 -53
-296 0 -297 0 6 -37 c18 -107 164 -149 250 -73 l33 28 119 -9 c165 -14 168
-14 154 -41 -23 -42 -104 -120 -149 -143 -74 -37 -146 -50 -275 -49 -138 1
-205 16 -279 65 -195 129 -221 454 -51 624 104 105 279 143 480 104z m1028
-10 c15 -7 27 -15 27 -18 0 -4 -20 -51 -44 -106 -29 -65 -49 -99 -58 -96 -7 2
-35 6 -63 8 -112 8 -145 -81 -145 -389 l0 -168 -150 0 -150 0 0 390 0 390 140
0 140 0 0 -62 0 -62 29 46 c35 54 68 79 119 88 43 7 115 -3 155 -21z m-2653
-379 l0 -390 -150 0 -150 0 0 390 0 390 150 0 150 0 0 -390z m485 152 c40
-128 75 -235 77 -237 3 -3 39 102 80 233 l76 237 151 3 c83 1 151 1 151 0 0
-2 -74 -176 -164 -388 l-164 -385 -134 -3 -133 -3 -147 353 c-81 194 -154 370
-163 391 l-15 38 156 -3 157 -3 72 -233z"/>
<path d="M6102 1839 l3 -294 45 -3 c53 -4 164 14 191 31 25 15 57 65 70 109
13 46 13 247 -1 300 -15 53 -51 103 -92 124 -18 9 -68 18 -124 21 l-94 6 2
-294z"/>
<path d="M2760 1872 c-21 -11 -44 -36 -58 -63 -20 -38 -23 -56 -20 -136 2 -74
7 -97 24 -119 36 -49 69 -67 120 -66 85 1 131 57 141 169 7 86 -9 144 -50 190
-41 44 -103 54 -157 25z"/>
<path d="M4440 1879 c-81 -32 -120 -152 -89 -273 34 -138 205 -163 264 -40 26
55 26 185 0 239 -35 70 -107 101 -175 74z"/>
<path d="M9311 1902 c-44 -22 -70 -57 -78 -105 l-6 -37 146 0 145 0 -9 41
c-13 54 -34 84 -74 103 -43 21 -82 20 -124 -2z"/>
</g>
</svg>
