<?xml version="1.0" standalone="no"?>
<!DOCTYPE svg PUBLIC "-//W3C//DTD SVG 20010904//EN"
 "http://www.w3.org/TR/2001/REC-SVG-20010904/DTD/svg10.dtd">
<svg version="1.0" xmlns="http://www.w3.org/2000/svg"
 width="816.000000pt" height="316.000000pt" viewBox="0 0 816.000000 316.000000"
 preserveAspectRatio="xMidYMid meet">

<g transform="translate(0.000000,316.000000) scale(0.100000,-0.100000)"
fill="#000000" stroke="none">
<path d="M410 1795 l0 -1065 3670 0 3670 0 0 1065 0 1065 -3670 0 -3670 0 0
-1065z m1246 584 c83 -15 171 -60 226 -115 48 -48 123 -175 115 -197 -2 -7
-66 -26 -143 -43 l-139 -31 -20 40 c-30 60 -84 99 -144 105 -78 7 -118 -5
-167 -50 -58 -54 -77 -116 -76 -255 0 -165 34 -247 116 -284 73 -33 164 -21
220 30 30 27 76 114 76 144 0 9 1 17 3 17 4 0 267 -78 285 -85 9 -3 6 -21 -12
-69 -39 -103 -80 -159 -158 -219 -79 -59 -168 -82 -318 -81 -188 0 -281 30
-381 122 -113 104 -161 229 -163 427 -1 188 41 314 141 417 47 48 157 106 236
123 77 17 223 19 303 4z m1119 -305 c73 -18 125 -51 155 -99 42 -68 50 -125
50 -365 0 -200 3 -230 20 -267 l19 -43 -143 0 -144 0 -10 28 c-6 15 -13 35
-16 45 -5 15 -11 13 -51 -18 -63 -47 -140 -69 -245 -69 -114 0 -176 22 -228
79 -83 89 -82 210 2 290 46 44 91 61 251 95 118 25 236 58 249 70 4 5 3 24 -4
43 -14 45 -58 62 -135 52 -53 -6 -86 -27 -111 -70 -10 -18 -17 -18 -147 -5
-155 15 -156 15 -116 97 25 53 91 108 152 129 95 32 334 36 452 8z m1072 -8
c18 -9 46 -34 64 -56 l32 -39 48 39 c71 60 125 81 211 81 153 0 228 -53 263
-186 12 -46 15 -118 15 -332 l0 -273 -150 0 -150 0 0 240 c0 255 -5 286 -49
310 -44 23 -108 5 -138 -39 -16 -23 -18 -57 -21 -268 l-3 -243 -150 0 -149 0
0 251 0 251 -29 29 c-46 45 -120 36 -158 -20 -16 -23 -18 -57 -21 -268 l-3
-243 -150 0 -149 0 0 390 0 390 140 0 140 0 0 -57 0 -57 43 41 c23 22 57 48
75 57 69 35 224 36 289 2z m1368 13 c191 -36 305 -191 305 -416 l0 -53 -296 0
-297 0 6 -37 c18 -107 164 -149 250 -73 l33 28 119 -9 c165 -14 168 -14 154
-41 -23 -42 -104 -120 -149 -143 -74 -37 -146 -50 -275 -49 -138 1 -205 16
-278 65 -196 130 -223 453 -52 624 104 105 279 143 480 104z m1028 -10 c15 -7
27 -15 27 -18 0 -4 -20 -51 -44 -106 -29 -65 -49 -99 -58 -96 -7 2 -35 6 -63
8 -111 8 -145 -80 -145 -384 l0 -173 -150 0 -150 0 0 390 0 390 140 0 140 0 0
-62 0 -62 29 46 c35 54 68 79 119 88 43 7 115 -3 155 -21z m656 16 c135 -10
209 -60 250 -170 19 -50 21 -77 21 -283 1 -193 3 -235 19 -279 l18 -53 -138 0
c-151 0 -150 -1 -168 68 l-7 24 -31 -26 c-100 -84 -306 -108 -427 -51 -119 57
-159 219 -79 323 36 48 106 77 284 116 238 53 252 61 230 119 -21 55 -151 61
-211 11 -16 -14 -30 -32 -30 -40 0 -17 -27 -18 -176 -2 -129 13 -128 12 -90
94 41 89 131 139 273 153 86 8 108 8 262 -4z"/>
<path d="M2575 1635 c-80 -25 -116 -40 -132 -60 -49 -57 -10 -125 72 -125 91
0 157 57 171 146 11 76 12 76 -111 39z"/>
<path d="M5011 1902 c-44 -22 -70 -57 -78 -105 l-6 -37 146 0 145 0 -9 41
c-13 54 -34 84 -74 103 -43 21 -82 20 -124 -2z"/>
<path d="M6767 1635 c-114 -35 -141 -51 -151 -91 -13 -50 28 -93 90 -94 109
-1 184 80 172 187 l-3 31 -108 -33z"/>
</g>
</svg>
